<svg xmlns="http://www.w3.org/2000/svg" width="116" height="121" fill="none"><path fill="#166DFF" d="M83.684 10h20.076c1.782 0 2.674 2.154 1.414 3.414L59.676 58.913a2 2 0 0 0 0 2.828l45.498 45.499c1.26 1.26.368 3.414-1.414 3.414H83.684a4 4 0 0 1-2.828-1.171L34.528 63.156a4 4 0 0 1 0-5.657l46.328-46.327A4 4 0 0 1 83.684 10Z"/><path fill="#000" d="m44.615 44.584-9.647-9.647a4 4 0 0 0-2.828-1.171H12.064c-1.782 0-2.675 2.154-1.415 3.414l21.075 21.075a5.977 5.977 0 0 1 1.39-2.17l11.5-11.501ZM31.724 62.4a5.986 5.986 0 0 0 1.39 2.17l11.5 11.5-9.646 9.647a4 4 0 0 1-2.828 1.172H12.064c-1.782 0-2.675-2.155-1.415-3.414l21.075-21.076Z"/></svg>