<svg xmlns="http://www.w3.org/2000/svg" xml:space="preserve" id="ARTWORK" x="0" y="0" version="1.1" viewBox="0 0 306 115.2"><style>.st0{fill:#121212}</style><path d="M77.5 68.8c4.8-6.4 7.7-13.3 7.7-21.9 0-21.1-17.1-38.1-38.1-38.1S8.9 25.9 8.9 46.9c0 8.6 2.9 15.5 7.7 21.9l12.3-7.5c-3.3-4.1-5.6-9.6-5.6-15.3 0-13.1 10.6-23.8 23.8-23.8s23.8 10.7 23.8 23.9c0 5.7-2.3 11.2-5.6 15.3z" class="st0"/><path d="M37 94.4s4.1-4 10.1-4c5.5 0 10.1 4 10.1 4l-10.1 12zm-15.2-18S32 67.2 47 67.2c15.2 0 25.2 9.2 25.2 9.2L63.4 87S58 80.6 47 80.6 30.7 87 30.7 87z" style="fill:#832beb"/><path d="M210.2 44.6c-10.9 0-19 8.7-19 18.9 0 10.3 8.2 18.8 17.9 18.8 5.8 0 10.6-2.8 13.3-7.1v6.2h6.9V63.5c-.1-10.6-8.3-18.9-19.1-18.9m0 30.9c-6.7 0-12-5.3-12-11.9s5.2-12 12-12 12 5.4 12 12-5.4 11.9-12 11.9m-76.8-14.7c6.8-1.5 10.3-7.2 10.3-13.4 0-9.4-7.3-14.8-17.6-14.8h-16.5v48.8h6.9V63.9h6.1c6.9 0 9.3 3.6 12.2 9.3l4.1 8.2h8l-4.5-9c-3-5.6-5.1-9.7-9-11.6m-7.4-3.9h-9.6V39.6h9.7c5.9 0 10.7 2.7 10.7 8.6s-4.6 8.7-10.8 8.7m154.6-12.3c-7.1 0-12.3 3.7-14.1 9.3-1.8-5.5-7-9.3-14.1-9.3-10.7 0-16.4 8.1-16.4 18.1v18.7h6.9V63.8c0-6.5 3.4-12.1 10-12.1s10.2 5.4 10.2 12v17.7h6.9V63.7c0-6.6 3.5-12 10.2-12 6.6 0 10 5.7 10 12.1v17.6h6.9V62.7c-.1-10-5.8-18.1-16.5-18.1m-113.6 0c-10.6 0-18.9 8.5-18.9 18.8 0 10.4 8.4 18.9 18.9 18.9s18.8-8.7 18.8-18.9-8.2-18.8-18.8-18.8m0 30.9c-6.8 0-12-5.3-12-11.9 0-6.5 5.3-11.9 12-11.9s11.8 5.4 11.8 11.9-5 11.9-11.8 11.9" class="st0"/></svg>