<?xml version="1.0" encoding="utf-8"?>
<!-- Generator: Adobe Illustrator 28.3.0, SVG Export Plug-In . SVG Version: 6.00 Build 0)  -->
<svg version="1.1" id="ARTWORK" xmlns="http://www.w3.org/2000/svg" xmlns:xlink="http://www.w3.org/1999/xlink" x="0px" y="0px"
	 viewBox="0 0 306 115.2" style="enable-background:new 0 0 306 115.2;" xml:space="preserve">
<style type="text/css">
	.st0{fill:#121212;}
	.st1{fill:#832BEB;}
</style>
<g>
	<g>
		<path class="st0" d="M77.5,68.8c4.8-6.4,7.7-13.3,7.7-21.9c0-21.1-17.1-38.1-38.1-38.1S8.9,25.9,8.9,46.9c0,8.6,2.9,15.5,7.7,21.9
			l12.3-7.5c-3.3-4.1-5.6-9.6-5.6-15.3c0-13.1,10.6-23.8,23.8-23.8s23.8,10.7,23.8,23.9c0,5.7-2.3,11.2-5.6,15.3L77.5,68.8
			L77.5,68.8z"/>
		<path class="st1" d="M37,94.4c0,0,4.1-4,10.1-4c5.5,0,10.1,4,10.1,4l-10.1,12L37,94.4L37,94.4z"/>
		<path class="st1" d="M21.8,76.4c0,0,10.2-9.2,25.2-9.2c15.2,0,25.2,9.2,25.2,9.2L63.4,87c0,0-5.4-6.4-16.4-6.4S30.7,87,30.7,87
			L21.8,76.4L21.8,76.4z"/>
	</g>
	<path class="st0" d="M210.2,44.6c-10.9,0-19,8.7-19,18.9l0,0c0,10.3,8.2,18.8,17.9,18.8c5.8,0,10.6-2.8,13.3-7.1v6.2h6.9V63.5
		C229.2,52.9,221,44.6,210.2,44.6z M210.2,75.5c-6.7,0-12-5.3-12-11.9s5.2-12,12-12s12,5.4,12,12S216.8,75.5,210.2,75.5z"/>
	<path class="st0" d="M133.4,60.8c6.8-1.5,10.3-7.2,10.3-13.4c0-9.4-7.3-14.8-17.6-14.8h-16.5v48.8h6.9V63.9h6.1
		c6.9,0,9.3,3.6,12.2,9.3l4.1,8.2h8l-4.5-9C139.4,66.8,137.3,62.7,133.4,60.8z M126,56.9h-9.6V39.6h9.7c5.9,0,10.7,2.7,10.7,8.6
		S132.2,56.9,126,56.9z"/>
	<path class="st0" d="M280.6,44.6c-7.1,0-12.3,3.7-14.1,9.3l0,0c-1.8-5.5-7-9.3-14.1-9.3c-10.7,0-16.4,8.1-16.4,18.1v18.7h6.9V63.8
		c0-6.5,3.4-12.1,10-12.1s10.2,5.4,10.2,12v17.7h6.9V63.7c0-6.6,3.5-12,10.2-12c6.6,0,10,5.7,10,12.1v17.6h6.9V62.7
		C297,52.7,291.3,44.6,280.6,44.6z"/>
	<path class="st0" d="M167,44.6c-10.6,0-18.9,8.5-18.9,18.8c0,10.4,8.4,18.9,18.9,18.9s18.8-8.7,18.8-18.9S177.6,44.6,167,44.6z
		 M167,75.5c-6.8,0-12-5.3-12-11.9c0-6.5,5.3-11.9,12-11.9s11.8,5.4,11.8,11.9S173.8,75.5,167,75.5z"/>
</g>
</svg>
