<svg xmlns="http://www.w3.org/2000/svg" xml:space="preserve" viewBox="0 0 93.2 115.2"><path d="M77.5 68.8c4.8-6.4 7.7-13.3 7.7-21.9 0-21.1-17.1-38.1-38.1-38.1S8.9 25.9 8.9 46.9c0 8.6 2.9 15.5 7.7 21.9l12.3-7.5c-3.3-4.1-5.6-9.6-5.6-15.3 0-13.1 10.6-23.8 23.8-23.8s23.8 10.7 23.8 23.9c0 5.7-2.3 11.2-5.6 15.3z" style="fill:#121212"/><path d="M37 94.4s4.1-4 10.1-4c5.5 0 10.1 4 10.1 4l-10.1 12zm-15.2-18S32 67.2 47 67.2c15.2 0 25.2 9.2 25.2 9.2L63.4 87S58 80.6 47 80.6 30.7 87 30.7 87z" style="fill:#832beb"/></svg>