<svg xmlns="http://www.w3.org/2000/svg" viewBox="0 0 200 200"><path fill="#020202" d="M0 0h200v200H0z"/><path fill="#171C19" d="m129 75 4 1v3h2v-4h5l1 6 1-6h2v2h2v4h2l.313 1.813c.496 2.266.496 2.266 2.25 3.5C152 88 152 88 152.313 91.563 152 95 152 95 150 97l6 1v6h2l-.75 1.625c-.39 3.702 1.541 5.535 3.75 8.375l2 1v3l-5 2v8h2l1-6 4 1v5h-3l-1 3-2.75-.063c-2.677.052-4.72.285-7.25 1.063l-1-4h-2l-1-3-1 3h-2v-2l-1.313 2c-4.205 3.13-8.614 2.315-13.687 2l-1-2-1 2h-11v-8c3.946-1.127 7.033-1.322 11 0 .688 2.063.688 2.063 1 4 1.135-5.391 1.074-10.515 1-16h11l1 5 1-5 4 1c.37 6.523.37 6.523-1.5 8.938L143 121c2.046-.67 2.046-.67 4-2 .589-2.125.589-2.125.563-4.5.066-2.406.066-2.406.437-4.5l3-2-1-1-2-2-3 2h-3l-2-5-1 4-4 1-1-4-2 4-2.25-.563c-2.74-.435-4.14-.157-6.75.563l-2-1v3c1.066 1.296 1.066 1.296 3.563 1.063L127 110v8l-2.313-.688L122 117c-1.835 1.334-1.835 1.334-3 3l-3-1v-2l-8 2v11h-2l-1 3h3v2h-2v2h-4v2h-2l-2 2-1-8 1.813-.188c3.058-1.136 3.737-2.985 5.187-5.812h-3v3h-3v-4h-3v4h-4l-1-4-1 4h-4l-1-3-2 5c3.471.75 3.471.75 7 1v9h-4l-1-4c-1.745 1.528-1.745 1.528-3 4 .272 2.75.658 5.098 1.313 7.75l.474 2.113c.388 1.716.798 3.427 1.213 5.137l-4 1v2l-3-1-1 4-4-2v-5h4v-3h-4l-1-2-1 2h-2l-1 2-7-2v-8h3l2 2v-8l-2 3c-2.645.223-2.645.223-5.813.063-4.331-.21-7.248.066-11.187 1.937v4l1-3h4v3l2-2c2.125-.625 2.125-.625 4-1 .37 7.508.37 7.508-1.5 10l-1.5 1h3c.81 2.915 1.218 4.461.063 7.313L56 165h-3v-3l-5 1 2 3a177 177 0 0 1 2 4c-5.668-1.223-7.887-2.776-12-7h-4v-6h-2l1-2 3 1 .938 2c.882 2.206.882 2.206 3.187 2.75L44 161l1-3h2v-2h4v-3c-3.695-.95-6.305-.95-10 0l-1-9 3-1-3-2 1-8h3l2 7 1-7h4v2h2v-2h4l1 5 1-5c4.875.875 4.875.875 6 2 1.217-1.765 1.217-1.765 2-4-.783-2.235-.783-2.235-2-4l-1 3H53l-1-2-1 2h-4v-7h-2l-1 7h-3v-4l-2 1-1 3h-4l-1-9h4l-1.5-1c-2.382-3.176-1.692-6.102-1.5-10l2 1 2-1 1 3 1-3h2c.195 6.055.195 6.055 0 8l-2 2a89 89 0 0 0-2 4l2 1 .313-1.938L41 121l3-1v-2h-1v-8c9.41-1.333 9.41-1.333 14 0v4h2c1.228-2.233 1.228-2.233 2-5a78 78 0 0 0-2-5c-.25-3.188-.25-3.188 0-6l2-2c-.32-2.603-.32-2.603-1-5h4l1 2 1-2h2v-2h2c.125 2.875.125 2.875 0 6l-2 2 2 1v4l-6-1v4l1-2h5v4h-3l1.5 1.563c2.011 3.268 1.706 5.66 1.5 9.437-.158 3.053-.158 3.053 1 6 2.374.25 2.374.25 5 0 1.625-1.458 1.625-1.458 3-3h3l-5-3 2-8h3l1 5h1l1-5 5-1c1.16-4.256 1.052-7.712 0-12-1.936-1.513-1.936-1.513-4-2v3h3v8h-4v-2h-2l-1 3c-7.75.125-7.75.125-10-1v-8l4-2-4-1v-6h2v-2c2 1 2 1 3 3l3-3v2h2l1 2 3-1 2.375 1.438C91.273 93.162 92.696 93.358 96 93l2-1 2 1v-2h2l1 2 1-4h2v-2h2l1 3 1-3h2v2l6-1 1 3h6v-4l8-1v9h-4l-1-5v2h-2l-1 6h2l2 4v-4h5l1-2 1-1c-.256-3.45-.858-6.732-2-10-2.457-1.756-2.457-1.756-5-2zm-57 35 4 1 .438 3.313c.445 3.618.445 3.618 1.562 6.687l-1 2h-5c-.967-3.122-.99-5.52-.563-8.75l.31-2.422zm13 35h4v6h-2l-1 4-3-2v-3h2zm-27 12h6c.125 5.75.125 5.75-1 8h-3v-5l-2-1z"/><path fill="#070808" d="M139 98c1.648 2.967 2.443 5.656 3 9 2.468-1.152 4.048-2.048 6-4l1.375 1.438c1.558 1.652 1.558 1.652 3.625 2.562l-1 3h-4l.07 1.898.055 2.477.07 2.46C148 119 148 119 146 121h-3l3-9-4-2-1 7c-.687-2.49-1-4.379-1-7h-2v5h-1v-5c-4.13.567-4.13.567-8 2 .095.592.19 1.183.29 1.793.652 4.65 1.055 7.93-1.29 12.207l-2-1 1-3-5-1-1 4-1-3h-3l-1 8 2.875-.563C122 129 122 129 124 130l1-2v2h2l1-3 1 3h5l-1 8 2-5 2.813.5c3.143.577 3.143.577 6.187.5l2 1v7h-4l-2 4h-3l2 1v7l-3 1c3.868 1.875 3.868 1.875 8 1l1-2 1 7-2 1-1 3c-3.303 1.101-4.716.95-8 0l-1-2-1 2h-4l-1-1-1.875 1.5C124 167 124 167 122 167l-1 3c-1.645.72-3.32 1.37-5 2a303 303 0 0 0-6.914 4.074C107 177 107 177 104 176l-1 2c-6.544 1.153-13.183 1.34-19.813 1.625l-3.138.156-3.006.133-2.718.124C72 180 72 180 69 179v-2l-4 1v-2l-1.828-.078c-6.575-.467-6.575-.467-9.547-2.734L52 171l-1.688-2c-1.332-2.03-1.888-3.625-2.312-6l5-1v3h2l.375-1.875C56 161 56 161 58 159h-5l4-1v-2h-3l1-3h2v-8l-3 2-3 1v-3h-4l-1 4-1-5c6.237-3.465 11.047-3.044 18-2l1-4 2 1v8h-3l-2 5c4.43 1.813 4.43 1.813 9 1l1-3 1 3h4l1-3 1 3-2 3h-4v4l3 1-1 1 2 1 1-5 1 2h2v-2l3-2q-.466-2.625-.938-5.25l-.527-2.953c-.467-2.724-.467-2.724-1.222-5.016L80 141c1.938-2.25 1.938-2.25 4-4l1.375 1.938c1.464 2.159 1.464 2.159 3.625 3.062v-9h-2l-1 2-5-3 3-6 1 4h4v-4l-3-1c4.75.75 4.75.75 7 3h-2v2h4v-4h3v4h3v-3h3l-2 6h-2l-1 4v-4h-2c.781 2.496.781 2.496 2 5l3 1v-2h4v-2h2v-2h-3v-5l1 2h2l-1-11c5.14-1.85 7.955-2.215 13 0l2-3 5 2v-8h-5l-1 3v-4l-2-1 2-7h1l1 5 5-1v2c2.884-1.293 4.872-2.66 7-5l1 3-1 2 4-1zm-54 47v5h-2c.267 1.985.267 1.985 1 4l3 1v-4h2v-6zm-27 12v2l2 2v4h3c.597-2.763 1-5.16 1-8zm84-10h4v7l-4-1z"/><path fill="#282F2B" d="m129 75 4 1v3h2v-4h5l1 6 1-6h2v2h2v4h2l.313 1.813c.496 2.266.496 2.266 2.25 3.5C152 88 152 88 152.313 91.563 152 95 152 95 150 97l6 1v6h2l-.75 1.625c-.39 3.702 1.541 5.535 3.75 8.375l2 1v3l-5 2v8h2l1-6 4 1v5h-3l-1 3-2.75-.063c-2.677.052-4.72.285-7.25 1.063l-1-4h-2l-1-3-1 3h-2v-2l-1.313 2c-4.205 3.13-8.614 2.315-13.687 2l-1-2-1 2h-11v-8c3.946-1.127 7.033-1.322 11 0 .688 2.063.688 2.063 1 4 1.135-5.391 1.074-10.515 1-16h11l1 5 1-5 4 1c.37 6.523.37 6.523-1.5 8.938L143 121c2.046-.67 2.046-.67 4-2 .589-2.125.589-2.125.563-4.5.066-2.406.066-2.406.437-4.5l3-2-1-1-2-2-3 2h-3l-2-5-1 4-4 1-1-4-2 4-2.25-.563c-2.74-.435-4.14-.157-6.75.563l-2-1v3c1.066 1.296 1.066 1.296 3.563 1.063L127 110v8l-2.313-.688L122 117c-1.835 1.334-1.835 1.334-3 3l-3-1v-2l-3-1 1-6h-5l-1 2v-2c-1.985.267-1.985.267-4 1l-1 3c-3.063 1.188-3.063 1.188-6 2l-.375-1.938L96 112l-2-1 3-1v-3l2 .688c3.69.384 5.809-.594 9.133-2.094C110 105 110 105 113 106c.21-4.14.21-4.14-1-8h-8v5l-2 1-1-6-2 2-1-5h3l1-4 1 2 1-4h2v-2h2l1 3 1-3h2v2l6-1 1 3h6v-4l8-1v9h-4l-1-5v2h-2l-1 6h2l2 4v-4h5l1-2 1-1c-.256-3.45-.858-6.732-2-10-2.457-1.756-2.457-1.756-5-2z"/><path fill="#131915" d="M133 86v9h-4l-1-5v2h-2l-1 8-1-2h-2l-1 2v-2h-4l1 3c-.438 2.688-.438 2.688-1 5l3 2 2 2c2.584.167 2.584.167 5 0v8l-2.313-.688L122 117c-1.835 1.334-1.835 1.334-3 3l-3-1v-2l-3-1 1-6h-5l-1 2v-2c-1.985.267-1.985.267-4 1l-1 3c-3.063 1.188-3.063 1.188-6 2l-.375-1.938L96 112l-2-1 3-1v-3l2 .688c3.69.384 5.809-.594 9.133-2.094C110 105 110 105 113 106c.21-4.14.21-4.14-1-8h-8v5l-2 1-1-6-2 2-1-5h3l1-4 1 2 1-4h2v-2h2l1 3 1-3h2v2l6-1 1 3h6v-4c5.75-1 5.75-1 8-1"/><path fill="#2F3833" d="M41 133h3l2 7 1-7h4v2h2v-2h4l1 5 1-5h4l-.5 1.938c-.54 1.87-.54 1.87-.5 3.062l2 1-1 3-2.45-.07-3.237-.055-3.2-.07c-3.136.196-5.29.864-8.113 2.195v4l1-3h4v3l2-2c2.125-.625 2.125-.625 4-1 .37 7.508.37 7.508-1.5 10l-1.5 1h3c.81 2.915 1.218 4.461.063 7.313L56 165h-3v-3l-5 1 2 3a177 177 0 0 1 2 4c-5.668-1.223-7.887-2.776-12-7h-4v-6h-2l1-2 3 1 .938 2c.882 2.206.882 2.206 3.187 2.75L44 161l1-3h2v-2h4v-3c-3.695-.95-6.305-.95-10 0l-1-9 3-1-3-2zm17 24h6c.125 5.75.125 5.75-1 8h-3v-5l-2-1z"/><path fill="#090F0C" d="M148 98h8v6h2l-.75 1.625c-.39 3.702 1.541 5.535 3.75 8.375l2 1v3l-5 2v8h2l1-6 4 1v5h-3l-1 3-2.75-.063c-2.677.052-4.72.285-7.25 1.063l-1-4h-2c-1.429-2.269-2.073-3.49-1.688-6.188L147 119q.299-3.503.523-7.012C148 110 148 110 151 108l-1-1c-2-2-2-2-2.125-5.625z"/><path fill="#070C08" d="m70 134 2 1v2l2 1h-2v3l4-1v-6c6.334 5.805 6.856 14.925 8 23l-4 1v2l-3-1-1 4-4-2v-5h4v-3h-4l-1-2-1 2h-2l-1 2-7-2v-8h3l2 2 1-6h4zm15 11h4v6h-2l-1 4-3-2v-3h2z"/><path fill="#040705" d="M139 98c1.648 2.967 2.443 5.656 3 9 2.468-1.152 4.048-2.048 6-4l1.375 1.438c1.558 1.652 1.558 1.652 3.625 2.562l-1 3h-4l.07 1.898.055 2.477.07 2.46C148 119 148 119 146 121h-3l3-9-4-2-1 7c-.687-2.49-1-4.379-1-7h-2v5h-1v-5c-4.13.567-4.13.567-8 2 .095.592.19 1.183.29 1.793.652 4.65 1.055 7.93-1.29 12.207l-2-1 1-3-5-1-1 4-1-3h-3l-1 8h-2l-1-7-4 2-2-6c5.14-1.85 7.955-2.215 13 0l2-3 5 2v-8h-5l-1 3v-4l-2-1 2-7h1l1 5 5-1v2c2.884-1.293 4.872-2.66 7-5l1 3-1 2 4-1z"/><path fill="#181D1A" d="M66 68a365 365 0 0 1 4.875-.125l2.742-.07C76 68 76 68 78 70v-2l2.125.563c2.931.602 2.931.602 6.063-.126L89 68l2 2h5l-1 13h-8v-2h-2v-6h-2v6h-2v-7l-1 5h-2v-3h-2l-1 3-9-2 1-3h2v-2h-3z"/><path fill="#080C0A" d="m129 145 4 1 1 3 1-2h4v7l-3 1c3.868 1.875 3.868 1.875 8 1l1-2 1 7-2 1-1 3c-3.303 1.101-4.716.95-8 0l-1-2-1 2h-4zm13 2h4v7l-4-1z"/><path fill="#303834" d="M68 89h2c.125 2.875.125 2.875 0 6l-2 2 2 1v4l-6-1v4l1-2h5v4h-3l1.5 1.563c1.996 3.244 1.716 5.7 1.5 9.437h-4l-1-4-1 4h-4v-10c-.095-.763-.19-1.526-.29-2.313-.11-.886-.22-1.773-.335-2.687l-.352-2.688L59 98l2-2c-.32-2.603-.32-2.603-1-5h4l1 2 1-2h2z"/><path fill="#050906" d="M116 98c2 3 2 3 1.625 5.688L117 106l3 2 2 2c2.584.167 2.584.167 5 0v8l-2.313-.688L122 117c-1.835 1.334-1.835 1.334-3 3l-3-1v-2l-3-1 1-6h-5l-1 2v-2c-1.985.267-1.985.267-4 1l-1 3c-3.063 1.188-3.063 1.188-6 2l-.375-1.938L96 112l-2-1 3-1v-3l2 .688c3.69.384 5.809-.594 9.133-2.094C110 105 110 105 113 106l.375-3.438L114 99z"/><path fill="#060A08" d="m129 75 4 1v3h2v-4h5l1 6 1-6h2v2h2v4h2c.8 3.287 1.097 4.71 0 8h-2l-1-1-3 1v6h-6l-.262-2.117c-.42-2.723-.875-5.265-1.738-7.883-2.457-1.756-2.457-1.756-5-2z"/><path fill="#040706" d="m64 138 2 1v8h-3l-2 5c4.43 1.813 4.43 1.813 9 1l1-3 1 3h4l1-3 1 3-2 3h-4l-1 6h-1v-6h-5l-1 2-2.438-.063c-2.496-.233-2.496-.233-3.562 1.063-1.666.04-3.334.043-5 0l4-1v-2h-3l1-3h2v-8l-3 2-3 1v-3h-4l-1 4-1-5c6.237-3.465 11.047-3.044 18-2z"/><path fill="#050A06" d="m72 110 4 1 .438 3.313c.445 3.618.445 3.618 1.562 6.687l-1 2h-5c-.967-3.122-.99-5.52-.563-8.75l.31-2.422zm7 0h3l.438 2.313c.525 2.769.525 2.769 1.562 5.687 2.048-.564 2.048-.564 4-2 .816-3.06.816-3.06 1-6l4 2h-2l.938 2.813L94 121l-2 1c-1.134 2.017-1.134 2.017-2 4l-2.313-.563c-2.777-.665-2.777-.665-5.687.563v-2h-2l1-4-4-2z"/><path fill="#191F1B" d="M129 110h11l1 5 1-5 4 1v7l-2 1v3h-2l-1 3h-2v-4h-3l1 3c-3 0-3 0-8-2z"/><path fill="#303935" d="M117 98h10l2 4v-4l2.188.563c2.94.457 4.953.172 7.812-.563v8l-4 1-1-4-2 4-2.25-.563c-2.754-.438-4.137-.221-6.75.563-2.621 0-4.51-.313-7-1z"/><path fill="#0E110F" d="M152 117h5c1.176 3.674 1.074 7.17 1 11h2l1-6 4 1v5h-3l-1 3c-1.361-.03-1.361-.03-2.75-.063-2.677.052-4.72.285-7.25 1.063l-1-4h-2v-3h2v-5h2z"/><path fill="#28312C" d="m102 97 1 6 1-5c3.695-.95 6.305-.95 10 0v9l-2.438-.563L109 106l-1 1c-1.666.04-3.334.043-5 0l-1 2-5-2 .063-2.375c.124-2.606.124-2.606-1.063-4.625l1-2c1.682-.526 3.227-1 5-1"/><path fill="#1E2421" d="M100 40h2v2h2v-2c2.763.523 5.326 1.109 8 2v4h2v2l-6 2v8h-4l-.375-3.438L103 51l-2-1c-1-1-1-1-1.098-3.066l.035-2.496.028-2.504zm2 4 1 2Z"/><path fill="#333D38" d="m44.129 96.953 2.434.297 2.44.266L51 98l1 2 1-2h4v9H47l-1-5-1 5h-5c-.195-6.055-.195-6.055 0-8 2-2 2-2 4.129-2.047"/><path fill="#040705" d="M86 125c4.75.75 4.75.75 7 3h-2v2h4v-4h3v4h3v-3h3l-2 6h-2l-1 4v-4h-2l.625 2.375L98 138l-2 2-1-7h-4v5l-2-1v-4h-2l-1 2-5-3 3-6 1 4h4v-4z"/><path fill="#252C28" d="m34 110 2 1 2-1 1 3 1-3h2c.195 6.055.195 6.055 0 8l-2 2a89 89 0 0 0-2 4l2 1 1-4h3v9h-3v-4l-2 1-1 3h-4l-1-9h4l-1.5-1c-2.382-3.176-1.692-6.102-1.5-10"/><path fill="#2E3732" d="m72 98 2.25.563c2.772.44 4.116.202 6.75-.563h8v8h-4v-2h-2l-1 3c-7.75.125-7.75.125-10-1z"/><path fill="#161918" d="M79 145h3l2 12-4 1v2l-3-1-1 4-4-2v-5h4zm6 0h4v6h-2l-1 4-3-2v-3h2z"/><path fill="#050906" d="M74 87c2 1 2 1 3 3l3-3v2h2l1 2h3c.188 3.375.188 3.375 0 7l-3 2v-2h-2l-1 2v-2l-4 3c-1.125-3.75-1.125-3.75 0-6h-4v-6h2z"/><path fill="#323936" d="M66 68a365 365 0 0 1 4.875-.125l2.742-.07C76 68 76 68 78 70v-2h4v4l-2.938 1.25L76 75l-1 4-9-2 1-3h2v-2h-3z"/><path fill="#313935" d="m129 75 4 1v3h2v-4h4v9h-2v2h3l-1 9h-3l-.262-2.117c-.42-2.723-.875-5.265-1.738-7.883-2.457-1.756-2.457-1.756-5-2z"/><path fill="#3D4541" d="M79 28c4.912-.14 9.27.774 14 2v2l3 1-1 2.813C93.85 38.92 93.85 38.92 94 42c-1.938-.813-1.938-.813-4-2l-1-3h-2v-2l-8-1z"/><path fill="#262F2A" d="M142 147h4v7l-4-1zm2 7c2 3 2 3 2 7l-2 1-1 3c-3.29 1.097-4.713.8-8 0l1-9 2.313.563c2.777.665 2.777.665 5.687-.563z"/><path fill="#050806" d="M106 87h2l1 3 3 1-2 5 4 1-2 3v-2h-8v5l-2 1-1-6-2 2-1-5h3l1-4 1 2 1-4h2z"/><path fill="#050907" d="m60 91 .375 1.875c.497 2.316.497 2.316 2.625 4.125l-3 1v10l2 1-2 7-1-2h-2c-.596-3.651-1-7.044-.938-10.75.227-3.4.227-3.4-2.062-6.25l1-2h-2v-2c4.75-2 4.75-2 7-2"/><path fill="#3B4741" d="M123 65h10l1 4 2-4h3l1 7-17-1z"/><path fill="#414B48" d="M62 28h8v4h2v-4h4v6a293 293 0 0 1-5.188 1.125l-2.917.633c-3.24.27-5.01-.334-7.895-1.758v-4h2z"/><path fill="#353F3A" d="M47 121h10c.845 3.378 1.108 5.675 0 9h-4l-1-2-1 2h-4z"/><path fill="#38423F" d="m117 121 1.875.5c2.293.736 2.293.736 5.125-.5l3 1v8h-11c-.098-6.152-.098-6.152 0-8z"/><path fill="#2A322E" d="M68 89h2c.125 2.875.125 2.875 0 6l-2 2 2 1v4a532 532 0 0 1-5-1l-2.25-.375L61 100c-1.28-3.842-.823-6.092 0-10 3 1 3 1 4 3l1-2h2z"/><path fill="#191D1B" d="m72 110 4 1 .438 3.313c.445 3.618.445 3.618 1.562 6.687l-1 2h-5c-.967-3.122-.99-5.52-.563-8.75l.31-2.422zm7 0h3l1 8h-6z"/><path fill="#353E39" d="M118 109c1.525.09 3.047.245 4.563.438l2.503.308L127 110v8l-2.313-.688L122 117c-1.835 1.334-1.835 1.334-3 3-2-2-2-2-2.23-3.91.119-5.979.119-5.979 1.23-7.09"/><path fill="#1C2220" d="m160.625 68.938 2.477.59L165 70v2h-5l-1 10h-3l1 2-4-1 1-9 3-1-3-2v-2c2.633-1.316 3.802-.748 6.625-.063Z"/><path fill="#080C0A" d="m133 71-2 2-3-1c.348 1.975.348 1.975 1 4l2 1h-2v7l-6-1V71c3.576-1.238 6.337-.75 10 0"/><path fill="#2F3733" d="m135 133 2.813.5c3.143.577 3.143.577 6.187.5l2 1v7l-2.125-.438c-2.95-.577-5.908-1.079-8.875-1.562z"/><path fill="#39433E" d="M78 133h11v9h-4l-1-4-3 4-2-1c-.594-2.649-.742-5.292-1-8"/><path fill="#313D38" d="M92 121h3l1 2 2-2h3c1.125 5.625 1.125 5.625 0 9h-3v-4h-3v4h-4c-.098-6.152-.098-6.152 0-8z"/><path fill="#2F3833" d="M148 86h3c.91 3.073 1.089 5.801 1 9l-2.188-.563c-2.94-.457-4.953-.172-7.812.563v-8h4v2h2z"/><path fill="#404A46" d="M53 133h4l1 5 1-5h4l-.5 1.938c-.54 1.87-.54 1.87-.5 3.062l2 1-1 3q-2.219.039-4.438.063l-2.496.035C54 142 54 142 53 141c-.141-2.67-.042-5.324 0-8"/><path fill="#404B45" d="M104 110h10v8h-4v-4h-2v4h-4z"/><path fill="#333C38" d="M148 98h8v6h2l-1 3-1.813-.563c-2.351-.658-2.351-.658-5.187.563-2-2-2-2-2.125-5.625z"/><path fill="#424C47" d="M60 145h3l2 2 1-2h4v8h-2l-1 2-7-2z"/><path fill="#414C46" d="m129 98 2.188.563c2.94.457 4.953.172 7.812-.563v8l-4 1-1-4-2 4-3-2c-.188-3.625-.188-3.625 0-7"/><path fill="#434E49" d="M41 121h3v9h-3v-4l-2 1-1 3h-4v-7l4-1v2l2 1z"/><path fill="#3E4944" d="M133 86v9h-4l-1-5v2h-2v3h-3v-4h2v-4c5.75-1 5.75-1 8-1"/><path fill="#383F3D" d="M117 65c2.063.438 2.063.438 4 1l-.219 1.758c-.528 4.443-.896 8.758-.781 13.242h-2v-2h-2q-.039-3.219-.063-6.438l-.035-3.62C116 66 116 66 117 65"/><path fill="#373F3A" d="M100 40h2v2h2v-2l5 1-1 7-8 1zm2 4 1 2Z"/><path fill="#202523" d="m103 129 2 1v3h3v2h-2v2h-4v2h-2l-2 2-1-8 1.875-.313c2.49-.562 2.49-.562 4.125-3.687"/><path fill="#39423D" d="M43 110h8v8h-8z"/><path fill="#49544F" d="M129 145c1.938.313 1.938.313 4 1l1 3 1-2h4v6h-10z"/><path fill="#48514C" d="M104 65h10v6l-2 1-3-1a100 100 0 0 0-5 0z"/><path fill="#424C48" d="M157 122h1v6h2l1-6 4 1v5h-3l-1 3-6-1v-2h2z"/><path fill="#020301" d="m89 110 4 2h-2l.938 2.813L94 121l-4 3-1-2-3-1v-2h3l-.563-2.813C88 113 88 113 89 110"/><path fill="#57625E" d="m100 149 2 1c.625 2.063.625 2.063 1 4h-2v11h-3c-1.125-5.625-1.125-5.625 0-9h2v-2h-2v-3h2z"/><path fill="#020603" d="M86 95c3.875.875 3.875.875 5 2q.061 3.5 0 7l4 1h-4l-.313 1.938L90 109l-3 1-2-2 4-1-.563-2.25c-.429-2.7-.288-4.196.563-6.75h-3z"/><path fill="#121513" d="m60 91 .375 1.875c.497 2.316.497 2.316 2.625 4.125l-3 1-2 2h-3l-1-3 1-2h-2v-2c4.75-2 4.75-2 7-2"/><path fill="#2D3633" d="M79 28c5.215-.149 9.407.448 14 3h-2l-1 2v-2l-2.125 1.5C84.629 34.194 82.607 34.252 79 34z"/><path fill="#38453E" d="M66 133h4v8h-4l-1-2c-2.527-.656-2.527-.656-5-1l4-4 1 1z"/><path fill="#45524C" d="M58 157h6c.125 5.75.125 5.75-1 8h-3v-5l-2-1zm-5 2h5l-1 6-.875-1.875c-1.062-2.258-1.062-2.258-3.125-4.125"/><path fill="#474F4B" d="M155 110h4l.875 1.938c.953 2.214.953 2.214 3.125 3.062v3c-3.287.8-4.71 1.097-8 0z"/><path fill="#3B4440" d="m48 30 1.688.563c2.711.513 4.656.101 7.312-.563l1 3c-3.877 1.193-6.916 2-11 2z"/><path fill="#232C27" d="M128 123c3 1 5.325 2.337 8 4l-1 3h-6c-1.063-1.813-1.063-1.813-2-4z"/><path fill="#444F4B" d="M117 121c2.063.438 2.063.438 4 1l-1 8h-4c-.098-6.152-.098-6.152 0-8z"/><path fill="#424E48" d="M40 144h5v9h-4z"/><path fill="#050C08" d="M42 110h1l1 7 3 1h-2l-1 3-3 1-1 3-4-2h2l.375-1.938L39 119l2-1c.465-1.895.465-1.895.625-4.063z"/><path fill="#45514C" d="M41 98h3l1 9h-5c-.098-6.152-.098-6.152 0-8z"/><path fill="#2D3532" d="M62 28h4v6l3 1c-2.788 1.033-3.868 1.045-6.75.063L60 34v-4h2z"/><path fill="#4A544F" d="M117 98h3l1 8-4 1c-1.108-3.325-.845-5.622 0-9"/><path fill="#38423C" d="M123 65h6v6h-6z"/><path fill="#4C5652" d="M142 147h4v7l-4-1zm2 7 2 4h-4v-2h2z"/><path fill="#4B5752" d="M41 133h3c1.125 5.625 1.125 5.625 0 9l-4-1z"/><path fill="#09100D" d="m97 107 5 1v6l-5 2-.375-1.938L96 112l-2-1 3-1z"/><path fill="#4A5751" d="M59 98h4c.625 2.813.625 2.813 1 6l-2 3h-2z"/><path fill="#3C4541" d="M103 51h5v7h-4z"/><path fill="#4B5954" d="M66 157h4v8h-4z"/><path fill="#2B312E" d="M148 117h4v3h-2v5l-4-1c.875-4.75.875-4.75 2-7"/><path fill="#4D5B54" d="M123 110h4v8h-4z"/><path fill="#4C5852" d="m79 98 2.188.563c2.94.457 4.953.172 7.812-.563v4H79z"/><path fill="#4C5952" d="M72 133h4l1 7-3 2-2-1z"/><path fill="#515C56" d="M85 124c2.063.438 2.063.438 4 1v5h-4a88 88 0 0 1-1-5zm-4 2 3 1-1 3h-2z"/><path fill="#4F5D56" d="M104 110h4v8h-4z"/><path fill="#4F5B56" d="m142 110 4 1v7l-5-1z"/><path fill="#535F5A" d="M34 133h4v9l-4-1z"/><path fill="#515E57" d="M53 110h4v8h-4z"/><path fill="#505C56" d="M110 98h4v9l-4-2z"/><path fill="#47514C" d="M148 98h8v6l-1.188-1.563L153 101c-2.655.23-2.655.23-5 1z"/><path fill="#54605B" d="M53 145h4v8l-4-1z"/><path fill="#303834" d="M47 138h4v4l-7 2-1-5 3 1z"/><path fill="#52605A" d="m110 122 4 1v7h-4z"/><path fill="#535F59" d="m129 110 4 1v7h-4z"/><path fill="#515F58" d="M85 110h4v8h-4z"/><path fill="#525F5A" d="M142 87h4v8h-4z"/><path fill="#526159" d="m91 75 4 1v7h-4z"/><path fill="#515E5A" d="m129 75 4 1v7h-4z"/><path fill="#4C5551" d="M123 52h6l2 4h2v2h-4v-4h-2v3h-2v-4z"/><path fill="#4D5953" d="M85 145h4v6h-2v2h-2z"/><path fill="#55625B" d="M78 133h4c.625 2.813.625 2.813 1 6l-2 3-2-1c-.594-2.649-.742-5.292-1-8"/><path fill="#536059" d="m91 110 4 1v7l-4-1z"/><path fill="#526059" d="m66 110 4 1v7h-4z"/><path fill="#4D5953" d="M106 87h2v8h-4v-6h2z"/><path fill="#4A5551" d="m123 75 4 1v7l-4-1z"/><path fill="#434E48" d="M117 65c2.063.438 2.063.438 4 1v5l-4 1a129 129 0 0 1-1-6z"/><path fill="#57645F" d="M129 157h4v8h-4z"/><path fill="#55605A" d="m72 145 4 1v7h-4z"/><path fill="#55635C" d="m72 110 4 1v7h-4z"/><path fill="#1B201C" d="M91 105h5l-1 5c-2.375.625-2.375.625-5 1l-2-2h2z"/><path fill="#5A6660" d="M136 98h3v8l-4 1z"/><path fill="#505C56" d="m74 87 2 1v7h-4v-6h2z"/><path fill="#56645D" d="M135 87h4v8h-3z"/><path fill="#4F5D57" d="M142 75h2v2h2v6h-4z"/><path fill="#58665F" d="M60 121h3v9h-3z"/><path fill="#5A6660" d="M79 110h3l1 8h-5c0-2.84.403-5.237 1-8"/><path fill="#030301" d="m140 151 1 3h3v2c-1.688 1.125-1.688 1.125-4 2-2.75-.875-2.75-.875-5-2 1-2 1-2 4-3z"/><path fill="#5F6B66" d="M41 121h3v9h-3z"/><path fill="#5C6862" d="m34 110 2 1 2-1v8h-4z"/><path fill="#1F2823" d="m42 97 9 1v3c-2.915.81-4.461 1.218-7.313.063L42 100z"/><path fill="#525B57" d="M135 168h4v4h-2v5l-2-1z"/><path fill="#202523" d="M125 157h4v3l2 1-3 3c-2.534-1.267-2.978-2.407-4-5z"/><path fill="#4D5A56" d="M72 156h4c1.044 3.133.934 3.99 0 7l-4-2z"/><path fill="#4D5A54" d="M91 133h4v6h-4z"/><path fill="#010201" d="m45 118 7 1-1 2h-4v2l-3-1z"/><path fill="#4E5D55" d="M148 110h4v6h-4z"/><path fill="#4D5A53" d="M91 98h4v6h-4z"/><path fill="#55625C" d="M110 87h2v2l2 1v5h-4z"/><path fill="#4D5953" d="M85 75h4v6h-4z"/><path fill="#38423E" d="M66 68c2.875-.125 2.875-.125 6 0l2 2c-3.228 2.152-4.284 2.2-8 2z"/><path fill="#505D56" d="M129 65h4v6h-4z"/><path fill="#4E5A53" d="M72 28h4v6h-4z"/><path fill="#69746E" d="M79 145h3v8h-4z"/><path fill="#5A6461" d="M97 133h4l1 6h-2l-2 2z"/><path fill="#515D59" d="M98 121h3c.625 2.813.625 2.813 1 6l-2 3v-5h-3z"/><path fill="#525E58" d="M72 98h4v6l-4-1z"/><path fill="#1B1D1C" d="M64 49h11c-4 2-4 2-8 2l-1 2h-5l1-2h2z"/><path fill="#4E5B53" d="m104 40 5 1-1 5h-4z"/><path fill="#49514E" d="M93 156h2v9h-2v-4h-2v-2h2z"/><path fill="#040606" d="M57 149h2c.125 2.875.125 2.875 0 6l-2 2-3-1 1-3h2z"/><path fill="#515E56" d="M66 145h4v6h-4z"/><path fill="#505D56" d="M47 145h4v6h-4z"/><path fill="#525E58" d="M91 124h4v6h-4z"/><path fill="#4A5551" d="M129 168h4l1 5-3 1v-2h-2z"/><path fill="#545F58" d="m129 145 4 1v5h-4z"/><path fill="#54605B" d="M135 133h4v6h-4z"/><path fill="#57635D" d="M53 133h4v6h-4z"/><path fill="#55625C" d="m53 124 4 1v5h-4z"/><path fill="#616F67" d="M66 122h4v5h-3l-1 3z"/><path fill="#515F58" d="M47 110h4v6h-4z"/><path fill="#56635D" d="M53 98h4v6h-4z"/><path fill="#5E6965" d="M58 157h5l-2 1-1 2-2-1zm-5 2h5l-1 6-.875-1.875c-1.062-2.258-1.062-2.258-3.125-4.125"/><path fill="#0D1210" d="M69 111h5l-3 7c-2-2-2-2-2.125-4.625z"/><path fill="#4A554F" d="M68 89h2v6h-4v-4h2z"/><path fill="#404A45" d="M104 65h10v2c-3.663.75-6.424 1.238-10 0z"/><path fill="#232B26" d="M139 168h5v4h-5z"/><path fill="#56625B" d="M21 128c1.884 3.265 2.493 6.281 3 10h-2c-1.804-2.76-2.013-3.89-1.625-7.25z"/><path fill="#5C6761" d="m72 124 4 1v5h-4z"/><path fill="#070F0A" d="m89 110 4 2h-2l1 5-4-1z"/><path fill="#5B6561" d="M98 101h3v6h-4z"/><path fill="#596761" d="m129 89 4 1v5h-4z"/><path fill="#606C68" d="m110 52 4 1v5h-4z"/><path fill="#4F5952" d="M52 170c5.75 1.75 5.75 1.75 8 4-1.75.75-1.75.75-4 1-2.25-1.875-2.25-1.875-4-4z"/><path fill="#353C3A" d="m100 149 2 1c.625 2.063.625 2.063 1 4h-2l-1 2v-2h-2v-3h2z"/><path fill="#26302B" d="M98 138v3c-4.75 1.125-4.75 1.125-7 0v-2c2.49-.687 4.379-1 7-1"/><path fill="#707B76" d="m79 87 1 2h2v6h-3c-1.125-5.75-1.125-5.75 0-8"/><path fill="#63706B" d="M155 75h3v6h-3z"/><path fill="#48514C" d="M85 68h4v4h-5z"/><path fill="#313633" d="M42 63h2l-1 5-6 1a159 159 0 0 1 5-6"/><path fill="#353C3A" d="m100 32 1 5h-4l-1-4c2-1 2-1 4-1"/><path fill="#62706A" d="M136 159h3v6h-4z"/><path fill="#0D1310" d="m70 145 4 2h-2v2l2 1-4 1c-1-3-1-3 0-6"/><path fill="#27312C" d="m85 121 5 1 1 4-6-2z"/><path fill="#2A3531" d="m53 121 5 1v4l-5-2z"/></svg>