<svg xmlns="http://www.w3.org/2000/svg" width="200" height="200" fill="none" viewBox="0 0 200 200"><mask id="a" width="200" height="200" x="0" y="0" maskUnits="userSpaceOnUse" style="mask-type:alpha"><circle cx="100" cy="100" r="100" fill="#D9D9D9"/></mask><g mask="url(#a)"><path fill="#1C1C1C" d="M200 0H0v200h200z"/><path stroke="#06FC99" stroke-opacity=".1" d="M0 5h200M0 10h200M0 15h200M0 20h200M0 25h200M0 30h200M0 35h200M0 40h200M0 45h200M0 50h200M0 55h200M0 60h200M0 65h200M0 70h200M0 75h200M0 80h200M0 85h200M0 90h200M0 95h200M0 100h200M0 105h200M0 110h200M0 115h200M0 120h200M0 125h200M0 130h200M0 135h200M0 140h200M0 145h200M0 150h200M0 155h200M0 160h200M0 165h200M0 170h200M0 175h200M0 180h200M0 185h200M0 190h200M0 195h200M0 200h200"/><path fill="#06FC99" fill-rule="evenodd" d="M148 48v103H52v-.001h18v-18.176H52V66.177h18V48zM84.999 66.177h45v18.177h-45zm45 51.5h-45V84.354h-18v33.324l18-.001v18.177h45z" clip-rule="evenodd"/></g></svg>