<svg width="57" height="57" viewBox="0 0 57 57" fill="none" xmlns="http://www.w3.org/2000/svg">
  <!-- Dark circle background -->
  <circle cx="28.5" cy="28.5" r="28.5" fill="#1a0f05"/>
  <!-- Outer ring -->
  <circle cx="28.5" cy="28.5" r="26.5" stroke="#C06014" stroke-width="2" fill="none"/>
  <!-- Inner ring -->
  <circle cx="28.5" cy="28.5" r="23" stroke="#FFD700" stroke-width="1" fill="none" opacity="0.5"/>
  <!-- Castle tower left -->
  <rect x="16" y="18" width="6" height="22" fill="#C06014" rx="1"/>
  <rect x="15" y="15" width="8" height="5" fill="#C06014" rx="1"/>
  <!-- Battlements left -->
  <rect x="15" y="13" width="2.5" height="3" fill="#C06014"/>
  <rect x="20.5" y="13" width="2.5" height="3" fill="#C06014"/>
  <!-- Castle tower right -->
  <rect x="35" y="18" width="6" height="22" fill="#C06014" rx="1"/>
  <rect x="34" y="15" width="8" height="5" fill="#C06014" rx="1"/>
  <!-- Battlements right -->
  <rect x="34" y="13" width="2.5" height="3" fill="#C06014"/>
  <rect x="39.5" y="13" width="2.5" height="3" fill="#C06014"/>
  <!-- Gate arch -->
  <rect x="22" y="24" width="13" height="16" fill="#C06014" rx="1"/>
  <ellipse cx="28.5" cy="24" rx="6.5" ry="5" fill="#C06014"/>
  <!-- Gate opening -->
  <rect x="24.5" y="28" width="8" height="12" fill="#0d0a07" rx="1"/>
  <ellipse cx="28.5" cy="28" rx="4" ry="3" fill="#0d0a07"/>
  <!-- Torch flames -->
  <ellipse cx="19" cy="11" rx="2" ry="3" fill="#FFD700" opacity="0.9"/>
  <ellipse cx="19" cy="10.5" rx="1.2" ry="2" fill="#FF8C00"/>
  <ellipse cx="41" cy="11" rx="2" ry="3" fill="#FFD700" opacity="0.9"/>
  <ellipse cx="41" cy="10.5" rx="1.2" ry="2" fill="#FF8C00"/>
  <!-- D letter in gate -->
  <text x="28.5" y="37" text-anchor="middle" font-family="serif" font-weight="bold" font-size="10" fill="#FFD700">D</text>
  <!-- Base wall -->
  <rect x="14" y="38" width="29" height="3" fill="#C06014" rx="1"/>
</svg>
