<svg xmlns="http://www.w3.org/2000/svg" width="304" height="320" fill="none" viewBox="0 0 304 320"><path fill="#91D3D0" d="M0 0h303.529v320H0z"/><path fill="#1F1F1D" d="M174.744 158.83h-1.424l5.163-1.147c-.581.283-3.449 1.147-3.739 1.147m5.75-1.147h-1.445l1.445-.864c-1.445 0-2.592 0-3.739-.574-6.317 1.147-12.911 1.438-18.937 2.585-.291 0-.857.573-.857.573 0 .284 0 .284.276.567 2.882 0 5.75.574 8.909.574 2.571 0 5.439-.857 8.031-1.141-2.302 1.721-10.333 1.438-13.491 1.438-1.147 0-2.004.283-2.868.574.566 1.714 2.578 2.287 3.158 4.015 6.303 6.31 12.054 15.205 16.636 22.662 0 .864.29 2.301.871 2.875v1.14c0 .574.857 1.444 1.423 1.728h.298c0 .283-.298.573-.298.857 0 1.147 2.592 2.011 2.592 2.875 0 .283 0 .574-.29.574-2.592-.291-3.159-1.728-4.306-3.733-2.578-1.727-3.158-5.452-6.317-6.89-.567-2.294-2.004-2.011-2.868-4.299l-2.571-5.743c1.133.29 2.004 1.154 2.004 2.302 1.721 4.015 4.582 6.6 6.594 10.325.857.29.857 1.437 2.011 1.721-1.721-4.873-4.589-11.189-9.185-14.348 0-.857-.291-2.004-1.424-2.004-.588 0-.588 1.147-.29 1.43-1.155-1.713-1.721-3.441-3.449-4.589l.29-.573c0-1.438-.864-2.585-2.011-2.868-.567-2.011-2.868 0-4.016-2.302-.857-2.004-3.448-2.578-5.162-2.578-5.17 7.748-24.1 25.827-26.692 33.575-1.714.283-2.868 1.43-4.582 1.43-.29 0-1.444 0-1.444-.573 0-.574 1.154-1.147 1.444-2.011 2.868-4.589 28.406-31.273 28.406-34.715 0-.857-2.012-1.438-2.869-1.438-.87-.29-2.011-.573-2.882-.573-2.578 0-4.872.573-7.45.573-6.027 0-12.337 1.155-18.654 1.155-1.147 0-.566-1.155-1.444-2.012 2.011-.29 3.746-1.72 5.75-1.72.567 0 1.721.283 2.578.857 1.728 0 3.449.29 5.163.29 6.317 0 15.205-.29 21.231-1.721.291-.29.581-.29.581-.581 0-.283-1.438-.573-1.147-1.43 0-1.148-6.608-6.891-6.608-8.605.291 0 .291-.297.291-.297 0-3.144-10.043-14.914-12.627-17.789v-.284c0-1.72-1.431-2.577-1.431-4.015 0-.574.857-1.147 1.431-1.147.87 0 1.437 1.147 2.004 1.721-.277.29-.567.58-.567.864 0 1.43 6.317 9.461 6.884 9.461.29 0 .29-.857.58-.857 6.594 4.015 8.329 11.479 12.62 17.216 4.306 0 13.782-23.243 19.235-25.247h.566c-4.872 7.174-10.332 14.058-14.348 21.805l.567.574c2.592-1.148 2.025-4.016 3.159-4.873.58-.871 3.448-2.585 3.448-3.448 0-.574 7.174-9.469 8.619-12.627 1.424-1.431 2.281-3.159 3.725-4.873l-2.011.567c.567-2.294 5.46-5.156 7.741-4.872-2.571 4.589-7.451 7.174-9.455 12.046-2.592 5.46-5.46 8.604-9.185 13.207v.284c0 .857-1.728 1.72-1.728 2.584-1.721 2.862-7.174 6.02-7.174 10.035.857.291 2.004.291 2.861.291 7.464 0 15.226-1.721 22.676-1.721 2.585 0 6.31-.284 8.612.857-2.868 1.154-6.027 1.437-8.888 1.728"/><path fill="#1F1F1D" d="M197.274 203.379c.684-2.177 1.278-4.492 1.859-6.87.573-.767 1.182-1.499 1.734-2.28 0 3.552-1.872 6.31-3.593 9.15m-17.638 27.866c-.29 1.431-1.431 1.714-2.578 2.004 1.099-3.096 2.53-6.006 3.933-8.894 2.771-1.058 5.259-3.449 7.927-4.866-2.855 4.092-5.916 8.052-9.282 11.756m15.405-29.442c-1.748 3.698-3.884 7.769-6.517 12.793-2.212.933-3.29 3.207-4.817 4.845.29-.857.573-1.742 1.092-2.26 2.467-5.702 6.337-10.519 10.242-15.378m-32.054 41.778c-2.005 3.726-10.043 8.321-13.768 8.321-4.015 0-7.464-3.725-11.479-4.022-.857-2.861-4.016-1.43-6.027-2.861-4.873-3.449-11.48-10.332-14.348-15.502-4.873-9.178-9.178-21.231-11.756-30.983-1.147-4.015-1.147-27.264-1.147-32.136 0-17.216-.581-30.707 6.593-46.485 0-3.442 3.449-5.453 3.449-8.031v-1.154c2.004-2.288 2.004-6.02 4.596-8.031 2.578-8.32 10.318-13.49 14.334-21.238 3.158-1.43 4.029-5.736 6.897-7.74 6.303-4.023 12.904-9.759 20.942-9.759.857.574 1.714 1.14 2.861 1.14.587 0 .864-.283 1.444-.283l1.148-.857c1.154.283 2.577 1.438 3.158-.574 5.17 1.148 12.344-1.43 15.495 4.3 11.197 7.173 7.748 22.385 12.33 32.71.871 9.185 1.728 18.363 2.004 27.838.291 12.91 2.011 25.82 2.011 39.02 0 10.644-.732 17.465-2.508 23.727-1.148 2.204-2.343 4.347-3.518 6.696-3.145 1.714-3.725 6.303-7.174 7.458-2.191 4.167-4.852 10.055-7.907 16.013-.048.007-.076.048-.124.048-.366-.297-.442-.726-.664-1.085-.774.933-1.534 1.873-2.425 2.709.442.622.863 1.265 1.382 1.756-4.555 8.424-9.863 16.352-15.799 19.005m-20.942 12.911c-8.888 0-18.93-3.159-24.093-10.616-4.022-5.163-9.475-10.042-12.067-16.359-2.578-2.861-11.19-37.299-11.19-42.462 0-.29 0-1.438.872-1.438 3.435 0 9.752 18.363 10.318 20.948 2.592 8.605 7.464 17.79 11.48 25.82 2.301 4.023 5.46 6.891 7.761 10.906 2.862.857 4.292 4.016 7.451 4.589 1.437 2.585 4.306 2.868 6.02 4.886 1.154 0 4.312.857 4.312 2.295 0 .574 0 1.431-.864 1.431m68.291-87.226c-1.438 1.147-4.016 2.868-3.725 5.162v.857c-2.295 3.449-2.585 7.464-4.887 10.906-.228.366-.38.76-.594 1.127 3.546-19.359 4.624-41.571 4.624-54.212 0-11.762-4.03-23.235-5.163-34.998-.587-9.185-.878-19.234-6.897-26.69-6.027-6.884-14.348-12.047-23.81-12.047-1.438 0-2.868 0-4.306.283-1.147-.857-2.591-1.147-4.015-1.147-4.306 0-7.755 3.159-11.777 3.159-1.134 0-2.281-.29-3.152-.58l-1.43 1.444 5.169.283c.291.573.857 1.147.857 1.72 0 1.722-4.872 1.148-5.46 4.016-9.178 4.88-18.93 16.642-24.383 25.247-3.158 5.17-6.026 11.486-8.895 16.932-.29.283-2.301 4.596-2.868 4.596 0 2.004-.58 3.732-.857 5.446-2.301 2.301-.871 6.6-3.158 8.902-3.449 10.898-6.317 24.382-6.317 35.571 0 .864-.58 1.155-1.438 1.438-.276-2.585-1.147-5.453-.857-8.314v-1.728c1.148-25.82 1.714-47.632 16.933-70.017 11.473-16.926 26.111-19.51 30.417-24.666-.857 0-1.438-.29-2.302-.29-2.294 0-4.582 1.147-5.729 3.151-16.359 5.453-24.39 20.374-31.288 34.722-1.147 1.728-2.578 2.868-2.868 5.169-1.147 5.163-2.004 10.035-4.015 15.205-.567 2.004-1.714 5.163-1.714 7.174 0 1.721.857 3.442.857 5.162 0 2.295-.29 4.299-.857 6.601-3.159 15.778-4.023 32.994-4.023 49.069 0 12.903 5.737 24.389 9.752 36.152 4.306 12.62 13.491 22.952 23.243 31.564l7.174 1.147c1.728 1.43 3.739 2.011 6.02 2.011 3.158 0 6.316-1.154 9.475-.871h1.147c4.016-2.571 10.899-4.299 14.058-7.74.857-.574 1.444-2.585 2.592-2.585.276 0 .566 0 .857.283 6.026-6.593 13.49-12.046 18.93-18.936 2.868-3.442 4.603-7.748 7.174-11.473.864-1.147.864-2.875 2.301-3.732 3.449-8.604 17.216-36.152 17.216-43.609v-.864z"/><path fill="#1F1F1D" d="M150.65 253.921c-.29 0-.58.29-.58.573h.58c0-.283 0-.283.277-.283 0-.29 0-.29-.277-.29"/></svg>