<svg xmlns="http://www.w3.org/2000/svg" width="48" height="48" fill="none" viewBox="0 0 48 48"><path fill="#075833" d="M0 24C0 10.745 10.745 0 24 0s24 10.745 24 24-10.745 24-24 24S0 37.255 0 24"/><path fill="#35A35A" d="M31.238 28.018c0 3.192-2.296 5.488-5.768 5.908v2.884h-2.744v-2.94c-3.584-.532-5.852-2.94-5.964-6.496h3.22c.196 2.408 1.876 3.892 4.368 3.892 2.268 0 3.668-1.092 3.668-2.884 0-1.708-1.064-2.436-4.788-3.136-4.172-.784-5.992-2.436-5.992-5.46 0-3.08 2.184-5.264 5.488-5.684V11.19h2.744v2.996c3.248.532 5.348 2.716 5.46 5.908h-3.22c-.224-2.072-1.708-3.332-3.864-3.332-2.128 0-3.416 1.036-3.416 2.772 0 1.652 1.064 2.38 4.732 3.052 4.172.728 6.076 2.464 6.076 5.432"/></svg>