<svg xmlns="http://www.w3.org/2000/svg" width="167" height="255" fill="none" viewBox="0 0 167 255"><path fill="url(#a)" d="M154.672 125.169a4.4 4.4 0 0 1 0 4.565L87.44 240.521c-1.72 2.835-5.845 2.836-7.566.001L12.64 129.742a4.4 4.4 0 0 1 0-4.565L79.874 14.389c1.72-2.835 5.846-2.835 7.566 0zm-110.422-4.43c-1.784 2.938.338 6.691 3.783 6.691h71.252c3.445 0 5.567-3.753 3.783-6.691L87.44 62.056c-1.72-2.834-5.845-2.834-7.565 0zm39.407-31.067c6.93 0 12.547 5.612 12.547 12.533s-5.618 12.528-12.547 12.528c-6.928 0-12.546-5.608-12.547-12.528 0-6.921 5.618-12.533 12.547-12.533"/><defs><linearGradient id="a" x1="83.655" x2="83.655" y1="101.522" y2="205.255" gradientUnits="userSpaceOnUse"><stop stop-color="#fe7109"/><stop offset="1" stop-color="#003bff"/></linearGradient></defs></svg>