<?xml version="1.0" encoding="UTF-8"?>
<svg version="1.1" xmlns="http://www.w3.org/2000/svg" width="230" height="230">
<path d="M0 0 C0.93070313 0.38929687 1.86140625 0.77859375 2.8203125 1.1796875 C16.02612373 7.53804105 24.84949319 18.49774831 30 32 C33.77611263 44.37061331 32.18502081 56.30842244 26.25 67.75 C23.3909679 72.69942995 19.96882515 76.9020119 16 81 C16.36351562 81.47308594 16.72703125 81.94617188 17.1015625 82.43359375 C18.75456961 84.60793387 20.37952785 86.80131392 22 89 C22.5259375 89.69738281 23.051875 90.39476563 23.59375 91.11328125 C31.60661312 102.29449587 33.69650957 114.51979216 32 128 C29.94727203 136.66505524 25.9502043 143.4586307 20 150 C19.45472656 150.62519531 18.90945312 151.25039062 18.34765625 151.89453125 C9.62697311 161.31286904 -2.17389192 166.50732122 -14.8125 167.75 C-22.40797966 168.68073711 -27.72817458 171.79540891 -34.05639648 175.81469727 C-38.2704026 178.3846005 -42.65463734 180.66204978 -47 183 C-49.13674367 184.15750608 -51.27346169 185.31505951 -53.41015625 186.47265625 C-55.62743079 187.66959206 -57.84488035 188.86620372 -60.0625 190.0625 C-61.16916016 190.66126953 -62.27582031 191.26003906 -63.41601562 191.87695312 C-66.60453677 193.59645685 -69.79997402 195.30201659 -73 197 C-73.90862793 197.48710449 -74.81725586 197.97420898 -75.75341797 198.47607422 C-83.97145006 202.76176304 -91.00226567 204.37834026 -100.25 204.3125 C-101.08337891 204.30686035 -101.91675781 204.3012207 -102.77539062 204.29541016 C-117.82851104 204.00099397 -129.77351498 198.78247866 -140.7109375 188.41796875 C-150.74282862 177.82114178 -155.43729276 166.05663883 -155.2734375 151.5390625 C-154.25681692 138.38108762 -147.60637613 127.64957323 -139 118 C-139.42410156 117.63390625 -139.84820312 117.2678125 -140.28515625 116.890625 C-149.68773739 108.21131933 -154.64440327 97.68047778 -156 85 C-156.5066477 71.54217042 -151.97382513 59.92043115 -143 50 C-142.45085937 49.32453125 -141.90171875 48.6490625 -141.3359375 47.953125 C-133.47971516 39.02402648 -122.24510922 34.10112628 -110.625 32.625 C-101.31240389 31.39338896 -94.42049938 27.28315868 -86.48193359 22.47070312 C-81.93989508 19.77925713 -77.27348122 17.31392487 -72.625 14.8125 C-66.83494802 11.68065549 -61.11128843 8.50409023 -55.5 5.0625 C-38.69273007 -4.91452961 -18.20103284 -7.67629767 0 0 Z M-34 30 C-35.31860906 30.68696886 -36.6376601 31.37308969 -37.95703125 32.05859375 C-46.02351933 36.2743457 -54.02760078 40.60915378 -62 45 C-58.67180923 47.65537868 -55.09303773 49.71687951 -51.37109375 51.7578125 C-50.74018326 52.1063327 -50.10927277 52.45485291 -49.45924377 52.81393433 C-48.1312765 53.54654147 -46.80247837 54.27764435 -45.47290039 55.00732422 C-43.43858538 56.124404 -41.40761676 57.24739278 -39.37695312 58.37109375 C-38.08352856 59.0836878 -36.78991517 59.79593925 -35.49609375 60.5078125 C-34.88978622 60.84322052 -34.2834787 61.17862854 -33.65879822 61.52420044 C-26.67013731 65.3490962 -19.47359796 66.50682796 -11.64453125 64.3515625 C-5.91869767 61.75998599 -1.5753742 57.66693485 0.91796875 51.86328125 C2.59810104 46.02864001 1.79548767 41.35106408 -1 36 C-5.09253737 31.02258969 -10.56712742 26.48809608 -17.1640625 25.76171875 C-23.84162657 25.5603319 -28.16499726 26.87856487 -34 30 Z M-121.4375 69.375 C-124.8350552 75.08289273 -126.61796452 79.2528914 -125.57421875 85.86328125 C-124.69003205 89.15341815 -123.14446724 91.37898449 -121 94 C-120.34 94.886875 -119.68 95.77375 -119 96.6875 C-113.41326069 100.99394489 -107.03229443 102.33792734 -100.07421875 101.5625 C-93.47612268 99.90222199 -87.55013036 96.41164603 -81.61352539 93.17797852 C-79.54979637 92.05559095 -77.47609568 90.95356843 -75.40039062 89.85351562 C-74.08009938 89.14440051 -72.76041484 88.43415436 -71.44140625 87.72265625 C-70.82374893 87.39443375 -70.20609161 87.06621124 -69.56971741 86.7280426 C-66.4912515 85.03829222 -64.99100789 83.98651184 -63 81 C-63.6798999 80.63237549 -64.3597998 80.26475098 -65.06030273 79.88598633 C-68.18631984 78.19535001 -71.31191233 76.50393011 -74.4375 74.8125 C-75.50677734 74.23435547 -76.57605469 73.65621094 -77.67773438 73.06054688 C-79.25844727 72.20493164 -79.25844727 72.20493164 -80.87109375 71.33203125 C-81.91120605 70.7695166 -82.95131836 70.20700195 -84.02294922 69.62744141 C-87.40205007 67.78021439 -90.74926721 65.88095482 -94.08227539 63.9519043 C-103.62974662 59.21280941 -114.04726315 62.1742564 -121.4375 69.375 Z M-40.5625 106.375 C-42.54193326 107.53042163 -44.5223833 108.68410332 -46.50390625 109.8359375 C-47.43605957 110.37959961 -48.36821289 110.92326172 -49.32861328 111.48339844 C-52.82320567 113.46735091 -56.38174644 115.2532569 -60 117 C-60 117.66 -60 118.32 -60 119 C-56.00052546 121.22805448 -51.99858615 123.45159424 -47.99438477 125.67114258 C-46.63498859 126.42546627 -45.27625169 127.18097944 -43.91821289 127.93774414 C-41.95634974 129.03071013 -39.99208727 130.11925346 -38.02734375 131.20703125 C-37.42913315 131.54152786 -36.83092255 131.87602448 -36.21458435 132.22065735 C-28.8448144 136.28756457 -22.55858222 139.33727847 -14 138 C-6.89075564 135.6750291 -2.70458837 132.45315394 1 126 C2.73532105 120.79403685 3.1586238 115.58184681 0.87109375 110.484375 C-3.76305591 103.17621209 -8.78898591 99.97701154 -17.14453125 98.1015625 C-26.14845253 97.78131359 -33.02006722 101.89590977 -40.5625 106.375 Z M-120.375 142.4375 C-124.30953441 147.47327638 -125.65787445 151.53090129 -125 158 C-122.99386778 164.19858818 -119.3821816 168.41187893 -114 172 C-108.3093839 174.721599 -102.30254682 175.11290643 -96.32519531 173.09863281 C-88.879612 169.96698148 -81.87016911 166.34431092 -74.875 162.3125 C-73.84890625 161.73177734 -72.8228125 161.15105469 -71.765625 160.55273438 C-66.56189726 157.70849685 -66.56189726 157.70849685 -62 154 C-75.74568681 146.09349556 -75.74568681 146.09349556 -89.5625 138.3125 C-90.34753906 137.87550781 -91.13257813 137.43851563 -91.94140625 136.98828125 C-101.92180927 132.19693028 -113.05503894 134.35908515 -120.375 142.4375 Z " fill="#74DD52" transform="translate(176,15)"/>
<path d="M0 0 C0.93070313 0.38929687 1.86140625 0.77859375 2.8203125 1.1796875 C16.02612373 7.53804105 24.84949319 18.49774831 30 32 C33.76545082 44.33568503 32.1883804 56.25595066 26.3125 67.6875 C23.20554123 73.07185172 19.32228466 77.55704242 15 82 C14.05125 81.443125 13.1025 80.88625 12.125 80.3125 C10.75265646 79.53694714 9.37737471 78.76658198 8 78 C7.25105469 77.57976562 6.50210938 77.15953125 5.73046875 76.7265625 C-6.96417864 69.95881833 -21.10289118 67.92249364 -35.2578125 70.62109375 C-42.67243596 72.89396879 -49.57013885 76.62872117 -56.43359375 80.1953125 C-59.26267946 81.62689804 -62.0344558 82.89149215 -65 84 C-65 83.01 -65 82.02 -65 81 C-68.66477009 78.91331742 -72.33215322 76.83126907 -76 74.75 C-77.02996094 74.16347656 -78.05992188 73.57695313 -79.12109375 72.97265625 C-93.13250124 64.49876277 -93.13250124 64.49876277 -109 63 C-115.38351275 65.02681265 -119.9977609 67.89610876 -123.16015625 73.89453125 C-125.10086772 78.75984978 -125.54798636 83.05245014 -123.9375 88.125 C-121.56051215 93.47848149 -118.76786131 96.88418127 -113.2578125 99.10546875 C-106.5850422 101.04957104 -101.55063634 101.26106777 -95 99 C-93.824375 98.62875 -92.64875 98.2575 -91.4375 97.875 C-90.633125 97.58625 -89.82875 97.2975 -89 97 C-94.76006493 103.07810532 -101.00256274 105.20572325 -109.1875 106.375 C-120.21645642 107.98113509 -128.8412003 112.75224309 -138 119 C-148.51334118 109.71549091 -154.49974704 99.0336162 -156 85 C-156.5066477 71.54217042 -151.97382513 59.92043115 -143 50 C-142.45085937 49.32453125 -141.90171875 48.6490625 -141.3359375 47.953125 C-133.47971516 39.02402648 -122.24510922 34.10112628 -110.625 32.625 C-101.31240389 31.39338896 -94.42049938 27.28315868 -86.48193359 22.47070312 C-81.93989508 19.77925713 -77.27348122 17.31392487 -72.625 14.8125 C-66.83494802 11.68065549 -61.11128843 8.50409023 -55.5 5.0625 C-38.69273007 -4.91452961 -18.20103284 -7.67629767 0 0 Z M-34 30 C-35.31860906 30.68696886 -36.6376601 31.37308969 -37.95703125 32.05859375 C-46.02351933 36.2743457 -54.02760078 40.60915378 -62 45 C-58.67180923 47.65537868 -55.09303773 49.71687951 -51.37109375 51.7578125 C-50.74018326 52.1063327 -50.10927277 52.45485291 -49.45924377 52.81393433 C-48.1312765 53.54654147 -46.80247837 54.27764435 -45.47290039 55.00732422 C-43.43858538 56.124404 -41.40761676 57.24739278 -39.37695312 58.37109375 C-38.08352856 59.0836878 -36.78991517 59.79593925 -35.49609375 60.5078125 C-34.88978622 60.84322052 -34.2834787 61.17862854 -33.65879822 61.52420044 C-26.67013731 65.3490962 -19.47359796 66.50682796 -11.64453125 64.3515625 C-5.91869767 61.75998599 -1.5753742 57.66693485 0.91796875 51.86328125 C2.59810104 46.02864001 1.79548767 41.35106408 -1 36 C-5.09253737 31.02258969 -10.56712742 26.48809608 -17.1640625 25.76171875 C-23.84162657 25.5603319 -28.16499726 26.87856487 -34 30 Z " fill="#C5E34F" transform="translate(176,15)"/>
</svg>
