<svg xmlns="http://www.w3.org/2000/svg" fill="none" viewBox="0 0.8 330.61 330.61"><path fill="url(#a)" d="M165.303.798h-.001C74.008.798 0 74.807 0 166.1v.001c0 91.294 74.008 165.302 165.302 165.302h.001c91.294 0 165.302-74.008 165.302-165.302v-.001C330.605 74.807 256.597.798 165.303.798"/><path fill="url(#b)" fill-opacity=".46" d="M165.303.798h-.001C74.008.798 0 74.807 0 166.1v.001c0 91.294 74.008 165.302 165.302 165.302h.001c91.294 0 165.302-74.008 165.302-165.302v-.001C330.605 74.807 256.597.798 165.303.798"/><mask id="c" width="166" height="130" x="82" y="101" maskUnits="userSpaceOnUse" style="mask-type:luminance"><path fill="#fff" d="M247.953 101.12H82.651v129.494h165.302z"/></mask><g fill="#fff" mask="url(#c)"><path d="M109.416 200.111a5.4 5.4 0 0 1 3.819-1.581h132.158c2.407 0 3.612 2.911 1.909 4.612l-26.114 26.094a5.4 5.4 0 0 1-3.819 1.581H85.211c-2.407 0-3.612-2.911-1.91-4.613zm0-97.485a5.4 5.4 0 0 1 3.819-1.582h132.158c2.407 0 3.612 2.912 1.909 4.613l-26.114 26.094a5.4 5.4 0 0 1-3.819 1.581H85.211c-2.407 0-3.612-2.911-1.91-4.613zm111.772 48.434a5.4 5.4 0 0 0-3.819-1.581H85.211c-2.407 0-3.612 2.911-1.91 4.612l26.115 26.094a5.4 5.4 0 0 0 3.819 1.581h132.158c2.407 0 3.612-2.912 1.909-4.613z"/></g><path stroke="#fff" stroke-width="11.807" d="M301.087 166.1c0 74.992-60.793 135.784-135.785 135.784S29.518 241.092 29.518 166.1 90.311 30.316 165.302 30.316c74.992 0 135.785 60.793 135.785 135.784Z"/><defs><radialGradient id="b" cx="0" cy="0" r="1" gradientTransform="rotate(90 52.734 112.568)scale(318.797)" gradientUnits="userSpaceOnUse"><stop stop-color="#F1F2B3" stop-opacity=".92"/><stop offset="1" stop-color="#F5E8A3" stop-opacity="0"/></radialGradient><linearGradient id="a" x1="94.459" x2="224.339" y1="101.16" y2="231.041" gradientUnits="userSpaceOnUse"><stop stop-color="#4BC57C"/><stop offset="1" stop-color="#289279"/></linearGradient></defs></svg>