<svg xmlns="http://www.w3.org/2000/svg" xml:space="preserve" id="Treasure_x5F_logo_x5F_On_x5F_Light_x5F_AW" x="0" y="0" style="enable-background:new 0 0 683.002 157.001" version="1.1" viewBox="0 0 157 157"><style>.st0{fill:#101827}</style><g id="Logo"><g id="Logomark"><path d="M0 49v59c0 10 5 19 14 24l38 22a20 20 0 0 0 21 0l38-22a27 27 0 0 0 14-24V49c0-10-5-19-14-24L73 3a20 20 0 0 0-21 0L14 25A27 27 0 0 0 0 49z" style="fill:#dc2626"/><path d="m110 77-14-5a16 16 0 0 1-11-12l-6-29a2 2 0 0 0-1-2l-2 2-6 29c-1 6-5 10-10 12l-14 5a2 2 0 0 0-1 2l1 1 14 5a16 16 0 0 1 10 12l6 29 2 2 1-2 6-29c2-6 5-10 11-12l14-5a2 2 0 0 0 1-2l-1-1zM33 50l5 1a5 5 0 0 1 4 4l2 11a1 1 0 0 0 1 0l2-11a6 6 0 0 1 4-4l5-1v-1a1 1 0 0 0 0-1l-5-1a6 6 0 0 1-4-4l-2-11a1 1 0 0 0-1 0l-2 11a6 6 0 0 1-4 4l-5 1v2m12 51-7-2a7 7 0 0 1-5-5l-2-15a1 1 0 0 0-1 0h-1l-3 15a7 7 0 0 1-5 5l-6 2-1 1 1 1 6 2a7 7 0 0 1 5 6l3 14h2l2-14a7 7 0 0 1 5-6l7-2v-1a1 1 0 0 0 0-1z" style="fill:#fffdf7"/></g></g></svg>
