<svg xmlns="http://www.w3.org/2000/svg" width="2010" height="2010" fill="none"><mask id="a" width="2010" height="2010" x="0" y="0" maskUnits="userSpaceOnUse" style="mask-type:alpha"><path fill="#D9D9D9" d="M0 0h2010v2010H0z"/></mask><g mask="url(#a)"><path fill="#00E599" d="M1724 240 1574 85c-73-75-195-68-260 14L881 657 565 254c-66-84-198-67-240 32l-75 180c-23 55-16 118 19 166l308 431-272 365c-41 54-43 128-6 184l81 127c60 91 190 99 260 16l236-281 321 433c50 68 143 90 218 51l169-88c96-50 123-175 56-260l-422-532 514-608c57-67 54-167-8-230m-66 168-554 654c-7 8-7 19 0 27l460 581c29 37 17 91-24 114l-170 87c-33 17-73 8-95-22l-378-509c-9-12-25-12-34-1l-297 354a65 65 0 0 1-104-7l-82-126a65 65 0 0 1 3-73l305-409c5-8 6-18 0-26L349 577a75 75 0 0 1-9-73l75-180c13-30 54-36 74-10l375 479c9 11 25 11 34 0l493-634c28-37 82-40 114-7l150 155c27 28 28 71 3 101"/></g></svg>