<?xml version="1.0" standalone="no"?>
<!DOCTYPE svg PUBLIC "-//W3C//DTD SVG 20010904//EN"
 "http://www.w3.org/TR/2001/REC-SVG-20010904/DTD/svg10.dtd">
<svg version="1.0" xmlns="http://www.w3.org/2000/svg"
 width="640.000000pt" height="640.000000pt" viewBox="0 0 640.000000 640.000000"
 preserveAspectRatio="xMidYMid meet">

<g transform="translate(0.000000,640.000000) scale(0.100000,-0.100000)"
fill="#000000" stroke="none">
<path d="M1095 4286 c-206 -65 -328 -256 -295 -461 14 -90 60 -212 114 -301
41 -69 44 -76 34 -111 -16 -59 -35 -91 -115 -192 -120 -152 -153 -237 -153
-393 0 -114 14 -176 60 -274 72 -151 223 -265 416 -314 88 -23 260 -40 405
-40 77 0 99 -3 110 -16 25 -31 89 -64 151 -80 47 -12 93 -15 183 -12 131 5
183 21 255 78 36 29 42 30 136 30 343 0 559 65 705 211 178 177 220 482 95
693 -13 23 -54 79 -91 125 -71 90 -99 137 -109 187 -6 27 1 46 44 120 76 134
103 226 104 354 1 99 -1 109 -31 170 -41 83 -119 162 -202 203 -53 26 -78 32
-152 35 -75 4 -101 0 -171 -21 -88 -28 -185 -81 -248 -135 l-38 -32 -69 17
c-94 24 -428 24 -522 1 l-65 -16 -55 42 c-129 99 -253 146 -380 145 -42 0 -94
-6 -116 -13z"/>
<path d="M3776 4268 c28 -162 121 -302 235 -353 l39 -18 0 -132 0 -132 -42
-19 c-59 -26 -147 -118 -182 -188 -45 -93 -62 -201 -48 -298 22 -150 111 -287
225 -348 l47 -25 0 -130 0 -131 -44 -21 c-121 -59 -200 -179 -230 -350 l-5
-33 99 0 100 0 0 60 c0 66 14 102 53 138 l25 23 7 -37 c3 -20 19 -50 35 -66
23 -23 37 -28 75 -28 77 0 118 36 127 109 l3 25 32 -33 c36 -35 53 -84 53
-148 l0 -43 95 0 c109 0 105 -4 80 93 -32 124 -112 232 -212 289 l-53 30 0
126 0 127 55 29 c213 111 289 421 163 658 -36 67 -131 160 -183 179 l-35 13 0
131 0 130 55 28 c99 52 177 158 210 284 25 97 29 93 -80 93 l-95 0 0 -37 c-1
-68 -17 -115 -54 -152 l-36 -36 0 30 c0 135 -207 151 -235 18 -8 -39 -15 -41
-42 -10 -34 37 -43 63 -43 126 l0 61 -100 0 -99 0 5 -32z m325 -930 c31 -24
95 -26 136 -5 30 16 49 50 55 96 l3 25 32 -33 c43 -43 53 -84 53 -221 0 -138
-10 -180 -55 -228 l-34 -37 -1 30 c-1 101 -133 151 -202 77 -14 -15 -29 -42
-33 -60 -6 -31 -8 -32 -28 -19 -47 31 -57 71 -57 229 0 157 6 187 47 230 l27
28 15 -47 c9 -25 28 -55 42 -65z"/>
<path d="M5200 4257 c0 -40 -2 -43 -47 -67 -158 -84 -253 -289 -225 -485 22
-152 119 -299 230 -349 l42 -19 0 -141 -1 -141 -42 -19 c-58 -27 -148 -120
-180 -186 -73 -151 -70 -328 8 -480 27 -53 115 -140 167 -166 47 -24 48 -26
48 -69 l0 -45 120 0 120 0 0 44 c0 43 2 45 46 67 59 28 141 110 176 175 55
102 73 254 43 369 -33 125 -120 241 -217 291 l-48 24 0 138 0 137 55 28 c298
156 298 668 0 823 -54 28 -55 30 -55 72 l0 42 -120 0 -120 0 0 -43z m320 -472
c0 -178 -4 -198 -54 -244 l-26 -24 0 27 c0 103 -136 151 -207 73 -12 -12 -24
-37 -28 -54 -8 -39 -15 -41 -42 -10 -39 42 -43 62 -43 216 0 155 7 190 42 229
28 29 35 28 43 -8 30 -137 234 -122 235 17 l1 28 39 -42 40 -42 0 -166z m-282
-998 c8 -9 33 -22 54 -27 32 -9 46 -7 83 9 25 11 45 21 45 23 0 2 6 21 14 42
l14 40 30 -31 c44 -43 55 -97 50 -248 -4 -132 -10 -158 -51 -202 -28 -31 -37
-29 -37 10 0 49 -32 94 -79 108 -76 23 -145 -20 -157 -97 -6 -42 -7 -44 -27
-31 -47 31 -57 71 -57 235 0 161 3 177 49 225 l26 28 13 -33 c8 -18 21 -41 30
-51z"/>
</g>
</svg>
