<svg xmlns="http://www.w3.org/2000/svg" width="853.333" height="853.333" version="1.0" viewBox="0 0 640 640"><path d="M109.5 211.4C88.9 217.9 76.7 237 80 257.5c1.4 9 6 21.2 11.4 30.1 4.1 6.9 4.4 7.6 3.4 11.1-1.6 5.9-3.5 9.1-11.5 19.2-12 15.2-15.3 23.7-15.3 39.3 0 11.4 1.4 17.6 6 27.4 7.2 15.1 22.3 26.5 41.6 31.4 8.8 2.3 26 4 40.5 4 7.7 0 9.9.3 11 1.6 2.5 3.1 8.9 6.4 15.1 8 4.7 1.2 9.3 1.5 18.3 1.2 13.1-.5 18.3-2.1 25.5-7.8 3.6-2.9 4.2-3 13.6-3 34.3 0 55.9-6.5 70.5-21.1 17.8-17.7 22-48.2 9.5-69.3-1.3-2.3-5.4-7.9-9.1-12.5-7.1-9-9.9-13.7-10.9-18.7-.6-2.7.1-4.6 4.4-12 7.6-13.4 10.3-22.6 10.4-35.4.1-9.9-.1-10.9-3.1-17-4.1-8.3-11.9-16.2-20.2-20.3-5.3-2.6-7.8-3.2-15.2-3.5-7.5-.4-10.1 0-17.1 2.1-8.8 2.8-18.5 8.1-24.8 13.5l-3.8 3.2-6.9-1.7c-9.4-2.4-42.8-2.4-52.2-.1l-6.5 1.6-5.5-4.2c-12.9-9.9-25.3-14.6-38-14.5-4.2 0-9.4.6-11.6 1.3m268.1 1.8c2.8 16.2 12.1 30.2 23.5 35.3l3.9 1.8v26.4l-4.2 1.9c-5.9 2.6-14.7 11.8-18.2 18.8-4.5 9.3-6.2 20.1-4.8 29.8 2.2 15 11.1 28.7 22.5 34.8l4.7 2.5v26.1l-4.4 2.1c-12.1 5.9-20 17.9-23 35l-.5 3.3H397v-6c0-6.6 1.4-10.2 5.3-13.8l2.5-2.3.7 3.7c.3 2 1.9 5 3.5 6.6 2.3 2.3 3.7 2.8 7.5 2.8 7.7 0 11.8-3.6 12.7-10.9l.3-2.5 3.2 3.3c3.6 3.5 5.3 8.4 5.3 14.8v4.3h9.5c10.9 0 10.5.4 8-9.3-3.2-12.4-11.2-23.2-21.2-28.9l-5.3-3v-25.3l5.5-2.9c21.3-11.1 28.9-42.1 16.3-65.8-3.6-6.7-13.1-16-18.3-17.9l-3.5-1.3v-26.1l5.5-2.8c9.9-5.2 17.7-15.8 21-28.4 2.5-9.7 2.9-9.3-8-9.3H438v3.7c-.1 6.8-1.7 11.5-5.4 15.2l-3.6 3.6v-3c0-13.5-20.7-15.1-23.5-1.8-.8 3.9-1.5 4.1-4.2 1-3.4-3.7-4.3-6.3-4.3-12.6V210h-19.9zm32.5 93c3.1 2.4 9.5 2.6 13.6.5 3-1.6 4.9-5 5.5-9.6l.3-2.5 3.2 3.3c4.3 4.3 5.3 8.4 5.3 22.1 0 13.8-1 18-5.5 22.8l-3.4 3.7-.1-3c-.1-10.1-13.3-15.1-20.2-7.7-1.4 1.5-2.9 4.2-3.3 6-.6 3.1-.8 3.2-2.8 1.9-4.7-3.1-5.7-7.1-5.7-22.9 0-15.7.6-18.7 4.7-23l2.7-2.8 1.5 4.7c.9 2.5 2.8 5.5 4.2 6.5M520 214.3c0 4-.2 4.3-4.7 6.7-15.8 8.4-25.3 28.9-22.5 48.5 2.2 15.2 11.9 29.9 23 34.9l4.2 1.9v14.1l-.1 14.1-4.2 1.9c-5.8 2.7-14.8 12-18 18.6-7.3 15.1-7 32.8.8 48 2.7 5.3 11.5 14 16.7 16.6 4.7 2.4 4.8 2.6 4.8 6.9v4.5h24v-4.4c0-4.3.2-4.5 4.6-6.7 5.9-2.8 14.1-11 17.6-17.5 5.5-10.2 7.3-25.4 4.3-36.9-3.3-12.5-12-24.1-21.7-29.1L544 334v-27.5l5.5-2.8c29.8-15.6 29.8-66.8 0-82.3-5.4-2.8-5.5-3-5.5-7.2V210h-24zm32 47.2c0 17.8-.4 19.8-5.4 24.4l-2.6 2.4v-2.7c0-10.3-13.6-15.1-20.7-7.3-1.2 1.2-2.4 3.7-2.8 5.4-.8 3.9-1.5 4.1-4.2 1-3.9-4.2-4.3-6.2-4.3-21.6 0-15.5.7-19 4.2-22.9 2.8-2.9 3.5-2.8 4.3.8 3 13.7 23.4 12.2 23.5-1.7l.1-2.8 3.9 4.2 4 4.2zm-28.2 99.8c.8.9 3.3 2.2 5.4 2.7 3.2.9 4.6.7 8.3-.9 2.5-1.1 4.5-2.1 4.5-2.3s.6-2.1 1.4-4.2l1.4-4 3 3.1c4.4 4.3 5.5 9.7 5 24.8-.4 13.2-1 15.8-5.1 20.2-2.8 3.1-3.7 2.9-3.7-1 0-4.9-3.2-9.4-7.9-10.8-7.6-2.3-14.5 2-15.7 9.7-.6 4.2-.7 4.4-2.7 3.1-4.7-3.1-5.7-7.1-5.7-23.5 0-16.1.3-17.7 4.9-22.5l2.6-2.8 1.3 3.3c.8 1.8 2.1 4.1 3 5.1"/></svg>