<svg xmlns="http://www.w3.org/2000/svg" viewBox="0 0 400 400"><path fill="#0B032B" d="M0 0h400v400H0z"/><path fill="#00CFFD" d="M274.4 115.8h13.8l10 .1 19.8.1v36h-11.4a4293 4293 0 0 0-29.4.3h-3.4c-6.7 0-6.7 0-12.4 3.1-2.2 2.4-4.3 4.7-6.2 7.2l-2 2.7-2.2 2.7-4.1 5-2.3 2.8-6.2 7.5-2 2.3-3.7 4.6-1.8 2-1.5 2a31.6 31.6 0 0 0-3.4 5.8 524 524 0 0 0 18.7 23c3.6 4.1 7 8.3 10.3 12.5l2 2.5 1.3 2c2.4 3.3 4.3 5.6 8.4 6.7 3.3.3 6.5.4 9.8.3h3.6a760 760 0 0 0 19 0H318v36a5840 5840 0 0 1-50.6.3 46.5 46.5 0 0 1-34.3-12.8c-3.9-4-7.3-8.5-10.7-13-4-5-8-9.8-12.3-14.6-3.3-3.8-6.2-7.8-9.1-11.9-4 3-6.7 6-9.6 10-4 5.2-8.1 10.3-12.4 15.3-2.8 3.3-5.5 6.6-8 10a45.6 45.6 0 0 1-39.7 16.8h-28.6L82 283v-36l11.7-.2a23462 23462 0 0 0 30.2-.5h6.8l2.9-.1c2.5-.1 2.5-.1 5.4-1.2l2-4a206 206 0 0 1 8.1-9.6l1.5-1.8c2.6-3 5-6 7.5-9.2 4.6-5.8 9.4-11.6 14.2-17.4a843 843 0 0 0 16.3-20.2c4.2-5.4 8.6-10.6 13.1-15.8 3.6-4.1 7-8.3 10.4-12.6a724 724 0 0 1 13.1-16.3c13.6-17.3 27.7-22.5 49.2-22.3"/><path fill="#00CEFC" d="M88.4 115.8h3.5a3893 3893 0 0 1 36.6-.3h3.8c13.6 0 24.9 4 34.7 13.5 3.1 3.2 6.1 6.5 9 10l2 2.2 1.7 2.1 1.5 1.8c.8 1.9.8 1.9.3 4.2-2 3.5-4.4 6.3-7 9.3l-3.3 3.7-1.6 1.9c-3 3.5-6 7.2-8.8 10.9L159 177h-3c-1.7-1.8-1.7-1.8-3.6-4.3l-2.1-2.8-2.3-2.9-4.7-6-2.2-2.7c-2.6-3-4.6-5-8.6-5.7h-6l-3.5-.1-41-.5a5893 5893 0 0 1-.1-27.2v-2.4l.1-5.4c1.7-1.7 4-1.2 6.4-1.2"/></svg>