<svg xmlns="http://www.w3.org/2000/svg" width="158.969" height="125.992"><defs><clipPath id="a" clipPathUnits="userSpaceOnUse"><path d="M0 94.494h119.227V0H0Z"/></clipPath></defs><g clip-path="url(#a)" transform="matrix(1.33333 0 0 -1.33333 0 125.992)"><path d="M0 0c-1.07 0-2.123.164-3.13.485l-.127.038a6.4 6.4 0 0 0-1.354.566l-.12.065a10.35 10.35 0 0 0-3.43 2.895 10.235 10.235 0 0 0 .021 12.407 10.3 10.3 0 0 0 4.382 3.311l.171.071c.521.22.901.34 1.198.378l.327.054c.676.137 1.369.207 2.064.207 4.177 0 7.665 1.289 10.087 3.727 2.241 2.256 3.409 5.363 3.379 8.984v12.856h-25.514V37.57c0-1.65-.005-3.3 0-4.95.006-3.336-1.888-7.89-5.359-9.049-2.209-.738-4.951.364-7.298.094a13 13 0 0 1-5.44-1.918c-3.297-2.083-5.525-5.626-5.953-9.502-.165-1.496-.072-2.61-.004-3.425.076-.908.098-1.181-.219-2.086-.625-1.767-1.96-3.409-3.758-4.622C-41.875.9-43.942.233-45.899.233l-.191.002-.191-.002c-1.957 0-4.026.667-5.822 1.879-1.798 1.212-3.133 2.855-3.758 4.622-.318.905-.296 1.179-.219 2.086.067.813.16 1.928-.004 3.425-.428 3.876-2.656 7.418-5.953 9.502a13 13 0 0 1-5.44 1.918c-2.347.27-5.089-.832-7.299-.094-3.471 1.159-5.364 5.713-5.357 9.049.004 1.65 0 3.3 0 4.95v8.474h-25.519V33.188c-.03-3.621 1.14-6.728 3.379-8.984 2.421-2.439 5.91-3.727 10.087-3.727.695 0 1.388-.07 2.064-.207l.327-.054c.297-.039.677-.159 1.197-.378l.171-.071a10.3 10.3 0 0 0 4.382-3.311 10.23 10.23 0 0 0 .022-12.407c-.913-1.2-2.1-2.2-3.431-2.895l-.119-.065a6.5 6.5 0 0 0-1.354-.566l-.127-.038A10.3 10.3 0 0 0-92.184 0c-8.089 0-13.523-4.97-13.523-12.367 0-5.774 2.635-8.77 4.845-10.267 2.697-1.826 5.95-2.343 9.064-2.628l.215-.025a10.6 10.6 0 0 0 2.325-.564l.386-.147.066-.024a9.02 9.02 0 0 0 4.947-4.116c.618-1.096 1.046-2.531 1.205-4.038.062-.593.103-1.167.144-1.735.031-.431.066-.915.113-1.402V-48.45h25.334v13.113c0 3.37-1.284 6.639-3.669 9.022a13 13 0 0 1-.765.7l-.087.074c-2.745 2.378-6.316 2.441-8.924 2.488h-.028a41 41 0 0 0-1.214.034l-.392.06-.838.187-.79.243-.852.339a10.5 10.5 0 0 0-2.464 1.56l-.166.143c-2.361 2.108-3.532 4.707-3.58 7.944a10.45 10.45 0 0 0 2.141 6.34 10.64 10.64 0 0 0 5.423 3.749c2.164.636 6.2.652 8.146.031 3.546-1.131 6.063-4.382 6.261-8.091.016-.307.004-.628-.009-1.004-.041-1.088-.096-2.578.533-4.462a12.97 12.97 0 0 1 12.243-8.798 12.975 12.975 0 0 1 12.243 8.798c.629 1.882.573 3.372.533 4.462-.013.376-.025.699-.009 1.004.198 3.709 2.713 6.96 6.261 8.091 1.947.621 5.982.605 8.146-.031a10.64 10.64 0 0 0 5.422-3.749 10.44 10.44 0 0 0 2.142-6.34c-.049-3.237-1.22-5.835-3.58-7.944l-.166-.143a10.6 10.6 0 0 0-2.464-1.56l-.852-.339-.79-.243-.838-.187-.392-.06a41 41 0 0 0-1.214-.034h-.028c-2.607-.047-6.179-.11-8.925-2.488l-.086-.074a14 14 0 0 1-.766-.7c-2.384-2.383-3.668-5.652-3.668-9.022V-48.45h25.334v11.137c.047.485.082.971.113 1.402.041.566.082 1.141.144 1.735.159 1.507.587 2.942 1.204 4.038a9.02 9.02 0 0 0 4.948 4.116l.066.024.386.147c.8.286 1.498.456 2.324.564l.215.025c3.115.285 6.368.802 9.065 2.628 2.21 1.497 4.846 4.493 4.846 10.267C13.52-4.97 8.085 0-.004 0Z" style="fill:#ffda34;fill-opacity:1;fill-rule:nonzero;stroke:none" transform="translate(105.707 48.45)"/></g></svg>