<svg xmlns="http://www.w3.org/2000/svg" width="400" height="400" style="shape-rendering:geometricPrecision;text-rendering:geometricPrecision;image-rendering:optimizeQuality;fill-rule:evenodd;clip-rule:evenodd"><path fill="#0d0d0d" d="M-.5-.5h400v400H-.5z" style="opacity:1"/><path fill="#aeaeae" d="M174.5 327.5q-2.424-2.874 1-4.5-5.01.224-6-4.5 58.32 20.976 92.5-31 22.39-44.39-10.5-81.5-1.5-1-3 0a25.5 25.5 0 0 0-5 6.5q-2.368-3.654-7-4a195 195 0 0 0 24.5-28q27.182-57.372-23.5-95.5-42.386-24.83-82 4a127 127 0 0 0-12 11.5q-4.119-3.95 2-4-.057-4.022 2-7.5-.504-1.545-2-1.5 31.476-27.665 73-18.5 44.613 11.364 57 55.5 42.803 11.052 54.5 54 9.847 48.393-25.5 82.5-13.259 9.629-29 14.5-15.428 48.486-66 55.5a121 121 0 0 1-22 0q-6.878-.594-13-3.5" style="opacity:1"/><path fill="#bdbdbd" d="M145.5 87.5q1.496-.045 2 1.5-2.057 3.478-2 7.5-6.119.05-2 4-16.255 22.78-15 51 .114 3.634-3 5.5.038 2.982 0 6-5.74 3.717 0 4.5a5.6 5.6 0 0 0-1 3q-25.403 22.072-7.5 51a38.5 38.5 0 0 0 5.5 5q2.38 3.179-1 5-5.082-1.887-8.5-6-.598.343-.5 1-6.528-6.039-8.5-15-7.401-30.057 17.5-48 1.749-6.04-.5-12-34.368 19.514-28 59 3.727 15.958 14.5 28-.679 1.438-2 2.5.977 1.962-2 2.5-15.93-14.355-18.5-36-3.665-44.193 35.5-64 2-5.5 0-11a44.7 44.7 0 0 0-7 3q-.585-2.835 3-4.5l-2-1 6-1q-1.854-1.627-4-2.5 3.226-1.755 7-3 5.698-21.424 22-36" style="opacity:1"/><path fill="#0f0f0f" d="M216.5 105.5q-32.108-11.55-52.5 16-16.482 27.676 4.5 52-3 4-7 7-21.295-22.185-12.5-52 8.237-20.481 27.5-31 35.897-16.27 63.5 12 20.162 26.121 8 57a60.2 60.2 0 0 1-10 15 2634 2634 0 0 1-61.5 60.5 72.5 72.5 0 0 1-10 5.5l-1-1.5a36.8 36.8 0 0 1 5.5-12.5l62-62q21.505-32.952-6.5-60.5a73.6 73.6 0 0 0-10-5.5" style="opacity:1"/><path fill="#101010" d="M103.5 243.5q7.658 7.377 17.5 12 .747 4.975.5 10a24 24 0 0 1-9-3q-47.003-26.72-36.5-80 8.562-31.793 37.5-47a44.7 44.7 0 0 1 7-3q2 5.5 0 11-39.165 19.807-35.5 64 2.57 21.645 18.5 36m174-111q51.038 20.05 47.5 75-6.957 42.93-47 59a72.4 72.4 0 0 1-.5-12q17.42-5.668 27.5-21 17.629-32.057 2-65-9.749-17.248-28-25a33.7 33.7 0 0 1-1.5-11m-41 76a3299 3299 0 0 1-49 47.5 95.2 95.2 0 0 1-20 10.5q-2.502-4.785-2.5-10 10.055-3.9 18.5-10.5l64.5-64.5q22.52-32.777 4-68-28.9-41.29-76.5-24.5a312 312 0 0 0-5 3.5q-38.732 23.408-29.5 68 4.297 14.102 14 25 1 1.5 0 3a47 47 0 0 0-6.5 5q-16.45-17.903-20-42-1.255-28.22 15-51a127 127 0 0 1 12-11.5q39.614-28.83 82-4 50.682 38.128 23.5 95.5a195 195 0 0 1-24.5 28" style="opacity:1"/><path fill="#0f0f0f" d="M220.5 115.5a84 84 0 0 0 7.5 8q1 1 0 2-11.086 3.41-19.5 11a45 45 0 0 0-9 7q-12.567-12.283-29-18.5 14.752-19.754 39-14 5.89 1.54 11 4.5m53 55q15.663 9.295 16 28 .396 19.318-15.5 30-6.337-16.302-17.5-29.5 11.376-12.496 17-28.5m-149 0a154.5 154.5 0 0 0 18 28.5 534 534 0 0 0-12.5 18.5 3267 3267 0 0 1-5 11q-1.062-1.321-2.5-2a38.5 38.5 0 0 1-5.5-5q-17.903-28.928 7.5-51" style="opacity:1"/><path fill="#101010" d="M277.5 151.5q37.73 21.379 27.5 64-6.883 21.88-27.5 31-1.19-5.57 0-11 24.1-17.532 18.5-47-4.881-15.774-18.5-25-1.026-5.919 0-12" style="opacity:1"/><path fill="#c4c4c4" d="M116.5 126.5q2.146.873 4 2.5l-6 1 2 1q-3.585 1.665-3 4.5-28.938 15.207-37.5 47-10.503 53.28 36.5 80-1.986 3.864-3 7-34.893-17.198-41.5-56-6.817-48.08 30.5-78.5a74 74 0 0 1 18-8.5" style="opacity:1"/><path fill="#b6b6b6" d="M170.5 92.5q4.774.416 6 5-19.263 10.519-27.5 31-8.795 29.815 12.5 52 4-3 7-7-20.982-24.324-4.5-52 20.392-27.55 52.5-16 .116 1.875 2 2.5l-1 1q3.5 1.5 5 5-.816 1.076-2 1.5-5.11-2.96-11-4.5-24.248-5.754-39 14 16.433 6.217 29 18.5a45 45 0 0 1 9-7q1.132 2.95 3.5 1 .561 1.375 1.5 2.5-4.332 2.685-9 3.5.275 2.873-1 6a4867 4867 0 0 1-58.5 59q-29.499 39.477-6 83 11.786 17.543 30.5 27 .99 4.724 6 4.5-3.424 1.626-1 4.5-40.295-12.104-50-53-8.123-1.04-15-5 1.014-3.136 3-7a24 24 0 0 0 9 3 50.5 50.5 0 0 0-.5-10q-9.842-4.623-17.5-12 2.977-.538 2-2.5 1.321-1.062 2-2.5a125 125 0 0 0 13 8q6.025-10.771-5-15.5-2.462-1.693-3-4.5-.098-.657.5-1 3.418 4.113 8.5 6 3.38-1.821 1-5 1.438.679 2.5 2a3267 3267 0 0 0 5-11 534 534 0 0 1 12.5-18.5 154.5 154.5 0 0 1-18-28.5 5.6 5.6 0 0 1 1-3q-5.74-.783 0-4.5.038-3.018 0-6 3.114-1.866 3-5.5 3.55 24.097 20 42a47 47 0 0 1 6.5-5q1-1.5 0-3-9.703-10.898-14-25-9.232-44.592 29.5-68" style="opacity:1"/><path fill="#131313" d="M165.5 151.5q8.707 2.733 15.5 9 1 1 0 2a484 484 0 0 1-7 6q-6.648-7.295-8.5-17" style="opacity:1"/><path fill="#111" d="M166.5 132.5q15.367 3.807 26.5 15 1 1.5 0 3l-6 6q-9.136-9.446-21.5-14l-1-2z" style="opacity:1"/><path fill="#101010" d="M112.5 226.5q.538 2.807 3 4.5 11.025 4.729 5 15.5a125 125 0 0 1-13-8q-10.773-12.042-14.5-28-6.368-39.486 28-59 2.249 5.96.5 12-24.901 17.943-17.5 48 1.972 8.961 8.5 15" style="opacity:1"/><path fill="#b3b3b3" d="M236.5 208.5q4.632.346 7 4 30.624 36.362 5.5 77-34.336 40.466-81.5 15.5-40.408-28.73-23.5-75.5a129 129 0 0 1 8-13l64.5-64.5a106 106 0 0 1 17-9.5q1.465-4.496-.5-9a3.94 3.94 0 0 0-2-1q-15.121 6.389-27.5 17 1.275-3.127 1-6 4.668-.815 9-3.5a9.5 9.5 0 0 1-1.5-2.5q-2.368 1.95-3.5-1 8.414-7.59 19.5-11 1-1 0-2a84 84 0 0 1-7.5-8q1.184-.424 2-1.5-1.5-3.5-5-5l1-1q-1.884-.625-2-2.5a73.6 73.6 0 0 1 10 5.5q28.005 27.548 6.5 60.5l-62 62a36.8 36.8 0 0 0-5.5 12.5l1 1.5a72.5 72.5 0 0 0 10-5.5 2634 2634 0 0 0 61.5-60.5 60.2 60.2 0 0 0 10-15q12.162-30.879-8-57-27.603-28.27-63.5-12-1.226-4.584-6-5 2.4-1.716 5-3.5 47.6-16.79 76.5 24.5 18.52 35.223-4 68L183.5 246a72.4 72.4 0 0 1-18.5 10.5q-.002 5.215 2.5 10a95.2 95.2 0 0 0 20-10.5 3299 3299 0 0 0 49-47.5" style="opacity:1"/><path fill="#101010" d="M232.5 150.5q1.314-.197 2 1a44.8 44.8 0 0 1-6.5 14 3031 3031 0 0 0-65 66q-18.214 40.78 20.5 62.5 41.78 10.485 57.5-29.5 5.535-22.864-10.5-40 3-4 7-7 20.54 21.648 13.5 51-12.803 34.273-49.5 38.5-35.283.477-50.5-31.5-11.307-29.447 7-55l58.5-58.5a231 231 0 0 1 16-11.5" style="opacity:1"/><path fill="#101010" d="M243.5 212.5a25.5 25.5 0 0 1 5-6.5q1.5-1 3 0 32.89 37.11 10.5 81.5-34.18 51.976-92.5 31-18.714-9.457-30.5-27-23.499-43.524 6-83a4867 4867 0 0 0 58.5-59q12.379-10.611 27.5-17a3.94 3.94 0 0 1 2 1q1.965 4.504.5 9a106 106 0 0 0-17 9.5L152 216.5a129 129 0 0 0-8 13q-16.908 46.77 23.5 75.5 47.164 24.966 81.5-15.5 25.124-40.638-5.5-77" style="opacity:1"/><path fill="#0f0f0f" d="M198.5 255.5a367 367 0 0 0 18 12.5q5.555 3.531 12 4.5-4.926 11.158-17 14.5-25.476 7.425-41-13.5 16.072-6.021 28-18" style="opacity:1"/><path fill="#111" d="M211.5 242.5q9.86 9.086 22.5 14 .634 5.463-2.5 10-14.849-4.792-25.5-16-1-1 0-2a46 46 0 0 0 5.5-6" style="opacity:1"/><path fill="#121212" d="M223.5 230.5q8.26 4.933 10 15l-1 2a47.3 47.3 0 0 1-15-10.5 28.9 28.9 0 0 0 6-6.5" style="opacity:1"/></svg>