<svg xmlns="http://www.w3.org/2000/svg" width="400" height="400" style="shape-rendering:geometricPrecision;text-rendering:geometricPrecision;image-rendering:optimizeQuality;fill-rule:evenodd;clip-rule:evenodd"><path fill="#0d0d0d" d="M-.5-.5h400v400H-.5V-.5Z" style="opacity:1"/><path fill="#aeaeae" d="M174.5 327.5c-1.616-1.916-1.282-3.416 1-4.5-3.34.149-5.34-1.351-6-4.5 38.88 13.984 69.714 3.651 92.5-31 14.927-29.593 11.427-56.76-10.5-81.5-1-.667-2-.667-3 0a25.53 25.53 0 0 0-5 6.5c-1.579-2.436-3.912-3.769-7-4a195.208 195.208 0 0 0 24.5-28c18.121-38.248 10.288-70.081-23.5-95.5-28.257-16.554-55.591-15.22-82 4a127.22 127.22 0 0 0-12 11.5c-2.746-2.633-2.079-3.966 2-4-.038-2.681.629-5.181 2-7.5-.336-1.03-1.003-1.53-2-1.5 20.984-18.444 45.318-24.61 73-18.5 29.742 7.576 48.742 26.076 57 55.5 28.535 7.368 46.702 25.368 54.5 54 6.565 32.262-1.935 59.762-25.5 82.5-8.839 6.419-18.506 11.253-29 14.5-10.285 32.324-32.285 50.824-66 55.5a121.19 121.19 0 0 1-22 0c-4.585-.396-8.919-1.562-13-3.5Z" style="opacity:1"/><path fill="#bdbdbd" d="M145.5 87.5c.997-.03 1.664.47 2 1.5-1.371 2.319-2.038 4.819-2 7.5-4.079.034-4.746 1.367-2 4-10.837 15.187-15.837 32.187-15 51 .076 2.423-.924 4.256-3 5.5.025 1.988.025 3.988 0 6-3.827 2.478-3.827 3.978 0 4.5a5.576 5.576 0 0 0-1 3c-16.935 14.715-19.435 31.715-7.5 51a38.47 38.47 0 0 0 5.5 5c1.587 2.119 1.254 3.786-1 5-3.388-1.258-6.221-3.258-8.5-6-.399.228-.565.562-.5 1-4.352-4.026-7.185-9.026-8.5-15-4.934-20.038.899-36.038 17.5-48 1.166-4.027.999-8.027-.5-12-22.912 13.009-32.245 32.676-28 59 2.485 10.639 7.318 19.972 14.5 28-.453.958-1.119 1.792-2 2.5.651 1.308-.015 2.141-2 2.5-10.62-9.57-16.787-21.57-18.5-36-2.443-29.462 9.39-50.795 35.5-64 1.333-3.667 1.333-7.333 0-11a44.684 44.684 0 0 0-7 3c-.39-1.89.61-3.39 3-4.5l-2-1 6-1c-1.236-1.085-2.569-1.918-4-2.5 2.15-1.17 4.484-2.17 7-3 3.799-14.283 11.132-26.283 22-36Z" style="opacity:1"/><path fill="#0f0f0f" d="M216.5 105.5c-21.405-7.7-38.905-2.366-52.5 16-10.988 18.451-9.488 35.784 4.5 52-2 2.667-4.333 5-7 7-14.197-14.79-18.363-32.123-12.5-52 5.491-13.654 14.658-23.988 27.5-31 23.931-10.847 45.098-6.847 63.5 12 13.441 17.414 16.108 36.414 8 57a60.147 60.147 0 0 1-10 15 2633.91 2633.91 0 0 1-61.5 60.5 72.496 72.496 0 0 1-10 5.5l-1-1.5a36.805 36.805 0 0 1 5.5-12.5l62-62c14.337-21.968 12.17-42.134-6.5-60.5a73.609 73.609 0 0 0-10-5.5Z" style="opacity:1"/><path fill="#101010" d="M103.5 243.5c5.105 4.918 10.939 8.918 17.5 12 .498 3.317.665 6.65.5 10a23.954 23.954 0 0 1-9-3c-31.335-17.814-43.502-44.48-36.5-80 5.708-21.195 18.208-36.862 37.5-47a44.684 44.684 0 0 1 7-3c1.333 3.667 1.333 7.333 0 11-26.11 13.205-37.943 34.538-35.5 64 1.713 14.43 7.88 26.43 18.5 36ZM277.5 132.5c34.025 13.367 49.859 38.367 47.5 75-4.638 28.62-20.305 48.287-47 59a72.367 72.367 0 0 1-.5-12c11.614-3.779 20.78-10.779 27.5-21 11.753-21.371 12.419-43.038 2-65-6.499-11.499-15.833-19.832-28-25a33.724 33.724 0 0 1-1.5-11ZM236.5 208.5a3298.804 3298.804 0 0 1-49 47.5 95.241 95.241 0 0 1-20 10.5c-1.668-3.19-2.502-6.523-2.5-10 6.703-2.6 12.87-6.1 18.5-10.5l64.5-64.5c15.014-21.851 16.347-44.518 4-68-19.267-27.527-44.767-35.693-76.5-24.5a311.784 311.784 0 0 0-5 3.5c-25.821 15.605-35.655 38.272-29.5 68 2.865 9.401 7.531 17.735 14 25 .667 1 .667 2 0 3a47.05 47.05 0 0 0-6.5 5c-10.967-11.935-17.634-25.935-20-42-.837-18.813 4.163-35.813 15-51a127.22 127.22 0 0 1 12-11.5c26.409-19.22 53.743-20.554 82-4 33.788 25.419 41.621 57.252 23.5 95.5a195.208 195.208 0 0 1-24.5 28Z" style="opacity:1"/><path fill="#0f0f0f" d="M220.5 115.5a84.01 84.01 0 0 0 7.5 8c.667.667.667 1.333 0 2-7.391 2.274-13.891 5.94-19.5 11a44.91 44.91 0 0 0-9 7c-8.378-8.189-18.044-14.355-29-18.5 9.835-13.17 22.835-17.836 39-14 3.926 1.027 7.593 2.527 11 4.5ZM273.5 170.5c10.442 6.197 15.775 15.53 16 28 .264 12.879-4.903 22.879-15.5 30-4.224-10.868-10.058-20.701-17.5-29.5 7.584-8.331 13.251-17.831 17-28.5ZM124.5 170.5a154.54 154.54 0 0 0 18 28.5 533.605 533.605 0 0 0-12.5 18.5 3266.84 3266.84 0 0 1-5 11c-.708-.881-1.542-1.547-2.5-2a38.47 38.47 0 0 1-5.5-5c-11.935-19.285-9.435-36.285 7.5-51Z" style="opacity:1"/><path fill="#101010" d="M277.5 151.5c25.153 14.252 34.32 35.586 27.5 64-4.589 14.587-13.755 24.92-27.5 31-.793-3.713-.793-7.38 0-11 16.066-11.688 22.233-27.355 18.5-47-3.254-10.516-9.421-18.85-18.5-25-.684-3.946-.684-7.946 0-12Z" style="opacity:1"/><path fill="#c4c4c4" d="M116.5 126.5c1.431.582 2.764 1.415 4 2.5l-6 1 2 1c-2.39 1.11-3.39 2.61-3 4.5-19.292 10.138-31.792 25.805-37.5 47-7.002 35.52 5.165 62.186 36.5 80-1.324 2.576-2.324 4.909-3 7-23.262-11.465-37.096-30.132-41.5-56-4.545-32.053 5.622-58.22 30.5-78.5a74.096 74.096 0 0 1 18-8.5Z" style="opacity:1"/><path fill="#b6b6b6" d="M170.5 92.5c3.183.277 5.183 1.944 6 5-12.842 7.012-22.009 17.346-27.5 31-5.863 19.877-1.697 37.21 12.5 52 2.667-2 5-4.333 7-7-13.988-16.216-15.488-33.549-4.5-52 13.595-18.366 31.095-23.7 52.5-16 .077 1.25.744 2.083 2 2.5l-1 1c2.333 1 4 2.667 5 5-.544.717-1.211 1.217-2 1.5-3.407-1.973-7.074-3.473-11-4.5-16.165-3.836-29.165.83-39 14 10.956 4.145 20.622 10.311 29 18.5a44.91 44.91 0 0 1 9-7c.755 1.966 1.921 2.3 3.5 1 .374.916.874 1.75 1.5 2.5-2.888 1.79-5.888 2.957-9 3.5.184 1.915-.15 3.915-1 6a4867.38 4867.38 0 0 1-58.5 59c-19.666 26.318-21.666 53.984-6 83 7.857 11.695 18.024 20.695 30.5 27 .66 3.149 2.66 4.649 6 4.5-2.282 1.084-2.616 2.584-1 4.5-26.863-8.069-43.53-25.736-50-53-5.415-.694-10.415-2.36-15-5 .676-2.091 1.676-4.424 3-7a23.954 23.954 0 0 0 9 3 50.464 50.464 0 0 0-.5-10c-6.561-3.082-12.395-7.082-17.5-12 1.985-.359 2.651-1.192 2-2.5.881-.708 1.547-1.542 2-2.5a124.785 124.785 0 0 0 13 8c4.017-7.181 2.35-12.347-5-15.5-1.641-1.129-2.641-2.629-3-4.5-.065-.438.101-.772.5-1 2.279 2.742 5.112 4.742 8.5 6 2.254-1.214 2.587-2.881 1-5 .958.453 1.792 1.119 2.5 2a3266.84 3266.84 0 0 0 5-11 533.605 533.605 0 0 1 12.5-18.5 154.54 154.54 0 0 1-18-28.5 5.576 5.576 0 0 1 1-3c-3.827-.522-3.827-2.022 0-4.5.025-2.012.025-4.012 0-6 2.076-1.244 3.076-3.077 3-5.5 2.366 16.065 9.033 30.065 20 42a47.05 47.05 0 0 1 6.5-5c.667-1 .667-2 0-3-6.469-7.265-11.135-15.599-14-25-6.155-29.728 3.679-52.395 29.5-68Z" style="opacity:1"/><path fill="#131313" d="M165.5 151.5c5.805 1.822 10.971 4.822 15.5 9 .667.667.667 1.333 0 2a483.737 483.737 0 0 1-7 6c-4.432-4.863-7.265-10.53-8.5-17Z" style="opacity:1"/><path fill="#111" d="M166.5 132.5c10.245 2.538 19.078 7.538 26.5 15 .667 1 .667 2 0 3l-6 6c-6.091-6.297-13.257-10.964-21.5-14l-1-2 2-8Z" style="opacity:1"/><path fill="#101010" d="M112.5 226.5c.359 1.871 1.359 3.371 3 4.5 7.35 3.153 9.017 8.319 5 15.5a124.785 124.785 0 0 1-13-8c-7.182-8.028-12.015-17.361-14.5-28-4.245-26.324 5.088-45.991 28-59 1.499 3.973 1.666 7.973.5 12-16.601 11.962-22.434 27.962-17.5 48 1.315 5.974 4.148 10.974 8.5 15Z" style="opacity:1"/><path fill="#b3b3b3" d="M236.5 208.5c3.088.231 5.421 1.564 7 4 20.416 24.241 22.249 49.908 5.5 77-22.891 26.977-50.057 32.144-81.5 15.5-26.939-19.154-34.772-44.32-23.5-75.5a129.073 129.073 0 0 1 8-13l64.5-64.5a106.143 106.143 0 0 1 17-9.5c.976-2.997.81-5.997-.5-9a3.943 3.943 0 0 0-2-1c-10.081 4.259-19.247 9.926-27.5 17 .85-2.085 1.184-4.085 1-6 3.112-.543 6.112-1.71 9-3.5a9.454 9.454 0 0 1-1.5-2.5c-1.579 1.3-2.745.966-3.5-1 5.609-5.06 12.109-8.726 19.5-11 .667-.667.667-1.333 0-2a84.01 84.01 0 0 1-7.5-8c.789-.283 1.456-.783 2-1.5-1-2.333-2.667-4-5-5l1-1c-1.256-.417-1.923-1.25-2-2.5a73.609 73.609 0 0 1 10 5.5c18.67 18.366 20.837 38.532 6.5 60.5l-62 62a36.805 36.805 0 0 0-5.5 12.5l1 1.5a72.496 72.496 0 0 0 10-5.5 2633.91 2633.91 0 0 0 61.5-60.5 60.147 60.147 0 0 0 10-15c8.108-20.586 5.441-39.586-8-57-18.402-18.847-39.569-22.847-63.5-12-.817-3.056-2.817-4.723-6-5 1.6-1.144 3.267-2.311 5-3.5 31.733-11.193 57.233-3.027 76.5 24.5 12.347 23.482 11.014 46.149-4 68L183.5 246a72.387 72.387 0 0 1-18.5 10.5c-.002 3.477.832 6.81 2.5 10a95.241 95.241 0 0 0 20-10.5 3298.804 3298.804 0 0 0 49-47.5Z" style="opacity:1"/><path fill="#101010" d="M232.5 150.5c.876-.131 1.543.202 2 1a44.757 44.757 0 0 1-6.5 14 3030.613 3030.613 0 0 0-65 66c-12.143 27.187-5.309 48.02 20.5 62.5 27.854 6.99 47.02-2.843 57.5-29.5 3.69-15.243.19-28.576-10.5-40 2-2.667 4.333-5 7-7 13.693 14.432 18.193 31.432 13.5 51-8.535 22.848-25.035 35.682-49.5 38.5-23.522.318-40.356-10.182-50.5-31.5-7.538-19.631-5.205-37.965 7-55l58.5-58.5a230.945 230.945 0 0 1 16-11.5Z" style="opacity:1"/><path fill="#101010" d="M243.5 212.5a25.53 25.53 0 0 1 5-6.5c1-.667 2-.667 3 0 21.927 24.74 25.427 51.907 10.5 81.5-22.786 34.651-53.62 44.984-92.5 31-12.476-6.305-22.643-15.305-30.5-27-15.666-29.016-13.666-56.682 6-83a4867.38 4867.38 0 0 0 58.5-59c8.253-7.074 17.419-12.741 27.5-17a3.943 3.943 0 0 1 2 1c1.31 3.003 1.476 6.003.5 9a106.143 106.143 0 0 0-17 9.5L152 216.5a129.073 129.073 0 0 0-8 13c-11.272 31.18-3.439 56.346 23.5 75.5 31.443 16.644 58.609 11.477 81.5-15.5 16.749-27.092 14.916-52.759-5.5-77Z" style="opacity:1"/><path fill="#0f0f0f" d="M198.5 255.5a367.345 367.345 0 0 0 18 12.5c3.703 2.354 7.703 3.854 12 4.5-3.284 7.439-8.951 12.272-17 14.5-16.984 4.95-30.65.45-41-13.5 10.715-4.014 20.048-10.014 28-18Z" style="opacity:1"/><path fill="#111" d="M211.5 242.5c6.573 6.057 14.073 10.724 22.5 14 .423 3.642-.411 6.976-2.5 10-9.899-3.195-18.399-8.528-25.5-16-.667-.667-.667-1.333 0-2a46.081 46.081 0 0 0 5.5-6Z" style="opacity:1"/><path fill="#121212" d="M223.5 230.5c5.506 3.289 8.84 8.289 10 15l-1 2a47.268 47.268 0 0 1-15-10.5 28.85 28.85 0 0 0 6-6.5Z" style="opacity:1"/></svg>
