<svg xmlns="http://www.w3.org/2000/svg" fill="none" viewBox="36 36 128 128"><g clip-path="url(#a)" transform="translate(36)"><path fill="url(#b)" d="M128 131.839c.006-6.397-2.898-12.535-8.073-17.066s-12.198-7.085-19.529-7.101H69.793A99 99 0 0 1 69.48 100c0-2.638-.121-5.17-.293-7.672h31.211c7.267-.102 14.197-2.692 19.295-7.213 5.098-4.52 7.955-10.609 7.955-16.951s-2.857-12.43-7.955-16.951c-5.098-4.52-12.028-7.111-19.295-7.213H27.253c-7.267.102-14.198 2.692-19.296 7.213C2.86 55.733.002 61.822.002 68.164s2.857 12.43 7.955 16.951c5.098 4.52 12.029 7.111 19.296 7.213L56 93c2 0 2.17 4.362 2.17 7s.122 5.171.293 7.672h-31.21c-7.267.102-14.198 2.692-19.296 7.213-5.098 4.52-7.955 10.609-7.955 16.951s2.857 12.431 7.955 16.951 12.029 7.111 19.296 7.213h73.145c7.329-.016 14.352-2.57 19.527-7.099 5.175-4.53 8.079-10.666 8.075-17.062m-11.309-63.678c.002 3.775-1.713 7.397-4.767 10.07s-7.2 4.181-11.526 4.191H67.99c-1.174-7.07-3.411-13.974-6.653-20.533a36.7 36.7 0 0 0-5.448-7.965h44.509c4.321.01 8.462 1.514 11.516 4.182s4.771 6.284 4.777 10.055M27.253 82.422c-4.335 0-8.492-1.502-11.556-4.177-3.065-2.674-4.787-6.302-4.787-10.084s1.722-7.41 4.787-10.084c3.064-2.675 7.221-4.177 11.556-4.177h7.337c6.482 0 12.621 4.48 16.443 11.99a63.7 63.7 0 0 1 5.54 16.532zM10.96 131.84c-.002-3.775 1.712-7.397 4.767-10.071 3.054-2.673 7.2-4.18 11.526-4.19H59.66c1.174 7.07 3.41 13.973 6.653 20.533a36.7 36.7 0 0 0 5.448 7.965h-44.51c-4.32-.01-8.461-1.514-11.515-4.182s-4.772-6.284-4.777-10.055Zm65.7 2.271a63.7 63.7 0 0 1-5.54-16.532h29.278c4.334 0 8.491 1.502 11.556 4.177s4.787 6.302 4.787 10.084-1.722 7.41-4.787 10.084c-3.065 2.675-7.222 4.177-11.556 4.177H93.06c-6.453 0-12.592-4.48-16.4-11.99"/><path fill="url(#c)" d="M128 68.16c.006 6.398-2.898 12.536-8.073 17.067-5.175 4.53-12.199 7.084-19.53 7.101H69.792A99 99 0 0 0 69.48 100c0 2.638-.121 5.171-.293 7.672h31.211c7.268.102 14.198 2.692 19.296 7.213 5.098 4.52 7.955 10.609 7.955 16.951s-2.857 12.431-7.955 16.951-12.028 7.111-19.296 7.213H27.251c-7.267-.102-14.198-2.692-19.296-7.213C2.857 144.267 0 138.178 0 131.836s2.857-12.431 7.955-16.951 12.029-7.111 19.296-7.213L56 107c2 0 2.17-4.362 2.17-7s.122-5.17.293-7.672h-31.21c-7.268-.102-14.199-2.692-19.297-7.213C2.857 80.595 0 74.506 0 68.164s2.857-12.43 7.955-16.951c5.098-4.52 12.029-7.111 19.296-7.213h73.146c7.33.017 14.353 2.57 19.528 7.1s8.079 10.665 8.075 17.06m-11.309 63.679c.002-3.775-1.713-7.397-4.767-10.071s-7.2-4.18-11.527-4.19H67.988c-1.174 7.07-3.41 13.973-6.652 20.533a36.7 36.7 0 0 1-5.448 7.965h44.509c4.322-.01 8.463-1.514 11.517-4.182 3.053-2.668 4.771-6.284 4.777-10.055m-89.44-14.261c-4.335 0-8.492 1.502-11.557 4.177s-4.786 6.302-4.786 10.084 1.722 7.41 4.787 10.084c3.064 2.675 7.221 4.177 11.556 4.177h7.338c6.481 0 12.62-4.48 16.443-11.99a63.7 63.7 0 0 0 5.54-16.532zM10.957 68.161c-.001 3.775 1.713 7.397 4.768 10.07s7.2 4.181 11.526 4.191H59.66c1.174-7.07 3.41-13.974 6.653-20.533a36.7 36.7 0 0 1 5.448-7.965H27.25c-4.322.01-8.463 1.514-11.516 4.182s-4.772 6.284-4.777 10.055M76.66 65.89a63.7 63.7 0 0 0-5.54 16.532h29.278c4.335 0 8.492-1.502 11.557-4.177s4.787-6.302 4.787-10.084-1.722-7.41-4.787-10.084c-3.065-2.675-7.222-4.177-11.557-4.177H93.06c-6.453 0-12.593 4.48-16.4 11.99" opacity=".8"/></g><defs><linearGradient id="b" x1="9.538" x2="106.116" y1="51.093" y2="161.468" gradientUnits="userSpaceOnUse"><stop stop-color="#8E59FF"/><stop offset="1" stop-color="#6888F9"/></linearGradient><linearGradient id="c" x1="9.536" x2="106.114" y1="148.907" y2="38.531" gradientUnits="userSpaceOnUse"><stop stop-color="#8E59FF"/><stop offset="1" stop-color="#6888F9"/></linearGradient><clipPath id="a"><path fill="#fff" d="M128 44v112H0V44z"/></clipPath></defs></svg>