<svg width="32" height="32" viewBox="0 0 32 32" fill="none" xmlns="http://www.w3.org/2000/svg">
<path fill-rule="evenodd" clip-rule="evenodd" d="M0 16.0008C0 7.16361 7.14257 0 15.9523 0C24.7635 0 31.9061 7.16361 31.9053 16C31.9053 19.13 31.0089 22.0497 29.4603 24.5153C29.0333 25.1946 28.5577 25.8394 28.0365 26.4455L15.9734 14.3469L5.60024 24.7499L3.8876 26.4676C3.36485 25.863 2.88764 25.219 2.46065 24.5405C0.901847 22.0702 0 19.141 0 16.0008ZM27.6315 22.2355L27.7775 21.9427L27.7783 21.9435C28.6935 20.1124 29.177 18.057 29.177 16.0008C29.177 8.68765 23.2447 2.73792 15.953 2.73792C8.66134 2.73792 2.72987 8.68765 2.72987 16.0008C2.72987 18.068 3.21808 20.1321 4.1419 21.9702L4.28868 22.2615L15.9734 10.5423L27.6315 22.2355ZM15.9529 32C19.9245 32 23.5578 30.5445 26.3504 28.1356V28.1348L15.9741 17.7279L5.57812 28.1537C8.36686 30.5523 11.9813 32 15.9529 32Z" fill="url(#paint0_linear_6279_2940)"/>
<defs>
<linearGradient id="paint0_linear_6279_2940" x1="15.9526" y1="-2.02393e-09" x2="16" y2="32" gradientUnits="userSpaceOnUse">
<stop stop-color="#169E00"/>
<stop offset="0.49" stop-color="#00C537"/>
<stop offset="1" stop-color="#00B1C9"/>
</linearGradient>
</defs>
</svg>
