<svg xmlns="http://www.w3.org/2000/svg" fill="none" viewBox="0 10 46 49"><path fill="url(#a)" d="M19 14a4 4 0 0 1 8 0v24a4 4 0 0 1-8 0z"/><path fill="url(#b)" d="M0 14a4 4 0 0 1 8 0v37h20a4 4 0 0 1 0 8H4a4 4 0 0 1-4-4z"/><path fill="url(#c)" d="M42 10c-2 0-4 2-4 4v24a4 4 0 0 0 8 0V14c0-2-2-4-4-4"/><defs><linearGradient id="a" x1="0" x2="46" y1="34.5" y2="10" gradientUnits="userSpaceOnUse"><stop stop-color="#4400E2"/><stop offset=".4" stop-color="#F94E6C"/><stop offset="1" stop-color="#FFCB00"/></linearGradient><linearGradient id="b" x1="0" x2="46" y1="34.5" y2="10" gradientUnits="userSpaceOnUse"><stop stop-color="#4400E2"/><stop offset=".4" stop-color="#F94E6C"/><stop offset="1" stop-color="#FFCB00"/></linearGradient><linearGradient id="c" x1="0" x2="46" y1="34.5" y2="10" gradientUnits="userSpaceOnUse"><stop stop-color="#4400E2"/><stop offset=".4" stop-color="#F94E6C"/><stop offset="1" stop-color="#FFCB00"/></linearGradient></defs></svg>