<svg xmlns="http://www.w3.org/2000/svg" width="400" height="400"><path fill="#050505" fill-rule="evenodd" d="M106 103.8c0 6.7 3 21.5 6 29.2a87.7 87.7 0 0 0 22.4 33.5c5.5 5.5 11.8 10.9 13.9 12l3.7 2 17-17c9.4-9.3 17-17.2 17-17.5 0-.3-3.3-2-7.3-4a46 46 0 0 1-25.5-34.2l-1.5-7.8H106v3.8m71-1.3a23.2 23.2 0 0 0 38.4 14.7c3.2-3 7.6-11.6 7.6-15V100h-46v2.5m70.7-1.8c-.4.3-.7 2-.7 3.9 0 4.4-3.2 14.4-6.5 20.1-1.7 3-23.8 25.9-59 61.3-31 31-57.7 58.7-59.5 61.3a100.7 100.7 0 0 0-15.6 44.8l-.7 7.9h46l1.6-8c3-15.7 1.5-13.8 63.8-76.5 61-61.4 63.6-64.3 70-80.8 3.4-9 5.5-17.8 6.5-28l.7-6.7h-23a222 222 0 0 0-23.6.7M230.3 237l-17 17 5.4 2.4c15.7 7.3 26 21 28.1 37.6l.7 5.5 23.3.3 23.2.2v-2.8c0-5.9-3.3-22-6.2-29.8a98 98 0 0 0-31.7-42.6 35 35 0 0 0-7.6-4.8c-.6 0-8.8 7.6-18.2 17m-39.8 41.9c-7.2 3.3-13.5 12-13.5 18.6v2.5h46v-2.3c0-3.3-4.4-11.8-7.6-14.9-6.3-5.8-17-7.5-24.9-3.9"/></svg>
