<svg xmlns="http://www.w3.org/2000/svg" fill="none" class="h-[46px] w-[46px]" viewBox="0 0 46 46"><rect width="46" height="46" fill="#0D0C00" rx="23"/><path stroke="#FFDA00" stroke-width="1.3" d="M35.3 31.2c-1.3 2.3-3.1 4-5.5 5.2a19.2 19.2 0 0 1-8.5 1.7h-7.7c-.4 0-.6 0-.8-.2a2 2 0 0 1-.9-.9l-.1-.8V9.7l.1-.8c.2-.4.5-.7 1-.9l.7-.1H22c3.3 0 6.1.5 8.4 1.6 2.2 1.1 4 2.7 5.1 4.8 1.2 2.2 1.8 4.8 1.8 8 0 3.6-.7 6.5-2 8.9Z"/><mask id="a" width="27" height="32" x="11" y="7" maskUnits="userSpaceOnUse" style="mask-type:alpha"><path fill="#F9D63C" d="M38 22.3q0 5.5-2.1 9.2-2 3.7-5.8 5.5t-8.8 1.8h-6c-1.4 0-2.2 0-2.8-.3a2.7 2.7 0 0 1-1.2-1.2c-.2-.5-.2-1.3-.2-2.8v-23c0-1.6 0-2.3.2-2.9.3-.5.7-1 1.2-1.2.6-.3 1.4-.3 2.9-.3H22q5.1 0 8.7 1.8 3.5 1.7 5.4 5.1t1.9 8.3"/></mask><g mask="url(#a)"><ellipse cx="22.4" cy="20.4" fill="#FFDA00" rx="7.3" ry="6.6"/><path fill="#FFDA00" d="M32 33.4c0 5.2-5.3 7.6-11.7 7.6-9.7 0-11.8-3.3-11.5-7.6.4-4.5 5-7.7 11.5-7.7S32 28.4 32 33.4"/><path fill="#F97429" d="M31.2 22.5a8 8 0 0 1-3.4-3.3c.2 4-4 4-3 4.8s4.4 1.8 7.4 1.1 1.1-1.6-1-2.6"/><path fill="#0D0C00" fill-rule="evenodd" d="M21 17.8c-.2-.6.3-1 .9-.8l5.5 1.6c.4.1.6.5.5 1l-.3 1.6a.8.8 0 0 1-.8.7c-1.2 0-3.7-.2-4.6-1.3-.7-.7-1.1-2-1.3-2.8m12.5 1.4c0-.5-.4-.9-.8-.8l-2.6.4a.8.8 0 0 0-.7.8v1.6c0 .3.3.6.6.7.7 0 1.8 0 2.5-.7.6-.6.9-1.4 1-2" clip-rule="evenodd"/><path fill="#7B7B7B" fill-rule="evenodd" d="M27.5 18.6c.6.2 1 .6 1.6.5l.7-.3s-.3 1.6-.3 2.9c-.4-.3-.1-1.3-.5-1.3-.7 0-1.2 1-1.7 1.3.7-1.6.4-2.2.2-3" clip-rule="evenodd"/><path fill="#F97429" fill-rule="evenodd" d="M27 22c-.5.6-1.1 1-1.6 1.2-.6.3-1 .5-.5.8 1 1 4.3 1.8 7.3 1.1s1.1-1.6-1-2.6c-1-.4-1.7-1-2.3-1.7V22z" clip-rule="evenodd"/><path fill="#0D0C00" d="M30 23.2h-.7c-.2 0-.4-.2-.4-.5.1-.1.4-.2.7 0s.5.3.4.5" opacity=".2"/></g></svg>