<svg xmlns="http://www.w3.org/2000/svg" xml:space="preserve" viewBox="0 0.02 125 156.96"><path d="M0 49v59c0 10 5 19 14 24l38 22a20 20 0 0 0 21 0l38-22a27 27 0 0 0 14-24V49c0-10-5-19-14-24L73 3a20 20 0 0 0-21 0L14 25A27 27 0 0 0 0 49" style="fill:#dc2626"/><path d="m110 77-14-5a16 16 0 0 1-11-12l-6-29a2 2 0 0 0-1-2l-2 2-6 29c-1 6-5 10-10 12l-14 5a2 2 0 0 0-1 2l1 1 14 5a16 16 0 0 1 10 12l6 29 2 2 1-2 6-29c2-6 5-10 11-12l14-5a2 2 0 0 0 1-2zM33 50l5 1a5 5 0 0 1 4 4l2 11a1 1 0 0 0 1 0l2-11a6 6 0 0 1 4-4l5-1v-1a1 1 0 0 0 0-1l-5-1a6 6 0 0 1-4-4l-2-11a1 1 0 0 0-1 0l-2 11a6 6 0 0 1-4 4l-5 1zm12 51-7-2a7 7 0 0 1-5-5l-2-15a1 1 0 0 0-1 0h-1l-3 15a7 7 0 0 1-5 5l-6 2-1 1 1 1 6 2a7 7 0 0 1 5 6l3 14h2l2-14a7 7 0 0 1 5-6l7-2v-1a1 1 0 0 0 0-1" style="fill:#fffdf7"/></svg>