<?xml version="1.0" encoding="UTF-8"?>
<!DOCTYPE svg PUBLIC "-//W3C//DTD SVG 1.1//EN" "http://www.w3.org/Graphics/SVG/1.1/DTD/svg11.dtd">
<svg xmlns="http://www.w3.org/2000/svg" version="1.1" width="2362px" height="2362px" style="shape-rendering:geometricPrecision; text-rendering:geometricPrecision; image-rendering:optimizeQuality; fill-rule:evenodd; clip-rule:evenodd" xmlns:xlink="http://www.w3.org/1999/xlink">
<g><path style="opacity:0.998" fill="#04173c" d="M 1180.5,-0.5 C 1181.17,-0.5 1181.83,-0.5 1182.5,-0.5C 1515.54,567.742 1848.21,1136.24 2180.5,1705C 2177.73,1709.44 2174.56,1713.61 2171,1717.5C 1980.25,1931.74 1790.09,2146.41 1600.5,2361.5C 1589.17,2361.5 1577.83,2361.5 1566.5,2361.5C 1486.83,2360.17 1407.17,2360.17 1327.5,2361.5C 1256.17,2361.5 1184.83,2361.5 1113.5,2361.5C 1320.26,2129.01 1527.26,1896.68 1734.5,1664.5C 1479.47,1227.96 1224.63,791.296 970,354.5C 969.448,351.581 970.115,348.914 972,346.5C 1041.75,230.93 1111.25,115.263 1180.5,-0.5 Z"/></g>
<g><path style="opacity:0.998" fill="#04173c" d="M 965.5,2361.5 C 893.167,2361.5 820.833,2361.5 748.5,2361.5C 560.542,2146.37 372.375,1931.37 184,1716.5C 182.596,1714.61 181.43,1712.61 180.5,1710.5C 420.726,1300.78 661.56,891.449 903,482.5C 973.739,594.969 1044.24,707.636 1114.5,820.5C 951.085,1099 787.419,1377.33 623.5,1655.5C 725.315,1769.15 827.315,1882.65 929.5,1996C 1045.5,1996.17 1161.5,1996.67 1277.5,1997.5C 1173.1,2118.56 1069.1,2239.89 965.5,2361.5 Z"/></g>
</svg>
