<svg xmlns="http://www.w3.org/2000/svg" width="945" height="945"><path d="M0 0h945v945H0z"/><path fill="#FEFEFE" d="M0 0h945v945H0zm422 7-1.945.236C399.78 9.708 379.83 13.03 360 18l-2.897.722C319.787 28.158 282.52 41.994 249 61l-2.704 1.522c-25.805 14.59-49.642 31.182-72.502 50.009a456 456 0 0 1-4.927 3.973 160 160 0 0 0-14.762 13.387c-1.927 1.93-3.904 3.716-5.98 5.484-7.301 6.281-14.075 13.22-20.324 20.543-2.174 2.514-4.425 4.95-6.676 7.394a297 297 0 0 0-12.81 15.039 632 632 0 0 1-2.814 3.502C90.252 200.73 77.203 221.05 65 242l-2.375 4.035C55.901 256.386 55.901 256.386 53 268h-2c-8.09 17.844-8.09 17.844-15.027 36.152-.908 2.659-1.909 5.248-2.973 7.848-6.995 17.234-11.841 34.852-16 52.938-.26 1.128-.52 2.257-.79 3.42a3558 3558 0 0 0-1.523 6.641q-.614 2.686-1.25 5.367c-1.51 6.468-2.482 13.001-3.437 19.572l-.529 3.614c-3.273 22.69-4.682 45.033-4.658 67.948l.001 3.238c.024 15.2.328 30.161 2.186 45.262l.675 5.861c2.103 18.217 4.62 36.128 9.24 53.905.762 2.94 1.48 5.886 2.17 8.843 5.323 22.538 12.993 44.618 22.457 65.751 1.608 3.608 3.037 7.201 4.27 10.952 4.678 13.212 12.586 25.49 19.376 37.688l1.726 3.108c5.8 10.344 12.187 20.207 19.024 29.892l1.863 2.646q1.806 2.56 3.616 5.118 1.91 2.7 3.81 5.408C103.13 760.27 111.877 770.882 121 781l1.926 2.168c4.708 5.277 9.503 10.47 14.324 15.644.59.635 1.18 1.27 1.79 1.923A983 983 0 0 0 144 806l2.734 2.887c2.162 2.31 2.162 2.31 5.266 3.113l1 3c1.52 1.58 1.52 1.58 3.438 3.125 4.193 3.544 8.235 7.229 12.265 10.957 2.129 1.938 2.129 1.938 4.281 2.867 2.871 1.497 4.739 3.754 7.016 6.051 2.48 2.082 5.046 4.043 7.625 6l2.245 1.707c27.771 20.923 57.716 39.193 89.69 52.928 3.223 1.385 6.397 2.798 9.502 4.428 8.93 4.593 18.607 7.94 28.145 11.015 2.61.862 5.164 1.814 7.73 2.797 30.724 11.204 63.625 16.73 95.938 20.875l2.711.35c16.248 1.967 32.508 2.138 48.851 2.15l3.398.004c18.896-.005 37.419-.894 56.165-3.254l2.786-.324c20.368-2.39 40.573-7.473 60.464-12.364l2.21-.538c5.229-1.323 10.315-2.989 15.421-4.72a755 755 0 0 1 9.154-3.019l3.014-.986a1365 1365 0 0 1 6.039-1.961 152 152 0 0 0 17.1-6.778c2.95-1.375 5.926-2.676 8.914-3.966C684.933 890.247 710.945 876.078 736 859l1.698-1.147a409.6 409.6 0 0 0 51.407-41.15c3.38-3.157 6.861-6.182 10.383-9.18 1.747-1.402 1.747-1.402 1.512-3.523l1.8-.8c2.286-1.247 3.653-2.486 5.407-4.395l1.766-1.907 1.84-2.023 1.907-2.074c4.164-4.54 8.286-9.11 12.28-13.801l2.402-2.77C838.621 764.381 848.255 751.98 857 739l1.127-1.662C876.95 709.558 893.404 680.132 906 649l1.373-3.315c4.011-9.8 7.445-19.732 10.69-29.81l.796-2.463c3.716-11.529 7.17-23.03 9.62-34.903a636 636 0 0 1 1.814-8.364c2.842-12.986 5.123-25.948 6.707-39.145l.415-3.208c4.374-34.588 4.916-71.173.585-105.792l-.243-1.964c-2.346-18.872-5.219-37.55-9.757-56.036l-.699-2.879C923.126 344.14 918.134 327.378 912 311l-1.309-3.508a459 459 0 0 0-13.792-32.571 1266 1266 0 0 1-3-6.476c-4.532-9.77-9.303-19.233-14.899-28.445l-1.486-2.447C868.84 223.327 859.93 209.388 850 196l-1.393-1.894c-5.313-7.222-10.6-14.359-16.677-20.965-2.254-2.5-4.372-5.09-6.492-7.703-6.44-8.231-6.44-8.231-13.938-15.438-2.193-1.754-3.715-3.365-5.5-5.5-4.692-5.49-10.06-10.233-15.412-15.064a811 811 0 0 1-4.264-3.89c-5.024-4.582-10.184-8.95-15.472-13.226-2.982-2.426-5.916-4.902-8.852-7.382-5.496-4.58-11.144-8.832-17-12.938l-1.749-1.237C732.781 83.366 722.047 76.503 711 70l-2.669-1.571C694.231 60.18 679.841 52.816 665 46l-2.836-1.316c-5.303-2.444-10.609-4.706-16.101-6.684-4.868-1.784-9.671-3.645-14.438-5.687a108 108 0 0 0-12.883-4.52 158 158 0 0 1-5.797-1.805c-21.557-7.1-43.833-12.308-66.282-15.583-2.792-.425-5.57-.914-8.35-1.405-7.32-1.222-14.673-1.984-22.063-2.625l-2.284-.198C483.666 3.644 452.212 3.296 422 7"/><path fill="#E61872" d="M446 373c19.42-.21 38.838-.369 58.258-.466 9.018-.047 18.035-.11 27.052-.213q11.79-.136 23.582-.168c4.162-.012 8.322-.039 12.483-.105q5.88-.089 11.76-.066 2.153-.003 4.305-.055c10.82-.248 10.82-.248 15.163 3.05 2.022 2.248 3.73 4.504 5.397 7.023l2.25 2.715 1.75 2.223 1.996 2.523L612 392q2.03 2.532 4.063 5.063c2.402 3 4.779 6.017 7.125 9.062 3.834 4.953 7.804 9.794 11.763 14.648a863 863 0 0 1 10.799 13.54 768 768 0 0 0 12.133 15.105c3.412 4.162 6.762 8.373 10.117 12.582l4 5 10.012 12.516q1.94 2.423 3.883 4.843a1300 1300 0 0 1 9.925 12.518c6.155 7.867 12.44 15.623 18.75 23.366 5.458 6.708 10.823 13.49 16.147 20.304a510 510 0 0 0 7.15 8.969C744.172 557.27 749.33 565.17 754 574l1.46 2.61c3.66 6.784 5.728 13.92 7.54 21.39l.546 2.205c1.579 6.966 1.8 13.732 1.766 20.857l-.012 3.6c-.176 13.775-2.232 26.464-7.3 39.338l-.718 1.854C751.62 680.275 743.77 691.78 733 703c-.72.77-1.439 1.542-2.18 2.336-4.783 4.988-9.864 9.087-15.535 13.035-2.338 1.572-2.338 1.572-4.285 3.629a162 162 0 0 1-4.832 2.086c-2.47 1.041-4.873 2.2-7.293 3.351-18.143 8.198-36.847 10.026-56.503 9.924q-2.87.002-5.739.008c-5.204.006-10.408-.006-15.612-.02-5.632-.014-11.263-.01-16.895-.007q-14.61.001-29.22-.025a29743 29743 0 0 0-42.245-.036q-34.275-.01-68.552-.055a99209 99209 0 0 0-89.276-.074c-57.61-.031-115.222-.087-172.833-.152V618h439c-4.256-5.675-8.557-11.094-13.207-16.418-3.594-4.174-3.594-4.174-4.809-6.66-1.452-2.835-3.722-4.697-5.984-6.922a227 227 0 0 1-4.437-5.75c-4.02-5.316-8.185-10.494-12.438-15.625-8.424-10.172-16.669-20.478-24.812-30.875a790 790 0 0 0-11.883-14.793c-3.466-4.218-6.905-8.457-10.345-12.696a3642 3642 0 0 0-8.456-10.386c-5.922-7.25-11.753-14.549-17.41-22.008-2.337-3.019-4.763-5.944-7.219-8.867a3580 3580 0 0 1-6.617-8.086 1901 1901 0 0 0-4.578-5.578 1002 1002 0 0 1-12.618-15.649l-1.382-1.741c-2.069-2.63-3.994-5.238-5.817-8.051-2.08-3.029-4.373-5.319-6.988-7.895-2.328-2.683-4.57-5.434-6.812-8.187l-1.886-2.304A1340 1340 0 0 1 460 393l-2.89-3.61q-1.525-1.913-3.048-3.827l-1.47-1.831c-2.034-2.567-3.548-4.6-4.592-7.732h-2z"/><path fill="#E61872" d="M323.425 197.76q2.874-.002 5.746-.006c5.22-.004 10.44.004 15.66.014 5.646.009 11.291.006 16.936.004q14.65-.001 29.3.017c14.12.016 28.241.021 42.362.024q34.37.007 68.738.036 33.375.029 66.751.041H571l20.689.009c57.77.02 115.541.057 173.312.101v118H326v3l1.746.703c2.818 1.622 4.299 3.497 6.316 6.047l2.356 2.957L339 332l2.926 3.7q4.057 5.134 8.074 10.3l1.82 2.285C353 350 353 350 353 352l3 1c1.367 1.504 1.367 1.504 2.875 3.562 3.375 4.488 6.88 8.846 10.437 13.188 3.954 4.84 7.843 9.713 11.625 14.687 5.119 6.713 10.478 13.216 15.864 19.715l1.635 1.976a274 274 0 0 0 3.093 3.638C405 413.796 405 413.796 405 416l3 1a180 180 0 0 1 4 6q2.4 2.969 4.875 5.875c2.78 3.289 5.526 6.58 8.062 10.062 3.11 4.24 6.539 8.204 9.952 12.2a279 279 0 0 1 9.607 11.93c1.423 1.829 2.913 3.567 4.441 5.308C451 471 451 471 451 474l1.695.621c3.155 1.888 5.016 4.542 7.18 7.441 3.22 4.223 6.477 8.397 9.887 12.47l1.912 2.284a903 903 0 0 0 3.73 4.409c2.953 3.527 4.95 6.445 6.596 10.775l3 1c1.473 1.61 1.473 1.61 3.062 3.75l1.875 2.484L492 522a640 640 0 0 0 19.002 23.912C522 559.134 522 559.134 522 561q-19.591.2-39.182.391l-18.21.182-3.537.036-7.05.072q-8.773.092-17.545.143l-6.943.043-3.428.021c-6.645.052-13.282.186-19.924.397-4.078.126-8.157.214-12.236.298q-2.828.072-5.654.2c-14.258.643-14.258.643-19.382-2.95-2.287-2.503-4.122-4.96-5.909-7.833l-2.355-3.004-1.833-2.559c-3.797-5.162-7.786-10.127-11.875-15.062l-1.847-2.23-3.53-4.258c-4.62-5.59-9.097-11.294-13.57-17.002l-1.428-1.823-1.42-1.812c-3.62-4.61-7.313-9.156-11.037-13.684a873 873 0 0 1-12.593-15.742l-2.7-3.449-1.38-1.765c-4.237-5.398-8.566-10.72-12.929-16.017-2.49-3.04-4.888-6.093-7.136-9.316-1.907-2.72-4.01-4.93-6.367-7.277-2.083-2.599-4.067-5.27-6.063-7.938a351 351 0 0 0-15.597-19.23C247 407 247 407 244.94 403.887c-1.803-2.681-3.647-4.636-5.941-6.887a281 281 0 0 1-4.875-6.25l-1.33-1.746A2330 2330 0 0 1 229 384l-1.844-2.418C219 370.825 219 370.825 219 368l-3-1c-3.486-5.025-5.209-11.217-7-17l-1.262-3.918-1.363-4.27-.662-2.052c-2.847-9.036-2.954-17.762-2.963-27.135l-.003-2.185c.01-10.452.413-20.319 3.253-30.44l.984-3.691c1.457-5.104 2.701-9.133 6.016-13.309.69-1.645 1.38-3.29 2.055-4.941 1.94-4.225 4.483-8.123 6.945-12.059l1.207-1.973c.872-1.381 1.824-2.712 2.793-4.027h2l.687-1.688c1.687-2.97 3.843-4.957 6.313-7.312l2.687-2.813C240 226 240 226 242 226l.754-1.8c1.427-2.519 2.85-3.697 5.183-5.388l2.09-1.542C252 216 252 216 255 215l1.3-1.352c16.451-15.958 45.93-15.961 67.125-15.889"/><path fill="#B31D5D" d="M202 618h439v1c-11.676.807-23.287 1.152-34.99 1.158l-5.24.015q-7.125.02-14.251.028-7.713.013-15.425.034-13.336.032-26.674.056-19.283.035-38.565.08-31.29.071-62.58.132-30.383.059-60.765.125l-3.789.008-18.815.041q-77.952.17-155.906.323v114h463v1c-4.277 1.046-8.423 1.139-12.8 1.123l-2.37.004q-3.947.002-7.895-.007l-5.705.003q-7.85.002-15.7-.007-8.461-.005-16.922-.002-14.664 0-29.327-.008-21.2-.011-42.401-.012-34.395-.004-68.79-.019-33.416-.014-66.831-.02h-2.081l-20.686-.004c-57.83-.01-115.661-.03-173.492-.051z"/><path fill="#150006" d="M327 317h438v1c-5.268.738-10.321 1.122-15.653 1.107l-2.213-.001q-3.652-.006-7.307-.024l-5.304-.01q-7.275-.015-14.551-.04-7.851-.024-15.702-.04-13.598-.031-27.194-.071a73607 73607 0 0 0-39.32-.105q-31.896-.078-63.794-.168a254874 254874 0 0 0-84.99-.224Q409.487 318.22 330 318v2l3 1 1 5c-3.126-2.962-5.048-5.096-7-9"/><path fill="#42031D" d="M519 556h5l-2 7H371v-3l1 1c2.602.096 5.178.127 7.78.115h2.497q4.166-.005 8.332-.021l5.927-.011c23.72-.055 47.44-.302 71.16-.547q9.063-.091 18.128-.18Q503.412 560.18 521 560z"/><path fill="#E11C6F" d="M447 374h137v1H452l-1 5a91 91 0 0 1-4-4z"/><path fill="#350215" d="M206 277c1.254 3.762.522 5.347-.437 9.188-1.892 8.665-1.846 17.365-1.813 26.187l.003 2.105c.025 7.884.244 15.692 1.247 23.52l-2-1c-.625-3.062-.625-3.062-1-6h-1q-.037-7.663-.055-15.326-.008-2.609-.02-5.218c-.013-2.494-.018-4.989-.023-7.483l-.015-2.37c0-1.869.051-3.736.113-5.603l1-1c.16-1.539.277-3.081.375-4.625.414-4.719 1.516-8.156 3.625-12.375"/><path fill="#CF246C" d="M517 555a283 283 0 0 1 5 5v1h-73v-1l68-1z"/><path fill="#C82469" d="M206 280h1q.039 2.406.063 4.813l.035 2.707C207 290 207 290 206 293c-1.193 9.047-1.122 18.143-1.062 27.25q.008 2.014.013 4.027.018 4.862.049 9.723h-1c-1.35-7.095-1.24-14.183-1.25-21.375l-.007-2.172c-.013-10.417.466-20.354 3.257-30.453"/><path fill="#240211" d="M750 680h1c.348 4.176-.338 5.826-3 9l-.875 1.938c-2.62 4.803-7.348 8.148-11.477 11.636-1.982 1.715-3.831 3.537-5.648 5.426l-2-1 1.68-1.645 2.195-2.168 2.18-2.144c2.099-2.087 2.099-2.087 3.945-5.043h2l.746-1.61c1.584-3.018 3.428-5.802 5.317-8.64l2.16-3.266z"/><path fill="#D6226E" d="M447 374h57v1h-52l-1 5a91 91 0 0 1-4-4z"/><path fill="#C41F66" d="M219 251c2 2 2 2 2 5h-3l-1 4h-2l.25 1.938c-.505 6.187-3.927 11.912-7.25 17.062-1.375-2.75-.63-3.97.25-6.875l.766-2.617c1.014-2.585 2.281-4.335 3.984-6.508a589 589 0 0 0 3-7c.968-1.685 1.957-3.36 3-5"/><path fill="#CE1B69" d="M754 576c2.805 1.402 3.044 3.06 4.188 5.938l1.105 2.714C760 587 760 587 759 589l-2-1-1 2h-2c-2.045-4.09-2.057-6.579-1-11z"/><path fill="#D71C6E" d="M528 476h4l.313 1.875c.562 2.49.562 2.49 3.687 4.125l2-1v3h2v2h2l-1 6c-4.856-4.553-9.021-9.669-13-15z"/><path fill="#D71D6E" d="M639 614h3v2h2v5l-6-1v2h-6v-2h-6v-1h15z"/><path fill="#1D010D" d="m367 363 .688 1.938c1.165 2.334 1.165 2.334 3.937 2.812L374 368l-.125 2.375c-.162 2.786-.162 2.786 2.125 4.625l-1 3-11-13z"/><path fill="#2D0213" d="M232 388c3.255 3.165 6.32 6.328 9 10v2l3 1 1 3h-2c-1.232-1.432-2.457-2.87-3.629-4.352-1.51-1.886-1.51-1.886-4.121-4.21-2.395-2.595-2.953-3.976-3.25-7.438"/><path fill="#B6185B" d="m275 204 2 1-2.875 1.813c-3.265 2.003-3.265 2.003-5.125 5.187-2.164.293-2.164.293-4.625.188l-2.477-.083L260 212c1.449-2.898 3.444-3.274 6.375-4.562l2.96-1.317C272 205 272 205 275 204m-10 8 1 2-2-1z"/><path fill="#BB1B61" d="M333 326c4.541 4.266 8.247 9.036 12 14l-4 1-2-7-4-1z"/><path fill="#1B010B" d="m339 326 2 3-1 2h2l3 7-2 1a791 791 0 0 1-3.5-4.375l-1.969-2.46C336 330 336 330 336 328z"/><path fill="#C61D65" d="M647 437c3.925 3.7 6.946 7.55 10 12l-2 1v-2l-5-1-1-6h-2z"/><path fill="#D91C6C" d="m504 436-.562 1.875c-.675 2.167-.675 2.167.562 4.125l-2 3-6-9c5-1 5-1 8 0"/><path fill="#1A010C" d="M275 200h13c-2.763 1.842-4.807 2.722-7.937 3.688l-2.59.824c-2.578.509-4.017.337-6.473-.512l1-2h3z"/><path fill="#360316" d="M684 734c-7.502 3.052-13.946 3.336-22 3v-1q4.373-.794 8.75-1.562l2.5-.46 2.422-.42 2.222-.396c2.268-.174 3.944.17 6.106.838"/><path fill="#490622" d="m740 694 1 4-1.39 1.172c-3.335 2.83-6.575 5.672-9.61 8.828l-2-1 1.68-1.645 2.195-2.168 2.18-2.144c2.099-2.087 2.099-2.087 3.945-5.043h2z"/><path fill="#BD2566" d="M517 555a283 283 0 0 1 5 5v1h-21v-1l16-1z"/><path fill="#CE1D6A" d="M394 402c3.288 3.11 5.837 6.016 8 10l-2 1-1-4-6 1-1-4h3z"/><path fill="#240210" d="M380 383h3v2h2v2l4 2-2 4a640 640 0 0 1-3.5-3.875l-1.969-2.18C380 385 380 385 380 383"/><path fill="#C21A63" d="m472 499 5 5 1.813 1.688C480 507 480 507 480 509l-4 1 1-4-4-1c-.553-2.076-1-3.844-1-6"/><path fill="#1C020C" d="m456 478 7 1c.91 3.073 1.089 5.801 1 9-3.288-3.11-5.837-6.016-8-10"/><path fill="#C51C66" d="M657 450c2.964 2.808 5.445 5.183 7 9l-4 1v-2h-2z"/><path fill="#BC1B60" d="M411 423c3.636 3.434 6.361 6.797 9 11l-4-1v-3h-2v2h-2l.063-2.812c.095-3.21.095-3.21-1.063-6.188"/><path fill="#262626" d="M161 123c0 3 0 3-2.187 5.375L156 131l-2.812 2.813L151 136l-3-1 5.938-5.437 1.708-1.565c2.714-2.46 2.714-2.46 5.354-4.998"/><path fill="#2C0213" d="M329 509c3.636 3.434 6.361 6.797 9 11-3 0-3 0-4.687-1.375C332 517 332 517 332 515h-2c-1.062-1.875-1.062-1.875-2-4z"/><path fill="#270111" d="M311 487c4.413 3.152 7.008 6.555 10 11l-2 1-2-3c-2.552-1.205-2.552-1.205-5-2z"/><path fill="#2A0111" d="M297 469c3.636 3.434 6.361 6.797 9 11h-3v-2l-5-2z"/><path fill="#C52268" d="M761 640h3a772 772 0 0 1-.875 5.75l-.492 3.234C762 652 762 652 760 656z"/><path fill="#2A020F" d="m445 373 1 3h2c1.29 1.531 1.29 1.531 2.625 3.5l1.352 1.969L453 383l-2 1-1-2h-6l3-5h-2z"/><path fill="#C61C63" d="M667 462c2.964 2.808 5.445 5.183 7 9l-2 1v-2l-4 1z"/><path fill="#C51B64" d="M371 373c2.964 2.808 5.445 5.183 7 9-4.75-.75-4.75-.75-7-3-.125-3.125-.125-3.125 0-6"/><path fill="#BD1F62" d="M226 240h2v4l-3 2c-.724 2.06-.724 2.06-1 4l-4-1q1.426-2.257 2.875-4.5l1.617-2.531z"/><path fill="#CB1E68" d="m514 458 6 1 2 10c-5.802-5.645-5.802-5.645-8-9z"/><path fill="#C71B66" d="M634 421c4.875 4.625 4.875 4.625 6 8l-4 1c-1.498-3.371-2-5.204-2-9"/><path fill="#212121" d="m134 149 2 3-10 9-2-1 1.68-1.645 2.195-2.167 2.18-2.145c2.099-2.087 2.099-2.087 3.945-5.043"/><path fill="#2C0113" d="M344 528c3.26 3.17 6.222 6.4 9 10l-2 1-2-3-3-1c-1.187-3.562-1.187-3.562-2-7"/><path fill="#300114" d="M268 433a141 141 0 0 1 5 5v2l3 1 1 3h-2v-2l-1.937-.812C271 440 271 440 270 437h-2z"/><path fill="#BA1E63" d="M215 362h2v3l4 1 1 7c-1.5-1.375-1.5-1.375-3-3v-2l-3-1z"/><path fill="#C71863" d="M354 352c3.288 3.11 5.837 6.016 8 10l-1.687-.937c-2.438-1.12-4.675-1.623-7.313-2.063z"/><path fill="#2D0212" d="M209 264h3a716 716 0 0 1-1.375 4.813l-.773 2.707C209 274 209 274 207 277q.212-2.688.438-5.375c.08-.998.162-1.995.246-3.023C208 266 208 266 209 264"/><path fill="#24020F" d="M733 544a85 85 0 0 1 7 2v6c-2.648-2.578-4.944-4.916-7-8"/><path fill="#250111" d="m472 408 8 8-1 2c-2.375-1.062-2.375-1.062-5-3-1.312-3.687-1.312-3.687-2-7"/><path fill="#B71E61" d="m613 395 8 8-1 2-3-1v-3h-3z"/><path fill="#1F000D" d="m598 375 6 2 1 7c-2.964-2.808-5.445-5.183-7-9"/><path fill="#AC1B5B" d="m252 216 1 2c-5.143 5.571-5.143 5.571-9 6v2h-2c1.426-3.452 3.097-5.101 6.125-7.25l2.195-1.578z"/><path fill="#330215" d="m698 729-2.5 1.438L693 732v1h-9c2.72-1.36 5.308-2.59 8.125-3.687l2.07-.825C696 728 696 728 698 729"/><path fill="#CA1D67" d="m749 677 3 1-5 8-2-1c1.75-5.75 1.75-5.75 4-8"/><path fill="#2C0315" d="m633 608 6 5-1 2h-3v-2h-2c-.562-1.937-.562-1.937-1-4z"/><path fill="#BF1D63" d="M721 530c2.964 2.808 5.445 5.183 7 9-3 0-3 0-4.625-1.125-1.849-2.521-2.034-4.809-2.375-7.875"/><path fill="#330317" d="M537 488c2.964 2.808 5.445 5.183 7 9-3.23-.557-5.066-1.292-7-4-.187-2.687-.187-2.687 0-5"/><path fill="#BA1D5F" d="M442 462c5.875 4.625 5.875 4.625 7 8l-6-2z"/><path fill="#B31B5C" d="m432 449 8 8-1 2c-2.375-.5-2.375-.5-5-2-1.082-2.665-1.493-5.14-2-8"/><path fill="#2A0110" d="m327 317 4 1-1 2 3 1 1 5c-2.964-2.808-5.445-5.183-7-9"/><path fill="#C11D63" d="M206 280h1c.054 1.604.093 3.208.125 4.813l.07 2.707C207 290 207 290 205 293c-1.514-4.845-.366-8.26 1-13"/><path fill="#CE1E6A" d="M602 565h2v3h2v4l2 1h-3c-2.25-2.312-2.25-2.312-4-5z"/><path fill="#D01F6C" d="M576 536c5.875 1.875 5.875 1.875 7 3 .04 1.666.043 3.334 0 5-2.648-2.578-4.944-4.916-7-8"/><path fill="#C52067" d="M528 476h4l.375 1.938L533 480l2 1v3l2 1h-3c-1.605-1.969-1.605-1.969-3.187-4.5l-1.606-2.531z"/><path fill="#290314" d="M498 440c4.875 4.625 4.875 4.625 6 8-1.875-.187-1.875-.187-4-1-1.253-2.443-2-4.245-2-7"/><path fill="#3C051B" d="M608 576c4.875 4.625 4.875 4.625 6 8-3 0-3 0-4.687-1.187-1.717-2.37-1.545-3.953-1.313-6.813"/><path fill="#D11E6D" d="m554 505 2 1-1 2h3l1 6c-2.648-2.578-4.944-4.916-7-8z"/><path fill="#B41A5D" d="M465 490c2.964 2.808 5.445 5.183 7 9l-1.75-1.437c-2.176-1.511-3.676-2.103-6.25-2.563z"/><path fill="#270111" d="M648 438c2.438.813 2.438.813 5 2l1 3h2l-1 3c-2.648-2.578-4.944-4.916-7-8"/><path fill="#D71D70" d="M708 721c-1.75 2.063-1.75 2.063-4 4-2.25-.25-2.25-.25-4-1v-2c2.928-.976 4.956-1.082 8-1"/><path fill="#C01E63" d="M497 530c2.648 2.578 4.944 4.916 7 8h-6z"/><path fill="#CD1F68" d="M567 524h2v2l1.875.75c2.476 1.456 3.076 2.628 4.125 5.25h-3c-1.387-1.496-1.387-1.496-2.687-3.437l-1.325-1.934C567 525 567 525 567 524"/><path fill="#22010E" d="m488 518 6 2 1 6c-2.648-2.578-4.944-4.916-7-8"/><path fill="#300114" d="M457 389c2.964 2.808 5.445 5.183 7 9-2.375-.562-2.375-.562-5-2-1.312-3.625-1.312-3.625-2-7"/><path fill="#272727" d="m59 253 2 2c-.125 2-.125 2-1 4-2.062 1.25-2.062 1.25-4 2 1.875-6.875 1.875-6.875 3-8"/><path fill="#1E000C" d="m516 546 1 7a105 105 0 0 1-5-4v-2c2-1 2-1 4-1"/><path fill="#1C010D" d="m658 450 5 1 1 6c-4.875-4.75-4.875-4.75-6-7"/><path fill="#BD1F63" d="m263 426 6 2 1 6c-2.648-2.578-4.944-4.916-7-8"/><path fill="#C02063" d="M604 384c2.5 2.313 2.5 2.313 5 5v3c-2.5-1.187-2.5-1.187-5-3-.312-2.687-.312-2.687 0-5"/><path fill="#3B0219" d="m241 224 1 2-7 5v-4h2v-2z"/><path fill="#1A1A1A" d="M625 914c-2.565 2.565-4.477 2.54-8 3l-1-3c3.069-1.534 5.7-.55 9 0"/><path fill="#242424" d="M212 858c1.938.75 1.938.75 4 2 .75 2.125.75 2.125 1 4l-7-4z"/><path fill="#C81D67" d="M623 594h5v6a283 283 0 0 1-5-5z"/><path fill="#280210" d="M752 571c4 2 4 2 5.25 4.625L758 578l-2 2z"/><path fill="#25010F" d="M363 552a105 105 0 0 1 5 4v2h-4c-1.062-1.875-1.062-1.875-2-4z"/><path fill="#320217" d="M338 520c4.875 4.625 4.875 4.625 6 8l-4-1z"/><path fill="#C21D65" d="M330 509h2v2l4-2v7c-4.875-3.625-4.875-3.625-6-7"/><path fill="#C41D66" d="M699 502a141 141 0 0 1 5 5v2l-4 1 1-4h-2z"/><path fill="#320114" d="M700 503c3.653 1.25 4.78 1.671 7 5l-1 3z"/><path fill="#2D0316" d="M506 450c4.875 4.75 4.875 4.75 6 7l-6-2z"/><path fill="#C02267" d="M347 344c4.875 4.625 4.875 4.625 6 8h-2l-1-4h-4z"/><path fill="#D41F6E" d="M330 323c3.327 2.218 3.883 3.276 5 7l-1 2h-2z"/><path fill="#250110" d="m228 233 4 2-5 5c-.043-2-.04-4 0-6z"/><path fill="#181818" d="M185 103c0 3.599-.958 5.095-3 8h-2v-4c2.5-2.25 2.5-2.25 5-4"/><path fill="#141414" d="M188 841h3c1.688 2 1.688 2 3 4l-3 1-4-4z"/><path fill="#39051C" d="M740 694c.688 1.813.688 1.813 1 4-1.312 1.75-1.312 1.75-3 3h-2l2-5h2z"/><path fill="#320317" d="m355 541 5 5-1 3-3-1z"/><path fill="#2B0112" d="M496 528h4c1.063 2.375 1.063 2.375 2 5l-1 2z"/><path fill="#393939" d="m275 48 2 1-1.937.875c-2.215.953-2.215.953-3.063 3.125l-4-2a136 136 0 0 1 7-3"/></svg>