<?xml version="1.0" encoding="UTF-8"?>
<svg version="1.1" xmlns="http://www.w3.org/2000/svg" width="945" height="945">
<path d="M0 0 C311.85 0 623.7 0 945 0 C945 311.85 945 623.7 945 945 C633.15 945 321.3 945 0 945 C0 633.15 0 321.3 0 0 Z " fill="#000000" transform="translate(0,0)"/>
<path d="M0 0 C311.85 0 623.7 0 945 0 C945 311.85 945 623.7 945 945 C633.15 945 321.3 945 0 945 C0 633.15 0 321.3 0 0 Z M422 7 C421.35816772 7.07776672 420.71633545 7.15553345 420.05505371 7.23565674 C399.78039801 9.7081321 379.83043526 13.0311785 360 18 C359.04383789 18.23831543 358.08767578 18.47663086 357.10253906 18.72216797 C319.78739989 28.15780799 282.5204715 41.99428786 249 61 C248.10780762 61.50225098 247.21561523 62.00450195 246.29638672 62.52197266 C220.49060851 77.11121832 196.65402619 93.70377678 173.79394531 112.53076172 C172.16135533 113.86785025 170.5181626 115.18963615 168.8671875 116.50390625 C163.62403926 120.7028063 158.79232276 125.07934124 154.10546875 129.890625 C152.17821133 131.82145804 150.20061436 133.60672813 148.125 135.375 C140.82350811 141.65632336 134.05044629 148.59437558 127.80078125 155.91796875 C125.62675798 158.43153578 123.37609512 160.86776229 121.125 163.3125 C116.68216232 168.19561889 112.42415863 173.18366587 108.31494141 178.35058594 C107.38152345 179.52143104 106.44318119 180.68835795 105.50146484 181.85253906 C90.2524549 200.73050904 77.20251056 221.05018671 65 242 C64.20836982 243.34507356 63.41670513 244.6901268 62.625 246.03515625 C55.90139098 256.38646089 55.90139098 256.38646089 53 268 C52.34 268 51.68 268 51 268 C42.90997536 285.84404088 42.90997536 285.84404088 35.97265625 304.15234375 C35.06454907 306.81101899 34.0640107 309.40047582 33 312 C26.0050161 329.23360952 21.15857198 346.85182926 17 364.9375 C16.73960938 366.06607422 16.47921875 367.19464844 16.2109375 368.35742188 C15.70102893 370.57088862 15.19316843 372.78482832 14.6875 374.99926758 C14.27730153 376.78966156 13.86234674 378.57899208 13.4375 380.3659668 C11.92748268 386.83441502 10.95544799 393.3671146 10 399.9375 C9.82557373 401.13028564 9.65114746 402.32307129 9.47143555 403.55200195 C6.19819843 426.24124303 4.7885382 448.58542036 4.8125 471.5 C4.81310425 472.56847168 4.8137085 473.63694336 4.81433105 474.73779297 C4.83768052 489.93886507 5.1416044 504.89901351 7 520 C7.22517174 521.95365918 7.45029905 523.90732361 7.67459106 525.86108398 C9.77816426 544.07815972 12.29421347 561.98906306 16.9140625 579.765625 C17.67727264 582.70529516 18.3951918 585.65185063 19.0859375 588.609375 C24.40826685 611.14671827 32.0776116 633.22651851 41.54199219 654.36010742 C43.14955955 657.9682524 44.57949431 661.56138409 45.8125 665.3125 C50.49045017 678.52428397 58.39842666 690.80215918 65.1875 703 C65.75710449 704.02561035 66.32670898 705.0512207 66.91357422 706.10791016 C72.71400181 716.45158753 79.10057796 726.3149163 85.9375 736 C86.85970337 737.30952637 86.85970337 737.30952637 87.80053711 738.64550781 C89.00452061 740.35262248 90.20993526 742.05872896 91.41699219 743.76367188 C92.6910009 745.56347443 93.95964525 747.36707359 95.2265625 749.171875 C103.13044116 760.27093865 111.87789312 770.88117835 121 781 C121.95326172 782.07314453 121.95326172 782.07314453 122.92578125 783.16796875 C127.63430468 788.44461384 132.42895514 793.63886469 137.25 798.8125 C137.84047119 799.44679932 138.43094238 800.08109863 139.03930664 800.73461914 C140.68578959 802.49659573 142.34060069 804.25019133 144 806 C144.90234375 806.95261719 145.8046875 807.90523437 146.734375 808.88671875 C148.89553763 811.19620397 148.89553763 811.19620397 152 812 C152.33 812.99 152.66 813.98 153 815 C154.52069973 816.58016767 154.52069973 816.58016767 156.4375 818.125 C160.63113431 821.66880989 164.67311302 825.35362845 168.703125 829.08203125 C170.83150563 831.0197766 170.83150563 831.0197766 172.984375 831.94921875 C175.85545885 833.44596595 177.72293834 835.70336475 180 838 C182.47990413 840.08168184 185.04594207 842.04315399 187.625 844 C188.36572754 844.56323975 189.10645508 845.12647949 189.86962891 845.70678711 C217.64100084 866.62974686 247.5864185 884.90002411 279.56079102 898.63525391 C282.78251929 900.01993712 285.95724662 901.43274499 289.0625 903.0625 C297.99244388 907.65560579 307.66921077 911.00384733 317.20703125 914.078125 C319.81744613 914.93974446 322.37091505 915.89188112 324.9375 916.875 C355.66097328 928.07900165 388.56170265 933.60438942 420.875 937.75 C421.76977051 937.86561279 422.66454102 937.98122559 423.58642578 938.1003418 C439.8335322 940.06737978 456.09356192 940.2384238 472.4375 940.25 C473.55851105 940.25133942 474.67952209 940.25267883 475.83450317 940.25405884 C494.73109005 940.2491823 513.25352204 939.35963696 532 937 C532.91942383 936.89316895 533.83884766 936.78633789 534.78613281 936.67626953 C555.15366542 934.28632206 575.35871159 929.20296464 595.25 924.3125 C596.34441406 924.04590576 596.34441406 924.04590576 597.4609375 923.77392578 C602.68888248 922.45126535 607.77518418 920.78537613 612.88134766 919.05493164 C615.92554251 918.02518638 618.97809127 917.0259591 622.03515625 916.03515625 C623.02966797 915.70966797 624.02417969 915.38417969 625.04882812 915.04882812 C627.06032171 914.39049743 629.07335703 913.73685916 631.08789062 913.08789062 C636.96992826 911.15265826 642.58153133 908.93698732 648.18823242 906.31030273 C651.13843731 904.93548728 654.11353838 903.63417699 657.1015625 902.34375 C684.93347284 890.24689478 710.94506369 876.07811928 736 859 C736.56025879 858.62133789 737.12051758 858.24267578 737.69775391 857.85253906 C755.88488924 845.55716115 773.12668253 831.75823759 789.10546875 816.703125 C792.48584705 813.54628049 795.96625275 810.52063949 799.48828125 807.5234375 C801.23479046 806.12108872 801.23479046 806.12108872 801 804 C801.59385498 803.73590332 802.18770996 803.47180664 802.79956055 803.19970703 C805.08637928 801.95290494 806.45251741 800.71411512 808.20703125 798.8046875 C808.7899292 798.17546387 809.37282715 797.54624023 809.97338867 796.89794922 C810.58029541 796.23037598 811.18720215 795.56280273 811.8125 794.875 C812.756698 793.84850342 812.756698 793.84850342 813.7199707 792.80126953 C817.88448025 788.26121384 822.00592504 783.69102763 826 779 C826.79277344 778.08605469 827.58554687 777.17210937 828.40234375 776.23046875 C838.62092327 764.38140408 848.25536734 751.97908316 857 739 C857.37189453 738.45166504 857.74378906 737.90333008 858.12695312 737.33837891 C876.95001774 709.55869758 893.40427186 680.13194542 906 649 C906.45318604 647.90606934 906.90637207 646.81213867 907.37329102 645.68505859 C911.38400849 635.8848499 914.81830657 625.95264955 918.0625 615.875 C918.32523712 615.06229645 918.58797424 614.2495929 918.8586731 613.41226196 C922.57485648 601.88347882 926.02821591 590.38279651 928.47900391 578.50927734 C929.05910895 575.71531314 929.67533768 572.93043196 930.29296875 570.14453125 C933.13499884 557.15876764 935.41614781 544.1965956 937 531 C937.13680176 529.94135742 937.27360352 528.88271484 937.41455078 527.79199219 C941.78860033 493.20396113 942.33056526 456.61880614 938 422 C937.91987671 421.35194397 937.83975342 420.70388794 937.75720215 420.03619385 C935.41079566 401.16385085 932.53828065 382.48579937 928 364 C927.76933838 363.0500415 927.53867676 362.10008301 927.30102539 361.12133789 C923.12589021 344.13934281 918.13430235 327.37837052 912 311 C911.56816406 309.84242188 911.13632812 308.68484375 910.69140625 307.4921875 C906.50101052 296.44834081 901.92631715 285.60974431 896.89941406 274.92089844 C895.89055672 272.76625958 894.89480541 270.60575381 893.8984375 268.4453125 C889.36698679 258.67486531 884.59553785 249.21249351 879 240 C878.26426758 238.78860352 878.26426758 238.78860352 877.51367188 237.55273438 C868.84068077 223.32735907 859.92988377 209.3882226 850 196 C849.54044922 195.37512695 849.08089844 194.75025391 848.60742188 194.10644531 C843.29378385 186.88419284 838.00667822 179.74714604 831.9296875 173.140625 C829.67614156 170.64074003 827.55819951 168.05088728 825.4375 165.4375 C818.99762037 157.20654584 818.99762037 157.20654584 811.5 150 C809.30731456 148.24585165 807.78540123 146.6354799 806 144.5 C801.30759553 139.01019347 795.94008743 134.26654023 790.58837891 129.43554688 C789.16120673 128.1456956 787.74217997 126.84684528 786.32421875 125.546875 C781.30041216 120.9637532 776.13951344 116.59536016 770.8515625 112.3203125 C767.87027281 109.89444117 764.93580747 107.41814352 762 104.9375 C756.50433222 100.35777685 750.85593825 96.10597482 745 92 C744.1344751 91.38753418 744.1344751 91.38753418 743.25146484 90.76269531 C732.78114176 83.36575065 722.04722243 76.50217824 711 70 C710.11924805 69.48147461 709.23849609 68.96294922 708.33105469 68.42871094 C694.23105244 60.18097835 679.84165436 52.81586474 665 46 C664.06406006 45.56558594 663.12812012 45.13117187 662.16381836 44.68359375 C656.86116433 42.23993236 651.55505831 39.97763299 646.0625 38 C641.19527983 36.21627771 636.39150326 34.35528711 631.625 32.3125 C627.38111447 30.5205108 623.17370993 29.04235436 618.7421875 27.79296875 C616.79807462 27.23078226 614.86645025 26.624566 612.9453125 25.98828125 C591.38761274 18.88886371 569.11161782 13.68009005 546.66308594 10.40478516 C543.87070316 9.98034707 541.09390264 9.49097316 538.3125 9 C530.9922102 7.77839004 523.63988551 7.01564508 516.25 6.375 C515.49632141 6.30963043 514.74264282 6.24426086 513.96612549 6.1769104 C483.66677777 3.64353455 452.21241514 3.29571065 422 7 Z " fill="#FEFEFE" transform="translate(0,0)"/>
<path d="M0 0 C19.41918151 -0.21040517 38.83813118 -0.36902865 58.25821686 -0.46630955 C67.27572269 -0.5126832 76.29251958 -0.57588535 85.30957031 -0.67895508 C93.17050135 -0.76876677 101.03091892 -0.82674868 108.89234877 -0.84679645 C113.05380298 -0.8585129 117.21378853 -0.88596896 121.37477112 -0.95157051 C125.29536561 -1.01287859 129.2138937 -1.031463 133.13492203 -1.01796913 C134.57007729 -1.02043573 136.00530496 -1.0382163 137.4400444 -1.07284927 C148.26046778 -1.32112678 148.26046778 -1.32112678 152.60295105 1.97686958 C154.62502624 4.22547742 156.33388425 6.48090397 158 9 C158.7425 9.89589844 159.485 10.79179687 160.25 11.71484375 C161.11625 12.81505859 161.11625 12.81505859 162 13.9375 C162.65871094 14.77023437 163.31742188 15.60296875 163.99609375 16.4609375 C164.65738281 17.29882812 165.31867188 18.13671875 166 19 C167.35321069 20.6882667 168.70737275 22.37577129 170.0625 24.0625 C172.46491359 27.06319806 174.84161716 30.07997473 177.1875 33.125 C181.02236677 38.0780056 184.99177606 42.91909313 188.95092773 47.77270508 C192.5969029 52.25070378 196.19464843 56.76228205 199.75 61.3125 C203.72817908 66.40362629 207.77726608 71.42848795 211.8828125 76.41796875 C215.29543241 80.57985392 218.64519666 84.79148924 222 89 C223.33301518 90.66692114 224.66634965 92.33358699 226 94 C234 104 234 104 236.01171875 106.515625 C237.30471207 108.13123158 238.59891784 109.74586881 239.89453125 111.359375 C243.22718935 115.51331952 246.53866489 119.68228235 249.81982422 123.87695312 C255.9751468 131.744163 262.26084016 139.49974713 268.57080078 147.24316406 C274.02791071 153.95128894 279.39318534 160.73278656 284.71655273 167.54736328 C287.07191965 170.56090116 289.44467834 173.55569913 291.8671875 176.515625 C298.17217246 184.26959515 303.3288002 192.16951271 308 201 C308.48210938 201.86109375 308.96421875 202.7221875 309.4609375 203.609375 C313.11906405 210.39353696 315.18795146 217.53024533 317 225 C317.27034058 226.09139282 317.27034058 226.09139282 317.54614258 227.20483398 C319.12490741 234.17096663 319.34683148 240.93720313 319.3125 248.0625 C319.30831055 249.25045166 319.30412109 250.43840332 319.29980469 251.66235352 C319.12395717 265.43738735 317.06828486 278.12557866 312 291 C311.76297363 291.61198242 311.52594727 292.22396484 311.28173828 292.85449219 C305.62076798 307.27521879 297.76979253 318.77990255 287 330 C286.28070312 330.77085937 285.56140625 331.54171875 284.8203125 332.3359375 C280.03667547 337.32385796 274.95569423 341.42325085 269.28515625 345.37109375 C266.94686121 346.94290108 266.94686121 346.94290108 265 349 C263.39826415 349.71566921 261.79218074 350.42285714 260.16796875 351.0859375 C257.6979313 352.1273587 255.29542058 353.28559181 252.875 354.4375 C234.73176583 362.63518925 216.0280078 364.4625758 196.37203979 364.36076355 C194.45909533 364.36207517 192.5461514 364.3647081 190.6332103 364.36853105 C185.42908394 364.37517807 180.22514594 364.36332395 175.02104354 364.34819686 C169.38940592 364.3351564 163.75777764 364.33963159 158.12612915 364.34190369 C148.38630563 364.34347139 138.64654274 364.33411499 128.90673447 364.31719017 C114.82487769 364.29273621 100.74305002 364.28498837 86.66117431 364.2812262 C63.81039233 364.27467172 40.95964981 364.25476379 18.10888672 364.22631836 C-4.07926263 364.19872981 -26.26740332 364.17749628 -48.45556641 364.16479492 C-49.14046465 364.16440034 -49.8253629 364.16400576 -50.53101564 364.16359923 C-57.40954639 364.1596434 -64.2880772 364.155816 -71.16660807 364.15208265 C-128.77776643 364.120802 -186.38886819 364.06539479 -244 364 C-244 324.73 -244 285.46 -244 245 C-99.13 245 45.74 245 195 245 C190.74365617 239.32487489 186.44347951 233.9058063 181.79296875 228.58203125 C178.19926757 224.40773211 178.19926757 224.40773211 176.984375 221.921875 C175.53246079 219.08718534 173.26156238 217.22492441 171 215 C169.48922258 213.10814992 168.01192033 211.18925909 166.5625 209.25 C162.54246538 203.93367782 158.37818331 198.7564063 154.125 193.625 C145.7009694 183.45299445 137.45646416 173.14724613 129.3125 162.75 C125.41071688 157.76901492 121.45016645 152.84312934 117.4296875 147.95703125 C113.96404217 143.73919601 110.52504543 139.4998745 107.08520508 135.26098633 C104.27181822 131.7945574 101.45502439 128.33106078 98.62890625 124.875 C92.70680199 117.62501911 86.87597291 110.32619715 81.21875 102.8671875 C78.8824558 99.84810309 76.45552099 96.92268772 74 94 C71.78904289 91.3089263 69.5859047 88.61157803 67.3828125 85.9140625 C65.86014907 84.05192001 64.3344072 82.19228774 62.8046875 80.3359375 C58.54591689 75.16130224 54.34155245 69.94638319 50.1875 64.6875 C49.73133301 64.11281982 49.27516602 63.53813965 48.80517578 62.94604492 C46.73625597 60.31547401 44.81099032 57.70822777 42.98828125 54.89453125 C40.90806874 51.86616687 38.61458775 49.57641858 36 47 C33.67239502 44.3171782 31.4305806 41.56613139 29.1875 38.8125 C28.56512451 38.05219482 27.94274902 37.29188965 27.30151367 36.50854492 C22.82841873 31.03663186 18.38600414 25.54200523 14 20 C13.03659491 18.79676563 12.0730416 17.59364993 11.109375 16.390625 C10.09348615 15.11479338 9.07786014 13.83875243 8.0625 12.5625 C7.57692627 11.95833252 7.09135254 11.35416504 6.59106445 10.73168945 C4.55818054 8.16492416 3.04413761 6.13241283 2 3 C1.34 3 0.68 3 0 3 C0 2.01 0 1.02 0 0 Z " fill="#E61872" transform="translate(446,373)"/>
<path d="M0 0 C1.91534243 -0.00087401 3.83068463 -0.00262858 5.74602556 -0.00517833 C10.96603269 -0.00961741 16.18595662 -0.00169593 21.40595317 0.00837779 C27.05125965 0.01705999 32.69656189 0.01408877 38.34187317 0.01257324 C48.10845541 0.0115274 57.87501081 0.01777253 67.6415863 0.02904892 C81.76220228 0.04534178 95.88280535 0.05051579 110.00342971 0.0530249 C132.9163169 0.05739607 155.82918661 0.07067221 178.74206543 0.08963013 C200.9923902 0.10801852 223.24271114 0.12217616 245.49304199 0.13064575 C246.52302503 0.13104033 246.52302503 0.13104033 247.5738158 0.13144288 C254.46990922 0.13408007 261.36600267 0.13663168 268.26209615 0.1391206 C326.03293803 0.15997912 383.80375484 0.19692005 441.57458496 0.24050903 C441.57458496 39.18050903 441.57458496 78.12050903 441.57458496 118.24050903 C296.70458496 118.24050903 151.83458496 118.24050903 2.57458496 118.24050903 C2.57458496 119.23050903 2.57458496 120.22050903 2.57458496 121.24050903 C3.1507959 121.47254028 3.72700684 121.70457153 4.32067871 121.94363403 C7.13900822 123.5652725 8.61912283 125.44071015 10.63708496 127.99050903 C11.41438965 128.96632935 12.19169434 129.94214966 12.99255371 130.94754028 C13.85353974 132.04495422 14.71420008 133.14262373 15.57458496 134.24050903 C16.54945535 135.47389033 17.52472761 136.70695407 18.50036621 137.93972778 C21.20429504 141.36372703 23.89752658 144.7954421 26.57458496 148.24050903 C27.17528809 148.9946106 27.77599121 149.74871216 28.39489746 150.52566528 C29.57458496 152.24050903 29.57458496 152.24050903 29.57458496 154.24050903 C30.56458496 154.57050903 31.55458496 154.90050903 32.57458496 155.24050903 C33.94177246 156.74441528 33.94177246 156.74441528 35.44958496 158.80300903 C38.82425422 163.29067703 42.32950079 167.64801965 45.88708496 171.99050903 C49.84047351 176.83072818 53.72944023 181.70314459 57.51208496 186.67800903 C62.63033201 193.39046418 67.9900702 199.89372894 73.37536621 206.39285278 C73.915 207.04495728 74.45463379 207.69706177 75.01062012 208.368927 C76.0311834 209.59022549 77.06173022 210.80326995 78.10339355 212.00662231 C81.57458496 216.03662063 81.57458496 216.03662063 81.57458496 218.24050903 C82.56458496 218.57050903 83.55458496 218.90050903 84.57458496 219.24050903 C85.95109956 221.21103823 87.27791084 223.21654905 88.57458496 225.24050903 C90.17390719 227.21986823 91.79984861 229.17796821 93.44958496 231.11550903 C96.23016344 234.40449003 98.97552654 237.69486322 101.51208496 241.17800903 C104.62172214 245.41842336 108.05057018 249.38160149 111.46350098 253.37722778 C114.78012172 257.27072612 117.97153771 261.23695902 121.07067871 265.30691528 C122.4933379 267.13604853 123.98389983 268.87448475 125.51208496 270.61550903 C127.57458496 273.24050903 127.57458496 273.24050903 127.57458496 276.24050903 C128.41376465 276.54795044 128.41376465 276.54795044 129.26989746 276.86160278 C132.42487545 278.74924216 134.28552084 281.40360272 136.44958496 284.30300903 C139.67020873 288.52577863 142.9265503 292.69916694 146.33630371 296.77175903 C147.28303955 297.90279053 147.28303955 297.90279053 148.24890137 299.05667114 C149.4874386 300.5301365 150.7304618 301.99984524 151.97839355 303.46536255 C154.93154508 306.99234326 156.92945753 309.91079555 158.57458496 314.24050903 C159.56458496 314.57050903 160.55458496 314.90050903 161.57458496 315.24050903 C163.04724121 316.84988403 163.04724121 316.84988403 164.63708496 318.99050903 C165.25583496 319.81035278 165.87458496 320.63019653 166.51208496 321.47488403 C167.19270996 322.38754028 167.87333496 323.30019653 168.57458496 324.24050903 C174.72722144 332.37077866 181.04371553 340.32422583 187.57678223 348.15261841 C198.57458496 361.37460717 198.57458496 361.37460717 198.57458496 363.24050903 C185.51383838 363.37350922 172.45306919 363.50401436 159.39226913 363.63166046 C153.32216961 363.69105634 147.25207964 363.75119142 141.18200684 363.81326294 C140.01504524 363.82512131 138.84808365 363.83697968 137.64575958 363.84919739 C135.29555311 363.8730995 132.94534862 363.89719833 130.59514618 363.92149353 C124.7468878 363.98057645 118.89875551 364.03116033 113.05029297 364.06497192 C110.73612322 364.07897437 108.42195489 364.09321433 106.10778809 364.10769653 C104.97647713 364.11472092 103.84516617 364.1217453 102.67957306 364.12898254 C96.03438621 364.18092405 89.39740072 364.31429189 82.75541306 364.52591705 C78.67736145 364.65133572 74.59894852 364.7397458 70.51984406 364.82301331 C68.6345722 364.8715045 66.74966012 364.93786013 64.86571503 365.02360535 C50.60780863 365.66616172 50.60780863 365.66616172 45.4839325 362.07341003 C43.19691966 359.57054711 41.36131896 357.11434551 39.57458496 354.24050903 C38.79728027 353.24921997 38.01997559 352.25793091 37.21911621 351.23660278 C36.6145459 350.39226685 36.00997559 349.54793091 35.38708496 348.67800903 C31.58993866 343.51522239 27.60077658 338.55024863 23.51208496 333.61550903 C22.9023584 332.87961548 22.29263184 332.14372192 21.66442871 331.38552856 C20.48782073 329.96613352 19.31106912 328.54685752 18.13415527 327.12771606 C13.51414927 321.53713272 9.03742155 315.83352438 4.56481934 310.12503052 C3.85809082 309.22312988 3.85809082 309.22312988 3.13708496 308.30300903 C2.66851074 307.7049646 2.19993652 307.10692017 1.71716309 306.49075317 C-1.90321747 301.88054249 -5.59648946 297.33437518 -9.31994629 292.80691528 C-13.58254076 287.61113686 -17.77218688 282.35744714 -21.91369629 277.06472778 C-22.81341755 275.91497386 -23.71315765 274.76523468 -24.61291504 273.61550903 C-25.06859863 273.03301392 -25.52428223 272.4505188 -25.99377441 271.85037231 C-30.23071968 266.45220099 -34.55968892 261.13082732 -38.92224121 255.83377075 C-41.41185209 252.79442446 -43.81002239 249.74096611 -46.05822754 246.51785278 C-47.96548476 243.79829445 -50.06912331 241.58789229 -52.42541504 239.24050903 C-54.50833779 236.64155703 -56.49285174 233.96970123 -58.48791504 231.30300903 C-63.47743099 224.69308771 -68.64486255 218.31503768 -74.08557129 212.07254028 C-76.42541504 209.24050903 -76.42541504 209.24050903 -78.48400879 206.12722778 C-80.28712142 203.44614079 -82.13127693 201.49103235 -84.42541504 199.24050903 C-86.08181488 197.17410923 -87.70381444 195.10163792 -89.30041504 192.99050903 C-89.73950195 192.41421753 -90.17858887 191.83792603 -90.63098145 191.24417114 C-91.89866435 189.57844048 -93.16222615 187.90964847 -94.42541504 186.24050903 C-95.03385254 185.44257935 -95.64229004 184.64464966 -96.26916504 183.82254028 C-104.42541504 173.06544526 -104.42541504 173.06544526 -104.42541504 170.24050903 C-105.41541504 169.91050903 -106.40541504 169.58050903 -107.42541504 169.24050903 C-110.91182763 164.21597323 -112.63397654 158.02382875 -114.42541504 152.24050903 C-114.84510541 150.93423557 -115.26575984 149.62827164 -115.68713379 148.32254028 C-116.14203781 146.89951558 -116.59646156 145.47633726 -117.05041504 144.05300903 C-117.26883057 143.37560669 -117.48724609 142.69820435 -117.71228027 142.00027466 C-120.55968171 132.96484587 -120.66640747 124.23828197 -120.67541504 114.86550903 C-120.67642212 114.14430878 -120.6774292 113.42310852 -120.6784668 112.68005371 C-120.66856642 102.22831414 -120.26558331 92.36161715 -117.42541504 82.24050903 C-117.10057129 81.02234497 -116.77572754 79.80418091 -116.44104004 78.54910278 C-114.98434441 73.44506541 -113.73993205 69.4169782 -110.42541504 65.24050903 C-109.73464857 63.59582697 -109.04546205 61.95042671 -108.37072754 60.29910278 C-106.4305611 56.07402959 -103.88764557 52.17620035 -101.42541504 48.24050903 C-101.02709473 47.58953247 -100.62877441 46.93855591 -100.21838379 46.26785278 C-99.34637916 44.8863623 -98.39451202 43.55571208 -97.42541504 42.24050903 C-96.76541504 42.24050903 -96.10541504 42.24050903 -95.42541504 42.24050903 C-95.19854004 41.68363403 -94.97166504 41.12675903 -94.73791504 40.55300903 C-93.05164237 37.58195718 -90.89506104 35.59528778 -88.42541504 33.24050903 C-87.53854004 32.31238403 -86.65166504 31.38425903 -85.73791504 30.42800903 C-83.42541504 28.24050903 -83.42541504 28.24050903 -81.42541504 28.24050903 C-81.17662598 27.64625122 -80.92783691 27.05199341 -80.67150879 26.43972778 C-79.24475791 23.92166902 -77.82114425 22.74318811 -75.48791504 21.05300903 C-74.7982666 20.54382935 -74.10861816 20.03464966 -73.39807129 19.51004028 C-71.42541504 18.24050903 -71.42541504 18.24050903 -68.42541504 17.24050903 C-67.99615723 16.79449341 -67.56689941 16.34847778 -67.12463379 15.88894653 C-50.67418802 -0.06987672 -21.19549952 -0.07277662 0 0 Z " fill="#E61872" transform="translate(323.4254150390625,197.75949096679688)"/>
<path d="M0 0 C144.87 0 289.74 0 439 0 C439 0.33 439 0.66 439 1 C427.3236111 1.80654715 415.7131773 2.15161188 404.010849 2.15821838 C402.26375979 2.16279769 400.51667164 2.16779965 398.76958472 2.17318195 C394.01933501 2.1866169 389.26909235 2.1941383 384.51882875 2.20060861 C379.37728523 2.20867782 374.2357561 2.22235271 369.09422302 2.23532104 C360.20292046 2.25699212 351.31161638 2.27517043 342.42030144 2.29092598 C329.56520577 2.31371053 316.7101261 2.34184107 303.85504407 2.37124526 C282.99475978 2.41881643 262.13446891 2.46210873 241.27416992 2.50268555 C221.01928192 2.54209395 200.76439973 2.58353285 180.50952148 2.62768555 C178.63441372 2.63177196 178.63441372 2.63177196 176.72142499 2.63594092 C170.44971578 2.64962128 164.17800665 2.66334137 157.90629756 2.67708123 C105.93754317 2.79088131 53.96877701 2.89693403 2 3 C2 40.62 2 78.24 2 117 C154.79 117 307.58 117 465 117 C465 117.33 465 117.66 465 118 C460.72267475 119.04631926 456.57721692 119.13890872 452.20077038 119.12304783 C451.41834926 119.12420167 450.63592815 119.12535552 449.8297973 119.12654433 C447.19829309 119.129199 444.56684961 119.12469825 441.93534851 119.12025452 C440.03362492 119.12069045 438.13190139 119.12156577 436.23017818 119.12284368 C430.99674333 119.12508424 425.76332887 119.12107332 420.52989662 119.11606562 C414.88916834 119.11175504 409.24844125 119.11320798 403.60771179 119.1139679 C393.83221348 119.11449274 384.05672184 119.11135002 374.2812252 119.10573006 C360.14742347 119.09760977 346.01362497 119.09499929 331.87982116 119.09374207 C308.94974517 119.09155238 286.01967352 119.08490312 263.08959961 119.07543945 C240.81258157 119.06625592 218.53556448 119.05917186 196.25854492 119.05493164 C195.57193683 119.05480011 194.88532874 119.05466859 194.17791435 119.05453308 C187.28274849 119.05321456 180.38758262 119.05193875 173.49241675 119.05069422 C115.66160811 119.04025215 57.83080571 119.02177428 0 119 C0 79.73 0 40.46 0 0 Z " fill="#B31D5D" transform="translate(202,618)"/>
<path d="M0 0 C144.54 0 289.08 0 438 0 C438 0.33 438 0.66 438 1 C432.7316476 1.73794235 427.67883994 2.12151102 422.34700012 2.10743046 C421.6168338 2.10689593 420.88666749 2.1063614 420.13437492 2.10581067 C417.69867858 2.10279329 415.26306842 2.09253649 412.82739258 2.08229065 C411.05919923 2.07859415 409.29100491 2.07534556 407.52280998 2.07250541 C402.67239344 2.06342157 397.82201473 2.04799312 392.97161841 2.03152263 C387.73790828 2.01486416 382.50418562 2.00409828 377.27046204 1.99261475 C368.20546393 1.97191928 359.14048204 1.94749495 350.07550049 1.92053413 C336.96907653 1.88155877 323.862643 1.848213 310.75620031 1.81623887 C289.49158961 1.76420951 268.22699354 1.70763068 246.96240234 1.64819336 C226.30648366 1.5904671 205.65056104 1.53488188 184.99462891 1.48217773 C183.72128358 1.47892802 182.44793826 1.4756783 181.13600671 1.4723301 C174.74797345 1.45604034 168.35994008 1.43979269 161.97190666 1.42356598 C108.98125307 1.28890607 55.99062108 1.14686387 3 1 C3 1.66 3 2.32 3 3 C3.99 3.33 4.98 3.66 6 4 C6.33 5.65 6.66 7.3 7 9 C3.87386607 6.03839944 1.95216435 3.90432869 0 0 Z " fill="#150006" transform="translate(327,317)"/>
<path d="M0 0 C1.65 0 3.3 0 5 0 C4.34 2.31 3.68 4.62 3 7 C-46.83 7 -96.66 7 -148 7 C-148 6.01 -148 5.02 -148 4 C-147.67 4.33 -147.34 4.66 -147 5 C-144.39768835 5.09648786 -141.82239762 5.1271209 -139.21972656 5.11523438 C-138.3958419 5.1152092 -137.57195724 5.11518402 -136.72310638 5.11515808 C-133.94557792 5.11331509 -131.16813542 5.10372621 -128.390625 5.09375 C-126.41505974 5.08995312 -124.43949412 5.08633565 -122.46392822 5.08288574 C-98.7434021 5.02798876 -75.02391544 4.78149198 -51.30474854 4.53643799 C-45.26177553 4.47449443 -39.21877732 4.41511119 -33.17578125 4.35546875 C-21.45049585 4.23938846 -9.72523943 4.12062884 2 4 C1.01 2.02 1.01 2.02 0 0 Z " fill="#42031D" transform="translate(519,556)"/>
<path d="M0 0 C45.21 0 90.42 0 137 0 C137 0.33 137 0.66 137 1 C93.44 1 49.88 1 5 1 C4.67 2.65 4.34 4.3 4 6 C2.62437146 4.71034824 1.29233607 3.37310707 0 2 C0 1.34 0 0.68 0 0 Z " fill="#E11C6F" transform="translate(447,374)"/>
<path d="M0 0 C1.25396283 3.76188848 0.52152543 5.34713594 -0.4375 9.1875 C-2.3294522 17.85297818 -2.28325791 26.55337039 -2.25 35.375 C-2.248293 36.4168898 -2.248293 36.4168898 -2.24655151 37.47982788 C-2.22158246 45.36366032 -2.00332878 53.1717022 -1 61 C-1.66 60.67 -2.32 60.34 -3 60 C-3.625 56.9375 -3.625 56.9375 -4 54 C-4.33 54 -4.66 54 -5 54 C-5.0246501 48.89136104 -5.04283607 43.78275641 -5.05493164 38.67407227 C-5.05997204 36.93480832 -5.0668043 35.19554864 -5.07543945 33.45629883 C-5.08751792 30.96174063 -5.09323108 28.46723827 -5.09765625 25.97265625 C-5.10281754 25.19036148 -5.10797882 24.40806671 -5.11329651 23.60206604 C-5.11349226 21.73432886 -5.06199694 19.86670796 -5 18 C-4.67 17.67 -4.34 17.34 -4 17 C-3.84084321 15.46148441 -3.72293375 13.91862239 -3.625 12.375 C-3.2114474 7.65643259 -2.10945353 4.21890705 0 0 Z " fill="#350215" transform="translate(206,277)"/>
<path d="M0 0 C1.68762851 1.6454378 3.3540349 3.31288577 5 5 C5 5.33 5 5.66 5 6 C-19.09 6 -43.18 6 -68 6 C-68 5.67 -68 5.34 -68 5 C-45.56 4.67 -23.12 4.34 0 4 C0 2.68 0 1.36 0 0 Z " fill="#CF246C" transform="translate(517,555)"/>
<path d="M0 0 C0.33 0 0.66 0 1 0 C1.02708567 1.60407328 1.04643483 3.2082785 1.0625 4.8125 C1.07410156 5.70582031 1.08570313 6.59914063 1.09765625 7.51953125 C1 10 1 10 0 13 C-1.19344293 22.04679816 -1.12199015 31.143431 -1.0625 40.25 C-1.05746786 41.59244622 -1.05290802 42.9348943 -1.04882812 44.27734375 C-1.03717009 47.5182781 -1.02080774 50.75911369 -1 54 C-1.33 54 -1.66 54 -2 54 C-3.35004653 46.90481561 -3.23941154 39.81700636 -3.25 32.625 C-3.25233643 31.90812012 -3.25467285 31.19124023 -3.25708008 30.45263672 C-3.26993975 20.03629846 -2.79051223 10.09899663 0 0 Z " fill="#C82469" transform="translate(206,280)"/>
<path d="M0 0 C0.33 0 0.66 0 1 0 C1.34803805 4.17645661 0.66218062 5.82586157 -2 9 C-2.28875 9.639375 -2.5775 10.27875 -2.875 10.9375 C-5.49524945 15.74129065 -10.22319106 19.08583502 -14.3515625 22.57421875 C-16.33435999 24.28919762 -18.18342059 26.11075741 -20 28 C-20.66 27.67 -21.32 27.34 -22 27 C-21.44570313 26.45730469 -20.89140625 25.91460938 -20.3203125 25.35546875 C-19.59585938 24.64003906 -18.87140625 23.92460938 -18.125 23.1875 C-17.40570312 22.47980469 -16.68640625 21.77210938 -15.9453125 21.04296875 C-13.84641063 18.95600806 -13.84641063 18.95600806 -12 16 C-11.34 16 -10.68 16 -10 16 C-9.75378906 15.46890625 -9.50757813 14.9378125 -9.25390625 14.390625 C-7.67046698 11.37173144 -5.82587596 8.58770471 -3.9375 5.75 C-3.22464844 4.67234375 -2.51179687 3.5946875 -1.77734375 2.484375 C-1.19082031 1.66453125 -0.60429688 0.8446875 0 0 Z " fill="#240211" transform="translate(750,680)"/>
<path d="M0 0 C18.81 0 37.62 0 57 0 C57 0.33 57 0.66 57 1 C39.84 1 22.68 1 5 1 C4.67 2.65 4.34 4.3 4 6 C2.62437146 4.71034824 1.29233607 3.37310707 0 2 C0 1.34 0 0.68 0 0 Z " fill="#D6226E" transform="translate(447,374)"/>
<path d="M0 0 C2 2 2 2 2 5 C1.01 5 0.02 5 -1 5 C-1.33 6.32 -1.66 7.64 -2 9 C-2.66 9 -3.32 9 -4 9 C-3.87625 9.9590625 -3.87625 9.9590625 -3.75 10.9375 C-4.25508749 17.12482173 -7.67744146 22.85003426 -11 28 C-12.37504799 25.24990402 -11.6294275 24.03055948 -10.75 21.125 C-10.49734375 20.26132812 -10.2446875 19.39765625 -9.984375 18.5078125 C-8.96994347 15.92342741 -7.70272533 14.17321522 -6 12 C-4.98470459 9.67328135 -3.98511802 7.3396553 -3 5 C-2.03182008 3.31464976 -1.04349839 1.63978318 0 0 Z " fill="#C41F66" transform="translate(219,251)"/>
<path d="M0 0 C2.8045156 1.4022578 3.0442118 3.06070622 4.1875 5.9375 C4.55230469 6.83339844 4.91710937 7.72929688 5.29296875 8.65234375 C6 11 6 11 5 13 C4.34 12.67 3.68 12.34 3 12 C2.67 12.66 2.34 13.32 2 14 C1.34 14 0.68 14 0 14 C-2.04494172 9.91011656 -2.05725219 7.42123641 -1 3 C-0.67 2.01 -0.34 1.02 0 0 Z " fill="#CE1B69" transform="translate(754,576)"/>
<path d="M0 0 C1.32 0 2.64 0 4 0 C4.103125 0.61875 4.20625 1.2375 4.3125 1.875 C4.87525373 4.36526484 4.87525373 4.36526484 8 6 C8.66 5.67 9.32 5.34 10 5 C10 5.99 10 6.98 10 8 C10.66 8 11.32 8 12 8 C12 8.66 12 9.32 12 10 C12.66 10 13.32 10 14 10 C13.67 11.98 13.34 13.96 13 16 C8.14396737 11.44746941 3.97880604 6.33140264 0 1 C0 0.67 0 0.34 0 0 Z " fill="#D71C6E" transform="translate(528,476)"/>
<path d="M0 0 C0.99 0 1.98 0 3 0 C3 0.66 3 1.32 3 2 C3.66 2 4.32 2 5 2 C5 3.65 5 5.3 5 7 C2.03 6.505 2.03 6.505 -1 6 C-1 6.66 -1 7.32 -1 8 C-2.98 8 -4.96 8 -7 8 C-7 7.34 -7 6.68 -7 6 C-8.98 6 -10.96 6 -13 6 C-13 5.67 -13 5.34 -13 5 C-8.05 5 -3.1 5 2 5 C1.34 3.35 0.68 1.7 0 0 Z " fill="#D71D6E" transform="translate(639,614)"/>
<path d="M0 0 C0.226875 0.639375 0.45375 1.27875 0.6875 1.9375 C1.85250896 4.27193661 1.85250896 4.27193661 4.625 4.75 C5.40875 4.8325 6.1925 4.915 7 5 C6.95875 5.78375 6.9175 6.5675 6.875 7.375 C6.71271266 10.16116119 6.71271266 10.16116119 9 12 C8.67 12.99 8.34 13.98 8 15 C4.37 10.71 0.74 6.42 -3 2 C-2.01 1.34 -1.02 0.68 0 0 Z " fill="#1D010D" transform="translate(367,363)"/>
<path d="M0 0 C3.25516428 3.16474305 6.32008793 6.32752791 9 10 C9 10.66 9 11.32 9 12 C9.99 12.33 10.98 12.66 12 13 C12.33 13.99 12.66 14.98 13 16 C12.34 16 11.68 16 11 16 C9.76810364 14.56833667 8.54288766 13.12969627 7.37109375 11.6484375 C5.86083274 9.76197212 5.86083274 9.76197212 3.25 7.4375 C0.85492707 4.84283766 0.29675824 3.46217952 0 0 Z " fill="#2D0213" transform="translate(232,388)"/>
<path d="M0 0 C0.66 0.33 1.32 0.66 2 1 C0.576875 1.8971875 0.576875 1.8971875 -0.875 2.8125 C-4.13964197 4.81562526 -4.13964197 4.81562526 -6 8 C-8.1640625 8.29296875 -8.1640625 8.29296875 -10.625 8.1875 C-11.44226563 8.16042969 -12.25953125 8.13335937 -13.1015625 8.10546875 C-13.72804688 8.07066406 -14.35453125 8.03585938 -15 8 C-13.55098565 5.10197129 -11.55576719 4.72596064 -8.625 3.4375 C-7.64789063 3.00308594 -6.67078125 2.56867188 -5.6640625 2.12109375 C-3 1 -3 1 0 0 Z M-10 8 C-9.67 8.66 -9.34 9.32 -9 10 C-9.66 9.67 -10.32 9.34 -11 9 C-10.67 8.67 -10.34 8.34 -10 8 Z " fill="#B6185B" transform="translate(275,204)"/>
<path d="M0 0 C4.54109672 4.26587874 8.24735246 9.03612328 12 14 C10.68 14.33 9.36 14.66 8 15 C7.34 12.69 6.68 10.38 6 8 C4.68 7.67 3.36 7.34 2 7 C1.34 4.69 0.68 2.38 0 0 Z " fill="#BB1B61" transform="translate(333,326)"/>
<path d="M0 0 C0.66 0.99 1.32 1.98 2 3 C1.67 3.66 1.34 4.32 1 5 C1.66 5 2.32 5 3 5 C3.99 7.31 4.98 9.62 6 12 C5.01 12.495 5.01 12.495 4 13 C2.82750647 11.54634731 1.66216184 10.08692581 0.5 8.625 C-0.47453125 7.40683594 -0.47453125 7.40683594 -1.46875 6.1640625 C-3 4 -3 4 -3 2 C-2.01 1.34 -1.02 0.68 0 0 Z " fill="#1B010B" transform="translate(339,326)"/>
<path d="M0 0 C3.9252025 3.70090521 6.94580156 7.54959656 10 12 C9.01 12.495 9.01 12.495 8 13 C8 12.34 8 11.68 8 11 C6.35 10.67 4.7 10.34 3 10 C2.67 8.02 2.34 6.04 2 4 C1.34 4 0.68 4 0 4 C0 2.68 0 1.36 0 0 Z " fill="#C61D65" transform="translate(647,437)"/>
<path d="M0 0 C-0.185625 0.61875 -0.37125 1.2375 -0.5625 1.875 C-1.23686176 4.04160178 -1.23686176 4.04160178 0 6 C-0.99 7.485 -0.99 7.485 -2 9 C-3.98 6.03 -5.96 3.06 -8 0 C-3 -1 -3 -1 0 0 Z " fill="#D91C6C" transform="translate(504,436)"/>
<path d="M0 0 C4.29 0 8.58 0 13 0 C10.23719462 1.84187025 8.19292174 2.72248277 5.0625 3.6875 C4.20785156 3.95949219 3.35320312 4.23148438 2.47265625 4.51171875 C-0.10510574 5.02075548 -1.54449337 4.84888744 -4 4 C-3.67 3.34 -3.34 2.68 -3 2 C-2.01 2 -1.02 2 0 2 C0 1.34 0 0.68 0 0 Z " fill="#1A010C" transform="translate(275,200)"/>
<path d="M0 0 C-7.50216736 3.0517291 -13.94635715 3.33608711 -22 3 C-22 2.67 -22 2.34 -22 2 C-19.08483516 1.46915208 -16.16839443 0.95000945 -13.25 0.4375 C-12.425 0.28603516 -11.6 0.13457031 -10.75 -0.02148438 C-9.95078125 -0.16005859 -9.1515625 -0.29863281 -8.328125 -0.44140625 C-7.5949707 -0.57232666 -6.86181641 -0.70324707 -6.10644531 -0.83813477 C-3.83766713 -1.01247412 -2.16221421 -0.66874807 0 0 Z " fill="#360316" transform="translate(684,734)"/>
<path d="M0 0 C0.33 1.32 0.66 2.64 1 4 C0.54109375 4.38671875 0.0821875 4.7734375 -0.390625 5.171875 C-3.725081 8.00195951 -6.96501303 10.84361355 -10 14 C-10.66 13.67 -11.32 13.34 -12 13 C-11.44570313 12.45730469 -10.89140625 11.91460938 -10.3203125 11.35546875 C-9.23363281 10.28232422 -9.23363281 10.28232422 -8.125 9.1875 C-7.40570312 8.47980469 -6.68640625 7.77210938 -5.9453125 7.04296875 C-3.84641063 4.95600806 -3.84641063 4.95600806 -2 2 C-1.34 2 -0.68 2 0 2 C0 1.34 0 0.68 0 0 Z " fill="#490622" transform="translate(740,694)"/>
<path d="M0 0 C1.68762851 1.6454378 3.3540349 3.31288577 5 5 C5 5.33 5 5.66 5 6 C-1.93 6 -8.86 6 -16 6 C-16 5.67 -16 5.34 -16 5 C-8.08 4.505 -8.08 4.505 0 4 C0 2.68 0 1.36 0 0 Z " fill="#BD2566" transform="translate(517,555)"/>
<path d="M0 0 C3.28788824 3.11016455 5.83735988 6.01618925 8 10 C7.01 10.495 7.01 10.495 6 11 C5.67 9.68 5.34 8.36 5 7 C3.02 7.33 1.04 7.66 -1 8 C-1.33 6.68 -1.66 5.36 -2 4 C-1.01 4 -0.02 4 1 4 C0.67 2.68 0.34 1.36 0 0 Z " fill="#CE1D6A" transform="translate(394,402)"/>
<path d="M0 0 C0.99 0 1.98 0 3 0 C3 0.66 3 1.32 3 2 C3.66 2 4.32 2 5 2 C5 2.66 5 3.32 5 4 C6.32 4.66 7.64 5.32 9 6 C8.34 7.32 7.68 8.64 7 10 C5.82739389 8.71372289 4.6620717 7.42080217 3.5 6.125 C2.8503125 5.40570313 2.200625 4.68640625 1.53125 3.9453125 C0 2 0 2 0 0 Z " fill="#240210" transform="translate(380,383)"/>
<path d="M0 0 C1.66666667 1.66666667 3.33333333 3.33333333 5 5 C5.8971875 5.8353125 5.8971875 5.8353125 6.8125 6.6875 C8 8 8 8 8 10 C6.68 10.33 5.36 10.66 4 11 C4.33 9.68 4.66 8.36 5 7 C3.68 6.67 2.36 6.34 1 6 C0.4465236 3.92446352 0 2.15634036 0 0 Z " fill="#C21A63" transform="translate(472,499)"/>
<path d="M0 0 C2.31 0.33 4.62 0.66 7 1 C7.91058531 4.07322544 8.08886184 6.80097361 8 10 C4.71211176 6.88983545 2.16264012 3.98381075 0 0 Z " fill="#1C020C" transform="translate(456,478)"/>
<path d="M0 0 C2.96404505 2.80804268 5.44499019 5.18315774 7 9 C5.68 9.33 4.36 9.66 3 10 C3 9.34 3 8.68 3 8 C2.34 8 1.68 8 1 8 C0.67 5.36 0.34 2.72 0 0 Z " fill="#C51C66" transform="translate(657,450)"/>
<path d="M0 0 C3.63559661 3.43361902 6.36113346 6.7973607 9 11 C7.68 10.67 6.36 10.34 5 10 C5 9.01 5 8.02 5 7 C4.34 7 3.68 7 3 7 C3 7.66 3 8.32 3 9 C2.34 9 1.68 9 1 9 C1.020625 8.071875 1.04125 7.14375 1.0625 6.1875 C1.15769604 2.97713989 1.15769604 2.97713989 0 0 Z " fill="#BC1B60" transform="translate(411,423)"/>
<path d="M0 0 C0 3 0 3 -2.1875 5.375 C-3.115625 6.24125 -4.04375 7.1075 -5 8 C-5.928125 8.928125 -6.85625 9.85625 -7.8125 10.8125 C-8.534375 11.534375 -9.25625 12.25625 -10 13 C-10.99 12.67 -11.98 12.34 -13 12 C-12.14535156 11.21753906 -11.29070312 10.43507812 -10.41015625 9.62890625 C-9.29425993 8.60678273 -8.17837511 7.58464667 -7.0625 6.5625 C-6.21655273 5.7880957 -6.21655273 5.7880957 -5.35351562 4.99804688 C-2.64001674 2.53775333 -2.64001674 2.53775333 0 0 Z " fill="#262626" transform="translate(161,123)"/>
<path d="M0 0 C3.63559661 3.43361902 6.36113346 6.7973607 9 11 C6 11 6 11 4.3125 9.625 C3 8 3 8 3 6 C2.34 6 1.68 6 1 6 C-0.0625 4.125 -0.0625 4.125 -1 2 C-0.67 1.34 -0.34 0.68 0 0 Z " fill="#2C0213" transform="translate(329,509)"/>
<path d="M0 0 C4.41309542 3.15221101 7.00793014 6.55463907 10 11 C9.01 11.495 9.01 11.495 8 12 C7.34 11.01 6.68 10.02 6 9 C3.44816596 7.79549696 3.44816596 7.79549696 1 7 C0.67 4.69 0.34 2.38 0 0 Z " fill="#270111" transform="translate(311,487)"/>
<path d="M0 0 C3.63559661 3.43361902 6.36113346 6.7973607 9 11 C8.01 11 7.02 11 6 11 C6 10.34 6 9.68 6 9 C3.525 8.01 3.525 8.01 1 7 C0.67 4.69 0.34 2.38 0 0 Z " fill="#2A0111" transform="translate(297,469)"/>
<path d="M0 0 C0.99 0 1.98 0 3 0 C2.71653722 1.91789713 2.4228972 3.83429183 2.125 5.75 C1.88136719 7.35101562 1.88136719 7.35101562 1.6328125 8.984375 C1 12 1 12 -1 16 C-0.67 10.72 -0.34 5.44 0 0 Z " fill="#C52268" transform="translate(761,640)"/>
<path d="M0 0 C0.33 0.99 0.66 1.98 1 3 C1.66 3 2.32 3 3 3 C4.2890625 4.53125 4.2890625 4.53125 5.625 6.5 C6.07101562 7.1496875 6.51703125 7.799375 6.9765625 8.46875 C7.48316406 9.22671875 7.48316406 9.22671875 8 10 C7.01 10.495 7.01 10.495 6 11 C5.67 10.34 5.34 9.68 5 9 C3.02 9 1.04 9 -1 9 C-0.01 7.35 0.98 5.7 2 4 C1.34 4 0.68 4 0 4 C0 2.68 0 1.36 0 0 Z " fill="#2A020F" transform="translate(445,373)"/>
<path d="M0 0 C2.96404505 2.80804268 5.44499019 5.18315774 7 9 C6.01 9.495 6.01 9.495 5 10 C5 9.34 5 8.68 5 8 C3.68 8.33 2.36 8.66 1 9 C0.67 6.03 0.34 3.06 0 0 Z " fill="#C61C63" transform="translate(667,462)"/>
<path d="M0 0 C2.96404505 2.80804268 5.44499019 5.18315774 7 9 C2.25 8.25 2.25 8.25 0 6 C-0.125 2.875 -0.125 2.875 0 0 Z " fill="#C51B64" transform="translate(371,373)"/>
<path d="M0 0 C0.66 0 1.32 0 2 0 C2 1.32 2 2.64 2 4 C1.01 4.66 0.02 5.32 -1 6 C-1.72382467 8.05925139 -1.72382467 8.05925139 -2 10 C-3.32 9.67 -4.64 9.34 -6 9 C-5.05016642 7.49460339 -4.08988109 5.99579653 -3.125 4.5 C-2.59132812 3.6646875 -2.05765625 2.829375 -1.5078125 1.96875 C-0.76144531 0.99421875 -0.76144531 0.99421875 0 0 Z " fill="#BD1F62" transform="translate(226,240)"/>
<path d="M0 0 C2.97 0.495 2.97 0.495 6 1 C6.66666667 4.33333333 7.33333333 7.66666667 8 11 C2.19794344 5.35475578 2.19794344 5.35475578 0 2 C0 1.34 0 0.68 0 0 Z " fill="#CB1E68" transform="translate(514,458)"/>
<path d="M0 0 C4.875 4.625 4.875 4.625 6 8 C4.68 8.33 3.36 8.66 2 9 C0.50178941 5.62902617 0 3.79557881 0 0 Z " fill="#C71B66" transform="translate(634,421)"/>
<path d="M0 0 C0.66 0.99 1.32 1.98 2 3 C-1.3 5.97 -4.6 8.94 -8 12 C-8.66 11.67 -9.32 11.34 -10 11 C-9.44570312 10.45730469 -8.89140625 9.91460937 -8.3203125 9.35546875 C-7.23363281 8.28232422 -7.23363281 8.28232422 -6.125 7.1875 C-5.40570313 6.47980469 -4.68640625 5.77210938 -3.9453125 5.04296875 C-1.84641063 2.95600806 -1.84641063 2.95600806 0 0 Z " fill="#212121" transform="translate(134,149)"/>
<path d="M0 0 C3.26008643 3.16952847 6.22237877 6.39937989 9 10 C8.01 10.495 8.01 10.495 7 11 C6.34 10.01 5.68 9.02 5 8 C4.01 7.67 3.02 7.34 2 7 C0.8125 3.4375 0.8125 3.4375 0 0 Z " fill="#2C0113" transform="translate(344,528)"/>
<path d="M0 0 C1.70884005 1.62339805 3.37446717 3.29319053 5 5 C5 5.66 5 6.32 5 7 C5.99 7.33 6.98 7.66 8 8 C8.33 8.99 8.66 9.98 9 11 C8.34 11 7.68 11 7 11 C7 10.34 7 9.68 7 9 C6.360625 8.731875 5.72125 8.46375 5.0625 8.1875 C3 7 3 7 2 4 C1.34 4 0.68 4 0 4 C0 2.68 0 1.36 0 0 Z " fill="#300114" transform="translate(268,433)"/>
<path d="M0 0 C0.66 0 1.32 0 2 0 C2 0.99 2 1.98 2 3 C3.32 3.33 4.64 3.66 6 4 C6.33 6.31 6.66 8.62 7 11 C5.5 9.625 5.5 9.625 4 8 C4 7.34 4 6.68 4 6 C3.01 5.67 2.02 5.34 1 5 C0.67 3.35 0.34 1.7 0 0 Z " fill="#BA1E63" transform="translate(215,362)"/>
<path d="M0 0 C3.28788824 3.11016455 5.83735988 6.01618925 8 10 C7.443125 9.690625 6.88625 9.38125 6.3125 9.0625 C3.87459567 7.94238179 1.63775814 7.43962636 -1 7 C-0.67 4.69 -0.34 2.38 0 0 Z " fill="#C71863" transform="translate(354,352)"/>
<path d="M0 0 C0.99 0 1.98 0 3 0 C2.54803755 1.60597325 2.08817673 3.20972508 1.625 4.8125 C1.36976563 5.70582031 1.11453125 6.59914063 0.8515625 7.51953125 C0 10 0 10 -2 13 C-1.85915204 11.20793453 -1.71216299 9.41635083 -1.5625 7.625 C-1.48128906 6.62726563 -1.40007812 5.62953125 -1.31640625 4.6015625 C-1 2 -1 2 0 0 Z " fill="#2D0212" transform="translate(209,264)"/>
<path d="M0 0 C2.38564077 0.57584432 4.66682784 1.22227595 7 2 C7 3.98 7 5.96 7 8 C4.35247996 5.42215154 2.05567935 3.08351902 0 0 Z " fill="#24020F" transform="translate(733,544)"/>
<path d="M0 0 C2.66666667 2.66666667 5.33333333 5.33333333 8 8 C7.67 8.66 7.34 9.32 7 10 C4.625 8.9375 4.625 8.9375 2 7 C0.6875 3.3125 0.6875 3.3125 0 0 Z " fill="#250111" transform="translate(472,408)"/>
<path d="M0 0 C2.66666667 2.66666667 5.33333333 5.33333333 8 8 C7.67 8.66 7.34 9.32 7 10 C6.01 9.67 5.02 9.34 4 9 C4 8.01 4 7.02 4 6 C3.01 6 2.02 6 1 6 C0.67 4.02 0.34 2.04 0 0 Z " fill="#B71E61" transform="translate(613,395)"/>
<path d="M0 0 C1.98 0.66 3.96 1.32 6 2 C6.33 4.31 6.66 6.62 7 9 C4.03595495 6.19195732 1.55500981 3.81684226 0 0 Z " fill="#1F000D" transform="translate(598,375)"/>
<path d="M0 0 C0.33 0.66 0.66 1.32 1 2 C-4.14285714 7.57142857 -4.14285714 7.57142857 -8 8 C-8 8.66 -8 9.32 -8 10 C-8.66 10 -9.32 10 -10 10 C-8.5741914 6.54804233 -6.90253666 4.8985744 -3.875 2.75 C-3.15054688 2.22921875 -2.42609375 1.7084375 -1.6796875 1.171875 C-1.12539062 0.78515625 -0.57109375 0.3984375 0 0 Z " fill="#AC1B5B" transform="translate(252,216)"/>
<path d="M0 0 C-0.825 0.474375 -1.65 0.94875 -2.5 1.4375 C-3.325 1.953125 -4.15 2.46875 -5 3 C-5 3.33 -5 3.66 -5 4 C-7.97 4 -10.94 4 -14 4 C-11.28065651 2.64032826 -8.69151905 1.41019278 -5.875 0.3125 C-5.19179688 0.04050781 -4.50859375 -0.23148438 -3.8046875 -0.51171875 C-2 -1 -2 -1 0 0 Z " fill="#330215" transform="translate(698,729)"/>
<path d="M0 0 C0.99 0.33 1.98 0.66 3 1 C1.35 3.64 -0.3 6.28 -2 9 C-2.66 8.67 -3.32 8.34 -4 8 C-2.25 2.25 -2.25 2.25 0 0 Z " fill="#CA1D67" transform="translate(749,677)"/>
<path d="M0 0 C1.98 1.65 3.96 3.3 6 5 C5.67 5.66 5.34 6.32 5 7 C4.01 7 3.02 7 2 7 C2 6.34 2 5.68 2 5 C1.34 5 0.68 5 0 5 C-0.5625 3.0625 -0.5625 3.0625 -1 1 C-0.67 0.67 -0.34 0.34 0 0 Z " fill="#2C0315" transform="translate(633,608)"/>
<path d="M0 0 C2.96404505 2.80804268 5.44499019 5.18315774 7 9 C4 9 4 9 2.375 7.875 C0.52617065 5.35386907 0.34072203 3.06649825 0 0 Z " fill="#BF1D63" transform="translate(721,530)"/>
<path d="M0 0 C2.96404505 2.80804268 5.44499019 5.18315774 7 9 C3.76939581 8.44299928 1.9341777 7.70784878 0 5 C-0.1875 2.3125 -0.1875 2.3125 0 0 Z " fill="#330317" transform="translate(537,488)"/>
<path d="M0 0 C5.875 4.625 5.875 4.625 7 8 C5.02 7.34 3.04 6.68 1 6 C0.67 4.02 0.34 2.04 0 0 Z " fill="#BA1D5F" transform="translate(442,462)"/>
<path d="M0 0 C2.66666667 2.66666667 5.33333333 5.33333333 8 8 C7.67 8.66 7.34 9.32 7 10 C4.625 9.5 4.625 9.5 2 8 C0.91758097 5.33474712 0.50727893 2.8592085 0 0 Z " fill="#B31B5C" transform="translate(432,449)"/>
<path d="M0 0 C1.32 0.33 2.64 0.66 4 1 C3.67 1.66 3.34 2.32 3 3 C3.99 3.33 4.98 3.66 6 4 C6.33 5.65 6.66 7.3 7 9 C4.03595495 6.19195732 1.55500981 3.81684226 0 0 Z " fill="#2A0110" transform="translate(327,317)"/>
<path d="M0 0 C0.33 0 0.66 0 1 0 C1.05416188 1.60379341 1.09286638 3.20811406 1.125 4.8125 C1.14820313 5.70582031 1.17140625 6.59914063 1.1953125 7.51953125 C1 10 1 10 -1 13 C-2.51403812 8.15507803 -1.36602172 4.7408989 0 0 Z " fill="#C11D63" transform="translate(206,280)"/>
<path d="M0 0 C0.66 0 1.32 0 2 0 C2 0.99 2 1.98 2 3 C2.66 3 3.32 3 4 3 C4 4.32 4 5.64 4 7 C4.66 7.33 5.32 7.66 6 8 C5.01 8 4.02 8 3 8 C0.75 5.6875 0.75 5.6875 -1 3 C-0.67 2.01 -0.34 1.02 0 0 Z " fill="#CE1E6A" transform="translate(602,565)"/>
<path d="M0 0 C5.875 1.875 5.875 1.875 7 3 C7.04063832 4.66617115 7.042721 6.33388095 7 8 C4.35247996 5.42215154 2.05567935 3.08351902 0 0 Z " fill="#D01F6C" transform="translate(576,536)"/>
<path d="M0 0 C1.32 0 2.64 0 4 0 C4.12375 0.639375 4.2475 1.27875 4.375 1.9375 C4.684375 2.9584375 4.684375 2.9584375 5 4 C5.66 4.33 6.32 4.66 7 5 C7 5.99 7 6.98 7 8 C7.66 8.33 8.32 8.66 9 9 C8.01 9 7.02 9 6 9 C4.39453125 7.03125 4.39453125 7.03125 2.8125 4.5 C2.28269531 3.6646875 1.75289062 2.829375 1.20703125 1.96875 C0.80871094 1.3190625 0.41039062 0.669375 0 0 Z " fill="#C52067" transform="translate(528,476)"/>
<path d="M0 0 C4.875 4.625 4.875 4.625 6 8 C4.125 7.8125 4.125 7.8125 2 7 C0.74709605 4.55683729 0 2.75474605 0 0 Z " fill="#290314" transform="translate(498,440)"/>
<path d="M0 0 C4.875 4.625 4.875 4.625 6 8 C3 8 3 8 1.3125 6.8125 C-0.40364695 4.44258278 -0.23187108 2.85974334 0 0 Z " fill="#3C051B" transform="translate(608,576)"/>
<path d="M0 0 C0.66 0.33 1.32 0.66 2 1 C1.67 1.66 1.34 2.32 1 3 C1.99 3 2.98 3 4 3 C4.33 4.98 4.66 6.96 5 9 C2.35247996 6.42215154 0.05567935 4.08351902 -2 1 C-1.34 0.67 -0.68 0.34 0 0 Z " fill="#D11E6D" transform="translate(554,505)"/>
<path d="M0 0 C2.96404505 2.80804268 5.44499019 5.18315774 7 9 C6.4225 8.525625 5.845 8.05125 5.25 7.5625 C3.07417916 6.0515133 1.57397552 5.45963849 -1 5 C-0.67 3.35 -0.34 1.7 0 0 Z " fill="#B41A5D" transform="translate(465,490)"/>
<path d="M0 0 C2.4375 0.8125 2.4375 0.8125 5 2 C5.33 2.99 5.66 3.98 6 5 C6.66 5 7.32 5 8 5 C7.67 5.99 7.34 6.98 7 8 C4.35247996 5.42215154 2.05567935 3.08351902 0 0 Z " fill="#270111" transform="translate(648,438)"/>
<path d="M0 0 C-1.75 2.0625 -1.75 2.0625 -4 4 C-6.25 3.75 -6.25 3.75 -8 3 C-8 2.34 -8 1.68 -8 1 C-5.07175348 0.02391783 -3.04386724 -0.08226668 0 0 Z " fill="#D71D70" transform="translate(708,721)"/>
<path d="M0 0 C2.64752004 2.57784846 4.94432065 4.91648098 7 8 C5.02 8 3.04 8 1 8 C0.67 5.36 0.34 2.72 0 0 Z " fill="#C01E63" transform="translate(497,530)"/>
<path d="M0 0 C0.66 0 1.32 0 2 0 C2 0.66 2 1.32 2 2 C2.928125 2.37125 2.928125 2.37125 3.875 2.75 C6.35068687 4.20628639 6.95125002 5.37812506 8 8 C7.01 8 6.02 8 5 8 C3.61328125 6.50390625 3.61328125 6.50390625 2.3125 4.5625 C1.87550781 3.92441406 1.43851563 3.28632812 0.98828125 2.62890625 C0 1 0 1 0 0 Z " fill="#CD1F68" transform="translate(567,524)"/>
<path d="M0 0 C1.98 0.66 3.96 1.32 6 2 C6.33 3.98 6.66 5.96 7 8 C4.35247996 5.42215154 2.05567935 3.08351902 0 0 Z " fill="#22010E" transform="translate(488,518)"/>
<path d="M0 0 C2.96404505 2.80804268 5.44499019 5.18315774 7 9 C4.625 8.4375 4.625 8.4375 2 7 C0.6875 3.375 0.6875 3.375 0 0 Z " fill="#300114" transform="translate(457,389)"/>
<path d="M0 0 C0.66 0.66 1.32 1.32 2 2 C1.875 4 1.875 4 1 6 C-1.0625 7.25 -1.0625 7.25 -3 8 C-1.125 1.125 -1.125 1.125 0 0 Z " fill="#272727" transform="translate(59,253)"/>
<path d="M0 0 C0.33 2.31 0.66 4.62 1 7 C-0.7074998 5.71937515 -2.37373596 4.38232443 -4 3 C-4 2.34 -4 1.68 -4 1 C-2 0 -2 0 0 0 Z " fill="#1E000C" transform="translate(516,546)"/>
<path d="M0 0 C2.475 0.495 2.475 0.495 5 1 C5.33 2.98 5.66 4.96 6 7 C1.125 2.25 1.125 2.25 0 0 Z " fill="#1C010D" transform="translate(658,450)"/>
<path d="M0 0 C1.98 0.66 3.96 1.32 6 2 C6.33 3.98 6.66 5.96 7 8 C4.35247996 5.42215154 2.05567935 3.08351902 0 0 Z " fill="#BD1F63" transform="translate(263,426)"/>
<path d="M0 0 C2.5 2.3125 2.5 2.3125 5 5 C5 5.99 5 6.98 5 8 C2.5 6.8125 2.5 6.8125 0 5 C-0.3125 2.3125 -0.3125 2.3125 0 0 Z " fill="#C02063" transform="translate(604,384)"/>
<path d="M0 0 C0.33 0.66 0.66 1.32 1 2 C-1.31 3.65 -3.62 5.3 -6 7 C-6 5.68 -6 4.36 -6 3 C-5.34 3 -4.68 3 -4 3 C-4 2.34 -4 1.68 -4 1 C-2.68 0.67 -1.36 0.34 0 0 Z " fill="#3B0219" transform="translate(241,224)"/>
<path d="M0 0 C-2.5654594 2.5654594 -4.47686668 2.54046087 -8 3 C-8.33 2.01 -8.66 1.02 -9 0 C-5.93109813 -1.53445094 -3.29905734 -0.54984289 0 0 Z " fill="#1A1A1A" transform="translate(625,914)"/>
<path d="M0 0 C1.9375 0.75 1.9375 0.75 4 2 C4.75 4.125 4.75 4.125 5 6 C1.535 4.02 1.535 4.02 -2 2 C-1.34 1.34 -0.68 0.68 0 0 Z " fill="#242424" transform="translate(212,858)"/>
<path d="M0 0 C1.65 0 3.3 0 5 0 C5 1.98 5 3.96 5 6 C3.31237149 4.3545622 1.6459651 2.68711423 0 1 C0 0.67 0 0.34 0 0 Z " fill="#C81D67" transform="translate(623,594)"/>
<path d="M0 0 C4 2 4 2 5.25 4.625 C5.4975 5.40875 5.745 6.1925 6 7 C5.34 7.66 4.68 8.32 4 9 C2.68 6.03 1.36 3.06 0 0 Z " fill="#280210" transform="translate(752,571)"/>
<path d="M0 0 C1.7074998 1.28062485 3.37373596 2.61767557 5 4 C5 4.66 5 5.32 5 6 C3.68 6 2.36 6 1 6 C-0.0625 4.125 -0.0625 4.125 -1 2 C-0.67 1.34 -0.34 0.68 0 0 Z " fill="#25010F" transform="translate(363,552)"/>
<path d="M0 0 C4.875 4.625 4.875 4.625 6 8 C4.68 7.67 3.36 7.34 2 7 C1.34 4.69 0.68 2.38 0 0 Z " fill="#320217" transform="translate(338,520)"/>
<path d="M0 0 C0.66 0 1.32 0 2 0 C2 0.66 2 1.32 2 2 C3.32 1.34 4.64 0.68 6 0 C6 2.31 6 4.62 6 7 C1.125 3.375 1.125 3.375 0 0 Z " fill="#C21D65" transform="translate(330,509)"/>
<path d="M0 0 C1.70884005 1.62339805 3.37446717 3.29319053 5 5 C5 5.66 5 6.32 5 7 C3.68 7.33 2.36 7.66 1 8 C1.33 6.68 1.66 5.36 2 4 C1.34 4 0.68 4 0 4 C0 2.68 0 1.36 0 0 Z " fill="#C41D66" transform="translate(699,502)"/>
<path d="M0 0 C3.65316671 1.24976756 4.78065836 1.67098753 7 5 C6.67 5.99 6.34 6.98 6 8 C4.02 5.36 2.04 2.72 0 0 Z " fill="#320114" transform="translate(700,503)"/>
<path d="M0 0 C4.875 4.75 4.875 4.75 6 7 C4.02 6.34 2.04 5.68 0 5 C0 3.35 0 1.7 0 0 Z " fill="#2D0316" transform="translate(506,450)"/>
<path d="M0 0 C4.875 4.625 4.875 4.625 6 8 C5.34 8 4.68 8 4 8 C3.67 6.68 3.34 5.36 3 4 C1.68 4 0.36 4 -1 4 C-0.67 2.68 -0.34 1.36 0 0 Z " fill="#C02267" transform="translate(347,344)"/>
<path d="M0 0 C3.3270336 2.2180224 3.88292386 3.27641285 5 7 C4.67 7.66 4.34 8.32 4 9 C3.34 9 2.68 9 2 9 C1.34 6.03 0.68 3.06 0 0 Z " fill="#D41F6E" transform="translate(330,323)"/>
<path d="M0 0 C1.32 0.66 2.64 1.32 4 2 C2.35 3.65 0.7 5.3 -1 7 C-1.04254356 5.00045254 -1.04080783 2.99958364 -1 1 C-0.67 0.67 -0.34 0.34 0 0 Z " fill="#250110" transform="translate(228,233)"/>
<path d="M0 0 C0 3.59857954 -0.95830515 5.09451118 -3 8 C-3.66 8 -4.32 8 -5 8 C-5 6.68 -5 5.36 -5 4 C-2.5 1.75 -2.5 1.75 0 0 Z " fill="#181818" transform="translate(185,103)"/>
<path d="M0 0 C0.99 0 1.98 0 3 0 C4.6875 2 4.6875 2 6 4 C5.01 4.33 4.02 4.66 3 5 C1.68 3.68 0.36 2.36 -1 1 C-0.67 0.67 -0.34 0.34 0 0 Z " fill="#141414" transform="translate(188,841)"/>
<path d="M0 0 C0.6875 1.8125 0.6875 1.8125 1 4 C-0.3125 5.75 -0.3125 5.75 -2 7 C-2.66 7 -3.32 7 -4 7 C-3.34 5.35 -2.68 3.7 -2 2 C-1.34 2 -0.68 2 0 2 C0 1.34 0 0.68 0 0 Z " fill="#39051C" transform="translate(740,694)"/>
<path d="M0 0 C1.65 1.65 3.3 3.3 5 5 C4.67 5.99 4.34 6.98 4 8 C3.01 7.67 2.02 7.34 1 7 C0.67 4.69 0.34 2.38 0 0 Z " fill="#320317" transform="translate(355,541)"/>
<path d="M0 0 C1.32 0 2.64 0 4 0 C5.0625 2.375 5.0625 2.375 6 5 C5.67 5.66 5.34 6.32 5 7 C3.35 4.69 1.7 2.38 0 0 Z " fill="#2B0112" transform="translate(496,528)"/>
<path d="M0 0 C0.66 0.33 1.32 0.66 2 1 C1.360625 1.28875 0.72125 1.5775 0.0625 1.875 C-2.15206079 2.82823451 -2.15206079 2.82823451 -3 5 C-4.32 4.34 -5.64 3.68 -7 3 C-4.69631264 1.93347808 -2.35981813 0.93578995 0 0 Z " fill="#393939" transform="translate(275,48)"/>
</svg>
