<?xml version="1.0" encoding="UTF-8"?>
<svg xmlns="http://www.w3.org/2000/svg" version="1.1" viewBox="0 0 83.3 83.2">
  <!-- Generator: Adobe Illustrator 28.7.1, SVG Export Plug-In . SVG Version: 1.2.0 Build 142)  -->
  <g>
    <g id="Layer_2">
      <g id="Layer_1-2">
        <path d="M26.1,40.2H0l27.5-12.8L40.2,0v26c0,7.8-6.3,14.1-14.1,14.1h0Z"/>
        <path d="M57.1,40.2h26.1l-27.5-12.8L43.1,0v26c0,7.8,6.3,14.1,14.1,14.1h0Z"/>
        <path d="M57.1,43.1h26.1l-27.5,12.8-12.7,27.4v-26c0-7.8,6.3-14.1,14.1-14.1h0Z"/>
        <path d="M26.1,43.1H0l27.5,12.8,12.7,27.4v-26c0-7.8-6.3-14.1-14.1-14.1h0Z"/>
      </g>
    </g>
  </g>
</svg>