<svg xmlns="http://www.w3.org/2000/svg" viewBox="0 0 200 200"><path fill="#4A4A4A" d="M0 0h200v200H0z"/><path fill="#181818" d="m90.5 11.688 2.388.012c11.457.218 22.801 2.137 31.862 9.55 2.368 2.894 3.853 5.677 5.355 9.078.788 1.86.788 1.86 2.895 2.672 2.137 6.215 3.448 12.434 3 19-1.514-2.761-2.276-5.086-2.75-8.188C132.084 38.456 130.085 33.77 126 30c-2.355-.608-4.141-.512-6.555-.254-2.698.28-5.126.103-7.82-.183l-2.46-.247C107 29 107 29 104 28c-2.31-.297-4.622-.505-6.941-.719C95 27 95 27 93 26v2l-8 3-1 7h-2v3l4-1-1 3-3 1-3-3 2 4-1.813.5C75.78 47.837 75.267 51.192 74 55c-1.506 3.742-3.138 7.42-5 11h2l.875 2.438c.858 2.695.858 2.695 3.125 3.562.563 1.813.563 1.813 1 4l.563 2.25L77 80l-4-1v2c-.835 2.504-1.794 4.668-3 7l-2-2-.438 2.313C67 91 67 91 66 94l3 1-3 3 3 1v3l5-1v-2h2v-2l-2-1c-.89-3.645-1.237-6.427 0-10h3l1-4c6.75-2.125 6.75-2.125 9-1v-2l4 1-1 3a100 100 0 0 0 0 5h3l1 3-.125-3.063c.13-4.118.858-7.055 2.125-10.937h-4c1-3 1-3 3.5-4.75 3.262-2.936 3.105-4.989 3.5-9.25 2-2 2-2 4.625-2.125L106 61c-3.686-2.456-3.686-2.456-8-3l-2 1-3-2c2.53-3.092 5.225-3.91 9-5l-9-1c3.323-3.938 3.323-3.938 6.75-4.25L102 47v-2c4.973.497 8.638 1.553 13 4l1-3 1-3-2-1 4-3 2 1-3 9 6 1v-4h2l1 6 2-1c1.5 1.375 1.5 1.375 3 3v2h7c1.43 2.354 2.087 3.48 1.625 6.25L140 64l-1-2c-2.527-.656-2.527-.656-5-1l2 3c.125 3.188.125 3.188 0 6l-4-3v5c-2.313-.438-2.313-.438-5-2-2.148-4.288-3-8.218-3-13h-8l-.313 2.188C115 62 115 62 113.438 64.188 111.34 68.293 111.382 72.46 112 77c2.421 2.421 3.801 2.528 7.125 3.125l2.758.508L124 81l-.563 1.813c-.658 2.351-.658 2.351.563 5.187-1.875.625-1.875.625-4 1l-2-2c-2.9-.307-5.718-.512-8.625-.625l-2.43-.117A860 860 0 0 0 101 86v2l3 1-1 3h-2c1.309 3.122 1.309 3.122 4 5v2c3.153.7 5.727 1 9 1 2.625.313 2.625.313 5 1 2 3 2 3 1.563 5.438L120 109c.369 2.232.369 2.232 1 4l4 1c-.57 3.311-1.546 4.75-4 7l-1 2h2l-1 4h2c.625 1.875.625 1.875 1 4-2 2-2 2-5.52 2.16a317 317 0 0 1-4.293-.097c-4.512-.11-8.776-.181-13.187.937l3-3-1.758-.48c-6.619-1.977-10.428-4.525-15.18-9.583-2.189-2.056-4.493-3.43-7.124-4.859-2.792-1.553-5.458-3.294-8.141-5.027-1.923-1.207-1.923-1.207-4.797-2.051-.688-2.063-.688-2.063-1-4h-2c-2.15-6.449-1.306-12.723 1-19 2.505-9.462 2.723-19.528 0-29H54c-.483-11.26.494-22.405 7-32 3.676-3.516 7.73-6.249 12-9l3-2c4.916-2.046 9.261-2.35 14.5-2.313Z"/><path fill="#585858" d="M109 133h3l-1 19 4.875 2.563c7.98 4.383 14.785 8.867 20.938 15.625 4.608 4.82 8.758 6.468 15.207 7.898 2.98.914 2.98.914 5.386 2.894 3.226 2.512 6.368 3.165 10.281 3.958 10.456 2.389 18.76 6.212 26.313 14.062v1H82l2-6h-2l1-1.813c1.208-2.24 1.208-2.24 1-5.187-1.738-2.379-2.802-2.95-5.688-3.688L76 183l1-5 6 1-1-2.25C81 174 81 174 81 170h3c2.757 4.795 3.533 8.586 4 14h3c2.632-6.159 4.716-12.236 6.29-18.75C98 163 98 163 100 161l-1-3h-2c1.501-5.484 3.067-10.111 6-15l-.125-2.625L103 138c2.438-1.688 2.438-1.688 5-3z"/><path fill="#1F1F1F" d="m90.5 11.688 2.388.012c11.457.218 22.801 2.137 31.862 9.55 2.368 2.894 3.853 5.677 5.355 9.078.788 1.86.788 1.86 2.895 2.672 2.137 6.215 3.448 12.434 3 19-1.514-2.761-2.276-5.086-2.75-8.188C132.084 38.456 130.085 33.77 126 30c-2.355-.608-4.141-.512-6.555-.254-2.698.28-5.126.103-7.82-.183l-2.46-.247C107 29 107 29 104 28c-2.31-.297-4.622-.505-6.941-.719C95 27 95 27 93 26v2l-8 3-1 7h-2v3l4-1-1 3-3 1-3-3 2 4-1.813.5C75.78 47.837 75.267 51.192 74 55c-1.506 3.742-3.138 7.42-5 11h2l.875 2.438c.858 2.695.858 2.695 3.125 3.562.563 1.813.563 1.813 1 4l.563 2.25L77 80l-4-1v2c-.835 2.504-1.794 4.668-3 7l-2-2-.438 2.313C67 91 67 91 66 94l3 1-3 3 3 1v3l5-1v-2h2v-2l-2-1c-.89-3.645-1.237-6.427 0-10h3l1-4 7-2c.75 2.188.75 2.188 1 5-1.938 2.813-1.938 2.813-4 5l2 3-3 1-1 3h-2v4l4-2 1 3a181 181 0 0 1-4 4h-1v1l-2.875.375c-3.212.342-3.212.342-5.125 2.625l-3-1c-.688-2.063-.688-2.063-1-4h-2c-2.15-6.449-1.306-12.723 1-19 2.505-9.462 2.723-19.528 0-29H54c-.483-11.26.494-22.405 7-32 3.676-3.516 7.73-6.249 12-9l3-2c4.916-2.046 9.261-2.35 14.5-2.313Z"/><path fill="#2D2D2D" d="M81 15c3.716-.2 4.772-.152 8 2 .188 2.625.188 2.625 0 5 3.18 1.801 6.042 2.496 9.64 3.07l3.243.528 3.367.527c1.127.182 2.253.364 3.414.55Q112.83 27.347 117 28l1-3v3l2 1c-3.143 1.048-4.76.982-8 .625l-2.625-.273C107 29 107 29 104 28c-2.31-.297-4.622-.505-6.941-.719C95 27 95 27 93 26v2l-8 3-1 7h-2v3l4-1-1 3-3 1-3-3 2 4-1.813.5C75.78 47.837 75.267 51.192 74 55c-1.506 3.742-3.138 7.42-5 11h2l.875 2.438c.858 2.695.858 2.695 3.125 3.562.563 1.813.563 1.813 1 4l.563 2.25L77 80l-4-1v2c-.835 2.504-1.794 4.668-3 7l-2-2-.438 2.313C67 91 67 91 66 94l3 1-3 3 3 1v3l5-1v-2h2v-2l-2-1c-.89-3.645-1.237-6.427 0-10h3l1-4 7-2c.75 2.188.75 2.188 1 5-1.938 2.813-1.938 2.813-4 5l2 3-3 1-1 3h-2v4l4-2 1 3a181 181 0 0 1-4 4h-1v1l-2.875.375c-3.212.342-3.212.342-5.125 2.625l-3-1c-.688-2.063-.688-2.063-1-4h-2c-2.15-6.449-1.306-12.723 1-19 2.138-8.074 3.87-19.259 0-27h5c.93-2.606 1.15-3.642.063-6.25L69 51l2-1-4-2 1-3 2-1-1-2 9-2-1-4 3-2 1-3-13-1v-1l8-1-3-3 9 1-2-7 5 3-1.438-2.375c-.9-1.514-1.774-3.049-2.562-4.625"/><path fill="#545454" d="M109 133h3l-.124 1.712c-.178 2.554-.34 5.108-.501 7.663l-.195 2.695-.157 2.578-.158 2.38c-.066 2.21-.066 2.21 2.135 3.972v3h-3l.254 3.684.308 4.754.17 2.431c.13 2.042.203 4.086.268 6.131-1 1-1 1-4.438 1.313L103 176c-1.092 1.933-1.092 1.933-2 4-3.125 1.25-3.125 1.25-6 2v5l-4 2 1 11H82l2-6h-2l1-1.813c1.208-2.24 1.208-2.24 1-5.187-1.738-2.379-2.802-2.95-5.688-3.688L76 183l1-5 6 1-1-2.25C81 174 81 174 81 170h3c2.757 4.795 3.533 8.586 4 14h3c2.632-6.159 4.716-12.236 6.29-18.75C98 163 98 163 100 161l-1-3h-2c1.501-5.484 3.067-10.111 6-15l-.125-2.625L103 138c2.438-1.688 2.438-1.688 5-3z"/><path fill="#585858" d="m112 153 4 2 2.445 1.191c9.988 5.11 17.538 12.13 24.555 20.809h-11l-1-4h-2c.394 3.39.813 5.698 2.625 8.625C133 184 133 184 132.688 186.313L132 188l-1-1c-2.415-.417-2.415-.417-5 0a249 249 0 0 0-3 4c-3.188 1.25-3.188 1.25-6 2l-2-4h2v-3h-8l1-7 3-1h-11v-3l8-1v-17h3z"/><path fill="#383838" d="m114 177-1 2h-3l1 3v3l6 1v3h-2l2 3c4.824-1.27 4.824-1.27 8-5h3v2h2v4l3 1h-2l2 6H92c-1.78-4.45-2.212-6.437-2-11l5-2v-5c6.434-4.352 11.252-5.728 19-5"/><path fill="#2F2F2F" d="m119 85 1 4 4-1-1 4c2.397.68 2.397.68 5 1l2-2 2 4 3-2c.363 5.802-.743 9.64-3 15h-1l-1-7 .105 1.688c.18 5.04-.34 8.855-2.351 13.488-1.395 3.376-1.865 6.308-1.754 9.949 0 3.875 0 3.875-1 5.875-2-1-2-1-3-4l-2-1 2-4h-2l1-5h3c-.267-1.985-.267-1.985-1-4l-3-1c-1.125-6.625-1.125-6.625 0-10-3.85-2.567-5.586-1.833-10-1v-2l-2.375-.375c-3.261-.776-4.291-2.291-6.625-4.625v-3l2-1v-2l-2-1v-2l3.684.035 4.754.028 2.431.025c2.044.009 4.088-.036 6.131-.088z"/><path fill="#171717" d="M92 12c11.54-.692 23.7 1.845 32.75 9.25 2.368 2.894 3.853 5.677 5.355 9.078.788 1.86.788 1.86 2.895 2.672 2.137 6.215 3.448 12.434 3 19-1.514-2.761-2.276-5.086-2.75-8.188-1.173-5.41-3.297-9.876-7.25-13.812-2.963-1.41-5.75-1.743-9-2l-2.45-.285c-3.433-.383-6.847-.688-10.3-.82-6.747-.363-6.747-.363-9.438-3.207-.868-2.874-.822-3.932.188-6.688v-3z"/><path fill="#313131" d="M81 15c3.716-.2 4.772-.152 8 2 .188 2.625.188 2.625 0 5 3.18 1.801 6.042 2.496 9.64 3.07l3.243.528 3.367.527c1.127.182 2.253.364 3.414.55Q112.83 27.347 117 28l1-3v3l2 1c-3.143 1.048-4.76.982-8 .625l-2.625-.273C107 29 107 29 104 28c-2.31-.297-4.622-.505-6.941-.719C95 27 95 27 93 26v2l-8 3-1 7h-2v3l4-1-1 3-3 1-3-3 2 4-1.813.5C75.78 47.837 75.267 51.192 74 55c-1.506 3.742-3.138 7.42-5 11l2 1h-3l-1 2-.684-6.055C66.087 60.926 66.087 60.926 65 59h5c.93-2.606 1.15-3.642.063-6.25L69 51l2-1-4-2 1-3 2-1-1-2 9-2-1-4 3-2 1-3-13-1v-1l8-1-3-3 9 1-2-7 5 3-1.438-2.375c-.9-1.514-1.774-3.049-2.562-4.625"/><path fill="#606060" d="M124 161c3.437.594 5.247 1.794 7.813 4.125l2.082 1.89c6.647 6.265 6.647 6.265 9.105 8.985v1h-11l-1-4h-2c.394 3.39.813 5.698 2.625 8.625C133 184 133 184 132.688 186.313L132 188l-1-1c-2.415-.417-2.415-.417-5 0a249 249 0 0 0-3 4c-3.188 1.25-3.188 1.25-6 2l-2-4h2v-3h-2v-4l1.938-.938c1.998-.897 1.998-.897 3.062-2.062a100 100 0 0 1 5 0l.313-2.688c.699-3.37 1.774-5.485 3.687-8.312l-3 1c-1.563-1.188-1.563-1.188-3-3 .313-2.688.313-2.688 1-5"/><path fill="#868686" d="M109 133h3l-.124 1.712c-.178 2.554-.34 5.108-.501 7.663l-.195 2.695-.157 2.578-.158 2.38c-.066 2.21-.066 2.21 2.135 3.972v3h-3l.254 3.684.308 4.754.17 2.431c.13 2.042.203 4.086.268 6.131-1 1-1 1-3.066 1.098l-2.496-.036-2.504-.027L101 175l-1 2c-.444-4.88.348-8.37 2-13 2.007-5.689 2.496-10.024 1.5-16-.582-3.49-.9-6.472-.5-10 2.438-1.813 2.438-1.813 5-3z"/><path fill="#393939" d="m106 44-4 1v2l-7 2c2.008 2.008 5.327 2.271 8 3-3.188 2.125-5.265 2.502-9 3v2c3.623 1.208 4.641.543 8-1l1 3 5 1c-2.639 1.414-5.071 2.372-8 3l-.125 3.188c-1.154 5.028-2.8 5.84-6.875 8.812l-1 2 6-2-.965 1.691c-1.134 2.53-1.398 4.492-1.597 7.246C95.153 87.36 94.781 90.647 94 94c-1.063-1.875-1.063-1.875-2-4l1-2h-3c-1.125-5.75-1.125-5.75 0-8l-3-2 3-2a113 113 0 0 0 3-5l1-1c.04-1.666.043-3.334 0-5h-3c-1.316-3.62-2-6.096-2-10h2v-2l-3-1a91 91 0 0 1 4-4h2v-2c4.138-3.386 6.911-3.098 12-2"/><path fill="#191919" d="m119 39 2 1-3 9 6 1v-4h2l1 6 2-1c1.5 1.375 1.5 1.375 3 3v2h7c1.43 2.354 2.087 3.48 1.625 6.25L140 64l-1-2c-2.527-.656-2.527-.656-5-1l2 3c.125 3.188.125 3.188 0 6l-4-3v5c-2.313-.438-2.313-.438-5-2-2.148-4.288-3-8.218-3-13h-8l-1 3-1-6 5 1-2-4h-2c-.2-3.716-.152-4.772 2-8l-2-1z"/><path fill="#525252" d="M129 173h2l1 3 9 1-3 3c-.57 2.041-.57 2.041-.688 4.188L137 188c2.918 1.968 5.81 3.892 8.875 5.625L148 195v2h2v3h-17c-3-7-3-7-3-11h-2v-2l-2-1a100 100 0 0 1 5 0l1 1c-.52-2.7-1.295-4.545-2.625-7-1.375-3-1.375-3-1.063-5.375z"/><path fill="#3A3A3A" d="M104 87h11l-2 4 2.125.375c3.052.663 5.928 1.597 8.875 2.625v3l3 1v6h-2l-2 6-2-1 1-7c-6.06-1.081-6.06-1.081-12 0v-2l-2.313-.125C105 99 105 99 103.188 95.937L102 93l10 3v-3l-7-1z"/><path fill="#444" d="M125 187h3v2h2v4l3 1h-2l2 6h-25l1-8c2.82-.725 4.643-1.09 7.5-.375 2.622.632 2.622.632 5.25-.938 2.339-1.491 2.339-1.491 3.25-3.687"/><path fill="#151515" d="M116 16c6.466 2.803 9.954 5.455 12.93 11.914.942 2.13.942 2.13 2.597 3.5 3.879 4.177 4.66 12.28 4.66 17.836L136 52c-1.514-2.761-2.276-5.086-2.75-8.188-1.171-5.4-3.29-9.893-7.25-13.812-4.06-1.874-7.958-2-12.375-2C111 28 111 28 108 26c1.238-3.714 2.852-4.774 6-7h2z"/><path fill="#616161" d="M59 58c6.875 1.875 6.875 1.875 8 3 .291 2.222.508 4.454.688 6.688l.324 3.699C68 75.103 67.559 77.635 66 81l-3 1-.367 2.117-.508 2.758-.492 2.742C61 92 61 92 59 94c-1.66-3.318-.573-6.393 0-10l1-1-4-4h2l1-3h1l-1-3c1.5-4.5 1.5-4.5 3-6l-4-2 2-2 1-2-4 1z"/><path fill="#2A2A2A" d="M54.563 162.75c.95.18 1.9.36 2.878.547C60 164 60 164 63 166l1.188-1.563C66 163 66 163 68.561 163.063c2.438.938 2.438.938 3.75 3L73 168l2.813-.5C79 167 79 167 82 167l-1 9a166 166 0 0 1-9.105-2.559l-2.983-.92q-3.07-.95-6.14-1.906C56.882 168.803 51.033 167.247 45 166v-2c3.472-2.2 5.59-2.05 9.563-1.25"/><path fill="#383838" d="m80 76 2 1-1 2 5-1 1 3-1.934.332-2.504.48-2.496.458L78 83l-1 3-2 1c-1.082 4.69-1.22 7.691 1 12h-2v2h-2l-1 2c-2-1-2-1-3-4l-2-1 1-3-.5-1.813c-.667-2.92-.094-5.281.5-8.187l3 1c1.108-1.883 1.108-1.883 2-4l-1-2 2-2c3.125.375 3.125.375 6 1z"/><path fill="#757575" d="m102 145 2 1c2.257 7.674.593 13.867-2.125 21.133-.868 2.845-1.202 4.918-.875 7.867l2 2-1 2c-2.77.729-5.129 1-8 1 2.031-15.031 2.031-15.031 6-19l-1-3h-2q.68-2.409 1.375-4.813l.773-2.707C100 148 100 148 102 145"/><path fill="#383838" d="m126 71 2 1c.594 2.649.742 5.292 1 8l5 1c.054 2.125.093 4.25.125 6.375l.07 3.586C134 94 134 94 132 96l-2-4-3 2c-1.938-.5-1.938-.5-4-2-1.197-5.215-1.31-8.137 1-13 .741-2.652 1.364-5.32 2-8"/><path fill="#454545" d="m117 59 3 1 .488 6.055c.386 2.34.386 2.34 3.512 3.945.547 2.094.547 2.094.75 4.5l.234 2.406C125 79 125 79 124 81c-1.626-.114-3.25-.242-4.875-.375-.905-.07-1.81-.14-2.742-.21C114 80 114 80 112 78v-3l6-1-4-2c.875-3.875.875-3.875 2-5 .23-1.347.412-2.704.563-4.063z"/><path fill="#373737" d="m70 183 1.938.563L74 184l1-1c2-.04 4-.043 6 0l1 3 3 1c-.616 4.005-2.55 6.83-5 10h-3l-1-4h-4v-5l-3-1z"/><path fill="#393939" d="m90 59 1 2h3v2l1.938.688C98 65 98 65 98.75 67.624L99 70l-4.59 3.71C92.867 74.968 92.867 74.968 92 77l6-2-.965 1.691c-1.134 2.53-1.398 4.492-1.597 7.246C95.153 87.36 94.781 90.647 94 94c-1.063-1.875-1.063-1.875-2-4l1-2h-3c-1.125-5.75-1.125-5.75 0-8l-3-2 3-2a113 113 0 0 0 3-5l1-1c.04-1.666.043-3.334 0-5h-3z"/><path fill="#292929" d="m96 103-.063 2.938c-.293 2.937-.293 2.937 1.063 4.062.364 1.66.7 3.327 1 5h2v2h2l1-2 3 3c-1.293 2.884-2.66 4.872-5 7l-3-2v-2l-2-1-2-4-2-1c-.414-2.285-.414-2.285-.625-5.063l-.227-2.785L91 105c3-2 3-2 5-2"/><path fill="#636363" d="M81 170h3c2.636 4.673 4.804 9.576 5 15-1.875 2.563-1.875 2.563-4 4l-1.688-2.438c-2.53-2.804-3.638-3.256-7.312-3.562l1-5 6 1-1-2.25C81 174 81 174 81 170"/><path fill="#313131" d="m119 39 2 1-3 9 6 1v-4h2c.223 1.748.428 3.499.625 5.25l.352 2.953C127 57.134 126.53 58.545 125 61l-1-4h-8l-1 3-1-6 5 1-2-4h-2c-.2-3.716-.152-4.772 2-8l-2-1z"/><path fill="#909090" d="M109 133h3l-2 21-2-1v-3l-1.938-.563C104 148 104 148 103.25 144.563A94 94 0 0 1 103 138a99 99 0 0 1 5-3z"/><path fill="#474747" d="m124 36 1 4h3l-1 10-1-4h-2v4l-6-1c.875-7.75.875-7.75 2-10l-4-2c3.067-1.862 4.597-2.215 8-1"/><path fill="#5E5E5E" d="M126 36c3.485 1.162 4.69 2.167 7 5 1.803 4.78 2.208 8.915 2 14l-1-2-2.438.063C129 53 129 53 128 52l-2 3c.964-10.558.964-10.558 2-15l-2-1z"/><path fill="#0F0F0F" d="M99 13q2.844.174 5.688.375c1.055.07 2.111.14 3.199.21 3.02.403 5.354 1.156 8.113 2.415v3c-1.813 1.563-1.813 1.563-4 3l-3 2v-3l-3-2-2 2-1.375-2.313A153 153 0 0 0 99 13m4 9 5 1-1 2-4-1z"/><path fill="#1F1F1F" d="M102 45c4.557.438 7.577.85 11 4h-6l.563 1.938L108 53c-1 1-1 1-4.563 1.063L100 54l2-2-9-1c3.323-3.938 3.323-3.938 6.75-4.25L102 47z"/><path fill="#4E4E4E" d="m118 93 6 1v3l3 1v6h-2l-2 6-2-1 1-7h-3l1-4h-2z"/><path fill="#717171" d="M131 167c3.849.555 5.593 2.244 8.25 5l2.14 2.188C143 176 143 176 143 177q-2.718.039-5.438.063l-3.058.035C132 177 132 177 131 176a100 100 0 0 1 0-5l-2-1z"/><path fill="#363636" d="m70 164 3 4 2.813-.5C79 167 79 167 82 167l-1 9a111 111 0 0 1-8.75-2.563l-2.422-.816L68 172l2-1z"/><path fill="#191919" d="m129 91 2 1 1 3 3-2c.363 5.802-.743 9.64-3 15h-1l-1-7-2 2-.875-2.438c-.858-2.695-.858-2.695-3.125-3.562-.625-2.063-.625-2.063-1-4l4 1z"/><path fill="#555" d="m101 138 3 1c.575 4.888-1.333 7.04-4 11-.714 3.194-.714 3.194-1 6l-1 1h3c-.188 2.375-.188 2.375-1 5-2.55 1.164-2.55 1.164-5 2 .43-6.251 1.014-12.042 3-18h2z"/><path fill="#262626" d="m92 56 2.313 1.063c2.698 1.24 2.698 1.24 5.5.062L102 56l1 3 5 1c-2.06 1.103-3.826 1.964-6.125 2.438-2.27.463-2.27.463-3.875 3.562-2-1.375-2-1.375-4-3v-2h-3l-1-4z"/><path fill="#7B7B7B" d="m100 164 2 2c-.105 2.352-.514 4.586-.906 6.906L101 175l2 2-1 2c-2.77.729-5.129 1-8 1 .6-3.683 1.248-7.345 2-11h2z"/><path fill="#292929" d="M126 110h2c-.886 7.595-.886 7.595-1.563 10-.464 2.123-.464 3.955-.437 6.125 0 3.875 0 3.875-1 5.875-2-1-2-1-3-4l-2-1 2-4h-2l1-5h3l.438-3.438C125 111 125 111 126 110"/><path fill="#828282" d="M102 164h3v9h3l2-5h1c.043 2 .04 4 0 6-1 1-1 1-3.066 1.098l-2.496-.036-2.504-.027L101 175l-1 2c-.193-4.824.243-8.496 2-13"/><path fill="#242424" d="M124 25c2.375.688 2.375.688 5 2 1.188 2.563 1.188 2.563 2 5l2 1c2.137 6.215 3.448 12.434 3 19-1.514-2.761-2.276-5.086-2.75-8.188-1.11-5.307-3.543-9.84-7.25-13.812-2.1-.795-2.1-.795-4-1v-2h2z"/><path fill="#232323" d="M80 99h2l1 3a181 181 0 0 1-4 4h-1v1l-2.875.375c-3.212.342-3.212.342-5.125 2.625l-3-1c-1.188-2.563-1.188-2.563-2-5l3-1 2 1v2c1.95-.195 1.95-.195 4-1 1.284-1.984 1.284-1.984 2-4l3 1z"/><path fill="#5D5D5D" d="m117 59 3 1 .586 6.055c.278 2.172.278 2.172 2.414 3.945l-3 4-6-2c.875-3.875.875-3.875 2-5 .23-1.347.412-2.704.563-4.063z"/><path fill="#585858" d="M123 30c2.188 0 2.188 0 5 1 2.342 2.88 5 6.188 5 10-2.468-1.152-4.048-2.048-6-4l-1 3-2-4h-3v-4h2z"/><path fill="#1F1F1F" d="M87 13c3.821.53 6.062 1.497 9 4l-.563 2.313C94.772 22.09 94.772 22.09 96 25c-3.82-.546-5.67-1.946-8-5-.75-3.75-.75-3.75-1-7"/><path fill="#434343" d="M104 87h11l-2 4h4l-1 4-11-3z"/><path fill="#232323" d="M78 15c3.255.349 4.019 1.021 6.25 3.563L86 21l-1 2-4-3 1 1q.55 2.992 1 6l-3-1v-2l-2.438-.813L75 22l-1-3 2-1.438L78 16z"/><path fill="#565656" d="m87 49 3 1h-2v3h3v2l-2 1c-1.133 5.334-1.133 5.334-.063 10.5L90 68l-3 1c-2.706-3.833-3.326-6.325-3-11h3l-1.125-1.688C85 54 85 54 85.875 51.25z"/><path fill="#717171" d="m135 75 3 1c.561 6.455-1.365 11.154-4 17h-1l.035-2.52.028-3.293.035-3.269c.038-2.983.038-2.983-1.098-5.918z"/><path fill="#3C3C3C" d="M88 26h5v2l-8 3-1 7h-2v3l4-1-1 3-3 1c-3.31-5.673-3.31-5.673-2.484-9.21.988-2.173 1.96-3.953 3.484-5.79 2.75-1 2.75-1 5-1z"/><path fill="#535353" d="M132 69c1.875.125 1.875.125 4 1 1.25 3.063 1.25 3.063 2 6l-3-1-1 3h-2v2l-3 1c-.91-3.073-1.089-5.801-1-9l1 2c2.025.652 2.025.652 4 1z"/><path fill="#696969" d="M124 161c4.248.472 6.2 2.967 9 6l-4 3v-2l-3 1c-1.563-1.188-1.563-1.188-3-3 .313-2.688.313-2.688 1-5m4 9 3 1v2l-4-2z"/><path fill="#464646" d="M76 183h5l1 3 3 1c-.313 1.875-.313 1.875-1 4l-3 2c-2-1-2-1-2.852-3.066l-.773-2.496c-.26-.827-.52-1.653-.79-2.504z"/><path fill="#4E4E4E" d="M120 168c4.75.875 4.75.875 7 2l-2 9h-3l-.375-3.438L121 172l-2-1z"/><path fill="#363636" d="m80 76 2 1-1 2 5-1 1 3-1.934.367-2.504.508-2.496.492L78 83l-1 2h-2v-4l-4 1 2-4 6 1z"/><path fill="#2A2A2A" d="m110 73 2 1 .25 1.938L113 78c3.563 1.539 7.187 2.327 11 3l-2 3-1.61-.96c-2.935-1.277-5.452-1.457-8.64-1.665l-3.266-.227L106 81c0-4 0-4 2-6.25z"/><path fill="#666" d="m59 58 7 2 1 5h-3l-1 4v-3h-5l3-5-4 1z"/><path fill="#252525" d="m68 67 4 1c.981 3.053.981 4.947 0 8h-2l-1 7h-1c-.914-5.687-.914-10.313 0-16"/><path fill="#686868" d="m86 190 4 1 2 9h-6a598 598 0 0 1-.563-4.438l-.316-2.496L85 191z"/><path fill="#3B3B3B" d="m99 141 1 4-2 1c-.446 2.255-.783 4.531-1.063 6.813-.981 7.83-.981 7.83-1.937 11.187h-2a365 365 0 0 1-.125-4.875l-.07-2.742C93 154 93 154 95 152a377 377 0 0 0 2-7c.625-1.354 1.272-2.7 2-4"/><path fill="#303030" d="m63 66-2 3h-2l-1 6-4-1-1-5c3.318-3.063 5.552-3.303 10-3"/><path fill="#515151" d="m124 81 4 1 1 4-3 1v3h2l1 3c-3 0-3 0-6-1-1.25-7.625-1.25-7.625 1-11"/><path fill="#313131" d="M133 81h1c.054 2.125.093 4.25.125 6.375l.07 3.586C134 94 134 94 132 96c-1.506-1.964-2.891-3.783-4-6h-2v-3l4-1v2h2z"/><path fill="#565656" d="M129 173h2l1 3 5 1-2 5h-2l-1 2c-4.062-6.4-4.062-6.4-3.75-9.438z"/><path fill="#444" d="M103 52c-3.516 2.344-6.773 3.14-10.82 4.219-2.358.562-2.358.562-3.18 2.781v-4h2v-3c4.553-2.483 7.225-1.685 12 0"/><path fill="#686868" d="m104 153-1 11-3 1c-1.685 1.997-1.685 1.997-3 4 .75-5.75.75-5.75 3-8l-.563-2.438L99 156c1.6-2.208 2.23-3 5-3"/><path fill="#3B3B3B" d="m127 114 2 1c.125 6.75.125 6.75-1 9l.563 2.5.437 2.5-2 2c-2.235-3.352-2.271-4.578-2.25-8.5l-.016-2.906C125 117 125 117 127 114"/><path fill="#272727" d="m92 88 1 3c1.224.075 1.224.075 3-1 .167 4.921.248 8.503-2 13l-3-1 .563-2.563c.472-3.708.013-6.763-.563-10.437z"/><path fill="#959595" d="M107 160h2c.222 1.602.427 3.207.625 4.813l.352 2.707C110 170 110 170 108 173h-3q.214-2.126.438-4.25c.08-.789.162-1.578.246-2.39.292-2.184.737-4.237 1.316-6.36"/><path fill="#787878" d="M130 41h3c1.591 4.873 2.212 8.808 2 14l-1-2h-4l.5-2.313c.662-3.558.451-6.24-.5-9.687"/><path fill="#5A5A5A" d="M67 65v4h-2l-1 3-2 1 1 4-4-2c2.453-10 2.453-10 8-10"/><path fill="#141414" d="M125 62h3l1 2h3v8c-2.375-.5-2.375-.5-5-2-1.082-2.665-1.493-5.14-2-8"/><path fill="#292929" d="m103 88 5 1-3 1v2l7 1v3l-2.875-.5c-2.927-.553-2.927-.553-5.125-.5l-2 2-1-5 2-1z"/><path fill="#252525" d="M86 81c-.375 2.938-.375 2.938-1 6l-2 1-3-2v-2h-2l-1 2c.125-1.875.125-1.875 1-4 5.28-2.36 5.28-2.36 8-1"/><path fill="#5B5B5B" d="M130 109c1.65 2.97 2.66 5.605 3 9-.938 2.313-.938 2.313-2 4l-3-1a280 280 0 0 1-.125-4.313l-.07-2.425C128 112 128 112 130 109"/><path fill="#626262" d="M143 176c1.942.397 3.878.819 5.813 1.25l3.269.703c3.224 1.157 4.208 2.144 5.918 5.047-3.782-.657-7.218-1.72-10.813-3.063l-2.957-1.097L142 178z"/><path fill="#727272" d="M81 170h3c1.998 4.12 2.178 7.452 2 12l-1-2h-2c-1.316-3.62-2-6.096-2-10"/><path fill="#4D4D4D" d="M124 55h1l-1 11h-2v-2h-2l-2-6h3l3-1z"/><path fill="#3A3A3A" d="M67 191c1.033 2.788 1.045 3.868.063 6.75L66 200l-5-2 2-3v-3z"/><path fill="#353535" d="m19.57 162.34 2.715.283 2.84.315 2.863.302q3.507.373 7.012.76v1c-3.104.058-6.208.094-9.313.125l-2.67.05-2.568.02-2.364.032C16 165 16 165 13 163c2.504-1.252 3.8-.958 6.57-.66"/><path fill="#343434" d="m102 93 9 3-2 1v2l5 1-4 2v-2l-2.313-.125C105 99 105 99 103.188 95.937z"/><path fill="#3B3B3B" d="M120 102h2v7l1.375-2 1.625-2h2c-1.074 2.915-1.778 4.778-4 7h-3c-.75-3.663-1.238-6.424 0-10"/><path fill="#2C2C2C" d="M134 93c1.96 3.92.174 8.437-1.063 12.438L132 108h-1c-.08-2.124-.14-4.25-.188-6.375l-.105-3.586L131 95z"/><path fill="#323232" d="m92 56 2.438 1c2.618 1.337 2.618 1.337 5.562 0v3l-2.438.375L95 61l-1 2v-2h-3l-1-4z"/><path fill="#353535" d="m57 55 8 2-1 3-2.313-.625C58.782 58.666 58.782 58.666 56 61c-1.213 3.054-1.213 3.054-2 6-.883-2.467-1.131-3.639-.223-6.14l1.16-2.11 1.153-2.14z"/><path fill="#3A3A3A" d="M90 80h1v5h2l1-3c1.203 2.405 1.1 3.95 1.063 6.625l-.028 2.477L95 93l-2 1c-1.125-3.75-1.125-3.75 0-6h-3c-1.125-5.75-1.125-5.75 0-8"/><path fill="#4D4D4D" d="m96 75 2 1-2 3a179 179 0 0 0-2 4l-1 2h-2c-.125-5.75-.125-5.75 1-8 1.938-1.188 1.938-1.188 4-2"/><path fill="#414141" d="M72 59h1l.684 6.055c.229 2.019.229 2.019 1.316 3.945l-1 2h-2l-1-5h-2c.613-2.962 1.254-4.38 3-7"/><path fill="#303030" d="M132 33c3.802 5.703 4.286 12.279 4 19-1.542-2.833-2.427-5.404-3.063-8.563-.525-2.577-1.102-4.932-1.937-7.437z"/><path fill="#464646" d="m137 177 4 1-3 2a88 88 0 0 0-1 5l-2 3-2-2v-4l2-1c1.134-2.017 1.134-2.017 2-4"/><path fill="#737373" d="M127 178c3 1 3 1 4.75 3.313 1.25 2.687 1.25 2.687.938 5L132 188c-2.5-1.625-2.5-1.625-5-4-.313-3.25-.313-3.25 0-6"/><path fill="#232323" d="M96 103c.18 3.947.094 6.598-2 10v-2l-3-1c-.188-2.375-.188-2.375 0-5 3-2 3-2 5-2"/><path fill="#484848" d="m67 90 2 1 2.063.375L73 92l1 3-3 3-3-1v-2l-2-1z"/><path fill="#3C3C3C" d="M86 175h2l2 5h2l1-4 1 2a136 136 0 0 1-3 7l-3-1c-.73-2.066-.73-2.066-1.188-4.563l-.48-2.503z"/><path fill="#4B4B4B" d="M110 179h5v2h-2l2 5h-6z"/><path fill="#858585" d="m121 93 3 1v3l3 1v4l-5-1z"/><path fill="#151515" d="M67 31c-2.826 4.238-5.122 3.977-10 5l1-5c5.625-1.125 5.625-1.125 9 0"/><path fill="#101010" d="m119 18 5 3c-1.37 3.161-1.99 3.993-5 6-1.125-6.75-1.125-6.75 0-9"/><path fill="#2A2A2A" d="M87 13c3.821.53 6.062 1.497 9 4l-1 4c-3.092-2.062-5.448-4.31-8-7z"/><path fill="#4F4F4F" d="M112 169c2 1.688 2 1.688 4 4v5l-12-1v-1h9z"/><path fill="#222" d="M130 80h3l-1 8h-2c-2-3-2-3-1.688-5.125C129 81 129 81 130 80"/><path fill="#4D4D4D" d="M119 43c3 1 3 1 5 4v3l-6-1a100 100 0 0 1 0-5z"/><path fill="#1C1C1C" d="m124 21 3 3-1 2-2-1v2h-2v2l-4-1-1-4h2l1 2z"/><path fill="#202020" d="m96 17 7 1 1 3c-1.813.625-1.813.625-4 1l-3-2-1 2-1-2z"/><path fill="#242424" d="m83 91 1 2-3 1-1 3h-3v-2l-2-1v-2c2.709-1.354 5.01-1.065 8-1"/><path fill="#262626" d="M119 52h5c-.625 1.938-.625 1.938-2 4-3.125.75-3.125.75-6 1l-1 3-1-6 5 1z"/><path fill="#545454" d="M81 174c2 3 2 3 2 5h-6l-1 2-2-1 1-5 6 1z"/><path fill="#535353" d="m57 59 2 2h2v4l-6 1c-.125-2.375-.125-2.375 0-5z"/><path fill="#686868" d="M126 36c3 1 3 1 4.313 2.75.93 3.047-.03 4.4-1.313 7.25v4h-2l1-10-2-1z"/><path fill="#292929" d="m117 25 1 3 2 1c-3.097 1.032-4.796 1.036-8 .75l-2.625-.203C107 29 107 29 104 26l13 2z"/><path fill="#555" d="m117 187 6 3-4 3-4-2v-2h2z"/><path fill="#343434" d="m92 125 7 4-5 6c-1.109-3.326-1.542-6.53-2-10"/><path fill="#1E1E1E" d="m87 79 4 1-1 7-1-2c-2.025-.652-2.025-.652-4-1z"/><path fill="#626262" d="M112 75a365 365 0 0 1 4.875-.125l2.742-.07C122 75 122 75 124 77q-2.156.253-4.313.5l-2.425.281C115 78 115 78 112 78z"/><path fill="#5F5F5F" d="m101 138 3 1c.566 4.814-1.174 7.203-4 11-1.099-3.297-.871-4.405-.063-7.688l.59-2.449z"/><path fill="#666" d="M106 132h6l-3 1-.938 2c-1.062 2-1.062 2-3.187 2.75L103 138v-3h2z"/><path fill="#333" d="M139 56c1.43 2.354 2.087 3.48 1.625 6.25L140 64l-1-2-3-1c-.688-2.063-.688-2.063-1-4 2-1 2-1 4-1"/><path fill="#3A3A3A" d="M70 183c2.438.813 2.438.813 5 2l1 3c-1.813.625-1.813.625-4 1l-3-2z"/><path fill="#626262" d="m111 170 2 1v5h-9v2l-2-1v-2l8-1z"/><path fill="#737373" d="m100 164 2 2-2 7-1-3h-2l-1 4v-5h2z"/><path fill="#A0A0A0" d="m136 75 2 1c.125 6.75.125 6.75-1 9h-2c-.125-6.625-.125-6.625 1-10"/><path fill="#444" d="M89 73h2c-.25 1.875-.25 1.875-1 4-2.955 2.111-5.439 2.198-9 2v-2c3.133-1.044 3.99-.934 7 0z"/><path fill="#555" d="M74 54c2 3 2 3 1.75 6.625L75 64l-2 1a758 758 0 0 1-.063-4.938l-.035-2.777C73 55 73 55 74 54"/><path fill="#2B2B2B" d="M64 34h8v2h-4l-1 3-3-2z"/><path fill="#444" d="M73 81h2v4l2 1-2 1v2l-3-1v-2l-2-1c1.375-2 1.375-2 3-4"/><path fill="#343434" d="M132 66c2 3 2 3 2 7l-1 2c-1.938-.313-1.938-.313-4-1l-1-3h3z"/><path fill="#4A4A4A" d="M133 81h1c.054 2.125.093 4.25.125 6.375l.07 3.586C134 94 134 94 132 96c-.978-3.796-.927-6.5-.063-10.313l.59-2.675z"/><path fill="#222" d="M55 69h3v6l-4-1z"/><path fill="#3F3F3F" d="m90 59 1 2h3v2h2v5l-2-3h-3z"/><path fill="#272727" d="m98 50 9 1v3h-7l2-2z"/><path fill="#5D5D5D" d="M86 176h1c.445 1.408.855 2.827 1.25 4.25l.703 2.39L89 185l-4 4z"/><path fill="#222" d="m129 91 2 1c.37 6.4.37 6.4-1.5 9.438L128 103c.875-5.75.875-5.75 2-8l-3-1z"/><path fill="#5F5F5F" d="M132 69c1.875.125 1.875.125 4 1 1.25 3.063 1.25 3.063 2 6l-3-1v2l-2-1 2-3-1.5-1.438C132 70 132 70 132 69"/><path fill="#4D4D4D" d="M142 178c4.468.496 5.69.69 9 4l-9-1z"/><path fill="#1E1E1E" d="M107 79c2 3 2 3 2 7h-7l4-1-1-4h2z"/><path fill="#3F3F3F" d="M122 42c2 0 2 0 3.625 1.188 1.796 2.368 1.61 3.911 1.375 6.812l-1-4-3 1-2-2z"/><path fill="#5F5F5F" d="M111 91h6l-1 4-5-2z"/><path fill="#3D3D3D" d="m67 85 5 5-2 1c-2.125-.938-2.125-.938-4-2z"/><path fill="#545454" d="M67 69h1l-1 10-3-3 1-3 2 1z"/><path fill="#313131" d="M128 51c2 1.375 2 1.375 4 3v2l3 1c-5.75-.875-5.75-.875-8-2zM49 162l7 1-1 2h-7z"/><path fill="#3F3F3F" d="M57 161h6v2l-7 1z"/><path fill="#1F1F1F" d="m123 113 2 2-1 3c-2.063.688-2.063.688-4 1 .375-2.438.375-2.438 1-5z"/><path fill="#111" d="M81 113h4v2h2v2l-6-1z"/><path fill="#2E2E2E" d="M120 102h2c.125 3.375.125 3.375 0 7l-2 2c-.845-3.378-1.108-5.675 0-9"/><path fill="#555" d="m134 61 5 1 1 3-3 1v-2l-3-1z"/><path fill="#383838" d="m96 50 7 2c-3 2-3 2-5.188 1.625L96 53z"/><path fill="#2A2A2A" d="m73 21-1 3c-4.75-.75-4.75-.75-7-3 2.862-1.43 4.934-.6 8 0"/><path fill="#2B2B2B" d="M81 15c3.716-.2 4.772-.152 8 2l-1 3-3-2a177 177 0 0 0-4-2z"/></svg>