<svg xmlns="http://www.w3.org/2000/svg" xml:space="preserve" viewBox="1 1 200 200"><path fill="#2875ca" d="M118 201c-11.02 0-22.042 0-33.323-.377-.61-.718-.92-1.308-1.311-1.367-15.674-2.344-29.588-8.64-42.2-18.184-20.598-15.587-33.642-35.775-38.251-61.304C2.79 119.085 1.66 118.585 1 118c0-11.354 0-22.708.373-34.32.817-1.755 1.281-3.248 1.702-4.753 11.33-40.493 36.692-66.529 78.19-76.008C81.954 2.762 82.426 1.661 83 1c11.688 0 23.375 0 35.32.373.604.717.909 1.3 1.305 1.37 15.225 2.692 28.867 8.836 41.205 18.18 20.593 15.597 33.646 35.777 38.255 61.31.123.682 1.254 1.182 1.915 1.767 0 11.02 0 22.042-.377 33.323-.789 1.097-1.302 1.9-1.598 2.775-3.063 9.074-5.123 18.641-9.355 27.128-6.332 12.699-15.281 23.732-26.79 32.381-11.559 8.686-24.07 15.381-38.35 18.486-2.28.496-4.358 1.915-6.53 2.907M105.782 87.37h-16.79c1.962-9.41 8.374-14.742 16.49-14.392 4.577.198 8.25 2.128 10.538 6.207 2.981 5.313 6.656 1.899 9.726.503 3.603-1.638 1.767-4.12.175-6.438-7.795-11.356-16.82-13.41-29.967-10.403-9.923 2.27-15.546 9.844-19.086 19.09-.983 2.568-1.205 6.265-5.629 5.416-4.7-.902-7.403 1.607-9.544 5.386-1.735 3.06-.975 5.017 2.507 5.222 3.113.183 6.246.038 9.376.038v5.997c-1.48 0-2.626-.014-3.773.003-3.699.055-10.044 5.146-9.198 7.854 1.341 4.296 5.45 2.501 8.171 2.263 4.658-.408 6.702 1.41 8.192 5.587 5.143 14.417 14.36 20.57 29.696 20.308 8.79-.15 17.712-6.305 20.614-14.604.399-1.14-.417-3.606-1.41-4.183-5.826-3.38-6.289-3.166-10.716 2.283-4.193 5.162-9.38 6.703-15.398 4.575-5.96-2.108-10.31-7.788-10.308-13.798 3.481 0 7.006-.33 10.44.085 4.118.498 6.612-1.48 8.455-4.602.739-1.25 1.303-3.113.895-4.349-.264-.8-2.427-1.329-3.754-1.359-6.124-.14-12.252-.061-18.588-.061v-6c5.348 0 10.52.827 15.223-.302 2.938-.705 5.208-4.322 7.566-6.83.094-.101-1.987-2.248-3.903-3.496M57.036 57.52c5.949-4.084 11.586-8.762 17.93-12.097C82.277 41.577 83 41.55 81.838 33.6c-.163-1.116-2.656-2.957-3.605-2.706-3.764.997-7.496 2.393-10.965 4.175C37.3 50.46 21.043 82.14 27.257 115.258c5.367 28.608 22.654 48.075 50.349 57.81 1.065.375 3.074.03 3.73-.748 2.557-3.035-.164-10.416-3.529-12.48-7.416-4.553-15.51-8.634-21.55-14.684-24.004-24.045-23.24-63.253.779-87.635m78.33 96.453c-3.03 1.67-5.886 4.084-9.132 4.854-6.326 1.502-6.82 5.65-6.425 10.836.27 3.552 1.548 4.698 5.118 3.382 10.213-3.763 19.533-8.962 27.37-16.577 19.278-18.732 26.753-41.626 22.409-67.934-2.975-18.013-12.048-33.195-26.446-44.47-6.662-5.218-14.616-8.846-22.197-12.786-1.668-.867-4.888-2.509-6.066 1.359-1.726 5.667.062 9.556 5.214 12.016 24.615 11.756 37.895 30.833 37.8 58.57-.073 21.605-10.13 37.797-27.644 50.75"/><path d="M118.469 201c1.703-.992 3.781-2.411 6.06-2.907 14.281-3.105 26.792-9.8 38.35-18.486 11.51-8.65 20.459-19.682 26.791-32.381 4.232-8.487 6.292-18.054 9.355-27.128a4.9 4.9 0 0 1 1.598-2.306C201 145.594 201 173.187 201 201zM1 118.469c.66.116 1.791.616 1.915 1.299 4.61 25.53 17.653 45.717 38.25 61.304 12.613 9.544 26.527 15.84 42.2 18.184.391.059.703.649.843 1.367C56.406 201 28.813 201 1 201zm200-34.938c-.66-.116-1.792-.616-1.915-1.298-4.61-25.533-17.662-45.713-38.255-61.31-12.338-9.344-25.98-15.488-41.205-18.18-.396-.07-.701-.653-.837-1.37C146.261 1 173.521 1 201 1zM82.531 1c-.105.66-.577 1.762-1.266 1.92-41.498 9.478-66.86 35.514-78.19 76.007-.42 1.505-.885 2.998-1.702 4.285C1 55.74 1 28.48 1 1z"/><path fill="#fdfeff" d="M106.206 87.397c1.492 1.221 3.573 3.368 3.479 3.469-2.358 2.508-4.628 6.125-7.566 6.83-4.703 1.129-9.875.302-15.223.302v6c6.336 0 12.464-.078 18.588.061 1.327.03 3.49.56 3.754 1.36.408 1.235-.156 3.097-.895 4.348-1.843 3.121-4.337 5.1-8.455 4.602-3.434-.415-6.959-.085-10.44-.085-.001 6.01 4.348 11.69 10.308 13.798 6.019 2.128 11.205.587 15.398-4.575 4.427-5.45 4.89-5.664 10.716-2.283.993.577 1.809 3.043 1.41 4.183-2.902 8.299-11.823 14.453-20.614 14.604-15.336.262-24.553-5.89-29.696-20.308-1.49-4.177-3.534-5.995-8.192-5.587-2.721.238-6.83 2.033-8.17-2.263-.847-2.708 5.498-7.799 9.197-7.854 1.147-.017 2.294-.003 3.773-.003V98c-3.13 0-6.263.145-9.376-.038-3.482-.205-4.242-2.162-2.507-5.222 2.14-3.779 4.844-6.288 9.544-5.386 4.424.849 4.646-2.848 5.63-5.417 3.539-9.245 9.162-16.82 19.085-19.089 13.146-3.006 22.172-.953 29.967 10.403 1.592 2.319 3.428 4.8-.175 6.438-3.07 1.396-6.745 4.81-9.726-.503-2.289-4.08-5.961-6.01-10.538-6.207-8.116-.35-14.528 4.982-16.49 14.392 5.703 0 11.246 0 17.214.027"/><path fill="#fefeff" d="M56.836 57.822c-23.82 24.081-24.583 63.29-.578 87.334 6.039 6.05 14.133 10.131 21.55 14.683 3.364 2.065 6.085 9.446 3.528 12.481-.656.779-2.665 1.123-3.73.749-27.695-9.736-44.982-29.203-50.35-57.81-6.213-33.12 10.045-64.8 40.013-80.189 3.47-1.782 7.201-3.178 10.965-4.175.949-.251 3.442 1.59 3.605 2.706 1.16 7.95.439 7.976-6.874 11.822-6.343 3.335-11.98 8.013-18.129 12.399m78.826 95.936c17.218-12.737 27.276-28.929 27.35-50.533.094-27.738-13.186-46.815-37.8-58.57-5.153-2.461-6.94-6.35-5.215-12.017 1.178-3.868 4.398-2.226 6.066-1.359 7.58 3.94 15.535 7.568 22.197 12.785 14.398 11.276 23.471 26.458 26.446 44.471 4.344 26.308-3.13 49.202-22.41 67.934-7.836 7.615-17.156 12.814-27.369 16.577-3.57 1.316-4.848.17-5.118-3.382-.395-5.186.1-9.334 6.425-10.836 3.246-.77 6.101-3.183 9.428-5.07"/></svg>