<svg xmlns="http://www.w3.org/2000/svg" width="400" height="400"><path fill="#2b2b2b" d="m188.652.762 2.451-.03C224.924.406 256.387 4.732 287 20l2.222 1.103c47.347 23.73 83.274 64.893 100.528 115.022 5.534 16.752 9.311 34.848 9.488 52.527l.03 2.451c.326 33.821-4 65.284-19.268 95.896l-1.103 2.222c-23.73 47.347-64.893 83.274-115.022 100.528-16.752 5.534-34.848 9.311-52.527 9.488l-2.452.03c-18.284.176-35.999-.047-53.896-4.268l-2.763-.649c-49.099-11.985-94.433-43.794-121.124-86.929C13.694 278.403 1.106 245.594.762 211.348l-.03-2.451C.406 175.076 4.732 143.613 20 113l1.103-2.222C44.833 63.431 85.996 27.504 136.125 10.25 152.877 4.716 170.973.939 188.652.762"/><path fill="#e98982" d="m195 30 3.5.813c6.964 2.363 10.144 5.473 13.398 11.887L213 45l.977 1.895c2.022 4.185 2.11 7.526 2.023 12.105.525 2.389.525 2.389 2 4 2.555.812 2.555.812 5 1l1 5h7l1 4-3.437 1.875c-2.553 1.776-3.433 2.642-4.25 5.684-.227 2.496-.347 4.936-.312 7.441h4l1 3 1.863-.176c2.461-.137 4.697-.19 7.137.176 1.875 2.438 1.875 2.438 3 5l3 1 1 6 1.563-.625c3.47-.534 6.144.548 9.438 1.625v2h2l1.313 1.938c2.132 2.605 3.457 2.497 6.688 3.063 1.625 1.5 1.625 1.5 3 3l3 1c.688 2.063.688 2.063 1 4l1.688.188c3.341 1.174 4.932 3.205 7.313 5.813l1.512 1.535c3.699 3.942 5.591 7.717 7.41 12.781 1.195 2.975 2.706 5.608 4.328 8.371 2.52 4.457 3.425 7.248 2.75 12.313h2c.369 16.708.369 16.708-2 25h-2l-.312 1.563c-1.807 6.408-3.605 9.762-8.801 13.836-2.04 1.732-3.631 3.595-5.324 5.664-3.311 3.902-6.936 6.725-11.562 8.938h-2v2l-8 1v2l-3.75 1.438-2.109.809c-2.146.75-2.146.75-4.287 1.281-1.943.411-1.943.411-3.859 1.531-2 .938-2 .938-6 .938v2l-1.712.076-7.663.362-2.695.119-2.578.127-2.38.111c-2.046.096-2.046.096-3.971 1.205a139 139 0 0 1-6.512-.121l-3.986-.146-4.189-.17-6.163-.234-5.632-.221A294 294 0 0 0 182 229c3.972.724 7.818 1.166 11.852 1.316l3.332.127 3.441.119 3.371.131c7.338.269 14.662.359 22.004.307l-1 3-3.105.184-4.082.254-2.041.119c-2.764.175-5.44.369-8.146.975-4.13.737-8.252.572-12.437.531l-2.678-.014L186 236v-2l-2.809-.184-3.629-.254-3.621-.246C173 233 173 233 172 232a113 113 0 0 0-4.312-.312c-6.078-.57-12.277-1.777-17.687-4.687-1.395-2.469-1.395-2.469-2-5 1.258-4.258 1.258-4.258 3-6l-2-2c-.339-6.323-.339-6.323 1-9h-2l-1 2-.875-3.125a97 97 0 0 0-2.312-7.125C143 194 143 194 144 191l5 1v2l2.688.875c8.131 2.761 8.131 2.761 9.313 5.125h3l-2-2v-3l-1.937-.75C158 193 158 193 157.25 190.875L157 189l-5-1v-2h-2v-2l-1.723.508c-5.522 1.457-8.966 1.705-14.277-.508l-1-2a124 124 0 0 0-6-2.187c-11.888-4.5-17.275-10.585-23-21.812l-1.32-2.551L100 150h-3c.061-1.418.15-2.834.25-4.25l.141-2.391c.821-3.18 2.048-4.322 4.609-6.359 2.988-1.414 2.988-1.414 6.313-2.625l3.469-1.27c3.387-1.163 6.75-2.218 10.219-3.105l-2-1v-9l2-1 2.211-5.211c.981-2.224 2.144-4.001 3.789-5.789h2v-2l5-3 2-2c2-2 2-2 4.5-3.25 2.752-1.926 3.006-2.687 4.188-5.687 1.698-3.77 3.371-4.948 7.188-6.5 10.019-3.33 10.019-3.33 15.125-1.562l-.062-3.25c.05-3.022.293-4.927 1.063-7.75.381-2.662.688-5.328 1-8h2l-.125-3.75c-.012-3.371.489-5.285 2.125-8.25.168-2.667.168-2.667 0-5h2v-4h2l.75-2.625c1.726-4.661 3.748-8.149 7.625-11.312 3.391-1.373 5.104-.978 8.625-.062z"/><path fill="#cfaf75" d="M257 229v3h3l1.654 12.903.562 4.369.812 6.361.269 2.122c.703 5.758 1.055 11.489 1.264 17.288.491 3.309 1.639 5.176 3.439 7.958 1.515 10.363-.105 21.684-5 31-4.146 5.499-8.403 9.762-15 12v2l-2.195.988-2.93 1.324-3.07 1.387a105 105 0 0 0-5.805 2.926c-4.494 2.06-9.216 3.175-14 4.375v3c-3.374 2.603-5.769 3.363-10 3v2c-6.285 3.328-10.887 4.452-18 4v-3l-2.844.492c-4.88.693-9.735.658-14.656.633l-2.94-.012c-23.155-.178-23.155-.178-33.56-4.113l-2.48-.91c-10.454-4.003-20.418-8.611-28.332-16.652l-1.521-1.498C102 322.253 102 322.253 102 320h-2c-3.509-8.626-3.815-16.563-2.437-25.75 4.819-10.895 15.45-21.349 26.125-26.562C126 267 126 267 130 267l.375 3.375c.272 3.656.272 3.656 2.625 5.625.414 2.164.414 2.164.625 4.625l.227 2.477L134 285h-2l1.938 7.375.553 2.117c.995 3.847.995 3.847 2.51 7.508.04 2.333.043 4.667 0 7h2l1 3 2.313.438C145 313 145 313 148 314l-1-2c-1.178-8.018-1.124-16.104-1.062-24.187l.014-3.463L146 276h-2v-20h-3v-2h3l1-9c-1.448 1.448-1.557 3.04-2 5h-3c-1.33-6.286-1.33-6.286.125-9.437C142 239 142 239 144.688 238.75L147 239l-.187-2.875L147 233c3.158-2.105 3.954-2.253 7.563-2.187l2.379.02C159 231 159 231 161 232v2l3.324.148 4.363.227 2.186.094c3.145.172 5.65.331 8.576 1.559 3.859 1.471 7.583 1.224 11.676 1.16l2.68-.026L202 237l2.419-.059c14.382-.413 29.642-1.216 43.581-4.941v-2c3.058-.544 5.888-1 9-1"/><path fill="#fa8280" d="M257 234c2 2 2 2 2 6h2c5.079 36.535 5.079 36.535 0 45-2.961 3.695-6.139 3.734-10.625 4.375-2.721.716-3.668 1.422-5.375 3.625-.977 1.802-.977 1.802-1.687 3.688L242 300h-2v4l-2.187.813c-2.824 1.092-2.824 1.092-5.187 2.75-3.198 1.752-6.022 2.084-9.625 2.438l1-2h4v-4l-4-1-.402-1.828-.535-2.422-.527-2.391L221 290h-2l-1-6h-2c-1.607-4.091-3.032-7.936-3.875-12.25-1.29-4.299-2.341-5.462-6.125-7.75-3.432-1.674-5.079-2-9-2l1.609.699c6.708 3.097 9.831 6.482 12.729 13.39 1.044 3.013 1.269 5.961 1.506 9.13l.167 2.005.646 8.388.5 6.169.275 3.689c.641 3.982 1.874 6.887 3.568 10.529v1l-2 .06-9.062.315-3.146.094c-5.647.215-10.419.833-15.791 2.531-8.944.955-17.367-.78-26-3l-2.781-.656-2.406-.656-2.043-.551c-2.846-1.828-3.579-4.024-4.77-7.137-.328-3.508-.328-3.508-.25-7.125l.047-3.633c.163-2.596.441-4.772 1.203-7.242h-3c-.204-5.738-.271-10.605 2-16h2l-.184-1.836-.523-5.277-.617-5.742-.301-2.707-.289-2.504L150 254l1-1c-.222-2.825-.586-5.622-.941-8.434L150 242l2-2h3l1-4c6.429.918 11.742 1.759 16 7v2l3.086-.219c8.66-.579 17.255-.886 25.935-.744 4.145.052 4.145.052 8.237-.521 3.48-.655 6.92-.748 10.449-.832l2.198-.063 6.907-.183 4.701-.131L245 242l1-3c3.245-2.283 6.125-2.176 10-2z"/><path fill="#40aed9" d="m195 30 3.5.813c6.964 2.363 10.144 5.473 13.398 11.887L213 45l.977 1.895c2.022 4.185 2.11 7.526 2.023 12.105.525 2.389.525 2.389 2 4 2.555.812 2.555.812 5 1l1 5h7l1 4-3.437 1.875c-2.553 1.776-3.433 2.642-4.25 5.684-.227 2.496-.347 4.936-.312 7.441h4l1 3 1.563 1.438C232 94 232 94 232 98l-5.75-.812-3.234-.457c-3.144-.761-4.738-1.458-7.016-3.73-2.15-4.889-2.048-10.365-1.876-15.611.248-8.067-.606-15.543-2.249-23.451l-.57-2.919C209.888 44.667 207.707 39.618 203 35c-3.323-1.664-3.323-1.664-7-2l-2.012-.383c-2.886-.341-5.21-.199-7.582 1.574C176.79 45.624 173.728 61.633 172 76l-.308 2.446L170 93h2v2h3l1-2 2 1v2l2.125.313c4.246 1.015 7.774 2.586 10.875 5.688.56 6.16.56 6.16-1.25 8.875-4.282 2.753-8.82 2.207-13.75 2.125l-.75 1.688c-1.479 2.737-3.185 4.989-5.25 7.313h-2l-.625 2.5c-2.352 5.986-5.519 10.707-11.375 13.5l-1 2c-2.973.731-5.02 1.221-8 1-4.556-3.717-4.489-6.956-6-13l-21 1v-9l2-1 2.211-5.211c.981-2.224 2.144-4.001 3.789-5.789h2v-2l5-3 2-2c2-2 2-2 4.5-3.25 2.752-1.926 3.006-2.687 4.188-5.687 1.698-3.77 3.371-4.948 7.188-6.5 10.019-3.33 10.019-3.33 15.125-1.562l-.062-3.25c.05-3.022.293-4.927 1.063-7.75.381-2.662.688-5.328 1-8h2l-.125-3.75c-.012-3.371.489-5.285 2.125-8.25.168-2.667.168-2.667 0-5h2v-4h2l.75-2.625c1.726-4.661 3.748-8.149 7.625-11.312 3.391-1.373 5.104-.978 8.625-.062z"/><path fill="#dbbf8a" d="m130 267 .375 3.375c.272 3.656.272 3.656 2.625 5.625.414 2.164.414 2.164.625 4.625l.227 2.477L134 285h-2l.5 1.875c.58 3.624.528 7.062.438 10.723.06 2.299.413 4.204 1.063 6.402h-3c.695 3.207.695 3.207 3.563 4.438L137 310v4c-2.867-1.285-4.976-2.571-7-5v-2l-5-1 1.875 5.813 1.055 3.27c.99 3.051.99 3.051 3.07 5.918v3l2.063-.375c3.256.416 3.712.846 6 3 12.897 11.859 33.972 15.452 51 15.625 3.721.02 3.721.02 5.938-1.25 2.672-.134 5.323-.043 8 0l-1 3c-2.062.688-2.062.688-4 1v5l-7 1v-3l-2.844.492c-4.88.693-9.735.658-14.656.633l-2.94-.012c-23.155-.178-23.155-.178-33.56-4.113l-2.48-.91c-10.454-4.003-20.418-8.611-28.332-16.652l-1.521-1.498C102 322.253 102 322.253 102 320h-2c-3.509-8.626-3.815-16.563-2.437-25.75 4.819-10.895 15.45-21.349 26.125-26.562C126 267 126 267 130 267"/><path fill="#b44445" d="M257 229v3h3v8l-.937-1.937c-.897-1.999-.897-1.999-2.062-3.062l-1 2-6.086 1.43c-2.03.433-2.03.433-3.414 2.133-4.935 4.729-18.842 2.837-25.301 3.043l-3.23.113-2.893.092c-3.035.187-6.017.567-9.031.961-5.336.596-10.736.494-16.101.523l-4.41.062-6.425.069-3.845.044C172 245 172 245 169.556 243.098 168 241 168 241 168 239l-2.062.188c-3.857-.246-6.448-1.546-9.937-3.187l-.25 1.875C155 240 155 240 152.953 241.133L151 242l.254 2.371.309 3.066.316 3.059L152 253l-1 1c.065 1.566.203 3.13.375 4.688l.297 2.738c.254 1.992.587 3.974.953 5.949.37 2.592.224 4.173-.625 6.625h-2l-2 16h3v2l2 1-2 1-.125 6.625-.07 3.727c.192 3.592.893 6.315 2.195 9.648l3.563.375c5.227.652 10.096 2.216 15.125 3.75 6.305 1.546 13.253 1.822 19.469-.102 5.101-1.358 10.024-1.484 15.281-1.648l3.084-.117L217 316l-1.452-3.055c-1.58-3.697-2.059-7.028-2.322-11.058l-.312-4.033-.42-6.239c-.559-8.537-1.243-16.518-6.494-23.615-3.072-2.595-6.377-4.271-10-6v-1c6.744.465 10.821 1.821 15.75 6.75 2.736 4.925 3.423 10.737 4.25 16.25h2l1 6h2l2 4.813 1.125 2.707C225 300 225 300 225 303l3 1v4l-1.937.375L224 309l-1 2 2 1-2 1-1 3h18l1-3 2-1 1-2c1-2 1-2 3-3l1-3c2.215-1.168 2.215-1.168 4.938-2.187l2.715-1.043C258 300 258 300 260 300v6h-2l-.734 2.242c-2.896 6.31-9.885 11.327-16.266 13.758h-3v2l-1.977.586-2.648.789-2.602.773a97 97 0 0 0-5.68 1.945c-3.471 1.017-6.36 1.105-9.969 1.031l-3.492-.055L209 329c2.647-1.461 3.894-2 7-2v-3c-3.377-2.036-5.99-2.257-9.902-2.266l-3.447-.008-3.588.023-3.576-.023-3.451.008-3.144.007c-2.999.269-5.149 1.06-7.891 2.259-2.457.195-2.457.195-4.812.125l-2.395-.055L172 324v3h8v3c-7.572.363-14.114-.227-21.406-2.344-2.794-.82-2.794-.82-6.594-.656l-.562-1.875c-2.152-3.181-4.813-3.32-8.437-4.125v-2l-1.437-1.437C140 316 140 316 139 313c2.915-.81 4.461-1.218 7.313-.062L148 314l-1-2c-1.178-8.018-1.124-16.104-1.062-24.187l.014-3.463L146 276h-2v-20h-3v-2h3l1-9c-1.448 1.448-1.557 3.04-2 5h-3c-1.33-6.286-1.33-6.286.125-9.437C142 239 142 239 144.688 238.75L147 239l-.187-2.875L147 233c3.158-2.105 3.954-2.253 7.563-2.187l2.379.02C159 231 159 231 161 232v2l3.324.148 4.363.227 2.186.094c3.145.172 5.65.331 8.576 1.559 3.859 1.471 7.583 1.224 11.676 1.16l2.68-.026L202 237l2.419-.059c14.382-.413 29.642-1.216 43.581-4.941v-2c3.058-.544 5.888-1 9-1"/><path fill="#7a3133" d="m122.188 127.938 3.293.59L128 129v1l-2.387.48C110.881 133.04 110.881 133.04 99 141c-.784 2.264-.784 2.264-1.187 4.688l-.48 2.449L97 150h3l1-2 .699 1.871c4.899 12.723 9.93 21.715 22.301 28.129a156 156 0 0 0 10 4v2l4.938.563 2.777.316L144 185l1-1a99 99 0 0 1 5 0v2h2l1 2 1.875.313c3.062.991 3.619 2.948 5.125 5.688l2 1 .875 1.875c1.32 2.493 2.802 3.576 5.125 5.125l-7-1-1-3-2.125-.312c-3.266-.781-5.922-2.108-8.875-3.687l-2 3-2-4-1 1c1.213 3.724 2.509 7.378 4 11h2v9l2 1v2h-2c-.764 3.736-1.072 6.348 0 10 6.712 1.834 13.183 3.323 20.137 3.789C172 231 172 231 173 232c1.559.157 3.125.251 4.691.316l2.861.127 3.01.119 3.021.131L194 233v1h-8v2l11.438-.437 3.299-.119 3.135-.127 2.904-.111c2.196.036 2.196.036 3.225-1.205a269 269 0 0 1 9.629-.518c1.795-.092 3.585-.28 5.371-.482l1-2-3 1c-2.45.1-4.863.142-7.312.125l-2.213-.012L206 232l-2.903-.054-8.972-.258-2.9-.068-2.718-.108-2.417-.079c-2.538-.525-3.46-1.468-5.09-3.432a418 418 0 0 1 30.459.732c4.729.257 8.866.141 13.541-.732a207 207 0 0 1 7.875-.062l2.086.014L240 228v-2l12.813-4.687 2.207-.762C257 220 257 220 260 220v-2l8-1c-3.203 2.834-5.781 3.521-10 4l1 11h-2v-3l-9 1v2c-2.938 1.637-5.427 2.376-8.754 2.816l-2.809.376-2.999.37-3.115.392A295 295 0 0 1 202 238l-2.681.066-8.194.121-2.542.04c-4.435.006-7.477-.452-11.583-2.227-2.755-.516-5.527-.821-8.312-1.125l-2.244-.262L161 234v-2l-5.375-.062-3.023-.035c-2.586-.082-2.586-.082-4.602 1.098-.658 3.029-.658 3.029-1 6l-6 2c-.723 4.481-.723 4.481-1 9h3l1-6 2 1-2 9h-3v2h3v20h2l1-4-.016 2.456-.039 9.22-.033 5.873c-.021 8.201.321 16.286 1.088 24.451l-9-1v-4h-2l-.812-3.875c-.953-4.347-2.207-8.542-3.602-12.766-.63-2.535-.687-4.757-.586-7.359h2l-.875-4.375-.492-2.461c-.499-2.351-.499-2.351-2.633-4.164-.125-3.625-.125-3.625 0-7l-3-1 4-1c1.309-7.353 2.232-14.284 1.777-21.758.278-2.797 1.232-3.373 3.223-5.242-.336-3.013-.336-3.013-1-6l1-3h8l-.547-2.621c-.459-3.423-.202-6.041.297-9.441.628-6.603-.91-11.184-3.621-17.16C139 197 139 197 139 193l-1.687-.625C135 191 135 191 132.5 187.938c-2.166-3.024-2.166-3.024-4.812-3.812L126 184v-2l-2.312.125C121 182 121 182 118 180l-2.937-.937c-2.936-1.019-4.661-2.158-7.062-4.062l-3-1v-2h-2v-3h-3l-2.148-5.176c-.92-2.09-.92-2.09-2.852-4.824a99 99 0 0 1-.187-8l.002-2.195c.026-3.188.171-5.761 1.186-8.805h2l2-5h4l1-3 7-1 1-3c3.574-1.191 5.509-.735 9.188-.062z"/><path fill="#f9ca0e" d="M200.313 35.813c2.6 1.149 4.076 1.86 5.688 4.188v4h2c4.482 10.295 4.367 21.961 4.633 33.025l.197 6.792L213 95c-3.002 3.002-10.536 2.093-14.437 2.125-4.946-.034-9.68-.359-14.562-1.125l-1-3-2.937-.875C177 91 177 91 175.828 88.816 171.984 75.744 175.666 56.795 182 45h2l-.312-2.75C184 39 184 39 186 36.625c4.91-2.659 9.102-2.09 14.313-.812"/><path fill="#fb9691" d="M128 128h13l1.375 3.688c2.133 5.824 2.133 5.824 4.75 11.438C148 145 148 145 148 148l-3 3-2 5-2 1-1 22-10-3a133 133 0 0 0-5.625-1.187l-2.539-.48L120 174v-2h-3v-2l-1.75-.875L113 168l-1.984-.844c-2.335-1.339-3.158-2.478-4.516-4.781l-1.262-2.133c-1.858-3.365-3.569-6.78-5.238-10.242h-3c.061-1.418.15-2.834.25-4.25l.141-2.391c.821-3.18 2.048-4.322 4.609-6.359 4.211-1.993 8.599-3.477 13-5l2.195-.762c3.665-1.159 6.975-1.425 10.805-1.238z"/><path fill="#1b100d" d="M192 132c12.06 2.788 12.06 2.788 16 7v2l1.813.75c2.612 1.492 3.649 2.662 5.188 5.25.293 3.016.293 3.016.188 6.25l-.082 3.266L215 159l-6.187-1.625L207 157c-1.336 1.111-1.336 1.111-1.125 3.938-.088 2.978-.088 2.978 1.125 5.063 2.374.251 2.374.251 5 0 1.664-1.456 1.664-1.456 3-3-.632 10.009-.632 10.009-4 14-2.187.813-2.187.813-4 1v-4l-1.574 1.531-2.113 1.969-2.074 1.969c-2.645 1.809-4.1 1.839-7.238 1.531v3c-3.187.313-3.187.313-7 0-2.75-2.312-2.75-2.312-5-5l-1.812-1.625C179 176 179 176 179 173h-2c-2.008-6.025-1.857-12.801.438-18.687C179 152 179 152 180 151q3-.063 6 0l1-3h5v-4h-13l3-6h-4v-3h6v-2l8 1z"/><path fill="#e07957" d="M196 261c6.744.465 10.821 1.821 15.75 6.75 2.736 4.925 3.423 10.737 4.25 16.25h2l1 6h2l2 4.813 1.125 2.707C225 300 225 300 225 303l3 1v4l-1.937.375L224 309l-1 2 2 1-2 1-1 3h18l1-3 2-1 1-2c1-2 1-2 3-3l1-3c2.215-1.168 2.215-1.168 4.938-2.187l2.715-1.043C258 300 258 300 260 300v6h-2l-.734 2.242c-2.896 6.31-9.885 11.327-16.266 13.758h-3v2l-1.977.586-2.648.789-2.602.773a97 97 0 0 0-5.68 1.945c-3.471 1.017-6.36 1.105-9.969 1.031l-3.492-.055L209 329c2.647-1.461 3.894-2 7-2v-3c-3.377-2.036-5.99-2.257-9.902-2.266l-3.447-.008-3.588.023-3.576-.023-3.451.008-3.144.007c-2.999.269-5.149 1.06-7.891 2.259-2.457.195-2.457.195-4.812.125l-2.395-.055L172 324v3h8v3c-7.572.363-14.114-.227-21.406-2.344-2.794-.82-2.794-.82-6.594-.656l-.562-1.875c-2.152-3.181-4.813-3.32-8.437-4.125v-2l-1.437-1.437C140 316 140 316 139 313c2.25-.687 2.25-.687 5-1l1.839 1.38c4.005 3.002 9.051 3.638 13.848 4.807l3.186.826c6.218 1.544 11.724 2.288 18.127 1.986v-1c11.938-3.239 23.696-3.697 36-4l-1.452-3.055c-1.58-3.697-2.059-7.028-2.322-11.058l-.312-4.033-.42-6.239c-.559-8.537-1.243-16.518-6.494-23.615-3.072-2.595-6.377-4.271-10-6z"/><path fill="#c8cdd7" d="m195 30 3.5.813c6.964 2.363 10.144 5.473 13.398 11.887L213 45l.977 1.895c2.022 4.185 2.11 7.526 2.023 12.105.525 2.389.525 2.389 2 4 2.555.812 2.555.812 5 1l1 5h7l1 4-3.437 1.875c-2.553 1.776-3.433 2.642-4.25 5.684-.227 2.496-.347 4.936-.312 7.441h4l1 3 1.563 1.438C232 94 232 94 232 98l-5.75-.812-3.234-.457c-3.144-.761-4.738-1.458-7.016-3.73-2.15-4.889-2.048-10.365-1.876-15.611.248-8.067-.606-15.543-2.249-23.451l-.57-2.919C209.888 44.667 207.707 39.618 203 35c-3.323-1.664-3.323-1.664-7-2l-2.012-.383c-2.886-.341-5.21-.199-7.582 1.574C176.79 45.624 173.728 61.633 172 76l-.308 2.446L170 93h2v2h3l1-2 2 1v2l2.125.313c4.246 1.015 7.774 2.586 10.875 5.688.56 6.16.56 6.16-1.25 8.875-4.282 2.753-8.82 2.207-13.75 2.125l-.75 1.688c-1.479 2.737-3.185 4.989-5.25 7.313h-2l-.625 2.5c-1.721 4.38-4.037 8.154-7.375 11.5-2.195.73-2.195.73-4 1 .188-2.25.188-2.25 1-5a116 116 0 0 1 5-4c1.312-2.117 1.312-2.117 2-4h2l.313-1.75c.796-2.607 1.878-4.224 3.688-6.25h2l1-7 10-3v-4c-4.411-1.026-6.926-1.037-11 1l1-3h-5l-1-10-6.25-.187-3.516-.105c-3.508.318-4.647 1.032-7.234 3.293h-2v3h-2l-.187 1.813c-1.163 3.132-2.843 3.806-5.812 5.188h-4l1-3 2.875-1.375c4.054-2.108 5.296-4.477 6.906-8.648 2.777-4.504 9.712-5.614 14.594-6.789 2.509-.179 4.261-.006 6.625.813l-.062-3.25c.05-3.022.293-4.927 1.063-7.75.381-2.662.688-5.328 1-8h2l-.125-3.75c-.012-3.371.489-5.285 2.125-8.25.168-2.667.168-2.667 0-5h2v-4h2l.75-2.625c1.726-4.661 3.748-8.149 7.625-11.312 3.391-1.373 5.104-.978 8.625-.062z"/><path fill="#f7efe0" d="M127 272c.688 1.75.688 1.75 1 4-1.25 2.25-1.25 2.25-3 4h-3l.035 2.703.027 3.547.035 3.516A27.4 27.4 0 0 1 121 297l-.562 4.75-.254 2.422L120 306h4c.953 4.763 1.083 9.167 1 14h3l1 4h-5v4l4-1 1 4c-2.44 1.537-3.707 2.021-6.625 1.813C120 332 120 332 118 329l-2.312-1.375c-3.089-1.868-5.314-3.912-7.687-6.625v-3l-3-1c-3.716-7.982-3.65-14.279-.996-22.633 1.447-3.438 3.469-5.641 5.996-8.367l1-3c2.563-1.187 2.563-1.187 5-2v-3l4-1v-3l7-2z"/><path fill="#fbd80e" d="M200.313 35.813c2.6 1.149 4.076 1.86 5.688 4.188v4h2c4.918 11.345 4.245 23.887 4 36h-2c-1.301-3.815-.894-7.276-.562-11.25l.309-3.828L210 62h-2l-.617 1.797c-1.94 3.091-4.232 3.92-7.508 5.453l-3.32 1.578L194 72l-1-2-6 1-1-3-2-1V55l-2-1c.875-3.875.875-3.875 2-5l-2-2c2.23-8.059 2.23-8.059 4.688-11.062 4.605-1.867 8.942-1.274 13.625-.125"/><path fill="#d4bc9d" d="M263 278c3 1 3 1 4.18 2.578 1.146 3.384 1.032 6.646.945 10.172l-.027 2.113L268 298h-2l-.312 2.195c-2.156 8.794-9.492 14.943-16.687 19.805l-2.738 1.879c-13.861 9.183-28.034 11.635-44.574 11.309l-4.014-.041L188 333v-1h19l1-3 3.25.188c4.791.008 9.091-1.151 13.695-2.387 4.314-1.131 8.673-1.977 13.055-2.801v-2l1.906-.848c7.338-3.437 14.714-7.429 18.094-15.152h2v-6l-1.609.875L256.25 302l-2.109 1.125C252 304 252 304 248 304l-.375 1.938L247 308l-2 1-.937 1.875c-1.14 2.279-2.053 3.562-4.062 5.125-3.598.918-6.983 1.135-10.687 1.125l-2.887.008C224 317 224 317 222 316l1-6 2.336-.805 3.039-1.07 3.023-1.055c2.706-.918 2.706-.918 4.602-3.07h4v-4a102 102 0 0 1 3-3l1-2.5c1.077-2.692 1.73-3.736 4-5.5 2.918-.73 2.918-.73 6.188-1.187l3.293-.48L260 287z"/><path fill="#eb6360" d="M152 282h1l.223 2.375c.496 2.749.496 2.749 2.711 3.813l2.504.813c4.642 1.64 8.934 3.586 13.301 5.855 2.42 1.266 2.42 1.266 5.699 2.52 2.822 1.789 3.966 3.377 5.098 6.523 1.243 5.618 1.381 11.048-1.535 16.102-6.483-.514-12.706-1.352-19-3l-2.457-.586-2.418-.664-2.18-.578c-3.01-1.813-3.722-3.928-4.945-7.172-.328-3.508-.328-3.508-.25-7.125l.047-3.633c.163-2.596.441-4.772 1.203-7.242h-3v-2h3l-.062-2.437C151 283 151 283 152 282"/><path fill="#82362f" d="m136 239 2 1-1 25 4 1v-3h2l1 17h2l2 34-9-1v-4h-2l-.812-3.875c-.953-4.347-2.207-8.542-3.602-12.766-.63-2.535-.687-4.757-.586-7.359h2l-.875-4.375-.492-2.461c-.499-2.351-.499-2.351-2.633-4.164-.125-3.625-.125-3.625 0-7l-3-1 4-1c1.315-7.388 2.228-14.346 1.777-21.855L133 241z"/><path fill="#dcc0a6" d="m130 267 .375 3.375c.272 3.656.272 3.656 2.625 5.625.414 2.164.414 2.164.625 4.625l.227 2.477L134 285h-2l.5 1.875c.58 3.624.528 7.062.438 10.723.06 2.299.413 4.204 1.063 6.402h-3c.695 3.207.695 3.207 3.563 4.438L137 310v4c-2.867-1.285-4.976-2.571-7-5v-2l-5-1 1.875 5.688 1.055 3.199c.944 2.745 1.965 5.43 3.07 8.113l-3-1v-2h-3l-1-14-5 1 .438-6.187.246-3.48c.271-2.854.743-5.53 1.316-8.332l.426-7.012c.574-1.988.574-1.988 2.57-3.094L126 278c.812-2.555.812-2.555 1-5l-7 1v3l-4 1v3c-3 2-3 2-6 2v3h-2v2l-1.875.75c-2.476 1.456-3.076 2.628-4.125 5.25h-2l-2 16h2l1 10c-5.235-7.852-4.794-16.709-3.437-25.75 4.819-10.895 15.45-21.349 26.125-26.562C126 267 126 267 130 267"/><path fill="#987e52" d="M266 298c1.652 4.678.157 8.286-1.43 12.813-3.028 6.146-8.095 11.616-14.387 14.461L248 326v2l-2.195.988-2.93 1.324-3.07 1.387a105 105 0 0 0-5.805 2.926c-4.494 2.06-9.216 3.175-14 4.375v3c-3.374 2.603-5.769 3.363-10 3v2c-9.41 4.592-9.41 4.592-14 4l3-1v-5c2.647-1.461 3.894-2 7-2v-3l-2.301.07-3.012.055-2.988.07C195 340 195 340 192 338c-2.046-.662-2.046-.662-4.187-1.125L184 336v-2l2.221-.012c12.814-.125 25.429-.381 37.966-3.238l2.618-.583c9.982-2.489 17.993-8.153 26.195-14.167l3.25-2.312c4.463-4.361 7.774-9.76 9.75-15.687z"/><path fill="#632a1f" d="M192 132c12.06 2.788 12.06 2.788 16 7v2l1.813.75c2.612 1.492 3.649 2.662 5.188 5.25.293 3.016.293 3.016.188 6.25l-.082 3.266L215 159l-6.187-1.625L207 157c-1.336 1.111-1.336 1.111-1.125 3.938-.088 2.978-.088 2.978 1.125 5.063 2.374.251 2.374.251 5 0 1.664-1.456 1.664-1.456 3-3-.632 10.009-.632 10.009-4 14-2.187.813-2.187.813-4 1v-4l-2-1 1-2h-3c-2.787-5.574-1.064-14.014 0-20l-11-3v-4h-13l3-6h-4v-3h6v-2l8 1z"/><path fill="#9c2223" d="M268 218c-6.625 3-6.625 3-10 3l1 11h-2v-3l-9 1v2c-2.938 1.637-5.427 2.376-8.754 2.816l-2.809.376-2.999.37-3.115.392A295 295 0 0 1 202 238l-2.681.066-8.194.121-2.542.04c-4.435.006-7.477-.452-11.583-2.227-2.755-.516-5.527-.821-8.312-1.125l-2.244-.262L161 234v-2l-1.898-.184-2.477-.254-2.461-.246C152 231 152 231 150 230v-3l2.273.621c5.973 1.572 11.696 2.755 17.863 3.168C172 231 172 231 173 232c1.559.157 3.125.251 4.691.316l2.861.127 3.01.119 3.021.131L194 233v1h-8v2l11.438-.437 3.299-.119 3.135-.127 2.904-.111c2.196.036 2.196.036 3.225-1.205a269 269 0 0 1 9.629-.518c1.795-.092 3.585-.28 5.371-.482l1-2-3 1c-2.45.1-4.863.142-7.312.125l-2.213-.012L206 232l-2.903-.054-8.972-.258-2.9-.068-2.718-.108-2.417-.079c-2.538-.525-3.46-1.468-5.09-3.432a418 418 0 0 1 30.459.732c4.729.257 8.866.141 13.541-.732a207 207 0 0 1 7.875-.062l2.086.014L240 228v-2l12.813-4.687 2.207-.762C257 220 257 220 260 220v-2c3.287-.8 4.71-1.097 8 0"/><path fill="#e1cdb0" d="m108 286 2 1-2 1zm-3 2 3 1-1.375 2c-3.327 6.142-4.928 13.311-3.02 20.18 1.244 4.162 1.244 4.162 4.395 6.82l.875 2.938c.787 3.094.787 3.094 2.875 4.188L114 326c3.25 2 3.25 2 6 4v2l8-1-1-3h-3v-4h5l1-2 .848 1.68c2.748 5.066 2.748 5.066 7.84 7.57L142 332c2.266 2.857 2.198 5.438 2 9h2v3c-10.745.512-18.654-2.925-28-8l-2.441-1.324c-3.083-2.019-5.649-4.398-8.246-6.988l-1.471-1.396c-4.187-4.152-5.75-7.817-5.967-13.666L100 310h-2l-.125-5.187-.07-2.918c.319-4.735 1.738-7.725 5.195-10.895z"/><path fill="#d95257" d="M257 229v3h3v8l-.937-1.937c-.897-1.999-.897-1.999-2.062-3.062l-1 2-6.086 1.43c-2.03.433-2.03.433-3.414 2.133-4.935 4.729-18.842 2.837-25.301 3.043l-3.23.113-2.893.092c-3.035.187-6.017.567-9.031.961-5.336.596-10.736.494-16.101.523l-4.41.062-6.425.069-3.845.044C172 245 172 245 169.556 243.098 168 241 168 241 168 239l-2.062.188c-3.857-.246-6.448-1.546-9.937-3.187l-.25 1.875C155 240 155 240 152.953 241.133L151 242l.254 2.371.309 3.066.316 3.059L152 253l-1 1c.065 1.566.203 3.13.375 4.688l.297 2.738c.254 1.992.587 3.974.953 5.949.37 2.592.224 4.173-.625 6.625h-2l-1 6h-1l.372-16.443.125-5.593.186-8.042.051-2.523.06-2.365.047-2.073c.168-2.077.65-3.945 1.158-5.962v-3c8.086 1.001 16.075 2.053 24 4v2c30.094.912 30.094.912 60-1.75l2.953-.476c5.105-.972 8.111-2.226 12.047-5.774h3v-2c2-1 2-1 5-1z"/><path fill="#f8ada4" d="M128 128h13c1.915 4.963 3.61 9.866 5 15l-4.812.563-2.707.316C136 144 136 144 133 143l-3 1a140 140 0 0 1-6.187.063l-3.293-.027L118 144v2l-4 1-3-5-5 4v-5l-5 1c1.192-3.708 3.367-5.203 6.738-6.984 6.624-2.975 12.938-5.32 20.262-5.016z"/><path fill="#5494b8" d="m136.5 108.813 2.406-.043C141 109 141 109 143 111c.195 2.164.195 2.164.125 4.625l-.055 2.477L143 120l4 1 2 10h2l1 3c2.015.733 2.015.733 4 1l-1 5c-2.85.617-5.126 1.11-8 1-4.556-3.717-4.489-6.956-6-13l-21 1c1.198-7.19 1.198-7.19 4-11h2l2-6h2v-2c2.353-1.177 3.881-1.166 6.5-1.187"/><path fill="#f6cb57" d="M191.938 31.25c2.02.266 2.02.266 4.063.75l2.074.422C204.027 34.1 206.975 37.77 210 43c1.341 3.584 2.143 7.186 2.875 10.938l.632 3.042c1.478 7.633 1.906 14.869 1.571 22.622-.07 3.059.267 5.438.922 8.398q.132 2.624.125 5.25l.008 2.641C216 98 216 98 215 99c-3.764.253-7.541.185-11.312.188l-3.209.037-3.092.006-2.837.012c-2.647-.252-4.279-.898-6.55-2.243v2l-10-3v-2l-6 1v-2h-2c.744-20.273 2.219-43.463 16.188-59.582 2.046-1.601 3.172-2.022 5.75-2.168M184 39c-.418 3.168-.418 3.168 0 6l-3 1c-5.296 11.987-8.901 30.02-5.176 42.836C177.518 91.953 179.71 92.02 183 93l1 3c9.188 1.441 18.845 1.873 28 0 1.335-1.105 1.335-1.105 1.069-3.889l-.256-10.407-.145-6.616C212.457 59.11 212.457 59.11 208 44h-2l-.312-2.312c-.753-2.945-1.24-3.94-3.687-5.687-6.447-2.026-13.38-2.486-18 3z"/><path fill="#9a8b78" d="m167 152 4 1-.93 1.516c-1.432 3.324-1.785 6.672-2.195 10.234l-.262 2.113L167 172l6-1v-14h3l1-3 1 2-1 2a190 190 0 0 0-.062 7.625l.014 2.141L177 173h2l1.313 2.25c1.854 3.021 3.924 4.584 6.688 6.75v2h7v-3h2v3h3l-1 4-1.934.402-2.504.535-2.496.527c-2.043.343-2.043.343-3.066 1.535-2.671.141-5.324.042-8 0v-2l-3.125-.562c-4.805-1.388-7.117-4.423-9.875-8.437l-1.262-1.816c-3.755-6.312-3.562-13.386-2.344-20.48C164 156 164 156 166 155z"/><path fill="#66a9d0" d="M170 80h1c.077 4.516.102 8.591-1 13h2v2h3l1-2 2 1v2l2.125.313c4.246 1.015 7.774 2.586 10.875 5.688.56 6.16.56 6.16-1.25 8.875-4.282 2.753-8.82 2.207-13.75 2.125l-.75 1.688c-1.479 2.737-3.185 4.989-5.25 7.313h-2l-.625 2.5c-1.721 4.38-4.037 8.154-7.375 11.5-2.195.73-2.195.73-4 1 .188-2.25.188-2.25 1-5a116 116 0 0 1 5-4c1.312-2.117 1.312-2.117 2-4h2l.313-1.75c.796-2.607 1.878-4.224 3.688-6.25h2l1-7 10-3v-4c-4.411-1.026-6.926-1.037-11 1l1-3h-5l-1-10-6.25-.187-3.516-.105c-3.508.318-4.647 1.032-7.234 3.293h-2v3h-2l-.187 1.813c-1.163 3.132-2.843 3.806-5.812 5.188h-4l1-3 2.875-1.375c4.042-2.102 5.43-4.476 6.813-8.75 2.293-3.276 5.561-4.126 9.313-4.875 4.679-.236 9.32-.177 14 0v-5z"/><path fill="#cf9f9b" d="m238 91 1.438 2.438C240.8 96.292 240.8 96.292 244 97l1 6 1.563-.625c3.47-.534 6.144.548 9.438 1.625v2h2l1.313 1.938c2.132 2.605 3.457 2.497 6.688 3.063l3 3 3 1 2.703 5.82c1.885 3.168 4.492 5.076 7.324 7.379 3.048 2.782 5.196 6.086 6.973 9.801v2l-3-1v-4l-1.785-.266c-2.81-.932-3.795-2.202-5.652-4.484-4.636-5.879-4.636-5.879-10.562-10.25v-2l-2.187-.812c-3.686-1.556-6.926-3.634-10.312-5.75-2.446-1.407-4.88-2.403-7.5-3.437l-3-2c-1.963-.837-3.952-1.55-5.961-2.27-1.674-.6-3.328-1.252-4.977-1.918-4.063-1.078-7.885-.98-12.062-.812v-3l-3.312 1.488c-5.233 1.962-10.163 1.848-15.687 1.699l-2.926-.041L193 101l1 3a119 119 0 0 1-2 7l-4 1 1-3h2c-.33-5.015-.33-5.015-3-9v-3l1.661.494c2.653.574 5.046.619 7.761.604l3.105-.01 3.223-.025 3.27-.014L215 98l1-5 1.609.898c2.832 1.305 5.61 2.002 8.641 2.727l3.266.789L232 98l-1-6c4.75-1 4.75-1 7-1"/><path fill="#75684c" d="M119 336c3.421 1.026 6.584 2.24 9.75 3.875 19.91 10.203 41.461 8.268 63.25 8.125v3l4 1-4.062.938-2.285.527c-7.865 1.587-15.446 1.718-23.465 1.723l-3.697.037c-7.091.011-13.619-.453-20.49-2.225l-3.75-.965-3.25-.973-3.312-.965C129 349 129 349 127 346v-4h-2v-2l-2.437-.875C120 338 120 338 119 336"/><path fill="#e85a5d" d="m174 191 2.813 1c3.108 1.15 3.108 1.15 6.188 1h9v3h9l-1 5 2 1v2l1.938.313L206 205l1 3h-2v2l-9 1v1l5 1 1 5a147 147 0 0 1-10.25-4.437l-2.641-1.246C187 211 187 211 186 208h-2v-5l-1.687-.187c-3.4-1.195-5.041-3.049-7.312-5.812-.812-3.312-.812-3.312-1-6z"/><path fill="#f88f6c" d="m188.684 320.886 3.539.016 3.818.01 4.021.025 4.033.014L214 321v2l2 1v3l-3 1 3 2h-8l-1 2-11.75.625-3.309.195c-7.58.359-14.515-.27-21.941-1.82v-1h10v-3h-8v-3l2.809-.402 3.629-.535 3.621-.527c3.115-.567 3.536-1.518 6.625-1.649z"/><path fill="#de4d4f" d="M196 261c6.744.465 10.821 1.821 15.75 6.75 2.736 4.925 3.423 10.737 4.25 16.25h2l1 6h2l2 4.813 1.125 2.707C225 300 225 300 225 303l3 1v4l-1.75.25c-2.955.985-4.315 2.331-6.25 4.75v4c-3-1-3-1-4.639-4.118-1.427-3.652-1.879-7.073-2.134-10.995l-.312-4.033-.42-6.239c-.559-8.537-1.243-16.518-6.494-23.615-3.072-2.595-6.377-4.271-10-6v-1z"/><path fill="#2b110e" d="m301 172 3 1-.875 1.875c-.972 2.701-1.473 5.003-1.937 7.813-1.595 8.361-5.518 15.076-11.187 21.313l-2.625 3.375L285 210h-3l-5 5c-4.119 3.395-7.841 5.476-13 7l-3 2 1.684 11.207c1.335 8.121 2.57 16.24 3.504 24.418l.254 2.148c.556 5.097.624 10.1.559 15.227h-2v-13h-2l-2.136-15.479-.728-5.261-1.042-7.581-.331-2.359c-.56-4.143-.879-8.128-.762-12.321l10-3v-3l1.652-.742c6.075-3.012 9.923-6.756 14.277-11.914 1.732-1.96 3.267-3.355 5.383-4.844 3.803-3.537 5.084-7.641 6.688-12.5h2l.375-2c.77-3.697 1.695-7.34 2.625-11z"/><path fill="#5a9ebd" d="M262 287h1c.442 4.709-.472 9.004-3 13-3.897 2.971-7.11 4-12 4l-.375 1.938L247 308l-2 1-.937 1.875c-1.14 2.279-2.053 3.562-4.062 5.125-3.598.918-6.983 1.135-10.687 1.125l-2.887.008C224 317 224 317 222 316l1-6 2.703-.184 3.547-.254 3.516-.246c3.69-.351 3.69-.351 7.234-1.316 1.284-1.984 1.284-1.984 2-4h2l.25-1.625c1.599-5.065 4.076-8.296 8.75-10.75 3.097-1.488 4.363-1.625 8-1.625z"/><path fill="#b43132" d="M248 230h4v2l-5.371 3.027c-1.608.87-1.608.87-2.629 1.973-14.954 4.017-30.321 4.376-45.687 4.313l-2.615-.008-7.459-.066-2.251-.023c-4.087-.074-7.975-.432-11.987-1.215v-2l-22-3 1-3h8v2l3.324.148 4.363.227 2.186.094c3.145.172 5.65.331 8.576 1.559 3.859 1.471 7.583 1.224 11.676 1.16l2.68-.026L202 237l2.419-.059c14.382-.413 29.642-1.216 43.581-4.941z"/><path fill="#cf6363" d="m293 188 2 1c-1.808 5.316-3.722 7.955-8.113 11.398-2.04 1.732-3.631 3.595-5.324 5.664-3.311 3.902-6.936 6.725-11.562 8.938h-2v2l-8 1v2c-5.94 2.663-7.774 3.166-14 1-3.817-.319-7.614-.439-11.441-.559-3.657-.454-5.6-1.312-8.559-3.441 3.059-1.02 5.124-1.115 8.324-1.098l3.115.01 3.248.025 3.283.014L252 216v-2l2.449-.586 3.238-.789 3.199-.773c2.824-.772 5.419-1.718 8.113-2.852l3.313-1.187c3.989-1.676 6.807-4.408 9.891-7.387C284 199 284 199 287 199l.188-2.125c1.105-3.908 3.095-5.879 5.813-8.875z"/><path fill="#581d1f" d="m136 239 2 1-1 25 4 1v-3h2l1 17h2v12h-3l1-9-3-1-1-2-3 3c-3.263-4.004-4.688-7.753-5.937-12.75L130 267l-3-1 4-1c1.315-7.388 2.228-14.346 1.777-21.855L133 241z"/><path fill="#e3dab0" d="m195 30 3.5.813c6.968 2.364 10.17 5.477 13.398 11.914L213 45l1.813 3.188c1.83 5.874 1.416 11.709 1.188 17.813h-2l-.364-1.984L211.875 55l-.57-3.121C209.935 45.16 208.047 39.829 203 35c-3.323-1.664-3.323-1.664-7-2l-2.012-.383c-2.886-.341-5.21-.199-7.582 1.574-9.211 10.95-12.298 26.139-14.13 39.89-.532 3.693-1.404 7.294-2.276 10.919h-12v-1c3.663-.749 6.424-1.238 10 0l-.062-3.25c.05-3.022.293-4.927 1.063-7.75.381-2.662.688-5.328 1-8h2l-.125-3.75c-.012-3.371.489-5.285 2.125-8.25.168-2.667.168-2.667 0-5h2v-4h2l.75-2.625c1.726-4.661 3.748-8.149 7.625-11.312 3.391-1.373 5.104-.978 8.625-.062z"/><path fill="#54b0d9" d="M158 89c6.308-.357 6.308-.357 8.938 1 1.735 3.266 1.242 6.344 1.063 10h5l1 2 3-2c3.188.375 3.188.375 6 1l1 5-3.812 1.5-2.145.844C176 109 176 109 173 109l-1 3-1-5c-4.842-1.336-8.934-2.253-14-2l-1 8-6-1c.597-3.342 1.736-5.464 4-8h2v-2h2v-2h2c-.744-5.551-.744-5.551-2-11"/><path fill="#f8dd96" d="m150 335 4.125.875 2.32.492c2.555.633 2.555.633 5.281 1.602 4.133 1.302 8.248 1.996 12.523 2.656l2.549.397c9.797 1.821 9.797 1.821 19.201-.022 2.672-.134 5.323-.043 8 0l-1 3a71 71 0 0 1-8.312 2.188l-2.539.526c-8.283 1.564-22.361 4.18-30.149.286v-3l-2.187-.312c-3.113-.761-5.243-1.778-7.812-3.687v-3h-2z"/><path fill="#a38c7b" d="M260 300v6h-2l-.73 2.238c-1.442 3.136-2.988 4.695-5.582 6.949l-2.301 2.043c-2.398 1.778-4.577 2.8-7.387 3.77v-3l-1.609.875L238.25 320l-2.109 1.125C234 322 234 322 230 322v-2l-1.898-.113-2.477-.199-2.461-.176C221 319 221 319 219 316c.375-2.187.375-2.187 1-4l5-1-3 5h18l1-3 2-1 1-2c1-2 1-2 3-3l1-3c2.215-1.168 2.215-1.168 4.938-2.187l2.715-1.043C258 300 258 300 260 300"/><path fill="#43abda" d="M158 89v3l2 1v7h-2v2h-2v2h-3v-2h-9v2h-3l-1 5-10 1v2h-2l-.437 1.875C127 116 127 116 126 118h-2l-.875 2.375C122 123 122 123 120 125v-5l2-1 2.211-5.211c.981-2.224 2.144-4.001 3.789-5.789h2v-2c3.704-2.748 7.62-3.885 12.012-5.059 2.515-1.191 3.011-2.396 3.988-4.941h2v-3c3.65-2.903 5.259-4 10-4"/><path fill="#d5bb75" d="m148 328 1.801.586c6.339 1.991 12.643 3.355 19.199 4.414l1 3 2.555-.035 3.32-.027 3.305-.035C182 336 182 336 184 337c1.496.201 2.997.363 4.5.5 4.278.389 4.278.389 6.5 1.5a142 142 0 0 0 5.625.563l3.039.254L206 340v3h-2v-2l-1.836.438-2.539.563-2.461.563c-8.451 1.169-16.447.138-24.789-1.375l-2.984-.502c-5.775-1.02-10.972-2.44-16.391-4.686l2-1v-2l-2.375-.25C150 332 150 332 148.836 329.953z"/><path fill="#be6d4a" d="m200.727 316.867 3.375-.004 3.523.012 3.547-.012 3.367.004 3.1.003C220 317 220 317 221 318l5.563.563 3.066.254L232 319l-2 1v2l2.117-.875 2.758-1.125 2.742-1.125C240 318 240 318 242 318l-1 4h-3v2l-1.977.586-2.648.789-2.602.773-5.68 1.945c-3.471 1.017-6.36 1.105-9.969 1.031l-3.492-.055L209 329l10-5-4-2 1-2h-28c4.666-2.333 7.594-3.127 12.727-3.133"/><path fill="#364655" d="M128 184c3.016 1.117 4.645 2.613 6.625 5.063 2.046 2.946 2.046 2.946 4.375 3.938 4.474 9.741 7.756 19.234 5 30l-2 2c-5.342-6.589-6.281-10.116-6.559-18.555-.463-3.613-1.438-5.464-3.441-8.445v-2h-2v-4h2v-3h-2z"/><path fill="#786360" d="m122.188 127.938 3.293.59L128 129v1l-2.387.48C110.881 133.04 110.881 133.04 99 141c-.784 2.264-.784 2.264-1.187 4.688l-.48 2.449L97 150h3l1-2 .734 1.977c1.969 5.136 4.001 9.593 7.266 14.023l-1 2-2-4h-3l2 6c-3.465-1.54-6.276-3.349-9-6-.991-4.239-1.135-8.346-1.125-12.687l-.008-3.387C95 143 95 143 96 140h2l2-5h4l1-3 7-1 1-3c3.574-1.191 5.509-.735 9.188-.062"/><path fill="#e8e2d2" d="m108 286 2 1-2 1zm-3 2 3 1-1.375 2c-3.327 6.142-4.928 13.311-3.02 20.18 1.244 4.162 1.244 4.162 4.395 6.82l.875 2.938c.787 3.094.787 3.094 2.875 4.188L114 326c3.25 2 3.25 2 6 4v2l2 1h-2l-1 2c-6.995-2.925-12.309-6.986-17-13-1.698-4.18-2.215-7.494-2-12h-2l-.125-5.187-.07-2.918c.319-4.735 1.738-7.725 5.195-10.895z"/><path fill="#7c674b" d="M266 298c1.652 4.678.157 8.286-1.43 12.813-3.028 6.146-8.095 11.616-14.387 14.461L248 326v2l-2.195.988c-4.159 1.88-8.299 3.754-12.367 5.824C231 336 231 336 229 336c-.625-1.812-.625-1.812-1-4 2.22-3.33 2.772-3.492 6.375-4.687 6.54-2.47 11.987-6.23 17.625-10.312l2.105-1.5c5.701-4.43 9.62-10.676 11.895-17.5z"/><path fill="#efb41e" d="m182 45 3 4-2 2-1.062 7.813c-.585 5.341-1.23 10.552-2.625 15.75-.377 2.94.357 3.855 1.688 6.438.125 3.25.125 3.25 0 6l2.375.438C186 88 186 88 188 89l1-2-1 7 4 2h-8l-1-3-2.937-.875C177 91 177 91 175.828 88.816 171.984 75.744 175.666 56.795 182 45"/><path fill="#b27367" d="M215 148h1l1 14 .242 2.91c.238 4.538-.025 7.395-2.617 11.215L212 179h-2v4c-5.176 3.223-5.176 3.223-7 4l-3-1v-2h-4v-3a113 113 0 0 1 5-3l2.188-2.187L205 174h2v4c1.98-.44 1.98-.44 4-2 1.859-3.602 3-6.938 3-11l-2 2c-2.5.313-2.5.313-5 0-2.302-3.452-2.345-4.947-2-9l2-2c3.103.414 5.123 1.561 8 3z"/><path fill="#c4aa94" d="m179 140-1 1.813c-1.208 2.241-1.208 2.241-1 5.188l1-1c2.671-.141 5.324-.042 8 0-1.512 4.233-4.332 5.631-8 8l-2 3h-3v14l-6 1c-.225-12.822-.225-12.822 2.125-17 1.185-2.173 1.185-2.173.125-5.375-.25-3.625-.25-3.625.871-5.41 3.155-3.328 4.055-4.215 8.879-4.215z"/><path fill="#cf9f3e" d="M183 39h1c.188 2.813.188 2.813 0 6l-1.379 1.219c-2.471 2.715-2.946 5.982-3.746 9.469l-.512 2.068c-1.708 7.12-2.505 14.091-2.488 21.432l-.008 3.543a42 42 0 0 0 1.133 8.27l7 2v3h4v3l-10-3v-2l-6 1v-2h-2c1.562-42.562 1.562-42.562 13-54z"/><path fill="#eb6262" d="M256 233v4l-3.812.813c-3.203.728-3.203.728-5.687 2.75-4.935 4.729-18.842 2.837-25.301 3.043l-3.23.113-2.893.092c-3.035.187-6.017.565-9.031.959-5.337.602-10.735.536-16.101.581l-4.41.082-6.425.091-3.845.06C172 245 172 245 169.556 242.467L168 240l1.679.21c9.98 1.083 19.982 1.029 30.009 1.04l2.885.007c14.693.014 28.925-.711 43.428-3.257v-2c3.73-2.034 5.669-3 10-3z"/><path fill="#dfbfc9" d="m238 91 2 5h-4v4l2.438.875C241 102 241 102 242 104c-2.726-.481-5.16-1.062-7.75-2.062-4.155-1.199-7.958-1.109-12.25-.937v-3l-3.312 1.488c-5.233 1.962-10.163 1.848-15.687 1.699l-2.926-.041L193 101l1 3a119 119 0 0 1-2 7l-4 1 1-3h2c-.33-5.015-.33-5.015-3-9v-3l1.661.494c2.653.574 5.046.619 7.761.604l3.105-.01 3.223-.025 3.27-.014L215 98l1-5 1.609.898c2.832 1.305 5.61 2.002 8.641 2.727l3.266.789L232 98l-1-6c4.75-1 4.75-1 7-1"/><path fill="#992a2a" d="m134 184 2.152.254 2.785.309 2.777.316L144 185l1-1h5v2h2l1 2 1.875.313c3.062.991 3.619 2.948 5.125 5.688l2 1 .875 1.875c1.32 2.493 2.802 3.576 5.125 5.125l-7-1-1-3-2.125-.312c-3.266-.781-5.922-2.108-8.875-3.687l-2 3-2-4c-1.296 1.066-1.296 1.066-1.062 3.563L144 199c-4-4.75-4-4.75-4-7h-2c-1.461-2.647-2-3.894-2-7z"/><path fill="#95815b" d="M153 348h39v3l4 1c-8.775 2.559-17.517 2.224-26.562 2.125l-4.791-.027L153 354l2-5z"/><path fill="#34251b" d="M206 145h2c1.115 4.683.86 7.557-1 12l-1 1c-.247 4.143-.247 4.143 1 8 2.374.251 2.374.251 5 0 1.664-1.456 1.664-1.456 3-3-.632 10.009-.632 10.009-4 14-2.187.813-2.187.813-4 1v-4l-2-1 1-2h-3c-2.787-5.574-1.064-14.014 0-20l-11-3v-1h8v2c2.977-.744 2.977-.744 4.563-2.562z"/><path fill="#ed5b5e" d="M188 196h13l-1 5 2 1v2l1.938.313L206 205l1 3c-2.884 1.442-5.417 1.094-8.625 1.063l-3.602-.027L192 209v-2l-2.437-.687L187 205c-.812-2.625-.812-2.625-1-5h3z"/><path fill="#b0aba1" d="M130 267v2l-3.375.25c-3.64.331-3.64.331-5 2.625L121 274l-1 3c-2.062.688-2.062.688-4 1v3c-3 2-3 2-6 2v3h-2v2l-1.875.75c-2.476 1.456-3.076 2.628-4.125 5.25h-2l-2 16h2l1 10c-5.235-7.852-4.794-16.709-3.437-25.75 4.819-10.895 15.45-21.349 26.125-26.562C126 267 126 267 130 267"/><path fill="#cc8a55" d="M140 312c3.681.433 6.725 1.724 10.086 3.234 3.221 1.288 6.536 1.995 9.914 2.766v1l-7 1c3.27 3.128 6.543 3.692 10.832 4.531 2.168.469 2.168.469 4.793 1.531 3.077 1.215 6.102 1.552 9.375 1.938v2c-6.865.41-12.725-.46-19.336-2.344-2.854-.816-2.854-.816-6.664-.656l-.562-1.875c-2.152-3.181-4.813-3.32-8.437-4.125v-2l-1.437-1.437C140 316 140 316 139 313z"/><path fill="#ec716f" d="m157 168 3 1v5h2l3 7v-5c2 1 2 1 3.313 3.813 2.701 5.101 6.313 7.345 11.688 9.188v2l3.938-.437 2.215-.246c1.859-.135 1.859-.135 2.848-1.316a90 90 0 0 1 4.938-1.187l2.715-.605L199 187l2 2c-3.426 3.793-6.285 4.334-11.187 4.688l-3.168.137c-2.621.003-2.621.003-4.645 1.176l-2.687-1.375c-3.212-1.866-3.212-1.866-6.75-1.687-5.715-1.504-7.572-6.119-10.562-10.937l-1.691-2.09c-1.977-2.886-1.505-5.514-1.309-8.91h-2v-2z"/><path fill="#1f678d" d="m129 113 1 3 10 1v7l-12 2v3h-8c.506-4.355 1.384-7.442 4-11h2l.938-1.937C128 114 128 114 129 113"/><path fill="#988355" d="m223 336-1 3h-2v3c-3.374 2.603-5.769 3.363-10 3v2c-9.41 4.592-9.41 4.592-14 4l3-1v-5c2.647-1.461 3.894-2 7-2v-3h-11v-1l2.809-.184 3.629-.254 3.621-.246c2.827.007 2.827.007 3.941-1.316 4.721-.72 9.216-1.12 14-1"/><path fill="#b899ae" d="m263 278 3 1-2 1v10l-2-2-1 2-5.25 1.688c-5.784 1.998-7.844 3.984-10.75 9.313l-1 3c-4.876 4.357-7.156 6.138-13.625 6.063l-3.039-.027L225 310v-1l1.898-.586 2.477-.789 2.461-.773c2.329-.75 2.329-.75 4.164-2.852h4v-4a102 102 0 0 1 3-3l1-2.5c1.077-2.692 1.73-3.736 4-5.5 2.918-.73 2.918-.73 6.188-1.187l3.293-.48L260 287z"/><path fill="#63473a" d="m192 132 6 2c-3.006 3.006-5.824 2.596-10 3v2h-4v3c6.063-.663 6.063-.663 12-2v3l8 1-1 5h-3v-2h-8v-3h-13l3-6h-4v-3h6v-2l8 1z"/><path fill="#9998b0" d="M182 97c6.75 2.75 6.75 2.75 9 5 .56 6.16.56 6.16-1.25 8.875-4.282 2.753-8.82 2.207-13.75 2.125l-.75 1.688c-1.479 2.737-3.185 4.989-5.25 7.313h-2l-.625 2.5c-1.721 4.38-4.037 8.154-7.375 11.5-2.195.73-2.195.73-4 1 .188-2.25.188-2.25 1-5a116 116 0 0 1 5-4c1.312-2.117 1.312-2.117 2-4h2l.313-1.75c.796-2.607 1.878-4.224 3.688-6.25h2l.691-1.859c1.706-2.791 3.21-3.267 6.246-4.391l2.652-1.016C184 108 184 108 187 108c-1.269-4.824-1.269-4.824-5-8z"/><path fill="#8f6b66" d="M273 119c4.299.478 6.171 2.901 9 6l1.512 1.535c3.699 3.942 5.591 7.717 7.41 12.781 1.195 2.975 2.706 5.608 4.328 8.371 2.52 4.457 3.425 7.248 2.75 12.313h2c.369 16.708.369 16.708-2 25h-2l-1 3 .5-3.75c.529-5.435.682-10.855.75-16.312l.064-2.54c.046-8.358-2.424-15.066-6.314-22.397l-1.125-2.414c-2.409-5.104-4.643-8.757-8.875-12.586l-3.812-4.25-1.832-2.078C273 120 273 120 273 119"/><path fill="#e2cdb9" d="M122 280h2l1 4h2l.813 2.875c.937 3.378.937 3.378 4.188 5.125l-1 4h-4l.938 3.875.527 2.18c.484 2.004.484 2.004 1.535 3.945l-3-1v-2h-2v-3h-2l1 6-5 1 .438-6.187.246-3.48c.271-2.855.727-5.531 1.316-8.332l.563-4.812.254-2.395z"/><path fill="#523b29" d="m177 154 1 2-1 2-.062 7.625.014 2.141L177 173h2l1.313 2.25c1.854 3.021 3.924 4.584 6.688 6.75v2h7v-3h2l1 6c-13.633-.779-13.633-.779-20-3v-3h-2c-2.625-4.551-2.117-8.396-1.812-13.5l.096-2.59c.415-7.706.415-7.706 3.717-10.91z"/><path fill="#f8f21e" d="M197 35c3.755.921 6.738 1.733 9 5v4h2c4.918 11.345 4.245 23.887 4 36h-2c-1.246-3.805-1.027-7.401-.937-11.375.107-7.718-.73-15.012-2.062-22.625h-2l-1-5c-6.902-.839-13.114-1.016-20 0 2.687-6.201 6.719-6.583 13-6z"/><path fill="#6c271e" d="m134 290 1 2h2l2 6 2.313.375C144 299 144 299 147 301c.512 3.039.512 3.039.688 6.625l.199 3.602L148 314l-9-1v-4h-2c-1.533-6.338-2.484-12.501-3-19"/><path fill="#301314" d="M275 216c-3.538 3.122-6.509 4.633-11 6l-3 2 1.684 11.207c1.335 8.121 2.57 16.24 3.504 24.418l.254 2.148c.556 5.097.624 10.1.559 15.227h-2v-13h-2l-2.136-15.479-.728-5.261-1.042-7.581-.331-2.359c-.56-4.143-.879-8.128-.762-12.321l5.688-2.5 3.199-1.406c2.97-1.043 5.005-1.324 8.113-1.094z"/><path fill="#6d251f" d="M141 263h2l1 17h2v12h-3l1-9-3-1-1-2-3 3c-2.645-3.125-3.844-6.088-5-10l2.438-.625L137 271c.898-3.053.898-3.053 1-6l3 1z"/><path fill="#249cc4" d="m158 104 4.75.375 2.672.211c2.569.413 4.337 1.126 6.578 2.414.188 3.375.188 3.375 0 7-4.054 2.702-6.183 2.229-11 2l-2-1v-2h-2z"/><path fill="#69372a" d="m167 152 4 1-.937 1.563c-2.664 6.111-2.181 12.899-2.062 19.438h2l2.438 4.813 1.371 2.707C175 184 175 184 176 187c-3.253-.241-4.174-1.178-6.5-3.562-5.837-7.643-7.344-13.753-6.5-23.437.395-2.297.395-2.297 1-4l2-1z"/><path fill="#e3aab0" d="M128 128h13c1.915 4.963 3.61 9.866 5 15-7.588-1.035-7.588-1.035-10-3l-1-7-15-1c2-2 2-2 5.125-2.125L128 130z"/><path fill="#c7aa7d" d="M154 342c2.763.523 5.326 1.109 8 2v3c11.448.303 22.291.586 33.418-2.441C198 344 198 344 201 345h-2v5l-7 1v-3l-2.844.492c-4.88.693-9.735.658-14.656.633l-2.94-.012c-23.041-.177-23.041-.177-33.56-4.113 3.55-1.163 6.558-.924 10.25-.562l3.266.309L154 345z"/><path fill="#59393d" d="M142 203c2.896 1.448 3.61 3.094 5 6 .223 3.445.223 3.445.063 7.125-.361 5.282-.361 5.282 1.938 9.875v3h-4l-.375 2.25c-.58 2.551-1.362 4.477-2.625 6.75h-4v-2h-2c-.934-3.01-1.044-3.867 0-7h8l-.535-2.598c-.476-3.481-.299-6.358.098-9.84.471-5.144.33-8.775-1.562-13.562z"/><path fill="#d75b57" d="M266 214c2.125.375 2.125.375 4 1h-2v2l-8 1v2c-5.94 2.663-7.774 3.166-14 1-3.817-.319-7.614-.439-11.441-.559-3.657-.454-5.6-1.312-8.559-3.441 3.684-1.228 7.048-1.086 10.879-1.027l4.729.037 7.453.086 7.194.064 2.26.041c1.83.009 3.66-.087 5.486-.201z"/><path fill="#d76465" d="M109 166c2.972 1.125 5.334 2.223 8 4v2h3v2l3.188.313c3.747.676 5.677 1.654 8.813 3.688 2.191.696 2.191.696 4 1v3l5 1 3-9h3v2l-2 1-2 5 3 1-2 3-4.937-.875-2.777-.492L134 184l-1-2-6-2.187c-6.615-2.46-13.648-5.606-17.238-12.027z"/><path fill="#ee787a" d="m102 137 2 1-1.5 1.375c-1.726 1.501-1.726 1.501-1.5 3.625h2l1.25 3.375.84 2.203 1.789 4.969c2.124 5.864 4.298 9.451 9.121 13.453l3 1c.688 2.063.688 2.063 1 4h-3v-2l-1.75-.875L113 168l-1.984-.844c-2.335-1.339-3.158-2.478-4.516-4.781l-1.262-2.133c-1.858-3.365-3.569-6.78-5.238-10.242h-3c.35-8.193.35-8.193 3.063-11.562z"/><path fill="#f4a378" d="m206 324-6 7 7-1v2l-23 1v-2l8-1-2-1.312-2-1.687v-3c5.793-3.707 11.918-1.986 18 0z"/><path fill="#e76a68" d="m212 285 2 1v6h2v16h5v-2h3l-.91-2.484-1.152-3.266-1.16-3.234c-.757-2.938-.849-4.239.223-7.016l2 4.813 1.125 2.707C225 300 225 300 225 303l3 1v4l-1.75.25c-2.955.985-4.315 2.331-6.25 4.75v4c-3-1-3-1-4.613-3.785-2.09-5.334-2.208-10.991-2.574-16.652l-.248-3.373z"/><path fill="#8a2f2c" d="m144 244 2 1-2 9h-3v2h3v20h2l1-4v18h-1v-10l-3 1v-18h-2v3l-3-1c-.105-5.786.007-11.293 1-17l1 2h3z"/><path fill="#2c1214" d="M128 240c4.875.875 4.875.875 6 2 .49 7.256 1 16.639-3 23-2.625.75-2.625.75-5 1l1-2c.153-1.812.249-3.628.316-5.445l.127-3.262.119-3.418.131-3.441z"/><path fill="#f57b7b" d="m144 152 4 1-2.562 2.75c-3.734 5.118-2.312 10.327-1.437 16.25 0 2.953-.439 4.491-1.5 7.188l-.844 2.168L141 183l-5-1v-3l-2.812-.312c-3.337-.72-4.019-1.259-6.187-3.687l5.438.938 3.059.527C138 177 138 177 139 178l.044-1.896.268-8.479.068-2.984.107-2.852.079-2.634C140 157 140 157 143 155z"/><path fill="#852f2d" d="M268 218c-6.625 3-6.625 3-10 3l1 11h-2v-3l-9 1v2c-1.812 1.063-1.812 1.063-4 2l-3-1c2.872-2.703 4.31-3.948 8.313-4.25L252 229v-2l-12 1v-2l12.813-4.687 2.207-.762C257 220 257 220 260 220v-2c3.287-.8 4.71-1.097 8 0"/><path fill="#e9e3d6" d="M180 39h1c-.317 4.645-1.416 8.083-3.375 12.313-3.211 7.347-4.176 14.819-5.316 22.688-.573 3.715-1.429 7.347-2.309 11h-12v-1c3.663-.749 6.424-1.238 10 0l-.062-3.25c.05-3.022.293-4.927 1.063-7.75.381-2.662.688-5.328 1-8h2l-.125-3.75c-.012-3.371.489-5.285 2.125-8.25.168-2.667.168-2.667 0-5h2v-4h2l2-5z"/><path fill="#d6baa8" d="M130 269c4 11.714 4 11.714 4 16h-2v5h-4l-1-6-3 1c-.349-4.193.416-5.77 3-9v-3l-6 1c.688-1.937.688-1.937 2-4 2.43-.729 4.472-1 7-1"/><path fill="#b23032" d="M248 230h4v2l-5.371 3.027c-1.608.87-1.608.87-2.629 1.973-7.89 1.537-16.003 1.373-24.012 1.605l-3.449.113-3.15.092c-2.342-.074-2.342-.074-3.389 1.189a75 75 0 0 1-4.562.063l-2.504-.027L201 240l-1-2c3.185-1.593 6.681-1.253 10.188-1.375 7.808-.335 15.504-1.098 23.25-2.125l2.995-.396c3.919-.537 7.742-1.082 11.568-2.104v-2z"/><path fill="#a52e2d" d="M181 228a418 418 0 0 1 30.459.732c4.729.257 8.866.141 13.541-.732a207 207 0 0 1 7.875-.062l2.086.014L240 228v1h-11v2c-7.62 1.482-15.277 1.149-23 1l-2.89-.054-8.985-.258-2.9-.068-2.717-.108-2.417-.079c-2.538-.525-3.46-1.468-5.09-3.432z"/><path fill="#517e9e" d="M134 192c5.587 5.388 9.527 10.249 11 18-.047 3.124-.46 5.906-1 9-3-1-3-1-4.562-3.437-1.509-3.74-2.262-7.231-2.91-11.195-.432-2.388-.432-2.388-1.578-4.469-1.328-2.656-1.082-4.977-.949-7.898z"/><path fill="#7a868d" d="M247 305v3l-2 1-.937 1.875c-1.14 2.279-2.053 3.562-4.062 5.125-3.598.918-6.983 1.135-10.687 1.125l-2.887.008C224 317 224 317 222 316l1-6h9l1 2c4.383-.258 6.475-.533 9.813-3.5L245 306z"/><path fill="#ae3636" d="m169 200 7 1v2h3c3.178 2.6 4.884 5.044 6 9l-1 3-1-2c-1.993-2.449-1.993-2.449-5.937-2.125l-2.125.09c-2.628.048-3.979-.163-5.937-1.965-1.427-6.146-1.427-6.146 0-9z"/><path fill="#bfc1bc" d="M264 280c3 1 3 1 4 3l.063 7.625-.014 2.141L268 298h-2l-.375 2.313C265 303 265 303 263 306h-2l1-7h-2c.498-3.735.875-5.812 3-9 .456-2.509.456-2.509.625-5.187l.227-2.73z"/><path fill="#d75456" d="m150 234 9 1-3 1-.437 1.938L155 240l-4 2 .254 2.371.309 3.066.316 3.059L152 253l-1 1 .375 4.688.297 2.738.953 5.949c.37 2.592.224 4.173-.625 6.625h-2l-1 6h-1l.372-16.443.125-5.593.186-8.042.051-2.523.06-2.365.047-2.073c.168-2.077.65-3.945 1.158-5.962v-3z"/><path fill="#a88c5b" d="M125 306c1.906.656 1.906.656 4 2 1.001 2.796 1.512 5.559 2.094 8.469.648 2.676.648 2.676 2.938 3.688L136 321l1 3 5 2 5.125 3.063C149.803 330.727 152 332 155 333v2c-6.162-.77-11.582-3.593-16.187-7.687-2.536-2.502-2.536-2.502-5.316-2.637C131 324 131 324 129.453 321.742c-2.219-5.288-4.07-9.996-4.453-15.742"/><path fill="#fee41d" d="M211 88h2v7c-2.504 2.504-8.045 2.001-11.355 2.063q-4.822.001-9.645-.062v-2h2v-2h6v-2l2.152-.402 2.785-.535 2.777-.527c2.238-.312 2.238-.312 3.285-1.535z"/><path fill="#2781aa" d="m136.5 108.813 2.406-.043C141 109 141 109 143 111c.352 3.799.527 6.144-1.5 9.438L140 122v-5l-3.75.188c-2.943.005-4.106-.109-6.75-1.562C128 114 128 114 128 112h2v-2c2.353-1.177 3.881-1.166 6.5-1.187"/><path fill="#ab8972" d="M260 300v6h-2l-.75 2.313c-1.371 2.948-2.485 4.046-5.25 5.688h-2l-1-2-3-1 2-7c2.215-1.168 2.215-1.168 4.938-2.187l2.715-1.043C258 300 258 300 260 300"/><path fill="#e98d90" d="M260 279h1c.367 5.5.367 5.5-1.199 7.637-2.865 2.169-5.94 2.24-9.426 2.738-2.721.716-3.668 1.422-5.375 3.625-.977 1.802-.977 1.802-1.687 3.688L242 300h-2v4l-2.187.813c-2.824 1.092-2.824 1.092-5.187 2.75-3.198 1.752-6.022 2.084-9.625 2.438l1-2h4l.5-1.812c2.056-2.999 4.329-3.433 7.723-4.477 1.981-.564 1.981-.564 2.777-2.711h2l.813-3.812c.698-3.277 1.439-5.175 4.188-7.187 2.48-.512 2.48-.512 5.188-.687l2.73-.199L256 287v-2h3z"/><path fill="#7b342b" d="M205.938 136.875C208 139 208 139 208 141l2 1h-6v-2l-5.437.438-3.059.246c-2.44.049-2.44.049-3.504 1.316-2.671.141-5.324.042-8 0v-3h4v-2c12.595-3.535 12.595-3.535 17.938-.125"/><path fill="#d39f9a" d="M260 110c2.25-.25 2.25-.25 5 0l4 4 3 1 2.703 5.82c1.885 3.168 4.492 5.076 7.324 7.379 3.048 2.782 5.196 6.086 6.973 9.801v2l-3-1v-4l-1.785-.266c-2.81-.932-3.795-2.202-5.652-4.484-4.636-5.879-4.636-5.879-10.562-10.25l-1.312-2.375c-1.899-2.954-3.682-3.919-6.687-5.625v-2z"/><path fill="#858a78" d="m217 68 4 1c0 3 0 3-2 5.188L217 76c3.653-1.25 4.781-1.671 7-5 2.625-.187 2.625-.187 5 0-1.12 3.361-1.58 3.605-4.437 5.375-3.29 2.207-4.211 3.882-5.562 7.625-2.125.813-2.125.813-4 1-1.803-3.606-1.472-7.428-.328-11.238.73-1.939 1.524-3.853 2.328-5.762z"/><path fill="#68b2e0" d="M162 118h5l-1 6h-2l-.812 2.313c-1.139 2.577-2.002 3.957-4.187 5.688h-2v3h-5l-1-3 2-3h3l.313-1.875C157 125 157 125 160 123c1.205-2.552 1.205-2.552 2-5"/><path fill="#2ba3c9" d="M140 108c2.313-.25 2.313-.25 5 0 1.813 2 1.813 2 3 4h-2l-1 3 8 1v9h-3l-2 3-2-7-4-1 .07-1.863.055-2.449.07-2.426c-.037-2.546-.037-2.546-2.195-5.262"/><path fill="#84724d" d="m141 346 5.875.938 3.305.527C153 348 153 348 155 349l-1 4 26 1v1l-13.375.125-3.793.051c-7.202.038-13.846-.368-20.832-2.176z"/><path fill="#bc442f" d="M148 312h5v2l3.563.375c3.965.417 7.614 1.51 11.438 2.625l8.438 2.125 2.217.551L184 321v1c-8.699.404-16.293-.637-24.687-2.875l-3.279-.816c-5.828-1.502-5.828-1.502-8.033-2.309l-1-2 1-2z"/><path fill="#e29803" d="M178 77c2.354 2.551 2.983 3.71 3.188 7.25L181 87l2.375.438C186 88 186 88 188 89l1-2-1 7 4 2h-8l-1-3c-3.008-1.225-3.008-1.225-6-2l-.062-6.437-.035-3.621C177 78 177 78 178 77"/><path fill="#f2686d" d="M256 233v4l-3.812.813c-3.203.728-3.203.728-5.687 2.75-4.147 3.974-14.041 2.555-19.5 2.5l-2.637-.014L218 243c3.209-1.844 5.978-2.423 9.641-2.852l3.242-.391 3.367-.383 3.414-.406L246 238v-2c3.73-2.034 5.669-3 10-3"/><path fill="#d15d57" d="M147 280h1v10h3v2l2 1-2 1-.062 6.75-.035 3.797c.077 2.738.27 4.872 1.098 7.453h-5c-1.171-10.81-1.312-21.199 0-32z"/><path fill="#58b8e4" d="M158 89c6.308-.357 6.308-.357 8.938 1 1.735 3.266 1.242 6.344 1.063 10h5v2l-4.375-.437-2.461-.246C164 101 164 101 162 100c-1.07-1.742-1.07-1.742-2.125-3.875l-1.07-2.117C158 92 158 92 158 89"/><path fill="#3d2c38" d="m130 184 6 1 2 7h2c3 4.385 3 4.385 3 7l1.938.75C147 201 147 201 147.75 203.125L148 205h2l-1 9-2-3-1.691-2.453c-5.665-8.468-5.665-8.468-5.996-12.609L139 193c-1.782-1.142-1.782-1.142-4-2-5-5.114-5-5.114-5-7"/><path fill="#b0c2c8" d="M170 80h1v6c-2.382 2.382-8.981 1.804-12.387 2.074l-2.418.23-2.218.187c-2.45.63-3.407 1.555-4.977 3.508-.714 2.103-.714 2.103-1 4h-2l-.187 1.813c-1.163 3.132-2.843 3.806-5.812 5.188h-4l1-3 2.875-1.375c4.042-2.102 5.43-4.476 6.813-8.75 2.293-3.276 5.561-4.126 9.313-4.875 4.679-.236 9.32-.177 14 0v-5z"/><path fill="#eb8a84" d="m164 154-.07 3.727-.055 4.898-.051 2.449c-.039 4.765.47 8.413 2.176 12.926-.375 2.375-.375 2.375-1 4-2.624-3.061-3-3.732-3-8h-2c-.59-4.644-1.098-9.257-1.25-13.937l-.078-2.215L159 156c3-2 3-2 5-2"/><path fill="#8e7c62" d="M266 298c1.692 4.707.038 8.393-1.555 12.938-2.177 4.613-5.259 8.14-9.445 11.063h-3v-2l-3-1 1.977-1.398c7.191-5.367 12.155-10.996 15.023-19.602z"/><path fill="#422424" d="M289 136c1.938.75 1.938.75 4 2 .75 2.125.75 2.125 1 4h2l1 8h3c1.676 10.652 2.989 19.538 0 30-1.198-4.147-.89-7.994-.562-12.25l.158-2.258L300 160h-2l-.125-2.812c-.648-4.758-3.082-8.479-5.441-12.586-1.535-2.786-2.604-5.531-3.434-8.602"/><path fill="#f4bc86" d="M216 93h1c.188 2.875.188 2.875 0 6-3.254 2.169-4.134 2.241-7.887 2.195l-2.842-.02-2.959-.051-2.994-.027L193 101l1 3-2 7-4 1 1-3h2c-.33-5.015-.33-5.015-3-9v-3l1.661.494c2.653.574 5.046.619 7.761.604l3.105-.01 3.223-.025 3.27-.014L215 98z"/><path fill="#709fbb" d="m248 295 1 2-1 3 4 1 1-1h5c-2.623 2.28-5.256 3.571-8.437 4.875-3.225 1.363-4.669 2.234-7.187 4.813-3.03 2.95-5.236 3.069-9.375 3.313l-1-3 3.875-.75c3.392-.77 3.392-.77 5.625-3.375L242 304h2l.313-1.687c.819-2.754 2.146-4.9 3.688-7.312z"/><path fill="#957948" d="M184 334h23v3h-3v2c-7.311.369-13.213-.184-20-3z"/><path fill="#4d3c2c" d="m204 157 2 1-.062 2.875c-.163 3.032-.163 3.032 1.063 5.125 2.374.251 2.374.251 5 0 1.664-1.456 1.664-1.456 3-3-.632 10.009-.632 10.009-4 14-2.187.813-2.187.813-4 1v-4l-2-1h2v-4h-3z"/><path fill="#b5955c" d="m172 332 40 1v1h-28v2l8 1v1c-7.75.125-7.75.125-10-1a121 121 0 0 0-5.125-.562l-2.758-.254L172 336z"/><path fill="#ddbb8a" d="M231 327c-3.718 4.309-8.568 5.052-14 6-5.072.331-10.108.286-15.187.188l-4.041-.041L188 333v-1h19l1-3 3.375.125c4.237.015 8.114-.73 12.23-1.687 2.515-.459 4.844-.51 7.395-.437z"/><path fill="#92afca" d="M217 84c2 3.75 2 3.75 2 6l1.828.297C229 91.826 229 91.826 232 96v2l-5.75-.812-3.234-.457c-3.139-.76-4.762-1.435-7.016-3.73-.804-2.695-.814-5.166-1-8l2-1z"/><path fill="#d0ac6a" d="M153 326c7.062 1.389 14.025 3.23 21 5l-2 1v4h-2l-1-2c-2.412-.619-2.412-.619-5.25-1-3.838-.581-7.271-1.224-10.75-3l-1-3z"/><path fill="#e7df76" d="M191.625 31.688c5.462.188 10.044 1.204 14.176 4.941 4.31 5.092 5.172 9.806 5.199 16.371-1.582-3.009-2.439-5.637-3-9h-2l-.875-2.375c-.974-2.722-.974-2.722-3.125-4.625-5.352-1.574-10.976-2.012-16 .5l-2 1.5c2.532-6.873 2.532-6.873 7.625-7.312"/><path fill="#c84144" d="m212.858 237.886 2.396.016 2.588.01 2.721.025 2.732.014L230 238c-6.023 3.614-13.205 3.15-20.004 3.133l-2.55.003a1926 1926 0 0 1-5.307-.005c-2.697-.005-5.393 0-8.09.006l-5.178-.004-2.425.006c-4.26-.018-8.25-.295-12.446-1.139v-1l3.289.016 12.037.039 5.218.021 7.484.022 2.371.016c1.868 0 3.735-.051 5.602-.113 1-1 1-1 2.858-1.114z"/><path fill="#9a885f" d="M192 348v3l4 1c-2.297 1.148-3.583 1.116-6.133 1.098l-2.441-.01-2.551-.025-2.574-.014L176 353v-2l-8-1v-1l8.063-.5 2.279-.145A191 191 0 0 1 192 348"/><path fill="#e8b198" d="m179 140-.937 1.5c-1.001 2.356-1.305 3.989-1.562 6.5-.315 3.065-.839 5.342-2.5 8h-2v-4l-3-1c-.375-2.125-.375-2.125 0-5 2.957-4.127 4.797-6 10-6z"/><path fill="#46afde" d="m178 102 6 1-1 4-10 2-1 3-1-5-11-3v-1l3.684.035 4.754.027 2.432.025L177 103z"/><path fill="#953d3d" d="m154.688 230.875 2.449.055L159 231v1l-9 2v5l-6 1v3l2 1h-2l-1 6h-3c-1.33-6.286-1.33-6.286.125-9.437C142 239 142 239 144.688 238.75L147 239l-.187-2.875L147 233c3.204-2.136 4.019-2.231 7.688-2.125"/><path fill="#ab6368" d="M296 154c2 3 2 3 2 6h2c.369 16.708.369 16.708-2 25h-2l-1 3 .217-1.744c.791-6.98.901-13.862.846-20.881l-.014-3.332z"/><path fill="#f5e5bf" d="M200.25 340.875 204 341l-1 3c-10.533 2.542-20.194 3.383-31 3v-1l7-1v-1l2.703-.148 3.547-.227 3.516-.211c4.243-.543 7.138-2.684 11.484-2.539"/><path fill="#9bacbf" d="M182 97c6.75 2.75 6.75 2.75 9 5 .544 5.981.544 5.981-1 8.875-3.195 1.797-6.365 1.827-10 2.125v-3c2.647-1.461 3.894-2 7-2-1.269-4.824-1.269-4.824-5-8z"/><path fill="#8b2427" d="M134 184c4.75.75 4.75.75 7 3l2.5.438C146 188 146 188 148 191v6l-3-4c-1.296 1.066-1.296 1.066-1.062 3.563L144 199c-4-4.75-4-4.75-4-7h-2c-1.461-2.647-2-3.894-2-7z"/><path fill="#ad3f3f" d="m192 132 6 2c-3.006 3.006-5.824 2.596-10 3v2l-7 2 1-3h-4v-3h6v-2l8 1z"/><path fill="#53b1dd" d="M172 114v2l-6 5v-2h-4l-.812 2.375C160 124 160 124 157 126l-1 3-3 1-2 2-2-1v-6l7.813-1.562L159 123l.438-2.812C161 117 161 117 163.066 115.934 168.886 114 168.886 114 172 114"/><path fill="#c0bab4" d="M130 267v2l-3.375.25c-3.64.331-3.64.331-5 2.625L121 274c-1 3-1 3-2.961 4.203l-2.414 1.047-2.398 1.078C111 281 111 281 108 280c13.556-13 13.556-13 22-13"/><path fill="#ac5c4d" d="M197 184h2l-1 4-1.934.402-2.504.535-2.496.527c-2.043.343-2.043.343-3.066 1.535-2.671.141-5.324.042-8 0v-2l-5-1 2-3 6 3-1-3 15 2v-3z"/><path fill="#dcd8bb" d="m195 30 3.5.813c3.798 1.288 6.288 2.837 9.5 5.188l-1 2-1.562-1.375C200.165 33.11 194.159 32.022 188 33c-2.467 2.398-4.258 5.044-6 8l-2-3c4.02-6.701 7.03-10.072 15-8"/><path fill="#433924" d="m112 332 1.574.988 2.113 1.324 2.199 1.383 5.113 2.992 2 1.313v2h2l2 6c-2.972-1.125-5.334-2.223-8-4v-2l-7-2-2-8zm12 10 1 2z"/><path fill="#d54b4d" d="m159 235 15 3v2l38 1v1l-13.495.11-4.576.041c-10.809.121-21.798.155-31.929-4.151z"/><path fill="#cd93a1" d="m187 113-2 1v3l-3.75.375c-4.438.5-4.438.5-8.25 2.625l-1.5 3.563C170 127 170 127 167.813 127.938L166 128c.506-2.169 1-4 2-6h2l.75-1.687c1.557-2.88 2.887-5.012 5.25-7.312 3.84-1.14 7.162-1.279 11 0z"/><path fill="#f3dd2e" d="m205 40 1 4h2c4.918 11.345 4.245 23.887 4 36h-2c-1.246-3.805-1.027-7.401-.937-11.375.107-7.718-.73-15.012-2.062-22.625h-2z"/><path fill="#fc9c92" d="m168 280 4.313.313 2.426.176c2.624.594 3.57 1.47 5.262 3.512h-8c.026 3.363.026 3.363 1 7 2.92 2.476 2.92 2.476 6 4l-1 2-4-2.312-2.25-1.301L170 292v-3h-2c-1.125-6.75-1.125-6.75 0-9"/><path fill="#a75e56" d="m167 152 4 1-.93 1.641c-1.227 2.704-1.708 5.184-2.195 8.109l-.508 2.984L167 168l-1-3h-2l1 9c-2-2-2-2-2.23-4.68l.043-3.195.02-3.18c.143-2.505.31-4.594 1.168-6.945l2-1 1-3z"/><path fill="#561718" d="M135 249h1l1 7.625.289 2.16c.527 4.103.816 8.067.711 12.215l-6 2 .438-5.375.246-3.023C133 262 133 262 134 260a142 142 0 0 0 .563-5.625l.254-3.039z"/><path fill="#e76a69" d="M278 204h2c0 2 0 2-1.875 3.938-3.589 2.369-6.877 3.311-11.016 4.352-2.297.498-2.297.498-3.109 2.711-5.781 1.858-10.956 2.252-17 2v-1h5v-2l2.449-.586 3.238-.789 3.199-.773c2.826-.773 5.421-1.708 8.113-2.852l3.688-1.5c3.313-1.266 3.313-1.266 5.313-3.5z"/><path fill="#57393a" d="m100 165 8 4v2h2l2 3c2.059.724 2.059.724 4 1v3l4 1-1 2c-4.14-1.672-7.477-3.232-11-6l-3-1v-2h-2v-3h-3z"/><path fill="#655846" d="m177 154 1 2-1 2-.062 4.246.023 2.537.078 5.297.023 2.541.035 2.326C177 177 177 177 176 180h3v3l2 1h-4v-3h-2c-2.625-4.551-2.117-8.396-1.812-13.5l.096-2.59c.415-7.706.415-7.706 3.717-10.91z"/><path fill="#ad3d3b" d="M144 258h1l1 6 3-3 .063 6.125.035 3.445c-.092 3.243-.484 6.249-1.098 9.43l-2-4h-2z"/><path fill="#f3de94" d="m168 340 3.219.402 2.078.26L184 342l2.316.29L192 343v1l-12 1v1h-8v-1l-5-1z"/><path fill="#1c0401" d="M275 216c-3.538 3.122-6.509 4.633-11 6l-3 2 1 14c-2.239-2.239-2.477-3.227-3.125-6.25l-.508-2.266c-.422-2.855-.425-5.603-.367-8.484l5.688-2.5 3.199-1.406c2.97-1.043 5.005-1.324 8.113-1.094"/><path fill="#c85255" d="m100 148 .805 1.652c1.865 3.662 3.926 7.215 5.953 10.789C108 163 108 163 108 166l-2-4h-3l-1 2c-2.076-4.624-3.7-9.101-5-14h3z"/><path fill="#9a7936" d="M172 75h2l1 20h-3v-2h-2l.438-8.437.119-2.432c.33-6.018.33-6.018 1.443-7.131"/><path fill="#997874" d="m122.188 127.938 3.293.59L128 129v1l-2.527.516c-6.307 1.358-12.01 2.866-17.766 5.813L106 137l-2-1 2.438-1.375c2.651-1.372 2.651-1.372 3.563-3.625h2l1-3c3.574-1.191 5.509-.735 9.188-.062z"/><path fill="#cdb26c" d="M183 39h1c.188 2.813.188 2.813 0 6l-1.414 1.348c-2.147 2.237-2.456 4.28-3.148 7.277L178 59l-2 1c-.689 2.349-.689 2.349-1.125 5.063l-.508 2.785L174 70c-2.308-7.464 1.246-15.06 4-22l.791-1.997c1.148-2.795 2.051-4.845 4.209-7.003"/><path fill="#524b5d" d="M142 203c2.896 1.448 3.61 3.094 5 6 .223 3.445.223 3.445.063 7.125-.361 5.282-.361 5.282 1.938 9.875v3c-2.321-.928-3.726-1.603-5.164-3.684-1.115-3.091-.733-5.379-.336-8.629.511-5.211.418-8.837-1.5-13.687z"/><path fill="#e4966a" d="m214 325-1 3 3 2-1.934-.035-2.504-.027-2.496-.035c-2.058-.135-2.058-.135-3.066 1.098h-6l1-3h2l1-3c3.283-1.642 6.425-.519 10 0z"/><path fill="#953336" d="m144 244 2 1-2 9h-3v2l3 1h-4v9l-2-1c-.105-5.786.007-11.293 1-17l1 2h3z"/><path fill="#6b9cb3" d="M170 86c1.333 2.667.671 4.167 0 7h2l-1 2-3-1c-.687-2.062-.687-2.062-1-4l-6.25-.187-3.516-.105c-3.457.313-4.75.95-7.234 3.293l-2-1c1.723-2.329 3.167-3.786 6.018-4.518l7.232-.732 2.547-.234z"/><path fill="#ae9a73" d="M201 345h-2v5l-7 1v-3l-2.937.5c-4.357.634-8.669.59-13.062.5v-1l1.697-.26 7.616-1.178 2.67-.408 2.568-.4 2.365-.365c5.932-1.107 5.932-1.107 8.085-.389z"/><path fill="#bc3a3c" d="M153 232h8v2h7v2l1.828.148 2.422.227 2.391.211c2.445.429 4.208 1.2 6.359 2.414-5.903.412-11.031-.863-16.754-2.266-4.087-.925-8.075-1.381-12.246-1.734z"/><path fill="#f47d7d" d="M104 150c3.352 2.235 3.398 2.591 4.313 6.25 1.53 5.021 3.672 7.404 7.688 10.75l3 1c.688 2.063.688 2.063 1 4h-3v-2l-1.75-.875L113 168l-2.125-.937c-3.584-2.031-4.402-5.335-5.5-9.062l-.789-2.625C104 153 104 153 104 150"/><path fill="#829ba1" d="M135 103c0 3.52-.704 4.439-3 7h-2v2h-2l-.437 1.875C127 116 127 116 126 118h-2l-.875 2.375C122 123 122 123 120 125v-5l2-1 2.211-5.211c.981-2.224 2.144-4.001 3.789-5.789h2v-2z"/><path fill="#a69db4" d="M246 297c0 3.286-.243 4.285-2 7-4.513 4.299-7.384 6.135-13.625 6.063l-3.039-.027L225 310v-1l1.898-.586 2.477-.789 2.461-.773c2.329-.75 2.329-.75 4.164-2.852l2.313-.25c3.987-1.113 5.245-3.47 7.688-6.75z"/><path fill="#f06264" d="m186 200 4 1v3l3.563.313c4.262.517 7.578 1.838 11.438 3.688v1h-13v-2l-2.437-.687L187 205c-.812-2.625-.812-2.625-1-5"/><path fill="#ad3134" d="M147.563 183.938 150 184v2h2l1 2 1.938.313L157 189c1.25 2.563 1.25 2.563 2 5l-3-1v-2h-7v-3h-9l-1-3 2.438.063c3.038-.074 3.087-1.051 6.125-1.125"/><path fill="#db5e5f" d="m157 168 3 1v5h2l3 7v-5l2 1c.729 2.77 1 5.129 1 8 1.077 1.655 1.077 1.655 2.5 3.188L173 191c-3.121-.312-4.583-.526-6.695-2.926l-1.43-2.387-4.543-6.746c-1.994-2.906-1.53-5.518-1.332-8.941h-2z"/><path fill="#a18269" d="m178 142 2 1 6.125.563 3.32.254L192 144v4l-2.437.375L187 149l-1 2-4-1 4-4c-5.169.406-5.169.406-10 2 .875-4.875.875-4.875 2-6"/><path fill="#4fa0be" d="m145 99 5 2v1h-6v2h-3l-1 5h-8c3.11-5.831 5.732-7.048 12-9z"/><path fill="#d8d1c6" d="m108 286 2 1-2 1zm-3 2 3 1-1.023 1.758c-2.473 4.332-4.613 8.409-5.977 13.242h-1l-1 6h-1l-.125-5.187-.07-2.918c.319-4.735 1.738-7.725 5.195-10.895z"/><path fill="#b5514f" d="m266 214 4 1h-2v2l-8 1v2c-7.138 3.2-7.138 3.2-11.5 2.188L246 221v-1l2.301-.621 3.012-.816 2.988-.809A121 121 0 0 0 260 216l2.625-.5c2.32-.263 2.32-.263 3.375-1.5"/><path fill="#e85858" d="M190 202h12v2l1.938.313L206 205l1 3c-6.048-.55-11.306-1.904-17-4z"/><path fill="#ba513c" d="m207.074 316.77 2.271.006 2.342.037 2.377.002c5.795.045 5.795.045 6.936 1.186l7 1v2l-4.937.063-2.777.035C218 321 218 321 217 320l-4.035-.316-2.451-.127-2.576-.119-2.588-.131L199 319c2.822-1.593 4.838-2.25 8.074-2.23"/><path fill="#905d53" d="m130 269 .875 1.875c1.062 2.258 1.062 2.258 3.125 4.125 1.739 3.623 2.336 6.821 2.625 10.813l.227 2.957L137 291h-2l-2 3-1-9h2l-.875-4.375-.492-2.461c-.499-2.351-.499-2.351-2.633-4.164-.125-2.625-.125-2.625 0-5"/><path fill="#2a4a5c" d="M137 205h1l.188 3c.436 3.317 1.553 5.378 3.438 8.125 2.397 3.53 2.397 3.53 2.188 6.875l-.812 2c-2.648-2.578-4.944-4.916-7-8 .023-2.918.023-2.918.375-6.187l.336-3.293z"/><path fill="#cfc866" d="M210 53c2 1 2 1 2.852 3.055 2.649 9.66 2.428 19.02 2.148 28.945l-2-1a99 99 0 0 1-.5-7.375c-.269-5.924-.861-11.576-2.098-17.391C210 57 210 57 210 53"/><path fill="#bb9d85" d="M133 294c3.438 3.438 3.971 7.11 4.125 11.875L137 309h2l-1 4-1.25-1.875c-1.806-2.193-3.159-3.053-5.75-4.125v-3h3l-1.062-2.187c-1.042-3.125-.828-4.694.063-7.812z"/><path fill="#e59b68" d="m180 328 16 2v1h-12v2l-14-2v-1h10z"/><path fill="#d6c4a3" d="M123 300h2v3h2l1 4-3-1 1.875 5.688 1.055 3.199L131 323l-3-1v-2h-3z"/><path fill="#e46e70" d="m293 188 2 1c-1.851 5.444-3.921 8.23-8.477 11.738-1.663 1.205-1.663 1.205-2.523 3.262l-4-1c1.813-2 1.813-2 4-4h3l.188-2.125c1.105-3.908 3.095-5.879 5.813-8.875z"/><path fill="#e5ce9a" d="M162 344h13l-3 1v2h12v1l-9.875.063-2.84.025-2.715.01-2.507.016C164 348 164 348 162 347z"/><path fill="#90726f" d="m221 311 4 1-2 1-1 3h16l-1 2c-3.353 1.118-6.033 1.203-9.562 1.25l-3.504.078L221 319c-2-3-2-3-1.687-5.125C220 312 220 312 221 311"/><path fill="#74879e" d="M223 310h9l1 2h7l-2 3c-2.602.512-2.602.512-5.625.688l-3.039.199L227 316v-3c-1.94-1.705-1.94-1.705-4-3"/><path fill="#7e3a40" d="m147 211 1 3c2.015.733 2.015.733 4 1v2h-2l-1 6 1 1v6l2 1-3 1-2-3h2l-1.562-2.25c-2.534-4.902-1.143-10.494-.437-15.75z"/><path fill="#e5ab2b" d="M179 53c2.189 6.567.075 14.136-1.523 20.719-.846 4.05-1.15 8.161-1.477 12.281h-1c-.354-8.151.077-15.785 1.438-23.812l.407-2.408c1.011-5.635 1.011-5.635 2.155-6.78"/><path fill="#477e95" d="M151 91c1 2 1 2 1.438 4.5.364 2.658.364 2.658 2.563 4.5v3l-9-3v-4h2v-3z"/><path fill="#ce6146" d="M199.188 316.938 203 317v1l2.922.113 3.828.199 3.797.176c3.484.516 4.932 1.137 7.453 3.512h-5v-2h-28c4.043-2.022 6.745-3.135 11.188-3.062"/><path fill="#58b4e3" d="M158 100h3c-.312 1.938-.312 1.938-1 4l-3 1-1 8-6-1c.597-3.342 1.736-5.464 4-8h2v-2h2z"/><path fill="#cfb68b" d="M244 322c-3.546 4.514-8.598 6.466-14 8l-2-1v-3l10-2v-2c3-1 3-1 6 0"/><path fill="#835442" d="m134 294 2 1v3h2c1.604 3.508 2.22 6.144 2 10h2l1 4-4 1v-4h-2c-1.141-4.983-2.222-9.945-3-15"/><path fill="#e5dbcd" d="M122 280h1l.563 5.875.316 3.305C124 292 124 292 123 294l-.062 6.125.027 3.32L123 306l-4 1 .438-6.187.246-3.48c.271-2.855.727-5.531 1.316-8.332l.563-4.812.254-2.395z"/><path fill="#e25658" d="m168 240 1.907.199c7.755.762 15.494 1.107 23.28 1.364l3.752.131L206 242v1l-13.437.625-3.818.195c-6.966.291-13.061.281-19.744-1.82z"/><path fill="#b94446" d="m145 173 2 1v2l-2 1-2 5 3 1-2 3-10-2-1-3c2.763.523 5.326 1.109 8 2l.621-1.934.816-2.504.809-2.496C144 174 144 174 145 173"/><path fill="#a399b3" d="M128 128h13c3 7.75 3 7.75 3 10h-3a101 101 0 0 1-2-6l1-2h-12z"/><path fill="#a2875c" d="M223 336v2l-5.187 1-2.918.563c-2.688.406-5.182.517-7.895.438l-1 3v-3h-11v-1l2.809-.184 3.629-.254 3.621-.246c2.827.007 2.827.007 3.941-1.316 4.721-.72 9.216-1.12 14-1z"/><path fill="#ba7d51" d="M224 322h2v4l2 1c-4.463 1.723-8.102 2.222-12.875 2.125l-3.492-.055L209 329c3.606-1.835 7.274-3.424 11-5v2h-2v2c3.524-2.546 3.524-2.546 6-6"/><path fill="#f37371" d="M159 288c6.525-.993 9.834 1.49 15.059 5.273L176 295v2c-4.881-1.471-9.002-2.743-13-6-2.147-.705-2.147-.705-4-1z"/><path fill="#d0797c" d="M257 234c2 2 2 2 2 6h2l1 16-1-4h-2c-1.036-5.05-1.103-9.874-1-15h-2z"/><path fill="#ee6262" d="m212 285 2 1v6h2v19c-2.572-2.572-2.369-3.863-2.633-7.445l-.254-3.262-.238-3.418-.262-3.441z"/><path fill="#c34443" d="M186 208h2v2l3.125.375c3.496.564 6.559 1.412 9.875 2.625l1 5a147 147 0 0 1-10.25-4.437l-2.641-1.246C187 211 187 211 186 208"/><path fill="#e6dac7" d="M208 156c3.875 1.875 3.875 1.875 5 3 .188 2.438.188 2.438 0 5l-2 2c-2.125-.375-2.125-.375-4-1-.125-6.75-.125-6.75 1-9"/><path fill="#9c605c" d="M97 145c1.166 2.332 1.508 4.438 2 7l1.375 5.625.711 2.852c.948 2.617 1.909 3.675 3.914 5.523v2a56.5 56.5 0 0 1-7-4c-.73-2.609-.73-2.609-1.187-5.75l-.48-3.109c-.326-3.085-.463-6.042-.332-9.141l1-1z"/><path fill="#f29c0a" d="m183 87 5 2 1-2-1 7 4 2h-8c-2.092-4.431-2.092-4.431-1.625-7.312z"/><path fill="#dfd04a" d="M212 68h1l.148 3.359.227 4.391.094 2.211c.21 3.85.612 6.696 2.531 10.039.125 3.25.125 3.25 0 6h-2v2l-2-1z"/><path fill="#947b51" d="M153 348h10v2h4v2h-11v2l-3-1 2-4z"/><path fill="#b08167" d="m248 316-1 3c-2.562 1.188-2.562 1.188-5 2v-3l-1.609.875L238.25 320l-2.109 1.125C234 322 234 322 230 322v-2c6.271-3.716 10.755-4.534 18-4"/><path fill="#b94d46" d="M146 290c2.008 1 2.008 1 4 3 .187 2.843.154 5.202-.125 8l-.148 2.195c-.298 3.672-.65 5.689-2.727 8.805a175 175 0 0 1-1-22"/><path fill="#fc968d" d="m164 154-1 3-.562 7.688-.131 2.127L162 172h-2c-.671-3.944-1.121-7.812-1.25-11.812l-.078-2.27L159 156c3-2 3-2 5-2"/><path fill="#76b6da" d="M164 94h4v6h5v2l-4.375-.437-2.461-.246C164 101 164 101 162 100v-4h2z"/><path fill="#c3a676" d="M128 307h2c5 5.476 5 5.476 5 8l2 1-2 4c-3-1-3-1-4.625-3.687-1.315-3.169-1.971-5.919-2.375-9.312z"/><path fill="#e7e6d8" d="M264 292h2c.573 9.74.573 9.74-3 14h-2l1-7-2-1h2z"/><path fill="#769da9" d="M262 287h1c.462 4.927-1.172 8.507-3 13h-2l1-7-10 2c1.648-3.297 4.67-3.758 8-5h4z"/><path fill="#ec9197" d="M260 279h1c.367 5.501.367 5.501-1.203 7.637-2.25 1.707-3.952 1.962-6.734 2.363-3.872.561-6.072 1.447-9.062 4v-4c4.177-1.591 7.532-2.213 12-2v-2h3z"/><path fill="#be3b3f" d="M248 230h4v2l-5.371 3.027c-1.608.87-1.608.87-2.629 1.973l-7.062.563-3.91.254L230 238c3.272-1.754 6.604-2.957 10.125-4.125l3.195-1.07C246 232 246 232 248 232z"/><path fill="#5f2925" d="M120 179c5.654-.346 9.03.566 14 3v2h-8v-2h-5z"/><path fill="#e1aaa8" d="M248 107c4.877-.348 7.771.583 12 3v2l2.313.75c2.924 1.36 3.988 2.566 5.688 5.25-4.541-1.687-8.406-4.004-12.5-6.562-2.444-1.405-4.861-2.457-7.5-3.437v-1z"/><path fill="#b3976f" d="m174 90 1 2h8l1 4h4v3l-10-3v-2l-4-1z"/><path fill="#eae4c7" d="M180 39h1c-.538 6.182-2.546 11.327-5 17h-1l-1-8h2v-4h2z"/><path fill="#ed835f" d="m152 319 4.75-.125 2.672-.07c2.692.204 4.277.83 6.578 2.195l-1 3-4.812-.812-2.707-.457c-2.664-.784-3.737-1.617-5.48-3.73z"/><path fill="#a9724e" d="M140 312c4.371.514 8.027 2.208 12 4l-4 1v2c-2.924-.627-5.448-1.416-8-3l-1-3z"/><path fill="#d95151" d="m184 204 1 2 7 1v2h13c-4.688 3.125-9.63 2.387-15.062 1.5L188 210v-2h-4z"/><path fill="#952c2a" d="m168 202 3 1 1 5h8l1 2c-7.103 1.184-7.103 1.184-10.437.5-2.512-2.412-2.315-5.154-2.562-8.5z"/><path fill="#793d33" d="M212 144c1.488 1.113 1.488 1.113 3 3 .293 2.918.293 2.918.188 6.188l-.082 3.293L215 159c-3.26-.694-4.79-1.459-7-4l5-1v-2h-3v-3h2z"/><path fill="#c2afc4" d="M164 124h2c-.435 4.79-2.634 8.625-6 12-2.168.703-2.168.703-4 1 .188-2.25.188-2.25 1-5a116 116 0 0 1 5-4c1.312-2.117 1.312-2.117 2-4"/><path fill="#776743" d="M137 345h4l1 7c-5.75-.875-5.75-.875-8-2v-2h2z"/><path fill="#ddc2a3" d="M140 336h4v5h2v3h-9l3-1z"/><path fill="#836840" d="M207 334v3h-3v2c-4.318-.508-8.033-1.197-12-3v-1l6.375-.5 3.586-.281c1.677-.121 3.358-.219 5.039-.219"/><path fill="#eb6968" d="m195.688 259.813 3.449-.043C202 260 202 260 204 262h-7v1h-13v-2c3.939-.924 7.645-1.164 11.688-1.187"/><path fill="#42191c" d="M133 242h1c.319 16.982.319 16.982-3 23l-2-1 .375-4.25.211-2.391c.433-2.466 1.302-4.135 2.414-6.359.448-2.356.448-2.356.625-4.75l.227-2.422z"/><path fill="#733734" d="M292 195c0 4.199-2.21 6.123-5 9a213 213 0 0 1-6.23 5.484c-1.853 1.548-1.853 1.548-3.77 3.516l-3-1 1.609-1.355c3.898-3.336 7.207-6.611 10.391-10.645 1.942-1.754 3.95-3.37 6-5"/><path fill="#e1c3a4" d="M179.848 145.902 186 146c-.5 1.875-.5 1.875-2 4-2.652.985-5.205 1.459-8 2 1.068-5.951 1.068-5.951 3.848-6.098"/><path fill="#815440" d="m183 140 1 2c6.063-.663 6.063-.663 12-2v3c-3.61 1.135-6.984 1.1-10.75 1.063l-3.547-.027L179 144l1-3z"/><path fill="#f17677" d="M150 274c2.725 4.768 1.953 8.758 1 14h-3c-.18-5.22.029-9.073 2-14"/><path fill="#e16064" d="M150 260c2.264 3.925 3.395 7.858 2.563 12.375L152 274h-2l-1 6h-1c.524-6.69 1.105-13.349 2-20"/><path fill="#435464" d="m122 122 4 1v4h2v2h-8c.875-5.875.875-5.875 2-7"/><path fill="#adbfb6" d="M215 66c6.646 1.477 6.646 1.477 8.438 4.125L224 72c-1.25 2-1.25 2-3 4h-4l2-4h2l-1-3-3-1-2 4z"/><path fill="#a57b51" d="m242 318-1 4h-3v2c-2.709 1.354-5.009 1.065-8 1l-1-2 3.25-1.375 6.063-2.812C240 318 240 318 242 318"/><path fill="#f27d76" d="M201 189c-3.856 3.977-3.856 3.977-7.113 4.043L188 192l1-3c1.961-.801 1.961-.801 4.375-1.312l2.398-.551C198 187 198 187 201 189"/><path fill="#f9baa5" d="m179 140-3 6h-2v2h-2v2h-2c2.453-10 2.453-10 9-10"/><path fill="#656686" d="M142 128h3l.875 3.125c.948 3.325 2.008 6.603 3.125 9.875-1.812-.562-1.812-.562-4-2-2.069-3.991-3-6.476-3-11"/><path fill="#856c47" d="m222 338-2 1v3c-2.375 1.75-2.375 1.75-5 3l-2-1-1-5c3.406-.778 6.508-1.1 10-1"/><path fill="#8a7757" d="M252 320v2l2 1c-3.625 3-3.625 3-7 3v-2l-4-1c3.072-2.731 4.904-3.341 9-3"/><path fill="#d16b6d" d="M216 308h8c-1 3-1 3-4 5v4l-3-1z"/><path fill="#e15a55" d="M220 294c1.903 2.855 2.462 4.419 3.125 7.688l.508 2.449L224 306h-3v2h-5c1-2 1-2 4-4 .364-2.437.364-2.437.188-5.125l-.082-2.758z"/><path fill="#cd5c5b" d="M109 166c2.972 1.125 5.334 2.223 8 4v2h3l2 5c-5.687-2.625-10.136-5.272-13-11"/><path fill="#8fb2d7" d="M163 120h3v4h-2l-.812 2.313c-1.132 2.561-2.1 3.884-4.187 5.688l-2-1 6-11z"/><path fill="#a0847f" d="M260 110c2.25-.25 2.25-.25 5 0l4 4 3 1c.688 2.063.688 2.063 1 4-4.763-1.905-8.898-3.899-13-7z"/><path fill="#98acc4" d="M168 94c2.929.628 5.361 1.586 8 3l-2 4-6-1z"/><path fill="#eea412" d="m179 64 2 1-.375 4.313-.211 2.426C180 74 180 74 178 77c-.458 2.739-.458 2.739-.625 5.688l-.227 3.012L177 88h-1c-.407-8.509.569-15.839 3-24"/><path fill="#986853" d="M197 184h2l-1 4c-5.346 1.002-9.624.849-15 0l-1-3 15 2z"/><path fill="#594841" d="M289 136c1.938.75 1.938.75 4 2 .75 2.125.75 2.125 1 4h2l1 10-2-3-1.254-1.867c-2.389-3.666-4.328-6.668-4.746-11.133"/><path fill="#dd7c8a" d="m144 138 1.875 1.063c4.495 1.349 8.535.597 13.125-.062v2c-2.901 1.934-3.897 2.301-7.187 2.625L148 144v-2l-4-2z"/><path fill="#d78274" d="M174 136h4v2h4l-2 4-1-2-7 2c.875-4.875.875-4.875 2-6"/><path fill="#c6d5d6" d="m217 63 6 1 1 5h5c-3 2-3 2-6 2l-2-3c-2.563-.73-2.563-.73-5-1z"/><path fill="#f0ee45" d="M197 35c5.559 1.338 5.559 1.338 8 5l-2.012-.656-2.676-.844-2.637-.844c-4.63-1.135-6.846-1.157-10.988 1.344L184 41c2.687-6.201 6.719-6.582 13-6"/><path fill="#f3d390" d="m150 335 9 2-1 2c1.391 2.624 1.391 2.624 3 5l-9-4v-3h-2z"/><path fill="#ee8762" d="M214 321v2l2 1v3h-2v-2l-3.312.063C207 325 207 325 204 324v-2c3.406-.778 6.508-1.1 10-1"/><path fill="#a43827" d="M148 312h5v2l1.813.375C157 315 157 315 160 317c-4.921.167-8.503.248-13-2z"/><path fill="#a4825e" d="M258 302c.75 1.625.75 1.625 1 4-1.937 3.25-1.937 3.25-4 6l-3-1c1.161-4.355 2.077-6.646 6-9"/><path fill="#5d1d19" d="M138 271v10c-4-2-4-2-5.25-5.125L132 273c4.875-2 4.875-2 6-2"/><path fill="#396a82" d="m129 113 2 4h-2l-2 6-4-1 1-4h2l.938-1.937C128 114 128 114 129 113"/><path fill="#ccb0bb" d="m188 100 3 2c.364 3.34.611 5.855-1 8.875-3.195 1.797-6.365 1.827-10 2.125v-2l7-2c.701-3.153 1-5.727 1-9"/><path fill="#97b1b7" d="m147 94 1 2h-2l-.187 1.813c-1.163 3.132-2.843 3.806-5.812 5.188h-4c1-3 1-3 3.813-4.5L143 97z"/><path fill="#8d7d56" d="M204 344h4v2l2 1c-9.41 4.592-9.41 4.592-14 4 3-2 3-2 6-2z"/><path fill="#8f1616" d="m234.188 229.938 2.73.027L239 230l-1 3h-12v-2c3.015-1.005 5.042-1.103 8.188-1.062"/><path fill="#8c1e1a" d="m181 228 24 2v1l-10.312.188-2.959.076-2.842.029-2.618.048C184 231 184 231 181 228"/><path fill="#4f222d" d="M144 199c3 2 3 2 3.688 4.125L148 205h2l-1 9c-4.25-6.375-4.25-6.375-4.625-10.687l-.227-2.449z"/><path fill="#45b3e2" d="M163 116c-1.96 3.527-3.995 6.295-7 9h-1v-8c2.928-.976 4.956-1.082 8-1"/><path fill="#eda4a9" d="M233 95h5l-2 1v4l2.438.875C241 102 241 102 242 104c-3.344-.557-6.033-1.352-9-3z"/><path fill="#3497c0" d="M152 91h2v5h2c1.125 5.75 1.125 5.75 0 8l-3-1h2l-1.437-2.187c-1.518-2.733-2.229-4.724-2.562-7.812l1-2z"/><path fill="#cfb0b6" d="m238 91 2 5-7-1v5l-5-1 4-1-1-6c4.75-1 4.75-1 7-1"/><path fill="#669594" d="M215 77h5l-1 7-4 1z"/><path fill="#a18e64" d="M168 349h16l-2 4h-6v-2l-8-1z"/><path fill="#f5c99b" d="m207 329 7 2c-2 2-2 2-4.43 2.227l-3.015-.032-3.262-.02-3.418-.051-3.441-.027L188 333v-1h19z"/><path fill="#f66568" d="M213 270c2.563 3.008 3.27 5.169 4 9l1.563 3c1.449 3.024 1.728 4.711 1.438 8-2-3.75-2-3.75-2-6h-2c-2.04-4.93-3.407-8.58-3-14z"/><path fill="#798aa4" d="m147 135 5 2v-2h4l-1 5h-7z"/><path fill="#3b86ae" d="m136.625 108.938 2.477.027L141 109l1 2-14 3v-2h2v-2c2.405-1.203 3.95-1.101 6.625-1.062"/><path fill="#ebaea3" d="M188 99c2.542.339 3.694.638 5.375 2.625.921 3.499-.216 6.027-1.375 9.375l-4 1 1-3h2c-.582-5.309-.582-5.309-3-10"/><path fill="#d7be8d" d="M191 340h15v3h-2v-2l-1.836.438C196.013 342.8 190.29 343.241 184 343v-1l7-1z"/><path fill="#9b2926" d="m189 228 21 1v3l-7.687-.937-2.186-.264c-3.747-.462-7.435-.991-11.127-1.799z"/><path fill="#a08476" d="M205 174h2v4h2v2l-2.812-.687L203 179c-1.709 1.375-1.709 1.375-3 3h-3l-1 2v-3l5-3 2.188-2.187z"/><path fill="#f06368" d="M142 164c1.782 3.454 2.851 6.052 3 10-1.091 3.13-2.477 6.059-4 9-1.302-3.905-.623-7.205-.062-11.187l.303-2.271z"/><path fill="#9b2e33" d="M103 162h3c1.605 1.969 1.605 1.969 3.188 4.5l1.605 2.531L112 171h-4c-5-5.114-5-5.114-5-9"/><path fill="#fa6d74" d="m144 152 4 1-2.437 2.75c-3.595 4.925-3.456 10.339-3.562 16.25h-1c-.554-13.633-.554-13.633 3-20z"/><path fill="#753627" d="m167 152 4 1-.875 1.688L167 162h-2c-.179-3.947-.094-6.598 2-10"/><path fill="#ee9ca1" d="m187 113-2 1v3l-10 1c6.353-6.882 6.353-6.882 12-5"/><path fill="#38abd3" d="m160 103 15 1-2 8h-1l-1-5-11-3z"/><path fill="#8e8782" d="M130 267v2l-7 1-1 3-6 1c4.465-4.847 7.34-7 14-7"/><path fill="#231a1b" d="M121 182h5v3l-3 1-1 15h-1z"/><path fill="#5f4642" d="M96 142c1.079 3.672 1.382 7.318 1.688 11.125l.324 3.758C98 160 98 160 96 162c-.826-4.322-1.135-8.414-1.125-12.812l-.008-3.457C95 143 95 143 96 142"/><path fill="#9b342f" d="M199 135c3.788.526 6.172 1.381 9 4v2l2 1h-6v-2l-2.5-1.5-2.5-1.5z"/><path fill="#4380a4" d="M140 124v2c-3.75 1.125-3.75 1.125-6 0v2h-6v-2c3.9-2.6 7.474-2.151 12-2"/><path fill="#4b4128" d="m200 352-1 2c-6.349 1.008-12.582 1.121-19 1v-1l2.992-.402 3.883-.535 3.867-.527c7.135-1.172 7.135-1.172 9.258-.535z"/><path fill="#907548" d="M207 334h9c-1.648 3.297-4.67 3.758-8 5h-4v-2h3z"/><path fill="#5d91ac" d="M242 308c-.562 1.938-.562 1.938-2 4-3.625.75-3.625.75-7 1l-1-3c3.62-1.316 6.096-2 10-2"/><path fill="#551c0d" d="M141 304h4l1 8-4-1z"/><path fill="#645359" d="m138 230 5 1-2 1 1 6h-4z"/><path fill="#602227" d="M136 186h2l.813 1.938c1.074 2.394 1.074 2.394 4.188 3.063l1 8c-4-4.75-4-4.75-4-7h-2z"/><path fill="#b28f77" d="m173 180 4 1v3h5l1 4c-3.497-.648-6.126-1.902-9-4-.812-2.187-.812-2.187-1-4"/><path fill="#30add5" d="M148 114h6c1.607 3.215 1.057 6.436 1 10l-2 1c-.845-3.378-1.108-5.675 0-9h-5z"/><path fill="#aa9491" d="m248 102 8 2v2h2l2 4c-4.234-1.311-8.074-2.944-12-5z"/><path fill="#b79a5a" d="M143 328c3.012.644 5.517 1.65 8.25 3.063l2.141 1.098L155 333v2c-4.86-.607-8.741-2.728-13-5z"/><path fill="#ef8779" d="m215 311 2 1 1 5h-20v-1l16-1z"/><path fill="#c7a0a2" d="m263 278 3 1-2 1v10l-2-2c-2.069-.643-2.069-.643-4-1h2z"/><path fill="#f26568" d="M208 271c3.745 3.745 3.689 7.983 4 13l-1-2h-2c-1.283-3.85-1.066-6.947-1-11"/><path fill="#fda299" d="M137 162c2 2 2 2 2.195 4.82l-.07 3.305-.055 3.32L139 176h-5l1.563-1.5c2.146-3.732 1.115-6.297.438-10.5z"/><path fill="#c3aaba" d="M136 130h4l1 8h3v2l-5-1z"/><path fill="#892827" d="m199 135 3 3 4 2c-8.193.63-8.193.63-11.562-2L193 136c3-1 3-1 6-1"/><path fill="#ba5b54" d="M178 135c5.75-.125 5.75-.125 8 1v3l-5 2 1-3h-4z"/><path fill="#aec1d0" d="M219 88h9l1 3c1.5 1.667 1.5 1.667 3 3l-1 2-2.062-1.875C225.541 91.668 223.04 90.951 219 90z"/><path fill="#b49342" d="M176 58h1l-1 14h-2v3h-2c.728-3.807 1.613-7.555 2.563-11.312l.816-3.238z"/><path fill="#f5dfa7" d="M175 343h17v1l-12 1v1h-8l3-1z"/><path fill="#f5968b" d="M168 280h6l1 2h-5v7h-2c-1.125-6.75-1.125-6.75 0-9"/><path fill="#ded4c7" d="M127 272c.75 1.75.75 1.75 1 4-1.937 2.25-1.937 2.25-4 4v-5l-4 1v-2z"/><path fill="#b85858" d="m280 204 3 1c-3.966 4.388-7.012 7.686-13 9v-2c4.385-3 4.385-3 7-3l1-3h2z"/><path fill="#3a202e" d="m130 184 6 1 2 7c-4.206-1.502-5.739-4.286-8-8"/><path fill="#d16d67" d="M216 162h1c.767 8.622.767 8.622-1.113 12-1.387 1.625-1.387 1.625-3.887 4l-3-1 2-1c1.134-2.017 1.134-2.017 2-4h2z"/><path fill="#f2e7d4" d="M169 162h3v9l-3 1z"/><path fill="#68adc7" d="M153 129h3l1 6h-5l-1-3z"/><path fill="#6d8ba0" d="m175 93 3 1v2h4v3h-6l-1-2-3-2h3z"/><path fill="#d3b889" d="M159 344h3v3l14 1v1l-6.187.125-3.48.07c-3.249-.19-5.419-.802-8.332-2.195l1-3z"/><path fill="#ebdac6" d="M124 324h6v7l-1.312-1.5c-1.685-1.832-1.685-1.832-4.687-1.5z"/><path fill="#ac6d4b" d="m228 319 4 1h-2v2l3 1-3 1v2h-4v-5h2z"/><path fill="#3c1612" d="m280 211-1 3c-1.996.949-1.996.949-4.437 1.688l-2.434.762C270 217 270 217 268 217v-2l4.875-2 2.742-1.125C278 211 278 211 280 211"/><path fill="#dcb6a4" d="M203 178h1v6h-2v2h-2v-2h-3v-2l5-3z"/><path fill="#79372a" d="M169 178c4.026 1.342 4.883 3.423 7 7v2c-2.867-.573-3.861-.861-6-3z"/><path fill="#7c5446" d="M208 170h4v2h-3v3l3 1-5 2v-4l-2-1h2z"/><path fill="#cf908e" d="M281 129c3.491 1.164 3.852 1.89 5.688 4.938l1.324 2.152C289 138 289 138 289 140l-3-1v-4l-4-1z"/><path fill="#4d7ba1" d="m142 124 4 1 1 10c-2-2-2-2-2.125-4.625L145 128h-3l-1 2z"/><path fill="#816b49" d="m247 324 1 4-6 1v-3l-2-1c2.463-1.231 4.28-1.072 7-1"/><path fill="#9c432d" d="M209 318c6.433-.121 12.618.176 19 1v2l-4.937.063-2.777.035C218 321 218 321 217 320a69 69 0 0 0-4.062-.562L209 319z"/><path fill="#bcaa93" d="M123 300h2v3h2l1 4-3-1 1 6h-2z"/><path fill="#c19588" d="m131 275 2 1c.414 2.066.414 2.066.625 4.563l.227 2.504L134 285h-2v5h-1z"/><path fill="#346589" d="M138 207c6 7.2 6 7.2 6 12-3-1-3-1-4.687-3.75-1.252-3.1-1.602-4.967-1.312-8.25z"/><path fill="#245473" d="M137 205h1l.375 3.188c.536 3.272 1.264 5.818 2.625 8.813l-2 2-1-2h-2z"/><path fill="#6e614a" d="M173 174h4l-1 6h3v3l2 1h-4v-3h-2c-1.461-2.647-2-3.894-2-7"/><path fill="#df9baa" d="m164 129 1 4h-2l-2 4h-2l-1 3h-3c.813-1.937.813-1.937 2-4l3-1z"/><path fill="#46a4c6" d="m150 124 4 1-2 7-3-1v-6z"/><path fill="#baa883" d="M201 345h-2v5h-3v-2l-8-1v-1l4.813-1.062 2.707-.598C198 344 198 344 201 345"/><path fill="#19140a" d="m113 338 1 2 2.25.375c3.392.771 5.175 2.344 7.75 4.625l-1 2c-7.247-3.459-7.247-3.459-10-6z"/><path fill="#c2a15c" d="M172 332h10v1h-6v2l4 1h-8z"/><path fill="#d9d2c1" d="m103 315 4 3-1 7-4-3z"/><path fill="#e5ded4" d="m101 312 4 2-1 7-3-1-1-7z"/><path fill="#999281" d="M266 298c1.055 3.194.976 5.04-.187 8.188l-.73 2.105C264 310 264 310 261.887 310.738L260 311c1.687-4.498 3.817-8.729 6-13"/><path fill="#7e241a" d="M144 280h2v12h-3z"/><path fill="#573131" d="M132 262h1c.286 7.429.286 7.429-2 11l-1-6-3-1 1.938-.312L131 265z"/><path fill="#5f292c" d="m145 229 4 2-3 6h-3z"/><path fill="#45778b" d="M134 192c2 1.438 2 1.438 4 4 .354 3.028.233 5.965 0 9-3.127-4.69-4.261-7.257-4-13"/><path fill="#c36366" d="m293 188 2 1c-2.857 7.571-2.857 7.571-7 10v-3h2l.938-3.437C292 189 292 189 293 188"/><path fill="#28170b" d="m185 180 9 1v3h-7z"/><path fill="#bf8180" d="m102 137 2 1-1.437 1.188c-1.946 2.258-2.135 3.891-2.562 6.813l-1 4h-2c.35-8.193.35-8.193 3.063-11.562z"/><path fill="#5b9bc3" d="M141 120h2c-.875 5.75-.875 5.75-2 8h-7v-2h6z"/><path fill="#394b41" d="M172 87c2.565 2.565 2.54 4.477 3 8h-3v-2h-2v-5z"/><path fill="#dd444a" d="M213 284h4v7l-3 1z"/><path fill="#0b1b23" d="M138 220c4.875 4.625 4.875 4.625 6 8h-7l2-2-1-1z"/><path fill="#1c485b" d="M132 196h2c3.816 5.725 3.293 11.297 3 18h-1l-.113-2.23c-.476-7.345-.476-7.345-3.887-13.77z"/><path fill="#463c2d" d="m176 170 1 3h2l3 6h-6l-1-2h2z"/><path fill="#fa8685" d="m127 175 5.438.875 3.059.492L138 177l1 2c-4.989.293-7.962.059-12-3z"/><path fill="#281e11" d="M176 158h1c1.263 5.075 2.27 9.728 2 15h-2c-1.095-3.285-1.1-5.737-1.062-9.187l.027-3.293z"/><path fill="#512017" d="M205 144h7v5l-3 1-1-5-3 1z"/><path fill="#6799b1" d="M136 103h4v3c-1.75 1.75-1.75 1.75-4 3-2.25-.312-2.25-.312-4-1 1.75-2.5 1.75-2.5 4-5"/><path fill="#51a8d0" d="M180.125 100.25 183 101l1 2-2.937-.062c-2.937-.294-2.937-.294-4.062 1.063h-7l1.813-.875c5.957-3.063 5.957-3.063 8.313-2.875z"/><path fill="#fee933" d="M197 94c2.691.176 5.329.618 8 1v2h-13l4-2z"/><path fill="#48a6cf" d="m158 89-1 7h-3v-5l-2-1c2-1 2-1 6-1"/><path fill="#8cb795" d="M217 84c1.858 3.135 2.201 5.375 2 9h-3l-1-8z"/><path fill="#f5ebd8" d="M174 53h1l-1 13h-2l-.125-4.25-.07-2.391c.212-2.567.909-4.151 2.195-6.359"/><path fill="#c7aa73" d="M134 324c2.884 1.293 4.872 2.659 7 5-1.812.625-1.812.625-4 1l-3-2z"/><path fill="#eb7c5e" d="m169 322 6.063.438 3.348.309L181 323v1h-9v2h-3l-1-3z"/><path fill="#c19862" d="m141 316 9 4v2h-6l-1-3-2-1z"/><path fill="#ab9470" d="M125 306c1.875.5 1.875.5 4 2 .985 2.652 1.459 5.205 2 8-2.437-1.062-2.437-1.062-5-3-.812-3.687-.812-3.687-1-7"/><path fill="#942c28" d="M146 272h1v18h-1l-.184-2.047-.254-2.703-.246-2.672A44 44 0 0 0 144 276h2z"/><path fill="#cbbeb6" d="m130 269-1 4-8 1c.688-1.937.688-1.937 2-4 2.43-.729 4.472-1 7-1"/><path fill="#12191a" d="m124 226 2 3 2.688 3 2.313 3-1 3h-2l-2-3.75-1.125-2.109C124 230 124 230 124 226"/><path fill="#f76668" d="M196 196h5l-1 3v-2zm-2 3h6l-1 3h-5z"/><path fill="#5b4936" d="M176 179h6v2h2v4l-5-2v-3z"/><path fill="#743427" d="M214 163h1l-.375 4.313-.211 2.426C214 172 214 172 212 175h-3v-3h3z"/><path fill="#72868f" d="M127 113c0 3 0 3-1 5h-2l-.875 2.375C122 123 122 123 120 125v-5l2-1 1-3z"/><path fill="#1c7ea6" d="M150 97c1.938.75 1.938.75 4 2 .75 2.125.75 2.125 1 4l-7-2z"/><path fill="#885762" d="M144 222c3 1 3 1 5 4v3c-2.622-1.049-3.794-1.649-5.25-4.125L143 223z"/><path fill="#6c2d34" d="m147 211 1 3c2.015.733 2.015.733 4 1v2h-2l-1 5h-1z"/><path fill="#311716" d="m301 172 3 1-1.312 4.938-.738 2.777L301 183l-3 1z"/><path fill="#8c5452" d="M98 160c3.714 1.238 4.774 2.852 7 6v2a56.5 56.5 0 0 1-7-4z"/><path fill="#f5b02e" d="M183 92h5v2l4 2h-8z"/><path fill="#ddd8aa" d="M204 36c2.712.678 4.518 1.379 6.258 3.621C211.375 41.5 211.375 41.5 213 45l-1 2-4-4.937-2.25-2.777C204 37 204 37 204 36"/><path fill="#dec67a" d="M180 339h6l2 2c-3.981 1.327-7.85 1.069-12 1l4-1z"/><path fill="#a68f74" d="m259 311 1 4c-5.625 3-5.625 3-9 3z"/><path fill="#817460" d="m262 310 2 1c-1.911 3.536-3.626 5.79-7 8l1-4h2v-4z"/><path fill="#907386" d="m221 311 4 1-2 1-1 3h2v2l-5-2c.875-3.875.875-3.875 2-5"/><path fill="#d18f98" d="M236 305c-4.385 3.316-7.375 4.55-13 5 1.402-2.805 3.061-3.044 5.938-4.187l2.715-1.105C234 304 234 304 236 305"/><path fill="#6c95b3" d="m244 302 1 2 3 1c-4.625 3-4.625 3-8 3l2-4h2z"/><path fill="#a9a497" d="m107 281 1 2c-1.734 3.65-3.193 5.556-7 7 1.312-3.937 2.919-6.227 6-9"/><path fill="#a9a5a2" d="m121 274-1 2c-2.066.633-2.066.633-4.562 1.125l-2.504.508L111 278c2.432-3.769 2.432-3.769 5-4.812 2-.187 2-.187 5 .813z"/><path fill="#d14648" d="m159 235 15 3c-3.977.994-6.929 1.364-11 1z"/><path fill="#4c3432" d="M297 150h3l1 7h-2l-1 3z"/><path fill="#2f90b4" d="m144 120 3 1 1 6-2 1v-3l-3-1z"/><path fill="#6d8e8d" d="m217 68 4 1v3l-5 2z"/><path fill="#d8cf63" d="M183 39h1c.367 5.5.367 5.5-1.375 7.875C181 48 181 48 179 48c1.75-6.75 1.75-6.75 4-9"/><path fill="#594a37" d="M123 340h2v2h2l2 6c-4.875-1.875-4.875-1.875-6-3zm1 2 1 2z"/><path fill="#4a4432" d="m112 332 7 4-5 4z"/><path fill="#1b180e" d="M105 328c3.359 1.44 5.716 3.124 8 6-.25 2.25-.25 2.25-1 4v-2h-2l-3-5z"/><path fill="#f58a65" d="m160 320 6 1-1 3-7-1 2-1z"/><path fill="#d87556" d="m148 317 3.75-.125 2.109-.07c2.442.223 4.027.986 6.141 2.195l-4.312.563-2.426.316C151 320 151 320 148 319z"/><path fill="#aa474b" d="M142 241c1.097 3.29.8 4.713 0 8l-3-1c-.187-2.375-.187-2.375 0-5z"/><path fill="#b55b60" d="m256 230 1 2h3v8l-.812-1.812c-1.172-2.16-2.381-3.545-4.187-5.187z"/><path fill="#b2393b" d="M252 222v4h-8c4.625-4 4.625-4 8-4"/><path fill="#8f3838" d="m124 179 4.438.813 2.496.457L133 181l1 3-7-1v-2h-3z"/><path fill="#fd9f97" d="M162 154h2l-.875 4.438-.492 2.496L162 163l-2 1v-8z"/><path fill="#5696c0" d="M172 114v2l-6 5v-2c-1.458-1.625-1.458-1.625-3-3 6.75-2 6.75-2 9-2"/><path fill="#d3b974" d="M186 339c2.164-.293 2.164-.293 4.625-.187l2.477.082L195 339c-1.634 1.964-2.464 2.923-5.043 3.293L184 342z"/><path fill="#7c6842" d="m230 329 4 1-3 3 3 2-5 1c-.625-1.812-.625-1.812-1-4z"/><path fill="#797a97" d="M223 312h5l-1 4h-5z"/><path fill="#b4967b" d="m245 310 5 2v2l2 1c-4 0-4 0-7-2z"/><path fill="#e7dfc4" d="M262 296h2v9l-3 1 1-7-2-1h2z"/><path fill="#739cbf" d="M260 290v3l-11 2c1.952-3.905 6.883-5 11-5"/><path fill="#35424c" d="M136 229h6l-4 1v6h-2c-.934-3.01-1.044-3.867 0-7"/><path fill="#a82b2f" d="m252 229-4 1v2c-1.812 1.063-1.812 1.063-4 2l-3-1c3.737-3.517 5.865-4.478 11-4"/><path fill="#557492" d="M142 205c2.756 4.134 3.108 6.052 3 11h-2c-2.125-7.625-2.125-7.625-1-11"/><path fill="#822a30" d="M134 184c4.288.476 6.266 1.659 9 5v2l-4-1-.25-1.875c-.563-2.309-.563-2.309-2.812-3.375z"/><path fill="#5d3023" d="m196 141 2.063.438c3.3.632 6.609 1.106 9.938 1.563l-3 1-1 2v-2l-8-1z"/><path fill="#b4b4ae" d="m232 70-1 4-5 1 3-4-3-1c3-1 3-1 6 0"/><path fill="#a29169" d="m203 343 2 1c-1.312 2.5-1.312 2.5-3 5h-3v-4c1.875-1.062 1.875-1.062 4-2"/><path fill="#8c764f" d="m228 330 2 1-1 5-4 1 1-6z"/><path fill="#d7b97a" d="m140 322 1 2 2.5 1c2.5 1 2.5 1 3.5 3-3.375-.547-5.082-1.055-8-3z"/><path fill="#dbccb0" d="M260 299h2v9l-3 1z"/><path fill="#44a1c3" d="m257 294-1 5-4-1 1-3c2-1 2-1 4-1"/><path fill="#e9e1d0" d="m108 286 2 1-2 1zm-3 2 3 1-4 5c-.625-1.875-.625-1.875-1-4z"/><path fill="#c8b3a3" d="m129 272 2 3h-2l-2 7h-2c.706-3.669 2.277-6.705 4-10"/><path fill="#db7c71" d="M201 189c-1.811 1.811-4.613 1.382-7.062 1.563l-3.348.254L188 191c1-2 1-2 2.961-2.703l2.414-.547 2.398-.578C198 187 198 187 201 189"/><path fill="#15262f" d="M128 187h2v2h2v3h-2v4l-2-1z"/><path fill="#de4c52" d="m145 173 2 1v2l-2 1-2 6h-2l1.438-4.437.809-2.496C144 174 144 174 145 173"/><path fill="#89483e" d="M164 165h2c1.25 6.5 1.25 6.5-1 11z"/><path fill="#6f4143" d="m100 165 8 4v2l-8-2z"/><path fill="#c56466" d="M100 148c.872 2.995 1.108 5.636 1.063 8.75l-.027 2.422L101 161c-1.875-3.561-2.953-7.112-4-11h3z"/><path fill="#d2796f" d="m170 151-3 1c-.733 2.015-.733 2.015-1 4h-2v-2l-2-1c3.228-2.152 4.284-2.201 8-2"/><path fill="#f98384" d="M104 150c3 2 3 2 3.73 4.164l.457 2.461.48 2.477L109 161h-2l-1.5-3.812-.844-2.145C104 153 104 153 104 150"/><path fill="#e3a09e" d="m275 123 6 5v3h-2c-4-4.353-4-4.353-4-8"/><path fill="#9a7d7a" d="M273 119c1.813.188 1.813.188 4 1 1.813 2.438 1.813 2.438 3 5l-1 2-3-3.437-1.687-1.934C273 120 273 120 273 119"/><path fill="#dd8e1e" d="M177 88h5l1 4-6-1z"/><path fill="#8d7b5c" d="m128 341 4.438.875 2.496.492L137 343l1 2c-2.75.25-2.75.25-6 0-2.375-2-2.375-2-4-4"/><path fill="#e2c999" d="M231 327c-1.125 1.5-1.125 1.5-3 3-3.187.188-3.187.188-6 0v-2c3.073-.911 5.801-1.089 9-1"/><path fill="#bb865c" d="M224 322h2v4l2 1-6 1v-2h2z"/><path fill="#a78849" d="M135 323c5.662 1.477 5.662 1.477 7.375 4.125L143 329c-3.914-1.269-5.791-2.512-8-6"/><path fill="#b6747a" d="m221 308 3 1-2 1.75c-2.443 2.247-2.443 2.247-2 6.25h-2c-.262-3.146-.248-4.618 1.5-7.312z"/><path fill="#7e2e1d" d="M146 301h1l1 13-4-1 2-1z"/><path fill="#a93c3f" d="M146 244h2c.25 2.313.25 2.313 0 5-2 1.813-2 1.813-4 3 .875-6.875.875-6.875 2-8"/><path fill="#a53d41" d="M150 231h9v1l-1.934.367-2.504.508-2.496.492L150 234l-1 2z"/><path fill="#e9c2a4" d="m175 148 2 1-3 7h-2c1.875-6.875 1.875-6.875 3-8"/><path fill="#ee7372" d="M174 136h2l-1 5-3 1c.875-4.875.875-4.875 2-6"/><path fill="#715656" d="M100 136h2l-.875 1.688L98 145c-2-3-2-3-2-5h2z"/><path fill="#6aa9c2" d="M158 87h10v5l-1-2h-2v-2h-7z"/><path fill="#c7aa65" d="M156 335c6.75.75 6.75.75 9 3-5.538.369-5.538.369-7.875-1.5z"/><path fill="#8099a0" d="M258 300c-3.203 2.834-5.781 3.521-10 4 3.411-3.119 5.316-4.535 10-4"/><path fill="#622925" d="M136 272v8c-2-1-2-1-3.125-4.062L132 273c2-1 2-1 4-1"/><path fill="#892529" d="m150 227 10 2v1h-10z"/><path fill="#2d0f0c" d="m296 189 3 1c-.75 1.938-.75 1.938-2 4-2.125.75-2.125.75-4 1v-2h2z"/><path fill="#ec787f" d="M295 180c.965 3.003 1.224 5.042 0 8l-3 1c.557-3.344 1.352-6.033 3-9"/><path fill="#ae7481" d="m144 138 2.375 1c2.468 1.119 2.468 1.119 4.625 1l-1 4h-2v-2l-4-2z"/><path fill="#93a4ad" d="M135 103c0 3 0 3-1.25 4.625-1.924 1.512-3.36 1.963-5.75 2.375v-2h2v-2z"/><path fill="#7cb5d2" d="m219 90 5 1 1 2-5 1z"/></svg>