<svg xmlns="http://www.w3.org/2000/svg" fill="none" viewBox="0 0 22.36 18.05"><path d="M0 4.84352V1.71867C0 .769474.953227 0 2.12909 0h3.87109c1.17587 0 2.1291.769472 2.1291 1.71867V4.2421c0 .4351.21411.85238.59525 1.16004.79367.64068 2.08047.64068 2.87417 0L17.6673.503386C18.0666.181073 18.6081 0 19.1728 0h1.0536c1.1759 0 2.1291.769473 2.1291 1.71867v.85053c0 .45582-.2243.89297-.6236 1.21528l-6.0686 4.89876c-.7937.64067-.7937 1.67936 0 2.32006.3811.3077.8981.4805 1.4371.4805h3.126c1.1759 0 2.1291.7695 2.1291 1.7187v3.1248c0 .9492-.9532 1.7187-2.1291 1.7187h-3.8711c-1.1758 0-2.1291-.7695-2.1291-1.7187v-2.5234c0-.4351-.2141-.8524-.5952-1.16-.7937-.6407-2.0805-.6407-2.8742 0l-6.06856 4.8987c-.39929.3223-.94083.5034-1.5055.5034H2.1291C.953229 18.046 0 17.2765 0 16.3273v-.8505c0-.4558.224316-.893.623599-1.2153L6.69221 9.36277c.79367-.64067.79367-1.67941 0-2.32008-.38113-.30766-.89806-.4805-1.43707-.4805H2.1291C.953229 6.56219 0 5.79271 0 4.84352Z" fill="#B16EFF"/></svg>