<svg xmlns="http://www.w3.org/2000/svg" width="36" height="36" fill="none"><rect width="36" height="36" fill="#FFE804" rx="18"/><path fill="#fff" d="m18.5 5-1.7 1-1.4 1.6-1.1 2.8-.4 2.9-2.9.4L6.7 17 5 22.5l.7 4 .9-.7.7 1.8 1.4-1.4.5 1.7.5.6 1.6-2.7 2.6-.2v1.8l-1 1v1.4l2.5.2.8-1v-3.2l.3-.4 1.9.4.2 1v1.7l-1 1.5 1 .7 2.2-.5.3-5.6.7-.4 2 .7 1.3 3.8 1.7-2.6 1 1.6 1.6-1.6 1.2.3.2-5-1.6-5.2-3-2.2-2.1-.5-1.2-.5-1.1-5.6-1.8-2-1.5-.3Z"/><path fill="#000" d="M31.4 23.2v-.3l-.1-.2c0-.1-.2-.5 0-.6 0-.2 0-.3-.2-.5.2-.1 0-.3 0-.5v-.3l.2-.1c-.2 0 0-.3-.2-.3 0-.2-.2-.3 0-.3l-.1-.4v-.1a4 4 0 0 1-.2-1.2c-.2 0-.2-.1-.2-.2v-.3c-.1 0-.2-.2-.1-.3-.2 0-.1-.1-.2-.2V17l-.2-.4c0-.2-.2-.2-.2-.3v-.1h-.2v-.3l-.2-.1a3 3 0 0 0-.3-.4v.1c-.1 0 0-.1 0-.2H29v-.2h-.2v-.2h-.3l-.4-.3v-.2c-.1 0 0 0 0-.1h-.5L27 14c0-.1-.2 0-.2-.2-.1 0 0 .2-.1 0-.1 0-.2 0-.3-.2 0 .2-.1 0-.3 0a.8.8 0 0 1-.4-.3s-.3-.1-.4 0l-.1-.2s0 .1-.1 0H24c-.2-.1-.3-.2-.4 0h-.2l-.1-.3v-1.4c.1-.1.1-.4 0-.4v-.4l-.1-.2q-.15 0 0 0L23 10v-.3q0 .15 0 0v-.4c-.2-.2-.1-.3 0-.5h-.2v-.2l-.1-.2s-.1 0 0 0l-.1-.2-.1-.4s0-.3-.2-.3l-.1-.2h-.1v-.1l-.1-.1V7l-.2-.5v.1l-.1-.1h-.1s-.2-.1 0-.3h-.3l-.3-.6c-.2-.1-.4-.2-.4-.4-.3 0-.4-.2-.6-.4l-.3.1c-.2-.3-.7-.3-1-.3q0 .15 0 0h-.2c-.2 0-.1.2-.2.2v-.1l-.5.1-.3.2s-.4 0-.3.1q0-.15 0 0s.1 0 0 0v.1l-.1-.1c0 .2-.3.2-.4.4l-.3.2-.5.5c-.2 0-.3.1-.3.2l-.1.2-.3.4c0 .1 0 .2-.1 0l-.1.3-.2.4v.1h-.4l-.7.1c-.6 0-1.3-.3-1.8 0-.2-.2-.5 0-.6-.1 0 .1-.2.1-.1 0h-.4V8c-.1 0-.1 0 0 .1h.2c.1.1 0 0 0 .1q.3 0 0 0s.1 0 0 0l.4.1h.5c.2.2.5.3.7.2-.2.2.2 0 .4.1l.5.2h.6V9l.3.1c0 .1-.2.1-.1.2v.3s0 .2-.2.2v.2c-.2 0 0 .3-.2.4v.7s0 .2-.2.1v2h-.2c-.4-.2-.7 0-1-.1H12l-.5.2-.9.3h-.2l-.6.4-.2.2-.2.1-.2.2-.4.3-.1.2c-.1 0-.2 0-.3.2l-.3.1-.2.1-.5.5-.2.4-.2.1-.2.2-.1.2-.2.3v.1l-.1.1v.3h-.1L6 18v.3l-.1.1c-.2.1-.2.2-.2.4 0 0 0 .2-.1.1 0 .1-.2.3 0 .4h-.1v.1-.1a1 1 0 0 0-.2.5l-.2.6c0 .2 0 .4-.2.5V22l-.1.5c0 .1-.2.2-.1.3-.2 0 0 .1 0 .2h-.1v1.2l.1.6c.2.1.2.3.2.4-.1.2 0 .8 0 .8H5l.1.7c0 .2 0 .2.2.3.2.2 0 .5.3.4 0 .4.5.1.6-.1V27q.3-.6 0 0c.2-.2.4-.3.4-.5v.3l.2.4c0 .3.2.5.4.6h.4c.2 0 .3-.2.4-.4l.3-.4.2-.3h.2c0 .2 0 .3.2.4-.3.1 0 .5 0 .7v1q.3.15 0 0l.5.4s.6-.3.4-.4h.1c.2 0 .3-.3.4-.5l.2-.3v-.1l.1-.4q0-.15 0 0c.2 0 .2-.2.3-.3-.1-.1 0-.1 0-.2v-.1l.2-.2.2-.3v-.1c0-.1.3 0 .4-.2 0-.2.2-.2.4-.3q.15 0 0 0h1.6v.1c0 .2-.3.4-.1.7-.1.1 0 .2 0 .4v.6c-.5 0-.6.5-1 .8l-.2.5v.6l.1.4.2.4.3.2c.1.1.2.1.4 0h.3l.2-.2-.5.2q0-.15 0 0l.5-.2.5.1.3-.1h.5l.5-.1.5-.4.2-.5v-.6c.2-.5 0-.9 0-1.3.2-.3 0-.5 0-.6v-1.2c.2 0 .4.2.5.1l.4.1h.7q0-.15 0 0h-.7l.6.1h.3v.8c-.2 0 0 .4 0 .5v.7l.2.1c-.2.2-.2.4-.1.6-.2 0-.4.1-.4.3-.2 0-.3.2-.4.3l-.2.7v.2l.1.3s.1 0 0 .1c.2 0 .4.3.6.4q.45.15 0 0l.3.1h.4c0 .2.2.1.3.1-.1.1 0 0 .2.1v-.1.1h.3c.3.2.6 0 .8 0l.6-.6.2-.3c0 .3-.7.6-1 .7 0 .2-.3.1-.6.2.3 0 .5 0 .7-.2.2-.1.9-.4.9-.7v-1.5c.2-.2 0-.5.1-.7v-1c.2-.4 0-.7.2-1.2-.1 0-.2-.3-.1-.4q-.15 0 0 0v-.1c.1-.4-.2-.7.4-.8h.9q-.3-.3 0 0l.4.2c.2 0 .2.3.3.3l.2.2c0 .2 0 .3.2.5l.1.2.2.4v.2s.2 0 0 .1l.2.1v.4c0 .3 0 .4.2.6v.6h.1q0-.3 0 0v.5c0 .2 0 0 .2 0q0 .15 0 0c-.1 0-.2.2-.2 0-.1.2.1.1.2.1l-.1.3v.4c.4.4.7 0 .8-.4v-.1.1l.2-.1v-.5l.1-.4h.1l.5-.8.5-.6.1.4c.1.2 0 .4.2.4v.2c0-.3 0-.6-.3-.8.2.2.3.5.3.8v.2l.2.3c0 .2.3.4.5.4h.1c.1 0 .2-.1.1-.2l.3-.2c0-.2 0-.4.2-.5q0-.45 0 0l.3-.7c0-.2.2-.3.3-.5v-.2l.4.4-.3-.4v.2h.1l.2.3c0 .2.4.2.5.3 0-.1.2 0 .4 0l.3-.2.3-.2v-.3s.1-.3 0-.2v-.2c.2 0 0 0 0-.1.1 0 0-.1 0-.1l.1-.4c0-.2.2-.3 0-.5.3 0 .2-.3.2-.4v-1.5Zm-3.9 5.2.1.2-.1-.1Zm.2.2c0-.2 0 0-.1 0 0 0 0-.2 0 0h.3zm.2 0v.1zm2.6-4.1c-.1 0 0 .1 0 .2l-.1.6c-.2 0 0 .2-.1.4.2 0 0 .2 0 .2l-.2.2-.1-.2-.2-.3h-.1l-.1-.1h-.3c-.2 0-.3.2-.5.4h-.3l-.1.3v.2l-.4.2v.2l-.2.2c0-.2 0-.6-.2-.5l-.2-.5v.1c.1-.3-.2-.4-.2-.6l-.3.1h-.1v.1l-.4.2v.1c-.2.1-.3.4-.3.5-.2.3-.3.7-.6.9-.2.1 0 .5-.3.5v-1.1c-.1 0-.2-.3-.1-.5-.2 0-.3-.3-.3-.4l-.3-.5v-.1l-.2-.4c-.1-.1-.2 0-.2-.2l-.3-.2h-.1l-.3-.4H23l-.4-.1h-.5l-.1-.1-.2.1h-.4c-.3 0-.4 0-.5.2l-.2.5v.4l-.1.7h-.1v4l-.3.1-.2.1c-.3 0-.4 0-.5.2h-.7c-.3 0-.6 0-.7-.4 0 0 0-.2.2-.3l.3-.3s.2-.2 0-.3c.3 0 .2-.2.3-.4v-.6c-.2 0-.1 0 0 0v-1l-.1-.3c0-.2 0-.5-.2-.7v-.1l-.1-.2s.1 0 0-.1c.2-.1 0-.3 0-.4 0 0-.2 0-.2-.2-.1 0 0 0 0-.1-.2.2-.4 0-.5 0-.3 0-.4.2-.6 0h-.1l-.2-.1-.2.1v.1h-.2c-.2 0-.3 0-.3.2h-.1l-.1.3v.5c-.1.2-.2.4-.1.7-.2 0 0 .4-.1.5v.4l-.1.5.1.3v.5l-.2.6-.5.2h-.7l-.4.1h-.2l-.2-.1h-.2l-.2-.1c-.2-.3-.1-.5 0-.8 0-.2.3-.3.3-.6q-.6 0 0 0l.4-.4c.1 0 .1-.2.3-.2v-1.2q0 .15 0 0c0-.2 0-.3-.2-.3l.1-.2v-.3l-.1-.1c-.3-.3-.6-.4-1-.5h-.6s-.2 0-.2.2c-.2-.2-.6 0-.8 0-.1 0-.2.3-.5.3v.1c0 .2-.1 0-.2.1 0 .1-.2.2 0 .3-.3 0-.3.3-.5.4l-.1.2-.2.1-.2.7v.1l-.3.2v.3-.4l-.2-.2c0-.4-.2-.9-.4-1.1l-.2-.5h-.4c0 .2-.3.2-.2.4l-.2.1v.1c-.3.1-.4.4-.4.5v.2l-.3-.6L7 26c-.1-.2 0-.3 0-.4l-.2-.2c-.2 0-.2.1-.4 0v.2l-.1.1c-.3 0-.2.3-.2.4l-.2-.2v-.3c-.2-.3-.2-.7-.3-1v-1.8q0 .6 0 0v-.5c0-.2.2-.4 0-.5l.3-.2c-.1-.5 0-1 .2-1.4-.1 0-.1-.2 0-.2v-.4c0-.2.2-.3.4-.5v-.3.3l.1-.4c.2 0 .2-.3.2-.4L7 18v-.1l.3-.5.3-.4.3-.3c0-.1 0-.2.2-.3.1 0 .3-.1.3-.3l.2-.1.2-.2v-.2l.6-.4.4-.3h.1v-.1h.3c0-.2.1-.2.2-.3-.1 0-.2.2-.3.1q0 .15 0 0c.1.1.2 0 .3-.1l.1-.1.5-.2.4-.1c.3-.2.7-.3 1-.2l.8-.1h.3s.1 0 0-.1c.3 0 .3.2.5 0v-.2c.1 0 0-.2 0-.2V13l.1-.1c.1-.2.2-.3 0-.5.2 0 .2-.3.2-.5h-.1c.1-.5 0-.5 0 0l.2-.3c-.1-.2 0-.3 0-.4V11c0-.2 0-.4.2-.6.1 0 0-.2.2-.3-.1 0 0-.1 0-.2v-.4c.2 0 .3-.2.3-.4s0-.4.2-.5l.3-.4q0-.15 0 0V8s.1-.1 0-.2c.4-.1.4-.6.7-.8l.3-.3c0-.2.3-.4.4-.5l.4-.1s.3 0 .2-.2l.3-.1.2-.2h.1l.8-.2h.4c.2 0 .1.1.2.2l.5.2v.1c.4.3.3.3 0 0l.4.4c.2.2.3.6.6.8-.2.2.3.5.3.7V8c.2 0 0 .2.2.3v.1l.2.3.1.6.1.3v.6l.1.3v.8l.2.7v1q.3.3 0 0v-.6.5l.2.6h.1c.1.1.3.3.4.2h.7l.4.1h.3s0 .2.2.1l.8.1.4.2c.3.2.8.3 1 .6h.2v.2c.3 0 .4.3.6.3.3 0 .4.3.6.4l.5.4c.1.2 0 .5.4.4l.2.7q.45.45 0 0v.2l.2.4c0 .2.2.3.3.5h-.2v.3l.2.2v.3l.2.3c0 .2 0 .4.2.4-.3 0 0 .4 0 .4 0 .4 0 .3 0 0v.3c-.2.2.1.4 0 .6v.2q0-.15 0 0v.7c.1 0 .1 0 0 .1v.5l.2.4v.4s-.1.1 0 .2v.1q0 .3 0 0h-.1l.1.2v.6s.2 0 0 0Z"/><path fill="#000" d="M19.5 7h-.2l-.3.1-.2.4.1.3h.2l.4.1.3-.3v-.4c-.2 0-.2-.2-.3-.2m-1.8 0h-.4c-.3.1-.3.3-.3.5v.2l.5.2h.1l.2-.1v-.2c.1-.1.2-.2.1-.4l-.1-.2z"/></svg>