<svg xmlns="http://www.w3.org/2000/svg" width="400" height="400" fill="none" viewBox="0 0 400 400"><path fill="#000" d="M0 0h400v400H0z"/><path fill="#fff" d="M319.934 135.863v-30.729H92.115v30.729h101.397a211.7 211.7 0 0 0-50.71 42.697H92.115v30.729h28.557c-18.13 30.633-28.557 66.202-28.557 104.107h31.305c0-38.892 12.831-74.871 34.519-104.131h59.175c-30.618 24.757-50.196 62.253-50.196 104.131h31.305c0-57.436 47.595-104.131 106.083-104.131h15.652v-30.729H186.864c31.623-26.586 72.644-42.697 117.442-42.697h15.652z"/></svg>