<svg width="256" height="256" viewBox="0 0 256 256" fill="none" xmlns="http://www.w3.org/2000/svg">
<rect width="256" height="256" fill="url(#paint0_linear_1353_258)"/>
<path d="M40.0688 90.5846H91.3391C91.9018 90.6784 92.1831 90.9597 92.1831 91.4286V100.993C92.1831 101.556 91.9018 101.837 91.3391 101.837H71.3655V163.516C71.3655 164.079 71.0607 164.36 70.4512 164.36H60.9567C60.3472 164.36 60.0424 164.079 60.0424 163.516V101.837H40.0688C39.5062 101.837 39.2249 101.556 39.2249 100.993V91.4286C39.3186 90.8659 39.5999 90.5846 40.0688 90.5846Z" fill="white"/>
<path d="M102.537 90.7956H112.102C112.665 90.8894 112.946 91.1707 112.946 91.6396V121.952H122.441V112.457C122.535 111.848 122.839 111.543 123.355 111.543H132.85V102.048C132.943 101.486 133.225 101.204 133.694 101.204H143.258V91.6396C143.352 91.0769 143.633 90.7956 144.102 90.7956H153.597C154.206 90.8894 154.511 91.1707 154.511 91.6396V101.204C154.511 101.767 154.206 102.048 153.597 102.048H144.102V111.543C144.102 112.152 143.821 112.457 143.258 112.457H133.694V121.952C133.694 122.514 133.412 122.796 132.85 122.796H123.355V132.36H132.85C133.412 132.454 133.694 132.736 133.694 133.204V142.699H143.258C143.821 142.793 144.102 143.097 144.102 143.613V153.108H153.597C154.206 153.201 154.511 153.483 154.511 153.952V163.516C154.511 164.079 154.206 164.36 153.597 164.36H144.102C143.54 164.36 143.258 164.079 143.258 163.516V153.952H133.694C133.131 153.952 132.85 153.67 132.85 153.108V143.613H123.355C122.746 143.613 122.441 143.308 122.441 142.699V133.204H112.946V163.516C112.946 164.079 112.665 164.36 112.102 164.36H102.537C101.975 164.36 101.694 164.079 101.694 163.516V91.6396C101.787 91.0769 102.069 90.7956 102.537 90.7956Z" fill="white"/>
<path d="M164.795 90.655H174.36C174.97 90.7487 175.274 91.03 175.274 91.4989V111.473H184.769C185.378 111.566 185.683 111.871 185.683 112.387V121.952H195.248C195.811 122.045 196.092 122.327 196.092 122.796V132.36H205.657V91.4989C205.75 90.9363 206.032 90.655 206.501 90.655H216.065C216.675 90.7487 216.98 91.03 216.98 91.4989V163.657C216.98 164.22 216.675 164.501 216.065 164.501H206.501C205.938 164.501 205.657 164.22 205.657 163.657V143.684H196.092C195.529 143.684 195.248 143.379 195.248 142.769V133.204H185.683C185.074 133.204 184.769 132.923 184.769 132.36V122.796H175.274V163.657C175.274 164.22 174.97 164.501 174.36 164.501H164.795C164.233 164.501 163.951 164.22 163.951 163.657V91.4989C164.045 90.9363 164.326 90.655 164.795 90.655Z" fill="white"/>
<defs>
<linearGradient id="paint0_linear_1353_258" x1="0" y1="0" x2="49.2152" y2="290.975" gradientUnits="userSpaceOnUse">
<stop offset="0.192708" stop-color="#BD76FB"/>
<stop offset="0.453125" stop-color="#2E8DFF"/>
<stop offset="1" stop-color="#9FFFA9"/>
</linearGradient>
</defs>
</svg>
