<svg xmlns="http://www.w3.org/2000/svg" width="150" height="150" fill="none" viewBox="-0.5 0 36 36"><path fill="#000" fill-rule="evenodd" d="M16.519 3.038 21.084.402c.52-.3.94-.057.94.543s-.42 1.33-.94 1.63L16.52 5.21c-.52.3-.94.057-.94-.543s.42-1.33.94-1.63Zm0 4.64 4.565-2.635c.52-.3.94-.057.94.543s-.42 1.33-.94 1.63L16.52 9.85c-.52.3-.94.057-.94-.543s.42-1.33.94-1.63ZM30.88 29.953v-5.271c0-.6-.42-1.33-.94-1.63s-.94-.056-.94.543v5.272c0 .6.42 1.33.94 1.63s.94.056.94-.544m-4.02-7.592v5.271c0 .6-.42.843-.94.543s-.94-1.029-.94-1.629v-5.271c0-.6.42-.843.94-.544.52.3.94 1.03.94 1.63m-.424-13.57L18.4 13.429a1.5 1.5 0 0 1-.211.1l-1.671.964c-.52.3-.94.057-.94-.543s.42-1.33.94-1.63l4.565-2.635a1 1 0 0 1 .192-.088l3.278-1.893c.52-.3 1.362-.3 1.882 0s.52.786 0 1.086Zm3.506.933 4.565 2.636c.52.3.52.787 0 1.086s-1.361.3-1.88 0L28.06 10.81c-.52-.3-.52-.787 0-1.087s1.362-.3 1.881 0Zm.546 4.957-4.565-2.636c-.52-.3-1.362-.3-1.882 0s-.52.787 0 1.086l4.566 2.636c.52.3 1.361.3 1.88 0 .52-.3.52-.786 0-1.086ZM26.468 17l-4.565-2.635c-.52-.3-1.361-.3-1.881 0s-.52.786 0 1.086l1.826 1.054.053.032 8.035 4.64c.52.3.94.056.94-.544s-.42-1.33-.94-1.63l-3.416-1.971-.051-.032Zm-3.627 3.04v5.27q0 .115-.02.211v3.786c0 .6-.42 1.329-.94 1.629s-.941.057-.941-.543v-9.278q0-.115.02-.234v-1.928c0-.6.42-.843.94-.543s.941 1.03.941 1.63m-4.463 12.923L13.812 35.6c-.519.3-.94.057-.94-.543s.421-1.33.94-1.63l4.566-2.635c.52-.3.94-.057.94.543s-.42 1.33-.94 1.63Zm-4.566-2.006 4.566-2.635c.52-.3.94-1.03.94-1.63s-.42-.843-.94-.543l-4.566 2.636c-.519.3-.94 1.03-.94 1.63s.421.842.94.542m5.506-8.906c0 .508-.302 1.11-.711 1.464a1 1 0 0 1-.229.177l-8.035 4.639c-.52.3-1.362.3-1.882 0s-.519-.786 0-1.086l5.21-3.008q.07-.052.142-.094l4.565-2.635c.52-.3.94-.057.94.543M.39 23.675l4.565 2.636c.52.3 1.362.3 1.881 0 .52-.3.52-.786 0-1.086l-4.565-2.636c-.52-.3-1.362-.3-1.881 0-.52.3-.52.786 0 1.086m8.584.315L4.41 21.355c-.52-.3-.52-.787 0-1.087s1.362-.3 1.882 0l4.565 2.636c.52.3.52.786 0 1.086s-1.362.3-1.882 0Zm-3.993-9.132 8.035 4.64q.075.042.145.096l1.714.99c.52.3.52.786 0 1.086s-1.362.3-1.881 0l-4.566-2.636a1 1 0 0 1-.134-.09L4.981 17.03c-.52-.3-.94-1.03-.94-1.63s.42-.843.94-.543Zm-.945-3.504V6.082c0-.6.421-.843.94-.543.52.3.942 1.03.942 1.63v5.271c0 .6-.422.843-.941.543-.52-.3-.94-1.03-.94-1.63Zm4.02-2.95v5.27c0 .6.42 1.33.94 1.63s.941.057.941-.543V9.489c0-.6-.421-1.329-.94-1.629-.52-.3-.941-.057-.941.543Zm5.9-2.796v6.173l-1.88 4.191V6.694c0-.6.42-1.33.94-1.63s.94-.056.94.544m0 6.173-1.88 4.22c.002.6.422 1.325.94 1.624.52.3.94.057.94-.543V11.78Z" clip-rule="evenodd"/></svg>