<svg xmlns="http://www.w3.org/2000/svg" viewBox="0 0 1668 1668"><path fill="#FE0008" d="M0 0h1668v1668H0z"/><path fill="#FEFEFE" d="M583.928 232.517c3.486 2.495 6.456 5.423 9.447 8.483l1.976 2.005c5.252 5.415 9.93 11.054 14.342 17.183a625 625 0 0 0 4.42 6.027C626.106 282.517 636.753 299.558 647 317l1.424 2.418c15.87 27.06 30.597 55.03 43.576 83.582l1-29 2-1 1.035 2.48a8296 8296 0 0 0 11.142 26.567l2.227 5.292c16.712 39.622 38.32 86.946 80.778 104.61 2.856 1.065 5.7 1.9 8.646 2.68l2.95.787L804 516l-.67-1.842C796.483 495.253 791.646 476.923 789 457l-.32-2.292c-5.893-43.805-.762-89.729 1.32-133.708h1l.164 1.686c3.423 33.245 17.21 64.919 43.617 86.564L837 411l2.969 2.438c23.777 19.327 51.07 33.913 77.758 48.746C937.626 473.278 957.094 484.86 975 499c2.873-6.368 5.588-12.79 8.25-19.25 11.002-26.51 22.427-52.825 34.75-78.75l1.678-3.542C1032.17 371.13 1045.34 345.198 1060 320l1.437-2.49c6.222-10.742 12.88-21.175 19.75-31.51l1.128-1.7c7.663-11.537 15.898-22.594 24.685-33.3l1.34-1.666c8.113-10.058 17.17-21.142 30.66-23.334 11.756-1.243 20.876 1.268 30.625 7.875 6.217 5.213 10.185 12.287 14.375 19.125l1.386 2.224c35.227 56.57 61.224 119.891 80.62 183.52a1457 1457 0 0 0 2.889 9.334 1261 1261 0 0 1 12.147 41.439 2723 2723 0 0 0 2.608 9.405c3.984 14.301 7.864 28.599 11.09 43.094a930 930 0 0 0 4.674 19.857c3.898 15.847 7.353 31.763 10.615 47.753l1.254 6.12c7.575 36.907 14.893 73.938 20.15 111.258.535 3.792 1.091 7.581 1.65 11.37a2828 2828 0 0 1 10.52 79.26c2.78 23.576 2.78 23.576 7.776 46.757.743 3.122 1.102 6.18 1.312 9.379.273 2.398.273 2.398 1.236 5.288 1.263 4.359 1.908 8.756 2.546 13.243l.387 2.656q.403 2.769.8 5.539.602 4.197 1.217 8.393l.783 5.412.363 2.494c6.965 48.9-1.34 102.586-20.023 148.205l-2.112-.21c-9.646-.857-19.254-1.01-28.934-1.03-2.751-.01-5.502-.041-8.253-.072-13.36-.082-26.442.444-38.701 6.312-3.726 3.846-3.322 8.21-3.3 13.281.321 2.913 1.01 5.094 2.3 7.719 1.833 1.333 1.833 1.333 4 2l1.75.625c5.554.926 10.585.358 16.074-.625 7.542-1.189 14.93-1.26 22.551-1.187l3.98.001c5.998.028 11.711.242 17.645 1.186-2.025 5.765-4.435 10.996-7.438 16.313l-1.295 2.312c-5.882 10.38-12.02 20.88-19.267 30.375a2984 2984 0 0 1-16.02-5.375l-5.817-1.959a1400 1400 0 0 1-3.935-1.332c-19.173-7.657-19.173-7.657-38.666-5.646-3.753 3.386-5.373 5.607-5.937 10.687.436 4.219 1.228 6.955 3.375 10.625 4.606 3.03 8.508 4.595 13.937 5.75 11.276 2.557 22.143 6.492 33.063 10.25 0 4.832-.832 5.364-4.063 8.75-2.823 2.992-5.609 5.997-8.308 9.102-18.512 21.25-39.22 40.091-61.629 57.148l-2.144 1.633c-42.059 31.865-89.229 56.91-138.886 74.661q-2.989 1.073-5.973 2.159c-46.162 16.679-94.179 26.566-142.976 31.348-1.755.173-3.51.356-5.263.54-17.337 1.78-34.66 1.847-52.07 1.847l-3.472.002c-21.876-.002-43.634-.65-65.404-2.877l-2.562-.26c-44.821-4.616-88.618-14.484-131.25-29.053l-1.986-.676c-66.605-22.75-129.392-58.359-180.944-106.472a485 485 0 0 0-8.383-7.602c-6.322-5.678-12.234-11.604-17.769-18.05-2.278-2.613-4.63-5.152-6.98-7.7-9.154-10.077-9.154-10.077-10.938-13.5 1-3 1-3 2.787-3.92l2.342-.764 2.615-.866 2.818-.887 2.862-.931c7.039-2.25 14.112-4.117 21.326-5.71 4.546-1.29 7.402-2.665 10.062-6.61 1.423-3.969 1.936-7.148 1.188-11.312-2.221-4.36-4.405-7.202-9-9-15.656-2.546-38.517 5.955-52.114 13.113C411 1140 411 1140 408 1140c-1.208-1.398-1.208-1.398-2.383-3.375l-1.335-2.213-1.407-2.412-1.468-2.461a793 793 0 0 1-12.417-21.75c-.95-1.715-1.914-3.42-2.88-5.125l-1.673-2.976-1.44-2.551C382 1095 382 1095 382 1092q6.024-.074 12.048-.11c2.02-.015 4.038-.04 6.057-.066 7.77-.038 15.178.442 22.847 1.712 5.525.84 10.74 1.397 15.985-.723 3.282-2.884 4.859-4.957 5.348-9.407.274-7.3.274-7.3-3.285-13.406-4.449-2.572-8.775-3.849-13.805-4.676l-2.334-.384c-10.934-1.603-21.965-1.259-32.986-1.127q-3.345.022-6.691.04-8.093.05-16.184.147c-3.787-9.793-7.276-19.572-10.125-29.687l-1.032-3.656C351.509 1007.751 347.783 983.77 347 960l-.083-2.411c-.92-31.127 4.586-62.053 10.888-92.437l.456-2.2.456-2.196c3.773-18.188 6.314-36.29 8.283-54.756q.739-6.72 1.5-13.437l.356-3.166c.998-8.633 2.298-17.206 3.664-25.787a579 579 0 0 0 2.98-21.672c2.467-20.42 6.103-40.645 9.769-60.877.81-4.482 1.602-8.967 2.395-13.452 2.735-15.436 5.513-30.86 8.586-46.234l.709-3.548a655 655 0 0 1 4.166-19.052 1642 1642 0 0 0 2.538-11.156c8.201-36.507 16.584-73.082 27.513-108.887a749 749 0 0 0 2.636-8.994c4.666-16.124 9.855-32.038 15.236-47.933a807 807 0 0 0 3.975-12.075C458.565 392.51 465.19 375.75 472 359l1.418-3.494c10.308-25.223 21.622-50.127 35.074-73.839a993 993 0 0 0 4.79-8.597c22.545-40.642 22.545-40.642 41.757-46.715 10.53-1.908 20.02.466 28.889 6.162"/><path fill="#F1B6D2" d="M588 314c5.674 6.038 9.9 12.846 14 20q1.135 1.908 2.277 3.813C626.517 374.995 644.02 415.775 660 456l1.754 4.367A4909 4909 0 0 1 679 504l1.223 3.122c9.845 25.19 9.845 25.19 10.566 38.542-.044 2.294-.044 2.294 1.211 3.336.233 1.682.413 3.371.563 5.063l.253 2.785L693 559c-.594.23-1.189.461-1.8.7l-2.513.987-2.425.95c-29.683 12.406-58.614 27.538-85.95 44.488C584.573 615.88 584.573 615.88 579 617v2l-2.387 1.25c-10.278 5.45-20.13 11.466-29.868 17.825-6.913 4.513-13.87 8.783-21.07 12.827-9.962 5.635-19.773 11.6-29.062 18.29-4.682 3.24-9.549 6.19-14.39 9.183-10.225 6.335-20.286 12.916-30.32 19.547l-2.966 1.945-2.66 1.754C444 703 444 703 441 704c.596-11.881 1.967-23.591 3.563-35.375l.392-2.922c11.555-85.542 28.288-171.86 95.496-333.053a547 547 0 0 0 2.957-5.12C552.47 311.635 552.47 311.635 561 308l1.988-.852c9.163-3.048 18.077.782 25.012 6.852m566.313-5c7.388 4.215 11.342 10.225 15.324 17.52a362 362 0 0 0 4.195 7.39 485.3 485.3 0 0 1 42.388 95.682 591 591 0 0 0 2.71 8.111c15.105 44.49 26.266 90.718 34.703 136.914.9 4.917 1.857 9.812 2.902 14.7 3.231 15.175 5.216 30.591 7.459 45.935a573 573 0 0 0 2.06 13.06c1.142 6.708 2.05 13.444 2.946 20.188l.526 3.95A767 767 0 0 1 1273 704c-4.26-1.446-7.25-3.573-10.75-6.375-7.113-5.6-14.475-10.801-21.896-15.98-2.492-1.741-4.978-3.49-7.463-5.239l-5.204-3.656-2.385-1.679c-5.339-3.742-10.739-7.384-16.17-10.99a2451 2451 0 0 1-9.437-6.308c-30.788-20.629-62.223-39.886-94.695-57.773l-2.771-1.53c-20.697-11.364-42.118-22.203-64.584-29.618l-3.045-1.02a174 174 0 0 0-5.661-1.757c-5.775-1.885-8.36-4.135-11.283-9.461-1.775-7.074 1.3-13.868 3.852-20.376l1.083-2.822a2017 2017 0 0 1 3.534-9.104l2.46-6.357c13.98-36.06 28.68-71.758 44.973-106.84 1.565-3.381 3.116-6.77 4.665-10.158 6.208-13.54 12.63-26.887 19.777-39.957l2.559-4.738c4.739-8.717 9.682-17.168 15.441-25.262l2.285-3.223c3.83-5.263 7.33-10.067 12.715-13.777l2.625-1.813c6.947-2.444 13.96-2.227 20.688.813"/><path fill="#A7DEF7" d="M462 841c5.776.707 11.32 1.962 16.965 3.363l2.882.707q4.545 1.117 9.09 2.242l6.002 1.475a4374 4374 0 0 1 23.707 5.883 937 937 0 0 0 22.167 5.268c7.681 1.751 15.33 3.572 22.937 5.625 6.45 1.739 12.917 3.3 19.438 4.75 9.078 2.021 18.106 4.227 27.125 6.5a3399 3399 0 0 0 32.375 8l10.33 2.495a6973 6973 0 0 1 21.31 5.195l11.743 2.876A5216 5216 0 0 0 728 905c1.403 29.038-9.533 58.028-27 81l-1.46 2.074c-12.517 17.186-29.056 29.58-47.446 39.765a348 348 0 0 0-4.875 2.763c-28.832 15.735-67.538 16.607-98.488 7.749-22.778-6.862-42.534-19.11-59.274-35.902a151 151 0 0 0-4.562-4.379c-10.844-10.131-17.815-23.002-24.056-36.304a165 165 0 0 0-2.269-4.551c-4.27-8.58-6.475-17.905-8.57-27.215l-.577-2.513c-1.628-7.845-1.77-15.557-1.736-23.55l.007-2.07c.11-21.778 4.56-41.288 14.306-60.867"/><path fill="#A7DEF6" d="M1232 842c1.239 1.664 1.239 1.664 2.098 3.84l.984 2.447.98 2.65 1.042 2.704c3.205 8.614 5.221 17.341 6.896 26.359l.526 2.308c4.73 26.87-.764 56.503-12.526 80.692l-1.602 3.48c-3.166 6.681-7.016 12.581-11.398 18.52l-2.625 3.813c-2.272 3.05-4.658 5.535-7.375 8.187a489 489 0 0 0-5.45 6.426L1202 1005h-2v2c-27.883 26.767-65.995 36.581-103.602 36.219-12.657-.3-24.557-2.701-36.398-7.219-.998-.347-1.995-.694-3.023-1.05-14.84-5.332-27.918-12.855-39.977-22.95l-2.156-1.766c-2.004-1.691-3.926-3.446-5.844-5.234l-2.695-2.43C992.988 990.201 983.29 974.555 976 958l-1.453-3.285c-5.672-13.786-9.623-29.99-9.566-44.916l.009-2.725L965 905c1.142-.27 2.284-.54 3.46-.82 24.693-5.85 49.35-11.826 73.956-18.03a2140 2140 0 0 1 30.26-7.41A1426 1426 0 0 0 1094 873.5c6.967-1.763 13.94-3.493 20.933-5.146 11.448-2.706 22.869-5.517 34.284-8.358 6.525-1.622 13.054-3.233 19.582-4.846a8639 8639 0 0 0 17.107-4.246q8.359-2.084 16.723-4.141 3.169-.783 6.335-1.577c2.933-.735 5.869-1.457 8.806-2.176l2.622-.667c7.552-1.822 7.552-1.822 11.608-.343"/><path fill="#201E1F" d="M1177 854c5.19 8.905 9.569 17.649 12.5 27.563l.735 2.483c6.738 24.043 1.693 48.476-9.86 70.141-4.487 7.53-10.144 13.691-16.375 19.813l-2.09 2.086c-20.294 18.964-46.224 22.86-72.835 22.084-16.656-.923-33.335-9.808-46.075-20.17-.63-.478-1.258-.956-1.906-1.45-18.093-14.35-28.078-37.118-30.887-59.559-.829-7.984-.612-15.324 1.793-22.991a1643 1643 0 0 1 30.625-7.938l2.108-.526a2079 2079 0 0 1 27.457-6.672c8.38-1.98 16.73-4.08 25.079-6.19a1499 1499 0 0 1 20.63-5.03 2540 2540 0 0 0 22.89-5.539l2.954-.727q5.98-1.472 11.958-2.953 4.45-1.101 8.9-2.195l2.737-.681 2.524-.619 2.21-.546C1174 854 1174 854 1177 854m-660 1c7.988.658 15.589 2.39 23.375 4.25l4.047.955a789 789 0 0 1 23.827 6.027c5.617 1.505 11.263 2.819 16.938 4.08 9.08 2.022 18.107 4.228 27.125 6.5q16.948 4.271 33.938 8.375c19.723 4.769 19.723 4.769 27.75 6.75l2.481.605c5.403 1.342 5.403 1.342 6.519 2.458 2.013 27.313-3.739 51.553-21.82 72.592-9.74 10.924-20.872 18.45-34.18 24.408l-3.488 1.586c-18.552 7.47-42.822 6.98-61.512.414l-3.246-1.133c-22.868-8.797-39.987-26.501-50.504-48.304-9.35-21.542-10.736-46.283-2.209-68.258 3.07-7.38 6.52-14.646 10.959-21.305"/><path fill="#EE3237" d="M0 0h1668v1668H0zm2 3v1663l830.375.063 262.72.027 154.694.005q53.61.002 107.22.011a572757 572757 0 0 0 128.666.007h3.113q24.249 0 48.499.007 23.57.006 47.14.002 13.84-.003 27.68.004 9.187.005 18.372 0 5.223-.005 10.444.001 5.589.004 11.178-.003l3.303.008 2.977-.007h2.577c2.109.005 2.109.005 4.042-1.125V3z"/><path fill="#D2E4F5" d="M693 409h1l.424 3.316c6.573 50.869 18.072 100.463 43.419 145.612a353 353 0 0 1 3.321 6.115c9.36 17.375 20.973 33.033 33.836 47.957.789.92 1.578 1.84 2.39 2.79 10.762 12.235 22.367 23.854 35.798 33.148L816 650v2l1.762.361c2.342.669 3.988 1.56 6.039 2.862l2.19 1.37 2.322 1.47c10.86 6.75 21.884 12.967 33.687 17.937-2.798 2.798-4.98 2.58-8.893 3.053l-2.15.267c-2.351.29-4.705.567-7.059.844a3470 3470 0 0 1-15.226 1.832c-4.392.52-8.783 1.052-13.173 1.587q-5.077.618-10.156 1.225-2.427.291-4.854.586-3.41.412-6.82.812l-3.911.466c-16.361 1.429-30.94-7.522-43.422-17.684L744 667l-2.836-2.395C710.682 638.17 696.08 597.255 692 558c-.083-5.42-.083-5.42-2-10-2.864-15.525-2.158-31.38-1.853-47.087q.06-3.273.114-6.547c.476-28.494 1.484-57.036 4.739-85.366"/><path fill="#231D1E" d="M392.017 1062.684c2.848.003 5.694-.02 8.542-.045 8.887-.033 17.596.245 26.386 1.63l2.166.328c5.81 1.042 10.736 3.111 14.827 7.466 1.677 4.637 1.705 9.07 1.062 13.937-2.136 4.43-4.39 7.196-9 9-5.537.664-10.869-.102-16.336-1.008-7.293-1.066-14.452-1.266-21.8-1.198-2.088.019-4.176.02-6.264.02-6.9-.142-6.9-.142-13.6 1.186a88 88 0 0 1-3.984.465l-2.336.236q-2.406.234-4.813.461c-4.835.494-9.192 1.449-13.867 2.838-2.645.466-5.285.9-7.937 1.313-8.657 1.436-16.763 3.888-25.063 6.687l-2.965.93c-14.623 4.635-29.965 10.244-43.186 18.086-2.076 1.105-4.173 1.906-6.376 2.726-5.83 2.302-11.174 5.259-16.598 8.383l-3.034 1.733c-11.259 6.47-22.393 13.113-32.825 20.865-4.1 2.598-8.242 2.682-13.016 2.277-4.888-1.698-8.051-4.442-10.34-9.078-1.678-4.884-1.239-8.628.856-13.309 2.658-4.425 6.423-6.743 10.734-9.425l2.406-1.548A901 901 0 0 1 213 1123q2.179-1.391 4.355-2.785c7.396-4.71 14.882-9.132 22.645-13.215q1.858-1.005 3.715-2.012c8-4.318 16.09-8.425 24.285-12.363l2.605-1.263c4.692-2.23 9.35-4.106 14.3-5.678 3.14-1.025 6.169-2.296 9.22-3.559 15.037-6.098 30.4-10.626 46.344-13.629 1.902-.373 3.797-.783 5.687-1.21 15.354-3.476 30.169-4.638 45.861-4.602m913.671.004 2.81.016c47.682.29 47.682.29 63.502 8.296a243 243 0 0 0 7.063 1.563c8.166 1.806 16.066 4.3 24 6.937l3.494 1.15c6.097 2.056 11.773 4.31 17.443 7.35 5.16 2.647 10.186 5.107 15.66 7.055 7.399 2.989 14.514 6.835 21.34 10.945q4.503 2.414 9.033 4.775c9.52 5.022 18.508 10.803 27.405 16.85l2.966 1.984 2.842 1.93 2.553 1.725c3.251 2.564 4.893 4.812 6.201 8.736.542 6.401-.516 10.584-4 16-3.148 3.148-6.686 2.55-10.983 2.574-7.25-.234-11.433-3.33-17.017-7.574a517 517 0 0 0-6.188-3.813c-2.792-1.707-2.792-1.707-4.812-3.187v-2l-2.988-.703c-4.517-1.294-8.228-3.589-12.2-6.047-6.794-4.097-13.639-7.847-20.812-11.25l-3.262-1.602c-10.505-5.062-21.318-9.283-32.21-13.433a391 391 0 0 1-4.569-1.774c-5.927-2.316-12.017-3.995-18.147-5.691l-3.173-.895c-22.189-6.183-44.584-9.964-67.639-9.98l-3.662-.005c-6.98.087-13.67.731-20.547 1.931-5.512.886-10.782 1.292-15.791-1.551-5.83-5.3-5.83-5.3-6.238-9.39-.12-4.59-.093-7.868 1.8-12.11 10.593-10.864 32.18-8.962 46.126-8.813Z"/><path fill="#221D1E" d="M467.875 1126.188c4.232 3.609 6.924 6.872 7.5 12.437-.072 4.95-1.975 8.808-5.375 12.375-4.562 2.75-9.11 3.902-14.25 5q-2.28.515-4.559 1.035l-2.198.5C427.496 1162.546 404.82 1173.5 386 1185l-2.113 1.219c-11.243 6.55-22.094 13.937-31.969 22.418C350 1210 350 1210 347 1210l-.875 1.938C345 1214 345 1214 343 1215l-1 3c-1.594 1.098-1.594 1.098-3.5 2.063-2.83 1.361-2.83 1.361-4.5 3.937h-2l-.75 1.875c-1.487 2.529-2.687 2.843-5.25 4.125l-.754 1.66c-1.832 3.441-4.495 5.98-7.183 8.777-3.536 3.68-6.536 7.091-9.063 11.563a71 71 0 0 1-2.688 3.063c-2.814 3.162-5 6.54-7.25 10.124-3.304 4.985-5.325 7.934-11.062 9.813-5.591.48-9.713-.302-14.063-3.938-2.629-2.517-3.87-4.007-4.105-7.742l-.02-3.195-.042-3.18c.225-2.88.74-4.507 2.23-6.945h2l.688-2.54c1.565-4.127 3.723-7.291 6.312-10.835l1.367-1.941c1.155-1.603 2.389-3.15 3.633-4.684h2l.813-1.734c1.228-2.345 2.612-4.39 4.187-6.516l1.563-2.14L296 1218h2l.766-1.75c1.382-2.52 2.945-4.22 4.972-6.254l2.237-2.244 2.337-2.314 2.303-2.327 2.248-2.24c.674-.67 1.347-1.342 2.04-2.033 2.229-1.954 4.548-3.34 7.097-4.838 2.314-2.204 4.51-4.474 6.688-6.813C330 1186 330 1186 332 1186v-2h2v-2a138 138 0 0 1 6-4 2885 2885 0 0 0 6.063-4.25c5.491-3.83 11.11-7.395 16.843-10.855 2.793-1.71 5.5-3.508 8.219-5.332 7.192-4.616 15.01-7.999 22.753-11.569 3.293-1.543 6.516-3.212 9.724-4.924 2.853-1.273 5.752-2.23 8.722-3.195 3.01-.984 6.007-2.007 9.004-3.031l6.922-2.344 3.45-1.184c26.755-9.02 26.755-9.02 36.175-5.129Z"/><path fill="#231D1E" d="m1258.188 1127.5 2.85.807c22.371 6.47 43.261 15.136 63.962 25.693l3.191 1.555c2.527 1.3 4.793 2.698 7.121 4.32 2.933 1.999 5.858 3.792 9 5.438 6.014 3.272 11.28 7.515 16.688 11.687l3.164 2.348a228 228 0 0 1 17.586 14.527l1.845 1.66c2.988 2.779 4.478 4.558 5.405 8.465 1.874 1.099 1.874 1.099 4 2 1.64 1.48 1.64 1.48 3.25 3.188a102 102 0 0 0 7.688 7.187c11.237 9.8 19.792 22.49 27.921 34.902l1.214 1.848c2.125 4.3 1.587 8.646.263 13.117-1.639 3.89-2.924 5.505-6.586 7.758-5.18 1.381-9.568 1.727-14.75 0-4.247-3.788-7.923-8.21-11-13v-2l-1.813-.625c-2.187-1.375-2.187-1.375-3.496-4.059-1.91-3.744-4.197-6.602-6.941-9.754l-1.481-1.724A170 170 0 0 0 1376 1231c-5-5-5-5-6.7-6.77-5.402-5.556-11.241-10.407-17.3-15.23l-2.19-1.801c-6.057-4.942-12.312-9.39-18.872-13.637l-3.055-1.979c-7.676-4.918-15.438-9.434-23.614-13.46-2.506-1.24-4.992-2.519-7.48-3.795-18.064-9.106-37.125-15.92-56.871-20.379-4.982-1.62-8.205-3.69-10.793-8.262-1.628-5.337-2.077-8.82.5-13.874 8.098-9.59 17.586-7.512 28.563-4.313"/><path fill="#221F20" d="M755 1123c3.65 2.268 7.018 4.781 10.434 7.383 12.065 9.097 23.698 11.629 38.566 10.617 10.386-1.845 19.058-8.791 26.969-15.363 3.892-3.136 7.192-3.092 12.082-3.047 6.366.885 10.732 5.283 15.324 9.473 9.01 8.017 20.057 9.671 31.654 9.112 12.608-1.118 23.749-8.358 33.448-16.01 3.478-2.659 6.018-2.2 10.203-1.669 4.446.966 7.244 3.285 10.195 6.629 1.657 4.235 1.98 8.402 1.125 12.875-7.073 12.695-24.188 21.083-37.708 25.333-19.865 5.629-38.882 3.78-57.163-5.517-2.967-1.722-5.52-3.597-8.129-5.816-3.444 1.275-6.323 2.784-9.375 4.813-15.291 9.395-34.4 11.592-51.914 8.574-13.416-3.26-25.803-10.034-36.711-18.387l-2.938-2.063c-3.839-3.606-5.238-7.255-5.5-12.437.175-4.505 1.41-7.073 4.438-10.5 4.659-4.117 8.992-5.754 15-4"/><path fill="#F1B7D2" d="M876 1087c3.463 2.934 5.49 5.739 7.188 9.938-.341 5.562-3.594 9.468-7.438 13.312-15.817 10.065-36.248 10.986-54.313 7.625-9.183-2.329-18.116-5.716-23.437-13.875l-1.375-2c-1.29-4.127.037-7.31 1.875-11.063 16.818-19.76 57.691-16.629 77.5-3.937"/><path fill="#D9DCEC" d="M789 344h1l.011 2.018c-.573 58.493-.573 58.493 11.177 115.42l.906 2.683c2.915 8.36 6.689 16.111 10.906 23.879l1.629 3.113c4.514 8.52 9.46 16.196 16.05 23.258C832 516 832 516 832 518c-4.666.518-9.309.824-14 1l-3.613.148c-3.665-.16-6.108-.481-9.387-2.148-2.755-4.078-4.095-8.215-5.406-12.93-.543-1.893-1.206-3.75-1.88-5.601-4.748-13.362-6.663-27.489-8.714-41.469l-.411-2.77c-5.04-36.064-1.373-74.039.411-110.23"/><path fill="#D91A20" d="M768 1347c9.102.368 18.188.743 27.248 1.723 19.928 2.154 39.868 2.444 59.9 2.407 3.575-.005 7.15 0 10.725.007q3.476 0 6.951-.004l3.173.006c6.17-.02 12.249-.333 18.393-.915 3.471-.298 6.876-.321 10.36-.286l3.61.027 2.64.035v1c-12.001 2.023-23.717 2.28-35.863 2.23h-5.908q-6.138-.003-12.276-.024a4595 4595 0 0 0-15.753-.02q-6.075-.001-12.15-.013-2.907-.005-5.815-.006a2416 2416 0 0 1-8.076-.022l-2.429.002c-5.501-.033-5.501-.033-7.73-1.147-2.68-.272-5.348-.495-8.035-.684l-4.889-.373a2213 2213 0 0 0-7.73-.565q-3.723-.272-7.444-.562l-2.351-.158c-1.858-.147-3.707-.393-5.551-.658z"/><path fill="#DA171F" d="M788 348h1c.102 8.806.053 17.582-.359 26.38-1.322 28.6-1.94 57.344 1.97 85.76.49 3.6.905 7.205 1.315 10.815.344 3.017.708 6.03 1.074 9.045l-2-1c-.578-2.446-.578-2.446-1.035-5.695l-.513-3.59-.514-3.84-.537-3.865c-1.046-7.741-1.9-15.418-2.225-23.225-.09-2.691-.09-2.691-.679-4.881-.695-4.059-.64-8.04-.63-12.15l-.003-2.693q0-2.812.006-5.626.005-4.288-.007-8.578 0-2.739.004-5.478l-.006-2.576c.017-4.4.364-8.462 1.139-12.803.21-2.823.391-5.635.535-8.46l.13-2.397q.203-3.759.398-7.518l.275-5.121q.335-6.252.662-12.504"/><path fill="#BBDDED" d="M688 896c8.833 1.463 17.497 3.49 26.188 5.625l4.04.984Q723.116 903.8 728 905c.167 8.236.073 16.101-1.563 24.188l-.525 2.67A132.8 132.8 0 0 1 712 969c-.586-1.844-.586-1.844-1-4 1.375-2.5 1.375-2.5 3-5 .696-2.191.696-2.191 1-4h2l.332-2.125c.864-5.172 1.844-9.989 3.887-14.828 2.634-6.9 3.176-13.132 3.406-20.485l.117-3.083q.141-3.74.258-7.479c-7.17-2.545-14.3-4.638-21.73-6.273-5.116-1.137-10.191-2.437-15.27-3.727z"/><path fill="#BADEEF" d="M630.063 1034.938 633 1035c-3.168 2.112-5.727 2.95-9.375 4l-3.398 1c-10.648 2.698-21.279 3.387-32.227 3.375l-2.026.002c-28.468-.04-28.468-.04-37.974-6.377l12-1v2c5.951 1.483 11.688 2.405 17.813 2.688l2.427.12c9.257.375 18.535.044 27.76-.808l1-1c2.057-.32 4.116-.512 6.188-.719 1.829-.101 1.829-.101 2.812-1.281 2.057-.32 4.116-.512 6.188-.719 2.875-.446 2.476-1.274 5.875-1.343"/><path fill="#FECACC" d="M348 925h1l.031 1.7q.164 8.784.341 17.569.065 3.274.125 6.55.088 4.717.187 9.435l.05 2.94c.11 5.021.454 9.839 1.266 14.806q.389 3.184.754 6.371l.4 3.486.409 3.58.42 3.663q.51 4.45 1.017 8.9h2l-1 10c-2.505-5.01-3.14-9.69-4-15.188l-.526-3.358c-3.48-23.12-5.28-47.152-2.474-70.454"/><path fill="#DA1B22" d="M347 917h2l-.219 3.566c-1.357 23.441-1.753 47.207 2.219 70.434.112 2.678.046 5.317 0 8-2.567-2.567-2.34-3.873-2.563-7.438-.205-3.142-.437-5.56-1.437-8.562a108 108 0 0 1-.281-5.07l-.114-2.965-.21-6.203-.114-2.957-.092-2.72c.036-2.073.036-2.073-1.189-3.085-.088-2-.107-4.002-.098-6.004l.01-3.682.026-3.876.013-3.89q.018-4.773.049-9.548h2z"/><path fill="#CF0F16" d="m348.504 1064.902 3.058.035 3.067.028L357 1065v1l-2.148.445c-3.127.659-6.248 1.337-9.37 2.02a609 609 0 0 1-5.246 1.105c-16.764 3.463-32.452 8.427-48.452 14.424-3.232 1.168-6.46 2.14-9.784 3.006.648-1.902.648-1.902 2-4 2.54-.941 2.54-.941 5.625-1.563 4.152-.917 8-1.96 11.957-3.546 4.287-1.58 8.675-2.858 13.048-4.178 3.461-.842 3.461-.842 6.37-2.713 4.995-1.44 9.785-2.267 15-2v-2c.957-.09.957-.09 1.934-.184l2.503-.254c.824-.08 1.648-.162 2.497-.246 2.645-.405 2.751-1.304 5.57-1.414"/><path fill="#DF2228" d="M768 1347c9.971.403 19.89.913 29.813 2 11.037 1.203 22.094 1.629 33.187 2v1c-20.301 2.85-20.301 2.85-26 0-2.68-.272-5.348-.495-8.035-.684l-4.889-.373a2213 2213 0 0 0-7.73-.565q-3.723-.272-7.444-.562l-2.351-.158c-1.858-.147-3.707-.393-5.551-.658z"/><path fill="#A10D12" d="M1380 1192c3.17 1.383 5.105 2.94 7.39 5.52l1.903 2.1a1447 1447 0 0 1 3.867 4.35c3.742 4.12 7.232 7.221 12.167 9.833 2.047 1.465 2.564 2.976 3.673 5.197l3 1 1 5h2c1.29 1.531 1.29 1.531 2.625 3.5l1.352 1.969L1420 1232l-1 2-2.063-2.535c-7.487-9.044-15.62-17.093-24.318-24.97-2.928-2.705-5.613-5.563-8.244-8.557l-1.852-2.098C1381 1194 1381 1194 1380 1192"/><path fill="#DC151C" d="M693 372h3l-1 3-1-1-1 31c-6-8-6-8-6-13h2v3h2l-.07-3.762q-.029-2.463-.055-4.925l-.05-2.475c-.036-4.409.1-7.825 2.175-11.838"/><path fill="#D8151C" d="M381 1092c2.486 3.73 4.569 7.616 6.688 11.563l1.298 2.365 1.213 2.263 1.12 2.069.681 1.74-1 2h-2l-1-4-2 1-.875-3.438L384 1104l-2-1-1-8-21 1v-1l3.832-.402 4.98-.535 2.526-.264 2.432-.264 2.237-.238c2.196-.269 2.196-.269 4.993-1.297"/><path fill="#C1DBEA" d="M990 901c-7.16 3.007-14.39 4.463-22 6v21h-1a662 662 0 0 1-1-5.875l-.563-3.305c-.53-4.628-.521-9.167-.437-13.82 3.413-.87 6.83-1.718 10.25-2.563l2.934-.748 2.832-.693 2.602-.65c2.474-.36 4.03-.13 6.382.654"/><path fill="#DEE4EE" d="M693 409h1c2.538 17.404 2.538 17.404 2 23-1.438 1.688-1.438 1.688-3 3-.722 2.606-.722 2.606-1 5h-1c.14-3.48.289-6.958.438-10.438l.119-2.95c.257-5.913.72-11.738 1.443-17.612"/><path fill="#620E0F" d="M1504 1133c4.525 2.201 6.3 4.258 8 9 .72 6.379-.534 10.612-4 16-2.474 2.474-3.975 2.286-7.361 2.322l-2.076-.01-2.065.05c-5.023.004-5.023.004-7.47-1.882L1488 1157l1.938.5c5.675.927 10.257 1.338 15.562-1.125 2.948-2.8 3.318-4.378 3.5-8.375h2c-.398-1.609-.82-3.212-1.25-4.813l-.703-2.707c-1.213-2.873-2.525-3.745-5.047-5.48z"/><path fill="#DBE0EC" d="M692 552h1v5l3 1-1 1c-.16 3.58.11 6.558 1 10q.42 2.373.813 4.75c1.002 5.706 2.417 11.272 3.954 16.854 1.341 5.072 1.341 5.072.233 8.396-5.36-14.74-9.287-31.24-9-47"/><path fill="#E3181F" d="M1259 1190c0 4.062-1.914 6.66-4 10l-1.375 2.25c-1.625 1.75-1.625 1.75-4.402 3.066-4.358 2.277-7.435 5.432-10.953 8.82C1236 1216 1236 1216 1233 1216c4.21-4.297 8.397-8.559 13-12.438 4.792-4.096 8.872-8.812 13-13.562"/><path fill="#DF2329" d="M1355 884c2.43 3.644 2.162 5.712 2 10h2v14h2v16h-1q-1.077-7.097-2.136-14.197-.362-2.412-.728-4.824a2711 2711 0 0 1-1.042-6.956l-.332-2.16c-.587-3.99-.872-7.83-.762-11.863"/><path fill="#E7141C" d="M516 260c2.625-.188 2.625-.188 5 0-3.966 8.194-8.067 16.336-13 24h-1v-5h2l.875-2.688A140 140 0 0 1 513 268h2l-.625-2.313C514 263 514 263 516 260"/><path fill="#C71016" d="M1439 1129c5.382 1.505 9.718 4.045 14.438 6.938 5.079 3.101 10.028 5.853 15.562 8.062v2l5 2-2 1c-2.125-.938-2.125-.938-4-2v-2h-4v-2l-1.703-.36c-6.682-1.863-12.855-5.83-18.606-9.624-1.83-1.183-1.83-1.183-4.691-2.016z"/><path fill="#E12329" d="M1309 608h2c2.592 4.86 2.187 9.653 2 15h2v10h2v11c-1.907-3.815-2.69-6.733-3.508-10.883l-.395-1.986q-.41-2.07-.811-4.14-.618-3.175-1.25-6.346C1309 610.328 1309 610.328 1309 608"/><path fill="#FED5D7" d="M677 1326c1.772.114 3.542.242 5.313.375l2.988.21C688 1327 688 1327 691 1329c2.216.447 4.448.815 6.688 1.125l3.574.508L704 1331v2l1.934.148 2.504.227c.823.07 1.647.14 2.496.21L713 1334l1 2c-7.333-.66-14.222-2.502-21.313-4.438l-3.572-.947-3.416-.924-3.099-.837C680 1328 680 1328 677 1326"/><path fill="#DD2228" d="M956 1345c-14.418 4.454-27.904 5.257-43 5v-1l2.288-.244q5.232-.561 10.462-1.131l3.598-.383c6.774-.74 13.447-1.658 20.137-2.96 2.507-.281 4.14-.07 6.515.718"/><path fill="#E81119" d="M347 917h2q-.21 4.938-.438 9.875l-.119 2.84-.127 2.715-.11 2.507C348 937 348 937 347 939a91 91 0 0 0-.316 4.79l-.127 2.85-.12 2.985-.13 3.008q-.16 3.683-.307 7.367h-1v-27h2z"/><path fill="#FCD2D5" d="M371 775h1l-1 21h-2l.07 2.781c.1 6.787.004 12.738-2.07 19.219-1.093-3.397-.935-6.095-.512-9.621l.39-3.319.435-3.497.425-3.545c.936-7.697 1.947-15.375 3.262-23.018"/><path fill="#461213" d="M193 1153c6.75-.125 6.75-.125 9 1l-1 5q2.625-.214 5.25-.438c.975-.08 1.95-.162 2.953-.246 2.362-.267 4.516-.67 6.797-1.316-3.17 3.646-5.605 3.868-10.313 4.313-4.736-.402-6.814-1.579-10.687-4.313-1.438-2.25-1.438-2.25-2-4"/><path fill="#FCD1D2" d="M578 229a71 71 0 0 1 4 3c-5.366-.847-10.678-1.92-16-3l-5-1-1 2c-3.377-.537-6.697-1.11-10-2 9.32-3.314 18.894-2.944 28 1"/><path fill="#610E10" d="m330 1225 2 1a91 91 0 0 1-4 4h-2l-.629 1.598c-1.95 3.415-4.594 6.015-7.308 8.84-3.551 3.695-6.445 7.13-9.063 11.562l-3 2 .813-1.563c1.308-2.582 1.308-2.582 2.5-6C311 1243 311 1243 313.324 1241.626c3.19-1.937 4.904-4.114 7.176-7.063 2.894-3.745 5.698-6.73 9.5-9.562Z"/><path fill="#E0DDEA" d="M689 522h2l1 20 2 1c.625 2.563.625 2.563 1 5l-3-1-1 2c-2.157-2.157-1.79-6.578-2.125-9.563l-.3-2.384c-.597-5.243-.422-9.843.425-15.053"/><path fill="#540E12" d="m406 1140 2 1-2 2h-3v2h-2l-1 3-5-1-1 3c-1.89.914-1.89.914-4.25 1.625l-2.45.746c-2.418.661-4.824 1.23-7.3 1.629 1.586-3.172 4.825-3.927 7.938-5.313q2.05-.93 4.101-1.863l2.04-.928c3.417-1.594 6.743-3.365 10.066-5.146z"/><path fill="#D10E15" d="M360 1097c-3.062 1.784-5.22 2.229-8.75 2.125l-2.422-.055L347 1099v2l-1.977.113c-5.47.412-9.107 1.375-14.023 3.887-3.875.188-3.875.188-7 0 8.297-4.455 26.602-11.445 36-8"/><path fill="#A1C7DA" d="m683 895 5 1v2h-3l.527 1.95c.624 4.026.33 7.812.035 11.862l-.158 2.39A1169 1169 0 0 1 685 920c-1.83-3.13-2.24-5.376-2.195-8.984l.02-2.832.05-2.934.027-2.98q.036-3.636.098-7.27"/><path fill="#CA0D15" d="m328 1186 2 1a141 141 0 0 1-5 5h-2l-1 3c-1.602 1.395-1.602 1.395-3.625 2.813-3.987 2.871-7.678 5.952-11.375 9.187v-4a99 99 0 0 1 5-3l1-3c1.672-.957 1.672-.957 3.75-1.813 4.354-2.013 6.382-4.391 9.25-8.187z"/><path fill="#CD151B" d="M405 1135c1.5 1.375 1.5 1.375 3 3v2c-7.86 4.055-15.79 7.71-24 11v-2h2l-1-3 5 1v-2c3.62-1.316 6.096-2 10-2v-2h4z"/><path fill="#C0E1F0" d="M453 864h1c.184 5.337-.274 8.925-2 14-.33 2.64-.56 5.272-.754 7.926C451 888 451 888 450 889a70 70 0 0 0-.563 4.063L449 897h-1c-.137-6.251.285-12.038 1.375-18.188l.383-2.326c.74-4.32 1.727-8.356 3.242-12.486"/><path fill="#BEDEEE" d="M462 841c6.485.737 12.692 2.353 19 4v1c-6.234.277-11.88-.791-18-2l-5 10-1-2c.996-2.602.996-2.602 2.438-5.625l1.433-3.04z"/><path fill="#DC2127" d="M354 879h1c-.576 8.507-1.658 16.842-3.063 25.25l-.564 3.45q-.68 4.15-1.373 8.3h-1c-.221-6.085.237-11.963.938-18l.263-2.322c.673-5.552.673-5.552 1.799-6.678.207-1.495.367-2.997.5-4.5.389-4.389.389-4.389 1.5-5.5"/><path fill="#DC1920" d="M1342 806c2.35 4.699 3.232 8.172 3.5 13.438.256 5.356.256 5.356 1.5 10.562.07 2.228.085 4.458.063 6.688l-.028 3.574L1347 843h-1q-.862-6.457-1.709-12.915a2311 2311 0 0 0-.582-4.388q-.421-3.165-.834-6.33l-.508-3.84c-.334-3.21-.436-6.303-.367-9.527"/><path fill="#E5131D" d="M1059 315h4c-1.7 4.735-4.137 8.962-6.625 13.313l-1.273 2.244q-1.547 2.724-3.102 5.443h-1v-7l1.875-.625c2.972-1.923 3.255-4.04 4.125-7.375h2l-.563-2.438L1058 316z"/><path fill="#F50811" d="m1194 1247 2 1-1 2 4 1-1 3-8-1-1 2c-2.066.852-2.066.852-4.563 1.625-.826.26-1.652.52-2.503.79L1180 1258c2.857-3.017 5.823-5.406 9.25-7.75l2.703-1.86z"/><path fill="#3D1417" d="M1392 1248h4c3 5.75 3 5.75 3 8h5l1 9a91 91 0 0 1-4-4v-2l-1.813-.625c-3.014-1.895-3.75-4.173-5.187-7.375z"/><path fill="#F00F16" d="M429 1168c5.044 3.515 8.38 8.117 12 13-3.097.878-4.906.994-8 0l-.313-3.25c-.673-3.674-1.346-5.002-3.687-7.75z"/><path fill="#E3131A" d="m1221 322 3 1a125 125 0 0 1 2 5l2 1c.414 2.066.414 2.066.625 4.563l.227 2.503L1229 338h2v6c-2.036-2.036-2.79-3.464-3.945-6.063l-1.075-2.414-1.105-2.523-1.129-2.523C1221 324.26 1221 324.26 1221 322"/><path fill="#D20F16" d="M1299 1176c5.03.596 8.99 2.88 13.375 5.25l2.21 1.16c4.758 2.54 9.089 5.371 13.415 8.59l-2 1c-2.293-1.152-2.293-1.152-5.188-2.938a308 308 0 0 0-15.062-8.5l-2.024-1.072q-2.361-1.247-4.726-2.49z"/><path fill="#D60C14" d="m297 1267 1 2c-1.375 2-1.375 2-3 4h-2v2h-3v2q-2.374.079-4.75.125l-2.672.07c-2.692-.204-4.277-.83-6.578-2.195v-2l2.379.36c7.101 1.007 7.101 1.007 13.746-1.11 3.01-2.114 3.01-2.114 4.875-5.25"/><path fill="#D60E14" d="M1408 1115c4.513.64 8.316 2.402 12.375 4.375a2461 2461 0 0 0 5.722 2.737c2.937 1.37 5.916 2.63 8.903 3.888v1h-5v-2l-1.703-.402c-2.39-.622-4.707-1.37-7.047-2.16l-2.422-.817L1417 1121v-2h-5v-2h-4z"/><path fill="#E0252B" d="M368 790c1.256 3.709.864 6.877.441 10.734l-.42 3.926q-.228 2.045-.459 4.09l-.447 4.137Q366.567 817.945 366 823h-1c-.029-3.146-.047-6.292-.063-9.438l-.025-2.72-.01-2.588-.016-2.396C365 804 365 804 366 803c.209-1.808.368-3.622.5-5.438.39-5.342.39-5.342 1.5-7.562"/><path fill="#E41B23" d="m1222 1225 2 1c-4.788 5.96-8.894 10.119-16 13a283 283 0 0 0-4 2c3.747-3.86 7.685-7.366 11.813-10.813l1.81-1.521q2.186-1.835 4.377-3.666"/><path fill="#5C0E11" d="m317 1197 2 1-1.898 1.828-2.477 2.422-2.46 2.39c-1.942 2.117-2.951 3.81-4.165 6.36a88 88 0 0 1-5 3 207 207 0 0 0-5 4c1.457-3.363 3.311-5.545 5.914-8.11l2.305-2.285 2.406-2.355 2.43-2.402q2.966-2.93 5.945-5.848"/><path fill="#4F0F11" d="M1436 1094c4.584 1.407 8.802 3.263 13.063 5.438l1.814.908c9.76 4.928 9.76 4.928 11.123 7.654l-5-1v-2h-4v-2l-1.75-.375c-2.99-.83-5.52-2.237-8.25-3.688-1.976-1.023-1.976-1.023-4.188-1.374L1437 1097z"/><path fill="#B8E0F0" d="m452 934 1 2 2 1c.754 2.606 1.408 5.17 2 7.813 1.155 5.402 1.155 5.402 3.188 10.511C461 957 461 957 460 960c-8.294-17.244-8.294-17.244-8-26"/><path fill="#570F12" d="m234 1110 2 1c-2.052 2.248-3.007 3.002-6 4l-1 2h-4l-.75 1.875c-1.494 2.54-2.465 3.224-5.25 4.125-2.133-.457-2.133-.457-4-1l6.688-4.313 1.896-1.224a748 748 0 0 1 3.699-2.368c1.524-.972 3.037-1.96 4.549-2.95z"/><path fill="#FDD0CF" d="M414 544c1.064 3.717.805 6.362.125 10.188l-.555 3.23C413 560 413 560 412 561l-.375 3.875c-.305 2.792-.424 3.868-2.188 6.125L408 572c.645-6.344 1.962-12.333 3.563-18.5l.708-2.781q.858-3.361 1.729-6.719"/><path fill="#E61319" d="M725 441h2c1.46 2.647 2 3.894 2 7h2l1 2 4-2c-.875 7.625-.875 7.625-2 11a2506 2506 0 0 1-4.5-7.875l-1.3-2.262-1.231-2.168-1.143-2C725 443 725 443 725 441"/><path fill="#E0181D" d="M1002 433c1.215 3.644.702 4.285-.871 7.668l-1.24 2.705-1.327 2.815-1.314 2.85A1048 1048 0 0 1 994 456h-1v-5h2v-8l4-1v-5h2z"/><path fill="#E71015" d="M789 331h1q.039 3.125.063 6.25l.035 3.516c-.082 2.71-.414 4.659-1.098 7.234q-.328 3.371-.563 6.75l-.253 3.547L788 361h-1a966 966 0 0 1-.625-9.25l-.195-2.645-.157-2.558-.158-2.349c.156-2.532.95-3.978 2.135-6.198.387-2.325.73-4.659 1-7"/><path fill="#E9121A" d="M1177 1260v3h-3l-.75 1.813c-1.474 2.58-2.637 3.769-5.25 5.187-2.75-.313-2.75-.313-5-1 2.302-2.465 4.76-4.318 7.563-6.188l2.378-1.605C1175 1260 1175 1260 1177 1260"/><path fill="#E3161C" d="M435 462c1.153 3.459.8 4.471-.215 7.887l-.83 2.842-.892 2.959-.881 2.994q-1.08 3.661-2.182 7.318h-1c-1.623-9.087-1.623-9.087.75-12.563L432 471c1.201-2.942 2.122-5.947 3-9"/><path fill="#600D10" d="m1408 1114 10 1v2l1.672.34c2.729.774 5.056 1.928 7.578 3.223l2.703 1.378L1432 1123c-1.535.707-1.535.707-4 1a83 83 0 0 1-7.438-3.313q-1.965-.965-3.933-1.925l-1.875-.925c-2.21-1.055-4.464-1.968-6.754-2.837z"/><path fill="#CA0F12" d="M1357 1067h12v2h7v2l6 1c-3.574 1.095-5.887.68-9.496-.32-3.15-.855-6.323-1.578-9.504-2.305-1.134-.26-2.269-.52-3.438-.79L1357 1068z"/><path fill="#232E36" d="M1184 869c2.822 2.822 3.496 6.207 4.625 9.938l.695 2.208c.939 3.047 1.68 5.648 1.68 8.854h-2a866 866 0 0 1-2.5-7.125l-.723-2.016c-1.404-4.093-2.05-7.47-1.777-11.859"/><path fill="#EBC2D4" d="m559 309 2 1a91 91 0 0 1-4 4h-2l-.75 1.688C551.648 320.5 547.897 324.21 544 328c3.129-8.344 7.413-14.296 15-19"/><path fill="#E9F9FE" d="M695 993c0 4.632-2.884 6.778-6 10-7.772 7.53-7.772 7.53-13 9z"/><path fill="#BCE1F2" d="M1237 856c2.217 3.325 3.126 6.505 4.125 10.313l.55 1.974c1.065 3.997 1.517 7.584 1.325 11.713l-2-1c-.563-2.11-.563-2.11-1-4.75-.805-4.436-1.983-8.216-4-12.25.281-2.008.61-4.01 1-6"/><path fill="#E81318" d="m1098 1302 2 1-2 2h-4l1 3h-2v2l-10-1c2.964-1.976 5.788-3.299 9.063-4.688l3.222-1.386z"/><path fill="#C20F17" d="M1403 1264q1.697 1.364 3.375 2.75l1.898 1.547c1.727 1.703 1.727 1.703 2.602 3.86L1412 1274c2.648.704 2.648.704 5.625.75l3.04.172 2.335.078v1q-2.125.04-4.25.063l-2.39.035c-2.267-.094-4.189-.466-6.36-1.098v-2l-3-1v-2l-4-2z"/><path fill="#D20D14" d="M314 1244c0 3.268-.579 5.082-2 8l-3 2c-1.192 2.05-1.192 2.05-2 4h-2v3h-3c1.268-4.311 3.37-6.52 6.54-9.512 1.907-1.943 3.166-4.104 4.46-6.488z"/><path fill="#BCDCEC" d="M969 934c3.892 4.423 5 9.193 5 15h2l2 9h-2c-7-17.767-7-17.767-7-24"/><path fill="#D40D14" d="m357 1203 2 1c-2.37 3.216-4.17 5.641-8 7h-3l-.75 2.375c-1.404 2.948-2.257 3.527-5.25 4.625.547-3.83 2.105-5.507 5-8a264 264 0 0 1 5-3 207 207 0 0 0 5-4"/><path fill="#BAE0EF" d="m524 1027 2.188.438L529 1028l5 1v2l1.934.332 2.504.48 2.496.458 2.066.73 1 3c-7.151-1.872-13.494-4.498-20-8z"/><path fill="#670D0D" d="m1431 1266 1 3c-3.69 3.997-5.566 5.79-10.922 6.117-3.905.128-5.764.093-9.078-2.117l14-1 1-3 3-1z"/><path fill="#1F2B33" d="M517 855h2c-1.86 6.898-4.795 12.244-9 18l-2-1a3793 3793 0 0 1 3.375-6.813l.96-1.947c1.43-2.872 2.883-5.567 4.665-8.24"/><path fill="#FDA5A9" d="m694 373 2 4h-2v30c-2-2-2-2-2.151-5.057l.14-3.884.068-2.07q.075-2.164.164-4.33c.091-2.216.166-4.432.238-6.65.391-10.86.391-10.86 1.541-12.009"/><path fill="#E81219" d="M563 1279c5.48 1.545 10.114 4.155 15 7-2.376.836-3.544 1.184-5.922.223L567 1283v2h-3zm-1 6 2 1Z"/><path fill="#DD0B14" d="m328 1229 1 2h-2l-.813 1.688c-2.263 4.408-4.54 7.916-8.187 11.312l-3-1 4.813-5.313 1.369-1.513c2.22-2.448 4.45-4.869 6.818-7.174"/><path fill="#490F13" d="M415 1167h5c-3.284 2.68-6.73 4.454-10.563 6.25l-3.44 1.64C403 1176 403 1176 400 1175h2v-2h3v-2c3.402-2.094 6.053-2.18 10-2z"/><path fill="#BADEED" d="M986 976c3.624 1.208 4.152 2.297 6.188 5.438l1.605 2.433C995 986 995 986 995 988l3 1 2 3-1 3a1358 1358 0 0 1-4.813-6.125l-1.369-1.727c-2.762-3.548-4.936-7.033-6.818-11.148"/><path fill="#FEEDED" d="m694 377 3 1c.688 2.063.688 2.063 1 4h-2l-1 24h-1z"/><path fill="#E51A21" d="M805 372h2v3h2c2 2 2 2 2 5l3 1 .375 2.938L815 387l2 1h-3a84 84 0 0 1-4.688-6.875c-.415-.651-.83-1.302-1.26-1.973C805 374.29 805 374.29 805 372"/><path fill="#CC0E17" d="m362 1164-1.723 1.137c-3.792 2.513-7.55 5.04-11.214 7.738C346 1175 346 1175 344 1175l1-3 3-1 1-2a101 101 0 0 1 6-2v-2c3.625-2.125 3.625-2.125 7-1"/><path fill="#530F13" d="M1366 1100h13l2 4 3 1c-6.192-.688-12.02-2.28-18-4z"/><path fill="#FDD4D9" d="M379 720h2c.252 5.792-.273 11.436-2 17l-2 1c-.233-6.283.595-11.88 2-18"/><path fill="#EC151C" d="m840 408 4 2v6h2l-1 2-9-7 4-1z"/><path fill="#600E11" d="M289 1086c-5.077 4.636-12.353 6.148-19 7 12.913-10.043 12.913-10.043 19-7"/><path fill="#4F1013" d="M280 1121c-5.715 4.039-11.226 6.293-18 8v-2h3v-2h4v-2q2.183-.793 4.375-1.563l2.46-.878C278 1120 278 1120 280 1121"/><path fill="#4E1012" d="m306 1080-2.438.875c-2.695.858-2.695.858-3.562 3.125-2.75.917-4.36 1.109-7.188 1.063L289 1085c2.349-2.349 4.271-3.035 7.375-4.188l2.898-1.105c2.78-.72 4.078-.692 6.727.293"/><path fill="#D3181C" d="m1342 1058 .125 1.875c.709 2.411.709 2.411 3.5 3.313 3.424.887 3.424.887 7.188 1.312l3.187.5 1 2-17-2c1-5 1-5 2-7"/><path fill="#24292F" d="m1153 978 4 2-10 7-1-4 4-1v-2z"/><path fill="#D9242E" d="M800 505c2.57 3.854 3.593 7.588 5 12l-12-3v-1h8z"/><path fill="#FDD5D6" d="M533 241c.672 1.754.672 1.754 1 4-1.11 1.965-1.11 1.965-2.75 3.938-1.885 2.334-3.48 4.458-5 7.062l-1.25 2h-2c1.486-4.217 3.612-7.625 6.125-11.313l2.195-3.238z"/><path fill="#FEE0E1" d="M1121 235h2l-2 4h-2l-.813 2.875C1117 245 1117 245 1114 247l-3-1q2.428-2.759 4.875-5.5l1.395-1.59c1.202-1.341 2.462-2.63 3.73-3.91"/><path fill="#D60B14" d="m339 1218 2 1a418 418 0 0 1-2.875 3.5l-1.617 1.969L335 1226h-2l-1 3-3-1c1.375-2 1.375-2 3-4h2l.813-1.875C336 1220 336 1220 339 1218"/><path fill="#411313" d="M1401 1214c3.806 3.208 7.546 6.407 11 10l-1 2-1.39-1.348-1.86-1.715-1.828-1.722c-1.865-1.47-1.865-1.47-4.156-.899L1400 1221z"/><path fill="#E41B23" d="M1347 1042c.966 3.17 1.073 5.826.813 9.125l-.168 2.633c-.645 2.242-.645 2.242-2.696 3.547L1343 1058c.601-5.65 2.075-10.662 4-16"/><path fill="#E2151F" d="M1149 1276v3c-3.038 2.864-5.968 4.863-10 6l-4-1z"/><path fill="#4E0E0F" d="M271 1252c.868 2.97 1.083 5.538 1 8.625-.127 3.318-.127 3.318 1 6.375l3 1c1.188 2.563 1.188 2.563 2 5-3.904-1.534-5.945-3.33-8-7-.979-10.042-.979-10.042 1-14"/><path fill="#D60E15" d="m373 1192 2 1c-1 2-1 2-3.375 2.875-2.727.892-2.727.892-4 3.125-2.37 2.917-5.053 3.191-8.625 4 4.14-4.54 8.824-7.718 14-11"/><path fill="#D70D15" d="M230 1149v2h-3l-2 4h-3v2l-6 1c3.262-3.67 8.8-9 14-9"/><path fill="#4B1110" d="M215 1123v2h-3l-1 3c-3.213 3.09-6.743 3.936-11 5 3.662-4.005 9.238-10 15-10"/><path fill="#B9DDED" d="M465 969h2l1.688 3c2.002 3.537 4.195 6.924 6.457 10.3L476 984l-1 2c-1.301-1.7-2.59-3.411-3.875-5.125l-2.18-2.883c-1.927-2.964-2.99-5.603-3.945-8.992"/><path fill="#AAD5E8" d="M523 968c4.184 3.509 8.196 7.08 12 11-3.839-.548-5.362-2.277-8-5l-3-1v2h-2v-3h2z"/><path fill="#A8D6EA" d="m1065 991 9 3v2l-7 2v-2h-2z"/><path fill="#DE1F24" d="M358 859h1c-.516 6.499-1.467 12.662-3 19h-1c-.354-7.126.043-12.47 3-19"/><path fill="#BEDEEF" d="M482 846c6.86.66 13.344 2.236 20 4v1l-8 1-1-3-1.898-.148-2.477-.227-2.46-.21C484 848 484 848 482 846"/><path fill="#FDA2A5" d="M790 321h1l2 19-3-1z"/><path fill="#E9151A" d="m1176 241 7 2v9c-2.957-3.467-5.078-6.869-7-11"/><path fill="#550F0F" d="m293 1270 2 1c-5.369 3.852-8.54 4.33-15.059 3.36-.64-.12-1.28-.238-1.941-.36v-1l1.758-.148c4.712-.451 8.745-1.316 13.242-2.852"/><path fill="#CB0F15" d="m395 1179 2 1-2.75 1.813c-3.127 2.028-3.127 2.028-5.375 3.937C387 1187 387 1187 383 1187v2l-4-1 2.23-1.207 2.957-1.605 2.918-1.583a101 101 0 0 0 5.633-3.367z"/><path fill="#520F0F" d="m400 1177-1.793.988-2.394 1.324-2.485 1.372a115 115 0 0 0-5.265 3.191L386 1185l-2-1 2-3h4v-2c6.625-3.125 6.625-3.125 10-2"/><path fill="#E7151A" d="m668 347 2 2-1 3 1 2.5c1 2.5 1 2.5 0 5.5a805 805 0 0 1-2.5-4.375l-1.406-2.46C665 351 665 351 665 349z"/><path fill="#FDC8C9" d="M677 1326c1.772.114 3.542.242 5.313.375l2.988.21C688 1327 688 1327 691 1329c1.655.385 3.322.728 5 1v2q-3.909-.928-7.813-1.875l-2.236-.527c-3.448-.843-5.97-1.61-8.951-3.598"/><path fill="#E31D23" d="m1270 1178 1 3-1 2h-2v3h-2v2l-6 2 1.172-1.355c3.012-3.497 5.971-7.02 8.828-10.645"/><path fill="#4E0F12" d="M225 1147h6c-2.55 2.83-5.466 4.679-8.688 6.688l-3.011 1.886L217 1157l-1-2 5-2v-2l4-2z"/><path fill="#3C1416" d="M1385 1075c4.571.549 8.674 1.417 13 3v1l-10 1-1-3z"/><path fill="#BEDAEC" d="M1195 851c-3.53 2.354-6.586 2.658-10.688 3.125l-2.126.262q-2.592.315-5.186.613l1-2c2.8-.887 2.8-.887 6.313-1.688l3.488-.824c2.91-.444 4.485-.486 7.199.512"/><path fill="#FDE0DD" d="M979 490c1.424 5.695 1.424 5.695 1 9-2 1.813-2 1.813-4 3l-5-3 1-2 3 2z"/><path fill="#E41D23" d="M940 475c5.399.348 5.399.348 8 1 1.313 1.875 1.313 1.875 2 4 1.541 1.71 1.541 1.71 3 3-4.724-1.624-8.942-4.11-13-7z"/><path fill="#E6161C" d="M1276 461c.953 4.763 1.083 9.167 1 14-2.525-2.525-2.557-4.138-3.125-7.625l-.508-3.04L1273 462c2-1 2-1 3-1"/><path fill="#DE1E23" d="m1133 1285 2 1-3 1v2c-1.41.702-2.828 1.386-4.25 2.063l-2.39 1.16c-2.62.863-3.809.707-6.36-.223q3.43-1.794 6.875-3.563l1.973-1.037c1.687-.86 3.418-1.637 5.152-2.4"/><path fill="#FED9D8" d="M523 1253h4l1 2 3.375 1.438c3.059 1.318 4.594 2.053 6.625 4.562l-1 2q-2.66-1.65-5.313-3.313l-2.988-1.863c-2.2-1.487-3.932-2.864-5.699-4.824"/><path fill="#C80F15" d="M1307 1145c4.31-.357 6.613.6 10.25 2.875l2.64 1.617C1322 1151 1322 1151 1323 1153c-5.685-1.646-10.767-4.29-16-7z"/><path fill="#CF0F15" d="M208 1123h5c-4.247 3.451-8.611 6.733-13 10l-2-1c2.372-3.822 5.004-5.089 9-7z"/><path fill="#B3DCEC" d="m685 1001 2 1c-4.381 4.581-8.548 8.73-14 12 1.55-3.884 4.005-6.03 7.125-8.75l2.758-2.422z"/><path fill="#FFDADC" d="M735 461c3.045 2.833 5.169 5.655 7.25 9.25l1.578 2.703L745 475h-3l-1.375-2.938c-1.283-3.133-1.283-3.133-3.625-4.062a129 129 0 0 1-2-7"/><path fill="#EB1015" d="m903 448 3 2-2 3 1 2c-3.775-1.09-6.47-1.908-9-5 3.313-1.125 3.313-1.125 7-2"/><path fill="#E52125" d="m548 230-12 8v-5l2.25-.875c2.693-1.037 2.693-1.037 4.875-2.313C545 229 545 229 548 230"/><path fill="#411215" d="m332 1184 2 1-1.313 1.188c-1.832 1.808-1.832 1.808-3.062 4.437C328 1193 328 1193 325.312 1193.813L323 1194c0-2 0-2 1.46-3.508.633-.533 1.264-1.067 1.915-1.617l1.898-1.633C330 1186 330 1186 332 1186z"/><path fill="#421311" d="M1469 1145h7v2l3 1v3c-3.995-1.37-6.8-3.257-10-6"/><path fill="#C61015" d="M1440 1095h4v2l2.313-.125C1449 1097 1449 1097 1452 1099v2l4 1-2 1a113 113 0 0 1-7.125-3.438l-1.996-1.025A775 775 0 0 1 1440 1096z"/><path fill="#E3161F" d="M747 477c3 0 3 0 4.688 1.313C753 480 753 480 753 483l5 1-2 1-1 2a1678 1678 0 0 1-4-4.438l-2.25-2.496C747 478 747 478 747 477"/><path fill="#DF1C23" d="M1263 432h2v3h2l1.465 5.957c.445 1.7.98 3.376 1.535 5.043l-2 2q-1.255-3.435-2.5-6.875l-.723-1.973C1263 434.227 1263 434.227 1263 432"/><path fill="#E41219" d="M677 372h2l3 5h2l-1 7c-2.748-3.402-6-7.485-6-12"/><path fill="#FEDCD9" d="m521 260 1 2c-1.11 2.785-1.11 2.785-2.75 6.063l-1.61 3.285C516 274 516 274 513 275c1.373-3.699 3.064-6.951 5.125-10.313l1.633-2.675z"/><path fill="#E11C21" d="M1034 1327c-5.02 4.119-8.599 4.512-15 4 2.432-2.432 4.2-2.798 7.5-3.688l2.969-.824C1032 1326 1032 1326 1034 1327"/><path fill="#D10F15" d="M1333 1195a534 534 0 0 1 5.313 2.75l2.988 1.547c2.654 1.674 4.03 3.083 5.699 5.703-2.169-.506-4-1-6-2v-2l-2.313-.875C1336 1199 1336 1199 1333 1197z"/><path fill="#DB0B13" d="M218 1115h8c-3.2 2.743-6.005 4.63-10 6z"/><path fill="#DE1F25" d="m1323 1101 1 2c-.707 1.77-.707 1.77-1.813 3.813-1.265 2.383-2.328 4.577-3.25 7.124L1318 1116l-3 1c1.427-3.79 3.162-7.271 5.125-10.813l1.633-2.957z"/><path fill="#BBE0EE" d="m1034 1021 2 1v2l1.625.313c3.025.875 5.625 2.16 8.375 3.687l1 2c-5.48-1.545-10.114-4.155-15-7z"/><path fill="#A7D0E1" d="m677 940 2 1a85 85 0 0 1-2 7h-2v4l-3 1a932 932 0 0 1 1.375-4.25l.773-2.39c.804-2.226 1.75-4.27 2.852-6.36"/><path fill="#DE1F24" d="M388 664c1.592 3.184.287 6.28-.438 9.625l-.447 2.14c-.365 1.747-.74 3.491-1.115 5.235h-1c-.354-6.518-.039-11.175 3-17"/><path fill="#FED4D6" d="M422 512h1c.218 5.439.104 9.87-2 15h-2c.551-5.239 1.43-9.974 3-15"/><path fill="#FDD8D9" d="M478 344h1c-.568 5.455-1.946 9.91-4 15h-2c3.075-10.558 3.075-10.558 5-15"/><path fill="#FEEDEC" d="M543 232c0 3 0 3-1.46 4.824l-1.915 1.863-1.898 1.887C536 242 536 242 534 242c1.382-3.21 2.924-5.05 5.625-7.25l1.914-1.578z"/><path fill="#E52127" d="m1061 1318-4 1v2h-2v3l-7-2c2.437-1.625 4.373-2.657 7.063-3.688l2.097-.824c1.84-.488 1.84-.488 3.84.512"/><path fill="#45120E" d="M1308 1179h8v4h3v2c-3.791-1.45-7.387-3.152-11-5z"/><path fill="#4D1010" d="m1488 1157 1.938.5c5.408.883 10.766 1.013 16.062-.5l-2 3c-2.934.398-2.934.398-6.438.375l-3.496.023c-3.066-.398-3.066-.398-4.976-1.921z"/><path fill="#23262A" d="M1036.313 960.875 1038 962l-1 2h-3l-1 3c-2-1.375-2-1.375-4-3v-2c4.43-2.215 4.43-2.215 7.313-1.125"/><path fill="#EBC1D3" d="m1044 475 2 3c-.737 3.538-1.393 5.464-4.125 7.875L1040 487z"/><path fill="#FED9D9" d="M1028 380c.983 3.06 1.135 4.975 0 8-1.438 2.25-1.438 2.25-3 4h-2c1.31-4.234 2.944-8.074 5-12"/><path fill="#E6181D" d="M1078 1312c-1.063 2-1.063 2-3 4-3.688.25-3.688.25-7 0v-2a328 328 0 0 1 3.875-1.563l2.18-.878C1076 1311 1076 1311 1078 1312"/><path fill="#DF2029" d="M1193 1249c0 2 0 2-1.438 3.938-3.515 2.83-7.262 3.85-11.562 5.062 8.333-9 8.333-9 13-9"/><path fill="#681212" d="M1392 1248h4a419 419 0 0 1 2.063 4.375l1.16 2.46.777 2.165-1 2c-2.749-2.374-3.737-4.632-5-8z"/><path fill="#511010" d="m1292 1171 8 1v2l4 2-2 1c-2.383-.996-2.383-.996-5.125-2.438l-2.758-1.433L1292 1172z"/><path fill="#DC1C25" d="M1307 1129c1 2 1 2 .313 4.375-1.412 2.824-3.023 4.483-5.313 6.625l-1 2-2-1z"/><path fill="#F6DCD9" d="m1303 1132 2 1-6 9-4-2h3l1-3h2l.438-1.938C1302 1133 1302 1133 1303 1132"/><path fill="#4A1014" d="M320 1105c-3.015 2.01-5.215 2.726-8.688 3.625l-3.011.79c-.76.192-1.519.386-2.301.585.793-1.953.793-1.953 2-4 4.017-.91 7.891-1.125 12-1"/><path fill="#E02328" d="M1352 1024c1.03 4.119.82 6.155.063 10.25l-.59 3.266L1351 1040h-3z"/><path fill="#A3C8D8" d="M1192 916h1q.079 3.093.125 6.188l.07 3.48c-.19 3.25-.801 5.419-2.195 8.332l-2-1z"/><path fill="#F8BCBF" d="M384 687h1c.081 2.104.14 4.208.188 6.313l.105 3.55C385 700 385 700 382 703z"/><path fill="#D6D5E7" d="M690 539c3.254 2.834 4.52 4.686 5 9l-3-1-1 2c-1-1-1-1-1.098-3.066l.035-2.496.028-2.504z"/><path fill="#E81318" d="M981 485c-.672 3.806-1.727 7.352-3 11h-1l-1-9c3-2 3-2 5-2"/><path fill="#E61218" d="m1068 297 5 2-5 9-1-4h2z"/><path fill="#E7151C" d="M1091 266h4c-1.443 3.366-3.333 5.51-6 8 .875-6.875.875-6.875 2-8"/><path fill="#FCC5C7" d="M728 1339c1.77-.081 3.541-.14 5.313-.188l2.988-.105c2.699.293 2.699.293 4.554 1.805L742 1342a424 424 0 0 1-4.75-.375c-.882-.07-1.763-.14-2.672-.21-2.569-.414-4.336-1.127-6.578-2.415"/><path fill="#BF141C" d="m1280 1166 12 5c-3.29 1.097-4.713.8-8 0v-2h-5z"/><path fill="#DDE5EE" d="M854 674c5.75.75 5.75.75 8 3-2.709 1.354-5.01 1.065-8 1z"/><path fill="#FFEFF2" d="M791 338c2 2 2 2 2 5h-2v12h-1a1890 1890 0 0 1-.063-7.938l-.025-2.287c-.009-1.925.036-3.85.088-5.775z"/><path fill="#FEE0DE" d="M601 251c3.636 3.434 6.361 6.797 9 11-4.3-1.592-6.35-4.393-9-8z"/><path fill="#E21A1F" d="m1109 1297 2 1c-2.228 3.342-3.199 4.004-7 5-2.164-.957-2.164-.957-4-2a419 419 0 0 1 4.375-2.063l2.46-1.16z"/><path fill="#531112" d="M311 1243h3c-4.018 8.345-4.018 8.345-8 11l.813-1.563c1.51-3.101 2.843-6.26 4.187-9.437"/><path fill="#4B1213" d="m1375 1228 3 1v2l4-1v6c-5.875-4.625-5.875-4.625-7-8"/><path fill="#C60F16" d="M1401 1212c2.875 1.289 5.007 2.533 7 5a77 77 0 0 1 1 4 367 367 0 0 1-3.438-2.813l-1.933-1.582C1402 1215 1402 1215 1401 1212"/><path fill="#500F10" d="M379 1154v3l-2.813.813c-2.95 1.098-4.243 1.811-6.187 4.187l-2-2a783 783 0 0 1 4.375-3l2.46-1.688C377 1154 377 1154 379 1154"/><path fill="#401214" d="M1398 1079c7.625 1.75 7.625 1.75 11 4l-8 1v-3h-3z"/><path fill="#451013" d="M342 1070c-1 1-1 1-4.563 1.063L334 1071l-1 3-7-1c3-1.654 5.768-2.521 9.125-3.188l2.633-.542C340 1069 340 1069 342 1070"/><path fill="#E12A31" d="M1347 848c2 1 2 1 3.125 2.938 1.246 4.36 1.032 8.558.875 13.062h-1z"/><path fill="#BCDEEC" d="M503 851c7.429 1 7.429 1 11 2v2l-10-1z"/><path fill="#EBC4D4" d="M1091 370h2v4h-2l-.813 2.875C1089 380 1089 380 1086 382c1.31-4.234 2.944-8.074 5-12"/><path fill="#DF171E" d="M590 1293c4.234 1.31 8.074 2.944 12 5v1h-5v-2l-6-1z"/><path fill="#CC0F15" d="M367 1157h5c-3.019 3.483-5.57 4.792-10 6v-2h3v-2h2z"/><path fill="#451214" d="m406 1140 2 1-2 2h-3v2h-2l-1 3-3-2c5.696-4.747 5.696-4.747 9-6"/><path fill="#4F110F" d="M1445 1131h4v2h5v2h2v2c-4.508-1.258-7.491-2.904-11-6"/><path fill="#2C2728" d="M1234 1127c1.044 3.133.934 3.99 0 7h-5c1.522-2.629 2.844-4.844 5-7"/><path fill="#3B1214" d="m1495 1127 9 5c-3.702.925-4.635 1.082-8 0z"/><path fill="#3E1413" d="M223.188 1118.375 225 1119c-3.203 2.834-5.78 3.52-10 4 4.945-5.18 4.945-5.18 8.188-4.625"/><path fill="#530F12" d="m1408 1114 10 1v2l3 1c-5.232.383-8.378-.781-13-3z"/><path fill="#BDDEED" d="M506 1016c4.194.671 7.403 2.856 11 5v2c-4.108-1.45-7.469-3.454-11-6z"/><path fill="#9EC7D7" d="M505 936c1.79 2.686 2.66 4.663 3.625 7.688.26.808.52 1.616.79 2.449.192.615.386 1.23.585 1.863l-2 2-.375-3.438L507 943l-2-1z"/><path fill="#DF2628" d="m1306 590 .938 1.938c.897 1.998.897 1.998 2.062 3.062.072 1.686.084 3.375.063 5.063l-.028 2.785L1309 605h-1c-1.263-5.075-2.27-9.728-2-15"/><path fill="#F10D15" d="m820 385 2 1v4l-2 2-1 2-3-5h3z"/><path fill="#E21D22" d="m1109 246 2 1-7 9-1-4 4-2v-3z"/><path fill="#E50811" d="m1428 1272 2 1-1 3-5-1v2h-8v-1h7v-2c2.375-1.063 2.375-1.063 5-2"/><path fill="#C40F17" d="m1352 1170 1.563.813c3.101 1.51 6.26 2.843 9.437 4.187v3c-4.596-1.487-7.47-3.798-11-7z"/><path fill="#E31B22" d="M429 1168c3.63 2.65 5.899 5.018 8 9h-4c-4-6.75-4-6.75-4-9"/><path fill="#D00E12" d="m246 1139-2 4h-4v2l-4-1q1.932-1.257 3.875-2.5l2.18-1.406C244 1139 244 1139 246 1139"/><path fill="#2A2529" d="m418 1136 2 1-1.938 1.813c-2.265 2.095-2.265 2.095-3.062 5.187l-2-1v-5c2.375-1.063 2.375-1.063 5-2"/><path fill="#B7DCEE" d="M1150 1035c-8.012 4.314-8.012 4.314-12.375 3.625L1136 1038c4.97-2.434 8.346-3.346 14-3"/><path fill="#FEE5E3" d="m353 1002 1 2h2l-1 10c-2.353-4.707-2.171-6.87-2-12"/><path fill="#B3DDED" d="m705 976 2 1-6 9c-1-4-1-4-.004-5.703z"/><path fill="#FEDBD8" d="m923 466 10 5-1 2h-2v-2l-2.375-.25L925 470z"/><path fill="#401210" d="m303 1255 2 1a809 809 0 0 1-2.438 4l-1.37 2.25L300 1264h-1c-.2-3.716-.152-4.772 2-8l2 1z"/><path fill="#451310" d="M277 1243c.688 1.688.688 1.688 1 4-1.25 2.75-1.25 2.75-3 5h-3v-2h2l.938-2.938C276 1244 276 1244 277 1243"/><path fill="#541110" d="m283 1235 1 2a101 101 0 0 1-3 6h-3c1.186-3.375 2.276-5.647 5-8"/><path fill="#E61D22" d="M465 1207c3.265 1.804 4.89 2.834 7 6h-6z"/><path fill="#5A1011" d="m1330 1192 7 1 2 5c-3.937-1.312-6.227-2.92-9-6"/><path fill="#E51822" d="m441 1182 7 6-2 2v-2l-5-2z"/><path fill="#C80F14" d="m270.438 1126.25 1.562.75c-6.4 4.062-6.4 4.062-9.438 3.75L261 1130c6.4-4.062 6.4-4.062 9.438-3.75"/><path fill="#535152" d="m750.625 1122.938 2.477.027L755 1123v1h-6v2l-4 1-1-3c2.405-1.203 3.95-1.1 6.625-1.063Z"/><path fill="#CB0E14" d="M1456 1103c3.954.565 6.717 1.72 10 4l1 2c-4.508-1.258-7.491-2.904-11-6"/><path fill="#C10D13" d="M1429 1090c4.056.468 7.466.88 11 3v2c-3.866-1.041-7.495-2.037-11-4z"/><path fill="#BADCF0" d="M1005 1000c2.38.176 3.702.697 5.379 2.402 1.242 1.504 2.435 3.05 3.621 4.598l-1 2a1485 1485 0 0 1-4-3.938l-2.25-2.214C1005 1001 1005 1001 1005 1000"/><path fill="#212C34" d="m649 976 3 1a617 617 0 0 1-3.875 3l-2.18 1.688C644 983 644 983 642 983c.188-1.875.188-1.875 1-4 2.5-1.188 2.5-1.188 5-2z"/><path fill="#E3292E" d="m1352 872 3 1v10h-1c-1.193-3.877-2-6.916-2-11"/><path fill="#A4D4E2" d="m1184 868 5 1v7l-2 1z"/><path fill="#FED9D6" d="m1093 269 1 2c-.926 1.945-.926 1.945-2.313 4.125l-1.363 2.195L1089 279h-2c1.37-3.995 3.257-6.8 6-10"/><path fill="#E31821" d="M611 262c2.438.625 2.438.625 5 2 .813 3.125.813 3.125 1 6-4.875-4.625-4.875-4.625-6-8"/><path fill="#EA121A" d="m1098 255 4 3-5 5c-.125-5.75-.125-5.75 1-8"/><path fill="#521011" d="M1416 1231c4.875 4.625 4.875 4.625 6 8h-3c-3-5.75-3-5.75-3-8"/><path fill="#CC1017" d="m293 1220 2 1-7 9-1-3c1.215-1.824 1.215-1.824 2.938-3.688l1.714-1.886z"/><path fill="#510F11" d="m359 1200 2 1-8 6-1-2h2v-3c2.375-1.063 2.375-1.063 5-2"/><path fill="#E20B10" d="M390 1145h2l-1 3c-3.563 1.688-3.563 1.688-7 3v-2h2l-1-3 5 1z"/><path fill="#CF0C17" d="m1501 1130 7 1 1 5a809 809 0 0 1-4-2.438l-2.25-1.37L1501 1131z"/><path fill="#CF0E17" d="M1387 1107c4.557.438 7.577.85 11 4h-6v-2h-5z"/><path fill="#BBE0F0" d="m669 1014 4 1-9 6-1-2 2.438-.813L668 1017z"/><path fill="#A9C8D5" d="M514 854h6l-3 1a89 89 0 0 0-2 5l-2 2z"/><path fill="#EDC4D6" d="m685 562-10 4c2-4 2-4 3.875-4.813C681 561 681 561 685 562"/><path fill="#EDC5D6" d="M1060 437c.955 2.17 1.144 3.563.398 5.824-.757 1.744-1.574 3.462-2.398 5.176h-2q.716-2.188 1.438-4.375l.808-2.46C1059 439 1059 439 1060 437"/><path fill="#FCC8C9" d="M1265 439c2.458 3.687 3.012 6.697 4 11l-2-1v-2h-2z"/><path fill="#DE1519" d="M464 376c1.136 3.41.867 4.003-.438 7.188l-.87 2.167L462 387h-1v-7h2z"/><path fill="#E1171D" d="M602 1299c3.821.53 6.062 1.497 9 4h-6v-2h-3z"/><path fill="#E21F25" d="m1230 1218 2 1c-1 3-1 3-3.438 4.75L1226 1225l-2-1z"/><path fill="#2B2829" d="m863 1136 7 3c-3 2-3 2-6 3z"/><path fill="#551013" d="M1409 1083c6.523.615 6.523.615 8.938 2.563L1419 1087h-5v-2h-5z"/><path fill="#1E242E" d="M1121.188 993.813 1124 994v2l-9 1c3-3 3-3 6.188-3.188Z"/><path fill="#FEE4E3" d="m770 501 7 4-3 1-1 3c-.553-2.076-1-3.844-1-6h-2z"/><path fill="#FEE3DE" d="M843 417c2.884 1.293 4.872 2.66 7 5l-7-1z"/><path fill="#DE191F" d="M467 366h2c-.48 4.22-1.166 6.797-4 10-.22-3.856.396-6.492 2-10"/><path fill="#FEDAD9" d="M1055 329c.688 1.688.688 1.688 1 4-1.313 2.75-1.313 2.75-3 5h-2c1.059-3.403 2.009-6.014 4-9"/><path fill="#FEDDE0" d="m508 282 2 4c-1.375 2-1.375 2-3 4h-2c1.875-5.75 1.875-5.75 3-8"/><path fill="#E61822" d="M516 1249c2.884 1.293 4.872 2.66 7 5l-2.375-.563c-2.596-.697-2.596-.697-4.625.563z"/><path fill="#590F0F" d="M1344 1166c3.937 1.312 6.227 2.92 9 6-3.403-1.059-6.014-2.009-9-4z"/><path fill="#D70B12" d="M191 1150c2.011 2.56 3.628 5.046 5 8h-4z"/><path fill="#540F0E" d="M253 1101v2h-2v2l-7 1c1.631-3.262 5.38-5 9-5"/><path fill="#A8D2E5" d="m1165 972 1 4-3 2-3-1z"/><path fill="#A6D7E8" d="M1184 855h-3l1 4h-3l-2-4c3.133-1.044 3.99-.934 7 0"/><path fill="#EBC1D2" d="M483 478h1c.37 5.538.37 5.538-1.5 7.875L481 487c.875-7.875.875-7.875 2-9"/><path fill="#E81A1F" d="m617 270 5 1-1 5a91 91 0 0 1-4-4z"/><path fill="#FED2D4" d="M1186 258c2.617 2.368 4.329 4.896 6 8v2l-3-1c-1.416-2.91-2.3-5.847-3-9"/></svg>