<svg xmlns="http://www.w3.org/2000/svg" fill="none" viewBox="0 0 282 282"><path fill="#1D5E96" d="M154.443 279.891c1.518-3.519 4.167-3.711 7.408-1.394-2.252.705-4.621 1.074-7.408 1.394"/><path fill="#1B5582" d="M144.741 274.246c1.855 1.197 3.488 2.642 5.199 4.401-2.953.3-5.891.172-5.199-4.401"/><path fill="#269AFE" d="M7.167 173.999c-1.051-4.218-2.575-8.381-3.076-12.663-3.539-30.195.85-59.004 15.781-85.814 15.728-28.236 38.29-49.067 68.014-61.87 11.976-5.158 24.612-8.09 37.571-9.674 23.212-2.838 45.675-.275 67.276 8.93.592.252 1.302.228 1.714.708-4.304 1.389-8.365 2.4-12.677 3.394-.418-.015-.585-.013-.944-.227-.723-.42-1.253-.622-1.916-1.149-5.309-3.712-10.551-1.47-10.96 4.355-.114 1.617.042 3.252-.175 4.675-.552-1.242-.854-2.28-1.347-3.97l-.981 5.512c-2.195.453-3.783.781-5.692.995-1.492-.765-2.662-1.416-3.675-2.31.333-.664.509-1.085.686-1.507-8.762-1.074-17.719-4.142-26.042 2.532-5.866-2.122 1.607-2.657.223-4.367-3.432.234-7.018-.135-10.208.819-7.344 2.196-14.497 5.036-21.998 7.402-5.169.1-10.297-.094-13.557 4.587-2.186 3.139-4.15 6.432-6.453 9.862-1.123 1.391-2.006 2.576-3.204 3.842-1.34 1.294-2.281 2.605-3.458 3.65-.27.24-1.353-.44-1.76-.907 1.93-4.896 3.558-9.583 5.386-14.842-6.076 3.265-6.75 8.623-7.504 14.341 1.243 2.155 2.55 3.941 3.61 5.976-2.722 1.726-6.786 1.575-6.387 6.453-1.324 2.108-2.15 4.553-3.827 5.512-2.938 1.68-2.215 3.574-1.483 6.168-1.378 3.116-2.713 5.87-4.218 8.912l-3.655 6.133c3.17-.265 4.926-.412 6.723-.147.4 2.867.758 5.322 1.083 8.03-.084.415-.134.578-.518.83-4.493 5.513-4.968 11.878-.958 15.673 3.542 3.352 7.612 6.148 11.585 9.392.351.455.605.66 1.012.972.278.36.483.506.994.861 4.445 1.175 8.625 2.082 13.36 3.11-1.61 3.094-2.565 4.93-3.76 7.011-6.666 4.745-11.567 11.988-20.994 11.841-.898 4.661-3.587 5.04-6.643 2.553-2.364 1.023-4.214 1.759-6.007 2.614-2.963 1.414-7.203 2.177-8.515 4.541-1.821 3.281-4.835 2.294-6.933 3.852-1.43 1.062-3.41 1.348-4.982 2.261-4.955 2.88-9.79 5.967-14.766 8.811-1.779 1.018-3.822 1.572-5.745 2.337"/><path fill="#41BCFE" d="M7.094 174.406c1.996-1.172 4.04-1.726 5.818-2.744 4.975-2.844 9.81-5.931 14.766-8.811 1.572-.913 3.552-1.199 4.982-2.261 2.098-1.558 5.112-.571 6.933-3.852 1.311-2.364 5.552-3.127 8.515-4.541 1.793-.855 3.643-1.591 6.007-2.614 3.056 2.487 5.745 2.108 6.643-2.553 9.427.147 14.328-7.096 21.365-11.879a524 524 0 0 1 8.28-3.071l7.061 1.695c.437 1.109.869 2.204 1.327 3.706 1.601 1.159 3.467 2.862 4.696 2.485 3.655-1.12 7.059-3.057 10.898-4.768 1.749-.831 3.161-1.567 4.929-2.324 6.939-1.043 10.166 2.115 11.537 11.108-.809-.427-1.326-.753-1.91-1.326-.688-.407-1.309-.566-2.283-.661-4.201 1.799-8.115 3.402-11.866 5.323-1.766.904-3.218 2.418-4.803 3.669.01.012-.007-.011-.371-.014-1.838.997-3.313 1.996-4.987 2.995-.198.001-.593.03-.914.177-2.244 1.108-4.316 1.858-6.06 3.077-3.003 2.101-5.803 4.493-8.675 6.775.014.012.018-.024-.194.101-.474.333-.67.592-1.14.956-2.227 2.55-4.074 5.077-6.022 7.525-.76.955-1.75 1.729-3.003 2.599-2.427 1.299-4.484 2.584-6.857 4.005-6.203 4.975-6.179 6.748-.106 11.203 1.717 1.261 3.499 2.434 5.398 3.974.544 2.814.94 5.3 1.082 8.049-.912 2.041-1.569 3.818-2.52 5.767-1.742 3.572-3.192 6.972-4.848 10.591-1.08 1.589-1.954 2.958-3.18 4.202-2.07-4.32-4.727-5.804-9.131-2.922-2.242 1.949-4.2 3.742-6.03 5.418.846.484 1.66.95 2.203 1.584-1.64 1.146-3.007 2.125-4.772 3.051-5.003.162-7.32 3.152-8.936 6.992-17.183-17.558-28.428-38.349-33.832-62.686m46.27-4.688c7.676-3.535 16.96-3.783 23.928-11.847-8.814.38-13.809 9.708-21.408 6.529l-9.761 5.986.884 1.777c1.923-.65 3.846-1.3 6.358-2.445Z"/><path fill="#1D57B0" d="M155.922 25.134a107 107 0 0 1 4.041 2.335c4.413 2.064 8.297 3.747 12.519 5.382 3.357-4.275 6.376-8.503 9.663-12.503 2.17 1.373 4.073 2.516 5.743 3.91-2.659 1.978-5.086 3.708-7.512 5.437 2.417.073 4.308-1.532 6.119-1.446 5.68.268 8.511-3.348 11.764-7.215 3.986.776 7.557 1.55 11.507 2.405l-.73-2.576c2.896 1.498 5.793 2.996 8.855 5.249.518 5.13.871 9.505.876 13.745-2.846-1.221-5.366-2.26-7.836-3.408-1.773-.823-3.424-1.619-4.28 1.399-2.498 1.768-4.67 3.408-7.186 5.128-2.391.703-4.439 1.327-6.865 1.917-1.386.153-2.395.34-3.58.558 4.755 7.141 6.363 7.624 14.639 4.681 1.662.373 2.99.679 4.261 1.32-2.383 2.557-4.708 4.778-7.389 6.904-1.084-.15-1.813-.207-2.956-.304-1.781-.242-3.146-.445-4.748-.868-8.327-2.244-10.24-9.97-14.29-16.57-1.924 10.361 2.702 18.626 4.477 27.833-.359 4.815-.705 9.184-1.029 13.558.022.005.017-.04-.247.028-.454.373-.643.68-1.054 1.215-1.029 1.73-1.836 3.231-2.811 5.024-1.743 2.72-3.319 5.15-5.181 7.769-3.099 4.097-5.914 8.006-8.969 12.018-.461.372-.681.639-1.25.902-2.722-1.326-5.096-2.646-7.494-4.34-1.662-3.057-3.3-5.738-5.309-9.029l-11.774 5.348c.701.688 1.401 1.376 2.102 2.399 0 .781-.001 1.228-.416 1.673-4.792-.044-8.78.513-9.768 6.189-.741.41-1.287.601-1.829.393.003-1.465.002-2.53.191-3.906 4.029-5.162 3.865-12.748-.35-16.881.487-1.298 1.16-2.385 2.36-4.323 3.208 3.54 5.535 6.612 8.408 9.036 1.168.987 4.52 1.407 5.163.643 2.71-3.222 4.772-6.99 7.235-10.844 6.69-9.292 6.811-12.642.86-18.924-.681-.719-1.3-1.498-1.775-2.554 4.695-3.86 9.218-7.415 13.742-10.97l-.84-1.658c-1.639.255-3.279.51-5.252.637-4.702-2.195-9.111-3.516-13.986-1.112-7.436-1.673-10.89 3.811-16.241 8.07 2.128.576 3.299.893 4.336 1.524-1.417 3.66.47 5.373 3.289 6.896.412.433.681.65.901 1.22-.421 1.716-.795 3.08-1.375 4.457-.207.014-.621.015-.72-.32-2.027-1.105-3.955-1.874-5.905-3-1.021-1.45-2.02-2.542-3.035-3.974-.24-2.177-.465-4.014-.798-6.73-1.031-.177-3.111-.532-5.132-1.18.469-1.096.879-1.902 1.345-2.818-7.072.31-7.072.31-7.967-2.88 3.978-.417 8.123 1.227 10.837-3.145 6.26-5.372 12.312-10.352 20.279-12.41 2.595-.67 4.918-2.392 7.366-3.632l-.555-2.082c-3.527-.225-7.055-.45-10.952-.66-7.734 3.65-15.098 7.285-22.758 10.787-6.583-1.989-8.784 3.37-12.358 6.521 1.992 1.615 3.848 3.119 5.618 4.938-2.63-.017-5.169-.535-7.724-.63-2.387-.09-4.979-3.565-7.57.299-1.472-.112-2.569-.226-4.548-.432l3.635-10.615c-2.688.643-6.29 2.14-6.328-2.938 4.11-2.723 7.87-5.373 11.631-8.022 7.23-2.578 14.383-5.418 21.727-7.614 3.19-.954 6.776-.585 10.208-.819 1.384 1.71-6.089 2.245.215 4.412 3.498.334 6.229.742 8.972.866 1.166.053 2.407-.364 3.527-.795 1.386-.533 2.677-1.846 4.017-1.857 2.746-.021 5.496.601 8.244.959"/><path fill="#49C4FE" d="M162.821 108.966c.221-.268.441-.535 1.286-.894a57 57 0 0 0 5.814-2.979c1.709-.999 3.379-2.067 5.223-2.831a61 61 0 0 0 3.012 3.272c5.445 2.001 11.733.765 13.982-2.471 2.303-.484 4.199-.876 6.54-1.245 3.085.083 5.736.34 8.36.168 7.569-.496 14.929-6.27 17.076-13.382 1.439-4.072 2.717-7.828 4.393-11.647 2.335-.344 4.301-.491 6.199-.932 8.698-2.02 17.826-2.153 26.12-5.94 9.518 14.355 14.504 30.469 18.019 47.103.302 1.426-1.162 3.225-2.119 5.417-1.223 1.69-2.787 2.738-2.928 3.951-.646 5.561-3.11 9.737-8.346 12.539-1.675 1.692-3.102 3.203-4.876 4.823-2.287 1.201-4.227 2.292-6.101 3.346-3.005-3.017-7.551-2.664-11.983.851-.787.427-1.314.71-2.091.787-5.011-7.302-11.912-10.882-20.287-12.491-.417-.389-.695-.556-1.19-.977-4.091-1.365-7.988-2.436-12.166-3.745-1.853-.479-3.425-.719-4.739-.921 0-4.46.233-8.566-.088-12.628-.191-2.422-1.25-4.776-2.226-7.418-3.092-.328-5.878-.397-9.128-.548-6.184.064-11.902.208-18.036.402-2.467.472-4.548 1.302-6.559 1.157-1.114-.081-2.111-1.791-3.161-2.767"/><path fill="#73E3FE" d="M280.034 132.881c.27 5.906.541 11.811.073 17.944-4.012 3.666-7.287 7.104-10.562 10.542l.543 1.559c5.962-2.465 7.211 1.046 7.948 5.207-.066 1.505-.131 3.009-.747 4.417-2.536.266-4.509.747-6.511.966-5.343.584-6.083 1.681-4.692 6.166-2.442 2.954-4.509 5.617-6.755 8.12-1.761 1.96-3.536 3.871-5.634-.036-.548-1.02-3.126-1.837-4.352-1.442-3.722 1.199-7.533 2.602-10.73 4.777-2.106 1.433-3.581 4.169-4.68 6.618-1.656 3.69-2.736 7.638-4.409 11.404-3.768-1.924-5.83-4.143-5.029-8.683.309-1.75-1.664-4.718-3.42-5.82-2.397-1.503-4.42-2.537-4.222-5.796.041-.67-1.128-1.414-1.895-2.396-1.368-1.685-2.581-3.098-3.688-4.824 2.296-2.172 4.288-4.373 6.733-5.799 2.783-1.623 5.971-2.554 9.094-3.438 1.609.718 3.774 1.905 4.491 1.319 3.748-3.06 7.172-6.527 10.609-9.951 1.089-1.086 1.872-2.478 3.07-3.938 4.042-2.812 7.58-5.807 12.792-3.209.991.494 3.201-.971 4.601-1.904 1.855-1.234 3.666-2.659 5.124-4.327 1.324-1.516 2.149-3.467 3.546-5.302 4.084-2.116 7.291-4.42 6.71-9.495-.092-.806 1.291-1.781 1.992-2.679"/><path fill="#1D5E96" d="M151.98 279.853c-6.416.135-12.831.269-19.679-.135-2.212-3.291-4.574-5.844-5.606-8.853-1.043-3.042-2.693-7.066 2.682-8.885 1.125.016 1.875.02 2.624.476.229 3.572.038 6.816.894 9.753.349 1.201 2.969 1.74 4.555 2.579.294-1.413.907-2.845.822-4.236-.294-4.853-.829-9.692-1.22-14.89 2.06-3.987 3.595-7.658.953-12.058.011-1.46.021-2.521.371-3.649 7.539-7.588 10.987-16.542 10.911-26.89 1.092.756 1.887 1.446 2.774 2.216 1.004-1.448 2.061-2.569 2.654-3.896 2.779-6.221 7.054-12.071 5.253-19.776.162-.561.269-.878.631-1.309.686-.458 1.12-.803 1.764-1.258.495-.26.745-.455 1.279-.809 2.26-1.195 4.201-2.276 6.546-3.326 7.243 1.308 8.232 2.381 8.807 9.549-.778 1.661-1.473 3.009-2.528 4.405-1.752 1.401-3.144 2.755-4.92 4.108-7.548 1.368-12.517 10.643-9.716 17.271-1.367.382-2.564.589-4.049.782-2.01 8.573 1.154 16.493 3.125 24.57.049.201.786.235 1.536.414 6.433 3.254.192 6.718.555 9.632-.552-1.974-1.103-3.547-1.653-5.12-.571.23-1.657.569-1.635.676.373 1.788.76 3.596 1.429 5.288.256.647 1.226 1.012 1.867 1.51-.003.005-.002.006-.003.34-.001.778-.001 1.223-.004 2.077-.694 3.597-1.271 6.816-2.104 9.967-.837 3.168-2.805 4.292-6.215 2.455-3.896-2.87-6.998-2.189-9.938 1.415-.692 4.573 2.247 4.701 5.608 4.72.772.001 1.212 0 1.649.22-.004.223-.019.667-.019.667M143 247.324l2.376 4.492c1.163-1.425 3.107-2.738 3.33-4.297.508-3.546.268-7.219.1-10.829-.036-.77-1.057-1.494-2.218-3.02-1.395 4.962-2.491 8.863-3.588 13.654"/><path fill="#F9FCF4" d="M229.874 209.196c1.325-3.839 2.405-7.787 4.061-11.477 1.099-2.449 2.574-5.185 4.68-6.618 3.197-2.175 7.008-3.578 10.73-4.777 1.226-.395 3.804.422 4.352 1.442 2.098 3.907 3.873 1.996 5.634.036 2.246-2.503 4.313-5.166 6.755-8.12-1.391-4.485-.651-5.582 4.692-6.166 2.002-.219 3.975-.7 6.18-.786-2.461 8.385-5.141 16.495-8.364 24.944-4.669 1.66-8.858 2.829-12.861 4.454-.648.263-.472 2.553-.938 4.148-3.827 1.035-3.88 3.839-4.171 6.825-.749 1.029-1.254 1.879-2.054 2.921-1.135 1.767-1.974 3.343-3.142 5.034-.803.603-1.276 1.092-2.002 1.344-2.946-3.013-5.638-5.788-8.49-8.847-1.793-1.641-3.428-2.999-5.062-4.357"/><path fill="#1E5FA5" d="M129.002 261.967c-5 1.832-3.35 5.856-2.307 8.898 1.032 3.009 3.394 5.562 5.231 8.648-3.664.044-7.385-.246-11.591-.97-1.767-4.135-3.052-7.836-4.336-11.974-.298-3.352-.597-6.267-.895-9.182l-2.643-.206-4.458 19.652c-2.537-.728-5.074-1.456-7.746-2.889.263-5.284 3.579-10.105-2.184-14.655 5.965 1.473 4.379-3.314 6.193-5.581 2.064-5.419 3.895-10.566 5.818-15.757.092-.044.111-.275.111-.275s-.189.332-.586.33c-1.826-.716-3.256-1.43-4.617-2.35.068-.206.249-.599.558-.647.513-.093.718-.137 1.064-.197.142-.015.371.156.474.289s.556.162.556.162.286-.387.504-.663c1.223-2.728 2.228-5.18 3.537-7.492.638 1.395.972 2.65 1.311 3.897.005-.008.013-.021-.177.138-.078.704.034 1.25.443 2.054 2.439.437 4.582.614 6.731 1.216.194 2.392.381 4.358.568 6.325l1.51.495c.994-1.419 1.988-2.839 3.226-3.931.398 1.96.478 3.605.72 5.226.968 6.484 1.986 12.96 2.985 19.439"/><path fill="#1B5584" d="M225.147 252.857c-2.786 2.032-5.572 4.065-8.981 6.121-.806.022-.989.021-1.165.023.006.002.003.017-.001-.347-.344-1.467-.683-2.57-1.007-3.667.015.007.022.04-.126-.179-.434-.42-.72-.623-1.182-.929-.395-.274-.562-.485-.689-1.06-.018-.538-.026-.753.316-.982 1.575-2.004 2.802-3.993 4.028-5.983l-3.143-1.622c-.688 2.114-1.379 4.227-2.054 6.346-.044.138.043.319-.387.479-2.678-.271-6.679-.146-6.84-.873-1.275-5.746-6.268-4.795-10.118-6.437-.729-1.074-1.267-1.905-1.422-2.681 4.461.342 8.539.629 12.944.916a30 30 0 0 0 2.009-.063c3.708-.59 3.912-3.151 3.68-5.663-.075-.815-1.325-1.522-1.968-2.658.472-1.629.904-2.872 1.271-4.133 1.734-5.948.611-7.814-5.523-7.34-4.971.384-9.857 1.879-15.023 2.87-.242-.011-.726-.026-.872-.318-.814-1.436-1.482-2.579-2.089-4.1.236-1.122.41-1.867 1.028-2.605 9.98.606 20.337-2.633 28.181 5.936.16.175.636.059.972.479.319 1.73.63 3.059.942 4.388l1.213-.111c.625-1.893 1.25-3.785 2.29-5.671 4.73-.583 4.648 2.381 4.554 5.656-.353 8.33-.595 16.269-.838 24.208"/><path fill="#1B5582" d="M154.99 273.016c3.1 1.652 5.068.528 5.905-2.64.833-3.151 1.41-6.37 2.347-9.967.247-.409.733-.408.755-.201.36.4.697.592 1.455.787 3.465.345 6.511.688 9.618 1.382 3.342 1.788 6.622 3.225 9.958 4.759.057.098.361.089.361.089s-.346-.258-.416-.581c-1.708-1.727-3.347-3.13-4.738-4.784a91 91 0 0 1 10.06-1.735c1.1.384 1.907.64 2.774 1.238 1.248 2.767 2.216 3.426 4.19.683 2.189-3.041 4.063-6.994 8.307-6.678l4.378 7.517c-1.751.895-3.452 1.907-5.262 2.661a605 605 0 0 1-15.731 6.317c-.976.375-2.473-.166-3.18.401-6.758 5.414-15.221 4.792-23.499 6.296-3.661-2.38-6.31-2.188-8.244 1.282-.456.043-.913.086-1.708.07-.34-.059-.325-.503-.24-1.055 1.027-2.314 1.968-4.078 2.91-5.841"/><path fill="#269AFD" d="M260.826 69.733c-8.294 4.14-17.422 4.272-26.12 6.292-1.898.44-3.864.588-6.241.566-.76-1.677-1.078-3.05-1.144-4.67 2.063-3.484 3.872-6.72 5.685-9.94.004.018-.029.01.332.054 2.478-2.649 4.595-5.342 7.102-8.035 2.485-.683 4.58-1.366 6.675-2.049 4.57 5.81 9.141 11.62 13.711 17.782"/><path fill="#AFF992" d="M81.934 267.069c-5.693-3.255-11.386-6.511-17.248-10.347 1.619-4.638 3.407-8.695 5.36-13.047 1.51-1.761 2.852-3.227 4.603-4.685 2.35.011 4.293.013 6.12.365a409 409 0 0 0-2.12 11.13c1.079 5.818 2.182 11.201 3.285 16.584"/><path fill="#2C9EF9" d="M247.064 51.603c-2.044 1.031-4.139 1.714-6.652 1.988-.99-8.45-2.074-10.172-9.855-12.342-3.648-1.017-7.619-.874-11.443-1.257-.352-4.375-.705-8.75-1.072-13.566 11.134 6.276 20.729 14.777 29.022 25.177"/><path fill="#80D2D9" d="M251.068 227.096c-2.119 2.903-4.239 5.806-7.114 8.782-8.704.045-8.704.045-10.975 7.174-.537-.035-.751-.048-.987-.472-1.362-4.819-2.704-9.23-4.039-13.866.008-.225.105-.666.51-.766 7.805-.35 15.205-.601 22.605-.852"/><path fill="#1D4DB2" d="M104.033 253.98c-1.581 1.995.005 6.782-5.96 5.309 5.763 4.55 2.447 9.371 1.982 14.347-.955.279-1.842.159-2.902-.594-.168-1.1-.163-1.568.19-2.141 3.38-3.121.632-5.644-.514-8.133-2.977-6.464-1.267-15.659 4.217-20.524a1071 1071 0 0 1 2.987 11.736"/><path fill="#76ECFE" d="M41.046 237.391c1.496-4.139 3.813-7.129 8.837-6.934 4.023 1.417 7.701 2.225 11.189 3.539 1.163.438 1.836 2.173 2.605 3.557-.897.82-1.666 1.398-2.644 1.663-2.22-2.134-3.88-3.059-5.549.31-1.341 2.71-3.466 3.1-6.168 1.037-.83-.634-2.872.321-4.36.549-1.263-1.14-2.527-2.281-3.91-3.721"/><path fill="#50CAFB" d="M74.24 238.982c-1.342 1.466-2.685 2.932-4.51 4.779-3.576 3.678-6.669 6.976-9.761 10.273-1.257-.78-2.514-1.561-3.747-2.966.975-2.813 1.925-5.002 3.223-7.197 5.481-4.535 10.613-9.065 16.107-13.666 1.086-.015 1.81.04 2.5.44-1.292 3.008-2.552 5.673-3.811 8.337Z"/><path fill="#EDF9F5" d="M280.02 132.458c-.687 1.321-2.07 2.296-1.978 3.102.581 5.075-2.626 7.379-6.59 9.163.711-2.599.856-4.32-2.585-4.269-1.048.015-2.112-.997-3.168-1.539 4.989-2.622 7.453-6.798 8.099-12.359.141-1.213 1.705-2.261 2.905-3.56 4.521 1.841 3.075 5.713 3.317 9.462"/><path fill="#1A4E76" d="M210.269 262.813c-1.695-2.28-3.065-4.633-4.703-7.445-4.244-.316-6.118 3.637-8.307 6.678-1.974 2.743-2.942 2.084-3.963-.933 3.879-8.037 10.046-10.49 18.71-7.971.117.252.284.463.84.947.613.522.891.73 1.169.938 0 0-.007-.033-.02.323.328 1.46.669 2.564 1.009 3.668 0 0 .003-.015.004.248l.002.793c-1.472.894-2.944 1.788-4.741 2.754"/><path fill="#58EEC0" d="M188.121 24.008c-1.903-1.144-3.806-2.287-5.969-4.047-.217-1.387-.175-2.16-.132-2.932 4.062-1.012 8.123-2.024 12.613-3.085 1.64.398 2.851.846 4.182 1.925-.607 2.106-1.333 3.58-2.397 5.125a515 515 0 0 0-8.297 3.014"/><path fill="#E4F4F5" d="M251.314 227.019c-7.646.328-15.046.579-23.087.9-.641.071-1.115.098-1.068-.28.289-2.099.531-3.82 1.132-5.577 2.513-1.634 4.666-3.232 7.11-4.699 2.699 2.839 5.108 5.548 7.517 8.257l.904-.671-.144-2.312c.474-.489.947-.978 1.832-1.198 2.463 1.729 4.513 3.189 6.563 4.648-.171.285-.342.571-.759.932"/><path fill="#269089" d="M82.119 267.369c-1.288-5.683-2.391-11.066-3.034-16.894 1.894-.421 3.327-.398 4.8.025 1.713 5.55 3.387 10.7 5.037 16.218-.045 1.34-.067 2.314-.089 3.288-2.176-.779-4.353-1.558-6.714-2.637"/><path fill="#67EAFE" d="M59.097 243.877c-.95 2.189-1.9 4.378-3 6.888-3.73-2.796-7.31-5.912-11.015-9.341 1.362-.54 3.405-1.495 4.234-.861 2.702 2.063 4.827 1.673 6.168-1.037 1.668-3.369 3.33-2.444 5.452-.032-.538 1.855-1.189 3.119-1.84 4.383Z"/><path fill="#8BF7FE" d="M248.865 215.831c.505-.851 1.01-1.701 2.084-2.857 3.78-3.822 7.116-5.542 10.882-1.015-1.699 2.937-3.399 5.873-5.805 8.939-4.276.158-6.258-1.785-7.161-5.067"/><path fill="#1D57AC" d="M108.393 276.897c1.096-6.615 2.582-13.166 4.068-19.716l2.643.206c.298 2.915.597 5.83.63 9.419-1.443 3.879-2.62 7.083-3.798 10.287a101 101 0 0 1-3.543-.196"/><path fill="#91F4FE" d="M278.404 167.925c-1.105-3.953-2.354-7.464-8.316-4.999l-.543-1.559c3.275-3.438 6.55-6.876 10.189-10.316-.078 5.553-.52 11.109-1.33 16.874"/><path fill="#D1FBFB" d="M255.056 206.034c.205-1.353.029-3.643.677-3.906 4.003-1.625 8.192-2.794 12.713-4.108a34.6 34.6 0 0 1-4.318 8.73c-2.077-1.201-3.532-2.392-4.959-3.56z"/><path fill="#B3FAFC" d="M254.795 206.276a187 187 0 0 1 4.374-3.086c1.427 1.168 2.882 2.359 4.634 3.711-.356 1.581-1.009 3.001-1.818 4.739-3.92-4.208-7.256-2.488-10.793 1.155-.277-2.68-.224-5.484 3.603-6.519"/><path fill="#2072AE" d="M112.157 277.408c.957-3.519 2.134-6.723 3.577-10.165 1.549 3.464 2.834 7.165 4.183 11.233-2.47-.006-5.005-.38-7.76-1.068"/><path fill="#A6F9FE" d="M248.57 216.022c1.198 3.091 3.18 5.034 7.135 5.019-.747 1.609-1.879 3.204-3.322 4.922-2.36-1.335-4.41-2.795-6.543-4.638.756-1.96 1.595-3.536 2.73-5.303"/><path fill="#EBF8FA" d="M233.301 243.073c1.949-7.15 1.949-7.15 10.335-7.069-2.951 3.356-6.341 6.66-10.093 9.59-.322-1.089-.282-1.805-.242-2.521"/><path fill="#206EBD" d="M196.757 20.924c.725-1.474 1.451-2.95 2.236-4.777 3.275 1.138 6.491 2.628 9.875 4.417.381 1.052.595 1.805.898 2.875-3.95-.856-7.521-1.63-11.78-2.421-.867-.044-1.048-.069-1.229-.094"/><path fill="#BCD7E0" d="M227.112 228.017s.474-.027.71.002.139.47-.025 1.085c-.291 5.041-.418 9.468-.598 14.337a511 511 0 0 0-.126 8.433c-.469.273-.937.546-1.666.901-.017-7.857.225-15.796.832-24.189.534-.492.703-.531.873-.569"/><path fill="#1D58A3" d="M89.046 270.315c-.19-1.283-.169-2.257-.102-3.968.267-3.335 1.53-3.462 3.04-1.769 1.803 2.024 3.352 4.275 5.01 6.428-.004.468-.01.936-.026 1.754-2.578-.478-5.144-1.306-7.922-2.445"/><path fill="#266CAF" d="M60.1 254.322c2.961-3.585 6.054-6.883 9.463-10.266-1.47 3.971-3.258 8.028-5.192 12.438-1.478-.392-2.81-1.138-4.271-2.172"/><path fill="#5DD4DD" d="M227.395 251.831c-.298-2.62-.273-5.284.197-8.389 1.771-.445 3.096-.449 4.421-.452l.966.062c.282.737.242 1.453.222 2.527-1.814 2.308-3.649 4.259-5.806 6.252"/><path fill="#1F67A7" d="M215.263 259.974c-.253-.092-.254-.269-.262-.711.176-.264.359-.263.817-.252.082.299-.11.588-.555.963"/><path fill="#2D9FFB" d="m98.765 137.075-1.3-3.3-7.063-1.695c-2.242.815-4.954 1.802-8.038 2.827.583-1.799 1.538-3.635 3.148-6.729-4.735-1.028-8.915-1.935-13.392-3.365-.576-.951-.855-1.38-1.064-2.142 1.46-1.552 2.85-2.771 4.94-4.604-1.887.172-2.828.33-3.768.325-1.23-.006-2.485-.033-3.662-.324-.203-.05-.274-2.07-.057-2.143 1.173-.395 2.45-.509 3.7-.636 4.998-.507 10-.983 15.298-1.426 1.004.421 1.71.797 2.454 1.582-.507 5.722 2.797 5.108 6.786 3.786-2.569 3.462-2.05 5.649.792 7.725 1.19.87 1.695 2.678 2.525 4.457-.424 2.152-.862 3.907-1.3 5.662Zm-6.493-8.896c.129.409.233.829.42 1.21.02.042.513-.148.786-.23-.288-.432-.576-.864-1.206-.98"/><path fill="#2372C7" d="M87.208 113.818c-5 .488-10 .964-14.998 1.471-1.25.127-2.528.241-3.7.636-.218.073-.147 2.093.056 2.143 1.177.291 2.432.318 3.662.324.94.005 1.88-.153 3.768-.325-2.09 1.833-3.48 3.052-4.93 4.599-.06.327-.044.31-.297.32-.422.022-.59.034-.76.046-3.836-3.041-7.906-5.837-11.448-9.189-4.01-3.795-3.535-10.16.979-15.26.792 3.219 1.23 6.112 1.668 9.006l1.406.122c.489-.842.978-1.684 1.769-2.547 1.048.251 1.794.524 2.775.93.448.538.88.969.836 1.346-.155 1.343-1.054 2.996-.546 3.899.42.749 2.46.931 3.724.799 3.577-.374 7.123-1.039 10.996-1.424 1.89 1.145 3.465 2.125 5.04 3.104"/><path fill="#275BC8" d="M87.032 38.077c.386 5.004 3.99 3.508 6.677 2.865l-3.635 10.615c1.98.206 3.076.32 4.888.487 1.82 1.022 2.924 1.992 3.67 2.879-2.8.218-5.24.52-8.045.88-2.787 1.404-5.208 2.748-7.555 3.723 1.72-6.437 1.472-6.84-4.409-7.855a6.1 6.1 0 0 1-2.454-.981c-.167-1.156-.247-1.933-.327-2.71.883-1.184 1.766-2.37 3.258-3.819 3.05-2.204 5.49-4.144 7.932-6.084"/><path fill="#68F5BA" d="m64.08 105.186-1.466 2.525-1.406-.122c-.438-2.894-.876-5.787-1.334-9.094.03-.577.079-.74.387-1.377.774-1.605 1.29-2.734 2.15-4.072 1.113-4.133 1.882-8.057 3.046-12.001 1.45-.07 2.506-.118 3.549.21.327 2.134.666 3.893 1.002 6.052.661 2.524 1.326 4.647 1.989 7.084 0 .73.003 1.148-.183 1.866-3.382 2.583-8.303 3.355-7.733 8.929Z"/><path fill="#2468C6" d="M87.381 38.004c-2.79 2.013-5.231 3.953-8.041 5.951 1.694-3.166 3.658-6.46 5.844-9.598 3.26-4.68 8.388-4.487 13.557-4.587-3.49 2.861-7.25 5.51-11.36 8.234"/><path fill="#2D84CD" d="M65.062 81.065c-.769 3.924-1.538 7.849-2.686 11.537-.733-3.07-1.087-5.904-1.442-8.738l-1.43-.001-.591 5.035-6.682.559c1.709-2.866 2.596-4.354 3.97-6.318 3.598-2.443 6.712-4.41 9.687-6.024-.368 1.553-.597 2.752-.826 3.95"/><path fill="#2470C4" d="M65.528 62.4c-.513-4.546 3.551-4.395 6.688-6.161 2.33-.306 4-.323 5.974-.173 1.12 1.69 1.936 3.211 2.473 4.84-.457.199-.635.29-1.222.316-3.735.924-7.062 1.911-10.436 2.55-.366-1.135-.685-1.92-1.331-2.695a9 9 0 0 0-2.009 1.124 2 2 0 0 1-.137.2Z"/><path fill="#36AFF7" d="M156.08 24.892c-2.906-.116-5.656-.738-8.402-.716-1.34.01-2.631 1.323-4.017 1.856-1.12.431-2.361.848-3.527.795-2.743-.124-5.474-.532-8.648-.87 7.561-6.715 16.518-3.647 25.28-2.573-.177.421-.353.843-.686 1.508"/><path fill="#44C1F7" d="M181.77 17.01c.207.791.164 1.564.115 2.723-3.027 4.615-6.046 8.843-9.45 12.688-.32-2.416-.256-4.45.019-6.715 2.384-2.733 4.556-5.234 6.95-7.87a66 66 0 0 1 1.614-.836c.167-.003.334-.005.752.01"/><path fill="#69F0B3" d="M66.027 76.76a3858 3858 0 0 1-9.656 6.089c1.02-2.568 2.355-5.32 4.064-8.46 1.735-1.06 3.097-1.733 4.884-2.385 1.267.124 2.108.228 2.906.655-.762 1.582-1.48 2.842-2.198 4.101"/><path fill="#2468C6" d="M172.243 25.938a251 251 0 0 0-.145 6.53c-3.838-1.252-7.722-2.935-11.814-4.885 1.38-.596 2.968-.924 5.163-1.377l.981-5.511c.493 1.689.795 2.727 1.664 4.032.994.274 1.423.28 2.087.502.844.379 1.454.544 2.064.709"/><path fill="#61E1CD" d="M64.894 71.984c-1.362.672-2.724 1.345-4.416 2.041-1.106-2.207-1.829-4.102 1.11-5.781 1.676-.959 2.502-3.404 3.826-5.512.114-.331.214-.459.588-.544.916-.43 1.457-.776 1.999-1.122.319.786.638 1.57.984 2.671.028.316.094.273-.17.355-.42.596-.575 1.109-1.1 1.733-1.186 2.128-2.004 4.143-2.821 6.159"/><path fill="#67EDD7" d="M68.256 49.935c.689-5.35 1.363-10.708 7.439-13.973-1.828 5.26-3.456 9.946-5.547 14.627a9 9 0 0 1-1.892-.654"/><path fill="#52DBDC" d="M68.191 50.303c.541-.152 1.018.064 1.655.495.87.472 1.954 1.152 2.223.913 1.177-1.045 2.117-2.356 3.458-3.65.395.696.475 1.473.636 2.95.63 2.096 1.176 3.492 1.724 4.887-1.67.017-3.34.035-5.425.092-1.721-1.746-3.028-3.532-4.27-5.687Z"/><path fill="#55DED9" d="M169.944 25.014a18 18 0 0 1-1.604-.083c-.348-1.69-.504-3.325-.39-4.942.409-5.825 5.651-8.067 10.947-4.342.119.337.097.36-.324.37-7.595.003-8.621 1.126-8.629 8.997"/><path fill="#3FBAF8" d="M58.954 89.31c.156-2.09.353-3.769.55-5.447l1.43.001c.355 2.834.71 5.668 1.099 8.946-.482 1.573-.998 2.703-1.738 4.055-.582-2.233-.941-4.688-1.341-7.555"/><path fill="#55DED9" d="M180.826 16.783c-.272.45-.735.684-1.456.726-.296-.629-.336-1.066-.376-1.502l.035-.036c.544.19 1.074.392 1.797.812"/><path fill="#2372C7" d="M70.996 122.998c.27.435.549.864.86 1.548-.215.167-.42.021-.688-.609-.118-.603-.132-.782-.146-.961 0 0-.016.017-.026.022"/><path fill="#2D9FFB" d="M70.769 122.986c.267.169.28.348.284.796-.302.113-.556-.092-.907-.547.032-.215.2-.227.623-.249"/><path fill="#296CB7" d="M131.143 144.082c-1.663-9.093-4.89-12.251-11.767-11.537 2.003-2.729 4.299-5.147 6.843-7.325 2.11 1.805 3.974 3.369 4.816 4.076 2.063-4.24 4.512-9.27 7.358-14.268 1.134 1.599 1.968 3.128 2.58 4.741.773 2.037 1.365 4.143 2.128 6.454.353.668.612 1.102.606 1.743-.084 1.154.097 2.101.279 3.379.004.771.007 1.212-.367 1.671-4.007.561-4.831 3.297-4.216 6.112.145.663 3.648.591 5.608.873.002.016.013.045-.052.398-.524 3.103-3.912 6.695 2.026 7.939.01.775.016 1.217.019 1.991-.004.773-.005 1.214-.423 1.66-2.821.338-5.226.673-7.575.669.366-1.435.674-2.53.859-3.826-.323-.449-.57-.636-.894-.752-.031.011-.095.004-.135-.304-2.591-1.436-5.142-2.565-7.693-3.694"/><path fill="#3EB6D2" d="M104.038 153.998s.395-.029.963-.025c2.039-.996 3.51-1.996 4.981-2.997 0 0 .017.023.39-.037 4.123-1.015 7.875-1.97 11.461-2.63-1.73 1.441-3.371 2.497-4.84 3.754-3.379 2.893-6.674 5.885-10.284 9.034-9.03 5.898-17.779 11.599-26.667 16.98a139 139 0 0 1-1.05-2.913c.884-.856 1.873-1.63 2.634-2.585 1.948-2.448 3.795-4.975 6.233-7.652.813-.388 1.01-.645 1.141-.954 0 0-.004.036.355.048 6.343 2.027 13.48-3.253 14.683-10.023m-17.281 14.066-.006.316s.275-.362.675-.621c.251-.206.445-.456.787-.85v-.289s-.223.372-.643.605c-.264.194-.462.442-.813.839"/><path fill="#E7F5F3" d="M63.806 237.311c-.898-1.142-1.571-2.877-2.734-3.315-3.488-1.314-7.166-2.122-10.791-3.485 1.346-1.337 2.714-2.316 4.67-3.362 2.807-1.55 5.027-3.033 7.587-4.744l-3.794-2.516c4.12-2.724 6.779-1.24 8.857 3.501.46 1.843.227 3.279.711 4.407 2.14 4.98-.148 7.698-4.506 9.514"/><path fill="#3393B1" d="M78.395 202.146c-.396-2.486-.793-4.972-1.066-7.923.65-1.06 1.174-1.655 1.994-2.382 1.458-.731 2.62-1.329 4.077-1.721 1.681 4.073 3.068 7.94 4.647 12.344 2.465-2.312 4.69-4.399 6.938-6.105-.737 1.863-1.378 3.425-2.289 4.808-1.118 1.699-2.462 3.248-3.766 5.16-.689 1.077-1.32 1.856-2.277 2.64-.762.011-1.197.018-1.995.012-1.772-.721-3.182-1.43-4.585-2.479-.555-1.677-1.116-3.015-1.677-4.354Z"/><path fill="#2B76EC" d="M63.677 237.553c4.486-2.058 6.776-4.776 4.635-9.756-.484-1.128-.252-2.564-.359-4.28.865-1.792 1.74-3.161 3.158-4.888 2.907-1.841 5.27-3.326 7.558-4.449-.646 2.4-1.333 4.414-1.764 6.481-.663 3.186-1.152 6.408-1.714 9.615-5.133 4.53-10.265 9.06-15.746 13.595.302-1.258.953-2.522 1.7-4.064.866-.856 1.635-1.434 2.532-2.254"/><path fill="#2D75B4" d="M130.851 143.982c2.843 1.229 5.394 2.358 7.583 3.784-6.004.419-6.497.995-5.676 6.223.204 1.304.181 2.644.257 4.308-.003.794-.002 1.248-.009 1.706-.008.005-.017.021-.339.018-.751-.006-1.18-.008-1.568-.367.214-1.636.387-2.916.673-5.041-4.69 2.052-6.613 4.29-4.827 8.745-.989 1.089-1.93 1.852-2.93 2.273-3.887-3.406-2.874-6.56.112-9.852 4.454-1.815 6.184-4.466 3.796-9.131.375-1.496.73-2.62 1.085-3.745a25 25 0 0 0 1.843 1.079"/><path fill="#1F4F9F" d="M125.972 124.979c-2.297 2.419-4.593 4.837-6.952 7.586-1.474 1.066-2.886 1.802-4.665 2.233-1.139-2.212-1.91-4.118-2.641-6.016.04.008.058.086.308-.02.463-.391.677-.676 1.062-1.255 1.263-2.03 2.352-3.766 3.807-5.5 4.314 1.483 8.044 1.808 11.215-1.759.318-.358 1.273-.15 1.78.077-1.407 1.739-2.661 3.196-3.914 4.654"/><path fill="#245FB0" d="M111.674 128.775c.771 1.905 1.542 3.811 2.344 6.116-3.472 2.018-6.876 3.955-10.531 5.075-1.229.377-3.095-1.326-4.696-2.485.411-2.161.849-3.916 1.566-5.865 5.239 4.257 7.836-1.136 11.317-2.841"/><path fill="#38B2FE" d="M53.07 169.966c-2.217.897-4.14 1.547-6.063 2.197l-.884-1.777 9.761-5.986c7.6 3.179 12.594-6.149 21.408-6.529-6.968 8.064-16.252 8.312-24.221 12.095Z"/><path fill="#2B9EC7" d="M79.027 191.974c-.525.594-1.049 1.189-1.844 1.921-2.024-1.075-3.806-2.248-5.523-3.509-6.073-4.455-6.097-6.228.397-11.251 1.304-.424 2-.664 1.684-.555z"/><path fill="#3FB2CB" d="M79.323 191.841c-2.02-4.237-3.745-8.607-5.582-13.261.317-.109-.38.131-1.369.418a62 62 0 0 1 6.25-3.82c.673.851.977 1.715 1.275 3.238-3.603 5.655 1.935 7.945 3.207 11.498a374 374 0 0 1-3.781 1.927"/><path fill="#2E9EC9" d="M103.717 154.145c-.882 6.623-8.02 11.903-14.376 9.865 2.513-2.295 5.313-4.687 8.317-6.788 1.743-1.219 3.815-1.969 6.059-3.077"/><path fill="#35A0CD" d="M121.999 148.014c-3.752.955-7.504 1.91-11.637 2.912 1.212-1.19 2.664-2.704 4.43-3.608 3.751-1.921 7.665-3.524 11.814-4.981-.667 1.737-1.637 3.197-2.862 4.774-.752.379-1.249.641-1.745.903"/><path fill="#8AE4FC" d="M58.46 220.047c1.206.453 2.127 1.064 4.078 2.358-2.56 1.711-4.78 3.194-7.316 4.577a53 53 0 0 1-2.791-1.517c1.83-1.676 3.788-3.469 6.03-5.418Z"/><path fill="#E0E1E6" d="M78.743 213.818a417 417 0 0 1-7.426 4.593c1.111-3.263 2.561-6.663 4.45-9.924 1.367 1.267 2.293 2.395 3.152 3.82a23 23 0 0 0-.176 1.511"/><path fill="#3160B5" d="M78.986 212.01c-.926-1.128-1.852-2.256-2.925-3.695.51-2.088 1.167-3.865 2.08-5.906.816 1.076 1.377 2.414 1.911 4.51-.046 1.863-.066 2.967-.283 4.206-.434.353-.629.603-.783.885"/><path fill="#3EB6D2" d="M123.999 146.994c.97-1.46 1.94-2.92 2.961-4.722.672-.182 1.293-.023 1.981.384-.288 1.372-.643 2.496-1.406 3.988-1.451.361-2.494.356-3.536.35"/><path fill="#35A0CD" d="M109.618 150.973q-1.66 1.506-4.418 2.999 1.66-1.504 4.418-2.999"/><path fill="#2E9EC9" d="M88.788 164.098q.122.275-.59.775-.12-.275.59-.775"/><path fill="#1F61C1" d="M218.767 39.857c4.171.518 8.142.375 11.79 1.392 7.781 2.17 8.865 3.892 9.465 12.342-2.089 3.102-4.206 5.795-6.663 8.088 4.042-6.164 6.164-11.932-.418-17.875-.361-.023-.615.115-.855.668.277 4.436.562 8.456.795 12.48.097 1.667.085 3.341.122 5.012-1.81 3.237-3.619 6.473-6.028 9.906-2.761 1.887-4.922 3.578-7.29 5.342-.488.21-.672.43-.732.716.026-.016-.034-.026-.355-.023-.89.283-1.623.422-1.999.865-1.874 2.204-3.26 5.588-5.582 6.418-2.128.76-5.23-1.209-8.011-2.006-.11.482-.652 2.067-.806 3.689-.633 6.677 5.078 11.537 10.974 8.886 3.615-1.627 6.627-4.593 10.126-6.92.216.037.652.081.652.081-1.985 6.797-9.345 12.572-16.914 13.068-2.624.172-5.275-.085-8.624-.401-4.275-1.72-7.841-3.186-11.409-4.956-.223-1.063-.445-1.82-.764-2.956.366-3.82.832-7.261 1.462-10.962 1.867-2.068 3.57-3.878 5.281-5.235.007 4.08.007 7.709.007 11.305 3.426-4.679 6.246-8.726 9.287-12.599 1.417-1.805 3.272-3.265 4.913-4.897 2.254-2.242 1.87-4.014-1.02-5.683-1.789-2.622-3.537-4.886-5.285-7.15 2.326-2.222 4.651-4.443 7.346-7.205 4.193-7.04 3.707-10.927-1.255-13.528.53-2.889 2.181-2.093 3.954-1.27 2.47 1.147 4.99 2.187 7.836 3.408"/><path fill="#9A9BEE" d="M149.905 64.146c.647.751 1.266 1.53 1.947 2.25 5.951 6.281 5.83 9.631-1.204 19.073-4.5 1.894-8.242 4.82-12.654 2.222 2.422-5.917-1.927-9.995-3.136-14.8.373-1.363.747-2.727 1.428-4.632 1.469-1.986 2.628-3.429 4.13-5.07 2.411-.506 4.479-.815 6.706-.864 1.033.78 1.908 1.301 2.783 1.821m1.954 6.298a1.27 1.27 0 0 0-.766-.504s.026-.038-.239-.662c-1.915-1.598-3.646-4.168-5.785-4.57-3.386-.636-6.666 1.518-6.328 5.235.321 3.535 2.258 6.93 3.59 10.346.063.162 1.529.129 1.687-.165.424-.79.953-2.327.633-2.59-3.592-2.968-.68-6.851-2.19-10.985 2.392 1.05 3.98 1.747 5.58 3.16l1.695 4.685.924-.192c.112-.752.224-1.505.811-2.077.156.067.311.135.469.96l.225 4.713 1.55-.253c-.527-2.235-1.054-4.47-1.856-7.101"/><path fill="#3EE0BF" d="M183.026 68.001c-1.787-8.761-6.413-17.026-4.489-27.387 4.05 6.6 5.963 14.326 14.273 17a105 105 0 0 1-6.08 14.157 253 253 0 0 1-3.704-3.77"/><path fill="#2166B7" d="M137.778 88.012c4.628 2.276 8.37-.649 12.706-2.256-1.955 3.418-4.017 7.185-6.727 10.407-.643.764-3.995.344-5.163-.643-2.873-2.424-5.2-5.495-8.408-9.035-1.2 1.937-1.873 3.024-2.364 4.761-.404 4.096 1.825 8.289-2.462 10.387-.048-4.248-1.857-7.994.083-12.098.986-2.088.277-4.976.574-7.681 1.808-1.732 3.376-3.285 4.92-4.515-.19 5.4 2.886 8.328 6.841 10.673"/><path fill="#1E62AD" d="M162.473 108.961c1.398.981 2.395 2.691 3.509 2.772 2.011.145 4.092-.685 6.567-.79.431.559.441.801.181 1.284-2.4.747-4.532 1.253-7.037 1.74-3.482 2.673-6.589 5.366-9.702 8.041-.006-.018.032-.024-.232.138-.432.735-.599 1.31-.768 1.865-.001-.021.039-.018-.227-.06-.445-.02-.624.002-1.091-.091-1.757.637-3.226 1.39-4.688 1.746 1.005-4.461 2.004-8.526 3.06-12.95 1.025-2.793 1.992-5.227 2.959-7.66 2.373 1.319 4.747 2.639 7.469 3.965"/><path fill="#1D58B6" d="M98.99 55.006c-1.104-.97-2.208-1.94-3.653-2.964 1.876-3.917 4.468-.443 6.855-.353 2.555.096 5.094.614 8.058.629.862-.317 1.306-.315 1.75-.313 1.334 3.187 1.334 3.187 8.406 2.878-.466.916-.876 1.721-1.499 3.162-1.025 4.79-4.388 3.81-7.544 4.067-2.063-.005-3.716-.006-5.501-.214-.323-.478-.552-.712-.945-1.19-.708-.38-1.29-.48-2.015-.863-.812-.776-1.481-1.267-2.344-1.981a56 56 0 0 1-1.567-2.858Z"/><path fill="#1E45B7" d="m139.784 30.059 10.582.675.555 2.082c-2.448 1.24-4.771 2.962-7.366 3.632-7.967 2.058-14.019 7.038-20.558 12.24-1.068-.928-1.565-1.852-1.872-3.046 6.347-5.376 12.503-10.48 18.659-15.583"/><path fill="#239EC1" d="M146.963 62.064c-2.068.31-4.136.62-6.568.675-.394-1.44-.424-2.626-.381-4.15 1.371-2.767 2.67-5.198 3.968-7.629 4.634-2.626 9.043-1.305 13.725 1.27-.828 2.13-1.687 4.112-3.18 5.288-2.292 1.806-5.021 3.059-7.564 4.546"/><path fill="#2058C7" d="M120.934 45.913c.498.924.995 1.847 1.771 2.94-2.143 4.377-6.288 2.733-10.266 3.15-.883 0-1.327-.002-2.105 0-2.188-1.502-4.044-3.006-6.036-4.62 3.574-3.152 5.775-8.51 12.24-6.185-1.41 4.86 1.38 4.9 4.396 4.715"/><path fill="#1E67AD" d="M154.979 104.621c-.942 2.808-1.909 5.242-3.227 7.862-2.147-.698-3.943-1.582-5.741-2.882.18-2.772.362-5.127.592-8.088l-6.606 1.491-2.101-2.064 11.774-5.348c2.009 3.291 3.647 5.972 5.309 9.029"/><path fill="#64F4BC" d="M186.972 71.965c2.019-4.566 4.037-9.132 6.074-14.13 1.383-.228 2.748-.025 4.695.498 1.807 2.587 3.035 4.853 3.95 7.31-3.765 2.628-7.219 5.065-10.949 7.599-1.097.618-1.919 1.138-2.972 1.617-.232-.04-.694.056-.722.08-.029.026.032-.033.078-.4-.021-1.101-.088-1.838-.154-2.574"/><path fill="#2159AC" d="M130.039 120.043c-.66.055-1.615-.153-1.933.205-3.171 3.567-6.901 3.242-11.365 1.419.888-2.115 2.291-3.888 4.01-5.734 2.621-1.361 4.926-2.651 7.23-3.94.546-.191 1.092-.382 2.215-.772 2.326.127 4.075.453 5.657 1.07-1.715 2.439-3.264 4.588-4.98 6.631-.392.299-.617.704-.851 1.103-.008-.005.017.018.017.018"/><path fill="#2067B7" d="M111.773 62.117c2.746-.262 6.109.719 7.074-3.78 2.235.012 4.315.367 5.346.544.333 2.716.558 4.553.564 6.98-1.409 2.065-2.6 3.54-4.201 4.995-4.936.659-7.74-.912-7.911-6.13-.24-1.075-.556-1.842-.872-2.609"/><path fill="#1FA3B3" d="M121.125 45.642c-3.207.456-5.997.416-4.291-4.311 7.482-3.972 14.846-7.608 22.58-11.258-5.786 5.09-11.942 10.194-18.289 15.569"/><path fill="#206FB6" d="M136.019 112.001a230 230 0 0 0-5.627-1c.41-5.476 4.398-6.033 9.252-5.618 2.126 7.085 3.775 13.796 5.081 20.536-.802.043-1.26.056-1.718.069-.669-2.076-1.261-4.182-2.034-6.219-.612-1.613-1.446-3.142-2.579-5.145-.399-1.515-.402-2.594-.473-3.95-.393-.525-.717-.773-1.041-1.021q-.439 1.185-.881 2.357c-.001-.008.02-.009.02-.009"/><path fill="#269AF8" d="M206.651 37.848c5.288 2.472 5.774 6.358 1.638 13.063-1.64-.1-2.968-.406-4.971-.852-1.579-.754-2.483-1.367-3.226-2.273 1.178-1.527 2.196-2.761 3.582-4.444l-3.865-.447c2.172-1.64 4.344-3.279 6.842-5.047"/><path fill="#2169BF" d="M186.339 94.05c.221.758.443 1.517.318 2.5-1.926-.331-3.507-.887-5.443-1.568-.151 1.781-.245 2.891-.621 3.919-1.09 2.077-1.898 4.236-2.707 6.395-.862-.92-1.723-1.84-2.851-3.38a258 258 0 0 1-2.058-6.064c1.577-2.43 3.153-4.86 5.216-7.525 1.282.434 2.079 1.104 2.878 2.14 1.758 1.438 3.513 2.51 5.268 3.583"/><path fill="#1E67B3" d="M143.741 50.738c-1.057 2.653-2.356 5.084-4.044 7.875-.814.383-1.237.406-1.972.357-2.629-2.149-4.411-1.617-5.755 1.047l-4.47-1.209c5.351-4.259 8.805-9.743 16.241-8.07"/><path fill="#227FBB" d="M181.069 90.102c-.797-.67-1.594-1.341-2.71-2.067.489-1.556 1.296-3.057 2.568-4.893.668-.616.871-.896 1.075-1.176 0 0 .005.044.286-.085 1.785-2.411 3.289-4.693 4.792-6.975 0 0-.061.058-.039.259.166.43.31.66.454.89l.507-1.155c.821-.52 1.643-1.04 2.815-1.365.954 1.293 1.556 2.391 2.159 3.489-1.703 1.81-3.406 3.62-5.633 5.79-2.441 2.67-4.358 4.979-6.274 7.288"/><path fill="#1D5EAC" d="M145.069 125.89a5288 5288 0 0 1-5.011-20.505c-.061-.818-.06-1.265-.06-2.046 2.118-.813 4.236-1.291 6.605-1.826-.23 2.961-.412 5.316-.666 8.485-.032 5.866.006 10.919-.184 15.955-.228-.017-.684-.063-.684-.063"/><path fill="#467FE0" d="M137.994 87.69c-4.171-2.023-7.247-4.951-6.894-10.627 1.102-1.78 2.016-2.962 2.93-4.143 0 0 .414 0 .621-.015 1.416 4.791 5.765 8.869 3.343 14.786Z"/><path fill="#2B6DAE" d="M127.985 111.594c-2.308 1.688-4.613 2.978-7.388 3.987-3.197-5.884 1.116-8.564 4.439-11.436 1.091 1.475 2.021 2.665 2.95 3.854.001 1.065.002 2.13-.001 3.595"/><path fill="#2780D6" d="M120.966 70.877c1.191-1.475 2.382-2.95 3.806-4.676 1.234.842 2.233 1.934 3.094 3.732-1.129 3.178-2.119 5.651-3.342 7.948-.949-.427-1.667-.679-2.257-1.24-.349-2.129-.825-3.947-1.301-5.764"/><path fill="#2275BA" d="M128.176 107.688c-1.119-.878-2.049-2.068-3.076-3.858.011-1.013.119-1.426.228-1.839 4.319-2.456 2.09-6.65 2.68-10.535 4.033 3.484 4.197 11.07.168 16.232"/><path fill="#2779CE" d="M124.757 78.057c.99-2.473 1.98-4.946 3.131-7.767 2.088.42 4.016 1.19 6.043 2.294-.815 1.517-1.729 2.699-2.806 4.156-1.732 1.829-3.3 3.382-5.351 4.977-.911-.543-1.34-1.128-1.531-1.867.33-.7.422-1.246.514-1.793"/><path fill="#46D1BD" d="M202.004 65.452a1981 1981 0 0 0-3.849-7.079c.563-.224 1.292-.168 2.376-.017 2.103 2.36 3.851 4.624 5.552 7.61-1.222 2.831-2.397 4.942-3.572 7.053l-1.47-.624z"/><path fill="#3DB2F4" d="M196.418 20.994c.52-.045.701-.02 1.154.022-2.566 3.885-5.397 7.501-11.077 7.233-1.811-.085-3.702 1.52-6.119 1.446 2.426-1.73 4.853-3.459 7.512-5.437 2.886-1.232 5.539-2.213 8.53-3.264"/><path fill="#2151C0" d="M147.122 62.325c2.384-1.748 5.113-3 7.405-4.807 1.493-1.176 2.352-3.158 3.514-5.16 1.659-.634 3.299-.89 4.938-1.145l.84 1.658c-4.524 3.555-9.047 7.11-13.742 10.97-1.047-.215-1.922-.735-2.955-1.516"/><path fill="#39B4F3" d="M172.692 96.04c.882 1.627 1.48 3.441 2.186 5.602-1.578 1.384-3.248 2.452-4.957 3.451a56 56 0 0 1-5.573 2.875c2.43-3.921 5.245-7.83 8.344-11.927Z"/><path fill="#4DE8C1" d="M199.931 48.079c.904.613 1.808 1.226 3.054 1.913-7.602 3.083-9.21 2.6-13.965-4.54 1.185-.22 2.194-.406 3.8-.284a326 326 0 0 0 7.111 2.91Z"/><path fill="#35AFEF" d="M187.126 74.54a74 74 0 0 1-4.86 7.336c.043-4.245.389-8.614.748-13.429 1.166.746 2.32 1.938 3.716 3.324.308.93.375 1.667.396 2.769"/><path fill="#2374BF" d="M131.836 60.332c1.478-2.98 3.26-3.51 5.706-1.062-.769 2.829-1.665 5.285-2.56 7.741-2.676-1.306-4.563-3.019-3.146-6.68Z"/><path fill="#44C1F7" d="M200.092 47.786c-2.333-.575-4.504-1.442-6.895-2.584 1.829-.899 3.877-1.523 6.268-2.226 1.434.046 2.525.172 4.209.366-1.386 1.683-2.404 2.917-3.582 4.444"/><path fill="#2C91D1" d="M135.125 67.228c.752-2.673 1.648-5.13 2.727-7.886.608-.323 1.031-.346 1.772-.392.347 1.163.377 2.348.429 3.985-1.139 1.895-2.298 3.338-3.718 4.97-.529-.027-.798-.244-1.21-.677"/><path fill="#35AFEF" d="M181.738 82.033c.06.213-.143.493-.59.88-.053-.2.136-.507.59-.88"/><path fill="#1D53A7" d="M166.067 113.987c2.131-.507 4.263-1.013 7.131-1.756 4.872-.239 9.016-.086 13.137-.325 1.596-.092 3.139-1.074 4.706-1.651 2.786.07 5.572.139 8.656.906.299 2.746.3 4.794.048 7.117-1.033 3.75-1.765 7.238-2.609 10.699-.659 2.703-2.123 4.235-5.473 3.021-.776-.001-1.219-.002-1.662-.432.121-5.042-.157-9.614-4.979-11.934-2.806-1.35-5.863-2.276-8.896-3.041-7.096-1.788-8.174-.937-8.41 5.999-.007.201-.43.388-.807.706-1.078-2.168-2.132-4.287-3.002-6.662.842-1.052 1.501-1.85 2.16-2.647"/><path fill="#236BB0" d="M220.277 136.591c8.212 1.429 15.113 5.009 20.191 12.729-.025 3.611-.368 6.597-.961 9.792-3.62 3.123-6.989 6.037-10.653 8.796-1.143-1.375-1.991-2.596-2.545-3.985 1.62-1.038 2.946-1.908 4.599-2.828 7.876-4.706 8.057-8.707.497-13.456-3.883-2.438-8.278-4.061-12.415-6.415.446-1.786.867-3.209 1.287-4.633"/><path fill="#95F3FD" d="M265.452 139.095c1.303.362 2.367 1.374 3.415 1.359 3.441-.051 3.296 1.67 2.233 4.345-1.165 2.091-1.99 4.042-3.314 5.558-1.458 1.668-3.269 3.093-5.124 4.327-1.4.933-3.61 2.398-4.601 1.904-5.212-2.598-8.75.397-12.793 2.867-.288-.591-.299-1.047-.144-1.795 1.734-2.079 3.303-3.866 5.207-5.79 1.116-.343 2.096-.32 2.644-.796 2.712-2.349 5.309-4.83 7.947-7.265 1.428-1.511 2.855-3.022 4.53-4.714"/><path fill="#2168B7" d="M199.998 118.004c-.001-2.049-.002-4.097.006-6.585.677 1.945 1.736 4.299 1.927 6.721.321 4.062.088 8.168.088 12.628 1.314.202 2.886.442 4.544 1.184-.766 2.036-1.618 3.572-2.496 5.403-.032.691-.037 1.087-.361 1.604-3.902.426-7.614.501-9.048 5.095-.392.412-.499.706-.526 1.057-.026.019.037.022-.232.172-1.064.759-1.859 1.367-2.835 1.682-1.13-.855-2.078-1.417-2.973-2.323 1.351-3.102 2.647-5.86 3.93-8.631-.014-.013.005.016.309-.15 5.509-2.392 8.126-6.207 7.71-11.985-.14-1.948-.036-3.914-.043-5.872"/><path fill="#54ECC0" d="M224.114 88.604c-.162.314-.598.27-.828-.14-1.609-3.794-2.988-7.178-4.367-10.562 0 0 .06.01.241-.047.441-.213.625-.433.731-.716 2.162-1.69 4.323-3.382 6.831-5.021.665 1.424.983 2.796 1.344 4.535-1.235 4.123-2.513 7.88-3.952 11.95Z"/><path fill="#E3F7F6" d="M260.576 143.918a134 134 0 0 1-7.601 7.156c-.548.476-1.528.453-2.996.714-2.867-1.237-5.047-2.527-7.226-3.817 4.171-3.371 8.717-3.724 11.722-.707 1.874-1.054 3.814-2.145 6.101-3.346"/><path fill="#2062AB" d="M204.094 137.059a257 257 0 0 1 2.749-4.869c4.093.808 7.99 1.879 11.917 3.596-1.692 1.401-3.425 2.8-5.13 2.768-3.187-.06-6.358-.95-9.536-1.495"/><path fill="#227DB8" d="M178.156 105.534c.539-2.397 1.347-4.556 2.636-6.35 1.497 1.08 2.42 2.115 3.549 2.444 2.406.703 4.919 1.041 7.389 1.528-1.841 3.143-8.129 4.379-13.574 2.378"/><path fill="#4FE3C1" d="M192.138 103.063c-2.878-.394-5.391-.732-7.797-1.435-1.129-.329-2.052-1.364-3.267-2.362-.105-1.393-.011-2.503.14-4.284 1.936.68 3.517 1.237 5.445 1.872 3.914 1.545 7.48 3.01 11.309 4.709-1.631.624-3.527 1.016-5.83 1.5"/><path fill="#77E3FD" d="M242.492 148.115c2.44 1.146 4.62 2.436 7.151 3.809-1.216 1.87-2.785 3.657-4.896 5.764-2.025.618-3.507.917-4.989 1.215.342-2.986.685-5.972.961-9.376.459-.702.986-.985 1.773-1.412"/><path fill="#1D559B" d="M204.067 137.355c3.205.249 6.376 1.139 9.563 1.199 1.705.032 3.438-1.367 5.323-2.473.466-.226.744-.059 1.161.33-.257 1.604-.678 3.027-1.534 4.939-5.142-.512-9.848-1.512-14.555-2.512.005-.396.01-.792.042-1.483"/><path fill="#2168B7" d="M190.577 110.174c-1.103.658-2.646 1.64-4.242 1.732-4.121.239-8.265.086-12.868.084-.477-.246-.487-.488-.503-1.097 5.711-.511 11.429-.655 17.613-.719"/><path fill="#22609E" d="M179.079 194.143c-.659-6.855-1.648-7.928-8.693-9.5.736-1.416 1.677-2.538 2.616-3.645-.002.014-.03.004.31-.003.807-.457 1.275-.908 1.932-1.523.907-.586 1.625-1.007 2.726-1.431 4.2-1.079 2.22-3.803 2.491-6.033 2.789-.291 5.176-.551 7.56-.438 1.017 1.413 2.037 2.454 3.059 3.851 1.013 1.288 1.896 2.439 3.057 3.108 3.43 1.978 6.97 3.764 10.203 5.484 1.906-.7 3.776-1.386 5.942-2.076.491-.009.688-.014.885-.02 1.212 1.413 2.425 2.826 3.753 4.942.556 2.774.879 4.878 1.466 6.907.818 2.825 1.832 5.593 2.851 8.58.259.438.487.604.774.667.003-.026-.051-.026-.058.356-.008 1.145-.01 1.908-.339 2.582-1.337-1.526-2.408-2.922-3.342-4.405-3.178-5.047-7.806-8.034-13.482-9.951-1.481-1.867-2.693-3.824-4.449-4.808-1.279-.716-4.349-.788-4.787-.054-3.577 6-8.103 1.642-10.987 1.714z"/><path fill="#2478B4" d="M211.272 181.604c-.302.319-.499.324-1.071.004-.99-1.769-1.604-3.213-2.08-4.956 1.716-2.084 3.294-3.867 5.209-5.735 4.453-2.331 8.569-4.578 12.684-6.826a112 112 0 0 1 2.782 4.147c-.446 1.583-1.127 2.682-1.809 3.781-3.011 1.232-6.199 2.163-8.982 3.786-2.445 1.426-4.437 3.627-6.733 5.799"/><path fill="#2374BF" d="M219.148 202.152c-.93-2.793-1.944-5.561-2.762-8.386-.587-2.029-.91-4.133-1.311-6.635.652.279 1.821 1.023 1.78 1.693-.198 3.259 1.825 4.293 4.222 5.796 1.756 1.102 3.729 4.07 3.42 5.82-.801 4.54 1.261 6.759 5.029 8.683 1.983 1.431 3.617 2.789 5.355 4.747-.229 1.134-.563 1.667-1.229 2.095-3.043-1.663-5.754-3.221-8.771-4.979-1.843-2.799-3.382-5.399-4.921-7.999 0 0 .054 0-.059-.155-.275-.391-.488-.567-.753-.68"/><path fill="#8CF1FC" d="M227.099 172.367c.57-1.447 1.251-2.546 1.991-3.975 3.428-3.243 6.797-6.157 10.417-9.28 1.733-.507 3.215-.806 5.074-1.132.388.428.399.884.412 1.683-.922 1.594-1.705 2.986-2.794 4.072-3.437 3.424-6.861 6.891-10.609 9.951-.717.586-2.882-.601-4.491-1.319"/><path fill="#1B517B" d="M190.003 259.995c-3.173.539-6.347 1.077-10.182 1.843-2.046.214-3.43.201-4.813.188-3.045-.343-6.091-.686-9.573-1.366-.785-1.117-1.132-1.896-1.717-2.67-.238.005-.714.008-.714.008s-.001-.001.001-.331c0-.762-.002-1.195-.005-1.628-.365-3.315 5.876-6.779-.579-10.469-.993-4.181-1.649-7.855-2.26-11.537-.718-4.329-1.396-8.664-2.091-12.997 1.197-.207 2.394-.414 4.179-.789 1.978-.238 3.367-.306 4.745.009-.441 1.425-.679 2.61-1.331 3.486-4.62 6.206-3.715 9.048 3.917 9.996 3.791.471 4.649 1.974 4.486 5.353-.228 4.701 1.074 8.195 6.649 9.258 2.312.441 4.214 3.035 6.313 5.02.998 2.456 1.986 4.541 2.975 6.626"/><path fill="#1F78B6" d="M148.99 212.999c.373 10.414-3.075 19.368-10.865 26.671-1.099-3.044-1.606-5.869-1.857-9.017.401-6.264.625-12.206.603-18.146-.003-.832-1.215-1.659-1.871-2.921.013-2.445.029-4.458.26-6.736 4.648-6.918 8.354-14.633 18.736-12.635.443.447.721.679 1.138 1.107.363.431.611.636.795 1.129-2.944 2.55-5.812 4.765-8.653 7.015-6.598 5.225-5.997 9.931 1.714 13.533"/><path fill="#237AAF" d="M129.377 261.98c-1.374-6.492-2.392-12.968-3.36-19.452-.242-1.621-.322-3.266-.755-5.53-.301-.832-.323-1.035-.286-1.571 1-2.378 1.938-4.422 3.137-6.284 2.133.072 4.007-.038 6.047.231.765 5.699 1.362 11.019 2.004 16.734l1.838-2.106c2.645 4.002 1.11 7.673-1.274 11.732a463 463 0 0 0-4.726 6.27c-.75-.004-1.5-.008-2.625-.024"/><path fill="#1E6BAA" d="M149.287 213.065c-8.008-3.668-8.609-8.374-2.011-13.599 2.841-2.25 5.709-4.465 9.042-7.056 1.517-.426 2.556-.491 3.594-.557 1.857 7.461-2.418 13.311-5.197 19.532-.593 1.327-1.65 2.448-2.654 3.896-.887-.77-1.682-1.46-2.774-2.216"/><path fill="#2788CD" d="M167.006 219.873c-1.39.068-2.779.136-4.586.198-3.39-6.459 1.579-15.734 9.389-17.104.822 0 .997.002 1.158.417.021 4.165.055 7.916.052 12.043-.075 4.604-4.134 2.924-6.013 4.446"/><path fill="#3B94D7" d="M178.995 194.456c1.158-2.068 2.232-3.822 3.572-6.009 2.884-.072 7.41 4.286 10.987-1.714.438-.734 3.508-.662 4.787.054 1.756.984 2.968 2.941 4.151 4.856-.987.736-1.712 1.096-2.76 1.256-5.828-3.387-16.269-.385-18.972 5.085-1.457.38-2.558.734-3.729 1.026a7 7 0 0 1-.203-.197c.694-1.348 1.389-2.696 2.167-4.357"/><path fill="#1B5582" d="M132.001 262.456a43 43 0 0 1 4.674-6.367c.768 4.771 1.303 9.61 1.597 14.463.085 1.391-.528 2.823-.822 4.236-1.586-.839-4.206-1.378-4.555-2.579-.856-2.937-.665-6.181-.894-9.753"/><path fill="#1C568B" d="M143 246.879c1.097-4.346 2.193-8.247 3.588-13.209 1.161 1.526 2.182 2.25 2.218 3.02.168 3.61.408 7.283-.1 10.829-.223 1.559-2.167 2.872-3.33 4.297-.792-1.498-1.584-2.995-2.376-4.937"/><path fill="#1A4E76" d="M154.68 272.831c-.632 1.948-1.573 3.712-2.596 5.804-.522.331-.962.332-1.812.016-2.042-1.763-3.674-3.208-5.307-4.652 2.717-3.357 5.819-4.038 9.715-1.168"/><path fill="#1F67A7" d="M157.782 221.022c.983 4.347 1.661 8.682 2.379 13.011.611 3.682 1.267 7.356 1.926 11.47-.394.324-1.131.29-1.18.089-1.971-8.077-5.135-15.997-3.125-24.57"/><path fill="#227FBB" d="M138.005 243.604c-.51.979-1.017 1.56-1.841 2.504-.642-5.715-1.239-11.035-2.001-17.163-.03-2.907.104-5.005.237-7.104l1.612.085v9.05c.507 2.825 1.014 5.65 1.772 8.76.242 1.347.232 2.408.221 3.868"/><path fill="#1B5584" d="m162.998 255.638.011 2.025c-.644-.169-1.614-.534-1.87-1.181-.669-1.692-1.056-3.5-1.429-5.288-.022-.107 1.064-.446 1.635-.676.55 1.573 1.101 3.146 1.653 5.12"/><path fill="#3999E1" d="M173.004 180.984a461 461 0 0 0-3.022 3.628c-2.139 1.345-4.08 2.426-6.467 3.482-.446-.024-.701-.302-.54-.543a40 40 0 0 1 2.605-2.379 574 574 0 0 1 7.424-4.188"/><path fill="#3B94D7" d="M172.981 202.97c-.175-.001-.35-.003-.787-.002 1.129-1.352 2.521-2.706 4.273-4.107.361-.048.494.086.532.511-.34 1.537-.717 2.647-1.458 3.72a105 105 0 0 0-2.56-.122"/><path fill="#3999E1" d="M159.968 191.609c-1.094.31-2.133.375-3.561.482-.662-.133-.91-.338-.91-.803 1.608-.636 2.993-1.042 4.496-1.304l.352.43c-.108.317-.215.634-.377 1.195"/><path fill="#1B5584" d="M163.003 258.332c.001-.334.477-.337.727-.006.248.779.246 1.227.245 1.675l-.729-.001c-.244-.445-.244-.89-.243-1.668"/><path fill="#3999E1" d="M162.152 189.153c-.433.344-.867.689-1.553 1.147-.254.114-.489-.173-.452-.546.51-.655.983-.938 1.592-1.065z"/><path fill="#3999E1" d="M163.196 188.209c-.088.378-.338.573-.833.833-.211.111-.487-.198-.462-.534.288-.541.584-.667.913-.716z"/><path fill="#4176B1" d="M233.984 216.07a15 15 0 0 0 1.057-1.916c2.747 2.458 5.439 5.233 8.385 8.246.3 1.007.348 1.778.396 2.549l-.904.671c-2.409-2.709-4.818-5.418-7.717-8.441-.733-.579-.975-.844-1.217-1.109"/><path fill="#2478BD" d="M112.99 231.012c-.333-1.254-.667-2.509-1.501-4.165-1.439-.199-2.378.003-3.676.225-2.467 1.037-4.576 2.055-6.941 2.882-.806-1.093-1.356-1.995-1.53-2.92 5.787-2.143 6.784-4.892 3.939-9.062a103 103 0 0 1 4.106-.111c7.718-.355 13.313-3.751 16.96-10.022.821-1.412.448-3.519.62-5.291-.005.015-.021.032.281.055 1.782-.845 3.264-1.714 4.795-2.24.726 1.744 1.402 3.145 1.739 4.646-1.82 2.73-3.3 5.359-5.09 8.048-.772.688-1.235 1.316-1.694 1.943.003 0 .002-.007-.256.216-1.414 2.41-2.571 4.596-4.03 6.938-2.775 3.057-5.249 5.958-7.722 8.858"/><path fill="#2675A1" d="M127.001 212.997c1.481-2.629 2.961-5.258 5.012-8.17a115 115 0 0 0 3.033-1.712l-.054 6.726c-.012.858-.019 1.028-.375 1.217-4.572 8.673-8.792 17.326-13.013 25.979l2.006 1.422 1.306-2.698.103.91c-.96 1.723-1.954 3.143-2.948 4.562l-1.51-.495c-.187-1.967-.374-3.933-.561-6.319-.001-.42-.001-.424.129-.524.305-.431.219-.697-.109-1.29.364-2.45.711-4.51 1.387-6.681 1.418-3.719 2.506-7.325 3.593-10.931 0 0 .001.007.304-.058.768-.689 1.233-1.314 1.697-1.938"/><path fill="#2275BA" d="M104.266 253.708c-1.191-3.554-2.149-7.379-3.21-11.799-.696-1.387-1.289-2.182-1.927-3.398.553-2.817 1.151-5.214 1.773-7.203.093 1.972.162 3.535.24 5.295l3.782-.741c1.429.714 2.859 1.428 4.682 2.14.395-.002.387-.008.387-.008-1.832 5.148-3.663 10.295-5.727 15.714"/><path fill="#1F53B3" d="M121.077 226.036c-.346 2.059-.693 4.119-1.061 6.819-.022.64-.017 1.14-.017 1.14s0 .004-.006-.001c-2.149-.183-4.292-.36-6.722-1.122-.279-1.018-.27-1.453-.262-1.888l-.013.021c2.467-2.893 4.941-5.794 7.715-8.448.323 1.325.345 2.402.366 3.479"/><path fill="#4DC7FB" d="M104.992 235.656c-1.168.421-2.268.637-3.85.947-.078-1.76-.147-3.323-.17-5.481.046-.594.155-.977.155-.977 2.11-1.018 4.219-2.036 6.601-2.725-.418 2.105-1.107 3.881-1.993 5.851-.295.724-.394 1.255-.494 1.786 0 0-.181.393-.249.599"/><path fill="#B8EAA1" d="M105.931 233.077c.69-1.776 1.379-3.552 2.155-5.677 1.025-.55 1.964-.752 3.099-.693-.809 2.713-1.814 5.165-3.275 7.893a3.2 3.2 0 0 1-.925.368s-.229-.171-.466-.447a6.8 6.8 0 0 1-.588-1.444"/><path fill="#2275BA" d="M105.735 233.271c.313.196.43.585.642 1.266-.109.335-.314.379-.827.472-.209-.483-.11-1.014.185-1.738"/><path fill="#2478BD" d="M112.819 231.143c.182.276.173.711.155 1.471-.121-.221-.233-.767-.155-1.471"/><path fill="#2275BA" d="M110.003 238.004c.003.004.192-.328.192-.328s-.019.231-.111.275c-.091.043-.083.049-.081.053m-2.915-2.903c-.103-.133.365-.226.604-.225.238 0-.048.387-.048.387s-.453-.029-.556-.162"/><path fill="#1A4C78" d="M216.978 223.987c-.328-.02-.804.096-.964-.079-7.844-8.569-18.201-5.331-28.284-6.379-1.426-7.467-.526-13.68 6.434-17.608 1.027-.58 1.299-2.495 2.181-3.714 1.38-.358 2.5-.794 3.967-1.207 1.788.885 3.156 1.915 4.684 2.576 4.331 1.875 7.542 4.397 9.672 9.06 2.624 5.743 2.241 11.485 2.31 17.351"/><path fill="#1F67A7" d="M190.295 260.125c-1.281-2.215-2.269-4.3-3.022-7.065.402-3.124.568-5.569 1.083-8.171 2.11-.405 3.871-.653 5.632-.901 3.66 1.401 8.653.45 9.928 6.196.161.727 4.162.602 6.992.975.801.266.95.463 1.054.692l.034.968c-8.654-2.196-14.821.257-18.761 7.95-1.033-.004-1.84-.26-2.94-.644"/><path fill="#1D559B" d="M190.008 225.006c4.924-1.002 9.81-2.497 14.781-2.881 6.134-.474 7.257 1.392 5.523 7.34a24 24 0 0 1-1.604 4.14c-.848.398-1.293.412-2.161.42-3.794-.345-7.165-.684-10.698-1.314a645 645 0 0 0-5.841-7.705"/><path fill="#2383C8" d="M196.085 196.13c-.622 1.296-.894 3.211-1.921 3.791-6.96 3.928-7.86 10.141-6.879 17.601-.07 1.188-.244 1.933-.81 3.079-2.088 1.734-3.783 3.065-5.719 4.214-2.033-.398-3.826-.614-5.659-1.241.908-2.826 1.857-5.242 3.057-7.393 1.328 1.623 2.406 2.984 3.484 4.344l1.669-1.621c-1.762-1.304-3.524-2.608-5.291-3.904-.005.008-.022.013-.128-.235-.374-.714-.643-1.181-.672-1.691a7 7 0 0 1 1.116-.101c1.611-1.203 3.161-2.219 3.988-3.652 3.326-5.761 5.673-12.434 13.765-13.191"/><path fill="#1F6486" d="M216.986 224.387c-.077-6.265.306-12.008-2.318-17.751-2.13-4.663-5.341-7.185-9.672-9.06-1.528-.661-2.896-1.691-4.67-2.889-.311-.754-.291-1.171-.271-1.588.725-.36 1.45-.72 2.473-1.129 5.938 1.542 10.566 4.529 13.744 9.576.934 1.483 2.005 2.879 3.501 4.678.744 1.159 1 1.954 1.012 3.027-.085 4.765.073 9.25.232 13.735l-1.876 5.678-1.213.111a87 87 0 0 1-.942-4.388"/><path fill="#21718F" d="M189.766 224.995c2.136 2.482 4.029 4.954 6.025 8.079-2.479 7.104-2.105 7.608 5.046 7.963 1.398.069 2.771.617 4.155.945-4.077-.287-8.155-.574-12.829-1.163-3.056-3.917-6.834-2.603-10.401-3.118-1.05-1.765-1.89-3.278-2.476-4.967 1.07-1.38 1.885-2.584 3.043-3.726 4.313 1.564 5.979-.512 6.711-4.039 0 0 .484.015.726.026"/><path fill="#247C97" d="M205.32 241.982c-1.712-.328-3.085-.876-4.483-.945-7.151-.355-7.525-.859-4.885-7.673 3.43-.023 6.801.316 10.603 1.101.42 2.797.41 5.149.4 7.501-.436.005-.872.011-1.635.016"/><path fill="#22609E" d="M221.431 222.993c-.573-4.492-.731-8.977-.405-13.489 1.949 2.485 3.412 4.997 4.982 7.84.712 1.805 1.318 3.279 1.924 4.754-.242 1.721-.484 3.442-.773 5.541-.217.416-.386.455-.81.556-.27-2.821-.188-5.785-4.918-5.202"/><path fill="#2989B2" d="M188.894 224.677c-.586 3.819-2.252 5.895-6.612 3.996-.688-1.491-.986-2.583-1.285-3.675 1.695-1.332 3.39-2.663 5.416-4.019.999 1.119 1.667 2.262 2.481 3.698"/><path fill="#1A4E76" d="M181.972 237.953c3.357.263 7.135-1.051 9.808 2.811.751 1.078 1.289 1.909 2.018 2.983-1.571.489-3.332.737-5.603.85-2.414-2.305-4.319-4.474-6.223-6.644"/><path fill="#2279AF" d="M212.312 251.837c-.454-.215-.603-.412-.948-.677-.178-.263-.265-.444-.221-.582.675-2.119 1.366-4.232 2.054-6.346l3.143 1.622c-1.226 1.99-2.453 3.979-4.028 5.983"/><path fill="#1F6486" d="M207.329 241.919c-.364-2.305-.354-4.657-.351-7.448.437-.454.882-.468 1.66-.488 1.046.751 2.296 1.458 2.371 2.273.232 2.512.028 5.073-3.68 5.663"/><path fill="#1F67A7" d="M215 258.654q-.505-1.11-1.02-3.311.505 1.111 1.02 3.311m-1.133-3.846c-.13.011-.408-.197-.846-.615.126-.008.412.195.846.615"/><path fill="#2159AC" d="M175.07 262.377c1.321-.338 2.705-.325 4.503-.289a35 35 0 0 1 5.381 4.572c.051.34.018.378.018.378-3.28-1.436-6.56-2.873-9.902-4.661"/><path fill="#1D5E96" d="M163.997 260.208c-.021-.655-.019-1.103-.029-1.887q.501.665 1.047 2.336c-.321.143-.658-.049-1.018-.449"/><path fill="#2159AC" d="M185.024 266.983c.019-.016.365.242.365.242s-.304.009-.361-.089-.023-.136-.004-.153"/><path fill="#C1F59C" d="M74.65 238.99c.85-2.672 2.11-5.337 3.712-8.506 1.456-1.806 2.57-3.107 3.974-4.606 1.422-2.768 2.553-5.339 4.045-7.891 2.787 1.981 5.213 3.945 7.341 6.076-5.055 4.344-11.045 7.532-12.2 14.803-.214.04-.638.14-.638.14-1.942-.003-3.884-.005-6.235-.016Z"/><path fill="#216EA4" d="M80.77 239.355c.114-.349.538-.449.87-.155 1.346 1.136 2.36 1.979 3.308 3.215-.412 2.824-.757 5.255-1.103 7.685-1.433-.023-2.866-.046-4.735-.059.224-3.439.884-6.888 1.66-10.686"/><path fill="#67CCD6" d="M231.992 242.58c-1.304.413-2.629.417-4.347.419-.266-4.427-.139-8.854.144-13.67 1.499 4.021 2.841 8.432 4.203 13.251"/><path fill="#2044B8" d="M83.885 250.5c.305-2.83.651-5.261 1.448-8.16 1.209-.344 1.966-.22 2.69.305-1.407 6.08-2.279 11.651 3.737 15.915.68-1.943.6-3.865.703-5.776.101-1.882-.143-4.05.705-5.565 1.655-2.957 3.967-5.545 6.007-8.286.592.794 1.185 1.589 1.767 2.718-5.38 5.458-7.09 14.653-4.113 21.117 1.146 2.489 3.894 5.012.513 8.133-2.007-2.048-3.555-4.299-5.359-6.323-1.51-1.693-2.772-1.566-3.015 1.403-1.696-4.781-3.37-9.931-5.083-15.481"/><path fill="#206AB4" d="M82.045 226.076c-1.114 1.301-2.227 2.602-3.65 4.064-1.033.105-1.757.05-2.843.065.201-3.136.69-6.358 1.353-9.544.431-2.067 1.118-4.081 1.764-6.481.11-.767.146-1.172.25-1.873.221-.579.416-.829.86-.735.546 3.676.886 7.039 1.234 10.761.348 1.487.69 2.615 1.032 3.743"/><path fill="#74DFFA" d="M228.291 222.062c-.965-1.439-1.571-2.913-2.299-5.09-.35-2.397-.578-4.092-.806-5.787 2.712 1.559 5.423 3.117 8.466 4.78.574.37.816.635 1.259 1.084-1.954 1.781-4.107 3.379-6.62 5.013"/><path fill="#C7A4ED" d="M124.006 80.004c.428.585.857 1.17 1.529 1.892.185 2.663.894 5.551-.092 7.639-1.94 4.104-.131 7.85-.083 12.098-.141.771-.249 1.184-.421 1.911-3.226 3.473-7.539 6.153-4.658 12.109-1.249 2.126-2.652 3.899-3.905 6.012-.94 2.076-2.029 3.812-3.547 5.946-.637.684-.847.971-1.057 1.257 0 0-.018-.078-.058-.086-3.521 1.698-6.118 7.091-11.37 2.437-1.11-1.585-1.614-3.393-2.805-4.263-2.842-2.076-3.36-4.263-.792-7.725-3.99 1.322-7.293 1.936-6.526-4.063.288-2.286 1.058-4.693.304-5.348-4.227-3.673-.967-7.395-.109-10.78.569-2.24 3-4.009 4.897-6.05 1.084-.674 1.87-1.285 2.765-1.572 2.46 2.775 3.714 1.04 5.171-.836 1.042-1.34 2.474-2.377 3.871-3.316.63.35 1.121.467 1.612.584-.222-.97-.444-1.94-.639-3.217 2.656-1.407 5.286-2.506 8.221-3.676.771-.698 1.236-1.325 2.034-1.956.779-.014 1.224-.023 1.983.12 1.434.395 2.554.639 3.675.883"/><path fill="#B2A2F0" d="M95.014 93.052c-1.597 1.98-4.03 3.747-4.597 5.988-.859 3.385-4.12 7.107.108 10.78.754.655-.016 3.062-.342 4.938-.966-.098-1.672-.474-2.676-.895-1.874-1.024-3.449-2.004-5.472-3.415.298-2.583 1.204-4.696 1.748-6.898.553-2.241.75-4.57 1.117-7.186-.008-.98-.03-1.635.278-2.47 3.483-1.075 6.636-1.969 9.8-2.527.02.785.028 1.235.036 1.685"/><path fill="#41BCFE" d="M92.443 128.021c.459.274.747.706 1.035 1.138-.273.082-.765.272-.786.23-.186-.381-.291-.801-.249-1.368"/><path fill="#2EA2F8" d="M84.887 96.69c-.353 2.29-.55 4.619-1.105 6.86-.543 2.202-1.449 4.315-2.062 6.733-3.425.816-6.971 1.481-10.548 1.855-1.263.132-3.303-.05-3.724-.799-.508-.903.391-2.556.546-3.899.044-.377-.388-.808-.68-1.666 2.215-2.517 4.51-4.582 7.228-6.663 3.731-.818 7.038-1.62 10.345-2.421"/><path fill="#60E6C8" d="M74.117 99.127c-2.294 2.065-4.588 4.13-7.037 6.514-.903.047-1.649-.226-2.697-.477-.872-5.552 4.05-6.324 7.678-8.698.976.826 1.516 1.743 2.056 2.661"/><path fill="#A6A3F2" d="M94.968 91.03c-3.154.895-6.307 1.79-10.132 2.786-5.874-2.178-6.078-7.1-6.723-11.954 1.335-4.336 2.394-8.44 3.672-12.476.936-2.952 1.292-5.55-2.116-7.337.092-.425.136-.594.181-.762.178-.091.356-.182 1.108-.358 1.05-.401 1.525-.718 2-1.034 2.421-1.344 4.842-2.688 7.603-3.73.934 2.712 1.528 5.122 2.122 7.532l1.178-1.66c2.328-.338 4.655-.676 7.036-.558.098 4.14.142 7.823-.216 11.511-2.192.352-3.982.7-6.137 1.026-7.403 2.303-10.332 5.286-9.868 9.845 1.449-.264 2.884-.525 4.327-.542.008.244.076.728.048 1.1 1.963 2.11 3.955 3.85 5.942 5.845-.012.426-.018.596-.025.767Z"/><path fill="#979DF1" d="m100.844 61.022-6.983 1.015-1.178 1.66c-.594-2.41-1.188-4.82-1.756-7.591 2.465-.663 4.905-.965 7.705-1.183.816.96 1.274 1.839 1.957 3.307.235 1.325.245 2.059.255 2.792"/><path fill="#2667EC" d="M83.032 59.526c-.55.685-1.025 1.002-1.795 1.295-1.11-1.544-1.927-3.065-3.047-4.755-.85-1.563-1.398-2.959-1.94-4.676.794-.117 1.573.143 2.373.281 5.88 1.015 6.129 1.418 4.41 7.855Z"/><path fill="#7AF29D" d="M77.93 82.123c.828 4.593 1.032 9.515 6.576 11.873.364.733.386 1.388.394 2.368-3.32 1.127-6.626 1.929-10.358 2.747-.965-.902-1.505-1.82-2.292-2.946-.25-.626-.252-1.043-.141-2.153 1.092-4.793 2.07-8.893 3.329-12.997.653-.004 1.027-.004 1.536.224.408.447.682.666.956.884"/><path fill="#2CAFBE" d="M75.158 81.018c-.978 4.1-1.957 8.201-3.048 12.681-.776-1.745-1.44-3.868-2.022-6.72 1.38-3.84 2.675-6.954 4.236-10.148.455 1.343.645 2.765.834 4.187"/><path fill="#3095B7" d="M74.059 76.91a732 732 0 0 0-3.967 9.67c-.42-1.432-.76-3.191-1.087-5.69.012-1.47.01-2.201.38-2.859 1.805-.324 3.24-.722 4.674-1.12Z"/><path fill="#369FC4" d="m69.015 77.958.003 2.557c-1.055.412-2.11.46-3.561.53-.166-1.178.063-2.377.43-3.93.858-1.614 1.576-2.874 2.555-4.649.693-.892 1.124-1.27 1.773-1.378-.255 2.469-.728 4.67-1.2 6.87"/><path fill="#B2FB9F" d="M79.441 61.222c.364.233.32.402.055 1.086-1.303 2.602-2.387 4.688-3.735 6.86-1.741.211-3.218.337-4.961.312-.803-1.322-1.339-2.493-1.748-3.977.189-.45.321-.6.299-.722-.05-.265-.177-.515-.272-.771 0 0-.066.043-.047.077 3.347-.954 6.674-1.941 10.41-2.865Z"/><path fill="#269AFE" d="M67.674 61.077c-.215.335-.756.68-1.635 1.039.21-.335.76-.682 1.635-1.04Z"/><path fill="#2D9FFB" d="M178.573 16.017c.461.427.501.863.574 1.626-2.137 2.829-4.309 5.33-6.693 8.063-.821.067-1.431-.098-2.275-.477-.227-8.086.799-9.209 8.394-9.212"/><path fill="#9AFA9B" d="M68.925 65.816c.536 1.171 1.072 2.342 1.681 3.851-.154.61-.381.88-.609 1.151l-1.51 1.326c-1.06.088-1.901-.016-3.168-.14.392-2.036 1.21-4.051 2.604-6.129.577-.061 1.002-.06 1.002-.06Z"/><path fill="#2470C4" d="M69.052 65.503c-.127.313-.552.31-.76.26-.052-.562.103-1.075.523-1.67.36.173.487.423.536.688.022.122-.11.272-.299.722"/><path fill="#1C54AF" d="m163.723 116.889 3.186 6.407c.377-.318.8-.505.807-.706.236-6.936 1.314-7.787 8.41-5.999 3.033.765 6.09 1.691 8.896 3.041 4.822 2.32 5.1 6.892 4.689 12.098-3.25 3.474-6.329 6.246-9.14 9.267-2.992 3.216-5.731 6.667-8.864 10.169-1.759 1.712-3.234 3.27-5.034 4.831-.756.003-1.188.003-1.686-.336-5.06-8.018-8.153-9.032-16.518-5.78-.437.17-.973.084-1.463.117-.005-.443-.011-.885.134-1.976 2.72-3.555.947-6.291-.122-9.404a239 239 0 0 1 6.23-11.744c.428-.746.608-1.311.767-1.872-.022.003.009.034.269-.029.421-.369.584-.675.746-.98 0 0-.04-.003.24-.136.438-.713.595-1.293.753-1.873 0 0-.038.006.318.065 2.698-1.68 5.04-3.42 7.382-5.16"/><path fill="#247AAA" d="M147.004 150.329c.492-.364 1.028-.278 1.465-.448 8.365-3.252 11.458-2.238 16.453 6.116-1.291 1.805-2.584 2.934-4.054 3.757-2.85-5.019-7.293-5.079-11.921-5.074-.677-1.108-1.313-1.902-1.949-2.695.001-.442.002-.883.006-1.656"/><path fill="#3573B0" d="M146.581 151.989c1.053.789 1.689 1.583 1.987 2.692-1.748.64-3.155.963-4.639 1.615.039.76.154 1.192-.045 1.671-.854.63-1.394 1.214-2.273 1.841a14.4 14.4 0 0 0-2.796 1.431c-1.71 3.954.938 4.866 3.532 5.568 2.18.59 4.457.823 6.571 1.463-.383.73-.647 1.213-.924 1.958-.018.437-.024.612-.354.782-.757-.007-1.19-.009-1.721-.348-2.039-1.108-3.979-1.881-6.222-2.795a94 94 0 0 1-5.817-5.218c-.386-1.062-.638-1.844-.891-2.625 0 0 .009-.016.323-.086.772-.701 1.229-1.333 1.844-2.245a229 229 0 0 1 3.794-4.697c2.405-.334 4.81-.669 7.631-1.007"/><path fill="#237AC9" d="M152.998 127.054a1273 1273 0 0 1-6.225 11.69c-.787.752-1.268 1.027-1.749 1.302 0 0-.011-.029-.026-.437a322 322 0 0 0-1.002-6.612 34 34 0 0 1 .039-1.945c.011-1.513-.026-2.403-.063-3.294a30 30 0 0 1-.871-1.535c.364-.248.822-.261 1.624-.304.344-.029.8.017 1.233.192 1.295.081 2.158-.014 3.02-.109 1.469-.752 2.938-1.505 4.707-1.877.313.558.326.734.339.911 0 0-.031-.031-.257.141-.406.74-.588 1.309-.769 1.877"/><path fill="#227DB8" d="M137.989 110.952c.003 1.078.006 2.157.008 3.639-2.45 5.435-4.899 10.465-6.962 14.705-.842-.707-2.706-2.271-4.816-4.076 1.006-1.699 2.26-3.156 3.667-4.895.153-.282.128-.305.343-.424.465-.329.663-.581.81-.873a665 665 0 0 0 4.814-6.737c.166-.29.145-.289.4-.404.749-.388 1.243-.662 1.736-.935"/><path fill="#2384D8" d="M139.006 152.658c-1.268 1.81-2.48 3.283-4.18 5.038-.927.276-1.366.268-1.806.26-.081-1.323-.058-2.663-.262-3.967-.821-5.228-.328-5.804 5.716-5.916.402.011.466.018.611.213.353.44.606.624.903.746-.308 1.096-.616 2.191-.982 3.626"/><path fill="#2A87C1" d="M143.619 133.016c.706 2.049 1.035 4.118 1.377 6.578-1.945.125-5.448.197-5.593-.466-.615-2.815.209-5.551 4.216-6.112"/><path fill="#2A60B9" d="M144.959 140.399c.546-.628 1.027-.903 1.754-1.304 1.374 2.636 3.147 5.372.422 8.595-6.088-.596-2.7-4.188-2.176-7.291"/><path fill="#67EDD7" d="M143.707 127.966c.302.683.339 1.573.327 2.756-.23-.655-.411-1.602-.327-2.756"/><path fill="#2D75B4" d="M139.865 148.832c-.174.078-.427-.106-.749-.556.179-.08.426.107.749.556"/><path fill="#EFFBCC" d="M83.4 190.12c-1.568-3.759-7.106-6.049-3.363-11.385 8.893-6.039 17.642-11.74 27.03-17.669 5.099-2.312 9.526-4.476 14.061-6.386.608-.256 1.758.773 2.657 1.207-2.644 3.184-3.657 6.338.172 9.749 0 .345-.011.461-.242.517-.499.251-.681.507-1.138.858-1.396 1.029-2.429 2.023-3.623 3.247-.413.708-.664 1.187-1.247 1.798-2.564 1.961-5.636 3.506-2.674 7.462a181 181 0 0 1-1.843 8.086c-.201-.803-.407-1.32-.689-2.214-1.578-6.343-4.415-9.229-8.704-9.158-4.158.07-7.728 3.378-8.687 8.827-.453 2.57.166 5.329.22 8.363-.174 1.092-.271 1.824-.368 2.555l-6.915 6.487c-1.58-4.404-2.965-8.271-4.647-12.344"/><path fill="#47BBC7" d="M124.127 155.779c-1.241-.326-2.391-1.355-2.999-1.099-4.535 1.91-8.962 4.074-13.78 6.189 2.971-2.921 6.266-5.913 9.645-8.806 1.469-1.257 3.11-2.313 4.84-3.754.662-.557 1.159-.819 1.911-1.198 1.297-.111 2.34-.106 3.77-.096 2.797 4.298 1.067 6.949-3.387 8.764"/><path fill="#41BCFE" d="m87.99 166.992.223-.372s0 .289-.106.334c-.107.046-.117.038-.117.038m-.964 1.026-.275.362s.005-.316.127-.35c.12-.034.148-.012.148-.012m-.038-.036c.12-.315.318-.563.792-.874.21-.116.22-.108.224-.104-.133.299-.327.549-.778.884-.2.13-.227.108-.238.094"/><path fill="#309190" d="M94.985 196.359c.074-1.113.17-1.845.616-2.996 1.01-.745 1.671-1.072 2.59-1.121a76 76 0 0 1-1.464 10.846c-.746.388-1.237.657-2.08.974-2.12.687-3.89 1.327-5.66 1.967 1.247-1.614 2.591-3.163 3.71-4.862.91-1.383 1.55-2.945 2.288-4.808"/><path fill="#1E5B9F" d="M81.006 221.975c-.34-3.364-.681-6.727-1.03-10.538.01-1.551.03-2.655.07-4.178 1.43.29 2.84.999 4.607 2.14-.978 4.48-2.313 8.528-3.647 12.576"/><path fill="#237AAF" d="M81.013 222.333c1.328-4.406 2.662-8.454 4.003-12.922.44-.426.875-.433 1.645-.101.342.795.349 1.252.351 2.103-.333 2.448-.663 4.502-.992 6.556-1.13 2.57-2.262 5.141-3.684 7.909-.633-.93-.975-2.058-1.323-3.545"/><path fill="#2072AE" d="M87.016 211.019a347 347 0 0 0-.028-1.714c.622-1.122 1.253-1.901 1.942-2.978 1.827-.938 3.597-1.578 5.706-1.902.028 1.722-.282 3.129-.913 4.579-1.119.358-1.917.674-2.97 1.106-.746.385-1.237.653-2.063.915-.781-.006-1.227-.006-1.674-.006"/><path fill="#2780D6" d="M126.993 163.032c-1.834-4.129.089-6.367 4.779-8.419-.286 2.125-.459 3.405-.823 5.306-.776 1.442-1.361 2.263-2.281 3.083-.781.01-1.228.02-1.675.03"/><path fill="#216EAA" d="M126.945 163.358c.495-.336.942-.346 1.755-.319.366.038.429.111.334.446-1.558 5.271-5.807 5.799-9.919 6.543 1.033-.994 2.066-1.988 3.673-3.108.846-.294 1.041-.526 1.158-.823 0 0 .011-.116.07-.12.999-.767 1.94-1.53 2.929-2.619m2.09-.318c.553-.858 1.138-1.679 1.873-2.765.579-.262 1.008-.26 1.759-.254.575.784.827 1.566 1.164 2.974-.226 1.735-.536 2.844-1.091 3.749a291 291 0 0 1-3.611-3.594z"/><path fill="#296CB7" d="M133.015 158.297c.445-.333.884-.325 1.654-.32-.128.628-.585 1.26-1.349 1.956-.307-.388-.308-.842-.305-1.636"/><path fill="#245FB0" d="M112.022 128.762q-.061-.271.635-.857.061.271-.635.857"/><path fill="#1F4F9F" d="M110.49 132.478c.03-.013-.03.014 0 0"/><path fill="#36AFF7" d="M218.598 77.905c1.7 3.381 3.079 6.765 4.472 10.522-3.269 2.737-6.281 5.703-9.896 7.33-5.896 2.651-11.607-2.21-10.974-8.886.154-1.622.696-3.207.806-3.69 2.781.798 5.883 2.767 8.011 2.007 2.322-.83 3.708-4.215 5.582-6.418.376-.442 1.109-.582 1.999-.865"/><path fill="#2378C1" d="M201.691 65.644c-.008 2.122-.329 4.437-.65 6.75l1.47.625c1.175-2.11 2.35-4.222 3.613-6.696 2.937.948 3.321 2.72 1.067 4.962-1.641 1.632-3.496 3.092-4.913 4.898-3.041 3.872-5.861 7.919-9.287 12.598 0-3.596 0-7.225-.007-11.305-.611-1.55-1.213-2.648-1.891-4.039 3.379-2.73 6.833-5.166 10.598-7.793"/><path fill="#38C7D7" d="M233.006 61.982c-.04-1.689-.028-3.363-.125-5.03-.233-4.024-.518-8.044-.551-12.504.23-.438.718-.483.718-.483 6.475 5.782 4.353 11.55-.05 17.67-.021.356.012.364.008.347"/><path fill="#4FE3C1" d="M181.071 90.467a69 69 0 0 1 6.107-7.394c-.105 3.339-.571 6.78-.937 10.6-1.657-.695-3.412-1.768-5.17-3.206"/><path fill="#36AFF7" d="M219.685 77.212q.15.315-.55.66-.183-.345.55-.66"/><path fill="#2C9EF9" d="M232.941 43.804c.107.16-.381.206-.625.23.01-.115.264-.253.625-.23"/><path fill="#4781E2" d="m148.029 68.993-5.568-2.444c1.51 4.134-1.402 8.017 2.19 10.985.32.263-.209 1.8-.633 2.59-.158.294-1.624.327-1.687.165-1.332-3.416-3.269-6.81-3.59-10.346-.338-3.717 2.942-5.871 6.328-5.235 2.139.402 3.87 2.972 5.588 4.879-1.007.008-1.818-.293-2.628-.594"/><path fill="#6189E5" d="M148.035 69.351c.804-.057 1.615.244 2.754.548.33.003.304.041.265.38-.046.78-.052 1.223-.059 1.666l-.335 2.257-.924.192c-.565-1.562-1.13-3.124-1.701-5.043m4.099 1.49 1.581 6.704-1.55.253c-.075-1.57-.15-3.141-.181-5.465.08-.999.115-1.245.15-1.492"/><path fill="#4781E2" d="M151.997 70.643c.102.445.067.691-.014 1.311-.201.306-.356.239-.75.081-.231-.533-.225-.976-.201-1.75.355-.28.625-.117.965.358"/><path fill="#2279AF" d="M148.985 125.606c-.869.491-1.732.586-2.799.522-.243-5.211-.281-10.264-.246-15.714 1.869.487 3.665 1.371 5.755 2.428-.706 4.238-1.705 8.303-2.71 12.764"/><path fill="#35A7EB" d="M163.907 116.634c-2.526 1.995-4.868 3.735-7.561 5.433 2.758-2.734 5.865-5.427 9.347-8.1-.285.817-.944 1.615-1.786 2.667m-8.148 5.512c.106.418-.051.998-.487 1.731-.112-.421.055-.996.487-1.731m-1.475 2.827c-.273-.114-.286-.29-.31-.732.166-.288.345-.31.79-.29.104.347-.059.653-.48 1.022"/><path fill="#ADA3F1" d="M120.017 78.969c-.445.009-.89.018-1.917-.078-1.085.642-1.588 1.39-2.092 2.138-2.629 1.098-5.259 2.197-8.147 3.805-.466 1.073-.673 1.636-.881 2.2-1.257 1.171-2.689 2.208-3.731 3.548-1.457 1.875-2.711 3.61-5.154.579-.088-.752-.082-.924.037-1.419 1.732-2.795 3.35-5.267 5.228-7.8.081-.689-.097-1.316-.322-2.189-.046-.413-.045-.58.224-.971.396-1.377.523-2.53.889-3.927 1.106-.443 1.973-.642 2.985-.585.785.556 1.425.857 2.064 1.157l.289-.856c-.824-.196-1.649-.391-2.531-.919-1.033-1.11-2.008-1.887-3.065-3.062-.237-3.147-.392-5.897-.34-8.774.635-.36 1.062-.593 1.49-.826.267.196.496.43.913 1.242 2.355 1.295 4.484 2.05 6.613 2.803.247 4.91 3.051 6.48 7.987 5.822.886 1.838 1.362 3.655 1.393 5.851-.941 1.006-1.436 1.633-1.932 2.26Z"/><path fill="#2D72CB" d="M103.346 61.943c.155 2.75.31 5.5.277 8.881-.336 1.814-.483 2.996-.841 4.152-.21-.027-.629-.092-.681-.375-.374-.727-.696-1.171-1.017-1.615-.045-3.684-.089-7.367-.187-11.507-.063-1.19-.073-1.924-.113-3.025.637.124 1.306.615 2.144 1.697.253.99.335 1.391.418 1.791Z"/><path fill="#A3A1F1" d="M112.645 64.727c-2.205-.446-4.334-1.2-6.557-2.288 1.559-.333 3.212-.332 5.275-.327.726.772 1.042 1.54 1.282 2.615m-9.092-2.911c-.29-.274-.372-.674-.481-1.38.555-.208 1.137-.109 1.845.272-.302.515-.729.748-1.364 1.108"/><path fill="#35AFEF" d="M187.77 74.86c.063.425-.106.81-.275 1.194a3.3 3.3 0 0 1-.425-.914c.006-.225.468-.321.7-.28"/><path fill="#1F4F9F" d="M130.873 118.922c.019.398-.179.65-.636.985.019-.281.244-.686.636-.985"/><path fill="#2159AC" d="M137.921 110.674c-.425.551-.919.825-1.666 1.222.039-.666.332-1.454.625-2.243.324.248.648.496 1.041 1.021"/><path fill="#A3A1F1" d="M120.331 79.12c.182-.779.677-1.406 1.491-2.101 1.035.183 1.753.435 2.702.862.141.723.049 1.27-.281 1.97-1.358-.091-2.478-.335-3.912-.73Z"/><path fill="#1D45AA" d="M171.99 151.012c2.85-3.348 5.589-6.799 8.581-10.015 2.811-3.021 5.89-5.793 9.14-8.839.733-.162 1.176-.161 1.954.243.343 1.477.352 2.552.362 3.626 0 0-.019-.029-.354.029-6.408 3.558-12.195 7.314-14.013 14.941-2.118.009-3.894.012-5.67.015"/><path fill="#1C469B" d="M192.331 135.861c-.314-.908-.323-1.983-.334-3.46 3.016.811 4.48-.721 5.139-3.424.844-3.461 1.576-6.949 2.609-10.699.26 1.684.156 3.65.296 5.598.416 5.778-2.201 9.593-7.71 11.985"/><path fill="#65DBFD" d="M212.994 171.001c-1.579 1.784-3.157 3.567-5.2 5.544-3.986-5.03-7.508-10.253-11.077-15.838-4.042-4.912-2.539-10.367-2.548-15.574 0 0-.063-.003.15-.171.422-.431.524-.729.52-1.064 1.253-4.438 4.965-4.513 8.867-4.939 5.026.879 9.732 1.879 14.848 2.753 4.573 1.866 8.968 3.489 12.851 5.927 7.56 4.749 7.379 8.75-.879 13.302-4.372-2.154-12.761-1.544-15.197 1.769-1.592 2.165-1.611 5.487-2.335 8.291"/><path fill="#89EFFD" d="M213.33 170.917c.388-2.72.407-6.042 1.999-8.207 2.436-3.313 10.825-3.923 14.87-1.719-.944 1.024-2.27 1.894-3.89 2.932-4.41 2.416-8.526 4.663-12.979 6.994"/><path fill="#1E5B9F" d="M188.038 144.986c.949.562 1.897 1.124 2.993 2.312.039 2.956-.068 5.287-.516 7.642-6.077.432-.849 3.383-1.795 5.239-7.568 1.621-7.733 1.525-9.264-5.322-.21-.942-.305-1.909-.071-2.865 1.921-.684 3.73-1.063 4.932-2.128 1.502-1.331 2.504-3.226 3.721-4.878"/><path fill="#1C469B" d="M188.092 144.642c-1.271 1.996-2.273 3.891-3.775 5.222-1.202 1.065-3.011 1.444-4.933 2.132-.384.004-.377.004-.506-.197-.333-.452-.581-.647-.875-.792-.002-.005-.002-.016-.002-.016 1.477-7.621 7.264-11.377 13.686-14.921-.948 2.712-2.244 5.47-3.595 8.572"/><path fill="#3A8EE9" d="M190.855 154.916c.108-2.331.215-4.662.357-7.325.829-.941 1.624-1.549 2.688-2.308.278 5.057-1.225 10.512 2.499 15.352-2.03-1.713-3.787-3.716-5.544-5.719m3.803-10.862q.28.27-.313.889c-.186-.183-.079-.477.313-.889"/><path fill="#1C539A" d="M179.002 151.996c.149.952.244 1.919.454 2.861 1.531 6.847 1.696 6.943 9.553 5.504 6.374 3.416 8.817 8.903 10.568 15.854l-8.5-1.151c-1.019-1.04-2.039-2.081-2.703-3.536 1.398-.549 2.441-.683 3.484-.818l-.036-1.633c-4.234 0-8.468 0-13.048-.111-1.634-1.847-2.923-3.581-4.763-6.056.786-3.005-.514-4.403-6.118-5.154-.378-.758-.637-1.26-.896-1.761 1.476-1.559 2.951-3.117 4.71-4.829 2.059-.157 3.835-.16 5.953-.169.341-.006.341.005.473.209.337.455.584.651.874.794 0 0-.007 0-.005-.004"/><path fill="#2B6FBC" d="M191.08 175.421c2.538-.013 5.08.331 8.497.794-1.751-6.951-4.194-12.438-10.262-16.119.351-1.773-4.877-4.724 1.2-5.156 2.097 1.979 3.854 3.982 5.929 6.057 3.842 5.295 7.364 10.518 11.213 15.848.94 1.55 1.554 2.994 2.249 4.766-1.79 1.016-3.66 1.702-5.566 2.402-3.233-1.72-6.773-3.506-10.203-5.484-1.161-.669-2.044-1.82-3.057-3.108"/><path fill="#B2F895" d="M173.002 180.998c-2.381 1.314-4.765 2.643-7.646 3.892-2.009-1.487-3.519-2.894-4.19-3.519-2.482 1.853-4.334 3.235-6.208 4.233.029-1.408.081-2.433.414-3.693.962-3.863 3.1-4.843 6.767-5.135 3.084-.246 6.019-2.369 9.337-3.843 1.803-.459 3.289-.735 4.456-.953l1.655 6.064c-.718.421-1.436.842-2.652 1.533-.986.655-1.474 1.04-1.963 1.425 0 0 .028.01.03-.004"/><path fill="#2884EC" d="M177.97 178.041c-.89-1.854-1.396-3.71-2.038-6.061a88 88 0 0 1-4.713.772c-.832-.33-1.091-.66-1.035-1.191 3.128-.713 5.941-1.227 8.877-1.455.414.835.706 1.384.998 1.934.131 2.198 2.111 4.922-2.089 6.001"/><path fill="#32A1E9" d="M180.461 172.008c-.694-.518-.986-1.067-1.356-2.088-.078-.471.014-.843.014-.843h12.703l.036 1.633c-1.043.135-2.086.269-3.482.446-2.739.301-5.126.561-7.915.852"/><path fill="#288BDB" d="M224.881 210.986c.533 1.894.761 3.589 1.005 5.655-1.448-2.14-2.911-4.652-4.616-7.416-.497-1.047-.753-1.842-1.169-2.911-.158-1.037-.156-1.8-.148-2.945 1.546 2.218 3.085 4.818 4.928 7.617"/><path fill="#3999E1" d="M173.312 180.995c.149-.378.637-.763 1.434-1.254-.159.346-.627.797-1.434 1.254"/><path fill="#288BDB" d="M219.237 202.346c.176-.081.389.095.661.513-.174.091-.402-.075-.661-.513"/><path fill="#1D5E91" d="M181.762 237.701c2.114 2.422 4.019 4.591 6.084 7.053-.005 2.737-.171 5.182-.583 7.936-2.334-1.306-4.236-3.9-6.548-4.341-5.575-1.063-6.877-4.557-6.649-9.258.163-3.379-.695-4.882-4.486-5.353-7.632-.948-8.537-3.79-3.917-9.996.652-.876.89-2.061 1.331-3.486 1.891-1.905 5.95-.225 6.434-4.848 1.82-.395 3.193-.395 4.566-.395 0 0 .017-.005-.001.219s-.09.685-.09.685c-.949 2.415-1.898 4.831-2.705 7.992 1.373 3.498 2.604 6.249 3.834 9 .84 1.514 1.68 3.027 2.73 4.792"/><path fill="#4BBDF7" d="M155.09 182.147a49 49 0 0 1-.305 3.759c-.418 1.822-.686 2.958-.954 4.094-10.217-1.783-13.923 5.932-18.571 12.85-1.035.742-1.856 1.218-2.907 1.877-.908-1.219-1.584-2.62-2.238-4.546.139-.761.297-.967.901-1.122 6.091-.919 7.937-5.603 10.387-10.091 1.027-.75 1.794-1.359 2.934-1.975 1.822-1.627 3.272-3.247 4.742-4.887.021-.018.063-.056.413-.121 2.1.01 3.849.086 5.598.162"/><path fill="#2172AB" d="m134.967 211.039.028-.765c.661.574 1.873 1.401 1.876 2.233.022 5.94-.202 11.882-.603 18.146-.256-2.693-.256-5.71-.256-8.727l-1.612-.085c-.133 2.099-.267 4.197-.403 6.725-1.877.539-3.751.649-5.812.218 2.135-6.275 4.459-12.01 6.782-17.745"/><path fill="#DBF4B7" d="M153.996 190.215c.103-1.351.371-2.487.812-3.925 2.024-1.684 3.876-3.066 6.358-4.919.671.625 2.181 2.032 3.916 3.721-.499.927-1.222 1.573-2.107 2.459-.49.29-.786.416-1.211.802-.634.463-1.107.746-1.734 1.258-1.54.635-2.925 1.041-4.673 1.481-.64-.198-.918-.43-1.361-.877"/><path fill="#AEE09E" d="M134.617 211.058c-1.973 5.716-4.297 11.451-6.692 17.545-1.011 2.402-1.949 4.446-2.949 6.824-.496 1.233-.931 2.132-1.366 3.032l-2.006-1.422c4.221-8.653 8.441-17.306 13.013-25.979"/><path fill="#2670BE" d="M177.888 214.765c-1.267.248-2.64.248-4.422.267-.444-3.732-.478-7.483-.499-11.648.746-.386 1.477-.358 2.702.023 2.112 1.115 3.731 1.877 5.284 2.948-.705 1.129-1.346 1.95-2.372 2.732-1.413.429-2.441.895-3.469 1.362l1.865 2.669c.268.466.537.933.911 1.647"/><path fill="#2984AC" d="M178.967 209.125c.64-.82 1.281-1.641 2.219-3.041 1.272-3.148 3.372-5.773-.071-8.126 2.348-5.444 12.789-8.446 18.617-5.059.303.617.283 1.034.248 1.764-1.135.75-2.255 1.186-3.635 1.544-8.352.68-10.699 7.353-14.025 13.114-.827 1.433-2.377 2.449-3.838 3.346-.001-1.387.242-2.465.485-3.542"/><path fill="#3297E9" d="M180.76 197.984c3.798 2.327 1.698 4.952.491 7.791-1.851-.491-3.47-1.253-5.218-2.33.249-1.426.626-2.536 1.036-4.01 1.133-.717 2.234-1.071 3.691-1.451"/><path fill="#2F2DC3" d="M99.13 238.511c-1.995 3.163-4.307 5.751-5.962 8.708-.848 1.515-.604 3.683-.705 5.565-.103 1.911-.023 3.833-.703 5.776-6.016-4.264-5.144-9.835-3.438-16.09 3.477-5.514 6.623-10.451 9.987-15.395.22-.005.657-.018.657-.018.55.902 1.1 1.804 1.906 2.897.255.191.146.574.076.76-.668 2.583-1.266 4.98-1.819 7.797Z"/><path fill="#1E62A1" d="M99.342 227.034c-.376.023-.814.036-1.162-.275-1.619-1.162-2.889-2.012-4.16-2.863-2.426-1.964-4.852-3.928-7.64-5.909-.03-2.072.299-4.126.632-6.574.45-.394.897-.394 1.683-.026 2.706 6.897 5.636 9.473 11.148 9.064-1.944-1.769-3.646-3.006-4.941-4.578-1.487-1.805-2.612-3.907-3.895-5.88.798-.315 1.597-.631 2.984-.825 2.01 1.353 3.43 2.586 4.961 4.098.686.803 1.261 1.328 2.008 2.104.79 1.044 1.408 1.837 2.027 2.63 3.139 4.142 2.142 6.891-3.645 9.034"/><path fill="#3FBAF8" d="M124.972 202.534c-.177 1.786.196 3.893-.625 5.305-3.647 6.271-9.242 9.667-16.891 9.656 1.014-3.111 2.353-5.833 4.016-8.578 1.428-.709 2.531-1.394 3.837-2.159.456-.25.637-.476.716-.757-.03.003-.005.058.277.015.716-.387 1.149-.731 1.813-1.155.539-.222.773-.442 1.315-.776 2.102-.54 3.822-1.046 5.542-1.551"/><path fill="#4DC7FB" d="M130.61 199.04c-.198.174-.356.38-.545.798-1.553 1.051-3.035 1.92-5.151 2.648-1.011-1.187-1.878-2.343-1.671-3.257.634-2.807 1.679-5.521 2.772-8.542 3.798-2.89 7.388-5.507 11.215-7.861.372 1.182.506 2.099.418 3.289-2.494 4.49-4.766 8.707-7.038 12.925"/><path fill="#4ABFF3" d="M111.148 208.941c-1.339 2.721-2.678 5.443-4.087 8.53-1.208.402-2.347.437-3.78.501-.913-.765-1.531-1.558-1.939-2.669 1.355-1.317 2.845-2.112 3.578-3.354 2.094-3.542 3.88-7.266 6.071-10.914.471.026.659.046.913.468-.208 2.747-.482 5.093-.756 7.438"/><path fill="#2058C7" d="M125.807 190.959c-.885 2.749-1.93 5.463-2.564 8.27-.207.914.66 2.07 1.37 3.234.333.117.349.1.354.085-1.715.491-3.435.997-5.497 1.154.953-4.461 2.247-8.573 3.892-12.689 1.048-.02 1.746-.037 2.445-.054"/><path fill="#1F67A7" d="M121.407 225.924c-.351-.965-.373-2.042-.394-3.523 1.158-2.589 2.315-4.775 3.729-7.185a91 91 0 0 1-3.335 10.708m5.285-12.867q-.234.845-1.391 1.878.234-.845 1.391-1.878m-6.563 20.838c-.13.1-.135-.4-.13-.649.349-.048.435.218.13.649"/><path fill="#2380C3" d="M179.286 232.734c-1.484-2.576-2.715-5.327-4.047-8.414 1.691-.119 3.484.097 5.517.495.54 1.275.838 2.367 1.183 3.795-.768 1.54-1.583 2.744-2.653 4.124m-1.132-16.553c-.251-.264-.179-.725-.156-.957 1.785 1.072 3.547 2.376 5.309 3.68l-1.669 1.621c-1.078-1.36-2.156-2.721-3.484-4.344"/><path fill="#44C1F7" d="M178.581 209.087c.143 1.115-.1 2.193-.492 3.576-.15.306-.633.367-.873.411-.861-.846-1.482-1.736-2.104-2.625 1.028-.467 2.056-.933 3.469-1.362"/><path fill="#4DC7FB" d="M93.722 224.063c1.57.684 2.84 1.534 4.239 2.701-3.016 5.255-6.162 10.192-9.606 15.306-1.056.05-1.813-.074-2.956-.123-1.4-.768-2.413-1.611-3.544-2.787.822-7.565 6.812-10.753 11.867-15.097"/><path fill="#A99FEE" d="M107.12 87.266c.068-.796.275-1.36.715-2.124.453.769.675 1.739.897 2.708-.491-.117-.982-.233-1.612-.584m-9.101 2.8c-.006.171-.012.343-.035.771-.801.868-1.587 1.479-2.67 2.152-.308-.387-.317-.837-.336-1.622-.003-.507.003-.677.39-1.046 1.137-.217 1.894-.236 2.651-.255"/><path fill="#A3A1F1" d="M116.314 80.957c.198-.676.701-1.424 1.453-2.062-.217.737-.682 1.364-1.453 2.062"/><path fill="#2D72CB" d="M98.132 89.742c-.87.343-1.627.362-2.76.323-2.366-1.796-4.358-3.535-5.985-5.758 4.778-2.089 9.192-3.695 13.606-5.3l-.006 1.08a30 30 0 0 0 .114 1.916c-1.619 2.472-3.237 4.944-4.969 7.74Z"/><path fill="#ECE6E3" d="M76.026 69.081a560 560 0 0 1 3.423-6.516c3.628 1.27 3.272 3.87 2.336 6.821-1.278 4.035-2.337 8.14-3.672 12.476-.457.043-.73-.175-1.082-1.048-.387-4.347-.696-8.04-1.005-11.733"/><path fill="#979DF1" d="M100.681 72.99c.724.44 1.046.884 1.35 2.013-.734 1.444-1.33 2.649-2.189 2.882-3.33.904-6.743 1.498-10.015 1.877 1.767-2.128 3.424-3.926 5.082-5.723 1.79-.348 3.58-.697 5.772-1.049"/><path fill="#3B78D3" d="M94.544 74.016c-1.293 1.82-2.95 3.618-4.918 5.982-.418 1.404-.524 2.24-.63 3.077-1.436.26-2.871.522-4.32.786-.464-4.56 2.465-7.542 9.868-9.845"/><path fill="#6189E5" d="M89.003 83.319c.099-1.08.206-1.917.513-2.99 3.583-.946 6.996-1.54 10.326-2.444.859-.233 1.455-1.438 2.241-2.599.07-.402.489-.337.93-.295.441.041.899.108.899.108-.127 1.153-.254 2.305-.65 3.683-4.683 1.83-9.097 3.436-13.847 5.153-.336.112-.404-.372-.412-.616"/><path fill="#77F0A3" d="M75.76 69.167c.575 3.607.884 7.3 1.136 11.418-.43.426-.805.426-1.459.43-.468-1.419-.658-2.841-1.113-4.184-1.7.478-3.134.876-4.939 1.2.102-2.274.575-4.474.83-6.944.01-.54.237-.81.658-1.27 1.67-.312 3.147-.438 4.888-.65Z"/><path fill="#1E5C91" d="M166.673 155.997c.583.499.842 1.001 1.056 2.047-2.603 4.023-5.16 7.502-7.945 11.223-2.387 1.47-4.548 2.698-6.964 3.703-1.775-1.15-3.294-2.077-4.813-3.005.264-.482.528-.965 1.139-1.882.515-.783.682-1.131 1.199-1.342 1.435-.154 2.521-.446 3.886-.78.798-.53 1.317-1.018 2.222-1.564.897-.837 1.408-1.616 2.207-2.429.987-.659 1.686-1.284 2.385-1.908 1.293-1.129 2.586-2.258 3.944-3.723.496-.337.928-.337 1.684-.34"/><path fill="#35A7EB" d="M153.248 126.874q-.101-.584.541-1.701.1.584-.541 1.701"/><path fill="#3187A2" d="M160.868 159.754c-.522.93-1.221 1.555-2.581 2.144-5.201-2-9.742-3.965-14.282-5.93 1.408-.324 2.815-.647 4.603-.972 4.967-.321 9.41-.261 12.26 4.758"/><path fill="#1E56AE" d="M126.015 190.687c-.907.289-1.605.306-2.927.307-.806-.035-.988-.055-1.249-.411-1.666-4.083-3.253-7.83-4.537-11.751 1.777-1.729 3.249-3.284 5.064-4.896 2.919-.582 5.534-.974 8.065-1.668 2.737-.75 4.385-2.263 2.554-5.321.31-1.108.62-2.217.98-3.671 1.843 1.253 3.635 2.852 5.863 4.888.356 1.911.276 3.385.166 5.257-.375 2.777-.719 5.155-1.334 7.589-.737.554-1.202 1.053-1.667 1.552-3.59 2.618-7.18 5.235-10.978 8.125"/><path fill="#256AB4" d="M137.23 182.826c.228-.763.693-1.262 1.452-1.483.472 1.111.651 1.944 1.147 4.261l8.135-14.589c.006-.175.012-.35.03-.787 1.532.665 3.051 1.592 4.817 3.077.277 1.011.306 1.465.15 2.193-1.397 2.367-2.608 4.46-3.819 6.552 0 0-.042.038-.364.172-1.82 1.682-3.317 3.23-4.814 4.777-.767.61-1.534 1.219-2.854 1.805-1.449-1.003-2.344-1.982-3.24-2.961-.134-.918-.268-1.835-.64-3.017"/><path fill="#277EC1" d="M147.64 171.01c-2.151 4.444-4.626 8.883-7.811 14.594-.496-2.317-.675-3.15-.876-4.316.322-2.712.666-5.09 1.387-7.928 2.144-1.093 3.911-1.727 5.678-2.362.432.003.865.005 1.622.012"/><path fill="#4A80A9" d="M149.995 166.603a6.6 6.6 0 0 1-.73 1.232c-2.461-.205-4.738-.438-6.918-1.028-2.594-.702-5.242-1.614-3.177-5.528 4.012 1.631 7.418 3.478 10.825 5.324"/><path fill="#4E8E9D" d="M156.067 164.455c-.519.488-1.038.976-2.128 1.325-4.377-2.098-8.183-4.057-11.989-6.016.54-.583 1.08-1.167 2.282-1.754 4.386 2.146 8.111 4.295 11.835 6.445"/><path fill="#C5E8A6" d="M156.453 164.397c-4.11-2.092-7.835-4.241-11.907-6.434-.463-.475-.578-.907-.617-1.667 4.616 1.637 9.157 3.602 14.07 5.636-.138.849-.649 1.628-1.546 2.465"/><path fill="#C1E4A6" d="M141.611 159.808c4.145 1.915 7.951 3.874 12.049 6.014-.794.473-1.88.765-3.315.919-3.757-1.984-7.163-3.831-10.926-5.718.381-.417 1.117-.794 2.192-1.215"/><path fill="#256AB4" d="M145.919 170.662c-1.668.971-3.435 1.605-5.548 2.3-.267-1.413-.187-2.887-.239-4.658 1.808.477 3.748 1.25 5.787 2.358"/><path fill="#45B099" d="M97.934 191.964c-.662.327-1.323.654-2.255 1.039-.403-2.615-1.022-5.374-.57-7.944.96-5.449 4.53-8.757 8.688-8.827 4.289-.071 7.126 2.815 8.346 9.058-2.354-3.392-5.433-5.884-9.253-3.051-2.088 1.548-2.71 5.072-4.197 7.907-.389.741-.574 1.28-.76 1.818Z"/><path fill="#2D8782" d="M98.897 189.943c1.283-2.632 1.905-6.156 3.993-7.704 3.82-2.833 6.899-.341 9.33 3.429.563.617.769 1.133.927 2.325-.422 2.446-.796 4.216-1.479 6.049-1.323.761-2.336 1.46-3.461 1.844.138-7.869-.84-8.679-7.328-6.286-.302.112-.586.273-1.155.398-.46-.027-.644-.041-.828-.055Z"/><path fill="#1D5993" d="M132.74 166.744c2.076 3.261.428 4.774-2.309 5.524-2.531.694-5.146 1.086-8.392 1.628-1.779-.646-2.889-1.31-4-1.973.251-.478.502-.957.915-1.665 4.273-.974 8.522-1.502 10.08-6.773 1.217.796 2.339 1.926 3.706 3.259"/><path fill="#2B6FBC" d="M111.976 193.979c.375-1.77.749-3.54 1.167-5.699.652-3.052 1.261-5.714 2.213-8.797.776-.439 1.209-.458 1.643-.477 1.587 3.747 3.174 7.494 4.506 11.604-1.323.672-2.391.982-3.602 1.007a34 34 0 0 0-1.759-2.069c-1.559 2.752-2.946 5.198-4.341 7.242.052-1.205.113-2.008.173-2.811"/><path fill="#4ABFF3" d="M117.302 178.832c-.737.193-1.17.212-1.927.265-3.304-3.535-.232-5.08 2.332-7.041 1.443.53 2.553 1.194 3.99 1.897-1.146 1.595-2.618 3.15-4.395 4.879"/><path fill="#2D75B4" d="M123.715 166.153c.114.241-.081.473-.564.732-.117-.225.065-.481.564-.732"/><path fill="#2887B8" d="M98.841 212.987a235 235 0 0 0-4.53-3.862c.042-1.571.353-2.978.675-4.747.504-.633.995-.902 2.084-1.334 2.156-1.636 3.715-3.109 5.194-4.212-1.195 4.965-2.31 9.56-3.423 14.155"/><path fill="#247C97" d="M102.345 198.462c-1.56 1.473-3.12 2.946-5.022 4.462.147-3.438.636-6.921.868-10.682-.072-.816.113-1.355.502-2.096.387-.189.571-.175 1.218.178 1.103 2.896 1.743 5.455 2.411 8.038.029.024.023.1.023.1"/><path fill="#1C5596" d="M90.753 210.11c1.537 1.856 2.662 3.958 4.149 5.763 1.295 1.572 2.997 2.809 4.941 4.578-5.512.409-8.442-2.167-10.813-9.058.486-.63.977-.898 1.723-1.283"/><path fill="#A3A1F1" d="M104.151 74.855c-.239.244-.697.177-.928.162-.083-1.197.064-2.38.481-3.796 1.246.544 2.221 1.321 3.247 2.438.051.34.04.355.04.355-.867.199-1.734.398-2.84.84Zm2.858-.864q1.245.285 2.48.58l-.289.856c-.639-.3-1.279-.601-2.064-1.157-.145-.256-.134-.271-.127-.279"/><path fill="#A99FEE" d="M103.36 81.941c-.299-.384-.338-.83-.327-1.609.23.294.408.921.327 1.61Z"/><path fill="#A3A1F1" d="M111.521 75.488c.013.029-.013-.028 0 0m.968 1.993c.026-.01-.027.012 0 0"/><path fill="#1E5B9F" d="M178.878 151.799q-.241.087-.743-.588.243-.09.743.588"/><path fill="#1D5E9F" d="M160.011 169.024c2.558-3.478 5.115-6.957 7.837-10.724 5.649.207 6.949 1.605 6.163 4.61 1.84 2.475 3.129 4.209 4.763 6.056.345.111.253.483.209.669-2.858.699-5.671 1.213-9.21 1.944-2.391.33-4.057.442-5.945.301-1.07-1.606-.684-4.659-3.817-2.856"/><path fill="#379CEC" d="M164.051 172.133c1.665-.112 3.331-.224 5.408-.354.669.313.928.643 1.443 1.155-2.744 1.473-5.679 3.596-8.763 3.842-3.667.292-5.805 1.272-6.767 5.135-2.031.16-3.78.084-5.88.074.861-2.027 2.072-4.12 3.845-6.567 3.946-1.331 7.33-2.308 10.714-3.285"/><path fill="#2378C1" d="M137.648 186.115c1.118.707 2.013 1.686 3.202 2.83-1.897 4.511-3.743 9.195-9.834 10.114 1.866-4.237 4.138-8.454 6.632-12.944"/><path fill="#379CEC" d="M144.337 186.993c1.124-1.541 2.621-3.089 4.42-4.753a34 34 0 0 1-4.42 4.753"/><path fill="#CEF7A3" d="M98.952 213.266c1.003-4.874 2.117-9.469 3.312-14.434.081-.37.087-.446.405-.529 1.656-.51 2.995-.937 4.6-1.383.495-.269.724-.52.972-.749.02.021.077.03.077.03 1.014-.699 2.027-1.398 3.35-2.159.248.74.187 1.543.106 2.816-.021.469.101.559-.174.839-.481 1.297-.687 2.315-.893 3.333-1.907 3.653-3.693 7.377-5.787 10.919-.733 1.242-2.223 2.037-3.749 3.103-.958-.458-1.533-.983-2.219-1.786"/><path fill="#254EF2" d="M111.875 197.417s-.122-.09-.093-.157c1.416-2.514 2.803-4.96 4.362-7.712.461.508 1.039 1.146 1.685 2.474-.566 4.788-1.199 8.885-1.837 13.247.007.439.017.614.028.79 0 0-.025-.055-.189.04-.409.26-.596.474-.725.739-1.103.685-2.206 1.37-3.634 2.079-.05-2.321.224-4.667.471-7.872-.04-1.783-.054-2.705-.068-3.628"/><path fill="#2040C1" d="M115.996 205.005c.634-4.098 1.267-8.195 1.975-12.698 1.143-.715 2.211-1.025 3.613-1.361.516-.007.698.013 1.154.052-1.021 4.131-2.315 8.243-3.65 12.738-.2.683-.434.903-1.288 1.134a22 22 0 0 1-1.804.135"/><path fill="#2058C7" d="M115.992 205.269c.424-.279.844-.295 1.577-.319-.118.335-.551.679-1.267 1.066-.293-.133-.303-.308-.31-.747m-.683 1.489c-.074-.185.113-.399.552-.662.085.186-.096.412-.552.662"/><path fill="#2B6FBC" d="M111.6 197.697c.289.643.303 1.565.277 2.946-.227.438-.415.418-.886.392-.078-1.023.128-2.041.609-3.338"/><path fill="#227FBB" d="M163.828 171.88c-3.161 1.23-6.545 2.207-10.305 3.264-.406-.374-.435-.828-.456-1.616 2.169-1.563 4.33-2.791 6.717-4.261 3.36-2.046 2.974 1.007 4.044 2.613"/><path fill="#24728C" d="M107.003 196.939c-1.339.427-2.678.854-4.363 1.34-.986-2.5-1.626-5.059-2.452-7.942.105-.464.389-.625.691-.737 6.488-2.393 7.466-1.583 7.328 6.286.111.315.054.306-.211.345-.507.263-.75.486-.993.708"/><path fill="#2D8782" d="M107.269 196.92c-.023-.204.22-.426.708-.71.016.19-.213.441-.708.71"/></svg>