<svg xmlns="http://www.w3.org/2000/svg" width="22" height="24" fill="none" viewBox="0 0 22 24"><path fill="#FE005B" d="M19.832 4.542 12.895.534a3.97 3.97 0 0 0-3.974 0L1.987 4.542A3.98 3.98 0 0 0 0 7.99v8.02c0 1.423.758 2.736 1.987 3.448l6.935 4.009a3.97 3.97 0 0 0 3.974 0l6.935-4.01a3.98 3.98 0 0 0 1.987-3.447V7.99a3.98 3.98 0 0 0-1.987-3.448m-3.42 8.254-2.063 3.577a1.59 1.59 0 0 1-1.377.797H8.846a1.59 1.59 0 0 1-1.377-.797l-2.063-3.578a1.6 1.6 0 0 1 0-1.59l2.063-3.578a1.59 1.59 0 0 1 1.377-.797h4.126c.57 0 1.094.304 1.377.797l2.063 3.577c.283.49.283 1.099 0 1.592"/></svg>