<svg xmlns="http://www.w3.org/2000/svg" fill="none" viewBox="0 0.3 62.9 49"><mask id="a" width="7" height="18" x="51" y="32" maskUnits="userSpaceOnUse" style="mask-type:alpha"><path fill="#000" d="M57.3 33h-5.5v16.2h5.5z"/></mask><g mask="url(#a)"><path fill="#000" fill-opacity=".5" d="M56.2 33H42.1a1 1 0 0 0-1.1 1v14.2c0 .6.5 1 1 1h14.2c.6 0 1.1-.4 1.1-1V34c0-.6-.5-1-1-1Z"/></g><mask id="c" width="7" height="17" x="51" y="0" maskUnits="userSpaceOnUse" style="mask-type:alpha"><path fill="url(#b)" d="M0 0h5.5v16.3H0z" transform="matrix(-1 0 0 1 57.3 .3)"/></mask><g mask="url(#c)"><path fill="#000" fill-opacity=".5" d="M56.2.3H42.1a1 1 0 0 0-1.1 1v14.2c0 .6.5 1 1 1h14.2c.6 0 1.1-.4 1.1-1V1.3c0-.6-.5-1-1-1Z"/></g><mask id="d" width="3" height="17" x="60" y="0" maskUnits="userSpaceOnUse" style="mask-type:alpha"><path fill="#000" d="M62.9.3H60v16.3h2.8z"/></mask><g mask="url(#d)"><path fill="#000" fill-opacity=".3" d="M61.8.3H47.6a1 1 0 0 0-1 1v14.2c0 .6.4 1 1 1h14.2c.6 0 1-.4 1-1V1.3c0-.6-.4-1-1-1"/></g><mask id="e" width="3" height="18" x="60" y="32" maskUnits="userSpaceOnUse" style="mask-type:alpha"><path fill="#000" d="M62.9 33H60v16.2h2.8z"/></mask><g mask="url(#e)"><path fill="#000" fill-opacity=".3" d="M61.8 33H47.6a1 1 0 0 0-1 1v14.2c0 .6.4 1 1 1h14.2c.6 0 1-.4 1-1V34c0-.6-.4-1-1-1"/></g><path fill="#000" d="M31.5 16.6h-14a1 1 0 0 0-1.1 1v14c0 .7.5 1.1 1 1.1h14.1c.6 0 1.1-.4 1.1-1v-14c0-.6-.5-1-1-1ZM15.2.3H1.1a1 1 0 0 0-1.1 1v14.2c0 .6.5 1 1 1h14.2c.6 0 1.1-.4 1.1-1V1.3c0-.6-.5-1-1-1Zm32.7 0H33.7a1 1 0 0 0-1 1v14.2c0 .6.4 1 1 1H48c.6 0 1-.4 1-1V1.3c0-.6-.4-1-1-1ZM15.2 32.9H1.1a1 1 0 0 0-1.1 1v14.2c0 .6.5 1.1 1 1.1h14.2c.6 0 1.1-.5 1.1-1V34c0-.6-.5-1.1-1-1.1Zm32.7 0H33.7a1 1 0 0 0-1 1v14.2c0 .6.4 1.1 1 1.1H48c.6 0 1-.5 1-1V34c0-.6-.4-1.1-1-1.1Z"/><defs><linearGradient id="b" x1="6" x2=".1" y1="9.1" y2="7.9" gradientUnits="userSpaceOnUse"><stop/><stop offset="1" stop-color="#fff"/></linearGradient></defs></svg>