<svg width="63" height="50" viewBox="0 0 63 50" fill="none" xmlns="http://www.w3.org/2000/svg">
<mask id="mask0_11375_9124" style="mask-type:alpha" maskUnits="userSpaceOnUse" x="51" y="32" width="7" height="18">
<rect width="5.54422" height="16.3218" transform="matrix(-1 0 0 1 57.3105 32.9375)" fill="black"/>
</mask>
<g mask="url(#mask0_11375_9124)">
<path d="M56.2181 32.9375H42.0725C41.4715 32.9375 40.9844 33.4247 40.9844 34.0256V48.171C40.9844 48.772 41.4715 49.2591 42.0725 49.2591H56.2181C56.819 49.2591 57.3062 48.772 57.3062 48.171V34.0256C57.3062 33.4247 56.819 32.9375 56.2181 32.9375Z" fill="black" fill-opacity="0.5"/>
</g>
<mask id="mask1_11375_9124" style="mask-type:alpha" maskUnits="userSpaceOnUse" x="51" y="0" width="7" height="17">
<rect width="5.54422" height="16.3218" transform="matrix(-1 0 0 1 57.3105 0.257812)" fill="url(#paint0_linear_11375_9124)"/>
</mask>
<g mask="url(#mask1_11375_9124)">
<path d="M56.2181 0.257812H42.0725C41.4715 0.257812 40.9844 0.744976 40.9844 1.34592V15.4913C40.9844 16.0923 41.4715 16.5795 42.0725 16.5795H56.2181C56.819 16.5795 57.3062 16.0923 57.3062 15.4913V1.34592C57.3062 0.744976 56.819 0.257812 56.2181 0.257812Z" fill="black" fill-opacity="0.5"/>
</g>
<mask id="mask2_11375_9124" style="mask-type:alpha" maskUnits="userSpaceOnUse" x="60" y="0" width="3" height="17">
<rect width="2.75805" height="16.3218" transform="matrix(-1 0 0 1 62.8672 0.257812)" fill="black"/>
</mask>
<g mask="url(#mask2_11375_9124)">
<path d="M61.7747 0.257812H47.6291C47.0282 0.257812 46.541 0.744976 46.541 1.34592V15.4913C46.541 16.0923 47.0282 16.5795 47.6291 16.5795H61.7747C62.3757 16.5795 62.8629 16.0923 62.8629 15.4913V1.34592C62.8629 0.744976 62.3757 0.257812 61.7747 0.257812Z" fill="black" fill-opacity="0.3"/>
</g>
<mask id="mask3_11375_9124" style="mask-type:alpha" maskUnits="userSpaceOnUse" x="60" y="32" width="3" height="18">
<rect width="2.75805" height="16.3218" transform="matrix(-1 0 0 1 62.877 32.9375)" fill="black"/>
</mask>
<g mask="url(#mask3_11375_9124)">
<path d="M61.7845 32.9375H47.6389C47.038 32.9375 46.5508 33.4247 46.5508 34.0256V48.171C46.5508 48.772 47.038 49.2591 47.6389 49.2591H61.7845C62.3855 49.2591 62.8726 48.772 62.8726 48.171V34.0256C62.8726 33.4247 62.3855 32.9375 61.7845 32.9375Z" fill="black" fill-opacity="0.3"/>
</g>
<path d="M31.5287 16.6172H17.4502C16.852 16.6172 16.3672 17.0986 16.3672 17.6924V31.6702C16.3672 32.2641 16.852 32.7455 17.4502 32.7455H31.5287C32.1268 32.7455 32.6117 32.2641 32.6117 31.6702V17.6924C32.6117 17.0986 32.1268 16.6172 31.5287 16.6172Z" fill="black"/>
<path d="M15.2337 0.257812H1.08812C0.487169 0.257812 0 0.744976 0 1.34592V15.4913C0 16.0923 0.487169 16.5795 1.08812 16.5795H15.2337C15.8347 16.5795 16.3218 16.0923 16.3218 15.4913V1.34592C16.3218 0.744976 15.8347 0.257812 15.2337 0.257812Z" fill="black"/>
<path d="M47.8704 0.257812H33.7248C33.1239 0.257812 32.6367 0.744976 32.6367 1.34592V15.4913C32.6367 16.0923 33.1239 16.5795 33.7248 16.5795H47.8704C48.4714 16.5795 48.9586 16.0923 48.9586 15.4913V1.34592C48.9586 0.744976 48.4714 0.257812 47.8704 0.257812Z" fill="black"/>
<path d="M15.2337 32.9004H1.08812C0.487169 32.9004 0 33.3876 0 33.9885V48.1339C0 48.7349 0.487169 49.222 1.08812 49.222H15.2337C15.8347 49.222 16.3218 48.7349 16.3218 48.1339V33.9885C16.3218 33.3876 15.8347 32.9004 15.2337 32.9004Z" fill="black"/>
<path d="M47.8704 32.9004H33.7248C33.1239 32.9004 32.6367 33.3876 32.6367 33.9885V48.1339C32.6367 48.7349 33.1239 49.222 33.7248 49.222H47.8704C48.4714 49.222 48.9586 48.7349 48.9586 48.1339V33.9885C48.9586 33.3876 48.4714 32.9004 47.8704 32.9004Z" fill="black"/>
<defs>
<linearGradient id="paint0_linear_11375_9124" x1="6.01807" y1="9.10319" x2="0.0559558" y2="7.89601" gradientUnits="userSpaceOnUse">
<stop/>
<stop offset="1" stop-color="white"/>
</linearGradient>
</defs>
</svg>
