<svg xmlns="http://www.w3.org/2000/svg" width="533.3" height="533.3" version="1.0" viewBox="0 0 400 400"><path d="M12 5a188.8 188.8 0 0 0 42.1 113.5 211.5 211.5 0 0 0 46.7 41.1l3.2 1.9 34.5-34.5c19-19 34.5-34.8 34.5-35.2 0-.5-.5-.8-1.1-.8a98 98 0 0 1-24.8-12.1 94.6 94.6 0 0 1-41.8-70.7l-.6-8.2H12zm141.6-.8a45.6 45.6 0 0 0 12.7 27.5c9 9.5 20.2 14.3 33.7 14.3 16.4 0 29.5-7 38.2-20.4A51.7 51.7 0 0 0 246 3.4V0h-93zm140.7 5.6c-2 16.2-7.4 31-16.6 44.7-2.5 3.8-44.1 46.2-113.2 115.5A5195 5195 0 0 0 49.8 287a205.4 205.4 0 0 0-27.6 52.1A204 204 0 0 0 12 395v5h93v-5.3c0-7.6 3.3-22.1 7-31 7.2-17.3 5.5-15.5 121.9-132.2 69.2-69.3 111.1-112 115-117.2A190.5 190.5 0 0 0 387.5 8.2L388 0h-92.6zm-33.6 264-34.8 34.8 4.3 1.3a94.6 94.6 0 0 1 64 80.2l1.2 9.9h92.7l-.6-8.3a193.5 193.5 0 0 0-19.9-76.1 194.4 194.4 0 0 0-55.1-65.8A117 117 0 0 0 296 239c-.3 0-16.2 15.7-35.3 34.8m-76.2 82.5c-7.9 3-13.1 6.4-18.1 11.9a49 49 0 0 0-12.7 27.5l-.5 4.3H246v-3.3a46.2 46.2 0 0 0-26.7-38.5 32.5 32.5 0 0 0-18.3-3.9c-9-.3-11.4 0-16.5 2"/></svg>