<svg xmlns="http://www.w3.org/2000/svg" fill="none" viewBox="0 0 390 221"><path d="M15.9144 0H186.641c3.089 0 5.59 2.4426 5.59 5.4596v78.1278c0 4.878-2.91 9.3053-7.444 11.3336l-21.504 9.64c-1.05.472-1.727 1.497-1.727 2.631 0 1.12.655 2.13 1.69 2.61l21.698 10.076c4.451 2.065 7.287 6.448 7.287 11.268v84.387c0 3.017-2.501 5.46-5.59 5.46H15.9144C7.1235 220.993 0 214.036 0 205.45V15.5427C0 6.9571 7.1235 0 15.9144 0Zm92.5986 147.328c4.354 0 7.458-.574 9.304-1.715 2.01-1.149 3.015-3.272 3.015-6.383v-.494c0-3.272-1.087-5.569-3.268-6.878-2.01-1.308-5.448-1.962-10.309-1.962H75.426v17.432h33.087Zm-1.504-59.6695c7.712 0 11.568-2.7044 11.568-8.1058v-1.2286c0-3.1114-1.005-5.2414-3.015-6.3828-1.846-1.3085-4.943-1.9628-9.305-1.9628H75.4334v17.68h31.5836-.008Zm99.692 41.5025h70.357c0 5.569 1.005 9.415 3.015 11.545 2.181 2.13 5.277 3.191 9.304 3.191 6.871 0 10.31-3.846 10.31-11.544 0-3.766-1.176-6.463-3.521-8.106-2.181-1.636-5.531-2.457-10.056-2.457h-38.722V93.3071l59.586-14.4886H206.701c-2.798 0-5.069-2.2173-5.069-4.9507V4.1365C201.632 1.8538 203.53 0 205.868 0h164.95c8.791 0 15.914 6.9571 15.914 15.5427v55.7298c0 6.2956-4.429 11.7697-10.696 13.2309l-65.288 15.1938 3.015.4948h62.31c7.689 0 13.927 6.092 13.927 13.601v91.664c0 8.586-7.124 15.543-15.914 15.543H205.868c-2.338 0-4.236-1.854-4.236-4.136v-82.752c0-2.733 2.271-4.951 5.069-4.951Z" fill="#3368EF" style="fill:color(display-p3 .2 .4078 .9373);fill-opacity:1"/></svg>