<svg xmlns="http://www.w3.org/2000/svg" fill="none" viewBox="0 0 600 600"><path fill="#000" d="M0 0h600v600H0z"/><path fill="#fff" d="M304.7 114a98 98 0 0 0-4.4 15.7c-3.2 16.8-.2 28.9 9 36 8.6 6.6 33.7 17.4 60.1 28.8 8.7 3.7 17.6 7.5 26.6 11.5-10.3-34-61.4-72.8-91.3-92"/><path fill="#fff" d="M252.1 145.4c-33 27.8-50.4 52.7-50.4 72.2 0 38.6 72.7 65.2 100.7 72.2 4.3 1.1 96.6 24.7 114.4 75.9 9.3-5.7 22.3-14 35.2-22.9 45-31.2 46.4-42.1 46.5-42.6 0-6-5.7-19.3-43.6-41.2-27.8-16.1-63.1-31.3-94.3-44.8-30.2-13-54-23.2-64.8-31.6-19.9-15.3-20.7-38.7-16.9-57.8a410 410 0 0 0-26.8 20.6M290.2 435c-8.7-6.7-33.7-17.4-60.2-28.9l-26.5-11.5c10.3 34 61.4 72.8 91.2 92 1.7-4.4 3.4-9.9 4.5-15.7 3.2-16.7.1-28.8-9-35.9"/><path fill="#fff" d="M347.3 455.2c33-27.8 50.5-52.7 50.5-72.2 0-38.6-72.7-65.2-100.8-72.2-4.3-1.1-96.5-24.6-114.3-75.8a738 738 0 0 0-35.2 22.8c-45 31.3-46.5 42.1-46.5 42.6 0 6 5.7 19.2 43.6 41.2 27.8 16.1 63.1 31.3 94.3 44.8 30.1 13 54 23.2 64.8 31.6 19.8 15.3 20.7 38.7 16.9 57.8 8.2-5.8 17.5-12.8 26.8-20.6Z"/></svg>