<svg xmlns="http://www.w3.org/2000/svg" width="316" height="309" fill="none" viewBox="0 0 316 309"><path fill="#010205" d="M0 44.205C0 19.79 19.73 0 44.068 0H316c0 48.827-39.46 88.41-88.136 88.41H44.068C19.73 88.41 0 68.617 0 44.204M0 264.15c0-24.413 19.73-44.205 44.068-44.205h183.796c48.676 0 88.136 39.583 88.136 88.41H44.068C19.73 308.355 0 288.564 0 264.15m0-109.973c0-24.413 19.73-44.204 44.068-44.204h93.51c48.676 0 88.136 39.582 88.136 88.409H44.068C19.73 198.382 0 178.591 0 154.177"/></svg>