<svg width="316" height="309" viewBox="0 0 316 309" fill="none" xmlns="http://www.w3.org/2000/svg">
<path d="M0 44.2047C0 19.7911 19.7299 0 44.068 0H316C316 48.8272 276.54 88.4094 227.864 88.4094H44.068C19.7299 88.4094 0 68.6183 0 44.2047Z" fill="#010205"/>
<path d="M0 264.15C0 239.737 19.7299 219.945 44.068 219.945H227.864C276.54 219.945 316 259.528 316 308.355H44.068C19.7299 308.355 0 288.564 0 264.15Z" fill="#010205"/>
<path d="M0 154.177C0 129.764 19.7299 109.973 44.068 109.973H137.578C186.254 109.973 225.714 149.555 225.714 198.382H44.0681C19.73 198.382 0 178.591 0 154.177Z" fill="#010205"/>
</svg>
