<svg xmlns="http://www.w3.org/2000/svg" xml:space="preserve" viewBox="0 0 550 604"><path d="M499.5 114.6 325 13.9C294.1-4 255.9-4 225 13.9L50.5 114.6c-30.9 17.9-50 50.9-50 86.6v201.5c0 35.7 19.1 68.7 50 86.6L225 590.1c30.9 17.9 69.1 17.9 100 0l174.5-100.8c30.9-17.9 50-50.9 50-86.6V201.2c0-35.7-19-68.7-50-86.6m-86 207.4-51.9 89.9c-7.1 12.4-20.3 20-34.6 20H223.1c-14.3 0-27.5-7.6-34.6-20l-52-89.9c-7.1-12.4-7.1-27.6 0-40l51.9-89.9c7.1-12.4 20.3-20 34.6-20h103.8c14.3 0 27.5 7.6 34.6 20l51.9 89.9c7.3 12.4 7.3 27.6.2 40" style="fill:#fe005b"/><path d="m413.5 322-51.9 89.9c-7.1 12.4-20.3 20-34.6 20H223.1c-14.3 0-27.5-7.6-34.6-20l-52-89.9c-7.1-12.4-7.1-27.6 0-40l51.9-89.9c7.1-12.4 20.3-20 34.6-20h103.8c14.3 0 27.5 7.6 34.6 20l51.9 89.9c7.3 12.4 7.3 27.6.2 40" style="fill:#fff1f8"/></svg>