<svg xmlns="http://www.w3.org/2000/svg" width="1000" height="1000">
  <path d="m482.8046875-.203125 3.84912109-.02125549C490.72757855-.24177847 494.8012009-.24881422 498.875-.25l2.10379791-.00133896C521.80861125-.25829087 542.33964686.06325586 563 3l3.88427734.52001953C619.53355204 10.60001102 670.22453511 25.83351076 718 49c1.85019529.87904335 3.70045383 1.75795358 5.55078125 2.63671875C744.99043906 61.9560776 765.50971667 74.36715687 785 88l2.24267578 1.56445312C798.21317382 97.25665324 808.71544534 105.4167936 819 114l1.74511719 1.44482422 1.68457031 1.39501953 1.44873047 1.19897461c11.45149466 9.64490933 22.26285523 19.9317302 32.82617187 30.53540039 1.68716974 1.69259472 3.37971212 3.37968722 5.07275391 5.06640625C867.39813158 159.25766694 872.87632518 164.91902079 878 171c.87671514 1.00988706 1.75427139 2.01904477 2.6328125 3.02734375C888.10824911 182.75649778 895.13010092 191.78831927 902 201l1.64990234 2.20849609C912.01488513 214.4570985 919.70451247 226.03232327 927 238l1.29931641 2.11865234C935.81148674 252.42008773 942.50564666 265.13692179 949 278l1.42675781 2.82080078c30.88884684 61.55041064 49.5195575 132.90825808 49.77636719 201.98388672l.02125549 3.84912109c.01739798 4.07376996.02443373 8.14739231.02561951 12.22119141l.00133896 2.10379791C1000.25829087 521.80861125 999.93674414 542.33964686 997 563l-.52001953 3.88427734C989.39998898 619.53355204 974.16648924 670.22453511 951 718c-.87904335 1.85019529-1.75795358 3.70045383-2.63671875 5.55078125C938.0439224 744.99043906 925.63284313 765.50971667 912 785l-1.56445312 2.24267578C902.74334676 798.21317382 894.5832064 808.71544534 886 819l-1.44482422 1.74511719-1.39501953 1.68457031-1.19897461 1.44873047c-9.64490933 11.45149466-19.9317302 22.26285523-30.53540039 32.82617187-1.69259472 1.68716974-3.37968722 3.37971212-5.06640625 5.07275391C840.74233306 867.39813158 835.08097921 872.87632518 829 878c-1.00988706.87671514-2.01904477 1.75427139-3.02734375 2.6328125C817.24350222 888.10824911 808.21168073 895.13010092 799 902l-2.20849609 1.64990234C785.5429015 912.01488513 773.96767673 919.70451247 762 927l-2.11865234 1.29931641C747.57991227 935.81148674 734.86307821 942.50564666 722 949l-2.82080078 1.42675781c-61.55041064 30.88884684-132.90825808 49.5195575-201.98388672 49.77636719l-3.84912109.02125549c-4.07376996.01739798-8.14739231.02443373-12.22119141.02561951l-2.10379791.00133896C478.19138875 1000.25829087 457.66035314 999.93674414 437 997l-3.88427734-.52001953C380.46644796 989.39998898 329.77546489 974.16648924 282 951c-1.85019529-.87904335-3.70045383-1.75795358-5.55078125-2.63671875C255.00956094 938.0439224 234.49028333 925.63284313 215 912l-2.24267578-1.56445312C201.78682618 902.74334676 191.28455466 894.5832064 181 886l-1.74511719-1.44482422-1.68457031-1.39501953-1.44873047-1.19897461c-11.45149466-9.64490933-22.26285523-19.9317302-32.82617187-30.53540039-1.68716974-1.69259472-3.37971212-3.37968722-5.07275391-5.06640625C132.60186842 840.74233306 127.12367482 835.08097921 122 829c-.87671514-1.00988706-1.75427139-2.01904477-2.6328125-3.02734375C111.89175089 817.24350222 104.86989908 808.21168073 98 799l-1.64990234-2.20849609C87.98511487 785.5429015 80.29548753 773.96767673 73 762l-1.29931641-2.11865234C64.18851326 747.57991227 57.49435334 734.86307821 51 722l-1.42675781-2.82080078C18.68439535 657.62878858.05368469 586.27094114-.203125 517.1953125l-.02125549-3.84912109C-.24177847 509.27242145-.24881422 505.1987991-.25 501.125l-.00133896-2.10379791C-.25829087 478.19138875.06325586 457.66035314 3 437l.52001953-3.88427734C10.60001102 380.46644796 25.83351076 329.77546489 49 282c.87904335-1.85019529 1.75795358-3.70045383 2.63671875-5.55078125C61.9560776 255.00956094 74.36715687 234.49028333 88 215l1.56445312-2.24267578C97.25665324 201.78682618 105.4167936 191.28455466 114 181l1.44482422-1.74511719 1.39501953-1.68457031 1.19897461-1.44873047c9.64490933-11.45149466 19.9317302-22.26285523 30.53540039-32.82617187 1.69259472-1.68716974 3.37968722-3.37971212 5.06640625-5.07275391C159.25766694 132.60186842 164.91902079 127.12367482 171 122c1.00988706-.87671514 2.01904477-1.75427139 3.02734375-2.6328125C182.75649778 111.89175089 191.78831927 104.86989908 201 98l2.20849609-1.64990234C214.4570985 87.98511487 226.03232327 80.29548753 238 73l2.11865234-1.29931641C252.42008773 64.18851326 265.13692179 57.49435334 278 51l2.82080078-1.42675781C342.37121142 18.68439535 413.72905886.05368469 482.8046875-.203125Z" fill="#0F0F0F"/>
  <path d="M510.5 289.375c7.98398699 7.67756532 14.81836475 19.55615284 15.66113281 30.76879883C526.45198467 336.16601602 525.75322001 350.55685873 518 365l-1.3046875 2.546875C510.98474937 377.93558307 502.78482598 386.11673112 491.625 390.25c-7.90037252 1.63455983-15.21649219 1.12617989-22.625-2.25-6.17275159-4.11162627-10.07545403-9.02825624-12.75-15.9375-1.08854607-8.98050507-1.08854607-8.98050507 1.6875-12.5625 1.71570489-1.40057542 3.43234-2.80001974 5.15234375-4.1953125C469.12627197 350.20725923 473.21878489 344.935493 477 338l1.3203125-2.328125c2.63026108-5.40766964 3.05199594-10.50146854 3.1171875-16.421875l.03100586-2.18603516C481.39007964 312.32219475 480.47936183 309.03123623 478 305c-3.14462035-2.84981219-5.83178891-3.85695374-10.0625-4.375-7.60104541.72390909-14.0926958 4.59568275-19.2265625 10.1875-10.35339095 13.23721218-16.74252782 29.21691018-22.0859375 45l-.73101807 2.134552c-7.43514695 21.7969147-13.63574625 44.00538573-20.01638794 66.1280365C402.99080228 434.07211074 400.01780227 444.04182652 397 454l3.23925781-.69873047C420.90440348 448.97029839 442.56439788 448.49076817 461 460c6.49329113 5.02911764 11.14800812 11.08502186 12.33984375 19.359375C473.54529243 484.2572716 472.84503793 487.87960024 470 492c-3.57920861 2.58658071-6.02788678 3.37044902-10.41918945 3.32470703l-3.22224427-.01046753-3.47184753-.056427-3.63993835-.02005005c-3.85335402-.02338773-7.70613333-.06694046-11.5592804-.11276245-5.01688646-.04707664-10.03377721-.08512839-15.05078125-.1171875l-3.71194458-.02630615C407.26450895 494.9318195 395.64150986 495.36966479 384 496l-.38298035 1.97299194c-.93341459 4.74815971-1.91285753 9.45284899-3.1678009 14.12857056l-.859375 3.20703125L378.6875 518.625l-.9453125 3.49609375c-1.98134024 7.26491422-4.13482803 14.43779572-6.44140625 21.60546875-1.71831444 5.49914191-3.14264572 11.07916202-4.61328125 16.6484375-2.72249223 10.30054786-5.71522106 20.48989316-8.93481445 30.64599609-1.58379057 5.0268663-3.05073616 10.04120126-4.29956055 15.16259766C352.20890473 611.28473118 350.70899064 616.22523141 349 621.1875c-.62319884 1.83045597-1.24553387 3.66120617-1.8671875 5.4921875l-1.03027344 3.03027344c-1.21022866 3.61139092-2.38116302 7.23474802-3.54785156 10.86035156-7.76761833 24.03737852-16.70817223 47.47682758-27.4296875 70.3671875l-1.25976562 2.72314453C308.83993683 724.0755936 301.97949755 733.36630899 291 737.875c-7.73058797 2.25867614-18.05973125 2.46244753-25.75-.0625-4.06794025-2.26865898-6.18645526-4.68541051-8.25-8.8125-.39275761-7.99862069 2.67875261-14.35201795 6.2010498-21.34402466 14.99164515-29.91149122 27.55578583-62.80371061 36.09020997-95.15621948.83378482-2.94079326 1.89177749-5.74649646 3.00317382-8.59106445 1.23536897-3.34190817 2.10666558-6.77970793 3.01806641-10.22119141 1.70755693-6.30256785 3.55501389-12.5367311 5.5625-18.75 2.69393892-8.3743712 5.092334-16.81620358 7.43994141-25.29345703C320.40543867 542.1004761 322.55344088 534.57587066 324.75 527.0625l.85327148-2.9206543C327.3771403 518.08699077 329.17957779 512.04101372 331 506c-2.79239973.64279009-5.58390584 1.28908665-8.375 1.9375l-2.40625.55273438-2.3046875.53710937-2.12646484.49194336C313.91605426 509.9588074 313.91605426 509.9588074 312 511c-4.76980437.70663768-9.17134517 1.06842754-13.43359375-1.421875-4.45978884-3.82969023-7.23363962-7.01106816-8.00390625-12.953125.53490724-4.43208855 2.38385671-6.57487647 5.4375-9.625 12.25116919-9.43145564 33.00878911-22 49-22l.37915039-3.08520508c.58343342-3.67886544 1.44178078-7.00200481 2.55444336-10.55151367.40051285-1.29409543.80098284-2.58820413 1.20141602-3.88232422l.64187622-2.05316162c3.78370307-12.11547072 7.33394531-24.27759907 10.66540527-36.52478027C366.15908045 387.90535507 372.36291891 367.01066313 381 347l.96679688-2.296875c11.28058016-26.7204804 26.91933683-51.95851111 54.47851562-64.23828125C460.59774532 271.19830633 489.85896613 272.55782496 510.5 289.375Z" fill="#C3D86E"/>
  <path d="M584 429c2.48692795 1.90831384 2.98398734 2.95196203 4 6 .06143341 2.44009841.06794289 4.85052594.02734375 7.2890625-.01449848 1.50162209-.02838949 3.00325015-.04174805 4.50488281l-.02523803 2.38830567C587.81338027 464.88940559 588.26372991 480.37356918 590 496l.37304688 3.36523438c.61139909 5.39308752 1.251484 10.78263153 1.94335937 16.16601562l.32641602 2.54882812C592.81296265 520.00157917 592.81296265 520.00157917 594 521l1.984375-3.375C602.37257254 506.88993733 609.23680609 496.78505121 617 487l1.29345703-1.6484375C636.06500538 462.87680848 662.45232464 434.79047851 692 429c12.84337196-.86063833 24.93443229.33368161 35 9 2 3 2 3 2.625 5.875C729 447 729 447 726 449.375c-2.7949668 1.55494632-5.64999153 2.93849149-8.53125 4.328125C702.93810096 460.71735435 690.26467238 469.50708253 678 480c-1.16752708.98229603-2.33552317 1.96403479-3.50390625 2.9453125-5.79098657 4.88739563-11.42517522 9.81105836-16.703125 15.2578125-1.8798524 1.88394794-3.83884714 3.62315982-5.85546875 5.359375-5.86394921 5.06223741-11.07012459 10.53779566-16.12109375 16.40234375C633.94771168 522.05858541 631.99955265 524.03126897 630 526c-3.87969951 3.83519053-7.46798579 7.84468916-11 12l-1.31152344 1.5390625C614.44468024 543.34747867 611.20889082 547.16210761 608 551l-2.39453125 2.58203125c-1.88479441 2.26461508-1.88479441 2.26461508-1.30102539 4.74829102.68341524 2.62307675 1.41624921 5.21340938 2.21899414 7.80249023l.90625 2.9453125L608.375 572.125c1.81517053 5.86084723 3.59777868 11.71029477 5.14453125 17.6484375C615.45183747 596.94635348 618.69096636 603.37829241 622 610l1.5078125 3.0859375C627.53808173 620.94826599 632.74474163 629.14754609 641 633c2.77721165.37318781 5.22589868.56997065 8 .5625l2.26953125.00585938c6.44457864-.18115085 11.15758293-2.19464522 16.83984375-5.22851563C672.3483655 626.37501437 675.4065502 626.46409752 680 627c1.67198326 1.67198326 1.25132096 3.64167608 1.3125 5.9375-.15360152 11.87339725-6.49656334 20.57197791-14.75 28.625-3.85267414 3.22689732-8.10264884 5.48644713-12.5625 7.75l-2.01342773 1.02368164c-11.67800932 5.67037174-25.37779398 6.98176753-37.79907227 2.85131836C602.7229078 668.10643854 594.36944638 657.8210057 587 648l-1.60546875-2.12890625C578.53572959 636.18050803 573.77715808 624.94411155 569 614.125l-.91772461-2.07250977C566 607.24963562 566 607.24963562 566 605c-3.41829367 3.1836282-6.04529611 6.73805185-8.6875 10.5625-6.44666328 9.16550978-13.5111907 17.69336659-21.06640625 25.96875-1.50311974 1.65212465-2.99011401 3.31905887-4.4609375 5C517.94206339 662.29631885 517.94206339 662.29631885 510 665v2c-2.51953125 1.69140625-2.51953125 1.69140625-5.8125 3.5625l-3.26953125 1.87890625c-5.67271526 3.03000454-11.03162907 3.5755193-17.26171875 1.9453125C477.71260545 672.07643225 473.2071678 668.56827292 470 663c-1.03079991-3.29629422-1.1229046-5.72040562 0-9 2.27424962-2.87787083 5.04101997-4.86161802 8-7 1.56793905-1.24317069 3.13023539-2.49348371 4.6875-3.75l2.5625-2.0390625c20.48749239-16.47147826 39.66259679-34.49668898 55.48144531-55.56591797 1.28296984-1.66371261 2.61960342-3.26645326 3.97949219-4.86767578 5.16001933-5.84563199 5.16001933-5.84563199 6.6640625-13.15234375-1.0017611-3.7332712-2.35587557-7.31319111-3.703125-10.93359375-2.75447426-7.67980545-4.86421738-15.45917033-6.796875-23.37890625l-.52148438-2.12939453C539.20308313 526.46269703 538.09097878 521.73449559 537 517l-.65136719-2.80322266c-2.23261093-10.02611506-2.6948221-20.13636993-2.87231445-30.37988281-.02536904-1.39162732-.05918915-2.7831331-.10253906-4.17431641-.32578453-11.76842795 1.89838475-21.93062635 9.2668457-31.38867187C553.55439269 436.99704107 567.07352402 425.77729188 584 429Z" fill="#AFC45D"/>
</svg>
