<svg xmlns="http://www.w3.org/2000/svg" width="1000" height="1000"><path fill="#0F0F0F" d="m482.805-.203 3.849-.021a3070.9 3070.9 0 0 1 12.221-.026l2.104-.001C521.809-.258 542.339.063 563 3l3.884.52C619.534 10.6 670.224 25.834 718 49l5.55 2.637C744.99 61.957 765.51 74.367 785 88l2.243 1.564C798.213 97.257 808.715 105.417 819 114l1.745 1.445 1.685 1.395 1.448 1.199c11.452 9.645 22.263 19.932 32.827 30.535 1.687 1.693 3.38 3.38 5.072 5.067 5.621 5.617 11.1 11.278 16.223 17.359.877 1.01 1.754 2.019 2.633 3.027 7.475 8.73 14.497 17.761 21.367 26.973l1.65 2.208c8.365 11.25 16.055 22.824 23.35 34.792l1.3 2.119C935.81 252.42 942.505 265.137 949 278l1.427 2.82c30.889 61.551 49.52 132.91 49.776 201.985l.021 3.849c.018 4.074.025 8.147.026 12.221l.001 2.104c.007 20.83-.314 41.36-3.251 62.021l-.52 3.884C989.4 619.534 974.166 670.224 951 718l-2.637 5.55c-10.32 21.44-22.73 41.96-36.363 61.45l-1.564 2.243C902.743 798.213 894.583 808.715 886 819l-1.445 1.745-1.395 1.685-1.199 1.448c-9.645 11.452-19.932 22.263-30.535 32.827-1.693 1.687-3.38 3.38-5.067 5.072-5.617 5.621-11.278 11.1-17.359 16.223-1.01.877-2.019 1.754-3.027 2.633-8.73 7.475-17.761 14.497-26.973 21.367l-2.208 1.65c-11.25 8.365-22.824 16.055-34.792 23.35l-2.119 1.3C747.58 935.81 734.863 942.505 722 949l-2.82 1.427c-61.551 30.889-132.91 49.52-201.985 49.776l-3.849.021a3070.9 3070.9 0 0 1-12.221.026l-2.104.001c-20.83.007-41.36-.314-62.021-3.251l-3.884-.52C380.466 989.4 329.776 974.166 282 951l-5.55-2.637c-21.44-10.32-41.96-22.73-61.45-36.363l-2.243-1.564C201.787 902.743 191.285 894.583 181 886l-1.745-1.445-1.685-1.395-1.448-1.199c-11.452-9.645-22.263-19.932-32.827-30.535-1.687-1.693-3.38-3.38-5.072-5.067-5.621-5.617-11.1-11.278-16.223-17.359-.877-1.01-1.754-2.019-2.633-3.027C111.892 817.243 104.87 808.212 98 799l-1.65-2.208C87.985 785.542 80.295 773.968 73 762l-1.3-2.119C64.19 747.58 57.495 734.863 51 722l-1.427-2.82C18.684 657.628.053 586.27-.203 517.194l-.021-3.849a3070.9 3070.9 0 0 1-.026-12.221l-.001-2.104C-.258 478.191.063 457.661 3 437l.52-3.884C10.6 380.466 25.834 329.776 49 282l2.637-5.55C61.957 255.01 74.367 234.49 88 215l1.564-2.243C97.257 201.787 105.417 191.285 114 181l1.445-1.745 1.395-1.685 1.199-1.448c9.645-11.452 19.932-22.263 30.535-32.827 1.693-1.687 3.38-3.38 5.067-5.072 5.617-5.621 11.278-11.1 17.359-16.223 1.01-.877 2.019-1.754 3.027-2.633C182.757 111.892 191.788 104.87 201 98l2.208-1.65C214.458 87.985 226.032 80.295 238 73l2.119-1.3C252.42 64.19 265.137 57.495 278 51l2.82-1.427C342.372 18.684 413.73.053 482.806-.203Z"/><path fill="#C3D86E" d="M510.5 289.375c7.984 7.678 14.818 19.556 15.661 30.769.291 16.022-.408 30.413-8.161 44.856l-1.305 2.547c-5.71 10.389-13.91 18.57-25.07 22.703-7.9 1.635-15.216 1.126-22.625-2.25-6.173-4.112-10.075-9.028-12.75-15.938-1.089-8.98-1.089-8.98 1.688-12.562 1.715-1.4 3.432-2.8 5.152-4.195 6.036-5.098 10.129-10.37 13.91-17.305l1.32-2.328c2.63-5.408 3.052-10.502 3.118-16.422l.03-2.186c-.078-4.742-.989-8.033-3.468-12.064-3.145-2.85-5.832-3.857-10.063-4.375-7.6.724-14.092 4.596-19.226 10.188-10.353 13.237-16.743 29.216-22.086 45l-.731 2.134c-7.435 21.797-13.636 44.005-20.016 66.128A2376.7 2376.7 0 0 1 397 454l3.24-.699c20.664-4.33 42.324-4.81 60.76 6.699 6.493 5.03 11.148 11.085 12.34 19.36.205 4.897-.495 8.52-3.34 12.64-3.58 2.587-6.028 3.37-10.42 3.325l-3.221-.01-3.472-.057-3.64-.02a1985.42 1985.42 0 0 1-11.56-.113c-5.016-.047-10.033-.085-15.05-.117l-3.712-.026c-11.66-.05-23.283.388-34.925 1.018l-.383 1.973c-.933 4.748-1.913 9.453-3.168 14.129l-.86 3.207-.901 3.316-.946 3.496a499.173 499.173 0 0 1-6.441 21.606c-1.719 5.499-3.143 11.079-4.613 16.648-2.723 10.3-5.716 20.49-8.935 30.646-1.584 5.027-3.051 10.041-4.3 15.163-1.244 5.1-2.744 10.041-4.453 15.004-.623 1.83-1.246 3.66-1.867 5.492l-1.03 3.03a950.018 950.018 0 0 0-3.548 10.86c-7.768 24.038-16.708 47.477-27.43 70.367l-1.26 2.724c-5.025 10.415-11.886 19.705-22.865 24.214-7.73 2.259-18.06 2.462-25.75-.063-4.068-2.268-6.186-4.685-8.25-8.812-.393-7.999 2.679-14.352 6.201-21.344 14.992-29.912 27.556-62.804 36.09-95.156.834-2.941 1.892-5.747 3.003-8.591 1.236-3.342 2.107-6.78 3.018-10.221a407.489 407.489 0 0 1 5.563-18.75c2.694-8.375 5.092-16.817 7.44-25.294 2.09-7.544 4.238-15.068 6.435-22.582l.853-2.92c1.774-6.055 3.577-12.101 5.397-18.142-2.792.643-5.584 1.29-8.375 1.938l-2.406.552-2.305.537-2.126.492c-1.872.44-1.872.44-3.788 1.481-4.77.707-9.171 1.068-13.434-1.422-4.46-3.83-7.233-7.01-8.003-12.953.534-4.432 2.383-6.575 5.437-9.625 12.251-9.431 33.009-22 49-22l.38-3.085c.583-3.68 1.44-7.002 2.554-10.552l1.201-3.882.642-2.053a1024.654 1024.654 0 0 0 10.665-36.525C366.16 387.905 372.362 367.011 381 347l.967-2.297c11.28-26.72 26.92-51.958 54.478-64.238 24.153-9.267 53.414-7.907 74.055 8.91Z"/><path fill="#AFC45D" d="M584 429c2.487 1.908 2.984 2.952 4 6 .061 2.44.068 4.85.027 7.29a5934.58 5934.58 0 0 0-.041 4.504l-.026 2.388c-.147 15.707.304 31.192 2.04 46.818l.373 3.365c.611 5.393 1.252 10.783 1.943 16.166l.327 2.55c.17 1.92.17 1.92 1.357 2.919l1.984-3.375C602.373 506.89 609.237 496.785 617 487l1.293-1.648C636.065 462.877 662.453 434.79 692 429c12.843-.86 24.934.334 35 9 2 3 2 3 2.625 5.875C729 447 729 447 726 449.375c-2.795 1.555-5.65 2.938-8.531 4.328-14.53 7.014-27.204 15.804-39.469 26.297a5249.98 5249.98 0 0 1-3.504 2.945c-5.79 4.888-11.425 9.811-16.703 15.258-1.88 1.884-3.839 3.623-5.856 5.36-5.863 5.062-11.07 10.537-16.12 16.402-1.87 2.094-3.817 4.066-5.817 6.035-3.88 3.835-7.468 7.845-11 12l-1.312 1.54A1643.24 1643.24 0 0 0 608 551l-2.395 2.582c-1.884 2.265-1.884 2.265-1.3 4.748a176.802 176.802 0 0 0 2.218 7.803l.907 2.945.945 3.047c1.815 5.86 3.598 11.71 5.145 17.648 1.932 7.173 5.171 13.605 8.48 20.227l1.508 3.086c4.03 7.862 9.237 16.062 17.492 19.914 2.777.373 5.226.57 8 .563l2.27.005c6.444-.18 11.157-2.194 16.84-5.228 4.238-1.965 7.297-1.876 11.89-1.34 1.672 1.672 1.251 3.642 1.313 5.938-.154 11.873-6.497 20.571-14.75 28.625-3.853 3.226-8.103 5.486-12.563 7.75l-2.013 1.023c-11.678 5.67-25.378 6.982-37.8 2.851C602.723 668.107 594.37 657.822 587 648l-1.605-2.129c-6.86-9.69-11.618-20.927-16.395-31.746l-.918-2.073C566 607.25 566 607.25 566 605c-3.418 3.184-6.045 6.738-8.688 10.563-6.446 9.165-13.51 17.693-21.066 25.968a345.792 345.792 0 0 0-4.46 5C517.941 662.296 517.941 662.296 510 665v2c-2.52 1.691-2.52 1.691-5.813 3.563l-3.269 1.878c-5.673 3.03-11.032 3.576-17.262 1.946-5.943-2.31-10.449-5.819-13.656-11.387-1.03-3.296-1.123-5.72 0-9 2.274-2.878 5.041-4.862 8-7a702.877 702.877 0 0 0 4.688-3.75l2.562-2.04c20.487-16.47 39.663-34.496 55.481-55.565 1.283-1.664 2.62-3.266 3.98-4.868 5.16-5.845 5.16-5.845 6.664-13.152-1.002-3.733-2.356-7.313-3.703-10.934-2.755-7.68-4.864-15.459-6.797-23.379l-.521-2.129c-1.15-4.72-2.263-9.449-3.354-14.183l-.651-2.803c-2.233-10.026-2.695-20.137-2.873-30.38-.025-1.392-.059-2.783-.102-4.174-.326-11.769 1.898-21.931 9.267-31.39C553.554 436.998 567.074 425.778 584 429Z"/></svg>
