<svg xmlns="http://www.w3.org/2000/svg" fill="none" class="logo__img-logo" viewBox="0.3 0.7 19.5 18.3"><path fill="#9488F0" fill-rule="evenodd" d="M10.2.7C9 .7 8 1.2 7.5 1.9a4 4 0 0 0-.8 2.5c0 1 .3 2 .9 2.8C8 8 9 8.8 10.2 8.8s2-.8 2.5-1.6c.6-.8 1-1.9 1-2.8a4 4 0 0 0-.8-2.5A3.3 3.3 0 0 0 10.1.7Zm-2 3.7c0-.6.2-1.1.5-1.5.3-.3.8-.6 1.5-.6s1.1.3 1.4.6c.3.4.5.9.5 1.5s-.3 1.3-.7 2c-.4.5-.9.8-1.2.8s-.9-.3-1.3-.9a3.6 3.6 0 0 1-.7-1.9" clip-rule="evenodd"/><path fill="#9488F0" d="M4.8 12.4c-1.6-.2-3 1.1-3 2.5 0 1.3 1.1 2.5 3 2.5.8 0 1.5-.3 2.3-1 .9-.6 1.7-1.4 2.4-2.2L12 12a5.4 5.4 0 0 1 3.1-1.2c2.7 0 4.6 1.8 4.6 4.1s-2.2 4.3-4.7 4a5.2 5.2 0 0 1-3.1-1.3l1-1.2c.7.6 1.5.9 2.3 1 1.6.1 3-1.2 3-2.5s-1.1-2.5-3-2.5c-.8 0-1.5.3-2.3.9a19 19 0 0 0-2.4 2.2L8 17.8A5.4 5.4 0 0 1 5 19C2.2 19 .3 17.2.3 14.9c0-2.4 2.2-4.4 4.7-4 1 0 2.2.4 3.1 1.3l-1 1.1c-.7-.6-1.5-.8-2.3-.9"/></svg>