<svg xmlns="http://www.w3.org/2000/svg" width="1549" height="350" fill="none"><g clip-path="url(#a)"><path fill="#000" d="M717.242 324.331V0h44.96v305h175.895L937.105.33 983.073 0v324.331a25.682 25.682 0 0 1-7.522 18.153A25.653 25.653 0 0 1 957.395 350H742.879a25.672 25.672 0 0 1-25.637-25.669ZM1322.1 324.331V0h44.96v305h181.33v45h-200.62c-6.81 0-13.34-2.704-18.15-7.518a25.646 25.646 0 0 1-7.52-18.151ZM440.04 350h44.968V198h169.411v-45H484.968V45h166.653a12.83 12.83 0 0 0 11.589-7.323L681.121 0H465.669a25.677 25.677 0 0 0-25.629 25.67V350ZM1032.02 25.67c0-3.372.67-6.71 1.96-9.824a25.715 25.715 0 0 1 5.56-8.328 25.794 25.794 0 0 1 8.33-5.564A25.64 25.64 0 0 1 1057.69 0h215.42l-17.92 37.677A12.818 12.818 0 0 1 1243.61 45h-166.63v108h169.42v45h-169.42v107h196.13v45h-215.42a25.69 25.69 0 0 1-18.15-7.518 25.688 25.688 0 0 1-7.52-18.151V25.669Z"/><path fill="#00F58C" d="M23.274 0A23.274 23.274 0 0 0 0 23.266V350h289.589a36.962 36.962 0 0 0 26.129-10.823l23.459-23.459A36.942 36.942 0 0 0 350 289.589V0H23.274Z"/><path fill="#000" d="M228.524 45 114.702 158.823a15.093 15.093 0 0 1-10.654 4.411 15.072 15.072 0 0 1-13.62-8.621L46.33 61.379A11.475 11.475 0 0 1 56.71 45h171.814ZM45 305V194.25a10.701 10.701 0 0 1 10.702-10.694h110.742L45 305ZM175.589 163.234h-36.67L249.25 52.911A26.992 26.992 0 0 1 268.339 45H305L194.678 155.331a27.033 27.033 0 0 1-19.089 7.903Z"/></g><defs><clipPath id="a"><path fill="#fff" d="M0 0h1548.39v350H0z"/></clipPath></defs></svg>