<svg width="450" height="450" viewBox="0 0 450 450" fill="none" xmlns="http://www.w3.org/2000/svg">
<g clip-path="url(#clip0_19632_62123)">
<rect width="450" height="450" fill="black"/>
<g clip-path="url(#clip1_19632_62123)">
<path d="M252.081 268.912C276.508 254.81 284.915 223.642 270.86 199.297C256.805 174.953 225.609 166.651 201.182 180.754C176.755 194.856 168.347 226.024 182.402 250.369C196.458 274.713 227.654 283.015 252.081 268.912Z" fill="#F5F6F8"/>
<path d="M340.576 187.508C355.411 244.816 328.681 298.725 284.173 324.486C232.524 354.297 167.488 340.423 132.879 292.221C131.22 289.912 129.643 287.519 128.151 285.095C131.709 283.162 135.264 281.239 138.797 279.311C140.424 281.935 142.166 284.484 143.987 286.912C171.283 323.272 218.794 336.758 260.55 322.117C265.815 320.302 270.939 318.03 275.838 315.323C275.936 315.266 276.033 315.21 276.142 315.156C276.519 314.938 276.904 314.735 277.288 314.513C277.568 314.352 277.858 314.193 278.138 314.032L278.125 314.011C279.731 313.066 281.316 312.086 282.865 311.043C319.421 287.589 337.011 239.041 321.918 198.271C331.01 244.018 309.093 285.989 273.725 306.39L273.717 306.376C232.345 330.262 179.624 319.607 151.09 281.587C149.52 279.496 148.023 277.307 146.609 275.051C150.8 272.761 154.949 270.496 159.051 268.248C168.249 283.113 182.659 294.848 199.291 300.688C257.21 321.428 316.832 270.152 301.518 210.049C306.617 250.25 279.996 288.542 239.632 295.531C208.619 301.233 176.603 285.343 161.861 257.615L158.563 259.612C140.971 270.14 122.195 281.973 104.674 292.608C89.2963 302.118 66.0338 316.485 51.1065 326.162C55.8036 323.765 60.4645 321.306 65.1345 318.879C82.9988 309.419 101.76 299.367 120.351 289.311C122.021 292.059 123.797 294.764 125.669 297.377C143.506 322.224 169.885 339.494 199.954 346.012C220.435 350.455 241.455 349.623 261.246 343.821C269.819 341.349 277.96 337.966 285.578 333.791C286.586 333.246 287.586 332.687 288.578 332.115L288.566 332.094C336.666 303.942 362.512 244.066 340.564 187.488L340.576 187.508Z" fill="url(#paint0_linear_19632_62123)"/>
<path d="M385.688 132.181C368.245 141.37 350.551 150.834 332.924 160.352C331.254 157.604 329.478 154.899 327.595 152.283C325.02 148.693 322.204 145.187 319.233 141.863C300.525 121.009 274.884 107.016 247.031 102.448C230.824 99.7961 214.284 100.437 198.43 104.17C198.198 104.22 197.971 104.277 197.743 104.335C197.252 104.451 196.764 104.575 196.27 104.703C186.107 107.229 176.503 111.029 167.619 115.899C166.632 116.431 165.66 116.974 164.69 117.534L164.702 117.555C116.604 145.696 90.7442 205.58 112.699 262.154C97.8639 204.847 124.598 150.945 169.113 125.18C216.174 98.018 276.528 107.524 312.633 147.771C315.392 150.856 318.009 154.115 320.4 157.449C322.059 159.758 323.643 162.147 325.129 164.574C321.573 166.497 318.022 168.427 314.478 170.352C312.851 167.728 311.113 165.186 309.288 162.75C306.574 159.13 303.602 155.676 300.466 152.485C272.115 123.621 229.96 114.476 192.708 127.565C187.39 129.402 182.225 131.697 177.281 134.44C177.176 134.501 177.078 134.557 176.977 134.606C176.669 134.784 176.358 134.954 176.051 135.132C175.757 135.301 175.46 135.463 175.16 135.637L175.172 135.658C173.567 136.603 171.974 137.587 170.425 138.63C133.869 162.084 116.276 210.625 131.368 251.394C122.276 205.648 144.205 163.68 179.572 143.279L179.58 143.293C216.937 121.725 264.036 128.063 294.13 158.705C296.998 161.624 299.714 164.78 302.2 168.086C303.771 170.177 305.267 172.366 306.681 174.622C302.519 176.895 298.37 179.161 294.239 181.425C285.042 166.559 270.631 154.825 254.003 148.991C196.088 128.259 136.467 179.535 151.772 239.624C146.677 199.43 173.309 161.14 213.662 154.148C244.671 148.44 276.691 164.337 291.429 192.058L294.727 190.061C311.578 179.99 330.448 168.111 347.232 157.892C364.426 147.287 382.413 136.104 399.39 125.124C394.812 127.452 390.266 129.835 385.707 132.198L385.688 132.181Z" fill="url(#paint1_linear_19632_62123)"/>
</g>
</g>
<defs>
<linearGradient id="paint0_linear_19632_62123" x1="247.78" y1="336.028" x2="297.124" y2="209.415" gradientUnits="userSpaceOnUse">
<stop stop-color="white"/>
<stop offset="1" stop-color="white" stop-opacity="0.15"/>
</linearGradient>
<linearGradient id="paint1_linear_19632_62123" x1="201.367" y1="112.771" x2="152.086" y2="243.324" gradientUnits="userSpaceOnUse">
<stop stop-color="white"/>
<stop offset="1" stop-color="white" stop-opacity="0.15"/>
</linearGradient>
<clipPath id="clip0_19632_62123">
<rect width="450" height="450" fill="white"/>
</clipPath>
<clipPath id="clip1_19632_62123">
<rect width="402.142" height="247.806" fill="white" transform="translate(-10.8594 218.873) rotate(-30)"/>
</clipPath>
</defs>
</svg>
