<svg xmlns="http://www.w3.org/2000/svg" width="1080" height="1080"><g fill="none" fill-rule="evenodd"><path fill="#151515" d="M0 0h1080v1080H0z"/><path fill="#CECECE" fill-rule="nonzero" d="M746.915 716.851a173.5 173.5 0 0 0 7.532-50.523v-252.16a173.67 173.67 0 0 0-60.07-131.275h.02c11.845 0 21.446-9.602 21.446-21.447S706.242 240 694.397 240H385.571c-11.844 0-21.446 9.602-21.446 21.446s9.602 21.447 21.446 21.447h.024a175.3 175.3 0 0 0-33.457 39.182l-75.793-75.791c-8.415-8.128-21.791-8.012-30.064.261s-8.388 21.649-.26 30.064l87.032 87.035a173.5 173.5 0 0 0-7.531 50.523v252.161a173.67 173.67 0 0 0 60.068 131.275h-.019c-11.844 0-21.446 9.602-21.446 21.446s9.602 21.446 21.446 21.446h308.826c11.845 0 21.446-9.602 21.446-21.446s-9.601-21.446-21.446-21.446h-.023a175.3 175.3 0 0 0 33.456-39.183l75.79 75.791c8.41 8.16 21.812 8.058 30.098-.227s8.388-21.687.23-30.098zm-166.636 80.752h-80.59c-72.466-.085-131.19-58.81-131.275-131.275v-252.16c.013-4.792.288-9.579.824-14.34l81.373 81.374a237.4 237.4 0 0 0-39.304 101.938c-.07 53.677 33.228 101.744 83.505 120.544s106.943 4.374 142.11-36.179l59.607 59.608c-22.628 43.285-67.407 70.437-116.25 70.49M606.3 636.889c-22.71 28.368-60.881 39.263-95.143 27.156s-57.114-44.567-56.959-80.905a178.3 178.3 0 0 1 27.744-70.61zM505.097 475.034c11.472-17.485 23.525-34.677 34.887-49.852 38.432 51.29 85.785 125.285 85.785 157.956a85 85 0 0 1-1.154 11.412zm206.457 191.294a132 132 0 0 1-.823 14.339l-50.933-50.933a127.8 127.8 0 0 0 8.864-46.594c0-64.883-100.487-192.137-111.95-206.42a22.158 22.158 0 0 0-33.467 0c-4.932 6.149-26.368 33.27-49.174 67.294l-90.632-90.632c22.629-43.284 67.407-70.437 116.25-70.49h80.59c72.466.086 131.19 58.81 131.275 131.275z"/></g></svg>