<svg xmlns="http://www.w3.org/2000/svg" width="30" height="30" fill="none" viewBox="0 0 30 30"><g clip-path="url(#a)"><mask id="b" width="30" height="30" x="0" y="0" maskUnits="userSpaceOnUse" style="mask-type:luminance"><path fill="#fff" d="M30 0H0v30h30z"/></mask><g fill="#F34242" mask="url(#b)"><path d="M11.25 11.25H7.5V7.5h3.75z" opacity=".75"/><path d="M11.25 15H7.5v-3.75h3.75zm0 3.75H7.5V15h3.75z"/><path d="M11.25 22.5H7.5v-3.75h3.75zM22.5 11.25h-3.75V7.5h3.75z" opacity=".75"/><path d="M22.5 15h-3.75v-3.75h3.75zm0 3.75h-3.75V15h3.75z"/><path d="M22.5 22.5h-3.75v-3.75h3.75z" opacity=".75"/><path d="M15 22.5h-3.75v-3.75H15zm3.75 0H15v-3.75h3.75zM15 11.25h-3.75V7.5H15zm3.75 0H15V7.5h3.75z"/><path fill-opacity=".25" d="M15 0h-3.75v3.75H15z"/><path fill-opacity=".75" d="M18.75 26.25H15V22.5h3.75zM26.25 15H22.5v3.75h3.75zM7.5 18.75H3.75V15H7.5zm11.25-15H15V7.5h3.75z"/><path fill-opacity=".25" d="M18.75 0H15v3.75h3.75zM15 30h-3.75v-3.75H15zm3.75 0H15v-3.75h3.75zM30 11.25h-3.75V15H30zM30 15h-3.75v3.75H30zM3.75 18.75H0V15h3.75zm0-3.75H0v-3.75h3.75z"/><path fill-opacity=".75" d="M15 3.75h-3.75V7.5H15zm0 22.5h-3.75V22.5H15zm11.25-15H22.5V15h3.75zM7.5 15H3.75v-3.75H7.5z"/></g></g><defs><clipPath id="a"><path fill="#fff" d="M0 0h30v30H0z"/></clipPath></defs></svg>