<svg xmlns="http://www.w3.org/2000/svg" width="533.333" height="533.333" version="1.0" viewBox="0 0 400 400"><path d="M184.5 1.6c-24.1 2.8-39.3 6.3-57.5 13.5C58.9 41.8 10.3 105.1 1.9 178c-1.9 16.7-.7 46.6 2.6 62 11.3 53.8 42.1 99 88 129 18.3 11.9 44.8 22.7 68 27.6 10 2.2 15.6 2.7 33.9 3.1 29.5.7 45-1.4 69.8-9.7C345.1 363 400 286.6 400 201 400 98 322.6 12.4 220.1 2c-9.6-.9-28.7-1.1-35.6-.4M234.9 66c37.3 9.6 67 31.8 86.9 64.8 18.6 31 24 69.5 14.5 104.9-4.1 15.7-4.1 15.5.6 19.3 2.3 1.9 4.1 3.9 4.1 4.5 0 2.3-3.6 4.4-11.1 6.4-16.8 4.5-17.1 5.9-2 11.2 10.9 3.9 13.8 5.7 12.8 8.4-1.1 2.8-7.5 4.6-24.9 7.1-9.3 1.3-18.5 3.1-20.5 3.9-3.4 1.4-3.5 1.6-2 3.3.9 1 3.9 2.6 6.6 3.6 5.6 2 8.4 4.6 7.5 6.9-1 2.8-9.4 4.6-27.9 6.2-9.9.9-20.5 2-23.5 2.5-5.2 1-8 2.4-6.8 3.5.2.3 5.3 1.4 11.3 2.5 10.9 1.9 14.3 3.6 13.2 6.4-.8 2.1-11.3 5.1-23.7 6.7-14.2 1.9-84.2 1.9-99 .1-18.2-2.2-26.7-5.2-25.3-8.7.7-1.9 5.1-3.2 16.7-4.9 10.3-1.6 11.9-2.2 9.7-3.6-2-1.2-6.8-1.8-28-3.5-20-1.7-26.3-2.8-29.9-5.1-4.1-2.7-2.5-5.5 5.3-9.4 4-2 7-4.1 7-5 0-2.1-5.4-3.6-18-4.9-19.9-2.1-26.5-4.1-26.5-8 0-2.7 2.7-4.7 10.9-8 8.6-3.5 9.5-4.2 8.7-6.8-.5-1.4-3.1-2.7-9.6-4.6-11.6-3.5-12.6-5-7-11.1 2.2-2.4 4-5.1 4-6.1s-.9-4.8-1.9-8.4c-4.9-16.5-6.7-34.1-5.1-50.7 4.6-50.5 34.1-92.4 80.4-114.5 20.4-9.7 37-13 62.6-12.5 15.7.4 18.8.7 29.9 3.6"/><path d="M183.5 101.1c-19.7 3.9-38.1 13.2-52.4 26.5-15.1 13.9-26.2 34.7-30.2 56.4-2.1 11.2-1.4 29.1 1.5 40.3 3.6 14.2 6.7 20.4 12.8 25.8 4.6 4.1 5 4.7 3.9 6.7-.7 1.4-3.1 2.7-6.4 3.7-6.6 1.9-8.5 3.1-7.2 4.4 1.1 1.1 11.9 4.1 14.7 4.1.9 0 4 .5 6.8 1.1 10.9 2.3 9.8 6.6-2.5 10.4-9.5 3-11.4 4-10 5.4 1.7 1.7 10 2.9 31.3 4.6 25.7 2 34.2 3.6 34.2 6.5 0 3.3-5.6 5.3-19.5 7-11.2 1.4-18.5 2.9-18.5 4 0 3.1 21 5 55.5 5 29.3 0 46.6-1.2 52.4-3.6 3.2-1.4 3.4-1.6 1.8-2.6-1-.5-6-2.1-11-3.4-10.9-2.9-12.9-4.4-10.3-7.3 2.4-2.6 8.5-3.9 24.6-5.1 14.1-1.1 19.4-2 22.6-3.8 1.8-1 1.7-1.1-1.1-2.2-1.6-.6-7.9-2.3-13.9-3.6-14.7-3.2-18.3-5.6-13.3-8.8 2.9-2 9.3-3.2 25.3-5.1 7.2-.8 13.8-1.7 14.7-2.1 3.3-1.2 1.6-3.4-4.8-6.3-3.6-1.6-6.5-3.6-6.5-4.3.1-2.2 2.3-4.3 6-5.8 9-3.5 12.1-8.3 16.2-24.5 1.8-7.4 2.2-11.7 2.2-24 0-13-.4-16.3-2.7-24.8-9.6-35.7-37.2-63.1-73.5-72.9-8.9-2.4-34.3-3.4-42.7-1.7"/></svg>