<svg version="1.0" xmlns="http://www.w3.org/2000/svg" width="400.000000pt" height="400.000000pt" viewBox="0 0 400.000000 400.000000" preserveAspectRatio="xMidYMid meet"><g transform="translate(0.000000,400.000000) scale(0.100000,-0.100000)" fill="#000000" stroke="none"><path d="M1845 3984 c-241 -28 -393 -63 -575 -135 -681 -267 -1167 -900 -1251 -1629 -19 -167 -7 -466 26 -620 113 -538 421 -990 880 -1290 183 -119 448 -227 680 -276 100 -22 156 -27 339 -31 295 -7 450 14 698 97 809 270 1358 1034 1358 1890 0 1030 -774 1886 -1799 1990 -96 9 -287 11 -356 4z m504 -644 c373 -96 670 -318 869 -648 186 -310 240 -695 145 -1049 -41 -157 -41 -155 6 -193 23 -19 41 -39 41 -45 0 -23 -36 -44 -111 -64 -168 -45 -171 -59 -20 -112 109 -39 138 -57 128 -84 -11 -28 -75 -46 -249 -71 -93 -13 -185 -31 -205 -39 -34 -14 -35 -16 -20 -33 9 -10 39 -26 66 -36 56 -20 84 -46 75 -69 -10 -28 -94 -46 -279 -62 -99 -9 -205 -20 -235 -25 -52 -10 -80 -24 -68 -35 2 -3 53 -14 113 -25 109 -19 143 -36 132 -64 -8 -21 -113 -51 -237 -67 -142 -19 -842 -19 -990 -1 -182 22 -267 52 -253 87 7 19 51 32 167 49 103 16 119 22 97 36 -20 12 -68 18 -280 35 -200 17 -263 28 -299 51 -41 27 -25 55 53 94 40 20 70 41 70 50 0 21 -54 36 -180 49 -199 21 -265 41 -265 80 0 27 27 47 109 80 86 35 95 42 87 68 -5 14 -31 27 -96 46 -116 35 -126 50 -70 111 22 24 40 51 40 61 0 10 -9 48 -19 84 -49 165 -67 341 -51 507 46 505 341 924 804 1145 204 97 370 130 626 125 157 -4 188 -7 299 -36z"/><path d="M1835 2989 c-197 -39 -381 -132 -524 -265 -151 -139 -262 -347 -302 -564 -21 -112 -14 -291 15 -403 36 -142 67 -204 128 -258 46 -41 50 -47 39 -67 -7 -14 -31 -27 -64 -37 -66 -19 -85 -31 -72 -44 11 -11 119 -41 147 -41 9 0 40 -5 68 -11 109 -23 98 -66 -25 -104 -95 -30 -114 -40 -100 -54 17 -17 100 -29 313 -46 257 -20 342 -36 342 -65 0 -33 -56 -53 -195 -70 -112 -14 -185 -29 -185 -40 0 -31 210 -50 555 -50 293 0 466 12 524 36 32 14 34 16 18 26 -10 5 -60 21 -110 34 -109 29 -129 44 -103 73 24 26 85 39 246 51 141 11 194 20 226 38 18 10 17 11 -11 22 -16 6 -79 23 -139 36 -147 32 -183 56 -133 88 29 20 93 32 253 51 72 8 138 17 147 21 33 12 16 34 -48 63 -36 16 -65 36 -65 43 1 22 23 43 60 58 90 35 121 83 162 245 18 74 22 117 22 240 0 130 -4 163 -27 248 -96 357 -372 631 -735 729 -89 24 -343 34 -427 17z"/></g></svg>
