<svg xmlns="http://www.w3.org/2000/svg" fill="none" class="sc-10o9h38-4 fZdZDq rgw6ez411 rgw6ez4av" viewBox="0 0.25 36.18 37.49"><path fill="url(#a)" d="M25.194 28.462a8.62 8.62 0 0 1-1.94 6.151 8.5 8.5 0 0 1-5.8 3.1c-1.976.189-3.926-.436-5.49-1.764-1.544-1.31-2.498-3.12-2.686-5.098l5.459-.525c.05.524.326 1.034.76 1.4.247.211.763.554 1.436.49a3.07 3.07 0 0 0 2.092-1.118 3.1 3.1 0 0 0 .694-2.28 4.6 4.6 0 0 0-1.673-3.15c-.929-.762-2.082-1.073-3.26-.983-3.556.273-7.29 6.53-7.29 6.53L0 31.792S6.092 19.82 14.196 19.198c2.65-.203 5.24.49 7.314 2.192a10.1 10.1 0 0 1 3.667 6.904l.015.17h.002Z"/><path fill="url(#b)" d="M8.359 23.884a8.55 8.55 0 0 1-4.321-4.766 8.63 8.63 0 0 1 .234-6.606c.825-1.818 2.34-3.206 4.262-3.907 1.9-.691 3.933-.618 5.728.208l-2.278 5.022c-.474-.219-1.051-.232-1.584-.039-.305.112-.858.39-1.14 1.008a3.12 3.12 0 0 0-.084 2.384c.288.78.865 1.402 1.614 1.745a4.54 4.54 0 0 0 3.545.116c1.12-.428 1.965-1.279 2.475-2.35 1.544-3.238-1.972-9.621-1.972-9.621L18.091.254s7.253 11.298 3.735 18.674c-1.15 2.412-3.04 4.324-5.542 5.282a9.95 9.95 0 0 1-7.925-.326"/><path fill="url(#c)" d="M20.715 11.494a8.48 8.48 0 0 1 6.261-1.385 8.52 8.52 0 0 1 5.566 3.507c1.152 1.629 1.59 3.642 1.23 5.669-.355 2-1.436 3.738-3.043 4.89l-3.18-4.497c.424-.305.725-.802.824-1.362.057-.322.095-.943-.298-1.498a3.07 3.07 0 0 0-2.007-1.265 3.07 3.07 0 0 0-2.31.534 4.6 4.6 0 0 0-1.872 3.033c-.19 1.19.118 2.353.784 3.333 2.014 2.966 9.263 3.092 9.263 3.092l4.243 6.248s-13.345.675-17.93-6.08c-1.502-2.21-2.2-4.814-1.773-7.474a10.1 10.1 0 0 1 4.243-6.747v.002Z"/><defs><linearGradient id="a" x1="0" x2="4.449" y1="1.547" y2="40.113" gradientUnits="userSpaceOnUse"><stop stop-color="#EA9B57"/><stop offset="1" stop-color="#CB513F"/></linearGradient><linearGradient id="b" x1="0" x2="4.449" y1="1.547" y2="40.113" gradientUnits="userSpaceOnUse"><stop stop-color="#EA9B57"/><stop offset="1" stop-color="#CB513F"/></linearGradient><linearGradient id="c" x1="0" x2="4.449" y1="1.547" y2="40.113" gradientUnits="userSpaceOnUse"><stop stop-color="#EA9B57"/><stop offset="1" stop-color="#CB513F"/></linearGradient></defs></svg>