<svg xmlns="http://www.w3.org/2000/svg" width="85.333" height="85.333" version="1.0" viewBox="0 0 64 64"><path d="M21.9 2.3C15 4.9 5.7 12 7.2 13.6c1.2 1.1 8-.9 10.8-3.2C20.6 8.2 21.7 8 32 8s11.4.2 14 2.4c2.8 2.3 9.6 4.3 10.8 3.2 1-1.1-4.8-6.3-10.1-9.2-4.2-2.3-6.7-2.8-13.2-3.1-5-.2-9.3.2-11.6 1m.3 12.7c-1.3.6-3.5 1.9-4.9 3-1.9 1.5-4.1 2-8.5 2-5.4 0-5.9.2-6.8 2.6-.6 1.4-1 3.5-1 4.6 0 2 .4 2.1 8 1.5 5.5-.3 8.9-1.1 10.7-2.4C24.9 22.6 26.6 22 32 22s7.1.6 12.3 4.3c1.8 1.3 5.2 2.1 10.7 2.4 7.6.6 8 .5 8-1.5 0-1.1-.4-3.2-1-4.6-.9-2.4-1.5-2.6-6.7-2.6-4.6 0-6.5-.5-9.7-2.8-3.4-2.4-5-2.7-12.5-2.9-4.7-.2-9.7.2-10.9.7"/><path d="M28.2 27.6c-3.3 2.3-2.7 7.3 1.1 9.4 2.4 1.3 3 1.3 5.5 0 3.7-2.1 4.3-7.1 1-9.4-1.2-.9-2.9-1.6-3.8-1.6s-2.6.7-3.8 1.6"/><path d="M1 36.8c0 1.1.4 3.2 1 4.6.9 2.4 1.5 2.6 6.7 2.6 4.6 0 6.5.5 9.7 2.7 3.6 2.6 4.7 2.8 13.6 2.8s10-.2 13.6-2.8c3.2-2.2 5.1-2.7 9.7-2.7 5.2 0 5.8-.2 6.7-2.6 2.1-5.5 1.5-6.4-4.2-6.4-7.3.1-12.6 1.4-15.3 4-1.9 1.8-3.9 2.4-9.2 2.7-6.8.4-7.7.1-13.6-4-1.8-1.3-5.2-2.1-10.7-2.4-7.6-.6-8-.5-8 1.5m6 14.1c0 1.4 6.6 6.8 11.3 9.3 3.5 1.9 5.8 2.3 13.7 2.3 8.6 0 10-.3 14.7-2.9 5.4-2.9 11.1-8.2 10.1-9.2-1.2-1.1-8 .9-10.8 3.2-2.6 2.2-3.6 2.4-14.2 2.4-10.2 0-11.7-.2-13.3-2C16 51.2 7 48.8 7 50.9"/></svg>