<?xml version="1.0" standalone="no"?>
<!DOCTYPE svg PUBLIC "-//W3C//DTD SVG 20010904//EN"
 "http://www.w3.org/TR/2001/REC-SVG-20010904/DTD/svg10.dtd">
<svg version="1.0" xmlns="http://www.w3.org/2000/svg"
 width="64.000000pt" height="64.000000pt" viewBox="0 0 64.000000 64.000000"
 preserveAspectRatio="xMidYMid meet">

<g transform="translate(0.000000,64.000000) scale(0.100000,-0.100000)"
fill="#000000" stroke="none">
<path d="M219 617 c-69 -26 -162 -97 -147 -113 12 -11 80 9 108 32 26 22 37
24 140 24 103 0 114 -2 140 -24 28 -23 96 -43 108 -32 10 11 -48 63 -101 92
-42 23 -67 28 -132 31 -50 2 -93 -2 -116 -10z"/>
<path d="M222 490 c-13 -6 -35 -19 -49 -30 -19 -15 -41 -20 -85 -20 -54 0 -59
-2 -68 -26 -6 -14 -10 -35 -10 -46 0 -20 4 -21 80 -15 55 3 89 11 107 24 52
37 69 43 123 43 54 0 71 -6 123 -43 18 -13 52 -21 107 -24 76 -6 80 -5 80 15
0 11 -4 32 -10 46 -9 24 -15 26 -67 26 -46 0 -65 5 -97 28 -34 24 -50 27 -125
29 -47 2 -97 -2 -109 -7z"/>
<path d="M282 364 c-33 -23 -27 -73 11 -94 24 -13 30 -13 55 0 37 21 43 71 10
94 -12 9 -29 16 -38 16 -9 0 -26 -7 -38 -16z"/>
<path d="M10 272 c0 -11 4 -32 10 -46 9 -24 15 -26 67 -26 46 0 65 -5 97 -27
36 -26 47 -28 136 -28 89 0 100 2 136 28 32 22 51 27 97 27 52 0 58 2 67 26
21 55 15 64 -42 64 -73 -1 -126 -14 -153 -40 -19 -18 -39 -24 -92 -27 -68 -4
-77 -1 -136 40 -18 13 -52 21 -107 24 -76 6 -80 5 -80 -15z"/>
<path d="M70 131 c0 -14 66 -68 113 -93 35 -19 58 -23 137 -23 86 0 100 3 147
29 54 29 111 82 101 92 -12 11 -80 -9 -108 -32 -26 -22 -36 -24 -142 -24 -102
0 -117 2 -133 20 -25 28 -115 52 -115 31z"/>
</g>
</svg>
