<svg xmlns="http://www.w3.org/2000/svg" id="Layer_2" data-name="Layer 2" viewBox="0 0 1280.3 1280.3"><defs><linearGradient id="linear-gradient" x1="614" x2="668" y1="34.24" y2="1285.63" gradientUnits="userSpaceOnUse"><stop offset="0" stop-color="#ffad00"/><stop offset="1" stop-color="#ff2c00"/></linearGradient><linearGradient id="linear-gradient-2" x1="322.65" x2="202.13" y1="881.25" y2="669.95" gradientUnits="userSpaceOnUse"><stop offset="0" stop-color="#ff7900"/><stop offset="1" stop-color="#ff5400"/></linearGradient><linearGradient id="linear-gradient-3" x1="1076.69" x2="1014.08" y1="586.21" y2="811.6" gradientUnits="userSpaceOnUse"><stop offset="0" stop-color="#ff4d00"/><stop offset="1" stop-color="#ff5400"/></linearGradient><style>.cls-2{fill:#2c2014}.cls-3{fill:#330400}.cls-4{fill:#fff}.cls-5{fill:#443020}.cls-6{fill:#c14700}.cls-8{fill:#ffeace}.cls-10{fill:#1a130c}.cls-11{fill:#ffad00}.cls-12{fill:#b898a3}.cls-19{fill:#ffc300}.cls-21{fill:#18110b}</style></defs><g id="Layer_1-2" data-name="Layer 1"><path d="M860.24 1241.46c.08-.03.16-.06.23-.09 2.31-.85 4.61-1.71 6.91-2.58 1.66-.63 3.32-1.28 4.97-1.92.73-.28 1.46-.56 2.19-.85 10.31-4.06 20.48-8.38 30.52-12.95 67.61-30.74 128.83-72.67 182.26-124.86 3.56-3.48 7.08-7 10.57-10.56 53.86-55.07 96.81-118.41 127.84-188.52 2.52-5.69 4.97-11.42 7.33-17.2.04-.1.08-.21.12-.31.94-2.3 1.86-4.6 2.77-6.9.8-2.02 1.58-4.05 2.36-6.08.14-.36.28-.72.42-1.09 26.57-69.81 40.51-143.22 41.5-218.66v-.49c.03-2.74.05-5.49.05-8.24 0-2.48-.02-4.96-.05-7.44 0-.72-.02-1.44-.03-2.17-.03-1.87-.06-3.74-.11-5.61-.02-.68-.03-1.36-.05-2.04-.07-2.49-.14-4.98-.24-7.46 0-.08 0-.16-.01-.24-.09-2.41-.2-4.82-.32-7.23-.03-.61-.06-1.23-.1-1.84-.11-2.05-.22-4.1-.35-6.14l-.09-1.42c-.33-5.15-.72-10.28-1.17-15.4-.03-.3-.05-.59-.08-.89-.22-2.5-.46-5-.71-7.49v-.12c-9.32-91.73-38.15-179.72-84.99-259.11-.43-.74-.87-1.47-1.31-2.21-.69-1.16-1.39-2.32-2.09-3.48l-1.86-3.06-1.38-2.25a638 638 0 0 0-31.5-46.4c-9.44-37.96-22.12-77.02-37.94-116.67-.14-.36-.88-2.26-.97-2.5l-.11-.29c-2.66-7.1-8.38-12.83-15.69-15.71-3.31-1.3-6.76-1.96-10.27-1.96-4.13 0-8.22.95-11.84 2.76l-7.67 3.83c-9.07 4.55-18.06 9.41-26.96 14.54a634 634 0 0 0-27.55-21.07c-.06-.04-.11-.08-.17-.12-6.38-4.61-12.85-9.11-19.4-13.49l-2.89-1.93c-.88-.58-1.75-1.15-2.63-1.72-1.21-.79-2.42-1.58-3.63-2.36-.75-.48-1.51-.97-2.26-1.45-1.39-.89-2.78-1.76-4.17-2.64-.62-.39-1.24-.78-1.87-1.17-1.62-1.01-3.24-2-4.86-3-.42-.26-.85-.52-1.27-.78-6.46-3.92-12.99-7.73-19.58-11.41-.07-.04-.15-.08-.22-.12-2.07-1.15-4.14-2.3-6.22-3.43-.34-.19-.68-.37-1.03-.56-1.82-.99-3.65-1.96-5.48-2.93-.46-.24-.92-.49-1.38-.73-1.75-.92-3.49-1.83-5.25-2.73-.49-.25-.98-.5-1.46-.75-1.81-.93-3.63-1.84-5.45-2.75-.41-.2-.81-.41-1.21-.61a504 504 0 0 0-6.6-3.23c-.51-.25-1.02-.48-1.53-.73-1.61-.77-3.23-1.54-4.85-2.3-1.13-.53-2.26-1.05-3.39-1.57-.98-.45-1.97-.91-2.95-1.36-1.33-.61-2.67-1.21-4.01-1.81-.75-.33-1.49-.67-2.24-1-1.51-.67-3.03-1.33-4.55-1.99-.48-.21-.96-.41-1.44-.62a636 636 0 0 0-81.44-28.64c-.42-.12-.83-.23-1.25-.35-1.75-.48-3.51-.96-5.27-1.42-.63-.17-1.25-.33-1.88-.5-1.65-.43-3.29-.86-4.95-1.28-.74-.19-1.48-.37-2.22-.56-1.59-.4-3.17-.79-4.77-1.18-.79-.19-1.58-.37-2.37-.56-1.57-.37-3.14-.75-4.72-1.11-.43-.1-.86-.19-1.28-.29-3.04-.69-6.1-1.36-9.16-2.01-1.16-.25-2.31-.49-3.47-.73-1.22-.25-2.44-.49-3.66-.74-1.23-.25-2.46-.49-3.69-.73-1.2-.23-2.4-.46-3.6-.68-1.26-.24-2.53-.47-3.8-.7-1.18-.21-2.36-.43-3.55-.63-1.3-.23-2.59-.45-3.89-.67-1.17-.2-2.33-.4-3.5-.59-1.35-.22-2.7-.43-4.05-.64-1.12-.18-2.24-.36-3.36-.53-1.66-.25-3.32-.49-4.97-.73-1.79-.26-3.57-.5-5.37-.75-1.35-.18-2.69-.37-4.04-.54-1.3-.17-2.61-.32-3.92-.48l-3.45-.42c-1.38-.16-2.76-.31-4.14-.47-1.06-.12-2.12-.23-3.18-.34-1.45-.15-2.91-.3-4.37-.44l-2.85-.27c-1.56-.15-3.12-.29-4.68-.43-.7-.06-1.41-.12-2.11-.17-6.17-.51-12.36-.94-18.58-1.28-.17 0-.35-.02-.52-.03-1.97-.1-3.94-.2-5.91-.28l-1.4-.06c-1.93-.08-3.87-.15-5.81-.22-.46-.01-.91-.03-1.37-.04-2.01-.06-4.02-.12-6.03-.16-.22 0-.45 0-.67-.01-4.47-.09-8.95-.15-13.44-.15-6.04 0-12.06.09-18.06.26-.53.01-1.06.03-1.58.05-2.24.07-4.48.14-6.71.23-1.3.05-2.6.11-3.91.17-1.36.06-2.72.13-4.08.2-1.94.1-3.87.21-5.81.33-.58.04-1.17.07-1.75.11-69.13 4.41-136.05 19.76-199.81 45.85l-1.02.42c-1.99.82-3.97 1.64-5.95 2.47-1.63.69-3.24 1.39-4.86 2.09-.8.34-1.6.68-2.39 1.03-89.48 39.08-168.3 98.02-230.89 171.25l-.34.4c-1.68 1.96-3.34 3.94-4.99 5.92l-.73.88q-2.55 3.075-5.07 6.18l-.25.31-.14.18c-.23.28-.45.56-.68.84-.68-.22-1.36-.45-2.04-.67l-.11-.03c-13.19-4.07-22.44-5.89-30.01-5.89-6.48 0-11.97 1.34-16.78 4.1-6.28 3.61-11.11 9.6-14.77 18.32-2.83 6.75-5.06 15.2-7.54 25.81-1.98 8.01-3.71 16.64-5.15 25.74-3.03 20.07-4.63 41.15-4.82 62.88-2.67 5.7-5.24 11.46-7.74 17.25-.21.49-.41.98-.62 1.46-.7 1.63-1.39 3.27-2.08 4.91-.37.88-.73 1.75-1.09 2.63-.63 1.53-1.26 3.06-1.88 4.59-.43 1.05-.85 2.1-1.27 3.15-.52 1.31-1.04 2.61-1.55 3.92-.51 1.32-1.03 2.63-1.53 3.95-.38.99-.75 1.98-1.13 2.97q-.945 2.49-1.86 4.98c-.22.6-.44 1.2-.66 1.79-.75 2.07-1.5 4.14-2.23 6.21-.05.13-.09.26-.14.39C12.28 495.29.15 566.15 0 638.89v1.26c0 2.76.02 5.5.05 8.24 0 .23 0 .46.01.7 1.05 77.97 15.93 153.77 44.3 225.68.6 1.52 1.21 3.02 1.82 4.53.36.89.71 1.79 1.08 2.68 1.88 4.61 3.82 9.19 5.8 13.74.11.25.21.5.32.74.07.17.15.34.22.51 32.06 73.17 77.08 139.02 133.89 195.83 56.07 56.07 120.94 100.63 192.95 132.61 8.3 3.69 16.7 7.22 25.18 10.56 1.67.66 3.34 1.3 5.01 1.94.72.28 1.44.56 2.17.84 69.68 26.51 142.93 40.44 218.22 41.48.3 0 .6.01.9.02 2.74.03 5.48.05 8.22.05 2.75 0 5.49-.02 8.23-.05.3 0 .59-.01.89-.02 72.68-1 143.47-14.02 210.97-38.77Z" class="cls-4"/><path d="M210.49 754.19c-18.91 1.15-37.38 6.15-53.53 14.51l-1.06.56c-.6.31-1.23.64-1.88 1.01-9.45-35.37-15.13-72.28-16.6-110.27 11.63 20.18 24.5 39.1 38.52 56.6 11.25 13.78 22.81 26.36 34.55 37.59m720.57-524.55c-2.31 2.18-4.6 4.39-6.88 6.62-29.07 28.28-56.71 59.92-84.49 96.72-23.34 30.91-46.81 65.58-71.79 106.03 0 0-6.58 10.78-6.59 10.79-7.03 2.14-14.11 4.5-21.2 7.1 9.76-17.42 17.73-37.03 24.25-59.57 7.42-25.68 11.98-51.84 15.46-74.09 1.33-8.86 2.55-18.15 3.7-28.01s2.21-20.3 3.21-31.44c.27-2.95-.71-5.9-2.68-8.06-1.92-2.15-4.56-3.4-7.43-3.52h-.28l-.19-.01c-2.68 0-5.23 1-7.2 2.81-17.17 15.53-37.08 30.1-64.59 47.24-16.07 10.11-32.91 19.79-49.19 29.16-30.63 17.62-62.3 35.84-91.17 58.12-6.18 4.87-11.66 9.49-16.61 13.98-1.16-20.78-5.57-43.26-13.46-69.1l-.06-.19c-1.6-4.83-5.87-7.95-10.89-7.95-1.19 0-2.38.18-3.53.54-5.22 1.65-8.43 6.56-8.03 11.78-1.21 9.56-4.1 19.57-8.59 29.74-5.19 11.7-11.98 23.17-18.56 34.28-5.3 8.97-10.78 18.23-15.57 27.8-2.82 5.55-5.38 11.12-7.66 16.65-42.96-45.27-90.76-85.28-142.26-119.06a767 767 0 0 0-48.24-29.18c91.91-99.48 223.49-161.78 369.61-161.78 108.39 0 208.78 34.28 290.91 92.6m195.78 538.48c-56.6 215.89-253.05 375.15-486.69 375.15-215.81 0-399.89-135.88-471.34-326.76l.52.49c12.11 11.18 24.91 20.75 38.02 28.45 14.4 8.45 29.28 14.69 44.3 18.58 8.53 2.15 16.79 3.56 24.69 4.21-3.61 6.25-6.21 12.21-7.9 18.13l-.06.21-.05.21c-.05.2-.11.39-.17.62-.33 1.17-.83 2.94-.84 5.12v.49l.05.48c.41 4.1 2.96 7.49 6.48 9.12.15.58.34 1.16.58 1.74 6.9 16.68 15.81 32.49 26.25 46.68-.09-.02-.54-.13-.54-.13l-.28-.05c-.71-.13-1.44-.2-2.16-.2-2.98 0-5.83 1.11-7.97 3.08a11.72 11.72 0 0 0-3.85 8.29c-.12 3.2 1.02 6.24 3.15 8.5 29.79 32.21 65.39 59.19 105.84 80.19 37.58 19.52 79.47 33.96 124.5 42.92 36.16 7.19 74.32 10.84 113.41 10.84 6.35 0 12.81-.1 19.18-.29 43.58-1.31 87.49-7.03 130.57-17 98.61-23.55 177.38-63.5 234.2-118.81 13.4-13.3 25.02-27.36 34.57-41.82 2.68-4.11 2.74-9.44.13-13.6-2.31-3.68-6.3-5.88-10.65-5.88-2.36 0-4.67.66-6.67 1.92l-.18.11c-3.72 2.44-7.87 4.8-12.64 7.18-1.34.66-2.71 1.31-4.09 1.95 3.76-5.59 7.45-11.58 11.08-18.02 10.48-18.82 19.08-38.47 25.57-58.42 1.17-3.64.48-7.64-1.84-10.69l-.2-.25a62 62 0 0 0-6.5-6.82c16.13-6.13 31.82-14.63 46.8-25.36a231.8 231.8 0 0 0 34.73-30.56m16.42-127.96c0 31.21-2.84 61.76-8.28 91.39l-2.51-2.46-.26-.22c-.58-.49-1.54-1.32-2.53-2.17l-.09-.07a306 306 0 0 0-3.15-2.7l-.09-.07c-13.36-10.85-27.36-17.92-41.72-21.03 21.46-31.85 39.27-65.93 53.05-101.52 1.14-2.95 2.26-5.91 3.34-8.88 1.48 15.71 2.24 31.63 2.24 47.73" class="cls-11"/><path d="M210.49 754.19c-18.91 1.15-37.38 6.15-53.53 14.51l-1.06.56c-.6.31-1.23.64-1.88 1.01-9.45-35.37-15.13-72.28-16.6-110.27 11.63 20.18 24.5 39.1 38.52 56.6 11.25 13.78 22.81 26.36 34.55 37.59m720.57-524.55c-2.31 2.18-4.6 4.39-6.88 6.62-29.07 28.28-56.71 59.92-84.49 96.72-23.34 30.91-46.81 65.58-71.79 106.03 0 0-6.58 10.78-6.59 10.79-7.03 2.14-14.11 4.5-21.2 7.1 9.76-17.42 17.73-37.03 24.25-59.57 7.42-25.68 11.98-51.84 15.46-74.09 1.33-8.86 2.55-18.15 3.7-28.01s2.21-20.3 3.21-31.44c.27-2.95-.71-5.9-2.68-8.06-1.92-2.15-4.56-3.4-7.43-3.52h-.28l-.19-.01c-2.68 0-5.23 1-7.2 2.81-17.17 15.53-37.08 30.1-64.59 47.24-16.07 10.11-32.91 19.79-49.19 29.16-30.63 17.62-62.3 35.84-91.17 58.12-6.18 4.87-11.66 9.49-16.61 13.98-1.16-20.78-5.57-43.26-13.46-69.1l-.06-.19c-1.6-4.83-5.87-7.95-10.89-7.95-1.19 0-2.38.18-3.53.54-5.22 1.65-8.43 6.56-8.03 11.78-1.21 9.56-4.1 19.57-8.59 29.74-5.19 11.7-11.98 23.17-18.56 34.28-5.3 8.97-10.78 18.23-15.57 27.8-2.82 5.55-5.38 11.12-7.66 16.65-42.96-45.27-90.76-85.28-142.26-119.06a767 767 0 0 0-48.24-29.18c91.91-99.48 223.49-161.78 369.61-161.78 108.39 0 208.78 34.28 290.91 92.6m195.78 538.48c-56.6 215.89-253.05 375.15-486.69 375.15-215.81 0-399.89-135.88-471.34-326.76l.52.49c12.11 11.18 24.91 20.75 38.02 28.45 14.4 8.45 29.28 14.69 44.3 18.58 8.53 2.15 16.79 3.56 24.69 4.21-3.61 6.25-6.21 12.21-7.9 18.13l-.06.21-.05.21c-.05.2-.11.39-.17.62-.33 1.17-.83 2.94-.84 5.12v.49l.05.48c.41 4.1 2.96 7.49 6.48 9.12.15.58.34 1.16.58 1.74 6.9 16.68 15.81 32.49 26.25 46.68-.09-.02-.54-.13-.54-.13l-.28-.05c-.71-.13-1.44-.2-2.16-.2-2.98 0-5.83 1.11-7.97 3.08a11.72 11.72 0 0 0-3.85 8.29c-.12 3.2 1.02 6.24 3.15 8.5 29.79 32.21 65.39 59.19 105.84 80.19 37.58 19.52 79.47 33.96 124.5 42.92 36.16 7.19 74.32 10.84 113.41 10.84 6.35 0 12.81-.1 19.18-.29 43.58-1.31 87.49-7.03 130.57-17 98.61-23.55 177.38-63.5 234.2-118.81 13.4-13.3 25.02-27.36 34.57-41.82 2.68-4.11 2.74-9.44.13-13.6-2.31-3.68-6.3-5.88-10.65-5.88-2.36 0-4.67.66-6.67 1.92l-.18.11c-3.72 2.44-7.87 4.8-12.64 7.18-1.34.66-2.71 1.31-4.09 1.95 3.76-5.59 7.45-11.58 11.08-18.02 10.48-18.82 19.08-38.47 25.57-58.42 1.17-3.64.48-7.64-1.84-10.69l-.2-.25a62 62 0 0 0-6.5-6.82c16.13-6.13 31.82-14.63 46.8-25.36a231.8 231.8 0 0 0 34.73-30.56m16.42-127.96c0 31.21-2.84 61.76-8.28 91.39l-2.51-2.46-.26-.22c-.58-.49-1.54-1.32-2.53-2.17l-.09-.07a306 306 0 0 0-3.15-2.7l-.09-.07c-13.36-10.85-27.36-17.92-41.72-21.03 21.46-31.85 39.27-65.93 53.05-101.52 1.14-2.95 2.26-5.91 3.34-8.88 1.48 15.71 2.24 31.63 2.24 47.73" class="cls-11"/><path d="M1156.42 282.25c1.66 7.68 3.18 15.31 4.55 22.89 10.71 58.97 13.18 116.06 7.33 169.69-3.22 31.37-9.62 62.63-19.09 93.29 3.3 23.54 5.01 47.59 5.01 72.04 0 283.91-230.16 514.07-514.07 514.07-228.79 0-422.68-149.46-489.35-356.07l-2.13-2.36c-.84-.93-2.78-3.34-3.63-6.51-.88-3.11-.74-6.38.26-9.37-12.53-44.44-19.23-91.32-19.23-139.76v-.99a513 513 0 0 1-16.88-36.3c-16.33-38.94-28.72-81.41-36.83-126.23-5.14-29.39-8.22-57.79-9.18-84.47-.01-.24-.02-.49-.02-.73C30.24 467.72 12 551.81 12 640.16c0 346.91 281.23 628.14 628.15 628.14s628.15-281.23 628.15-628.14c0-133.01-41.34-256.36-111.88-357.91M640.15 12.01c-197.51 0-373.73 91.16-488.88 233.69 37.31 12.71 73.87 28.66 109.35 47.71 94-102.83 229.23-167.33 379.53-167.33 111.57 0 214.84 35.54 299.1 95.92 30.03-27.56 61.69-51.43 94.6-71.32C926.14 63.93 789.21 12.01 640.15 12.01" style="fill:url(#linear-gradient)"/><path d="M210.49 754.19c-18.91 1.15-37.38 6.15-53.53 14.51l-1.06.56c-.6.31-1.23.64-1.88 1.01-9.45-35.37-15.13-72.28-16.6-110.27 11.63 20.18 24.5 39.1 38.52 56.6 11.25 13.78 22.81 26.36 34.55 37.59m720.57-524.55c-2.31 2.18-4.6 4.39-6.88 6.62-29.07 28.28-56.71 59.92-84.49 96.72-23.34 30.91-46.81 65.58-71.79 106.03 0 0-6.58 10.78-6.59 10.79-7.03 2.14-14.11 4.5-21.2 7.1 9.76-17.42 17.73-37.03 24.25-59.57 7.42-25.68 11.98-51.84 15.46-74.09 1.33-8.86 2.55-18.15 3.7-28.01s2.21-20.3 3.21-31.44c.27-2.95-.71-5.9-2.68-8.06-1.92-2.15-4.56-3.4-7.43-3.52h-.28l-.19-.01c-2.68 0-5.23 1-7.2 2.81-17.17 15.53-37.08 30.1-64.59 47.24-16.07 10.11-32.91 19.79-49.19 29.16-30.63 17.62-62.3 35.84-91.17 58.12-6.18 4.87-11.66 9.49-16.61 13.98-1.16-20.78-5.57-43.26-13.46-69.1l-.06-.19c-1.6-4.83-5.87-7.95-10.89-7.95-1.19 0-2.38.18-3.53.54-5.22 1.65-8.43 6.56-8.03 11.78-1.21 9.56-4.1 19.57-8.59 29.74-5.19 11.7-11.98 23.17-18.56 34.28-5.3 8.97-10.78 18.23-15.57 27.8-2.82 5.55-5.38 11.12-7.66 16.65-42.96-45.27-90.76-85.28-142.26-119.06a767 767 0 0 0-48.24-29.18c91.91-99.48 223.49-161.78 369.61-161.78 108.39 0 208.78 34.28 290.91 92.6m195.78 538.48c-56.6 215.89-253.05 375.15-486.69 375.15-215.81 0-399.89-135.88-471.34-326.76l.52.49c12.11 11.18 24.91 20.75 38.02 28.45 14.4 8.45 29.28 14.69 44.3 18.58 8.53 2.15 16.79 3.56 24.69 4.21-3.61 6.25-6.21 12.21-7.9 18.13l-.06.21-.05.21c-.05.2-.11.39-.17.62-.33 1.17-.83 2.94-.84 5.12v.49l.05.48c.41 4.1 2.96 7.49 6.48 9.12.15.58.34 1.16.58 1.74 6.9 16.68 15.81 32.49 26.25 46.68-.09-.02-.54-.13-.54-.13l-.28-.05c-.71-.13-1.44-.2-2.16-.2-2.98 0-5.83 1.11-7.97 3.08a11.72 11.72 0 0 0-3.85 8.29c-.12 3.2 1.02 6.24 3.15 8.5 29.79 32.21 65.39 59.19 105.84 80.19 37.58 19.52 79.47 33.96 124.5 42.92 36.16 7.19 74.32 10.84 113.41 10.84 6.35 0 12.81-.1 19.18-.29 43.58-1.31 87.49-7.03 130.57-17 98.61-23.55 177.38-63.5 234.2-118.81 13.4-13.3 25.02-27.36 34.57-41.82 2.68-4.11 2.74-9.44.13-13.6-2.31-3.68-6.3-5.88-10.65-5.88-2.36 0-4.67.66-6.67 1.92l-.18.11c-3.72 2.44-7.87 4.8-12.64 7.18-1.34.66-2.71 1.31-4.09 1.95 3.76-5.59 7.45-11.58 11.08-18.02 10.48-18.82 19.08-38.47 25.57-58.42 1.17-3.64.48-7.64-1.84-10.69l-.2-.25a62 62 0 0 0-6.5-6.82c16.13-6.13 31.82-14.63 46.8-25.36a231.8 231.8 0 0 0 34.73-30.56m16.42-127.96c0 31.21-2.84 61.76-8.28 91.39l-2.51-2.46-.26-.22c-.58-.49-1.54-1.32-2.53-2.17l-.09-.07a306 306 0 0 0-3.15-2.7l-.09-.07c-13.36-10.85-27.36-17.92-41.72-21.03 21.46-31.85 39.27-65.93 53.05-101.52 1.14-2.95 2.26-5.91 3.34-8.88 1.48 15.71 2.24 31.63 2.24 47.73" style="fill:#1d222a"/><path d="M939.62 677.91c.93.54 1.84 1.11 2.74 1.71 15.53 9.84 24.09 27.31 30.23 43.88 1.14 2.98 2.26 5.95 3.39 8.9l3-1.88 2.14-1.34c30.15-20.02 54.3-48 72.9-78.84 55.08-93.06 69.02-205.88 57.07-312.08-5.8-50.21-18.15-99.73-36.8-146.72l-1.49-3.7c-8.91 10.27-17.87 20.5-26.66 30.89-14.17 16.82-28.56 33.99-41.5 51.8-37.68 51.35-68.23 107.84-92.41 166.73-11.95 29.31-22.32 59.19-31.39 89.47 17.8-23.04 44.32-35.01 67.17-53.47 8.72-7.11 16.63-15.11 23.57-23.9 1.33-1.77 4.34-1.34 5.06.78 23.16 60.37 25.56 123.54-25.05 166.02a58 58 0 0 1 6.55-1.37c22.96-3.65 45.28 7.47 62.59 21.64 1.46 1.16 1.58 3.38.25 4.68-22.47 22.92-50.59 39.22-81.35 36.81Z" class="cls-8"/><path d="M934.3 750.71c2.73-.83 6.04-1.72 8.43-2.64l4.76-1.68c.18-.07.35-.15.54-.22-7.5-2.59-14.49-5.9-20.9-9.97 0 0-.01 0-.02-.01 2.38 4.84 4.77 9.69 7.18 14.52Z"/><path d="m383.73 919.43 13.35.71c.05-.1.1-.2.14-.3 4-17.33 8.38-34.72 13.6-51.73 13-41.47 37.7-113.61 81.54-129.7 8.65-3.02 18.36-3.8 27.08-.63 28.7 10.79 51.71 49.8 66.25 75.63 17.46 33.01 33.91 68.09 45.05 103.26 1.16-.46 2.4-.89 3.71-1.31 20.08-6.35 37.1-7.54 49.29-5.46 7.39-58.68 24.38-117.32 55.85-167.75 11.64-17.88 26.05-34.65 44.89-45.2 7.78-4.39 16.74-7.39 25.76-5.81 28.25 4.67 49.84 38.56 63.2 61.67 14.7 26.3 26.42 54.15 35.91 82.71 3 9.45 6.12 18.83 7.82 28.63 10.63-.24 21.27-.7 31.8-2.08 9.34-1.01 18.63-2.73 27.84-4.58 5.16-1.14 10.32-2.38 15.45-3.75h.01c-.25-.25-.51-.49-.74-.74-2.89-3.01-6.23-7.04-8.81-10.36-10.85-14.29-19.86-29.81-28.32-45.59a698 698 0 0 1-29.2-62.1s-.01 0-.02-.01c-17.19-11.53-29.89-28.71-36.11-52.29-.08-.26.08-.54.35-.61.25-.07.52.07.6.32 9.17 29.37 30.47 51.02 60.36 58.9 1.96.55 3.93 1.04 5.92 1.48 1.15.26 2.31.5 3.47.73 4.64.89 9.34 1.52 14.05 1.95-.91-2.43-1.77-4.87-2.62-7.32-.28-.81-.56-1.62-.83-2.42-3.96-11.56-7.75-23.19-13.76-33.69-7.19-12.98-19.32-21.76-32.95-27-2.34-.67-4.7-1.46-7.06-2.38-.04 0-.08-.02-.12-.04a1.92 1.92 0 0 1-1.2-2.49c.36-.96 1.42-1.46 2.38-1.15.04.01.08.02.12.04 2.35.65 4.7 1.38 7.03 2.19 34.28 9.03 65.04-7.3 89.2-32.02-22.06-18.03-48.25-27.06-75.43-13.35-2.38 1.14-4.32-2.17-2.17-3.69 59.8-40.27 59.36-103.92 36.52-165.14-13.98 16.32-31.84 28.94-49.83 40.25-18.37 11.49-35.87 24.89-46.51 43.97-9 31.58-16.63 63.58-23.14 95.82-.05.27-.32.45-.59.39a.51.51 0 0 1-.4-.56c.41-2.83.83-5.66 1.27-8.5-25.01-29.63-41.09-66.92-49.06-113.83-1.43 3.29-2.95 6.54-4.57 9.75-4.05 7.96-8.85 15.58-15.08 22.11-.98 1.03-2.62 1.06-3.64.08s-1.06-2.62-.08-3.64c11.64-12.51 18.3-28.71 24.07-44.63 5.28-15.05 9.34-30.53 12.87-46.1-38.94 5.29-76.54 17.6-111.99 34.52a2.53 2.53 0 0 1-3.36-1.21c-.47-1-.23-2.16.53-2.89 6.93-6.72 13.13-14.24 18.52-22.33 16.24-24.53 26.11-52.61 33.6-80.99 9.54-36.85 14.85-74.7 18.7-112.56-19.33 17.64-40.87 32.71-62.93 46.7-46.08 29.38-95.72 53.38-139.16 86.59-12.61 9.73-24.36 20.59-34.65 32.69-.12.2-.26.37-.42.5h-.01c-3.8 4.5-7.4 9.16-10.76 14.01-1.45 2.22-4.25 6.14-5.55 8.53-.88 1.47-1.79 2.93-2.72 4.39a.5.5 0 0 1-.69.15.48.48 0 0 1-.19-.61c4.13-10.71 10.12-20.38 17.23-29.24 2.08-27.32-2.86-54.52-10.56-80.72-6.99 31.83-28.3 58.4-42.77 87.08-5.36 10.52-9.94 21.4-13.39 32.65a2.28 2.28 0 0 1-1.33 1.46c13.41 71.65 11.53 146.64-7.33 217.12-.11.47-.84.48-.96.03-8.12-21.45-17.52-42.29-27.95-62.61a666 666 0 0 0-15.98-29.06c-.73-.32-1.39-.77-2.12-1.1-4.3-2.3-9-4.7-13.47-6.53l-4.56-2.01-4.68-1.68-4.67-1.68c-2.63-.89-6.81-1.95-9.52-2.76-24.49-6.36-50.36-4.93-74.89-11.18-9.59-2.4-18.92-5.82-27.89-9.99 7.17 27.82 17.31 55.04 32.95 79.21 13.19 20.53 30.64 38.63 51.45 51.53 3.48 2.32 8.34 4.87 11.94 7.03 3.16 1.57 6.52 3.38 9.61 5.1.24.14.32.44.19.68-.12.21-.37.3-.59.23-3.36-1.09-6.99-2.45-10.32-3.7-.75-.33-6.21-2.89-7.1-3.33-2.51-1.25-4.98-2.57-7.4-3.96-.06 0-.13.02-.18.02-3.58.35-7.13.96-10.64 1.74-12.02 2.67-23.59 7.36-34.04 13.84-5.7 3.54-11 7.64-15.84 12.25a54 54 0 0 0-1.89 1.83l-.63.63c-4.97 5.02-9.42 10.56-13.28 16.51 18.84 8.61 42.32 15.81 63.94 14.34 1.38-.1 2.76-.22 4.12-.4 0 .01 0 0 0 0 7.01-.85 13.77-2.69 20.06-5.77 4.02-2.08 7.75-4.66 11.15-7.67a1.38 1.38 0 0 1 1.87 2.03 58.4 58.4 0 0 1-11.02 8.3c-1.4 3.82-2.82 8.02-4.12 12.43-.13.42-.25.84-.37 1.26-4.45 15.53-7.28 33.52-2.71 47.25 16.65-7.26 30.97-19.31 43.08-32.75 1.88-2.29 4.03-4.79 5.88-7.1 1.15-1.57 4.35-5.9 5.48-7.43 2.56-3.96 5.93-8.93 8.13-13.1l3.03-5.39c.12-.25.45-.36.7-.22a.5.5 0 0 1 .2.66c-.95 1.95-3.23 6.5-4.15 8.36-1.54 3.17-4.4 7.77-6.13 10.86-1.06 1.6-4.05 6.15-5.15 7.82-1.75 2.43-3.81 5.1-5.6 7.53-3.64 4.55-7.53 8.92-11.67 13.06-.01.25-.06.51-.17.79-13.77 31.9-29.19 63.05-47.33 92.7-5.3 8.47-10.84 16.81-16.84 24.86 9.88 2.34 19.92 4.11 29.9 5.52 8.1 1.05 16.75 1.9 24.88 2.53Zm299.33-160.67c5.55-11.38 13.66-18.9 19.81-18.9 1.02 0 1.99.21 2.88.64 6.25 3.05 6.08 15.84-.39 29.12-3.03 6.22-6.97 11.54-11.11 14.99-3.11 2.59-6.09 3.92-8.68 3.92-1.04 0-2.01-.21-2.9-.65-6.25-3.04-6.08-15.83.39-29.12m-78.73-22 25.83-73.56a.99.99 0 0 1 .86-.67c.41-.03.78.18.96.53l36.39 68.77c.13.23.15.5.08.75l-22.7 76.41c-.11.38-.45.66-.85.71h-.11c-.36 0-.69-.19-.87-.51l-39.52-71.61a.98.98 0 0 1-.07-.82m-41.41 14.79c2.53-2.14 6.97-1.55 12.52 1.64 5.25 3.03 10.99 8.07 16.17 14.2s9.2 12.64 11.31 18.32c2.23 6 2.06 10.48-.46 12.61-1 .84-2.3 1.26-3.85 1.26-2.36 0-5.31-.97-8.67-2.91-5.25-3.02-10.99-8.07-16.17-14.19-5.18-6.13-9.2-12.64-11.31-18.32-2.23-6-2.06-10.48.46-12.61" style="fill:#ff7900"/><path d="M526.36 830.07c-2.67 4.72-4.26 10.62-4.62 16.97-.05.77-.07 1.55-.07 2.34-.02.82 0 1.65.03 2.48.33 8.17 2.61 15.75 6.41 21.35 1.52 2.24 3.21 4.05 5.01 5.38.68.52 1.38.97 2.09 1.33 1.97 1.04 4.03 1.53 6.12 1.45 9.77-.39 17.28-13.3 17.22-29.14-3.71-12.71-9.68-23.51-17.04-31.15-.87-.17-1.75-.24-2.63-.21-4.82.19-9.27 3.46-12.52 9.2" class="cls-4"/><path d="M671.78 911.01c-10.32 0-22.81 1.85-36.73 6.26-11.48 3.63-16.63 8.63-15.28 14.86 2.83 13.13 33.99 28.77 43.45 27.81 1.69-.61 23.61-8.86 36.13-26.53 3.47-4.91 3.83-9.54 1.03-13.38-2.65-3.63-8.17-6.47-15.92-7.93-.33-.06-.57-.1-.98-.17-3.49-.6-7.41-.92-11.7-.92" class="cls-2"/><path d="M394.51 922.98c.56-.35 1-.71 1.37-1.1z"/><path d="M262.86 544c1.47-.39 2.9-.12 4.14.58 3.25 1.72 9.75 5.5 12.95 6.89 16.18 8.05 33.85 12.3 51.72 14.77 18.4 2.42 37.23 5.33 54.69 12.21 2.33 1.01 7.1 2.99 9.43 4l4.56 2.32c3.41 1.63 6.93 3.59 10.29 5.58-51.52-86.64-121.59-161.92-199.51-225.45-26.26-20.41-53.28-40.56-83.69-54.2-9.91 83.09.26 169.67 33.36 246.78 20.58 47.25 50.57 90.36 87.78 126.01 12.03 11.51 24.78 22.29 38.09 32.31a98 98 0 0 1 7.44-6.25c13.81-10.46 30.23-17.29 47.27-20.07 1.96-.32 3.94-.59 5.92-.8h.02c-33.08-20.98-57.21-54.43-72.21-90.36-6.58-15.5-11.75-31.54-16.05-47.78-.75-2.85.95-5.77 3.8-6.53Z" class="cls-8"/><path d="M516.99 847.7h-.27c-8.22.33-14.53 16.41-13.77 35.09.38 9.24 2.42 17.71 5.39 23.87 2.97 6.15 6.85 10 10.92 10h.26c8.22-.34 14.53-16.41 13.77-35.1-.01-.15-.01-.3-.02-.44-2.49-1.52-4.8-3.81-6.82-6.79-4-5.9-6.4-13.85-6.75-22.39a49 49 0 0 1-.01-3.68c-.89-.37-1.8-.56-2.7-.56" class="cls-21"/><path d="M212.84 652.27c-63.02-75.15-95.05-173.39-95.31-271.56-.03-24.02 1.41-48.06 5.82-71.72-8.88-3.32-23.65-8-25.76 4.25a.49.49 0 0 1-.57.41.5.5 0 0 1-.42-.51c.12-7.27 5.96-10.66 12.71-10.58 5.25.14 10.92 1.28 16.78 3.11l.43.13c21.34 6.78 45.2 22.65 60.88 33.4 101.82 73.76 190.17 171.47 247.02 283.99 9.75 20.21 18.04 41.14 24.1 62.71a439 439 0 0 0 10.64-52.29c6.36-45.57 6.27-92.01.36-137.63-1.13-8.37-2.4-16.73-4.1-24.99-.22 0-.45-.03-.68-.11-75.05-81.68-166.66-148.72-268.72-192.77-25.34-10.66-51.21-20.93-78-27.08-2.64-.5-5.28-.87-7.85-.95-4.94-.22-9.67.82-12.8 4.76-4.76 6.25-6.37 14.38-8.49 22.05-2.64 10.55-5.29 21.57-6.85 32.32-9.69 65.6-3.33 132.9 11.45 197.29 6.54 27.49 14.92 54.77 25.36 81.23 12.45 13.01 50.73 50.22 94 64.54" class="cls-2"/><path d="M575.3 781.18c2.51 2.98 5.16 5.69 7.81 8.02s5.3 4.29 7.83 5.74c4.7 2.71 8.42 3.38 10.23 1.85 1.8-1.52 1.76-5.31-.13-10.39-2.03-5.47-5.92-11.76-10.95-17.72-5.04-5.95-10.6-10.84-15.65-13.75-3.04-1.76-5.68-2.66-7.65-2.66-1.07 0-1.94.27-2.58.8-1.8 1.53-1.76 5.32.13 10.39 2.03 5.47 5.92 11.77 10.96 17.72" class="cls-8"/><path d="M385.46 800.3c-4.81 4.14-9.9 7.96-15.28 11.35-2.71 1.7-5.49 3.29-8.37 4.71-.98.49-1.91.92-3.05 1.39-1.52.63-3.26-.1-3.88-1.62-5.94-16.97-.75-36.15 4.85-52.49.07-.2.15-.41.23-.61a496 496 0 0 1-12.89-6.33h-.01c-25.5 4.78-54.79-3.24-77.31-13.02-1.91-.85-2.62-3.28-1.48-5.04 4.38-7.38 9.69-14.25 15.77-20.33-14.04-10.27-27.49-21.38-40.13-33.25a368 368 0 0 1-29.87-31.35c-42.29-13.45-80.06-49-94.25-63.56 21.98 54.96 52.88 106.26 94.61 148.41 23.37 23.63 50.31 42.91 78.57 60.43.24.14.31.45.17.69-.13.21-.41.29-.63.2-19.71-8.75-37.91-20.35-54.7-33.82-6.84-.54-14.18-.78-20.79-.23-19.97 1.29-39.72 7.24-56.9 17.45l-.42.25c-.15.09-.13.1-.21.14-.49.37-.68 1.08-.49 1.66.06.17.14.33.26.47.04.05.05.08.2.23 4.56 4.91 9.28 9.77 14.1 14.4 26.97 25.45 60.42 45.86 97.65 50.82 9.11 1.2 18.36 1.51 27.47.38 1.22-.15 2.6-.38 3.74-.62 1.91-.42 3.8.79 4.22 2.71.28 1.28-.18 2.55-1.08 3.38-1.35 1.24-2.75 2.45-4.07 3.73-8.36 8.18-15.76 17.93-19.71 29.02 2.48-.18 5.46-.4 5.46-.4 14.53-1.21 29.11-2.81 43.33-6.04 4.8-1.21 9.71-2.35 14.17-4.5 15.45-25.12 28.56-51.76 40.71-78.61Z" style="fill:url(#linear-gradient-2)"/><path d="M683.55 786.08c2.32 1.14 5.76.04 9.42-3.01 3.92-3.27 7.69-8.36 10.59-14.32 5.78-11.87 6.38-23.98 1.31-26.45s-14.23 5.47-20.01 17.34c-5.78 11.86-6.38 23.98-1.31 26.44" class="cls-8"/><path d="m666.42 732.4-35.14-66.38L606.36 737l38.16 69.13z" class="cls-2"/><path d="M360.63 761.26c1.34-3.57 2.78-7.09 4.36-10.56h-.01c-4.62 2.37-9.51 4.1-14.56 5.29 3.38 1.8 6.79 3.55 10.21 5.26Zm634.07 72.09c-4.15.18-8.35.48-12.46.96 3.89 5.42 8.04 10.66 12.63 15.45.83.86 1.75 1.7 2.6 2.55 13.24-3.74 26.26-8.3 38.77-13.95-3.12-1.14-6.36-2.06-9.65-2.8-10.43-2.16-21.22-2.64-31.89-2.21" class="cls-8"/><path d="M1098.39 567.12v.02c-5.58 17.12-12.18 33.91-19.86 50.26-21.26 44.4-51.65 86.21-93.67 112.89a161 161 0 0 1-7.88 4.71c1.66 4.35 3.36 8.67 5.17 12.93 1.06 2.28-.94 5.05-3.44 4.71-9.9-.95-19.32-2.81-28.09-5.62-5.19 1.85-10.47 3.41-15.81 4.68 12.63 25.23 25.92 50.19 41.35 73.78 1.14 1.7 2.29 3.4 3.46 5.09 15.93-2.26 32.09-2.67 47.96.26 2.16.45 4.32.97 6.46 1.59-4.15-3.97-8.99-7.25-14.1-9.98-8.17-4.32-17.08-7.48-26.16-9.33a.49.49 0 0 1-.41-.59c.05-.26.29-.43.54-.4 8.6 1.17 17.38 3.24 25.57 6.58h.02c1.17-.6 2.44-.84 3.68-1.18 2.26-.56 5.92-1.69 8.19-2.38 38.31-12.58 72.42-38.83 97.22-70.4l-5.46-5.37-3.68-3.15c-.62-.57-2.17-1.83-2.76-2.37-.6-.45-4.17-3.1-4.86-3.6-1.05-.91-2.82-1.93-4-2.7-7.98-5.19-17.01-9.25-26.31-11.23-3.83-.79-7.84-1.3-11.76-1.26-1.67 0-3.44.09-5.13.33-1.93 2.62-3.88 5.22-5.86 7.81a2.89 2.89 0 0 1-4.06.56 2.905 2.905 0 0 1-.58-4.04c39.97-53.94 70.03-115.34 85.71-180.7 1.53-6.26 2.93-12.53 4.19-18.82-14.92 21.99-36.25 39.7-45.65 46.93Z" style="fill:url(#linear-gradient-3)"/><path d="M798.97 781.49c-.8-.08-1.6-.11-2.4-.11-7.54 0-14.87 3.3-21.43 9.12l.41.03c5.28.5 9.89 4.43 12.96 11.08 2.31 4.98 3.55 11.06 3.63 17.54.99-.29 1.99-.39 2.98-.3 9.16.86 14.82 17.77 12.89 38.51-.91 9.74-3.39 18.76-6.98 25.41-3.54 6.53-7.8 10.08-12.09 10.08-.24 0-.48-.01-.72-.04-9.05-.84-14.69-17.37-12.95-37.79-1.54.62-3.12.95-4.73.95-.36 0-.72-.01-1.09-.05-8.91-.82-15.5-11.7-16.47-25.74-1.57 6-2.71 12.38-3.33 19.01-3.69 39.52 12.45 73.46 35.96 75.65 23.51 2.18 45.65-28.18 49.33-67.7.35-3.79.53-7.55.53-11.26 0-15.14-2.92-29.36-8.49-40.89-6.82-14.11-16.76-22.46-28.01-23.5m-238.8 77.04c-1.74 13.92-9.29 24.46-18.76 24.84-.18 0-.36.01-.54.01-1.9 0-3.77-.4-5.56-1.19.65 20.13-6.19 36.07-15.71 36.46-.12.01-.24.01-.35.01-9.48 0-17.48-15.58-18.3-35.79a75 75 0 0 1-.07-3.32c0-18.87 6.66-33.48 15.76-33.85a8.6 8.6 0 0 1 3.16.46c.45-6.37 2.11-12.29 4.82-17.08 3.6-6.36 8.64-9.99 14.18-10.21.14-.01.29-.01.44-.01-6.91-6.35-14.9-9.99-23.3-9.99-.4 0-.79.01-1.18.02-24.83 1.01-43.75 33.52-42.17 72.47 1.56 38.33 22.39 68.83 46.71 68.83.4 0 .79 0 1.18-.02 11.9-.48 22.85-8.2 30.81-21.72 8.1-13.74 12.13-31.76 11.36-50.74a109 109 0 0 0-2.48-19.18" style="fill:#52180b"/><path d="m1096.23 149.28-.76-1.96-.38-.98c-1.26-3.35-5.5-5.14-8.74-3.51-14.93 7.3-29.9 15.34-44.09 24C931.3 234.09 849.7 338.92 780.6 446.84l-4.51 7.13s-.45.71-.84 1.33c15.17-4.09 30.59-7.21 46.2-9.19 1.84-.31 3.49 1.5 3.03 3.31-1.92 8.51-3.97 17.01-6.27 25.44-3.59 12.86-7.58 25.64-12.79 37.95 7.8 47.09 23.7 84.49 48.54 114.2 21.65-140.27 72.79-278.39 162.71-389.43 10.54-13.15 21.82-25.7 33.82-37.54 8.03-7.85 16.41-15.34 25.08-22.47 4.41-3.49 8.87-6.91 13.42-10.2.23-.16.54-.11.7.11.14.19.12.45-.03.62-4.59 5.48-9.24 10.9-13.91 16.31.99 1.86 1.68 4.03 2.4 5.55 19.57 47.14 32.8 96.85 39.46 147.47 9.64 75.96 4.81 154.9-18.68 227.98 10.16-7.93 31.29-25.86 45.6-47.79 23.97-122.31-.98-249.86-46.78-364.45l-1.53-3.92Z" class="cls-2"/><path d="M949.18 864.09c-10.78 1.07-21.63 1.17-32.43 1.07-.26 0-.46-.19-.49-.43-.79-4.88-2.19-9.72-3.57-14.51-13.09-43.16-53.98-149.2-102.74-157.11-9.86-1.68-19.48 2.38-27.71 7.47-47.31 29.8-72.83 100.94-86.67 152.95-4.76 18.6-8.56 37.48-10.86 56.54 8.35 1.57 14.31 4.72 17.28 8.79 3.31 4.53 2.95 10.11-1.01 15.7-13.34 18.83-36.97 27.22-37.2 27.31-.07.02-.14.04-.22.04-.34.05-.72.07-1.12.07-11.13 0-41.65-15.62-44.63-29.43-1.4-6.52 2.76-11.77 12.38-15.66-13.09-35.12-28.23-69.62-46.33-102.47-14.26-24.97-36.51-62.11-63.72-73.42-8.59-3.58-18.22-3.01-26.88.01-36.19 13.23-58.99 66.65-71.56 100.7-9.19 25.6-16.57 51.99-21.76 78.69-.06 1.24.36 2.51 1.3 3.92a3.364 3.364 0 0 1-3.49 2.73l-14.5-.79c-9.49-.78-19.49-1.7-28.92-3.16-14.32-2.11-28.85-5.15-42.7-9.42-6.55-2.11-13.04-4.34-19.31-7.15 20.12 47.62 58.94 90.36 110.59 102.16.28.03.48.31.43.59-.06.26-.31.44-.57.4-29.94-5.78-56.01-21.77-77.04-43.2-4.37.16-8.76.06-13.14-.14-2.63-.13-5.24-.3-7.86-.5 95.77 96.69 239.72 128.66 372.18 118.8 117.91-9.51 240.03-46.25 328.06-128.17 8.67-8.44 16.84-17.4 24.27-26.91-5.37 2.47-10.87 4.63-16.43 6.64-10.25 3.65-20.57 6.73-31.18 9.22-2.18.55-3.6-2.29-1.96-3.72 7.44-6.83 14.1-14.48 20.09-22.62 16.72-23.04 29.25-49.22 38.39-76.16-8.29 3.43-16.66 6.28-25.19 8.86-20.77 6.25-42.18 10.47-63.78 12.31m-395.3 65.88c-8.5 14.43-20.32 22.67-33.28 23.2-.42.02-.85.02-1.28.02-25.93 0-48.11-31.77-49.73-71.71-1.64-40.61 18.56-74.51 45.05-75.59 10.92-.45 21.24 4.77 29.71 13.92a62 62 0 0 1 4.13 4.97s.01 0 .01.01c2.96 3.96 5.63 8.44 7.93 13.35a90 90 0 0 1 3.95 9.94c2.99 8.97 4.85 18.95 5.28 29.5.79 19.56-3.39 38.16-11.77 52.39m176.58 31.35c-3.84 4.32-8.15 8.28-12.96 11.62-.38.27-.75.54-1.14.8 2.96 20.08-3.13 44.65-14.91 60.05-6.63 8.66-14.49 13.69-22.73 14.56-1.64.18-3.27.26-4.88.26-12.13 0-23.24-4.9-32.38-14.35-14.28-14.75-20.99-37.52-19.42-51.52-4.31-1.38-8.33-3.51-11.47-6.82-.41-.49.29-1.16.75-.65 4.47 4.05 10.72 5.81 16.62 6.47l3.62.23c.73-.01 3.9-.1 4.54-.11 4.53-.43 9.05-1.16 13.41-2.45 3.54-.9 6.96-2.2 10.37-3.48l6.71-2.91c.86-.39 1.75-.24 2.52.16 14.55 8.21 33.19 6.73 47.22-2.04 4.85-2.91 9.33-6.5 13.41-10.51.19-.19.51-.19.7.01.19.19.19.49.02.68m107.47-103.9c-3.7 39.73-25.81 70.53-49.96 70.53-.88 0-1.75-.04-2.63-.12-25.17-2.34-42.52-37.75-38.68-78.92 1-10.71 3.34-20.78 6.69-29.76a97 97 0 0 1 4.63-10.51c2.37-4.59 5.02-8.76 7.91-12.45 0 0 0-.01.01-.01 1.37-1.76 2.8-3.41 4.27-4.93 8.57-8.9 18.69-13.72 29.08-12.75 12.34 1.15 23.14 10.09 30.43 25.18 7.16 14.84 10.09 33.93 8.25 53.74" class="cls-8"/><path d="M667.55 978.62c-11.5 4.14-23.89 7.15-36.15 6.07-2.45-.29-4.96-.72-7.41-1.38-1.33 13.32 5.34 35.55 18.91 49.56 9.91 10.24 22.22 14.91 35.61 13.49 7.68-.81 15.06-5.58 21.35-13.79 11.3-14.76 17.22-38.21 14.65-57.63-13.85 8.58-31.96 10.48-46.96 3.68" style="fill:#c23939"/><path d="M769.64 853.93c1.99.19 3.96-.22 5.85-1.15.74-.35 1.47-.79 2.17-1.31 6.21-4.49 11.13-14.58 12.25-26.62.08-.82.14-1.63.17-2.44.05-.82.07-1.63.07-2.43v-.18c0-6.43-1.19-12.46-3.45-17.35-2.77-5.98-6.79-9.5-11.34-9.92-.31-.03-.62-.05-.93-.05q-.765 0-1.53.12c-7.44 7.44-13.73 18.18-17.96 30.98-.91 16.06 5.48 29.49 14.7 30.35" class="cls-4"/><path d="M777.37 853.96c-.02.18-.03.36-.05.54-1.77 18.96 3.31 35.6 11.09 36.32 3.62.36 7.58-2.94 10.86-9.01 3.47-6.41 5.87-15.16 6.75-24.64 1.77-18.97-3.31-35.6-11.09-36.33-.17-.01-.34-.02-.51-.02-.75 0-1.52.15-2.29.46-.03 1.24-.1 2.49-.22 3.76-1.26 13.44-7.17 24.56-14.54 28.92" class="cls-21"/><path d="M618.53 932.89s3.67 25.19 45.44 33.41c0 0 38.67-16.04 39-38.84 0 0-2.61 19.1-39.78 33.42 0 0-32.3-2.76-44.66-27.99" class="cls-12"/><path d="M619.56 927.2s-.07 8.41 9.91 14.74 18.59 11.28 32.74 15.26c0 0 32.02-11.87 40.04-35.28 0 0 9.27 15.03-38.67 39.1-8.71.32-49.21-16.14-44.02-33.82" class="cls-10"/><path d="M292.78 799.91s-.09 0-.21-.01c.07.02.14.02.21.01m100.51-6.88s-.05.25-.15.73c.09-.26.14-.5.15-.73" class="cls-19"/><path d="M1072.8 187.84c-8.91 10.27-17.87 20.5-26.66 30.89-14.17 16.82-28.56 33.99-41.5 51.8-37.68 51.35-68.23 107.84-92.41 166.73-11.95 29.31-22.32 59.19-31.39 89.47 9.42-12.19 21.28-21.29 33.75-29.88 42.7-137.23 124.39-259.22 158.97-307.14l-.75-1.86ZM934.3 750.71c2.73-.83 6.04-1.72 8.43-2.64l4.76-1.68c.18-.07.35-.15.54-.22-7.5-2.59-14.49-5.9-20.9-9.97 0 0-.01 0-.02-.01 2.38 4.84 4.77 9.69 7.18 14.52Z" class="cls-12"/><path d="M523.14 352.57c-7.62 30.52-28.06 56.33-42.07 84.11-5.36 10.52-9.94 21.4-13.39 32.65a2.28 2.28 0 0 1-1.33 1.46c1.99 10.64 3.64 21.35 4.95 32.11 4.09-9.02 24.26-53.54 36.41-80.17 9.55-20.93 13.87-54.63 15.44-70.17Z" class="cls-19"/><path d="M276.55 738.96c18.84 8.61 42.32 15.81 63.94 14.34 1.38-.1 2.76-.22 4.12-.4 0 .01 0 0 0 0 7.01-.85 13.77-2.69 20.06-5.77 4.02-2.08 7.75-4.66 11.15-7.67-55.44 6.54-99.28-.5-99.28-.5Z" class="cls-6"/><path d="M352.49 598.18s51.72 1.7 73.1 18.6c-3.7-6.9-7.51-13.74-11.46-20.5-.73-.32-1.39-.77-2.12-1.1-4.3-2.3-9-4.7-13.47-6.53l-4.56-2.01-4.68-1.68-4.67-1.68c-2.63-.89-6.81-1.95-9.52-2.76-24.49-6.36-50.36-4.93-74.89-11.18-9.59-2.4-18.92-5.82-27.89-9.99v.03c10.41 11.9 36.84 36.29 80.15 38.8Z" class="cls-19"/><path d="M359.48 810.72c16.65-7.26 30.97-19.31 43.08-32.75 1.88-2.29 4.03-4.79 5.88-7.1 1.15-1.57 4.35-5.9 5.48-7.43 2.56-3.96 5.93-8.93 8.13-13.1l3.03-5.39c-26.8 33.69-65.61 65.77-65.61 65.77Z" class="cls-6"/><path d="M814.27 468.53a588 588 0 0 0 3.98-16.46c-38.94 5.29-76.54 17.6-111.99 34.52 0 0 79.87-21.97 108-18.06Z" class="cls-19"/><path d="M364.15 571.71c7.55 1.73 15 3.89 22.21 6.73 2.33 1.01 7.1 2.99 9.43 4l4.56 2.32c3.41 1.63 6.93 3.59 10.29 5.58-51.52-86.64-121.59-161.92-199.51-225.45-26.26-20.41-53.28-40.56-83.69-54.2-.46 3.84-.86 7.69-1.23 11.55 52.15 31.84 161.16 126.06 237.94 249.48Z" class="cls-12"/><path d="M465.42 470.99c-.22 0-.45-.03-.68-.11-75.05-81.68-166.66-148.72-268.72-192.77-25.34-10.66-51.21-20.93-78-27.08-2.64-.5-5.28-.87-7.85-.95-4.94-.22-9.67.82-12.8 4.76-4.76 6.25-6.37 14.38-8.49 22.05-2.64 10.55-5.29 21.57-6.85 32.32-1.37 9.26-2.4 18.55-3.15 27.86 4.87-34.44 14.96-60.9 20.32-73.19 1.93-4.43 6.88-6.69 11.5-5.27 36.21 11.12 190.78 66.58 359.86 245.93-.32-2.86-.67-5.71-1.04-8.56-1.13-8.37-2.4-16.73-4.1-24.99" class="cls-5"/><path d="M121.59 319.49c.53-3.51 1.11-7.01 1.76-10.5-8.19-3.06-21.37-7.27-25.03 1.69 3.66-.89 11.81 2.2 23.28 8.81Z" class="cls-10"/><path d="m1123.12 739.36-3.68-3.15c-.62-.57-2.17-1.83-2.76-2.37-.6-.45-4.17-3.1-4.86-3.6-1.05-.91-2.82-1.93-4-2.7-7.98-5.19-17.01-9.25-26.31-11.23-3.83-.79-7.84-1.3-11.76-1.26-1.67 0-3.44.09-5.13.33-.59.8-1.2 1.59-1.79 2.39 8.83-.06 34.74 2.18 65.75 26.97l-5.46-5.37Z" class="cls-19"/><path d="M1086.6 151.13a2.63 2.63 0 0 1 3.43 1.3c6.83 14.45 43.48 96.88 63.17 241.3-3.75-82.34-24.99-164.31-55.45-240.53l-1.53-3.92-.76-1.96-.38-.98c-1.26-3.35-5.5-5.14-8.74-3.51-14.93 7.3-29.9 15.34-44.09 24-110.96 67.26-192.56 172.09-261.66 280.01l-4.51 7.13s-.45.71-.84 1.33c7.37-1.99 14.8-3.74 22.28-5.25 17.45-28.46 149.55-238.15 289.07-298.92Z" class="cls-5"/><path d="M631.4 984.69c-2.45-.29-4.96-.72-7.41-1.38-.77 7.71 1.16 18.39 5.53 28.75.08-.24 5.1-14.74 11.5-27.31-3.2.22-6.41.23-9.62-.06" class="cls-3"/><path d="M642.9 1032.87c9.91 10.24 22.22 14.91 35.61 13.49 7.68-.81 15.06-5.58 21.35-13.79 5.63-7.35 9.91-16.85 12.49-26.94-38.75 3.67-61.96 15.52-73.12 23 1.17 1.47 2.38 2.9 3.67 4.23Z" style="fill:#ff6461"/><path d="M714.51 974.94c-6.02 3.73-12.84 6.19-19.87 7.23 6.49 5.02 12.91 11.36 18.69 19.15 1.8-8.86 2.28-18 1.18-26.38" class="cls-3"/><path d="M1127.23 746.42c.45-.56.91-1.13 1.35-1.69-.61.56-1.22 1.09-1.83 1.64l.47.05Z" class="cls-19"/><path d="M1009.62 465c-3.65 8.35-21.41 23.48-21.41 23.48 8.68 40.48 5.01 80-20.65 111.51-4.6 5.65-9.9 11.05-15.98 16.15a58 58 0 0 1 6.55-1.37c2.28-.36 4.55-.57 6.81-.66 9.43-.34 18.68 1.64 27.43 5.13 40.43-53.99 20.9-162.59 17.24-154.24Zm11.67 172.03c.88 1.22.8 2.97-.32 4.06-4.81 4.91-9.88 9.51-15.18 13.69-19.45 15.35-41.99 25.02-66.17 23.12.93.54 1.84 1.11 2.74 1.71 15.53 9.84 24.09 27.31 30.23 43.88 1.14 2.98 2.26 5.95 3.39 8.9l3-1.88 2.14-1.34c30.15-20.02 54.3-48 72.9-78.84 15.99-27.02 28.51-55.7 37.94-85.4 1.42-4.46 2.76-8.95 4.04-13.46l-74.71 85.55Z" class="cls-12"/><path d="M237.82 766.07c-4.65-.37-9.54-.59-14.27-.52-.37 0-.74 0-1.11.02-1.84.04-3.65.13-5.41.28-19.97 1.29-39.72 7.24-56.9 17.45l-.42.25c-.15.09-.13.1-.21.14-.49.37-.68 1.08-.49 1.66.06.17.14.33.26.47.04.05.05.08.2.23.38.41.77.82 1.15 1.23 6.48-3.53 33.41-17.22 64.49-19.26 1.02-.07 2.04-.12 3.07-.16 3.99-.16 8.03-.12 12.1.17-.82-.64-1.64-1.29-2.46-1.94Zm480.67-457.36c-2.38 1.55-4.78 3.09-7.18 4.61-46.08 29.38-95.72 53.38-139.16 86.59-12.61 9.73-24.36 20.59-34.65 32.69-.12.2-.26.37-.42.5h-.01c-3.8 4.5-7.4 9.16-10.76 14.01-1.45 2.22-4.25 6.14-5.55 8.53-.88 1.47-1.79 2.93-2.72 4.39 17.27-17.31 37.29-31.43 58.53-44.19 70.87-42.54 155.44-69.81 197.67-149.23-17.23 15.72-36.21 29.4-55.76 42.09Z" class="cls-19"/><path d="m889.28 683.34-.02-.03s-7.89 30.2 35.93 51.63c-17.02-11.41-29.63-28.38-35.91-51.6" class="cls-6"/><path d="M972.94 456.96c-8.34 9.74-18.08 18.16-28.39 25.77-6.96 5.14-14.19 9.92-21.44 14.48-18.37 11.49-35.87 24.89-46.51 43.97-1.14 4.01-2.26 8.02-3.36 12.04 9.55-16.21 24.35-27.75 39.5-37.52 14.11-9.11 28.52-16.7 39.22-25.12 16.75-13.18 20.46-26.35 21.18-33.04l-.21-.57ZM393.12 793.82c-13.77 31.9-29.19 63.05-47.33 92.7-5.3 8.47-10.84 16.81-16.84 24.86 50.31-59.6 62.74-110.98 64.19-117.61 0 .02 0 .04-.02.06Z" class="cls-19"/><path d="M370.83 829.41c-30.64 35.76-76.12 55.35-89.02 60.4 0 .02-.01.03-.02.05 2.48-.18 5.46-.4 5.46-.4 14.53-1.21 29.11-2.81 43.33-6.04 4.03-1.02 8.15-2 12.01-3.56.73-.3 1.45-.6 2.16-.95 10.36-16.84 19.64-34.36 28.31-52.17-.73.9-1.48 1.79-2.23 2.67" class="cls-6"/><path d="M954.41 797.04a698 698 0 0 1-29.2-62.1s16.39 68.86 66.32 118.04c-2.89-3.01-6.23-7.04-8.81-10.36-10.85-14.29-19.86-29.81-28.32-45.59Z" class="cls-19"/><path d="M993.9 812.12c8.6 1.17 17.38 3.24 25.57 6.58h.02c1.17-.6 2.44-.84 3.68-1.18 2.26-.56 5.92-1.69 8.19-2.38 37.62-12.36 71.18-37.9 95.87-68.71l-.47-.05c-85.89 77.21-155.22 23.2-155.22 23.2 24.65 7.43 49.7 0 49.7 0-17.22-27.39-36.38-39.28-36.38-39.28a161 161 0 0 1-7.88 4.71c1.66 4.35 3.36 8.67 5.17 12.93 1.06 2.28-.94 5.05-3.44 4.71-9.9-.95-19.32-2.81-28.09-5.62-5.19 1.85-10.47 3.41-15.81 4.68.52 1.04 1.05 2.07 1.57 3.11 11.98 23.8 24.61 47.32 39.12 69.63.22.34.44.69.66 1.03 1.14 1.7 2.29 3.4 3.46 5.09 15.93-2.26 32.09-2.67 47.96.26 2.16.45 4.32.97 6.46 1.59-4.15-3.97-8.99-7.25-14.1-9.98-8.17-4.32-17.08-7.48-26.16-9.33a.49.49 0 0 1-.41-.59c.05-.26.29-.43.54-.4Z" style="fill:#c23300"/><path d="M988.87 623.87c-8.01-3.19-16.33-4.92-24.86-4.69-8.31.22-16.81 2.27-25.42 6.61 27.16-2.54 51.93 3.22 75.43 13.35-7.9-6.46-16.34-11.75-25.15-15.27m-17.19 115.56c-.16-.44-.31-.89-.47-1.33-.28-.81-.56-1.62-.83-2.42-3.96-11.56-7.75-23.19-13.76-33.69-7.19-12.98-19.32-21.76-32.95-27-1.05-.3-2.1-.63-3.15-.98 7.72 3.15 24.56 12.05 33.01 32.04 4.82 11.4 8.75 19.75 11.94 25.86 3.66 7 6.35 11.06 8.31 13.37-.73-1.95-1.42-3.9-2.1-5.86Z" class="cls-19"/><path d="M292.52 799.89c-6.41-2.85-12.66-6-18.75-9.41-11.24-6.3-21.95-13.51-32.15-21.41-.45-.35-.89-.7-1.34-1.04-4.07-.29-8.11-.33-12.1-.17-1.03.04-2.05.1-3.07.16 1.49 1.33 2.99 2.6 4.48 3.82 30.9 25.35 60.38 27.89 62.98 28.06-.02 0-.04 0-.05-.01m510.56-290.93 6.85-17.09 4.34-23.34s-31.93 67.62-69.89 90.51c0 0 34.36 7.57 68.08-12.63-1.1-4.36-6.38-25.59-8.29-36.89-.37-.19-.72-.37-1.09-.57Z" class="cls-6"/><path d="M845.92 513.79s-11.82 11.46-41.62-4.19l8.18 36.8c11.72-7.02 23.35-17.39 33.44-32.61" class="cls-10"/><path d="M1159.35 473.85c5.76-52.76 3.32-108.98-7.23-167.1-9.35-51.44-25.28-105.58-47.36-160.89-.06-.18-.3-.79-.56-1.43-.27-.69-.55-1.41-.59-1.53-1.47-3.93-4.7-7.12-8.85-8.75-4.13-1.62-8.63-1.49-12.36.37l-7.66 3.82c-51.09 25.64-99.64 60.75-144.29 104.37-28.74 27.96-56.09 59.27-83.59 95.69-23.16 30.68-46.48 65.12-71.29 105.3l-6.61 10.83c-.54.85-.8 1.71-.8 2.62-17.21 5-34.73 11.46-52.08 19.2 3.58-4.29 6.93-8.82 9.97-13.48 12.3-19.29 22-41.55 29.66-68.05 7.28-25.2 11.78-51 15.21-72.92 2.62-17.55 4.86-36.82 6.84-58.92.05-.46-.1-.92-.41-1.26-.29-.32-.69-.51-1.13-.53-.45-.02-.86.14-1.18.44-17.59 15.92-37.91 30.79-65.89 48.23-16.22 10.2-33.13 19.93-49.49 29.34-30.37 17.47-61.77 35.54-90.09 57.39-13.18 10.4-23.1 19.57-31.19 28.81 1.59-25.95-2.57-54.04-13.06-88.36-.54-1.65-2.02-2.01-3.16-1.65-1.17.37-2.12 1.54-1.67 3.08-1.22 10.81-4.39 22.09-9.44 33.51-5.4 12.18-12.33 23.88-19.02 35.19-5.23 8.84-10.63 17.97-15.31 27.31-5.01 9.86-9.16 19.74-12.34 29.38-44.99-49.15-95.64-92.32-150.55-128.33-56.5-37.06-116.53-65.85-178.41-85.58-19.76-6.1-30.21-6.9-37.28-2.84-3.97 2.28-7.04 6.26-9.68 12.55-2.51 5.99-4.59 13.92-6.94 23.98-1.91 7.7-3.57 16.02-4.95 24.72-3.97 26.3-5.45 54.4-4.41 83.49.95 26.27 3.99 54.26 9.05 83.19 8 44.18 20.2 86.02 36.27 124.36 17.41 41.53 39.42 79.05 65.43 111.52 16.97 20.79 34.62 38.74 52.48 53.37-2.26-.33-4.27-.57-6.13-.73-4.75-.52-10.28-.67-16.46-.46-18.28.85-36.17 5.56-51.71 13.61l-1.02.54c-1.25.65-2.54 1.33-3.77 2.13-2.31 1.64-3.4 4.81-2.59 7.54.27 1.07 1.03 2.2 1.61 2.84l2.76 3.04c4.49 5.08 10.32 11 17.34 17.6 11.64 10.74 23.92 19.92 36.48 27.3 13.68 8.03 27.79 13.95 41.95 17.61 14.32 3.61 27.69 5 39.75 4.12-2.69 3.16-5.33 6.73-7.85 10.62-4.1 6.62-6.94 12.77-8.66 18.81-.08.32-.17.65-.26.99-.25.88-.5 1.79-.51 2.76a2.32 2.32 0 0 0 2.53 2.06c1.78-.19 3.82-.38 5.97-.59 4.1-.39 8.35-.79 11.63-1.26 9.63-1.19 22.3-2.96 34.93-6.15.54-.15 1.08-.3 1.63-.46 2.9-.81 5.9-1.64 8.76-2.72-5.83 9.23-11.95 18.12-18.2 26.44-5.71-1.47-11.31-3.15-16.65-5-6.69-2.36-11.69-4.43-16.23-6.7-.6-.24-1.17-.58-1.72-.91-1.39-.83-2.7-1.61-4.39-.91-1.75.73-2.57 2.76-1.84 4.52 9.94 24.02 24.18 46.1 41.19 63.9-9.39-1.17-18.66-3.34-25.71-5.11-.88-.16-1.79.09-2.44.69-.56.51-.88 1.21-.91 1.97-.03.77.24 1.49.77 2.04 29.08 31.45 63.86 57.8 103.38 78.32 36.84 19.13 77.92 33.29 122.11 42.08 35.65 7.09 73.13 10.67 111.66 10.67 6.28 0 12.58-.09 18.91-.29 42.99-1.29 86.31-6.93 128.75-16.76 97.01-23.17 174.37-62.34 229.95-116.44 12.96-12.87 24.19-26.45 33.38-40.36.77-1.18.79-2.7.05-3.88a3.59 3.59 0 0 0-4.93-1.13c-4.02 2.64-8.48 5.18-13.63 7.74-10.73 5.27-22.78 10.01-35.81 14.09 11.07-11.36 21.21-25.31 30.97-42.61 10.2-18.31 18.56-37.42 24.86-56.78.27-.85.11-1.78-.43-2.5-5.08-6.21-11.71-11.4-19.75-15.44 1.13-.29 2.61-.71 3.29-.91 20.22-5.83 39.9-15.54 58.48-28.85 17.73-12.7 33.54-27.99 46.99-45.44.69-.96.58-2.31-.27-3.13l-7.17-7.04c-.6-.5-1.59-1.35-2.61-2.23-1.2-1.03-2.44-2.1-3.13-2.67-12.35-10.03-25.2-16.52-38.17-19.27-5.14-1.03-9.72-1.47-13.99-1.33 24.98-34.8 45.43-72.54 60.77-112.17 15.63-40.38 25.75-82.17 30.06-124.21Zm-23.03-199.2c.65 2.77 1.27 5.54 1.88 8.3.55 2.5 1.09 5.01 1.62 7.51.18.84.35 1.67.52 2.51 6.08 29.52 10.29 59.39 12.24 89.34.07 1.12.15 2.24.21 3.36.09 1.52.18 3.04.26 4.55q.21 4.155.36 8.28c.03.67.05 1.35.07 2.02 1.32 40.38-1.69 79.45-9.06 117.07-13.95 21.38-34.2 38.83-45.24 47.48 11.36-35.44 18.64-73.31 21.64-112.55 2.88-37.57 1.84-76.29-3.08-115.1-6.7-50.93-19.98-100.56-39.47-147.51-.29-.61-.58-1.33-.88-2.1-.43-1.07-.91-2.28-1.49-3.39 4.15-4.81 9.04-10.49 13.85-16.24a.631.631 0 0 0-.85-.92c-4.08 2.95-8.47 6.28-13.43 10.2-8.77 7.22-17.21 14.78-25.09 22.48a437 437 0 0 0-33.83 37.55c-43.15 53.28-79.14 115.12-106.98 183.79-25.7 63.4-44.45 132.51-55.72 205.43-24.74-29.68-40.55-66.94-48.33-113.89 5.72-13.51 9.84-27.37 12.79-37.94 2.07-7.62 4.07-15.71 6.27-25.45.23-.89-.02-1.85-.68-2.56-.65-.72-1.59-1.05-2.49-.9-15.07 1.91-30.51 4.97-45.9 9.11l5.18-8.19c59.13-92.36 142.31-207.66 261.62-279.97 13.27-8.1 28.1-16.18 44.08-23.99 1.47-.74 3.26-.79 4.92-.14 1.71.67 3.04 1.98 3.65 3.59l2.67 6.86c16.31 40.8 29.07 80.73 38.28 119.69.14.57.27 1.15.41 1.72m-114.06 542.98c-.93.24-1.88.49-2.78.94-7.58-3.08-16.18-5.3-25.57-6.58a.626.626 0 0 0-.68.5c-.04.17 0 .34.1.48s.25.23.41.26a97.6 97.6 0 0 1 26.13 9.32c5.33 2.84 9.93 6.08 13.7 9.61-1.87-.53-3.83-1-5.98-1.45-7.53-1.39-15.36-2.08-23.62-2.08-7.7 0-15.77.6-24.31 1.81a352 352 0 0 1-3.41-5.03c-16.66-25.46-30.8-52.7-41.27-73.62 5.28-1.26 10.54-2.82 15.63-4.63 8.65 2.77 18.09 4.65 28.07 5.61 1.21.16 2.39-.36 3.16-1.4s.93-2.38.41-3.48c-1.57-3.69-3.2-7.77-5.13-12.83 2.53-1.42 5.15-2.98 7.79-4.66 19.86-12.61 38.25-29.38 54.65-49.83 14.57-18.16 27.71-39.4 39.07-63.11 7.54-16.05 14.22-32.95 19.86-50.26 8.65-6.67 30.21-24.41 45.3-46.42-1.25 6.14-2.61 12.26-4.07 18.21-15.3 63.79-44.13 124.57-85.69 180.65a3.03 3.03 0 0 0 .6 4.21c.64.49 1.44.69 2.24.58s1.51-.53 1.99-1.17c1.81-2.36 3.72-4.91 5.83-7.77 1.56-.21 3.3-.32 5.06-.32 3.58-.04 7.52.39 11.73 1.26 8.76 1.87 17.84 5.74 26.27 11.22.3.2.64.41 1 .63 1.03.65 2.21 1.38 2.99 2.06.74.54 4.81 3.57 4.84 3.59.28.26.76.66 1.28 1.09.57.48 1.16.97 1.49 1.28l3.67 3.15 5.38 5.3c-26.25 33.37-60.72 58.33-97.09 70.28l-.83.25c-2.26.69-5.36 1.64-7.36 2.13-.29.08-.58.16-.87.23ZM999.66 919c-6.28 8.53-13.03 16.14-20.07 22.6-.91.79-.9 1.96-.47 2.77.51.97 1.51 1.43 2.54 1.17 10.44-2.45 20.64-5.47 31.19-9.22 6.15-2.22 11.25-4.27 15.97-6.43-7.03 8.96-15.08 17.87-23.94 26.49-98.88 92.02-232.94 120.47-327.98 128.14a623 623 0 0 1-46.44 1.74c-131.68 0-248.47-42.75-325.41-120.27 2.66.2 5.12.36 7.53.47 5.13.23 9.3.28 13.1.14 10.85 11.04 22.68 20.28 35.17 27.45 13.34 7.66 27.43 12.95 41.9 15.75.32.05.63-.17.71-.5a.62.62 0 0 0-.12-.49.57.57 0 0 0-.41-.24c-46.61-10.65-87.85-48.69-110.38-101.79 6.4 2.85 12.93 5.06 19.03 7.03 12.9 3.98 27.28 7.15 42.72 9.42 9.47 1.47 19.5 2.39 28.93 3.16l14.5.79h.19a3.5 3.5 0 0 0 3.43-2.84c0-.03 0-.07-.02-.09-.92-1.38-1.34-2.64-1.28-3.83 5.08-26.15 12.4-52.62 21.75-78.67 5.66-15.33 14.61-38.04 26.91-58.13 13.71-22.39 28.71-36.69 44.57-42.49 9.42-3.28 18.93-3.29 26.79-.01 28.53 11.86 52.26 53.4 63.66 73.37 16.9 30.68 32.04 64.16 46.28 102.34-9.6 3.91-13.75 9.21-12.34 15.76 1.32 6.13 8.36 13.41 19.32 19.98 9.38 5.62 19.84 9.55 25.44 9.55.43 0 .81-.02 1.12-.07.1 0 .19-.03.27-.05h.04c2.47-.92 24.48-9.38 37.22-27.35 4-5.64 4.35-11.27 1.01-15.85-3.03-4.15-9.15-7.28-17.24-8.82 2.17-17.92 5.72-36.37 10.84-56.41 20.86-78.38 50-129.81 86.62-152.88 10.37-6.41 19.41-8.85 27.62-7.45 11.31 1.83 22.99 9.16 34.71 21.78 9.98 10.75 20.06 25.38 29.95 43.5 16.85 30.88 30.67 67.64 37.98 91.75l.04.13c1.35 4.69 2.75 9.54 3.53 14.36.04.31.3.54.61.54 10.28.09 21.33.03 32.44-1.07 21.18-1.8 42.65-5.95 63.81-12.32 9.35-2.83 17.51-5.69 24.95-8.76-9.82 28.87-22.7 54.39-38.28 75.87Zm-695.49-60.45c.5-.45 1-.9 1.5-1.36a3.67 3.67 0 0 0 1.11-3.5 3.68 3.68 0 0 0-4.36-2.81c-1.14.24-2.53.47-3.73.62-8.51 1.06-17.48.93-27.44-.38-33.33-4.44-67.08-22-97.58-50.78-4.53-4.35-9.27-9.19-14.1-14.4-.1-.1-.13-.14-.15-.17-.01-.02-.03-.03-.04-.05a1.2 1.2 0 0 1-.23-.42c-.18-.55.01-1.19.44-1.51.04-.02.06-.04.08-.06a.6.6 0 0 1 .12-.08c.24-.14.36-.21.42-.26 17-10.1 36.66-16.13 56.85-17.43 5.77-.48 12.75-.41 20.73.22 17.66 14.16 36.06 25.54 54.7 33.81.28.12.63 0 .79-.25.18-.3.08-.69-.21-.86-33.15-20.55-58.11-39.75-78.55-60.41-39.11-39.5-70.85-89.22-94.35-147.79 14.59 14.9 51.99 49.81 93.83 63.13 9.35 11.04 19.4 21.58 29.86 31.33 12.42 11.67 25.89 22.83 40.02 33.17a103.3 103.3 0 0 0-15.68 20.25c-.57.87-.72 1.96-.42 2.98a3.56 3.56 0 0 0 1.95 2.25c16.53 7.18 48.57 18.42 77.35 13.03 4.16 2.12 8.44 4.22 12.75 6.26-.02.06-.04.11-.06.17-.04.11-.09.23-.13.34-5.69 16.59-10.72 35.81-4.85 52.58.32.76.91 1.36 1.67 1.68s1.61.32 2.37 0c1.03-.42 1.94-.84 3.06-1.4 2.72-1.34 5.46-2.88 8.38-4.71 5.06-3.18 10.06-6.88 14.87-10.99-14.6 32.24-27.09 56.33-40.45 78.05-4.06 1.96-8.55 3.08-12.9 4.17l-1.21.31c-14.89 3.37-30.25 4.94-43.3 6.03-.01 0-3.55.26-5.28.39 3.54-9.83 10.14-19.51 19.62-28.79.84-.81 1.72-1.6 2.58-2.37ZM82.15 309.22c1.58-10.86 4.25-21.92 6.85-32.31.31-1.13.61-2.27.92-3.42 1.73-6.53 3.51-13.28 7.55-18.59 2.73-3.43 6.87-4.97 12.7-4.71 2.28.07 4.84.38 7.83.95 27.67 6.35 54.76 17.3 77.98 27.07 99.29 42.85 192.2 109.5 268.68 192.74.01.02.03.03.05.03.19.07.4.11.62.11 1.86 9.05 3.16 18.05 4.08 24.88 6.02 46.46 5.9 92.76-.36 137.6a439 439 0 0 1-10.52 51.83c-5.69-20.14-13.76-41.09-23.99-62.29-27.74-54.9-63.62-107.57-106.66-156.56-41.34-47.05-88.57-89.94-140.4-127.48-18.9-12.96-40.92-27.07-60.91-33.42l-.43-.13c-6.2-1.94-11.85-2.98-16.82-3.12h-.24c-7.55 0-12.49 4.18-12.59 10.7-.01.31.21.59.52.64.16.03.33 0 .46-.1a.6.6 0 0 0 .25-.41c.53-3.07 1.91-5.26 4.11-6.53 5.27-3.03 14.18-.35 21.39 2.33-3.94 21.18-5.84 44.61-5.8 71.64.13 49.74 8.25 98.34 24.13 144.45 16.34 47.44 40.2 90.12 70.93 126.85-42.36-14.17-79.48-49.68-93.51-64.35-10.08-25.55-18.61-52.87-25.35-81.19-16.39-71.38-20.24-137.74-11.45-197.24Zm452.13 121.06c-7.71 9.61-13.34 19.18-17.23 29.25-.12.28-.01.6.24.77.29.18.68.1.86-.19.96-1.51 1.87-2.99 2.72-4.39.89-1.65 2.49-4 3.9-6.08.62-.91 1.2-1.76 1.64-2.44 3.25-4.69 6.86-9.39 10.74-13.99.16-.13.31-.31.43-.51 9.77-11.49 21.42-22.48 34.63-32.67 27.47-21 57.93-38.62 87.39-55.65 17.12-9.9 34.82-20.14 51.76-30.93 26.55-16.84 45.9-31.19 62.71-46.49-4.66 45.75-10.42 80.37-18.66 112.21-5.69 21.57-15.36 53.43-33.58 80.95-5.46 8.2-11.68 15.7-18.5 22.31-.82.79-1.04 2.01-.56 3.04.3.64.83 1.13 1.5 1.37s1.39.21 2.03-.1c37.43-17.87 75.03-29.47 111.77-34.48-4.13 18.15-8.21 32.74-12.83 45.91-5.38 14.85-12.12 31.77-24.04 44.59-.5.52-.77 1.21-.75 1.93s.31 1.39.83 1.89 1.2.77 1.93.75c.72-.02 1.39-.31 1.89-.83 5.53-5.8 10.47-13.04 15.1-22.14 1.51-2.98 2.96-6.05 4.41-9.38 8 46.73 24.03 83.84 48.98 113.43-.5 3.24-.9 5.92-1.26 8.44-.05.33.17.64.5.7.34.07.67-.15.74-.49 6.71-33.22 14.49-65.45 23.13-95.79 11.21-20.12 29.78-33.49 46.46-43.93 16.41-10.31 35.13-23.14 49.72-40.11 19.05 51.18 28.12 121.24-36.55 164.8-1.17.83-1.16 2.14-.65 3.01s1.65 1.52 2.95.9c23.83-12.02 49.82-7.44 75.19 13.25-19.67 20.09-51.04 41.89-88.97 31.89-2.3-.8-4.66-1.54-7.02-2.18-.05-.02-.1-.04-.14-.05a2.042 2.042 0 0 0-2.47 2.82c.24.51.67.88 1.19 1.05.05.02.1.04.13.04 2.3.9 4.68 1.7 7.06 2.38 14.93 5.74 26.3 15.06 32.89 26.95 5.59 9.76 9.32 20.69 12.93 31.26l.82 2.41c.26.76.52 1.53.79 2.3l.04.12c.78 2.26 1.63 4.68 2.55 7.14-4.84-.45-9.5-1.1-13.84-1.93-1.34-.27-2.44-.5-3.47-.73-2.03-.45-4.02-.95-5.92-1.48-29.45-7.76-50.85-28.65-60.27-58.82a.62.62 0 0 0-.75-.4c-.16.04-.3.15-.39.3-.08.15-.1.31-.05.46 5.97 22.65 18.13 40.26 36.15 52.35a703 703 0 0 0 29.19 62.07c7.48 13.95 16.69 30.27 28.33 45.61 1.44 1.86 5.18 6.58 8.82 10.37.17.18.35.35.52.53l.07.07c-4.85 1.29-9.84 2.5-15.24 3.69-8.79 1.77-18.25 3.54-27.83 4.58-11.01 1.44-22.19 1.86-31.68 2.08-1.56-8.95-4.35-17.7-7.05-26.16l-.76-2.38c-10.04-30.22-22.12-58.05-35.92-82.73-15.26-26.39-36.24-57.26-63.29-61.73-7.86-1.38-16.55.58-25.84 5.82-16.39 9.18-31.09 23.98-44.94 45.24-28.86 46.24-47.65 102.66-55.85 167.67-13.42-2.26-30.89-.31-49.22 5.49-1.38.44-2.55.86-3.59 1.26-9.75-30.73-24.05-63.52-45.02-103.16-8.16-14.5-17.18-29.8-27.83-43.47-13.14-16.88-25.73-27.42-38.49-32.21-8.01-2.91-17.66-2.69-27.17.63-19.12 7.02-36.75 25.65-52.4 55.39-12.84 24.4-21.98 51.3-29.21 74.39-4.57 14.89-8.89 31.33-13.6 51.72-.03.07-.06.14-.1.22l-13.26-.71c-8.73-.68-17.33-1.55-24.87-2.53-10.92-1.54-20.64-3.33-29.7-5.47 5.4-7.26 10.88-15.35 16.73-24.71 16.71-27.32 32.2-57.65 47.34-92.72q.15-.375.18-.78c4.02-4.03 7.94-8.42 11.64-13.04.69-.94 1.42-1.91 2.16-2.89 1.16-1.55 2.37-3.15 3.45-4.65.54-.81 1.52-2.31 2.52-3.82 1.04-1.59 2.1-3.18 2.64-4.01.58-1.03 1.28-2.23 2.02-3.49 1.44-2.46 3.08-5.26 4.11-7.37.42-.85 1.12-2.26 1.85-3.73.87-1.75 1.78-3.57 2.3-4.63a.617.617 0 0 0-.74-.87.6.6 0 0 0-.38.32l-3.04 5.39c-1.79 3.39-4.36 7.32-6.62 10.78-.52.8-1.03 1.57-1.5 2.3-.52.7-1.47 2-2.46 3.34-1.17 1.59-2.39 3.25-3.01 4.09-1.09 1.36-2.3 2.8-3.47 4.2-.82.98-1.64 1.96-2.41 2.89-13.71 15.21-28.14 26.2-42.92 32.66-3.8-11.58-2.88-27.4 2.76-47.05.12-.42.25-.83.37-1.25v-.03c1.19-4.04 2.57-8.19 4.09-12.35 3.93-2.28 7.63-5.07 11.01-8.3.58-.55.62-1.49.09-2.08-.56-.62-1.51-.68-2.13-.13-3.42 3.03-7.16 5.6-11.12 7.65-6 2.94-12.73 4.87-20.01 5.76h-.02c-1.18.16-2.44.28-4.11.4-23.34 1.59-47.52-6.87-63.75-14.27 3.84-5.91 8.28-11.41 13.19-16.37.13-.13.26-.26.39-.4l.23-.23c.75-.76 1.34-1.32 1.89-1.83a97.7 97.7 0 0 1 15.82-12.23c10.46-6.48 21.9-11.14 34-13.82 3.78-.84 7.25-1.41 10.61-1.74.05 0 .11 0 .16-.01a141 141 0 0 0 7.37 3.94c.87.43 6.33 2.98 7.11 3.33 3.24 1.22 6.92 2.6 10.32 3.7a.625.625 0 0 0 .5-1.14c-3.61-2.01-6.85-3.72-9.61-5.09-1.35-.81-2.84-1.66-4.43-2.56-2.62-1.48-5.33-3.02-7.5-4.47-19.92-12.35-37.7-30.15-51.41-51.49-13.97-21.6-24.73-47.41-32.87-78.92 9.23 4.27 18.54 7.59 27.67 9.88 12.18 3.1 24.9 4.33 37.19 5.52 12.47 1.21 25.37 2.45 37.7 5.66 1 .3 2.19.63 3.45.98 2.17.6 4.41 1.22 6.06 1.78l9.34 3.36 4.56 2.01c4.8 1.97 9.71 4.52 13.47 6.53.35.16.7.35 1.03.54.34.19.69.38 1.05.55 5.46 9.37 10.83 19.13 15.96 29.02 10.74 20.92 20.14 41.98 27.94 62.58.07.25.3.42.59.42h.01c.3 0 .54-.19.6-.45 18.46-68.99 21-144.05 7.35-217.08.63-.29 1.1-.83 1.31-1.5 3.25-10.61 7.76-21.59 13.38-32.63 4.58-9.09 9.95-18.12 15.14-26.86 11.16-18.78 22.69-38.2 27.53-59.77 8.82 30.16 12.23 56.4 10.42 80.17Zm100.81 487.1c12.91-4.09 25.6-6.25 36.69-6.25 4.21 0 8.14.31 11.68.92.12.02.25.04.38.06.18.03.38.06.6.11 7.54 1.42 13.17 4.22 15.84 7.88 2.76 3.79 2.41 8.37-1.03 13.23-12.67 17.88-35.12 26.14-36.04 26.48-4.62.46-14.77-3.15-24.14-8.61-10.95-6.37-17.94-13.34-19.18-19.11-1.33-6.15 3.78-11.1 15.2-14.71m455.39-347.89c-9 27.2-20.94 54.38-36.57 80.78-20.31 33.67-44.82 60.18-72.86 78.8l-5.01 3.14c-.58-1.5-1.15-3.01-1.72-4.52-.54-1.41-1.07-2.82-1.61-4.24-5.58-15.06-14.07-33.67-30.28-43.94-.78-.52-1.53-.99-2.28-1.44 34.54 2.46 63.05-18.67 80.91-36.89.66-.64 1.01-1.55.96-2.48-.05-.94-.49-1.81-1.22-2.38-14.76-12.08-37.62-25.65-62.69-21.67-2.01.3-4.03.71-6.03 1.23 23.38-19.8 36.78-45.38 39.81-76.03 2.62-26.54-2.47-56.74-15.15-89.77-.35-1.03-1.23-1.75-2.37-1.93s-2.26.24-2.91 1.11c-6.88 8.71-14.8 16.75-23.55 23.88-7.9 6.38-16.34 12.05-24.5 17.54-15.77 10.6-30.68 20.63-42.28 35.43 9.29-30.94 19.79-60.81 31.2-88.81 25.25-61.47 56.34-117.56 92.4-166.7 12.41-17.07 25.58-32.89 41.5-51.79 6.75-7.97 13.71-15.99 20.44-23.73 2.03-2.34 4.06-4.67 6.09-7.01l1.42 3.52c18.58 46.8 30.96 96.16 36.79 146.69 4.06 36.07 5.9 79.5 1.36 125.97-3.54 35.82-10.64 71.23-21.84 105.25ZM947.67 746.17c-.08.03-.15.06-.22.09l-4.76 1.68c-1.74.67-3.97 1.32-6.12 1.95-.75.22-1.5.44-2.2.65-2.12-4.24-4.33-8.71-6.94-14.03 6.13 3.85 12.94 7.1 20.25 9.65Zm-587.12 14.91c-3.52-1.76-6.73-3.42-9.8-5.05 4.98-1.2 9.68-2.9 13.96-5.07-1.44 3.2-2.81 6.51-4.16 10.12M127.54 310.87c30.37 13.65 57.91 34.22 83.51 54.11 84.14 68.6 151.17 144.29 199.23 224.99-3.71-2.19-6.95-3.93-9.88-5.33l-4.56-2.32c-1.13-.49-2.87-1.22-4.55-1.93-1.81-.76-3.68-1.55-4.89-2.07-17.63-6.95-36.7-9.84-54.72-12.21-20.5-2.82-37.4-7.65-51.69-14.76-2.21-.96-6.1-3.12-9.23-4.85-1.4-.77-2.71-1.51-3.71-2.03-1.36-.76-2.82-.97-4.23-.59-2.91.77-4.66 3.77-3.89 6.68 4.71 17.81 9.96 33.44 16.05 47.8 7.84 18.77 17.71 35.86 29.34 50.81 12.54 16.12 26.88 29.38 42.61 39.41-1.83.2-3.71.46-5.59.76-17.34 2.83-33.71 9.78-47.33 20.09-2.56 1.95-5.04 4.03-7.37 6.19-13.41-10.1-26.19-20.95-38-32.24-36.92-35.37-67.26-78.93-87.75-125.97-32.11-74.82-43.65-160.08-33.37-246.55Zm14.96 216.65c-.02-.06-.04-.12-.07-.19.02.06.04.12.07.19m-2.84-8.37c-.07-.2-.13-.4-.2-.6.06.2.13.4.2.6m-2.77-8.74-.18-.6zm-2.68-9.16s-.03-.09-.04-.14c.01.05.03.09.04.14M997.5 852.16c-.29-.29-.59-.57-.89-.86-.55-.53-1.13-1.08-1.66-1.63-4.05-4.22-8.13-9.22-12.49-15.27 3.73-.43 7.85-.74 12.24-.93 11.94-.48 22.36.24 31.86 2.21 3.31.74 6.45 1.65 9.35 2.69-11.66 5.25-24.58 9.89-38.4 13.8ZM300.8 327.32l.24.15zm9.91 6.33c.3.2.61.39.91.59-.3-.2-.61-.39-.91-.59m10.19 6.73c.36.24.73.48 1.09.73-.36-.24-.73-.48-1.09-.73m10.53 7.2c.23.16.47.32.7.49-.23-.16-.47-.32-.7-.49"/><path d="M643.81 809.25c.2.36.57.57.98.57h.13c.45-.06.83-.38.95-.8l22.7-76.41c.08-.29.05-.59-.09-.84L632.09 663a1.1 1.1 0 0 0-1.08-.6c-.44.03-.82.33-.97.75l-25.83 73.56c-.11.3-.08.64.08.92l39.52 71.61Zm-37.31-72.26 24.81-70.66 34.98 66.08-21.8 73.4zm-46.01 111.05c-1.12-3.4-2.45-6.75-3.96-9.95-2.29-4.88-4.96-9.38-7.94-13.37s0-.01-.01-.02a63 63 0 0 0-4.13-4.97c-8.86-9.57-19.17-14.41-29.81-13.96-26.55 1.08-46.81 35.05-45.17 75.72.78 19.31 6.38 37.39 15.77 50.9 9.38 13.5 21.48 20.93 34.08 20.93.42 0 .86 0 1.28-.02 13-.53 24.86-8.79 33.38-23.26 8.39-14.25 12.58-32.88 11.79-52.46-.42-10.34-2.2-20.28-5.29-29.53Zm-40.91 3.9c.35 8.56 2.76 16.53 6.77 22.46 2.01 2.97 4.3 5.25 6.8 6.79v.37c.76 18.62-5.49 34.63-13.64 34.97h-.26c-3.88 0-7.72-3.53-10.81-9.93-3.1-6.43-5.01-14.89-5.38-23.82-.37-9.02.88-17.67 3.51-24.38 2.62-6.67 6.22-10.43 10.14-10.58h.27c.85 0 1.72.17 2.57.52-.02.49-.03 1-.03 1.51 0 .79.01 1.47.04 2.09Zm21.75 29.3c-2.07.09-4.1-.4-6.06-1.44-.68-.35-1.38-.79-2.07-1.32-1.8-1.33-3.47-3.13-4.98-5.35-3.79-5.59-6.06-13.15-6.39-21.28-.03-.73-.05-1.6-.03-2.48 0-.84.02-1.6.07-2.33.36-6.38 1.95-12.23 4.6-16.92 3.23-5.7 7.64-8.95 12.42-9.14h.39c.73 0 1.45.07 2.17.21 7.43 7.72 13.3 18.46 16.98 31.05.05 15.88-7.45 28.61-17.1 29m-2.53-62.5c-5.59.22-10.66 3.87-14.28 10.27-2.69 4.75-4.35 10.62-4.82 16.97a9 9 0 0 0-3.05-.42c-4.43.18-8.48 3.75-11.4 10.06-2.89 6.24-4.48 14.74-4.48 23.91 0 1.18.02 2.27.07 3.33.4 9.78 2.5 18.85 5.92 25.53 3.43 6.7 7.87 10.38 12.51 10.38h.35c4.65-.19 8.83-4.06 11.78-10.9 2.91-6.76 4.35-15.8 4.06-25.49 1.83.78 3.76 1.15 5.7 1.12h.27c9.17-.37 16.83-10.3 18.79-24.24 1.29 5.99 2.07 12.2 2.33 18.46.77 18.96-3.26 36.96-11.34 50.67-7.94 13.49-18.85 21.18-30.71 21.66-.39.02-.77.02-1.17.02-11.73 0-23.02-7.1-31.79-19.99-8.79-12.93-14.05-30.23-14.8-48.72-1.58-38.88 17.29-71.33 42.05-72.34.39-.01.78-.02 1.18-.02 8.01 0 15.95 3.37 22.98 9.74h-.13Zm260.46-40.37c-10.13-.95-20.22 3.48-29.18 12.79a61 61 0 0 0-4.27 4.93s-.01.01-.01.02c-2.89 3.69-5.56 7.88-7.92 12.47a98 98 0 0 0-4.64 10.52c-3.47 9.29-5.72 19.31-6.7 29.79-1.86 19.94 1.15 39.14 8.47 54.09 7.33 14.96 18.1 23.83 30.32 24.97.89.08 1.76.12 2.64.12 24.4 0 46.4-31.03 50.08-70.64 1.84-19.84-1.09-38.94-8.26-53.81-7.31-15.13-18.15-24.1-30.53-25.25m-21.77 75.66c7.61-4.54 13.32-15.91 14.55-28.98.11-1.21.19-2.41.22-3.69a6 6 0 0 1 2.67-.4c7.71.72 12.74 17.3 10.98 36.19-.88 9.46-3.27 18.19-6.74 24.59-3.1 5.74-6.79 8.97-10.21 8.97-.18 0-.35 0-.53-.03-3.66-.34-6.94-4.43-9.02-11.23-2.12-6.94-2.81-15.8-1.96-24.95 0-.09.02-.18.02-.27 0-.07.01-.14.02-.2m12.54-34.24v.18c0 .86-.02 1.65-.07 2.42-.03.75-.08 1.55-.17 2.43-1.09 11.71-5.76 21.88-12.2 26.53-.69.51-1.42.95-2.15 1.3-1.91.94-3.85 1.32-5.78 1.14-9.09-.85-15.49-14.11-14.59-30.2 4.19-12.68 10.38-23.36 17.9-30.89.49-.07.98-.11 1.47-.11.28 0 .58.02.92.05 4.5.42 8.49 3.91 11.24 9.85 2.25 4.87 3.44 10.85 3.44 17.3Zm-14.9 35.41c-.81 9.82.05 19.08 2.45 26.09 2.43 7.09 6.2 11.23 10.62 11.64.23.03.47.04.74.04 4.32 0 8.65-3.6 12.2-10.15 3.6-6.67 6.08-15.71 6.99-25.46 1.94-20.8-3.78-37.78-13-38.65-.95-.09-1.92 0-2.87.26-.1-6.48-1.36-12.51-3.64-17.43-3.09-6.69-7.73-10.65-13.06-11.15h-.11c6.64-5.83 13.94-8.9 21.12-8.9.87 0 1.65.04 2.39.11 11.19 1.04 21.11 9.36 27.91 23.43 5.55 11.48 8.48 25.6 8.48 40.83 0 3.66-.18 7.44-.53 11.25-3.67 39.44-25.74 69.75-49.19 67.59-11.33-1.06-21.3-9.49-28.08-23.76-6.79-14.29-9.55-32.67-7.77-51.76.58-6.23 1.64-12.37 3.14-18.26 1.18 14.03 7.91 24.31 16.52 25.1.33.04.67.05 1.1.05 1.53 0 3.07-.3 4.59-.88Zm-201.46-72.64c5.21 6.15 10.96 11.2 16.2 14.22 3.32 1.92 6.33 2.93 8.73 2.93 1.59 0 2.91-.43 3.93-1.29 2.57-2.17 2.75-6.7.5-12.75-2.11-5.69-6.14-12.21-11.33-18.36-5.19-6.14-10.94-11.19-16.2-14.23-5.6-3.22-10.1-3.8-12.66-1.63-2.57 2.17-2.74 6.7-.5 12.75 2.12 5.69 6.14 12.21 11.33 18.36m-9.38-29.4c1.79-1.48 5.53-.77 10.09 1.87 5.03 2.9 10.58 7.77 15.62 13.72 5.03 5.95 8.91 12.23 10.93 17.68 1.87 5.03 1.93 8.76.17 10.25-1.77 1.49-5.44.82-10.09-1.86-2.47-1.42-5.1-3.34-7.81-5.73-2.69-2.37-5.31-5.06-7.8-8.01-5.02-5.93-8.91-12.21-10.94-17.68-1.87-5.01-1.93-8.75-.17-10.25Zm118.32 34.83c.89.44 1.88.66 2.96.66 2.63 0 5.66-1.37 8.76-3.95 4.15-3.46 8.1-8.79 11.14-15.03 6.5-13.34 6.65-26.21.33-29.29-.9-.43-1.88-.65-2.93-.65-6.28 0-14.48 7.8-19.92 18.97-3.14 6.44-4.9 13-4.98 18.46-.07 5.49 1.58 9.34 4.64 10.83m2.36-28.3c2.79-5.73 6.43-10.7 10.24-14.01 2.8-2.43 5.47-3.71 7.63-3.71.72 0 1.38.14 1.97.43 5.01 2.44 4.38 14.48-1.37 26.28-2.89 5.94-6.64 11.01-10.56 14.28-3.63 3.02-7.01 4.11-9.29 2.99-1.19-.58-2.09-1.72-2.67-3.38-1.77-5.11-.15-14.31 4.03-22.89Zm45.12 200.67c-.16 0-.32.06-.43.18-4.26 4.19-8.77 7.72-13.39 10.49-14.61 9.13-33.1 9.94-47.1 2.04-.64-.33-1.61-.63-2.63-.16l-6.7 2.91-.39.15c-3.23 1.21-6.57 2.46-9.97 3.33-3.94 1.17-8.31 1.96-13.38 2.45-.31 0-1.19.03-2.11.05-1 .03-2.05.05-2.42.06l-3.61-.23c-7.15-.8-12.72-2.97-16.54-6.43-.29-.32-.65-.26-.87-.07-.23.2-.33.57-.07.89 2.84 3 6.68 5.29 11.43 6.82-.78 7.12.6 16.38 3.78 25.43 2.49 7.08 7.24 17.36 15.68 26.09 9.1 9.41 20.33 14.39 32.47 14.39 1.67 0 3.32-.09 4.89-.26 8.28-.87 16.17-5.93 22.82-14.61 11.73-15.34 17.88-40.03 14.95-60.07.27-.18.54-.37.8-.56l.27-.2c4.57-3.17 8.94-7.09 12.98-11.64a.62.62 0 0 0-.02-.85.6.6 0 0 0-.44-.19Zm-30.33 72.13c-6.27 8.18-13.62 12.94-21.26 13.74-13.34 1.41-25.62-3.24-35.51-13.45-13.46-13.9-20.16-35.94-18.89-49.31 2.21.59 4.59 1.03 7.29 1.35 10.58.93 22.07-.99 36.16-6.06 14.59 6.59 32.52 5.21 46.87-3.61 2.49 19.26-3.52 42.81-14.65 57.35Z"/><path d="M525.71 927.98c-.39-.53-.87-.99-1.44-1.36-3.28-2.13-7.63-.57-11.5-1.12-3.32-.47-6.26-2.53-8.37-5.14s-3.47-5.73-4.63-8.88c-7.37-20.06-7.15-42.17-4.12-63.33.24-1.68.49-3.43-.02-5.05s-2.05-3.05-3.73-2.83c-.84.11-1.58.59-2.25 1.11-4.53 3.46-7.5 8.67-9.08 14.15-3.83 13.33-1.88 29.24.63 42.64 2.35 12.54 5.95 26.59 15.45 35.75 5.01 4.83 11.84 8.04 18.8 7.7 3.85-.19 7.87-1.61 10.1-4.75 1.84-2.58 1.96-6.44.15-8.89Zm252.22-26.04c.43-.5.94-.93 1.54-1.26 3.42-1.89 7.65-.03 11.55-.29 3.34-.23 6.42-2.08 8.71-4.53s3.87-5.47 5.25-8.53c8.78-19.49 10.13-41.55 8.62-62.87-.12-1.69-.25-3.45.38-5.03s2.26-2.89 3.93-2.56c.83.17 1.53.7 2.17 1.27 4.28 3.77 6.87 9.18 8.05 14.76 2.88 13.57-.21 29.3-3.67 42.49-3.24 12.34-7.83 26.1-17.96 34.56-5.35 4.46-12.39 7.17-19.3 6.34-3.83-.46-7.73-2.17-9.74-5.46-1.65-2.71-1.5-6.56.48-8.88Z" style="fill:#7e2410"/></g></svg>