<svg xmlns="http://www.w3.org/2000/svg" class="styles__StyledLogo-sc-15rc2l5-3 lgfmfA" viewBox="0.2 0.2 43.6 28.3"><path fill="#1A1A1A" stroke="#1A1A1A" stroke-miterlimit="10" stroke-width="1.7" d="M29.9 9c-.2.2-.5.1-.5-.1v-.7c-.2-9.6-14.6-9.6-14.8 0v.7c0 .2-.3.3-.5.2l-.5-.5C6.7 2-3.4 12.2 3.1 19.2l.5.5c7.9 7.9 18.4 7.9 18.4 7.9a28.3 28.3 0 0 0 18.9-8.4c6.5-7-3.6-17.2-10.5-10.6l-.5.5Z"/><path fill="#fff" fill-rule="evenodd" d="M28 16.3c-.1 0-.2.3 0 .5a1.7 1.7 0 0 1-1.4 2.8c-1 0-1.7-.8-1.7-1.7 0 0-.1-.1-.1 0a3 3 0 0 0-.6 1.2c0 .2-.2.4-.5.4h-.1c-.3 0-.6-.2-.6-.6.4-2.2 2.6-3.8 5-3.8 2.6 0 4.8 1.6 5.1 3.8 0 .4-.2.6-.5.6s-.6-.2-.7-.6c-.3-1.4-1.8-2.6-3.8-2.6Zm-15.3 1.6c0-.1 0-.1-.1 0A3 3 0 0 0 12 19c0 .3-.3.5-.6.5-.4 0-.7-.3-.6-.6.3-2.3 2.5-3.9 5-3.9 2.6 0 4.8 1.6 5 3.9.1.3-.1.6-.5.6-.3 0-.6-.3-.6-.6-.4-1.5-1.9-2.7-3.9-2.7-.1 0-.2.3 0 .4a1.7 1.7 0 0 1-1.4 3c-1 0-1.7-.9-1.7-1.8Zm12.1 4c-.3-.2-.6 0-.9.2-.4.4-1.1.7-1.9.7-.8 0-1.5-.3-2-.7-.2-.2-.5-.4-.8-.2-.3.2-.4.5-.2.8.7.8 1.8 1.3 3 1.3s2.3-.5 3-1.3c.2-.3.1-.6-.2-.8Z" clip-rule="evenodd"/></svg>
