<svg xmlns="http://www.w3.org/2000/svg" style="width:100%;height:100%" viewBox="0 0 33 33.9"><path fill="#211D1D" d="m29 33-2.3.9-2.3-7.1s-.3-1.2-1.2-1.2H9.8s-.7-.1-1.3 1.5l-2.1 6.7L4 33l2.5-7.8s1-2.2 3.4-2.2h13.5s2.6-.1 3.4 2.8c1 2.8 2.3 7.2 2.3 7.2Z"/><path fill="#211D1D" d="m33 28-2.2 1-3.3-7.2s-.4-1-1.2-1.1H6.7c-.4 0-.7-.2-1.6 1.9-.9 1.8-2.8 6.4-2.8 6.4L0 28l3.4-7.8S4.2 18 6.8 18h19.7c.9 0 2.2.2 3.4 2.7l3.1 7.2Z"/><path fill="var(--token-786a4d36-f9c1-4e91-a58c-0541b4321416, rgb(255, 223, 0)) /* {&quot;name&quot;:&quot;Yellow&quot;} */" d="m0 5.7 2.3-1 3.2 7.2s.5 1 1.3 1.1h19.5c.5 0 .7.1 1.7-1.9l2.7-6.4 2.3 1-3.3 7.7s-.8 2.3-3.4 2.3H6.6c-1 0-2.3-.2-3.4-2.7C1.8 10.2 0 5.7 0 5.7"/><path fill="var(--token-786a4d36-f9c1-4e91-a58c-0541b4321416, rgb(255, 223, 0)) /* {&quot;name&quot;:&quot;Yellow&quot;} */" d="M4 .8 6.3 0l2.3 7S9 8.3 10 8.3h13.3s.7.2 1.3-1.4L26.7 0 29 1l-2.5 7.7s-1 2.3-3.4 2.3H9.7S7 10.9 6.2 8z"/></svg>