<svg xmlns="http://www.w3.org/2000/svg" fill="none" viewBox="0 0 512 512"><circle cx="256" cy="256" r="256" fill="#000"/><path fill="#000" d="m256.8 255.6 110.4 63.7V192z"/><path fill="#000" d="M256.8 255.6 367.2 192l-110.4-63.7L146.5 192zL146.5 192v127.3zl-110.3 63.7 110.3 63.6 110.4-63.6z"/><path fill="url(#a)" d="m256.8 255.6 110.8 64v-128z"/><path fill="url(#b)" d="M256.8 255.6V127.8l-110.7 63.9z"/><path fill="url(#c)" d="M146 191.7v127.8l110.8-63.9z"/><path fill="url(#d)" d="M256.8 255.6v127.8l110.8-63.9z"/><path fill="url(#e)" d="m256.8 255.6 110.8-63.9-110.8-63.9z"/><path fill="url(#f)" d="M256.8 383.4V255.6l-110.7 64z"/><defs><radialGradient id="a" cx="0" cy="0" r="1" gradientTransform="matrix(112.5 0 0 112.4 257 255.3)" gradientUnits="userSpaceOnUse"><stop offset=".1" stop-color="#fff" stop-opacity=".5"/><stop offset=".7" stop-color="#fff" stop-opacity=".3"/><stop offset="1" stop-color="#fff" stop-opacity=".2"/></radialGradient><radialGradient id="b" cx="0" cy="0" r="1" gradientTransform="matrix(95 0 0 95 255.7 252.8)" gradientUnits="userSpaceOnUse"><stop offset=".1" stop-color="#fff" stop-opacity=".9"/><stop offset=".2" stop-color="#fff" stop-opacity=".9"/><stop offset=".7" stop-color="#fff" stop-opacity=".7"/><stop offset="1" stop-color="#fff" stop-opacity=".7"/></radialGradient><radialGradient id="d" cx="0" cy="0" r="1" gradientTransform="matrix(112.5 0 0 112.4 255.7 255.3)" gradientUnits="userSpaceOnUse"><stop offset=".1" stop-color="#fff" stop-opacity=".3"/><stop offset=".6" stop-color="#fff" stop-opacity=".2"/><stop offset="1" stop-color="#fff" stop-opacity=".1"/></radialGradient><radialGradient id="e" cx="0" cy="0" r="1" gradientTransform="matrix(112.3 0 0 112.2 254.4 256.6)" gradientUnits="userSpaceOnUse"><stop offset=".1" stop-color="#fff" stop-opacity=".9"/><stop offset=".5" stop-color="#fff" stop-opacity=".7"/><stop offset=".8" stop-color="#fff" stop-opacity=".5"/><stop offset="1" stop-color="#fff" stop-opacity=".5"/></radialGradient><radialGradient id="f" cx="0" cy="0" r="1" gradientTransform="matrix(112 0 0 112 255.7 256.6)" gradientUnits="userSpaceOnUse"><stop offset=".1" stop-color="#fff"/><stop offset=".6" stop-color="#fff" stop-opacity=".9"/><stop offset="1" stop-color="#fff" stop-opacity=".8"/></radialGradient><linearGradient id="c" x1="146.1" x2="256.8" y1="255.6" y2="255.6" gradientUnits="userSpaceOnUse"><stop offset=".1" stop-color="#fff" stop-opacity=".9"/><stop offset="1" stop-color="#fff"/></linearGradient></defs></svg>