<svg xmlns="http://www.w3.org/2000/svg" viewBox="0 0 808.84 671"><path d="M506.34 447.3h-306.1V0h306.1c105.1 0 190.2 85.2 190.2 190.2V257c0 105.1-85.1 190.3-190.2 190.3" style="fill:#acd905;stroke-width:0"/><path d="M585.24 671h-385V447.3c0-123.5 100.1-223.6 223.6-223.6h161.4c123.5 0 223.6 100.1 223.6 223.6S708.74 671 585.24 671" style="fill:#aeafaa;stroke-width:0"/><path d="M696.54 253.4v3.7c0 105.1-85.1 190.2-190.3 190.2h-306c0-61.7 25.1-117.6 65.5-158.1 40.5-40.5 96.4-65.5 158.2-65.5h161.3c40.6 0 78.6 10.8 111.3 29.7" style="fill:#5d6e3c;stroke-width:0"/><path d="M408.49 512.78c0 61.27-61.28 61.27-61.28 61.27H61.28S0 574.05 0 512.78s129.54-246.21 142-264.15c.63-.9.97-1.97.97-3.06V109.68c0-2.97-2.41-5.38-5.38-5.38h-9.68c-2.97 0-5.37-2.4-5.37-5.37v-9.69c0-2.97 2.4-5.38 5.37-5.38h152.63c2.97 0 5.37 2.41 5.37 5.38v9.69c0 2.97-2.4 5.37-5.37 5.37h-9.67c-2.96 0-5.37 2.41-5.37 5.38v135.88c0 1.1.33 2.17.96 3.07 12.46 17.94 142.03 205.82 142.03 264.15" style="fill:#fff;stroke-width:0"/><path d="M222.41 490.77v24.69l-21.49 12.67-20.9-12.67v-24.69l20.9 12.67zm-115.15-85.38 20.9 12.67v42.33l36 21.49v24.69L107.27 473v-67.61Zm187.2 0v67.73l-57.49 33.57V482l36-21.49v-42.33zm-57.6-33.5 21.49 12.67v24.63l-36 21.49v42.92l-20.9 12.67-20.78-12.67v-43.04l-37.3-21.49v-24.69l21.49-12.67 36 21.49zm-93.48 54.94 20.9 12.67v24.69l-20.9-12.67zm115.03 0v24.69l-20.9 12.67V439.5zm-130.25-76.49 21.49 12.67-21.49 12.67v24.63l-20.9-12.67v-24.63zm145.41 0 21.49 12.67v24.69l-21.49 12.61v-24.69l-20.9-12.61zm-72.71 0 21.49 12.67-21.49 12.67-20.9-12.67zm0-42.28 57.49 33.57-20.9 12.67-36-21.49-36.71 21.49-20.9-12.67 57.01-33.57Z" style="fill:#f1b82f;stroke-width:0"/></svg>