<?xml version="1.0" encoding="UTF-8"?><svg id="Layer_1" xmlns="http://www.w3.org/2000/svg" width="808.84" height="671" viewBox="0 0 808.84 671"><path d="M506.34,447.3H200.24V0h306.1c105.1,0,190.2,85.2,190.2,190.2v66.8c0,105.1-85.1,190.3-190.2,190.3" style="fill:#acd905; stroke-width:0px;"/><path d="M585.24,671H200.24v-223.7c0-123.5,100.1-223.6,223.6-223.6h161.4c123.5,0,223.6,100.1,223.6,223.6,0,123.5-100.1,223.7-223.6,223.7" style="fill:#aeafaa; stroke-width:0px;"/><path d="M696.54,253.4v3.7c0,105.1-85.1,190.2-190.3,190.2H200.24c0-61.7,25.1-117.6,65.5-158.1,40.5-40.5,96.4-65.5,158.2-65.5h161.3c40.6,0,78.6,10.8,111.3,29.7" style="fill:#5d6e3c; stroke-width:0px;"/><path d="M408.49,512.78c0,61.27-61.28,61.27-61.28,61.27H61.28s-61.28,0-61.28-61.27,129.54-246.21,142-264.15c.63-.9.97-1.97.97-3.06V109.68c0-2.97-2.41-5.38-5.38-5.38h-9.68c-2.97,0-5.37-2.4-5.37-5.37v-9.69c0-2.97,2.4-5.38,5.37-5.38h152.63c2.97,0,5.37,2.41,5.37,5.38v9.69c0,2.97-2.4,5.37-5.37,5.37h-9.67c-2.96,0-5.37,2.41-5.37,5.38v135.88c0,1.1.33,2.17.96,3.07,12.46,17.94,142.03,205.82,142.03,264.15Z" style="fill:#fff; stroke-width:0px;"/><path id="binancedex" d="M222.41,490.77v24.69l-21.49,12.67-20.9-12.67v-24.69l20.9,12.67,21.49-12.67ZM107.26,405.39l20.9,12.67v42.33l36,21.49v24.69l-56.89-33.57v-67.61ZM294.46,405.39v67.73l-57.49,33.57v-24.69l36-21.49v-42.33l21.49-12.79ZM236.86,371.89l21.49,12.67h0v24.63l-36,21.49v42.92l-20.9,12.67-20.78-12.67v-43.04l-37.3-21.49v-24.69l21.49-12.67,36,21.49,36-21.31ZM143.38,426.83l20.9,12.67v24.69l-20.9-12.67v-24.69h0ZM258.41,426.83v24.69l-20.9,12.67v-24.69l20.9-12.67ZM128.16,350.34l21.49,12.67-21.49,12.67v24.63l-20.9-12.67v-24.63l20.9-12.67ZM273.57,350.34l21.49,12.67v24.69l-21.49,12.61v-24.69l-20.9-12.61,20.9-12.67ZM200.86,350.34l21.49,12.67-21.49,12.67-20.9-12.67,20.9-12.67ZM200.86,308.06l57.49,33.57-20.9,12.67-36-21.49-36.71,21.49-20.9-12.67,57.01-33.57Z" style="fill:#f1b82f; stroke-width:0px;"/></svg>