<svg xmlns="http://www.w3.org/2000/svg" width="105" height="105" fill="none" viewBox="0 0 105 105"><path fill="#fff" d="M62.753 81.632a5.817 5.817 0 0 0 5.83-5.812 5.82 5.82 0 0 0-5.83-5.813 5.81 5.81 0 0 0-5.804 5.813 5.81 5.81 0 0 0 5.804 5.812m-20.888.173a5.797 5.797 0 0 0 5.804-5.813c0-3.21-2.58-5.812-5.804-5.812a5.81 5.81 0 0 0-5.805 5.812 5.81 5.81 0 0 0 5.805 5.813"/><path fill="#fff" d="M29.138 21.08h13.848c2.605 7.049 9.405 27.022 9.901 28.135.124-.556 6.974-22.323 8.91-28.012H76.19v49.655c-1.786-.99-3.573-1.979-5.51-3.092-1.34-.68-2.58-1.422-3.945-1.979-.124-9.646-.248-19.23-.546-29.249-1.935 5.751-8.611 26.034-9.157 26.59h-8.91s-8.66-24.61-9.083-25.724c-.124 9.461-.248 18.922-.57 28.693q-7.967 4.081-9.455 4.637V21.08z"/><path fill="#fff" d="M52.512 8.348c24.296 0 44.15 19.788 44.15 44.152s-19.78 44.152-44.15 44.152S8.363 76.864 8.363 52.5s19.78-44.152 44.15-44.152m0-8.348C23.502 0 0 23.498 0 52.5S23.502 105 52.512 105C81.498 105 105 81.502 105 52.5S81.498 0 52.512 0"/></svg>