<svg xmlns="http://www.w3.org/2000/svg" viewBox="0 0 58 28"><path fill-opacity=".8" d="M32.03 4.62c.16-.03.3-.04.48-.03h.18l.13.02.83.02c5.2.17 10.73.96 14.92 2.14 5.89 1.66 9.06 3.98 9.4 6.92l.03.2v.07l-.02.26c-.35 2.97-3.57 5.32-9.57 7-4.28 1.21-9.9 2.01-15.15 2.18l-.72.01h-.18c-.7 0-1.08-.26-1.23-.68l-.03-.1-.01-.12a1 1 0 0 1 .22-.77c.15-.19.36-.3.6-.37.13-.03.24-.04.4-.05l.15-.01.62-.02 1.18-.05 2.12-.13.69-.06 1.06-.09 1.04-.1c7.14-.78 11.99-2.4 14.95-4.57a4.3 4.3 0 0 0 1.47-2.05c.1-.4.06-.67-.07-1-.45-1.22-2.25-2.4-4.84-3.42l-.63-.24-.62-.22-.32-.1-.65-.21-.33-.1-.69-.2-.7-.2-.35-.09-.91-.22-.94-.22-.76-.15L43 7.7l-.39-.07-.79-.13-.8-.13-.4-.06-1-.14-1.02-.12-.41-.04-.4-.04-.83-.08-.81-.06-.82-.05-1.62-.06H32.5c-.57-.01-.88-.1-1.15-.4-.2-.23-.29-.53-.25-.82.07-.53.41-.8.92-.9Z"/><path d="M32.77 5.36h-.13a2 2 0 0 0-.48 0c-.22.05-.27.1-.3.25 0 .08.02.15.07.2.07.1.15.13.36.15h.62c.54 0 1.08.02 1.63.04l.84.04.82.04.83.07.82.07.84.09.81.1.42.04.81.12.42.06.8.13.8.13.4.08.78.15.78.16.75.17.38.1.74.17.36.1.72.2.86.25.17.05.66.22.33.1.63.23c3.25 1.19 5.35 2.56 5.93 4.1.18.5.22.92.1 1.45-.2.8-.77 1.6-1.77 2.49-3.13 2.27-8.03 3.84-14.71 4.63l-.61.07-1.05.1-1.07.1c-.69.06-1.39.1-2.1.15l-.73.04-1.19.05-.62.02h-.18l-.11.02-.1.02c-.1.03-.16.06-.2.11a.3.3 0 0 0-.06.12v.12c.03.12.11.18.4.2h.29c5.4-.12 11.27-.92 15.68-2.16 5.6-1.58 8.57-3.7 8.98-6.17l.03-.18.02-.2c-.2-2.56-2.99-4.73-8.49-6.34l-.38-.1a65 65 0 0 0-14.04-2.1l-.7-.02z"/><path fill-opacity=".8" d="M25.46 4.59h.28c.73.02 1.1.37 1.17.9a1 1 0 0 1-.22.78c-.15.18-.36.3-.6.36l-.2.04-.1.01-.25.02-.62.02-.6.02-1.16.06-1.5.1-.73.05-1.06.1c-3.8.35-6.97.94-9.6 1.72l-.48.14-.7.23a19.5 19.5 0 0 0-5.21 2.57 4.3 4.3 0 0 0-1.47 2.06c-.1.4-.06.66.07 1 .36.99 1.63 1.95 3.48 2.83l.3.13.53.24c.49.2 1 .4 1.55.59l.55.19.65.2.33.11.34.1.7.2.35.1.72.18.36.08.74.18.76.16.96.2.98.17.8.13.8.13.8.1.82.1.81.1.82.08.82.06.81.06.82.04 1.35.04.66.01h.4c.57 0 .88.1 1.15.4.2.23.29.52.25.82-.08.62-.53.88-1.17.91h-.32l-.29-.02-.77-.03a66.2 66.2 0 0 1-14.92-2.13C3.54 19.57.37 17.25.03 14.3L0 14.1v-.07l.02-.26c.35-2.97 3.57-5.32 9.57-7 4.28-1.21 9.9-2.01 15.15-2.18l.72-.01Z"/><path d="m25.47 5.35-.7.01c-5.2.17-10.76.96-14.98 2.14-5.6 1.58-8.57 3.7-8.98 6.17l-.03.18-.02.2c.2 2.56 2.99 4.72 8.48 6.33l.4.12c3.93 1.1 9.09 1.87 14.02 2.08l.7.03.82.02.24.02h.38c.22-.02.3-.08.32-.2l.02-.05a.26.26 0 0 0-.07-.21c-.07-.09-.15-.13-.36-.14l-.23-.01h-.39l-1.36-.02-.7-.03-.82-.04-.83-.06-.82-.07-.83-.08-.83-.09-.82-.1-.82-.11-.81-.13-.8-.13-1-.18-.2-.04-.77-.16-.77-.16-.75-.18-.37-.09-.73-.18-.36-.1-.7-.2-.7-.2-.65-.22c-.58-.2-1.13-.39-1.65-.6l-.51-.2-.55-.24c-2.26-1.03-3.71-2.15-4.18-3.39-.18-.5-.22-.92-.1-1.45.2-.8.77-1.61 1.77-2.5 1.32-.96 2.97-1.8 4.93-2.5l.5-.17.7-.23a49.5 49.5 0 0 1 9.54-1.83l.7-.07 1.07-.1 1.49-.1.76-.05 1.47-.07.9-.03.23-.02.12-.01.06-.02c.1-.02.16-.06.2-.1a.25.25 0 0 0 .06-.2c-.02-.15-.08-.21-.33-.24z"/><path fill-opacity=".8" d="M29 .09c.24 0 .44.05.6.16.15.11.26.27.34.47.05.13.09.27.11.46l.02.14.02.3.03.37.03.75.04 1.12.04 1.95.04 2.66.02 2.99v5.7l-.03 2.93-.04 2.59-.03 1.46-.04 1.12-.04.9-.03.46-.03.23a2 2 0 0 1-.11.43.96.96 0 0 1-.34.47c-.16.11-.36.16-.6.16s-.44-.05-.6-.16a.96.96 0 0 1-.35-.47 2 2 0 0 1-.1-.46l-.03-.14-.02-.3-.02-.37-.04-.75-.05-1.77-.03-1.3-.03-2.66-.02-2.99v-5.7l.02-2.93.03-2.1.03-1.3.03-1.24.04-1 .04-.65.02-.3c.03-.26.07-.43.13-.6.08-.2.19-.36.34-.47.17-.11.37-.16.6-.16Z"/><path d="M29 .85c-.1 0-.14 0-.17.03-.02 0-.04.04-.06.1l-.07.28-.02.13-.02.27-.04.64-.04.99-.03 1.23-.03 1.3-.03 2.1-.02 2.92v5.7l.02 2.97.03 2.66.03 1.3.05 1.76.04.73.02.36.02.28c.02.2.05.3.09.41.02.07.04.1.06.11.03.02.07.03.17.03s.14 0 .16-.03c.02 0 .04-.04.07-.1l.05-.17.01-.1.03-.19.03-.44.04-.88.04-1.12.03-1.45.04-2.58.03-2.93v-5.7l-.02-2.98-.04-2.65-.04-1.95-.04-1.1-.03-.74-.02-.36-.03-.28c-.02-.2-.04-.3-.08-.41-.03-.07-.05-.1-.07-.11-.02-.02-.07-.03-.16-.03"/><path fill-opacity=".8" d="m30.28 12.7 1.87.01 2.92.03 2.1.03 1.63.03 1.18.04.93.04.54.03.26.02.2.04c.13.02.23.05.34.09.2.07.35.18.46.34s.17.36.17.6-.06.44-.17.6a.96.96 0 0 1-.46.35l-.39.1-.16.02-.25.02-.52.04-1.23.05-1.58.04-1.97.04-2.8.03h-2.44L29 15.3h-1.92l-3.03-.02-2.73-.03-2.13-.05-1.17-.03-.93-.04-.45-.03-.3-.02a2.3 2.3 0 0 1-.6-.13.96.96 0 0 1-.46-.34 1.02 1.02 0 0 1-.17-.6c0-.25.06-.45.17-.61a.9.9 0 0 1 .35-.3l.12-.04.16-.05.08-.03.09-.01.2-.04h.13l.3-.03.36-.02.95-.04.86-.03 1.94-.04 2.1-.03 1.72-.02 3.07-.02z"/><path d="M30.28 13.46h-2.56l-3.07.02-1.72.02-2.09.03-1.94.04-.85.03-.94.04-.35.02-.36.03-.18.02-.08.02-.12.04-.08.03a.1.1 0 0 0-.04.04c-.01.02-.03.07-.03.16 0 .1.02.15.03.17l.11.07c.08.03.16.05.28.06l.12.02.28.02.43.03.92.04 1.17.03 2.12.05 2.73.03 3.02.02h3.82l2.44-.01 2.8-.03 1.96-.04 1.57-.04 1.21-.05.5-.03.24-.02c.16-.02.26-.05.36-.08.07-.03.1-.05.1-.07.03-.02.04-.07.04-.17s-.01-.14-.03-.17a.24.24 0 0 0-.11-.06l-.1-.03-.08-.02-.17-.03-.23-.02-.53-.03-.92-.04-1.17-.04-1.62-.03-2.1-.03-2.91-.03h-1.87Z"/></svg>