<svg xmlns="http://www.w3.org/2000/svg" width="130" height="130" fill="none" viewBox="0 0 130 130"><path fill="#9E1F19" fill-rule="evenodd" d="M64.518 130c19.215 0 36.479-8.358 48.353-21.636-5.523-4.801-13.848-5.093-19.728-.348l-1.124.907c-10.767 8.688-26.456 7.405-35.669-2.917-5.025-5.63-13.63-6.204-19.358-1.293l-12.953 11.105A64.58 64.58 0 0 0 64.518 130m21.025-31.401c10.256-8.276 24.671-7.979 34.535.014 5.895-9.77 9.287-21.219 9.287-33.46 0-13.604-4.188-26.228-11.345-36.655a15.36 15.36 0 0 0-13.412 3.53l-1.08.957c-10.355 9.176-26.087 8.618-35.766-1.268-5.279-5.392-13.902-5.569-19.397-.398L33.29 45.499l-8.292-8.813 15.073-14.181c10.296-9.686 26.448-9.354 36.337.746 5.167 5.278 13.565 5.575 19.093.677l1.08-.958a27.4 27.4 0 0 1 11.302-6.032C96.396 6.598 81.192.305 64.518.305 31.598.305 4.408 24.834.228 56.61c9.999-4.798 22.332-2.951 30.485 5.397A14.453 14.453 0 0 0 49.952 63.3l8.428-6.584c10.591-8.275 25.564-7.875 35.699.955l16.408 14.295-7.95 9.124-16.408-14.295a15.95 15.95 0 0 0-20.3-.543l-8.427 6.584c-10.666 8.332-25.891 7.31-35.347-2.373-5.499-5.63-14.492-5.827-20.231-.442L0 71.732c1.365 13.545 6.898 25.859 15.296 35.641l13.82-11.847c10.73-9.2 26.85-8.124 36.263 2.422 4.918 5.51 13.293 6.195 19.04 1.557z" clip-rule="evenodd"/></svg>