<svg xmlns="http://www.w3.org/2000/svg" viewBox="0.79 0 198.84 199.03"><path fill="#75ABD7" d="M68 0h64v1l-12 1 3.559.996C141.234 8.136 155.526 15.416 169 28l2.004 1.762c16.145 14.872 27.037 39.019 28.121 60.753.998 28.671-5.573 53.86-25.125 75.485l-2.488 2.773C154.002 187.294 129.442 198.058 104 199c-28.939.292-54.27-10.143-75.14-30.078C9.3 149.468 1.151 122.926 1 96l-.04-3.426C1.75 69.194 13.17 45.92 30 30l2.188-2.313C46.16 14.336 62.355 6.413 81 2L68 1z"/><path fill="#080605" d="M93.563 43.063C97.612 45.344 99.422 45.71 104 45c2.355-1.192 4.596-2.52 6.863-3.871 2.944-1.555 4.88-1.795 8.137-1.129 5.357 2.934 7.202 7.42 9 13 2.171 8.232 3.892 16.56 5 25l1.977-2.082 2.648-2.73 2.602-2.708c5.18-4.633 9.568-6.075 16.378-5.82 4.471.635 6.906 2.697 9.868 5.965 3.682 4.923 4.22 9.412 3.953 15.473-.622 4.24-2.055 7.37-4.426 10.902l-1.625 2.563C158.96 105.12 152.331 109.456 145 112h-3c.228 5.903.228 5.903 3.313 10.75L148 125c2.313 2.125 2.313 2.125 4 4v3l-5-1v9h-3l-1 5-2.063.125c-2.996.893-3.861 1.557-6.062 3.625-9.446 8.543-21.885 10.64-34.188 10.563l-2.794-.015C83.063 159.043 70.561 154.56 60 144l-3 1v-6l-3 1c-.845-3.378-1.108-5.675 0-9l-5 1c.063-2.125.063-2.125 1-5 1.59-1.387 1.59-1.387 3.5-2.813 2.208-1.729 3.33-2.65 4.184-5.347.316-2.444.316-2.444.316-5.84l-2.816-1.32c-10.749-5.135-20.105-10.47-24.496-22.18-1.263-6.425-1.09-10.898 2.03-16.637C35.119 69.373 38.203 66.9 42 65c1.953-.203 1.953-.203 4.25-.25l2.266-.078c5.77.762 9.723 4.16 13.859 8.016l2.648 2.449L67 77l.516-2.316c6.65-29.398 6.65-29.398 12.234-34.184 5.12-1.138 9.48-.179 13.813 2.563"/><path fill="#F3F6F5" d="M198 112c-.09 20.315-10.721 39.313-24 54l-2.488 2.773C154.002 187.294 129.442 198.058 104 199c-29.102.293-54.313-10.308-75.316-30.234C25.192 165.167 22.455 161.36 20 157c11.511-1.09 11.511-1.09 15.176 1.594a179 179 0 0 1 3.277 3.906c1.622 1.914 1.622 1.914 5.172 1.563 4.278-1.31 4.278-1.31 8.375-3.063l1-2c7.55.88 7.55.88 10.125 1.563 2.635.614 5.181.498 7.875.437v2l2.063-.125c3.536.15 6.57 1.069 9.937 2.125v1c-8.58.983-17.059 1.12-25.688 1.063l-3.896-.014Q48.708 167.031 44 167l3 2v2h3v2l1.938.75a294 294 0 0 1 7.5 3.188l2.382 1.039C64 179 64 179 66.812 180.812c4.37 1.629 8.007.995 12.579.415C82 181 82 181 84 182v5l3.813-.563c3.014-.444 4.192-.435 7.187.563 12.22.846 25.978-.284 37-6a241 241 0 0 0 4-4l3-1v-2l6-1 1-3 5-1 1-3c3.563-1.188 3.563-1.188 7-2l-.613-1.793c-.717-2.453-1.234-4.653-1.387-7.207 1.938-3.125 1.938-3.125 5-5 3.813.188 3.813.188 7 1l1-4 4-1v-2l-4-1-1-8c4.75-3 4.75-3 7-3l-1-4 5-3-3-1c1.063-2.875 1.063-2.875 3-6 3.936-1.617 5.926-2.358 10-1v-2c6.875-3 6.875-3 8-3"/><path fill="#C6D3E5" d="M16 47h3v3l6 1v4l1 1 2.063-1.563C31.94 52.54 33.877 52.822 38 54c2.688 2.375 2.688 2.375 5 5l2.313 1.688L47 62v2l-2.047.918c-6.209 2.916-9.945 5.267-13.203 11.457C29.917 82.792 31.071 88.198 34 94c5.772 9.824 14.543 14.289 25 18 .12 7.733.12 7.733-2.555 10.758a128 128 0 0 1-3.789 2.89c-2.194 1.791-2.94 3.648-3.656 6.352l6-2-2 9h-4l-1-4-3.813 1.063c-3.134.873-3.97 1.01-7.187-.063.75-1.938.75-1.938 2-4 2.125-.75 2.125-.75 4-1l-1-7c-6.984 1.555-6.984 1.555-12.625 5.688L28 132l3.438 1.375C35 135 35 135 36 137a891 891 0 0 1-4.875-.438l-2.742-.246C26 136 26 136 24 135v-2l-11-2-1-4h-2v-2l-2.875-.563C4 123 4 123 2.848 120.013c-1.106-4.502-1.348-9.02-1.535-13.637l-.11-2.696C.487 83.063 5.316 64.653 16 47"/><path fill="#609ACB" d="M68 0h64v1l-12 1 3.559.996C141.234 8.136 155.526 15.416 169 28l2.004 1.762c17.362 15.993 27.142 40.819 28.324 63.968q.097 3.135.172 6.27l.13 3.08c.025 2.768-.022 5.218-.63 7.92-3.137 2.965-4.683 4-9 4v2h-3l.032-2.288c.042-3.487.067-6.975.093-10.462l.05-3.598c.062-11.25-1.188-21.407-5.488-31.84l-.945-2.347C176.961 57.236 172.283 49.741 166 42l-2.188-2.938C161.922 36.91 160.537 36.23 158 35q-1.704-1.755-3.406-3.512C136.53 14.62 112.79 12.195 89.316 12.821 82.82 13.17 77.073 14.632 71 17l-1.88.714C62.796 20.139 57.256 22.645 52 27l-2.453 1.438C40.127 34.215 32.642 43.328 26 52l-7-2v-3h-2c3.24-9.198 10.572-15.997 18-22l2.305-1.96C50.249 12.244 64.722 5.852 81 2L68 1z"/><path fill="#E3BF9D" d="M81 104c3.373 2.624 4.788 4.136 5.813 8.313L87 115c-3-4-3-4-4.25-6.188-1.76-2.11-1.76-2.11-5.125-2.874-3.769-.306-3.769-.306-6.5 2.374-3.284 4.154-3.223 6.42-3.125 11.688l.297-1.828c.705-3.767 1.28-6.573 3.516-9.734C74 107 74 107 76.436 106.374c3.953.964 5.306 3.364 7.563 6.625.813 2.375.813 2.375 1 4l3-1 .48 3.324q.352 2.183.707 4.364l.307 2.185c1.027 6.08 3.569 8.777 8.381 12.627C99 140 99 140 98.813 142.625 98 145 98 145 96 146c-6.248.463-6.248.463-9.438-1.5L85 143c1.712 2.282 3.018 3.827 5.906 4.336 3.821.071 6.828-.158 10.094-2.336l2 2c2.715.328 5.252.13 8 0l1-1-3.875.125c-2.18.07-2.18.07-4.125-.125-2-2-2-2-2.563-4.25.675-3.298 1.32-3.515 3.938-5.438 4.724-3.728 4.841-7.603 5.625-13.312 3.056-14.976 3.056-14.976 8.875-19.438 3.176-.84 4.97-.552 8.125.438 6.255 3.75 9.398 9.333 12 16v2l1.875.813C144 124 144 124 146 127h-3l2 9-4-1v6l-1.688.688c-2.485 1.275-2.485 1.275-4.687 3.687-9.115 9.115-21.723 11.727-34.25 11.875-12.21-.02-24.75-2.888-34.355-10.902-1.39-1.403-2.71-2.871-4.02-4.348l-3-2 1-5-4 1 1-8-4-1c5.75-5 5.75-5 8-5l.125-2.438c1.515-6.169 4.947-11.713 10.375-15.187 3.936-1.546 5.55-1.835 9.5-.375"/><path fill="#693313" d="M89 43a63 63 0 0 1 5.094 3.063C96.802 47.394 98.98 47.82 102 48c3.066-1.2 3.066-1.2 6-3 3.436-2.004 5.234-3.037 9.238-2.844C120 43 120 43 122.188 45.5 126.98 54.754 130 66.533 130 77l-1.658-.275C108.325 73.464 91.002 73.678 71 77c.405-11.049 1.906-25.485 9.813-33.938 3.173-1.54 4.824-1.051 8.187-.062"/><path fill="#79544A" d="m68 96 3.207 1.094c9.95 3.132 19.29 4.4 29.73 4.406l3.369.018c7.598-.113 14.414-1.39 21.694-3.518l2.294-.64c1.572-.44 3.14-.897 4.706-1.36 4.618 7.166 7.702 15.346 7 24a269 269 0 0 1-3.367-5.156l-1.508-2.344-1.492-2.344c-2.464-3.253-4.663-4.867-8.57-6.031-3.946-.161-5.142.185-8.063 2.875-3.185 5.466-4.204 10.958-4.875 17.188-.739 6.166-2.208 9.924-7.125 13.812l-2 1a100 100 0 0 0 0 5c1.215 1.435 1.215 1.435 4.813 1.25 3.627-.026 5.547-.61 8.187-3.25-1.37 3.161-1.99 3.993-5 6-1.938.266-1.938.266-4 .25l-2.063.016C103 148 103 148 100 146l-3 2c-5.117.578-5.117.578-8 0-3-2.5-3-2.5-5-5l1-2 2 4h11v-5c-2.842-2.673-2.842-2.673-6-5-2.314-3.47-2.89-6.67-3.625-10.688l-.406-2.126A914 914 0 0 1 87 117h-2c-1.254-1.715-1.254-1.715-2.563-3.938-1.512-2.69-1.512-2.69-3.437-5.062q-3.5-.061-7 0c-1.367 3.008-2.06 5.443-2.5 8.75L69 120l-2 1c-.42-6.092-.067-9.12 4-14 3-2 3-2 6.438-1.938 4.17 1.098 5.277 2.374 7.562 5.938-1.39-3.358-2.73-5.32-6-7-4.276 0-6.352.472-9.688 3.188C66.984 110.019 64.954 112.9 63 116l-2 3c.035-8.925 2.607-15.302 7-23"/><path fill="#9BB2D7" d="M4 123c2.169.506 4 1 6 2v2h2l1 4 13 1-2 1v2l11 1-8-3c3.615-6.507 3.615-6.507 7.559-7.91A79 79 0 0 1 42 124l1 7-2.438 1.375c-2.65 1.372-2.65 1.372-3.562 3.625l11-1 1 4h8v6l4-2c5 5 5 5 6.563 6.688 1.672 1.526 3.38 2.39 5.437 3.312v2l-3.813.125-2.144.07C65 155 65 155 62 153c-2.49-.063-2.49-.063-5.125.313l-2.695.3c-2.151.167-2.151.167-3.18 1.387a86 86 0 0 1-4.563.563l-2.503.253L42 156l2 2-1.875.813C39.7 159.956 39.7 159.956 38 163l-2-2.5c-3.351-2.793-4.718-2.797-8.953-2.582-3.596.144-5.787-.349-9.047-1.918-7.287-8.565-11.781-22.128-14-33"/><path fill="#BDDDF1" d="M20 157c11.511-1.09 11.511-1.09 15.176 1.594a179 179 0 0 1 3.277 3.906c1.622 1.914 1.622 1.914 5.172 1.563 4.278-1.31 4.278-1.31 8.375-3.063l1-2c7.55.88 7.55.88 10.125 1.563 2.635.614 5.181.498 7.875.437v2l2.063-.125c3.536.15 6.57 1.069 9.937 2.125v1c-8.58.983-17.059 1.12-25.688 1.063l-3.896-.014Q48.708 167.031 44 167l3 2v2h3v2l1.938.75a294 294 0 0 1 7.5 3.188l2.382 1.039C64 179 64 179 66.812 180.812c4.37 1.629 8.007.995 12.579.415C82 181 82 181 84 182v4h-2v2h5l1 2-1 2h8q3.095-.234 6.188-.5l3.292-.281L107 191l-3 3 1.738-.438c9.389-2.051 18.71-1.74 28.262-1.562-6.898 6.898-22.847 6.901-32.298 7.032-28.31-.342-52.59-10.884-73.018-30.266C25.192 165.167 22.455 161.36 20 157"/><path fill="#B8CCE4" d="M16 47h3v3l6 1v4l1 1 2.063-1.563C31.94 52.54 33.877 52.822 38 54c2.688 2.375 2.688 2.375 5 5l2.313 1.688L47 62v2l-2.047.918C37.862 68.139 37.862 68.139 33 74c-1.161 3.296-2.132 6.615-3 10-1.074-.23-1.074-.23-2.169-.467-2.72-.512-5.375-.826-8.132-1.068L16.74 82.2l-3.052-.263-3.112-.276Q6.789 81.328 3 81c2.366-11.705 6.294-21.528 12-32z"/><path fill="#683313" d="M46.25 66.688c6.364.53 10.433 3.597 15.063 7.812l2.613 2.344C66 79 66 79 67 82l3 1 2 3 1.703-.559c2.706-.52 4.366-.125 7.047.496C96.208 88.722 112.577 87.45 128 85h1a85 85 0 0 0 2.914-2.922l1.809-1.86a796 796 0 0 0 3.734-3.89c4.826-4.939 9.223-9.001 16.356-9.703C157 67 157 67 159 69l-3.438.563c-9.671 2.527-16.456 11.148-23.158 18.106-8.993 9.247-17.723 12.34-30.525 12.687C89.816 100.448 81.389 98.93 72 91l-2.563-1.875c-2.912-2.539-5.317-5.357-7.789-8.32C59.934 78.782 59.934 78.782 57 77v-2l-1.625-.813a173 173 0 0 1-5.25-2.75C47.015 70.007 44.382 69.403 41 69c2-2 2-2 5.25-2.313Z"/><path fill="#040302" d="m91.828 41.965 1.734 1.097C97.612 45.346 99.422 45.71 104 45c2.355-1.192 4.596-2.52 6.863-3.871 2.944-1.555 4.88-1.795 8.137-1.129 5.357 2.934 7.202 7.42 9 13 2.171 8.232 3.892 16.56 5 25l1.977-2.082 2.648-2.73 2.602-2.708c5.18-4.633 9.568-6.075 16.378-5.82 4.471.635 6.906 2.697 9.868 5.965 3.682 4.923 4.22 9.412 3.953 15.473-.622 4.24-2.055 7.37-4.426 10.902l-1.625 2.563c-3.669 3.765-8.004 6.542-12.375 9.437l-1-2c2.555-2.662 5.246-5.062 8.063-7.438 4.091-3.559 7.15-7.047 7.937-12.562.34-5.368.471-8.629-3-13-3.204-2.136-4.02-2.231-7.688-2.125l-2.449.055L152 72l1-3c2.063-.688 2.063-.688 4-1-5.765-.736-8.834.576-13.516 3.941-8.273 6.68-8.273 6.68-14.484 15.059l-1.672-.559c-2.831-.536-4.756-.093-7.578.496C105.558 89.3 85.072 91.136 72 84c3.04-.93 5.31-.994 8.45-.57 6.128.698 12.2.72 18.362.695l3.476-.008c9.697-.055 19.142-.452 28.712-2.117l-1-2c-7.143-2.109-14.53-2.278-21.918-2.195l-2.98.008c-3.096.011-6.193.036-9.29.062q-3.176.016-6.353.027A4193 4193 0 0 0 74 78l1-2c17.639-4.667 37.584-4.805 55 1-.706-3.63-1.444-7.253-2.188-10.875l-.595-3.07C125.81 56.305 124.163 49.629 120 44c-2.872-1.576-2.872-1.576-6-1-3.066 1.2-3.066 1.2-6 3-5.208 3.038-5.208 3.038-9.094 2.852-2.863-.84-4.914-1.86-7.406-3.477-3.052-1.772-4.259-2.37-7.875-2.438C80.487 44.208 79.781 45.156 78 48a105 105 0 0 0-2.063 6.5C74.882 58.2 73.862 61.624 72 65c-1.275-4.38-.636-7.2.75-11.5l1.047-3.344c1.4-3.67 2.8-7.013 5.89-9.531 4.164-1.125 8.344-.664 12.141 1.34"/><path fill="#441907" d="M161 71c3.431 2.057 5.709 4.127 7 8 .53 7.936-1.175 13.035-6.25 19.125-6.201 6.693-11.889 9.682-20.75 11.875-1.124-2.57-1.844-4.248-2-7 1.047-2.216 2.347-4.047 3.781-6.031 1.493-2.083 1.493-2.083 1.531-5.469 1.048-5.334 4.708-8.01 8.688-11.5l-1.875 1.5C149 83 149 83 147 83v2a92 92 0 0 1-6.125 4l-1.727 1.078C135.542 92.275 132.05 93.818 128 95c20.903-25.423 20.903-25.423 33-24M48 72c7.653 4.145 13.874 10.62 19.457 17.2 1.749 2.04 3.605 3.94 5.543 5.8-8.483-2.12-14.254-6.564-21-12l-2.86-2.285L47 79l1 3h2a142 142 0 0 1 5 5l1 1c.296 1.746.562 3.497.813 5.25.782 4.595 1.745 7.423 5.187 10.75l-3 6c-12.213-4.086-20.045-9.089-26-21-.933-10.359-.933-10.359 1.813-15.188C38.98 70.359 42.98 70.781 48 72"/><path fill="#EEC9A6" d="M81 104c3.373 2.624 4.788 4.136 5.813 8.313L87 115c-3-4-3-4-4.25-6.188-1.76-2.11-1.76-2.11-5.125-2.874-3.769-.306-3.769-.306-6.5 2.374-3.284 4.154-3.223 6.42-3.125 11.688l.297-1.828c.705-3.767 1.28-6.573 3.516-9.734C74 107 74 107 76.436 106.374c3.953.964 5.306 3.364 7.563 6.625.813 2.375.813 2.375 1 4l3-1 .621 3.43.817 4.445.408 2.262c.7 4.048.7 4.048 2.154 7.863l-2.79-.14c-9.552-.273-17.101 1.007-26.21 4.14l-3 1v-4l-4 1 1-8-4-1c5.75-5 5.75-5 8-5l.125-2.438c1.515-6.169 4.947-11.713 10.375-15.187 3.936-1.546 5.55-1.835 9.5-.375Z"/><path fill="#A7BDDB" d="M16 87a95 95 0 0 1 4 5q1.64 1.212 3.313 2.375L26 97c-.125 3.813-.125 3.813-1 7l3.688-.813c2.23-.292 2.23-.292 4.312-.187a141 141 0 0 1 5 5c1.99.506 1.99.506 4.125.625C46 109 46 109 48 110.25c1.334 2.335 1.214 4.108 1 6.75l-2.128-1.976c-3.325-2.343-4.822-2.497-8.829-2.415l-3.37.04-3.486.101-3.544.055q-4.322.07-8.643.195l-1-3-.938 2.813L15 119l-2.688-.75c-3.43-.603-3.43-.603-6.187 1.688L4 122c-2.194-5.408-2.46-10.498-2.688-16.25l-.142-2.758C.866 96.27.866 96.27 2 94h4l-.313-2.313C6 89 6 89 8.188 87.126c3.296-1.318 4.54-1.468 7.813-.125Z"/><path fill="#5B3E37" d="m68 96 3.207 1.094c9.95 3.132 19.29 4.4 29.73 4.406l3.369.018c7.598-.113 14.414-1.39 21.694-3.518l2.294-.64c1.572-.44 3.14-.897 4.706-1.36 4.618 7.166 7.702 15.346 7 24a269 269 0 0 1-3.367-5.156l-1.508-2.344-1.492-2.344c-2.493-3.291-4.475-4.84-8.485-5.933-3.532-.25-6.108.302-9.523 1.215-11.732 2.682-22.187 2.196-33.848-.817-3.634-.813-6.237-.801-9.777.379-3.848 3.132-6.367 6.824-9 11l-2 3c.035-8.925 2.607-15.302 7-23"/><path fill="#94BFE3" d="M3 81c3.563.11 7.125.24 10.688.375 1.007.03 2.014.062 3.052.094l2.96.117 2.713.095c2.84.35 5.023 1.054 7.587 2.319 1.152 2.102 1.152 2.102 1.938 4.625 2.4 6.68 5.907 11.777 11.437 16.25L46 107v2h-9v-2l-2-1-2-2q-3.01.44-6 1l-2-1 1-7-3-1c-1.806-1.986-3.433-4.074-5.086-6.188C15.606 87.627 14.137 87.249 11 87c-2.269.84-2.269.84-4 2v6l-5-1a888 888 0 0 1-.063-5.375l-.035-3.023C2 83 2 83 3 81"/><path fill="#ABCEF1" d="M76 184h8v2h-2v2h5l1 2-1 2h8q3.095-.234 6.188-.5l3.292-.281L107 191l-3 3 1.738-.438c9.389-2.051 18.71-1.74 28.262-1.562-6.898 6.898-22.847 6.901-32.298 7.032C86.618 198.849 72.933 195.856 59 190v-1l16-1z"/><path fill="#4E260E" d="M98.11 76.74c2.452.01 4.904 0 7.357-.013 8.377-.007 16.342.276 24.533 2.273l1 3c-16.967 6.102-41.592 4.975-59 1l-2-1v-3c9.401-2.043 18.54-2.31 28.11-2.26"/><path fill="#83A2CC" d="m37 140 1 1c3.526.157 6.62.04 10-1l1 4h7v4l2-1c2.333-.04 4.667-.043 7 0-3.285 2.19-4.831 2.353-8.688 2.625l-3.011.227L51 150v2l-3.027.148-3.91.227c-1.288.07-2.576.14-3.903.21-1.043.138-2.086.274-3.16.415l-1 2c-2.063.625-2.063.625-4 1-9-10.5-9-10.5-9-14 9.807-2.393 9.807-2.393 14-2"/><path fill="#CADEF0" d="M198 112c-.313 7.941-1.374 15.828-5 23-2.137 1.34-2.137 1.34-4 2v-2l-3 1c-2.188-.938-2.188-.938-4-2l-2 4-3-1v-2h2l-.125-2.188c.137-3.092.934-4.967 2.125-7.812.733-2.654 1.364-5.32 2-8 3.01-.934 3.867-1.044 7 0v-2c6.875-3 6.875-3 8-3"/><path fill="#C2CFE4" d="M24.938 103.5c3.005.717 3.005.717 5.625-.25L33 103l2.313 2.375c2.813 2.748 3.182 2.958 6.812 3.25C46 109 46 109 48 110.25c1.334 2.335 1.214 4.108 1 6.75l-2.128-1.976c-3.325-2.343-4.822-2.497-8.829-2.415l-3.37.04-3.486.101-3.544.055q-4.322.07-8.643.195l-1-3-.938 2.813L15 119l-2.688-.75c-3.43-.603-3.43-.603-6.187 1.688L4 122c-2-5.75-2-5.75-2-8 7.75-.125 7.75-.125 10 1l-.063-2.875C12 109 12 109 13 107h4l1-3c2.588-1.15 4.127-.978 6.938-.5"/><path fill="#C4D5E9" d="M38 54c2.688 2.375 2.688 2.375 5 5l2.313 1.688L47 62v2c-10.374 5.74-10.374 5.74-16 5l1 2-11-1 4-5-1-2c-2.025-.652-2.025-.652-4-1v-2c2.166-1.898 4.595-3.421 7-5l2-1.375c3.308-1.034 5.684-.498 9 .375"/><path fill="#080605" d="M95 118c1 2 1 2 .441 4.164l-.879 2.461-.87 2.477L93 129c4.077 2.038 6.592 2.078 11 1l2-1-1-11c3.111 4.148 4.6 6.91 5.563 11.938-.76 4.138-2.77 5.134-6 7.609-1.85 1.427-1.85 1.427-2.063 4.266.288 2.152.288 2.152 1.5 3.187 5.536.483 5.536.483 10.5-1.5l1.5-1.5c-1.37 3.161-1.99 3.993-5 6-1.938.266-1.938.266-4 .25l-2.063.016C103 148 103 148 100 146l-3 2c-5.117.578-5.117.578-8 0-3-2.5-3-2.5-5-5l1-2 2 4h11v-5c-2.842-2.673-2.842-2.673-6-5-2-3-2-3-1.813-5.75 2.146-8.583 2.146-8.583 4.813-11.25"/><path fill="#FAFAF4" d="M148 173h3l1 4-8 3 3 2-3 2 1 4q-1.806.983-3.625 1.938l-2.04 1.09c-5.225 2.175-10.377 2.036-15.96 1.91-6.973-.098-13.537.612-20.375 2.062l1-3c2.836-.914 2.836-.914 6.375-1.625 4.864-.995 4.864-.995 9.625-2.375l1.89.96c2.598 1.28 4.026 1.082 6.86.665l2.422-.336L133 189l-7-2v-1l10-2-3-2 3.027-1.715 3.91-2.222 1.999-1.131c3.222-1.702 3.222-1.702 6.064-3.932"/><path fill="#C4E0F3" d="M137 183c-1 2-1 2-4.063 3.125L130 187l4 2v1l-16 1 2-2-3.45.93c-4.428 1.106-8.83 1.707-13.362 2.195l-2.272.262c-4.944.556-9.058.663-13.916-.387v-3l-5-1v-2q2.406-.039 4.813-.063l2.707-.035C92 186 92 186 95 187c11.232.778 22.485-.522 33.023-4.469 3.225-.867 5.76-.284 8.977.469"/><path fill="#B3C6E1" d="m19 64 1 3c2.398 2.398 3.333 2.343 6.625 2.625l2.477.227L31 70l-1-2h5c0 3.72-1.276 5.666-3.027 8.867C30.724 79.39 30.724 79.39 30 84l-16-2c1.125-9 1.125-9 3.063-13.5l1.097-2.594z"/><path fill="#C5E0F4" d="m166 167 2 5c-6.742 6.55-13.914 11.301-22 16-1.563-1.813-1.563-1.813-3-4l1-3-2-2 8-2v-4l1-2 6 1v-2l-4-2c4.685-2.489 7.944-1.857 13-1"/><path fill="#A0BCDF" d="M73 153v2l-3.813.125-2.144.07C65 155 65 155 62 153c-2.49-.063-2.49-.063-5.125.313l-2.695.3c-2.151.167-2.151.167-3.18 1.387a86 86 0 0 1-4.563.563l-2.503.253L42 156l2 2-1.875.813C39.7 159.956 39.7 159.956 38 163l-2-2.5c-3.337-2.781-4.703-2.84-8.93-2.543-3.275.068-5.98-.927-9.07-1.957v-2h5v2l13-1 1-3h14v-2c1.727-.366 3.457-.717 5.188-1.063l2.917-.597c5.822-.684 9.297 1.131 13.895 4.66"/><path fill="#080706" d="M128 106c3.667 2.75 5.004 5.563 6 10-.375 2.875-.375 2.875-1 5h-1l-.332-1.828c-1.176-6.109-1.176-6.109-4.668-11.172l-7 1-1 3 5-1v4h4v7l3 1c-2.871 2.871-6.11 2.83-10 3-2.5-.438-2.5-.438-4-1l-1-8h-2c1.117-4.842 2.096-7.828 6-11 2.971-1.486 4.834-.823 8 0"/><path fill="#BBCEE7" d="m16 87-1 2-3-1v18l-10 1c-1.078-4.314-2.064-8.872 0-13h4l-.313-2.313C6 89 6 89 8.188 87.126 11.36 85.856 12.793 85.992 16 87"/><path fill="#ADC1E0" d="M26 112c2.918-.108 5.831-.187 8.75-.25l2.5-.102c6.173-.1 6.173-.1 9.328 2.368L48 116c-1.126 3.377-1.435 3.59-4.438 5.125-4.73 2.25-9.38 2.663-14.562 2.875v-7h-2z"/><path fill="#CAE2F8" d="M59 179c2.978.416 5.576.805 8.32 2.066 3.244 1.13 5.474.905 8.868.496 5.62-.658 5.62-.658 7.812.438v2l-8 1 1 3c-3.407 1.703-7.183 1.227-10.938 1.25l-2.498.063-2.404.015-2.199.028c-2.483-.45-3.368-1.455-4.961-3.356l1.715-.367 2.222-.508 2.215-.492c2.055-.463 2.055-.463 2.848-2.633h-2v-2z"/><path fill="#E0EBF5" d="M16 47h3v3l6 1c0 4 0 4-1.262 5.633-1.796 1.413-3.467 2.313-5.55 3.242C14.221 61.766 11.258 64.067 8 67l-1-2a142 142 0 0 1 3.875-8l1.145-2.234a848 848 0 0 1 2.116-4.102A272 272 0 0 0 16 47"/><path fill="#F1F4EE" d="M24.938 103.5c3.008.704 3.008.704 5.687-.188L33 103c2.313 1.938 2.313 1.938 4 4l-3 1-1-3-1.938 1c-4.074 1.33-7.814 1.167-12.062 1l-1 3-3 9-2.688-.75c-3.43-.603-3.43-.603-6.187 1.688L4 122c-2-5.75-2-5.75-2-8 7.75-.125 7.75-.125 10 1l-.063-2.875C12 109 12 109 13 107h4l1-3c2.588-1.15 4.127-.978 6.938-.5"/><path fill="#070605" d="M77 111c4.578.482 4.578.482 6.375 2.688.82 3.036.274 5.26-.375 8.312v3c-8.429 1.429-8.429 1.429-13-1v-2l2-1v-6h5z"/><path fill="#F1F3EC" d="m177 140 1 2c-4.135 8.463-10.54 15.28-17 22-2-1-2-1-3.188-3.25-.93-3.15-.944-4.677.188-7.75 1.625-1.875 1.625-1.875 4-3 3.75.313 3.75.313 7 1l1-4 1.875-.188c2.393-.634 2.393-.634 3.313-3.312L176 141z"/><path fill="#B3D2EB" d="m46 107 13 5c-.362 8.323-.362 8.323-3.063 11.188-4.221 1.167-6.793.146-10.937-1.188l2-5h2l-.938-2.75A106 106 0 0 1 46 107"/><path fill="#BCC9E1" d="M49.188 124.375 52 125l-3 7 6-2-2 9h-4l-1-4-3.813 1.063c-3.134.873-3.97 1.01-7.187-.063.75-1.938.75-1.938 2-4 2.125-.75 2.125-.75 4-1l-.188-2.375L43 126c3-2 3-2 6.188-1.625"/><path fill="#ACBEDF" d="M4 123c2.169.506 4 1 6 2v2h2l1 4 5 1 2 6c-3.735.575-7.213 1-11 1q-1.255-3.435-2.5-6.875l-.723-1.973C4 125.227 4 125.227 4 123"/><path fill="#D7E8F7" d="m198 112-1 10-2.938.375L191 123l-1 2 3 1-7 2v3l-4 1 4-14 4-1v-2c6.875-3 6.875-3 8-3"/><path fill="#EFC9A4" d="M90 134c3.436 1.527 6.12 3.6 9 6-.375 2.438-.375 2.438-1 5-3.092 1.546-5.594 1.294-9 1-2.597-1.913-3.732-3.195-4.75-6.25L84 138l1.875-.875c2.258-1.062 2.258-1.062 4.125-3.125"/><path fill="#795449" d="M133 98c3.206 2.6 4.017 5.424 5.188 9.313l1.042 3.363c.75 3.24.915 6.014.77 9.324a269 269 0 0 1-3.367-5.156l-1.508-2.344-1.492-2.344c-2.617-3.456-5.743-5.35-9.633-7.156 2.914-1.943 5.858-3.464 9-5"/><path fill="#8BB8DE" d="M3 81c5.152-.09 9.92.153 15 1-3.287 3.813-6.397 5.23-11 7v6l-5-1a888 888 0 0 1-.063-5.375l-.035-3.023C2 83 2 83 3 81"/><path fill="#F6F6F6" d="M127 107c4.887 5.158 5.11 8.192 5 15l-5 1 1-8h-4v-4l-7 3c1.81-5.29 4.099-8.008 10-7"/><path fill="#7A544A" d="M66 99c3.95.551 7.35 1.39 11 3-2 2-2 2-5.313 3.625-4.442 2.453-6.309 6.037-8.687 10.375l-2 3c.28-7.487 1.476-13.363 5-20"/><path fill="#93BDDE" d="M70 60c1.565 4.02.462 7.7-.438 11.75l-.447 2.113A704 704 0 0 1 68 79l-2.262-2.297c-2.688-2.654-5.476-5.064-8.383-7.469L56 68v-1h5v2a592 592 0 0 0 3.375-2.813l1.898-1.582c1.95-1.687 1.95-1.687 3.727-4.605"/><path fill="#E9EAE5" d="M158 164v3l-4 1 4 2-1 2-2.656-.207c-3.942.244-5.627 1.287-8.844 3.52-7.56 5.071-7.56 5.071-11.5 6.687l-2-1c2.363-2.526 3.665-3.888 7-5v-2l6-1 1-3 5-1 1-3c3.063-1.188 3.063-1.188 6-2"/><path fill="#B0CEF0" d="m58 177 6 2-3 1v2h2l-1 3c-8.316 2.675-8.316 2.675-12.445 1.02-1.952-1.249-3.775-2.538-5.555-4.02 2-2 2-2 5.563-2.125L53 180c1.72 0 3.342-.572 5-1z"/><path fill="#C5E0F3" d="M82 186q2.406-.039 4.813-.063l2.707-.035C92 186 92 186 95 187l2.813-.125c3.737.147 5.97 1.287 9.187 3.125v1q-2.906.504-5.813 1l-3.269.563c-3.931.589-7.064.27-10.918-.563v-3l-5-1z"/><path fill="#F8F7F7" d="M79 107c2.313 2 2.313 2 4 4l-1 2-5-2v4h-5l1 8-5-1c.61-9.661.61-9.661 4-14 2.591-1.296 4.123-1.343 7-1"/><path fill="#AAC4E4" d="M83 165v1c-10.94 1.466-21.99 1.095-33 1 3.107-3.53 6.25-3.774 10.75-4.25l2.094-.273c7.108-.829 13.378.448 20.156 2.523"/><path fill="#F6F5EE" d="m16 87-1 2-3-1v6l-4 1 1 3c-3.088 1.765-4.233 2-8 2l1-6h4l-.313-2.313C6 89 6 89 8.188 87.126 11.36 85.856 12.793 85.992 16 87"/><path fill="#CADBEE" d="M53 159c7.55.88 7.55.88 10.125 1.563 2.635.614 5.181.498 7.875.437-2.884 2.884-6.115 2.672-10 3.063-5.156.368-5.156.368-10 1.937-1.54.07-3.083.085-4.625.063l-2.477-.028L42 166c2.514-2.514 4.902-3.114 8.223-4.219 1.973-.642 1.973-.642 2.777-2.781"/><path fill="#AAC1E2" d="M12 106c1.16 3.478.708 5.459 0 9l-10-1v-7c3.406-.778 6.508-1.1 10-1"/><path fill="#ADC4E2" d="M82 7c-4.883 2.686-10.158 3.523-15.563 4.688l-3.193.72-3.06.666-2.796.612C55 14 55 14 52 13c10.032-6.61 18.35-6.699 30-6"/><path fill="#EEF4F7" d="M59 179c5.54.568 10.037 2.629 15 5-3.07 2.046-4.807 2.51-8.375 3.125l-2.836.508c-2.636.347-5.134.435-7.789.367l-1-2 1.715-.367 2.222-.508 2.215-.492c2.055-.463 2.055-.463 2.848-2.633h-2v-2z"/><path fill="#050302" d="M153 78c0 3 0 3-1.46 4.508-.633.533-1.264 1.067-1.915 1.617-4.067 3.837-5.02 7.425-5.625 12.875l-6-1c.125-3.25.125-3.25 1-7 4.82-4 4.82-4 8-4v-2a159 159 0 0 1 6-5"/><path fill="#DBE8F2" d="M38 54c2.438 2.063 2.438 2.063 4 4-3.086.914-5.796 1-9 1l-2 1c-1.666.04-3.334.044-5 0 .48-4.56.48-4.56 2.625-6.375 3.453-.909 5.928-.487 9.375.375"/><path fill="#271810" d="M77 113c3.875.875 3.875.875 5 2 .25 2.938.25 2.938 0 6-3 2-3 2-5.063 1.938C75 122 75 122 73.814 119.561L73 117l-1-2h5z"/><path fill="#2A1B12" d="m123 112 1 3 3 1-1 6c-2.375.625-2.375.625-5 1-2-2-2-2-2.125-5.625L119 114z"/><path fill="#E6E8E3" d="m177 140 1 2c-4.135 8.463-10.54 15.28-17 22l-2-2 2.313-2.188c2.406-2.517 3.949-4.832 5.687-7.812l2-1c.652-2.025.652-2.025 1-4l1.875-.188c2.393-.634 2.393-.634 3.313-3.312L176 141z"/><path fill="#0F0E0C" d="M77.438 105.063c4.29 1.129 5.308 2.18 7.562 5.937 1.25 3.313 1.25 3.313 2 6h-2c-1.254-1.715-1.254-1.715-2.563-3.938-1.512-2.69-1.512-2.69-3.437-5.062q-3.5-.061-7 0c-1.367 3.008-2.06 5.443-2.5 8.75L69 120l-2 1c-.42-6.092-.067-9.12 4-14 3-2 3-2 6.438-1.938Z"/><path fill="#ADC4E4" d="M73 153v2l-3.813.125-2.144.07C65 155 65 155 62 153a75 75 0 0 0-5-1l1-3c5.756-2.467 10.417.483 15 4"/><path fill="#ACBBDA" d="m28 125 2 4-2 3 3.438 1.375C35 135 35 135 36 137a891 891 0 0 1-4.875-.438c-.905-.08-1.81-.162-2.742-.246C26 136 26 136 24 135v-2l-7-1 1-3h10z"/><path fill="#DAE9F7" d="m22.324 77.574 2.363.114 2.387.074C29 78 29 78 30 79v5l-14-2c4-4 4-4 6.324-4.426"/><path fill="#DCE5ED" d="M46 109c2 1.25 2 1.25 3 3 .188 2.688.188 2.688 0 5l-1.813-1.938C42.654 112.13 38.303 112.186 33 112c4.143-4.332 7.213-4.325 13-3"/><path fill="#EBF3F8" d="M40 177h18v2l-3 1 1 2-2-.5c-2.583-.43-4.546-.45-7.125-.313L43 181z"/><path fill="#BBD3E9" d="M139 144c2.125.375 2.125.375 4 1-1.245 3.736-2.634 4.188-6 6l2 2-1.828.184-2.422.254c-.789.08-1.578.162-2.39.246-2.184.292-4.237.737-6.36 1.316 2.19-2.3 4.5-4.19 7.063-6.063 2.15-1.573 4.05-3.05 5.937-4.937"/><path fill="#A2B8DC" d="M4 123c2.169.506 4 1 6 2v2h2c-.375 2.938-.375 2.938-1 6l-2 1c-3.81-2.77-4.068-6.629-5-11"/><path fill="#D9E9F9" d="M180 158a729 729 0 0 1-2.875 3.938l-1.617 2.214C174 166 174 166 172 167v-2c-2.463-1.645-2.463-1.645-5-3 4.69-3.127 7.257-4.261 13-4"/><path fill="#E1E8ED" d="m46 119 1 3 6 1v2l-3.25-.063c-2.898.049-5.036.195-7.75 1.063v-2l-4 1-1-2c6.75-4 6.75-4 9-4"/><path fill="#91ADD4" d="M54 144h2v4l2-1c2.333-.04 4.667-.043 7 0-3.285 2.19-4.831 2.353-8.688 2.625l-3.011.227L51 150v2h-3c0-3 0-3 2-5 2.125-.625 2.125-.625 4-1z"/><path fill="#F7F8F3" d="M12 112h1v5l-3.375 1.375C6.038 119.725 6.038 119.725 4 122c-2-5.75-2-5.75-2-8 7.75-.125 7.75-.125 10 1z"/><path fill="#82B1D9" d="M94 42h14c-4 4-4 4-7.563 4.375C97 46 97 46 94 44z"/><path fill="#D8E3EA" d="m187 116-1 4h-2l-.402 2.082-.536 2.73-.527 2.708C182 130 182 130 181 133a266 266 0 0 0-1 5l-3-1v-2h2l-.125-2.188c.137-3.092.934-4.967 2.125-7.812q.523-2.12 1-4.25l1-3.75c2-1 2-1 4-1"/><path fill="#B2D6ED" d="m137 183-1 2c-2.363.633-2.363.633-5.313 1.125l-2.925.508C125 187 125 187 121 187v-2c5.796-2.326 9.86-3.437 16-2"/><path fill="#E2EDF6" d="m17 77-3 1v4L3 81v-2c4.927-1.97 8.78-2.18 14-2"/><path fill="#8DBADE" d="M171 92c0 3 0 3-1.193 4.534l-1.65 1.603-1.778 1.748-1.879 1.802-1.879 1.838A891 891 0 0 1 158 108l-2-2a91 91 0 0 1 4-4h2l.773-1.797c1.345-2.415 2.72-3.715 4.852-5.453l1.914-1.578z"/><path fill="#9CB8DF" d="m58 149-1 4-21 1 1-2h14v-2c2.49-.687 4.379-1 7-1"/><path fill="#82B2D9" d="M76 43c1 2 1 2 .398 4.094-2.79 6.56-2.79 6.56-6.148 8.468L68 56c1.756-4.976 4.256-9.256 8-13"/><path fill="#E9F3F9" d="M198 112v5l-6 1-1 3-1-6c6.875-3 6.875-3 8-3"/><path fill="#B3CBE9" d="m45.688 152.938 3.574.027L52 153l-1 2-1.934-.035-2.504-.028-2.496-.035c-2.058-.135-2.058-.135-3.066 1.098q-3.5.061-7 0c3.527-3.527 6.936-3.11 11.688-3.063Z"/><path fill="#F4F6F1" d="m38 54 2 2-13 2v-3c3.77-2.563 6.682-1.96 11-1"/><path fill="#B9CDE8" d="M2 108h6c0 3 0 3-1 6H2z"/><path fill="#E3F0FA" d="m182 133 4 2v6c-3 0-3 0-4.688-1.5L180 138z"/><path fill="#A4C5E3" d="m36 156 8 1-1.875 1.313C39.78 159.996 39.78 159.996 38 163c-1.46-2.647-2-3.894-2-7"/><path fill="#F2F6F4" d="m53 159 8 1-1 3H50z"/><path fill="#E1BC99" d="M75 103c3.841.268 5.736.795 8.813 3.188 2.392 3.076 2.919 4.97 3.187 8.812-3-4-3-4-4.313-6.125-2.249-2.5-4.489-3.022-7.687-3.875z"/><path fill="#CEDDED" d="m14 58 3 2-9 7-1-2c1.333-4 3.496-4.838 7-7"/><path fill="#EDF4F7" d="m106 189 1 2-11 1 1-3c3.118-1.56 5.67-.666 9 0"/><path fill="#DFE7EA" d="m82 181 2 1v2H73v-2c3.226-1.075 5.622-1.144 9-1"/><path fill="#CADCF0" d="m65 151 7 1 1 3h-8l-1-2z"/><path fill="#E6878C" d="m94 132 3.125 1.125c4.209.95 5.997.578 9.875-1.125-4.75 4.875-4.75 4.875-7 6a318 318 0 0 1-6-5z"/><path fill="#080707" d="m71 107 2 1-1.438 2.063c-1.78 3.348-2.06 6.209-2.562 9.937l-2 1c-.432-6.26.073-9.09 4-14"/><path fill="#AACBE6" d="m69 70-1 9c-4.875-4.75-4.875-4.75-6-7 5.875-2 5.875-2 7-2"/><path fill="#A1C3E1" d="M132 69h2l3 6-5 4z"/><path fill="#D0DEEA" d="M26.75 57.813 29 59l-1 3c-2.958 1.224-4.997.965-8 0 0-2 0-2 1.688-3.75C24 57 24 57 26.75 57.812Z"/><path fill="#CBD7E8" d="M24 133a257 257 0 0 1 4.875.313l2.742.175C34 134 34 134 36 137a891 891 0 0 1-4.875-.438c-.905-.08-1.81-.162-2.742-.246C26 136 26 136 24 135z"/><path fill="#E1EFFB" d="M186 123h2v2l3 2-5 1v3l-4 1q.714-1.97 1.438-3.938l.808-2.214C185 124 185 124 186 123"/><path fill="#C5DCEF" d="m72 163 2.125.438c2.95.577 5.908 1.079 8.875 1.562v1c-1.79.222-3.582.427-5.375.625l-3.023.352L72 167l-2-2h2z"/><path fill="#ADCEE4" d="M93 159h15l-4 2-3 2v-2l-8-1z"/><path fill="#CADBED" d="m2 103 8 1c-1.188 1.5-1.188 1.5-3 3-2.688.188-2.688.188-5 0z"/><path fill="#CEE1F1" d="m58 177 6 2-3 1-1 2-3-1-1 3-2-5h4z"/><path fill="#AEBEDE" d="m48 135 1 4h5l1 2c-6.75-.875-6.75-.875-9-2v-2l-4-1c2.076-.553 3.844-1 6-1"/><path fill="#E4F0F8" d="M113 192c-3.006 3.006-5.824 2.596-10 3l1-3c3.478-1.16 5.459-.708 9 0"/><path fill="#8EB8DD" d="m94 43 11 1-1 2c-3.313.188-3.313.188-7 0z"/><path fill="#E7E8E0" d="M13 107h1l2 11h-3a491 491 0 0 1-.563-4.375l-.316-2.46C12 109 12 109 13 107"/><path fill="#F4F7F3" d="m46 109 1 2-3.813.125-2.144.07C39 111 39 111 36 109c3.357-1.678 6.361-.635 10 0"/><path fill="#B9CEE7" d="m22 94 4 3-1 6h-2z"/><path fill="#B2BFD4" d="M15 118h2v9c-2.578-2.578-2.621-4.44-3-8z"/><path fill="#E3EDF4" d="M143.813 184.375C145 186 145 186 145 187c-4.554.37-4.554.37-6.813-1.5L137 184c4.54-1.35 4.54-1.35 6.813.375"/><path fill="#AABCD5" d="m19 64 1 3 2 2-6 4z"/><path fill="#B1D4F4" d="M144 184h7c-2.052 2.248-3.007 3.002-6 4z"/><path fill="#D6E4EA" d="M50 163v3h-8c2.633-2.633 4.305-3 8-3"/><path fill="#81B1DB" d="M145 64h7c-2.986 1.991-5.597 2.941-9 4z"/></svg>