<svg xmlns="http://www.w3.org/2000/svg" width="61" height="64" fill="none"><path xmlns="http://www.w3.org/2000/svg" fill="#008e94" d="M0 0h256v256H0z"/><path fill="#FFF" stroke="#FFF" stroke-miterlimit="10" stroke-width=".5" d="M35 31.8h-.3l1-.3-.8.3Zm1.1-.3h-.3l.3-.1-.8-.1c-1.2.2-2.5.2-3.7.5h-.2v.2l1.8.1 1.6-.2c-.4.3-2 .3-2.7.3h-.5c0 .4.5.6.6.9 1.3 1.3 2.4 3 3.3 4.5 0 .2 0 .5.2.6v.2l.3.4v.1c0 .3.5.4.5.6v.1c-.6 0-.7-.3-1-.7-.4-.4-.6-1.1-1.2-1.4-.1-.4-.4-.4-.6-.8l-.5-1.2c.3 0 .4.2.4.5.4.8 1 1.3 1.3 2 .2 0 .2.3.4.4-.3-1-.9-2.3-1.8-2.9 0-.2 0-.4-.3-.4v.3l-.7-1c0-.3-.1-.6-.4-.6 0-.4-.5 0-.8-.5-.1-.4-.7-.5-1-.5-1 1.6-4.8 5.2-5.3 6.7-.4 0-.6.3-1 .3l-.2-.1.2-.4c.6-1 5.7-6.3 5.7-7l-.6-.2a2 2 0 0 0-.5-.2l-1.5.2-3.7.2c-.3 0-.2-.2-.3-.4.4 0 .7-.4 1.1-.4l.5.2h1c1.3 0 3.1 0 4.3-.3h.1c0-.1-.3-.2-.2-.4 0-.2-1.3-1.3-1.3-1.7 0-.7-2-3-2.5-3.6 0-.4-.3-.6-.3-.9l.3-.2c.2 0 .3.2.4.3l-.1.2a7 7 0 0 0 1.4 2v-.3c1.4.8 1.8 2.3 2.6 3.5.9 0 2.8-4.7 3.9-5-.9 1.4-2 2.7-2.8 4.3l.1.1c.5-.2.4-.8.6-1 .2-.1.7-.5.7-.7 0 0 1.5-1.9 1.8-2.5l.7-1-.4.2c.1-.5 1.1-1 1.6-1-.6.9-1.5 1.4-2 2.4s-1 1.7-1.8 2.6c0 .3-.3.4-.3.6-.4.6-1.5 1.2-1.5 2h.6c1.5 0 3-.3 4.6-.3.5 0 1.2 0 1.7.2z"/><path fill="#FFF" d="M39.5 40.7c0-.5.2-1 .3-1.4l.4-.5c0 .8-.4 1.3-.7 1.9m-3.6 5.5c0 .3-.3.4-.5.4l.8-1.7c.6-.2 1-.7 1.6-1zm3.1-5.8-1.3 2.5c-.4.2-.7.7-1 1l.3-.5c.5-1.1 1.2-2 2-3m-6.4 8.3c-.4.8-2 1.7-2.8 1.7s-1.4-.8-2.3-.8c-.1-.6-.8-.3-1.2-.6-1-.7-2.3-2-2.8-3.1-1-1.8-1.9-4.2-2.4-6.2-.2-.8-.2-5.4-.2-6.4 0-3.5-.1-6.2 1.3-9.3 0-.7.7-1.1.7-1.6V22c.4-.4.4-1.2 1-1.6.4-1.6 2-2.7 2.8-4.2.6-.3.8-1.2 1.4-1.6 1.2-.8 2.5-2 4.2-2 .1.2.3.3.5.3h.3l.2-.2c.3 0 .6.3.7-.1 1 .2 2.4-.3 3 .8 2.3 1.5 1.6 4.5 2.5 6.6.2 1.8.4 3.7.4 5.5.1 2.6.4 5.2.4 7.9 0 2-.1 3.4-.5 4.7l-.7 1.3c-.6.4-.7 1.3-1.4 1.5l-1.6 3.2-.1-.2-.5.6.3.3c-1 1.7-2 3.3-3.2 3.8Zm-4.2 2.6c-1.8 0-3.8-.6-4.8-2.1-.8-1-2-2-2.4-3.3-.5-.6-2.3-7.5-2.3-8.5 0 0 0-.3.2-.3.7 0 2 3.7 2 4.2.6 1.7 1.6 3.6 2.4 5.2.4.8 1 1.4 1.5 2.2.6.1.9.8 1.5.9.3.5.9.5 1.2 1 .2 0 .9.1.9.4 0 .1 0 .3-.2.3m13.7-17.4c-.3.2-.8.5-.8 1v.2c-.4.6-.5 1.5-1 2.1v.3c.6-4 .9-8.4.9-10.9 0-2.3-.9-4.6-1-7-.2-1.8-.3-3.8-1.5-5.3a6.5 6.5 0 0 0-4.7-2.4h-1l-.8-.2c-.8 0-1.5.6-2.3.6a2 2 0 0 1-.7 0l-.3.2h1l.2.4c0 .3-1 .2-1 .8-1.9 1-3.8 3.3-5 5l-1.7 3.4-.6 1-.1 1c-.5.5-.2 1.4-.7 1.8-.7 2.2-1.2 5-1.2 7.2l-.3.2c0-.5-.3-1-.2-1.6v-.4c.2-5.1.3-9.5 3.4-14 2.3-3.4 5.2-3.9 6-5h-.4c-.5 0-1 .3-1.1.7-3.3 1-5 4-6.3 7-.2.3-.5.5-.6 1-.2 1-.4 2-.8 3l-.3 1.4.2 1-.2 1.4c-.6 3.1-.8 6.6-.8 9.8 0 2.6 1.1 4.9 2 7.2.8 2.5 2.6 4.6 4.6 6.3l1.4.3c.4.2.8.4 1.2.4.7 0 1.3-.3 2-.2h.1c.8-.5 2.2-.9 2.9-1.6.1 0 .2-.5.5-.5h.1c1.3-1.2 2.7-2.3 3.8-3.7.6-.7 1-1.6 1.5-2.3.1-.2.1-.6.4-.8.7-1.7 3.5-7.2 3.5-8.7H42Z"/><path stroke="#FFF" stroke-miterlimit="10" stroke-width=".5" d="M39.5 40.7c0-.5.2-1 .3-1.4l.4-.5c0 .8-.4 1.3-.7 1.9Zm-3.6 5.5c0 .3-.3.4-.5.4l.8-1.7c.6-.2 1-.7 1.6-1zm3.1-5.8-1.3 2.5c-.4.2-.7.7-1 1l.3-.5c.5-1.1 1.2-2 2-3Zm-6.4 8.3c-.4.8-2 1.7-2.8 1.7s-1.4-.8-2.3-.8c-.1-.6-.8-.3-1.2-.6-1-.7-2.3-2-2.8-3.1-1-1.8-1.9-4.2-2.4-6.2-.2-.8-.2-5.4-.2-6.4 0-3.5-.1-6.2 1.3-9.3 0-.7.7-1.1.7-1.6V22c.4-.4.4-1.2 1-1.6.4-1.6 2-2.7 2.8-4.2.6-.3.8-1.2 1.4-1.6 1.2-.8 2.5-2 4.2-2 .1.2.3.3.5.3h.3l.2-.2c.3 0 .6.3.7-.1 1 .2 2.4-.3 3 .8 2.3 1.5 1.6 4.5 2.5 6.6.2 1.8.4 3.7.4 5.5.1 2.6.4 5.2.4 7.9 0 2-.1 3.4-.5 4.7l-.7 1.3c-.6.4-.7 1.3-1.4 1.5l-1.6 3.2-.1-.2-.5.6.3.3c-1 1.7-2 3.3-3.2 3.8Zm-4.2 2.6c-1.8 0-3.8-.6-4.8-2.1-.8-1-2-2-2.4-3.3-.5-.6-2.3-7.5-2.3-8.5 0 0 0-.3.2-.3.7 0 2 3.7 2 4.2.6 1.7 1.6 3.6 2.4 5.2.4.8 1 1.4 1.5 2.2.6.1.9.8 1.5.9.3.5.9.5 1.2 1 .2 0 .9.1.9.4 0 .1 0 .3-.2.3Zm13.7-17.4c-.3.2-.8.5-.8 1v.2c-.4.6-.5 1.5-1 2.1v.3c.6-4 .9-8.4.9-10.9 0-2.3-.9-4.6-1-7-.2-1.8-.3-3.8-1.5-5.3a6.5 6.5 0 0 0-4.7-2.4h-1l-.8-.2c-.8 0-1.5.6-2.3.6a2 2 0 0 1-.7 0l-.3.2h1l.2.4c0 .3-1 .2-1 .8-1.9 1-3.8 3.3-5 5l-1.7 3.4-.6 1-.1 1c-.5.5-.2 1.4-.7 1.8-.7 2.2-1.2 5-1.2 7.2l-.3.2c0-.5-.3-1-.2-1.6v-.4c.2-5.1.3-9.5 3.4-14 2.3-3.4 5.2-3.9 6-5h-.4c-.5 0-1 .3-1.1.7-3.3 1-5 4-6.3 7-.2.3-.5.5-.6 1-.2 1-.4 2-.8 3l-.3 1.4.2 1-.2 1.4c-.6 3.1-.8 6.6-.8 9.8 0 2.6 1.1 4.9 2 7.2.8 2.5 2.6 4.6 4.6 6.3l1.4.3c.4.2.8.4 1.2.4.7 0 1.3-.3 2-.2h.1c.8-.5 2.2-.9 2.9-1.6.1 0 .2-.5.5-.5h.1c1.3-1.2 2.7-2.3 3.8-3.7.6-.7 1-1.6 1.5-2.3.1-.2.1-.6.4-.8.7-1.7 3.5-7.2 3.5-8.7H42Z"/><path fill="#FFF" d="M30.1 50.8v.1z"/><path stroke="#FFF" stroke-miterlimit="10" stroke-width=".5" d="M30.1 50.8v.1"/></svg>