<svg xmlns="http://www.w3.org/2000/svg" id="Layer_2" data-name="Layer 2" viewBox="0 0 303.04 190.22"><defs><style>.cls-1{fill:#eb4747;stroke-width:0}</style></defs><g id="Layer_1-2" data-name="Layer 1"><path d="M49.41 135.74c-19.2 14.45-42.77-11.69-27.53-29.06 6.44-7.17 5.41-17.06.17-23.29C6.19 64.83 31.3 39.37 50.08 54.68c-16.32 26.03-14.22 58.85-.67 81.06m118.03-41.67c-.49 16.45 12.75 29.99 29.1 29.99h35.83c3.77 0 5.67 4.57 3 7.23-.46.46-1 .99-1.64 1.61-33.83 33.27-90.35 8.52-90.35-37.96S199.99 23.79 233.77 57c5.54 5.46 3.9 3.7 3.11 8.83h-39.72c-15.84 0-29.25 12.4-29.72 28.24" class="cls-1"/><path d="M163.53 19.43c-43.2 18.63-57.88 65.63-44.46 103.72 8.29 23.54-18.05 44.37-38.81 30.54-35.28-23.5-43.92-63.66-20.72-97.09 28.19-40.65 85.76-40.63 103.57-39.57 1.32.08 1.64 1.88.42 2.4" class="cls-1"/><path d="M248.47 145.71c-4.73 5.17-18.92 19.09-42.7 22.07-44.32 5.51-82.66-29.13-82.66-72.84 0-66.62 82.63-98.78 127.58-49.61-11.55 6.92-5.01 10.31-12.52 3.5-39.65-35.94-103.75-7.63-103.75 46.11s64.08 82.05 103.74 46.12c1.09-1 1.97-1.81 2.63-2.42.7-.66 1.8-.62 2.43.1.84.95 2.33 2.35 4.94 4.16.93.65 1.07 1.98.31 2.81" class="cls-1"/><path d="M293.56 94.8s.1-.16.21-.31c3.46-4.63 6.45-9.14 7.82-13.25 2.32-7.68 1.87-16.31-1.58-24.63-5.89-14.24-19.21-23.44-33.92-23.44-1.14 0-2.3.06-3.46.16-14.32-15.38-33.42-25.26-54.29-27.98C189.68 1.8 171.72 0 154.94 0 110.16 0 76.13 12.43 53.66 36.98c-5-2.47-10.46-3.76-16.11-3.76C17 33.22.28 49.86.28 70.31c0 11.08 4.5 17.83 7.48 22.3.55.83 1.26 1.88 1.65 2.59-.05.07-.11.14-.17.21-9.65 10.78-11.9 25.09-6.02 38.31 6.17 13.88 19.95 23.21 34.29 23.21 5.22 0 10.43-1.22 15.34-3.58 22.17 23.84 58.52 36.87 103.32 36.87 17.14 0 35.23-1.98 52.33-5.72 20.8-2.76 39.83-12.62 54.11-27.94 1.18.11 2.35.16 3.51.16 14.91 0 27.88-8.97 33.84-23.41 5.52-13.37 3.18-28.03-5.95-37.63-.31-.47-.41-.74-.45-.88m-34.04 53.23c-13.36 15.85-31.84 25.97-52.39 28.61-52.55 11.59-120.14 7.44-152.6-33.56-28.3 20.65-61.54-17.78-39.27-42.45 7.97-9.43-7.01-12.23-7.01-30.31 0-24.32 28.08-37.76 47.02-22.96 34.01-42.9 98.28-44.37 151.82-34.14 20.59 2.64 39.08 12.77 52.45 28.64 28.82-6.21 46.06 29.54 28.26 47.35-1.66 1.95-2.22 3.86-2.22 5.54 0 3.36 2.2 5.82 2.2 5.95 17.62 17.55.82 53.6-28.26 47.33" class="cls-1"/><path d="M281.44 107.04c10.4 13.12 1.09 32.7-15.79 32.7-8.19 0-15.44-4.92-18.58-12.35-.66-1.57-1.05-2.97-1.27-4.35-.75-4.54-4.56-7.94-9.17-7.94h-40.09c-26.65 0-26.65-40.3 0-40.3h40.09c4.61 0 8.42-3.4 9.17-7.95.22-1.38.61-2.78 1.27-4.36 2.2-5.2 6.49-9.36 12.26-11.31 19.22-6.43 34.79 16.79 21.65 32.21-5.33 6.25-6.24 15.78.46 23.65" class="cls-1"/></g></svg>