<svg xmlns="http://www.w3.org/2000/svg" width="2000" height="2000" fill="none" viewBox="0 0 2000 2000"><path fill="url(#a)" d="M999 1814c450.11 0 815-364.89 815-815 0-450.112-364.89-815-815-815-450.112 0-815 364.888-815 815 0 450.11 364.888 815 815 815"/><g filter="url(#b)"><path fill="url(#c)" d="M1483.74 544.256c-65.3-65.304-229.9-13.694-414.24 116.402 29.18-1.884 52.4-1.884 70.17-1.095 98.79-46.184 181.92-53.889 223.82-11.987 79.49 79.482-19.49 307.333-221.08 508.914-201.586 201.58-429.426 300.56-508.909 221.08-56.662-56.66-22.623-188.71 74.609-332.89-7.864-8.54-13.162-15.49-16.734-21.03-161.628 207.39-232.3 400.91-160.119 473.09 91.707 91.71 379.278-47.16 642.303-310.18 263.02-263.026 401.89-550.597 310.18-642.304"/></g><path fill="#0F011D" d="M769.059 1140.58c4.333-4.44 10.206-6.93 16.33-6.93h565.031c10.3 0 15.45 12.77 8.17 20.23l-111.65 114.42c-4.33 4.44-10.21 6.93-16.33 6.93H665.575c-10.293 0-15.447-12.76-8.166-20.23zm0-427.465c4.333-4.44 10.206-6.934 16.33-6.934h565.031c10.3 0 15.45 12.766 8.17 20.228L1246.94 840.83c-4.33 4.438-10.21 6.932-16.33 6.932H665.575c-10.293 0-15.447-12.764-8.166-20.226zm477.881 212.369c-4.33-4.439-10.21-6.933-16.33-6.933H665.575c-10.293 0-15.447 12.766-8.166 20.227l111.65 114.422c4.333 4.44 10.206 6.93 16.33 6.93h565.031c10.3 0 15.45-12.76 8.17-20.23z"/><path stroke="#000" stroke-linecap="round" stroke-miterlimit="10" stroke-width="20" d="M947 1707.47c-367.88-26.75-658.04-333.66-658.04-708.371S579.12 317.479 947 290.729" opacity=".5"/><path stroke="#000" stroke-linecap="round" stroke-miterlimit="10" stroke-width="20" d="M947 251.05C556.74 277.88 248.49 602.93 248.49 1000S556.75 1722.12 947 1748.95m103.49-40.48c367.88-26.75 658.04-333.66 658.04-708.37 0-374.711-290.16-681.621-658.04-708.371" opacity=".5"/><path stroke="#000" stroke-linecap="round" stroke-miterlimit="10" stroke-width="20" d="M1050.49 252.05C1440.75 278.88 1749 603.93 1749 1001s-308.26 722.12-698.51 748.95" opacity=".5"/><defs><linearGradient id="a" x1="422.71" x2="1575.29" y1="1575.29" y2="422.71" gradientUnits="userSpaceOnUse"><stop stop-color="#C993F3"/><stop offset=".06" stop-color="#BD95F3"/><stop offset=".17" stop-color="#9F9AF3"/><stop offset=".31" stop-color="#6DA4F4"/><stop offset=".48" stop-color="#2AB1F6"/><stop offset=".56" stop-color="#07B8F7"/><stop offset=".84" stop-color="#08E0CD"/><stop offset="1" stop-color="#09F4BA"/></linearGradient><linearGradient id="c" x1="1483" x2="526" y1="530.5" y2="1483.5" gradientUnits="userSpaceOnUse"><stop stop-opacity="0"/><stop offset=".15"/><stop offset=".75"/><stop offset="1" stop-opacity="0"/></linearGradient><filter id="b" width="1069" height="1069" x="473.003" y="485.998" color-interpolation-filters="sRGB" filterUnits="userSpaceOnUse"><feFlood flood-opacity="0" result="BackgroundImageFix"/><feColorMatrix in="SourceAlpha" result="hardAlpha" values="0 0 0 0 0 0 0 0 0 0 0 0 0 0 0 0 0 0 127 0"/><feOffset/><feGaussianBlur stdDeviation="15"/><feColorMatrix values="0 0 0 0 0 0 0 0 0 0 0 0 0 0 0 0 0 0 0.7 0"/><feBlend in2="BackgroundImageFix" result="effect1_dropShadow_17375_443"/><feBlend in="SourceGraphic" in2="effect1_dropShadow_17375_443" result="shape"/></filter></defs></svg>