<svg xmlns="http://www.w3.org/2000/svg" width="1200" height="1200"><path fill="#084D3E" d="M0 0h1200v1200H0z"/><path fill="#D4F0CA" d="M418 550h430a66.5 66.5 0 0 1-4.9 11.6l-1.7 3.3-1 1.7-4 7.4a5545 5545 0 0 1-12.8 24 9583 9583 0 0 1-21.6 40.5l-1.6 2.9-4.4 7.6h103a69.7 69.7 0 0 1-5 12c-.7 1-1.3 2.2-1.9 3.4a21918 21918 0 0 1-25.9 47.7l-1 1.9-4.8 9c-4.3 8-8.8 16-13.4 24H742c9.1-18.2 9.1-18.2 13.6-26.4l3.1-5.6 1.6-3c3-5.2 5.7-10.5 8.6-15.8l1.7-3.2a44990 44990 0 0 0 14.7-27.3l1.6-3 1.5-2.7 6.6-12H367c1.6-4.7 3.1-8.3 5.4-12.6l1-1.9a2142 2142 0 0 1 11.5-21.4l5-9.3L401 582zm112-199.5a147 147 0 0 1 11.2 0l11 .1h12l20.5.1 29.9.2a8942 8942 0 0 1 98.3.5h14.5l120.6.6a68 68 0 0 1-5 11.8l-1.8 3.4a29099 29099 0 0 1-31.9 58.8L796 451H471c1.7-4.2 3.6-8.2 5.7-12.2l1.1-2a4002 4002 0 0 1 28.8-53.5l1.9-3.5a4445 4445 0 0 0 6.8-12.6c1.7-3.1 1.7-3.1 3-6.4 3-5.9 4.8-9.5 11.6-10.3Zm-59.1 396.4h23.3a24314 24314 0 0 0 91.5 0 106805 106805 0 0 0 156.3.1 91 91 0 0 1-4.8 10.3l-1.6 3-1.9 3.4-5.7 10.7-7.4 13.6-14.8 27.4-1.3 2.3L689 846H416a69 69 0 0 1 5-11.9l1.8-3.4a25820 25820 0 0 1 9.2-16.9l4.4-8a10370 10370 0 0 1 13.2-24.6C468 747.1 468 747.1 471 747Z"/><path fill="#D3EFCA" d="M353 451h117a79 79 0 0 1-5.6 13l-1 2a2064 2064 0 0 1-18.6 34.2c-9.2 16.5-18 33.2-26.8 49.8H300c1.6-4 3.4-7.9 5.5-11.7l1-2a3550 3550 0 0 1 20.1-37.3c4.5-8.2 9-16.4 13.3-24.6 4.3-8 8.7-15.6 13.1-23.4"/></svg>