<svg xmlns="http://www.w3.org/2000/svg" width="25" height="24" fill="none" viewBox="0 0 25 24"><path fill="url(#a)" d="M12.022 3.587c.006-.23.306-.316.434-.124a8.6 8.6 0 0 0 7.158 3.825 8.6 8.6 0 0 0 3.168-.602A12 12 0 0 0 12.081 0C5.492-.032.075 5.315.023 11.904c-.01 1.32.193 2.594.578 3.784a12.4 12.4 0 0 0 7.776-3.606 12.42 12.42 0 0 0 3.645-8.495"/><path fill="url(#b)" d="M11.965 24c6.588.031 12.004-5.313 12.057-11.901.01-1.321-.193-2.593-.577-3.784a12.4 12.4 0 0 0-7.777 3.607 12.41 12.41 0 0 0-3.644 8.494c-.006.232-.306.316-.434.125a8.6 8.6 0 0 0-7.158-3.826 8.6 8.6 0 0 0-3.167.602A12 12 0 0 0 11.965 24"/><defs><linearGradient id="a" x1="22.782" x2="9.579" y1="0" y2="18.468" gradientUnits="userSpaceOnUse"><stop stop-color="#4b1bf9"/><stop offset="1" stop-color="#3eccee"/></linearGradient><linearGradient id="b" x1="24.023" x2="10.823" y1="8.315" y2="26.781" gradientUnits="userSpaceOnUse"><stop stop-color="#f20a49"/><stop offset=".52" stop-color="#c119e7"/><stop offset="1" stop-color="#4675f3"/></linearGradient></defs></svg>
