<svg xmlns="http://www.w3.org/2000/svg" width="1443" height="1443" fill="none" viewBox="0 0 1443 1443"><path fill="url(#a)" d="M0 71.554C0 25.928 41.842-7.714 86.417 1.538L1089.78 213.69c76.11 15.98 76.11 124.054 0 140.033L86.417 565.245C41.842 574.707 0 541.065 0 495.439zm0 876.154c0-45.626 41.842-79.268 86.417-70.017L1089.78 1089.84c76.11 15.98 76.11 124.06 0 140.04L86.417 1441.4C41.842 1450.86 0 1417.22 0 1371.59zm1335.15 53.402c44.58 9.47 86.42-24.807 86.42-70.013V512.47c0-45.837-41.84-79.268-86.42-70.017L334.944 651.872c-76.114 15.98-76.114 124.474 0 140.033z"/><defs><linearGradient id="a" x1="74.678" x2="1210.83" y1="584.72" y2="1137.87" gradientUnits="userSpaceOnUse"><stop stop-color="#2bda9b"/><stop offset=".5" stop-color="#3492cf"/><stop offset="1" stop-color="#7856ff"/></linearGradient></defs></svg>