<svg xmlns="http://www.w3.org/2000/svg" fill="none" viewBox="44.84 10.17 50.36 49.61"><path fill="#C40D3B" d="M52.06 17.287c-8.366 8.24-9.349 20.652-3.556 30.139.93 1.523 3.048 1.636 4.324.38l1.994-1.964c1.054-1.038 1.156-2.668.45-3.961-3.354-6.137-2.829-13.635 2.477-18.861 5.31-5.23 13.034-5.847 19.308-2.576 1.313.684 2.96.581 4.01-.453l1.977-1.947c1.276-1.256 1.16-3.343-.386-4.26-9.631-5.705-22.233-4.736-30.598 3.503"/><path fill="#C40D3B" d="M85.227 24.047c-1.053 1.038-1.155 2.667-.455 3.963 3.359 6.21 2.678 13.857-2.605 19.06-5.278 5.199-12.94 5.748-19.191 2.424-1.315-.7-2.974-.6-4.03.44l-1.993 1.962c-1.273 1.255-1.162 3.336.379 4.255 9.635 5.745 22.259 4.73 30.622-3.508 8.365-8.239 9.395-20.672 3.562-30.163-.933-1.517-3.046-1.627-4.32-.373z" opacity=".6"/></svg>