<svg xmlns="http://www.w3.org/2000/svg" fill="none" viewBox="30.76 29.99 138.48 140.24"><g filter="url(#a)"><path fill="url(#b)" d="M51 50a70 70 0 0 0-11 84c3 5 10 5 14 1l3-3c4-4 4-9 2-14-9-17-7-37 7-52 14-14 35-16 52-8 5 3 10 2 13-1l4-3c4-5 3-12-2-15a68 68 0 0 0-82 11Z"></path><path fill="url(#c)" fill-opacity=".4" d="M143 68c-4 4-4 9-2 14 9 17 7 38-8 52a44 44 0 0 1-51 8c-5-3-10-2-13 1l-4 3c-4 5-4 12 2 15 26 15 60 12 82-11 23-23 26-57 11-84-3-5-10-5-14-1l-3 3Z"></path></g><defs><linearGradient id="b" x1="84" x2="84" y1="30" y2="137.8" gradientUnits="userSpaceOnUse"><stop stop-color="#A5062C"></stop><stop offset="1" stop-color="#960529" stop-opacity=".9"></stop></linearGradient><linearGradient id="c" x1="115.9" x2="115.9" y1="62.1" y2="170" gradientUnits="userSpaceOnUse"><stop stop-color="#A5062C"></stop><stop offset="1" stop-color="#960529" stop-opacity=".9"></stop></linearGradient><filter id="a" width="178.8" height="180" x="11" y="10" color-interpolation-filters="sRGB" filterUnits="userSpaceOnUse"><feFlood flood-opacity="0" result="BackgroundImageFix"></feFlood><feColorMatrix in="SourceAlpha" result="hardAlpha" values="0 0 0 0 0 0 0 0 0 0 0 0 0 0 0 0 0 0 127 0"></feColorMatrix><feOffset></feOffset><feGaussianBlur stdDeviation="10"></feGaussianBlur><feComposite in2="hardAlpha" operator="out"></feComposite><feColorMatrix values="0 0 0 0 1 0 0 0 0 0 0 0 0 0 0 0 0 0 0.7 0"></feColorMatrix><feBlend in2="BackgroundImageFix" result="effect1_dropShadow_2030_108"></feBlend><feBlend in="SourceGraphic" in2="effect1_dropShadow_2030_108" result="shape"></feBlend><feColorMatrix in="SourceAlpha" result="hardAlpha" values="0 0 0 0 0 0 0 0 0 0 0 0 0 0 0 0 0 0 127 0"></feColorMatrix><feOffset dy="5"></feOffset><feGaussianBlur stdDeviation="8"></feGaussianBlur><feComposite in2="hardAlpha" k2="-1" k3="1" operator="arithmetic"></feComposite><feColorMatrix values="0 0 0 0 0.964706 0 0 0 0 0.0392157 0 0 0 0 0.231373 0 0 0 1 0"></feColorMatrix><feBlend in2="shape" result="effect2_innerShadow_2030_108"></feBlend></filter></defs></svg>
