<svg xmlns="http://www.w3.org/2000/svg" xml:space="preserve" viewBox="0 0 397.7 311.7"><linearGradient id="a" x1="360.9" x2="141.2" y1="351.5" y2="-69.3" gradientTransform="matrix(1 0 0 -1 0 314)" gradientUnits="userSpaceOnUse"><stop offset="0" stop-color="#00ffa3"/><stop offset="1" stop-color="#dc1fff"/></linearGradient><path fill="url(#a)" d="M64.6 237.9a13 13 0 0 1 9.2-3.8h317.4c5.8 0 8.7 7 4.6 11.1l-62.7 62.7a13 13 0 0 1-9.2 3.8H6.5c-5.8 0-8.7-7-4.6-11.1z"/><linearGradient id="b" x1="264.8" x2="45.2" y1="401.6" y2="-19.1" gradientTransform="matrix(1 0 0 -1 0 314)" gradientUnits="userSpaceOnUse"><stop offset="0" stop-color="#00ffa3"/><stop offset="1" stop-color="#dc1fff"/></linearGradient><path fill="url(#b)" d="M64.6 3.8q4-3.7 9.2-3.8h317.4c5.8 0 8.7 7 4.6 11.1l-62.7 62.7a13 13 0 0 1-9.2 3.8H6.5c-5.8 0-8.7-7-4.6-11.1z"/><linearGradient id="c" x1="312.5" x2="92.9" y1="376.7" y2="-44.1" gradientTransform="matrix(1 0 0 -1 0 314)" gradientUnits="userSpaceOnUse"><stop offset="0" stop-color="#00ffa3"/><stop offset="1" stop-color="#dc1fff"/></linearGradient><path fill="url(#c)" d="M333.1 120.1a13 13 0 0 0-9.2-3.8H6.5c-5.8 0-8.7 7-4.6 11.1l62.7 62.7a13 13 0 0 0 9.2 3.8h317.4c5.8 0 8.7-7 4.6-11.1z"/></svg>