<svg xmlns="http://www.w3.org/2000/svg" width="464" height="906"><path fill="#31318A" d="M253 0c4.56.56 4.56.56 6 2 .23 1.98.39 3.97.53 5.96l.27 3.96a40740.48 40740.48 0 0 1 .62 9.03l.88 12.78.95 13.77 1.64 23.87 2.38 34.54 3.86 56.05.23 3.4a6330908.13 6330908.13 0 0 1 14.11 205.05l.24 3.44c.28 3.09.74 6.1 1.29 9.15l3-2.46c6.69-5.45 13.38-10.87 20.19-16.17a420.53 420.53 0 0 0 14.92-12.25c3.81-3.24 7.7-6.36 11.64-9.43 5.28-4.1 10.47-8.3 15.63-12.56.7-.6 1.42-1.18 2.16-1.8l2.16-1.78c9.08-7.5 18.2-14.94 27.49-22.18a442 442 0 0 0 15.2-12.46c3.89-3.31 7.83-6.53 11.83-9.7 3.53-2.81 7.03-5.67 10.53-8.52 5.1-4.16 10.24-8.27 15.44-12.31a413.6 413.6 0 0 0 15.64-12.85c6.78-5.82 6.78-5.82 12.17-5.53.5 3.08.47 5.23-1.18 7.93a149.86 149.86 0 0 1-5.32 6.32l-3.9 4.57-1.9 2.2c-1.98 2.3-3.88 4.66-5.76 7.04-3.39 4.26-6.82 8.48-10.25 12.69a885.95 885.95 0 0 0-12.31 15.44 420.7 420.7 0 0 1-12.26 14.92 384.07 384.07 0 0 0-10.78 13.37 747.7 747.7 0 0 1-13.36 16.48c-3.66 4.44-7.3 8.9-10.87 13.4-2.79 3.48-5.6 6.94-8.42 10.39a885.95 885.95 0 0 0-12.31 15.44 419.35 419.35 0 0 1-12.25 14.91c-3.84 4.51-7.5 9.14-11.15 13.81A802.22 802.22 0 0 1 319 428l-6.69 8.19-1.62 1.98A371.6 371.6 0 0 0 300 452c1.76 3.68 4 6.8 6.5 10l1.34 1.73c3.8 4.87 7.74 9.63 11.72 14.36 5.13 6.11 10.16 12.3 15.13 18.54 3.65 4.58 7.38 9.1 11.12 13.62 4.3 5.2 8.55 10.43 12.69 15.75 5.83 7.48 11.87 14.78 17.91 22.08 5.5 6.65 10.93 13.34 16.31 20.08 4.5 5.6 9.04 11.17 13.57 16.74a18623.68 18623.68 0 0 1 18.03 22.17c5.16 6.33 10.29 12.68 15.3 19.12a401.81 401.81 0 0 0 12.44 15.18c2.12 2.5 4.25 4.99 6.4 7.45l2.23 2.62 1.95 2.24c1.72 2.93 1.61 4.99 1.36 8.32-2.04.85-2.04.85-5 1-2.72-1.52-4.97-3.57-7.31-5.63l-4.28-3.6-2.2-1.9c-3.48-2.95-7.04-5.81-10.58-8.68l-4.03-3.27c-3.63-2.95-7.27-5.86-10.93-8.78-2.8-2.24-5.57-4.5-8.35-6.76-5.71-4.66-11.44-9.29-17.26-13.82a904.92 904.92 0 0 1-19.76-16c-9-7.44-18.04-14.82-27.24-22a906.46 906.46 0 0 1-19.76-16 1210.47 1210.47 0 0 0-29.52-23.78c-2.89-2.25-5.7-4.55-8.48-6.94l-1.88-1.62L286 523c-1.96 17.56-3.12 35.18-4.32 52.81l-.9 13.24-1.56 22.86a58161.53 58161.53 0 0 1-3.32 48.5l-.22 3.13-2.4 35.1-.22 3.23c-1.2 17.36-2.38 34.73-3.56 52.09l-3.67 53.54-2.25 33a14174.92 14174.92 0 0 1-2.43 35.6 3093.98 3093.98 0 0 1-1.11 16.23l-.4 5.84-.23 3.29C259 904 259 904 257 906c-2.63.13-2.63.13-5 0-1.38-2.75-1.13-4.95-1.13-8.03v-3.93a36903.8 36903.8 0 0 1 0-8.99v-12.8l-.01-13.88V834l-.01-36.24a171439.47 171439.47 0 0 1-.03-140.35 570005.69 570005.69 0 0 1 0-140.87 381161.65 381161.65 0 0 0-.04-161.66v-2.02a336129 336129 0 0 1 0-123.28v-3.78l-.02-60.35v-60.59l-.01-36.04a14609.42 14609.42 0 0 1 0-37.76 3124.8 3124.8 0 0 1 0-16.96 868.5 868.5 0 0 1 0-9.48C251 2 251 2 253 0ZM208 0c2.63.38 2.63.38 5 1l.04 258.51v3.86a4968208.95 4968208.95 0 0 1 .03 222.5v2.06a4455711.16 4455711.16 0 0 0 .04 253.3 167558.2 167558.2 0 0 1 .01 121 10565.85 10565.85 0 0 0 0 26.25 1921.92 1921.92 0 0 0 0 10.6v3.42C213 905 213 905 212 906c-2.5.13-2.5.13-5 0-1.78-1.78-1.36-4.41-1.53-6.83l-.28-3.86a37403.43 37403.43 0 0 1-.62-8.82c-.3-4.17-.6-8.33-.88-12.5l-.96-13.45a33958.7 33958.7 0 0 1-3.38-47.85l-.22-3.09a1956391.02 1956391.02 0 0 0-8.08-114.3 127266.9 127266.9 0 0 1-4.53-64.11l-.22-3.08a43998.96 43998.96 0 0 0-3.36-47.54 9450.57 9450.57 0 0 0-1.8-25.55l-.31-4.4c-.7-9.56-.95-19.03-.83-28.62-5.4 4-10.68 8.12-15.88 12.38l-4.24 3.46-2.04 1.66A848.95 848.95 0 0 1 151 545c-3.58 2.85-7.13 5.73-10.68 8.62-5.71 4.66-11.44 9.29-17.26 13.82a899.6 899.6 0 0 0-19.74 16 1994.25 1994.25 0 0 1-27.65 22.42c-2.8 2.24-5.57 4.5-8.35 6.76-5.71 4.66-11.44 9.29-17.26 13.82a896.7 896.7 0 0 0-19.72 15.98 1908.9 1908.9 0 0 1-13.09 10.7l-1.99 1.62-3.63 2.94a220.3 220.3 0 0 0-4.4 3.7C5 663 5 663 2.18 662.75L0 662c.36-5.8 2-8.92 5.88-13.06l3.02-3.41 1.56-1.76c2.46-2.83 4.75-5.8 7.04-8.77a428.58 428.58 0 0 1 12.59-15.4c3.31-3.88 6.53-7.83 9.7-11.83a1333.95 1333.95 0 0 1 10.08-12.46l8.47-10.4c5.15-6.32 10.27-12.66 15.28-19.1a441.8 441.8 0 0 1 12.47-15.2c3.31-3.89 6.53-7.84 9.7-11.84 2.78-3.48 5.59-6.94 8.4-10.4l1.68-2.06a36897.83 36897.83 0 0 1 21.45-26.38c5.62-6.9 11.18-13.82 16.64-20.84 3.65-4.66 7.46-9.17 11.31-13.66A126.9 126.9 0 0 0 164 454c-1.67-3.83-4.16-6.94-6.75-10.19L155.8 442c-5.11-6.44-10.35-12.76-15.59-19.1-3.07-3.71-6.09-7.46-9.09-11.24-2.85-3.57-5.74-7.1-8.62-10.65-4.14-5.1-8.26-10.2-12.36-15.33-2.8-3.49-5.63-6.95-8.45-10.42a886.47 886.47 0 0 1-12.31-15.44 420.7 420.7 0 0 0-12.26-14.92 383.56 383.56 0 0 1-10.78-13.38c-3.7-4.74-7.5-9.38-11.34-14.01-4.7-5.67-9.3-11.39-13.82-17.2-4.22-5.4-8.6-10.69-12.98-15.97A585.27 585.27 0 0 1 16 269.04a165.86 165.86 0 0 0-7.09-8.55l-1.54-1.74c-.96-1.09-1.94-2.16-2.93-3.23C1.15 251.82.3 248.9 0 244c2.13-.8 2.13-.8 5-1 2.23 1.5 4 2.93 5.94 4.75a1143.9 1143.9 0 0 0 5.26 4.68c2.84 2.48 5.82 4.77 8.8 7.07 4.6 3.57 9.08 7.22 13.5 11 4.34 3.71 8.74 7.3 13.25 10.81 5.28 4.1 10.47 8.3 15.63 12.56.7.6 1.42 1.18 2.16 1.8l2.16 1.78c9.08 7.5 18.2 14.94 27.49 22.18a442 442 0 0 1 15.2 12.46c3.88 3.3 7.82 6.52 11.82 9.68 3.61 2.89 7.2 5.8 10.79 8.73 4.32 3.52 8.64 7.03 13 10.5a1929.1 1929.1 0 0 1 15.3 12.35l1.97 1.6 1.9 1.55c1.2.99 2.4 1.99 3.58 3 2.73 2.66 2.73 2.66 6.25 3.5l.17-2.44a309080.6 309080.6 0 0 1 11.5-163.68c1.3-18.47 2.6-36.93 3.88-55.4l4-56.79L201 69.62a15868 15868 0 0 1 2.66-37.9 3515.08 3515.08 0 0 1 1.22-17.3 912.56 912.56 0 0 1 .69-9.73C206 2 206 2 208 0Zm-3 116a448297.98 448297.98 0 0 0-13.89 195.78 47534.47 47534.47 0 0 1-3.64 51.33l-.75 10.6-.22 3.09c-.31 4.46-.53 8.87-.48 13.34C186 394 186 394 185 395c-3.28.45-4.61.28-7.32-1.69L175.3 391c-4-3.8-8.1-7.3-12.44-10.72-3.52-2.8-7-5.63-10.5-8.47l-2.06-1.68-10.4-8.47a1106.37 1106.37 0 0 0-19.1-15.29 441.8 441.8 0 0 1-15.2-12.46 425.25 425.25 0 0 0-11.83-9.7c-3.53-2.81-7.03-5.67-10.53-8.52a885.22 885.22 0 0 0-15.44-12.31A375.9 375.9 0 0 1 54.5 292.5a478.3 478.3 0 0 0-14.06-11.56l-1.77-1.41c-2.77-2.18-5.43-4.13-8.67-5.53 3.03 4.72 6.37 9.05 9.94 13.38l3.49 4.26 1.8 2.19 8.4 10.3 1.63 2a915.7 915.7 0 0 1 11.7 14.78c3.65 4.66 7.46 9.17 11.32 13.66 2.41 2.82 4.68 5.68 6.78 8.74L87 346h2l.75 2.38c.98 2.74.98 2.74 3.25 3.62 2 1 2 1 3.25 3.63L97 358h2l.81 2.25A23.22 23.22 0 0 0 104 367h2l.75 2.38c.98 2.74.98 2.74 3.25 3.62 2 1 2 1 3.25 3.63L114 379h2l.81 2.25A23.22 23.22 0 0 0 121 388h2l.75 2.38c.98 2.74.98 2.74 3.25 3.62 2 1 2 1 3.25 3.63L131 400h2l.69 2.13c1.65 3.61 3.6 5.96 6.31 8.87h2l.73 1.63c1.61 3 3.58 5.6 5.65 8.3l2.33 3.1L153 427l2.16 2.88L157 432h2l.72 1.62c1.64 3.06 3.67 5.68 5.78 8.44 2.24 2.95 4.45 5.86 6.5 8.94h2c-1.44 4.44-3.89 7.5-6.94 10.94a324.66 324.66 0 0 0-11.37 13.81 765.17 765.17 0 0 1-14.36 17.79c-3.98 4.82-7.95 9.66-11.9 14.52l-1.6 1.99A22716.63 22716.63 0 0 0 114.87 526l-8.2 10.07a1105.01 1105.01 0 0 0-15.3 19.12 441.8 441.8 0 0 1-12.47 15.2 430.49 430.49 0 0 0-9.7 11.84c-2.78 3.48-5.59 6.94-8.4 10.4l-1.68 2.06a7690.1 7690.1 0 0 1-8.47 10.4C43.68 613.66 36.79 622.3 30 631c3.47 0 3.9-.45 6.45-2.6l2.04-1.72 2.2-1.87 4.62-3.87 2.37-2c3.48-2.91 6.99-5.77 10.5-8.63a870.67 870.67 0 0 1 14.75-11.75 906.46 906.46 0 0 0 19.77-16c9-7.44 18.04-14.82 27.24-22a906.46 906.46 0 0 0 19.76-16c9.77-8.09 19.6-16.1 29.62-23.86 3.05-2.37 5.93-4.82 8.74-7.45L181 511c2.68.36 2.68.36 5 1l.06 1.7c.61 15.8 1.58 31.55 2.7 47.32a36194.17 36194.17 0 0 1 1.68 23.64l1.65 23.26a104786.93 104786.93 0 0 0 6.24 88.06L205 790h1V116h-1Z"/></svg>
