<svg xmlns="http://www.w3.org/2000/svg" xml:space="preserve" viewBox="0 0 1080 1080"><rect width="100%" height="100%" fill="transparent"/><g clip-path="url(#a)" transform="matrix(2 0 0 2 536 544)"><clipPath id="a"><rect width="512" height="512" x="-256" y="-256" rx="0" ry="0"/></clipPath><circle r="256" style="stroke:none;stroke-width:1;stroke-dasharray:none;stroke-linecap:butt;stroke-dashoffset:0;stroke-linejoin:miter;stroke-miterlimit:4;fill:#ede9e9;fill-rule:nonzero;opacity:1" vector-effect="non-scaling-stroke"/></g><g clip-path="url(#b)" transform="matrix(2 0 0 2 540 541)"><clipPath id="b"><rect width="512" height="512" x="-256" y="-256" rx="0" ry="0"/></clipPath><path d="M379 310c0 68-55 109-122 109-68 0-115-40-124-92h62c7 20 30 34 62 34 35 0 61-18 61-50s-25-48-62-48v45c-68 0-121-39-121-104S186 94 257 94c67 0 114 40 118 90h-60c-5-18-24-32-57-32-39 0-61 19-61 50s25 46 59 46v-47c75 0 123 45 123 109" style="stroke:none;stroke-width:1;stroke-dasharray:none;stroke-linecap:butt;stroke-dashoffset:0;stroke-linejoin:miter;stroke-miterlimit:4;fill:#000;fill-rule:nonzero;opacity:1" transform="translate(-256 -256)" vector-effect="non-scaling-stroke"/></g></svg>