<svg xmlns="http://www.w3.org/2000/svg" width="2362" height="2362" style="shape-rendering:geometricPrecision;text-rendering:geometricPrecision;image-rendering:optimizeQuality;fill-rule:evenodd;clip-rule:evenodd"><path fill="#04173c" d="M1180.5-.5h2c333.04 568.242 665.71 1136.74 998 1705.5a85.613 85.613 0 0 1-9.5 12.5 172309.875 172309.875 0 0 0-570.5 644h-34c-79.67-1.33-159.33-1.33-239 0h-214c206.76-232.49 413.76-464.82 621-697-255.03-436.54-509.87-873.204-764.5-1310-.552-2.919.115-5.586 2-8 69.75-115.57 139.25-231.237 208.5-347Z" style="opacity:.998"/><path fill="#04173c" d="M965.5 2361.5h-217a504910.281 504910.281 0 0 0-564.5-645 31.01 31.01 0 0 1-3.5-6A470786.506 470786.506 0 0 1 903 482.5a86084.386 86084.386 0 0 1 211.5 338 519785.16 519785.16 0 0 1-491 835 146846.683 146846.683 0 0 0 306 340.5c116 .17 232 .67 348 1.5a79364.228 79364.228 0 0 0-312 364Z" style="opacity:.998"/></svg>
