<svg xmlns="http://www.w3.org/2000/svg" width="2362" height="2362" style="shape-rendering:geometricPrecision;text-rendering:geometricPrecision;image-rendering:optimizeQuality;fill-rule:evenodd;clip-rule:evenodd"><path fill="#04173c" d="M1180.5-.5h2c333.04 568.242 665.71 1136.74 998 1705.5a85.6 85.6 0 0 1-9.5 12.5 172310 172310 0 0 0-570.5 644h-34c-79.67-1.33-159.33-1.33-239 0h-214c206.76-232.49 413.76-464.82 621-697-255.03-436.54-509.87-873.204-764.5-1310q-.828-4.379 2-8 104.625-173.355 208.5-347" style="opacity:.998"/><path fill="#04173c" d="M965.5 2361.5h-217a504910 504910 0 0 0-564.5-645 31 31 0 0 1-3.5-6A470787 470787 0 0 1 903 482.5a86084 86084 0 0 1 211.5 338 519785 519785 0 0 1-491 835 146847 146847 0 0 0 306 340.5q174 .255 348 1.5a79364 79364 0 0 0-312 364" style="opacity:.998"/></svg>