<svg xmlns="http://www.w3.org/2000/svg" xml:space="preserve" id="CIRCLE_OUTLINE_BLACK" x="0" y="0" version="1.1" viewBox="0 0 512 512"><style>.st1{fill:#fff}</style><path d="M512 256c0 141.4-114.6 256-256 256S0 397.4 0 256 114.6 0 256 0s256 114.6 256 256" style="fill:#ffd15c"/><path d="M193.5 152.3c-10.4 1.5-4.6 10.4-4.6 10.4l-.3 2.5c14.9 25.7 39.5 52.7 64.6 70.7 18.5 13.2 32.3 32.7 39 54.9 6.6 21.9 5.4 44.6-3.2 62.2-10.4 21.2-30.1 33.5-55.3 34.7-25.1 1.2-54.9-8.7-88.6-29.4-.3.8-.7 1.6-1.1 2.3 29.2 30.1 63 48.1 98.1 52.2 35.5 4.2 71.9-5.8 102.7-27.9-.8 0-1.4-.2-1.9-.5 103.6-85.6-66-244-149.4-232.1" class="st1"/><path d="M462.6 267.4c-.1-1.9-.2-4.2-.6-6.9-1.3-10.5-5.5-26.6-17.7-43.7l-1.8-2.4c-.1-.2-.3-.4-.4-.6-.5-.7-1.1-1.4-1.6-2.1l-.1-.1c-.6-.7-1.2-1.5-1.8-2.2-.1-.2-.3-.3-.4-.5-.5-.6-1.1-1.3-1.6-1.9l-.2-.2c-.6-.7-1.2-1.3-1.8-2l-.4-.4c-.5-.6-1-1.1-1.5-1.6-.1-.1-.2-.2-.2-.3l-1.7-1.7-.4-.4c-.5-.5-1-1-1.5-1.4l-.3-.3c-.6-.5-1.1-1-1.7-1.5l-.3-.3c-.5-.4-1-.8-1.4-1.2l-.3-.3c-.5-.5-1.1-.9-1.6-1.3l-.3-.3c-.4-.4-.9-.7-1.3-1.1-.1-.1-.3-.2-.4-.3-.5-.4-1-.8-1.5-1.1-.1-.1-.2-.2-.3-.2l-1.2-.9c-.1-.1-.3-.2-.4-.3-.5-.3-.9-.6-1.4-1-.1-.1-.2-.2-.4-.2-.4-.2-.7-.5-1-.7-.2-.1-.3-.2-.5-.3-.4-.2-.8-.5-1.1-.7-.2-.1-.4-.2-.5-.3-.3-.2-.5-.3-.8-.5l-.6-.3c-.2-.1-.5-.3-.7-.4-.3-.2-.6-.4-1-.5-.2-.1-.3-.2-.5-.3s-.4-.2-.7-.3c-.1-.1-.2-.1-.3-.2-.4-.2-.9-.5-1.3-.7h-.1c-2.7-4.8-5.7-9.6-8.9-14.4-37.3-54.6-78.2-81.1-124.9-81.2h-.2c-19.8 0-37.9 4.5-53 8.9-4.3 1.3-8.8 2.6-13.1 4-11 3.4-21.4 6.7-30.3 8.1-5.6.9-10 3-13.1 6.2-2.8 3-4.5 7.1-5 12.1-1 9.7 2.5 22.8 10.1 37.8 15.3 30.4 44.6 63.9 74.6 85.4 3.5 2.5 6.7 5.2 9.7 8.2-.6.1-1.2.2-1.9.3-23.5 3.4-35.8 28.6-40.7 42.3-1.3 3.6 2.2 6.8 5.8 5.5 14.6-4.9 44.3-12.9 61-2.6.1 0 .3-.1.4-.1 3 15 1.6 29.8-4.1 41.3-7.5 15.1-21.8 24-40.3 24.9-21.8 1.1-48.6-8.2-79.7-27.6l-.5-.3c-.3-.1-.6-.3-.8-.5 24.2-27.5 9.9-69.9 4.3-83.8-.7-1.8-3.3-1.8-4.3-.1-13 22.1-39.8 20.4-39.3 46.7v-.1c-20.4-16.6-35.6 5.5-61 2.2-2-.3-3.5 1.7-2.5 3.4 7.7 13.3 33.5 52.3 71.6 47.9l-1.8 1.3 6.8 7.5c33.3 36.7 72.9 58.7 114.6 63.6 6 .7 12 1.1 18 1.1 34.9 0 69.6-11.7 99.4-33.9 34.2-25.4 57.9-61.3 66.8-101 3-13.2 4.2-26.4 3.7-39.5 7.5-3 15.7.3 22.2 4.7.1 0 .1.1.2.1.3.2.5.4.8.5.1 0 .1.1.2.1.8.5 1.5 1.1 2.2 1.6.1.1.3.2.4.3.2.1.3.3.5.4s.3.3.5.4c.1.1.3.2.4.4.3.2.6.5.8.7.1.1.2.2.3.2.2.2.4.4.6.5l.3.3c.2.2.4.3.6.5.1.1.2.1.2.2l.7.7c.1.1.2.1.2.2.5.4 1.1.5 1.6.5.6.1 1.6-.8 1.5-2M342.9 384.5c.5.3 1.1.4 1.9.5-30.8 22.2-67.2 32.1-102.7 27.9-35.2-4.1-68.9-22.1-98.1-52.2.4-.8.8-1.5 1.1-2.3 33.7 20.7 63.5 30.6 88.6 29.4 25.2-1.2 44.9-13.6 55.3-34.7 8.7-17.6 9.8-40.2 3.2-62.2-6.7-22.2-20.5-41.7-39-54.9-25.2-18-49.7-45-64.6-70.7l.3-2.5s-5.8-8.9 4.6-10.4c83.4-12 253 146.4 149.4 232.1"/><path d="M280.3 146.5c-2.9-4.1-8.7-15.1 9.3-15.1s45.4 20.3 51 27.8c-1.7 4.6-13.3 5.6-19.1 5.2s-15.6-1.4-23.2-5.2c-7.5-3.6-15.1-8.6-18-12.7" class="st1"/></svg>