<svg xmlns="http://www.w3.org/2000/svg" width="353" height="354" fill="none" viewBox="0 0 353 354"><g clip-path="url(#a)"><path fill="#00F58C" d="M23.486 0c-3.084-.564-6.138.042-8.987 1.222A23.48 23.48 0 0 0 0 22.917v330.25h292.268a37.3 37.3 0 0 0 26.389-10.922l23.681-23.671a37.3 37.3 0 0 0 10.921-26.366V0z"/><path fill="#000" d="M57.255 45.407h173.379L115.759 160.26a15.21 15.21 0 0 1-24.495-4.25L46.759 61.935a11.573 11.573 0 0 1 10.496-16.528M45.417 307.741V196.005a10.795 10.795 0 0 1 10.796-10.792h111.773zm151.06-151.01a27.26 27.26 0 0 1-19.269 7.977h-37L251.555 53.384a27.27 27.27 0 0 1 19.269-7.977h37z"/></g><defs><clipPath id="a"><path fill="#fff" d="M0 0h353.241v500H0z"/></clipPath></defs></svg>