<svg xmlns="http://www.w3.org/2000/svg" viewBox="0 0 115.9 149.5"><path d="M.9 149.5h3.3q1 0 1.4-.8c24.9-63.4 52-94.8 69-113.6q1-1.3-.6-1.4H43.6q-1.6 0-2.8 1.4L19 62.1c-3.2 4-4 7.7-4 13v27.6a618 618 0 0 0-15 45.6q-.1 1.2.9 1.2M110.6 4c-4.7-5-26-5.2-35.7-1.4-2 .8-4 2.2-5 3-9 7.6-15 13.7-20.6 19.7q-1 1.2.6 1.4h33.7q4.7.1 4.9 5v38c0 1 .8 1.2 1.4.3l20.3-26.5c3.3-4.3 4.3-5.6 5.2-11.6 1.2-8.8.5-22.3-4.8-27.9M67 104.8 81 82q.4-1 .4-1.8V42q-.2-1.6-1.4-.6a352 352 0 0 0-52.3 77.3q-.6 1.4 1 1.1l31.2-9.6c3.5-1 5.5-2.5 7.2-5.3" style="fill:#cf0;stroke-width:0"/></svg>
