<svg xmlns="http://www.w3.org/2000/svg" xml:space="preserve" viewBox="1 1 1000 1000"><path d="M681 1001H1V1h1000v1000zM575.123 323.164c-20.894-6.834-42.282-11.402-64.415-13.548 0-7.423.196-14.416-.08-21.39-.146-3.7.965-5.914 4.115-8.14 20.233-14.293 27.59-41.72 17.497-64.053-10.615-23.491-35.39-36.225-59.92-30.324-21.6 5.196-35.473 19.004-40.048 40.572-4.72 22.251 3 40.575 21.186 54.382 1.267.962 3.308 2.153 3.346 3.292.283 8.578.154 17.17.154 24.971-13.624 2.476-26.522 4.203-39.112 7.215-56.14 13.427-103.89 41.13-141.845 84.953-21.283 24.574-36.8 52.429-46.502 83.51-.46 1.475-2.158 3.32-3.572 3.622-11.182 2.39-15.922 7.973-15.925 19.418-.009 34.329-.005 68.658-.002 102.986 0 13.793 6.231 20.098 20.163 20 3.284-.024 4.884.812 6.195 4.058 11.224 27.778 27.208 52.615 48.036 74.102 50.41 52.002 112.47 78.806 184.325 82.916 51.053 2.92 99.724-7.14 145.182-30.938 53.124-27.81 92.86-68.445 116.523-123.965 2.033-4.768 4.214-6.393 9.345-6.24 10.802.322 17.876-6.851 17.905-17.68.079-29.661-.004-59.324.72-89.392 5.428-.8 10.887-1.436 16.281-2.424 109.707-20.095 171.017-142.387 120.568-242.108-28.605-56.544-75.68-88.387-138.814-93.877-55.95-4.865-103.082 15.138-140.725 56.753-20.996 23.212-33.638 50.765-40.58 81.33z"/><path fill="#C075FE" d="M757.652 523.897c.018 29.662.1 59.325.022 88.987-.03 10.828-7.103 18.001-17.905 17.679-5.13-.153-7.312 1.472-9.345 6.24-23.664 55.52-63.399 96.156-116.523 123.965-45.458 23.797-94.129 33.859-145.182 30.938-71.855-4.11-133.916-30.914-184.325-82.916-20.828-21.487-36.812-46.324-48.036-74.102-1.311-3.246-2.911-4.082-6.195-4.059-13.932.1-20.162-6.206-20.163-19.999-.003-34.328-.007-68.657.002-102.986.003-11.445 4.743-17.028 15.925-19.418 1.414-.302 3.111-2.147 3.572-3.623 9.702-31.08 25.219-58.935 46.502-83.509 37.956-43.823 85.705-71.526 141.845-84.953 12.59-3.012 25.488-4.739 39.112-7.215 0-7.802.129-16.393-.154-24.971-.038-1.14-2.079-2.33-3.346-3.292-18.186-13.807-25.906-32.13-21.186-54.382 4.575-21.568 18.447-35.376 40.047-40.572 24.53-5.9 49.306 6.833 59.921 30.324 10.092 22.334 2.736 49.76-17.497 64.053-3.15 2.226-4.261 4.44-4.115 8.14.276 6.974.08 13.967.08 21.39 22.133 2.146 43.521 6.714 64.837 13.956-.525 7.961-2.029 15.493-2.32 23.07-1.16 30.09 5.11 58.622 18.844 85.481.846 1.656 1.093 3.619 1.227 5.417-21.084-7.214-42.437-11.375-64.184-13.453-32.93-3.147-65.87-3.075-98.73.959-27.55 3.382-54.291 9.707-79.074 22.818-30.537 16.156-51.288 40.162-59.872 74.05-4.688 18.51-4.194 37.38-3.257 56.15 2.088 41.864 20.941 73.454 58.578 93.19 27.928 14.647 58.138 20.672 89.09 23.624 34.746 3.314 69.529 3.162 104.228-.896 28.074-3.282 55.404-9.365 80.687-22.654 27.567-14.491 46.647-35.978 54.661-66.522 4.702-17.917 4.95-36.207 4.627-54.777 10.865-7.265 19.858-15.952 27.458-26.146.889-1.191 2.93-2.564 4.131-2.324 15.24 3.042 30.624 2.632 46.013 2.338"/><path fill="#FEFEFE" d="M593.687 437.562c-.525-1.82-.772-3.783-1.618-5.439-13.735-26.86-20.003-55.392-18.845-85.48.292-7.578 1.796-15.11 2.71-23.055 6.132-30.988 18.774-58.541 39.77-81.753 37.643-41.615 84.774-61.618 140.725-56.753 63.133 5.49 110.209 37.333 138.814 93.877 50.449 99.721-10.86 222.013-120.568 242.108-5.394.988-10.853 1.624-16.652 2.627-15.76.497-31.144.907-46.384-2.135-1.201-.24-3.242 1.133-4.13 2.324-7.6 10.194-16.594 18.881-27.749 26.288-10.136 6.195-20.231 10.699-31.254 13.06-3.594.77-6.835.075-7.874-3.244-.676-2.16.079-5.745 1.59-7.457 11.364-12.863 16.65-28.123 18.844-44.791.48-3.64-.608-5.803-3.88-7.645-13.12-7.383-25.41-16.121-35.288-27.463-9.575-10.995-17.965-23.022-26.997-34.875-.458-.259-.794-.237-1.154-.221-.024-.005-.06.027-.06.027m80.838-60.383c10.199-3.892 15.888-11.396 16.37-22.175.463-10.372-4.284-18.384-13.684-22.94-9.54-4.624-18.738-3.37-26.936 3.439-8.403 6.977-10.856 19.567-5.942 29.454 5.383 10.831 16.488 15.546 30.192 12.222m165.818-35.91c-6.543-9.552-15.993-13.536-26.607-11.217-9.314 2.034-17.11 10.357-18.631 19.891-1.625 10.19 3.107 20.205 12 25.391 9.152 5.338 20.851 4.105 28.68-3.022 8.749-7.964 10.538-18.867 4.558-31.043m-114.513-4.95c-.764.873-1.593 1.698-2.284 2.626-5.993 8.04-7.041 16.713-2.724 25.755 4.344 9.098 11.99 13.768 21.88 13.892 9.948.125 17.532-4.667 22.131-13.535 5.392-10.396 2.408-23.069-6.862-30.489-8.988-7.195-21.46-6.703-32.14 1.752z"/><path fill="#010001" d="M595.023 438.036c8.91 11.573 17.3 23.6 26.875 34.595 9.878 11.342 22.168 20.08 35.288 27.463 3.272 1.842 4.36 4.004 3.88 7.645-2.195 16.668-7.48 31.928-18.843 44.79-1.512 1.713-2.267 5.298-1.591 7.458 1.039 3.319 4.28 4.015 7.874 3.245 11.023-2.362 21.118-6.866 30.973-12.84.893 18.207.646 36.497-4.056 54.414-8.014 30.544-27.094 52.03-54.661 66.522-25.283 13.29-52.613 19.372-80.687 22.654-34.7 4.058-69.482 4.21-104.229.896-30.95-2.952-61.16-8.977-89.09-23.623-37.636-19.737-56.489-51.327-58.577-93.19-.937-18.771-1.43-37.641 3.257-56.151 8.584-33.888 29.335-57.894 59.872-74.05 24.783-13.11 51.523-19.436 79.075-22.818 32.859-4.034 65.8-4.106 98.73-.959 21.746 2.078 43.099 6.239 64.183 13.453.391.022.427-.01.592.196s.643.328.643.328zM355.848 519.38c-4.662 15.028-5.76 30.376-3.56 45.893 2.18 15.37 6.862 29.837 17.643 41.567 12.353 13.44 28.85 13.698 41.61.706 2.428-2.473 4.673-5.23 6.506-8.166 11.304-18.11 14.215-38.11 12.464-58.95-1.284-15.279-5.316-29.763-14.567-42.364-14.048-19.137-34.812-19.629-48.954-.557-4.659 6.283-7.353 14.024-11.142 21.871m259.328 46.248c.258-8.296 1.211-16.642.626-24.879-1.16-16.325-5.571-31.754-16.18-44.734-13.764-16.839-33.024-16.734-46.536.36-13.04 16.498-16.643 35.925-16.308 56.304.307 18.657 4.325 36.364 16.138 51.383 13.86 17.62 33.87 17.277 47.53-.444 8.462-10.979 12.59-23.626 14.73-37.99"/><path fill="#020202" d="M674.153 377.32c-13.332 3.183-24.437-1.532-29.82-12.363-4.914-9.887-2.46-22.477 5.942-29.454 8.198-6.808 17.396-8.063 26.936-3.44 9.4 4.557 14.147 12.57 13.683 22.941-.481 10.779-6.17 18.283-16.741 22.316m166.409-35.747c5.761 11.872 3.972 22.775-4.777 30.739-7.829 7.127-19.528 8.36-28.68 3.022-8.893-5.186-13.625-15.2-12-25.391 1.52-9.534 9.317-17.857 18.63-19.891 10.615-2.319 20.064 1.665 26.827 11.521m-114.475-5.505c10.425-8.203 22.896-8.695 31.884-1.5 9.27 7.42 12.254 20.093 6.862 30.489-4.6 8.868-12.183 13.66-22.132 13.535-9.889-.124-17.535-4.794-21.879-13.892-4.317-9.042-3.27-17.714 2.724-25.755.691-.928 1.52-1.753 2.54-2.877z"/><path fill="#C075FE" d="M594.901 437.756c.122.28-.37.308-.37.308s-.479-.121-.62-.323c.196-.222.532-.244.99.015"/><path fill="#C074FE" d="M355.946 518.994c3.691-7.461 6.385-15.202 11.044-21.485 14.142-19.072 34.906-18.58 48.954.557 9.25 12.601 13.283 27.085 14.567 42.365 1.751 20.84-1.16 40.838-12.464 58.95-1.833 2.935-4.078 5.692-6.507 8.165-12.759 12.992-29.256 12.734-41.609-.706-10.78-11.73-15.462-26.196-17.642-41.567-2.201-15.517-1.103-30.865 3.657-46.28zm259.197 47.076c-2.107 13.922-6.235 26.57-14.698 37.548-13.66 17.721-33.67 18.064-47.53.444-11.812-15.02-15.83-32.726-16.137-51.383-.335-20.379 3.268-39.806 16.308-56.303 13.512-17.095 32.772-17.2 46.536-.361 10.609 12.98 15.02 28.409 16.18 44.734.585 8.237-.368 16.583-.66 25.32z"/></svg>