<svg version="1.1" id="Layer_1" xmlns="http://www.w3.org/2000/svg" xmlns:xlink="http://www.w3.org/1999/xlink" x="0px" y="0px"
	 width="100%" viewBox="0 0 1000 1000" enable-background="new 0 0 1000 1000" xml:space="preserve">
<path fill="#000000" opacity="1.000000" stroke="none" 
	d="
M681.000000,1001.000000 
	C454.000000,1001.000000 227.500000,1001.000000 1.000000,1001.000000 
	C1.000000,667.666687 1.000000,334.333344 1.000000,1.000000 
	C334.333344,1.000000 667.666687,1.000000 1001.000000,1.000000 
	C1001.000000,334.333344 1001.000000,667.666687 1001.000000,1001.000000 
	C894.500000,1001.000000 788.000000,1001.000000 681.000000,1001.000000 
M575.123413,323.164215 
	C554.229492,316.330444 532.841125,311.761932 510.707733,309.615601 
	C510.707733,302.192596 510.904266,295.200012 510.628082,288.226105 
	C510.481537,284.525299 511.592560,282.311554 514.743103,280.085907 
	C534.975708,265.792725 542.332153,238.366730 532.240112,216.033310 
	C521.624878,192.541885 496.849792,179.808395 472.319427,185.709000 
	C450.719086,190.904800 436.846710,204.713013 432.271820,226.281219 
	C427.552063,248.532364 435.271912,266.856110 453.457550,280.662750 
	C454.725464,281.625336 456.766022,282.815948 456.803619,283.954773 
	C457.086975,292.532684 456.958160,301.124146 456.958160,308.926086 
	C443.334351,311.402039 430.436340,313.129120 417.845520,316.140594 
	C361.705627,329.568085 313.956604,357.271332 276.000977,401.094269 
	C254.717621,425.667694 239.201294,453.522797 229.498917,484.603302 
	C229.038345,486.078644 227.341064,487.923584 225.926804,488.225830 
	C214.745483,490.615509 210.004532,496.198578 210.001694,507.644104 
	C209.993195,541.972839 209.996857,576.301575 209.999512,610.630310 
	C210.000565,624.423401 216.231140,630.728210 230.162766,630.629395 
	C233.446701,630.606140 235.046844,631.441528 236.358414,634.687622 
	C247.582291,662.466064 263.565887,687.303162 284.394348,708.789856 
	C334.803375,760.791992 396.864380,787.595947 468.719421,791.706360 
	C519.772278,794.626709 568.442810,784.565247 613.901062,760.768433 
	C667.025024,732.958740 706.760071,692.322876 730.424255,636.803162 
	C732.456604,632.034973 734.638184,630.410034 739.768860,630.563049 
	C750.570862,630.885315 757.644592,623.711670 757.673523,612.883789 
	C757.752625,583.221741 757.670227,553.559204 758.393616,523.490967 
	C763.822327,522.690979 769.281067,522.054871 774.675293,521.066772 
	C884.382385,500.971741 945.692017,378.680176 895.243164,278.959167 
	C866.637634,222.415161 819.562073,190.571854 756.429382,185.082352 
	C700.478149,180.217316 653.347351,200.220139 615.704163,241.834930 
	C594.707520,265.046844 582.065552,292.599792 575.123413,323.164215 
z"/>
<path fill="#C075FE" opacity="1.000000" stroke="none" 
	d="
M757.651794,523.896912 
	C757.670227,553.559204 757.752625,583.221741 757.673523,612.883789 
	C757.644592,623.711670 750.570862,630.885315 739.768860,630.563049 
	C734.638184,630.410034 732.456604,632.034973 730.424255,636.803162 
	C706.760071,692.322876 667.025024,732.958740 613.901062,760.768433 
	C568.442810,784.565247 519.772278,794.626709 468.719421,791.706360 
	C396.864380,787.595947 334.803375,760.791992 284.394348,708.789856 
	C263.565887,687.303162 247.582291,662.466064 236.358414,634.687622 
	C235.046844,631.441528 233.446701,630.606140 230.162766,630.629395 
	C216.231140,630.728210 210.000565,624.423401 209.999512,610.630310 
	C209.996857,576.301575 209.993195,541.972839 210.001694,507.644104 
	C210.004532,496.198578 214.745483,490.615509 225.926804,488.225830 
	C227.341064,487.923584 229.038345,486.078644 229.498917,484.603302 
	C239.201294,453.522797 254.717621,425.667694 276.000977,401.094269 
	C313.956604,357.271332 361.705627,329.568085 417.845520,316.140594 
	C430.436340,313.129120 443.334351,311.402039 456.958160,308.926086 
	C456.958160,301.124146 457.086975,292.532684 456.803619,283.954773 
	C456.766022,282.815948 454.725464,281.625336 453.457550,280.662750 
	C435.271912,266.856110 427.552063,248.532364 432.271820,226.281219 
	C436.846710,204.713013 450.719086,190.904800 472.319427,185.709000 
	C496.849792,179.808395 521.624878,192.541885 532.240112,216.033310 
	C542.332153,238.366730 534.975708,265.792725 514.743103,280.085907 
	C511.592560,282.311554 510.481537,284.525299 510.628082,288.226105 
	C510.904266,295.200012 510.707733,302.192596 510.707733,309.615601 
	C532.841125,311.761932 554.229492,316.330444 575.545166,323.572266 
	C575.020081,331.533173 573.516174,339.064545 573.224426,346.642639 
	C572.065735,376.731171 578.334167,405.263641 592.068604,432.123108 
	C592.915344,433.778992 593.161621,435.741852 593.295532,437.540283 
	C572.211975,430.325989 550.859375,426.165466 529.112488,424.087311 
	C496.182495,420.940430 463.241730,421.012482 430.382751,425.045807 
	C402.831451,428.427612 376.090851,434.753204 351.308472,447.864288 
	C320.771454,464.019867 300.019684,488.025909 291.436432,521.913940 
	C286.748199,540.423767 287.241974,559.293640 288.178558,578.064636 
	C290.267303,619.927856 309.120392,651.517883 346.756531,671.254761 
	C374.685364,685.901001 404.895325,691.926086 435.846375,694.877930 
	C470.592896,698.191833 505.375732,698.039673 540.075439,693.982239 
	C568.149353,690.699585 595.479126,684.617249 620.761658,671.327576 
	C648.329407,656.836853 667.408997,635.349670 675.423462,604.806335 
	C680.124939,586.889099 680.372314,568.599304 680.049927,550.028870 
	C690.914673,542.763977 699.908386,534.077148 707.508301,523.883484 
	C708.396606,522.691895 710.437622,521.319397 711.639160,521.559204 
	C726.878723,524.600769 742.263123,524.190979 757.651794,523.896912 
z"/>
<path fill="#FEFEFE" opacity="1.000000" stroke="none" 
	d="
M593.687256,437.561890 
	C593.161621,435.741852 592.915344,433.778992 592.068604,432.123108 
	C578.334167,405.263641 572.065735,376.731171 573.224426,346.642639 
	C573.516174,339.064545 575.020081,331.533173 575.934448,323.588257 
	C582.065552,292.599792 594.707520,265.046844 615.704163,241.834930 
	C653.347351,200.220139 700.478149,180.217316 756.429382,185.082352 
	C819.562073,190.571854 866.637634,222.415161 895.243164,278.959167 
	C945.692017,378.680176 884.382385,500.971741 774.675293,521.066772 
	C769.281067,522.054871 763.822327,522.690979 758.022705,523.693970 
	C742.263123,524.190979 726.878723,524.600769 711.639160,521.559204 
	C710.437622,521.319397 708.396606,522.691895 707.508301,523.883484 
	C699.908386,534.077148 690.914673,542.763977 679.760254,550.170654 
	C669.623779,556.365723 659.528931,560.869934 648.505554,563.231873 
	C644.911865,564.001770 641.670532,563.305725 640.631958,559.986816 
	C639.956055,557.826721 640.710754,554.241516 642.222717,552.529907 
	C653.586060,539.666809 658.871155,524.406982 661.066467,507.738525 
	C661.545898,504.098206 660.457825,501.935699 657.185913,500.094421 
	C644.066345,492.711426 631.775757,483.972565 621.897644,472.630524 
	C612.322510,461.636383 603.933411,449.609253 594.901123,437.755737 
	C594.442749,437.497162 594.106567,437.518585 593.746887,437.535034 
	C593.723328,437.530029 593.687256,437.561890 593.687256,437.561890 
M674.525024,377.178925 
	C684.723511,373.286652 690.412781,365.782867 690.894348,355.004181 
	C691.357849,344.632202 686.610535,336.619720 677.211304,332.063721 
	C667.671387,327.439575 658.473328,328.694794 650.275330,335.502563 
	C641.872498,342.480408 639.418518,355.069824 644.332581,364.956879 
	C649.716064,375.788361 660.820862,380.503418 674.525024,377.178925 
M840.342957,341.268860 
	C833.799500,331.717224 824.350098,327.733490 813.735596,330.051636 
	C804.421631,332.085754 796.625488,340.409485 795.104919,349.942993 
	C793.479553,360.133667 798.212280,370.148254 807.104736,375.334351 
	C816.256653,380.671844 827.956116,379.438904 835.785095,372.311951 
	C844.533936,364.347687 846.323486,353.445312 840.342957,341.268860 
M725.830383,336.319580 
	C725.065613,337.192169 724.237244,338.017426 723.546021,338.944794 
	C717.552673,346.985657 716.504883,355.658234 720.822021,364.700317 
	C725.165771,373.798187 732.812012,378.467926 742.701355,378.592316 
	C752.649780,378.717499 760.233887,373.924561 764.833252,365.056885 
	C770.225098,354.660980 767.240967,341.988434 757.971497,334.568268 
	C748.983154,327.373108 736.511719,327.864990 725.830383,336.319580 
z"/>
<path fill="#010001" opacity="1.000000" stroke="none" 
	d="
M595.023438,438.035767 
	C603.933411,449.609253 612.322510,461.636383 621.897644,472.630524 
	C631.775757,483.972565 644.066345,492.711426 657.185913,500.094421 
	C660.457825,501.935699 661.545898,504.098206 661.066467,507.738525 
	C658.871155,524.406982 653.586060,539.666809 642.222717,552.529907 
	C640.710754,554.241516 639.956055,557.826721 640.631958,559.986816 
	C641.670532,563.305725 644.911865,564.001770 648.505554,563.231873 
	C659.528931,560.869934 669.623779,556.365723 679.479126,550.392090 
	C680.372314,568.599304 680.124939,586.889099 675.423462,604.806335 
	C667.408997,635.349670 648.329407,656.836853 620.761658,671.327576 
	C595.479126,684.617249 568.149353,690.699585 540.075439,693.982239 
	C505.375732,698.039673 470.592896,698.191833 435.846375,694.877930 
	C404.895325,691.926086 374.685364,685.901001 346.756531,671.254761 
	C309.120392,651.517883 290.267303,619.927856 288.178558,578.064636 
	C287.241974,559.293640 286.748199,540.423767 291.436432,521.913940 
	C300.019684,488.025909 320.771454,464.019867 351.308472,447.864288 
	C376.090851,434.753204 402.831451,428.427612 430.382751,425.045807 
	C463.241730,421.012482 496.182495,420.940430 529.112488,424.087311 
	C550.859375,426.165466 572.211975,430.325989 593.295532,437.540283 
	C593.687256,437.561890 593.723328,437.530029 593.887756,437.736450 
	C594.052185,437.942871 594.530640,438.064362 594.530640,438.064362 
	C594.530640,438.064362 595.023438,438.035767 595.023438,438.035767 
M355.847656,519.380310 
	C351.185730,534.408203 350.088043,549.756165 352.288635,565.272766 
	C354.468597,580.643738 359.150452,595.110291 369.931335,606.839844 
	C382.284119,620.279602 398.781219,620.537598 411.540131,607.545898 
	C413.968567,605.073181 416.214050,602.316223 418.046783,599.380066 
	C429.351471,581.269470 432.262177,561.270813 430.510956,540.430847 
	C429.226929,525.151184 425.194824,510.667114 415.944366,498.066101 
	C401.896149,478.929382 381.131714,478.436981 366.990265,497.509003 
	C362.331329,503.792297 359.637421,511.532654 355.847656,519.380310 
M615.176392,565.628296 
	C615.433899,557.331787 616.387207,548.985840 615.801758,540.749207 
	C614.641174,524.423645 610.231018,508.995148 599.621582,496.014893 
	C585.858276,479.175964 566.598267,479.281036 553.085938,496.375702 
	C540.045532,512.873291 536.443298,532.300476 536.778198,552.679443 
	C537.084778,571.336487 541.102600,589.042603 552.915771,604.061584 
	C566.775146,621.682068 586.785767,621.338989 600.445312,603.618469 
	C608.908386,592.639343 613.035522,579.991577 615.176392,565.628296 
z"/>
<path fill="#020202" opacity="1.000000" stroke="none" 
	d="
M674.152893,377.319763 
	C660.820862,380.503418 649.716064,375.788361 644.332581,364.956879 
	C639.418518,355.069824 641.872498,342.480408 650.275330,335.502563 
	C658.473328,328.694794 667.671387,327.439575 677.211304,332.063721 
	C686.610535,336.619720 691.357849,344.632202 690.894348,355.004181 
	C690.412781,365.782867 684.723511,373.286652 674.152893,377.319763 
z"/>
<path fill="#020202" opacity="1.000000" stroke="none" 
	d="
M840.561768,341.573090 
	C846.323486,353.445312 844.533936,364.347687 835.785095,372.311951 
	C827.956116,379.438904 816.256653,380.671844 807.104736,375.334351 
	C798.212280,370.148254 793.479553,360.133667 795.104919,349.942993 
	C796.625488,340.409485 804.421631,332.085754 813.735596,330.051636 
	C824.350098,327.733490 833.799500,331.717224 840.561768,341.573090 
z"/>
<path fill="#020202" opacity="1.000000" stroke="none" 
	d="
M726.086792,336.067627 
	C736.511719,327.864990 748.983154,327.373108 757.971497,334.568268 
	C767.240967,341.988434 770.225098,354.660980 764.833252,365.056885 
	C760.233887,373.924561 752.649780,378.717499 742.701355,378.592316 
	C732.812012,378.467926 725.165771,373.798187 720.822021,364.700317 
	C716.504883,355.658234 717.552673,346.985657 723.546021,338.944794 
	C724.237244,338.017426 725.065613,337.192169 726.086792,336.067627 
z"/>
<path fill="#C075FE" opacity="1.000000" stroke="none" 
	d="
M594.901123,437.755737 
	C595.023438,438.035767 594.530640,438.064362 594.530640,438.064362 
	C594.530640,438.064362 594.052185,437.942871 593.911316,437.741455 
	C594.106567,437.518585 594.442749,437.497162 594.901123,437.755737 
z"/>
<path fill="#C074FE" opacity="1.000000" stroke="none" 
	d="
M355.946320,518.993530 
	C359.637421,511.532654 362.331329,503.792297 366.990265,497.509003 
	C381.131714,478.436981 401.896149,478.929382 415.944366,498.066101 
	C425.194824,510.667114 429.226929,525.151184 430.510956,540.430847 
	C432.262177,561.270813 429.351471,581.269470 418.046783,599.380066 
	C416.214050,602.316223 413.968567,605.073181 411.540131,607.545898 
	C398.781219,620.537598 382.284119,620.279602 369.931335,606.839844 
	C359.150452,595.110291 354.468597,580.643738 352.288635,565.272766 
	C350.088043,549.756165 351.185730,534.408203 355.946320,518.993530 
z"/>
<path fill="#C074FE" opacity="1.000000" stroke="none" 
	d="
M615.142700,566.069336 
	C613.035522,579.991577 608.908386,592.639343 600.445312,603.618469 
	C586.785767,621.338989 566.775146,621.682068 552.915771,604.061584 
	C541.102600,589.042603 537.084778,571.336487 536.778198,552.679443 
	C536.443298,532.300476 540.045532,512.873291 553.085938,496.375702 
	C566.598267,479.281036 585.858276,479.175964 599.621582,496.014893 
	C610.231018,508.995148 614.641174,524.423645 615.801758,540.749207 
	C616.387207,548.985840 615.433899,557.331787 615.142700,566.069336 
z"/>
</svg>