<svg xmlns="http://www.w3.org/2000/svg" fill="none" viewBox="0 0 500 500"><g clip-path="url(#a)"><path fill="#fff" d="M250 500c138.071 0 250-111.929 250-250S388.071 0 250 0 0 111.929 0 250s111.929 250 250 250"/><path fill="#0052FF" fill-rule="evenodd" d="M250 476c124.816 0 226-101.184 226-226S374.816 24 250 24 24 125.184 24 250s101.184 226 226 226m250-226c0 138.071-111.929 250-250 250S0 388.071 0 250 111.929 0 250 0s250 111.929 250 250" clip-rule="evenodd"/><path fill="#0052FF" d="M336.032 223.38c4.491-26.873-15.746-41.655-43.574-52.005l9.667-36.077-22.06-5.911-9.482 35.387c-5.802-1.554-11.719-3.14-17.698-4.495l9.528-35.561-21.945-5.88-9.728 36.307-14.075-3.771-30.677-8.22-6.326 23.611s16.392 4.084 16.027 4.295c6.275.942 10.693 6.744 9.923 13.064l-26.63 99.385c-.669 2.037-2.169 3.728-4.09 4.692a7.9 7.9 0 0 1-6.195.372c.225.306-16.028-4.295-16.028-4.295l-11.432 25.198 44.58 11.945-9.883 36.882 22.06 5.911 9.729-36.307 17.636 4.726-9.682 36.134 22.117 5.927 9.775-36.48c37.884 7.75 66.371 5.531 78.947-28.535 10.169-27.384.312-43.448-19.474-54.168 14.639-3.158 25.817-12.477 28.99-32.131m-51.934 70.192c-7.342 27.403-53.503 11.709-68.44 7.707l13.038-48.658c14.921 4.059 63.068 12.342 55.402 40.951m8.154-71.332c-6.727 25.104-45.133 11.489-57.541 8.164l11.837-44.177c12.393 3.382 52.692 9.931 45.704 36.013"/></g><defs><clipPath id="a"><path fill="#fff" d="M0 0h500v500H0z"/></clipPath></defs></svg>