<svg xmlns="http://www.w3.org/2000/svg" width="230.667" height="185.333" version="1.0" viewBox="0 0 173 139"><path d="M65.1 28c-11 4-18.1 10.9-23.9 22.8-3.1 6.5-3.6 8.6-4 17-.8 16.1 3 26.4 13.4 36.9 2.9 2.9 7.8 6.4 11.1 8 5.1 2.4 7 2.7 16.3 2.8 9.6 0 11-.2 16-2.8 7-3.6 11.4-7.8 15.2-14.5 1.6-2.8 3.1-5.2 3.3-5.2.1 0 1.5 4.9 3.1 11l2.9 11h6.2c3.5 0 6.3-.3 6.3-.6 0-.4-1.5-6.1-3.4-12.8-1.9-6.6-4.5-16.3-5.7-21.5l-2.3-9.4 2.3-9.1c1.2-5 3.8-14.6 5.7-21.2 1.9-6.7 3.4-12.4 3.4-12.8 0-.3-2.8-.6-6.3-.6h-6.3l-2.4 9.7c-1.3 5.4-2.7 10.4-3 11.2-.5.8-1.7-.5-3.7-4.1-3.5-6.1-9.3-11.7-15.5-14.9-6.2-3.3-21.1-3.7-28.7-.9m21.2 11.6c6 2 12.9 8.2 15.5 13.8 4.8 10.1 4.8 25.8.1 35.1-4.8 9.3-14.5 15.5-24.4 15.5-6.1 0-14.3-3.3-18.7-7.5-12.4-12.1-12.3-39 .3-51.3 6.6-6.4 17.9-8.8 27.2-5.6"/></svg>