<?xml version="1.0" standalone="no"?>
<!DOCTYPE svg PUBLIC "-//W3C//DTD SVG 20010904//EN"
 "http://www.w3.org/TR/2001/REC-SVG-20010904/DTD/svg10.dtd">
<svg version="1.0" xmlns="http://www.w3.org/2000/svg"
 width="173.000000pt" height="139.000000pt" viewBox="0 0 173.000000 139.000000"
 preserveAspectRatio="xMidYMid meet">

<g transform="translate(0.000000,139.000000) scale(0.100000,-0.100000)"
fill="#000000" stroke="none">
<path d="M651 1110 c-110 -40 -181 -109 -239 -228 -31 -65 -36 -86 -40 -170
-8 -161 30 -264 134 -369 29 -29 78 -64 111 -80 51 -24 70 -27 163 -28 96 0
110 2 160 28 70 36 114 78 152 145 16 28 31 52 33 52 1 0 15 -49 31 -110 l29
-110 62 0 c35 0 63 3 63 6 0 4 -15 61 -34 128 -19 66 -45 163 -57 215 l-23 94
23 91 c12 50 38 146 57 212 19 67 34 124 34 128 0 3 -28 6 -63 6 l-63 0 -24
-97 c-13 -54 -27 -104 -30 -112 -5 -8 -17 5 -37 41 -35 61 -93 117 -155 149
-62 33 -211 37 -287 9z m212 -116 c60 -20 129 -82 155 -138 48 -101 48 -258 1
-351 -48 -93 -145 -155 -244 -155 -61 0 -143 33 -187 75 -124 121 -123 390 3
513 66 64 179 88 272 56z"/>
</g>
</svg>
