<svg xmlns="http://www.w3.org/2000/svg" width="160" height="160" style="shape-rendering:geometricPrecision;text-rendering:geometricPrecision;image-rendering:optimizeQuality;fill-rule:evenodd;clip-rule:evenodd"><path style="opacity:.212" fill="#f0bbcb" d="M66.5-.5h8C69.705.982 64.705 2.149 59.5 3c-4.654 1.334-8.987 3.167-13 5.5a42.5 42.5 0 0 0-11 5.5c.556.383.89.883 1 1.5-4.583-.472-7.083 1.528-7.5 6-1.324 1.38-2.657 1.713-4 1a31.444 31.444 0 0 0-4.5 5c-1.406.473-2.073 1.473-2 3-4.513 4.53-7.846 9.863-10 16-3.667 5.36-5.667 11.36-6 18-5.614 33.814 5.72 60.481 34 80 3.221 2.778 6.888 4.778 11 6 3.806 2.311 7.972 3.977 12.5 5 .765-.07 1.265-.403 1.5-1 1.879-.107 2.212.393 1 1.5a93.512 93.512 0 0 0 11 1.5 84.9 84.9 0 0 0 13-.5c-.556-.383-.89-.883-1-1.5 5.437 1.32 10.77.987 16-1a592.183 592.183 0 0 0 8-3c31.176-14.386 47.51-38.886 49-73.5-4.853-45.353-29.853-71.186-75-77.5v-1h9c37.365 8.39 59.698 31.39 67 69v20c-7.317 39.984-30.984 63.65-71 71h-19c-32.226-6.051-54.393-24.384-66.5-55l-3.5-14v-23c8.215-36.549 30.548-59.215 67-68z"/><path style="opacity:1" fill="#fd9dc9" d="M88.5 107.5c1.238.31 1.238.81 0 1.5a2.429 2.429 0 0 0 2 .5c.804 1.509 1.97 2.843 3.5 4l1-2 1 9 1-10 1 13c2.734.862 2.901 1.695.5 2.5 2.052.93 3.552 2.43 4.5 4.5.492 1.049.326 2.049-.5 3a14.972 14.972 0 0 1 3 3.5c-1.154.914-.987 1.747.5 2.5 1.018-1.206 1.518-.873 1.5 1-.813 2.63-2.147 4.13-4 4.5.13 1.059.63 1.892 1.5 2.5.718-.951 1.551-1.117 2.5-.5-1.017 1.049-1.184 2.216-.5 3.5 1.007-2.242 1.841-1.908 2.5 1a592.183 592.183 0 0 1-8 3c.077-1.25.744-2.083 2-2.5a57.55 57.55 0 0 0-8-3c.293-2.308-.54-4.474-2.5-6.5-.914 1.154-1.747.987-2.5-.5l3-3a214.86 214.86 0 0 0-5-11.5c1.314-2.018.647-3.185-2-3.5 4-.667 4-1.333 0-2 .89-3.143 1.058-6.643.5-10.5-.67-.752-1.504-1.086-2.5-1v-2c1.459.067 2.792-.266 4-1z"/><path style="opacity:1" fill="#fba2c1" d="M68.5 109.5a104.06 104.06 0 0 0 16 1c.996-.086 1.83.248 2.5 1 .558 3.857.39 7.357-.5 10.5 4 .667 4 1.333 0 2 2.647.315 3.314 1.482 2 3.5a214.86 214.86 0 0 1 5 11.5l-3 3c.753 1.487 1.586 1.654 2.5.5 1.96 2.026 2.793 4.192 2.5 6.5a57.55 57.55 0 0 1 8 3c-1.256.417-1.923 1.25-2 2.5-5.23 1.987-10.563 2.32-16 1-.418-.722-1.084-1.222-2-1.5 2.667-.667 2.667-1.333 0-2 4.037-.911 5.204-3.077 3.5-6.5-2.589-.983-4.922-.983-7 0-.667-1.333-.667-2.667 0-4 .805 2.401 1.638 2.234 2.5-.5-1.941-1.816-2.608-3.816-2-6l-1-.5a6.807 6.807 0 0 0-1.5 3c-.72-1.612-.554-3.112.5-4.5l-1-.5a6.807 6.807 0 0 0-1.5 3c-.896-2.525-.396-4.692 1.5-6.5-2.667-1.333-2.667-2.667 0-4a6.977 6.977 0 0 1-2.5-3.5l-1 2a7.292 7.292 0 0 0-2-3c-.684-1.284-.517-2.451.5-3.5-4-.667-4-1.333 0-2-3.242-.283-3.576-1.117-1-2.5-.88-1.471-2.214-2.304-4-2.5.228-.399.562-.565 1-.5z"/><path style="opacity:1" fill="#fba7b6" d="M54.5 101.5c2.66 1.883 5.327 3.05 8 3.5a11.357 11.357 0 0 1 1.5 3.5l1-2c.985 1.314 2.152 2.314 3.5 3-.438-.065-.772.101-1 .5 1.786.196 3.12 1.029 4 2.5-2.576 1.383-2.242 2.217 1 2.5-4 .667-4 1.333 0 2-1.017 1.049-1.184 2.216-.5 3.5a7.292 7.292 0 0 1 2 3l1-2a6.977 6.977 0 0 0 2.5 3.5c-2.667 1.333-2.667 2.667 0 4-1.896 1.808-2.396 3.975-1.5 6.5a6.807 6.807 0 0 1 1.5-3l1 .5c-1.054 1.388-1.22 2.888-.5 4.5a6.807 6.807 0 0 1 1.5-3l1 .5c-.608 2.184.059 4.184 2 6-.862 2.734-1.695 2.901-2.5.5-.667 1.333-.667 2.667 0 4 2.078-.983 4.411-.983 7 0 1.704 3.423.537 5.589-3.5 6.5 2.667.667 2.667 1.333 0 2 .916.278 1.582.778 2 1.5.11.617.444 1.117 1 1.5a84.9 84.9 0 0 1-13 .5c.418-.722 1.084-1.222 2-1.5a32.498 32.498 0 0 1-7-3c1.5-.833 2.667-2 3.5-3.5.763 2.563 1.263 2.563 1.5 0-.376-1.883-1.376-3.383-3-4.5l1-7c-1.228-2.14-2.895-3.807-5-5l1-1a6.977 6.977 0 0 1-2.5-3.5l-1 2c-.667-1.333-.667-2.667 0-4 .914 1.154 1.747.987 2.5-.5a13.908 13.908 0 0 0-3-4c.78-1.073.613-2.24-.5-3.5-.974 2.378-1.641 2.044-2-1-.805 2.401-1.638 2.234-2.5-.5l1-1c-1.074-.739-1.74-1.739-2-3 1.529-1.582 2.029-3.415 1.5-5.5l-1 2c-1.205-1.359-2.705-2.359-4.5-3-1.45-1.35-2.117-3.016-2-5h3z"/><path style="opacity:1" fill="#36202b" d="M109.5 90.5a210.386 210.386 0 0 1-12 12.5c-2.648 2.05-5.648 3.216-9 3.5 1.895-1.598 4.062-2.932 6.5-4a9.465 9.465 0 0 1 1.5-2.5c-1.054-1.388-1.22-2.888-.5-4.5a22.948 22.948 0 0 0 2 5l8-8c-.617-1.595-.284-2.928 1-4 .417 1.256 1.25 1.923 2.5 2z"/><path style="opacity:1" fill="#e8adc0" d="M39.5 60.5a107.231 107.231 0 0 1-8.5 9c-.74 1.25-.573 2.25.5 3 3 3.667 6.333 7 10 10a163.606 163.606 0 0 0 22 21c6.17 4.546 13.17 6.213 21 5v2a104.06 104.06 0 0 1-16-1c-1.348-.686-2.515-1.686-3.5-3l-1 2a11.357 11.357 0 0 0-1.5-3.5c-2.673-.45-5.34-1.617-8-3.5-1.693-4.196-4.36-7.863-8-11-1.175 1.355-2.175 1.188-3-.5.459-1.943-.541-3.276-3-4 .532-2.005-.468-3.171-3-3.5-.472-3.019-1.972-4.019-4.5-3a15.387 15.387 0 0 1-3-6c-.451 2.429-1.285 2.596-2.5.5 2.114-1.498 2.614-3.33 1.5-5.5.995-.566 1.828-1.233 2.5-2 3.035-1.456 4.369-3.623 4-6.5 1.32-.195 2.653-.028 4 .5z"/><path style="opacity:1" fill="#37222c" d="M41.5 82.5c5.367 3.855 10.367 8.355 15 13.5l4 2c-.408 2.861.425 3.028 2.5.5.493 1.634.66 3.301.5 5a163.606 163.606 0 0 1-22-21z"/><path style="opacity:1" fill="#faacae" d="M37.5 82.5c2.532.329 3.532 1.495 3 3.5 2.459.724 3.459 2.057 3 4 .825 1.688 1.825 1.855 3 .5 3.64 3.137 6.307 6.804 8 11h-3c-.117 1.984.55 3.65 2 5 1.795.641 3.295 1.641 4.5 3l1-2c.529 2.085.029 3.918-1.5 5.5.26 1.261.926 2.261 2 3l-1 1c.862 2.734 1.695 2.901 2.5.5.359 3.044 1.026 3.378 2 1 1.113 1.26 1.28 2.427.5 3.5a13.908 13.908 0 0 1 3 4c-.753 1.487-1.586 1.654-2.5.5-.667 1.333-.667 2.667 0 4l1-2a6.977 6.977 0 0 0 2.5 3.5l-1 1c2.105 1.193 3.772 2.86 5 5l-1 7c1.624 1.117 2.624 2.617 3 4.5-.237 2.563-.737 2.563-1.5 0-.833 1.5-2 2.667-3.5 3.5a32.498 32.498 0 0 0 7 3c-.916.278-1.582.778-2 1.5a93.512 93.512 0 0 1-11-1.5c1.212-1.107.879-1.607-1-1.5-4.269-2.21-3.936-3.377 1-3.5 1.894-1.101 2.56-2.434 2-4-1.491-1.91-2.991-3.077-4.5-3.5-.451 2.429-1.285 2.596-2.5.5l1-1a15.28 15.28 0 0 1-1.5-4.5l-1 4c1.517-4.072.35-6.906-3.5-8.5l2-1c-2.258-1.021-4.258-2.521-6-4.5a4.451 4.451 0 0 1 1.5-2c1.011.837 2.178 1.17 3.5 1-.256-2.292.077-4.459 1-6.5-3.408-2.831-5.908-5.664-7.5-8.5-.914 1.154-1.747.987-2.5-.5l3-1c-1.566-2.93-2.4-6.097-2.5-9.5-.5-1.833-1.667-3-3.5-3.5l2-1c-2.132-.918-2.799-2.251-2-4a15.387 15.387 0 0 1-6-3c.193-1.645.36-3.479.5-5.5.914 1.154 1.747.987 2.5-.5l-2-1c.228-.399.562-.565 1-.5z"/><path style="opacity:1" fill="#e4a8be" d="M40.5 59.5c2.563 1.092 4.73 2.758 6.5 5l1-1c1.066 2.718 2.733 5.051 5 7 .383-.556.883-.89 1.5-1v3a93.605 93.605 0 0 0 9 5.5c-1.052 1.716-.386 2.716 2 3-.95.718-1.117 1.55-.5 2.5.67-.752 1.504-1.086 2.5-1 .864 3.758 3.364 6.758 7.5 9 2.582-.388 5.249-.388 8 0 2.503-.49 4.503-1.823 6-4 .383.556.883.89 1.5 1-1.64.972-2.973 2.306-4 4a31.343 31.343 0 0 1-12 .5c-5.03-4.175-10.03-8.341-15-12.5l-19-20v-1z"/><path style="opacity:1" fill="#e7a2c5" d="M90.5 109.5a2.429 2.429 0 0 1-2-.5c1.238-.69 1.238-1.19 0-1.5v-1c3.352-.284 6.352-1.45 9-3.5a210.386 210.386 0 0 0 12-12.5 246.402 246.402 0 0 1 14-12.5c1.964-1.451 3.297-3.284 4-5.5.789-.283 1.456-.783 2-1.5l-9-9c-1-.667-2-.667-3 0a31.418 31.418 0 0 1-5 4.5c.548-1.894 1.548-3.56 3-5a3.647 3.647 0 0 0-1-1.5 26.689 26.689 0 0 0 6.5-1.5c2.261 4.43 5.428 8.096 9.5 11 .928 1.268 1.095 2.601.5 4A396.902 396.902 0 0 1 115.5 89l1 1c-7.389 2.555-12.722 7.388-16 14.5-2.9 2.576-6.234 4.242-10 5z"/><path style="opacity:1" fill="#fab0a6" d="M18.5 30.5c2.07 4.846 4.404 9.346 7 13.5a7.291 7.291 0 0 1-3 2c2.667.667 2.667 1.333 0 2 1.333.667 1.333 1.333 0 2 2.013.875 2.013 2.209 0 4l3 1-1 1c1.41.368 2.41 1.201 3 2.5-.132 1.463-.465 2.963-1 4.5.405.945 1.072 1.612 2 2-2.429.451-2.596 1.284-.5 2.5a6.541 6.541 0 0 0 3-3c.464.594.631 1.261.5 2-.672.767-1.505 1.434-2.5 2 1.114 2.17.614 4.002-1.5 5.5 1.215 2.096 2.049 1.929 2.5-.5a15.387 15.387 0 0 0 3 6c2.528-1.019 4.028-.019 4.5 3-.438-.065-.772.101-1 .5l2 1c-.753 1.487-1.586 1.654-2.5.5-.14 2.021-.307 3.855-.5 5.5a15.387 15.387 0 0 0 6 3c-.799 1.749-.132 3.082 2 4l-2 1c1.833.5 3 1.667 3.5 3.5.1 3.403.934 6.57 2.5 9.5l-3 1c.753 1.487 1.586 1.654 2.5.5 1.592 2.836 4.092 5.669 7.5 8.5-.923 2.041-1.256 4.208-1 6.5-1.322.17-2.489-.163-3.5-1a4.451 4.451 0 0 0-1.5 2c1.742 1.979 3.742 3.479 6 4.5l-2 1c3.85 1.594 5.017 4.428 3.5 8.5l1-4a15.28 15.28 0 0 0 1.5 4.5l-1 1c1.215 2.096 2.049 1.929 2.5-.5 1.509.423 3.009 1.59 4.5 3.5.56 1.566-.106 2.899-2 4-4.936.123-5.269 1.29-1 3.5-.235.597-.735.93-1.5 1-4.528-1.023-8.694-2.689-12.5-5 .351-2.369.518-4.703.5-7l-3-5-1 2a6.977 6.977 0 0 0-2.5-3.5c.116-1.268.45-2.602 1-4a26.689 26.689 0 0 1-1.5-6.5c-.654 1.196-1.154 1.196-1.5 0 .502-1.216.835-2.383 1-3.5-2.307-.354-2.64-1.354-1-3-1.628-3.585-2.462-7.419-2.5-11.5l-6-12-1 4c-.896-2.525-.396-4.692 1.5-6.5-1.393-1.171-2.227-2.671-2.5-4.5l-1 3c-.355-3.482-1.855-6.315-4.5-8.5l1-1a11.362 11.362 0 0 1-1.5-3.5l-1 1c-.684-1.284-.517-2.45.5-3.5-.496-1.996-1.496-3.663-3-5l2-1c-2.75-1.346-3.083-2.68-1-4a29.946 29.946 0 0 0-6-7c2.281-1.851 2.281-3.518 0-5 1.333-1.667 1.333-3.333 0-5l2-4a6.975 6.975 0 0 1-2.5-3.5c-2.489 1.972-2.655 3.806-.5 5.5-1.14.741-1.14 1.575 0 2.5a16.094 16.094 0 0 1-2.5 5c-2.105-2.607-2.938-5.607-2.5-9 2.154-6.137 5.487-11.47 10-16z"/><path style="opacity:1" fill="#36212b" d="M127.5 72.5c-1.1-1.058-2.434-1.892-4-2.5 2.391-.691 2.391-1.691 0-3-1.806-.81-3.306-1.976-4.5-3.5-2.354 1.36-4.021 3.36-5 6-1.364-.758-2.531-.258-3.5 1.5.78 1.073.613 2.24-.5 3.5-.718-.95-1.551-1.117-2.5-.5l-16 16c1.154.914.987 1.747-.5 2.5-1.16.343-2.66.343-4.5 0 1.027-1.694 2.36-3.028 4-4 .667 0 1-.333 1-1a312.112 312.112 0 0 0 21-21 31.418 31.418 0 0 0 5-4.5c1-.667 2-.667 3 0l9 9c-.544.717-1.211 1.217-2 1.5z"/><path style="opacity:1" fill="#f8b898" d="M2.5 64.5c1.636 1.249 2.803 2.916 3.5 5 .667-6.667 1.333-6.667 2 0 1.16-2.297 2.16-1.964 3 1l1-2a16.228 16.228 0 0 1 1.5 3.5 89.005 89.005 0 0 1-1 12 11.362 11.362 0 0 1 1.5 3.5c1.016-1.134 1.683-.8 2 1 .508-2.404 1.674-3.07 3.5-2 .176 2.172.343 4.505.5 7a63.196 63.196 0 0 0 3.5 7c-.686 1.564-.52 3.231.5 5l1-2 1 7c1.681 1.794 3.514 2.294 5.5 1.5-.444 4.444-.444 9.111 0 14a22.755 22.755 0 0 1 5 4l-1 1c1.466 1.552 2.466 3.386 3 5.5a38.684 38.684 0 0 0 0 7.5 2.429 2.429 0 0 1-2 .5c-28.28-19.519-39.614-46.186-34-80z"/><path style="opacity:1" fill="#38222d" d="M39.5 60.5h1l19 20c-4.92-2.749-9.086-6.416-12.5-11-.718.95-1.55 1.117-2.5.5.736-2.02-.097-3.52-2.5-4.5l-1 1a7.291 7.291 0 0 0-2-3 91.966 91.966 0 0 0-7.5 9c-1.073-.75-1.24-1.75-.5-3 3.038-2.87 5.871-5.87 8.5-9z"/><path style="opacity:1" fill="#3a3336" d="M59.5 80.5c4.97 4.159 9.97 8.325 15 12.5 4.037.607 8.037.44 12-.5 1.84.343 3.34.343 4.5 0 1.487-.753 1.654-1.586.5-2.5l16-16c.949-.617 1.782-.45 2.5.5 1.113-1.26 1.28-2.427.5-3.5.969-1.758 2.136-2.258 3.5-1.5.979-2.64 2.646-4.64 5-6 1.194 1.524 2.694 2.69 4.5 3.5 2.391 1.309 2.391 2.309 0 3 1.566.608 2.9 1.442 4 2.5-.703 2.216-2.036 4.049-4 5.5a246.402 246.402 0 0 0-14 12.5c-1.25-.077-2.083-.744-2.5-2-1.284 1.072-1.617 2.405-1 4l-8 8a22.948 22.948 0 0 1-2-5c-.72 1.612-.554 3.112.5 4.5a9.465 9.465 0 0 0-1.5 2.5c-2.438 1.068-4.605 2.402-6.5 4v1c-1.208.734-2.541 1.067-4 1-7.83 1.213-14.83-.454-21-5a12.935 12.935 0 0 0-.5-5c-2.075 2.528-2.908 2.361-2.5-.5l-4-2c-4.633-5.145-9.633-9.645-15-13.5-3.667-3-7-6.333-10-10a91.966 91.966 0 0 1 7.5-9 7.291 7.291 0 0 1 2 3l1-1c2.403.98 3.236 2.48 2.5 4.5.95.617 1.782.45 2.5-.5 3.414 4.584 7.58 8.251 12.5 11z"/><path style="opacity:1" fill="#fb9ec9" d="M77.5 70.5c.923.803 1.923.97 3 .5a63.67 63.67 0 0 1 7-6.5c.285 1.788-.048 3.455-1 5l-5 4c1.14.925 1.14 1.759 0 2.5l3 1c-2.299 2.535-2.299 5.202 0 8-2.667.667-2.667 1.333 0 2-1.154.914-.987 1.747.5 2.5a29.946 29.946 0 0 0 6-7c.383.556.883.89 1.5 1-.734 1.208-1.067 2.541-1 4 0 .667-.333 1-1 1-.617-.11-1.117-.444-1.5-1-1.497 2.177-3.497 3.51-6 4-2.751-.388-5.418-.388-8 0-4.136-2.242-6.636-5.242-7.5-9a32.614 32.614 0 0 0 4-4.5 22.455 22.455 0 0 1-5-8.5c-1.103-.498-2.103-.83-3-1 3.86-1.098 3.86-1.93 0-2.5 1.56-1.756 3.226-1.756 5 0l-1 1c2.167.833 3.667 2.333 4.5 4.5 1.817-2.145 3.317-2.145 4.5 0 .607-.124.94-.457 1-1z"/><path style="opacity:1" fill="#39232d" d="M88.5 63.5c-.667 0-1 .333-1 1a63.67 63.67 0 0 0-7 6.5c-1.077.47-2.077.303-3-.5a109 109 0 0 1-8-9.5 47.69 47.69 0 0 1 5-6.5 19.568 19.568 0 0 0 4-3.5c.667-.667 1.333-.667 2 0l8.5 8.5c.58 1.428.412 2.762-.5 4z"/><path style="opacity:1" fill="#3c3539" d="M78.5 52.5c3.76 2.254 7.093 5.088 10 8.5a6.975 6.975 0 0 0-3.5 2.5l-1-2c.336 3.658-1.164 5.991-4.5 7a32.26 32.26 0 0 1-9-7.5 50.176 50.176 0 0 0 8-8.5z"/><path style="opacity:1" fill="#e3a3c2" d="M88.5 63.5c.912-1.238 1.08-2.572.5-4L80.5 51c-.667-.667-1.333-.667-2 0a19.568 19.568 0 0 1-4 3.5 5.728 5.728 0 0 1 1-3l1.5-3c1 1.333 2 1.333 3 0a15.498 15.498 0 0 0 5.5 3.5c1.67 3.124 3.67 6.457 6 10-.744 1.039-1.744 1.539-3 1.5z"/><path style="opacity:1" fill="#f8b49d" d="M47.5 150.5c-4.112-1.222-7.779-3.222-11-6a2.429 2.429 0 0 0 2-.5 38.684 38.684 0 0 1 0-7.5c-.534-2.114-1.534-3.948-3-5.5l1-1a22.755 22.755 0 0 0-5-4c-.444-4.889-.444-9.556 0-14-1.986.794-3.819.294-5.5-1.5l-1-7-1 2c-1.02-1.769-1.186-3.436-.5-5a63.196 63.196 0 0 1-3.5-7 396.062 396.062 0 0 0-.5-7c-1.826-1.07-2.992-.404-3.5 2-.317-1.8-.984-2.134-2-1a11.362 11.362 0 0 0-1.5-3.5c.6-3.916.932-7.916 1-12a16.228 16.228 0 0 0-1.5-3.5l-1 2c-.84-2.964-1.84-3.297-3-1-.667-6.667-1.333-6.667-2 0-.697-2.084-1.864-3.751-3.5-5 .333-6.64 2.333-12.64 6-18-.438 3.393.395 6.393 2.5 9a16.094 16.094 0 0 0 2.5-5c-1.14-.925-1.14-1.759 0-2.5-2.155-1.694-1.989-3.528.5-5.5a6.975 6.975 0 0 0 2.5 3.5l-2 4c1.333 1.667 1.333 3.333 0 5 2.281 1.482 2.281 3.149 0 5a29.946 29.946 0 0 1 6 7c-2.083 1.32-1.75 2.654 1 4l-2 1c1.504 1.337 2.504 3.004 3 5-1.017 1.05-1.184 2.216-.5 3.5l1-1c.31 1.266.81 2.433 1.5 3.5l-1 1c2.645 2.185 4.145 5.018 4.5 8.5l1-3c.273 1.829 1.107 3.329 2.5 4.5-1.896 1.808-2.396 3.975-1.5 6.5l1-4 6 12c.038 4.081.872 7.915 2.5 11.5-1.64 1.646-1.307 2.646 1 3-.165 1.117-.498 2.284-1 3.5.346 1.196.846 1.196 1.5 0a26.689 26.689 0 0 0 1.5 6.5c-.55 1.398-.884 2.732-1 4a6.977 6.977 0 0 1 2.5 3.5l1-2 3 5a45.309 45.309 0 0 1-.5 7z"/><path style="opacity:1" fill="#faacae" d="M20.5 27.5c1.306.967 1.973 2.3 2 4 2.113.756 4.113.923 6 .5a122.188 122.188 0 0 1 2.5 7.5c.805-2.401 1.638-2.234 2.5.5.075 2.958-.591 5.958-2 9 .35 3.104.85 2.937 1.5-.5 2.003 3 2.836 6.333 2.5 10 1.322.17 2.489-.163 3.5-1 .278.916.778 1.583 1.5 2v1h-1c-1.347-.528-2.68-.695-4-.5.369 2.877-.965 5.044-4 6.5a2.428 2.428 0 0 0-.5-2 6.541 6.541 0 0 1-3 3c-2.096-1.216-1.929-2.049.5-2.5-.928-.388-1.595-1.055-2-2 .535-1.537.868-3.037 1-4.5-.59-1.299-1.59-2.132-3-2.5l1-1-3-1c2.013-1.791 2.013-3.125 0-4 1.333-.667 1.333-1.333 0-2 2.667-.667 2.667-1.333 0-2a7.291 7.291 0 0 0 3-2c-2.596-4.154-4.93-8.654-7-13.5-.073-1.527.594-2.527 2-3z"/><path style="opacity:1" fill="#faa7b6" d="M36.5 15.5c-.18 1.864.32 3.864 1.5 6 .914-1.154 1.747-.987 2.5.5-.97 1.204-1.97 1.704-3 1.5a6.807 6.807 0 0 0 3 1.5c-.837 1.011-1.17 2.178-1 3.5a4.932 4.932 0 0 1 3 .5c-4.352.419-4.685 1.085-1 2l-2 1c.924.85.924 1.85 0 3 .444 1.762.944 1.595 1.5-.5 1.294 1.354 1.46 2.688.5 4a12.417 12.417 0 0 0 2.5 4c.805-2.401 1.638-2.234 2.5.5.827 1.893.827 4.06 0 6.5l2 3a4.452 4.452 0 0 1-2 1.5 21.272 21.272 0 0 0 5 4 4.452 4.452 0 0 0-2 1.5c1.633 3.12 3.3 5.62 5 7.5-1.098.77-1.098 1.603 0 2.5-.617.11-1.117.444-1.5 1-2.267-1.949-3.934-4.282-5-7l-1 1c-1.77-2.242-3.937-3.908-6.5-5-.722-.417-1.222-1.084-1.5-2-1.011.837-2.178 1.17-3.5 1 .336-3.667-.497-7-2.5-10-.65 3.437-1.15 3.604-1.5.5 1.409-3.042 2.075-6.042 2-9-.862-2.734-1.695-2.901-2.5-.5a122.188 122.188 0 0 0-2.5-7.5c-1.887.423-3.887.256-6-.5-.027-1.7-.694-3.033-2-4a31.444 31.444 0 0 1 4.5-5c1.343.713 2.676.38 4-1 .417-4.472 2.917-6.472 7.5-6z"/><path style="opacity:1" fill="#fba2c1" d="M46.5 8.5c.172 1.38.338 3.046.5 5 .483-.948.65-1.948.5-3 3.257-.326 4.757 1.007 4.5 4-.974-2.378-1.641-2.044-2 1-.667-1.333-1.333-1.333-2 0-1.426 2.57-1.26 4.736.5 6.5-1.284 1.297-1.117 2.464.5 3.5.805-2.401 1.638-2.234 2.5.5l-1 1a17.834 17.834 0 0 0 4.5 5.5c.014 2.098-.153 3.931-.5 5.5 3.044.359 3.378 1.026 1 2a12.417 12.417 0 0 1 4 2.5 3.646 3.646 0 0 1-1 1.5l4 5a3.943 3.943 0 0 0-1 2c1.098 2.46 2.098 4.96 3 7.5-1.402 1.343-1.069 2.176 1 2.5-2.308 1.396-1.975 2.063 1 2 1.514-4.011 4.18-6.845 8-8.5a47.69 47.69 0 0 0-5 6.5 109 109 0 0 0 8 9.5c-.06.543-.393.876-1 1-1.183-2.145-2.683-2.145-4.5 0-.833-2.167-2.333-3.667-4.5-4.5l1-1c-1.774-1.756-3.44-1.756-5 0 3.86.57 3.86 1.402 0 2.5.897.17 1.897.502 3 1a22.455 22.455 0 0 0 5 8.5 32.614 32.614 0 0 1-4 4.5c-.996-.086-1.83.248-2.5 1-.617-.95-.45-1.782.5-2.5-2.386-.284-3.052-1.284-2-3a93.605 93.605 0 0 1-9-5.5v-3c-1.098-.897-1.098-1.73 0-2.5-1.7-1.88-3.367-4.38-5-7.5a4.452 4.452 0 0 1 2-1.5 21.272 21.272 0 0 1-5-4 4.452 4.452 0 0 0 2-1.5l-2-3c.827-2.44.827-4.607 0-6.5-.862-2.734-1.695-2.901-2.5-.5a12.417 12.417 0 0 1-2.5-4c.96-1.312.794-2.646-.5-4-.556 2.095-1.056 2.262-1.5.5.924-1.15.924-2.15 0-3l2-1c-3.685-.915-3.352-1.581 1-2a4.932 4.932 0 0 0-3-.5c-.17-1.322.163-2.489 1-3.5a6.807 6.807 0 0 1-3-1.5c1.03.204 2.03-.296 3-1.5-.753-1.487-1.586-1.654-2.5-.5-1.18-2.136-1.68-4.136-1.5-6-.11-.617-.444-1.117-1-1.5a42.5 42.5 0 0 1 11-5.5z"/><path style="opacity:1" fill="#fc9dca" d="M74.5-.5h9v1a32.437 32.437 0 0 0-8 .5c-.959 1.464-2.292 2.297-4 2.5-6.464-1.628-12.131.038-17 5 .742 1.85 1.742 2.516 3 2a4.452 4.452 0 0 1-2 1.5c1.478 1.193 2.812 1.693 4 1.5-2.667 2.333-2.667 4.667 0 7a3.646 3.646 0 0 1-1 1.5A196.07 196.07 0 0 1 65 36.5a6.807 6.807 0 0 1 1.5-3l1 .5-1 5c2.186 1.512 3.853 3.512 5 6-1.354 1.957-1.02 3.957 1 6 .948.483 1.948.65 3 .5a5.728 5.728 0 0 0-1 3c-3.82 1.655-6.486 4.489-8 8.5-2.975.063-3.308-.604-1-2-2.069-.324-2.402-1.157-1-2.5-.902-2.54-1.902-5.04-3-7.5a3.943 3.943 0 0 1 1-2l-4-5c.457-.414.79-.914 1-1.5a12.417 12.417 0 0 0-4-2.5c2.378-.974 2.044-1.641-1-2 .347-1.569.514-3.402.5-5.5a17.834 17.834 0 0 1-4.5-5.5l1-1c-.862-2.734-1.695-2.901-2.5-.5-1.617-1.036-1.784-2.203-.5-3.5-1.76-1.764-1.926-3.93-.5-6.5.667-1.333 1.333-1.333 2 0 .359-3.044 1.026-3.378 2-1 .257-2.993-1.243-4.326-4.5-4a4.932 4.932 0 0 1-.5 3c-.162-1.954-.328-3.62-.5-5 4.013-2.333 8.346-4.166 13-5.5 5.205-.851 10.205-2.018 15-3.5z"/><path style="opacity:1" fill="#fd97d4" d="M83.5.5c45.147 6.314 70.147 32.147 75 77.5-1.49 34.614-17.824 59.114-49 73.5-.659-2.908-1.493-3.242-2.5-1-.684-1.284-.517-2.451.5-3.5-.949-.617-1.782-.451-2.5.5-.87-.608-1.37-1.441-1.5-2.5 1.853-.37 3.187-1.87 4-4.5.018-1.873-.482-2.206-1.5-1-1.487-.753-1.654-1.586-.5-2.5a14.972 14.972 0 0 0-3-3.5c.826-.951.992-1.951.5-3-.948-2.07-2.448-3.57-4.5-4.5 2.401-.805 2.234-1.638-.5-2.5l-1-13-1 10-1-9-1 2c-1.53-1.157-2.696-2.491-3.5-4 3.766-.758 7.1-2.424 10-5 3.278-7.112 8.611-11.945 16-14.5l-1-1A396.902 396.902 0 0 0 131 73.5c.595-1.399.428-2.732-.5-4-4.072-2.904-7.239-6.57-9.5-11a26.689 26.689 0 0 1-6.5 1.5c.457.414.791.914 1 1.5-1.452 1.44-2.452 3.106-3 5-1.644.213-3.144-.12-4.5-1-.617.95-.451 1.782.5 2.5-.949.617-1.782.45-2.5-.5l-6 9c-1.666-.84-1.833-.34-.5 1.5-1.036 1.617-2.203 1.784-3.5.5-1.14 1.533-2.307 3.2-3.5 5-.617-.11-1.117-.444-1.5-1a29.946 29.946 0 0 1-6 7c-1.487-.753-1.654-1.586-.5-2.5-2.667-.667-2.667-1.333 0-2-2.299-2.798-2.299-5.465 0-8l-3-1c1.14-.741 1.14-1.575 0-2.5l5-4c.952-1.545 1.285-3.212 1-5 0-.667.333-1 1-1 1.256.039 2.256-.461 3-1.5-2.33-3.543-4.33-6.876-6-10a15.498 15.498 0 0 1-5.5-3.5c-1 1.333-2 1.333-3 0l-1.5 3a4.932 4.932 0 0 1-3-.5c-2.02-2.043-2.354-4.043-1-6-1.147-2.488-2.814-4.488-5-6l1-5-1-.5a6.807 6.807 0 0 0-1.5 3A196.07 196.07 0 0 0 58.5 22c.457-.414.79-.914 1-1.5-2.667-2.333-2.667-4.667 0-7-1.188.193-2.522-.307-4-1.5a4.452 4.452 0 0 0 2-1.5c-1.258.516-2.258-.15-3-2 4.869-4.962 10.536-6.628 17-5 1.708-.203 3.041-1.036 4-2.5a32.437 32.437 0 0 1 8-.5z"/><path style="opacity:.984" fill="#e6a1c5" d="M112.5 66.5a312.112 312.112 0 0 1-21 21c-.067-1.459.266-2.792 1-4 1.193-1.8 2.36-3.467 3.5-5 1.297 1.284 2.464 1.117 3.5-.5-1.333-1.84-1.166-2.34.5-1.5l6-9c.718.95 1.551 1.117 2.5.5-.951-.718-1.117-1.55-.5-2.5 1.356.88 2.856 1.213 4.5 1z"/></svg>