<?xml version="1.0" encoding="UTF-8"?>
<svg id="Layer_2" data-name="Layer 2" xmlns="http://www.w3.org/2000/svg" viewBox="0 0 366.91 305.57">
  <defs>
    <style>
      .cls-1 {
        fill: #fff;
        stroke-width: 0px;
      }
    </style>
  </defs>
  <g id="Layer_1-2" data-name="Layer 1">
    <g>
      <path class="cls-1" d="M183.46,305.57c-20.62,0-40.63-4.04-59.48-12.01-18.2-7.7-34.53-18.71-48.56-32.74-14.03-14.03-25.04-30.36-32.74-48.56-7.97-18.85-12.01-38.86-12.01-59.48s4.04-40.63,12.01-59.48c7.7-18.2,18.71-34.53,32.74-48.56,14.03-14.03,30.36-25.04,48.56-32.74C142.83,4.04,162.84,0,183.46,0s40.63,4.04,59.48,12.01c18.2,7.7,34.53,18.71,48.56,32.74,14.03,14.03,25.04,30.36,32.74,48.56,7.97,18.85,12.01,38.86,12.01,59.48s-4.04,40.63-12.01,59.48c-7.7,18.2-18.71,34.53-32.74,48.56-14.03,14.03-30.36,25.04-48.56,32.74-18.85,7.97-38.86,12.01-59.48,12.01ZM183.46,30.64c-32.63,0-63.3,12.71-86.37,35.78-23.07,23.07-35.78,53.74-35.78,86.37s12.71,63.3,35.78,86.37c23.07,23.07,53.74,35.78,86.37,35.78s63.3-12.71,86.37-35.78c23.07-23.07,35.78-53.74,35.78-86.37s-12.71-63.3-35.78-86.37c-23.07-23.07-53.74-35.78-86.37-35.78Z"/>
      <path class="cls-1" d="M244.74,106.12h-122.56c-16.93,0-30.65,13.72-30.65,30.63v15.32c0,50.77,41.16,91.94,91.93,91.94s91.93-41.17,91.93-91.93v-15.31c0-16.92-13.72-30.64-30.64-30.64h0ZM244.74,152.08c0,33.8-27.48,61.28-61.28,61.28s-61.29-27.5-61.29-61.3v-15.32l122.57.02v15.32Z"/>
      <path class="cls-1" d="M328.61,114.49s-.03,0-.04,0v76.59s.03,0,.04,0c21.15,0,38.3-17.15,38.3-38.3s-17.15-38.3-38.3-38.3Z"/>
      <path class="cls-1" d="M38.3,191.08s.03,0,.04,0v-76.59s-.03,0-.04,0c-21.15,0-38.3,17.15-38.3,38.3s17.15,38.3,38.3,38.3Z"/>
      <g>
        <circle class="cls-1" cx="339.42" cy="37.5" r="18.6"/>
        <rect class="cls-1" x="331.76" y="54.36" width="15.32" height="73.32"/>
      </g>
    </g>
  </g>
</svg>