<svg xmlns="http://www.w3.org/2000/svg" viewBox="0 0 245.8 245.8"><defs><linearGradient id="a" x1="185" x2="24.5" y1="305.9" y2="85.8" gradientUnits="userSpaceOnUse"><stop offset=".2" stop-color="#44aeff"/><stop offset="1" stop-color="#0051ff"/></linearGradient></defs><g data-name="Layer 2"><g data-name="Layer 1"><path d="M68.3 0c61.1 0 91.7 0 115.2 11.6a112 112 0 0 1 50.7 50.7c11.6 23.5 11.6 54 11.6 115.2h-68.3v-48a62 62 0 0 0-61-61.2H68.3Z"/><path d="M177.5 245.8c-61.1 0-91.7 0-115.2-11.6a112 112 0 0 1-50.7-50.7C0 160 0 129.5 0 68.3h68.3v48a62 62 0 0 0 61 61.3h48.2Z" style="fill:url(#a)"/></g></g></svg>
