<svg xmlns="http://www.w3.org/2000/svg" width="1280" height="1280" style="shape-rendering:geometricPrecision;text-rendering:geometricPrecision;image-rendering:optimizeQuality;fill-rule:evenodd;clip-rule:evenodd"><path fill="#020202" d="M625.5 243.5c18.55-1.181 36.55 1.319 54 7.5 26.459 13.365 33.959 33.865 22.5 61.5a449.818 449.818 0 0 0-26 44c-9.998 21.654-11.998 43.987-6 67a4362.466 4362.466 0 0 0 25 70 269.953 269.953 0 0 1 8 47c3.141-11.282 8.141-21.615 15-31l23.5-23.5c14.344-12.676 30.678-22.01 49-28a674.034 674.034 0 0 1 70.5-9.5c17.768-.114 34.601 3.719 50.5 11.5a103.01 103.01 0 0 0 12.5 11.5c6.156 13.584 7.156 27.584 3 42a616.439 616.439 0 0 0-29 51c-8.645 20.497-10.312 41.497-5 63a1628.376 1628.376 0 0 0 21.5 60.5c11.585 33.351 13.419 67.185 5.5 101.5-10.599 31.277-31.099 53.777-61.5 67.5-23.078 9.535-47.078 13.202-72 11a436.115 436.115 0 0 1-62-10c-15.912-6.239-27.745-17.073-35.5-32.5a778.014 778.014 0 0 1-2.5-13c-2.625 11.681-2.459 23.348.5 35a6570.126 6570.126 0 0 0 26 75c10.528 34.57 9.861 68.903-2 103a157.012 157.012 0 0 1-24.5 34.5c-33.659 26.65-71.992 37.32-115 32a96.575 96.575 0 0 1-21-5c-14.4-4.69-28.4-10.36-42-17-10.153-6.82-17.32-15.99-21.5-27.5-2.15-9.75-1.817-19.41 1-29a1343.094 1343.094 0 0 0 31-62c5.032-12.449 5.699-25.116 2-38a391.071 391.071 0 0 1-23-70 883.076 883.076 0 0 1-2-54c-4.937 34.744-22.437 60.91-52.5 78.5-35.067 18.509-72.067 23.509-111 15a141.194 141.194 0 0 1-39-12c-9.455-5.788-17.288-13.288-23.5-22.5-3.813-11.115-4.48-22.448-2-34l32-64c4.606-11.356 5.606-23.023 3-35a1887.34 1887.34 0 0 0-14.5-38.5 192.58 192.58 0 0 1-9.5-33.5 482.57 482.57 0 0 1-1-60c1.427-19.281 7.427-36.947 18-53 18.059-22.597 40.226-39.763 66.5-51.5 33.712-11.341 68.045-14.008 103-8 17.101 4.105 28.934 14.272 35.5 30.5 2.293 10.986 1.293 21.652-3 32a604.53 604.53 0 0 0-29 51c-8.682 21.681-9.682 43.681-3 66a1795.636 1795.636 0 0 1 27 78 244.658 244.658 0 0 1 5 50c2.05-19.419 9.05-36.752 21-52 14.372-16.57 30.872-30.403 49.5-41.5 17.363-9.132 35.863-13.632 55.5-13.5 15.497.588 30.997 1.088 46.5 1.5 13.931.977 26.931 4.977 39 12 6.101 5.049 10.601 11.216 13.5 18.5.458-3.058.124-6.058-1-9a408.268 408.268 0 0 0-12-30 554.143 554.143 0 0 1-10-36 328.203 328.203 0 0 1-3-44c-9.595 29.595-28.428 51.095-56.5 64.5-20.271 9.421-41.605 13.921-64 13.5a157.446 157.446 0 0 0-31.5 0c-27.645 2.35-50.645-6.65-69-27-9.202-14.06-10.869-29.06-5-45a1211.948 1211.948 0 0 0 27-52c7.186-13.262 9.186-27.262 6-42a1065.968 1065.968 0 0 1-21-60 166.02 166.02 0 0 1-4-23 426.119 426.119 0 0 1 1-55c2.254-17.766 8.254-34.1 18-49 14.01-14.689 29.177-27.856 45.5-39.5a284.856 284.856 0 0 1 60-22 431.198 431.198 0 0 1 22-4.5Z" style="opacity:.288"/><path fill="#c80000" d="M647.5 250.5c18.864-.218 35.031 6.115 48.5 19a19.177 19.177 0 0 1 2.5 5c2.229 7.883 2.562 15.883 1 24a413.095 413.095 0 0 1-19.5 33c-17.094 28.638-22.26 59.305-15.5 92 .842 6.2 2.842 11.867 6 17a31.686 31.686 0 0 1 2 6c-.155 3.216.845 5.883 3 8a31.686 31.686 0 0 1 2 6c-.155 3.216.845 5.883 3 8a31.686 31.686 0 0 1 2 6c-.155 3.216.845 5.883 3 8a21.17 21.17 0 0 1 2 7c-.241 2.398.426 4.398 2 6-.09 2.652.576 4.985 2 7 1.76 4.047 2.76 8.38 3 13-.138 4.914.528 9.581 2 14 1.301 7.303 1.301 14.636 0 22-1.389 4.769-2.056 9.769-2 15-4.657 25.136-17.323 45.303-38 60.5-24.925 17.249-52.592 25.083-83 23.5-6.084-1.677-12.418-2.344-19-2-11.019-3.007-20.685-8.34-29-16-2.333-3-5-5.667-8-8-2.3-4.262-4.3-8.595-6-13-.522-7.57.478-14.903 3-22a785.318 785.318 0 0 0 18-33c2.125-2.588 3.458-5.588 4-9a66.254 66.254 0 0 0 8-17c2.556-4.212 3.89-8.878 4-14 1.525-4.228 2.192-8.728 2-13.5.326-6.512-.674-12.679-3-18.5.241-2.398-.426-4.398-2-6a487.064 487.064 0 0 0-12-33 127.633 127.633 0 0 0-6-17c-.557-4.552-1.557-8.885-3-13-.217-4.205-.883-8.205-2-12a981.041 981.041 0 0 1 1-54c1.081-3.127 1.747-6.46 2-10a107.135 107.135 0 0 0 4-14c1.793-1.926 2.793-4.259 3-7 14-21.333 31.667-39 53-53a16.339 16.339 0 0 0 5-2 89.08 89.08 0 0 1 11-6l13-4a155.593 155.593 0 0 1 33-3Z" style="opacity:1"/><path fill="#a00001" d="M647.5 250.5a155.593 155.593 0 0 0-33 3c10.785-3.692 21.785-4.692 33-3Z" style="opacity:1"/><path fill="#535050" d="M601.5 257.5a89.08 89.08 0 0 0-11 6c.172-.992-.162-1.658-1-2 3.558-2.435 7.558-3.768 12-4Z" style="opacity:1"/><path fill="#b9b3b3" d="M589.5 261.5c.838.342 1.172 1.008 1 2a16.339 16.339 0 0 1-5 2c1.16-1.703.493-2.369-2-2 1.714-1.238 3.714-1.905 6-2Z" style="opacity:1"/><path fill="#f9f9f9" d="M583.5 263.5c2.493-.369 3.16.297 2 2-21.333 14-39 31.667-53 53-1.793 1.926-2.793 4.259-3 7a107.135 107.135 0 0 1-4 14c-1.675 3.007-2.341 6.34-2 10-1.535 10.287-2.202 20.787-2 31.5 0 7.674.334 15.174 1 22.5-.417 4.317.25 8.317 2 12 1.443 4.115 2.443 8.448 3 13 .842 6.2 2.842 11.867 6 17a487.064 487.064 0 0 1 12 33c-.241 2.398.426 4.398 2 6 2.326 5.821 3.326 11.988 3 18.5.192 4.772-.475 9.272-2 13.5a107.135 107.135 0 0 0-4 14 66.254 66.254 0 0 1-8 17c-2.125 2.588-3.458 5.588-4 9a785.318 785.318 0 0 1-18 33c-1.629 2.358-2.795 5.024-3.5 8-.815 4.852-.648 9.519.5 14 1.7 4.405 3.7 8.738 6 13 1.667 3.667 4.333 6.333 8 8 8.315 7.66 17.981 12.993 29 16-4.805.987-9.805 1.321-15 1a46.809 46.809 0 0 1-13-1c-4.733-2.244-9.733-3.911-15-5-17.715-6.709-28.049-19.376-31-38a53.89 53.89 0 0 1 3.5-14 1111.335 1111.335 0 0 0 29-56c6.234-14.953 7.567-30.286 4-46l-19-53c-7.13-28.016-8.464-56.349-4-85 4.169-21.839 14.669-40.006 31.5-54.5 13.815-13.079 29.481-23.412 47-31a28.778 28.778 0 0 1 11-2.5Z" style="opacity:1"/><path fill="#890002" d="M698.5 274.5c4.881 7.824 5.214 15.824 1 24 1.562-8.117 1.229-16.117-1-24Z" style="opacity:1"/><path fill="#a69696" d="M532.5 318.5c-.207 2.741-1.207 5.074-3 7 .207-2.741 1.207-5.074 3-7Z" style="opacity:1"/><path fill="#aaa2a2" d="M525.5 339.5c-.253 3.54-.919 6.873-2 10-.341-3.66.325-6.993 2-10Z" style="opacity:1"/><path fill="#a29998" d="M523.5 349.5a981.041 981.041 0 0 0-1 54c-.666-7.326-1-14.826-1-22.5-.202-10.713.465-21.213 2-31.5Z" style="opacity:1"/><path fill="#b1a4a3" d="M522.5 403.5c1.117 3.795 1.783 7.795 2 12-1.75-3.683-2.417-7.683-2-12Z" style="opacity:1"/><path fill="#7d0001" d="M664.5 423.5a127.633 127.633 0 0 1 6 17c-3.158-5.133-5.158-10.8-6-17Z" style="opacity:1"/><path fill="#afa2a1" d="M527.5 428.5a127.633 127.633 0 0 1 6 17c-3.158-5.133-5.158-10.8-6-17Z" style="opacity:1"/><path fill="#7c0001" d="M672.5 446.5c1.371 2.436 2.371 5.103 3 8-2.155-2.117-3.155-4.784-3-8Z" style="opacity:1"/><path fill="#fefefe" d="M921.5 479.5c1.705 6.514 2.371 13.181 2 20a22.394 22.394 0 0 1-2.5 8c-12.991 18.45-23.491 38.117-31.5 59-1.916 3.663-2.916 7.663-3 12 .202 2.45-.131 4.783-1 7-.768.763-1.268 1.763-1.5 3-.82 6.514-.653 12.847.5 19 .997 6.629 1.997 13.295 3 20 .223 3.662 1.223 6.995 3 10a81.712 81.712 0 0 0 3.5 12c.383.556.883.889 1.5 1a31.686 31.686 0 0 1 2 6c.177 4.208 1.51 7.874 4 11a31.686 31.686 0 0 1 2 6c.177 4.208 1.51 7.874 4 11a31.686 31.686 0 0 1 2 6c.223 3.662 1.223 6.995 3 10-.09 2.652.576 4.985 2 7 1.76 4.047 2.76 8.38 3 13-.198 5.25.469 10.25 2 15v19a423.981 423.981 0 0 1-5 28c-1.036 5.785-3.036 11.118-6 16-1.406.473-2.073 1.473-2 3-6.618 12.792-15.952 23.292-28 31.5-14.44 10.384-30.44 17.217-48 20.5-4.264-.156-8.264.511-12 2h-2a311.237 311.237 0 0 1-39-2h-1a148.09 148.09 0 0 0-13-5c-10.738-7.07-19.405-16.07-26-27-.603-8.185.231-16.185 2.5-24l21-40a163.388 163.388 0 0 0 6.5-16c7.048-13.758 9.548-28.425 7.5-44-5.046-18.314-11.546-35.981-19.5-53a2358.993 2358.993 0 0 1-6.5-30 506.513 506.513 0 0 1 1.5-68 249.85 249.85 0 0 1 9-25c14.181-19.346 31.181-35.846 51-49.5a154.335 154.335 0 0 1 21-10.5c4.09-1.395 8.09-2.728 12-4 20.094-3.767 39.761-2.267 59 4.5 8.432 3.601 14.765 9.434 19 17.5Z" style="opacity:1"/><path fill="#898989" d="M843.5 457.5a892.227 892.227 0 0 0-12 4h-2c-2.787-.977-5.787-1.31-9-1 7.295-2.555 14.962-3.555 23-3Z" style="opacity:1"/><path fill="#fcfcfc" d="M820.5 460.5c3.213-.31 6.213.023 9 1-14.389 5.561-27.389 13.394-39 23.5a212.808 212.808 0 0 0-22.5 22.5 50.373 50.373 0 0 0-8.5 14c-5.154 7.455-8.154 15.789-9 25-1.581 4.771-2.748 9.771-3.5 15a624.938 624.938 0 0 0 0 50c1.455 11.491 4.289 22.491 8.5 33a1642.122 1642.122 0 0 1 17.5 53c.667 8 .667 16 0 24a220.993 220.993 0 0 1-5.5 20c-9.789 18.907-19.622 37.907-29.5 57-3.037 7.755-3.204 15.422-.5 23 4.507 12.509 12.841 21.509 25 27-4.805.987-9.805 1.321-15 1-2.235.295-4.235-.039-6-1-2.015-1.424-4.348-2.09-7-2-13.679-4.764-24.179-13.431-31.5-26-3.333-9-3.333-18 0-27a629.498 629.498 0 0 0 30-60c4.739-14.043 5.739-28.376 3-43a1770.428 1770.428 0 0 1-19-53 190.336 190.336 0 0 1-5-23c-.667-18-.667-36 0-54 1.878-17.309 7.878-32.975 18-47 16.62-19.713 36.453-35.213 59.5-46.5 9.991-3.915 20.325-6.082 31-6.5Z" style="opacity:1"/><path fill="#7b0001" d="M677.5 460.5c1.371 2.436 2.371 5.103 3 8-2.155-2.117-3.155-4.784-3-8Z" style="opacity:1"/><path fill="#b4b4b4" d="M829.5 461.5h2a154.335 154.335 0 0 0-21 10.5c-19.819 13.654-36.819 30.154-51 49.5a50.373 50.373 0 0 1 8.5-14 212.808 212.808 0 0 1 22.5-22.5c11.611-10.106 24.611-17.939 39-23.5Z" style="opacity:1"/><path fill="#0055d4" d="M494.5 498.5a68.673 68.673 0 0 1 0 23c.009 1.808-.491 3.475-1.5 5-11.693 16.398-21.526 33.731-29.5 52-3.044 5.162-4.711 10.828-5 17 .284 1.915-.049 3.581-1 5-.768.763-1.268 1.763-1.5 3-.824 9.176-.657 18.176.5 27a169.727 169.727 0 0 1 3 16c-.09 2.652.576 4.985 2 7a1450.173 1450.173 0 0 1 23.5 64 106.33 106.33 0 0 1 5.5 26 436.006 436.006 0 0 1 1 35c-.635 10.201-2.968 19.868-7 29-1.793 1.926-2.793 4.259-3 7a130.126 130.126 0 0 1-14.5 22c-19.683 20.092-43.516 32.092-71.5 36a311.122 311.122 0 0 1-40 .5 109.646 109.646 0 0 0-17-3.5 14850.28 14850.28 0 0 1-8-3c-1.705-1.692-3.705-3.025-6-4a2464.252 2464.252 0 0 1-7-6c-2-2.667-4.333-5-7-7-5.941-8.917-7.441-18.583-4.5-29l27.5-55c2.125-2.588 3.458-5.588 4-9 1.431-1.28 2.098-2.947 2-5 1.424-2.015 2.09-4.348 2-7 1.493-5.592 2.159-11.426 2-17.5-.001-4.015-.335-7.849-1-11.5-.487-5.791-2.154-11.124-5-16a403.463 403.463 0 0 0-11-30 127.633 127.633 0 0 0-6-17 318.64 318.64 0 0 0-5-24 856.155 856.155 0 0 1 1-52c2.735-18.811 9.902-35.811 21.5-51 16.899-19.089 36.732-34.089 59.5-45 2.286-.095 4.286-.762 6-2 20.821-6.133 41.821-6.633 63-1.5 10.051 3.108 18.551 8.608 25.5 16.5a19.177 19.177 0 0 1 2.5 5Z" style="opacity:1"/><path fill="#7a0001" d="M682.5 474.5c1.371 2.436 2.371 5.103 3 8-2.155-2.117-3.155-4.784-3-8Z" style="opacity:1"/><path fill="#a0a0a2" d="M403.5 478.5c-1.714 1.238-3.714 1.905-6 2-1.419-.951-3.085-1.284-5-1 2.64-.921 5.473-1.588 8.5-2 1.07.028 1.903.361 2.5 1Z" style="opacity:1"/><path fill="#f8f8f9" d="M392.5 479.5c1.915-.284 3.581.049 5 1-22.768 10.911-42.601 25.911-59.5 45-11.598 15.189-18.765 32.189-21.5 51-.809 1.792-1.309 3.792-1.5 6-.828 15.506-.661 30.839.5 46a318.64 318.64 0 0 1 5 24c.842 6.2 2.842 11.867 6 17a403.463 403.463 0 0 1 11 30 111.961 111.961 0 0 0 5 16c.665 3.651.999 7.485 1 11.5.159 6.074-.507 11.908-2 17.5-1.424 2.015-2.09 4.348-2 7 .098 2.053-.569 3.72-2 5-2.125 2.588-3.458 5.588-4 9l-27.5 55c-2.941 10.417-1.441 20.083 4.5 29 1.333 3.333 3.667 5.667 7 7 2.358 2.029 4.692 4.029 7 6-.086.996.248 1.829 1 2.5a49.602 49.602 0 0 1-10-.5c-17.114-5.28-28.948-16.28-35.5-33-.93-6.504-.264-12.838 2-19a1107.007 1107.007 0 0 0 29-56c7.101-15.467 8.767-31.467 5-48a2423.16 2423.16 0 0 1-19-52 156.449 156.449 0 0 1-5.5-27 516.122 516.122 0 0 1 2-59c1.792-13.545 6.625-25.878 14.5-37 19.72-24.269 44.22-41.769 73.5-52.5a93.497 93.497 0 0 1 11-1.5Z" style="opacity:1"/><path fill="#afa09f" d="M545.5 478.5c1.574 1.602 2.241 3.602 2 6-1.574-1.602-2.241-3.602-2-6Z" style="opacity:1"/><path fill="#b3b3b3" d="M921.5 479.5c1.293 1.342 2.126 3.009 2.5 5 .816 5.184.65 10.184-.5 15 .371-6.819-.295-13.486-2-20Z" style="opacity:1"/><path fill="#800001" d="M687.5 489.5c1.574 1.602 2.241 3.602 2 6-1.574-1.602-2.241-3.602-2-6Z" style="opacity:.996"/><path fill="#7b0001" d="M689.5 495.5c1.424 2.015 2.09 4.348 2 7-1.424-2.015-2.09-4.348-2-7Z" style="opacity:1"/><path fill="#003b99" d="M494.5 498.5c2.146 3.412 3.146 7.245 3 11.5.146 4.255-.854 8.088-3 11.5a68.673 68.673 0 0 0 0-23Z" style="opacity:1"/><path fill="#a99999" d="M548.5 516.5c-.11 5.122-1.444 9.788-4 14a107.135 107.135 0 0 1 4-14Z" style="opacity:1"/><path fill="#790000" d="M694.5 515.5c1.472 4.419 2.138 9.086 2 14-1.472-4.419-2.138-9.086-2-14Z" style="opacity:.988"/><path fill="#b4b4b4" d="M759.5 521.5a249.85 249.85 0 0 0-9 25c.846-9.211 3.846-17.545 9-25Z" style="opacity:1"/><path fill="#a79696" d="M536.5 547.5c-.542 3.412-1.875 6.412-4 9 .542-3.412 1.875-6.412 4-9Z" style="opacity:1"/><path fill="#7f0000" d="M696.5 551.5c.198 5.25-.469 10.25-2 15-.056-5.231.611-10.231 2-15Z" style="opacity:.988"/><path fill="#a3a3a3" d="M889.5 566.5c-.398 4.261-1.398 8.261-3 12 .084-4.337 1.084-8.337 3-12Z" style="opacity:.992"/><path fill="#002f7e" d="M463.5 578.5a256.586 256.586 0 0 1-5 17c.289-6.172 1.956-11.838 5-17Z" style="opacity:.992"/><path fill="#c2c2c2" d="M750.5 546.5a506.513 506.513 0 0 0-1.5 68 2358.993 2358.993 0 0 0 6.5 30c-4.211-10.509-7.045-21.509-8.5-33a624.938 624.938 0 0 1 0-50c.752-5.229 1.919-10.229 3.5-15Z" style="opacity:1"/><path fill="#b7b7b7" d="M885.5 585.5a228.111 228.111 0 0 0-1 22c-1.153-6.153-1.32-12.486-.5-19 .232-1.237.732-2.237 1.5-3Z" style="opacity:.99"/><path fill="#d0d0d0" d="M293.5 570.5a516.122 516.122 0 0 0-2 59c-1.161-15.828-1.328-31.828-.5-48 .419-3.892 1.252-7.558 2.5-11Z" style="opacity:1"/><path fill="#a19291" d="M514.5 589.5c-2.522 7.097-3.522 14.43-3 22-1.148-4.481-1.315-9.148-.5-14 .705-2.976 1.871-5.642 3.5-8Z" style="opacity:1"/><path fill="#b0b0b2" d="M316.5 576.5a856.155 856.155 0 0 0-1 52c-1.161-15.161-1.328-30.494-.5-46 .191-2.208.691-4.208 1.5-6Z" style="opacity:1"/><path fill="#002e7b" d="M457.5 600.5a354.439 354.439 0 0 0-1 30c-1.157-8.824-1.324-17.824-.5-27 .232-1.237.732-2.237 1.5-3Z" style="opacity:.924"/><path fill="#aa8c8b" d="M517.5 624.5c3 2.333 5.667 5 8 8-3.667-1.667-6.333-4.333-8-8Z" style="opacity:1"/><path fill="#9e9e9e" d="M887.5 627.5c1.777 3.005 2.777 6.338 3 10-1.777-3.005-2.777-6.338-3-10Z" style="opacity:1"/><path fill="#a2a2a2" d="M890.5 637.5c2.234 4.022 3.901 8.356 5 13-.617-.111-1.117-.444-1.5-1a81.712 81.712 0 0 1-3.5-12Z" style="opacity:1"/><path fill="#b6b6b6" d="M511.5 643.5c5.267 1.089 10.267 2.756 15 5-5.415-.694-10.415-2.36-15-5Z" style="opacity:1"/><path fill="#002f7b" d="M459.5 646.5c1.424 2.015 2.09 4.348 2 7-1.424-2.015-2.09-4.348-2-7Z" style="opacity:1"/><path fill="#826e6c" d="M554.5 648.5c6.582-.344 12.916.323 19 2-11.512.328-22.846-.005-34-1 5.195.321 10.195-.013 15-1Z" style="opacity:.988"/><path fill="#a6a7b1" d="M320.5 652.5a127.633 127.633 0 0 1 6 17c-3.158-5.133-5.158-10.8-6-17Z" style="opacity:1"/><path fill="#9b9c9b" d="M897.5 656.5c1.704 3.439 3.038 7.105 4 11-2.49-3.126-3.823-6.792-4-11Z" style="opacity:1"/><path fill="#9c9c9c" d="M903.5 673.5c1.704 3.439 3.038 7.105 4 11-2.49-3.126-3.823-6.792-4-11Z" style="opacity:1"/><path fill="#8e8f8e" d="M616.5 678.5c13-1.333 26-1.333 39 0-4.92.955-9.92 1.622-15 2 .111-.617.444-1.117 1-1.5-8.327-.5-16.66-.666-25-.5Z" style="opacity:.841"/><path fill="#fafafa" d="M616.5 678.5c8.34-.166 16.673 0 25 .5-.556.383-.889.883-1 1.5-2.995-.206-5.662.46-8 2-.709.904-1.709 1.237-3 1-3.042.233-5.708 1.233-8 3-1.014 1.174-2.347 1.84-4 2-2.589-.039-4.589.961-6 3-22.774 13.104-41.774 30.437-57 52-3.04 3.414-5.04 7.414-6 12-2.513 3.878-3.846 8.211-4 13-2.376 4.606-3.376 9.606-3 15-.809 1.792-1.309 3.792-1.5 6a528.986 528.986 0 0 0 0 46c.419 3.892 1.252 7.558 2.5 11 1.602 3.739 2.602 7.739 3 12-.09 2.652.576 4.985 2 7 1.704 3.439 3.038 7.105 4 11-.155 3.216.845 5.883 3 8a205.456 205.456 0 0 1 12 34c.646 8.652.979 17.318 1 26 .285 3.329-.382 6.329-2 9-1.572 2.715-2.572 5.715-3 9-1.793 1.926-2.793 4.259-3 7-.492 2.319-1.492 4.319-3 6-2.457 3.251-4.124 6.918-5 11-.16 1.653-.826 2.986-2 4-2.088 1.836-3.421 4.169-4 7-.16 1.653-.826 2.99-2 4-2.088 1.84-3.421 4.17-4 7-.492 2.32-1.492 4.32-3 6-2.373 2.08-3.706 4.75-4 8-2.18 2.88-3.18 6.21-3 10-.661 1.63-.994 3.47-1 5.5-.14 3.15.527 5.98 2 8.5 3.785 7.21 8.785 13.54 15 19-.12 1.09-.787 1.75-2 2a93.856 93.856 0 0 0-15-4c-11.824-5.32-20.99-13.65-27.5-25-3.673-9.95-3.007-19.61 2-29a959.678 959.678 0 0 0 27-52c6.006-13.751 8.006-28.084 6-43a1998.455 1998.455 0 0 0-20-57 211.25 211.25 0 0 1-6-28c-.667-15-.667-30 0-45 1.449-18.684 7.449-35.684 18-51 16.879-20.844 37.379-37.011 61.5-48.5a113.93 113.93 0 0 1 27-6.5Z" style="opacity:1"/><path fill="#009b36" d="M655.5 678.5c14.447-.61 28.447 1.557 42 6.5 8.127 3.639 14.46 9.139 19 16.5 2.236 8.218 2.569 16.551 1 25a686.507 686.507 0 0 1-17.5 30 614.544 614.544 0 0 0-14.5 30c-1.424 2.015-2.09 4.348-2 7-2.002 4.333-3.002 9-3 14v1c-1.479 4.409-2.146 9.076-2 14 .002 3.186.335 6.186 1 9 .893 7.637 2.393 15.303 4.5 23a2271.928 2271.928 0 0 1 21.5 62 18.074 18.074 0 0 0 2 8c-2.655 2.374-2.155 4.374 1.5 6 .566 2.223 1.4 4.223 2.5 6v1c-.005 6.291.995 12.291 3 18a93.38 93.38 0 0 1 0 27c-1.637 5.427-2.637 11.093-3 17-6.311 26.82-21.311 47.32-45 61.5a93.254 93.254 0 0 1-27 12.5c-9.703 1.01-19.036 3.01-28 6-13.351.17-26.685-.17-40-1a56.043 56.043 0 0 1-16-5 58.476 58.476 0 0 0-10-8c-6.215-5.46-11.215-11.79-15-19-.627-4.64-.96-9.31-1-14 1.37-3.12 2.37-6.45 3-10 1.841-2.35 3.174-5.02 4-8 1.508-1.68 2.508-3.68 3-6 2.088-1.84 3.421-4.17 4-7 1.174-1.01 1.84-2.347 2-4 2.088-1.836 3.421-4.169 4-7 1.174-1.014 1.84-2.347 2-4 2.457-3.251 4.124-6.918 5-11 1.508-1.681 2.508-3.681 3-6 1.793-1.926 2.793-4.259 3-7 1.972-2.584 2.972-5.584 3-9 1.618-2.671 2.285-5.671 2-9 .665-3.317.999-6.817 1-10.5.174-5.421-.493-10.587-2-15.5a205.456 205.456 0 0 0-12-34c-.629-2.897-1.629-5.564-3-8-.962-3.895-2.296-7.561-4-11 .09-2.652-.576-4.985-2-7-.398-4.261-1.398-8.261-3-12a346.075 346.075 0 0 1-1-63c1.123-4.85 2.123-9.85 3-15 1.704-4.117 3.037-8.451 4-13 2.508-3.682 4.508-7.682 6-12 15.226-21.563 34.226-38.896 57-52 2.319-.492 4.319-1.492 6-3 1.653-.16 2.986-.826 4-2 3.042-.233 5.708-1.233 8-3 1.291.237 2.291-.096 3-1 2.928-.065 5.595-.732 8-2 5.08-.378 10.08-1.045 15-2Z" style="opacity:1"/><path fill="#a1a6a2" d="M640.5 680.5c-2.405 1.268-5.072 1.935-8 2 2.338-1.54 5.005-2.206 8-2Z" style="opacity:1"/><path fill="#bababa" d="M755.5 644.5c7.954 17.019 14.454 34.686 19.5 53 2.048 15.575-.452 30.242-7.5 44a220.993 220.993 0 0 0 5.5-20c.667-8 .667-16 0-24a1642.122 1642.122 0 0 0-17.5-53Z" style="opacity:1"/><path fill="#99a29a" d="M629.5 683.5c-2.292 1.767-4.958 2.767-8 3 2.292-1.767 4.958-2.767 8-3Z" style="opacity:1"/><path fill="#939e94" d="M617.5 688.5c-1.681 1.508-3.681 2.508-6 3 1.411-2.039 3.411-3.039 6-3Z" style="opacity:1"/><path fill="#9a9a9a" d="M909.5 690.5c1.777 3.005 2.777 6.338 3 10-1.777-3.005-2.777-6.338-3-10Z" style="opacity:1"/><path fill="#acadb6" d="M337.5 699.5c2.846 4.876 4.513 10.209 5 16a111.961 111.961 0 0 1-5-16Z" style="opacity:1"/><path fill="#a0a0a0" d="M912.5 700.5c1.424 2.015 2.09 4.348 2 7-1.424-2.015-2.09-4.348-2-7Z" style="opacity:1"/><path fill="#006f25" d="M716.5 701.5c4.835 8.17 5.168 16.504 1 25 1.569-8.449 1.236-16.782-1-25Z" style="opacity:1"/><path fill="#989898" d="M917.5 720.5c1.531 4.75 2.198 9.75 2 15-1.531-4.75-2.198-9.75-2-15Z" style="opacity:.984"/><path fill="#8f9c90" d="M554.5 743.5c-1.492 4.318-3.492 8.318-6 12 .96-4.586 2.96-8.586 6-12Z" style="opacity:1"/><path fill="#a0a1ab" d="M341.5 744.5c.09 2.652-.576 4.985-2 7-.09-2.652.576-4.985 2-7Z" style="opacity:1"/><path fill="#002c77" d="M490.5 743.5c1.501 6.77 2.167 13.77 2 21-.001 4.846-.334 9.512-1 14a436.006 436.006 0 0 0-1-35Z" style="opacity:.979"/><path fill="#9da59e" d="M548.5 755.5c-.963 4.549-2.296 8.883-4 13 .154-4.789 1.487-9.122 4-13Z" style="opacity:1"/><path fill="#9c9daa" d="M337.5 756.5c-.542 3.412-1.875 6.412-4 9 .542-3.412 1.875-6.412 4-9Z" style="opacity:1"/><path fill="#a3a3a3" d="M919.5 754.5c.177 9.789-1.489 19.123-5 28a423.981 423.981 0 0 0 5-28Z" style="opacity:.992"/><path fill="#a1a6a2" d="M544.5 768.5a259.968 259.968 0 0 1-3 15c-.376-5.394.624-10.394 3-15Z" style="opacity:1"/><path fill="#b4b4b4" d="M767.5 741.5a163.388 163.388 0 0 1-6.5 16l-21 40c-2.269 7.815-3.103 15.815-2.5 24-2.704-7.578-2.537-15.245.5-23 9.878-19.093 19.711-38.093 29.5-57Z" style="opacity:1"/><path fill="#005d1d" d="M685.5 786.5c.09 2.652-.576 4.985-2 7-.09-2.652.576-4.985 2-7Z" style="opacity:.992"/><path fill="#00541a" d="M683.5 793.5c-.51 4.891-1.51 9.558-3 14-.002-5 .998-9.667 3-14Z" style="opacity:.957"/><path fill="#868685" d="M908.5 798.5c.073 1.527-.594 2.527-2 3-.073-1.527.594-2.527 2-3Z" style="opacity:.961"/><path fill="#002e7b" d="M484.5 807.5c-.207 2.741-1.207 5.074-3 7 .207-2.741 1.207-5.074 3-7Z" style="opacity:.984"/><path fill="#006421" d="M680.5 808.5a236.302 236.302 0 0 0-1 23c-.665-2.814-.998-5.814-1-9-.146-4.924.521-9.591 2-14Z" style="opacity:.984"/><path fill="#acafad" d="M541.5 783.5a346.075 346.075 0 0 0 1 63c-1.248-3.442-2.081-7.108-2.5-11a528.986 528.986 0 0 1 0-46c.191-2.208.691-4.208 1.5-6Z" style="opacity:1"/><path fill="#b9b9b9" d="M737.5 821.5c6.595 10.93 15.262 19.93 26 27h-1c-12.159-5.491-20.493-14.491-25-27Z" style="opacity:1"/><path fill="#9e9e9e" d="M734.5 846.5c2.652-.09 4.985.576 7 2-2.652.09-4.985-.576-7-2Z" style="opacity:1"/><path fill="#939393" d="M762.5 848.5h1a148.09 148.09 0 0 1 13 5c-9.927-.38-19.594-1.714-29-4 5.195.321 10.195-.013 15-1Z" style="opacity:1"/><path fill="#a0a2b2" d="M310.5 849.5c2.667 2 5 4.333 7 7-3.333-1.333-5.667-3.667-7-7Z" style="opacity:1"/><path fill="#8e8e8e" d="M830.5 853.5c-3.767 1.295-7.767 1.961-12 2 3.736-1.489 7.736-2.156 12-2Z" style="opacity:.984"/><path fill="#9a9a9a" d="M777.5 853.5a311.237 311.237 0 0 0 39 2c-8.49 1.157-17.157 1.324-26 .5-4.601-.149-8.934-.982-13-2.5Z" style="opacity:.996"/><path fill="#96a297" d="M545.5 858.5c1.424 2.015 2.09 4.348 2 7-1.424-2.015-2.09-4.348-2-7Z" style="opacity:1"/><path fill="#b7b7b9" d="M324.5 862.5c2.295.975 4.295 2.308 6 4-.709.904-1.709 1.237-3 1-4.261-.398-8.261-1.398-12-3 3.341.505 6.674.672 10 .5-.752-.671-1.086-1.504-1-2.5Z" style="opacity:1"/><path fill="#4c4b4c" d="m330.5 866.5 8 3v1c-3.897-.555-7.563-1.555-11-3 1.291.237 2.291-.096 3-1Z" style="opacity:1"/><path fill="#013488" d="M338.5 870.5v-1a109.646 109.646 0 0 1 17 3.5c13.349.691 26.683.525 40-.5-1.792.809-3.792 1.309-6 1.5-12 .667-24 .667-36 0a125.71 125.71 0 0 1-15-3.5Z" style="opacity:1"/><path fill="#a1aaa2" d="M551.5 876.5c1.371 2.436 2.371 5.103 3 8-2.155-2.117-3.155-4.784-3-8Z" style="opacity:1"/><path fill="#007c2a" d="M705.5 916.5c2.602 6.391 4.602 13.057 6 20-1.1-1.777-1.934-3.777-2.5-6-3.655-1.626-4.155-3.626-1.5-6a18.074 18.074 0 0 1-2-8Z" style="opacity:1"/><path fill="#a6aba6" d="M566.5 918.5c1.507 4.913 2.174 10.079 2 15.5-.001 3.683-.335 7.183-1 10.5a360.785 360.785 0 0 0-1-26Z" style="opacity:1"/><path fill="#006722" d="M711.5 937.5c2.005 5.709 3.005 11.709 3 18-2.005-5.709-3.005-11.709-3-18Z" style="opacity:1"/><path fill="#97a198" d="M565.5 953.5c-.028 3.416-1.028 6.416-3 9 .428-3.285 1.428-6.285 3-9Z" style="opacity:1"/><path fill="#9ba39c" d="M562.5 962.5c-.207 2.741-1.207 5.074-3 7 .207-2.741 1.207-5.074 3-7Z" style="opacity:1"/><path fill="#97a198" d="M556.5 975.5c-.876 4.082-2.543 7.749-5 11 .876-4.082 2.543-7.749 5-11Z" style="opacity:1"/><path fill="#005a1c" d="M714.5 982.5c-.048 5.96-1.048 11.627-3 17 .363-5.907 1.363-11.573 3-17Z" style="opacity:.965"/><path fill="#8c9a8d" d="M549.5 990.5c-.579 2.831-1.912 5.164-4 7 .579-2.831 1.912-5.164 4-7Z" style="opacity:1"/><path fill="#8b9a8c" d="M543.5 1001.5c-.579 2.83-1.912 5.16-4 7 .579-2.83 1.912-5.16 4-7Z" style="opacity:1"/><path fill="#8e9b8f" d="M536.5 1014.5c-.826 2.98-2.159 5.65-4 8 .294-3.25 1.627-5.92 4-8Z" style="opacity:1"/><path fill="#939d94" d="M532.5 1022.5c-.63 3.55-1.63 6.88-3 10-.18-3.79.82-7.12 3-10Z" style="opacity:1"/><path fill="#a1a6a2" d="M529.5 1032.5c.04 4.69.373 9.36 1 14-1.473-2.52-2.14-5.35-2-8.5.006-2.03.339-3.87 1-5.5Z" style="opacity:1"/><path fill="#898b89" d="M528.5 1063.5c5.07.91 10.07 2.24 15 4 1.213-.25 1.88-.91 2-2a58.476 58.476 0 0 1 10 8 490.922 490.922 0 0 1-27-10Z" style="opacity:1"/><path fill="#007427" d="M639.5 1073.5c-8.867 3.64-18.201 5.64-28 6 8.964-2.99 18.297-4.99 28-6Z" style="opacity:1"/><path fill="#006a23" d="M571.5 1078.5c13.315.83 26.649 1.17 40 1-11.493 1.16-23.159 1.33-35 .5-1.882-.2-3.548-.7-5-1.5Z" style="opacity:1"/></svg>
