<?xml version="1.0" encoding="UTF-8"?>
<!DOCTYPE svg PUBLIC "-//W3C//DTD SVG 1.1//EN" "http://www.w3.org/Graphics/SVG/1.1/DTD/svg11.dtd">
<svg xmlns="http://www.w3.org/2000/svg" version="1.1" width="1280px" height="1280px" style="shape-rendering:geometricPrecision; text-rendering:geometricPrecision; image-rendering:optimizeQuality; fill-rule:evenodd; clip-rule:evenodd" xmlns:xlink="http://www.w3.org/1999/xlink">
<g><path style="opacity:0.288" fill="#020202" d="M 625.5,243.5 C 644.05,242.319 662.05,244.819 679.5,251C 705.959,264.365 713.459,284.865 702,312.5C 692.504,326.666 683.838,341.332 676,356.5C 666.002,378.154 664.002,400.487 670,423.5C 678.136,446.909 686.47,470.243 695,493.5C 699.055,508.942 701.721,524.608 703,540.5C 706.141,529.218 711.141,518.885 718,509.5C 725.833,501.667 733.667,493.833 741.5,486C 755.844,473.324 772.178,463.99 790.5,458C 813.822,453.594 837.322,450.427 861,448.5C 878.768,448.386 895.601,452.219 911.5,460C 915.315,464.145 919.481,467.978 924,471.5C 930.156,485.084 931.156,499.084 927,513.5C 916.566,529.966 906.899,546.966 898,564.5C 889.355,584.997 887.688,605.997 893,627.5C 899.773,647.818 906.939,667.985 914.5,688C 926.085,721.351 927.919,755.185 920,789.5C 909.401,820.777 888.901,843.277 858.5,857C 835.422,866.535 811.422,870.202 786.5,868C 765.578,866.154 744.911,862.821 724.5,858C 708.588,851.761 696.755,840.927 689,825.5C 688.13,821.176 687.297,816.842 686.5,812.5C 683.875,824.181 684.041,835.848 687,847.5C 695.511,872.538 704.177,897.538 713,922.5C 723.528,957.07 722.861,991.403 711,1025.5C 704.387,1038.11 696.22,1049.61 686.5,1060C 652.841,1086.65 614.508,1097.32 571.5,1092C 564.314,1091.12 557.314,1089.45 550.5,1087C 536.1,1082.31 522.1,1076.64 508.5,1070C 498.347,1063.18 491.18,1054.01 487,1042.5C 484.85,1032.75 485.183,1023.09 488,1013.5C 498.861,993.112 509.194,972.445 519,951.5C 524.032,939.051 524.699,926.384 521,913.5C 511.133,890.898 503.466,867.565 498,843.5C 496.783,825.53 496.116,807.53 496,789.5C 491.063,824.244 473.563,850.41 443.5,868C 408.433,886.509 371.433,891.509 332.5,883C 318.895,880.881 305.895,876.881 293.5,871C 284.045,865.212 276.212,857.712 270,848.5C 266.187,837.385 265.52,826.052 268,814.5C 278.667,793.167 289.333,771.833 300,750.5C 304.606,739.144 305.606,727.477 303,715.5C 298.306,702.612 293.472,689.778 288.5,677C 284.321,666.119 281.155,654.952 279,643.5C 277.422,623.534 277.089,603.534 278,583.5C 279.427,564.219 285.427,546.553 296,530.5C 314.059,507.903 336.226,490.737 362.5,479C 396.212,467.659 430.545,464.992 465.5,471C 482.601,475.105 494.434,485.272 501,501.5C 503.293,512.486 502.293,523.152 498,533.5C 487.533,549.986 477.867,566.986 469,584.5C 460.318,606.181 459.318,628.181 466,650.5C 475.599,676.297 484.599,702.297 493,728.5C 496.382,744.989 498.049,761.656 498,778.5C 500.05,759.081 507.05,741.748 519,726.5C 533.372,709.93 549.872,696.097 568.5,685C 585.863,675.868 604.363,671.368 624,671.5C 639.497,672.088 654.997,672.588 670.5,673C 684.431,673.977 697.431,677.977 709.5,685C 715.601,690.049 720.101,696.216 723,703.5C 723.458,700.442 723.124,697.442 722,694.5C 718.382,684.307 714.382,674.307 710,664.5C 706.267,652.631 702.934,640.631 700,628.5C 698.014,613.908 697.014,599.242 697,584.5C 687.405,614.095 668.572,635.595 640.5,649C 620.229,658.421 598.895,662.921 576.5,662.5C 565.992,661.447 555.492,661.447 545,662.5C 517.355,664.85 494.355,655.85 476,635.5C 466.798,621.44 465.131,606.44 471,590.5C 480.403,573.415 489.403,556.082 498,538.5C 505.186,525.238 507.186,511.238 504,496.5C 496.398,476.693 489.398,456.693 483,436.5C 481.127,428.928 479.794,421.262 479,413.5C 478.149,395.14 478.482,376.807 480,358.5C 482.254,340.734 488.254,324.4 498,309.5C 512.01,294.811 527.177,281.644 543.5,270C 562.661,260.421 582.661,253.088 603.5,248C 610.931,246.281 618.265,244.781 625.5,243.5 Z"/></g>
<g><path style="opacity:1" fill="#c80000" d="M 647.5,250.5 C 666.364,250.282 682.531,256.615 696,269.5C 697.094,271.078 697.928,272.745 698.5,274.5C 700.729,282.383 701.062,290.383 699.5,298.5C 693.527,309.774 687.027,320.774 680,331.5C 662.906,360.138 657.74,390.805 664.5,423.5C 665.342,429.7 667.342,435.367 670.5,440.5C 671.363,442.421 672.029,444.421 672.5,446.5C 672.345,449.716 673.345,452.383 675.5,454.5C 676.363,456.421 677.029,458.421 677.5,460.5C 677.345,463.716 678.345,466.383 680.5,468.5C 681.363,470.421 682.029,472.421 682.5,474.5C 682.345,477.716 683.345,480.383 685.5,482.5C 686.566,484.701 687.233,487.035 687.5,489.5C 687.259,491.898 687.926,493.898 689.5,495.5C 689.41,498.152 690.076,500.485 691.5,502.5C 693.26,506.547 694.26,510.88 694.5,515.5C 694.362,520.414 695.028,525.081 696.5,529.5C 697.801,536.803 697.801,544.136 696.5,551.5C 695.111,556.269 694.444,561.269 694.5,566.5C 689.843,591.636 677.177,611.803 656.5,627C 631.575,644.249 603.908,652.083 573.5,650.5C 567.416,648.823 561.082,648.156 554.5,648.5C 543.481,645.493 533.815,640.16 525.5,632.5C 523.167,629.5 520.5,626.833 517.5,624.5C 515.2,620.238 513.2,615.905 511.5,611.5C 510.978,603.93 511.978,596.597 514.5,589.5C 520.75,578.668 526.75,567.668 532.5,556.5C 534.625,553.912 535.958,550.912 536.5,547.5C 539.955,542.254 542.622,536.587 544.5,530.5C 547.056,526.288 548.39,521.622 548.5,516.5C 550.025,512.272 550.692,507.772 550.5,503C 550.826,496.488 549.826,490.321 547.5,484.5C 547.741,482.102 547.074,480.102 545.5,478.5C 541.896,467.354 537.896,456.354 533.5,445.5C 531.871,439.608 529.871,433.941 527.5,428.5C 526.943,423.948 525.943,419.615 524.5,415.5C 524.283,411.295 523.617,407.295 522.5,403.5C 522.338,385.487 522.671,367.487 523.5,349.5C 524.581,346.373 525.247,343.04 525.5,339.5C 527.123,335.022 528.456,330.355 529.5,325.5C 531.293,323.574 532.293,321.241 532.5,318.5C 546.5,297.167 564.167,279.5 585.5,265.5C 587.284,265.107 588.95,264.441 590.5,263.5C 594.073,261.216 597.74,259.216 601.5,257.5C 605.833,256.167 610.167,254.833 614.5,253.5C 625.375,251.327 636.375,250.327 647.5,250.5 Z"/></g>
<g><path style="opacity:1" fill="#a00001" d="M 647.5,250.5 C 636.375,250.327 625.375,251.327 614.5,253.5C 625.285,249.808 636.285,248.808 647.5,250.5 Z"/></g>
<g><path style="opacity:1" fill="#535050" d="M 601.5,257.5 C 597.74,259.216 594.073,261.216 590.5,263.5C 590.672,262.508 590.338,261.842 589.5,261.5C 593.058,259.065 597.058,257.732 601.5,257.5 Z"/></g>
<g><path style="opacity:1" fill="#b9b3b3" d="M 589.5,261.5 C 590.338,261.842 590.672,262.508 590.5,263.5C 588.95,264.441 587.284,265.107 585.5,265.5C 586.66,263.797 585.993,263.131 583.5,263.5C 585.214,262.262 587.214,261.595 589.5,261.5 Z"/></g>
<g><path style="opacity:1" fill="#f9f9f9" d="M 583.5,263.5 C 585.993,263.131 586.66,263.797 585.5,265.5C 564.167,279.5 546.5,297.167 532.5,318.5C 530.707,320.426 529.707,322.759 529.5,325.5C 528.456,330.355 527.123,335.022 525.5,339.5C 523.825,342.507 523.159,345.84 523.5,349.5C 521.965,359.787 521.298,370.287 521.5,381C 521.5,388.674 521.834,396.174 522.5,403.5C 522.083,407.817 522.75,411.817 524.5,415.5C 525.943,419.615 526.943,423.948 527.5,428.5C 528.342,434.7 530.342,440.367 533.5,445.5C 537.896,456.354 541.896,467.354 545.5,478.5C 545.259,480.898 545.926,482.898 547.5,484.5C 549.826,490.321 550.826,496.488 550.5,503C 550.692,507.772 550.025,512.272 548.5,516.5C 546.877,520.978 545.544,525.645 544.5,530.5C 542.622,536.587 539.955,542.254 536.5,547.5C 534.375,550.088 533.042,553.088 532.5,556.5C 526.75,567.668 520.75,578.668 514.5,589.5C 512.871,591.858 511.705,594.524 511,597.5C 510.185,602.352 510.352,607.019 511.5,611.5C 513.2,615.905 515.2,620.238 517.5,624.5C 519.167,628.167 521.833,630.833 525.5,632.5C 533.815,640.16 543.481,645.493 554.5,648.5C 549.695,649.487 544.695,649.821 539.5,649.5C 535.069,649.769 530.735,649.436 526.5,648.5C 521.767,646.256 516.767,644.589 511.5,643.5C 493.785,636.791 483.451,624.124 480.5,605.5C 481.038,600.68 482.205,596.013 484,591.5C 494.192,573.116 503.859,554.449 513,535.5C 519.234,520.547 520.567,505.214 517,489.5C 510.667,471.833 504.333,454.167 498,436.5C 490.87,408.484 489.536,380.151 494,351.5C 498.169,329.661 508.669,311.494 525.5,297C 539.315,283.921 554.981,273.588 572.5,266C 576.014,264.438 579.681,263.605 583.5,263.5 Z"/></g>
<g><path style="opacity:1" fill="#890002" d="M 698.5,274.5 C 703.381,282.324 703.714,290.324 699.5,298.5C 701.062,290.383 700.729,282.383 698.5,274.5 Z"/></g>
<g><path style="opacity:1" fill="#a69696" d="M 532.5,318.5 C 532.293,321.241 531.293,323.574 529.5,325.5C 529.707,322.759 530.707,320.426 532.5,318.5 Z"/></g>
<g><path style="opacity:1" fill="#aaa2a2" d="M 525.5,339.5 C 525.247,343.04 524.581,346.373 523.5,349.5C 523.159,345.84 523.825,342.507 525.5,339.5 Z"/></g>
<g><path style="opacity:1" fill="#a29998" d="M 523.5,349.5 C 522.671,367.487 522.338,385.487 522.5,403.5C 521.834,396.174 521.5,388.674 521.5,381C 521.298,370.287 521.965,359.787 523.5,349.5 Z"/></g>
<g><path style="opacity:1" fill="#b1a4a3" d="M 522.5,403.5 C 523.617,407.295 524.283,411.295 524.5,415.5C 522.75,411.817 522.083,407.817 522.5,403.5 Z"/></g>
<g><path style="opacity:1" fill="#7d0001" d="M 664.5,423.5 C 666.871,428.941 668.871,434.608 670.5,440.5C 667.342,435.367 665.342,429.7 664.5,423.5 Z"/></g>
<g><path style="opacity:1" fill="#afa2a1" d="M 527.5,428.5 C 529.871,433.941 531.871,439.608 533.5,445.5C 530.342,440.367 528.342,434.7 527.5,428.5 Z"/></g>
<g><path style="opacity:1" fill="#7c0001" d="M 672.5,446.5 C 673.871,448.936 674.871,451.603 675.5,454.5C 673.345,452.383 672.345,449.716 672.5,446.5 Z"/></g>
<g><path style="opacity:1" fill="#fefefe" d="M 921.5,479.5 C 923.205,486.014 923.871,492.681 923.5,499.5C 923.174,502.311 922.341,504.978 921,507.5C 908.009,525.95 897.509,545.617 889.5,566.5C 887.584,570.163 886.584,574.163 886.5,578.5C 886.702,580.95 886.369,583.283 885.5,585.5C 884.732,586.263 884.232,587.263 884,588.5C 883.18,595.014 883.347,601.347 884.5,607.5C 885.497,614.129 886.497,620.795 887.5,627.5C 887.723,631.162 888.723,634.495 890.5,637.5C 891.35,641.553 892.516,645.553 894,649.5C 894.383,650.056 894.883,650.389 895.5,650.5C 896.363,652.421 897.029,654.421 897.5,656.5C 897.677,660.708 899.01,664.374 901.5,667.5C 902.363,669.421 903.029,671.421 903.5,673.5C 903.677,677.708 905.01,681.374 907.5,684.5C 908.363,686.421 909.029,688.421 909.5,690.5C 909.723,694.162 910.723,697.495 912.5,700.5C 912.41,703.152 913.076,705.485 914.5,707.5C 916.26,711.547 917.26,715.88 917.5,720.5C 917.302,725.75 917.969,730.75 919.5,735.5C 919.5,741.833 919.5,748.167 919.5,754.5C 918.168,763.767 916.502,773.1 914.5,782.5C 913.464,788.285 911.464,793.618 908.5,798.5C 907.094,798.973 906.427,799.973 906.5,801.5C 899.882,814.292 890.548,824.792 878.5,833C 864.06,843.384 848.06,850.217 830.5,853.5C 826.236,853.344 822.236,854.011 818.5,855.5C 817.833,855.5 817.167,855.5 816.5,855.5C 803.451,855.649 790.451,854.983 777.5,853.5C 777.167,853.5 776.833,853.5 776.5,853.5C 772.32,851.658 767.987,849.992 763.5,848.5C 752.762,841.43 744.095,832.43 737.5,821.5C 736.897,813.315 737.731,805.315 740,797.5C 747,784.167 754,770.833 761,757.5C 763.462,752.248 765.629,746.915 767.5,741.5C 774.548,727.742 777.048,713.075 775,697.5C 769.954,679.186 763.454,661.519 755.5,644.5C 753.276,634.549 751.109,624.549 749,614.5C 747.977,591.772 748.477,569.106 750.5,546.5C 753.029,538.084 756.029,529.75 759.5,521.5C 773.681,502.154 790.681,485.654 810.5,472C 817.323,467.922 824.323,464.422 831.5,461.5C 835.59,460.105 839.59,458.772 843.5,457.5C 863.594,453.733 883.261,455.233 902.5,462C 910.932,465.601 917.265,471.434 921.5,479.5 Z"/></g>
<g><path style="opacity:1" fill="#898989" d="M 843.5,457.5 C 839.59,458.772 835.59,460.105 831.5,461.5C 830.833,461.5 830.167,461.5 829.5,461.5C 826.713,460.523 823.713,460.19 820.5,460.5C 827.795,457.945 835.462,456.945 843.5,457.5 Z"/></g>
<g><path style="opacity:1" fill="#fcfcfc" d="M 820.5,460.5 C 823.713,460.19 826.713,460.523 829.5,461.5C 815.111,467.061 802.111,474.894 790.5,485C 782.43,491.947 774.93,499.447 768,507.5C 764.391,511.723 761.557,516.39 759.5,521.5C 754.346,528.955 751.346,537.289 750.5,546.5C 748.919,551.271 747.752,556.271 747,561.5C 746.333,578.167 746.333,594.833 747,611.5C 748.455,622.991 751.289,633.991 755.5,644.5C 761.631,662.059 767.464,679.726 773,697.5C 773.667,705.5 773.667,713.5 773,721.5C 771.472,728.28 769.639,734.947 767.5,741.5C 757.711,760.407 747.878,779.407 738,798.5C 734.963,806.255 734.796,813.922 737.5,821.5C 742.007,834.009 750.341,843.009 762.5,848.5C 757.695,849.487 752.695,849.821 747.5,849.5C 745.265,849.795 743.265,849.461 741.5,848.5C 739.485,847.076 737.152,846.41 734.5,846.5C 720.821,841.736 710.321,833.069 703,820.5C 699.667,811.5 699.667,802.5 703,793.5C 714.054,774.058 724.054,754.058 733,733.5C 737.739,719.457 738.739,705.124 736,690.5C 729.388,672.941 723.055,655.274 717,637.5C 714.858,629.932 713.191,622.265 712,614.5C 711.333,596.5 711.333,578.5 712,560.5C 713.878,543.191 719.878,527.525 730,513.5C 746.62,493.787 766.453,478.287 789.5,467C 799.491,463.085 809.825,460.918 820.5,460.5 Z"/></g>
<g><path style="opacity:1" fill="#7b0001" d="M 677.5,460.5 C 678.871,462.936 679.871,465.603 680.5,468.5C 678.345,466.383 677.345,463.716 677.5,460.5 Z"/></g>
<g><path style="opacity:1" fill="#b4b4b4" d="M 829.5,461.5 C 830.167,461.5 830.833,461.5 831.5,461.5C 824.323,464.422 817.323,467.922 810.5,472C 790.681,485.654 773.681,502.154 759.5,521.5C 761.557,516.39 764.391,511.723 768,507.5C 774.93,499.447 782.43,491.947 790.5,485C 802.111,474.894 815.111,467.061 829.5,461.5 Z"/></g>
<g><path style="opacity:1" fill="#0055d4" d="M 494.5,498.5 C 495.793,506.174 495.793,513.841 494.5,521.5C 494.509,523.308 494.009,524.975 493,526.5C 481.307,542.898 471.474,560.231 463.5,578.5C 460.456,583.662 458.789,589.328 458.5,595.5C 458.784,597.415 458.451,599.081 457.5,600.5C 456.732,601.263 456.232,602.263 456,603.5C 455.176,612.676 455.343,621.676 456.5,630.5C 457.75,635.754 458.75,641.087 459.5,646.5C 459.41,649.152 460.076,651.485 461.5,653.5C 469.796,674.543 477.629,695.876 485,717.5C 487.922,725.945 489.756,734.611 490.5,743.5C 491.302,755.148 491.635,766.815 491.5,778.5C 490.865,788.701 488.532,798.368 484.5,807.5C 482.707,809.426 481.707,811.759 481.5,814.5C 477.433,822.29 472.6,829.624 467,836.5C 447.317,856.592 423.484,868.592 395.5,872.5C 382.183,873.525 368.849,873.691 355.5,873C 349.992,871.398 344.326,870.231 338.5,869.5C 335.828,868.499 333.162,867.499 330.5,866.5C 328.795,864.808 326.795,863.475 324.5,862.5C 322.192,860.529 319.858,858.529 317.5,856.5C 315.5,853.833 313.167,851.5 310.5,849.5C 304.559,840.583 303.059,830.917 306,820.5C 315.178,802.145 324.344,783.811 333.5,765.5C 335.625,762.912 336.958,759.912 337.5,756.5C 338.931,755.22 339.598,753.553 339.5,751.5C 340.924,749.485 341.59,747.152 341.5,744.5C 342.993,738.908 343.659,733.074 343.5,727C 343.499,722.985 343.165,719.151 342.5,715.5C 342.013,709.709 340.346,704.376 337.5,699.5C 334.229,689.353 330.562,679.353 326.5,669.5C 324.871,663.608 322.871,657.941 320.5,652.5C 319.117,644.319 317.45,636.319 315.5,628.5C 315.307,611.151 315.64,593.818 316.5,576.5C 319.235,557.689 326.402,540.689 338,525.5C 354.899,506.411 374.732,491.411 397.5,480.5C 399.786,480.405 401.786,479.738 403.5,478.5C 424.321,472.367 445.321,471.867 466.5,477C 476.551,480.108 485.051,485.608 492,493.5C 493.094,495.078 493.928,496.745 494.5,498.5 Z"/></g>
<g><path style="opacity:1" fill="#7a0001" d="M 682.5,474.5 C 683.871,476.936 684.871,479.603 685.5,482.5C 683.345,480.383 682.345,477.716 682.5,474.5 Z"/></g>
<g><path style="opacity:1" fill="#a0a0a2" d="M 403.5,478.5 C 401.786,479.738 399.786,480.405 397.5,480.5C 396.081,479.549 394.415,479.216 392.5,479.5C 395.14,478.579 397.973,477.912 401,477.5C 402.07,477.528 402.903,477.861 403.5,478.5 Z"/></g>
<g><path style="opacity:1" fill="#f8f8f9" d="M 392.5,479.5 C 394.415,479.216 396.081,479.549 397.5,480.5C 374.732,491.411 354.899,506.411 338,525.5C 326.402,540.689 319.235,557.689 316.5,576.5C 315.691,578.292 315.191,580.292 315,582.5C 314.172,598.006 314.339,613.339 315.5,628.5C 317.45,636.319 319.117,644.319 320.5,652.5C 321.342,658.7 323.342,664.367 326.5,669.5C 330.562,679.353 334.229,689.353 337.5,699.5C 338.79,705.033 340.457,710.366 342.5,715.5C 343.165,719.151 343.499,722.985 343.5,727C 343.659,733.074 342.993,738.908 341.5,744.5C 340.076,746.515 339.41,748.848 339.5,751.5C 339.598,753.553 338.931,755.22 337.5,756.5C 335.375,759.088 334.042,762.088 333.5,765.5C 324.344,783.811 315.178,802.145 306,820.5C 303.059,830.917 304.559,840.583 310.5,849.5C 311.833,852.833 314.167,855.167 317.5,856.5C 319.858,858.529 322.192,860.529 324.5,862.5C 324.414,863.496 324.748,864.329 325.5,865C 322.174,865.172 318.841,865.005 315.5,864.5C 298.386,859.22 286.552,848.22 280,831.5C 279.07,824.996 279.736,818.662 282,812.5C 292.162,794.179 301.829,775.512 311,756.5C 318.101,741.033 319.767,725.033 316,708.5C 309.47,691.243 303.137,673.91 297,656.5C 294.37,647.65 292.537,638.65 291.5,629.5C 291.042,609.776 291.708,590.109 293.5,570.5C 295.292,556.955 300.125,544.622 308,533.5C 327.72,509.231 352.22,491.731 381.5,481C 385.145,480.281 388.812,479.781 392.5,479.5 Z"/></g>
<g><path style="opacity:1" fill="#afa09f" d="M 545.5,478.5 C 547.074,480.102 547.741,482.102 547.5,484.5C 545.926,482.898 545.259,480.898 545.5,478.5 Z"/></g>
<g><path style="opacity:1" fill="#b3b3b3" d="M 921.5,479.5 C 922.793,480.842 923.626,482.509 924,484.5C 924.816,489.684 924.65,494.684 923.5,499.5C 923.871,492.681 923.205,486.014 921.5,479.5 Z"/></g>
<g><path style="opacity:0.996" fill="#800001" d="M 687.5,489.5 C 689.074,491.102 689.741,493.102 689.5,495.5C 687.926,493.898 687.259,491.898 687.5,489.5 Z"/></g>
<g><path style="opacity:1" fill="#7b0001" d="M 689.5,495.5 C 690.924,497.515 691.59,499.848 691.5,502.5C 690.076,500.485 689.41,498.152 689.5,495.5 Z"/></g>
<g><path style="opacity:1" fill="#003b99" d="M 494.5,498.5 C 496.646,501.912 497.646,505.745 497.5,510C 497.646,514.255 496.646,518.088 494.5,521.5C 495.793,513.841 495.793,506.174 494.5,498.5 Z"/></g>
<g><path style="opacity:1" fill="#a99999" d="M 548.5,516.5 C 548.39,521.622 547.056,526.288 544.5,530.5C 545.544,525.645 546.877,520.978 548.5,516.5 Z"/></g>
<g><path style="opacity:0.988" fill="#790000" d="M 694.5,515.5 C 695.972,519.919 696.638,524.586 696.5,529.5C 695.028,525.081 694.362,520.414 694.5,515.5 Z"/></g>
<g><path style="opacity:1" fill="#b4b4b4" d="M 759.5,521.5 C 756.029,529.75 753.029,538.084 750.5,546.5C 751.346,537.289 754.346,528.955 759.5,521.5 Z"/></g>
<g><path style="opacity:1" fill="#a79696" d="M 536.5,547.5 C 535.958,550.912 534.625,553.912 532.5,556.5C 533.042,553.088 534.375,550.088 536.5,547.5 Z"/></g>
<g><path style="opacity:0.988" fill="#7f0000" d="M 696.5,551.5 C 696.698,556.75 696.031,561.75 694.5,566.5C 694.444,561.269 695.111,556.269 696.5,551.5 Z"/></g>
<g><path style="opacity:0.992" fill="#a3a3a3" d="M 889.5,566.5 C 889.102,570.761 888.102,574.761 886.5,578.5C 886.584,574.163 887.584,570.163 889.5,566.5 Z"/></g>
<g><path style="opacity:0.992" fill="#002f7e" d="M 463.5,578.5 C 462.001,584.32 460.334,589.987 458.5,595.5C 458.789,589.328 460.456,583.662 463.5,578.5 Z"/></g>
<g><path style="opacity:1" fill="#c2c2c2" d="M 750.5,546.5 C 748.477,569.106 747.977,591.772 749,614.5C 751.109,624.549 753.276,634.549 755.5,644.5C 751.289,633.991 748.455,622.991 747,611.5C 746.333,594.833 746.333,578.167 747,561.5C 747.752,556.271 748.919,551.271 750.5,546.5 Z"/></g>
<g><path style="opacity:0.99" fill="#b7b7b7" d="M 885.5,585.5 C 884.813,592.813 884.479,600.146 884.5,607.5C 883.347,601.347 883.18,595.014 884,588.5C 884.232,587.263 884.732,586.263 885.5,585.5 Z"/></g>
<g><path style="opacity:1" fill="#d0d0d0" d="M 293.5,570.5 C 291.708,590.109 291.042,609.776 291.5,629.5C 290.339,613.672 290.172,597.672 291,581.5C 291.419,577.608 292.252,573.942 293.5,570.5 Z"/></g>
<g><path style="opacity:1" fill="#a19291" d="M 514.5,589.5 C 511.978,596.597 510.978,603.93 511.5,611.5C 510.352,607.019 510.185,602.352 511,597.5C 511.705,594.524 512.871,591.858 514.5,589.5 Z"/></g>
<g><path style="opacity:1" fill="#b0b0b2" d="M 316.5,576.5 C 315.64,593.818 315.307,611.151 315.5,628.5C 314.339,613.339 314.172,598.006 315,582.5C 315.191,580.292 315.691,578.292 316.5,576.5 Z"/></g>
<g><path style="opacity:0.924" fill="#002e7b" d="M 457.5,600.5 C 456.743,610.482 456.41,620.482 456.5,630.5C 455.343,621.676 455.176,612.676 456,603.5C 456.232,602.263 456.732,601.263 457.5,600.5 Z"/></g>
<g><path style="opacity:1" fill="#aa8c8b" d="M 517.5,624.5 C 520.5,626.833 523.167,629.5 525.5,632.5C 521.833,630.833 519.167,628.167 517.5,624.5 Z"/></g>
<g><path style="opacity:1" fill="#9e9e9e" d="M 887.5,627.5 C 889.277,630.505 890.277,633.838 890.5,637.5C 888.723,634.495 887.723,631.162 887.5,627.5 Z"/></g>
<g><path style="opacity:1" fill="#a2a2a2" d="M 890.5,637.5 C 892.734,641.522 894.401,645.856 895.5,650.5C 894.883,650.389 894.383,650.056 894,649.5C 892.516,645.553 891.35,641.553 890.5,637.5 Z"/></g>
<g><path style="opacity:1" fill="#b6b6b6" d="M 511.5,643.5 C 516.767,644.589 521.767,646.256 526.5,648.5C 521.085,647.806 516.085,646.14 511.5,643.5 Z"/></g>
<g><path style="opacity:1" fill="#002f7b" d="M 459.5,646.5 C 460.924,648.515 461.59,650.848 461.5,653.5C 460.076,651.485 459.41,649.152 459.5,646.5 Z"/></g>
<g><path style="opacity:0.988" fill="#826e6c" d="M 554.5,648.5 C 561.082,648.156 567.416,648.823 573.5,650.5C 561.988,650.828 550.654,650.495 539.5,649.5C 544.695,649.821 549.695,649.487 554.5,648.5 Z"/></g>
<g><path style="opacity:1" fill="#a6a7b1" d="M 320.5,652.5 C 322.871,657.941 324.871,663.608 326.5,669.5C 323.342,664.367 321.342,658.7 320.5,652.5 Z"/></g>
<g><path style="opacity:1" fill="#9b9c9b" d="M 897.5,656.5 C 899.204,659.939 900.538,663.605 901.5,667.5C 899.01,664.374 897.677,660.708 897.5,656.5 Z"/></g>
<g><path style="opacity:1" fill="#9c9c9c" d="M 903.5,673.5 C 905.204,676.939 906.538,680.605 907.5,684.5C 905.01,681.374 903.677,677.708 903.5,673.5 Z"/></g>
<g><path style="opacity:0.841" fill="#8e8f8e" d="M 616.5,678.5 C 629.5,677.167 642.5,677.167 655.5,678.5C 650.58,679.455 645.58,680.122 640.5,680.5C 640.611,679.883 640.944,679.383 641.5,679C 633.173,678.5 624.84,678.334 616.5,678.5 Z"/></g>
<g><path style="opacity:1" fill="#fafafa" d="M 616.5,678.5 C 624.84,678.334 633.173,678.5 641.5,679C 640.944,679.383 640.611,679.883 640.5,680.5C 637.505,680.294 634.838,680.96 632.5,682.5C 631.791,683.404 630.791,683.737 629.5,683.5C 626.458,683.733 623.792,684.733 621.5,686.5C 620.486,687.674 619.153,688.34 617.5,688.5C 614.911,688.461 612.911,689.461 611.5,691.5C 588.726,704.604 569.726,721.937 554.5,743.5C 551.46,746.914 549.46,750.914 548.5,755.5C 545.987,759.378 544.654,763.711 544.5,768.5C 542.124,773.106 541.124,778.106 541.5,783.5C 540.691,785.292 540.191,787.292 540,789.5C 539.333,804.833 539.333,820.167 540,835.5C 540.419,839.392 541.252,843.058 542.5,846.5C 544.102,850.239 545.102,854.239 545.5,858.5C 545.41,861.152 546.076,863.485 547.5,865.5C 549.204,868.939 550.538,872.605 551.5,876.5C 551.345,879.716 552.345,882.383 554.5,884.5C 559.471,895.41 563.471,906.743 566.5,918.5C 567.146,927.152 567.479,935.818 567.5,944.5C 567.785,947.829 567.118,950.829 565.5,953.5C 563.928,956.215 562.928,959.215 562.5,962.5C 560.707,964.426 559.707,966.759 559.5,969.5C 559.008,971.819 558.008,973.819 556.5,975.5C 554.043,978.751 552.376,982.418 551.5,986.5C 551.34,988.153 550.674,989.486 549.5,990.5C 547.412,992.336 546.079,994.669 545.5,997.5C 545.34,999.153 544.674,1000.49 543.5,1001.5C 541.412,1003.34 540.079,1005.67 539.5,1008.5C 539.008,1010.82 538.008,1012.82 536.5,1014.5C 534.127,1016.58 532.794,1019.25 532.5,1022.5C 530.32,1025.38 529.32,1028.71 529.5,1032.5C 528.839,1034.13 528.506,1035.97 528.5,1038C 528.36,1041.15 529.027,1043.98 530.5,1046.5C 534.285,1053.71 539.285,1060.04 545.5,1065.5C 545.38,1066.59 544.713,1067.25 543.5,1067.5C 538.57,1065.74 533.57,1064.41 528.5,1063.5C 516.676,1058.18 507.51,1049.85 501,1038.5C 497.327,1028.55 497.993,1018.89 503,1009.5C 512.525,992.45 521.525,975.116 530,957.5C 536.006,943.749 538.006,929.416 536,914.5C 529.625,895.413 522.959,876.413 516,857.5C 513.366,848.299 511.366,838.966 510,829.5C 509.333,814.5 509.333,799.5 510,784.5C 511.449,765.816 517.449,748.816 528,733.5C 544.879,712.656 565.379,696.489 589.5,685C 598.264,681.725 607.264,679.559 616.5,678.5 Z"/></g>
<g><path style="opacity:1" fill="#009b36" d="M 655.5,678.5 C 669.947,677.89 683.947,680.057 697.5,685C 705.627,688.639 711.96,694.139 716.5,701.5C 718.736,709.718 719.069,718.051 717.5,726.5C 711.942,736.609 706.109,746.609 700,756.5C 694.847,766.469 690.014,776.469 685.5,786.5C 684.076,788.515 683.41,790.848 683.5,793.5C 681.498,797.833 680.498,802.5 680.5,807.5C 680.5,807.833 680.5,808.167 680.5,808.5C 679.021,812.909 678.354,817.576 678.5,822.5C 678.502,825.686 678.835,828.686 679.5,831.5C 680.393,839.137 681.893,846.803 684,854.5C 691.474,875.089 698.641,895.756 705.5,916.5C 705.548,919.313 706.215,921.979 707.5,924.5C 704.845,926.874 705.345,928.874 709,930.5C 709.566,932.723 710.4,934.723 711.5,936.5C 711.5,936.833 711.5,937.167 711.5,937.5C 711.495,943.791 712.495,949.791 714.5,955.5C 715.808,964.47 715.808,973.47 714.5,982.5C 712.863,987.927 711.863,993.593 711.5,999.5C 705.189,1026.32 690.189,1046.82 666.5,1061C 658.169,1066.61 649.169,1070.78 639.5,1073.5C 629.797,1074.51 620.464,1076.51 611.5,1079.5C 598.149,1079.67 584.815,1079.33 571.5,1078.5C 565.893,1077.63 560.56,1075.96 555.5,1073.5C 552.48,1070.48 549.146,1067.82 545.5,1065.5C 539.285,1060.04 534.285,1053.71 530.5,1046.5C 529.873,1041.86 529.54,1037.19 529.5,1032.5C 530.87,1029.38 531.87,1026.05 532.5,1022.5C 534.341,1020.15 535.674,1017.48 536.5,1014.5C 538.008,1012.82 539.008,1010.82 539.5,1008.5C 541.588,1006.66 542.921,1004.33 543.5,1001.5C 544.674,1000.49 545.34,999.153 545.5,997.5C 547.588,995.664 548.921,993.331 549.5,990.5C 550.674,989.486 551.34,988.153 551.5,986.5C 553.957,983.249 555.624,979.582 556.5,975.5C 558.008,973.819 559.008,971.819 559.5,969.5C 561.293,967.574 562.293,965.241 562.5,962.5C 564.472,959.916 565.472,956.916 565.5,953.5C 567.118,950.829 567.785,947.829 567.5,944.5C 568.165,941.183 568.499,937.683 568.5,934C 568.674,928.579 568.007,923.413 566.5,918.5C 563.471,906.743 559.471,895.41 554.5,884.5C 553.871,881.603 552.871,878.936 551.5,876.5C 550.538,872.605 549.204,868.939 547.5,865.5C 547.59,862.848 546.924,860.515 545.5,858.5C 545.102,854.239 544.102,850.239 542.5,846.5C 540.251,825.54 539.918,804.54 541.5,783.5C 542.623,778.65 543.623,773.65 544.5,768.5C 546.204,764.383 547.537,760.049 548.5,755.5C 551.008,751.818 553.008,747.818 554.5,743.5C 569.726,721.937 588.726,704.604 611.5,691.5C 613.819,691.008 615.819,690.008 617.5,688.5C 619.153,688.34 620.486,687.674 621.5,686.5C 624.542,686.267 627.208,685.267 629.5,683.5C 630.791,683.737 631.791,683.404 632.5,682.5C 635.428,682.435 638.095,681.768 640.5,680.5C 645.58,680.122 650.58,679.455 655.5,678.5 Z"/></g>
<g><path style="opacity:1" fill="#a1a6a2" d="M 640.5,680.5 C 638.095,681.768 635.428,682.435 632.5,682.5C 634.838,680.96 637.505,680.294 640.5,680.5 Z"/></g>
<g><path style="opacity:1" fill="#bababa" d="M 755.5,644.5 C 763.454,661.519 769.954,679.186 775,697.5C 777.048,713.075 774.548,727.742 767.5,741.5C 769.639,734.947 771.472,728.28 773,721.5C 773.667,713.5 773.667,705.5 773,697.5C 767.464,679.726 761.631,662.059 755.5,644.5 Z"/></g>
<g><path style="opacity:1" fill="#99a29a" d="M 629.5,683.5 C 627.208,685.267 624.542,686.267 621.5,686.5C 623.792,684.733 626.458,683.733 629.5,683.5 Z"/></g>
<g><path style="opacity:1" fill="#939e94" d="M 617.5,688.5 C 615.819,690.008 613.819,691.008 611.5,691.5C 612.911,689.461 614.911,688.461 617.5,688.5 Z"/></g>
<g><path style="opacity:1" fill="#9a9a9a" d="M 909.5,690.5 C 911.277,693.505 912.277,696.838 912.5,700.5C 910.723,697.495 909.723,694.162 909.5,690.5 Z"/></g>
<g><path style="opacity:1" fill="#acadb6" d="M 337.5,699.5 C 340.346,704.376 342.013,709.709 342.5,715.5C 340.457,710.366 338.79,705.033 337.5,699.5 Z"/></g>
<g><path style="opacity:1" fill="#a0a0a0" d="M 912.5,700.5 C 913.924,702.515 914.59,704.848 914.5,707.5C 913.076,705.485 912.41,703.152 912.5,700.5 Z"/></g>
<g><path style="opacity:1" fill="#006f25" d="M 716.5,701.5 C 721.335,709.67 721.668,718.004 717.5,726.5C 719.069,718.051 718.736,709.718 716.5,701.5 Z"/></g>
<g><path style="opacity:0.984" fill="#989898" d="M 917.5,720.5 C 919.031,725.25 919.698,730.25 919.5,735.5C 917.969,730.75 917.302,725.75 917.5,720.5 Z"/></g>
<g><path style="opacity:1" fill="#8f9c90" d="M 554.5,743.5 C 553.008,747.818 551.008,751.818 548.5,755.5C 549.46,750.914 551.46,746.914 554.5,743.5 Z"/></g>
<g><path style="opacity:1" fill="#a0a1ab" d="M 341.5,744.5 C 341.59,747.152 340.924,749.485 339.5,751.5C 339.41,748.848 340.076,746.515 341.5,744.5 Z"/></g>
<g><path style="opacity:0.979" fill="#002c77" d="M 490.5,743.5 C 492.001,750.27 492.667,757.27 492.5,764.5C 492.499,769.346 492.166,774.012 491.5,778.5C 491.635,766.815 491.302,755.148 490.5,743.5 Z"/></g>
<g><path style="opacity:1" fill="#9da59e" d="M 548.5,755.5 C 547.537,760.049 546.204,764.383 544.5,768.5C 544.654,763.711 545.987,759.378 548.5,755.5 Z"/></g>
<g><path style="opacity:1" fill="#9c9daa" d="M 337.5,756.5 C 336.958,759.912 335.625,762.912 333.5,765.5C 334.042,762.088 335.375,759.088 337.5,756.5 Z"/></g>
<g><path style="opacity:0.992" fill="#a3a3a3" d="M 919.5,754.5 C 919.677,764.289 918.011,773.623 914.5,782.5C 916.502,773.1 918.168,763.767 919.5,754.5 Z"/></g>
<g><path style="opacity:1" fill="#a1a6a2" d="M 544.5,768.5 C 543.623,773.65 542.623,778.65 541.5,783.5C 541.124,778.106 542.124,773.106 544.5,768.5 Z"/></g>
<g><path style="opacity:1" fill="#b4b4b4" d="M 767.5,741.5 C 765.629,746.915 763.462,752.248 761,757.5C 754,770.833 747,784.167 740,797.5C 737.731,805.315 736.897,813.315 737.5,821.5C 734.796,813.922 734.963,806.255 738,798.5C 747.878,779.407 757.711,760.407 767.5,741.5 Z"/></g>
<g><path style="opacity:0.992" fill="#005d1d" d="M 685.5,786.5 C 685.59,789.152 684.924,791.485 683.5,793.5C 683.41,790.848 684.076,788.515 685.5,786.5 Z"/></g>
<g><path style="opacity:0.957" fill="#00541a" d="M 683.5,793.5 C 682.99,798.391 681.99,803.058 680.5,807.5C 680.498,802.5 681.498,797.833 683.5,793.5 Z"/></g>
<g><path style="opacity:0.961" fill="#868685" d="M 908.5,798.5 C 908.573,800.027 907.906,801.027 906.5,801.5C 906.427,799.973 907.094,798.973 908.5,798.5 Z"/></g>
<g><path style="opacity:0.984" fill="#002e7b" d="M 484.5,807.5 C 484.293,810.241 483.293,812.574 481.5,814.5C 481.707,811.759 482.707,809.426 484.5,807.5 Z"/></g>
<g><path style="opacity:0.984" fill="#006421" d="M 680.5,808.5 C 679.793,816.146 679.46,823.813 679.5,831.5C 678.835,828.686 678.502,825.686 678.5,822.5C 678.354,817.576 679.021,812.909 680.5,808.5 Z"/></g>
<g><path style="opacity:1" fill="#acafad" d="M 541.5,783.5 C 539.918,804.54 540.251,825.54 542.5,846.5C 541.252,843.058 540.419,839.392 540,835.5C 539.333,820.167 539.333,804.833 540,789.5C 540.191,787.292 540.691,785.292 541.5,783.5 Z"/></g>
<g><path style="opacity:1" fill="#b9b9b9" d="M 737.5,821.5 C 744.095,832.43 752.762,841.43 763.5,848.5C 763.167,848.5 762.833,848.5 762.5,848.5C 750.341,843.009 742.007,834.009 737.5,821.5 Z"/></g>
<g><path style="opacity:1" fill="#9e9e9e" d="M 734.5,846.5 C 737.152,846.41 739.485,847.076 741.5,848.5C 738.848,848.59 736.515,847.924 734.5,846.5 Z"/></g>
<g><path style="opacity:1" fill="#939393" d="M 762.5,848.5 C 762.833,848.5 763.167,848.5 763.5,848.5C 767.987,849.992 772.32,851.658 776.5,853.5C 766.573,853.12 756.906,851.786 747.5,849.5C 752.695,849.821 757.695,849.487 762.5,848.5 Z"/></g>
<g><path style="opacity:1" fill="#a0a2b2" d="M 310.5,849.5 C 313.167,851.5 315.5,853.833 317.5,856.5C 314.167,855.167 311.833,852.833 310.5,849.5 Z"/></g>
<g><path style="opacity:0.984" fill="#8e8e8e" d="M 830.5,853.5 C 826.733,854.795 822.733,855.461 818.5,855.5C 822.236,854.011 826.236,853.344 830.5,853.5 Z"/></g>
<g><path style="opacity:0.996" fill="#9a9a9a" d="M 777.5,853.5 C 790.451,854.983 803.451,855.649 816.5,855.5C 808.01,856.657 799.343,856.824 790.5,856C 785.899,855.851 781.566,855.018 777.5,853.5 Z"/></g>
<g><path style="opacity:1" fill="#96a297" d="M 545.5,858.5 C 546.924,860.515 547.59,862.848 547.5,865.5C 546.076,863.485 545.41,861.152 545.5,858.5 Z"/></g>
<g><path style="opacity:1" fill="#b7b7b9" d="M 324.5,862.5 C 326.795,863.475 328.795,864.808 330.5,866.5C 329.791,867.404 328.791,867.737 327.5,867.5C 323.239,867.102 319.239,866.102 315.5,864.5C 318.841,865.005 322.174,865.172 325.5,865C 324.748,864.329 324.414,863.496 324.5,862.5 Z"/></g>
<g><path style="opacity:1" fill="#4c4b4c" d="M 330.5,866.5 C 333.162,867.499 335.828,868.499 338.5,869.5C 338.5,869.833 338.5,870.167 338.5,870.5C 334.603,869.945 330.937,868.945 327.5,867.5C 328.791,867.737 329.791,867.404 330.5,866.5 Z"/></g>
<g><path style="opacity:1" fill="#013488" d="M 338.5,870.5 C 338.5,870.167 338.5,869.833 338.5,869.5C 344.326,870.231 349.992,871.398 355.5,873C 368.849,873.691 382.183,873.525 395.5,872.5C 393.708,873.309 391.708,873.809 389.5,874C 377.5,874.667 365.5,874.667 353.5,874C 348.413,873.136 343.413,871.97 338.5,870.5 Z"/></g>
<g><path style="opacity:1" fill="#a1aaa2" d="M 551.5,876.5 C 552.871,878.936 553.871,881.603 554.5,884.5C 552.345,882.383 551.345,879.716 551.5,876.5 Z"/></g>
<g><path style="opacity:1" fill="#007c2a" d="M 705.5,916.5 C 708.102,922.891 710.102,929.557 711.5,936.5C 710.4,934.723 709.566,932.723 709,930.5C 705.345,928.874 704.845,926.874 707.5,924.5C 706.215,921.979 705.548,919.313 705.5,916.5 Z"/></g>
<g><path style="opacity:1" fill="#a6aba6" d="M 566.5,918.5 C 568.007,923.413 568.674,928.579 568.5,934C 568.499,937.683 568.165,941.183 567.5,944.5C 567.479,935.818 567.146,927.152 566.5,918.5 Z"/></g>
<g><path style="opacity:1" fill="#006722" d="M 711.5,937.5 C 713.505,943.209 714.505,949.209 714.5,955.5C 712.495,949.791 711.495,943.791 711.5,937.5 Z"/></g>
<g><path style="opacity:1" fill="#97a198" d="M 565.5,953.5 C 565.472,956.916 564.472,959.916 562.5,962.5C 562.928,959.215 563.928,956.215 565.5,953.5 Z"/></g>
<g><path style="opacity:1" fill="#9ba39c" d="M 562.5,962.5 C 562.293,965.241 561.293,967.574 559.5,969.5C 559.707,966.759 560.707,964.426 562.5,962.5 Z"/></g>
<g><path style="opacity:1" fill="#97a198" d="M 556.5,975.5 C 555.624,979.582 553.957,983.249 551.5,986.5C 552.376,982.418 554.043,978.751 556.5,975.5 Z"/></g>
<g><path style="opacity:0.965" fill="#005a1c" d="M 714.5,982.5 C 714.452,988.46 713.452,994.127 711.5,999.5C 711.863,993.593 712.863,987.927 714.5,982.5 Z"/></g>
<g><path style="opacity:1" fill="#8c9a8d" d="M 549.5,990.5 C 548.921,993.331 547.588,995.664 545.5,997.5C 546.079,994.669 547.412,992.336 549.5,990.5 Z"/></g>
<g><path style="opacity:1" fill="#8b9a8c" d="M 543.5,1001.5 C 542.921,1004.33 541.588,1006.66 539.5,1008.5C 540.079,1005.67 541.412,1003.34 543.5,1001.5 Z"/></g>
<g><path style="opacity:1" fill="#8e9b8f" d="M 536.5,1014.5 C 535.674,1017.48 534.341,1020.15 532.5,1022.5C 532.794,1019.25 534.127,1016.58 536.5,1014.5 Z"/></g>
<g><path style="opacity:1" fill="#939d94" d="M 532.5,1022.5 C 531.87,1026.05 530.87,1029.38 529.5,1032.5C 529.32,1028.71 530.32,1025.38 532.5,1022.5 Z"/></g>
<g><path style="opacity:1" fill="#a1a6a2" d="M 529.5,1032.5 C 529.54,1037.19 529.873,1041.86 530.5,1046.5C 529.027,1043.98 528.36,1041.15 528.5,1038C 528.506,1035.97 528.839,1034.13 529.5,1032.5 Z"/></g>
<g><path style="opacity:1" fill="#898b89" d="M 528.5,1063.5 C 533.57,1064.41 538.57,1065.74 543.5,1067.5C 544.713,1067.25 545.38,1066.59 545.5,1065.5C 549.146,1067.82 552.48,1070.48 555.5,1073.5C 546.324,1070.4 537.324,1067.07 528.5,1063.5 Z"/></g>
<g><path style="opacity:1" fill="#007427" d="M 639.5,1073.5 C 630.633,1077.14 621.299,1079.14 611.5,1079.5C 620.464,1076.51 629.797,1074.51 639.5,1073.5 Z"/></g>
<g><path style="opacity:1" fill="#006a23" d="M 571.5,1078.5 C 584.815,1079.33 598.149,1079.67 611.5,1079.5C 600.007,1080.66 588.341,1080.83 576.5,1080C 574.618,1079.8 572.952,1079.3 571.5,1078.5 Z"/></g>
</svg>
