<svg xmlns="http://www.w3.org/2000/svg" width="1280" height="1280" style="shape-rendering:geometricPrecision;text-rendering:geometricPrecision;image-rendering:optimizeQuality;fill-rule:evenodd;clip-rule:evenodd"><path fill="#020202" d="M625.5 243.5q27.825-1.772 54 7.5 39.689 20.048 22.5 61.5a450 450 0 0 0-26 44q-14.997 32.48-6 67a4363 4363 0 0 0 25 70 270 270 0 0 1 8 47q4.711-16.923 15-31l23.5-23.5q21.517-19.014 49-28a674 674 0 0 1 70.5-9.5q26.652-.171 50.5 11.5a103 103 0 0 0 12.5 11.5q9.234 20.376 3 42a616 616 0 0 0-29 51q-12.968 30.745-5 63a1628 1628 0 0 0 21.5 60.5q17.378 50.027 5.5 101.5-15.899 46.916-61.5 67.5-34.617 14.303-72 11a436 436 0 0 1-62-10q-23.868-9.359-35.5-32.5a778 778 0 0 1-2.5-13q-3.938 17.522.5 35a6570 6570 0 0 0 26 75q15.792 51.855-2 103a157 157 0 0 1-24.5 34.5c-33.659 26.65-71.992 37.32-115 32a96.6 96.6 0 0 1-21-5c-14.4-4.69-28.4-10.36-42-17-10.153-6.82-17.32-15.99-21.5-27.5-2.15-9.75-1.817-19.41 1-29a1343 1343 0 0 0 31-62q7.548-18.674 2-38a391 391 0 0 1-23-70 883 883 0 0 1-2-54q-7.406 52.116-52.5 78.5-52.6 27.764-111 15a141.2 141.2 0 0 1-39-12q-14.182-8.682-23.5-22.5-5.72-16.672-2-34l32-64q6.909-17.034 3-35a1887 1887 0 0 0-14.5-38.5 192.6 192.6 0 0 1-9.5-33.5 483 483 0 0 1-1-60q2.14-28.921 18-53 27.089-33.895 66.5-51.5 50.568-17.012 103-8 25.651 6.158 35.5 30.5 3.44 16.479-3 32a605 605 0 0 0-29 51q-13.023 32.522-3 66a1796 1796 0 0 1 27 78 244.7 244.7 0 0 1 5 50q3.075-29.128 21-52 21.558-24.855 49.5-41.5 26.045-13.698 55.5-13.5 23.245.882 46.5 1.5 20.897 1.466 39 12 9.151 7.574 13.5 18.5.687-4.587-1-9a408 408 0 0 0-12-30 554 554 0 0 1-10-36 328 328 0 0 1-3-44q-14.392 44.393-56.5 64.5-30.407 14.132-64 13.5a157.5 157.5 0 0 0-31.5 0q-41.467 3.525-69-27-13.803-21.09-5-45a1212 1212 0 0 0 27-52q10.779-19.893 6-42a1066 1066 0 0 1-21-60 166 166 0 0 1-4-23 426 426 0 0 1 1-55q3.381-26.65 18-49 21.015-22.034 45.5-39.5a285 285 0 0 1 60-22 431 431 0 0 1 22-4.5" style="opacity:.288"/><path fill="#c80000" d="M647.5 250.5q28.296-.327 48.5 19a19.2 19.2 0 0 1 2.5 5q3.343 11.824 1 24a413 413 0 0 1-19.5 33q-25.64 42.957-15.5 92 1.263 9.3 6 17a31.7 31.7 0 0 1 2 6q-.232 4.824 3 8a31.7 31.7 0 0 1 2 6q-.232 4.824 3 8a31.7 31.7 0 0 1 2 6q-.233 4.824 3 8a21.2 21.2 0 0 1 2 7q-.361 3.597 2 6-.135 3.978 2 7 2.64 6.07 3 13-.208 7.371 2 14 1.952 10.954 0 22-2.084 7.154-2 15-6.985 37.704-38 60.5-37.388 25.874-83 23.5-9.126-2.516-19-2-16.528-4.51-29-16-3.5-4.5-8-8-3.45-6.393-6-13-.783-11.355 3-22a785 785 0 0 0 18-33q3.187-3.882 4-9a66.3 66.3 0 0 0 8-17q3.835-6.317 4-14 2.288-6.342 2-13.5.489-9.768-3-18.5.361-3.597-2-6a487 487 0 0 0-12-33 128 128 0 0 0-6-17q-.836-6.828-3-13-.325-6.308-2-12a981 981 0 0 1 1-54q1.621-4.69 2-10a107 107 0 0 0 4-14q2.69-2.889 3-7 21-32 53-53a16.3 16.3 0 0 0 5-2 89 89 0 0 1 11-6l13-4a155.6 155.6 0 0 1 33-3" style="opacity:1"/><path fill="#a00001" d="M647.5 250.5a155.6 155.6 0 0 0-33 3q16.178-5.538 33-3" style="opacity:1"/><path fill="#535050" d="M601.5 257.5a89 89 0 0 0-11 6q.257-1.488-1-2 5.337-3.652 12-4" style="opacity:1"/><path fill="#b9b3b3" d="M589.5 261.5q1.257.512 1 2a16.3 16.3 0 0 1-5 2q1.74-2.554-2-2 2.571-1.857 6-2" style="opacity:1"/><path fill="#f9f9f9" d="M583.5 263.5q3.74-.554 2 2-32 21-53 53-2.69 2.889-3 7a107 107 0 0 1-4 14q-2.512 4.51-2 10-2.303 15.43-2 31.5 0 11.511 1 22.5-.625 6.476 2 12 2.164 6.172 3 13 1.263 9.3 6 17a487 487 0 0 1 12 33q-.361 3.597 2 6 3.489 8.732 3 18.5.288 7.158-2 13.5a107 107 0 0 0-4 14 66.3 66.3 0 0 1-8 17q-3.187 3.882-4 9a785 785 0 0 1-18 33q-2.443 3.536-3.5 8-1.222 7.278.5 14 2.55 6.607 6 13 2.5 5.5 8 8 12.472 11.49 29 16-7.207 1.481-15 1a46.8 46.8 0 0 1-13-1q-7.1-3.366-15-5-26.573-10.064-31-38a54 54 0 0 1 3.5-14 1111 1111 0 0 0 29-56q9.35-22.43 4-46l-19-53q-10.695-42.024-4-85 6.254-32.759 31.5-54.5 20.722-19.618 47-31a28.8 28.8 0 0 1 11-2.5" style="opacity:1"/><path fill="#890002" d="M698.5 274.5q7.321 11.736 1 24 2.343-12.176-1-24" style="opacity:1"/><path fill="#a69696" d="M532.5 318.5q-.31 4.111-3 7 .31-4.111 3-7" style="opacity:1"/><path fill="#aaa2a2" d="M525.5 339.5q-.379 5.31-2 10-.512-5.49 2-10" style="opacity:1"/><path fill="#a29998" d="M523.5 349.5a981 981 0 0 0-1 54q-1-10.989-1-22.5-.303-16.07 2-31.5" style="opacity:1"/><path fill="#b1a4a3" d="M522.5 403.5q1.675 5.692 2 12-2.625-5.524-2-12" style="opacity:1"/><path fill="#7d0001" d="M664.5 423.5a128 128 0 0 1 6 17q-4.737-7.7-6-17" style="opacity:1"/><path fill="#afa2a1" d="M527.5 428.5a128 128 0 0 1 6 17q-4.737-7.7-6-17" style="opacity:1"/><path fill="#7c0001" d="M672.5 446.5q2.056 3.654 3 8-3.232-3.176-3-8" style="opacity:1"/><path fill="#fefefe" d="M921.5 479.5q2.557 9.771 2 20a22.4 22.4 0 0 1-2.5 8q-19.486 27.675-31.5 59-2.874 5.495-3 12 .303 3.675-1 7-1.152 1.145-1.5 3-1.23 9.77.5 19 1.495 9.943 3 20 .334 5.493 3 10a82 82 0 0 0 3.5 12q.575.834 1.5 1a31.7 31.7 0 0 1 2 6q.265 6.312 4 11a31.7 31.7 0 0 1 2 6q.265 6.312 4 11a31.7 31.7 0 0 1 2 6q.334 5.493 3 10-.135 3.978 2 7 2.64 6.07 3 13-.297 7.875 2 15v19a424 424 0 0 1-5 28q-1.554 8.677-6 16-2.11.71-2 3-9.928 19.188-28 31.5-21.66 15.576-48 20.5-6.396-.234-12 2h-2a311 311 0 0 1-39-2h-1a148 148 0 0 0-13-5q-16.107-10.605-26-27-.904-12.277 2.5-24l21-40a163 163 0 0 0 6.5-16q10.572-20.637 7.5-44-7.569-27.471-19.5-53a2359 2359 0 0 1-6.5-30 506.5 506.5 0 0 1 1.5-68 250 250 0 0 1 9-25q21.272-29.019 51-49.5a154 154 0 0 1 21-10.5q6.135-2.092 12-4 30.141-5.65 59 4.5 12.648 5.401 19 17.5" style="opacity:1"/><path fill="#898989" d="M843.5 457.5a892 892 0 0 0-12 4h-2q-4.18-1.465-9-1 10.943-3.832 23-3" style="opacity:1"/><path fill="#fcfcfc" d="M820.5 460.5q4.82-.465 9 1-21.583 8.341-39 23.5a213 213 0 0 0-22.5 22.5 50.4 50.4 0 0 0-8.5 14q-7.731 11.183-9 25-2.372 7.156-3.5 15a625 625 0 0 0 0 50q2.183 17.236 8.5 33a1642 1642 0 0 1 17.5 53q1 12 0 24a221 221 0 0 1-5.5 20q-14.683 28.36-29.5 57-4.556 11.633-.5 23 6.761 18.764 25 27-7.207 1.481-15 1-3.352.442-6-1-3.022-2.135-7-2-20.518-7.146-31.5-26-5-13.5 0-27a630 630 0 0 0 30-60q7.109-21.064 3-43a1770 1770 0 0 1-19-53 190 190 0 0 1-5-23q-1-27 0-54 2.817-25.963 18-47 24.93-29.57 59.5-46.5 14.987-5.873 31-6.5" style="opacity:1"/><path fill="#7b0001" d="M677.5 460.5q2.056 3.654 3 8-3.232-3.176-3-8" style="opacity:1"/><path fill="#b4b4b4" d="M829.5 461.5h2a154 154 0 0 0-21 10.5q-29.728 20.481-51 49.5a50.4 50.4 0 0 1 8.5-14 213 213 0 0 1 22.5-22.5q17.417-15.159 39-23.5" style="opacity:1"/><path fill="#0055d4" d="M494.5 498.5a68.7 68.7 0 0 1 0 23q.014 2.712-1.5 5-17.54 24.597-29.5 52-4.566 7.743-5 17 .426 2.872-1 5-1.152 1.145-1.5 3-1.236 13.764.5 27a170 170 0 0 1 3 16q-.135 3.978 2 7a1450 1450 0 0 1 23.5 64 106.3 106.3 0 0 1 5.5 26 436 436 0 0 1 1 35q-.952 15.302-7 29-2.69 2.889-3 7a130 130 0 0 1-14.5 22q-29.524 30.138-71.5 36a311 311 0 0 1-40 .5 110 110 0 0 0-17-3.5l-8-3q-2.558-2.538-6-4a2464 2464 0 0 1-7-6q-3-4-7-7-8.911-13.375-4.5-29l27.5-55q3.187-3.882 4-9 2.147-1.92 2-5 2.135-3.022 2-7 2.239-8.389 2-17.5-.002-6.023-1-11.5-.73-8.686-5-16a404 404 0 0 0-11-30 128 128 0 0 0-6-17 319 319 0 0 0-5-24 856 856 0 0 1 1-52q4.103-28.216 21.5-51 25.348-28.634 59.5-45 3.429-.143 6-2 31.232-9.2 63-1.5 15.077 4.662 25.5 16.5a19.2 19.2 0 0 1 2.5 5" style="opacity:1"/><path fill="#7a0001" d="M682.5 474.5q2.056 3.654 3 8-3.233-3.176-3-8" style="opacity:1"/><path fill="#a0a0a2" d="M403.5 478.5q-2.571 1.857-6 2-2.128-1.426-5-1 3.96-1.382 8.5-2 1.605.042 2.5 1" style="opacity:1"/><path fill="#f8f8f9" d="M392.5 479.5q2.872-.426 5 1-34.152 16.366-59.5 45-17.397 22.784-21.5 51-1.214 2.688-1.5 6-1.242 23.259.5 46a319 319 0 0 1 5 24q1.263 9.3 6 17a404 404 0 0 1 11 30 112 112 0 0 0 5 16q.998 5.477 1 11.5.239 9.111-2 17.5-2.135 3.022-2 7 .147 3.08-2 5-3.187 3.882-4 9l-27.5 55q-4.411 15.625 4.5 29 2 5 7 7 3.538 3.043 7 6-.129 1.494 1 2.5a49.6 49.6 0 0 1-10-.5q-25.671-7.92-35.5-33-1.395-9.757 2-19a1107 1107 0 0 0 29-56q10.651-23.2 5-48a2423 2423 0 0 1-19-52 156.5 156.5 0 0 1-5.5-27 516 516 0 0 1 2-59q2.688-20.317 14.5-37 29.58-36.404 73.5-52.5a94 94 0 0 1 11-1.5" style="opacity:1"/><path fill="#afa09f" d="M545.5 478.5q2.361 2.403 2 6-2.361-2.403-2-6" style="opacity:1"/><path fill="#b3b3b3" d="M921.5 479.5q1.94 2.013 2.5 5 1.225 7.776-.5 15 .557-10.229-2-20" style="opacity:1"/><path fill="#800001" d="M687.5 489.5q2.361 2.403 2 6-2.361-2.403-2-6" style="opacity:.996"/><path fill="#7b0001" d="M689.5 495.5q2.135 3.022 2 7-2.135-3.022-2-7" style="opacity:1"/><path fill="#003b99" d="M494.5 498.5q3.219 5.118 3 11.5.219 6.382-3 11.5a68.7 68.7 0 0 0 0-23" style="opacity:1"/><path fill="#a99999" d="M548.5 516.5q-.165 7.683-4 14a107 107 0 0 1 4-14" style="opacity:1"/><path fill="#790000" d="M694.5 515.5q2.208 6.629 2 14-2.208-6.629-2-14" style="opacity:.988"/><path fill="#b4b4b4" d="M759.5 521.5a250 250 0 0 0-9 25q1.269-13.817 9-25" style="opacity:1"/><path fill="#a79696" d="M536.5 547.5q-.813 5.118-4 9 .813-5.118 4-9" style="opacity:1"/><path fill="#7f0000" d="M696.5 551.5q.297 7.875-2 15-.084-7.846 2-15" style="opacity:.988"/><path fill="#a3a3a3" d="M889.5 566.5q-.597 6.391-3 12 .126-6.505 3-12" style="opacity:.992"/><path fill="#002f7e" d="M463.5 578.5a257 257 0 0 1-5 17q.434-9.257 5-17" style="opacity:.992"/><path fill="#c2c2c2" d="M750.5 546.5a506.5 506.5 0 0 0-1.5 68 2359 2359 0 0 0 6.5 30q-6.317-15.764-8.5-33a625 625 0 0 1 0-50q1.128-7.844 3.5-15" style="opacity:1"/><path fill="#b7b7b7" d="M885.5 585.5a228 228 0 0 0-1 22q-1.73-9.23-.5-19 .348-1.855 1.5-3" style="opacity:.99"/><path fill="#d0d0d0" d="M293.5 570.5a516 516 0 0 0-2 59q-1.742-23.742-.5-48 .628-5.838 2.5-11" style="opacity:1"/><path fill="#a19291" d="M514.5 589.5q-3.783 10.645-3 22-1.722-6.722-.5-14 1.057-4.464 3.5-8" style="opacity:1"/><path fill="#b0b0b2" d="M316.5 576.5a856 856 0 0 0-1 52q-1.742-22.741-.5-46 .286-3.312 1.5-6" style="opacity:1"/><path fill="#002e7b" d="M457.5 600.5a354 354 0 0 0-1 30q-1.736-13.236-.5-27 .348-1.855 1.5-3" style="opacity:.924"/><path fill="#aa8c8b" d="M517.5 624.5q4.5 3.5 8 8-5.5-2.5-8-8" style="opacity:1"/><path fill="#9e9e9e" d="M887.5 627.5q2.666 4.507 3 10-2.666-4.507-3-10" style="opacity:1"/><path fill="#a2a2a2" d="M890.5 637.5q3.351 6.034 5 13-.925-.166-1.5-1a82 82 0 0 1-3.5-12" style="opacity:1"/><path fill="#b6b6b6" d="M511.5 643.5q7.9 1.634 15 5-8.122-1.04-15-5" style="opacity:1"/><path fill="#002f7b" d="M459.5 646.5q2.135 3.022 2 7-2.135-3.022-2-7" style="opacity:1"/><path fill="#826e6c" d="M554.5 648.5q9.874-.516 19 2-17.268.492-34-1 7.793.481 15-1" style="opacity:.988"/><path fill="#a6a7b1" d="M320.5 652.5a128 128 0 0 1 6 17q-4.737-7.7-6-17" style="opacity:1"/><path fill="#9b9c9b" d="M897.5 656.5q2.557 5.158 4 11-3.735-4.688-4-11" style="opacity:1"/><path fill="#9c9c9c" d="M903.5 673.5q2.557 5.158 4 11-3.735-4.688-4-11" style="opacity:1"/><path fill="#8e8f8e" d="M616.5 678.5q19.5-2 39 0-7.38 1.433-15 2 .166-.925 1-1.5-12.49-.75-25-.5" style="opacity:.841"/><path fill="#fafafa" d="M616.5 678.5q12.51-.25 25 .5-.834.575-1 1.5-4.493-.31-8 2-1.063 1.356-3 1-4.562.35-8 3-1.52 1.76-4 2-3.884-.059-6 3-34.161 19.656-57 52-4.56 5.121-6 12-3.77 5.817-4 13-3.564 6.909-3 15-1.213 2.688-1.5 6a529 529 0 0 0 0 46q.628 5.838 2.5 11 2.403 5.609 3 12-.135 3.978 2 7 2.556 5.158 4 11-.232 4.824 3 8a205.5 205.5 0 0 1 12 34q.969 12.977 1 26 .427 4.994-2 9-2.358 4.072-3 9-2.69 2.889-3 7-.738 3.478-3 6-3.686 4.877-5 11-.24 2.48-2 4-3.132 2.754-4 7c-.16 1.653-.826 2.99-2 4-2.088 1.84-3.421 4.17-4 7q-.738 3.48-3 6c-2.373 2.08-3.706 4.75-4 8-2.18 2.88-3.18 6.21-3 10-.661 1.63-.994 3.47-1 5.5-.14 3.15.527 5.98 2 8.5 3.785 7.21 8.785 13.54 15 19-.12 1.09-.787 1.75-2 2a94 94 0 0 0-15-4c-11.824-5.32-20.99-13.65-27.5-25-3.673-9.95-3.007-19.61 2-29a960 960 0 0 0 27-52q9.009-20.626 6-43a1999 1999 0 0 0-20-57 211 211 0 0 1-6-28q-1-22.5 0-45 2.173-28.026 18-51 25.319-31.266 61.5-48.5a114 114 0 0 1 27-6.5" style="opacity:1"/><path fill="#009b36" d="M655.5 678.5q21.67-.915 42 6.5 12.19 5.458 19 16.5 3.354 12.327 1 25a687 687 0 0 1-17.5 30 615 615 0 0 0-14.5 30q-2.135 3.022-2 7-3.003 6.5-3 14v1q-2.219 6.614-2 14 .003 4.779 1 9 1.34 11.455 4.5 23a2272 2272 0 0 1 21.5 62 18.1 18.1 0 0 0 2 8q-3.983 3.561 1.5 6 .85 3.334 2.5 6v1q-.007 9.437 3 18a93.4 93.4 0 0 1 0 27q-2.456 8.14-3 17-9.466 40.23-45 61.5a93.3 93.3 0 0 1-27 12.5q-14.554 1.515-28 6c-13.351.17-26.685-.17-40-1a56 56 0 0 1-16-5 58.5 58.5 0 0 0-10-8c-6.215-5.46-11.215-11.79-15-19-.627-4.64-.96-9.31-1-14 1.37-3.12 2.37-6.45 3-10 1.841-2.35 3.174-5.02 4-8q2.262-2.52 3-6c2.088-1.84 3.421-4.17 4-7 1.174-1.01 1.84-2.347 2-4q3.132-2.754 4-7 1.76-1.52 2-4 3.686-4.877 5-11 2.262-2.522 3-6 2.69-2.889 3-7 2.958-3.876 3-9 2.427-4.006 2-9 .998-4.976 1-10.5.26-8.131-2-15.5a205.5 205.5 0 0 0-12-34q-.944-4.346-3-8-1.444-5.842-4-11 .135-3.978-2-7-.597-6.391-3-12a346 346 0 0 1-1-63q1.685-7.275 3-15 2.556-6.176 4-13 3.762-5.523 6-12 22.839-32.344 57-52 3.478-.738 6-3 2.48-.24 4-2 4.563-.35 8-3 1.937.356 3-1 4.392-.098 8-2 7.62-.567 15-2" style="opacity:1"/><path fill="#a1a6a2" d="M640.5 680.5q-3.608 1.902-8 2 3.507-2.31 8-2" style="opacity:1"/><path fill="#bababa" d="M755.5 644.5q11.931 25.529 19.5 53 3.072 23.363-7.5 44a221 221 0 0 0 5.5-20q1-12 0-24a1642 1642 0 0 0-17.5-53" style="opacity:1"/><path fill="#99a29a" d="M629.5 683.5q-3.437 2.65-8 3 3.438-2.65 8-3" style="opacity:1"/><path fill="#939e94" d="M617.5 688.5q-2.522 2.262-6 3 2.116-3.059 6-3" style="opacity:1"/><path fill="#9a9a9a" d="M909.5 690.5q2.666 4.507 3 10-2.666-4.507-3-10" style="opacity:1"/><path fill="#acadb6" d="M337.5 699.5q4.27 7.314 5 16a112 112 0 0 1-5-16" style="opacity:1"/><path fill="#a0a0a0" d="M912.5 700.5q2.135 3.022 2 7-2.135-3.022-2-7" style="opacity:1"/><path fill="#006f25" d="M716.5 701.5q7.252 12.255 1 25 2.354-12.673-1-25" style="opacity:1"/><path fill="#989898" d="M917.5 720.5q2.297 7.125 2 15-2.297-7.125-2-15" style="opacity:.984"/><path fill="#8f9c90" d="M554.5 743.5q-2.238 6.477-6 12 1.44-6.879 6-12" style="opacity:1"/><path fill="#a0a1ab" d="M341.5 744.5q.135 3.978-2 7-.135-3.978 2-7" style="opacity:1"/><path fill="#002c77" d="M490.5 743.5q2.251 10.155 2 21-.001 7.269-1 14a436 436 0 0 0-1-35" style="opacity:.979"/><path fill="#9da59e" d="M548.5 755.5q-1.444 6.824-4 13 .23-7.183 4-13" style="opacity:1"/><path fill="#9c9daa" d="M337.5 756.5q-.813 5.118-4 9 .813-5.118 4-9" style="opacity:1"/><path fill="#a3a3a3" d="M919.5 754.5q.266 14.684-5 28a424 424 0 0 0 5-28" style="opacity:.992"/><path fill="#a1a6a2" d="M544.5 768.5a260 260 0 0 1-3 15q-.564-8.091 3-15" style="opacity:1"/><path fill="#b4b4b4" d="M767.5 741.5a163 163 0 0 1-6.5 16l-21 40q-3.404 11.723-2.5 24-4.056-11.367.5-23 14.817-28.64 29.5-57" style="opacity:1"/><path fill="#005d1d" d="M685.5 786.5q.135 3.978-2 7-.135-3.978 2-7" style="opacity:.992"/><path fill="#00541a" d="M683.5 793.5q-.765 7.337-3 14-.003-7.5 3-14" style="opacity:.957"/><path fill="#868685" d="M908.5 798.5q.11 2.29-2 3-.11-2.29 2-3" style="opacity:.961"/><path fill="#002e7b" d="M484.5 807.5q-.31 4.111-3 7 .31-4.111 3-7" style="opacity:.984"/><path fill="#006421" d="M680.5 808.5a236 236 0 0 0-1 23q-.997-4.221-1-9-.219-7.386 2-14" style="opacity:.984"/><path fill="#acafad" d="M541.5 783.5a346 346 0 0 0 1 63q-1.872-5.162-2.5-11a529 529 0 0 1 0-46q.287-3.312 1.5-6" style="opacity:1"/><path fill="#b9b9b9" d="M737.5 821.5q9.893 16.395 26 27h-1q-18.239-8.236-25-27" style="opacity:1"/><path fill="#9e9e9e" d="M734.5 846.5q3.978-.135 7 2-3.978.135-7-2" style="opacity:1"/><path fill="#939393" d="M762.5 848.5h1a148 148 0 0 1 13 5q-14.89-.57-29-4 7.793.481 15-1" style="opacity:1"/><path fill="#a0a2b2" d="M310.5 849.5q4 3 7 7-5-2-7-7" style="opacity:1"/><path fill="#8e8e8e" d="M830.5 853.5q-5.65 1.942-12 2 5.604-2.234 12-2" style="opacity:.984"/><path fill="#9a9a9a" d="M777.5 853.5a311 311 0 0 0 39 2q-12.735 1.736-26 .5-6.901-.223-13-2.5" style="opacity:.996"/><path fill="#96a297" d="M545.5 858.5q2.135 3.022 2 7-2.135-3.022-2-7" style="opacity:1"/><path fill="#b7b7b9" d="M324.5 862.5q3.442 1.462 6 4-1.063 1.356-3 1-6.392-.597-12-3 5.011.758 10 .5-1.129-1.006-1-2.5" style="opacity:1"/><path fill="#4c4b4c" d="m330.5 866.5 8 3v1q-5.845-.832-11-3 1.937.356 3-1" style="opacity:1"/><path fill="#013488" d="M338.5 870.5v-1a110 110 0 0 1 17 3.5q20.024 1.037 40-.5-2.688 1.213-6 1.5-18 1-36 0a126 126 0 0 1-15-3.5" style="opacity:1"/><path fill="#a1aaa2" d="M551.5 876.5q2.056 3.654 3 8-3.232-3.176-3-8" style="opacity:1"/><path fill="#007c2a" d="M705.5 916.5q3.903 9.586 6 20-1.65-2.666-2.5-6-5.483-2.439-1.5-6a18.1 18.1 0 0 1-2-8" style="opacity:1"/><path fill="#a6aba6" d="M566.5 918.5q2.26 7.369 2 15.5-.002 5.524-1 10.5a361 361 0 0 0-1-26" style="opacity:1"/><path fill="#006722" d="M711.5 937.5q3.007 8.563 3 18-3.007-8.563-3-18" style="opacity:1"/><path fill="#97a198" d="M565.5 953.5q-.042 5.124-3 9 .642-4.928 3-9" style="opacity:1"/><path fill="#9ba39c" d="M562.5 962.5q-.31 4.111-3 7 .31-4.111 3-7" style="opacity:1"/><path fill="#97a198" d="M556.5 975.5q-1.314 6.123-5 11 1.314-6.123 5-11" style="opacity:1"/><path fill="#005a1c" d="M714.5 982.5q-.072 8.94-3 17 .544-8.86 3-17" style="opacity:.965"/><path fill="#8c9a8d" d="M549.5 990.5q-.868 4.246-4 7 .868-4.246 4-7" style="opacity:1"/><path fill="#8b9a8c" d="M543.5 1001.5c-.579 2.83-1.912 5.16-4 7 .579-2.83 1.912-5.16 4-7" style="opacity:1"/><path fill="#8e9b8f" d="M536.5 1014.5c-.826 2.98-2.159 5.65-4 8 .294-3.25 1.627-5.92 4-8" style="opacity:1"/><path fill="#939d94" d="M532.5 1022.5c-.63 3.55-1.63 6.88-3 10-.18-3.79.82-7.12 3-10" style="opacity:1"/><path fill="#a1a6a2" d="M529.5 1032.5c.04 4.69.373 9.36 1 14-1.473-2.52-2.14-5.35-2-8.5.006-2.03.339-3.87 1-5.5" style="opacity:1"/><path fill="#898b89" d="M528.5 1063.5c5.07.91 10.07 2.24 15 4 1.213-.25 1.88-.91 2-2a58.5 58.5 0 0 1 10 8 491 491 0 0 1-27-10" style="opacity:1"/><path fill="#007427" d="M639.5 1073.5q-13.301 5.46-28 6 13.446-4.485 28-6" style="opacity:1"/><path fill="#006a23" d="M571.5 1078.5c13.315.83 26.649 1.17 40 1-11.493 1.16-23.159 1.33-35 .5q-2.822-.3-5-1.5" style="opacity:1"/></svg>