<svg xmlns="http://www.w3.org/2000/svg" width="768" height="768"><path d="M0 0h768v768H0V0Z" fill="#FEFEFE"/><path d="m273.63389587 163.6257782 2.92092711-.01204365c3.22658646-.00961652 6.45273378.0021915 9.67930788.013951 2.31462263-.0024282 4.62924422-.00614777 6.94386291-.01106262 6.2850942-.0094094 12.57003266.00001728 18.8551147.01333213 6.57641221.01131328 13.15281674.00720704 19.7292359.00525307 11.04530797-.00142548 22.09055785.01012885 33.135849.02861023 11.35776624.01899917 22.71546116.0260885 34.07324217.0205078 13.69438412-.0067089 27.3887206-.00340482 41.08310128.00910379 5.22750814.00464419 10.45499691.0055206 15.68250656.00341415 6.15677827-.00188408 12.31346506.00623043 18.47022247.0220604 2.25947885.00424148 4.518967.0050943 6.7784481.0023098 3.08456914-.00322453 6.16886544.00586715 9.25340653.01808929l2.70842785-.0114525c6.32150205.04429582 12.62431841.71578574 18.05245167 4.2721489 2 2.3125 2 2.3125 4 5l2 2.375c6 7.875 6 7.875 6 12.625h2l.9711914 1.73046876c6.78843716 12.08327407 13.65569767 24.11513773 20.65649414 36.07666016 6.2082825 10.60933898 12.3456022 21.25915612 18.48120117 31.91064453 3.12791477 5.42882599 6.25969776 10.85541937 9.3911133 16.28222656a432791.10749585 432791.10749585 0 0 1 3.75 6.5l1.875 3.25 5.625 9.75 1.87670897 3.25292969c1.244341 2.15687934 2.48864465 4.31378023 3.73291016 6.47070312 3.87326125 6.71412658 7.74722622 13.42784488 11.62451172 20.13964844 1.28626346 2.23010209 2.56970451 4.46183485 3.85009765 6.6953125 2.57130746 4.4817858 5.14392711 8.95123266 7.8845215 13.33203125 3.54500507 5.71531043 6.4650917 10.5540371 5.8046875 17.48828125-1.12273453 4.54958837-3.1178632 7.17935914-6.96951295 9.75996399-4.98222993 1.90816133-9.50105599 1.75585867-14.79171753 1.70170593l-3.40162659.00132752c-3.7011011-.00208583-7.4017462-.02540803-11.10276794-.04893494-2.5697505-.00559666-5.1395042-.00986643-7.70925904-.01286316-6.06664139-.01027427-12.13309529-.0339055-18.19966614-.06404847-6.90929538-.03358188-13.81859873-.0500395-20.72795546-.0650863C523.4138672 372.11964927 509.2069394 372.0669125 495 372l-1.04062748-1.8232832c-1.57280794-2.7552958-3.1460914-5.5103198-4.71938229-8.26533985l-1.63687897-2.86803436c-3.79741822-6.64866711-7.63257145-13.2714798-11.54061126-19.8558426l-1.58789063-2.68945311C472.99179017 333.99335975 471.49822117 331.49549708 470 329l-1.38769532-2.3413086-1.31152343-2.17041015-1.1394043-1.90112305C464.19856242 319.9047413 462.11183835 318.99578828 459 318c-4.24620248-.53077531-6.40893024-.29553488-10.25 1.625-5.68018056 4.90561048-6.8068036 11.81524325-8.4921875 18.828125l-.7583313 3.07342529c-.79822729 3.23954046-1.5868837 6.48131013-2.3744812 9.7234497-1.03533722 4.23529495-2.07486397 8.46954426-3.1171875 12.703125l-.77191163 3.13998414c-1.7118593 6.91741114-3.54777569 13.78931362-5.48635864 20.64624024C425.67790681 395.08018786 423.82729307 402.47022415 422 409.875c-.34641877 1.39516572-.69310234 2.79026572-1.04003907 4.18530274C419.97084486 418.03959412 418.98529535 422.0197609 418 426c-.9147253 3.68798539-1.8310165 7.37557337-2.75 11.0625l-.58886719 2.36279297c-1.55722592 6.21952279-3.19352685 12.41603576-4.8642578 18.60595703-.62226073 2.3182262-1.2255151 4.63760159-1.796875 6.96875h-2c-.69721388-4.92505728-1.39082644-9.8506044-2.08129884-14.77661133-.23472007-1.67103314-.47037457-3.34193534-.70703125-5.01269531-1.16642038-8.2389228-2.28297257-16.44014963-2.95214844-24.73681641-.37609492-3.58510804-1.07711102-7.0918531-1.75561523-10.63012695-1.08666823-6.13251526-1.6685502-12.3402865-2.359375-18.52734375-.69176347-6.0175983-1.56709618-11.94785495-2.69384766-17.89941406-.5600688-3.00361926-.99351239-6.01242082-1.38818359-9.0419922l-.5-3.8359375c-.43524195-3.461435-.84508865-6.92551822-1.25-10.390625-1.64651766-14.13701988-1.64651766-14.13701988-3.75-28.2109375-1.67439878-10.0587209-2.8876372-20.17456258-4.11694336-30.295166-.90351176-7.41118252-1.87550042-14.80532643-2.95214844-22.19335938-.50246775-3.51230176-.96591109-7.02817095-1.4230957-10.54663086-.31475749-2.32166161-.6298609-4.64327635-.9453125-6.96484375a622879415.8087102 622879415.8087102 0 0 1-.44921875-3.58398437l-.48046875-3.45117188-.40576172-3.07836914c-1.13241223-4.0502821-3.24064588-6.81688032-6.76611328-9.10913086C365.31488145 231.4046782 361.86556883 231.39495445 358 232c-4.04025769 2.05824448-5.35940607 3.48729924-7.11328125 7.62890625-2.19956842 6.78554118-3.7322717 13.76874478-5.31689454 20.71972656-1.20754635 5.26354347-2.5926115 10.45755016-4.0698242 15.65136719-1.8261996 6.42618116-3.43265679 12.86824292-4.90576173 19.38354492-1.55481606 6.73261758-3.47906113 13.34947676-5.48852539 19.95947266-1.34835066 4.544276-2.37602603 8.99774987-3.10571289 13.68432617-.85148214 5.43003558-2.22383215 10.4896107-3.875 15.72265625-2.67425182 8.75310899-4.9904476 17.56528876-7.18359375 26.44921875l-.80926514 3.27572632c-1.36110728 5.52507938-2.70830462 11.05329386-4.0437622 16.58462524-.50456392 2.06221269-1.00927749 4.12438877-1.51416016 6.18652344l-.69688416 2.93547058-.6598053 2.67951966-.56855774 2.35789489C308 407 308 407 306 408l-1.29760743-2.16796875c-1.6115284-2.69161151-3.22375223-5.38280494-4.83642578-8.07373047-1.03201969-1.72250424-2.06325937-3.44547574-3.09448242-5.16845703-1.31886482-2.20025252-2.64152889-4.39823285-3.96826172-6.59375-1.1030245-1.83269928-2.19477122-3.67232177-3.26660156-5.5234375L288.26171875 378.3125l-1.05200196-1.82421875c-2.08809298-2.56892327-4.40318424-3.40392413-7.65852356-3.74440765l-2.78874206-.00888825c-1.05990143-.00827316-2.11980286-.01654632-3.2118225-.0250702l-3.50765992.00297548-3.70639038-.02070618c-2.65739408-.01359645-5.31452478-.02363435-7.97192383-.02770996-4.20211279-.00671896-8.40406526-.02847908-12.60610962-.05253601-8.9194774-.0489477-17.8389887-.08128821-26.75854492-.11193848-9.62944494-.03308965-19.25882705-.06900218-28.888175-.12413072-4.17700718-.02334431-8.3539027-.0370884-12.53096868-.04349471-3.20798087-.0073319-6.41588853-.0273437-9.62382507-.0452652l-3.50765992.00297547-3.2118225-.0250702-2.78874207-.00888823c-3.5291441-.36912141-5.75122742-1.7777863-8.63630676-3.75612641-2.76763076-3.81742173-3.011985-7.85199963-2.8125-12.5 1.28969173-6.70639703 4.6971703-12.0115635 8.1875-17.8125 1.2767692-2.15451695 2.55278558-4.30948015 3.828125-6.46484375l1.99804687-3.36279297c3.18457786-5.38669622 6.3039564-10.81051748 9.42382813-16.23486328 1.25901288-2.18495444 2.518128-4.36984997 3.77734375-6.5546875a556894706.66838 556894706.66838 0 0 0 1.89404296-3.28808594c3.12791477-5.42882598 6.25969776-10.85541937 9.3911133-16.28222656a432691.39968129 432691.39968129 0 0 0 3.75-6.5l22.5-39 1.87548827-3.25097656c1.24822206-2.1634982 2.49659411-4.32690987 3.74511718-6.49023438 3.1534471-5.46443923 6.3041555-10.93042551 9.44970704-16.39941406 3.1115528-5.40938836 6.23605596-10.81116445 9.36425781-16.2109375 1.81406242-3.1460663 3.60861028-6.30269248 5.4013672-9.4609375 1.13753002-1.9794488 2.27552896-3.95862822 3.4140625-5.9375.75531004-1.34819824.75531004-1.34819824 1.5258789-2.72363281 6.43336334-11.09376933 14.1496559-16.50723785 27.10801696-16.400589Z" fill="#3263FD"/><path d="m359 302 2 1c.47070312 2.30981445.47070312 2.30981445.78125 5.36328125l.36328125 3.38085937L362.5 315.3125c.79190809 7.66236346 1.70430273 15.24405146 3.02246094 22.8347168.75622351 4.51762361 1.30460989 9.05596735 1.85253906 13.6027832l.37280273 3.02392578c.58710029 4.76255752 1.16721483 9.52595852 1.74584961 14.28955078.43337711 3.5658627.87061425 7.13123872 1.30963135 10.69641114.17071419 1.39296671.33998144 2.78611163.50769043 4.17944335 1.0462614 8.92321256 1.0462614 8.92321256 2.65386963 17.75598145 1.95764967 9.20809815 2.74364832 18.67086912 3.85791016 28.00976562 1.47364781 12.65518058 1.47364781 12.65518058 3.75292968 25.18261719.76249731 3.79581512 1.10969379 7.63737467 1.48681641 11.48730469.15497391 1.54973915.31243923 3.09923162.47265625 4.6484375l.19946289 2.02880859c.22515066 1.947819.22515066 1.947819.75390625 3.8034668.66782251 2.79975423.89934139 5.5629583 1.15991211 8.42944336l.35253906 3.77099609.18371582 1.98358155C386.74832577 497.030553 387.37723948 503.01509967 388 509l.31933594 3.13916016c1.02925368 12.44790462 1.02925368 12.44790462 7.49707031 22.68115234C399.97887018 537.0690855 404.35256792 537.13446458 409 537v-2l2.3125-1.625c5.10449253-4.51094689 6.159266-11.7871095 7.5625-18.25 1.28875285-5.69338247 2.7008473-11.3258092 4.3125-16.9375 2.66651158-9.33817089 4.97753369-18.76242745 7.3125-28.1875 2.50551524-10.11349191 5.02698022-20.2077764 7.89624023-30.22558594 1.72388675-6.06118883 3.14129939-12.17297862 4.51391602-18.32128906.8524228-3.64346168 1.87678222-7.22370522 2.921875-10.81640625 2.49423267-8.6349031 4.64215055-17.34857796 6.79296875-26.07421875.59354574-2.40202054 1.18783766-4.80385059 1.78353882-7.20533752.3664416-1.47780524.73162718-2.95592276 1.09527588-4.43441773C456.57761528 368.58558039 457.74923231 364.28959483 459 360h2l1.31347656 2.29150391c1.62350042 2.83006232 3.24887313 5.6590323 4.87548828 8.48730468.70093795 1.21962558 1.40114726 2.43967025 2.10058594 3.66015625 1.01089925 1.76366589 2.02449081 3.52576113 3.03857422 5.28759766l1.84082031 3.20556641L476 386l1.79199219 3.20458984C480.45992557 392.58228083 482.92677868 393.9125556 487 395c4.06560348.42399764 8.10520796.40687639 12.18994141.38476562l3.67329406.01628113c2.62473914.00976403 5.24884789.01422706 7.87353897.00964356 4.15225238-.006836 8.30423052.00910172 12.45643235.0283966 9.55982594.04098424 19.1196436.05240011 28.67954254.06352997 8.77086518.01051388 17.54159775.02730184 26.31238115.06809569 4.12579465.01833495 8.25127327.02225678 12.37709891.01506471 3.16891507-.00188066 6.33774004.01537096 9.50661827.0294571l3.45414734-.01863099 3.1773529.02485657 2.75179482.00215912C612.58758519 396.08680072 614.44534079 397.1469179 617 399c2.64231719 3.96347579 3.21878655 7.33027449 3 12-2.59441697 12.16132955-10.75762724 23.1824068-17.03564453 33.68847656-3.31672652 5.5913595-6.54170702 11.23521286-9.77685547 16.87402344-3.84281334 6.67852782-7.69238349 13.34876036-11.6875 19.9375-6.01281832 9.92036039-11.74154461 20.00832875-17.52392578 30.06396484-9.11137893 15.84303769-18.25142332 31.66873777-27.47998047 47.44384766-2.43994889 4.17350602-4.86164934 8.35703517-7.2734375 12.546875l-1.88842773 3.26904297c-1.18460824 2.05134475-2.36538851 4.10490702-3.54150391 6.16113281C517.73119124 591.45848397 512.22735387 600.64646794 500 604c-3.18253032.2873847-6.3506542.27857945-9.54450989.26742554l-2.89190215.01373064c-3.19417831.01264877-6.38818622.01102331-9.58238679.00937116-2.29167398.00598494-4.58334595.01279041-6.87501526.02035523-6.2232018.01767056-12.4463486.02235583-18.66957307.02363157-3.88867888.00142154-7.77734378.00569121-11.6660192.01099444-12.86795319.01754877-25.73586192.02683982-38.60382536.02533905l-2.10060617-.00024216-2.10318198-.00024776c-11.24535208-.00081272-22.49057016.01832291-33.73588349.04652449-11.55688498.0287534-23.11368734.04217298-34.67061069.04081245-6.48421471-.00050979-12.96827775.00518301-19.45246106.0263561-6.09938809.01937283-12.19847968.01951308-18.29787827.00496674-2.23607122-.00209035-4.47216096.00262619-6.70820045.01472091-3.05784251.015466-6.11466438.00613477-9.17248535-.00926208l-2.66719276.03117311C265.12063617 604.43540035 257.90036127 601.74487967 252 596c-1.97021484-2.76635742-1.97021484-2.76635742-3.8359375-5.91796875l-1.02914429-1.72392273C246.0780297 586.57876185 245.03685071 584.7910861 244 583l-1.91503906-3.29541016c-1.91761326-3.33109108-3.81609036-6.67244831-5.70996094-10.01708984-1.4059032-2.47359637-2.81397565-4.94595319-4.22265625-7.41796875l-1.06266785-1.86547852c-3.34529871-5.86569732-6.74182021-11.70095844-10.1521759-17.52905273-10.44270565-17.85978802-20.79496198-35.76439458-30.87890625-53.82958984-7.29737636-13.0696506-14.71990531-26.06442406-22.27294922-38.98803711-1.18385946-2.02699919-2.36520485-4.05546895-3.54394531-6.08544922-2.88546386-4.96600974-5.80202274-9.9066387-8.79638672-14.80786133-1.10678671-1.84634465-2.21355823-3.6926984-3.3203125-5.5390625l-1.5703125-2.5C147.24727403 415.54601135 145.66489549 410.50509874 147 404c2.10075048-3.40725078 4.38568812-6.19284406 8-8 1.55853285-.09249578 3.12100723-.12192612 4.68228149-.12025452l2.99153138-.00416565 3.29347229.01089478 3.45896911-.00044251c3.78762182.00069884 7.57519496.00848992 11.36280823.01631165 2.62031019.00186428 5.24062073.00328814 7.8609314.00428772 6.20127771.00311101 12.40253784.01132131 18.6038078.02134949 7.05915993.01116826 14.11832069.01667339 21.17748726.02169543C242.95420172 395.96013557 257.47710061 395.97773058 272 396l1.25495911 2.18240356c1.57631228 2.74006558 3.15358156 5.4795776 4.73144531 8.21875 1.00267801 1.74128062 2.00430806 3.48316455 3.00590515 5.22506714C291.23305617 431.72772577 291.23305617 431.72772577 305 449c4.46676481.92240509 8.72823567.51411749 12.9375-1.1875 4.53633112-3.9864728 5.84218092-8.98103892 7.18359375-14.68359375l.56373596-2.29933167c.59209616-2.42052306 1.17295046-4.84356053 1.75267029-7.26707458.76557577-3.1663338 1.53586026-6.33149964 2.30859375-9.49609375l.5748291-2.35992432c1.42433057-5.79727263 3.02332187-11.53097348 4.69396973-17.26239013 1.8321766-6.40558001 3.46099019-12.86452688 5.11010742-19.3190918.3856187-1.50285911.77128062-3.00570713 1.15698242-4.50854492 2.15840027-8.42597048 4.28426887-16.85976689 6.38598633-25.30004883l.67089844-2.69281006c1.07418175-4.31413819 2.14502123-8.62906517 3.21044922-12.94537353C353.8490855 320.39337236 356.2912546 311.17472275 359 302Z" fill="#BF13CE"/><path d="M404 443h1l.3671875 2.80859375L405.875 449.4375l.4921875 3.62109375L407 456l2 1 1-3c-1 7.42857143-1 7.42857143-2 11h-2c-2.29612756-14.59681093-2.29612756-14.59681093-2-22Z" fill="#C353F7"/><path d="m359 302 2 1 1 17h-1l-.40234375-2.046875L360.0625 315.25l-.52734375-2.671875c-.3317954-1.59843039-.70127091-3.19012638-1.12890625-4.765625-.49736044-2.21899273-.09437629-3.67166265.59375-5.8125Z" fill="#8172FF"/></svg>