<svg xmlns="http://www.w3.org/2000/svg" width="768" height="768"><path fill="#FEFEFE" d="M0 0h768v768H0z"/><path fill="#3263FD" d="m273.634 163.626 2.92-.012c3.227-.01 6.454.002 9.68.014q3.473-.004 6.944-.011c6.285-.01 12.57 0 18.855.013 6.577.011 13.153.007 19.73.005q16.567 0 33.135.029 17.037.029 34.073.02 20.543-.01 41.084.01 7.841.006 15.682.003 9.236-.002 18.47.022 3.39.006 6.779.002c3.084-.003 6.169.006 9.253.018l2.709-.011c6.321.044 12.624.716 18.052 4.272 2 2.312 2 2.312 4 5l2 2.375c6 7.875 6 7.875 6 12.625h2l.971 1.73c6.789 12.084 13.656 24.116 20.657 36.077 6.208 10.61 12.345 21.26 18.48 31.91q4.694 8.144 9.392 16.283l3.75 6.5 1.875 3.25 5.625 9.75 1.877 3.253 3.733 6.47q5.809 10.072 11.624 20.14 1.93 3.345 3.85 6.696c2.572 4.481 5.144 8.95 7.885 13.332 3.545 5.715 6.465 10.554 5.804 17.488-1.122 4.55-3.117 7.18-6.97 9.76-4.981 1.908-9.5 1.756-14.79 1.702h-3.402c-3.702-.001-7.402-.025-11.103-.048q-3.855-.009-7.71-.013-9.1-.017-18.2-.064c-6.908-.034-13.818-.05-20.727-.065Q516.31 372.102 495 372l-1.04-1.823-4.72-8.266-1.637-2.868a1374 1374 0 0 0-11.54-19.856l-1.588-2.689A1417 1417 0 0 0 470 329l-1.388-2.341-1.311-2.17-1.14-1.902c-1.962-2.682-4.05-3.591-7.161-4.587-4.246-.53-6.409-.296-10.25 1.625-5.68 4.906-6.807 11.815-8.492 18.828l-.759 3.074c-.798 3.24-1.586 6.48-2.374 9.723q-1.553 6.353-3.117 12.703l-.772 3.14a648 648 0 0 1-5.486 20.646c-2.072 7.341-3.923 14.731-5.75 22.136l-1.04 4.185q-1.484 5.97-2.96 11.94-1.372 5.532-2.75 11.063l-.589 2.362a1051 1051 0 0 1-4.864 18.606A329 329 0 0 0 408 465h-2q-1.045-7.387-2.081-14.777-.352-2.506-.707-5.012c-1.167-8.24-2.283-16.44-2.952-24.737-.377-3.585-1.078-7.092-1.756-10.63-1.087-6.133-1.669-12.34-2.36-18.528a248 248 0 0 0-2.693-17.899c-.56-3.004-.994-6.012-1.388-9.042l-.5-3.836a1195 1195 0 0 1-1.25-10.39c-1.647-14.138-1.647-14.138-3.75-28.212-1.675-10.058-2.888-20.174-4.117-30.295a957 957 0 0 0-2.953-22.193 826 826 0 0 1-1.423-10.547l-.945-6.964-.45-3.584-.48-3.452-.405-3.078c-1.133-4.05-3.241-6.817-6.767-9.11-3.708-1.31-7.157-1.319-11.023-.714-4.04 2.058-5.36 3.487-7.113 7.629-2.2 6.785-3.733 13.769-5.317 20.72-1.208 5.263-2.593 10.457-4.07 15.651-1.826 6.426-3.433 12.868-4.906 19.384-1.555 6.732-3.479 13.349-5.488 19.959-1.349 4.544-2.376 8.998-3.106 13.684-.851 5.43-2.224 10.49-3.875 15.723-2.674 8.753-4.99 17.565-7.184 26.45l-.809 3.275a3679 3679 0 0 0-4.044 16.585l-1.514 6.186-.697 2.936-.66 2.68-.568 2.357C308 407 308 407 306 408l-1.298-2.168q-2.416-4.038-4.836-8.074l-3.095-5.168q-1.977-3.3-3.968-6.594a379 379 0 0 1-3.266-5.523l-1.275-2.16-1.052-1.825c-2.088-2.569-4.403-3.404-7.659-3.744l-2.789-.009-3.211-.025-3.508.003-3.706-.02q-3.987-.021-7.972-.029a2943 2943 0 0 1-12.606-.052c-8.92-.049-17.84-.081-26.759-.112-9.63-.033-19.259-.069-28.888-.124q-6.265-.034-12.531-.044c-3.208-.007-6.416-.027-9.624-.045l-3.508.003-3.211-.025-2.79-.009c-3.528-.369-5.75-1.778-8.635-3.756-2.768-3.817-3.012-7.852-2.813-12.5 1.29-6.706 4.697-12.012 8.188-17.812l3.828-6.465 1.998-3.363c3.184-5.387 6.304-10.81 9.424-16.235l3.777-6.555 1.894-3.288q4.693-8.143 9.391-16.282l3.75-6.5 22.5-39 1.875-3.251 3.746-6.49q4.73-8.196 9.45-16.4c3.11-5.409 6.235-10.81 9.364-16.21 1.814-3.147 3.608-6.303 5.4-9.461L245 182.75l1.526-2.724c6.433-11.093 14.15-16.507 27.108-16.4"/><path fill="#BF13CE" d="m359 302 2 1c.47 2.31.47 2.31.781 5.363l.364 3.381.355 3.568c.792 7.663 1.704 15.245 3.022 22.835.757 4.518 1.305 9.056 1.853 13.603l.373 3.024a8100 8100 0 0 1 1.746 14.29q.65 5.347 1.31 10.696.256 2.09.507 4.18c1.046 8.923 1.046 8.923 2.654 17.755 1.957 9.208 2.743 18.671 3.858 28.01 1.473 12.655 1.473 12.655 3.753 25.183.762 3.796 1.11 7.637 1.487 11.487q.232 2.326.472 4.648l.2 2.03c.225 1.947.225 1.947.754 3.803.667 2.8.899 5.563 1.16 8.43l.352 3.77.184 1.984c.563 5.99 1.192 11.975 1.815 17.96l.32 3.14c1.029 12.447 1.029 12.447 7.496 22.68 4.163 2.25 8.537 2.314 13.184 2.18v-2l2.313-1.625c5.104-4.51 6.159-11.787 7.562-18.25 1.289-5.693 2.7-11.326 4.313-16.937 2.666-9.339 4.977-18.763 7.312-28.188 2.506-10.113 5.027-20.208 7.896-30.226 1.724-6.06 3.142-12.173 4.514-18.32.853-3.644 1.877-7.225 2.922-10.817 2.494-8.635 4.642-17.349 6.793-26.074q.89-3.604 1.784-7.206l1.095-4.434A326 326 0 0 1 459 360h2l1.313 2.292q2.437 4.245 4.876 8.487l2.1 3.66q1.517 2.646 3.04 5.288l1.84 3.205L476 386l1.792 3.205c2.668 3.377 5.135 4.708 9.208 5.795 4.066.424 8.105.407 12.19.385l3.673.016q3.938.016 7.874.01c4.152-.007 8.304.009 12.456.028 9.56.041 19.12.052 28.68.064 8.77.01 17.541.027 26.312.068q6.188.026 12.377.015c3.17-.002 6.338.015 9.507.03l3.454-.02 3.177.025 2.752.003c3.136.463 4.993 1.523 7.548 3.376 2.642 3.963 3.219 7.33 3 12-2.594 12.161-10.758 23.182-17.036 33.688-3.316 5.592-6.541 11.236-9.777 16.875-3.842 6.678-7.692 13.348-11.687 19.937-6.013 9.92-11.742 20.008-17.524 30.064-9.111 15.843-18.251 31.669-27.48 47.444a2154 2154 0 0 0-7.273 12.547l-1.889 3.269a1719 1719 0 0 0-3.541 6.16C517.73 591.459 512.227 600.647 500 604c-3.183.287-6.35.279-9.545.267l-2.891.014c-3.195.013-6.389.011-9.583.01q-3.437.008-6.875.02c-6.223.018-12.446.022-18.67.024q-5.832.001-11.665.01-19.302.027-38.604.026h-4.204c-11.245-.001-22.49.018-33.736.046q-17.336.043-34.67.04c-6.485 0-12.969.006-19.453.027q-9.149.029-18.298.005-3.354-.003-6.708.015a905 905 0 0 1-9.173-.01l-2.667.032c-8.137-.09-15.358-2.781-21.258-8.526-1.97-2.766-1.97-2.766-3.836-5.918l-1.03-1.724A553 553 0 0 1 244 583l-1.915-3.295a1621 1621 0 0 1-5.71-10.018 7599 7599 0 0 0-4.223-7.417l-1.062-1.866a1820 1820 0 0 0-10.152-17.529c-10.443-17.86-20.795-35.764-30.88-53.83a2283 2283 0 0 0-22.272-38.988 2791 2791 0 0 1-3.544-6.085 780 780 0 0 0-8.797-14.808l-3.32-5.539-1.57-2.5c-3.308-5.579-4.89-10.62-3.555-17.125 2.1-3.407 4.386-6.193 8-8a78 78 0 0 1 4.682-.12l2.992-.004 3.293.01h3.46c3.787 0 7.574.009 11.362.016l7.861.005q9.302.005 18.604.021 10.588.015 21.177.022 21.784.016 43.569.05l1.255 2.182 4.731 8.22q1.505 2.61 3.006 5.224C291.233 431.728 291.233 431.728 305 449c4.467.922 8.728.514 12.938-1.187 4.536-3.987 5.842-8.982 7.183-14.684l.564-2.3c.592-2.42 1.173-4.843 1.752-7.267q1.149-4.749 2.31-9.496l.574-2.36c1.424-5.797 3.023-11.53 4.694-17.262 1.832-6.405 3.46-12.864 5.11-19.319l1.157-4.509a3882 3882 0 0 0 6.386-25.3l.67-2.692q1.613-6.472 3.211-12.946c2.3-9.285 4.742-18.503 7.451-27.678"/><path fill="#C353F7" d="M404 443h1l.367 2.809.508 3.628.492 3.622L407 456l2 1 1-3c-1 7.429-1 7.429-2 11h-2c-2.296-14.597-2.296-14.597-2-22"/><path fill="#8172FF" d="m359 302 2 1 1 17h-1l-.402-2.047-.536-2.703-.527-2.672a81 81 0 0 0-1.129-4.765c-.497-2.22-.094-3.672.594-5.813"/></svg>