<svg xmlns="http://www.w3.org/2000/svg" viewBox="-0.13 -0.11 877.13 877.55"><path fill="#0100c7" d="M0 0h877v877H0z"/><path fill="#e5f3fe" d="M442 152c6.118 3.072 8.457 7.531 11.625 13.438l3.16 5.707 1.614 2.948 7.664 13.533 3.004 5.254 21.699 37.01c3.033 5.011 5.883 10.097 8.669 15.249 2.748 5.024 5.631 9.97 8.503 14.924l2.981 5.155 3.066 5.299 9.453 16.358 1.854 3.211 15.055 26.29 12.787 22.036L565 359l20.395 34.973 1.199 1.989 3.203 5.281c2.297 3.853 4.414 7.799 6.552 11.741l9.151 16.204 1.049 1.835 16.226 28.031 26.288 45.572 12.75 22.063L677 552.813l1.851 3.196 8.364 14.894c2.004 3.697 4.086 7.3 6.348 10.848 4.384 7.041 8.431 14.259 12.491 21.49l13.118 22.655c2.68 4.552 3.386 7.825 2.828 13.105-1.303 3.155-2.129 4.552-5.17 6.116-3.426 1.07-6.337 1.146-9.928 1.159l-2.106.015-6.859.011-4.785.013-10.016.002c-4.274-.006-8.547.011-12.821.034l-9.878.012-4.727.016c-2.204.012-4.408.006-6.612-.006l-3.797.002c-3.575-.405-5.438-1.242-8.301-3.374-1.526-2.014-1.526-2.014-2.797-4.324l-1.452-2.593-1.501-2.77-1.589-2.858-3.177-5.754-5.079-9.082-7.748-13.81-11.173-19.307c-1.465-2.471-2.851-4.971-4.218-7.498l-10.328-18.754-.976-1.758-18.553-33.004-5.97-10.613-10.125-17.812-15.03-26.623L525.5 445.5l-13.562-24.125-20.837-36.686-6.163-10.752-1.037-1.812-14.242-25.456-9.482-16.873-5.195-9.219-1.615-2.883-3.154-5.677-1.477-2.623-1.306-2.348c-1.588-2.275-3.07-3.595-5.429-5.046-3-.333-3-.333-6 0l-2.25.188c-2.62 1.217-2.736 3.166-3.75 5.813a147 147 0 0 1-2.547 4.641l-1.539 2.706-1.664 2.904-3.543 6.227-1.853 3.255-8.917 15.894-14.399 25.422L384 389.5l-14.461 25.547L358 435.5l-13 23-18.213 32.302-27.16 48.325-8.376 14.811-1.654 2.926-9.158 16.262-11.922 20.949-10.854 19.376c-3.308 5.974-6.749 11.864-10.264 17.719-2.007 3.366-3.888 6.746-5.625 10.261C240 645 240 645 239 646a157 157 0 0 1-7.103.177l-2.252.02-7.411.041-2.553.012-13.381.045-13.824.085-10.624.038-5.095.035-7.138.016-2.123.039c-4.769-.051-7.13-1.17-10.498-4.509-2.306-3.294-2.252-6.046-2-10 1.066-2.586 1.066-2.586 2.563-5.16l1.654-2.886 1.783-3.017 1.801-3.114a679 679 0 0 1 11.523-19.089c2.093-3.414 3.985-6.914 5.879-10.441 7.178-13.155 14.813-26.065 22.375-39.001l18.517-31.988 5.764-9.988 17.453-30.379 11.911-20.506 10.964-19.001 14.24-24.766 11.697-20.413 14.233-24.376 9.079-15.749c6.593-11.834 13.502-23.489 20.351-35.176l20.379-35.43 13.241-22.747 10.075-17.527 12.144-21.034 11.622-20.149 13.301-22.902 5.117-8.852 1.341-2.343 2.505-4.436c3.797-6.599 7.313-10.677 15.486-9.53z"/><path fill="#fefefe" d="M876 458h1v419H455v-1l2.442-.088C505.545 873.999 551.827 863.615 597 847l3.59-1.301c7.592-2.825 14.937-6.114 22.224-9.642l4.563-2.188C652.935 821.677 677.338 806.988 700 790l3.074-2.297c13.89-10.476 27.433-21.892 39.551-34.391C745 751 745 751 747 751v-2h2l.802-1.795c1.237-2.278 2.493-3.703 4.358-5.49l1.891-1.84 2.011-1.938A196 196 0 0 0 775 719l3.082-3.742c7.025-8.505 13.672-17.166 19.918-26.258l1.188-1.71C816.061 662.946 830.91 636.479 842 609l1.008-2.445C862.727 558.614 872.606 509.496 876 458M462 0h415v422h-1l-.12-2.493C872.093 344.049 850.479 272.523 811 208l-2.656-4.402C802.719 194.355 796.539 185.616 790 177l-1.758-2.34c-10.199-13.35-20.984-26.456-32.906-38.309C753 134 753 134 750.688 131.125c-2.545-3.115-5.47-5.614-8.527-8.215-2.267-2.004-4.364-4.116-6.473-6.285-4.017-4.065-8.275-7.669-12.734-11.238a330 330 0 0 1-7.796-6.527C708.993 93.569 702.682 88.628 696 84l-2.381-1.658C682.314 74.491 670.993 66.764 659 60l-2.435-1.377C596.681 24.942 530.748 4.625 462 1zM0 455h1l.113 3.715C2.267 490.899 7.408 522.974 16 554l.936 3.438c7.187 26.122 17.113 50.807 28.876 75.187l.916 1.902c6.035 12.464 12.815 24.43 20.271 36.098l1.558 2.448L73 680l1.157 1.807c4.795 7.462 10.031 14.525 15.509 21.492l4.1 5.284c4.854 6.273 9.816 12.35 15.191 18.191a233 233 0 0 1 5.48 6.227c3.52 4.051 7.329 7.783 11.148 11.551a118 118 0 0 1 6.039 6.637c2.811 3.274 5.817 6.072 9.109 8.855 2.644 2.284 5.162 4.684 7.703 7.082 6.832 6.362 14.266 11.904 21.731 17.493 2.162 1.631 4.28 3.314 6.394 5.007C244.072 842.322 330.884 871.783 416 876v1H0zM0 0h420v1l-2.189.136C388.151 3.017 358.733 6.114 330 14l-3.006.812C300.319 22.053 275.036 31.284 250 43l-2.925 1.367c-39.357 18.58-74.788 44.146-106.739 73.52a122 122 0 0 1-5.711 4.863c-2.399 2.056-4.267 4.203-6.227 6.668-1.585 1.793-3.306 3.244-5.148 4.77-4.2 3.578-7.51 7.642-10.934 11.953-3.044 3.758-6.29 7.308-9.566 10.863-1.798 1.881-1.798 1.881-2.75 3.996h-2l-.723 1.641c-1.612 2.978-3.61 5.456-5.715 8.109C36.318 241.537 7.281 327.111 1 416H0z"/><path fill="#e5f3fe" d="m440.313 449.125 2.238.133c7.331 2.222 10.202 8.3 13.66 14.629L458 467.25c3.614 6.699 7.237 13.236 11.541 19.516 2.775 4.247 5.071 8.762 7.459 13.234l7.375 13.375 1.883 3.422c3.772 6.811 7.721 13.475 11.832 20.086 2.892 4.717 5.591 9.535 8.286 14.367l11.438 19.938 12.938 22.375 19.066 33 1.551 2.656 3.589 6.063 1.946 3.281 1.793 3.004C560 644 560 644 560 646H317c6.517-13.033 6.517-13.033 9.762-18.055 2.372-3.728 4.5-7.601 6.675-11.445L347 593l12.813-22.187 14.875-25.625 13.993-24.286c3.945-7.075 8.064-14.049 12.157-21.039l9.975-17.425a579 579 0 0 1 9-15.562l1.095-1.83c10.051-16.663 10.051-16.663 19.405-15.92z"/><path fill="#0e0cb6" d="M850 288c2.115 2.115 2.549 3.17 3.445 5.953l.813 2.52.866 2.777.915 2.914c7.541 24.413 13.419 48.948 17.21 74.211l.532 3.458c1.159 8.098 1.412 15.993 1.218 24.167l-1.375-2-1.625-2h-2l-.562-6.937-.316-3.902L869 386l1-1a86 86 0 0 0 .563-4.562l.254-2.504L871 376l-2 1a109 109 0 0 0-1 7h-2l-.125-4.812-.07-2.707C866 374 866 374 868 371a75 75 0 0 0 1-5l-3 1 .07-3.508.055-4.617.051-2.305c.04-4.633-.485-8.194-2.176-12.57a148 148 0 0 1-1.125-4.875l-.508-2.367L862 335h-3l-.437-3.312c-.445-3.619-.445-3.619-1.562-6.687v-4l-2.375-.312C852 320 852 320 850 317c-.446-6.913-.446-6.913 1-10.437 1.486-3.808 1.158-7.522 1-11.562h-3q-.063-3 0-6z"/><path fill="#0508a5" d="M321 634h2c-1.277 4.223-2.672 7.12-5 11l242 1v1l-92.717.484-10.939.053-2.2.011-35.291.188-36.195.183-22.346.12-17.117.081-7.035.041-9.574.042-2.839.029-2.583-.002-2.233.012C317 648 317 648 314 646v-2l1.813-1.187c3.064-2.539 3.791-5.112 5.188-8.812z"/><path fill="#0807bc" d="M464 868c24.1-.212 24.1-.212 31 1l1 1c1.343.086 2.69.107 4.035.098l2.451-.01 2.576-.025 2.588-.014L514 870v1c-19.464 3.206-38.269 5.236-58 5v-1l10-1-3-2z"/><path fill="#0b0cad" d="M611 597c2.262 2.077 3.637 3.954 4.934 6.73 2.956 6.143 6.369 12.017 9.744 17.937l4.213 7.524 2.922 5.184 1.381 2.505 1.326 2.331 1.159 2.072c1.654 2.15 2.781 2.732 5.321 3.717 3.275.328 3.275.328 6.972.319l2.1.03 6.85.065 4.758.059 12.507.128 12.769.141L713 646v1h-74v-2l-5-1-2-7-4-1 .188-2.812c.144-3.134.144-3.134-1.562-4.75L625 627c-1.187-2.687-1.187-2.687-2-5l-2 2v-2l-3-1 2-7-4-1-1-6h-2v-2l-2-1 1-4h-2z"/><path fill="#0302c8" d="M850 288c2.234 2.234 2.694 3.612 3.656 6.586l.908 2.804.936 2.985.951 3.028c2.971 9.66 5.489 18.509 3.549 28.597-2.603-2.712-2.995-3.891-3.187-7.75L857 321l-2.375-.312C852 320 852 320 850 317c-.446-6.913-.446-6.913 1-10.437 1.486-3.808 1.158-7.522 1-11.562h-3q-.063-3 0-6z"/><path fill="#0807c0" d="M334 864c5.884-.169 11.493.473 17.313 1.313l2.686.357c4.437.631 8.521 1.45 12.756 2.924 6.536 2.07 13.081 1.73 19.871 1.594l3.91-.041L400 870v2l4 1-1 2c-10.001.442-19.388-.716-29.227-2.344l-7.318-1.172c-10.92-1.746-21.687-3.971-32.455-6.484z"/><path fill="#0603cb" d="M107 725h4v3l1.875.75c2.503 1.472 2.955 2.66 4.125 5.25l2 1 1 2h4l.188 2.313c.577 2.893.577 2.893 3.25 4.438L130 745l2 1v2l4 1 1-3c1 1 1 1 1.063 4.063L138 753l5 2v2h-2l1 2c2.025.652 2.025.652 4 1v3l1.875.125L150 764c1.25 3.063 1.25 3.063 2 6-4.891-3.468-9.254-7.103-13.418-11.418-1.66-1.726-1.66-1.726-4.082-3.52-2.118-1.747-3.677-3.361-5.437-5.437-4.076-4.797-8.564-9.155-13.088-13.525-3.541-3.471-6.383-6.868-8.975-11.1"/><path fill="#0b0abf" d="M136 120h2v3l-2.375.625c-2.93 1.143-2.93 1.143-3.562 4.313C131 131 131 131 127.938 132.75L125 134l-1 2h2l2 5c-2.085 1.699-3.839 2.941-6.375 3.875-3.488 1.495-5.785 3.616-8.625 6.125-.77-2.664-.77-2.664-1-6 1.801-2.773 1.801-2.773 4.313-5.375l2.488-2.648C121 135 121 135 123 135l2-4h2l2-4h2l2-4h2z"/><path fill="#0e0bb8" d="m48 634 4 1v5l2 1c.594 2.649.742 5.292 1 8h5v4l2 1v7h2l2 4 1.063 2.063C68 669 68 669 69 672h2l1.25 3.125c1.541 3.62 3.481 6.667 5.75 9.875l-1 2a326 326 0 0 1-13.875-21.062l-1.824-3.011c-3.703-6.159-7.32-12.355-10.738-18.677l-1.162-2.11c-.882-1.673-1.653-3.403-2.401-5.14z"/><path fill="#0e0fb2" d="M280 572c1.208 3.623.543 4.641-1 8h-2l-1 9h2l-1 4h-2v-5c-2.909 2.628-4.147 4.223-5 8-1.562 1.75-1.562 1.75-3 3h3l1-2-1 7-3 1v-2h-3l-1 5h-2l.375 3.125c-.514 5.314-2.4 6.48-6.375 9.875l-2-1c7.075-13.22 14.234-26.353 21.942-39.215z"/><path fill="#1110a7" d="M628 43c11.313 5.197 22.305 10.619 33 17l2.52 1.445C671.649 66.164 679.295 71.628 687 77l-3 1c-1.684-.961-1.684-.961-3.437-2.375-1.971-1.579-3.256-2.549-5.723-3.164L673 72l-1-2c-2.527-.656-2.527-.656-5-1v-2h-3l-1-3-3-1v-2h-7l-1-3c-3.154-2.19-6.409-3.666-10-5v-2l-1.672-.34c-2.729-.774-5.056-1.928-7.578-3.223l-2.703-1.379L628 45z"/><path fill="#1513a8" d="M467 1c8.169-.252 16.096.708 24.188 1.75l2.12.267A525 525 0 0 1 530 9v1l-5.625.125-3.164.07C518 10 518 10 515.188 9c-4.252-1.334-8.139-1.217-12.562-1.125l-2.52.027L494 8l1-2h-15V3l-2.082.07-2.73.055-2.707.07C470 3 470 3 467 1"/><path fill="#0404bf" d="M349 288c3 0 3 0 5 1l-15 26-2-4 3-1v-3h2v-3l-4 1c-.187-2.312-.187-2.312 0-5a102 102 0 0 1 3-3l2-6 2-2c1.245 2.491.777 3.411 0 6h2z"/><path fill="#0907b9" d="m798 682 1 2h2c-1.595 5.008-4.584 8.708-7.75 12.813l-1.555 2.041-3.111 4.067-6.394 8.617L781 713h-1v-6l3 1 1-5h2v-6h2l.316-1.766c.787-2.571 1.859-3.968 3.621-5.984l1.59-1.859C795 686 795 686 797 686z"/><path fill="#1311b6" d="M870 512c1.299 2.598.83 3.704.25 6.531l-.585 2.861L869 524.5l-.671 3.186C865.688 539.912 862.381 551.96 859 564l-3-3 3-1-2-5h-1v-6h2v3h2v-8h3l.148-1.723c.483-4.984 1.449-9.457 2.852-14.277.424-2.664.717-5.316 1-8h-3l2-6 1 2h2z"/><path fill="#0e0eb3" d="M152 770h10l-1 3h-2c3.262 3.683 3.262 3.683 7.563 5.875 2.405.123 4.163-.117 6.438-.875l.375 1.875c.497 2.316.497 2.316 2.625 4.125l1 4h3l.563 1.75c2.143 3.354 4.926 4.429 8.438 6.25l-1 3c-25.302-18.321-25.302-18.321-36-28v-1z"/><path fill="#0103bf" d="M608.125 835.875 611 836v3h5c-2.161 2.161-3.686 2.824-6.5 3.945l-2.687 1.074-2.812 1.105-2.812 1.129C594.267 849 594.267 849 592 849v-2l3-1 1-2 5 1v-3l-3.375-.437C594 841 594 841 592 840v-3l1.563.5c3.214.659 6.166.682 9.438.5 2-2 2-2 5.125-2.125z"/><path fill="#1514ae" d="M1 456c2.169 3.254 2.241 4.134 2.195 7.887l-.02 2.842-.051 2.959-.027 2.994L3 480h2l1 16 3 1-.494 1.743c-.496 2.214-.621 4.104-.604 6.366l.01 2.285.025 2.355.014 2.402L8 518c-2.263-3.745-2.827-7.748-3.5-12l-.384-2.395C1.652 487.701.692 472.088 1 456"/><path fill="#0505ba" d="M575 533c2.468 3.125 4.421 6.382 6.355 9.859l1.885 3.379 1.947 3.512 1.982 3.559L592 562l-3 3-2-1-1-7-2-3-2 3h-2c-1.461-2.647-2-3.894-2-7h2v-5h-2v-5h-2z"/><path fill="#0a0bbb" d="M317 506c1 3 1 3 1 6h2c-.42 4.904-2.572 6.656-6 10-1.283 2.538-1.283 2.538-2 5l-1 3-6 2c-1.837 1.499-1.837 1.499-3 3 1.281-4.188 2.863-7.821 5.039-11.617l1.758-3.086 1.828-3.172 1.852-3.242z"/><path fill="#0102bc" d="M23 297c2 3.75 2 3.75 2 6l2-1-1 12h-3v6l-2 1v-2l-3 1c-1.856-5.206.157-9.375 1.938-14.312l.881-2.533z"/><path fill="#0c0ab3" d="M4 376h1a144 144 0 0 1-1 20l2 1v2h2c.313 3.188.313 3.188 0 7l-2.5 2.438c-2.633 2.204-2.633 2.204-2.797 4.473a91 91 0 0 0 .188 4.152c.137 2.43-.303 4.586-.891 6.938H1c-.503-16.185 1.037-31.943 3-48z"/><path fill="#0102ba" d="M715 619h2c4.78 6.104 7.059 12.377 8 20l2-6 3 2c.188 2.625.188 2.625 0 5l-2 1c-.656 2.527-.656 2.527-1 5l-1.875.438c-2.158.494-2.158.494-4.125 1.563l-3-3 1.5-2.5c1.75-4.082 2.419-7.184 1.5-11.5-1.756-4.142-3.803-8.077-6-12z"/><path fill="#100eae" d="M549 14c16.39 3.878 32.149 9.369 48 15v1h-15l2-4h-8v-3h-8l-1-2h-5v2c-3-1-3-1-4.25-2.937-2.474-2.916-5.103-3.237-8.75-4.062z"/><path fill="#1511af" d="M234 50v3c-2 2-2 2-5 3l2 2-1.977.297c-5.653.967-9.577 2.035-14.023 5.703l-2 3-1-1-2 3a133 133 0 0 1-5 1l-1 2h-2v2l-8 1c2.232-2.402 4.539-4.097 7.324-5.82l2.597-1.611 2.766-1.694 2.823-1.739C217.557 59.209 225.725 54.53 234 50"/><path fill="#0403b5" d="M312.563 849.938 316 850v2l-3.437.938c-3.35.692-3.35.692-4.562 2.063 5.882 1.877 11.684 3.431 17.773 4.473 2.309.547 4.153 1.387 6.227 2.527v2c-9.28-2.02-18.428-4.304-27.5-7.125l-2.517-.768c-2.015-.641-4.003-1.366-5.983-2.107l-1-2 2.809-.184 3.629-.254 3.621-.246c3.687-.397 3.569-1.31 7.504-1.379z"/><path fill="#e5f5f6" d="M232 499h2l1 4-1.895.227c-2.279.568-2.279.568-3.117 2.734l-.676 2.414-.699 2.398L228 513l-1 3-3 1 .063 2.875C224 523 224 523 223 525h-2l-.875 2.438C219 530 219 530 217 531l-2-1c1.441-3.844 3.214-7.344 5.223-10.922l1.881-3.355 1.959-3.473 1.971-3.52c4.829-8.593 4.829-8.593 5.967-9.73z"/><path fill="#0705bc" d="m69 202 1 2-3 6-1.187 2.375L65 214h-2v3h-2l.438 1.75L62 221l.75 1.813c.403 3.53-1.229 6.023-2.75 9.188-3-1-3-1-5-3l-1-2 4.063-7.562 1.248-2.18c3.02-5.229 6.198-10.328 9.69-15.258z"/><path fill="#0709bb" d="M374 528c4.312 1.437 5.195 3.26 8 7l-9 15c-1.918-3.836-2.206-4.975-2-9v-3l-1-1a99 99 0 0 1 0-5h3l3 6 2-1-1-5h-3z"/><path fill="#d8d9f8" d="m761 735 1 3c-1.312 2.188-1.312 2.188-3 4h-2l-.187 2.375L756 747c-2.5 1.188-2.5 1.188-5 2l-1 2 2 1h-3l-1 3-3 1c-.733 2.015-.733 2.015-1 4h-2v-2l-4 1 2.813-3.437 1.582-1.934C744 752 744 752 747 751v-2h2l.68-1.672c1.724-3.04 3.945-5.142 6.445-7.578l2.758-2.703z"/><path fill="#1012a4" d="M461 179c3 1 3 1 4.188 3.063L466 184h2c2.003 3.004 2.493 4.71 3.125 8.188l.508 2.73L472 197h2l1.375 3.438c1.196 3.61 1.196 3.61 3.625 4.563l4.063 7.813 1.104 2.197c1.644 3.321 3.03 6.356 3.834 9.99-2.363-2.182-3.922-4.349-5.496-7.148l-1.427-2.519-1.515-2.708-3.199-5.664-1.666-2.958-5.155-9.026-1.672-2.909-3.212-5.577-1.455-2.538-1.292-2.245C461 180 461 180 461 179"/><path fill="#100cad" d="M25 585h2v3h2l1.5 4.813.844 2.707C32 598 32 598 32 601l3 1c1.705 3.321 2 5.185 2 9l2 1v5l3-1 1.5 6.563c.475 2.56.475 2.56 1.5 5.438l-2 1c-6.592-14.468-13.126-28.842-18-44z"/><path fill="#0707be" d="M710 95c3.522 1.564 6.271 3.695 9.25 6.125l2.703 2.195L724 105l-2 2c-2.125-.375-2.125-.375-4-1l-1 3c-2.468-1.152-4.048-2.048-6-4l4-5-1.645.84-2.168 1.098-2.145 1.09C707 104 707 104 704 105v-3l6-4z"/><path fill="#0b0cae" d="M472 351c4.302 4.811 7.098 10.411 10.125 16.063l1.629 3.01L490 382h-4v-2h-2v-6l-3-1c-1.187-3.562-1.187-3.562-2-7l-5 2 .688-3.312L475 361a102 102 0 0 0-3-3c-.187-3.687-.187-3.687 0-7"/><path fill="#110fb4" d="M91 170c1.245 2.491.777 3.411 0 6h-2v2l3 1-5 5v-3c-2.256.847-2.256.847-2.937 3.438C83 187 83 187 80 189c-.798 2.416-.798 2.416-1.187 5.125l-.48 2.758L78 199l-1-3h-3v3l-3-1 1.082-1.494z"/><path fill="#1112ac" d="M587 398c7.159 2.947 10.343 11.213 13.188 17.98L601 418l1.25 3.063L603 423h2v3l3 1v4c1.426 2.711 1.426 2.711 3 5l-2 1-1.19-2.136-5.435-9.739-1.871-3.359c-3.322-5.945-6.7-11.84-10.255-17.649A84 84 0 0 1 587 398"/><path fill="#0202b6" d="M850 288c3.448 3.448 4.243 8.359 5.688 12.938l1.01 3.076.939 2.951.866 2.707C859 312 859 312 858 315l-1-4h-2l-1-2-2 7h-2c-.251-6.404-.251-6.404 1-9.375 1.465-3.845 1.16-7.556 1-11.625h-3q-.063-3 0-6z"/><path fill="#110fae" d="M107 725h4v3l1.875.75c2.503 1.472 2.955 2.66 4.125 5.25l2 1 1 2h4l.188 2.313c.565 2.882.565 2.882 3.188 4.313L130 745c2.591 2.128 3.431 3.697 4 7-4.269-1.366-6.375-3.16-9.25-6.562-3.068-3.549-6.196-6.921-9.562-10.187-3.267-3.215-5.862-6.306-8.187-10.25z"/><path fill="#ebedfc" d="m373 872 2.225.26c13.578 1.574 27.115 3.134 40.775 3.74v1h-40l1-3z"/><path fill="#e8f5f6" d="m426 163 3 1-2 1 .645 1.652c.491 3.243-.542 4.981-1.957 7.91l-1.363 2.879C423 180 423 180 421 183v-2h-3l-1 2-2-1 4.938-8.937 1.42-2.576 1.357-2.451 1.254-2.269C425 164 425 164 426 163"/><path fill="#1a17af" d="M334 864c5.884-.169 11.493.473 17.313 1.313l2.686.357a91.3 91.3 0 0 1 15.793 3.678c2.111.623 4.088.966 6.271 1.214L379 871l1 2c-15.587-1.308-30.742-4.69-46-8z"/><path fill="#dae8f9" d="m442 449-3 1v2l2 1-3.875.625c-2.207.468-2.207.468-4.125 1.375-1.476 2.926-1.476 2.926-2 6l-2 2v-2h-3l-1 2-2-1c4.784-8.388 8.773-13.227 19-13"/><path fill="#0100c1" d="m816 658 2 1-10 16c-1.245-2.491-.777-3.411 0-6-3.27.564-4.826 1.5-7 4-.687-1.812-.687-1.812-1-4 1.125-1.687 1.125-1.687 3-3l2.563-.375L808 665c1.375-2.476 1.375-2.476 2-5l2 1c2.098-.399 2.098-.399 4-1z"/><path fill="#0909bd" d="M452 316c2.581 2.358 4.28 4.875 6.063 7.875l1.535 2.555c1.349 2.473 2.415 4.935 3.402 7.57l-1.875.438c-2.158.494-2.158.494-4.125 1.563v-2l-3-1c-.73-2.066-.73-2.066-1.187-4.562l-.48-2.504L452 324l2-1z"/><path fill="#e1eefd" d="m381 240 2 1c-.276 6.205-1.106 10.102-5 15l-3-1-1 4h2l-1 2c-2.062.625-2.062.625-4 1l-1-2c.896-2.063.896-2.063 2.309-4.57l1.514-2.715 1.615-2.84 1.604-2.863z"/><path fill="#d9e7fd" d="M241 640c0 3 0 3-2 6-2.632.361-2.632.361-6.01.341l-3.822-.001-4.145-.047-4.229-.013-11.136-.074-11.361-.06L176 646v-1l2.168-.031 20.259-.308 10.415-.158 11.982-.186 3.766-.051 3.518-.06 3.089-.047c2.693-.152 5.177-.558 7.803-1.158v-2z"/><path fill="#0302bd" d="M545 480c2.822 3.525 4.983 7.327 7.188 11.25l1.115 1.969L556 498l-2 2-1-3-2-1-2 5-3-1v-5l3 1-1.5-3.312C546 489 546 489 546 486h-2z"/><path fill="#1311b8" d="M860 319c2.227 3.34 2.828 5.883 3.727 9.785l.462 1.991.953 4.158 1.468 6.373C869 351.679 869 351.679 869 354h-2c-1.969-6.289-3.647-12.549-5-19h-3l.219-2.23.281-2.957.281-2.918c.2-2.646.258-5.242.219-7.895"/><path fill="#1718b7" d="M314 18v2l-6 1v2l-2 1 1 2-6 2-1-2-12 1c2.308-2.308 3.847-2.754 6.938-3.727l2.961-.937 3.102-.961 3.102-.984C311.715 18 311.715 18 314 18"/><path fill="#d6d8fd" d="M498 873c-1.669 2.286-3.016 3.812-5.871 4.358l-7.05.033-2.606-.017-8.222-.123-5.582-.055L455 877v-1l2.95-.168 10.875-.632 4.699-.271 6.769-.395 2.109-.117c5.279-.319 10.31-1.569 15.598-1.418z"/><path fill="#d3d8fe" d="M0 455h1l.148 3.82C1.696 471.926 2.702 484.948 4 498l-4-2z"/><path fill="#dfe1fd" d="m393.145-.098 2.333.004 7.335.031 4.99.014L420 0v1l-2.364.168-10.823.77-3.717.264L379 4l1-3c4.386-1.088 8.656-1.129 13.145-1.098"/><path fill="#0102bf" d="m540 592 4 2c-.994 5.63-1.88 9.88-6 14l-5-10h4l1-3h2v3h2v-4h-2z"/><path fill="#e3e6f9" d="M107 144h6c-2.149 3.861-4.621 6.954-7.625 10.188-3.04 3.162-3.04 3.162-5.375 6.813h-2l-1 2c-.366-5.494-.366-5.494 1.313-7.812C100 154 100 154 103 153c1.24-2.091 1.24-2.091 2.188-4.562l1.043-2.504z"/><path fill="#1311ad" d="m280 29 2 1c-2 2-2 2-4.375 2.938-2.652.909-2.652.909-4.5 2.688-3.037 1.965-5.593 1.579-9.125 1.375v3c-7.625 2-7.625 2-11 2v2h-5c3.068-2.494 6.135-4.088 9.754-5.664l3.338-1.461 3.471-1.5 3.482-1.523c8.452-3.684 8.452-3.684 11.955-4.852z"/><path fill="#0e0db0" d="m415.625.938 3.621.014L428 1c-3.601 3.469-6.516 3.351-11.391 3.293l-2.135-.013-6.724-.093-4.57-.041L392 4V2c7.892-1 15.678-1.12 23.625-1.062"/><path fill="#dfe3fa" d="m462 0 12.97-.055 4.408-.021 6.352-.022 3.856-.016c2.95.098 5.553.423 8.413 1.114v3c-12.02-.779-24.007-1.881-36-3z"/><path fill="#1512a9" d="M746 127c3.492 1.293 5.31 3.347 7.559 6.27 1.997 2.397 4.233 4.528 6.441 6.73l5.313 5.813 2.676 2.957L770 151l-4 1-1.426-2.082-1.887-2.73-1.863-2.707c-3.23-4.393-6.341-7.346-11.824-8.48v-4c-1.458-1.625-1.458-1.625-3-3v-2z"/><path fill="#110cb9" d="M589 850c-2.783 1.856-4.853 2.723-8 3.727l-2.937.938-3.062.961-3.062.984C564.384 859 564.384 859 561 859l1-3h6v-2c3.258-1.86 6.245-2.538 9.938-3.125l3.09-.508a53 53 0 0 1 7.973-.367z"/><path fill="#0909b6" d="m752 724 3 1v3l1.75.375c2.273.631 4.175 1.514 6.25 2.625v-2l4-1c-1.382 3.21-2.924 5.049-5.625 7.25l-1.914 1.578L758 738v-5h-3c-2.5-3.333-3-4.733-3-9"/><path fill="#0707bd" d="m162 608 4 1c1.175 3.475 1.063 3.868-.652 7.453l-2.285 3.797-1.17 1.969L159 627c-1.275-3.824-.254-5.237 1-9v-3.125c0-2.963.47-4.388 2-6.875"/><path fill="#0b0cb3" d="m364 559 2 1c-1.468 5.179-3.815 9.344-6.625 13.875l-1.273 2.086L355 581c-.994-2.982-1.056-4.445-.75-7.5l.203-2.344c.654-2.578 1.423-3.579 3.547-5.156h3v-2l2-1c.652-2.025.652-2.025 1-4"/><path fill="#0c0dbb" d="m455 463 4 2v2l3-1 .875 2.25c1.036 2.662 1.036 2.662 2.188 4.75.938 2 .938 2 1.375 4.438.652 2.971 1.967 4.995 3.563 7.563v2h-2l-6.5-11.437-1.879-3.299-1.777-3.135-1.65-2.904C455 464 455 464 455 463"/><path fill="#110ea6" d="M802 194c2.821 2.657 4.925 5.218 6.875 8.563l1.531 2.621L818 219h-3l-2-5h-2l-.875-2.375c-.974-2.722-.974-2.722-3.125-4.625l-.5-2.562L806 202l-2-1-1 2z"/><path fill="#e7ebf9" d="m662 815 2 1-2 3 2 3c-2.556.852-4.485 1.199-7.125 1.438L653 824l-1 2h-7c3.559-2.967 7.198-5.459 11.188-7.812l3.168-1.895z"/><path fill="#1013ac" d="m192 565 2 1-15 26c-2-3-2-3-2-5l3-1a123 123 0 0 0 2-5l1.938-2.875c1.567-2.375 2.593-4.232 3.625-6.812 1.249-2.878 2.052-4.381 4.438-6.312z"/><path fill="#0c0db8" d="m221 513 2 1c-1.596 4.394-3.78 8.29-6.125 12.313l-1.129 1.955L213 533l-2-1v-2h2l1-4h-2v-5h2v2h3l-.25-2.75c.25-3.25.25-3.25 2.25-5.625z"/><path fill="#0e10a6" d="M442 301c5.02 2.816 7.875 7.758 10 13l-1 2h-2l-.75-2.75c-1.302-3.385-2.602-4.858-5.25-7.25l-1-2h-9l-1 5-3 1c2.425-6.902 5.488-9.736 13-9"/><path fill="#0909b1" d="m504 544 3 4 3-1-1 8 3-1 .875 2.938c.767 3.169.767 3.169 3.125 4.063v7c-3.5-4.104-6.169-8.45-8.812-13.125l-1.271-2.168-1.186-2.09-1.081-1.887C503 547 503 547 504 544"/><path fill="#080ab6" d="M620 436h2c-.607 4.128-2.038 7.332-4 11l3 3-1 3 2 1-2 2-10-17 2-1 2 1v4c3.752-1.789 3.752-1.789 5.813-5.187z"/><path fill="#0808b9" d="M500 401c3.207 2.771 5.155 6.313 7.25 9.938l1.141 1.881c2.671 4.611 2.671 4.611 2.344 7.623L510 422c-2-1-2-1-2.852-3.504l-.773-3.059-.789-3.066L505 410h-2l-2 3h-3v-5l2-1z"/><path fill="#edeff9" d="m811 669 2 1-.937 1.688c-1.154 2.261-1.154 2.261-1.5 4.688-.686 3.201-2.027 5.745-3.562 8.625l-1 2-5-1c1.376-3.85 3.167-6.882 5.563-10.187 2.41-3.291 2.41-3.291 4.438-6.812z"/><path fill="#0d0cb1" d="M847 592h2c-2.199 8.37-5.491 16.118-9 24h-1v-7l-3-1 3-3 3 3-.125-2.375C842 603 842 603 844 601c-.354-2.263-.975-3.951-2-6l1.938-.375L846 594z"/><path fill="#1512a6" d="M207 810c3.313.25 3.313.25 7 1l3 4c3.736 2.684 7.393 4.442 12 5v2h3l2 4c-5.32-2.041-10.197-4.705-15.187-7.437l-2.771-1.486-2.646-1.447-2.411-1.31C209 813 209 813 207 810"/><path fill="#fafcf4" d="m709 783 2 1-1 2h-2l-1 3c-2.062.688-2.062.688-4 1v2l2 1-12 5v-3c2.23-1.902 2.23-1.902 5.188-3.937 3.711-2.578 7.312-5.202 10.813-8.062z"/><path fill="#0403bc" d="m71 199 5 1v3h-2l-.625 3.25c-1.634 4.456-3.286 5.528-7.375 7.75l-1-3 3-4c1.127-2.632 2.053-5.295 3-8"/><path fill="#0f0eb1" d="m667 813-7.187 4.375-2.041 1.25c-3.509 2.123-6.885 4.002-10.771 5.375l-1-4 5-2 2.625-1.125C656 816 656 816 659 816v-3c3.287-.8 4.71-1.097 8 0"/><path fill="#ecedf8" d="M793 696c1.29 3.871.651 6.256-.754 10.02-1.611 2.56-3.089 3.118-5.871 4.23l-2.477 1.016L782 712c1.679-3.801 4.115-6.971 6.625-10.25l1.273-1.68z"/><path fill="#1110a1" d="m59 658 3 1v2h2l2 4 1.063 2.063C68 669 68 669 69 672h2l1.25 3.125c1.541 3.62 3.481 6.667 5.75 9.875l-1 2c-4.653-6.32-8.844-12.871-12.937-19.562l-1.505-2.455C59 659.129 59 659.129 59 658"/><path fill="#d4d7fb" d="m1 384 2 1-2 31H0l-.055-13.19-.021-4.49-.022-6.441-.016-3.92C0 385 0 385 1 384"/><path fill="#dbe7fb" d="M396 361h3c-1.544 4.14-3.51 7.936-5.625 11.813l-.984 1.811L390 379l-2-1v-2h2l-1-5-1 2h-2l1-4h6l.375-2.312C394 364 394 364 396 361"/><path fill="#0c0aaf" d="m552 858 8 1c-3.516 3.516-8.715 3.975-13.437 5.188l-3.221.865-3.088.803-2.834.739C535 867 535 867 532 866c3.692-3.538 7.094-3.591 12-4v-1l8-1z"/><path fill="#0f0ab4" d="M856 564h2c-.614 5.793-2.155 10.946-4.062 16.438l-.854 2.506L851 589h-1v-16l2 4c1.497-1.497 1.332-2.988 1.563-5.062L854 568h2z"/><path fill="#0b0aab" d="M85 695h2v3l5 1-2 1 1.25 1.25L93 703l2.25 1.875C97 707 97 707 96.75 709.75L96 712c-5.171-4.544-8.447-10.153-12-16z"/><path fill="#0a07b5" d="m151 107 1 2c-2.4 6.4-2.4 6.4-5 9h-4l-1 2-4-1c4.152-4.263 8.363-8.268 13-12"/><path fill="#dbeafa" d="m581 542 2.188.938c2.616.988 5.064 1.591 7.813 2.063l-2 4h-2c.998 2.993 1.752 3.948 4 6l-1 3c-3.503-4.022-9-10.394-9-16z"/><path fill="#1011aa" d="M446 154c2.867.573 3.861.861 6 3l1.125 4.625.508 2.477L454 166h2l1 3 3 2 1 7c-4.284-3.655-6.561-8.243-9.187-13.125l-1.365-2.496z"/><path fill="#1113af" d="M715 619h2c5.5 7.024 8.376 14.643 7.75 23.563L724 645l-2 1v-3l-2-2 1-2c1.02-7.868-2.213-13.238-6-20"/><path fill="#1412b4" d="M23 297c2 3.75 2 3.75 2 6l2-1-1 4h-2l-1 4h-2l-2 8-2-1c1.779-6.751 3.704-13.406 6-20"/><path fill="#1416ae" d="m301 535 1 2c-.697 1.756-.697 1.756-1.836 3.844l-1.227 2.277-1.312 2.379-1.289 2.379-2.38 4.365c-1.408 2.587-2.287 4.889-2.956 7.756h-2l-2 4-2-1 5.872-10.516 1.996-3.576 2.875-5.146 1.746-3.126z"/><path fill="#100fae" d="M491 524c2 0 2 0 3.5 1.125 1.946 2.432 2.537 4.926 3.5 7.875l3 4v2h2c.625 1.875.625 1.875 1 4l-2 2-4.937-8.25-1.42-2.355-1.357-2.285-1.254-2.095c-1.026-2.003-1.581-3.817-2.031-6.015z"/><path fill="#0d0fb0" d="m285 401 3 2-12 21c-1.097-3.29-.8-4.713 0-8h3v-3h2l.438-2.25L283 404h2z"/><path fill="#100da7" d="M724 106c8.299 5.644 15.022 12.845 22 20h-3l-3-3h-3l-1-4h-2l-.75-2.375c-1.466-3.08-2.236-3.295-5.25-4.625-2.25-2-2.25-2-4-4z"/><path fill="#140fb0" d="m215 64-2 3-1-1-2 3-5 1-1 2h-2v2l-8 1c2.692-3.026 5.967-5.065 9.375-7.187l1.711-1.115c3.444-2.148 5.845-3.162 9.914-2.697z"/><path fill="#d0dcfb" d="M324 633h1v10h-2v2l4 1h-10l2.938-5.937 1.652-3.34C323 634 323 634 324 633"/><path fill="#d1defb" d="M232 499h2l1 4-1.895.227c-2.279.568-2.279.568-3.117 2.734l-.676 2.414-.699 2.398L228 513l-1 3-5 1c6.642-13.683 6.642-13.683 10-18"/><path fill="#0d0db8" d="m393 215 3 1-9 16h-1v-6l2-2c.167-3.083.167-3.083 0-6l3-1 2 1z"/><path fill="#1714a9" d="M272 843h6v2l1.723.367c4.82 1.046 9.551 2.225 14.277 3.633v3c-5.138-.64-9.588-2.197-14.375-4.062l-2.23-.854L272 845z"/><path fill="#171aac" d="M391 375c1.206 3.618.391 4.82-1.18 8.152-.967 2.057-.967 2.057-1.758 5.223L387 391c-2.125.875-2.125.875-4 1l-1 4-2-1z"/><path fill="#1816ad" d="m616 840-9.187 3.938-2.619 1.131-2.549 1.084-2.333 1c-2.421.888-4.774 1.406-7.312 1.848v-2l3-1 1-2 5 1v-3l1.898-.402 2.477-.535 2.461-.527c5.453-1.348 5.453-1.348 8.164-.535z"/><path fill="#0e0ea6" d="m740 754 2 1-5.187 5.313-1.463 1.514c-2.898 2.937-5.711 5.225-9.35 7.174l1-6h4v-2l2-2 1-3v2h3l1-3z"/><path fill="#1212ba" d="m428 310 1 2-2 5h2l-1 3-2-1-3 8-5 1z"/><path fill="#0a0ab1" d="M109 149c0 3 0 3-.562 5.063-.668 2.005-.668 2.005.563 3.938l-2.437.375L104 159l-1 2h-2l-1 3c-1.437 1.688-1.437 1.688-3 3h-2l3-6h2l.773-1.734c1.357-2.507 2.946-4.399 4.852-6.516l1.914-2.141z"/><path fill="#1d1ab4" d="m309 857 8.125.813 2.305.213c4.777.515 8.345 1.511 12.57 3.975v2l-8.125-1.875-2.305-.527c-4.278-.996-8.424-2.127-12.57-3.598z"/><path fill="#0a08b6" d="M860 544c2.54 3.81 2.361 5.451 2 10-.854 3.385-1.882 6.693-3 10l-3-3 3-1-2-5h-1v-6h2v3h2z"/><path fill="#0e0eaf" d="m232 494 3 1-5.437 9.5-1.564 2.746-1.494 2.598-1.381 2.412L224 514h-1v-6h2a85 85 0 0 0 2-7h3z"/><path fill="#0909b4" d="m234 480 4 1v3h2v-2l2 1-2.937 5-1.652 2.813L236 493h-1v-9h-2z"/><path fill="#0a0bb2" d="m768 712 9 4c-1.668 3.941-4.227 6.789-7 10l-1-3c1.938-2.687 1.938-2.687 4-5l-4-1z"/><path fill="#0c0cbb" d="M270 429h2c-1.377 4.743-3.438 8.725-6.062 12.875l-1.104 1.797A142 142 0 0 1 262 448h-1l.375-4.437.211-2.496L262 439l2-1 2 1 .313-2.75c.694-3.281 1.388-4.859 3.688-7.25z"/><path fill="#1714b1" d="M835 252c3.107 3.663 4.854 7.763 6.75 12.125l.996 2.207c.816 1.862 1.542 3.763 2.254 5.668l-1 2-4-3 1-4h-2c-2.672-4.771-4-9.539-4-15"/><path fill="#0e12a8" d="m427 156 3 1-9 16-3-2 1-5 2 1 1-2h2l.375-2.812C425 159 425 159 427 156"/><path fill="#0e0ba8" d="M17 557h2l1 10 3 1v8h3l-1 6c-2.163-2.163-2.6-3.348-3.508-6.211l-.801-2.523-.816-2.641-.84-2.617C17.805 564.081 17 561.171 17 557"/><path fill="#0f10b9" d="m496 240 4 1 1 6 5 1 1 8-2 1-4.5-7.937-1.301-2.287-1.23-2.178-1.143-2.015C496 241 496 241 496 240"/><path fill="#e3e5f5" d="M749.688 750.375 752 751l-3 1-1 3-3 1c-.733 2.015-.733 2.015-1 4h-2v-2l-4 1 2.813-3.375 1.582-1.898c2.402-2.583 3.694-3.854 7.293-3.352"/><path fill="#eff4f9" d="M50 643c7 8.207 7 8.207 7 13-2.904-.314-4.608-.674-6.875-2.562-1.712-3.71-.855-6.458-.125-10.437z"/><path fill="#1311a4" d="M25 585h2v3h2l1.5 4.813.844 2.707C32 598 32 598 32 601l3 1v7c-2.229-2.229-2.843-3.824-3.945-6.754l-1.074-2.838-1.105-2.971-1.129-2.982z"/><path fill="#0402d3" d="M185 570c1.079 3.236 1.09 3.911 0 7l-3 5-2 5h-2c.75-4.75.75-4.75 3-7l-1-3c.996-1.824.996-1.824 2.438-3.687l1.434-1.887z"/><path fill="#0a0bb7" d="M534 465c1.855.098 1.855.098 4 1 1.738 2.434 1.738 2.434 3.313 5.438l1.613 2.996L544 477l-1 2-4-7h-5v-2h-2c.875-3.875.875-3.875 2-5"/><path fill="#0d0eb1" d="M313 354h2c-.688 3.656-2.254 6.519-4.062 9.75l-1.66 2.984L308 369h-2l-1-6 4 1 1-4h-2v-2l1.938-.875c2.215-.953 2.215-.953 3.063-3.125z"/><path fill="#0f0eb3" d="M43 248c2.063 1.75 2.063 1.75 4 4-.062 2.125-.062 2.125-1 4l-3 2v-2l-2 1c-.656 2.527-.656 2.527-1 5l-3 1c1.64-5.233 3.39-10.152 6-15"/><path fill="#e1e5fa" d="m160 96 3 2-12 10-2-3 4-2-1-2c1-2 1-2 2.875-2.687C157 98 157 98 160 99z"/><path fill="#f4f2fd" d="M72 680c3.045 2.833 5.169 5.655 7.25 9.25l1.578 2.703L82 694l-5 1c-1.429-2.354-2.087-3.48-1.625-6.25L76 687h-2z"/><path fill="#cedcfa" d="m266 440 2 1-2 6-2 1v3h-2l-.937 1.875L259 457h-2c1.485-4.043 3.429-7.611 5.625-11.312l1.914-3.238z"/><path fill="#0e10ac" d="m510 264 3 1v2h3l.586 1.645.789 2.168.773 2.145c.878 2.291.878 2.291 2.852 5.043v5c-2.795-3.5-4.987-7.3-7.187-11.187l-1.115-1.943C510 265.13 510 265.13 510 264"/><path fill="#211fb4" d="M777 161c4.014 2.952 6.851 6.128 9.813 10.125l2.395 3.195C791 177 791 177 791 179h-5l-.25-3.25c-.817-4.085-1.706-5.099-4.75-7.75v-2l-4-1z"/><path fill="#1110ad" d="M96 712c2.962.613 4.381 1.254 7 3v3l3-1 1 8c-4.218-3.97-7.612-8.308-11-13"/><path fill="#d9e8fa" d="M248 616h3l-1 4h2c-.576 4.755-2.551 7.97-5 12h-1c-.082-3.044.024-5.072 1-8v-3h2z"/><path fill="#e3e5f7" d="M858 564h1c1.193 3.877 2 6.916 2 11h-3l-1 3-3 1 .621-2.266.816-2.984.809-2.953z"/><path fill="#0c08b6" d="M873 403h3v21h-1v-13h-3v-7z"/><path fill="#1012a9" d="m304 370 2 2-11 19-2-4 1.898-.715c2.701-1.652 2.924-2.837 3.727-5.848L300 376l2-1z"/><path fill="#dbe7fc" d="M477 346c1 1 1 1 1.313 3.375C478 352 478 352 476 353.813L474 355l-4-9c2.684-1.342 4.153-.73 7 0m-2 0 1 2z"/><path fill="#d6e3f6" d="m458 320 4 2v8h2l-1 3c-2.653-1.326-3.211-2.853-4.625-5.437l-1.352-2.434C456 323 456 323 456 321z"/><path fill="#2323b5" d="M136 120h2v3l-2.375.625c-2.93 1.143-2.93 1.143-3.562 4.313C131 131 131 131 128 132.938L125 134l-2-1 1.875-.75c2.476-1.456 3.076-2.628 4.125-5.25h2l2-4h2z"/><path fill="#0502d3" d="m166 99 2 3c-3.019 3.483-5.569 4.792-10 6v-2l-2-1c2.644-2.644 5.575-3.568 9-5z"/><path fill="#0201c0" d="M696 788v2l2 2c-5.75 5-5.75 5-8 5-.75-2.25-.75-2.25-1-5 2.309-3.051 3.102-4 7-4"/><path fill="#1a17b5" d="M152 770h10l-1 3h-2l2.375 2.25c2.238 2.344 3.319 3.893 4.625 6.75-4.784-3.533-9.522-7.082-14-11z"/><path fill="#1413a6" d="M654 511c2 1 2 1 3.125 4.063L658 518h2l1.375 3.25 2.875 6C665 529 665 529 664 532l-5-8.25-1.445-2.355-1.367-2.285-1.27-2.095C654 515 654 515 654 511"/><path fill="#1313a7" d="M403 496c-1.427 3.79-3.162 7.271-5.125 10.813l-1.633 2.957L395 512c-1.522-4.638-.13-7.774 2-12 3.3-4 3.3-4 6-4"/><path fill="#1313b0" d="m330 618 3 1-8 14-2-8 3 1 1.438-3.437C329 619 329 619 330 618"/><path fill="#0b06c0" d="m26 577 2 1 1 3 2 1v3h-2v3h-2v-3l-3-1z"/><path fill="#d3e3fc" d="m364 564 4 4-2 3v-2c-2.421 1.211-2.847 2.219-4.125 4.563L360 577l-2-1c1.566-4.308 3.683-8.062 6-12"/><path fill="#100fb0" d="m665 532 3 1 1 5h3l1 5h2l-1 5c-2.271-2.933-4.269-5.951-6.187-9.125l-1.605-2.633C665 534 665 534 665 532"/><path fill="#1715a8" d="m138 757 1.859.961c2.051.995 3.92 1.563 6.141 2.039v3l1.875.125L150 764c1.25 3.063 1.25 3.063 2 6-5.47-3.79-9.9-7.75-14-13"/><path fill="#0f0ebe" d="m555 628 1 3 3 1-3 1 2 1 1 6-2 1-2.5-4.375-1.406-2.461C552 632 552 632 552 630z"/><path fill="#1411ab" d="M837 616h2a95.5 95.5 0 0 1-7 17c-1.671-5.511.886-9.867 3-15h2z"/><path fill="#0d0caf" d="m339 602 2 1c-1.44 5.235-3.817 9.63-7 14h-1l-1-6 3-1c1.233-1.86 1.233-1.86 2.188-4.062l1.043-2.223z"/><path fill="#0c0bba" d="M702 580h2l-.402 1.758c-.995 4.4-1.911 8.781-2.598 13.242-2.133-2.596-3.551-4.631-4-8l1-2h4z"/><path fill="#d7e4fb" d="m361 423 3 1-6 11h-1c-.296-7.684-.296-7.684 2-11z"/><path fill="#1e18b7" d="M354 8v3l-6.152.684c-1.859.135-1.859.135-2.848 1.316l-5.562.063-3.066-.027L334 13c3.555-2.054 7.124-2.798 11.125-3.625l3.758-.789C352 8 352 8 354 8"/><path fill="#0203b4" d="M387.953 2.953C392.52 3.543 396.672 4.335 401 6l-1 2h-8l-1-2a109 109 0 0 0-7-1c2-2 2-2 3.953-2.047"/><path fill="#0204b1" d="M449 1h18c-4.51 3.383-5.345 3.321-10.687 2.813l-3.512-.293L450 3z"/><path fill="#e6e8f7" d="m579 855-3 3h-2v3l-10-2c2.919-1.459 5.567-2.639 8.625-3.687l2.352-.824C577 854 577 854 579 855"/><path fill="#110ead" d="m674 801 6 2c-1.323 3.969-2.911 4.299-6.562 6.188l-3.066 1.605L668 812l1-4h3l1-3h4v-2l-3-1z"/><path fill="#0b0db5" d="M522 568h3l-1.687 7.063c-.411 2.55.374 3.774 1.688 5.938l-2 1-2.5-4.375-1.406-2.461C518 573 518 573 518 571l3 1z"/><path fill="#1616a8" d="M867 525h1c-.409 8.685-2.619 16.693-5 25-2-3-2-3-2-6h2l.148-1.723c.592-6.114 1.909-11.45 3.852-17.277"/><path fill="#1a19b2" d="M864 334c2.302 3.804 2.878 7.938 3.625 12.25l.406 2.258L869 354h-2c-2.108-6.351-3.575-12.307-4-19z"/><path fill="#0a07aa" d="m598 30 6.188 2.375 3.48 1.336L616 37v1l-8 1v-2l-2.937-.875C602 35 602 35 601 33l-3-1z"/><path fill="#0f14a2" d="M540 610h2c4.78 5.501 7.804 10.825 9 18-3.268-2.784-5.125-6.432-7.187-10.125l-1.115-1.957C540 611.144 540 611.144 540 610"/><path fill="#cddcfa" d="m373 548 2 1 1 4-3 2-2 3-4 2c1.566-4.308 3.683-8.062 6-12"/><path fill="#1210ab" d="m10 533 4 2v5h1l1 14c-1.496-2.992-2.358-4.976-3.07-8.109l-.527-2.285-.527-2.355-.551-2.402z"/><path fill="#cbd7fa" d="m391 517 1 2-.93 1.797c-1.294 2.663-1.273 4.511-1.195 7.453l.055 2.703L390 533l-1-4-4 1v2l-2-1z"/><path fill="#0b0eb2" d="M640 489h6c1.125 7.625 1.125 7.625 0 11l-3-4.937-1.687-2.777C640 490 640 490 640 489"/><path fill="#1115a9" d="m320 339 4 2-3.375 5.938-1.898 3.34C317 353 317 353 315 354c-.25-2.812-.25-2.812 0-6l4-3c.809-3.102.809-3.102 1-6"/><path fill="#e0edfa" d="m346 301 2 1 1 4 2-2c-.875 4.75-.875 4.75-2 7-3-1-3-1-4-2l-2-1z"/><path fill="#0f0da9" d="M165 96v5l-1.68.805-2.195 1.07-2.18 1.055c-2.097 1.036-2.097 1.036-3.945 3.07l-3-1 5.938-5 1.709-1.445C163.887 96 163.887 96 165 96"/><path fill="#d7dafb" d="M727 768v3l-4.531 3.594c-2.212 2.118-2.789 4.484-3.469 7.406l-1-2-5 1c4.444-4.587 9.202-8.788 14-13"/><path fill="#120eae" d="m786 699 3 3-2.812 3.813-1.582 2.145A46.6 46.6 0 0 1 780 713v-6l3 1 1-5h2z"/><path fill="#0e0db1" d="m390 512 4 2-2.875 4.813-1.617 2.707L386 527h-2c1.109-3.487 2.263-6.775 4-10h2z"/><path fill="#0f14a3" d="m259 449 2 1-3.875 6.938-1.105 1.998c-2.793 4.951-2.793 4.951-5.02 6.064v-6h3l.25-1.625c1.014-3.21 2.822-5.638 4.75-8.375"/><path fill="#d2dffb" d="m426 163 3 1-2 1 1 4-5 1-.375 2.375C422 175 422 175 420 177l-1-2 3.438-6.125 1.996-3.32z"/><path fill="#151ba7" d="M630 631c3.527 1.764 4.642 5.913 6.367 9.336C638 643 639.39 644.339 642 646l-3 1v-2h-2.312c-2.687-1-2.687-1-3.652-2.672-1.396-3.694-2.425-7.421-3.035-11.328z"/><path fill="#1316ad" d="M575 533a66.4 66.4 0 0 1 5.688 8.625l1.324 2.352C583 546 583 546 583 548h-3v-3h-2v-5h-2z"/><path fill="#0d0cc7" d="M487 518c2.929.628 5.361 1.586 8 3v5l-2 1v-3l-3 1c-3-4.75-3-4.75-3-7"/><path fill="#1211ac" d="M545 480c2.822 3.525 4.983 7.327 7.188 11.25l1.115 1.969L556 498l-2 2-1-3-2-1a196 196 0 0 1-3-7c-1.289-3.179-1.289-3.179-4-5z"/><path fill="#daeafb" d="M414 477c1.984 2.917 1.988 4.124 1.625 7.75L415 488l-5-2z"/><path fill="#181ca9" d="M409 343h1c.188 2.875.188 2.875 0 6l-3 2-1 3.5c-1 3.5-1 3.5-4 5.5.539-4.598 1.766-7.868 4.063-11.875l1.66-2.93z"/><path fill="#120fa9" d="m69 202 1 2-3 6-1.187 2.375L65 214h-2v3h-2l-1 3-1-2c.804-1.696.804-1.696 2.09-3.695l1.377-2.168 1.471-2.262 1.459-2.285z"/><path fill="#1516a9" d="m416 177 2 1-8 14h-1v-7l3 1 1-7h3z"/><path fill="#0503b3" d="M429 875v1h-22v-1l7.063-1.125 1.99-.34c4.989-.737 8.296-.168 12.947 1.465"/><path fill="#1411b3" d="m404 873-1 2-6.25.125-3.516.07c-3.062-.185-4.676-.587-7.234-2.195l6.75-.562 3.797-.316c2.848-.1 4.796-.027 7.453.879z"/><path fill="#dbe7fe" d="M554 636c2.617 2.368 4.329 4.896 6 8v2h-5c-1.158-3.473-1.069-6.361-1-10"/><path fill="#dbe7f9" d="M212 533h2l1 9-4 1c-1.187-2.187-1.187-2.187-2-5 1.25-2.812 1.25-2.812 3-5"/><path fill="#d3e3f8" d="M457 467c2.523 3.124 4.273 6.381 6 10-3.875 2-3.875 2-5 2l-.437-3.312c-.445-3.619-.445-3.619-1.562-6.687z"/><path fill="#161ab2" d="m332 321 3 1-8 14c-1-4-1-4 0-7h2l.938-3.437C331 322 331 322 332 321"/><path fill="#d3ddfb" d="M413 185c2 4 2 4 1.313 6.625C413 194 413 194 410 196l-3-1z"/><path fill="#100ec2" d="M91 170c1.245 2.491.777 3.411 0 6h-2v2l3 1-5 5c-.996-2.657-1.227-4.403-.211-7.078C89.5 171.5 89.5 171.5 91 170"/><path fill="#1213b2" d="m721 768 5 1c-3.17 3.26-6.399 6.222-10 9v-4l-2-1 6-1z"/><path fill="#0402d3" d="m111 725 7 2c1.044 3.133.934 3.99 0 7l-3.5-2.812-1.969-1.582C111 728 111 728 111 725"/><path fill="#0304b2" d="m243 639 3 1 1 3c-2 3-2 3-5 4l-1-1-2-1z"/><path fill="#d7e5fc" d="M705 603c4.429 5.143 4.429 5.143 5 9h-2l1 4-3-2c-.187-3.125-.187-3.125 0-6h-2z"/><path fill="#d2dffd" d="M355 579c1.125 1.688 1.125 1.688 2 4-.562 2.625-.562 2.625-2 5-2.625 1.313-2.625 1.313-5 2 1.45-3.791 3.152-7.387 5-11"/><path fill="#d3e0fb" d="M500 542c2.743 3.2 4.63 6.005 6 10l-2.312-1.125L501 550l-3 2z"/><path fill="#161aae" d="M566 517a129 129 0 0 1 6.313 9l1.676 2.563c1.012 2.438 1.012 2.438.18 4.75L573 535c-1.889-4.126-3.735-8.175-5.125-12.5-.603-2.654-.603-2.654-2.875-3.5z"/><path fill="#0302d4" d="M662 512h4c-.783 3.916-2.392 7.364-4 11l-2-1v-5l3-1z"/><path fill="#1012b6" d="M623 460c3.603.974 4.798 1.69 6.875 4.875 1.111 3.086 1.373 4.175.125 7.125-3.04-3.649-4.965-7.744-7-12"/><path fill="#d9d7fb" d="M6 356h2l-3 20H4l-.125-8.312-.051-2.381-.02-2.295-.032-2.111C4 359 4 359 6 356"/><path fill="#120fb6" d="M818 220c2.406 2.185 3.795 4.259 5.188 7.188l1.043 2.168L825 231l-6-1v-3l-2-1z"/><path fill="#0d0db0" d="M698 86c3.937 1.312 6.227 2.919 9 6h-10l-1-2c.938-2.125.938-2.125 2-4"/><path fill="#1110b0" d="M328 14v2l-3.437 1.313L321 19l-1 3-4-1c.223-1.891.223-1.891 1-4 1.996-1.047 1.996-1.047 4.438-1.75l2.434-.734C326 14 326 14 328 14"/><path fill="#1410a5" d="m640 825 4 1-14 7-1-2h3l1-3 7-1z"/><path fill="#0e12af" d="m348 586 3 1-2.375 4.938-1.336 2.777C346 597 346 597 344 598v-6h2z"/><path fill="#1415ad" d="M556 500c3.037 2.599 4.462 5.621 6.188 9.188l1.605 3.293L565 515l-2 2v-4h-2l-1-3-2-1c-.633-2.066-.633-2.066-1.125-4.562l-.508-2.504z"/><path fill="#0605bc" d="M652 500c1.648 2.967 2.443 5.656 3 9h-4c-2.125-4.625-2.125-4.625-1-8z"/><path fill="#d1dffb" d="m442 449-3 1v2l2 1-9 2 1-5c3.196-1.065 5.657-1.074 9-1"/><path fill="#1518aa" d="M377 400h1c.25 2.75.25 2.75 0 6-1.812 2.063-1.812 2.063-4 4l-3 5-2-1z"/><path fill="#0d11a3" d="m578 378 1 2h2c1.803 3.967 2.492 7.682 3 12-2.951-3.459-5.259-6.784-7-11z"/><path fill="#0d0cb5" d="M8 352h2v16c-3-3-3-3-3.074-6.137l.387-3.551.363-3.574z"/><path fill="#1112b1" d="M349 288c3 0 3 0 5 1l-6 11h-1l.438-4.875.246-2.742C348 290 348 290 349 288"/><path fill="#0e10a9" d="m367 259 4 1-3.437 5.5-1.934 3.094L364 271h-1l1-7 3-1z"/><path fill="#0602d4" d="m104 157 4 1v2l-3 1-1 7-5-1 2-6h2z"/><path fill="#ebebfd" d="m771 724 2 1-1.875 1.688c-2.204 2.399-3.013 4.294-4.125 7.313l-2 2h-3c1.444-3.239 3.258-5.62 5.625-8.25l1.914-2.141z"/><path fill="#cfdcfa" d="M157 630h2v8h-4v-6z"/><path fill="#d2ddf8" d="m331 621 1 4h-2l-.113 2.117-.199 2.758-.176 2.742C329 635 329 635 326 637c-.701-6.592 1.504-10.494 5-16"/><path fill="#0a0ac4" d="M601 581h2c1.603 3.118 2.19 4.39 1.125 7.813L603 591h-3z"/><path fill="#0c0eb5" d="M527 587h5l1 1c-.176 2.691-.618 5.329-1 8-2.325-2.853-3.751-5.541-5-9"/><path fill="#191aab" d="M341 464c1.125 3.75 1.125 3.75 0 6h-2l-.375 2.313C338 475 338 475 336 478h-2c1.46-5.31 3.983-9.463 7-14"/><path fill="#1719ba" d="M349 450c2.513 2.513 2 3.624 2 7h-5l-2 6-2-1z"/><path fill="#1012b1" d="M434 447h8v2l-1.758.297c-5.339 1.022-8.931 2.387-13.242 5.703.688-2.437.688-2.437 2-5 2.625-.812 2.625-.812 5-1z"/><path fill="#171aaa" d="m535 307 3 1 2 7h2l1 5h2l-1 3c-2.271-2.933-4.269-5.951-6.187-9.125l-1.605-2.633C535 309 535 309 535 307"/><path fill="#1e1faf" d="M850 288c2.463 2.463 2.768 4.274 3.625 7.625l.789 3.039L855 301h-2l-1-6h-3v-6z"/><path fill="#e6eafb" d="M80 185c-1.312 3.937-2.919 6.227-6 9-.75-2.25-.75-2.25-1-5 2.309-3.051 3.102-4 7-4"/><path fill="#0f0db7" d="m690 80 6 3v3l-8-1z"/><path fill="#d3e1fd" d="M195 563h2c.375 2.188.375 2.188 0 5-1.84 1.99-3.792 3.39-6 5 .563-3.941 1.679-6.751 4-10"/><path fill="#d6e1fb" d="M484 220c4.429 5.143 4.429 5.143 5 9-1.937-.375-1.937-.375-4-1l-1-2-2 1v-6z"/><path fill="#e1e2fb" d="m773 152 2 1v2l3 1 3 6h-3c-1.605-1.75-1.605-1.75-3.187-4l-1.605-2.25L772 154z"/><path fill="#1915b2" d="m184 81 1 2h-2v2h-2v2h-3v2h-2l-1 3-3-2z"/><path fill="#dadef5" d="m120 740 6 5c-2 3-2 3-5 4-.701-3.153-1-5.727-1-9"/><path fill="#ccdaf8" d="M157 640c4.314.479 6.166 1.746 9 5-1.687.75-1.687.75-4 1-2.75-1.812-2.75-1.812-5-4z"/><path fill="#d0dafb" d="M715 620c3.35 3.812 5.17 7.333 7 12l-4-1-.375-2.437L717 626l-2-1-1-3z"/><path fill="#0603d1" d="m715 609 3 2v2h-2v2h2v4h-3l-2-9z"/><path fill="#100fb6" d="M533 598h6l-.062 2.313c-.067 2.789-.067 2.789 1.063 5.688l-2 2z"/><path fill="#d1dffc" d="M695 586c3.3 2.805 5.085 6.169 7 10l-1 3-5-2 .625-2.125c.454-3.477-.35-5.649-1.625-8.875"/><path fill="#1214af" d="M207 538h2c-1.46 5.31-3.983 9.463-7 14-1.246-3.737-.696-4.527 1-8 2-3.312 2-3.312 4-6"/><path fill="#e6e7fb" d="M2 484h1l1 14-4-2c-.286-8.571-.286-8.571 2-12"/><path fill="#cfdff9" d="M333 324c1.593 3.187-.002 5.711-1 9v2l-4 2c-1-3-1-3 .215-5.48l1.723-2.707 1.715-2.73z"/><path fill="#e8edf8" d="m43 239 3 3c-1.75 5.75-1.75 5.75-4 8-.948-3.686-1.021-6.323 0-10z"/><path fill="#e9eef4" d="M186 72c2.217 1.109 4.036 2.494 6 4l-6 4-2-6z"/><path fill="#f1f1f9" d="M154 774c2.746.379 3.8.778 5.688 2.875C161 779 161 779 162 782h-5l1-3h-2z"/><path fill="#0b0dbb" d="M92 703c2.5 1.188 2.5 1.188 5 3 .313 2.688.313 2.688 0 5l-2 1c-2.062-2.25-2.062-2.25-4-5 .25-2.312.25-2.312 1-4"/><path fill="#0f0ca8" d="m828 633 3 1-5 10c-1.285-5.139-.222-6.378 2-11"/><path fill="#1111a7" d="M280 572c1.208 3.623.543 4.641-1 8h-2l-2 7-2-1c1.764-4.972 4.394-9.434 7-14"/><path fill="#0e0ba6" d="m2 476 1 4h2c.25 7.5.25 7.5-2 12z"/><path fill="#eae9fb" d="m1 384 2 1v8l-3 2-.062-4.937-.035-2.777C0 385 0 385 1 384"/><path fill="#f2f1f5" d="M812 198h2v2h2v5h-4l-2 2-1-3 2-1c.656-2.527.656-2.527 1-5"/><path fill="#0903d2" d="M745 129c3.161 1.37 3.993 1.989 6 5l-5 2-2-5z"/><path fill="#0807b8" d="m253 42 1 2 3 1-1 3h-3l-1-2c-3.044-.082-5.072.024-8 1v-2c2.957-1.478 5.742-1.06 9-1z"/><path fill="#1614ac" d="m626 832 3 1c-3.625 3.172-7.512 4.429-12 6v-3l7-1v-2z"/><path fill="#1312b2" d="m252 621 2 3h-2l2 6-7 1z"/><path fill="#fcfeef" d="m17 576 4 2-1 5h2v5h-2z"/><path fill="#cfddf8" d="M514 566c2.252 2.688 3.882 4.646 5 8l-2 2h-2c-1.158-3.473-1.069-6.361-1-10"/><path fill="#1315ac" d="m425 455 2 1-6 11c-1.065-3.196-1.074-5.657-1-9l4 1z"/><path fill="#c6cff9" d="M435 152c5.682-.455 8.6.334 13 4l1 3-2.312-.937a110 110 0 0 0-5.687-2.062v-3h-6z"/><path fill="#e8edf6" d="m593 850-3 3 1 2-7 1c.688-2.375.688-2.375 2-5 4.286-2.357 4.286-2.357 7-1"/><path fill="#dfe2fa" d="M177 791c7.571 4.143 7.571 4.143 10 7-4.515-.531-7.347-2.366-11-5z"/><path fill="#f8fcec" d="M711 786c.553 2.076 1 3.844 1 6h-9v-2l2.313-.312c2.858-.731 3.845-1.457 5.688-3.687z"/><path fill="#e8e7fd" d="M737 759c0 3.695-.721 5.114-3 8-3.187.813-3.187.813-6 1z"/><path fill="#0606b1" d="m275 585 1 4h2l-1 4h-2v-5l-5 4c.813-2.937.813-2.937 2-6z"/><path fill="#e3e5fc" d="M20 574h2c1.316 3.62 2 6.096 2 10l-4-1z"/><path fill="#1117a7" d="M323 496h1c.125 5.75.125 5.75-1 8h-3v2h-2c1.333-3.59 2.894-6.796 5-10"/><path fill="#dae9fa" d="m627 468 4 5-2 3-4-1c0-3.106.539-4.353 2-7"/><path fill="#0704ce" d="M537 307h7l-2 8h-2z"/><path fill="#cdd8fd" d="M366 267c1 4 1 4-.375 6.625L364 276l-1 2-3-1z"/><path fill="#d4e2f8" d="m381 240 2 1-1 9-1-2h-3z"/><path fill="#0f0eb1" d="M488 226c1.895.293 1.895.293 4 1 1.813 3.558 3.216 7.079 4 11-3.975-3.407-5.868-7.328-8-12"/><path fill="#eef0fb" d="M762 138h2c1.688 2.375 1.688 2.375 3 5l-1 2c-3.161-1.37-3.993-1.989-6-5z"/><path fill="#dadbf4" d="m752 128 4 2h-2l4 5-3 1-5-6h2z"/><path fill="#1c19af" d="M282 30c-2.229 2.229-4.091 2.881-7 4l-1 1h-6c3.368-2.947 9.595-7.202 14-5"/><path fill="#1f1bb2" d="M300 24v2l-12 1c3.384-3.384 7.436-4.756 12-3"/><path fill="#100fad" d="M196 801h3l1.375 2.313c1.84 3.043 3.504 4.085 6.625 5.688l-2 1-4.5-2.812-2.531-1.582L196 804z"/><path fill="#1b16ae" d="M708 780h5c-2.808 2.964-5.183 5.445-9 7v-4h4z"/><path fill="#d0d9fa" d="m341 603 2 3-1 2h-2v2l3 1-1 3-2-2h-3z"/><path fill="#0d0cbe" d="m284 565 2 1 1 6h-6z"/><path fill="#090da0" d="m192 565 2 1-6 10-2-1c3-7.571 3-7.571 6-10"/><path fill="#0d10b1" d="M307 524c1.063 1.813 1.063 1.813 2 4l-1 3-3 1c-1.667 1.5-1.667 1.5-3 3 1.225-4.053 2.699-7.444 5-11"/><path fill="#d0dffc" d="M634 480c4.429 5.143 4.429 5.143 5 9l-2 1c-2.479-1.94-2.997-2.986-3.75-6.125L633 481z"/><path fill="#d5defb" d="m244 478 3 4-2 1 1 3-3 2 1-4-3-1z"/><path fill="#d1dbfd" d="M289 400c2 2 2 2 2 3.875-1.504 3.196-4.032 4.357-7 6.125 1.335-3.594 2.96-6.755 5-10"/><path fill="#d3dffd" d="M396 361h3c-1.249 3.459-2.675 6.147-5 9-.687-1.687-.687-1.687-1-4 1.25-2.75 1.25-2.75 3-5"/><path fill="#d6e6fb" d="M374 253h2l-2 6h2l-1 2-4 1-1-2c.777-1.727.777-1.727 1.938-3.625z"/><path fill="#1513aa" d="M86 177c1 2 1 2 .398 3.875L85.375 183l-.977 2.125C82.594 187.544 80.83 188.097 78 189l3.438-5.437 1.934-3.059C85 178 85 178 86 177"/><path fill="#e7e7f9" d="m737 113 5 2-2 1v2l2 1-3 1-4-5z"/><path fill="#e5ebfd" d="m611 841 2 1c-2.138 2.352-4.006 3.888-7 5h-6c2.114-2.114 3.793-2.97 6.5-4.187l2.406-1.105z"/><path fill="#0e0fa3" d="M235 826c2.75-.25 2.75-.25 6 0 2.188 1.875 2.188 1.875 4 4l3 2-2 1-5.625-2.937-3.039-1.715L235 827z"/><path fill="#cddafa" d="M539 609c2.408 3.21 3.682 5.35 5 9h-2v2h-2z"/><path fill="#1113b0" d="M596 571c2.025 1.933 3.421 3.632 5 6v3h-3v3h-2c.506-2.169 1-4 2-6z"/><path fill="#0202b9" d="m20 553 2 2c-.375 2.625-.375 2.625-1 5h-2v-3h-3l1-3z"/><path fill="#dce9fc" d="M577 528c1.414 2.639 2.372 5.071 3 8l-3 1-3-7h2z"/><path fill="#d5e1fc" d="M604 428c2.252 2.688 3.882 4.646 5 8l-3 1v-2h-2v-2l-2-1h2z"/><path fill="#1519a8" d="M504 408c3.31 2.813 5.105 6.142 7 10-.25 2.438-.25 2.438-1 4-2-1-2-1-2.816-2.926l-.746-2.387-.754-2.363A130 130 0 0 1 504 408"/><path fill="#0c0fad" d="m388 387-1 4-4 1-1 4-2-1c3.652-8 3.652-8 8-8"/><path fill="#d2e0fb" d="M570 369c4.429 5.143 4.429 5.143 5 9h-4c-2.125-5.625-2.125-5.625-1-9"/><path fill="#0302d4" d="M556 336h2l2 9c-3-1-3-1-4.25-2.812-.866-2.527-.635-3.71.25-6.187z"/><path fill="#2421b7" d="M855 302c1.903 2.855 2.462 4.419 3.125 7.688l.508 2.449L859 314l-2 1v-4h-2z"/><path fill="#1715a3" d="m102 157 1 4h-2l-1 3c-1.437 1.688-1.437 1.688-3 3h-2l3-6h2z"/><path fill="#1410b6" d="M770 152c2.648 2.578 4.944 4.916 7 8h-5c-1.257-2.906-2-4.796-2-8"/><path fill="#e2e6fb" d="M726 105c5.662 2.462 5.662 2.462 7.375 5.188L734 112c-4.39 0-5.769-2.128-9-5z"/><path fill="#0500d4" d="M666 67c2.463 1.231 3.425 2.781 5 5-2.375.625-2.375.625-5 1l-2-2z"/><path fill="#0b0aa9" d="m532 11 4.75.375 2.672.211c2.569.413 4.337 1.126 6.578 2.414-5.17 1.662-9.003-.296-14-2z"/><path fill="#e5e6fe" d="m709 783 2 1-1 2h-2l-1 3-5 1zm-9 7 2 1z"/><path fill="#fdfdeb" d="m727 772 1 2h4v4h-4c-1.75-2-1.75-2-3-4z"/><path fill="#e3e7fb" d="M43 629c2.645 3.125 3.844 6.088 5 10h-2l-1-3h-3z"/><path fill="#cfdefc" d="M544 618c2.743 3.2 4.63 6.005 6 10l-2 2v-3h-2c-1.498-3.371-2-5.204-2-9"/><path fill="#d1dbfe" d="m165 615 2 1c-.925 3.784-1.394 5.567-4.625 7.875L160 625c1.335-3.594 2.96-6.755 5-10"/><path fill="#d9d9fa" d="M36 614c2.672 3.563 3.773 5.846 5 10h-4z"/><path fill="#0405af" d="m171 592 3 1c.688 2.813.688 2.813 1 6-1.437 1.875-1.437 1.875-3 3v-7h-2z"/><path fill="#1616b6" d="m510 558 6 3v7c-2.743-3.2-4.63-6.005-6-10"/><path fill="#1116a8" d="m480 506 5 1v6l2 1-2 2z"/><path fill="#d3daf9" d="M874 484c2.129 4.259 2.424 6.334 2 11l-3 3z"/><path fill="#1316ae" d="M270 429h2c-1.319 4.615-3.214 8.099-6 12-1-2-1-2-.25-4.875 1.143-2.858 2.172-4.874 4.25-7.125"/><path fill="#1617b0" d="M366 419h1v6l-3 1c-1.219 2.504-1.219 2.504-2 5l-2-1z"/><path fill="#cfdefb" d="M563 357c2.743 3.2 4.63 6.005 6 10-3.337-1.381-5.223-2.82-7-6 .313-2.25.313-2.25 1-4"/><path fill="#1415ad" d="M423 319h1c.082 3.044-.024 5.072-1 8l-5 1z"/><path fill="#110fba" d="M29 282c1.04 3.38 1.08 6.478 1 10l-4-2c1.875-6.875 1.875-6.875 3-8"/><path fill="#ebeff7" d="m60 212 2 1c-.75 2.438-.75 2.438-2 5-2.125.813-2.125.813-4 1 .313-2.375.313-2.375 1-5z"/><path fill="#1c1bb5" d="M802 194c3.336 2.991 5.151 5.932 7 10-2 0-2 0-3.625-1.5L804 201l-1 2z"/><path fill="#eceefa" d="m100 154 2 4-2 3h-2l-1 2c-.369-5.538-.369-5.538 1.5-7.875z"/><path fill="#1610af" d="m617 38 10 4-2 2-1-1a197 197 0 0 0-7 0z"/><path fill="#100ca6" d="M358.938 866.875C362 867 362 867 364 868v2h-7l-2-2c1-1 1-1 3.938-1.125"/><path fill="#0905b5" d="M653 818c-.187 1.875-.187 1.875-1 4-2.562 1.25-2.562 1.25-5 2l-1-4c4.75-2 4.75-2 7-2"/><path fill="#0605ab" d="m740 754 2 1-2.875 3-1.617 1.688C736 761 736 761 734 761l-1-5 1 2h3l1-3z"/><path fill="#1110c7" d="m717 644 3 2v3l-2 1v-2l-5-1c1-2 1-2 4-3"/><path fill="#ecf1f7" d="m841 612 3 2-1 5-4-1z"/><path fill="#1113a7" d="M616 607c2.799 2.528 4.458 4.204 5 8l-5-2z"/><path fill="#1417a8" d="M707 601c3.15 3.423 3.562 6.443 4 11-2.883-3.255-4.633-5.6-5-10z"/><path fill="#0607c2" d="M362 556h4l1 4h-2l-2 3v-2l-3-1 2-1z"/><path fill="#d8e4fb" d="m287 555 2 1c-1.074 2.915-1.778 4.778-4 7l-1-6z"/><path fill="#dce8fb" d="M387 529v3l-3 1-1 7-3-3 3-5h2v-2z"/><path fill="#d1e0fa" d="M315 506h2c-1.936 6.702-1.936 6.702-5 9h-2v-2h2l.938-2.937C314 507 314 507 315 506"/><path fill="#e2f6f3" d="m233 503 2 1c-1.736 3.058-3.385 5.634-6 8v-6h2v-2z"/><path fill="#d9e8fc" d="m338 457 4 1c.625 1.875.625 1.875 1 4l-2 2-4-2z"/><path fill="#1012b7" d="M615 446c4 2 4 2 6 4l-1 3 2 1-2 2z"/><path fill="#d0d7fa" d="M587 399c2.341 2.128 3.707 4.116 5 7-4.75-.875-4.75-.875-7-2z"/><path fill="#0e11a9" d="M570 368h4l.375 2.125c.663 3.052 1.597 5.928 2.625 8.875-2.406-2.185-3.795-4.259-5.187-7.187l-1.043-2.168z"/><path fill="#d4e4fc" d="M532 303c1.892 2.386 3.024 4.072 4 7-3.517 0-4.371-.824-7-3l3-1z"/><path fill="#0602d2" d="M87 180c0 3.112-.456 5.942-1 9l-2-1-3 1v-2l2-1 1-2.5c1-2.5 1-2.5 3-3.5"/><path fill="#0d0cbd" d="M422 165h2c-.599 3.356-1.846 5.378-4 8l-2-4 2-3 1 1z"/><path fill="#eaebf0" d="M715 96h5v2h2v3l-7-2z"/><path fill="#e3e3fe" d="M679 806v2c-2.75 2.188-2.75 2.188-6 4-2.203-.387-2.203-.387-4-1l3.875-2.5 2.18-1.406C677 806 677 806 679 806"/><path fill="#e1e7f9" d="m192 801 7 4-1 2c-3 0-3 0-6-2z"/><path fill="#0502b8" d="M710 774c2.468 1.152 4.048 2.048 6 4l-2 2h-3z"/><path fill="#1e19c6" d="m136 746 2 1-1 2zm-3 2c1.5 1.188 1.5 1.188 3 3 .188 2.688.188 2.688 0 5-2.062-1.75-2.062-1.75-4-4 .25-2.25.25-2.25 1-4"/><path fill="#0701da" d="M129 744c2.875.25 2.875.25 6 1 1.375 2.063 1.375 2.063 2 4-3 0-3 0-5-1v-2l-3-1z"/><path fill="#110faa" d="m816 658 2 1-2.437 4-1.371 2.25L813 667h-1v-6l4-1z"/><path fill="#0705d5" d="m633 640 1 4h2l1 3-5 1z"/><path fill="#d6e1fc" d="M684 567c2.5 2.174 3.436 3.73 4 7h-2l-1 2c-1.125-4.75-1.125-4.75 0-7l-2-1z"/><path fill="#d4d3f9" d="M865 538c1.461 2.647 2 3.894 2 7l-4 5c1-8.571 1-8.571 2-12"/><path fill="#d4e2f8" d="M554 341c3 3.625 3 3.625 3 7h-2l-1 3c-1.238-3.576-.749-6.337 0-10"/><path fill="#e6f7ed" d="M474 340h4v5h-5z"/><path fill="#cbd6fd" d="M326 336c.975 2.633 1.02 3.923.313 6.688C325 345 325 345 322.875 345.813L321 346c1.335-3.594 2.96-6.755 5-10"/><path fill="#0303b9" d="M418 328h2v5h2v3h-4l-1-4h2z"/><path fill="#d3ddfc" d="M541 319c2.252 2.688 3.882 4.646 5 8l-3 1c-3.077-4.431-3.077-4.431-2.687-7.312z"/><path fill="#d2defb" d="m446 302 5 2v5l-2 1-4-7z"/><path fill="#1f1dae" d="M35 265c1.108 3.325.845 5.622 0 9h-2v3h-2z"/><path fill="#d0ddfb" d="M469 194c2.523 3.124 4.273 6.381 6 10l-2 1v-3l-4-2z"/><path fill="#0604d1" d="M788 179h3c-.613 2.962-1.254 4.381-3 7h-2l-1-4 2-1z"/><path fill="#d8e3f7" d="M422 177c.625 1.875.625 1.875 1 4l-2 2v-2h-3l-1 2-2-1c2.462-3.815 2.462-3.815 5.188-4.75z"/><path fill="#0e0da0" d="M777 161c3.192 2.416 5.747 4.68 8 8l-1 2c-1.5-1.375-1.5-1.375-3-3v-2l-4-1z"/><path fill="#f1f2fb" d="m139 112 4 3c-1.812 1.563-1.812 1.563-4 3l-3-1c1.875-3.875 1.875-3.875 3-5"/><path fill="#e5e6fc" d="M683 73c3.688.498 5.605 1.101 8 4l-2 2-6-4z"/><path fill="#0e0bbe" d="m287.164 26.805 2.461.07 2.477.055L294 27v2c-3.982 1.054-6.982.841-11 0 2-2 2-2 4.164-2.195"/><path fill="#1110bf" d="M496 4h6l-2 2 1 2h-7z"/><path fill="#0003ba" d="m320 855 8 1-1 2h-7z"/><path fill="#0103b9" d="M163 774h5l-2 4h-3l-2-2h2z"/><path fill="#e3e2fb" d="m114 734 6 5c-3.75 1.125-3.75 1.125-6 0l1-2h-2z"/><path fill="#0f0cbc" d="M105 717c2.152 3.228 2.201 4.284 2 8l-4-4v-3z"/><path fill="#dfe4f6" d="m804 680 3 1-3 6-3-1c1.875-4.875 1.875-4.875 3-6"/><path fill="#f9fdee" d="M821 658h3v6h-4z"/><path fill="#100fc0" d="m246 632 2 8c-3 0-3 0-5-1z"/><path fill="#cfdcfb" d="M264 596h2c-1.156 3.912-2.355 6.875-5 10 .75-6.625.75-6.625 3-10"/><use fill="#d1dffa" href="#a"/><path fill="#cfdcfb" d="M546 481c2.438.75 2.438.75 5 2 .813 2.125.813 2.125 1 4l-3 1z"/><path fill="#0605d5" d="m357 439 2 1v7c-1.562-1.187-1.562-1.187-3-3 .313-2.687.313-2.687 1-5m-2 6 2 1-1 2z"/><path fill="#cedafd" d="M512 421h4c1.257 2.906 2 4.796 2 8h-2z"/><path fill="#d1e1fb" d="m293 393 2 4-4 4-1-3c1.438-2.687 1.438-2.687 3-5"/><path fill="#0c0db8" d="M485 375c2.526 2.363 3.888 3.665 5 7h-4v-2h-2z"/><path fill="#d0dcfd" d="m314 357 1 2c-.777 1.945-.777 1.945-1.937 4.125l-1.152 2.195L311 367h-3z"/><path fill="#e3e9f9" d="M22 294h2l-2 9-2-2c.568-5.568.568-5.568 2-7"/><path fill="#0706ad" d="M404 193h4l-2 6-2 1-1-6z"/><path fill="#0704d4" d="M753 138c1.875.25 1.875.25 4 1 1.25 2.063 1.25 2.063 2 4l-2 1-4-4z"/><path fill="#dbdffb" d="m202 70-9 5c1-4 1-4 2.813-5.312C198 69 198 69 202 70"/><path fill="#dde0fa" d="m660 58 7 2-2 4-6-4z"/><path fill="#110dbe" d="m652 57 6 1v3h-5z"/><path fill="#dee0fd" d="m380 1 12 1v1l-13 1z"/><path fill="#201eaf" d="m295 852 9 1v3l-9-3z"/><path fill="#e1e3fd" d="m631 832 1 2h-2v2l-7 2v-2z"/><path fill="#0c099e" d="M114 732h3v2l2 1 2 5-3.5-2.875-1.969-1.617L114 734z"/><path fill="#ddddfd" d="M97 714c2.648 2.578 4.944 4.916 7 8-3.403-1.012-4.757-1.648-6.812-4.625L96 715z"/><path fill="#d6d8fb" d="M72 680c3.081 2.773 4.688 5.063 6 9l-2 1v-3h-2z"/><path fill="#100eb7" d="M804 673h2c.75 1.75.75 1.75 1 4-1.937 2.25-1.937 2.25-4 4z"/><path fill="#dce2fa" d="M50 643c4.429 5.143 4.429 5.143 5 9-1.937-.562-1.937-.562-4-2-.75-3.625-.75-3.625-1-7"/><path fill="#0b0ba4" d="m330 618 3 1-4 7h-1v-6z"/><path fill="#1618ab" d="M163 618c-1.249 3.459-2.675 6.147-5 9 .586-6.152.586-6.152 1-8 2-1 2-1 4-1"/><path fill="#d2defa" d="M689 576c2.526 2.363 3.888 3.665 5 7h-4z"/><path fill="#0b0cb1" d="M686 569h3l1 2h3l-1 4c-2.622-1.049-3.794-1.649-5.25-4.125z"/><path fill="#1617b0" d="M583 548c2.969 2.545 4.362 5.49 6 9l-4-1v-4h-2z"/><path fill="#0d0dab" d="M197 553c1.188 1.625 1.188 1.625 2 4-1.375 3.25-1.375 3.25-3 6-1.065-3.196-1.074-5.657-1-9z"/><path fill="#0708b7" d="M684 553v2h-3v5c-3-3.75-3-3.75-3-6 2-1 2-1 6-1"/><path fill="#d0e1fb" d="M481 509c4.429 5.143 4.429 5.143 5 9l-4-1c-.597-2.763-1-5.16-1-8"/><path fill="#d8e6fb" d="M609 438c2.526 2.363 3.888 3.665 5 7h-3l-3-6z"/><path fill="#cfdefd" d="M517 430h3l.313 1.938L521 434l3 1c-1 2-1 2-3 3z"/><path fill="#0807c2" d="M270 425h4c-.312 1.938-.312 1.938-1 4l-3 1c-1.209 2-1.209 2-2 4-.201-3.625.142-5.865 2-9"/><path fill="#0c0cc0" d="m289 389 5 4-2 3h-2z"/><use x="177" y="-155" fill="#1b1bb3" href="#a"/><path fill="#1212ba" d="m309 362 2 2-3 5h-2l-1-6 4 1z"/><path fill="#d4ddfe" d="m417 326 2 1-4 7-2-1c1.074-2.915 1.778-4.778 4-7"/><path fill="#0f0fb2" d="m401 200 3 2-3 6c-1.125-1.75-1.125-1.75-2-4 .875-2.25.875-2.25 2-4"/><path fill="#0503d6" d="m424 152 5 1-3 5-2-2z"/><path fill="#110ebb" d="m205 71-3 1v2l-8 1c2.67-3.263 6.916-6.042 11-4"/><path fill="#edeff9" d="M635 41c2 1 2 1 4 4-1.875 1.063-1.875 1.063-4 2l-2-1v-4z"/><path fill="#1112a3" d="m598 30 11 4v1h-7l-1-2-3-1z"/><path fill="#0d0ac1" d="m299 22 6 1-2 5h-2v-3l-2-1z"/><path fill="#1513aa" d="M541 864c-2.918 1.945-4.625 2.453-8 3l-1-2c3.351-2.11 5.221-2.05 9-1"/><path fill="#0402d9" d="M296 850h10v2c-6.625 1.125-6.625 1.125-10 0z"/><path fill="#dfe0fb" d="m698 791 2 1c-3.625 4.875-3.625 4.875-7 6v-3z"/><path fill="#1611af" d="M694 791c2.25.25 2.25.25 4 1-5.75 5-5.75 5-8 5 0-2 0-2 1.75-4.187z"/><path fill="#d8daf7" d="m126 746 6 5c-1.812.625-1.812.625-4 1l-3-2z"/><path fill="#0906b9" d="m123 737 .313 1.813c.776 2.47 1.758 3.51 3.688 5.188l-1 2-5-5v-3l2-1z"/><path fill="#dbe1fb" d="m800 686 1 3-4 6-3-1z"/><path fill="#231faa" d="M78 688h2v2l4 2-1 4-2.5-3.437-1.406-1.934C78 689 78 689 78 688"/><path fill="#1412a5" d="M812 667c-1.186 3.375-2.276 5.647-5 8l1-7c2-1 2-1 4-1"/><path fill="#0803d1" d="M810 660c2 2 2 2 2.125 4.625L812 667l-3 1c0-3.113.174-5.108 1-8"/><path fill="#0500d6" d="m67 664 5 1-1 4h-2v-2h-2z"/><path fill="#0403d3" d="M171 595c1.063 1.875 1.063 1.875 2 4l-1 2-4-1z"/><path fill="#dae3fe" d="M608 591c4 2 4 2 6 5v3h-2z"/><path fill="#d6dffb" d="m180 590 2 1v2h-2l-1 4-2-1c.573-2.867.861-3.861 3-6"/><path fill="#1a1ea8" d="m185 576 3 1-5 8-1-2z"/><path fill="#0708b4" d="m680 546 2 1-4 7-3-3z"/><path fill="#dfeafc" d="m489 524 4 4v2l-3 1-2-6z"/><path fill="#d1d8fe" d="M651 509c1.892 2.386 3.024 4.072 4 7h-3c-1.062-1.812-1.062-1.812-2-4z"/><path fill="#100db1" d="M403 496c-.812 2.438-.812 2.438-2 5l-3 1-2 2c.556-3.891 2.659-8 7-8"/><path fill="#1618ad" d="M455 463c5.097 2.548 5.109 3.894 7 9l-2 1z"/><path fill="#d6e4f7" d="m453 460 2 3-2 4h-2l-1-6 2 1z"/><path fill="#1518ae" d="M359 432c1 4 1 4 0 7l-4 1z"/><path fill="#cfdff9" d="m374 401 2 1c-1.074 2.915-1.778 4.778-4 7v-7z"/><path fill="#0504d1" d="M548 321c1.5 1.188 1.5 1.188 3 3 .188 2.688.188 2.688 0 5l-3-1c-1.178-2.944-1.033-3.9 0-7"/><path fill="#0601d8" d="M21 309h2l-1 7h-2v-6z"/><path fill="#1415b3" d="m340 307 3 1-4 7-2-4 3-1z"/><path fill="#0605d4" d="M339 304h3v3h-2v3l-3 1z"/><path fill="#0c0cae" d="m523 281 2 1v7c-2.248-2.052-3.002-3.007-4-6h2z"/><path fill="#d1defb" d="M515 274c2.063 2.313 2.063 2.313 4 5l-1 3-2-2v-3h-2l-1 2v-3h2z"/><path fill="#0403d4" d="M517 267h2l2 4-2 2h-2c-1.125-3.75-1.125-3.75 0-6"/><path fill="#1817ac" d="M53 229c1 4 1 4 0 6h-2l-1 4-2-1z"/><path fill="#f9fcec" d="m73 184 4 1-4 6h-1z"/><path fill="#fafdef" d="M775 152h5l1 4-6-1z"/><path fill="#d9dff8" d="m696 83 7 1v3c-3 0-3 0-5.187-2z"/><path fill="#1818a6" d="M668 66c2.375.313 2.375.313 5 1l2 3-8-1z"/><path fill="#d5d8f9" d="M574 857c-1.625 1.563-1.625 1.563-4 3-3.25-.312-3.25-.312-6-1 6.27-3.243 6.27-3.243 10-2"/><path fill="#1d1ea8" d="M285 849h9v3c-3.735-.498-5.812-.875-9-3"/><path fill="#1919b8" d="m686 797 3 2c-3.75 3-3.75 3-6 3l-1-3z"/><path fill="#e7ebfc" d="m717 777 3 1-2 4v-2l-5 1z"/><path fill="#f5fbf4" d="m116 739 4 1-1 4-4-2z"/><path fill="#f6fbe9" d="m791 707 1 3-2 2c-2.125-.375-2.125-.375-4-1 1.634-1.708 2.869-2.935 5-4"/><path fill="#d9d9f9" d="M786 705h2c-.187 1.813-.187 1.813-1 4-2.562 1.75-2.562 1.75-5 3a56.5 56.5 0 0 1 4-7"/><path fill="#dae0f8" d="m83 696 5 5-2 2-2-3-2 1z"/><path fill="#c3caf8" d="m279 569 2 1c-1.75 5.75-1.75 5.75-4 8v-7h2z"/><path fill="#d0defd" d="M585 550h2c2.188 2.313 2.188 2.313 4 5l-1 3c-2.252-2.688-3.882-4.646-5-8"/><path fill="#dcebf7" d="m222 517 2 1-1 7c-1.461-2.647-2-3.894-2-7z"/><path fill="#dbe9fa" d="m234 495 3 4-2 4-2-6z"/><path fill="#d1e1fd" d="m321 496 2 1-3 6-1-2-2-1z"/><path fill="#0808c0" d="M333 478c2 3 2 3 1.625 5.688L334 486l-3-2z"/><path fill="#1515a4" d="M490 383c2.252 2.688 3.882 4.646 5 8h-3c-1.765-3.088-2-4.233-2-8"/><path fill="#d5e2f6" d="m381 384 3 1c-.75 5.75-.75 5.75-3 8l-1-4h2z"/><path fill="#d6dcfd" d="M307 369h3l-2 6-3-3z"/><path fill="#0909a3" d="M404 353h2c-.312 2.375-.312 2.375-1 5l-3 2c.875-5.875.875-5.875 2-7"/><path fill="#d7e2fd" d="m411 333 3 1-2 6-2 1z"/><path fill="#0f12a2" d="m332 321 3 1-4 6c-.625-1.812-.625-1.812-1-4z"/><path fill="#d3e0fc" d="m346 301 2 1c-1.074 2.915-1.778 4.778-4 7 0-3.767.235-4.912 2-8"/><path fill="#191aad" d="m371 251 4 1-3 6h-1z"/><path fill="#e5e7fe" d="m826 233 5 2-1 5c-1.892-2.386-3.024-4.072-4-7"/><path fill="#0803cf" d="m55 228 3 3-3 3-2-1z"/><path fill="#e4eafd" d="m92 165 3 2-5 6c-.687-1.75-.687-1.75-1-4 1.438-2.25 1.438-2.25 3-4"/><path fill="#0301d7" d="m761 147 3 1 1 3-4 1-1-4z"/><path fill="#0505b3" d="m215 64-2 3-1-1-2 2-2-1v-2c2.463-1.231 4.28-1.072 7-1m-7 4 2 1z"/><defs><path id="a" d="M219 521h1c-.25 3.375-.25 3.375-1 7-2.062 1.438-2.062 1.438-4 2z"/></defs></svg>