<?xml version="1.0" encoding="utf-8"?>
<!-- Generator: Adobe Illustrator 26.0.1, SVG Export Plug-In . SVG Version: 6.00 Build 0)  -->
<svg version="1.1" id="Layer_1" xmlns="http://www.w3.org/2000/svg" xmlns:xlink="http://www.w3.org/1999/xlink" x="0px" y="0px"
	 viewBox="0 0 1200 1200" style="enable-background:new 0 0 1200 1200;" xml:space="preserve">
<style type="text/css">
	.st0{fill:#141521;}
</style>
<g>
	<path class="st0" d="M1024.1,175.9c-233.9-234.5-614.2-234.5-848.2,0c-234.5,234.5-234.5,614.2,0,848.2
		c234.5,234.5,614.2,234.5,848.2,0C1258.6,790.2,1258.6,409.8,1024.1,175.9z M972.5,972.5c-205.7,205.7-539.9,205.7-745.6,0
		s-205.7-539.9,0-745.6s539.9-205.7,745.6,0C1178.9,433.2,1178.9,766.8,972.5,972.5z"/>
	<path class="st0" d="M923.9,949.7V250.3c-30.6-28.8-64.8-54-101.4-73.8v668.8L381.1,174.1c-38.4,20.4-73.8,45.6-105,75.6v700
		c30.6,28.8,64.8,54,101.4,73.8V354.7L819,1025.9C857.3,1005.5,892.7,979.7,923.9,949.7z"/>
</g>
</svg>
