<svg xmlns="http://www.w3.org/2000/svg" width="256" height="256"><path fill="#FEFEFD" d="M0 0h256v256H0z"/><path fill="#DBB6A7" d="M174 59h4v19h2l2 8 4 1c2.25 1.5 2.25 1.5 4 4 .334 3.03.233 5.965 0 9h2c3.269 6.859 4.582 12.404 4 20h-2v8h-2l-.875 2.813C190 134 190 134 188 137h-2l-.738 2.3c-2.303 4.927-7.393 7.562-12.34 9.524-2.324.689-4.492 1.176-6.922 1.176v2h-2q.212 2.688.438 5.375c.08.998.162 1.995.246 3.023.166 2.581.166 2.581 1.316 4.602l3.813-.062c5.432-.01 10.788.497 16.187 1.062v1h-15l-1 5c-.912 2.706-1.962 5.338-3 8h-3l-.437 3.813c-.3 2.614-.721 4.661-1.563 7.187-.28 4.713-.181 9.398.563 14.063L163 208c-3.182 3.182-12.56 2.08-16.805 2.114q-3.928 0-7.855-.016l-4.199-.005q-5.481-.006-10.963-.024-5.612-.014-11.223-.02Q100.977 210.033 90 210v-2h-2v-3h28v-3l-12-2q-.061-3.5 0-7l1-1c7.783.04 15.157.696 22.535 3.25 2.85.867 5.64 1.275 8.59 1.688 5.333.806 9.217 2.375 13.875 5.062v2h4q-.212-2.688-.437-5.375l-.247-3.023c-.166-2.581-.166-2.581-1.316-4.602l-3.25.25C145 191 145 191 142.563 189L141 187l3-1v2h10l1-7-2 4h-5l-1-5h2l1-4 10 1v-11l-3-1-1-7h-6l-.625 2.125c-1.814 3.792-3.905 6.467-7.375 8.875-2.967 1.021-5.892 1.6-9 2-3.586-5.857-6-10.965-6-18l-4 1v18h-2l-2-3c-3.754-.765-7.167-1-11-1 .25-1.875.25-1.875 1-4l1.938-.937c2.327-.936 2.327-.936 3.312-3.688L115 157c-3.438.181-3.438.181-7 1-1.333 1.833-1.333 1.833-2 4-1.035 1.594-1.035 1.594-3 3-2.84.41-5.344.618-8.187.625l-2.321.01c-4.771-.15-7.74-.73-11.43-4.01A66 66 0 0 1 78 158l-2-2-1-2.562c-.749-2.586-.749-2.586-3-3.438v-2l-7-2v-2l-2.875.5c-4.701.685-9.385.586-14.125.5v-4c3.053-1.526 6.123-.874 9.438-.625l2.064.133c3.027.213 5.607.528 8.498 1.492v2l2.125.625c3.698 1.768 6.312 4.187 8.875 7.375l1 3c4.838 4.703 9.528 4.441 16.074 4.434 3.207-.476 3.94-.998 5.926-3.434l2.188-.812A34.7 34.7 0 0 0 115 148c.775-2.102.775-2.102 1-4l-4-1-.487-1.864c-.74-2.8-1.501-5.593-2.263-8.386l-.766-2.934c-1.387-5.03-2.35-8.398-6.484-11.816-3.992-4.79-3.516-10.057-3.5-16l-.086-2.984c-.02-7.266-.02-7.266 2.953-10.95L104 86c1.48-2.039 1.48-2.039 2.625-4.062l1.266-2.079q1.243-2.085 2.484-4.171c2.435-2.53 5.4-3.387 8.625-4.688l1.938-1.562c7.16-4.992 17.321-3.877 25.687-4.063q2.11-.057 4.219-.117c9.777-.267 9.777-.267 14.45-.236 2.447-.02 4.38-.306 6.706-1.022v-3h2zm-57 113h4l-1 3-4-1z"/><path fill="#E1C1AE" d="m109 52 2.375.938c3.898 1.142 7.516 1.52 11.55 1.816C125 55 125 55 126 56c-.72 6.72-.72 6.72-2 8q2.438.039 4.875.063l2.742.035c2.4.064 2.4.064 4.383-1.098a208 208 0 0 1 8.07-.098l2.413.005c2.547.005 5.095.018 7.642.03q2.587.008 5.176.014 6.35.017 12.699.049c-3.833 3.155-5.939 3.3-10.937 3.125a738 738 0 0 0-4.282-.074l-2.32-.037c-4.471-.026-8.932.123-13.399.299l-2.614.068c-8.816.372-15.156 2.701-22.448 7.619h-4l-.852 1.754C108.38 81.168 105.088 86.489 101 91h-2c.052 3.522.147 7.042.25 10.563l.043 3.001c.21 6.305.94 10.314 4.707 15.436l3 2c.844 2.139.844 2.139 1.5 4.754l.75 2.838 1.5 5.953.75 2.834.656 2.611L113 143l3 1c-.29 3.472-.7 4.724-3.312 7.125L110 153l-2 1.625c-2.233 1.535-4.487 2.383-7 3.375l-2 2c-5.84.776-12.09 1.256-17.125-2.187-2.626-2.28-4.144-4.802-5.875-7.813-2.431-2.352-4.96-4.48-8-6v-2a2126 2126 0 0 0-8.875-.562l-2.55-.17-2.442-.147-2.254-.143c-1.971-.114-1.971-.114-3.879 1.022v2h17v2l2.375.438C70 147 70 147 72 148v2l1.875.688C76 152 76 152 76.75 154.188c2.07 4.658 4.657 7.522 9.25 9.812 2.903.602 5.728.763 8.688.813l2.232.071c4.159-.095 4.159-.095 7.577-2.246A195 195 0 0 0 108 158c3.813-.875 3.813-.875 7-1-.187 2.313-.187 2.313-1 5-2.5 1.625-2.5 1.625-5 3l-1 3 3.688-.687c3.21-.411 4.227-.35 7.312 1l2 1.687v2h2v-18l4-1 .55 2.195c1.372 5.273 2.757 10.06 5.45 14.805 5.626-.51 9.128-1.564 12.875-5.937A861 861 0 0 0 149 160c1.527-1.773 1.527-1.773 3-3 2.688.313 2.688.313 5 1l.313 3.313c.295 3.603.295 3.603 2.218 5.125C161 168 161 168 161.293 170.262l-.106 2.425-.082 2.45L161 177c-4.293 1.263-6.878.63-11-1l-1 4h-2l1 4 5 1 1-5 2 1c-.875 6.875-.875 6.875-2 8-7.522.239-7.522.239-10-1v-2l-2 1c1.708 2.106 2.521 2.938 5.262 3.293l2.425-.106L154 190v14c-4 0-4 0-5.484-1.406L147 201c-6.694-2.892-14.259-3.942-21.375-5.305a393 393 0 0 1-9.125-1.882c-3.919-.793-7.51-.987-11.5-.813l-1 7 3.75-.125c3.266-.012 5.465.268 8.25 2.125v3H88v3l2 1c-3.312.029-6.625.047-9.937.063l-2.866.025-2.724.01-2.524.016C70 209 70 209 69 208a75 75 0 0 0-4.562-.062l-2.504.027L60 208c.125-2.312.125-2.312 1-5a101 101 0 0 1 6-3l1-3c2.063-.687 2.063-.687 4-1v-2c8.668-2.69 19.124-1.145 28 0l-.312-3.687c0-3.541.197-4.166 2.5-7.125C105 181 105 181 107.75 179.438c2.423-1.23 2.423-1.23 3.063-3.625L111 174c-2.596.937-4.745 1.803-6.937 3.5-5.14 3.738-10.01 3.66-16.063 2.75l-2.078-.266c-10.718-1.472-10.718-1.472-13.68-5.191l-1.367-2.606c-3.999-7.54-3.999-7.54-10.875-12.187v-2h-8v3l-4 1-1 4 5 2c.109 2.228.186 4.458.25 6.688l.14 3.761c-.454 4.13-1.405 5.715-4.39 8.551-3.125.438-3.125.438-6 0l-2-2c-2.069-.643-2.069-.643-4-1l.188 3.313C36 191 36 191 34.875 192.875c-2.602 1.561-4.869 1.874-7.875 2.125l-3-1-1-3-3.875-.375C15.25 190.25 15.25 190.25 13 188v-3h-3v-21c4-2 4-2 8-2v-2l2.625.5c3.39-.14 3.39-.14 5.004-2.281a107 107 0 0 0 2.976-4.469L30 152h3l.813-1.75c2.447-4.637 4.22-6.476 9.187-8.25l2.563-1.562c5.327-3.142 11.543-3.234 17.519-2.012 4.975 1.6 8.384 4.395 12.156 7.953C77.11 148.186 77.11 148.186 80 150v2h2l2 3c3.568.736 3.568.736 7 1v1l6 1v-2l7-1v-2l-2-1c2.906-1.257 4.796-2 8-2v-2h2l-.586-1.723c-4.017-11.912-4.017-11.912-4.805-16.605-.746-5.024-.746-5.024-4.109-8.61L100 120c-2-2-2-2-2.195-4.383l.07-2.742.055-2.758L98 108h-3v-4h2l-.14-3.176-.11-4.136-.102-2.092C96.61 92.574 96.61 92.574 97 89c1.977-1.824 1.977-1.824 4-3 .663-2.484.663-2.484 1-5l2-3h3l1-3c3-2 3-2 6-2v-2l4-1v-2l2-1v-2l-7-1-.875 2.938C111 70 111 70 109 71v-2h-2a809 809 0 0 1-.125-7.375c-.017-.699-.034-1.397-.05-2.117-.018-1.837.072-3.674.175-5.508zm8 120-1 3 5-1v-2z"/><path fill="#E0BFAE" d="M206 92c2-.043 4-.04 6 0l1 1c1.77.105 3.54.184 5.313.25 5.362.409 5.362.409 8.125 3.313L228 99h4v-3h4c2.097 3.407 2.413 6.032 2 10-1.375 2.375-1.375 2.375-3 4h-2v2l-3 1-1 3h-2l-.402 1.715-.536 2.222-.527 2.215C225 124 225 124 224 125a86 86 0 0 0-.562 4.563l-.254 2.503L223 134l2.313.313c2.975.76 3.59 1.59 5.687 3.687 2.606.722 2.606.722 5 1l1 3 2.453.809C242 144 242 144 243.11 146.785l.641 3.278c.482 3.78.482 3.78 2.25 6.937.1 1.769.13 3.541.125 5.313l.008 2.925c-.117 2.423-.44 4.448-1.133 6.762h-2l-.375 2.438L242 177l-2 1-1 3c-1.645.72-3.32 1.37-5 2a534 534 0 0 0-4.312 2.625c-8.876 4.91-18.321 1.424-27.688-.625l-1-3-1.75-.375c-3.361-.934-4.991-3.053-7.25-5.625v-2l-2.375-.875C187 172 187 172 185 170c-2.795-.32-2.795-.32-5.937-.25l-3.215-.016c-3.05.057-3.05.057-5.848 2.266l1-5 4-1-1.898.105-2.477.083-2.46.105L166 166c-1.884-2.825-2.319-3.81-2.687-7l-.262-2.062C163 155 163 155 164 152h2v-2l1.688-.48c6.559-2.006 13.104-4.322 17.125-10.145L186 137l1.5-1.437c2.13-2.22 3.208-4.795 4.5-7.563h2v-8h2c-.391-6.583-1.496-11.902-4-18v-2l-2-1c2.867.573 3.861.861 6 3 2.688.27 5.291.087 8 0v-7h2z"/><path fill="#501C11" d="m141.531 67.805 2.656.008c2.771.011 5.542.036 8.313.062q2.835.016 5.672.027 6.915.035 13.828.098l1 3 2 1v8h2l.5 3.188c.693 2.559 1.107 3.55 3.344 5.039L183 89.312c2.768 1.492 3.794 2.108 4.863 5.114.45 2.699.45 2.699.688 5.27.533 2.737 1.43 3.466 3.449 5.304.96 2.883 1.117 4.677 1.098 7.668l-.01 2.705-.025 2.814-.014 2.85Q193.03 124.52 193 128h-4l-1 7-3 1c-1.209 2-1.209 2-2 4h-2l-.578 1.84c-2.107 3.2-4.573 3.572-8.172 4.722-3.657 1.187-7.06 2.342-10.492 4.079-3.15 1.552-5.292 1.607-8.758 1.359v-3c2.366-1.709 4.312-2.862 7.188-3.437 1.985-.4 1.985-.4 2.937-2.375a143 143 0 0 0 1.625-4.25c1.812-2.81 4.269-3.539 7.25-4.938 2.278-1.749 2.924-2.632 3.512-5.48l.175-2.708.2-2.73L176 121l-2.375-.375C171 120 171 120 169 118a88 88 0 0 1-.312-5.812c-.288-4.282-.422-5.821-3-9.376-4.062-2.739-7.454-2.943-12.293-3.093l-3.229-.114-6.742-.21-3.217-.114-2.954-.092C135 99 135 99 134 98c-5.668-.757-10.394-.057-15.402 2.71-2.483 2.004-3.042 4.234-3.598 7.29h-2v4l-2 1c-.658 3.03-.658 3.03-1 6-3.549-.197-4.75-.72-7.156-3.406-2.756-4.37-2.28-8.97-2.094-13.969l.055-2.809q.07-3.409.195-6.816h2l.688-2c2.237-5.113 5.047-10.305 9.312-14l2.875-.937c3.194-.875 3.194-.875 5.5-3.063 5.861-4.466 13.088-4.283 20.156-4.195"/><path fill="#CA9B63" d="M189 128h3c-1.059 3.403-2.009 6.014-4 9h-2l-.738 2.3c-2.303 4.927-7.393 7.562-12.34 9.524-2.324.689-4.492 1.176-6.922 1.176v2h-2q.212 2.688.438 5.375c.08.998.162 1.995.246 3.023.166 2.581.166 2.581 1.316 4.602l3.813-.062c5.432-.01 10.788.497 16.187 1.062v1h-15l-1 5c-.912 2.706-1.962 5.338-3 8h-3l-.437 3.813c-.3 2.614-.721 4.661-1.563 7.187-.28 4.713-.181 9.398.563 14.063L163 208c-3.182 3.182-12.56 2.08-16.805 2.114q-3.928 0-7.855-.016l-4.199-.005q-5.481-.006-10.963-.024-5.611-.014-11.223-.02Q100.977 210.033 90 210v-2h-2v-3h28v-3l-12-2q-.061-3.5 0-7l1-1c7.783.04 15.157.696 22.535 3.25 2.85.867 5.64 1.275 8.59 1.688 5.333.806 9.217 2.375 13.875 5.062v2h4q-.212-2.688-.437-5.375l-.247-3.023c-.166-2.581-.166-2.581-1.316-4.602l-3.25.25C145 191 145 191 142.563 189L141 187l3-1v2h10l1-7-2 4h-5l-1-5h2l1-4 10 1v-11l-3-1-1-7h-6l-.687 2.438L148 163c-2.625.813-2.625.813-5 1v2l-10 3-1-7h-2l-2-9h20l1-4h4v3c5.502-1.04 10.006-2.403 15-5a1067 1067 0 0 1 5.5-1.75c4.83-1.689 7.402-3.636 10.379-7.762C185 136 185 136 187 135c.73-2.314 1.401-4.648 2-7"/><path fill="#3A0503" d="m171 76 .313 1.938L172 80l3 1 .25 3.25c.815 4.075 1.471 5.314 4.75 7.75l2.063.375C184 93 184 93 185.625 95.5c1.394 3.55 2.19 6.902 2.848 10.645L189 108l2 1v18h-3l-1 9h-2l-2 4h-2l-.578 1.84c-2.107 3.2-4.573 3.572-8.172 4.722-3.657 1.187-7.06 2.342-10.492 4.079-3.15 1.552-5.292 1.607-8.758 1.359v-3c2.366-1.709 4.312-2.862 7.188-3.437 1.985-.4 1.985-.4 2.937-2.375a143 143 0 0 0 1.625-4.25c1.807-2.801 4.285-3.55 7.25-4.938l1-2h4v-4l2-1c-.54-3.475-.54-3.475-2-7-2.972-1.464-2.972-1.464-6-2-1.996-1.996-1.41-5.817-1.562-8.562l-.131-2.155q-.159-2.64-.307-5.283l-4-1v-2l-27-1v-2l-17-2 3-4c4.135-.528 6.383.192 10 2 3.125.25 3.125.25 6 0 1.416-1.184 1.416-1.184 1.063-4.562L141 84l-2-1v-2c3.81-.574 7.61-1.08 11.445-1.465l2.325-.236q2.365-.237 4.734-.461C162.067 78.365 166.647 76 171 76"/><path fill="#D5AC6A" d="M155 162h2l1 3c.512.46 1.024.92 1.55 1.395 1.948 2.157 1.762 3.437 1.637 6.292l-.082 2.45L161 177c-4.293 1.263-6.878.63-11-1l-1 4h-2l1 4 5 1 1-5 2 1c-.875 6.875-.875 6.875-2 8-7.522.239-7.522.239-10-1v-2l-2 1c1.708 2.106 2.521 2.938 5.262 3.293l2.425-.106L154 190v14c-4 0-4 0-5.484-1.406L147 201c-6.694-2.892-14.259-3.942-21.375-5.305a393 393 0 0 1-9.125-1.882c-3.919-.793-7.51-.987-11.5-.813l-1 7 3.75-.125c3.266-.012 5.465.268 8.25 2.125v3H88v3l2 1c-3.312.029-6.625.047-9.937.063l-2.866.025-2.724.01-2.524.016C70 209 70 209 69 208a75 75 0 0 0-4.562-.062l-2.504.027L60 208c.125-2.312.125-2.312 1-5a101 101 0 0 1 6-3l1-3c7.807-2.897 15.802-1.93 23.977-1.307 3.23.115 5.892.129 9.023-.693 2.043-2.159 3.287-4.299 4.684-6.914C107 186 107 186 110.29 184.72l3.336-.219 3.352-.281L120 184a62 62 0 0 0 4-1v-2l8-1v-2l1.715-.367 2.222-.508 2.215-.492c2.055-.463 2.055-.463 2.848-2.633h3v-2c2.303-2.217 3.525-2.968 6.75-3.187L153 169z"/><path fill="#C29D8F" d="m134 97 1 1c1.72.134 3.446.203 5.172.246l3.203.1q3.351.09 6.703.172l3.219.103 2.948.076c4.167.458 7.062 1.83 10.505 4.178 2.982 4.142 2.894 7.472 3.012 12.48-.033 2.802-.033 2.802 2.238 4.645l4 1v10l-3 1-1 3c-3 2-3 2-6 2l-.312 1.75c-1.481 4.847-4.373 6.865-8.688 9.25l-1 1q-3.493.553-7 1l-1 3h-20l2 5v4h2l1 7 3.313-1.5C140 166 140 166 143 166v-2l3 1c-3.521 4.593-7.577 5.12-13 6-3.586-5.857-6-10.965-6-18l-4 1v18h-2l-2-3c-3.754-.765-7.167-1-11-1 .25-1.875.25-1.875 1-4l1.938-.875c2.409-1.03 2.409-1.03 3.312-4.25L115 156h-5v-2l3.438-1.187c3.765-1.4 3.765-1.4 4.5-4.5L118 146l6 1v2c11.727 2.71 22.353 1.52 33-4 3.085-1.944 5.447-3.79 7-7.187 1-1.813 1-1.813 4.063-2.813l2.937-1c.969-2.032.969-2.032 1-4h2v-2l-3 1c-1-1-1-1-1.062-4.562L170 121h-2l-.113-2.52-.2-3.293-.175-3.269c-.555-3.164-1.145-3.906-3.512-5.918v-2h-6c.114 1.626.242 3.25.375 4.875l.21 2.742c.21 2.562.21 2.562 2.415 4.383l-1.875 2.188c-1.962 2.596-3.078 4.759-4.125 7.812h-1v-7a535 535 0 0 0-4.25-.062l-2.39-.036c-2.267.094-4.189.466-6.36 1.098l-2 7h-3l.063 2.438C136 132 136 132 135 133c-6.278.592-6.278.592-9.437-2L124 129l9-2v-9l-5-1-1-3h-5q-.04-2.437-.062-4.875l-.036-2.742C122 104 122 104 123 102h-2l-1 3-3 3c-1.176 2.1-1.176 2.1-2 4h-2v-4h2l.5-3.25c.949-3.27 2.084-4.547 5.063-6.187 4.403-1.888 8.705-2.195 13.437-1.563m-17 75h4l-1 3-4-1z"/><path fill="#C8A49A" d="M44 147v4c4.714.88 4.714.88 9.438.5 3.691-.72 6.851-.066 10.562.5v2c-3.654 1.827-8.004 1.757-12.031 2.207-3.078.464-3.078.464-4.25 2.805L47 161l-2 1a109 109 0 0 0-1 7l2.438.438C49 170 49 170 50 171c.446 5.018.35 9.446-2 14h-5l-1-5h-8l-.184 2.371-.254 3.066c-.08 1.01-.162 2.02-.246 3.06C33 191 33 191 32 192c-2 .04-4 .043-6 0l-1-5-10 1c-2.376-3.465-3.573-5.763-3-10l2-2c.72-2.318 1.391-4.651 2-7l-2-1v-4h11c1.718-3.982 3.41-7.965 5-12h3l.688-1.937C35 148 35 148 37.375 147.25 40 147 40 147 44 147"/><path fill="#CCAFA4" d="M231 144c3.793 1.002 6.715 1.81 10 4 .441 1.91.441 1.91.563 4.063L242 156l2 1c.384 14.173.384 14.173-2 20l-2 1-1 3c-1.645.72-3.32 1.37-5 2a534 534 0 0 0-4.312 2.625c-8.876 4.91-18.321 1.424-27.688-.625l-1-3-1.75-.375c-3.361-.934-4.991-3.053-7.25-5.625v-2l-2.375-.875C187 172 187 172 185 170c-2.795-.32-2.795-.32-5.937-.25l-3.215-.016c-3.05.057-3.05.057-5.848 2.266l1-5 4-1-1.898.105-2.477.083-2.46.105L166 166c-1.884-2.825-2.319-3.81-2.687-7l-.262-2.062C163 155 163 155 164 152h2v-2l1.898-.586 2.477-.789 2.46-.773c2.33-.75 2.33-.75 4.165-2.852h3v3l2.117-.035 2.758-.028 2.742-.035C190 148 190 148 192 149c.407 2.322.744 4.657 1 7h-5v-2l-10-2v4l-6 2v-2l-5-1-1 9 2.156-.048c3.218-.062 6.437-.101 9.656-.14l3.393-.076 3.252-.029 3-.048c2.964.397 3.68 1.09 5.543 3.341l2 1v4l1.938.75C199 174 199 174 199.75 176.125L200 178l1.875.438C204 179 204 179 206 180a95 95 0 0 0 5.125.063l2.758-.028L216 180v2h2v-2h2v-2h2v-2l3.188-.312c3.733-.674 5.709-1.62 8.812-3.688l3-1c.736-11.24.736-11.24-4-21l-2-2z"/><path fill="#D6B59E" d="m127 153 .55 2.195c1.372 5.273 2.757 10.06 5.45 14.805 5.626-.51 9.128-1.564 12.875-5.937A861 861 0 0 0 149 160c1.527-1.773 1.527-1.773 3-3 2.688.313 2.688.313 5 1v4h-2l-.625 3.375C153 169 153 169 150.063 170.375L147 171l-3 1v2h-3l-1 3-8 1v2c-2.709 1.354-5.01 1.065-8 1v2c-4.467 1.644-8.6 3.082-13.375 3.375-3.782.234-3.782.234-5.625 3.188L104 192l-1-2c1.55-3.192 3.566-5.656 5.938-8.25 3.388-3.828 5.237-8.015 7.062-12.75h-4l-1 4-2.187.313c-2.835.497-2.835.497-4.829 2.199-4.451 2.22-8.64 2.001-13.546 1.988l-2.866.086c-6.887.02-6.887.02-10.224-2.93C76 172 76 172 76 169c3.663-.75 6.424-1.238 10 0v2c1.937.081 3.875.14 5.813.188l3.269.105c2.908-.022 2.908-.022 4.648-1.7.42-.525.838-1.051 1.27-1.593 4.444-3 4.444-3 8-3l-1 3 3.688-.687c3.21-.411 4.227-.35 7.312 1l2 1.687v2h2v-18c2-1 2-1 4-1m-10 19-1 3 5-1v-2z"/><path fill="#F4DED5" d="M185 169c5.061 2.103 8.354 6.3 11.64 10.547 1.405 1.733 1.405 1.733 4.36 2.453l1 2a85 85 0 0 0 7.063 1.625l2.078.389c8.462 1.517 13.443 1.817 20.879-2.92C234 182 234 182 237 182c-4.75 4-4.75 4-7 4v2c-8.255 3.669-17.592 2.587-26 0v-2l-2.68.305c-4.396-.404-5.526-1.95-8.445-5.18-5.045-5.643-5.045-5.643-12.11-7.32l-3.515.07-3.547.055L171 174l-.375 3.375C170 181 170 181 168 183v4a78 78 0 0 1-2 5h4l-.562 2.688c-.624 3.226-.624 3.226.187 6L170 203c-1.375 1.625-1.375 1.625-3 3l-1 3h-2v2c-3.87 2.58-7.065 2.273-11.551 2.243l-2.647.006c-2.895.003-5.79-.007-8.685-.019h-6.043q-6.343-.003-12.685-.024-8.106-.023-16.21-.02-6.248-.001-12.493-.013l-5.973-.006q-4.193-.004-8.385-.022l-2.467.002c-14.566-.08-14.566-.08-17.986-2.897-1.094-2.813-.745-4.402.125-7.25l3-1v-2l6-2v3l-3.437 1.25c-3.682 1.288-3.682 1.288-4.286 3.86L60 208l1.934-.254 2.504-.309 2.496-.316L69 207l1 1c3.342.06 6.669.02 10.01-.04 5.612-.06 5.612-.06 7.85.536 2.784.656 5.374.631 8.234.633l3.734.01 4.027-.006q2.078 0 4.156.003 4.356.001 8.713-.006 5.55-.006 11.102.004 4.293.005 8.588 0 3.032 0 6.064.005c6.593-.017 12.988-.245 19.522-1.139l-.5-2.875c-1.227-8.985-.258-16.49 2.5-25.125h3l.188-3.25c.812-3.75.812-3.75 2.625-6.187 5-2.452 9.73-2.39 15.187-1.563"/><path fill="#FEFAF7" d="M198 112h2l1 6h2v5h-3q.212 2.907.438 5.813l.246 3.269c.218 2.978.218 2.978 1.316 5.918 1.324.685 2.66 1.349 4 2a181 181 0 0 1 4 4l3 2v2l2.688.688c3.97 1.573 5.848 2.803 8.312 6.312.549 4.587-.157 7.92-3 11.563-5.033 2.411-10.717 2.229-16 .437l-1-2-3-1a201 201 0 0 1-3-6 100 100 0 0 0-3-3v-2l-3-1v-3h-2c-1.687-1.187-1.687-1.187-3-3 .313-2.687.313-2.687 1-5h2l.586-1.863.789-2.45.773-2.425C193 132 193 132 195 129h2l-.035-1.687c-.062-5.21.285-10.157 1.035-15.313"/><path fill="#CF8436" d="M157 186h2v22c-4.742.677-8.754 1.126-13.454 1.13l-3.74.009-3.982-.006-4.126.003q-4.303.002-8.605-.006-5.52-.006-11.04.004-4.25.005-8.5 0-2.037 0-4.073.002a1445 1445 0 0 1-5.673-.007l-3.26-.002C90 209 90 209 88 208v-3h28v-3l-12-2q-.061-3.5 0-7l1-1c7.783.04 15.157.696 22.535 3.25 2.85.867 5.64 1.275 8.59 1.688 5.333.806 9.217 2.375 13.875 5.062v2h4q-.212-2.688-.437-5.375l-.247-3.023c-.166-2.581-.166-2.581-1.316-4.602l4-1z"/><path fill="#B58B80" d="m216.125 94.938 2.285.302q2.796.373 5.59.76c2.039 10.434 2.039 10.434-.492 14.25-1.946 1.813-1.946 1.813-3.942 3.348L218 115v3l3 2c.56 4.075.197 7.197-1.562 10.875C217 134 217 134 213.375 134.813L210 135l-2 2c-3.125-.375-3.125-.375-6-1a758 758 0 0 1-.062-4.937l-.036-2.778C202 126 202 126 203 125c.69-7.307-1.461-13.2-4-20l9 1v-6h-3c.375-2.437.375-2.437 1-5 3.246-1.623 6.638-.547 10.125-.062"/><path fill="#EBDED9" d="M28 155c0 3.418-.76 5.83-2 9-2.623 1.312-4.23.896-7.125.563l-2.758-.31L14 164v4l3 1c-1.75 6.75-1.75 6.75-4 9-.333 2.5-.333 2.5 0 5l2 2v3l2.188-1c2.846-1.012 4.822-1.25 7.812-1 1 1 1 1 1.063 3.563L26 192l6-1 .184-1.898.254-2.477.246-2.46C33 182 33 182 34 180h8l1 4h5c.872-2.995 1.108-5.636 1.063-8.75l-.028-2.422L49 171l-5-2v-7l5-1 1-4c5.599-.866 10.133-1.312 14.918 2.05C68.889 163.01 72.404 167 75 172v3c5.203 1.156 10.19 1.22 15.5 1.25l2.84.063c5.13.029 8.426-.111 12.66-3.313 2.813-.687 2.813-.687 5-1l1-3h4c-.58 6.178-4.168 11.258-8.562 15.438-3.33 3.213-3.33 3.213-6.438 11.562H72v-2c8.668-2.69 19.124-1.145 28 0l-.312-3.687c0-3.541.197-4.166 2.5-7.125C105 181 105 181 107.75 179.438c2.423-1.23 2.423-1.23 3.063-3.625L111 174c-2.596.937-4.745 1.803-6.937 3.5-5.14 3.738-10.01 3.66-16.063 2.75l-2.078-.266c-10.718-1.472-10.718-1.472-13.68-5.191l-1.367-2.606c-3.999-7.54-3.999-7.54-10.875-12.187v-2h-8v3l-4 1-1 4 5 2c.109 2.228.186 4.458.25 6.688l.14 3.761c-.454 4.13-1.405 5.715-4.39 8.551-3.125.438-3.125.438-6 0l-2-2c-2.069-.643-2.069-.643-4-1l.188 3.313C36 191 36 191 34.875 192.875c-2.602 1.561-4.869 1.874-7.875 2.125l-3-1-1-3-3.875-.375C15.25 190.25 15.25 190.25 13 188v-3h-3v-21c4-2 4-2 8-2v-2l2.75.313c3.447.027 3.447.027 5.625-2.813z"/><path fill="#EAD7D2" d="m109 52 2.375.938c3.898 1.142 7.516 1.52 11.55 1.816C125 55 125 55 126 56c-.72 6.72-.72 6.72-2 8q2.438.039 4.875.063l2.742.035c2.4.064 2.4.064 4.383-1.098a208 208 0 0 1 8.07-.098l2.413.005c2.547.005 5.095.018 7.642.03q2.587.008 5.176.014 6.35.017 12.699.049c-3.833 3.155-5.939 3.3-10.937 3.125a738 738 0 0 0-4.282-.074l-2.32-.037c-4.471-.026-8.932.123-13.399.299l-2.614.068c-8.816.372-15.156 2.701-22.448 7.619h-4l-.852 1.754C108.38 81.168 105.088 86.489 101 91h-2c.052 3.522.147 7.042.25 10.563l.043 3.001c.21 6.305.94 10.314 4.707 15.436l3 2c.844 2.139.844 2.139 1.5 4.754l.75 2.838 1.5 5.953.75 2.834.656 2.611L113 143l3 1c-.29 3.472-.7 4.724-3.312 7.125L110 153l-2 1.625c-2.233 1.535-4.487 2.383-7 3.375l-2 2c-2.602.195-2.602.195-5.625.125l-3.04-.055L88 160v-3l-2-1h5v1l6 1v-2l7-1v-2l-2-1c2.906-1.257 4.796-2 8-2v-2h2l-.586-1.723c-4.017-11.912-4.017-11.912-4.805-16.605-.746-5.024-.746-5.024-4.109-8.61L100 120c-2-2-2-2-2.195-4.383l.07-2.742.055-2.758L98 108h-3v-4h2l-.14-3.176-.11-4.136-.102-2.092C96.61 92.574 96.61 92.574 97 89c1.977-1.824 1.977-1.824 4-3 .663-2.484.663-2.484 1-5l2-3h3l1-3c3-2 3-2 6-2v-2l4-1v-2l2-1v-2l-7-1-.875 2.938C111 70 111 70 109 71v-2h-2a809 809 0 0 1-.125-7.375c-.017-.699-.034-1.397-.05-2.117-.018-1.837.072-3.674.175-5.508z"/><path fill="#B39789" d="M174 59h4v19h2l2 8 4 1c2.25 1.5 2.25 1.5 4 4 .334 3.03.233 5.965 0 9h2c3.269 6.859 4.582 12.404 4 20h-2v8h-1l-.076-1.757q-.176-3.965-.362-7.93l-.119-2.764-.127-2.686-.11-2.46c-.216-2.524-.665-4.929-1.206-7.403l-3-1-.078-2.117-.172-2.758-.14-2.742c-.361-2.52-.361-2.52-2.489-3.63L183 90c-2.687-1.187-2.687-1.187-5-3-.812-3.687-.812-3.687-1-7h-2v-8l-3-1v-3q-8.325.141-16.65.317-2.828.058-5.657.105c-2.72.046-5.441.104-8.162.164l-2.526.035c-6.467.16-13.074.429-18.13 4.879-2.988 2.598-5.158 3.343-8.875 4.5-2.938 2.386-4.434 5.376-6.187 8.688l-1.606 3.011L103 92h-2a606 606 0 0 0 .25 9.625l.043 2.738c.211 5.788.864 9.22 4.707 13.637 2.121.952 2.121.952 4 1v-6h3l-2 15h-3l-.75-2.75c-1.322-3.437-2.613-4.772-5.25-7.25-3.98-4.818-3.516-10.052-3.5-16l-.086-2.984c-.02-7.266-.02-7.266 2.953-10.95L104 86c1.48-2.039 1.48-2.039 2.625-4.062l1.266-2.079q1.243-2.085 2.484-4.171c2.435-2.53 5.4-3.387 8.625-4.688l1.938-1.562c7.16-4.992 17.321-3.877 25.687-4.063q2.11-.057 4.219-.117c9.777-.267 9.777-.267 14.45-.236 2.447-.02 4.38-.306 6.706-1.022v-3h2z"/><path fill="#734A38" d="m141.531 67.805 2.656.008c2.771.011 5.542.036 8.313.062q2.835.016 5.672.027 6.915.035 13.828.098v1l-1.896.044c-2.827.075-5.653.171-8.479.269l-2.984.068-2.852.107-2.634.08c-2.541.245-2.541.245-4.155 3.432-2.674.492-2.674.492-6.031.66l-3.645.217-3.824.186q-3.735.191-7.469.41l-3.357.164c-2.823.108-2.823.108-4.674 2.363-3.125.125-3.125.125-6 0l2 1v2l-6 2 .625 2.75c.388 3.36.18 4.49-1.625 7.25l-1-2h-2q.21 2.719.438 5.438l.246 3.058c.048 2.44.048 2.44 1.316 3.504.141 2.67.042 5.324 0 8h2v-2l4-1 1-5c1.125 3.75 1.125 3.75 0 6h-2v4l-2 1c-.658 3.03-.658 3.03-1 6-3.549-.197-4.75-.72-7.156-3.406-2.756-4.37-2.28-8.97-2.094-13.969l.055-2.809q.07-3.409.195-6.816h2l.688-2c2.237-5.113 5.047-10.305 9.312-14l2.875-.937c3.194-.875 3.194-.875 5.5-3.063 5.861-4.466 13.088-4.283 20.156-4.195"/><path fill="#6A3A28" d="M151 69c2.107-.388 2.107-.388 4.684-.398l2.81-.012 2.944.035 2.931-.035 2.815.012 2.58.01C172.5 69.087 173.4 69.748 175 72c.188 3.688.188 3.688 0 7h-3v-6l-1.638.65c-7.95 2.795-15.68 2.695-23.987 2.537q-2.1-.022-4.2-.04Q137.089 76.092 132 76v4l-12 1-1 4-2.375 2.188c-3.004 3.218-3.672 5.656-4.867 9.785-.978 2.615-2.298 3.755-4.758 5.027-.96-2.882-1.106-4.699-1.062-7.687l.027-2.45L106 90l3 1 .113-1.898.2-2.477.175-2.46C110 82 110 82 113 80h3l-2-1v-2l3.313-.937A170 170 0 0 0 124 74c1.894-.181 3.792-.319 5.691-.43l3.362-.222q3.515-.224 7.031-.422l3.357-.23 3.085-.188c2.83-.279 2.83-.279 4.474-3.508"/><path fill="#CAA799" d="m149.75 118.375 2.422.336L154 119l1 6 4-3a367 367 0 0 1 1.063 4.313l.597 2.425C161 131 161 131 160 134c-1.748 1.036-3.502 2.067-5.3 3.012-1.83.94-1.83.94-3.262 2.8L150 141c-3.187-.312-3.187-.312-6-1v-3l-9-1v-2l-3-1 3-1 1-5h3l.438-2.375c.898-4.193.898-4.193 3.328-5.773 2.63-1.003 4.216-.884 6.984-.477"/><path fill="#EAD1AC" d="M125 156c3 1 3 1 3.879 2.672l.684 2.078.742 2.172L131 165a600 600 0 0 0 2 5c5.626-.51 9.128-1.564 12.875-5.937A861 861 0 0 0 149 160c1.527-1.773 1.527-1.773 3-3 2.688.313 2.688.313 5 1v4h-2l-.625 3.375C153 169 153 169 150.063 170.375L147 171l-3 1v2h-3l-1 3-8 1v2c-2.709 1.354-5.01 1.065-8 1v2c-2.957 1.478-5.742 1.06-9 1l1-6a665 665 0 0 1 4.313-1.5l2.425-.844C125 175 125 175 128 175v-6h-4q-.04-2.97-.062-5.937l-.036-3.34C124 157 124 157 125 156"/><path fill="#D4B277" d="M155 162h2l1 3c.512.46 1.024.92 1.55 1.395 1.948 2.157 1.762 3.437 1.637 6.292l-.082 2.45L161 177c-4.293 1.263-6.878.63-11-1l-1 4h-2l1 4 5 1 1-5 2 1c-.875 6.875-.875 6.875-2 8-7.522.239-7.522.239-10-1v-2c-3.716-.2-4.772-.152-8 2v-2c-5.551-2.484-10.165-1.853-16-1l4-2v-2l8-1v-2l1.715-.367 2.222-.508 2.215-.492c2.055-.463 2.055-.463 2.848-2.633h3v-2c2.303-2.217 3.525-2.968 6.75-3.187L153 169z"/><path fill="#C6AA94" d="m118 146 6 1v2c9.054 2.125 19.057 2.502 27.266-2.223C153 146 153 146 156 147l-3.437 1.313L149 150l-1 3h-20l2 5v4h2l1 7 3.313-1.5C140 166 140 166 143 166v-2l3 1c-3.521 4.593-7.577 5.12-13 6-3.586-5.857-6-10.965-6-18l-4 1v18h-2l-2-3c-3.754-.765-7.167-1-11-1 .25-1.875.25-1.875 1-4l1.938-.875c2.409-1.03 2.409-1.03 3.312-4.25L115 156h-5v-2l3.438-1.187c3.765-1.4 3.765-1.4 4.5-4.5zm-1 26h4l-1 3-4-1z"/><path fill="#E3A445" d="m132 184 2.625 1.688L137 187c2.303-.691 2.303-.691 4-2l.75 1.938c1.042 2.162 1.042 2.162 2.938 2.812 3.087.334 6.207.25 9.312.25v14c-4 0-4 0-5.484-1.406L147 201c-7.794-3.367-16.717-4.423-25-6q-2.97-.59-5.937-1.187c-.793-.16-1.586-.318-2.403-.481L112 193v-1h14v3h6v-2l-1.875-.875C128 191 128 191 126 189c-2.655-.565-5.291-.738-8-1v-2c8.564-3.691 8.564-3.691 14-2"/><path fill="#D0AF9B" d="M44 147v4c4.714.88 4.714.88 9.438.5 3.691-.72 6.851-.066 10.562.5v2c-3.654 1.827-8.004 1.757-12.031 2.207-3.078.464-3.078.464-4.25 2.805L47 161l-2 1-1.5 3c-1.5 3-1.5 3-3.5 4-2.164-.34-2.164-.34-4.625-.937l-2.477-.59L31 167c-1.674-5.952-1.001-11.033 1.75-16.437C35 148 35 148 37.5 147.125c2.164-.108 4.333-.125 6.5-.125"/><path fill="#D7B9AB" d="M206 92c2-.043 4-.04 6 0l1 1c1.77.105 3.54.184 5.313.25 5.362.409 5.362.409 8.125 3.313L228 99h4v-3h4c2.097 3.407 2.413 6.032 2 10-1.375 2.375-1.375 2.375-3 4h-2v2l-3 1-1 3h-2l-1 6h-3l-1 5h-1l-.312-3.312c-.661-3.544-.89-4.62-3.688-6.688 1.18-2.896 2.077-4.059 4.625-6 3.654-4.616 2.783-9.321 2.375-15l-2.23.035-2.958.028-2.917.035c-2.755-.093-5.21-.51-7.895-1.098h-2z"/><path fill="#D0B0A2" d="M177 145h3v3l2.117-.035 2.758-.028 2.742-.035C190 148 190 148 192 149c.407 2.322.744 4.657 1 7h-5v-2l-10-2v4l-6 2v-2l-5-1-1 9 2.156-.048c3.218-.062 6.437-.101 9.656-.14l3.393-.076 3.252-.029 3-.048c2.964.397 3.68 1.09 5.543 3.341l2 1-1 4-2-2c-2.069-.643-2.069-.643-4-1l1 3-1.621-.984c-2.948-1.259-5.244-1.282-8.441-1.266l-3.16-.016c-2.99.065-2.99.065-5.778 2.266l1-5 4-1-1.898.105-2.477.083-2.46.105L166 166c-1.884-2.825-2.319-3.81-2.687-7l-.262-2.062C163 155 163 155 164 152h2v-2l1.898-.586 2.477-.789 2.46-.773c2.33-.75 2.33-.75 4.165-2.852"/><path fill="#5D2303" d="m119.875 196.25 2.184.082c4.377.25 6.59.95 9.941 3.668 3.033.786 3.033.786 6.25 1.188l3.266.48L144 202v3l4 1v2H96l-1-2h23v-2l2-1v-2l-9-1-1-3c3.155-1.577 6.439-.95 9.875-.75"/><path fill="#DECDC7" d="m204 95 2 1-1 4h3v6h-8l.875 2.16c2.14 5.519 3.652 9.914 3.125 15.84l-2 1c-.468 2.356-.468 2.356-.625 5.063l-.227 2.785L201 135h-1v-12h3v-5h-2l-1-6h-2l-.113 3.613-.2 4.7-.068 2.38-.107 2.295-.08 2.11c-.55 2.421-1.647 3.224-3.432 4.902l-1.5 3.5c-1.346 3.14-2.158 4.264-4.5 6.5-.714 2.103-.714 2.103-1 4l3 1v1h-10c.489-4.399 1.778-6.054 5-9 2.995-3.45 5.074-6.859 7-11h2v-8h2c-.391-6.583-1.496-11.902-4-18v-2l-2-1c2.867.573 3.861.861 6 3 2.688.27 5.291.087 8 0z"/><path fill="#EBD2AF" d="m66 198 2 1v2l-3.437 1.25c-3.682 1.288-3.682 1.288-4.286 3.86L60 208l1.934-.254 2.504-.309 2.496-.316L69 207l1 1c3.342.06 6.669.02 10.01-.04 5.625-.06 5.625-.06 7.79.537 3.109.71 6.075.622 9.263.617h2.13q3.474-.002 6.948-.016l4.825-.005q6.343-.006 12.685-.024 6.476-.014 12.95-.02 12.7-.016 25.399-.049c-2.8 2.8-4.625 2.31-8.55 2.41l-2.042.06c-2.24.064-4.48.114-6.72.163q-2.353.062-4.705.126-4.953.132-9.907.246-6.27.148-12.538.316-6.05.16-12.1.312l-2.262.058c-8.309.209-16.614.342-24.926.348l-2.26.002c-13.753-.022-13.753-.022-17.115-2.791-1.094-2.813-.745-4.402.125-7.25l3-1v-2c1.875-1.062 1.875-1.062 4-2"/><path fill="#DBBDAD" d="m123 102-1 12h5l2 3q1.99.544 4 1c1.478 2.957 1.06 5.742 1 9-4.926 2.627-9.556 2.145-15 2v-13l-5-1-1-3h2l.75-2.75c1.36-3.537 3.034-7.25 7.25-7.25"/><path fill="#A07065" d="m134 97 1 1c1.72.134 3.446.203 5.172.246l3.203.1q3.351.09 6.703.172l3.219.103 2.948.076c4.167.458 7.062 1.83 10.505 4.178 2.982 4.142 2.894 7.472 3.012 12.48-.033 2.802-.033 2.802 2.238 4.645l4 1v10l-3 1-1 3c-3 2-3 2-6 2l-.312 1.75c-1.144 3.742-2.924 5.721-6.125 7.938-2.24 1.146-4.105 1.857-6.563 2.312 2.467-2.537 4.877-4.906 7.688-7.062 2.406-1.727 2.406-1.727 3.25-4.063C165 136 165 136 168.063 135l2.937-1c.969-2.032.969-2.032 1-4h2v-2l-3 1c-1-1-1-1-1.062-4.562L170 121h-2l-.113-2.52-.2-3.293-.175-3.269c-.566-3.225-1.119-3.855-3.512-5.918a99 99 0 0 1-2-4q-7.23-.254-14.46-.482-2.453-.08-4.907-.166c-12.348-.466-12.348-.466-24.633.648l-.937 3.875c-.54 2.226-1.037 4.072-2.063 6.125h-2v-4h2l.5-3.25c.949-3.27 2.084-4.547 5.063-6.187 4.403-1.888 8.705-2.195 13.437-1.563"/><path fill="#87544A" d="M189 128h3c-1.059 3.403-2.009 6.014-4 9h-2l-.738 2.3c-2.303 4.927-7.393 7.562-12.34 9.524-2.324.689-4.492 1.176-6.922 1.176v2h-2v2h-2l-.875 1.938C160 158 160 158 158 159l-1-2h-17v3l-4-1v-5c2.525-1.262 4.312-1.099 7.125-1.062l2.758.027L148 153l1-4h4v3c5.502-1.04 10.006-2.403 15-5a1067 1067 0 0 1 5.5-1.75c4.83-1.689 7.402-3.636 10.379-7.762C185 136 185 136 187 135c.73-2.314 1.401-4.648 2-7"/><path fill="#D1B9AD" d="M223 122h2l-2 12 5 1 3 3c2.606.722 2.606.722 5 1l1 3 2.453.809C242 144 242 144 243.11 146.785l.641 3.278c.482 3.78.482 3.78 2.25 6.937.1 1.769.13 3.541.125 5.313l.008 2.925c-.117 2.423-.44 4.448-1.133 6.762h-2l-1 2 .465-1.578c.675-3.055.88-6.052 1.097-9.172l.254-3.547L244 157l-3-1v-8l-9-3-2 3-2.187-2.312c-2.525-2.413-4.81-3.967-7.813-5.688q.174-3.094.375-6.187c.07-1.15.14-2.298.21-3.481.39-3.132 1.096-5.485 2.415-8.332"/><path fill="#E9E4E1" d="m109 52 2.375.938c3.898 1.142 7.516 1.52 11.55 1.816C125 55 125 55 126 56c-.72 6.72-.72 6.72-2 8-1.853.072-3.708.084-5.562.063l-3.067-.028L113 64l-.875 2.938C111 70 111 70 109 71v-2h-2a809 809 0 0 1-.125-7.375c-.017-.699-.034-1.397-.05-2.117-.018-1.837.072-3.674.175-5.508z"/><path fill="#9D7567" d="M126 103c2.438.188 2.438.188 5 1 2.099 2.898 2 4.284 2 8 6.039-1.515 11.44-3.152 17-6h4v5l-2.375.813c-2.906 1.035-2.906 1.035-4.625 4.187-14.936 2.167-14.936 2.167-20.336-1.652-1.915-2.972-2.881-5.001-2.309-8.551C125 104 125 104 126 103"/><path fill="#CAA495" d="M148 102c-1.49 4.67-1.49 4.67-3.77 6.145-3.849 1.258-7.118 2.24-11.23 1.855l-3-6-5 1c.633 5.383 3.21 9.21 7 13-1.937-.312-1.937-.312-4-1l-1-3h-5q-.04-2.437-.062-4.875l-.036-2.742C122 104 122 104 123 102h-2l-1 3-3 1 1-4c10.55-2.793 19.327-2.023 30 0"/><path fill="#7B5245" d="M216 120c2.375 1 2.375 1 4 2 .198 3.431.306 6.204-.937 9.438-3.344 2.533-7.016 1.867-11.063 1.562v2h-5c-.25-6.625-.25-6.625 2-10h2l.375-1.937L208 121c2.78-1.39 4.919-1.185 8-1"/><path fill="#BE9F9F" d="M174 59h4v19h2l2 8 4 1c2.25 1.5 2.25 1.5 4 4 .334 3.03.233 5.965 0 9h2c3.269 6.859 4.582 12.404 4 20h-2v8h-1l-.076-1.757q-.176-3.965-.362-7.93l-.119-2.764-.127-2.686-.11-2.46c-.216-2.524-.665-4.929-1.206-7.403l-3-1-.078-2.117-.172-2.758-.14-2.742c-.362-2.521-.362-2.521-2.493-3.637L183 90c-2.625-1.062-2.625-1.062-5-3-2.569-7.707-2.596-15.937-3-24h-3v-2h2z"/><path fill="#FEF7EB" d="m151 118 2 1v14c-9.571.286-9.571.286-14-2q.212-2.188.438-4.375c.08-.812.162-1.624.246-2.46C140 122 140 122 141 120c3.309-2.206 6.09-2.255 10-2"/><path fill="#A5776D" d="M128 153h10l-2 1 1 5 3 1v-3h9l-2 7h-4v2l-10 3-1-7h-2z"/><path fill="#C09C91" d="m118 146 6 1v2c9.054 2.125 19.057 2.502 27.266-2.223C153 146 153 146 156 147l-3.437 1.313L149 150l-1 3h-20l2 5v4h2l1 7 3.313-1.5C140 166 140 166 143 166v-2l3 1c-3.521 4.593-7.577 5.12-13 6-3.586-5.857-6-10.965-6-18l-7 1c-2.152-3.228-2.2-4.284-2-8"/><path fill="#ECDCD4" d="M112 169h4c-.58 6.178-4.168 11.258-8.562 15.438-3.33 3.213-3.33 3.213-6.438 11.562H72v-2c8.668-2.69 19.124-1.145 28 0l-.312-3.687c0-3.541.197-4.166 2.5-7.125C105 181 105 181 107.75 179.438c2.423-1.23 2.423-1.23 3.063-3.625L111 174l-2.187.938c-2.616.988-5.064 1.59-7.813 2.062 3.288-2.912 5.599-4.497 10-5z"/><path fill="#E0DEDD" d="M183.563 187.938 186 188c1.278 2.556 1 4.104.75 6.938l-.203 2.652c-.629 2.771-1.508 3.526-3.547 5.41-.727 3.108-.727 3.108-1 6h-7l-2-7 2.375-2.312c3.646-3.562 3.646-3.562 4.688-8.313L180 189c1-1 1-1 3.563-1.062"/><path fill="#CEAD9E" d="M231 144c3.793 1.002 6.715 1.81 10 4 .441 1.91.441 1.91.563 4.063L242 156l2 1c.384 14.173.384 14.173-2 20l-2 1-1 3h-2l2-5h2v-12l-4 2 .14-1.723c.284-6.067-.676-9.285-4.14-14.277l-2-2z"/><path fill="#E2BA65" d="m76.105 200.902 2.979.01 3.103.025 3.14.014q3.836.018 7.673.049l-1 3h-6v4c-7.435 1.565-14.898 1.99-22-1l1-2h3v-3c3-1 4.974-1.116 8.105-1.098"/><path fill="#C7A799" d="M76 169c4.55-.38 4.55-.38 6.77 1.488 2.99 2.028 5.082 1.912 8.668 1.887l3.37.023c3.484-.434 5.294-1.494 8.192-3.398 2.813-.187 2.813-.187 5 0-.562 3.262-1.414 4.911-4 7-4.439 1.48-8.787 1.306-13.437 1.375l-2.893.113c-7.013.089-7.013.089-10.33-2.824C76 172 76 172 76 169"/><path fill="#BC978C" d="M239 166h1c.46 8.758.46 8.758-1.062 12.875-2.131 2.337-4.378 3.77-7.184 5.21-1.93.954-1.93.954-4.191 2.665-3.658 1.784-6.52 1.456-10.563 1.25l-1-3h4v-4l4-1v-2l2.047-.297c5.565-.911 5.565-.911 10.516-3.453 1.753-2.744 2.144-5.03 2.437-8.25"/><path fill="#68352D" d="m136 95 2 1v2l2.156-.016q4.828-.029 9.656-.046l3.393-.026 3.252-.01 3-.016C162 98 162 98 165 99l1 2 3 1c1.416 2.833 1.346 5.475 1.563 8.625l.253 3.602L171 117l3.375 1.063c1.934.804 1.934.804 3.625 1.937 1.438 3.688 1.438 3.688 2 7l-3 1v4l-2-1 1-10-2.375-.375C171 120 171 120 169 118a88 88 0 0 1-.312-5.812c-.288-4.282-.422-5.821-3-9.376-4.062-2.739-7.454-2.943-12.293-3.093l-3.229-.114-6.742-.21-3.217-.114-2.954-.092C135 99 135 99 134 98c-6.863-.934-11.984.814-18 4v-3c6.695-4.12 12.19-4.733 20-4"/><path fill="#380D06" d="m173 132 4 1-3 1c-.733 2.015-.733 2.015-1 4l-4 1v3l10 1c-2.921 1.948-5.634 3.174-8.875 4.5l-3.117 1.281L164 150l-2.676 1.148c-2.866 1.05-5.297.993-8.324.852v-3c2.366-1.709 4.312-2.862 7.188-3.437 1.985-.4 1.985-.4 2.937-2.375a143 143 0 0 0 1.625-4.25c1.807-2.801 4.285-3.55 7.25-4.938z"/><path fill="#885D4E" d="m112 200 8 1 1 3h-3v2l-22 1 52 1-1-2-3-1v-3l-3-1c2.313-.25 2.313-.25 5 0 1.625 1.875 1.625 1.875 3 4l3 2h-2v2q-11.683.034-23.365.052-5.425.007-10.85.023-5.232.016-10.464.02-2.973.005-5.946.018h-3.64l-3.217.007C90 209 90 209 88 208v-3h28v-3z"/><path fill="#C39D89" d="m162 154 2 1c.633 2.285.633 2.285 1.125 5.063l.508 2.785L166 165l3.813-.062c5.432-.01 10.788.497 16.187 1.062v1h-15l-1 5c-1.562 2.313-1.562 2.313-3 4l1-7-8-1v-2l-3-1-1-7h-6l-2 5c-1-3-1-3 0-5.187 2-1.813 2-1.813 5.563-2.188C157 156 157 156 159 158z"/><path fill="#FAF3E3" d="m103 181 1 3-3 2-1 8H72v2c-6.625 4-6.625 4-10 4v2l-3 2c.567 4.13.567 4.13 2 8l-3-1c-1.75-3.5-.836-7.277 0-11 2.207-3.444 4.432-4.257 8.25-5.25L70 194v-2c3.42-2.28 4.682-2.22 8.688-2.125l3.011.055L84 190v2h13l1-5c1.475-2.23 3.194-4.009 5-6"/><path fill="#AE8379" d="M219.125 96.938 224 97l1 11-6 3v-2l-4-1v-2l-4-1c.256-2.343.593-4.678 1-7 2.525-1.262 4.312-1.099 7.125-1.062"/><path fill="#673F31" d="M36 151c3.947-.18 6.598-.094 10 2 .37 6.534.37 6.534-1.437 8.813L43 163l-1 2c-7.75.125-7.75.125-10-1v-4h2z"/><path fill="#EFCDAB" d="M152 157c2.688.313 2.688.313 5 1v4h-2l-.625 3.375C153 169 153 169 150.063 170.375L147 171l-3 1v-2h-6v2c-2.875.188-2.875.188-6 0-2-3-2-3-2-6h-2v-6l5 10c5.626-.51 9.128-1.564 12.875-5.937A861 861 0 0 0 149 160c1.527-1.773 1.527-1.773 3-3"/><path fill="#EEE7E3" d="m53.875 134.813 3.18-.043c2.88.225 4.507.74 6.945 2.23v2l3.563-.5c2.94-.016 4.107.233 6.421 2.105 3.097 3.527 5.81 7.242 8.016 11.395h-2v-2l-1.762-.781c-2.415-1.315-4.072-2.817-6.05-4.719-5.423-4.813-10.791-5.92-17.907-5.762-4.62.53-8.946 1.927-12.281 5.262h-4l-1 2c.613-2.962 1.254-4.38 3-7 3.125-.687 3.125-.687 6-1v-2c2.697-1.348 4.866-1.17 7.875-1.187"/><path fill="#F0E9E4" d="m225 90 1 4h2v2h4v3l-5 1-.812-2.437c-1.903-2.763-1.903-2.763-4.59-3.047a222 222 0 0 0-5.79-.336c-3.53-.226-6.466-1.066-9.808-2.18v3h-2v7h-6c.903-5.019 2.283-8.698 6.316-11.977 6.389-2.436 14.039-.797 20.684-.023"/><path fill="#E6D4C9" d="M178.688 168.563c5.93.113 9.203 1.19 13.312 5.437 1.608 1.81 3.159 3.632 4.64 5.547 1.405 1.733 1.405 1.733 4.36 2.453l1 2a85 85 0 0 0 7.063 1.625l2.078.389c8.462 1.517 13.443 1.817 20.879-2.92C234 182 234 182 237 182c-4.75 4-4.75 4-7 4v2c-8.255 3.669-17.592 2.587-26 0v-2l-5-1v-2l-1.71-.746c-2.68-1.468-4.67-3.248-6.915-5.316-2.963-2.796-2.963-2.796-6.375-4.938v-2l-2.082.219-2.73.281-2.708.281C174 171 174 171 171 171c2.638-2.638 4.008-2.359 7.688-2.437"/><path fill="#D2B7AA" d="M68 154c2.688 2.375 2.688 2.375 5 5l3 2v3h2l-1 3c-2.533 0-4.556-.29-7-1-1.816-1.848-1.816-1.848-3.562-4.062-2.591-2.79-3.821-3.836-7.622-4.465-2.976.024-5.862.172-8.816.527l-1 3h-2c.61-2.418.61-2.418 2-5 2.828-.926 2.828-.926 6.25-1.312l3.39-.426c6.193-.483 6.193-.483 9.36-.262"/><path fill="#EDC059" d="m120 185-2 1v2l3.813-.187c3.94-.007 3.94-.007 5.937 1.562L129 191c2.1 1.176 2.1 1.176 4 2l-1 2h-6v-3l-3.578.07q-2.336.029-4.672.055l-2.355.05c-7.12.062-7.12.062-10.395-2.175.5-1.937.5-1.937 2-4 4.38-.862 8.536-1.14 13-1"/><path fill="#CFAA9E" d="M206 92c2-.043 4-.04 6 0l1 1c2.808.284 5.616.448 8.434.621C224 94 224 94 226 96c.145 2.91.186 5.72.125 8.625l-.027 2.43c-.024 1.982-.06 3.963-.098 5.945h-2l.07 1.793c.104 4.545.067 8.066-2.07 12.207h-1l-.312-3.312c-.661-3.544-.89-4.62-3.688-6.688 1.18-2.896 2.077-4.059 4.625-6 3.654-4.616 2.783-9.321 2.375-15l-2.23.035-2.958.028-2.917.035c-2.755-.093-5.21-.51-7.895-1.098h-2z"/><path fill="#643438" d="M176 80c2 2 2 2 2.125 4.313.58 2.77.58 2.77 2.645 3.773l2.167 1.102c2.769 1.541 3.852 2.22 4.93 5.246.446 2.691.446 2.691.684 5.261.533 2.738 1.43 3.467 3.449 5.305.96 2.883 1.117 4.677 1.098 7.668l-.01 2.705-.025 2.814-.014 2.85Q193.03 124.52 193 128h-4l-1 7c-.981-3.053-.981-4.947 0-8h3v-18l-3-1c-.625-1.855-.625-1.855-1-4.187-1.192-6.027-2.735-9.956-7.687-13.75-1.86-1.473-1.86-1.473-3.313-3.063-.437-3.875-.437-3.875 0-7"/><path fill="#9E6E30" d="M107.957 191.98c8.666.466 15.885 1.882 24.043 5.02q2.62.89 5.25 1.75L141 200v1c-1.416.082-2.833.14-4.25.188l-2.39.105C132 201 132 201 130.21 199.531c-3.229-2.237-6.532-2.1-10.335-2.219l-2.207-.103c-2.556-.116-5.109-.209-7.668-.209l1 3h-7q-.061-3.5 0-7c1-1 1-1 3.957-1.02"/><path fill="#EBDFD9" d="M190 148h3v3l2.313.125C198 152 198 152 199.5 154.75L201 158c3.728 4.343 3.728 4.343 9 6v2l6 1v-3h2l1-3h3c-.342-2.97-.342-2.97-1-6l-2-1 1-3c2.063 1.438 2.063 1.438 4 4 .467 4.547-.182 7.952-3 11.563-5.033 2.411-10.717 2.229-16 .437l-1-2-3-1a201 201 0 0 1-3-6 100 100 0 0 0-3-3v-2l-3-1v-3z"/><path fill="#8E5C53" d="m167 105 2 1c.344 2.652.344 2.652.5 5.938-.003 4.557-.003 4.557 2.5 8.062l4 1v10l-3 1-1 3c-3 2-3 2-6 2l-.312 1.75c-1.144 3.742-2.924 5.721-6.125 7.938-2.24 1.146-4.105 1.857-6.563 2.312 2.467-2.537 4.877-4.906 7.688-7.062 2.406-1.727 2.406-1.727 3.25-4.063C165 136 165 136 168.063 135l2.937-1c.969-2.032.969-2.032 1-4h2v-2l-3 1c-1-1-1-1-1.062-4.562L170 121h-2z"/><path fill="#4F1D14" d="M172 73v6l4 1 .125 3.188c1.147 4.997 2.777 5.935 6.875 8.812l-3 1c-2.5-2.062-2.5-2.062-5-5-.312-3.812-.312-3.812 0-7l-4-1v-4l-2.687 1.438C162.843 79.833 156.884 79.743 151 80v-2h-19v-2l2.858-.06q5.27-.118 10.54-.257 2.276-.058 4.553-.105c2.187-.046 4.374-.104 6.56-.164l3.984-.095C164.635 74.942 167.9 73 172 73"/><path fill="#F0DCC2" d="m125 156 3 1v9h2l.625 2.438L132 171c3.053.898 3.053.898 6 1v-2h6v2l-4 1v2c-3.215 1.607-6.436 1.057-10 1l-2-7h-4q-.04-2.97-.062-5.937l-.036-3.34C124 157 124 157 125 156"/><path fill="#DBA54C" d="M155 162h2l1 3c.512.46 1.024.92 1.55 1.395 1.948 2.157 1.762 3.437 1.637 6.292l-.082 2.45L161 177c-2.312.625-2.312.625-5 1l-3-2v-2l-4-2v-3h4z"/><path fill="#EBE4DF" d="m166 182 2 1c0 3.796-.502 5.629-2 9h4l-.562 2.688c-.624 3.226-.624 3.226.187 6L170 203c-1.375 1.625-1.375 1.625-3 3l-1 3-2-1 1-7-3-1c.39-6.56 1.421-11.945 4-18"/><path fill="#D4BBB6" d="m30 152 3 1-.621 1.645-.816 2.167-.81 2.145A168 168 0 0 0 29 164c-3.188 2.125-5.265 2.502-9 3l1 2c-.226 3.275-1.124 4.118-3.562 6.438-2.65 2.292-2.65 2.292-2.813 5.125.48 3.27.48 3.27 1.375 6.437l2 1h-3c-1.998-2.59-2.933-4.426-3.312-7.687C12 178 12 178 14 176c.72-2.318 1.391-4.651 2-7l-2-1v-4h11c1.718-3.982 3.41-7.965 5-12"/><path fill="#926D67" d="M189 128h3c-1.059 3.403-2.009 6.014-4 9h-2l-.738 2.3c-2.303 4.927-7.393 7.562-12.34 9.524-2.324.689-4.492 1.176-6.922 1.176v2h-2v2h-2l-.875 1.938C160 158 160 158 158 159l-1-2c-2.527-.656-2.527-.656-5-1 3.088-1.765 4.233-2 8-2l.625-1.812c2.332-3.71 5.93-4.733 10.004-6.016 5.927-1.903 9.562-3.573 13.25-8.684C185 136 185 136 187 135c.73-2.314 1.401-4.648 2-7"/><path fill="#C5978A" d="M167 109h1v12h2l1 7h3v2h-2l-.125 1.875L171 134l-2.937.938c-1.011.35-2.022.7-3.063 1.062q-1.01 2.495-2 5c-2.193 1.89-4.55 3.461-7 5 0-3 0-3 1.25-4.312L159 140l2-3.125c2-2.875 2-2.875 5-3.875z"/><path fill="#400802" d="M122 199h5v2l2.3.148 3.012.227 2.989.21C138 202 138 202 141 204v2l4 1h-19v-2l-5-1z"/><path fill="#D1B5AC" d="m202 124 2 1-1 1a104 104 0 0 0-.562 5.063l-.254 2.785L202 136c2.917.167 2.917.167 6 0l2-2c3.625-.125 3.625-.125 7 0l.875-2.375C219 129 219 129 221 127l-1 9h-10v4h4v2l2.375.938C219 144 219 144 221 145v2h-5v-3l-3.375-.25L209 143c-1.062-1.937-1.062-1.937-2-4-3.042-1.292-3.042-1.292-6-2q-.04-2.97-.062-5.937l-.036-3.34C201 125 201 125 202 124"/><path fill="#D2B7A9" d="M208 100h1v7l-5 2v2l6 1c1.125 3.75 1.125 3.75 0 6h-3l-2 6h-1l-.332-1.871c-1.11-5.924-2.653-11.45-4.668-17.129l9 1z"/><path fill="#F5E4D4" d="M124 115c4.875 1.875 4.875 1.875 6 3 .142 3.003.042 5.992 0 9l-9 1c-.081-1.603-.14-3.208-.187-4.812l-.106-2.708c.342-2.896 1.047-3.706 3.293-5.48"/><path fill="#B69187" d="m216.125 94.938 2.285.302q2.796.373 5.59.76v1l-12 1-.375 4.813c-.287 3.68-.517 5.025-2.625 8.187h3v5l-.625-1.937c-1.27-2.412-1.27-2.412-4.5-2.813L204 111v-2l1.938-.562c2.483-1.38 2.483-1.38 2.812-5.063L209 100h-4c.375-2.437.375-2.437 1-5 3.246-1.623 6.638-.547 10.125-.062"/><path fill="#997869" d="m176 63 1 17h-2v-8l-3-1v-3h-40v-1h36l1-3c4.443-2.278 4.443-2.278 7-1"/><path fill="#602C24" d="M152 83c2.86-.238 5.198-.432 8 0 2.563 2.25 2.563 2.25 4 5-.41 2.172-.41 2.172-1 4q-2.47.039-4.937.063l-2.778.035C153 92 153 92 152 91c-.141-2.67-.042-5.324 0-8"/><path fill="#5D2F21" d="M168 69c4 0 4 0 5.75 1.063 1.884 2.92 1.442 5.551 1.25 8.937h-3v-6l-1.761.65c-6.922 2.34-13.1 2.718-20.364 2.537l-3.187-.04A716 716 0 0 1 139 76l1-2 2.247-.076q5.033-.176 10.065-.362l3.538-.119 3.388-.127 3.127-.11c2.742-.108 2.742-.108 5.635-1.206z"/><path fill="#D5BA8E" d="M102 193c.934 3.01 1.044 3.867 0 7-6.625 1.25-6.625 1.25-10-1-7.8-1.624-16.083-1.103-24-1 3.125-3.125 6.688-2.95 10.976-3.114l3.079.016 3.36.01 3.46.025 3.531.014q4.298.018 8.594.049z"/><path fill="#D2C0B9" d="M41 178v2h-7l-.184 2.371-.254 3.066c-.08 1.01-.162 2.02-.246 3.06C33 191 33 191 32 192c-2 .04-4 .043-6 0l-1-5h-7l2-4c2.875-.187 2.875-.187 6 0 2.152 3.228 2.2 4.284 2 8h2v-11l5-2c2.49-1.245 3.41-.777 6 0"/><path fill="#C8A291" d="M239 164h2v12l-2-4-1.25 1.313c-3.292 3.174-5.475 5.112-10.187 5.062L224 178v2l-4 1v4h-3l1-5h2v-2h2v-2l3.188-.312c3.733-.674 5.709-1.62 8.812-3.688l3-1-.125-2.375C237 166 237 166 239 164"/><path fill="#BC9081" d="m150.36 102.61 6.64.39v9c-6.055 3.223-6.055 3.223-8 4l-2-1c2-3 2-3 4.125-3.687L153 111l1-5-3.324 1.313-4.363 1.687-2.186.867c-3.837 1.472-6.943 2.53-11.127 2.133v-2l2.266-.516 2.984-.734 2.953-.703c2.906-.864 2.906-.864 4.86-3.14C148 103 148 103 150.359 102.608"/><path fill="#EEE5DB" d="M70 168c2.5 1.813 2.5 1.813 5 4v3c3.609.81 7.045 1.178 10.738 1.316l3.233.127 3.341.12 3.4.13q4.144.159 8.288.307c-2.58 2.58-4.453 3.13-8 4-2.761-.122-5.287-.342-8-.75l-2.078-.266c-10.57-1.452-10.57-1.452-13.383-4.64C70 170.222 70 170.222 70 168"/><path fill="#F6EDE5" d="m179.25 169.875 2.703.055L184 170v2l2.242.754c3.002 1.356 4.627 2.808 6.883 5.184l2.008 2.09L197 182a528 528 0 0 0 3 3c-3 0-3 0-5.121-1.898l-2.316-2.477c-3.836-4.088-6.085-6.475-11.797-6.82l-3.516.07-3.547.055L171 174l-.375 3.438L170 181l-2 1c.228-1.628.483-3.253.75-4.875l.422-2.742C170 172 170 172 171.75 170.687c2.615-.799 4.77-.884 7.5-.812"/><path fill="#B59074" d="M161 201c2 2 2 2 2.188 4.563C163 208 163 208 162 209c-7.873 1.201-15.713 1.13-23.66 1.098l-4.199-.005q-5.481-.006-10.963-.024-5.612-.014-11.223-.02Q100.977 210.033 90 210v-1l2.293-.031q10.746-.148 21.492-.308 5.523-.084 11.047-.158 5.34-.072 10.679-.156 3.007-.044 6.016-.081c6.562-.106 12.967-.397 19.473-1.266l-1-3z"/><path fill="#EBD8D0" d="M223 122h2l-2 12 5 1 3 3c2.606.722 2.606.722 5 1l1 3q2.479 1.054 5 2c1.354 2.709 1.065 5.01 1 8h-1v-2.187c-1.561-4.392-4.985-5.752-9-7.813-3.264-1.495-6.585-2.84-9.937-4.125C221 136 221 136 220.625 133.985c-.116-4.391.332-8.026 2.375-11.985"/><path fill="#EEECEC" d="M92 50h8c1.804 2.76 2.013 3.89 1.625 7.25L101 60c-2.25.75-2.25.75-5 1-2.312-1.5-2.312-1.5-4-4-.25-3.75-.25-3.75 0-7"/><path fill="#976B61" d="M35 152c.93 2.606 1.15 3.642.063 6.25L34 160h-2v4l10 1 2-5h2v-7h2c.188 2.813.188 2.813 0 6-1.312 1.5-1.312 1.5-3 3l-1.562 3.125C42 168 42 168 40 169c-2.164-.34-2.164-.34-4.625-.937l-2.477-.59L31 167c-1.5-4.363-.496-7.124 1.113-11.23C33 154 33 154 35 152"/><path fill="#EAD9BC" d="m105 184 2 1-1.312 2.125c-1.694 2.885-3.192 5.883-4.688 8.875H72v-2c3.276-.982 6.228-1.116 9.64-1.098l3.243.01 3.367.025 3.414.014q4.168.018 8.336.049l.813-3.375C102 186 102 186 105 184"/><path fill="#DACBC4" d="M52 138c8.712-.545 14.662.738 21.313 6.563l1.925 1.816C77.11 148.186 77.11 148.186 80 150v2h2a181 181 0 0 1 4 4l2 1v3c-4.514-1.63-7.91-3.119-10.375-7.375C75.257 148.799 72.06 146.03 68 144v-2l-12-1v-2z"/><path fill="#F1DDD7" d="M193 133c-.49 4.41-1.877 5.974-5 9-.787 2.138-.787 2.138-1 4l3 1v1h-10c.489-4.399 1.778-6.054 5-9l2.125-2.687C189.114 133.86 189.85 133 193 133"/><path fill="#E9BDAE" d="m132 100 16 2-2 5q-2.937.118-5.875.188l-3.305.105L134 107c-2-3-2-3-2-7"/><path fill="#D3B9AF" d="m118 141 2 5h-2l.125 2.375C118 151 118 151 116 153a90 90 0 0 1-6 1v3l-3.312.313c-3.61.28-3.61.28-5.032 2.218-2.496 2.214-4.583 1.762-7.844 1.656l-3.292-.082L88 161v-1l2.3-.113 3.013-.2 2.988-.175c3.003-.57 3.772-1.244 5.699-3.512l2.188-.812A34.7 34.7 0 0 0 115 148c.775-2.102.775-2.102 1-4l-3-1c3-2 3-2 5-2"/><path fill="#F5E7E3" d="M178 59h2l-.125 3.813c0 7.218.943 15.655 4.125 22.187 2.424 1.17 2.424 1.17 5 2 1.875 1.813 1.875 1.813 3 4-.312 2.75-.312 2.75-1 5h2v3h-3v-8l-4-2v-2l-5-1-1-8h-2z"/><path fill="#F2EDEA" d="m204 188 3.125.5c6.264.803 12.573.58 18.875.5-.625 3.375-.625 3.375-2 7-3.125 1.438-3.125 1.438-6 2-1.46-2.647-2-3.894-2-7l-3.187.125c-3.553-.116-5.662-.597-8.813-2.125z"/><path fill="#DFD2C8" d="m114 174 1 2h5l-1.937.625c-2.412 1.27-2.412 1.27-2.813 4.5L115 184h5v1l-2.738.262-3.575.425-3.55.387c-3.326.64-3.326.64-5.055 3.508L104 192l-1-2c1.916-3.945 4.675-7.034 7.598-10.254 1.463-1.822 2.433-3.626 3.402-5.746"/><path fill="#E4CFC3" d="m151 118 2 1v14h-9v-1h7l-1-10h-8l-1 9h-2q.212-2.188.438-4.375c.08-.812.162-1.624.246-2.46C140 122 140 122 141 120c3.309-2.206 6.09-2.255 10-2"/><path fill="#F3E3DF" d="M28 155c0 3.418-.76 5.83-2 9-3.11 1.555-6.26 1.017-9.687.938-2.34-.1-2.34-.1-4.313 1.062l-1 3h2v7h-2c-.982-4.053-1.082-7.839-1-12 3.088-1.765 4.233-2 8-2v-2l2.75.313c3.447.027 3.447.027 5.625-2.813z"/><path fill="#5F3629" d="M211 122h6v2h2c-.875 5.875-.875 5.875-2 7-3.003.142-5.992.042-9 0z"/><path fill="#70390A" d="m118 204 8 1v2l2 1H96l-1-2h23z"/><path fill="#DBC8C2" d="m201 137 7 1 1 4 7 2v3h5l.875 2.438c.858 2.695.858 2.695 3.125 3.562v12l-3-1 .395-1.793c.43-2.47.702-4.699.605-7.207-2.827-3.908-5.572-5.369-10-7-1.562-1.437-1.562-1.437-3-3l-2.187-1.562L206 142v-2l-5-2z"/><path fill="#A18182" d="M187 92c2 3 2 3 2.438 5 .405 2.079.405 2.079 1.992 3.402 4.052 4.123 4.757 9.578 4.757 15.098-.047 1.5-.104 3.001-.187 4.5h-2v8h-1l-.076-1.757q-.176-3.965-.362-7.93l-.119-2.764-.127-2.686-.11-2.46c-.216-2.524-.665-4.929-1.206-7.403l-3-1z"/><path fill="#713C36" d="M128 83h10v2l2 1-1 4c-3.25.75-3.25.75-7 1-2.437-1.687-2.437-1.687-4-4z"/><path fill="#FCF8F7" d="M113 64h7v4h-2v2l-4 1v2c-2.375 1.063-2.375 1.063-5 2l-2-1v-5h4z"/><path fill="#E2CBB7" d="M169 172c1.274 2.547.802 3.428.063 6.125l-.59 2.195L168 182h-2l-4 18 4 1-1 7h-3c-1.737-9.99-1.095-18.311 2-28h3l.438-3.437C168 173 168 173 169 172"/><path fill="#F7ECE9" d="M198 112h2l1 6h2v5h-3l1 15c-2.762-2.762-2.579-5.207-3-9h-1c-.12-5.778.168-11.28 1-17"/><path fill="#F0E7D5" d="M70 192h12v1l-10 1v2c-6.625 4-6.625 4-10 4v2l-3 2c.567 4.13.567 4.13 2 8l-3-1c-1.75-3.5-.836-7.277 0-11 2.207-3.444 4.432-4.257 8.25-5.25L70 194z"/><path fill="#C2A780" d="m121 158 .184 1.793c.436 4.117.903 8.162 1.816 12.207h-2l-2-3c-2.05-1.192-2.05-1.192-4-2 .25-3.375.25-3.375 1-7 1.744-1.254 2.828-2 5-2m-4 14h4l-1 3-4-1z"/><path fill="#B88A53" d="m105 190 4 2-4 1-1 7 3.75-.125c3.266-.012 5.465.268 8.25 2.125v3H94v-1h17v-2l-11-1 2-1c.257-2.025.508-4.054.656-6.09C103 192 103 192 105 190"/><path fill="#7C4F42" d="M154 106v5a742 742 0 0 1-4.812 2l-2.708 1.125C144 115 144 115 141 115c.565-3.28 1.37-4.934 4-7 3.384-1.649 5.138-2 9-2"/><path fill="#E4E4E4" d="M91 94c1 1 1 1 1.063 4.063L92 101h-9l-2-6c3.253-1.627 6.392-1.115 10-1"/><path fill="#EEE2DE" d="M110 150v3c-2.718 2.517-5.593 3.655-9 5l-2 2c-2.602.195-2.602.195-5.625.125l-3.04-.055L88 160v-3l-2-1h5v1l6 1v-2l7-1v-2l-2-1c2.906-1.257 4.796-2 8-2"/><path fill="#E1BC6E" d="M142 179c2 2 2 2 2 6l4 1v2l7-1-1 2c-7.75.125-7.75.125-10-1v-2c-3.716-.2-4.772-.152-8 2l-1-5z"/><path fill="#AF8073" d="m134 97 1 3-17 2-2 8-1 2h-2v-4h2l.5-3.25c.949-3.27 2.084-4.547 5.063-6.187C125.033 96.635 129.208 96.6 134 97"/><path fill="#DDC5B9" d="m156.668 62.902 2.705.01 2.815.026 2.85.013q3.48.018 6.962.049c-3.601 3.47-6.516 3.351-11.39 3.293l-2.136-.013a702 702 0 0 1-6.724-.093q-2.285-.022-4.57-.04A1451 1451 0 0 1 136 66c2-2 2-2 4.496-2.16l2.941.097c4.63.142 8.639-1.064 13.231-1.035"/><path fill="#936C5D" d="M126 103q2.514.428 5 1l1 10h-4c-4.092-4.866-4.092-4.866-3.812-8.312C125 104 125 104 126 103"/><path fill="#C9983A" d="M132 184c1.375 2.063 1.375 2.063 2 4l-1 1a174 174 0 0 1-7.562-.437l-2.155-.159q-2.641-.196-5.283-.404v-2c8.881-3.828 8.881-3.828 14-2"/><path fill="#F8E7E5" d="m103 122 3 1c.766 1.926.766 1.926 1.25 4.313l.516 2.363c.242 2.4-.035 4.042-.766 6.324l-2-5-2 5h-2c-1.354-2.709-1.065-5.01-1-8h3z"/><path fill="#CFB3A0" d="m215 180 1 2 2 1-2 4q-2.625-.174-5.25-.375c-.975-.07-1.95-.14-2.953-.21-2.693-.4-4.467-1.05-6.797-2.415l1-2 1 1c1.666.04 3.334.043 5 0l-2-2z"/><path fill="#FCEACC" d="m124.625 176.938 3.602.027L131 177c-1.3 1.488-1.3 1.488-3 3-3.187.188-3.187.188-6 0v2h-2v2h-5c.375-2.937.375-2.937 1-6 2.884-1.442 5.417-1.094 8.625-1.062"/><path fill="#FDDBC7" d="M156 157c-.485 4.202-2.937 7.245-6 10-3.312 1.375-3.312 1.375-6 2 2.325-6.589 4.501-12 12-12"/><path fill="#4D2518" d="m40 153 5 1v5h-3l-1 5h-6v-2h2z"/><path fill="#DCD8DA" d="M164 38c2.625.375 2.625.375 5 1v8c-3.01.934-3.867 1.044-7 0-.125-3.375-.125-3.375 0-7z"/><path fill="#E8D7D0" d="M50 157c4.165-.644 7.851-.826 12 0 3.91 2.88 6.958 6.23 10 10l-1 2c-3.217-2.502-6.122-5.122-9-8l-2-1v-2h-8v3l-8 3 1-3h4z"/><path fill="#D8B56D" d="m120 185-2 1v2l-6 1v2h5v1c-8.571.286-8.571.286-12-2 .5-1.937.5-1.937 2-4 4.38-.862 8.536-1.14 13-1"/><path fill="#B9A69F" d="M44 170h3c2.301 3.452 2.138 4.235 1.625 8.188l-.336 2.73L48 183l-4 1q-.291-2.655-.562-5.312l-.317-2.989C43 173 43 173 44 170"/><path fill="#E6D0C5" d="M232 96h4c2.097 3.407 2.413 6.032 2 10-1.375 2.375-1.375 2.375-3 4h-2v2l-3 1-1 3h-2l-1 6h-1v-7l3-1v-3l3.438-1.5c2.381-1.325 3.37-1.93 4.25-4.547.314-2.455.314-2.455.312-5.953h-4z"/><path fill="#D7D0CD" d="M109 54h2v2h5v4h3v-4h4v5q-2.656.039-5.312.063l-2.989.035C112 61 112 61 109 60z"/><path fill="#CCBFB3" d="m235 181 2 1c-4.75 4-4.75 4-7 4v2c-4.927 1.97-8.78 2.18-14 2v-2h-9l-1-2 3.84.395c11.958 1.319 11.958 1.319 22.762-3.168.82-.72 1.627-1.456 2.398-2.227"/><path fill="#5A2D30" d="m188 106 5 2v20h-4l-1 7c-.981-3.053-.981-4.947 0-8h3v-18l-3-1z"/><path fill="#A07066" d="M220 102v2h3c-.687 1.938-.687 1.938-2 4-2.625.75-2.625.75-5 1l-1-3h-3v-4c3.053-.981 4.947-.981 8 0"/><path fill="#DDC9C2" d="M237 144c2.947 1.195 4.65 2.214 5.965 5.168a134 134 0 0 1 1.457 4.871c.404 1.946.404 1.946 1.578 2.961.1 1.769.13 3.541.125 5.313l.008 2.925c-.117 2.423-.44 4.448-1.133 6.762h-2l-1 2 .465-1.578c.675-3.055.88-6.052 1.097-9.172l.254-3.547L244 157l-3-1v-8l-4-2z"/><path fill="#CEB9B8" d="m194 108 3 1c.175 3.228.281 6.456.375 9.688l.152 2.763c.146 6.68.146 6.68-1.89 9.31-1.66 1.384-1.66 1.384-4.637 3.239l-1-2c.938-2.125.938-2.125 2-4h2v-8h2q-.213-2.437-.437-4.875l-.247-2.742c-.186-2.394-.186-2.394-1.316-4.383"/><path fill="#835F4E" d="M148 68v1h-14v3c-3.015 1.005-5.042 1.103-8.187 1.063l-2.731-.028L121 73c6.528-7.156 18.128-5.194 27-5"/><path fill="#D3C3BB" d="M174 59h4v19h2v2h-3c-1.521-3.042-1.374-6.28-1.562-9.625l-.131-2.14Q175.149 65.617 175 63h-3v-2h2z"/><path fill="#EBB649" d="m79.125 204.438 3.883.308L86 205v3H71l-1-3c3.053-1.526 5.758-.838 9.125-.562"/><path fill="#9F786B" d="m229 180 1 3-2.437.875c-2.696.858-2.696.858-3.563 3.125h-6v-2h2v-4c5.625-2.125 5.625-2.125 9-1"/><path fill="#F6EBE3" d="m53.125 134.938 2.758.027L58 135v1h-8v2h-2v2c-3.675 2.84-5.269 4-10 4l-1 2c.613-2.962 1.254-4.38 3-7 3.125-.687 3.125-.687 6-1v-2c2.525-1.262 4.312-1.099 7.125-1.062"/><path fill="#F6E8E2" d="m104 78 2 1-1 4h-2l-.375 2.313C102 88 102 88 100 91h-2v17h-3v-4h2l-.14-3.176-.11-4.136-.102-2.092C96.61 92.574 96.61 92.574 97 89c1.977-1.824 1.977-1.824 4-3 .663-2.484.663-2.484 1-5z"/><path fill="#DCB466" d="M155 162h2l1 3 2 1v2h-5l-1 6 2 1-3 1v-2l-4-2v-3h4z"/><path fill="#85604B" d="m120 73 1 3c-1 1-1 1-4.062 1.063L114 77l2 1v2l-6 2v6c-3 0-3 0-5-1a618 618 0 0 1 2.313-3.812l1.3-2.145c2.935-4.323 5.383-5.52 10.387-7.043z"/><path fill="#8F5521" d="m112 200 8 1 1 3h-3v2l-1.956.076q-4.398.176-8.794.362l-3.078.119-2.969.127-2.73.11c-2.269.19-4.289.58-6.473 1.206v-2c2.505-1.252 4.209-1.114 7.008-1.098l2.988.01 3.129.025 3.152.014q3.862.018 7.723.049v-3z"/><path fill="#FCE5D5" d="M138 170h6v2l-4 1v2c-3.215 1.607-6.436 1.057-10 1v-4h8z"/><path fill="#B39488" d="m111 112 2 1-2 15h-2l-.75-3.25c-1.249-3.746-2.275-5.27-5.25-7.75l1-2 2 3c2.06.724 2.06.724 4 1l-.062-2.937C110 113 110 113 111 112"/><path fill="#BC803E" d="M157 186h2v21h-2l-1-15-4-1 4-1z"/><path fill="#C9AE82" d="M148 169a141 141 0 0 1 5 5v2h-3l-2 4-1-2c-2.025-.652-2.025-.652-4-1 .35-3.242.562-4.615 3.063-6.812z"/><path fill="#B49182" d="m44 147 2 6-2.082-.324-2.73-.363-2.708-.387c-2.507-.166-2.507-.166-4.18 1.367-1.16 1.524-2.237 3.113-3.3 4.707.564-3.946 1.536-6.832 4-10 3.163-1.054 5.628-1 9-1"/><path fill="#51211B" d="M159 145h2v2h7c-4.855 3.956-8.72 5.292-15 5v-3c2.438-1.625 2.438-1.625 5-3z"/><path fill="#C29C85" d="m162 154 2 1-3 9 3 1-3 1-1-5-3-1-1-2h-6l-2 5c-1-3-1-3 0-5.187 2-1.813 2-1.813 5.563-2.188C157 156 157 156 159 158z"/><path fill="#BFA79E" d="M99 91h1v21l3 1q1.02 2.994 2 6l3 2c.688 3.625.688 3.625 1 7-2-3-2-3-3-6l-1.875-1.875c-3.963-3.963-5.312-6.812-5.418-12.426q.03-3.006.106-6.011l.04-3.112Q98.908 94.788 99 91"/><path fill="#E0D1CC" d="m204 95 2 1q.061 3.5 0 7c-1.933 1.933-5.403 1.654-8 2-1.67.32-3.337.647-5 1l-.375-2.937L192 100l-2-1c2.867.573 3.861.861 6 3 2.688.27 5.291.087 8 0z"/><path fill="#946D62" d="M205 125h2l-1 7q2.438-.213 4.875-.437l2.742-.247c2.394-.186 2.394-.186 4.383-1.316l-1 3h-9v2h-5c-.25-6.625-.25-6.625 2-10"/><path fill="#97756A" d="m176 63 1 17h-2l-1-13h-6c1-3 1-3 3.438-4.25C174 62 174 62 176 63"/><path fill="#F2D287" d="m69 207 1 1c2.697.073 5.367.092 8.063.063l2.298-.014q2.82-.02 5.639-.049v2H61l-1-2c3.216-1.072 5.634-1.146 9-1"/><path fill="#BE7C2D" d="M132 197c7 .287 11.91 1.504 18 5v2l3 1-1 4h-2l-.875-1.812c-1.172-2.381-1.172-2.381-3.125-5.188-2.806-.948-2.806-.948-6-1.562-5.795-1.233-5.795-1.233-8-3.438"/><path fill="#F6E5CE" d="m166 182 2 1c0 3.904-.684 6.38-2 10h-2v7h-2c.39-6.56 1.421-11.945 4-18"/><path fill="#F9E8E0" d="M242 174h1c.222 3.18.115 5.646-.875 8.688-3.296 3.587-7.481 4.24-12.125 5.312v-2c2.962-2.172 5.507-3.836 9-5 .733-2.015.733-2.015 1-4h2z"/><path fill="#CCB0A4" d="M244 160c.22 6.051.182 11.302-2 17l-2 1-1 3h-2l2-5h2l-1-14c3-2 3-2 4-2"/><path fill="#F0EFED" d="M183.563 187.938 186 188c1.273 2.546 1.032 4.111.813 6.938l-.168 2.652c-.81 3.03-2.016 3.814-4.645 5.41v-3h2l-1-9-3 3a100 100 0 0 1 0-5c1-1 1-1 3.563-1.062"/><path fill="#EADAD2" d="M108 136h3l.813 3.438L113 143l3 1c-.376 2.782-.673 4.588-2.437 6.813C112 152 112 152 110 152v-4h2l-.621-1.863z"/><path fill="#916638" d="M88 205h6l-2 1v2h28v1q-6.354.037-12.708.055-2.16.008-4.324.02c-2.07.013-4.14.018-6.21.023l-3.777.016C90 209 90 209 88 208z"/><path fill="#CDB4A7" d="M206 169h14v3l-14 1z"/><path fill="#F5E3D8" d="m179.25 169.875 2.703.055L184 170v2l-3.687.438c-3.14.39-6.22.886-9.313 1.562l-.375 3.438L170 181l-2 1c.228-1.628.483-3.253.75-4.875l.422-2.742C170 172 170 172 171.75 170.687c2.615-.799 4.77-.884 7.5-.812"/><path fill="#BDAA9E" d="m184 149 7 1 2 6h-5v-2l-4-1z"/><path fill="#BCA29B" d="M231 144c6.75 1.75 6.75 1.75 9 4 .125 3.625.125 3.625 0 7-1.5-1.375-1.5-1.375-3-3v-2l-6-2z"/><path fill="#C1A89F" d="M208 100h1v7l-5 2v2l2 1-3 1c-1.663-2.675-3-5-4-8l9 1z"/><path fill="#C2A773" d="m77.125 196.875 2.633-.008C82 197 82 197 84 198v2H67c1-2 1-2 2.742-2.617 2.5-.424 4.849-.516 7.383-.508"/><path fill="#C79E90" d="M239 164h2v12l-2-4-6 5 1-5 3-1-.125-2.375C237 166 237 166 239 164"/><path fill="#E9D4D0" d="M12 165h2v3l3 1c-1.75 6.75-1.75 6.75-4 9-.167 3.083-.167 3.083 0 6h-2q-.061-3.5 0-7l1-1q.553-3.493 1-7h-2z"/><path fill="#967D71" d="M46 153h2c.188 2.813.188 2.813 0 6-1.312 1.5-1.312 1.5-3 3l-1.562 3.125C42 168 42 168 40 169c-2.164-.34-2.164-.34-4.625-.937l-2.477-.59L31 167v-1h11l1-5 3-1z"/><path fill="#D2C6BE" d="M206 92c2-.043 4-.04 6 0l1 1c2.808.284 5.616.448 8.434.621C224 94 224 94 226 96l-1 3-1-2c-2.417-.433-2.417-.433-5.25-.562-3.676-.244-7.145-.686-10.75-1.438h-2z"/><path fill="#E1D9D8" d="M121 55h3v7h-12l-1 5h-3l1-7 14 1v-5z"/><path fill="#D6D4D4" d="M97.563 50.938 100 51v7c-1.875.625-1.875.625-4 1-2-2-2-2-2.187-4.562.258-3.355.368-3.418 3.75-3.5"/><path fill="#D1AA82" d="M165 176h2v4h-3l-.375 3.188c-.74 5.957-1.694 11.882-2.625 17.812h-1c-.459-8.841-.287-16.098 4-24z"/><path fill="#502119" d="m173 132 4 1-3 1-.312 1.875C173 138 173 138 170.25 139.5L167 141a115 115 0 0 0-5 4l2-4 .75-2.062c1.807-2.801 4.285-3.55 7.25-4.938z"/><path fill="#4E1912" d="M152 83c5.373-.44 5.373-.44 8 0 2 2.5 2 2.5 3 5l-3-1v-2l-7 1 1 4 9 1v1q-2.47.039-4.937.063l-2.778.035C153 92 153 92 152 91c-.141-2.67-.042-5.324 0-8"/><path fill="#F7ECE7" d="M104 178c-5.439 3.494-9.28 3.096-15.375 2.188-.831-.11-1.663-.218-2.52-.33-2.037-.27-4.071-.562-6.105-.858v-1c3.437-.197 6.875-.38 10.313-.562l2.958-.17 2.842-.147 2.619-.143C101 177 101 177 104 178"/><path fill="#D1B8A6" d="M130 118h3c1.478 2.957 1.06 5.742 1 9l-7 2 1-2h2z"/><path fill="#C5A899" d="M115 116h4v11l-2 1v-3h-2z"/><path fill="#D29C45" d="M112 192h14v3l12 1-1 2-25-5z"/><path fill="#EFE1DB" d="M201 138c3.974 1.325 6.153 2.963 9 6l3 2v2l6 2-2 1c-2.796-1.062-5.376-2.57-8-4l-3-1.562-2-1.438v-3l-3-1z"/><path fill="#BEA799" d="M56 140v5h-8v-4c2.709-1.354 5.01-1.065 8-1"/><path fill="#EFC25C" d="m81.25 201.875 3.828.055L88 202v2c-3.213 1.607-6.63.825-10.125.563l-2.285-.159q-2.796-.196-5.59-.404c3.704-2.376 6.93-2.205 11.25-2.125"/><path fill="#FDF3E6" d="M124 117h3v9h-5v-6h2z"/><path fill="#9C795B" d="M150 177h2c1.354 2.709 1.065 5.01 1 8h-5l-1-5h2z"/><path fill="#D7C2B7" d="M102 172c2.625-.187 2.625-.187 5 0-2.625 3.875-2.625 3.875-6 5a87 87 0 0 1-4.887.098l-2.842-.01-2.959-.025-2.994-.014Q83.658 177.03 80 177v-1l1.804-.044c2.691-.075 5.38-.171 8.071-.268l2.84-.069 2.715-.107 2.507-.08c2.456-.263 2.456-.263 4.063-3.432"/><path fill="#7E5E4F" d="m104 89 1 3-3 1v17h2l1 6c-1.984-1.36-1.984-1.36-4-4-.513-3.425-.376-6.796-.25-10.25l.055-2.836q.07-3.459.195-6.914h2z"/><path fill="#DBC6BA" d="m108 75 4 1-1.687 1.438c-2.665 2.952-4.278 6.008-6.067 9.539C103 89 103 89 100 91l.938-1.75c.988-2.093 1.579-3.995 2.062-6.25h2l.375-2.312C106 78 106 78 108 75"/><path fill="#F2E4DD" d="M172 58c3.125-.187 3.125-.187 6 0l-4 1v2h-2v2c-6.83 1.182-13.126.745-20 0v-1l3.867-.113q2.505-.099 5.008-.2l2.55-.068 2.442-.107 2.254-.08c2.286-.3 2.286-.3 3.879-3.432"/><path fill="#FBEDEB" d="m18 160 2 2-1.715.77-2.222 1.042-2.215 1.02C11.67 165.936 11.67 165.936 11 169h2v7h-2c-.982-4.053-1.082-7.839-1-12 3.088-1.765 4.233-2 8-2z"/><path fill="#F5EAE6" d="M219 151c3.16 2.054 4.77 3.187 5.813 6.875-1.247 4.796-4.757 6.572-8.813 9.125v-3h2l1-3h3c-.342-2.97-.342-2.97-1-6l-2-1z"/><path fill="#F3EDE8" d="M232 95c2.875-.187 2.875-.187 6 0 2.454 3.681 2.594 6.723 2 11-1.5 2.5-1.5 2.5-3 4l-2-1 2-3c.226-3.538.043-6.61-1-10z"/><path fill="#BCABA2" d="m216.125 94.938 2.285.302q2.796.373 5.59.76v1q-3.687.29-7.375.563l-2.117.17c-5.281.38-5.281.38-7.508-.733l-2 3c.375-2.437.375-2.437 1-5 3.246-1.623 6.638-.547 10.125-.062"/><path fill="#774714" d="m105 194 11 1c-4 2-4 2-6 2l1 3-5-1z"/><path fill="#E3DEDB" d="M226 189c-.407 2.36-.898 3.86-2.312 5.813C222 196 222 196 219.813 195.688L218 195v-5c5.75-1 5.75-1 8-1"/><path fill="#D0B8AD" d="M41 178v2l-8 1-2 10h-1v-11l5-2c2.49-1.245 3.41-.777 6 0"/><path fill="#D4BE9F" d="m115.25 183.375 2.703.336L120 184v1l-2.738.262-3.575.425-3.55.387c-3.326.64-3.326.64-5.055 3.508L104 192l-1-2c2.826-5.95 5.813-7.472 12.25-6.625"/><path fill="#F7E6DB" d="M142 122h2v5h-2v3h9v2h-10c-.125-7.75-.125-7.75 1-10"/><path fill="#C0B0A2" d="M236 100v7l-7 2c2.6-9 2.6-9 7-9"/><path fill="#431308" d="M160 98h-22v-1q3.373-.544 6.75-1.062l3.797-.598c4.997-.492 6.939.403 11.453 2.66"/><path fill="#AF7E72" d="m153 146 3 1-3.437 1.313L149 150l-1 3h-10c2.516-2.516 4.679-3.002 8.063-4.062 3.761-.941 3.761-.941 6.937-2.938"/><path fill="#D4BFB7" d="M226 99h10c-4.308 4.923-4.308 4.923-7.812 5.313L226 104z"/><path fill="#FAF2EB" d="m112 66 1 3h3v2h-2v2c-2.375 1.063-2.375 1.063-5 2l-2-1v-5h4z"/><path fill="#C7BAB8" d="m46 169 4 2c.369 9.41.369 9.41-2 14h-5l-1-3h2v2l3-1c.223-1.581.428-3.165.625-4.75l.352-2.672c.025-2.807-.529-4.212-1.977-6.578"/><path fill="#CEB19C" d="M197 160c4.662 1.498 5.866 4.885 8 9-2.875-.25-2.875-.25-6-1-2.169-2.86-2-4.284-2-8"/><path fill="#F3E7E2" d="M243 152c3 1 3 1 4 3 .124 2.472.185 4.903.188 7.375l.037 2.04c.01 3.704-.185 6.44-2.225 9.585h-2v-2h2q.08-3.594.125-7.187l.05-2.042c.04-4.06-.375-7.121-2.175-10.771"/><path fill="#6A3F2F" d="m107 106 1 4h2l1-2c-.787 3.41-1.871 6.689-3 10h-3c-.213-4.468.409-7.823 2-12"/><path fill="#D1B5A6" d="M192 152c3 1 3 1 4 3 .188 3 .188 3 0 6l-2 2c-2-3-2-3-2-6l-2-1h3z"/><path fill="#C09785" d="m128 139 6 1-1 5h-5z"/><path fill="#F0ECED" d="M168 36v3l-5 1-1 7 3 1h-4c-1.607-3.215-1.057-6.436-1-10z"/><path fill="#F7EFE0" d="M64.25 196.25 66 197h-3l-.312 2.375C62 202 62 202 59 204c.567 4.13.567 4.13 2 8l-3-1c-1.745-3.49-.855-7.29 0-11 2.85-4.128 2.85-4.128 6.25-3.75"/><path fill="#E0C5A9" d="M169 172c1.274 2.547.802 3.428.063 6.125l-.59 2.195L168 182h-2l-2 6c-.981-3.053-.981-4.947 0-8h3l.438-3.437C168 173 168 173 169 172"/><path fill="#C89E68" d="m157 160 3 1 .25 1.875c.633 2.583.633 2.583 4.313 3.875L168 168c-3.053.981-4.947.981-8 0v-2l-3-1z"/><path fill="#B79A7B" d="M121 158v10l-2-4h-3l1-5c3-1 3-1 4-1"/><path fill="#CAA595" d="m124 149 16 2v1l-2.703.184-3.547.254-3.516.246c-2.544.248-4.794.597-7.234 1.316z"/><path fill="#AD7C70" d="M169 121h1l1 7h3v2h-2l-1 4-4 1z"/><path fill="#451A0E" d="m213 124 5 1-2 5h-6z"/><path fill="#541E0E" d="m141 204 7 2v2h-20v-1l13-1z"/><path fill="#DAC797" d="M124 169h4c1 3 1 3 0 6l-7 1 2-2c.648-2.57.648-2.57 1-5"/><path fill="#E9B950" d="m157 167 3 1v4c-3 2-3 2-6 2 .375-2.937.375-2.937 1-6z"/><path fill="#D3B8AD" d="m128 160 5 10 7-1-2 1v2c-2.875.188-2.875.188-6 0-2-3-2-3-2-6h-2z"/><path fill="#DAC7C1" d="m107 154 3 3-3.312.313c-3.61.28-3.61.28-5.032 2.218-2.496 2.214-4.583 1.762-7.844 1.656l-3.292-.082L88 161v-1l2.3-.113 3.013-.2 2.988-.175c3.017-.572 3.755-1.244 5.699-3.512 2.688-1.187 2.688-1.187 5-2"/><path fill="#6C453D" d="m152 150 1 2 8-1-1 3c-3.676 1.617-8.072 1.065-12 1l3-1c.733-2.015.733-2.015 1-4"/><path fill="#C0A194" d="M138 134h14l-1 3-2-.5c-3.731-.622-7.219-.564-11-.5z"/><path fill="#DCAEA2" d="m132 100 16 2-2 4v-2h-8v-2l-6-1z"/><path fill="#F2E1CB" d="M116 178c2.169.506 4 1 6 2v2h-2v2h-5z"/><path fill="#F0E6DD" d="M108 179c0 3 0 3-1.875 5.188C104 186 104 186 102 186l-1 7h-1c-.312-3.187-.312-3.187 0-7 2.45-2.98 4.795-4.864 8-7"/><path fill="#B5844F" d="m162 168 6 1v3l-3 1-1 3h-2z"/><path fill="#D0A888" d="M163 157h1l1.27 6.055c.653 2.315.653 2.315 3.73 3.945-4 0-4 0-6.25-1.187C161 164 161 164 160.625 161.438 161 159 161 159 163 157"/><path fill="#F8E7E3" d="M231 139h5l1 3q2.479 1.054 5 2c1.354 2.709 1.065 5.01 1 8h-1l-.062-2.187c-1.24-3.72-3.194-4.693-6.442-6.7L234 142v-2z"/><path fill="#805558" d="M189 128h3c-1.059 3.403-2.009 6.014-4 9h-2l-.812 1.938C184 141 184 141 181 142v-2l2.875-2.187c3.616-2.849 4.254-5.37 5.125-9.813"/><path fill="#734647" d="M176 80c2 2 2 2 2.25 4.375 1.086 3.8 3.43 4.718 6.75 6.625-1.687.813-1.687.813-4 1-2.75-2-2.75-2-5-5-.312-3.812-.312-3.812 0-7"/><path fill="#CEA582" d="M161 201c2 2 2 2 2.188 4.563C163 208 163 208 162 209c-2.016.234-4.038.413-6.062.563l-3.348.253L150 210c2.398-2.398 3.333-2.343 6.625-2.625l2.477-.227L161 207l-1-3z"/><path fill="#C0A194" d="M188 169c4.833.414 6.827 2.464 10 6l-4 1-1-4-5-1z"/><path fill="#B78E82" d="M239 166h1v10h-4v3h-3c.982-2.191 1.744-3.775 3.563-5.375 2.06-2.329 2.1-4.6 2.437-7.625"/><path fill="#956058" d="m136 154 1 2 2.082-.29c.901-.11 1.802-.22 2.73-.335l2.708-.352C147 155 147 155 150 157h-10v3l-4-1z"/><path fill="#CBACA8" d="M189 134c1 3 1 3 0 6-2.062.688-2.062.688-4 1l-1 4-4-1 2.25-2.187c2.443-2.499 4.618-5.05 6.75-7.813"/><path fill="#EFEBEC" d="M100 128h4c.125 5.75.125 5.75-1 8h-2c-1.354-2.709-1.065-5.01-1-8"/><path fill="#D2BFB7" d="M206 100h2v6h-8v2h-2v-4l7-1z"/><path fill="#A88077" d="m221 98-2 4h-7l-1 3v-5c3.62-1.316 6.096-2 10-2"/><path fill="#7B493F" d="M132 96v1l-2.937.25c-4.734.65-8.803 2.673-13.063 4.75v-3c5.373-3.394 9.87-3.327 16-3"/><path fill="#E6BA59" d="M72 205h-2l1 2c2.126.467 2.126.467 4.563.625l2.503.227L80 208v1c-5.738.204-10.605.271-16-2 1.858-3.716 4.555-3.07 8-2"/><path fill="#E9E6E5" d="M181 203h1v6h-7l-1-4 3-1v4h2v-2h2z"/><path fill="#DEC9C2" d="m235 181 2 1c-4.75 4-4.75 4-7 4v2l-6 1c2.999-3.345 5.946-5.108 10-7z"/><path fill="#D5B193" d="M114 160c.934 3.01 1.044 3.867 0 7l-6 1c.25-1.875.25-1.875 1-4 2-1.125 2-1.125 4-2z"/><path fill="#A68578" d="M164 154h-2l-.875 1.938C160 158 160 158 158 159l-1-2c-2.527-.656-2.527-.656-5-1 4.278-2.292 7.25-3.527 12-2"/><path fill="#B79086" d="M214 116c2.282.304 3.812.88 5.75 2.125 1.915 2.872 1.44 5.52 1.25 8.875h-1v-5l-4-1v-3l-3-1z"/><path fill="#A27564" d="M149 104c2-.043 4-.04 6 0 1 1 1 1 1.063 4.063L156 111h-3l1-5-6 1z"/><path fill="#D7A636" d="m70 205 3.875-.187 2.18-.106L78 205l2 3h-9z"/><path fill="#EAB14F" d="m126 189 7 3-1 3h-6c-1.125-3.75-1.125-3.75 0-6"/><path fill="#E3CCC1" d="m30 152 3 1-3 8h-2l-1 2c-.393-4.449.847-7.142 3-11"/><path fill="#9C7A6D" d="M110 113h1v9c-3 0-3 0-5.687-2.5L103 117l1-2 2 3c2.06.724 2.06.724 4 1z"/><path fill="#D3A898" d="m133 106 11 1c-2.398 2.398-3.333 2.343-6.625 2.625l-2.477.227L133 110z"/><path fill="#D6CFC8" d="M232 96h4c2.094 3.402 2.18 6.053 2 10h-2v-7h-4z"/><path fill="#915A54" d="M131 84h7l-1 5-6-2z"/><path fill="#EEC59A" d="m154 180 2 1-1 6-7 1v-2l1.875-.187c2.403-.642 2.403-.642 3.375-3.375z"/><path fill="#B89A92" d="M15 177h2l1 8-2 1c-2.148-3.222-2.294-4.278-2-8z"/><path fill="#D9B97C" d="M132 178h4l-1 4h-11v-1l8-1z"/><path fill="#D8B7A6" d="M70 157c3 1.813 3 1.813 6 4v3h2l-1 3-7-7z"/><path fill="#E2CCBE" d="M44 141h2c-.215 1.89-.215 1.89-1 4-2.066 1.047-2.066 1.047-4.562 1.75l-2.504.734L36 148c1.68-3.852 1.68-3.852 4.563-5.187L43 142z"/><path fill="#FDE8D4" d="M164 209v2c-3.204 2.136-4.02 2.231-7.687 2.125l-2.45-.055L152 213l1-2c1.996-.633 1.996-.633 4.438-1.125l2.433-.508C162 209 162 209 164 209"/><path fill="#8F4E15" d="M141 201c2.313-.25 2.313-.25 5 0 1.625 1.875 1.625 1.875 3 4l3 2-4 1-1-2-3-1v-3z"/><path fill="#C7A97B" d="m107 186 5 1-1 3c-1.937.75-1.937.75-4 1l-2-1z"/><path fill="#C4A052" d="M130 183v2l-8 1v2h-4v-2a345 345 0 0 1 3.75-1.5l2.11-.844C126 183 126 183 130 183"/><path fill="#FEF3E8" d="m171 174 3 1c-1.059 3.403-2.009 6.014-4 9l-3-1 2-2c.72-2.318 1.391-4.651 2-7"/><path fill="#D8C2AB" d="M127 153v3l-2 1c-.469 2.816-.469 2.816-.625 6.063l-.227 3.347L124 169h-1v-15c2-1 2-1 4-1"/><path fill="#D7A99C" d="m146.066 145.902 2.496.036 2.504.027L153 146c-1 2-1 2-2.848 2.633l-2.214.492-2.223.508L144 150l-1-3c1-1 1-1 3.066-1.098"/><path fill="#BC9B8B" d="M124 129c2.375-.125 2.375-.125 5 0l2 2 3 1v-2h2l-1 3c-6.4.492-6.4.492-9.437-2z"/><path fill="#CFB2A8" d="M139 124c.934 3.01 1.044 3.867 0 7l5 1v1c-3.716.2-4.772.152-8-2v-4h3z"/><path fill="#C3C3C3" d="M85 96h5v4h-5z"/><path fill="#C5BFC1" d="M165 40h3v6l-5-1z"/><path fill="#B5A093" d="M225 184h5c-2.214 2.214-3.93 3.866-7.113 4.266-1.964-.014-3.927-.133-5.887-.266l-1-3h2v2h6z"/><path fill="#DDC081" d="M148 169a141 141 0 0 1 5 5v2h-4l-1-2c-2.017-1.134-2.017-1.134-4-2z"/><path fill="#CDAF9D" d="M86.848 161.902 93 162v3c-3.375.125-3.375.125-7 0l-2-2c1-1 1-1 2.848-1.098"/><path fill="#E8BFB3" d="M156 158h-3l-1 3-2 1-1 3c-2.062.688-2.062.688-4 1a556 556 0 0 1 2.375-3.937l1.336-2.215c2.26-3.24 3.773-2.903 7.289-1.848"/><path fill="#B29C94" d="m207 96 5 2v2h-2v7h-1v-7h-3z"/><path fill="#B07D32" d="M88 205h6l-2 1v2h6v1c-7.75.125-7.75.125-10-1z"/><path fill="#561F09" d="m118 204 8 1v2h-10l2-1z"/><path fill="#F4ECDD" d="m166 182 2 1c0 3.796-.502 5.629-2 9h-1c-.125-7.75-.125-7.75 1-10"/><path fill="#E5B959" d="m139 181 1 4-4 3-1-5z"/><path fill="#C4A796" d="M202 180h4v2l5 1v1h-8z"/><path fill="#F6DBD4" d="M138 170h6v2c-2.525 1.262-4.312 1.099-7.125 1.063l-2.758-.028L132 173v-1h6z"/><path fill="#FBECEA" d="M56 158h4v2l5 2v3l-4-2v-2l-5-2z"/><path fill="#C09B95" d="M174 149c-3.288 2.912-5.599 4.497-10 5v-2h2v-2c2.709-1.354 5.01-1.065 8-1"/><path fill="#F8F2F1" d="m53.125 134.938 2.758.027L58 135v1h-8v2l-6 1 2-1v-2c2.525-1.262 4.312-1.099 7.125-1.062"/><path fill="#C8A899" d="M220 127c1.16 3.478.708 5.459 0 9h-4c1.059-3.403 2.009-6.014 4-9"/><path fill="#4A1410" d="M177 119h2c1.604 3.508 2.22 6.144 2 10l-3 1-1 2v-4l2-1z"/><path fill="#B18577" d="M156 106h1v6q-1.931 1.044-3.875 2.063l-2.18 1.16L149 116l-2-1c2-3 2-3 5.125-3.687L155 111z"/><path fill="#EED2D2" d="M190 99c2.867.573 3.861.861 6 3l2 1-1 3h-4l-.375-2.937L192 100z"/><path fill="#A6756E" d="M220 102v2h-5l-1 2h-2v-4c3.053-.981 4.947-.981 8 0"/><path fill="#663530" d="m172 71 3 1v7h-3z"/><path fill="#CDC8C5" d="M109 54h2v2h3l1 3-6 1z"/><path fill="#A7938D" d="M44 177h3v7h-3z"/><path fill="#CFAFA7" d="m16 167 5 1c-.25 2.375-.25 2.375-1 5-2.062 1.313-2.062 1.313-4 2l2-6h-2z"/><path fill="#9E6C64" d="M140 157h9l-1 3h-2v2h-2v-4z"/><path fill="#C8B0A8" d="M116 149h2c-.625 1.938-.625 1.938-2 4-3.062.625-3.062.625-6 1l-1 2-1-3 3.438-1.437c3.32-1.2 3.32-1.2 4.562-2.563"/><path fill="#59342D" d="M179 143c-6 4-6 4-11 4l1-3c3.406-.778 6.508-1.1 10-1"/><path fill="#A5786E" d="M163 138v3c-1.531 1.387-1.531 1.387-3.5 2.688l-1.969 1.324L156 146c0-3 0-3 1.813-5.125C160 139 160 139 163 138"/><path fill="#CBA699" d="M206 112h4c1.125 3.75 1.125 3.75 0 6l-3-1v-2l-2-2z"/><path fill="#F3F2F1" d="M84 101h8l-2 3c-3.125.188-3.125.188-6 0z"/><path fill="#C48B57" d="M108 200c5.75.875 5.75.875 8 2v2h-5v-2h-3z"/><path fill="#D2C7B6" d="m114 174 1 2h5v1h-5l-1 4h-2c.875-5.875.875-5.875 2-7"/><path fill="#D4AA9D" d="m230 174 3 1-1 3h-10v-2l3.438-.437c3.37-.175 3.37-.175 4.562-1.563"/><path fill="#DBCDC4" d="m219 166 2 2c-1 1-1 1-3.941 1.098l-3.621-.036-3.63-.027L207 169l-1-2 2.59.035 3.347.028 3.34.035c2.637.215 2.637.215 3.723-1.098"/><path fill="#E2C2AE" d="M116 167v2h-4l-1 4-3-1v-2c2.955-2.744 3.775-3 8-3"/><path fill="#3E1A0F" d="M40 157h5v2h-3v4l-4-1h2z"/><path fill="#EAD7CA" d="M124 115c2.625.938 2.625.938 5 2l-2 1-3-1v3h-2l-1 2c.375-2.937.375-2.937 1-6z"/><path fill="#AE8E84" d="m219.125 96.938 2.758.027L224 97v2l-3.187-.062c-3.14.051-5.782.327-8.813 1.062v-2c2.525-1.262 4.312-1.099 7.125-1.062"/><path fill="#FCEAEA" d="m190 89 2 2c-.375 2.625-.375 2.625-1 5h2v3h-3q-.29-2.218-.562-4.437l-.317-2.497L189 90z"/><path fill="#AF9286" d="m127.688 67.875 2.449.055L132 68v1l-3.75.875c-2.974.738-5.584 1.57-8.25 3.125v-3c3.204-2.136 4.02-2.231 7.688-2.125"/><path fill="#8C4E0A" d="M130 198c4.116.475 7.364 1.021 11 3-1.457.081-2.916.14-4.375.188l-2.46.105L132 201z"/><path fill="#EAE7E6" d="m180 195 2 1-7 7-2-2z"/><path fill="#A88C7D" d="M220 181h2l2 6h-6v-2h2z"/><path fill="#D2AE87" d="M144 181h3l1 3c2 1.209 2 1.209 4 2-5.75.125-5.75.125-8-1z"/><path fill="#C9B78B" d="M123 169h1c.188 2.375.188 2.375 0 5-3.435 2.29-4.985 2.178-9 2l1-2h4l1-2h2z"/><path fill="#AD7F78" d="M135 164h8v2l-8 2z"/><path fill="#C7A698" d="M69 161c1.875.188 1.875.188 4 1 1.25 2.563 1.25 2.563 2 5h-3v-3l-3-1z"/><path fill="#88604F" d="M35 152c.93 2.606 1.15 3.642.063 6.25L34 160h-2c-.37-4.554-.37-4.554 1.5-6.812z"/><path fill="#603426" d="M152 107v4l-6 1v-3c3.75-2 3.75-2 6-2"/><path fill="#58221D" d="M158 85h2l1 2 3 1v3h-4v-3h-2z"/><path fill="#815645" d="M109 82h1v6c-3 0-3 0-5-1a210 210 0 0 1 4-5"/><path fill="#EFDED2" d="M120 71c-3.203 2.834-5.78 3.52-10 4l1-2h3v-2c2.49-1.245 3.41-.777 6 0"/><path fill="#B49C8E" d="M176 63v7h-1v-5l-7 1c1-2 1-2 3.438-3.187C174 62 174 62 176 63"/><path fill="#DD9243" d="m149 198 1 2h3v4h-3c-1.687-2-1.687-2-3-4h2z"/><path fill="#E6B985" d="m145 185 3 1v2l7-1-1 2h-8z"/><path fill="#FAF4EF" d="m103 181 1 3-3 2a88 88 0 0 0-3 5l-1-3c1.215-1.824 1.215-1.824 2.938-3.687l1.714-1.887z"/><path fill="#F1D8C1" d="M112 169h4c-.375 2.438-.375 2.438-1 5l-2 1z"/><path fill="#DFD3C1" d="M72 169c3.795 1.491 5.61 3.757 8 7-2.312-.125-2.312-.125-5-1-1.812-3.062-1.812-3.062-3-6"/><path fill="#A87D72" d="M31 166h11l-1 3-10-2z"/><path fill="#C2A694" d="m45 151 5 1v2h2v2l-4 1v-4l-3-1z"/><path fill="#AD8C80" d="M120 149h4l-1 5h-3z"/><path fill="#D7B09F" d="M160 116h2c-1.27 3.914-2.512 5.79-6 8 .597-3.342 1.736-5.464 4-8"/><path fill="#BD9789" d="m124 103 2 1-.625 1.75c-.462 2.77.196 3.896 1.625 6.25h-4c-.098-6.152-.098-6.152 0-8z"/><path fill="#744B3C" d="M127 106h4v6l-3-1z"/><path fill="#BFB1A8" d="M199 105h5l1 3-4 3z"/><path fill="#D3A799" d="m125 101-1 3-1-2h-2l-1 3-3 1c.375-1.937.375-1.937 1-4 2.463-1.231 4.28-1.072 7-1"/><path fill="#5C2F34" d="M183 92h4v7c-2.5-2.174-3.436-3.73-4-7"/><path fill="#DAD5D2" d="M109 60h2v7h-3z"/><path fill="#712E04" d="m137 201 7 1v3a101 101 0 0 1-6-2z"/><path fill="#E7BB70" d="M84 201h9l-1 3h-4v-2z"/><path fill="#8A5827" d="m105 194 1 2h3l2 4-5-1z"/><path fill="#D4BCAF" d="M102 172c2.625-.187 2.625-.187 5 0l-3 4-4-1z"/><path fill="#D1A499" d="M156 140h3l-1 3h-2v3h-3z"/><path fill="#DCC5B9" d="M110 132c1.5 1 1.5 1 3 3 .273 2.718.135 5.257 0 8-2.12-3.534-2.532-6.944-3-11"/></svg>