<svg xmlns="http://www.w3.org/2000/svg" width="887" height="887" style="shape-rendering:geometricPrecision;text-rendering:geometricPrecision;image-rendering:optimizeQuality;fill-rule:evenodd;clip-rule:evenodd"><path fill="#111" d="M437.5-.5h12q235.253 9.967 367.5 203 58.493 91.729 69.5 200v83q-23.13 199.578-183 319.5-95.928 68.064-213 81.5h-93Q210.636 863.463 93 717.5 8.215 606.418-.5 466.5v-45Q17.556 193.915 206.5 68 312.75 2.332 437.5-.5" style="opacity:.997"/><path fill="#fbebd7" d="M440.5 91.5q2.835-.306 4.5 2 77.331 104.686 108 232 1.325 3.903 4.5 6.5 126.735 29.705 232 105 3.74 2.349 6 6-2.48 4.481-7 7-102.704 74.772-227 104a25.6 25.6 0 0 0-6.5 5.5q-29.646 128.764-107 235-3.5 4-7 0-58.383-79.247-91-173a6153 6153 0 0 1-19.5-64.5q-129.87-30.077-237-108-1.61-1.108-2-3a35.7 35.7 0 0 1 10-10q101.322-72.398 223-102 3.554-.804 6-3.5 31.226-130.921 110-239" style="opacity:1"/><path fill="#121212" d="M441.5 196.5q8.151 10.466 13.5 23a675 675 0 0 1 34 86 60.5 60.5 0 0 1 3.5 16 656 656 0 0 0-69-1.5q-28.06 7.589-23.5 36.5 4.75 14.75 19.5 19.5 111.119-1.7 214 40a753 753 0 0 1 56 26q1.816 1.34 0 2.5-57.71 31.24-121 49-3.582-.318-3-4a341.5 341.5 0 0 0 1.5-55q-5.664-15.164-21.5-18.5l-164-1q-2.75-.75-3.5-3.5a288 288 0 0 1 5-49q16.887-87.415 58.5-166m-128 199h7a449 449 0 0 0-1.5 56q3.52 13.815 16.5 19.5a7096 7096 0 0 0 167 2q3.646.443 5.5 3.5a130.6 130.6 0 0 1-1 29q-15.25 98.5-62.5 186a14.8 14.8 0 0 1-3.5-4q-30.402-57.293-46.5-120 34.491 1.397 69 .5 29.953-8.141 22.5-38.5-6.243-14.24-21.5-17.5-143.299 1.8-269-66.5 56.21-31.731 118-50" style="opacity:1"/></svg>