<svg width="64" height="64" viewBox="0 0 64 64" fill="none" xmlns="http://www.w3.org/2000/svg">
<g clip-path="url(#clip0_1241_2133)">
<circle cx="32" cy="32" r="32" fill="#E53E76"/>
<path d="M51.2834 35.2052C51.8122 34.6771 52.4928 33.9973 53.1686 33.3232C54.6759 31.8185 54.6767 29.3779 53.1694 27.8724L51.5726 26.2776C45.8557 31.9876 37.3007 33.1349 30.4424 29.7202C35.0777 30.5763 39.8816 29.9093 44.1383 27.6235C46.986 26.0941 47.5268 22.2366 45.2407 19.9532L35.8142 10.5381C33.7078 8.43424 30.293 8.43424 28.1874 10.5381L18.0269 20.6864C24.7183 17.847 32.7565 19.1634 38.1986 24.6365C29.896 20.6114 19.6109 22.0395 12.7174 28.924C12.1886 29.4521 11.5073 30.1327 10.8315 30.8076C9.32498 32.3131 9.32578 34.7521 10.8315 36.2568L12.4275 37.8508C18.1443 32.1408 26.6993 30.9935 33.5577 34.4082C28.9223 33.5521 24.1184 34.2191 19.8617 36.5049C17.0141 38.0343 16.4733 41.8918 18.7594 44.1752L28.1858 53.5903C30.2922 55.6942 33.707 55.6942 35.8126 53.5903L45.9731 43.442C39.2817 46.2814 31.2436 44.965 25.8007 39.4919C34.1032 43.517 44.3883 42.0889 51.2818 35.2044L51.2834 35.2052Z" fill="#F6F6EC"/>
</g>
<defs>
<clipPath id="clip0_1241_2133">
<rect width="64" height="64" fill="white"/>
</clipPath>
</defs>
</svg>
