<svg xmlns="http://www.w3.org/2000/svg" width="200" height="200" style="shape-rendering:geometricPrecision;text-rendering:geometricPrecision;image-rendering:optimizeQuality;fill-rule:evenodd;clip-rule:evenodd"><path fill="#f30019" d="M-.5-.5h200v200H-.5V-.5Z" style="opacity:1"/><path fill="#fffefe" d="M98.5 47.5c1.574.437 2.741 1.437 3.5 3a3643.032 3643.032 0 0 0 50.5 85.5c-35.333.667-70.667.667-106 0a3962.33 3962.33 0 0 0 52-88.5Z" style="opacity:1"/><path fill="#f30019" d="M98.5 79.5c.996-.086 1.829.248 2.5 1a2205.672 2205.672 0 0 0 22.5 38.5c-16 .667-32 .667-48 0a2375.676 2375.676 0 0 0 23-39.5Z" style="opacity:1"/></svg>
