<?xml version="1.0" encoding="UTF-8"?>
<!DOCTYPE svg PUBLIC "-//W3C//DTD SVG 1.1//EN" "http://www.w3.org/Graphics/SVG/1.1/DTD/svg11.dtd">
<svg xmlns="http://www.w3.org/2000/svg" version="1.1" width="200px" height="200px" style="shape-rendering:geometricPrecision; text-rendering:geometricPrecision; image-rendering:optimizeQuality; fill-rule:evenodd; clip-rule:evenodd" xmlns:xlink="http://www.w3.org/1999/xlink">
<g><path style="opacity:1" fill="#f30019" d="M -0.5,-0.5 C 66.1667,-0.5 132.833,-0.5 199.5,-0.5C 199.5,66.1667 199.5,132.833 199.5,199.5C 132.833,199.5 66.1667,199.5 -0.5,199.5C -0.5,132.833 -0.5,66.1667 -0.5,-0.5 Z"/></g>
<g><path style="opacity:1" fill="#fffefe" d="M 98.5,47.5 C 100.074,47.9371 101.241,48.9371 102,50.5C 118.455,79.2472 135.289,107.747 152.5,136C 117.167,136.667 81.8333,136.667 46.5,136C 64.2347,106.692 81.568,77.1916 98.5,47.5 Z"/></g>
<g><path style="opacity:1" fill="#f30019" d="M 98.5,79.5 C 99.4959,79.4142 100.329,79.7476 101,80.5C 108.374,93.4154 115.874,106.249 123.5,119C 107.5,119.667 91.5,119.667 75.5,119C 83.3045,105.888 90.9712,92.7211 98.5,79.5 Z"/></g>
</svg>
