<svg xmlns="http://www.w3.org/2000/svg" xml:space="preserve" viewBox="0 0 400 400"><path fill="#FF0030" d="M255 401H1V1h400v400H255M152.4 147.893c-.831.61-2.471 1.52-2.373 1.786 2.176 5.852-1.114 4.948-3.662 3.957-.318 3.767-.689 7.517-.907 11.276-.043.735.503 1.505.583 2.92-1.968 2.619-4.612 4.968-5.783 7.905-4.354 10.912-9.516 21.298-17.74 30.219l-3.068.51c.88 1.186 1.76 2.372 2.51 4.166-.598.813-1.196 1.627-2.466 2.625-1.659 3.015-6.956 3.878-5.307 9.526-.636.774-1.272 1.55-2.542 2.59L107.907 229l-4.922-1.64c1.67 3.578 2.88 6.169 3.787 9.365-4.715 7.795-9.524 15.535-14.116 23.402-3.452 5.914-6.63 11.99-9.924 17.996-2.971 5.42-5.979 10.82-8.88 16.277-1.314 2.47-2.41 5.056-4.203 7.85-.932 3.103-.94 3.478 2.473 3.557 9.6.22 19.21.117 28.815.118 71.982.004 143.963.003 215.944.002 3.666 0 7.335.083 10.996-.043 4.885-.167 5.8-1.642 3.476-5.819-6.025-10.824-12.082-21.633-18.29-32.352-4.146-7.158-8.498-14.2-12.894-21.207-4.278-6.817-7.152-14.37-11.72-21.076-4.623-6.787-8.028-14.394-12.514-21.285-8.093-12.434-13.307-26.435-21.89-38.643-6.354-9.036-11.483-18.94-17.036-28.529-6.497-11.214-12.84-22.517-19.292-33.758-4.307-7.506-8.596-15.025-13.068-22.433-2.76-4.57-4.94-4.49-7.759.106-2.087 3.402-3.98 6.922-5.972 10.383-5.13 8.913-10.542 17.68-15.222 26.823-1.308 2.555-1.636 6.807-.394 9.256 4.432 8.734 9.747 17.02 14.7 25.49 4.894 8.37 9.671 16.81 14.664 25.12 2.278 3.792 4.952 7.346 7.488 11.758 1.253 2.12 2.507 4.242 3.861 7.12.641 2.058.918 4.331 1.986 6.137 4.606 7.79 9.483 15.42 14.189 23.154a2927.718 2927.718 0 0 1 16.238 27.022c.692 1.166.98 2.57 1.575 4.19h-98.904c3.268-5.14 5.968-9.064 8.336-13.178 5.547-9.634 10.943-19.355 16.382-29.051 3.274-5.836 6.792-11.56 9.627-17.604 1.095-2.333 1.511-5.75.636-8.068-1.483-3.926-4.244-7.367-6.456-11.018-3.779-6.24-7.42-12.568-11.367-18.699-2.784-4.323-5.981-8.381-9.772-12.652-1.827.311-3.654.622-6.086.823z"/><path fill="#DC2B4E" d="M212.112 188.967c-2.494-3.662-5.168-7.216-7.446-11.008-4.993-8.31-9.77-16.75-14.664-25.12-4.953-8.47-10.268-16.756-14.7-25.49-1.242-2.449-.914-6.7.394-9.256 4.68-9.143 10.092-17.91 15.222-26.823 1.992-3.46 3.885-6.981 5.972-10.383 2.82-4.595 5-4.676 7.759-.106 4.472 7.408 8.76 14.927 13.068 22.433 6.452 11.24 12.795 22.544 19.292 33.758 5.553 9.588 10.682 19.493 17.036 28.53 8.583 12.207 13.797 26.208 21.89 38.642 4.486 6.891 7.89 14.498 12.513 21.285 4.569 6.707 7.443 14.259 11.72 21.076 4.397 7.008 8.749 14.05 12.894 21.207 6.209 10.72 12.266 21.528 18.291 32.352 2.325 4.177 1.409 5.652-3.476 5.82-3.661.125-7.33.042-10.996.042-71.981 0-143.962.002-215.944-.002-9.605 0-19.214.103-28.815-.118-3.414-.079-3.405-.454-1.96-3.684.513-.127.948-.133.948-.133s.435.002.346.366c2.072.867 4.233 1.806 6.394 1.808 82.158.071 164.316.057 246.473.054h7.081L200.952 78.262c-7.684 13.29-14.462 25.679-21.939 37.631-3.163 5.058-3.054 8.708.002 13.83 11.675 19.572 22.778 39.485 33.845 59.265-.25-.005-.748-.021-.748-.021z"/><path fill="#DB284B" d="M71.545 301.99h-.435s-.435.005-.649.002c.981-2.537 2.077-5.123 3.39-7.593 2.902-5.457 5.91-10.857 8.881-16.277 3.294-6.007 6.472-12.082 9.924-17.996 4.592-7.867 9.4-15.607 14.498-23.963 1.963-4.06 3.544-7.558 5.125-11.056.636-.775 1.272-1.55 2.19-2.853 2.088-3.413 3.893-6.297 5.697-9.182a38.06 38.06 0 0 0 2.054-3.029c.494-1.702.73-2.816.964-3.93 7.558-9.078 12.72-19.464 17.074-30.376 1.171-2.937 3.815-5.286 6.166-8.397 2.826-4.684 5.27-8.876 8.01-13.234 1.808-2.424 3.319-4.683 4.83-6.942 3.012 4.177 6.209 8.235 8.993 12.558 3.948 6.13 7.588 12.46 11.367 18.699 2.212 3.651 4.973 7.092 6.456 11.018.875 2.318.459 5.735-.636 8.068-2.835 6.043-6.353 11.768-9.627 17.604-5.439 9.696-10.835 19.417-16.382 29.051-2.368 4.114-5.068 8.038-8.336 13.178h98.904c-.595-1.62-.883-3.024-1.575-4.19a2927.718 2927.718 0 0 0-16.238-27.022c-4.706-7.733-9.583-15.364-14.19-23.154-1.067-1.806-1.344-4.079-1.818-6.713.31-.708.455-.84.819-.713 12.357 21.193 24.494 42.127 37.005 63.706H148.1c1.278-2.392 2.154-4.15 3.133-5.846 10.647-18.433 21.23-36.905 32.044-55.239 1.867-3.165 1.824-5.471-.046-8.592-7.008-11.7-13.706-23.587-20.545-35.39-.784-1.352-1.73-2.611-2.987-4.493-8.107 14.008-15.76 27.242-23.421 40.47-18.503 31.946-37.01 63.889-55.785 95.97-.688 1.008-1.109 1.88-1.598 3.096-2.496 4.483-4.923 8.622-7.349 12.76z"/><path fill="#F70431" d="M154.136 154.272c-2.443 4.192-4.886 8.384-7.615 12.738-.56-.593-1.106-1.363-1.063-2.098.218-3.76.589-7.509.907-11.276 2.548.991 5.838 1.895 3.662-3.957-.098-.265 1.542-1.176 2.873-1.397.746 2.256.991 4.123 1.236 5.99z"/><path fill="#F60533" d="M111.962 225.24c-1.264 3.365-2.845 6.864-4.657 10.62-1.44-2.332-2.65-4.923-4.32-8.501l4.922 1.64c1.214-1.178 2.476-2.401 4.055-3.759zM154.434 154.106c-.543-1.701-.788-3.568-1.231-5.769 1.628-.645 3.455-.956 5.671-1.22-1.121 2.306-2.632 4.565-4.44 6.99z"/><path fill="#F50532" d="M119.83 213.165c-1.468 2.792-3.273 5.676-5.333 8.767-1.959-4.797 3.338-5.66 5.333-8.767z"/><path fill="#DB284B" d="M212.133 189.342c-.021-.375.478-.36.987-.145 1.56 2.173 2.61 4.133 3.66 6.092l-.649.593c-1.47-1.923-2.724-4.044-3.998-6.54z"/><path fill="#F50532" d="M122.85 206.035c.1 1.192-.136 2.306-.566 3.704-1.075-.901-1.954-2.087-2.834-3.272 1.022-.17 2.045-.341 3.4-.432z"/><path fill="#FEFBFC" d="M217 195.548c-1.27-2.218-2.32-4.178-3.63-6.346-11.577-19.994-22.68-39.907-34.355-59.479-3.056-5.122-3.165-8.772-.002-13.83 7.477-11.952 14.255-24.34 21.939-37.631l130.452 225.955h-7.08c-82.158.003-164.316.017-246.474-.054-2.161-.002-4.322-.941-6.394-1.808 2.515-4.503 4.942-8.642 7.665-13.305a275.92 275.92 0 0 0 1.64-3.053c18.505-31.944 37.013-63.887 55.516-95.833 7.662-13.228 15.314-26.462 23.421-40.47 1.258 1.882 2.203 3.141 2.987 4.494 6.84 11.802 13.537 23.688 20.545 35.389 1.87 3.121 1.913 5.427.046 8.592-10.815 18.334-21.397 36.806-32.044 55.239-.98 1.697-1.855 3.454-3.133 5.846h105.907c-12.51-21.579-24.648-42.513-37.005-63.706z"/><path fill="#DC2B4E" d="M80.492 286.133c-.179.707-.627 1.55-1.301 2.574.192-.693.613-1.565 1.301-2.574z"/></svg>
