<svg xmlns="http://www.w3.org/2000/svg" width="512" height="512" fill="none"><path fill="#000" d="M0 0h512v512H0z"/><path fill="#fff" d="m195.603 110.956 142.163.002a8.393 8.393 0 0 1 8.393 8.393v147.847h45.703a8.394 8.394 0 0 1 8.388 8.092l.005.301v118.794a8.393 8.393 0 0 1-8.393 8.393H191.199a8.39 8.39 0 0 1-7.497-4.616l-78.065-53.695c-2.833-1.948-4.011-5.202-3.534-8.236l-.001-160.479a8.47 8.47 0 0 1 .564-4.608 8.42 8.42 0 0 1 4.514-4.688l79.769-54.974a8.4 8.4 0 0 1 8.654-.526m133.77 16.788-109.257-.001 57.311 39.419c3.538 2.433 4.495 6.903 2.869 10.438v156.069c1.625 3.532.671 7.999-2.862 10.434l-60.781 41.888 166.816.001V283.984h-45.703a8.393 8.393 0 0 1-8.388-8.092l-.005-.301zM199.592 297.115v80.247l58.279-40.163zm-16.786.722-57.614 39.707 57.614 39.627zm-63.917-107.369v131.035l63.917-44.051v-43.023zm144.619.116-63.916 44.05v42.107l63.916 43.961zm-63.916-56.586v80.249l58.279-40.164zm-16.786.723-57.613 39.707 57.613 39.625z"/></svg>