<svg xmlns="http://www.w3.org/2000/svg" width="512" height="512" fill="none" viewBox="0 0 512 512"><g clip-path="url(#a)"><circle cx="256" cy="256" r="256" fill="#F7931A"/><path fill="#69DFFA" d="M208.186 122.818h10.655v10.655h-10.655z"/><path fill="#69DFFA" d="M218.834 122.818h10.655v10.655h-10.655zm42.614 0h10.655v10.655h-10.655zm10.66 0h10.655v10.655h-10.655z"/><path fill="#69DFFA" d="M282.757 122.818h10.655v10.655h-10.655zm-74.571 10.656v31.962h21.302v-31.962zm53.262 0h10.655v31.962H250.8v-10.655h10.648zm10.66 0v42.617h21.303v-42.617zm-138.517 21.309h10.654v21.308h-10.654zm10.67-.002v10.655h21.303v-10.655zm21.308 0v21.31h31.952v-21.309zm31.957 0h10.655v10.655h-10.655zm31.965 0v10.655h21.303v-10.655zm63.924 0v10.655h21.303v-10.655zm31.965.001h-10.654v21.309h10.654zm-181.119 10.654v10.655h21.303v-10.655zm53.265 0h10.655v10.655h-10.655zm10.66 0v10.655h21.302v-10.655zm21.305 0v10.655h21.303v-10.655zm21.309 0v10.655h21.303v-10.655zm42.615 0v10.655h21.303v-10.655zm-159.824 10.655h10.654v10.655h-10.654zm10.67 0v10.655h21.303v-10.655zm21.308 0v10.655h10.649V197.4h21.303v-21.309zm31.957 0h10.655v21.31h-10.655zm10.66 0V197.4h21.302v-21.309zm21.305 0v10.655h21.303v-10.655zm21.309 0v10.655h21.303v-10.655zm21.308 0v10.655h21.303v-10.655zm21.307 0v10.655h10.648v10.655h10.655v-21.31zm31.965 0h-10.654V197.4h10.654zm.002 10.654V197.4h21.303v-10.655zm31.963 0H346.69V197.4h10.655zM176.218 197.4h21.303v53.272h-21.303zm21.308.001h10.655v21.308h-10.655zm10.66-.001v21.309h21.302V197.4zm106.532.001h-10.655v21.308h10.655zm.008-.001h10.654v31.962h-10.654zm10.656 0v21.309h21.303V197.4zm31.963 0H346.69v21.309h10.655zm-159.819 21.309h10.655v31.963h-10.655zm10.66 0v31.963h21.302v-31.963zm106.532 0h-10.655v21.309h-10.648v10.654h21.303zm10.664 0v21.309h21.303v-21.309zm31.963 0H346.69v21.309h10.655zm-42.619 10.653h10.654v21.31h-10.654zm-85.235 10.656v10.654h21.303v-10.654zm21.309 0v10.654h21.303v-10.654zm21.308 0v10.654h21.303v-10.654z"/><path fill="#0EBFD7" d="M176.037 250.673v21.308h21.303v-21.308zm21.309 0H208v21.309h-10.654zm10.659 0v21.308h21.303v-21.308zm21.306 0v10.654h21.302v-10.654zm21.308 0v10.654h21.303v-10.654zm21.309 0v10.654h21.303v-10.654zm21.306 0v10.654h21.303v-10.654zm31.965 0h-10.654v21.308h10.654zm.002 10.653h21.303v10.655h-21.303zm21.309 0h21.303v10.655H346.51zm21.308.001h10.655v10.655h-10.655zm-191.781 10.654v42.618h-10.648v31.963h31.951v-74.581zm31.963.001h-10.654v31.963H208zm.005-.001h21.303v31.963h-21.303zm106.54 0h10.654v21.309h-10.654zm10.656 0v31.963h21.303v-31.963zm21.309 0v31.963h21.303v-31.963zm31.963.001h-10.655v31.963h10.655zm-63.928 21.308h10.654v21.309h-10.654zm-117.199 10.655H208v21.308h-10.654zm10.659-.001v21.309h21.303v-21.309zm117.196 0h21.303v21.309h-21.303zm21.309 0h21.303v21.309H346.51zm21.308.001h10.655v21.308h-10.655zm-223.753 10.656H133.41v31.962h10.655zm.015-.002h21.303v10.654H144.08zm85.231 0h21.302v10.654h-21.302zm21.308 0h21.303v10.654h-21.303zm21.309 0h10.654v.002h10.649v31.961h-21.303zm21.306 0h21.303v10.654h-21.303zm21.311 0h10.654v31.963h-10.654zM144.08 325.253v21.309h21.303v-21.309zm53.266 0H208v21.31h-10.654zm10.659 0v21.309h21.303v-21.309zm21.306 0v21.309h21.302v-21.309zm21.308 0v21.309h21.303v-21.309zm42.615 0v21.31h21.303v-21.31zm31.967 0h21.303v21.309h-21.303zm-117.196 21.309h21.303v10.655h-21.303zm53.263 0h10.654v10.655h-10.654zm10.66 0v10.655h10.648v.002h-10.648v31.961h21.303v-42.618zm-63.924 10.657.001 31.961h21.303l-.001-31.961zm63.918-.002h-10.654v31.963h10.654z"/><path fill="#fff" fill-rule="evenodd" d="M197.399 90.856h-10.655v10.654h-10.648v21.308h-10.649v10.655h21.303V101.51h10.649zm10.66 0h-10.655v10.654h10.655zm.004 0h21.303v10.654h-21.303zm21.306 0h21.303v10.654h-21.303zm21.309 0h21.303v10.654h-21.303zm21.308 0h21.303v10.654h-21.303zm21.307 0h10.654v10.654h10.649v10.654h-10.655V101.51h-10.648zm21.311 21.308h10.654v21.309h-10.654zm-170.481 21.309h-10.646v.001h-10.649v10.654h-10.654v-10.654h10.648v-10.655h10.647v-.001h10.654zm10.664-10.655h-10.648v10.655h21.303v-10.655zm170.473 0h21.303v10.655H325.26zm-223.746 10.656h10.654v42.617h-10.654zm245.054 0h10.655v21.307h10.648v10.655h-10.654v-10.655h-10.649zm31.963 21.307h-10.654v10.655h10.654zm10.649 10.656h-10.655v10.654h10.655zm-287.666 10.655h10.654V197.4h-10.654zm287.666 0h-10.655v21.309h10.655zM101.514 197.4h10.654v10.655h-10.654zm21.314.001h-10.654v10.655h10.648v10.653h21.301v-10.654h-21.295zm255.697 0h10.655v21.308h-10.655zm-223.732 10.654h-10.654v10.654h10.654zm0 10.655h-10.654v31.962h10.654zm223.732 0h10.655v21.309h-10.655zm10.668 21.308h10.655v10.654h-10.655zm-234.4 10.655h-10.654v21.308h10.654zm245.039 0h10.655v21.308h-10.655zm-245.039 21.308h-10.654v21.309h10.654zm245.039.001h10.655v31.962h-10.655zm-266.363 10.654h-10.647v10.654h-10.648v10.655h10.654V293.29h21.295v-10.654zm-21.301 21.309h-10.654v10.654h10.654zm287.664 0h10.655v21.308h-10.655zm-287.664 10.656h-10.654v31.962h10.654zm287.664 10.653h10.655v10.654h-10.639v10.654h-10.655v-10.655h10.639zm-287.664 21.309h-10.654v21.309h10.654zm255.709 0h21.303v10.655h-21.303zm10.654 10.656h-10.654v10.654h10.654zm-266.357 10.653h31.949v10.655h-31.949zm42.613 0h-10.648v10.655h21.303v-10.655zm21.309 0h-10.649v10.655h10.649v10.653h10.654v-21.308zm149.162 0h-10.654v21.308h10.654zm.002 0h21.303v10.655H325.26zm21.308 0h21.303v10.655h-21.303zm-170.472 21.309h10.654v21.308h10.649v10.655h-10.655v-10.655h-10.648zm149.162 0h-10.654v10.654h10.654zm-10.662 10.654h-10.655v10.654h10.655zM208.059 410.49h-10.655v10.655h10.655zm.004 0h21.303v10.655h-21.303zm21.306 0h21.303v10.655h-21.303zm21.309 0h21.303v10.655h-21.303zm21.308 0h21.303v10.655h-21.303zm21.307 0h10.654v10.655h-10.654zm-31.967-202.435h-10.648v10.654h21.303v-10.654zm10.66 0h10.655v10.654h-10.655zm-10.66 74.581h-10.648v10.654h21.303v-10.654zm21.309 0h-10.649v10.654h21.303v-10.654z" clip-rule="evenodd"/><path fill="#2A3B92" fill-rule="evenodd" d="M208.008 101.509h21.303v21.31h-21.303zm-10.665.001h-10.655v31.964h-21.296v21.307h10.654l10.642.001h10.655zm10.66 0h-10.654v53.272h10.654zm21.31 0h21.303v53.271h-21.303zm21.309 0h21.303v21.309h-10.649v31.962h-10.654zm21.309-.001h21.302v10.656h21.307v42.617h-21.303V122.82h-.997v-.001h-20.309zm21.306.001h10.655v10.654h-10.655zm-170.47 31.964h21.301v21.308h-10.647v31.964h10.647v21.31l-10.655-.001h-10.646v-10.654h-10.649v-53.273h10.649zm21.316 0h21.303v21.307h-21.303zm170.465 0h10.654v21.307h-10.654zm21.304 0h-10.648v53.272h21.303v-53.272zm21.315 21.307h-10.654v31.965h10.648v53.272h-10.648v21.309h21.302v-95.891h-10.648zm10.654 10.655h10.655v74.582h10.648v106.545h-21.303v-21.309l10.649-.001v-63.926h-10.649zm-213.09 21.309h-10.648v21.31h10.648v85.234h-10.648v21.31h21.303V186.745zm21.315 0h-10.654v127.854h10.654zm159.806 53.273h-10.648v21.309h21.303v-21.309zm63.94 10.655h-10.654v85.235h10.654zM122.767 293.29h10.654l10.647.001V314.6h-10.647v31.963h10.647v21.308l-10.647.001-10.648.001h-10.655v-63.928l10.649-.001zm234.394 31.964h-10.648v42.618h21.302v-42.618zm-202.43 21.308h-10.648v21.31h21.303v-21.31zm21.309 0h-10.648v21.31h21.296v42.617h10.655v-63.927zm21.309.001h10.654v63.926h-10.654zm42.613-.001h-10.649v63.927h21.303v-63.927zm21.314 0h-10.654v63.927h21.303V389.18h-10.649zm31.961.001h21.303v53.273h-10.648v10.653h-10.655zm21.311-.001h10.654v21.309h-10.654zm21.304 0h-10.648v21.31h21.303v-21.31zm-127.845 42.619h21.303l.001 10.654v10.654h-21.303l-.001-10.653zm63.924 0h21.302v21.308h-21.302zm-42.614-202.436h21.302v53.273h-21.302zm21.308 10.655v-10.655h21.303v21.31h-21.303zm21.309-10.654v21.309h10.648v10.655h-10.648v21.308h21.303v-53.272zm21.306 0h10.655v53.273H293.24zm-42.615 53.272V218.71h21.303v21.308zm-21.308 31.963v-10.655h21.302v53.273h-21.302zm21.308-10.655v21.31h21.303v-21.31zm21.309 10.655v-10.654h21.303v21.309h-21.303zm21.306-10.654V314.6h21.303v-53.273zm-42.615 42.617v-10.655h21.303v21.31h-21.303zm31.963-10.654h-10.654v21.309h21.303v-21.308z" clip-rule="evenodd"/></g><defs><clipPath id="a"><path fill="#fff" d="M0 0h512v512H0z"/></clipPath></defs></svg>