<svg xmlns="http://www.w3.org/2000/svg" width="39" height="38" fill="none"><path fill="#0000C9" d="M18.3 2.7.2 34a1.3 1.3 0 0 0 1 2h4.2l12.9-22.8a1.3 1.3 0 0 1 2.2 0l12.8 22.7h4.2c1 0 1.6-1 1-1.9l-18-31.3a1.3 1.3 0 0 0-2.2 0"/><path fill="#0000C9" d="M18.2 23.3 10.9 36h17l-7.3-12.6a1.4 1.4 0 0 0-2.4 0ZM76.5 34l-2.2-6H64l-2.1 6h-4.6l9.1-24.9H72L81 34zM65 24.4h8l-3.3-9.1a22.6 22.6 0 0 1-.7-3.4l-.8 3.4-3.2 9Zm33.4-1.1L105 34h-5.2l-2.3-4.2L94 24h-5.5l.1 9.9h-4.4a1484 1484 0 0 0 0-24.9h11.5c5 0 8 2.7 8 7.2 0 3.6-2 6.1-5.3 7ZM95 12.7h-6.4l-.1 8h6c3 0 4.8-1.5 4.8-4 0-2.6-1.6-4-4.3-4m31.4 0h-8a1052 1052 0 0 0 0 21.3H114a583 583 0 0 0 0-21.4h-8l-.3-3.5h21l-.3 3.5Zm33-3.6V34H155l.1-11h-11.8v11H139a1484 1484 0 0 0 0-24.9h4.4l-.1 10.2h11.8V9h4.4ZM173 34.5c-5.7 0-8.9-4.1-8.9-9.6 0-5.4 3.2-9.5 9-9.5 5.7 0 8.8 4 8.8 9.5s-3.1 9.6-8.9 9.6m0-3.3c3 0 4.8-2.6 4.8-6.3s-1.7-6.3-4.8-6.3c-3 0-4.8 2.6-4.8 6.3s1.8 6.3 4.8 6.3m40.5 2.8h-4.2V23c0-2.9-.9-4.4-3.4-4.4-2.9 0-4.2 2.1-4.2 5V34h-4V23c0-2.9-1-4.4-3.5-4.4-3 0-4.2 3-4.2 6.8V34h-4.1V15.8h4.2l-.1 3.4v.4c1-2.7 3-4.2 5.7-4.2 3.5 0 5.1 1.7 5.7 4.1a6 6 0 0 1 6-4.1c4.7 0 6 3 6 6.9V34Zm12.8-18.6c5.5 0 8.6 3.6 8.3 9.3v.8h-13.2c.2 3.5 2 5.5 5 5.5 2.2 0 3.8-1 4.5-2.8l3.6.7c-1.1 3.4-4 5.6-8.1 5.6-5.5 0-9-3.6-9-9.5 0-6 3.4-9.6 9-9.6Zm-4.7 7.3h9c-.3-2.7-1.8-4.3-4.3-4.3s-4.2 1.6-4.7 4.3"/></svg>