<svg xmlns="http://www.w3.org/2000/svg" xml:space="preserve" id="Layer_1" x="0" y="0" style="enable-background:new 0 0 1080 1080" version="1.1" viewBox="69 69 942 942"><style>.st1{fill:#fff}</style><circle cx="540" cy="540" r="471" style="fill:#a0201b"/><path d="M758.1 438.3H488.9a49.4 49.4 0 1 1 0-98.8h269.3a49.4 49.4 0 0 1 49.4 49.4 49.5 49.5 0 0 1-49.5 49.4z" class="st1"/><path d="M631.2 599.9H488.9a49.4 49.4 0 1 1 0-98.8h142.3a49.5 49.5 0 0 1 0 98.8z" class="st1"/><path d="M529.1 761.5H280.2a49.4 49.4 0 1 1 0-98.8h248.9a49.4 49.4 0 1 1 0 98.8z" class="st1"/></svg>