<?xml version="1.0" encoding="utf-8"?>
<!-- Generator: Adobe Illustrator 28.3.0, SVG Export Plug-In . SVG Version: 6.00 Build 0)  -->
<svg version="1.1" id="Layer_1" xmlns="http://www.w3.org/2000/svg" xmlns:xlink="http://www.w3.org/1999/xlink" x="0px" y="0px"
	 viewBox="0 0 1080 1080" style="enable-background:new 0 0 1080 1080;" xml:space="preserve">
<style type="text/css">
	.st0{fill:#A0201B;}
	.st1{fill:#FFFFFF;}
</style>
<g>
	<circle class="st0" cx="540" cy="540" r="471"/>
	<g>
		<path class="st1" d="M758.1,438.3H488.9c-27.3,0-49.4-22.1-49.4-49.4v0c0-27.3,22.1-49.4,49.4-49.4h269.3
			c27.3,0,49.4,22.1,49.4,49.4v0C807.5,416.2,785.4,438.3,758.1,438.3z"/>
		<path class="st1" d="M631.2,599.9H488.9c-27.3,0-49.4-22.1-49.4-49.4v0c0-27.3,22.1-49.4,49.4-49.4h142.3
			c27.3,0,49.4,22.1,49.4,49.4v0C680.5,577.8,658.4,599.9,631.2,599.9z"/>
		<path class="st1" d="M529.1,761.5H280.2c-27.3,0-49.4-22.1-49.4-49.4v0c0-27.3,22.1-49.4,49.4-49.4h248.9
			c27.3,0,49.4,22.1,49.4,49.4v0C578.5,739.4,556.4,761.5,529.1,761.5z"/>
	</g>
</g>
</svg>
