<svg width="400" height="400" viewBox="0 0 400 400" fill="none" xmlns="http://www.w3.org/2000/svg">
<g clip-path="url(#clip0_1_71)">
<path d="M350.6 331.585C384.277 293.046 403.246 241.646 399.538 186.554C392.108 76.3539 296.754 -6.96924 186.554 0.461527C131.461 4.16922 83.0768 29.8615 49.3999 68.4154L350.6 331.6V331.585Z" fill="#34C53A"/>
<path d="M79.5077 94.6769C79.5077 94.6769 79.4923 94.6923 79.4769 94.7077L49.3846 68.4154C15.7231 106.954 -3.24613 158.338 0.461558 213.446C7.89233 323.646 103.246 406.969 213.446 399.539C268.554 395.831 316.923 370.123 350.6 331.585L79.5077 94.6769Z" fill="#0D89EB"/>
<path d="M365 188.831C358.862 97.7077 280 28.8 188.877 34.9385C143.308 38.0154 103.308 59.2615 75.4617 91.1231C47.6156 123 31.9233 165.492 35.0002 211.062C41.1387 302.185 120 371.092 211.123 364.954C256.693 361.877 296.693 340.631 324.539 308.769C352.385 276.892 368.077 234.4 365 188.831Z" fill="black"/>
<path d="M117.785 128.308V134.292V146.246V152.231H132.739V146.246H267.262V152.231H282.215V146.246V128.308H117.785Z" fill="white"/>
<path d="M143.2 187.292V191.092V209.031V212.708H158.139V209.031H243.354V212.708H258.292V187.292H243.354V191.092H158.139V187.292H143.2Z" fill="white"/>
<path d="M282.215 247.892H267.262V253.877H132.739V247.892H117.785V253.877V265.831V271.815H282.215V253.877V247.892Z" fill="white"/>
</g>
<defs>
<clipPath id="clip0_1_71">
<rect width="400" height="400" fill="white"/>
</clipPath>
</defs>
</svg>
