<svg xmlns="http://www.w3.org/2000/svg" width="128" height="128" fill="none" viewBox="0 0 128 128"><g clip-path="url(#a)"><mask id="b" width="128" height="128" x="0" y="0" maskUnits="userSpaceOnUse" style="mask-type:luminance"><path fill="#fff" d="M128 0H0v128h128z"/></mask><g mask="url(#b)"><path fill="#133348" d="M64 0C28.706 0 0 28.706 0 64s28.706 64 64 64 64-28.706 64-64S99.294 0 64 0m0 117.438c-29.473 0-53.437-23.965-53.437-53.438S34.527 10.563 64 10.563 117.438 34.527 117.438 64 93.473 117.438 64 117.438"/><path fill="#fff" d="M64 120c30.928 0 56-25.072 56-56S94.928 8 64 8 8 33.072 8 64s25.072 56 56 56"/><path fill="#133348" d="M64.01 114.428c27.85 0 50.427-22.577 50.427-50.427 0-27.851-22.577-50.428-50.427-50.428S13.582 36.15 13.582 64s22.577 50.427 50.428 50.427"/><path fill="#fff" d="M89.472 57.732c1.067-6.724-4.358-10.34-11.77-12.752l2.404-9.112-5.87-1.38-2.344 8.871c-1.542-.365-3.125-.705-4.705-1.045l2.36-8.929-5.87-1.383-2.405 9.109c-1.277-.276-2.534-.546-3.75-.834l.007-.03-8.1-1.908-1.562 5.922s4.359.943 4.267 1c2.378.562 2.806 2.047 2.735 3.228L52.13 58.868c.163.038.373.096.611.182l-.621-.144-3.84 14.54c-.291.68-1.029 1.703-2.693 1.315.061.08-4.267-1.004-4.267-1.004l-2.915 6.346 7.644 1.8c1.42.336 2.813.69 4.182 1.02l-2.43 9.213 5.868 1.38 2.405-9.111c1.603.407 3.16.786 4.681 1.145l-2.398 9.073 5.87 1.38 2.43-9.195c10.014 1.79 17.542 1.068 20.712-7.485 2.554-6.884-.127-10.86-5.395-13.448 3.839-.835 6.726-3.218 7.497-8.143M76.054 75.5c-1.811 6.888-14.092 3.163-18.073 2.23l3.227-12.207c3.981.94 16.744 2.797 14.846 9.977m1.817-17.866c-1.654 6.265-11.873 3.08-15.185 2.3l2.921-11.068c3.313.78 13.99 2.233 12.264 8.767"/></g></g><defs><clipPath id="a"><path fill="#fff" d="M0 0h128v128H0z"/></clipPath></defs></svg>