<svg xmlns="http://www.w3.org/2000/svg" fill="none" viewBox="0 0 100 100"><g clip-path="url(#a)"><path fill="url(#b)" d="M50 100A50 50 0 1 0 50 0a50 50 0 0 0 0 100Z"/><path fill="url(#c)" d="m31.5 24.4 9.4-6.2V68c9.3-.6 23.2-3.2 24.6-17 0 0 2.2 8.5-2.8 15.2-5.3 7.2-17.6 12-31.2 12v-54 .1Z"/><path fill="url(#d)" d="M50.4 29.8v8.3c3.9 1.1 12.7 4.5 15.1 13.2l.1.3v.2c.4 2 1.3 8.8-2.9 14.5-5.2 7.1-17.8 12-31.2 12L43 83.5s25-.4 32.5-22.3c.7-2 1.1-4 1.2-6-.7-15.4-13.4-24-26.4-25.4Z"/><path fill="url(#e)" d="M71.4 30.6c-5.3-7-17.2-12.4-30.5-12.4v50a56.2 56.2 0 0 0 9.5-1.5V29.8c13 1.4 25.8 10 26.4 25.6 0 0 3-13.7-5.4-24.8Z"/></g><defs><linearGradient id="b" x1="50" x2="50" y1="103.5" y2="0" gradientUnits="userSpaceOnUse"><stop stop-color="#000D30"/><stop offset=".7" stop-color="#152E84"/><stop offset="1" stop-color="#1D39BE"/></linearGradient><linearGradient id="c" x1="18.2" x2="71.4" y1="40.4" y2="63.5" gradientUnits="userSpaceOnUse"><stop offset="0" stop-color="#BBF0C6" stop-opacity=".9"/><stop offset=".1" stop-color="#BBF0C6" stop-opacity=".9"/><stop offset=".2" stop-color="#BBF0C6" stop-opacity=".8"/><stop offset=".4" stop-color="#BBF0C6" stop-opacity=".6"/><stop offset=".6" stop-color="#BBF0C6" stop-opacity=".4"/><stop offset=".6" stop-color="#BBF0C6" stop-opacity=".4"/><stop offset=".8" stop-color="#BBF0C6" stop-opacity=".3"/><stop offset="1" stop-color="#BBF0C6" stop-opacity=".2"/></linearGradient><linearGradient id="d" x1="67.8" x2="41.9" y1="39.4" y2="77.8" gradientUnits="userSpaceOnUse"><stop stop-color="#BBF0C6" stop-opacity=".2"/><stop offset=".1" stop-color="#BBF0C6" stop-opacity=".3"/><stop offset=".1" stop-color="#BBF0C6" stop-opacity=".5"/><stop offset=".2" stop-color="#BBF0C6" stop-opacity=".6"/><stop offset=".3" stop-color="#BBF0C6" stop-opacity=".7"/><stop offset=".5" stop-color="#BBF0C6" stop-opacity=".8"/><stop offset=".6" stop-color="#BBF0C6" stop-opacity=".9"/><stop offset=".7" stop-color="#BBF0C6" stop-opacity=".9"/><stop offset=".9" stop-color="#BBF0C6" stop-opacity=".9"/></linearGradient><linearGradient id="e" x1="27.3" x2="74.4" y1="49.1" y2="32" gradientUnits="userSpaceOnUse"><stop offset=".3" stop-color="#BBF0C6"/><stop offset=".4" stop-color="#BBF0C6"/><stop offset=".5" stop-color="#BBF0C6" stop-opacity=".9"/><stop offset=".6" stop-color="#BBF0C6" stop-opacity=".9"/><stop offset=".7" stop-color="#BBF0C6" stop-opacity=".8"/><stop offset=".8" stop-color="#BBF0C6" stop-opacity=".6"/><stop offset=".9" stop-color="#BBF0C6" stop-opacity=".4"/><stop offset=".9" stop-color="#BBF0C6" stop-opacity=".3"/></linearGradient><clipPath id="a"><path fill="#fff" d="M0 0h100v100H0z"/></clipPath></defs></svg>
