<svg width="21.20594mm" height="21.206461mm" viewBox="0 0 21.20594 21.206461" id="svg36306" xmlns="http://www.w3.org/2000/svg" xmlns:svg="http://www.w3.org/2000/svg"><defs id="defs36303"></defs><rect style="fill:#000;stroke-width:2.035" id="rect3846" width="18.392572" height="18.403" x="1.4546007" y="1.4564968"></rect><path id="path1252-1-1-0" style="color:#000;font-size:18.9487px;fill:#fff;stroke:none;stroke-width:.497369;stroke-opacity:1;-inkscape-stroke:none" d="m10.116726 5.26777c-1.363662.0-2.556605.48421-3.520715 1.41904C5.823124 7.43282 5.402296 8.5188 5.302032 9.92485H4.238015l-.315743 1.3565h1.379244c.09532 1.32401.482418 2.40866 1.178221 3.23805.798296.94549 2.042129 1.41954 3.636989 1.41954.961089.0 1.62415-.0949 2.016414-.41961.510243-.41949.77258-.70307 1.07797-1.21905.118611.30891.282618.42183.497129.61702l.0026.002c.584541.51925 1.23943.80254 1.933215.80254h1.345139v-1.82987h-1.12758c-.0775.0-.269423-.0808-.515731-.33693-.20261-.21083-.322821-.43067-.373105-.67386l-.329695-1.59989 2.346111-9e-5V9.92464h-2.032709l1.742286-4.4399h-2.165195l-.73174 2.0004C13.56715 6.83967 13.223149 6.39779 12.724383 6.01701c-.660802-.50449-1.544434-.74931-2.607077-.74931zm0 1.82986h53e-5c1.562615.0 1.849493 1.00757 2.145553 2.82713l-4.512333 9e-5C7.929895 8.13898 8.637949 7.09763 10.116726 7.09763zm-2.380218 4.18372 4.526301-4e-5c-.214743 1.50563-.941146 2.86291-2.145506 2.86291-1.674574 1e-5-2.193959-1.09072-2.380734-2.86287z"></path><path id="rect8317-1-4" style="fill:#fff;stroke-width:2.035" d="M0 0C0 7.06882.0 14.13764.0 21.20646H21.20594V0zM2.410106 2.41042H18.795967V18.79628H2.410106z"></path></svg>