<svg xmlns="http://www.w3.org/2000/svg" width="80.148" height="80.15" viewBox="0 0 21.206 21.206"><path d="M1.455 1.456h18.393v18.403H1.455z" style="fill:#000;stroke-width:2.035"/><path d="M10.117 5.268c-1.364 0-2.557.484-3.521 1.419-.773.746-1.194 1.832-1.294 3.238H4.238l-.316 1.356h1.38c.095 1.324.482 2.409 1.178 3.238.798.946 2.042 1.42 3.637 1.42.96 0 1.624-.095 2.016-.42.51-.42.773-.703 1.078-1.219.119.31.283.422.497.617l.003.002c.584.52 1.24.803 1.933.803h1.345v-1.83h-1.127c-.078 0-.27-.08-.516-.337a1.35 1.35 0 0 1-.373-.674l-.33-1.6h2.346V9.925h-2.033l1.743-4.44h-2.165l-.732 2a3.06 3.06 0 0 0-1.078-1.468c-.66-.504-1.544-.75-2.607-.75zm0 1.83c1.563 0 1.85 1.007 2.146 2.827H7.75c.18-1.786.888-2.827 2.367-2.827m-2.38 4.183h4.526c-.215 1.506-.941 2.863-2.146 2.863-1.674 0-2.194-1.09-2.38-2.863" style="color:#000;font-size:18.9487px;fill:#fff;stroke:none;stroke-width:.497369;stroke-opacity:1;-inkscape-stroke:none"/><path d="M0 0v21.206h21.206V0zm2.41 2.41h16.386v16.386H2.41z" style="fill:#fff;stroke-width:2.035"/></svg>