<svg xmlns="http://www.w3.org/2000/svg" fill="none" style="height:100%;padding-top:0;padding-bottom:0" viewBox="0.1 0 490 490"><path fill="url(#a)" fill-rule="evenodd" d="M245 490a245 245 0 1 0 0-490 245 245 0 0 0 0 490m1-23a222 222 0 1 0 0-444 222 222 0 0 0 0 444m-1-17a205 205 0 1 0 0-410 205 205 0 0 0 0 410m.5-25a180.5 180.5 0 1 0 0-361 180.5 180.5 0 0 0 0 361M235.3 98.7 366 325.4l14-24.3L263.3 98.7zM110 300.7l111.8-194 .3.3.2-.4 132.5 230h-28l-33.5-58.1a159.7 159.7 0 0 0-73.5-5.6l16.1-28a188.3 188.3 0 0 1 39.4 2.2L222 155l-98 170-14.1-24.3zm76-3 50.3-87.2-14-24.3-86.7 150.4h28l.3-.5c24-14.5 51.6-21.8 81.7-21.8 19.3 0 37.7 3.4 54.8 9.6l-18.8-32.5a187 187 0 0 0-36-3.5 186 186 0 0 0-59.6 9.8" clip-rule="evenodd"/><defs><linearGradient id="a" x1="462.5" x2="101" y1="490" y2="43.5" gradientUnits="userSpaceOnUse"><stop stop-color="#5A81FF"/><stop offset=".5" stop-color="#E40C5B"/><stop offset="1" stop-color="#FF4C3B"/></linearGradient></defs></svg>