<svg xmlns="http://www.w3.org/2000/svg" fill="none" viewBox="0 0 1320 1320"><g clip-path="url(#a)"><path fill="url(#b)" fill-rule="evenodd" d="m660 524.4-459.6 340A53.4 53.4 0 0 1 178 821V527.4a53.2 53.2 0 0 1 53-53.3h230V367.4a53.2 53.2 0 0 1 53-53.4h292c29.2 0 53 23.9 53 53.4V474h230c29.2 0 53 23.9 53 53.3V821c0 18-8.8 33.9-22.4 43.6zM648 855a22.7 22.7 0 0 1 28.1 0l139.7 110.3c17.2 13.6 7.7 41.7-14.1 41.7H522.3c-21.8 0-31.3-28-14-41.7L647.8 855Z" clip-rule="evenodd"/></g><defs><linearGradient id="b" x1="-240.8" x2="1277" y1="17.5" y2="191.7" gradientUnits="userSpaceOnUse"><stop offset=".1" stop-color="#B9E2C4" style="stop-color:#b9e2c4;stop-color:color(display-p3 .7245 .8851 .7696);stop-opacity:1"/><stop offset=".5" stop-color="#17C247" style="stop-color:#17c247;stop-color:color(display-p3 .0908 .7627 .2789);stop-opacity:1"/><stop offset=".6" stop-color="#27B7FF" style="stop-color:#27b7ff;stop-color:color(display-p3 .1529 .7176 1);stop-opacity:1"/><stop offset=".7" stop-color="#0095FF" style="stop-color:#0095ff;stop-color:color(display-p3 0 .5833 1);stop-opacity:1"/><stop offset="1" stop-color="#156F51" style="stop-color:#156f51;stop-color:color(display-p3 .0805 .4347 .3166);stop-opacity:1"/></linearGradient><clipPath id="a"><path fill="#fff" d="M0 0h1320v1320H0z" style="fill:#fff;fill-opacity:1"/></clipPath></defs></svg>