<svg xmlns="http://www.w3.org/2000/svg" xml:space="preserve" style="fill-rule:evenodd;clip-rule:evenodd;stroke-linecap:round" viewBox="0 0 32 32"><circle cx="16" cy="16" r="16" style="fill:#131313"/><path d="M21.706 22.658H10.294m8.737-9.411-2.476-3.612a.673.673 0 0 0-1.11 0l-2.476 3.612a.67.67 0 0 1-.952.162L9.82 11.796c-.498-.367-1.185.078-1.055.683l1.415 6.574c.066.31.34.531.657.531h10.326c.317 0 .59-.221.657-.531l1.415-6.574a.672.672 0 0 0-1.056-.683l-2.196 1.613a.67.67 0 0 1-.952-.162Z" style="fill:none;fill-rule:nonzero;stroke:#ffc100;stroke-width:1.5px"/><path d="M18.51 13.811c.503.522 1.259.731 2.127.052.248-.067.413.774.609 1.198l-2.608.266z" style="fill:#131313"/></svg>