<?xml version="1.0" encoding="UTF-8" standalone="no"?><!DOCTYPE svg PUBLIC "-//W3C//DTD SVG 1.1//EN" "http://www.w3.org/Graphics/SVG/1.1/DTD/svg11.dtd"><svg width="100%" height="100%" viewBox="0 0 32 32" version="1.1" xmlns="http://www.w3.org/2000/svg" xmlns:xlink="http://www.w3.org/1999/xlink" xml:space="preserve" xmlns:serif="http://www.serif.com/" style="fill-rule:evenodd;clip-rule:evenodd;stroke-linecap:round;"><g><circle cx="16" cy="16" r="16" style="fill:#131313;"/><path d="M21.706,22.658l-11.412,-0m8.737,-9.411l-2.476,-3.612c-0.267,-0.39 -0.843,-0.39 -1.11,-0l-2.476,3.612c-0.215,0.314 -0.646,0.387 -0.952,0.162l-2.197,-1.613c-0.498,-0.367 -1.185,0.078 -1.055,0.683l1.415,6.574c0.066,0.31 0.34,0.531 0.657,0.531l10.326,-0c0.317,-0 0.59,-0.221 0.657,-0.531l1.415,-6.574c0.13,-0.605 -0.557,-1.05 -1.056,-0.683l-2.196,1.613c-0.306,0.225 -0.737,0.152 -0.952,-0.162Z" style="fill:none;fill-rule:nonzero;stroke:#ffc100;stroke-width:1.5px;"/><path d="M18.51,13.811c0.503,0.522 1.259,0.731 2.127,0.052c0.248,-0.067 0.413,0.774 0.609,1.198l-2.608,0.266l-0.128,-1.516Z" style="fill:#131313;"/></g></svg>