<svg xmlns="http://www.w3.org/2000/svg" xml:space="preserve" id="Layer_1" x="0" y="0" style="enable-background:new 0 0 2500 2500" version="1.1" viewBox="0 0 2500 2500"><style>.st0{fill:#602f92}.st3{fill:#a98798;enable-background:new}.st3,.st7{opacity:.6}.st12,.st14{fill:#fff}.st14{opacity:.2;enable-background:new}.st15{opacity:.4}.st17{opacity:.3;fill:#fff;enable-background:new}</style><path d="M2387.9 441.9c-25.4-98-107.1-196-254.2-305.1C2015.7 49.9 1890.4 0 1790.5 0c-20 0-38.1 1.8-56.3 5.5-45.4 9.2-85.3 42.5-110.8 92.5-30.9 59.2-38.1 138.7-18.2 186.8 7.3 14.8 16.3 33.3 27.2 49.9-96.2 59.2-150.7 75.8-158 77.7 250.6 85.1 459.4 262.6 590.2 493.7l1.8-22.2c5.4-61 23.6-131.3 49-203.4 25.4 7.4 50.8 11.1 76.3 11.1 67.2 0 125.3-27.7 161.6-77.7 36.5-49.9 51-116.5 34.6-172z" class="st0"/><radialGradient id="SVGID_1_" cx="1036.401" cy="1693.469" r="49.02" gradientTransform="matrix(16.5564 0 0 -16.8596 -14855.065 28891.492)" gradientUnits="userSpaceOnUse"><stop offset="0" style="stop-color:#fbeaf3;stop-opacity:.6"/><stop offset=".681" style="stop-color:#a087bf"/><stop offset="1" style="stop-color:#17102e"/></radialGradient><path d="M2126.5 626.9c165.2 46.2 232.4-83.2 210.6-170.1-23.6-86.9-99.9-175.7-234.2-275.5-134.4-99.9-270.6-140.5-357.7-122-87.2 18.5-112.6 153.5-90.8 205.3 9.1 20.3 29.1 49.9 56.3 83.2-34.5 24-67.2 42.5-94.4 59.2 167.1 75.8 312.3 194.2 421.3 342.1 12.7-49.9 30.9-94.3 47.2-133.1 12.6 1.6 27.1 5.3 41.7 10.9z" style="fill:url(#SVGID_1_)"/><radialGradient id="SVGID_00000048501409467539029230000013863115645513551253_" cx="976.169" cy="1671.813" r="49.02" gradientTransform="matrix(40.5074 0 0 -41.2493 -37689.578 69653.75)" gradientUnits="userSpaceOnUse"><stop offset="0" style="stop-color:#fbeaf3;stop-opacity:.6"/><stop offset=".681" style="stop-color:#a087bf"/><stop offset="1" style="stop-color:#17102e"/></radialGradient><path d="M1180.4 2439c560.6 0 1015.1-462.8 1015.1-1033.7S1741 371.7 1180.4 371.7 165.3 834.5 165.3 1405.4 619.8 2439 1180.4 2439z" style="fill:url(#SVGID_00000048501409467539029230000013863115645513551253_)"/><path d="M2253.6 371.7c-138-147.9-254.2-186.8-394-218.2-109-25.9-79.9-88.8 52.7-75.8-63.6-22.2-123.5-27.7-167.1-18.5-87.2 18.5-112.6 153.5-90.8 205.3 9.1 20.3 29.1 49.9 56.3 83.2-49 33.3-90.8 57.3-125.3 75.8 16.3 7.4 36.3 16.6 59.9 29.6 61.7 33.3 128.9 88.8 128.9 88.8-101.7-88.8-79.9-129.4 59.9-229.3 43.6-31.4 123.5-27.7 197.9 11.1s161.6 136.8 161.6 136.8l-83.5 162.7c5.4 1.9 10.9 3.7 16.3 5.6 52.7 14.8 94.4 11.1 127.1-1.9 38.2-24.1 138.1-105.5.1-255.2z" class="st3"/><path d="M1857.7 242.2c36.3 14.8 83.5 40.7 141.6 79.5 69 46.2 128.9 98 167.1 138.7-63.6 85.1-105.3 201.6-130.7 282.9 12.7 18.5 27.2 37 40 55.5 12.7-46.2 34.5-114.7 63.6-183.1 7.3 1.9 16.3 1.9 25.4 1.9 21.8 0 47.2-3.7 67.2-20.3 14.5-11.1 30.9-31.4 29.1-68.4 0-35.1-27.2-79.5-83.5-133.1-40-38.8-94.4-81.4-148.9-120.2-156.2-105.4-265.1-135-314.1-85.1-32.7 33.3-29.1 74-18.2 103.6-58.1 38.8-107.1 66.6-139.8 85.1 21.8 7.4 41.8 16.6 63.6 25.9 57.8-31.6 141.4-85.2 237.6-162.9zm343.2 264.5c5.4 9.2 7.3 18.5 7.3 24 0 16.6-5.4 22.2-9.1 25.9-7.3 5.5-21.8 9.2-34.5 9.2 10.9-22.2 23.6-40.7 36.3-59.1zm-448.5-275.6c5.4-5.5 20-9.2 43.6-5.5-18.2 14.8-36.3 27.7-54.5 40.7-1.8-13 0-25.9 10.9-35.2z" class="st0"/><path d="M1180.4 310.6c-593.8 0-1075 490-1075 1094.7S586.6 2500 1180.4 2500s1075-490 1075-1094.7c0-604.6-483-1094.7-1075-1094.7zm0 2128.4c-561.1 0-1015.1-462.3-1015.1-1033.7 0-571.4 454-1033.7 1015.1-1033.7s1015.1 462.3 1015.1 1033.7c-.1 571.4-455.8 1033.7-1015.1 1033.7z" class="st0"/><linearGradient id="SVGID_00000024688497924610280600000018414514028729314984_" x1="1012.108" x2="1348.674" y1="75.261" y2="2114.309" gradientTransform="matrix(1 0 0 -1 0 2500.11)" gradientUnits="userSpaceOnUse"><stop offset="0" style="stop-color:#9ad9e5"/><stop offset=".62" style="stop-color:#fff;stop-opacity:0"/></linearGradient><path d="M1180.4 2439c560.6 0 1015.1-462.8 1015.1-1033.7S1741 371.7 1180.4 371.7 165.3 834.5 165.3 1405.4 619.8 2439 1180.4 2439z" style="opacity:.6;fill:url(#SVGID_00000024688497924610280600000018414514028729314984_);enable-background:new"/><path d="M1173.1 2313.2c-553.8-90.6-929.7-621.3-838.9-1185.3 40-249.6 163.4-462.3 337.8-615.8C417.7 662 228.9 922.7 178 1240.8c-89 564 286.9 1094.7 838.9 1185.3 308.7 51.8 606.5-46.2 826.2-238.5-194.2 114.5-430.3 164.5-670 125.6z" class="st3"/><linearGradient id="SVGID_00000110430593634611892400000009687005377310453638_" x1="1904.993" x2="1051.727" y1="1786.497" y2="1017.679" gradientTransform="matrix(1 0 0 -1 0 2500.11)" gradientUnits="userSpaceOnUse"><stop offset=".289" style="stop-color:#fff"/><stop offset=".78" style="stop-color:#fff;stop-opacity:0"/></linearGradient><path d="M1342 386.5c-256-42.5-504.8 16.6-708.2 147.9-3.6 3.7-7.3 7.4-7.3 7.4 78.1-48.1 192.5-90.6 192.5-90.6C524.8 625 434 822.9 434 822.9c114.4-225.6 450.3-384.6 713.6-395.7 263.3-11.1 435.8 68.4 646.4 240.4 210.6 173.8 337.8 528.8 325 809.9-10.9 281.1-156.2 508.5-156.2 508.5 99.9-131.3 159.8-227.4 197.9-325.4 7.3-29.6 14.5-59.2 18.2-90.6 91-562.2-283.1-1092.9-836.9-1183.5z" style="opacity:.6;fill:url(#SVGID_00000110430593634611892400000009687005377310453638_);enable-background:new"/><linearGradient id="SVGID_00000173855765166054213270000006009122785450557065_" x1="214.364" x2="2144.615" y1="613.097" y2="613.097" gradientTransform="matrix(1 0 0 -1 0 2500.11)" gradientUnits="userSpaceOnUse"><stop offset="0" style="stop-color:#384ea2"/><stop offset=".995" style="stop-color:#d54799"/></linearGradient><path d="M2144.6 1396.1c0 541.8-432.2 981.9-964.2 981.9s-966-440.1-966-981.9h1930.2z" style="fill:url(#SVGID_00000173855765166054213270000006009122785450557065_)"/><g class="st7"><linearGradient id="SVGID_00000108988677220751402100000012584116721026725252_" x1="2240.823" x2="1172.931" y1="1012.082" y2="21.022" gradientTransform="matrix(1 0 0 -1 0 2500.11)" gradientUnits="userSpaceOnUse"><stop offset=".289" style="stop-color:#fff"/><stop offset=".78" style="stop-color:#fff;stop-opacity:0"/></linearGradient><path d="M2068.3 1396.1c0 528.8-410.4 961.5-926.1 981.9h38.1c532 0 964.2-440.1 964.2-981.9h-76.2z" style="opacity:.6;fill:url(#SVGID_00000108988677220751402100000012584116721026725252_);enable-background:new"/></g><g style="opacity:.7"><linearGradient id="SVGID_00000145777165761329904110000017200055933317790117_" x1="214.364" x2="1245.767" y1="613.097" y2="613.097" gradientTransform="matrix(1 0 0 -1 0 2500.11)" gradientUnits="userSpaceOnUse"><stop offset="0" style="stop-color:#2b2f82"/><stop offset=".995" style="stop-color:#72439a"/></linearGradient><path d="M350.6 1396.1H214.4c0 541.8 432.2 981.9 964.2 981.9 23.6 0 45.4 0 67.2-1.9-499.4-37-895.2-462.3-895.2-980z" style="opacity:.7;fill:url(#SVGID_00000145777165761329904110000017200055933317790117_);enable-background:new"/></g><linearGradient id="SVGID_00000032649099069912955770000015870088104982849928_" x1="216.476" x2="2142.851" y1="1013.819" y2="1013.819" gradientTransform="matrix(1 0 0 -1 0 2500.11)" gradientUnits="userSpaceOnUse"><stop offset="0" style="stop-color:#2b2f82"/><stop offset=".995" style="stop-color:#a14298"/></linearGradient><path d="M2142.8 1405.3c0-112.8-192.5-177.5-448.5-199.7-185.2-14.8-372.2 3.7-586.5 70.3-185.2 55.5-352.3 46.2-473.9 31.4-270.6-31.4-419.5-35.1-419.5 98 0 192.3 385 432.7 962.4 349.5 292.4-42.5 443.1-129.4 615.6-188.6 187-62.9 350.4-61 350.4-160.9z" style="fill:url(#SVGID_00000032649099069912955770000015870088104982849928_)"/><path d="M1496.3 939.3c90.3 0 163.4-74.5 163.4-166.4s-73.2-166.4-163.4-166.4-163.4 74.5-163.4 166.4 73.2 166.4 163.4 166.4zM1763.3 1063.2c38.1 0 69-31.5 69-70.3s-30.9-70.3-69-70.3-69 31.5-69 70.3c0 38.9 30.9 70.3 69 70.3z" class="st12"/><g class="st7"><linearGradient id="SVGID_00000086685360016755455480000008623335496992819094_" x1="2113.777" x2="1971.651" y1="2063.746" y2="1836.945" gradientTransform="matrix(1 0 0 -1 0 2500.11)" gradientUnits="userSpaceOnUse"><stop offset=".289" style="stop-color:#fff"/><stop offset=".78" style="stop-color:#fff;stop-opacity:0"/></linearGradient><path d="M2010.2 639.8h-3.6c-10.9-1.9-18.2-12.9-16.3-25.9 16.3-85.1 85.3-166.4 89-170.1 7.3-9.2 21.8-9.2 29.1-1.9 9.1 7.4 9.1 22.2 1.8 29.6-1.8 1.8-65.4 77.7-79.9 151.6-1.9 11.1-11 16.7-20.1 16.7z" style="opacity:.6;fill:url(#SVGID_00000086685360016755455480000008623335496992819094_);enable-background:new"/></g><path d="M1113.3 2176.4c28.1 0 50.8-23.2 50.8-51.8 0-28.6-22.8-51.8-50.8-51.8-28.1 0-50.8 23.2-50.8 51.8 0 28.6 22.7 51.8 50.8 51.8z" class="st14"/><g class="st15"><linearGradient id="SVGID_00000120520711239065630940000002186392509236582834_" x1="1061.913" x2="1138.739" y1="375.025" y2="375.025" gradientTransform="matrix(1 0 0 -1 0 2500.11)" gradientUnits="userSpaceOnUse"><stop offset=".289" style="stop-color:#fff"/><stop offset=".78" style="stop-color:#fff;stop-opacity:0"/></linearGradient><path d="M1084.2 2158c-20-20.3-20-53.6 0-74 3.6-3.7 7.3-5.5 10.9-9.2-7.3 1.9-12.7 5.5-18.2 11.1-20 20.3-20 53.6 0 74 16.3 16.6 41.8 20.3 61.7 9.2-18.1 7.4-39.9 3.7-54.4-11.1z" style="opacity:.6;fill:url(#SVGID_00000120520711239065630940000002186392509236582834_);enable-background:new"/></g><path d="M1131.4 2109.8c6 0 10.9-5 10.9-11.1s-4.9-11.1-10.9-11.1-10.9 5-10.9 11.1c0 6.2 4.8 11.1 10.9 11.1z" class="st17"/><path d="M1378.4 2150.5c28.1 0 50.8-23.2 50.8-51.8 0-28.6-22.8-51.8-50.8-51.8-28.1 0-50.8 23.2-50.8 51.8 0 28.6 22.8 51.8 50.8 51.8z" class="st14"/><g class="st15"><linearGradient id="SVGID_00000031203203710109173300000008480740637077649066_" x1="1326.791" x2="1403.617" y1="400.92" y2="400.92" gradientTransform="matrix(1 0 0 -1 0 2500.11)" gradientUnits="userSpaceOnUse"><stop offset=".289" style="stop-color:#fff"/><stop offset=".78" style="stop-color:#fff;stop-opacity:0"/></linearGradient><path d="M1349.3 2132.1c-20-20.3-20-53.6 0-74 3.6-3.7 7.3-5.5 10.9-9.2-7.3 1.9-12.7 5.5-18.2 11.1-20 20.3-20 53.6 0 74 16.3 16.6 41.8 20.3 61.7 9.2-18.1 7.4-39.9 3.7-54.4-11.1z" style="opacity:.6;fill:url(#SVGID_00000031203203710109173300000008480740637077649066_);enable-background:new"/></g><path d="M1396.5 2084c6 0 10.9-5 10.9-11.1s-4.9-11.1-10.9-11.1-10.9 5-10.9 11.1 4.9 11.1 10.9 11.1z" class="st17"/><path d="M1247.6 2270.7c21.1 0 38.1-17.4 38.1-38.8s-17.1-38.8-38.1-38.8c-21.1 0-38.1 17.4-38.1 38.8s17 38.8 38.1 38.8z" class="st14"/><g class="st15"><linearGradient id="SVGID_00000110453750317046297840000005051228349683967895_" x1="1209.211" x2="1266.889" y1="267.141" y2="267.141" gradientTransform="matrix(1 0 0 -1 0 2500.11)" gradientUnits="userSpaceOnUse"><stop offset=".289" style="stop-color:#fff"/><stop offset=".78" style="stop-color:#fff;stop-opacity:0"/></linearGradient><path d="M1225.8 2256c-14.5-14.8-14.5-40.7 0-55.5 1.8-1.9 5.4-3.7 7.3-5.6-5.4 1.9-9.1 5.6-12.7 9.2-14.5 14.8-14.5 40.7 0 55.5 12.7 12.9 30.9 14.8 47.2 5.6-14.6 5.6-30.9 1.9-41.8-9.2z" style="opacity:.6;fill:url(#SVGID_00000110453750317046297840000005051228349683967895_);enable-background:new"/></g><path d="M1260.3 2218.9c4 0 7.3-3.3 7.3-7.4 0-4.1-3.3-7.4-7.3-7.4s-7.3 3.3-7.3 7.4c0 4.1 3.3 7.4 7.3 7.4z" class="st17"/><path d="M1481.8 2243c21.1 0 38.1-17.4 38.1-38.8s-17.1-38.8-38.1-38.8-38.1 17.4-38.1 38.8 17.1 38.8 38.1 38.8z" class="st14"/><g class="st15"><linearGradient id="SVGID_00000180333987652615850970000003356259407690098071_" x1="1442.691" x2="1500.363" y1="294.876" y2="294.876" gradientTransform="matrix(1 0 0 -1 0 2500.11)" gradientUnits="userSpaceOnUse"><stop offset=".289" style="stop-color:#fff"/><stop offset=".78" style="stop-color:#fff;stop-opacity:0"/></linearGradient><path d="M1460.1 2228.2c-14.5-14.8-14.5-40.7 0-55.5 1.8-1.9 5.4-3.7 7.3-5.5-5.4 1.9-9.1 5.5-12.7 9.2-14.5 14.8-14.5 40.7 0 55.5 12.7 12.9 30.9 14.8 47.2 5.5-14.6 5.6-30.9 1.9-41.8-9.2z" style="opacity:.6;fill:url(#SVGID_00000180333987652615850970000003356259407690098071_);enable-background:new"/></g><path d="M1494.5 2191.2c4 0 7.3-3.3 7.3-7.4 0-4.1-3.3-7.4-7.3-7.4s-7.3 3.3-7.3 7.4c.1 4.1 3.3 7.4 7.3 7.4z" class="st17"/><path d="M897.1 2157.9c46.1 0 83.5-38.1 83.5-85.1 0-47-37.4-85.1-83.5-85.1s-83.5 38.1-83.5 85.1c0 47 37.4 85.1 83.5 85.1z" class="st14"/><g class="st15"><linearGradient id="SVGID_00000074407529416263320170000015271204216423616654_" x1="813.715" x2="939.174" y1="424.835" y2="424.835" gradientTransform="matrix(1 0 0 -1 0 2500.11)" gradientUnits="userSpaceOnUse"><stop offset=".289" style="stop-color:#fff"/><stop offset=".78" style="stop-color:#fff;stop-opacity:0"/></linearGradient><path d="M850 2126.5c-32.7-33.3-32.7-86.9 0-120.2 5.4-5.5 10.9-9.2 18.2-12.9-10.9 3.7-20 11.1-29.1 18.5-32.7 33.3-32.7 86.9 0 120.2 27.2 27.7 69 33.3 101.7 12.9-30.9 12.9-67.2 7.4-90.8-18.5z" style="opacity:.6;fill:url(#SVGID_00000074407529416263320170000015271204216423616654_);enable-background:new"/></g><path d="M926.2 2047c10 0 18.2-8.3 18.2-18.5s-8.1-18.5-18.2-18.5c-10 0-18.2 8.3-18.2 18.5s8.1 18.5 18.2 18.5z" class="st17"/><path d="M1643.5 1949c46.1 0 83.5-38.1 83.5-85.1 0-47-37.4-85.1-83.5-85.1s-83.5 38.1-83.5 85.1c0 47 37.3 85.1 83.5 85.1z" class="st14"/><g class="st15"><linearGradient id="SVGID_00000031194797927281050290000012460565261675033278_" x1="1558.856" x2="1684.321" y1="633.791" y2="633.791" gradientTransform="matrix(1 0 0 -1 0 2500.11)" gradientUnits="userSpaceOnUse"><stop offset=".289" style="stop-color:#fff"/><stop offset=".78" style="stop-color:#fff;stop-opacity:0"/></linearGradient><path d="M1594.4 1917.5c-32.7-33.3-32.7-86.9 0-120.2 5.4-5.6 10.9-9.2 18.2-12.9-10.9 3.7-20 11.1-29.1 18.5-32.7 33.3-32.7 86.9 0 120.2 27.2 27.7 69 33.3 101.7 12.9-30.9 13-65.4 7.4-90.8-18.5z" style="opacity:.6;fill:url(#SVGID_00000031194797927281050290000012460565261675033278_);enable-background:new"/></g><path d="M1672.5 1838c10 0 18.2-8.3 18.2-18.5s-8.1-18.5-18.2-18.5c-10 0-18.2 8.3-18.2 18.5s8.1 18.5 18.2 18.5z" class="st17"/></svg>