<svg xmlns="http://www.w3.org/2000/svg" width="1024" height="1024" fill="none" viewBox="0 0 1024 1024"><rect width="1024" height="1024" fill="url(#a)" rx="512"/><path fill="#001e1e" d="M511.5 548.71c33.02-20.01 80.1-47.7 117.13-47.7 59.25 0 108.8 41.94 108.8 121.64 0 127.13-151.15 244.34-364.72 193.29-.7-.17-1.4.37-1.4 1.09v68.72c0 .47.29.88.72 1.05a397 397 0 0 0 92.8 22.43c250.23 29.41 466.43-179.3 445.8-430.42-5.9-72-30.27-138.21-69.54-194.22-.3-.43-.82-.7-1.55-.31L511.7 473.78c-37.26 21.25-80.12 47.84-117.07 47.84-59.25 0-108.8-41.95-108.8-121.64 0-127.15 151.16-244.35 364.73-193.28.7.17 1.38-.35 1.38-1.09v-67.67c0-.46-.28-.89-.72-1.04A399 399 0 0 0 512 112C291.1 112 112 291.08 112 512c0 83.8 25.79 161.57 69.84 225.84.34.48.99.63 1.5.34z"/><defs><linearGradient id="a" x1="1024" x2="770.89" y1="0" y2="1188.21" gradientUnits="userSpaceOnUse"><stop stop-color="#e8fbf7"/><stop offset="1" stop-color="#9abbb4"/></linearGradient></defs></svg>
