<svg xmlns="http://www.w3.org/2000/svg" width="606" height="773" fill="none"><path fill="#1969FF" d="M269.733 8.395c18.666-9.86 47.068-9.86 65.734 0l190.47 100.615c11.242 5.938 17.416 14.787 18.522 23.922h.182V638.67c-.248 9.965-6.48 19.863-18.704 26.32l-190.47 100.615c-18.666 9.86-47.068 9.86-65.734 0L79.263 664.99c-12.172-6.43-18.014-16.397-18.303-26.32a35 35 0 0 1-.001-2.548V136.337a26 26 0 0 1 0-2.1v-1.305h.086c.846-9.236 6.74-17.859 18.218-23.922zM514.66 415.08l-179.193 94.658c-18.666 9.861-47.068 9.861-65.734 0L90.939 415.29v222.385l178.794 93.946c10.566 5.646 21.552 11.147 32.25 11.387l.617.008c10.677.035 21.043-5.387 31.554-10.52l180.506-95.631zM29.98 627.675c0 19.377 2.252 32.113 6.723 41.085 3.705 7.437 9.265 13.12 19.417 20.036l.58.392c2.228 1.503 4.682 3.077 7.67 4.926l3.523 2.158 10.819 6.53-15.517 25.656-12.109-7.314-2.035-1.25c-3.501-2.162-6.403-4.018-9.11-5.844C11.007 694.541.216 673.271.003 629.023L0 627.675zm257.63-348.148a27 27 0 0 0-3.875 1.654L93.265 381.796q-.3.158-.572.313l-.161.093.299.172.434.235 190.47 100.615a27 27 0 0 0 3.875 1.654zm29.98 0v205.351a27 27 0 0 0 3.876-1.654l190.469-100.615q.3-.158.572-.313l.162-.094-.299-.171-.435-.235-190.469-100.615a27 27 0 0 0-3.876-1.654m197.07-110.72-170.865 90.259 170.865 90.259zm-423.721.211v180.096l170.466-90.048zm230.527-134.11c-9.905-5.232-27.826-5.232-37.731 0L93.265 135.524q-.3.159-.572.314l-.161.093.299.171.434.236 190.47 100.614c9.905 5.233 27.826 5.233 37.731 0l190.469-100.614q.3-.159.572-.313l.162-.094-.299-.171-.435-.236zm221.339 11.034 12.109 7.314 2.035 1.25c3.501 2.161 6.403 4.018 9.11 5.843 28.934 19.51 39.725 40.78 39.938 85.028l.003 1.348h-29.98c0-19.378-2.252-32.113-6.723-41.086-3.705-7.436-9.265-13.12-19.417-20.035l-.58-.393c-2.228-1.502-4.682-3.076-7.67-4.925l-3.523-2.158-10.819-6.53z"/></svg>