<svg width="441" height="369" viewBox="0 0 441 369" fill="none" xmlns="http://www.w3.org/2000/svg">
<path d="M303.514 0.187012C312.222 23.7201 330.777 42.2745 354.31 50.9826C330.777 59.6906 312.222 78.245 303.514 101.778C294.805 78.245 276.251 59.6906 252.717 50.9826C276.251 42.2745 294.805 23.7201 303.514 0.187012Z" fill="#3F3F3F"/>
<path fill-rule="evenodd" clip-rule="evenodd" d="M228.258 64.1417L135.82 188.298C106.219 228.057 106.411 281.383 134.276 320.611C104.574 322.84 83.0407 317.142 76.4029 302.908C71.3327 292.035 75.6643 277.706 87.2627 262.043C86.7032 250.378 87.6731 238.643 90.1912 227.128C26.4569 271.438 -9.6657 317.433 3.19738 345.018C16.9113 374.427 82.4481 374.635 164.501 349.829C209.102 379.339 270.012 374.629 309.407 335.699C316.979 328.216 323.292 319.914 328.325 311.064L254.172 315.256C286.834 300.026 316.709 283.208 342.528 265.995C411.683 219.892 451.735 170.96 438.293 142.134C424.843 113.29 361.541 112.536 281.7 135.921L228.258 64.1417ZM292.45 150.359L320.696 188.298C329.953 200.731 336.296 214.491 339.791 228.731C365.979 204.654 378.712 181.324 371.288 165.403C363.174 148.002 332.796 143.357 292.45 150.359Z" fill="#3F3F3F"/>
</svg>
