<svg xmlns="http://www.w3.org/2000/svg" xml:space="preserve" id="Layer_1" x="0" y="0" version="1.1" viewBox="0 0 321.3 368.1"><style>.st1{fill:#ff9211}</style><path d="M160.6 38.2 34.4 111.1V257l126.2 72.9L286.8 257V111.1zm5.3-36.8c-3.3-1.9-7.3-1.9-10.6 0L5.3 88.1C2 90 0 93.5 0 97.3v173.4c0 3.8 2 7.3 5.3 9.2l150 86.7c3.3 1.9 7.3 1.9 10.6 0l150-86.7c3.3-1.9 5.3-5.4 5.3-9.2V97.3c0-3.8-2-7.3-5.3-9.2z" style="fill-rule:evenodd;clip-rule:evenodd;fill:#ff9211"/><path d="m160.6 91-80.5 46.5v93l80 46.2c.3.2.5.5.5.9v15.9c0 .8-.9 1.3-1.6.9L68.2 242c-2.5-1.4-4-4-4-6.9V132.9c0-2.8 1.5-5.5 4-6.9l88.4-51.1c2.5-1.4 5.5-1.4 7.9 0l91.2 52.5c.7.4.7 1.4 0 1.8-5.4 3.2-8.1 4.6-14.2 8-.3.2-.7.2-1 0z" class="st1"/><path d="M173.9 186c0-.4.2-.8.6-.9l80-42.6c.7-.4 1.6.1 1.6.9v103.7c0 .4-.2.7-.5.9l-80 46.5c-.7.4-1.6-.1-1.6-.9V186z" class="st1"/></svg>