<svg xmlns="http://www.w3.org/2000/svg" width="1630" height="1630" fill="none" viewBox="0 0 1630 1630"><g clip-path="url(#a)"><path fill="url(#b)" d="M814.98 1629.96c450.1 0 814.98-364.88 814.98-814.98S1265.08 0 814.98 0 0 364.879 0 814.98s364.879 814.98 814.98 814.98"/><path stroke="#000" stroke-linecap="round" stroke-miterlimit="10" stroke-width="20" d="M763.23 1523.43c-367.88-26.75-658.04-333.66-658.04-708.371s290.16-681.62 658.04-708.37" opacity=".5"/><path stroke="#000" stroke-linecap="round" stroke-miterlimit="10" stroke-width="20" d="M763.23 67.01C372.98 93.84 64.72 418.89 64.72 815.96s308.26 722.12 698.51 748.95m103.49-40.48c367.88-26.75 658.04-333.66 658.04-708.371s-290.16-681.62-658.04-708.37" opacity=".5"/><path stroke="#000" stroke-linecap="round" stroke-miterlimit="10" stroke-width="20" d="M866.72 68.01c390.26 26.83 698.51 351.88 698.51 748.95s-308.26 722.12-698.51 748.95" opacity=".5"/><g filter="url(#c)"><path fill="url(#d)" d="M1301.74 338.258c-65.3-65.304-229.9-13.694-414.243 116.402 29.184-1.884 52.4-1.884 70.169-1.095 98.794-46.184 181.924-53.889 223.824-11.987 79.48 79.482-19.49 307.333-221.082 508.91-201.586 201.582-429.427 300.562-508.91 221.082-56.662-56.66-22.623-188.711 74.609-332.886-7.864-8.545-13.162-15.49-16.733-21.035-161.629 207.391-232.301 400.911-160.12 473.091 91.707 91.71 379.278-47.16 642.302-310.18 263.024-263.024 401.894-550.595 310.184-642.302"/></g><path fill="#000" d="M880.983 656.068c-46.567 32.393-96.646 43.495-150.135 33.236-53.58-10.189-96.144-38.417-127.779-84.603L556 535.968 623.52 489l47.075 68.732c18.725 27.347 43.718 43.919 75.073 49.66 31.262 5.807 60.706-.897 88.155-19.991l119.12-83.375c37.855-26.499 89.877-16.97 116.057 21.264zm91.881 226.692c-32.241-46.626-43.351-96.719-33.262-150.186 10.025-53.564 37.972-96.077 83.778-127.624l68.15-46.95 46.75 67.602-68.15 46.95c-27.12 18.674-43.53 43.639-49.18 74.982-5.71 31.251 1 60.707 20.01 88.185l83.16 119.522c26.28 37.763 16.83 89.649-21.08 115.759zM744.75 973.932c46.754-32.393 97.023-43.495 150.72-33.236 53.795 10.189 96.52 38.417 128.28 84.604l47.25 68.73-67.78 46.97-47.256-68.73c-18.804-27.35-43.895-43.92-75.371-49.66-31.379-5.81-60.943.89-88.499 19.99l-119.58 83.37c-38.007 26.5-90.226 16.97-116.514-21.26zm-87.432-220.327c32.082 46.717 43.137 96.912 33.097 150.482-9.975 53.668-37.784 96.263-83.362 127.873L539.237 1079l-46.517-67.73 67.82-47.044c26.982-18.715 43.31-43.724 48.927-75.127 5.681-31.312-.995-60.825-19.903-88.361l-82.76-119.749C480.657 643.152 490.061 591.17 527.786 565z"/></g><defs><linearGradient id="b" x1="238.7" x2="1391.26" y1="1391.26" y2="238.7" gradientUnits="userSpaceOnUse"><stop stop-color="#A452FC"/><stop offset=".35" stop-color="#FBC7FF"/><stop offset=".52" stop-color="#FDE3FF"/><stop offset="1" stop-color="#E0BEFF"/></linearGradient><linearGradient id="d" x1="1301" x2="343.997" y1="324.502" y2="1277.5" gradientUnits="userSpaceOnUse"><stop stop-opacity="0"/><stop offset=".15"/><stop offset=".75"/><stop offset="1" stop-opacity="0"/></linearGradient><clipPath id="a"><path fill="#fff" d="M0 0h1629.96v1629.96H0z"/></clipPath><filter id="c" width="1069" height="1069" x="291" y="280" color-interpolation-filters="sRGB" filterUnits="userSpaceOnUse"><feFlood flood-opacity="0" result="BackgroundImageFix"/><feColorMatrix in="SourceAlpha" result="hardAlpha" values="0 0 0 0 0 0 0 0 0 0 0 0 0 0 0 0 0 0 127 0"/><feOffset/><feGaussianBlur stdDeviation="15"/><feColorMatrix values="0 0 0 0 0 0 0 0 0 0 0 0 0 0 0 0 0 0 0.7 0"/><feBlend in2="BackgroundImageFix" result="effect1_dropShadow_17375_434"/><feBlend in="SourceGraphic" in2="effect1_dropShadow_17375_434" result="shape"/></filter></defs></svg>