<svg width="580" height="852" viewBox="0 0 580 852" fill="none" xmlns="http://www.w3.org/2000/svg">
<path d="M481.867 644.96H502.659V696.452C502.659 698.7 503.403 700.048 504.895 700.5C506.383 700.8 508.175 699.9 510.259 697.8C513.391 694.504 516.819 691.956 520.543 690.156C524.419 688.208 528.743 687.232 533.511 687.232H543.347C549.759 687.232 555.643 689.108 561.011 692.856C566.375 696.604 570.623 701.772 573.755 708.368C576.883 714.816 578.451 722.084 578.451 730.18V802.356H557.655V732.88C557.655 727.78 556.839 723.208 555.199 719.164C553.559 714.964 551.175 711.744 548.043 709.492C544.915 707.096 541.335 705.896 537.311 705.896H528.815C523.747 705.896 519.203 707.544 515.179 710.844C511.303 714.14 508.247 718.564 506.011 724.108C503.775 729.504 502.659 735.352 502.659 741.648V802.356H481.867V644.96Z" fill="white"/>
<path d="M418.296 687.232C427.536 687.232 435.732 689.78 442.888 694.88C450.192 699.976 455.856 707.02 459.88 716.016C464.052 724.86 466.14 734.752 466.14 745.696C466.14 756.488 464.128 766.38 460.104 775.376C456.08 784.22 450.416 791.264 443.112 796.512C435.956 801.608 427.76 804.156 418.52 804.156H412.484C408.608 804.156 404.656 803.332 400.632 801.684C396.608 799.884 392.957 797.56 389.678 794.712C387.591 793.064 385.802 792.54 384.312 793.14C382.971 793.736 382.3 795.164 382.3 797.412V848.228H361.508V689.032H382.3V694.204C382.3 696.452 383.045 697.876 384.535 698.476C386.026 699.076 387.74 698.552 389.678 696.9C392.957 693.904 396.534 691.58 400.408 689.932C404.432 688.132 408.456 687.232 412.484 687.232H418.296ZM408.68 705.448C403.464 705.448 398.695 707.172 394.373 710.616C390.199 713.916 386.846 718.712 384.312 725.008C381.778 731.156 380.511 738.048 380.511 745.696C380.511 753.34 381.778 760.308 384.312 766.604C386.846 772.752 390.199 777.548 394.373 780.996C398.695 784.296 403.464 785.944 408.68 785.944H416.732C421.648 785.944 426.196 784.296 430.368 780.996C434.692 777.548 438.12 772.752 440.652 766.604C443.336 760.308 444.676 753.34 444.676 745.696C444.676 738.048 443.336 731.156 440.652 725.008C438.12 718.712 434.692 713.916 430.368 710.616C426.196 707.172 421.648 705.448 416.732 705.448H408.68Z" fill="white"/>
<path d="M334.733 706.796C329.963 706.796 325.864 708.444 322.436 711.744C319.157 714.892 316.623 718.936 314.835 723.884C313.046 728.68 312.152 733.404 312.152 738.048V802.356H291.359V689.032H312.152V695.104C312.152 697.5 312.823 698.924 314.164 699.376C315.505 699.676 316.996 698.924 318.635 697.128C320.871 694.28 323.33 692.256 326.013 691.056C328.845 689.708 332.348 689.032 336.521 689.032H350.159V706.796H334.733Z" fill="white"/>
<path d="M218.707 804.156C209.466 804.156 201.12 801.684 193.667 796.736C186.364 791.64 180.551 784.668 176.229 775.824C172.055 766.832 169.969 756.788 169.969 745.696C169.969 734.604 172.055 724.632 176.229 715.788C180.551 706.796 186.364 699.824 193.667 694.88C201.12 689.78 209.466 687.232 218.707 687.232H226.98C236.072 687.232 244.344 689.78 251.796 694.88C259.248 699.824 265.061 706.796 269.235 715.788C273.557 724.632 275.718 734.604 275.718 745.696C275.718 756.788 273.557 766.832 269.235 775.824C265.061 784.668 259.248 791.64 251.796 796.736C244.493 801.684 236.22 804.156 226.98 804.156H218.707ZM226.98 785.944C231.898 785.944 236.444 784.22 240.618 780.772C244.94 777.324 248.293 772.528 250.678 766.38C253.063 760.236 254.255 753.34 254.255 745.696C254.255 738.048 253.063 731.228 250.678 725.232C248.293 719.088 244.94 714.292 240.618 710.844C236.444 707.244 231.824 705.448 226.756 705.448H218.707C213.64 705.448 209.019 707.172 204.846 710.616C200.672 714.064 197.319 718.864 194.785 725.008C192.4 731.004 191.208 737.9 191.208 745.696C191.208 753.488 192.4 760.46 194.785 766.604C197.319 772.604 200.672 777.324 204.846 780.772C209.019 784.22 213.64 785.944 218.707 785.944H226.98Z" fill="white"/>
<path d="M1.99609 644.96H30.8368L74.2096 760.084C75.104 762.484 76.4456 763.684 78.234 763.684C80.0228 763.684 81.364 762.484 82.2584 760.084L125.631 644.96H154.696V802.356H133.233L133.456 699.152C133.456 697.5 132.935 696.376 131.891 695.776C130.997 695.028 129.954 694.88 128.761 695.328C127.718 695.628 126.973 696.452 126.526 697.8L86.7296 802.356H69.5148L30.1661 697.8C29.5699 696.452 28.6756 695.628 27.4833 695.328C26.4399 694.88 25.4711 695.028 24.5768 695.776C23.6825 696.528 23.2354 697.652 23.2354 699.152L23.459 802.356H1.99609V644.96Z" fill="white"/>
<path fill-rule="evenodd" clip-rule="evenodd" d="M1.99609 558.652H200.5V268.359C200.5 259.052 213.783 257.558 215.828 266.634L263.222 476.996H382.323V405.488C382.323 401.176 385.8 397.682 390.083 397.682H578.452V1.19971H379.947V72.7104C379.947 77.0208 376.474 80.5148 372.187 80.5148H173.896L190.146 152.643C191.246 157.525 187.556 162.172 182.578 162.172H1.99609V558.652Z" fill="white"/>
</svg>
