<svg xmlns="http://www.w3.org/2000/svg" fill="none" viewBox="2 1.2 576.5 847"><path fill="#000" d="M482 645h21v51c0 3 0 4 2 5l5-3 11-8c3-2 8-3 13-3h9c7 0 13 2 18 6s10 9 13 15c3 7 4 14 4 22v72h-20v-69c0-5-1-10-3-14-1-4-4-7-7-10-3-2-7-3-11-3h-8c-5 0-10 2-14 5s-7 8-9 13c-2 6-3 11-3 18v60h-21V645Zm-64 42c10 0 18 3 25 8s13 12 17 21 6 19 6 30c0 10-2 20-6 29s-10 16-17 22c-7 5-15 7-24 7h-7l-11-2-11-7c-2-2-4-2-6-2l-2 4v51h-20V689h20v5c0 2 1 4 3 4 1 1 3 1 5-1l10-7 12-3h6Zm-9 18c-6 0-10 2-15 6-4 3-7 8-10 14-2 6-3 13-3 21l3 21c3 6 6 11 10 14 5 3 9 5 15 5h8c5 0 9-2 13-5 5-3 8-8 11-14 2-7 4-14 4-21 0-8-2-15-4-21-3-6-6-11-11-14-4-4-8-6-13-6h-8Zm-74 2c-5 0-9 1-13 5-3 3-5 7-7 12s-3 9-3 14v64h-21V689h21v6c0 3 1 4 2 4 2 1 3 0 5-2 2-3 4-5 7-6l11-2h13v18h-15Zm-116 97c-10 0-18-2-25-7-8-5-13-12-18-21-4-9-6-19-6-30s2-21 6-30c5-9 10-16 18-21 7-5 15-8 25-8h8a46 46 0 0 1 42 29c5 9 7 19 7 30s-2 21-7 30c-4 9-10 16-17 21-8 5-16 7-25 7h-8Zm8-18c5 0 9-2 14-5 4-4 7-8 10-15 2-6 3-13 3-20 0-8-1-15-3-21-3-6-6-11-10-14-5-4-9-6-14-6h-8c-5 0-10 2-14 6-4 3-8 8-10 14-3 6-4 13-4 21 0 7 1 14 4 21 2 6 6 10 10 14 4 3 9 5 14 5h8ZM2 645h29l43 115c1 2 2 4 4 4s3-2 4-4l44-115h29v157h-22V699l-1-3-3-1c-1 1-2 1-2 3L87 802H70L30 698c0-2-1-2-3-3l-2 1-2 3v103H2V645Z"/><path fill="#000" fill-rule="evenodd" d="M2 559h199V268c0-9 13-10 15-1l47 210h119v-72c0-4 4-7 8-7h188V1H380v72c0 4-4 8-8 8H174l16 72c1 5-2 9-7 9H2v397Z" clip-rule="evenodd"/></svg>
