<svg xmlns="http://www.w3.org/2000/svg" viewBox="27 29.2 229.2 198"><path d="m255.7 94.9-13.9-17.2-44.1 39.5-1.8-1.8V113l.5-21.4 1.2-52.8-23.3-3-1.3 55.8-11.7 23-17.6 34.6-12.1 23.8 58.1 54.2 19.1-13-42.3-39.5 2-1.7h83.9l3.7-21.4h-61v-2.5l1.9-1.7 16.9-15.1zm-106-13.2-16.2-15.2-40-37.3-19.2 13 42.3 39.5-1.9 1.7h-84L27 104.8h61.1l-.1 2.5-1.9 1.7-16.9 15.1-41.8 37.4 13.9 17.2 44.1-39.5 1.8 1.8v2.4l-.5 21.4-1.2 52.8 23.3 3 1.3-55.8 12.7-24.8 17.4-34.3 11.4-22.3z" style="fill:#6bd1c3;fill-rule:evenodd"/></svg>