<svg xmlns="http://www.w3.org/2000/svg" version="1.0" viewBox="50 50 200 200"><path fill="#FCFC03" stroke="#000" stroke-width="2" d="m69.7 96.8-15.8 11.7 82.25.25c45.25.15 82.6.6 83.05 1.05s-1.15 6.6-3.55 13.75l-4.35 12.95-33.55.25-33.6.3-3.05 9.2c-1.7 5.1-3.1 9.6-3.1 10s14.85.75 33 .75c26.55 0 33 .25 33 1.3 0 .75-2.25 8.4-5.05 17l-5 15.7h-47c-31.5 0-46.95-.35-46.95-1.05 0-.75 14.75-47.45 18.55-58.75.35-1.1-18.7-16.2-20.5-16.2C97.5 115 66 212.55 66 214.3c0 .4 27 .7 60 .7h60l15.5-7.75 15.55-7.75 5.65-17.25c3.1-9.45 5.45-17.4 5.25-17.55-.25-.2-4.75-3.45-9.95-7.25-5.25-3.85-9.65-7.35-9.85-7.9-.2-.5 6.55-4.35 14.95-8.55l15.3-7.7 5.4-16.2c3-8.95 5.25-16.35 5.05-16.5-.2-.2-5.05-3.75-10.8-7.95L227.6 85l-71.05.05-71.05.05z"/></svg>