<svg xmlns="http://www.w3.org/2000/svg" width="400" height="400" fill="none" viewBox="0 0 400 400"><path fill="#052CC0" d="M0 0h400v400H0z"/><g filter="url(#a)"><path fill="#00C389" d="M170.912 306.613c-4.15 0-8.095-1.983-10.569-5.397l-51.655-71.586H75v-26.063h40.352c4.19 0 8.115 2.003 10.568 5.397l42.212 58.483 64.411-147.138a13.05 13.05 0 0 1 11.938-7.809H325v26.063h-71.995L182.85 298.804a13.01 13.01 0 0 1-10.569 7.727 10 10 0 0 1-1.369.082"/></g><defs><filter id="a" width="314" height="258.113" x="43" y="112.5" color-interpolation-filters="sRGB" filterUnits="userSpaceOnUse"><feFlood flood-opacity="0" result="BackgroundImageFix"/><feColorMatrix in="SourceAlpha" result="hardAlpha" values="0 0 0 0 0 0 0 0 0 0 0 0 0 0 0 0 0 0 127 0"/><feOffset dy="32"/><feGaussianBlur stdDeviation="16"/><feComposite in2="hardAlpha" operator="out"/><feColorMatrix values="0 0 0 0 0 0 0 0 0 0 0 0 0 0 0 0 0 0 0.25 0"/><feBlend in2="BackgroundImageFix" result="effect1_dropShadow_961_90"/><feBlend in="SourceGraphic" in2="effect1_dropShadow_961_90" result="shape"/></filter></defs></svg>