<svg xmlns="http://www.w3.org/2000/svg" width="37" height="37" fill="none" viewBox="0 0 37 37"><path fill="#E41A1A" d="M18.5 37C28.752 37 37 28.752 37 18.5S28.752 0 18.5 0A18.456 18.456 0 0 0 0 18.5C0 28.752 8.248 37 18.5 37"/><path fill="#F4A4A4" d="m18.497 3-.208.706v20.498l.208.207 9.515-5.624z"/><path fill="#fff" d="M18.497 3 8.982 18.787l9.515 5.625z"/><path fill="#F4A4A4" d="m18.497 26.213-.117.143v7.301l.117.343 9.52-13.408z"/><path fill="#fff" d="M18.497 34v-7.787l-9.515-5.621z"/><path fill="#E94848" d="m18.497 24.411 9.515-5.624-9.515-4.325z"/><path fill="#F4A4A4" d="m8.982 18.787 9.515 5.624v-9.949z"/><path fill="#fff" stroke="#B9BABE" stroke-width=".432" d="M28.784 21a7.784 7.784 0 0 1 0 15.568 7.784 7.784 0 0 1 0-15.568Z"/><mask id="a" width="6" height="14" x="26" y="22" maskUnits="userSpaceOnUse" style="mask-type:luminance"><path fill="#fff" d="M26.636 22.616h4.729v12.768h-4.73z"/></mask><g mask="url(#a)"><path fill="#000" fill-rule="evenodd" d="M28.977 22.616h.086c.888.008 1.205.075 1.277.125.017.012.011.037.001.057l-.422.872h.001c-.013.025-.025.078.033.078h.439c.096 0 .275.08.275.3v1.642c.49.483.607 1.343.598 1.773 0 1.497-.823 3.288-1.364 4.467-.266.579-.464 1.01-.464 1.187 0 .537.335 1.261.713 1.53.303.215.38.502.379.62h-1.968l-1.131-.001c0-.117.075-.404.378-.619.379-.269.714-.993.714-1.53 0-.177-.198-.608-.464-1.187-.541-1.18-1.364-2.97-1.364-4.467-.009-.43.108-1.29.597-1.773v-1.643c0-.22.18-.299.276-.299h.438c.058 0 .047-.053.034-.079l-.422-.871c-.01-.02-.016-.045.002-.057.072-.05.389-.117 1.277-.125zM28.057 24c.032 0 .094.02.122.097.074.427.026 1.018-.502 1.329a.22.22 0 0 1-.11-.19v-1.12c.002-.038.025-.116.103-.116zm1.846 0c-.033 0-.095.02-.123.097-.074.427-.026 1.018.502 1.329a.22.22 0 0 0 .11-.19v-1.12c-.002-.038-.025-.116-.103-.116z" clip-rule="evenodd"/></g></svg>