<svg xmlns="http://www.w3.org/2000/svg" fill="none" viewBox="0 0.4 38 37.2"><path fill="url(#a)" fill-rule="evenodd" d="M26.14 1.1c-.1-.03-.19-.1-.29-.12a17.9 17.9 0 0 0-10.73.53 16.3 16.3 0 0 0-3.85 2.02 16.6 16.6 0 0 0-2.82 2.5 14.88 14.88 0 0 0-3.9 11.11c.17 2.84 1.11 5.4 2.91 7.61 2.1 2.57 4.8 4.16 8.16 4.48 2.22.21 4.33-.15 6.27-1.29a10.3 10.3 0 0 0 2.26-1.78c.2-.21.43-.42.67-.6.1-.06.32-.09.42-.03s.18.28.14.39c-.1.37-.22.76-.42 1.09a7.8 7.8 0 0 1-2.35 2.42c-3.7 2.44-7.6 2.47-11.58.87a13.66 13.66 0 0 1-5.32-3.96 15.84 15.84 0 0 1-3.74-10.27c-.04-2.21.44-4.35 1.26-6.41a16.3 16.3 0 0 1 2.73-4.64c.52-.61 1.08-1.19 1.63-1.78l.3-.34-.04-.06c-.14.11-.3.21-.42.34a21.8 21.8 0 0 0-3.07 3.77 17.58 17.58 0 0 0-1.82 14.92 15.6 15.6 0 0 0 3.07 5.32c3.33 3.72 7.47 5.57 12.52 5.22 2.6-.18 4.96-1.06 7-2.7 3.1-2.5 4.65-5.73 4.43-9.74-.02-.33-.05-.67-.03-1 0-.14.13-.37.23-.4.13-.02.34.1.43.22.38.52.5 1.16.59 1.78.36 2.49-.14 4.8-1.38 7a13.13 13.13 0 0 1-4.88 4.94A15.5 15.5 0 0 1 12.6 34.1a16.7 16.7 0 0 1-6.96-3.63A18 18 0 0 1 .8 23.89c-.26-.6-.5-1.2-.79-1.79.12.38.21.77.35 1.14 1.41 3.7 3.71 6.72 7.02 8.93 2.93 1.96 6.17 3 9.7 2.99a15.7 15.7 0 0 0 10.08-3.5 13.85 13.85 0 0 0 5.22-9.05c.4-2.8-.11-5.49-1.55-7.94a10.55 10.55 0 0 0-5.23-4.57c-.52-.21-1.07-.39-1.6-.59-.14-.05-.31-.08-.43-.17-.11-.09-.27-.25-.25-.36.03-.13.2-.29.34-.32a2.6 2.6 0 0 1 .77-.08c1.6.07 3.03.64 4.35 1.5a12.3 12.3 0 0 1 5.41 7.75c.8 3.3.42 6.5-.94 9.6a16.4 16.4 0 0 1-5.08 6.38 17.9 17.9 0 0 1-4.72 2.59 18.7 18.7 0 0 1-4.92 1.1 1.3 1.3 0 0 0-.37.09c.25 0 .5.02.74 0a18.07 18.07 0 0 0 14.39-9.18 15.7 15.7 0 0 0 1.75-10.23 13.93 13.93 0 0 0-5.6-9.26 12.52 12.52 0 0 0-8.35-2.54c-1.96.11-3.78.7-5.41 1.77a9.35 9.35 0 0 0-4.15 5.8 3.2 3.2 0 0 1-.25.76c-.07.13-.26.28-.4.28-.12 0-.35-.15-.38-.27a5.2 5.2 0 0 1-.2-1.28 7 7 0 0 1 .92-3.3 11.04 11.04 0 0 1 6.34-5.34c4.01-1.43 7.86-.92 11.56 1a15.46 15.46 0 0 1 5.21 4.42c1.8 2.35 2.9 4.97 3.35 7.88.12.82.2 1.65.3 2.54a17.27 17.27 0 0 0-3.6-10.94 16.4 16.4 0 0 0-5.51-4.6 15.5 15.5 0 0 0-7.84-1.8c-3.2.13-6.14 1.1-8.58 3.18-3.66 3.12-5.3 7.06-4.3 11.84a9 9 0 0 0 4.81 6.35c.59.31 1.26.48 1.9.7.22.1.47.13.67.25.14.08.29.27.28.4 0 .15-.16.37-.29.4-.42.12-.87.23-1.3.2a8.05 8.05 0 0 1-4.85-2 11.18 11.18 0 0 1-3.81-6.7c-.6-3.13-.02-6.1 1.44-8.88 1.3-2.45 3.18-4.4 5.56-5.87a17.3 17.3 0 0 1 9.7-2.6c1.31.03 2.61.22 3.9.54h-.01Z" clip-rule="evenodd"/><path fill="#2B2B2B" d="m16 1.82.19 8.7a2.32 2.32 0 0 0 2.26 2.27l8.7.19-8.7.19a2.32 2.32 0 0 0-2.26 2.26l-.19 8.7-.19-8.7a2.32 2.32 0 0 0-2.26-2.26l-8.7-.2 8.7-.18a2.32 2.32 0 0 0 2.26-2.27z"/><defs><linearGradient id="a" x1="13.93" x2="60.33" y1="71.29" y2="57.07" gradientUnits="userSpaceOnUse"><stop stop-color="#F26F56"/><stop offset="1" stop-color="#F49756"/></linearGradient></defs></svg>