<svg xmlns="http://www.w3.org/2000/svg" width="1201" height="1200" fill="none" viewBox="0 0 1201 1200"><circle cx="600.821" cy="600" r="600" fill="#FF0420"/><g clip-path="url(#a)"><path fill="#fff" d="M1072.9 593.567v8.82C864.745 706.051 708.886 861.91 605.223 1070.07h-8.82C492.739 862.013 336.88 706.051 128.723 602.387v-8.82c208.157-103.663 364.016-259.522 467.68-467.679h8.82C708.886 334.045 864.745 489.904 1072.9 593.567"/><path fill="#FF0420" fill-rule="evenodd" d="M632.999 759.031v57.89H565.87v-58.632q-23.141-3.13-40.922-10.532-30.805-13.283-46.438-37.101-15.173-24.277-15.173-57.256h76.325q0 12.368 6.896 21.986 6.897 9.619 20.691 15.116 14.253 5.038 35.404 5.038 27.587 0 43.22-8.703 16.092-9.16 16.092-26.108 0-14.199-13.334-22.902-12.873-9.16-43.22-11.909l-21.15-1.832q-50.577-4.581-80.463-30.231-29.886-26.109-29.886-73.287 0-32.52 14.253-54.049 14.254-21.527 41.381-32.063 15.453-6.262 34.484-8.956v-46.467h67.129v47.346q18.211 3.2 32.645 9.909 28.047 12.367 42.301 35.728 14.253 23.36 14.253 56.797h-76.324q0-11.909-5.978-20.612-5.977-9.16-17.012-14.199-10.575-5.497-26.208-5.497-14.253 0-24.369 4.123-9.655 3.664-15.173 10.993-5.057 6.87-5.057 16.947 0 12.367 9.196 22.902 9.655 10.077 32.185 12.367l21.15 1.833q57.014 4.58 91.038 30.23 34.484 25.192 34.484 72.829 0 32.521-15.633 54.965-15.633 21.986-45.979 33.437-19.176 7.236-43.679 9.9" clip-rule="evenodd"/><path fill="#FF0420" d="M524.948 747.757q-30.805-13.283-46.438-37.101-15.173-24.277-15.173-57.256h76.325q0 12.368 6.896 21.986 6.897 9.619 20.691 15.116 14.253 5.038 35.404 5.038 27.587 0 43.22-8.703 16.092-9.16 16.092-26.108 0-14.199-13.334-22.902-12.873-9.16-43.22-11.909l-21.15-1.832q-50.577-4.581-80.463-30.231-29.886-26.109-29.886-73.287 0-32.52 14.253-54.049 14.254-21.527 41.381-32.063 15.453-6.262 34.484-8.956v-46.467h67.129v47.346q18.211 3.2 32.645 9.909 28.047 12.367 42.301 35.728 14.253 23.36 14.253 56.797h-76.324q0-11.909-5.978-20.612-5.977-9.16-17.012-14.199-10.575-5.497-26.208-5.497-14.253 0-24.369 4.123-9.655 3.664-15.173 10.993-5.057 6.87-5.057 16.947 0 12.367 9.196 22.902 9.655 10.077 32.185 12.367l21.15 1.833q57.014 4.58 91.038 30.23 34.484 25.192 34.484 72.829 0 32.521-15.633 54.965-15.633 21.986-45.979 33.437-19.176 7.236-43.679 9.9v57.89H565.87v-58.632q-23.141-3.13-40.922-10.532"/></g><defs><clipPath id="a"><path fill="#fff" d="M128.723 127.911h944.179v944.179H128.723z"/></clipPath></defs></svg>