<svg width="24" height="24" viewBox="0 0 24 24" fill="none" xmlns="http://www.w3.org/2000/svg">
<circle cx="12" cy="12" r="12" fill="#26A17B"/>
<path fill-rule="evenodd" clip-rule="evenodd" d="M13.3311 14.0874V14.086C13.2565 14.0914 12.8723 14.1144 12.015 14.1144C11.3305 14.1144 10.8486 14.0941 10.6792 14.086V14.0881C8.04417 13.9727 6.07742 13.5161 6.07742 12.9697C6.07742 12.4241 8.04417 11.9674 10.6792 11.8501V13.6334C10.8513 13.6456 11.3447 13.6746 12.0265 13.6746C12.8445 13.6746 13.2545 13.6409 13.3311 13.6341V11.8514C15.9607 11.9681 17.9227 12.4247 17.9227 12.9697C17.9227 13.5161 15.9607 13.9714 13.3311 14.0874ZM13.3311 11.6659V10.0701H17.0003V7.63647H7.00997V10.0701H10.6792V11.6653C7.69718 11.8015 5.45459 12.3897 5.45459 13.0938C5.45459 13.798 7.69718 14.3855 10.6792 14.5224V19.6365H13.3311V14.5211C16.3083 14.3848 18.5455 13.7973 18.5455 13.0938C18.5455 12.3903 16.3083 11.8029 13.3311 11.6659Z" fill="white"/>
</svg>
