<svg xmlns="http://www.w3.org/2000/svg" xml:space="preserve" viewBox="0 0 400 400"><path fill="#FF004B" d="M401 2v399H1c0-132.7 0-265.4.5-398.5C135 2 268 2 401 2M164.6 51.8c-.3-.2-.6-.4-.7-.7 0 0 0 .2-.3-.2l-.8-.7s0 .2-.3-.3l-.7-.7-.2-.6c-.8-.5-1.6-1-3-1.3-9 5.8-10.7 12.7-4.2 20.5 3.5 4 7.9 7.4 11.8 11 4.3 4 4.4 6.2-.1 9.6-4.5 3.3-9.2 6.4-14 9.3-9.2 5.9-10 14.8-1.3 22.1l42.4-26c6.4-4 6.7-7.1 1.1-12.6-6.1-6-12.3-12.1-18.3-18.3l-.1-.2s-.2.2-.6.1c0 0-.2-.3 0-1l-3.1-2V59c-.2-.2-.4-.3-1-.2V58l-2-1.1-2.6-3-.7-.8s0 .2-.3-.3c-.3-.2-.6-.4-.7-.7 0 0 0 .2-.3-.3m55.9 55-1.7-1c-5.6-4.7-7.3-4.8-13.2-1l-42.6 27a37.6 37.6 0 0 0-7.6 58c8.8 10 17.4 20 26.4 30a48.1 48.1 0 0 1 11.7 43c-4 22.4-9 44.6-13.8 66.9-1.5 7.2-.6 13.3 4.8 18.2 5.7 5.1 12.5 6 19 2.5 12.4-6.6 24.3-13.7 36.8-20.4l1.2-1.5.4-.2c.3-.3.5-.6.8-.6 0 0-.2 0 .3-.3l.9-1.3c.2-.2.4-.3 1.4-.4 2.8-3 5.7-6 8.6-9.5.1-.3.3-.4 1.1-.7.3-.4.5-.7.8-.7 0 0-.3 0 .2-.4l1-1.8a127.4 127.4 0 0 0 20.3-34 123.8 123.8 0 0 0 9.6-66.4 121.2 121.2 0 0 0-20.5-49.8c-9.4-13.8-20.3-26.7-30.9-40.5-.3-.3-.6-.6-.7-.9 0 0 0 .3-.3-.2-.3-.3-.6-.5-.7-.8 0 0 0 .2-.3-.3l-1.5-1a468 468 0 0 1-9.2-9.7s0 .2-.3-.3c-.3-.2-.6-.4-.7-.7 0 0 0 .2-.3-.2-.4-.3-.7-.5-.7-.8 0 0 0 .3-.4-.3z"/><path fill="#F05" d="M401 1.5C268 2 135 2 1.5 2c.8-.3 2.2-1 3.5-1h172c74.7 0 149.3 0 224 .5"/><path fill="#FFFCFD" d="M236 122.6c10.2 13.2 21 26 30.5 39.9 10.3 15 17.6 31.6 20.5 49.8 3.6 23-1 45-9.6 66.3a129 129 0 0 1-20.8 34.6l-1 1.7s.3 0 0 0c-.5.3-.8.6-1 1-.3 0-.5.1-1 .8l-8.9 9.2c-.3 0-.5 0-1 .6l-1.1 1.3s.2 0 0 0c-.6.2-.9.5-1.1.8h-.2l-1.3 1.2c-12.1 7-24 14.1-36.3 20.7a15.8 15.8 0 0 1-19-2.5c-5.5-5-6.4-11-4.9-18.2 4.9-22.3 9.8-44.5 13.8-67a48.1 48.1 0 0 0-11.7-43c-9-9.8-17.6-20-26.4-30A37.6 37.6 0 0 1 163 132c14-9.2 28.3-18.1 42.5-27.2 6-3.7 7.6-3.6 13.7 1.5l1.6 1.2s0-.3 0 0c.3.5.6.7 1 1 0 0 0-.3 0 0 .3.5.7.7 1 1 0 0 0-.3 0 0 .3.5.7.7 1 1l8.6 8.9 1.4 1s0-.2 0 0c.3.6.6.8 1 1v.1c.3.6.7.9 1 1.2M214.1 280c0 1.9.2 3.7-.1 5.5-1.1 5.8 2 9.2 6.6 11.5 4.7 2.4 10 1.7 13.8-2.3 24.8-25.7 36.3-55.4 26.8-91.1-8.1-30.2-27.5-53.2-49.6-74-1.4-1.4-5.6-1.5-7.5-.4a663 663 0 0 0-30.8 19.4c-8.1 5.4-9.1 15-2.8 22.5 4.2 5 8.6 9.8 12.7 14.8 8.5 10.3 17.8 20 24.8 31.2 12.2 19.3 12.5 40.5 6.1 63z"/><path fill="#FFFBFC" d="m175.8 63 18.5 18.2c5.6 5.5 5.3 8.5-1.1 12.5l-42.4 26.1c-8.6-7.3-8-16.2 1.4-22 4.7-3 9.4-6.1 13.9-9.4 4.5-3.4 4.4-5.6.1-9.6-4-3.6-8.3-7-11.8-11-6.5-7.8-4.9-14.7 4.7-20.2l2.6 1.7.1.2 1 .9s0-.2 0 0l1 1s0-.3 0 0l1 1s0-.3.1 0c.3.5.7.7 1 1 0 0 0-.3 0 0 .3.5.7.7 1 1a96 96 0 0 0 4.6 4.6l.6.4s0 .4.4.6l2.6 2.5.4.4z"/><path fill="#FF0036" d="M245 325.9c2.6-3 5.4-6 8.6-9-2.5 2.9-5.4 5.9-8.5 9z"/><path fill="#FF0035" d="M175.2 62.2a10 10 0 0 1-2.6-2.1c.8.4 1.7 1 2.6 2zM161.7 49c-.7-.2-1.4-.7-2.3-1.5.6.2 1.4.6 2.3 1.5"/><path fill="#FF0036" d="M240.2 330c.1-.5.5-.9 1-1.4a3 3 0 0 1-1 1.4"/><path fill="#FF0035" d="M171.1 58.3c-.4 0-.7-.4-1.2-1 .3 0 .8.4 1.2 1"/><path fill="#F03" d="M222.7 109c-.1.1-.5-.1-1-.6.3 0 .6.2 1 .7z"/><path fill="#FF0036" d="M241.8 328.5c0-.2.2-.5.7-.8 0 .1-.2.4-.7.8m1-.8c0-.2.3-.5.8-1 0 .2-.2.5-.8 1m12.1-12c0-.2.2-.5.7-1 0 .2-.2.5-.7 1m1-1c0-.2.1-.6.7-1.2 0 .2-.2.6-.7 1.2"/><path fill="#F03" d="M235.8 122.3c-.2 0-.6-.3-1-1 .2 0 .5.4 1 1m-1.1-1.2c-.2 0-.5-.2-1-.7.3 0 .6.2 1 .7m-1-1.1c-.1.1-.5-.1-1-.6.3 0 .6.2 1 .7zm-10-10c-.1.1-.5-.1-1-.6.3 0 .6.2 1 .7z"/><path fill="#FF0035" d="M163.7 51.1c-.2 0-.5-.2-1-.7.2 0 .5.2 1 .7"/><path fill="#F03" d="M221.7 108.1c-.2 0-.5-.2-1-.7.2 0 .5.2 1 .7m-1-1c-.2 0-.6-.2-1.1-.7.2 0 .5.2 1.1.7"/><path fill="#FF0035" d="M162.7 50.1c-.2 0-.5-.2-1-.7.2 0 .5.2 1 .7M175.9 63h-.2l.2-.3v.2zm-3.9-3.7-.4-.2c.2-.3.4-.2.5.2zm-5.3-5.3c-.1.1-.5-.1-1-.6.3 0 .6.2 1 .7zm-1-1c-.1.1-.5-.1-1-.6.3 0 .6.2 1 .7zm-1-1c-.1.1-.5-.1-1-.6.3 0 .6.2 1 .7z"/><path fill="#FF014B" d="M214.2 279.6c6.3-22 6-43.2-6.2-62.5-7-11.2-16.3-21-24.8-31.2-4-5-8.5-9.8-12.7-14.8-6.3-7.4-5.3-17.1 2.8-22.5a663 663 0 0 1 30.8-19.4c1.9-1.1 6-1 7.5.3 22.1 21 41.5 43.9 49.6 74.1 9.5 35.7-2 65.4-26.8 91.1-3.9 4-9.1 4.7-13.8 2.3-4.6-2.3-7.7-5.7-6.6-11.5.3-1.8 0-3.6.2-5.9"/></svg>