<?xml version="1.0" encoding="UTF-8"?>
<svg version="1.1" xmlns="http://www.w3.org/2000/svg" width="256" height="256">
<path d="M0 0 C84.48 0 168.96 0 256 0 C256 84.48 256 168.96 256 256 C171.52 256 87.04 256 0 256 C0 171.52 0 87.04 0 0 Z " fill="#2FBE53" transform="translate(0,0)"/>
<path d="M0 0 C17.80010775 -1.08980252 34.40821953 6.12813241 47.61328125 17.734375 C60.07893886 29.5675688 68.40201804 43.84827442 71 61 C72.6005147 58.59922796 73.87889174 56.30468916 75.1875 53.75 C79.58668634 45.84942045 85.67210076 40.5606919 94 37 C98.05485561 35.99409591 101.82519406 35.91814106 106 36 C106.68704451 45.27510091 103.91807124 52.09675962 98 59.25 C93.10445813 64.43159189 87.52290232 67.2848833 81 70 C85.06091806 71.55053235 89.09501564 73.03638049 93.25 74.3125 C111.96199818 80.58198393 125.96733832 93.17670276 135.23828125 110.42578125 C139.45858702 118.98804241 142.1922318 127.77484689 142.0625 137.375 C142.05347656 138.24898437 142.04445312 139.12296875 142.03515625 140.0234375 C142.01775391 141.00183594 142.01775391 141.00183594 142 142 C125.83386753 143.15472375 109.65105197 136.49766544 97.125 126.625 C82.5937526 113.99005908 73.31947255 98.27136232 71 79 C70.57589844 79.92941406 70.15179688 80.85882813 69.71484375 81.81640625 C64.35098515 93.26002617 59.07451619 100.1054725 47 105 C43.29743473 106.12686769 39.86431418 106.07431373 36 106 C35.30541682 96.62312706 38.11057749 89.83744554 44.1875 82.6875 C48.33386865 78.32902338 52.56322715 75.4948862 58 73 C59.33471359 72.33610101 60.66846683 71.6702549 62 71 C61.00742188 70.79246094 60.01484375 70.58492188 58.9921875 70.37109375 C39.19768691 65.98730734 22.82928469 56.22065614 11.12890625 39.29296875 C3.62142093 27.23255686 -0.24952375 14.22285371 0 0 Z " fill="#000200" transform="translate(57,57)"/>
</svg>
