<svg width="120" height="32" viewBox="0 0 120 32" fill="none" xmlns="http://www.w3.org/2000/svg">
<g id="logo2">
<path d="M0 0C9.09721 0 16.4719 7.16344 16.4719 16C7.37474 16 0 8.83656 0 0Z" fill="#30BF54"/>
<path d="M32.9439 32C23.8467 32 16.4719 24.8366 16.4719 16C25.5692 16 32.9439 23.1634 32.9439 32Z" fill="#30BF54"/>
<path d="M16.4719 16C16.4719 11.5817 20.1593 8 24.7079 8C24.7079 12.4183 21.0206 16 16.4719 16Z" fill="#30BF54"/>
<path d="M16.4719 16C16.4719 20.4183 12.7846 24 8.23597 24C8.23597 19.5817 11.9233 16 16.4719 16Z" fill="#30BF54"/>
<path d="M75.6904 7C77.1119 7 78.2642 5.88071 78.2642 4.5C78.2642 3.11929 77.1119 2 75.6904 2C74.269 2 73.1167 3.11929 73.1167 4.5C73.1167 5.88071 74.269 7 75.6904 7Z" fill="#30BF54"/>
<path d="M64.4072 6V28H67.4957V30H57.2007V28H60.2892V8H59.9803L51.5385 25.58L43.0966 8V28H45.8762V30H37.6403V28H40.4199V6H37.6403V4H45.8762L52.568 17.94L59.2597 4H67.4957V6H64.4072Z" fill="#30BF54"/>
<path d="M80.3644 30V28H77.7906V10L73.6726 10.6L70.9959 11V13L73.6726 13.4V28H70.9959V30H80.3644Z" fill="#30BF54"/>
<path d="M105.278 30V28H102.499V16C102.499 12.68 99.7395 10 96.3216 10C93.2743 10 90.7417 12.14 90.2475 14.94V10L86.1295 10.6L83.4529 11V13L86.1295 13.4V28H83.4529V30H92.8213V28H90.2475V16.96C90.2475 14.76 92.0389 13 94.3038 13C96.5687 13 98.3806 14.76 98.3806 16.96V28H95.9098V30H105.278Z" fill="#30BF54"/>
<path d="M114.544 13V28H120V30H112.485C111.352 30 110.426 29.1 110.426 28V13H106.575V11H107.852C108.923 11 109.829 10.36 110.22 9.48L110.426 9.06L112.382 5H114.544V11H120V13H114.544Z" fill="#30BF54"/>
</g>
</svg>
