<svg xmlns="http://www.w3.org/2000/svg" fill="none" viewBox="87 122 362.3 292.8"><path fill="#2EE1FF" d="m341.1 198.3 47 78.1c1.5 2.5 4 4.3 7 4.3 3 .1 5.7-1 7.5-3.3l28-37.8c4.2-5.7 4.3-9.5 2.4-12.5L402.3 180a8.4 8.4 0 0 0-8.6-3.7l-46.5 8.4c-3 .6-5.2 2.7-6.4 5.4a8.9 8.9 0 0 0 .3 8.2M171.2 226c-1.7.4-4 .7-5.7.7-1.6 0-3 .8-3.8 2l-46.2 74.7a4.4 4.4 0 0 0 3.1 6.7l50.3 6.5c2 .2 3.5 1.8 3.7 3.7l1.7 11.8c.5 3.7 5 5.1 7.5 2.4l47.4-50.2a4.4 4.4 0 0 0-.2-6.2L175.4 227a4.5 4.5 0 0 0-4.2-1m61.2 65L184 342.4a6.8 6.8 0 0 0 .2 9.5l22.9 21.9c1.3 1.2 3.1 2 5 1.8l48.4-2c1 0 1.8-.3 2.7-.7l32.5-15.8c4.2-2 5.2-7.6 1.9-10.8L242 290.8a6.7 6.7 0 0 0-9.7.2Zm151.6-8-48.4-80.5c-1-1.7-3.7-1.2-4 .8-3.3 23-14.6 106.3-18 132-.5 3 2.8 5 5.4 3.4l61.2-39.5a3.6 3.6 0 0 0 1.6-3.6l-.1-1.6c0-2.7.8-5.2 2.2-7.3.8-1 .8-2.6 0-3.7Zm23.7 11c0 1-.2 1.9-.4 2.8a5 5 0 0 0 1.8 5l26 22c3 2.5 7.4 1.1 8.4-2.6l5.6-20.4c.2-.7.3-1.5.1-2.3l-8.2-46.8c-.8-4.6-6.6-6-9.3-2.2L406.9 283a5.1 5.1 0 0 0-.6 5.3c.9 1.7 1.4 3.6 1.4 5.6ZM279.5 122l-65.8 2.6a4.6 4.6 0 0 0-4 2.7L178 197.5c-.8 1.9 1.3 3.7 3 2.5l101.3-69.7c3.7-2.6 1.8-8.5-2.8-8.3M87.2 249.3l16.9 47.9c1 3 5 3.4 6.7.7l43.5-70.2c1-1.7-.6-3.8-2.4-3.2l-62.3 20c-2 .6-3 2.8-2.4 4.8m67-38.3a13 13 0 0 1 10-9.7 5.7 5.7 0 0 0 4-3l24.2-50.2c2.9-6.2-4-12.5-9.9-9l-55.4 32.3a7 7 0 0 0-2.6 2.5L97 221.4a7 7 0 0 0 8.4 10l45.4-16.3c1.8-.7 3-2.2 3.4-4Zm89.3 71.4 58.9 56.1c1.3 1.3 3.5.5 3.7-1.3l15.3-134.7a2.2 2.2 0 0 0-3.9-1.8l-74 78.6c-.9.9-.9 2.3 0 3.1m-64.3-64.7c-.5 1.6 0 3.3 1.1 4.4l53.5 51a4.3 4.3 0 0 0 6.1-.2l72-76.2c1.8-2 0-5-2.5-4.5l-126.9 22.4a4.2 4.2 0 0 0-3.3 3Zm140.6-44.6-19.4-42.3a3.2 3.2 0 0 0-4.8-1.3l-109.4 75.3c-1 .7-.3 2.2.8 2l127-23c1.2-.3 2.2-1.1 2.5-2.3a13 13 0 0 1 2.9-5.3c.7-.8.9-2 .4-3ZM394.7 307c-2.1 0-4.1-.5-5.9-1.5-2-1-4.4-.8-6.3.5l-68 43.9a6.6 6.6 0 0 0-3 5.3l-.6 23.3c0 1.7.5 3.2 1.5 4.4l25.2 29.6a6.5 6.5 0 0 0 11.5-4.5l-.5-11.2c0-2.3 1-4.5 3-5.8l78.4-51.4c3.7-2.4 4-7.6.7-10.5l-25.5-21.6c-1.7-1.5-4.1-2-6.2-1.3-1.4.5-2.8.8-4.3.8m-66-135c4.5 0 8.8 2.5 11 5.7.6.8 1.6 1.1 2.6 1l45.5-8.3c2.4-.5 2.8-3.6.7-4.7l-77.5-39a2.5 2.5 0 0 0-3.4 3.2l18.7 40.6c.4 1 1.4 1.5 2.4 1.5"/></svg>