<svg xmlns="http://www.w3.org/2000/svg" fill="none" viewBox="0 0 40 36"><g fill="#E36E1B" clip-path="url(#a)"><path d="M0 .85v7.222c1.632-.865 3.251-.76 4.858-.935V0C3.095 0 1.632.015 0 .85ZM14.242 1.65C12.708 1.096 11.162.612 9.604.302v7.055c1.558.283 3.104.74 4.638 1.266V1.65Z"/><path d="M9.605 14.41V7.356c-1.57-.286-3.152-.395-4.746-.22v7.137c1.594-.202 3.176-.121 4.746.137ZM0 15.293v7.22c1.632-.92 3.251-.87 4.858-1.103v-7.137c-1.665.137-3.226.127-4.858 1.02ZM9.605 14.41v7.055c1.557.23 3.104.633 4.638 1.106v-6.974c-1.534-.5-3.08-.93-4.638-1.187Z"/><path d="M4.858 21.41v7.136c1.594-.258 3.176-.231 4.746-.028v-7.054c-1.57-.231-3.152-.286-4.746-.055ZM35.784 18.343c1.807-1.51 2.823-3.938 2.823-6.433 0-3.868-2.373-5.453-7.312-5.943V2.595a31.303 31.303 0 0 1-3.17-.335v3.367a43.824 43.824 0 0 1-2.99-.55V1.683a69.96 69.96 0 0 1-3.27-.832v3.42a143.946 143.946 0 0 1-3.088-.875v6.894c-1.5-.555-3.011-1.145-4.533-1.667v6.973c1.522.496 3.033 1.06 4.533 1.59v6.894c-1.5-.503-3.011-1.04-4.533-1.51v6.973c1.522.444 3.033.955 4.533 1.432 1.034.232 2.064.457 3.087.661v3.42c1.097.21 2.188.398 3.272.55v-3.393a42.6 42.6 0 0 0 2.99.342v3.366c1.062.073 2.118.096 3.169.06v-3.344c5.477-.3 8.323-4.635 8.323-8.96 0-3.19-1.459-4.74-3.834-5.337v.002ZM25.145 10.62c.999.204 1.992.375 2.98.506.441.058.882.108 1.321.15.084.007.166.016.247.026l.06.007.22.031.015.003c.08.013.155.026.23.041l.04.008a5.065 5.065 0 0 1 .449.112c.214.064.41.142.588.232.832.42 1.254 1.143 1.254 2.207 0 1.084-.422 1.856-1.254 2.247a2.77 2.77 0 0 1-.589.195c-.005 0-.008.002-.013.003-.07.015-.143.028-.218.04h-.008c-.068.01-.138.018-.21.024l-.039.003c-.075.006-.15.01-.23.012h-.014c-.073.002-.146 0-.22 0-.02 0-.04 0-.06-.002a6.717 6.717 0 0 1-.247-.013 35.84 35.84 0 0 1-1.321-.13 43.15 43.15 0 0 1-2.98-.466V10.62Zm6.149 16.503c-.064.01-.13.019-.196.027l-.058.006-.148.014-.07.005c-.05.003-.101.004-.152.006l-.066.002a5.148 5.148 0 0 1-.222 0c-.75-.015-1.502-.06-2.257-.129a42.56 42.56 0 0 1-2.98-.383v-5.506c.999.177 1.992.322 2.98.425.755.08 1.507.134 2.257.16l.222.011.066.004a8.078 8.078 0 0 1 .37.033l.059.006c.067.008.132.017.196.027 1.51.228 2.298.986 2.298 2.53 0 1.53-.788 2.506-2.298 2.76l-.001.002Z"/></g><defs><clipPath id="a"><path fill="#fff" d="M0 0h40v36H0z"/></clipPath></defs></svg>