<svg xmlns="http://www.w3.org/2000/svg" fill="none" viewBox="0 0 40 36"><g fill="#E36E1B" clip-path="url(#a)"><path d="M0 .85v7.222c1.632-.865 3.251-.76 4.858-.935V0C3.095 0 1.632.015 0 .85m14.242.8C12.708 1.096 11.162.612 9.604.302v7.055c1.558.283 3.104.74 4.638 1.266z"/><path d="M9.605 14.41V7.356c-1.57-.286-3.152-.395-4.746-.22v7.137c1.594-.202 3.176-.121 4.746.137M0 15.293v7.22c1.632-.92 3.251-.87 4.858-1.103v-7.137c-1.665.137-3.226.127-4.858 1.02m9.605-.883v7.055c1.557.23 3.104.633 4.638 1.106v-6.974c-1.534-.5-3.08-.93-4.638-1.187"/><path d="M4.858 21.41v7.136c1.594-.258 3.176-.231 4.746-.028v-7.054c-1.57-.231-3.152-.286-4.746-.055Zm30.926-3.067c1.807-1.51 2.823-3.938 2.823-6.433 0-3.868-2.373-5.453-7.312-5.943V2.595a31 31 0 0 1-3.17-.335v3.367a44 44 0 0 1-2.99-.55V1.683a70 70 0 0 1-3.27-.832v3.42a144 144 0 0 1-3.088-.875v6.894c-1.5-.555-3.011-1.145-4.533-1.667v6.973c1.522.496 3.033 1.06 4.533 1.59v6.894c-1.5-.503-3.011-1.04-4.533-1.51v6.973c1.522.444 3.033.955 4.533 1.432 1.034.232 2.064.457 3.087.661v3.42c1.097.21 2.188.398 3.272.55v-3.393a43 43 0 0 0 2.99.342v3.366c1.062.073 2.118.096 3.169.06v-3.344c5.477-.3 8.323-4.635 8.323-8.96 0-3.19-1.459-4.74-3.834-5.337v.002ZM25.145 10.62q1.498.308 2.98.506.662.087 1.321.15.126.01.247.026l.06.007.22.031.015.003q.119.019.23.041l.04.008a5 5 0 0 1 .449.112q.321.097.588.232c.832.42 1.254 1.143 1.254 2.207 0 1.084-.422 1.856-1.254 2.247a2.8 2.8 0 0 1-.589.195q-.006 0-.013.003a4 4 0 0 1-.218.04h-.008q-.102.015-.21.024l-.039.003q-.111.009-.23.012h-.014q-.11.002-.22 0l-.06-.002a7 7 0 0 1-.247-.013 36 36 0 0 1-1.321-.13 43 43 0 0 1-2.98-.466zm6.149 16.503q-.096.015-.196.027l-.058.006-.148.014-.07.005q-.075.004-.152.006l-.066.002a5 5 0 0 1-.222 0q-1.125-.024-2.257-.129a43 43 0 0 1-2.98-.383v-5.506c.999.177 1.992.322 2.98.425q1.132.12 2.257.16l.222.011.066.004a8 8 0 0 1 .37.033l.059.006q.1.012.196.027c1.51.228 2.298.986 2.298 2.53 0 1.53-.788 2.506-2.298 2.76z"/></g><defs><clipPath id="a"><path fill="#fff" d="M0 0h40v36H0z"/></clipPath></defs></svg>