<svg version="1.2" baseProfile="tiny" width="151" height="150" viewBox="0 0 151 150" fill="none" xmlns="http://www.w3.org/2000/svg"><g clip-path="url(#clip0_5_2)"><path d="M.9 0h149.5v150H1V0Z" fill="#E6E6D4"/><path d="M54 12.8h9v1.4l3 .8a47.8 47.8 0 0 1-14 1.4c-2 0-2 0-3.3 1.6 1.6.4 3 .8 4.5.8l-1.5 3.7 1.7-1 2.3-1.3 2.2-1.4c2-.8 2-.8 3.8-.2l2 1.6 4.5-.7c-2.8 3-5 5.2-9.2 5.4l-2-.1v1.4l2.2-.7V27h-1.5l-.5 1.2a64.6 64.6 0 0 1-4 6.3l3.8 3.8-1.5 3.7-3.8-.8a93.6 93.6 0 0 0-6 30H51l.1-2.4.2-3.2V64a38 38 0 0 1 2-10l2.8.1c2.4 0 2.4 0 4.6-1 .9-1.4.9-1.4 1.5-3.6h-1.5v-3h-1.5c1.2-6.3 3-11 7.5-15.8l3.7-1.4 2.3-2.3 2.2.8c1.7-.4 1.7-.4 3.5-1.1l1.8-.7 1.4-.5V24l-5.2.8.8-2.3-2.3-.8h1.5c-1.7-2.3-3.8-2.8-6.6-3.4-2.5-.4-5-.4-7.6-.3 2.4-2.8 4.2-3 7.8-3.2 3 .2 4.2.6 6.4 2.4 2.2 3.2 2.2 3.2 2.2 5.3l1.5-.4c4-.6 7.8-1.2 11.3 1.1L96 25a26 26 0 0 1 9.5 5.8h2.2l-1.5-.8.8-2.3a35 35 0 0 1 3.7 3V33l1.3.2c3.3 1.1 4.6 5 6.2 8 1.2 2.9 1.8 4.6.7 7.5l1.5 1c1.8 1.6 2 2.6 2.3 5l2.2.8c1 2.2 1.5 3.6 1.5 6h3l-.8-3.8h1.5l-1.5-3.7h3c2 4.9 2.6 9.1 2.5 14.3v2c0 3.8-.3 7.1-1.7 10.7-2.3 1.3-2.3 1.3-4.5 2.3-1.7 2.5-1.6 3.7-1.5 6.7H125l.7 3.8 1.5-.8c1.5 2.3 1.5 2.3 1.5 4.5h-2.2V99a508.8 508.8 0 0 1-7.5-.4c-2.2-.3-2.2-.3-3.7-1.8l-.8-1.5.8-1.5h-1.5l-.8 3.7h-1.5l-.5 1.8c-1 2-1 2-2.5 2.6l-1.4.1.7 3.8h1.5l-.8 3.7-6.7.8v-.8l-8.2-.8v1.5h-2.2l.7 1.5v6h13.5v.8h-1.7l-7.5.2h-5.1l-2.3.1c-2.7.6-4 1.5-5.9 3.5l-1.2 2.6c-1.7 3.2-4.4 4-7.7 5.1l-1.5.5 1 1c1.2 1.3 1.2 1.3 1.2 2.8h2.3l3 .2 1.5.1c3.2.2 6 .8 9 1.9l-2.3.8v1.4c-5 3.8-10 3.5-16 3.6H64c-1.8 0-1.8 0-2.6 1H50a6057.3 6057.3 0 0 1-40.9 0l.8-2.3h3v-1.5c4-.5 8-1 12-1.2h1.8c9.6-.5 19.2-.4 28.8-.3v-1.5l-1.5-.6a134 134 0 0 1-5.4-2.4l-1.6-.7c-1.2-.8-1.2-.8-2-3-1.1-1.3-1.1-1.3-2.2-2.3h3l-1.5-2.3v-3l-2.3-.7V120l-1.2-.5c-3.5-2-6-4.2-8.1-7.5-1.5-2.2-1.5-2.2-4-3.1-4.5-1.7-6.3-7-8.2-11.1a64.7 64.7 0 0 1-3.1-13l-1.5.7c-.4 7 .7 13.5 4 19.7l.4 1.3-.7 1.5C14.4 102.4 9 94.1 9 86.2L7 85.5c.7-6.9.7-6.9 2.2-9l3-1.5v-2.7c0-11.8 0-11.8.8-17.5H15l.3-2c.5-2.7 1-5.2 2-7.8l1.4-.7c1.7-.7 1.7-.7 2.3-2.3l.5-1.8.5-1.8.5-1.6c.8-2.6 1.5-3.1 3.6-4.8 2-1.7 3.2-3 4.7-5.1 1.7-2.6 3.3-3.6 5.9-5.1l1.7-1.3c4.7-3.6 9.4-6.3 15.5-6.3v-1.4Z" fill="#694016"/><path d="M54 12.8h9v1.4l3 .8a47.8 47.8 0 0 1-14 1.4c-2 0-2 0-3.3 1.6 1.6.4 3 .8 4.5.8l-1.5 3.7 1.7-1 2.3-1.3 2.2-1.4c2-.8 2-.8 3.8-.2l2 1.6 4.5-.7c-2.8 3-5 5.2-9.2 5.4l-2-.1v1.4l2.2-.7V27h-1.5l-.5 1.2a64.6 64.6 0 0 1-4 6.3l3.8 3.8-1.5 3.7-3.8-.8a93.6 93.6 0 0 0-6 30H51l.1-2.4.2-3.2V64a38 38 0 0 1 2-10l2.8.1c2.4 0 2.4 0 4.6-1 .9-1.4.9-1.4 1.5-3.6h-1.5l.8-2.3 2.2.8c-.6 6.4-.6 6.4-2.2 9H60l-.8 1.5V57H57v-1.5h-1.5l-.8 4.5H57v1.6c-.4 13.4-.4 13.4 1.7 26.6.5 1.8.5 1.8.5 4l3-.7V93h3c1.6 3.5 1.6 3.5.7 6l-1.5-.8v2.3c-2.2 1.5-2.2 1.5-4.4 1.5l-.8-3.8 1.5-.7v-2.3h-1.5l-.7 2.3-1.5-.8c.1 2.6.1 2.6.7 5.3l1.4.7c2.2 1.1 3 2.7 4.5 4.7 2.5 3.6 4.8 6.3 8.3 8.8h1.5l1.5-1.5 4.5 3.8-.5 1.2-.6 1.6-.7 1.6c-.6 1.8-.6 1.8-.4 4.6a13.7 13.7 0 0 1-8.3.8c-1.9-1.6-1.9-1.6-3-3l.8-1.5H65c-3.7-.2-6.2-2.8-8.8-5.3-1.5-2-3-4-3-6.8L47 111l-1.8-.2a84 84 0 0 0-11.3-.5l-.8 2.2-.8-1.4c-1.3-1.8-1.3-1.8-3.5-2-4.4-2-6.2-7-8.2-11.3a64.7 64.7 0 0 1-3.1-13l-1.5.7c-.4 7 .7 13.5 4 19.7l.4 1.3-.7 1.5C14.4 102.4 9 94.1 9 86.2L7 85.5c.7-6.9.7-6.9 2.2-9l3-1.5v-2.7c0-11.8 0-11.8.8-17.5H15l.3-2c.5-2.7 1-5.2 2-7.8l1.4-.7c1.7-.7 1.7-.7 2.3-2.3l.5-1.8.5-1.8.5-1.6c.8-2.6 1.5-3.1 3.6-4.8 2-1.7 3.2-3 4.7-5.1 1.7-2.6 3.3-3.6 5.9-5.1l1.7-1.3c4.7-3.6 9.4-6.3 15.5-6.3v-1.4Z" fill="#8A9385"/><path d="M85.4 27.8v1.4l3.7.8v3l4.5 1.5v2.3l-4.5 1.5v1.5L87 39v-3l-2.6-.2-2.7-.5-1.5-2.3c-2.6-.6-2.6-.6-5.2-.8l.5 2.2.3 2.4-1.5 1.5v-1.5l-6.8-.8.8 2.3c1.5.5 1.5.5 3 .7l.7-1.5.8 3h-6.8v2.3l5.3.7v-2.3l3.7-.7v3l8.2.8V42h-4.5l-1.4-3 3.7-3 .7 1.5h3l.8 3.8.7-.8h5.3l-1.5-2.3 4.4 1.5c.6-1.7 1.1-3.4 1.5-5.2l.8 3 3-.8.7 3.8 1.5-2.3 2.3 1.5-1.5 3.8L101 42l-2.3.8v3l3.8.7V48l-3 1.5v2.3l-2.3.7c-4.3 3.9-6.1 7-6.7 12.8h1.5l.6-2.2c1-2.5 1.5-3.4 3.9-4.6 2.3-.2 2.3-.2 4.5 0l1.5 1.5-1.5.6-1.8.8-1.8.7c-1.9.9-1.9.9-3.2 3.1h1.5l1.5-3 1.5 1.5-.6 1.2c-3.1 5.7-2.6 10-.9 16.1l1.5-.8h4.5c.7-3 .9-6 1-9v-2.4c-.3-2.3-.7-2.9-2.5-4.3l-1.5-1.5 5.3-.8v1.5l1.5.8.9 3c.5 1.6.5 1.6 1.3 3 2.3.9 2.3.9 4.5.8l.7-3 .8 3 1.3-.8c1.7-.8 1.7-.8 4 0l2.2-.8 3 .8c.6 2.5.8 4.3 0 6.8h-1.6v1.5h1.5v3.7h-3l.8-3-1.5-.8V81l-1.5.8 1.5.7V84h1.5v1.5h-2.2l-.8 1.5H119l-1.5 3.8-2.2-.8-2.3.8v1.5h-2.2l-1.5-1.5-1.5-.8 3.7-6.8-2.2.8v-1.5c-2.6 2.4-2.6 2.4-4.5 5.3-2.6.7-4.2.8-6.8 0a16 16 0 0 1-6.3-10.2l-.3-4.8h2.2v-2.3h-2.2v-3.8h-1.5l.7 13.5h-1.5l-.7-.7V81l3.7.8.7 4.5h-1.4v1.5h1.4c1.3 1.5 1.3 1.5 2.3 3l-.8 1.5L90 90l.7.8v1.5l-1.5.7.8 1.5a14 14 0 0 1-9.1-6.5 27.3 27.3 0 0 1-2.9-13.8l-.1-2.1A26.8 26.8 0 0 1 83 54l1.5-2.3-2.2.8V54h-1.5l-.3 1.5-.5 1.5-1.5.8c-3.1 7.6-3.7 18-1.4 26 .9 2.1 1.9 4.1 3 6.2l.5 2c1.3 2.4 2.8 3.2 5.1 4.6l2.3 1.4 1.8 1c-3.7 1.1-6-.1-9.5-1.6-4.7-3.7-6.6-11.6-8.5-17.2v-8.9h-1.5v-9.8l-1.5.8v20.2l3 .8c1 2.8.6 5.3 0 8.2l-.7 1.5h-2.3v2.3h1.5v1.5l1.4-.5c1.6-.3 1.6-.3 3.9 1.2V99l1.8-1c3.5-.7 5 .3 8 2 1.7 1.6 1.9 2.7 2.1 5l-3 1.5v-3h-2c-2 0-3.6-.2-5.4-.8v3.8h6v1.5l2.2.8-1.8.2-2 .5-.7 1.5-.8-.8-.7 3h3l.3-1.4.4-1.5 1.5-.8 1.5.8v1.5l1.5.7c-.7 2.3-.7 2.3-2.4 3.5a8.9 8.9 0 0 1-5.8 1c-1.6-.9-1.6-.9-3-2l-1.6-1.3c-1.4-1.2-1.4-1.2-3-3a6.4 6.4 0 0 0-4.4-2v2.3h-2.2c-1.5-1.8-1.5-1.8-3-4-1.9-3-1.9-3-4.5-5l-.7-5.3h1.5l.7-1.5h1.5l.8 3.8-2.3-.8.8 3.8 4.4-1.5v-2.3H66l-.7-5.2h-3v-1.5l-3 .8C56.2 82 54.3 70.5 57 60h-2.3v-5.3l2.3.8V57h4.5l.3-1.6.4-2 .3-2.1c.4-1.8.4-1.8 1.2-3.3l-2.2.8c-1.2-1-1.2-1-2.3-2.3 0-3.9 1.7-8 3.7-11.3 2-1.3 2.9-1.5 5.3-1.5l1.7-1.7a14 14 0 0 1 7.3-3.8l2.7-.7c2.3-.5 3.4-.6 5.5.3Z" fill="#2D2315"/><path d="M70.5 8.8h1.7a602.8 602.8 0 0 1 8.7 0c6 0 11.5.1 17.2 2.4-2.9 1-4.8.4-7.7-.3-4.1-.8-8.3-.6-12.5-.5H75l-6.8.1.7 2.3 2.4.2c2.9.5 2.9.5 4.8 1.3 2.2.9 3.3.4 5.5 0 10.7-.8 22.2-.6 32.2 3.7v1.5l1.3.3c1.8.5 2.7 1 4 2.3l1.4 1 1.3 1.2 1.4 1.2 3.3 3V30l1.3.6c9 5 12 18.2 14.7 27.4.3 1.3.3 1.3 1.2 2 .7 4.4.9 8.8.9 13.2v2c0 5.5-.7 10.8-1.7 16.3h-1.5v2.3H140l-.7-1.5-3 .7-2.2-6.8-1.4 3.2c-1 2.5-2.1 4.6-3.9 6.6l-2.2-2.3-1.5.8V90l.7-.8.2-2.4c.6-2.8.6-2.8 2.4-4.6 2-1.2 2-1.2 4.2-1.2.7-4.4.9-8.8.9-13.3v-6c-.2-1.9-.8-3-1.7-4.7v-3h-3l1.5 3.8h-1.5v1.5l1.5.7-.7 1.5h-3l-.4-1.2-.6-1.7-.5-1.6c-.8-1.6-1.7-2.5-3-3.8l-.7-1.5c-.8-1.7-.8-1.7-3-3l.5-2c.3-3-.4-4.1-1.9-6.7l-1.2-2.1c-1.8-3.2-1.8-3.2-5-4.9v-2.3l-2.2-.7v-1.5h-1.4l-.8 1.5 2.2.8c-1.2.6-1.2.6-3 .7l-3-2.6c-4.8-3.7-11.2-5.3-17.2-5.5-1.4-.1-1.4-.1-3-.9h-3.7L77.3 20c-.9-1.6-1.5-2.7-3-3.8-3.7-1-6.6-.8-9.9 1l1.3.1c4 .4 7.2 1 10.7 3 .7 2 .7 2 .8 3.7l6-.8-1.6.8v1.5l-7.4 3V27a31.5 31.5 0 0 0-15 19.5h1.5v3h1.5l-.7 4.5c-3 .6-5.3.7-8.3 0v1.4l-.7 6.4-.2 2.2-.2 2.2-.1 2c-.3 1.5-.3 1.5-1 3h-5.2a77.1 77.1 0 0 1 5.2-30h4.5c.6-1.8.8-2.7.2-4.6-1-1.6-1-1.6-3.2-2.1l5.2-7.5-.7-.8v-1.4l2.3-.6a22 22 0 0 0 7.4-4l-3.8.8-1.4-2.3c-3 1-5.6 2.1-8.3 3.8h-1.5l1.5-3.8-3.7.8-1.5-2.3c2.5-1.6 3.3-1.6 6.2-1.4a19 19 0 0 0 8.7-1.6v-1.4h-6.7c4-4 9-4 14.3-4Z" fill="#D7D6BF"/><path d="M54 12.8h9v1.4l3 .8a47.8 47.8 0 0 1-14 1.4c-2 0-2 0-3.3 1.6 1.6.4 3 .8 4.5.8l-1.5 3.7 4.5.8v1.4L52.5 28c-2.6 2.4-4.7 5.2-6.7 8.1l2.2 1.5c-1 3-2 5.7-3.7 8.3h-1.5v1.5l2.2-.8c-.3 3.1-1 6-1.8 9-1.9 7.1-2.1 14.5-2.7 21.8H39V81h-3.7l.7-2.3h-4.4l-.8 1.5 3 3 1.5-.7c2.2.3 2.2.3 4.5 1.5.8 2.2 1.3 4 1.7 6.2l.4 1.7 1.6 9.3-3.7.8a509 509 0 0 1-1.9-3.6l-1-2c-.9-1.9-.9-1.9-.9-4.2l-5.3.4h-1.5c-3 .3-6 .6-8.9 1.2a66.3 66.3 0 0 1 2.3-46.5H24l-.5-1.4c-.3-1.6-.3-1.6.7-3l1.4-1.5 1.4-1.6 1.5-1.5C30 36.5 31 35 32.3 33c-.4-2.2-.4-2.2-1.5-3.8 4.2-4.3 4.2-4.3 6.7-6H39v-1.4l1.5-.8 1-1.8c1.6-2.5 3-2.8 5.8-3.7l2.3-.7c2.1-.6 2.1-.6 4.4-.6v-1.4Z" fill="#391F08"/><path d="m71.2 61.5-.8 9.8H72v1.6c.5 7.8 2.2 14.5 6.7 20.8V96l3.8 1.5 2 .8c3.5 1 7 1.2 10.7 1.5l-1.5 2.2c1.3 1.3 3.4 1 5.2 1.1 4.4.3 4.4.3 6 1.2l-.7 3.7h-7.5l1.5-3h-2.3v3.8h-2.2v1.5h-2.2l.7 1.5v6h13.5v.7h-1.7l-7.5.2h-5.1l-2.3.1c-2.7.6-4 1.5-5.9 3.5l-1.2 2.6c-1.7 3.2-4.4 4-7.7 5.1l-1.5.5 1 1c1.2 1.3 1.2 1.3 1.2 2.8h2.3l3 .2 1.5.1c3.2.2 6 .8 9 1.9l-2.3.8v1.4c-5 3.8-10 3.5-16 3.6H64c-1.8 0-1.8 0-2.6 1H50a6057.3 6057.3 0 0 1-40.9 0l.8-2.3h3v-1.5c4-.5 8-1 12-1.2h1.8c9.6-.5 19.2-.4 28.8-.3v-1.5l-1.5-.6a134 134 0 0 1-5.4-2.4l-1.6-.7c-1.2-.8-1.2-.8-2-3-1.1-1.3-1.1-1.3-2.2-2.3h3l-1.5-2.3v-3l-2.3-.7V120l-1.2-.5c-3.3-1.9-5.8-3.6-7.3-7.2l-.5-2c1.3-1.3 3-1 4.8-1 12.2.2 12.2.2 15.6 3.1 2.8 3.4 2.8 3.4 2.8 6.1l1.3.6c1.7.9 1.7.9 3.5 2.4 2 1.5 3.3 2 5.7 2.3v2.2c2.5 1.7 3.5 1.7 6.5 1.6h2.2l1.8-.1-.8-3.8h1.5V122c0-2 0-2 .7-3.5l-3.7-3-1.5 1.5c-3.7-1-5.2-3-7.5-6h1.5v-2.3c3.1.4 4.6 1.3 6.9 3.4 3 3 3 3 7 4.3 2 0 2 0 3.3-1.7H87l-.8-4.5-3 .8-.7 2.3h-3l-.8-3.8 4.5-.8v-2.2h-6l-.7-4.5c5.7.7 5.7.7 8.2 1.5l.8 2.3 1.5-1.5v-3l-2-.7c-2.5-.8-2.5-.8-4.5-1.7-1.7-.8-1.7-.8-3.3-.2-.5 0-1 .2-1.4.3l-2.3-2.3h-3v-1.5H69V93l1.1-1c1.5-1.6 1.5-2.6 1.7-4.8l.1-1.8.1-1.4-3-1.5V62.2l-2.2-.7c2.8-.8 2.8-.8 4.5 0Z" fill="#595B4D"/><path d="M98 36.8h1.6l.7 3.7 1.5-2.3 2.3 1.5-1.5 3.8L101 42l-2.3.8v3l3.8.7V48l-3 1.5v2.3l-2.3.7c-4.3 3.9-6.1 7-6.7 12.8h1.5l.6-2.2c1-2.5 1.5-3.4 3.9-4.6 2.3-.2 2.3-.2 4.5 0l1.5 1.5-1.5.6-1.8.8-1.8.7c-1.9.9-1.9.9-3.2 3.1h1.5l1.5-3 1.5 1.5-.6 1.2c-3.1 5.7-2.6 10-.9 16.1l1.5-.8h4.5c.7-3 .9-6 1-9v-2.4c-.3-2.3-.7-2.9-2.5-4.3l-1.5-1.5 5.3-.8v1.5l1.5.8.9 3c.5 1.6.5 1.6 1.3 3 2.3.9 2.3.9 4.5.8l.7-3 .8 3 1.3-.8c1.7-.8 1.7-.8 4 0l2.2-.8 3 .8c.6 2.5.8 4.3 0 6.8h-1.6v1.5h1.5v3.7h-3l.8-3-1.5-.8V81l-1.5.8 1.5.7V84h1.5v1.5h-2.2l-.8 1.5H119l-1.5 3.8-2.2-.8-2.3.8v1.5h-2.2l-1.5-1.5-1.5-.8 3.7-6.8-2.2.8v-1.5c-2.6 2.4-2.6 2.4-4.5 5.3-2.6.7-4.2.8-6.8 0a16 16 0 0 1-6.3-10.2l-.3-4.8h2.2v-2.3h-2.2v-3.8h-1.5l.7 13.5h-1.5l-.7-.7V81l3.7.8.8 4.5h-1.5v1.5h1.5l2.2 3-.8 1.5L90 90l.7.8v1.5l-1.5.7.8 1.5a14 14 0 0 1-9.1-6.5 27.3 27.3 0 0 1-2.9-13.8l-.1-2.1A26.3 26.3 0 0 1 83 54l2.3-2.3.7-2.2c3.7-2.5 7-2.5 11.2-2.3l-.7-1.3c-.9-2-.9-3.3-.8-5.4h1.5l.8-3.8Z" fill="#191104"/><path d="M84.6 120c.8 3 .8 3 .8 3.8l1.2-.4c2-.5 3.8-.5 5.8-.4H104.3c2 0 3.8-.3 5.7-.8-.3 2.9-.6 4.4-2.2 6.8h6l-2.3.8v1.4c-4 2-8 1.5-12.4 1.3-2.6 0-2.6 0-4 1.8l-.8 1.4 4.4-1.1c1.6-.3 1.6-.3 4.6-.3v1.4l-2.5 1.1a81 81 0 0 0-4.2 2l12 1.4v1.6H97.2v1.4h7.5l.8 1.6a132.7 132.7 0 0 1-22.8.8h-6c-2.6-.1-2.6-.1-5-.5-3.2-.4-5.9-.1-9 .2-3.3.3-6.7.4-10 .4l-4.5.1-6.8.1-6.7.1h-2.1c-3-.2-3-.2-5.6 1H.9v-9c18.2-.8 36.4-1.1 54.6-1.5v1.5l-15.3.6-5.3.3-7.5.3h-2.3c-4 .2-8.1.3-12.2.3v1.5l-1.5.3-1.5.4-.8 1.6a13902.2 13902.2 0 0 0 39-.5h3.6l4.9-.1h2.8c2 0 2 0 2.8-1l4.5-.1h2.8l5.9-.2h5.4c2.6-.4 4-1.2 6-2.7h1.6v-1.4l1.5-.8-1.4-.1-6-.8-2-.2c-5.1-.7-5.1-.7-7.6-3.1l-1-1.8 1.7-.6c5-2 7.4-3.4 9.5-8.4l1.5-1.5Z" fill="#BDC3B4"/><path d="M85.4 50.3c0 2.7-1 3.4-2.8 5.4-5.3 6.9-4.5 17-3.7 25.2.7 4 2.3 7.6 5 10.6a21 21 0 0 0 5.2 2.3l-.7-1.5h2.2v-1.5h-1.5l.8-1.5 4.4 2.2-1.4-3.8h-1.5v-1.5h1.5c-.6-2.2-.6-2.2-1.5-4.5-1.6-.7-1.6-.7-3-.7l-.8-4.5c1.5 2.3 1.5 2.3 1.5 3.8h1.5l-.4-1.2c-.5-2.5-.4-4.8-.4-7.3v-5.1h1.6v3.8h2.2v2.3h-2.2c1.4 7.3 1.4 7.3 5.2 13.5 2.7 1.5 5 1.6 8.2 1.5l.6-1.8c1-2 1-2 2.4-3 1.5-.5 1.5-.5 3.7.3l-.7 1.6c-.6 1.7-1.1 3.3-1.5 5.1l1.5.8v1.5h2.2v-1.5c2.8-1.5 2.8-1.5 4.5-1.5l.8-3.8h5.2V84H122v-1.5l-2.2-.8 2.2-.7v-2.3l2.2.8-.7 3h1.5l.7-3.8h-1.5v-1.5h1.5l.3-1.5c.5-2.4 1-4.5 2-6.7 2.2-1.2 3.5-1.5 6-1.5.3 9.5.3 9.5-1.5 13.5-2.3 1.3-2.3 1.3-4.5 2.3-1.7 2.5-1.6 3.7-1.5 6.7H125l.7 3.8 1.5-.8c1.5 2.3 1.5 2.3 1.5 4.5h-2.2V99a508.8 508.8 0 0 1-7.5-.4c-2.2-.3-2.2-.3-3.7-1.8l-.8-1.5.8-1.5h-1.5l-.8 3.7h-1.5l-.5 1.8c-1 2-1 2-2.5 2.6l-1.4.1.7 3.8h1.5l-.8 3.7-6.7.8v-.8l-6-.8V105h2.3l.7 2.3 5.3.7.7-3.8-17.2-1.5v-.7l4.6-.5c1.4-.1 1.4-.1 2.1-1l-1.2-.3c-4.7-1.4-10.4-3.3-13-7.8l-1-3c-.5-1.8-1.2-3-2-4.5-3.5-7.5-2-17.9 0-25.5.8-1.6.8-1.6 3-3.1L81 54h1.5v-1.5l3-2.3Z" fill="#939587"/><path d="M53.2 60H57v1.6c-.4 13.4-.4 13.4 1.7 26.6.5 1.8.5 1.8.5 4l3-.7V93h3c1.6 3.5 1.6 3.5.7 6l-1.5-.8v2.3c-2.2 1.5-2.2 1.5-4.4 1.5l-.8-3.8 1.5-.7v-2.3h-1.5l-.7 2.3-1.5-.8c.1 2.6.1 2.6.7 5.3l1.4.7c2.2 1.1 3 2.7 4.5 4.7 2.5 3.6 4.8 6.3 8.3 8.8h1.5l1.5-1.5 4.5 3.8-.5 1.2-.6 1.6-.7 1.6c-.6 1.8-.6 1.8-.4 4.6a13.7 13.7 0 0 1-8.3.8c-1.9-1.6-1.9-1.6-3-3l.8-1.5H65c-3.7-.2-6.2-2.8-8.8-5.3-1.5-2-3-4-3-6.8h-1.5a3288.8 3288.8 0 0 1-5.4-10.6c-1.6-3.1-2.5-6-3.2-9.4l-1.2-4.8c-.6-2.9-.9-5.2-.6-8.2l1.5-2.2V78l1.5-.8.7-5.2h1.5v1.5h2.2l1.1 6.4.3 1.8c.7 3.7 1.2 7.5 1.6 11.3-2.2 1.5-2.2 1.5-4.4 1.5V99h5.2l1.5-5.3h1.5l.7 1.5c0-2.2-.3-3.4-1-5.5-1.9-6-2.8-12.2-2.7-18.5h2.2v-7.5h-1.5V60Z" fill="#B8BFB2"/><path d="m40.5 18.8.8 2.2-2.3.8v1.4c-1.6 1.3-3.4 2.3-5.2 3.4-1.7 1-1.7 1-2.2 3.4.6 1.6.6 1.6 1.4 3l-3.2 4.4-.9 1.2a31.4 31.4 0 0 1-4 4.6c-1.2 1.2-1.2 1.2-.8 4h-1.5A68.5 68.5 0 0 0 19.8 88c.5 2 .6 3.7.5 5.8l2-.8c2.8-.8 5.4-1 8.4-.8H36l2 4 1 2.1c.8 2.2 1 3.7.8 6l1.5.7v3l-5.3.8v-1.5l-2.2-.8-2.2-1.5.7-3h-1.5l.2 1.7c-.2 2-.2 2-2 3.7l-2 1.3a56 56 0 0 1-9.6-24l-1.5.8c-.4 7 .7 13.5 4 19.7l.4 1.3-.7 1.5C14.4 102.4 9 94.1 9 86.2L7 85.5c.7-6.9.7-6.9 2.2-9l3-1.5v-2.7c0-11.8 0-11.8.8-17.5H15l.3-2c.5-2.7 1-5.2 2-7.8l1.4-.7c1.7-.7 1.7-.7 2.3-2.3l.5-1.8.5-1.8.5-1.6c.8-2.6 1.5-3.1 3.6-4.8 2-1.7 3.2-3 4.7-5.1a16 16 0 0 1 5.9-5.1l3.7-3Z" fill="#B0B19E"/><path d="m58.5 60 3.7 1.5-1.5 1.5-2.2-.8V66l4.4 2.3V70c-.2 1.8-.2 1.8.8 2.7 0-3 0-5.5-.8-8.3l-2.2-.8H66l-.7-2.2 3.7.8v20.2l3 .8c1 2.8.6 5.3 0 8.2l-.7 1.5h-2.3v2.3h1.5v1.5l1.4-.5c1.6-.3 1.6-.3 3.9 1.2V99l1.8-1c3.5-.7 5 .3 8 2 1.7 1.6 1.9 2.7 2.1 5l-3 1.5v-3h-2c-2 0-3.6-.2-5.4-.8v3.8h6v1.5l2.2.8-1.8.2-2 .5-.7 1.5-.8-.8-.7 3h3l.3-1.4.4-1.5 1.5-.8 1.5.8v1.5l1.5.7c-.7 2.3-.7 2.3-2.4 3.5a8.9 8.9 0 0 1-5.8 1c-1.6-.9-1.6-.9-3-2l-1.6-1.3c-1.4-1.2-1.4-1.2-3-3a6.4 6.4 0 0 0-4.4-2v2.3h-2.2c-1.5-1.8-1.5-1.8-3-4-1.9-3-1.9-3-4.5-5l-.7-5.3h1.5l.7-1.5h1.5l.8 3.8-2.3-.8.8 3.8 4.4-1.5v-2.3H66l-.7-5.2h-3v-1.5l-3 .8C57.2 85.2 56 78.5 56 71v-2c0-3.7.3-6.1 2.6-9.1Z" fill="#1C1C12"/><path d="m67.4 9.7-3 2.3 1.4.7c1.6.8 1.6.8 3.9 2.3l-6.8 2.3 2.2-.2c3.7 0 7.3.7 10.6 2.4 1.2 2.4 1.2 2.4 1.5 4.5l6-.8-1.6.8v1.5l-7.4 3V27a31.5 31.5 0 0 0-15 19.5h1.5v3h1.5l-.7 4.5c-3 .6-5.3.7-8.3 0v1.4l-.7 6.4-.2 2.2-.2 2.2-.1 2c-.3 1.5-.3 1.5-1 3h-5.2a77 77 0 0 1 5.2-30h4.5c.6-1.8.8-2.7.2-4.6-1-1.6-1-1.6-3.2-2.1l5.2-7.5-.7-.8v-1.4l2.3-.6a22 22 0 0 0 7.4-4l-3.8.8-1.4-2.3c-3 1-5.6 2.1-8.3 3.8h-1.5l1.5-3.8-3.7.8-1.5-2.3c2.5-1.6 3.3-1.6 6.2-1.4a19 19 0 0 0 8.7-1.6v-1.4h-6.7c3.5-3.5 6.5-3.1 11.2-3Z" fill="#BDC2B4"/><path d="M91.4 57h1.4l-.7 1.2c-1 2.3-1.2 4.5-1.5 7h1.5l.6-2c1-2.6 1.5-3.5 3.9-4.7 2.3-.2 2.3-.2 4.5 0l1.5 1.5-1.5.6-1.8.8-1.8.7c-1.9.9-1.9.9-3.2 3.1h1.5l1.5-3 1.5 1.5-.6 1.2c-3.1 5.7-2.6 10-.9 16.1l1.5-.8h4.5c.7-3 .9-6 1-9v-2.4c-.3-2.3-.7-2.9-2.5-4.3l-1.5-1.5 5.3-.8v1.5l1.5.8.9 3c.5 1.6.5 1.6 1.3 3 2.3.9 2.3.9 4.5.8l.7-3 .8 3 1.3-.8c1.7-.8 1.7-.8 4 0l2.2-.8 3 .8c.6 2.5.8 4.3 0 6.8h-1.6v1.5h1.5v3.7h-3l.8-3-1.5-.8V81l-1.5.8 1.5.7V84h1.5v1.5h-2.2l-.8 1.5H119l-1.5 3.8-2.2-.8-2.3.8v1.5h-2.2l-1.5-1.5-1.5-.8 3.7-6.8-2.2.8v-1.5c-2.6 2.4-2.6 2.4-4.5 5.3-2.6.7-4.2.8-6.8 0a16 16 0 0 1-6.3-10.2l-.3-4.8h2.2v-2.3h-2.2v-3.8h-1.5c-1.3-1.5-1.3-1.5-2.3-3l1.5-.7.8-3.8 1.5-2.2Z" fill="#572903"/><path d="m71.2 61.5-.8 9.8H72v1.6c.5 7.8 2.2 14.5 6.7 20.8V96l3.8 1.5 2 .8c3.5 1 7 1.2 10.7 1.5l-1.5 2.2c1.3 1.3 3.4 1 5.2 1.1 4.4.3 4.4.3 6 1.2l-.7 3.7h-7.5l1.5-3h-2.3v3.8h-2.2v1.5h-2.2l.7 1.5v6h13.5v.7h-1.7l-7.5.2h-5.1l-2.3.1c-2.7.6-4 1.5-5.9 3.5l-1.2 2.6c-1.7 3.2-4.4 4-7.7 5.1l-1.5.5 1 1c1.2 1.3 1.2 1.3 1.2 2.8l8.2.7v1.5c-4.3 1.2-8.5.5-12.7-.8-1.3-1-1.3-1-2.2-2.2V132l-3-.8 2.2-.6c2.4-.6 2.4-.6 3-2.3 1.6-.4 1.6-.4 3.4-.5l2-.2 1.4-.1-.8-3.8h1.5V122c0-2 0-2 .7-3.5l-3.7-3-1.5 1.5c-3.7-1-5.2-3-7.5-6h1.5v-2.3c3.1.4 4.6 1.3 6.9 3.4 3 3 3 3 7 4.3 2 0 2 0 3.3-1.7H87l-.8-4.5-3 .8-.7 2.3h-3l-.8-3.8 4.5-.8v-2.2h-6l-.7-4.5c5.7.7 5.7.7 8.2 1.5l.8 2.3 1.5-1.5v-3l-2-.7c-2.5-.8-2.5-.8-4.5-1.7-1.7-.8-1.7-.8-3.3-.2-.5 0-1 .2-1.4.3l-2.3-2.3h-3v-1.5H69V93l1.1-1c1.5-1.6 1.5-2.6 1.7-4.8l.1-1.8.1-1.4-3-1.5V62.2l-2.2-.7c2.8-.8 2.8-.8 4.5 0Z" fill="#5E5A4C"/><path d="M134 41.3c2.2 1.9 3.3 4 4.4 6.7v1.5h1.5l.7 2.1.8 2.7.8 2.7c.5 2.1.5 2.1 1.5 3 .7 4.4.9 8.8.9 13.2v2c0 5.5-.7 10.8-1.7 16.3h-1.5v2.3H140l-.7-1.5-3 .7-2.2-6.8-1.4 3.2c-1 2.5-2.1 4.6-3.9 6.6l-2.2-2.3-1.5.8V90l.7-.8.2-2.4c.6-2.8.6-2.8 2.4-4.6 2-1.2 2-1.2 4.2-1.2.7-4.4.9-8.8.9-13.3v-6c-.2-1.9-.8-3-1.7-4.7v-3l-2.2-.8c2.8 0 3.7.2 6 1.5l-.6-2-.6-2.6-.7-2.6c-.4-2.4-.3-4 .4-6.3Z" fill="#C6CABA"/><path d="M37.5 32.3h.8V36H36l-1.5 7.5h5.3l1.5-.8c-1.4 3-1.4 3-2.3 3.8l-4.9.4-2.7.2-2 .1-.8 2-1.4 4.3A57 57 0 0 0 24.8 69l12.7-.8-.7 5.3c-1.9 1-3.2.8-5.3.8h-3.7v3h-1.5c-.7 3.8-.6 7 0 11 0 2-.2 3-1.5 4.7-2.3.6-2.3.6-4.5.8a66.3 66.3 0 0 1 2.3-46.5H24l-.5-1.4c-.3-1.6-.3-1.6.7-3l1.4-1.5a37 37 0 0 0 4.8-6.1c1.8-2.3 1.8-2.3 4.2-2.6l2 .3.8-.8Z" fill="#A8630E"/><path d="M113.8 93.8h1.5V96c3 1.5 6.3 1.8 9.7 2.3l-3 .7-.2 1.6a29 29 0 0 1-2.7 6.7l-1.2 2.3c-1 1.9-2 3.5-3.4 5.2H113l-.2 1.3c-.8 3.4-1.6 6.6-2.8 9.9l-1.5-1.5h1.5l-.7-1.5-1.2.4c-2 .4-3.8.4-5.9.4H95l-2.4-.1h-2.1c-2 0-3.8.3-5.8.8l1.5-5.3 6-1.5-.7-7.5h2.2v-1.5h7.1c4 0 4 0 5.6.8h2.2l.8-3.8h-1.5l-.7-3.7 1.4-.6c1.8-1 2.3-2 3-3.9h1.5l.8-3.8Z" fill="#D4D6C5"/><path d="M74.7 15.9c2 1.5 2.9 3 4 5.1v1.5l1.4-.4c4-.6 7.8-1.2 11.3 1.1l2.7 1.3 2.5 1v3l2.2.8v3l2.3.7v1.5l3 .8v2.2l3 1.5v2.3h-1.5c.3 1.6.7 3 1.5 4.5h-8.3l-.7-3.8a66 66 0 0 1 3.7-.8l.8.8.7-2.3c-1.5 0-1.5 0-3 .8l-.7-3.8-3 .8-.8-2.3.2 1.8-.2 2-2.2 1.5V39h-3l2.3 1.5-4.5.8v.7h-3.8v-4.5l-5.2-.8-1.5 3c1.8 1.8 2.8 2 5.2 2.3v2.3l-8.2-.8-.7-2.3h-3v2.3l-5.3-.8v-2.2l6-.8-4.5-1.5V36l7.5.8v-4.5c2.3-.8 2.3-.8 4.2-.2 1.8.9 1.8.9 2.5 2.4L87 36l.3 1.5.4 1.5 1.5.8-.7-2.3 5.2-1.5-.7-1.5-3-.8-.8 1.5V33l-1.5-.8.8-1.5-1.5-.6c-1.5-.9-1.5-.9-2.3-2.4-7 1.3-12.6 2.6-18 7.6L64.5 33c6.8-5.3 6.8-5.3 10.5-5.3l3.6-1 1.8-.7 1.3-.5V24l-5.2.8.8-2.3-2.3-.8h1.5c-1.7-2.3-3.8-2.8-6.6-3.4-2.5-.4-5-.4-7.6-.3 3.2-3.7 8.1-4 12.5-2.1Z" fill="#453119"/><path d="M45 46.5c-.3 3.1-1 6-1.8 9-1.9 7.1-2.1 14.5-2.7 21.8H39V81h-3.7l.7-2.3h-4.4l-.8 1.5 3 3 1.5-.7c2.2.3 2.2.3 4.5 1.5.8 2.2 1.3 4 1.7 6.2l.4 1.7 1.6 9.3-3.7.8-1.9-3.6-1-2c-.9-1.9-.9-1.9-.9-4.2H24.8l.8-4.5a117 117 0 0 0-.7-7c0-2 0-2 1.4-4.2l1.5.8v-3l9-.8.7-5.3H39v-1.4c-.3-6.4 1.2-12 3-18-4.2.3-8 .6-12 2.2l.8-3c4-2 9.7-1.6 14.2-1.5Z" fill="#444B45"/><path d="M96.6 25.5c2.8.7 4.7 1.6 6.9 3.5 1.9 2 1.9 2 4.3 1.8l-1.5-.8.8-2.3a35 35 0 0 1 3.7 3V33l1.3.2c3.3 1.1 4.6 5 6.2 8 1.2 2.9 1.8 4.6.7 7.5l1.5 1c1.8 1.6 2 2.6 2.3 5l2.2.8c-2 1-3 1.5-5.2 1.5l.4 2a10 10 0 0 1-.4 5.5h-2.3V66l-3 .8a827 827 0 0 1-.4-4.8l-.2-2.6c-.1-2.4-.1-2.4.6-4.6l-2.7-.7c-2.7-.6-4.8-1.4-7-3.1v-1.5l-1.5-.8 2.8-.7 1.6-.4c1.6-.4 1.6-.4 4.6-.4v-1.5L110 45l-1.5-4.5c-.6-1.7-.6-1.7-2.6-2.2l-1.8-.8-.8-2.3-2.2-.7V33l-1.5-.3-1.5-.5-.8-1.5h1.5v-1.4l-3-.8.8-3Z" fill="#A6A38A"/><path d="m69.7 90.8 1.5 2.2h-2.3v2.3h1.5v1.5l1.4-.5c1.6-.3 1.6-.3 3.9 1.2V99l1.8-1c3.5-.7 5 .3 8 2 1.7 1.6 1.9 2.7 2.1 5l-3 1.5v-3h-2c-2 0-3.6-.2-5.4-.8v3.8h6v1.5l2.2.8-1.8.2-2 .5-.7 1.5-.8-.8-.7 3h3l.3-1.4.4-1.5 1.5-.8 1.5.8v1.5l1.5.7c-.7 2.3-.7 2.3-2.4 3.5a8.9 8.9 0 0 1-5.8 1c-1.6-.9-1.6-.9-3-2l-1.6-1.3c-1.4-1.2-1.4-1.2-3-3a6.4 6.4 0 0 0-4.4-2v2.3h-2.2c-1.5-1.8-1.5-1.8-3-4-1.9-3-1.9-3-4.5-5l-.7-5.3h1.5l.7-1.5h1.5l.8 3.8-2.3-.8.8 3.8 4.4-1.5v-2.3H66V93h1.5v-1.5l2.3-.8Z" fill="#474F48"/><path d="M54 12.8h9v1.4l3 .8a47.8 47.8 0 0 1-14 1.4c-2 0-2 0-3.3 1.6 1.6.4 3 .8 4.5.8l-1.5 3.7 1.5.8-2 1.8c-5.2 4.4-5.2 4.4-8.3 10.3v4.1c-.1 1.8-.1 1.8-1.1 3-1.3 1.1-1.3 1.1-3.5 2.5v-1.5h-3.8L36 36h2.3l-.8-3-.7.8H33l-2.2-4.5c4.2-4.4 4.2-4.4 6.7-6H39v-1.6l1.5-.7 1-1.8c1.6-2.5 3-2.8 5.8-3.7l2.3-.7c2.1-.6 2.1-.6 4.4-.6v-1.4Z" fill="#41483F"/><path d="M64.4 9A1321 1321 0 0 1 79 8.8c13-.2 13-.2 19.2 2.4-2.9 1-4.8.4-7.7-.3-4.1-.8-8.3-.6-12.5-.5H75l-6.8.1.7 2.3 2.4.2c2.9.5 2.9.5 4.8 1.3 2.2.9 3.3.4 5.5 0 2.7-.2 5.3-.2 8-.2h2.2c5 0 9.7.4 14.5 1.7v.7h-12l4 2.5 2.2 1.5c2 1.2 2 1.2 3.7 2 3.8 2 6.8 6.7 8.8 10.5h-2.2v-2.3l-2.3-.7v-1.5h-1.4l-.8 1.5 2.2.8c-1.2.6-1.2.6-3 .7l-3-2.6c-4.8-3.7-11.2-5.3-17.2-5.5-1.4-.1-1.4-.1-3-.9h-3.7l-1-2.4c-1.8-3.4-4.5-4.2-8.1-5.3-2-.5-3.9-1-5.8-1.3l-.8-2.3 1.5-1.5V9Z" fill="#D4D4C3"/><path d="M37.8 109.4c12.2 0 12.2 0 15.6 3 2.8 3.4 2.8 3.4 2.8 6.1l1.3.6c1.7.9 1.7.9 3.5 2.4 2 1.5 3.3 2 5.7 2.3v2.2l1.5 1.5c-3.6 0-7.2.1-10.8-.4-2.5-.5-2.5-.5-4.3.2l-1.4.2a11.9 11.9 0 0 1-4.4-6l-1.6.2c-3-.3-4.3-1.4-6.7-3.2l-1.2-.9a11 11 0 0 1-4.8-7.3c1.3-1.3 3-1 4.8-1Z" fill="#533F28"/><path d="M53.2 60H57v1.6c-.4 13.4-.4 13.4 1.7 26.6.5 1.8.5 1.8.5 4l3-.7V93h3c1.6 3.5 1.6 3.5.7 6l-1.5-.8v2.3c-2.2 1.5-2.2 1.5-4.4 1.5l-.8-3.8 1.5-.7v-2.3h-1.5l-.7 2.3-1.5-.8c.1 2.6.1 2.6.7 5.3l1.4.7c2.2 1.1 3 2.7 4.5 4.7 2.5 3.6 4.8 6.3 8.3 8.8h1.5l1.5-1.5 4.5 3.8-.5 1.2-.6 1.6-.7 1.6c-.6 1.8-.6 1.8-.4 4.6l-3-1.5v-2.3l-.8-3.7-3 .8-1.2-1.7c-1.6-2.1-1.6-2.1-3.5-3.4-2.3-2-3.8-4-5.4-6.4l-.9-1.3c-5.8-8.8-5.8-8.8-6.2-12l.8-2.3h1.5l.7 1.5c0-2.2-.3-3.4-1-5.5-1.9-6-2.8-12.2-2.7-18.5h2.2v-7.5h-1.5V60Z" fill="#ADB4A7"/><path d="m15.1 82.5.8 2.3h1.5l2.9 8.5c1 3.3 2.3 6.4 3.8 9.5l.7 1.5c1.2 2.5 1.9 3.6 4.5 4.5l2.3.7c3 3.2 3 3.2 3 5.3l1.2.5c2.3 1.3 4.2 3 6.2 4.7l1.3 1c1.5 2 1.8 4.2 2.5 6.5l1.5.8h-3.8l2.3 1.4-.8 1.6c-11.7-7.4-11.7-7.4-15.7-11.3v-1.5l-2.2-.8V114l3.7-1.5v5.3l2.2-2.3-1.4-1.5-1.5-3-2.3 1.5-3 1.5c-1.1-1-1.1-1-2.2-2.3v-2.2h-2.3c-4-9.3-5.2-16.9-5.2-27Z" fill="#E3E1CC"/><path d="m75 48.8.7 1.5-2.3 3 3.8 1.5 1.4-3.8 4.5.8v-1.5l2.3.7-3 1.5V54h-1.5l-.3 1.5-.5 1.5-1.5.8c-3.1 7.6-3.7 18-1.4 26 .9 2.1 1.9 4.1 3 6.2l.5 2c1.3 2.4 2.8 3.2 5.1 4.6l2.3 1.4 1.8 1c-3.7 1.1-6-.1-9.5-1.6-4.7-3.7-6.6-11.6-8.5-17.2v-8.9h-1.5v-9.8h-3.7l2.2-.8.8-4.5h1.5V54l-5.3-.8c1.5-1.5 1.5-1.5 3.5-1.5h1.8v-1.5l1.4-.3c1.5-.3 1.5-.3 2.3-1.1Z" fill="#834709"/><path d="m92.8 105 2.3.8v3h-1.5v1.5h-2.2l.7 1.5v6h13.5v.7h-1.7l-7.5.2h-5.1l-2.3.1c-2.7.6-4 1.5-5.9 3.5l-1.2 2.6c-1.7 3.2-4.4 4-7.7 5.1l-1.5.5 1 1c1.2 1.3 1.2 1.3 1.2 2.8l8.2.7v1.5c-4.3 1.2-8.5.5-12.7-.8-1.3-1-1.3-1-2.2-2.2V132l-3-.8 2.2-.6c2.4-.6 2.4-.6 3-2.3 1.6-.4 1.6-.4 3.4-.5l2-.2 1.4-.1-.8-3.8h1.5V122c0-2 0-2 .7-3.5l-3.7-3-1.5 1.5c-3.7-1-5.2-3-7.5-6h1.5v-2.3c3.1.4 4.6 1.3 6.9 3.4 3 3 3 3 7 4.3 2 0 2 0 3.3-1.7H87l-.2-1.4-.3-1.8-.3-1.9V108c1.5-1.5 1.5-1.5 4.2-1.6l2.5.1V105Z" fill="#6C7367"/><path d="m60.7 37.5 1.5.8-3 8.2h1.5v3h1.5l-.7 4.5c-3 .6-5.3.7-8.3 0v1.4l-.7 6.4-.2 2.2-.2 2.2-.1 2c-.3 1.5-.3 1.5-1 3h-5.2a77 77 0 0 1 5.2-30h4.5l1.5-1.5c1.6.3 1.6.3 3 .8l.7-3Z" fill="#B5BBAD"/><path d="M134 67.5c.3 9.5.3 9.5-1.5 13.5-2.3 1.3-2.3 1.3-4.5 2.3-1.7 2.5-1.6 3.7-1.5 6.7H125l.7 3.8 1.5-.8c1.5 2.3 1.5 2.3 1.5 4.5h-2.2V99a508.8 508.8 0 0 1-7.5-.4c-2.2-.3-2.2-.3-3.7-1.8l-.8-1.5.8-1.5h-1.5l-.8 1.5-1.5-.8v-2.3h1.5v-1.5c2.8-1.5 2.8-1.5 4.5-1.5l.8-3.7h5.2V84H122v-1.5l-2.2-.8 2.2-.7v-2.3l2.2.8-.7 3h1.5l.7-3.8h-1.5v-1.5h1.5l.3-1.5c.5-2.4 1-4.5 2-6.7 2.2-1.2 3.5-1.5 6-1.5Z" fill="#5F5F4B"/><path d="m55.5 136.5 5.2 1.5-.7 1.5-4.5.8 27.6.7v.8h-1.9a2717.5 2717.5 0 0 0-14.3.5h-2.7c-2 0-2 0-2.7 1H50a6057.3 6057.3 0 0 1-40.9 0l.8-2.3h3v-1.5c4-.5 8-1 12-1.2h1.8c9.6-.5 19.2-.4 28.8-.3v-1.5Z" fill="#71796C"/><path d="m113 54 2.3.8-.4 1.6a34 34 0 0 0-.4 6.5V66.8l3-.8v-1.5h2.3V60l-.8-.8v-3.7l.8 1.5 5.2-.8c1 2 1.5 3 1.5 5.3h3l-.8-3.8h1.5l-1.5-3.7h3c1.9 4.7 2.5 8.5 2.3 13.5l-1.3.4c-1.7.5-3.2 1-4.7 1.8-.9 2-.9 2-.8 3.8l-1.5-3h-5.2l-.7 1.5v-1.5l-4.5.8-.8-2.3-.7 2.3h-1.5l-.4-1.5c-1.4-5-3.1-9.2-7-12.8l.7-2.3v1.5l1.3.5c2.3 1.4 3.3 3.3 4.6 5.5.1-2.1.1-2.1-.4-3.7l-.3-1.5 2.2-2.3V54Z" fill="#5B4D31"/><path d="M93.6 15.8c5.8-.4 9.5.2 14.5 3.4l1.2 1v1.6l1.8.5c2.3 1.1 2.4 1.7 3.4 4 1.4.8 1.4.8 3 1.4l3 2.3v1.5l2.3.8 1.4 3.7 2.3.8c1.1 1.6 1.1 1.6 2.2 3.7l1.2 2 1.2 2.2 1.2 2.2c1 1.9 1 1.9 1 4.1-2.2-.3-3-.6-4.4-2.2-1-1.5-1-1.5-1-3h-1.4c-3-3.4-3-3.4-3-5.3H122l-3-3h-1.5V36H116v-1.5h-1.5V33l-2.2-.8c-1.1-1.2-1.1-1.2-2.2-2.8a23.7 23.7 0 0 0-9.4-8.4c-2.9-1.4-5-2.9-7.1-5.3Z" fill="#F8F6E4"/><path d="M105.6 63c1.6 1.6 1.8 2.4 2.4 4.5.5 1.7.5 1.7 1.3 3 2.3.9 2.3.9 4.5.8l.7-3 .8 3 1.3-.8c1.7-.8 1.7-.8 4 0l2.2-.8 3 .8c.6 2.5.8 4.3 0 6.8h-1.6v1.5h1.5v3.7h-3l.8-3-1.5-.8V81l-1.5.8 1.5.7V84h1.5v1.5h-2.2l-.8 1.5-3-2.3V87h-2.2l-.8 2.3-2.2.7-1.5-.8V87h3v-2.3h1.5v-3H113l.8-8.2h-1.5l-.8 2.3-2.2-.8-.8 2.3c-1.5.5-1.5.5-3 .7l-.2-2.4-.3-3-.2-1.7c-.4-3-.4-3-1.8-5.5l-1.2-.9-1.5-1.5c2.3-.7 3-.8 5.3 0Z" fill="#413217"/><path d="m27.8 43.5 2.3.8v1.5h-2.3a59.7 59.7 0 0 0-5.4 24.6v2.2c0 3.6 0 3.6 1 6.9h1.4l.9 5 .4 3c.2 2.5.2 2.5-.2 4.3-1.6 1.8-3.2 1.7-5.6 2a66.3 66.3 0 0 1 2.3-46.5H24v-1.5l3.7-.8v-1.5Z" fill="#E28814"/><path d="m54.7 136.5.8 1.5-15.3.6-5.3.3-7.5.3h-2.3c-4 .2-8.1.3-12.2.3v1.5l-1.5.3-1.5.4-.8 1.6a13902.2 13902.2 0 0 0 39-.5h3.6l4.9-.1h2.8c2 0 2 0 2.8-1l4.5-.1h2.8l5.9-.2h5.4c2.6-.4 4-1.2 6-2.7h1.6v-1.4h4.5l.7 1.4-3 .8 2.3 2.3c-2.4.7-4.1.8-6.5 1h-5.2l-5.2.2-2.3.1-5.7.5c-3.3.4-6.6.6-10 .6l-1.7.1-10 .3-8.4.2a3051.2 3051.2 0 0 0-29 .7l-1.7.1c-2.8 0-3.9 0-6.3-1.6-.3-2 0-4 0-6 18-.8 35.9-1.1 53.8-1.5Z" fill="#99A296"/><path d="M40.5 66.8h.8v1.4c0 2.3.2 4.5.3 6.8v2.3c.2 4.5.7 8.4 2 12.7l.4 2.3c1 4.7 2.5 8.4 5.2 12.4 1.2 2 1.9 4 2.5 6.3l-2.4-.2-3.2-.2h-1.5c-3.6-.3-7.2-.4-10.8-.3l-.8 2.2-.9-1.5c-1.4-1.7-2.1-2-4.3-2.3l1.5-3h1.5V102h1.5v3h2.2v1.5l1.5.8v1.5l5.3-.8v-3l-2.3-.8.8-2.2 3.7-.8-.8-2.6-1-3.4-.5-1.8c-1-3.1-1.7-6.2-2.2-9.4-2.1-.5-2.1-.5-4.5-.8L33 84.8l-.7-3-5.2-.7c1.5-2.3 1.5-2.3 3.2-2.6l2-.2 2.2-.1L36 78l.8 1.5h-1.5V81H39v-3.8h1.5V66.8Z" fill="#ABA78B"/><path d="m93.6 108.8 6 .7v.8l-3.8.7-.7 2.3h4.5l.7 3 12 .7c-.6 3.3-1.2 6-2.3 9l-1.5-1.5h1.5l-.7-1.5-1.2.4c-2 .4-3.8.4-5.9.4H95l-2.4-.1h-2.1c-2 0-3.8.3-5.8.8l1.5-5.3 6-1.5-.7-7.5h2.2v-1.5Z" fill="#CACDBE"/><path d="M63.4 39h1.8l-1.5.8V45l1.5-.8c1.9-.9 2.5-.5 4.5 0v1.5l.7.8-.7 3V48l-5.3.8V51l1.5.8v.7l5.3.8.7 3.7-2.2-.8-.2 2.2c-.6 2.4-.6 2.4-2.1 3.4l-1.5.5v1.5l-3 .7.8 2.4c1 3.5 1 3.5 0 5.8l-2.2-.7.7-3.8-4.5-2.2.8-3.8h3l-3-1.5-1.5.8V60h-2.3v-5.3l2.3.8V57h4.5l.3-1.6.4-2 .3-2.1c.4-1.8.4-1.8 1.2-3.3l-2.2.8c-1.2-1-1.2-1-2.3-2.3 0-1.7 0-1.7.6-3.5l.4-1.8C61 39 61 39 63.4 39Z" fill="#171006"/><path d="m92.1 140.3 5.2 1.4v1.6h7.5l.8 1.4a132.7 132.7 0 0 1-22.8.9h-6c-2.6-.1-2.6-.1-5-.5-3.2-.4-5.9-.1-9 .2-3.3.3-6.7.4-10 .4l-4.5.1-6.8.1-6.7.1h-2.1c-3-.2-3-.2-5.6 1H.9l.8-3 1.8.4c2.9.4 5.6.4 8.4.3h1.7l5.5-.2h3.8a5407 5407 0 0 0 30.2-.9c6-.1 12-.3 18-1.1l5.3-.2 2.8-.1 2.9-.1 2.9-.1 7.1-.3v-1.4Z" fill="#B6BCAE"/><path d="M74.7 15.9c2 1.5 2.9 3 4 5.1v1.5l1.4-.4c4-.6 7.8-1.2 11.3 1.1l2.7 1.3 2.5 1v3l-1.5.8c-.5 1.8-.5 1.8-.8 3.7h-2.2v-3l-2.5.1C87 30 87 30 85.8 28.8c-1.1-1.2-1.1-1.2-2.8-1-6.4 1.5-11.4 2.9-16.3 7.4L64.4 33c6.8-5.3 6.8-5.3 10.5-5.3l3.6-1 1.8-.7 1.3-.5V24l-5.2.8.8-2.3-2.3-.8h1.5c-1.7-2.3-3.8-2.8-6.6-3.4-2.5-.4-5-.4-7.6-.3 3.2-3.7 8.1-4 12.5-2.1Z" fill="#666A5F"/><path d="M98 36.8h1.6l.7 3.7 1.5-2.3 2.3 1.5-1.5 3.8L101 42l-2.3.8v3l3.8.7V48l-3 1.5v2.3l-2.3.7-1.8 1.9c-1.9 1.9-1.9 1.9-4.1 2.6l-.8 2.3h-2.2l-.8 1.5-3 .7-.7-3.8-3 .8c1-3 2.2-4.6 4.5-6.8l.7-2.2c3.7-2.5 7-2.5 11.2-2.3l-.7-1.3c-.9-2-.9-3.3-.8-5.4h1.5l.8-3.8Z" fill="#252114"/><path d="M42 120c3.6.7 5.3 1.2 7.4 4.3 1.1 1.4 1.1 1.4 2.3 2.5 2.4-.1 2.4-.1 4.1-.5 2.7-.4 5.2 0 7.8.4l3 .4c2.3.4 2.3.4 3.8 1.2l-.7 2.2-2.3.8 3 4.4c-2-.3-4-.8-6-1.4v-1.6l-11.2.8.8 2.3-1.2-.7c-2-1-2-1-4.6-2l-2.4-1.1-.8-2.3-2.2-2.2h3l-1.5-2.3v-3l-2.3-.7V120Z" fill="#6C6D5D"/><path d="M113 33h1.5v1.5h1.5V36h1.5v1.5l2.3-.8v1.5l2.2.8v1.5h1.5c3 3.4 3 3.4 3 5.3h1.5l1.3 2.2c1.4 2.4 1.4 2.4 3.7 3h1.7l.8 3.8-2.3.7-1.5-2.3-2.2.8.7 3.8h-1.5v1.5l1.5.7-.7 1.5h-3l-.4-1.2-.6-1.7-.5-1.6c-.8-1.6-1.7-2.5-3-3.8l-.7-1.5c-.8-1.7-.8-1.7-3-3l.5-2c.3-3-.3-4-1.9-6.7l-1.2-2-1.2-2-1.5-3Z" fill="#E5E6D4"/><path d="M45 72h1.5v1.5h2.2l1.1 6.4.3 1.8c.7 3.7 1.2 7.5 1.6 11.3-2.2 1.5-2.2 1.5-4.4 1.5V99l3.7.8v.7h-3.7l-.8 1.5a44 44 0 0 1-3.4-10.3L42 86.9c-.6-2.9-.9-5.2-.6-8.2l1.5-2.2V78l1.5-.8.7-5.2Z" fill="#AAB2A4"/><path d="m81.6 67.5 2 .4c2.7.5 2.7.5 6.3-.4l.7 12.8h-1.5l-.7-.8V81l3.7.8.8 4.5h-1.5v1.5h1.4c1.3 1.5 1.3 1.5 2.3 3l-.8 1.5L90 90l.7.8v1.5l-1.5.7.8 1.5c-2.6-.8-4.5-1.5-6.8-3v-5.3h2.3L86 84l-3.7.8-1.5-9h1.5l1.5 3.7h1.5V69l-4.5 1.5.7-3Z" fill="#525349"/><path d="m34.5 93.8 1.5 1.5 1.2 1c1.8 2 2.5 3.5 2.7 6.3l-.1 1.7 1.5.7v3l-5.3.8v-1.5l-2.2-.8-2.2-1.5.7-3h-1.5l.2 1.7c-.2 2-.2 2-2 3.7l-2 1.3-2.6-3.9-1.6-2.2-1-2.1 1.5-3h10.5v-.8l-4.5-.7v-1.5c1.9-1 3.2-1 5.2-.8Z" fill="#A2AA9C"/><path d="M23.3 42.8c.4 1.5.8 2.8.8 4.5h-1.5A68.5 68.5 0 0 0 19.8 88c.5 2 .6 3.7.5 5.8l2-.8c2.8-.8 5.4-1 8.4-.8H36l.8 3h-2.3v-1.5l-5.2.8V96h4.5l.7 3.8-.7-2.3H23.3l-.7 2.3A24.1 24.1 0 0 1 18 89.3l-.6-2.4a93 93 0 0 1-2.4-14.2h-1.5v-1.5H16v-2l.3-2.6.2-2.6c.2-2.1.5-4.2 1-6.3l-.8.8-1.5 1.5c.6-5.8.6-5.8 2.2-7.5l.8 3.8v-7.5h3l.7-2.6c.8-2.7.8-2.7 1.5-3.5Z" fill="#A18C66"/><path d="M84.6 120c.8 3 .8 3 .8 3.8l1.2-.4c2.2-.5 4.2-.5 6.5-.5h8.5l7 .1c-1.5 1.5-1.5 1.5-3.3 1.6H101l-4.8-.2h-2.3l-2.1-.1c-1.9 0-1.9 0-3.2 1.2a7.6 7.6 0 0 0-1.6 4.3l.7 2.2-.7 3.8-5.8-.6h-1.7c-3-.4-4.3-.7-6.4-2.9l-1-1.8 1.6-.6c5-2 7.4-3.4 9.5-8.4l1.5-1.5Z" fill="#AFB6A9"/><path d="M140.7 58.5c1.4.4 1.4.4 3 1.5 1.8 10.1 1.5 21-1.5 30.8l-3-.8v-2l.1-2.4.1-2.5-.2-2.1-2.2-1.5 1.4-7.5h1.5v-7.3c0-2.1.3-4 .8-6.2Z" fill="#C1C8BB"/><path d="M66 65.3h1.4V78h.8v4.5l3.7.8c1 2.8.5 5.3 0 8.2-2.8.8-2.8.8-4.5 0V93H66l-.7 1.5-1.5-3.8h-2.2V87h-2.3v-1.5h1.5v-5.3l6 .8-.8-.8v-15Z" fill="#2B2617"/><path d="M89.9 66.8h1.5v3.7h2.2v2.3h-2.2c1.4 7.3 1.4 7.3 5.2 13.5 2.7 1.5 5 1.6 8.2 1.5l.6-1.8c1-2 1-2 2.4-3 1.5-.5 1.5-.5 3.7.3-1 2.7-2 5.2-3.7 7.5a22 22 0 0 1-11.2 1.5c-2.3-1.5-2.3-1.5-3.8-3v-1.5h-1.4v-1.5h1.4c-.5-2.3-.5-2.3-1.4-4.5-1.6-.8-1.6-.8-3-.8l-.8-4.5c1.5 2.3 1.5 2.3 1.5 3.8h1.5l-.4-1.2c-.5-2.5-.4-4.8-.4-7.3v-5.1Z" fill="#CF991E"/><path d="M96.6 12a1264.4 1264.4 0 0 0 6.7 2.3v.7h-2a2819.6 2819.6 0 0 0-10.1 0H84c-2.2 0-4.1.3-6.2.8-2.2 0-2.2 0-4.5-1.6l-2.3-.3c-2.2-.4-2.2-.4-3.7-1.9l.8-1.5A51 51 0 0 1 96.6 12Z" fill="#F6F6E5"/><path d="M97.3 65.3h5.3c2.1 3.6 2.7 6.3 2.2 10.5-.7 2.6-.7 2.6-1.5 4.5l-6 .7c-1.6-4-2.7-7-2.2-11.3 1.1-2.5 1.1-2.5 2.2-4.5Z" fill="#DA910D"/><path d="m68.2 21.8-.8 3.7-3.7.8v1.6c0 2.1 0 2.1-.8 4-1 2-1 2 0 4.1l-.7 1.5h-1.5l-.7 3h-3c-2.3-3-2.3-3-2.3-5.3l-2.2-.7 5.2-7.5-.7-.8v-1.4l2.4-.7c2.7-.7 2.7-.7 4.4-1.7 1.4-.6 1.4-.6 4.4-.6Z" fill="#C4C9BA"/><path d="M33.8 109.5c2.6.2 2.6.2 5.2.8l1.5 2.2 1.5.8.8 2.2 1.5.8v1.5l2.2.7v1.5l2.2.8v2.2h1.4c4.6.4 8.6 1.4 12.8 3l.8-2.3h3v2.3l1.5 1.5c-3.6 0-7.2.1-10.8-.4-2.5-.5-2.5-.5-4.3.2l-1.4.2a11.9 11.9 0 0 1-4.4-6l-1.6.2c-3-.3-4.3-1.4-6.7-3.2l-1.2-.9a11 11 0 0 1-4.8-7.3l.8-.8Z" fill="#D07E0F"/><path d="M134 67.5h.7l.8 8.3h.7c.1 7 .1 7-.7 10.5H134l-.6 1.3c-2.6 6-2.6 6-4.7 8.4l-2.2-2.3-1.5.8V90l.7-.8.2-2.4c.6-2.8.6-2.8 2.4-4.6 2-1.2 2-1.2 4.2-1.2l1.5-13.5Z" fill="#CCD0BC"/><path d="M37.5 32.3h.8V36H36l-1.5 7.5h5.3l1.5-.8c-1.4 3-1.4 3-2.3 3.8l-4.9.4-2.7.2-2 .1v-3l-1.6-.7V45l-4.5.8c1-3.4 2.8-5.1 5.3-7.5l1.8-3c.9-1.3.9-1.3 1.9-2.3 2.4-.3 2.4-.3 4.5 0l.7-.8Z" fill="#484632"/><path d="m61.6 18.6 2.1 1.6 4.5-.7c-2.8 3-5 5.2-9.2 5.4l-2-.1v1.4l2.2-.7V27h-1.5l-.6 1.3c-1 1.9-2.1 3.2-3.5 4.8-2 2-2 2-3.4 4.4h-1.5L48 39l-.7-1.5L45 36l4-4.8 1-1.4c3.5-4 3.5-4 6.2-5v-1.6l-3-.7c5.8-4.8 5.8-4.8 8.4-3.9Z" fill="#899085"/><path d="m40.5 18.8.8 2.2-2.3.8v1.4c-1.6 1.3-3.4 2.3-5.2 3.4-1.7 1-1.7 1-2.2 3.4.6 1.6.6 1.6 1.4 3l-3 4.4-.9 1.3c-2.1 3-3.8 3.9-7.3 4.8-.7 1.5-.7 1.5-.7 3l-2.3-.8v-2.2h1.5l.5-1.4c2.6-7.8 2.6-7.8 5.4-10 2-1.8 3.2-3 4.7-5.2a16 16 0 0 1 5.9-5.1l3.7-3Z" fill="#B0B3A2"/><path d="M85.4 50.3c0 2.7-1 3.4-2.8 5.4-5.3 7-4.4 16.9-3.8 25.1 1 6.4 5.1 12.2 10.3 16l1.5.7V99c-3.8-.8-6.8-2.7-9.7-5.3-.9-1.4-1.3-2.7-1.8-4.4-.5-1.7-1.2-2.9-2-4.4-3.5-7.5-2-17.9 0-25.5.8-1.6.8-1.6 3-3.1L81 54h1.5v-1.5l3-2.3Z" fill="#CE8C19"/><path d="m113 47.3.6 2.1c.7 2.5.7 2.5 3.2 3.9l1.5-3c1.2 1.2 1 3 1 4.7.3 2.4.5 4.2 1.2 6.5l-.7 3h-2.3V66l-3 .8-.4-4.8-.2-2.6c-.1-2.4-.1-2.4.6-4.6l-2.7-.7c-2.7-.6-4.8-1.4-7-3.1v-1.5l-1.5-.8c6.3-1.7 6.3-1.7 9.7-1.5Z" fill="#C5A159"/><path d="M96.6 25.5c2.7.7 4.7 1.6 6.9 3.4 2 2 2 2 4.3 2.6l-1.5 4.5h1.7c2.4.9 2.5 1.3 3.6 3.5l.7 1.6c.7 1.6 1.5 3 2.4 4.5C116 48 116 48 116 50.2h1.5l-.7 3.8-.8-1.5-1.5-.5-1.5-1c-.5-2.7-.5-2.7-.7-5.3L110 45l-1.5-4.5c-.6-1.7-.6-1.7-2.6-2.2l-1.8-.8-.8-2.3-2.2-.7V33l-1.5-.3-1.5-.5-.8-1.5h1.5v-1.4l-3-.8.8-3Z" fill="#938F78"/><path d="M20.3 54h1.5l-1 16.4-.2 1.7c-.3 1.4-.3 1.4-1.8 3.7l1 6.3c1.3 6.2 1.3 6.2 1.3 8.7h2.2L22.6 78l.7 1.5h1.5l.9 5 .4 3c.2 2.5.2 2.5-.2 4.3-1.6 1.8-3.2 1.7-5.6 2a71.8 71.8 0 0 1-.7-39l.7-.8Z" fill="#BF7214"/><path d="m55.5 136.5 5.2 1.5v.8h-2.2c-16.2.2-16.2.2-32.3 1.4l-1.6.2c-1.5.1-1.5.1-3.5.6l-.8 1.5h41.2v.8H9l.8-2.3h3v-1.5c4-.5 8-1 12-1.2h1.8c9.6-.5 19.2-.4 28.8-.3v-1.5Z" fill="#8A9285"/><path d="M72.7 56.3h1.5l-.8 5.2 1-1.9 1.3-1.9h.7c-.3 4.7-.8 9-2.2 13.5-.8 2.4-.9 2.8 0 5.3l.8 3 .4 1.5c.3 1.5.3 1.5.3 4.5h1.5l2.2 7.5c-4.4-2.2-5.2-5.5-7-10-.7-3.9-.6-7.7-.5-11.8h-1.5C70 61 70 61 72.7 56.3Z" fill="#471F00"/><path d="M78.7 32.1c2.2.9 2.2.9 3 2.4l5.2 1.5-.8 3-1.5-1.5-5.2-.8-1.5 3c1.8 1.8 2.8 2 5.2 2.3v2.3l-8.2-.8-.7-2.3h-3v2.3l-5.3-.8v-2.2l6-.8-4.5-1.5V36l7.5.8v-4.5c1.5-.8 1.5-.8 3.8-.2Z" fill="#74501D"/><path d="m15.1 82.5.8 2.3h1.5l2.9 8.5c1.5 5.2 3.8 9.7 6.8 14.2.7 1.3.7 1.3.7 2.8h-1.5v1.5h-2.2l-1.5-3.8H21l-.8-3h-1.5a46.4 46.4 0 0 1-3.7-22.5Z" fill="#DCDDCA"/><path d="m60.7 47.3 3 .7c-.6 6.4-.6 6.4-2.2 9H60l-.8 1.5V57H57v-1.5h-1.5l-.8 4.5h-1.5v3.8h1.5v7.5l-1.5.7c.3 7.1 1 14.1 3 21l1.5.8-1.5 2.2c-3-8-4.6-14.7-4.5-23.3h-4.4v-1.5H51l.1-2.4.2-3.2V64a38 38 0 0 1 2-10l2.8.1c2.4 0 2.4 0 4.6-1 .9-1.4.9-1.4 1.5-3.6h-1.5v-2.3Z" fill="#61685B"/><path d="M91.4 57h1.4l-.7 1.2c-1 2.3-1.2 4.5-1.5 7h1.5l.6-2c1-2.6 1.5-3.5 3.9-4.7 2.3-.2 2.3-.2 4.5 0l1.5 1.5-1.5.6-1.8.8-1.8.7c-1.9.9-1.9.9-3.2 3.1h1.5l1.5-3 1.5 1.5-1.5 2.4c-2.1 4.3-1.7 8.7-1.5 13.4l-3 .8c-1.5-2.6-1.6-4.6-1.4-7.5h2.2v-2.3h-2.2v-3.8h-1.5c-1.3-1.5-1.3-1.5-2.3-3l1.5-.7.8-3.8 1.5-2.2Z" fill="#613506"/><path d="M53.2 60H57v1.6c-.4 13.4-.4 13.4 1.7 26.5.5 1.9.5 1.9.5 4.9h-3c-2.4-7-3.9-14.3-3.7-21.8h2.2v-7.5h-1.5V60Z" fill="#9EA59A"/><path d="M45 46.5c-.3 3.1-1 6-1.8 9-1.9 7.1-2.1 14.5-2.7 21.8H39l-.7-5.3h-1.5l.7-3.8H39v-1.4c-.3-6.4 1.2-12 3-18-4.2.3-8 .6-12 2.2l.8-3c4-2 9.7-1.6 14.2-1.5Z" fill="#55574C"/><path d="M113.8 93.8h1.5V96c1.6.8 1.6.8 3.7 1.5v3h-1.5l-.6 1.3c-1.2 2.3-2.7 4.2-4.3 6.2-1 1.5-1.8 2.9-2.6 4.5-1.5-2.3-1.5-2.3-1.2-4.6l.5-2.2h-1.5l-.7-3.7 1.4-.6c1.8-1 2.3-2 3-3.9h1.5l.8-3.8Z" fill="#C7BFA9"/><path d="M45.4 22.5h1.9c-.3 4-2.7 6.8-5.3 9.8l-2.2 1.5c-.3 1.5-.3 1.5-.1 3.2a18 18 0 0 1-.7 6.5h-4.5L36 36h2.3v-3.8l-4.5.8-.8-3.8 7.5-3 .8 3L45 24l-2.2-.8c.7-.7.7-.7 2.6-.7Z" fill="#382C16"/><path d="M106.3 72.8h9l-1.5.7v2.4c0 2.2-.1 3.8-.8 5.8h2.3v3h-1.5V87h-3v2.3l3.7-.8.8-1.5h2.2v-2.3l1.5.8-1.5 5.3-2.2-.8-2.3.8v1.5h-2.2l-1.5-1.5-1.5-.8 3.7-6.8-2.2.8v-1.5c-2.6 2.4-2.6 2.4-4.5 5.3-2.1.5-2.1.5-4.5.7L98.1 87l2.4-1c2-.8 2.9-1.3 4.4-2.8 1.8-1.9 3.3-2 5.9-2.2l1.5-7.5h-6v-.8Z" fill="#6B604C"/><path d="M36.8 72h1.5c1 1.9.8 3.2.8 5.3V81h-3.8l.7-2.3h-4.4l-.8 1.5 1.5 1.5-.7 2.3-2.3.8-1.5-.8v2.3h-1.5c-1.8-3.6-1.4-6-.7-9.8l2.2.8v-3l9-.8V72Z" fill="#3D240B"/><path d="M57 136.5c8.7-.3 16.8.4 25.4 2.3l.7 2.2H54.7l.8-1.5 4.5-.8-3-2.2Z" fill="#575A4D"/><path d="m71.2 61.5-.8 9.8H72v1.6c.4 5.9 1.7 10.9 3.8 16.3l.7 2.3-1.5 1.5v-1.5l-3 .8 1.5 3.7-3 .8v-1.5H69V93l1.1-1c1.5-1.6 1.5-2.6 1.7-4.8l.1-1.8.1-1.4-3-1.5V62.2l-2.2-.7c2.8-.8 2.8-.8 4.5 0Z" fill="#5A5244"/><path d="M83.9 56.3c1.5 2.2 1.5 2.2 1.5 4.5h2.2l.8-2.3h1.5v9h-3L86 69l-4.5-.8-1.5 3c-.9-2.7-.6-5.1-.4-8l.3-2.7.1-2 3.8-.8v-1.5Z" fill="#271905"/><path d="m75.7 105 .7 1.5h6.7v1.5l2.3.8-1.8.2-2 .5-.7 1.5-.8-.8-.7 3h3l.3-1.4.4-1.5 1.5-.8 1.5.8v1.5l1.5.7c-.7 2.3-.7 2.3-2.4 3.5-2.3 1.1-3.3 1.4-5.8 1-2.4-1.3-2.4-1.3-4.5-3-.6-1.9-.6-1.9-.7-3.8l-1.5-3h1.5v1.5l1.5-1.5V105Z" fill="#464941"/><path d="M76.4 29.3v1.4l6 .8.7 2.3 2.3 1.5-1.5.7C81 34.9 81 34.9 80 33l-5.2-.8.5 2.2.3 2.4-1.5 1.5v-1.5l-6.8-.8.8 2.3c1.5.5 1.5.5 3 .7l.7-1.5.8 3h-6.8l-.7-3.8-3 .8 1.5-3h3c1.4-1 1.4-1 2.6-2.2 2.3-2.2 4-3 7.1-3Z" fill="#22251E"/><path d="m118.3 85.5 3 1.5.7-.8h1.5c.2 1.7.2 1.7 0 3.8-1.7 2.1-1.7 2.1-3.7 3.8h-2.3v3c3-.5 3-.5 5.3-2.3L128 96l.7 1.5h-2.2V99a508.8 508.8 0 0 1-7.5-.4c-2.2-.3-2.2-.3-3.7-1.8l-.8-1.5.8-1.5h-1.5l-.8 1.5-1.5-.8v-2.3h1.5v-1.5c2.8-1.5 2.8-1.5 4.5-1.5l.8-3.7Z" fill="#A7A389"/><path d="m67.4 9.7-3 2.3 1.4.7c1.6.8 1.6.8 3.9 2.3l-1.7.5c-4.9 1.5-9 3.3-13.3 6.1-1.5.9-1.5.9-3 .9l1.5-3.8-3.7.8-1.5-2.3c2.5-1.6 3.3-1.6 6.2-1.4a19 19 0 0 0 8.7-1.6v-1.4h-6.7c3.5-3.5 6.5-3.1 11.2-3Z" fill="#B6BEB0"/><path d="m54.7 136.5.8 1.5h-1.3a5210.9 5210.9 0 0 0-18.8.7 258.7 258.7 0 0 0-34.5 3V138c18-.8 35.9-1.1 53.8-1.5Z" fill="#C0C5B7"/><path d="m78.6 97.5 3.8 1.5 2.4 1c2 1.3 2 1.3 2.7 3.3l.1 1.7-3 1.5v-3h-2c-2 0-3.6-.2-5.4-.8v1.8c0 2 0 2-1.5 4.3l-1.5-.8.7-3.8h-4.5v-4.5h6.8v-1.5l1.4-.7Z" fill="#545348"/><path d="M10.6 77.3h1.5v1.4c.7 9.3 3.2 17.6 7.4 26l.8 1.8-.7 1.5a36.8 36.8 0 0 1-9.9-27.4c.2-1.8.2-1.8 1-3.3Z" fill="#5B4C2D"/><path d="m42 48.8-.3 1.2c-1.2 6-2 12.1-2.7 18.3l-3 .7v-1.5l-3-.8 3.8-.7.7-2.3H36l-.7 1.5.2-1.3c.4-3.3.5-5.9-.2-9.1l.7-3v-2.3c2-1 3.8-.8 6-.8Z" fill="#090A03"/><path d="m89.1 89.3 2.5 1c2.6 1.3 2.6 1.3 5 1.2h6.7v2.3l-5.2.7V96l-2.3-.8-.7 1.5h1.5v1.5c-2.3.8-3.8 1-6 .1-2.8-1.6-5-3.2-6.7-6l5.2 1.5-.7-1.5h2.2v-1.5h-1.5v-1.5Z" fill="#737564"/><path d="M128.7 54h3c2.5 6 2.5 6 1.4 9l-1.4 1.5h-2.2l-5.3.8-.7-2.3-1.5.8v-4.5l-1.5-.8-.7 1.5c-.8-.8-.8-.8-.8-2.7v-1.8l.8 1.5 5.2-.8c1 2 1.5 3 1.5 5.3h3l-.8-3.8h1.5l-1.5-3.7Z" fill="#8F8564"/><path d="m86.8 16.6 2.7.7c8.1 2.3 8.1 2.3 10.8 5.2l-6-1.5 6 3c-2.7 1-3.5.4-6.1-.6-6-2.7-6-2.7-12-2.4l-1.3.8c-1.7-.3-1.7-.3-3-.8l-.7-3c3.6-2.2 5.5-2.4 9.6-1.4Z" fill="#F1F0DF"/><path d="m120.5 58.5 2.3.8c.6 2 1 3.9 1.4 6L131 63l.7.8 1.5-1.5.8 5.2c-2.7 1-4.6 1.5-7.5 1.5l-.8-1.5-2.2-.8.7 2.3c-4.2.2-4.2.2-6.7-1.5v-3h2.3l.7-6Z" fill="#574731"/><path d="M53.2 32.3v2.2l3.8 3.8-1.5 3.7-3.8-.8-3 9H48l-.7-3.7-1.5.8c-.9-2.7-.9-3.6.3-6.3l1.2-2h1.4v-1.5h1.5l.7-1.8c.8-2 .8-2 2.3-3.5Z" fill="#9AA498"/><path d="M114.5 105c1 2 .6 2.9 0 5l-.4 1.8-.3 1.5c-12.5 1-12.5 1-18.7 0l.7-4.5 4.4-.1h2.5c2.1 0 2.1 0 3.6.8l1.5.3 1.5.5.7 1.5 1-1.7c1.1-1.8 2.3-3.5 3.5-5.1Z" fill="#E0E1D1"/><path d="M106.3 38.3c2.2.7 2.2.7 3.5 2.9 1 2.3 1 2.3 1 3.8l1.5.8v1.5l-7.5 2.2v3l-1.7-.5c-2.3-.3-3 0-5 1.3l-1.5.7.7-2.3h2.3v-2.2h-3.8v-.8l6.8-.7v-1.5h-2.3V45h6l-2.2-2.3h1.5v-1.5h1.5l-.8-3Z" fill="#605B4A"/><path d="M63.7 36c1.6.2 1.6.2 3 .8 0 2.3-.1 3.8-.8 6l5.3.7v-2.3l3.7-.7v3l-1.5.8v2.2h-2.2l.4 1.4c.3 1.6.3 1.6-.4 3.9l-6 .7-.8-3.8 2.6-.2 2.7-.5.7-1.5-2.2.8v-1.5h1.5v-1.5h-3.8l-.7 1.5-2.3-.8.8-5.3-2.2-1.5c.9-1.1.9-1.1 2.2-2.2Z" fill="#38200A"/><path d="M40.5 66.8h.8v1.4c.5 12.4.5 12.4 1.5 24.8-2.3-1.5-2.3-1.5-2.8-3.3l-.4-2-.3-2.1L39 84c-2.1-.5-2.1-.5-4.5-.8L33 84.8l-.7-3-5.2-.7c1.5-2.3 1.5-2.3 3.2-2.6l2-.2 2.2-.1L36 78l.8 1.5h-1.5V81H39v-3.8h1.5V66.8Z" fill="#6D786C"/><path d="M77.2 91.5c1.4 2.3 1.4 2.3 1.4 4.5l3.8 1.5 2 .8c3.5 1 7 1.2 10.7 1.5l-1.5 2.2.7 1.5-7.4.8v-3l-2-.7c-2.5-.8-2.5-.8-4.5-1.7-2-.7-2.8-.6-4.7.1l-1.4-1.8c-1.6-2-1.6-2-3.9-3.5H72v-1.5c2-.9 3.2-1 5.3-.7Z" fill="#585B52"/><path d="M77.9 120h.7l-.7 6.8 3-1.5c-.8 2.2-.8 2.2-2.5 3l-2 .8-2.1.8-1.6.6 1 1c1.2 1.3 1.2 1.3 1.2 2.8l8.2.7v1.5c-4.3 1.2-8.5.5-12.7-.8-1.3-1-1.3-1-2.2-2.2V132l-3-.8 2.2-.6c2.4-.6 2.4-.6 3-2.3 1.6-.4 1.6-.4 3.4-.5l2-.2 1.4-.1-.8-3.8h1.5V120Z" fill="#7D877A"/><path d="M74.7 15.9c2 1.5 2.9 3 4 5.1v1.5l1.4-.4c4-.6 7.8-1.2 11.3 1.1l1.5 1.6-11.3.7V24l-5.2.8.8-2.3-2.3-.8h1.5c-1.7-2.3-3.8-2.8-6.6-3.4-2.5-.4-5-.4-7.6-.3 3.2-3.7 8.1-4 12.5-2.1Z" fill="#7C8372"/><path d="M55.5 139.5v.8l27.6.7v.8c-10.5.4-21 .8-31.6.8h-2.4c-4.1 0-8.2-.2-12.3-.8v-1.6c6.2-.6 12.4-.8 18.7-.7Z" fill="#666D60"/><path d="M113 33.8c3.4 2.7 5.3 6.4 6.8 10.5-.2 2.7-.2 2.7-.8 4.5l1.5.8c1.8 1.7 2 2.7 2.3 5.1l2.2.8c-2 1-3 1.5-5.2 1.5l-.6-2c-1.9-8-1.9-8-5.9-14.9l-1-1.1c.2-2.8.2-2.8.7-5.3Z" fill="#AEAF97"/><path d="m47.3 21 1.4 1.5-5.2.8 1.5.7c-1 2.5-2.5 4.1-4.5 6l-.7-3h-1.5l-.8 1.5-3.7.8V33l3.7-.8-.7 1.5H33l-2.2-4.5c4.2-4.3 4.2-4.3 6.7-6H39v-1.4c2.8-.7 5.4-1 8.3-.8Z" fill="#555947"/><path d="m.9 144 2 .4c4.3.6 8.7.4 13 .3h3l7.3-.2 7.7-.2c5 0 9.9-.2 14.8-.3v.8h-1.9l-7 .5-3 .3-4.3.2-2.7.2c-2 0-2 0-2.7 1H.9v-3Z" fill="#B1B8AC"/><path d="m100.3 101.6 2 .1 4.8.3.7 3.8h1.5l-.8 3.7-6.7.8v-.8l-6-.8V105h2.3l.7 2.3 5.3.7.7-3.8-17.2-1.5v-.7c4.3-.8 8.3-.7 12.7-.4Z" fill="#96988B"/><path d="M66 65.3h1.4V78h.8c1.1 8.6 1.1 8.6-.8 12.8l-.6-1.5c-.7-1.7-.7-1.7-2.4-2.3l.8-1.5h-1.8c-2 0-2 0-2.7-.8v-4.5l6 .8-.8-.8v-15Z" fill="#271B08"/><path d="M105.6 63c1.6 1.6 1.8 2.4 2.4 4.5.5 1.7.5 1.7 1.3 3 2.3.9 2.3.9 4.5.8l.7-3v4.5l-2.2.7-.8 2.3-2.2-.8-.8 2.3c-1.5.5-1.5.5-3 .7l-.2-2.4-.3-3-.2-1.7c-.4-3-.4-3-1.8-5.5l-1.2-.9-1.5-1.5c2.3-.7 3-.8 5.3 0Z" fill="#4E2C11"/><path d="M64.4 9A1321 1321 0 0 1 79 8.8c13-.2 13-.2 19.2 2.4-2.9 1-4.8.4-7.7-.3-4.1-.8-8.3-.6-12.5-.5H75l-6.8.1.7 2.3 2.4.2c2.8.5 4.8 1.3 7.3 2.8l-1.4 3.7-1.5-2.3c-1.9-.9-1.9-.9-4-1.5l-2.2-.8c-1.9-.6-3.8-1-5.8-1.4l-.8-2.3 1.5-1.5V9Z" fill="#CFD2C1"/><path d="M103.3 53.3c-.6 3.5-.6 3.5-1.5 5.2l-3.2.5c-2.6.5-2.6.5-4.6 2.3-1 1.6-1 1.6-1.9 4h-1.5a11 11 0 0 1 2.7-9.5c3-3.1 6-2.7 10-2.5Z" fill="#A86D11"/><path d="M142.2 66h.7c.7 4.1 1 8.2 1 12.4v1.8c0 3.8-.5 7-1.7 10.5l-3-.7a2558.4 2558.4 0 0 1 1-14.9v-2.6l.2-2.3c.3-2 .3-2 1.8-4.2Z" fill="#B3BCAD"/><path d="M12.9 72h3l1.4 12.8-1.4.7c-.1 3.5.1 7 .7 10.5l-1.5.8A74.5 74.5 0 0 1 13 72Z" fill="#BEC1AF"/><path d="m37.5 109.5 9.8.8v1.5l2.2.7v1.5l-5.2.8c2.6 1.2 4 1.6 6.7.7h1.5l.7 2.3-2.2 1.5-3-.8-1.5 1.5c-1.1-1-1.1-1-2.2-2.3v-1.5l-2.3-.7-1.5-2.3-1.5-.7v-2.3l-1.5-.7Z" fill="#796A49"/><path d="m54.9 22.8 1.3.4v1.6l-3.7 3c-2.6 2.5-4.7 5.3-6.7 8.2l2.2 1.5-.7 1.5-3.8-.8a8.2 8.2 0 0 1 0-6c1.4-1.8 3-3.4 4.7-5l1.4-1.4 1.2-1.3 1.2-1.2c1.2-.8 1.2-.8 2.9-.5Z" fill="#29281F"/><path d="m68.2 21.8-.8 3.7-3.7.8-.1 1.3c-.9 2.4-2.3 3.2-4.4 4.6L57 33c-.5-1.7-.5-1.7-.8-3.8l1.5-2.2-.7-.8v-1.4l2.4-.7c2.7-.7 2.7-.7 4.4-1.7 1.4-.6 1.4-.6 4.4-.6Z" fill="#D8DCCE"/><path d="M30.6 92.2H36l.8 3h-2.3v-1.5l-5.2.8V96h4.5l.7 3.8-.7-2.3H23.3l-.7 2.3-.8-3.8h3v-1.5h-3V93c3-1 5.8-.8 8.8-.8Z" fill="#8F9686"/><path d="M57 126.2c3.4.5 6.8.8 10.2 1 1.7.3 1.7.3 3.2 1v1.6c-3.4.8-6.7.8-10.2.8h-1.7a20 20 0 0 1-6.8-.8v-2.3c2.4-1.6 2.6-1.7 5.3-1.3Z" fill="#43230B"/><path d="m12.9 140.3-3 1.4v1.6l28.4.7v.8a3694.1 3694.1 0 0 1-27.2.7H8.8l-2.2.1H4.8C3 145.6 3 145.6.9 144v-2.3c4.2-1.1 7.6-1.6 12-1.4Z" fill="#9DA79B"/><path d="M42.8 90c1.4 2.1 1.7 3 2.1 5.3.7 3.3 1.8 6 3.3 9l.5 1.5-.7 1.5-3.7-5.3-.8 1.5 2.3.8.7 2.2.8.8.7 2.2c-2 0-2 0-4.5-.8a32.2 32.2 0 0 1-3-6.7l3-.8-.5-1.8-.7-2.5-.7-2.5c-.3-2.2-.3-2.2 1.2-4.4Z" fill="#959B88"/><path d="M86.9 70.5H89v5.6a19 19 0 0 1-.7 4.9l3.7.8.8 4.5h-1.5v1.5h1.5l-.8 1.5-1.8-1.1a54 54 0 0 0-3.4-2l.7-3h-3l.7-1.1c1-2.4 1.1-4.4 1.3-7l.2-2.6v-2Z" fill="#492E05"/><path d="m90.8 51.1 2 .6.8 4.5-2.2.8-.8 2.3h-2.2l-.8 1.5-3 .7c-.3-3.7-.5-6 1.6-9 2.2-1.5 2.2-1.5 4.6-1.4Z" fill="#27190B"/><path d="M132.5 68.3v4l.1 2.2c-.1 2-.1 2-1.6 4.3-2 .5-2 .5-3.8.7-.7-.8-.7-.8-.9-3.1.2-2.8.6-4.9 1.7-7.4 1.5-.8 1.5-.8 4.5-.8Z" fill="#D9CAA4"/><path d="m112.3 118.5-1.5 6.8h-2.3l1.5-.8-.7-1.5H98l1.5-3.8c4-1.3 8.5-.8 12.7-.7Z" fill="#D5D7C7"/><path d="m60.7 37.5 1.5.8-3 8.2h1.5v3h1.5l-.7 4.5c-2.8.6-4.8 1-7.5 0v-2.3h4.5l-.8-3-3-.7 1.5-.8.8-3h1.5l2.2-6.7Z" fill="#999D8D"/><path d="m100.3 51 4.5 1.5V51l9 3.8-.8 4.5-1.5-2.3 1.5 6c-2.5-.8-2.7-1.3-4.1-3.4-1.3-2-1.3-2-3.3-3.4V54l-7.5-.8 2.2-2.2Z" fill="#634D20"/><path d="m75 48.8.7 1.5-2.3 3 3.8 1.5-.7 1.5-3 8.2h-.8l.3-3.3.2-1.8c.2-1.6.2-1.6 1-3.1h-1.5l-1.5 4.5-4.5.7 2.2-.8.8-4.5h1.5V54l-5.3-.8c1.5-1.5 1.5-1.5 3.5-1.5h1.8v-1.5l1.4-.3c1.5-.3 1.5-.3 2.3-1.1Z" fill="#715B3C"/><path d="m95.8 40.5 1.5 6.8-2 .2c-5 .7-9.7 1.4-14.4 2.8V48l3.7-.8v-1.5c1.8-.9 3-.8 5-.7h3.2l-.7-3c2.9-1.5 2.9-1.5 3.7-1.5Z" fill="#0E0A04"/><path d="m79.4 32.3.8 1c2 1.7 4.1 2 6.7 2.7l-.8 3-1.5-1.5-5.2-.8-1.5 3c1.8 1.8 2.8 2 5.2 2.3v2.3l-8.2-.8c-.2-2.5-.2-4 1-6.3 1.3-1.2 1.3-1.2 3.5-1.2l-.4-1.5-.4-1.5.8-.8Z" fill="#42351B"/><path d="M109.4 36.4c1.7 1.4 2.3 2.8 3 4.9.7 1.5 1.4 2.9 2.3 4.3C116 48 116 48 116 50.2h1.5l-.7 3.8-.8-1.5-1.5-.5-1.5-1c-.5-2.7-.5-2.7-.7-5.3L110 45l-1.5-4.5c-1-2-2.3-2.2-4.4-3v-.8c2-.5 3.3-.8 5.3-.3Z" fill="#918C77"/><path d="M97.3 35.3c4.2.2 6.8.5 9.8 3.7v2.3h-1.5c.3 1.6.7 3 1.5 4.5h-8.3l-.7-3.8 3.7-.8.8.8.7-2.3c-1.5 0-1.5 0-3 .8l-.7-3.8-2.3.8v-2.3Z" fill="#3B280F"/><path d="M59.2 95.3h1.5l.8 3.7-2.3-.8.8 3.8 4.4-1.5.8-1.5 1 1.1c1.1 1.3 1.1 1.3 2.7 1.2.9 3.5.9 3.5 0 5.2l-1.2-.3c-1.8-.5-1.8-.5-3.7-.8-1.8-.4-1.8-.4-3.3-1.9l-1.5-.5c-1.5-1-1.5-1-2-3.7l-.2-2.5h1.5l.7-1.5Z" fill="#5E665F"/><path d="m119 97.5 6 .8-3 .7-.2 1.6c-.6 2.5-1.6 4.6-2.8 6.9l-1.3 2.4-1 1.8-1.4-.7c-1-3.3-.8-5.2.7-8.3l1.5-2.2h1.5v-3Z" fill="#E1E0CC"/><path d="M54 12.8h9v1.4l3 .8a47 47 0 0 1-14 1.4c-2.2.1-3.9.7-5.5 2.4l-.7 1.4-4.5.8c.2-1.4.2-1.4.7-3 3.6-2.4 7.7-3.4 12-3.8v-1.4Z" fill="#747B6D"/><path d="m46.5 120 2.2.8v2.2h1.4c4.6.4 8.6 1.4 12.8 3l.8-2.3h3v2.3l1.5 1.5c-3.6 0-7.2.1-10.8-.4-2.5-.5-2.5-.5-4.3.2l-1.4.2a14.3 14.3 0 0 1-5.2-7.5Z" fill="#B16428"/><path d="m61.6 18.6 2.1 1.6 4.5-.7c-3 3.2-5.2 5.2-9.6 5.4l-2.4-.1v-1.6l-3-.7c5.8-4.8 5.8-4.8 8.4-3.9Z" fill="#565E55"/><path d="m27.8 43.5 2.3.8v1.5h-2.3C26 50.3 24.1 55 23.3 60c-1.5-1.5-1.5-1.5-1.6-3.8l.1-2.2h-1.5c.5-2.5 1-4.5 2.3-6.8H24v-1.5l3.7-.7v-1.5Z" fill="#D17F12"/><path d="M76.4 143.2h28.4l.8 1.6a147.5 147.5 0 0 1-23.2.9h-6c-2.2-.2-2.2-.2-3.7-1.7.7-.8.7-.8 3.7-.8Z" fill="#CBCDBC"/><path d="M59.2 76.5c2 3 1.6 5.6 1.5 9h-1.5V87h2.3v3.8h2.2l.7 2.2h-2.2v-1.5l-3 .8-1.5-6.3-.5-1.8-.4-1.7-.4-1.6c-.2-1.4-.2-1.4.6-3.7l2.2.8v-1.5Z" fill="#534D3D"/><path d="m95.8 78 1.5 3 5.3-.8-1.5.8v3l2.2 1.5c-2.3 1.4-4 2-6.7 1.5a17.4 17.4 0 0 1-3.7-5.3l.7-2.2h2.2V78Z" fill="#5E3603"/><path d="M113.8 73.5h1.5l-.8 7.5h3l.8-1.5.6 1.5c.7 1.6.7 1.6 2.4 2.3l-.8 2.2-3-.8V87h-2.2l-.8 2.3-2.2.7-1.5-.8V87h3v-2.3h1.5v-3H113l.8-8.2Z" fill="#392810"/><path d="M89.4 14.1h2.3c5 0 9.8.3 14.6 1.7v.7h-15V18l-1.9-.3-2.5-.4-2.7-.5c-2.4-.3-4-.2-6.3.4 3.5-3.6 6.7-3 11.5-3Z" fill="#BCBFAD"/><path d="M110 83.3h1.5c-1 2.7-2 5.2-3.7 7.5a22 22 0 0 1-11.2 1.5c-2.3-1.5-2.3-1.5-3.8-3v-1.5h-1.4v-1.5l1.2.6c5.2 2.6 5.2 2.6 10.8 2.7 2.9-1.6 4.7-3.7 6.6-6.3Z" fill="#CBA14A"/><path d="M95 34.5c1.6.8 1.6.8 2 2.1l.4 1.7.4 1.7.3 1.3-5.2.7.7 1.5-.7 1.5-4.2.5-2.3.1-1.8.1v-1.5h1.5v-1.5l-1.5-.7c1.5-1.5 1.5-1.5 4.2-1.6l2.6.1-1.5-2.3 4.4 1.5c1-2.3 1-2.3.8-5.2Z" fill="#1C160B"/><path d="m34.5 93.8 1.5 1.5 1.2 1a6.6 6.6 0 0 1 1.8 4.2l-.7 1.5H36l.8 1.4c.7 1.6.7 1.6 0 3.8l-.8-3h-1.5c-1.7-2.5-1.6-3.7-1.5-6.7l.8-.8-4.5-.7v-1.5c1.9-1 3.2-1 5.2-.8Z" fill="#9DA69A"/><path d="M42 53.3h.8l-.2 1.3-1.4 14.9-.2 2.3-.5 5.5H39l-.7-5.3h-1.5l.7-3.8H39v-4l-.1-2.2c.1-2 .1-2 1.6-3.5.6-1.7 1-3.5 1.5-5.3Z" fill="#424537"/><path d="m92.8 105 2.3.8v3h-1.5v1.5h-2.2l.7 1.5v6h13.5v.7l-16.5.8 1.5-5.3v-3.8l-3-.7.8-2.3 4.4-.7V105Z" fill="#9AA091"/><path d="M29.3 52.5h.8v5.3h4.4L33 59.3h-3.7l-.7 8.2 2-.4c2.2-.3 3.4-.3 5.4.4V69l-5.5.4-1.6.1-4 .3c-.8-.8-.8-.8-.9-3.1v-2.2l.7 1.5c.7 1.6.7 1.6 2.4 2.3v-1.8c.4-4.8 1-9.3 2.2-14Z" fill="#66380A"/><path d="M37.5 32.3h.8V36l-1.6.4c-3 1.5-4.6 3.8-6.6 6.4l-3.8-.8 2.3-3.8.8-1.4c.9-1.4 1.7-2.6 2.9-3.8 2.4-.3 2.4-.3 4.5 0l.7-.8Z" fill="#C5821D"/><path d="M67.4 108.8c3 .3 4.6 1.1 6.9 3.2l1.5 1.4a187 187 0 0 1 3.6 3.6l-2.2.8-2.3-2.3-1.5 1.5c-3.7-1-5.2-3-7.5-6h1.5v-2.3Z" fill="#6A726B"/><path d="m103.3 91.5 4.5.8.7 3 3 .7-1.5.8-.7 3.7-3-.8v-2.2l-3.7-.8V99H101l-.8-3.8 3-.7v-3Z" fill="#95998C"/><path d="m115.3 96 1.5.8 2.2.7v3h-1.5l-.5 1.2a50.8 50.8 0 0 1-4 6.3h-1.5l.8-9.8 3-.7V96Z" fill="#D6CCAB"/><path d="M131 84h2.2c-.2 4.8-1 8-3.7 12l-3-2.3-1.5.8V90l5.2-.8.8-5.2Z" fill="#CECBBA"/><path d="M98.8 70.5h3V75h2.3l.7-2.3c-.6 5.9-.6 5.9-1.5 7.5-2 .5-4 .6-6 .8l-1.5-3.8 4.5-.7-1.5-.8v-5.2Z" fill="#D2860C"/><path d="M57 136.5c8-.3 15.2.1 23.1 2.3v1.4H69v-1.4l-2.2-.2-3-.1-2.8-.2c-2.4-.3-2.4-.3-4-1.8Z" fill="#1B1E12"/><path d="M42 120c4.1.9 6.2 1.9 9 5.3v1.5l-1.5.7v1.5l-1.5.8.7 3-3-.8-.7-2.3-2.2-2.2h3l-1.5-2.3v-3l-2.3-.7V120Z" fill="#B0844B"/><path d="M19.6 98.3c3 1 3.8 3 5.4 5.5l.8 1.4c2 3.3 2 3.3 2 5h-1.5v1.5h-2.2l-1.5-3.7H21l-.3-1.4c-.4-1.6-.4-1.6-1.2-3.1v-5.3Z" fill="#E6E7D7"/><path d="M106.3 72.8h9l-1.5.7.1 2.3c-.1 3.2-.7 4.8-2.4 7.5l-2.2.7v-1.5c-2.6 2.4-2.6 2.4-4.5 5.3-2.1.5-2.1.5-4.5.7L98.1 87l2.4-1c2-.8 2.9-1.3 4.4-2.8 1.8-1.9 3.3-2 5.9-2.2l1.5-7.5h-6v-.8Z" fill="#8D692F"/><path d="m83.1 50.3 2.3.7-3 1.5V54h-1.5l-.3 1.5-.5 1.5-1.5.8-.8 3-.3 1.8-.4 2-.5 1.9-1 4.8-1.4-.8.3-1.8.4-2.4.4-2.4c.4-2.4.4-2.4.3-4.7 0-2.3.5-3.5 1.6-5.5l.8-1.5.6-1.2 4.5.8v-1.5Z" fill="#633101"/><path d="M73.4 43.5c3.7-.1 6.4-.2 9.7 1.5-1.8 2-3.4 3.4-6 4.5v-3h-3v3.8l-1.4.7-1.5-1.5v-3l1.5-.8.7-2.2Z" fill="#201608"/><path d="M77.2 22.5V24l6-.8-1.6.8v1.5l-7.4 3V27l-6.8 4.5c1.4-2.7 2.4-4 4.5-6l-2.2-.8c2.6-1.8 4.3-2.5 7.5-2.2Z" fill="#A7AFA2"/><path d="M88.4 137.3h4.5l.7 1.4-3 .8 2.3 2.3c-3 1-5.7.8-8.7.8h-8l-14-.1v-.8h1.9l8.3-.2h3l2.8-.1h2.6c2.5-.4 4-1.2 6-2.7h1.6v-1.4Z" fill="#929A8E"/><path d="m34.5 82.5 5.3 1.5.3 3.3.3 1.8c.2 2.3 0 4-.6 6.2-2-1.8-2.7-3.2-3.5-5.7l-.5-1.7-.5-1.7-.8-2.2-.7 3-1.5-.8v-1.5h1.5l.7-2.2Z" fill="#323C36"/><path d="m54.7 114.8 5.3.7v1.7c1 3 2.6 3.6 5.2 5l2.5 1.2c2 1.1 2 1.1 2.7 3.3 1.5 1 1.5 1 3 1.5-2 .2-2 .2-4.5 0-1.7-1.4-1.7-1.4-3-3l.8-1.5-1.7.2c-2.5-.2-3.5-1-5.6-2.5l-1.7-1.4c-1.6-1.7-2.3-3-3-5.3Z" fill="#A0A592"/><path d="M83.1 135a262.5 262.5 0 0 1 5.2.4l1.6.3.7 1.6h-2.2v1.4C85 141 85 141 83 141l-.7-1.5a81 81 0 0 0-4.5-.4c-1.5-.3-1.5-.3-3.7-2.6h9V135Z" fill="#5B665D"/><path d="M15.9 66h.7v2.4c.3 6.7 1.1 12.8 3.1 19.2.6 2.2.8 4 .6 6.2l4.5.7V96l-2.2.8-1.5 1.5c-1.7-2.9-2.3-5.9-3-9l-.6-2.4a94 94 0 0 1-2.4-14.2h-1.5v-1.5H16V66Z" fill="#B2A17E"/><path d="m65.2 61.5 3.7.8v20.2c-2.5-3.4-2.5-4.5-2.4-8.6v-3c.2-2 .3-3.7 1-5.7l-2.3.8v-4.5Z" fill="#684316"/><path d="M27.8 45.8h1.5c-.5 2.8-1.3 5.6-2.2 8.4-1 3-1.8 5.9-2.4 9-.6 2.8-.6 2.8-2.1 4.3-.5-8 1.4-14.7 5.2-21.8Z" fill="#914F0A"/><path d="M36.8 72h1.5c1 1.9.8 3.2.8 5.3V81h-3.8l.7-2.3-1.5-.7v-2.3h-6.7v-1.5l9-.7V72Z" fill="#2E1B07"/><path d="m58.5 60 3.7 1.5-1.5 1.5-2.2-.8V66l2.2.8c.1 5.5.1 5.5-.7 8.2h-3l-.5-5.4-.2-1.5c-.3-3.4.1-5.4 2.2-8.1Z" fill="#2F291B"/><path d="M98.9 103.4h2.4c2 .1 2 .1 3.5.8l-.7 3.8h-7.5l1.5-3h-2.3v3.8l-.6-1.5c-.7-1.7-.7-1.7-2.4-2.3v1.5l-2.2-.8h1.5v-1.5a19 19 0 0 1 6.8-.8Z" fill="#758179"/><path d="M77.2 83.3h2.2l.7 1.4C82.6 90 85 95 90.6 97.5V99c-3.8-.8-6.8-2.7-9.7-5.3-1.2-1.9-1.7-3.8-2.3-6l-.8-2.6-.6-1.8Z" fill="#D2941B"/><path d="m35.3 59.3-1.5.7.5 1.7c.2 2 .2 2-.2 3.7-1 1.3-1 1.3-3.4 2l-2.1.1v-3.3l-.1-1.8c0-1.6 0-1.6.8-3.1 2.5-.8 3.5-.9 6 0Z" fill="#271507"/><path d="M81.6 32.3c4.2.3 8 .6 12 2.2v2.3l-4.5 1.5v1.5L87 39v-3h-1.5v-1.5l-1.5-.3-1.5-.5-.8-1.5Z" fill="#211409"/><path d="m83.9 109.5 2.2.8v1.5l1.5.7c-.7 2.3-.7 2.3-2.4 3.5a9.4 9.4 0 0 1-5.8 1l-1.5-3 .7-2.3 3.8 1.5.3-1.4c.4-1.5.4-1.5 1.2-2.3Z" fill="#40321F"/><path d="M60.7 63.8H66v16.5h1.5l-.7 1.5-3-.8V73.1c0-3 0-5.7-.8-8.6l-2.2-.8Z" fill="#333123"/><path d="M21.8 73.5h13.5v.8h-7.5v3h-1.5l-1.5 2.2-1.5.8v5.2h-.7c-.9-4-.8-7.9-.8-12Z" fill="#935410"/><path d="M71.2 61.5v9.7c0 3.8-.1 7.5-.8 11.3H69V62.2l-2.2-.7c2.8-.8 2.8-.8 4.5 0Z" fill="#B68B54"/><path d="m60.7 47.3 3 .7c-.6 6.4-.6 6.4-2.2 9H60l-.8 1.5V57H57v-1.5h-1.5l-.8 4.5h-1.5l-.7 1.5.7-7.5 2.9.1c2.4 0 2.4 0 4.6-1 .9-1.4.9-1.4 1.5-3.6h-1.5v-2.3Z" fill="#494D42"/><path d="M134 85.5a21 21 0 0 1 2.2 6.8h1.5c-.7 2.2-.7 2.2-2.3 3l-1.4.7-.8-1.5-2.2.8-.8 2.2h-1.5c1.3-4.3 3.2-8 5.3-12Z" fill="#D9DBC8"/><path d="m36.3 49 1.2.5-1.5.8.8 1.5-1.5 5.2h-4.5l-.7-6c4-2.3 4-2.3 6.2-2Z" fill="#343426"/><path d="M73.4 143.3v.7a97.3 97.3 0 0 1-25.8 1.6l-8.6-.1v-.8a5150.6 5150.6 0 0 1 14-.8c6.8-.4 13.6-.8 20.4-.7Z" fill="#BEC2B3"/><path d="m56.2 39.8 3 .7-.7 3.8h-3L51.7 48h-2.2l1.5-6.8h4.5l.7-1.5Z" fill="#B8BFB1"/><path d="m43.5 37.5 3.8.8c-.5 3-1.1 5.1-3 7.5-2.8.6-2.8.6-5.3.7l1.4-2.4a42 42 0 0 0 3.1-6.6Z" fill="#090A05"/><path d="M99.6 47.3v.7l-1.5.2c-6.1 1-9.7 3-13.5 8-1.2 1.4-1.2 1.4-2.2 2.3h-1.5c1-3 2.2-4.6 4.5-6.8l.7-2.2c4.1-3 8.6-2.5 13.5-2.3Z" fill="#83602C"/><path d="M84.6 27h4.8l2.7-.1c2.2.1 2.2.1 3.7 1.6L94.3 33h-2.2v-3l-2.5.1C87 30 87 30 85.4 29c-.8-1.1-.8-1.1-.8-1.9Z" fill="#A09C8C"/><path d="m104 94.5-3 1.5v3l1.6.8c-2.5.7-4.7.7-7.3.5l-2.2-.2-1.7-.3-.8-1.5h6v-1.5H95l.7-2.3.8 1.5H98v-1.5c2.4-.6 3.5-.8 6 0Z" fill="#919484"/><path d="m123.5 66.8 3 .7V69l1.5.8-.8 3.7-1.5-3h-5.2l-.7 1.5v-1.5l-4.5.8-.8-3h9v-1.5Z" fill="#786F53"/><path d="m81.6 67.5 2 .4c2.7.5 2.7.5 6.3-.4l.7 12.8h-1.5c-.8-2.5-.7-3.7-.4-6.2l.2-2 .2-1.6H87V75H86l-.7-6-4.5 1.5.7-3Z" fill="#7F581B"/><path d="M40.5 32.3H42c1.7 3.2 1.8 5.4.8 9a24.7 24.7 0 0 1-4.5 3.7c0-1.6.2-3.1.3-4.7l.1-2.6a12 12 0 0 1 1.8-5.5Z" fill="#474A41"/><path d="M117.5 23.3c3.9.2 6.4 2.4 9 5.2V30l1.4.5c1.6 1 1.6 1 2.1 3.3l.2 2.2c-2.2-.8-2.2-.8-3.1-2.3-2.4-3.8-6-6.5-9.6-9v-1.4Z" fill="#D2D0B6"/><path d="M27 51.8c1.2 4.3 1.7 7.8.9 12.2l-.5 2.4-.3 1.8-2.3-.7c-.3-5.7.3-10.4 2.3-15.8Z" fill="#4B1D01"/><path d="m35.3 36 .7 1.5c-.6 1.6-.6 1.6-1.6 3.4l-1 1.9c-1.1 1.5-1.1 1.5-3.3 2.2l-2.3-1.5V45l-4.5.8 1.5-3.8 2.3.4c3.9-.5 4.9-2.1 7.2-5l1-1.4Z" fill="#844E0F"/><path d="M77.9 120h.7l-.7 6.8 3-1.5c-.8 2.2-.8 2.2-2.5 3l-2 .8-2.1.8-1.6.6 2.2 3c-4.3-.7-4.3-.7-6-1.5l1.5-3.8 6.8-.7-.8-3.8h1.5V120Z" fill="#82897B"/><path d="M46.5 111c4.8-.4 4.8-.4 7 1.4 1.2 1.6 1.2 1.6 2 3.8H54l-1.5-1.5-.8 2.3-2.2-.8-.8.8-5.2-2.3c2.2-.6 3.7-.7 6-.7v-1.5l-3-.8v-.7Z" fill="#4F5243"/><path d="M123.5 90.8h1.5l.7 3 1.5-.8 1.5 3c-2.2 1.1-4.2.4-6.7 0l-.7.8h-3.8v-3c4.4-1.5 4.4-1.5 5.3-1.5l.7-1.5Z" fill="#8B8774"/><path d="m22.6 78 .7 1.5h1.5l.9 5 .4 3c.2 2.4.3 3.5-1.3 5.5-2.3.6-2.3.6-4.5.8v-2.3h3.8l-.3-2.4-.5-3-.2-1.7c-.3-2.1-.5-4.2-.5-6.4Z" fill="#A07B50"/><path d="m72.7 119.3 2.2 2.2-.7 2.3 1.5.7v3.8l-6-.8-.8-3.8 1.5-.7-.7-1.5 3-.8v-1.5Z" fill="#ADB8AC"/><path d="M60.7 82.5h6.7c1.2 2.3 1 4.3.8 6.8l-1.5 1.5-.3-1.5-.5-1.5-1.5-.8.8-1.5h-3.7l-.8-3Z" fill="#0D0801"/><path d="M106.3 38.3c2.2.7 2.2.7 3.5 2.9 1 2.3 1 2.3 1 3.8l1.5.8v1.5l-6-.8-.7-2.3-1.5-1.5h1.5v-1.5h1.5l-.8-3Z" fill="#605439"/><path d="M63.4 39h1.8l-1.5.8V45h3v1.5c-2.8.6-4.8.8-7.5 0l.7-3.3.4-1.9c.6-2.3.7-2.3 3-2.3Z" fill="#090804"/><path d="M104 24c3.3 1 4.7 2.3 6.7 5l1.3 1.8 1 1.4-2.2.8v-2.3l-2.3-.7v-1.5h-1.4l-.8 1.5 2.2.8-3 .7c-1.1-1.2-1.1-1.2-2.2-3 .2-2.4.2-2.4.8-4.5Z" fill="#C2C7BA"/><path d="m81.6 98.3 13.5 1.5-1.5 2.2.7 1.5-7.4.8v-3l-2.2-.7c-2.3-.8-2.3-.8-3-2.3Z" fill="#81745A"/><path d="M128.7 54h3c1 2.2 1.8 4.4 2.3 6.8-1 2.2-1 2.2-2.3 3.7l-3.7-.8v-1.5l2.2-.7-1.5-3.8h1.5l-1.5-3.7Z" fill="#B4B5A3"/><path d="m116.8 45 2.2 2.3v1.5l1.5 1c1.9 1.5 2 2.5 2.3 5l2.2.7c-2 1-3 1.5-5.2 1.5l-1.5-4.7-.9-2.7c-.6-2.4-.6-2.4-.6-4.6Z" fill="#C1B387"/><path d="m47.3 117.8 1.3.4c1.8.5 1.8.5 3.9-.5l3 1.5-.8 2.3h1.5v1.5h-7.5c-1.4-3-1.4-3-1.4-5.3Z" fill="#5A5034"/><path d="M10.6 75h1.5l-.7 1.6c-.9 2.4-1 4.3-.9 6.9v2.4l.1 1.8-1.5.8v-2.3L7 85.5c.7-7.5.7-7.5 3.7-10.5Z" fill="#CDC6AB"/><path d="M44.3 44.3c1.8.7 1.8.7 3.7 2.2.3 3.1 0 6-.7 9l-3-.8v-7.5h-1.5v-1.5h1.5v-1.5Z" fill="#727A6E"/><path d="m110 16.6 2 .6c2.1 1 2.5 1.7 3.3 3.8l-3 1.5V21H110v-1.5l-1.7-.2c-2.1-.6-2.9-1.1-4.2-2.8 2.5-.9 3.4-.6 6 .1Z" fill="#D0D1BE"/><path d="M90.6 138.8c2.2 0 4.3.2 6.5.3h1.8c3.3.2 6.4.5 9.6 1.2v1.4l-6.4.1h-1.8c-3.8.1-6.8-.3-10.4-1.6l.7-1.4Z" fill="#C6CBBC"/><path d="M14.4 93h.7l.4 1.2c1.2 3.8 2.6 7.4 4.3 11l.5 1.3-.7 1.5A52.5 52.5 0 0 1 12 96.7h2.3V93Z" fill="#555A4E"/><path d="m52.5 94.5.7 4.5c-.7.8-.7.8-3.4.8h-2.5c-.9-3.6-.9-3.6 0-5.3 2.3-.8 3-.7 5.2 0Z" fill="#7E8B81"/><path d="M38.3 117.8c4.8 2.7 6 4.2 7.5 9.7l1.5.8c-3.3-.4-5.2-2.4-7.5-4.6v-1.5l-2.3-.7.8-3.8Z" fill="#B1AF99"/><path d="m69.7 90.8 1.5 2.2h-2.3v2.3h1.5v1.5l3-.8.8 1.5c-.8 1.5-.8 1.5-2.2 2l-1.6.3-1.7.4-1.3.3v-5.3L66 96v-3h1.5v-1.5l2.3-.8Z" fill="#3A3C32"/><path d="M36.8 68.3c1 2 .5 3 0 5.2l-7.5-.8v-3l-1.5-.7 9-.8Z" fill="#AD5F0C"/><path d="m80.9 36 .7 1.5h3l.8 3.8c-2.2 1-4.3.7-6.8.7l-1.4-3 3.7-3Z" fill="#191308"/><path d="m89.1 20.8 2.8.8c2.2.8 3.3 1.3 4.7 3.1l-1.5.8-1.5-.7c-2.7-1-5.2-1.2-8-1.4-1.7-.1-1.7-.1-3.2-.9h-3.8c4-3 5.8-3 10.5-1.7Z" fill="#C4C7B7"/><path d="M48.7 126.8h3v3l12.7.7c-5 2.5-9.7 1.7-15 .5-1.4-.5-1.4-.5-2.9-2h3l-.8-2.3Z" fill="#514C3A"/><path d="M66 53.3h5.2l.7 3.7-2.2-.8v1.5h-1.5l-.8-1.5-1 1.2c-1.2 1.1-1.2 1.1-2.7 1.1-1.2-1.1-1.2-1.1-2.2-2.3l.7-2.2 3 1.5.7-2.3Z" fill="#29200F"/><path d="M89.9 19.5c4.6.4 8.4 2 12.7 3.8l-.8 1.4 1.5.8.8 3c-3-1-5.6-2-8.3-3.8l.8-1.4H98l-8.2-3v-.8Z" fill="#DCDDCD"/><path d="m72.7 15 .7 2.3 2.3.7v1.5l-1.5-.3c-4-1-7.8-1.4-12-1.2 3-3.5 6-3 10.5-3Z" fill="#60685C"/><path d="m33.8 109.5 5.2.8v2.2h-2.2l1.3 1.6a49 49 0 0 1 4 5.9c-4-1.6-7-3.8-8.6-7.7l-.5-2 .8-.8Z" fill="#D79932"/><path d="m66.7 94.5 1.5.8v4.5l.7-.8h4.5l.8-2.3 1.5.8V99l1.5.8h-6.8v3.7H69v-2.3l-2.2.8-2.3-3.8H66l.8-3.7Z" fill="#494635"/><path d="M79.4 92.3c1.9 1 1.9 1 4 2.4l2.3 1.4c1.5 1.1 2.9 2.2 4.2 3.7-4.5-.3-7.7-.7-11.3-3.8-.6-1.7-.6-1.7-.7-3l1.5-.8Z" fill="#665330"/><path d="m89.1 89.3 2.5 1c2.6 1.3 2.6 1.3 5 1.2h6.7v2.3c-2.8 1.4-6 .8-9 0l-3.7-.8v-2.3h-1.5v-1.5Z" fill="#616351"/><path d="M131.7 67.5h2.3c.1 4.8 0 9-1.5 13.5l-4.5.8c.2-1.5.2-1.5.7-3l2.3-.8c1-2 .8-3.8.8-6v-4.5Z" fill="#C79537"/><path d="M113 33h1.5v1.5h1.5V36h1.5v1.5l2.3-.8v1.5l2.2.8v1.5h1.5c-.7 1.5-.7 1.5-2.1 2.2-1.6 0-1.6 0-3-1A54.7 54.7 0 0 1 113 33Z" fill="#EAE9D9"/><path d="M57.7 84c.9 3.2 1.5 5.7 1.5 9h-3c-1.3-2.9-1.6-5-1.5-8.3 1.5-.7 1.5-.7 3-.7Z" fill="#A4A79A"/><path d="M49.5 62.3c1.1.7 1.1.7 2.2 2.2.4 4.6.4 4.6-.7 6.8h-5.2v-3.8l3-.8.7-4.5Z" fill="#ADB4A8"/><path d="M110.8 49.5C113 52 113 52 113 54c-3.2-.4-5.5-1-8.2-3v-1.5l-1.5-.8c3-.8 4.7-.7 7.5.8Z" fill="#B9B29B"/><path d="M52.5 36c1.8.6 1.8.6 3.7 1.5l.8 2.3-1.5 2.2-1.8-.4c-2-.4-2-.4-4.2-.4l.7-3h1.5l.8-2.2Z" fill="#606B5E"/><path d="m53.7 16 1.9.3 1.4.2-1.2 1.4c-1.3 1.6-1.3 1.6-1 3.9l-3 .7 1.4-3.8-3.7.8-1.5-2.3c2.5-1.6 3-1.6 5.7-1.2Z" fill="#B3BDB1"/><path d="M77.9 117c1.4.2 1.4.2 3 .8l.7 2.2 2.3 1.5-2.2 2.6-1.2 1.5-1.1 1.2h-1.5l.2-1.8.2-2.3.3-2.2c.2-2 .2-2-.7-3.5Z" fill="#595D4E"/><path d="M93 123h15.6c-1.5 1.5-1.5 1.5-3.2 1.6h-2.1l-2.3-.2c-1.5 0-3.1 0-4.7-.2-5-.1-5-.1-9.2 2.2l-1.7 1.8v-4.4c2.6-.9 5-.9 7.7-.9Z" fill="#888C7D"/><path d="M128 69h3.7l-.7 7.5-1.5-.8-1.5 1.5c-1.2-2.4-.8-4.7-.8-7.5l.8-.7Z" fill="#D5D9C5"/><path d="M72.7 56.3h1.5l-2.3 15h-1.5C70 61 70 61 72.7 56.3Z" fill="#53330B"/><path d="m54.7 54.8 2.3.7V57h2.2l3 3 1.5.8-.8 2.2-2.1-1.2-2.3-1-1.5.7V60h-2.3v-5.3Z" fill="#201B12"/><path d="M31.6 33.8c-1.1 3.3-2.8 5.6-5.3 8.2-2 1-2 1-3.7 1.5 1.1-4 4.5-9.8 9-9.8Z" fill="#D1CFB6"/><path d="M96.6 25.5c3.3.9 5.3 1.8 7.5 4.5v1.5h-1.5l-.8 1.5v-1.5l-1.3-.7-4.7-2.3.8-3Z" fill="#989B8F"/><path d="m84.6 24.8 5.2-.1h2.9c2.4 0 2.4 0 3.9.8l-.8 3-1.5-.8a142 142 0 0 0-5-.4l-2.6-.2-2-.1v-2.3Z" fill="#544A34"/><path d="M61.5 93.8h2.2l.7 6.7c-2.2 1.5-2.2 1.5-4.4 1.5l-.8-3.8 1.5-.7.8-3.8Z" fill="#BCC1B4"/><path d="m30 30 2.3.8.7 2.2c-1.4 1.5-1.4 1.5-2.8 1.7-2.6.9-3.7 2.9-5.4 5-.5-1.3-.5-1.3-.7-3 1-1.6 1-1.6 2.2-3h1.5l.7-1.4c.8-1.5.8-1.5 1.6-2.3Z" fill="#8F9787"/><path d="M38.3 122.3h1.5v1.5l1.3.6c1.6.8 2.7 1.7 4 3.1l-1.6.8 2.3 1.4-.8 1.6-3.7-2.6-2.1-1.4-1.7-1.3v-1.5H39l-.7-2.3Z" fill="#D0D2C3"/><path d="M129.2 83.2h1.8l-.8 6h-4.5c.8-6 .8-6 3.5-6Z" fill="#CFD3C2"/><path d="m36 78 .8 1.5h-1.5V81l1.5.8-3.8 3-.7-3-5.2-.8c1.5-2.3 1.5-2.3 2.8-2.8 2-.3 4-.2 6.1-.2Z" fill="#727464"/><path d="M50.2 51.8c1 3 .6 5.6.2 8.7l-.2 1.8-.7 4.5-1.5.7-.4-5.1-.3-2.9c0-2.5 0-2.5.7-4.8h1.5l.7-3Z" fill="#BAC1B3"/><path d="M110.8 37.5h1.5l.2 1.5.5 1.5 2.3.8c.7 1.2.7 1.2 1.2 2.8l.6 1.6c.4 1.5.4 1.5.4 4.5H116l-2.2-4.2-1.2-2.4c-1-2.1-1.5-3.9-1.8-6.1Z" fill="#CE9D52"/><path d="M30.8 102h1.5v3h2.2v1.5l1.5.8v1.5h-8.2l1.5-3h1.5V102Z" fill="#8F9789"/><path d="M36.8 91.5 36 93l-11.2-.8.8-2.2c7.9-1.3 7.9-1.3 11.2 1.5Z" fill="#463925"/><path d="M86.1 75h.8c.2 4.8.2 4.8-1.2 7l-1 1.3 3.7-.8-.8 1.5-5.2.8-1.5-9h1.5l1.5 3.7h1.5L86 75Z" fill="#655333"/><path d="m122 69.8 3.7.7c.7 2.5.9 4.3 0 6.8h-1.5l-.7-1.5-1.5 1.5-.4-3.4-.3-1.9v-1.5l.7-.8Z" fill="#473723"/><path d="m114.5 69 .8 2.3 2.2-.8.1 3.6v2A10 10 0 0 1 116 81h-1.5V69Z" fill="#564C36"/><path d="M79.4 60c.7 2.4.8 4.5.8 7v3.5l2.2.8v3h-3.8c-1.6-5-.6-9.5.8-14.3Z" fill="#57360E"/><path d="m104.8 54.8.8 1.5 1.4.6c2 1.1 2.7 2.5 4 4.6l1 2c1.6 2.8 1.9 4.5 1.8 7.8h-1.5l-.4-1.5a23.7 23.7 0 0 0-6.2-11.8c-.9-1-.9-1-.9-3.3Z" fill="#E0AE2D"/><path d="M37.5 58.5c1.7 2.5 1.7 3.3 1.6 6.1v3.7l-3 .7v-1.5l-3-.8 3.7-.7.7-2.3H36l-.7 1.5c.4-4.6.4-4.6.7-6l1.5-.7Z" fill="#0F1006"/><path d="M66.7 11.3c1.5.7 1.5.7 3.7 2.2h1.8c2.6 0 4.2 1 6.4 2.3l-1.4 3.7-1.5-2.3c-1.9-.9-1.9-.9-4-1.5l-2.2-.8c-1.9-.6-3.8-1-5.8-1.4.7-1.5.7-1.5 3-2.3Z" fill="#E5E8DA"/><path d="m60 133.8 2 .2c1.7.3 1.7.3 3.2 1v1.5l-9 .8-1.5-3c2-1 3.1-.8 5.3-.5Z" fill="#484939"/><path d="M89.9 66.8h1.5v3.7h2.2v2.3h-2.2l.7 7.5h-1.5c-.9-2.9-.8-5.5-.8-8.5v-5.1Z" fill="#F5C32E"/><path d="M93.6 45.8v1.5l-12.7 3V48a28 28 0 0 1 12.7-2.3Z" fill="#1E1004"/><path d="m73.6 19 2 .5.8 2.3-6 3-.7-1.6.7-2.2-1.5-.8c2.3-1.4 2.3-1.4 4.7-1.2Z" fill="#D7DCCF"/><path d="m77.2 129.8-1.5 1.4 8.2 3v.8c-6.5.1-6.5.1-9-.8-1.7-1.9-1.7-1.9-3-3.7 2.7-1.6 2.7-1.6 5.3-.8Z" fill="#9AA497"/><path d="M70.4 128.3v1.4c-3 .8-6 1-9 1h-2.9c-2.3-.2-2.3-.2-3.8-1.7l2-.1 2.7-.2 2.6-.2c7-.7 7-.7 8.4-.3Z" fill="#27190B"/><path d="m57.7 119.3 6 4.5-.8 2.2c-5-.6-5-.6-6.7-2.3l2.3-1.5L57 120l.7-.8Z" fill="#502E15"/><path d="M104 55.5c3 2.7 6.1 5.9 7.5 9.8-.6 1.6-.6 1.6-1.5 3l-1.5-.8-.6-2.8c-.7-3.2-2-4.8-4.6-7l.8-2.2Z" fill="#AD6A0B"/><path d="M88.4 58.5h1.5v8.3l-1.8-.4c-2-.5-2-.5-4.2-.4a7.8 7.8 0 0 1 3-5.3l1.5-2.2Z" fill="#170F06"/><path d="m54.9 22.8 1.3.4v1.6L53.7 27c-1.7 1.4-3.4 2.9-5 4.5-.3-2.3-.4-3.9 1-5.8 3-3.3 3-3.3 5.2-3Z" fill="#2E342B"/><path d="M68.2 20.3c-6 4.4-6 4.4-9.4 4.7l-1.8-.3v-1.4h1.5v-1.6c7.4-2.6 7.4-2.6 9.7-1.4Z" fill="#9BA399"/><path d="M14.4 82.5c1.7 2.8 1.5 5 1.5 8.3l.7 5.2-1.5.8L14 92l-.6-2.7a9.4 9.4 0 0 1 1-6.9Z" fill="#BFBAA9"/><path d="m112.3 80.3.7 1.5h2.3v3h-1.5V87h-3v2.3l-2.3-.8 1-1.6c1.3-2.2 2-4.3 2.8-6.7Z" fill="#624A1D"/><path d="M59.2 76.5c1.6 2.6 1.6 4.5 1.5 7.5H57l-.8-6 1.5-.8 1.5.8v-1.5Z" fill="#413320"/><path d="M126.5 54.8c1.5 0 1.5 0 3 .7l.7 2.3h-1.5v1.5l1.5.7-.7 1.5h-3l-1.5-5.3 1.5-1.5Z" fill="#D3D1BF"/><path d="m64.4 33.8 3.8.7v3.8l3 .7.7-1.5.8 3h-6.8l-.7-3.8-3 .8c1.4-3 1.4-3 2.2-3.8Z" fill="#423E2C"/><path d="M40.5 102c4.3 1.1 4.3 1.1 5.5 3l.5 1.5.8.8.7 2.2c-2 0-2 0-4.5-.8a32.2 32.2 0 0 1-3-6.7Z" fill="#927F53"/><path d="m86.9 101.3.7 3.7-3 1.5v-3h-4.5l-.7-2.3c2.8-.9 4.6-.4 7.5 0Z" fill="#545750"/><path d="M15.1 88.5h1.5c.7 2.2.8 3.5.8 5.8v3.2h1.4l.9 3 .5 1.5.1 1.5-1.5 1.5a39.2 39.2 0 0 1-3.7-16.5Z" fill="#D1D3C4"/><path d="M77.9 74.3c1.6 1.2 2.2 1.9 2.5 4l.1 1.9c.2 3.1.9 4.9 2.6 7.5l-.7 3a30.3 30.3 0 0 1-4.5-16.5Z" fill="#5A3603"/><path d="M101 54.8v1.5l-2.5.5c-2.6.6-2.6.6-3.6 2.3l-.6 1.6-2.2 4.5-1.5-.7c1.1-4.3 3-6.9 6.8-9.2 1.4-.5 1.4-.5 3.7-.5Z" fill="#E9AC1F"/><path d="M63.7 36c1.6.2 1.6.2 3 .8l-.4 1.5c-.4 2.3-.4 4.4-.4 6.7h-3l.8-5.3-2.2-1.5c.9-1.1.9-1.1 2.2-2.2Z" fill="#291B14"/><path d="m55.5 30 2.2 2.3 2.3-.8.7 2.3h-2.2v1.5l-3.8 1.5v-1.5l-2.2-.8 3-4.5Z" fill="#CED2C4"/><path d="m68.2 138.8.7 1.4h11.2v-1.4l3 .7v1.5h-10c-4.2 0-8.2-.1-12.4-.8v-.7l7.5-.8Z" fill="#383E33"/><path d="M70.4 99.8h5.3v3.7c-.8.8-.8.8-3 .8h-2.3v-4.5Z" fill="#6C6248"/><path d="m104 96 .8 3-2.2.8v-3l1.5-.8Zm-9 3.8h7.6v2.2h-8.3l.8-2.3Z" fill="#7A7B71"/><path d="M27 81.8c1.6 1.1 1.6 1.1 3 3 .2 2.8.2 2.8 0 5.2h-3.7l-.7-5.3.7 1.5h1.5l-.7-4.5Z" fill="#694D1E"/><path d="M18.8 75.8h1.5l.2 1.6.2 2 .2 2.1c0 1.7 0 1.7 1 2.5v5.3h1.4v1.5h-2.2a812 812 0 0 1-1.1-5l-.7-2.8c-.4-2.5-.5-4.7-.5-7.3Z" fill="#D27303"/><path d="M98.5 61.5h1.8v2.3l1.8.4 2 1c.6 2.4.6 2.4.7 4.5-2.2-2.8-2.2-2.8-2.2-4.5h-5.3V63l-1.5 2.3h-1.5c1.8-3.8 1.8-3.8 4.2-3.8Z" fill="#805319"/><path d="M116 55.5c2.3.8 2.3.8 3.6 2.4 1.1 2.6.8 4 .2 6.6h-2.3a20.6 20.6 0 0 1-1.5-9Z" fill="#BA9146"/><path d="M98 36.8h1.6l.7 3.7 1.5-2.3 2.3 1.5-1.5 3.8L101 42c-2 .2-2 .2-3.8.8v-5.3l.8-.8Z" fill="#79674D"/><path d="m22.6 36.8 2.2.7c-1 3.2-2.2 6-3.7 9l-2.3-.8v-2.2h1.5l2.3-6.8Z" fill="#A6A998"/><path d="M97.3 35.3c6.4.5 6.4.5 9 3l-.7 2.2-3.8-1.5v1.5h-1.5l-.7-3.8-2.3.8v-2.3Z" fill="#2A1E0D"/><path d="M45.8 17.3c2.2.7 4 1.6 6 3a24.6 24.6 0 0 1-11.3 1.4c2-2 3.2-2.6 6-3l-2.2-.7 1.5-.8Z" fill="#343B2F"/><path d="m72 111 3.2 2.2 1.9 1.2c1.5 1.1 1.5 1.1 2.3 2.6l-2.2.8-2.3-2.3-1.5 1.5-2.2-.8c-1-1.9-1-1.9-1.5-3.7h2.2V111Z" fill="#898E85"/><path d="M41.3 93.8a19 19 0 0 1 2.2 7.5l-3.7.7c-.9-1.7-.9-1.7-1.5-3.8l1.5-2.2.7.8.8-3Z" fill="#54594D"/><path d="M30.6 92.2H36l.8 3h-2.3v-1.5H21.8a16 16 0 0 1 8.8-1.5Z" fill="#7B7C6E"/><path d="M107.8 82.5h1.5l.7 2.3a106 106 0 0 1-3.7 3.7h-1.5l-.7 1.5-5.3-1.5c2-1 3.8-.8 6-.8l.7-1.7c.8-2 .8-2 2.3-3.5Z" fill="#BB8B19"/><path d="M134.7 63.8h1.5c.9 2.6.7 4.4.5 7.2l-.2 2.6-.3 2.2-1.5.7V63.7Z" fill="#CDD5C2"/><path d="M113.8 57h1.5c1.8 3.2 2.5 5.3 2.2 9l-3 .8-.7-9.8Z" fill="#A49F7D"/><path d="m60.7 17.3 3.6-.1h2c1.7 0 3.2.3 4.9.8v1.5L63.7 21l-3-3.8Z" fill="#B1BBAF"/><path d="m37.5 109.5 9.8.8-.8 2.2-6.7.8-.8-3-1.5-.8Z" fill="#887D5C"/><path d="M91.4 53.3v1.5l-2 1-1.8 1.2c-.3 2-.3 2 0 3.8l-3 .7c-.3-4.7-.3-4.7 1.3-7 2-1.4 3-1.5 5.5-1.3Z" fill="#4C493B"/><path d="M76.4 102c5.7.7 5.7.7 8.2 1.5l-.7 3v-2.3l-2.1 1.2c-2.4 1.1-2.4 1.1-4.6 1.1l-.8-4.5Z" fill="#666B67"/><path d="m118.3 85.5 3 1.5.7-.8h1.5V90l-3 1.5-3-2.3.8-3.7Z" fill="#90927E"/><path d="M83.1 87c3 1 4.1 2.7 6 5.3l.8 2.2c-2.6-.8-4.5-1.5-6.8-3V87Z" fill="#5D5D4B"/><path d="M29.3 69.8v3l2.2-.5 2.3-.3 1.5 1.5h-6.1c-1.9 0-3.4-.2-5.1-.8.2-1.4.2-1.4.7-3 2.3-.7 2.3-.7 4.5 0Z" fill="#D98D1B"/><path d="M100.3 45c3.7-.3 5.8.4 9 2.3-2.4 1.5-4 1.8-6.7 2.2v-3h-2.3V45Z" fill="#7B6644"/><path d="M63.7 15.8c-1 2-2.4 2.4-4.4 3.4l-2 1c-1.8.8-1.8.8-3.3.8 2-4.9 4.6-5.5 9.7-5.3Z" fill="#D7DFD6"/><path d="M93.6 15.8h7.5l-.8 3h1.5l-.7 1.4c-3-.4-5-2-7.5-3.7v-.8Z" fill="#ECECDB"/><path d="m110.8 95.3.7 1.5H110l-.7 3.7-3-.8v-2.2h-1.5V96c2-1 3.8-.8 6-.8Z" fill="#ABA695"/><path d="M12.9 89.3c1.8 2.7 1.6 4.2 1.5 7.5H12a14 14 0 0 1-1.5-6.8l2.3-.8Z" fill="#4E452C"/><path d="m75 82.5.7 3h1.5l2.2 7.5c-3-1.5-3-1.5-4.4-4-.8-2.7-1-3.9 0-6.5Z" fill="#342003"/><path d="M105.6 63c2 2 1.9 4 2.2 6.8l-2.2.7-.2-1.3c-.8-2.2-2-3.2-3.6-4.7l-1.5-1.5c2.3-.7 3-.8 5.3 0Z" fill="#2F1A06"/><path d="m46.5 120 2.2.8v2.2l1.3.3c2 .5 4.1 1.2 6.2 2l-1.5 2.2A8.4 8.4 0 0 1 49 125c-1.5-1.8-2.1-2.7-2.4-5Z" fill="#99500E"/><path d="M134 67.5h.7V81c-3 1.5-3 1.5-4.7 1.2l-1.3-.5 3.8-.7 1.5-13.5Z" fill="#DFCD9E"/><path d="M50.2 77.3h1.5l.8 4.5-.8.7.4 5 .2 2.6.2 2.2-.8-2.3-1.5-.8-.5-5.6V82c-.2-1.3-.2-2.7-.2-4l.7-.8Z" fill="#9EA497"/><path d="m35.3 59.3-1.5.7.7 3.8c-2 1-2.9 1.5-5.2 1.5l.8-3.8h2.2V60l-2.2-.8c2.2-.7 2.8-.7 5.2 0Z" fill="#0F0D04"/><path d="M111 129h2.8l-2.3.8v1.4c-2.9 1.5-4.9 1.7-8 1.3l-2.3-.3-1.6-.2v-.8l4.4-.4c2.7-.5 4-2 7-1.9Z" fill="#CBD0C0"/><path d="M94.3 93c1.5.2 1.5.2 3 .8l.8 2.2-2.3-.8-.7 1.5h1.5v1.5c-2 .6-2 .6-4.5.8-1.8-1-1.8-1-3-2.3l4.5.8.7-4.5Z" fill="#818571"/><path d="m34.5 82.5 4.5.8-.7 6-.8-2.3-2.2-.8-.8-2.2-.7 3-1.5-.8v-1.5h1.5l.7-2.2Z" fill="#30362E"/><path d="m112.3 45.8 1.5.7V48h2.2v2.3h1.5l-.7 3.7-.8-1.5-1.5-.5-1.5-1c-.5-2.7-.5-2.7-.7-5.3Z" fill="#A4A283"/><path d="m27.8 43.5 2.3.8v1.5h-2.3l-.6 1.8c-.9 1.9-.9 1.9-2.4 2.6v-1.5h-2.2v-1.5H24v-1.5l3.7-.7v-1.5Z" fill="#CF851C"/><path d="m82.4 27 3 .8v1.4l3.7.8-1.5 3h-2.2v-1.5l-2.3-.8-.7-3.7Z" fill="#2E281B"/><path d="m74.3 24 1.4.8c-2.6 2.7-5.1 4.7-8.3 6.7 1.1-2.5 2.5-4.1 4.5-6l-2.2-.8c2.6-1.6 2.6-1.6 4.6-.8Z" fill="#979E92"/><path d="m77.9 117.8 1.5 1.5-1.8 3.8c-.6 1.6-.6 1.6-.4 4.4l-3-1.5c0-3.5 1.8-5.4 3.7-8.3Z" fill="#9FA799"/><path d="M60 66.8h.7c.1 5.5.1 5.5-.7 8.2h-3l.7-3.8H60l-2.3-.7v-2.3H60v-1.5Z" fill="#484438"/><path d="M75.7 57.8h.7a23 23 0 0 1-3 11.2h-.7c.4-8 .4-8 3-11.3Z" fill="#261000"/><path d="M12.9 54.8h1.5c.8 3.2.5 5.9 0 9.2l-.4 2.8-.4 2.2c-1.9-2.8-1.5-5.6-1.2-8.8l.1-1.6.4-3.9Z" fill="#BFC8B6"/><path d="m98.2 103.8 2 .3 1.6.2-2.2.7v1.5H98V105h-2.3v3.8l-.6-1.5c-.7-1.7-.7-1.7-2.4-2.3v1.5l-2.2-.8h1.5v-1.5c2.4-.8 3.7-.7 6.1-.4Z" fill="#707567"/><path d="M125.7 74.3h.8l1.5 5.2.6 1.6c.1 1.4.1 1.4-1.3 3l-1.6 1.4c-.8-2.5-.6-4.2 0-6.8h-1.5v-1.5h1.5v-3Z" fill="#848065"/><path d="M109.3 75c1.6.2 1.6.2 3 .8v3h-1.5l-.8 1.5-2.2-.8V78h-1.5l.8-2.3v1.5l.9-1.1 1.3-1.1Z" fill="#81410D"/><path d="M95.8 72h2.3l.7 3.8 4.5.7v.8h-7.5V72Z" fill="#E79E0E"/><path d="M24.8 73.5h10.5v.8h-7.5v3h-1.5l-1.5 1.5c-.7-2.3-.7-2.3 0-5.3Z" fill="#753D08"/><path d="M37.5 48.8c2.3 2.7 2.3 2.7 2.3 5.2l-3 .8v1.5h-1.5l.4-2.2c.4-2.3.4-2.3.3-4.6l1.5-.8Z" fill="#14160E"/><path d="M132.5 36c3.8 3.5 6.3 8.3 6.7 13.5a51.6 51.6 0 0 1-4.6-7.2l-1.2-2.1c-1-2-1-2-1-4.2Z" fill="#DCDCC7"/><path d="M36 36.8h2.3v6.7h-3.8c.7-6 .7-6 1.5-6.8Z" fill="#1B180A"/><path d="m76.4 31.5 3 1.5v3l-1.4.7c-1.7.8-1.7.8-3 2.3v-6.8l1.4-.7Z" fill="#737568"/><path d="M54.7 24.8h1.5c-.4 2.6-1.3 3.7-3.4 5.4l-1.4 1.2-1.2.9-1.5-.8 3-3.4 1.6-1.9 1.4-1.4Z" fill="#666C62"/><path d="M27 139.5v.8l-4.5.4-1.4.3-.8 1.5h-6.7l.8-1.5c4.3-1.4 8.1-1.7 12.7-1.5Z" fill="#7E877B"/><path d="m77.9 131.3 1.4.1 1.8.2 1.8.2c2 .2 2 .2 4.7.2l-.7 3.8-3.7-1-2-.6c-1.8-.7-1.8-.7-3.3-3Z" fill="#A5AEA1"/><path d="m45.8 126 3.7 1.5v1.5l-1.5.8.7 3-3-.8-.7-2.3-2.2-2.2h3V126Z" fill="#919789"/><path d="M114.5 105c1 2 .6 2.9 0 5l-.4 1.8-.3 1.5h-3c-.3-2-.3-3.3.8-5l3-3.3Z" fill="#EDE7CC"/><path d="M117.5 97.5h1.5v3h-1.5l-.5 1.2a64.7 64.7 0 0 1-4 6.3l-1.5-.8 3-4.8.8-1.4 2.2-3.5Z" fill="#E1C06F"/><path d="M29.3 81.8H33V87h-2.2v1.5l2.2.8-3 .7v-6h1.6v-1.5l-2.3-.8Z" fill="#43473D"/><path d="m90.6 82.5 1.5 3-.7 2.3h1.4l-.7 1.5-1.8-1.1a54 54 0 0 0-3.4-2l.7-3 2.3.8.7-1.5Z" fill="#372D14"/><path d="M27.8 75.8h6.7V78l-6 .8-1.4-1.5.7-1.5Z" fill="#3C3524"/><path d="M39 64.5h.8v12.8H39l-.7-5.3h-1.5l.7-3.8H39v-3.7Z" fill="#6F5437"/><path d="m83.1 50.3 2.3.7c-2.7 2.3-2.7 2.3-5.3 2.3v1.5l-3 1.5c.7-3.6.7-3.6 1.5-5.3l4.5.8v-1.5Z" fill="#5B3817"/><path d="M54 12.8h9v1.4l3 .8-6.8.8-.7-1.6H54v-1.4Z" fill="#757E73"/><path d="m99.4 131.7 2.4.3c-2.1 2.6-3.2 3.7-6.6 4.4l-2.3.1c3-4.4 3-4.4 6.5-4.8Z" fill="#E5E9D9"/><path d="M86.9 116.3c-.8 2.2-.8 2.2-3 3.7h-3v-2.3l-1.5-.7c2.5-.6 4.9-.8 7.5-.8Z" fill="#878F84"/><path d="M110.7 90.9c.8 1.3.8 1.3.6 3l-.5 1.3h-2.3v-1.5l-3-1.5c.8-1.5.8-1.5 2.2-2 1.6-.2 1.6-.2 3 .7Z" fill="#828274"/><path d="M51.7 64.5h.8l.7 10.5-1.5-.8v-1.5h-4.4v-1.5H51l.7-6.7Z" fill="#4A4F44"/><path d="M18.8 63h.8a29 29 0 0 1 .7 10.5L18.8 75l-.4-3.9-.2-2.2c-.1-2.1.1-3.8.6-5.9Z" fill="#CD6F07"/><path d="M83.9 56.3c1.5 2.2 1.5 2.2 1.5 4.5l2.2.7-1.5 1.5H84v-2.3h-1.5l-.8 1.5.8-4.5h1.5v-1.5Z" fill="#2C2218"/><path d="m72 54 2.2 2.3h-1.5l-1.5 4.5-4.5.7 2.2-.8.8-4.5h1.5l.7-2.2Z" fill="#51442C"/><path d="M21.8 43.5c.8 2.3.8 2.3.4 3.8-1.1 1.5-1.1 1.5-3.4 2l-2.2.2.8-4.5 1.4-.8 2.3 2.3.7-3Z" fill="#BABDAA"/><path d="m129.5 42 2.2.8.8 3h1.5l.7 5.2h-1.5l-1.9-4-1-2.4c-.8-1.9-.8-1.9-.8-2.6Z" fill="#D9DAC6"/><path d="m72 30.8-5.3 4.4-2.3-2.2c4-3.1 4-3.1 7.5-2.3Z" fill="#7A7E74"/><path d="m48.7 25.5 1.5.8-7.4 7.4-.8-3c1.7-2.5 2.5-2.7 5.3-3.7l1.4-1.5Z" fill="#6F7974"/><path d="m34.5 84 1.5.8.8 5.2c-4.3-.7-4.3-.7-6-1.5V87l1.5-.2 1.5-.5.7-2.3Z" fill="#515248"/><path d="M131 84h2.2v3.8h-1.5l-.7 3h-3.8l2.3-1.5c.9-2.7.9-2.7 1.5-5.3Z" fill="#7F8372"/><path d="m60.7 84.8 4.5 3.7-.8 3.8-.7-1.5h-2.2V87h-2.3v-1.5l1.5-.8Z" fill="#392B19"/><path d="m14.4 75.8 1.5.7.8 4.2.4 2.3.2 1.8H16v-2.3h-1.5l-.8 2.3.8-9Z" fill="#CACBBB"/><path d="M94.3 68.3h1.5v9l-2.2-.8V75h-1.5v-2.3h1.5V71c0-1.9 0-1.9.7-2.7Z" fill="#7F3E05"/><path d="M98.9 58.2c2.2.3 2.2.3 3.7 1.8l-2.9 1.2-1.6.6c-1.5.5-1.5.5-3.8-.3 1.4-2.4 1.8-3 4.6-3.3Z" fill="#461A01"/><path d="M99.6 53.3h3.7c-.6 3.5-.6 3.5-1.5 5.2-2 .4-4 .6-6 .8v-1.5c2.2-1 3.6-1.5 6-1.5V54l-2.2-.8Z" fill="#8C580F"/><path d="m74.2 32.3 1.5 1.5c-.3 2.3-.3 2.3-.8 4.5l-.7-1.5h-3.8l-.7-3h3.7l.8-1.5Z" fill="#353B30"/><path d="m38.3 27-.8 1.5-3.7.8V33l3.7-.8-.7 1.5H33l-2.2-4.5c2.6-1.8 4.3-2.5 7.5-2.2Z" fill="#5E5132"/><path d="M117.5 23.3c3.3.3 5.1 1.4 7.5 3.7v2.3c-2.7-1.3-5.1-2.8-7.5-4.6v-1.4Z" fill="#CBC8B0"/><path d="M.9 139.5h12v.8l-4 .7-2 .4c-2.1.3-4 .4-6 .3v-2.2Z" fill="#B0B9AC"/><path d="M80.1 80.3c1.2 1 1.2 1 2.3 2.2v2.3L86 84l-.7 3-2.3-.8-.7 1.5c-1.8-2.6-2.5-4.2-2.3-7.5Z" fill="#322F17"/><path d="M60.7 74.3h1.5c1 2.1 1.5 3.5 1.5 6l-3.7-.8V75l.7-.8Z" fill="#141007"/><path d="M85.4 71.3h.7v8.2h-3l-.2-1.8-.5-2-1.5-.7H83l1.5 1.5.8-5.3Z" fill="#2D210F"/><path d="M85.4 50.3c0 2.7-1 3.5-2.8 5.5-1.3 1.6-2.2 3.2-3.2 5h-.8V57l1.5-.8.8-2.2h1.5v-1.5l3-2.3Z" fill="#D49323"/><path d="m60.7 47.3 3 .7c-.6 5.7-.6 5.7-2.2 8.3l-3-.8 1.4-1.7c1.7-2 1.7-2 2.3-4.3h-1.5v-2.3Z" fill="#68675B"/><path d="M45 12.8h9v1.4l-8.2 2.3-.8-3.8Z" fill="#C3C8B8"/><path d="m72.7 119.3 2.2 2.2-1.5.8L72 126h-2.2l-.8-2.3 1.5-.7-.7-1.5 3-.8v-1.5Z" fill="#B8BBAF"/><path d="m86.9 118.5 3.7 3.8a12.6 12.6 0 0 1-6 2.2c1.4-5.2 1.4-5.2 2.3-6Z" fill="#BFC4B5"/><path d="M59.2 95.3h1.5l.8 3.7-2.3-.8.8 4.5-2.3-.7-.7-5.3h1.5l.7-1.5Z" fill="#818A7E"/><path d="M86.1 84c1.5.8 1.5.8 2.3 2.3l2.2 2.2h-3l-.7 2.3-3.8-4.5h2.3L86 84Z" fill="#464437"/><path d="m12.1 75-1 3.3-.5 1.9-.7 1.5-2.3.8c-.2-2.8-.3-4 1.4-6.3 1.6-1.2 1.6-1.2 3.1-1.2Z" fill="#D4D0BA"/><path d="M98.8 70.5h3v5.3h-3v-5.3Z" fill="#C16701"/><path d="m100.3 51 4.5 1.5V51l2.3.8v3l-9-1.5 2.2-2.3Z" fill="#312414"/><path d="M54 51.8a245.1 245.1 0 0 1 5.2.4l1.5.3.8 1.5c-2.8.6-4.8 1-7.5 0v-2.3Z" fill="#A8AFA1"/><path d="M37.5 27.8c-.2 1.7-.2 1.7-.7 3.7-1.6 1-1.6 1-3 1.5l-.8-3.8c2.9-1.4 2.9-1.4 4.5-1.4Z" fill="#332917"/><path d="m37.5 23.3 1.5.7-.7 1.5h1.5V27l-8.2 1.5c1.9-2 3.6-3.7 6-5.3Z" fill="#747868"/><path d="m61.5 91.5.7 1.5h3c1.6 3.5 1.6 3.5.7 6l-3-3 .8-2.3h-2.2v-2.2Z" fill="#91968A"/><path d="M42.8 90c1.7 2.6 1.9 4.5 2.2 7.5l-2.2.8c-1.3-4.5-1.3-4.5-1.5-6l1.5-2.3Z" fill="#939F93"/><path d="M71.2 71.3h.7l.8 12-2.3-.8.8-11.3Z" fill="#7E541B"/><path d="M86.9 70.5H89V78l-2.2-.8v-6.7Z" fill="#6B3803"/><path d="m113.8 54.8-.8 4.5-1.5-2.3v2.3H110l-1.5-2.3.8-2.3c2.2-.7 2.2-.7 4.5 0Z" fill="#362919"/><path d="M63 49.5h1.4V51l1.5.8v4.5l-3-1.5v-5.3Z" fill="#231505"/><path d="M51 33.8c0 2.2 0 2.2-.8 3.7h-1.5L48 39l-.7-1.5L45 36c3.5-2.3 3.5-2.3 6-2.3Z" fill="#6D786D"/><path d="m48.7 108 2.3.8.7 2.2-9-.8.8-1.5 2.2.1c2.2.2 2.2.2 3-.8Z" fill="#959280"/><path d="M74.2 105c-2 2.3-4 3-6.8 3.8v2.2H66c1.1-4.2 1.1-4.2 2.9-5.5 1.8-.6 3.4-.6 5.4-.5Z" fill="#3D453E"/><path d="m75.7 91.5 2.2.8.1 1.7.6 2c1.9 1 1.9 1 3.8 1.5L80.9 99a24.7 24.7 0 0 1-6-6l.8-1.5Z" fill="#706B56"/><path d="M51.7 81.8h.8l.8 4 .5 2.2.2 2-1.5 1.5c-1-3-1.8-5.8-1.5-9l.7-.8Z" fill="#AAB2A4"/><path d="M88.4 67.5h1.5l.7 12.8h-1.5c-.9-2.7-.8-4.9-.8-7.7v-5.1Z" fill="#AF7304"/><path d="M110.8 66c1.5 1.5 1.5 1.5 1.6 3.5l-.1 1.8h-3.8l-.7-3.8h2.2l.8-1.5Z" fill="#834508"/><path d="M53.2 60H57v3.8l-2.3.7-1.5-.8V60Z" fill="#97988A"/><path d="M122 56.3h3l2.2 6.7-2.2.8-.3-1.8c-.4-2.2-.4-2.2-2-4.3l-1.4-.7.7-.8Z" fill="#433E2B"/><path d="m95.8 40.5 1.5.8v1.5h1.5v3h1.5v1.5h-3c-1.4-2.4-1.6-4-1.5-6.8Z" fill="#292317"/><path d="m67.4 36 6.8.8-.8 2.2h-5.2l-.8-3Z" fill="#626458"/><path d="M105.6 26.3c3.7 1 5.2 3 7.4 6l-2.2.7v-2.3l-2.3-.7v-1.5l-3 .8-.7-2.3.8-.8Z" fill="#B3B7A6"/><path d="m54 126 3.2.3 1.9.1c1.6.3 1.6.3 3.1 1.8h-9l.8-2.2Z" fill="#672802"/><path d="M66.7 123.8c1.4.2 1.4.2 3 .7l.7 2.3c1.5.9 1.5.9 3 1.5H69l-3-3 .8-1.5Z" fill="#A19E89"/><path d="m54.7 114.8 5.3.7.7 3h-4.5l-1.5-3.8Z" fill="#A9AC9B"/><path d="m119 97.5 6 .8-3 .7-.7 3.8H119v-5.3Z" fill="#D4D1BE"/><path d="M100.8 80.2h1.8l-1.5.8v3h-3.8c0-3 .5-3.7 3.5-3.8Z" fill="#8A5519"/><path d="m111.5 63 3 .8v3l3-.8.8 2.3h-4.5l-2.3-5.3Z" fill="#726032"/><path d="m42 59.3 1.5.7v6.8H42c-1-2.1-.8-3.8-.7-6l.7-1.5Z" fill="#868D80"/><path d="M29.3 52.5h.8v5.3h4.4c-1.9 1.9-3.3 1.9-6 2.2 0-5.8 0-5.8.8-7.5Z" fill="#584026"/><path d="M75.7 42H83v2.3l-7.4-.8V42Z" fill="#685636"/><path d="m34.5 34.5 2.3.8-6.7 7.5c0-2.5.4-3.9 1.5-6l2.2-.8.7-1.5Z" fill="#EB9314"/><path d="m94.3 28.5 4.5.8-1.5 3.7h-3v-4.5Z" fill="#595845"/><path d="M95 132c-.1 1.4-.1 1.4-.7 3-2.2 1.5-2.2 1.5-4.2 1.2l-1.7-.4 2.2-1.6 1.5-1.2c1.5-1 1.5-1 3-1Z" fill="#92998C"/><path d="m72 129 1.4.8-.7 1.4 2.2 2.3c-4.3-.7-4.3-.7-6-1.5l.8-2.3 2.2-.7Z" fill="#8C9588"/><path d="m92.8 105 2.3.8v3h-1.5v1.5l-2.2-.8c.3-1.6.7-3 1.4-4.5Z" fill="#96948D"/><path d="M23.3 101.3h1.5l.6 1.4c.8 1.8.8 1.8 3.2 2.3l-.8 3.8a13 13 0 0 1-4.5-7.5Z" fill="#AAB0A2"/><path d="M110 83.3h1.5c-1 2.9-2 4.7-4.4 6.7h-2.3v-1.5l4.5-3.8.7-1.5Z" fill="#E5B52D"/><path d="M72.7 77.3c1.4 1.4 2.2 2.5 2.4 4.5l-.2 4.5c-1.5-.8-1.5-.8-2-2-.3-2.4-.3-4.7-.2-7Z" fill="#2C1401"/><path d="M36.8 72h1.5v6l-2.3-.8-.7-3.7h1.5V72Z" fill="#251503"/><path d="M113.8 68.3h.7v4.5h-6v-2.3l5.3.8v-3Z" fill="#552F07"/><path d="m123.5 66.8 3 .7V69l1.5.8-.8 3.7-.6-1.5c-.8-1.7-.8-1.7-3.1-2.3h1.5v-1.5h-1.5v-1.5Z" fill="#8D8468"/><path d="M86.1 63.8 87 66c1.5 1 1.5 1 3 1.5h-3L86 69l-4.5-1.5 1.4-.6c1.9-.9 1.9-.9 3.1-3.2Z" fill="#3A210B"/><path d="M72.7 56.3h1.5l-1.5 8.2h-1.5c-.2-5.6-.2-5.6 1.5-8.3Z" fill="#2C1A06"/><path d="m75 48.8.7 1.5-1.5 2.2c-2 .4-2 .4-4.2.5l-2.3.2h-1.8c1.5-1.5 1.5-1.5 3.5-1.5h1.8v-1.5l1.4-.3c1.5-.3 1.5-.3 2.3-1.1Z" fill="#52412A"/><path d="M80.1 45v1.5H78l.7 2.3-1.4.7v-3h-3V45c2.4-.8 3.5-.6 6 0Z" fill="#120D02"/><path d="M86.1 135.8H90l.7 1.4h-2.2v1.6l-3 1.4v-1.4h-1.5l.7-1.6h1.5v-1.4Z" fill="#65736B"/><path d="M39.8 122.3c2.5.8 4.3 1.6 6 3.7v1.5l1.5.8c-3.3-.4-5.2-2.4-7.5-4.6v-1.5Z" fill="#B6C3B5"/><path d="M49.5 112.5v1.5l-6.7.8-.8-2.3c2.8-.6 4.8-1 7.5 0Z" fill="#6E7566"/><path d="M95.8 105h2.3l.7 2.3 6 .7v.8h-9V105Z" fill="#A2A898"/><path d="m59.2 98.3 1.8.4c2 .5 2 .5 3.4-.5v2.3c-2.2 1.5-2.2 1.5-4.4 1.5l-.8-3.8Z" fill="#B0B7AD"/><path d="m66.7 94.5 1.5.8-.8 5.2 1.5.8-2.2.7-2.3-3.8H66l.8-3.7Z" fill="#4B5148"/><path d="m75 91.5.7 5.3h-2.3l-.7-1.5-2.3-1.5H72v-1.5c1.5-.8 1.5-.8 3-.8Z" fill="#6D7061"/><path d="m19.6 91.5.7 2.3 4.5.7V96l-2.2.8-1.5 1.5c-1.4-2.4-1.7-4-1.5-6.8Z" fill="#A4AC98"/><path d="M131.7 87.8c.6 1.1.6 1.1.8 3-.9 1.8-2 3.5-3 5.2l-2.3-2.3 1.9-1.7c2-1.8 2-1.8 2.6-4.3Z" fill="#BFBCA9"/><path d="M76.4 82.5c1.5 1.5 2 2.4 2.7 4.4l.5 1.5c.5 1.6 1 3 1.3 4.6-2.3-1.6-2.6-2-3.5-4.4l-.6-1.5c-.4-1.6-.4-1.6-.4-4.6Z" fill="#9C6005"/><path d="M38.3 73.5h.7V81h-3.7l.7-3h2.3v-4.5Z" fill="#31322A"/><path d="M75 64.5c1.1 2.4 0 4.3-.8 6.8h-2.3v-4.5l1.5.7 1.5-3Z" fill="#391601"/><path d="m34.5 62.3 3 1.5-.7 3H33V63l1.5-.8Z" fill="#3C3023"/><path d="m61.5 56.3 2.2.7c.5 1.5.5 1.5.7 3l-2.2.8-2.2-1.5V57l1.5-.8Z" fill="#070401"/><path d="m56.2 42.8.8 3-1.8.5c-2.1.8-2.1.8-3 3l-.5 1.7c-.6-1.3-.6-1.3-.7-3 1.7-2 1.7-2 3.7-3.8l1.5-1.5Z" fill="#C4C9BB"/><path d="m101 41.3 2.3 3c-2.8 1.5-2.8 1.5-4.5 1.5l-.7-3.8 3-.8Z" fill="#442C17"/><path d="M101 33v1.5l3 .8-.7 1.5-6-1.5-.7 2.2v-3C99.4 33 99.4 33 101 33Z" fill="#62512F"/><path d="M37.5 32.3h.8V36l-1.7-.4a13 13 0 0 0-5.8.4c.9-1.5.9-1.5 2.2-3h3.8l.7-.8Z" fill="#B57C32"/><path d="m59.2 14.3-.7 2.2-5.3-.8v-1.4c2.5-.7 3.6-.9 6 0Z" fill="#474F45"/><path d="M88.4 110.3h2.2l.8 5.2-4.5-1.5.7-2.3h1.5l-.7-1.5Z" fill="#838A7D"/><path d="m90.6 106.5 1.5.8-.7 5.2-.8-2.3c-1.5-.5-1.5-.5-3-.7l.8-2.3 2.2-.7Z" fill="#A1A89C"/><path d="M87.6 103.5h6.7l-2.2.8v1.5l-4.5.7v-3Z" fill="#536251"/><path d="M14.4 93h.7l1.5 6h-1.5l-.7 1.5-2.3-3.8h2.3V93Z" fill="#6F6A52"/><path d="M33 89.3c2 1 2 1 3.8 2.2L36 93l-5.2-1.5V90l2.2-.8Z" fill="#32392D"/><path d="M117.5 90c2 .3 2 .3 3.8.8l-1.5 3-2.3-.8-1.5 2.3v-3.8l1.5-1.5Z" fill="#B2B4A2"/><path d="M91.4 86.3a19 19 0 0 1 6.7 5.2c-2.6 0-3.3-.5-5.3-2.3v-1.5h-1.4v-1.5Z" fill="#AC813B"/><path d="M72.7 82.5c.9 1.7 1.6 3.4 2.2 5.3l-1.5.7-1.5 3c-1-3-.5-5 0-8.3l.8-.7Z" fill="#4C3F28"/><path d="m101 81 4.6 1.5-1.5 2.3h-5.3l2.3-.8v-3Z" fill="#50371D"/><path d="M75.7 75.8h.7v3.7l2.2-.8v4.5l-2.2-.7c-1.1-2.2-.8-4.3-.7-6.8Z" fill="#CA850F"/><path d="M49.5 62.3c2.2 2.2 2.2 2.2 2.4 4.9-.2 2.5-.2 2.5-1 4l-1.4-.7v-8.3Z" fill="#9CA195"/><path d="m117.5 64.5 3.8.8-.8 3.7-3-1.5v-3Z" fill="#3E3725"/><path d="M30 57h5.3c1.5 2.3 1.5 2.3 1.2 3.9l-.5 1.4h-1.5v-1.5L33 60l1.5-1.5-4.4-.8V57Z" fill="#252019"/><path d="m80.1 53.3 2.3.7h-1.5l-.3 1.5-.5 1.5-1.5.8-.7 3.7h-.7v-5.3l3-1.5v-1.5Z" fill="#844801"/><path d="M27.8 45.8h1.5c-.4 2.6-1.2 5-2.2 7.5h-.8c-.2-5-.2-5 1.5-7.5Z" fill="#865717"/><path d="m95.8 37.5-1.5 3-.7-1.5-5.2-.8v-.7c2.7-.7 4.7-.7 7.4 0Z" fill="#4E493D"/><path d="m80.9 34.5 6 1.5-.8 3-1.5-1.5h-3l-.7-3Z" fill="#867764"/><path d="m110.8 37.5-.8 3-1.5-1.5-4.4-1.5v-.8c2.8-.7 4.2-.8 6.7.8Z" fill="#99804C"/><path d="M73.4 22.5h3.8l.7 3-3.7 3-.8-2.3 1.5-1.4-1.5-2.3Z" fill="#BBC3B5"/><path d="m48.7 130.5 3 .8v2.2l2.3.8v1.4c-1.8-.8-3.6-1.8-5.3-3v-2.2Z" fill="#727462"/><path d="M39 112.5c1.5.2 1.5.2 3 .8l.8 2.2a19 19 0 0 0 2.2 2.3l-.7 1.5-2.7-2.6-1.4-1.4C39 114 39 114 39 112.5Z" fill="#E09420"/><path d="m83.9 93 3.3 2.2 2 1.2 1.4 1.1V99c-3.2-.4-4.7-2.2-6.7-4.5V93Z" fill="#D3A83A"/><path d="m95.8 78 2.3 3-.8 1.5-4.4-.8.7-2.2h2.2V78Z" fill="#76430D"/><path d="M52.5 71.3h2.2V78l-2.2-.8v-6Z" fill="#949C8F"/><path d="m95 69.8 3.8.7v3.8l-.7-2.3h-2.3l-.7 3v-5.3Z" fill="#D88C0E"/><path d="M103.3 60v1.5l2.3-.8v1.5l-5.3.8v-1.5l-2.2-.8c3.5-.7 3.5-.7 5.2-.7Z" fill="#4E351A"/><path d="m46.5 42.8 1.5.7-.7.8 1.4.7v5.3H48l-.7-3.8-1.5.8-.8-3.8 1.5-.8Z" fill="#869084"/><path d="M61.5 39h3.7l-1.5.8v1.5h-1.5l-1.5 3c-.7-2.3-.7-2.3 0-4l.8-1.3Z" fill="#12150A"/><path d="m50.2 38.3 3.8.7v1.5l2.2.8c-1.8.5-3.3.7-5.2.7l-1.5-1.5.7-2.3Z" fill="#7E877B"/><path d="m35.3 36 .7 1.5c-2.6 4.4-2.6 4.4-4.6 5l-1.3.3 2.2-3 1.2-1.7c1-1.4 1-1.4 1.8-2.1Z" fill="#9F5E11"/><path d="m63.7 36 3 .8v3l-5.2-.8 2.2-3Z" fill="#24271B"/><path d="m90.6 27.8 2.2.7.8 4.5h-1.5v-3h-5.2v-.8h3.7v-1.4Z" fill="#76674C"/><path d="M84.6 24.8H90l.7 2.2h-6v-2.3Z" fill="#393622"/><path d="M89.9 21.8c4.1.4 4.1.4 5.8 1.9l.9 1-1.5.8c-4.3-1.8-4.3-1.8-5.2-3.8Z" fill="#D0D2C0"/><path d="m68.2 20.3-7.5 4.4-.7-2.2 1.4-.3 1.5-.4.8-1.6c2.6-.9 2.6-.9 4.5 0Z" fill="#6F756A"/><path d="m77.3 15 1.3.8-1.4 3.7-1.5-2.3-3-1.4c2.5-1.7 2.5-1.7 4.6-.9Z" fill="#D0D7C7"/><path d="m100.3 139.5 8.2.8v1.4h-6v-1.4l-2.2-.8Z" fill="#D6D8C5"/><path d="M77.9 114.8h6L83 117h-3.7l-1.5-2.3Z" fill="#282A20"/><path d="M28.6 108.8c2.4.2 3 .7 4.6 2.6l1.3 1.8-.7 1.5-2.2-.7-1.5-4.5-1.5-.8Z" fill="#DCD4B7"/><path d="M83.1 106.5v1.5l2.3.8-1.8.2-2 .5-.7 1.5-1.5-3.8c2.2-.7 2.2-.7 3.7-.7Z" fill="#3C4038"/><path d="M33 101.3h5.3l-2.3.7.8 1.4c.7 1.6.7 1.6 0 3.8l-.8-3h-1.5l-1.5-3Z" fill="#828A7E"/><path d="M89.9 66.8h1.5v3.7h2.2v2.3h-2.2l-.8 1.5-.7-7.5Z" fill="#C78823"/><path d="M113.8 57h1.5a9.3 9.3 0 0 1 1.5 6h-2.3l-.7-6Z" fill="#C0BFAB"/><path d="M128.7 54h3l.8 5.3-2.3-.8c-.9-2.3-.9-2.3-1.5-4.5Z" fill="#736B56"/><path d="M92.9 50.3H95l.7 4.5-2.2.7-1.5-4.5.8-.8Z" fill="#594F39"/><path d="M45 51h2.3v4.5l-3-.8.7-3.7Z" fill="#676F62"/><path d="M71.2 46.5h3v3.8l-1.5.7-1.5-1.5v-3Z" fill="#180E03"/><path d="m49.5 42 1.5.8-1.5 5.2-.2-1.5-.6-1.5-2.2-.8 3-2.2Z" fill="#96A093"/><path d="M110.8 37.5h1.5l.2 1.5.5 1.5 2.3.8-.8 2.2-.7-1.5-1.5.8c-1.5-2.3-1.5-2.3-1.5-5.3Z" fill="#C9A857"/><path d="m45 37.5 2.3.8c-.6 3.5-.6 3.5-2.3 5.2v-3l-1.5-.8 1.5-2.2Z" fill="#131710"/><path d="m81.6 32.3 5.3.7v1.5l1.5.8-6-.8-.8-2.3Z" fill="#0A0400"/><path d="M68.2 21.8v1.4c-1.7 1.3-1.7 1.3-3.8 2.3l-2.2-.8h1.5v-2.2c1.5-.8 1.5-.8 4.5-.8Z" fill="#E5E8DB"/><path d="M73.4 16.5c1.4 0 1.4 0 3 .8 1.3 2.2 1.3 2.2 2.2 4.4L77.2 24v-1.5l-2.3-.8h1.5c-.8-2.1-1.3-3.5-3-5.2Z" fill="#969B8C"/><path d="M101 110.3h4.6l-.8 3-3.7-.8v-2.3Z" fill="#E8EAD9"/><path d="M37.5 109.5H42v3.8l-3-.8v-2.3l-1.5-.7Z" fill="#81581F"/><path d="M107 102v2.3l-7.4-.8c2.7-1.8 4.2-1.6 7.5-1.5Z" fill="#9DA49A"/><path d="m104 96 .8 3-2.2.8v-3l1.5-.8Zm-3 3.8h1.6v2.2l-3-.8h1.5v-1.5Z" fill="#80877E"/><path d="m117.5 93.8 4.5.7-.7 2.3h-3.8v-3Z" fill="#887857"/><path d="m102.6 91.5.7 2.3c-2 1-3.7.7-6 .7l1.5-.8v-1.5l3.8-.7Z" fill="#78725A"/><path d="m24 88.5 1.6 2.3-.8 2.2-4.5.8v-2.3h3.8v-3Z" fill="#9C7233"/><path d="m95.8 86.3 1.7 1c1.7 1 3.3 1.9 5 2.7-2.2.8-2.2.8-4.1.2-1.8-1-1.8-1-2.4-2.5l-.2-1.5Z" fill="#F5C221"/><path d="M72 87v4.5l-3 .8c-.6-1.4-.6-1.4-.8-3 1.2-1.7 1.7-2.3 3.7-2.3Z" fill="#332E21"/><path d="m12.1 85.5 1.5 1.5-.7 3-3-.8.7-2.2h1.5v-1.5Z" fill="#656653"/><path d="M14.4 82.5c1 1.8 1.5 2.6 1.2 4.7l-.5 1.3L13 87c.3-1.6.7-3 1.5-4.5Z" fill="#BDC2B0"/><path d="M96.6 78.8h6.7v1.5l-6 .7-.7-2.3Z" fill="#BA7810"/><path d="M50.2 72.8h1.5v4.5l-2.2.7-.8-4.5.8 1.5.7-2.3Z" fill="#8A9588"/><path d="M124.2 70.5h1.5c.7 2.5.9 4.3 0 6.8h-1.5v-6.8Z" fill="#6E583A"/><path d="M101 69.8h2.3v1.5l1.5 1.5-.7 2.2h-2.3l-.7-5.3Z" fill="#F0A516"/><path d="M83.1 69h2.3l-1.5 4.5-2.3-.8 1.5-3.7Z" fill="#251708"/><path d="M62.2 54c1.8.9 3 1.5 4.5 3l-3 1.5-2.2-2.3.7-2.2Z" fill="#222019"/><path d="m57.7 45.8 3 .7v3l-3.7-.8.7-3Z" fill="#B1B3A3"/><path d="M80.9 36c.5 1.4.5 1.4.7 3l-1.5 1.5-3-.8L81 36Z" fill="#292713"/><path d="M53.2 32.3v2.2l1.5.8-.7 1.5h-1.5l-.8 1.5h-1.5c.5-2.6 1.4-4 3-6Z" fill="#AFB9AD"/><path d="m66 27.8 1.4.7-1.5 2.3h-1.5v1.4l-3 1.5c1-2.9 2-4.3 4.5-6Z" fill="#B6BBAC"/><path d="M95.8 28.5c3.4-.3 5.4.6 8.3 2.3l-1.5.7-.8 1.5v-1.5l-1.3-.7-4.7-2.3Z" fill="#B6B6A6"/><path d="M42.8 24H45c-1 2.5-2.5 4.1-4.5 6l.8-4.5h1.5V24Z" fill="#7F8376"/><path d="M86.9 138.8h1.5c1.2 1.4 1.2 1.4 2.2 3l-6 .7c1-1.9 1-1.9 2.3-3.8Z" fill="#96A196"/><path d="m80.1 120 3.8.8c-1 1.8-1 1.8-2.3 3.7h-1.5V120Z" fill="#3D4135"/><path d="M30.8 108.8h7.5v.7l-4.5.8-.8 2.2-2.2-3.8Z" fill="#BBA76F"/><path d="m75.7 102 1.5.8c.1 2.7 0 3.5-1.5 6l-1.5-.8 1.5-6Z" fill="#575953"/><path d="m110 100.5.8 1.5h1.5l-.8 2.3-4.4-1.5 3-2.3Z" fill="#C1B991"/><path d="m123.5 95.3 5.2.7v1.5h-2.2V99c-2.3-.8-2.3-.8-3.7-3l.7-.8Z" fill="#9A8C6D"/><path d="m126.5 93 2.2 3c-2.1 1-3.7.5-6 0v-1.5l3.8-1.5Z" fill="#70634A"/><path d="m79.4 92.3 5.2 3.7-2.2.8-4.5-3 1.5-1.5Z" fill="#6A4717"/><path d="M62.2 85.5h3l1.5 5.3h-1.5c-3-4.2-3-4.2-3-5.3Z" fill="#271E10"/><path d="m122 78.8 2.2.7-.7 4.5H122v-1.5l-2.2-.8 2.2-.7v-2.3Z" fill="#6E5A32"/><path d="m128 65.3.7 1.5 2.3.7-1.5 1.5h-3l-.8-2.3h2.3v-1.5Z" fill="#3C3421"/><path d="m129.5 60.8 1.5.7-3 .8v1.5l1.5.7-4.5.8c0-1.5 0-1.5 1-2.7 1.2-1.1 1.2-1.1 3.5-1.9Z" fill="#717261"/><path d="M83.1 54h1.5l-.7 3.8-3 .7c1.4-3.7 1.4-3.7 2.2-4.5Z" fill="#68430B"/><path d="M67.4 54.8h.8V60l-3-.8 2.2-4.5Z" fill="#0A0902"/><path d="m91.4 54.8-.8 2.2h-1.5l-.7 2.3-.8-1.5-1.5-.8c2.7-2.3 2.7-2.3 5.3-2.3Z" fill="#2A281E"/><path d="m120.5 50.3 1.5.7.8 3.8 1.4.7h-3V54h-1.4l.7-3.8Z" fill="#C5C7B1"/><path d="M34.5 39c.7 2 .9 2.7 0 4.7l-.7 1.3-3-.8 1.5-.7 2.2-4.5Z" fill="#493826"/><path d="M39 36h.8l-.8 7.5-1.5-.8c.7-5 .7-5 1.5-6.7Z" fill="#2E3124"/><path d="m43.5 33.8 1.5.7v2.3l3 .7-.7 1.5-3.8-.8c-.7-2.2-.7-2.2 0-4.5Z" fill="#211F17"/><path d="m51 21 .7 1.5 1.5.8-3 2.2-1.5-.8c1.4-2.9 1.4-2.9 2.3-3.7Z" fill="#6D726B"/><path d="m55.5 16.5 1.5.8-1.2 1c-1.3 1.2-1.3 1.2-1 3.4l-3 .8c1.2-4.3 1.2-4.3 3.7-6Z" fill="#A1A9A0"/><path d="m79.4 18.8 4.5.7c-1.3 1.2-1.3 1.2-3 2.3-1.7-.3-1.7-.3-3-.8l1.5-.8v-1.4Z" fill="#EEEDDE"/><path d="M89.1 15.8c2.2-.2 2.2-.2 4.5 0l1.5 2.2-3 .8-.7-2.3-2.3-.8Z" fill="#D7DCCB"/><path d="m104.8 143.3.8 1.4-6.8.8V144c2-1 3.8-.8 6-.8Z" fill="#D2D2C0"/><path d="M64.4 132.8c2.2.2 2.2.2 4.5.7l1.5 2.3c-2-.4-4-.9-6-1.6v-1.4Z" fill="#686C5E"/><path d="M44.3 123.8c4.3 1.3 4.3 1.3 6 3-2.3.7-2.3.7-4.3-.3l-1.7-1.3v-1.5Z" fill="#777563"/><path d="m74.2 114.8 3.7 3.7-.7 1.5h-1.5v-1.5l-1.5-.8v-3Z" fill="#B5BDB3"/><path d="m51.7 113.3 2.3 1.5v1.5h1.5l-.8 3c-2.1-1.8-2.6-3.3-3-6Z" fill="#393625"/><path d="M43.5 114h5.2l.8 1.5L48 117l-4.5-2.3v-.7Z" fill="#5F5D4B"/><path d="m83.9 111 3.7.8-.7 3h-2.3l-1.5-3 .8-.8Z" fill="#4A493B"/><path d="m118.3 108 1.5.8-.8 1.5 1.5.7H119l-.7 2.3h-1.5c.6-3.6.6-3.6 1.5-5.3Z" fill="#F3F3E3"/><path d="m119 99.8.8 1.5h-1.5l-.8 3.7h-2.2c1-2.2 2-3.7 3.7-5.3Z" fill="#EBE3BB"/><path d="m122 94.5.8 2.3 2.2.7c-.8.8-.8.8-3 .8h-2.2c0-1.5 0-1.5 1-2.8l1.2-1Z" fill="#9D9885"/><path d="M76.4 85.5c1.6 2.5 2.2 4.7 3 7.5l-3-1.5.8-1.5a84 84 0 0 0-.8-4.5Z" fill="#4C2F03"/><path d="m12.9 89.3 1.5 3-3.8.7v-3l2.3-.8Z" fill="#5A4E34"/><path d="M39 84h.8l.7 6-2.2.8c-.1-5.1-.1-5.1.7-6.8Z" fill="#434B43"/><path d="m102.6 85.5.7 1.5 1.5.8-4.5.7-2.2-1.5 4.5-1.5Z" fill="#8D6522"/><path d="M45 72h1.5v1.5h2.2V75L45 76.5V72Z" fill="#A4AA9C"/><path d="M107.8 73.5h4.5l-.8 2.3-2.2-.8v1.5h-1.5v-3Z" fill="#492005"/><path d="M39 66v2.3l-3 .7v-1.5l-3-.8c4.3-1.5 4.3-1.5 6-.7Z" fill="#341404"/><path d="m120.5 58.5 2.3.8-.8 3.7-2.2 1.5.7-6Z" fill="#605739"/><path d="m128.7 57.8 1.4.4c1.7.5 1.7.5 3.1-.5l.8 3-1.5 1.5L131 60l-2.3-.8v-1.5Z" fill="#9B9B8B"/><path d="m54.7 54.8 2.3.7v2.3l1.5.7-3 .8c-.8-.8-.8-.8-.8-2.7v-1.9Z" fill="#101108"/><path d="M66 53.3h5.2l.7 2.2-5.2-1.5-.8 2.3v-3Z" fill="#3C2D16"/><path d="m14.4 47.3 2.2 1.5-1.5 6h-.7v-7.5Z" fill="#D6D7C0"/><path d="M90.6 47.3h9v.7l-8.2 1.5-.8-2.3Z" fill="#594A3D"/><path d="M23.3 42.8c.4 1.5.8 2.8.8 4.5h-1.5l-1.5 3c.4-2.8.8-5.1 2.2-7.5Z" fill="#B8945D"/><path d="m26.3 39 1.5.8a11 11 0 0 1-5.2 3.7c.6-1.8.6-1.8 1.5-3.8l2.2-.7Z" fill="#C8BEA0"/><path d="m79.4 32.3 1.5.7v3.8h-1.5l-.8 1.5L78 36h1.5l-.4-1.5-.4-1.5.8-.8Z" fill="#5C553F"/><path d="M48 27.8h.7v3.7l-3.7.8c.9-1.9 1.5-3 3-4.5Z" fill="#212519"/><path d="m60.7 17.3 6 1.4v1.6l-3.8.7-2.2-3.8Z" fill="#A4B0A5"/><path d="M53.2 14.3v1.4l-6 2.3-1.4-1.5 2.9-1.1 1.6-.7c1.4-.4 1.4-.4 3-.4Z" fill="#5E6759"/></g><defs><clipPath id="clip0_5_2"><path fill="#fff" d="M0 0h151v150H0z"/></clipPath></defs></svg>