<svg xmlns="http://www.w3.org/2000/svg" width="512" height="512" fill="none"><g clip-path="url(#a)"><circle cx="256" cy="256" r="256" fill="#F7931A"/><path fill="#69DFFA" d="M208.2 122.8h10.7v10.7h-10.7z"/><path fill="#69DFFA" d="M218.8 122.8h10.7v10.7h-10.7zM261.4 122.8h10.7v10.7h-10.7zM272.1 122.8h10.7v10.7h-10.7zM282.8 122.8h10.7v10.7h-10.7zM208.2 133.5v32h21.3v-32h-21.3ZM261.4 133.5h10.7v32h-21.3v-10.7h10.6v-21.3Z"/><path fill="#69DFFA" d="M272.1 133.5V176h21.3v-42.6h-21.3ZM133.6 154.8h10.6V176h-10.6v-21.3ZM144.3 154.8v10.6h21.3v-10.6h-21.3Z"/><path fill="#69DFFA" d="M165.6 154.8V176h32v-21.3h-32Z"/><path fill="#69DFFA" d="M197.5 154.8h10.7v10.6h-10.7v-10.6ZM229.5 154.8v10.6h21.3v-10.6h-21.3ZM293.4 154.8v10.6h21.3v-10.6h-21.3ZM325.4 154.8h-10.7V176h10.7v-21.3ZM144.3 165.4v10.7h21.3v-10.7h-21.3ZM197.5 165.4h10.7v10.7h-10.7v-10.7ZM208.2 165.4v10.7h21.3v-10.7h-21.3ZM229.5 165.4v10.7h21.3v-10.7h-21.3ZM250.8 165.4v10.7h21.3v-10.7h-21.3ZM293.4 165.4v10.7h21.3v-10.7h-21.3ZM133.6 176h10.6v10.7h-10.6v-10.6Z"/><path fill="#69DFFA" d="M144.3 176v10.7h21.3v-10.6h-21.3Z"/><path fill="#69DFFA" d="M165.6 176v10.7h10.6v10.7h21.3v-21.3h-32ZM197.5 176h10.7v21.4h-10.7v-21.3ZM208.2 176v21.4h21.3v-21.3h-21.3ZM229.5 176v10.7h21.3v-10.6h-21.3ZM250.8 176v10.7h21.3v-10.6h-21.3ZM272.1 176v10.7h21.3v-10.6h-21.3Z"/><path fill="#69DFFA" d="M293.4 176v10.7h10.7v10.7h10.6v-21.3h-21.3ZM325.4 176h-10.7v21.4h10.7v-21.3ZM325.4 186.7v10.7h21.3v-10.7h-21.3ZM357.3 186.7h-10.6v10.7h10.6v-10.7ZM176.2 197.4h21.3v53.3h-21.3v-53.3ZM197.5 197.4h10.7v21.3h-10.7v-21.3ZM208.2 197.4v21.3h21.3v-21.3h-21.3ZM314.7 197.4h-10.6v21.3h10.6v-21.3ZM314.7 197.4h10.7v32h-10.7v-32ZM325.4 197.4v21.3h21.3v-21.3h-21.3ZM357.3 197.4h-10.6v21.3h10.6v-21.3Z"/><path fill="#69DFFA" d="M197.5 218.7h10.7v32h-10.7v-32ZM208.2 218.7v32h21.3v-32h-21.3ZM314.7 218.7h-10.6V240h-10.7v10.7h21.3v-32ZM325.4 218.7V240h21.3v-21.3h-21.3ZM357.3 218.7h-10.6V240h10.6v-21.3ZM314.7 229.4h10.7v21.3h-10.7v-21.3ZM229.5 240v10.7h21.3V240h-21.3ZM250.8 240v10.7h21.3V240h-21.3Z"/><path fill="#69DFFA" d="M272.1 240v10.7h21.3V240h-21.3Z"/><path fill="#0EBFD7" d="M176 250.7V272h21.3v-21.3H176ZM197.3 250.7H208V272h-10.7v-21.3ZM208 250.7V272h21.3v-21.3H208ZM229.3 250.7v10.6h21.3v-10.6h-21.3Z"/><path fill="#0EBFD7" d="M250.6 250.7v10.6H272v-10.6h-21.3ZM272 250.7v10.6h21.2v-10.6H272ZM293.2 250.7v10.6h21.3v-10.6h-21.3ZM325.2 250.7h-10.7V272h10.7v-21.3ZM325.2 261.3h21.3V272h-21.3v-10.7ZM346.5 261.3h21.3V272h-21.3v-10.7ZM367.8 261.3h10.7V272h-10.7v-10.7ZM176 272v42.6h-10.6v32h32v-74.7H176Z"/><path fill="#0EBFD7" d="M208 272h-10.7v32H208v-32ZM208 272h21.3v32H208v-32ZM314.5 272h10.7v21.3h-10.7V272ZM325.2 272v32h21.3v-32h-21.3ZM346.5 272v32h21.3v-32h-21.3ZM378.5 272h-10.7v32h10.7v-32ZM314.5 293.3h10.7v21.3h-10.7v-21.3Z"/><path fill="#0EBFD7" d="M197.3 304H208v21.3h-10.7v-21.4ZM208 304v21.3h21.3v-21.4H208ZM325.2 304h21.3v21.3h-21.3v-21.4ZM346.5 304h21.3v21.3h-21.3v-21.4ZM367.8 304h10.7v21.3h-10.7v-21.4ZM144 314.6h-10.6v32h10.7v-32Z"/><path fill="#0EBFD7" d="M144 314.6h21.4v10.7H144v-10.7ZM229.3 314.6h21.3v10.7h-21.3v-10.7Z"/><path fill="#0EBFD7" d="M250.6 314.6H272v10.7h-21.3v-10.7ZM272 314.6h21.2v32H272v-32ZM293.2 314.6h21.3v10.7h-21.3v-10.7ZM314.5 314.6h10.7v32h-10.7v-32ZM144 325.3v21.3h21.4v-21.3H144ZM197.3 325.3H208v21.3h-10.7v-21.3ZM208 325.3v21.3h21.3v-21.3H208ZM229.3 325.3v21.3h21.3v-21.3h-21.3Z"/><path fill="#0EBFD7" d="M250.6 325.3v21.3H272v-21.3h-21.3ZM293.2 325.3v21.3h21.3v-21.3h-21.3ZM325.2 325.3h21.3v21.3h-21.3v-21.3ZM208 346.6h21.3v10.6H208v-10.6ZM261.3 346.6h10.6v10.6h-10.6v-10.6ZM272 346.6v10.6h10.6-10.7v32h21.3v-42.6H272Z"/><path fill="#0EBFD7" d="M208 357.2v32h21.3v-32H208ZM272 357.2h-10.7v32h10.6v-32Z"/><path fill="#fff" fill-rule="evenodd" d="M197.4 90.9h-10.7v10.6h-10.6V122.8h-10.7v10.7h21.4V101.5h10.6V91Zm10.7 0h-10.7v10.6h10.7V91Zm0 0H229.4v10.6H208V91Zm21.3 0H250.7v10.6H229.4V91Zm21.3 0H272v10.6H250.7V91Zm21.3 0H293.3v10.6H272V91Zm21.3 0h10.6v10.6h10.7v10.7h-10.7v-10.7h-10.6V91Zm21.3 21.3h10.7V133.5h-10.7V112.2Zm-170.5 21.3H122.8V144h-10.6v-10.6h10.6v-10.7H144.1v10.7Zm10.7-10.7H144v10.7H165.4v-10.7h-10.6Zm170.5 0H346.6v10.7H325.3v-10.7Zm-223.8 10.7h10.7V176h-10.7V133.5Zm245 0h10.7V154.8H368v10.6h-10.7v-10.6h-10.6V133.5Zm32 21.3H368v10.6h10.6v-10.6Zm10.7 10.6h-10.7v10.7h10.7v-10.7Zm-287.7 10.7h10.7V197.4h-10.7V176.1Zm287.7 0h-10.7V197.4h10.7V176.1Zm-287.7 21.3h10.7v10.7h-10.7v-10.7Zm21.3 0h-10.6v10.7h10.6v10.6H144.1v-10.6H122.8v-10.7Zm255.7 0h10.7V218.7h-10.7V197.4Zm-223.7 10.7H144v10.6h10.7v-10.6Zm0 10.6H144V250.7h10.7V218.7Zm223.7 0h10.7V240h-10.7V218.7Zm10.7 21.3h10.6v10.7h-10.6V240Zm-234.4 10.7H144V272h10.7V250.7Zm245 0h10.7V272h-10.7V250.7Zm-245 21.3H144V293.3h10.7V272Zm245 0h10.7v31.9h-10.7V272Zm-266.3 10.6h-10.7v10.7h-10.6v10.6h10.6v-10.6H144.1v-10.7h-10.6ZM112.2 304h-10.7v10.7h10.7v-10.7Zm287.6 0h10.7v21.4h-10.7v-21.4Zm-287.6 10.7h-10.7V346.6h10.7V314.6Zm287.6 10.7h10.7v10.6h-10.7v10.7h-10.6v-10.7h10.6v-10.6Zm-287.6 21.3h-10.7V367.9h10.7V346.6Zm255.7 0H389.2v10.6H367.9v-10.6Zm10.6 10.6H368V368h10.6v-10.7ZM112.2 368H144v10.6h-31.9V368Zm42.6 0H144v10.6H165.4V368h-10.6Zm21.3 0h-10.7v10.6h10.7v10.7h10.7V367.9H176Zm149.2 0h-10.7V389.2h10.7V367.9Zm0 0H346.6v10.6H325.3V368Zm21.3 0H367.9v10.6H346.6V368ZM176 389.2h10.7V410.5h10.6V421h-10.7v-10.6h-10.6V389.2Zm149.2 0h-10.7v10.6h10.7v-10.6Zm-10.7 10.6h-10.7v10.7h10.7v-10.7Zm-106.5 10.7h-10.7V421h10.7v-10.6Zm0 0H229.4V421H208v-10.6Zm21.3 0H250.7V421H229.4v-10.6Zm21.3 0H272V421H250.7v-10.6Zm21.3 0H293.3V421H272v-10.6Zm21.3 0h10.6V421h-10.6v-10.6Zm-32-202.4h-10.6v10.6H272v-10.6h-10.7Zm10.7 0h10.6v10.6H272v-10.6Zm-10.7 74.5h-10.6v10.7H272v-10.7h-10.7Zm21.3 0H272v10.7H293.3v-10.7h-10.7Z" clip-rule="evenodd"/><path fill="#2A3B92" fill-rule="evenodd" d="M208 101.5H229.3V122.8H208V101.5Zm-10.7 0h-10.6V133.5H165.4V154.8h31.9v-53.3Zm10.7 0h-10.7v53.3H208v-53.3Zm21.3 0H250.6v53.3H229.3v-53.3Zm21.3 0H272V122.8h-10.6V154.8h-10.7v-53.3Zm21.3 0H293.2v10.7H314.5V154.8H293.2V122.8H272V101.5Zm21.3 0H304v10.7h-10.7v-10.7Zm-170.4 32H144V154.8h-10.7v31.9h10.7v21.4H122.8v-10.7H112v-53.3h10.7v-10.6Zm21.3 0H165.4V154.8H144V133.5Zm170.4 0h10.7V154.8h-10.7V133.5Zm21.4 0h-10.7V186.7H346.5V133.5H336Zm21.3 21.3h-10.7v31.9h10.7V240h-10.7V261.3H367.8V165.4h-10.6v-10.6Zm10.6 10.6h10.7V240H389v106.6H367.8V325.3h10.7v-64h-10.7V165.4Zm-213 21.3H144v21.4h10.6V293.3h-10.6V314.6H165.4V186.7h-10.7Zm21.2 0h-10.6V314.6H176V186.7ZM336 240h-10.7V261.3H346.5V240H336Zm63.9 10.7H389V335.9h10.7V250.7Zm-277 42.6H144V314.6h-10.7V346.6h10.7V367.9H112v-64h10.7v-10.6Zm234.4 32h-10.7V367.9H367.8V325.3h-10.6Zm-202.5 21.3h-10.6V367.9H165.4V346.6h-10.7Zm21.3 0h-10.6V367.9H186.7V410.5h10.6v-63.9H176Zm21.3 0H208V410.5h-10.7v-63.9Zm42.7 0h-10.7V410.5H250.6v-63.9H240Zm21.3 0h-10.7V410.5H272V389.2h-10.6V346.6Zm32 0h21.2V399.8H304v10.7h-10.7v-63.9Zm21.2 0h10.7V367.9h-10.7V346.6Zm21.4 0h-10.7V367.9H346.5V346.6H336ZM208 389.2H229.3V410.5H208V389.2Zm64 0h21.2V410.5H272V389.2Zm-42.7-202.5h21.3V240h-21.3v-53.3Zm21.3 10.7v-10.7H272v21.4h-21.3v-10.7Zm21.3-10.7v21.4h10.7v10.6h-10.7V240h21.3v-53.3H272Zm21.3 0H304V240h-10.7v-53.3ZM250.6 240v-21.3H272V240h-21.3Zm-21.3 32v-10.7h21.3V314.6h-21.3v-42.7Zm21.3-10.7V282.6H272V261.3h-21.3ZM272 272v-10.7h21.3V282.6H272V272Zm21.3-10.7V314.6h21.3V261.3h-21.3ZM250.6 304v-10.6H272V314.6h-21.3v-10.7Zm32-10.6h-10.7V314.6h21.3v-21.3h-10.6Z" clip-rule="evenodd"/></g><defs><clipPath id="a"><path fill="#fff" d="M0 0h512v512H0z"/></clipPath></defs></svg>
