<svg xmlns="http://www.w3.org/2000/svg" width="512" height="512" fill="none"><g clip-path="url(#a)"><circle cx="256" cy="256" r="256" fill="#F7931A"/><path fill="#69DFFA" d="M208.2 122.8h10.7v10.7h-10.7z"/><path fill="#69DFFA" d="M218.8 122.8h10.7v10.7h-10.7zm42.6 0h10.7v10.7h-10.7zm10.7 0h10.7v10.7h-10.7zm10.7 0h10.7v10.7h-10.7zm-74.6 10.7v32h21.3v-32zm53.2 0h10.7v32h-21.3v-10.7h10.6z"/><path fill="#69DFFA" d="M272.1 133.5V176h21.3v-42.6h-21.3Zm-138.5 21.3h10.6V176h-10.6v-21.3Zm10.7 0v10.6h21.3v-10.6z"/><path fill="#69DFFA" d="M165.6 154.8V176h32v-21.3h-32Z"/><path fill="#69DFFA" d="M197.5 154.8h10.7v10.6h-10.7zm32 0v10.6h21.3v-10.6zm63.9 0v10.6h21.3v-10.6zm32 0h-10.7V176h10.7v-21.3Zm-181.1 10.6v10.7h21.3v-10.7zm53.2 0h10.7v10.7h-10.7zm10.7 0v10.7h21.3v-10.7zm21.3 0v10.7h21.3v-10.7zm21.3 0v10.7h21.3v-10.7zm42.6 0v10.7h21.3v-10.7zM133.6 176h10.6v10.7h-10.6v-10.6Z"/><path fill="#69DFFA" d="M144.3 176v10.7h21.3v-10.6h-21.3Z"/><path fill="#69DFFA" d="M165.6 176v10.7h10.6v10.7h21.3v-21.3h-32Zm31.9 0h10.7v21.4h-10.7v-21.3Zm10.7 0v21.4h21.3v-21.3h-21.3Zm21.3 0v10.7h21.3v-10.6h-21.3Zm21.3 0v10.7h21.3v-10.6h-21.3Zm21.3 0v10.7h21.3v-10.6h-21.3Z"/><path fill="#69DFFA" d="M293.4 176v10.7h10.7v10.7h10.6v-21.3h-21.3Zm32 0h-10.7v21.4h10.7v-21.3Zm0 10.7v10.7h21.3v-10.7zm31.9 0h-10.6v10.7h10.6zm-181.1 10.7h21.3v53.3h-21.3zm21.3 0h10.7v21.3h-10.7zm10.7 0v21.3h21.3v-21.3zm106.5 0h-10.6v21.3h10.6zm0 0h10.7v32h-10.7zm10.7 0v21.3h21.3v-21.3zm31.9 0h-10.6v21.3h10.6z"/><path fill="#69DFFA" d="M197.5 218.7h10.7v32h-10.7zm10.7 0v32h21.3v-32zm106.5 0h-10.6V240h-10.7v10.7h21.3zm10.7 0V240h21.3v-21.3zm31.9 0h-10.6V240h10.6zm-42.6 10.7h10.7v21.3h-10.7zM229.5 240v10.7h21.3V240zm21.3 0v10.7h21.3V240z"/><path fill="#69DFFA" d="M272.1 240v10.7h21.3V240z"/><path fill="#0EBFD7" d="M176 250.7V272h21.3v-21.3zm21.3 0H208V272h-10.7zm10.7 0V272h21.3v-21.3zm21.3 0v10.6h21.3v-10.6z"/><path fill="#0EBFD7" d="M250.6 250.7v10.6H272v-10.6h-21.3Zm21.4 0v10.6h21.2v-10.6zm21.2 0v10.6h21.3v-10.6zm32 0h-10.7V272h10.7zm0 10.6h21.3V272h-21.3zm21.3 0h21.3V272h-21.3zm21.3 0h10.7V272h-10.7zM176 272v42.6h-10.6v32h32v-74.7H176Z"/><path fill="#0EBFD7" d="M208 272h-10.7v32H208zm0 0h21.3v32H208zm106.5 0h10.7v21.3h-10.7zm10.7 0v32h21.3v-32zm21.3 0v32h21.3v-32zm32 0h-10.7v32h10.7zm-64 21.3h10.7v21.3h-10.7z"/><path fill="#0EBFD7" d="M197.3 304H208v21.3h-10.7v-21.4Zm10.7 0v21.3h21.3v-21.4H208Zm117.2 0h21.3v21.3h-21.3v-21.4Zm21.3 0h21.3v21.3h-21.3v-21.4Zm21.3 0h10.7v21.3h-10.7v-21.4ZM144 314.6h-10.6v32h10.7v-32Z"/><path fill="#0EBFD7" d="M144 314.6h21.4v10.7H144zm85.3 0h21.3v10.7h-21.3z"/><path fill="#0EBFD7" d="M250.6 314.6H272v10.7h-21.3v-10.7Zm21.4 0h21.2v32H272zm21.2 0h21.3v10.7h-21.3zm21.3 0h10.7v32h-10.7zM144 325.3v21.3h21.4v-21.3zm53.3 0H208v21.3h-10.7zm10.7 0v21.3h21.3v-21.3zm21.3 0v21.3h21.3v-21.3z"/><path fill="#0EBFD7" d="M250.6 325.3v21.3H272v-21.3h-21.3Zm42.6 0v21.3h21.3v-21.3zm32 0h21.3v21.3h-21.3zM208 346.6h21.3v10.6H208zm53.3 0h10.6v10.6h-10.6zm10.7 0v10.6h10.6-10.7v32h21.3v-42.6z"/><path fill="#0EBFD7" d="M208 357.2v32h21.3v-32zm64 0h-10.7v32h10.6v-32Z"/><path fill="#fff" fill-rule="evenodd" d="M197.4 90.9h-10.7v10.6h-10.6v21.3h-10.7v10.7h21.4v-32h10.6V91Zm10.7 0h-10.7v10.6h10.7V91Zm0 0h21.3v10.6H208V91Zm21.3 0h21.3v10.6h-21.3V91Zm21.3 0H272v10.6h-21.3V91Zm21.3 0h21.3v10.6H272V91Zm21.3 0h10.6v10.6h10.7v10.7h-10.7v-10.7h-10.6V91Zm21.3 21.3h10.7v21.3h-10.7zm-170.5 21.3h-21.3V144h-10.6v-10.6h10.6v-10.7h21.3v10.7Zm10.7-10.7H144v10.7h21.4v-10.7zm170.5 0h21.3v10.7h-21.3zm-223.8 10.7h10.7V176h-10.7zm245 0h10.7v21.3H368v10.6h-10.7v-10.6h-10.6v-21.3Zm32 21.3H368v10.6h10.6v-10.6Zm10.7 10.6h-10.7v10.7h10.7zm-287.7 10.7h10.7v21.3h-10.7zm287.7 0h-10.7v21.3h10.7zm-287.7 21.3h10.7v10.7h-10.7zm21.3 0h-10.6v10.7h10.6v10.6h21.3v-10.6h-21.3zm255.7 0h10.7v21.3h-10.7zm-223.7 10.7H144v10.6h10.7v-10.6Zm0 10.6H144v32h10.7v-32Zm223.7 0h10.7V240h-10.7zm10.7 21.3h10.6v10.7h-10.6zm-234.4 10.7H144V272h10.7v-21.3Zm245 0h10.7V272h-10.7zm-245 21.3H144v21.3h10.7V272Zm245 0h10.7v31.9h-10.7zm-266.3 10.6h-10.7v10.7h-10.6v10.6h10.6v-10.6h21.3v-10.7zM112.2 304h-10.7v10.7h10.7zm287.6 0h10.7v21.4h-10.7zm-287.6 10.7h-10.7v31.9h10.7v-32Zm287.6 10.7h10.7V336h-10.7v10.7h-10.6V336h10.6zm-287.6 21.3h-10.7v21.2h10.7v-21.3Zm255.7 0h21.3v10.6h-21.3zm10.6 10.6H368V368h10.6v-10.7ZM112.2 368H144v10.6h-31.9V368Zm42.6 0H144v10.6h21.4V368zm21.3 0h-10.7v10.6h10.7v10.7h10.7v-21.4H176Zm149.2 0h-10.7v21.2h10.7v-21.3Zm0 0h21.3v10.6h-21.3zm21.3 0h21.3v10.6h-21.3zM176 389.2h10.7v21.3h10.6V421h-10.7v-10.6H176zm149.2 0h-10.7v10.6h10.7zm-10.7 10.6h-10.7v10.7h10.7zM208 410.5h-10.7V421H208v-10.6Zm0 0h21.4V421H208v-10.6Zm21.3 0h21.4V421h-21.3v-10.6Zm21.3 0H272V421h-21.3v-10.6Zm21.3 0h21.4V421H272v-10.6Zm21.3 0h10.6V421h-10.6v-10.6Zm-32-202.4h-10.6v10.6H272v-10.6h-10.7Zm10.7 0h10.6v10.6H272v-10.6Zm-10.7 74.5h-10.6v10.7H272v-10.7h-10.7Zm21.3 0H272v10.7h21.3v-10.7h-10.7Z" clip-rule="evenodd"/><path fill="#2A3B92" fill-rule="evenodd" d="M208 101.5h21.3v21.3H208zm-10.7 0h-10.6v32h-21.3v21.3h31.9zm10.7 0h-10.7v53.3H208zm21.3 0h21.3v53.3h-21.3zm21.3 0H272v21.3h-10.6v32h-10.7v-53.3Zm21.3 0h21.3v10.7h21.3v42.6h-21.3v-32H272v-21.3Zm21.3 0H304v10.7h-10.7v-10.7Zm-170.4 32H144v21.3h-10.7v31.9H144v21.4h-21.2v-10.7H112v-53.3h10.7v-10.6Zm21.3 0h21.3v21.3H144v-21.3Zm170.4 0h10.7v21.3h-10.7zm21.4 0h-10.7v53.2h21.3v-53.2H336Zm21.3 21.3h-10.7v31.9h10.7V240h-10.7v21.3h21.3v-95.9h-10.6zm10.6 10.6h10.7V240H389v106.6h-21.2v-21.3h10.7v-64h-10.7zm-213 21.3H144v21.4h10.6v85.2H144v21.3h21.4V186.7h-10.7Zm21.2 0h-10.6v127.9H176zM336 240h-10.7v21.3h21.2V240zm63.9 10.7H389v85.2h10.7v-85.2Zm-277 42.6H144v21.3h-10.7v32H144v21.3h-32v-64h10.7v-10.6Zm234.4 32h-10.7v42.6h21.2v-42.6h-10.6Zm-202.5 21.3h-10.6v21.3h21.2v-21.3h-10.7Zm21.3 0h-10.6v21.3h21.2v42.6h10.6v-63.9H176Zm21.3 0H208v63.9h-10.7v-63.9Zm42.7 0h-10.7v63.9h21.2v-63.9H240Zm21.3 0h-10.7v63.9H272v-21.3h-10.6zm32 0h21.2v53.2H304v10.7h-10.7v-63.9Zm21.2 0h10.7v21.3h-10.7zm21.4 0h-10.7v21.3h21.2v-21.3zm-128 42.6h21.3v21.3H208zm64 0h21.2v21.3H272zm-42.7-202.5h21.3V240h-21.3zm21.3 10.7v-10.7H272v21.4h-21.3v-10.7Zm21.3-10.7v21.4h10.7v10.6h-10.7V240h21.3v-53.3H272Zm21.3 0H304V240h-10.7v-53.3ZM250.6 240v-21.3H272V240h-21.3Zm-21.3 32v-10.7h21.3v53.3h-21.3v-42.7Zm21.3-10.7v21.3H272v-21.3h-21.3ZM272 272v-10.7h21.3v21.3H272zm21.3-10.7v53.3h21.3v-53.3zM250.6 304v-10.6H272v21.2h-21.3v-10.7Zm32-10.6h-10.7v21.2h21.3v-21.3h-10.6Z" clip-rule="evenodd"/></g><defs><clipPath id="a"><path fill="#fff" d="M0 0h512v512H0z"/></clipPath></defs></svg>