<svg xmlns="http://www.w3.org/2000/svg" viewBox="-1.4 -0.1 514.8 513.5"><path fill="#F72C5B" d="m422.2 60.8 5.5 5 6.1 5.4c21.6 18.9 38 43.6 51.2 68.8l1.2 2.2A244.1 244.1 0 0 1 509 211l.5 2.4c5.4 27.9 5.2 60.8-.5 88.6l-.6 3a252.6 252.6 0 0 1-65.9 128 159.7 159.7 0 0 1-20.7 19.8l-5.4 4.4c-50.8 42.9-119 60.3-184.4 55.3a252.8 252.8 0 0 1-152-69c-8.5-7.4-16-15.6-23-24.5l-2-2.3A235.5 235.5 0 0 1 28 375l-1.2-2.3A251.3 251.3 0 0 1 3 302l-.5-2.4c-5.4-27.8-5.3-61 .5-88.6l.6-3c4.8-22.9 12-45 22.4-66l1.1-2.3a258.5 258.5 0 0 1 146-126.5c84-28 182-11.5 249.1 47.6"/><path fill="#0EBED6" d="M187 102h117v11h11v21h31l1 21 10 1v10h21v75h11v10h11v85h-11v11h-21v21l-53 1-1 31h-10v11H187v-43h-75v-63h11v-11h32v-86h-32v-10h-11v-53h11v-11h64z"/><path fill="#2A3C92" d="M187 102h117v11h11v21h31l1 21 10 1v10h21v75h11v10h11v85h-11v11h-21v21l-53 1-1 31h-10v11H187v-43h-75v-63h11v-11h32v-86h-32v-10h-11v-53h11v-11h64zm21 21v32h-75v32h43v128h-43v32h75v43h21v-43h32v43h32v-43h54v-21h31v-64h-53v-21h32v-54h-32v-32h-32v-32h-32v32h-32v-32z"/><path fill="#69DDF8" d="M208 123h21v32h32v-32h32v32h32v32h32v54h-32v10H176v-64h-43v-32h75z"/><path fill="#2A3B92" d="M229 262h85v53h-85z"/><path fill="#2D3F94" d="M229 187h75v54h-75z"/><path fill="#FEFCFD" d="M101 134h22v11h-11v53h11v10h32v86h-32v-11h21v-64h-21v-10h-22z"/><path fill="#FEFDFE" d="M112 294h11v11h-11v63h75v43h-11v-32h-64v-10h-11v-65h11z"/><path fill="#DED0E1" d="M315 113h10v10h22v11h10v21h22v11h10v75h-11v-75h-21v-10h-10c-1-1-1-1-1.1-3v-8.6l.1-10.4h-31z"/><path fill="#F5F2F6" d="M368 347h21v11h-10v11h-11v10h-43v22h-10v10h-11v-11h10v-2.8a4765 4765 0 0 1-.1-21.3v-4c.1-2.9.1-2.9 1.1-3.9a85 85 0 0 1 8.2-.1h3.5l41.3.1z"/><path fill="#FFF" d="M187 411h117v11H187z"/><path fill="#F5EEF3" d="M101 134h22v11h-11v53h11v10h32v86h-1v-85h-53z"/><path fill="#FEFEFE" d="M187 92h117v10H187zm213 159h11v86h-11v10h-11v-11h11z"/><path fill="#FCF7F9" d="M176 102h11v32h-64v-11h53z"/><path fill="#FFF" d="M379 166h10v74h-10zM102 305h10v63h-10z"/><path fill="#F7F8FB" d="M251 283h42v11h-42z"/><path fill="#F1D8E3" d="M187 411h117v1h-95v9h95v1H187z"/><path fill="#FFF" d="M315 113h10v11h21v10h-31z"/><path fill="#FDFBFC" d="M368 347h21v11h-11v10h-10z"/><path fill="#C29DBF" d="M112 294h11v11h-21v63h85v43h-1v-42h-85v-65h11z"/><path fill="#FFF" d="M251 209h31v10h-31z"/><path fill="#F6C7D5" d="M410 251h1v86h-11v10h-11v-11h21z"/><path fill="#FEFDFE" d="M347 369h21v10h-21z"/><path fill="#FFF" d="M358 156h20v10h-20zM187 412h21v9h-21z"/><path fill="#F9F1F5" d="M304 102h11v11h-11z"/><path fill="#FAF8FA" d="M112 294h11v10h-11z"/><path fill="#FCF8FA" d="M389 241h11v10h-11z"/><path fill="#FFF" d="M304 401h10v10h-10z"/><path fill="#BA91B7" d="M314 369h1v31h10v1h-10v10h-1v-10h-10v-1h10z"/></svg>