<?xml version="1.0" encoding="UTF-8"?>
<svg version="1.1" xmlns="http://www.w3.org/2000/svg" width="512" height="513">
<path d="M0 0 C1.82978989 1.66115726 3.64728623 3.33600888 5.44921875 5.02734375 C7.44631729 6.89375966 9.48756701 8.64608863 11.58984375 10.390625 C33.14256918 29.26025604 49.56476911 54.01179309 62.77734375 79.203125 C63.34751221 80.27626953 63.34751221 80.27626953 63.92919922 81.37109375 C75.11144221 102.67799666 82.43920498 126.59035723 86.77734375 150.203125 C86.9381543 151.00911133 87.09896484 151.81509766 87.26464844 152.64550781 C92.66805939 180.48700053 92.42820008 213.42998509 86.77734375 241.203125 C86.58398438 242.20118164 86.390625 243.19923828 86.19140625 244.22753906 C77.01067234 290.6837528 56.08021275 333.47434885 23.77734375 368.203125 C22.60612227 369.55335413 21.43927142 370.90738991 20.27734375 372.265625 C13.93210763 379.51316533 7.1056249 385.94440862 -0.41796875 391.95703125 C-2.24475887 393.41998991 -4.05332574 394.90609455 -5.83984375 396.41796875 C-56.60556692 439.2750852 -124.80315795 456.71913941 -190.21875 451.734375 C-244.96273397 446.62040893 -297.92183276 423.72961644 -338.22265625 386.203125 C-339.55203258 385.05270317 -340.88523233 383.90668112 -342.22265625 382.765625 C-350.76885543 375.28555127 -358.17070235 367.08575066 -365.22265625 358.203125 C-366.17205078 357.07197266 -366.17205078 357.07197266 -367.140625 355.91796875 C-377.73825304 343.17896432 -386.56054563 328.86906635 -394.22265625 314.203125 C-394.61662598 313.45853027 -395.0105957 312.71393555 -395.41650391 311.94677734 C-406.94322893 289.89386347 -414.73108927 265.65101233 -419.22265625 241.203125 C-419.3834668 240.39713867 -419.54427734 239.59115234 -419.70996094 238.76074219 C-425.09784197 210.9992686 -424.9848098 177.88527685 -419.22265625 150.203125 C-419.02397949 149.22682129 -418.82530273 148.25051758 -418.62060547 147.24462891 C-413.82025145 124.30001544 -406.55494378 102.24939109 -396.22265625 81.203125 C-395.67158203 80.08019043 -395.67158203 80.08019043 -395.109375 78.93457031 C-365.61005196 19.59715109 -311.43926127 -25.89575069 -249.21484375 -47.578125 C-165.14028791 -75.68689235 -67.12831518 -59.11520291 0 0 Z " fill="#F72C5B" transform="translate(422.22265625,60.796875)"/>
<path d="M0 0 C38.61 0 77.22 0 117 0 C117 3.63 117 7.26 117 11 C120.63 11 124.26 11 128 11 C128 17.93 128 24.86 128 32 C138.23 32 148.46 32 159 32 C159.33 38.93 159.66 45.86 160 53 C163.3 53.33 166.6 53.66 170 54 C170 57.3 170 60.6 170 64 C176.93 64 183.86 64 191 64 C191 88.75 191 113.5 191 139 C194.63 139 198.26 139 202 139 C202 142.3 202 145.6 202 149 C205.63 149 209.26 149 213 149 C213 177.05 213 205.1 213 234 C209.37 234 205.74 234 202 234 C202 237.63 202 241.26 202 245 C195.07 245 188.14 245 181 245 C181 251.93 181 258.86 181 266 C163.51 266.33 146.02 266.66 128 267 C127.67 277.23 127.34 287.46 127 298 C123.7 298 120.4 298 117 298 C117 301.63 117 305.26 117 309 C78.39 309 39.78 309 0 309 C0 294.81 0 280.62 0 266 C-24.75 266 -49.5 266 -75 266 C-75 245.21 -75 224.42 -75 203 C-71.37 203 -67.74 203 -64 203 C-64 199.37 -64 195.74 -64 192 C-53.44 192 -42.88 192 -32 192 C-32 163.62 -32 135.24 -32 106 C-42.56 106 -53.12 106 -64 106 C-64 102.7 -64 99.4 -64 96 C-67.63 96 -71.26 96 -75 96 C-75 78.51 -75 61.02 -75 43 C-71.37 43 -67.74 43 -64 43 C-64 39.37 -64 35.74 -64 32 C-42.88 32 -21.76 32 0 32 C0 21.44 0 10.88 0 0 Z " fill="#0EBED6" transform="translate(187,102)"/>
<path d="M0 0 C38.61 0 77.22 0 117 0 C117 3.63 117 7.26 117 11 C120.63 11 124.26 11 128 11 C128 17.93 128 24.86 128 32 C138.23 32 148.46 32 159 32 C159.33 38.93 159.66 45.86 160 53 C163.3 53.33 166.6 53.66 170 54 C170 57.3 170 60.6 170 64 C176.93 64 183.86 64 191 64 C191 88.75 191 113.5 191 139 C194.63 139 198.26 139 202 139 C202 142.3 202 145.6 202 149 C205.63 149 209.26 149 213 149 C213 177.05 213 205.1 213 234 C209.37 234 205.74 234 202 234 C202 237.63 202 241.26 202 245 C195.07 245 188.14 245 181 245 C181 251.93 181 258.86 181 266 C163.51 266.33 146.02 266.66 128 267 C127.67 277.23 127.34 287.46 127 298 C123.7 298 120.4 298 117 298 C117 301.63 117 305.26 117 309 C78.39 309 39.78 309 0 309 C0 294.81 0 280.62 0 266 C-24.75 266 -49.5 266 -75 266 C-75 245.21 -75 224.42 -75 203 C-71.37 203 -67.74 203 -64 203 C-64 199.37 -64 195.74 -64 192 C-53.44 192 -42.88 192 -32 192 C-32 163.62 -32 135.24 -32 106 C-42.56 106 -53.12 106 -64 106 C-64 102.7 -64 99.4 -64 96 C-67.63 96 -71.26 96 -75 96 C-75 78.51 -75 61.02 -75 43 C-71.37 43 -67.74 43 -64 43 C-64 39.37 -64 35.74 -64 32 C-42.88 32 -21.76 32 0 32 C0 21.44 0 10.88 0 0 Z M21 21 C21 31.56 21 42.12 21 53 C-3.75 53 -28.5 53 -54 53 C-54 63.56 -54 74.12 -54 85 C-39.81 85 -25.62 85 -11 85 C-11 127.24 -11 169.48 -11 213 C-25.19 213 -39.38 213 -54 213 C-54 223.56 -54 234.12 -54 245 C-29.25 245 -4.5 245 21 245 C21 259.19 21 273.38 21 288 C27.93 288 34.86 288 42 288 C42 273.81 42 259.62 42 245 C52.56 245 63.12 245 74 245 C74 259.19 74 273.38 74 288 C84.56 288 95.12 288 106 288 C106 273.81 106 259.62 106 245 C123.82 245 141.64 245 160 245 C160 238.07 160 231.14 160 224 C170.23 224 180.46 224 191 224 C191 202.88 191 181.76 191 160 C173.51 160 156.02 160 138 160 C138 153.07 138 146.14 138 139 C148.56 139 159.12 139 170 139 C170 121.18 170 103.36 170 85 C159.44 85 148.88 85 138 85 C138 74.44 138 63.88 138 53 C127.44 53 116.88 53 106 53 C106 42.44 106 31.88 106 21 C95.44 21 84.88 21 74 21 C74 31.56 74 42.12 74 53 C63.44 53 52.88 53 42 53 C42 42.44 42 31.88 42 21 C35.07 21 28.14 21 21 21 Z " fill="#2A3C92" transform="translate(187,102)"/>
<path d="M0 0 C6.93 0 13.86 0 21 0 C21 10.56 21 21.12 21 32 C31.56 32 42.12 32 53 32 C53 21.44 53 10.88 53 0 C63.56 0 74.12 0 85 0 C85 10.56 85 21.12 85 32 C95.56 32 106.12 32 117 32 C117 42.56 117 53.12 117 64 C127.56 64 138.12 64 149 64 C149 81.82 149 99.64 149 118 C138.44 118 127.88 118 117 118 C117 121.3 117 124.6 117 128 C67.83 128 18.66 128 -32 128 C-32 106.88 -32 85.76 -32 64 C-46.19 64 -60.38 64 -75 64 C-75 53.44 -75 42.88 -75 32 C-50.25 32 -25.5 32 0 32 C0 21.44 0 10.88 0 0 Z " fill="#69DDF8" transform="translate(208,123)"/>
<path d="M0 0 C28.05 0 56.1 0 85 0 C85 17.49 85 34.98 85 53 C56.95 53 28.9 53 0 53 C0 35.51 0 18.02 0 0 Z " fill="#2A3B92" transform="translate(229,262)"/>
<path d="M0 0 C24.75 0 49.5 0 75 0 C75 17.82 75 35.64 75 54 C50.25 54 25.5 54 0 54 C0 36.18 0 18.36 0 0 Z " fill="#2D3F94" transform="translate(229,187)"/>
<path d="M0 0 C7.26 0 14.52 0 22 0 C22 3.63 22 7.26 22 11 C18.37 11 14.74 11 11 11 C11 28.49 11 45.98 11 64 C14.63 64 18.26 64 22 64 C22 67.3 22 70.6 22 74 C32.56 74 43.12 74 54 74 C54 102.38 54 130.76 54 160 C43.44 160 32.88 160 22 160 C22 156.37 22 152.74 22 149 C28.93 149 35.86 149 43 149 C43 127.88 43 106.76 43 85 C36.07 85 29.14 85 22 85 C22 81.7 22 78.4 22 75 C14.74 75 7.48 75 0 75 C0 50.25 0 25.5 0 0 Z " fill="#FEFCFD" transform="translate(101,134)"/>
<path d="M0 0 C3.63 0 7.26 0 11 0 C11 3.63 11 7.26 11 11 C7.37 11 3.74 11 0 11 C0 31.79 0 52.58 0 74 C24.75 74 49.5 74 75 74 C75 88.19 75 102.38 75 117 C71.37 117 67.74 117 64 117 C64 106.44 64 95.88 64 85 C42.88 85 21.76 85 0 85 C0 81.7 0 78.4 0 75 C-3.63 75 -7.26 75 -11 75 C-11 53.55 -11 32.1 -11 10 C-7.37 10 -3.74 10 0 10 C0 6.7 0 3.4 0 0 Z " fill="#FEFDFE" transform="translate(112,294)"/>
<path d="M0 0 C3.3 0 6.6 0 10 0 C10 3.3 10 6.6 10 10 C17.26 10 24.52 10 32 10 C32 13.63 32 17.26 32 21 C35.3 21 38.6 21 42 21 C42 27.93 42 34.86 42 42 C49.26 42 56.52 42 64 42 C64 45.63 64 49.26 64 53 C67.3 53 70.6 53 74 53 C74 77.75 74 102.5 74 128 C70.37 128 66.74 128 63 128 C63 103.25 63 78.5 63 53 C56.07 53 49.14 53 42 53 C42 49.7 42 46.4 42 43 C39.5559375 43.0309375 39.5559375 43.0309375 37.0625 43.0625 C35.37500659 43.08386068 33.68608966 43.07205511 32 43 C31 42 31 42 30.88647461 39.95874023 C30.89171143 39.08419189 30.89694824 38.20964355 30.90234375 37.30859375 C30.90484131 36.45837646 30.90733887 35.60815918 30.90991211 34.73217773 C30.91901611 33.64493408 30.92812012 32.55769043 30.9375 31.4375 C30.958125 27.993125 30.97875 24.54875 31 21 C20.77 21 10.54 21 0 21 C0 14.07 0 7.14 0 0 Z " fill="#DED0E1" transform="translate(315,113)"/>
<path d="M0 0 C6.93 0 13.86 0 21 0 C21 3.63 21 7.26 21 11 C17.7 11 14.4 11 11 11 C11 14.63 11 18.26 11 22 C7.37 22 3.74 22 0 22 C0 25.3 0 28.6 0 32 C-14.19 32 -28.38 32 -43 32 C-43 39.26 -43 46.52 -43 54 C-46.3 54 -49.6 54 -53 54 C-53 57.3 -53 60.6 -53 64 C-56.63 64 -60.26 64 -64 64 C-64 60.37 -64 56.74 -64 53 C-60.7 53 -57.4 53 -54 53 C-54.00523682 52.06615479 -54.01047363 51.13230957 -54.01586914 50.17016602 C-54.0328762 46.71687204 -54.04543302 43.26362233 -54.05493164 39.81030273 C-54.05997121 38.31355082 -54.06680287 36.81680384 -54.07543945 35.32006836 C-54.08752159 33.17300193 -54.09323191 31.02600038 -54.09765625 28.87890625 C-54.10289307 27.5854126 -54.10812988 26.29191895 -54.11352539 24.95922852 C-54 22 -54 22 -53 21 C-51.34261557 20.90653085 -49.68125356 20.88255023 -48.02124023 20.88647461 C-46.96021591 20.88655014 -45.89919159 20.88662567 -44.80601501 20.88670349 C-43.07479149 20.89444542 -43.07479149 20.89444542 -41.30859375 20.90234375 C-40.13361832 20.9037587 -38.95864288 20.90517365 -37.74806213 20.90663147 C-33.97784936 20.91225008 -30.20769496 20.92480574 -26.4375 20.9375 C-23.88867273 20.9425126 -21.33984453 20.94707592 -18.79101562 20.95117188 C-12.5273211 20.96222556 -6.26367046 20.97950266 0 21 C0 14.07 0 7.14 0 0 Z " fill="#F5F2F6" transform="translate(368,347)"/>
<path d="M0 0 C38.61 0 77.22 0 117 0 C117 3.63 117 7.26 117 11 C78.39 11 39.78 11 0 11 C0 7.37 0 3.74 0 0 Z " fill="#FFFFFF" transform="translate(187,411)"/>
<path d="M0 0 C7.26 0 14.52 0 22 0 C22 3.63 22 7.26 22 11 C18.37 11 14.74 11 11 11 C11 28.49 11 45.98 11 64 C14.63 64 18.26 64 22 64 C22 67.3 22 70.6 22 74 C32.56 74 43.12 74 54 74 C54 102.38 54 130.76 54 160 C53.67 160 53.34 160 53 160 C53 131.95 53 103.9 53 75 C35.51 75 18.02 75 0 75 C0 50.25 0 25.5 0 0 Z " fill="#F5EEF3" transform="translate(101,134)"/>
<path d="M0 0 C38.61 0 77.22 0 117 0 C117 3.3 117 6.6 117 10 C78.39 10 39.78 10 0 10 C0 6.7 0 3.4 0 0 Z " fill="#FEFEFE" transform="translate(187,92)"/>
<path d="M0 0 C3.63 0 7.26 0 11 0 C11 28.38 11 56.76 11 86 C7.37 86 3.74 86 0 86 C0 89.3 0 92.6 0 96 C-3.63 96 -7.26 96 -11 96 C-11 92.37 -11 88.74 -11 85 C-7.37 85 -3.74 85 0 85 C0 56.95 0 28.9 0 0 Z " fill="#FEFEFE" transform="translate(400,251)"/>
<path d="M0 0 C3.63 0 7.26 0 11 0 C11 10.56 11 21.12 11 32 C-10.12 32 -31.24 32 -53 32 C-53 28.37 -53 24.74 -53 21 C-35.51 21 -18.02 21 0 21 C0 14.07 0 7.14 0 0 Z " fill="#FCF7F9" transform="translate(176,102)"/>
<path d="M0 0 C3.3 0 6.6 0 10 0 C10 24.42 10 48.84 10 74 C6.7 74 3.4 74 0 74 C0 49.58 0 25.16 0 0 Z " fill="#FFFFFF" transform="translate(379,166)"/>
<path d="M0 0 C3.3 0 6.6 0 10 0 C10 20.79 10 41.58 10 63 C6.7 63 3.4 63 0 63 C0 42.21 0 21.42 0 0 Z " fill="#FFFFFF" transform="translate(102,305)"/>
<path d="M0 0 C13.86 0 27.72 0 42 0 C42 3.63 42 7.26 42 11 C28.14 11 14.28 11 0 11 C0 7.37 0 3.74 0 0 Z " fill="#F7F8FB" transform="translate(251,283)"/>
<path d="M0 0 C38.61 0 77.22 0 117 0 C117 0.33 117 0.66 117 1 C85.65 1 54.3 1 22 1 C22 3.97 22 6.94 22 10 C53.35 10 84.7 10 117 10 C117 10.33 117 10.66 117 11 C78.39 11 39.78 11 0 11 C0 7.37 0 3.74 0 0 Z " fill="#F1D8E3" transform="translate(187,411)"/>
<path d="M0 0 C3.3 0 6.6 0 10 0 C10 3.63 10 7.26 10 11 C16.93 11 23.86 11 31 11 C31 14.3 31 17.6 31 21 C20.77 21 10.54 21 0 21 C0 14.07 0 7.14 0 0 Z " fill="#FFFFFF" transform="translate(315,113)"/>
<path d="M0 0 C6.93 0 13.86 0 21 0 C21 3.63 21 7.26 21 11 C17.37 11 13.74 11 10 11 C10 14.3 10 17.6 10 21 C6.7 21 3.4 21 0 21 C0 14.07 0 7.14 0 0 Z " fill="#FDFBFC" transform="translate(368,347)"/>
<path d="M0 0 C3.63 0 7.26 0 11 0 C11 3.63 11 7.26 11 11 C4.07 11 -2.86 11 -10 11 C-10 31.79 -10 52.58 -10 74 C18.05 74 46.1 74 75 74 C75 88.19 75 102.38 75 117 C74.67 117 74.34 117 74 117 C74 103.14 74 89.28 74 75 C45.95 75 17.9 75 -11 75 C-11 53.55 -11 32.1 -11 10 C-7.37 10 -3.74 10 0 10 C0 6.7 0 3.4 0 0 Z " fill="#C29DBF" transform="translate(112,294)"/>
<path d="M0 0 C10.23 0 20.46 0 31 0 C31 3.3 31 6.6 31 10 C20.77 10 10.54 10 0 10 C0 6.7 0 3.4 0 0 Z " fill="#FFFFFF" transform="translate(251,209)"/>
<path d="M0 0 C0.33 0 0.66 0 1 0 C1 28.38 1 56.76 1 86 C-2.63 86 -6.26 86 -10 86 C-10 89.3 -10 92.6 -10 96 C-13.63 96 -17.26 96 -21 96 C-21 92.37 -21 88.74 -21 85 C-14.07 85 -7.14 85 0 85 C0 56.95 0 28.9 0 0 Z " fill="#F6C7D5" transform="translate(410,251)"/>
<path d="M0 0 C6.93 0 13.86 0 21 0 C21 3.3 21 6.6 21 10 C14.07 10 7.14 10 0 10 C0 6.7 0 3.4 0 0 Z " fill="#FEFDFE" transform="translate(347,369)"/>
<path d="M0 0 C6.6 0 13.2 0 20 0 C20 3.3 20 6.6 20 10 C13.4 10 6.8 10 0 10 C0 6.7 0 3.4 0 0 Z " fill="#FFFFFF" transform="translate(358,156)"/>
<path d="M0 0 C6.93 0 13.86 0 21 0 C21 2.97 21 5.94 21 9 C14.07 9 7.14 9 0 9 C0 6.03 0 3.06 0 0 Z " fill="#FFFFFF" transform="translate(187,412)"/>
<path d="M0 0 C3.63 0 7.26 0 11 0 C11 3.63 11 7.26 11 11 C7.37 11 3.74 11 0 11 C0 7.37 0 3.74 0 0 Z " fill="#F9F1F5" transform="translate(304,102)"/>
<path d="M0 0 C3.63 0 7.26 0 11 0 C11 3.3 11 6.6 11 10 C7.37 10 3.74 10 0 10 C0 6.7 0 3.4 0 0 Z " fill="#FAF8FA" transform="translate(112,294)"/>
<path d="M0 0 C3.63 0 7.26 0 11 0 C11 3.3 11 6.6 11 10 C7.37 10 3.74 10 0 10 C0 6.7 0 3.4 0 0 Z " fill="#FCF8FA" transform="translate(389,241)"/>
<path d="M0 0 C3.3 0 6.6 0 10 0 C10 3.3 10 6.6 10 10 C6.7 10 3.4 10 0 10 C0 6.7 0 3.4 0 0 Z " fill="#FFFFFF" transform="translate(304,401)"/>
<path d="M0 0 C0.33 0 0.66 0 1 0 C1 10.23 1 20.46 1 31 C4.3 31 7.6 31 11 31 C11 31.33 11 31.66 11 32 C7.7 32 4.4 32 1 32 C1 35.3 1 38.6 1 42 C0.67 42 0.34 42 0 42 C0 38.7 0 35.4 0 32 C-3.3 32 -6.6 32 -10 32 C-10 31.67 -10 31.34 -10 31 C-6.7 31 -3.4 31 0 31 C0 20.77 0 10.54 0 0 Z " fill="#BA91B7" transform="translate(314,369)"/>
</svg>
