<svg xmlns="http://www.w3.org/2000/svg" id="Layer_1" viewBox="0 0 515 500"><defs><style>.cls-1{fill:#a1fea0;stroke-width:0}</style></defs><path d="M138.54 427.17c-47.46 0-76.35-38.48-64.52-85.95l45.49-182.44c11.83-47.46 59.91-85.95 107.38-85.95H474.9C440.11 27.82 384.22 0 315.38 0 177.31 0 39.47 111.92 7.5 250c-31.96 138.08 54.04 250 192.12 250 68.84 0 137.61-27.82 193.24-72.83z" class="cls-1"/><path d="M262.29 143.07c-11.87 0-23.89 9.62-26.84 21.49l-12.55 50.32h193.15l-17.51 70.24H205.39l-12.55 50.32c-2.96 11.87 4.26 21.49 16.13 21.49h249.81c22.87-32.42 39.87-68.67 48.73-106.93s8.64-74.51.78-106.93z" class="cls-1"/></svg>