<svg xmlns="http://www.w3.org/2000/svg" width="96" height="96" fill="none" viewBox="0 0 96 96"><rect width="90" height="90" x="3" y="3" fill="#000" rx="45"/><rect width="90" height="90" x="3" y="3" stroke="url(#a)" stroke-width="6" rx="45"/><g opacity=".7"><path fill="#98D120" d="m35.545 29.75 31.613-4.443v2.632l-31.613 4.443zm-.911.588c.243-.328.569-.54.91-.587v2.631c-.341.049-.667.26-.91.588z"/><path fill="#98D120" d="M67.157 25.307c.39-.055.648.295.648.695v2.631c0-.4-.258-.75-.648-.695z"/><path fill="#98D120" d="M67.805 26.002c0 .192-.06.396-.193.573v2.631a.95.95 0 0 0 .193-.572zM28.387 38.766l6.246-8.43v2.633l-6.246 8.428z"/><path fill="#98D120" d="m67.613 26.575-6.247 8.429v2.632l6.247-8.43zM28.194 39.339c0-.193.06-.396.193-.573v2.632a.95.95 0 0 0-.193.572z"/><path fill="#98D120" d="M28.842 40.033c-.39.055-.648-.294-.648-.695v2.631c0 .401.258.75.648.696zm32.524-5.028c-.243.328-.57.54-.91.587v2.632c.34-.048.667-.26.91-.588zm-.91.585-31.613 4.443v2.632l31.613-4.443zm-31.613 9.049 31.613-4.443v2.631L28.843 47.27z"/><path fill="#C4FF61" d="M60.455 40.197a1.03 1.03 0 0 1 .91.332v2.631a1.03 1.03 0 0 0-.91-.331z"/><path fill="#98D120" d="M28.194 45.517c0-.4.259-.823.648-.878v2.632c-.39.055-.648.477-.648.877z"/><path fill="#C4FF61" d="M28.387 46.036a.74.74 0 0 1-.193-.518v2.631c0 .192.06.38.193.519z"/><path fill="#98D120" d="m61.366 40.527 6.247 6.673v2.632l-6.247-6.673zM34.633 52.708l-6.246-6.673v2.632l6.246 6.673z"/><path fill="#98D120" d="M67.612 47.201a.74.74 0 0 1 .193.519v2.631a.74.74 0 0 0-.193-.518z"/><path fill="#98D120" d="M67.805 47.72c0 .4-.258.822-.648.877v2.631c.39-.055.648-.477.648-.877zm-32.26 5.32a1.03 1.03 0 0 1-.911-.331v2.632c.243.26.569.379.91.33z"/><path fill="#98D120" d="M67.158 48.596 35.545 53.04v2.632l31.613-4.443zm-31.613 9.181 31.613-4.443v2.632l-31.613 4.443zm-.911.586c.243-.328.569-.539.91-.587v2.632c-.341.048-.667.259-.91.587z"/><path fill="#98D120" d="M67.157 53.334c.39-.055.648.294.648.694v2.632c0-.4-.258-.75-.648-.694z"/><path fill="#98D120" d="M67.805 54.028c0 .192-.06.395-.193.572v2.631a.95.95 0 0 0 .193-.572zM28.387 66.795l6.246-8.43v2.63l-6.246 8.431z"/><path fill="#98D120" d="m67.613 54.6-6.247 8.431v2.632l6.247-8.43zM28.194 67.365c0-.192.06-.395.193-.572v2.632a.95.95 0 0 0-.193.572z"/><path fill="#98D120" d="M28.842 68.06c-.39.055-.648-.294-.648-.695v2.632c0 .4.258.75.648.694zm32.524-5.03c-.243.328-.57.539-.91.587v2.632c.34-.048.667-.26.91-.587zm-.91.588L28.843 68.06v2.631l31.613-4.443z"/></g><path fill="#C4FF61" d="M34.633 30.338c.243-.329.57-.54.911-.588l31.613-4.443c.39-.054.648.295.648.696 0 .192-.06.396-.192.572l-6.247 8.429c-.243.328-.57.54-.91.587l-31.614 4.443c-.39.055-.648-.295-.648-.695 0-.192.06-.396.193-.573zm0 28.025c.243-.327.57-.538.911-.586l31.613-4.443c.39-.055.648.294.648.694 0 .192-.06.396-.192.572l-6.247 8.43c-.243.329-.57.54-.91.588L28.841 68.06c-.39.054-.648-.295-.648-.695a.95.95 0 0 1 .193-.572zm25.822-18.166a1.03 1.03 0 0 1 .91.33l6.248 6.674a.74.74 0 0 1 .192.519c0 .4-.258.822-.648.877L35.544 53.04a1.03 1.03 0 0 1-.91-.332l-6.247-6.672a.74.74 0 0 1-.193-.52c0-.4.259-.822.648-.876z"/><defs><linearGradient id="a" x1="14.399" x2="101.627" y1="98.934" y2="6.854" gradientUnits="userSpaceOnUse"><stop stop-color="#9945FF"/><stop offset="1" stop-color="#19FB9B"/></linearGradient></defs></svg>