<svg xmlns="http://www.w3.org/2000/svg" viewBox="0 -1.08 120 152.46"><path d="M73.125-.9765625c1.35614778.01868378 2.71236371.03290307 4.06860352.0428772 3.54627398.03793624 7.08836104.13591644 10.6329956.24703979 3.62623448.10285312 7.25315521.14808504 10.88043213.19836426C105.80638643-.38147651 112.90291798-.21113149 120 0c-1.83176971 3.09459207-3.65650576 5.95882419-5.96875 8.71484375l-1.71289062 2.05664063L110.5 12.9375c-4.40857889 5.29846711-8.77086864 10.61959123-13 16.0625-4.72726581 6.07387915-9.60161413 12.01835627-14.50634766 17.94946289C78.60604224 52.25627184 74.28360195 57.60856996 70 63l-8 10h57c0 4.27880383-.12099901 4.63819808-2.7109375 7.65234375l-1.75805664 2.08227539L112.625 84.9375c-1.29985418 1.53764633-2.59802136 3.07672029-3.89453125 4.6171875l-1.93994141 2.29589844C104.42053137 94.69561519 102.17466506 97.6116608 99.9375 100.5625c-3.70282418 4.86830327-7.50544706 9.63826974-11.375 14.375-4.94081807 6.05065962-9.81576494 12.1464499-14.63671875 18.29296875l-1.40039063 1.64526367c-1.69835975 2.21346761-1.69835975 2.21346761-2.98828124 5.41455078C67.43237802 144.51375652 65.22714681 147.71877323 61 150c-9.38994149 2.10745091-19.40640427 1.28461037-28.96392822.89263916-3.6126006-.13396629-7.22638112-.19256192-10.84075928-.25787354C14.12731049 150.49611547 7.06412694 150.27483163 0 150c1.82515147-3.83962758 4.22827122-7.00778557 6.875-10.3125l1.46875-1.8515625C9.89161256 135.88721823 11.44499806 133.94302579 13 132l1.51269531-1.89208984c2.00069941-2.50185436 4.00215546-5.00309131 6.0065918-7.50195313 3.3341858-4.15954311 6.63497349-8.34363171 9.91821289-12.54345703 4.48961979-5.74299238 9.06909254-11.40847661 13.70874023-17.03100586C48.96854516 87.14808046 53.41830965 81.10892047 58 75H0c1.82756774-4.56891934 3.76599046-7.36591597 6.9375-10.9375 3.91644224-4.51535168 7.71272877-9.08858312 11.375-13.8125 4.67703645-6.01309159 9.48738974-11.90591853 14.34155273-17.77661133C36.74928618 27.52042667 40.82320664 22.55106894 44.875 17.5625l1.51123047-1.85888672 1.48095703-1.82470703 1.4519043-1.72966003c1.74775917-2.15242689 1.74775917-2.15242689 3.24026489-4.68121338C58.21077133-1.07026205 63.32190934-1.36787068 73.125-.9765625Z" fill="#22B1EE"/><path d="M73.125-.9765625c1.35614778.01868378 2.71236371.03290307 4.06860352.0428772 3.54627398.03793624 7.08836104.13591644 10.6329956.24703979 3.62623448.10285312 7.25315521.14808504 10.88043213.19836426C105.80638643-.38147651 112.90291798-.21113149 120 0c-1.83176971 3.09459207-3.65650576 5.95882419-5.96875 8.71484375l-1.71289062 2.05664063L110.5 12.9375c-4.40857889 5.29846711-8.77086864 10.61959123-13 16.0625-4.72789439 6.07468678-9.6025464 12.02026256-14.50854492 17.95166016-3.74646981 4.53059054-7.44953341 9.09126411-11.10864258 13.69287109C62.03305785 72.96694215 62.03305785 72.96694215 60 75c-1.8718094.09386381-3.7471806.11743804-5.62133789.11352539l-3.63990784-.00022888-3.96141052-.01564026c-1.34378507-.00186427-2.68757082-.00328813-4.03135681-.00428772-3.54280971-.00382451-7.08557864-.01365421-10.62837219-.02470398-3.61276702-.01021556-7.22554059-.01479395-10.83831787-.01983643C14.1861812 75.03809198 7.09309326 75.02101636 0 75c1.62755842-4.38735144 3.85582604-7.46708399 6.9375-10.9375 3.91644224-4.51535168 7.71272877-9.08858312 11.375-13.8125 4.67703645-6.01309159 9.48738974-11.90591853 14.34155273-17.77661133C36.74928618 27.52042667 40.82320664 22.55106894 44.875 17.5625l1.51123047-1.85888672 1.48095703-1.82470703 1.4519043-1.72966003c1.74775917-2.15242689 1.74775917-2.15242689 3.24026489-4.68121338C58.21077133-1.07026205 63.32190934-1.36787068 73.125-.9765625Z" fill="#A1F2B1"/></svg>