<svg xmlns="http://www.w3.org/2000/svg" width="600" height="600" viewBox="0 0 600 600" version="1.1"><path d="" stroke="none" fill="#4444ec" fill-rule="evenodd"/><path d="M 214 125.602 C 212.075 125.821, 206.225 126.459, 201 127.018 C 172.290 130.092, 144.198 137.210, 138.028 142.974 C 132.827 147.832, 133.655 150.882, 142.759 160.394 C 151.041 169.047, 165.930 186.914, 170.331 193.482 C 171.799 195.672, 173 198.278, 173 199.272 C 173 201.759, 169.544 208.339, 164.477 215.500 C 155.658 227.964, 147.808 246.801, 143.931 264.801 C 140.891 278.919, 140.153 307.623, 142.448 322.500 C 147.911 357.917, 161.899 388.506, 185.079 415.728 C 209.168 444.019, 239.607 461.363, 279.258 469.393 C 301.936 473.985, 319.183 475.258, 351 474.688 C 380.518 474.159, 396.295 472.770, 421.845 468.453 C 450.683 463.579, 464.232 458.907, 465.625 453.358 C 466.629 449.357, 464.372 445.829, 449.076 427.500 C 432.260 407.350, 429 402.664, 429 398.648 C 429 396.672, 430.851 392.867, 434.391 387.569 C 446.202 369.889, 454.988 347.027, 457.572 327.250 L 458.258 322 413.826 322 L 369.395 322 367.667 326.804 C 363.985 337.044, 353.443 350.468, 342.699 358.597 C 329.563 368.537, 315.548 373.299, 299.500 373.276 C 280.762 373.249, 266.109 367.103, 252.402 353.523 C 231.511 332.824, 223.826 302.629, 232.813 276.555 C 241.523 251.287, 263.130 231.665, 288.035 226.406 C 299.253 224.037, 313.421 224.889, 322.864 228.500 C 343.374 236.343, 361.465 254.417, 369.144 274.735 L 371.500 280.971 414.750 280.985 L 458 281 458 276.610 C 458 270.714, 455.457 257.363, 452.391 247.169 C 440.719 208.351, 412.347 172.571, 376.515 151.483 C 353.955 138.206, 331.077 131.036, 299.606 127.381 C 287.240 125.945, 222.742 124.604, 214 125.602" stroke="none" fill="#3c44ec" fill-rule="evenodd"/></svg>
