<svg xmlns="http://www.w3.org/2000/svg" viewBox="0 -1.08 120 152.46"><path fill="#22B1EE" d="M73.125-.977q2.034.029 4.069.043c3.546.038 7.088.136 10.633.247 3.626.103 7.253.148 10.88.199 7.1.107 14.196.277 21.293.488-1.832 3.095-3.657 5.959-5.969 8.715l-1.713 2.056-1.818 2.166c-4.409 5.299-8.77 10.62-13 16.063-4.727 6.074-9.602 12.018-14.506 17.95A1060 1060 0 0 0 70 63l-8 10h57c0 4.279-.121 4.638-2.71 7.652l-1.759 2.083-1.906 2.203q-1.95 2.305-3.895 4.617l-1.94 2.296c-2.37 2.845-4.615 5.76-6.853 8.712-3.702 4.868-7.505 9.638-11.374 14.374a1195 1195 0 0 0-14.637 18.293l-1.4 1.646c-1.699 2.213-1.699 2.213-2.989 5.414-2.105 4.224-4.31 7.429-8.537 9.71-9.39 2.107-19.406 1.285-28.964.893-3.613-.134-7.226-.193-10.84-.258-7.069-.139-14.132-.36-21.196-.635 1.825-3.84 4.228-7.008 6.875-10.312l1.469-1.852Q10.667 134.913 13 132l1.513-1.892q3-3.753 6.006-7.502a1312 1312 0 0 0 9.919-12.544 828 828 0 0 1 13.708-17.03C48.97 87.147 53.418 81.108 58 75H0c1.828-4.569 3.766-7.366 6.938-10.937 3.916-4.516 7.712-9.09 11.375-13.813 4.677-6.013 9.487-11.906 14.341-17.777q6.144-7.429 12.221-14.91l1.511-1.86 1.481-1.824 1.452-1.73c1.748-2.152 1.748-2.152 3.24-4.681C58.211-1.07 63.322-1.368 73.125-.977"/><path fill="#A1F2B1" d="M73.125-.977q2.034.029 4.069.043c3.546.038 7.088.136 10.633.247 3.626.103 7.253.148 10.88.199 7.1.107 14.196.277 21.293.488-1.832 3.095-3.657 5.959-5.969 8.715l-1.713 2.056-1.818 2.166c-4.409 5.299-8.77 10.62-13 16.063-4.728 6.075-9.603 12.02-14.509 17.952a921 921 0 0 0-11.108 13.693C62.033 72.967 62.033 72.967 60 75c-1.872.094-3.747.117-5.621.114h-3.64l-3.962-.016-4.031-.005q-5.315-.006-10.628-.024-5.42-.014-10.839-.02Q10.64 75.033 0 75c1.628-4.387 3.856-7.467 6.938-10.937 3.916-4.516 7.712-9.09 11.375-13.813 4.677-6.013 9.487-11.906 14.341-17.777q6.144-7.429 12.221-14.91l1.511-1.86 1.481-1.824 1.452-1.73c1.748-2.152 1.748-2.152 3.24-4.681C58.211-1.07 63.322-1.368 73.125-.977"/></svg>