<svg xmlns="http://www.w3.org/2000/svg" width="500" height="500" fill="none" viewBox="0 0 500 500"><rect width="500" height="500" fill="#E0E0E0" rx="250"/><path fill="#5C616A" d="M249.972 18.974c127.577 0 230.999 103.422 230.999 230.999S377.549 480.972 249.972 480.972 18.973 377.55 18.973 249.973s103.422-231 230.999-231m188.023 240.81a885.7 885.7 0 0 1-178.213 178.211c96.291-4.682 173.53-81.919 178.213-178.211M63.177 262.42c5.91 94.402 81.596 169.882 176.085 175.468A885.8 885.8 0 0 1 63.177 262.421m173.341-102.484c-8.596 1.798-16.883 5.025-23.904 9.887-11.754 8.141-19.869 20.817-19.869 38.573 0 12.942 4.491 23.268 12.716 31.798 8.14 8.44 19.849 15.035 34.176 20.838l.011.004c12.28 4.911 21.34 9.185 27.329 13.944 5.84 4.64 8.585 9.591 8.585 16.051 0 7.354-2.933 12.606-8.014 16.125-5.214 3.612-12.927 5.55-22.614 5.55-12.376 0-28.873-3.008-44.175-9.865l-2.866-1.285-.761 3.048-5.808 23.276-.553 2.216 2.115.858c13.88 5.634 29.753 8.624 43.632 9.524v17.501h26.959v-18.934c9.383-1.869 18.162-5.288 25.461-10.448 11.963-8.458 19.803-21.493 19.803-39.435-.001-14.822-4.751-25.657-13.577-34.315-8.145-7.989-19.648-14.007-33.59-19.786l-2.822-1.154c-12.42-5.051-20.601-9.124-25.688-13.447-4.88-4.147-6.86-8.473-6.86-14.401 0-7.503 3.402-12.263 8.521-15.286 5.287-3.123 12.506-4.426 19.858-4.426 11.98 0 24.682 2.101 36.349 6.557l1.591.608 1.205-1.203.094-.094.523-.522.175-.719 5.527-22.81.554-2.284-2.208-.806c-10.278-3.75-22.306-5.891-34.916-6.611v-21.948h-26.959zm38.331 143.453-.352.528a19 19 0 0 0 .352-.528m1.752-3.426-.026.063.116-.299zm1.504-6.686-.01.103.019-.254zm27.993-5.39.013 1.275q0-.658-.014-1.305zm-29.505-5.11.025.06-.081-.186zm-21.53-17.941.901.439q-.58-.284-1.175-.568zm-14.439-6.242q1.034.414 2.04.823-1.005-.409-2.04-.822zm21.804-195.416a885.7 885.7 0 0 1 175.46 176.077c-5.589-94.483-81.065-170.164-175.46-176.077m-25.852.138C144.018 70.11 70.109 144.02 63.316 236.578a885.8 885.8 0 0 1 173.26-173.261m24.271 95.017v-19.188h.001z"/></svg>