<svg xmlns="http://www.w3.org/2000/svg" style="background:#fff" version="1.0" viewBox="0 0 400 400"><style>path{fill:#000}</style><path d="M0 200v200h400V0H0zM212 81a121 121 0 0 1 61.7 25.7c4 3.3 5.3 3.9 5.3 2.6 0-6.1 2.5-29.3 3.1-29.3 1 0 1.6 3.5 2.9 19.5.6 7.1 1.3 13.1 1.5 13.3s6.8 1.3 14.7 2.4 14.6 2.4 15.1 2.7a49 49 0 0 1-12.8 2.5c-9.3 1.3-13.3 2.2-12.8 3l3.8 5.1a119.8 119.8 0 0 1 14.6 115.9 120.2 120.2 0 0 1-88.9 72.1 158.4 158.4 0 0 1-42.4 0c-17.5-3-35.7-11-50.4-22.1l-8.2-6.1-.6 7.6-1.3 14.6-.7 7-.7-5.5c-.4-3-1.1-10.3-1.5-16.2-.8-12.3.5-11.1-13.4-12.9-14-1.8-14.5-2.4-3.1-3.8 5.5-.7 10.1-1.6 10.1-1.9s-1.7-2.8-3.8-5.6a114.5 114.5 0 0 1-23.9-66.7 112 112 0 0 1 11.2-56.6A119.3 119.3 0 0 1 212 81"/><path d="M184.6 86.1a114.8 114.8 0 0 0-87.8 62.4 114.7 114.7 0 0 0 10.7 119l6 8 .6-6.5 1.5-16 .8-9.5.7 6c.4 3.3 1.1 10.7 1.5 16.3.5 7.2 1.1 10.5 2 10.9.7.3 6.6 1.3 13.1 2.2 12.8 1.9 12.7 2.1-2.7 4.2l-8.4 1.2 3.4 3a114.1 114.1 0 0 0 165.3-155.1c-5.8-7.7-5.5-8.4-7.3 15.8-1.6 19.8-1.9 19.1-4-8.2l-1.3-16.6-2.6-.5-15.3-2.3A58 58 0 0 1 248 118c0-.4 4.4-1.2 9.8-1.9s11.4-1.6 13.3-2l3.4-.7-7-5.2A144.3 144.3 0 0 0 230 89.6a114.6 114.6 0 0 0-45.4-3.5m43.1 38.9c3.7 1.4 49.1 46.6 50.9 50.7 1.1 2.6 1.4 10.5 1.4 38.6v35.3l-2.9 4.5c-4 6.3-24.1 25.6-28.4 27.4-3 1.2-9.4 1.5-37.4 1.5-30.9 0-34.1-.2-37.8-1.9-5.5-2.6-50.1-47.5-51.2-51.6-1.1-3.9-1-69.1 0-73 1-3.6 24.5-27.8 29.7-30.5 3.2-1.8 6.3-1.9 38.2-2 21.8 0 35.7.4 37.5 1"/><path d="M140.9 141.3c-3.8 2.9-3.9 4.5-3.9 51.7 0 39.4.2 46.5 1.5 49 .9 1.7 2 3 2.5 3 .6 0 1-12.1 1-32.5 0-27 .3-33.2 1.5-36.3 1.9-4.6 23.5-26.6 28.8-29.3 3.6-1.9 5.8-2 37.2-1.9 20.8 0 33.5-.3 33.5-.9s-1-1.7-2.2-2.5c-2-1.4-8.4-1.6-50.3-1.6-36.1.1-48.4.4-49.6 1.3"/><path d="m161.1 162.6-3.1 2.6V247h38.5c41 0 44-.3 46.4-4.8.7-1.4 1.1-15.3 1.1-42.1V160h-79.8z"/><path d="M260 193.6c0 21.7-.4 33-1.2 35.8-.9 3.2-4 7-13.8 16.8a92 92 0 0 1-16.2 14.2c-3.1 1.3-9.2 1.6-36.8 1.6-20 0-33 .4-33 .9 0 .6 1 1.7 2.2 2.5 2 1.4 8.4 1.6 50 1.6h47.7l2.8-2.4 2.8-2.4.3-47.1c.2-41 .1-47.5-1.3-50.1-.9-1.6-2-3-2.5-3-.6 0-1 11.8-1 31.6"/></svg>