<svg xmlns="http://www.w3.org/2000/svg" fill="none" viewBox="0 0 60 60"><rect width="57.8" height="57.8" x="1.1" y="1.1" fill="url(#a)" rx="9.7"/><rect width="57.8" height="57.8" x="1.1" y="1.1" stroke="url(#b)" stroke-width="2.2" rx="9.7"/><path fill="url(#c)" d="M48 34.1v.1h-.2L34.3 47.9a6 6 0 0 1-8.6 0l-3.8-3.7a.7.7 0 0 1 .3-1.1c4-1.3 7.3-2.7 9.8-4.3 6-4 11.3-5.4 16-4.6ZM45 23c5 1.6 4.4 5.3 4.5 6.7-5.5-2.9-12-1.8-19.8 3.2-5.8 3.7-10.6 5.2-14.5 4.6-3.9-.7-4.8-5.4-5-6.7 4.3 2.2 10 1 17.2-3.7C34.1 22.8 40 21.4 45 23M34.3 12l3.5 3.6a.7.7 0 0 1-.4 1.1c-5 1-9.2 2.5-12.2 4.5-5.3 3.4-9.7 5-13.4 4.7L25.7 12a6 6 0 0 1 8.6 0"/><path fill="url(#d)" fill-rule="evenodd" d="M43.2 5.4c-2 0-3.6 1.6-3.6 3.6v7.3c0 2 1.6 3.6 3.6 3.6h7.6c2 0 3.6-1.6 3.6-3.6V9c0-2-1.6-3.6-3.6-3.6zm-.6 4.2v5.6H46v-.9h-2.4V9.6zm4.6 4.8v.8H51v-.9h-2.4l1-1 .8-.9.4-.6.1-.6c0-.3 0-.6-.2-.9l-.6-.5c-.3-.2-.7-.2-1-.2-.4 0-.7 0-1 .2a1.6 1.6 0 0 0-.9 1.5h1v-.5l.4-.3.5-.1h.4a.8.8 0 0 1 .5.8l-.1.4c0 .2-.2.3-.3.5a9 9 0 0 1-.4.5z" clip-rule="evenodd"/><defs><linearGradient id="a" x1="30" x2="30" y1="60" y2="2.1" gradientUnits="userSpaceOnUse"><stop stop-color="#2C0370"/><stop offset="1" stop-color="#0F0027"/></linearGradient><linearGradient id="b" x1="30" x2="30" y1="60" y2="0" gradientUnits="userSpaceOnUse"><stop stop-color="#CFDFFF"/><stop offset="1" stop-color="#7CACFF"/></linearGradient><linearGradient id="c" x1="30" x2="30" y1="10.4" y2="49.6" gradientUnits="userSpaceOnUse"><stop stop-color="#7DADFF"/><stop offset="1" stop-color="#CEDFFF"/></linearGradient><linearGradient id="d" x1="47" x2="47" y1="5.4" y2="19.9" gradientUnits="userSpaceOnUse"><stop stop-color="#FFB901"/><stop offset="1" stop-color="#F9CB53"/></linearGradient></defs></svg>