<svg xmlns="http://www.w3.org/2000/svg" width="1085" height="120" fill="none"><g clip-path="url(#a)"><path fill="#3C9" d="M43.512 120 .147 94.997c3.39-1.178 3.926-3.511 3.914-6.427-.078-19.105-.06-38.21-.014-57.316.006-2.758-.405-5.114-4.047-6.18 6.643-3.83 12.78-7.366 19.477-11.226v5.465c.016 22.86.016 45.752.016 68.596-.025 3.488.893 5.304 4.023 7.053 2.529 1.413 2.908 1.543 4.842 2.628 0-1.568.01-2.524 0-3.633 0-27.3.054-54.212 0-82.022-.006-2.311.52-3.722 2.646-4.822C35.127 4.98 39.091 2.54 43.512 0v120Z"/><path fill="url(#b)" d="m53.09 120 43.366-25.003c-3.39-1.178-3.926-3.511-3.914-6.427.078-19.105.06-38.21.014-57.316-.006-2.758.405-5.114 4.047-6.18-6.643-3.83-12.78-7.366-19.477-11.226v5.465c-.016 22.86-.016 45.752-.016 68.596.025 3.488-.893 5.304-4.023 7.053-2.528 1.413-2.908 1.543-4.842 2.628 0-1.568-.01-2.524 0-3.633 0-27.3-.053-54.212 0-82.022.007-2.311-.52-3.722-2.646-4.822C61.476 4.98 57.512 2.54 53.09 0v120Z"/><path fill="#fff" d="m60.659 8.456 1.701 3.449 3.804.553-2.752 2.684.65 3.79-3.403-1.79-3.402 1.79.65-3.79-2.753-2.684 3.804-.553 1.7-3.449Z"/></g><path fill="#20B486" d="m180.223 106-33.809-54.023-.293.117.645 53.906h-21.739V17.172h19.571l34.336 55.84.234-.235-.996-55.605h21.738V106h-19.687Zm101.484-32.52c0 1.914-.156 3.672-.469 5.274h-49.922c1.25 8.398 6.446 12.598 15.586 12.598 4.766 0 8.809-2.07 12.129-6.211h20.391c-2.969 6.914-7.227 12.421-12.774 16.523-5.898 4.336-12.48 6.504-19.746 6.504-9.726 0-18.027-3.457-24.902-10.371-6.914-6.875-10.371-15.176-10.371-24.903 0-9.765 3.379-18.144 10.137-25.136 6.836-7.11 15.097-10.664 24.785-10.664 10.078 0 18.496 3.554 25.254 10.664 6.601 6.992 9.902 15.566 9.902 25.723Zm-19.922-8.144c-1.64-7.617-6.68-11.426-15.117-11.426-8.438 0-13.477 3.809-15.117 11.426h30.234Zm103.008 6.973c0 10.273-3.008 18.77-9.023 25.488-6.25 6.992-14.454 10.488-24.61 10.488-3.789 0-7.383-.742-10.781-2.226-3.906-1.719-6.66-4.102-8.262-7.149h-.234V106h-19.102V17.172h19.922v27.48c4.727-5.039 11.172-7.558 19.336-7.558 4.649 0 9.316 1.093 14.004 3.281 6.25 2.89 10.977 7.227 14.18 13.008 3.047 5.43 4.57 11.738 4.57 18.926Zm-19.922.351c0-4.648-1.562-8.613-4.687-11.894-3.164-3.36-7.051-5.04-11.661-5.04-4.687 0-8.632 1.622-11.835 4.864-3.126 3.242-4.688 7.226-4.688 11.953 0 4.805 1.484 8.848 4.453 12.129 3.047 3.32 6.953 4.98 11.719 4.98 4.766 0 8.75-1.64 11.953-4.921 3.164-3.282 4.746-7.305 4.746-12.07ZM418.816 106v-7.09h-.234c-1.641 3.399-4.023 5.84-7.148 7.324-2.696 1.289-6.075 1.934-10.137 1.934-8.477 0-15-2.793-19.57-8.379-2.5-3.125-4.161-6.367-4.981-9.727-.664-2.539-.996-6.152-.996-10.84V39.38h19.922v36.855c0 4.297.664 7.461 1.992 9.493 1.641 2.539 4.531 3.808 8.672 3.808 7.617 0 11.426-4.512 11.426-13.535V39.379h19.922V106h-18.868Zm33.223 0V17.172h19.922V106h-19.922Zm84.375 0v-7.207h-.234c-1.68 3.203-4.473 5.645-8.379 7.324-3.36 1.445-7.051 2.168-11.074 2.168-10.039 0-18.184-3.457-24.434-10.37-6.016-6.72-9.023-15.138-9.023-25.255 0-9.96 3.066-18.32 9.199-25.078 6.367-6.992 14.453-10.488 24.258-10.488 3.984 0 7.656.742 11.015 2.226 3.75 1.64 6.563 4.024 8.438 7.149h.234v-7.09h19.922V106h-19.922Zm0-33.34c0-4.883-1.582-8.926-4.746-12.129-3.164-3.203-7.168-4.804-12.012-4.804-4.804 0-8.769 1.68-11.894 5.039-3.047 3.242-4.571 7.285-4.571 12.128 0 4.649 1.582 8.594 4.747 11.837 3.242 3.28 7.187 4.921 11.835 4.921 4.805 0 8.789-1.62 11.954-4.863 3.125-3.242 4.687-7.285 4.687-12.129Zm84.434 12.95c0 7.07-2.832 12.714-8.496 16.933-5.118 3.828-11.329 5.742-18.633 5.742-7.266 0-13.34-1.855-18.223-5.566-5.195-3.946-8.164-9.453-8.906-16.524h19.805c.585 4.102 3.105 6.153 7.558 6.153 1.719 0 3.262-.43 4.629-1.29 1.563-.976 2.344-2.285 2.344-3.925 0-2.07-1.055-3.77-3.164-5.098l-2.93-1.406-11.543-4.16c-4.648-1.68-8.281-3.77-10.898-6.27-3.321-3.125-4.981-6.836-4.981-11.133 0-6.601 2.695-11.992 8.086-16.172 4.961-3.867 10.879-5.8 17.754-5.8 6.992 0 12.754 1.738 17.285 5.215 4.883 3.71 7.637 8.984 8.262 15.82h-19.57c-.118-3.36-2.188-5.04-6.211-5.04-3.789 0-5.684 1.485-5.684 4.454 0 2.227 1.758 4.043 5.273 5.45 1.172.507 2.95 1.113 5.333 1.816.195.039.449.097.761.175l5.391 1.7c2.383.78 4.433 1.601 6.152 2.46 2.11 1.055 3.887 2.266 5.332 3.633 3.516 3.242 5.274 7.52 5.274 12.832ZM702 37.093V106h-22.676V37.094h-17.519V17.172h57.597v19.922H702Zm81.152 36.387c0 1.913-.156 3.671-.468 5.273h-49.922c1.25 8.398 6.445 12.598 15.586 12.598 4.765 0 8.808-2.07 12.129-6.211h20.39c-2.969 6.914-7.226 12.421-12.773 16.523-5.899 4.336-12.481 6.504-19.746 6.504-9.727 0-18.028-3.457-24.903-10.371-6.914-6.875-10.371-15.176-10.371-24.903 0-9.765 3.379-18.144 10.137-25.136 6.836-7.11 15.098-10.664 24.785-10.664 10.078 0 18.496 3.554 25.254 10.664 6.602 6.992 9.902 15.566 9.902 25.723Zm-19.922-8.145c-1.64-7.617-6.679-11.426-15.117-11.426-8.437 0-13.476 3.809-15.117 11.426h30.234Zm80.977 20.273c0 7.07-2.832 12.715-8.496 16.934-5.117 3.828-11.328 5.742-18.633 5.742-7.266 0-13.34-1.855-18.223-5.566-5.195-3.946-8.164-9.453-8.906-16.524h19.805c.586 4.102 3.105 6.153 7.558 6.153 1.719 0 3.262-.43 4.629-1.29 1.563-.976 2.344-2.285 2.344-3.925 0-2.07-1.055-3.77-3.164-5.098l-2.93-1.406-11.543-4.16c-4.648-1.68-8.281-3.77-10.898-6.27-3.32-3.125-4.98-6.836-4.98-11.133 0-6.601 2.695-11.992 8.085-16.172 4.961-3.867 10.879-5.8 17.754-5.8 6.993 0 12.754 1.738 17.286 5.215 4.882 3.71 7.636 8.984 8.261 15.82h-19.57c-.117-3.36-2.188-5.04-6.211-5.04-3.789 0-5.684 1.485-5.684 4.454 0 2.227 1.758 4.043 5.274 5.45 1.172.507 2.949 1.113 5.332 1.816.195.039.449.097.762.175l5.39 1.7c2.383.78 4.434 1.601 6.153 2.46 2.109 1.055 3.886 2.266 5.332 3.633 3.515 3.242 5.273 7.52 5.273 12.832Zm33.809-31.113V106h-19.922V54.496h-9.844V39.38h9.844V17.172h19.922v22.207h9.609v15.117h-9.609ZM937.957 106V69.613c0-4.336-.625-7.558-1.875-9.668-1.602-2.734-4.453-4.101-8.555-4.101-4.336 0-7.402 1.328-9.199 3.984-1.484 2.188-2.226 5.508-2.226 9.961V106H896.18V39.379h18.574v7.09h.293c3.828-6.25 9.863-9.375 18.105-9.375 6.758 0 12.442 1.933 17.051 5.8 2.891 2.422 4.961 5.684 6.211 9.786.977 3.203 1.465 7.09 1.465 11.66V106h-19.922ZM1038.5 73.48c0 1.914-.15 3.672-.46 5.274h-49.927c1.25 8.398 6.446 12.598 15.587 12.598 4.76 0 8.81-2.07 12.13-6.211h20.39c-2.97 6.914-7.23 12.421-12.77 16.523-5.9 4.336-12.49 6.504-19.75 6.504-9.727 0-18.028-3.457-24.903-10.371-6.914-6.875-10.371-15.176-10.371-24.903 0-9.765 3.379-18.144 10.136-25.136 6.836-7.11 15.098-10.664 24.788-10.664 10.08 0 18.49 3.554 25.25 10.664 6.6 6.992 9.9 15.566 9.9 25.723Zm-19.92-8.144c-1.64-7.617-6.68-11.426-15.12-11.426-8.433 0-13.472 3.809-15.112 11.426h30.232Zm54.9-10.84V106h-19.92V54.496h-9.84V39.38h9.84V17.172h19.92v22.207h9.61v15.117h-9.61Z"/><defs><linearGradient id="b" x1="53.091" x2="96.603" y1="60" y2="60" gradientUnits="userSpaceOnUse"><stop stop-color="#07806D"/><stop offset="1" stop-color="#035663"/></linearGradient><clipPath id="a"><path fill="#fff" d="M0 0h97v120H0z"/></clipPath></defs></svg>
