<svg xmlns="http://www.w3.org/2000/svg" width="250" height="250" fill="none" viewBox="0 0 250 250"><circle cx="125" cy="125" r="125" fill="#000"/><path fill="#00B5E2" d="M128.469 74.707h-6.932v102.882h6.932z"/><path fill="#00B5E2" d="M124.976 214.259c-4.538 0-9.065-1.022-12.468-3.016l-6.729-3.902-48.637-28.29c-6.89-4.01-12.5-13.793-12.5-21.824V92.783c0-8.025 5.61-17.83 12.5-21.812l55.366-32.22c6.885-4.015 18.099-4.015 24.994 0l55.382 32.225c6.879 4.01 12.473 13.793 12.473 21.807v64.444c0 8.026-5.61 17.814-12.499 21.824l-57.671 33.3-.133.053a27 27 0 0 1-10.078 1.855m.026-174.245c-3.78 0-7.55.817-10.361 2.451L59.275 74.718c-5.62 3.241-10.367 11.525-10.367 18.066v64.444c0 6.542 4.746 14.831 10.367 18.099l48.637 28.29 6.729 3.902c4.901 2.854 12.905 3.258 18.664.952l57.446-33.15c5.615-3.262 10.361-11.551 10.361-18.093V92.783c0-6.536-4.735-14.82-10.339-18.087L135.369 42.47c-2.811-1.634-6.591-2.457-10.367-2.457"/><path fill="#00B5E2" d="m161.886 88.806-15.357 18.276h-32.24c-5.018 0-6.932 2.338-6.932 6.934v28.306h-.053c-.048 0-5.205.467-9.497-1.898-4.544-2.505-8.228-7.418-9.172-12.255l-.533-3.08v-16.997q0-8.03 3.87-13.658 3.872-5.628 9.567-5.628z"/><path fill="#00B5E2" d="m142.408 144.472-15.229 17.738h-25.628q-5.696 0-9.566-5.623-3.872-5.622-3.872-13.664v-11.529a20.63 20.63 0 0 0 9.183 11.046 18.84 18.84 0 0 0 8.798 2.075c.747 0 1.216-.043 1.264-.049z"/></svg>