<svg xmlns="http://www.w3.org/2000/svg" fill="none" class="w-16 *:fill-accent-100" viewBox="0 0 321 321"><path fill="#000" fill-rule="evenodd" d="M160.593 160.587a160.5 160.5 0 0 1-32.008-3.205q.032 1.6.032 3.205c0 52.307-25.12 98.75-63.953 127.917C25.83 259.337.71 212.894.71 160.587c0-52.306 25.12-98.747 63.953-127.916C91.385 12.6 124.6.706 160.593.706c59.179 0 110.848 32.152 138.493 79.94-27.645 47.79-79.314 79.941-138.493 79.941M50.678 80.647c12.604 17.3 29.179 31.498 48.377 41.264-6.53-22.047-18.507-41.76-34.391-57.586a136.6 136.6 0 0 0-13.986 16.322M37.55 102.803c17.575 21.158 40.503 37.709 66.707 47.576.25 3.37.377 6.776.377 10.208 0 37.601-15.253 71.636-39.97 96.265-24.717-24.629-39.97-58.664-39.97-96.265 0-20.661 4.605-40.246 12.856-57.784m45.589-53.901c21.863 22.392 37.207 51.178 42.963 83.289a136 136 0 0 0 34.491 4.414c45.147 0 85.178-22.005 109.916-55.958-24.738-33.954-64.768-55.959-109.916-55.959-28.774 0-55.471 8.94-77.454 24.214" clip-rule="evenodd"/><path fill="#000" fill-rule="evenodd" d="M288.497 160.588a160.6 160.6 0 0 1 31.946 3.192c-1.7 86.828-72.617 156.689-159.851 156.689-10.94 0-21.622-1.098-31.944-3.191 1.7-86.828 72.616-156.69 159.849-156.69M160.592 296.487q-2.948 0-5.864-.125c11.376-63.552 66.942-111.793 133.769-111.793q2.95.001 5.863.124c-11.373 63.554-66.939 111.794-133.768 111.794" clip-rule="evenodd"/></svg>