<svg xmlns="http://www.w3.org/2000/svg" width="441" height="369" fill="none" viewBox="0 0 441 369"><path fill="#3F3F3F" d="M303.514.187a85.98 85.98 0 0 0 50.796 50.796 85.98 85.98 0 0 0-50.796 50.795 85.98 85.98 0 0 0-50.797-50.795A85.98 85.98 0 0 0 303.514.187"/><path fill="#3F3F3F" fill-rule="evenodd" d="M228.258 64.142 135.82 188.298c-29.601 39.759-29.409 93.085-1.544 132.313-29.702 2.229-51.235-3.469-57.873-17.703-5.07-10.873-.739-25.202 10.86-40.865-.56-11.665.41-23.4 2.928-34.915-63.734 44.31-99.857 90.305-86.994 117.89 13.714 29.409 79.251 29.617 161.304 4.811 44.601 29.51 105.511 24.8 144.906-14.13a113.5 113.5 0 0 0 18.918-24.635l-74.153 4.192c32.662-15.23 62.537-32.048 88.356-49.261 69.155-46.103 109.207-95.035 95.765-123.861-13.45-28.844-76.752-29.598-156.593-6.213zm64.192 86.217 28.246 37.939c9.257 12.433 15.6 26.193 19.095 40.433 26.188-24.077 38.921-47.407 31.497-63.328-8.114-17.401-38.492-22.046-78.838-15.044" clip-rule="evenodd"/></svg>