<svg xmlns="http://www.w3.org/2000/svg" xmlns:xlink="http://www.w3.org/1999/xlink" fill-rule="evenodd" stroke-linejoin="round" stroke-miterlimit="2" clip-rule="evenodd" viewBox="0 0 560 400"><linearGradient id="a"><stop offset="0" stop-color="#194aad"/><stop offset=".1" stop-color="#194aad"/><stop offset=".5" stop-color="#248fcb"/><stop offset=".8" stop-color="#2bbfdf"/><stop offset="1" stop-color="#2bbfdf"/></linearGradient><linearGradient xlink:href="#a" id="b" x1="0" x2="1" y1="0" y2="0" gradientTransform="rotate(-100.007 1706.626 531.536)scale(1308.964)" gradientUnits="userSpaceOnUse"/><linearGradient xlink:href="#a" id="c" x1="0" x2="1" y1="0" y2="0" gradientTransform="rotate(100.001 792.008 1432.88)scale(1731.917)" gradientUnits="userSpaceOnUse"/><g fill-rule="nonzero"><path fill="#00467a" d="M280 50c82.843 0 150 67.157 150 150s-67.157 150-150 150-150-67.157-150-150S197.157 50 280 50"/><path fill="url(#b)" d="M762.6 1521.6c-35.1 0-50.7 15.6-50.7 46.8v803.7c0 35.1 15.6 46.8 50.7 46.8 386.3 3.9 858.3-339.4 1248.5-608.6V881.7c-386.2 265.3-870 643.8-1248.5 639.9" transform="translate(130 50)scale(.08571)"/><path fill="url(#c)" d="M2795.3 1884.4c35.1 0 50.7-15.6 50.7-46.8v-803.7c0-35.1-15.6-46.8-50.7-46.8-390.2-3.9-858.3 339.4-1248.5 608.6v924.7c386.3-265.3 870.1-643.8 1248.5-636" transform="translate(130 50)scale(.08571)"/><path fill="#194aad" d="M302.38 205.169v-45.48c-13.714 8.691-27.42 18.06-40.131 26.751v45.48c14.048-8.691 27.428-18.06 40.131-26.751"/></g></svg>