<svg clip-rule="evenodd" fill-rule="evenodd" stroke-linejoin="round" stroke-miterlimit="2" viewBox="0 0 560 400" xmlns="http://www.w3.org/2000/svg" xmlns:xlink="http://www.w3.org/1999/xlink"><linearGradient id="a"><stop offset="0" stop-color="#194aad"/><stop offset=".1" stop-color="#194aad"/><stop offset=".5" stop-color="#248fcb"/><stop offset=".8" stop-color="#2bbfdf"/><stop offset="1" stop-color="#2bbfdf"/></linearGradient><linearGradient id="b" gradientTransform="matrix(-227.455 -1289.05 1289.05 -227.455 1480.34 2304.54)" gradientUnits="userSpaceOnUse" x1="0" x2="1" xlink:href="#a" y1="0" y2="0"/><linearGradient id="c" gradientTransform="matrix(-300.777 1705.6 -1705.6 -300.777 2340.64 902.173)" gradientUnits="userSpaceOnUse" x1="0" x2="1" xlink:href="#a" y1="0" y2="0"/><g fill-rule="nonzero" transform="matrix(.0857143 0 0 .0857143 130 50)"><path d="m1750 0c966.5 0 1750 783.5 1750 1750s-783.5 1750-1750 1750-1750-783.5-1750-1750 783.5-1750 1750-1750z" fill="#00467a"/><path d="m762.6 1521.6c-35.1 0-50.7 15.6-50.7 46.8v803.7c0 35.1 15.6 46.8 50.7 46.8 386.3 3.9 858.3-339.4 1248.5-608.6v-928.6c-386.2 265.3-870 643.8-1248.5 639.9z" fill="url(#b)"/><path d="m2795.3 1884.4c35.1 0 50.7-15.6 50.7-46.8v-803.7c0-35.1-15.6-46.8-50.7-46.8-390.2-3.9-858.3 339.4-1248.5 608.6v924.7c386.3-265.3 870.1-643.8 1248.5-636z" fill="url(#c)"/><path d="m2011.1 1810.3v-530.6c-160 101.4-319.9 210.7-468.2 312.1v530.6c163.9-101.4 320-210.7 468.2-312.1z" fill="#194aad"/></g></svg>
