<svg xmlns="http://www.w3.org/2000/svg" viewBox="-0.35 -0.64 192.77 192.97"><path fill="#FEFEFC" d="M152.129 16.777C173.299 33.167 188.203 55.173 192 82c1.996 28.378-2.855 53.92-21.566 76.09-16.184 18.563-38.545 32.37-63.582 34.131-29.234.998-53.819-4.506-76.04-24.534C12.9 150.928.514 128.375-.335 103.498c-.382-29.634 6.46-53.898 27.5-75.684C60.38-5.129 113.62-10.342 152.13 16.777"/><path fill="#F0B90F" d="M92.688 21.688c1.067.005 2.135.01 3.235.017 14.03.215 30.452 3.31 41.077 13.295.75 3.25.75 3.25 0 7-2.02 3.01-4.397 5.49-7 8l-2.562 2.5c-3.112 1.915-4.816 1.774-8.438 1.5-2.86-1.023-2.86-1.023-5.75-2.375-12.378-5.388-24.163-6.315-37.043-1.945-12.142 4.999-20.591 13.04-26.2 24.863-2.443 5.958-3.364 10.816-3.32 17.207l.011 2.415c.135 7.342 1.428 13.433 4.99 19.897 1.83 4.1 2.368 7.538 1.312 11.938-2.834 4.46-6.597 8.09-11 11-3.437.563-3.437.563-7 0-4.229-4.275-6.505-8.697-8.687-14.25l-.913-2.297c-6.857-17.685-5.977-36.884.725-54.578 8.777-19.524 24.328-33.01 43.96-40.902 7.74-2.583 14.464-3.33 22.603-3.285M153.438 54c4.309 1.21 5.044 2.393 7.562 6a105 105 0 0 1 3.063 6.125l1.472 3.133c3.815 9.245 5.02 18.026 4.965 27.992l-.017 3.604c-.189 9.288-1.442 16.692-5.483 25.146l-1.469 3.328c-8.916 18.444-25.19 30.785-43.992 38-19.407 6.083-39.438 3.32-57.539-5.328-3.5-1.92-5.74-3.61-8-7-.259-4.31.225-6.065 3.008-9.422 7.338-7.41 7.338-7.41 12.054-7.89 4.207.333 6.9 1.395 10.63 3.242 10.31 4.78 24.767 5.129 35.558 1.445 15.181-6.846 22.923-17.01 28.75-32.375 2.646-11.115 1.267-23.257-4.187-33.312l-1.043-1.676c-1.226-3.205-1.168-5.612-.77-9.012 1.632-2.373 2.954-4.01 5-5.937l1.512-1.46c2.812-2.549 5.074-4.377 8.926-4.603"/><path fill="#F0BB14" d="m88 84 2.438 1.625c3.369 1.808 4.935 1.433 8.562.375l2.563-1.625C104 83 104 83 106.625 83.188 109 84 109 84 112 86c.408 2.712.133 5.244 0 8l-1.934.637C107.22 95.83 105.24 96.855 103 99c-.714 3.455-.754 6.518-.61 10.04-.39 2.96-.39 2.96-2.742 4.87-3.133 1.29-4.475 1.176-7.648.09l-3-2c-.293-3.04-.293-3.04-.187-6.625l.082-3.602L89 99a404 404 0 0 0-7.812-3.062C79 94 79 94 78.688 91.805c0-2.29.097-4.527.312-6.805 3.524-1.93 5.097-2.238 9-1"/><path fill="#F0BE21" d="M123 92c.922 6.556 1.892 13.559 0 20-3.722 4.731-9.481 6.99-15 9h-2c-.5-3.187-.5-3.187 0-7 2.768-2.554 6.139-5 10-5-.07-.892-.14-1.784-.21-2.703-.437-9.425-.437-9.425 1.51-12.05C119.069 93.102 120.82 92 123 92"/><path fill="#EFBB18" d="m68 93 6 2v14l6 2c2.875 1.125 2.875 1.125 5 3 .437 2.794.234 5.146 0 8q-2.565-1.37-5.125-2.75c-.951-.51-1.903-1.02-2.883-1.547L74 116l-3.344-1.594C68 112 68 112 67.528 109.901c-.12-2.576-.051-5.076.097-7.651l.082-2.691c.07-2.19.17-4.373.293-6.559"/><path fill="#F0BC1A" d="M98 65a204 204 0 0 1 7.25 4.063l1.969 1.142Q109.613 71.596 112 73c-2.309 2.035-2.309 2.035-5 4-3.382-.621-5.437-1.553-8.125-3.687-1.741-1.5-1.741-1.5-3.687-1.25-2.048.877-3.792 1.902-5.688 3.062C86 77 86 77 83.75 76.938 81.786 75.885 80.54 74.595 79 73a745 745 0 0 1 7.25-4.562l2.066-1.327 2.012-1.24 1.84-1.158c2.379-.926 3.463-.586 5.832.287"/><path fill="#F0C029" d="M102 117c.433 5.284.433 5.284 0 8-2.25 2.063-2.25 2.063-5 3-2.989-.272-5.372-1.592-8-3v-7l5.957.977C97.9 119.01 99.069 117 102 117"/><path fill="#F0BF24" d="m116 76 7 4c.25 3.313.25 3.313 0 7-1.812 1.938-1.812 1.938-4 3h-3l-.25-3.25c-.805-4.024-1.627-5.232-4.75-7.75z"/><path fill="#EFBC19" d="M75.688 76.688C78 78 78 78 80 80c-3.75 3-3.75 3-6 3v7c-4.875-1.875-4.875-1.875-6-3-.502-5.182-.502-5.182 0-8 2.751-2.673 3.941-3.27 7.688-2.312"/><path fill="#EFBE21" d="M94 76c3.066.897 4.73 1.73 7 4-1.687 1.563-1.687 1.563-4 3-2.698-.257-4.584-.792-7-2 1-3 1-3 4-5"/><path fill="#F0BE22" d="m79 99 6 3v7c-4.875-1.875-4.875-1.875-6-3q-.061-3.5 0-7"/><path fill="#EFBA17" d="M112 99v7l-6 3c-.25-3.312-.25-3.312 0-7 2.04-2.107 3.046-3 6-3"/></svg>