<svg xmlns="http://www.w3.org/2000/svg" version="1.1" viewBox="-0.35 -0.64 192.77 192.97"><path d="M0 0 C21.17025368 16.38894469 36.07420937 38.39598446 39.87109375 65.22265625 C41.86698729 93.60087359 37.01626151 119.14327706 18.3046875 141.3125 C2.12082269 159.87540169 -20.24013244 173.68317751 -45.27734375 175.4440918 C-74.51062385 176.4416477 -99.09547407 170.93747007 -121.31640625 150.91015625 C-139.22929826 134.14977459 -151.61588833 111.59730701 -152.46484375 86.71875 C-152.84662879 57.0855552 -146.00461057 32.82134496 -124.96484375 11.03515625 C-91.74981745 -21.9053657 -38.50962312 -27.11871696 0 0 Z " fill="#FEFEFC" transform="translate(152.12890625,16.77734375)"></path><path d="M0 0 C1.06782715 0.00563965 2.1356543 0.0112793 3.23583984 0.01708984 C17.26519222 0.23292603 33.68771731 3.32753086 44.3125 13.3125 C45.0625 16.5625 45.0625 16.5625 44.3125 20.3125 C42.29297605 23.32209697 39.91564128 25.80193906 37.3125 28.3125 C36.466875 29.1375 35.62125 29.9625 34.75 30.8125 C31.63859083 32.72721333 29.93427654 32.58600809 26.3125 32.3125 C23.453125 31.2890625 23.453125 31.2890625 20.5625 29.9375 C8.1846029 24.54983332 -3.60074747 23.62255489 -16.48046875 27.9921875 C-28.62275381 32.99108196 -37.07179251 41.03183001 -42.6796875 52.85546875 C-45.12347589 58.81338695 -46.04488553 63.67133618 -46 70.0625 C-45.99653564 70.85946289 -45.99307129 71.65642578 -45.98950195 72.47753906 C-45.85417106 79.81980061 -44.56195052 85.91071943 -41 92.375 C-39.16897174 96.47301562 -38.6318862 99.91163121 -39.6875 104.3125 C-42.52152384 108.77260309 -46.28410013 112.40295571 -50.6875 115.3125 C-54.125 115.875 -54.125 115.875 -57.6875 115.3125 C-61.91614088 111.03746337 -64.19271183 106.61583769 -66.375 101.0625 C-66.82661499 99.92554687 -66.82661499 99.92554687 -67.28735352 98.765625 C-74.14450979 81.08048334 -73.26436991 61.88136414 -66.5625 44.1875 C-57.78568746 24.66303378 -42.23402254 11.17774465 -22.6015625 3.28515625 C-14.86318125 0.70223811 -8.13823243 -0.04470854 0 0 Z " fill="#F0B90F" transform="translate(92.6875,21.6875)"></path><path d="M0 0 C4.30933643 1.2096383 5.04493125 2.39348286 7.5625 6 C8.65088901 8.00646775 9.66988958 10.05177364 10.625 12.125 C11.35396484 13.67574219 11.35396484 13.67574219 12.09765625 15.2578125 C15.91205978 24.50328619 17.11831176 33.28442186 17.0625 43.25 C17.05677979 44.43932129 17.05105957 45.62864258 17.04516602 46.85400391 C16.8568114 56.14236004 15.60397444 63.54589531 11.5625 72 C11.0778125 73.09828125 10.593125 74.1965625 10.09375 75.328125 C1.17790391 93.77168898 -15.09744633 106.11329769 -33.8984375 113.328125 C-53.30507777 119.4114427 -73.33639005 116.64890313 -91.4375 108 C-94.93761309 106.08036433 -97.17745486 104.39006771 -99.4375 101 C-99.69612068 96.68965531 -99.21259859 94.93494383 -96.4296875 91.578125 C-89.09108615 84.16873328 -89.09108615 84.16873328 -84.375 83.6875 C-80.16812642 84.02137886 -77.47462273 85.08252635 -73.74609375 86.9296875 C-63.43581165 91.7097506 -48.97810007 92.0588464 -38.1875 88.375 C-23.00646102 81.52912008 -15.26455307 71.3646063 -9.4375 56 C-6.79113644 44.88527304 -8.170358 32.74267636 -13.625 22.6875 C-13.96917969 22.13449219 -14.31335938 21.58148438 -14.66796875 21.01171875 C-15.89379099 17.80715807 -15.83511079 15.39975466 -15.4375 12 C-13.80541434 9.62687544 -12.4835486 7.99055233 -10.4375 6.0625 C-9.93855225 5.58103516 -9.43960449 5.09957031 -8.92553711 4.60351562 C-6.11352512 2.05427058 -3.85171413 0.22571482 0 0 Z " fill="#F0B90F" transform="translate(153.4375,54)"></path><path d="M0 0 C0.804375 0.53625 1.60875 1.0725 2.4375 1.625 C5.80677222 3.43290217 7.37336319 3.05776907 11 2 C11.845625 1.46375 12.69125 0.9275 13.5625 0.375 C16 -1 16 -1 18.625 -0.8125 C21 0 21 0 24 2 C24.40843923 4.71203652 24.13336867 7.2437142 24 10 C23.36191406 10.21011719 22.72382812 10.42023438 22.06640625 10.63671875 C19.22007782 11.83119979 17.23932842 12.85451011 15 15 C14.28642041 18.45545511 14.24559495 21.51805511 14.390625 25.0390625 C14 28 14 28 11.6484375 29.91015625 C8.51456453 31.19975884 7.17302949 31.08551009 4 30 C3.01 29.34 2.02 28.68 1 28 C0.70703125 24.9609375 0.70703125 24.9609375 0.8125 21.375 C0.83957031 20.18648437 0.86664063 18.99796875 0.89453125 17.7734375 C0.92933594 16.85820313 0.96414062 15.94296875 1 15 C-1.59682963 13.95690373 -4.19448038 12.92652963 -6.8125 11.9375 C-9 10 -9 10 -9.3125 7.8046875 C-9.3125 5.51585706 -9.21491252 3.27807269 -9 1 C-5.47631401 -0.92946019 -3.90346542 -1.23768416 0 0 Z " fill="#F0BB14" transform="translate(88,84)"></path><path d="M0 0 C0.92169718 6.55586658 1.89176344 13.55852573 0 20 C-3.72182942 24.73148134 -9.48118687 26.99090398 -15 29 C-15.66 29 -16.32 29 -17 29 C-17.5 25.8125 -17.5 25.8125 -17 22 C-14.23158994 19.44648935 -10.86112137 17 -7 17 C-7.06960937 16.10796875 -7.13921875 15.2159375 -7.2109375 14.296875 C-7.64687973 4.87221921 -7.64687973 4.87221921 -5.69921875 2.24609375 C-3.93208692 1.10315168 -2.17992265 0 0 0 Z " fill="#F0BE21" transform="translate(123,92)"></path><path d="M0 0 C1.98 0.66 3.96 1.32 6 2 C6 6.62 6 11.24 6 16 C7.98 16.66 9.96 17.32 12 18 C14.875 19.125 14.875 19.125 17 21 C17.43712796 23.794299 17.23390169 26.14639938 17 29 C15.28969148 28.08702392 13.58185105 27.16942376 11.875 26.25 C10.92367187 25.73953125 9.97234375 25.2290625 8.9921875 24.703125 C8.00476563 24.14109375 7.01734375 23.5790625 6 23 C4.8965625 22.4740625 3.793125 21.948125 2.65625 21.40625 C0 19 0 19 -0.47216797 16.90136719 C-0.59188861 14.3250612 -0.52331463 11.8245899 -0.375 9.25 C-0.34792969 8.36183594 -0.32085937 7.47367187 -0.29296875 6.55859375 C-0.22236624 4.36991605 -0.12385527 2.18620432 0 0 Z " fill="#EFBB18" transform="translate(68,93)"></path><path d="M0 0 C2.45395703 1.31303357 4.85378131 2.65252986 7.25 4.0625 C7.8996875 4.43955078 8.549375 4.81660156 9.21875 5.20507812 C10.81505091 6.13234115 12.40787529 7.06558456 14 8 C11.69140625 10.03515625 11.69140625 10.03515625 9 12 C5.61771368 11.37876374 3.56264825 10.4468089 0.875 8.3125 C-0.86639512 6.81351782 -0.86639512 6.81351782 -2.8125 7.0625 C-4.8595874 7.93982317 -6.60436771 8.96498621 -8.5 10.125 C-12 12 -12 12 -14.25 11.9375 C-16.21397726 10.88536932 -17.46086929 9.59533492 -19 8 C-16.59205692 6.46358856 -14.17531353 4.94603605 -11.75 3.4375 C-11.06808594 2.99986328 -10.38617188 2.56222656 -9.68359375 2.11132812 C-9.01972656 1.70205078 -8.35585937 1.29277344 -7.671875 0.87109375 C-7.0644043 0.48880615 -6.45693359 0.10651855 -5.83105469 -0.28735352 C-3.45335897 -1.21275269 -2.36888863 -0.87348401 0 0 Z " fill="#F0BC1A" transform="translate(98,65)"></path><path d="M0 0 C0.43309718 5.28378559 0.43309718 5.28378559 0 8 C-2.25 10.0625 -2.25 10.0625 -5 11 C-7.98861604 10.72830763 -10.37219075 9.40775496 -13 8 C-13 5.69 -13 3.38 -13 1 C-11.01432292 1.32552083 -9.02864583 1.65104167 -7.04296875 1.9765625 C-4.09972565 2.0103282 -2.93138377 0 0 0 Z " fill="#F0C029" transform="translate(102,117)"></path><path d="M0 0 C3.465 1.98 3.465 1.98 7 4 C7.25 7.3125 7.25 7.3125 7 11 C5.1875 12.9375 5.1875 12.9375 3 14 C2.01 14 1.02 14 0 14 C-0.12375 12.39125 -0.12375 12.39125 -0.25 10.75 C-1.05476902 6.7261549 -1.87729874 5.51830747 -5 3 C-3.35 2.01 -1.7 1.02 0 0 Z " fill="#F0BF24" transform="translate(116,76)"></path><path d="M0 0 C2.3125 1.3125 2.3125 1.3125 4.3125 3.3125 C0.5625 6.3125 0.5625 6.3125 -1.6875 6.3125 C-1.6875 8.6225 -1.6875 10.9325 -1.6875 13.3125 C-6.5625 11.4375 -6.5625 11.4375 -7.6875 10.3125 C-8.18902618 5.13006281 -8.18902618 5.13006281 -7.6875 2.3125 C-4.9360858 -0.36030236 -3.74636654 -0.95837284 0 0 Z " fill="#EFBC19" transform="translate(75.6875,76.6875)"></path><path d="M0 0 C3.06630664 0.8974556 4.73038808 1.73038808 7 4 C5.3125 5.5625 5.3125 5.5625 3 7 C0.30190224 6.74303831 -1.58350693 6.20824654 -4 5 C-3 2 -3 2 0 0 Z " fill="#EFBE21" transform="translate(94,76)"></path><path d="M0 0 C1.98 0.99 3.96 1.98 6 3 C6 5.31 6 7.62 6 10 C1.125 8.125 1.125 8.125 0 7 C-0.04092937 4.66702567 -0.04241723 2.33294775 0 0 Z " fill="#F0BE22" transform="translate(79,99)"></path><path d="M0 0 C0 2.31 0 4.62 0 7 C-1.98 7.99 -3.96 8.98 -6 10 C-6.25 6.6875 -6.25 6.6875 -6 3 C-3.96080228 0.89282902 -2.95416573 0 0 0 Z " fill="#EFBA17" transform="translate(112,99)"></path></svg>