<svg xmlns="http://www.w3.org/2000/svg" width="107" height="107" fill="none"><mask id="a" width="107" height="107" x="0" y="0" maskUnits="userSpaceOnUse" style="mask-type:alpha"><path fill="#D9D9D9" d="M53.5 0 107 53.5 53.5 107 0 53.5z"/></mask><g mask="url(#a)"><path fill="url(#b)" d="M-.68-.68h108.35v108.35H-.68z"/><path fill="#302E2D" d="m57.1 39.07-3.59-3.52-3.6 3.54 3.58 3.52 3.6-3.54Zm13.33 3.85-3.57-3.58-10.05 9.64a4.83 4.83 0 0 1-6.62 0l-10.06-9.64-3.56 3.58v28.32h5.08V47.78l4.97 4.77a9.9 9.9 0 0 0 6.88 2.73c2.49 0 4.98-.91 6.88-2.73l4.88-4.68v23.37h5.17z"/></g><defs><linearGradient id="b" x1="6.43" x2="107.68" y1="6.77" y2="107.68" gradientUnits="userSpaceOnUse"><stop stop-color="#F8B994"/><stop offset=".05" stop-color="#F8B994"/><stop offset=".62" stop-color="#FF97D6"/><stop offset="1" stop-color="#FF97D6"/></linearGradient></defs></svg>