<svg xmlns="http://www.w3.org/2000/svg" width="208" height="208" fill="none" viewBox="0 0 208 208"><circle cx="104" cy="104" r="104" fill="#140901"/><path fill="#CAFF94" d="m79.004 101.234 22.932 14.073a4.87 4.87 0 0 0 5.053 0l22.933-14.073 15.134-10.265c1.777-1.207 2.334-3.422 1.313-5.226l-5.995-10.531c-1.154-2.03-3.887-2.812-6.102-1.765l-27.72 13.171a4.9 4.9 0 0 1-4.178 0l-27.72-13.157c-2.216-1.048-4.948-.266-6.102 1.764l-6.008 10.518c-1.022 1.803-.465 4.005 1.313 5.226l15.133 10.265z"/><path fill="#CAFF94" d="m108.382 153.294 26.898-25.599c2.003-1.671 2.467-4.403 1.101-6.552l-3.594-5.65c-1.313-2.069-4.284-2.693-6.459-1.34l-19.312 11.99a4.89 4.89 0 0 1-5.093 0l-19.312-11.99c-2.175-1.353-5.146-.729-6.46 1.34l-3.593 5.65c-1.367 2.149-.916 4.868 1.1 6.552l26.899 25.599c2.215 1.857 5.61 1.857 7.825 0M86.736 60.78l15.651-7.4a4.87 4.87 0 0 1 4.165 0l15.651 7.4c3.263 1.54 3.263 5.797 0 7.335l-15.651 7.401a4.87 4.87 0 0 1-4.165 0l-15.65-7.4c-3.264-1.54-3.264-5.797 0-7.335"/></svg>