<svg width="536" height="536" viewBox="0 0 536 536" fill="none" xmlns="http://www.w3.org/2000/svg">
<path d="M341.102 198.287L388.092 276.412C389.59 278.888 392.166 280.685 395.042 280.725C395.082 280.725 395.122 280.725 395.142 280.725C398.038 280.805 400.814 279.707 402.551 277.39L430.57 239.606C434.823 233.855 434.923 230.06 433.006 227.125L402.251 179.974C400.414 177.159 397.059 175.701 393.744 176.3L347.193 184.747C344.277 185.267 342.021 187.363 340.842 190.079C340.822 190.099 340.822 190.139 340.802 190.159C339.664 192.815 339.624 195.811 341.102 198.287Z" fill="#2EE1FF"/>
<path d="M171.211 225.949C169.473 226.429 167.276 226.748 165.459 226.728C163.921 226.708 162.504 227.487 161.685 228.785L115.473 303.415C113.796 306.131 115.473 309.665 118.648 310.085L168.854 316.575C170.811 316.835 172.369 318.372 172.629 320.33L174.266 332.132C174.765 335.787 179.279 337.225 181.815 334.549L229.205 284.303C230.862 282.546 230.783 279.79 229.045 278.112L175.444 226.988C174.306 225.929 172.708 225.55 171.211 225.949Z" fill="#2EE1FF"/>
<path d="M232.435 290.952L183.867 342.436C181.331 345.132 181.431 349.386 184.107 351.942L206.993 373.79C208.311 375.048 210.108 375.727 211.946 375.647L260.414 373.57C261.332 373.53 262.231 373.31 263.07 372.891L295.642 357.094C299.816 355.077 300.754 349.545 297.479 346.27L242.121 290.812C239.425 288.116 235.051 288.176 232.435 290.952Z" fill="#2EE1FF"/>
<path d="M383.988 282.969L335.6 202.509C334.541 200.751 331.865 201.27 331.586 203.307C328.291 226.373 316.987 309.55 313.513 335.272C313.113 338.288 316.408 340.364 318.965 338.727L380.234 299.185C381.432 298.407 382.011 297.009 381.792 295.591C381.712 295.072 381.672 294.532 381.672 293.993C381.672 291.297 382.51 288.801 383.908 286.744C384.667 285.606 384.687 284.148 383.988 282.969Z" fill="#2EE1FF"/>
<path d="M407.658 293.982C407.658 294.961 407.538 295.9 407.338 296.818C406.919 298.615 407.697 300.513 409.095 301.711L435.117 323.818C438.033 326.295 442.546 324.897 443.544 321.202L449.116 300.792C449.316 300.053 449.356 299.275 449.216 298.516L441.048 251.665C440.249 247.132 434.418 245.754 431.682 249.468L406.939 283.118C405.82 284.636 405.501 286.673 406.339 288.371C407.178 290.068 407.658 291.965 407.658 293.982Z" fill="#2EE1FF"/>
<path d="M279.516 122.004L213.673 124.62C211.956 124.68 210.418 125.719 209.699 127.296L178.006 197.512C177.167 199.37 179.284 201.167 180.942 200.009C199.414 187.307 256.43 148.085 282.272 130.312C286.046 127.716 284.069 121.824 279.516 122.004Z" fill="#2EE1FF"/>
<path d="M87.213 249.311L104.068 297.161C105.107 300.136 109.141 300.556 110.798 297.88L154.294 227.663C155.332 225.986 153.715 223.929 151.857 224.528L89.6095 244.499C87.5925 245.138 86.5141 247.314 87.213 249.311Z" fill="#2EE1FF"/>
<path d="M154.184 211.007C155.322 206.114 159.237 202.3 164.149 201.261C165.867 200.902 167.365 199.863 168.144 198.286C172.078 190.238 183.92 165.914 192.368 148.08C195.303 141.869 188.453 135.618 182.522 139.073L127.064 171.425C126.026 172.044 125.147 172.903 124.548 173.942L97.0088 221.371C93.7336 227.003 99.2654 233.633 105.396 231.457C121.173 225.845 142.821 217.976 150.769 215.101C152.567 214.442 153.745 212.864 154.184 211.007Z" fill="#2EE1FF"/>
<path d="M243.54 282.409L302.393 338.546C303.731 339.824 305.948 339.025 306.148 337.188L321.385 202.527C321.625 200.391 319.009 199.172 317.531 200.75L243.441 279.274C242.602 280.153 242.642 281.57 243.54 282.409Z" fill="#2EE1FF"/>
<path d="M179.189 217.679C179.189 217.699 179.189 217.719 179.169 217.719C178.709 219.277 179.129 220.954 180.307 222.092L233.788 273.097C235.525 274.755 238.281 274.675 239.919 272.937L311.872 196.67C313.65 194.773 311.992 191.697 309.436 192.157L182.544 214.643C180.926 214.923 179.648 216.101 179.189 217.679Z" fill="#2EE1FF"/>
<path d="M319.803 173.121C316.528 165.992 304.726 140.27 300.392 130.844C299.553 129.006 297.277 128.387 295.599 129.526L186.201 204.814C185.222 205.493 185.862 207.011 187.02 206.791L314.012 183.745C315.19 183.526 316.209 182.687 316.508 181.509C317.047 179.492 318.046 177.694 319.384 176.197C320.143 175.378 320.283 174.16 319.803 173.121Z" fill="#2EE1FF"/>
<path d="M394.673 306.972C392.557 306.972 390.56 306.453 388.802 305.535C386.805 304.496 384.369 304.736 382.491 305.954L314.412 349.889C312.595 351.067 311.477 353.064 311.417 355.241L310.857 378.547C310.818 380.164 311.377 381.722 312.415 382.94L337.598 412.496C341.632 417.229 349.4 414.194 349.121 407.963L348.622 396.82C348.522 394.503 349.64 392.326 351.577 391.048L430.041 339.584C433.696 337.188 434.015 331.956 430.68 329.12L405.178 307.452C403.46 305.994 401.104 305.455 398.987 306.214C397.649 306.713 396.191 306.972 394.673 306.972Z" fill="#2EE1FF"/>
<path d="M328.688 171.987C333.221 172.007 337.534 174.523 339.791 177.739C340.33 178.518 341.329 178.817 342.267 178.657L387.8 170.39C390.177 169.95 390.636 166.755 388.479 165.657L311.034 126.614C308.917 125.536 306.62 127.753 307.619 129.91L326.271 170.549C326.71 171.468 327.669 171.967 328.688 171.987Z" fill="#2EE1FF"/>
</svg>
