<svg width="160" height="160" viewBox="0 0 160 160" fill="none" xmlns="http://www.w3.org/2000/svg">
<g clip-path="url(#clip0_9926_386)">
<path d="M127.343 20.9727L40.8714 82.1608C35.7163 73.8948 33.0007 64.3409 33.0374 54.5994C33.0374 25.4627 56.8546 1.85752 86.3 1.85752C94.1261 1.82956 101.862 3.52815 108.956 6.83224C116.051 10.1363 122.329 14.9645 127.343 20.9727Z" fill="url(#paint0_linear_9926_386)"/>
<path d="M128.394 65.7676C128.425 56.024 125.71 46.4688 120.56 38.1975L77.4243 68.6909L34.079 99.3242L31.7857 100.961L31.8908 160.276C31.8908 160.276 88.9084 122.159 106.878 108.164C120.244 97.7226 128.394 83.1061 128.394 65.7676Z" fill="url(#paint1_linear_9926_386)"/>
</g>
<defs>
<linearGradient id="paint0_linear_9926_386" x1="100.778" y1="3.96685" x2="46.1808" y2="68.0912" gradientUnits="userSpaceOnUse">
<stop stop-color="#E2D177"/>
<stop offset="1" stop-color="#EE448A"/>
</linearGradient>
<linearGradient id="paint1_linear_9926_386" x1="119.649" y1="64.7523" x2="37.8216" y2="129.509" gradientUnits="userSpaceOnUse">
<stop stop-color="#E2D177"/>
<stop offset="1" stop-color="#EE448A"/>
</linearGradient>
<clipPath id="clip0_9926_386">
<rect width="160" height="160" fill="white"/>
</clipPath>
</defs>
</svg>
