<svg xmlns="http://www.w3.org/2000/svg" width="160" height="160" fill="none" viewBox="0 0 160 160"><g clip-path="url(#a)"><path fill="url(#b)" d="M127.343 20.973 40.871 82.16a51.7 51.7 0 0 1-7.834-27.562c0-29.136 23.818-52.741 53.263-52.741a53.21 53.21 0 0 1 41.043 19.115"/><path fill="url(#c)" d="M128.394 65.768a51.85 51.85 0 0 0-7.834-27.57L77.424 68.69 34.08 99.324l-2.293 1.637.105 59.315s57.017-38.117 74.987-52.112c13.366-10.441 21.516-25.058 21.516-42.396"/></g><defs><linearGradient id="b" x1="100.778" x2="46.181" y1="3.967" y2="68.091" gradientUnits="userSpaceOnUse"><stop stop-color="#E2D177"/><stop offset="1" stop-color="#EE448A"/></linearGradient><linearGradient id="c" x1="119.649" x2="37.822" y1="64.752" y2="129.509" gradientUnits="userSpaceOnUse"><stop stop-color="#E2D177"/><stop offset="1" stop-color="#EE448A"/></linearGradient><clipPath id="a"><path fill="#fff" d="M0 0h160v160H0z"/></clipPath></defs></svg>