<svg xmlns="http://www.w3.org/2000/svg" fill="none" viewBox="0 0 32 32"><g clip-path="url(#a)"><mask id="b" width="32" height="32" x="0" y="0" maskUnits="userSpaceOnUse" style="mask-type:alpha"><path fill="#D9D9D9" d="M16 32a16 16 0 1 0 0-32 16 16 0 0 0 0 32"/></mask><g mask="url(#b)"><path fill="#A1723A" d="M37.42-6.96H-4.94V35.4h42.36z"/><g filter="url(#c)"><path fill="#531002" d="M17.22 31.33a17.07 17.07 0 1 0 0-34.14 17.07 17.07 0 0 0 0 34.14"/></g><g filter="url(#d)"><path fill="#2B5DF0" d="M19.06 25.92a13.85 13.85 0 1 0 0-27.7 13.85 13.85 0 0 0 0 27.7"/></g><g filter="url(#e)"><path fill="url(#f)" d="M18.81 26.72a14.44 14.44 0 1 0 0-28.88 14.44 14.44 0 0 0 0 28.88"/></g><g filter="url(#g)"><path fill="#FCB8D4" d="M21.2 15.91a7.27 7.27 0 1 0 0-14.54 7.27 7.27 0 0 0 0 14.54"/></g><g filter="url(#h)"><path fill="#fff" d="M21.2 11.54a2.9 2.9 0 1 0 0-5.81 2.9 2.9 0 0 0 0 5.8Z"/></g><g filter="url(#i)"><path fill="url(#j)" fill-opacity=".9" d="M19.27 37.63a26.1 26.1 0 1 0 0-52.2 26.1 26.1 0 0 0 0 52.2"/></g></g></g><defs><filter id="c" width="42.06" height="42.05" x="-3.81" y="-6.77" color-interpolation-filters="sRGB" filterUnits="userSpaceOnUse"><feFlood flood-opacity="0" result="BackgroundImageFix"/><feBlend in="SourceGraphic" in2="BackgroundImageFix" result="shape"/><feGaussianBlur result="effect1_foregroundBlur_62833_35437" stdDeviation="1.98"/></filter><filter id="d" width="43.53" height="43.54" x="-2.7" y="-9.7" color-interpolation-filters="sRGB" filterUnits="userSpaceOnUse"><feFlood flood-opacity="0" result="BackgroundImageFix"/><feBlend in="SourceGraphic" in2="BackgroundImageFix" result="shape"/><feGaussianBlur result="effect1_foregroundBlur_62833_35437" stdDeviation="3.96"/></filter><filter id="e" width="34.81" height="34.82" x="1.4" y="-5.13" color-interpolation-filters="sRGB" filterUnits="userSpaceOnUse"><feFlood flood-opacity="0" result="BackgroundImageFix"/><feBlend in="SourceGraphic" in2="BackgroundImageFix" result="shape"/><feGaussianBlur result="effect1_foregroundBlur_62833_35437" stdDeviation="1.48"/></filter><filter id="g" width="26.42" height="26.42" x="7.99" y="-4.57" color-interpolation-filters="sRGB" filterUnits="userSpaceOnUse"><feFlood flood-opacity="0" result="BackgroundImageFix"/><feBlend in="SourceGraphic" in2="BackgroundImageFix" result="shape"/><feGaussianBlur result="effect1_foregroundBlur_62833_35437" stdDeviation="2.97"/></filter><filter id="h" width="13.72" height="13.72" x="14.34" y="1.77" color-interpolation-filters="sRGB" filterUnits="userSpaceOnUse"><feFlood flood-opacity="0" result="BackgroundImageFix"/><feBlend in="SourceGraphic" in2="BackgroundImageFix" result="shape"/><feGaussianBlur result="effect1_foregroundBlur_62833_35437" stdDeviation="1.98"/></filter><filter id="i" width="58.13" height="58.13" x="-9.8" y="-17.53" color-interpolation-filters="sRGB" filterUnits="userSpaceOnUse"><feFlood flood-opacity="0" result="BackgroundImageFix"/><feBlend in="SourceGraphic" in2="BackgroundImageFix" result="shape"/><feGaussianBlur result="effect1_foregroundBlur_62833_35437" stdDeviation="1.48"/></filter><radialGradient id="f" cx="0" cy="0" r="1" gradientTransform="rotate(128 8.63 9.26)scale(27.27 27.26)" gradientUnits="userSpaceOnUse"><stop offset=".29" stop-color="#387AFA"/><stop offset=".65" stop-color="#387AFA" stop-opacity="0"/></radialGradient><radialGradient id="j" cx="0" cy="0" r="1" gradientTransform="rotate(90 3.87 15.4)scale(26.1)" gradientUnits="userSpaceOnUse"><stop offset=".6" stop-opacity="0"/><stop offset=".67"/><stop offset=".73" stop-opacity="0"/></radialGradient><clipPath id="a"><path fill="#fff" d="M0 0h32v32H0z"/></clipPath></defs></svg>