<svg xmlns="http://www.w3.org/2000/svg" fill="none" viewBox="0 0 64 64"><g clip-path="url(#a)"><mask id="b" width="64" height="64" x="0" y="0" maskUnits="userSpaceOnUse"><path fill="#fff" d="M64 0H0v64h64z"/></mask><g mask="url(#b)"><path fill="#f1f2f3" d="m29.849.064-2.217.232-.894.132-.794.132-.662.139-2.548.642-2.363.827c-.02.026-.079.046-.132.046-.046 0-.232.066-.404.139l-.543.238a37 37 0 0 0-2.833 1.403l-.371.205c-.04 0-.9.53-1.211.735-.152.106-.305.192-.338.192s-.113.06-.179.132-.146.132-.172.132-.205.112-.397.245l-2.045 1.542a17 17 0 0 1-.463.397c-1.734 1.463-3.29 3.111-4.872 5.163-.351.457-1.595 2.29-1.814 2.681l-.265.463-.271.477c-.252.43-1.013 1.953-1.211 2.403l-.318.708c-.298.682-.649 1.655-1.178 3.296l-.338 1.224-.132.563-.132.596c-.496 2.211-.768 5.156-.695 7.612.079 2.462.384 4.673.973 6.95l.417 1.522.179.563.126.364a5 5 0 0 1 .159.43 31 31 0 0 0 .748 1.919l1.542 3.078.245.43c.026.053.159.271.298.477s.252.397.252.417a10 10 0 0 0 .728 1.092c.02.02.146.179.265.364.311.456 1.284 1.721 1.456 1.886.02.02.192.225.391.463.47.556 2.628 2.714 3.184 3.184l.463.39c.06.067 1.026.828 1.39 1.099l1.953 1.35c.02 0 .218.119.43.265l.424.264c.013 0 .285.145.602.331a49 49 0 0 0 2.945 1.476c1.158.509 3.389 1.277 4.587 1.575l.51.126 2.634.529 1.006.133 1.185.133c.741.086 4.607.086 5.533-.007 1.363-.126 3.481-.457 4.203-.656l.827-.198.761-.199.662-.198 1.324-.431.662-.245.94-.377c.172-.08.331-.139.351-.139.046 0 1.026-.463 1.767-.834l1.9-1.032.444-.252c.04 0 1.589-1.04 1.88-1.258l.629-.47.43-.325a4 4 0 0 1 .278-.212l.331-.264a20 20 0 0 1 .517-.45c1.661-1.404 3.759-3.64 4.884-5.229l1.668-2.482.278-.483c.788-1.383 1.582-3.005 2.032-4.183l.272-.695a24 24 0 0 0 .662-1.953l.132-.463a20 20 0 0 0 .259-.98l.125-.51c.04-.146.106-.444.145-.662l.133-.662c.033-.146.093-.503.133-.794l.106-.728c.238-1.456.337-4.183.232-6.156a28 28 0 0 0-.397-3.673c-.265-1.694-1.204-5.057-1.668-5.97-.033-.066-.059-.146-.059-.185s-.059-.199-.133-.364l-.252-.582c-.569-1.31-1.251-2.647-1.886-3.687l-.391-.649a26 26 0 0 0-1.012-1.522l-.583-.774c-1.509-2.019-3.508-4.064-5.639-5.765l-.992-.755-.364-.265a19 19 0 0 0-1.489-.993c-.026 0-.165-.086-.318-.192-.801-.543-4.038-2.191-4.309-2.191a.25.25 0 0 1-.146-.06c-.126-.113-2.416-.933-3.17-1.138L39.347.891a34 34 0 0 0-3.773-.668c-2.422-.258-3.971-.304-5.725-.159"/><path fill="#e4e2d7" d="m29.849.064-2.217.232-.894.132-.794.132-.662.139-2.548.642-2.363.827c-.02.026-.079.046-.132.046-.046 0-.232.066-.404.139l-.543.238a37 37 0 0 0-2.833 1.403l-.371.205c-.04 0-.9.53-1.211.735-.152.106-.305.192-.338.192s-.113.06-.179.132-.146.132-.172.132-.205.112-.397.245l-2.045 1.542a17 17 0 0 1-.463.397c-1.734 1.463-3.29 3.111-4.872 5.163-.351.457-1.595 2.29-1.814 2.681l-.265.463-.271.477c-.252.43-1.013 1.953-1.211 2.403l-.318.708c-.298.682-.649 1.655-1.178 3.296l-.338 1.224-.132.563-.132.596c-.496 2.211-.768 5.156-.695 7.612.079 2.462.384 4.673.973 6.95l.417 1.522.179.563.126.364a5 5 0 0 1 .159.43 31 31 0 0 0 .748 1.919l1.542 3.078.245.43c.026.053.159.271.298.477s.252.397.252.417a10 10 0 0 0 .728 1.092c.02.02.146.179.265.364.311.456 1.284 1.721 1.456 1.886.02.02.192.225.391.463.47.556 2.628 2.714 3.184 3.184l.463.39c.06.067 1.026.828 1.39 1.099l1.953 1.35c.02 0 .218.119.43.265l.424.264c.013 0 .285.145.602.331a49 49 0 0 0 2.945 1.476c1.158.509 3.389 1.277 4.587 1.575l.51.126 2.634.529 1.006.133 1.185.133c.741.086 4.607.086 5.533-.007 1.363-.126 3.481-.457 4.203-.656l.827-.198.761-.199.662-.198 1.324-.431.662-.245.94-.377c.172-.08.331-.139.351-.139.046 0 1.026-.463 1.767-.834l1.9-1.032.444-.252c.04 0 1.589-1.04 1.88-1.258l.629-.47.43-.325a4 4 0 0 1 .278-.212l.331-.264a20 20 0 0 1 .517-.45c1.661-1.404 3.759-3.64 4.884-5.229l1.668-2.482.278-.483c.788-1.383 1.582-3.005 2.032-4.183l.272-.695a24 24 0 0 0 .662-1.953l.132-.463a20 20 0 0 0 .259-.98l.125-.51c.04-.146.106-.444.145-.662l.133-.662c.033-.146.093-.503.133-.794l.106-.728c.238-1.456.337-4.183.232-6.156a28 28 0 0 0-.397-3.673c-.265-1.694-1.204-5.057-1.668-5.97-.033-.066-.059-.146-.059-.185s-.059-.199-.133-.364l-.252-.582c-.569-1.31-1.251-2.647-1.886-3.687l-.391-.649a26 26 0 0 0-1.012-1.522l-.583-.774c-1.509-2.019-3.508-4.064-5.639-5.765l-.992-.755-.364-.265a19 19 0 0 0-1.489-.993c-.026 0-.165-.086-.318-.192-.801-.543-4.038-2.191-4.309-2.191a.25.25 0 0 1-.146-.06c-.126-.113-2.416-.933-3.17-1.138L39.347.891a34 34 0 0 0-3.773-.668c-2.422-.258-3.971-.304-5.725-.159m18.096 18.837c-.218.556-.232.582-1.277 1.615l-4.044 4.137-2.25 2.251c-.086 0-.847.774-1.072 1.092-.126.172-.152.185-.238.099a33 33 0 0 1-1.317-2.184c-.026-.073 1.39-1.099 5.136-3.72l5.183-3.627c.013 0-.04.152-.119.338zm-27.071 3.336 5.156 3.614-.278.51-1.072 1.714c-.04.013-1.953-1.853-4.256-4.143l-4.243-4.19c-.106-.04-.582-1.112-.496-1.112.02 0 2.35 1.622 5.189 3.607m-3.726-1.397 1.085 1.225c0 .046.033.059.086.033.04-.026.06-.026.033.007-.026.026-.02.093.02.146.059.06.053.086 0 .086-.04 0-.073-.033-.073-.066 0-.04-.046-.066-.106-.066-.053 0-.079-.033-.06-.066.02-.04-.007-.066-.066-.066s-.086-.033-.066-.066c.02-.04.007-.066-.027-.066-.04 0-.073.033-.073.079 0 .04-.073.007-.159-.073-.119-.112-.166-.126-.192-.059-.013.053.007.146.06.218.106.146.126.324.026.265-.04-.026-.046-.079-.026-.119q.05-.09-.04 0c-.073.066-.073.099 0 .185.066.079.066.099-.007.099-.066 0-.073.013-.013.053.04.026.073.119.079.212.007.344.086.728.146.688.033-.02.059.04.059.132s.06.324.132.51c.079.185.126.351.113.364-.026.027-1.9-4.547-1.9-4.64 0-.04.046-.007.099.059.053.073.444.49.867.927zm30.195-.549c-.119.232-.218.47-.225.523-.007.106-.152.477-.854 2.151l-.609 1.476c-.258.649-.258.43-.007-.331l.523-1.602c.046-.165.04-.185-.073-.152-.159.04-.159.053-.02-.258.06-.146.106-.278.099-.311-.007-.026.02-.046.06-.046.033 0 .046-.033.026-.066-.06-.093.112-.47.199-.437.033.007.06.079.046.146-.007.066.046.013.126-.132.073-.139.119-.311.106-.377-.02-.073-.013-.113.02-.093.026.02.093-.02.139-.079.079-.093.079-.106-.007-.053-.053.033.013-.053.152-.192.132-.146.232-.271.218-.285-.026-.033.245-.331.278-.311.013.007-.073.205-.199.43zm-1.304 1.205q-.069.07 0 .152c.099.119-.265.516-.424.457-.06-.027-.113-.079-.113-.113 0-.04.046-.033.099.013.126.106.212.033.106-.086-.06-.073-.053-.113.026-.179.053-.046.079-.106.059-.139s0-.053.053-.046c.046.013.079-.013.073-.053s.033-.073.086-.073c.066 0 .073.026.033.066zm-.503.841c.02.033.013.066-.026.066-.033 0-.086-.033-.106-.066-.02-.04-.013-.066.027-.066.033 0 .086.026.106.066zm.364 0c0 .033-.059.093-.132.132-.146.08-.179.007-.053-.119.093-.093.185-.106.185-.013m-.496.132c.02.033.007.066-.026.066-.04 0-.073-.033-.073-.066 0-.04.013-.066.026-.066.02 0 .053.026.073.066m-.397.397c.02.033.013.066-.027.066-.033 0-.086-.033-.106-.066-.02-.04-.013-.066.026-.066.033 0 .086.026.106.066zm8.154.212c-.02.053-.039.033-.039-.04-.007-.073.014-.113.033-.086.02.02.026.079.006.126m-8.723.788c-.119.252-.225.444-.238.43s.066-.238.179-.51l.205-.523c0-.02.02.007.04.06.02.046-.06.298-.185.543zm8.591.172c-.02.066-.033.013-.033-.113s.013-.179.033-.119a.7.7 0 0 1 0 .232m-.066.695c-.02.053-.04.033-.04-.04-.007-.073.013-.113.033-.086.02.02.026.079.007.126m-.066.596c-.02.046-.033.013-.033-.079s.013-.126.033-.086a.35.35 0 0 1 0 .165m-.178 1.456-.113 1.125c-.04.51-.04.51-.377.794-.496.424-.907.735-.926.708-.086-.119-.371-.688-.371-.755 0-.046.04-.119.093-.159.092-.079 1.33-1.853 1.575-2.257.08-.126.153-.199.166-.152.014.04-.007.357-.046.695zm-41.706-.503c.007-.04.099.079.212.265l.496.721 1.019 1.489c0 .086-.351.43-.417.41-.033-.007-.033.046-.007.132.033.106-.099.027-.51-.311l-.602-.49a31 31 0 0 1-.311-2.369c0-.027.026.007.059.079s.06.106.06.073zm38.727 4.421a.4.4 0 0 1-.113.113q-.157.13-.026-.027c.131-.157.139-.139.139-.086m-.596.457c0 .013-.099.106-.212.218l-.218.192.192-.219c.185-.198.238-.245.238-.192zm-.993.86c0 .013-.099.086-.212.172l-.218.146.185-.165c.172-.159.245-.205.245-.152zm-1.013 2.906c-.02.046-.033.013-.033-.079s.013-.126.033-.086a.35.35 0 0 1 0 .165M21.9 36.15c.172.318.172.318 0 .119-.218-.265-.311-.43-.232-.43.033 0 .139.139.232.311m-3.19 2.072 1.529 1.013q-.029.06.033.02c.062-.04.364.126.715.331.477.278.616.391.549.437q-.111.078.027.026a.35.35 0 0 1 .218.007c.086.033.086.053.013.099-.066.046-.059.053.033.026.106-.033.708.271.708.364 0 .02-.41.304-.907.629l-1.357.887-.45.298-.026 1.324c-.02 1.138-.007 1.344.086 1.456.073.093.046.079-.079-.026-.179-.159-.252-.324-.099-.232.046.026.053.02.026-.033-.026-.04-.073-.06-.099-.04-.066.033-1.747-2.145-1.747-2.264 0-.046-.02-.073-.046-.066-.053.013-.794-.92-.794-.993 0-.026.079.027.185.119l.179.159-.159-.179c-.086-.099-.179-.166-.205-.152-.06.04-.88-1.019-.88-1.132 0-.046-.027-.073-.053-.053-.026.013-.093-.033-.146-.106-.066-.099-.079-.225-.04-.51l.192-1.443.166-1.271.04-.212.41.285c.225.159 1.119.708 1.979 1.231zm28.713-1.291c0 .139.324 2.681.371 2.892.026.152-.04.278-.384.728l-3.124 4.071c-.172.225-.344.43-.39.457-.06.033-.053.02.007-.046.053-.059.08-.404.08-1.218 0-1.357.159-1.125-1.569-2.277q-1.212-.806-1.211-.927-.002-.11.682-.516l2.098-1.231 2.35-1.43 1.013-.596c.04-.007.079.04.079.093zm-25.284 5.48c0 .013-.079.093-.179.185l-.185.159.159-.185c.152-.166.205-.212.205-.159m21.213 3.422c-.165.218-.318.397-.338.397s.106-.179.271-.397.318-.397.337-.397-.106.179-.271.397zm-.496.662c-.146.199-.331.364-.232.192.079-.119.318-.391.344-.391.02 0-.033.086-.112.199m-.41.516-1.416 1.84c-.099.126-.126.119-.245-.066-.099-.146-.099-.159.007-.146.159.027.41-.099.41-.199 0-.046.06-.119.126-.159.073-.033.357-.364.642-.728l.536-.662c.013 0-.013.053-.06.119zM22.8 48.905c-.053.053-.086.046-.132-.026-.079-.132-.007-.218.106-.126.073.06.079.099.027.152zm-5.388-26.813c.02.066.06.099.08.079s0-.073-.046-.119c-.066-.059-.073-.053-.033.04zm28.752.013c-.046.06-.053.099-.013.099.033 0 .08-.046.106-.099.02-.053.027-.099.013-.099s-.06.046-.106.099m-.357-.371c-.08.086-.093.139-.04.172.04.027.079.033.086.027.013-.013.053-.073.099-.139.119-.152-.013-.205-.146-.06zM17.571 42.087c0 .013.053.066.119.113q.149.13.02-.026c-.129-.156-.139-.139-.139-.086zm.397.529c0 .013.053.066.119.113q.149.13.02-.027c-.129-.157-.139-.139-.139-.086"/><path fill="#d9d5c5" d="m29.849.064-2.217.232-.894.132-.794.132-.662.139-2.548.642-2.363.827c-.02.026-.079.046-.132.046-.046 0-.232.066-.404.139l-.543.238a37 37 0 0 0-2.833 1.403l-.371.205c-.04 0-.9.53-1.211.735-.152.106-.305.192-.338.192s-.113.06-.179.132-.146.132-.172.132-.205.112-.397.245l-2.045 1.542a17 17 0 0 1-.463.397c-1.734 1.463-3.29 3.111-4.872 5.163-.351.457-1.595 2.29-1.814 2.681l-.265.463-.271.477c-.252.43-1.013 1.953-1.211 2.403l-.318.708c-.298.682-.649 1.655-1.178 3.296l-.338 1.224-.132.563-.132.596c-.496 2.211-.768 5.156-.695 7.612.079 2.462.384 4.673.973 6.95l.417 1.522.179.563.126.364a5 5 0 0 1 .159.43 31 31 0 0 0 .748 1.919l1.542 3.078.245.43c.026.053.159.271.298.477s.252.397.252.417a10 10 0 0 0 .728 1.092c.02.02.146.179.265.364.311.456 1.284 1.721 1.456 1.886.02.02.192.225.391.463.47.556 2.628 2.714 3.184 3.184l.463.39c.06.067 1.026.828 1.39 1.099l1.953 1.35c.02 0 .218.119.43.265l.424.264c.013 0 .285.145.602.331a49 49 0 0 0 2.945 1.476c1.158.509 3.389 1.277 4.587 1.575l.51.126 2.634.529 1.006.133 1.185.133c.741.086 4.607.086 5.533-.007 1.363-.126 3.481-.457 4.203-.656l.827-.198.761-.199.662-.198 1.324-.431.662-.245.94-.377c.172-.08.331-.139.351-.139.046 0 1.026-.463 1.767-.834l1.9-1.032.444-.252c.04 0 1.589-1.04 1.88-1.258l.629-.47.43-.325a4 4 0 0 1 .278-.212l.331-.264a20 20 0 0 1 .517-.45c1.661-1.404 3.759-3.64 4.884-5.229l1.668-2.482.278-.483c.788-1.383 1.582-3.005 2.032-4.183l.272-.695a24 24 0 0 0 .662-1.953l.132-.463a20 20 0 0 0 .259-.98l.125-.51c.04-.146.106-.444.145-.662l.133-.662c.033-.146.093-.503.133-.794l.106-.728c.238-1.456.337-4.183.232-6.156a28 28 0 0 0-.397-3.673c-.265-1.694-1.204-5.057-1.668-5.97-.033-.066-.059-.146-.059-.185s-.059-.199-.133-.364l-.252-.582c-.569-1.31-1.251-2.647-1.886-3.687l-.391-.649a26 26 0 0 0-1.012-1.522l-.583-.774c-1.509-2.019-3.508-4.064-5.639-5.765l-.992-.755-.364-.265a19 19 0 0 0-1.489-.993c-.026 0-.165-.086-.318-.192-.801-.543-4.038-2.191-4.309-2.191a.25.25 0 0 1-.146-.06c-.126-.113-2.416-.933-3.17-1.138L39.347.891a34 34 0 0 0-3.773-.668c-2.422-.258-3.971-.304-5.725-.159m1.933 16.891c.007.271-.013.41-.046.351a.35.35 0 0 0-.205-.113c-.126-.02-.132-.007-.06.079s.099.086.146.02c.053-.066.06-.066.04.007-.033.113-.198.146-.324.066-.073-.046-.073-.06-.007-.06.046 0 .073-.027.046-.066-.02-.033.02-.119.099-.198.073-.073.119-.132.099-.132s.007-.093.066-.199c.059-.113.113-.199.119-.199s.02.199.027.444m-.523.563c-.013.046.02.079.066.066.053-.007.073.013.046.053-.033.053-.073.053-.139-.007-.046-.04-.073-.099-.053-.132.053-.086.093-.073.079.02zm-16.64 1.072c-.02.059-.007.106.033.106s.073.04.073.093.02.106.053.126q.04.022-.02.013c-.033 0-.139.066-.225.152-.099.106-.119.152-.046.126.066-.027.106-.007.106.046s.04.106.093.126c.139.053.185.311.053.311-.093 0-.093.013-.02.06.053.033.073.106.053.165-.027.073-.007.106.073.106.106.007.106.007 0 .073-.139.079-.159.205-.033.185.119-.02.311.079.311.166 0 .04.046.159.106.271.093.179.093.199-.013.278-.113.079-.106.086.02.086.079 0 .165.026.185.066.02.033.007.066-.033.066-.046 0-.033.046.026.106.08.079.086.132.04.232-.04.066-.046.126-.013.126s.06.046.06.099c0 .06-.04.093-.093.073-.046-.02-.086.007-.086.059s.033.099.073.099.053.046.033.106-.02.139.007.179a.4.4 0 0 1 .053.179c0 .053.046.093.099.08.053-.007.027.046-.066.119-.139.106-.146.132-.046.132.093 0 .106.04.079.192-.02.113 0 .218.033.238.04.026.046.073.027.113-.027.04 0 .093.046.132.073.046.06.053-.04.04-.093-.013-.126.02-.126.146s.033.159.126.146c.099-.013.113-.007.04.046-.073.046-.073.099-.013.271.073.218.046.364-.066.298-.033-.026-.06-.007-.06.027 0 .04.04.073.086.073.04 0 .132.106.192.238.099.185.106.252.033.364-.066.106-.053.172.066.39.132.245.132.258.013.199-.099-.053-.126-.046-.126.033 0 .053.033.099.066.099.04 0 .066.026.066.066 0 .106-.199.079-.238-.033-.027-.053-.06-.086-.093-.066-.059.033-.642-.477-1.549-1.35-.635-.616-.655-.589-.099.159.371.496 2.045 3.15 2.045 3.237-.007.04-.06.013-.119-.066-.093-.112-.132-.119-.199-.053-.046.053-.053.093-.007.106.04.013.007.106-.073.205s-.113.179-.073.179c.119 0 .086.119-.073.265-.079.073-.119.132-.093.132.033 0 .013.053-.033.112q-.091.11-.013.06c.066-.033.079.026.06.252-.013.165.007.285.033.265.033-.02.066 0 .066.033l.02.139c0 .04.053.099.106.132s.079.073.06.099c-.033.026-.993-.351-2.065-.821-.424-.185-.569-.179-.827.04-.318.278-.318.463.013.768.265.245-.285-.172-1.165-.874-.51-.41-.443-.185-.682-2.29-.291-2.495-.298-2.184.073-2.35 1.9-.854 1.754-.814 2.866-.847l1.019-.027-.688-.225c-.781-.252-.953-.278-.894-.119.046.126-.066.291-.205.291-.046 0-.245-.318-.45-.741-.404-.814-.45-.894-.424-.649a.6.6 0 0 1-.079.331c-.06.093-.205.371-.324.629a2.2 2.2 0 0 1-.576.761l-.483.41c-.086.079-.132.093-.132.033 0-.04-.079-.688-.165-1.436l-.298-2.482-.166-1.357-.033-.238 2.35-.02 2.31.086zm38.29-.046.808.04-.033.271-.37 3.117-.338 2.78-.172 1.423-.139 1.324-.112.953-1.066.867-1.906 1.536c-.827.675-1.079.827-.569.364.371-.351.463-.424.463-.377 0 .026.119-.079.265-.232.139-.146.271-.258.291-.252.014.013.271-.172.563-.404.596-.47.629-.556.404-.999-.133-.265-.133-.265.185-.675.391-.51 1.47-2.105 1.47-2.184 0-.119-.08-.02-.622.788-1.065 1.582-1.192 1.721-1.794 1.986l-1.337.589-.861.357c-.033 0 .033-.073.132-.159.106-.093.172-.199.146-.232-.02-.04.007-.073.066-.073.079 0 .093-.04.06-.185a2 2 0 0 0-.099-.291c-.073-.139-.073-.205-.007-.159.026.013.053-.026.053-.099 0-.066-.026-.126-.053-.126s-.053.033-.053.079c0 .04-.02.053-.046.026-.033-.026-.046-.073-.04-.093.007-.026-.02-.086-.06-.132-.04-.04-.046-.08-.013-.08s.013-.033-.04-.066c-.099-.059-.106-.086-.126-.304-.007-.086-.026-.093-.099-.033-.053.046-.106.053-.126.026-.033-.053.88-1.502 1.959-3.117.735-1.112.755-1.139.404-.755a9 9 0 0 1-.582.602c-1.251 1.152-1.383 1.264-1.529 1.251-.152-.013-.152-.013-.026-.192.079-.113.099-.199.06-.225-.033-.02-.066-.007-.066.026 0 .04-.053.073-.113.066-.073 0-.086-.02-.033-.04.04-.013.079-.079.079-.132q0-.1.119-.053c.086.033.093.027.033-.04a.16.16 0 0 1-.026-.185c.033-.06.053-.232.046-.384-.007-.185.026-.298.086-.318.073-.026.073-.053 0-.146-.079-.093-.079-.106 0-.053.073.04.086.026.053-.059-.026-.066-.02-.099.02-.073.04.02.066-.02.066-.099 0-.086.026-.126.079-.093q.071.051.013-.046a.4.4 0 0 1-.04-.212c.026-.126-.093-.152-.139-.033-.026.059-.079.033-.172-.079-.132-.165-.132-.165-.007-.271.132-.113.271-.51.152-.437-.04.026-.106 0-.152-.053-.073-.086-.06-.126.073-.252.132-.119.139-.146.046-.166-.146-.026-.086-.463.079-.616.119-.099.119-.106-.007-.199-.152-.106-.166-.245-.02-.304.053-.02.086-.079.066-.126-.02-.053-.007-.093.026-.093.04 0 .066-.053.066-.119 0-.093-.013-.099-.066-.013-.033.053-.066.066-.066.027s.06-.152.139-.245c.106-.146.119-.199.06-.311-.066-.119-.053-.146.053-.179.093-.02.126-.073.106-.172a.3.3 0 0 1 .046-.218c.04-.046.046-.126.02-.166-.026-.046-.02-.06.026-.033.04.02.086.013.106-.02.027-.033-.013-.079-.079-.099-.112-.04-.179-.238-.079-.238a.7.7 0 0 0 .185-.132c.093-.086.146-.106.146-.053 0 .059.02.059.066-.013.04-.06.033-.113-.013-.139-.139-.086.252-.258.708-.318.576-.073 2.138-.086 3.203-.026zm-32.121 3.627 5.209 3.687c.066.106-1.205 2.25-1.317 2.224-.086-.02-4.501-4.322-6.546-6.374l-.953-.933c1.642 1.774 1.9 2.098 2.072 2.581l.463 1.284c.331.913.338 1.059.027.9-.152-.079-.245-.086-.39-.033-.139.046-.192.046-.192-.013q0-.078-.059.013a.24.24 0 0 0-.02.199c.033.093.02.093-.093-.007-.119-.106-.126-.099-.132.079-.007.106.013.185.04.165.02-.013.026.06.013.166a1.1 1.1 0 0 0 .046.404c.04.119.06.225.046.238-.027.026-1.397-3.257-2.33-5.586l-.887-2.065c-.146-.298-.238-.536-.212-.536.033 0 2.383 1.622 5.216 3.607zm27.058-2.998c-.132.265-.265.49-.298.503s-.059.053-.059.086c0 .04.026.053.059.033.066-.046-.278.821-1.813 4.494l-1.35 3.098c-.007-.04.066-.291.159-.563.093-.265.165-.536.165-.602 0-.06.04-.112.086-.119q.088 0 0-.04c-.066-.02-.066-.066-.013-.165.06-.119.053-.126-.066-.086-.08.026-.139.013-.139-.026s-.04-.053-.086-.033q-.09.032-.079-.146c0-.132-.04-.185-.146-.199-.086-.013-.152.007-.152.046 0 .033-.026.046-.066.026-.033-.02-.066.013-.066.073a.36.36 0 0 1-.093.218c-.046.06-.199.39-.338.735l-.304.695c-.099.106-.066-.086.066-.417.146-.364.337-.966.337-1.072 0-.093.794-2.237 1.013-2.72.185-.43 1.231-1.648 1.992-2.33.271-.245.563-.543.635-.662.199-.291-2.422 2.356-4.666 4.719l-2.085 2.138c-.649.523-.841.708-1.099 1.059l-.285.384-.159-.252-1.297-2.23c.185-.185 10.359-7.241 10.372-7.195.013.033-.086.278-.225.549zm-33.021.119c.02.033.013.066-.026.066-.033 0-.086-.033-.106-.066-.02-.04-.013-.066.027-.066.033 0 .086.026.106.066zm11.418 6.486c-.04.073-.086.132-.106.132-.013 0 0-.059.04-.132s.086-.132.106-.132c.013 0 0 .059-.04.132m-7.082 1.291c0 .033-.033.02-.066-.033a.5.5 0 0 1-.066-.165c0-.04.033-.02.066.033a.4.4 0 0 1 .066.165m21.531.377-.583.682c-.549.649-.629.735-.629.682 0-.026.04-.086.086-.132l.629-.735c.304-.351.569-.642.596-.642.02 0-.027.066-.099.146zM24.243 29.18c-.066.046-.119.106-.119.132 0 .046-.298.477-.417.602-.04.033.013-.066.112-.232s.212-.364.252-.45c.04-.079.119-.146.179-.146.093.007.093.013-.007.093zm-.953 1.496c-.225.344-.271.344-.079 0 .086-.146.172-.265.205-.265.026 0-.033.119-.126.265m26.145.007c-.238.252-.258.245-.079-.033.086-.126.172-.212.205-.192s-.026.119-.126.225m-35.073.324c.066.073.106.132.086.132s-.086-.059-.152-.132-.106-.132-.086-.132.086.06.152.132m.371.311q.129.158-.02.026c-.066-.046-.119-.099-.119-.113 0-.053.053-.02.139.086zm7.757.649c-.02.06-.053.093-.066.073-.02-.02-.013-.06.013-.099.059-.106.099-.086.053.026m-6.242.563c.43.404.43.404-.165-.073-.715-.569-.715-.569-.463-.437.113.06.391.285.629.51zm31.969-.576c0 .033-.841.708-.874.708-.02 0 .086-.126.238-.285s.285-.278.298-.271c.013.013.086-.02.165-.073.139-.099.172-.119.172-.079zm-.993.794a.8.8 0 0 1-.146.152c-.152.126-.152.126-.027-.026.119-.139.172-.179.172-.126zm-30.308.357q.129.158-.02.026c-.113-.086-.146-.139-.093-.139.013 0 .066.053.113.113m4.832.126c-.099.126-.119.205-.073.258.033.04.046.099.02.119-.066.073-.218.053-.218-.02 0-.093.344-.602.384-.569.013.02-.033.113-.113.212m25.079-.146a.4.4 0 0 1-.113.112q-.158.13-.026-.026c.132-.156.139-.139.139-.086m-.119.622c.318.053.344.112.417.907l.046.49-.417-.113c-.344-.093-.437-.146-.523-.311l-.099-.212c0-.007-.146.02-.324.053-.265.046-.463.026-1.086-.113-1.066-.238-1.172-.304-.41-.258l1.158.106c.96.112 1.013.106 1.039-.093.013-.079.059-.139.099-.132.06.013.066-.026.027-.132a.28.28 0 0 0-.199-.166c-.073-.013-.139-.053-.139-.086 0-.04.026-.046.066-.027.033.02.192.06.344.086zm-29.732.079c-.066.04-.073.066-.013.066.04 0 .079.053.079.112.007.146.159.357.278.377.212.026.245.106.132.304-.086.146-.199.212-.497.298-.212.06-.397.099-.41.086s.013-.291.046-.629c.073-.622.093-.655.384-.675.086-.007.086 0 0 .06zm5.394.271c.344.179.927.516 1.344.774l.344.192c.053.02.179.093.271.159a10 10 0 0 0 1.138.635c.06.02.112.059.112.093s.027.06.066.06c.033 0 .357.172.708.384l1.277.741c.344.199.847.496 1.112.675l.503.318c.033 0 1.582.933 1.774 1.066a.6.6 0 0 0 .265.126c.099 0 .496.304.45.351-.02.013-1.569-.874-3.442-1.986l-4.964-2.912c-1.8-1.046-2.171-1.311-.96-.675zm-2.945.199c-.98.252-1.721.318-1.847.166-.046-.06-.073-.106-.06-.106s.192-.026.391-.06a9 9 0 0 1 .953-.106c.324-.02.609-.053.622-.073.013-.013.179-.027.364-.02.318.007.291.013-.424.199zm2.945 1.979c.331.185.629.371.662.41.04.04-.106-.026-.318-.146-.437-.238-.563-.225-.252.033.113.099.205.212.205.258s.093.166.199.271c.225.212.238.265.099.324-.053.02-.093.013-.093-.013a.5.5 0 0 0 0-.146c-.007-.086-.013-.086-.073 0-.079.132.04.265.212.232.113-.026.126-.013.066.046-.046.046-.079.126-.079.179s.02.073.046.053c.02-.026.099.007.172.066.066.066.139.113.152.099.013-.007.02.007.013.033-.013.033-.04.046-.066.033-.033-.007-.053.033-.053.086s.04.086.086.073c.04-.007.059-.007.026.007-.026.02-.026.059-.007.093.027.04.073.04.126-.007.066-.06.086-.046.073.046-.026.152.093.424.166.384.026-.02.073 0 .099.04.027.053.02.059-.026.033s-.079-.013-.079.02c0 .04.02.073.053.073.027 0 .099.086.159.199.079.139.146.185.252.165.073-.013.119 0 .099.04-.026.033-.073.046-.106.026-.093-.059-.073.053.046.218.086.126.119.139.212.066.066-.046.093-.053.066-.027-.026.033-.013.106.033.166.073.093.066.093-.033.013-.073-.053-.119-.06-.119-.02 0 .113.132.185.384.205.106.013.106.013 0 .099-.126.093-.086.199.04.126.126-.086.218-.073.218.02q.002.1-.086.02c-.046-.033-.093-.04-.113-.013-.046.073.119.291.179.238.026-.026.026 0 .007.06-.04.099.06.212.199.218.04.007.06.046.046.086a.44.44 0 0 0 .06.218c.053.106.086.119.166.053q.129-.108.079.053c-.013.033-.046.046-.086.033-.033-.007-.007.033.066.086.073.06.126.146.113.199-.007.046.013.106.053.132s.066.02.06-.013c-.02-.112.007-.159.073-.119.053.033.053.073 0 .132-.086.106.046.371.159.324.04-.013.113.033.159.113.053.079.059.119.02.093-.086-.053-.093.033-.013.159.033.046.093.073.132.046q.07-.038.033.053c-.026.073 0 .093.106.073.126-.027.132-.013.059.086-.046.059-.093.119-.093.126-.007.02-.629-.841-1.363-1.886l-2.972-4.15c-.51-.702-.655-.96-.41-.741.059.053.384.258.708.444zm24.986.026c0 .013-.046.046-.106.066-.053.02-.079.013-.06-.026.04-.066.166-.093.166-.04m-.265.132c0 .02-.258.185-.576.377l-.794.47c-.119.073-.218.113-.218.093 0-.026.834-.549 1.357-.847.225-.126.232-.132.232-.093zm-27.567 2.303 2.634 1.569c.205.119.377.245.377.278s-.496.391-1.105.788l-1.344.874-.232.159.02 1.178.02 1.172.311-.351c.609-.682 2.422-2.562 2.449-2.535.02.013-.046.159-.139.311-.093.159-.285.516-.43.794-.139.271-.41.735-.602 1.013-.198.304-.331.556-.304.616.026.079.053.086.113.026.119-.119.185-.099.139.033-.046.112-.04.112.073 0 .132-.126.371-.152.371-.033 0 .106.086.007.106-.119.013-.073-.02-.086-.126-.053-.126.04-.132.033-.053-.06.046-.06.119-.099.159-.093.046.007.079-.033.079-.086s.04-.126.086-.152c.04-.027.079-.086.079-.132s-.026-.04-.066.02c-.033.053-.066.066-.066.026a.25.25 0 0 1 .066-.132c.04-.04.086-.232.106-.424.04-.41.04-.41.179-.364.146.06.185.238.232 1.172.04.695.073.867.179.993.106.119.106.132.013.059-.099-.079-.113-.079-.073.013.033.099.106.146.258.172.073.02.232.285.198.337-.013.02.026.04.093.046.079.007.152-.066.205-.218.053-.126.113-.225.139-.225.046 0 .278-.695.364-1.092.02-.113.053-.166.073-.126.013.04-.04.338-.113.662-.225.973-.265 1.099-.351 1.066-.046-.013-.159.02-.258.073-.159.093-.179.152-.218.602-.02.278-.066.708-.093.966-.04.298-.033.496.013.549.033.046.046.099.027.126-.027.02-.013.08.02.119.046.053.007.166-.132.357-.113.146-.225.271-.258.271s-.113-.079-.179-.185c-.093-.146-5.057-6.625-6.354-8.307-.278-.351-.344-.49-.324-.629.04-.199.265-1.953.331-2.528.073-.649.053-.635.582-.271.265.179 1.489.933 2.727 1.675zm3.382-1.853c.079.093.086.119.02.066-.06-.04-.119-.066-.139-.046-.013.02-.033-.013-.033-.066 0-.126 0-.126.152.046m.622.093c0 .013-.06 0-.132-.04s-.132-.086-.132-.106c0-.013.06 0 .132.04s.132.086.132.106m23.894-.066c0 .053.093.788.199 1.622l.199 1.522-1.827 2.396-1.966 2.542c-.132.152-.232.165-.146.026.02-.04.053-.549.066-1.139.026-1.066.026-1.066-.185-1.284-.119-.119-.721-.563-1.344-.986-1.165-.788-1.324-.913-1.258-1.026.02-.033.437-.291.913-.569l4.19-2.522c.582-.371 1.079-.682 1.112-.682.026-.007.046.04.046.099zm-23.001.609c-.02.02-.073 0-.119-.046-.06-.066-.053-.073.04-.033.066.02.099.059.079.079m1.688.98c0 .013-.059 0-.132-.04s-.132-.086-.132-.106c0-.013.059 0 .132.04s.132.086.132.106m.331.199c0 .013-.06 0-.132-.04s-.132-.086-.132-.106c0-.013.06 0 .132.04s.132.086.132.106m.463.265c0 .013-.086-.013-.199-.073-.106-.06-.199-.119-.199-.139 0-.013.093.013.199.073.112.06.199.119.199.139m4.872.536c-.02.02-.126-.04-.238-.132-.179-.152-.185-.172-.073-.212a.3.3 0 0 0 .179-.152c.033-.079.06-.04.106.172.033.159.046.305.027.324zm-4.408-.271c0 .013-.086-.013-.199-.073-.106-.06-.198-.119-.198-.139 0-.013.093.013.198.073.113.059.199.119.199.139m.629.377c.106.099-.318-.132-.463-.252-.073-.059-.013-.046.132.04.146.079.298.172.331.212m.364.219c0 .013-.059 0-.132-.04s-.132-.086-.132-.106c0-.013.06 0 .132.04s.132.086.132.106m1.112.615c.086.046.146.099.126.112-.033.033-.841-.43-.841-.483 0-.02.126.04.285.132l.43.238zm.774.49c.106.099-.318-.132-.463-.252-.073-.06-.013-.046.132.04.146.079.298.172.331.212m.496.285c0 .013-.086-.013-.198-.073-.106-.059-.199-.119-.199-.139 0-.013.093.013.199.073.113.06.198.119.198.139m12.781 3.21c.457.549.437.649-.397 1.747-1.436 1.906-2.151 2.813-2.217 2.813-.02 0-.119-.119-.212-.265-.159-.238-.179-.324-.166-.748.06-1.456.033-1.9-.093-1.9-.053 0-.099-.026-.099-.06s-.079-.073-.179-.086c-.165-.02-.192-.06-.298-.543-.126-.556-.119-.781.007-.278.053.212.099.291.166.265.073-.026.086 0 .06.106-.026.086 0 .172.053.205.146.093.192.073.192-.073 0-.073.033-.132.066-.132.04 0 .066-.046.066-.106 0-.066.033-.093.106-.066.053.02.086.013.073-.013-.053-.086.079-.358.152-.311.04.026.046.079.026.119-.033.053-.026.06.026.013.066-.059.146-.582.252-1.575.02-.205.066-.377.099-.377.04 0 .053-.026.033-.053-.02-.033.007-.059.053-.059.086 0 .278.715.245.9-.013.079 0 .086.086.013s.099-.066.073.053c-.013.079 0 .139.04.139.033 0 .059.053.059.112 0 .086.02.093.079.033.106-.106.218-.099.132.007-.046.053-.046.119-.013.179.046.073.066.053.099-.086.026-.099.06-.179.079-.179.053 0 .218.185.218.252 0 .033.066.112.139.185.139.119.132.106-.02-.172a20 20 0 0 0-.45-.761 14 14 0 0 1-.496-.9 5 5 0 0 0-.344-.629 3 3 0 0 1-.179-.291c-.066-.126 2.125 2.092 2.482 2.522zm-16.951-1.655c0 .033.026.053.06.033.026-.02.113.026.179.106.073.079.086.119.033.086q-.089-.05-.059.04c.04.112.185.126.318.033q.097-.07-.013.066c-.165.192-.146.245.033.126.152-.093.152-.093.152.099 0 .106-.02.179-.053.159-.106-.066-.053.086.113.305.093.126.166.232.166.245 0 .073-.106-.06-.556-.675-.278-.384-.47-.695-.437-.695.04 0 .066.033.066.073zm-2.27.668c-.02.046-.033.013-.033-.079s.013-.126.033-.086a.35.35 0 0 1 0 .165m-.106.49c-.06.185-.06.192-.066.02-.007-.093.013-.192.04-.212.073-.079.086-.013.026.192m3.501.43c.099.185.033.152-.099-.046-.06-.099-.079-.152-.04-.132a.5.5 0 0 1 .139.179zm2.654 3.746q.129.158-.02.026c-.066-.046-.119-.099-.119-.112 0-.053.053-.02.139.086m-19.188-29.07a113 113 0 0 0 1.741 3.475c.053 0-.046-.212-.728-1.622-.371-.768-.755-1.516-.854-1.655-.106-.146-.172-.232-.159-.199zm4.534 5.97c-.08.08-.046.146.053.113.053-.026.099-.066.099-.099 0-.073-.093-.079-.152-.013zm-3.25 3.25c.066.126.165.258.218.298.06.053.053 0-.033-.139a1.1 1.1 0 0 0-.218-.298c-.06-.053-.053 0 .033.139m39.084-7.387c-.483.96-.82 1.675-.755 1.595.172-.218 1.701-3.263 1.654-3.303-.02-.02-.423.748-.9 1.708zm-.496 1.721c-.172.377-.311.708-.311.748 0 .066 2.019.953 2.178.96.145 0 .079-.119-.238-.443-.337-.331-.457-.503-.973-1.397-.172-.298-.325-.543-.331-.543s-.153.304-.325.675m-1.33.483-.794.258c-.179.059-.258.093-.166.073s.516-.033.947-.033c.768 0 .781 0 .708-.139-.059-.099-.053-.159.007-.232.113-.139-.139-.113-.702.073m-1.099.874c-.086.106-.079.112.026.026s.139-.139.086-.139a.4.4 0 0 0-.113.113zm-26.104 13.06c.066.073.132.132.152.132s-.02-.06-.086-.132-.132-.132-.152-.132.02.059.086.132m.563.821c0 .013.053.066.119.113q.149.13.02-.026c-.129-.156-.139-.139-.139-.086zm-.146 7.83c.046.02.106.013.126-.007.027-.02-.013-.04-.086-.033-.073 0-.093.02-.04.04m18.46-1.456c-.066.06-.059.218.007.218.026 0 .053-.06.053-.132 0-.152 0-.146-.06-.086m1.377.88c-.02.04.007.046.059.026.119-.046.139-.093.046-.093a.13.13 0 0 0-.106.066zm-15.68-1.727c-.027.033-.013.079.02.099.033.026.079.013.099-.02.026-.033.013-.079-.02-.099-.033-.026-.079-.013-.099.02"/><path fill="#b8af90" d="m29.85.064-2.217.232-.893.132-.794.132-.662.139-2.548.642-2.363.827c-.02.026-.079.046-.132.046-.046 0-.232.066-.404.139l-.543.238c-.774.331-2.317 1.099-2.833 1.403l-.371.205c-.04 0-.9.53-1.211.735-.152.106-.305.192-.338.192s-.113.06-.179.132-.146.132-.172.132-.205.112-.397.245l-2.045 1.542c-.02.02-.225.199-.463.397-1.734 1.463-3.29 3.111-4.871 5.163A48 48 0 0 0 4.6 15.418l-.265.463-.271.477a43 43 0 0 0-1.211 2.403l-.318.708c-.338.768-.907 2.383-1.238 3.528l-.199.695c-.066.218-.185.721-.271 1.125l-.126.563a32 32 0 0 0-.397 2.449c-.205 1.655-.232 2.098-.232 4.038 0 2.158.066 3.071.364 4.964.132.887.357 1.966.596 2.879l.417 1.522.179.563.126.364a5 5 0 0 1 .159.43c.093.304.563 1.502.748 1.919l1.542 3.078.245.43a7 7 0 0 0 .298.477c.139.205.252.397.252.417a10 10 0 0 0 .728 1.092c.02.02.146.179.265.364.311.456 1.284 1.721 1.456 1.886a26 26 0 0 1 .391.463 56 56 0 0 0 3.184 3.184l.463.39a36 36 0 0 0 1.39 1.099l1.953 1.35c.02 0 .218.119.43.265l.424.264c.013 0 .285.145.602.331a49 49 0 0 0 2.945 1.476c1.158.509 3.389 1.277 4.587 1.575l.51.126 2.634.529 1.006.133 1.185.133c.741.086 4.607.086 5.533-.007 1.364-.126 3.481-.457 4.203-.656l.827-.198.761-.199.662-.198 1.324-.431.662-.245.94-.377c.172-.08.331-.139.351-.139.046 0 1.026-.463 1.767-.834l1.9-1.032.444-.252c.04 0 1.589-1.04 1.88-1.258l.629-.47.43-.325a4 4 0 0 1 .278-.212l.331-.264a20 20 0 0 1 .517-.45c1.661-1.404 3.759-3.64 4.884-5.229l1.668-2.482.278-.483c.788-1.383 1.582-3.005 2.032-4.183l.271-.695a24 24 0 0 0 .662-1.953l.132-.463c.059-.185.166-.602.258-.98l.126-.51c.04-.146.106-.444.145-.662l.133-.662c.033-.146.093-.503.133-.794l.106-.728c.238-1.456.337-4.183.231-6.156a28 28 0 0 0-.397-3.673c-.265-1.694-1.205-5.057-1.668-5.97-.033-.066-.059-.146-.059-.185s-.059-.199-.133-.364l-.252-.582c-.569-1.31-1.251-2.647-1.886-3.687l-.391-.649a27 27 0 0 0-1.013-1.522l-.582-.774c-1.509-2.019-3.508-4.064-5.639-5.765l-.992-.755-.364-.265a19 19 0 0 0-1.489-.993c-.026 0-.166-.086-.318-.192-.801-.543-4.037-2.191-4.309-2.191a.25.25 0 0 1-.146-.06c-.126-.113-2.416-.933-3.17-1.138L39.348.891a34 34 0 0 0-3.773-.669c-2.422-.258-3.971-.304-5.725-.159zm2.032 27.978-.046 11.689c-.013.02-.172-.059-.344-.172L27.6 37.262l-4.368-2.581-1.271-.721c-.258-.126-.49-.258-.503-.291-.033-.053.695-1.357 1.178-2.098l1.555-2.628c0-.026-.457-.582-1.013-1.231l-2.363-2.839c0-.033-.179-.232-.404-.45a4 4 0 0 1-.503-.596c-.093-.179-.073-.172.185.086l.88.827 1.489 1.403 1.264 1.152c0-.02-1.271-1.284-2.826-2.813l-2.257-2.131c.311.357.589.728.616.827.02.099.258.781.523 1.509.761 2.092 1.178 3.442 1.152 3.76-.02.245-.04.278-.172.265-.099-.013-.139.007-.106.06s0 .06-.093.04c-.079-.026-.146-.013-.146.026s-.046.053-.099.026c-.066-.026-.113.04-.166.225-.04.146-.079.265-.093.265-.046 0-2.853-6.751-3.72-8.949-.371-.933-.735-1.641-.847-1.641-.033 0-.119-.046-.185-.113-.218-.192-.132.04.159.43.357.477.391.536.655 1.244l.258.655a1 1 0 0 1 .093.245c.02.099.132.371.238.602l.199.463a1 1 0 0 0 .079.225c.04.099.079.212.086.252.013.033.225.688.477 1.456l.741 2.442c.073.39.04.503-.146.503-.073 0-.119.02-.093.04.02.02.007.113-.026.205-.053.139-.046.159.033.132q.099-.04.06.06c-.02.046-.06.093-.099.093-.033 0-.04.033-.013.079q.048.07-.053.033c-.066-.02-.099 0-.093.073 0 .059-.033.106-.073.093-.046-.007-.093.013-.093.053l-.026.132-.026.132c0 .033-.033.066-.073.066-.033 0-.04-.046-.02-.113.026-.073.02-.093-.04-.06-.04.026-.132.013-.192-.04-.099-.073-.099-.073-.04.013a1 1 0 0 1 .119.291c.04.165.033.185-.053.112-.073-.06-.132-.066-.232-.007-.126.066-.165.046-.152-.073.007-.02-.06-.026-.139-.02s-.165.02-.192.02c-.06.007.139.377.755 1.39l.437.768c-.026.026-3.157-1.238-4.018-1.615l-.655-.245c-.013.02.093.185.232.384l1.661 2.456c-.046-.033-.563-.45-1.145-.92l-1.906-1.542c-.483-.397-.854-.741-.874-.821a16 16 0 0 1-.093-.741l-.9-7.519-.165-1.476c0-.106.232-.113 2.833-.093l2.826.02 5.222 3.66 5.275 3.607a460 460 0 0 0 2.787-4.587l2.965-4.832c.02 0 .026 5.249.013 11.662zm16.375-9.465c-.04-.059.523-.079 2.7-.079h2.754v.212a9 9 0 0 1-.066.715c-.04.271-.185 1.496-.331 2.714l-.496 4.137-.231 2.032c0 .113-.285.364-2.152 1.873l-1.41 1.152c-.463.391-.483.384-.192-.026l1.734-2.535c-.006-.007-.37.146-.801.344-1.39.629-3.865 1.641-3.918 1.595-.007-.007.126-.252.305-.536.966-1.562 1.324-2.158 1.198-2.012-.357.43-.463.53-.523.496-.033-.02-.139.013-.232.073-.126.079-.159.086-.132.02.04-.113-.02-.198-.212-.311-.126-.066-.152-.066-.152 0 0 .053-.026.046-.066-.02a.44.44 0 0 1-.04-.232c.033-.179-.02-.245-.132-.159-.046.046-.126.066-.172.046-.053-.02-.033-.04.046-.046.112-.013.106-.02-.033-.06-.113-.033-.159-.086-.146-.166q.021-.128-.066-.066c-.073.04-.073.033 0-.053.046-.053.066-.152.04-.212-.053-.139-.165-.066-.119.079.026.066-.026.04-.132-.073-.119-.132-.152-.218-.113-.298a13 13 0 0 0 .252-.708l.444-1.291c.139-.384.265-.768.285-.861a.55.55 0 0 1 .093-.238c.033-.04.04-.093.013-.113-.02-.026-.013-.046.026-.046.033 0 .066-.04.073-.086.007-.066.046-.278.073-.364.007-.007 0-.026-.007-.033-.013-.013.026-.079.079-.146.053-.073.066-.106.02-.079-.04.026-.013-.079.06-.232s.139-.311.146-.357.046-.119.093-.172c.04-.053.06-.119.04-.139-.026-.027.046-.232.152-.457a7 7 0 0 0 .324-.814c.066-.218.199-.516.285-.662.093-.146.159-.305.152-.344-.013-.046.066-.258.172-.477.106-.212.185-.45.179-.523-.007-.079.013-.126.04-.106.026.013.073-.007.099-.046q.05-.078-.04-.026c-.066.04-.079.026-.046-.053.02-.066.02-.112-.013-.112-.066 0-.457.814-.801 1.688-.152.397-.788 1.946-1.403 3.442l-1.754 4.236c-.615 1.496-.801 1.867-.728 1.456.046-.245-.013-.576-.093-.523-.033.02-.06-.007-.06-.059 0-.073-.046-.086-.146-.06-.112.026-.132.013-.099-.073.026-.066.013-.106-.04-.093-.046.007-.073-.033-.06-.086q.02-.11-.079.026c-.126.159-.238.079-.212-.146s.814-2.555 1.436-4.243c.47-1.297.609-1.582 1-2.039.165-.198.139-.179-.132.079-.192.179-.404.437-.47.563s-.159.225-.199.218c-.04-.013-.106.046-.146.132-.166.311-1.35 1.734-1.443 1.734-.033 0-.159.099-.278.225-.126.126-.185.199-.132.172q.09-.05.06.04c-.02.053-.093.086-.159.073-.099-.013-.106-.007-.033.046.079.053.046.119-.166.377l-.582.715c-.629.768-1.9 2.224-1.953 2.224-.027 0-.093-.079-.139-.185a5 5 0 0 0-.232-.377c-.318-.45-1.43-2.356-1.41-2.422.013-.033 2.356-1.701 5.216-3.7 4.263-2.978 5.209-3.62 5.288-3.554.079.059.086.059.046-.007zm-29.791 14.25 1.88.576c.53.159.966.318.98.351.007.04-.198.119-.463.185-1.946.496-2.37.589-2.76.589-.238 0-.45.013-.477.026-.04.026.748 1.244 1.019 1.582.033.033.119.165.205.278.94 1.363 1.105 1.622.986 1.516-.079-.066-.185-.106-.238-.086-.126.046-.205-.059-.093-.112.046-.02.02-.02-.066 0s-.218-.007-.298-.053c-.245-.159-.377-.192-.331-.086.02.053.059.086.086.066.033-.02.099.013.152.066.059.053.132.099.172.099s.073.033.073.073c0 .033.026.053.059.033s.079.007.099.066c.04.106-.146.013-1.972-1.026l-1.099-.616c-.033-.013.185-2.019.278-2.475.02-.132.225-.192 1.622-.483.483-.099.9-.205.927-.232.033-.026-.152-.033-.41-.007-.721.066-.748.073-.841.146-.046.04-.225.086-.397.099-.305.033-.305.033-1.158-.655l-.94-.781c-.086-.079 1.019.232 3.005.86zm29.613-.741a31 31 0 0 1-.953.794c-.662.543-.735.582-.953.549a2.4 2.4 0 0 1-.636-.172c-.185-.08-.894-.119-.894-.053 0 .026.007.053.02.053a200 200 0 0 1 2.012.41c.397.086.357-.02.516 1.377a24 24 0 0 0 .132 1.072c.026.166-.02.212-.748.635-1.456.854-2.257 1.284-2.33 1.238-.04-.026-.06-.013-.053.026.013.04-.172.179-.404.311-.377.218-.43.218-.258-.007l.622-.927c.318-.477.655-.966.755-1.092.199-.252 1.191-1.701 1.191-1.741 0-.013-.172-.007-.384.007-.397.026-1.383-.179-2.78-.582-.741-.218-.781-.172.549-.563a104 104 0 0 0 1.919-.596l1.886-.596c.457-.139.854-.271.894-.304.033-.033.073-.06.099-.06.02 0-.073.099-.205.218zm-26.283 3.779c.132.086.933.556 1.767 1.046l3.541 2.078 3.376 1.979 1.357.794.033 4.256-.007 4.249c-.026 0-.126-.126-.225-.278-.185-.285-5.037-7.096-8.3-11.656l-1.833-2.628c.026 0 .152.073.291.159zm23.067.218a.35.35 0 0 1-.165 0c-.046-.02-.013-.033.079-.033s.126.013.086.033m-25.072 2.76 2.767 1.688c.026.027-.391.344-.927.708-.536.357-.986.675-.999.702-.013.033-.066.053-.119.053s-.093.059-.093.126c0 .073-.026.152-.066.172-.04.026-.046-.007-.02-.079.02-.066.02-.099-.007-.073s-.06.132-.066.245c-.013.152.007.185.073.132.112-.099.238-.007.199.146-.02.073-.013.112.02.093.026-.013.066.06.093.172.02.113.066.185.099.159.04-.02.093.02.132.086.053.099.026.185-.106.384-.093.139.576-.476 1.476-1.383.907-.9 1.681-1.635 1.728-1.635.112 0 .146.146.265 1.165.093.794.126.94.199.874.079-.059.086-.046.06.086l-.238 1.085-.404 1.721c-.265 1.066-.602 2.542-.622 2.76-.02.192-.357.715-.463.715-.033 0-.41-.45-.827-1l-5.593-7.287-.49-.636.192-1.549c.265-2.078.192-1.893.649-1.549.205.165 1.595 1.026 3.091 1.919zm27.634-2.045c0 .02.093.748.205 1.628l.199 1.589-.708.94-4.977 6.48c-.635.834-1.185 1.509-1.211 1.509-.093 0-.457-.536-.457-.675 0-.113-.285-1.463-.496-2.337-.278-1.138-.761-3.303-.761-3.389 0-.053.026-.079.053-.059.033.02.099-.179.146-.444a19 19 0 0 1 .146-.741c.033-.146.06-.357.053-.47 0-.146.033-.225.112-.258.093-.033.463.304 1.741 1.602l1.734 1.734c.106.079.106.066.053-.119-.033-.126-.033-.205.007-.205q.051-.002.053-.053c-.026-.139.013-.278.079-.278.033 0 .046.033.02.079s-.02.053.026.026.066-.113.053-.192c-.026-.159.126-.377.258-.377.066 0 .086.258.093.999 0 .556.02 1.019.04 1.039s.033-.443.033-1.019c0-1.264.139-1.052-1.423-2.138l-1.218-.86c-.106-.073-.146-.152-.119-.218.02-.06.404-.324.854-.589l4.653-2.8c.622-.41.761-.483.761-.404zm-27.164 1.694c.02.04-.099-.007-.278-.106-.457-.265-.523-.344-.112-.139.185.093.364.205.39.245m4.342 3.813c-.02.106-.046.146-.066.099-.027-.086.026-.278.073-.278.013 0 .013.08-.007.179m7.532 7.658a.4.4 0 0 1-.113.112q-.157.131-.026-.026c.131-.157.139-.139.139-.086m19.717-22.782-.734 1.079-.133.199.179-.199c.198-.225 1.377-1.953 1.33-1.953-.02 0-.304.397-.642.874M19.326 37.427c.066.073.152.132.185.132.04 0 .007-.059-.073-.132s-.159-.132-.185-.132.007.059.073.132m25.688-1.019c-.033.093-.026.099.059.026.113-.093.126-.132.04-.132-.033 0-.079.046-.099.106m-.291.596c-.192.132-.298.338-.212.391.04.026.066.02.06-.013-.026-.146.013-.212.106-.179.073.033.086.013.053-.079q-.041-.11.026-.073c.04.026.086 0 .112-.053.046-.126.04-.126-.146.007z"/><path fill="#a69d6c" d="M30.28.037c-1.827.099-4.15.437-5.891.86-1.496.371-3.72 1.092-4.732 1.542l-.563.238-1.205.576A31.75 31.75 0 0 0 5.532 13.997C3.44 17.094 1.872 20.582.991 24.123c-.357 1.45-.582 2.773-.841 4.964-.106.913-.106 4.574 0 5.527.278 2.502.556 3.998 1.079 5.858A32.2 32.2 0 0 0 8.04 52.949c.496.563 2.37 2.429 2.859 2.846l.543.464c.615.556 2.383 1.853 3.382 2.475a32.3 32.3 0 0 0 7.016 3.33c3.323 1.098 6.348 1.575 10.061 1.575 2.085 0 3.369-.086 4.865-.331l.827-.139c.258-.039.715-.133 1.026-.199 2.833-.648 4.891-1.376 7.38-2.608 1.721-.853 3.356-1.82 4.401-2.614.126-.099.41-.305.629-.47a10 10 0 0 0 .43-.325 4 4 0 0 1 .278-.212 7 7 0 0 0 .331-.264 20 20 0 0 1 .517-.45c1.429-1.205 2.965-2.794 4.275-4.435.47-.589.629-.808 1.423-1.979a26 26 0 0 0 1.496-2.422c.55-.98 1.556-3.151 1.827-3.938l.271-.748c.748-1.966 1.397-4.878 1.708-7.625.106-.973.106-5.123-.006-6.089-.245-2.178-.669-4.362-1.185-6.056-.291-.94-.761-2.29-.828-2.363-.026-.02-.046-.079-.046-.132 0-.046-.059-.218-.133-.384l-.252-.582c-.569-1.31-1.251-2.648-1.886-3.687l-.391-.649a27 27 0 0 0-1.013-1.522 65 65 0 0 1-.582-.774A33 33 0 0 0 51.785 7c-1.642-1.324-3.932-2.787-5.752-3.673-.986-.477-1.8-.847-1.88-.847a.25.25 0 0 1-.146-.06c-.126-.113-2.032-.788-3.369-1.191-.496-.152-2.257-.563-2.879-.669l-.728-.132c-.285-.06-.675-.106-2.019-.265-1.569-.185-2.998-.218-4.733-.126zm3.462 19.347 2.747 4.554c.609 1.013 1.132 1.84 1.158 1.84.033 0 2.396-1.641 5.255-3.64l5.203-3.64h5.679l-.04.212c-.033.192-.661 5.394-.933 7.764l-.179 1.43-.079.576-1.781 1.443-2.582 2.105-1.344 1.086c-.305.238-.536.45-.516.463.013.02.185.066.377.112.351.073.351.073.397.503l.152 1.278c.059.463.099.854.086.867a121 121 0 0 1-3.938 2.191c-.02-.013.331-.556.768-1.211.715-1.059.781-1.178.649-1.198-.543-.073-2.806-.629-2.886-.715-.02-.02.119-.026.311-.02.357.026.391.007.278-.212-.06-.099-.046-.139.033-.165.093-.04.086-.059-.04-.179-.132-.119-.132-.139-.033-.212.059-.046.106-.166.106-.265 0-.185 0-.185.443-.139.245.026.43.026.404.007-.053-.053-.9-.232-1.099-.232-.126 0-.139-.02-.086-.119.04-.073.39-.212 1.046-.404a38 38 0 0 0 1.741-.543c1.165-.39 2.859-.92 2.939-.92.166 0 .556-.338.807-.702a46 46 0 0 1 .649-.94c.417-.616.556-.894.271-.563-.172.199-.364.311-.265.152.02-.04.013-.066-.013-.066-.079 0-.218.146-.218.225 0 .04.026.033.06-.013.046-.073.06-.073.093.007.026.079 0 .093-.106.073-.079-.02-.192-.04-.238-.053a.17.17 0 0 1-.126-.106q-.028-.081.053-.033.097.061.046-.046a.19.19 0 0 1 .04-.179c.053-.053.053-.073-.007-.073-.04 0-.06-.046-.04-.099q.041-.1-.682.205a71 71 0 0 1-2.284.913c-.165.059-.357.192-.417.285s-.304.252-.536.357c-.496.225-.609.245-.304.053.205-.132.278-.258.146-.258-.04 0-.06-.04-.053-.086.013-.04-.013-.073-.06-.066-.059.013-.073-.079-.026-.232.02-.046 0-.079-.033-.073-.026 0-.079-.066-.119-.146a.8.8 0 0 0-.285-.252c-.324-.159-.351-.338-.166-1.099.225-.94.291-1.138 1.072-3.309a13 13 0 0 1 .232-.596 18 18 0 0 0 .351-.86l.576-1.423c.364-.893.404-.999.298-.841-.04.06-.324.728-.635 1.489l-.953 2.297-1.291 3.111c-.496 1.198-.98 2.317-1.079 2.482l-.172.298-.053-.232a1 1 0 0 1-.02-.318c.02-.046.007-.066-.026-.046-.079.04-.404-.099-.404-.179 0-.026-.046-.053-.099-.053s-.099-.033-.099-.073c0-.033-.026-.053-.06-.026-.033.02-.079.007-.106-.033-.06-.093-.39.252-.49.51-.079.199-.066.238.218.708.166.278.305.516.305.536s.132.238.291.49l.291.457-.205.152a7 7 0 0 1-.642.397c-.483.265-.556.305-2.879 1.681l-6.725 3.918c-.066.02-.205-.026-.304-.099s-.695-.43-1.311-.788l-6.553-3.859-1.635-.953c-.437-.245-.45-.245-.728-.152a10 10 0 0 1-.695.185c-.225.046-.397.113-.377.139s.113.04.212.02c.093-.013.212.007.258.046s.086.046.086.026c0-.026.04-.013.079.026.046.033.159.126.252.192.159.119.159.132.046.252-.126.146-.146.285-.04.285.033 0 .046.026.026.066-.02.033-.013.066.027.066s.053.046.033.099c-.033.073.013.086.218.053.43-.066.165.079-.477.258-.324.093-.96.252-1.403.357-.45.099-.814.212-.814.238 0 .033.205.351.45.702.695.986 1.145 1.668 1.099 1.668-.04 0-1.324-.708-2.893-1.602-.503-.285-.94-.516-.973-.516s-.073-.026-.093-.053c-.04-.066.258-2.489.318-2.588.02-.033.152-.079.291-.106.132-.02.285-.06.331-.093.053-.033-.252-.318-.887-.841l-1.211-.986-2.098-1.701-1.926-1.595c-.033-.04-.238-1.522-.443-3.29l-.576-4.766-.192-1.741v-.179h5.613l3.329 2.33 5.255 3.673 1.919 1.337.199-.318 2.879-4.759c2.681-4.448 2.681-4.448 2.813-4.269.073.099.874 1.403 1.774 2.892zM23.396 36.785l7.89 4.633.649.371.807-.483 5.447-3.217 3.435-2.025c.318-.199.609-.357.642-.357s-.212.364-.536.807l-1.867 2.601-2.164 3.038-1.158 1.622-4.071 5.719c-.311.424-.582.768-.609.761-.026-.013-.357-.45-.735-.979l-5.288-7.413-1.205-1.688-.94-1.324-1.436-2.005c-.781-1.072-.92-1.317-.629-1.119.079.06.874.536 1.767 1.059zm-4.646 1.423 2.787 1.681c.563.337 1.033.642 1.046.682.007.033-.086.132-.212.218-.205.132-.225.165-.159.285.04.079.112.119.165.099.06-.02.079-.007.06.026-.02.04 0 .066.053.066.205 0 .159.252-.106.602-.205.271-.06.152.602-.49.503-.49.92-.841.999-.841.132 0 .271.285.271.569 0 .086.033.159.066.159.04 0 .066-.046.066-.099 0-.119.205-.132.318-.02q.16.157-.027.88l-1.158 4.991c-.139.629-.245 1.172-.225 1.198.04.066-.503.801-.563.761a8 8 0 0 1-.437-.543l-2.462-3.217-3.409-4.448-.589-.761.172-1.344.218-1.635c.02-.166.046-.318.066-.344.013-.026.172.066.357.205.179.132 1.125.728 2.098 1.317zm28.872.079.199 1.655c0 .066-.205.377-.45.702l-2.204 2.873-2.925 3.819-1.264 1.602c-.066.06-.126.013-.265-.185-.132-.192-.245-.549-.437-1.403l-.867-3.766c-.609-2.614-.576-2.337-.318-2.575.126-.112.252-.205.285-.205s.132-.079.218-.172l.166-.179.993.986c.549.543.96.913.913.827-.106-.199-.139-.834-.04-.735s.172.08.172-.04c0-.053.033-.079.066-.06.04.02.066.013.066-.026 0-.033-.172-.192-.377-.351-.212-.159-.39-.351-.404-.424-.013-.099.166-.238.927-.682 1.953-1.138 3.819-2.264 4.554-2.747.417-.271.768-.483.781-.477.007.013.106.715.212 1.562zm.139-18.857c-.179.424-.463 1.211-.444 1.231.013.013.146-.278.298-.649s.265-.688.245-.708c-.02-.013-.066.04-.099.126m-.755 1.926c-.139.331-.238.609-.225.622s.132-.245.271-.576c.132-.331.232-.616.218-.629s-.132.245-.265.582zm-27.812 1.575c.066.073.132.132.152.132s-.02-.06-.086-.132-.132-.132-.152-.132.02.06.086.132m1.059 1.794c-.026.073-.086.119-.132.106-.06-.026-.079.033-.066.205.027.324.172.741.523 1.45.827 1.681 1.383 2.932 1.701 3.826.192.543.371 1.019.39 1.046.046.053.185-.159 1.085-1.661.45-.755.45-.755.318-.893l-1.172-1.37c-1.41-1.642-2.489-2.846-2.555-2.846-.026 0-.073.06-.093.139zm22.829.079c-.344.364-1.403 1.569-2.337 2.661l-1.145 1.33c-.119.132-.112.146.238.695.192.305.523.847.728 1.198s.397.655.424.675c.033.02.199-.357.371-.841l.397-1.072c.046-.113.119-.271.159-.364s.404-.867.807-1.721c.887-1.873 1.112-2.442.98-2.522a.45.45 0 0 0-.218-.06c-.079 0-.166-.026-.199-.06-.04-.04-.119-.013-.205.079zm-25.046-.066c0 .026.093.271.205.556a94 94 0 0 1 .702 1.873c.397 1.079.516 1.496.589 2.039.066.543.073.715.007.821-.106.185-.291.377-.331.344-.053-.053-.199.172-.245.39-.027.126-.079.205-.132.192-.073-.02-.073 0 0 .079.066.086.066.106-.026.106-.08 0-.046.06.106.199l.218.205-.417-.205a3 3 0 0 1-.635-.417c-.159-.159-.569-.351-1.635-.768l-1.628-.649c-.119-.046-.218-.073-.218-.053s.099.093.218.166c.112.073.172.132.126.132q-.087.002-.046.132c.027.073.013.132-.027.132s-.073.033-.073.073c0 .033.04.046.086.02q.099-.061 0 .046c-.066.066-.106.066-.166.007-.106-.106-.205-.099-.165.007.027.066-.02.079-.172.06-.205-.033-.205-.033-.053.159a22 22 0 0 1 .516.755c.199.305.41.596.47.642.066.046.324.146.576.225l2.879.893 1.556.483c.476.139.907.278.96.298.073.026.126-.013.185-.139.106-.245.397-.761.808-1.443l.338-.556-.159-.252a3 3 0 0 1-.199-.371c-.073-.199-.238-.205-.384-.02-.073.093-.192.172-.258.172s-.146.06-.166.132-.073.132-.106.132c-.04 0-.04.053.007.132.04.073.053.139.033.139-.02.007-.06.013-.093.02-.126.013-.152.106-.073.205.046.06.073.113.053.132-.106.106-1.152-2.237-2.747-6.156-.41-1.006-.483-1.171-.483-1.072zm1.171 5.838c0 .053-.026.079-.06.06a.14.14 0 0 1-.053-.099c0-.033.026-.06.053-.06.033 0 .06.046.06.099m18.42-4.6c.04.073.086.132.106.132.013 0 0-.06-.04-.132s-.086-.132-.106-.132c-.013 0 0 .06.04.132m.232.39c.053.113.126.218.165.238.033.02.007-.066-.073-.192-.165-.285-.238-.318-.093-.046zm.337.556c.02.066.06.099.079.079s0-.073-.046-.119c-.066-.06-.073-.053-.033.04m12.007 2.171c0 .033.033.046.066.026.04-.02.066-.053.066-.073 0-.013-.026-.026-.066-.026-.033 0-.066.033-.066.073m-.225.371c-.04.093-.033.099.033.04.047-.046.066-.099.047-.119s-.06.013-.08.079"/><path fill="#918545" d="m29.717.07-.894.093c-5.738.582-10.815 2.489-15.488 5.818-.748.536-1.833 1.39-2.317 1.82-2.27 2.045-3.773 3.72-5.282 5.897C2.89 17.795 1.03 22.561.368 27.432.116 29.272.07 29.921.07 31.867c0 2.164.093 3.309.43 5.295a31.86 31.86 0 0 0 7.142 15.323c.794.933 2.667 2.813 3.607 3.607 4.845 4.117 10.55 6.586 17.044 7.386 1.171.139 4.772.206 6.05.099 6.44-.517 12.311-2.833 17.401-6.864.847-.669 2.535-2.184 2.919-2.614l.709-.774c3.124-3.356 5.712-7.923 7.016-12.384.589-2.019.927-3.753 1.192-6.096.105-.933.105-4.977 0-5.957-.298-2.806-.775-5.004-1.562-7.281-.41-1.198-.556-1.575-.735-1.973a5 5 0 0 1-.159-.377c0-.159-1.251-2.634-1.787-3.541-1.483-2.495-2.886-4.282-4.991-6.387C52.407 7.396 50.64 6 48.382 4.63c-.999-.609-3.309-1.8-4.037-2.085a31 31 0 0 1-.801-.318c-.622-.265-2.078-.755-2.939-.993C38.441.625 36.865.34 34.251.096 33.668.036 30.16.023 29.717.07m2.979 17.553 2.846 4.726 2.105 3.428A986 986 0 0 0 47.86 18.65c.205-.152.205-.152 3.065-.152h2.866l-.039.245a157 157 0 0 0-.272 2.204l-.562 4.666-.331 2.787c0 .04-.583.543-1.298 1.125l-3.66 2.972-1.039.827c-.119.093-.212.192-.205.232.013.033.172.093.351.132.324.066.324.066.371.43.199 1.608.258 2.204.212 2.244-.112.099-3.872 2.191-3.938 2.191-.06 0 .761-1.271 1.284-1.979.265-.357.258-.463-.02-.47-.053 0-.642-.132-1.31-.298-1.463-.357-2.098-.609-1.794-.708.033-.013.073-.066.086-.119a.8.8 0 0 1 .086-.232 12 12 0 0 0 .192-.483c.066-.192.179-.384.258-.43.073-.046.463-.185.86-.305 1.304-.39 3.382-1.052 4.177-1.337.291-.106.582-.192.642-.192s.113-.026.113-.06-.132-.033-.304 0c-.185.033-.351.033-.424-.007-.06-.033-.139-.04-.172-.013s-.02-.007.026-.066c.073-.093.073-.146-.013-.298-.053-.099-.099-.159-.106-.126 0 .033-.046.02-.099-.026s-.079-.106-.059-.139.013-.06-.02-.053c-.146.027-.166-.02-.046-.113.099-.086.106-.099.013-.066q-.111.03-.132-.079c-.04-.199.026-.41.132-.41.053 0 .086-.02.06-.04-.02-.027-.265.04-.543.139-.344.126-.543.245-.629.364-.093.132-.417.311-1.138.629l-1.092.477c-.073.033-.08-.007-.086-.444 0-.093.073-.424.166-.741a8 8 0 0 0 .199-.827c.04-.298.066-.417.119-.549.02-.053.046-.159.066-.232s.159-.457.311-.854c.523-1.357.218-.761-.556 1.105-.708 1.695-1.006 2.284-1.641 3.23-.06.086-.033.185.146.457.225.344.225.344.06.477a3 3 0 0 1-.523.298 7 7 0 0 0-.695.384c-.179.119-2.204 1.317-4.501 2.661l-4.408 2.595c-.232.139-.232.139-.563-.066-.179-.119-1.946-1.165-3.932-2.33l-4.335-2.562c-.854-.523-1.502-.86-1.668-.86-.099 0-.099.013.02.093.079.053.192.245.252.417.225.622.324.814.43.814.278.007-.252.172-1.8.563-1.006.252-1.661.45-1.648.49.007.046.318.516.695 1.052l.794 1.158c.146.232.391.351-2.098-1.032l-1.906-1.066.046-.331.159-1.231c.06-.496.132-.933.159-.973.026-.046.159-.099.298-.126.132-.026.278-.06.324-.086.066-.033-2.846-2.456-5.381-4.474-.417-.331-.768-.655-.788-.728s-.285-2.25-.596-4.832l-.596-4.885-.033-.179h5.679l.318.218c.179.119 2.509 1.747 5.183 3.614l4.958 3.409c.059.007.397-.483.92-1.35l4.607-7.632c.139-.245.278-.443.298-.443.026 0 .404.589.841 1.311zm-11.027 18.11c.06.046.536.344 1.066.649l3.409 2.005 5.725 3.323c.079.02.576-.238 1.337-.695l3.064-1.814 3.938-2.323 2.105-1.205c.013.013-.046.126-.132.245l-2.787 3.872c-.318.443-.576.827-.576.854s-.06.112-.126.185c-.139.159-2.052 2.82-4.375 6.096-1.807 2.548-2.383 3.343-2.456 3.343-.026 0-.404-.496-.834-1.112l-4.018-5.619a64 64 0 0 1-1.125-1.575l-1.211-1.721c-.113-.146-.596-.834-1.085-1.522l-1.503-2.092c-.563-.775-.682-.986-.563-.986.02 0 .093.04.146.093zm-5.004 1.152c.357.265 2.998 1.886 4.713 2.892.549.318 1.066.649 1.165.735.132.126.185.139.252.073s.079-.059.06.02c-.013.079.053.099.298.099.298 0 .384.046.245.132-.033.02-.066.073-.066.106 0 .04.126-.053.285-.199.152-.146.304-.271.338-.271s.172.106.318.232a1.3 1.3 0 0 0 .45.278c.113.02.199.066.199.099s-.027.046-.06.026c-.033-.026-.046.013-.026.086.013.066-.046.443-.146.841l-1.066 4.627-.258 1.119-.093.391.311-.358c.576-.662.755-.821.331-.298a27 27 0 0 0-.768 1.006c-.192.271-.377.477-.41.457-.053-.033-.907-1.145-5.236-6.784l-1.582-2.092c-.066-.113-.053-.351.093-1.456l.212-1.668c.027-.185.053-.344.073-.344.013 0 .179.113.371.252zm30.791.026c.066.384.364 2.846.364 3.005 0 .093-.569.894-1.589 2.224l-3.415 4.454-1.873 2.403c-.099.033-.477-.589-.53-.894a345 345 0 0 0-1.39-6.123c-.205-.847-.238-1.032-.166-.96.027.02.232-.093.463-.252.232-.166.444-.298.47-.298s.212.159.404.344c.218.212.324.291.278.192-.106-.205-.013-.265.377-.218q.307.03.258-.04c-.093-.152.08-.298.973-.814 1.992-1.152 3.813-2.257 4.514-2.727a15 15 0 0 1 .774-.503c.026 0 .066.093.086.205zm-4.203 1.734a.4.4 0 0 1-.112.112q-.157.131-.026-.026c.131-.157.139-.139.139-.086zm-19.89 1.602c-.172.132-.364.238-.364.199 0-.033.417-.304.463-.304.02.007-.026.053-.099.106zm15.832.179a.09.09 0 0 1-.093.093c-.06 0-.066-.026-.013-.093.04-.046.079-.086.093-.086.007 0 .013.04.013.086m-14.674 6.361a.4.4 0 0 1-.113.112q-.158.131-.026-.026c.132-.157.139-.139.139-.086m16.666-19.804c-1.476 1.688-1.642 1.886-1.642 1.939 0 .026.159.305.357.622l.708 1.178c.192.338.371.616.397.616.033 0 .543-1.317.854-2.217a16 16 0 0 1 .516-1.132c.43-.867.755-1.622.715-1.668-.013-.013-.165.258-.331.602-.165.351-.364.675-.437.728-.073.046-.119.106-.106.119s-.06.093-.152.166c-.152.126-.192.132-.304.053-.119-.086-.119-.093.033-.225.086-.073.119-.132.079-.132-.046 0-.073-.04-.06-.086.007-.04-.04-.073-.099-.06-.093.013-.119-.027-.119-.179 0-.165.02-.185.152-.159.112.027.126.02.046-.04-.106-.073-.159-.404-.066-.404.033 0 .046-.06.033-.132s0-.146.033-.165c.079-.046.351-.43.305-.43-.013 0-.43.457-.913 1.006zm.543 2.131a.4.4 0 0 1-.113.113q-.157.13-.026-.027c.131-.157.139-.139.139-.086m-19.81-2.608c.02.079 0 .132-.046.132-.04 0-.066.04-.046.079a.37.37 0 0 1-.033.212c-.046.086-.04.139.013.172s.066.099.04.172c-.033.093-.059.099-.099.033-.04-.06-.066-.046-.093.06q-.04.141-.119.093c-.053-.026-.066-.02-.033.033.026.04.073.06.106.04.026-.02.066.007.086.06.026.066-.013.086-.119.079-.086 0-.152-.033-.146-.073.007-.033-.026-.059-.079-.066-.053 0-.106-.046-.119-.099-.026-.079-.02-.079.033-.007.04.053.079.06.106.02.046-.073-.212-.185-.278-.119-.02.026.119.377.311.788.192.404.556 1.304.808 1.999l.483 1.271a11 11 0 0 0 .702-1.125c0-.013.179-.318.39-.675l.397-.642-1.092-1.251-1.145-1.284c-.033-.02-.046.026-.026.099zm-2.171 2.555.258.788a7.6 7.6 0 0 1 .318 1.456c.04.371.053.45.113.543.033.053.02.086-.033.086-.066 0-.066.013.007.06.046.033.06.073.033.086-.119.073-2.138-.88-2.356-1.105-.179-.185-.933-.563-1.119-.563-.026 0-.026.093.007.205.059.212.026.391-.073.391-.033 0-.059.06-.059.132s-.046.132-.099.132c-.06 0-.093.053-.079.146.007.079-.026.152-.066.159-.046.007-.119.013-.159.02-.04 0-.053.053-.033.106q.032.1-.046.093c-.119-.026-.51.073-.51.126 0 .026.41.172.913.331l1.933.609c2.813.887 2.687.86 2.767.668.04-.093.166-.337.271-.536.212-.377.271-.582.113-.364-.073.106-.113.112-.192.046-.238-.199-.894-1.43-1.383-2.608-.569-1.357-.715-1.648-.523-1.006zm28.593 2.654q-.13.158.027.026c.06-.046.112-.099.112-.113 0-.053-.053-.02-.139.086z"/><path fill="#7b6f2f" d="m29.717.07-.894.093c-3.521.364-6.685 1.191-9.783 2.555C10.853 6.339 4.545 13.249 1.713 21.714c-2.323 6.95-2.204 14.422.344 21.24C6.187 54.014 16.102 61.91 27.732 63.4c2.542.324 5.752.331 8.274.007a31.8 31.8 0 0 0 14.965-6.096c2.383-1.794 4.773-4.196 6.513-6.546a31.86 31.86 0 0 0 5.885-14.297c.47-3.19.43-6.672-.099-9.895-.51-3.091-1.443-5.95-2.906-8.902A31.7 31.7 0 0 0 45.968 3.315c-3.726-1.84-7.221-2.8-11.682-3.217-.609-.06-4.11-.073-4.567-.026zm2.919 17.447 2.793 4.62 2.145 3.534c.086.113.43-.119 5.302-3.528l5.209-3.647h2.846l2.846.027c0 .013-.106.88-.231 1.933l-.397 3.303-.232 1.919-.205 1.655c-.073.616-.166 1.158-.212 1.198s-.973.801-2.065 1.688l-2.945 2.396-1.052.841c-.132.073-.026.199.159.199a1.1 1.1 0 0 1 .318.06c.146.059.159.119.298 1.277l.146 1.284c0 .046-.41.311-.907.589l-3.045 1.688c-.026 0-.265.225-.529.51-.457.477-.602.569-.51.324.02-.059.066-.086.099-.066.073.04.523-.437.523-.556 0-.046.073-.112.166-.159.093-.04.477-.543.953-1.251l.794-1.172-.51-.112c-1.814-.397-3.343-.887-3.151-1.013.106-.066.357-.583.311-.629-.02-.026.013-.119.073-.212.113-.172.113-.172-.139-.066-.139.06-.384.192-.549.291-.298.192-8.313 4.911-8.849 5.222-.159.086-.311.139-.344.119-.033-.027-.079-.013-.099.02s.02.073.086.093c.113.026.126.106.132.807.007.503-.013.808-.066.867-.139.172.119.179.417.013l4.322-2.548 5.778-3.362c.033.033-.053.159-1.119 1.622l-2.31 3.276c0 .033.159-.093.351-.278.185-.185.384-.324.43-.305.04.02.066.06.04.093-.02.033 0 .053.053.046.046-.013.079.026.066.079s-.007.079.02.053.159.02.291.106c.417.258.43.265.371.179-.026-.046-.225-.218-.444-.377s-.371-.291-.337-.291.337.159.675.357l.622.351.371-.245a23 23 0 0 1 .999-.596 95 95 0 0 0 4.031-2.429c.523-.344.966-.602.986-.582.046.04.404 2.793.404 3.124.007.218-.079.338-2.674 3.713l-2.317 3.025-1.886 2.403c-.033.013-.139-.099-.238-.252-.192-.271-3.806-4.858-3.958-5.017-.066-.066-.569.609-2.462 3.257l-2.422 3.31c-.027-.02-1.006-1.377-2.178-3.025l-2.396-3.342-.258-.358-.119.192c-.099.159-1.999 2.568-3.263 4.137l-.635.807c-.119.166-.245.285-.278.271-.026-.02-.867-1.099-1.86-2.389l-3.409-4.441c-.887-1.152-1.608-2.131-1.608-2.184 0-.152.404-3.296.43-3.316.007-.013.331.185.702.444.602.404 3.654 2.257 5.004 3.038.258.152.516.324.569.377.093.086.172.053.715-.265.662-.391.688-.404.761-.285q.04.061-.02.033c-.033-.02-.066 0-.066.046 0 .073.027.079.126.02.099-.066.172-.026.483.285.199.199.364.338.364.305s-.146-.252-.318-.496c-.179-.238-.642-.9-1.039-1.463l-.761-1.059c-.02-.02-.344-.457-.715-.973-.589-.821-.748-1.079-.649-1.079.013 0 .496.285 1.072.635l7.896 4.673 1.238.695a3 3 0 0 0-.079-.444c-.139-.675-.185-1.31-.106-1.41.06-.073 0-.139-.271-.304-.496-.311-5.01-2.959-6.5-3.806-.688-.397-1.317-.774-1.39-.834a13 13 0 0 0-1.443-.814c-.073-.026-.106-.02-.079.02.02.04.073.066.106.066.139 0 .258.199.364.616.086.351.132.443.252.463.132.02.132.026-.026.093-.252.112-.417.165-.563.185-.159.026-2.873.695-2.992.741-.046.02-.086.066-.086.106q0 .07.079-.007c.099-.099.781-.106.781-.007 0 .033.027.053.059.026.033-.02.079-.007.106.033.02.04 0 .086-.053.106-.079.026-.079.066-.02.192.04.086.093.139.119.126.033-.02.053.02.06.086 0 .113.007.113.073.007.073-.099.086-.093.165.06.046.093.066.199.04.238s0 .053.073.026c.059-.026.093-.02.073.013s0 .086.04.106c.033.026.059.152.053.291-.013.152.007.232.06.225.04-.013.06.026.04.073-.02.053-.007.152.033.225.06.106.046.126-.046.119a.25.25 0 0 1-.146-.046c-.02-.026-.073 0-.126.06-.079.086-.079.093 0 .066.132-.046.338.073.285.159-.026.04-.02.053.026.026.04-.02.086-.013.113.027s.073.053.106.033c.033-.026.06-.007.06.033 0 .046-.053.06-.132.033-.159-.053-.185.106-.033.232.053.046.099.119.099.159s-.099-.033-.218-.159c-.139-.146-.199-.258-.165-.311.04-.046.026-.093-.02-.126-.053-.026-.059-.02-.033.033.152.245-.324.033-1.972-.887l-1.979-1.066c-.146-.046-.146.04.053-1.582.152-1.205.126-1.139.417-1.191.404-.066.47-.132.278-.285-.093-.073-.847-.688-1.688-1.37l-2.925-2.376c-.774-.622-1.417-1.178-1.436-1.231s-.139-.98-.271-2.052l-.92-7.665-.033-.212H15.6l5.176 3.614 5.269 3.627c.046.007.198-.172.331-.39l2.853-4.719 2.641-4.315c.02 0 .371.543.774 1.205zm-9.386 17.5c-.059.059-.159.093-.212.073-.179-.073-.113-.179.106-.179.199 0 .205.007.106.106m.576.483c.02.033 0 .086-.04.113-.046.026-.06.02-.033-.026.02-.033 0-.086-.04-.099-.059-.026-.066-.04-.007-.04.04-.007.093.02.119.053zm0 .271c.02.033.013.066-.026.066-.033 0-.086-.033-.106-.066-.02-.04-.013-.066.027-.066.033 0 .086.026.106.066zm20.75.629c-.053.066-.113.079-.159.04-.06-.046-.079-.007-.093.139-.013.119-.046.245-.079.285-.033.046-.046.099-.02.119.02.026.007.046-.04.046s-.073-.04-.053-.093.02-.112-.007-.132c-.02-.026-.04-.132-.046-.238s.007-.185.02-.165c.02.02.073 0 .119-.04a.22.22 0 0 1 .192-.04c.053.026.113.013.139-.027.02-.04.053-.053.073-.033s0 .079-.046.139m-20.346.079c-.04.04-.238-.059-.238-.119 0-.033.06-.026.132.02.066.046.119.093.106.099m-4.143.026c0 .033-.053.06-.113.053-.073 0-.086-.02-.033-.04.04-.013.06-.066.04-.099-.026-.046-.013-.053.027-.027.046.027.079.073.079.113m4.004.06c.02.033.007.066-.027.066-.04 0-.073-.033-.073-.066 0-.04.013-.066.027-.066.02 0 .053.026.073.066m-2.528 2.475c-.245.477-.417.596-.417.278q.002-.141.053-.053c.059.086.232-.113.437-.503.06-.112.126-.212.139-.212.02 0-.079.218-.212.49m19.135-11.464c-.126.152-.126.152.026.026.139-.119.179-.172.126-.172a.8.8 0 0 0-.152.146m-.682.781c-.437.496-.529.708-.305.708.053 0 .08-.026.066-.046-.02-.026.033-.126.106-.225.073-.093.119-.172.093-.172-.02 0 .099-.179.265-.397s.291-.397.271-.397c-.013 0-.238.238-.496.53zm-16.448 0a2 2 0 0 1 .212.298c.079.152.033.497-.066.497-.04 0-.053.059-.033.132s.007.132-.033.132a.4.4 0 0 0-.252.252c0 .04-.033.079-.079.093-.126.046-.119.245.013.318.099.053.165-.013.437-.483.179-.298.331-.576.344-.622.013-.04-.139-.238-.331-.43-.192-.198-.285-.278-.212-.185zm-1.675.827c.146.476.774 2.118.814 2.131.053.013.655-.947.655-1.046 0-.026-.252-.232-.563-.457s-.649-.49-.755-.589c-.166-.152-.185-.152-.152-.04zm19.38.337c-.311.238-.642.483-.748.543s-.179.139-.172.179c.033.119.616 1.092.655 1.092.02 0 .08-.139.139-.318a50 50 0 0 1 .41-1.099c.165-.437.298-.801.285-.808-.007-.007-.265.179-.569.41zm2.449-.192c-.007.046-.199.536-.437 1.099-.391.92-1.152 2.297-1.297 2.35-.099.04-.066.146.146.457.106.166.185.344.166.391-.046.126-.046.126.821-.146l1.191-.351a38 38 0 0 0 1.191-.391c.669-.238.722-.265.424-.232-.318.033-.344.026-.397-.119a4 4 0 0 1-.059-.212c0-.027-.04-.079-.093-.106-.046-.033-.066-.093-.046-.132.026-.04.02-.073-.013-.073-.06 0-.053-.185.026-.444.033-.132-.086-.093-1.171.377l-1.231.51a1.6 1.6 0 0 1 .079-.338 3.6 3.6 0 0 0 .119-.629c.013-.166.166-.675.338-1.125s.298-.854.278-.894q-.032-.07-.033.007zm-3.64.417c.113.179.218.331.232.331.073 0-.04-.298-.179-.47-.245-.298-.278-.225-.053.139m-19.929.218c0 .02.132.404.298.847.192.51.304.92.311 1.125 0 .179.033.324.073.324s.053.013.033.033c-.026.033-1.562-.622-2.25-.966-.324-.152-.523-.126-.291.046.073.053.099.093.053.093-.04 0-.059.046-.04.099.027.053 0 .146-.046.205s-.086.172-.093.252c0 .086-.04.132-.099.119-.073-.013-.073.007.02.079.106.086.106.093-.066.139a2 2 0 0 1-.417.046c-.192-.007-.205 0-.099.053.185.079 3.707 1.191 3.793 1.191.026 0 .152-.185.271-.404.225-.404.225-.41.093-.516-.225-.172-.861-1.264-1.185-2.039-.298-.688-.357-.814-.357-.728zm-.39 7.625c.298.437.582.761.424.49-.099-.172-.715-.986-.741-.986-.013 0 .126.225.318.496zm20.048 2.813c0 .033.033.066.073.066.033 0 .046-.033.026-.066-.02-.04-.053-.066-.073-.066-.013 0-.027.027-.027.066zm-14.873.51c-.013.126-.265 1.284-.483 2.204l-.205.894-.132.596c-.073.318-.139.774-.086.609.02-.059.059-.099.093-.079s.046-.026.033-.106c-.026-.132.205-.662.311-.708.027-.013.033-.06.013-.112-.02-.046-.007-.099.026-.119.073-.053.285.192.225.258-.027.026-.013.026.033 0s.073-.08.06-.126c-.007-.046-.007-.06.007-.033.02.033.073.053.126.053s.073.04.046.113c-.02.066-.02.099.007.073.073-.06.305.159.258.238-.027.04 0 .033.06-.013.073-.059.119-.066.152-.013.02.033 0 .066-.046.066-.046.007-.02.04.066.086.08.046.126.106.106.132-.026.027.033.046.132.046.106 0 .192-.046.218-.119.026-.06.185-.305.364-.536.172-.232.318-.463.318-.51s.053-.099.126-.126c.199-.06.099-.311-.47-1.112a50 50 0 0 1-.867-1.251c-.344-.516-.47-.616-.49-.404zm12.847 1.172c-.867 1.224-1.059 1.562-.887 1.562.04 0 .06.026.04.053-.046.079.152.357.225.311.079-.046.212.199.146.265q-.038.048.033.007c.086-.046.245.179.172.245-.02.026.04.079.132.119.099.046.159.113.132.146-.026.046.007.053.079.02.099-.033.106-.026.033.06-.06.073-.06.099-.007.099.046 0 .066.026.046.06-.02.026.02.106.093.172.079.066.132.086.132.046 0-.046-.026-.079-.053-.079-.099 0-.04-.278.073-.344.066-.033.099-.086.086-.112-.02-.026.053-.079.166-.119.113-.046.205-.046.232-.013.04.066.225-.093.225-.192 0-.04.046-.086.106-.106.053-.02.079-.013.06.026s-.013.066.026.066c.033 0 .086-.033.106-.073.033-.04.08-.026.132.053.046.066.073.146.053.179-.026.033-.007.04.033.013.046-.026.079-.007.079.053 0 .053.027.112.06.132.066.046.053-.185-.046-.622l-.735-3.203c-.04-.099-.238.146-.973 1.178zm1.866 3.065c-.04.093-.033.099.033.04.046-.046.066-.099.046-.119s-.06.013-.079.08zm-15.786.523c0 .073.02.093.04.04.02-.046.013-.106-.007-.126-.02-.026-.04.013-.033.086m20.28-8.982c-.02.033-.007.08.033.106.033.02.066-.007.066-.059 0-.119-.04-.139-.099-.046z"/><path fill="#5f5832" d="m29.717.07-.894.093-1.622.205C15.447 2.063 5.499 10.396 1.713 21.714c-2.323 6.95-2.204 14.422.344 21.24C6.187 54.014 16.102 61.91 27.732 63.4c2.542.324 5.752.331 8.274.007a31.8 31.8 0 0 0 14.826-5.99c1.721-1.277 4.176-3.587 5.454-5.13 4.164-5.03 6.659-10.987 7.281-17.407.192-1.919.145-5.024-.093-6.89-.483-3.806-1.429-6.943-3.111-10.319A31.73 31.73 0 0 0 44.332 2.56C41.128 1.196 38.116.454 34.284.097c-.609-.06-4.11-.073-4.567-.026zm2.648 16.984 2.8 4.653 2.429 3.991c.066.073 1.092-.622 5.282-3.554l5.209-3.647h2.846l2.846.033a1354 1354 0 0 1-.861 7.148l-.198 1.655c-.08.616-.172 1.158-.218 1.198a230 230 0 0 1-1.9 1.549l-4.216 3.488c.02.013.179.06.351.106l.324.08.159 1.258c.086.721.126 1.291.099 1.337-.033.046-.953.582-2.045 1.191-1.853 1.026-2.012 1.132-2.409 1.555-.232.252-.45.444-.49.43-.033-.007-.112-.139-.172-.285-.298-.735-.602-1.211-.867-1.357-.265-.152-.331-.278-.185-.364q.061-.038.033.013c-.02.04-.007.106.026.159.053.086.066.086.119 0 .033-.053.046-.119.026-.146-.013-.033.007-.099.046-.152s.053-.132.026-.172q-.04-.07.02-.04c.066.04.516-.516.516-.649a.65.65 0 0 1 .351-.444c.218-.086 1.218-.079 1.761.02.755.132.43.007-.602-.232-1.072-.252-1.681-.457-2.204-.735-.238-.126-.271-.165-.179-.198.066-.027.112-.119.112-.212a.8.8 0 0 1 .146-.371c.139-.192.139-.199.013-.152a2.5 2.5 0 0 0-.324.179 612 612 0 0 1-4.666 2.767l-4.468 2.628-.033.947c-.02.523-.007.96.02.979s.238-.079.463-.212l7.426-4.388 2.171-1.284c.172-.113.338-.185.357-.159.046.046-.437.768-1.072 1.595-.596.781-2.224 3.084-2.264 3.204-.02.06.126-.066.324-.285l.364-.39.688.397c.688.397.688.397.887.252.112-.079.529-.337.927-.563 1.416-.807 3.779-2.25 4.501-2.74.397-.271.735-.483.748-.47.033.033.41 2.978.41 3.223 0 .179-.225.483-2.681 3.68l-2.317 3.025c-1.443 1.893-1.833 2.383-1.906 2.383-.04 0-.159-.132-.271-.298-.324-.47-3.932-4.971-3.978-4.971-.026-.007-.629.808-1.337 1.807l-3.482 4.772c-.026-.013-1.105-1.516-2.403-3.336l-2.396-3.303c-.027 0-.08.053-.126.119-.04.066-.854 1.099-1.814 2.29l-1.847 2.317c-.271.391-.483.629-.536.602-.026-.02-.642-.801-1.363-1.741l-1.787-2.33-3.726-4.944a73 73 0 0 1 .444-3.349c.02-.033.106.013.192.093.159.152.159.152.053-.06-.053-.119-.132-.212-.172-.212-.079 0-.073-.073.112-1.555.152-1.205.126-1.139.417-1.191.132-.02.291-.066.344-.099.086-.053.079-.073-.02-.146-.609-.45-6.07-4.944-6.096-5.017-.02-.053-.152-1.099-.298-2.317l-.894-7.4-.033-.212h5.699l5.169 3.614 5.262 3.627c.06.007.616-.854 1.363-2.091l2.846-4.713 1.622-2.621c.026 0 .252.338.503.741zM21.946 29.333l.397 1.079.358.913c.026.026.424-.582.589-.893.099-.199.099-.199-.457-.576a8 8 0 0 1-.702-.543c-.198-.212-.271-.199-.185.02m19.122.364c-.384.285-.688.556-.675.602.04.146.556.973.609.973.033 0 .099-.126.152-.285.059-.152.225-.616.377-1.026.152-.417.265-.761.252-.768-.007-.013-.331.212-.715.503zM18.59 31.398c.02.033.232.172.463.304.344.205.424.278.424.424 0 .245-.238.675-.39.715-.119.033-.113.046.046.126.179.093.675.199.781.172.033-.013.079.007.099.04.046.066 1.317.51 1.35.47.013-.013.119-.199.245-.41.212-.377.212-.391.086-.477-.073-.053-.278-.331-.457-.622-.172-.291-.331-.516-.351-.503-.013.02.007.066.046.113a1.3 1.3 0 0 1 .132.338c.053.192.053.258-.013.285-.073.026-.675-.218-2.111-.86-.212-.099-.371-.146-.351-.113zm24.192.218a16 16 0 0 1-.47.735l-.384.589.198.291c.106.166.199.344.199.404 0 .066.033.086.113.06.06-.026.371-.126.688-.218.324-.093.569-.199.549-.232-.02-.026.066-.053.185-.053.278 0 .715-.119.715-.199 0-.033-.073-.139-.166-.238s-.165-.232-.165-.298a.18.18 0 0 0-.079-.146c-.119-.04.126-.497.291-.549.073-.02.119-.053.106-.066-.02-.013-.397.132-.854.324-.999.43-1.105.463-1.086.318a1.8 1.8 0 0 1 .166-.569c.066-.093.132-.298.099-.298-.013 0-.066.066-.106.146zm-20.313 2.978c.066.192.113.364.093.391-.013.02.046.04.126.033.119-.007.146-.046.132-.192-.013-.192.073-.245.139-.079.02.053.113.099.205.099.099 0 .159-.026.139-.06a6 6 0 0 0-.92-.536c-.02 0 .02.159.086.344m-1.986 1.178c-1.052.278-1.052.298.053.192.629-.06.774-.053.94.033.198.099.198.099.066-.073-.152-.192-.172-.324-.046-.371q.308-.129-1.013.218zm1.456.808c.146.232.291.457.331.496a.4.4 0 0 1 .079.132c.013.112.146.351.185.351.126 0 .119-.106-.026-.291a14 14 0 0 1-.437-.622c-.377-.549-.47-.596-.132-.066m-5.063.285c.146.119.159.152.066.126-.291-.093 1.913 1.291 4.554 2.853.536.318 1.019.616 1.066.668.079.073.192.027.741-.304.364-.218.688-.397.721-.397.04 0 .172.119.298.265.225.258.649.602.49.391a202 202 0 0 1-1.006-1.423c-.999-1.423-1.099-1.542-1.158-1.39-.02.053-.152.159-.291.238-.205.112-.318.271-.642.9-.218.41-.417.755-.443.755s-.238-.205-.47-.457c-.377-.424-.543-.536-1.807-1.238-1.635-.907-1.986-1.085-2.178-1.125-.119-.02-.106 0 .06.139zm10.875.609c.04.013.066.059.04.093-.02.033.033.06.119.06.146-.007.146-.007.026-.099-.073-.053-.165-.099-.199-.093-.04 0-.033.02.013.04zm.311.218c-.02.04.013.066.079.066s.225.093.351.199.278.199.331.199.192.079.298.172a4 4 0 0 0 .51.344c.179.099.318.205.318.232 0 .033-.033.033-.079.007s-.053-.02-.026.026c.026.04.086.06.139.033.06-.02.099.007.099.066 0 .053.046.113.099.139.053.02.099 0 .099-.04s.02-.06.04-.033c.099.099-.053.172-.212.099-.132-.06-.199-.06-.311.013-.132.08-.139.08-.053-.026.132-.159.04-.212-.113-.066-.139.132-.371.622-.318.675.02.013-.013.073-.066.126-.053.059-.086.132-.079.165.02.06 2.138 1.337 2.363 1.43.073.026.086.007.046-.093-.066-.165-.258-1.463-.265-1.721 0-.192-.06-.238-1.284-.96-1.906-1.112-1.919-1.125-1.966-1.052m3.21 3.237c.099.192.079.252-.033.099-.079-.106-.106-.112-.159-.026-.04.053-.086.073-.113.046-.053-.046.093-.245.179-.245.033 0 .086.059.126.126m-2.356-2.197c-.02.066-.066.172-.099.232-.079.152-.073.205.007.152s.086-.02 0 .192c-.04.113-.04.179.013.212q.061.04.033-.02c-.026-.04 0-.086.053-.113.073-.026.086-.112.066-.337-.027-.232-.013-.298.066-.298.053 0 .099-.033.099-.066 0-.112-.199-.073-.238.046m-3.958 2.184c-.013.066-.066.298-.106.516l-.106.563c-.027.126.007.099.146-.113.106-.152.271-.311.371-.344.179-.06.185-.053.185.132a.47.47 0 0 1-.146.338q-.157.129-.046.099c.086-.027.099-.007.073.099q-.03.141.04.093c.053-.033.079 0 .079.086 0 .099.026.126.113.093s.099-.013.073.099c-.026.093-.013.126.053.099.046-.013.066-.079.04-.139-.033-.099-.026-.099.079-.013a.5.5 0 0 0 .199.099c.099 0 .457.298.563.463.073.119.079.119.046.007a40 40 0 0 0-1.595-2.29c-.013 0-.04.053-.06.113zm13.522.192c-.079.132-.457.669-.834 1.198-.477.669-.662.98-.609 1.019.113.066.278-.007.543-.252.126-.112.252-.192.271-.172.02.026.04-.007.04-.073 0-.059.026-.093.066-.073.033.02.132-.02.212-.093.099-.093.166-.119.219-.073.059.046.106.04.165-.033.066-.08.06-.152-.026-.371-.079-.192-.093-.298-.04-.351.033-.046.04-.113.013-.139-.026-.033.033 0 .139.073a.57.57 0 0 1 .218.304c.026.106.066.185.099.185.027 0 .06.04.079.079.04.119 0-.073-.165-.827-.073-.351-.159-.642-.192-.642-.026 0-.112.106-.199.238z"/><path fill="#3a3517" d="M29.419.104c-3.117.338-5.169.755-7.446 1.502-3.753 1.238-6.996 3.018-10.259 5.626-.933.748-3.415 3.203-4.196 4.15-2.072 2.509-3.693 5.136-4.865 7.89C.899 23.389.098 27.314.098 31.815c0 2.965.258 5.103.94 7.83.662 2.641 1.867 5.639 3.223 8.009 2.145 3.739 5.189 7.161 8.644 9.736 4.64 3.449 9.849 5.46 15.852 6.123 1.205.139 5.355.119 6.553-.027 5.322-.649 9.935-2.323 14.197-5.163a31.8 31.8 0 0 0 14.072-23.722c.12-1.41.04-5.487-.132-6.771-.973-7.195-4.044-13.436-9.074-18.467A31.7 31.7 0 0 0 37.329.494c-1.913-.331-2.886-.41-5.163-.43-1.198-.013-2.436.007-2.747.04m5.375 20.949 2.899 4.68c.026-.007 2.237-1.542 4.911-3.415l5.209-3.64.351-.245h2.773c2.31 0 2.787.013 2.813.093.02.053-.026.596-.099 1.205l-.57 4.726-.166 1.357-.172 1.39c-.152 1.33-.119 1.238-.615 1.648l-4.342 3.534-1.35 1.105c-.073.073-.02.099.285.166.205.04.371.113.371.152 0 .046.059.556.132 1.145l.159 1.357.258 1.979c.205 1.522.218 1.701.132 1.847-.053.086-.39.529-.741.993l-2.065 2.687-3.918 5.083c-.119.146-.119.146-.278-.053l-4.004-5.063c-.053-.086-.079-.079-.185.033-.073.073-.927 1.264-1.913 2.648l-2.8 3.839c-.06 0-.258-.278-3.144-4.335l-1.615-2.27c-.027-.027-.199.139-.377.364l-3.567 4.481c-.185.238-.371.437-.41.437-.046 0-.728-.847-1.522-1.886l-1.88-2.449c-2.257-2.912-3.528-4.613-3.521-4.719.046-.563.437-3.396.477-3.409.026-.007.04-.113.026-.232-.013-.113.046-.735.126-1.37l.152-1.152.357-.106.357-.099-1.416-1.158-2.475-2.019-1.701-1.383c-.357-.285-.649-.543-.649-.569 0-.02-.252-2.125-.556-4.673L9.949 18.8l-.02-.331 2.648-.02 2.846.02c.119.02 2.31 1.509 5.394 3.673l5.236 3.64c.04 0 .768-1.191 4.196-6.884l1.469-2.436c.053-.086.126-.146.165-.132s1.35 2.138 2.912 4.726zm-12.834 8.26c.02.046.192.516.384 1.039l.358.973c.013.013.165-.225.351-.523l.324-.543-.503-.364a12 12 0 0 1-.675-.516c-.185-.179-.291-.205-.238-.066zm19.109.404c-.344.265-.635.51-.642.543-.026.073.516 1.013.576 1.013.02 0 .119-.232.218-.516l.543-1.423c.079-.185-.033-.126-.695.384zm-21.452 2.25c.344.192.649.397.682.457.053.099-.258.318-.735.503-.232.093-.232.093-.053.139.093.026.285.02.424-.013.43-.099.596-.073.642.086.02.086.007.166-.04.179-.04.013.113.093.344.179.463.179.529.185.529.093 0-.033.093-.212.198-.391l.199-.324-.212-.225a3 3 0 0 1-.305-.351c-.079-.126-.086-.126-.053.013q.02.15-.06.152c-.079 0-.649-.232-1.324-.529-.424-.192-.774-.331-.821-.331-.02 0 .238.165.583.364zm23.504.331c-.384.159-.702.265-.715.225-.013-.033.02-.146.073-.258.152-.304.086-.238-.238.225l-.298.417.185.298c.099.159.192.338.205.397.02.079.112.073.589-.079.543-.172.549-.185.304-.205-.205-.02-.265-.06-.278-.172-.033-.199.073-.218.602-.113.569.106.695.113.695.02 0-.033-.026-.046-.066-.026-.033.02-.066.02-.066-.013 0-.027-.166-.139-.364-.245-.437-.225-.47-.377-.132-.576.126-.079.232-.152.232-.165 0-.033.053-.053-.728.271zm-2.059 2.105c-.126.08-.357.225-.523.318-.444.252-8.565 5.037-8.598 5.063s-.053 1.946-.026 1.946c.013 0 .563-.324 1.225-.721l2.535-1.496 2.912-1.721 2.595-1.529c.556-.324.999-.616.993-.642s-.364-.205-.788-.391c-.523-.232-.755-.371-.735-.43.02-.046.099-.086.179-.086.139 0 .549-.371.483-.437-.013-.013-.126.04-.252.126m-18.592-.026c0 .033.046.079.106.099.159.06.185.046.093-.059-.093-.112-.199-.132-.199-.04m.503.298c.04.112.225.199.225.106 0-.033-.06-.093-.132-.132-.106-.053-.119-.053-.093.026m-2.389 1.099c-.218.066-.337.126-.265.126.073.007.238-.026.364-.066a2.3 2.3 0 0 1 .483-.066c.139 0 .232-.026.212-.066-.06-.093-.344-.066-.794.073zm21.783-.026c-.159.152-.126.232.053.152.106-.053.278-.053.576 0 .999.166.887.099-.384-.225a.26.26 0 0 0-.245.073m3.501 1.469-1.774.993-.748.41c-.013 0-.225.205-.463.463-.245.252-.463.463-.483.463-.026 0-.218-.338-.424-.748-.331-.662-.404-.761-.702-.947l-.324-.212-.662.94-.9 1.264c-.377.53-.404.616-.073.278.212-.212.344-.304.424-.278.066.02.384.192.721.391.503.298.616.344.682.265.04-.053.496-.338 1.013-.629 2.575-1.489 4.541-2.72 4.541-2.846 0-.033.04-.06.093-.06s.119-.033.146-.079c.033-.053.013-.06-.059-.033-.146.053-.146-.013.007-.126.238-.185.013-.073-1.013.49zm-28.448-.139c-.073.073.02.146.139.106.06-.02.093-.013.06.013-.026.033.007.119.066.192q.1.12.02.053a.4.4 0 0 0-.159-.079c-.132 0 1.317.907 3.7 2.317l1.324.788c.119.079.212.04.814-.324l.675-.404.371.384.371.384-.384-.563-.999-1.436-.622-.88-.344.218c-.304.199-.384.298-.721.94-.205.397-.397.735-.43.741-.073.027-.397-.271-.642-.596-.132-.172-.543-.437-1.549-.993-1.694-.94-1.642-.913-1.688-.86zm7.532 3.958c-.02.093-.046.245-.066.344-.02.106-.053.238-.079.311q-.03.119.04.079c.04-.026.073-.093.073-.152s.079-.179.172-.265c.152-.139.165-.185.099-.324-.093-.205-.192-.205-.238.007zm13.582.053c-.099.132-.152.252-.119.252.04.007.106.013.152.02.046 0 .119.079.165.172.086.165.086.165.079-.066a3 3 0 0 0-.053-.424l-.04-.192zm-.543.774c-.02.033-.007.066.026.066.04 0 .073-.033.073-.066 0-.04-.013-.066-.026-.066-.02 0-.053.026-.073.066"/><path fill="#0d0d0d" d="m30.047.07-1.026.1c-6.526.602-12.516 3.098-17.606 7.334-1.615 1.344-3.753 3.614-5.083 5.401-3.078 4.13-5.123 9.068-5.897 14.198-.271 1.847-.357 3.19-.318 5.322.046 2.859.298 4.739.973 7.373 2.072 8.022 7.221 14.965 14.284 19.235 5.533 3.349 11.722 4.884 18.314 4.547a29.8 29.8 0 0 0 6.109-.933A31.83 31.83 0 0 0 62.44 40.659c.489-1.688.8-3.29 1.079-5.547.119-.96.119-5.454 0-6.52-.364-3.204-1.152-6.314-2.297-9.028C57.317 10.297 49.255 3.38 39.578.99 37.004.355 34.952.097 32.231.064 31.179.051 30.193.057 30.047.07m2.469 17.189 3.667 6.083c.98 1.641 1.443 2.356 1.509 2.343.079-.013 8.849-6.123 10.12-7.042l.291-.212h5.692l-.039.443a112 112 0 0 1-.311 2.634l-.331 2.78-.536 4.229c-.013.007-.767.622-1.681 1.363l-3.091 2.509-1.436 1.165.331.079c.185.04.344.086.364.099.02.026.185 1.284.622 4.746l.192 1.556-.51.662-2.257 2.952-2.84 3.707-1.218 1.555c-.159.159.132.483-2.442-2.747l-1.946-2.436c-.013-.013-.331.417-.702.947l-4.077 5.64c-.04.013-.874-1.099-1.847-2.476l-2.972-4.084c-.033-.007-.371.377-.748.854l-1.853 2.317-1.403 1.767c-.126.172-.265.318-.311.318-.04 0-.496-.556-1.019-1.244l-1.152-1.502L18.074 43c-1.999-2.614-2.297-3.025-2.264-3.177.02-.099.132-.894.238-1.767l.364-2.873.165-1.364c0-.046.139-.119.318-.165.172-.046.324-.099.338-.106.033-.026.218.126-4.574-3.779-1.357-1.105-1.575-1.311-1.602-1.496-.033-.192-.305-2.416-.635-5.176l-.331-2.773-.199-1.767c0-.126.079-.132 2.866-.112l2.859.02 5.222 3.66 5.236 3.64c.02-.027 5.077-8.399 5.454-9.041.159-.258.304-.477.331-.477.02 0 .318.457.655 1.013zM22.005 29.352c0 .04.06.185.132.324.066.139.106.271.086.298-.026.02-.027.04-.007.04a.8.8 0 0 0 .166-.159c.139-.159.139-.159-.119-.371-.139-.113-.258-.172-.258-.132m.311.477c-.02.053-.04.033-.04-.04-.007-.073.013-.113.033-.086.02.02.026.079.006.126zm19.248-.41c-.02.04.007.046.06.026.119-.046.139-.093.046-.093a.13.13 0 0 0-.106.066zm-19.003.404c-.026.046-.02.06.027.033.033-.02.126.04.198.132.073.113.146.152.172.106.02-.04-.046-.132-.152-.205-.139-.099-.212-.119-.245-.066m18.208.172c-.073.053-.179.119-.232.159-.086.053-.086.066 0 .119.073.046.113.033.159-.046a.55.55 0 0 1 .159-.192c.152-.119.073-.159-.086-.04m-17.831.358c-.093.265-.093.258.033.258.053 0 .079-.026.06-.066-.02-.033 0-.053.046-.033s.126-.026.172-.106c.079-.119.079-.152 0-.199-.159-.099-.238-.066-.311.146m17.944.596c.007.232.093.311.139.126.02-.073 0-.132-.04-.132-.053 0-.046-.02.007-.059.073-.046.073-.06-.007-.093-.079-.026-.099.007-.099.159zm-18.149-.046c0 .159.113.185.152.04q.03-.13-.059-.132a.09.09 0 0 0-.093.093zm-2.072 1.556c.113.106.192.212.172.232-.026.02.053.073.165.112.232.08.324.331.219.602-.053.132-.046.185.026.212.06.02.166-.086.298-.318.106-.192.199-.377.199-.41 0-.099-.311-.357-.424-.357-.053 0-.252-.06-.437-.132-.444-.172-.47-.166-.218.06zm21.902.079c-.629.205-.675.285-.404.682.093.132.166.285.166.338 0 .106.06.119.225.06.093-.033.093-.053.007-.179-.146-.205-.132-.556.02-.602a.8.8 0 0 0 .265-.238c.086-.113.139-.199.132-.192a13 13 0 0 1-.41.132zm1.813 5.527c-.867.483-1.092.642-1.456 1.026-.238.252-.477.457-.529.457-.06-.007-.232-.285-.43-.708-.324-.688-.424-.801-.94-1.099-.066-.04-.86 1.013-1.694 2.237l-.132.199.198-.185c.106-.099.238-.179.291-.179s.377.166.715.364c.615.364.615.364.794.238.093-.066.602-.364 1.132-.669 1.244-.708 2.442-1.443 2.628-1.608.079-.066.132-.185.119-.252-.026-.119.02-.146.232-.132.073 0 .073-.007.013-.033-.066-.033-.06-.06.033-.132.245-.185.026-.079-.973.477zm-21.968-.172c-.252.159-.351.298-.675.927-.205.41-.404.761-.45.788-.04.026.132.166.41.318.265.152.589.351.728.444l.252.172.662-.397c.364-.218.682-.397.702-.397.027 0 .166.113.305.245.192.192.106.033-.364-.642-1.046-1.522-1.145-1.655-1.211-1.648-.033 0-.199.086-.357.192zm-3.369.08c.06.046.166.126.232.165.099.066.086.073-.073.013-.165-.053-.179-.053-.112.033.053.066.059.099.007.119-.04.013.218.199.576.417 1.039.635 1.489.893 1.463.841-.066-.159-.715-.867-.88-.966-.39-.232-1.324-.708-1.211-.622z"/></g></g><defs><clipPath id="a"><path fill="#fff" d="M0 0h64v64H0z"/></clipPath></defs></svg>