<svg xmlns="http://www.w3.org/2000/svg" viewBox="0 0 1036 1036"><svg xmlns="http://www.w3.org/2000/svg" xmlns:xlink="http://www.w3.org/1999/xlink" viewBox="0 0 1036 1036"/><svg xmlns="http://www.w3.org/2000/svg" version="1.0" viewBox="0 0 1036 1036"><path fill="#f1f2f3" d="M486 36a467 467 0 0 0-59 7l-10 2a773 773 0 0 0-91 29 552 552 0 0 0-121 75 494 494 0 0 0-101 119l-4 7-4 7-18 36-5 11a563 563 0 0 0-25 77l-2 9a501 501 0 0 0 10 243l3 8 2 6 2 6a469 469 0 0 0 262 279c18 8 51 20 69 24l8 2a398 398 0 0 0 55 10l18 2h83a527 527 0 0 0 88-16l10-3 20-7 10-3a182 182 0 0 0 20-8 453 453 0 0 0 90-51l10-7a152 152 0 0 0 15-12l8-7a499 499 0 0 0 134-187l4-11 10-29 2-7 4-15 2-8 2-10 2-10 2-12 2-11a525 525 0 0 0-3-148 480 480 0 0 0-60-163l-6-10a399 399 0 0 0-24-35A493 493 0 0 0 652 54l-23-6a518 518 0 0 0-143-13z"/></svg><svg xmlns="http://www.w3.org/2000/svg" version="1.0" viewBox="0 0 1036 1036"><path fill="#e4e2d7" d="M486 36a467 467 0 0 0-59 7l-10 2a773 773 0 0 0-91 29 552 552 0 0 0-121 75 494 494 0 0 0-101 119l-4 7-4 7-18 36-5 11a563 563 0 0 0-25 77l-2 9a501 501 0 0 0 10 243l3 8 2 6 2 6a469 469 0 0 0 262 279c18 8 51 20 69 24l8 2a398 398 0 0 0 55 10l18 2h83a527 527 0 0 0 88-16l10-3 20-7 10-3a182 182 0 0 0 20-8 453 453 0 0 0 90-51l10-7a152 152 0 0 0 15-12l8-7a499 499 0 0 0 134-187l4-11 10-29 2-7 4-15 2-8 2-10 2-10 2-12 2-11a525 525 0 0 0-3-148 480 480 0 0 0-60-163l-6-10a399 399 0 0 0-24-35A493 493 0 0 0 652 54l-23-6a518 518 0 0 0-143-13zm273 284c-3 9-4 9-19 25a3985 3985 0 0 0-112 113c-2 2-2 2-3 1l-20-33a21240 21240 0 0 1 156-111zm-409 51 78 54-4 8c-7 13-15 25-17 26l-64-63-64-63c-2-1-9-17-7-17l78 54zm-56-22c16 17 16 17 16 19h2v4l-1-1-2-1v-1l-1-1s-2 0-1-1l-1-1-1 1-2-1c-2-2-3-2-3-1l1 3c1 3 2 5 0 5v-2h-1v5l1 3c0 5 1 11 2 10l1 2 2 8 2 6a1818 1818 0 0 1-27-70c0 1 6 8 13 14m456-8-4 8-12 32a1790 1790 0 0 0-10 18 781 781 0 0 0 7-27c-2 1-2 1 0-4l1-4 1-1 1-1c-1-1 1-7 3-7v3l2-2 2-6v-2l2-1c1-1 1-1 0 0l2-3 4-5c-1 0 3-5 4-4zm-20 18v3c2 1-4 7-6 6l-2-1h2c1 2 3 0 1-1-1-1-1-2 1-3v-2l1-1 1-1 2-1zm-7 13-1 1-1-1v-1zm5 0-2 2c-2 1-3 0-1-2zm-7 2-1 1-1-1v-1zm-6 6-1 1-1-1v-1zm123 3h-1l1-2zm-132 12-4 7 3-8 3-8 1 1zm130 3c-1 1-1 0-1-2l1-2zm-1 10h-1l1-2zm-1 9c-1 1-1 0-1-1l1-1zm-3 22-2 17c0 8 0 8-5 12l-14 11-6-12 1-2a622 622 0 0 0 27-36zm-630-7 3 4a378 378 0 0 0 23 33l-6 6v2c0 2-2 1-8-5l-9-7a468 468 0 0 1-3-33m585 66-2 2c-1 1-1 1 0 0zm-9 7-3 4-4 2 3-3zm-15 13-3 3-4 2 3-2zm-15 44c-1 1-1 0-1-1l1-1zm-382 19c3 4 3 4 0 1l-3-6zm-48 31a150 150 0 0 1 24 16c0-1 5 1 11 5 7 4 9 5 8 6v1h4v2c2-1 11 4 11 5l-14 10-20 13-7 4v20c-1 18 0 21 1 22 1 2 1 2-1 0-3-2-4-5-2-3l1-1-2-1a283 283 0 0 1-27-35l-12-15 3 2 3 2-3-2-3-3a74 74 0 0 1-14-17l-2-2-1-8 3-22 3-19v-3l6 4zm434-20 6 44c0 2-1 4-6 11l-47 62-6 7v-1l1-19c0-20 2-17-24-34-12-8-18-13-18-14s3-4 10-8a13496 13496 0 0 1 84-48m-382 83-3 3-2 2 2-2zm321 52-6 6 4-6 6-6zm-8 10-3 3 5-6zm-6 8-22 28c-1 1-2 1-3-1-2-3-2-3 0-3 2 1 6-1 6-3l2-2 10-11a108 108 0 0 1 7-8m-297 28h-2c-1-2 0-3 2-2zm-81-405c0 1 0 2 1 1s0-1-1-1c-1-1-1-1 0 0m434 0v2l1-2 1-1zm-5-5c-2 1-2 2-1 2l1 1 2-2c2-3 0-3-2-1M300 670l2 2c1 1 1 1 0 0zm6 8 2 2c1 1 1 1 0 0z"/></svg><svg xmlns="http://www.w3.org/2000/svg" version="1.0" viewBox="0 0 1036 1036"><path fill="#d9d5c5" d="M486 36a467 467 0 0 0-59 7l-10 2a773 773 0 0 0-91 29 552 552 0 0 0-121 75 494 494 0 0 0-101 119l-4 7-4 7-18 36-5 11a563 563 0 0 0-25 77l-2 9a501 501 0 0 0 10 243l3 8 2 6 2 6a469 469 0 0 0 262 279c18 8 51 20 69 24l8 2a398 398 0 0 0 55 10l18 2h83a527 527 0 0 0 88-16l10-3 20-7 10-3a182 182 0 0 0 20-8 453 453 0 0 0 90-51l10-7a152 152 0 0 0 15-12l8-7a499 499 0 0 0 134-187l4-11 10-29 2-7 4-15 2-8 2-10 2-10 2-12 2-11a525 525 0 0 0-3-148 480 480 0 0 0-60-163l-6-10a399 399 0 0 0-24-35A493 493 0 0 0 652 54l-23-6a518 518 0 0 0-143-13zm29 255c0 4 0 6-1 5l-3-2c-2 0-2 0-1 2s2 1 2 0h1c-1 2-3 2-5 1v-1l1-1 1-3 2-2 1-3 1-3zm-8 8 1 1 1 1h-3v-2zm-252 16 1 2 1 1 1 2v1l-4 2-1 2h2l1 2c3 1 3 5 1 5v1l1 2c-1 1 0 2 1 2v1c-2 1-3 3-1 3l5 2 2 4c1 3 1 4-1 5-1 1-1 1 1 1l3 1-1 1v2c2 1 2 2 1 3v2l1 2-2 1-1 1 1 1 1 2v2l1 3 1 1-1 2-1 2c2 0 2 1 2 3v5l1 2v1c-2 0-2 0-2 2s0 2 2 2v5c1 3 1 6-1 5h-1l1 1 3 4c2 2 2 3 1 5s-1 3 1 6c2 4 2 4 0 3s-2-1-2 1l1 1 1 1c0 2-3 1-4 0 0-1 0-2-1-1l-23-21c-10-9-10-9-2 3a776 776 0 0 1 29 47h-3v1l-1 3-1 3c2 0 1 2-1 4l-2 2v3c1-1 1 0 1 3v4l1 1v2l2 2 1 2-31-13c-7-3-9-3-13 1-5 4-5 7 0 11l-17-13c-8-6-7-3-10-34-5-38-5-33 1-36 28-13 26-12 43-13h15l-10-4c-12-3-14-4-14-1 1 2-1 4-3 4l-6-11c-7-12-7-14-7-10l-1 5-5 10a543 543 0 0 1-18 18l-2-22a7969 7969 0 0 1-7-58l-1-4h36c32 0 35 0 34 1m579 0h12v4a3883 3883 0 0 0-16 131l-1 14-17 14-28 23c-13 10-17 12-9 5l7-5 4-4 4-4 9-6c9-7 9-8 6-15-2-4-2-4 3-10a405 405 0 0 0 13-21c-16 24-18 26-27 30a2033 2033 0 0 0-32 12c2-2 3-3 2-4l2-1v-3l-1-4v-3l1-1-1-2-1 1-1 1v-2l-1-2v-1l-1-1c-2-1-2-1-2-5h-3l29-47c11-17 12-17 6-11l-8 9c-19 17-21 19-23 19-3 0-3 0-1-3l1-3h-1l-2 1v-1l1-2h2v-4l1-6 1-5v-3h1v-2c1 1 1 0 1-1s0-2 1-1v-4c0-2-2-3-2-1-1 1-2 1-3-1-2-2-2-2 0-4s4-8 2-7l-2-1c-1-1-1-1 1-3s2-3 1-3c-2 0-2-7 1-9 2-2 2-2 0-3-2-2-3-4 0-5l1-2v-1l1-2h-2l2-3c2-3 2-3 1-5s-1-2 1-3c1 0 2-1 1-2l1-4v-2l1-1h1l-1-1c-2-1-3-4-1-4l3-2 2-1h1v-2c-2-1 4-4 10-5zm-485 55 78 55c1 2-18 34-20 34a4467 4467 0 0 1-113-111c25 27 29 32 31 39l7 20c5 14 6 16 1 13h-10v3h-2c-1-2-1-2-2 1l1 3v2l1 6 1 4a2375 2375 0 0 1-52-124zm408-46a36 36 0 0 1-5 9l1 1-27 68-21 46 3-8 2-9 1-2v-3c1-2 1-2-1-1l-2-1h-1c-1 0-2-1-1-3 0-2-1-2-3-3l-2 1-1 1-1 1-1 3-5 11-5 11c-2 1-1-2 1-7l5-16 15-41c3-7 19-25 30-35l10-10a1430 1430 0 0 0-102 103c-10 8-13 11-17 16l-4 6-2-4-20-33 157-109zm-498 2-1 1-1-1v-1zm172 98-2 2 1-2 2-2zm-107 20-1-1-1-2h1zm325 5a1483 1483 0 0 1-17 19l10-11c4-6 8-10 9-10zm-248 26-2 2-6 10 1-4 4-7 3-2zm-15 23c-3 5-4 5-1 0l3-4zm395 0c-3 4-3 4-1 0l3-3c0 1 0 2-2 3m-529 5 1 2-2-2-2-2zm5 5c1 1 1 1 0 0l-2-2zm117 10-1 1 1-2zm-94 8c7 6 7 6-2-1-11-9-11-9-7-7zm483-9-13 11 3-4 5-4 2-1zm-15 12-2 3c-2 1-2 1-1-1zm-458 6c1 1 1 1 0 0l-2-2zm73 2-1 3v2h-3l6-9zm379-3-2 2c-1 1-1 1 0 0zm-2 10c5 1 5 1 7 13v8l-6-2c-5-1-7-2-8-5l-1-3-5 1c-4 1-7 0-17-2-16-3-17-4-6-4l18 2c14 2 15 2 15-1 0-2 1-2 2-2v-2c0-2-2-3-3-3l-2-1 1-1zm-449 1v1l1 2c0 2 2 5 4 5 3 1 4 2 2 5-1 2-3 3-7 5l-6 1v-10c1-9 2-10 6-10zm82 4a372 372 0 0 1 29 17 146 146 0 0 0 19 11l1 1 11 6 19 11 17 10 7 5a677 677 0 0 1-14-7 17251 17251 0 0 0-89-54m-45 3c-15 4-26 5-28 3l-1-2 6-1 15-2 9-1h5c5 0 5 0-6 3m45 30 10 6-5-2c-7-4-9-3-4 0l3 4 3 4c3 4 4 4 2 5h-2v-2h-1c-1 2 1 4 3 3 2 0 2 0 1 1l-1 3 1 1 2 1 3 1v1h-1l-1 1 1 2h1v1h2c1-1 1-1 1 1-1 2 1 6 2 5l2 1-1 1h-1l1 1 2 3c1 2 2 3 4 2l2 1h-2c-1 0-1 1 1 4 1 2 1 2 3 1l1-1v3c1 1 1 1 0 0h-2c0 1 2 3 6 3v1c-2 2-1 3 0 2 2-1 4-1 4 1h-3c-1 1 2 4 2 3l1 1q-1.5 3 3 3v2l1 3c1 2 1 2 3 1 1-1 1-1 1 1h-1c-1 0-1 1 1 1l1 3 1 2h1l1-2v2c-1 2 1 6 2 5l3 2v4l2 1c1-1 1-1 0 0 0 1 0 2 2 1 2 0 2 0 1 2l-1 2-21-29a9352 9352 0 0 0-51-74zm377 0-2 1c0 1-1 1 0 0zm-4 2-9 6-12 7-3 2 21-13zm-416 35a4472 4472 0 0 0 45 28l-17 12-20 13-3 3v35l5-5a823 823 0 0 1 35-34 399 399 0 0 0-16 28c-3 4-5 8-4 9h1c2-2 3-1 2 1h1c2-2 6-3 6-1s1 0 2-2h-2c-2 0-2 0-1-1l2-2 2-1 1-2 1-2h-2l1-2 2-6c0-6 0-6 2-5 3 0 3 3 4 17 0 11 1 13 3 15v1h-1c0 2 1 3 4 3l3 5 1 1 3-4 2-3 6-16c0-2 0-3 1-2l-2 10c-3 14-4 16-5 16l-4 1c-3 1-3 2-3 9l-2 15v8l1 2v2l-2 5-4 4-3-3a22657 22657 0 0 0-100-135l5-38c1-10 0-10 8-4zm51-28v1l-2-1-1-1zm9 2-2-1-2-2 2 1zm361-1 3 24 3 23-28 36a2376 2376 0 0 1-31 39l1-17c0-16 0-16-3-20l-21-14c-17-12-20-14-19-16l14-9a1629 1629 0 0 0 81-46m-347 9-2-1c-1-1-1-1 0 0zm25 15-2-1-2-2 2 1zm5 3-2-1-2-2 2 1zm7 4-3-2c-2 0-3-1-3-2l3 1zm74 8-4-2c-3-3-3-3-1-4l3-2 1 3zm-67-4-3-2c-2 0-3-1-3-2l3 1zm10 5c1 2-5-2-7-4l2 1zm5 4-2-1-2-2 2 1zm17 9 2 2-13-8 4 2zm12 7c1 2-5-2-7-4l2 1zm7 5-3-2c-2 0-3-1-3-2l3 1zm193 48c7 8 7 10-6 26l-33 43-4-4c-2-4-2-5-2-11 1-22 0-29-1-29l-2-1-3-1c-2-1-3-1-4-8-2-9-2-12 0-5 1 4 1 5 2 4 2 0 2 0 1 2l1 3c2 1 3 1 3-1l1-2 1-2 2-1h1c-1-1 1-5 2-5v2h1l4-23 1-6 1-1v-1c2 0 5 11 4 14h1c1-1 2-1 1 1l1 2 1 2h3v3c1 1 1 1 1-1l2-3 3 4 2 3c2 1 2 1 0-3a296 296 0 0 0-14-25 74 74 0 0 0-8-14zm-256-25 1 1 3 1v1l-1 1c1 2 3 2 5 1v1c-3 2-2 3 0 1 3-1 3-1 3 2l-1 2c-2-1-1 2 2 5l2 4c0 1-2-1-8-11-5-5-7-10-7-10zm-34 10c-1 1-1 0-1-1l1-1zm-2 8c-1 2-1 2-1 0l1-3zm53 6-1-1-1-2zm40 57c1 1 1 1 0 0l-2-2zM272 412c-1 1-1 2 1 1l1-1zm-49 49 3 4-1-2-3-4zm590-112-11 24a595 595 0 0 0 11-24m-7 26-5 11c0 2 30 15 33 15 2 0 1-2-4-7s-7-7-15-21l-5-8zm-20 7-12 4-3 1h14c12 0 12 0 11-2v-4c2-2-2-1-10 1m-17 14c-1 1-1 1 0 0l2-2zM375 593l2 2-1-2-3-2 1 2zm8 12 2 2c1 1 1 1 0 0zm-2 119h2l-2-1zm279-22v3l1-2c0-2 0-2-1-1m21 13c-1 1 0 1 0 0 2 0 2-1 1-1zm-237-26v1h1v-1z"/></svg><svg xmlns="http://www.w3.org/2000/svg" version="1.0" viewBox="0 0 1036 1036"><path fill="#b8af90" d="M486 36a467 467 0 0 0-59 7l-10 2a773 773 0 0 0-91 29 552 552 0 0 0-121 75 494 494 0 0 0-101 119l-4 7-4 7-18 36-5 11c-5 11-14 36-19 53l-3 11-4 17-2 8a472 472 0 0 0 11 240l3 8 2 6 2 6a469 469 0 0 0 262 279c18 8 51 20 69 24l8 2a398 398 0 0 0 55 10l18 2h83a527 527 0 0 0 88-16l10-3 20-7 10-3a182 182 0 0 0 20-8 453 453 0 0 0 90-51l10-7a152 152 0 0 0 15-12l8-7a499 499 0 0 0 134-187l4-11 10-29 2-7 4-15 2-8 2-10 2-10 2-12 2-11a525 525 0 0 0-3-148 480 480 0 0 0-60-163l-6-10a399 399 0 0 0-24-35A493 493 0 0 0 652 54l-23-6a518 518 0 0 0-143-13zm30 422v177l-6-3a8252 8252 0 0 0-151-89c-1-1 10-20 17-31l24-40-15-19a702 702 0 0 1-47-57 600 600 0 0 0 36 34l19 17a2413 2413 0 0 0-77-75c5 6 9 11 9 13l8 23c12 31 18 52 18 56-1 4-1 5-3 4-1 0-2 0-1 1s0 1-2 1h-2l-2 1c-1-1-1 0-2 3l-1 4-57-135c-5-14-11-25-12-25l-3-2c-4-3-2 1 2 7 6 7 6 8 10 19a188 188 0 0 0 9 22 75 75 0 0 1 5 14l8 22 11 37c1 6 0 8-2 8l-2 1v5c1-1 2 0 1 1l-1 1v1l-1 1c-1-1-2 0-2 1l-1 1-1 1-1 2v2l-1 1v-2l-1-1h-3c-1-1-1-1 0 0l1 4v2h-4c-2 1-2 1-2-1h-5c-1 0 2 6 11 21l7 11a1448 1448 0 0 1-71-28l4 6 25 37-18-14a2613 2613 0 0 0-42-35l-1-12a11068 11068 0 0 0-16-135c0-2 3-2 43-2h42l79 56 80 54 42-69 45-73zm248-143c-1-1 8-1 40-1h42v3l-1 11-5 41-7 63-4 30c0 2-4 6-32 29l-22 17c-7 6-7 6-3 0l27-39-13 5c-21 10-58 25-59 25l5-9 18-30c-5 7-7 8-8 8l-3 1h-2c0-2-1-3-4-5h-3l-1-4c1-2 0-3-2-2l-2 1c-1-1-1-1 1-1l-1-1c-2 0-2-1-2-2 0-2 0-2-1-1v-4c0-2-2-1-1 1l-2-1c-2-2-3-4-2-5l4-10 6-20a178 178 0 0 0 7-19l1-1 1-6 1-2v-2l1-3 2-6 2-2v-2l3-7 5-12 4-10 2-6 3-7c1-3 3-7 2-8l1-1 2-1h-1l-1-1v-2a4604 4604 0 0 1-71 164c1-4 0-9-1-8l-1-1c0-1-1-2-2-1l-2-1v-2l-1-1h-1c-2 3-4 2-4-2a709 709 0 0 1 37-95l-2 2-7 8-3 3-2 2a178 178 0 0 1-28 33h1l-3 1v1a2810 2810 0 0 1-41 50l-2-3-4-5-21-37a3965 3965 0 0 1 160-110M314 531a5020 5020 0 0 0 43 14l-7 2a204 204 0 0 1-49 10l15 23 3 5c15 20 17 24 15 23l-3-2c-2 1-4-1-2-1h-1c-1 1-3-1-4-1-4-3-6-3-5-2l1 2c1-1 2 0 2 1l3 1 1 1 1 1 1 1-29-16-17-9 4-38c0-2 4-2 25-7l14-3h-7l-12 2-6 1c-5 1-5 1-18-10l-14-11c-1-2 16 3 46 13m447-12a461 461 0 0 1-29 21l-9-3-14-1v1l31 6c6 1 5 0 8 21l2 16c0 3-1 3-12 10a188 188 0 0 1-36 19s-2 3-6 5c-6 3-6 3-4 0l10-14a426 426 0 0 1 29-43h-6c-6 0-21-3-42-9-11-3-12-3 9-8a1579 1579 0 0 0 69-21m-397 57 27 16 53 32 51 29 21 12v129l-4-4c-2-5-76-107-125-176l-28-40zm348 4h-2c-1-1 0-1 1-1zm-378 41 41 26-14 11a218 218 0 0 0-18 13l-1 2v-2l-1 4c-1 2 0 3 1 2 1-2 3 0 3 2v2l1 2 2 3c1-1 1 0 2 1s0 3-2 6l23-21c13-14 25-25 26-25s2 2 4 18c1 12 2 14 3 13s1-1 1 1a839 839 0 0 0-10 42l-10 42c0 3-5 11-6 11l-13-15-84-110-8-10 3-23c4-32 3-29 10-24 3 3 24 16 47 29m417-31 3 25 3 24-11 14a53032 53032 0 0 1-93 121c-2 0-7-8-7-10l-7-36a1414 1414 0 0 1-11-52l2-6 2-12 1-7 2-4a1401 1401 0 0 0 53 49v-3l1-1c-1-2 0-4 1-4v1l1 1 1-3c-1-3 1-6 3-6 1 0 2 4 2 15v16l1-16c0-19 2-15-22-32l-18-13c-2-1-2-2-2-3l13-9a2597 2597 0 0 0 82-48zm-410 26-5-1c-7-4-8-6-1-3zm65 58-1 1 1-4zm114 115-2 2c-1 1-1 1 0 0zm298-344-11 17-2 3 3-3a368 368 0 0 0 10-17M327 600l2 2-1-2-3-2 1 2zm388-15h1v-2zm-5 9c-3 2-4 5-3 6l1-1c-1-2 0-3 1-2 2 0 2 0 1-2l1-1 1-1z"/></svg><svg xmlns="http://www.w3.org/2000/svg" version="1.0" viewBox="0 0 1036 1036"><path fill="#a69d6c" d="M492 35a536 536 0 0 0-187 49 480 480 0 0 0-106 793l8 7a509 509 0 0 0 158 88 459 459 0 0 0 225 19l13-2 15-3a467 467 0 0 0 178-79l10-7a152 152 0 0 0 15-12l8-7a492 492 0 0 0 136-193l4-11a515 515 0 0 0 26-208 534 534 0 0 0-37-143c-8-20-19-40-28-56l-6-10a399 399 0 0 0-24-35A496 496 0 0 0 649 53a598 598 0 0 0-85-16c-24-3-46-3-72-2m52 292a39220 39220 0 0 0 59 97l80-55 78-55h86l-1 3-14 117-2 22-2 9-26 22a6007 6007 0 0 1-68 55l6 1c5 2 5 2 6 8l2 19 2 13-60 34 12-19c11-16 12-17 10-18-9-1-43-9-44-11h5c5 1 6 0 4-3v-3c2 0 2 0 0-2s-2-2-1-3l2-4c0-3 0-3 7-3h6l-17-3c-2 0-2 0-1-2l16-6 26-8 44-14c3 0 9-5 13-11a698 698 0 0 1 13-22c-2 3-5 4-4 2v-1l-3 3h2c1 2 0 2-1 1h-4l-2-2h1l1-1v-5l-11 3a1072 1072 0 0 1-41 18c0 1-4 4-8 5-7 4-9 4-4 1 3-2 4-4 2-4l-1-1-1-1v-4l-1-1-1-2-5-4c-5-2-5-5-2-16a374 374 0 0 1 25-72 2534 2534 0 0 1 3-12l-14 35-19 47-17 37-2 5-1-4v-5l-1-1c-1 1-6-1-6-2l-1-1-2-1-1-1h-1c-1-1-6 4-8 8-1 3-1 3 3 10l5 8 4 8 5 7-3 2-10 6-43 25-102 60-5-2-19-12a31703 31703 0 0 1-124-72c-7-4-7-4-11-3l-11 3-5 2 3 1h4l1 1h1l4 3c2 2 2 2 1 4-2 2-2 4-1 4l1 1v2c0 2 1 2 4 1a635 635 0 0 1-41 13l7 11 16 25a1127 1127 0 0 1-59-33c-1-1 4-37 4-39l5-2 5-1-14-13-18-15a17714 17714 0 0 1-61-49l-6-50-9-72-3-26v-3h85l50 35 80 56 29 20 3-5 43-72c41-67 41-67 43-64zM388 590l119 70 10 6 12-7 83-49 51-31 10-5-8 12-28 40-33 45-17 25a24243 24243 0 0 1-71 98l-11-15a36830 36830 0 0 1-144-205zm-70 22 42 25 16 10-3 4c-4 2-4 2-3 4l3 2h1v1c3 0 3 4-1 9-3 4-1 2 9-7 7-8 14-13 15-13 2 0 4 4 4 9l1 2 1-2c0-1 3-2 5 0a8313 8313 0 0 0-21 107c0 1-8 12-9 11l-7-8-37-48-51-68-9-11 2-20 4-25 1-5 5 3zm436 1 3 25-7 11-33 43-44 58-19 24c-1 1-2 0-4-3s-4-8-7-21l-13-57c-9-39-9-35-5-39l4-3 4-3 2-2 15 15 14 12c-2-3-2-12-1-11s3 1 3-1l1-1h1l-6-5c-3-3-6-5-6-7l14-10a2017 2017 0 0 0 81-49zm2-285-7 19 5-10 4-11zm-11 29-4 10 4-9 4-10zm-420 24 2 2-1-2-3-2 1 2zm16 27-2 2c-1-1-2 0-1 3 0 5 2 11 7 22a590 590 0 0 1 32 73c1 1 3-2 16-25 7-11 7-11 5-13l-18-21a631 631 0 0 0-40-41zm344 1-35 41-17 20c-2 2-2 2 3 10a776 776 0 0 1 18 28l5-12 6-16 3-6 12-26c13-28 17-37 15-38l-3-1-3-1zm-378-1 3 9a1218 1218 0 0 1 20 59v12l-5 5-4 6c0 2-1 3-2 3v3c-2 0-1 1 1 3l4 3-7-3-9-6c-3-3-9-6-25-12l-25-10-3-1 3 3 2 2v2l-1 2-1 1h1v1h-5c1 1 0 1-2 1-3 0-3 0-1 3a335 335 0 0 1 15 21l9 3c20 6 34 10 43 14l24 7 14 4c1 1 2 0 3-2l12-22 5-8-2-4-3-5c-1-3-4-3-6-1l-4 3-2 2-2 2v2l1 2h-2c-2 1-2 2-1 3l1 2a633 633 0 0 1-49-109m18 89h-1l-1-1 1-1zm278-70 2 2-1-2-2-2zm4 6c0 2 1 3 2 3l-1-2c-3-5-4-5-2-1zm5 8 1 1zc-1-1-1-1 0 0m181 33h1l1-1h-1zm-3 6c-1 1-1 1 0 0l1-1z"/></svg><svg xmlns="http://www.w3.org/2000/svg" version="1.0" viewBox="0 0 1036 1036"><path fill="#918545" d="m484 36-14 1A476 476 0 0 0 40 449c-4 28-4 38-4 67a481 481 0 0 0 825 336l10-12a485 485 0 0 0 60-568A456 456 0 0 0 648 53a480 480 0 0 0-164-17m45 265a18766 18766 0 0 1 74 123l155-108c3-2 3-2 46-2h43v4a2500 2500 0 0 0-13 103l-5 43-20 17a24217 24217 0 0 0-74 61l6 2c4 1 4 1 5 6 3 24 4 33 3 34l-59 33 19-30c4-5 4-7 0-7l-20-4c-22-6-32-10-27-11l1-2 2-3 3-8 3-6 13-5a1762 1762 0 0 0 70-24h-9l1-1v-5l-2-2h-2v-2l-1-1c-2 0-2 0 0-2v-1c-1 1-2 0-2-1-1-3 0-6 2-6l1-1-9 2q-7.5 3-9 6c-1.5 3-6 5-17 10l-17 7-1-7 2-11 3-13 2-8 1-3 5-13c8-21 3-12-8 16-11 26-16 35-25 49-1 1-1 3 2 7 3 5 3 5 1 7l-8 5-11 6-68 40-66 39c-4 2-4 2-9-1a4316 4316 0 0 0-149-86l3 7c4 9 5 12 7 12 4 0-4 3-27 8-16 4-25 7-25 8l10 16 12 17c2 4 6 6-31-15l-29-16v-5a1220 1220 0 0 0 5-34l5-2 5-1a1588 1588 0 0 0-94-79 5657 5657 0 0 1-18-146v-3h86l5 3 78 55 75 51 14-20a23293 23293 0 0 0 74-122l12 20zM362 574l16 10 52 30 86 51 20-11 47-27 59-35a739 739 0 0 1 30-15 6907 6907 0 0 0-119 166c-27 39-36 51-37 51l-13-17a12308 12308 0 0 0-77-108l-19-26-16-23-23-32c-8-12-10-15-8-15zm-76 18a1888 1888 0 0 0 98 58c5 0 6 0 4 2l-1 1 4-3 5-4 5 4 7 4 3 1-1 1v1l-2 13-17 70-3 16-2 6 5-5c9-10 11-13 5-5a413 413 0 0 0-18 23 5724 5724 0 0 1-103-135c-1-1-1-5 1-22l4-25 1-5zm466 0 5 46-24 33-52 67-28 37c-1 0-7-9-8-14a5179 5179 0 0 0-23-107l7-4 7-4 6 5 4 3q-3-4.5 6-3l4-1c-2-2 1-4 14-12a1599 1599 0 0 0 80-49zm-64 26-2 2c-1 1-1 1 0 0zm-300 25-6 3 7-5zm239 2-2 2v-2l2-1zm-222 96-2 2c-1 1-1 1 0 0zm252-299c-23 26-25 29-25 30l5 9 11 18 6 9 13-33 8-18 11-25-5 9-7 11-2 2-2 3c-2 2-3 2-5 0-1-1-1-1 1-3l1-2-1-1-1-1c-2 0-2-1-2-3s0-3 2-2c2 0 2 0 1-1-2-1-2-6-1-6l1-2v-2l5-7zm8 32-2 2c-1 1-1 1 0 0zm-299-39-1 2-1 1v6l1 3h-2c0-1-1-1-1 1-1 1-1 2-2 1l-1 1 2 1h1c1 1 0 2-1 2l-3-1-1-1-2-2h2c1-1-3-3-4-2l5 12 12 31 7 19a160 160 0 0 0 17-27l6-10-17-19a1184 1184 0 0 0-17-18m-33 39 4 12 5 22 1 8v3c-1 1-32-13-35-16s-14-9-17-9v3c1 3 0 6-1 6l-1 2-1 2-2 2-1 3h-2l-1 2v1c-2-1-8 1-8 2l14 5 29 9c43 13 41 13 42 10l4-8 2-5h-3c-4-3-14-21-21-39-9-21-11-25-8-15m432 40c-1 1-1 1 0 0l2-2z"/></svg><svg xmlns="http://www.w3.org/2000/svg" version="1.0" viewBox="0 0 1036 1036"><path fill="#7b6f2f" d="m484 36-14 1A482 482 0 0 0 66 684 481 481 0 1 0 484 36m44 263 42 70 32 53c2 2 7-1 80-53l79-55h86l-3 30-6 49a1765 1765 0 0 1-10 73l-31 25-45 36-16 13c-2 1 0 3 3 3l4 1a828 828 0 0 1 7 39l-14 8-46 26-8 8c-7 7-9 8-7 5l1-1c1 0 8-7 8-9l2-2c2-1 8-8 15-19l12-18-8-2c-27-6-50-13-47-15l4-9 1-4c2-2 2-2-2-1l-8 5a28739 28739 0 0 1-139 82c2 1 2 2 2 12l-1 14c-2 2 2 2 6 0a30369 30369 0 0 0 153-90l-17 25a840 840 0 0 0-30 45c3-3 6-5 7-4v1l1 1 1 1v1l5 1 5 3-6-6-5-4 10 5 9 6 6-4 15-9a1437 1437 0 0 0 76-46l6 48c0 3-1 5-41 56l-35 45c-19 27-27 36-28 37l-4-4-59-76c-1-1-9 9-38 49l-36 50-33-45-36-51-4-5-2 3a3141 3141 0 0 1-63 79 2161 2161 0 0 1-80-104l-24-33 6-50 11 7a2598 2598 0 0 0 84 52c2 1 3 0 11-4 10-6 10-7 12-5l-1 1h-1c0 2 1 2 2 1 2-1 3-1 7 4l6 5-5-8-16-22-11-16-11-15c-9-12-11-16-10-16l17 10a19500 19500 0 0 0 138 81l-2-7c-2-10-2-20-1-21s0-2-4-5a7230 7230 0 0 0-141-81q3 0 6 9c1 6 2 7 3 7 2 1 2 1 0 2l-9 2a1660 1660 0 0 0-45 13h13l1 1v2c-2 0-2 1-1 2l2 2 1 2h1c1-2 1-2 3 1v3l1 1h1c-1 1 0 1 1 1l1 5 1 3v1l1 4c1 1 1 2-1 2l-2-1-2 1v1c2-1 5 1 4 2l1 1h3l1 1h-2c-2 0-3 2-1 4l2 2s-2 0-3-2l-3-5v-2l-1 1c3 4-5 0-29-14l-30-16c-3 0-3 1 0-24 3-18 2-17 7-18 6-1 7-2 4-4l-26-21-44-35-21-19-5-31-13-116-1-3h86l78 55 80 54c1 0 3-2 5-6l43-71 40-65zM386 564l-3 1c-3-1-2-3 1-3s3 0 2 2m9 7-1 2-1-1v-2l1 1zm0 4-1 1-1-1v-1l1 1zm313 9-2 1c-1-1-2 0-2 2l-1 4v2l-1 1-1-1v-9h2l2-1h3l1-1zm-307 2-4-2h2zm-63 0-2 1v-2l1-1zm60 1v1l-1-1v-1zm-38 37c-3 8-6 9-6 5 0-2 0-2 1-1s3-2 6-8l2-3zm289-173c-2 2-2 2 1 1l2-3zm-10 12c-6 7-8 11-4 11l1-1 1-3 2-3 4-6 4-6zm-248 0 3 4c1 3 0 8-1 8l-1 2v2l-4 4-1 1c-2 1-2 4 0 5s3 0 7-7l5-10-5-6zm-26 12 13 33 10-16-9-7-11-9zm293 6-11 8-3 2 10 17 2-5a755 755 0 0 1 11-29zm37-3a250 250 0 0 1-26 52c-2 0-1 2 2 7l3 6 12-3a1150 1150 0 0 1 36-11c10-3 11-4 6-3-4 0-5 0-6-2l-1-3c1-1 0-2-1-2l-1-2v-1c-1 0-1-3 1-7 0-2-2-1-18 6l-19 8 1-5 2-10 5-17 5-13zm-55 6 4 5c1 0-1-5-3-7-4-5-4-4-1 2m-301 3 5 13 4 17 1 5h1c-1 1-24-9-34-14-5-2-8-2-5 1 2 0 2 1 1 1v1l-1 4-1 3c0 2-1 2-2 2v1c2 2 2 2-1 2l-6 1c-3 0-3 0-1 1l57 18 4-6c3-6 3-6 1-8-3-3-13-19-18-31zm-6 115c5 7 9 12 7 8l-12-15zm303 43 1 1 1-1-2-1zm-225 8a782 782 0 0 1-10 46l-2 9-1 10 1-2v-1l5-11v-2l1-1c1-1 4 3 3 4h1l1-2v-1l2 1v3c1-1 5 2 4 3h3v1c-1 0-1 1 1 1l1 2 2 1 4-2 5-8 5-8 2-2c3 0 1-4-7-16l-13-19c-6-8-7-10-8-6m194 17c-13 19-16 24-13 24l1 1c-1 1 2 5 3 4 1 0 3 4 2 5h1c1-1 3 2 2 3l2 2 2 2 2 1v2l1 1 1 2c1 2 2 2 2 1l-1-1 1-5 2-2 2-2h4c0 1 3-1 3-3l2-1h1v1l2-1c0-1 1-1 2 1v2l1 1h1l1 2a1775 1775 0 0 0-12-58zm29 47c-1 1-1 1 0 0l1-2zm-239 8h1v-2zm307-136v1h1c0-2-1-3-1-1"/></svg><svg xmlns="http://www.w3.org/2000/svg" version="1.0" viewBox="0 0 1036 1036"><path fill="#5f5832" d="M484 36a431 431 0 0 1-38 4 481 481 0 1 0 38-4m40 256 42 70 36 61c2 1 17-10 80-54l79-55h86l-13 108-3 25-3 19-29 23c-49 39-64 52-64 53l6 1 4 1 3 20c1 10 2 19 1 20l-31 18c-28 15-30 17-36 23l-7 7-3-5c-4-11-9-18-13-20s-5-4-3-6l1 1v2h2v-2l1-2v-3l1-1c1 1 7-7 7-9 1-3 3-6 6-7h26c12 2 7 0-9-3-16-4-25-7-33-11-4-2-4-3-3-3l2-4 2-5c2-3 2-3 0-3l-5 3-70 42-68 40v29l7-4a36431 36431 0 0 1 151-88 1046 1046 0 0 0-46 68l6-5 10 6c10 6 10 6 13 4l14-9a1535 1535 0 0 0 80-48l6 48c0 3-3 8-41 56l-35 46-28 36a2655 2655 0 0 0-64-80l-21 27-52 72a2870 2870 0 0 1-73-100l-2 2-27 34-28 35-8 10a1033 1033 0 0 1-48-62c-41-53-56-73-56-75l7-50 3 1c2 2 2 2 0-1 0-2-2-3-2-3-1 0-1-1 1-23 3-19 2-18 7-18l5-2v-2l-92-76-5-35-13-112-1-3h86l78 55 80 54 20-31 43-71 25-40 7 11zM366 478a2847 2847 0 0 1 12 30l8-14c2-3 2-3-7-8l-10-9c-3-3-4-3-3 1m289 5c-6 4-10 9-10 9 0 2 8 15 9 15l2-4 6-16 4-11zm-340 26 7 4c6 4 7 5 7 7 0 4-4 10-6 11-2 0-2 0 1 2 2 1 10 3 11 2l2 1 20 7 4-6c3-6 3-6 1-8l-7-9-5-8 1 2 2 5v5l-32-13zm366 3-7 11-6 9 3 5 3 6 2 1 10-4 8-3 3-1c4 0 11-2 11-3l-3-4-2-4-1-2c-2-1 2-8 4-9l2-1-13 5c-15 7-17 7-17 5l3-9 1-4zm-307 45 1 6 2 1c2-1 2-1 2-3 0-3 1-4 2-2l3 2 3-1-14-8zm-30 18c-16 4-16 4 1 3h14c3 2 3 2 1-1s-3-5-1-5q4.5-3-15 3m22 12a90 90 0 0 0 6 10l3 5c2 0 2-2 0-4l-7-10c-6-8-7-9-2-1m-77 4a735 735 0 0 0 86 55c2 2 3 1 12-4l10-6 5 4a3014 3014 0 0 1-25-37l-5 4c-3 2-5 4-9 14l-7 11-7-7c-6-6-8-8-28-19l-32-17c-2 0-2 0 0 2m165 10v1l2 1c2 0 2 0 1-2l-3-1zm4 3 2 1 5 3 5 3 4 3 8 5 5 3h-1l-1 1h2l2 1 2 2h1l1-1c1 2-1 3-4 2h-5c2-3 1-4-2-1l-5 10-1 2-1 2a492 492 0 0 0 37 20l-4-26c0-2-1-3-20-14l-29-16zm49 49c1 3 1 4-1 1h-2l-2 1 3-4zm-36-33-1 3v9l1-1v-1c2-1 2-2 1-6l1-4 2-1c0-2-3-1-4 1m-59 33-2 7-2 9c0 2 0 1 3-2l5-5c3-1 3-1 3 2l-2 5c-2 1-2 2-1 2 1-1 2 0 1 1l1 2c1-1 1 0 1 1s0 2 2 1 1 0 1 2c-1 1 0 2 1 1v-2h1l3 1c2 0 7 5 9 7l1 1a610 610 0 0 0-25-33m204 3a572 572 0 0 1-22 33c2 1 4 0 8-4l4-2 1-1 1-2 3-1 3-1c1 1 2 1 3-1v-5c-2-3-2-5-1-5v-3l2 2 4 4 1 3 1 1-2-12-3-10z"/></svg><svg xmlns="http://www.w3.org/2000/svg" version="1.0" viewBox="0 0 1036 1036"><path fill="#3a3517" d="M479 36A484 484 0 0 0 50 633a492 492 0 0 0 179 268 479 479 0 0 0 764-446A477 477 0 0 0 521 35zm81 317 44 70 74-51 79-55 5-4h42l43 1-2 19a16932 16932 0 0 0-11 91l-3 21c-2 21-1 19-9 25l-65 54-21 16c-1 2 0 2 4 3l6 2a585 585 0 0 0 8 68c3 23 4 26 2 28l-11 15-31 40-59 77c-2 2-2 2-5-1l-60-76h-3l-29 40-42 58-48-65-24-34-6 5-54 68-6 6-23-28-28-37-53-71c0-9 6-52 7-52v-3l2-21 2-17 6-2 5-2-21-17a21455 21455 0 0 1-73-60l-8-71-9-75-1-5h83l82 56 79 55a2928 2928 0 0 0 88-143c1 0 21 32 44 72M366 477l6 16 6 15 5-8 5-8-8-6-10-8c-3-2-5-3-4-1m289 6-10 9 9 15 3-8 8-21c2-3 0-2-10 5m-324 35 10 6c1 2-4 5-11 8-3 1-3 1-1 2h7c6-2 9-1 9 1v3l5 3c7 2 8 2 8 1l3-6 3-5-3-3-5-5c-1-2-1-2-1 0 1 1 0 2-1 2l-20-8-12-5zm355 5-11 3 1-4c3-5 2-4-3 3l-5 7 3 4 3 6c0 1 2 1 9-1 8-3 8-3 5-3s-4-1-5-3c0-3 1-3 9-1h11l-1-1h-1l-5-3c-7-4-8-6-2-9l3-3-11 4zm-31 31-8 5-130 77v29a662 662 0 0 0 57-34l44-26 39-23 15-9-12-6c-8-4-12-6-11-7l2-1c3 0 9-6 8-7zm-281 0 2 1c2 1 2 1 1-1zm8 4c0 2 3 3 3 2l-2-2zm-37 17-4 2 6-1 7-1 3-1c0-2-5-1-12 1m330 0c-3 2-2 3 0 2h9c15 2 13 1-6-4zm52 22-26 15-12 6-7 7-7 7-6-11c-5-10-6-12-11-15l-5-3-10 14-13 20c-6 8-6 9-1 4 3-3 5-5 6-4l11 5c7 5 9 6 10 4l15-9a570 570 0 0 0 72-48zm-429-2c-1 1 0 2 2 1l1 1 1 2v1l-2-1c-2 0 19 14 55 35l20 12c2 1 4 0 13-5l10-6 6 6 5 5-6-8-15-22-9-13-5 3c-5 3-6 5-11 14l-7 12c-1 0-6-4-9-9-2-3-9-7-24-15-25-15-25-14-25-13m113 60-1 5-1 4 1 2 1-3 3-4c2-2 2-2 1-5s-3-3-4 1m206 0-2 4h2l3 3c1 2 1 2 1-1l-1-6v-3zm-9 12 1 1 1-1v-1z"/></svg><svg xmlns="http://www.w3.org/2000/svg" version="1.0" viewBox="0 0 1036 1036"><path fill="#0b0b0b" d="m489 36-16 1a480 480 0 1 0 15-1zm37 259a8724 8724 0 0 1 78 128l153-107 4-3h86v7l-5 39-5 42-8 64-26 21-46 38-22 17 5 2 6 1 9 72 3 23-8 10a8110 8110 0 0 1-95 125c-3 2 2 7-37-42l-30-37-10 15-62 85-28-38c-42-59-43-61-45-61l-11 13-28 35a1365 1365 0 0 0-26 31l-15-19-18-22-37-50c-31-39-35-45-35-48a785 785 0 0 0 9-70l3-20 5-3 5-2-69-57c-21-16-24-19-24-22l-10-78-5-42-3-27c0-2 1-2 43-2l43 1 79 55 79 55a47066 47066 0 0 0 88-144zM367 478l2 5 1 4v1l3-2c2-3 2-3-2-6zm5 7h-1l1-2zm291-6c-1 1 0 1 0 0 2 0 2-1 1-1zm-288 6 1 1c0-1 2 0 3 2l2 1c1 0 0-2-2-3s-3-2-4-1m276 3-4 2v2c1 1 2 0 2-1l3-3c2-1 1-2-2 0zm-270 5c-1 4-1 4 1 4v-1h1c1 1 2-1 3-2v-3c-3-2-4-1-5 2m271 9c0 4 2 5 2 2v-4c-1-1-2 0-2 2m-274-1c0 3 2 3 2 1 1-1 0-2-1-2zm-31 24 2 3c0 1 1 2 3 2 3 1 5 5 3 9-1 2-1 3 1 3l4-4 3-7-6-5-7-2c-7-3-7-2-3 1m331 1c-10 3-11 4-6 10l2 6h3c2 0 2 0 1-2-3-3-2-9 0-9l4-4 2-3zm27 84c-13 7-16 9-22 15l-8 7-6-11c-5-10-7-12-15-16-1-1-13 15-25 34l-2 3 3-3 4-3 11 6c9 5 9 5 12 3l17-10a487 487 0 0 0 42-28c-1-2 0-2 3-2v-1l1-2zm-332-3c-4 2-5 5-10 14l-7 12 6 5 11 6 4 3 10-6 11-6 4 4c3 3 2 0-5-10l-18-25zm-51 1 4 3h-3v2l9 7 22 12-13-14z"/></svg><svg xmlns="http://www.w3.org/2000/svg" version="1.0" viewBox="0 0 1036 1036"><path fill="#080808" d="M503 36h28l-14-1zm-18 1h7l-3-1zm53 0h9c2 0 1-1-4-1zm-72 1c-4 1-4 1 0 1l9-1 6-1h-5zm87 0 8 1 9 1c4 0 3 2 0 1h-17c-5 0-5 1-3 1 4 0 4 0 4 3 0 2 0 2-1 0l-1-2v2c0 1 0 2-1 1 0-2-5-1-5 0s1 2 2 1l4 3h-7l-4-2h-2l1 1 1 2-2 1h-2l3 1 4 1 5 1c4 0 4 1 0 2-1 1-1 1 1 1 3 0 3 0-1 1s-3 1 4 1h8l-10 1-17 1c-5 1-3 1 10 1h17l-16 1-16 1h5c3 0 4 0 3 1l-10 1h-10l12 1c11 1 11 1 3 1a739 739 0 0 1-35 1c8 1 4 2-11 1h-16l11 1c10 2 10 2-10 1-12 0-19 0-17 1 4 1 3 1-4 1s-9 1-3 2h-6l-9 1 3 1h-3c-9 0-13 1-4 2 5 1 4 1-5 1h-12l9 1c7 0 8 0 4 1l-5 1h5l4-1h16c2 1 0 1-6 1s-8 0-6 1 0 1-6 1c-5 0-7 0-6 1 2 1 2 1-2 1h-6v1c2 1 1 2-3 1l-4 1c0 1 17 2 18 1l-4-1-5-1h6a226 226 0 0 1 18 2c-4 0-5 0-4 1s0 1-5 1c-4 0-5 0-4 1 2 1 1 1-3 1s-5 0-3 1 1 1-3 1-5 0-4 1 0 1-4 1l-4 1c1 1 0 1-3 1l-4 1-3 1-3 1 6 1c4 0 5 0 3-1-1-1 0-1 4-1 5 0 6 0 4-1-1-1 1-1 6-1 8 1 11 2 4 2-3 0-4 0-3 1s1 1-2 1c-2 0-3 0-2 1 2 0 2 0 1 1s-1 1 1 1l3 1-5 1c-4-1-4-1-3 1s2 1-2 1c-5-1-7 0-3 1 1 1-1 1-3 1l-5 1c1 1 0 1-3 1l-3 1c1 1 0 1-3 1h-3l2 1 8 1c5 0 5 0 1-1-3-2-3-2 4-1 7 0 8 0 4-1-7-1-6-2 4-1 6 0 7 0 4-1-7-1-5-2 6-1l10-1 4-1c5 0 5 0 1 1l-4 1c1 1-1 1-6 1l-2 1c1 1-6 2-7 1l-1 1-11 4a230 230 0 0 0-48 20 515 515 0 0 0-5 1 164 164 0 0 0 20-11l-3 1-2 1-3 1-2 1-2 1c-2 0-3 0-2 1s-1 1-2 1l-2 1c1 1-1 1-3 1l-2 1c1 1-1 1-2 1l-2 1c1 1-1 1-2 1l-3 1-2 1-2 1-3 2-4 2-2 1-2 1-1 1-2 1-3 2-20 12c-2 2-4 2-5 1s-1-1 1-1l2-1c-1-1 0-1 2-1s2 0 1-1-1-1 1-1l2-1 2-1 2-1c-1-1 0-1 1-1l2-1c-1-1 0-1 1-1l2-1c-1-1 0-1 2-1l2-1c-1-1 0-1 1-1 2 0 2 0 1-1s0-2 2-1l2-1c-1-1 0-2 2-1l2-1c-1-1 0-1 2-1 3 0 2-1-3-2-4-1-6 0-2 1 1 1 0 1-2 1-4-1-5 0-2 1 1 1 0 1-2 1-4-1-4-1-2 1s1 1-1 1c-3-1-3 0-3 1 1 1 0 1-1 1-2-1-3 0-3 1 1 1 0 1-2 1-2-1-3 1 0 1 1 1 0 1-1 1-3-1-3 0-3 1 1 1 0 1-1 1-3-1-4 1-1 1 1 1 0 1-2 1-4-1-5 0-2 1 1 1 0 1-1 1-2-1-3 0-3 1h-2l-7 1c-3 0-3 2 0 2 1 0 2 0 1-1h5c2 1 2 1 0 1l-3 1c1 1 0 1-2 1h-7l-2 2h-1l-1 1 2 1c1 0 2 0 1-1l1-1s2 0 1-1h5c2 1 2 1 0 1-3-1-4 0-1 1 1 1 0 1-1 1-2-1-3 0-3 1h-4c-2-1-7 1-7 2l2 1 1-1h5c2 1 2 1-1 1s-2 0-1 1c2 1 2 1 0 1l-5-1c-2-1-3 0-5 1-1 2-3 3-3 2l-1 1s0 2-1 1l-1 1-1 2-4 3-4 2-1 1c0 1 0 2-1 1l-1 1 1 1h2v-1l2-1c1 1 1 1 1-1l1-1v-1l1-1 2-1 1-1h2l2 1c1 1 0 1-1 1-3-1-4 0-1 1 1 1 0 1-1 1-3-1-4 1-1 1 1 1 0 1-1 1l-3 1v1c-1 0-2 1-1 2 0 2 0 2 1 1l1-2 1-2h1l2-1 2-1h1l2-3 1-1 1-1h1l2-1-3-1c-1-1-2 0-2 1 1 1-3 2-4 0l1-1 1-1 1-1 1-1 1-1 1-1h6c1 1 1 1-1 1-3-1-4 0-1 1 1 1 0 1-1 1-4-1-4 0-1 1h4l2-1c2 0 2 0 1-1s-1-2 2-1l2-1c-1-1 0-1 1-1l1-1 2-1c2 0 2 0 0-1-1-2-1-2 1-1l3-1c-1-1 0-1 1-1 4 0 3 1-3 5l-5 5h-1l-2 1h4l13-8-6 5-3 3-1 1h-2l3 1c3 0 3 0 2-1s-1-1 1-1 3 0 2-1h6c1 1 1 1-1 1l-3 1c1 1 0 1-1 1-2 0-2 0-1 1s1 1-2 1c-2 0-2 0-1 1s2 1-1 1c-2 0-3 0-2 1 3 0 2 2-1 1-2 0-2 0-1 1 2 1 7 0 6-1l3-1c2 0 2 0 0-1-1-1-1-1 1-1l5 1c2 1 2 1-1 1-2 0-2 0-1 1l-2 2-3 2-4 1h-3c5 1 4 2-1 1l-5 1c2 1 12 2 12 0h1l4-2 4-2c2 0 2 0 0 1-2 0-2 0-1 1s1 1-1 1-2 0-1 1c2 1 2 1-2 1-3 0-3 0-1 1l1 1c-3 0-1 2 3 2 8 0 6 2-3 3l-10 1-4 1h4l-3 1-7 1h8c7 0 8 0 8 2h1l2-1v1c-1 1 0 1 3 1l5 1 3 1c4 0 4 2 0 2-3 0-3 0 0 1s3 1-1 1l-5-1 1-1h1c-1-2-17-3-22-1-3 1-3 1 4 1h7l-7 1c-6 0-7 1-3 1l12 1c7 0 7 0 2 1h5c7 0 9 0 7 1-4 1-4 1 0 1 3 0 6 2 4 3l2 1 3 1-4 1c-3 0-4 0-3-1s1-1-2-1-3 0-2-1h-15c-7 1-6 1 5 1h8l-6 1-7 1h8l11 1c4 0 5 0 3 2-1 1-1 1 5 2 5 0 6 0 3 1-2 1-2 1 1 1 4 0 4 0 2 1-3 1-3 1 0 1l3 1 2 2 2 2c-1 1-1 1 1 1l3 1c1 1 0 1-1 1h-1l3 1c3 0 3 0 1 1-1 1-1 1 1 1l5 2 4 2v1c-1 1-1 1 2 1l3 1h5c5 0 5 0 2 1s-3 1 1 1c5 0 5 0 2 1-2 1-1 1 3 1h5c-1 1-1 1 2 1l4-1h7c5 0 6 0 3-1h3a283 283 0 0 0 21 1c2 0 3 1 3 2h1l4-1c3 0 4 0 4 2-1 1 0 1 1 1l-1 1c-2 1-2 1 0 1s2 0 1 1l-1 2v3l-1 1 5 1c4 0 5 0 3-1-1-1-1-1 2-1l4-1h3l4 1c4 0 4 0 2-1s-2-1 1-1c2 0 3 0 3-2h2l2-1 2-1 1-1q3 0 9-6l2-1v-1l1-1 2-1h1l1-1 2-1c2 0 2 0 0 1s-2 1 1 1l7 1h4l-5-1-5-2 6 1c5 0 6 0 4-1-1-1-1-1 1-1s3 0 1-1h-3l-7 1-6-1h6c5 0 5 0 1-1s-4-1 2-1h5l-4-1-3-1c2 0 2 0 1-1l-1-1h1l1-1 2-1c1 0 2 0 1-1l4-1 5 1-1 1h-3c-1 1-1 1 2 1l3-1c0-1 0-2 1-1h1l2-1v1c-2 1-1 2 2 2s3 0 2-1-1-1 2-1l3-1 4-1c3 0 4 0 3 1-2 0-1 2 1 2h-4c-3 0-4 0-3 1 2 1-5 2-9 1h-4l3 1 3 1-4 1-5-1 4 2 2 1-3 1-3 2-2 2-1 1-2 1h-5l-8-1c-2 0-1 1 3 1l8 2-2 1-13-1 1 1-2 1-1 4-1 3-1 1 1 1 3 1h-3c-2 0-2 0-1 1s2 1-1 1c-2 0-2 0 1 2l4 1-4-1h-4l4 1c3 2 3 2 1 2s-2 0-1 1l2 1-1 1c-1-1-1 0-1 1l-1 3c-2 0 2 3 4 3v1l-1 2h1l1-1 2-1c1-2 3-3 5-3s2 0 0-1c-1-1-1-1 1-1l2-1h2l1 1-1 3-1 2c-1-1-1 0-1 3s0 3-1 2-1-2-1 1 0 3-1 2-1-1-1 1l1 3c2 0 5-4 4-5h3l2-1v-1l1-1 1 2c0 1 0 2-1 1l-1 2c1 3 0 3-1 3-1-1-1 0-1 2 1 1 0 2-1 2h-1l2 1c2 0 6-4 6-7l4-4v-1l1-3c1-2 2-3 1-4l1-1c1 1 2-1 1-3v-1c2 1 2-1 1-4-1-2-1-2-1 0 1 2 0 3-1 3l-1 2v2l-1-1-1-2v-1l1-1c-1-1 0-1 1-1v-2l1-1v-1l1-2-1-2-1 1c1 1 0 1-1 1l-5 3c-1 2-3 2-4 2v1h-4c-2-1-2-1 0-1 2 1 3-1 0-1-1-1 0-1 2-1s2 0 1-1v-1c2 0 4-3 3-4l3-1c2 1 4 0 6-2l2-3 1-1v-2c-2-1-3-1-2 1l-1 1h-1c0 1-1 2-2 1s-1 0-1 1h-5c-2-1-2-1 1-1h3l-2-1c-2 0-1 0 1-1l2-1-2-1h3c2 0 2 0 1-1-2-1-2-1 0-1s2 0 1-1-1-1 1-1 2 0 1-1-1-1 1-1 2 0 1-1-1-1 2-1 3 0 1-1l-2-1h6c3 0 3 0 2 1s0 1 2 1l6 1h-5c-9 0-9 1-1 2l6 1h-7c-8-1-7 0 2 2l6-1c-1-1 0-1 1-1h3c1 2 4 3 4 1l-2-1-2-1v-2l4-1c4 0 4 0 2 1s-3 1-2 3 2 1 2-1 1-1 1 0c0 2 1 2 4 2 4 0 4 0 2 1s-2 1 0 1 3 0 2 1 1 1 4 1c4 0 4 0 1 1l-3 1h3c2 0 2 0 1 1v1l3 1c1 0 2-1 1-2l1-1c3 0-1-3-5-3-3-1-4-1-3-2l2-2c-1-1 0-1 2-1 3 0 3 0 2-1l-6-1h-4l3-1c4-1 4-1-1-1h-4l4-1h5l-5-1-4-1 6-1c4 0 5-1 2-1l-4-1h6l7-1c1-1-2-1-9-1-12 0-14-1-5-1 6-1 5-2-2-2l8-1 11 1c-3 1-3 1 0 1l4 1 3 1c2 0 2 0 1 1-2 1-2 1 1 1l3 2c-1 1 0 1 1 1 2 0 2 0 1 1s-2 1 0 1 5 2 5 4l2 1h2l-2 1c-1 1 0 1 3 1 4 0 5 0 3 1s-2 1 1 1l6 1c2 0 3-1 3-2h1l1-2c0-4 4-5 9-2 11 6 13 7 19 6h9l4-1h3l3-1 6-1 7-1h1l1-1 3-1 3-1 2-1c2 0 2 0 1 1s-1 1 1 1c2 1 2 1 1 2s-1 1 2 1c2 0 3 1 3 2 1 3 1 3 4 2h4-1l-1 2-1 1v1l1 1-1 1 4 1h3l-4 1c-3 1-3 1-1 1 3 0 3 0 1 1-3 0-3 2 1 2 2 0 2 0-1 1s-3 1-1 1h2l-2 1c-3 1-3 1 0 2l6-1h3l-2 2-3 2c-2 2-2 2 2 2l6 1c2 0 2 0 0-1s-1-1 1-1 3 0 2-1l2-1c1 0 2 0 1 1-2 0-1 2 1 2 1 1 0 1-1 1-3-1-4 0-2 1 1 1 0 1-1 1h-2l-1 1-1 1 3 1 1-1h3c3 0 3 0 1-1-1-1-1-1 2-1l5-2 7-5 3-4c-1-1-1-1 1-1 1 0 2 0 1-1l1-1c1 1 6-2 10-5l3-1-1-1c-1-2-1-2 2-1 5 0 5-1 0-2-3-1-3-1 1-1 6 1 6 0 3-1-2-1-2-1 2-1 3 1 4 0 3-1s-1-1 2-1c3 1 4 0 2-1h3c5 0 5 0 2-1l-3-2h4c3 1 4 0 2-1-1-1 0-1 2-1 4 1 4 0 1-1-2-1-2-1 2-1s4 0 2-1-4-1-6 1l-3 1h-2l-2 2h-1l-6 3c-5 3-6 3-8 2-1-1-1-1 1-1 3 0 3 0 2-1s-1-1 2-1c4 0 4 0 1-1-2-1-2-1 2-1s5 0 2-1-2-1 2-1 5 0 3-1c-1-1-1-1 1-1 4 0 3-2-1-2h2c8 0 4-2-4-3l-4-1 2-1 3-1 3-1 2-1v1c-2 1 0 2 8 2l5 1-5-1-6-1 5-1c4-1 4-1 1-1l5-1c7 0 8 0 5-1l19-1a252 252 0 0 0-23-1l-7 1h-7l6-1c6-1 6-1 2-1-3-1-3-1 2-1 4 0 6 0 5-1-4-1-2-1 4-1 9 0 9-2 1-2l7-1 30-1-5-1-5-1h-12c-13 0-13 0-3-1 10 0 10 0 5-1l-11-1 9-1h14l-11-1-13-1 12-1h12c-3 0-2-2 2-2h3l-3-1c-3 0-3 0 2-1 5 0 5 0 2-1l-7 1-5 1c-3 0-3 0 0-1l1-1 2-1c3-1 3-1-5-2l-8-1h18l-7-1c-6 0-7-1-3-1 5 0 7-2 2-2l-3-1h3c4 0 3-2-1-2s-4 0-1-1 2-2 0-2c-4 0-3-1 1-1l3-1 2-1 2-1h-4c-3 0-4 0-3-1 4-1 4-2 0-2h-4l4-1c2 0 3-1 1-1l-2-1h4c2 0 3 0 2-1-2 0-2-1 1-2 4-2 8-3 7-1l2 1 2-1 3-1 4-1c0-1-2-1-7 1l-2-1 4-1 2-1h-4c-2 0-2 0-1-1l3-1-4-3-3-3 2-1c1 0 2 0 1 1l2 1c1 0 2 0 1 1l2 1 2-1c1-1 0-1-1-1l-1-1v-1l-9-7-4-3-7-6-3-2-4-3-4-3-4-3-4-3-4-3-5-3v-1c1-1 1-1-1-1l-2-1-2-1c-3 0-2-1 1-1 1-1 2 0 2 1l1 1c1-1 5 1 5 3h2l2 1h6l-3-1h-1c2-2 2-2 0-2l-2-1v-1l-2-1-1-1-3-2-3-2-4-3-3-3-3-1-3-2-1-1-2-2v-1c1-1 1-1-1-1l-3-1-2-1c-2 0-2 0-1-1s1-1-2-1-3 0-2-1 1-1-1-1l-3-1-2-1-2-1-2-1-2-1c1-1 0-1-1-1l-2-1-3-1c-3 0-3 0-2-1s1-1-2-1-3 0-2-1 1-1-2-1c-3 1-5 0-3-1h-1l-6-2c-3-1-3-1-2-2h-2c-3 0-4-2-1-2 1-1 1-1-2-1-5 1-5 0 0-2h-3c-5 0-5 0-2-1l3-2h-3l-4 1c-3 0-3 0-2-1l4-1h1l2-1c1-1-1-1-4-1-4 0-5 0-3-1 1-1 0-1-3-1s-4 0-3-1 0-1-3-1c-2 0-4 0-3-1s-1-1-3-1l-3-1c1-1-2-1-4-1-3 0-4 0-3-1s3-1 8 1l9 3 4 1a258 258 0 0 0 29 9c-1 1 0 1 2 1l3 1 4 1c3 0 3 0 1 1s-1 1 2 1 4 0 2 1-1 1 2 1 4 0 3-1l-1-1-5-1c-2-2-5-3-6-2l-1-1v-1l-4-1-10-5-4-2-4-1-1-1-3-1c-2 0-2-1-1-2s2-1 4 1l3 1 5 1 7 2 1 1 2 1h2l4 3c5 2 7 1 4-2l-1-1c1 1 0 2-1 2l-1-1-2-1c-2 0-2 0-1-2h-1c-1 1-1 1-2-1l-2-1h-2l-1-3c1-1 1-1 0 0v2h-1c-2-2-4-3-3-1h-1c-2 0-2 0 0-2h-1l-3 1-2-1 1-1h1c0-2-1-2-2-2l-2-1h-1v2l-1-3h-3c-3 1-4 1-3-3h-3v-1l-1-1h1l1-2c1-1 1-1 1 1s0 1 1 0h1c-1 2 0 2 2 2 1 0 2 0 1 1l-2 1h-2c-1 2 4 1 6-1l1-1c-1 2 0 2 1 2 6 0 1-3-9-6-12-4-12-4-12-2l-2 1v-1a312 312 0 0 0-103-21m13 4-2 1-3 1c0 1-1 1-1-1v-1h1l3-1zm14 0h-4c-1-1 0-1 2-1zm7 1h-2c-1 0-2 0-1-1zm6 1h-2v-1zm-24 2-1 2c0 2-1 0-1-1l-2-1-1-1c1-1 5-1 5 1m30-1h-2v-1zm-39 6h-2c-1-1 0-1 1-1zm69 0-1 1-1-1v-1zm8 2-1 1-1-1v-1zm7 2-1 1v-1l1-1zm6 5c-2 1-2 1-1-1l2-1zm14 1c-1 4-2 4-3 2l1-2h1l1-2v3zm-94 5h-2v-1zm58 3h-2c-1-1 0-1 1-1zm33 1h-3l2-1zm-26 1h-4c-1-1 0-1 2-1zm9 2h-4c-3 0-4 0-3-1 2-1 7 0 7 1m23-1h-3l2-1zm4 1 1-1c2 1 1 3-1 3l-2-2zm-209 3h-2c-1-1 0-1 1-1zm3 5h-4c-1-1 0-1 2-1zm-25 1h-2v-1zm17 0-7 1-7-1zm-10 6h-3c-1-1 0-1 2-1 1 0 2 0 1 1m-8 2h-6l-8-1zm-13 12h-3c-5-1-5-1-1-1zm9 3h-2v-1zm-13 3 2 1-5 1c-5-1-6-2-3-2 1 0 2 0 1-1h1zm3-1h-2v-1zm6-1c0 1-4 2-5 1l2-1zm9 7h-3c-1-1 0-1 2-1 1 0 2 0 1 1m-26 1h-2v-1zm10 1h-2v-1zm308 12h-2v-1zm4 2h-2v-1zm-325 1h-2v-1zm-12 1h-2v-1zm340 0h-2v-1zm3 1-2 1v-1zm-348 1h-3c-1-1 0-1 2-1 1 0 2 0 1 1m352 2h-1l-2-1h2zm-357 0h-4c-1-1 0-1 2-1zm-5 2h-4c-1-1-1-1 2-1 2 0 3 0 2 1m-6 2h-4c-1-1 0-1 2-1zm-5 2h-2c-1-1 0-1 1-1zm7 4h-2c-1-1 0-1 1-1zm-5 2h-2v-1zm-9 5-1 2-1-1 1-1zm-9 3h-2v-1zm0 1-1 1h-2l2-1zm-4 2-7 4c-2 0 0-1 2-2zm415 0-1 1v-1l1-1zm-447 1-8 5 3-3zm453 3-1 1-1-1 1-1zm-431 1-2 1v-1zm434 1-1 1-1-1v-1zm-438 1-2 1v-1zm-28 0-1 1h-2l2-1zm469 0-1 2-1-1 1-1zm-446 3-12 5 13-7zm-28 0-3 2 1-1c2-2 4-2 2 0zm13 0h-2v-1zm463 0 2 1 1 1c-1 1 0 1 1 1l2 1c-1 1 0 1 1 1l2 1c-1 1 0 1 1 1v1c-1 1-2 0-5-2-7-6-8-7-6-7zm-481 3-2 1c0 1-1 1 0 0zm9 2c-3 2-4 3-4 1l6-3zm11 0h-2v-1zm-31 1-2 2c-2 2-3 2-5 1-1-1-1-1 1-1l2-1c-1-1 0-1 1-1zm29 1h-2l-2-1h2zm-24 0-2 1c0 1-1 1 0 0zm11 1-1 1-2-1v-1zm11 0-1 1h-2l2-1zm-14 2-2 1-2-1c-1-1 0-1 1-1zm10 1c0 1-4 3-6 2s-2-1 0-1l3-1 2-1zm-13 1-2 1-2-1 1-1zm-3 2c1 1 1 1-1 1l-3-1zm9 1h-3c-2 0-1-1 2-1 2 0 2 0 1 1m-12 1-1 1s-2 0-1 1h-5c-1-1-1-1 1-1l2-1 1-1zm10 1h-3c-2-1-2-1 0-1zm479 0h-2v-1zm5 1-5 1h-3l3-1 5-1c2 0 2 0 0 1m-487 1-3 2-4 4h-5c-2-1-2-1 1-1 2 0 2 0 1-1s-1-1 1-1l2-1c-1-1 0-1 2-1s2 0 1-1c-2-1-2-1 1-1zm489 1h-2v-1zm-10 4h-2v-1zm-482 4-1 1s-2 0-1-1l1-1zm-3 3h-2v-1zm483 19h-2v-1zm-6 2h-2c-1-1 0-1 1-1zm-266 5h-4c-1-1 0-1 2-1zm11 1h-2v-1zm9 0c1 1 1 1-3 1l-4-1zm-23 1h-6l3-1zm15 1c1 1 1 1-2 1-2 0-3 0-2-1zm-22 1h-4c-1-1 0-1 2-1zm260 0h-8l4-1zm-246 1h-2l-2-1h2zm11 1h-5l3-1zm228 0h-6c-2 0-1-1 3-1zm-230 2h-9l-9-1zm243-1h-6c-2 0-1-1 3-1zm-275 1-1 1-2-1 1-1zm24 2h-8l-8-1zm24-1h-8l4-1zm214 0h-3c-1-1 0-1 2-1 1 0 2 0 1 1m-265 2h-2v-1zm14 1-7-1h6l7 1zm34-1h-10l8-1h11zm215 0h-3c-1-1 0-1 2-1 1 0 2 0 1 1m-266 2h-2v-1zm58 0-7 1c-6 0-7 0-3-1zm-40 1h-5c-5 0-7 1-2 1 5 1 5 2 0 2h-3c3 1 4 2 0 2-5-1-10 0-8 1 1 1 0 1-2 1-3 0-3 0-2-1l2-1 4-3 4-2 6-1zm-21 0-2 1h-1zm64 2h-2v-1zm-27 2h-8c-3 0-1-1 4-1zm26 0-6 1c-6 0-6 0-2-1zm-36 2h-5l3-1zm-16 1h-2c-1-1 0-1 1-1zm18 2h-2c-1-1 0-1 1-1zm18 3h-7c-4 0-6 0-5-1 3-1 12 0 12 1m-15 0h-2v-1zm216 0h-4c-1-1 0-1 2-1zm-225 1h-2c-1-1 0-1 1-1zm10 1h-4l2-1zm-13 1h-3c-1-1 0-1 2-1 1 0 2 0 1 1m234 0h-2l-2-1h2zm-227 2-2 1-2-1 2-1zm4 0-1 1-1 1c-2-2-1-3 1-3s2 0 1 1m217 0v1l-1-1v-1zm-203 3h-2v-1zm53 0c-1 2-5 3-7 2-1-1 0-1 3-1h4l-4-1c-4-1-4-1 0-1s5 0 4 1m-52 3h-3l-3-1h3zm195 3h-3c-1-1 0-1 2-1 1 0 2 0 1 1m-309 1h-2v-1zm36 0-3 2-1 1h-1c0-1 2-4 4-4zm25 2h-1l-2-1h2zm243-1h-2c-1-1 0-1 1-1zm-275 2h-2c-1-1 0-1 1-1zm29 0-1 1-1-1v-1zm244 0h-3c-1-1 0-1 2-1 1 0 2 0 1 1m-275 2h-2c-1-1 0-1 1-1zm29 0-1 1-1-1v-1zm242 0h-2c-1-1 0-1 1-1zm-232 2h-3c-1-1 0-1 2-1 1 0 2 0 1 1m229 0h-2v-1zm-245 7h-2v-1zm234 1h-2c-1-1 0-1 1-1zm-1 2h-3l-3-1zm-5 2h-4c-1-1 0-1 2-1zm1 3h-1l-2-1h2zm-216 0h-2c-1-1 0-1 1-1zm9 3c0 1 0 2-2 1-2 0-2 0-1-1l2-1v-1zm-2 3h-1l-2-1h2zm-2 4h-2l-2-1h2zM450 40c-4 1-3 1 3 1l8-1zm33 1 2 1c1 1 2 0 2-1l-2-1zm-46 1c-3 1-2 1 2 1l6-1zm23 0-8 2c-8 0-19 2-23 3h-5l-3 1c0 1-1 2-4 2h-5c-2 2-5 3-5 2h-3c-2 2-5 3-5 2h-2l-2 1-2 1h-5l-4 2-3 1-1 1-2 2c-1 2-3 2-3 2v-1l2-3h-1l-2 1h-4c-3-2-3-2-8 0-6 1-6 2-2 2l2-1 3-1h4l-3 3-4 1-5 2c-2 1-3 1-2 3l-1 1h-1v-1l-1-1h-1l-1 1-1 2c0 2 0 2-1 1h-1l-1 1 1-3v-3c-1-1-1-1 1-1l3-1 3-1 2-1-8 2c-7 2-9 3-5 3h4l-1 1-1 1-2 4h-1l-1-2c-2-1-2 0-2 4h-2v-1c0-2-1-2-6 1l-5 1-1 1-2 1c-2 0-5 3-3 4l1 1h-2v-1c0-2-5 0-22 9a98 98 0 0 1-14 6v-1c-2-1-1-1 3-1v-2h4v-2h4v-2h4v-1c-1-1-1-1 2-1s3 0 2-1-1-1 2-1 3 0 2-1v-1h4v-1c-1-1-1-1 2-1s3 0 2-1c-2-1-2-1 4-1l1-2h3c2 0 2 0 1-1s-1-1 2-1 3 0 2-1 0-1 3-1 3 0 2-1v-1h4c2 0 2 0 1-1s-1-1 1-1h4l-1-1a257 257 0 0 0-66 32 78 78 0 0 0-26 16c-1-1-14 8-13 9h1l-2 3-4 3v-2l3-1c2-1 2-1 1-2s-8 4-7 5l-1 1c-2-2-4 1-3 4 0 2 0 2-1 1v-2c1-2-2-1-3 1-2 2-3 5-1 3v1c-1 2-2 3-2 1s0-3-1-2v1l-1 1c-1-1-5 2-5 4l-1 1c-1-1-6 3-5 4l-1 1c-1-1-9 6-9 8l-1 1h-1l-1 2v1c2 0 0 2-4 6l-7 5-1 1c1 1-9 11-10 10l-1 1-1 1v2l-1 1h-2c0 1-1 4-4 6l-4 4 1-2v-1l-5 3-2 3 3-2 2-1c0 3-3 6-4 5l-1 1v1l-1 1v2h-3 1l1-1v-1c1 1 1 1 0 0 0-2 0-2-1-1-2 2-2 6-1 5v2l-4 4c-2 3-2 3-3 2-2-2-2-2-2 1l1 1v2l-7 9-6 7 1-1c1-1 0-1-1-1v3l-1 1h-1c1 1-2 6-3 5l-1 1c1 1-2 6-3 5l-1 1c1 1-2 6-3 5l-1 1c1 2-4 10-5 9l-1 1c1 1 0 3-1 5l-5 8-3 4-1 1a111 111 0 0 1-14 28l-1 5-2 3-1 2-1 5-1 3-1 2-3 2h2l-1 2v4c1 0 1 1-1 2l-2 4-1 2-1 3-1 3-1 2 1 1c1-1 1-1 0 0l-1 4c0 3 2 3 2 0l1-2 1-2 1-6c2-2 2-3 1-4v-1c1 1 3-4 4-6l1-1 1-1c0-4 0-5 2-5l1-1c-2-1-2-3-1-3s2-1 2-3l1-3 1-2 1-2 1-1v-2c1-1 2-2 1-3l2-2v-2l2-1v-1l1-1v-3c-1-1-1-1 1-2 2 0 2 0 1-2-1-1-1-1 1-2 2 0 2 0 1-2-1-1-1-1 2-2 2 0 2 0 1-1v-1l1-1c-1-1 0-1 1-1v-1c-1-1-1-1 1-1s1 0 0-1-1-1 1-1 1 0 0-1v-1l2-1v-3c2 0 2 0 1-1-1-2 0-3 2-3s2 0 1-1v-1l1-1c-1-1 0-1 1-1v-2l2-1v-2c-1-1-1-1 1-1s2 0 1-1v-1l1-1c-1-1 0-1 1-1v-1c-1-1-1-1 1-1s2 0 0-1v-1l2-1v-1h2l-1-1c-1-1 0-1 1-1 2 0 2 0 0-1v-1l2-1h2c1 0 1 1-1 3l-2 3-2 3-2 3-2 3-2 2c0 3-4 10-5 9l-1 1-2 7-3 6-1 2a189 189 0 0 0-12 26l9-17c4-9 8-16 9-15v-1l1-2 1-3 1-1 1-2 2-4 1-2 1-2 2-2 2-3 2-3 2-3 2-3 1-2 1-2 1-1c1 1 1 0 1-1l2-3 2-3 1-1 1-1 1-2 1-1c0-1 1-2 2-1v-1c0-2 2-5 4-5v-2l1-1h1c0-2 2-5 4-5v-2l1-1h1l3-5 3-3 8-10 7-8a493 493 0 0 1 28-31c-2 3-3 3-3 2-1-1 0-2 1-1l1-1c-1-1 0-2 1-1l1-1c-1-1 0-2 1-3l1-2 1-1h2l-1-1s-2 0-1-1l3 1h2l1-3c2-1 3-2 4-1v1h-3c-1 2 3 2 5 0l4-3c2-2 2-2 1-3-1-2-1-3 1-2l1-1 1-2h6l-1-1-1-2-2-1c-2 0-1-2 1-2h1c-2 2 1 2 3 1 2-2 2-2 4-1h4v-2l-2 1h-2c-1-2-1-2 1-2h2l1-1 4-4 5-2 3 1-1-2c-2-2-2-2 1-3h3l3 1-1-2c-2-2-2-2 1-3h4c3 2 4 1 1-1l-1-2 6-3c6-4 8-5 9-4h4l-1-1-3-1 1-1h2l8-4 1 1 1 1c1 0 2-2 0-2v-2l2-1 2-1 2-1 2-1 2-1 2-1 14-7 2-1 2-2 3-1 4-1v-2l1-2c1-1 1-1 1 1-1 2-1 2 1 1l2-1 3-1 5-2 4-1 2-1 16-5 3 1h-2l-5 1 3 1h4l-5 2c-5 2-7 2-9 1h-5l3 1 4 1-4 2c-4 1-5 3-3 3l1-1 3-1 2-1 2-1 2-1 8-1h3l-3-1h12l6-1c2 0 3 0 2-1l-5-1c-4 0-5 0-4-1h3l9 1 7 1 7 1c6 0 7 0 4-1l-7-1c-7 0-8-2-1-2l5 1 8 1c6 0 7 0 4-1s-3-1 1-1c9 0 14 1 13 2l2 1 22-4 7-1 8-1 9-1 14-1c10 0 8 0-9-1a357 357 0 0 1-40-3l23 1a917 917 0 0 0 5-2h-12c-9-1-7-2 2-2 6 0 9 0 8-1s3-1 10-1c11 0 11-1 0-2h-9l-1-1 5-1 7-1 9-1 8-1 5-1c3 0 3 0 2 1s0 1 4 1l5-1c0-1-3-2-7-2l-4-1-2-2c-2 0-2 0-1-1l2-1h-9c1-1 0-1-2-1s-2 0-1 1c3 1 2 2-3 2l-5-1h-10l-4 1h-11l-4 1c-2 0-2 0-1-2l13-1c3-1 4-1 3-3zm-13 5v2l-10-1 8-2zm24 1h-2c-1-1 0-1 1-1zm12 0 5 1h-3l-6 1c-2 0-2 0-1 1v1l-2-2h-2c-2-2-1-3 1-3zm17 1h-10v-1c2-1 10 0 10 1m-65 1c0 1-1 2-3 1h-5c-4 0 0-2 5-2 3 0 4 0 3 1m29 1h-2c-1-1 0-1 1-1zm8-1-3 2c-2 1-3 1-3-1l3-1zm-49 2c0 1-1 2-2 1h-4c-2 0 0-2 3-2s4 0 3 1m-10 3c0 1-2 2-2 0h-2c-2 0-2 0-1-1 2-2 6-1 5 1m-8 1-1 3c-1 1-1 0-1-1v-1l-2-1 2-1zm56 1 2 1c1 1-1 1-4 1-5 0-5 0-3-1 3 0 4 0 3-1v-1zm-64 1-2 1-2-1 2-1zm-7 2c-1 1-3 2-3 0l2-1 2-1zm58 1h-6c-5 0-6 0-3-1zm-41 0h-1c-2 0-2-1-1-1zm-24 1h-4l2-1zm9 0-3 1v-1zm40 1h-4c-1 0-1-1 2-1 2 0 3 0 2 1m-59 1-1 1-1 1-2 1 3-4zm50 1h-6c-2 0-1-1 3-1zm-56 1-1 1-1 1-2 1c-1-1 0-2 1-3zm87 1 15 1c4 1 3 1-5 1a145 145 0 0 1-28-2l-6-1c-1-1 2-1 7-1zm-42 0h-4l2-1zm-53 2-2 2 3-4zm15-1-3 1c-2 0-2 0-1-1zm56 0 3 1-1 1-7-1-7-1zm-26 1h-5l3-1zm45 1-2 1-13-2zm-81 0-3 1c-2 0-2 0-1-1zm10 0h-2c-1-1 0-1 1-1zm47 1h9l4 1-8 1-21-3 6-1zm-28 0h-5l3-1zm-24 1h-3c-1-1 0-1 2-1 1 0 2 0 1 1m18 1h-4l-5-1zm20-1-4 1-5-1c-1-1 1-1 3-1zm-36 4c2 1 2 1-2 1-3 0-5 0-4-1zm-60 12-2 1v-1c2-2 3-2 2 0m-17 9h-2c0-1 2-3 3-2zm-5 2-1 1-2-1 2-1zm-14 1v1l-2 2-4 3-6 2h-1c-1 1-1 0-1-1h3l1-1v-1h3v-2h3l2-2 2-2zm0 7-1 1-2-1 2-1zm-14 4h-2c-1-2 0-3 2-2zm-3 1-2 2-2 1-4 2-3 1 1-1 1-1 1-1h2v-2h3l1-1v-1zm1 4-1 1h-2l2-1zm-13 4-1 1h-2l2-2zm6 1-2 1 1-2c2-1 2-1 1 1m-10 1c0 2 0 2-1 1s-1-2 1-3zm-2 2-1 1h-2l2-2zm-4 2c0 2 0 2-1 1v-2c0-1 1-1 1 1m-12 10-2 1v-1zm-14 10c0 2 0 2-1 1v-2c0-1 1-1 1 1m5 2c-1 1 0 1 1 2 2 1 2 1 1 3-2 1-3 1-3-1-1-1-1-1 1-1 1 1 1 1 0 0l-2-1-1-1 1-1zm-10 2c0 2-6 6-6 5l1-1 1-2c0-2 0-2 1-1s1 1 1-1l2-1zm9 5c0 2-2 1-2-1v-1zm-16 0-1 2-1 1-1 1-1 1-1 1c-1-1 0-2 2-4zm9 0v1l-1-1v-1zm-15 19-2 1v-2l1-1h1zm-11 11-9 8v-1l1-1 1-1 1-3c-1-3-1-3 1-1 1 1 1 1 1-1s-1-3 1-1 1 1 1-1v-2c1 2 1 2 4-1l4-3v-1h1c1 0-1 3-7 9m-10 10-1 1-1-2h1zm-2 2-1 1-1-2h1zm-2 1-1 3c-1 1-2 1-3-1s-1-1 1 0c2 0 2 0 1-1v-2zm-4 4-3 4c-2 3-3 3-3 2l1-2 1-1c-1-1 0-2 1-1l1-1c-1-2 1-3 2-1m-10 7v1l-1-1v-1zm3 1v1l-1-1v-2zm-1 2-1 1-1-1v-1zm-2 2-1 1-1-1v-1zm-2 2-3 4-3 2 1-1 1-1 1-2v-3zm-6 8c0 2-1 1-4 0-1-2-1-2 1-1zm-2 2c0 1-3 5-4 4l1-2v-3zm-5 6h-2l-2-1h2zm-2 2h-1l-2-1h2zm-2 2 1 1c0 2-2 1-2 0-1-2-1-2 1-1m-2 4h-2l-2-1h2zm-1 2v1l-3-1v-1zm-2 3h-4 1l2-1c-1-1-1-1 0 0zm-3 3h-1l-2-1h2zm-2 2 1 1h-4 1l1-1zm-1 4h-3c-2 0-1-1 2-1 2 0 2 0 1 1M469 42c-1 1 0 1 4 1l7-1zm-43 2c-3 1-3 1 1 1l6-1zm122 0h2l-2-1zm-133 2c-2 1-1 1 2 1l5-1zm-15 3c-11 3-12 4-8 4l4-1 4-1 4-1 4-1 4-1c0-1-3-1-12 1m126 1-7 1-6 1 6 1 6-1 1-1 1 1h2v-2zm5 2c-1 1 0 1 2 1 4 0 4-1 0-1zm-147 2c-2 1-2 1 1 1l3-1zm149 1c-4 1-1 2 6 2l6-1c-2-1-9-2-12-1m-156 1c-2 1-2 1 1 1l3-1zm107-1 8 1-4-1zm9 1 4 1 4-1-4-1zm-122 2c-2 1-2 1 1 1l2-1zm122 2h2c1-1 0-1-1-1zm8 0 5 1h5zm17 0c-3 1-3 1 1 1l4-1zm9 0h2c1-1 0-1-1-1zm5 0h2c1-1 0-1-1-1zm6 0h4c2 0 1-1-2-1zm-67 2h13l-8-1c-4 0-7 0-5 1m14 0 5 1 4-1-4-1zm12 0 6 1c7 0 6-1-1-1zm17 1h2c1-1 0-1-1-1zm5 3h3c1-1 0-1-1-1-2 0-3 0-2 1m163 0v2c-2 2-2 2 1 1l2-1 1-1v4l6 1c-1 1 0 1 1 1l4 1 3 1 2-1h1v1c-2 0-1 2 1 2l3 1 3 1c3-1 3-1 2 1-1 1-1 1 1 1l2-1c-1-2-6-5-8-4l-2-1-10-5c-12-5-14-6-13-4m7 2-1 2-1-1 1-1zm11 5-1 1-2-1-2-1-2-1zm-347 3c-1 1 0 1 2 1l3-1-3-1zm67 0h5l-2-1zm-33 2 6 1c5 0 6 0 4-1zm24 0h5l-2-1zm-68 2c-1 1 0 1 2 1 3 0 3 0 2-1zm37 0 6 1c5 0 5 0 3-1zm23 0h4c2 0 1-1-2-1zm315 1c-2 1-1 2 2 2h2v1l1-1 1 1h1v2l2 1h4v1h-3l3 1h4l1 1h1l1 1v1l1-1 1 1h1v1l1 2c5 0 2-3-10-8-14-8-13-7-14-6m-381 1c-1 1 0 1 2 1l2-1zm22 0h4c2 0 1-1-2-1zm36 0h4c1-1 0-1-2-1-3 0-3 1-2 1m-20 1h6l-3-1zm-42 1v1l2-1-1-1zm21 0h4c1-1 0-1-2-1zm13 0c-1 1 0 1 3 1h4c0-1-6-2-7-1m342 0v2l-1 1h3l-1-2zm-307 1h17l-9-1c-5 0-9 0-8 1m-76 1-3 2-2 1-2 1c0 2 3 1 5 0l2-1 1-1 3-1c3 0 3 0 2-1l-2-1zm14 0 3 1v-1l-3-1zm23 1h4c1-1 0-1-2-1zm30 0h8l-4-1zm16 0h2c4 0 5-1 2-1zm-50 2h2l-2-1zm25 0h6l-3-1zm328-1 2 1h1l-1-1zm9 2 1 1v-1l-1-1zm-345 1h3c1-1 0-1-1-1-2 0-3 0-2 1m-61 1c-1 1 0 2 1 1 1 0 2-2 0-2zm410 0 1 1v-1l-1-1zm-355 1h2c1-1 0-1-1-1zm-59 1 1 1 1-1-1-1zm86 0 4 1h14c-12-2-18-2-18-1m29 0h4c2 0 1-1-2-1zm303 0 1 1v-1l-1-1zm-365 1h2c1-1 0-1-1-1zm382 0c-1 1 0 2 2 1v-1zm-439 1 1 1 1-1-1-1zm86 0c-2 1-2 1 2 1l7 1c3 0 3 0 2-1-4-1-9-2-11-1m311 0v1l2-1zm12 0c-2 1-2 1 0 1l3-1-1-1zm34 2h2v3c2 0 2-3 0-4-1-1-2 0-2 1m-446 0 1 1v-1l-1-1zm82 0c-2 1-1 1 3 1h5c-1-1-6-2-8-1m23 0h2l-2-1zm311 0c-2 1-2 1 0 1l3-1-1-1zm-420 2 1 1v-1l-1-1zm80 0c-2 1-2 1 1 1l7 1c5 1 3-1-1-2zm375 0v1c2 0 3 0 2 1l1 1c1-1 1-2-1-3zm-32 1h3c1-1 0-1-1-1-2 0-3 0-2 1m-427 1h2c2 0 1-1-1-1-1 0-2 0-1 1m20 0h2l-2-1zm58 0c-2 1-1 1 2 1h5c0-1-5-2-7-1m342 0 2 1h1l-1-1zm12 0c-2 1-2 1 0 1l3-1-1-1zm32 1c-2 1-1 2 1 2h3l1 1v1c2 0 3 0 2 1l1 1c1-1 1-2-1-3zm-469 1h4l-2-1zm21 0h2l-2-1zm57 1h4c2 0 1-1-2-1zm363 0h2l-2-1zm-369 2h4c2 0 1-1-2-1zm373 0h2l-2-1zm-450 1 1 1v-1l-1-1zm100 0 4 1c3 0 4 0 3-1zm-90 1h2l-2-1zm62 0h4c1-1 0-1-2-1-3 0-3 1-2 1m48 0c-2 1-2 1 0 1l3-1v-1zm364 1h2v3c2 0 2-3 0-4-1-1-2 0-2 1m-488 0 1 1v-1l-1-1zm98 0 4 1c3 0 4 0 3-1zm-27 1h4c1-1 0-1-2-1-3 0-3 1-2 1m22 1 4 1c3 0 3 0 2-1zm24 0h2c1-1 0-1-1-1zm377 1 1 1 2 1v1h2v1c2 0 1-2-2-4s-4-2-3 0m-429 0h4c1-1 0-1-2-1zm-71 1 1 1v-1l-1-1zm94 0c-1 1 1 1 3 1 4 0 4 0 3-1zm23 0h2c1-1 0-1-1-1zm-122 1 1 2 1-1-1-1zm72 0h4c1-1 0-1-2-1-3 0-3 1-2 1m21 1 4 1c5 0 5-1 0-1zm23 0h2c1-1 0-1-1-1zm-105 1h2l-2-1zm55 0h4c1-1 0-1-2-1zm-69 1h3l-2-1c-2 0-2 0-1 1m92 0c-1 1 0 1 2 1h4c0-1-5-2-6-1m424 1c0 2 1 3 1 1v-2zm-506 0h2c1-1 0-1-1-1zm55 0h4c1-1 0-1-2-1zm-67 1 1 1v-1l-1-1zm88 0 3 1h4c0-1-6-2-7-1m435 1c1 1 2 2 1 3h3l-3-3c-2-1-3-2-1 0m-460 0h3c1-1 0-1-1-1-2 0-3 0-2 1m49 1 7 1h4zm-106 1h2l-2-1zm53 0h3c1-1 0-1-1-1-2 0-3 0-2 1m26 0h4c1-1 0-1-2-1zm22 1 3 1 6 1h3zm-50 1h2l-2-1zm24 0h4c1-1 0-1-2-1-3 0-3 1-2 1m447 1 1 1h2c3 2 3 1 0-1q-3-3-3 0m-426 0 4 1h4zm-26 1h3c1-1 0-1-1-1-2 0-3 0-2 1m21 1 4 1h4l-4-1zm-26 1h4c1-1 0-1-2-1zm465 1 5 4-4-4c-3-2-3-2-1 0m-424 0h2l-2-1zm-45 1h4c1-1 0-1-2-1zm28 0h4c1-1 0-1-2-1-3 0-3 1-2 1m-113 1 1 1 1-1-2-1zm106 0 4 1c4 0 4-1-1-1zm18 0c-1 1 0 1 0 0 2 0 3-1 1-1zm-43 1h4c1-1 0-1-2-1zm-85 1 3 1-1-1-2-1zm105 0 4 1h4l-4-1zm-108 1 2 2c2 1 2 0 0-2zm84 0h3c1-1 0-1-1-1-2 0-3 0-2 1m485 2 3 2-2-2-3-3zm-465-1 4 1h3l-3-1zm-24 1h3c1-1 0-1-1-1-2 0-3 0-2 1m20 1 4 1h3l-3-1zm-24 1h3c1-1 0-1-1-1-2 0-3 0-2 1m20 1 2 1c1 1 0 1-2 1-4-1-5 1-2 1 1 1 0 1-2 1-5 0-5 1 0 1 2 1 3 0 3-1l2-1c1 1 2 0 2-1l3-1h1l-3-1zm-103 1 2 2h1l-2-2zm81 0h2c1-1 0-1-1-1zm-5 2h3c1-1 0-1-1-1-2 0-3 0-2 1m510 2 3 2-2-2-3-3zm-514 0h3c1-1 0-1-1-1-2 0-3 0-2 1m458 0h4c1-1 0-1-2-1zm-439 1 1 1 4 1 2-1-3-1zm-100 1 2 2c2 1 2 0 0-2zm77-1c0 1 3 2 4 1s1-1-1-1zm465 1h3c1-1 0-1-1-1-2 0-3 0-2 1m-446 1 6 2 2-1zm505 1 2 2-1-2-3-2zm-527 0h3c1-1 0-1-1-1-2 0-3 0-2 1m13 0 1 1 1-1-2-1zm-15 2h2c1-1 0-1-1-1zm11 0 1 1 1-1-2-1zm-16 1c0 1 3 2 4 1l-2-1zm-1 3h2l-2-1zm11 0 1 1 1-1-2-1zm532 1 2 2-1-2-3-2zm-548 0c0 1 3 2 4 1l-2-1zm12 1 1 1 1-1-2-1zm-75 2 1 1v-1l-1-1zm62 0h2l-2-1zm9 0 2 1 2-1zm-14 1 2 1h1l-1-1zm12 1 1 1 1-1-2-1zm-13 2h2l-2-1zm9 0 2 1 2-1zm557 4 4 3-3-3-4-4zm-571-3c0 1 3 2 4 1l-2-1zm11 2h-2l-1 1 2 1 2-1 1-1v-1zm-109 11-10 11zl11-11zm97-10h2l-2-1zm-62 2 1 1v-1l-1-1zm57-1c0 1 3 2 4 1l-2-1zm-84 4-2 3zl3-3zm25-1 1 1v-1l-1-1zm58 0h2l-2-1zm-60 2 1 1v-1l-1-1zm56 1c-2 2 0 2 2 0l1-2zm-58 1 1 1v-1l-1-1zm47 0 1 1 1-1-2-1zm-51 2 1 2zc-1-1-1-1 0 0m49 0 1 1 1-1-2-1zm8 0-1 1-1 1c0 1-1 2-3 1-2 0-2 0 0 1s6 0 6-3h1l1-1-2-1c-1 0-2 0-1 1m-84 5-4 5 4-4 4-5zm24-3 1 2 1-1-1-1zm49 0v1l2-1zm-51 2 1 2 1-1-1-1zm48 0 1 1 1-1-2-1zm557 1c-1 1-1 1 1 1l2 1c-1 1 0 1 1 1 2 0 3-1 1-3zm-607 1 1 2 1-1-1-1zm48 0 1 1 1-1-2-1zm8 1 1 2v-1c0-2 0-2 2-1l1-1-3-1c-1 0-2 1-1 2m614 2 3 2-2-2-3-3zm-672-1 1 1 1-1-2-1zm48 0 1 1 1-1-2-1zm8 0c0 1-1 2-3 1-2 0-2 0 0 1 3 2 5 1 4-1l-1-2zm558 1c-1 1-1 1 1 1l2-1zm-616 1 1 2 1-1-1-1zm48 0c-1 1 0 1 1 1l1-1-1-1zm570 1c-1 1-1 1 1 1l2-1zm-620 1 1 2 1-1-1-1zm55 0 3 1v-1l-3-1c-2 0-2 0 0 1m560 1-3 1-3 1c-1 1-1 1 1 1l5-2 3-1zm7 0c-1 1-1 1 1 1l2 1v1c2 0 2 0 1-2-2-2-2-2-4-1m-624 1 1 2 1-1-1-1zm56 0 2 1h1l-1-1zm28 1 8 1-5-1zm-86 1 1 2 1-1-1-1zm46 0 1 1 1-1-2-1zm10 0 1 1 1-1-2-1zm564 0h2c1-1 0-1-1-1zm-642 1-1 2-1-1-2 1v2c1 0 2 0 3-2l2-3zm104 0h2c1-1 0-1-1-1zm526 0h2l-2-1zm15 0c-2 1-2 1 0 1l4-1zm-625 1 1 2h1l-1-2zm46 0 1 1 1-1-2-1zm10 0 1 1 1-1-2-1zm33 0h2c1-1 0-1-1-1zm528 0h2l-2-1zm-537 1-1 1-3 2c0 2 1 1 5-1 3-3 3-3 1-3zm529 0-3 1h3l3-1v-1zm18 0-3 1h3l3-1v-1zm8 0 1 1 1-2h-1zm56-1 3 4 4 3-3-4zm-693 2v2c-1-1-2 0-2 1l-1 1-1 1-1 1-1 1-1 1-1 1-1 1h-1l-1 2v4l1-1c-1-2-1-2 1-2h1v-2l10-10-1-2zm46 0 1 1 1-1-2-1zm43 0h2l-2-1zm532 0h2l-2-1zm18 1v1l2-1-1-1zm-595 1 1 1 1-1-2-1zm588 0h2l-2-1zm-547 1c-2 1-2 1 1 1l4-1zm-43 1 1 1 1-1-2-1zm8 0 2 1h2l-2-1zm7 0-9 9c-13 14-16 16-14 16l2-1c-1-1 0-1 1-1l1-1c-1-1 0-1 1-1l1-1v-1c2 0 6-5 5-5l1-1 2-1c-1-1 0-1 1-1l1-1c-1-1 0-1 1-1l1-1c-1-1 0-1 1-1l1-1c-1-1 0-1 1-1l1-1v-1c2 0 4-3 3-3zm584 0h2l-2-1zm-580 1 2 1h2l-2-1zm15 0h2l-2-1zm-36 1 1 1 1-1-2-1zm8 0 2 1h2l-2-1zm34 0h4c1-1 0-1-2-1-3 0-3 1-2 1m-23 1 2 1h2l-2-1zm15 0h2l-2-1zm-36 1 1 1 1-1-2-1zm8 0 2 1h2l-2-1zm32 0h3c1-1 0-1-1-1-2 0-3 0-2 1m558 0h2c1-1 0-1-1-1zm67 1 2 2-1-2-3-2zm-646 0 1 1 1-1-2-1zm26-1 2 1h1zm4 1 2 1 1-1-1-1zm-51 1 1 1 1-1-2-1zm8 0 2 1h1l-1-1zm11 1 3 1h2l-2-1zm14 0h2l-2-1zm29 0h2l-2-1zm3 0 2 1 1-1-1-1zm-59 1 1 1 1-1-2-1zm11 1 2 1h2l-2-1zm14 0h2l-2-1zm20 0 6 1 5-1-5-1zm-63 9c-13 12-14 13-12 13l2-1c-1-1 0-1 1-1l1-1c-1-1 0-1 1-1l1-1c-1-1 0-1 1-1l1-1c-1-1 0-1 1-1l1-1c-1-1 0-1 1-1l1-1c-1-1 0-1 1-1l1-1c-1-1 0-1 1-1l1-1c-1-1 0-1 1-1l1-1c-1-1 0-1 1-1l1-1v-2zm16-8 1 1 1-1-2-1zm666-1 2 2c1 1 1 1 0 0zm-624 2c-1 1 0 1 4 1 3 0 4 0 3-1zm-96 1 1 2 1-1-1-1zm52 0 1 1 1-1-2-1zm14 0h2c1-1 0-1-1-1zm19 0h3c1-1 0-1-1-1-2 0-3 0-2 1m-110 2c-1 3-1 3 1 1l2-3zm101-1h2l-2-1zm-78 1 1 2 1-1-1-1zm52 0 1 1 1-1-2-1zm14 0h2c1-1 0-1-1-1zm10 1h2l-2-1zm-79 2-1 2-1 1h-1l-2 3-2 4-1 1h-1l-3 4-3 5-1 1h-1l-1 2-2 3-2 3a490 490 0 0 0-3 8l2-3 1-1 1-2 1-1 1-2 1-1 1-2 1-1h1l1-2 1-1 2-3 2-2 2-3 2-3c-1-2 0-2 1-1l1-1c-1-2-1-2 1-2h1l2-3c2-2 3-4 1-4zm53-1 1 1 1-1-2-1zm24 1h2l-2-1zm31 0h4c1-1 0-1-2-1zm-57 1 1 1 1-1-2-1zm-73 2h1l1-1-1-1zm116-1c-2 1 0 1 5 1h8c-1-1-12-2-13-1m-45 1 1 1 1-1-2-1zm684-1 2 2c1 1 1 1 0 0zm-688 4 2 2v-1l-1-2-1-1zm2-1 2 1h1l-1-1zm32 1 1 1 1-2c-1-1-2-1-2 1m10-1h4c1-1 0-1-2-1-3 0-3 1-2 1m-116 2c-1 1-1 1 0 0l2-2zm98-1h2l-2-1zm-28 2 1 2v-2l-1-2zm26 0h2l-2-1zm-18 2h2l-2-1zm-10 1 2 1h1l-1-1zm698-1 2 2c1 1 1 1 0 0zm-768 3-1 2 2-2c1-2 1-3-1 0m77-1h2c1-1 0-1-1-1zm-51 2 1 1v-1l-1-2zm40 0 2 2v-1l-1-2c-1-1-1-1-1 1m2-1 1 1 1-1-2-1zm6 1-1 1h-1l2 1 2-1 1-1c1 0 1-1-1-1-1-1-2 0-2 1m63-1h8c3 0 1-1-4-1zm-90 1 1 1v-1l-1-1zm-3 1 1 2 1-1-1-1zm6 0 2 1h2l-2-1zm14 1 2 2v-1l-1-2c-1-1-1-1-1 1m16 0h1v-2zm17-1h2l-2-1zm33 0h2l-2-1zm-69 1 1 3 1 1-1-5zm-19 1 1 1 1-1-2-1zm28 0 1 1 1-1-2-1zm8 1h1v-2zm-83 1c-1 2-1 2 1 1 2-2 2-3 1-3zm64-1 1 1 1-1-2-1zm-12 2h2c1-1 0-1-1-1zm6 1-5 1c-3-1-4-1-4 1h5v1l-1 1-1 2c-1 0-2 3 0 3 1 1 1 1 1-1v-2l1 2v3s-2 1-1 2l1 2 1-1 2-1 2-3 1-1h1l1-2v-1l-2-1h-1c0 1 0 2-2 1v3c0 2 0 2-1-1s-2-5 0-4l1-1 3-1 1-1c-1-1 0-1 1-1l2-1c-1-2-4-1-6 1m21-1v1l1-1v-1zm560 0 11 1h14c-1-1-22-2-25-1m-614 2h1v-2zm46 0c-2 1-2 1 0 1h3l1-1zm-48 1 2 2 1-1-2-1zm24 0-2 1 1 1 4 1v-1l-2-2-1-1zm15 0c-2 2-1 3 1 3s2 0 1-1c-2-1-2-1 1-1l4 2 2-1c0-1-8-3-9-2m89 0h3c1-1 0-1-1-1-2 0-3 0-2 1m-130 3h1v-2zm105-1h2l-2-1zm33 1h6l-3-1zm-92 1 1 1 1-1-2-1zm558 1h4c1-1 0-1-2-1-3 0-3 1-2 1m-582 1 1 1 1-1-2-1zm28 0-2 2-1 1h-2l2 1 2-1 6-1 5-1h-3l-4-1zm585 0h8c3 0 1-1-4-1zm-638 1v3l1-1v-1l1-1zm588 0 10 1-8-2zm-565 2 1 1 1-2c-1-1-2-1-2 1m21 0v3h1l1-2 1-2zm86-1h4c2 0 1-1-2-1zm569 0h2l-2-1zm-669 2v3-1c-1-2 0-2 1-2l2-1c0-2-3-1-3 1m-9 1c0 1 0 2 1 1v-2c-1-1-1 0-1 1m33-1h2l-2-1zm556 0h6l-3-1zm-282 1c-1 1-1 1 2 1l3-1zm275 0c-1 1 0 1 3 1 6 0 6 0 2-1zm-570 2 1 2v-2l-1-2zm8-1 1 1 1-1-2-1zm102 0h3c1-1 0-1-1-1-2 0-3 0-2 1m-93 1h2l-2-1zm-23 2 1 1v-1l-1-2zm303-2 4 2h2zm-284 2c-2 1-2 1 1 1l3-1zm-29 1 1 1 1-1-2-1zm8 0 1 1v-1l-1-1zm620 0h5l-2-1zm-652 1 1 1 1-1-2-1zm136 1h2l-2-1zm489 0h10l-5-1zm-12 2-6 1h-2l-2 1-3 2h-4c-2 0-2 0 0 1s1 1-2 1-3 0-2 1 1 1-1 1l-2 1-3 1c-4 0-1 2 4 2 4 1 6 0 2-1-1-1-1-1 2-1 4 1 6 0 2-1-1-1 0-1 2-1 3 1 4 0 4-1h3c4 0 4 0 2-1-3-1-2-2 2-2 4 1 4 1 2-1-2-1-2-1 3-1h3c-3-2-3-2 3-2 5 0 5 0 1-1zm-586 3 1 1v-1l-1-1zm570 0h2c1-1 0-1-1-1zm-627 2-1 3 2-2c1-3 1-4-1-1m63-1h2c1-1 0-1-1-1zm317 0 1 1 1-1-2-1zm12 1h2l-2-1zm-395 2c-1 1-1 1 0 0l1-1zm667-1h6l-3-1zm-612 2h1v-2zm597-1 10 1c10 0 9-1-3-1zm-487 1h4c2 0 1-1-2-1zm-118 2h1v-2zm598 0-2 1c-2-1-3 0-2 1l-2 1c-3-1-4 1-1 1 1 1 0 1-2 1-4-1-5 1-2 1 1 1 1 1-1 1s-3 0-2-1l-1-2v1l-1 1-1 1 1 1h2l-3 1h-4l1 1h1l-5 1h-2 2l2 1h-9l2 1 3 1c0 1-1 1-7-1-2 0-2 0-1 1l3 1 2 1-2 1-5-1h-2l3 1 2 1h-8l3 1 3 1h-5c-5-1-7 0-2 1 4 1 5 2 1 1l-5-1v1l3 1 3 1h-9l4 2c2 0 3 0 2 1l-5-1h-4l2 1 3 1-3 1h-1c4 1 3 2-1 2h-3c3 1 3 2-1 2h-1c4 1 3 2-2 2l-4-1 4 2 4 1-5-1h-5l4 1c3 2 3 2 1 2s-3 0-2 1l-5 1-4-1 4 1c3 2 3 2 1 2-3 0-3 0-1 1 1 1 1 1-2 1s-3 0-2 1 1 1-1 1c-3 0-3 0-1 1s1 1-1 1-3 0-1 1c1 1 1 1-2 1-4 0-4 0-2 1 1 1 1 1-1 1-3 1-3 1 0 1l3-1 1-1 4-2c1-1 2-2 3-1l3-2 4-2 1-1 3-1c3 0 3 0 2-1-2-1-2-1 0-1l3-1c-1-1 0-1 1-1l2-1c-1-1 0-1 1-1l3-2 3-2 2-1h1c1 2 0 2-2 2s-2 0 1 2h-1l-4 1-1 1c-3 0-2 1 2 2 3 1 2 1-2 1h-3l9 2c5 0 6 0 3-1l-3-1h3c3 0 4 0 4 2l-1 1-3 2-3 2-1 1 2 1c1 0 2 0 1-1l3-1c4 1 4 0 1-1-2-1-1-1 2-1 6 1 6 1 3-1l-3-1h3c3 1 3 1 1-1-1-1-1-1 3-1h2c-3-1-3-2 1-2 3 1 3 1 1-1-2-1-2-1 1-1 2 0 2 0 0-1l-4 1c-2 2-2 0 0-2l2-1h1l-3-1c-4-1-4-1 0-1h6l-4-1c-2 0-3 0-2-1l2-1c-1-1 0-1 1-1 3 0 2-2-1-2-2-1-1-1 1-1 6 1 5-1 0-2-3 0-5-1-5-2h1l1-1c0-1 0-2 1-1l1-1c0-2 9-8 12-8l1-1v-1l2-1c0-1 6-4 9-4q3 1.5 0 0c-3-2-2-2 3-2 6 1 6 1 2-1-4-1-4-1 2-1 8 0 7-1-2-1-6-1-7-1-6 1m-28 26-1 2h-1c-3 0-3 0-1-2l4-2zm-6 4-1 2h-2c-2 0-2 0 0-1zm-2 4-1 1-1-1v-1zm9 2h-3c-1-1 0-1 2-1 1 0 2 0 1 1m-3 2h-2v-1zm-8 1h-3l-3-1h3zm4 1h-2c-1-1 0-1 1-1zm6-1-1 1h-2l2-1zm-222-39h4c1-1 0-1-2-1zm-372 3h1v-2zm373 0h2l-2-1zm26 0h2l-2-1zm8 0h2l1-1h-1zm184 0 5 1c5 1 4-1-2-2-3 0-4 0-3 1m-617 2-1 3 2-2c1-3 1-4-1-1m384 0h2l-2-1zm13 1v2l1-1c1-1 2-2 3-1l2-1c-1-2-4-1-6 1m37-1v2c-1 1-1 1 1 1 1 1 1 1-1 1l-2-2c-1-2-1-2-1 0 0 3 0 3 3 3s3 0 3-3-2-4-3-2m179 0-2 1c-1 0-2 0-1 1l-2 1c-1 0-2 0-1 1l-2 1-2 1-3 2-5 4-4 3-1 1-1 1-4 3 2 1 2-1c-1-1 0-1 2-1s2 0 1-1-1-1 2-1 3 0 2-1-1-1 1-1 2 0 1-1-1-1 1-1 2 0 1-1-1-1 2-1 2 0 1-1-1-1 2-1 2 0 1-1-1-1 1-1l2-1c-1-1 0-1 2-1s2 0 1-1 0-1 3-1h1c-2-2-2-2 1-2s3 0 2-1zm-237 1 2 1h1l-1-1zm37 0 1 2v-1c0-2-1-2-1-1m256 0h4c1-1 0-1-2-1zm-504 1v1l1-1v-1zm226 0 1 1v-1l-1-1zm12 0c-1 1-1 1 1 1l1-1zm246 0h2c1-1 0-1-1-1zm10 0-1 1-3 1c-5 0-4 1 2 2 6 0 8 0 4-2-2-1 1-1 10-1l13-1zm-271 1v2h-2 4l-1-2zm-62 1h2c1-1 0-1-1-1zm-331 2c-1 1-1 1 0 0l1-1zm399 0v1l1-1v-1zm44 0v1l1-1v-1zm203 0h2c1-1 0-1-1-1zm27 0h2c1-1 0-1-1-1zm-235 1 1 2h1l-1-2zm215 0-2 1c-1 0-3 0-2 1l-1 1s-2 0-1 1l-3 1c-2 0-2 0 0 1 1 1 1 1-2 1-4 0-4 0-2 1 1 1 1 1-3 1h-3l9 1h3c-4-2-4-2-1-2s3 0 2-1-1-1 2-1c2 1 3 0 2-1s-1-1 1-1 2 0 1-1-1-1 2-1c3 1 4-1 1-1-1-1-1-1 2-1h4l-5-1c-3 0-5 0-4 1m-252 1h4l-2-1zm23 1v1c1-1 4 4 3 6l1 2 1 1 1 1 2 1 1 3c2 1 2 2 2 3v1l2 1 1 3-1 1h2l1 1v1l1 1v1l3 2v3l-1 1 2 1 2 1c2 3-2-7-8-17l-2-6-1-2-2-1c1-2-8-12-9-12zm-27 0-2 3-6 9-1 2-2 3-2 3-1 2-1 2-1 2-1 2-1 2-1 2-1 2-1 2-1 2-1 2-1 2h2l1-3 1-2 1-2 1-1 1-1c0-2 3-4 5-3 3 1 3 1 0 2l-2 2 3-1c3-1 3-2 2-3l-1-1c1 1 2 0 4-1 1-2 2-3 1-4l-1-1c2 1 4-1 4-4l1-1 2-2v-2l1-2 1-1-2-2c0-1-1-2-2 0s-1 1 1 1 1 2-1 2c-3 1-3 0-1-3l1-3h2c3 0 3 0 0-1l-1-2 1-2c0-2-1-2-1-1m-3 17c-2 2-3 2-5 1v-1l2-1h1c2 0 2 0 1-1l-1-1h2c2 1 2 1 0 3m0 2-1 1v-1l1-1zm-2 2-1 1c-1-1-2 0-1 2l-1 2c-1-1-2 0-2 1s-1 2-3 1c-2 0-2 0 0-2l4-2-1-1v-2zm53-21 1 2zc-1-1-1-1 0 0m-422 2h1v-2zm617-2 2 1h1l-1-1zm-234 8-5 6v1l-1 2c-1 1-2 1-1 2l-1 1-1 2-1 2-1 1-2 3-2 3-1 2-1 2-2 3-2 4-1 1c-1 1-2 2-1 3h-1c-2-1-2-1-1 1l-1 3-1 1-2 3-1 1-1 3-2 3-2 3-1 1-1 3c-2 1-3 3-2 4l-1 1c-1 1-2 1-1 2l-1 1-1 2-1 2c0 1-2 1-1 2l-1 1c-1 1-2 1-1 2l-1 1-1 2-1 2c0 1-2 1-1 2l-1 1c-1 1-2 1-1 2l-1 1-2 4-3 4v1l-1 1-2 4-3 4v1l-1 1-1 1-1 2-1 2-2 2c-1 0-2 0-1-1s0-1-1-2c-2-2-2-2-1 1l1 3h-2l-2-2h-2c-2 0-2 1-1 1s2 0 1 1v3l-1-1h-3c-2 0-2 0-1-1h-3l-3-2-4-3-3-1-3-3-3-1h-3 1c2 1 1-1-2-4l-5-4-3-2-1-1v1l-2 1h-2c-1 1 0 1 1 1s2 0 1 1h3v1l1 1c-1 1 0 1 1 1l1-1 1-1v2c-1 2 0 3 2 2l2 1-1 1 2 2c2 2 3 2 3 1l1 1c1 2 5 3 5 1l1-1-1 3c-1 1-1 1 1 1l2 1 1 1v-1l2-1v3c-1 1 14 12 16 12l3-5v-1l1-2c0-2 0-2 1-1s1 1 2-1l1-4c0-3 2-6 3-6v1l1 1v-2l2-6c1-3 3-4 3-3h1v-4l1 1h1c-1-3 2-9 3-7h1v-3h1c1 1 1 1 1-1v-3l1 1h1v-4h1l1 1v-4h1c1 1 1 1 1-1v-3l1 1h1v-4h1l1 1v-3c0-2 0-2 1-1h1c0-4 0-5 1-3h1l1-5v2h1v-3l2-4 2-2v-2l1-1v2h1v-4h2v-1c-1-1 0-4 1-3h1c-1-1 0-3 1-4 1-2 1-3 2-2h1v-3l1-1 1-1 1-3v2h1v-4h2v-3l2-2c0-2 1-3 1-1h1v-3l3-5v1l1 1v-4h1v-1l2-5c1-3 2-3 2-1 1 1 1 1 1-1-1-1 0-3 1-5l3-6zm-99 111v1l-1-1 1-1zm12 10c2 0 2 1 1 1l-2-1-1-2zm346-127-3 1c-2 0-2 0-1 1l-2 1c-2 0 0 1 3 2l4-1c2-2 17-1 18 1h12c1-1 0-1-3-1-4 1-6 0-2-1l-12-2h-13l9-1 10-1h-10zm-28 0 2 1h2l-2-1zm19 1h2c1-1 0-1-1-1zm-524 2h2c1-1 0-1-1-1zm8 0h4c2 0 1-1-2-1zm262 1h1l1-1c-1-1-2-1-2 1m292-1h2l-2-1zm5 0h4c2 0 1-1-2-1zm-131 0 4 1h4l-4-1zM88 302c-7 13-6 14 1 1l5-11-6 9zm658-11c0 1 3 2 4 1l-2-1zm19 1h2l-2-1zm-268 1 1 1 1-1-2-1zm169 0h2c1-1 0-1-1-1zm-214 2h1v-2zm11-1h2c1-1 0-1-1-1zm265 0 4 1c5 0 5 0-1-1zm22 1h-1l-1 1 4 1c4 0 5 0 4-2 0-2-5-3-6-1zm5 0-2 1-2-1 2-1zm11-1c1 1 6 0 6-1h-3zm4 2c-1 1-1 1 2 1h4l-4 1 15 1 18-1h-13l-14-1 1-1h1zm11 0h8l-4-1zm-106 0 2 1h1zm-478 2 1 1v-1l-1-1zm486 1c-2 2-2 2 1 2s3 0 2-1-2-1 1-1c2 0 2 0 1-1-2-1-2-1-5 1m54-1h3c1-1 0-1-1-1-2 0-3 0-2 1m-493 1h4c1-1 0-1-2-1zm433 1h2l-2-1zm57 0h2c1-1 0-1-1-1zm-232 1-1 2 1-1zm238 0h2l-2-1zm-506 1h5l-2-1zm29 0 1 1 1-1-2-1zm416 0 1 1 1-1-2-1zm51 0h3c1-1 0-1-2-1-1 0-2 0-1 1m73 0h2l-2-1zm-65 1-3 1c-2 1-2 1 1 1l3-1v-2zm112 1v1l2 2 3 2c3 0 3 0 0-2l-2-3q0-3-3 0m-622 0c-7 1-5 1 7 1 8 0 14 0 13-1zm27 0 2 1h1l-1-1zm566 1h3c1-1 0-1-1-1-2 0-3 0-2 1m-359 3h1v-2zm267-2 6 1-3-1zm44 1-9 1h-1l-3 2v2l6 1 7-1h4l3-1c-1-1 0-1 3-1 5 0 5-1-1-1l-6-1c-2 0-2-1-1-1l-1-1zm-502 2c-2 0-2 1-1 2v2l1 1v-3c-1-1 0-2 2 0v-3zm8 0h2c1-1 0-1-1-1zm181 1h1v-2zm390-1 1 1 1-1-2-1zm-636 0 21 1c23 0 31 1 20 2-7 1-7 1 3 1s11 0 11-2l-1-2zm51 2-2 1v-1zm418-1h2c1-1 0-1-1-1zm124 0h2l-2-1zm18 0h4c1-1 0-1-2-1zm-330 1h1l1-1h-1zm363 0v2l1-1 1-1 1 2h1v-2h-3zm-10 0v4c1 2 1 2 2 1l1-2v-1c0-2-1-2-1-1h-1zm5 0v4c0 1 0 2 1 1h1l1 1-1-3zm-385 2 2 1h3l-3-1zm-191 1v2l2-2zm400 0h2c1-1 0-1-1-1zm20 0 7 1 7 1-6-2zm37 1h1v-2zm-40 1 8 1h2c-9-2-12-2-10-1m-552 2h1v-2zm721-1 1 2 1-2-1-1zm-191 1h2l-2-1zm70 4-8 5v2h2l1-1c1 1-2 2-3 2l-2 2-2 1c0-1 0-2 2-3v-1l-3 2-4 2-1 1-5 4-6 4 2 1v1h-5l-8 6-9 6 1 1c0 1 1 1 2-1h1l-3 2c-1-1-3-1-5 1-2 0-2 1-1 2 0 1 1 1 2-1h1c0 2-2 3-4 2h-3l-6 4-5 4 1 2c1 1 1 1 0 0h-5c-2 1-3 3 0 3v1h-2c-1-1-3 0-8 4l-7 5-1 1c-1-1-4 2-4 3 1 1 5 1 5-1l1-1c1 1 13-7 13-8h-1l-1-1h2c1 1 7-3 6-4l1-1c2 1 10-5 9-7h1c1 1 2 1 5-2l4-4 1-1c1 1 13-7 13-8l1-1 10-6 8-7c-1 0 2-4 4-4l1 1h-2l-1 2 9-5c5-4 7-5 6-7h4l-1-1c-2 1-1-1 0-2 2-1 2-1 2 1h1v-3l1-1zm-1 5c-2 1-4 1-3-1l3-1zm-18 11-7 5 6-6zm-12 9c-1 1-3 2-4 1s0-1 1-1l2-1 2-1c1 0 1 1-1 2m-8 5v1l-1-1v-1zm-40 28v1l-1-1v-1zm-3 2-1 1v-1l1-1zm-4 4h-3l1-1 2-1 1-1zm194-68-1 3c0 1 1 1 2-1 1-3 1-3-1-2m-716 2h1v-2zm559-2 3 1h3zm-409 3c-2 0-2 1-1 1l3-2zm197-1c0 2-1 2-2 1s-1-1 0 0 1 2-1 2-2 1-1 2 1 2-1 2l-2 1h3c3-1 3-1 1-3v-1c2 0 6-4 5-5zm221 0h2l-2-1zm36 0h1l1-1h-1zm-661 2c-1 1-1 1 0 0l1-2zm614-1h4c1-1 0-1-2-1zm-405 1c-1 2-1 2 1 2 1 0 2 0 1 1 0 1 11 9 13 9 1 0 2 0 1 1l2 1c1 0 2 0 1 1l2 1c1 0 6 3 4 3l-2-1 2 2c1 1 3 2 4 1l2 1-1 1 1 1 4 2c1 0 2 0 1 1l2 1c1 0 2 0 1 1l2 1c1 0 6 3 4 3l-2-1 2 2c1 1 3 2 4 1l2 1-1 1 2 1 1 1h2l1 2 2 1c1 0 2 0 1 1l2 1c1 0 6 3 4 3l-2-1-1-1 6 5 5 3h1l3 1h2l-1 1h-2l2 1c1 0 2 0 1 1h3v2l1 1 1-1 1-1h2c1-1 1-1-1-1l-3-2-3-2-3-2-4-3-3-2-2-1-1-1c1-1 0-1-1-1l-3-2-3-2v-1l-1-1-2-1-3-1-1-1c1-1 0-1-1-1l-2-1-2-1-1-1c1-1 0-1-1-1v-1l-1-1-2-1-3-1v-1l-1-1-2-1-3-1-1-1-1-2-4-3-3-1h-1l-3-4c-1-2-2-1-1 0h-2l-2-3h-2l-1-1c1-1-2-4-3-3l-3-1c1-1 0-1-1-1l-2-1c0-2-2-1-4 0m6 5c-1 0-3-1-2-2h1zm67 45-1 1-2-1zm307-50h2l-2-1zm39 0 2 1h3c0-1-4-2-5-1m-17 1h4c1-1 0-1-2-1zm-141 3 2 3-2-5zm140-1h2c1-1 0-1-1-1zm16 0h2c1-1 0-1-1-1zm-616 3c-2 3-1 4 1 0l1-3s-2 1-2 3m578-1h3c1-1 0-1-2-1-1 0-2 0-1 1m18 0h2l-2-1zm18 0h2l-2-1zm145 2v3l-1 3a428 428 0 0 1-5 47 156 156 0 0 0-4 34c-1-1-1 0-1 3l-1 14-1 10-1 7c-1-1-1 1-1 4v4l-1 1h3a193 193 0 0 1 3-17h1a288 288 0 0 0 4-46v-7l1-8a123 123 0 0 0 3-16 77 77 0 0 0 1-13v-3l1-6 1-10c1-6 1-7-1-7zm-378 0c0 2 0 3 1 2v-3c-1-1-1 0-1 1m195 0h2l-2-1zm-191 4c-2 1-2 2-1 3 1 0 1 1-1 1l-2 2 3-1c3-1 3-1 1-3v-1l2-2zm-388 0 1 1 1-1v-1zm42 0h3c1-1 0-1-2-1-1 0-2 0-1 1m340 0-1 2-1 2h2l1-4zm15 1v2l1-2c1-1 0-2-1 0m-357 1h2l-2-1zm549 0h2l-2-1zm-590 1c-1 2 1 2 2 0v-1zm470 2 1 1 2 1v-1c-1-3-3-3-3-1m-472 2 1 1 1-1v-1zm381 1h1v-2zm-277 2v2l1-3c-1-1-1-1-1 1m275 0h1v-2zm98 2 1 4v1h3v-2l-4-5zm-94-1 1 1v2h2v-1l-2-2 1-1zm-385 2 1 1 1-1v-1zm379 1h1v-2zm-380 2v2l1-2c1-1 0-2-1 0m378 2h1v-2zm15 0h1l1-1h-1zm-17 2h1v-2zm7-2 1 1h2l-2-1zm103 2c0 1 0 2 1 1s0-1-1-1c-1-1-1-1 0 0m-105 1h1c2 0 3-1 1-1zm107 1v4l2 1v-1l-1-3zm-107 2h1c2 0 2-1 1-1zm-272 3c-1 2-1 2 1 0v-3zm269-2 1 1 1-1v-1zm-2 5c-3 1-3 2 1 1l3-2zm116 0c0 1 0 2 1 1s0-1-1-1c-1-1-1-1 0 0m-382 4h1v-2zm-125 1v4l1 3c1 0 2-5 0-7-1-2-1-2-1 0m390-1h1c2 0 2-1 1-1zm118 1 1 1 2 1v-1c-2-4-3-4-3-1m-122 4c-3 2-4 3 0 2l3-2v-1zm-260 3-1 2h1c2-2 2-4 1-4zm251 2h1v-2zm-379 0c0 3 0 6-1 5l-1 1v3c0 4 2 4 2 0l1-3v-1l1-2v-1l1-2c1-1 1-1-1-1zm516 1 1 1 1-2-1-1zm-387 4c0 2 0 3 1 2v-3c-1-1-1 0-1 1m182 0c-1 1 0 2 1 2l3 1c1 1 0 1-1 1l2 2 2 1h6l-2-2c-2-2-6-3-5-1l-1 1v-5zm71 1h1c2 0 2-1 1-1zm-387 2 1 1q1.5 0 0 0c0-2-1-3-1-1m393 2v2l1-2v-1zm-257 3-1 3c-1 4 0 2 1-1zm452 0-6 4-5 4 1 2c1 1 1 1 0 0h-5c-2 1-3 3-1 3l2-1 1-1-1 2c-1 2-2 2-3 1s-2-1-4 1l-4 2-2 1-2 1-1 1v1c-2 0-2-1-1-3 1-1 1-1 0 0l-2 3-1 1h-1c1-1-4-2-6-1l1 1h1v1c-2 0-8-4-8-5l-9-14 1 2v3l1 1c1-1 2 1 5 5v3h-1l2 1 2 3 1 2c-1 0 2 7 4 8 1 1 10-5 9-6l1-1c0 1 3 0 5-2 4-2 5-4 4-5h1c1 1 2 1 5-2l4-4 1-1c1 1 17-10 17-11zm-1 4v1l-2-1 1-1zm-38 22-1-1c-1-1-1-1 0 0 1 0 2 0 1 1m-3 2h-1l1-2zm7 0v1l-2-1 1-1zM57 394l1 3v-4c-1-1-1 0-1 1m135 5c0 2 0 3 1 2v-4c-1-1-1 0-1 2m251-1v1l1-1v-2zm-388 4 1 3v-3c0-3-1-4-1 0m369 0 1 1 1-1v-1zm8 1c-1 1 0 1 0 0 2 0 2-1 1-1l-2 1zm5 4 1 1 1-2h-1zm-384 3 1 3v-3c0-3-1-4-1 0m-6 2 1 2v-1c0-2-1-2-1-1m147 4c0 1 0 2 1 1v-2c-1-1-1 0-1 1m-146 0 1 2v-1c0-2-1-3-1-1m3 3 1 4v-7zm-6 3 1 1v3c-1 2 0 3 1 3l-1-6c0-2-1-2-1-1m150 4c-1 2-1 2 1 0v-3zm-146 6h1v-2zm-6 1h1v-2zm154 8v3l1-2c1-2 0-3-1-1m685 1h2l-2-1zm-841 3h1v-2zm6 0c-1 1 0 2 1 2v-4zm830 1h1l1-1h-1zm-787 3h2l-2-1zm-1 3h3c1-1 0-1-1-1-2 0-3 0-2 1m797 1h2l2-1h-2zm-799 1h2l-2-1zm7 2h2l-2-1zm789 0h2l-2-1zm7 0h2l-2-1zm-770 1-1 4-1 2c-2 0-3 2-3 3l-2 2v1l2 1h-1l-2 2c0 1-1 1-1-2-1-2-1-1-1 4l-1 7-1 3-1 1-1 1c0 1-3 5-3 3l-1 1-3 2c-2 1-2 1 0 1 1 0 2 1 1 3l1 3v16c2 0 2-2 2-11l1-11 1 11v15l-1 2c0 2 1 2 2 2a416 416 0 0 0 6 44l1 6 1 4 2 5 1 4 1 3c-1 1 0 2 1 2l1 1 1 2v3c-1 0-1 1 1 2l2 4 1 3 1 1v3l2 5 1 4 1 2 1 1 1 1 1 4c1 0 2 1 2 4l1 4 1 1c0 3 0 4 1 3l1 3 1 3 1 2c0 2 0 2 1 1s1-1 1 2 0 3 1 2h1l1 3 1-1c-1-1 0-1 2-1 3 0 3 0 2 1v1c1 0 4 6 3 7l1 1 1 1 1 2 1 1 1 2v2l1 2 2 3 1 2v1l1 2 2 3c1 1 2 2 1 3l2 2 1 1v2l2 3 1 2 1 2 1 2 1 2 2 2 1 1c-1 1 2 6 2 5l1 1 2 1v1l-1 1 2 1 1 1v2l1 1 1 1 1 1 1 1v2l3 2 1 2 1 1 8 8 1 1c-1 1 0 1 2 1s2 0 1 1c-2 1-2 1 1 1s3 0 0 1c-2 1-2 1 0 1s17 15 16 17l2 1 1 1 2 3 2 3 1 1 1 1 3 4 4 4c-1 0 0 2 5 6l2 4 1 1 2 1 1 1v1c-1 1-1 1 1 1s2 0 1 1-1 1 1 1 2 0 1 1-1 1 1 1l2 1 2 1v1c-1 1-2 1 1 1s2 0 1 1c-2 1-2 1 0 1s2 0 1 1-1 1 2 1 3 0 1 1-2 1 1 1c2 0 2 0 1 1-2 1-2 1 0 1s2 0 1 1-1 1 2 1h3l-3 1c-3 1-3 1 1 1 5 0 5 0 1 1l-3 1h4c3 0 3 0 1 1-3 1-3 1-1 1s2 0 1 2v1c1-1 1-1 2 1l1 2 1 1 3 3c1 0 2 0 1 1l1 1v3h1c2 0 3 1 1 2-1 1 0 1 2 1h3l-3 1c-3 1-3 1 1 1s5 0 2 1-3 1 2 1h5l-6 1c-7 1-9 2-3 2l4 1 3 1c5 0 5 2 1 2-2 1-1 1 2 1 5 0 5 0 1 1s-4 1 1 1c4 0 5 0 2 1l-3 1h1c1-1 1 0 1 1l3 1h3l-3 1c-2 1-2 1 3 1s5 0 2 1-3 1 1 1c5 0 5 0 1 1h2c4 0 6 0 5 1l-4 1c-2 0-2 0-1 1l6 2h5l-4 1c-4 1-3 1 6 1h10l-8 1-9 1h21l-11 1c-13 1-16 2-7 2 5 0 6 0 5 1s-1 1 2 1c4 0 4 0 1 2s-3 1 1 0l7 1c2 2 2 2-1 3s-3 1 1 2h8l5 1c1 1 1 1-3 1-7 0-2 2 6 2 6 0 6 0 1 1-4 1-4 1 4 1h8l-7 2-8 1 10-1c11 0 11 0 1 2h5c6 0 9 0 8 1l-9 1c-5 0-5 0 3 1 5 0 7 1 4 1-7 0-8 2-1 2 3 0 4 0 2 1-1 1-1 1 2 1l3 1 2 1c2 0 2 0 1 1s-1 1 2 1c4 0 4 0 1 1-3 0-3 0 1 1l5 1h-5l-5 1h6c8 0 5 1-5 2h-5c1-1-1-1-6-1-7 0-7 0-1 1 4 0 5 1 3 1s-1 1 3 1c5 0 5 0 2 1-1 1 2 1 10 1l13-1-10 1c-11 2-11 2-4 2 6 0 6 0 3 1s-3 1 2 1c4 0 5 0 3 1-1 1-1 1 3 1 5 0 4 2-2 2h5l8 1-6 1-11 1h5a379 379 0 0 0 2 2h7a346 346 0 0 0-1 2c-4 1-4 1 2 1l16-1h11c1 1-2 1-7 1l-14 1c-4 1-4 1 4 1 9 0 9 0 3 1-5 1-5 1 5 1s10 0 3 1c-9 1-8 1 1 1h6l-5 1-5 2h8c7 0 7 0 2 1s-4 1 5 1h11l-12 1c-20 1-18 2 6 1h22l-17 1-19 1 11 1c9 0 10 0 4 1-4 0-1 1 12 1 17 0 17 0 7 1l-11 1h14c15 0 15 1-2 2l-11 1h26l32 1a444 444 0 0 1-14 3l-16 1h15c30 0 33 0 13 2-11 1-11 1 5 1l14-1c-1-1 3-1 8-1h11l-10-1-9-1h11l8-1h6l13-1c2-1 1-1-5-1l-10-1c-2-1-1-1 2-1a326 326 0 0 0 43-1c-1-1 0-1 4-1l5-1 4-1 4-1c0-1 1-2 3-1l4-1-1-1c-3-1-2-1 2-1 3 1 7 0 11-1 6-2 6-2 2-2s-3-1 1-1h9l-3-1c-2-1-1-1 4-1s5 0 3-1c-3-1-3-1 2-1 4 0 5 0 3-1s-2-1 3-1 4 0 2-1-2-1 3-1 4 0 2-1-1-1 3-1l3-1c-5-1-4-2 1-1 4 0 5 0 3-1-3-2-2-2 3-2h3c-4-1-2-2 2-2h2c-3-2-2-2 3-2h3c-4-1-2-2 2-2h2c-3-2-2-2 2-2h2c-3-2-2-2 3-2h3c-3 0-2-2 1-1 3 0 3 0 2-1-1-2-1-2 2-1l2-1c-1-1 0-2 3-1 4 0 4 0 2-1-3-2-2-2 2-2 4 1 4 1 2-1-2-1-2-1 2-1 3 0 3 0 2-1s-2-1 2-1c3 0 3 0 2-1-2-1-2-1 0-1 4 0 5 0 3-1-1-1-1-1 1-1l3-1 2-1 2-1c-1-1 0-1 1-1l2-1 5-3 6-4 4-2 1-1 5-4c5-3 6-6 3-6-1 0-2 0-1 1l-1 1s-2 0-1 1l-2 1c-2 0-3 0-2 1l-3 1c-2-1-2-1 0 1s1 1-1 1-3 0-2 1l-3 1c-2-1-2-1 0 1s1 1-1 1-3 0-2 1l-2 1c-2 0-2 0-1 1s1 1-1 1-3 0-2 1l-2 1-2 1-2 1c-2 0-2 0-1 1s1 1-2 1c-4-1-4-1-2 1s1 1-1 1-3 0-2 1-1 1-2 1l-3 1-2 1-2 1-2 1-2 1-2 1-2 1-2 1c-1 0-2 0-1 1l-3 1c-4-1-4-1-2 1 1 1 1 1-2 1h-4l-2 1-2 2h-2l-4 1-2 1-1 1c0 1-2 2-5 1l-2 1-3 1-3 1c0 1-1 2-2 1s-2 0-2 1h-2c0 1-1 2-2 1l-2 1h-2l-2 1-2 1h-2l-2 1v-1c1-1 1-1-2-1-1-1 0-1 4-1h6l-6-1-6-1h9c7 0 8 0 3-1-8-1-7-2 3-2h3c-8-1-7-2 1-2h4c-7-1-5-2 3-2h2c-8-1-7-2 1-2h4c-6-1-6-2 0-2h2l-10-1-4 1-1 1c1 1 0 1-3 1s-3 0-2 1c2 2 2 2-2 1-3 0-5 0-4 1l-6 1v1c1 1-2 1-6 1h-5l5-1 2-1c-3-1-2-1 2-1 3 0 4 0 3-1s-1-1 3-1h5l-5-1c-7-1-6-2 3-2h2c-8-1-7-2 2-2h3c-7-1-6-2 3-2 10 1 8 0-3-1-8-1-9 0-7 1 1 1 1 1-2 1h-4l-7 1h-7l7-1 3-1c-4-1-4-1 2-1 5 0 5 0 3-1s-2-1 3-1l3-1c-4 0-4-2 1-1 4 0 4 0 0-1-6-1-5-2 3-2h3c-5-1-5-2 2-2h2c-5-2-4-2 3-2h3c-5-1-5-2 2-2h2c-5-2-4-2 2-2 5 1 5 1 3-1-3-1-3-1 3-1h2c-4-1-5-2-1-2 3 0 3 0 2-1s0-1 3-1c5 1 5 0 2-1-2-1-2-1 2-1 5 1 5 0 2-1-2-1-2-1 1-1 2 0 3 0 2-1v-1h-2a582 582 0 0 1-21 9l-4 1-2 1-3 1-3 1-2 1-2 1-3 1-3 1-4 1c-3 0-4 0-3 1 2 1-3 2-9 1l-4-1h6c5 0 5 0 3-1-3-1-2-1 4-1s6 0 2-1c-8 0-6-2 3-1h7l-6-1c-9-1-9-2 1-2h2c-8-2-7-2 3-2l9 1-8-2a148 148 0 0 0-14-2l10 1h8l-7-2-8-1 22 1-8-2c-6 0-8-1-5-1l10 1c6 1 9-1 3-1-2-1-1-1 2-1 5 0 5 0 3-1h-9c1 1 0 1-4 1-5 0-5 0-1-1 3 0 3 0 2-1-2-1-1-1 3-1 3 0 4 0 3-1-2-1-2-1 2-1s3 0 2-1-2-1 2-1c3 0 3 0 2-1s-1-1 2-1c2 0 3 0 2-1s1-1 2-1l3-1 7-4 6-3 2-1 3-1c1-2 0-2-2-2h-5l2 1c2 1 2 1-2 1l-6 1h-6l-5-1h6c4 0 4 0 2-1s-3-1 2-1 4 0 2-1c-3-1-3-1 1-1s4 0 2-1-2-1 2-1h4l-4-2-4-1h3c4 1 4 0 2-1v-1l5-3 4-3v-2h-2l-4 3-2 1c0 1-8 4-11 4l-4-1h4c3 0 8-3 5-3l2-1c2-1 2-1 0-1l-2-1h3c2 0 3 0 2-1-2-1-1-2 1-2 2 1 2 1 1-1v-1h1l-3-1c-2-1-2-1 1-1h5l-4-1-3-1h3c3 0 3 0 2-1-2-1-2-1 2-1h4l-4-1h-6c0-2 4-5 5-4l1-2h1l1 1 1-1 4-2c2-2 2-2-1-2l-3 1h-1c-1-1 0-2 2-4l4-4h-3c-4-1-4-1-2-3 0-1 2-2 3-1v2c-1 1-1 1 1 1l3-1 1-2v-4l-2 1c0 2-2 2-5 1-1 0-1-1 1-1l4-1h-3l-5-1c-1-1 0-1 3-1h1c-3-1-3-1-1-2 2 0 2 0 1-1v-3l-2 1-3 1h-1l2-2v-1c-1-2-1-2 1-1 2 0 2 0 1-1v-1l2 1v2c1 0 7-6 7-8 1-2 0-1-3 2-2 2-3 3-5 2v-1c2 0 2 0 1-2v-1c1 1 2 0 1-1l1-1h1l2-4c3-2 2-3-1-3-3-1-3 0 0 1 2 1 2 1 0 1l-2 1v1l-1 1h-2l-1 1c1 1 0 2-1 1v2c1 2 0 1-1 1-1-1-2 0-1 1 0 2-1 3-2 2l-1 1-1 1-1 1-1 1-1 1h-3v-1h2c0-2-3-1-4 0v2l4 1h-4c-2-1-3-1-5 2l-4 3-1 1-1 1-1-1 5-5c3-3 5-6 4-7v-2l-1-1v2c0 3 0 3-2 2l-3-2v-2 3l2 2 1 1h-2l-3-2-1-2v-3c1-1 2-2 1-3l-1 1c0 2-5 6-6 5v1c0 1-1 2-3 1-2 0-2 0 1 1l4 2h-2l-5-1c-3-1-4-2-2-4 4-4 4-4 2-5l-2-1-1 1-1 2-1 2-2 1c-2 0-2 0 2-4l5-5c2 1 3 0 5-2v-2l-2 1-2 2c-2 0-2 0-1-1l1-1 3-5 3-5c-1-2-1-2 1-2l1-1 1-1c1 1 1 0 1-1l-1-2-5 6-3 4-2 3c1 1 0 1-1 1l-1 1v1c-1 1-4 0-3-1h1l1-1v-2l2-2 1-3a87 87 0 0 0 11-15l4-5 2-3 1-1 1-1c0-1-1-1-2 1s-2 2-3 1l-3 6-1-2v-2c2 0 2 0 1-1v-1c2 0 7-6 6-7v-1c2 0 2 0 1-1l-1-1 1-1c1 1 2 0 4-1l1-3v-1c2 0 2 0 1-2v-1c2 1 4-1 3-3h1l2-1c-1-1 0-1 1-1v-2l1-1 1-2 2-2 1-1v-1l1-1v-2l1-1c2 2 4-1 3-3h1c2 0 2 0 0-1-2-2-1-2 1-1 1 0 2 0 1-1l-1-1 1-1c2 2 4-1 3-3h1l2-1v-2l2-1c1 1 2 0 1-1l1-2 1-2 2-1v-1h2c2 0 2 0 0 2l-1 3 2-1 4-6 3-3 3-4 3-4 2-4 6-6 5-6 1-3 1-1v-1c-2 0-2-2-3-4 0-2 0-2 1-1l2 1-1-2v-2l-1-2v-1l1 1 2 1v-2l-2-2h-1c-1 1-1 1-1-1l2-2-1-2c-2-2-3-1-3 4-1 4-2 7-2 4l-1-1v2c0 1-2 4-3 3l-1 1c1 1 0 2-1 3h-1c0-1 1-1 0 0-2 1-2 2-1 2v2l-4 1 1 1c1 0 1 1-1 2h-2c-1 1-2 3-1 4l-1 1-3 2h4l-1 1h-3l-1 1c-1 1-2 2-1 3l-1 1c-1-1-3 1-3 3v2h-1l-1-1-1 3v1l-3 1v2l1-1 1-1c0 1-2 4-3 3-1 0-4 4-3 5l-1 1-3 2h2c1-1 1-1 0 0l-2 1c-1-1-3 2-2 4l-1 1c-1-1-6 6-5 7l-1 1h-1c0 1 0 2-1 1l-2 1 1 1v1h-1c-1 0-4 4-3 5l-1 1c-1-1-3 2-2 3l-1 1c-1-1-3 1-2 3l-1 1c-1-1-3 2-2 3l-1 1c-1-1-3 1-2 3l-1 1c-1-1-3 1-3 3l-1 1-5 7-1 2h-1c0-1 1-1 0 0l-2 2-1 2c-2 1-2 1-1 2v1c-2 0-5 3-4 5l-1 1c-1-1-3 1-3 3l-1 1c-2 1-3 2-3 4 0 1 0 2-1 1l-1 1v1c2 1 2 1 1 3l-2 2 1-2v-2c-1 0-2 1-1 3 0 6 1 7 6 8 3 0 7 2 4 2l-1 1h-1c-2 0-2-1-1-1 1-1 1-1-1-1h-5l-1 3 1 3 1-1c0-1 1-2 3-1 1 0 2 0 1 1l-3 2-6 2c-3 0-4 0-3-1 2-1 2-1-1-1s-2 0-1-1c2-1 2-1-1-1-2 0-3 0-2 1l1 1 1 2c1 1 0 1-2 1l-4 1c-2 0-2 0-1-1 0-1-1-2-3-2l-5 2h-8c-2-1-2-1 1-1h5l-5-1-5-1h-1c-2 0-2 1-2 2l-2 1-1 1-10 1-6 1-3 1-5-1 2-1c2 1 3 0 3-1l2-1c2 0 2 0 1-1s-1-1 2-1c2 0 3 0 2-1-2-1-5 0-6 1h-1l-4 1-3 1 1-1c1-1-2-1-6-1-5 0-6 0-3 1 5 1 5 2-1 2l-5-1 4 1 4 2-5-1c-3 0-4 0-3 1s1 1-1 1c-2 1-3 3-1 3 1 1 0 1-1 1l-3 1-2 1-1-4-1-1v3l-1 2h-1c0 1-1 2-2 1s-1 0-1 1v1l-1-2 1-2h1l1-1c1 0 2-1 1-3l1-2h1l1-2c1 0 1-1-1-1-1-1-1-1 1-1 2 1 3 0 3-1l-1-3-1 1c1 2 0 2-1 2s-2 0-3 2l-1 1-3 3c-2 3-3 4-2 1l-1-1-3 4-2 1v2l-1 1c-1-1-2 0-4 2l-4 3c-2 0-1-3 1-4v-2c-1 0-1-1 1-2 3-3 7-9 7-11l1-2v-1l1-1 1-2c0-3-2-3-3 0l-1 1-1 1-1 1-1-2 2-1v-2c-1-1 0-1 1-1l1-1 1-2 1-2 1-1 1-2c-1-2-1-2 1-2l1-1 1-1 1-2-1-1-1 1v1c-1 0-4 3-4 5l-3 3-2 1v-3c1 1 2 0 1-1l2-4 2-3 2-3 2-4h-1c0 2-1 2-2 1s-1-1 0 0l-1 2-1-1-1-3c-1-1-1-1 1-1h1c-1-2-1-2 1-1 2 0 2 0 0-1-1-2-1-2 1-1 2 0 3 1 3 2 0 2 0 2 2 0l1-3h-1c0 2 0 2-3 0-4-1-4-2-1-1 2 0 2 0 1-1-1-2-1-2 1-4l3-1v-2c-1-1-1-1 1-1h1l1-1h-1l-1-1 2-1c2 0 2-1 1-1-2-2 2-6 4-6h1c-2-1-1-2 1-1v-2c-1-2-1-1 1-1h1c-2-1 0-4 2-4 1 1 1 1 0 0-1-2 1-4 3-3v-1c-1-1 0-2 1-5l4-3v-4h-3l-1 2h-3l-1 1-2 3c1 1 1 1 0 0l-1 1c1 1 0 2-1 3s-1 1 0 0l-1-1-1 3v1l-2 1v3l-1-1 1-1c-1 0-8 9-7 11l-1 1-2 1v3l-1-1-1 1-3 5v2h-1c1-2 1-2-1-1l-1 3c0 1 1 1 0 0s-1 0-1 1v1l2 1-1 1h-3l-1 1-2 4 1 1h-2c-1 0-3 3-2 4l-1 1-2 1h1l1 1-2 1c-1-1-5 5-4 6l-1 1c-1-1-5 5-4 6l-1 1c-1-1-7 8-8 11l1 2 1-4v-2h3-1l-1 1c1 1 0 3-1 5l-1 5-1-1h-2l-1 1v-2q3-3 0-3h-2l-3-2 1 2 2 4 1 2 2 2-2-1c-2-1-2-1-1 1l1 2c1 1 0 1-1 2l-4-1h-2l-1 1-1 1 2 1c1 0 2 0 1 1l-5 1c-3 0-4 0-3-1 2-1 2-1-1-1h-6l-3-1c1-1-2-3-4-3v-1l-1-1-1 2h-1c0-2-1-2-3-2l-4-1-3-2c-3 0-3 0 0 1 2 2 2 2 0 2l-4-2-4-1v-1c1-1 2-1 0-1s-2 0-1-1 1-1-1-1c-3 0-11 5-11 7h-1l-1-2-1 1v1c-2 0-1-4 2-4l2-1c0-2-2-1-4 1l-3 1-2-1-1-1 1-1h1l-2-1-2 1v1-5l-1 1v1l-5 2c-2 2-3 3-4 2l2-1-1-1c-2-1-1-1 1-1 3 0 5-2 3-3v-1c2 0 2 0 0-1h-2c0 1 0 2-2 1-3 0-4-2-1-2v-1c-1 0-8 6-7 7l-1 1c-2 0-2 0-1 1l-1 1c-2 0-3-1-3-2l1-1v-1l2-1c1-1 1-1-1-1-1-1-2 0-2 1h-2c-1-1-1 0-1 1l-1 1v1l-1 1-1-2c-1-2-1-2-3 0l-4 2v-1c2-1 2-1 0-2l-5-1 1 1c3 1 3 2-1 1l-3 1h-1l-1 2h-1l2-3 1-2v-2l2-3h1v-1h-3l-3 2-1 1c1 1 0 1-1 1-3 0-3-1 1-4l3-4 1-1 1-2-1-2-1 1-2 1-2 2-1 3c-2-1-4 0-4 1l-1 2-5 2-2 1-1-1 2-1 2-2 2-1 4-4c-2-1-5-1-5 1 0 1-3 2-5 0-3-1-2-3 0-2l3-2c1-2 1-3 2-2 2 0 2 2 1 2l-1 1 2-1c2-1 2-1 0-3v-3l1-1v2l2 2v-2c2 0 2 0 1-1l-1-1h1c2 0 2 0 1-1 0-2 0-2 2-1l-1-2c-2-1-1-1 1-1h2l1-1c1 0 2 0 1-1l1-1v-2c-1-1-1-1 0 0l2-1c-1-1-1-1 1-1v-2c-1-1-1-1 0 0 2 0 2 0 2-2s0-3 2-2v-2c-1-2-1-1 1-1 2 1 2 1 1-1-2-2-2-2 0-3l1-2 1-1c1 1 5-4 4-5l1-1 3-3c2-1 3-2 4-1v-1c-1-2 4-8 7-7v-5l7-6 1-2c-1-1 0-2 1-3l1-3 1-1v-1l-2 1-2 1v-2l-8 8a3435 3435 0 0 1-42 56c0 3 0 4-2 3-2 0-3 0-2 1l-2 1c-2 1-3 0-4-1-2-3-2-3-1 0l2 4v4l1 3 1 1v1l1 1c0 2-2 2-3 0l-1-1-2-1h-2l-1 1-2 1 2 1c2 0 1 1-4 2-3 1-4 1-4-1v-1l-3-2-3-1v1c2 0 1 2 0 2l-2-2c-1-2-2-2-4-2-2 1-2 1 0-1 1-1 1-1-1-1l-2 1-1 1-2-2c0-2 0-2-1-1h-1l-1-2h-1l-3-1c-6 0-7 0-5-1 1-1 1-1-2-1h-3l-3-1c-2 0-2 0 1-1 2-1 2-1-1-1s-4 0-3-1c2-1 2-1 0-1l-8-1c-5 0-10-2-8-4h-9c-3 0-3 0-1-1s2-1 0-1c-3 0-3 0-1-1s2-1 0-1h-3l-1-1 5-1c2 0 4 0 3-1h-9l4-2 4-1h-9c-2 0-2 0 0-1 1-1 1-1-1-1l-3-1 1-1h4c2 0 2 0-1-1-4-1-4-1 0-1 8 0 5-2-4-2-3 0-4 0-2-1s2-1 0-1c-2-1-2-1 0-1 4 0 4-2 0-2s-4-1 1-1c3 0 4 0 3-1l-7-1h-5l5-1 5-1h-5c-5 0-5 0-2-1l1-1c-2 0 0-2 2-2v1l1 1c2 0 1-2-2-4l-7-2c-5 0-5 0-1-1 4 0 4 0 2-1s-2-1 2-1c3 0 4 0 3 1l-1 1 7 1c5 0 5 0 2-1s-3-1-2-2 1-1-1-1-2 0-1-2c1-1 1-1-1-1l2-1 3-1h-4c-2 0-3 0-2-1 2-1 1-2-1-2s-3-2-1-2c1-1 0-1-1-1-2 0-2 0 0-1 3-1 3-1-1-1-3 0-3 0-2-1v-2c-1-1-1-1 1-1s2 0-1-1-3-1-1-2 2-1-2-1-4 0-1-1l3-1-3-1h-4l3-1c3-1 3-1 1-1l-3-1h2v-2l-5-5-1-1c1-1-4-9-6-9l1-1v-1l-2-1c1-1 0-1-1-1v-1c1-1 1-1-2-1s-3 0-2-1c2-1 2-1-1-1h-4l4-1 3-1-5-1c-7 0-8-1-1-1 4 0 4 0 1-1-2-1-3-1-1-1 4 0 2-2-3-2s-5 0-1-1c4 0 4 0 2-1s-2-1 1-2 3-1-3-1l-6-1h6c4 0 6 0 5-1h-3l-2-1 1-1-3-2c-2 0-3-1-1-1s4-2 2-2l-2-1 3-1c4 1 4 0 1-1-2-1-2-1 1-1s3 0 2-1-1-1 2-1 3 0 1-1c-2-2-3-2-4 0l-8 1h-7l6-1 6-1h-5c-7 0-7-2 1-2 6 0 6 0 7-2l2-3q3-3 0-3l-1 1c0 1-1 2-3 1h-9c-5 0-5 0 2-1s7-1 1-1l-6-1h12l-6-2c-8 0-8-1 0-1h6l-4-1-9-1c-2 0 1-3 5-3 3-1 3-1-1-1s-4-2 0-2c2 0 2 0-1-1s-3-1 2-1c7 0 8-1 1-1l-5-1c-2-1-2-1 0-1 3 0 3 0 2-1-2-1-2-1 0-1 1-1 1-1-1-2-2 0-2 0 0-1v-1l-2-1 1-1h1l-1-1v-2l-1-1 2-1c0 1 1 1 0 0l-2-1v-1c2-1 2-1 0-1l-3-2-1-4-1 1v1l-1-2c-1-1-1 0-1 1v3l-1-3-1-1c0 3-5 3-5 0l-1-2v-2l-1-1v-1l-1-2c0-3-2-3-2 0-1 2-1 2-1 0s0-3 2-3v-1l-1-1h-1l1-1c1-1 0-1-2-1l-4-1h3l2-1-2-1h-2l-1-2h-1l-2-2v-4c1-1 1-1-1-1-1 0-2 0-1-1 2-1 1-2-3-2h-2l1-1 1-1v-1c-1-1-1-1 1-1 1 0 2 0 1-1-4-1-5-1-2-2 2-1 2-1-1-1h-3l3-1c3-1 3-1 1-1l-2-1-1-2c-1-1 0-1 1-1 2 0 3 0 2-1l-2-1 2-1-2-1c-2-1-2-1 1-1 5 0 10-3 7-3l-4 1c-2 1-7 0-7-1v-1l-1-2 4 1h4c1-1 1-1-1-1v-1c1-1 1-1-1-1l-2-1c1-1-1-1-5-1-7 0-7 0-2-1s5-1 2-1-3 0-1-1 2-1 0-1l-2-2-1-2h-6l3-1c2-1 1-1-3-1-5 0-5 0-2-1l3-1h-3c-6 0-3-2 3-2h6l-6-1c-11-1-9-2 4-2h6c-5-1-5-1-1-1 3 0 4 0 3-1-2 0 1-3 4-3l2-1-3-1-6 1h1l5-2c0-1-1-1-6 1l-2-1 3-1 2-1c1-1-1-1-3-1h-2c3 0 4-2 1-2v-1l-3-1c-5 2-15 2-15 1h5l8-1 2-2-3 1h-11c-6 0-8 0-6 1s2 1 0 1c-3 0-2 1 3 2 3 1 2 1-5 1s-8-1-5-1l3-1-5-1c-2 0-1-1 2-1 4-1 4-1 1-1-2 0-2 0-1-2 2-1 2-1-1-1l-3 1-2 1c-2 0-2 0-1-1 2-1 2-1 0-1-3-1-3-1 0-1 2 0 3-1 3-2l2-1 1-1 4-1h3l-4-1-10-1c-5 0-5 0-2-1 3 0 3-1 2-1l-2-1h6c4 0 5 0 2-1l-1-1h4v-1l-3-1-8-1c-5 0-5 0-1-1 3-1 3-1-1-1l-5-1h7c4 0 5 0 2-1-2-1-2-1 2-1 5 0 5 0-2-2l-8-1h7c9 0 8-1-4-2l-6-1 1-1c-1 0-1-1 1-1l2-3 1-2 1-1-2-1-2 1-2 2-1 1v1l-1-2-1-3-1-3c0-2-4-4-4-2l-1 2v1l1 1h-1l-1 2c0 2 0 2-1 1l-1-2v-3l-2-1h-2c-1 1-1 1-1-2v-4l-1 4-1 3v-3c0-3-1-4-3-2m-8 19h-1l1-2zm0 4h-1l1-2zm40 8h-4c-1-1 0-1 2-1zm3 10h-4c-1-1 0-1 2-1zm1 8h-2v-1zm32 2h-2c-1-1 0-1 1-1zm-6 1c-1 2-11 3-19 2-7-1-7-1 3-1l10-1 4-1zm-74 7c-1 1-1 0-1-2l1-2zm76-4h-3c-1-1 0-1 2-1 1 0 2 0 1 1m-7 2h-10c-2-1 0-1 5-1zm8 3h-8c-6 0-8 0-7-1s14 0 15 1m2 0c0 2-1 2-8 2h-8l7-1 8-1 1-1zm6 22v1c-3 1-5 0-5-1l2-1zm17 45h-1l-2-1h2zm33 55h-5l-7-1zm-1 3-9-1h4zm4 1h-1l-2-1h2zm-96 9h-2v-1zm611 2c0 1-3 6-4 5l-1 1-1 1v-1l-1-3h1c2 1 2 1 1-2 0-2 0-3 2-2zm-6 8-2 4-2 2-1 1-2-3v-1c2 1 3 1 3-1-1-1-1-1 1-1v-1c-2-2-2-2 0-1zm-6 8c0 1-4 7-6 7v1c0 1-4 7-6 7v1c0 2 0 2-1 1-2 0-2 0 0-2l1-3v-1c2 0 2 0 1-1s-1-1 1-1c4 1 4 0 1-1s-3-1 0-1 3-2 2-4c-1-1-1-1 0 0 2 1 3 1 3-1-1-1-1-1 1-1 2 1 1 0-1-2h1zm-20 21v1l-1-1v-1zm-17 11-2 2 4-4zm9-1v1l-1-1v-1zm-467 4h-2c-1-1 0-1 1-1zm461 4v1l-1-1v-1zm-453 4h-4c-1-1 0-1 2-1zm317 1-1 2c-1 1-2 1-2-1l2-1zm-310 7h-2v-1zm-3 2h-3c-1-1 0-1 2-1 1 0 2 0 1 1m435 4v1l-1-1v-1zm-133 3-2 2v-2l2-2zm-4 3-2 2c0-1 2-5 3-4zm-293 0h-2v-1zm424 2v1l-1-1v-1zm-279 2-1 1-1-1v-1l1 1zm142 7-2 2v-2l2-2zm131-1v1l-1-1v-1zm-5 10v2l-1-2-1-2v-1zm-1 3c1 2-1 2-2 1v-2l1 1zm-134 1h-2v-1zm132 2c0 2-2 1-2 0-1-1 0-2 1-1zm-394 1h-2v-1zm392 2-1 1-1-1v-1l1 1zm-125 2-1 1v1l-1 1-1 1-1 1-1-2-1-2h1l2-1v-1zm120 2v3h-1v-3l-1-1zm-2 4c-1 1-1 0-1-1v-1zm-369 0h-4c-2 0-1-1 1-1 3 0 4 0 3 1m245 0v1l-1-1v-1zm122 1c1 1 0 2-1 3-1 2-2 2-4 0s-2-2 1-1 3 1 3-2c-1-2 0-3 1 0m-355 2v1c-1 1 0 1 2 1h3-11c-9 0-9-1-5-1l6-1h-6c-4 0-5 0-4-1s13 0 15 1m231-1-1 2-1-2 1-1zm-163 5-2 1 1-2 2-1zm282 0v-2l1 2c0 1 0 2-1 1l-1 1c0 2-4 1-5 0l2-1c3 1 3 1 1-1s-2-2 0-1zm-358 1h-3c-1-1 0-1 1-1 2 0 3 0 2 1m12 0-3 1-3 1-3 1-3-1 2-1 2-1 4-1zm223 0v1l-1-1v-1zm6 1c0 1 0 2-1 1v-3zm123 2h-1l-2-1h2zm-355 1-5 1h-5l5-1 5-1zm2 2c-1 1-1 0-1-1l1-1zm20-2h-2v-1zm208 0v1l-1-1v-1zm-231 3h-2l2-1zm5 2h-2v-1zm2 3-4 1c-3 0-4 0-3-1zm38 1h-2v-1zm13 1c1 1 1 1-2 1l-3-1zm-52 1h-4c-1-1-1-1 2-1 2 0 3 0 2 1m111 0 2 1h-2l-1 1v1c-1 0-2 0-1 1l-1 1-2-2 2-2 1-1zm253 2-3 1v-3c3-1 5 0 3 2m-292-1h-3l-1 1-1 1c-1-2 1-3 4-3 2 0 2 0 1 1m275-1c0 1-4 2-5 1l2-1zm-138 3h-2l-2-1 2-1zm121-1h-2v-1zm-30 1h-3c-1-1 0-1 2-1 1 0 2 0 1 1m20 0h-9c-2-1-1-1 3-1zm22 0-2 1-1-1zm-135 2h-2v2c-2-2-2-4 0-3zm53 0h-1l-2-1h2zm27-2c0 1-4 2-5 1l2-1zm50 1h-2v-1zm31 0 1 1-5-1 1-1zm-166 3c0 1 0 2-1 1l-1 1 1 1 1 1-2 1c-2 0-3-4 0-4l1-2 1-2zm95-2h-2v-1zm9-1-6 1 3-1zm30 1-9 1c-5 0-9 0-8-1zm20 0h-2l-4 1c0 1-1 2-3 2-3 0-3 0-1-1l2-2zm-235 1-1 1-1-1v-1zm137 0c1 1 1 1-1 1l-2-1zm9 0h-2v-1zm100 1h-2l-2-1h2zm-72 0-1 1-2-1 2-1zm9 0-3 1h-3l3-1 3-1zm-199 1-1 1-1-1v-1zm21 1h-1l1-2zm239 0h-2l-2-1h2zm15 0h-1l-2-1h2zm-70 0-1 1-2-1 2-1zm18 0h-3c-1-1 0-1 2-1 1 0 2 0 1 1m7 0h-3c-1-1 0-1 2-1 1 0 2 0 1 1m-231 2-2-1c-1-1-1-1 0 0zm189-1h-2c-1-1 0-1 1-1zm50 0h-2c-1-1 0-1 1-1zm20 1h-2l-2-1h2zm16 0h-2l-2-1h2zm-59 0c1 1 1 1-1 1l-2-1zm65-1-2 3c-2 1-2 1-1-1s3-3 3-2m-229 2h-2v-1zm82 1v2l-1-2v-2zm16 0h-1l-2-1h2zm62-1h-2v-1zm24 0h-3c-1-1 0-1 2-1 1 0 2 0 1 1m37 1h-2l-2-1h2zm13 0-1 1-1 1-2 1h-1c-1-1 2-5 4-4 2 0 2 0 1 1m-55 1h-3c-1-1 0-1 2-1 1 0 2 0 1 1m40 1h-2l-2-1h2zm-179 1h-1l1-2zm42 1h-1l-2-1h2zm-60 1h-3c-1-1 0-1 2-1 1 0 2 0 1 1m128 0h-2v-1zm62 0h-2v-1zm18 1h-1l-2-1h2zm-2 2h-2c-1-1 0-1 1-1zm6 1h-3c-1-1 0-1 2-1 1 0 2 0 1 1m-3 1c2 0 3 0 2 1s-9-1-10-2h2zm-8 1-1 1-1-1v-1zm9 3h-2v-1zm-3 2h-2c-1-1 0-1 1-1zm-3 2h-2v-1zm-4 2-1 1v-1l1-1zm-6 25h-6c-1-1 0-1 3-1zm-6 2h-6c-1-1 0-1 3-1zm-4 2h-6c-2 0-1-1 3-1zm18 7h-3c-1-1 0-1 2-1 1 0 2 0 1 1m-381 1h-4c-1-1 0-1 2-1zm375 0h-5l-8-1zm-4 2h-5l-8-1zm-4 2h-5l-8-1zm-5 2h-5l-8-1zm-11 2h-5c-1-1 0-1 3-1 2 0 4 0 2 1m8 1h-2c-1-1 0-1 1-1zm-13 1h-4c-1-1 0-1 2-1zm10 1h-2v-1zm-14 1h-4c-1-1-1-1 2-1 2 0 3 0 2 1m-4 2h-4c-1-1 0-1 2-1zm-6 2h-4c-1-1 0-1 2-1zm-306 1h-4c-1-1 0-1 2-1zm14 1h-4c-1-1-1-1 2-1 2 0 3 0 2 1m3 2h-6c-2 0-1-1 3-1zm6 2h-4c-1-1 0-1 2-1zm9 2h-5c-1-1 0-1 3-1 2 0 4 0 2 1m4 2h-2c-1-1 0-1 1-1zm269 0h-6c-1-1 0-1 3-1zm-6 2h-5c-1-1 0-1 3-1 2 0 4 0 2 1m-251 2h-4c-1-1 0-1 2-1zm244 0h-2c-1-1 0-1 1-1zm-254 1h-3c-1-1 0-1 2-1 1 0 2 0 1 1m6 2h-4c-1-1-1-1 2-1 2 0 3 0 2 1m4 2h-3c-1-1 0-1 2-1 1 0 2 0 1 1m-6 1h-2c-1-1 0-1 1-1zm6 2h-4c-1-1 0-1 2-1zm250 0h-6c-2 0-1-1 3-1zm12 1h-3c-1-1-1-1 1-1zm-21 1h-2v-1zm15 1-1 1-1-1 1-1zm-253 6-6 1h-5l5-1 5-1zm246 1h-7c-2-1 0-1 4-1 3 0 5 0 3 1m-5 2h-4c-1-1-1-1 2-1 2 0 3 0 2 1m12 1h-4c-1-1-1-1 1-1zm-244 1h-2c-1-1 0-1 1-1zm238 2h-2v-1zm0 4h-6c-2 0-1-1 3-1zm-7 2h-6c-1-1 0-1 3-1zm11 1h-1c-2 0-2-1-1-1zm2 3-2 1-3-1c-2-1-1-1 2-1s4 0 3 1m-7 3h-1l-2-1c-1-1-1-1 1-1zm-201 1h-9l5-1c5 0 7 0 4 1m191 10h-4c-1-1 0-1 2-1zm-169 4h-6c-2-1-1-1 3-1zm20 0h-2c-1-1 0-1 1-1zm132 0h-2v-1zm-124 2h-6c-2-1-1-1 3-1zm104 2h-3c-1-1 0-1 2-1 1 0 2 0 1 1m162-294 1 1v-1l-1-1zM200 458c-1 1-1 1 0 0l1-2zm670-1h2l-2-1zm-779 1 2 1c2 0 2 0 1-1zm789 0h2c1-1 0-1-1-1zm4 1c-3 4-3 6-1 5v-1c-1 0 1-3 4-4 3 0 4-2 1-2zm-797 1c-1 0-1 1 1 1 2 1 5-1 3-1zm791 0h2l-2-1zm-833 2h1v-2zm59-1h2c1-1 0-1-1-1zm-9 1 1 1v-1l-1-1zm736 1c0 3 0 4-1 2h-1c0 1 2 3 3 1l2-1 2-1h-2l-2-1v-2zm44-1h2l-2-1zm-3 2h1v-2zm-781 0 3 1c2 0 2 0 0-1zm66 1h2l-2-1zm-69 1h2c1-1 0-1-1-1zm782 1h1v-2zm-719 0h6c1-1 0-1-3-1zm50 0h2l-2-1zm632 2c0 1 0 2 2 2s2 0 1-1c-2 0-3-1-1-3v-1c-1 0-2 1-2 3m54-2c0 2-1 2-2 2l-5 3c-4 4-4 4-1 3l3 1v1l-4 2c-2 1-2 2-1 2l2 2 1-1 1-1 1-1c1-3 1-3 1 0l-2 4-1 2-1 1c-2 0-4 3-3 3l-2 1c-2 0-2 0-1 1s2 0 3-1l4-2-1 2-4 3-1 1-2 1-1 1v1s-2 0-1 1l-1 1c-1 0-2 0-1 1l-3 1c-4-1-4-1-8 3l-4 5 2-2 4-2v-1h4v1c-1 0-2 0-1 1 0 2 0 2-2 1v1l4 1c2 0 1 0 0-1-2-1-1-2 1-1 2 0 2 0 1-1-1-2-1-2 2-1 2 0 2 0 0-2v-1c2 1 2 1 2-1-1-1 0-1 1-1 2 0 5-3 4-4h1c2 1 4-1 2-1-1-1 0-1 2-1 3 0 4 0 3-1s-1-1 1-1l1-1 1-1 1 2c1 1 1 0 1-3l1-2c0 3 3 2 3 0l-1-2v-3l-3-1h-1l-2 1v-2l-1-3c0-2 0-2 1-1s1 1 1-1 1-3 2-3l2-2h-1l-2 1v-1l1-3zm-4 21v1l-2-1 1-1zm-18 15c1 1 1 1-1 1l-3-1zM97 468l1 1 3-1-2-1zm731 2-1 2-4 3-4 3 2-2v-3l-7 4-6 7-1 1-15 11c-17 14-18 14-16 14 3-1 3 1 0 3l-1 1h-3l-8 4a4027 4027 0 0 1-27 23l4 2c3 0 5 1 5 2h1l1-2 1-1c-1-3 0-4 2-3l2-1c-1-1 0-3 3-5 4-4 5-4 8-4v-1c-1-1 0-2 3-4l6-6 4-2v-2l1-1c1 1 2 0 1-1l1-1h2l4-3 4-3 3-1c2 1 3 1 4-1v-1l-1-1h3l2-1-2-1h-1l3-1c2 1 2 1 0-1-1-1-1-1 2-1s3 1 1-1c-2-1-2-1 1-1h4c2-2 2-3 0-2v-3h4c2 0 8-4 7-5l1-1 1-1-1-1h-1 3c2 0 2 0 1-1s-1-2 2-1c2 0 2 0 0-1-2-2-2-2 1-2 1 1 3 0 4-1l2-3-1-2c0-2-2-3-4-3zm2 0h-1l1-2zm-12 8c0 2 0 2-1 1h-1v-1c2-2 2-2 2 0m0 7-1 1-1-1v-1l1 1zm-2 2h-3v-1zm-15 6-3 2 1-2c3-2 4-2 2 0m7 0-1 1-1-1v-1l1 1zm-20 11-3 2c-1-1-1 0-1 1h-1c-1-1 0-2 1-4h2c-1 2 0 1 2 0l2-2zm8-1-1 1-2-1 1-1 1 1zm-14 5-3 1v-1zm-14 12c-1 2-7 5-7 4l3-3 3-1zm-11 9-3 2 1-2 2-3h1c1 1 1 1-1 3m67-58c-1 2-1 2 1 1 2-2 3-4 1-4zm-740-1h2l-2-1zm6 0-3 2v1c1 1 1 1-1 1v1c2 1 5 0 4-1l2-1v-1c-2-1-1-2 3-1 3 0 3 0 2-1zm63 0h2c1-1 0-1-1-1zm-3 2h3c1-1 0-1-2-1-1 0-2 0-1 1m8 0v1l-3 1c-2 1-2 1 2 1 3 0 5 0 4-1l-2-2zm2 0 2 1h2l-2-1zm-52 2h1v-2zm104 0 2 4 1 1h2v1c-2-1-2 0 1 2l4 3c2-1 3 1 1 1-1 1 0 1 1 1 2-1 3 0 2 1v1l1 1 1 1c2-2 0-4-4-8l-3-2-3-2-6-6c-3-2-3-2 0 1m655-1h2c1-1 0-1-1-1zm-773 0c0 1 4 2 5 1l-2-1zm55 1 2 1 1-1-2-1zm716 1h3l-2-1c-2 0-2 0-1 1m74 8 1 8-1-17v8zm-847-7-4 1c-4 1-4 1 1 1l5-1 1-1h1l-2-1zm838 2v8c1 5 1 5 1-3s0-11-1-5m-762-1h2l-2-1zm4 0h2c1-1 0-1-1-1zm692 0 1 1 1-1-2-1zm-763 1 2 1c2 0 2 0 1-1zm70 1c-1 1 0 1 0 0 2 0 3-1 1-1l-2 1zm-81 1h4l-3-1c-3 0-3 0-2 1zm6 0c-1 1 0 1 3 1 5 0 5-1 1-1zm67 0h6l-5-1c-3 0-3 0-1 1m729 0h3l-2-1zm33 5c0 4 1 5 1 3v-6c0-2-1-1-1 3m-95-4c-1 1 0 1 0 0 2 0 2-1 1-1zm-744 1 4 1h3l-3 1c-3 0-4 1-2 1h3c2 1 3 0 3-1l4-1-2-1-7-1zm73 0c-1 1 2 1 5 1l7-1zm707 1 1 1 1-1-2-1zm8-1 2 1h2l-2-1zm-715 3h6l-4-1c-4 0-4 0-2 1m13 0h3c1-1 0-1-2-1-1 0-2 0-1 1m650 2-1 2 4-3zm111 2v10c-1 5 0 7 1 3 1-1 1 0 1 2 0 3 0 4-2 4v1c1 0 2 1 2 3 1 1 1-4 1-11l-1-14-1-1c-1-1-1 1-1 3m2 7c0 1-1 1-1-2 0-2 0-3 1-2zm-846-8h4c1-1 0-1-2-1zm141 1 3 3c1 0 2 1 2 3 1 2 2 3 3 1l-4-4zm635 0h2l-2-1zm-777 1 1 4 1 4 1-5c0-3-1-4-2-4-2 0-2 0-1 1m80 0h1l1-1h-1zm643 0 1 1 1-1-1-1zm5 2-5 4c-2 2 0 1 3-1l4-3 2-2zm102-1v8l1-1 1-2v-2l-1-1v-2zm-825 2 1 2 1-2-1-2zm90-1c-2 1-2 1 0 1l3-1-1-1-3 1zm715 2c0 2 0 3 1 2v-4c-1-1-1 0-1 2m-813 0c0 1 0 2 1 1v-2c-1-1-1 0-1 1m79-1h4c1-1 0-1-2-1zm-87 2c0 1 0 2 1 1v-2c-1-1-1 0-1 1m779-1 3 1-1-1-2-1zm14 0h2c1-1 0-1-1-1zm26 2c0 2 0 3 1 2v-3c-1-1-1 0-1 1m18-1h-1l-1 8c0 7 0 7-1 2l-1-6v6c0 4 0 5-1 2s0-3-1-2c-1 2-1 2-1 0l-1-2-2-1-1 1c0 3-1 3-2 2-2-2-2-2-3-1l-2 3s0 2-1 1l-1 1s0 2-1 1l-1 1s0 2-1 1l-1 1s0 2-1 1l-1 1-1 2-2 1-3 2v1c1 1-1 1-2 1-2 0-2 0-1 1s0 1-3 1l-5-1 4 1 4 2-5-1c-4 0-5 0-4 1l6 1h4v-1l3-2c1-2 4-3 6-3 2-1 2-1 1-2v-1l2 1h3l-2 3c-2 2-3 3-4 2s-1-1 0 0l-1 2h-2l2 1v1l-2 3h-1l-1 1c0 2-8 10-9 10v1c1 1 1 1-1 1-3 0-3 0-1 1s3 1 0 1c-2 0-3 0-2 1l-2 1c-1 1 0 1 1 1l4-1 1-1h1l2-2c2 1 3 2 1 2l-3 2-3 2v1l-1 1-2 1s1 2 2 1l2 1-1 1c-1 0-2 1-1 2s0 1-1 1h-1c0 1 0 2-1 1l-1 1-1 2v1l1 2h-1l-3-1c-2 0-2 0 0 1l2 1h-1l-1 2c0 2 0 2-1 0l-1-3v3c0 2 0 2-1 1s-1-1-1 1c0 1 0 2-1 1 0-1-1-1-2 1l-3 2-3 1c-1 2-1 2 1 2l2 1v1l-2 2 1 2 1-2h1l2-1c1-1 1 0 1 4l-1 5-1 4-1 4v3l-1 2v1l1 6 1 5v2l1 1-1 1-1 13c0 9 0 13 1 12s1-1 1 2v5l-1 2 1 1v1l-1 3-2 3 1 1v2l-2 2v1l-1 1 1 2v2c2 0 4-3 3-3v-1l1-3 1-3h1l6-9c3-3 3-3 3 0l-2 3 1 1c2 0 2-1 2-3l1-1 1-2c0-1 1-5 3-7l3-6 1-1 1-2 1-1 1-3c0-3 0-3 1-1s2 2 5-4l4-7v-2c0-2 3-1 3 1l1 5 1-1v-3c-1-1-1-1 2-1s4 0 4-2l1-1v2c0 2 0 2 2 2 1 0 2 0 1-1l-1-1 1-1c1 1 1 0 1-2l1-1v-1l1-1 1-1 2-1c2 0 2 0 1-1s-1-1 1-1h3l-3-1c-2-1-2-1 0-1s8-4 6-4l-1-3 1-3 1-2h1c1 2 1 2 1 0l1-3 1-3v-1l1-1 1-4 1-4 1-2h-2l-3 2c-2 0 1-4 3-4l-1-1c-1-1-1-1 1-1s2-1 2-3l1-3c1 1 1 0 1-1 0-2 0-2-2 0l-1 2-1 1c-2 0-3-4-1-4l-1-1c-2-1-2-1 0-1s2 0 1-1v-4c-2 1-2 0-2-2-1-2-1-1-1 2l-1 6-1-25c0-8-1-15-2-15l1-1 1-9c0-8 0-9-1-5l-1 5v-11l-1-2-1 12-1 13-1-9c1-8 1-9-1-9v-1c2-1 3-12 1-12zm0 6c-1 1-1 0-1-2 0-1 0-2 1-1zm-20 16h-2v-1zm-19 37h-1l1-2zm48 13h-2v-1zm-65 11h-2v-1zm66 3-1 2v-2l1-2zm-61 19-1 2-1-2 1-2zm54 2-1 2-2 1v-2l1-1 1-1v-1zm-54 9-1 7v-15zm35 4v3l-1-3v-2zm-40 44h-1l1-2zm-5-163-2 1c-2 0-1 1 2 2l1-1 2-1v-1zm15 0h2l-2-1zm18 0c1 1 1 1-1 1s-2 0-1 1 1 1-1 1l-2 1-2 1v1c1 1-1 1-2 1-2 0-2 0 0 1s1 1-1 1l-5 2-3 3-1 1c0 2 1 1 4-1l2-2 3-1 3-2 2-1v-1c-1-1-1-1 2-1h3l-4 3-6 4-3 2h-1l-1 1 4 1 3-1 1-1 3-1 3-1 2-1c-1-1 0-1 1-1l1-1c-1-1 0-1 1-1l1-1v-1c1 0 2-1 2-3l-1-2v1l-1 1-1-3c0-2 0-2-3-2s-2 0-1 1m3 5c-1 1-1 0-1-2l1-2zm-3 0h-3c-1-1 0-1 2-1 1 0 2 0 1 1m-789-3c-2 1-2 1 0 1l2-1v-1zm72 0h2c1-1 0-1-1-1zm9 0h2l-2-1zm66 2 2 3h1l2 2 2 1-5-5zm621-2h2c1-1 0-1-1-1zm65 12v16c1 1 1-5 1-13v-16zm-845-9c0 1 0 2 1 1v-2c-1-1-1 0-1 1m84-1h2l-2-1zm5 0h9l-5-1zm689 0h2l-2-1zm64 1c0 2 0 3 1 2v-3c-1-1-1 0-1 1m-837 0h3c1-1 0-1-1-1-2 0-3 0-2 1m756 0 1 1 1-1-2-1zm-680 1 5 1h5zm14 0c-4 1-3 1 2 1l4-1zm753 4 1 1v-1l-1-1zm-679 2 2 2-1-2-3-2zm563 1h2l-2-1zm41 2c2 0 0 2-2 1l-1 1-2 1c-2 0-2 0 0 1 1 1 1 1-1 1h-3l3 1h3l2-1 1-1 2-1 1-1c-1-1 0-1 1-1 2 0 1-1-3-2-1 0-2 0-1 1m-600 0 2 2c1 1 1 1 0 0zm514 2c-1 1-1 1 0 0l2-2zm76 0 1 1 1-1-2-1zm17 0 1 1c1 1 0 1-1 1-2 0-2 0-1 1s1 1-1 1c-3 0-8 4-7 5l3-2 3-2c2 0 4 1 4 3h2c1-2 2-3 0-3h-2l2-1c3 1 4-1 1-1-1-1 0-1 1-1 4 1 5-1 1-1l-4-2zm68 0v1l1-1v-1zm-51 1h2c1-1 0-1-1-1zm-619 2 1 2 1 1c1-1 5 2 5 3-1 1-1 1 0 0l2 1 1 1a62 62 0 0 0-10-8m581 0-1 2 4-3zm103 1c0 3 1 3 1 2v-4c-1-1-1 0-1 2m-67-1h2c1-1 0-1-1-1zm53 4c0 5 0 6 2 6v-3l-1-1 1-1h1l-1-1v-1l1-2c0-2 0-2-1-1l-1 1-1-2zm-735-3h3c1-1 0-1-1-1-2 0-3 0-2 1m628 0 1 1 1-1-2-1zm52 1h2c1-1 0-1-1-1zm-676 1h2l-2-1zm647 0h3l-3-1c-2 0-2 0 0 1m27 1h2l-2-1zm-672 1h2l-2-1zm642 0-1 1s-2 0-1 1l-3 1c-2 0-2 0 0 1h4l1-1 1-1 1-2h2c1-1-1-1-2-1zm18 0 1 2v-2l-1-1zm87 0v5c1 2 1 2 1-2s0-5-1-3m-849 2v2l1-2v-2zm759-1 1 1 1-1-1-1zm13 0h2c1-1 0-1-1-1zm49 0h2l-2-1zm-728 1h4c1-1 0-1-2-1-3 0-3 0-2 1m639 1-2 3 5-5zm17 1c-3 3-3 3-1 3l2-1c-1-1 0-1 1-1l1-1v-1l2-1c0-2-1-1-5 2m6-1 2 1c1 1 0 1-1 1-3-1-4 0-1 1 1 1 0 1-1 1-3-1-4 1-1 1 1 1 0 1-1 1-3 0-3 0-1 1 1 1 1 1-1 1s-3 0-2 1l-2 1c-3-1-4 0-1 1 1 1 0 1-1 1-3-1-4 1-1 1 1 1 0 1-1 1h-3c0 2 5 1 7-1l2-1 4-4 7-6c2-2 2-2-1-2zm-581 2c2 2 2 3 1 4v1h2v1l2 3q4.5 3 3 6v7c0 1 1 1 1-2 0-2 1-3 2-3l5-1 3-1-6-5c-3-3-7-5-7-4l-1-1-1-1-1-1c0-1 0-2-2-3-3-2-3-2-1 0m10 8h-1c-2 0-2-1-1-1zm6 5 1 2-2-2-2-2zm58-13 4 4c2 1 4 2 4 4 1 3 1 3 3 1l2-4c0-1-4-4-9-5-5-2-5-2-4 0m533 0h2l-2-1zm-207 1-6 3c-1 2-1 2 1 5l2 2c-1-2 2-7 3-7l4-2c2-2 1-2-4-1m163 0c1 1 1 1-1 1s-3 0-1 1c1 1 1 1-1 1-3 1-3 1-1 1s4-1 5-3c2-2 2-2-1-2-2 0-2 0 0 1m29 1-2 1c-1 0-2 0-1 1l-1 1-3 2-3 2v1l6-3 6-4c2 0 2 0 1-1zm16 1h1v-2zm49 1c0 3 1 3 1 2v-4c-1-1-1 0-1 2m14 0c0 2 0 3 1 2v-4c-1-1-1 0-1 2m-100 0h2c1-1 0-1-1-1zm27 0-2 1-4 2-1 1c-2 1-2 1 1 1l3-1 3-1c2 0 3 0 2-1-2-1-1-2 1-2h2l-3-1c-2 0-3 0-2 1m-42 3h2c1-1 0-1-1-1zm119 1c0 1 0 2 1 1v-2c-1-1-1 0-1 1m-751 0h2l-2-1zm642 0h2l-2-1zm-13 1h3c1-1 0-1-1-1-2 0-3 0-2 1m-626 1c-2 1-2 1 1 1l3-1zm552 0v1l1-1v-1zm85 0h2l-2-1zm93 3c0 3 0 3 1 0l1-3h1l-1-1c-2 0-2 1-2 4m-107-2h3c1-1 0-1-1-1-2 0-3 0-2 1m37 0h2l-2-1zm-10 3h2l-2-1zm-13 1h3c1-1 0-1-1-1-2 0-3 0-2 1m111 2c0 2 0 3 1 2v-4c-1-1-1 0-1 2m-115-1 3 1c2-1 2-1-1-1zm-797 2h1v-2zm809 0h2l-2-1zm-14 1h3c1-1 0-1-1-1-2 0-3 0-2 1m-86 2-1 5v3l1-4 1-5v-1zm117 4h4c1-1 0-1-2-1zm76 5c0 2 0 3 1 2v-4c-1-1-1 0-1 2m6 6 1 9v-8l-1-9zm-199-3c0 1 0 2 1 1v-2c-1-1-1 0-1 1m-703 0 1 2v-2l-1-1zm807 1h1v-2zm-570 3h1v-2zm467 5c0 2 0 3 1 2v-3c-1-1-1 0-1 1m195-1v4l1-2v-3zm-664 3h1v-2zm-241 3h1v-2zm8 4 1 1 1-1-1-1zm233 1c0 1 0 2 1 1v-2c-1-1-1 0-1 1m-237 2v1l1-1zm235 2 1 2v-2l-1-2zm474 7 1 3 1 5v2l2-7c-1-4-2-7-2-3 0 2 0 2-1 0s-1-2-1 0m101 3c0 4 0 4 1 1l1-4v-1c-2-1-2 0-2 4m-478 15c-5 2-8 5-8 7h3c1-1 7-2 11-1 2 1 6 6 5 8l-5 2-3 2h2c2-1 4 0 3 2l1 1h2l2-1c1-2 1-2 1 0-1 1-1 2 1 2 1 0 2 0 2 2v2l-1 2h-1l-1 1v1l-3 3-6 3h-4c-3 0-3 0-1 2s2 2 4 1a106 106 0 0 1 21-12l-5-7h-1c0-2-14-22-15-22zm276 0c-2 3-3 5-2 6h-1l-6 7-6 10h-1l-2 2c-1 2-1 2 2 3l4 1 1 1 4 4c3 1 4 2 2 0l-3-2-1-1-1-5c-1 0-2 0 0-3l3-2c2 1 4 0 6-4v-3l-2-2c-1-1-1-1 0 0l1-1c-1-2 1-6 3-6l3-1c2-2 10 4 10 7l1 1-1-5-7-7-5-3zm-4 8-1 2zc0-2 1-1 0 0m109-6 1 2v-3c0-3-1-3-1 1m92 7a144 144 0 0 1-1 12l-1-2c-1-4-1-3-1 4 0 6 0 8 2 10h2c1-1 1-1 1 1h1l1-2 1-3c0-3 0-3-1 0s-1 2-1 0l1-3v-3l-1-3-1 4c0 5-1 3-1-8 0-10-1-12-1-7m-1 19h-1l1-2zm-611-24h4c1-1 0-1-2-1zm94 1 4 3c3 2 4 4 0 2l-2-1c0 1 1 2 3 2l3 3c-1 1 0 2 1 1s1 0 1 1c-1 1 12 9 14 9l-1-1-6-7a39 39 0 0 0-17-12m368 2-2 2-1 1c-2-2-5 1-12 8-7 8-8 9-10 5l-1-1-2 4v3h2l8-5 9-5 3-2 4-3 2-1v-1l4-3c1-2 1-2-1-2v-1l1-1zm2 1-2 1v-1zm145 1v3c1 0 2-4 1-5s-1-1-1 2m-90 0h1v-2zm-510 3h2l-2-1zm657 3h4c1-1 0-1-2-1zm0 2h2c1-1 0-1-1-1zm-50 2c0 2 0 3 1 2v-3c-1-1-1 0-1 1m-599 1h2l-2-1zm-12 1 10 1-3-1-6-1c-2-1-2 1-1 1m117 3-1 3c2 1 4-3 3-5zm399 1h1v-2zm-501 1 1 1 1-1-2-1zm-4 3c0 2 0 2 1 1l1-2v-1zm528 1v2l1-2v-1zm-113 1c-1 1 0 1 0 0 2 0 3-1 1-1zm-416 2h2l-2-1zm22 1 1 1v-2zm567 1c0 1 0 2 1 1v-2c-1-1-1 0-1 1m11 1c-1 4 0 6 2 7v-5c0-6 0-6-2-2m-77 0v1l1-1v-1zm-524 0 2 1h1zm7 1v1l1-1v-1zm510 0h1v-1zm-115 1 2 1h1l-1-1zm156 1 1 1 1-1-2-1zm-3 2c-2 3-2 3 1 2 2-1 2-2 2-3zm17 1h2l-2-1zm29 4c0 1 0 2 1 1v-2c-1-1-1 0-1 1m-569-1 2 2c1 1 1 1 0 0zm512 1h3c1-1 0-1-1-1-2 0-3 0-2 1m12 1h1c2 0 1-1-1-1zm-16 1c-2 2-2 2 1 2 2 0 3 0 2-1l2-1h3c-1-2-6-1-8 0m-505 1 2 2c1 1 1 1 0 0zm566 2h1v-2zm70-1h2c1-1 0-1-1-1zm-154 1v1l1-1v-1zm33 0 1 1zc-1-1-1-1 0 0m-14 1h4c1-1 0-1-2-1zm-498 1 2 2c1 1 1 1 0 0zm474 3-1 3 3-3 1-1 1-1c0-2-2-1-4 2m208-1h1v-2zm-167 1 2 1h1c0-1-1-2-3-2s-2 0 0 1m-5 1 3 1h3zm-506 1 2 2c1 1 1 1 0 0zm501 1 4 1c4 0 4-1-1-2zm-5 2c0 2 0 2 2 2l3-1v-1l-3-1h-1c-1-1-1 0-1 1m130-1h2l-2-1zm50 1v1l1-2zm-209 0-1 1-2 1-1 2-1 1c1 1 0 2-1 2v1l-2 1-1 1-1 2v2h1l2-3 6-8 1-1 1-2-1-1zm27 1c0 2 0 2-1 1-1 0-2 0-1 2l2 2v-2h2l-2-4zm20 0 2 1c2 0 2 0 1-1zm110 0h2l-2-1zm-621 0 2 2c1 1 1 1 0 0zm482 1h2l-2-1zm27 1 1 1 1-1-1-1zm-28 1h2l-2-1zm17 0h3l-3-1c-2 0-2 0 0 1m123 0h2l-2-1zm50 1v2l1-3c0-1-1-1-1 1m-668 0 2 2c1 1 1 1 0 0zm501 0c0 1 4 2 5 1s1-1-2-1zm-19 2 2 2c1 1 1 1 1-1s0-2-2-2-2 0-1 1m28 0h2l-2-1zm112 0h2c1-1 0-1-1-1zm-122 1h2l-2-1zm3 0 4 1h3l-3-1zm-24 1h2l2-1h-2zm16 0c1 1 1 1-2 1l-4-1 3 1 4 2h-7c0 1 6 2 7 1h1l1-2 1-1h1l-2-1zm-490 2 2 2-1-2-3-2zm661 0h1v-2zm-164 0h2c1-1 0-1-1-1zm-537 2h2l-2-1zm515 1c0 2 1 3 3 0v-1h-2c-1-1-1-1-1 1m133-2 2 1h1l-1-1zm-93 3h1v-2zm-32 0h2c1-1 0-1-1-1zm4 0 2 1h1l-1-1zm-43 1-2 1-1 1-1 2-1 2 4-3c2-3 3-4 1-4zm51 0h2l-2-1zm-22 1 2 1h1l-1-1zm20 1 1 1v-1l-1-1zm-488 0 2 2c1 1 1 1 0 0zm466 1 2 1h1l-1-1zm143 0h2l-2-1zm-135 1h2l-2-1zm11 0-1 1v2c0 1 3-1 3-3l-1-1zm167 1v2l1-3c0-1-1-1-1 1m-189 0 3 1v-1l-3-1c-2 0-2 0 0 1m142 0h3c1-1 0-1-1-1-2 0-3 0-2 1m-127 3c-3 2-4 2-7 2-3-1-3-1 1 1 5 1 5 1 7-1 3-2 4-5 2-5zm-472 2 4 4-3-4-4-4zm456-2c0 2 1 2 2 1v-2c-2-1-3-1-2 1m9 0h2l-2-1zm-41 2-1 2-1 2 4-4-1-1zm220 1h1v-2zm-228 2-1 2 3-4zm-290 3c-4 4-5 7-2 5 2-1 7-1 8 1l3 1v1h1c2-1 3-1 2 2l2 1-2-4c-3-5-5-6-6-5h-1l2-1-1-3-2-3zm336-4 7 1-5-1zm-189 3v4c-2 2 1 2 3 0h1c-1 1 0 2 1 2v1l1 1c1-1 18 16 18 18l6 7 6 8 2 2-1-2-19-24-17-20zm369-1-1 4-2 5-2 3-1 2-1 3-1 2-1 3-1 2-1 1-1 2c-1 4-2 6-3 5s-1 2-1 4h-1l-1 1-1 3-1 2-1 2c-1 1-2 2-1 3h-2l-2-3-1-1v4l1 1 1-1c2 0 1 3-1 5l-2 4-2 2-1 2-1 3c-2 1-3 3-2 4l-1 1-3 4c-1 2-2 3-3 2v-1c2 0 4-3 2-3l-1-2c-1-1-1 0-1 1 0 3 0 3-1 2h-1l-1 2-1 3-1 2h-2c-1 1-1 2 1 2h2c0-1 0 0 0 0v-2h3l-2 2v2h-2l-3 1-1 1h-2c-1 1-1 2 1 2h2c0-1 0 0 0 0v-2l2-1 1 1-1 2c-1 0-2 1-2 3l-3 4-2 3c0 2 0 2-2 0h-3l-1 2h-2c-1 1 0 2 2 3 1 1 2 1 1 2l-2-1h-2l2 1 1 2h-1l-1 1-2 3-4 5-3 4c-3 2-3 3-5 2l-1-1 2 3v1l-1 2h-1l-1 1s0 2-1 1l-1 2c0 1 0 2-1 1l-1 1c0 2-2 2-4 1h-1l2 1 1 2-1 1-7 6-5 6-8 8-10 9v1l-2 1v1l4-3c1-2 4-3 4-2l1-1 1-1 1-1 1-1 1-1 1-1 1-1 1-1 1-1 1-1 1-1 1-1 1-1 9-10 9-10 4-5c2-3 5-5 6-4l2-1h-1c-3 1-2-2 2-6 2-2 4-4 5-3l2-1h-1c-3 0-2-2 1-5l4-3 2-1h-3l2-3 4-6 4-3 1-2c-1-2 2-5 3-4v-2l1-2c1-1 7-9 7-11l2-1 1-1c-1-1 6-14 7-13l1-1 7-16a547 547 0 0 0 15-36m-41 75c1 2 1 2-1 1l-2-1c0-2 2-1 3 0m-15 23c0 2-2 3-3 2l2-3zm-136-96c0 1 0 2 1 1v-2c-1-1-1 0-1 1m14-1 3 1v-1l-4-1c-1 0-1 1 1 1m-460 0 2 2c1 1 1 1 0 0zm267 1c-1 1 1 2 2 2l-1-1v-2zm198 2c-4 4-4 6 1 2l4-4c0-2-2-1-5 2m-57 0-2 1h-1v4l5-6zm6 0-1 2-1 2 4-4-1-1zm46 0h2l-2-1zm15 0h2l-2-1zm-210 1v1l1-1v-1zm179 0 1 1 1-1-2-1zm28 1h1v-2zm-469-1 2 2c1 1 1 1 0 0zm456 1h2l-2-1zm-198 4c-3 4-3 4 0 2 2 0 3-2 3-3v-2zm189-2h2l-2-1zm8 0h2l-2-1zm-192 1v2l2-2v-1zm174 0 2 1h1l-1-1zm27 0h3c1-1 0-1-1-1-2 0-3 0-2 1m-461 0 2 2c1 1 1 1 0 0zm449 1v2l2-2-1-1zm22 0h2l-2-1zm-15 1h4c1-1 0-1-2-1-3 0-3 0-2 1m-53 1 1 1v-1l-1-1zm66 0h2l-2-1zm-74 1c-3 3-3 4-1 2l2-2zm59 0 1 1 1-2h-1zm-449 2 2 2-1-2-3-2zm396 0h1v-2zm46-1h2c1-1 0-1-1-1zm20 0h2l-2-1zm-334 3 3 3-2-3-3-3zm313-1h2l-2-1zm3 2c-2 2 0 3 2 1v-2zm-5 0h2l-2-1zm-438 0 3 2c1 1 1 1 0 0l-2-2zm420 2c0 1 0 2 1 1v-2c-1-1-1 0-1 1m16 0h2l-2-1zm-304 4 3 3-2-3-3-3zm303-2h2l-2-1zm-431 0 2 2c1 1 1 1 0 0zm376 3-2 2c2 0 4-3 4-4zm229-1v2c1 1 1 1 1-1s-1-2-1-1m-362 2 1 1 1-1-2-1zm-238 2 2 2-1-2-3-2zm242 1h1v-2zm179-1h2l-2-1zm152 2h1v-2zm-333 1h1v-2zm125 2-1 2 3-4zm226-1c0 1 0 2 1 1v-2c-1-1-1 0-1 1m-589-1 2 2c1 1 1 1 0 0zm416 1h2l-2-1zm178 0v2c1 1 1 1 1-1s-1-2-1-1m-179 2h2l-2-1zm172 2c0 1 0 2 1 1v-3c-1-1-1 0-1 2m-645-2c0 1 5 2 6 1l-3-1zm61 1 2 2c1 1 1 1 0 0zm128 3 3 3-2-3-3-3zm103-1h1v-2zm183 1c-2 2-2 2 0 1l2-3zm175-2c-1 1 0 4 2 3 1 0 2-2 0-2l-1-1zm-197 2c0 1 0 2 1 1v-2c-1-1-1 0-1 1m-451 0h4c1-1 0-1-2-1zm284 0 2 1zc-1-1-1-1 0 0m138 1 1 1v-1l-1-2zm-10 2-2 4h1l1-2 3-5zm-410-1 4 1c3 0 3 0 2-1zm62 1 2 2-1-2-3-2zm582-1v2l1 1s0 1 0 0c2 0 3-2 1-2l-1-1zm-182 2h2c1-1 0-1-1-1zm-458 1h3c1-1 0-1-1-1-2 0-3 0-2 1m457 1h2l-2-1zm-397 0 2 2c1 1 1 1 0 0zm379 2c0 1 0 2 1 1v-2c-1-1-1 0-1 1m-436 0h2l-2-1zm628 1h1v-2zm-294 2 4 5 3 4 3 3 2 4 1 1 3 2-8-11a156 156 0 0 0-8-8m71 0h1v-2zm46-1h2l-2-1zm175 2c0 1 0 2 1 1v-3c-1-1-1 0-1 2m-566-2 2 2c1 1 1 1 0 0zm128 4 3 3-2-3-3-3zm261-2h2c1-1 0-1-1-1zm184 1-1 1h-1l2 1 1-1v-2zm-368 1 2 1zc-1-1-1-1 0 0m138 0 1 1v-1l-1-1zm45 0h2l-2-1zm176 1h1v-2zm-561-1 2 2c1 1 1 1 0 0zm367 2c0 1 0 2 1 1v-2c-1-1-1 0-1 1m-29 0 1 1v-1l-1-1zm45 0h2l-2-1zm183 0v2l1 1s0 1 0 0c2 0 3-2 1-2l-1-1zm-624 2h4c1-1 0-1-2-1zm394 1 1 1v-1l-1-2zm46-1h2l-2-1zm5 1c-2 2-3 4-1 3l3-5zm172 0h1v-2zm-556-1 2 2c1 1 1 1 0 0zm-57 1 2 1h1l-1-1zm388 1v2l1-1c0-2 0-2-1-1m230 0v2l-1 2c-1-1-1 0-1 2l-1 2v-2l-1-1v3c0 2 3 1 3-1l2-2 1-1v-2l-1-2zm-434 1 2 2c1 1 1 1 0 0zm249 1h2l-2-1zm-372 1 2 2c1 1 1 1 0 0zm370 1h2l-2-1zm178 1h1l1-1v-1zm-605 1h3c1-1 0-1-1-1-2 0-3 0-2 1m185 2 3 3-2-3-3-3zm195-2 1 2v-2l-1-1zm45 0h2c1-1 0-1-1-1zm-423 2h4l-3-1c-2 0-2 0-1 1m58-1 2 2c1 1 1 1 0 0zm364 1h2l-2-1zm-17 2h1v-2zm-414 0h2l-2-1zm261 0 1 1v-1l-1-1zm169 0h2l-2-1zm178 1h1v-2zm-599 0h4c1-1 0-1-2-1zm419 1h2c1-1 0-1-1-1zm-321 1 1 2v-2l-1-1zm-94 1h3c1-1 0-1-1-1-2 0-3 0-2 1m71 0v2l1-2zm14 1-1 2 2-2c2-2 1-2-1 0m327-2 3 1h2l-2-1zm-228 2 2 2c1 1 1 1 0 0zm229 1c1 1 1 1-1 1-1 0-2 0-1 1s0 1-1 1h-2c0 2 4 1 5-1 3-2 2-3 0-3zm178 1h1v-2zm-196 1c0 2 1 3 1 0v-2zm-313 1c0 1 0 2 1 1v-2c-1-1-1 0-1 1m335 0-2 2 2-1 2-3zm-80 0 2 3 1 1v-1l1 2c-1 2 1 3 3 1l-1-1v-3c0-2-1-2-2-2zm-247 1 1 1v-1l-1-1zm317 1 3 1c1-1 1-1-1-1zm-327 1 1 1v-1l-1-1zm7 0h2l-2-1zm500 1h1v-2zm-398-1 2 2c1 1 1 1 0 0zm75 1h2l-2-1zm127 1c0 2 1 3 1 0v-2zm-314 0 1 1h1l-1-2zm312 2c0 1 0 2 1 1v-2c-1-1-1 0-1 1m-299 0v1l2-1zm292 2-3 4 3-2 2-1 1-2c0-3 0-3-3 1m15-2h2l-2-1zm13 1 2 1zc-1-1-1-1 0 0m-138 1 4 1h3l-3-1zm311 1h1v-2zm-243 0 1 1 1-1zm-231 1h2l-2-1zm158 0c-2 0-4 3-4 4h-1l-1 1s0 2-1 1l-1 1s0 2-1 1l-1 1s0 2-1 1l-1 3c0 2 0 2 2 0l2-2 4-5 3-4 1-1 2-1v-1zm323 0c0 1-1 2-2 1s-1 0-1 1v1l-1 2c0 2 0 2 1 1 0-1 1-2 2-1l1-1 1-2 1-2zm-333 1 1 1 1-1-2-1zm14 0h2c1-1 0-1-1-1zm114 1 1 2v-4zm-279 0v2l1-1 1-1v-1zm286-1 2 1h1l-1-1zm-15 2 1 1 1-1-2-1zm6 2 1 2v-3c0-3-1-3-1 1m-285-1h2l-2-1zm28 0h2c1-1 0-1-1-1zm147 0h6l-3-1c-3 0-5 0-3 1m117 1c-1 2-2 3 0 3l1-1 1-1 1-1c0-2 0-2-3 0m-289 0h-5l3 2c4 2 4 2 4 0-1-1 0-1 1-1l1-1zm277 1 1 1 1-1-2-1zm-284 2h3l-2-1c-2 0-2 0-1 1m152 0h2l-2-1zm45 0h5c2-1 0-1-2-1-3 0-4 0-3 1m-148 2h2l1-1h-1zm264 2h2l-2-1zm4 4h2l-2-1zm167 0-2 2c-2 1-2 1-1 2h3v-1l1-3zm-169 2h2l-2-1zm165 4 1 1 1-1-2-1zm-2 2 1 1 1-1-2-1zm-2 3c-2 1-2 4-1 4l1-1v-1l1-2zm-164 4h4c2-1 1-1-2-1zm-2 2h4c2-1 1-1-2-1zm160 1 1 1 1-1-2-1zm-3 4c-1 1-2 2-1 3s1 0 1-1l2-3v-1zm-165 4h4l-3-1c-3 0-3 0-1 1m162 0 2 1zc-1-1-1-1 0 0m7 3c-1 1-1 1 0 0l2-2zm-13 3 1 1 1-1-2-1zm-132 11h2l-2-1zm-9 4h4c1-1 0-1-2-1-3 0-3 0-2 1m-4 2h4c1-1 0-1-2-1zm19 0h2l-2-1zm-22 2h4c1-1 0-1-2-1-3 0-3 0-2 1m19 0h2c1-1 0-1-1-1zm-24 2h5c2-1 0-1-2-1-3 0-4 0-3 1m21 0h2l-2-1zm-25 2h5c2-1 0-1-2-1-3 0-4 0-3 1m20 0h2c1-1 0-1-1-1zm-542 3 5 5 3 4h1c1 0 0-2-5-6-6-6-8-8-4-3m538-1h4c1-1 0-1-2-1-3 0-3 0-2 1m-7 1 3 1h3l-3-1zm67 2c0 1 0 2 1 1v-2c-1-1-1 0-1 1m-71 0 3 1h3l-3-1zm69 2h1v-2zm-594 2 3 3-2-3c-1-2-3-2-3-2zm524-1h2c1-1 0-1-1-1zm68 0 1 2v-2l-1-1zm-75 1 5 1c2 0 2 0 0-1l-5-1h-2zm71 0 2 1h1l-1-1zm-76 2 5 1c3 0 3 0 2-1l-5-1c-3 0-3 0-2 1m74 2c0 1 0 2-1 1l-2-1v2h3v-4zm2 0h1v-2zm63 0c-1 2-1 2 1 1l2-3zm-143 0 5 1c3 0 3 0 2-1l-5-1c-3 0-3 0-2 1m138 0 1 1 2-1-1-1zm-143 2 6 1c3 0 3 0 2-1l-6-1c-4 0-4 0-2 1m141 0 1 1 1-1-2-1zm-114 1h2l-2-1zm-31 1 7 1c3 0 3 0 1-1l-6-1c-4 0-4 0-2 1m27 1h2l-2-1zm-32 1c1 1 1 1-2 1s-3 0-2 1l6 1c3 0 3 0 2-1-2-1-1-1 2-1h5l-9-2c-3 0-3 0-2 1m27 0 2 1h2l-2-1zm122 2-2 2zl3-3zm-102-1h2l-2-1zm-396 1h4c1-1 0-1-2-1zm372 0 2 1c2 0 2 0 1-1zm20 1h2c1-1 0-1-1-1zm18 0h2l-2-1zm-535 1 1 1v-1l-1-1zm483 0h2c1-1 0-1-1-1zm30 1h2c1-1 0-1-1-1zm18 0h2l-2-1zm-54 1h4c1-1 0-1-2-1zm30 1h4c2-1 1-1-2-1zm20 0h2c1-1 0-1-1-1zm-54 1h2c1-1 0-1-1-1zm31 1h4c1-1 0-1-2-1-3 0-3 0-2 1m21 0h2l-2-1zm-25 2h4c1-1 0-1-2-1-3 0-3 0-2 1m21 0h2l-2-1zm-58 1h4c1-1 0-1-2-1zm24 0h2l-2-1zm9 1h4c1-1 0-1-2-1-3 0-3 0-2 1m21 0h2c1-1 0-1-1-1zm-26 2h4c2-1 1-1-2-1zm22 0h2c1-1 0-1-1-1zm-26 2h4c2-1 1-1-2-1zm21 0h4c1-1 0-1-2-1zm-27 2c1 1 1 1-2 1-6 0-4 1 4 1h4c-5-1-5-2 0-2h3l-6-1c-3 0-4 0-3 1m23 0h4c1-1 0-1-2-1zm43 0h2c1-1 0-1-1-1zm-47 2h4c1-1 0-1-2-1zm45 0h2l-2-1zm-51 1 4 1c3-1 3-1-1-1zm-23 0 8 1h4zm70 1h2l-2-1zm-51 1 4 1c4 0 4-1-1-1zm-24 0 9 1h3zm71 1h2c1-1 0-1-1-1zm-51 1 6 1h3zm13 0h2l-2-1zm-351 1h2c1-1 0-1-1-1zm313-1 8 1h4zm74 1h2l-2-1zm-80 1c0 1 16 2 17 1h-3l-8-1zm26 0 4 1c4 0 4-1-1-2zm-330 1h5c2-1 0-1-2-1-3 0-4 0-3 1m379 0h2c1-1 0-1-1-1zm-54 1 6 1h3zm14 0h2c1-1 0-1-1-1zm-332 1h6c2-1 1-1-3-1zm369 0h3c1-1 0-1-1-1-2 0-3 0-2 1m-382 1h2l-2-1zm326 0 3 1h7zm52 1h3c1-1 0-1-1-1-2 0-3 0-2 1m-374 1h4c1-1 0-1-2-1zm336 0h2c1-1 0-1-1-1zm34 1h3c1-1 0-1-1-1-2 0-3 0-2 1m-366 1h3c5 0 6-1 1-1zm328 0h2c1-1 0-1-1-1zm34 0c-1 1-1 1 1 1 3 0 4-1 2-1zm-358 2h4l7-1zm354 0c-1 1-1 1 1 1 3 0 4-1 2-1zm-349 2h4l6-1zm345 0c-1 1-1 1 1 1 3 0 4-1 2-1zm-428 1h3c1-1 0-1-1-1-2 0-3 0-2 1m93 1h4c1-1 0-1-2-1-3 0-3 0-2 1m326 2c-6 3-6 3-2 3 3 0 3 0 2-1s-1-1 2-1 3 0 2-1-1-1 2-1 3 0 2-1c-2-1-1-1-8 2m-415-1h2c1-1 0-1-1-1zm94 1h3c7 0 8-1 2-1zm-91 1h3c1-1 0-1-1-1-2 0-3 0-2 1m87 0h2l-2-1zm7 1c-4 1-4 1 0 1l5-1-1-1zm-91 1h4c1-1 0-1-2-1-3 0-3 0-2 1m391 4-12 5c-2 1-2 1 2 1 3 0 4 0 3-1-2-1-1-1 2-1s4 0 3-1 0-1 2-1l4-1 2-1c3 0 3 0 2-1s0-1 3-1c5 0 5 0 1-1-1-1-6 1-12 3m-388-2h4c1-1 0-1-2-1zm4 2h4c1-1 0-1-2-1zm3 2h4c1-1 0-1-2-1-3 0-3 0-2 1m4 2h4c1-1 0-1-2-1-3 0-3 0-2 1m4 2h4c2-1 1-1-2-1zm354 1c-1 1 0 1 3 1s4 0 3-1zm-350 1h4c2-1 1-1-2-1zm342 1-4 2h-2l3 1h9-1l-5-1 5-1 4-1zm-336 1h4c1-1 0-1-2-1-3 0-3 0-2 1m5 1c-3 1-3 1 0 1l4-1-1-1zm359 1h2c1-1 0-1-1-1zm-354 1c-2 1-2 1 0 1l3 1 2 1 2 1 1 2h1l1-1v1h2l1-1 1 3h1l1-1v1c0 2 2 4 3 2h2c2-1 2-1 1 1 0 2 0 2 2 2h3l1 1h4l1 2h1l3 1 3 1 2 1h3l1 1c0 1 7 3 11 3l4 2h4l2 1c-1 1 0 2 1 2l7 1 4 1 6 1 4 1c2 0 2 0 1 1s-1 1 1 1l2-1h4l3 1 2 1 1 1c1 0 2 0 1 1 0 2 1 3 6 5 2 1 3 0 4-1s1-1-1-1h-3l1-1h1l3-1 2 2c-1 1 2 3 4 3l5 1h3c1-1 0-2-2-1v-1l3-1c1 0 2 0 2 2s1 2 11 2l7 1 26 1c15 0 17-1 4-1l-9-1 25-1 1-1c-27 0-27 0-9-1l28-1c7 0 9 0 8-1s2-1 8-1l10-1h-6l-2-1 2-1h-16l-23 1c-16 0-22 0-20-1l14-1h11l1-1 1 1h5l5-1h8c4 0 4 0 0-1s-3-1 4-1l12-1h1l3 1c3 0 3 0 0-1-2-1-2-1 0-1h5l3-1 2-1 1 1 1 1 1-1c-1-1 7-2 10-1 2 1 2 1 2-1-1-1 0-1 4-1l4-1c-1-1 0-1 4-1l4-1c-1-1 1-1 5-1 5 0 5 0 4-1-2-1-1-1 3-1l4-1c-1-1 0-1 4-1 3 0 4 0 3-1-2-1-1-1 5-1 3 0 4 0 2-1-5 0-3-2 3-1 3 0 5 0 4-1-3-1-2-2 1-2 3 1 4 1 3-1l3-1c3 0 3 0 2-1s0-1 3-1l4-1 3-1 3-1c-1-1-8 0-9 1l-3 1-9 3h-2l-6 1-6 2v1h-1c-1-1-4 1-8 2l-7 1h-1l-5 1-3 1h-2l-3-1 1 1 1 1-2 1h-4l-3-1v1c2 1-2 2-10 2h-2l5 1h-6l-4 2-1 1c-1-1-10 0-9 1l-1 1-1-1h-8l-10 1h-4l-8-1h-7l7 1c7 1 7 1 3 1l-9 1c-9 0-10 0-4 1 5 1 5 1-4 1l-9-1h-13l-11-1a38 38 0 0 1-9-1l1 1h-9l-8-1c-11-1-8-2 5-2h13l-14-1-10-1 4-1h-8a704 704 0 0 1-22 2l1 1c-1 1 1 1 6 1s6 0 4 1c-3 1-3 1-1 1s2 0 1 1-6 0-6-1l-8-1c-6 0-8 0-7-1s0-1-5-1l-5-1c1-1 0-1-4-1l-6-1-5-1-3-1-4-1-3-1-3-1-4-1-4-1c-2 0-3 0-2-1s-1-1-3-1l-3-1c1-1-2-1-4-1-3 0-4 0-3-1s1-1-2-1-4 0-3-1-1-1-3-1l-3-1c1-1-1-1-3-1l-3-1-2-1-3-1-2-1c-2 1-3 0-3-1l-2-1h-3zm304 16-1 1-1-1v-1zm-7 3h-1l-2-1h2zm-9 1-1 1-1-1v-1zm-7 3h-1l-2-1h2zm-156 3h-4c-1-1 0-1 3-1 5 0 5 0 1 1m5 7v1l-1-1v-1zm-22 1 2 2c3 1 3 1 1 1-3 0-6-2-5-3l1-1zm15 2h-2v-1zm191-36c-1 1 0 1 4 1h5c-1-1-8-2-9-1m35 0-2 1-3 1c-3 1-3 1 0 1l4-1 2-1 2-1v-1zm-263 1h4c2-1 1-1-2-1zm222 1c-2 1-1 1 3 1s5 0 3-1zm18 0h4c2-1 1-1-2-1zm-25 2c-1 1 0 1 2 1a143 143 0 0 1 11 0l-9-2zm18 0h4c1-1 0-1-2-1-3 0-3 0-2 1m-26 2c-1 1 1 1 4 1l7 1h5c2-1 2-1-3-1l-9-2zm-216 2 2 1c2 0 2 0 1-1zm208 0c-1 1 1 1 5 1s5 0 3-1zm-173 2h2c1-1 0-1-1-1zm164 0-4 1-4 1-7 1-6 1-5 1-4 1-13 1c-8 0-11 0-10 1 3 1 3 1 0 1l-7 1c-4 0-4 0-2 1 1 1-1 1-4 1h-6l12 1c11 0 12 0 6-1-5-1-4-1 8-1s13-1 9-1c-5-1-4-1 6-1 16 0 17 0 9-1l-7-1h7c8 0 14 1 12 2-1 0-1 1 1 1h1c-1-1 0-2 2-2 2-1 2-2-4-2l-7-1h6c5 0 7 0 8 2h2c-1-1 0-1 1-1l4-1-2-1h-6c-3-1-3-1 3-1l6 1h5l-4-2c-4-1-4-1 1-1l6 1h6l-16-3c-3 0-4 0-3 1m21 0c2 1 7 0 7-1h-4c-3 0-4 0-3 1m-210 1h2c1-1 0-1-1-1zm9 1 4 1h4l-4-1zm10 0h2l-2-1zm-48 1h4c1-1 0-1-2-1zm46 1 5 1h9c-1-1-12-2-14-1m-36 1h2l-2-1zm79 0h4c1-1 0-1-2-1zm-28 2h8c2-1 0-1-4-1zm-92 1 1 1c2 0 3-1 1-1zm64 0c-3 1-3 1 0 1l4-1zm35 1h4c1-1 0-1-2-1zm-33 1c-2 1-2 1 0 1l3-1v-1zm44 0h8c1-1 1-1-3-1zm17 0h4c2-1 1-1-2-1zm52 0h4c1-1 0-1-2-1-3 0-3 0-2 1m40 1h2l-2-1zm-207 1c-1 1 0 2 2 1s2-1 0-1zm47 0 1 1h1l-1-2zm21 0h-7l-6 1 4 3v-2l1 2c0 2 0 2 1-1l1-1 1 2v-1c0-1 1-2 5-2 6 0 7-1 3-1zm9 0c-2 1-2 1 1 1 4 0 5 0 3-1zm85 0h2l-2-1zm-157 2 3 1 2-1zm195 0h3c1-1 0-1-1-1-2 0-3 0-2 1m7 0h4c1-1 0-1-2-1-3 0-3 0-2 1m-46 1h8c3-1 1-1-4-1zm-151 1c-2 1-1 1 2 1l5-1zm173 0h8c3-1 1-1-4-1zm-166 2c-3 1-3 1 2 1h5c0-1-4-2-7-1m233 1h2c1-1 0-1-1-1zm-226 1c-2 1-2 1 0 1l2 1h2l4 1 2 1 1 1v-1h1l5 1 3 1 5 1 6 1c1 1 8 2 9 1l-3-1c-2 0-3 0-2-1 2-1-1-2-6-2h-4c0-1-1-2-6-1-5 0-5 0-4-1s2-2-4-1l-5-1c2-1 2-1 0-1zm207 1 1 2 6-1h-2l-3-1-1-2zm11 0h4c1-1 0-1-2-1-3 0-3 0-2 1m-22 2c0 1 0 2 1 1v-2c-1-1-1 0-1 1m9 0h2l-2-1zm-4 1v1l1-1v-1zm-17 1-1 1h-3c-2 1-2 1 1 1s4 0 4-2v-1zm-204 1h2l-2-1zm209 0v1l1-1v-1zm-202 2h2l-2-1zm15 4h2l-2-1zm18 4h2l-2-1zm62 1-1 1 3-1zm49 0h8c2-1 0-1-4-1zm-33 3h2l-2-1z"/></svg></svg>