<svg xmlns="http://www.w3.org/2000/svg" width="272" height="281"><path fill="#141414" d="M0 0h272v281H0V0Z"/><path fill="#131213" d="M73 61h42c1.586 3.173 1.12 6.588 1.098 10.07l-.005 2.413c-.005 2.547-.018 5.095-.03 7.642-.006 1.725-.01 3.45-.014 5.176-.01 4.233-.03 8.466-.049 12.699h33l-.035-8.059c-.008-2.564-.014-5.13-.02-7.694-.005-1.788-.012-3.576-.02-5.363-.013-2.565-.018-5.129-.023-7.693l-.015-2.436c0-1.919.051-3.837.113-5.755 1-1 1-1 4.969-1.114 1.772 0 3.544.006 5.316.016l2.82.005c2.986.005 5.972.018 8.958.03 2.018.006 4.037.01 6.056.014 4.96.01 9.92.03 14.881.049v24h-19v14h19v19h37c1.688 3.375 1.142 7.199 1.133 10.91l.003 2.675c0 1.867-.001 3.734-.006 5.6-.005 2.87 0 5.738.007 8.606 0 1.81-.002 3.621-.004 5.432l.006 2.616c-.024 6.046-.024 6.046-1.139 7.161a74.56 74.56 0 0 1-4.656.133l-2.848.004-2.996-.012-2.996.012-2.848-.004-2.63-.004C208 161 208 161 207 160a56.726 56.726 0 0 1-.098-4.035l.01-2.451.025-2.577.014-2.587c.012-2.117.03-4.233.049-6.35h-15v19h-19v14l3.902-.035 5.036-.028 2.576-.025 2.45-.01 2.27-.016C191 175 191 175 192 176c.089 3.103.115 6.183.098 9.285l-.005 2.82c-.005 2.986-.018 5.972-.03 8.958-.006 2.018-.01 4.037-.014 6.056-.01 4.96-.03 9.92-.049 14.881h-24v-19c-5.879.04-5.879.04-11.758.09l-2.207.008-2.27.016C150 199 150 199 149 198a210.742 210.742 0 0 1-.098-8.191l.005-2.485c.005-2.629.018-5.258.03-7.887.006-1.777.01-3.555.014-5.333.01-4.368.03-8.736.049-13.104h-33v38H97c.04 5.505.04 5.505.09 11.01.021 5.768.021 5.768-1.09 7.99H74c-1.688-3.375-1.142-7.199-1.133-10.91l-.003-2.675c0-1.867.001-3.734.006-5.6.005-2.87 0-5.738-.007-8.606 0-1.81.002-3.621.004-5.432l-.006-2.616c.024-6.046.024-6.046 1.139-7.161a56.726 56.726 0 0 1 4.035-.098l2.451.01 2.576.025 2.588.014c2.117.012 4.233.03 6.35.049v-14l-3.902.035-5.035.028-2.577.025-2.45.01-2.27.016C74 161 74 161 73 160a56.726 56.726 0 0 1-.098-4.035l.01-2.451.025-2.577.014-2.587c.012-2.117.03-4.233.049-6.35H59l.035 3.902.028 5.036.025 2.576.01 2.45.016 2.27C59 160 59 160 58 161c-1.623.1-3.25.13-4.875.133l-2.984.004-3.141-.012-3.14.012-2.985-.004-2.758-.004C36 161 36 161 35 160c-.101-3.018-.14-6.013-.133-9.031l-.003-2.746c0-1.92.001-3.84.006-5.76.005-2.95 0-5.9-.007-8.85 0-1.86.002-3.721.004-5.582l-.006-2.692c.024-6.224.024-6.224 1.139-7.339 2.739-.089 5.453-.115 8.191-.098l2.485.005c2.629.005 5.258.018 7.886.03 1.778.006 3.556.01 5.334.014 4.368.01 8.736.03 13.104.049V99h19V85H73V61Z"/><path fill="#631FC8" d="M73 61h42c1.586 3.173 1.12 6.588 1.098 10.07l-.005 2.413c-.005 2.547-.018 5.095-.03 7.642-.006 1.725-.01 3.45-.014 5.176-.01 4.233-.03 8.466-.049 12.699h33l-.035-8.059c-.008-2.564-.014-5.13-.02-7.694-.005-1.788-.012-3.576-.02-5.363-.013-2.565-.018-5.129-.023-7.693l-.015-2.436c0-1.919.051-3.837.113-5.755 1-1 1-1 4.969-1.114 1.772 0 3.544.006 5.316.016l2.82.005c2.986.005 5.972.018 8.958.03 2.018.006 4.037.01 6.056.014 4.96.01 9.92.03 14.881.049v24h-19v14h19v19h37c1.688 3.375 1.142 7.199 1.133 10.91l.003 2.675c0 1.867-.001 3.734-.006 5.6-.005 2.87 0 5.738.007 8.606 0 1.81-.002 3.621-.004 5.432l.006 2.616c-.024 6.046-.024 6.046-1.139 7.161a74.56 74.56 0 0 1-4.656.133l-2.848.004-2.996-.012-2.996.012-2.848-.004-2.63-.004C208 161 208 161 207 160a56.726 56.726 0 0 1-.098-4.035l.01-2.451.025-2.577.014-2.587c.012-2.117.03-4.233.049-6.35h-15v19h-19v14l3.902-.035 5.036-.028 2.576-.025 2.45-.01 2.27-.016C191 175 191 175 192 176c.089 3.103.115 6.183.098 9.285l-.005 2.82c-.005 2.986-.018 5.972-.03 8.958-.006 2.018-.01 4.037-.014 6.056-.01 4.96-.03 9.92-.049 14.881h-24v-19c-5.879.04-5.879.04-11.758.09l-2.207.008-2.27.016C150 199 150 199 149 198a210.742 210.742 0 0 1-.098-8.191l.005-2.485c.005-2.629.018-5.258.03-7.887.006-1.777.01-3.555.014-5.333.01-4.368.03-8.736.049-13.104h-33v38H97c.04 5.505.04 5.505.09 11.01.021 5.768.021 5.768-1.09 7.99H74c-1.688-3.375-1.142-7.199-1.133-10.91l-.003-2.675c0-1.867.001-3.734.006-5.6.005-2.87 0-5.738-.007-8.606 0-1.81.002-3.621.004-5.432l-.006-2.616c.024-6.046.024-6.046 1.139-7.161a56.726 56.726 0 0 1 4.035-.098l2.451.01 2.576.025 2.588.014c2.117.012 4.233.03 6.35.049v-14l-3.902.035-5.035.028-2.577.025-2.45.01-2.27.016C74 161 74 161 73 160a56.726 56.726 0 0 1-.098-4.035l.01-2.451.025-2.577.014-2.587c.012-2.117.03-4.233.049-6.35H59l.035 3.902.028 5.036.025 2.576.01 2.45.016 2.27C59 160 59 160 58 161c-1.623.1-3.25.13-4.875.133l-2.984.004-3.141-.012-3.14.012-2.985-.004-2.758-.004C36 161 36 161 35 160c-.101-3.018-.14-6.013-.133-9.031l-.003-2.746c0-1.92.001-3.84.006-5.76.005-2.95 0-5.9-.007-8.85 0-1.86.002-3.721.004-5.582l-.006-2.692c.024-6.224.024-6.224 1.139-7.339 2.739-.089 5.453-.115 8.191-.098l2.485.005c2.629.005 5.258.018 7.886.03 1.778.006 3.556.01 5.334.014 4.368.01 8.736.03 13.104.049V99h19V85H73V61Zm5 5v14l18 1v23H78l-1 18-37 1v33h14l1-18 23-1v19h18v23l-18 1v33h14v-19h19l1-37h42v37l18 1 1 18h14v-33h-18v-23l18-1 1-18 23-1v19h15v-33h-38l-1-19-18-1V81l18-1V66h-33v38h-43V66H78Z"/><path fill="#17121C" d="M154 66h33v14l-18 1v22l18 1 1 19h38v33h-15v-19l-23 1-1 18-18 1v23h18v33h-14l-1-18-18-1v-37l-2-1h5l1 4h-2l1 4 1-2h2v-8h-4l1-4c-2.569-1.284-4.766-1.33-7.625-1.563l-3.04-.253L144 148v-2h7l-1-4h23l-1-25h-15l1-7h-4v-2h-3v-2l-39-1v-1h42V66Z"/><path fill="#190B2B" d="M78 66h33v36h-1V67H79v12h19v5h2l-.063-2.438C100 79 100 79 101 78c.368-2.328.702-4.662 1-7l-2-1h5l.438 2.25c.32 1.57.667 3.136 1.089 4.683.778 3.4.616 6.847.598 10.317l.012 2.2c-.01 4.93-.441 9.668-1.137 14.55h-1v-5h-3l-1-2-1 7c-2.766.922-4.383 1.118-7.23 1.098l-2.432-.01-2.525-.025-2.561-.014c-2.084-.012-4.168-.03-6.252-.049v5l2 1c.354 1.328.685 2.662 1 4l2 3c.195 2.48.195 2.48.125 5.188l-.055 2.73L84 128h-2l-1-7-1.125 2c-1.875 2-1.875 2-5.063 2.25L72 125l-1 4 2 1v4l4 1v2l-22 1-1 18H40v-33l37-1 1-18h18V81l-18-1V66Z"/><path fill="#161614" d="M155 67h31v12l-18 1c-.194 3.979-.38 7.958-.563 11.938l-.17 3.443-.146 3.271-.143 3.031c-.249 2.28-.249 2.28 1.022 3.317 1.347.23 2.704.412 4.063.563L176 106v3h-3l-1 3h-2v3h6v3l-19-1 1-7h2v-3h-7l2-3c.172-2.83.232-5.559.195-8.387l-.008-2.476c-.011-2.608-.037-5.216-.062-7.825-.01-1.768-.02-3.537-.027-5.306-.02-4.336-.06-8.67-.098-13.006Z"/><path fill="#5F1FC0" d="M153.969 60.886c1.772 0 3.544.006 5.316.016l2.82.005c2.986.005 5.972.018 8.958.03 2.018.006 4.037.01 6.056.014 4.96.01 9.92.03 14.881.049v24h-19l1-2h17V63l-23 1 19 1v1h-33v38h-43V66h1v37h3l1-4h33l-.035-8.059c-.008-2.564-.014-5.13-.02-7.694-.005-1.788-.012-3.576-.02-5.363-.013-2.565-.018-5.129-.023-7.693l-.015-2.436c0-1.919.051-3.837.113-5.755 1-1 1-1 4.969-1.114Z"/><path fill="#171618" d="m187 124 36 1c1.125 9 1.125 9 1.098 13.594l-.01 2.93-.025 2.976-.014 3.07c-.012 2.477-.03 4.953-.049 7.43h-11l-1-18c-3.21-.802-5.336-1.12-8.547-1.098l-2.558.01-2.645.025-2.691.014c-2.187.012-4.373.028-6.559.049l.188-2.375L189 131l-3-2c1-1 1-1 3.563-1.063L192 128v-2h-5v-2Z"/><path fill="#651FCD" d="m152.133 117.886 2.777.016 2.998.01 3.155.025 3.166.014c2.59.012 5.18.028 7.771.049 1.252 2.505 1.114 4.209 1.098 7.008l-.01 2.988-.025 3.129-.014 3.152c-.012 2.575-.028 5.149-.049 7.723-3.812.029-7.625.047-11.437.062l-3.3.026-3.134.01-2.904.016C150 142 150 142 149 141c-.1-1.623-.13-3.25-.133-4.875l-.004-2.984.012-3.141-.012-3.14.004-2.985.004-2.758c.175-2.875.384-3.077 3.262-3.23Z"/><path fill="#5D20BE" d="M93 118c3.083-.058 6.166-.094 9.25-.125l2.645-.05 2.558-.02 2.349-.032c2.457.254 4.071 1.003 6.198 2.227.029 3.48.047 6.958.063 10.438l.025 3.01.01 2.86.016 2.65C116 141 116 141 115 142c-1.623.1-3.25.13-4.875.133l-2.984.004-3.141-.012-3.14.012-2.985-.004-2.758-.004C93 142 93 142 92 141a73.42 73.42 0 0 1-.133-4.621l-.004-2.834.012-2.982-.012-2.971.004-2.838.004-2.615C92 120 92 120 93 118Z"/><path fill="#280A4C" d="M154 66h33v14l-18 1v22l18 1 1 19h38v33h-15v-19l-24 1v-2c3.958-.225 7.916-.427 11.875-.625l3.418-.195 3.262-.157 3.015-.158C211 135 211 135 213 137c.227 1.88.227 1.88.195 4.133l-.02 2.441-.05 2.551-.027 2.574c-.024 2.1-.06 4.2-.098 6.301h11l-1-30h-35l-1-3h-2v-16h-7l-1 7-3 1v2h-6l2-1v-3c1.313-1.688 1.313-1.688 3-3h3v-3l-3.875.125c-2.18.07-2.18.07-4.125-.125-2-2-2-2-2.151-4.414l.14-2.996.142-3.248.181-3.404.147-3.417c.399-8.379.399-8.379 1.541-9.521a56.726 56.726 0 0 1 4.035-.098l2.451.01 2.577.025 2.587.014c2.117.012 4.233.03 6.35.049V67h-31c.095 2.648.19 5.295.29 8.023.084 2.559.166 5.117.247 7.675.059 1.781.12 3.562.187 5.343.094 2.556.174 5.113.253 7.67l.097 2.421c.053 1.956-.001 3.913-.074 5.868l-2 2 6 1v3h-6v-2h-3v-2l-39-1v-1h42V66Z"/><path fill="#651DD3" d="M113 172h2c.029 3.958.047 7.917.063 11.875l.025 3.418.01 3.262.016 3.015C115 196 115 196 114 198H97l.035 3.867.028 5.008.025 2.55.01 2.442.016 2.254C97 216 97 216 96 218H74c-.023-5.357-.043-10.714-.055-16.07-.005-1.823-.012-3.646-.02-5.468a2670.09 2670.09 0 0 1-.023-7.857l-.015-2.471c0-3.304.06-5.977 1.113-9.134h3v36h14v-19l20-1 1-21Z"/><path fill="#0F1210" d="M41 124h27l1 2c-3.371 1.498-5.204 2-9 2l-1 2 1.813.438c1.749.45 3.474.99 5.187 1.562l1 3c-3.2 1.067-4.885.948-8.188.563l-2.73-.31L54 135c-1.856 3.923-2.172 6.872-2 11.188.125 3.167.125 3.167 0 5.812-2 2-2 2-3.945 2.195L42 154v-6h7v-2h-8v-22Z"/><path fill="#210642" d="M72 59c6.248-.025 12.496-.043 18.744-.055 2.127-.005 4.254-.012 6.382-.02 3.05-.013 6.1-.018 9.151-.023l2.901-.015h2.67l2.361-.007C116 59 116 59 117 60c.16 2.737.26 5.452.316 8.191l.063 2.485c.066 2.629.125 5.258.183 7.886l.131 5.334c.108 4.368.207 8.736.307 13.104l30 1V60c3.067-.767 5.065-1.126 8.11-1.13l2.416-.009 2.58.006 2.666-.003c1.855 0 3.71.001 5.565.006 2.85.005 5.701 0 8.552-.007 1.801 0 3.603.002 5.404.004l2.598-.006c5.994.024 5.994.024 7.109 1.139.087 1.78.107 3.565.098 5.348l-.01 3.271-.025 3.444-.014 3.455A2762.06 2762.06 0 0 1 193 84h-1V61l-42 1-1 37h-33l-1-38H73v24h19v14H74v-1h17l-1-10-3.14.105c-1.37.029-2.74.056-4.11.082l-2.066.077c-2.991.043-5.229-.018-7.887-1.456C71 85 71 85 70.53 82.596l.044-2.815.026-3.074.088-3.207.029-3.207C70.83 62.508 70.83 62.508 72 59Z"/><path fill="#170832" d="M59 142h14l1 18 18 1v14H76v-1h15v-11l-3.578.105c-1.557.029-3.115.056-4.672.083l-2.355.076c-3.381.043-5.797.013-8.895-1.42-2.041-2.509-2.1-4.328-2.25-7.531l-.172-3.012L69 149l-2 1-.5 3.5-.5 3.5-2 1v-14h-4c.095 1.132.19 2.264.29 3.43l.335 4.445.195 2.262c.14 1.95.168 3.908.18 5.863-2 2-2 2-4.338 2.227-.953-.01-1.907-.02-2.889-.032l-3.125-.02-3.273-.05-3.297-.027c-2.693-.024-5.385-.057-8.078-.098v-1l22-1 1-18Z"/><path fill="#22044B" d="M116 161h33v36h-1l-1-34-30-1 .035 8.277c.008 2.635.014 5.27.02 7.903.005 1.837.012 3.673.02 5.51.013 2.633.018 5.266.023 7.9l.015 2.503c0 1.97-.051 3.939-.113 5.907-1 1-1 1-4.816 1.098a762.816 762.816 0 0 1-4.746-.036l-2.444-.013c-1.998-.012-3.996-.03-5.994-.049l.07 3.176c.02 1.379.037 2.758.055 4.137l.05 2.091c.037 3.767-.031 5.38-2.175 8.596-2.247.34-2.247.34-5.008.293l-2.988-.03c-1.033-.024-2.065-.05-3.129-.076l-3.152-.04A758.32 758.32 0 0 1 75 219v-1h21l1-19h19v-38Z"/><path fill="#22113B" d="M229 118h5c1.627 3.253 1.115 6.392 1 10l-1 1c-.026 1.92.012 3.84.078 5.758l.078 3.586c.062 2.498.14 4.995.235 7.492.204 11.784.204 11.784-3.577 16.062-4.001 2.43-8.615 1.802-13.126 1.54l-3.112-.096c-2.528-.083-5.05-.197-7.576-.342l1-3h21v-42Z"/><path fill="#5D1FB7" d="M173 175a2398.8 2398.8 0 0 1 8.938-.063l2.576-.025 2.45-.01 2.27-.016C191 175 191 175 192 176c.089 3.103.115 6.183.098 9.285l-.005 2.82c-.005 2.986-.018 5.972-.03 8.958-.006 2.018-.01 4.037-.014 6.056-.01 4.96-.03 9.92-.049 14.881h-24v-19h1v18h22v-35h-2l1 32h-17v-1h14v-33h4v-3l-18-1v-1Z"/><path fill="#1C073A" d="M97 123h14v14H97v-14Z"/><path fill="#1B0D2D" d="M154 123h14v14h-14v-14Z"/><path fill="#681BE0" d="M156 63h35v20l-8.25.5-2.58.158-2.06.123-2.095.127C174.012 84 172.005 84 170 84l-1-4h18V65l-3.734.035c-9.144.06-18.165-.018-27.266-1.035v-1Z"/><path fill="#1D0D35" d="M192 142h15v18h-2l-.184-3.246-.254-4.191-.119-2.143c.08-3.507.08-3.507-1.443-6.42a103.535 103.535 0 0 0-5.063-.563l-2.785-.253L193 143l.048 1.68c.062 2.524.101 5.047.14 7.57l.076 2.645c.04 3.539.035 6.363-1.295 9.667-2.992 2.185-6.082 2.115-9.656 2.188l-2.127.09c-1.728.07-3.457.117-5.186.16v7h15v1h-17v-14h19v-19Z"/><path fill="#7016F2" d="M189 182h2v35h-22l-1-21h3c1.62 5.5 1.602 11.315 2 17l17 1-1-6c-.077-2.09-.108-4.182-.098-6.273l.01-3.497.025-3.605.014-3.676c.012-2.983.028-5.966.049-8.949Z"/><path fill="#1E0E2E" d="M166 96h1l2 7 18 1c.438 7.813.438 7.813.568 10.261.185 3.113.442 5.768 1.432 8.739l35 1v9h-1v-8h-35l-1-3h-2v-16h-7l-1 7-3 1v2h-6l2-1v-3c1.313-1.688 1.313-1.688 3-3h3v-3l-3.875.125c-2.18.07-2.18.07-4.125-.125-2-2-2-2-2.195-3.945L166 96Z"/><path fill="#6F18EB" d="M78.25 99.875c3.086.103 5.764.401 8.75 1.125v1l-9 1-1 18-40 1v-3l36-1 1-17c1-1 1-1 4.25-1.125Z"/><path fill="#6C1AE5" d="M226 120h4v40h-4v-40Z"/><path fill="#6D18F2" d="M80 63c4.502-.025 9.005-.043 13.507-.055 1.532-.005 3.063-.012 4.595-.02 2.202-.013 4.403-.018 6.605-.023l2.074-.015c3.028 0 5.32.147 8.219 1.113.167 5.233.328 10.465.482 15.698.054 1.781.109 3.562.166 5.343.082 2.557.157 5.113.23 7.67l.083 2.421c.153 5.64.153 5.64-.961 7.868h-3l-1-37c-2.845-1.423-5.362-1.22-8.54-1.316l-3.944-.127-4.141-.12-4.164-.13C86.807 64.2 83.404 64.098 80 64v-1Z"/><path fill="#1A092D" d="m111.835 154.76 2.248.013h2.547l2.753.032 2.816.008c2.976.011 5.95.037 8.926.062 2.014.01 4.029.02 6.043.027 4.944.022 9.888.057 14.832.098v1l-40 1-1 37H92v-3l1.578.465c3.055.675 6.052.88 9.172 1.097l3.547.254L109 193l-.124-3.273c-.148-3.999-.282-7.998-.413-11.998-.059-1.733-.12-3.465-.187-5.197-.094-2.487-.174-4.974-.253-7.462l-.097-2.355c-.053-1.904.001-3.811.074-5.715 2-2 2-2 3.835-2.24Z"/><path fill="#6A1CD6" d="M113 172h2c.029 3.958.047 7.917.063 11.875l.025 3.418.01 3.262.016 3.015C115 196 115 196 114 198l-17 1-1 11h-2l-1-15 3.902-.184 5.035-.254 2.577-.119 2.45-.127 2.27-.11c1.79-.024 1.79-.024 2.766-1.206.157-1.56.25-3.125.316-4.691l.127-2.862.12-3.01.13-3.021c.107-2.472.209-4.944.307-7.416Z"/><path fill="#210843" d="M173 85h18v1h-16v11l3.684-.035 4.754-.028 2.431-.025c2.044-.009 4.088.036 6.131.088 1 1 1 1 1.114 2.858l-.016 2.396-.008 2.33-.028 2.978L193 117h36v1h-37V99h-19V85Z"/><path fill="#170A28" d="m70 98 3 1v19H36v-1h34v-5l-6 2c1.564-5.614 3.164-10.868 6-16Z"/><path fill="#1D053E" d="m96 156 3 1v24H79v31h12v-17h1v18H78v-33l18-1v-23Z"/><path fill="#1E0930" d="m149 198 19 1v19h23v1c-3.812.196-7.625.38-11.438.563l-3.298.17-3.135.146-2.904.143C168 220 168 220 167 219l-1 4-4 1v-7l2-1 2 1v-16h-16l-1-3Z"/><path fill="#6D19E9" d="M190 138h19c1.502 3.003 1.093 5.79 1.063 9.125l-.028 3.883L210 154h-2v-12l-16 1-1 11h-2c-.027-1.73-.047-3.458-.063-5.188l-.035-2.917C189 143 189 143 190 138Z"/><path fill="#6F18EC" d="M96 119h16v2h3v17h-2l-1-14-16-1-1 15h-2l1-17h2v-2Z"/><path fill="#7214F8" d="M188 101h4v18h32v2c-4.502.025-9.005.043-13.507.055-1.532.005-3.063.012-4.595.02-2.202.013-4.403.018-6.605.023l-2.074.015c-3.028 0-5.32-.147-8.219-1.113l-1-19Z"/><path fill="#681EDA" d="m77 140-1 3-18-1v9c-.225 2.7-.61 5.317-1 8h-3l1-20c7.696-1.283 14.65-2.095 22 1Z"/><path fill="#601CC6" d="M39 123h1v34h10l2 1v2c-2.48.027-4.958.047-7.438.063l-2.142.025c-1.807.009-3.614-.036-5.42-.088-1-1-1-1-1.114-3.96l.016-3.919.005-2.08c.005-2.202.018-4.403.03-6.603A4240.961 4240.961 0 0 1 36 128h1l1 20 1-25Z"/><path fill="#1C0C2B" d="M119 112h5c.043 1.666.04 3.334 0 5l-1 1a69.603 69.603 0 0 0-.563 4.063L122 126h-3l-.148 2.809-.227 3.629c-.07 1.194-.14 2.39-.21 3.62-.138.971-.274 1.942-.415 2.942l-2 1-1-20c-2.725-.908-4.622-1.184-7.45-1.316l-2.568-.127-2.67-.12-2.705-.13c-2.202-.106-4.404-.208-6.607-.307v-1c3.625-.029 7.25-.047 10.875-.063l3.129-.025 2.988-.01 2.761-.016C115 117 115 117 117 118v2h3l-1-8Z"/><path fill="#5B20B7" d="M92 194h19v1H93l1 5c.065 1.77.086 3.542.063 5.313l-.028 2.675L94 210h2v-11h1c.027 2.792.047 5.583.063 8.375l.025 2.406c.025 5.992.025 5.992-1.088 8.219H74v-1h21v-3H78v-1h14v-19Z"/><path fill="#5A24AF" d="M35 119h1l1 40 15 1v-2l-12-1v-1h14v3h3l1-17h1c.027 2.98.047 5.958.063 8.938l.025 2.576.01 2.45.016 2.27C59 160 59 160 58 161c-1.623.1-3.25.13-4.875.133l-2.984.004-3.141-.012-3.14.012-2.985-.004-2.758-.004C36 161 36 161 35 160c-.089-3.03-.115-6.037-.098-9.066l.005-2.754c.005-2.914.018-5.828.03-8.743A7441.975 7441.975 0 0 1 35 119Z"/><path fill="#5C21B0" d="m190.225 136.886 2.904.016 3.135.01 3.298.025 3.311.014c2.71.012 5.418.028 8.127.049l-1 2-20-1-1 16h2v-11h1v18h-19v-1l18-1v-3h-4a2398.8 2398.8 0 0 1-.063-8.938l-.025-2.576-.01-2.45-.016-2.27c.174-2.698.65-2.742 3.339-2.88Z"/><path fill="#5D20B2" d="m150 118 2 1-1 2a74.6 74.6 0 0 0-.098 4.57l.01 2.715.025 2.84.014 2.863c.012 2.338.03 4.675.049 7.012h14v-2l-3.25.125C158 139 158 139 154 137h14v3h3l1-20h1v22c-3.813.027-7.625.047-11.438.063l-3.298.025-3.135.01-2.904.016C150 142 150 142 149 141c-.1-1.623-.13-3.25-.133-4.875l-.004-2.984.012-3.141-.012-3.14.004-2.985.004-2.758C149 119 149 119 150 118Z"/><path fill="#5E1FBE" d="M92 85h1l.148 3.648.227 4.727c.03.794.062 1.588.094 2.406.05 4.586.05 4.586 2.531 8.219H78l4-3h-7l-1 17h-1V99h19V85Z"/><path fill="#6024B7" d="m75.766 174.886 2.27.016 2.45.01 2.577.025 2.587.014c2.117.012 4.233.03 6.35.049v2H80v2h16v1H78v-3h-3l-1 39h-1c-.025-5.678-.043-11.357-.055-17.035-.005-1.933-.012-3.866-.02-5.8-.013-2.772-.018-5.545-.023-8.317l-.015-2.636c0-2.071.05-4.142.113-6.212 1-1 1-1 2.766-1.114Z"/><path fill="#5E21BC" d="m112 119 4 1c.029 3.48.047 6.958.063 10.438l.025 3.01.01 2.86.016 2.65C116 141 116 141 115 142a83.431 83.431 0 0 1-4.91.098l-2.998-.01-3.154-.025-3.167-.014c-2.59-.012-5.18-.028-7.771-.049v-1h19v-3H97v-1h14v-14l2 1v14h2v-17h-3v-2Z"/><path fill="#7116F0" d="M75 177h3c-.069 4.379-.157 8.757-.262 13.135-.034 1.49-.062 2.98-.084 4.47-.034 2.14-.086 4.279-.142 6.418l-.08 3.904L77 208l-3 2c-.025-4.218-.043-8.435-.055-12.653-.005-1.434-.012-2.869-.02-4.303-.013-2.063-.018-4.126-.023-6.189l-.016-3.76C74 180 74 180 75 177Z"/><path fill="#1C0440" d="M116 198v3H99c.079 4.802.079 4.802.18 9.603.031 3.711-.07 5.232-2.18 8.397-2.247.34-2.247.34-5.008.293l-2.988-.03c-1.033-.024-2.065-.05-3.129-.076l-3.152-.04A758.32 758.32 0 0 1 75 219v-1h21l1-19 19-1Z"/><path fill="#131213" d="M100 125h9v10h-9v-10Z"/><path fill="#19063A" d="m72 175 2 1v42h-3c-.025-5.963-.043-11.926-.055-17.89-.005-2.03-.012-4.06-.02-6.09a3324.65 3324.65 0 0 1-.023-8.735l-.015-2.768c0-2.173.05-4.345.113-6.517l1-1Z"/><path fill="#6D1AE5" d="M168 196h3c1.62 5.5 1.602 11.315 2 17l13 1v1h-10v2h-7l-1-21Z"/><path fill="#1E0B2E" d="M155 96h1c.195 6.055.195 6.055 0 8l-2 2 6 1v3h-6v-2h-3v-2l-39-1v-1l42-1 1-7Z"/><path fill="#190B2F" d="m96 102 1 3H79v5l2 1c.354 1.328.685 2.662 1 4l2 3c.195 2.48.195 2.48.125 5.188l-.055 2.73L84 128h-2l-1-7-4 2 1-19h18v-2Z"/><path fill="#111007" d="M64 162v5l-1.75-.563c-2.175-.593-2.175-.593-3.984.028-2.96.699-5.728.667-8.766.66l-3.406.008c-2.596-.112-4.624-.42-7.094-1.133-2.33-.35-4.664-.686-7-1v-2l2.355.016c3.507.02 7.013.034 10.52.047l3.707.025 3.535.01 3.27.016c3.316-.145 5.1-1.114 8.613-1.114Z"/><path fill="#171024" d="M145 108h9v2h4v6l14 1v1h-22l2-1v-6l-8-1 1-2Z"/><path fill="#691FD5" d="M192 118h37v2h-3l-1 3-33-1v-1h32v-2h-32v-1Z"/><path fill="#5F22B9" d="M73 144h1l1 15h3v-3h18v1l-15 1 11 1v2c-2.98.027-5.958.047-8.938.063l-2.576.025-2.45.01-2.27.016C74 161 74 161 73 160a210.174 210.174 0 0 1-.063-8.063l.014-2.298c.012-1.88.03-3.76.049-5.639Z"/><path fill="#6025B3" d="M187 104h2v16h3v2h33v1h-37c-1.254-3.763-1.107-7.272-1.063-11.188l.014-2.271c.012-1.847.03-3.694.049-5.541Z"/><path fill="#6523C7" d="M116 99h33v2h-29v2h-5l1-4Z"/><path fill="#6E17ED" d="M160 119h12c.027 2.938.047 5.875.063 8.813l.025 2.525.01 2.432.016 2.237C172 137 172 137 171 140h-3l.5-3.438c.577-4.546.572-8.983.5-13.562l-10-2 1-2Z"/><path fill="#6D19EA" d="m170 171 2 1 1 3 2.922.184 3.828.254 3.797.246c2.636.241 4.933.559 7.453 1.316v3l-21-1v-8Z"/><path fill="#7113F6" d="M76 118v2c-8.36 1.005-16.712 1.308-25.125 1.563l-4.055.13c-3.273.106-6.546.208-9.82.307v-3a73320.624 73320.624 0 0 1 27.832-.781l2.34-.067c2.943-.081 5.883-.152 8.828-.152Z"/><path fill="#6122B7" d="M155 194c2.813-.027 5.625-.047 8.438-.063l2.431-.025c2.044-.009 4.088.036 6.131.088 1 1 1 1 1.114 2.766l-.016 2.27-.01 2.45-.025 2.577-.014 2.587c-.012 2.117-.03 4.233-.049 6.35h-1l-1-17h-3v3h-18v-1l3.027-.148 3.91-.227c1.288-.07 2.576-.14 3.903-.21 1.043-.138 2.086-.274 3.16-.415l1-2h-10v-1Z"/><path fill="#19111E" d="M174 164h1l1 5 15 1-3 1v2l4 1h-17c-1.607-3.215-1.057-6.436-1-10Z"/><path fill="#2A0C52" d="M192 142h15v18h-2l-.184-3.246-.254-4.191-.119-2.143c.08-3.507.08-3.507-1.443-6.42a103.535 103.535 0 0 0-5.063-.563L193 143v16h-1v-17Z"/><path fill="#6E18E7" d="M191 156v3l-20 2-1 3v-7c2.75-.168 5.5-.335 8.25-.5l2.355-.145 2.286-.136 2.094-.127c2.003-.091 4.01-.092 6.015-.092Z"/><path fill="#7015F4" d="M151 64h3l-1 32h-2V64Z"/><path fill="#6F16F3" d="M113 172h2v24c-2.882.96-4.699 1.106-7.688 1.063l-2.449-.028L103 197v-1l3.375-.375c3.656-.272 3.656-.272 5.625-2.625.37-2.227.37-2.227.414-4.79l.117-2.85.094-2.985.117-3.008c.095-2.455.18-4.91.258-7.367Z"/><path fill="#6E18EB" d="M188 101h4l1 20-4-1-1-19Z"/><path fill="#7015F6" d="M75 64h2v16l13 1v2c-1.562.027-3.125.047-4.688.063l-2.636.035C80 83 80 83 75 82V64Z"/><path fill="#19063C" d="M110 158h1v36H92v-3l4 1 14 1v-35Z"/><path fill="#5E1BB6" d="M168 81h1v15h2l1-4c.076 3.964-.032 7.127-1 11h15v1c-2.813.027-5.625.047-8.438.063l-2.431.025c-2.044.009-4.088-.036-6.131-.088-1-1-1-1-1.114-3.133l.016-2.777.01-2.998.025-3.154.014-3.167c.012-2.59.028-5.18.049-7.771Z"/><path fill="#1A0E2C" d="M150 142h21v1h-17v2l3 1-1 2h-12v-2h7l-1-4Z"/><path fill="#6F16F5" d="M152 170h1l1 27h-3c-.029-4.312-.047-8.625-.063-12.938l-.025-3.732-.01-3.545-.016-3.285C151 171 151 171 152 170Z"/><path fill="#0D130A" d="M96 219v3l-24 1v-3c3.25-.168 6.5-.334 9.75-.5l2.79-.145 2.694-.136 2.476-.127c2.095-.084 4.193-.092 6.29-.092Z"/><path fill="#1B0D37" d="m147 118 3 1v23h-4l1-24Z"/><path fill="#6C1ADE" d="M112 66h1v30h2c1.125 4.75 1.125 4.75 0 7h-3V66Z"/><path fill="#7016EC" d="M96 138h16v3H96v-3Z"/><path fill="#7015F1" d="M170 81h21v2c-2.75.168-5.5.335-8.25.5l-2.355.145-2.286.136-2.094.127C174.012 84 172.005 84 170 84v-3Z"/><path fill="#6F17EC" d="M79 214h16v3H80l-1-3Z"/><path fill="#6C18E8" d="M37 156c2.125.14 4.25.288 6.375.438l3.586.246C50 157 50 157 52 158v2H37v-4Z"/><path fill="#1F1129" d="M231 118h2c.194 1.478.38 2.958.563 4.438l.316 2.496L234 127l-1 1c-.158 1.852-.251 3.71-.316 5.566l-.127 3.409-.12 3.588-.13 3.6c-.107 2.945-.209 5.89-.307 8.837h-1v-35Z"/><path fill="#6D19E8" d="M81 157h15v8l-1-3-3-1v-2H80l1-2Z"/><path fill="#0D1913" d="M162 125h4v11h-6v-3l2-1v-7Z"/><path fill="#6620CF" d="M93 118h19v1H96v2h-2v15h-1v-18Z"/><path fill="#0C180F" d="M166 201v16h-2v-12h-2v-3c2-1 2-1 4-1Z"/><path fill="#6F1AE8" d="M101 196c-.645.378-1.29.755-1.953 1.145-2.287 1.716-2.287 1.716-2.656 4.554l-.141 2.988-.172 3.012L96 210h-2l-1-13c2.928-.976 4.956-1.082 8-1Z"/><path fill="#6D17F1" d="M93 174h2v5H80v-2h12l1-3Z"/><path fill="#131008" d="m100 202 4 2-1 11-3 1v-14Z"/><path fill="#6D17F4" d="m152 137 13 2v2h-14l1-4Z"/><path fill="#7015F0" d="m71.125 138.438 2.758.308L76 139v4l-12-2v-2c2.623-1.312 4.23-.896 7.125-.563Z"/><path fill="#6B19E7" d="m154 194 11 1-1 3h-13l3-1v-3Z"/><path fill="#1C141E" d="M231 160h2c-1 3-1 3-4 5-2.268.135-2.268.135-4.887-.023l-2.842-.157-2.958-.195-2.995-.172c-2.44-.141-4.879-.293-7.318-.453v-1l1.896-.06c2.827-.095 5.653-.205 8.479-.315.985-.03 1.97-.062 2.984-.094l2.852-.117 2.634-.095c2.365-.131 2.365-.131 4.155-2.319Z"/><path fill="#681FD3" d="M150 121h1l1 13 1-9h1v12l-4 1v-17Z"/><path fill="#7214F6" d="M55 144h2v15h-3l1-15Z"/><path fill="#6C18EC" d="m208 156 16 1v2h-16v-3Z"/><path fill="#1A191E" d="M226 111v2h6v1c-5.361 1.129-10.553 1.097-16 1v-3c7.75-1 7.75-1 10-1Z"/><path fill="#6E18E4" d="M92 81h4v8l-3 1-1-9Z"/><path fill="#6B17EE" d="m151 121 1 2h2a485.352 485.352 0 0 1-.375 5.438c-.07 1.009-.14 2.018-.21 3.058-.138.826-.274 1.653-.415 2.504l-2 1v-14Z"/><path fill="#111B05" d="M162 95h3l1 9h-4v-9Z"/><path fill="#6B1BE6" d="M77 113v8H66v-1h10v-2h-2v-4c2-1 2-1 3-1Z"/><path fill="#11190B" d="m150 56-2 6h-4v-5c2.076-.553 3.844-1 6-1Z"/></svg>
