<?xml version="1.0" encoding="UTF-8"?>
<svg version="1.1" xmlns="http://www.w3.org/2000/svg" width="272" height="281">
<path d="M0 0 C89.76 0 179.52 0 272 0 C272 92.73 272 185.46 272 281 C182.24 281 92.48 281 0 281 C0 188.27 0 95.54 0 0 Z " fill="#141414" transform="translate(0,0)"/>
<path d="M0 0 C13.86 0 27.72 0 42 0 C43.58645357 3.17290713 43.12078213 6.58825384 43.09765625 10.0703125 C43.0962413 10.86654022 43.09482635 11.66276794 43.09336853 12.48312378 C43.08776345 15.0304538 43.07521014 17.57769647 43.0625 20.125 C43.05748565 21.85025915 43.05292263 23.57551967 43.04882812 25.30078125 C43.03864253 29.53391504 43.0190682 33.76685954 43 38 C53.89 38 64.78 38 76 38 C75.98839844 35.34066406 75.97679687 32.68132812 75.96484375 29.94140625 C75.95705348 27.37654744 75.95097655 24.81168993 75.94506836 22.24682617 C75.94002782 20.45905979 75.93319546 18.67129755 75.92456055 16.88354492 C75.9124827 14.31948832 75.90676906 11.75548603 75.90234375 9.19140625 C75.89718246 8.3872377 75.89202118 7.58306915 75.88670349 6.75453186 C75.88650785 4.83598285 75.93798017 2.91754632 76 1 C77 0 77 0 80.96899414 -0.11352539 C82.74105607 -0.1133662 84.5131226 -0.10766785 86.28515625 -0.09765625 C87.21597519 -0.0962413 88.14679413 -0.09482635 89.1058197 -0.09336853 C92.09141191 -0.08775172 95.07693029 -0.0751964 98.0625 -0.0625 C100.08137913 -0.05748716 102.10025943 -0.05292388 104.11914062 -0.04882812 C109.07947871 -0.03862587 114.0396563 -0.01905382 119 0 C119 7.92 119 15.84 119 24 C112.73 24 106.46 24 100 24 C100 28.62 100 33.24 100 38 C106.27 38 112.54 38 119 38 C119 44.27 119 50.54 119 57 C131.21 57 143.42 57 156 57 C157.68758835 60.37517669 157.14153358 64.19855599 157.1328125 67.91015625 C157.13376923 68.79279648 157.13472595 69.67543671 157.13571167 70.58482361 C157.13639269 72.45181347 157.13454385 74.31880569 157.13037109 76.18579102 C157.1250154 79.05425288 157.13032199 81.92255861 157.13671875 84.79101562 C157.13605808 86.60156285 157.13477715 88.41210997 157.1328125 90.22265625 C157.13483673 91.08617203 157.13686096 91.94968781 157.13894653 92.83937073 C157.11495439 98.88504561 157.11495439 98.88504561 156 100 C154.45044441 100.09899523 152.89646327 100.13079524 151.34375 100.1328125 C149.93416016 100.13474609 149.93416016 100.13474609 148.49609375 100.13671875 C147.01302734 100.13091797 147.01302734 100.13091797 145.5 100.125 C144.51128906 100.12886719 143.52257812 100.13273437 142.50390625 100.13671875 C141.56417969 100.13542969 140.62445313 100.13414062 139.65625 100.1328125 C138.78806641 100.13168457 137.91988281 100.13055664 137.02539062 100.12939453 C135 100 135 100 134 99 C133.91368126 97.65732587 133.89293527 96.31025678 133.90234375 94.96484375 C133.90556641 94.15595703 133.90878906 93.34707031 133.91210938 92.51367188 C133.92048828 91.66353516 133.92886719 90.81339844 133.9375 89.9375 C133.94201172 89.08349609 133.94652344 88.22949219 133.95117188 87.34960938 C133.96299627 85.23304337 133.98093231 83.11651315 134 81 C129.05 81 124.1 81 119 81 C119 87.27 119 93.54 119 100 C112.73 100 106.46 100 100 100 C100 104.62 100 109.24 100 114 C101.28777344 113.98839844 102.57554687 113.97679687 103.90234375 113.96484375 C105.58072772 113.9554673 107.25911326 113.94636695 108.9375 113.9375 C109.78763672 113.92912109 110.63777344 113.92074219 111.51367188 113.91210938 C112.32255859 113.90888672 113.13144531 113.90566406 113.96484375 113.90234375 C114.7137085 113.89710693 115.46257324 113.89187012 116.23413086 113.88647461 C118 114 118 114 119 115 C119.08874135 118.10251201 119.11518455 121.1826812 119.09765625 124.28515625 C119.09553383 125.68138466 119.09553383 125.68138466 119.09336853 127.1058197 C119.08775172 130.09141191 119.0751964 133.07693029 119.0625 136.0625 C119.05748716 138.08137913 119.05292388 140.10025943 119.04882812 142.11914062 C119.03862587 147.07947871 119.01905382 152.0396563 119 157 C111.08 157 103.16 157 95 157 C95 150.73 95 144.46 95 138 C89.12116997 138.03957769 89.12116997 138.03957769 83.24243164 138.09008789 C82.51403076 138.09258545 81.78562988 138.09508301 81.03515625 138.09765625 C80.2862915 138.10289307 79.53742676 138.10812988 78.76586914 138.11352539 C77 138 77 138 76 137 C75.91141354 134.26105915 75.88476521 131.5474673 75.90234375 128.80859375 C75.9037587 127.98875504 75.90517365 127.16891632 75.90663147 126.32423401 C75.91224711 123.69528618 75.92480221 121.06642227 75.9375 118.4375 C75.94251299 116.65950643 75.94707624 114.88151154 75.95117188 113.10351562 C75.96137248 108.73561842 75.98094468 104.3679036 76 100 C65.11 100 54.22 100 43 100 C43 112.54 43 125.08 43 138 C36.73 138 30.46 138 24 138 C24.03952149 143.5046882 24.03952149 143.5046882 24.09008789 149.00927734 C24.11111111 154.77777778 24.11111111 154.77777778 23 157 C15.74 157 8.48 157 1 157 C-0.68758835 153.62482331 -0.14153358 149.80144401 -0.1328125 146.08984375 C-0.13376923 145.20720352 -0.13472595 144.32456329 -0.13571167 143.41517639 C-0.13639269 141.54818653 -0.13454385 139.68119431 -0.13037109 137.81420898 C-0.1250154 134.94574712 -0.13032199 132.07744139 -0.13671875 129.20898438 C-0.13605808 127.39843715 -0.13477715 125.58789003 -0.1328125 123.77734375 C-0.13483673 122.91382797 -0.13686096 122.05031219 -0.13894653 121.16062927 C-0.11495439 115.11495439 -0.11495439 115.11495439 1 114 C2.34267413 113.91368126 3.68974322 113.89293527 5.03515625 113.90234375 C5.84404297 113.90556641 6.65292969 113.90878906 7.48632812 113.91210938 C8.33646484 113.92048828 9.18660156 113.92886719 10.0625 113.9375 C10.91650391 113.94201172 11.77050781 113.94652344 12.65039062 113.95117188 C14.76695663 113.96299627 16.88348685 113.98093231 19 114 C19 109.38 19 104.76 19 100 C17.71222656 100.01160156 16.42445312 100.02320313 15.09765625 100.03515625 C13.41927228 100.0445327 11.74088674 100.05363305 10.0625 100.0625 C8.78729492 100.07506836 8.78729492 100.07506836 7.48632812 100.08789062 C6.67744141 100.09111328 5.86855469 100.09433594 5.03515625 100.09765625 C4.2862915 100.10289307 3.53742676 100.10812988 2.76586914 100.11352539 C1 100 1 100 0 99 C-0.08631874 97.65732587 -0.10706473 96.31025678 -0.09765625 94.96484375 C-0.09443359 94.15595703 -0.09121094 93.34707031 -0.08789062 92.51367188 C-0.07532227 91.2384668 -0.07532227 91.2384668 -0.0625 89.9375 C-0.05798828 89.08349609 -0.05347656 88.22949219 -0.04882812 87.34960938 C-0.03700373 85.23304337 -0.01906769 83.11651315 0 81 C-4.62 81 -9.24 81 -14 81 C-13.98839844 82.28777344 -13.97679688 83.57554687 -13.96484375 84.90234375 C-13.9554673 86.58072772 -13.94636695 88.25911326 -13.9375 89.9375 C-13.92912109 90.78763672 -13.92074219 91.63777344 -13.91210938 92.51367188 C-13.90727539 93.72700195 -13.90727539 93.72700195 -13.90234375 94.96484375 C-13.89448853 96.08814087 -13.89448853 96.08814087 -13.88647461 97.23413086 C-14 99 -14 99 -15 100 C-16.62257544 100.0991657 -18.24939831 100.13079777 -19.875 100.1328125 C-20.85984375 100.13410156 -21.8446875 100.13539063 -22.859375 100.13671875 C-23.89578125 100.13285156 -24.9321875 100.12898438 -26 100.125 C-27.55460937 100.13080078 -27.55460937 100.13080078 -29.140625 100.13671875 C-30.12546875 100.13542969 -31.1103125 100.13414062 -32.125 100.1328125 C-33.03507812 100.13168457 -33.94515625 100.13055664 -34.8828125 100.12939453 C-37 100 -37 100 -38 99 C-38.101137 95.98191937 -38.13968909 92.98719487 -38.1328125 89.96875 C-38.13376923 89.06249878 -38.13472595 88.15624756 -38.13571167 87.22253418 C-38.13639353 85.30248953 -38.13453882 83.38244259 -38.13037109 81.46240234 C-38.12502292 78.51264296 -38.13031588 75.56303586 -38.13671875 72.61328125 C-38.13605797 70.75260383 -38.13477681 68.8919265 -38.1328125 67.03125 C-38.13483673 66.14272339 -38.13686096 65.25419678 -38.13894653 64.33874512 C-38.11494988 58.11494988 -38.11494988 58.11494988 -37 57 C-34.26105915 56.91141354 -31.5474673 56.88476521 -28.80859375 56.90234375 C-27.57883568 56.90446617 -27.57883568 56.90446617 -26.32423401 56.90663147 C-23.69528618 56.91224711 -21.06642227 56.92480221 -18.4375 56.9375 C-16.65950643 56.94251299 -14.88151154 56.94707624 -13.10351562 56.95117188 C-8.73561842 56.96137248 -4.3679036 56.98094468 0 57 C0 50.73 0 44.46 0 38 C6.27 38 12.54 38 19 38 C19 33.38 19 28.76 19 24 C12.73 24 6.46 24 0 24 C0 16.08 0 8.16 0 0 Z " fill="#131213" transform="translate(73,61)"/>
<path d="M0 0 C13.86 0 27.72 0 42 0 C43.58645357 3.17290713 43.12078213 6.58825384 43.09765625 10.0703125 C43.0962413 10.86654022 43.09482635 11.66276794 43.09336853 12.48312378 C43.08776345 15.0304538 43.07521014 17.57769647 43.0625 20.125 C43.05748565 21.85025915 43.05292263 23.57551967 43.04882812 25.30078125 C43.03864253 29.53391504 43.0190682 33.76685954 43 38 C53.89 38 64.78 38 76 38 C75.98839844 35.34066406 75.97679687 32.68132812 75.96484375 29.94140625 C75.95705348 27.37654744 75.95097655 24.81168993 75.94506836 22.24682617 C75.94002782 20.45905979 75.93319546 18.67129755 75.92456055 16.88354492 C75.9124827 14.31948832 75.90676906 11.75548603 75.90234375 9.19140625 C75.89718246 8.3872377 75.89202118 7.58306915 75.88670349 6.75453186 C75.88650785 4.83598285 75.93798017 2.91754632 76 1 C77 0 77 0 80.96899414 -0.11352539 C82.74105607 -0.1133662 84.5131226 -0.10766785 86.28515625 -0.09765625 C87.21597519 -0.0962413 88.14679413 -0.09482635 89.1058197 -0.09336853 C92.09141191 -0.08775172 95.07693029 -0.0751964 98.0625 -0.0625 C100.08137913 -0.05748716 102.10025943 -0.05292388 104.11914062 -0.04882812 C109.07947871 -0.03862587 114.0396563 -0.01905382 119 0 C119 7.92 119 15.84 119 24 C112.73 24 106.46 24 100 24 C100 28.62 100 33.24 100 38 C106.27 38 112.54 38 119 38 C119 44.27 119 50.54 119 57 C131.21 57 143.42 57 156 57 C157.68758835 60.37517669 157.14153358 64.19855599 157.1328125 67.91015625 C157.13376923 68.79279648 157.13472595 69.67543671 157.13571167 70.58482361 C157.13639269 72.45181347 157.13454385 74.31880569 157.13037109 76.18579102 C157.1250154 79.05425288 157.13032199 81.92255861 157.13671875 84.79101562 C157.13605808 86.60156285 157.13477715 88.41210997 157.1328125 90.22265625 C157.13483673 91.08617203 157.13686096 91.94968781 157.13894653 92.83937073 C157.11495439 98.88504561 157.11495439 98.88504561 156 100 C154.45044441 100.09899523 152.89646327 100.13079524 151.34375 100.1328125 C149.93416016 100.13474609 149.93416016 100.13474609 148.49609375 100.13671875 C147.01302734 100.13091797 147.01302734 100.13091797 145.5 100.125 C144.51128906 100.12886719 143.52257812 100.13273437 142.50390625 100.13671875 C141.56417969 100.13542969 140.62445313 100.13414062 139.65625 100.1328125 C138.78806641 100.13168457 137.91988281 100.13055664 137.02539062 100.12939453 C135 100 135 100 134 99 C133.91368126 97.65732587 133.89293527 96.31025678 133.90234375 94.96484375 C133.90556641 94.15595703 133.90878906 93.34707031 133.91210938 92.51367188 C133.92048828 91.66353516 133.92886719 90.81339844 133.9375 89.9375 C133.94201172 89.08349609 133.94652344 88.22949219 133.95117188 87.34960938 C133.96299627 85.23304337 133.98093231 83.11651315 134 81 C129.05 81 124.1 81 119 81 C119 87.27 119 93.54 119 100 C112.73 100 106.46 100 100 100 C100 104.62 100 109.24 100 114 C101.28777344 113.98839844 102.57554687 113.97679687 103.90234375 113.96484375 C105.58072772 113.9554673 107.25911326 113.94636695 108.9375 113.9375 C109.78763672 113.92912109 110.63777344 113.92074219 111.51367188 113.91210938 C112.32255859 113.90888672 113.13144531 113.90566406 113.96484375 113.90234375 C114.7137085 113.89710693 115.46257324 113.89187012 116.23413086 113.88647461 C118 114 118 114 119 115 C119.08874135 118.10251201 119.11518455 121.1826812 119.09765625 124.28515625 C119.09553383 125.68138466 119.09553383 125.68138466 119.09336853 127.1058197 C119.08775172 130.09141191 119.0751964 133.07693029 119.0625 136.0625 C119.05748716 138.08137913 119.05292388 140.10025943 119.04882812 142.11914062 C119.03862587 147.07947871 119.01905382 152.0396563 119 157 C111.08 157 103.16 157 95 157 C95 150.73 95 144.46 95 138 C89.12116997 138.03957769 89.12116997 138.03957769 83.24243164 138.09008789 C82.51403076 138.09258545 81.78562988 138.09508301 81.03515625 138.09765625 C80.2862915 138.10289307 79.53742676 138.10812988 78.76586914 138.11352539 C77 138 77 138 76 137 C75.91141354 134.26105915 75.88476521 131.5474673 75.90234375 128.80859375 C75.9037587 127.98875504 75.90517365 127.16891632 75.90663147 126.32423401 C75.91224711 123.69528618 75.92480221 121.06642227 75.9375 118.4375 C75.94251299 116.65950643 75.94707624 114.88151154 75.95117188 113.10351562 C75.96137248 108.73561842 75.98094468 104.3679036 76 100 C65.11 100 54.22 100 43 100 C43 112.54 43 125.08 43 138 C36.73 138 30.46 138 24 138 C24.03952149 143.5046882 24.03952149 143.5046882 24.09008789 149.00927734 C24.11111111 154.77777778 24.11111111 154.77777778 23 157 C15.74 157 8.48 157 1 157 C-0.68758835 153.62482331 -0.14153358 149.80144401 -0.1328125 146.08984375 C-0.13376923 145.20720352 -0.13472595 144.32456329 -0.13571167 143.41517639 C-0.13639269 141.54818653 -0.13454385 139.68119431 -0.13037109 137.81420898 C-0.1250154 134.94574712 -0.13032199 132.07744139 -0.13671875 129.20898438 C-0.13605808 127.39843715 -0.13477715 125.58789003 -0.1328125 123.77734375 C-0.13483673 122.91382797 -0.13686096 122.05031219 -0.13894653 121.16062927 C-0.11495439 115.11495439 -0.11495439 115.11495439 1 114 C2.34267413 113.91368126 3.68974322 113.89293527 5.03515625 113.90234375 C5.84404297 113.90556641 6.65292969 113.90878906 7.48632812 113.91210938 C8.33646484 113.92048828 9.18660156 113.92886719 10.0625 113.9375 C10.91650391 113.94201172 11.77050781 113.94652344 12.65039062 113.95117188 C14.76695663 113.96299627 16.88348685 113.98093231 19 114 C19 109.38 19 104.76 19 100 C17.71222656 100.01160156 16.42445312 100.02320313 15.09765625 100.03515625 C13.41927228 100.0445327 11.74088674 100.05363305 10.0625 100.0625 C8.78729492 100.07506836 8.78729492 100.07506836 7.48632812 100.08789062 C6.67744141 100.09111328 5.86855469 100.09433594 5.03515625 100.09765625 C4.2862915 100.10289307 3.53742676 100.10812988 2.76586914 100.11352539 C1 100 1 100 0 99 C-0.08631874 97.65732587 -0.10706473 96.31025678 -0.09765625 94.96484375 C-0.09443359 94.15595703 -0.09121094 93.34707031 -0.08789062 92.51367188 C-0.07532227 91.2384668 -0.07532227 91.2384668 -0.0625 89.9375 C-0.05798828 89.08349609 -0.05347656 88.22949219 -0.04882812 87.34960938 C-0.03700373 85.23304337 -0.01906769 83.11651315 0 81 C-4.62 81 -9.24 81 -14 81 C-13.98839844 82.28777344 -13.97679688 83.57554687 -13.96484375 84.90234375 C-13.9554673 86.58072772 -13.94636695 88.25911326 -13.9375 89.9375 C-13.92912109 90.78763672 -13.92074219 91.63777344 -13.91210938 92.51367188 C-13.90727539 93.72700195 -13.90727539 93.72700195 -13.90234375 94.96484375 C-13.89448853 96.08814087 -13.89448853 96.08814087 -13.88647461 97.23413086 C-14 99 -14 99 -15 100 C-16.62257544 100.0991657 -18.24939831 100.13079777 -19.875 100.1328125 C-20.85984375 100.13410156 -21.8446875 100.13539063 -22.859375 100.13671875 C-23.89578125 100.13285156 -24.9321875 100.12898438 -26 100.125 C-27.55460937 100.13080078 -27.55460937 100.13080078 -29.140625 100.13671875 C-30.12546875 100.13542969 -31.1103125 100.13414062 -32.125 100.1328125 C-33.03507812 100.13168457 -33.94515625 100.13055664 -34.8828125 100.12939453 C-37 100 -37 100 -38 99 C-38.101137 95.98191937 -38.13968909 92.98719487 -38.1328125 89.96875 C-38.13376923 89.06249878 -38.13472595 88.15624756 -38.13571167 87.22253418 C-38.13639353 85.30248953 -38.13453882 83.38244259 -38.13037109 81.46240234 C-38.12502292 78.51264296 -38.13031588 75.56303586 -38.13671875 72.61328125 C-38.13605797 70.75260383 -38.13477681 68.8919265 -38.1328125 67.03125 C-38.13483673 66.14272339 -38.13686096 65.25419678 -38.13894653 64.33874512 C-38.11494988 58.11494988 -38.11494988 58.11494988 -37 57 C-34.26105915 56.91141354 -31.5474673 56.88476521 -28.80859375 56.90234375 C-27.57883568 56.90446617 -27.57883568 56.90446617 -26.32423401 56.90663147 C-23.69528618 56.91224711 -21.06642227 56.92480221 -18.4375 56.9375 C-16.65950643 56.94251299 -14.88151154 56.94707624 -13.10351562 56.95117188 C-8.73561842 56.96137248 -4.3679036 56.98094468 0 57 C0 50.73 0 44.46 0 38 C6.27 38 12.54 38 19 38 C19 33.38 19 28.76 19 24 C12.73 24 6.46 24 0 24 C0 16.08 0 8.16 0 0 Z M5 5 C5 9.62 5 14.24 5 19 C10.94 19.33 16.88 19.66 23 20 C23 27.59 23 35.18 23 43 C17.06 43 11.12 43 5 43 C4.67 48.94 4.34 54.88 4 61 C-8.21 61.33 -20.42 61.66 -33 62 C-33 72.89 -33 83.78 -33 95 C-28.38 95 -23.76 95 -19 95 C-18.505 86.09 -18.505 86.09 -18 77 C-10.41 76.67 -2.82 76.34 5 76 C5 82.27 5 88.54 5 95 C10.94 95 16.88 95 23 95 C23 102.59 23 110.18 23 118 C17.06 118.33 11.12 118.66 5 119 C5 129.89 5 140.78 5 152 C9.62 152 14.24 152 19 152 C19 145.73 19 139.46 19 133 C25.27 133 31.54 133 38 133 C38.33 120.79 38.66 108.58 39 96 C52.86 96 66.72 96 81 96 C81 108.21 81 120.42 81 133 C86.94 133.33 92.88 133.66 99 134 C99.33 139.94 99.66 145.88 100 152 C104.62 152 109.24 152 114 152 C114 141.11 114 130.22 114 119 C108.06 119 102.12 119 96 119 C96 111.41 96 103.82 96 96 C101.94 95.67 107.88 95.34 114 95 C114.33 89.06 114.66 83.12 115 77 C126.385 76.505 126.385 76.505 138 76 C138 82.27 138 88.54 138 95 C142.95 95 147.9 95 153 95 C153 84.11 153 73.22 153 62 C140.46 62 127.92 62 115 62 C114.67 55.73 114.34 49.46 114 43 C108.06 42.67 102.12 42.34 96 42 C96 34.74 96 27.48 96 20 C101.94 19.67 107.88 19.34 114 19 C114 14.38 114 9.76 114 5 C103.11 5 92.22 5 81 5 C81 17.54 81 30.08 81 43 C66.81 43 52.62 43 38 43 C38 30.46 38 17.92 38 5 C27.11 5 16.22 5 5 5 Z " fill="#631FC8" transform="translate(73,61)"/>
<path d="M0 0 C10.89 0 21.78 0 33 0 C33 4.62 33 9.24 33 14 C27.06 14.33 21.12 14.66 15 15 C15 22.26 15 29.52 15 37 C20.94 37.33 26.88 37.66 33 38 C33.495 47.405 33.495 47.405 34 57 C46.54 57 59.08 57 72 57 C72 67.89 72 78.78 72 90 C67.05 90 62.1 90 57 90 C57 83.73 57 77.46 57 71 C45.615 71.495 45.615 71.495 34 72 C33.67 77.94 33.34 83.88 33 90 C27.06 90.33 21.12 90.66 15 91 C15 98.59 15 106.18 15 114 C20.94 114 26.88 114 33 114 C33 124.89 33 135.78 33 147 C28.38 147 23.76 147 19 147 C18.505 138.09 18.505 138.09 18 129 C12.06 128.67 6.12 128.34 0 128 C0 115.79 0 103.58 0 91 C-0.99 90.505 -0.99 90.505 -2 90 C-0.35 90 1.3 90 3 90 C3.33 91.32 3.66 92.64 4 94 C3.34 94 2.68 94 2 94 C2.33 95.32 2.66 96.64 3 98 C3.33 97.34 3.66 96.68 4 96 C4.66 96 5.32 96 6 96 C6 93.36 6 90.72 6 88 C4.68 88 3.36 88 2 88 C2.495 86.02 2.495 86.02 3 84 C0.43106162 82.71553081 -1.76576337 82.67022856 -4.625 82.4375 C-6.12933594 82.31181641 -6.12933594 82.31181641 -7.6640625 82.18359375 C-8.43492187 82.12300781 -9.20578125 82.06242187 -10 82 C-10 81.34 -10 80.68 -10 80 C-7.69 80 -5.38 80 -3 80 C-3.33 78.68 -3.66 77.36 -4 76 C3.59 76 11.18 76 19 76 C18.505 63.625 18.505 63.625 18 51 C13.05 51 8.1 51 3 51 C3.33 48.69 3.66 46.38 4 44 C2.68 44 1.36 44 0 44 C0 43.34 0 42.68 0 42 C-0.99 42 -1.98 42 -3 42 C-3 41.34 -3 40.68 -3 40 C-22.305 39.505 -22.305 39.505 -42 39 C-42 38.67 -42 38.34 -42 38 C-28.14 38 -14.28 38 0 38 C0 25.46 0 12.92 0 0 Z " fill="#17121C" transform="translate(154,66)"/>
<path d="M0 0 C10.89 0 21.78 0 33 0 C33 11.88 33 23.76 33 36 C32.67 36 32.34 36 32 36 C32 24.45 32 12.9 32 1 C21.77 1 11.54 1 1 1 C1 4.96 1 8.92 1 13 C7.27 13 13.54 13 20 13 C20 14.65 20 16.3 20 18 C20.66 18 21.32 18 22 18 C21.979375 17.195625 21.95875 16.39125 21.9375 15.5625 C22 13 22 13 23 12 C23.36760731 9.67182036 23.70241581 7.3381615 24 5 C23.34 4.67 22.68 4.34 22 4 C23.65 4 25.3 4 27 4 C27.2165625 5.11375 27.2165625 5.11375 27.4375 6.25 C27.75864569 7.82004558 28.10536102 9.3864865 28.52685547 10.93261719 C29.30506593 14.33297124 29.14310455 17.77996217 29.125 21.25 C29.12886719 21.97574219 29.13273437 22.70148438 29.13671875 23.44921875 C29.12792814 28.38074827 28.69589371 33.11769806 28 38 C27.67 38 27.34 38 27 38 C27 36.35 27 34.7 27 33 C26.01 33 25.02 33 24 33 C23.67 32.34 23.34 31.68 23 31 C22.67 33.31 22.34 35.62 22 38 C19.23434618 38.92188461 17.61716298 39.11785222 14.76953125 39.09765625 C13.96708984 39.09443359 13.16464844 39.09121094 12.33789062 39.08789062 C11.50451172 39.07951172 10.67113281 39.07113281 9.8125 39.0625 C8.96751953 39.05798828 8.12253906 39.05347656 7.25195312 39.04882812 C5.16793845 39.03705403 3.08396023 39.0191189 1 39 C1 40.65 1 42.3 1 44 C1.99 44.495 1.99 44.495 3 45 C3.35412344 46.32796291 3.68521554 47.66216607 4 49 C4.66 49.99 5.32 50.98 6 52 C6.1953125 54.48046875 6.1953125 54.48046875 6.125 57.1875 C6.10695312 58.08855469 6.08890625 58.98960938 6.0703125 59.91796875 C6.04710937 60.60503906 6.02390625 61.29210937 6 62 C5.34 62 4.68 62 4 62 C3.505 58.535 3.505 58.535 3 55 C2.62875 55.66 2.2575 56.32 1.875 57 C0 59 0 59 -3.1875 59.25 C-4.115625 59.1675 -5.04375 59.085 -6 59 C-6.33 60.32 -6.66 61.64 -7 63 C-6.34 63.33 -5.68 63.66 -5 64 C-5 65.32 -5 66.64 -5 68 C-3.68 68.33 -2.36 68.66 -1 69 C-1 69.66 -1 70.32 -1 71 C-8.26 71.33 -15.52 71.66 -23 72 C-23.33 77.94 -23.66 83.88 -24 90 C-28.62 90 -33.24 90 -38 90 C-38 79.11 -38 68.22 -38 57 C-25.79 56.67 -13.58 56.34 -1 56 C-0.67 50.06 -0.34 44.12 0 38 C5.94 38 11.88 38 18 38 C18 30.41 18 22.82 18 15 C12.06 14.67 6.12 14.34 0 14 C0 9.38 0 4.76 0 0 Z " fill="#190B2B" transform="translate(78,66)"/>
<path d="M0 0 C10.23 0 20.46 0 31 0 C31 3.96 31 7.92 31 12 C25.06 12.33 19.12 12.66 13 13 C12.80626811 16.97895494 12.61971494 20.95801577 12.4375 24.9375 C12.38142578 26.07380859 12.32535156 27.21011719 12.26757812 28.38085938 C12.21923828 29.46044922 12.17089844 30.54003906 12.12109375 31.65234375 C12.0739624 32.65257568 12.02683105 33.65280762 11.97827148 34.68334961 C11.72917875 36.96266002 11.72917875 36.96266002 13 38 C14.34747084 38.23075082 15.70377565 38.41153063 17.0625 38.5625 C18.361875 38.706875 19.66125 38.85125 21 39 C21 39.99 21 40.98 21 42 C20.01 42 19.02 42 18 42 C17.67 42.99 17.34 43.98 17 45 C16.34 45 15.68 45 15 45 C15 45.99 15 46.98 15 48 C16.98 48 18.96 48 21 48 C21 48.99 21 49.98 21 51 C14.73 50.67 8.46 50.34 2 50 C2.33 47.69 2.66 45.38 3 43 C3.66 43 4.32 43 5 43 C5 42.01 5 41.02 5 40 C2.69 40 0.38 40 -2 40 C-1.34 39.01 -0.68 38.02 0 37 C0.17193073 34.17016801 0.23208437 31.44118127 0.1953125 28.61328125 C0.1924826 27.79627243 0.18965271 26.97926361 0.18673706 26.13749695 C0.17554541 23.52901541 0.1504429 20.9208777 0.125 18.3125 C0.11496888 16.54362475 0.10584326 14.77474412 0.09765625 13.00585938 C0.07731122 8.670334 0.03816134 4.3355517 0 0 Z " fill="#161614" transform="translate(155,67)"/>
<path d="M0 0 C1.77206192 0.00015919 3.54412846 0.00585754 5.31616211 0.01586914 C6.24698105 0.01728409 7.17779999 0.01869904 8.13682556 0.02015686 C11.12241777 0.02577367 14.10793615 0.03832899 17.09350586 0.05102539 C19.11238499 0.05603823 21.13126529 0.06060151 23.15014648 0.06469727 C28.11048456 0.07489952 33.07066216 0.09447157 38.03100586 0.11352539 C38.03100586 8.03352539 38.03100586 15.95352539 38.03100586 24.11352539 C31.76100586 24.11352539 25.49100586 24.11352539 19.03100586 24.11352539 C19.36100586 23.45352539 19.69100586 22.79352539 20.03100586 22.11352539 C25.64100586 22.11352539 31.25100586 22.11352539 37.03100586 22.11352539 C37.03100586 15.51352539 37.03100586 8.91352539 37.03100586 2.11352539 C25.64600586 2.60852539 25.64600586 2.60852539 14.03100586 3.11352539 C20.30100586 3.44352539 26.57100586 3.77352539 33.03100586 4.11352539 C33.03100586 4.44352539 33.03100586 4.77352539 33.03100586 5.11352539 C22.14100586 5.11352539 11.25100586 5.11352539 0.03100586 5.11352539 C0.03100586 17.65352539 0.03100586 30.19352539 0.03100586 43.11352539 C-14.15899414 43.11352539 -28.34899414 43.11352539 -42.96899414 43.11352539 C-42.96899414 30.57352539 -42.96899414 18.03352539 -42.96899414 5.11352539 C-42.63899414 5.11352539 -42.30899414 5.11352539 -41.96899414 5.11352539 C-41.96899414 17.32352539 -41.96899414 29.53352539 -41.96899414 42.11352539 C-40.97899414 42.11352539 -39.98899414 42.11352539 -38.96899414 42.11352539 C-38.63899414 40.79352539 -38.30899414 39.47352539 -37.96899414 38.11352539 C-27.07899414 38.11352539 -16.18899414 38.11352539 -4.96899414 38.11352539 C-4.9805957 35.45418945 -4.99219727 32.79485352 -5.00415039 30.05493164 C-5.01194066 27.49007283 -5.01801759 24.92521532 -5.02392578 22.36035156 C-5.02896632 20.57258518 -5.03579868 18.78482295 -5.04443359 16.99707031 C-5.05651144 14.43301371 -5.06222508 11.86901142 -5.06665039 9.30493164 C-5.07181168 8.50076309 -5.07697296 7.69659454 -5.08229065 6.86805725 C-5.08248629 4.94950824 -5.03101397 3.03107171 -4.96899414 1.11352539 C-3.96899414 0.11352539 -3.96899414 0.11352539 0 0 Z " fill="#5F1FC0" transform="translate(153.968994140625,60.886474609375)"/>
<path d="M0 0 C11.88 0.33 23.76 0.66 36 1 C37.125 10 37.125 10 37.09765625 14.59375 C37.09443359 15.56054688 37.09121094 16.52734375 37.08789062 17.5234375 C37.07532227 18.99683594 37.07532227 18.99683594 37.0625 20.5 C37.05798828 21.51320312 37.05347656 22.52640625 37.04882812 23.5703125 C37.0371461 26.04690093 37.01921455 28.52345856 37 31 C33.37 31 29.74 31 26 31 C25.67 25.06 25.34 19.12 25 13 C21.79012584 12.19753146 19.66366478 11.88065091 16.453125 11.90234375 C15.60878906 11.90556641 14.76445312 11.90878906 13.89453125 11.91210938 C13.02183594 11.92048828 12.14914063 11.92886719 11.25 11.9375 C10.36183594 11.94201172 9.47367188 11.94652344 8.55859375 11.95117188 C6.37232671 11.962926 4.18619821 11.97935751 2 12 C2.0928125 10.824375 2.0928125 10.824375 2.1875 9.625 C2.125625 8.75875 2.06375 7.8925 2 7 C1.01 6.34 0.02 5.68 -1 5 C0 4 0 4 2.5625 3.9375 C3.7690625 3.9684375 3.7690625 3.9684375 5 4 C5 3.34 5 2.68 5 2 C3.35 2 1.7 2 0 2 C0 1.34 0 0.68 0 0 Z " fill="#171618" transform="translate(187,124)"/>
<path d="M0 0 C0.91644287 0.00523682 1.83288574 0.01047363 2.77709961 0.01586914 C3.76645508 0.0190918 4.75581055 0.02231445 5.77514648 0.02563477 C6.81606445 0.03401367 7.85698242 0.04239258 8.92944336 0.05102539 C10.49662109 0.05779297 10.49662109 0.05779297 12.09545898 0.06469727 C14.68600996 0.07652627 17.27644895 0.0930085 19.86694336 0.11352539 C21.11942838 2.61849543 20.98068742 4.32205813 20.96459961 7.12133789 C20.96137695 8.1074707 20.9581543 9.09360352 20.95483398 10.10961914 C20.94645508 11.1421582 20.93807617 12.17469727 20.92944336 13.23852539 C20.92493164 14.27879883 20.92041992 15.31907227 20.91577148 16.39086914 C20.90396288 18.96514501 20.88749411 21.53930685 20.86694336 24.11352539 C17.0544591 24.14239775 13.24200266 24.16028031 9.42944336 24.17602539 C8.34083008 24.1844043 7.2522168 24.1927832 6.13061523 24.20141602 C5.09614258 24.20463867 4.06166992 24.20786133 2.99584961 24.21118164 C2.03751221 24.21641846 1.0791748 24.22165527 0.09179688 24.22705078 C-2.13305664 24.11352539 -2.13305664 24.11352539 -3.13305664 23.11352539 C-3.23222234 21.49094995 -3.26385441 19.86412708 -3.26586914 18.23852539 C-3.2671582 17.25368164 -3.26844727 16.26883789 -3.26977539 15.25415039 C-3.2659082 14.21774414 -3.26204102 13.18133789 -3.25805664 12.11352539 C-3.26385742 10.55891602 -3.26385742 10.55891602 -3.26977539 8.97290039 C-3.26848633 7.98805664 -3.26719727 7.00321289 -3.26586914 5.98852539 C-3.26474121 5.07844727 -3.26361328 4.16836914 -3.26245117 3.23071289 C-3.08674949 0.35583559 -2.87769607 0.15315654 0 0 Z " fill="#651FCD" transform="translate(152.133056640625,117.886474609375)"/>
<path d="M0 0 C3.08325358 -0.0582253 6.16636505 -0.09367134 9.25 -0.125 C10.55904297 -0.15013672 10.55904297 -0.15013672 11.89453125 -0.17578125 C12.73886719 -0.18222656 13.58320312 -0.18867187 14.453125 -0.1953125 C15.22817383 -0.20578613 16.00322266 -0.21625977 16.80175781 -0.22705078 C19.25883539 0.02673444 20.87311542 0.77555848 23 2 C23.02887814 5.47914941 23.04675687 8.95826831 23.0625 12.4375 C23.07087891 13.43072266 23.07925781 14.42394531 23.08789062 15.44726562 C23.09272461 16.86362305 23.09272461 16.86362305 23.09765625 18.30859375 C23.10551147 19.62041626 23.10551147 19.62041626 23.11352539 20.95874023 C23 23 23 23 22 24 C20.37742456 24.0991657 18.75060169 24.13079777 17.125 24.1328125 C16.14015625 24.13410156 15.1553125 24.13539063 14.140625 24.13671875 C13.10421875 24.13285156 12.0678125 24.12898438 11 24.125 C9.44539063 24.13080078 9.44539063 24.13080078 7.859375 24.13671875 C6.87453125 24.13542969 5.8896875 24.13414062 4.875 24.1328125 C3.96492188 24.13168457 3.05484375 24.13055664 2.1171875 24.12939453 C0 24 0 24 -1 23 C-1.09902107 21.46218409 -1.13079567 19.91990556 -1.1328125 18.37890625 C-1.13410156 17.44369141 -1.13539062 16.50847656 -1.13671875 15.54492188 C-1.13285156 14.56072266 -1.12898438 13.57652344 -1.125 12.5625 C-1.12886719 11.58216797 -1.13273437 10.60183594 -1.13671875 9.59179688 C-1.13542969 8.65529297 -1.13414063 7.71878906 -1.1328125 6.75390625 C-1.13168457 5.89095947 -1.13055664 5.0280127 -1.12939453 4.13891602 C-1 2 -1 2 0 0 Z " fill="#5D20BE" transform="translate(93,118)"/>
<path d="M0 0 C10.89 0 21.78 0 33 0 C33 4.62 33 9.24 33 14 C27.06 14.33 21.12 14.66 15 15 C15 22.26 15 29.52 15 37 C20.94 37.33 26.88 37.66 33 38 C33.495 47.405 33.495 47.405 34 57 C46.54 57 59.08 57 72 57 C72 67.89 72 78.78 72 90 C67.05 90 62.1 90 57 90 C57 83.73 57 77.46 57 71 C49.08 71.33 41.16 71.66 33 72 C33 71.34 33 70.68 33 70 C36.95756644 69.77484499 40.91597588 69.57272652 44.875 69.375 C46.00292969 69.31054688 47.13085938 69.24609375 48.29296875 69.1796875 C49.36933594 69.128125 50.44570312 69.0765625 51.5546875 69.0234375 C52.54968262 68.97106934 53.54467773 68.91870117 54.56982422 68.86474609 C57 69 57 69 59 71 C59.22705078 72.87939453 59.22705078 72.87939453 59.1953125 75.1328125 C59.18886719 75.93847656 59.18242187 76.74414062 59.17578125 77.57421875 C59.15064453 78.83685547 59.15064453 78.83685547 59.125 80.125 C59.11597656 80.97449219 59.10695313 81.82398438 59.09765625 82.69921875 C59.07405647 84.79959884 59.03818483 86.89983444 59 89 C62.63 89 66.26 89 70 89 C69.67 79.1 69.34 69.2 69 59 C57.45 59 45.9 59 34 59 C33.67 58.01 33.34 57.02 33 56 C32.34 56 31.68 56 31 56 C31 50.72 31 45.44 31 40 C28.69 40 26.38 40 24 40 C23.67 42.31 23.34 44.62 23 47 C21.515 47.495 21.515 47.495 20 48 C20 48.66 20 49.32 20 50 C18.02 50 16.04 50 14 50 C14.66 49.67 15.32 49.34 16 49 C16 48.01 16 47.02 16 46 C17.3125 44.3125 17.3125 44.3125 19 43 C19.99 43 20.98 43 22 43 C22 42.01 22 41.02 22 40 C20.72125 40.04125 19.4425 40.0825 18.125 40.125 C15.9453125 40.1953125 15.9453125 40.1953125 14 40 C12 38 12 38 11.84887695 35.58569336 C11.89488037 34.59706299 11.94088379 33.60843262 11.98828125 32.58984375 C12.03533203 31.51798828 12.08238281 30.44613281 12.13085938 29.34179688 C12.19080078 28.21837891 12.25074219 27.09496094 12.3125 25.9375 C12.36083984 24.81021484 12.40917969 23.68292969 12.45898438 22.52148438 C12.85750336 14.14249664 12.85750336 14.14249664 14 13 C15.34267413 12.91368126 16.68974322 12.89293527 18.03515625 12.90234375 C18.84404297 12.90556641 19.65292969 12.90878906 20.48632812 12.91210938 C21.33646484 12.92048828 22.18660156 12.92886719 23.0625 12.9375 C23.91650391 12.94201172 24.77050781 12.94652344 25.65039062 12.95117188 C27.76695663 12.96299627 29.88348685 12.98093231 32 13 C32 9.04 32 5.08 32 1 C21.77 1 11.54 1 1 1 C1.09539062 3.64773437 1.19078125 6.29546875 1.2890625 9.0234375 C1.37421164 11.58163392 1.4558328 14.13992016 1.53710938 16.69824219 C1.59558966 18.4792918 1.65775006 20.26022447 1.72363281 22.04101562 C1.81757713 24.59743968 1.89837558 27.15398912 1.9765625 29.7109375 C2.00875885 30.50994476 2.0409552 31.30895203 2.0741272 32.13217163 C2.12738475 34.08754535 2.07296352 36.04526241 2 38 C1.34 38.66 0.68 39.32 0 40 C2.97 40.495 2.97 40.495 6 41 C6 41.99 6 42.98 6 44 C4.02 44 2.04 44 0 44 C0 43.34 0 42.68 0 42 C-0.99 42 -1.98 42 -3 42 C-3 41.34 -3 40.68 -3 40 C-22.305 39.505 -22.305 39.505 -42 39 C-42 38.67 -42 38.34 -42 38 C-28.14 38 -14.28 38 0 38 C0 25.46 0 12.92 0 0 Z " fill="#280A4C" transform="translate(154,66)"/>
<path d="M0 0 C0.66 0 1.32 0 2 0 C2.02892857 3.95831809 2.04677427 7.91660917 2.0625 11.875 C2.07087891 13.00292969 2.07925781 14.13085938 2.08789062 15.29296875 C2.09111328 16.36933594 2.09433594 17.44570312 2.09765625 18.5546875 C2.10289307 19.54968262 2.10812988 20.54467773 2.11352539 21.56982422 C2 24 2 24 1 26 C-4.61 26 -10.22 26 -16 26 C-15.98839844 27.27617187 -15.97679688 28.55234375 -15.96484375 29.8671875 C-15.95546583 31.53645687 -15.94636563 33.20572783 -15.9375 34.875 C-15.92912109 35.71675781 -15.92074219 36.55851562 -15.91210938 37.42578125 C-15.90727539 38.63427734 -15.90727539 38.63427734 -15.90234375 39.8671875 C-15.89448853 40.98262939 -15.89448853 40.98262939 -15.88647461 42.12060547 C-16 44 -16 44 -17 46 C-24.26 46 -31.52 46 -39 46 C-39.02294724 40.64309433 -39.04286325 35.286359 -39.05493164 29.92944336 C-39.0599624 28.10684634 -39.06678769 26.28425335 -39.07543945 24.46166992 C-39.08755997 21.84292606 -39.09324086 19.22423553 -39.09765625 16.60546875 C-39.10281754 15.78974899 -39.10797882 14.97402924 -39.11329651 14.1335907 C-39.1136246 10.82986071 -39.05225621 8.15676862 -38 5 C-37.01 5 -36.02 5 -35 5 C-35 16.88 -35 28.76 -35 41 C-30.38 41 -25.76 41 -21 41 C-21 34.73 -21 28.46 -21 22 C-11.1 21.505 -11.1 21.505 -1 21 C-0.67 14.07 -0.34 7.14 0 0 Z " fill="#651DD3" transform="translate(113,172)"/>
<path d="M0 0 C8.91 0 17.82 0 27 0 C27.33 0.66 27.66 1.32 28 2 C24.62902617 3.49821059 22.79557881 4 19 4 C18.67 4.66 18.34 5.32 18 6 C18.598125 6.144375 19.19625 6.28875 19.8125 6.4375 C21.56150404 6.8872439 23.28677023 7.42892341 25 8 C25.33 8.99 25.66 9.98 26 11 C22.79984144 12.06671952 21.11455706 11.94845472 17.8125 11.5625 C16.91144531 11.46066406 16.01039062 11.35882813 15.08203125 11.25390625 C14.39496094 11.17011719 13.70789062 11.08632812 13 11 C11.14361868 14.92305584 10.82845155 17.87198425 11 22.1875 C11.125 25.35546875 11.125 25.35546875 11 28 C9 30 9 30 7.0546875 30.1953125 C5.03645833 30.13020833 3.01822917 30.06510417 1 30 C1 28.02 1 26.04 1 24 C3.31 24 5.62 24 8 24 C8 23.34 8 22.68 8 22 C5.36 22 2.72 22 0 22 C0 14.74 0 7.48 0 0 Z " fill="#0F1210" transform="translate(41,124)"/>
<path d="M0 0 C6.24795675 -0.02527124 12.49590041 -0.04283344 18.74389648 -0.05493164 C20.87118014 -0.05997298 22.99846031 -0.06680591 25.12573242 -0.07543945 C28.17627826 -0.08751379 31.22677845 -0.09323014 34.27734375 -0.09765625 C35.71327126 -0.10539818 35.71327126 -0.10539818 37.1782074 -0.11329651 C38.49946373 -0.11340981 38.49946373 -0.11340981 39.84741211 -0.11352539 C40.62684677 -0.115746 41.40628143 -0.11796661 42.20933533 -0.12025452 C44 0 44 0 45 1 C45.16010481 3.73701178 45.25946828 6.4516759 45.31640625 9.19140625 C45.33718735 10.01124496 45.35796844 10.83108368 45.37937927 11.67576599 C45.44496494 14.30458901 45.50380126 16.93351504 45.5625 19.5625 C45.60567667 21.34050561 45.64929067 23.11850065 45.69335938 24.89648438 C45.80148171 29.26421872 45.90048728 33.63202691 46 38 C60.85 38.495 60.85 38.495 76 39 C76 26.46 76 13.92 76 1 C79.06729827 0.23317543 81.0648549 -0.12592696 84.11010742 -0.12939453 C85.30605782 -0.13412277 85.30605782 -0.13412277 86.52616882 -0.13894653 C87.80292229 -0.13591019 87.80292229 -0.13591019 89.10546875 -0.1328125 C89.98527908 -0.13376923 90.86508942 -0.13472595 91.77156067 -0.13571167 C93.62659782 -0.13639102 95.48163737 -0.13455381 97.33666992 -0.13037109 C100.18739089 -0.12500021 103.03795568 -0.13033417 105.88867188 -0.13671875 C107.69010452 -0.1360583 109.49153706 -0.13477783 111.29296875 -0.1328125 C112.57883125 -0.13584885 112.57883125 -0.13584885 113.89067078 -0.13894653 C119.88503691 -0.11496309 119.88503691 -0.11496309 121 1 C121.08726223 2.78071246 121.10699041 4.5648314 121.09765625 6.34765625 C121.09282227 7.96704102 121.09282227 7.96704102 121.08789062 9.61914062 C121.07532227 11.32360352 121.07532227 11.32360352 121.0625 13.0625 C121.05798828 14.20267578 121.05347656 15.34285156 121.04882812 16.51757812 C121.03699747 19.34510351 121.0205141 22.1725264 121 25 C120.67 25 120.34 25 120 25 C120 17.41 120 9.82 120 2 C106.14 2.33 92.28 2.66 78 3 C77.67 15.21 77.34 27.42 77 40 C66.11 40 55.22 40 44 40 C43.67 27.46 43.34 14.92 43 2 C29.14 2 15.28 2 1 2 C1 9.92 1 17.84 1 26 C7.27 26 13.54 26 20 26 C20 30.62 20 35.24 20 40 C14.06 40 8.12 40 2 40 C2 39.67 2 39.34 2 39 C7.61 39 13.22 39 19 39 C18.505 34.05 18.505 34.05 18 29 C16.44539063 29.05220703 16.44539063 29.05220703 14.859375 29.10546875 C13.48959958 29.13361482 12.11980659 29.16091411 10.75 29.1875 C10.06808594 29.21263672 9.38617188 29.23777344 8.68359375 29.26367188 C5.69300916 29.30722408 3.45498068 29.24622306 0.79711914 27.80786133 C-1 26 -1 26 -1.4699707 23.59570312 C-1.44809692 22.20254883 -1.44809692 22.20254883 -1.42578125 20.78125 C-1.41740234 19.76675781 -1.40902344 18.75226563 -1.40039062 17.70703125 C-1.37138672 16.64871094 -1.34238281 15.59039062 -1.3125 14.5 C-1.30283203 13.44167969 -1.29316406 12.38335937 -1.28320312 11.29296875 C-1.16945079 3.50835237 -1.16945079 3.50835237 0 0 Z " fill="#210642" transform="translate(72,59)"/>
<path d="M0 0 C4.62 0 9.24 0 14 0 C14.495 8.91 14.495 8.91 15 18 C20.94 18.33 26.88 18.66 33 19 C33 23.62 33 28.24 33 33 C27.72 33 22.44 33 17 33 C17 32.67 17 32.34 17 32 C21.95 32 26.9 32 32 32 C32 28.37 32 24.74 32 21 C30.81921875 21.03480469 29.6384375 21.06960937 28.421875 21.10546875 C26.86459758 21.13361232 25.30730475 21.16091187 23.75 21.1875 C22.97269531 21.21263672 22.19539063 21.23777344 21.39453125 21.26367188 C18.0139573 21.30701257 15.59835577 21.27673954 12.5 19.84375 C10.45901791 17.33504285 10.40074205 15.51576849 10.25 12.3125 C10.19328125 11.31863281 10.1365625 10.32476562 10.078125 9.30078125 C10.05234375 8.54152344 10.0265625 7.78226563 10 7 C9.34 7.33 8.68 7.66 8 8 C7.835 9.155 7.67 10.31 7.5 11.5 C7.335 12.655 7.17 13.81 7 15 C6.01 15.495 6.01 15.495 5 16 C5 11.38 5 6.76 5 2 C3.68 2 2.36 2 1 2 C1.09539063 3.13179687 1.19078125 4.26359375 1.2890625 5.4296875 C1.40159885 6.91141612 1.51354758 8.39318945 1.625 9.875 C1.68945312 10.62136719 1.75390625 11.36773437 1.8203125 12.13671875 C1.96087365 14.0870047 1.98759849 16.04469467 2 18 C0 20 0 20 -2.33837891 20.22705078 C-3.29147949 20.21657715 -4.24458008 20.20610352 -5.2265625 20.1953125 C-6.7734375 20.18564453 -6.7734375 20.18564453 -8.3515625 20.17578125 C-9.43179688 20.15902344 -10.51203125 20.14226562 -11.625 20.125 C-12.71296875 20.11597656 -13.8009375 20.10695312 -14.921875 20.09765625 C-17.61480152 20.07403409 -20.30729255 20.04109556 -23 20 C-23 19.67 -23 19.34 -23 19 C-15.74 18.67 -8.48 18.34 -1 18 C-0.67 12.06 -0.34 6.12 0 0 Z " fill="#170832" transform="translate(59,142)"/>
<path d="M0 0 C10.89 0 21.78 0 33 0 C33 11.88 33 23.76 33 36 C32.67 36 32.34 36 32 36 C31.67 24.78 31.34 13.56 31 2 C16.15 1.505 16.15 1.505 1 1 C1.01160156 3.73152344 1.02320313 6.46304688 1.03515625 9.27734375 C1.04294642 11.91170129 1.04902341 14.54605757 1.05493164 17.18041992 C1.05997231 19.01668875 1.06680477 20.85295354 1.07543945 22.68920898 C1.08751672 25.32276401 1.09323081 27.95626616 1.09765625 30.58984375 C1.10281754 31.41588608 1.10797882 32.24192841 1.11329651 33.09300232 C1.11349205 35.06236368 1.06204152 37.03161614 1 39 C0 40 0 40 -3.81640625 40.09765625 C-5.39846682 40.09098089 -6.98051159 40.07901875 -8.5625 40.0625 C-9.36880859 40.05798828 -10.17511719 40.05347656 -11.00585938 40.04882812 C-13.00393756 40.03700518 -15.00197783 40.01906914 -17 40 C-16.97679688 41.04800781 -16.95359375 42.09601563 -16.9296875 43.17578125 C-16.91092697 44.55468037 -16.89272707 45.9335872 -16.875 47.3125 C-16.84986328 48.34793945 -16.84986328 48.34793945 -16.82421875 49.40429688 C-16.78782206 53.17135396 -16.85621136 54.78431704 -19 58 C-21.24658203 58.34057617 -21.24658203 58.34057617 -24.0078125 58.29296875 C-24.99394531 58.28330078 -25.98007813 58.27363281 -26.99609375 58.26367188 C-28.02863281 58.23853516 -29.06117187 58.21339844 -30.125 58.1875 C-31.68541016 58.16719727 -31.68541016 58.16719727 -33.27734375 58.14648438 C-35.85207627 58.11105228 -38.4257833 58.06165221 -41 58 C-41 57.67 -41 57.34 -41 57 C-34.07 57 -27.14 57 -20 57 C-19.67 50.73 -19.34 44.46 -19 38 C-12.73 38 -6.46 38 0 38 C0 25.46 0 12.92 0 0 Z " fill="#22044B" transform="translate(116,161)"/>
<path d="M0 0 C1.65 0 3.3 0 5 0 C6.62651522 3.25303044 6.11453156 6.39225602 6 10 C5.67 10.33 5.34 10.66 5 11 C4.97355863 12.91926537 5.01238012 14.83949128 5.078125 16.7578125 C5.10390625 17.94117188 5.1296875 19.12453125 5.15625 20.34375 C5.21818016 22.8415999 5.29600846 25.33911208 5.390625 27.8359375 C5.59468667 39.62049915 5.59468667 39.62049915 1.81396484 43.8984375 C-2.18718855 46.32820925 -6.80051251 45.70019409 -11.3125 45.4375 C-12.33923828 45.40591797 -13.36597656 45.37433594 -14.42382812 45.34179688 C-16.95215184 45.25947936 -19.4745986 45.14459011 -22 45 C-21.67 44.01 -21.34 43.02 -21 42 C-14.07 42 -7.14 42 0 42 C0 28.14 0 14.28 0 0 Z " fill="#22113B" transform="translate(229,118)"/>
<path d="M0 0 C2.97922593 -0.02683987 5.95821295 -0.04676037 8.9375 -0.0625 C9.78763672 -0.07087891 10.63777344 -0.07925781 11.51367188 -0.08789062 C12.32255859 -0.09111328 13.13144531 -0.09433594 13.96484375 -0.09765625 C14.7137085 -0.10289307 15.46257324 -0.10812988 16.23413086 -0.11352539 C18 0 18 0 19 1 C19.08874135 4.10251201 19.11518455 7.1826812 19.09765625 10.28515625 C19.0962413 11.21597519 19.09482635 12.14679413 19.09336853 13.1058197 C19.08775172 16.09141191 19.0751964 19.07693029 19.0625 22.0625 C19.05748716 24.08137913 19.05292388 26.10025943 19.04882812 28.11914062 C19.03862587 33.07947871 19.01905382 38.0396563 19 43 C11.08 43 3.16 43 -5 43 C-5 36.73 -5 30.46 -5 24 C-4.67 24 -4.34 24 -4 24 C-4 29.94 -4 35.88 -4 42 C3.26 42 10.52 42 18 42 C18 30.45 18 18.9 18 7 C17.34 7 16.68 7 16 7 C16.33 17.56 16.66 28.12 17 39 C11.39 39 5.78 39 0 39 C0 38.67 0 38.34 0 38 C4.62 38 9.24 38 14 38 C14 27.11 14 16.22 14 5 C15.32 5 16.64 5 18 5 C18 4.01 18 3.02 18 2 C12.06 1.67 6.12 1.34 0 1 C0 0.67 0 0.34 0 0 Z " fill="#5D1FB7" transform="translate(173,175)"/>
<path d="M0 0 C4.62 0 9.24 0 14 0 C14 4.62 14 9.24 14 14 C9.38 14 4.76 14 0 14 C0 9.38 0 4.76 0 0 Z " fill="#1C073A" transform="translate(97,123)"/>
<path d="M0 0 C4.62 0 9.24 0 14 0 C14 4.62 14 9.24 14 14 C9.38 14 4.76 14 0 14 C0 9.38 0 4.76 0 0 Z " fill="#1B0D2D" transform="translate(154,123)"/>
<path d="M0 0 C11.55 0 23.1 0 35 0 C35 6.6 35 13.2 35 20 C30.91625 20.2475 30.91625 20.2475 26.75 20.5 C25.89889648 20.55220703 25.04779297 20.60441406 24.17089844 20.65820312 C23.4905957 20.69880859 22.81029297 20.73941406 22.109375 20.78125 C21.41811523 20.82314453 20.72685547 20.86503906 20.01464844 20.90820312 C18.01161035 20.99947098 16.0051163 21 14 21 C13.67 19.68 13.34 18.36 13 17 C18.94 17 24.88 17 31 17 C31 12.05 31 7.1 31 2 C29.15148437 2.01740234 29.15148437 2.01740234 27.265625 2.03515625 C18.12237886 2.09431789 9.10117496 2.017297 0 1 C0 0.67 0 0.34 0 0 Z " fill="#681BE0" transform="translate(156,63)"/>
<path d="M0 0 C4.95 0 9.9 0 15 0 C15 5.94 15 11.88 15 18 C14.34 18 13.68 18 13 18 C12.93941406 16.92878906 12.87882812 15.85757813 12.81640625 14.75390625 C12.73201463 13.35675609 12.64736594 11.95962143 12.5625 10.5625 C12.52318359 9.85544922 12.48386719 9.14839844 12.44335938 8.41992188 C12.52375562 4.91309581 12.52375562 4.91309581 11 2 C9.31816052 1.76712992 7.6287584 1.58735834 5.9375 1.4375 C5.01839844 1.35371094 4.09929687 1.26992187 3.15234375 1.18359375 C2.08693359 1.09271484 2.08693359 1.09271484 1 1 C1.01571045 1.55461914 1.0314209 2.10923828 1.04760742 2.68066406 C1.11012862 5.20367152 1.14904342 7.72651576 1.1875 10.25 C1.21263672 11.12269531 1.23777344 11.99539062 1.26367188 12.89453125 C1.30419476 16.43352998 1.29860571 19.25801005 -0.03125 22.5625 C-3.02334722 24.74720591 -6.11305107 24.67657528 -9.6875 24.75 C-10.7403418 24.79447266 -10.7403418 24.79447266 -11.81445312 24.83984375 C-13.54235424 24.91037033 -15.2711832 24.95747068 -17 25 C-17 27.31 -17 29.62 -17 32 C-12.05 32 -7.1 32 -2 32 C-2 32.33 -2 32.66 -2 33 C-7.61 33 -13.22 33 -19 33 C-19 28.38 -19 23.76 -19 19 C-12.73 19 -6.46 19 0 19 C0 12.73 0 6.46 0 0 Z " fill="#1D0D35" transform="translate(192,142)"/>
<path d="M0 0 C0.66 0 1.32 0 2 0 C2 11.55 2 23.1 2 35 C-5.26 35 -12.52 35 -20 35 C-20.33 28.07 -20.66 21.14 -21 14 C-20.01 14 -19.02 14 -18 14 C-16.37986366 19.5002948 -16.39791975 25.31543215 -16 31 C-10.39 31.33 -4.78 31.66 1 32 C0.67 30.02 0.34 28.04 0 26 C-0.07733849 23.91003127 -0.10800958 21.81793605 -0.09765625 19.7265625 C-0.09443359 18.57285156 -0.09121094 17.41914063 -0.08789062 16.23046875 C-0.07951172 15.04066406 -0.07113281 13.85085937 -0.0625 12.625 C-0.05798828 11.41199219 -0.05347656 10.19898438 -0.04882812 8.94921875 C-0.03708354 5.96609493 -0.0206584 2.98307321 0 0 Z " fill="#7016F2" transform="translate(189,182)"/>
<path d="M0 0 C0.33 0 0.66 0 1 0 C1.66 2.31 2.32 4.62 3 7 C8.94 7.33 14.88 7.66 21 8 C21.4375 15.8125 21.4375 15.8125 21.56811523 18.26098633 C21.75284718 21.37409057 22.00950306 24.02850917 23 27 C34.55 27.33 46.1 27.66 58 28 C58 30.97 58 33.94 58 37 C57.67 37 57.34 37 57 37 C57 34.36 57 31.72 57 29 C45.45 29 33.9 29 22 29 C21.67 28.01 21.34 27.02 21 26 C20.34 26 19.68 26 19 26 C19 20.72 19 15.44 19 10 C16.69 10 14.38 10 12 10 C11.67 12.31 11.34 14.62 11 17 C10.01 17.33 9.02 17.66 8 18 C8 18.66 8 19.32 8 20 C6.02 20 4.04 20 2 20 C2.66 19.67 3.32 19.34 4 19 C4 18.01 4 17.02 4 16 C5.3125 14.3125 5.3125 14.3125 7 13 C7.99 13 8.98 13 10 13 C10 12.01 10 11.02 10 10 C8.081875 10.061875 8.081875 10.061875 6.125 10.125 C3.9453125 10.1953125 3.9453125 10.1953125 2 10 C0 8 0 8 -0.1953125 6.0546875 C-0.13020833 4.03645833 -0.06510417 2.01822917 0 0 Z " fill="#1E0E2E" transform="translate(166,96)"/>
<path d="M0 0 C3.08603789 0.10286793 5.76424114 0.40117967 8.75 1.125 C8.75 1.455 8.75 1.785 8.75 2.125 C4.295 2.62 4.295 2.62 -0.25 3.125 C-0.58 9.065 -0.91 15.005 -1.25 21.125 C-14.45 21.455 -27.65 21.785 -41.25 22.125 C-41.25 21.135 -41.25 20.145 -41.25 19.125 C-29.37 18.795 -17.49 18.465 -5.25 18.125 C-4.92 12.515 -4.59 6.905 -4.25 1.125 C-3.25 0.125 -3.25 0.125 0 0 Z " fill="#6F18EB" transform="translate(78.25,99.875)"/>
<path d="M0 0 C1.32 0 2.64 0 4 0 C4 13.2 4 26.4 4 40 C2.68 40 1.36 40 0 40 C0 26.8 0 13.6 0 0 Z " fill="#6C1AE5" transform="translate(226,120)"/>
<path d="M0 0 C4.50235595 -0.02472359 9.00467236 -0.04287119 13.50708008 -0.05493164 C15.0386626 -0.0599596 16.57024033 -0.06678284 18.10180664 -0.07543945 C20.30356022 -0.08757229 22.50525033 -0.09324367 24.70703125 -0.09765625 C25.39150833 -0.10281754 26.07598541 -0.10797882 26.78120422 -0.11329651 C29.80906242 -0.1136536 32.10150142 0.03383381 35 1 C35.16743288 6.23256222 35.328011 11.46527227 35.48217773 16.69824219 C35.5356202 18.47922457 35.59095129 20.26015131 35.64819336 22.04101562 C35.73004181 24.59753417 35.8051453 27.15417445 35.87890625 29.7109375 C35.90594131 30.50994476 35.93297638 31.30895203 35.96083069 32.13217163 C36.11387171 37.77225659 36.11387171 37.77225659 35 40 C34.01 40 33.02 40 32 40 C31.505 21.685 31.505 21.685 31 3 C28.15464275 1.57732138 25.63781448 1.78028131 22.4609375 1.68359375 C21.15898438 1.64169922 19.85703125 1.59980469 18.515625 1.55664062 C17.13541955 1.51682701 15.75521117 1.47711478 14.375 1.4375 C12.98696585 1.39430593 11.59894472 1.35069135 10.2109375 1.30664062 C6.80739744 1.20028 3.40378222 1.09825286 0 1 C0 0.67 0 0.34 0 0 Z " fill="#6D18F2" transform="translate(80,63)"/>
<path d="M0 0 C0.74168427 0.00444122 1.48336853 0.00888245 2.24752808 0.01345825 C3.50860886 0.01368484 3.50860886 0.01368484 4.79516602 0.01391602 C6.15773026 0.02939987 6.15773026 0.02939987 7.54782104 0.04519653 C8.47722504 0.04802643 9.40662903 0.05085632 10.36419678 0.05377197 C13.33959704 0.06498834 16.3146989 0.09009543 19.29000854 0.11550903 C21.30432712 0.12553696 23.31865041 0.13466313 25.33297729 0.14285278 C30.27710311 0.16493243 35.22100519 0.1994721 40.16500854 0.24050903 C40.16500854 0.57050903 40.16500854 0.90050903 40.16500854 1.24050903 C26.96500854 1.57050903 13.76500854 1.90050903 0.16500854 2.24050903 C-0.16499146 14.45050903 -0.49499146 26.66050903 -0.83499146 39.24050903 C-7.10499146 39.24050903 -13.37499146 39.24050903 -19.83499146 39.24050903 C-19.83499146 38.25050903 -19.83499146 37.26050903 -19.83499146 36.24050903 C-19.05381958 36.47060669 -19.05381958 36.47060669 -18.25686646 36.70535278 C-15.2022063 37.38033414 -12.20483175 37.58462021 -9.08499146 37.80300903 C-7.91452271 37.8867981 -6.74405396 37.97058716 -5.53811646 38.05691528 C-4.64608521 38.11750122 -3.75405396 38.17808716 -2.83499146 38.24050903 C-2.87575806 37.16043579 -2.91652466 36.08036255 -2.95852661 34.96755981 C-3.10675561 30.96853438 -3.24148806 26.96914933 -3.37210083 22.96951294 C-3.43057807 21.23696233 -3.49273809 19.504532 -3.55862427 17.77224731 C-3.65257771 15.28532816 -3.73337156 12.79828014 -3.81155396 10.31082153 C-3.84375031 9.53368805 -3.87594666 8.75655457 -3.90911865 7.95587158 C-3.96243275 6.05133657 -3.90790398 4.14439447 -3.83499146 2.24050903 C-1.83499146 0.24050903 -1.83499146 0.24050903 0 0 Z " fill="#1A092D" transform="translate(111.83499145507813,154.75949096679688)"/>
<path d="M0 0 C0.66 0 1.32 0 2 0 C2.02892857 3.95831809 2.04677427 7.91660917 2.0625 11.875 C2.07087891 13.00292969 2.07925781 14.13085938 2.08789062 15.29296875 C2.09272461 16.90751953 2.09272461 16.90751953 2.09765625 18.5546875 C2.10551147 20.04718018 2.10551147 20.04718018 2.11352539 21.56982422 C2 24 2 24 1 26 C-7.415 26.495 -7.415 26.495 -16 27 C-16.33 30.63 -16.66 34.26 -17 38 C-17.66 38 -18.32 38 -19 38 C-19.495 30.575 -19.495 30.575 -20 23 C-18.71222656 22.93941406 -17.42445312 22.87882812 -16.09765625 22.81640625 C-14.41925841 22.73201753 -12.74087364 22.6473687 -11.0625 22.5625 C-10.21236328 22.52318359 -9.36222656 22.48386719 -8.48632812 22.44335938 C-7.67744141 22.40146484 -6.86855469 22.35957031 -6.03515625 22.31640625 C-4.91185913 22.26141968 -4.91185913 22.26141968 -3.76586914 22.20532227 C-1.97538674 22.18228937 -1.97538674 22.18228937 -1 21 C-0.84313751 19.44051458 -0.74923361 17.87457332 -0.68359375 16.30859375 C-0.64169922 15.36435547 -0.59980469 14.42011719 -0.55664062 13.44726562 C-0.51732422 12.45404297 -0.47800781 11.46082031 -0.4375 10.4375 C-0.39431641 9.44041016 -0.35113281 8.44332031 -0.30664062 7.41601562 C-0.20019702 4.9441585 -0.09818072 2.4721969 0 0 Z " fill="#6A1CD6" transform="translate(113,172)"/>
<path d="M0 0 C5.94 0 11.88 0 18 0 C18 0.33 18 0.66 18 1 C12.72 1 7.44 1 2 1 C2 4.63 2 8.26 2 12 C3.82337891 11.98259766 3.82337891 11.98259766 5.68359375 11.96484375 C7.26822764 11.95546722 8.85286318 11.94636687 10.4375 11.9375 C11.23994141 11.92912109 12.04238281 11.92074219 12.86914062 11.91210938 C14.91295221 11.9034857 16.95683902 11.9477185 19 12 C20 13 20 13 20.11352539 14.85766602 C20.10828857 15.64842529 20.10305176 16.43918457 20.09765625 17.25390625 C20.09515869 18.0229126 20.09266113 18.79191895 20.09008789 19.58422852 C20.08098389 20.56705811 20.07187988 21.5498877 20.0625 22.5625 C20.041875 25.676875 20.02125 28.79125 20 32 C31.88 32 43.76 32 56 32 C56 32.33 56 32.66 56 33 C43.79 33 31.58 33 19 33 C19 26.73 19 20.46 19 14 C12.73 14 6.46 14 0 14 C0 9.38 0 4.76 0 0 Z " fill="#210843" transform="translate(173,85)"/>
<path d="M0 0 C0.99 0.33 1.98 0.66 3 1 C3 7.27 3 13.54 3 20 C-9.21 20 -21.42 20 -34 20 C-34 19.67 -34 19.34 -34 19 C-22.78 19 -11.56 19 0 19 C0 17.35 0 15.7 0 14 C-1.98 14.66 -3.96 15.32 -6 16 C-4.43551329 10.3856009 -2.83604813 5.13189662 0 0 Z " fill="#170A28" transform="translate(70,98)"/>
<path d="M0 0 C0.99 0.33 1.98 0.66 3 1 C3 8.92 3 16.84 3 25 C-3.6 25 -10.2 25 -17 25 C-17 35.23 -17 45.46 -17 56 C-13.04 56 -9.08 56 -5 56 C-5 50.39 -5 44.78 -5 39 C-4.67 39 -4.34 39 -4 39 C-4 44.94 -4 50.88 -4 57 C-8.62 57 -13.24 57 -18 57 C-18 46.11 -18 35.22 -18 24 C-12.06 23.67 -6.12 23.34 0 23 C0 15.41 0 7.82 0 0 Z " fill="#1D053E" transform="translate(96,156)"/>
<path d="M0 0 C6.27 0.33 12.54 0.66 19 1 C19 7.27 19 13.54 19 20 C26.59 20 34.18 20 42 20 C42 20.33 42 20.66 42 21 C38.18788097 21.1958691 34.37529466 21.38029565 30.5625 21.5625 C29.47388672 21.61857422 28.38527344 21.67464844 27.26367188 21.73242188 C26.22919922 21.78076172 25.19472656 21.82910156 24.12890625 21.87890625 C23.17056885 21.9260376 22.21223145 21.97316895 21.22485352 22.02172852 C19 22 19 22 18 21 C17.67 22.32 17.34 23.64 17 25 C15.68 25.33 14.36 25.66 13 26 C13 23.69 13 21.38 13 19 C13.66 18.67 14.32 18.34 15 18 C15.66 18.33 16.32 18.66 17 19 C17 13.72 17 8.44 17 3 C11.72 3 6.44 3 1 3 C0.67 2.01 0.34 1.02 0 0 Z " fill="#1E0930" transform="translate(149,198)"/>
<path d="M0 0 C6.27 0 12.54 0 19 0 C20.50156874 3.00313748 20.09281204 5.79067522 20.0625 9.125 C20.05347656 10.40632812 20.04445312 11.68765625 20.03515625 13.0078125 C20.02355469 13.99523437 20.01195312 14.98265625 20 16 C19.34 16 18.68 16 18 16 C18 12.04 18 8.08 18 4 C10.08 4.495 10.08 4.495 2 5 C1.67 8.63 1.34 12.26 1 16 C0.34 16 -0.32 16 -1 16 C-1.02725341 14.2709226 -1.04650987 12.54171824 -1.0625 10.8125 C-1.07410156 9.84957031 -1.08570313 8.88664063 -1.09765625 7.89453125 C-1 5 -1 5 0 0 Z " fill="#6D19E9" transform="translate(190,138)"/>
<path d="M0 0 C5.28 0 10.56 0 16 0 C16 0.66 16 1.32 16 2 C16.99 2 17.98 2 19 2 C19 7.61 19 13.22 19 19 C18.34 19 17.68 19 17 19 C16.67 14.38 16.34 9.76 16 5 C10.72 4.67 5.44 4.34 0 4 C-0.33 8.95 -0.66 13.9 -1 19 C-1.66 19 -2.32 19 -3 19 C-2.67 13.39 -2.34 7.78 -2 2 C-1.34 2 -0.68 2 0 2 C0 1.34 0 0.68 0 0 Z " fill="#6F18EC" transform="translate(96,119)"/>
<path d="M0 0 C1.32 0 2.64 0 4 0 C4 5.94 4 11.88 4 18 C14.56 18 25.12 18 36 18 C36 18.66 36 19.32 36 20 C31.49764405 20.02472359 26.99532764 20.04287119 22.49291992 20.05493164 C20.9613374 20.0599596 19.42975967 20.06678284 17.89819336 20.07543945 C15.69643978 20.08757229 13.49474967 20.09324367 11.29296875 20.09765625 C10.60849167 20.10281754 9.92401459 20.10797882 9.21879578 20.11329651 C6.19093758 20.1136536 3.89849858 19.96616619 1 19 C0.67 12.73 0.34 6.46 0 0 Z " fill="#7214F8" transform="translate(188,101)"/>
<path d="M0 0 C-0.33 0.99 -0.66 1.98 -1 3 C-6.94 2.67 -12.88 2.34 -19 2 C-19 4.97 -19 7.94 -19 11 C-19.22458837 13.69907097 -19.60976793 16.3171545 -20 19 C-20.99 19 -21.98 19 -23 19 C-22.67 12.4 -22.34 5.8 -22 -1 C-14.30443346 -2.28259442 -7.34989254 -3.09469159 0 0 Z " fill="#681EDA" transform="translate(77,140)"/>
<path d="M0 0 C0.33 0 0.66 0 1 0 C1 11.22 1 22.44 1 34 C4.3 34 7.6 34 11 34 C11.66 34.33 12.32 34.66 13 35 C13 35.66 13 36.32 13 37 C10.52076199 37.02685095 8.0418116 37.04676547 5.5625 37.0625 C4.85544922 37.07087891 4.14839844 37.07925781 3.41992188 37.08789062 C1.61306441 37.09653588 -0.19387603 37.05220011 -2 37 C-3 36 -3 36 -3.11352539 33.04077148 C-3.10828857 31.74727783 -3.10305176 30.45378418 -3.09765625 29.12109375 C-3.0962413 28.4344313 -3.09482635 27.74776886 -3.09336853 27.04029846 C-3.08775479 24.83932199 -3.07520007 22.63844591 -3.0625 20.4375 C-3.05748676 18.94856917 -3.05292355 17.45963676 -3.04882812 15.97070312 C-3.03778093 12.31376925 -3.02050713 8.65689442 -3 5 C-2.67 5 -2.34 5 -2 5 C-1.67 11.6 -1.34 18.2 -1 25 C-0.67 16.75 -0.34 8.5 0 0 Z " fill="#601CC6" transform="translate(39,123)"/>
<path d="M0 0 C1.65 0 3.3 0 5 0 C5.042721 1.66611905 5.04063832 3.33382885 5 5 C4.67 5.33 4.34 5.66 4 6 C3.76924918 7.34747084 3.58846937 8.70377565 3.4375 10.0625 C3.293125 11.361875 3.14875 12.66125 3 14 C2.01 14 1.02 14 0 14 C-0.04898438 14.92683594 -0.09796875 15.85367188 -0.1484375 16.80859375 C-0.22320312 18.00613281 -0.29796875 19.20367187 -0.375 20.4375 C-0.44460937 21.63246094 -0.51421875 22.82742187 -0.5859375 24.05859375 C-0.72257812 25.02925781 -0.85921875 25.99992187 -1 27 C-1.66 27.33 -2.32 27.66 -3 28 C-3.495 18.1 -3.495 18.1 -4 8 C-6.72501908 7.09166031 -8.62233971 6.81640015 -11.44921875 6.68359375 C-12.29677734 6.64169922 -13.14433594 6.59980469 -14.01757812 6.55664062 C-14.89865234 6.51732422 -15.77972656 6.47800781 -16.6875 6.4375 C-18.02651367 6.37272461 -18.02651367 6.37272461 -19.39257812 6.30664062 C-21.59490108 6.20064647 -23.79733473 6.09857949 -26 6 C-26 5.67 -26 5.34 -26 5 C-22.37501666 4.97106068 -18.75006287 4.95322208 -15.125 4.9375 C-13.57619141 4.92493164 -13.57619141 4.92493164 -11.99609375 4.91210938 C-11.00996094 4.90888672 -10.02382812 4.90566406 -9.0078125 4.90234375 C-7.64100342 4.89448853 -7.64100342 4.89448853 -6.24658203 4.88647461 C-4 5 -4 5 -2 6 C-2 6.66 -2 7.32 -2 8 C-1.01 8 -0.02 8 1 8 C0.67 5.36 0.34 2.72 0 0 Z " fill="#1C0C2B" transform="translate(119,112)"/>
<path d="M0 0 C6.27 0 12.54 0 19 0 C19 0.33 19 0.66 19 1 C13.06 1 7.12 1 1 1 C1.33 2.65 1.66 4.3 2 6 C2.06459042 7.76977761 2.08611065 9.54170152 2.0625 11.3125 C2.05347656 12.19550781 2.04445313 13.07851562 2.03515625 13.98828125 C2.02355469 14.65214844 2.01195313 15.31601563 2 16 C2.66 16 3.32 16 4 16 C4 12.37 4 8.74 4 5 C4.33 5 4.66 5 5 5 C5.02690104 7.79173055 5.04679053 10.58320348 5.0625 13.375 C5.07087891 14.1690625 5.07925781 14.963125 5.08789062 15.78125 C5.11328125 21.7734375 5.11328125 21.7734375 4 24 C-3.26 24 -10.52 24 -18 24 C-18 23.67 -18 23.34 -18 23 C-11.07 23 -4.14 23 3 23 C3 22.01 3 21.02 3 20 C-2.61 20 -8.22 20 -14 20 C-14 19.67 -14 19.34 -14 19 C-9.38 19 -4.76 19 0 19 C0 12.73 0 6.46 0 0 Z " fill="#5B20B7" transform="translate(92,194)"/>
<path d="M0 0 C0.33 0 0.66 0 1 0 C1.33 13.2 1.66 26.4 2 40 C6.95 40.33 11.9 40.66 17 41 C17 40.34 17 39.68 17 39 C13.04 38.67 9.08 38.34 5 38 C5 37.67 5 37.34 5 37 C9.62 37 14.24 37 19 37 C19 37.99 19 38.98 19 40 C19.99 40 20.98 40 22 40 C22.33 34.39 22.66 28.78 23 23 C23.33 23 23.66 23 24 23 C24.02683987 25.97922593 24.04676037 28.95821295 24.0625 31.9375 C24.07087891 32.78763672 24.07925781 33.63777344 24.08789062 34.51367188 C24.09272461 35.72700195 24.09272461 35.72700195 24.09765625 36.96484375 C24.10551147 38.08814087 24.10551147 38.08814087 24.11352539 39.23413086 C24 41 24 41 23 42 C21.37742456 42.0991657 19.75060169 42.13079777 18.125 42.1328125 C17.14015625 42.13410156 16.1553125 42.13539063 15.140625 42.13671875 C14.10421875 42.13285156 13.0678125 42.12898438 12 42.125 C10.44539063 42.13080078 10.44539063 42.13080078 8.859375 42.13671875 C7.87453125 42.13542969 6.8896875 42.13414062 5.875 42.1328125 C4.96492188 42.13168457 4.05484375 42.13055664 3.1171875 42.12939453 C1 42 1 42 0 41 C-0.08871273 37.97022196 -0.1151935 34.96332978 -0.09765625 31.93359375 C-0.0962413 31.02497086 -0.09482635 30.11634796 -0.09336853 29.18019104 C-0.08775193 26.26592779 -0.07519665 23.35174019 -0.0625 20.4375 C-0.05748714 18.46679798 -0.05292386 16.49609476 -0.04882812 14.52539062 C-0.03777711 9.68356441 -0.02050138 4.84179505 0 0 Z " fill="#5A24AF" transform="translate(35,119)"/>
<path d="M0 0 C0.9583374 0.00523682 1.9166748 0.01047363 2.90405273 0.01586914 C4.45576172 0.02070313 4.45576172 0.02070313 6.03881836 0.02563477 C7.12743164 0.03401367 8.21604492 0.04239258 9.33764648 0.05102539 C10.97636719 0.05779297 10.97636719 0.05779297 12.64819336 0.06469727 C15.35723144 0.07652713 18.06616248 0.09300996 20.77514648 0.11352539 C20.44514648 0.77352539 20.11514648 1.43352539 19.77514648 2.11352539 C13.17514648 1.78352539 6.57514648 1.45352539 -0.22485352 1.11352539 C-0.55485352 6.39352539 -0.88485352 11.67352539 -1.22485352 17.11352539 C-0.56485352 17.11352539 0.09514648 17.11352539 0.77514648 17.11352539 C0.77514648 13.48352539 0.77514648 9.85352539 0.77514648 6.11352539 C1.10514648 6.11352539 1.43514648 6.11352539 1.77514648 6.11352539 C1.77514648 12.05352539 1.77514648 17.99352539 1.77514648 24.11352539 C-4.49485352 24.11352539 -10.76485352 24.11352539 -17.22485352 24.11352539 C-17.22485352 23.78352539 -17.22485352 23.45352539 -17.22485352 23.11352539 C-11.28485352 22.78352539 -5.34485352 22.45352539 0.77514648 22.11352539 C0.77514648 21.12352539 0.77514648 20.13352539 0.77514648 19.11352539 C-0.54485352 19.11352539 -1.86485352 19.11352539 -3.22485352 19.11352539 C-3.25169339 16.13429946 -3.27161389 13.15531244 -3.28735352 10.17602539 C-3.29573242 9.32588867 -3.30411133 8.47575195 -3.31274414 7.59985352 C-3.3159668 6.7909668 -3.31918945 5.98208008 -3.32250977 5.14868164 C-3.32774658 4.39981689 -3.3329834 3.65095215 -3.33837891 2.87939453 C-3.16496843 0.18202247 -2.68916076 0.13721714 0 0 Z " fill="#5C21B0" transform="translate(190.224853515625,136.886474609375)"/>
<path d="M0 0 C0.66 0.33 1.32 0.66 2 1 C1.67 1.66 1.34 2.32 1 3 C0.91627341 4.52148326 0.89269973 6.04655778 0.90234375 7.5703125 C0.90556641 8.46621094 0.90878906 9.36210938 0.91210938 10.28515625 C0.92048828 11.22230469 0.92886719 12.15945312 0.9375 13.125 C0.94201172 14.06988281 0.94652344 15.01476562 0.95117188 15.98828125 C0.96297625 18.3255477 0.98091201 20.66278169 1 23 C5.62 23 10.24 23 15 23 C15 22.34 15 21.68 15 21 C13.9275 21.04125 12.855 21.0825 11.75 21.125 C8 21 8 21 4 19 C8.62 19 13.24 19 18 19 C18 19.99 18 20.98 18 22 C18.99 22 19.98 22 21 22 C21.33 15.4 21.66 8.8 22 2 C22.33 2 22.66 2 23 2 C23 9.26 23 16.52 23 24 C19.18745377 24.02682792 15.37509388 24.04675477 11.5625 24.0625 C10.47388672 24.07087891 9.38527344 24.07925781 8.26367188 24.08789062 C7.22919922 24.09111328 6.19472656 24.09433594 5.12890625 24.09765625 C4.17056885 24.10289307 3.21223145 24.10812988 2.22485352 24.11352539 C0 24 0 24 -1 23 C-1.0991657 21.37742456 -1.13079777 19.75060169 -1.1328125 18.125 C-1.13410156 17.14015625 -1.13539063 16.1553125 -1.13671875 15.140625 C-1.13285156 14.10421875 -1.12898437 13.0678125 -1.125 12 C-1.13080078 10.44539062 -1.13080078 10.44539062 -1.13671875 8.859375 C-1.13542969 7.87453125 -1.13414062 6.8896875 -1.1328125 5.875 C-1.13168457 4.96492188 -1.13055664 4.05484375 -1.12939453 3.1171875 C-1 1 -1 1 0 0 Z " fill="#5D20B2" transform="translate(150,118)"/>
<path d="M0 0 C0.33 0 0.66 0 1 0 C1.04898438 1.20398438 1.09796875 2.40796875 1.1484375 3.6484375 C1.22346343 5.22398198 1.29901133 6.79950166 1.375 8.375 C1.4059375 9.1690625 1.436875 9.963125 1.46875 10.78125 C1.51816421 15.36667375 1.51816421 15.36667375 4 19 C-1.94 19 -7.88 19 -14 19 C-12.68 18.01 -11.36 17.02 -10 16 C-12.31 16 -14.62 16 -17 16 C-17.33 21.61 -17.66 27.22 -18 33 C-18.33 33 -18.66 33 -19 33 C-19 26.73 -19 20.46 -19 14 C-12.73 14 -6.46 14 0 14 C0 9.38 0 4.76 0 0 Z " fill="#5E1FBE" transform="translate(92,85)"/>
<path d="M0 0 C0.74886475 0.00523682 1.49772949 0.01047363 2.26928711 0.01586914 C3.07817383 0.0190918 3.88706055 0.02231445 4.72045898 0.02563477 C5.5705957 0.03401367 6.42073242 0.04239258 7.29663086 0.05102539 C8.15063477 0.05553711 9.00463867 0.06004883 9.88452148 0.06469727 C12.00108749 0.07652166 14.11761771 0.0944577 16.23413086 0.11352539 C16.23413086 0.77352539 16.23413086 1.43352539 16.23413086 2.11352539 C12.27413086 2.11352539 8.31413086 2.11352539 4.23413086 2.11352539 C4.23413086 2.77352539 4.23413086 3.43352539 4.23413086 4.11352539 C9.51413086 4.11352539 14.79413086 4.11352539 20.23413086 4.11352539 C20.23413086 4.44352539 20.23413086 4.77352539 20.23413086 5.11352539 C14.29413086 5.11352539 8.35413086 5.11352539 2.23413086 5.11352539 C2.23413086 4.12352539 2.23413086 3.13352539 2.23413086 2.11352539 C1.24413086 2.11352539 0.25413086 2.11352539 -0.76586914 2.11352539 C-1.09586914 14.98352539 -1.42586914 27.85352539 -1.76586914 41.11352539 C-2.09586914 41.11352539 -2.42586914 41.11352539 -2.76586914 41.11352539 C-2.79051619 35.43522461 -2.80870376 29.7569547 -2.82080078 24.07861328 C-2.8258417 22.14533954 -2.83267433 20.21206963 -2.84130859 18.27880859 C-2.85338479 15.50625667 -2.85909971 12.73375498 -2.86352539 9.96118164 C-2.86868668 9.09139175 -2.87384796 8.22160187 -2.87916565 7.32545471 C-2.87936099 5.25446725 -2.82795082 3.18358215 -2.76586914 1.11352539 C-1.76586914 0.11352539 -1.76586914 0.11352539 0 0 Z " fill="#6024B7" transform="translate(75.765869140625,174.886474609375)"/>
<path d="M0 0 C1.32 0.33 2.64 0.66 4 1 C4.02887814 4.47914941 4.04675687 7.95826831 4.0625 11.4375 C4.07087891 12.43072266 4.07925781 13.42394531 4.08789062 14.44726562 C4.09272461 15.86362305 4.09272461 15.86362305 4.09765625 17.30859375 C4.10551147 18.62041626 4.10551147 18.62041626 4.11352539 19.95874023 C4 22 4 22 3 23 C1.36527118 23.08700342 -0.27314055 23.10701063 -1.91015625 23.09765625 C-2.89951172 23.09443359 -3.88886719 23.09121094 -4.90820312 23.08789062 C-5.94912109 23.07951172 -6.99003906 23.07113281 -8.0625 23.0625 C-9.10728516 23.05798828 -10.15207031 23.05347656 -11.22851562 23.04882812 C-13.8190666 23.03699913 -16.40950559 23.02051689 -19 23 C-19 22.67 -19 22.34 -19 22 C-12.73 22 -6.46 22 0 22 C0 21.01 0 20.02 0 19 C-4.95 19 -9.9 19 -15 19 C-15 18.67 -15 18.34 -15 18 C-10.38 18 -5.76 18 -1 18 C-1 13.38 -1 8.76 -1 4 C-0.34 4.33 0.32 4.66 1 5 C1 9.62 1 14.24 1 19 C1.66 19 2.32 19 3 19 C3 13.39 3 7.78 3 2 C2.01 2 1.02 2 0 2 C0 1.34 0 0.68 0 0 Z " fill="#5E21BC" transform="translate(112,119)"/>
<path d="M0 0 C0.99 0 1.98 0 3 0 C2.93123657 4.37882456 2.84332917 8.75671521 2.73754883 13.13476562 C2.70426537 14.62456572 2.67624403 16.11449295 2.65356445 17.60449219 C2.62007929 19.74469252 2.56777211 21.88372419 2.51171875 24.0234375 C2.48553467 25.31169434 2.45935059 26.59995117 2.43237305 27.92724609 C2.28968994 28.94125488 2.14700684 29.95526367 2 31 C1.01 31.66 0.02 32.32 -1 33 C-1.02473064 28.78247482 -1.04287453 24.56498814 -1.05493164 20.34741211 C-1.05995842 18.91283432 -1.06678079 17.47826164 -1.07543945 16.04370117 C-1.08757752 13.98094418 -1.09324486 11.91825496 -1.09765625 9.85546875 C-1.10289307 8.61434326 -1.10812988 7.37321777 -1.11352539 6.09448242 C-1 3 -1 3 0 0 Z " fill="#7116F0" transform="translate(75,177)"/>
<path d="M0 0 C0 0.99 0 1.98 0 3 C-5.61 3 -11.22 3 -17 3 C-16.92110571 7.8016221 -16.92110571 7.8016221 -16.81982422 12.6027832 C-16.78900527 16.31447871 -16.89022442 17.83533664 -19 21 C-21.24658203 21.34057617 -21.24658203 21.34057617 -24.0078125 21.29296875 C-24.99394531 21.28330078 -25.98007813 21.27363281 -26.99609375 21.26367188 C-28.02863281 21.23853516 -29.06117187 21.21339844 -30.125 21.1875 C-31.68541016 21.16719727 -31.68541016 21.16719727 -33.27734375 21.14648438 C-35.85207627 21.11105228 -38.4257833 21.06165221 -41 21 C-41 20.67 -41 20.34 -41 20 C-34.07 20 -27.14 20 -20 20 C-19.67 13.73 -19.34 7.46 -19 1 C-12.73 0.67 -6.46 0.34 0 0 Z " fill="#1C0440" transform="translate(116,198)"/>
<path d="M0 0 C2.97 0 5.94 0 9 0 C9 3.3 9 6.6 9 10 C6.03 10 3.06 10 0 10 C0 6.7 0 3.4 0 0 Z " fill="#131213" transform="translate(100,125)"/>
<path d="M0 0 C0.66 0.33 1.32 0.66 2 1 C2 14.86 2 28.72 2 43 C1.01 43 0.02 43 -1 43 C-1.02464574 37.03686834 -1.042834 31.07376605 -1.05493164 25.1105957 C-1.05997278 23.08031702 -1.06680557 21.05004198 -1.07543945 19.01977539 C-1.08751467 16.10822653 -1.09323034 13.1967255 -1.09765625 10.28515625 C-1.10281754 9.3716188 -1.10797882 8.45808136 -1.11329651 7.51686096 C-1.11349168 5.34424573 -1.06211805 3.17172704 -1 1 C-0.67 0.67 -0.34 0.34 0 0 Z " fill="#19063A" transform="translate(72,175)"/>
<path d="M0 0 C0.99 0 1.98 0 3 0 C4.62013634 5.5002948 4.60208025 11.31543215 5 17 C9.29 17.33 13.58 17.66 18 18 C18 18.33 18 18.66 18 19 C14.7 19 11.4 19 8 19 C8 19.66 8 20.32 8 21 C5.69 21 3.38 21 1 21 C0.67 14.07 0.34 7.14 0 0 Z " fill="#6D1AE5" transform="translate(168,196)"/>
<path d="M0 0 C0.33 0 0.66 0 1 0 C1.1953125 6.0546875 1.1953125 6.0546875 1 8 C0.34 8.66 -0.32 9.32 -1 10 C0.98 10.33 2.96 10.66 5 11 C5 11.99 5 12.98 5 14 C3.02 14 1.04 14 -1 14 C-1 13.34 -1 12.68 -1 12 C-1.99 12 -2.98 12 -4 12 C-4 11.34 -4 10.68 -4 10 C-23.305 9.505 -23.305 9.505 -43 9 C-43 8.67 -43 8.34 -43 8 C-29.14 7.67 -15.28 7.34 -1 7 C-0.67 4.69 -0.34 2.38 0 0 Z " fill="#1E0B2E" transform="translate(155,96)"/>
<path d="M0 0 C0.33 0.99 0.66 1.98 1 3 C-4.94 3 -10.88 3 -17 3 C-17 4.65 -17 6.3 -17 8 C-16.34 8.33 -15.68 8.66 -15 9 C-14.64587656 10.32796291 -14.31478446 11.66216607 -14 13 C-13.01 14.485 -13.01 14.485 -12 16 C-11.8046875 18.48046875 -11.8046875 18.48046875 -11.875 21.1875 C-11.89304687 22.08855469 -11.91109375 22.98960938 -11.9296875 23.91796875 C-11.96449219 24.94857422 -11.96449219 24.94857422 -12 26 C-12.66 26 -13.32 26 -14 26 C-14.33 23.69 -14.66 21.38 -15 19 C-16.98 19.99 -16.98 19.99 -19 21 C-18.67 14.73 -18.34 8.46 -18 2 C-12.06 2 -6.12 2 0 2 C0 1.34 0 0.68 0 0 Z " fill="#190B2F" transform="translate(96,102)"/>
<path d="M0 0 C0 1.65 0 3.3 0 5 C-0.5775 4.814375 -1.155 4.62875 -1.75 4.4375 C-3.92476294 3.84398084 -3.92476294 3.84398084 -5.734375 4.46484375 C-8.69327985 5.16375748 -11.4620955 5.13196767 -14.5 5.125 C-15.6240625 5.12757813 -16.748125 5.13015625 -17.90625 5.1328125 C-20.50216992 5.02137149 -22.5303489 4.71239935 -25 4 C-27.33094534 3.6503582 -29.66404762 3.31445513 -32 3 C-32 2.34 -32 1.68 -32 1 C-31.22285645 1.00523682 -30.44571289 1.01047363 -29.64501953 1.01586914 C-26.13835451 1.03660156 -22.63170237 1.04964821 -19.125 1.0625 C-17.90167969 1.07087891 -16.67835937 1.07925781 -15.41796875 1.08789062 C-14.25136719 1.09111328 -13.08476563 1.09433594 -11.8828125 1.09765625 C-10.80402832 1.10289307 -9.72524414 1.10812988 -8.61376953 1.11352539 C-5.29677579 0.96945645 -3.51386944 0 0 0 Z " fill="#111007" transform="translate(64,162)"/>
<path d="M0 0 C2.97 0 5.94 0 9 0 C9 0.66 9 1.32 9 2 C10.32 2 11.64 2 13 2 C13 3.98 13 5.96 13 8 C19.93 8.495 19.93 8.495 27 9 C27 9.33 27 9.66 27 10 C19.74 10 12.48 10 5 10 C5.66 9.67 6.32 9.34 7 9 C7 7.02 7 5.04 7 3 C4.36 2.67 1.72 2.34 -1 2 C-0.67 1.34 -0.34 0.68 0 0 Z " fill="#171024" transform="translate(145,108)"/>
<path d="M0 0 C12.21 0 24.42 0 37 0 C37 0.66 37 1.32 37 2 C36.01 2 35.02 2 34 2 C33.67 2.99 33.34 3.98 33 5 C22.11 4.67 11.22 4.34 0 4 C0 3.67 0 3.34 0 3 C10.56 3 21.12 3 32 3 C32 2.34 32 1.68 32 1 C21.44 1 10.88 1 0 1 C0 0.67 0 0.34 0 0 Z " fill="#691FD5" transform="translate(192,118)"/>
<path d="M0 0 C0.33 0 0.66 0 1 0 C1.33 4.95 1.66 9.9 2 15 C2.99 15 3.98 15 5 15 C5 14.01 5 13.02 5 12 C10.94 12 16.88 12 23 12 C23 12.33 23 12.66 23 13 C18.05 13.33 13.1 13.66 8 14 C11.63 14.33 15.26 14.66 19 15 C19 15.66 19 16.32 19 17 C16.02077407 17.02683987 13.04178705 17.04676037 10.0625 17.0625 C8.78729492 17.07506836 8.78729492 17.07506836 7.48632812 17.08789062 C6.67744141 17.09111328 5.86855469 17.09433594 5.03515625 17.09765625 C4.2862915 17.10289307 3.53742676 17.10812988 2.76586914 17.11352539 C1 17 1 17 0 16 C-0.07319621 13.30345146 -0.09242537 10.63308542 -0.0625 7.9375 C-0.05798828 7.17888672 -0.05347656 6.42027344 -0.04882812 5.63867188 C-0.0370068 3.75908129 -0.01907078 1.87953101 0 0 Z " fill="#5F22B9" transform="translate(73,144)"/>
<path d="M0 0 C0.66 0 1.32 0 2 0 C2 5.28 2 10.56 2 16 C2.99 16 3.98 16 5 16 C5 16.66 5 17.32 5 18 C15.89 18 26.78 18 38 18 C38 18.33 38 18.66 38 19 C25.79 19 13.58 19 1 19 C-0.25433458 15.23699626 -0.10695422 11.72789091 -0.0625 7.8125 C-0.05798828 7.06291016 -0.05347656 6.31332031 -0.04882812 5.54101562 C-0.03706354 3.69397617 -0.01912865 1.84697787 0 0 Z " fill="#6025B3" transform="translate(187,104)"/>
<path d="M0 0 C10.89 0 21.78 0 33 0 C33 0.66 33 1.32 33 2 C23.43 2 13.86 2 4 2 C4 2.66 4 3.32 4 4 C2.35 4 0.7 4 -1 4 C-0.67 2.68 -0.34 1.36 0 0 Z " fill="#6523C7" transform="translate(116,99)"/>
<path d="M0 0 C3.96 0 7.92 0 12 0 C12.0269501 2.93756119 12.04681474 5.87487555 12.0625 8.8125 C12.07087891 9.64587891 12.07925781 10.47925781 12.08789062 11.33789062 C12.09111328 12.14033203 12.09433594 12.94277344 12.09765625 13.76953125 C12.10289307 14.50792236 12.10812988 15.24631348 12.11352539 16.00708008 C12 18 12 18 11 21 C10.01 21 9.02 21 8 21 C8.165 19.865625 8.33 18.73125 8.5 17.5625 C9.0774391 13.0161837 9.07154982 8.57918831 9 4 C5.7 3.34 2.4 2.68 -1 2 C-0.67 1.34 -0.34 0.68 0 0 Z " fill="#6E17ED" transform="translate(160,119)"/>
<path d="M0 0 C0.99 0.495 0.99 0.495 2 1 C2.33 1.99 2.66 2.98 3 4 C3.96421875 4.06058594 4.9284375 4.12117187 5.921875 4.18359375 C7.18515625 4.26738281 8.4484375 4.35117188 9.75 4.4375 C11.62945312 4.55931641 11.62945312 4.55931641 13.546875 4.68359375 C16.18317553 4.92515522 18.48037294 5.24283934 21 6 C21 6.99 21 7.98 21 9 C14.07 8.67 7.14 8.34 0 8 C0 5.36 0 2.72 0 0 Z " fill="#6D19EA" transform="translate(170,171)"/>
<path d="M0 0 C0 0.66 0 1.32 0 2 C-8.36079398 3.00472532 -16.71247413 3.30795433 -25.125 3.5625 C-26.47657242 3.60581131 -27.82813506 3.64942902 -29.1796875 3.69335938 C-32.45304194 3.79857434 -35.72646125 3.90071479 -39 4 C-39 3.01 -39 2.02 -39 1 C-33.92799335 0.85705161 -28.85597177 0.7146493 -23.78393555 0.57275391 C-22.05834539 0.52440169 -20.33275941 0.47590002 -18.60717773 0.42724609 C-16.12745225 0.35735449 -13.64771224 0.28799964 -11.16796875 0.21875 C-10.39599655 0.19687622 -9.62402435 0.17500244 -8.82865906 0.15246582 C-5.88459636 0.07066058 -2.94536935 0 0 0 Z " fill="#7113F6" transform="translate(76,118)"/>
<path d="M0 0 C2.81256281 -0.02684312 5.62487241 -0.04676188 8.4375 -0.0625 C9.23994141 -0.07087891 10.04238281 -0.07925781 10.86914062 -0.08789062 C12.91295221 -0.0965143 14.95683902 -0.0522815 17 0 C18 1 18 1 18.11352539 2.76586914 C18.10828857 3.51473389 18.10305176 4.26359863 18.09765625 5.03515625 C18.09443359 5.84404297 18.09121094 6.65292969 18.08789062 7.48632812 C18.07951172 8.33646484 18.07113281 9.18660156 18.0625 10.0625 C18.05798828 10.91650391 18.05347656 11.77050781 18.04882812 12.65039062 C18.03700373 14.76695663 18.01906769 16.88348685 18 19 C17.67 19 17.34 19 17 19 C16.67 13.39 16.34 7.78 16 2 C15.01 2 14.02 2 13 2 C13 2.99 13 3.98 13 5 C7.06 5 1.12 5 -5 5 C-5 4.67 -5 4.34 -5 4 C-4.00097656 3.95101562 -3.00195312 3.90203125 -1.97265625 3.8515625 C-0.68230469 3.77679688 0.60804688 3.70203125 1.9375 3.625 C3.22527344 3.55539063 4.51304687 3.48578125 5.83984375 3.4140625 C6.88269531 3.27742187 7.92554688 3.14078125 9 3 C9.33 2.34 9.66 1.68 10 1 C6.7 1 3.4 1 0 1 C0 0.67 0 0.34 0 0 Z " fill="#6122B7" transform="translate(155,194)"/>
<path d="M0 0 C0.33 0 0.66 0 1 0 C1.33 1.65 1.66 3.3 2 5 C6.95 5.33 11.9 5.66 17 6 C16.01 6.33 15.02 6.66 14 7 C14 7.66 14 8.32 14 9 C15.32 9.33 16.64 9.66 18 10 C12.39 10 6.78 10 1 10 C-0.60725635 6.78548731 -0.05748185 3.56387464 0 0 Z " fill="#19111E" transform="translate(174,164)"/>
<path d="M0 0 C4.95 0 9.9 0 15 0 C15 5.94 15 11.88 15 18 C14.34 18 13.68 18 13 18 C12.93941406 16.92878906 12.87882813 15.85757813 12.81640625 14.75390625 C12.73201463 13.35675609 12.64736594 11.95962143 12.5625 10.5625 C12.52318359 9.85544922 12.48386719 9.14839844 12.44335938 8.41992188 C12.52375562 4.91309581 12.52375562 4.91309581 11 2 C9.31816052 1.76712992 7.6287584 1.58735834 5.9375 1.4375 C4.308125 1.293125 2.67875 1.14875 1 1 C1 6.28 1 11.56 1 17 C0.67 17 0.34 17 0 17 C0 11.39 0 5.78 0 0 Z " fill="#2A0C52" transform="translate(192,142)"/>
<path d="M0 0 C0 0.99 0 1.98 0 3 C-6.6 3.66 -13.2 4.32 -20 5 C-20.33 5.99 -20.66 6.98 -21 8 C-21 5.69 -21 3.38 -21 1 C-18.25008168 0.83188272 -15.50007888 0.6654519 -12.75 0.5 C-11.97269531 0.45230469 -11.19539062 0.40460938 -10.39453125 0.35546875 C-9.26337891 0.28779297 -9.26337891 0.28779297 -8.109375 0.21875 C-7.41811523 0.17685547 -6.72685547 0.13496094 -6.01464844 0.09179688 C-4.01161035 0.00052902 -2.0051163 0 0 0 Z " fill="#6E18E7" transform="translate(191,156)"/>
<path d="M0 0 C0.99 0 1.98 0 3 0 C2.67 10.56 2.34 21.12 2 32 C1.34 32 0.68 32 0 32 C0 21.44 0 10.88 0 0 Z " fill="#7015F4" transform="translate(151,64)"/>
<path d="M0 0 C0.66 0 1.32 0 2 0 C2 7.92 2 15.84 2 24 C-0.88211302 24.96070434 -2.69850044 25.10581883 -5.6875 25.0625 C-6.89986328 25.04896484 -6.89986328 25.04896484 -8.13671875 25.03515625 C-8.75160156 25.02355469 -9.36648437 25.01195312 -10 25 C-10 24.67 -10 24.34 -10 24 C-8.88625 23.87625 -7.7725 23.7525 -6.625 23.625 C-2.96896323 23.3534187 -2.96896323 23.3534187 -1 21 C-0.62995706 18.77341846 -0.62995706 18.77341846 -0.5859375 16.2109375 C-0.54726562 15.26992187 -0.50859375 14.32890625 -0.46875 13.359375 C-0.4378125 12.37453125 -0.406875 11.3896875 -0.375 10.375 C-0.31699219 8.88613281 -0.31699219 8.88613281 -0.2578125 7.3671875 C-0.1633686 4.91164615 -0.07780125 2.4561159 0 0 Z " fill="#6F16F3" transform="translate(113,172)"/>
<path d="M0 0 C1.32 0 2.64 0 4 0 C4.33 6.6 4.66 13.2 5 20 C3.68 19.67 2.36 19.34 1 19 C0.67 12.73 0.34 6.46 0 0 Z " fill="#6E18EB" transform="translate(188,101)"/>
<path d="M0 0 C0.66 0 1.32 0 2 0 C2 5.28 2 10.56 2 16 C6.29 16.33 10.58 16.66 15 17 C15 17.66 15 18.32 15 19 C13.43759968 19.02730408 11.8750573 19.04653226 10.3125 19.0625 C9.44238281 19.07410156 8.57226562 19.08570312 7.67578125 19.09765625 C5 19 5 19 0 18 C0 12.06 0 6.12 0 0 Z " fill="#7015F6" transform="translate(75,64)"/>
<path d="M0 0 C0.33 0 0.66 0 1 0 C1 11.88 1 23.76 1 36 C-5.27 36 -11.54 36 -18 36 C-18 35.01 -18 34.02 -18 33 C-16.68 33.33 -15.36 33.66 -14 34 C-7.07 34.495 -7.07 34.495 0 35 C0 23.45 0 11.9 0 0 Z " fill="#19063C" transform="translate(110,158)"/>
<path d="M0 0 C0.33 0 0.66 0 1 0 C1 4.95 1 9.9 1 15 C1.66 15 2.32 15 3 15 C3.33 13.68 3.66 12.36 4 11 C4.07622858 14.96388638 3.9681648 18.1273408 3 22 C7.95 22 12.9 22 18 22 C18 22.33 18 22.66 18 23 C15.18743719 23.02684312 12.37512759 23.04676188 9.5625 23.0625 C8.76005859 23.07087891 7.95761719 23.07925781 7.13085938 23.08789062 C5.08704779 23.0965143 3.04316098 23.0522815 1 23 C0 22 0 22 -0.11352539 19.86694336 C-0.10828857 18.95050049 -0.10305176 18.03405762 -0.09765625 17.08984375 C-0.09443359 16.10048828 -0.09121094 15.11113281 -0.08789062 14.09179688 C-0.07951172 13.05087891 -0.07113281 12.00996094 -0.0625 10.9375 C-0.05798828 9.89271484 -0.05347656 8.84792969 -0.04882812 7.77148438 C-0.03699913 5.1809334 -0.02051689 2.59049441 0 0 Z " fill="#5E1BB6" transform="translate(168,81)"/>
<path d="M0 0 C6.93 0 13.86 0 21 0 C21 0.33 21 0.66 21 1 C15.39 1 9.78 1 4 1 C4 1.66 4 2.32 4 3 C4.99 3.33 5.98 3.66 7 4 C6.67 4.66 6.34 5.32 6 6 C2.04 6 -1.92 6 -6 6 C-6 5.34 -6 4.68 -6 4 C-3.69 4 -1.38 4 1 4 C0.67 2.68 0.34 1.36 0 0 Z " fill="#1A0E2C" transform="translate(150,142)"/>
<path d="M0 0 C0.33 0 0.66 0 1 0 C1.33 8.91 1.66 17.82 2 27 C1.01 27 0.02 27 -1 27 C-1.02886537 22.68751391 -1.04675255 18.37505238 -1.0625 14.0625 C-1.07087891 12.83080078 -1.07925781 11.59910156 -1.08789062 10.33007812 C-1.09111328 9.16025391 -1.09433594 7.99042969 -1.09765625 6.78515625 C-1.10289307 5.70113525 -1.10812988 4.61711426 -1.11352539 3.50024414 C-1 1 -1 1 0 0 Z " fill="#6F16F5" transform="translate(152,170)"/>
<path d="M0 0 C0 0.99 0 1.98 0 3 C-7.92 3.33 -15.84 3.66 -24 4 C-24 3.01 -24 2.02 -24 1 C-20.75008318 0.83168475 -17.50005436 0.66563638 -14.25 0.5 C-13.32960938 0.45230469 -12.40921875 0.40460938 -11.4609375 0.35546875 C-10.12675781 0.28779297 -10.12675781 0.28779297 -8.765625 0.21875 C-7.94868164 0.17685547 -7.13173828 0.13496094 -6.29003906 0.09179688 C-4.19481876 0.00780937 -2.09690296 0 0 0 Z " fill="#0D130A" transform="translate(96,219)"/>
<path d="M0 0 C0.99 0.33 1.98 0.66 3 1 C3 8.59 3 16.18 3 24 C1.68 24 0.36 24 -1 24 C-0.67 16.08 -0.34 8.16 0 0 Z " fill="#1B0D37" transform="translate(147,118)"/>
<path d="M0 0 C0.33 0 0.66 0 1 0 C1 9.9 1 19.8 1 30 C1.66 30 2.32 30 3 30 C4.125 34.75 4.125 34.75 3 37 C2.01 37 1.02 37 0 37 C0 24.79 0 12.58 0 0 Z " fill="#6C1ADE" transform="translate(112,66)"/>
<path d="M0 0 C5.28 0 10.56 0 16 0 C16 0.99 16 1.98 16 3 C10.72 3 5.44 3 0 3 C0 2.01 0 1.02 0 0 Z " fill="#7016EC" transform="translate(96,138)"/>
<path d="M0 0 C6.93 0 13.86 0 21 0 C21 0.66 21 1.32 21 2 C18.25008168 2.16811728 15.50007888 2.3345481 12.75 2.5 C11.97269531 2.54769531 11.19539062 2.59539062 10.39453125 2.64453125 C9.64042969 2.68964844 8.88632813 2.73476562 8.109375 2.78125 C7.41811523 2.82314453 6.72685547 2.86503906 6.01464844 2.90820312 C4.01161035 2.99947098 2.0051163 3 0 3 C0 2.01 0 1.02 0 0 Z " fill="#7015F1" transform="translate(170,81)"/>
<path d="M0 0 C5.28 0 10.56 0 16 0 C16 0.99 16 1.98 16 3 C11.05 3 6.1 3 1 3 C0.67 2.01 0.34 1.02 0 0 Z " fill="#6F17EC" transform="translate(79,214)"/>
<path d="M0 0 C2.12534659 0.14069196 4.25027529 0.28770921 6.375 0.4375 C8.15003906 0.55931641 8.15003906 0.55931641 9.9609375 0.68359375 C13 1 13 1 15 2 C15 2.66 15 3.32 15 4 C10.05 4 5.1 4 0 4 C0 2.68 0 1.36 0 0 Z " fill="#6C18E8" transform="translate(37,156)"/>
<path d="M0 0 C0.66 0 1.32 0 2 0 C2.19412181 1.47831221 2.38012131 2.95769316 2.5625 4.4375 C2.66691406 5.26121094 2.77132812 6.08492188 2.87890625 6.93359375 C2.91886719 7.61550781 2.95882812 8.29742187 3 9 C2.67 9.33 2.34 9.66 2 10 C1.84213692 11.85174706 1.74892644 13.7090911 1.68359375 15.56640625 C1.64169922 16.69111328 1.59980469 17.81582031 1.55664062 18.97460938 C1.51732422 20.15861328 1.47800781 21.34261719 1.4375 22.5625 C1.39431641 23.75037109 1.35113281 24.93824219 1.30664062 26.16210938 C1.20016454 29.10794784 1.09815159 32.0538743 1 35 C0.67 35 0.34 35 0 35 C0 23.45 0 11.9 0 0 Z " fill="#1F1129" transform="translate(231,118)"/>
<path d="M0 0 C4.95 0 9.9 0 15 0 C15 2.64 15 5.28 15 8 C14.67 7.01 14.34 6.02 14 5 C13.01 4.67 12.02 4.34 11 4 C11 3.34 11 2.68 11 2 C7.04 2 3.08 2 -1 2 C-0.67 1.34 -0.34 0.68 0 0 Z " fill="#6D19E8" transform="translate(81,157)"/>
<path d="M0 0 C1.32 0 2.64 0 4 0 C4 3.63 4 7.26 4 11 C2.02 11 0.04 11 -2 11 C-2 10.01 -2 9.02 -2 8 C-1.34 7.67 -0.68 7.34 0 7 C0 4.69 0 2.38 0 0 Z " fill="#0D1913" transform="translate(162,125)"/>
<path d="M0 0 C6.27 0 12.54 0 19 0 C19 0.33 19 0.66 19 1 C13.72 1 8.44 1 3 1 C3 1.66 3 2.32 3 3 C2.34 3 1.68 3 1 3 C1 7.95 1 12.9 1 18 C0.67 18 0.34 18 0 18 C0 12.06 0 6.12 0 0 Z " fill="#6620CF" transform="translate(93,118)"/>
<path d="M0 0 C0 5.28 0 10.56 0 16 C-0.66 16 -1.32 16 -2 16 C-2 12.04 -2 8.08 -2 4 C-2.66 4 -3.32 4 -4 4 C-4 3.01 -4 2.02 -4 1 C-2 0 -2 0 0 0 Z " fill="#0C180F" transform="translate(166,201)"/>
<path d="M0 0 C-0.64453125 0.37769531 -1.2890625 0.75539062 -1.953125 1.14453125 C-4.24029762 2.86059908 -4.24029762 2.86059908 -4.609375 5.69921875 C-4.65578125 6.68535156 -4.7021875 7.67148438 -4.75 8.6875 C-4.80671875 9.68136719 -4.8634375 10.67523438 -4.921875 11.69921875 C-4.94765625 12.45847656 -4.9734375 13.21773437 -5 14 C-5.66 14 -6.32 14 -7 14 C-7.33 9.71 -7.66 5.42 -8 1 C-5.07175348 0.02391783 -3.04386724 -0.08226668 0 0 Z " fill="#6F1AE8" transform="translate(101,196)"/>
<path d="M0 0 C0.66 0 1.32 0 2 0 C2 1.65 2 3.3 2 5 C-2.95 5 -7.9 5 -13 5 C-13 4.34 -13 3.68 -13 3 C-9.04 3 -5.08 3 -1 3 C-0.67 2.01 -0.34 1.02 0 0 Z " fill="#6D17F1" transform="translate(93,174)"/>
<path d="M0 0 C1.98 0.99 1.98 0.99 4 2 C3.67 5.63 3.34 9.26 3 13 C2.01 13.33 1.02 13.66 0 14 C0 9.38 0 4.76 0 0 Z " fill="#131008" transform="translate(100,202)"/>
<path d="M0 0 C4.29 0.66 8.58 1.32 13 2 C13 2.66 13 3.32 13 4 C8.38 4 3.76 4 -1 4 C-0.67 2.68 -0.34 1.36 0 0 Z " fill="#6D17F4" transform="translate(152,137)"/>
<path d="M0 0 C0.91007812 0.10183594 1.82015625 0.20367187 2.7578125 0.30859375 C3.45648438 0.39238281 4.15515625 0.47617188 4.875 0.5625 C4.875 1.8825 4.875 3.2025 4.875 4.5625 C-1.065 3.5725 -1.065 3.5725 -7.125 2.5625 C-7.125 1.9025 -7.125 1.2425 -7.125 0.5625 C-4.50184968 -0.74907516 -2.89466564 -0.33399988 0 0 Z " fill="#7015F0" transform="translate(71.125,138.4375)"/>
<path d="M0 0 C3.63 0.33 7.26 0.66 11 1 C10.67 1.99 10.34 2.98 10 4 C5.71 4 1.42 4 -3 4 C-2.01 3.67 -1.02 3.34 0 3 C0 2.01 0 1.02 0 0 Z " fill="#6B19E7" transform="translate(154,194)"/>
<path d="M0 0 C0.66 0 1.32 0 2 0 C1 3 1 3 -2 5 C-4.26831055 5.13525391 -4.26831055 5.13525391 -6.88671875 4.9765625 C-7.82451172 4.925 -8.76230469 4.8734375 -9.72851562 4.8203125 C-10.70498047 4.75585938 -11.68144531 4.69140625 -12.6875 4.625 C-14.16959961 4.53992188 -14.16959961 4.53992188 -15.68164062 4.453125 C-18.12182885 4.31166481 -20.56098591 4.16025726 -23 4 C-23 3.67 -23 3.34 -23 3 C-22.37432129 2.98018066 -21.74864258 2.96036133 -21.10400391 2.93994141 C-18.27723481 2.84485774 -15.45122185 2.73511254 -12.625 2.625 C-11.64015625 2.5940625 -10.6553125 2.563125 -9.640625 2.53125 C-8.69960937 2.49257812 -7.75859375 2.45390625 -6.7890625 2.4140625 C-5.48509521 2.36693115 -5.48509521 2.36693115 -4.15478516 2.31884766 C-1.79038206 2.18770567 -1.79038206 2.18770567 0 0 Z " fill="#1C141E" transform="translate(231,160)"/>
<path d="M0 0 C0.33 0 0.66 0 1 0 C1.33 4.29 1.66 8.58 2 13 C2.33 10.03 2.66 7.06 3 4 C3.33 4 3.66 4 4 4 C4 7.96 4 11.92 4 16 C2.68 16.33 1.36 16.66 0 17 C0 11.39 0 5.78 0 0 Z " fill="#681FD3" transform="translate(150,121)"/>
<path d="M0 0 C0.66 0 1.32 0 2 0 C2 4.95 2 9.9 2 15 C1.01 15 0.02 15 -1 15 C-0.67 10.05 -0.34 5.1 0 0 Z " fill="#7214F6" transform="translate(55,144)"/>
<path d="M0 0 C5.28 0.33 10.56 0.66 16 1 C16 1.66 16 2.32 16 3 C10.72 3 5.44 3 0 3 C0 2.01 0 1.02 0 0 Z " fill="#6C18EC" transform="translate(208,156)"/>
<path d="M0 0 C0 0.66 0 1.32 0 2 C1.98 2 3.96 2 6 2 C6 2.33 6 2.66 6 3 C0.63904667 4.12862175 -4.55306686 4.09688221 -10 4 C-10 3.01 -10 2.02 -10 1 C-2.25 0 -2.25 0 0 0 Z " fill="#1A191E" transform="translate(226,111)"/>
<path d="M0 0 C1.32 0 2.64 0 4 0 C4 2.64 4 5.28 4 8 C3.01 8.33 2.02 8.66 1 9 C0.67 6.03 0.34 3.06 0 0 Z " fill="#6E18E4" transform="translate(92,81)"/>
<path d="M0 0 C0.33 0.66 0.66 1.32 1 2 C1.66 2 2.32 2 3 2 C2.88648483 3.81325551 2.75887039 5.62563357 2.625 7.4375 C2.55539063 8.44683594 2.48578125 9.45617187 2.4140625 10.49609375 C2.27742187 11.32238281 2.14078125 12.14867187 2 13 C1.01 13.495 1.01 13.495 0 14 C0 9.38 0 4.76 0 0 Z " fill="#6B17EE" transform="translate(151,121)"/>
<path d="M0 0 C0.99 0 1.98 0 3 0 C3.33 2.97 3.66 5.94 4 9 C2.68 9 1.36 9 0 9 C0 6.03 0 3.06 0 0 Z " fill="#111B05" transform="translate(162,95)"/>
<path d="M0 0 C0 2.64 0 5.28 0 8 C-3.63 8 -7.26 8 -11 8 C-11 7.67 -11 7.34 -11 7 C-7.7 7 -4.4 7 -1 7 C-1 6.34 -1 5.68 -1 5 C-1.66 5 -2.32 5 -3 5 C-3 3.68 -3 2.36 -3 1 C-1 0 -1 0 0 0 Z " fill="#6B1BE6" transform="translate(77,113)"/>
<path d="M0 0 C-0.66 1.98 -1.32 3.96 -2 6 C-3.32 6 -4.64 6 -6 6 C-6 4.35 -6 2.7 -6 1 C-3.92446352 0.4465236 -2.15634036 0 0 0 Z " fill="#11190B" transform="translate(150,56)"/>
</svg>
