<svg xmlns="http://www.w3.org/2000/svg" fill="none" viewBox="144 71 48 48"><g clip-path="url(#a)"><rect width="48" height="48" x="144" y="71" fill="#000" rx="24"/><path fill="#fff" fill-rule="evenodd" d="m154.44 80.39 7.31 1.66c.09.01.15.1.15.18v25.69a.2.2 0 0 1-.16.19l-7.3 1.5a.2.2 0 0 1-.24-.19V80.58a.2.2 0 0 1 .24-.2Zm27.12 0-7.31 1.66a.19.19 0 0 0-.15.18v25.69c0 .09.07.17.16.19l7.3 1.5a.2.2 0 0 0 .24-.19V80.58a.2.2 0 0 0-.24-.2Zm-9.7 10.84v7.53h-7.71v-7.7h7.7v.17Z" clip-rule="evenodd"/><path fill="#fff" fill-rule="evenodd" d="m161.12 82.7-6.14-1.39v27.39l6.14-1.26zm13.76 0v24.74l6.14 1.26V81.31l-6.14 1.4Zm-13.13-.66c.09.02.15.1.15.2v25.68a.2.2 0 0 1-.16.19l-7.3 1.5a.2.2 0 0 1-.24-.19V80.58a.2.2 0 0 1 .24-.2l7.31 1.67Zm19.81 27.57-7.3-1.5a.2.2 0 0 1-.16-.2V82.23c0-.09.06-.17.15-.19l7.3-1.65a.2.2 0 0 1 .25.19v28.84a.2.2 0 0 1-.24.2Zm-10.5-11.64v-6.13h-6.13v6.14h6.14Zm-6.91.79v-7.7h7.7v7.7z" clip-rule="evenodd"/></g><defs><clipPath id="a"><path fill="#fff" d="M144 71h48v48h-48z"/></clipPath></defs></svg>