<svg xmlns="http://www.w3.org/2000/svg" viewBox="2.8 2.8 589.6 589.6"><circle cx="297.6" cy="297.6" r="294.8"/><path d="M457.3 235 311.5 129c-8.3-6-19.4-6-27.7 0L138 235a23.5 23.5 0 0 0-8.6 26.3l55.7 171.4a23.5 23.5 0 0 0 22.5 16.3h180.1c10.3 0 19.3-6.6 22.5-16.3l55.6-171.4c3.2-9.7-.2-20.3-8.5-26.4m-203.8-14.6-6.2-40 48.2-35.1a3.5 3.5 0 0 1 4.2 0l80.7 58.6-26.8 13.6h-1l-54.8-40L283 188a21 21 0 0 0-8.4 20.2l5.4 35q0 .5-.4.8l-50.9 37-25-5.2a1 1 0 0 1-.7-.6l-1.2-3.4 43.2-31.4a21 21 0 0 0 8.4-20.1m74.7 122h-50q-4.5 0-8.5 1.8l-15.3-47q-1.2-4-4-7l41.1-29.9a21 21 0 0 0 5-5.3l40 29a21 21 0 0 0 7.5 3.3L329 333q-1.4 4.6-.8 9.4M148.5 255c-.5-1.4 0-3 1.3-4l79.2-57.5 4.7 29.8q0 .6-.4.9l-54.7 40.4 5.4 16.8a21 21 0 0 0 15.7 14l35 7.3q.5 0 .7.6l19.2 59.2-12.2 21.5q-.3.5-.8.4h-3.1l-16.7-51.2a21 21 0 0 0-15.6-14l-39.5-8.2zm135.8 140L265.1 429h-57.5q-2.6-.1-3.4-2.4L173.8 333l28.3 5.9q.5 0 .7.6l20 65 18.8.1a21 21 0 0 0 18.2-10.6l17.7-31.1q.2-.5.7-.5h63.2l16 17.7q.4.3.2.8l-1.1 3.6h-54a21 21 0 0 0-18.2 10.6m106.8 31.4a3.5 3.5 0 0 1-3.4 2.4h-99.5l13.6-23.9q.2-.3.7-.4H371l5.8-17.4a21 21 0 0 0-4.4-20.6l-24-26.5a1 1 0 0 1-.2-.9l19-58 22.7-11.6q.4-.1.9.1l2.8 2-16.9 51.4a21 21 0 0 0 4.4 20.5l27.2 30zM446.8 255l-31.4 96.6-19.5-21.5a1 1 0 0 1-.2-.9l21-65.5-14.2-10.3a21 21 0 0 0-21.8-1.7l-31.5 16-1-.1-49.6-36-4.1-26.5q0-.5.3-.8l2.9-2 43.2 31.3a21 21 0 0 0 21.8 1.7l36-18.3 46.8 34q1.9 1.7 1.3 4" style="fill:#fff"/></svg>
