<svg xmlns="http://www.w3.org/2000/svg" width="1024" height="1024" fill="none" viewBox="0 0 1024 1024"><path fill="#fff" d="M0 0h1024v1024H0z"/><path fill="#000" d="M385.276 780.084a7.92 7.92 0 0 1-7.92 7.916H274.92a7.92 7.92 0 0 1-7.92-7.916V614.746a7.92 7.92 0 0 1 7.92-7.916h102.436a7.92 7.92 0 0 1 7.92 7.916zM274.92 568.747a7.92 7.92 0 0 1-7.92-7.916V376.832q0-76.829 51.535-128.33T446.949 197h130.103q76.88 0 128.413 51.502Q757 300.003 757 376.832v403.252a7.92 7.92 0 0 1-7.92 7.916H646.644a7.92 7.92 0 0 1-7.92-7.916V376.832q0-33.77-14.361-47.279-13.518-14.353-47.312-14.353H446.948q-33.793 0-48.156 14.353-13.516 13.51-13.516 47.279v183.999c0 4.372-3.547 7.916-7.921 7.916z"/></svg>