<svg xmlns="http://www.w3.org/2000/svg" fill="none" viewBox="64.2 40.5 71.8 117.1"><path fill="#6B6B6B" d="m100.1 40.5-.8 2.7v77.3l.8.8 35.9-21.2-36-59.6Z"/><path fill="#A2A2A2" d="M100.1 40.5 64.2 100l36 21.2V40.5Z"/><path fill="#4F4E4E" d="m100.1 128.1-.4.6v27.5l.4 1.3L136 107l-35.9 21.2Z"/><path fill="#A2A2A2" d="M100.1 157.5v-29.4L64.2 107l36 50.6Z"/><path fill="#797979" d="m100.1 121.3 35.9-21.2-36-16.3v37.5Z"/><path fill="#D4D4D4" d="m64.2 100 36 21.3V83.8l-36 16.3Z"/><g fill="#ACE730" style="mix-blend-mode:overlay"><path d="m100.1 40.5-.8 2.7v77.3l.8.8 35.9-21.2-36-59.6Z"/><path d="M100.1 40.5 64.2 100l36 21.2V40.5Zm0 87.6-.4.6v27.5l.4 1.3L136 107l-35.9 21.2Z"/><path d="M100.1 157.5v-29.4L64.2 107l36 50.6Zm0-36.2 35.9-21.2-36-16.3v37.5Z"/><path d="m64.2 100 36 21.3V83.8l-36 16.3Z"/></g></svg>