<?xml version="1.0" encoding="UTF-8"?>
<svg xmlns="http://www.w3.org/2000/svg" version="1.1" viewBox="0 0 576 576">
  <defs>
    <style>
      .cls-1 {
        fill: none;
        stroke: #7f1417;
        stroke-width: 4px;
      }

      .cls-1, .cls-2, .cls-3, .cls-4, .cls-5 {
        stroke-miterlimit: 10;
      }

      .cls-2 {
        fill: #7f1417;
      }

      .cls-2, .cls-3, .cls-4, .cls-5 {
        stroke: #ee2e2c;
      }

      .cls-3 {
        fill: #700f10;
      }

      .cls-4 {
        fill: #4c1211;
      }

      .cls-5 {
        fill: #9f2a29;
      }
    </style>
  </defs>
  <!-- Generator: Adobe Illustrator 28.7.1, SVG Export Plug-In . SVG Version: 1.2.0 Build 142)  -->
  <g>
    <g id="Layer_1">
      <g>
        <g>
          <polygon class="cls-2" points="287.96 80.43 285.16 89.95 285.16 366.21 287.96 369.01 416.2 293.21 287.96 80.43"/>
          <path class="cls-5" d="M287.96,80.43l-128.24,212.78,128.1,75.72c.06.04.14,0,.14-.08V80.43Z"/>
          <path class="cls-4" d="M287.96,393.29l-1.58,1.93v98.41l1.39,4.06c.08.23.39.27.53.08l127.97-180.23-128.31,75.76Z"/>
          <path class="cls-3" d="M287.96,497.67v-104.38l-128.24-75.76,127.91,180.25c.1.14.33.07.33-.1Z"/>
          <path class="cls-4" d="M288.68,368.59l126.87-74.99c.27-.16.25-.56-.04-.7l-127.55-57.98v133.26c0,.37.4.59.71.41Z"/>
          <path class="cls-3" d="M160.29,293.54l126.98,75.06c.3.18.69-.04.69-.39v-133.29l-127.64,58.02c-.25.11-.27.47-.03.61Z"/>
        </g>
        <polyline class="cls-1" points="159.73 305.1 287.96 381.15 416.27 305.1"/>
      </g>
    </g>
  </g>
</svg>