<svg xmlns="http://www.w3.org/2000/svg" width="86" height="86" fill="none" viewBox="0 0 86 86"><g clip-path="url(#a)"><rect width="84.751" height="84.751" x=".731" y=".306" fill="#B4F9BA" rx="42.376"/><path fill="#010101" d="m34.564 21.658 8.191-4.73a.76.76 0 0 1 .756 0l21.59 12.464a.76.76 0 0 1 .378.653l.03 8.573a.76.76 0 0 1-.38.657L56.95 44a.757.757 0 0 1-1.135-.653l-.027-7.693a.76.76 0 0 0-.379-.653L34.564 22.968a.756.756 0 0 1 0-1.31M29.272 60.49l-8.19-4.729a.75.75 0 0 1-.378-.655V30.177a.76.76 0 0 1 .377-.655l7.41-4.313a.75.75 0 0 1 .759 0l8.18 4.724a.758.758 0 0 1 .002 1.31l-6.648 3.869a.75.75 0 0 0-.377.655v24.07c0 .583-.63.946-1.135.654zm36.236-14.843v9.457a.75.75 0 0 1-.38.655L43.54 68.223a.75.75 0 0 1-.754 0l-7.44-4.261a.76.76 0 0 1-.381-.658V53.86a.758.758 0 0 1 1.132-.657l6.676 3.824a.76.76 0 0 0 .753 0L64.371 44.99a.756.756 0 0 1 1.135.655z"/></g><defs><clipPath id="a"><path fill="#fff" d="M.518.094h84.963v84.963H.518z"/></clipPath></defs></svg>