<svg xmlns="http://www.w3.org/2000/svg" width="1080" height="1080" fill="none" viewBox="0 0 1080 1080"><path fill="#000" d="M363.076 392.227s-.977 18.524-36.874 78.947c-41.576 70.018-45.481 151.978-3.017 220.4 89.521 144.245 332.481 141.52 422.556.089 34.832-54.707 44.816-117.479 32.924-181.248 0 0-28.819-133.144-127.237-217.099 1.553 1.308 5.369 19.122 6.101 26.722 2.241 23.354.045 47.838-7.787 70.062-5.746 16.33-13.711 30.467-27.178 41.368 0-3.811-.954-10.635-.976-12.918-.644-46.508-18.659-89.582-48.011-125.743-25.647-31.552-60.812-53.089-97.84-68.932.931 3.191 2.662 16.419 2.906 19.033 1.908 21.958 2.263 52.713-.621 74.649s-7.832 33.878-14.554 54.441c-10.184 31.175-24.05 54.285-41.621 82.004-3.24 5.096-12.913 19.078-18.082 26.146 0 0-8.897-56.191-40.667-87.921z"/><path stroke="#000" stroke-width="24.75" d="m562.5 27.28 410.279 236.874a45 45 0 0 1 22.5 38.971v473.75a45 45 0 0 1-22.5 38.971L562.5 1052.72a44.99 44.99 0 0 1-45 0L107.221 815.846a45 45 0 0 1-22.5-38.971v-473.75a45 45 0 0 1 22.5-38.971L517.5 27.28a45 45 0 0 1 45 0Z"/></svg>