<svg xmlns="http://www.w3.org/2000/svg" width="32" height="32" fill="none" aria-hidden="true"><g fill="#000" clip-path="url(#a)"><path d="M18 24.6a8.9 8.9 0 0 1-8.3-2.4 8.6 8.6 0 0 1-1.4-10.7l2.4-3L19.1.4A16 16 0 0 0 .5 12.1a15.9 15.9 0 0 0 10.9 19.1l6.7-6.6Z"/><path d="M14 7.3a8.9 8.9 0 0 1 8.3 2.4c2.9 2.9 3.5 7.2 1.4 10.6-.7 1.1-1.5 2.1-2.5 3L13 31.6a16 16 0 0 0 18.6-11.8A15.9 15.9 0 0 0 20.6.7l-6.7 6.6Z"/></g><defs><clipPath id="a"><path fill="#fff" d="M0 0h32v32H0z"/></clipPath></defs></svg>