<svg xmlns="http://www.w3.org/2000/svg" fill="none" viewBox="0.66 0.01 49 49"><path fill="#FFB852" d="M48.68 24.5a23.52 23.52 0 1 1-47.04 0 23.52 23.52 0 0 1 47.04 0"/><path fill="#000" fill-rule="evenodd" d="M49.66 24.5a24.5 24.5 0 1 1-49 0 24.5 24.5 0 0 1 49 0m-24.5 23.52a23.52 23.52 0 1 0 0-47.04 23.52 23.52 0 0 0 0 47.04" clip-rule="evenodd"/><path fill="#FFE3BD" d="M16.8 31.3c0 .16 0 .26-.22.26l-2.8.03.03 2.54 4.88-.06.05 3.7 2.43-.03-.05-3.7 1.51-.01.05 3.69 2.3-.03-.04-3.7h1.74c1.16-.02 5.29-1.05 5.23-4.88a4.6 4.6 0 0 0-3.4-4.59s2.33-1.44 2.07-3.85c-.25-2.42-2.15-3.08-3.25-3.42-.85-.24-1.72-.37-2.6-.4l-.05-3.87-2.22.04.05 3.84-1.78.02-.04-3.85-2.24.04.04 3.86-4.7.05.02 2.27 2.58-.03c.26 0 .26.13.26.22l.14 11.87Zm3.95-12.13 2.74-.03c.47 0 2.76.36 2.77 2.3a2.23 2.23 0 0 1-1.82 2.27c-.2.06-.42.09-.64.1l-3.02.03zm.12 7.09 4.28-.04a2.28 2.28 0 0 1 2.26 2.42c.02 1.55-1.32 2.24-2.03 2.43-.1.03-.2.05-.31.05l-4.14.05z"/><path fill="#000" fill-rule="evenodd" d="m15.8 30.59-3.01.03.05 4.5 4.89-.05.04 3.69 4.39-.05 3.81-.05-.04-3.69h.76a7.65 7.65 0 0 0 3.58-1.16 5.3 5.3 0 0 0 2.62-4.7 5.58 5.58 0 0 0-2.6-4.86l.1-.12c.65-.78 1.33-2 1.17-3.57a4.46 4.46 0 0 0-1.68-3.15c-.8-.63-1.7-.92-2.25-1.1h-.02l-.02-.01c-.62-.17-1.26-.3-1.9-.37L25.66 12l-3.99.07v-.04l-4.2.1.04 3.84-4.7.05.04 4.24 2.84-.04.12 10.38Zm2.7-13.66-4.7.05.01 2.27 2.58-.03c.26 0 .26.13.26.22l.14 11.87c0 .16 0 .25-.2.25l-2.8.03.02 2.54 4.88-.06.05 3.7 2.43-.03-.05-3.7 1.51-.01.05 3.69 2.3-.03-.04-3.7h1.74c1.16-.02 5.29-1.05 5.23-4.88a4.6 4.6 0 0 0-3.4-4.59s.4-.25.87-.73a3.91 3.91 0 0 0 1.2-3.12c-.25-2.42-2.15-3.08-3.25-3.42-.85-.24-1.72-.37-2.6-.4l-.05-3.87-2.22.04.05 3.84-1.78.02-.04-3.85-2.24.04.04 3.86Zm7.76 4.52c0-1.95-2.3-2.31-2.77-2.3l-2.74.02.03 4.67 3.02-.03c.22-.01.43-.04.64-.1a2.23 2.23 0 0 0 1.82-2.26m-2.49 1.38c.15 0 .29-.03.43-.07h.03l.03-.01a1.25 1.25 0 0 0 1.02-1.27v-.02c0-.5-.25-.8-.69-1.03a2.9 2.9 0 0 0-1.1-.3l-1.76.01.02 2.71zm3.64 5.81a2.28 2.28 0 0 0-2.26-2.42l-4.28.04.06 4.91 4.14-.05c.1 0 .21-.02.31-.05.71-.19 2.05-.88 2.03-2.43m-2.37 1.5.07-.01h.01l.02-.01c.23-.06.59-.22.86-.47.26-.24.44-.54.43-1v-.07a1.3 1.3 0 0 0-1.28-1.38l-3.3.03.05 2.95z" clip-rule="evenodd"/><path fill="#000" d="M23.68 5.18c3.83-.3 7.65.56 10.98 2.44l-.57.96a18.26 18.26 0 1 0 8.13 22.41l1.06.37a19.38 19.38 0 1 1-19.6-26.18"/><path fill="#FFDFB6" d="M43.7 25.21h-7.6v-2.07l2.5-2.55c.89-.9 1.5-1.6 1.85-2.1.35-.48.53-1 .53-1.54 0-.55-.15-.94-.44-1.17-.29-.22-.7-.34-1.23-.34-.8 0-1.66.07-2.6.22l-.42.05-.12-1.9c1.16-.36 2.36-.53 3.6-.53 2.49 0 3.73 1.11 3.73 3.35q0 1.32-.57 2.28c-.37.64-1.06 1.41-2.06 2.32l-2.04 1.85h4.87z"/><path fill="#000" fill-rule="evenodd" d="M44.68 26.2H35.1v-3.47l2.79-2.82c.88-.9 1.45-1.56 1.75-1.98v-.01c.25-.34.35-.65.35-.97a1.1 1.1 0 0 0-.06-.4h-.01c-.05-.04-.2-.13-.62-.13-.74 0-1.55.07-2.45.2h-.01l-1.47.2-.24-3.72.74-.23q1.875-.57 3.9-.57c1.36 0 2.57.3 3.45 1.09.89.8 1.25 1.94 1.25 3.24 0 1.02-.22 1.96-.7 2.78a12.2 12.2 0 0 1-2.24 2.55l-.16.14h3.3v4.1Zm-5.85-3.12 2.04-1.85c1-.9 1.69-1.68 2.06-2.32q.57-.96.57-2.28c0-2.24-1.24-3.35-3.73-3.35-1.24 0-2.44.17-3.6.53l.12 1.9.43-.05a21 21 0 0 1 2.59-.22c.53 0 .94.12 1.23.34.3.23.44.62.44 1.17s-.18 1.06-.53 1.55c-.35.48-.96 1.18-1.85 2.1l-2.5 2.54v2.07h7.6v-2.13z" clip-rule="evenodd"/></svg>