<svg xmlns="http://www.w3.org/2000/svg" viewBox="125 129 149 137.2"><g fill-rule="evenodd"><path fill="#f5c059" d="m172.2 130.8-6.5.3-3.3-.1a132.5 132.5 0 0 0-18.9 1.2c-1.2 0-4.4 1.6-5.8 3-1.3 1.2-3 5.4-3.6 9-.4 2.2-.5 2.2 2-.8 2.9-3.4 6.5-5.9 4.8-3.2l-.4 1c.2 0 0 .5-.4 1.1-2.3 3.7-2.7 4.8-2.7 7.5 0 1.4-.2 3.8-.5 5.3s-.4 2.7-.2 2.7c.5 0 .6 1.4.2 1.6-.6.2-2.5 4-2.5 5 0 .5 1.8-.2 2.6-1.2.5-.6 2-.8 2.4-.3.1.2-.2.8-.7 1.3-.5.6-.8 1.2-.7 1.4s0 .3-.2.3-.4.3-.4.7-.2.9-.4 1c-.5.3-.4 3.4.2 5.4.4 1.4.5 3.3.3 9l-.2 7.3-1.1 1.1c-1.1 1.1-1 2.2.3 2.2q.45 0 .6.3l2 1.5c2.4 1.5 2.4 1.4.6 1.3-1.3-.1-1.3 0-.3.2 2 .5 2.6.4 3.6-.4.5-.5 1-.8 1.2-.8.1 0 .2 0 .2-.3 0-.2.3-.3.5-.3.3 0 .7-.4 1-.8 2.7-3.8 8.1-5.8 8.2-3 0 .5 0 .5.4 0 .3-.6.5-.6.9-.3.8.7.6 1.5-.2 1.5-.5 0-.8.3-1 1 0 .7-.3 1.3-.5 1.4s-.4.7-.4 1.2c0 1.1-6.9 3-12.4 3.3-3.1.2-3.5.5-3.5 2.7 0 1-.2 2.7-.4 3.8-.4 2.5.7 4.4 1.8 3 .2-.4.5-.6.7-.4.1.2 0 .3-.2.3s-.4.2-.4.4.3.3.8.2c.5-.2.7-.2.4 0-.2 0-.3.4-.2.7 0 .3 0 .5-.3.5-.2 0-.3-.1-.2-.3.2-.2 0-.4-.3-.4s-.6.5-.8 1.6c0 .8-.5 2.5-1 3.7-.7 2-.7 2.1-.1 3s1.6 1 1 .1c0-.2.2-.2.7 0 1 .3 1.5.8 1.2 1.5-.2.6-2.3.3-2.8-.4q-.3-.45-.3 0c0 .45-.1.5-.4.5-.4 0-1 .6-1.9 2-.8 1.2-.8 1.4.1 1 .4-.3.9-.4 1-.4.4.1 3.6-.8 4.1-1.2 1-.8.9.8-.2 2.4-1 1.5-1.2 2-1.2 4.4 0 2.8-.9 5.3-1.6 4.9-.2-.2-.3 0-.1.3 0 .4 0 .7-.3.8a.9.9 0 0 0 .3 1.7c1.5 0 2 1 1.2 2.4-.3.6-.8 2.6-1 4.3a17 17 0 0 1-.8 4.1c-.4 1.2-.2 2.2.7 2.2.5 0 .5.3.4 1.7l-.4 2.6c0 .5-.3 1-.5 1.3-.6.6-.6 3 0 3.6.7.7.9.5.8-.8-.1-1-.1-1.1.2-.3.6 1.8.4 2.8-.8 3.9-1.9 1.6-2.5 1.6-2.6-.3 0-1.2 0-1.3-.2-.5-.4 2.9 1 5.4 2.9 5.2.7-.1 9-.2 18.5-.2a147 147 0 0 0 18.5-.4 76 76 0 0 0 10.4 0c4.3.3 39.1.4 38.1.1-1.8-.3 2.3-.6 10.9-.6 3.6 0 6.2 0 5.7-.2-.4-.2 1.2-.2 3.8-.2 2.8.1 4.1 0 3.3-.1-1-.2-.4-.3 2-.3 16.3.2 16.6 0 12.8-9.2-2.1-5-2.3-9-.7-11.1 3.6-4.7 3.8-5.9.8-5.2l-2 .6c-.3.2-.8.4-1.2.4a26 26 0 0 0-6.2 2c-.3.3-1.2.6-2.1.9l-2.8 1c-.6.3-1.1.5-1.2.4-.3-.3.4-2.2.9-2.4.2 0 .5-.4.5-.6 0-.3.6-.9 1.3-1.4s1.4-1.1 1.5-1.5c0-.4.4-.6.7-.6s1.2-.7 2-1.6c1.1-1 1.8-1.4 2.3-1.3h.5c0-.1 0-.5.3-.8.7-.8 1.5-5.5 1-6.1a5 5 0 0 1-.3-1.6c0-.7.2-1 .3-.9.3.5 2.2-2.4 3.3-5 1-2.4.8-4-.5-5.5-1.3-1.4-1.2-1.8.7-3.4 4.3-3.5 5.3-6 1.9-4.8-2.5 1-3.2-1.1-1.2-3.7.1-.3.2-1.2 0-2.2-.3-2.4 0-3.3 1.6-4 2-1 .8-2.5-2-2.5-1.6 0-3.8-1-3.8-1.6 0-.7.7-1.3 1.3-1 1 .3 3.2-3.1 3.6-5.5 0-.3.3-1 .6-1.4a3 3 0 0 0 .2-2.1c-.2-1 0-1.5.4-2 .8-.7.7-1-.6-2-1.2-.8-1.2-.8-.3-1.1 1-.4 1 0-.1-6.1-.3-1.7-.8-3.5-1.2-4-.6-1-.6-1.6-.4-4.3.2-3 .2-3.2-.9-5.4-1.5-2.9-1.5-5-.2-6 2.9-2 3.6-2.8 3.2-3.9-1-2.8-1.4-9-.4-10.3.4-.6 1-2 1-2.8.1-1.1.4-1.7.9-1.9.9-.3-83.4-.4-91.2 0m-38.6 1c-.1 0-.3.5-.3 1 0 .7 0 .7.4 0 .5-.7.4-1.5-.1-1m5.8 6.2c.1.2-.1.6-.5 1a78 78 0 0 0-2.9 3c.2-.1.3-.6.3-.9 0-.6 2-3.3 2.6-3.3.1 0 .4 0 .5.2m21 4.2c0 .2-.4.7-.8 1-.5.5-.6 1-.5 1.5.3.6.2.6-.3.2-.6-.5-.5-1.7.2-2.6.4-.5 1.4-.6 1.4 0m-4.3.3c1 .4 1.2 1 .3 1.2-.6 0-.6.1 0 .6 1.3 1.2 1.7 1.5 2.1 1.5.2 0 .4.2.4.4s-.2.4-.4.4-.3.4-.1.9c.2.9-1.8 2.4-2.3 1.6s-1-.2-.7 1c.2 1.4.1 1.5-.7 2-.6.2-1.1.6-1.2 1-.1.3-.5.5-.8.5-.2 0-.5.3-.5.7 0 .5 0 .5-.3-.1-.3-.7-.4-.7-.4.1 0 .9 0 1-.4.2-.3-.6-.3-.6-.3 0 0 .5-.4.6-2.3.6-2 0-5 .7-6.7 1.5l-1.2.3c-.3 0-1 .5-1.5 1-1.2 1-1.3 1.1-1.3.1 0-.8 3.1-4 4-4 .2 0 .7-.6 1.1-1.2.4-.7.8-1.1.8-1 0 .5 2.6-2.2 2.6-2.6 0-.6 3-3.4 3.6-3.4q.6 0 .3-.6c-.2-.4 0-.5.5-.4.5.2 1 0 1.2-.5.4-.8.4-.8 1.2 0 1 1 1.8.4 1-.5-1-1.3.1-2 2-1.3m104.2 2.6c0 .2-.3.4-.5.4s-.4-.2-.5-.4c0-.2.2-.4.5-.4.4 0 .6.2.5.4m-106.1 3.6c0 1.2 0 1.2.3.6l.8-1c.4-.2 0-1-.6-1-.3 0-.5.6-.5 1.4m12.7 8.5-.2.7-.6.1c-.7 0-.7-1 0-1.2.8-.3 1-.2.8.4m-1.7 4.4c0 .5-.5.7-1.3.6-.1 0-.7.1-1.2.5-.4.3-1.2.5-1.7.5-1.8 0-.2-1.5 1.7-1.6l.5-.3c.5-.5 2-.3 2 .3m48.4 12.8c-.3 1.4-.9 2.1-1.3 1.6-.4-.4.5-2.8 1-2.8.4 0 .4.4.3 1.2m30.1 12.9c0 .4-.7.9-1 .6-.2-.2.2-1 .7-1 .1 0 .3.2.3.4m-81.4.9c.2.3 0 .5-.4.4-.3 0-.6-.3-.7-.5-.2-.6.9-.5 1.1.1m55 9a12 12 0 0 0-.5 2 8.4 8.4 0 0 1-2.5 4.7c-.5.4-1 1-1 1.1 0 .3-.1.5-.3.5s-.3.3-.2.8c.2.8.2.8-.2 0-.2-.6-.3-1.1 0-1.6.2-.4.4-1 .4-1.4 0-.3.3-1.2.7-2l1.2-2.1c1-2 1.5-2.6 2-2.6q.6 0 .3.6m-22.4 3.3c.1 2.7 0 3-.4 2.4-.4-.8-.4-5.1 0-4.6.2.1.4 1.1.4 2.2m-24 2.2c0 .3-.3.5-.6.5-.6 0-.8-.7-.3-1.2.3-.3.8 0 .8.7m69 2-.5.7c-.7.6-1 .5-1-.3 0-.5.2-.8.7-.8.4 0 .7.2.7.3m6.3 2.3c0 .2-.2.4-.5.4s-.6-.2-.6-.4.3-.3.6-.3.5.1.5.3m-42.2 1.2c.3.5.3 1.3.2 2.1-.5 2.2-.2 15.3.2 15.9.4.4.3.7-.3 1.2-.5.4-.9 1.2-.9 1.7-.2 4.9-.5 6-1.6 5.8-.5 0-1-.4-1-.8v-1.4c-.1-.5 0-.8 0-.8.2 0 .3-1 .4-2.2l.3-5.5c.1-2.3 0-3.4-.2-3.6-.3-.2-.3-.6 0-1.3a5 5 0 0 0 .3-2.8c-.5-4.2 1.5-10.5 2.6-8.3m-19 8.5c0 .2 0 .6-.2.9-.2.2-.3.5-.2.6 0 .1 0 .3-.4.4-.8.4-1.4-.6-1-1.5.5-.9 1.3-1 1.7-.4m4 2.3c-.3.3-.5.3-.5-.2 0-.7.5-1.2.7-.6.1.2 0 .6-.2.8m-14.8 4.4c0 1.5 0 1.5-.7 1-.7-.6-.7-2.3.1-2.1.4 0 .6.4.6 1.1m84.2 2c-.4.5-.2 1.2.3 1 .7-.2 1-1.2.5-1.2zM135.8 228c-.4 1-.3 1.3.6 1.3 1.2 0 1.6-1 .6-1.5-.9-.5-1-.5-1.2.2m120.8 1.5c-.2.6-.2 1.1 0 1.2.2.3.8-.8.8-1.5 0-1-.6-.8-.8.3m-90.5 7.7c0 .5.3 1.1.6 1.3s.3.4 0 .4a.9.9 0 0 1-.6-.4c-.2-.3-.4-.3-.8 0-.7.7-1-.5-.5-1.7s1.3-1 1.3.4m-28.8 8.6c-.1.4-.2.1-.2-.6s.1-1 .2-.7zM254 251c0 .2-.2.4-.4.5-.2 0-.4-.1-.4-.5 0-.3.2-.5.4-.5.3.1.4.3.4.5m-121.7 1.7.2 5.7c0 4 0 4.7.8 5.5l.7.8-.5-.9c-.4-.7-.6-2-.6-4.4s.2-3.2.3-2.4c.3 1 .3 1 .4-.5 0-1-.1-1.5-.4-1.4-.2.1-.2 0-.1-.4.3-.8-.2-3.1-.7-3.1-.2 0-.3.4-.1 1.1m34.5 10.9h-4c-1 0-.1-.1 2-.1 2.2 0 3 0 2 .1m63.1 0a4 4 0 0 0 1.5 0c.3-.1 0-.2-.8-.2-.9 0-1.1.1-.7.2"/><path fill="#e6e1db" d="m126.3 129.3-.2 1.6-.5 6.7a332 332 0 0 0-.3 29.6c-.2.1-.3 1-.3 2.1.3 6.2.4 21.1.3 62a184 184 0 0 0 1.7 33.6c0 1 5 .6 6-.3.5-.6.5-.6-.1-.2-.7.5-.8.2-.8-2.3 0-.3-.1-.6-.3-.6-.4 0-.3-2.6.1-2.8.2-.1.3-.6.3-1v-.8l-.4.8c-.4 1-.7 1-.4 0 .1-.6 0-.7-.3-.5s-.4.2-.3-.2a1 1 0 0 0-.2-1c-.3-.4-.3-.4.2-.2.4 0 .7.4.7.5 0 .2.1.4.3.4.4 0 .4-3.2.6-26.5a126 126 0 0 1 .8-20 151 151 0 0 1-1-12.8c-.2 0-.2-4.7 0-14.4 0-1.8 0-3.5-.2-3.8-.1-.4 0-.7.2-.7.3 0 .3-.2 0-.7-.1-.3-.2-1-.1-1.4s0-1.1-.3-1.6c-.2-.5-.3-.7 0-.6.3.2.4 0 .4-.5 0-.4-.1-.7-.3-.6-.3.2-.2-6.3.1-7.7.2-.6.2-1.3 0-1.7-.4-.5-.4-.7 0-.9.3 0 .6-.4.6-.7s-.1-.3-.4.1c-.3.5-.3.3-.2-.4 0-.6.2-1.1.3-1.2.1-.2 0-.8 0-1.6-.3-1-.3-1.2 0-.9.6.4.7-1 .2-1.6l-.2-6-.2-11.7c0-3.4 0-6 .2-5.6.2.6.2.5.3-.2 0-1.7 1-2.6 2.7-2.6 1.6 0 1.6-.5 0-.6-3-.3-9-.6-9-.5m125.5.7c14.2.1 14.2.1 13.8 2.1l-.2 1.4.3 1.4.4 1.4-.2 1c-.3.4-.3.6 0 .4.4-.2.7 2.2.3 2.9-.1.2-.1.6 0 .8.4.5.4 1 0 1.6-.2.2-.2.4 0 .4s.3.9.3 1.9.1 1.8.3 1.8v.5c-.5.7-.6 2.2-.2 2 .2-.1.3 0 .2.5-.1.3 0 1 .2 1.4.3.6.3.8 0 1q-.45.3 0 .6c.6.3.6 3 0 3.3-.3.2-.2.3.2.5.4.1.5 0 .4-.2-.2-.3-.1-.3.1-.2.3.2.3.5.2.8-.4.5-.4 11 0 11 .3 0 0 2.8-.3 3.8-.2.6-.2.6.1.3.3-.4.4-.4.6 0 .2.2.1.5-.1.7-.4.2-.4.4 0 1 .4 1 .4 1.7 0 1.4-.3-.2-.4 0-.4.1 0 .2.2.4.5.4.6 0 .4 1.1-.3 1.6q-.45.3 0 .3c.45 0 .5.3.5.7s-.1.8-.4.8c-.2 0-.3.1-.3.4 0 .2.2.3.5.2.4-.2.5 0 .4.3-.2.3 0 .8.2 1.3s.3.7 0 .7c-.2 0-.4.2-.4.4s.2.3.4.2c.4-.3.5.1.5 2.7 0 1.2 0 1.5-.4 1.4-.4-.2-.4 0-.1.5s.3.7 0 .7c-.2 0-.4.3-.4.6s.2.5.3.4c.4-.2.3 1.1 0 1.5-.1.1 0 .6.1 1 .3.5.3.6 0 .5-.4-.3-.5.2-.1.6.3.4.4 2.5 0 2.3-.3-.2-1.2.9-.9 1.2.1.1.2 0 .2-.2 0-.3.3-.4.5-.4.7.3.6 2.2-.2 3.7-.8 1.2-.8 1.3 0 .6.7-.6.7-.6.6 1.3 0 1 0 2.2.3 2.6q.3.6 0 .6c-.3 0-.4.4-.3.8s0 .8-.1 1c-.2 0-.4 0-.4-.3 0-.2-.2-.3-.4-.1-.2.1-.1.4.2.6.6.4.6.5 0 1-.4.4-.4.5 0 1 .4.3.5.7.4.8s-.4 0-.5-.3c-.3-.3-.3-.2-.3.5s.2.8.5.5c.7-.5.4 1-.3 1.8-.3.4-.3.6-.1.4.2 0 .5.2.8.7.2.5.3.8.1.7-.3-.2-.8.2-1.5 1.1-.5.8-.5.8.3.1 1.1-1 1.4-.1.3 1.2-1 1.2-1.2 1.6-.5 1.4.3 0 .4.3.3 1 0 .7 0 1 .4.8.3-.2.3-.1 0 .4-.2.4-.3 1-.2 1.5 0 .5-.1 1-.3 1l-.7 1c-.4.8-.4.8.2.4.5-.5.6-.4.6.3 0 .5-.2.7-.5.5-.2-.1-.3-.1-.2 0 .2.2 0 .6-.2 1-.4.5-.3.5.2 0 .6-.4.7-.4.7.3 0 .5-.3 1-.6 1-.3.2-.5.4-.5.6s.2.3.5.2c.8-.3.7.8 0 1.7-.7.8-.7.8 0 .3.5-.4.6-.4.6.2 0 .3-.3 1-.7 1.4-.6.7-.6.7 0 .3.6-.5.7-.4.7.5.1 3.1 0 4.4-.7 5-.6.8-.6.8 0 .6.8-.3.9.3 0 1.1-.4.6-.4.6 0 1 .7.3.6 1.9 0 3.2-.3.4-.3.8 0 1 .2 0 .2.5 0 1-.3.7-.3 1 0 .7.4-.2.3.4-.3 1.9-.2.5-.1.6.2.4.2-.1.4 0 .4.2l-.1 6c0 .8 0 1.4.2 1.4.1 0 .1.4 0 .8-.2.5-.3 1.3-.3 1.9 0 .5 0 1-.2 1s-.3.1-.3.3.3.3.6.2c.5-.1.7 0 .7.5s-.2.7-.7.6c-.4 0-.5.1-.4.5.1.2.4.5.7.5s.5.1.5.4q0 .3-.3.3c-.3 0-.3.2-.1.5 1 1.8.3 2-5.5 2.2h-5l5 .3h5.4c.7-.5 2.5-.5 3.8 0 1.4.6 2.4.2 2.6-1 .1-.3 0-.5-.3-.3-.2.1-.4 0-.4-.2s.2-.4.3-.4c.2 0 .3-.8.2-2-.1-1-.2-3-.1-4.4 0-1.5-.2-3.2-.3-3.8a161 161 0 0 0-.5-26c0-4.8 0-5-.3-2.1l-.2 3.3-.1-3.6c0-2 0-3.5.2-3.4.2 0 .3-1.3.3-3 0-2.5 0-3-.3-2-.1.8-.2.2 0-1.8 0-2.3 0-3-.3-2.8s-.4-.6-.3-3.2v-2.8c-.2.5-.4-1.2-.5-3.8 0-2.6 0-4.8.2-5l.2-2.6V192l-.3 2.3a129 129 0 0 1 .7-19.6 812 812 0 0 1 .4-8.6c.2-2.6.4-10.3.6-17 .2-13.6.3-16.6.7-18 .3-1.3.2-1.3-19.6-1.3h-15.6l13.1.1m-117.4 3.5c0 1.5.6 4 .9 4 .5 0 .1-4.2-.4-4.3-.2-.1-.5 0-.5.3m-4.5 2.8c-.4 0-.5.4-.4.8.3.6.2.6-.5-.3-.4-.5-.3-.6.6-.7.5 0 .7 0 .3.2m8 5.6c-3.6 3.8-5 6-2 3.3l1.3-1.2-.7 1.1-1.2 1.5c-.7.5-.5 2.8.2 3 .3.1.3 0 .2-.4-.1-.3.6-2 1.9-4.1 3.1-5.3 3.2-6.4.3-3.2m.2 15.7c-.3.7-.3.7.2.5l.8-.2.2-.6c0-.8-.7-.7-1.2.3m-1.2 6c-1.6 1.1-1.7 1.5-.4 1.2.8-.1.8 0 .4.4-.3.5-.3.5.1.4.3-.1.6-.5.5-.9 0-.4.2-.9.6-1.1 1.2-1 .2-.9-1.2 0m-2.1 4c.5 1.5.6 1.5.7.5.1-1.3-.2-2-.8-2-.5 0-.5.2 0 1.5m-.6 24.9c0 1 3.2 4.9 3.6 4.4l-1.4-2c-1.2-1.4-1.5-2-1.2-2.2.4-.2.3-.3-.3-.5-.4-.1-.7 0-.7.3m10.5 2.4c-.4.2-1 .6-1.3 1-.5.6-.5.6.2.3l1.6-.4c1.1-.3 2-1.3 1-1.2zm-10.5 62.4c0 .3.3.6.7.6 1 0 .8-.9-.1-1-.4-.1-.6 0-.6.4m.6 7.6c.5.2.9.5.9.7 0 .3.1.4.3.4.3 0 .2-.3 0-.7-.3-.4-.9-.7-1.3-.7-.7 0-.6 0 .1.3m105.6.4h3.9c2.6-.3 2.6-.3-1.2-.3-2.7 0-3.5 0-2.7.3m-88 .6h2c.6 0 .2-.1-1-.1-1 0-1.5 0-1 .1m-12.6.4"/><path fill="#e7cc99" d="M233.6 129.9h2.6c.8 0 .2-.1-1.2-.1s-2 0-1.4.1m27.7.3c3.7.5 4.3.6 4 1-.1.2 0 .3.2.1 1.1-.6-.4-1.3-2.9-1.2-1.3 0-2 0-1.3.1m-129.4 3.1.3 2.6.3 1.7v-1.9c0-1-.1-2.1-.3-2.6-.3-.6-.3-.6-.3.2m-3 3.4c.8.9.9 1 .6.3-.1-.4 0-.7.4-.8s.2-.2-.3-.2c-.9 0-1 .2-.6.7m3.2 7v3l.3 2.4v-3c0-3 0-3.9-.3-2.5m133.9 3.8c-.1.3 0 .6.2.8s.3.2.2 0c-.1 0 0-.4.2-.7.3-.3.3-.5 0-.5-.2 0-.5.2-.6.4m-133.7 6v1.5a8 8 0 0 0 0-3.1v1.5m134.4-1.8v.9c-.4.3-.5 1.3-.1 1.1.1 0 .3.2.4.6s0 .8-.3.9c-.8.3-.6 1 .5 1.6.7.3.8.3.5 0-.2-.3-.3-1.2-.3-2s-.2-1.5-.4-1.6c-.3 0-.3-.3-.1-.5a1 1 0 0 0 0-1c-.3-.5-.4-.5-.2 0m-135 16c-.2 1-.1 5.8.2 5.5a9 9 0 0 0 .1-3c0-1.5-.1-2.6-.2-2.4m135.4.8c.3.1.4.3.3.5s0 .4.2.4.3-.3.3-.6-.2-.5-.6-.5-.5 0-.2.2m.1 6c0 .4.3.8.6 1 .3 0 .5 0 .5-.4 0-.3-.1-.5-.3-.4-.3.2-.3 0-.2-.3s0-.6-.2-.6-.4.3-.4.7m0 1.7c0 .3-.2.6-.4.6-.8 0-.3.5.6.6 1 0 1.6-1.2.5-1.5-.4-.1-.7 0-.7.3m-135.4.6c0 .2 0 .6.2 1s.3.4.3-.4c0-1-.1-1.2-.5-.6m135.2 1.4c0 .2.2.6.6.8.6.3.7.3.7-.4s-.9-1-1.3-.4m0 2.3c0 .5.1.7.4.7s.7.3.8.6.4.5.5.5c.2 0 .2-.3 0-.7-.3-.5-.4-1-.3-1.3.1-.2-.1-.4-.5-.4a1 1 0 0 0-.8.6m-135.1 3-.1 8.4c0 3 0 5.6.2 5.6s.3-.2.3-.4.2-.3.4-.1c.3.2.3 0 .1-.3-.4-.7-.5-1.8-.5-5.5.1-5 0-10-.2-10.3 0-.1-.2 1-.2 2.6m134.8-1c0 .3.3.6.7.7.6.3.6.3 0 .8-.6.4-.6.5-.1 1 .4.2.4.6.2 1s-.2.8 0 1.1c.2.4.1.8-.1 1-.3.4-.3.7 0 1 .2.2.5.2.6-.1.2-.3.2-.4-.1-.2-.4.2-.5.1-.3-.2 0-.3.4-.5.7-.4.5 0 .6-.1.4-.5 0-.3 0-.6.2-.6.1 0 .3-.7.2-1.5 0-2.7-.1-2.9-.7-2.7-.3.2-.6 0-.6-.3s-.2-.5-.5-.5-.6.2-.6.4m2.2 2.3h-1c-.5-.3-.5-.3 0-.6.5-.4 1.4.1 1 .6m-.8 4.7c-.4.3-.6.7-.4 1 .4.6 1 .2 1-.7l.1-.8zm-.6 1.9.7.5c.6.4.7.3.5-.1-.2-.5-1.2-.9-1.2-.4m.2 1.5c-.2.5 0 .9.4 1.2.6.4.6.5-.3.3-.5 0-.9-.4-.9-.7 0-1.5-.4-.8-.4.8 0 1 0 1.4.1 1s.5-.5 1.2-.4c1 0 1 0 1-1 0-1.4-.8-2-1.1-1.2m.5 3c.5.4.4.5-.3.5-.8 0-1 .5-.4 1 .2 0 .3 0 .3-.3 0-.2.2-.3.4-.1.3.1.3.4 0 .7-.6.7-1.4.7-1.6-.1l-.1 1c0 .8.1 1.6.3 1.7s.2.5 0 .7c-.3.3-.4.8-.3 1 .1.3.2.3.2-.1 0-.8.3-.8 1.1-.3.5.3.5.4.1.7-.4.2-.4.5 0 1 .2.7.2.9-.3 1.2s-.5.4 0 1c.7.5.7.6 0 1-.4.3-.6.7-.4.8.4.4 1.5 0 1.2-.5-.1-.2 0-.4.1-.6.2 0 .3-.5.2-1-.1-.3 0-.7.2-.7q.45 0 0-.6l-.2-2.6c.1-1.8 0-1.9-.5-1.3-.7.6-1.5.4-1.5-.5 0-.5.5-.7 1.4-.5.3 0 .5-.2.5-.5.2-1.8 0-2.6-.4-2.8-.5 0-.5 0 0 .3m-136.2 3.6c0 2 .2 1.8.4-.3 0-.8 0-1.4-.2-1.4-.1 0-.3.8-.2 1.7m139.6 9.7c0 1.5 0 2.7.1 2.6.3-.3.5-3 .2-4.1-.2-1-.3-.6-.3 1.5m-4.5-.2c-.4.7-.3.7.1.2s.6-.6 1-.2c.3.3.4.3.2-.2-.3-.9-.8-.8-1.3.2m1 1c-.2.2-.6.2-1 .1-.5-.1-.5-.1 0 .4.4.3.6.6.5.8-.2.2 0 .2.2.1.3 0 .6-.5.7-1 0-.8 0-1-.5-.4m-1.4 1.5c-.1.1 0 .4.1.5.3.2.3.4 0 .8-.2.3-.2.5.2.7.4.1.5 0 .4-.2s0-.3.2-.3.3.1.3.3c0 .1.3.3.5.3.4 0 .4-.2.1-.8-.2-.5-.6-.8-1-.8a.4.4 0 0 1-.4-.4c.1-.6-.1-.6-.4-.1m.1 2.8c.2.5.2 1 0 1.1-.2.2-.2.6 0 .9.4.4.4.4.3-.2 0-.5.1-.7.5-.6.4 0 .7-.2.8-.5.3-.6-.3-1.1-.6-.5-.2.2-.5.1-.8-.3-.5-.6-.6-.6-.2 0m.1 4.3c.1.4 0 .9-.1 1-.2 0-.2.5 0 1 .3.3.3 1 .2 1.5-.2.6-.2.7.3.3.3-.2.5-.8.5-1.3 0-.4 0-1.1.2-1.5.3-.5.3-.6 0-.4-.2 0-.4 0-.4-.4a1 1 0 0 0-.5-.8c-.2-.2-.3 0-.2.6m5.1 6.1c0 2 0 3.6.2 3.5.2-.3.3-6.6 0-6.9a11 11 0 0 0-.2 3.4m-4.8-1c0 .4-.2 1-.5 1.2-.6.5-.1 2 .5 1.7.3-.2.5-3.5.2-3.5-.1 0-.2.3-.2.7m0 3.7c0 .2-.1.3-.3.2-.1 0-.3 1.2-.3 2.8s.2 3 .3 3q.3 0 .3.3c0 .2-.2.3-.4.2s-.3 0-.3.2.1.3.3.3.4.4.4.8-.2.7-.4.5c-.2 0-.2 0-.1.4.5 1.2 1 0 .9-2.3a258 258 0 0 1-.2-6.8zm0 10c0 .2-.2.3-.4.2s-.3 0-.3.2.2.3.5.3.6-.2.6-.5l-.2-.6zm-.7 2.3c0 .3.2.8.5 1 .4.3.5.3.4-.4 0-.9-1-1.4-1-.6m.1 5.5c0 1.4.1 1.8.4 1.4.2-.4.2-1.2 0-2-.3-1.4-.3-1.4-.4.6m.3 2.3c-.3 1-.1 4 .3 4 .3 0 .4-.3.1-.9-.1-.4-.1-1.2 0-1.6.2-.5.2-.9 0-.9s-.3-.1-.2-.3.2-.4 0-.4zm-135 7.7c.1.8 0 1.5-.2 1.5s-.3-.2-.3-.4c0-.1-.3-.4-.7-.5-.5-.2-.5-.2-.2.1s.4.7.2 1c-.1.5 0 .5.3.3.4-.2.4 0 .3.5-.3 1 0 1 .4 0l.4-.8v.8c0 .4-.1.9-.3 1-.4.2-.5 2.8-.1 2.8.2 0 .3.3.3.6 0 2.3.1 2.8.6 2.4.3-.2.7-.3.8-.1.2.1 0-.2-.3-.7-.5-.7-.6-1.8-.6-5.2 0-2.4-.2-4.5-.3-4.6-.2 0-.3.5-.2 1.3m135.2 4.3c-.4.4-.3 1.1.2 1.1.3 0 .5-.3.5-.7 0-.7-.3-.8-.7-.4m-30 5.6a4 4 0 0 0 1.5 0c.4-.1 0-.2-.8-.2-.9 0-1.1 0-.7.2m-18.9.4h3c.8-.1 0-.2-1.6-.2s-2.2 0-1.4.2m-68.9.3a4 4 0 0 0 1.5 0c.4 0 0-.2-.8-.2s-1.1.1-.7.2"/><path fill="#916846" d="M127 129.2a4 4 0 0 0 1.4 0c.4-.1 0-.2-.8-.2s-1.1 0-.7.2m11.1.7h3.5c1 0 .2-.1-1.8-.1s-2.7 0-1.7.1m127.4 7.7c0 1 0 1.4.2.8v-1.8c-.1-.5-.2 0-.2 1m-.1 8.1c0 2.2.1 3.9.3 3.8.3-.2.2-7.3-.1-7.6a19 19 0 0 0-.2 3.8m.4 7.6c0 .8.1 1.5.3 1.5.4 0 .3-2.4 0-2.8-.2-.2-.3.4-.3 1.3m0 3.7c.1 1 .3 2 .5 2.1.1.2.2-.5 0-1.6-.1-2.6-.5-3-.4-.5m0 14.6.4 13c0 2.5.2 4.8.4 5a6607 6607 0 0 1-.1-25c-.1-.7-.3-1.3-.5-1.3s-.2 3.1-.1 8.3m-140.5 7.3c0 .7 0 1 .1.6v-1.3zm146.7 3c0 1.9 0 2.7.1 1.7v-3.5c0-1-.1-.2-.1 1.8m-5.9 14.4c.3 1.2.6 1.4.6.2 0-.5-.2-1-.4-1s-.3.4-.2.8m5.9 6.3c0 1.5 0 2.1.1 1.4v-2.8c0-.8-.1-.1-.1 1.4m-5.7-.1-.2 1c-.4 2-.3 7.6.1 7.6.2 0 .4-2 .4-4.4 0-3.5-.1-6-.3-4.2m-141 5c0 2.3 0 3.2.2 2v-4c-.1-1.1-.2-.1-.2 2m140.7 4.8c-.3 2-.1 6.6.3 6.6.3 0 .3-7 0-7.2-.1-.1-.3.2-.3.6m-.4 7.6c-.4.4-.5 1.2-.3 3.6l.3 3.5c0 .2.2.3.4.1s.3-2 .2-4c0-3.2-.2-3.7-.6-3.2m0 13.7-.4 3.3c-.4 2.6-.4 2.9.3 3.5s.7.6.7-2.5c0-2.6-.5-6.2-.6-4.3m.3 14.6c-.2 1-.1 7.7.1 7.7.4 0 .4 0 .4-4.3 0-2.6-.2-4.6-.5-3.4m-.3 9.2c0 .6.2 1.1.5 1.3.5.1.5 0 .2-.5-.2-.4-.3-1-.1-1.3 0-.3 0-.6-.2-.6-.3 0-.4.5-.4 1m0 4c0 .4-.2.9-.3 1-.2.3 0 .3.4.2.7-.3.7-.2.4.6s-1 .8-5-.2c-3.3-.7-3.5-.7-11.8-.2a737 737 0 0 1-62.4 1.4c-40.6 0-51.1.2-50.9.9a3077 3077 0 0 0 120.3-.6H267l-.1-1c-.2-.5-.4-1.2-.6-1.4a1 1 0 0 1-.1-.9c.1-.2.1-.4 0-.4s-.3.3-.4.7m-29.1 4h3.1zm-24.6.4"/><path fill="#dc991a" d="M264.1 136.3c.2 2-.3 2.7-1.3 2.2-.8-.5-.8.3 0 1.5.5.6.8 2.3 1.1 5 .3 2.3.7 4.5.9 4.9.6 1 .5-7.5-.1-8.7-.3-.6-.4-1.3-.2-1.8.4-1.1.4-5 0-5-.3 0-.4.7-.4 1.8m-98.2 21c-.2.3-.2.6 0 .7s.5 0 .7-.3c.3-.3.3-.6.1-.7s-.5 0-.8.3m96.7.4c-.3.4-.3.7.1 1.6.7 1.2 2.4 6.5 2.6 8v-2.6c0-4.8-1.5-8.5-2.7-7m1.8 13.1c0 .2.2.4.4.4.6 0 .4.7-.4 1.5-.8.7-.6 1.7.3 1.3.4-.1.5.3.5 2 0 1.2.1 2.3.3 2.4.4.3.2-6-.2-7.3-.2-.7-.9-.9-.9-.3m-2 27.5c.5 1.7 1.7 2.5 1.7 1.2 0-.9-.9-2-1.5-2-.3 0-.3.3-.2.8m2.7 3.5c-.2.2-.3 1.7-.3 3.4 0 2.6 0 3-.6 3-.7 0-3 1.8-3 2.2 0 .8 3.4-.1 3.5-1 .2-.8.7-1 1-.4l.1-3.3c.1-3.4-.1-4.5-.7-3.9m-95.2.8c-.4.3-.3.8 0 .8.2 0 .5-.2.6-.5.2-.6-.2-.8-.6-.3m68.4 2.3v.8c.3.4 1-.2 1-.9 0-.4-.7-.3-1 .1m26.5 8.7c0 .6-.2 1-1 1.1-2.1.5-2.8 1.2-2.5 2.8.1.9 0 1.5-.2 1.7-.5.3-2.2 3-2.2 3.5s1.1-.1 3.3-1.7c.9-.7 1.7-1.2 2-1 .6.3.3 3.7-.5 5a4 4 0 0 0-.7 2.7c.1 1 0 1.2-.3.9s-.6 0-1 .8c-.9 1.6-.5 2.2 1.2 2.2 2.5 0 2.9-.6 2.7-3.7v-8.4c0-4.2-.2-6.8-.4-6.8s-.4.4-.4.9m-81.4 3.2c-.6.7-.5 1.8.1 1.8.4 0 .5-.1.4-.3s0-.5.2-.6c.4-.3.5-1.3 0-1.3zm-10.8 6.2c0 1.1.6 1.7.9.9.3-.9 0-1.6-.6-1.6-.2 0-.3.3-.3.7m30.7 4c0 .3.3.4.6.3s.4-.4.3-.6c-.3-.5-.9-.4-.9.2m61.4 6-.4 2.7c-.3 2.7-.8 3.8-2.4 5.5-2.4 2.7-2.7 3.8-.8 3.8 2.1 0 5-3.2 4.1-4.5a19 19 0 0 1 .5-7.1c0-.4-.8-.7-1-.3m-99.8 3.8c-.5.8-.6 1.8-.1 1.8.4 0 1.1-1.2 1.1-2s-.4-.7-1 .2m99.9 10.9c-.3.5-.7 1-1 1-1 0-2.1 2.3-1.6 3.2.5.8 3.3-.3 3.4-1.2l.1-2.2c.1-1.7-.4-2.1-1-.8m.1 5.6c-.5 1.8-.5 6.3 0 6.6.2.1.4.7.4 1.2 0 .7 0 .9.3.5.4-.5.3-9.1 0-9.5-.2-.1-.4.4-.7 1.2M133.5 262l.2 1.2.4.2c.5 0 .1-1.4-.5-2-.2-.3-.3 0-.1.6"/><path fill="#a99683" d="m265.3 140.7.2 3c0 .6.2 1.1.4 1.1s.2-.5.2-1.2a155 155 0 0 1-.7-4.3c-.2-.1-.2.5 0 1.4m.3 9.3c0 1 .2 2 .3 2 .1.2.2-.6.2-1.6-.1-2.4-.5-2.7-.5-.4M125 151.5c0 .7 0 1 .2.6v-1.3c-.1-.3-.2 0-.2.7m140.7 8q0 .45.3.3c.2-.1.4 0 .4.5 0 .6 0 .6.4 0 .4-.8.3-1.1-.6-1.3-.3 0-.5.2-.5.5m0 2.5c0 .7 0 1.3.2 1.3.4 0 .3-2 0-2.4-.1-.2-.2.3-.2 1m.8 7.6a8 8 0 0 0 .5 3.3c.3.4.5.5.5.3 0-.3-.2-.6-.4-.7-.5-.3-.4-1.9.2-2.4s.4-1.3-.2-1c-.5.4-.4-.2 0-.7.3-.3.3-.5-.1-.9-.5-.4-.6-.1-.5 2.1m.2 10.9c0 .6.3 1.2.5 1.3.3.2.3 0 .2-.4a3 3 0 0 1-.3-1.3c0-.4-.1-.7-.3-.7-.1 0-.2.5-.1 1m5 6.3c0 2.4.6 3.1.6.7 0-1.2-.1-2.1-.3-2.1-.3 0-.4.6-.4 1.4m-4.9 3c-.2.3-.3.5-.1.3.1-.1.5 0 .8.4.4.6.5.5.5-.4 0-1.2-.5-1.3-1.2-.4m.8 16.3c0 .3-.2.4-.4.3s-.3 0-.3.4c0 .6 0 .6.7 0 .4-.4.6-.8.5-1-.3-.5-.5-.4-.5.3m-1.2 12c-.1.4 0 .6.1.5.2-.1.4 0 .4.2s-.2.4-.5.5-.3.2 0 .2c.7 0 .9-.5.5-1.5l-.3-.8-.2.8M125 242.2c0 1.3.1 1.9.2 1.2V241c-.1-.6-.2-.1-.2 1.2m141.2 3.7c0 1.2.1 2 .3 1.8.3-.6.3-4 0-4-.2 0-.3 1-.3 2.2m.4 9c-.4.6-.6 6.7-.2 7.1.9 1.2.6 2.4-.5 2.6-1 0-1 .1.2.2 1.4 0 1.4 0 1.3-1.1-.1-.6 0-1.2.2-1.3.3-.2.2-.4-.2-.7s-.5-1.2-.5-3.8c0-3.7 0-3.7-.3-3M230 265h2.8c.7-.1.1-.2-1.4-.2s-2.2.1-1.4.2m-77.6.3h1.7l-.9-.1c-.9 0-1.3 0-.8.1m27.6 0h2c.6 0 .1-.1-1-.1s-1.6 0-1 .1m5.2 0h2c.6 0 .1-.1-1-.1s-1.6 0-1 .1m-46 .5h3.9c1 0 .2-.1-2-.1-2.1 0-3 0-2 .1"/><path fill="#dfa237" d="m262.8 131.2-.3 1.8c-.1.8-.6 2-1 2.5-1 1.2-.7 7.5.4 10.3.4 1.1-.3 2-3.2 4-1.3.9-1.3 3 .2 6 1 2 1.1 2.3.9 5.3-.2 2.7-.2 3.4.4 4.2.4.6.9 2.4 1.2 4 1 6.2 1 5.8 0 6.2-.8.3-.8.3.4 1.1 1.3 1 1.4 1.3.6 2-.5.5-.6 1-.4 2 .2.7 0 1.6-.2 2l-.6 1.5c-.4 2.4-2.6 5.8-3.6 5.4-.6-.2-1.3.4-1.3 1.1s2.2 1.6 3.8 1.6c2.8 0 4 1.5 2 2.5-1.6.7-2 1.6-1.6 4 .2 1 .1 2 0 2.2-2 2.6-1.3 4.7 1.2 3.7 3.4-1.3 2.4 1.3-2 4.8-1.8 1.6-1.9 2-.6 3.4 1.3 1.5 1.5 3.1.5 5.4-1.1 2.7-3 5.6-3.3 5.1-.1-.2-.3.2-.3.9 0 .6.2 1.4.4 1.6.4.6-.4 5.3-1 6-.3.4-.5.8-.4.9h-.5c-.5-.1-1.2.3-2.2 1.3-.9.9-1.8 1.6-2 1.6-.4 0-.7.2-.8.6s-.8 1-1.5 1.5c-.8.5-1.3 1.1-1.3 1.4 0 .2-.3.5-.5.6-.5.2-1.2 2-.9 2.4l1.2-.4 2.8-1 2.1-.8a26 26 0 0 1 6.2-2.1c.4 0 1-.2 1.1-.4l2.1-.6c3-.7 2.8.5-.8 5.2-1.6 2.1-1.4 6.1.7 11.1 2.2 5.3 2.4 7.3 1 8.4-1.2 1-.3 1.6 1.6 1.3 1.7-.3 2.4-1.6 1.6-2.9-.9-1.3-.3-8.4.7-7.9.2.2.3-.2.3-.8 0-.5-.1-.7-.2-.4-.2.8-3.1 1.7-3.5 1-.5-.9.7-3.3 1.7-3.3.2 0 .6-.4.9-1 .2-.4.5-.8.7-.7s.2-.8.1-2.1c-.2-3.5-.2-3.5-1-2-1 1.3-2.2 2.1-3.7 2.1-1.7 0-1.4-1.2 1-3.8 1.7-1.8 2.1-2.9 2.4-5.6.2-1.6.4-2.6.8-2.7 1.5-.6.4-1.5-1.6-1.3-2.4.2-2.8-.3-1.8-2.1.4-.9.7-1.1 1-.8.4.3.4 0 .3-1 0-.8.1-1.6.7-2.5.8-1.4 1-4.8.4-5.2l-2 1c-2 1.7-3.2 2.3-3.2 1.8s1.7-3.2 2.2-3.5c.3-.2.3-.8.2-1.7-.3-1.6.4-2.3 2.5-2.8.7-.2 1-.5 1-1 0-.6.2-1 .4-1 .2-.2.5-2.2.4-3.6 0-.8-.7-.5-.9.4 0 .8-3.6 1.7-3.6 1 0-.5 2.4-2.3 3-2.3s.7-.5.8-3.2c0-2.1.2-3.2.5-3.2a177 177 0 0 0-.2-25.8c0-1.7-.1-2.1-.5-2-.8.3-1.2-.6-.6-1 2-1.6 1.4-8.4-1.4-13.7-.4-.9-.4-1.2 0-1.6.5-.7 1-.4 1.8 1.4l.6 1.6v-5.2a62.7 62.7 0 0 0-1.2-10.8c-.2-2.2-.5-3.7-1-4.5-.9-1.4-.9-2.1 0-1.6 1 .5 1.4-.3 1.2-2.3 0-1.1 0-1.8.3-1.8.9 0 .3-3.5-.6-3.6-.5 0-1 .1-1 .4m-125.4 8c-.6.7-1.1 1.6-1.1 2 0 .2-.1.7-.3.9l1-1a78 78 0 0 1 1.9-2c.7-.7.7-1.3 0-1.3-.2 0-.8.6-1.5 1.4m127 .2c-.2.6 0 1.5.6 2.3v-1.5c0-1.9 0-2-.5-.8m-5.2 5.8c.1.2.3.4.5.4s.4-.2.5-.4c0-.2-.1-.4-.5-.4-.3 0-.5.2-.5.4M216 197.5l-1 1.8-1.2 2.2a6 6 0 0 0-.7 2l-.4 1.4c-.3.5-.3.8 0 1.2.4.3.4.3.2 0-.1-.3 0-.5.1-.5.3 0 .4-.2.4-.5 0-.2.5-.7 1-1.1 1-.9 2.2-3 2.5-4.7 0-.8.3-1.6.4-2 .4-1-.7-.8-1.3.2m47.7.6c.5.7.6 1.9.1 1.9-.4 0-1-.8-1.3-1.8s.4-1 1.2-.1m-69.5 2.1a8 8 0 0 0 .3 2.8c.5.7.5.3.4-2.4 0-2.8-.7-3-.7-.4m8 9.2a16 16 0 0 0-1 7 5 5 0 0 1-.2 3c-.4.6-.4 1-.1 1.2s.3 1.3.2 3.6a153 153 0 0 0-.6 7.7c-.2 0-.2.3-.2.8l.1 1.4c0 .4.5.7 1 .8 1 .2 1.2-.6 1.5-3.8.2-3.3.6-4.9 1.2-4.6.4.1.5 0 .2-.3s-.5-2.9-.5-6.2c0-3.6-.3-5.8-.5-6q-.45-.3 0-.6c.3-.2.5-.5.5-.7-.1-.1 0-1 .1-2 .6-3.4-.9-4.4-1.7-1.3m57 16.3c-.3.7-1.3 1-1.3.5 0-.3 0-.6.2-.8.5-.4 1.2-.2 1 .3m-1.6 3.5c0 .7-.6 1.8-.9 1.5v-1.2c.3-1 1-1.4.9-.3m-92 8.5-.6 1.4.8-.9c.4-.5.7-1.1.7-1.4 0-.8-.1-.6-.8.9m-32.5 20c0 1.5.1 1.9.3 1.3.2-.4.2-1.3 0-2-.2-1.1-.3-1-.3.8m0 3.6c0 1.5.8 3 1.7 3 .7 0 .6-.6-.3-.9-.4-.1-.7-.3-.7-.5l-.2-1.1c-.2-.6-.1-.8.1-.7.3.2.3 0 .2-.5-.3-1.2-.8-.8-.8.7m112.8 1c.7.2 1.8.2 2.4 0zm-6.3.5h3.2c.9-.1.1-.2-1.6-.2s-2.4 0-1.6.2m-16 .5c-2.4.2-2.3.2 1.1.2 2 0 5.7-.1 8-.3l4.3-.2h-5.4c-3 0-6.6.1-8 .3m-60.6.2h3.9c1 0 .2-.1-2-.1-2.1 0-3 0-2 .1m8.9.1c.7.3 6 .5 5.7.2l-3.3-.3c-2-.2-2.9-.1-2.4.1m9 0a71.5 71.5 0 0 0 10.2.2 63 63 0 0 0-10.2-.2m-40.3.3h2.8c.8-.1.2-.2-1.3-.2-1.6 0-2.2 0-1.4.2"/><path fill="#bb9d7b" d="M264.8 131.4a28.4 28.4 0 0 0 .3 5.3c0-1.2.2-1.8.5-1.7.2.1.3 0 .3-.2s-.1-.4-.4-.4c-.2 0-.3-.7-.2-1.8.1-1.8-.2-2.6-.5-1.2m1.1 13.5c-.3.8-.2 1.4.2 1.5.2.1.4 0 .4-.3s-.1-.5-.3-.5-.2-.2 0-.4v-.4zm.2 4.9.2 1.7c0 .6.1 1 .3 1 .4-.3 0-2.8-.5-3.2-.2-.1-.2 0 0 .5m-1 1.9v6.6c.3 4.6.5 4.4.5-.5 0-1.6.1-2.6.3-2.3.2.4.3.4.5 0s0-.6-.2-.6c-.3 0-.5-.8-.6-2.7l-.2-2.8zm1.4 5.6.4 1c.2.6.1.6-.3.4q-.6-.45 0 .3c.3.3.4.8.3 1-.2.2-.1.4.1.4s.4-.7.4-1.5l.1-1.7c0-.2-.2-.3-.6-.4-.4 0-.6 0-.4.5m-.4 4.1c-.1.4 0 .5.4.3s.5 0 .2.5c-.5 1-.5 1.6 0 1.3.2-.1.2 0 .1.4-.1.3 0 .5.2.5s.4-.7.4-1.7c0-1.8-.8-2.6-1.3-1.3m.4 5c0 .4 0 .7.2.8.2.2.3.4.1.6 0 .2 0 .2.4.1s.5-.4.2-.9c-.2-.3-.2-.7-.1-.8.1-.2 0-.3-.2-.3s-.4.3-.6.6m-.8 3.9c0 1 0 1.5.1 1v-2c0-.6-.1-.2-.1 1m1 1c0 .5.1.9.3 1 .4.2.9-.8.6-1.3-.4-.6-1-.4-1 .4m1 1.5c-.1.2-.4.3-.6.2-.1-.1-.3.3-.3 1 0 .8.2 1.2.5 1.2s.4-.1.3-.4c-.4-.6-.4-1.3-.1-1.3.2 0 .4-.2.5-.6.3-.6 0-.7-.3-.1m-.3 4.3c-.5.6-.5.8-.1.6.3 0 .6-.4.7-.8.4-.9.1-.8-.6.2m-.6 1.5c0 .8.7 1.7.7 1.1 0-.3.2-.6.5-.7.2-.1 0-.3-.4-.4-.5-.1-.8-.1-.8 0m0 4.5c0 .3.4.8.9 1 .5.3 1 .3 1 .1 0-.1-.4-.4-.9-.5q-.75-.3-.3-.6c.3-.2.3-.3-.1-.5-.4-.1-.6 0-.6.5m0 2.3c0 .6.1 1 .3 1s.4.3.4.6c0 .4-.2.5-.4.4q-.3-.15-.3.3c0 .7.7 1.2.8.5.2-2 .2-2.8-.1-2.6-.2 0-.4 0-.4-.2s.2-.4.5-.5c.3 0 .2-.2-.2-.4-.5-.2-.6 0-.6.9m1.4 2.3c-.2.4-.2 1.7 0 1.7s.3-.4.3-.9c0-.8-.1-1.2-.3-.8m-2.2 1.5-.2 2.3c-.1 1.7 0 2 .6 2.4.5.2.7.3.6 0-.6-1-.6-2.4 0-1.7.4.4.9.8 1.1.8.5.1.4-1.2 0-1.6-.2-.2-.2 0 0 .2 0 .2 0 .4-.3.4-.7 0-1.6-1.7-1.5-2.6v-.7c-.2 0-.3.2-.3.5m1.7 5.4c-.7.8-1 2.2-.5 2.2.1 0 .3-.2.3-.4 0-.3.2-.7.4-1 .4-.4.8-1.5.6-1.5zm-1.5 5c0 1.8 0 2.6.1 1.8v-3.3c0-1-.1-.3-.1 1.5m1.4-2.2c-.5.4-.8.9-.8 1l1-.7.8-1c-.1 0-.5.2-1 .7m-.3 1.7c-.7 1.2-.7 2 0 1.4.3-.2.6-.7.6-1.1 0-.5.1-.7.4-.5s.3.1.2-.2c-.4-.5-.5-.5-1.2.4m0 2.4-.4 1c-.1.1 0 .2.4 0 .3 0 .5-.3.4-.5-.1-.1 0-.4.3-.4.3-.2.3-.2 0-.5-.3-.1-.6 0-.7.4m0 1.8c-.1.3-.1.7 0 .8.1.2.4 0 .7-.2.3-.3.3-.5 0-.8-.4-.4-.5-.3-.7.2m-.2 2.6c.2.2.3.6.1.7-.6.7-.4 3.2.3 3.2.4 0 .8-.3.9-.6.2-.4 0-.5-.5-.1-1 .4-1 .2-.2-1 .6-.8.6-.9 0-.9-.5 0-.6-.1-.3-.4.5-.5.2-1.4-.3-1.4-.3 0-.3.1 0 .5m-1.4 5.4c0 1 0 1.9.2 1.7.3-.2.3-3.2 0-3.5-.1 0-.2.7-.2 1.8m1.4-1c-.6 1.3 0 2.5.8 1.5.4-.5.2-.7-.5-.5-.2 0-.3-.2-.1-.6.1-.4 0-.8-.2-.4m.2 2.8c-.6.4-.5 1 0 1 .6 0 1-.8.6-1.1h-.6m-.4 2.8c0 .8 0 1 .2.5.1-.3.4-.6.5-.6.2 0 .3 0 .3-.2l-.3-.1-.5-.4c-.1-.2-.2.1-.2.8m-1.1 1.8c0 1.3 0 1.8.1 1.2v-2.4c0-.7-.1-.1-.1 1.2m1.4-.5c-.2 0-.4.3-.4.5 0 .4.8.3 1-.2q.3-.6-.6-.3m-.4 3.3c-.2.5-.2 1.2 0 1.7l.2.8.2-.8c.1-.5 0-.7-.1-.6-.4.3-.4 0 0-1.1l.2-1zm-.4 7.5v1.6c0 .2-.2.3-.4.3s-.3.7-.3 1.5.1 1.5.3 1.6c.2.2.4.6.4 1 0 .5 0 .7.2.6l.2-2c0-1 .2-2 .4-2.5.3-.5.3-.6 0-.4q-.6.3-.3-.6l-.1-1.6c-.3-.6-.4-.5-.4.5m.1 8.5c0 1.6.4 2.6.5 1 0-.4.1-1.2.3-1.7.2-.6.1-.7 0-.4-.4.4-.5.4-.6 0-.1-.3-.2.2-.2 1m0 4c0 1 0 1.8.2 1.9.3.1.2-3.1 0-3.4-.2-.1-.2.6-.2 1.5m-.7 2.8c0 1.8 0 2.5.1 1.6v-3.1c0-1-.1-.2-.1 1.5m-.9 18.9c0 .2-.6.4-1.4.6l-1.4.3 1.1.3c2 .4 2.8.3 2.8-.3 0-.3-.2-.5-.4-.5s-.3-.2-.1-.4c.1-.2 0-.3-.2-.3s-.4.1-.4.3m-4.6.4c.1.2.5.4.8.4s.4-.2.3-.4-.5-.4-.8-.4-.4.2-.3.4m-19.7.6h1.8l-1-.1c-1 0-1.4 0-.8.1m-7.6.4h2.6c.7 0 .2-.1-1.2-.1-1.5 0-2 0-1.4.1m-8.5.4h2.4c.6-.1 0-.2-1.2-.2-1.4 0-2 0-1.2.2m-86 .3h2.6c.8 0 .2-.1-1.2-.1s-2 0-1.4.1m105.8.4h1.8c.5 0 0-.2-1-.1-1 0-1.4 0-.8.1m18.9 0h1.3c.3 0 0-.2-.7-.2s-1 .1-.6.2m-28.4.4a4 4 0 0 0 1.5 0c.4-.1 0-.2-.8-.2s-1.1 0-.7.2m-79.8.3c.3.3 8.5.2 8.8 0 0-.1-2-.2-4.4-.2-2.6 0-4.5 0-4.4.2m-9.1.4h2.3l-1.2-.1c-1.3 0-1.7 0-1 .1"/><path fill="#fcdc84" d="M150 130c-17 .2-16 0-17 1.9a188 188 0 0 0-.4 25.3q-.6-.3 0 .6.45.75 0 .6c-.2-.2-.3 0-.3.7 0 .5.2.9.4.9s.2.2 0 .5c-.2.2-.4.8-.4 1.4v4.8l.1 10.3c.3 7 .3 9.3.2 14.1 0 3 .2 5 .6 5.7.2.2 0 .2-.2 0-.3-.1-.4 1.2-.2 5.9.2 3.3.3 7 .2 8.4l-.2 13.9-.4 18.8c-.2 6-.2 7.4.2 7.7.3.2.5 1 .5 2 0 .9.2 1.5.3 1.5.1-.1.3 1.2.5 3 .3 3.5.5 3.6 2.7 1.8 1.2-1.1 1.4-2 .8-3.9-.3-.8-.3-.8-.2.3 0 1.3-.1 1.5-.8.8-.6-.6-.6-3 0-3.6.2-.3.5-.8.5-1.3l.4-2.6c.1-1.4 0-1.7-.4-1.7-.9 0-1.1-1-.7-2.2.3-.5.6-2.4.8-4.1a17 17 0 0 1 1-4.3c.8-1.4.3-2.4-1.2-2.4a.9.9 0 0 1-.3-1.7c.3-.1.4-.4.3-.8-.2-.3-.1-.5.1-.3.7.4 1.5-2.1 1.6-4.9 0-2.4.2-3 1.2-4.4 1-1.6 1.2-3.2.2-2.4-.5.4-3.7 1.3-4 1.2-.2 0-.7.1-1.1.4-.9.4-1 .2 0-1 .8-1.4 1.4-2 1.8-2 .3 0 .4-.2.4-.5s.1-.3.3 0c.5.7 2.6 1 2.8.4.3-.7-.1-1.2-1.2-1.6-.5-.1-.8-.1-.6.1.5 1-.5.8-1.1 0-.6-1-.6-1.1.1-3.1.5-1.2 1-2.9 1-3.7.2-1 .5-1.6.8-1.6s.5.2.3.4c0 .2 0 .3.2.3.3 0 .4-.2.3-.5s0-.6.2-.7c.3-.2 0-.2-.4 0-.5 0-.8 0-.8-.2s.2-.4.4-.4c.3 0 .3-.1.2-.3-.2-.2-.5 0-.7.3-1 1.5-2.2-.4-1.8-2.9l.4-3.8c0-2.2.4-2.5 3.5-2.7 5.5-.3 12.4-2.2 12.4-3.3 0-.5.2-1 .4-1.2.2-.1.4-.7.6-1.3.1-.8.4-1.1 1-1.1.7 0 .9-.8.1-1.5-.4-.3-.6-.3-1 .3-.3.5-.3.5-.3 0 0-2.8-5.5-.8-8.2 3-.3.4-.7.8-1 .8-.2 0-.5.1-.5.3s.5.3 1.2.2c1.5-.3 1 .7-.5 1l-1.6.5c-.7.3-.7.3 0-.4 1-1.2.7-1.5-.4-.4-1 1-1.7 1.1-3.7.6-1-.3-1-.3.3-.2 1.8.1 1.8.2-.5-1.3l-2.2-1.5c-.3-.4-1.3-.6-1.8-.3-.4.2-.2.7 1 2.2 1.7 2 2 2.6.6 1.5-2-1.6-3.4-4.6-2-4.2.6.2.8.1.6-.2-.2-.2.2-.9.8-1.5l1-1 .3-7.4a32 32 0 0 0-.3-9c-.6-2-.7-5-.2-5.4.2-.1.4-.6.4-1s.2-.7.4-.7.3-.1.2-.3.2-.8.7-1.4.8-1.2.6-1.4c-.5-.4-1.7 1-1.7 1.8 0 .4-.3.8-.6.9-.4.1-.4 0 0-.4.3-.5.3-.5-.6-.4-.7.2-.9.1-.7-.2.3-.4.1-.4-.5 0-.6.3-.8.2-.8-.2 0-.8 2-4.7 2.4-5 .5 0 .4-1.5-.1-1.5-.2 0 0-1.2.2-2.7.3-1.5.5-3.9.5-5.3 0-2.7.4-3.8 2.7-7.5.4-.6.6-1.2.4-1.2-.1 0 0-.4.4-1 .5-.7.5-.8 0-.8-.3 0-.5.1-.5.4 0 .2-.2.3-.4.1-.2 0-.2.1-.1.5 0 .3-.9 2.3-2.1 4.3-1.3 2.1-2.2 4-2 4.4 0 .4-.1.6-.4.5-.6-.2-.7-2.5-.1-3a7 7 0 0 0 1.2-1.5l.7-1.1-1.4 1.2c-2.5 2.4-2.5-.1.1-7 1.1-3 5-5.9 7.6-5.9.6 0 1-.1.8-.3-.2-.3 0-.3 8.7-.7a133 133 0 0 1 12.7-.1c3.7-.4 20.5-.6 53.4-.5 22.3 0 40.7-.1 41-.3l.3-.3c-2-.2-98.9-.2-110.3 0m-16.4 2.9c-.3.6-.3.6-.4-.2 0-.8.5-1.5.7-.9 0 .2 0 .7-.3 1m1.8 2.5c.1 2.5-.5 2.8-.8.4-.4-2.4-.3-2.8.2-2.6.3 0 .5 1 .6 2.2m23.5 7c-.7.9-.8 2.1-.2 2.6.5.4.6.4.3-.2-.1-.5 0-1 .5-1.4l.8-1c0-.6-1-.5-1.4 0m-5.2.5c0 .3 0 .8.3 1 .8 1 0 1.5-1 .6-.8-.8-.8-.8-1.2 0-.3.5-.7.7-1.2.5-.5-.1-.7 0-.5.4s0 .6-.3.6c-.6 0-3.6 2.8-3.6 3.4 0 .4-2.6 3-2.6 2.6 0-.1-.4.3-.8 1-.4.6-1 1.2-1.2 1.2-.8 0-2.7 2.2-2.5 3 0 .4.3.6.7.3a22 22 0 0 1 8.6-2.2c1.9 0 2.2-.1 2.3-.7 0-.5 0-.5.3.1.3.7.3.7.4-.2 0-.8 0-.8.4-.1q.3.9.3 0c0-.3.3-.6.5-.6.3 0 .7-.2.8-.6 0-.3.6-.7 1.2-1 .8-.4.9-.5.7-1.8s.2-1.9.7-1c.5.7 2.5-.8 2.3-1.7-.2-.5-.1-1 .1-1s.4-.1.4-.3-.2-.4-.4-.4c-.4 0-.8-.3-2.1-1.5-.6-.5-.6-.5 0-.6 1-.2.8-.8-.3-1.2-1.4-.5-2-.5-2.3.2m1.6 5c.1.2 0 .5-.1.7l-.8 1c-.3.5-.4.5-.3-.7 0-1.4.7-1.9 1.2-1m7.8 13.6a1 1 0 0 1-.5.3c-2 0-3.5 1.6-1.7 1.6.5 0 1.3-.2 1.7-.5.5-.4 1-.6 1.2-.5.8 0 1.3-.1 1.3-.6 0-.6-1.5-.8-2-.3m-27.8 5c.1.3.2 1 0 1.6 0 1 0 1-.6-.5-.6-1.3-.6-1.6-.1-1.6.3 0 .6.3.7.5m77 8.1c-.2.7-.3 1.4-.1 1.6.4.5 1-.2 1.3-1.6.3-1.6-.5-1.6-1.1 0M137 227.8c1 .5.6 1.5-.6 1.5-.9 0-1-.3-.6-1.3.2-.7.3-.7 1.2-.2m.1 17.4c0 .7.1 1 .2.6v-1.3c-.1-.3-.2 0-.2.7m-1.6 12.1c0 .3-.2.5-.7.5-.4 0-.7-.3-.7-.6 0-.7 1.1-.6 1.4.1"/></g></svg>