<svg xmlns="http://www.w3.org/2000/svg" fill="none" viewBox="0 0 240 240"><rect width="240" height="240" fill="#162F29" rx="120"/><path fill="#fff" d="M211.88 120.5c0 .92-.02 1.86-.04 2.79h-44.69v-2.04h-43.01l.01-1.26-.01-1.27h43v-2.02h44.65c.06 1.26.09 2.53.09 3.8Zm-88.5-9.18 42.1-5.17.25 2.02 44.44-5.47a93.15 93.15 0 0 0-1.5-6.45l-43.76 5.39.26 2.02-42.3 5.2c.2.83.36 1.65.51 2.49v-.03Zm-2.2-8.14 40.23-10.05.5 1.97 42.69-10.66a97.29 97.29 0 0 0-2.84-6.08l-41.44 10.35.5 1.97-40.57 10.14c.34.79.64 1.57.93 2.37v-.01Zm-3.56-7.63 37.6-14.2.72 1.9 39.8-15.02a86.8 86.8 0 0 0-4.1-5.5l-38.02 14.35.71 1.9-38.06 14.38c.47.72.92 1.45 1.35 2.2Zm-4.94-7.05L145.9 71.2l.93 1.8 36.73-19.14a92.48 92.48 0 0 0-5.26-4.7l-34.52 18 .93 1.8-33.77 17.6c.58.65 1.17 1.29 1.73 1.95h.01Zm-8.01-7.61 30.08-19.12 1.09 1.71 33.19-21.1a90.5 90.5 0 0 0-6.42-3.73l-30.3 19.27 1.1 1.72-30.95 19.67c.76.5 1.5 1.03 2.22 1.58h-.01Zm-7.1-4.45 25.2-20.66 1.29 1.57 28.38-23.29a92.4 92.4 0 0 0-7.38-2.46l-25.18 20.65 1.3 1.57-26.13 21.43c.85.37 1.69.77 2.51 1.2Zm-9.41-3.66 19.9-19.81 1.43 1.44 25.3-25.14a95.27 95.27 0 0 0-8.35-1l-21.57 21.47 1.42 1.43L85.27 72.1c.97.2 1.93.43 2.89.7Zm-11.01-1.66 15.88-19.24 1.57 1.29 20.66-25.05c-3.14.15-6.24.46-9.29.91L89.51 48.98l1.57 1.29-17.2 20.84a52.76 52.76 0 0 1 3.27 0v.01Zm-9.52.57 12.23-18.92 1.7 1.1L96.37 31a92.28 92.28 0 0 0-9.9 3.18L76.04 50.28l1.7 1.1L64.2 72.37c1.13-.27 2.28-.5 3.44-.68v.01Zm-10.56 2.94 8.8-16.48 1.78.95 11.64-21.8a92.4 92.4 0 0 0-10.76 6.17L61.83 56l1.8.96-10.35 19.4c1.22-.62 2.48-1.2 3.78-1.71v-.02Zm-7.59 3.88 3.74-10.62 1.92.68 7.27-20.63a93.92 93.92 0 0 0-10.36 9.57l-3.13 8.87 1.92.68-4.9 13.9a48.86 48.86 0 0 1 3.53-2.44l.01-.01Zm-9.32 7.6 1.65-7.72 1.98.42 3.32-15.54a92.8 92.8 0 0 0-9.24 14.27l1.47.32-3.03 12.77a47.95 47.95 0 0 1 3.84-4.52Zm-6.86 9.02V84.9c-2.47 6.53-4.23 14.66-5.17 22.63a48.69 48.69 0 0 1 5.17-12.41Zm-5.1 37.56a91.77 91.77 0 0 0 5.04 19.6v-7.54a48.75 48.75 0 0 1-5.05-12.06Zm8.43 17.1 2.65 12.36-1.48.31a92.17 92.17 0 0 0 9.25 14.27l-3.33-15.54-1.98.42-1.68-7.8a47 47 0 0 1-3.43-4.03v.01Zm9.22 9.19 4.92 13.97-1.91.68 3.13 8.88a93.82 93.82 0 0 0 10.35 9.56l-7.27-20.62-1.91.68-3.76-10.68a54.02 54.02 0 0 1-3.54-2.45v-.02Zm7.35 4.62 10.38 19.45-1.8.96 6.7 12.53a92.36 92.36 0 0 0 10.76 6.18L67.6 180.9l-1.8.96-8.82-16.53c-1.3-.52-2.56-1.1-3.8-1.73l.02-.02Zm10.92 4.01 13.56 21-1.7 1.1 10.4 16.12a92.13 92.13 0 0 0 9.9 3.18L81.5 186.13l-1.7 1.1-12.24-18.95a49.78 49.78 0 0 1-3.45-.68l.01.01Zm9.69 1.28 17.2 20.84-1.58 1.3 16.46 19.94c3.05.45 6.15.76 9.3.9l-20.67-25.05-1.57 1.29-15.88-19.25c-.57.03-1.16.03-1.74.03-.5 0-1.03 0-1.53-.02l.01.02Zm11.4-.98 21.02 20.9-1.43 1.44 21.57 21.47c2.82-.22 5.6-.55 8.35-1l-25.29-25.15-1.43 1.45-19.9-19.8c-.94.25-1.91.49-2.89.69Zm9.8-3.13 26.1 21.41-1.3 1.57L145 208.42c2.5-.72 4.98-1.55 7.39-2.47l-28.4-23.28-1.3 1.57-25.17-20.66c-.82.43-1.66.83-2.51 1.2Zm7.4-4.07 30.9 19.65-1.1 1.72 30.3 19.27a92.8 92.8 0 0 0 6.42-3.73l-33.19-21.1-1.09 1.71-30.03-19.1c-.73.55-1.47 1.09-2.23 1.6l.02-.02Zm8.51-7.24 33.74 17.58-.93 1.8 34.52 18a92.88 92.88 0 0 0 5.25-4.7L146.78 167l-.94 1.81-33.17-17.28c-.56.66-1.13 1.31-1.73 1.94h-.02Zm5.34-6.81 38 14.35-.71 1.9 38.03 14.37a97.95 97.95 0 0 0 4.09-5.51l-39.8-15.03-.71 1.9-37.55-14.18c-.43.74-.88 1.48-1.35 2.2Zm3.98-7.46 40.5 10.12-.5 1.97 41.44 10.35a90.23 90.23 0 0 0 2.85-6.08l-42.7-10.66-.48 1.97-40.18-10.04c-.3.8-.61 1.59-.93 2.37Zm2.63-8.03 42.23 5.19-.25 2.02 43.75 5.39a96.18 96.18 0 0 0 1.5-6.46l-44.44-5.47-.25 2.03-42.03-5.18c-.15.84-.32 1.66-.5 2.49v-.02Z"/></svg>
