<svg xmlns="http://www.w3.org/2000/svg" width="1000" height="1000" version="1.0" viewBox="0 0 750 750"><path d="M356.5 121c-49.4 3.1-103.5 24.4-141.1 55.6-17.9 14.8-27.5 24.6-42.6 43.5-7.5 9.4-20.1 29.9-26.8 43.5-10.2 20.8-19.1 48.5-22 67.9-.5 3.8-1.5 10.4-2.2 14.5-1.4 9.2-1.4 48.9.1 58.5.5 3.8 1.5 10.1 2.1 14 2.7 17.5 10 41.7 18.2 60 19.5 44 52.8 83.2 92.7 109.4 39.4 25.9 83.8 39.9 131.6 41.7 22.6.9 51.1-2 69.8-7 23.5-6.4 35.7-11.1 55.6-21.3 77.9-40 129.2-116.7 137.1-204.8 4.3-47.5-6.2-98.4-29.2-141.5-41.4-77.5-120.4-128.4-208.3-134.1-15.3-.9-18.6-.9-35 .1m40 46.5c6.6.8 13.6 1.7 15.5 2.1 10.1 2 8.9 10.5-1.7 11.9-41.7 5.7-81.9 25.5-111.7 55-24.9 24.7-43.5 55.4-51.4 85-.6 2.2-1.8 6.5-2.7 9.5-2.1 7.1-4.2 21.9-5.1 35-.9 14.7 2.1 44.9 5.5 55 .5 1.4 1.4 4.5 2.1 7 8.8 31.2 24.9 58.5 49 83 22.8 23.1 48.5 39.3 78 49 6.3 2.1 13.8 4.3 16.5 4.9 2.8.7 6.6 1.6 8.5 2.1 1.9.4 6.4 1.1 9.9 1.5 6.6.8 10.1 2.9 10.1 6.2-.1 4.6-3 5.7-20.5 7.8-25.8 3.1-56.4.6-81-6.6-75.7-22.2-132.8-84.7-147.4-161.4-3.5-18.3-4.6-37.6-3.2-54.3 3.8-44.1 18.1-80.6 44.6-114.7 43-55.2 116.6-86.2 185-78m65.5 61.8c8.7 1.7 11 3 11 6.7 0 3.8-2.2 5.1-13.5 8-37.3 9.5-71 37.3-87.3 72-10.4 22.1-13.1 34.7-13.2 59.6 0 17.8 2.8 34.8 7.9 46.9 6.3 15.1 13 26.9 20.6 36.5 13.8 17.3 32.1 31.5 51.2 39.9 8.5 3.6 20.5 7.7 25.8 8.6 5.9 1.1 8.5 3 8.5 6.5 0 3.9-2.6 5.4-12.5 7.1-11.8 2-43.6 1.8-54.5-.4-58.9-12-105.4-58.8-116.9-117.7-6.2-31.5-1.4-65.7 13.3-94.7 17.7-35.2 53.1-64.8 89.6-75.2 2.5-.7 5.9-1.6 7.5-2.1 3-.8 14.1-2.7 20.5-3.4 6.3-.7 35.4.5 42 1.7m44 60.2c16.7 2.7 23 5.3 23 9.6 0 2-4.9 6.4-8.2 7.5-4.4 1.3-15.3 9.1-21.1 15-15.7 15.8-24.2 39.9-21.7 61.1 3.2 27.2 18.4 48.8 43.2 61.4 10.5 5.3 9.9 10-1.8 13.7-18.8 5.9-35.9 5.4-55.2-1.6-26.5-9.8-47.3-33-54.1-60.6-2.6-10.5-2.8-29.9-.5-39.1.9-3.3 1.8-7.1 2.1-8.4 1.1-4.6 8.3-18.1 13.3-25 9.7-13.4 26.7-25.5 43-30.6 6.1-1.9 19.4-4.2 25.5-4.3 2.2-.1 7.8.5 12.5 1.3m55.6 66.4c4.4 2 11.1 9.2 12.1 12.9.3 1.2.3 4.9.1 8.1-.6 7.9-3.9 13-10.9 16.5-9 4.4-18.1 2.7-24.6-4.7-8.9-10.2-6-25.2 6.2-31.9 5.9-3.3 11.3-3.5 17.1-.9"/></svg>