<svg xmlns="http://www.w3.org/2000/svg" width="257" height="293" fill="none" viewBox="0 0 257 293"><path fill="#E60012" d="M128.018 0c1.778 0 3.557.462 5.15 1.38l117.713 67.97-.003-.003a10.31 10.31 0 0 1 5.15 8.925V214.21c0 3.681-1.961 7.083-5.15 8.925l-90.593 52.307c-5.061 3.343-10.245 6.555-15.525 8.964l-11.595 6.698a10.3 10.3 0 0 1-10.302 0l-11.594-6.698c-5.284-2.409-10.465-5.621-15.526-8.964L5.15 223.135A10.31 10.31 0 0 1 0 214.21V78.275c0-3.68 1.961-7.082 5.15-8.924L122.867 1.38A10.3 10.3 0 0 1 128.018 0M98.432 176.653c-5.224 3.323-8.357 7.544-8.357 12.141 0 10.7 16.942 19.376 37.843 19.376s37.842-8.676 37.843-19.376c0-4.524-3.027-8.686-8.101-11.982.292.843.454 1.71.454 2.592 0 8.314-13.473 15.052-30.096 15.052-16.624 0-30.097-6.741-30.097-15.052 0-.939.182-1.858.51-2.751m-49.7 7.763c-9.127 0-16.524 3.787-16.524 8.46s7.397 8.46 16.523 8.46c9.127 0 16.524-3.787 16.524-8.46s-7.397-8.46-16.524-8.46M12.255 79.4v114.402l103.47-59.383v29.864a5 5 0 0 0-.054.703c0 4.288 5.489 7.767 12.256 7.767 6.766 0 12.256-3.479 12.256-7.767a5 5 0 0 0-.077-.859v-29.821l103.669 59.496V79.4L128.018 12.56zM124.55 31.844a6.76 6.76 0 0 1 6.763 0l34.683 20.027a6.76 6.76 0 0 1 3.382 5.857v40.054a6.77 6.77 0 0 1-3.382 5.859l-34.683 20.026a6.76 6.76 0 0 1-6.763 0l-34.684-20.026a6.76 6.76 0 0 1-3.382-5.859V57.73a6.77 6.77 0 0 1 3.382-5.858z"/></svg>