<svg xmlns="http://www.w3.org/2000/svg" fill="none" viewBox="0 0 60 60"><rect width="60" height="60" fill="#0E0B31" rx="30"/><path fill="#B6FF3E" fill-rule="evenodd" d="M44.4 43.9c0 .3 0 .4-.3.5L30.2 53h-.6l-13.8-8.4a.6.6 0 0 1-.2-.6V33.3a.6.6 0 0 1 .8-.6l13.6 8 13.4-7.8.4-.2c.4 0 .6.3.6.6v10.5ZM16.7 43l4-2.4-4-5.5v8Zm4.7-1.4L17.3 44 28 50.7l-6.7-9.1Zm10.6 9L42.7 44l-4.1-2.5-6.6 9Zm7.3-10 4 2.3v-8l-4 5.6Zm-9.6 1.2-11.5-6.6L30 51.4l11.6-16.1-11.3 6.5zM16.1 30.5a.6.6 0 0 1-.5-.5V16c0-.2 0-.4.2-.5l14-8.5h.6L44 15.4c.2.1.3.3.3.5v14c0 .2-.1.4-.4.5L30.3 38h-.6zm.6-13.5v11.1l5-8-5-3Zm26.6 0-5 3 5 8.1zm-5.7 2 5.1-3.1-11.1-6.8zm-9.3-9.8-11 6.8 5 3zM17.1 29.7 30 36.8l12.9-7-13-21-12.8 21Z" clip-rule="evenodd"/><circle cx="30" cy="30" r="27.7" stroke="#120370" stroke-width="1.1"/><circle cx="30" cy="30" r="27.7" stroke="url(#a)" stroke-width="1.1"/><defs><linearGradient id="a" x1="29.6" x2="41.5" y1="57.2" y2="9.1" gradientUnits="userSpaceOnUse"><stop stop-color="#29BCFA"/><stop offset=".4" stop-color="#6464E4"/><stop offset="1" stop-color="#B45AFA"/></linearGradient></defs></svg>