<?xml version="1.0" standalone="no"?>
<!DOCTYPE svg PUBLIC "-//W3C//DTD SVG 20010904//EN"
 "http://www.w3.org/TR/2001/REC-SVG-20010904/DTD/svg10.dtd">
<svg version="1.0" xmlns="http://www.w3.org/2000/svg"
 width="128.000000pt" height="128.000000pt" viewBox="0 0 128.000000 128.000000"
 preserveAspectRatio="xMidYMid meet">

<g transform="translate(0.000000,128.000000) scale(0.100000,-0.100000)"
fill="#000000" stroke="none">
<path d="M275 1101 c-23 -10 -53 -33 -68 -50 -33 -39 -58 -119 -51 -163 7 -43
-10 -88 -34 -88 -19 0 -42 -64 -42 -117 0 -25 0 -26 -20 -8 -20 18 -20 17 -20
-24 0 -23 7 -56 16 -73 13 -26 14 -35 3 -55 -11 -21 -10 -29 5 -57 33 -62 77
-107 96 -101 14 4 21 -2 29 -28 7 -19 27 -59 45 -90 24 -40 31 -58 23 -66 -6
-6 -14 -11 -19 -11 -4 0 -32 -11 -62 -25 -94 -43 -103 -45 -116 -30 -13 16
-40 9 -40 -11 0 -8 9 -14 20 -14 11 0 20 -7 20 -15 0 -17 11 -19 26 -7 5 5 36
19 69 32 33 13 75 32 93 42 39 22 61 23 68 4 3 -8 24 -25 47 -37 57 -30 79
-42 97 -54 8 -5 27 -8 42 -6 19 2 36 -6 53 -23 21 -21 36 -26 75 -26 35 0 50
4 50 13 0 16 34 50 42 42 8 -9 101 16 119 31 8 8 21 14 27 14 7 0 12 5 12 10
0 17 29 11 90 -20 33 -17 61 -28 61 -25 1 3 2 9 3 14 2 19 16 24 31 11 20 -17
20 4 0 24 -13 12 -20 13 -34 4 -15 -9 -27 -8 -57 7 -22 10 -40 19 -42 20 -8 7
22 48 72 97 l53 54 51 -14 c52 -15 122 -10 122 8 0 5 -24 33 -52 62 -29 29
-68 70 -86 90 l-33 38 17 35 c23 49 31 51 38 10 4 -19 11 -35 16 -35 25 0 22
142 -4 202 -7 16 -4 17 23 12 44 -9 40 8 -19 70 -27 29 -50 58 -50 64 0 7 14
12 30 12 60 0 48 45 -19 80 -22 11 -40 30 -48 49 -11 31 -11 32 18 38 20 4 29
11 27 22 -5 24 -173 36 -246 17 -51 -13 -52 -12 -36 6 10 10 14 21 11 24 -11
11 -136 -16 -172 -37 -39 -23 -43 -20 -19 17 33 50 -11 43 -70 -11 l-37 -34
-30 33 c-57 65 -136 83 -214 47z m160 -37 c29 -19 68 -82 59 -96 -4 -6 -10 -6
-17 1 -6 6 -21 11 -32 11 -12 0 -30 9 -40 20 -23 26 -96 27 -126 3 -37 -30
-56 -50 -67 -69 -17 -31 -24 -9 -12 37 14 50 66 105 108 112 41 7 101 -2 127
-19z m-34 -90 c12 -15 11 -16 -8 -10 -12 4 -31 1 -43 -6 -17 -11 -22 -11 -29
1 -5 8 -11 9 -15 3 -3 -6 0 -12 6 -15 9 -3 7 -10 -7 -21 -11 -8 -23 -16 -27
-16 -15 0 -8 43 9 62 21 24 95 25 114 2z m607 -2 c2 -7 -6 -12 -17 -12 -21 0
-27 11 -14 24 9 9 26 2 31 -12z m-398 -202 c0 -5 -4 -10 -10 -10 -5 0 -10 5
-10 10 0 6 5 10 10 10 6 0 10 -4 10 -10z m172 -117 c30 -20 45 -24 70 -19 88
19 139 24 164 17 53 -14 35 -26 -35 -23 -82 4 -220 -23 -228 -45 -8 -21 5 -29
27 -15 26 16 46 15 76 -4 34 -23 110 -14 130 15 17 24 51 27 77 8 16 -11 15
-15 -13 -46 l-31 -34 -80 7 c-43 3 -89 10 -102 15 -14 6 -42 5 -70 -1 -34 -7
-52 -6 -69 3 -13 8 -46 12 -75 10 -29 -1 -53 -1 -53 2 0 3 14 19 31 37 33 32
62 33 85 2 11 -15 44 -11 44 5 0 9 -53 38 -88 48 -22 6 -22 8 -7 25 9 10 23
16 30 14 7 -3 15 2 18 10 8 19 42 8 99 -31z m-342 -44 c0 -6 14 -24 31 -40 19
-18 26 -30 18 -31 -28 -3 -35 -4 -70 -16 -20 -7 -45 -22 -54 -32 -10 -11 -23
-20 -29 -20 -11 1 -86 66 -86 75 0 3 12 5 28 5 15 0 36 7 46 15 25 19 36 19
36 0 0 -17 2 -17 24 -9 8 3 12 12 9 20 -8 22 5 44 27 44 11 0 20 -5 20 -11z
m-140 -169 c0 -5 -2 -10 -4 -10 -3 0 -8 5 -11 10 -3 6 -1 10 4 10 6 0 11 -4
11 -10z m430 -80 c0 -5 -4 -10 -10 -10 -5 0 -10 5 -10 10 0 6 5 10 10 10 6 0
10 -4 10 -10z m-100 -20 c0 -5 -4 -10 -10 -10 -5 0 -10 5 -10 10 0 6 5 10 10
10 6 0 10 -4 10 -10z m147 4 c-3 -3 -12 -4 -19 -1 -8 3 -5 6 6 6 11 1 17 -2
13 -5z m40 -5 c15 -15 5 -39 -16 -39 -26 0 -31 10 -18 31 14 22 19 23 34 8z
m-512 -23 c17 0 40 -12 55 -26 32 -32 105 -70 135 -70 13 0 27 -4 30 -10 4 -6
80 -10 196 -10 105 0 189 -4 189 -9 0 -19 -71 -70 -122 -87 -41 -15 -82 -19
-178 -19 -112 0 -130 3 -175 25 -60 29 -151 119 -183 179 l-22 43 22 -7 c13
-4 36 -8 53 -9z m423 -3 c-10 -2 -26 -2 -35 0 -10 3 -2 5 17 5 19 0 27 -2 18
-5z m262 -33 c0 -5 -2 -10 -4 -10 -3 0 -8 5 -11 10 -3 6 -1 10 4 10 6 0 11 -4
11 -10z"/>
<path d="M300 90 c0 -5 5 -10 10 -10 6 0 10 5 10 10 0 6 -4 10 -10 10 -5 0
-10 -4 -10 -10z"/>
<path d="M881 87 c2 -1 15 -11 29 -22 l25 -20 -19 23 c-11 12 -24 22 -29 22
-6 0 -8 -1 -6 -3z"/>
<path d="M0 55 c0 -8 7 -15 15 -15 8 0 15 7 15 15 0 8 -7 15 -15 15 -8 0 -15
-7 -15 -15z"/>
<path d="M1060 56 c0 -18 52 -56 76 -56 14 0 11 7 -16 35 -35 37 -60 45 -60
21z"/>
<path d="M280 50 c0 -5 5 -10 10 -10 6 0 10 5 10 10 0 6 -4 10 -10 10 -5 0
-10 -4 -10 -10z"/>
<path d="M409 33 c-13 -16 -12 -17 4 -4 16 13 21 21 13 21 -2 0 -10 -8 -17
-17z"/>
<path d="M852 20 c7 -11 16 -20 20 -20 5 0 3 9 -4 20 -7 11 -16 20 -20 20 -5
0 -3 -9 4 -20z"/>
<path d="M265 10 c-3 -5 -1 -10 4 -10 6 0 11 5 11 10 0 6 -2 10 -4 10 -3 0 -8
-4 -11 -10z"/>
</g>
</svg>
