<svg xmlns="http://www.w3.org/2000/svg" width="170.667" height="170.667" version="1.0" viewBox="0 0 128 128"><path d="M27.5 17.9c-2.3 1-5.3 3.3-6.8 5-3.3 3.9-5.8 11.9-5.1 16.3.7 4.3-1 8.8-3.4 8.8C10.3 48 8 54.4 8 59.7c0 2.5 0 2.6-2 .8s-2-1.7-2 2.4c0 2.3.7 5.6 1.6 7.3 1.3 2.6 1.4 3.5.3 5.5-1.1 2.1-1 2.9.5 5.7 3.3 6.2 7.7 10.7 9.6 10.1 1.4-.4 2.1.2 2.9 2.8.7 1.9 2.7 5.9 4.5 9 2.4 4 3.1 5.8 2.3 6.6-.6.6-1.4 1.1-1.9 1.1-.4 0-3.2 1.1-6.2 2.5-9.4 4.3-10.3 4.5-11.6 3-1.3-1.6-4-.9-4 1.1 0 .8.9 1.4 2 1.4s2 .7 2 1.5c0 1.7 1.1 1.9 2.6.7.5-.5 3.6-1.9 6.9-3.2s7.5-3.2 9.3-4.2c3.9-2.2 6.1-2.3 6.8-.4.3.8 2.4 2.5 4.7 3.7 5.7 3 7.9 4.2 9.7 5.4.8.5 2.7.8 4.2.6 1.9-.2 3.6.6 5.3 2.3 2.1 2.1 3.6 2.6 7.5 2.6 3.5 0 5-.4 5-1.3 0-1.6 3.4-5 4.2-4.2.8.9 10.1-1.6 11.9-3.1.8-.8 2.1-1.4 2.7-1.4.7 0 1.2-.5 1.2-1 0-1.7 2.9-1.1 9 2 3.3 1.7 6.1 2.8 6.1 2.5.1-.3.2-.9.3-1.4.2-1.9 1.6-2.4 3.1-1.1 2 1.7 2-.4 0-2.4-1.3-1.2-2-1.3-3.4-.4-1.5.9-2.7.8-5.7-.7-2.2-1-4-1.9-4.2-2-.8-.7 2.2-4.8 7.2-9.7l5.3-5.4 5.1 1.4c5.2 1.5 12.2 1 12.2-.8 0-.5-2.4-3.3-5.2-6.2-2.9-2.9-6.8-7-8.6-9l-3.3-3.8 1.7-3.5c2.3-4.9 3.1-5.1 3.8-1 .4 1.9 1.1 3.5 1.6 3.5 2.5 0 2.2-14.2-.4-20.2-.7-1.6-.4-1.7 2.3-1.2 4.4.9 4-.8-1.9-7-2.7-2.9-5-5.8-5-6.4 0-.7 1.4-1.2 3-1.2 6 0 4.8-4.5-1.9-8-2.2-1.1-4-3-4.8-4.9-1.1-3.1-1.1-3.2 1.8-3.8 2-.4 2.9-1.1 2.7-2.2-.5-2.4-17.3-3.6-24.6-1.7-5.1 1.3-5.2 1.2-3.6-.6 1-1 1.4-2.1 1.1-2.4-1.1-1.1-13.6 1.6-17.2 3.7-3.9 2.3-4.3 2-1.9-1.7 3.3-5-1.1-4.3-7 1.1l-3.7 3.4-3-3.3c-5.7-6.5-13.6-8.3-21.4-4.7m16 3.7c2.9 1.9 6.8 8.2 5.9 9.6-.4.6-1 .6-1.7-.1-.6-.6-2.1-1.1-3.2-1.1-1.2 0-3-.9-4-2-2.3-2.6-9.6-2.7-12.6-.3-3.7 3-5.6 5-6.7 6.9-1.7 3.1-2.4.9-1.2-3.7 1.4-5 6.6-10.5 10.8-11.2 4.1-.7 10.1.2 12.7 1.9m-3.4 9c1.2 1.5 1.1 1.6-.8 1-1.2-.4-3.1-.1-4.3.6-1.7 1.1-2.2 1.1-2.9-.1-.5-.8-1.1-.9-1.5-.3-.3.6 0 1.2.6 1.5.9.3.7 1-.7 2.1-1.1.8-2.3 1.6-2.7 1.6-1.5 0-.8-4.3.9-6.2 2.1-2.4 9.5-2.5 11.4-.2m60.7.2c.2.7-.6 1.2-1.7 1.2-2.1 0-2.7-1.1-1.4-2.4.9-.9 2.6-.2 3.1 1.2M61 51c0 .5-.4 1-1 1-.5 0-1-.5-1-1 0-.6.5-1 1-1 .6 0 1 .4 1 1m17.2 11.7c3 2 4.5 2.4 7 1.9 8.8-1.9 13.9-2.4 16.4-1.7 5.3 1.4 3.5 2.6-3.5 2.3-8.2-.4-22 2.3-22.8 4.5-.8 2.1.5 2.9 2.7 1.5 2.6-1.6 4.6-1.5 7.6.4 3.4 2.3 11 1.4 13-1.5 1.7-2.4 5.1-2.7 7.7-.8 1.6 1.1 1.5 1.5-1.3 4.6l-3.1 3.4-8-.7c-4.3-.3-8.9-1-10.2-1.5-1.4-.6-4.2-.5-7 .1-3.4.7-5.2.6-6.9-.3-1.3-.8-4.6-1.2-7.5-1-2.9.1-5.3.1-5.3-.2s1.4-1.9 3.1-3.7c3.3-3.2 6.2-3.3 8.5-.2 1.1 1.5 4.4 1.1 4.4-.5 0-.9-5.3-3.8-8.8-4.8-2.2-.6-2.2-.8-.7-2.5.9-1 2.3-1.6 3-1.4.7.3 1.5-.2 1.8-1 .8-1.9 4.2-.8 9.9 3.1M44 67.1c0 .6 1.4 2.4 3.1 4 1.9 1.8 2.6 3 1.8 3.1-2.8.3-3.5.4-7 1.6-2 .7-4.5 2.2-5.4 3.2-1 1.1-2.3 2-2.9 2-1.1-.1-8.6-6.6-8.6-7.5 0-.3 1.2-.5 2.8-.5 1.5 0 3.6-.7 4.6-1.5 2.5-1.9 3.6-1.9 3.6 0 0 1.7.2 1.7 2.4.9.8-.3 1.2-1.2.9-2-.8-2.2.5-4.4 2.7-4.4 1.1 0 2 .5 2 1.1M30 84c0 .5-.2 1-.4 1-.3 0-.8-.5-1.1-1-.3-.6-.1-1 .4-1 .6 0 1.1.4 1.1 1m43 8c0 .5-.4 1-1 1-.5 0-1-.5-1-1 0-.6.5-1 1-1 .6 0 1 .4 1 1m-10 2c0 .5-.4 1-1 1-.5 0-1-.5-1-1 0-.6.5-1 1-1 .6 0 1 .4 1 1m14.7-.4c-.3.3-1.2.4-1.9.1-.8-.3-.5-.6.6-.6 1.1-.1 1.7.2 1.3.5m4 .5c1.5 1.5.5 3.9-1.6 3.9-2.6 0-3.1-1-1.8-3.1 1.4-2.2 1.9-2.3 3.4-.8m-51.2 2.3c1.7 0 4 1.2 5.5 2.6 3.2 3.2 10.5 7 13.5 7 1.3 0 2.7.4 3 1 .4.6 8 1 19.6 1 10.5 0 18.9.4 18.9.9 0 1.9-7.1 7-12.2 8.7-4.1 1.5-8.2 1.9-17.8 1.9-11.2 0-13-.3-17.5-2.5-6-2.9-15.1-11.9-18.3-17.9L23 94.8l2.2.7c1.3.4 3.6.8 5.3.9m42.3.3c-1 .2-2.6.2-3.5 0-1-.3-.2-.5 1.7-.5s2.7.2 1.8.5M99 100c0 .5-.2 1-.4 1-.3 0-.8-.5-1.1-1-.3-.6-.1-1 .4-1 .6 0 1.1.4 1.1 1"/><path d="M30 119c0 .5.5 1 1 1 .6 0 1-.5 1-1 0-.6-.4-1-1-1-.5 0-1 .4-1 1m58.1.3c.2.1 1.5 1.1 2.9 2.2l2.5 2-1.9-2.3c-1.1-1.2-2.4-2.2-2.9-2.2q-.9 0-.6.3M0 122.5c0 .8.7 1.5 1.5 1.5s1.5-.7 1.5-1.5-.7-1.5-1.5-1.5-1.5.7-1.5 1.5m106-.1c0 1.8 5.2 5.6 7.6 5.6 1.4 0 1.1-.7-1.6-3.5-3.5-3.7-6-4.5-6-2.1m-78 .6c0 .5.5 1 1 1 .6 0 1-.5 1-1 0-.6-.4-1-1-1-.5 0-1 .4-1 1m12.9 1.7c-1.3 1.6-1.2 1.7.4.4s2.1-2.1 1.3-2.1c-.2 0-1 .8-1.7 1.7m44.3 1.3c.7 1.1 1.6 2 2 2 .5 0 .3-.9-.4-2s-1.6-2-2-2c-.5 0-.3.9.4 2m-58.7 1c-.3.5-.1 1 .4 1 .6 0 1.1-.5 1.1-1 0-.6-.2-1-.4-1-.3 0-.8.4-1.1 1"/></svg>