<svg xmlns="http://www.w3.org/2000/svg" width="512" height="512" fill="none" viewBox="0 0 512 512"><g clip-path="url(#a)"><circle cx="256" cy="256" r="256" fill="#E81899"/><path fill="#FAFAFA" d="m401.612 322.08-52.092-69.363c-5.659-7.538-14.039-12.053-22.963-13.048-2.031-.231-3.845-1.387-4.861-3.129a6.22 6.22 0 0 1-.326-5.706c3.573-8.07 3.79-17.439-.055-26.007l-35.242-78.891c-5.224-11.714-17.032-19.269-30.073-19.269s-24.849 7.572-30.073 19.269l-35.242 78.891c-3.827 8.568-3.628 17.937-.055 26.007a6.27 6.27 0 0 1-.326 5.706 6.5 6.5 0 0 1-4.861 3.129c-8.924.995-17.304 5.51-22.963 13.048l-52.092 69.363c-7.727 10.292-8.507 24.086-1.996 35.161 6.53 11.057 19.118 17.296 32.069 15.892l87.334-9.528c9.486-1.031 17.667-5.884 22.999-12.959a6.52 6.52 0 0 1 5.206-2.578c2.05 0 3.972.96 5.206 2.578 5.332 7.075 13.512 11.928 22.999 12.959l87.334 9.528c12.951 1.422 25.539-4.817 32.069-15.892 6.511-11.075 5.731-24.869-1.996-35.161M213.466 214.729l35.297-78.98c1.27-2.827 4.117-4.658 7.255-4.658s5.986 1.831 7.255 4.658l35.297 78.98a7.93 7.93 0 0 1-.653 7.643c-1.524 2.276-4.099 3.645-6.892 3.645h-70.031c-2.776 0-5.369-1.369-6.893-3.645a7.93 7.93 0 0 1-.653-7.643zm18.12 120.238c-1.251 2.436-3.682 4.071-6.439 4.373l-87.425 9.528c-3.12.338-6.167-1.155-7.745-3.821s-1.379-5.991.489-8.48l52.147-69.434a8.27 8.27 0 0 1 7.074-3.271 8.23 8.23 0 0 1 6.675 4.018l.054.089 34.916 59.266.055.089a7.89 7.89 0 0 1 .217 7.661zm31.597-26.806a8.35 8.35 0 0 1-7.183 4.071c-2.956 0-5.695-1.547-7.183-4.053l-26.826-45.526a7.95 7.95 0 0 1 0-8.123 8.34 8.34 0 0 1 7.183-4.071h53.634c2.957 0 5.695 1.529 7.183 4.053a7.96 7.96 0 0 1 0 8.124zm118.858 36.886c-1.578 2.666-4.607 4.177-7.745 3.839l-87.425-9.528c-2.757-.302-5.187-1.938-6.439-4.373s-1.179-5.315.218-7.661l.054-.089 34.916-59.266.054-.089a8.23 8.23 0 0 1 6.675-4.018c2.775-.142 5.423 1.085 7.074 3.271l52.147 69.434a7.65 7.65 0 0 1 .489 8.48z"/></g><defs><clipPath id="a"><path fill="#fff" d="M0 0h512v512H0z"/></clipPath></defs></svg>