<svg xmlns="http://www.w3.org/2000/svg" width="415" height="497" style="shape-rendering:geometricPrecision;text-rendering:geometricPrecision;image-rendering:optimizeQuality;fill-rule:evenodd;clip-rule:evenodd"><path fill="#010001" d="M-.5-.5h415v497H-.5z" style="opacity:1"/><path fill="#f9f9f9" d="M49.5 13.5v58q5.81 2.895 13 2v16h18v13h30v16h29v59h-45v-29h-29v-32h-16v61h-44v-165a485 485 0 0 1 44 1" style="opacity:1"/><path fill="#fbfafb" d="M96.5 13.5h42v44h-26v-23a291 291 0 0 1-16 1z" style="opacity:1"/><path fill="#fcfbfb" d="M183.5 13.5h134v117h-43v-72q-.512-1.258-2-1h-44v75h44v45h-89z" style="opacity:1"/><path fill="#e0cbda" d="M94.5 13.5h2v22a291 291 0 0 0 16-1v5h-18z" style="opacity:1"/><path fill="#8e7f87" d="M94.5 13.5a507 507 0 0 1 45-1v46h-27v-1h26v-44z" style="opacity:1"/><path fill="#6e3b53" d="M406.5 12.5v1h-42a3364 3364 0 0 0-2 164 6808 6808 0 0 1-1-165z" style="opacity:1"/><path fill="#b05680" d="M406.5 12.5q2.945 10.386 2 22h-43v41h34q3.839-.453 7 1v3h-42v98h-2q-.993-82.515 2-164v19h42z" style="opacity:1"/><path fill="#fcf9fc" d="M364.5 13.5h42v19h-42z" style="opacity:1"/><path fill="#d10c6c" d="M406.5 76.5q-3.161-1.453-7-1a36 36 0 0 1 4.5-2q.285-18.007 0-36 1.064-2.21 3.5-2a421 421 0 0 1-1 41" style="opacity:1"/><path fill="#f9027f" d="M408.5 34.5v45h-2v-3a421 421 0 0 0 1-41q-2.436-.21-3.5 2 .285 17.993 0 36a36 36 0 0 0-4.5 2h-34v-41z" style="opacity:1"/><path fill="#ee087c" d="M62.5 40.5h49v49h-49v-16q-7.19.895-13-2h13z" style="opacity:1"/><path fill="#ca347e" d="M62.5 40.5v-1h50v51h-32v-1h31v-49z" style="opacity:1"/><path fill="#1e171a" d="M49.5 13.5q2.973 19.939 2 41 3.93.402 7.5-1l1-10q.3-2.73 2.5-4v32h-13z" style="opacity:1"/><path fill="#040404" d="M272.5 57.5v75h-44v-75z" style="opacity:1"/><path fill="#781245" d="M272.5 57.5q1.488-.258 2 1l-2 74z" style="opacity:1"/><path fill="#fbfafb" d="M406.5 79.5h2v98h-44v-98z" style="opacity:1"/><path fill="#d4287b" d="M272.5 177.5v-45l2-74v72h43v-117h-134q67.482-2.993 136-2v166z" style="opacity:1"/><path fill="#f9f7fa" d="M229.5 227.5q-2.95 11.396-2 24-1.401-1.602-1-4h-18l-1 6v51h40v8h33v-12h27v31q14.729 1.49 30 1v51h-51v-32h-28v17h-35v-10q-2.217.393-4-1-.741-2.289-2-4-17.43-2.969-36-2v-24h-60q.25 22.005-.5 44-.456 2.911-2.5 5a32 32 0 0 1 5 4.5l41 1a47 47 0 0 0-1.5 15.5q1.517 1.255 3.5 1v1h-22a71 71 0 0 1-1 16.5q-22.995.75-46 .5v8h-51v-10q-13.728-1.49-28-1v-53h17q1.492-17.733 1-36h26q3.06 2.163 7 3 1.393-1.783 1-4 18.072.967 35-2 .492-17.768-1-35h-5v-4h33v-17q13.038.497 26-1-.186-.91-1-1v-31h22v-19h28v-16h31v29q-4.82-.465-9 1" style="opacity:1"/><path fill="#fed3ef" d="M227.5 251.5q-9.375 2.939-20 2l1-6h18q-.401 2.398 1 4" style="opacity:1"/><path fill="#f6067f" d="M280.5 278.5v34h-33v-8a14.7 14.7 0 0 0-3-3.5 544 544 0 0 0-33-.5v-46h45v25q12.015-.216 24-1" style="opacity:1"/><path fill="#fde0f7" d="M270.5 270.5v7h-12v-7z" style="opacity:1"/><path fill="#700d3d" d="M130.5 263.5v17h-33q15.73-1.491 32-1-.482-8.29 1-16" style="opacity:1"/><path fill="#e391bb" d="M132.5 265.5v17h-33q15.73-1.491 32-1-.482-8.29 1-16" style="opacity:1"/><path fill="#bf1666" d="M70.5 287.5q15.508-.25 31 .5 1.552 2.26-.5 4.5a297 297 0 0 0-26.5-2 459 459 0 0 1 2 29h-4q.25-7.018-.5-14-.75 7.483-.5 15h-1q.945-11.614-2-22-1.145-1.152-3-1.5a12.9 12.9 0 0 1 5-.5z" style="opacity:1"/><path fill="#da1879" d="M130.5 263.5h27q.814.09 1 1a170 170 0 0 1-26 1q-1.482 7.71-1 16-16.27-.491-32 1v4h5v34h-33q-.25-7.517.5-15 .75 6.982.5 14h4a459 459 0 0 0-2-29q13.372.413 26.5 2 2.052-2.24.5-4.5a481 481 0 0 0-31-.5q13.227-1.49 27-1v-6h33z" style="opacity:1"/><path fill="#f6e0f2" d="M68.5 298.5q2.945 10.386 2 22 17.232 1.492 35 1-16.928 2.967-35 2 .393 2.217-1 4-3.94-.837-7-3v-1a209 209 0 0 0 1-25z" style="opacity:1"/><path fill="#ce3882" d="M229.5 227.5v26h29v13h12v4h-12v7h12q5.313-.469 10 1-11.985.784-24 1v-25h-45v46q16.507-.25 33 .5a14.7 14.7 0 0 1 3 3.5h-40v-51q10.625.939 20-2-.95-12.604 2-24" style="opacity:1"/><path fill="#dc8fb8" d="M104.5 286.5q1.492 17.232 1 35-17.768.492-35-1h34z" style="opacity:1"/><path fill="#b2b1b3" d="M62.5 323.5v1h-26q.492 18.267-1 36v-37z" style="opacity:1"/><path fill="#f6b0da" d="M217.5 353.5h-38v-24h-49a625 625 0 0 0-1 50h37v19q-1.983.255-3.5-1a47 47 0 0 1 1.5-15.5l-41-1a32 32 0 0 0-5-4.5q2.044-2.089 2.5-5 .75-21.995.5-44h60v24q18.57-.969 36 2" style="opacity:1"/><path fill="#f7037e" d="M130.5 329.5h49v24a44 44 0 0 0 3 2 241 241 0 0 0 31 1v45a581 581 0 0 1-40-2 163 163 0 0 0-.5-18 31.7 31.7 0 0 0-6.5-2q-17.733-1.492-36-1z" style="opacity:1"/><path fill="#929293" d="M307.5 331.5h31v52q.482 8.29-1 16v-67q-15.271.49-30-1" style="opacity:1"/><path fill="#efd8ec" d="M217.5 353.5q1.259 1.711 2 4 1.783 1.393 4 1v10h3v17h-9z" style="opacity:1"/><path fill="#c3c1c3" d="M18.5 360.5v53q14.272-.49 28 1h-29a730 730 0 0 1 1-54" style="opacity:1"/><path fill="#f73c9a" d="M130.5 329.5v49q18.267-.492 36 1h-37a625 625 0 0 1 1-50" style="opacity:1"/><path fill="#fbd5ed" d="M39.5 379.5v17q-3.268-.51-5.5-3a85 85 0 0 1-.5-13z" style="opacity:1"/><path fill="#df2079" d="M39.5 379.5h17v18q-8.787.483-17-1z" style="opacity:1"/><path fill="#f3f3f3" d="M338.5 383.5h30v24q5.697 1.475 12 1v23h18v30h-11v-14q-17.733-1.492-36-1v3q-2.835-.305-4.5 2a107.4 107.4 0 0 0 1.5 29 168 168 0 0 0-23 1v-11h-28v-32h14v-16h10q-.25-10.512.5-21l1.5-1.5a98.4 98.4 0 0 1 14-.5q1.482-7.71 1-16" style="opacity:1"/><path fill="#22010c" d="M217.5 385.5h1q1.663 1.185 4 1.5a3.94 3.94 0 0 0-1 2q2.11 9.542 1 19a32.4 32.4 0 0 0-6 1.5q-1.329-1.237-1-3a412 412 0 0 0 2-21" style="opacity:1"/><path fill="#cd1f73" d="M179.5 353.5h38v32a412 412 0 0 1-2 21h-49v-27a31.7 31.7 0 0 1 6.5 2q.749 8.986.5 18a581 581 0 0 0 40 2v-45a241 241 0 0 1-31-1 44 44 0 0 1-3-2" style="opacity:1"/><path fill="#8f8f8f" d="M368.5 407.5h13v23q8.787-.483 17 1h-18v-23q-6.303.475-12-1" style="opacity:1"/><path fill="#f2dff1" d="M351.5 449.5v33q-13.274.49-26-1a168 168 0 0 1 23-1 107.4 107.4 0 0 1-1.5-29q1.665-2.305 4.5-2" style="opacity:1"/><path fill="#d93988" d="M387.5 447.5v2a213 213 0 0 0-20.5 2 563 563 0 0 0-13.5-2v32h34q-17.232 1.492-35 1v-35z" style="opacity:1"/><path fill="#f095c6" d="M387.5 447.5h-35v35h-1v-36q18.267-.492 36 1" style="opacity:1"/><path fill="#eb0c7c" d="M387.5 449.5v32h-34v-32q6.747.916 13.5 2a213 213 0 0 1 20.5-2" style="opacity:1"/><path fill="#e64695" d="M381.5 458.5q1.356 1.063 1 3h3a169 169 0 0 0-1 19h-28v-3a257 257 0 0 0 25-1z" style="opacity:1"/><path fill="#170006" d="M352.5 484.5q17.008-.25 34 .5-.7 3.184-3.5 4.5a115.2 115.2 0 0 0-29.5 0 20.7 20.7 0 0 0-1-5" style="opacity:1"/></svg>