<svg xmlns="http://www.w3.org/2000/svg" width="415" height="497" style="shape-rendering:geometricPrecision;text-rendering:geometricPrecision;image-rendering:optimizeQuality;fill-rule:evenodd;clip-rule:evenodd"><path fill="#010001" d="M-.5-.5h415v497H-.5V-.5Z" style="opacity:1"/><path fill="#f9f9f9" d="M49.5 13.5v58c3.873 1.93 8.206 2.597 13 2v16h18v13h30v16h29v59h-45v-29h-29v-32h-16v61h-44v-165a484.62 484.62 0 0 1 44 1Z" style="opacity:1"/><path fill="#fbfafb" d="M96.5 13.5h42v44h-26v-23a290.98 290.98 0 0 1-16 1v-22Z" style="opacity:1"/><path fill="#fcfbfb" d="M183.5 13.5h134v117h-43v-72c-.342-.838-1.008-1.172-2-1h-44v75h44v45h-89v-164Z" style="opacity:1"/><path fill="#e0cbda" d="M94.5 13.5h2v22a290.98 290.98 0 0 0 16-1v5h-18v-26Z" style="opacity:1"/><path fill="#8e7f87" d="M94.5 13.5a506.865 506.865 0 0 1 45-1v46h-27v-1h26v-44h-44Z" style="opacity:1"/><path fill="#6e3b53" d="M406.5 12.5v1h-42a3363.585 3363.585 0 0 0-2 164 6808.308 6808.308 0 0 1-1-165h45Z" style="opacity:1"/><path fill="#b05680" d="M406.5 12.5c1.963 6.924 2.63 14.257 2 22h-43v41h34c2.559-.302 4.893.032 7 1v3h-42v98h-2c-.662-55.01.004-109.677 2-164v19h42v-20Z" style="opacity:1"/><path fill="#fcf9fc" d="M364.5 13.5h42v19h-42v-19Z" style="opacity:1"/><path fill="#d10c6c" d="M406.5 76.5c-2.107-.968-4.441-1.302-7-1a36.28 36.28 0 0 1 4.5-2c.19-12.005.19-24.005 0-36 .71-1.473 1.876-2.14 3.5-2a420.768 420.768 0 0 1-1 41Z" style="opacity:1"/><path fill="#f9027f" d="M408.5 34.5v45h-2v-3a420.768 420.768 0 0 0 1-41c-1.624-.14-2.79.527-3.5 2 .19 11.995.19 23.995 0 36a36.28 36.28 0 0 0-4.5 2h-34v-41h43Z" style="opacity:1"/><path fill="#ee087c" d="M62.5 40.5h49v49h-49v-16c-4.794.597-9.127-.07-13-2h13v-31Z" style="opacity:1"/><path fill="#ca347e" d="M62.5 40.5v-1h50v51h-32v-1h31v-49h-49Z" style="opacity:1"/><path fill="#1e171a" d="M49.5 13.5c1.982 13.292 2.649 26.96 2 41 2.62.268 5.12-.065 7.5-1l1-10c.2-1.82 1.034-3.153 2.5-4v32h-13v-58Z" style="opacity:1"/><path fill="#040404" d="M272.5 57.5v75h-44v-75h44Z" style="opacity:1"/><path fill="#781245" d="M272.5 57.5c.992-.172 1.658.162 2 1l-2 74v-75Z" style="opacity:1"/><path fill="#fbfafb" d="M406.5 79.5h2v98h-44v-98h42Z" style="opacity:1"/><path fill="#d4287b" d="M272.5 177.5v-45l2-74v72h43v-117h-134c44.988-1.995 90.321-2.662 136-2v166h-47Z" style="opacity:1"/><path fill="#f9f7fa" d="M229.5 227.5c-1.967 7.597-2.634 15.597-2 24-.934-1.068-1.268-2.401-1-4h-18l-1 6v51h40v8h33v-12h27v31c9.819.994 19.819 1.327 30 1v51h-51v-32h-28v17h-35v-10c-1.478.262-2.811-.071-4-1-.494-1.526-1.161-2.859-2-4-11.62-1.979-23.62-2.646-36-2v-24h-60c.167 14.67 0 29.337-.5 44-.304 1.941-1.137 3.607-2.5 5a31.84 31.84 0 0 1 5 4.5l41 1a46.943 46.943 0 0 0-1.5 15.5c1.011.837 2.178 1.17 3.5 1v1h-22a70.907 70.907 0 0 1-1 16.5c-15.33.5-30.663.667-46 .5v8h-51v-10c-9.152-.994-18.485-1.327-28-1v-53h17c.995-11.822 1.328-23.822 1-36h26c2.04 1.442 4.373 2.442 7 3 .929-1.189 1.262-2.522 1-4 12.048.645 23.715-.022 35-2 .328-11.845-.005-23.512-1-35h-5v-4h33v-17c8.692.331 17.359-.002 26-1-.124-.607-.457-.94-1-1v-31h22v-19h28v-16h31v29c-3.213-.31-6.213.023-9 1Z" style="opacity:1"/><path fill="#fed3ef" d="M227.5 251.5c-6.25 1.959-12.916 2.626-20 2l1-6h18c-.268 1.599.066 2.932 1 4Z" style="opacity:1"/><path fill="#f6067f" d="M280.5 278.5v34h-33v-8a14.698 14.698 0 0 0-3-3.5 544.417 544.417 0 0 0-33-.5v-46h45v25c8.01-.144 16.01-.477 24-1Z" style="opacity:1"/><path fill="#fde0f7" d="M270.5 270.5v7h-12v-7h12Z" style="opacity:1"/><path fill="#700d3d" d="M130.5 263.5v17h-33c10.487-.994 21.154-1.328 32-1-.321-5.526.012-10.86 1-16Z" style="opacity:1"/><path fill="#e391bb" d="M132.5 265.5v17h-33c10.487-.994 21.154-1.328 32-1-.321-5.526.012-10.86 1-16Z" style="opacity:1"/><path fill="#bf1666" d="M70.5 287.5c10.339-.166 20.672 0 31 .5 1.035 1.507.868 3.007-.5 4.5a296.986 296.986 0 0 0-26.5-2 459.26 459.26 0 0 1 2 29h-4c.166-4.679 0-9.345-.5-14-.5 4.989-.666 9.989-.5 15h-1c.63-7.743-.037-15.076-2-22-.763-.768-1.763-1.268-3-1.5a12.93 12.93 0 0 1 5-.5v-9Z" style="opacity:1"/><path fill="#da1879" d="M130.5 263.5h27c.543.06.876.393 1 1a169.926 169.926 0 0 1-26 1c-.988 5.14-1.321 10.474-1 16-10.846-.328-21.513.006-32 1v4h5v34h-33c-.166-5.011 0-10.011.5-15 .5 4.655.666 9.321.5 14h4a459.26 459.26 0 0 0-2-29c8.915.275 17.748.942 26.5 2 1.368-1.493 1.535-2.993.5-4.5a481.169 481.169 0 0 0-31-.5c8.818-.993 17.818-1.327 27-1v-6h33v-17Z" style="opacity:1"/><path fill="#f6e0f2" d="M68.5 298.5c1.963 6.924 2.63 14.257 2 22 11.488.995 23.155 1.328 35 1-11.285 1.978-22.952 2.645-35 2 .262 1.478-.071 2.811-1 4-2.627-.558-4.96-1.558-7-3v-1a209.171 209.171 0 0 0 1-25h5Z" style="opacity:1"/><path fill="#ce3882" d="M229.5 227.5v26h29v13h12v4h-12v7h12c3.542-.313 6.875.021 10 1-7.99.523-15.99.856-24 1v-25h-45v46c11.005-.167 22.005 0 33 .5a14.698 14.698 0 0 1 3 3.5h-40v-51c7.084.626 13.75-.041 20-2-.634-8.403.033-16.403 2-24Z" style="opacity:1"/><path fill="#dc8fb8" d="M104.5 286.5c.995 11.488 1.328 23.155 1 35-11.845.328-23.512-.005-35-1h34v-34Z" style="opacity:1"/><path fill="#b2b1b3" d="M62.5 323.5v1h-26c.328 12.178-.005 24.178-1 36v-37h27Z" style="opacity:1"/><path fill="#f6b0da" d="M217.5 353.5h-38v-24h-49a625.298 625.298 0 0 0-1 50h37v19c-1.322.17-2.489-.163-3.5-1a46.943 46.943 0 0 1 1.5-15.5l-41-1a31.84 31.84 0 0 0-5-4.5c1.363-1.393 2.196-3.059 2.5-5 .5-14.663.667-29.33.5-44h60v24c12.38-.646 24.38.021 36 2Z" style="opacity:1"/><path fill="#f7037e" d="M130.5 329.5h49v24a44.093 44.093 0 0 0 3 2 241.046 241.046 0 0 0 31 1v45a581.11 581.11 0 0 1-40-2 162.597 162.597 0 0 0-.5-18 31.723 31.723 0 0 0-6.5-2c-11.822-.995-23.822-1.328-36-1v-49Z" style="opacity:1"/><path fill="#929293" d="M307.5 331.5h31v52c.321 5.526-.012 10.86-1 16v-67c-10.181.327-20.181-.006-30-1Z" style="opacity:1"/><path fill="#efd8ec" d="M217.5 353.5c.839 1.141 1.506 2.474 2 4 1.189.929 2.522 1.262 4 1v10h3v17h-9v-32Z" style="opacity:1"/><path fill="#c3c1c3" d="M18.5 360.5v53c9.515-.327 18.848.006 28 1h-29a729.604 729.604 0 0 1 1-54Z" style="opacity:1"/><path fill="#f73c9a" d="M130.5 329.5v49c12.178-.328 24.178.005 36 1h-37a625.298 625.298 0 0 1 1-50Z" style="opacity:1"/><path fill="#fbd5ed" d="M39.5 379.5v17c-2.179-.34-4.012-1.34-5.5-3a84.94 84.94 0 0 1-.5-13l6-1Z" style="opacity:1"/><path fill="#df2079" d="M39.5 379.5h17v18c-5.858.322-11.525-.011-17-1v-17Z" style="opacity:1"/><path fill="#f3f3f3" d="M338.5 383.5h30v24c3.798.983 7.798 1.317 12 1v23h18v30h-11v-14c-11.822-.995-23.822-1.328-36-1v3c-1.89-.203-3.39.463-4.5 2a107.43 107.43 0 0 0 1.5 29 168.29 168.29 0 0 0-23 1v-11h-28v-32h14v-16h10c-.166-7.008 0-14.008.5-21l1.5-1.5a98.432 98.432 0 0 1 14-.5c.988-5.14 1.321-10.474 1-16Z" style="opacity:1"/><path fill="#22010c" d="M217.5 385.5h1c1.109.79 2.442 1.29 4 1.5a3.943 3.943 0 0 0-1 2c1.407 6.361 1.74 12.695 1 19a32.444 32.444 0 0 0-6 1.5c-.886-.825-1.219-1.825-1-3a411.461 411.461 0 0 0 2-21Z" style="opacity:1"/><path fill="#cd1f73" d="M179.5 353.5h38v32a411.461 411.461 0 0 1-2 21h-49v-27a31.723 31.723 0 0 1 6.5 2c.499 5.991.666 11.991.5 18a581.11 581.11 0 0 0 40 2v-45a241.046 241.046 0 0 1-31-1 44.093 44.093 0 0 1-3-2Z" style="opacity:1"/><path fill="#8f8f8f" d="M368.5 407.5h13v23c5.858-.322 11.525.011 17 1h-18v-23c-4.202.317-8.202-.017-12-1Z" style="opacity:1"/><path fill="#f2dff1" d="M351.5 449.5v33c-8.849.326-17.516-.007-26-1a168.29 168.29 0 0 1 23-1 107.43 107.43 0 0 1-1.5-29c1.11-1.537 2.61-2.203 4.5-2Z" style="opacity:1"/><path fill="#d93988" d="M387.5 447.5v2a213.415 213.415 0 0 0-20.5 2 563.366 563.366 0 0 0-13.5-2v32h34c-11.488.995-23.155 1.328-35 1v-35h35Z" style="opacity:1"/><path fill="#f095c6" d="M387.5 447.5h-35v35h-1v-36c12.178-.328 24.178.005 36 1Z" style="opacity:1"/><path fill="#eb0c7c" d="M387.5 449.5v32h-34v-32c4.498.611 8.998 1.277 13.5 2a213.415 213.415 0 0 1 20.5-2Z" style="opacity:1"/><path fill="#e64695" d="M381.5 458.5c.904.709 1.237 1.709 1 3h3a168.785 168.785 0 0 0-1 19h-28v-3a256.49 256.49 0 0 0 25-1v-18Z" style="opacity:1"/><path fill="#170006" d="M352.5 484.5c11.338-.167 22.672 0 34 .5-.466 2.123-1.633 3.623-3.5 4.5a115.222 115.222 0 0 0-29.5 0 20.69 20.69 0 0 0-1-5Z" style="opacity:1"/></svg>