<svg xmlns="http://www.w3.org/2000/svg" width="487" height="181"><path fill="#010001" d="M0 0h487v181H0V0Z"/><path fill="#FAF9FB" d="M108 15h15v14h-4v13h14v7h6v5h5v11h13v15h15v25h-25V90h-14v8h-16v8h-4v10H88v-3H77v8H54v4H29v-5H15V94h9V76h14V64h3v11h17V58h-3v-2h16v-8h13V32h10v-9h14v-8Z"/><path fill="#FBFBFB" d="M230 37h25v33h7V52h18V37h25v25h-15v18h-18v7h17v9h16v33h-25v-16h-16V95h-9v34h-25V37Z"/><path fill="#FDFCFC" d="M330 37h75v66h-24V62h-26v42h25v25h-50V37Z"/><path fill="#FBFAFB" d="M430 37h26v92h-26V37Z"/><path fill="#050505" d="M330 36h76v93h-26v-25h-25V62h26v41h24V37h-75v-1Z"/><path fill="#F3F4F3" d="M172 105h15v12h6v11h9v15h-6v10h-30v-6h-14v-15h7v-8h5l-.035-2.152-.028-2.785-.035-2.778C164 114 164 114 165 113c2.333-.04 4.667-.042 7 0v-8Z"/><path fill="#EF097D" d="M280 37h25v25h-15v18h-28v-9h-7v-1h7V52h18V37Z"/><path fill="#F7037F" d="M70 79h24v12h19v25H88v-13H70V79Z"/><path fill="#FC0181" d="M430 37h26v37h-25v55h-1V37Z"/><path fill="#F7047F" d="M118 30h1v12h14v7h6v5h5v17h-16v-4h-20V42h10V30Z"/><path fill="#D31E79" d="M330 36h76v93h-26V62h1v41h24V37h-75v-1Z"/><path fill="#FBFAFB" d="M280 37h25v25h-15V52h-10V37Z"/><path fill="#DB1A7B" d="M70 47h14v1H71v8H55v2h3v17H41V64l-3-1h3v-5h13v-3h16v-8Z"/><path fill="#EC067B" d="M179 136h17v17h-17v-17Z"/><path fill="#FCF9FC" d="M431 37h24v11h-24V37Z"/><path fill="#A74675" d="M430 37h1v11h24V37h1v12h-24v23h23v2h-24v55h-1V37Z"/><path fill="#F6ABD7" d="M66 78h29v12h18v1H94V79H70v24h18v10l-2-1 1-8c-.595.01-1.19.02-1.804.032-2.69.041-5.38.067-8.071.093l-2.84.05-2.715.02-2.507.032C67 104 67 104 65 102c.369-1.827.369-1.827 1-4 .079-1.587.108-3.177.098-4.766l-.008-2.43-.028-3.054L66 78Z"/><path fill="#D23B87" d="M118 30h1v12h14v7h6v6h-7V43h-22v22c5.176-.079 5.176-.079 10.351-.18 1.884-.015 3.768.08 5.649.18l2 2h-20V42h10V30Z"/><path fill="#CD1872" d="M96 91h17v25H88v-13l3 1v9l20 1V92H96v-1Z"/><path fill="#EF087C" d="M432 49h24v25l-1-2h-5l4-1-1-19-20-1v20h15v1h-16V49Z"/><path fill="#FBF5FC" d="M194 129h7v14h-5v-7h-17v-1l2.773-.297 3.602-.453 3.586-.422c3.148-.504 3.148-.504 4.453-2.906L194 129Z"/><path fill="#1E1619" d="M255 37h1v23h4l1-8h1v18h-7V37Z"/><path fill="#E74696" d="M179 136h17l-1 16h-14v-1l12-1v-10l-7-1v-1l-6-1v16h-1v-17Z"/><path fill="#DF1979" d="M26 103h8v9h-8v-9Z"/><path fill="#F9E0F4" d="M38 64h3v11h17v1H41v2l-4-1 1-13Z"/><path fill="#D10D6D" d="M454 49h2v25l-1-2h-5l4-1-.108-1.697a2107.19 2107.19 0 0 1-.454-7.615l-.17-2.67-.147-2.569-.143-2.364C453 52 453 52 454 49Z"/><path fill="#C83E82" d="M128 42h5v7h6v6h-7V43l-4-1Z"/><path fill="#BD1163" d="M41 58c12.625-.125 12.625-.125 16 1l-1 2-13-1 1 14h-2l-1-16Z"/><path fill="#FAE2F7" d="m113 91 1 2h2v5h1v8h-4V91Z"/><path fill="#FAE4F8" d="M177 137h2v16h-11v-1h9l-.254-2.773-.309-3.602-.316-3.586C176 139 176 139 177 137Z"/><path fill="#D9C1D2" d="M280 37h1v13l9-1v3h-10V37Z"/><path fill="#23010D" d="m113 106 4 1h-2l1 10-4 1 1-12Z"/><path fill="#DC1576" d="m88 103 3 1v11h-3v-12Z"/><path fill="#180007" d="M179 154h17l-1 3-3-1c-1.498-.092-3-.13-4.5-.125l-2.344-.008c-2.34.052-2.34.052-5.156 1.133l-1-3Z"/><path fill="#FED1EE" d="M109 39h8l1 3h-10l1-3Z"/><path fill="#FCDCF5" d="M133 50h6v4h-6v-4Z"/><path fill="#FBD4ED" d="M26 103v9l-3-2c-.188-3.125-.188-3.125 0-6 2-1 2-1 3-1Z"/><path fill="#E21E80" d="M196 137v6h-2l-1-3-7-1v-1l4.438-.5 2.496-.281C195 137 195 137 196 137Z"/><path fill="#FCECF7" d="M26 112h8l-2 4c-1.875-.313-1.875-.313-4-1l-2-3Z"/></svg>