<svg xmlns="http://www.w3.org/2000/svg" fill="none" viewBox="0 0 96 120"><g clip-path="url(#a)"><path fill="#3C9" d="M44 120 0 95c4-1 4-4 4-6V31c0-3 0-5-4-6l19-11v74c0 3 1 5 5 7l4 3V12c0-2 1-4 3-5l13-7z"/><path fill="url(#b)" d="m53 120 43-25c-3-1-3-4-3-6V31c0-3 0-5 4-6L77 14v74c0 3-1 5-4 7l-5 3V12c0-2 0-4-2-5L53 0z"/><path fill="#fff" d="m61 8 1 4h4l-3 3 1 4-3-2-4 2 1-4-3-3h4z"/></g><defs><linearGradient id="b" x1="53.1" x2="96.6" y1="60" y2="60" gradientUnits="userSpaceOnUse"><stop stop-color="#07806D"/><stop offset="1" stop-color="#035663"/></linearGradient><clipPath id="a"><path fill="#fff" d="M0 0h97v120H0z"/></clipPath></defs></svg>