<svg xmlns="http://www.w3.org/2000/svg" fill="none" viewBox="0 0.27 34.9 35.46"><path fill="#000" fill-rule="evenodd" d="M16.52 3.04 21.08.4c.52-.3.94-.05.94.55s-.42 1.32-.94 1.62l-4.56 2.64c-.52.3-.94.06-.94-.54s.42-1.33.94-1.63m0 4.64 4.56-2.64c.52-.3.94-.05.94.55s-.42 1.33-.94 1.63l-4.56 2.63c-.52.3-.94.06-.94-.54s.42-1.33.94-1.63m14.36 22.27v-5.27c0-.6-.42-1.33-.94-1.63s-.94-.06-.94.54v5.28c0 .6.42 1.33.94 1.63s.94.05.94-.55m-4.02-7.59v5.27c0 .6-.42.84-.94.54a2.08 2.08 0 0 1-.94-1.62v-5.28c0-.6.42-.84.94-.54s.94 1.03.94 1.63m-.42-13.57-8.04 4.64c-.06.04-.14.07-.21.1l-1.67.96c-.52.3-.94.06-.94-.54s.42-1.33.94-1.63l4.56-2.64.2-.08 3.27-1.9a2.1 2.1 0 0 1 1.89 0c.52.3.52.79 0 1.09m3.5.93 4.57 2.64c.52.3.52.79 0 1.09s-1.36.3-1.88 0l-4.57-2.64c-.52-.3-.52-.79 0-1.09s1.36-.3 1.88 0m.55 4.96-4.57-2.64c-.52-.3-1.36-.3-1.88 0s-.52.8 0 1.1l4.57 2.63c.52.3 1.36.3 1.88 0s.52-.79 0-1.09M26.47 17l-4.57-2.64c-.52-.3-1.36-.3-1.88 0s-.52.8 0 1.1l1.83 1.05c.02 0 .03.02.05.03l8.04 4.64c.52.3.94.05.94-.55s-.42-1.33-.94-1.63l-3.42-1.97zm-3.63 3.04v5.27c0 .08 0 .15-.02.21v3.79c0 .6-.42 1.33-.94 1.63s-.94.05-.94-.55v-9.28c0-.07 0-.15.02-.23v-1.93c0-.6.42-.84.94-.54s.94 1.03.94 1.63m-4.46 12.92L13.8 35.6c-.52.3-.94.06-.94-.54s.42-1.33.94-1.63l4.57-2.64c.52-.3.94-.06.94.54s-.42 1.33-.94 1.63Zm-4.57-2 4.57-2.64c.52-.3.94-1.03.94-1.63s-.42-.84-.94-.54l-4.57 2.63c-.52.3-.94 1.03-.94 1.63s.42.85.94.55m5.5-8.9a2.11 2.11 0 0 1-.93 1.63l-8.04 4.64c-.52.3-1.36.3-1.88 0s-.52-.79 0-1.09l5.21-3 .14-.1 4.57-2.63c.52-.3.94-.06.94.54ZM.4 23.67l4.56 2.63c.52.3 1.37.3 1.89 0s.52-.79 0-1.09L2.27 22.6c-.52-.3-1.36-.3-1.88 0s-.52.79 0 1.09Zm8.58.31-4.56-2.64c-.52-.3-.52-.78 0-1.08s1.36-.3 1.88 0l4.57 2.63c.52.3.52.79 0 1.09s-1.37.3-1.89 0m-3.99-9.13 8.04 4.64.14.1 1.72.98c.51.3.51.79 0 1.09-.52.3-1.37.3-1.89 0l-4.56-2.64a.4.4 0 0 1-.14-.09L5 17.04a2.08 2.08 0 0 1-.95-1.64c0-.6.42-.84.94-.54Zm-.94-3.5V6.07c0-.6.42-.84.94-.54s.94 1.03.94 1.63v5.27c0 .6-.42.84-.94.54a2.08 2.08 0 0 1-.94-1.63ZM8.06 8.4v5.27c0 .6.42 1.33.94 1.63s.94.06.94-.54V9.5c0-.6-.42-1.33-.94-1.63s-.94-.06-.94.54Zm5.9-2.8v6.18l-1.88 4.2v-9.3c0-.6.42-1.33.94-1.63s.94-.05.94.55m0 6.18L12.08 16c0 .6.42 1.33.94 1.62.52.3.94.06.94-.54z" clip-rule="evenodd"/></svg>