<svg xmlns="http://www.w3.org/2000/svg" fill="none" viewBox="-30 -30 952 952"><mask id="a" fill="#fff"><path fill-rule="evenodd" d="M100 0h792v892H0V100h100z" clip-rule="evenodd"/></mask><path fill="#D6D5D5" fill-rule="evenodd" d="M100 0h792v892H0V100h100z" clip-rule="evenodd"/><path fill="#000" d="M892 0v-30h30V0zM100 0H70v-30h30zm792 892h30v30h-30zM0 892v30h-30v-30zm0-792h-30V70H0zm100 0h30v30h-30zm792-70H100v-60h792zm-30 862V0h60v892zM0 862h892v60H0zm30-762v792h-60V100zM0 70h100v60H0zm70 30V0h60v100z" mask="url(#a)"/><path fill="#0E23F3" stroke="#000" stroke-width="30" d="M780 181H213v448h567z"/><path fill="#000" d="M731 728H432v30h299z"/><path fill="#FF0095" d="M795 728h-30v30h30z"/><path fill="#ABABAB" d="M29 130h61v732H29z"/><path fill="#fff" d="M567 399c-1 4.3-1.6 9.6-1.6 16 0 6.1.5 11.5 1.6 16h32c1-4.5 1.6-9.9 1.6-16 0-6.4-.5-11.7-1.6-16h16c1-4.5 1.6-9.9 1.6-16 0-6.4-.5-11.7-1.6-16h32c-1 4.3-1.6 9.6-1.6 16 0 6.1.5 11.5 1.6 16h16c-1 4.3-1.6 9.6-1.6 16 0 6.1.5 11.5 1.6 16h32c1-4.5 1.6-9.9 1.6-16 0-6.4-.5-11.7-1.6-16h-16c1-4.5 1.6-9.9 1.6-16 0-6.4-.5-11.7-1.6-16h-16c1-4.5 1.6-9.9 1.6-16 0-6.4-.5-11.7-1.6-16h-16c1-4.5 1.6-9.9 1.6-16 0-6.4-.5-11.7-1.6-16h-32c-1 4.3-1.6 9.6-1.6 16 0 6.1.5 11.5 1.6 16h-16c-1 4.3-1.6 9.6-1.6 16 0 6.1.5 11.5 1.6 16h-16c-1 4.3-1.6 9.6-1.6 16 0 6.1.5 11.5 1.6 16zm-264.3 0c-1 4.3-1.6 9.6-1.6 16 0 6.1.5 11.5 1.6 16h32c1-4.5 1.6-9.9 1.6-16 0-6.4-.5-11.7-1.6-16h16c1-4.5 1.6-9.9 1.6-16 0-6.4-.5-11.7-1.6-16h32c-1 4.3-1.6 9.6-1.6 16 0 6.1.5 11.5 1.6 16h16c-1 4.3-1.6 9.6-1.6 16 0 6.1.5 11.5 1.6 16h32c1-4.5 1.6-9.9 1.6-16 0-6.4-.5-11.7-1.6-16h-16c1-4.5 1.6-9.9 1.6-16 0-6.4-.5-11.7-1.6-16h-16c1-4.5 1.6-9.9 1.6-16 0-6.4-.5-11.7-1.6-16h-16c1-4.5 1.6-9.9 1.6-16 0-6.4-.5-11.7-1.6-16h-32c-1 4.3-1.6 9.6-1.6 16 0 6.1.5 11.5 1.6 16h-16c-1 4.3-1.6 9.6-1.6 16 0 6.1.5 11.5 1.6 16h-16c-1 4.3-1.6 9.6-1.6 16 0 6.1.5 11.5 1.6 16zM469 461c-1 4.3-1.6 9.6-1.6 16 0 6.1.5 11.5 1.6 16h80c1-4.5 1.6-9.9 1.6-16 0-6.4-.5-11.7-1.6-16z"/></svg>