<svg xmlns="http://www.w3.org/2000/svg" width="200" height="200"><path fill="#010101" d="M0 0h200v200H0z"/><path fill="#FBFBFB" d="M143 105c4 1.6 6.8 4.4 9.8 7.4l1.6 1.4 3.6 4.2c-.2 4.1-3 6.3-5.7 9.1l-1.5 1.5a991 991 0 0 1-15.4 15.4 2666 2666 0 0 0-24.3 24.2l-2.7 2.7c-3.3 3-5.2 4-9.7 4.2-5-1.5-8.2-4.2-11.7-8.1l-2-4 1.3-1.1a319 319 0 0 0 21.4-20.5 7002 7002 0 0 0 29.8-29.8l2.6-2.5c2-2 2-2 2.9-4.1"/><path fill="#FCFCFC" d="M102 25c5.5 2.9 7.7 6 12 11L55 95c-7.9-6.8-7.9-6.8-11.4-10.4l-2.1-2L40 81a254 254 0 0 1 19.9-21 6443 6443 0 0 1 28.5-28.6L91 29c3.8-3.6 6-4.6 11.1-4Z"/><path fill="#FAFAFA" d="M153 40c4.3 2.3 4.3 2.3 6 5 .9 3.5.8 6.5 0 10a47.3 47.3 0 0 1-8.3 9.2l-23.8 23-2.3 2.2-2 2c-1.7 1.5-1.7 1.5-2.6 3.6-4-1.6-6.8-4.4-9.8-7.4l-1.6-1.4L105 82c.3-3.5 2-5.3 4.4-7.7l2.1-2.2 2.4-2.3 2.4-2.4A1709 1709 0 0 1 133.9 50l2.3-2.3 2.2-2.1 1.9-2c4-3.6 7.4-4.4 12.7-3.5Z"/><path fill="#FBFBFB" d="m81 105 3.3 3.6 1.7 2 8 9.4a19634 19634 0 0 1-30.3 30.4l-2.5 2.5-2.4 2.4-2 2.1c-3 2.7-5.7 3.1-9.7 3-3.4-.7-5-2.7-7-5.5A9.6 9.6 0 0 1 39 147c3.2-5.6 7.6-10 12.2-14.5l2.4-2.4A2404 2404 0 0 1 71 112.7l2.3-2.4 2.1-2 2-2C79 105 79 105 81 105"/><path fill="#F9F9F9" d="m88 73 2.7 3c5.4 6.4 11.3 12.1 17.1 18a2936 2936 0 0 1 11.7 11.7c3 3 3 3 6.5 5.3a11 11 0 0 1-3.7 7l-1.7 1.6-1.7 1.7-1.7 1.6a731 731 0 0 1-4.2 4.1 24 24 0 0 1-7.9-5.6L103 119l-2.4-2.4-2.5-2.5A4051 4051 0 0 1 72 88l2.9-3.3 1.6-2 5.8-6.1 2-2.1C86 73 86 73 88 73"/><path fill="#FBFBFB" d="M150 73c3.5 1.5 5.8 3.6 8.5 6.3l2.6 2.5 5.3 5.4c7.5 7.5 7.5 7.5 8 12-.6 6.7-4.7 10.4-9.4 14.8-4-1.6-6.7-4.4-9.6-7.4l-1.6-1.7A1674 1674 0 0 1 137 88c1.8-4 4.5-6.7 7.6-9.8l1.6-1.5z"/><path fill="#FCFCFC" d="M34 86c4 1.6 6.7 4.4 9.6 7.4l1.6 1.7A1674 1674 0 0 1 62 112c-3.3 4-6.7 7.8-10.4 11.4l-2 2.1L48 127c-5.2-4.3-10-8.9-14.9-13.7l-2-2-2-2-1.7-1.7c-2-2.4-2.4-4.7-2.9-7.8.7-5.4 3.7-8 7.5-11.8z"/><path fill="#F9F9F9" d="M150 138c4.9 2.1 8 5.6 11 10 .8 3.1.8 3.1 0 6a18 18 0 0 1-7 7c-4.5.7-6.7 1-10.5-1.8-2.3-2-4.4-4-6.5-6.2 1.6-4 4.5-6.8 7.6-9.8l1.6-1.5z"/><path fill="#F7F7F7" d="M54 41c2.9 1.7 5.5 3.8 8 6-1.7 4.3-4.9 7-8.1 10.3L48 63c-7.6-6.2-7.6-6.2-8.4-11.9.6-4.4 2.3-6 5.4-9.1 3.2-1.6 5.4-1.4 9-1"/><path fill="#F1F1F1" d="m86 137 7 6c0 4 0 4-2.6 7l-3.4 3.3-1.7 1.6L81 159c-4.6-1.7-5.4-3.7-9-8z"/><path fill="#F3F3F3" d="M118 41c3.3 1.6 5.7 3 8 6-.2 4.3-3.4 7-6.3 9.8l-1.5 1.6c-1.4 1.4-1.4 1.4-4.2 3.6-3.4 0-4.2-1.2-6.8-3.6L105 56c1.6-4 4.5-6.8 7.6-9.8l1.6-1.5z"/></svg>