<?xml version="1.0" encoding="utf-8"?>
<!-- Generator: Adobe Illustrator 27.0.1, SVG Export Plug-In . SVG Version: 6.00 Build 0)  -->
<svg version="1.1" id="Layer_1" xmlns="http://www.w3.org/2000/svg" xmlns:xlink="http://www.w3.org/1999/xlink" x="0px" y="0px"
	 viewBox="0 0 1080 1080" style="enable-background:new 0 0 1080 1080;" xml:space="preserve">
<style type="text/css">
	.st0{fill:#ACD905;}
	.st1{fill:#AEAFAA;}
	.st2{fill:#5D6E3C;}
	.st3{fill:#FFFFFF;}
	.st4{fill:#F1B82F;}
</style>
<g>
	<g>
		<g>
			<path class="st0" d="M653.7,651.8H347.6V204.5h306.1c105.1,0,190.2,85.2,190.2,190.2v66.8C843.9,566.6,758.8,651.8,653.7,651.8"
				/>
			<path class="st1" d="M732.6,875.5h-385V651.8c0-123.5,100.1-223.6,223.6-223.6h161.4c123.5,0,223.6,100.1,223.6,223.6
				C956.2,775.3,856.1,875.5,732.6,875.5"/>
			<path class="st2" d="M843.9,457.9v3.7c0,105.1-85.1,190.2-190.3,190.2H347.6c0-61.7,25.1-117.6,65.5-158.1
				c40.5-40.5,96.4-65.5,158.2-65.5h161.3C773.2,428.2,811.2,439,843.9,457.9"/>
		</g>
		<g>
			<g>
				<circle class="st3" cx="348.2" cy="540" r="224.5"/>
			</g>
			<path id="binancedex_00000080206667474921120620000001921273267399562380_" class="st4" d="M384.1,662.8v41.7l-36.3,21.4
				l-35.3-21.4v-41.7l35.3,21.4L384.1,662.8z M189.6,518.6l35.3,21.4v71.5l60.8,36.3v41.7l-96.1-56.7V518.6z M505.8,518.6V633
				l-97.1,56.7V648l60.8-36.3v-71.5L505.8,518.6z M408.5,462l36.3,21.4l0,0V525l-60.8,36.3v72.5l-35.3,21.4l-35.1-21.4v-72.7
				l-63-36.3v-41.7l36.3-21.4l60.8,36.3L408.5,462z M250.6,554.8l35.3,21.4v41.7l-35.3-21.4V554.8z M444.9,554.8v41.7l-35.3,21.4
				v-41.7L444.9,554.8z M224.9,425.6l36.3,21.4l-36.3,21.4V510l-35.3-21.4V447L224.9,425.6z M470.5,425.6l36.3,21.4v41.7L470.5,510
				v-41.7L435.2,447L470.5,425.6z M347.7,425.6l36.3,21.4l-36.3,21.4L312.4,447L347.7,425.6z M347.7,354.2l97.1,56.7l-35.3,21.4
				l-60.8-36.3l-62,36.3l-35.3-21.4L347.7,354.2z"/>
		</g>
	</g>
</g>
</svg>
