<svg xmlns="http://www.w3.org/2000/svg" xml:space="preserve" viewBox="123.7 204.5 832.5 671"><path d="M653.7 651.8H347.6V204.5h306.1c105.1 0 190.2 85.2 190.2 190.2v66.8c0 105.1-85.1 190.3-190.2 190.3" style="fill:#acd905"/><path d="M732.6 875.5h-385V651.8c0-123.5 100.1-223.6 223.6-223.6h161.4c123.5 0 223.6 100.1 223.6 223.6S856.1 875.5 732.6 875.5" style="fill:#aeafaa"/><path d="M843.9 457.9v3.7c0 105.1-85.1 190.2-190.3 190.2h-306c0-61.7 25.1-117.6 65.5-158.1 40.5-40.5 96.4-65.5 158.2-65.5h161.3c40.6 0 78.6 10.8 111.3 29.7" style="fill:#5d6e3c"/><circle cx="348.2" cy="540" r="224.5" style="fill:#fff"/><path d="M384.1 662.8v41.7l-36.3 21.4-35.3-21.4v-41.7l35.3 21.4zM189.6 518.6l35.3 21.4v71.5l60.8 36.3v41.7l-96.1-56.7zm316.2 0V633l-97.1 56.7V648l60.8-36.3v-71.5zM408.5 462l36.3 21.4V525L384 561.3v72.5l-35.3 21.4-35.1-21.4v-72.7l-63-36.3v-41.7l36.3-21.4 60.8 36.3zm-157.9 92.8 35.3 21.4v41.7l-35.3-21.4zm194.3 0v41.7l-35.3 21.4v-41.7zm-220-129.2 36.3 21.4-36.3 21.4V510l-35.3-21.4V447zm245.6 0 36.3 21.4v41.7L470.5 510v-41.7L435.2 447zm-122.8 0L384 447l-36.3 21.4-35.3-21.4zm0-71.4 97.1 56.7-35.3 21.4-60.8-36.3-62 36.3-35.3-21.4z" style="fill:#f1b82f"/></svg>