<svg xmlns="http://www.w3.org/2000/svg" xml:space="preserve" viewBox="0 0 504 505"><path fill="none" d="M283 506H1V1h504v505zM93 161a2222 2222 0 0 1-49 49L2 254l43 44a2291 2291 0 0 1 49 50l21 21 26 26 25 25 31 31 47 46 8 8 58-56 31-31 24-24a6276 6276 0 0 1 84-85l55-54-55-56a3106 3106 0 0 1-37-37l-68-67a829 829 0 0 1-18-19L253 2l-29 29a6293 6293 0 0 1-45 45l-66 65z"/><path fill="#D49A14" d="m141 393-26-26-1-5a191 191 0 0 1-29-59c-6-19-9-39-7-58l4-30a184 184 0 0 1 29-66c2-2 2-5 3-8l65-65h7l14-4a165 165 0 0 1 73-7l39 8c5 1 9 6 15 3l17 18 68 68 1 7 8 16a161 161 0 0 1 13 53c1 12 0 24-1 36a161 161 0 0 1-14 53l-8 19a2940 2940 0 0 1-47 47l-5 1-34 20a158 158 0 0 1-71 15c-15 0-30-3-44-5a124 124 0 0 1-40-16l-25-15c-1-1-3-4-4 0m233-252-3-4a178 178 0 0 0-46-33 178 178 0 0 0-71-17l-22 2a141 141 0 0 0-46 12 168 168 0 0 0-96 120 171 171 0 0 0 13 103 148 148 0 0 0 38 52c9 7 18 15 28 20 14 9 29 15 45 19 13 3 27 4 41 5l15-2a146 146 0 0 0 67-22 166 166 0 0 0 80-119 167 167 0 0 0 0-52 145 145 0 0 0-18-51l-20-28c1-4-2-4-5-5"/><path fill="#D19413" d="M327 76c-6 3-10-2-15-3l-39-8-27-1c-16 1-31 3-46 8l-14 4h-6l43-45 30-29z"/><path fill="#D39713" d="M411 346a504 504 0 0 1 8-19 161 161 0 0 0 14-53c1-12 2-24 1-36-2-18-6-36-13-53l-8-16-1-7 37 36v6l6 40c1 16-1 31-4 47l-2 18z"/><path fill="#D19413" d="m310 448-58 56-8-8-47-47c2-1 4-2 6-1a196 196 0 0 0 68 5l22-3z"/><path fill="#D09313" d="m449 309 2-18c3-16 5-31 4-47l-6-40v-5a7312 7312 0 0 1 55 56z"/><path fill="#D39713" d="m310 448-17 2-22 3a196 196 0 0 1-68-5c-2-1-4 0-6 1a861 861 0 0 1-31-31l2-1 10 4a211 211 0 0 0 48 13 203 203 0 0 0 61-1 165 165 0 0 0 44-14l9-2z"/><path fill="#D19413" d="m72 324-27-27 1-4-3-22c-2-15-1-29 1-43l1-18 27-26-1 6a191 191 0 0 0-4 112z"/><path fill="#D39713" d="m72 324-5-22a191 191 0 0 1 4-112l1-6a467 467 0 0 1 22-23 14 14 0 0 1-1 5l-9 20a165 165 0 0 0-11 95 156 156 0 0 0 17 53l4 12z"/><path fill="#D09313" d="m45 210-1 18a157 157 0 0 0-1 43l3 22-1 3a4393 4393 0 0 1-42-43z"/><path fill="#D49913" d="m340 417-9 2a165 165 0 0 1-44 15 202 202 0 0 1-61 0 207 207 0 0 1-48-13l-10-4-2 1-25-25c1-4 3-1 4 0l25 15c12 7 26 13 40 16s30 5 44 5a158 158 0 0 0 71-15l34-20 5-1a750 750 0 0 1-24 24M94 346l-4-12a156 156 0 0 1-17-53c-1-14-3-28-2-42 2-18 6-36 13-53l9-20 1-5 20-20c-1 3-1 6-3 8a183 183 0 0 0-29 66l-4 30a158 158 0 0 0 7 58 191 191 0 0 0 29 59l1 5z"/><path fill="#FFFEFE" d="M374 142c3 0 6 0 5 5l-10 9-13 11-14 12-18 16-64 54c-2 3-3 5-1 8 4 4 6 9 9 13l39 56v1l1 1 14 20 8 14-6 3h-58c-10 1-17-1-21-11a13691 13691 0 0 0-60-95c-3-5-2-8 2-11l54-49 44-39 6-6c8-8 16-14 28-12z"/><path fill="#D69C15" d="M374 142h-23l-3-5-20-14a121 121 0 0 0-43-17c-13-2-26-1-38-2-16-1-30 3-44 8-16 5-30 13-43 23a200 200 0 0 0-23 23 133 133 0 0 0-14 21 134 134 0 0 0-19 53 185 185 0 0 0-1 36 152 152 0 0 0 60 106 139 139 0 0 0 48 24c14 3 27 5 41 6l24-3c11 0 21-4 32-8a140 140 0 0 0 82-78c4-12 10-25 11-38a142 142 0 0 0-22-106l-10-15 10-9c7 9 14 17 20 27a144 144 0 0 1 18 51 167 167 0 0 1-26 121 160 160 0 0 1-53 50c-12 7-25 13-38 17-10 3-20 6-30 5l-15 2c-14-1-27-2-41-5a159 159 0 0 1-45-19c-10-5-19-13-28-20a149 149 0 0 1-38-52 167 167 0 0 1-13-103 168 168 0 0 1 97-120 141 141 0 0 1 45-12l22-2c24 1 48 6 71 17a178 178 0 0 1 46 33l3 4z"/><path fill="#D79E15" d="M369 156a324 324 0 0 1 10 16 138 138 0 0 1 22 105c-1 13-6 26-11 38-8 21-22 37-38 52a140 140 0 0 1-44 26 104 104 0 0 1-32 8l-24 3c-14-1-27-3-41-6a140 140 0 0 1-48-24 152 152 0 0 1-60-105c-1-13 0-25 1-37 2-19 9-37 19-53 4-8 9-15 14-21 7-8 15-16 23-22a132 132 0 0 1 43-24c14-5 28-9 44-8 12 1 25 0 38 2a121 121 0 0 1 43 17l20 14 2 4-31 1-8-7c-17-7-34-13-53-12h-26a134 134 0 0 0-56 24 130 130 0 0 0-42 51 129 129 0 0 0-5 100l3 3-5 21c-1 4 0 6 5 6h11l3 5a131 131 0 0 0 43 38 102 102 0 0 0 38 13c8 1 16 4 24 4a193 193 0 0 0 34-5 109 109 0 0 0 36-14l3-4 6-3 10-7a127 127 0 0 0 37-52 137 137 0 0 0-9-118l-12-18z"/><path fill="#DBA71A" d="m284 160-43 39-54 49c-4 3-5 6-2 10l60 97h-10a102 102 0 0 1-62-37l-4-2 7-26c3-10 2-19-5-26l-4-7c-2-3-2-6 1-8l19-17a11 11 0 0 0 4-6l10-41c1-4 0-6-4-6h-9v-2a98 98 0 0 1 56-23l12-1a277 277 0 0 1 22 3z"/><path fill="#D8A117" d="m285 160-8-4-21-3-12 1a98 98 0 0 0-56 23v2h-20c-4 0-6 1-7 5l-16 66-13 51-3-3a129 129 0 0 1 5-100 132 132 0 0 1 99-75h26c18-1 35 5 52 12l8 6c-12-2-20 5-28 13z"/><path fill="#DBA81A" d="m307 326-39-56-9-13c-2-3-2-5 1-8l64-54 10 18a91 91 0 0 1-27 113"/><path fill="#D9A317" d="M307 326a91 91 0 0 0 27-113l-10-18 18-16 15 21c12 23 15 47 11 73a116 116 0 0 1-46 75 1111 1111 0 0 1-15-21z"/><path fill="#D8A117" d="m169 316 4 2c16 20 37 32 62 37h10c4 9 11 11 21 10h57a9 9 0 0 1-2 4 109 109 0 0 1-36 14c-11 3-23 4-34 5-8 0-16-3-24-4a102 102 0 0 1-38-13 131 131 0 0 1-43-38l-2-5h10c11 0 11 0 15-11zm153 33a118 118 0 0 0 35-149l-14-21 13-12 12 18a127 127 0 0 1 18 63c0 19-2 38-9 55a127 127 0 0 1-47 59z"/><path fill="#FEFDFC" d="M169 316v1c-4 11-4 11-16 11h-21c-5 0-6-2-5-6l5-21 13-51 16-66c1-4 3-5 7-5h29c4 0 5 2 4 6l-10 41-4 6-19 17c-3 2-3 5-1 8l4 6c7 8 8 17 5 27z"/></svg>