<svg xmlns="http://www.w3.org/2000/svg" width="560" height="560"><path fill="#1E1999" d="M0 0h560v560H0z"/><path fill="#B3FEFE" d="M120 161h40v119h39l1-119h160v120h40V161h40v80h40v39h41l-1 121h-40v40h-40v40H120v-40H80v-40H40V281l39-1 1-39h40z"/><path fill="#110B69" d="M0 202h40v33.9c.1 36.5-.2 73-.5 109.5v2L39 401h41v40h40v40h320v-40h40v-40h40V202h40v358H0z"/><path fill="#AFFFFF" d="M40 321h200v40c-1 1-1 1-3 1.1h-12.6a6274 6274 0 0 1-38.5 0 25247 25247 0 0 0-65.9-.1v39h320v-39h-16.3a26113 26113 0 0 1-27.2 0c-25.5.1-51-.2-76.5-1v-40h200v80h-40v40h-40v40H120v-40H80v-40H40z"/><path fill="#130D6F" d="M0 0h560v80H0z"/><path fill="#94FCFE" d="M160 121h240v160h-40V161H200v78.2l.1 11.1a5216 5216 0 0 0 0 22v5.7c-.1 2-.1 2-1.1 3-13 .5-26-.4-39-1V161h-40v80H80v39h-1v-40h40v-80h41z"/><path fill="#1E207E" d="M40 40h480v40H40z"/><path fill="#130F59" d="M40 479h79v3h322v-3h79v40H40z"/><path fill="#AFFFFF" d="M320 321h200v80h-40v40h-40v-79h-49.8c-23.4.1-46.8-.3-70.2-1z"/><path fill="#96FFFF" d="M120 441h320v40H120z"/><path fill="#130E6C" d="M120 401h320v40H120z"/><path fill="#A2FFFF" d="M200 161h160v80H200z"/><path fill="#130E6D" d="M360 161h40v120h-40z"/><path fill="#96FFFF" d="M520 81h40v120h-40z"/><path fill="#95FFFF" d="M0 81h40v120H0z"/><path fill="#130E6D" d="M160 161h40a61513 61513 0 0 1 .1 108v9c-.1 2-.1 2-1.1 3-13 .5-26-.4-39-1z"/><path fill="#A2FFFF" d="M400 161h40v80h-40zm-280 0h40v80h-40z"/><path fill="#28288B" d="M40 401h40v40h40v40h320v-40h40v-40h40v37h-39v4h-40v40H119v-40H79v-40H40z"/><path fill="#9EFFFF" d="M440 401h40v40h-40zm-360 0h40v40H80z"/><path fill="#14116E" d="M440 361h40v40h-40z"/><path fill="#14106E" d="M80 361h40v40H80z"/><path fill="#130F6D" d="M320 321h40v40h-40zm-120 0h40v40h-40z"/><path fill="#19087F" d="M40 402h39v36H40z"/></svg>