<svg xmlns="http://www.w3.org/2000/svg" fill="none" viewBox="0 0 50 50"><g clip-path="url(#a)"><path fill="url(#b)" d="M25.125.607C11.647.607.72 11.533.72 25.012c0 13.478 10.926 24.404 24.404 24.404S49.529 38.49 49.529 25.012C49.53 11.533 38.603.607 25.125.607"/><path fill="#000" fill-rule="evenodd" d="M25.124 48.95c13.22 0 23.937-10.718 23.937-23.937S38.344 1.076 25.124 1.076 1.187 11.793 1.187 25.013s10.717 23.936 23.937 23.936Zm24.872-23.937c0 13.736-11.136 24.872-24.872 24.872S.252 38.749.252 25.013 11.388.14 25.124.14s24.872 11.135 24.872 24.872Z" clip-rule="evenodd"/><path fill="#000" d="M6.063 23.417 4.812 24.67l-1.251-1.252 1.251-1.251 1.251 1.251Zm40.598-.287-1.251 1.25-1.252-1.25 1.252-1.252zM2.814 27.605l4.95-1.234.88 3.535-.706.176.176.707-.707.176.176.707-2.12.53-.177-.708-.707.177-.176-.707-.707.176zm1.06 1.238.352 1.413.707-.176.177.707 2.12-.529-.176-.706.707-.177-.352-1.414zm1.324 6.438.611-.397-.397-.61 3.056-1.985.397.611.61-.396 1.985 3.055-.611.397.397.61-3.056 1.985-.397-.611-.61.397zm1.008.214 1.19 1.834 3.056-1.985-1.19-1.833zm3.924 6.041.458-.566-.566-.459.458-.566-.566-.459 1.376-1.698.566.458.458-.566.567.459.458-.567 2.831 2.293-.458.566-2.265-1.834-.459.566-.566-.458-1.376 1.699.567.458-.459.566 1.133.918.917-1.133-.566-.459.458-.566 1.699 1.376-1.834 2.264zm5.454 3.627 1.744-4.793 4.793 1.744-.25.685-3.422-1.246-.499 1.37 2.739.996-.25.685-2.738-.997-.498 1.37 3.423 1.245-.25.685zm8.292 2.094v-.729h-.728V45.8h-.73v-2.185h.73v-.73h.728v-.728h2.915v.729h.728v.729h-1.457v-.73h-1.457v.73h-.729V45.8h.729v.73h1.457v-.73h1.457v.73h-.728v.727zm6.399-.515-1.77-4.784 1.367-.505.758 2.05 2.05-.759-.758-2.05 1.366-.506 1.77 4.784-1.367.505-.758-2.05-2.05.759.758 2.05zM37.31 43.7l-2.293-2.832.566-.458-.459-.566.567-.459-.46-.566 1.7-1.376.458.567.566-.459.46.566.565-.458 2.293 2.831-1.133.917-.917-1.132-1.698 1.375.917 1.133-1.133.917Zm-.244-2.616 1.699-1.376-.917-1.132-.566.458-.46-.566-.565.459.458.566-.566.459zm5.672-2.407-.61-.397.793-1.222-3.055-1.984-.794 1.222-.611-.397 2.38-3.667.612.397-.794 1.223 3.056 1.984.793-1.222.611.396-2.38 3.667Zm3.366-6.077-4.949-1.233.353-1.414.707.176.176-.707.707.176.176-.707.707.177.176-.707-2.12-.53.352-1.413 4.949 1.234-.353 1.414-1.414-.353-.176.707-.707-.176-.176.707-.707-.176-.176.707 2.828.705z"/><path fill="url(#c)" stroke="#000" d="M28.013 9.627c-.145.154-.267.286-.36.387a17.3 17.3 0 0 0-3.463-.356q-1.237.002-2.419.203c-1.184-.354-2.117-.691-3.252-1.884l-.285-.304c-.582-.621-1.34-1.431-2.12-1.97-.459-.317-.979-.58-1.521-.63-.576-.053-1.127.139-1.59.63-.817.868-1.54 2.59-1.96 4.8-.42 2.2-.555 4.956-.152 8.004a14.4 14.4 0 0 0-1.113 5.563c0 2.944.883 5.683 2.4 7.964 2.298 4.904 7.28 8.302 13.055 8.302 6.735 0 12.389-4.62 13.97-10.861.878-1.589 1.37-3.358 1.37-5.223 0-3.796-2.03-7.174-5.195-9.47-.912-1.752-.953-2.98-.997-4.32q-.01-.374-.03-.764c-.015-.267-.022-.5-.029-.726a29 29 0 0 0-.018-.499c-.016-.368-.045-.732-.129-1.05-.085-.324-.24-.645-.542-.876-.3-.23-.676-.318-1.098-.318-.274 0-.55.097-.795.215a5.3 5.3 0 0 0-.784.48c-.53.379-1.096.877-1.61 1.363-.516.489-.99.976-1.333 1.34Z"/><path fill="#fff" fill-rule="evenodd" d="M10.815 27.88a13.8 13.8 0 0 0 1.806 3.905c2.211 4.752 7.028 8.045 12.614 8.045 6.52 0 11.993-4.488 13.497-10.543.859-1.534 1.338-3.239 1.338-5.035 0-1.8-.48-3.506-1.342-5.041-.533-.18-.994-.18-1.357.021-.56.312-.828 1.072-.83 2.159-.001.688-.71 1.23-1.37 1.032-1.917-.58-3.776-.503-5.333.362a5.7 5.7 0 0 0-1.077.777c-1.49 1.365-4.869 2.246-6.438.972-3.032-2.462-6.285-3.37-8.647-2.057-1.717.954-2.671 2.92-2.861 5.403" clip-rule="evenodd"/><path fill="#F7ECDF" fill-rule="evenodd" d="M24.311 36.7c-4.403.405-8.818-2.787-11.904-5.407 2.101 5.014 7.055 8.536 12.831 8.536 6.506 0 11.967-4.467 13.486-10.5l-.29.652a1.15 1.15 0 0 1-1.707.477 3.5 3.5 0 0 1-.56 1.341c-.776.982-1.785 1.622-3.034 1.853a5.3 5.3 0 0 1-.874.073 5.1 5.1 0 0 1-2.261-.52c.159.526-1.283 3.09-5.687 3.495" clip-rule="evenodd"/><path fill="#000" d="M14.213 15.03c-.796-2.605-.592-5.795 0-7.635 1.036 3.469 3.547 5.511 3.547 5.511-1.047.227-2.543 1.108-3.547 2.124M30.5 24.241c.788-1.679 5.413-1.979 6.142 0 .406 1.101-1.228 3.605-2.317 3.767-1.565.231-4.694-1.912-3.824-3.767Z"/><path fill="#fff" d="M25.835 16.186c-.629.488-2.967.53-3.201-.185s1.274-2.252 2.372-1.766c.916.405 1.641 1.32.829 1.951m7.312-.944c-.436.653-1.607.58-2.074 0-.465-.582-.394-1.685.822-1.595 1.013.075 1.545 1.155 1.252 1.595" opacity=".5"/><path fill="#000" d="M29.751 33.66c-.261-.233.066-.53.384-.386a5.1 5.1 0 0 0 2.12.452c1.968 0 3.643-1.08 4.265-2.587.057-.136.26-.122.26.025 0 1.97-1.836 3.567-4.1 3.567-1.147 0-2.185-.41-2.929-1.071"/><path fill="#000" fill-rule="evenodd" d="m42.079 15.264-28.77 3.403.163 1.381 4.373-.517.163 1.38 1.381-.163.164 1.381 1.38-.163.164 1.38 4.603-.544-.163-1.38 1.38-.164-.163-1.381 1.381-.163-.163-1.381 14.27-1.688zm-11.345 2.742 10.127-1.198.164 1.381-10.127 1.198zm8.91.346-7.366.872.164 1.38 1.382-.163h-.001l.163 1.381 4.604-.544-.164-1.381 1.381-.164z" clip-rule="evenodd"/><path fill="#fff" d="m38.097 17.134 1.38-.163.164 1.38-1.381.164-.163-1.38Z"/><path fill="#fff" d="m36.884 18.677 1.38-.163.164 1.38-1.381.164zm-11.675-.02 1.38-.163.164 1.38-1.381.164-.163-1.38Zm-1.217 1.544 1.381-.163.163 1.381-1.38.163-.164-1.38Z"/><path stroke="#000" stroke-linecap="round" d="M37.804 25.23c1.142 1.505-.109 4.23-2.276 4.19-.472-.009-.955.167-1.278.511-1.711 1.818-5.317 2.046-6.434-.468-.113-.253-.292-.479-.54-.603l-.886-.443"/><path fill="#000" d="M31.839 31.476c2.789 1.12 4.431-1.035 4.288-1.843l-1.937.221z"/></g><defs><linearGradient id="b" x1="25.125" x2="25.125" y1="49.884" y2=".14" gradientUnits="userSpaceOnUse"><stop stop-color="#7774F4"/><stop offset=".715" stop-color="#9157F9"/><stop offset="1" stop-color="#B133FF"/></linearGradient><linearGradient id="c" x1="25.176" x2="25.176" y1="5.57" y2="39.83" gradientUnits="userSpaceOnUse"><stop stop-color="#FBF476"/><stop offset=".45" stop-color="#FFA725"/><stop offset="1" stop-color="#FFA725"/></linearGradient><clipPath id="a"><path fill="#fff" d="M0 0h50v50H0z"/></clipPath></defs></svg>