<svg xmlns="http://www.w3.org/2000/svg" width="150" height="150" fill="none" viewBox="0 0 150 150"><g clip-path="url(#a)"><mask id="b" width="150" height="150" x="0" y="0" maskUnits="userSpaceOnUse" style="mask-type:luminance"><path fill="#fff" d="M150 0H0v150h150z"/></mask><g mask="url(#b)"><path fill="#6870FA" d="M75 150a75.002 75.002 0 0 0 73.559-89.632A75 75 0 0 0 0 75a74.816 74.816 0 0 0 75 75"/><path fill="url(#c)" d="M37.5 91.7c0-9.976 0-14.964 2.047-19.068a19.5 19.5 0 0 1 3.576-4.998c3.223-3.26 7.944-4.87 17.386-8.09l18.587-6.338c13.528-4.613 20.292-6.92 25.338-4.342a13.4 13.4 0 0 1 3.23 2.31c4.068 3.945 4.068 11.092 4.068 25.385 0 9.897 0 14.845-2.283 18.8-.554.958-1.2 1.86-1.928 2.694-3.006 3.437-7.69 5.034-17.057 8.228l-22.069 7.525c-11.911 4.062-17.867 6.093-22.459 4.265-5.884-2.342-8.436-7.785-8.436-12.47z"/><path fill="#fff" fill-rule="evenodd" d="M37.5 68.174c0-7.99 0-14.54 1.328-17.95a19.5 19.5 0 0 1 5.54-7.774c2.79-2.368 6.566-3.672 14.119-6.28l2.603-.898c8.77-3.028 13.156-4.542 16.676-3.861 3.81.737 7.113 3.09 9.052 6.451 1.793 3.106 1.793 10.179 1.793 19.457 0 7.321 0 10.981-1.12 14.137a19.47 19.47 0 0 1-6.214 8.72c-2.618 2.088-6.078 3.283-12.998 5.671 0 0-11.917 4.072-19.34 6.666S37.5 100.31 37.5 105.722z" clip-rule="evenodd"/></g></g><defs><linearGradient id="c" x1="109.116" x2="40.532" y1="94.466" y2="55.055" gradientUnits="userSpaceOnUse"><stop stop-color="#fff"/><stop offset="1" stop-color="#fff" stop-opacity=".12"/></linearGradient><clipPath id="a"><path fill="#fff" d="M0 0h150v150H0z"/></clipPath></defs></svg>