<svg width="128" height="128" fill="none" xmlns="http://www.w3.org/2000/svg"><g filter="url(#a)"><circle cx="64" cy="64" r="64" fill="#F4F4F0"/></g><mask id="b" style="mask-type:alpha" maskUnits="userSpaceOnUse" x="0" y="0" width="128" height="128"><circle cx="64" cy="64" r="64" fill="#D9D9D9"/></mask><g mask="url(#b)"><path fill="url(#c)" fill-opacity=".25" d="M0 0h128v128H0z"/><path d="M84.14 11.015h.488l.092.092.091.092c.214.26.397.536.397.889 0 .567-.427 1.164-.702 1.64-1.42 2.267-2.658 4.641-3.834 7.047a32.56 32.56 0 0 0-1.299 3.11c-.489 1.471-.916 2.927-1.543 4.351 2.98.537 5.897 1.517 8.57 2.957 3.605 1.977 6.69 4.673 9.501 7.646 1.1 1.21 2.108 2.512 3.055 3.86 1.237 1.885 2.276 3.923 3.147 6.007.351.796.565 1.654.962 2.436 1.1-.506 2.169-1.057 3.299-1.486 2.154-.89 4.384-1.732 6.737-1.916 1.023-.015 2.047-.076 3.07 0 .703.092 1.543.475 1.604 1.272.076.582-.351 1.011-.886 1.15-1.421.183-2.841.045-4.246.29-1.238.2-2.46.383-3.666.72a18.27 18.27 0 0 0-5.301 1.962c.275.735.412 1.486.596 2.236.275 1.027.336 2.084.672 3.095 2.536-.52 5.27-.567 7.851-.551 1.849.03 3.743.092 5.515.735.519.215 1.13.644 1.176 1.257.107.582-.443 1.164-1.008 1.164-1.497.123-3.132-.322-4.629-.49-.763-.062-1.543-.092-2.306-.169-1.329-.23-2.735-.123-4.079-.153-.763-.03-1.481.138-2.23.23-.03 1.563.306 3.033.107 4.596-.168 1.21.046 2.375-.214 3.585-.122 1.502-.198 2.988-.473 4.49-.184 1.746-.657 3.477-1.085 5.178-.473 2.191-1.268 4.26-2.001 6.374.825.582 1.833.873 2.765 1.287 3.544 1.379 6.721 3.83 9.623 6.25 2.062 1.686 4.002 3.555 5.698 5.624 1.848 2.206 3.773 4.535 5.224 7.032 1.13 1.931 1.818 4.03 2.276 6.221.107.566.153 1.149.198 1.731.031.582.184 1.134.169 1.716 0 .919.045 1.854-.046 2.758-.138.735-.153 1.455-.336 2.16-.26.981-.611 1.946-.886 2.926-.214.736-.474 1.41-.963 2.007-.443 0-.886.092-1.267-.137-.306-.338-.306-.767-.153-1.18.458-1.272.794-2.574 1.222-3.861.443-1.425.321-3.064.336-4.535.03-2.804-.718-5.623-1.94-8.136-1.451-2.666-3.559-5.163-5.499-7.492-1.131-1.394-2.459-2.65-3.758-3.907-1.008-.888-2.047-1.731-3.085-2.574-1.39-1.026-2.612-2.084-4.079-2.942-.855-.505-1.726-1.057-2.658-1.424-.901.566-1.619 1.47-2.337 2.237-.641.689-1.176 1.47-1.741 2.221-.245.107-.52.245-.794.23-.245-.077-.49-.26-.718-.383a13.45 13.45 0 0 0-.107-.736c.427-.842.977-1.608 1.619-2.298a22.384 22.384 0 0 1 2.062-2.114c-.855-.552-1.803-.92-2.643-1.502-.275-.214-.626-.26-.489-.704.78-2.452 1.742-4.765 2.307-7.293.306-1.38.672-2.728.932-4.122.244-1.792.473-3.6.58-5.424.245-2.098.153-4.243.153-6.342-.03-.307.031-.95-.244-1.119-.474-.015-.978.138-1.451.245 0 .659.122 1.303.168 1.946.091 2.068.03 4.106-.474 6.129-.321 1.455-.916 2.788-1.573 4.136-.825 1.38-1.589 2.712-2.735 3.861-.779.766-1.512 1.532-2.352 2.222-.198.199-.489.368-.474.69-.045 1.455.077 2.956-.076 4.412-.107.904-.168 1.777-.366 2.666-.184.888-.29 1.762-.703 2.589-.367.72-.596 1.609-1.344 2.022-.642.368-1.467.445-2.185.414-1.45-.077-2.688-.827-3.788-1.731-1.023-.873-2.047-1.716-2.81-2.835-.367-.551-.718-1.118-1.116-1.654-1.13.29-2.153.812-3.299 1.057-1.436.29-2.948.705-4.4.659-1.725 0-3.512-.108-5.177-.537-1.467-.383-2.888-.796-4.278-1.41-1.496-.673-2.993-1.317-4.383-2.205-2.108-1.364-4.278-2.774-6.584-3.8-1.1-.46-2.215-.843-3.422-.628-1.405.275-2.75.781-4.17 1.026-1.298.245-2.627.353-3.956.26a17.193 17.193 0 0 1-1.94-.505c-1.085-.536-2.093-1.226-2.948-2.099-.993-.996-1.955-2.038-2.78-3.187-.52-.72-.886-1.501-1.314-2.252-.397.107-.764.276-1.13.46-1.62.812-3.315 1.47-5.026 2.068-.076.72-.046 1.44-.107 2.16-.06.2-.152.368-.26.537-.64.766-.977 1.7-1.619 2.451-.55.69-.886 1.44-1.328 2.19-.611 1.028-.978 2.253-1.375 3.372-.397 1.195-.886 2.374-1.192 3.6-.473 1.64-.886 3.294-1.298 4.934-.336 1.578-.825 3.14-1.115 4.734-.122.643-.29 1.256-.367 1.9-.137.98-.198 2.022-.473 2.957-.092.352-.352.49-.627.704-.274-.091-.534-.168-.81-.26-.244-.72-.182-1.44-.137-2.176.123-2.727.917-5.515 1.528-8.181.489-1.961.962-3.922 1.512-5.868.489-1.578 1.13-3.095 1.62-4.673-1.712.613-3.315 1.7-4.782 2.773-1.482.996-2.963 2.13-4.155 3.463-.443.428-.886.873-1.283 1.348-.672.812-1.39 1.563-2 2.42-1.544 2.069-2.918 4.26-4.263 6.466-.87 1.456-1.726 2.881-2.413 4.428-.687 1.563-1.39 3.172-1.833 4.842-.504 1.869-1.146 3.891-1.085 5.852 0 .874.153 1.732.23 2.605.091 1.072.412 2.022.656 3.079.29 1.364.871 2.666 1.574 3.861 1.45 2.237 3.314 4.183 5.422 5.822 1.115.751 2.338 1.502 3.651 1.824 1.283.475 2.627.567 3.987.536 1.039-.031 2.093-.368 3.07-.751.886-.352 1.467-.996 2.123-1.654.26-.276.49-.506.49-.92a25.05 25.05 0 0 0-.108-3.386c-.03-.413-.32-.735-.534-1.072-.504-.72-.764-1.486-1.1-2.283-.443-1.073-.901-2.068-1.237-3.172-.26-.842-.443-1.7-.657-2.558-.565-2.038-.932-4.122-1.039-6.221-.061-1.225.168-2.451.244-3.692.062-.414.031-1.103.428-1.364.26-.122.58-.153.856-.199.473.858.29 1.701.244 2.651-.32 2.405.137 4.719.733 7.047.306 1.287.703 2.559 1.1 3.831.458 1.394 1.054 2.681 1.665 3.999.32.689.535 1.425.917 2.099.397.689.305 1.394.442 2.16.153 1.501-.06 3.049.214 4.581.092 1.532.168 3.049.443 4.55.138.996.23 1.992.459 2.973.213.919.229 1.9.534 2.788.092.337.413.521.672.72 1.268.874 2.506 1.839 3.88 2.528a46.524 46.524 0 0 0 7.546 3.157c2.139.566 4.262 1.317 6.431 1.731 1.879.429 3.788.735 5.682 1.011 1.192.261 2.414.322 3.59.598.52.122 1.039.168 1.558.229.687.077 1.375.169 2.062.291 1.238.184 2.505.276 3.743.414.824.123 1.619.107 2.444.123 2.337.015 4.69.046 7.026 0 .626 0 1.237-.138 1.879-.169 1.558-.046 3.116-.199 4.674-.337 1.253-.199 2.49-.383 3.758-.444 1.451-.169 2.917-.322 4.369-.506 1.45-.306 2.917-.383 4.368-.705 1.711-.291 3.407-.704 5.087-1.179 1.558-.322 3.085-.812 4.582-1.318.764-.291 1.528-.551 2.276-.858.214-.107.52-.168.581-.444.29-.751.458-1.532.611-2.329.26-1.241.596-2.436.626-3.708-.55 0-1.084-.015-1.619-.092a18.166 18.166 0 0 1-1.573-.413c-.795-.23-1.543-.69-2.246-1.119-.626-.505-1.16-1.088-1.726-1.639-.565-.552-1.07-1.119-1.39-1.839-.535-1.149-.52-2.467-.489-3.692.03-1.195.367-2.237.642-3.386.26-1.027.55-2.038.977-3.003.58-1.318 1.192-2.666 1.97-3.892.215-.352.413-.705.612-1.072-.474-.92-1.039-1.762-1.451-2.712-.856-1.961-1.436-4.168-1.406-6.313 0-1.271-.015-2.558.046-3.83.153-1.333.245-2.65.55-3.968.474-3.401 1.742-6.726 3.27-9.775.182-.322.427-.582.686-.843.443 0 .84-.092 1.07.383.198.552-.016 1.241-.23 1.762a15.31 15.31 0 0 0-1.115 2.636c-.565 1.807-1.267 3.477-1.527 5.362-.122.965-.367 1.93-.489 2.896-.214 1.991-.29 3.999-.214 5.99.168 2.329.917 4.566 2.108 6.558.78-.674 1.299-1.578 2.047-2.283 1.558-1.701 3.407-3.049 5.331-4.321 1.054-.704 2.2-1.179 3.391-1.639.993-.383 2.017-.536 3.071-.659.595-.061 1.328-.046 1.833.337.244.169.259.46.183.736-.153.337-.458.505-.779.658l-.138.031c-1.435-.015-2.887.521-4.2 1.042-4.613 2.206-8.402 5.868-10.983 10.265-.55.981-1.085 1.961-1.558 2.973-.627 1.332-.993 2.849-1.36 4.289-.336 1.333-.458 2.804-.152 4.153.168.735.656 1.179 1.16 1.7.688.674 1.253 1.394 2.109 1.854 1.16.659 2.459.889 3.788.827 1.145-.076 2.26-.03 3.376-.306 1.603-.322 3.009-1.027 4.429-1.793 2.215-1.21 4.338-2.589 6.431-3.998 1.375-.889 2.627-1.946 3.804-3.095 1.176-1.149 2.001-2.773 3.07-3.969.305-.383.703-.398 1.146-.474.229.214.626.444.611.796.091.628-.367 1.027-.688 1.502-.855 1.088-1.543 2.344-2.474 3.355-1.436 1.486-3.071 2.789-4.797 3.907a86.072 86.072 0 0 1-5.178 3.263c-1.436.874-2.963 1.563-4.552 2.145-1.115.383-2.276.552-3.437.69-.199.888-.183 1.792-.397 2.681-.183.873-.29 1.762-.504 2.62-.825 3.692-2.536 7.324-4.292 10.648-1.253 2.222-2.567 4.428-4.079 6.481-.916 1.318-1.833 2.62-2.918 3.8-.626.751-1.283 1.471-1.94 2.206-1.756 1.885-3.742 3.57-5.666 5.286 1.435-.015 2.871-.077 4.307 0 .901.169 1.864.429 2.566 1.042.504.459.963 1.072.917 1.792 0 .46.06 1.058-.184 1.456-.32.674-1.008 1.18-1.558 1.67.948.276 1.895.46 2.811.843 1.191.521 2.307 1.133 3.01 2.267.885 1.318.565 3.11-.55 4.183-.993.919-2.414 1.471-3.682 1.9a6.905 6.905 0 0 1-1.466.383c1.191.705 2.52 1.44 3.3 2.635.503.735.595 1.747.076 2.497-.764 1.134-2.032 1.64-3.239 2.145-.825.368-1.757.506-2.642.629a67.284 67.284 0 0 1-4.262 0c-1.375-.23-2.75-.261-4.124-.445-1.68-.245-3.361-.322-5.026-.613a20.132 20.132 0 0 1-4.552-.98c-2.933-.828-5.835-1.762-8.63-3.034-1.452-.689-2.826-1.317-4.094-2.298-.382-.046-.78-.031-1.13.153-1.528.69-2.933 1.548-4.507 2.115-1.573.628-3.375.842-5.025 1.241-.856.183-1.757.245-2.612.413-.947.199-1.94.261-2.887.491-1.604.398-3.422.306-5.056.337-2.735.061-5.438-.184-8.05-1.012-1.803-.475-3.437-1.532-4.262-3.263-.428-.843-.428-1.9.092-2.712.595-1.042 1.573-1.44 2.337-2.267-1.36-.797-2.964-1.762-3.804-3.141-.61-.874-.596-2.176.122-2.988.504-.597 1.284-1.103 2.047-1.287.993-.306 2.139-.107 3.193-.184-.367-.383-.764-.735-1.13-1.118-.84-.843-1.436-1.869-1.604-3.065-.092-.704.168-1.394.626-1.915.565-.551 1.436-.827 2.2-.812 1.114 0 2.245-.03 3.36.031 1.252.214 2.46.567 3.65 1.011 1.253.46 2.506.95 3.682 1.594-2.016-2.498-4.033-5.056-5.759-7.784-.962-1.562-1.94-3.095-2.75-4.749-1.007-1.854-1.893-3.754-2.78-5.654-.885-2.007-1.771-4.014-2.459-6.113-.641-1.808-1.084-3.692-1.573-5.546-.458-1.762-.794-3.555-1.13-5.332a53.357 53.357 0 0 0-.413-2.727 79.792 79.792 0 0 1-.336-3.846c-.58.414-1.084.827-1.741 1.103-1.512.644-3.086 1.103-4.736 1.119-2.49-.154-4.888-.705-7.026-2.069-1.833-1.164-3.513-2.604-4.903-4.274-.947-1.165-1.88-2.329-2.551-3.677-.718-1.471-1.161-2.973-1.635-4.52-.29-1.057-.565-2.069-.595-3.172-.016-.705-.26-1.256-.092-1.946.092-.367.107-.72.107-1.103 0-1.118.153-2.221.427-3.309.627-3.141 1.788-6.037 3.208-8.886.886-1.716 1.955-3.356 2.964-4.995.962-1.563 1.97-3.095 3.1-4.55 1.497-1.946 3.07-3.846 4.904-5.486.886-.75 1.833-1.455 2.765-2.144 2.046-1.395 4.002-2.728 6.37-3.555.564-.215 1.1-.306 1.435-.858.657-1.073 1.39-2.068 2.123-3.08.382-.52.337-1.057.367-1.67-1.07 0-2.093.215-3.147.123-1.237-.123-2.398-.827-2.948-1.961-.443-1.011-.473-2.222-.06-3.233.58-1.501 1.634-2.85 2.703-4.03a56.938 56.938 0 0 1 4.414-4.596c.703-.72 1.513-1.333 2.246-2.038.153-.168.351-.275.29-.551-.535-3.264.168-6.68 1.71-9.591.352-.736.856-1.38 1.116-2.13-3.177-2.267-6.752-3.508-10.51-4.413-.61-.122-1.267-.199-1.848-.46-.351-.168-.657-.474-.61-.903-.077-.582.55-.98 1.038-1.073 1.405-.183 2.689.184 4.017.583a31.08 31.08 0 0 1 6.324 3.003c.886.551 1.696 1.21 2.536 1.823.596-.69 1.084-1.456 1.71-2.114.169-.215.398-.368.367-.675-.03-.582-.565-1.103-.779-1.654-.916-1.992-2.215-3.739-3.574-5.455-.993-1.225-2.169-2.022-3.33-3.095-.55-.52-1.237-.919-1.726-1.486-.32-.337-.428-1.042 0-1.333.351-.367.901-.322 1.344-.199a9.052 9.052 0 0 1 3.238 2.16c1.803 1.808 3.33 3.907 4.553 6.144.672 1.257 1.145 2.574 1.71 3.877.978-.46 1.925-.904 2.979-1.165.214-.827.367-1.731.748-2.482.49-1.042 1.1-2.007 1.956-2.773.886-.828 1.985-1.379 3.1-1.793.459-.184.947-.199 1.436-.214.627-1.38 1.62-2.88 2.994-3.6.978-.568 1.986-.981 3.116-1.104a29.32 29.32 0 0 1 2.597 0 11.47 11.47 0 0 1 3.376 1.088c.535-.26 1.115-.536 1.696-.643 1.16-.2 2.276-.537 3.436-.736 1.222-.306 2.475-.398 3.712-.598.993-.076 1.986 0 2.979-.06-.458-1.487-.764-2.927-1.39-4.367-.565-1.226-1.466-2.33-2.307-3.386-.656-.782-1.267-1.578-2.077-2.207-1.023-.888-2.078-1.716-3.223-2.42-.474-.307-.947-.537-1.33-.966-.32-.29-.274-.873-.167-1.256.229-.26.58-.536.932-.552 1.038-.122 2.154.383 2.994.935 1.695 1.21 3.04 2.773 4.246 4.459.87 1.333 1.62 2.742 2.291 4.167.963 2.084 1.497 4.29 1.849 6.558-.29.367-.443.811-.993.796-1.33.046-2.658 0-4.002.138-2.292.352-4.583.904-6.844 1.486.764.736 1.436 1.502 1.97 2.421.597 1.057 1.024 2.13 1.238 3.325.168 1.118.092 2.267.092 3.401 0 .95-.153 1.885-.352 2.82-.213.964-.595 1.853-.855 2.803 1.054.72 1.986 1.532 2.673 2.62.352.536.596 1.103.87 1.7.306-1.21.673-2.374 1.162-3.523.351-.95.901-1.747 1.375-2.62 1.344-2.33 2.734-4.474 4.75-6.282.84-.69 1.742-1.333 2.658-1.93 1.848-.966 3.681-1.732 5.805-1.793 1.695-.077 3.437.352 5.025.92 1.726.612 3.055 1.868 4.124 3.34.566.78.993 1.7 1.345 2.589.244.689.305 1.578.733 2.175.825.23 1.634.444 2.368.889.595.613 1.16 1.18 1.558 1.946.244.475.381.965.519 1.47-.015.874 0 1.793-.275 2.636-.306.98-.81 1.808-1.283 2.712.748.29 1.497.612 2.215.965.412-.184.84-.353 1.222-.582.779-.475 1.604-.874 2.383-1.349-.504-2.037-1.497-4.014-2.49-5.868-.428-.796-.81-1.593-1.33-2.344a19.945 19.945 0 0 0-2.245-2.941c-1.023-1.073-1.985-2.222-3.085-3.218-1.406-1.256-2.81-2.513-4.369-3.57-3.834-2.528-8.279-4.137-12.862-4.55-.58-.092-1.176-.077-1.74-.169-.52-.122-.276-.705-.291-1.088.229-.183.412-.383.718-.413.947-.092 1.924.03 2.872.03.152-1.379.779-2.543 1.145-3.86.275-.797.428-1.61.657-2.406.565-2.191 1.298-4.382 2.322-6.404.55-1.165 1.07-2.268 1.894-3.264.489-.536 1.054-.98 1.802-1.011l-.015.015Z" fill="#000"/><path d="M72.705 28.24c0 .367-.23.966.292 1.088.584.092 1.168.077 1.752.169 4.595.414 9.082 2.025 12.939 4.555 1.567 1.059 2.98 2.332 4.394 3.574 1.107.997 2.075 2.132 3.104 3.221.246.951.86 1.55 1.414 2.393.261.368.384.49.86.537.508.751.907 1.549 1.338 2.346.998 1.84 1.997 3.835 2.504 5.875-.783.475-1.613.89-2.397 1.35-.169-.123-.415-.2-.476-.415-.2-.66-.246-1.365-.4-2.04-.276-1.135-.46-2.239-1.045-3.267-.138-.506-.276-1.012-.522-1.472-.4-.767-.968-1.334-1.568-1.948-.799-1.273-1.813-2.331-3.119-3.068-.369-.904-.784-1.81-1.352-2.592-1.076-1.457-2.413-2.73-4.15-3.343-1.597-.568-3.35-.997-5.055-.92-2.136.06-3.98.812-5.84 1.794-.89-.03-1.766-.015-2.642.123-1.66.291-3.227-.154-4.933-.092-1.352-.108-2.627-.276-3.841-.936-.769-.43-1.537-.92-2.275-1.396-.537-.935-1.214-1.687-1.982-2.423 2.274-.583 4.564-1.12 6.884-1.488 1.337-.123 2.674-.092 4.026-.138.538 0 .707-.43 1-.797.23-.031.476-.046.706-.062.138-.2.261-.414.4-.613l-.016-.016Z" fill="#63B2B7"/><path d="M53.047 30.87c1.795-.076 3.65.435 5.05 1.612 1.384 1.053 2.296 2.57 2.813 4.244.274.898.305 1.827.29 2.757-2.434-.124-4.776.123-7.21-.233-1.901-.201-3.757-.65-5.506-1.456-.897-.433-1.825-.743-2.646-1.363.456-.774.79-1.78 1.506-2.307.882-.744 1.338-1.642 2.342-2.215 1.004-.558 2.19-1.038 3.346-1.023l.015-.015Z" fill="#8F75BA"/><path d="M61.95 33.858c.738.46 1.476.935 2.23 1.35 1.19.639 2.44.787 3.766.906 1.07.267 2.17.133 3.24.341.693.104.648 1.142.03 1.32-.98.297-2.14.194-3.15.164-1.16-.09-2.395-.06-3.48-.46a9.538 9.538 0 0 0-1.416-.386c-.211-1.157-.618-2.196-1.22-3.22v-.015Z" fill="#316B8B"/><path d="M67.908 36.156c1.696-.063 3.254.39 4.904.093.871-.156 1.742-.156 2.628-.124a30.209 30.209 0 0 0-2.658 1.963c-2.017 1.838-3.407 4.02-4.752 6.388-.474.888-1.024 1.714-1.375 2.664a24.458 24.458 0 0 0-1.161 3.584c-.275-.592-.504-1.169-.871-1.73-.688-1.106-1.635-1.932-2.674-2.664.26-.966.642-1.87.856-2.851.199-.95.367-1.886.351-2.867 0-1.138.061-2.322-.091-3.459a9.39 9.39 0 0 1 1.436.405c1.1.42 2.353.405 3.53.483 1.038.031 2.2.14 3.192-.171.627-.187.673-1.278-.03-1.387-1.085-.218-2.2-.078-3.285-.358v.03Z" fill="#428297"/><path d="M43.588 36.124c-.335 1.574-.898 3.087-1.156 4.677-.076.17-.152.34-.228.494-.365.077-.837.077-1.171.278-.335.355-.548.864-.776 1.28-.106-1.188-.03-2.345.441-3.457.578-1.404 1.46-2.686 2.89-3.288v.016Z" fill="#8F75BA"/><path d="M45.583 36.482c.835.602 1.763.888 2.69 1.324 1.78.782 3.666 1.218 5.599 1.413 2.474.346 4.856.105 7.33.226 0 .36-.03.737-.046 1.097-1.191.106-2.397.046-3.588.046-1.608 0-3.186-.18-4.794-.331-1.3-.18-2.583-.421-3.835-.812-1.33-.436-2.614-.737-3.851-1.399.108-.541.247-1.067.51-1.564h-.015Zm35.381.019c1.958-.092 3.853.139 5.594 1.045 1.569.907 2.812 2.428 3.464 4.102.793 2.182 1.367 4.348 1.088 6.683-1.896.215-3.869.17-5.764-.015-1.585-.261-3.17-.446-4.739-.799-1.864-.338-3.682-1.03-5.484-1.628-1.523-.615-3.092-1.214-4.553-1.952.125-.23.249-.476.389-.706.295.338.606.66.994.89 1.476.922 3.03 1.46 4.661 2.029 1.445.476 2.952.783 4.428 1.09 1.802.323 3.651.415 5.469.216.886-.093 1.74-.185 2.579-.507a7.181 7.181 0 0 0-.218-4.963c-.559-1.244-1.475-2.35-2.656-3.057-1.212-.707-2.486-1.245-3.9-1.368-2.113-.184-4.133.292-6.028 1.199-1.492.584-2.672 1.567-3.884 2.596a12.87 12.87 0 0 1 3.542-3.103c1.476-.907 3.247-1.752 5.018-1.736V36.5Z" fill="#5F559A"/><path d="M82.234 37.645c1.405.14 2.672.666 3.877 1.378 1.189.713 2.085 1.828 2.64 3.082.665 1.58.727 3.377.217 5.003-.834.325-1.684.402-2.564.51-1.807.202-3.66.11-5.437-.216-1.483-.31-2.98-.62-4.402-1.1-1.621-.573-3.166-1.115-4.633-2.044-.386-.248-.68-.573-.989-.898.448-.65.942-1.286 1.452-1.89 1.205-1.037 2.379-2.013 3.862-2.617 1.884-.898 3.892-1.394 5.992-1.208h-.015Z" fill="#8F75BA"/><path d="M44.626 39.855c.517.166 1.004.407 1.507.603 1.963.767 3.987 1.264 6.042 1.67.015.753-.03 1.596.168 2.334.182.677.365 1.34.73 1.942.365.617.868 1.068 1.385 1.55-.791.783-1.628 1.49-2.283 2.409-.259.18-.502.421-.852.346-1.188-.18-2.329-.828-3.197-1.64-1.08-.964-1.81-2.184-2.404-3.493-.427-.994-1.203-1.536-1.355-2.635-.046-.993-.076-2.122.274-3.07l-.015-.016Z" fill="#F3D4B4"/><path d="M42.529 40.605c-.229 1.553-.245 3.202.13 4.724.277 1.237.847 2.33 1.303 3.52a8.692 8.692 0 0 1-.977-1.062c-.652-.856-1.336-1.586-1.792-2.569-.375-.793-.815-1.633-.978-2.505.244-.444.472-.967.83-1.316.343-.19.848-.206 1.255-.285.082-.175.163-.349.245-.508h-.017Z" fill="#5F559A"/><path d="M95.32 40.98c.836.92 1.58 1.936 2.233 2.998-.47-.047-.577-.172-.85-.547-.532-.859-1.155-1.468-1.398-2.436l.015-.015Z" fill="#8EA8AA"/><path d="M91.93 41.353c1.27.72 2.244 1.754 2.998 2.998-.724-.434-1.492-.644-2.29-.869-.413-.584-.472-1.454-.708-2.129Z" fill="#428297"/><path d="M53.714 42.105c1.451.153 2.903.338 4.371.323.174.939.205 2.078-.268 2.94-.379.708-1.152 1.185-1.957 1.231-.663.046-1.2-.554-1.515-1.062-.663-1.078-.679-2.232-.616-3.432h-.015Z" fill="#FF785B"/><path d="M59.752 42.514c.358-.048.717-.032 1.075-.032-.13.904-.44 1.792-.75 2.631-.162.436-.423.791-.749 1.114.13-.549.326-1.098.407-1.663.098-.694 0-1.372.017-2.066v.016Z" fill="#8F8A84"/><path d="M59.71 42.495c.249 0 .497 0 .745-.015-.124.574-.202 1.1-.682 1.498a9.231 9.231 0 0 1-.062-1.467v-.016Z" fill="#ECCFAF"/><path d="M44.34 42.853c.146 1.139.891 1.715 1.3 2.729.57 1.356 1.257 2.603 2.309 3.617.832.842 1.928 1.512 3.068 1.7.336.062.57-.172.818-.36-.585.765-1.081 1.59-1.578 2.433a3.285 3.285 0 0 1-1.096-.53c-2.118-1.513-3.477-3.836-4.237-6.408-.263-1.06-.555-2.058-.584-3.165v-.016Z" fill="#A19B95"/><path d="M38.689 43.23c.365.836.547 1.718.958 2.539.668 1.46 1.641 2.645 2.644 3.892.639.806 1.46 1.247 2.31 1.794.472.304.974.532 1.46.806.593.334 1.018.79 1.55 1.2.624.487 1.384.852 2.068 1.263-.198.7-.593 1.55-.41 2.265.151.776 1.504.867 1.762.137.304-.745.41-1.55.76-2.296.73-1.55 1.764-2.965 2.904-4.227 1.23-1.216 2.705-2.265 4.377-2.767.486-.136 1.064-.35 1.55-.182 1.186.35 2.144 1.475 2.706 2.539.046.289.076.578.122.867-.776-.122-1.627-.38-2.387-.137-.79.243-1.52.806-2.097 1.383-1.201 1.247-2.052 2.737-2.66 4.334-.35 1.018-.927 1.794-.7 2.934.122.821-.532 1.46-.957 2.098-.593.882-1.368 1.536-2.143 2.235-.502.487-1.034.928-1.642 1.277-.988.563-1.915 1.308-3.04 1.52-.608.122-1.353.229-1.96 0-.776-.319-1.353-1.018-1.779-1.717a20.835 20.835 0 0 1-1.52-3.163c-.38-.973-.623-1.976-1.034-2.95-.684-1.733-1.778-3.375-2.887-4.865-.335-.502-.593-.988-1.125-1.307-.852-.517-1.84-.867-2.782-1.171-.912-.304-1.824-.365-2.766-.471.076-.29.137-.578.228-.852.85-1.49 1.733-3.01 2.812-4.363.957-1.171 2.128-2.266 3.648-2.615h.03Z" fill="#403D9B"/><path d="M69.58 45.478c1.057.429 2.067.919 3.124 1.362a47.437 47.437 0 0 0 5.933 2.035c.694.153 1.388.337 2.083.55-.032.95-.063 1.913 0 2.861.142 1.026.442 2.005 1.104 2.846.127.214.253.444.363.658-.773.673-1.657 1.147-2.556 1.637-1.341.688-2.793 1.224-4.292 1.453-1.72.245-3.487 0-4.97-.918-.837-.504-1.358-1.361-1.91-2.126-.694-1.01-1.373-2.31-1.246-3.55.031-.566.094-1.116.157-1.682.395-1.73 1.215-3.642 2.21-5.126Z" fill="#F3D4B4"/><path d="M92.773 45.478c1.455.316 2.572 1.625 2.521 2.965.102 1.459-.812 2.918-1.641 4.122a16.32 16.32 0 0 1-2.098 0c.203-.873.643-1.685.829-2.558.17-.752.39-1.52.406-2.287.017-.737-.034-1.474 0-2.211l-.017-.03Z" fill="#5F559A"/><path d="M96.97 47.74c.633.975.833 2.023 1.133 3.1.166.64.2 1.31.433 1.936.067.218.316.276.516.392-.433.219-.883.379-1.332.554a33.597 33.597 0 0 0-2.415-.917c.516-.859 1.066-1.63 1.399-2.576.283-.8.266-1.674.3-2.503l-.034.014Z" fill="#428297"/><path d="M82.374 49.6c.92.097 1.812.323 2.733.468.526.065 1.052.065 1.578.146-.074.403-.088.79-.322 1.145-.38.58-.862 1.097-1.286 1.645-.555.646-.92 1.323-1.811 1.468-.526-.564-.804-1.322-.935-2.113-.146-.887-.249-1.871.043-2.742V49.6Z" fill="#FF785B"/><path d="M31.85 50.007c-.091.31-.152.62-.229.913.95.13 1.883.195 2.787.505.949.326 1.944.684 2.801 1.254.536.359.797.864 1.133 1.402-.428-.424-1.071-1.076-1.7-1.01-.58.146-1.102.667-1.576 1.026-.322-.326-.643-.62-1.102-.733-.797-.196-1.654-.391-2.48-.342-.43.016-.69.293-1.011.537.275-1.27.78-2.444 1.362-3.584l.016.032Zm31.298-.032c.503.956.696 1.959 1.051 2.978-.785.047-1.525-.141-2.31-.251-.474-.078-.873.25-1.214.564-.977.925-1.718 2.163-2.236 3.433-.34.8-.592 1.646-.962 2.445-.178.36-.4.784-.8.91-.37.156-.74-.189-1.051-.377-.208-1.176.34-1.96.68-3.025.593-1.662 1.422-3.198 2.592-4.467.563-.596 1.274-1.176 2.044-1.427.74-.25 1.57 0 2.324.141-.044-.297-.074-.595-.118-.893v-.031Z" fill="#1F2576"/><path d="M86.82 50.365h.24c-.225 1.154-.525 2.244-1.14 3.207-.329.506-.809 1.011-1.363 1.217-.465.157-.84-.032-1.245-.269.9-.142 1.275-.806 1.86-1.438.434-.537.929-1.026 1.318-1.61.225-.333.24-.727.33-1.122v.015Z" fill="#A8574A"/><path d="M88.623 50.083c.608-.153 1.186-.119 1.81-.05-.14 1.002-.546 2.04-1.077 2.89-.359.561-.968.646-1.545.8.171-.885.515-1.684.624-2.569.047-.357.094-.714.172-1.054l.016-.017Zm-20.967.655c-.061.566-.122 1.116-.153 1.681-.122 1.238.535 2.537 1.209 3.546.535.764 1.04 1.62 1.85 2.125 1.438.917 3.151 1.161 4.819.917 1.453-.23 2.86-.764 4.16-1.452.872-.49 1.728-.963 2.478-1.636-.122-.214-.23-.443-.352-.657.413.367.841.703 1.27 1.04-.995.657-2.065 1.115-3.136 1.665-1.759.918-3.686 1.697-5.629 2.11-1.147.183-2.279.367-3.441.351-.429-.015-.704.214-1.056.413a2.82 2.82 0 0 0-.367-1.04c-.352-.565-.795-1.07-1.055-1.696-.49-1.131-1.056-2.308-1.056-3.561.03-1.3.107-2.568.474-3.821l-.015.015Z" fill="#A19B95"/><path d="M62.03 53.028c.798.122 1.566.305 2.396.244.2.55.353 1.098.491 1.662.2.854.6 1.632.86 2.47.323 1.022.83 1.952 1.398 2.867.23.35.523.762.892.96.399.198 1.013.107 1.213-.32.123-.381.046-.747-.077-1.128.185.32.323.67.369 1.036.077.397 0 .854.415 1.083.706.366 1.705.229 2.473.213 2.227-.106 4.194-.792 6.267-1.524.37-.092.738-.153 1.091-.214-.215.32-.492.671-.599 1.052-.046.32.046.717.384.854.415.137.922 0 1.321-.076-.369.244-.783.305-1.198.427-.43.046-.384.762-.4 1.067.031 1.006.845 1.647 1.721 1.982.645.229 1.26.107 1.89-.107a51.588 51.588 0 0 0-4.286 2.44c-.63.412-1.29.777-1.967 1.098-1.613.747-3.103 1.524-4.823 1.966-1.413.397-2.858.351-4.317.245-2.596-.214-4.946-1.419-7.005-2.974-.676-.518-1.229-1.097-1.828-1.692-.69-.701-1.367-1.388-1.92-2.21-.246-.352-.476-.748-.768-1.068-.353-.534-1.321-.092-1.321.473-.061.64.384 1.28.722 1.799a22.827 22.827 0 0 0 4.055 4.36c1.644 1.266 3.426 2.302 5.438 2.867 1.367.427 2.75.472 4.179.579 1.382 0 2.795-.168 4.117-.625.921-.29 1.782-.732 2.703-1.022.476 1.678.983 3.34 1.46 5.001.46 1.647 1.305 3.08 2.027 4.712.384.9.891 1.738 1.321 2.607a5.24 5.24 0 0 1-1.812.686c-1.383.274-2.55.716-3.964.747-2.304.015-4.47.091-6.697-.61a34.416 34.416 0 0 1-7.113-3.14 184.661 184.661 0 0 0-4.347-2.684c-.184-.168-.353-.366-.522-.55.63-.426 1.29-.777 1.782-1.34.952-1.083 1.536-2.47 1.352-3.92-.093-.731-.277-1.676-.83-2.225-.322-.32-.676-.26-1.09-.244-.123.35-.2.701-.185 1.067-.108-.518-.2-.991-.63-1.357a8.35 8.35 0 0 0-1.981-1.25c-.953-.412-2.043-.564-3.073-.58-.983-.015-1.858.245-2.826.366-1.567.183-3.134.199-4.7.23-2.52.045-4.932 1.02-7.083 2.27-.63.336-1.213.718-1.735 1.205a6.94 6.94 0 0 1-.676-1.296c.4-.244.783-.472 1.198-.67 1.567-.748 3.088-1.54 4.532-2.516.368-.229.845-.58 1.305-.549.63.046 1.26.229 1.874.396 1.014.29 1.798.793 2.888.778 1.629.091 3.103-.473 4.455-1.342 1.03-.67 2.228-1.387 3.011-2.348.292-.335.292-.869-.03-1.189-.415-.32-.953-.107-1.398.046.783-.702 1.566-1.372 2.165-2.242.43-.64 1.076-1.28.968-2.104.323.168.707.504 1.09.366.416-.122.646-.533.83-.884.384-.762.646-1.586.999-2.378.538-1.235 1.29-2.44 2.32-3.34.353-.29.768-.625 1.26-.548l-.032.045Zm-30.504-.048c.795-.049 1.619.13 2.384.34.441.097.75.39 1.06.73-.913.778-1.884 1.475-2.826 2.205-.677.535-1.251 1.167-2.002 1.588-.161-1.507.148-2.853.413-4.312.309-.26.559-.519.97-.535v-.016Z" fill="#2A2C80"/><path d="M101.846 53.72c.432 1.456.684 2.996.907 4.52.015.321.134.592-.089.846-.565.203-1.16.27-1.755.254-.342-.864-.639-1.896-1.19-2.607l-.668-.914c.074-.22.134-.44.208-.677.892-.423 1.71-.998 2.587-1.421Z" fill="#63B2B7"/><path d="M91.932 54.865a8.672 8.672 0 0 1 2.24.135c1.105.255 1.968.824 2.922 1.408.333.225.696.21 1.075.21 0 .075 0 .15.015.225.03.51.045 1.004.287 1.484.606 1.274 1 2.668 1.196 4.061.303 2.488.091 5.051-.711 7.434-.333.914-.772 1.784-1.226 2.638-.772 1.424-1.802 2.683-2.937 3.822-.258.254-.56.464-.863.674-.394-2.128-.984-4.227-1.56-6.325-.302-1.184-.968-2.143-1.12-3.327.44-.21.924-.404 1.318-.704.575-.48.696-1.424.12-1.948-.696-.615-1.74-.765-2.633-.9-.97-.15-1.878-.045-2.831.09.454-.12.908-.255 1.377-.285.833-.06 1.62.135 2.438.165.56.045 1.105-.39 1.453-.78.575-.629.636-1.543.5-2.337-.167-.944-.94-1.739-1.938-1.798.197-.15.409-.315.53-.525.12-.36-.061-.84-.44-.974-.59-.225-1.332-.165-1.952-.15-1.226.03-2.438.225-3.633.434.408-.3.787-.629 1.195-.929.576-.344 1.166-.66 1.802-.884 1.09-.39 2.195-.84 3.36-.9l.016-.014Z" fill="#2A2C80"/><path d="M36.79 55.594c.779.822 1.375 1.843 1.924 2.817-.366.442-.748.853-1.221 1.204a154.417 154.417 0 0 1-4.597 3.183c-2.535 1.782-4.947 3.793-6.994 6.123-.656.762-1.405 1.69-1.588 2.696-.122.64.061 1.188.245 1.797-.932.183-1.863.183-2.795.153-.473 0-.962-.305-1.206-.701-.29-.548-.245-1.173-.046-1.736.55-1.386 1.496-2.483 2.474-3.595.84-.99 1.74-1.934 2.626-2.863 1.802-1.782 3.696-3.412 5.605-5.072 1.557-1.34 3.237-2.422 4.87-3.671.2-.122.459-.38.703-.32v-.015Z" fill="#C9CFCC"/><path d="M99.316 55.22c-.078.207-.14.414-.219.638l.703.86c-.5-.254-.953-.159-1.484-.031 0-.08 0-.16-.015-.24.28-.462.562-.908 1.015-1.211v-.016Z" fill="#346472"/><path d="M86.692 56.346c-.409.32-.788.674-1.197.995 1.212-.241 2.409-.434 3.636-.466.621-.016 1.363-.08 1.954.16.379.161.546.659.44 1.044-.137.225-.334.401-.53.562-1.591.353-3.136.128-4.682.674-1.257.433-2.5.93-3.666 1.573-.636.337-1.12.85-1.666 1.316-.41.096-.91.208-1.303.08-.333-.145-.424-.546-.379-.899.106-.401.379-.77.591-1.107-.364.08-.727.144-1.076.224 1.803-.93 3.636-1.781 5.394-2.792a55 55 0 0 1 2.514-1.364h-.03Z" fill="#1F2576"/><path d="M38.85 58.218c.857 1.4 1.2 2.937 1.806 4.428.327.807.779 1.568 1.059 2.405-2.164 1.674-4.717 3.013-7.192 4.185-1.9 1.065-3.892 1.917-5.9 2.754-1.37.579-2.755 1.05-4.234 1.218-.171-.609-.373-1.157-.249-1.796.203-1.004.965-1.933 1.619-2.694 2.086-2.328 4.546-4.337 7.13-6.117a157.43 157.43 0 0 0 4.685-3.181c.483-.335.872-.76 1.245-1.202h.031Z" fill="#8597A9"/><path d="M91.008 58.593c1.007.062 1.812.886 1.983 1.865.139.824.077 1.772-.512 2.425-.356.404-.913.855-1.487.808-.836-.03-1.642-.233-2.493-.17-.496.03-.945.17-1.41.295-1.518.341-2.881.994-4.26 1.663-.635.217-1.255.342-1.905.109-.883-.342-1.72-.98-1.735-2.021 0-.311-.047-1.042.403-1.088.418-.125.836-.187 1.208-.435.558-.451 1.053-.949 1.704-1.275 1.192-.622 2.478-1.104 3.748-1.523 1.596-.529 3.16-.296 4.787-.653h-.031Z" fill="#403D9B"/><path d="M103.277 60.846c.285.168.222.824.254 1.115 0 2.108.095 4.231-.159 6.324-.126 1.803-.348 3.606-.601 5.408-.269 1.375-.649 2.735-.966 4.11-.601 2.52-1.583 4.812-2.39 7.272-.143.443.206.489.506.703-.744.168-1.092.687-1.583 1.191-.49.565-1.029 1.07-1.535 1.604.031-.932.174-1.833.348-2.734.253-1.742.507-3.483.807-5.21.57-2.46 1.251-4.904 1.868-7.363.681-1.33 1.299-2.659 1.631-4.125.538-2.017.602-4.049.491-6.11-.048-.658-.174-1.284-.174-1.941.474-.107.997-.275 1.503-.245Z" fill="#63B2B7"/><path d="M87.937 65.713c.579.84.96 1.818 1.37 2.75 1.158 2.812 1.828 5.731 2.391 8.71.213 1.712.244 3.424.229 5.135 0 1.376-.016 2.812-.275 4.172-.213.871-.335 1.803-.685 2.629-.152.412-.335.764-.776.886-.503.122-1.081.107-1.553-.107-1.142-.474-2.071-1.376-2.985-2.185-1.386-1.238-2.3-2.934-3.243-4.524-.487-.825-.868-1.696-1.294-2.567-1.142-2.277-2.087-4.645-2.772-7.106-.228-.87-.64-1.772-.654-2.659.32-.351.822-.565 1.202-.825.244.184.472.352.579.642.487 1.13.837 2.338 1.233 3.515.26.748.549 1.482.792 2.23.579 2.033 1.584 3.959 2.62 5.792 1.217 2.048 2.588 4.111 4.202 5.868.578.581 1.05 1.162 1.858 1.437.182-1.085.152-2.14.152-3.24 0-1.604-.046-3.224-.198-4.829-.472-3.56-1.447-7.03-2.68-10.391-.518-1.528-1.157-2.995-1.706-4.508.518-.29 1.051-.565 1.615-.749.182-.03.365-.06.548-.076h.03Z" fill="#C9CFCC"/><path d="M87.413 65.713c-.572.2-1.113.464-1.64.757.542 1.53 1.207 3.014 1.733 4.559 1.237 3.4 2.242 6.923 2.722 10.508.17 1.623.216 3.246.2 4.884 0 1.097.032 2.179-.154 3.276-.82-.278-1.299-.865-1.886-1.453-1.64-1.777-3.032-3.863-4.269-5.934-1.067-1.854-2.072-3.802-2.66-5.857-.247-.757-.541-1.499-.804-2.256-.402-1.19-.758-2.41-1.253-3.554-.124-.294-.356-.464-.588-.65.743-.448 1.485-.911 2.228-1.36 1.422-.865 2.907-1.56 4.422-2.256a7.814 7.814 0 0 1 1.95-.649v-.015Z" fill="#8597A9"/><path d="M51.599 68.713c1.024.015 2.108.164 3.055.566.703.313 1.39.73 1.971 1.222.428.357.52.819.627 1.325.152.968.366 1.877 0 2.83-.306.715-.856 1.37-1.59 1.698-.748.358-1.45.775-2.23 1.058-1.054-.328-2.032-.656-3.178-.492-1.115.164-2.2.507-3.269.834-1.405.447-2.903.656-4.4.7-.932 0-1.772-.223-2.566-.714-2.032-1.281-3.346-3.128-4.675-5.05.52-.491 1.1-.849 1.726-1.177 2.139-1.206 4.538-2.174 7.043-2.219 1.574-.03 3.117-.03 4.675-.223.962-.12 1.833-.388 2.81-.358Z" fill="#403D9B"/><path d="M57.626 70.965c.44 0 .816-.06 1.16.243.587.53.783 1.487.88 2.215.197 1.442-.424 2.823-1.436 3.9-.522.561-1.224.91-1.894 1.335.18.182.36.364.555.546-1.143-.576-2.334-1.107-3.559-1.487.833-.288 1.584-.713 2.384-1.077.767-.334 1.371-1.017 1.698-1.73.408-.971.163-1.897 0-2.883 0-.364.065-.713.196-1.062h.016Z" fill="#1F2576"/><path d="M33.067 72.458c.434.762.806 1.539 1.334 2.24.837 1.127 1.814 2.163 2.822 3.168.868.868 1.876 1.57 2.993 2.087-.869-.183-1.551-.686-2.326-1.066a42.467 42.467 0 0 0-7.552-2.605c-1.055-.229-2.171-.64-3.257-.64-.294.35-.248 1.036-.356 1.478.062-.717.03-1.432.108-2.148 1.737-.594 3.458-1.25 5.102-2.057.372-.183.744-.35 1.147-.457h-.015Zm66.734.749c-.583 2.464-1.258 4.897-1.81 7.376-.291 1.729-.536 3.473-.782 5.217-.169.903-.306 1.821-.337 2.74-.675.566-1.334 1.086-1.917 1.729-.813.887-1.595 1.775-2.53 2.524-1.32 1.04-2.332 2.372-3.635 3.413-2.347 1.882-4.8 3.596-7.546 4.866-3.251 1.499-6.625 2.8-10.091 3.733-3.037.75-6.104 1.301-9.217 1.576-2.945.276-5.936.184-8.88.046a8.058 8.058 0 0 1-1.074-.153c.384.031.752 0 1.135-.046.43-.734.675-1.545 1.09-2.295.536-.995 1.257-1.851 1.701-2.892 1.304-1.53 2.807-2.923 4.325-4.239.66-.581 1.35-1.101 1.963-1.744-.674-.413-1.242-.199-1.87.184-1.15.75-2.286 1.56-3.313 2.478-1.703 1.485-3.39 3.092-4.77 4.882a34.93 34.93 0 0 0-2.577 3.412c-1.242-.26-2.469-.52-3.695-.841a17.21 17.21 0 0 1-1.258-.368c.245.031.506.046.751.061.445-.734.69-1.545 1.043-2.31.86-1.897 1.795-3.764 2.868-5.555 1.32-2.188 2.653-4.468 4.31-6.426.291-.368.628-.766.782-1.194.107-.306.015-.78-.322-.903-.261-.061-.552 0-.813.046a8.735 8.735 0 0 0 1.242-1.01c.307.123.66.245 1.012.245.414-.061.721-.505.736-.903-.015-.352-.322-.673-.582-.872-.552-.428-1.227-.75-1.84-1.071-2.01-1.04-4.05-2.066-6.028-3.168-.736-.413-1.487-.795-2.178-1.285.077-.138.154-.275.215-.413 1.426-.245 2.776-.75 4.187-1.025 1.227-.215 2.331.168 3.435.627 2.3 1.025 4.479 2.433 6.61 3.795 1.396.888 2.899 1.53 4.402 2.203 1.395.612 2.822 1.026 4.294 1.408 1.672.444 3.466.536 5.199.536 1.457.03 2.975-.383 4.417-.658 1.15-.23 2.178-.765 3.313-1.056.398.535.751 1.102 1.12 1.653.781 1.117 1.793 1.958 2.821 2.83 1.104.903 2.346 1.668 3.803 1.73.721.015 1.565-.046 2.194-.414.736-.413.981-1.3 1.35-2.02.413-.826.52-1.683.704-2.586.185-.887.246-1.774.369-2.662.153-1.454.015-2.953.076-4.407 0-.306.276-.49.476-.689.843-.688 1.58-1.453 2.361-2.218 1.15-1.148 1.918-2.48 2.746-3.856l.015-.031Z" fill="#428297"/><path d="M26.991 75.472c1.07 0 2.17.418 3.208.65a40.977 40.977 0 0 1 7.439 2.647c.764.386 1.436.897 2.291 1.083.642.185 1.283.386 1.94.51.703.217 1.314.604 1.91 1.022 2.978 2.104 6.094 3.713 9.287 5.447.473.263.932.556 1.39.835a8.715 8.715 0 0 1-1.238 1.021c-.336.232-.61.526-.885.851-.78.929-1.528 1.873-2.2 2.879-1.955 2.909-3.788 5.864-5.24 9.083-.473 1.052-.962 2.104-1.344 3.187-1.619-.851-3.207-1.439-4.674-2.568-1.16-.836-2.077-1.888-3.1-2.894-.703-.696-1.314-1.454-1.91-2.228-.962-1.269-1.894-2.553-2.688-3.946-.703-1.253-1.39-2.445-1.88-3.791-.427-1.223-.9-2.383-1.19-3.636-.291-1.223-.719-2.337-.902-3.575-.107-.805-.275-1.578-.412-2.383a13.292 13.292 0 0 0-.443-2.166c.106-.17.198-.34.26-.542.122-.449.06-1.13.35-1.501l.031.016Z" fill="#63B2B7"/><path d="M26.378 77.706c.213.705.335 1.425.442 2.145.122.781.305 1.563.412 2.36.168 1.225.61 2.328.9 3.539.29 1.256.762 2.405 1.19 3.6.488 1.333 1.159 2.513 1.876 3.754.793 1.379 1.723 2.65 2.684 3.907.595.781 1.22 1.532 1.907 2.206 1.021.996 1.937 2.038 3.096 2.865 1.464 1.118 3.035 1.701 4.667 2.543-.366 1.303-.96 2.605-1.16 3.953-.09.582.047.904.382 1.364-.076.888-.32 1.731-.366 2.604-.046 1.073 0 2.145.183 3.203.198 1.286.244 2.466.58 3.677.137.505.32.995.457 1.501.183.659.23 1.364.366 2.038.275.306.489.597.946.551.564.062 1.007-.49 1.007-1.011.045-1.287.213-2.543.564-3.769.26-1.409.732-2.727 1.22-4.06.64-1.624 1.48-3.248 1.907-4.949.213-.659.518-1.302.808-1.93-.06.459-.046.934-.107 1.394-.29 1.777-.701 3.539-.9 5.316-.243 1.808-.61 3.693-.594 5.547 0 1.287 0 2.558.106 3.83.077 1.992.153 3.984.199 5.975 0 .858.366 1.624.9 2.283.152.169.305.337.457.521-.107.123-.229.261-.32.398-.168.246-.336.491-.366.797-.168 1.348.107 2.758.152 4.137.077 1.593.351 3.156.473 4.749.122 1.41.397 2.789.534 4.183.168 1.639.397 3.248.854 4.842-.122.046-.229.091-.35.137-1.19-.275-2.395-.337-3.585-.597-1.907-.276-3.813-.582-5.674-1.011-2.166-.414-4.286-1.165-6.421-1.732a45.028 45.028 0 0 1-7.535-3.156c-1.372-.689-2.608-1.654-3.874-2.528-.26-.199-.595-.383-.671-.72-.29-.888-.32-1.869-.534-2.788-.229-.981-.305-1.977-.457-2.973-.26-1.501-.351-3.033-.443-4.55-.274-1.532-.046-3.08-.213-4.581-.122-.766-.03-1.486-.443-2.16-.38-.674-.594-1.394-.915-2.099-.61-1.333-1.205-2.62-1.662-3.999-.397-1.272-.809-2.543-1.098-3.83-.61-2.329-1.068-4.627-.732-7.048.045-.95.244-1.777-.245-2.651 0-.291.016-.597.046-.888.26-.215.534-.353.626-.705.274-.95.335-1.992.472-2.957.077-.644.244-1.256.366-1.9.29-1.593.778-3.156 1.114-4.734.427-1.655.823-3.31 1.296-4.934.305-1.225.793-2.405 1.19-3.6.396-1.118.778-2.344 1.373-3.37.442-.751.778-1.502 1.327-2.192.64-.766.96-1.7 1.616-2.451l-.03-.046Z" fill="#F3D4B4"/><path d="M45.75 80.343c-.078.133-.14.267-.218.4.701.476 1.465.847 2.213 1.247 2.01 1.084 4.082 2.063 6.123 3.073.623.311 1.31.623 1.87 1.038.265.208.577.52.592.847 0 .385-.327.816-.748.875-.343 0-.701-.119-1.028-.237-.468-.267-.935-.564-1.418-.802-3.257-1.662-6.435-3.206-9.474-5.224-.607-.416-1.23-.787-1.947-.98 1.34.09 2.711 0 4.035-.252v.015Z" fill="#316B8B"/><path d="M20.729 83.327c-.487 1.583-1.141 3.104-1.613 4.686-.547 1.951-1.02 3.918-1.506 5.885-.608 2.658-1.4 5.47-1.521 8.204-.046.753-.107 1.46.137 2.182.274.092.532.169.806.261-.03.292-.06.599-.046.891-.289.062-.593.092-.852.2-.395.261-.365.952-.425 1.367-.077 1.245-.305 2.459-.244 3.703.122 2.12.472 4.194 1.035 6.238.213.86.395 1.721.654 2.566.334 1.106.79 2.105 1.232 3.18.335.799.608 1.567 1.095 2.289.213.338.502.661.533 1.076.106 1.121.167 2.258.106 3.395 0 .4-.228.646-.486.922-.655.661-1.248 1.306-2.115 1.66-.959.384-2.023.706-3.058.752-1.354.046-2.693-.061-3.97-.537-.35-.169-.67-.369-1.005-.554.578-.522 1.263-1.044 1.72-1.674.593-.83.927-1.844.973-2.858.06-1.659 0-3.303-.259-4.947-.136-1.368-.35-2.704-.578-4.056-.167-1.614-.456-3.211-.547-4.84-.092-1.536-.457-3.042-.518-4.594-.106-1.859-.41-3.687-.38-5.546 0-1.767-.06-3.534.091-5.301.213-1.72.411-3.472.837-5.147.244-1.076.73-2.074 1.004-3.15 1.202-1.352 2.662-2.473 4.138-3.472 1.46-1.06 3.058-2.15 4.762-2.78Z" fill="#428297"/><path d="M99.892 85.95c.805.554 1.712.903 2.532 1.427a23.238 23.238 0 0 0-1.976 2.01 9.566 9.566 0 0 0-1.551 2.184c-.366-.218-.747-.466-1.128-.67-.307-.174-.644-.32-.907-.538-.16-.54.044-1.209.161-1.748.469-.51.966-.99 1.42-1.529.454-.48.776-.976 1.463-1.136h-.014Z" fill="#F3D4B4"/><path d="M104.653 88.213c.93.366 1.8.917 2.654 1.42 1.465.857 2.686 1.911 4.074 2.935 1.037.841 2.09 1.682 3.082 2.568 1.281 1.238 2.624 2.507 3.753 3.898 1.937 2.323 4.043 4.814 5.492 7.473 1.221 2.507 1.968 5.319 1.938 8.116 0 1.467.107 3.103-.336 4.524-.412 1.284-.763 2.583-1.22 3.851-.153.413-.153.841.152 1.177.397.23.839.153 1.266.138-.427.168-.869.183-1.312.199a5.757 5.757 0 0 0-.244.519c-.442.077-.839.107-1.144.474-1.068 1.192-1.892 2.812-3.067 3.959-1.174 1.146-2.425 2.2-3.798 3.087-2.091 1.406-4.211 2.782-6.423 3.989-1.877-.076-3.814-.581-5.31-1.788-.976-.795-1.846-1.819-2.349-2.996a17.898 17.898 0 0 1-.87-2.644c-.229-.917-.305-1.849-.091-2.782.503-2.078 1.205-4.096 2.258-5.96.961-1.743 2.075-3.653 3.6-4.952a29.221 29.221 0 0 1 3.83-2.889c.717-.474 1.434-.779 2.288-.917l.137-.031c.229-.045.489-.091.702-.213.244-.352.26-.902.26-1.33-.016-1.009-.489-1.788-.916-2.66-.458-.932-.992-1.803-1.526-2.69-1.037-1.635-2.303-3.133-3.524-4.63-1.937-2.278-3.905-4.402-6.316-6.206-.473-.382-.992-.565-1.144-1.207.564-.75 1.098-1.528 1.739-2.216.717-.78 1.434-1.681 2.334-2.232l.031.016Z" fill="#63B2B7"/><path d="M54.09 88.6c.336.123.428.6.321.907-.153.446-.506.846-.782 1.199-1.64 1.968-2.99 4.258-4.308 6.456-1.09 1.799-2.01 3.674-2.868 5.58-.352.784-.598 1.583-1.042 2.321a12.67 12.67 0 0 1-.752-.061c-.368-.123-.72-.308-1.073-.461.383-1.092.874-2.122 1.35-3.167 1.44-3.197 3.296-6.133 5.259-9.023.674-1 1.425-1.937 2.208-2.86.26-.307.552-.599.889-.845.26-.046.552-.107.813-.046h-.016Z" fill="#316B8B"/><path d="M96.773 88.635c-.121.566-.32 1.27-.167 1.835.29.23.625.382.945.566-.427-.138-1.037-.306-1.448-.061-.305.137-.259.52-.198.795.274.672 1.173 1.055 1.554 1.636.03.198.03.397.03.596-1.523 3.043-2.788 6.376-3.26 9.754-.305 1.3-.396 2.63-.549 3.96-.076 1.269-.06 2.554-.045 3.823-.03 2.156.548 4.342 1.401 6.299.397.948.976 1.789 1.448 2.706-.183.367-.381.719-.61 1.07-.761 1.208-1.37 2.569-1.965 3.884-.427.963-.701 1.972-.975 2.997-.275 1.146-.61 2.186-.64 3.379-.03 1.238-.046 2.553.487 3.684.32.719.823 1.285 1.387 1.835.564.566 1.097 1.147 1.722 1.636.457.443.944.795.823 1.514-.351 2.476-1.128 4.862-1.905 7.231-.122.306-.26.78-.61.918-.502.229-1.036.397-1.554.596-1.676.474-3.367.887-5.074 1.177-1.447.321-2.91.398-4.357.704-1.448.183-2.91.321-4.358.504-1.265.061-2.499.245-3.748.444-1.554.137-3.108.275-4.663.336-.624.03-1.234.168-1.874.168-2.33.061-4.677.031-7.008 0-.823 0-1.616 0-2.438-.122-1.25-.138-2.5-.23-3.733-.413a32.293 32.293 0 0 0-2.057-.291c.274-.443.594-.81.548-1.36-.091-.964-.335-1.896-.487-2.859-.458-3.012-.976-6.101-1.235-9.159-.106-1.269-.335-2.507-.304-3.807-.016-.535.045-1.208-.183-1.697-.244-.351-.838-.183-1.204-.153.107-.137.213-.26.32-.397a16.257 16.257 0 0 1-.457-.52c.229.061.457.122.686.153a.75.75 0 0 0 .7-.658c.077-.55-.076-1.162-.167-1.712-.26-1.407-.152-2.89-.229-4.342-.091-1.988-.198-3.96-.152-5.963.061-1.972.396-3.853.655-5.81.168-1.055.335-2.11.503-3.18.213-1.315.579-2.584.868-3.884 2.926.138 5.897.23 8.823-.045 3.093-.276 6.155-.826 9.157-1.575 3.443-.933 6.795-2.232 10.025-3.731 2.713-1.269 5.166-2.966 7.497-4.862 1.295-1.04 2.3-2.37 3.611-3.41.945-.748 1.722-1.635 2.514-2.522.58-.642 1.234-1.162 1.905-1.728l.045.061Z" fill="#A19B95"/><path d="M11.745 89.323c-.27 1.077-.732 2.077-.986 3.154-.403 1.677-.612 3.43-.821 5.154-.15 1.753-.075 3.538-.09 5.307-.03 1.877.284 3.692.373 5.554.075 1.554.419 3.046.508 4.6.09 1.63.374 3.215.538 4.846.209 1.353.418 2.692.567 4.061.24 1.646.314 3.292.254 4.954a5.4 5.4 0 0 1-.956 2.861c-.448.631-1.12 1.138-1.687 1.677.328.2.642.4.986.554-1.285-.323-2.48-1.077-3.57-1.831 1.315-.138 2.51-1.046 3.032-2.308.313-.846.194-1.923.209-2.815.045-1.908-.329-3.846-.582-5.769-.135-1-.24-2-.374-3.015-.179-1.369-.164-2.754-.358-4.123a56.675 56.675 0 0 1-.403-3.569c-.12-2.2-.3-4.4-.419-6.615-.044-1.046.105-2.031.135-3.062.045-1.661.194-3.307.552-4.923.075-.369.03-.569-.134-.907.597-.877 1.3-1.616 1.956-2.431a17.7 17.7 0 0 1 1.255-1.354h.015Z" fill="#316B8B"/><path d="M97.759 91.02c.4.229.784.507 1.184.752.03.262.077.524.108.786-.231.245-.43.49-.662.736-.261.278-.507.556-.692.9 0-.213 0-.442-.03-.638-.385-.622-1.293-1.03-1.57-1.75-.06-.295-.107-.704.2-.852.416-.261 1.031-.081 1.462.066Z" fill="#777F89"/><path d="M98.955 92.696c.243.12.472.285.715.375.274.015.548-.12.791-.225.153.63.67.81 1.142 1.185 2.404 1.769 4.367 3.852 6.299 6.086 1.217 1.469 2.48 2.939 3.515 4.543-.076.27-.122.599-.289.839-.289.3-.761.405-1.141.225-.381-.18-.685-.569-.944-.884-2.084-2.849-4.397-5.562-7.014-7.931-.761-.63-1.507-1.394-2.374-1.874-.183.135-.35.285-.517.435.213-.51.426-1.185.228-1.724-.228-.465-.624-.36-1.065-.375.228-.21.441-.45.654-.675Z" fill="#316B8B"/><path d="M8.542 93.445c.174.323.221.539.142.908-.364 1.615-.538 3.26-.585 4.922-.032 1.03-.19 2.03-.143 3.061.127 2.199.317 4.399.443 6.614.08 1.2.237 2.384.427 3.568.206 1.369.19 2.754.38 4.123.142.999.253 1.999.396 3.014.253 1.923.648 3.861.617 5.768-.016.893.126 1.969-.222 2.815-.538 1.262-1.804 2.154-3.212 2.308-2.167-1.646-4.097-3.6-5.616-5.845-.728-1.2-1.33-2.508-1.63-3.877-.253-1.076-.585-2.03-.68-3.091-.08-.877-.238-1.738-.238-2.615-.063-1.969.586-3.984 1.124-5.876.443-1.661 1.186-3.276 1.898-4.86.697-1.569 1.598-3 2.5-4.446 1.392-2.215 2.816-4.399 4.414-6.49h-.015Z" fill="#63B2B7"/><path d="M61.953 95.153c-.595.63-1.265 1.152-1.905 1.752-1.49 1.32-2.933 2.719-4.198 4.255-1.191 1.045-2.085 2.35-3.171 3.502-.462.492-.82 1.045-1.176 1.613-.313.446-.61.876-.834 1.383-.283.63-.58 1.275-.789 1.936-.417 1.705-1.22 3.333-1.86 4.962-.477 1.336-.939 2.657-1.192 4.071-.342 1.244-.506 2.504-.55 3.779 0 .522-.432 1.075-.983 1.014-.447.03-.655-.262-.923-.553-.164-2.12.328-4.025.819-6.053.327-1.214.7-2.397 1.19-3.549 1.013-2.412 2.085-4.839 3.41-7.097.774-1.198 1.578-2.335 2.5-3.426 1.34-1.797 2.978-3.41 4.63-4.9.998-.922 2.1-1.736 3.216-2.489.595-.384 1.161-.6 1.816-.184v-.016Z" fill="#000"/><path d="M99.563 94.943c.877.492 1.603 1.26 2.358 1.92 2.601 2.428 4.898 5.209 6.97 8.129.257.338.559.722.937.906.378.185.846.077 1.134-.23.166-.246.211-.584.287-.861.529.892 1.058 1.767 1.512 2.705.423.875.876 1.659.907 2.673 0 .43 0 .968-.257 1.337-.197.123-.469.169-.696.215.318-.154.62-.323.771-.661.076-.276.061-.568-.181-.737-.499-.385-1.21-.4-1.814-.338-1.043.122-2.056.276-3.039.66-1.179.461-2.298.937-3.356 1.644-1.905 1.275-3.719 2.628-5.276 4.333-.74.707-1.254 1.613-2.025 2.289-1.18-1.997-1.92-4.24-2.087-6.576-.075-2.012 0-4.01.212-6.007.12-.968.363-1.921.484-2.904.272-1.89.952-3.565 1.511-5.378.288-.921.65-1.797 1.104-2.642a7.17 7.17 0 0 1 .514-.446l.03-.03Z" fill="#428297"/><path d="M55.943 100.939c-.447 1.132-1.186 2.034-1.71 3.1-.416.803-.662 1.672-1.093 2.459-.385.049-.755.082-1.14.049-.185-.049-.354-.098-.54-.147.37-.607.74-1.197 1.218-1.722 1.124-1.23 2.033-2.623 3.28-3.739h-.015Z" fill="#316B8B"/><path d="M43.607 104.703c.352.151.675.332 1.027.453.396.136.793.257 1.204.363-.162.03-.323.061-.5.106-.513 1.028-.704 2.253-1.041 3.356-.103.303-.235.666-.5.847-.293.091-.63.076-.939.106-.322-.454-.455-.771-.366-1.346.19-1.33.763-2.6 1.115-3.9v.015Z" fill="#777F89"/><path d="M45.41 105.542a5.22 5.22 0 0 1 .516-.105c1.215.317 2.43.573 3.66.83-1.352 2.219-2.46 4.589-3.478 6.974a23.691 23.691 0 0 0-1.214 3.487c-.502 1.992-1.002 3.864-.835 5.947-.137-.679-.183-1.359-.365-2.008-.137-.498-.334-.981-.455-1.479-.334-1.192-.38-2.355-.577-3.623a15.657 15.657 0 0 1-.182-3.155c.045-.875.288-1.705.364-2.566.319-.015.668 0 .972-.105.273-.182.425-.559.516-.846.349-1.102.546-2.324 1.078-3.351Z" fill="#A19B95"/><path d="M51.335 106.562c.185.045.355.09.54.135.356.076.71.121 1.081.151-.293 1.282-.664 2.533-.88 3.83-.17 1.04-.355 2.081-.51 3.136-.262 1.93-.601 3.785-.663 5.73-.047 1.976.062 3.921.154 5.881.077 1.432-.03 2.895.232 4.282.092.543.247 1.131.17 1.689-.047.347-.356.618-.71.648-.232-.015-.464-.09-.695-.15-.54-.649-.911-1.403-.911-2.247-.031-1.96-.124-3.92-.2-5.881-.109-1.251-.109-2.503-.109-3.769 0-1.825.355-3.68.602-5.459.185-1.764.602-3.498.911-5.232.062-.453.046-.92.108-1.372.232-.498.54-.92.865-1.357l.015-.015Z" fill="#777F89"/><path d="M112.889 111.823a5.427 5.427 0 0 0-2.284.915 29.159 29.159 0 0 0-3.822 2.882c-1.522 1.296-2.634 3.202-3.593 4.94-1.051 1.86-1.751 3.873-2.253 5.946-.214.93-.137 1.86.091 2.775.228.9.502 1.784.868 2.638.502 1.159 1.355 2.195 2.345 2.988 1.477 1.205 3.425 1.708 5.298 1.784-1.416.763-2.817 1.479-4.415 1.784-1.112.275-2.223.229-3.365.305-1.31.061-2.619-.168-3.776-.823-.853-.458-1.416-1.174-2.101-1.845-.503-.519-.99-.961-1.157-1.693-.29-1.357-.183-2.805.152-4.132.35-1.418.715-2.927 1.355-4.269.472-1.006 1.005-1.982 1.553-2.958 2.573-4.391 6.349-8.02 10.947-10.215 1.31-.519 2.756-1.052 4.187-1.037l-.03.015Z" fill="#428297"/></g><defs><linearGradient id="c" x1="64" y1="0" x2="64" y2="128" gradientUnits="userSpaceOnUse"><stop stop-color="#5D5DF7" stop-opacity=".5"/><stop offset="1" stop-color="#5D5DF7"/></linearGradient><filter id="a" x="0" y="-10" width="128" height="138" filterUnits="userSpaceOnUse" color-interpolation-filters="sRGB"><feFlood flood-opacity="0" result="BackgroundImageFix"/><feBlend in="SourceGraphic" in2="BackgroundImageFix" result="shape"/><feColorMatrix in="SourceAlpha" values="0 0 0 0 0 0 0 0 0 0 0 0 0 0 0 0 0 0 127 0" result="hardAlpha"/><feOffset dy="-10"/><feGaussianBlur stdDeviation="12.5"/><feComposite in2="hardAlpha" operator="arithmetic" k2="-1" k3="1"/><feColorMatrix values="0 0 0 0 0 0 0 0 0 0 0 0 0 0 0 0 0 0 0.15 0"/><feBlend in2="shape" result="effect1_innerShadow_878_10535"/><feColorMatrix in="SourceAlpha" values="0 0 0 0 0 0 0 0 0 0 0 0 0 0 0 0 0 0 127 0" result="hardAlpha"/><feOffset dy="-2"/><feGaussianBlur stdDeviation="2.5"/><feComposite in2="hardAlpha" operator="arithmetic" k2="-1" k3="1"/><feColorMatrix values="0 0 0 0 0 0 0 0 0 0 0 0 0 0 0 0 0 0 0.15 0"/><feBlend in2="effect1_innerShadow_878_10535" result="effect2_innerShadow_878_10535"/></filter></defs></svg>
