<svg width="1080" height="1080" viewBox="0 0 1080 1080" fill="none" xmlns="http://www.w3.org/2000/svg">
<rect width="1080" height="1080" rx="540" fill="black"/>
<path d="M723.41 596.808L869.313 381.13C870.298 379.552 870.864 377.748 870.959 375.89C871.053 374.032 870.672 372.18 869.851 370.511C869.03 368.841 867.797 367.409 866.269 366.349C864.74 365.289 862.967 364.637 861.116 364.455L573.135 333.839L723.41 596.808Z" fill="#A2A3A5"/>
<path d="M860.598 458.207L757.592 627.415L863.604 690.834C864.434 691.38 865.396 691.69 866.389 691.731C867.382 691.771 868.367 691.54 869.238 691.062C870.109 690.584 870.833 689.877 871.333 689.018C871.833 688.159 872.089 687.18 872.074 686.186L872.074 460.94C872.253 460.186 872.283 459.405 872.16 458.64C872.037 457.874 871.765 457.141 871.359 456.481C870.954 455.821 870.422 455.247 869.794 454.793C869.167 454.339 868.456 454.013 867.702 453.833C866.949 453.654 866.167 453.624 865.403 453.747C864.638 453.87 863.905 454.142 863.245 454.548C862.585 454.954 862.012 455.486 861.558 456.114C861.104 456.742 860.778 457.453 860.598 458.207Z" fill="white"/>
<path d="M845.821 308.408L576.693 187.038C575.011 186.247 573.155 185.899 571.3 186.025C569.446 186.152 567.655 186.75 566.096 187.763C564.537 188.775 563.261 190.169 562.391 191.812C561.52 193.455 561.082 195.293 561.119 197.152V287.906L842.543 318.796C843.877 319.093 845.275 318.879 846.46 318.196C847.644 317.513 848.53 316.41 848.942 315.106C849.353 313.801 849.261 312.39 848.684 311.15C848.106 309.91 847.085 308.932 845.821 308.408Z" fill="white"/>
<path d="M733.26 665.139L623.969 862.776C622.774 864.866 622.282 867.286 622.569 869.677C622.855 872.068 623.904 874.304 625.559 876.052C627.215 877.8 629.389 878.969 631.76 879.384C634.131 879.799 636.573 879.439 638.724 878.357L847.469 741.679C848.26 741.188 848.912 740.504 849.365 739.691C849.817 738.878 850.055 737.962 850.055 737.031C850.055 736.101 849.817 735.185 849.365 734.372C848.912 733.559 848.26 732.875 847.469 732.384L733.26 665.139Z" fill="white"/>
<path d="M539.011 649.556H387.917L520.159 882.456C522.139 885.678 524.912 888.339 528.212 890.185C531.512 892.031 535.23 893 539.011 893C542.792 893 546.51 892.031 549.81 890.185C553.111 888.339 555.883 885.678 557.864 882.456L690.105 649.556H539.011Z" fill="url(#paint0_linear_810_8)"/>
<path d="M215.499 690.834L320.418 627.141L217.412 458.207C216.72 457.246 215.747 456.522 214.628 456.136C213.509 455.749 212.298 455.719 211.161 456.048C210.023 456.378 209.016 457.051 208.276 457.976C207.536 458.9 207.101 460.031 207.029 461.214V686.186C207.014 687.18 207.27 688.159 207.77 689.018C208.27 689.877 208.994 690.584 209.865 691.062C210.736 691.54 211.721 691.771 212.714 691.731C213.706 691.69 214.669 691.38 215.499 690.834Z" fill="white"/>
<path d="M344.75 665.143L231.907 731.569C231.116 732.059 230.464 732.743 230.011 733.556C229.559 734.37 229.321 735.285 229.321 736.216C229.321 737.147 229.559 738.062 230.011 738.875C230.464 739.688 231.116 740.373 231.907 740.863L440.652 877.541C442.803 878.623 445.245 878.983 447.616 878.568C449.987 878.153 452.161 876.985 453.817 875.236C455.472 873.488 456.521 871.252 456.807 868.861C457.093 866.47 456.602 864.05 455.406 861.96L346.116 664.323L344.75 665.143Z" fill="white"/>
<path d="M235.426 318.796L516.849 287.906V197.152C516.886 195.293 516.449 193.455 515.578 191.812C514.707 190.169 513.432 188.775 511.873 187.763C510.314 186.75 508.523 186.152 506.668 186.025C504.814 185.899 502.958 186.247 501.275 187.038L232.147 308.408C230.884 308.932 229.863 309.91 229.285 311.15C228.707 312.39 228.615 313.801 229.027 315.106C229.439 316.41 230.325 317.513 231.509 318.196C232.694 318.879 234.091 319.093 235.426 318.796Z" fill="white"/>
<path d="M354.561 596.808L504.836 333.839L216.855 364.455C215.004 364.637 213.231 365.289 211.702 366.349C210.174 367.409 208.941 368.841 208.12 370.511C207.3 372.18 206.918 374.032 207.012 375.89C207.106 377.748 207.673 379.552 208.658 381.13L354.561 596.808Z" fill="url(#paint1_linear_810_8)"/>
<defs>
<linearGradient id="paint0_linear_810_8" x1="539.011" y1="893" x2="539.011" y2="649.556" gradientUnits="userSpaceOnUse">
<stop stop-color="#AFB0B1"/>
<stop offset="1" stop-color="#9B9C9E"/>
</linearGradient>
<linearGradient id="paint1_linear_810_8" x1="355.917" y1="596.808" x2="355.917" y2="333.839" gradientUnits="userSpaceOnUse">
<stop stop-color="#AFB0B1"/>
<stop offset="1" stop-color="#9B9C9E"/>
</linearGradient>
</defs>
</svg>
