<svg xmlns="http://www.w3.org/2000/svg" viewBox="0 0 400 210"><path fill="#020400" d="M0 0h400v210H0z"/><path fill="#333048" d="m200 38 1 1 6 .938c13.248 2.768 29.457 12.151 37.555 23.18 1.132 1.944 1.132 1.944 2.445 4.882l-1 1 2 1.875C250 73 250 73 250 75l4 2-1 4-2-2 .5 2.875c.03 5.054-3.19 8.165-6.262 11.89-2.257 2.254-4.44 3.726-7.238 5.235l.879 1.754q1.05 2.102 2.086 4.21l.972 1.974 1.043 2.117c1.054 2.1 1.054 2.1 2.77 4.507 1.677 3.27 1.523 5.817 1.25 9.438l-1 2c4.018.841 7.018 1.054 11 0l1.313 2.438c1.492 2.84 1.492 2.84 4.687 3.562-2.375 9.026-7.749 16.043-13.938 22.813-.49.538-.979 1.077-1.483 1.633-4.802 5.102-10.369 9.276-16.579 12.554h-3l-1-6v6h-3v-9h-3l1 2c.579 6.248.579 6.248-1.875 9.438C218 172 218 172 216 172v2c-17.251 4.645-37.251 2.538-53.099-5.86-7.641-4.476-21.096-13.349-23.464-22.257L139 144c-1.608-1.332-1.608-1.332-3.563-2.25L132 140l.125-2.813c.146-3.345.146-3.345-2.125-6.187a359 359 0 0 1-1-7 377 377 0 0 0-2-7c-2.53-10.653-1.327-21.2 1.25-31.688l.62-2.572c1.272-4.804 2.715-8.004 6.13-11.74l1.375-2.813C139.54 61.98 143.898 56.728 149 52l1.48-1.426C155.44 46.015 161.011 43.02 167 40l2.32-1.266c9.674-4.923 20.404-2.887 30.68-.734"/><path fill="#AD78ED" d="M209.918 68.684c2.08.003 4.158-.02 6.238-.045 11.429-.054 24.419.994 33.516 8.795C251 79 251 79 251.688 82.063c-1.032 5.909-4.5 9.756-8.688 13.937-2.77 1.797-2.77 1.797-5 3l.879 1.754q1.05 2.102 2.086 4.21l.972 1.974 1.043 2.117c1.054 2.1 1.054 2.1 2.77 4.508 1.677 3.269 1.523 5.816 1.25 9.437l-1 2c4.018.841 7.018 1.054 11 0l1.313 2.438c1.492 2.84 1.492 2.84 4.687 3.562-2.375 9.026-7.749 16.043-13.938 22.813-.49.538-.979 1.077-1.483 1.633-4.802 5.102-10.369 9.276-16.579 12.554h-3l-.113-2.23c-.477-7.346-.477-7.346-3.887-13.77v-2l-5-2 3-6-1.484.875c-6.147 3.052-11.95 3.622-18.703 3.75l-2.591.105c-6.719-.01-9.573-2.116-14.222-6.73a110 110 0 0 0-5.063-3.25C154.084 120.609 154.084 120.609 151 108c-.752-4.596-.1-7.346 2.25-11.25 6.424-8.858 15.036-15.753 24.375-21.312 2.357-1.346 2.357-1.346 4.195-2.955 7.495-5.1 19.365-3.826 28.098-3.799"/><path fill="#2F2E43" d="M150 142h6v2l4 1-1 2 6-1v2l1.793.367c4.245.9 8.231 1.838 12.207 3.633l2-2c3.625-.125 3.625-.125 7 0l1 4h7l-4-7 1.725-.136c2.614-.213 5.225-.445 7.838-.677l2.712-.212c5.543-.508 9.7-1.614 14.725-3.975h3l-3 6 2.25.563c3.754 1.962 5.325 4.487 6.75 8.437-.25 2.563-.25 2.563-1 5-.038 2-.046 4 0 6h-3v-9h-3l1 2c.579 6.248.579 6.248-1.875 9.438C218 172 218 172 216 172v2c-17.253 4.645-37.25 2.537-53.1-5.86-6.312-3.698-11.663-8.369-16.9-13.452l-1.875-1.815c-1.688-1.736-1.688-1.736-4.125-4.873.348-2.196.348-2.196 1-4l2.438 1.438c4.231 1.856 7.994 2.268 12.562 2.562-1.964-1.506-3.783-2.891-6-4z"/><path fill="#AD7AEC" d="m244 114 3 2c.438 6.125.438 6.125-1 9 4.018.841 7.018 1.054 11 0l1.313 2.438c1.492 2.84 1.492 2.84 4.687 3.562-2.375 9.026-7.749 16.043-13.938 22.813-.49.538-.979 1.077-1.483 1.633-4.802 5.102-10.369 9.276-16.579 12.554h-3l-.113-2.23c-.477-7.346-.477-7.346-3.887-13.77v-2l-5-2 1-2h3l.375-1.75c.625-2.25.625-2.25 1.637-4.098 1.098-2.392 1.22-4.228 1.425-6.84 1.11-6.162 4.86-8.658 9.739-12.207 2.89-2.155 5.332-4.505 7.824-7.105"/><path fill="#48B5E4" d="M172.664 108.637c4.16.453 7.141 2.152 10.711 4.175C198.945 121 215.783 120.627 233 121c-1 3-1 3-4 5-2.046.259-2.046.259-4.395.266l-2.628.011-2.79-.027-2.838-.012A128 128 0 0 1 194 124l3.445.621c9.53 1.677 18.877 2.928 28.555 3.379v4c-19.898.55-40.81.023-56.488-13.938-1.885-2.57-1.98-3.94-1.512-7.062 2-2 2-2 4.664-2.363"/><path fill="#C7AEDE" d="M212.75 68.875q2.23.016 4.46.027 5.396.034 10.79.098c-2.398 2.398-3.333 2.343-6.625 2.625l-2.477.227L217 72v2c3.427 1.142 4.357 1.171 7.813.25 7.996-1.207 17.05 3.43 24.187 6.75v3h-8l-.813-1.875C239.044 79.7 239.044 79.7 236 78c-1.952-.315-1.952-.315-4-.25l-2.063-.016c-2.261.167-2.261.167-4.937 2.266-.733 3.066-.733 3.066-1 6h5v1h-14v-2h-13l-2-7c-5.952-.447-5.952-.447-11.5 1.313-1.731 1.724-1.731 1.724-2.5 4.687h-7c4.154-8.059 4.154-8.059 8.813-10L191 73c-3.867.537-5.966 1.593-9 4h-2v2c-3.135 1.858-5.375 2.201-9 2a505 505 0 0 1 5-4l1.691-1.531c9.677-8.243 23.04-6.737 35.059-6.594"/><path fill="#24273F" d="M149 75h2c-1.606 4.243-3.577 8.27-5.625 12.313l-.984 1.955A2995 2995 0 0 1 142 94h-2l-.184 1.863-.254 2.45c-.08.8-.162 1.6-.246 2.425C139 103 139 103 138 106c.043 1.941.043 1.941.34 4.012l.283 2.295.315 2.38.302 2.417q.373 2.949.76 5.896h-3l-2-12h-2l.563-3.438L134 104l-1-1 .035 3.613.028 4.7.025 2.38.01 2.295.016 2.11C133 120 133 120 132 123h4l1 5h2l1-3c2 1.25 2 1.25 4 3v4l4 1-2 4h-3l1 3c-5.75-1.875-5.75-1.875-8-3l2 6c-4.875-1.75-4.875-1.75-6-4l-.5-3.563c-.125-3.26-.125-3.26-1.5-4.437l-.438-3.125c-.548-3.778-1.48-7.22-2.562-10.875-3.36-14.147.097-27.395 4-41h1l1 10 1-2h2v8l5-1 1-4h2l.25-2.063c.973-3.812 2.708-6.578 4.75-9.937"/><path fill="#2D2D45" d="M150 142h6v2l4 1-1 2 6-1v2l1.793.367c4.245.9 8.231 1.838 12.207 3.633l2-2c3.625-.125 3.625-.125 7 0l1 4h7l-4-7 1.725-.136c2.614-.213 5.225-.445 7.838-.677l2.712-.212c5.543-.508 9.7-1.614 14.725-3.975h3c-2.711 5.616-5.145 7.803-10.875 10.125-.625.264-1.25.529-1.895.8-5.293 2.205-9.258 3.206-14.98 3.137l-2.984-.027L189 156l-.332 2.082-.48 2.73-.458 2.708c-.784 2.663-1.616 3.737-3.73 5.48-.195-4.3.004-6.009 2-10l-10-1v-3c-.63.095-1.258.19-1.906.29-5.969.772-10.353.517-16.094-1.29v2l-4 1 2 5c-4.253-1.676-7.121-4.718-10.313-7.875l-1.705-1.605c-1.595-1.575-1.595-1.575-3.982-4.52.35-2.184.35-2.184 1-4l2.438 1.438c4.231 1.856 7.994 2.268 12.562 2.562-1.964-1.506-3.783-2.891-6-4z"/><path fill="#A97CE0" d="M199 72v1l-2.484.332-3.266.48-3.234.458c-4.384 1.061-6.328 2.673-8.766 6.418L180 83l6 1 .25-1.813c1.011-2.95 1.994-3.737 4.75-5.187 4.026-.503 6.1-.646 9.438 1.75C202 81 202 81 202 85h12c-.313 3.375-.313 3.375-1 7-5.429 3.62-11.667 3.208-18 3.25l-2.367.063c-5.002.033-8.245-.668-12.633-3.313l-2.375-1.188L176 90v-2l-8-1a100 100 0 0 1 0-5c1.736-1.736 4.205-1.656 6.563-2.063l3.066-.535L180 79v-2c5.683-5.374 11.525-5.618 19-5"/><path fill="#805BB3" d="m167 83 1 4-1.715 1.496-2.222 1.942-2.215 1.933c-.97.854-1.935 1.716-2.848 2.629a164 164 0 0 0-.25 8.188l-.063 2.29c-.034 4.98.773 8.116 3.313 12.522v2h2l1 2c2.556.847 5.138 1.472 7.75 2.121L175 125l1 3 3.5-.117c4.35.002 8.31.894 12.5 1.992 11.182 2.733 22.542 3.407 34 4.125l-1 3c-8.88.3-17.475.214-26.25-1.313l-2.127-.356c-4.13-.783-7.09-2.114-10.623-4.331-2.742.213-2.742.213-5 1v4l2.125-.313c4.182.455 5.827 2.478 8.875 5.313l-1 3c-36.675-23.102-36.675-23.102-40-36-.95-5.81.701-9.038 4-13.645 3.591-4.23 7.751-7.803 12-11.355"/><path fill="#BBA0DA" d="M247 75c2.894 2.44 3.857 3.406 4.75 7.125-1.281 6.62-5.858 11.91-11.395 15.672C238 99 238 99 236 99l-1 2c-1.996.344-1.996.344-4.438.5-3.728.151-3.728.151-6.562 2.5l-8-5 3-1 2 1c1.537.225 3.08.408 4.625.563l2.477.253L230 100v-2l10-2v-5c2-1.813 2-1.813 4-3l-3.813.125c-5.536.018-10.784-.994-16.187-2.125-.48-5.4-.48-5.4 1.5-7.875 3.521-1.585 6.756-1.94 10.5-1.125 3 2.375 3 2.375 5 5v2h8v-3l-2.164-.375c-2.884-.636-5.461-1.554-8.211-2.625-7.941-2.909-13.531-3.22-21.625-1v-5c11.406-2.957 19.294-2.381 30 3"/><path fill="#AB76EB" d="m188 131 3 2a116 116 0 0 0 7.625 1.563l2.246.391c8.007 1.317 16.03 1.752 24.129 2.046l-.992 1.828c-1.182 2.547-1.162 4.396-1.008 7.172l-3 1 2-5-1.484.875c-9.03 4.484-18.701 3.496-28.516 3.125l-.36-2.36c-.887-3.66-2.513-4.65-5.64-6.64-2.685-.79-2.685-.79-5-1l-1-5c2.91-1.455 4.883-.7 8 0"/><path fill="#ACBEF7" d="M181.352 109.305q2.565 1.596 5.125 3.203c10.865 6.425 24.224 6.665 36.523 6.805l2.716.053c6.189-.006 10.726-.808 15.284-5.366l3 1c-2.371 2.53-4.587 4.715-7.453 6.691-5.29 3.704-8.032 6.19-9.484 12.621l-.465 3.051c-.646 2.85-1.35 3.843-3.598 5.637l-1-3h2l2-6-2.5.07c-18.779.294-39.225-1.455-54.43-13.613-2.612-2.752-3.077-4.543-3.382-8.332L166 109c5.608-2.325 9.9-2.72 15.352.305M168 111c-.467 3.121-.373 4.491 1.512 7.063C185.189 132.023 206.102 132.55 226 132v-4l-1.956-.168q-4.398-.38-8.794-.77l-3.078-.263-2.969-.264-2.73-.238A42.6 42.6 0 0 1 200 125l3.328.48c5.14.638 10.247.778 15.422.832l2.824.088c5.413.128 5.413.128 10.067-2.357 1.451-1.773 1.451-1.773 1.359-3.043l-2.041-.044c-34.693-.837-34.693-.837-49.559-9.263-4.625-2.584-9.21-4.884-13.4-.693"/><path fill="#A380E4" d="m244 114 3 2c.313 3.5.313 3.5 0 7-2.156 2.156-4.371 3.478-7 5 .382 5.05.382 5.05 2.813 9.375 2.149 1.597 3.562 2.25 6.187 2.625l2-7h1c-.188 3.313-.188 3.313-1 7-2.438 2-2.438 2-5 3-2.536-1.268-4.1-2.91-6-5v-2h-2c-1.478-2.957-1.06-5.742-1-9l-6 1-.043 1.723c-.28 4.52-.717 7.416-3.644 10.964-1.367 1.63-1.367 1.63-2.313 3.313.578 3.54 1.975 5.952 3.625 9.125C230 156 230 156 230 160l2-1c.652-2.025.652-2.025 1-4l7-1-1.875.5c-3.403 2.402-3.351 5.502-4.125 9.5l2 1c-4.625 3-4.625 3-8 3l-.113-2.23c-.477-7.346-.477-7.346-3.887-13.77v-2l-5-2 1-2h3l.375-1.75c.625-2.25.625-2.25 1.637-4.098 1.098-2.392 1.22-4.228 1.425-6.84 1.11-6.162 4.86-8.658 9.739-12.207 2.89-2.155 5.332-4.505 7.824-7.105"/><path fill="#A083E3" d="M234 102h5a519 519 0 0 1 2.5 4.313l1.406 2.425C244 111 244 111 244 114c-2.125 1.5-2.125 1.5-5 3l-2.555 1.574c-4.59 1.9-8.53 1.836-13.445 1.739l-2.822-.035c-13.668-.269-26.618-1.756-38.178-9.59-5.41-3.47-9.88-2.968-16-1.688.418 5.33 1.042 8.325 5 12 3.585 2.17 7.256 4.121 11 6v2c-2.938-.375-2.938-.375-6-1l-1-2c-2.556-.847-5.138-1.472-7.75-2.121L165 123l-1-3h-2a205 205 0 0 1-2.063-3.75l-1.16-2.11C158 112 158 112 159 108l4 8h2v-9c3.349-.893 6.614-1.148 10.063-1.25l2.535-.078c2.92.399 4.282 1.311 6.402 3.328v2l1.738.41c2.914.76 5.718 1.768 8.555 2.774 8.731 2.633 16.831 3.152 25.957 3.129l3.797.048 3.656.002 3.302.01c3.348-.417 5.255-1.452 7.995-3.373-.246-4.05-.246-4.05-1-8-1.92-1.59-1.92-1.59-4-2z"/><path fill="#3C3A60" d="M160 52c1.563 1.688 1.563 1.688 3 4-.515 4.06-1.842 7.915-3.063 11.813l-1.097 3.519L158 74h-2l-2-2-3-1-2 2-6-2v-4h-4c.125-1.813.125-1.813 1-4 3.748-2.385 6.563-3.391 11-3l1-4h4v-2h4z"/><path fill="#0F0F20" d="M222 142c-2.711 5.616-5.145 7.803-10.875 10.125l-1.895.8c-5.293 2.205-9.258 3.206-14.98 3.137l-2.984-.027L189 156l-.332 2.082-.48 2.73-.458 2.708c-.784 2.663-1.616 3.737-3.73 5.48-.25-5.625-.25-5.625 2-9 .39-1.99.732-3.99 1-6l-6-1 1-2 7 1v2h7l-4-7 1.725-.136c2.614-.213 5.225-.445 7.838-.677l2.712-.212c6.08-.557 11.967-3.975 17.725-3.975"/><path fill="#2A2B3D" d="M193 37v1h-8v2l-1.723.883C174.465 45.56 169 49.72 165 59c-.61-1.785-.61-1.785-1-4a80 80 0 0 1 4-7l1.563-2.75c1.316-2.061 2.63-3.616 4.437-5.25l-5 1-1 3h-4l-1 4-2 .188c-4.152 1.124-7.567 3.237-11 5.812l-1 2h2v4l-11 3c2.646-4.214 5.33-7.586 9-11l1.488-1.434C155.446 46.011 161.015 43.018 167 40l2.32-1.266C176.933 34.86 184.762 35.22 193 37"/><path fill="#8566C4" d="M166 123c1.482.254 2.96.53 4.438.813l2.496.457L175 125l1 3 3.5-.117c4.35.002 8.31.894 12.5 1.992 11.182 2.733 22.542 3.407 34 4.125l-1 3c-8.88.3-17.475.214-26.25-1.313l-2.127-.356c-4.13-.783-7.09-2.114-10.623-4.331-2.742.213-2.742.213-5 1v4l2.125-.313c4.182.455 5.827 2.478 8.875 5.313l-1 3a374 374 0 0 1-5.375-3.188l-3.023-1.792c-2.874-2.231-3.438-3.664-4.602-7.02-2.524-1.36-2.524-1.36-5-2v-2l-1.813-.25c-2.784-.955-3.62-2.321-5.187-4.75"/><path fill="#E7DDEE" d="M199 72v1l-2.484.332-3.266.48-3.234.458c-4.384 1.061-6.328 2.673-8.766 6.418L180 83l6 1 .25-1.813c1.011-2.95 1.994-3.737 4.75-5.187 3.963-.495 6.076-.657 9.375 1.688 1.77 2.519 2.118 4.317 2.625 7.312-3.604.03-7.208.047-10.813.063l-3.044.025A179 179 0 0 1 169 85v-1l8-1v-1h-6v-1l9-2v-2c5.683-5.374 11.525-5.618 19-5"/><path fill="#242028" d="M219 54q2.126.682 4.25 1.375l2.39.773c2.226.804 4.27 1.75 6.36 2.852l1-5c6.988 2.956 10.663 7.454 14 14l-1 1 2 1.875C250 73 250 73 250 75l4 2-1 4-1.438-1.75c-3.47-3.047-7.309-4.542-11.562-6.25v-3l2-1a685 685 0 0 0-4.188-2.875l-2.355-1.617c-2.425-1.488-4.79-2.532-7.457-3.508v-2l-3.313-.313c-3.543-.66-4.62-.89-6.687-3.687z"/><path fill="#B1A2C3" d="M247 75c2.375 1.938 2.375 1.938 4 4 .25 3.75.25 3.75 0 7l-11-1 1-3v2h8v-3l-2.164-.375c-2.884-.636-5.461-1.554-8.211-2.625-7.941-2.909-13.531-3.22-21.625-1v-5c11.406-2.957 19.294-2.381 30 3"/><path fill="#24273C" d="m141 144 1.59.953c11.391 6.293 24.511 8.55 37.41 9.047l-4 4v-3c-.63.095-1.258.19-1.906.29-5.969.772-10.353.517-16.094-1.29v2l-4 1 2 5c-4.253-1.676-7.121-4.718-10.313-7.875l-1.705-1.605c-1.595-1.575-1.595-1.575-3.982-4.52.35-2.184.35-2.184 1-4"/><path fill="#131525" d="M149 75h2c-1.606 4.243-3.577 8.27-5.625 12.313l-.984 1.955A2995 2995 0 0 1 142 94h-2l-.313 2.313c-.73 2.858-1.457 3.844-3.687 5.687l-1-5h-3v-3l-5-1 4-17h1l1 10 1-2h2v8l5-1 1-4h2l.25-2.063c.973-3.812 2.708-6.578 4.75-9.937"/><path fill="#91D6FB" d="m241 114 3 1c-3.936 4.199-8.281 7.592-12.89 11.035-2.2 2.049-2.77 3.032-3.11 5.965h-2v-4l-2.43.105c-7.287.174-14.136-.296-21.32-1.48l-2.382-.382c-5.611-.986-5.611-.986-7.868-3.243l2.762.438a170.4 170.4 0 0 0 24.55 1.75l2.767.001c5.04-.032 5.04-.032 9.921-1.189v-2l-2.013-.06c-32.053-1.006-32.053-1.006-35.987-4.94l3.2.438c8.682 1.116 17.293 1.794 26.05 1.874l2.667.053c6.108-.004 10.59-.872 15.083-5.365"/><path fill="#1B0B2B" d="M255 146c1 3 1 3-.125 5.375-2.999 4.198-6.549 7.79-10.875 10.625h-2l-.66 1.86c-1.822 2.91-3.558 3.312-6.778 4.39l-2.933 1.016C229 170 229 170 226 170l-1 2h-2q-3.502.483-7 1c1.375-1.5 1.375-1.5 3-3h2v-11h3v9h3l-1-10c2 2 2 2 2.195 3.945L228 168c10.97-5.627 19.017-12.621 27-22"/><path fill="#202440" d="m128 120 1 2h2l.488 6.055c.386 2.34.386 2.34 3.512 3.945 2.032-.64 2.032-.64 4-2 .812-2.555.812-2.555 1-5 2 1.25 2 1.25 4 3v4l4 1-2 4h-3l1 3c-5.75-1.875-5.75-1.875-8-3l2 6c-4.875-1.75-4.875-1.75-6-4l-.5-3.563c-.125-3.26-.125-3.26-1.5-4.437q-.526-3.496-1-7a89 89 0 0 0-1-4"/><path fill="#58C6F0" d="M192 117v3c-5.205-.964-9.6-1.877-14-5v2l1.793.586c4.122 1.358 8.202 2.735 12.207 4.414v1c-5.388-.457-8.376-1.155-13-4a353 353 0 0 0-7-1c-2-2-2-2-2.125-4.625L170 111c8.46-2.014 14.656 2.197 22 6"/><path fill="#EEE6F2" d="M236 77c2.438 1.125 2.438 1.125 4 3l1 6h-17c0-6 0-6 1.5-7.875 3.556-1.6 6.662-1.692 10.5-1.125"/><path fill="#100C13" d="M212 80c2 2 2 2 2 5h-12l-2-7c-5.952-.447-5.952-.447-11.5 1.313-1.731 1.724-1.731 1.724-2.5 4.687h-7c10.36-10.953 19.817-9.752 33-4"/><path fill="#907FA5" d="M249 81v3h-8l-.813-1.875C239.044 79.7 239.044 79.7 236 78c-5.44-.478-5.44-.478-10.438 1.25-1.722 1.93-2.212 3.211-2.562 5.75h-7c1.393-3.367 2.979-4.986 6-7l-4 2-2-4 2.75-.438c3.048-.458 3.048-.458 5.14-1.136 8.406-1.697 17.694 3.183 25.11 6.574"/><path fill="#36385C" d="m136 137 7 2v-2l7 1v2l2 1-2 3 2.875.875C156 146 156 146 158 148c-6.682 1.63-11.525-.001-17.375-3.313-2.775-1.8-3.485-2.293-4.625-5.5z"/><path fill="#AF8AD8" d="m217.688 139.875 2.386-.008C222 140 222 140 223 141c.04 1.666.043 3.334 0 5l-3 1 2-5-1.484.875c-9.03 4.484-18.701 3.496-28.516 3.125v-4l3.578-.184 4.672-.254 2.355-.119 2.286-.127 2.094-.11c3.683-.376 6.95-1.343 10.702-1.331Z"/><path fill="#171936" d="M138.188 70.75 141 71l-.938 2.875c-1.341 4.634-1.695 9.33-2.062 14.125l3-2 3 1h-2l-1 4-5 1v-8h-2l-1 6h-1c-.081-2.417-.14-4.832-.188-7.25l-.076-2.066c-.045-3.147.087-5.351 1.577-8.153C135 71 135 71 138.188 70.75"/><path fill="#2C1C4B" d="M150 99h1l.262 2.563c1.25 10.095 3.705 16.503 11.691 22.917 3.951 2.934 7.978 5.753 12.047 8.52l-2 1c-2.602-1.215-2.602-1.215-5.625-2.938l-3.04-1.714L162 128v-2h-4q-1.457-2.562-2.91-5.125c-.9-1.549-1.862-3.061-2.84-4.563C151 114 151 114 151 110h-2v-3l-3 1-2-5 3-3 3 1z"/><path fill="#433F6B" d="M147 62h5l1 2h4l1 10h-2l-2-2-3-1-2 2-6-2 1-5h2z"/><path fill="#DBB4FB" d="M214 85h1c-.875 7.75-.875 7.75-2 10-1.715.895-1.715.895-3.938 1.813-4.44 1.875-8.66 4.038-12.898 6.332C194 104 194 104 191 103l9-5-3.254-.297-4.309-.453-2.134-.188C184.986 96.475 181.447 95 177 92l-1-2c2.575.495 4.305 1.18 6.594 2.523 4.277 1.855 7.682 1.885 12.281 1.79l2.316.01c5.23-.05 9.782-.886 14.809-2.323z"/><path fill="#B08ADC" d="m208.813 84.938 2.957.027L214 85c-.313 3.375-.313 3.375-1 7-5.466 3.644-11.695 3.182-18.063 3.188l-2.392.037c-4.308.01-7.618-.226-11.545-2.225l3-2v2q3.78.04 7.563.063l2.134.025c4.518.02 8.857-.178 13.303-1.088l1-2-10-3v-1c3.674-.853 7.045-1.108 10.813-1.063Z"/><path fill="#8A68B3" d="M201 69h27c-2.398 2.398-3.333 2.343-6.625 2.625l-2.477.227L217 72v2l3 1-4 1 2 4h-4l-2-2h2c-1.042-2.987-1.702-3.855-4.602-5.266l-3.023-.984-3.04-1.016L201 70z"/><path fill="#A372DF" d="M166 123c1.482.254 2.96.53 4.438.813l2.496.457L175 125l1 3 7 1v3l-2 1v3l2.125-.313c4.182.455 5.827 2.478 8.875 5.313l-1 3a374 374 0 0 1-5.375-3.188l-3.023-1.792c-2.874-2.231-3.438-3.664-4.602-7.02-2.524-1.36-2.524-1.36-5-2v-2l-1.813-.25c-2.784-.955-3.62-2.321-5.187-4.75"/><path fill="#8A72A6" d="m200 70 2.762.902 2.925 1.035 2.95 1.028C211 74 211 74 212 76l-2.203-.656c-11.91-3.375-11.91-3.375-23.813-1.442-1.788 1.18-1.788 1.18-3.984 3.098h-2v2c-3.135 1.858-5.375 2.201-9 2a505 505 0 0 1 5-4l1.691-1.531c6.08-5.179 14.426-8.06 22.309-5.469"/><path fill="#D1B7EC" d="M199 72v1l-2.484.332-3.266.48-3.234.458c-4.384 1.061-6.328 2.673-8.766 6.418L180 83l6 1 1-3v4h3v-2h3v3c-8.07.115-15.977-.1-24-1v-1l8-1v-1h-6v-1l9-2v-2c5.683-5.374 11.525-5.618 19-5"/><path fill="#8A63BD" d="M224 150h3c2.034 3.73 3 5.67 3 10l2-1c.652-2.025.652-2.025 1-4l7-1-1.875.5c-3.403 2.402-3.351 5.502-4.125 9.5l2 1c-4.625 3-4.625 3-8 3l-.113-2.23c-.477-7.346-.477-7.346-3.887-13.77z"/><path fill="#AD77F1" d="m209 89-2 4h-19v-4c7.188-.888 13.822-1.012 21 0"/><path fill="#1D1D35" d="M214 145v2h-5v4c-3.83 1.802-6.781 2.196-11 2l-2-5h-2l-1 2-1-3q4.938-.502 9.875-1c.937-.095 1.874-.19 2.84-.29l2.715-.273 2.507-.253C212 145 212 145 214 145"/><path fill="#A47FD4" d="M247 125c2 2 2 2 2.195 4.383l-.07 2.742-.055 2.758L249 137l-4 1-5-6c.688-2.375.688-2.375 2-5 2.625-1.313 2.625-1.313 5-2"/><path fill="#2B2A3A" d="M219 54q2.126.682 4.25 1.375l2.39.773c2.226.804 4.27 1.75 6.36 2.852l1-5c4.274 1.583 6.265 4.506 9 8l-1 2-2.625-1c-3.332-.987-5.927-1.164-9.375-1l-1-3-3.313-.313c-3.543-.66-4.62-.89-6.687-3.687z"/><path fill="#1E1B2D" d="M126 96h4c1.14 3.422 1.098 6.087 1.063 9.688l-.028 3.574L131 112l-3-1v6h-1c-1.112-4.438-1.115-8.77-1.063-13.313l.014-2.244q.02-2.722.049-5.443"/><path fill="#7554A2" d="m167 83 1 4-1.645 1.355c-3.893 3.291-6.94 6.083-9.355 10.645l-2 1c-.692 2.81-.692 2.81-1.125 6.063l-.508 3.347L153 112c-2.124-3.949-2.596-6.458-2-11 3.507-7.553 9.723-12.753 16-18"/><path fill="#A581DC" d="M234 102h5a519 519 0 0 1 2.5 4.313l1.406 2.425C244 111 244 111 244 114c-2.313 1.563-2.313 1.563-5 3l-3 2c-2.177.227-2.177.227-4.668.195l-2.705-.02-2.815-.05-2.85-.027A917 917 0 0 1 216 119v-1l3.762-.113q2.463-.099 4.925-.2l2.475-.068c4.745-.211 7.925-.646 11.838-3.619-.246-4.05-.246-4.05-1-8-1.92-1.59-1.92-1.59-4-2z"/><path fill="#262530" d="M161 44c-.188 1.805-.188 1.805-1 4-2.25 1.633-2.25 1.633-5 3.125-3.66 1.788-3.66 1.788-6 4.875h2v4l-11 3c3.78-6.02 13.127-19 21-19"/><path fill="#61BAE8" d="m200 120 33 1c-1 3-1 3-3.063 4.188L228 126l-1-2-1.833-.06c-2.764-.096-5.528-.205-8.292-.315-.951-.03-1.903-.062-2.883-.094-5.01-.208-9.296-.586-13.992-2.531z"/><path fill="#0D0E1C" d="m128 120 1 2h2l.488 6.055c.386 2.34.386 2.34 3.512 3.945 2.671-.802 2.671-.802 5-2v4h-2v2h-3c1.398 3.545 1.398 3.545 3 7-4.875-1.75-4.875-1.75-6-4l-.5-3.563c-.125-3.26-.125-3.26-1.5-4.437q-.526-3.496-1-7a89 89 0 0 0-1-4m11 7 3 1v2h-2z"/><path fill="#C9AFE5" d="m232 70-1 3h7v1l-3.75.375C228.46 75.012 222.736 76 217 77v-5c5.075-1.263 9.728-2.27 15-2"/><path fill="#13162F" d="M143 146c2.942.975 5.878 1.956 8.797 3 9.304 3.15 18.474 4.17 28.203 5l-4 4v-3c-.652.095-1.305.19-1.977.29-5.339.676-8.933.722-14.023-1.29-2.75-.169-2.75-.169-5 0v-2l-2.125-.313c-3.295-.788-5.934-2.016-8.875-3.687z"/><path fill="#1B1D2C" d="M193 37v1h-8v2l-8 4-1-3 2-1-8-1c6.744-4.496 15.302-3.664 23-2"/><path fill="#CDA9F2" d="m244 124 3 2-2.438.75c-2.636.994-2.636.994-3.625 3.063.097 3.38 1.736 4.86 4.063 7.187h3v-10l7-1-4 2 .125 3.75c.012 3.266-.268 5.465-2.125 8.25-2.75-.125-2.75-.125-6-1-2.444-2.83-3.778-4.965-4.563-8.625.807-3.404 2.741-4.47 5.563-6.375"/><path fill="#915ECE" d="M157 97h1l.184 3.14.254 4.11.119 2.066c.21 3.328.462 6.487 1.443 9.684l-2 1-2-1c-.922-2.8-.922-2.8-1.75-6.313l-.86-3.488c-.403-3.307-.23-4.499 1.61-7.199h2z"/><path fill="#1B1423" d="M247 118h4v2l5 1 1 4c-4.413 2.084-4.413 2.084-7.188 1.688C248 126 248 126 246 125z"/><path fill="#3D3A5F" d="M141 141c5.986 1.502 11.613 2.942 17 6-2 2-2 2-3.953 2.117-5.418-.571-8.898-1.5-13.047-5.117z"/><path fill="#B084E5" d="m171.066 80.902 2.496.035 2.504.028L178 81l-1 3 2 1.375L181 87v2l-5 1v-2l-8-1a100 100 0 0 1 0-5c1-1 1-1 3.066-1.098"/><path fill="#2E1F3C" d="M184 68c1.525.09 3.047.245 4.563.438l2.503.308L193 69c-3 2-3 2-5.938 2.625C181.026 73.186 176.018 77.457 171 81l-2-1 4-2-1-4h5v-2l2.938-1.438c2.867-1.264 2.867-1.264 4.062-2.562"/><path fill="#52ACDC" d="M173.125 108.875 176 109v2h-6l2 6 3.438.375L179 118l1 2-3 1 7 4-3 1c-4.652-2.356-9.881-5.797-13-10-.375-2.625-.375-2.625 0-5 2-2 2-2 5.125-2.125"/><path fill="#BFA9DB" d="M217 143c-4.799 3.85-9.471 3.349-15.313 3.188l-2.822-.042A586 586 0 0 1 192 146l-1-2c3.582-.365 7.166-.715 10.75-1.063l3.078-.314 2.969-.283 2.73-.27c2.39-.068 4.202.223 6.473.93"/><path fill="#9B70CD" d="m240 125 2 1-2 2c.144 3.879.434 6.258 2.813 9.375 2.149 1.597 3.562 2.25 6.187 2.625l2-7h1c-.188 3.313-.188 3.313-1 7-2.438 2-2.438 2-5 3-2.536-1.268-4.1-2.91-6-5v-2h-2c-1.4-2.799-1.253-4.905-1-8 1.5-1.875 1.5-1.875 3-3"/><path fill="#A782D7" d="M253 125c2.438.375 2.438.375 5 1 1 2 1 2 .375 5-1.375 3-1.375 3-4 4.375L252 136c-.977-6.055-.977-6.055-1-8l2-2z"/><path fill="#3B3E5F" d="M132 98h1v5l2 1-2 7h2l1 11-4 1z"/><path fill="#25273D" d="M136 72h3c-1.765 6.107-3.696 12.074-6 18h-1V75l4-1z"/><path fill="#151421" d="M240 60c4.392 1.464 4.88 3.978 7 8-5.29.661-8.157-.954-12.46-3.71L233 63v-2l7 1z"/><path fill="#A27FD1" d="M227 132h3c.405 2.675.403 4.411-1.148 6.68l-1.415 1.757c-2.2 2.819-2.456 3.212-2.25 7L226 150c-4.75-.875-4.75-.875-7-2l1-2h3l.375-1.75C224 142 224 142 225 140.125c1.253-2.663 1.604-5.222 2-8.125"/><path fill="#443A4A" d="M201 76c-3 2-3 2-6.438 1.938-3.494-.217-3.494-.217-5.937 1.374C186.758 81.01 186.758 81.01 186 84h-7c7.218-7.63 11.897-9.516 22-8"/><path fill="#1B1B2A" d="m199 169 3 1v4l14-1c-4.018 4.018-10.873 3.048-16.28 3.066-3.24-.005-6.48-.03-9.72-.066v-1h9z"/><path fill="#14131D" d="M221 159h3l.078 1.898.172 2.477.14 2.46c.402 2.353.402 2.353 2.657 3.454L229 170h-3l-1 2h-2q-3.502.483-7 1c1.375-1.5 1.375-1.5 3-3h2z"/><path fill="#C3C1F9" d="m241 114 3 1c-3.914 4.175-8.232 7.582-12.793 11.035-2.15 1.915-3.152 3.32-4.207 5.965-.366-4.517-.366-4.517 1.375-6.813C230 124 230 124 232 124l.125-2.313C233 119 233 119 235.938 117.314L239 116z"/><path fill="#A174D7" d="M212 96c-5.375 6.008-10.171 7.06-18 8 2.345-2.613 4.751-4.107 7.875-5.688l2.555-1.324c2.721-1.046 4.682-1.18 7.57-.988"/><path fill="#B5A0CD" d="m222 77 2 1-1.496 1.023-1.941 1.352c-.639.44-1.277.882-1.934 1.336-1.766 1.21-1.766 1.21-2.629 3.289h7l1-4v5h5v1h-14l-1-6q1.931-1.044 3.875-2.063l2.18-1.16z"/><path fill="#BFBBBE" d="M228 77h8v6c-2.906 1.257-4.796 2-8 2v-2h4l-1-3-4 1z"/><path fill="#282437" d="M150 99h1l1 11h-3v-3l-3 1-2-5 3-3 3 1z"/><path fill="#CCCBCB" d="m198 77 2 1-2 5h-4v-2l-6-1c2.705-3.818 5.613-3.32 10-3"/><path fill="#9E85B9" d="m205.688 71.938 2.949 1.027C211 74 211 74 212 76l-2.273-.621C203.142 73.646 196.797 72.436 190 72v-2c6.185-1.265 9.82-.138 15.688 1.938"/><path fill="#AB81DB" d="M216 86q3.344-.039 6.688-.063l3.761-.035c3.013.083 5.634.39 8.551 1.098v1l-19 1-1 7-3 1-2-2h3z"/><path fill="#9FB9F7" d="m169 117 1.293 1.137c5.983 4.897 12.444 7.36 19.707 9.863l-1 2c-6.822-1.879-13.457-4.502-19-9-.781-2.191-.781-2.191-1-4"/><path fill="#C8A1EE" d="M192 96h15c-2.722 2.722-4.635 4.048-8 5.75l-2.625 1.36C194 104 194 104 191 103l9-5-8-1z"/><path fill="#976BC7" d="m179 94 22 3-1 2c-7.063.356-13.564.263-20-3z"/><path fill="#8B8390" d="M243 77c2.875-.125 2.875-.125 6 0 2 2 2 2 2.125 5.625L251 86l-11-1 1-3v2h8v-3l-5-1z"/><path fill="#9C7DC8" d="M260 131h3c-1.413 4.827-3.43 8.716-6 13h-1c-.342-4.275-.213-6.597 1.813-10.438z"/><path fill="#AA8CC7" d="m244 114 3 2c.313 3.5.313 3.5 0 7l-2 2h-3c-.286-7.429-.286-7.429 2-11"/><path fill="#131028" d="M128 97h2c1.442 2.884 1.094 5.417 1.063 8.625l-.028 3.602L131 112l-1-2h-2z"/><path fill="#120F13" d="M239 78c3.558.61 6.683 1.578 10 3v3h-8z"/><path fill="#3CBEEC" d="M170 111c2.875-.125 2.875-.125 6 0l2 2-1 2h-2l-1 3-4-2z"/><path fill="#2D2739" d="M192 64h8l2 5h-8v-3h-2z"/><path fill="#4AB8EA" d="m192 118 8 1v2l6 1v2q-2.656-.465-5.313-.938l-2.988-.527C195 122 195 122 192 121z"/><path fill="#7753A8" d="m164 125 9 3v2l2.438.813L178 132l1 3c-3.865-1.386-6.968-3.19-10.313-5.563l-2.675-1.878L164 126z"/><path fill="#AFBBFB" d="m177 107 1 2-6.152.684c-1.86.135-1.86.135-2.848 1.316q-.061 3.5 0 7l-3-2c-.188-3.625-.188-3.625 0-7 3.823-1.423 6.913-2.24 11-2"/><path fill="#1F1928" d="m225 78-2 7h-7c1.542-4.066 4.432-7 9-7"/><path fill="#171939" d="M175 44v2l-2.75 2.125c-3.752 2.96-5.42 6.539-7.25 10.875-.613-1.777-.613-1.777-1-4 5.596-11 5.596-11 11-11"/><path fill="#7E5AAA" d="M179 135c6.147.369 8.69 1.9 13 6l-1 3a1100 1100 0 0 1-5.438-3.375l-3.058-1.898C180 137 180 137 179 135"/><path fill="#B093D1" d="M234 102c2.25-.375 2.25-.375 5 0 2.552 2.966 3.908 4.944 4.25 8.875L243 113c-2.526-2.363-3.888-3.665-5-7-2-1.209-2-1.209-4-2z"/><path fill="#292837" d="M159 164h9l3 7c-4.308-1.566-8.062-3.683-12-6z"/><path fill="#BA91E9" d="M258 128c1.188 1.688 1.188 1.688 2 4-1.188 2.688-1.188 2.688-3 5l-3 1c-1.219 2.504-1.219 2.504-2 5h-1c.75-6.75.75-6.75 3-9h3z"/><path fill="#1B2138" d="M134 123h2l1 5h3l-1 3h-3l-1 2-4-4h2v-2h2z"/><path fill="#0F1727" d="m139 127 3 1v2h-2zm0 3 1 4h-2v2h-3l-1 2v-6z"/><path fill="#1B1E30" d="M140 125c2 1.25 2 1.25 4 3v4h2v3l-6-1v-4h2l-3-4z"/><path fill="#A77CE6" d="M243 128h3c1.478 2.957 1.06 5.742 1 9-3-1-3-1-4.25-2.813-.866-2.526-.635-3.71.25-6.187"/><path fill="#3BAAD9" d="M212 124c2.788.253 5.58.408 8.375.563l2.23.13q2.697.157 5.395.307v1c-3.25.058-6.5.094-9.75.125-.92.017-1.84.034-2.79.05l-2.694.02-2.476.032c-2.509-.249-4.124-.97-6.29-2.227 2.886-1.443 4.832-.557 8 0"/><path fill="#9C73C1" d="m236 99 2 3c-4.177 1.591-7.532 2.213-12 2v-3c.957-.09.957-.09 1.934-.184l2.504-.254c.823-.08 1.647-.162 2.496-.246 2.053-.105 2.053-.105 3.066-1.316"/><path fill="#2B2A4C" d="m144 64 1 2c-1.063 2.625-1.063 2.625-3 5-3.188.313-3.188.313-6 0 .375-2.438.375-2.438 1-5l2-1 1 2h2z"/><path fill="#1C0E30" d="M226 158c2 2 2 2 2.195 3.945L228 168l2.313-1.5C233 165 233 165 236 165v3c-3.674 1.176-7.17 1.074-11 1l2-1z"/><path fill="#232438" d="M137 80h1v8l3-2 3 1h-2l-1 4-5 1z"/><path fill="#232439" d="M165 146v2l1.898.367 2.477.508 2.46.492C174 150 174 150 176 152c-5.868-.524-10.549-1.761-16-4 3-2 3-2 5-2"/><path fill="#907AD5" d="m168 119 14 8v2c-2.938-.375-2.938-.375-6-1l-1-2-2.438-1.375C170 123 170 123 168 119"/><path fill="#A795B5" d="M202 75c4.03.553 8.02 1.156 12 2l1 4c-2.85 0-4.434-.355-7.063-1.313l-2.097-.738C204 78 204 78 202 75"/><path fill="#1C1826" d="M219 54c1.421.4 2.837.822 4.25 1.25l2.39.703c2.765 1.227 4.35 2.815 6.36 5.047a429 429 0 0 1-5.313-1.313l-2.988-.738C221 58 219.79 57.182 218 55z"/><path fill="#232C48" d="M135 113c1.996 3.991 2.195 5.7 2 10l2 1v4h-2l-1 2v-7l-2-1h2z"/><path fill="#8B57C4" d="m155 99 2 1c.077 4.516.102 8.59-1 13h-1c-.392-1.58-.763-3.164-1.125-4.75l-.633-2.672c-.273-2.907.223-4.145 1.758-6.578"/><path fill="#AA7BDB" d="M185 98c1.791-.054 3.583-.093 5.375-.125l3.023-.07C196 98 196 98 198 100c-3 2-3 2-6.5 1.813-3.53-.82-4.236-1.253-6.5-3.813"/><path fill="#845DAD" d="m167 83 1 4-8 7c-1-2-1-2-.438-3.813 2.022-3.076 4.541-4.92 7.438-7.187"/><path fill="#C1ABD2" d="m186 81 1 4h3v-2h3v3h-13l-1-2h7z"/><path fill="#F6F1F6" d="M187 80c6.523.492 6.523.492 8.938 3.063L197 85h-4v-2h-3v2h-3z"/><path fill="#120A1F" d="M243.25 160.313 245 161l-3 1-.938 2c-1.062 2-1.062 2-3.187 2.75L236 167c.375-2.72.842-3.842 2.813-5.813C241 160 241 160 243.25 160.313"/><path fill="#161636" d="m143 146 15 5v2l-3 1v-2l-2.125-.313c-3.295-.788-5.934-2.016-8.875-3.687z"/><path fill="#DCAFFA" d="m216 98 16 2v1l-2.875.375c-3.212.342-3.212.342-5.125 2.625a809 809 0 0 1-4-2.438l-2.25-1.37L216 99z"/><path fill="#C1A0E5" d="M242 96c-3.75 3-3.75 3-6 3l-1 2-5-1v-2q2.434-.794 4.875-1.563l2.742-.878C240 95 240 95 242 96"/><path fill="#2A2A46" d="M141 144c3 2 3 2 4 4l3 1v2c-2.843.23-4.461.359-6.875-1.25C140 148 140 148 140.312 145.812z"/><path fill="#2E1A49" d="m160 87 2 1-1.645 1.828-2.167 2.422-2.145 2.39A95 95 0 0 0 151 101c.52-4.137 1.673-6.215 4.5-9.25l1.906-2.078A156 156 0 0 1 160 87"/><path fill="#201134" d="M262 133c1.072 4.286 1.037 4.66-.938 8.25l-1.152 2.14L259 145l-3-1z"/><path fill="#AD9BC2" d="M190.188 74.375 193 75l-1.688.813c-2.401 1.194-2.401 1.194-4.937 2.812C184 80 184 80 182 80c1.814-4.187 3.295-6.2 8.188-5.625"/><path fill="#25263B" d="M189 156h8c-1.52 3.039-3.98 3.644-7 5h-2z"/><path fill="#B699D2" d="M243 154h4c-1.049 2.622-1.65 3.794-4.125 5.25L241 160c0-4 0-4 2-6"/><path fill="#9169C0" d="m250 151-2 4c-1.176-.03-1.176-.03-2.375-.063-2.606-.124-2.606-.124-4.625 1.063.375-1.938.375-1.938 1-4 2.709-1.354 5.01-1.065 8-1"/><path fill="#272A4B" d="M150 142h6v2l4 1-1 2c-3.344-.557-6.033-1.352-9-3z"/><path fill="#FBF6FC" d="m234 78 4 1 1 6h-8l1.938-.75c2.25-1.066 2.25-1.066 2.812-3.375L236 79z"/><path fill="#2F3049" d="M144.98 57.668c2.01.018 4.017.168 6.02.332v2l-11 3c1.928-4.82 1.928-4.82 4.98-5.332"/><path fill="#141621" d="M176 36c11.522-.185 11.522-.185 17 1v1h-8v2h-2v-3h-7z"/><path fill="#2A1846" d="M175 134c4.108 1.45 7.503 3.398 11 6v2l-4-1v-2h-3v-2l-4-2z"/><path fill="#AA7ADC" d="M217 137h8l-1 3h-8z"/><path fill="#090C1B" d="M134 84h2c-.875 7.625-.875 7.625-2 11h-2q.212-2.188.438-4.375c.08-.812.162-1.624.246-2.46C133 86 133 86 134 84"/><path fill="#9B7EC4" d="M237 157h3l1 4-5 3z"/><path fill="#221B2B" d="m247 90 1 3c-.996 1.824-.996 1.824-2.438 3.688l-1.433 1.886L243 100l-1-2-2-1z"/><path fill="#A482D5" d="M245 87c1 2 1 2 .188 4.5C244 94 244 94 242 96l-2-1v-4c2.5-2.25 2.5-2.25 5-4"/><path fill="#2C2E43" d="m166 150 10 2v1h-14l4-1z"/><path fill="#30314D" d="m131 120 1 3 3 1v3h-2v2h-2z"/><path fill="#2D3150" d="M136 72h3l-3 9-3-1h2v-3l-2-1 1-2h2z"/><path fill="#212547" d="m163 57 2 3c-.68 2.48-.68 2.48-1.875 5.188l-1.18 2.73L161 70c-1.188-3.43-.802-5.378.438-8.75l.87-2.422z"/><path fill="#2D283A" d="m186 143 4 1-1 2 1 1-2 2-3-1z"/><path fill="#ABA1C0" d="m222 77 2 1-1.496 1.023-1.941 1.352c-.639.44-1.277.882-1.934 1.336-1.766 1.21-1.766 1.21-2.629 3.289h-2v-4q1.931-1.044 3.875-2.063l2.18-1.16z"/><path fill="#2B2634" d="M225 160c2 2 2 2 2.125 5.125L227 168h-3c-.125-5.75-.125-5.75 1-8"/><path fill="#1B192A" d="m182 151 7 1-1 5-1-3-6-1z"/><path fill="#484670" d="m141 141 7 2-3 3-4-2z"/><path fill="#AC82D5" d="M207 87h7l-2 6-3-1h2c-.752-3.278-.752-3.278-4-5"/><path fill="#A187BF" d="m171.066 80.902 2.496.035 2.504.028L178 81l-1 3c-3.375.125-3.375.125-7 0l-2-2c1-1 1-1 3.066-1.098"/><path fill="#2B2139" d="M242 68h2l1 6-5-1c0-3 0-3 2-5"/><path fill="#2A2C3C" d="m181 153 3 4-4 2-3-2 4-2z"/><path fill="#090407" d="M249 122c2.5.313 2.5.313 5 1l1 2-5 1-2-3z"/><path fill="#1E1D3B" d="m130 113 3 3v4h-2v2h-2z"/><path fill="#291642" d="M151 110c2 2.546 3.826 4.966 5 8l-1 3c-4-6.5-4-6.5-4-11"/><path fill="#D1A6F8" d="M176 90c3.669.706 6.705 2.277 10 4v2c-4.43-1.208-6.981-2.517-10-6"/><path fill="#23172A" d="m212 81 2 1v3h-12v-1l1.934-.148 2.504-.227c.823-.07 1.647-.14 2.496-.21L211 83z"/><path fill="#B0AEB1" d="m194 77 6 1-2 5h-3l1-5z"/><path fill="#0B0D20" d="M168 154h12l-4 4v-3h-8z"/><path fill="#9973C9" d="M254 144h2c-1.393 3.367-2.979 4.986-6 7v-3l2-1 1-2z"/><path fill="#100717" d="M238 98h4l-1 4h-3z"/><path fill="#22143B" d="m212.188 66.438 3.292.308L218 67v1c-1.748.223-3.499.428-5.25.625l-2.953.352C206.866 69 205.455 68.53 203 67c3.427-1.142 5.611-.909 9.188-.563Z"/><path fill="#6D5092" d="M228 161h2v5l2 1-4 1z"/><path fill="#30303F" d="M192 149c2 1.375 2 1.375 4 3v2l-5-1z"/><path fill="#1E2133" d="m151 152 2 4-4 1-3-4c3-1 3-1 5-1"/><path fill="#362940" d="m222 142-2 4-6-1c2.633-2.633 4.305-3 8-3"/><path fill="#3E3152" d="M169 132c5.75 1.625 5.75 1.625 8 5l-2.813-1c-3.107-1.15-3.107-1.15-6.187-1z"/><path fill="#AA83DA" d="m241 116 3 1c-2.578 2.648-4.916 4.944-8 7 1.372-2.954 2.989-5.44 5-8"/><path fill="#3C2B5A" d="m162 81 3 1-1 5h-3z"/><path fill="#130A16" d="m185 80 1 4h-7c1.392-2.784 3.156-2.979 6-4"/></svg>