<svg xmlns="http://www.w3.org/2000/svg" viewBox="10.8 9.9 377.9 377.9"><path fill="#312C2D" d="m237 14 2.5.5c32.5 7 62.5 22.1 86.7 45l7 6c5 4.3 8.8 9.4 12.8 14.5l2 2.4a173.5 173.5 0 0 1 17 25.4 178.3 178.3 0 0 1 20.5 56.5 187 187 0 0 1-26.9 136.8A189 189 0 0 1 338 327l-3.4 4c-28.3 32.3-74.3 52.6-116.6 56a206 206 0 0 1-57-3l-2.4-.5c-17.2-4-33-10.2-48.6-18.5l-1.9-1A188.3 188.3 0 0 1 11 206l-.1-2.6C9.7 150.4 31.2 103.1 67 65l1.8-2c24.4-25.7 59.1-41.3 93.2-49l2.3-.5c22.8-5.3 49.9-4.4 72.7.5M94 80l-3.9 3.2A90 90 0 0 0 80 94l-2.1 2.5c-6 7-11.2 14.5-15.9 22.5l-1.1 1.9A147.8 147.8 0 0 0 42 176l-.5 3.6a159 159 0 0 0 30 114.4c3 3.7 6.1 7.2 9.4 10.7l6 6.9c4.5 5 9.7 9.2 15.1 13.4l3 2.4A158.8 158.8 0 0 0 233 355l2.4-.5A158.7 158.7 0 0 0 312 312l2.4-2.2c27.9-26.8 43.7-67 44.8-105.2A163 163 0 0 0 343 129l-.9-1.9A157.5 157.5 0 0 0 312 86l-1.6-1.7A144.2 144.2 0 0 0 272 57l-1.8-1A159 159 0 0 0 94 80"/><path fill="#312D2E" d="M117 87h48a11506 11506 0 0 1 20.2 57.5l.7 2a13785 13785 0 0 1 8.9 25.4c1.9 5.5 3.8 10.8 6.2 16.1l.8-2.3 1-3.4.7-1.9a70261 70261 0 0 1 28.6-86l1-3c.9-2.4.9-2.4 1.9-4.4h48v170l-11-6a652 652 0 0 0-10.4-5.3c-3.5-1.7-7-3.2-10.6-4.7l-1-107a7458 7458 0 0 0-32 90.6c-1.9 5.2-1.9 5.2-3 7.4h-30l-3.8-10.5c-11.9-33.3-11.9-33.3-24-66.4L150 135l-1 106-16 8-10.4 6.4C120 257 120 257 117 258z"/><path fill="#322D2E" d="M242.1 265.2c5.2 3.3 8.8 7 10.9 12.8 1 5.6.5 10-2.5 14.9a19.8 19.8 0 0 1-13.5 8.4 22 22 0 0 1-13-3.3c-5-4.9-7.2-8.2-7.3-15.3 0-5.4.4-8.6 4.3-12.7 6-5.7 13.2-7.8 21.1-4.8m-67.9.8a22 22 0 0 1 8.8 11c.9 5.9.3 11-2.7 16.2-3.5 4.8-7.4 7-13.2 7.8-5 .2-9-.4-13.1-3-4-3.7-6.7-7-7.2-12.7-.2-6.3-.3-10.5 4.2-15.3 7.2-6.5 14.2-7.8 23.2-4"/><path fill="#D4D0CF" d="M204 174h2a45 45 0 0 1-5 15 27.2 27.2 0 0 1-3.6-7.7l-.8-2.4-.6-1.9 2.3.6c2.8.6 2.8.6 5.7-.6z"/><path fill="#353031" d="M300 73h3c2 2 2 2 3 4 1 0 1 0 1.9.2 2.1.8 2.1.8 3.9 4.4L313 85c-4.2 0-5.8-2.3-8.7-5l-1.5-1.4L299 75z"/><path fill="#393536" d="M44 305c3 1.4 5.4 3 8 5l2-1c.8 3.4 1.1 5.7 0 9a53 53 0 0 1-10-13"/><path fill="#3A3536" d="M365 109c1.9 2.4 3 4 4 7l-2 2c-2.1-.4-2.1-.4-4-1v-6h2z"/><path fill="#393536" d="M159 16a19.7 19.7 0 0 1-8 6l-3-1h2l-1-4 3.9-1 2.2-.7c1.9-.3 1.9-.3 3.9.7"/><path fill="#383334" d="M111 362c3.3.6 5.5 1.7 8 4v3c-5.8-1.8-5.8-1.8-8-4z"/><path fill="#363233" d="M86 346h5l2 4h-2v2l-5-2z"/><path fill="#D6D0D0" d="m212 149 2 1-2 9-3-2 1-6h2z"/><path fill="#D3CDCD" d="M358 300c1.1 3.4.9 4-.4 7.2l-1 2.2-.6 1.6-4-2z"/><path fill="#D2CCCC" d="M293 33h2v2l4-2 1 5c-3.7 0-5.8-1.3-9-3z"/><path fill="#D3CECE" d="m129 56 2 1 1 3c-3 .8-4.5 1.2-7.3 0l-1.7-1z"/><path fill="#D2CCCC" d="M181 221c2.7 2.7 3 5.4 4 9-2.9-.6-3.9-.9-6-3z"/><path fill="#CCC8C9" d="M250 131h1v11l-4-1z"/><path fill="#383232" d="m103 37 3 2-3 1c-1.2 2-1.2 2-2 4l-3-1v-3c2.5-1.7 2.5-1.7 5-3"/><path fill="#D0CACA" d="m327 337 4 2-3 1-1 2-5 1z"/><path fill="#D5CFCF" d="M252 288c1.4 2.4 2 3.5 1.6 6.3l-.6 1.7h-4c.6-3 1.6-5.4 3-8"/><path fill="#383433" d="M71 105a19.3 19.3 0 0 1-5 7l-2-4c4.8-3 4.8-3 7-3"/><path fill="#D4CECE" d="m113 330 1 2 1.9-.6 2.1-.4 2 2-2 3-6-4z"/><path fill="#D8D2D2" d="m332 284 2 1-4 6-4-2h3l.4-2 .6-2z"/><path fill="#D2CCCC" d="M371 276h1v7h-2l-2 4-1-2c.8-2.2.8-2.2 2-4.6l1-2.5z"/><path fill="#3A3436" d="m283 59 3 1c.7 2 .7 2 1 4l-2 1c-2.6-1.4-2.6-1.4-5-3z"/><path fill="#383435" d="M166 163c1.3 2.7.7 4.2 0 7l-3 1-1-5h2z"/><path fill="#3D3838" d="M300 73h3c2 2 2 2 3 4h-2l-1 2-4-5z"/><path fill="#C5BFBF" d="m91 82 3 4c-4.8 1.1-4.8 1.1-7 0z"/><path fill="#464243" d="M329 63c3.4 1.4 5 3 7 6-4 0-4 0-5.8-1.3C329 66 329 66 329 63"/><path fill="#D6D2D2" d="m67 333 5 5-3 1-1-2-2 1z"/><path fill="#3C3838" d="M337 279c.6 1.9.6 1.9 1 4l-2 2a89 89 0 0 0-2 4c-.8-1.6-.8-1.6-1-4 2-3.3 2-3.3 4-6"/></svg>