<svg xmlns="http://www.w3.org/2000/svg" width="2560" height="2560" version="1.0" viewBox="0 0 1920 1920"><path d="m619.5 370.3-340 196.3v786.8l340 196.3C806.5 1657.6 959.7 1746 960 1746s153.5-88.4 340.5-196.3l340-196.3V566.6l-340-196.3C1113.5 262.4 960.3 174 960 174s-153.5 88.4-340.5 196.3m-30.6 362.2c73.8 34.3 89.3 42.6 127.1 67.8 58.3 38.8 118.9 95.1 159 147.5 4.7 6.1 8.8 11 9.1 10.9.4-.1 4.2-4.7 8.5-10.2 57.4-73.9 137.5-141.2 218.2-183.3 21.5-11.2 126.6-60.1 127-59.1.2.5-8.2 26.7-18.7 58.1-22.4 67.4-25.8 80.4-29.2 113.6-1.7 16.6-.6 51.3 1.9 62.2 5.5 23.2 11.4 32.6 30.5 48.3 49.1 40.4 83.6 104.9 99.1 185.2 2.6 13.7 5.6 33.9 5.6 38v2.5l-48.7-.2-48.6-.3-2.3-13.9c-5.7-33.9-15-62.9-28-87.5-11.4-21.6-23.9-37-41.8-51.4-20.6-16.7-33.2-32.3-44.5-55.2-14.3-28.9-21-59.6-21.3-97.4l-.1-17-3.1 2.1c-20.5 14.3-47.4 37.4-72.1 62.2-35.9 35.9-62.6 70.1-76.2 97.3l-4.6 9.3H833.1l-5.2-10.1c-22.7-44.2-80.7-107.4-138.9-151.3l-11.5-8.7-.7 18.6c-2.1 55.9-15.4 96.2-42.6 128.8-6.3 7.6-14.4 15.1-28.6 26.7-31.2 25.3-56.2 79.2-64.9 139.5l-1.3 9-48.7.3-48.7.2v-3.5c0-10.1 5.5-41.7 11.2-63.9 7.1-28 15.4-50.9 26.9-73.9 18.9-37.9 40.1-64.5 71.1-89.6 18.2-14.7 26.4-34.7 28.3-69.6 1.3-22.2-2.6-56.3-9.5-84.2-1.7-6.8-11.4-37-21.5-67.3-10.2-30.2-18.5-55.6-18.5-56.4 0-1.7-4-3.5 58.9 25.9m888.6 231.7c-.2.7-15.9 48.1-34.9 105.3-33.7 101.7-37.9 115.7-41.4 138l-.7 5-17.7.3-17.7.2-.8-4.7c-1.5-8.8-.9-37.1 1-45.8.9-4.4 14.2-45.4 29.4-91l27.7-83.1 27.5-12.7c15.2-6.9 27.7-12.7 27.8-12.7s.1.6-.2 1.2m-107.4 106c-12.1 36.5-23.4 71.7-25 78.3-2.4 10.1-3 11.5-3.6 9-9.1-39-20-69.5-35.1-98.4-3.5-6.8-6.1-12.8-5.7-13.2 1.2-1.2 90.7-42.8 91.2-42.4.1.2-9.6 30.2-21.8 66.7m-664.6 5.3c36.3 7.5 76.7 33.8 106.1 69 4.6 5.5 9.5 12.1 10.9 14.7l2.6 4.7-3.5.7c-2 .3-20.8.4-41.8.1-41.2-.5-51.6-1.5-66.8-6.3-19.3-6.1-23.7-15.8-17.6-39.3l2.7-10.3-2.1-5.6c-5.3-14.2-12.3-24.1-19.9-28.3l-3.6-2 12.5.5c6.9.2 16.1 1.2 20.5 2.1m389-1.5c-.3.5-1.3 1-2.1 1-4.5 0-16 16.5-20.3 29.1-1.6 4.9-1.6 5.2 1.1 15.7 4.3 16.8 3.3 24.7-3.8 31.4-6.5 6.1-22.8 10.7-45.4 12.7-14.3 1.4-76.9 1.4-79 .1-1.3-.8-1.2-1.3.4-4.2 3.8-6.6 14.6-19.5 24.5-29.5 18.9-18.9 37.5-32.5 57.6-42.3 16.7-8.1 28.4-11.6 47.5-14.4 6-.8 20.1-.6 19.5.4"/></svg>