<svg xmlns="http://www.w3.org/2000/svg" xml:space="preserve" viewBox="1 1 1920 1920"><path fill="#A3CEF1" d="m1004 85 41 25 61 34 55 32 55 32 55 32 90 52 94 54 86 50 81 47 74 43 41 23c2 1 3 3 3 5v891c0 4-1 7-5 9l-90 52-86 50-82 47-85 50-75 43-74 43-63 35-60 35-56 32-60 35-41 24h-5l-99-58-89-51-79-46-75-43-73-43-68-39-74-43-63-36-67-39-68-39-19-10-2-4V517c0-5 1-7 5-9l105-61 89-51 79-46 81-47 74-43 68-39 67-39 68-39 89-51 52-30 5 1zM524 1495h1l432 250c3 2 5 2 8 0l74-43 599-345c3-2 4-4 4-8V573c0-4-1-6-4-8l-72-41-601-347c-3-2-5-2-8 0L709 320 285 565c-4 2-5 5-5 9v774c0 4 1 7 5 9z"/><path fill="#243144" d="m523 1495-238-138c-4-2-5-5-5-9V574c0-4 1-7 5-9l424-245 248-143c3-2 5-2 8 0l601 347 72 41c3 2 4 4 4 8v776c0 4-1 6-4 8l-599 345-74 43c-3 2-5 2-8 0l-432-250zm805-280v-2l-10-59c-5-24-14-47-24-70-18-40-43-74-78-101l-13-14c-8-13-11-28-13-44-2-19-1-38 2-57 3-16 5-31 10-47l33-100 4-15-2 1c-41 20-83 38-123 59-79 40-146 95-203 162l-26 32-2-2a651 651 0 0 0-209-183c-37-20-75-37-113-55l-30-14 1 7 35 105a292 292 0 0 1 11 121c-3 19-11 35-26 47-22 16-40 37-55 60-30 48-46 101-53 156l-1 14h97c1-8 1-15 3-22 5-19 9-39 17-57 12-31 29-58 56-78 5-3 9-8 13-12 30-31 43-69 47-110l1-39v-6l5 4c36 26 69 55 98 89 21 24 41 48 54 78h98c4 0 6-2 7-5l15-26c33-49 75-91 121-127l18-13v21c-1 19 3 38 7 56 9 36 27 68 57 91 16 13 29 28 40 46 18 32 28 68 33 104 0 3 0 5 4 5zm143-227 8-25-52 25c-2 1-4 3-5 6l-40 119c-7 20-16 40-17 61-2 13-2 27 1 40h35c4-17 7-33 12-49zm-684 131c-23-19-47-34-76-42-12-2-23-2-35-2l5 3c10 9 14 20 18 32v2l-5 20v10c2 10 10 14 19 17 13 5 26 6 40 7h66l7-1c-10-18-24-32-39-46m204 47c17-1 34-1 50-3 9-1 17-5 26-8 5-2 9-7 9-13 1-10-1-19-4-29v-5c5-13 9-25 22-33q-24-1.5-45 6c-41 14-72 40-98 74l-7 9 4 2zm333-68 19 60 51-155-93 43a50152 50152 0 0 1 23 52"/><path fill="#58A5F0" d="m1471 988-58 177c-5 16-8 32-12 49h-35c-3-13-3-27-1-40 1-21 10-41 17-61l40-119c1-3 3-5 5-6l52-25z"/><path fill="#FEFEFE" d="M787 1119c15 14 29 28 39 46l-7 1h-66c-14-1-27-2-40-7-9-3-17-7-19-17v-10l5-20v-2c-4-12-8-23-18-32l-5-3c12 0 23 0 35 2 29 8 53 23 76 42m204 47h-43l-4-2 7-9c26-34 57-60 98-74q21-7.5 45-6c-13 8-17 20-22 33v5c3 10 5 19 4 29 0 6-4 11-9 13-9 3-17 7-26 8-16 2-33 2-50 3"/><path fill="#58A5EF" d="M1324 1098a97864 97864 0 0 0-23-52l93-43-51 155z"/><path fill="#E4E6E8" d="m1327 1215 1-1z"/></svg>