<svg version="1.1" id="Layer_1" xmlns="http://www.w3.org/2000/svg" xmlns:xlink="http://www.w3.org/1999/xlink" x="0px" y="0px"
	 width="100%" viewBox="0 0 1920 1920" enable-background="new 0 0 1920 1920" xml:space="preserve">
<path fill="#FFFFFF" opacity="1.000000" stroke="none" 
	d="
M1060.000000,1921.000000 
	C706.666687,1921.000000 353.833344,1921.000000 1.000000,1921.000000 
	C1.000000,1281.000000 1.000000,641.000000 1.000000,1.000000 
	C641.000000,1.000000 1281.000000,1.000000 1921.000000,1.000000 
	C1921.000000,641.000000 1921.000000,1281.000000 1921.000000,1921.000000 
	C1634.166626,1921.000000 1347.333374,1921.000000 1060.000000,1921.000000 
M1003.307678,85.128777 
	C990.352051,77.735870 977.433105,70.277061 964.393616,63.035118 
	C962.800659,62.150425 960.061096,61.538326 958.697571,62.304008 
	C941.229431,72.113213 923.906006,82.180672 906.564087,92.214005 
	C877.041016,109.294792 847.549133,126.429581 818.009216,143.481171 
	C795.493347,156.478226 772.896118,169.334305 750.385376,182.340134 
	C728.022766,195.260406 705.750427,208.336929 683.388000,221.257492 
	C660.733154,234.347031 637.990845,247.285080 615.333923,260.370972 
	C590.675171,274.612976 566.101929,289.003021 541.434082,303.229156 
	C514.178467,318.947693 486.821289,334.490112 459.576019,350.226532 
	C433.197662,365.462250 406.946014,380.917358 380.564331,396.147186 
	C351.020630,413.202362 321.348938,430.035919 291.814026,447.106140 
	C256.837646,467.321350 222.014069,487.802368 186.930511,507.828705 
	C182.886948,510.136841 181.922791,512.460327 181.923981,516.677551 
	C182.007812,812.822815 182.000214,1108.968018 182.000412,1405.113281 
	C182.000412,1406.446533 181.724136,1407.861084 182.082458,1409.090332 
	C182.449890,1410.350830 183.164307,1411.878906 184.201935,1412.514526 
	C190.269669,1416.232178 196.467133,1419.739136 202.638748,1423.286011 
	C225.323624,1436.323364 248.042236,1449.302368 270.697144,1462.391479 
	C293.059753,1475.311768 315.328186,1488.395020 337.698029,1501.302612 
	C358.640076,1513.386353 379.694977,1525.274658 400.638092,1537.356689 
	C425.303833,1551.586304 449.878693,1565.973389 474.537537,1580.215210 
	C497.194489,1593.301025 519.936768,1606.239014 542.593750,1619.324829 
	C567.252441,1633.567017 591.828125,1647.952881 616.491699,1662.186523 
	C641.447876,1676.588989 666.502747,1690.820312 691.449158,1705.239746 
	C717.822815,1720.483643 744.078552,1735.931763 770.460754,1751.161011 
	C800.004883,1768.215332 829.673218,1785.054443 859.213928,1802.114502 
	C892.333923,1821.241333 925.361023,1840.529175 958.488892,1859.642578 
	C959.670898,1860.324463 961.846863,1860.516113 962.967529,1859.885010 
	C976.817200,1852.086060 990.567810,1844.110474 1004.321960,1836.142578 
	C1024.379517,1824.522949 1044.396362,1812.833252 1064.473022,1801.246948 
	C1082.974365,1790.569824 1101.560547,1780.039429 1120.056519,1769.353394 
	C1140.126099,1757.758179 1160.101318,1745.999634 1180.179077,1734.419189 
	C1200.979004,1722.422119 1221.886597,1710.612061 1242.685181,1698.612793 
	C1267.350708,1684.382935 1291.922974,1669.990967 1316.586304,1655.757324 
	C1341.542603,1641.354980 1366.594360,1627.118286 1391.542725,1612.702393 
	C1420.212402,1596.136353 1448.780396,1579.394775 1477.455566,1562.838501 
	C1504.703125,1547.105957 1532.070068,1531.579956 1559.314331,1515.842163 
	C1587.986694,1499.279663 1616.562622,1482.550293 1645.205444,1465.936523 
	C1674.997314,1448.656250 1704.729980,1431.269531 1734.725342,1414.348877 
	C1739.157104,1411.848755 1740.087036,1409.271851 1740.085571,1404.711304 
	C1739.990845,1108.899414 1740.000122,813.087463 1740.000000,517.275513 
	C1740.000000,516.275574 1739.896484,515.262756 1740.019775,514.278259 
	C1740.350342,511.639221 1739.317017,510.217590 1736.887085,508.861298 
	C1723.295898,501.274811 1709.833618,493.455597 1696.362915,485.654663 
	C1671.720581,471.384277 1647.134277,457.016663 1622.466431,442.790588 
	C1595.210693,427.072052 1567.852905,411.530579 1540.607300,395.794739 
	C1511.933960,379.234467 1483.373901,362.478027 1454.703491,345.912628 
	C1423.446777,327.852905 1392.099731,309.949341 1360.829712,291.912506 
	C1330.995972,274.704285 1301.204346,257.423096 1271.406616,240.152634 
	C1253.072266,229.526215 1234.789795,218.810181 1216.431396,208.225388 
	C1197.924805,197.555084 1179.326050,187.044357 1160.817627,176.376938 
	C1142.457642,165.794907 1124.180664,155.069000 1105.829468,144.471634 
	C1085.610229,132.795563 1065.328125,121.228355 1045.111450,109.547928 
	C1031.350586,101.597420 1017.655273,93.533737 1003.307678,85.128777 
z"/>
<path fill="#A3CEF1" opacity="1.000000" stroke="none" 
	d="
M1003.619141,85.324730 
	C1017.655273,93.533737 1031.350586,101.597420 1045.111450,109.547928 
	C1065.328125,121.228355 1085.610229,132.795563 1105.829468,144.471634 
	C1124.180664,155.069000 1142.457642,165.794907 1160.817627,176.376938 
	C1179.326050,187.044357 1197.924805,197.555084 1216.431396,208.225388 
	C1234.789795,218.810181 1253.072266,229.526215 1271.406616,240.152634 
	C1301.204346,257.423096 1330.995972,274.704285 1360.829712,291.912506 
	C1392.099731,309.949341 1423.446777,327.852905 1454.703491,345.912628 
	C1483.373901,362.478027 1511.933960,379.234467 1540.607300,395.794739 
	C1567.852905,411.530579 1595.210693,427.072052 1622.466431,442.790588 
	C1647.134277,457.016663 1671.720581,471.384277 1696.362915,485.654663 
	C1709.833618,493.455597 1723.295898,501.274811 1736.887085,508.861298 
	C1739.317017,510.217590 1740.350342,511.639221 1740.019775,514.278259 
	C1739.896484,515.262756 1740.000000,516.275574 1740.000000,517.275513 
	C1740.000122,813.087463 1739.990845,1108.899414 1740.085571,1404.711304 
	C1740.087036,1409.271851 1739.157104,1411.848755 1734.725342,1414.348877 
	C1704.729980,1431.269531 1674.997314,1448.656250 1645.205444,1465.936523 
	C1616.562622,1482.550293 1587.986694,1499.279663 1559.314331,1515.842163 
	C1532.070068,1531.579956 1504.703125,1547.105957 1477.455566,1562.838501 
	C1448.780396,1579.394775 1420.212402,1596.136353 1391.542725,1612.702393 
	C1366.594360,1627.118286 1341.542603,1641.354980 1316.586304,1655.757324 
	C1291.922974,1669.990967 1267.350708,1684.382935 1242.685181,1698.612793 
	C1221.886597,1710.612061 1200.979004,1722.422119 1180.179077,1734.419189 
	C1160.101318,1745.999634 1140.126099,1757.758179 1120.056519,1769.353394 
	C1101.560547,1780.039429 1082.974365,1790.569824 1064.473022,1801.246948 
	C1044.396362,1812.833252 1024.379517,1824.522949 1004.321960,1836.142578 
	C990.567810,1844.110474 976.817200,1852.086060 962.967529,1859.885010 
	C961.846863,1860.516113 959.670898,1860.324463 958.488892,1859.642578 
	C925.361023,1840.529175 892.333923,1821.241333 859.213928,1802.114502 
	C829.673218,1785.054443 800.004883,1768.215332 770.460754,1751.161011 
	C744.078552,1735.931763 717.822815,1720.483643 691.449158,1705.239746 
	C666.502747,1690.820312 641.447876,1676.588989 616.491699,1662.186523 
	C591.828125,1647.952881 567.252441,1633.567017 542.593750,1619.324829 
	C519.936768,1606.239014 497.194489,1593.301025 474.537537,1580.215210 
	C449.878693,1565.973389 425.303833,1551.586304 400.638092,1537.356689 
	C379.694977,1525.274658 358.640076,1513.386353 337.698029,1501.302612 
	C315.328186,1488.395020 293.059753,1475.311768 270.697144,1462.391479 
	C248.042236,1449.302368 225.323624,1436.323364 202.638748,1423.286011 
	C196.467133,1419.739136 190.269669,1416.232178 184.201935,1412.514526 
	C183.164307,1411.878906 182.449890,1410.350830 182.082458,1409.090332 
	C181.724136,1407.861084 182.000412,1406.446533 182.000412,1405.113281 
	C182.000214,1108.968018 182.007812,812.822815 181.923981,516.677551 
	C181.922791,512.460327 182.886948,510.136841 186.930511,507.828705 
	C222.014069,487.802368 256.837646,467.321350 291.814026,447.106140 
	C321.348938,430.035919 351.020630,413.202362 380.564331,396.147186 
	C406.946014,380.917358 433.197662,365.462250 459.576019,350.226532 
	C486.821289,334.490112 514.178467,318.947693 541.434082,303.229156 
	C566.101929,289.003021 590.675171,274.612976 615.333923,260.370972 
	C637.990845,247.285080 660.733154,234.347031 683.388000,221.257492 
	C705.750427,208.336929 728.022766,195.260406 750.385376,182.340134 
	C772.896118,169.334305 795.493347,156.478226 818.009216,143.481171 
	C847.549133,126.429581 877.041016,109.294792 906.564087,92.214005 
	C923.906006,82.180672 941.229431,72.113213 958.697571,62.304008 
	C960.061096,61.538326 962.800659,62.150425 964.393616,63.035118 
	C977.433105,70.277061 990.352051,77.735870 1003.619141,85.324730 
M523.692505,1494.848633 
	C523.995850,1494.990479 524.311829,1495.110352 524.600708,1495.277100 
	C668.765686,1578.510620 812.935364,1661.735962 957.046021,1745.063354 
	C960.090820,1746.823975 962.201843,1746.666138 965.103943,1744.973145 
	C989.809509,1730.560913 1014.601318,1716.296631 1039.372070,1701.996338 
	C1238.845825,1586.838989 1438.316040,1471.675781 1637.834595,1356.596436 
	C1640.987183,1354.778198 1642.084961,1352.814575 1642.083618,1349.177979 
	C1641.991699,1090.371948 1641.991333,831.565918 1642.086426,572.759949 
	C1642.087769,569.090576 1640.913452,567.152222 1637.783447,565.367432 
	C1613.803223,551.693542 1589.927612,537.836365 1566.019653,524.035828 
	C1365.535156,408.308899 1165.046875,292.588226 964.605225,176.787094 
	C961.943176,175.249146 960.135864,175.192505 957.448914,176.747162 
	C874.683716,224.634079 791.860901,272.421356 709.046143,320.222473 
	C567.608948,401.860779 426.179657,483.512817 284.686737,565.054321 
	C280.998749,567.179688 279.898376,569.524414 279.900177,573.692749 
	C280.011292,831.832153 280.011261,1089.971680 279.904053,1348.111084 
	C279.902252,1352.447388 281.051636,1354.838013 284.954987,1357.082642 
	C364.391418,1402.763550 443.727112,1448.619751 523.692505,1494.848633 
z"/>
<path fill="#243144" opacity="1.000000" stroke="none" 
	d="
M523.387695,1494.644775 
	C443.727112,1448.619751 364.391418,1402.763550 284.954987,1357.082642 
	C281.051636,1354.838013 279.902252,1352.447388 279.904053,1348.111084 
	C280.011261,1089.971680 280.011292,831.832153 279.900177,573.692749 
	C279.898376,569.524414 280.998749,567.179688 284.686737,565.054321 
	C426.179657,483.512817 567.608948,401.860779 709.046143,320.222473 
	C791.860901,272.421356 874.683716,224.634079 957.448914,176.747162 
	C960.135864,175.192505 961.943176,175.249146 964.605225,176.787094 
	C1165.046875,292.588226 1365.535156,408.308899 1566.019653,524.035828 
	C1589.927612,537.836365 1613.803223,551.693542 1637.783447,565.367432 
	C1640.913452,567.152222 1642.087769,569.090576 1642.086426,572.759949 
	C1641.991333,831.565918 1641.991699,1090.371948 1642.083618,1349.177979 
	C1642.084961,1352.814575 1640.987183,1354.778198 1637.834595,1356.596436 
	C1438.316040,1471.675781 1238.845825,1586.838989 1039.372070,1701.996338 
	C1014.601318,1716.296631 989.809509,1730.560913 965.103943,1744.973145 
	C962.201843,1746.666138 960.090820,1746.823975 957.046021,1745.063354 
	C812.935364,1661.735962 668.765686,1578.510620 524.600708,1495.277100 
	C524.311829,1495.110352 523.995850,1494.990479 523.387695,1494.644775 
M1327.508179,1214.889282 
	C1327.613403,1214.590210 1327.718750,1214.291016 1327.980103,1213.142334 
	C1324.644653,1193.485962 1321.948730,1173.693970 1317.811523,1154.207764 
	C1312.657715,1129.932495 1304.365967,1106.569336 1293.952393,1084.014893 
	C1275.693115,1044.467773 1250.899414,1010.022339 1215.972534,983.292908 
	C1210.953125,979.451721 1206.815430,974.054321 1203.335693,968.686096 
	C1194.859253,955.609314 1191.622803,940.578369 1190.172485,925.408875 
	C1188.351196,906.359619 1188.873657,887.184021 1192.076294,868.273926 
	C1194.748291,852.497559 1197.089722,836.499817 1201.732788,821.256592 
	C1211.952759,787.703369 1223.539185,754.566650 1234.555298,721.255676 
	C1236.142822,716.455139 1237.659912,711.631348 1239.352173,706.375427 
	C1237.938477,706.787842 1237.265625,706.891113 1236.675415,707.169556 
	C1195.608398,726.535156 1153.953003,744.759644 1113.613770,765.539124 
	C1035.140259,805.962402 968.261597,861.335510 910.892151,928.273682 
	C902.041687,938.600342 893.752808,949.408264 885.016602,960.225952 
	C884.476990,959.622864 883.900818,959.070068 883.429443,958.438965 
	C861.050476,928.484070 836.142578,900.798340 808.979736,875.109497 
	C768.038086,836.389465 723.842224,801.811462 674.141296,775.211975 
	C637.119324,755.398132 598.657471,738.271729 560.805481,720.013611 
	C551.132690,715.347961 541.340820,710.929382 530.578918,705.920410 
	C531.347412,709.021851 531.719360,711.088684 532.369873,713.063904 
	C543.930481,748.167908 555.368774,783.313477 567.163635,818.338806 
	C575.961548,844.464600 579.481628,871.507568 580.720703,898.777710 
	C581.329773,912.183411 579.913757,925.865662 577.799316,939.166016 
	C574.860962,957.649048 567.280945,973.992920 551.654541,985.786438 
	C529.740784,1002.325256 512.041931,1022.841797 497.355927,1045.905396 
	C466.918793,1093.705322 451.102448,1146.562256 444.018433,1202.355347 
	C443.467804,1206.692017 443.216339,1211.066772 442.805450,1215.651123 
	C475.734283,1215.651123 507.680145,1215.651123 540.079163,1215.651123 
	C541.075745,1208.372681 541.499268,1201.085327 543.142212,1194.084229 
	C547.679626,1174.748779 552.207336,1155.407227 559.655884,1136.871704 
	C571.971619,1106.224121 588.879700,1079.058838 616.022156,1059.161011 
	C620.819946,1055.643799 625.098633,1051.318848 629.210693,1046.981689 
	C658.546692,1016.040527 671.658997,978.091492 675.854553,936.596497 
	C677.156616,923.719177 676.664429,910.660889 677.006653,897.685791 
	C677.047058,896.152344 677.170105,894.621155 677.297363,892.319214 
	C679.526733,893.856140 681.022827,894.837830 682.467224,895.890503 
	C718.140015,921.890320 750.677246,951.378784 779.768860,984.554932 
	C800.800293,1008.539307 820.600464,1033.482178 833.710754,1062.522217 
	C839.510315,1062.522217 845.156616,1062.524292 850.802979,1062.521973 
	C877.799744,1062.510864 904.797241,1062.401245 931.792603,1062.589722 
	C935.921753,1062.618530 937.638184,1061.210205 939.469910,1057.568848 
	C943.939697,1048.683228 948.708984,1039.859497 954.266907,1031.624512 
	C987.372864,982.572266 1028.723145,941.321472 1075.166504,904.971680 
	C1080.834595,900.535522 1086.675537,896.320312 1092.999390,891.580811 
	C1092.999390,899.488525 1093.143555,906.341248 1092.971802,913.186157 
	C1092.495483,932.172546 1095.556274,950.737976 1100.155029,969.012207 
	C1109.321289,1005.436035 1126.855469,1036.928345 1156.978760,1060.254761 
	C1173.310425,1072.901489 1186.412231,1088.122437 1196.631104,1105.909424 
	C1215.236572,1138.294434 1224.710205,1173.636475 1229.950073,1210.300171 
	C1230.324463,1212.919556 1230.239990,1215.026367 1234.011230,1215.004272 
	C1265.003296,1214.822754 1295.996582,1214.827026 1327.508179,1214.889282 
M1471.294434,987.769653 
	C1473.868408,979.992310 1476.442261,972.214905 1479.336426,963.469849 
	C1461.154175,971.859131 1444.042725,979.627747 1427.091309,987.731445 
	C1424.901978,988.777954 1422.702637,991.273560 1421.921509,993.577209 
	C1408.463745,1033.269043 1395.050537,1072.978149 1382.018433,1112.811157 
	C1375.415283,1132.994141 1366.487549,1152.555420 1364.536743,1174.071533 
	C1363.332031,1187.357788 1363.320679,1200.600342 1366.108765,1213.709717 
	C1378.168579,1213.709717 1389.881470,1213.709717 1400.597534,1213.709717 
	C1404.723511,1196.944336 1407.733276,1180.506104 1412.832764,1164.743896 
	C1431.875000,1105.885986 1451.601929,1047.249756 1471.294434,987.769653 
M786.551270,1118.951294 
	C764.187927,1099.806396 739.701477,1084.597168 710.748596,1077.408936 
	C699.415771,1074.595337 688.054565,1074.701782 676.197998,1075.260010 
	C678.110413,1076.439819 679.644775,1077.130981 680.869690,1078.182617 
	C690.627991,1086.559692 694.966248,1098.067017 698.899231,1109.781982 
	C699.090942,1110.353027 698.883423,1111.107056 698.722107,1111.740112 
	C697.005737,1118.474976 694.990417,1125.149170 693.647095,1131.956421 
	C693.044739,1135.008911 693.371765,1138.401367 693.970215,1141.505859 
	C695.937073,1151.709961 703.800415,1155.978516 712.572327,1159.022705 
	C725.616516,1163.549805 739.293701,1165.308350 752.897278,1165.792114 
	C774.852112,1166.572632 796.855103,1166.030029 818.837402,1165.957397 
	C820.991455,1165.950317 823.143433,1165.322998 826.318665,1164.822388 
	C815.668335,1146.653809 801.838135,1132.646484 786.551270,1118.951294 
M991.500000,1166.001709 
	C1008.131836,1164.992310 1024.849487,1164.689331 1041.360352,1162.684448 
	C1050.008057,1161.634521 1058.497437,1158.093872 1066.667358,1154.728882 
	C1071.831421,1152.602173 1075.543091,1148.002563 1076.035034,1142.034302 
	C1076.850952,1132.136841 1075.213745,1122.506470 1072.101562,1113.077759 
	C1071.560181,1111.437866 1071.535522,1109.273193 1072.130127,1107.668823 
	C1076.708618,1095.313354 1081.392700,1082.967896 1093.523071,1075.307983 
	C1077.903198,1073.988403 1063.138428,1075.502808 1048.781860,1080.527344 
	C1008.161499,1094.743530 976.639221,1121.018188 950.635254,1154.578735 
	C948.333008,1157.550049 946.544067,1160.919312 944.386047,1164.308838 
	C945.838379,1165.031372 946.679260,1165.810425 947.526550,1165.817383 
	C961.850586,1165.935791 976.175354,1165.958130 991.500000,1166.001709 
M1324.381348,1098.122192 
	C1330.805054,1118.595825 1337.228638,1139.069458 1343.076416,1157.707764 
	C1359.442017,1107.877808 1376.393555,1056.264160 1393.758911,1003.390076 
	C1361.938477,1018.210632 1331.322754,1032.470093 1301.220947,1046.490234 
	C1309.009277,1063.835327 1316.545654,1080.619507 1324.381348,1098.122192 
z"/>
<path fill="#FFFFFF" opacity="1.000000" stroke="none" 
	d="
M1326.989502,1214.775024 
	C1295.996582,1214.827026 1265.003296,1214.822754 1234.011230,1215.004272 
	C1230.239990,1215.026367 1230.324463,1212.919556 1229.950073,1210.300171 
	C1224.710205,1173.636475 1215.236572,1138.294434 1196.631104,1105.909424 
	C1186.412231,1088.122437 1173.310425,1072.901489 1156.978760,1060.254761 
	C1126.855469,1036.928345 1109.321289,1005.436035 1100.155029,969.012207 
	C1095.556274,950.737976 1092.495483,932.172546 1092.971802,913.186157 
	C1093.143555,906.341248 1092.999390,899.488525 1092.999390,891.580811 
	C1086.675537,896.320312 1080.834595,900.535522 1075.166504,904.971680 
	C1028.723145,941.321472 987.372864,982.572266 954.266907,1031.624512 
	C948.708984,1039.859497 943.939697,1048.683228 939.469910,1057.568848 
	C937.638184,1061.210205 935.921753,1062.618530 931.792603,1062.589722 
	C904.797241,1062.401245 877.799744,1062.510864 850.802979,1062.521973 
	C845.156616,1062.524292 839.510315,1062.522217 833.710754,1062.522217 
	C820.600464,1033.482178 800.800293,1008.539307 779.768860,984.554932 
	C750.677246,951.378784 718.140015,921.890320 682.467224,895.890503 
	C681.022827,894.837830 679.526733,893.856140 677.297363,892.319214 
	C677.170105,894.621155 677.047058,896.152344 677.006653,897.685791 
	C676.664429,910.660889 677.156616,923.719177 675.854553,936.596497 
	C671.658997,978.091492 658.546692,1016.040527 629.210693,1046.981689 
	C625.098633,1051.318848 620.819946,1055.643799 616.022156,1059.161011 
	C588.879700,1079.058838 571.971619,1106.224121 559.655884,1136.871704 
	C552.207336,1155.407227 547.679626,1174.748779 543.142212,1194.084229 
	C541.499268,1201.085327 541.075745,1208.372681 540.079163,1215.651123 
	C507.680145,1215.651123 475.734283,1215.651123 442.805450,1215.651123 
	C443.216339,1211.066772 443.467804,1206.692017 444.018433,1202.355347 
	C451.102448,1146.562256 466.918793,1093.705322 497.355927,1045.905396 
	C512.041931,1022.841797 529.740784,1002.325256 551.654541,985.786438 
	C567.280945,973.992920 574.860962,957.649048 577.799316,939.166016 
	C579.913757,925.865662 581.329773,912.183411 580.720703,898.777710 
	C579.481628,871.507568 575.961548,844.464600 567.163635,818.338806 
	C555.368774,783.313477 543.930481,748.167908 532.369873,713.063904 
	C531.719360,711.088684 531.347412,709.021851 530.578918,705.920410 
	C541.340820,710.929382 551.132690,715.347961 560.805481,720.013611 
	C598.657471,738.271729 637.119324,755.398132 674.141296,775.211975 
	C723.842224,801.811462 768.038086,836.389465 808.979736,875.109497 
	C836.142578,900.798340 861.050476,928.484070 883.429443,958.438965 
	C883.900818,959.070068 884.476990,959.622864 885.016602,960.225952 
	C893.752808,949.408264 902.041687,938.600342 910.892151,928.273682 
	C968.261597,861.335510 1035.140259,805.962402 1113.613770,765.539124 
	C1153.953003,744.759644 1195.608398,726.535156 1236.675415,707.169556 
	C1237.265625,706.891113 1237.938477,706.787842 1239.352173,706.375427 
	C1237.659912,711.631348 1236.142822,716.455139 1234.555298,721.255676 
	C1223.539185,754.566650 1211.952759,787.703369 1201.732788,821.256592 
	C1197.089722,836.499817 1194.748291,852.497559 1192.076294,868.273926 
	C1188.873657,887.184021 1188.351196,906.359619 1190.172485,925.408875 
	C1191.622803,940.578369 1194.859253,955.609314 1203.335693,968.686096 
	C1206.815430,974.054321 1210.953125,979.451721 1215.972534,983.292908 
	C1250.899414,1010.022339 1275.693115,1044.467773 1293.952393,1084.014893 
	C1304.365967,1106.569336 1312.657715,1129.932495 1317.811523,1154.207764 
	C1321.948730,1173.693970 1324.644653,1193.485962 1327.720703,1213.647949 
	C1327.224365,1214.300415 1327.067139,1214.507568 1326.989502,1214.775024 
z"/>
<path fill="#58A5F0" opacity="1.000000" stroke="none" 
	d="
M1471.183228,988.149963 
	C1451.601929,1047.249756 1431.875000,1105.885986 1412.832764,1164.743896 
	C1407.733276,1180.506104 1404.723511,1196.944336 1400.597534,1213.709717 
	C1389.881470,1213.709717 1378.168579,1213.709717 1366.108765,1213.709717 
	C1363.320679,1200.600342 1363.332031,1187.357788 1364.536743,1174.071533 
	C1366.487549,1152.555420 1375.415283,1132.994141 1382.018433,1112.811157 
	C1395.050537,1072.978149 1408.463745,1033.269043 1421.921509,993.577209 
	C1422.702637,991.273560 1424.901978,988.777954 1427.091309,987.731445 
	C1444.042725,979.627747 1461.154175,971.859131 1479.336426,963.469849 
	C1476.442261,972.214905 1473.868408,979.992310 1471.183228,988.149963 
z"/>
<path fill="#FEFEFE" opacity="1.000000" stroke="none" 
	d="
M786.805054,1119.198486 
	C801.838135,1132.646484 815.668335,1146.653809 826.318665,1164.822388 
	C823.143433,1165.322998 820.991455,1165.950317 818.837402,1165.957397 
	C796.855103,1166.030029 774.852112,1166.572632 752.897278,1165.792114 
	C739.293701,1165.308350 725.616516,1163.549805 712.572327,1159.022705 
	C703.800415,1155.978516 695.937073,1151.709961 693.970215,1141.505859 
	C693.371765,1138.401367 693.044739,1135.008911 693.647095,1131.956421 
	C694.990417,1125.149170 697.005737,1118.474976 698.722107,1111.740112 
	C698.883423,1111.107056 699.090942,1110.353027 698.899231,1109.781982 
	C694.966248,1098.067017 690.627991,1086.559692 680.869690,1078.182617 
	C679.644775,1077.130981 678.110413,1076.439819 676.197998,1075.260010 
	C688.054565,1074.701782 699.415771,1074.595337 710.748596,1077.408936 
	C739.701477,1084.597168 764.187927,1099.806396 786.805054,1119.198486 
z"/>
<path fill="#FEFEFE" opacity="1.000000" stroke="none" 
	d="
M991.000000,1166.001709 
	C976.175354,1165.958130 961.850586,1165.935791 947.526550,1165.817383 
	C946.679260,1165.810425 945.838379,1165.031372 944.386047,1164.308838 
	C946.544067,1160.919312 948.333008,1157.550049 950.635254,1154.578735 
	C976.639221,1121.018188 1008.161499,1094.743530 1048.781860,1080.527344 
	C1063.138428,1075.502808 1077.903198,1073.988403 1093.523071,1075.307983 
	C1081.392700,1082.967896 1076.708618,1095.313354 1072.130127,1107.668823 
	C1071.535522,1109.273193 1071.560181,1111.437866 1072.101562,1113.077759 
	C1075.213745,1122.506470 1076.850952,1132.136841 1076.035034,1142.034302 
	C1075.543091,1148.002563 1071.831421,1152.602173 1066.667358,1154.728882 
	C1058.497437,1158.093872 1050.008057,1161.634521 1041.360352,1162.684448 
	C1024.849487,1164.689331 1008.131836,1164.992310 991.000000,1166.001709 
z"/>
<path fill="#58A5EF" opacity="1.000000" stroke="none" 
	d="
M1324.231689,1097.762939 
	C1316.545654,1080.619507 1309.009277,1063.835327 1301.220947,1046.490234 
	C1331.322754,1032.470093 1361.938477,1018.210632 1393.758911,1003.390076 
	C1376.393555,1056.264160 1359.442017,1107.877808 1343.076416,1157.707764 
	C1337.228638,1139.069458 1330.805054,1118.595825 1324.231689,1097.762939 
z"/>
<path fill="#E4E6E8" opacity="1.000000" stroke="none" 
	d="
M1327.248779,1214.832153 
	C1327.067139,1214.507568 1327.224365,1214.300415 1327.642578,1214.072754 
	C1327.718750,1214.291016 1327.613403,1214.590210 1327.248779,1214.832153 
z"/>
</svg>