<?xml version="1.0" standalone="no"?>
<!DOCTYPE svg PUBLIC "-//W3C//DTD SVG 20010904//EN"
 "http://www.w3.org/TR/2001/REC-SVG-20010904/DTD/svg10.dtd">
<svg version="1.0" xmlns="http://www.w3.org/2000/svg"
 width="1920.000000pt" height="1920.000000pt" viewBox="0 0 1920.000000 1920.000000"
 preserveAspectRatio="xMidYMid meet">

<g transform="translate(0.000000,1920.000000) scale(0.100000,-0.100000)"
fill="#000000" stroke="none">
<path d="M6195 15497 l-3400 -1963 0 -3934 0 -3934 3400 -1963 c1870 -1079
3402 -1963 3405 -1963 3 0 1535 884 3405 1963 l3400 1963 0 3934 0 3934 -3400
1963 c-1870 1079 -3402 1963 -3405 1963 -3 0 -1535 -884 -3405 -1963z m-306
-3622 c738 -343 893 -426 1271 -678 583 -388 1189 -951 1590 -1475 47 -61 88
-110 91 -109 4 1 42 47 85 102 574 739 1375 1412 2182 1833 215 112 1266 601
1270 591 2 -5 -82 -267 -187 -581 -224 -674 -258 -804 -292 -1136 -17 -166 -6
-513 19 -622 55 -232 114 -326 305 -483 491 -404 836 -1049 991 -1852 26 -137
56 -339 56 -380 l0 -25 -487 2 -486 3 -23 139 c-57 339 -150 629 -280 875
-114 216 -239 370 -418 514 -206 167 -332 323 -445 552 -143 289 -210 596
-213 974 l-1 170 -31 -21 c-205 -143 -474 -374 -721 -622 -359 -359 -626 -701
-762 -973 l-46 -93 -513 0 -513 0 -52 101 c-227 442 -807 1074 -1389 1513
l-115 87 -7 -186 c-21 -559 -154 -962 -426 -1288 -63 -76 -144 -151 -286 -267
-312 -253 -562 -792 -649 -1395 l-13 -90 -487 -3 -487 -2 0 35 c0 101 55 417
112 639 71 280 154 509 269 739 189 379 401 645 711 896 182 147 264 347 283
696 13 222 -26 563 -95 842 -17 68 -114 370 -215 673 -102 302 -185 556 -185
564 0 17 -40 35 589 -259z m8886 -2317 c-2 -7 -159 -481 -349 -1053 -337
-1017 -379 -1157 -414 -1380 l-7 -50 -177 -3 -177 -2 -8 47 c-15 88 -9 371 10
458 9 44 142 454 294 910 l277 831 275 127 c152 69 277 127 278 127 1 0 1 -6
-2 -12z m-1074 -1060 c-121 -365 -234 -717 -250 -783 -24 -101 -30 -115 -36
-90 -91 390 -200 695 -351 984 -35 68 -61 128 -57 132 12 12 907 428 912 424
1 -2 -96 -302 -218 -667z m-6646 -53 c363 -75 767 -338 1061 -690 46 -55 95
-121 109 -147 l26 -47 -35 -7 c-20 -3 -208 -4 -418 -1 -412 5 -516 15 -668 63
-193 61 -237 158 -176 393 l27 103 -21 56 c-53 142 -123 241 -199 283 l-36 20
125 -5 c69 -2 161 -12 205 -21z m3890 15 c-3 -5 -13 -10 -21 -10 -45 0 -160
-165 -203 -291 -16 -49 -16 -52 11 -157 43 -168 33 -247 -38 -314 -65 -61
-228 -107 -454 -127 -143 -14 -769 -14 -790 -1 -13 8 -12 13 4 42 38 66 146
195 245 295 189 189 375 325 576 423 167 81 284 116 475 144 60 8 201 6 195
-4z"/>
</g>
</svg>
