<svg xmlns="http://www.w3.org/2000/svg" width="1000" height="1000" fill="none" viewBox="0 0 1000 1000"><g clip-path="url(#a)"><mask id="b" width="1000" height="1000" x="0" y="0" maskUnits="userSpaceOnUse" style="mask-type:alpha"><circle cx="500" cy="500" r="500" fill="#2764C1"/></mask><g mask="url(#b)"><path fill="#D631B9" d="M0 0h1000v1000H0z"/><path fill="#2362C0" d="M0 500h1000v500H0z"/><path fill="#2764C1" d="M495.652 253h100.467c13.707 0 25.97 7.959 30.755 19.961l88.184 221.187a7.2 7.2 0 0 1 .023 5.295l-.494 1.271-.005.012-87.813 225.798c-4.715 12.122-17.043 20.192-30.846 20.192H495.471c-5.649 0-9.609-5.21-7.747-10.193l90.547-242.375-90.325-230.849c-1.957-5.002 2.006-10.299 7.706-10.299m-262.259 0H333.86c13.707 0 25.97 7.959 30.754 19.961l88.185 221.187a7.2 7.2 0 0 1 .023 5.295l-.495 1.271-.005.012-87.813 225.798c-4.714 12.122-17.042 20.192-30.845 20.192H233.212c-5.649 0-9.609-5.21-7.747-10.193l90.547-242.375-90.325-230.849c-1.957-5.002 2.006-10.299 7.706-10.299"/><mask id="c" width="493" height="246" x="225" y="500" maskUnits="userSpaceOnUse" style="mask-type:alpha"><path fill="#D9D9D9" d="M225 500h493v246H225z"/></mask><g fill="#D631B9" mask="url(#c)"><path d="M495.652 251.796h100.467c13.707 0 25.97 7.962 30.755 19.969l88.184 221.279a7.2 7.2 0 0 1 .023 5.296l-.494 1.272-.005.012-87.813 225.891c-4.715 12.127-17.043 20.201-30.846 20.201H495.471c-5.649 0-9.609-5.212-7.747-10.197l90.547-242.475-90.325-230.945c-1.957-5.004 2.006-10.303 7.706-10.303m-262.259 0H333.86c13.707 0 25.97 7.962 30.754 19.969l88.185 221.279a7.2 7.2 0 0 1 .023 5.296l-.495 1.272-.005.012-87.813 225.891c-4.714 12.127-17.042 20.201-30.845 20.201H233.212c-5.649 0-9.609-5.212-7.747-10.197l90.547-242.475-90.325-230.945c-1.957-5.004 2.006-10.303 7.706-10.303"/><path d="M563.826 445.877H422v107.044h141.826L587 497.87z"/></g><path fill="#2764C1" d="M563.826 447H422v107h141.826L587 498.971z"/><path fill="#fff" d="M553.652 253h100.467c13.707 0 25.97 7.959 30.755 19.961l88.184 221.187a7.2 7.2 0 0 1 .023 5.295l-.494 1.271-.005.012-87.813 225.798c-4.715 12.122-17.043 20.192-30.846 20.192H553.471c-5.649 0-9.609-5.21-7.747-10.193l90.547-242.375-90.325-230.849c-1.957-5.002 2.006-10.299 7.706-10.299m-262.259 0H391.86c13.707 0 25.97 7.959 30.754 19.961l88.185 221.187a7.2 7.2 0 0 1 .023 5.295l-.495 1.271-.005.012-87.813 225.798c-4.714 12.122-17.042 20.192-30.845 20.192H291.212c-5.649 0-9.609-5.21-7.747-10.193l90.547-242.375-90.325-230.849c-1.957-5.002 2.006-10.299 7.706-10.299"/><path fill="#fff" d="M621.826 447H480v107h141.826L645 498.971z"/></g></g><defs><clipPath id="a"><path fill="#fff" d="M0 0h1000v1000H0z"/></clipPath></defs></svg>