<svg xmlns="http://www.w3.org/2000/svg" fill="none" viewBox="0 0 64 64"><rect width="64" height="64" fill="#000" rx="8"/><path fill="#03D498" fill-rule="evenodd" d="m32.6 7.5-.8-.4-.7.4-11.5 6.7-.8.4V28L8.1 34.2l-.8.4v15.1l.8.4 11.5 6.7.7.4.8-.4 10.7-6.3 10.8 6.3.7.4.8-.4L55.6 50l.8-.4v-15l-.8-.4L45 28V14.6l-.8-.4-11.5-6.7Zm-10.8 8.9 10-5.8 10 5.8v11.5L34 32.5a3.3 3.3 0 0 0-4.3 0l-7.9-4.6zm6.8 19-8.3-4.8-10 5.7V48l10 5.8 10-5.8V38c-1-.5-1.6-1.4-1.7-2.6m4.7 2.6v10l10 5.7 10-5.8V36.3l-10-5.7-8.1 4.7a3.3 3.3 0 0 1-1.9 2.7" clip-rule="evenodd"/><path stroke="#fff" stroke-linecap="round" stroke-width="3" d="m31.8 22.2 11.6 6.6v13.4l-11.6 6.6-11.5-6.6V28.8z" clip-rule="evenodd"/></svg>