<?xml version="1.0" encoding="UTF-8"?>
<svg id="Layer_1" xmlns="http://www.w3.org/2000/svg" version="1.1" viewBox="0 0 597 595.3">
  <!-- Generator: Adobe Illustrator 29.5.1, SVG Export Plug-In . SVG Version: 2.1.0 Build 141)  -->
  <defs>
    <style>
      .st0 {
        fill: #fff;
      }

      .st1 {
        fill: #ff0420;
        fill-rule: evenodd;
      }

      .st2 {
        fill: #d3b25a;
      }
    </style>
  </defs>
  <path class="st2" d="M298.5,591.8c162.5,0,294.2-131.7,294.2-294.2S461,3.4,298.5,3.4,4.3,135.2,4.3,297.6s131.7,294.2,294.2,294.2Z"/>
  <path class="st0" d="M530,295v4.3c-102.1,50.8-178.5,127.3-229.3,229.3h-4.3c-50.8-102-127.3-178.5-229.3-229.3v-4.3c102.1-50.8,178.5-127.3,229.3-229.3h4.3c50.8,102.1,127.3,178.5,229.3,229.3Z"/>
  <path class="st1" d="M314.3,376.2v28.4h-32.9v-28.7c-7.6-1-14.3-2.7-20.1-5.2-10.1-4.3-17.7-10.4-22.8-18.2-5-7.9-7.4-17.3-7.4-28.1h37.4c0,4,1.1,7.6,3.4,10.8,2.3,3.1,5.6,5.6,10.1,7.4,4.7,1.6,10.4,2.5,17.4,2.5s16.1-1.4,21.2-4.3c5.3-3,7.9-7.3,7.9-12.8s-2.2-8.4-6.5-11.2c-4.2-3-11.3-4.9-21.2-5.8l-10.4-.9c-16.5-1.5-29.7-6.4-39.5-14.8-9.8-8.5-14.7-20.5-14.7-35.9s2.3-19.5,7-26.5c4.7-7,11.4-12.3,20.3-15.7,5.1-2,10.7-3.5,16.9-4.4v-22.8h32.9v23.2c6,1,11.3,2.7,16,4.9,9.2,4,16.1,9.9,20.7,17.5,4.7,7.6,7,16.9,7,27.9h-37.4c0-3.9-1-7.3-2.9-10.1-2-3-4.7-5.3-8.3-7-3.5-1.8-7.7-2.7-12.9-2.7s-8.6.7-11.9,2c-3.2,1.2-5.6,3-7.4,5.4-1.7,2.2-2.5,5-2.5,8.3s1.5,7.8,4.5,11.2c3.2,3.3,8.4,5.3,15.8,6.1l10.4.9c18.6,1.5,33.5,6.4,44.6,14.8,11.3,8.2,16.9,20.1,16.9,35.7s-2.6,19.6-7.7,27c-5.1,7.2-12.6,12.7-22.5,16.4-6.3,2.4-13.4,4-21.4,4.9Z"/>
  <path class="st2" d="M261.3,370.7c-10.1-4.3-17.7-10.4-22.8-18.2-5-7.9-7.4-17.3-7.4-28.1h37.4c0,4,1.1,7.6,3.4,10.8,2.3,3.1,5.6,5.6,10.1,7.4,4.7,1.6,10.4,2.5,17.4,2.5s16.1-1.4,21.2-4.3c5.3-3,7.9-7.3,7.9-12.8s-2.2-8.4-6.5-11.2c-4.2-3-11.3-4.9-21.2-5.8l-10.4-.9c-16.5-1.5-29.7-6.4-39.5-14.8-9.8-8.5-14.7-20.5-14.7-35.9s2.3-19.5,7-26.5c4.7-7,11.4-12.3,20.3-15.7,5.1-2,10.7-3.5,16.9-4.4v-22.8h32.9v23.2c6,1,11.3,2.7,16,4.9,9.2,4,16.1,9.9,20.7,17.5,4.7,7.6,7,16.9,7,27.9h-37.4c0-3.9-1-7.3-2.9-10.1-2-3-4.7-5.3-8.3-7-3.5-1.8-7.7-2.7-12.9-2.7s-8.6.7-11.9,2c-3.2,1.2-5.6,3-7.4,5.4-1.7,2.2-2.5,5-2.5,8.3s1.5,7.8,4.5,11.2c3.2,3.3,8.4,5.3,15.8,6.1l10.4.9c18.6,1.5,33.5,6.4,44.6,14.8,11.3,8.2,16.9,20.1,16.9,35.7s-2.6,19.6-7.7,27c-5.1,7.2-12.6,12.7-22.5,16.4-6.3,2.4-13.4,4-21.4,4.9v28.4h-32.9v-28.7c-7.6-1-14.3-2.7-20.1-5.2Z"/>
</svg>