<svg width="635" height="572" viewBox="0 0 635 572" fill="none" xmlns="http://www.w3.org/2000/svg">
<path d="M318.771 152.246C311.555 139.991 320.391 124.536 334.613 124.536H566.937C573.449 124.536 579.476 127.981 582.779 133.592L631.757 216.777C638.972 229.032 630.136 244.487 615.915 244.487H383.59C377.078 244.487 371.052 241.042 367.748 235.431L318.771 152.246Z" fill="black"/>
<path d="M277.496 11.0168C271.596 -1.92271 253.867 -3.54982 245.71 8.09949L112.454 198.404C108.719 203.738 108.085 210.65 110.786 216.575L150.837 304.406C156.737 317.346 174.466 318.973 182.623 307.324L315.879 117.02C319.614 111.685 320.249 104.773 317.547 98.8483L277.496 11.0168Z" fill="black"/>
<path d="M315.556 419.165C322.771 431.42 313.935 446.875 299.714 446.875L67.389 446.875C60.877 446.875 54.8509 443.43 51.5469 437.819L2.56974 354.634C-4.64566 342.379 4.19021 326.924 18.4118 326.924H250.736C257.248 326.924 263.275 330.369 266.578 335.98L315.556 419.165Z" fill="black"/>
<path d="M356.83 560.395C362.73 573.334 380.459 574.961 388.616 563.312L521.872 373.008C525.607 367.673 526.242 360.761 523.54 354.836L483.49 267.005C477.589 254.065 459.861 252.438 451.703 264.088L318.447 454.392C314.712 459.726 314.078 466.638 316.78 472.563L356.83 560.395Z" fill="black"/>
</svg>
