<svg xmlns="http://www.w3.org/2000/svg" width="635" height="572" fill="none" viewBox="0 0 635 572"><path fill="#000" d="M318.771 152.246c-7.216-12.255 1.62-27.71 15.842-27.71h232.324a18.38 18.38 0 0 1 15.842 9.056l48.978 83.185c7.215 12.255-1.621 27.71-15.842 27.71H383.59a18.39 18.39 0 0 1-15.842-9.056zM277.496 11.017c-5.9-12.94-23.629-14.567-31.786-2.918L112.454 198.404a18.39 18.39 0 0 0-1.668 18.171l40.051 87.831c5.9 12.94 23.629 14.567 31.786 2.918L315.879 117.02a18.38 18.38 0 0 0 1.668-18.172zm38.06 408.148c7.215 12.255-1.621 27.71-15.842 27.71H67.389a18.39 18.39 0 0 1-15.842-9.056L2.57 354.634c-7.216-12.255 1.62-27.71 15.842-27.71h232.324a18.38 18.38 0 0 1 15.842 9.056zm41.274 141.23c5.9 12.939 23.629 14.566 31.786 2.917l133.256-190.304a18.38 18.38 0 0 0 1.668-18.172l-40.05-87.831c-5.901-12.94-23.629-14.567-31.787-2.917L318.447 454.392a18.38 18.38 0 0 0-1.667 18.171z"/></svg>