<svg xmlns="http://www.w3.org/2000/svg" viewBox="0 0 200 200"><path fill="#EDDEDB" d="M0 0h200v200H0z"/><path fill="#754C47" d="M58.063 43.938C63.246 44.812 67.335 48.4 71 52v2l1.625.75C75 56 75 56 77.619 58.025c4.145 2.421 7.148 2.687 11.858 2.83.806.034 1.613.067 2.444.1q2.553.094 5.108.159c2.57.073 5.133.205 7.701.341 9.563.364 15.904-.102 23.862-5.839C132.087 53.27 134.855 53.08 139 53c2.64 2.57 3.215 4.568 3.336 8.125q.03 2.438.039 4.875c.188 7.282 1.238 12.808 4.414 19.453 4.734 9.958 4.875 22.86 1.25 33.176-6.015 13.726-14.562 20.56-28.039 26.371-4.404 1.311-8.69 1.184-13.25 1.188l-2.488.037c-11.46.027-22.156-3.65-30.676-11.51-10.596-11.457-15.007-27.12-18.086-42.028-1.277-6.1-2.572-12.136-4.313-18.124C48.754 65.073 48.508 54.82 53 46c2-2 2-2 5.063-2.063Z"/><path fill="#341512" d="M119 78h2v4l2.625.25c7.365 1.637 12.11 6.934 16.688 12.625 3.356 6.233 2.783 14.967 1.027 21.629-3.41 7.542-9.978 13.202-17.403 16.61-7.622 2.3-16.026 2.222-23.312-1.114-7.536-4.459-15.195-10.23-17.625-19-1.3-8.443 1.328-14.58 5.625-21.688 5.391-5.249 13.088-10.06 20.707-10.507l3.48.07 3.52.055L119 81z"/><path fill="#E5CEC9" d="M101 63c9.18-.66 15.486-.795 23.34 4.492L126 69v2h-3c3.16 3.493 6.559 5.559 11.063 6.938C140.55 80.284 143.084 86.12 146 92c3.815 8.183 2.694 18.544 0 27-5.148 11.592-13.045 18.728-24.71 23.68-4.836 1.728-9.509 1.816-14.603 1.757l-2.813-.022C96.95 144.248 91.144 143.373 85 140l-2.371-1.25c-7.024-4.17-12.785-10.318-15.938-17.895C66 118 66 118 67.375 115.312L69 113v-3c.468-5.5.468-5.5 3.063-7.938 2.322-2 2.322-2 1.937-5.437 0-5.48 2.797-8.222 6.25-12.25 2.145-2.42 2.145-2.42 1.75-6.375 4.225-2.817 8.082-2.434 13.066-2.656 3.054-.05 3.054-.05 4.934-2.344h-7l-1-1-1.688.938C87.876 74.058 85.638 74.56 83 75c1.6-4.8 5.63-6.733 10-9 2.775-.712 5.116-.895 8-1zm18 15v3c-.8-.07-1.598-.14-2.422-.21-10.282-.508-17.725 2.065-25.578 8.772L89 92l-2.188 2.438C82.805 100.103 82.028 106.224 83 113c3.059 8.736 9.804 14.336 17.563 18.938 7.433 3.43 15.824 3.596 23.562 1.023 7.208-3.584 13.37-9.056 17.063-16.285 2.127-7.007 2.155-16.13-1.188-22.739-3.594-5.426-9.02-9.43-15-11.937h-4v-4z"/><path fill="#FBF3F3" d="M101 63c9.18-.66 15.486-.795 23.34 4.492L126 69v2h-3c3.16 3.493 6.559 5.559 11.063 6.938 4.574 1.654 6.343 4.039 8.75 8.187L144 89l-1 2c-3.945-2.284-7.636-4.806-11.313-7.5l-3.238-2.344L126 79v-3l-12-1 1 3-1.941.55c-4.02 1.169-7.944 2.313-11.746 4.075C97.829 84.071 94.719 84.499 91 85l-3 2v-2h-7l1-3v-4c4.225-2.817 8.082-2.434 13.066-2.656 3.054-.05 3.054-.05 4.934-2.344h-7l-1-1-1.688.938C87.876 74.058 85.638 74.56 83 75c1.6-4.8 5.63-6.733 10-9 2.775-.712 5.116-.895 8-1z"/><path fill="#4E3933" d="M141 73c8.003 12.004 10.916 26.582 8.535 40.77-2.46 9.243-7.76 18.497-15.535 24.23-9.201 5.247-16.608 8.18-27.25 8.188l-2.488.037c-11.46.027-22.156-3.65-30.676-11.51-10.683-11.551-15.056-27.403-18.273-42.403l-.682-3.048C53.585 84.44 52.687 79.969 53 75c2.19 3.285 2.998 6.207 4 10l1.625-.563c2.995-.551 5.412-.043 8.375.563l-1.938.313L63 86l-1 3v-3l-2 1 2 3c3.584.25 3.584.25 7 0l.313-1.813C70.094 85.7 71.126 84.754 73 83c-.769 5.932-1.829 10.99-4.625 16.313C65.281 105.862 64.52 111.877 66 119c5.569 11.412 14.136 18.652 26 23 9.553 2.765 23.968 2.875 32.871-1.68L127 139l2.598-1.508c8.3-5.256 13.169-12.302 16.402-21.492 1.899-8.804 1.927-17.67-1.332-26.086-.824-2.362-.908-4.433-.668-6.914h-2c-1.607-3.215-1.057-6.436-1-10"/><path fill="#C78C89" d="M55 46c5.672.603 7.678 3.462 11.195 7.656C69.811 58.351 71.682 61.997 71 68l-2 2-1-1-1 7h-3v3h-3v3c-3.718-1.446-5.01-3.07-6.75-6.625-3.108-7.272-4.164-16.82-1.547-24.416.714-1.676 1.5-3.321 2.297-4.959"/><path fill="#C7AEA9" d="M146 113c1 3 1 3-.04 5.707-6.216 12.174-13.63 20.026-26.736 24.71-4.147 1.087-8.271 1.07-12.537 1.02l-2.813-.022C96.95 144.248 91.144 143.373 85 140l-2.371-1.25C74.605 133.987 68.6 126.993 66 118l3-2 1.137 2.266 1.55 2.984 1.512 2.953c3.68 5.716 7.69 7.34 14.176 8.86 3.913.928 7.397 1.831 11.05 3.527 4.297 1.695 7.816 1.946 12.388 1.91l2.392-.006c7.42-.2 13.458-2.157 18.795-7.494h3l.781-2.18c1.283-2.968 2.829-5.326 4.719-7.945l1.844-2.57L144 116z"/><path fill="#602C2A" d="M86 113h2v5l2.625.313c3.542.721 6.218 1.958 9.375 3.687l2-3 1.5.875c3.418 1.538 6.85 2.273 10.5 3.125l-1 2q2.656-.465 5.313-.938l2.988-.527c3.343-.663 5.257-1.093 7.699-3.535 2.625.375 2.625.375 5 1 .313 2.25.313 2.25 0 5-2 2.063-2 2.063-5 4l-1.586 1.137c-6.555 4.079-13.96 3.755-21.414 2.863-7.483-2.206-13.837-7.24-19-13-1.625-3.375-1.625-3.375-2-6z"/><path fill="#916F6D" d="M136.938 55.125C139 56 139 56 140 57q.553 3.492 1 7h1v19h2l1 5-2 1-1.023-1.68-1.352-2.195c-.44-.72-.882-1.439-1.336-2.18-2.005-3.025-2.956-3.855-6.539-4.82-3.897-1.169-6.554-2.63-9.75-5.125v-2h3v-2l-2.313-.813c-2.6-1.148-3.79-2.156-5.687-4.187l3.5-1.688c3.071-1.51 5.861-3.197 8.688-5.124 2.701-1.74 3.443-2.204 6.75-2.063"/><path fill="#653B36" d="M69 53c4.008 1.374 6.764 3.289 10 6 4.94 2.47 12.24 1.674 17.727 1.887a302 302 0 0 1 5.242.269c10.441.622 17.89.801 26.632-5.533C132.09 53.263 134.855 53.08 139 53c2.65 2.643 2.997 3.851 3.074 7.672q-.168 2.04-.387 4.078c-.06.697-.122 1.395-.185 2.113A367 367 0 0 1 141 72h-1l-1-15c-4.738-1.495-4.738-1.495-7.648.398l-2.727 1.977c-6.712 4.855-12.476 4.832-20.563 4.188l-2.072-.159A749 749 0 0 1 101 63v2c-5.881 1.988-10.742 3.125-17 3-2.354.88-2.354.88-4 2v2h-3l-.148-1.828-.227-2.422-.21-2.39c-.91-5.182-3.72-7.761-7.415-11.36z"/><path fill="#E8D6D3" d="M118 70h2v3h2l1-2 1.188 1.313c2.99 2.784 5.968 4.429 9.874 5.624 4.575 1.655 6.344 4.04 8.75 8.188L144 89l-1 2c-3.945-2.284-7.636-4.806-11.313-7.5l-3.238-2.344L126 79v-3l-12-1 1 3-1.941.55c-4.02 1.169-7.944 2.313-11.746 4.075C97.829 84.071 94.719 84.499 91 85l-3 2v-2h-7l1-3v-4c3.42-2.28 4.682-2.22 8.688-2.125l3.011.055L96 76l-1 4 2.195-.438c4.99-.958 9.698-1.838 14.805-1.562v-5l2.438-.938c2.453-.825 2.453-.825 3.562-2.062"/><path fill="#663A35" d="M53 75c2.19 3.285 2.998 6.207 4 10l1.625-.563c2.995-.551 5.412-.043 8.375.563l-1.938.313L63 86l-1 3v-3l-2 1 2 3c3.584.25 3.584.25 7 0l.313-1.813C70.094 85.7 71.126 84.754 73 83c-.782 6.03-1.939 11.264-4.625 16.75C66.247 104.1 65.7 107.108 66 112c-1 2.438-1 2.438-2 4h-2c-3.002-7.799-4.96-15.726-6.75-23.875l-.675-3.026C53.553 84.33 52.7 79.91 53 75"/><path fill="#A98884" d="m114 74 12 2v3l1.727.813C135.56 83.903 141.834 89.624 145 98c1.34 7.86.066 15.154-4 22-4.721 6.418-9.443 11.264-17 14l-3-1 2.16-1.031c7.38-3.735 13.184-7.737 17-15.254 1.852-5.988 2.115-14.218-.058-20.18-1.174-2.04-1.174-2.04-3.102-4.535v-2l-1.75-.84c-2.885-1.487-5.541-3.256-8.25-5.039-2.008-1.125-3.752-1.675-6-2.121v-4h-2v3l-15 1c1-2 1-2 3.066-2.852l2.496-.773c.827-.26 1.653-.52 2.504-.79L114 77z"/><path fill="#DEC5BF" d="M140 90h5c3.934 7.211 4.244 14.756 1.938 22.625-2.194 3.821-4.626 7.385-7.22 10.945-1.77 2.43-1.77 2.43-3.308 5.14-1.806 2.934-3.333 3.719-6.41 5.29l-2.3 1.293c-5.182 2.807-8.798 4.349-14.7 3.707v-3l-7-1v-1l3.656-.078q2.423-.085 4.844-.172l2.398-.043c6.992-.287 12.119-2.201 17.493-6.715 7.05-8.029 10.35-15.335 10.015-26.14-.608-4.268-2.157-7.197-4.406-10.852"/><path fill="#AA8E8A" d="m103 83-1.793.918c-7.13 3.78-12.99 8.183-16.394 15.707-1.524 6.33-1.855 12.032 1.062 18C90.491 125.02 97.852 130.165 106 133c-2.523.928-3.737 1.085-6.332.25-7.63-3.845-14.395-8.666-18.004-16.684-1.84-7.11-2.389-16.65 1.336-23.191 4.472-5.726 12.394-12.91 20-10.375"/><path fill="#B77574" d="M63 59c2.343.256 4.678.593 7 1 1.381 2.763 1.19 4.947 1 8l-2 2-1-1-1 7h-3v3h-3v3l-4-2q1.215-4.688 2.438-9.375l.697-2.695.674-2.578.618-2.38C62 61 62 61 63 59"/><path fill="#5F2D2B" d="M86 113h2v5l2.625.313c3.542.721 6.218 1.958 9.375 3.687l2-3 1.5.875c3.418 1.538 6.85 2.273 10.5 3.125l-2 3a853 853 0 0 1-4.313-.438c-.8-.08-1.6-.162-2.425-.246C103 125 103 125 100 124l-1 4c-5.259-.319-8.6-3.216-12-7-1.5-3.25-1.5-3.25-2-6z"/><path fill="#47302C" d="M139 53c1.676 1.535 1.676 1.535 3 4 .055 2.698-.029 5.092-.313 7.75-.06.697-.122 1.395-.185 2.113A367 367 0 0 1 141 72h-1l-1-15c-4.738-1.495-4.738-1.495-7.648.398l-2.727 1.977c-5.28 3.553-9.042 5.246-15.488 4.129-5.815-.87-11.711-.608-17.575-.566l-3.662.013q-4.45.018-8.9.049v-1c5.2-.742 10.111-1.04 15.363-.852 17.59.889 17.59.889 32.637-7.148 3.02-1.007 4.86-1.393 8-1"/><path fill="#794040" d="m96 128 2.688.5c7.776 1.11 15.598.818 23.312-.5a91 91 0 0 1 4.875-.063l2.367.028L131 128c-6.86 5.54-12.52 6.575-21.207 6.438-5.33-.615-9.35-2.51-13.793-5.438z"/><path fill="#C28D8C" d="M139 56c1 1 1 1 1.098 4.816a763 763 0 0 1-.036 4.746l-.013 2.444q-.02 2.997-.049 5.994l-3-1c-1.12-2.501-1.909-5.043-2.742-7.652-1.093-2.582-1.093-2.582-3.89-3.664L128 61c.964-2.411 1.688-3.774 3.813-5.313 2.754-.865 4.446-.502 7.187.313"/><path fill="#865E57" d="M67 68h4v5h-2l1 5h-3l.563 2.938L68 84l-1 1a206 206 0 0 1-6.09-.16c-2.154-.027-2.154-.027-3.91 2.16l-1.938-4.813-1.09-2.707A112 112 0 0 1 52 74l2-2 1.023 1.934 1.352 2.504 1.336 2.496c1.123 2.2 1.123 2.2 3.289 3.066v-3h3v-3h3z"/><path fill="#543F39" d="M141 73c7.957 11.936 10.939 26.552 8.547 40.676-.446 1.793-.984 3.564-1.547 5.324l-2-1 .5-3.75c.913-8.536 1.304-16.238-1.832-24.336-.824-2.362-.908-4.433-.668-6.914h-2c-1.607-3.215-1.057-6.436-1-10"/><path fill="#FDF6F8" d="M101 65c1.813 1.5 1.813 1.5 3 3-1 1.938-1 1.938-3 4-2.736.736-5.135.861-8 1l-1-1-1.688.938C87.876 74.058 85.638 74.56 83 75c1.203-3.61 2.244-4.108 5.375-6.125l2.398-1.57C94.231 65.278 97.032 64.603 101 65"/><path fill="#FAF2F0" d="M127 76c6.154.898 10.03 1.862 14 7 1.875 3.188 1.875 3.188 3 6l-1 2c-3.875-2.21-7.336-4.707-10.813-7.5l-2.957-2.344L127 79z"/><path fill="#4E3532" d="M55 44c6.47 0 9.635 2.662 14 7-3.534 0-5.311-1.262-8.281-3.043C58.849 46.916 57.114 46.338 55 46c-2.135 6.062-2.239 11.549-2.125 17.938l.027 2.939Q52.938 70.439 53 74c-2-1-2-1-2.61-2.574-.549-3.411-.615-6.793-.64-10.239l-.063-2.08C49.65 54.014 50.657 50.534 53 46z"/><path fill="#B36A69" d="M127 61c2.313-.25 2.313-.25 5 0 3.311 3.311 5 7.345 5 12l3 1-1 3-3-2v-3l-5-1v-2l-3-1z"/><path fill="#47302C" d="M146 118c1 3 1 3 .031 5.234C139.411 134.11 132.088 140.562 120 145c-3.938.191-3.938.191-7 0 2.817-1.473 5.636-2.612 8.625-3.688 9.737-3.906 16.212-9.197 21.375-18.312l1.875-3.063z"/><path fill="#744F49" d="M53 75c2.19 3.285 2.998 6.207 4 10l1.625-.563c2.995-.551 5.412-.043 8.375.563l-1.938.313L63 86l-1 3v-3l-2 1 1 6h-2l-1 6c-2.25-3.374-2.882-6.413-3.625-10.313l-.406-1.974C53.192 82.753 52.863 79.03 53 75"/><path fill="#FAF3F0" d="M84 76c2.164.023 2.164.023 4.625.375l2.477.336L93 77c-.125 2.313-.125 2.313-1 5-3.717 2.45-6.564 3.391-11 3l1-3v-4z"/><path fill="#E5CCC6" d="M55 46c2.375.313 2.375.313 5 1l2 3-2.438.438C57.08 50.74 57.08 50.74 56 52a72 72 0 0 0-.535 4.254l-.264 2.588-.264 2.72-.275 2.733Q54.325 67.648 54 71c-2.506-2.506-2.287-4.094-2.322-7.521l.01-2.166-.05-2.108C51.635 54.1 52.73 50.571 55 46"/><path fill="#48312C" d="M63 115c2.83 1.415 3.329 3.32 4.75 6.125C71.28 127.762 75.604 132.811 81 138c-4.763-.706-7.695-3.266-10.547-7.055C63 119.987 63 119.987 63 115"/><path fill="#E8D1CB" d="M140 90h5c2.405 4.91 3.549 8.404 3 14l-2 2c-1.501-1.501-1.48-3.12-1.875-5.188-.838-3.971-2.119-7.256-4.125-10.812"/><path fill="#E5C6C2" d="M139 56c1 1 1 1 1.098 4.816a763 763 0 0 1-.036 4.746l-.013 2.444q-.02 2.997-.049 5.994l-2-1a96 96 0 0 1-.625-7.563l-.117-2.154c-.095-1.76-.177-3.522-.258-5.283l-8 1c3.5-3.66 5.005-4.28 10-3"/><path fill="#4C1E1D" d="m101 119 2 .875c3.625 1.36 7.233 2.231 11 3.125l-2 3a212 212 0 0 1-4.313-.313l-2.425-.175c-2.625-.594-3.57-1.47-5.262-3.512z"/><path fill="#201A1A" d="m93 71 1 1 1.875-.625L98 71c1.75 1.438 1.75 1.438 3 3-3.314 2.21-4.345 2.225-8.188 2.125l-2.73-.055L88 76v-3c3-2 3-2 5-2"/><path fill="#F2ECE9" d="M113 63c4.992.468 9.13 2.917 13 6v2h-4v2h-2l-.875-1.938c-.953-2.214-.953-2.214-3.125-3.062l1-2-4-1z"/><path fill="#210905" d="M126.313 83.063c3.679 1.283 5.806 3.324 8.687 5.937l-3 2c-3.875-1.75-3.875-1.75-5-4h-6v-2c3-2 3-2 5.313-1.938Z"/><path fill="#785B57" d="M141 64h1v19h2l1 5-2 1c-5.07-5.54-5.07-5.54-4.942-10.047.62-5.058 1.744-10.004 2.942-14.953"/><path fill="#E0D9D6" d="M93 67v2l3 2 1 2h-4l-1-1-1.688.938C87.876 74.058 85.638 74.56 83 75c1.101-3.303 1.69-3.785 4.438-5.688l1.87-1.324C91 67 91 67 93 67"/><path fill="#835352" d="M96 128c4.03.553 8.02 1.156 12 2v3h13v1c-9.717.583-16.622.52-25-5z"/><path fill="#693C36" d="M72 83c1.754 3.508-.01 7.345-1 11-.619 1.685-1.261 3.364-2 5-1.563-1.125-1.563-1.125-3-3 .313-3.188.313-3.188 1-6h2l.375-1.813C70 86 70 86 72 83"/><path fill="#735552" d="m103.313 61.938 3.238.027L109 62v1h-8v2a699 699 0 0 1-5.375 1.063l-3.023.597C90 67 90 67 88 66c4.762-4.057 9.218-4.13 15.313-4.063Z"/><path fill="#79504C" d="M127 59c1.6 3.2.032 5.723-1 9-3.776-.51-5.447-1.208-8-4l1.715-.84 2.222-1.097 2.215-1.09c1.81-.837 1.81-.837 2.848-1.973"/><path fill="#624642" d="M69 53c4.008 1.374 6.764 3.289 10 6 2.569 1.284 4.766 1.33 7.625 1.563l3.04.253L92 61v1c-6.395 1.19-11.475 1.99-17.125-1.688C71.97 58.169 70.407 56.33 69 53"/><path fill="#4B2D28" d="M58 96c2.519 2.519 2.826 4.436 3.688 7.875.271 1.05.543 2.099.824 3.18.463 2.797.434 4.317-.512 6.945-2.87-6.252-4.511-11.096-4-18"/><path fill="#513731" d="M141 73c1.979 2.968 3.259 5.774 4.625 9.063l1.352 3.222C148 88 148 88 148 90l-4-2v-5h-2c-1.607-3.215-1.057-6.436-1-10"/><path fill="#A48D89" d="M127 79a298 298 0 0 1 4.438 2.75l2.496 1.547c2.283 1.882 2.721 2.819 3.066 5.703-4.018 0-5.156-1.229-8-4-1.313-3.25-1.313-3.25-2-6"/><path fill="#472E28" d="M53 75c4.196 6.294 5.407 12.532 5 20-3.81-5.716-5.556-13.146-5-20"/><path fill="#4D312C" d="M131 57c-4.93 4.188-8.447 6.727-15 7 2.264-2.467 4.59-4.101 7.5-5.75l2.344-1.36C128 56 128 56 131 57"/><path fill="#B19690" d="M119 78v3l-15 1c1-2 1-2 3.145-2.887l2.668-.8 2.644-.825c2.612-.501 4.06-.35 6.543.512"/><path fill="#EADBDA" d="m92 76 4 1-3 3zm-1 4h7c-3.126 3.394-5.565 5.606-10 7v-2l-2-1 5-2z"/><path fill="#322A2A" d="M123 71c3.703-.337 5.395-.477 8.375 1.875C133 75 133 75 133 77c-3.941-.563-6.75-1.68-10-4z"/><path fill="#C3ABA6" d="M71 125c3.817 1.555 6.192 4.036 9 7l-3 3c-3.483-3.019-4.792-5.57-6-10"/><path fill="#58423D" d="M79 138c4.847.591 8.607 1.98 13 4v2l3 1c-6.028-.476-10.767-3.197-16-6z"/><path fill="#F1D6D3" d="M55 46c2.375.313 2.375.313 5 1l2 3-2.313.313C56.83 51.042 55.843 51.77 54 54c-.125-5.75-.125-5.75 1-8"/><path fill="#B39894" d="M143 98h2c.054 1.958.093 3.916.125 5.875l.07 3.305C145 110 145 110 143 112q-.29-2.937-.563-5.875l-.316-3.305C142 100 142 100 143 98"/><path fill="#E0CAC5" d="M105 80c-1 2-1 2-3.504 2.852l-3.058.773c-1.012.26-2.024.52-3.067.79L93 85l-1-2c4.554-2.666 7.74-3.316 13-3"/><path fill="#E3CBC4" d="m132 129 2 1a496 496 0 0 1-3.313 2.938l-1.863 1.652C127 136 127 136 124 137v-4q1.931-1.043 3.875-2.063l2.18-1.16z"/><path fill="#B3908D" d="M93 126q2.407 1.436 4.813 2.875l2.707 1.617A156 156 0 0 1 106 134c-5.393-.431-8.805-1.521-13-5z"/><path fill="#4B2120" d="M86 113h2v5l4 1h-2v3l-3-1c-1.25-2.938-1.25-2.938-2-6z"/><path fill="#B57270" d="M135 68c2 2 2 2 2 5l3 1-1 3-3-2v-3h-4l1-3z"/><path fill="#F3EAE9" d="m100 66-1 3h-2l-1 2-4-2 1-3c3.133-1.044 3.99-.934 7 0"/><path fill="#210904" d="M115 82h8l-5 6-3-1z"/><path fill="#735A5A" d="M82 74a79 79 0 0 1 5.063.938l2.785.59L92 76v1l-3.75-.25c-3.355-.024-4.004.054-6.75 2.25L80 81c.875-5.875.875-5.875 2-7"/><path fill="#715049" d="M53 72c2.318 2.844 4.021 5.44 5 9-.875 2.313-.875 2.313-2 4l-1.438-3.813-.808-2.144A168 168 0 0 1 52 74z"/><path fill="#C79492" d="m58 49 6 2v3l-3-2-3 3c-1.245-2.49-.777-3.41 0-6"/><path fill="#B29793" d="M82 104h1l1 15c-2.474-2.474-2.624-3.542-3-7 .21-2.699.591-5.32 1-8"/><path fill="#FCF9F7" d="M93 78v2c-1.938.563-1.938.563-4 1l-1-1-2 2-2-4c6.75-1.125 6.75-1.125 9 0"/><path fill="#A06C6B" d="m113 75 11 2v3h-3v-2l-3.438-.375L114 77z"/><path fill="#C78584" d="M132 61c1.875.625 1.875.625 4 2 1.74 3.81 2.193 6.035 1 10l-.84-2.117-1.097-2.758-1.09-2.742c-.922-2.344-.922-2.344-1.973-4.383"/><path fill="#DEC6C0" d="M140 90h5l2 5-3-1-1 2z"/><path fill="#DFC9C7" d="m90 84 3 2-7 4-1-4h4z"/><path fill="#C1A6A1" d="M135.063 130.938 138 131l-5 5-2-4c1-1 1-1 4.063-1.063Z"/><path fill="#F4E6E4" d="m136 85 7 2 1 4c-3.914-1.27-5.79-2.512-8-6"/><path fill="#E9D9D3" d="m71 132 6 4-2 2h-3z"/><path fill="#D9BFB9" d="m139 121 1 3c-1.875 2.563-1.875 2.563-4 5l-1 2-2-1c1.527-3.436 3.6-6.12 6-9"/><path fill="#8C6863" d="M127 63h1l1 8h-3v-2l-2-1h2z"/><path fill="#E0CFCB" d="m54 41 1 2c2.025.652 2.025.652 4 1l-6 2-3-3h4zm-5 4 2 1Z"/><path fill="#63322F" d="m130 123 1 2h2l-1 3h-6z"/><path fill="#48201E" d="m138 112 3 3-2 4-3-4z"/><path fill="#AA928D" d="M103 83q-1.934 1.007-3.875 2l-2.18 1.125C95 87 95 87 93 87l1-3c5.208-2.264 5.208-2.264 9-1"/><path fill="#EDE1DF" d="M84 76c3.625.375 3.625.375 7 1v1h-7l-2 4c0-4 0-4 2-6"/><path fill="#6B6262" d="m94 71 6 1v3l-4 1v-3z"/><path fill="#694240" d="M126 63v2h-8c1-2 1-2 2.875-2.688C123 62 123 62 126 63"/><path fill="#513631" d="M69 53c3.653 1.25 4.78 1.671 7 5l-2 1a283 283 0 0 1-5-5z"/></svg>