<svg xmlns="http://www.w3.org/2000/svg" width="258" height="259" style="shape-rendering:geometricPrecision;text-rendering:geometricPrecision;image-rendering:optimizeQuality;fill-rule:evenodd;clip-rule:evenodd"><path style="opacity:.992" fill="#649dc0" d="M157.5 53.5c-.601-3.79.399-6.956 3-9.5l-2.5-.5A6903.191 6903.191 0 0 0 121.5 60c-1.634.493-3.301.66-5 .5a774.254 774.254 0 0 1 48-21c-1.486 5.135-3.82 9.802-7 14z"/><path style="opacity:1" fill="#54abdf" d="M157.5 53.5c.172.992-.162 1.658-1 2-.876-.13-1.543.203-2 1a54.302 54.302 0 0 1-6 10.5c-1.399.595-2.732.428-4-.5l-1 2.5c2.804 3.783 2.137 6.95-2 9.5-2.227 6.387-5.56 12.054-10 17-1.694 1.186-3.361 1.02-5-.5 1.405-1.27 3.071-1.77 5-1.5.17-1.322-.163-2.489-1-3.5a59.608 59.608 0 0 1-6-.5c-3.034-6.69-7.201-12.69-12.5-18a4.458 4.458 0 0 1-1.5 2c-1.22-1.211-2.387-1.211-3.5 0a11.529 11.529 0 0 0-4.5-3.5l1.5-1.5c1.518-.443 2.685.224 3.5 2a9.107 9.107 0 0 1 5-1v-4c-1.291.237-2.291-.096-3-1v-1c2.009-1.565 4.343-2.565 7-3 1.699.16 3.366-.007 5-.5A6903.191 6903.191 0 0 1 158 43.5l2.5.5c-2.601 2.544-3.601 5.71-3 9.5z"/><path style="opacity:1" fill="#56b0e2" d="M109.5 64.5c.709.904 1.709 1.237 3 1v4a9.107 9.107 0 0 0-5 1c-.815-1.776-1.982-2.443-3.5-2l-1.5 1.5a11.529 11.529 0 0 1 4.5 3.5c1.113-1.211 2.28-1.211 3.5 0a4.458 4.458 0 0 0 1.5-2c5.299 5.31 9.466 11.31 12.5 18 1.843.255 3.843.422 6 .5.837 1.011 1.17 2.178 1 3.5-1.929-.27-3.595.23-5 1.5 1.639 1.52 3.306 1.686 5 .5-.011 1.517-.677 2.684-2 3.5.88 1.356 1.214 2.856 1 4.5-2.054 2.2-4.554 3.867-7.5 5 .69 2.156.523 4.323-.5 6.5a51.385 51.385 0 0 0-4 6.5h-3c-.449-3.141-1.449-6.141-3-9-6.352-5.159-10.852-11.492-13.5-19-2.151-2.612-2.985-2.612-2.5 0-1.348 1.961-2.681 2.128-4 .5 1.514-1.439 1.847-2.939 1-4.5-1.506-1.247-3.006-1.247-4.5 0-.278-.916-.778-1.582-1.5-2a23.09 23.09 0 0 0 4.5-9c1.676-.931 3.51-1.598 5.5-2 1.168-1.406.835-2.572-1-3.5 2.916-.049 3.916-1.216 3-3.5a108.438 108.438 0 0 1 7.5-4l1 1c.278-.916.778-1.582 1.5-2z"/><path style="opacity:1" fill="#5ea4ca" d="M156.5 55.5a824.998 824.998 0 0 1-26 48c.214-1.644-.12-3.144-1-4.5 1.323-.816 1.989-1.983 2-3.5 4.44-4.946 7.773-10.613 10-17 4.137-2.55 4.804-5.717 2-9.5l1-2.5c1.268.928 2.601 1.095 4 .5a54.302 54.302 0 0 0 6-10.5c.457-.797 1.124-1.13 2-1z"/><path style="opacity:1" fill="#65a8cd" d="M109.5 63.5v1c-.722.418-1.222 1.084-1.5 2l-1-1a108.438 108.438 0 0 0-7.5 4c.916 2.284-.084 3.451-3 3.5 1.835.928 2.168 2.094 1 3.5-1.99.402-3.824 1.069-5.5 2a23.09 23.09 0 0 1-4.5 9c-2.812 4.269-4.812 8.936-6 14l-6 4a876.595 876.595 0 0 0 19-35 51.343 51.343 0 0 1 15-7z"/><path style="opacity:1" fill="#58b3e4" d="M87.5 87.5c.722.418 1.222 1.084 1.5 2 1.494-1.247 2.994-1.247 4.5 0 .847 1.561.514 3.061-1 4.5 1.319 1.628 2.652 1.461 4-.5-.485-2.612.349-2.612 2.5 0 2.648 7.508 7.148 13.841 13.5 19 1.551 2.859 2.551 5.859 3 9h3l-2 6c-1.478-.262-2.811.071-4 1 .111 1.609-.222 3.275-1 5-.79-1.109-1.29-2.442-1.5-4-1.857 2.131-4.023 2.631-6.5 1.5 1.349 1.635 1.182 3.135-.5 4.5-1.13-.614-2.463-.614-4 0-3.003-.243-4.17-1.91-3.5-5 2.64-.454 4.973-1.621 7-3.5-5.39-1.515-9.39-4.682-12-9.5a27.208 27.208 0 0 1-8-6c.04-3.696-.293-7.029-1-10 1.188-5.064 3.188-9.731 6-14z"/><path style="opacity:1" fill="#60a0c8" d="M180.5 97.5a4.932 4.932 0 0 1-3-.5 213.183 213.183 0 0 0-22-20.5c-3.594 1.388-4.927 4.055-4 8-1.322-.17-2.489.163-3.5 1-.769 2.6-.602 5.1.5 7.5l-1.5 1.5c-1.011-.837-2.178-1.17-3.5-1v3c-2.319 2.183-4.152 4.85-5.5 8-.399-.228-.565-.562-.5-1a233.141 233.141 0 0 1 17-31 78999.81 78999.81 0 0 0 26 25z"/><path style="opacity:1" fill="#54ace0" d="M180.5 97.5c.334 2.668 1.667 4.668 4 6 1.141 1.921 1.308 3.921.5 6-2.308 4.045-4.808 7.212-7.5 9.5 1.122 1.613.622 2.78-1.5 3.5-.688 4.843-2.522 9.176-5.5 13-3.891-1.074-5.724-3.74-5.5-8a19.182 19.182 0 0 0-7.5-5 252.921 252.921 0 0 0-12.5-18c-.183-2.865-.683-5.531-1.5-8v-3c1.322-.17 2.489.163 3.5 1l1.5-1.5c-1.102-2.4-1.269-4.9-.5-7.5 1.011-.837 2.178-1.17 3.5-1-.927-3.945.406-6.612 4-8a213.183 213.183 0 0 1 22 20.5c.948.483 1.948.65 3 .5z"/><path style="opacity:1" fill="#56b0e1" d="M143.5 96.5c.817 2.469 1.317 5.135 1.5 8a252.921 252.921 0 0 1 12.5 18 19.182 19.182 0 0 1 7.5 5c-.224 4.26 1.609 6.926 5.5 8a43.859 43.859 0 0 0-3 7 9.86 9.86 0 0 1-6 1 32.462 32.462 0 0 0-.5-8c-3.148 2.632-3.315 5.465-.5 8.5-2.039 1.948-2.039 4.115 0 6.5-1.142 4.665-2.809 8.998-5 13v-4c-4.89-.139-5.223-1.639-1-4.5-4.644 1.378-7.144-.455-7.5-5.5a86.653 86.653 0 0 0-6.5-4 3.647 3.647 0 0 0-1-1.5 8.43 8.43 0 0 1 4-.5v-4a28.819 28.819 0 0 1-10-1c-2.965-2.127-2.631-3.294 1-3.5a69.52 69.52 0 0 0-6-6.5c1.082-7.006 3.082-13.673 6-20 .61-1.934 1.61-3.601 3-5-.065.438.101.772.5 1 1.348-3.15 3.181-5.817 5.5-8z"/><path style="opacity:1" fill="#5cb6e4" d="M81.5 101.5c.707 2.971 1.04 6.304 1 10a27.208 27.208 0 0 0 8 6c2.61 4.818 6.61 7.985 12 9.5-2.027 1.879-4.36 3.046-7 3.5-.67 3.09.497 4.757 3.5 5 1.537-.614 2.87-.614 4 0 1.682-1.365 1.849-2.865.5-4.5 2.477 1.131 4.643.631 6.5-1.5.21 1.558.71 2.891 1.5 4-4.18 6.45-7.18 13.45-9 21a338.672 338.672 0 0 1-15 27l2-9a43.791 43.791 0 0 0 4-8.5c-5.549-4.072-4.882-5.572 2-4.5 1.239-1.507.905-2.674-1-3.5a24.935 24.935 0 0 0-7-.5c-1.366-4.569-3.866-8.569-7.5-12a8.435 8.435 0 0 1-.5-4h-6c-.628-4.538.872-8.205 4.5-11 .667-1 .667-2 0-3-.52 1.016-1.353 1.682-2.5 2-1.456-.89-2.789-.89-4 0a9.419 9.419 0 0 0-3-3c-1.817 1.916-2.984 4.249-3.5 7-1.011.837-2.178 1.17-3.5 1a517.79 517.79 0 0 1 14-27l6-4z"/><path style="opacity:1" fill="#53a9de" d="M225.5 149.5a59.043 59.043 0 0 1-5 9c-.996-.086-1.829.248-2.5 1-1.438 1.4-2.271 3.067-2.5 5h-8c4.324-2.138 4.49-5.138.5-9l-1 6a119.044 119.044 0 0 0-21.5-1c-.473-4.523 1.527-6.857 6-7v6a112.97 112.97 0 0 0 15-.5 56.268 56.268 0 0 1-7-2.5c5.194-1.558 5.194-2.558 0-3v-7h-8c-.667-5.333-3.667-8.333-9-9v-4c1.511-1.458 2.511-3.291 3-5.5a8.43 8.43 0 0 1 4-.5c-.371-4.196.629-7.863 3-11 8.89-2.26 17.557-.76 26 4.5a87.506 87.506 0 0 0-14 7c1.987 1.319 3.154 3.152 3.5 5.5 1.171 1.393 2.671 2.227 4.5 2.5a49.314 49.314 0 0 0 6 7.5c1.26 1.853 1.26 3.686 0 5.5a23.65 23.65 0 0 1 3 3.5c1.142-1.326 2.476-2.326 4-3z"/><path style="opacity:1" fill="#52a6db" d="M211.5 114.5c.992-.172 1.658.162 2 1-.03.997.47 1.664 1.5 2a249.721 249.721 0 0 0 20.5 7c-.159 9.169-2.992 10.169-8.5 3l-.5 1c2.395 2.921 3.728 6.255 4 10-1.322.17-2.489-.163-3.5-1a22.226 22.226 0 0 0-2.5-6l-1 2a221.18 221.18 0 0 1 4 8.5c-1.611 2.21-2.278 4.71-2 7.5-1.524.674-2.858 1.674-4 3a23.65 23.65 0 0 0-3-3.5c1.26-1.814 1.26-3.647 0-5.5a49.314 49.314 0 0 1-6-7.5c-1.829-.273-3.329-1.107-4.5-2.5-.346-2.348-1.513-4.181-3.5-5.5a87.506 87.506 0 0 1 14-7c-8.443-5.26-17.11-6.76-26-4.5 2.232-1.919 4.899-3.253 8-4a71.188 71.188 0 0 0 9 3c.916-.043 1.583-.376 2-1z"/><path style="opacity:1" fill="#5cbae9" d="M89.5 172.5c-.617.111-1.117.444-1.5 1 .66-5.501-1.173-10.168-5.5-14l-1 2a27.375 27.375 0 0 1 4 11c-.803 2.495-2.303 4.495-4.5 6-4.49-2.672-7.824-6.338-10-11l-7-8c-3.377 1.393-5.544.226-6.5-3.5-3.129-.117-4.295-1.617-3.5-4.5 1.626.597 3.459.597 5.5 0a7.248 7.248 0 0 0-2-2.5c1.98-2.503 4.313-4.336 7-5.5-.648-6.479-1.982-6.646-4-.5-1 .667-2 .667-3 0 1.789-3.397 3.122-6.897 4-10.5 1.322.17 2.489-.163 3.5-1 .516-2.751 1.683-5.084 3.5-7a9.419 9.419 0 0 1 3 3c1.211-.89 2.544-.89 4 0 1.147-.318 1.98-.984 2.5-2 .667 1 .667 2 0 3-3.628 2.795-5.128 6.462-4.5 11h6a8.435 8.435 0 0 0 .5 4c3.634 3.431 6.134 7.431 7.5 12 2.357-.163 4.69.003 7 .5 1.905.826 2.239 1.993 1 3.5-6.882-1.072-7.549.428-2 4.5a43.791 43.791 0 0 1-4 8.5z"/><path style="opacity:.545" fill="#68aace" d="M130.5 103.5a1865.301 1865.301 0 0 1-28 51c1.82-7.55 4.82-14.55 9-21 .778-1.725 1.111-3.391 1-5 1.189-.929 2.522-1.262 4-1l2-6a51.385 51.385 0 0 1 4-6.5c1.023-2.177 1.19-4.344.5-6.5 2.946-1.133 5.446-2.8 7.5-5z"/><path style="opacity:1" fill="#58b3e4" d="M128.5 128.5a69.52 69.52 0 0 1 6 6.5c-3.631.206-3.965 1.373-1 3.5a28.819 28.819 0 0 0 10 1v4a8.43 8.43 0 0 0-4 .5c.457.414.791.914 1 1.5a86.653 86.653 0 0 1 6.5 4c.356 5.045 2.856 6.878 7.5 5.5-4.223 2.861-3.89 4.361 1 4.5v4a93.691 93.691 0 0 1-9 16c-2.07-.083-2.403-1.083-1-3-.056-1.237-.556-2.237-1.5-3-1.033 7.611-2.867 7.611-5.5 0l-6-4a205.78 205.78 0 0 0-6.5-11 68.428 68.428 0 0 1-4.5-15h-3c1.351-4.343 4.351-7.01 9-8-2.512-2.671-2.179-5.004 1-7z"/><path style="opacity:1" fill="#5da2c8" d="M211.5 114.5c-.417.624-1.084.957-2 1a71.188 71.188 0 0 1-9-3c-3.101.747-5.768 2.081-8 4-2.371 3.137-3.371 6.804-3 11a8.43 8.43 0 0 0-4 .5c-.489 2.209-1.489 4.042-3 5.5a41.348 41.348 0 0 1-7 10 580.628 580.628 0 0 1 19-34.5 167.628 167.628 0 0 1 17 5.5z"/><path style="opacity:1" fill="#5aa1cb" d="M213.5 115.5a252.867 252.867 0 0 1 24.5 9c.667 1 .667 2 0 3a529.825 529.825 0 0 1-12.5 22c-.278-2.79.389-5.29 2-7.5a221.18 221.18 0 0 0-4-8.5l1-2a22.226 22.226 0 0 1 2.5 6c1.011.837 2.178 1.17 3.5 1-.272-3.745-1.605-7.079-4-10l.5-1c5.508 7.169 8.341 6.169 8.5-3a249.721 249.721 0 0 1-20.5-7c-1.03-.336-1.53-1.003-1.5-2z"/><path style="opacity:1" fill="#55acdf" d="M182.5 133.5v4c5.333.667 8.333 3.667 9 9h8v7c5.194.442 5.194 1.442 0 3a56.268 56.268 0 0 0 7 2.5 112.97 112.97 0 0 1-15 .5v-6c-4.473.143-6.473 2.477-6 7 7.255-.313 14.421.02 21.5 1l1-6c3.99 3.862 3.824 6.862-.5 9-14.381.275-28.715.775-43 1.5 1.702-2.235 2.702-4.735 3-7.5a160.636 160.636 0 0 1 8-15 41.348 41.348 0 0 0 7-10z"/><path style="opacity:1" fill="#5faad2" d="M180.5 97.5a32.421 32.421 0 0 1 8 8.5 3014.439 3014.439 0 0 1-43 79.5 19.22 19.22 0 0 0 1-6 93.691 93.691 0 0 0 9-16c2.191-4.002 3.858-8.335 5-13-2.039-2.385-2.039-4.552 0-6.5-2.815-3.035-2.648-5.868.5-8.5.497 2.646.664 5.313.5 8a9.86 9.86 0 0 0 6-1 43.859 43.859 0 0 1 3-7c2.978-3.824 4.812-8.157 5.5-13 2.122-.72 2.622-1.887 1.5-3.5 2.692-2.288 5.192-5.455 7.5-9.5.808-2.079.641-4.079-.5-6-2.333-1.332-3.666-3.332-4-6z"/><path style="opacity:1" fill="#5db6e4" d="M134.5 108.5c-2.918 6.327-4.918 12.994-6 20-3.179 1.996-3.512 4.329-1 7-4.649.99-7.649 3.657-9 8h3a68.428 68.428 0 0 0 4.5 15 205.78 205.78 0 0 1 6.5 11l6 4c2.633 7.611 4.467 7.611 5.5 0 .944.763 1.444 1.763 1.5 3-1.403 1.917-1.07 2.917 1 3a19.22 19.22 0 0 1-1 6c-4.245 10.835-9.745 20.835-16.5 30a553.784 553.784 0 0 1-34.5-34 19968.6 19968.6 0 0 0 40-73z"/><path style="opacity:1" fill="#61bee9" d="M61.5 132.5c-.878 3.603-2.211 7.103-4 10.5 1 .667 2 .667 3 0 2.018-6.146 3.352-5.979 4 .5-2.687 1.164-5.02 2.997-7 5.5a7.248 7.248 0 0 1 2 2.5c-2.041.597-3.874.597-5.5 0-.795 2.883.371 4.383 3.5 4.5.956 3.726 3.123 4.893 6.5 3.5l7 8c2.176 4.662 5.51 8.328 10 11 2.197-1.505 3.697-3.505 4.5-6a27.375 27.375 0 0 0-4-11l1-2c4.327 3.832 6.16 8.499 5.5 14 .383-.556.883-.889 1.5-1l-2 9c-3.927 2.43-8.26 3.93-13 4.5-2.254.624-3.92 1.957-5 4a185.015 185.015 0 0 0-23 11.5 83.154 83.154 0 0 1-11 5c-5.261.144-9.928 1.811-14 5l-1-1a42.49 42.49 0 0 0 5.5-11c2.944-1.872 4.11-4.539 3.5-8a1677.848 1677.848 0 0 1 32-59z"/><path style="opacity:.894" fill="#639ebf" d="M167.5 158.5c-.298 2.765-1.298 5.265-3 7.5a1362.077 1362.077 0 0 1 43-1.5h8c.229-1.933 1.062-3.6 2.5-5 .671-.752 1.504-1.086 2.5-1l-3 6-5 1a878.417 878.417 0 0 1-50 1.5 101.645 101.645 0 0 1 5-8.5z"/><path style="opacity:.698" fill="#6cb0cf" d="M87.5 181.5c-.719 2.388-2.385 3.888-5 4.5a849.187 849.187 0 0 1-36 15.5 185.015 185.015 0 0 1 23-11.5c1.08-2.043 2.746-3.376 5-4 4.74-.57 9.073-2.07 13-4.5z"/><path style="opacity:.796" fill="#74b1ca" d="M29.5 191.5c.61 3.461-.556 6.128-3.5 8a42.49 42.49 0 0 1-5.5 11l1 1c4.072-3.189 8.739-4.856 14-5-5.938 3.189-11.938 5.522-18 7a173.401 173.401 0 0 1 12-22z"/></svg>