<svg xmlns="http://www.w3.org/2000/svg" viewBox="-1.3 -1.3 384.59 384.59"><path fill="#99CD7C" d="m276 19 1.966.956C304.999 33.246 329.812 54.248 347 79l2.215 3.176C363.56 103.632 373.405 126.838 379 152l.5 2.167c8.926 40.407 1.584 85.12-16.5 121.833l-.956 1.966C348.754 304.999 327.752 329.812 303 347l-3.176 2.215C278.368 363.56 255.162 373.405 230 379l-2.167.5c-40.407 8.926-85.12 1.584-121.833-16.5l-1.966-.956C77.001 348.754 52.188 327.752 35 303l-2.215-3.176C18.44 278.368 8.595 255.162 3 230l-.5-2.167C-6.426 187.426.916 142.713 19 106l.956-1.966C33.246 77.001 54.248 52.188 79 35l3.176-2.215C103.632 18.44 126.838 8.595 152 3l2.167-.5C194.574-6.426 239.287.916 276 19"/><path fill="#084D3E" d="m276 19 1.966.956C304.999 33.246 329.812 54.248 347 79l2.215 3.176C363.56 103.632 373.405 126.838 379 152l.5 2.167c8.926 40.407 1.584 85.12-16.5 121.833l-.956 1.966C348.754 304.999 327.752 329.812 303 347l-3.176 2.215C278.368 363.56 255.162 373.405 230 379l-2.167.5c-40.407 8.926-85.12 1.584-121.833-16.5l-1.966-.956C77.001 348.754 52.188 327.752 35 303l-2.215-3.176C18.44 278.368 8.595 255.162 3 230l-.5-2.167C-6.426 187.426.916 142.713 19 106l.956-1.966C33.246 77.001 54.248 52.188 79 35l3.176-2.215C103.632 18.44 126.838 8.595 152 3l2.167-.5C194.574-6.426 239.287.916 276 19M152 29l-2.518.585C130.236 34.225 110.776 42.983 95 55l-3.219 2.336C71.051 72.69 54.726 92.096 43 115l-.964 1.87c-18.305 35.988-23.43 80.817-11.243 119.571L32 240l.686 2.097C40.716 266.444 53.253 287.504 71 306l2.66 2.852C85.642 321.464 99.557 331.094 115 339l1.87.964c35.988 18.305 80.817 23.43 119.571 11.243L240 350l2.097-.686c24.347-8.03 45.407-20.567 63.903-38.314l2.852-2.66c12.617-11.987 22.226-25.9 30.148-41.34l.964-1.854c11.757-22.875 17.46-48.702 17.349-74.334l-.007-2.046c-.125-24.51-5.503-47.722-16.306-69.766l-.995-2.076C332.595 101.595 322.783 88.279 311 76l-2.66-2.852C296.353 60.531 282.44 50.922 267 43l-1.854-.964C251.008 34.77 235.6 29.963 220 27l-3.074-.621c-21.375-3.6-43.912-2.4-64.926 2.621"/><path fill="#094D3E" d="m136.352 235.633 3.96-.017 4.339.028a2308 2308 0 0 1 16.988.02c4.327.014 8.654.013 12.981.014q10.897.006 21.795.04c9.333.03 18.666.04 28 .044 8.015.004 16.031.017 24.047.03q3.871.007 7.743.01 6.075.008 12.15.03 2.233.007 4.467.008 3.04.004 6.08.02l3.442.009C285 236 285 236 287 237c.343 3.183.266 4.614-1.582 7.29l-2.23 2.335c-.82.866-1.638 1.733-2.481 2.625a1112 1112 0 0 1-11.14 11.148 122 122 0 0 0-6.255 6.852A1737 1737 0 0 1 260 271l-1.54 1.868c-4.121 4.353-7.346 5.63-13.33 5.987-2.778.052-5.55.016-8.327-.029q-2.303.003-4.604.013c-4.15.01-8.297-.022-12.445-.063-4.345-.037-8.69-.035-13.034-.038q-10.932-.017-21.864-.1a4758 4758 0 0 0-28.087-.111c-8.048-.012-16.096-.042-24.144-.075l-7.767-.027q-6.09-.02-12.18-.07a835 835 0 0 0-4.477-.022 863 863 0 0 1-6.092-.045l-3.449-.022C96 278 96 278 94 276c.192-4.09 2.788-6.058 5.625-8.75a166 166 0 0 0 10.73-11.387c2.184-2.473 4.528-4.758 6.883-7.066 2.5-2.55 4.793-5.264 7.086-8 3.867-4.146 6.292-5.172 12.028-5.164"/><path fill="#094E3E" d="m103.033 171.833 3.9-.035 4.304-.023a5346 5346 0 0 1 19.365-.12l2.552-.01q11.917-.057 23.833-.09 15.24-.039 30.478-.16 10.716-.082 21.433-.094c4.266-.007 8.531-.025 12.797-.072q6.025-.063 12.05-.039 2.207 0 4.412-.038c12.471-.203 12.471-.203 17.543 4.168A109 109 0 0 1 259 179a358 358 0 0 0 3.816 3.684q1.878 1.872 3.747 3.754l1.986 1.992c3.801 3.835 7.489 7.72 10.951 11.867 2.248 2.552 4.77 4.806 7.313 7.062C288 209 288 209 287.75 211.141 287 213 287 213 286 214c-1.99.13-3.985.189-5.98.221l-3.941.07-4.367.06-4.567.074c-13.953.217-27.907.338-41.86.434-9.378.066-18.754.16-28.13.328-8.183.145-16.363.237-24.546.265-4.328.017-8.651.059-12.978.165-29.82.7-29.82.7-38.235-6.884a61 61 0 0 1-6.268-8.012c-1.413-2.155-3.07-4.018-4.815-5.908l-1.485-1.786c-1.577-1.749-3.193-3.348-4.906-4.96l-1.673-1.596a183 183 0 0 0-3.34-3.085c-2.742-2.61-3.861-3.925-4.257-7.753L95 173c2.746-1.373 4.958-1.145 8.033-1.167"/><path fill="#084D3E" d="M144.63 107.72q2.317 0 4.635-.015c4.164-.012 8.324.044 12.487.114 4.365.061 8.73.062 13.094.07 7.318.02 14.634.082 21.952.171 10.328.127 20.657.178 30.986.216 8.021.032 16.043.086 24.064.142l2.609.017q7.407.048 14.813.138 2.245.025 4.492.04c2.037.015 4.074.043 6.111.072l3.46.038C286 109 286 109 288 111c-.32 3.417-1.714 5.064-4.133 7.39l-1.932 1.888-2.06 1.972a2663 2663 0 0 0-4.152 4.066l-1.988 1.95a94 94 0 0 0-5.422 5.922l-1.428 1.637a209 209 0 0 0-4.28 5.123c-5.042 5.873-8.952 9.748-16.995 10.509-2.79.083-5.563.018-8.353-.063q-2.317 0-4.636.015c-4.16.012-8.316-.05-12.475-.126-4.361-.068-8.723-.07-13.085-.078-7.312-.024-14.623-.091-21.934-.19-10.32-.14-20.64-.197-30.961-.24a7710 7710 0 0 1-24.049-.158l-2.607-.019q-7.399-.055-14.798-.152a979 979 0 0 0-4.487-.046 860 860 0 0 1-6.105-.079l-3.455-.041C96 150 96 150 94 148c.308-3.53 1.864-5.21 4.352-7.61l2.082-2.038 2.191-2.102c6.047-5.856 6.047-5.856 11.71-12.078l1.638-1.85a154 154 0 0 0 4.242-5.09c7.343-8.427 13.383-9.802 24.414-9.513Z"/></svg>