<svg xmlns="http://www.w3.org/2000/svg" width="250" height="250"><path fill="#C2FD60" d="M99 0h52v2l1.941.148C158.212 2.604 162.97 3.36 168 5v2l3.125.375c3.496.564 6.559 1.412 9.875 2.625v2l2.813.938L190 15v2l2.938.875C196 19 196 19 197 21a60 60 0 0 0 3.688 1.688c4.01 1.9 6.266 4.191 8.89 7.726 1.64 1.83 3.224 2.533 5.422 3.586 2.063 2.375 2.063 2.375 4 5 1.606 2.162 3.093 4.093 5 6 1.739 2.087 2.89 3.52 3.5 6.188L228 53l3 1q1.575 2.962 3 6l2 2q1.546 3.48 3 7l1.023 1.93c1.069 2.265 1.598 4.37 2.102 6.82l.508 2.422L243 82h2l4 17h1q.075 10.998.11 21.997.016 3.743.04 7.484c.025 3.585.036 7.169.045 10.753l.032 3.385v3.153l.014 2.773c-.258 2.628-.973 4.166-2.241 6.455a168 168 0 0 0-1.625 6.75c-.26 1.17-.52 2.34-.79 3.547-.192.892-.386 1.784-.585 2.703h-2l-.367 2.082-.508 2.73-.492 2.708C241 178 241 178 239 181c-1.013 2.264-1.958 4.55-2.902 6.844-1.122 2.202-2.31 3.48-4.098 5.156-1.176 2.1-1.176 2.1-2 4h-2l-.875 2.875c-1.288 3.579-2.767 4.786-5.5 7.375-2.728 2.68-2.728 2.68-4.687 6C215 216 215 216 212.75 216.875L211 217v3l-1.75.75c-2.344 1.16-2.344 1.16-4.125 3.188-2.472 2.399-5.048 3.558-8.125 5.062l-1 2a101 101 0 0 1-6 2v2l-1.715.586-2.222.789-2.215.773c-2.035.705-2.035.705-2.848 2.852-2.18.852-2.18.852-4.875 1.625-.884.26-1.769.52-2.68.79C171 243 171 243 168 243v2q-2.841.76-5.687 1.5l-3.2.844c-2.824.595-5.241.784-8.113.656v2H99v-2l-1.941-.148C91.788 247.396 87.03 246.64 82 245v-2l-3.125-.375c-3.496-.564-6.559-1.412-9.875-2.625v-2l-2.812-.937L60 235v-2l-2.937-.875C54 231 54 231 53 229a60 60 0 0 0-3.687-1.687c-4.01-1.902-6.267-4.192-8.891-7.727-1.64-1.83-3.224-2.533-5.422-3.586-2.062-2.375-2.062-2.375-4-5-1.606-2.162-3.093-4.093-5-6-1.739-2.087-2.89-3.52-3.5-6.187L22 197l-3-1a134 134 0 0 1-3-6l-2-2a294 294 0 0 1-3-7l-1.023-1.93c-1.069-2.265-1.598-4.37-2.102-6.82l-.508-2.422L7 168H5l-4-17H0q-.075-10.998-.11-21.997-.015-3.743-.04-7.484a2502 2502 0 0 1-.045-10.753l-.032-3.385v-3.153l-.014-2.773C.017 98.827.732 97.29 2 95a168 168 0 0 0 1.625-6.75c.39-1.756.39-1.756.79-3.547C4.606 83.811 4.8 82.92 5 82h2l.367-2.082.508-2.73.492-2.708C9 72 9 72 11 69c1.013-2.264 1.958-4.55 2.902-6.844 1.122-2.202 2.31-3.48 4.098-5.156 1.176-2.1 1.176-2.1 2-4h2l.875-2.875c1.288-3.579 2.767-4.786 5.5-7.375 2.728-2.68 2.728-2.68 4.688-6C35 34 35 34 37.25 33.125L39 33v-3l1.75-.75c2.344-1.16 2.344-1.16 4.125-3.187 2.472-2.4 5.048-3.559 8.125-5.063l1-2a101 101 0 0 1 6-2v-2l1.715-.586 2.222-.789 2.215-.773c2.035-.705 2.035-.705 2.848-2.852 2.18-.852 2.18-.852 4.875-1.625.884-.26 1.769-.52 2.68-.79C79 7 79 7 82 7V5q2.841-.76 5.688-1.5l3.199-.844C93.71 2.061 96.128 1.872 99 2z"/><path fill="#040501" d="M177 49c-1.408 4.481-3.588 6.826-7 10l-2.562 2.688C165 64 165 64 162.813 65.061 160.462 66.279 160.128 67.67 159 70l-3 1-1 2-1 2-3 1-.853 1.715c-1.591 3.17-3.995 5.386-6.495 7.845L142 87.207c-1.801 1.795-3.61 3.583-5.418 5.371l-3.775 3.76a6484 6484 0 0 1-9.96 9.893 11795 11795 0 0 0-15.886 15.791q-2.762 2.744-5.529 5.484c-5.187 5.15-10.283 10.298-15.027 15.867-2.016 2.334-4.197 4.475-6.405 6.627q-1.57 1.567-3.138 3.138L52 178c-4.223-1.408-5.45-2.987-7.57-6.89l-1.555-3.36-1.57-3.328c-1.34-3.513-1.917-6.694-2.305-10.422h-2c-2.397-8.865-3.49-17.075-3.375-26.25l.029-3.559C33.896 110.122 35.768 97.784 42 85h2l.32-2.184c3.686-15.271 20.803-28.884 33.471-36.958C82.431 43.076 85.718 42.371 91 42v-2l10-2v-2c27.567-3.163 52.058-2.961 76 13"/><path fill="#030401" d="M202.144 74.126c3.004 1.415 3.568 3.907 4.856 6.874l1.625 2.937c1.597 3.556 2.249 6.156 2.375 10.063-1.883 2.838-1.883 2.838-4.732 5.625l-1.562 1.56c-1.707 1.696-3.44 3.362-5.175 5.03q-1.795 1.77-3.586 3.544c-3.15 3.114-6.322 6.203-9.5 9.288-3.836 3.73-7.645 7.485-11.457 11.239a2087 2087 0 0 1-8.936 8.754c-5.077 4.95-10.079 9.893-14.62 15.351-1.53 1.72-3.157 3.144-4.932 4.609-2.467 2.037-4.564 4.134-6.63 6.576-6.371 7.368-13.279 14.241-20.12 21.17a907 907 0 0 0-7.09 7.252 942 942 0 0 1-8.254 8.412l-2.541 2.657c-5.924 5.905-5.924 5.905-10.748 6.05-3.27-1.172-6.38-2.382-9.492-3.93-1.039-.5-2.078-1.002-3.148-1.519C76 204 76 204 75.19 202.088 75 200 75 200 77.49 196.916a261 261 0 0 1 3.711-3.668l2.035-2.032c2.233-2.224 4.482-4.43 6.733-6.637a4409 4409 0 0 0 4.662-4.633 3950 3950 0 0 1 12.342-12.203c5.782-5.702 11.545-11.424 17.31-17.144q4.605-4.568 9.226-9.122l4.255-4.205 1.912-1.878c3.774-3.737 7.332-7.604 10.79-11.636 2.068-2.37 4.282-4.564 6.534-6.757 3.788-3.761 7.524-7.571 11.258-11.386 3.369-3.436 6.751-6.86 10.135-10.281q2.679-2.718 5.345-5.448a1498 1498 0 0 1 7.735-7.846l2.408-2.487 2.256-2.257 1.973-2.006C200 74 200 74 202.144 74.126"/><path fill="#BFF95E" d="m125.063 54.875 2.642-.012c4.546.007 8.822.212 13.295 1.137 0 3 0 3-1.434 4.473l-2.004 1.59c-3.347 2.791-6.251 5.721-9.125 9-3.039 3.456-6.114 6.474-9.674 9.375-1.761 1.56-3.214 3.18-4.725 4.982-5.06 5.851-10.561 11.268-16.026 16.736l-3.453 3.464a7462 7462 0 0 1-7.194 7.2q-4.618 4.62-9.224 9.255a4113 4113 0 0 1-7.11 7.123q-1.704 1.706-3.403 3.416a1341 1341 0 0 1-4.739 4.74l-2.721 2.726C58 142 58 142 56 142c-2.175-4.35-1.185-10.224-1.187-15l-.038-3.621c-.017-10.365 1.028-19.14 5.85-28.379l1.073-2.084C68.938 79.262 79.758 68.176 94 62l3.125-1.75c3.684-1.602 6.88-1.906 10.875-2.25v-2c5.722-.981 11.263-1.15 17.063-1.125"/><path fill="#070903" d="M215 135h2c-.516 7.882-2.092 15.345-4 23h-2l-2 10-3 1a309 309 0 0 0-2 6c-10.262 16.076-25.197 28.93-43 36a94 94 0 0 1-6 1v2q-3.623.757-7.25 1.5l-2.066.434c-3.33.679-6.267 1.066-9.684 1.066 1.29-2.839 2.642-4.89 4.85-7.085l1.763-1.766 1.929-1.902 2.035-2.032q3.337-3.324 6.685-6.637l4.65-4.633q6.127-6.107 12.267-12.203 9.799-9.735 19.582-19.486 3.409-3.392 6.825-6.78l4.225-4.205 1.898-1.878c3.817-3.807 7.374-7.749 10.817-11.899z"/><path fill="#273313" d="M202.241 74.294 204 75c-1.275 2.55-2.484 2.755-5 4-1.621 1.33-1.621 1.33-3.138 2.898l-1.802 1.793-1.94 1.962-2.07 2.07a3025 3025 0 0 0-6.753 6.785l-4.691 4.7a8994 8994 0 0 0-12.33 12.379q-6.29 6.318-12.589 12.628A27962 27962 0 0 0 129 149l-2-1 1.541-1.525q3.513-3.485 7.021-6.975l2.424-2.398c4.359-4.34 8.564-8.745 12.558-13.424 2.036-2.347 4.23-4.511 6.456-6.678 3.788-3.761 7.524-7.571 11.258-11.386 3.369-3.436 6.751-6.86 10.135-10.281q2.679-2.718 5.345-5.448a1498 1498 0 0 1 7.735-7.846l2.408-2.487 2.256-2.257 1.973-2.006C200 74 200 74 202.241 74.294"/><path fill="#9FCE4E" d="m98 130 1 2c-6.473 7.835-13.778 14.868-21 22l-2-1c3.112-3.812 6.178-7.257 9.938-10.437 4.131-3.505 7.58-7.426 11.062-11.563z"/><path fill="#97C44A" d="M81 71c-1.398 3.158-3.052 5.323-5.5 7.75l-1.844 1.86C72 82 72 82 70 82c1.398-3.158 3.052-5.323 5.5-7.75l1.844-1.86C79 71 79 71 81 71"/><path fill="#35461A" d="M65 57c-1.556 3.82-3.956 6.26-7 9h-2c1.543-3.788 4.553-9 9-9"/></svg>