<?xml version="1.0" encoding="UTF-8"?>
<svg version="1.1" xmlns="http://www.w3.org/2000/svg" width="250" height="250">
<path d="M0 0 C17.16 0 34.32 0 52 0 C52 0.66 52 1.32 52 2 C52.96099609 2.07347656 52.96099609 2.07347656 53.94140625 2.1484375 C59.21196085 2.6040145 63.96986288 3.3597379 69 5 C69 5.66 69 6.32 69 7 C70.546875 7.185625 70.546875 7.185625 72.125 7.375 C75.62116846 7.93889814 78.68397627 8.78682059 82 10 C82 10.66 82 11.32 82 12 C83.3921875 12.4640625 83.3921875 12.4640625 84.8125 12.9375 C86.875 13.625 88.9375 14.3125 91 15 C91 15.66 91 16.32 91 17 C91.969375 17.28875 92.93875 17.5775 93.9375 17.875 C97 19 97 19 98 21 C99.20731771 21.607981 100.44162487 22.1630459 101.6875 22.6875 C105.6975494 24.58850732 107.9540597 26.87929218 110.578125 30.4140625 C112.21799088 32.24314367 113.80172937 32.94693623 116 34 C118.0625 36.375 118.0625 36.375 120 39 C121.60618616 41.16217368 123.09271885 43.09271885 125 45 C126.73894433 47.0867332 127.89033555 48.52021804 128.5 51.1875 C128.665 51.785625 128.83 52.38375 129 53 C129.99 53.33 130.98 53.66 132 54 C133.05008653 55.97416268 134.04987876 57.97582866 135 60 C135.66 60.66 136.32 61.32 137 62 C138.03101947 64.31979381 139.02936517 66.65429915 140 69 C140.50660156 69.95519531 140.50660156 69.95519531 141.0234375 70.9296875 C142.0918554 73.19473345 142.62066103 75.30035359 143.125 77.75 C143.29257813 78.54921875 143.46015625 79.3484375 143.6328125 80.171875 C143.75398437 80.77515625 143.87515625 81.3784375 144 82 C144.66 82 145.32 82 146 82 C147.98 90.415 147.98 90.415 150 99 C150.33 99 150.66 99 151 99 C151.05067793 106.33232678 151.08572428 113.66460844 151.10986328 120.99707031 C151.11992561 123.49187915 151.13357679 125.98667618 151.15087891 128.48144531 C151.17511668 132.06578484 151.18648082 135.64996853 151.1953125 139.234375 C151.20563507 140.35116638 151.21595764 141.46795776 151.22659302 142.61859131 C151.22674408 143.65936829 151.22689514 144.70014526 151.22705078 145.77246094 C151.231492 146.68735291 151.23593323 147.60224487 151.24050903 148.54486084 C150.98305603 151.17296563 150.26799849 152.71129383 149 155 C148.41076456 157.23801349 147.87225083 159.48976895 147.375 161.75 C147.11460937 162.92046875 146.85421875 164.0909375 146.5859375 165.296875 C146.39257812 166.18890625 146.19921875 167.0809375 146 168 C145.34 168 144.68 168 144 168 C143.87882813 168.68707031 143.75765625 169.37414062 143.6328125 170.08203125 C143.38144531 171.43361328 143.38144531 171.43361328 143.125 172.8125 C142.88136719 174.15248047 142.88136719 174.15248047 142.6328125 175.51953125 C142 178 142 178 140 181 C138.98693993 183.26400468 138.0418134 185.55025085 137.09765625 187.84375 C135.97649962 190.04616445 134.78706167 191.32402594 133 193 C131.82425289 195.09989652 131.82425289 195.09989652 131 197 C130.34 197 129.68 197 129 197 C128.566875 198.423125 128.566875 198.423125 128.125 199.875 C126.83667187 203.45368924 125.35832552 204.66053372 122.625 207.25 C119.89654548 209.92907279 119.89654548 209.92907279 117.9375 213.25 C116 216 116 216 113.75 216.875 C113.1725 216.91625 112.595 216.9575 112 217 C112 217.99 112 218.98 112 220 C111.4225 220.2475 110.845 220.495 110.25 220.75 C107.90550694 221.90996305 107.90550694 221.90996305 106.125 223.9375 C103.65273686 226.33704952 101.077356 227.49551484 98 229 C97.67 229.66 97.34 230.32 97 231 C95.02111039 231.72693904 93.02045442 232.39816251 91 233 C91 233.66 91 234.32 91 235 C90.43410156 235.19335938 89.86820313 235.38671875 89.28515625 235.5859375 C88.55167969 235.84632813 87.81820312 236.10671875 87.0625 236.375 C86.33160156 236.63023437 85.60070312 236.88546875 84.84765625 237.1484375 C82.81317884 237.85271413 82.81317884 237.85271413 82 240 C79.8203125 240.8515625 79.8203125 240.8515625 77.125 241.625 C76.24070313 241.88539063 75.35640625 242.14578125 74.4453125 242.4140625 C72 243 72 243 69 243 C69 243.66 69 244.32 69 245 C67.10614563 245.50744423 65.20981334 246.00564574 63.3125 246.5 C61.72888672 246.91765625 61.72888672 246.91765625 60.11328125 247.34375 C57.28857328 247.9391715 54.87163292 248.12786492 52 248 C52 248.66 52 249.32 52 250 C34.84 250 17.68 250 0 250 C0 249.34 0 248.68 0 248 C-0.64066406 247.95101562 -1.28132813 247.90203125 -1.94140625 247.8515625 C-7.21196085 247.3959855 -11.96986288 246.6402621 -17 245 C-17 244.34 -17 243.68 -17 243 C-18.03125 242.87625 -19.0625 242.7525 -20.125 242.625 C-23.62116846 242.06110186 -26.68397627 241.21317941 -30 240 C-30 239.34 -30 238.68 -30 238 C-30.928125 237.690625 -31.85625 237.38125 -32.8125 237.0625 C-34.875 236.375 -36.9375 235.6875 -39 235 C-39 234.34 -39 233.68 -39 233 C-39.969375 232.71125 -40.93875 232.4225 -41.9375 232.125 C-45 231 -45 231 -46 229 C-47.20731771 228.392019 -48.44162487 227.8369541 -49.6875 227.3125 C-53.6975494 225.41149268 -55.9540597 223.12070782 -58.578125 219.5859375 C-60.21799088 217.75685633 -61.80172937 217.05306377 -64 216 C-66.0625 213.625 -66.0625 213.625 -68 211 C-69.60618616 208.83782632 -71.09271885 206.90728115 -73 205 C-74.73894433 202.9132668 -75.89033555 201.47978196 -76.5 198.8125 C-76.665 198.214375 -76.83 197.61625 -77 197 C-77.99 196.67 -78.98 196.34 -80 196 C-81.05008653 194.02583732 -82.04987876 192.02417134 -83 190 C-83.66 189.34 -84.32 188.68 -85 188 C-86.03101947 185.68020619 -87.02936517 183.34570085 -88 181 C-88.33773437 180.36320313 -88.67546875 179.72640625 -89.0234375 179.0703125 C-90.0918554 176.80526655 -90.62066103 174.69964641 -91.125 172.25 C-91.29257813 171.45078125 -91.46015625 170.6515625 -91.6328125 169.828125 C-91.75398438 169.22484375 -91.87515625 168.6215625 -92 168 C-92.66 168 -93.32 168 -94 168 C-95.98 159.585 -95.98 159.585 -98 151 C-98.33 151 -98.66 151 -99 151 C-99.05067793 143.66767322 -99.08572428 136.33539156 -99.10986328 129.00292969 C-99.11992561 126.50812085 -99.13357679 124.01332382 -99.15087891 121.51855469 C-99.17511668 117.93421516 -99.18648082 114.35003147 -99.1953125 110.765625 C-99.20563507 109.64883362 -99.21595764 108.53204224 -99.22659302 107.38140869 C-99.22674408 106.34063171 -99.22689514 105.29985474 -99.22705078 104.22753906 C-99.231492 103.31264709 -99.23593323 102.39775513 -99.24050903 101.45513916 C-98.98305603 98.82703437 -98.26799849 97.28870617 -97 95 C-96.41076456 92.76198651 -95.87225083 90.51023105 -95.375 88.25 C-94.98441406 86.49429688 -94.98441406 86.49429688 -94.5859375 84.703125 C-94.39257812 83.81109375 -94.19921875 82.9190625 -94 82 C-93.34 82 -92.68 82 -92 82 C-91.81824219 80.96939453 -91.81824219 80.96939453 -91.6328125 79.91796875 C-91.46523437 79.01691406 -91.29765625 78.11585937 -91.125 77.1875 C-90.96257812 76.29417969 -90.80015625 75.40085937 -90.6328125 74.48046875 C-90 72 -90 72 -88 69 C-86.98693993 66.73599532 -86.0418134 64.44974915 -85.09765625 62.15625 C-83.97649962 59.95383555 -82.78706167 58.67597406 -81 57 C-79.82425289 54.90010348 -79.82425289 54.90010348 -79 53 C-78.34 53 -77.68 53 -77 53 C-76.71125 52.05125 -76.4225 51.1025 -76.125 50.125 C-74.83667187 46.54631076 -73.35832552 45.33946628 -70.625 42.75 C-67.89654548 40.07092721 -67.89654548 40.07092721 -65.9375 36.75 C-64 34 -64 34 -61.75 33.125 C-61.1725 33.08375 -60.595 33.0425 -60 33 C-60 32.01 -60 31.02 -60 30 C-59.4225 29.7525 -58.845 29.505 -58.25 29.25 C-55.90550694 28.09003695 -55.90550694 28.09003695 -54.125 26.0625 C-51.65273686 23.66295048 -49.077356 22.50448516 -46 21 C-45.67 20.34 -45.34 19.68 -45 19 C-43.02111039 18.27306096 -41.02045442 17.60183749 -39 17 C-39 16.34 -39 15.68 -39 15 C-38.43410156 14.80664062 -37.86820313 14.61328125 -37.28515625 14.4140625 C-36.55167969 14.15367188 -35.81820312 13.89328125 -35.0625 13.625 C-34.33160156 13.36976562 -33.60070312 13.11453125 -32.84765625 12.8515625 C-30.81317884 12.14728587 -30.81317884 12.14728587 -30 10 C-27.8203125 9.1484375 -27.8203125 9.1484375 -25.125 8.375 C-24.24070312 8.11460938 -23.35640625 7.85421875 -22.4453125 7.5859375 C-20 7 -20 7 -17 7 C-17 6.34 -17 5.68 -17 5 C-15.10614563 4.49255577 -13.20981334 3.99435426 -11.3125 3.5 C-9.72888672 3.08234375 -9.72888672 3.08234375 -8.11328125 2.65625 C-5.28857328 2.0608285 -2.87163292 1.87213508 0 2 C0 1.34 0 0.68 0 0 Z " fill="#C2FD60" transform="translate(99,0)"/>
<path d="M0 0 C-1.40831649 4.48100701 -3.58823267 6.82626295 -7 10 C-7.845625 10.886875 -8.69125 11.77375 -9.5625 12.6875 C-12 15 -12 15 -14.1875 16.0625 C-16.53801104 17.27828157 -16.87248269 18.66979756 -18 21 C-19.485 21.495 -19.485 21.495 -21 22 C-21.495 22.99 -21.495 22.99 -22 24 C-22.495 24.99 -22.495 24.99 -23 26 C-24.485 26.495 -24.485 26.495 -26 27 C-26.28156448 27.56595886 -26.56312897 28.13191772 -26.85322571 28.71502686 C-28.44424697 31.88517191 -30.84763054 34.10137328 -33.34838867 36.55957031 C-33.8933902 37.1032576 -34.43839172 37.64694489 -34.99990845 38.20710754 C-36.80137529 40.00208866 -38.60971352 41.78998495 -40.41796875 43.578125 C-41.67680453 44.83068519 -42.93512309 46.08376538 -44.19294739 47.33734131 C-47.50852899 50.63961889 -50.82962073 53.93629409 -54.15234375 57.23138428 C-59.45353835 62.48949395 -64.74816312 67.75419535 -70.03936195 73.02236176 C-71.87971768 74.85258454 -73.72350061 76.67930012 -75.56767273 78.50567627 C-80.75506392 83.65612002 -85.8513432 88.80441935 -90.59512329 94.37342834 C-92.61101034 96.70743012 -94.79237593 98.84810532 -97 101 C-98.04733677 102.0446211 -99.09321111 103.09070966 -100.13793945 104.13793945 C-108.42529297 112.42529297 -116.71264648 120.71264648 -125 129 C-129.22257959 127.59247347 -130.44981929 126.01277046 -132.5703125 122.109375 C-133.08335937 121.00078125 -133.59640625 119.8921875 -134.125 118.75 C-134.64320313 117.65171875 -135.16140625 116.5534375 -135.6953125 115.421875 C-137.03459746 111.90925936 -137.61201329 108.72845769 -138 105 C-138.66 105 -139.32 105 -140 105 C-142.3974176 96.13483393 -143.49000735 87.92466142 -143.375 78.75 C-143.36557373 77.5755835 -143.35614746 76.40116699 -143.34643555 75.19116211 C-143.10388541 61.12228773 -141.23180232 48.78381582 -135 36 C-134.34 36 -133.68 36 -133 36 C-132.84144531 34.91912109 -132.84144531 34.91912109 -132.6796875 33.81640625 C-128.99421606 18.54499875 -111.87699482 4.93210137 -99.20874023 -3.14160156 C-94.56904873 -5.92429742 -91.28217342 -6.62932116 -86 -7 C-86 -7.66 -86 -8.32 -86 -9 C-82.7 -9.66 -79.4 -10.32 -76 -11 C-76 -11.66 -76 -12.32 -76 -13 C-48.43262557 -16.1634692 -23.94182939 -15.96121959 0 0 Z " fill="#040501" transform="translate(177,49)"/>
<path d="M0 0 C3.0043639 1.41449529 3.56867965 3.9069993 4.85621643 6.87393188 C5.66059143 8.32799438 5.66059143 8.32799438 6.48121643 9.81143188 C8.07776125 13.36737263 8.72995007 15.96685766 8.85621643 19.87393188 C6.973526 22.71192932 6.973526 22.71192932 4.12379456 25.49868774 C3.60849182 26.0135524 3.09318909 26.52841705 2.56227112 27.05888367 C0.8554528 28.75503991 -0.87782621 30.42119308 -2.61253357 32.08877563 C-3.80970012 33.26846187 -5.00502777 34.4500169 -6.19859314 35.63334656 C-9.34840793 38.74695641 -12.52100918 41.83627333 -15.69944763 44.92062378 C-19.53458366 48.650178 -23.34368016 52.40627726 -27.15544891 56.15968418 C-30.12713837 59.08520152 -33.10272856 62.00629707 -36.09190369 64.91395569 C-41.16890238 69.86362439 -46.17070375 74.80657733 -50.71128845 80.26506042 C-52.24233748 81.98462027 -53.86927474 83.40880943 -55.64378357 84.87393188 C-58.11074493 86.91087343 -60.20798633 89.00790385 -62.27464294 91.44985962 C-68.64494988 98.81838702 -75.55273811 105.69112607 -82.39322662 112.6200037 C-84.7684546 115.02597196 -87.13494546 117.43934851 -89.48313904 119.87173462 C-92.21214505 122.69823595 -94.97337426 125.49193499 -97.73753357 128.28408813 C-98.99563843 129.59942284 -98.99563843 129.59942284 -100.27915955 130.94132996 C-106.20309222 136.84578093 -106.20309222 136.84578093 -111.02708435 136.99014282 C-114.29651091 135.8192343 -117.40757172 134.60920101 -120.51878357 133.06143188 C-121.55776794 132.55998657 -122.59675232 132.05854126 -123.66722107 131.54190063 C-126.14378357 129.87393188 -126.14378357 129.87393188 -126.95420074 127.96247482 C-127.14378357 125.87393188 -127.14378357 125.87393188 -124.65367126 122.78927612 C-123.42952825 121.55362688 -122.19123429 120.33190963 -120.94261169 119.1210022 C-120.27125183 118.45051849 -119.59989197 117.78003479 -118.90818787 117.0892334 C-116.67528345 114.86494152 -114.42528392 112.65878749 -112.17503357 110.45205688 C-110.61979743 108.90868859 -109.06573552 107.36413622 -107.51280212 105.81845093 C-103.40964123 101.74010112 -99.29216175 97.67652011 -95.17112732 93.61624146 C-89.38867267 87.91394352 -83.62549013 82.1921613 -77.86045837 76.47225952 C-74.79047165 73.42637101 -71.71506507 70.38612462 -68.63511658 67.35031128 C-67.21675325 65.94838278 -65.79841691 64.54642698 -64.38011169 63.1444397 C-63.74915588 62.52493439 -63.11820007 61.90542908 -62.46812439 61.26715088 C-58.69360253 57.52943415 -55.13589424 53.66278455 -51.67697906 49.63077927 C-49.60949907 47.26170969 -47.39591075 45.06679256 -45.14378357 42.87393188 C-41.35597988 39.11289868 -37.62008899 35.3026015 -33.88619995 31.48809814 C-30.5167623 28.05200146 -27.13428374 24.62887114 -23.7509613 21.20645142 C-21.96491758 19.39509112 -20.18336259 17.57929428 -18.40623474 15.75918579 C-15.83946976 13.13205697 -13.25714136 10.52115962 -10.67112732 7.91299438 C-9.87625412 7.09231476 -9.08138092 6.27163513 -8.26242065 5.42608643 C-7.51807266 4.68136078 -6.77372467 3.93663513 -6.00682068 3.16934204 C-5.35571823 2.50713654 -4.70461578 1.84493103 -4.03378296 1.16265869 C-2.14378357 -0.12606812 -2.14378357 -0.12606812 0 0 Z " fill="#030401" transform="translate(202.14378356933594,74.12606811523438)"/>
<path d="M0 0 C0.87205078 -0.00386719 1.74410156 -0.00773437 2.64257812 -0.01171875 C7.18819126 -0.00483667 11.46494414 0.19964361 15.9375 1.125 C15.9375 4.125 15.9375 4.125 14.50390625 5.59765625 C13.51197266 6.38462891 13.51197266 6.38462891 12.5 7.1875 C9.15253932 9.97902198 6.2483035 12.9093668 3.375 16.1875 C0.33593721 19.64358685 -2.73919213 22.66217696 -6.29902649 25.56335449 C-8.06057224 27.12329287 -9.51383435 28.74266227 -11.02416992 30.54492188 C-16.08447885 36.39613521 -21.58583902 41.81270106 -27.05078125 47.28125 C-28.2019099 48.43559743 -29.35296557 49.59001763 -30.50395203 50.74450684 C-32.90004079 53.14654404 -35.2981471 55.54654578 -37.69750977 57.9453125 C-40.77722585 61.02492611 -43.8499549 64.11141366 -46.92104816 67.19962311 C-49.28788153 69.57753631 -51.65920656 71.9509299 -54.03185081 74.32304382 C-55.16780315 75.46017825 -56.3021296 76.59893925 -57.43480873 77.73933411 C-59.00955989 79.32382264 -60.59044684 80.90192119 -62.1730957 82.47851562 C-63.07131546 83.3781604 -63.96953522 84.27780518 -64.89497375 85.20471191 C-67.0625 87.125 -67.0625 87.125 -69.0625 87.125 C-71.23737752 82.77524495 -70.24748893 76.90105696 -70.25 72.125 C-70.26224609 70.93003906 -70.27449219 69.73507813 -70.28710938 68.50390625 C-70.30413792 58.13920121 -69.25964493 49.36463435 -64.4375 40.125 C-64.08341064 39.43712402 -63.72932129 38.74924805 -63.36450195 38.04052734 C-56.1243891 24.38737674 -45.30539429 13.3011223 -31.0625 7.125 C-29.515625 6.25875 -29.515625 6.25875 -27.9375 5.375 C-24.25345963 3.77324332 -21.05766582 3.46941085 -17.0625 3.125 C-17.0625 2.465 -17.0625 1.805 -17.0625 1.125 C-11.34023019 0.14403946 -5.79920346 -0.02583164 0 0 Z " fill="#BFF95E" transform="translate(125.0625,54.875)"/>
<path d="M0 0 C0.66 0 1.32 0 2 0 C1.48400816 7.8822202 -0.0921453 15.34458305 -2 23 C-2.66 23 -3.32 23 -4 23 C-4.66 26.3 -5.32 29.6 -6 33 C-7.485 33.495 -7.485 33.495 -9 34 C-9.68911444 35.9923769 -10.35187963 37.99391315 -11 40 C-21.26178777 56.07607766 -36.19679076 68.92922186 -54 76 C-55.98971669 76.39004948 -57.98922939 76.73939939 -60 77 C-60 77.66 -60 78.32 -60 79 C-62.41575607 79.50478485 -64.83244361 80.00397642 -67.25 80.5 C-67.93191406 80.64308594 -68.61382812 80.78617187 -69.31640625 80.93359375 C-72.64633121 81.61251049 -75.58332551 82 -79 82 C-77.70910151 79.16127296 -76.35778433 77.11026816 -74.14912415 74.91534424 C-73.56750015 74.33241608 -72.98587616 73.74948792 -72.3866272 73.14889526 C-71.75026337 72.52129303 -71.11389954 71.8936908 -70.45825195 71.24707031 C-69.78645401 70.57658661 -69.11465607 69.90610291 -68.42250061 69.21530151 C-66.19898534 66.99827997 -63.96858124 64.78831924 -61.73828125 62.578125 C-60.18798314 61.03410026 -58.63820104 59.48955726 -57.08891296 57.94451904 C-53.00394299 53.87286094 -48.91345437 49.80679615 -44.8213501 45.74230957 C-38.28838399 39.25241447 -31.76200048 32.75591849 -25.23900414 26.25600433 C-22.96653445 23.99369597 -20.69064546 21.73487063 -18.41438293 19.47637939 C-17.00570968 18.07454195 -15.59714977 16.67259059 -14.1887207 15.27050781 C-13.56247803 14.6510025 -12.93623535 14.03149719 -12.29101562 13.39321899 C-8.47399683 9.58591157 -4.91711206 5.6444417 -1.47383404 1.49439621 C-0.98746881 1.00124546 -0.50110357 0.50809471 0 0 Z " fill="#070903" transform="translate(215,135)"/>
<path d="M0 0 C0.87048729 0.34945175 0.87048729 0.34945175 1.75856018 0.70596313 C0.48313096 3.25682157 -0.72553296 3.46063141 -3.24143982 4.70596313 C-4.86284111 6.03690529 -4.86284111 6.03690529 -6.37992859 7.60394287 C-6.97441803 8.19568298 -7.56890747 8.7874231 -8.18141174 9.39709473 C-8.82158234 10.04445587 -9.46175293 10.69181702 -10.12132263 11.35879517 C-10.80465668 12.04183716 -11.48799072 12.72487915 -12.19203186 13.42861938 C-14.44764958 15.68562952 -16.69610204 17.94963944 -18.94456482 20.21377563 C-20.50782874 21.78076999 -22.07153505 23.34732313 -23.63566589 24.91345215 C-27.75002427 29.03544455 -31.85834102 33.16340798 -35.96543884 37.29263306 C-40.15798148 41.50563898 -44.3561957 45.71298472 -48.55393982 49.92080688 C-56.7886751 58.17698803 -65.01704047 66.4394867 -73.24143982 74.70596313 C-73.90143982 74.37596313 -74.56143982 74.04596313 -75.24143982 73.70596313 C-74.7328241 73.20258423 -74.22420837 72.69920532 -73.70018005 72.18057251 C-71.35703254 69.85844335 -69.0179738 67.53223544 -66.67893982 65.20596313 C-65.87907654 64.41447876 -65.07921326 63.62299438 -64.25511169 62.80752563 C-59.89682313 58.467026 -55.69158306 54.06326435 -51.69725037 49.38442993 C-49.66109214 47.03685525 -47.46705644 44.8730109 -45.24143982 42.70596313 C-41.45363613 38.94492993 -37.71774524 35.13463275 -33.9838562 31.32012939 C-30.61441855 27.88403271 -27.23193999 24.46090239 -23.84861755 21.03848267 C-22.06257383 19.22712237 -20.28101884 17.41132553 -18.50389099 15.59121704 C-15.93712601 12.96408822 -13.35479761 10.35319087 -10.76878357 7.74502563 C-9.97391037 6.92434601 -9.17903717 6.10366638 -8.3600769 5.25811768 C-7.61572891 4.51339203 -6.87138092 3.76866638 -6.10447693 3.00137329 C-5.45337448 2.33916779 -4.80227203 1.67696228 -4.13143921 0.99468994 C-2.24143982 -0.29403687 -2.24143982 -0.29403687 0 0 Z " fill="#273313" transform="translate(202.24143981933594,74.29403686523438)"/>
<path d="M0 0 C0.33 0.66 0.66 1.32 1 2 C-5.47251453 9.83514917 -12.77773464 16.86788775 -20 24 C-20.66 23.67 -21.32 23.34 -22 23 C-18.88777538 19.18752484 -15.82199278 15.74304555 -12.0625 12.5625 C-7.93051773 9.05826119 -4.48117506 5.13704863 -1 1 C-0.67 0.67 -0.34 0.34 0 0 Z " fill="#9FCE4E" transform="translate(98,130)"/>
<path d="M0 0 C-1.39750048 3.15835107 -3.05198234 5.32272825 -5.5 7.75 C-6.41265625 8.67039062 -6.41265625 8.67039062 -7.34375 9.609375 C-9 11 -9 11 -11 11 C-9.60249952 7.84164893 -7.94801766 5.67727175 -5.5 3.25 C-4.8915625 2.63640625 -4.283125 2.0228125 -3.65625 1.390625 C-2 0 -2 0 0 0 Z " fill="#97C44A" transform="translate(81,71)"/>
<path d="M0 0 C-1.55603771 3.81936528 -3.95604931 6.26044438 -7 9 C-7.66 9 -8.32 9 -9 9 C-7.45665977 5.21180126 -4.44676575 0 0 0 Z " fill="#35461A" transform="translate(65,57)"/>
</svg>
