<svg xmlns="http://www.w3.org/2000/svg" width="950" height="950" fill="none" viewBox="0 0 950 950"><g clip-path="url(#a)"><path fill="#A1FEA0" d="M950 475c0 262.337-212.663 475-475 475C212.665 950 0 737.337 0 475 0 212.665 212.665 0 475 0c262.337 0 475 212.665 475 475"/><path fill="#000" fill-rule="evenodd" d="M475 937.631c255.504 0 462.631-207.127 462.631-462.631S730.504 12.37 475 12.37 12.37 219.496 12.37 475 219.496 937.631 475 937.631M475 950c262.337 0 475-212.663 475-475C950 212.665 737.337 0 475 0 212.665 0 0 212.665 0 475c0 262.337 212.665 475 475 475" clip-rule="evenodd"/><path fill="#74FF71" d="M88.552 549.457c44.79 215.377 255.654 353.636 471.032 308.849 215.377-44.79 353.636-255.656 308.845-471.033"/><path fill="#000" fill-rule="evenodd" d="M560.838 864.354c-218.72 45.482-432.859-94.924-478.344-313.645l12.11-2.519c44.094 212.032 251.684 348.145 463.715 304.053 212.032-44.095 348.148-251.685 304.053-463.718l12.11-2.515c45.487 218.72-94.923 432.858-313.644 478.344" clip-rule="evenodd"/><path fill="#74FF71" d="M498.237 560.693c215.357-44.787 381.201-123.109 370.424-174.937C857.88 333.925 674.56 328.215 459.203 373 243.846 417.786 78.002 496.108 88.78 547.936s194.098 57.54 409.457 12.757"/><path fill="#000" fill-rule="evenodd" d="M115.921 509.699c-17.19 15.15-23.032 27.622-21.08 37.004 1.95 9.379 12.28 18.491 34.084 25.529 21.274 6.866 51.272 11.008 88.063 12.156 73.481 2.287 172.645-7.403 279.992-29.728 107.346-22.325 202.156-52.968 268.633-84.363 33.28-15.721 59.143-31.476 75.916-46.258 17.188-15.147 23.028-27.618 21.079-37s-12.282-18.491-34.086-25.53c-21.272-6.869-51.27-11.01-88.061-12.156-73.481-2.288-172.646 7.403-279.992 29.727-107.348 22.323-202.156 52.97-268.632 84.365-33.284 15.717-59.144 31.476-75.916 46.254m70.634-57.441c67.59-31.92 163.383-62.825 271.395-85.289 108.011-22.461 208.183-32.307 282.895-29.979 37.308 1.162 68.62 5.367 91.477 12.747 22.333 7.209 38.958 18.249 42.397 34.782 3.439 16.534-7.41 33.288-25.012 48.804-18.023 15.88-45.064 32.22-78.812 48.157-67.591 31.92-163.385 62.829-271.396 85.291s-208.184 32.308-282.896 29.978c-37.306-1.159-68.619-5.365-91.479-12.745-22.329-7.208-38.956-18.251-42.394-34.785-3.439-16.534 7.408-33.284 25.013-48.8 18.022-15.88 45.061-32.22 78.812-48.161" clip-rule="evenodd"/><path fill="#A1FEA0" d="M804.28 494.452c20.498 0 37.111-16.617 37.111-37.111 0-20.497-16.613-37.111-37.111-37.111-20.493 0-37.107 16.614-37.107 37.111 0 20.494 16.614 37.111 37.107 37.111"/><path fill="#000" fill-rule="evenodd" d="M804.288 426.443c-17.077 0-30.924 13.843-30.924 30.924 0 17.078 13.847 30.925 30.924 30.925 17.081 0 30.924-13.847 30.924-30.925 0-17.081-13.843-30.924-30.924-30.924m-43.293 30.924c0-23.913 19.383-43.297 43.293-43.297s43.293 19.384 43.293 43.297c0 23.91-19.383 43.294-43.293 43.294s-43.293-19.384-43.293-43.294" clip-rule="evenodd"/><path fill="#2FFF2B" d="M185.051 765.56c20.495 0 37.109-16.614 37.109-37.111 0-20.494-16.614-37.107-37.109-37.107s-37.109 16.613-37.109 37.107c0 20.497 16.614 37.111 37.109 37.111"/><path fill="#000" fill-rule="evenodd" d="M185.048 697.517c-17.079 0-30.924 13.844-30.924 30.925 0 17.077 13.845 30.924 30.924 30.924s30.925-13.847 30.925-30.924c0-17.081-13.845-30.925-30.925-30.925m-43.294 30.925c0-23.914 19.384-43.297 43.294-43.297 23.911 0 43.295 19.383 43.295 43.297 0 23.909-19.384 43.293-43.295 43.293-23.91 0-43.294-19.384-43.294-43.293M403.886 86.078a382 382 0 0 0-13.878 2.923 6.184 6.184 0 0 1-7.414-4.64 6.183 6.183 0 0 1 4.64-7.415 396 396 0 0 1 14.326-3.017 412 412 0 0 1 14.125-2.449 6.184 6.184 0 0 1 7.06 5.162 6.183 6.183 0 0 1-5.16 7.061q-6.841 1.064-13.699 2.375m62.711-13.129a6.184 6.184 0 0 1 6.103-6.265 402 402 0 0 1 28.618.64 6.185 6.185 0 0 1-.719 12.348 390 390 0 0 0-27.736-.62 6.185 6.185 0 0 1-6.266-6.103M339.414 97.725a6.186 6.186 0 0 1-3.496 8.018 385 385 0 0 0-25.973 11.319 6.186 6.186 0 0 1-5.355-11.151 398 398 0 0 1 26.807-11.683 6.185 6.185 0 0 1 8.017 3.497m211.357-18.193a6.19 6.19 0 0 1 7.296-4.827 402 402 0 0 1 27.835 6.7 6.185 6.185 0 1 1-3.321 11.916 390 390 0 0 0-26.98-6.495 6.186 6.186 0 0 1-4.83-7.294m-288.287 57.126a6.185 6.185 0 0 1-1.669 8.586 394 394 0 0 0-22.912 16.685 6.186 6.186 0 0 1-7.636-9.732 406 406 0 0 1 23.631-17.208 6.185 6.185 0 0 1 8.586 1.669m369.162-32.845a6.18 6.18 0 0 1 8.147-3.178 405 405 0 0 1 25.795 12.42 6.18 6.18 0 0 1 2.595 8.353 6.183 6.183 0 0 1-8.352 2.596 393 393 0 0 0-25.008-12.042 6.186 6.186 0 0 1-3.177-8.149m-435.912 87.435a6.184 6.184 0 0 1 .194 8.744 402 402 0 0 0-18.864 21.168 6.186 6.186 0 0 1-9.52-7.899 414 414 0 0 1 19.446-21.819 6.184 6.184 0 0 1 8.744-.194m509.864-46.672a6.184 6.184 0 0 1 8.634-1.398 407 407 0 0 1 22.617 17.552 6.185 6.185 0 0 1-7.923 9.499 394 394 0 0 0-21.93-17.019 6.184 6.184 0 0 1-1.398-8.634M142.009 258.703a6.183 6.183 0 0 1 2.026 8.509 401 401 0 0 0-13.995 24.657 6.186 6.186 0 0 1-10.967-5.722 413 413 0 0 1 14.428-25.418 6.183 6.183 0 0 1 8.508-2.026m627.349-58.763a6.186 6.186 0 0 1 8.736.446 404 404 0 0 1 18.419 21.915 6.185 6.185 0 1 1-9.747 7.618 392 392 0 0 0-17.852-21.244 6.183 6.183 0 0 1 .444-8.735M103.692 335.955a6.186 6.186 0 0 1 3.785 7.886 392 392 0 0 0-8.426 27.06 6.185 6.185 0 1 1-11.936-3.248 404 404 0 0 1 8.692-27.913 6.185 6.185 0 0 1 7.885-3.785m716.324-68.461a6.187 6.187 0 0 1 8.444 2.286 401 401 0 0 1 13.353 25.324 6.185 6.185 0 1 1-11.142 5.377 387 387 0 0 0-12.943-24.544 6.186 6.186 0 0 1 2.288-8.443M82.802 419.609a6.19 6.19 0 0 1 5.405 6.878 384 384 0 0 0-2.332 28.234 6.186 6.186 0 0 1-12.357-.562 396 396 0 0 1 2.407-29.142 6.186 6.186 0 0 1 6.877-5.408m772.383-75.354a6.185 6.185 0 0 1 7.767 4.023c1.44 4.54 10.476 31.173 11.764 35.791a6.187 6.187 0 0 1-4.297 7.619 6.184 6.184 0 0 1-7.619-4.295c-1.251-4.477-10.241-30.971-11.635-35.372a6.185 6.185 0 0 1 4.02-7.766M80.706 505.797a6.186 6.186 0 0 1 6.785 5.522c.482 4.689 7.411 35.6 8.07 40.301a6.185 6.185 0 1 1-12.25 1.717c-1.243-1.243-7.627-35.916-8.125-40.753a6.19 6.19 0 0 1 5.52-6.787" clip-rule="evenodd"/><path fill="#fff" d="M340.913 265.263s-15.59 25.99-22.762 42.825c-7.173 16.834-13.97 43.391-13.97 43.391-15.241-5.368-38.715-18.114-53.329-36.329-18.551-23.124-18.963-51.3-17.25-77.862 1.268-19.653 19.926-48.698 28.539-59.56-.519 1.235-1.555 7.765-1.547 24.003.011 20.298 3.138 33.186 19.317 48.183 12.944 11.998 46.061 15.232 61.002 15.349"/><path fill="#000" fill-rule="evenodd" d="M340.913 265.263c-3.222-.026-7.288-.196-11.816-.567-16.469-1.352-39.033-5.371-49.186-14.782-16.179-14.997-19.306-27.885-19.317-48.183q0-1.16.006-2.254c.083-14.594 1.047-20.573 1.541-21.749-3.263 4.114-7.967 10.838-12.621 18.672-7.632 12.847-15.13 28.679-15.918 40.888-1.713 26.562-1.301 54.738 17.25 77.862 14.614 18.215 38.088 30.961 53.329 36.329 0 0 6.797-26.557 13.97-43.391 7.172-16.835 22.762-42.825 22.762-42.825m-16.322 10.008s-12.327 18.541-17.477 30.628-8.895 31.275-8.895 31.275c-12.972-6.083-28.467-16.098-38.654-28.797-15.723-19.599-16.581-43.929-14.875-70.373.342-5.302 2.501-12.167 5.811-19.605.647 4.477 1.669 8.837 3.242 13.118 3.531 9.606 9.511 17.969 18.562 26.359 8.936 8.282 23.223 12.532 35.195 14.896 5.823 1.15 11.681 1.957 17.091 2.499" clip-rule="evenodd"/><path fill="#000" d="m331.432 272.551-30.578 71.044c-3.478-.389-13.791-3.553-27.213-13.103 3.375-30.212 22.708-54.65 33.664-62.649z"/><path fill="#fff" d="M611.81 266.456s15.584 25.743 22.773 42.43 14.045 43.029 14.045 43.029c15.112-5.391 38.369-18.142 52.806-36.287 18.326-23.035 18.623-51.013 16.815-77.38-1.338-19.51-19.98-48.274-28.577-59.024.521 1.224 1.576 7.703 1.633 23.827.071 20.155-2.982 32.964-18.987 47.92-12.804 11.965-45.673 15.309-60.508 15.485"/><path fill="#000" fill-rule="evenodd" d="M611.81 266.456c3.199-.038 7.236-.224 11.73-.611 16.347-1.408 38.735-5.489 48.778-14.874 16.005-14.956 19.058-27.765 18.987-47.92a389 389 0 0 0-.015-2.238c-.141-14.491-1.122-20.423-1.618-21.589 3.257 4.072 7.955 10.729 12.607 18.489 7.63 12.725 15.139 28.416 15.97 40.535 1.808 26.367 1.511 54.345-16.815 77.38-14.437 18.145-37.694 30.896-52.806 36.287 0 0-6.856-26.342-14.045-43.029s-22.773-42.43-22.773-42.43m16.246 9.872s12.315 18.36 17.477 30.341 8.958 31.018 8.958 31.018c12.855-6.092 28.2-16.099 38.265-28.749 15.532-19.523 16.286-43.684 14.486-69.935-.361-5.263-2.531-12.07-5.848-19.443-.625 4.448-1.622 8.781-3.167 13.038-3.466 9.552-9.371 17.881-18.325 26.247-8.839 8.26-23.008 12.538-34.885 14.933-5.778 1.165-11.59 1.99-16.961 2.55" clip-rule="evenodd"/><path fill="#000" d="m621.253 273.655 30.647 70.418c3.452-.4 13.679-3.583 26.968-13.119-3.473-29.985-22.768-54.172-33.678-62.071z"/><mask id="b" width="271" height="603" x="331" y="189" fill="#000" maskUnits="userSpaceOnUse"><path fill="#fff" d="M331 189h271v603H331z"/><path d="M590.962 606.72q0 48.78-25.393 81.523-24.724 32.074-66.822 40.762-3.34 1.336-3.341 4.009l.668 40.093q0 3.342-2.673 5.346-2.004 2.673-5.346 2.673h-42.097q-3.342 0-6.014-2.673-2.005-2.004-2.005-5.346l.668-40.093q0-3.341-2.673-4.009-42.766-8.687-67.49-40.094-24.724-32.075-24.724-77.513v-17.374q0-3.342 2.004-5.346 2.673-2.673 6.014-2.673h60.808q3.342 0 5.346 2.673 2.673 2.004 2.673 5.346v13.364q0 26.061 12.696 42.098 13.365 16.038 34.08 16.038t34.079-14.701q13.364-15.37 13.364-40.094 0-17.373-7.35-30.07t-20.715-24.056-42.766-32.742q-33.411-24.057-54.126-42.767-20.047-18.71-34.079-44.771-13.365-26.728-13.365-61.476 0-47.444 24.724-78.85 24.725-31.406 67.491-39.425 3.34-1.337 3.341-4.01l-.668-44.102q0-3.342 2.004-5.346 2.673-2.673 6.014-2.673h41.43q3.34 0 5.346 2.673 2.673 2.004 2.673 5.346l-1.337 44.771q0 3.34 2.673 4.009 42.098 9.355 66.822 42.098t24.725 80.187v16.037q0 3.34-2.673 6.014-2.005 2.005-5.346 2.005h-60.14q-3.34 0-6.014-2.005-2.005-2.673-2.005-6.014v-17.374q0-26.061-13.364-41.43-12.696-16.037-34.079-16.037-20.047 0-32.743 14.701-12.697 14.033-12.697 39.425 0 24.056 13.365 40.762 14.033 16.705 54.126 46.107 40.761 30.07 61.476 49.448 20.715 18.711 32.075 41.43t11.36 54.126"/></mask><path fill="#000" d="M590.962 606.72q0 48.78-25.393 81.523-24.724 32.074-66.822 40.762-3.34 1.336-3.341 4.009l.668 40.093q0 3.342-2.673 5.346-2.004 2.673-5.346 2.673h-42.097q-3.342 0-6.014-2.673-2.005-2.004-2.005-5.346l.668-40.093q0-3.341-2.673-4.009-42.766-8.687-67.49-40.094-24.724-32.075-24.724-77.513v-17.374q0-3.342 2.004-5.346 2.673-2.673 6.014-2.673h60.808q3.342 0 5.346 2.673 2.673 2.004 2.673 5.346v13.364q0 26.061 12.696 42.098 13.365 16.038 34.08 16.038t34.079-14.701q13.364-15.37 13.364-40.094 0-17.373-7.35-30.07t-20.715-24.056-42.766-32.742q-33.411-24.057-54.126-42.767-20.047-18.71-34.079-44.771-13.365-26.728-13.365-61.476 0-47.444 24.724-78.85 24.725-31.406 67.491-39.425 3.34-1.337 3.341-4.01l-.668-44.102q0-3.342 2.004-5.346 2.673-2.673 6.014-2.673h41.43q3.34 0 5.346 2.673 2.673 2.004 2.673 5.346l-1.337 44.771q0 3.34 2.673 4.009 42.098 9.355 66.822 42.098t24.725 80.187v16.037q0 3.34-2.673 6.014-2.005 2.005-5.346 2.005h-60.14q-3.34 0-6.014-2.005-2.005-2.673-2.005-6.014v-17.374q0-26.061-13.364-41.43-12.696-16.037-34.079-16.037-20.047 0-32.743 14.701-12.697 14.033-12.697 39.425 0 24.056 13.365 40.762 14.033 16.705 54.126 46.107 40.761 30.07 61.476 49.448 20.715 18.711 32.075 41.43t11.36 54.126"/><path fill="#000" d="m565.569 688.243-8.419-6.529-.01.012-.009.012zm-66.822 40.762-2.153-10.435-.926.191-.878.351zm-3.341 4.009h-10.655v.089l.002.089zm.668 40.093h10.655v-.088l-.002-.089zm-2.673 5.346-6.392-8.524-1.218.914-.913 1.217zm-53.457 0-7.534 7.534zm-2.005-5.346-10.653-.177-.002.089v.088zm.668-40.093 10.653.178.002-.089v-.089zm-2.673-4.009 2.584-10.337-.23-.057-.233-.048zm-67.49-40.094-8.439 6.505.033.043.034.043zm-22.72-100.233-7.534-7.534zm72.168 0-8.523 6.393.913 1.217 1.217.914zm15.369 60.808-8.353 6.614.083.104.085.103zm68.159 1.337 7.884 7.167.079-.087.077-.089zm6.014-70.164 9.221-5.338zm-20.715-24.056 6.9-8.118zm-42.766-32.742 6.267-8.617-.021-.015-.021-.015zm-54.126-42.767-7.27 7.789.064.06.064.058zm-34.079-44.771-9.53 4.765.072.145.076.142zm11.359-140.326 8.372 6.59zm67.491-39.425 1.963 10.472 1.025-.192.969-.388zm3.341-4.01h10.654v-.08l-.001-.081zm-.668-44.102h-10.655v.08l.001.081zm2.004-5.346-7.534-7.534zm52.79 0-8.524 6.393.913 1.217 1.218.914zm2.673 5.346 10.65.318.004-.159v-.159zm-1.337 44.771-10.65-.318-.004.159v.159zm2.673 4.009-2.584 10.336.136.034.137.031zm66.822 42.098 8.503-6.421zm-49.448 102.238-8.524 6.393.914 1.217 1.217.914zm-15.369-64.818-8.354 6.614.153.192.161.186zm-66.822-1.336 7.9 7.148.083-.091.08-.093zm.668 80.187-8.32 6.655.08.1.082.098zm54.126 46.107 6.325-8.574-.012-.009-.012-.009zm61.476 49.448-7.279 7.781.068.064.07.062zm32.075 41.43 9.53-4.765zm.705 54.126c0 30.591-7.924 55.35-23.157 74.994l16.839 13.059c18.623-24.014 27.627-53.604 27.627-88.053zm-23.176 75.018c-14.825 19.233-34.803 31.522-60.537 36.832l4.306 20.869c30.397-6.272 54.967-21.157 73.108-44.691zm-62.341 37.374c-2.165.866-4.697 2.298-6.734 4.742a14.2 14.2 0 0 0-3.305 9.16h21.31a7.12 7.12 0 0 1-1.635 4.482 5.8 5.8 0 0 1-1.231 1.126 4 4 0 0 1-.358.213c-.081.041-.129.06-.133.062zm-10.037 14.08.668 40.093 21.306-.355-.668-40.094zm.667 39.915c0-.343.078-1.002.456-1.758.378-.755.858-1.214 1.133-1.42l12.785 17.048c4.465-3.349 6.935-8.289 6.935-13.87zm-.542-1.047c.205-.274.664-.754 1.42-1.132s1.414-.457 1.757-.457v21.31c5.581 0 10.521-2.47 13.87-6.935zm3.177-1.589h-42.097v21.31h42.097zm-42.097 0c.353 0 .771.081 1.153.25.356.159.469.3.366.198l-15.067 15.068c3.494 3.494 8.114 5.794 13.548 5.794zm1.519.448c.415.415.743.931.939 1.454.184.49.177.784.177.734h-21.309c0 4.511 1.437 9.192 5.126 12.88zm1.115 2.366.668-40.093-21.306-.356-.668 40.094zm.67-40.271c0-2.431-.475-5.608-2.458-8.583-2.127-3.191-5.219-4.996-8.286-5.763l-5.168 20.673c-1.285-.321-3.04-1.236-4.276-3.09-1.092-1.638-1.122-3.033-1.122-3.237zm-11.207-14.451c-26.281-5.338-46.466-17.475-61.24-36.242l-16.743 13.181c18.192 23.108 43 37.7 73.741 43.944zm-61.173-36.156c-14.871-19.293-22.508-42.768-22.508-71.009h-21.309c0 32.343 8.846 60.545 26.94 84.018zm-22.508-71.009v-17.374h-21.309v17.374zm0-17.374c0-.05.007.244-.177.734a4.2 4.2 0 0 1-.939 1.454l-15.068-15.068c-3.688 3.688-5.125 8.37-5.125 12.88zm-1.116 2.188c.102-.102-.01.039-.367.198-.381.169-.799.25-1.153.25v-21.309c-5.433 0-10.054 2.299-13.548 5.793zm-1.52.448h60.808v-21.309h-60.808zm60.808 0c-.343 0-1.002-.079-1.757-.457-.756-.378-1.215-.858-1.42-1.132l17.047-12.786c-3.349-4.465-8.289-6.934-13.87-6.934zm-1.047.542c-.274-.206-.754-.665-1.132-1.42-.378-.756-.457-1.415-.457-1.758h21.31c0-5.581-2.47-10.521-6.935-13.87zm-1.589-3.178v13.364h21.31v-13.364zm0 13.364c0 19.107 4.676 35.673 14.998 48.712l16.707-13.227c-6.606-8.345-10.395-19.844-10.395-35.485zm15.166 48.919c10.916 13.099 25.264 19.871 42.265 19.871v-21.309c-10.62 0-18.991-3.919-25.895-12.204zm42.265 19.871c16.666 0 30.938-6.061 41.963-18.188l-15.768-14.334c-6.795 7.474-15.242 11.213-26.195 11.213zm42.119-18.364c10.938-12.578 15.979-28.607 15.979-47.085H504.13c0 14.488-3.869 25.189-10.75 33.102zm15.979-47.085c0-13.109-2.785-25.045-8.784-35.408l-18.442 10.677c3.801 6.565 5.917 14.676 5.917 24.731zm-8.784-35.408c-5.616-9.699-13.376-18.625-23.036-26.836l-13.8 16.237c8.159 6.935 14.209 14.047 18.394 21.276zm-23.036-26.836c-9.232-7.848-23.759-18.958-43.399-33.241l-12.534 17.233c19.562 14.227 33.546 24.946 42.133 32.245zm-43.441-33.271c-22.089-15.905-39.792-29.908-53.21-42.026l-14.283 15.813c14.203 12.828 32.584 27.336 55.042 43.506zm-53.081-41.909c-12.452-11.621-23.12-25.599-31.968-42.033l-18.763 10.103c9.862 18.314 21.914 34.183 36.191 47.508zm-31.82-41.746c-8.058-16.117-12.239-34.932-12.239-56.712h-21.309c0 24.55 4.728 46.719 14.489 66.241zm-12.239-56.712c0-29.702 7.701-53.535 22.441-72.26l-16.743-13.181c-18.226 23.151-27.007 51.885-27.007 85.441zm22.441-72.26c14.741-18.724 34.864-30.627 61.082-35.543l-3.927-20.944c-30.804 5.775-55.674 20.156-73.898 43.306zm63.076-36.123c2.164-.866 4.697-2.297 6.734-4.742 2.194-2.633 3.304-5.842 3.304-9.16h-21.309c0-1.535.554-3.185 1.634-4.482.47-.563.925-.921 1.231-1.125.154-.103.278-.171.359-.213q.123-.062.133-.063zm10.037-14.063-.668-44.103-21.307.323.668 44.103zm-.667-43.941c0-.05.007.244-.177.734a4.2 4.2 0 0 1-.939 1.454l-15.068-15.068c-3.688 3.688-5.125 8.37-5.125 12.88zm-1.116 2.188c.102-.102-.01.039-.367.198-.381.169-.799.25-1.153.25v-21.309c-5.433 0-10.054 2.299-13.548 5.793zm-1.52.448h41.43v-21.309h-41.43zm41.43 0c-.343 0-1.002-.079-1.758-.457-.755-.378-1.214-.858-1.42-1.132l17.048-12.786c-3.349-4.465-8.289-6.934-13.87-6.934zm-1.047.542c-.274-.206-.755-.665-1.132-1.42-.378-.756-.457-1.415-.457-1.758h21.309c0-5.581-2.47-10.521-6.934-13.87zm-1.584-3.496-1.337 44.771 21.3.636 1.337-44.771zm-1.341 45.089c0 2.431.474 5.608 2.457 8.583 2.127 3.19 5.219 4.996 8.286 5.762l5.168-20.672c1.286.321 3.041 1.235 4.277 3.089 1.092 1.639 1.121 3.034 1.121 3.238zm11.016 14.41c25.731 5.718 45.756 18.418 60.631 38.117l17.005-12.841c-18.091-23.958-42.614-39.322-73.014-46.078zm60.631 38.117c14.875 19.7 22.572 44.077 22.572 73.767h21.309c0-33.57-8.785-62.65-26.876-86.608zm22.572 73.767v16.037h21.309v-16.037zm0 16.037c0-.354.081-.772.25-1.153.158-.357.3-.469.198-.367l15.068 15.068c3.494-3.494 5.793-8.115 5.793-13.548zm.448-1.52a4.2 4.2 0 0 1 1.454-.939c.49-.184.784-.177.734-.177v21.309c4.51 0 9.191-1.437 12.88-5.125zm2.188-1.116h-60.14v21.309h60.14zm-60.14 0c-.022 0-.009-.002.033.005a1 1 0 0 1 .162.041 1 1 0 0 1 .154.065c.038.019.048.029.03.015L507.055 410.1c3.626 2.719 7.874 4.135 12.407 4.135zm2.51 2.257c-.014-.018-.005-.008.015.03q.032.058.065.154.031.096.041.162.007.064.005.033h-21.309c0 4.533 1.416 8.78 4.135 12.407zm.126.379v-17.374h-21.309v17.374zm0-17.374c0-19.206-4.955-35.744-15.979-48.421l-16.08 13.983c6.795 7.815 10.75 18.896 10.75 34.438zm-15.665-48.043c-10.589-13.376-25.094-20.079-42.433-20.079v21.31c11.17 0 19.386 3.988 25.725 11.996zM464 310.066c-16.348 0-30.246 6.163-40.807 18.392l16.127 13.928c6.367-7.373 14.298-11.01 24.68-11.01zm-40.644 18.208c-10.768 11.901-15.45 27.92-15.45 46.573h21.309c0-15.204 3.782-25.468 9.942-32.277zm-15.45 46.573c0 18.138 5.09 34.157 15.699 47.417l16.64-13.311c-7.211-9.014-11.03-20.17-11.03-34.106zm15.861 47.615c10.249 12.202 29.214 28.215 55.983 47.846l12.602-17.184c-26.689-19.572-43.808-34.296-52.269-44.368zm55.959 47.828c27.056 19.959 47.162 36.156 60.522 48.655l14.558-15.561c-14.259-13.339-35.138-30.108-62.43-50.242zm60.66 48.781c12.922 11.672 22.762 24.441 29.686 38.288l19.06-9.53c-8.223-16.445-19.766-31.297-34.463-44.571zm29.686 38.288c6.679 13.358 10.235 29.694 10.235 49.361h21.309c0-22.208-4.017-41.957-12.484-58.891z" mask="url(#b)"/><mask id="c" width="271" height="603" x="348.72" y="172" fill="#000" maskUnits="userSpaceOnUse"><path fill="#fff" d="M348.72 172h271v603h-271z"/><path d="M608.682 589.72q0 48.78-25.393 81.523-24.723 32.074-66.822 40.762-3.34 1.336-3.341 4.009l.668 40.093q0 3.342-2.673 5.346-2.004 2.673-5.345 2.673h-42.098q-3.341 0-6.014-2.673-2.005-2.004-2.005-5.346l.668-40.093q0-3.341-2.673-4.009-42.765-8.687-67.49-40.094-24.724-32.075-24.724-77.513v-17.374q0-3.342 2.004-5.346 2.673-2.673 6.014-2.673h60.809q3.34 0 5.345 2.673 2.673 2.004 2.673 5.346v13.364q0 26.061 12.697 42.098 13.364 16.038 34.079 16.038t34.079-14.701q13.365-15.37 13.365-40.094 0-17.373-7.351-30.07-7.35-12.696-20.715-24.056t-42.766-32.742q-33.411-24.057-54.126-42.767-20.046-18.71-34.079-44.771-13.365-26.728-13.365-61.476 0-47.444 24.725-78.85 24.723-31.406 67.49-39.425 3.34-1.337 3.341-4.01l-.668-44.102q0-3.342 2.004-5.346 2.673-2.673 6.014-2.673h41.43q3.342 0 5.346 2.673 2.673 2.004 2.673 5.346l-1.337 44.771q0 3.34 2.673 4.009 42.099 9.355 66.823 42.098t24.724 80.187v16.037q0 3.34-2.673 6.014-2.005 2.005-5.346 2.005h-60.14q-3.34 0-6.014-2.005-2.005-2.673-2.005-6.014v-17.374q0-26.061-13.364-41.43-12.696-16.037-34.079-16.037-20.047 0-32.743 14.701-12.696 14.033-12.696 39.425 0 24.056 13.364 40.762 14.033 16.705 54.126 46.107 40.762 30.07 61.476 49.448 20.715 18.711 32.075 41.43t11.36 54.126"/></mask><path fill="#fff" d="M608.682 589.72q0 48.78-25.393 81.523-24.723 32.074-66.822 40.762-3.34 1.336-3.341 4.009l.668 40.093q0 3.342-2.673 5.346-2.004 2.673-5.345 2.673h-42.098q-3.341 0-6.014-2.673-2.005-2.004-2.005-5.346l.668-40.093q0-3.341-2.673-4.009-42.765-8.687-67.49-40.094-24.724-32.075-24.724-77.513v-17.374q0-3.342 2.004-5.346 2.673-2.673 6.014-2.673h60.809q3.34 0 5.345 2.673 2.673 2.004 2.673 5.346v13.364q0 26.061 12.697 42.098 13.364 16.038 34.079 16.038t34.079-14.701q13.365-15.37 13.365-40.094 0-17.373-7.351-30.07-7.35-12.696-20.715-24.056t-42.766-32.742q-33.411-24.057-54.126-42.767-20.046-18.71-34.079-44.771-13.365-26.728-13.365-61.476 0-47.444 24.725-78.85 24.723-31.406 67.49-39.425 3.34-1.337 3.341-4.01l-.668-44.102q0-3.342 2.004-5.346 2.673-2.673 6.014-2.673h41.43q3.342 0 5.346 2.673 2.673 2.004 2.673 5.346l-1.337 44.771q0 3.34 2.673 4.009 42.099 9.355 66.823 42.098t24.724 80.187v16.037q0 3.34-2.673 6.014-2.005 2.005-5.346 2.005h-60.14q-3.34 0-6.014-2.005-2.005-2.673-2.005-6.014v-17.374q0-26.061-13.364-41.43-12.696-16.037-34.079-16.037-20.047 0-32.743 14.701-12.696 14.033-12.696 39.425 0 24.056 13.364 40.762 14.033 16.705 54.126 46.107 40.762 30.07 61.476 49.448 20.715 18.711 32.075 41.43t11.36 54.126"/><path fill="#000" d="m583.289 671.243-8.419-6.529-.01.012-.009.012zm-66.822 40.762-2.153-10.435-.926.191-.878.351zm-3.341 4.009h-10.654v.089l.001.089zm.668 40.093h10.655v-.088l-.002-.089zm-2.673 5.346-6.392-8.524-1.218.914-.913 1.217zm-53.457 0-7.534 7.534zm-2.005-5.346-10.653-.177-.002.089v.088zm.668-40.093 10.653.178.002-.089v-.089zm-2.673-4.009 2.585-10.337-.231-.057-.233-.048zm-67.49-40.094-8.439 6.505.034.043.033.043zm-22.72-100.233-7.533-7.534h-.001zm72.168 0-8.523 6.393.913 1.217 1.218.914zm15.37 60.808-8.354 6.614.083.104.085.103zm68.158 1.337 7.884 7.167.079-.087.077-.089zm6.014-70.164 9.221-5.338zm-20.715-24.056 6.901-8.118zm-42.766-32.742 6.267-8.617-.021-.015-.02-.015zm-54.126-42.767-7.27 7.789.064.06.064.058zm-34.079-44.771-9.53 4.765.072.145.077.142zm11.36-140.326 8.371 6.59zm67.49-39.425 1.963 10.472 1.026-.192.968-.388zm3.341-4.01h10.655v-.08l-.002-.081zm-.668-44.102h-10.655v.08l.001.081zm2.004-5.346-7.533-7.534zm52.79 0-8.524 6.393.914 1.217 1.217.914zm2.673 5.346 10.65.318.005-.159v-.159zm-1.337 44.771-10.649-.318-.005.159v.159zm2.673 4.009-2.584 10.336.136.034.137.031zm66.823 42.098 8.502-6.421zm-49.449 102.238-8.524 6.393.914 1.217 1.217.914zm-15.369-64.818-8.354 6.614.153.192.161.186zm-66.822-1.336 7.901 7.148.082-.091.08-.093zm.668 80.187-8.32 6.655.08.1.082.098zm54.126 46.107 6.325-8.574-.012-.009-.012-.009zm61.476 49.448-7.278 7.781.068.064.069.062zm32.075 41.43 9.53-4.765zm.705 54.126c0 30.591-7.923 55.35-23.157 74.994l16.839 13.059c18.623-24.014 27.627-53.604 27.627-88.053zm-23.176 75.018c-14.825 19.233-34.803 31.522-60.537 36.832l4.306 20.869c30.397-6.272 54.967-21.157 73.108-44.691zm-62.341 37.374c-2.164.866-4.697 2.298-6.734 4.742-2.194 2.633-3.304 5.843-3.304 9.16h21.309a7.12 7.12 0 0 1-1.635 4.482 6 6 0 0 1-1.23 1.126 4 4 0 0 1-.359.213q-.124.06-.133.062zm-10.037 14.08.668 40.093 21.306-.355-.668-40.094zm.667 39.915c0-.343.079-1.002.456-1.758.378-.755.858-1.214 1.133-1.42l12.785 17.048c4.465-3.349 6.935-8.289 6.935-13.87zm-.542-1.047c.206-.274.664-.754 1.42-1.132s1.415-.457 1.758-.457v21.31c5.581 0 10.521-2.47 13.869-6.935zm3.178-1.589h-42.098v21.31h42.098zm-42.098 0c.353 0 .772.081 1.153.25.356.159.469.3.367.198l-15.068 15.068c3.494 3.494 8.114 5.794 13.548 5.794zm1.52.448c.415.415.742.931.938 1.454.184.49.178.784.178.734h-21.31c0 4.51 1.437 9.192 5.126 12.88zm1.114 2.366.668-40.093-21.306-.356-.668 40.094zm.67-40.271c0-2.431-.475-5.608-2.458-8.583-2.127-3.191-5.218-4.996-8.285-5.763l-5.169 20.673c-1.285-.321-3.04-1.236-4.276-3.09-1.092-1.638-1.121-3.033-1.121-3.237zm-11.207-14.451c-26.281-5.338-46.466-17.475-61.239-36.242l-16.744 13.181c18.192 23.108 43.001 37.7 73.741 43.944zm-61.172-36.156c-14.872-19.293-22.509-42.768-22.509-71.009h-21.309c0 32.343 8.847 60.545 26.94 84.018zm-22.509-71.009v-17.374h-21.309v17.374zm0-17.374c0-.05.007.244-.177.734a4.2 4.2 0 0 1-.939 1.454l-15.068-15.068c-3.688 3.688-5.125 8.37-5.125 12.88zm-1.116 2.188c.102-.102-.01.039-.366.198-.382.169-.8.25-1.154.25v-21.309c-5.433 0-10.054 2.299-13.547 5.793zm-1.52.448h60.809v-21.309h-60.809zm60.809 0c-.343 0-1.003-.079-1.758-.457s-1.214-.858-1.42-1.132l17.047-12.786c-3.349-4.465-8.288-6.934-13.869-6.934zm-1.047.542c-.275-.206-.755-.665-1.133-1.42-.377-.756-.456-1.415-.456-1.758h21.309c0-5.581-2.47-10.521-6.935-13.87zm-1.589-3.178v13.364h21.309v-13.364zm0 13.364c0 19.107 4.675 35.673 14.997 48.712l16.707-13.227c-6.606-8.345-10.395-19.844-10.395-35.485zm15.165 48.919c10.916 13.099 25.264 19.871 42.265 19.871v-21.309c-10.62 0-18.991-3.919-25.894-12.204zm42.265 19.871c16.667 0 30.938-6.061 41.963-18.188l-15.768-14.334c-6.794 7.474-15.242 11.213-26.195 11.213zm42.119-18.364c10.938-12.578 15.979-28.607 15.979-47.085H521.85c0 14.488-3.868 25.189-10.75 33.102zm15.979-47.085c0-13.109-2.785-25.045-8.784-35.408l-18.442 10.677c3.802 6.565 5.917 14.676 5.917 24.731zm-8.784-35.408c-5.616-9.699-13.376-18.625-23.035-26.836l-13.801 16.237c8.159 6.935 14.209 14.047 18.394 21.276zm-23.035-26.836c-9.233-7.848-23.76-18.958-43.4-33.241l-12.534 17.233c19.563 14.227 33.546 24.946 42.133 32.245zm-43.441-33.271c-22.09-15.905-39.793-29.908-53.21-42.026l-14.284 15.813c14.203 12.828 32.584 27.336 55.043 43.506zm-53.082-41.909c-12.452-11.621-23.119-25.599-31.968-42.033l-18.762 10.103c9.861 18.314 21.913 34.183 36.19 47.508zm-31.819-41.746c-8.059-16.117-12.24-34.932-12.24-56.712h-21.309c0 24.55 4.728 46.719 14.489 66.241zm-12.24-56.712c0-29.702 7.701-53.535 22.441-72.26l-16.743-13.181c-18.225 23.151-27.007 51.885-27.007 85.441zm22.441-72.26c14.741-18.724 34.865-30.627 61.082-35.543l-3.927-20.944c-30.803 5.775-55.673 20.156-73.898 43.306zm63.076-36.123c2.165-.866 4.697-2.297 6.734-4.742 2.194-2.633 3.305-5.842 3.305-9.16h-21.31c0-1.535.554-3.185 1.635-4.482a5.8 5.8 0 0 1 1.231-1.125c.153-.103.277-.171.358-.213.082-.042.129-.061.133-.063zm10.037-14.063-.668-44.103-21.307.323.669 44.103zm-.667-43.941c0-.05.007.244-.177.734a4.2 4.2 0 0 1-.939 1.454l-15.067-15.068c-3.689 3.688-5.126 8.37-5.126 12.88zm-1.116 2.188c.103-.102-.01.039-.366.198-.382.169-.8.25-1.154.25v-21.31c-5.433 0-10.053 2.3-13.547 5.794zm-1.52.448h41.43v-21.31h-41.43zm41.43 0c-.343 0-1.002-.079-1.758-.457-.755-.378-1.214-.858-1.42-1.132l17.048-12.786c-3.349-4.465-8.289-6.935-13.87-6.935zm-1.047.542c-.274-.206-.754-.665-1.132-1.42-.378-.756-.457-1.415-.457-1.758h21.31c0-5.581-2.47-10.521-6.935-13.87zm-1.584-3.496-1.336 44.771 21.299.636 1.337-44.771zm-1.341 45.089c0 2.431.474 5.608 2.458 8.583 2.127 3.19 5.218 4.996 8.285 5.762l5.169-20.672c1.285.321 3.04 1.235 4.276 3.089 1.092 1.639 1.121 3.034 1.121 3.238zm11.016 14.41c25.731 5.718 45.756 18.418 60.631 38.117l17.005-12.841c-18.09-23.958-42.614-39.322-73.013-46.078zm60.631 38.117c14.875 19.7 22.572 44.077 22.572 73.767h21.309c0-33.57-8.785-62.65-26.876-86.608zm22.572 73.767v16.037h21.309v-16.037zm0 16.037c0-.354.081-.772.25-1.153.159-.357.3-.469.198-.367l15.068 15.068c3.494-3.494 5.793-8.115 5.793-13.548zm.448-1.52a4.2 4.2 0 0 1 1.454-.939c.49-.184.784-.177.734-.177v21.309c4.51 0 9.192-1.437 12.88-5.125zm2.188-1.116h-60.14v21.309h60.14zm-60.14 0c-.022 0-.009-.002.033.005a1 1 0 0 1 .316.106c.038.019.048.029.03.015L524.775 393.1c3.627 2.719 7.874 4.135 12.407 4.135zm2.51 2.257c-.014-.018-.004-.008.016.03q.031.058.064.154a1 1 0 0 1 .041.162c.007.042.005.055.005.033h-21.309c0 4.533 1.416 8.78 4.135 12.407zm.126.379v-17.374h-21.309v17.374zm0-17.374c0-19.206-4.955-35.744-15.979-48.421l-16.08 13.983c6.796 7.815 10.75 18.896 10.75 34.438zm-15.665-48.043c-10.589-13.376-25.093-20.079-42.433-20.079v21.31c11.171 0 19.386 3.988 25.725 11.996zm-42.433-20.079c-16.348 0-30.246 6.163-40.807 18.392l16.127 13.928c6.368-7.373 14.298-11.01 24.68-11.01zm-40.644 18.208c-10.768 11.901-15.45 27.92-15.45 46.573h21.309c0-15.204 3.782-25.468 9.943-32.277zm-15.45 46.573c0 18.138 5.091 34.157 15.699 47.417l16.64-13.311c-7.211-9.014-11.03-20.17-11.03-34.106zm15.861 47.615c10.25 12.202 29.214 28.215 55.983 47.846l12.602-17.184c-26.689-19.572-43.808-34.296-52.269-44.368zm55.959 47.828c27.056 19.959 47.162 36.156 60.523 48.655l14.557-15.561c-14.259-13.339-35.137-30.108-62.43-50.242zm60.66 48.781c12.923 11.672 22.763 24.441 29.686 38.288l19.06-9.53c-8.223-16.445-19.766-31.297-34.463-44.571zm29.686 38.288c6.68 13.358 10.235 29.694 10.235 49.361h21.309c0-22.208-4.017-41.957-12.484-58.891z" mask="url(#c)"/></g><defs><clipPath id="a"><path fill="#fff" d="M0 0h950v950H0z"/></clipPath></defs></svg>