<svg width="950" height="950" viewBox="0 0 950 950" fill="none" xmlns="http://www.w3.org/2000/svg">
<g clip-path="url(#clip0_3378_3954)">
<path d="M950 475C950 737.337 737.337 950 475 950C212.665 950 0 737.337 0 475C0 212.665 212.665 0 475 0C737.337 0 950 212.665 950 475Z" fill="#A1FEA0"/>
<path fill-rule="evenodd" clip-rule="evenodd" d="M475 937.631C730.504 937.631 937.631 730.504 937.631 475C937.631 219.496 730.504 12.3698 475 12.3698C219.496 12.3698 12.3698 219.496 12.3698 475C12.3698 730.504 219.496 937.631 475 937.631ZM475 950C737.337 950 950 737.337 950 475C950 212.665 737.337 0 475 0C212.665 0 0 212.665 0 475C0 737.337 212.665 950 475 950Z" fill="black"/>
<path d="M88.5522 549.457C133.342 764.834 344.206 903.093 559.584 858.306C774.961 813.516 913.22 602.65 868.429 387.273" fill="#74FF71"/>
<path fill-rule="evenodd" clip-rule="evenodd" d="M560.838 864.354C342.118 909.836 127.979 769.43 82.4941 550.709L94.6047 548.19C138.698 760.222 346.288 896.335 558.319 852.243C770.351 808.148 906.467 600.558 862.372 388.525L874.482 386.01C919.969 604.73 779.559 818.868 560.838 864.354Z" fill="black"/>
<path d="M498.237 560.693C713.594 515.906 879.438 437.584 868.661 385.756C857.88 333.925 674.56 328.215 459.203 373C243.846 417.786 78.0019 496.108 88.7802 547.936C99.5585 599.764 282.878 605.476 498.237 560.693Z" fill="#74FF71"/>
<path fill-rule="evenodd" clip-rule="evenodd" d="M115.921 509.699C98.7312 524.849 92.8895 537.321 94.8404 546.703C96.7913 556.082 107.121 565.194 128.925 572.232C150.199 579.098 180.197 583.24 216.988 584.388C290.469 586.675 389.633 576.985 496.98 554.66C604.326 532.335 699.136 501.692 765.613 470.297C798.893 454.576 824.756 438.821 841.529 424.039C858.717 408.892 864.557 396.421 862.608 387.039C860.659 377.657 850.326 368.548 828.522 361.509C807.25 354.64 777.252 350.499 740.461 349.353C666.98 347.065 567.815 356.756 460.469 379.08C353.121 401.403 258.313 432.05 191.837 463.445C158.553 479.162 132.693 494.921 115.921 509.699ZM186.555 452.258C254.145 420.338 349.938 389.433 457.95 366.969C565.961 344.508 666.133 334.662 740.845 336.99C778.153 338.152 809.465 342.357 832.322 349.737C854.655 356.946 871.28 367.986 874.719 384.519C878.158 401.053 867.309 417.807 849.707 433.323C831.684 449.203 804.643 465.543 770.895 481.48C703.304 513.4 607.51 544.309 499.499 566.771C391.488 589.233 291.315 599.079 216.603 596.749C179.297 595.59 147.984 591.384 125.124 584.004C102.795 576.796 86.168 565.753 82.7298 549.219C79.2912 532.685 90.1383 515.935 107.743 500.419C125.765 484.539 152.804 468.199 186.555 452.258Z" fill="black"/>
<path d="M804.28 494.452C824.778 494.452 841.391 477.835 841.391 457.341C841.391 436.844 824.778 420.23 804.28 420.23C783.787 420.23 767.173 436.844 767.173 457.341C767.173 477.835 783.787 494.452 804.28 494.452Z" fill="#A1FEA0"/>
<path fill-rule="evenodd" clip-rule="evenodd" d="M804.288 426.443C787.211 426.443 773.364 440.286 773.364 457.367C773.364 474.445 787.211 488.292 804.288 488.292C821.369 488.292 835.212 474.445 835.212 457.367C835.212 440.286 821.369 426.443 804.288 426.443ZM760.995 457.367C760.995 433.454 780.378 414.07 804.288 414.07C828.198 414.07 847.581 433.454 847.581 457.367C847.581 481.277 828.198 500.661 804.288 500.661C780.378 500.661 760.995 481.277 760.995 457.367Z" fill="black"/>
<path d="M185.051 765.56C205.546 765.56 222.16 748.946 222.16 728.449C222.16 707.955 205.546 691.342 185.051 691.342C164.556 691.342 147.942 707.955 147.942 728.449C147.942 748.946 164.556 765.56 185.051 765.56Z" fill="#2FFF2B"/>
<path fill-rule="evenodd" clip-rule="evenodd" d="M185.048 697.517C167.969 697.517 154.124 711.361 154.124 728.442C154.124 745.519 167.969 759.366 185.048 759.366C202.128 759.366 215.973 745.519 215.973 728.442C215.973 711.361 202.128 697.517 185.048 697.517ZM141.754 728.442C141.754 704.528 161.138 685.145 185.048 685.145C208.959 685.145 228.343 704.528 228.343 728.442C228.343 752.351 208.959 771.735 185.048 771.735C161.138 771.735 141.754 752.351 141.754 728.442Z" fill="black"/>
<path fill-rule="evenodd" clip-rule="evenodd" d="M403.886 86.0781C399.227 86.9696 394.598 87.9447 390.008 89.0011C386.679 89.7668 383.358 87.6889 382.594 84.3601C381.827 81.0313 383.905 77.712 387.234 76.9463C391.976 75.8553 396.753 74.8491 401.56 73.9288C406.272 73.0274 410.98 72.2115 415.685 71.48C419.059 70.9552 422.221 73.266 422.745 76.6416C423.273 80.0167 420.959 83.1783 417.585 83.7031C413.025 84.4122 408.457 85.2037 403.886 86.0781ZM466.597 72.9495C466.551 69.534 469.284 66.7285 472.7 66.6837C482.295 66.5567 491.837 66.7733 501.318 67.3236C504.726 67.5216 507.329 70.4464 507.132 73.8565C506.934 77.2667 504.012 79.8704 500.599 79.6724C491.411 79.1393 482.162 78.9295 472.863 79.0523C469.447 79.0975 466.643 76.3649 466.597 72.9495ZM339.414 97.724C340.663 100.903 339.097 104.493 335.918 105.742C327.093 109.206 318.432 112.985 309.945 117.061C306.866 118.54 303.171 117.242 301.692 114.164C300.213 111.084 301.511 107.389 304.59 105.91C313.348 101.704 322.287 97.8041 331.397 94.2272C334.576 92.9789 338.166 94.5445 339.414 97.724ZM550.771 79.5315C551.455 76.1844 554.719 74.0226 558.067 74.7036C567.449 76.6115 576.732 78.8486 585.902 81.4045C589.193 82.3214 591.115 85.7323 590.2 89.0227C589.284 92.3132 585.871 94.2371 582.581 93.3202C573.692 90.8426 564.694 88.6743 555.601 86.8252C552.253 86.1442 550.091 82.8789 550.771 79.5315ZM262.484 136.657C264.394 139.489 263.647 143.333 260.815 145.243C252.969 150.535 245.327 156.102 237.903 161.928C235.215 164.036 231.328 163.567 229.219 160.88C227.111 158.192 227.58 154.304 230.267 152.196C237.923 146.188 245.804 140.447 253.898 134.988C256.729 133.078 260.574 133.825 262.484 136.657ZM631.646 103.812C633.018 100.684 636.666 99.2611 639.793 100.634C648.545 104.473 657.148 108.617 665.588 113.054C668.613 114.644 669.775 118.383 668.183 121.407C666.595 124.43 662.856 125.593 659.831 124.003C651.649 119.701 643.308 115.683 634.823 111.961C631.696 110.588 630.274 106.94 631.646 103.812ZM195.734 191.247C198.203 193.608 198.289 197.523 195.928 199.991C189.391 206.825 183.099 213.886 177.064 221.159C174.882 223.788 170.983 224.15 168.354 221.969C165.725 219.788 165.363 215.889 167.544 213.26C173.765 205.763 180.251 198.485 186.99 191.441C189.351 188.972 193.266 188.886 195.734 191.247ZM705.598 144.575C707.597 141.805 711.461 141.178 714.232 143.177C721.972 148.758 729.515 154.612 736.849 160.729C739.471 162.916 739.825 166.817 737.636 169.44C735.447 172.063 731.548 172.416 728.926 170.228C721.816 164.297 714.501 158.621 706.996 153.209C704.226 151.211 703.599 147.346 705.598 144.575ZM142.009 258.703C144.919 260.493 145.826 264.302 144.035 267.212C139.084 275.258 134.415 283.483 130.04 291.869C128.46 294.897 124.724 296.072 121.695 294.492C118.667 292.912 117.492 289.176 119.073 286.147C123.583 277.502 128.397 269.023 133.501 260.729C135.291 257.82 139.1 256.912 142.009 258.703ZM769.358 199.94C771.893 197.651 775.807 197.851 778.094 200.386C784.478 207.457 790.623 214.766 796.513 222.301C798.618 224.992 798.139 228.879 795.449 230.983C792.759 233.087 788.871 232.61 786.766 229.919C781.058 222.615 775.1 215.53 768.914 208.675C766.622 206.14 766.824 202.229 769.358 199.94ZM103.692 335.955C106.915 337.088 108.609 340.618 107.477 343.841C104.349 352.74 101.536 361.765 99.0507 370.901C98.1539 374.197 94.7548 376.142 91.459 375.245C88.1629 374.348 86.2181 370.949 87.1149 367.653C89.6795 358.228 92.5808 348.918 95.8066 339.74C96.939 336.517 100.47 334.823 103.692 335.955ZM820.016 267.494C822.98 265.794 826.757 266.818 828.46 269.78C833.191 278.026 837.648 286.471 841.813 295.104C843.299 298.181 842.007 301.878 838.932 303.363C835.854 304.847 832.157 303.557 830.671 300.481C826.636 292.113 822.315 283.929 817.728 275.937C816.03 272.974 817.052 269.194 820.016 267.494ZM82.8015 419.609C86.193 420.016 88.6128 423.098 88.2066 426.487C87.0868 435.828 86.3059 445.244 85.8749 454.721C85.7195 458.134 82.8277 460.771 79.4153 460.619C76.0029 460.463 73.3627 457.571 73.5177 454.159C73.9627 444.374 74.7691 434.657 75.9246 425.017C76.3312 421.623 79.41 419.203 82.8015 419.609ZM855.185 344.255C858.442 343.221 861.919 345.023 862.952 348.278C864.392 352.818 873.428 379.451 874.716 384.069C875.632 387.359 873.709 390.77 870.419 391.688C867.128 392.606 863.719 390.683 862.8 387.393C861.549 382.916 852.559 356.422 851.165 352.021C850.131 348.766 851.932 345.289 855.185 344.255ZM80.7062 505.797C84.1041 505.448 87.1419 507.921 87.4911 511.319C87.9733 516.008 94.9021 546.919 95.561 551.62C96.0356 555.006 93.6777 558.129 90.295 558.604C86.9122 559.079 83.7856 556.719 83.3113 553.337C82.0679 552.094 75.6841 517.421 75.1863 512.584C74.8371 509.187 77.3082 506.147 80.7062 505.797Z" fill="black"/>
<path d="M340.913 265.263C340.913 265.263 325.323 291.253 318.151 308.088C310.978 324.922 304.181 351.479 304.181 351.479C288.94 346.111 265.466 333.365 250.852 315.15C232.301 292.026 231.889 263.85 233.602 237.288C234.87 217.635 253.528 188.59 262.141 177.728C261.622 178.963 260.586 185.493 260.594 201.731C260.605 222.029 263.732 234.917 279.911 249.914C292.855 261.912 325.972 265.146 340.913 265.263Z" fill="white"/>
<path fill-rule="evenodd" clip-rule="evenodd" d="M340.913 265.263C337.691 265.237 333.625 265.067 329.097 264.696C312.628 263.344 290.064 259.325 279.911 249.914C263.732 234.917 260.605 222.029 260.594 201.731C260.594 200.958 260.596 200.207 260.6 199.477C260.683 184.883 261.647 178.904 262.141 177.728C258.878 181.842 254.174 188.566 249.52 196.4C241.888 209.247 234.39 225.079 233.602 237.288C231.889 263.85 232.301 292.026 250.852 315.15C265.466 333.365 288.94 346.111 304.181 351.479C304.181 351.479 310.978 324.922 318.151 308.088C325.323 291.253 340.913 265.263 340.913 265.263ZM324.591 275.271C324.591 275.271 312.264 293.812 307.114 305.899C301.964 317.987 298.219 337.174 298.219 337.174C285.247 331.091 269.752 321.076 259.565 308.377C243.842 288.778 242.984 264.448 244.69 238.004C245.032 232.702 247.191 225.837 250.501 218.399C251.148 222.876 252.17 227.236 253.743 231.517C257.274 241.123 263.254 249.486 272.305 257.876C281.241 266.158 295.528 270.408 307.5 272.772C313.323 273.922 319.181 274.729 324.591 275.271Z" fill="black"/>
<path d="M331.432 272.551L300.854 343.595C297.376 343.206 287.063 340.042 273.641 330.492C277.016 300.28 296.349 275.842 307.305 267.843L331.432 272.551Z" fill="black"/>
<path d="M611.81 266.456C611.81 266.456 627.394 292.199 634.583 308.886C641.772 325.573 648.628 351.915 648.628 351.915C663.74 346.524 686.997 333.773 701.434 315.628C719.76 292.593 720.057 264.615 718.249 238.248C716.911 218.738 698.269 189.974 689.672 179.224C690.193 180.448 691.248 186.927 691.305 203.051C691.376 223.206 688.323 236.015 672.318 250.971C659.514 262.936 626.645 266.28 611.81 266.456Z" fill="white"/>
<path fill-rule="evenodd" clip-rule="evenodd" d="M611.81 266.456C615.009 266.418 619.046 266.232 623.54 265.845C639.887 264.437 662.275 260.356 672.318 250.971C688.323 236.015 691.376 223.206 691.305 203.051C691.302 202.283 691.297 201.537 691.29 200.813C691.149 186.322 690.168 180.39 689.672 179.224C692.929 183.296 697.627 189.953 702.279 197.713C709.909 210.438 717.418 226.129 718.249 238.248C720.057 264.615 719.76 292.593 701.434 315.628C686.997 333.773 663.74 346.524 648.628 351.915C648.628 351.915 641.772 325.573 634.583 308.886C627.394 292.199 611.81 266.456 611.81 266.456ZM628.056 276.328C628.056 276.328 640.371 294.688 645.533 306.669C650.695 318.65 654.491 337.687 654.491 337.687C667.346 331.595 682.691 321.588 692.756 308.938C708.288 289.415 709.042 265.254 707.242 239.003C706.881 233.74 704.711 226.933 701.394 219.56C700.769 224.008 699.772 228.341 698.227 232.598C694.761 242.15 688.856 250.479 679.902 258.845C671.063 267.105 656.894 271.383 645.017 273.778C639.239 274.943 633.427 275.768 628.056 276.328Z" fill="black"/>
<path d="M621.253 273.655L651.9 344.073C655.352 343.673 665.579 340.49 678.868 330.954C675.395 300.969 656.1 276.782 645.19 268.883L621.253 273.655Z" fill="black"/>
<mask id="path-18-outside-1_3378_3954" maskUnits="userSpaceOnUse" x="331" y="189" width="271" height="603" fill="black">
<rect fill="white" x="331" y="189" width="271" height="603"/>
<path d="M590.962 606.72C590.962 639.24 582.498 666.415 565.569 688.243C549.086 709.626 526.812 723.213 498.747 729.005C496.52 729.896 495.406 731.232 495.406 733.014L496.074 773.107C496.074 775.335 495.183 777.117 493.401 778.453C492.065 780.235 490.283 781.126 488.055 781.126H445.958C443.73 781.126 441.725 780.235 439.944 778.453C438.607 777.117 437.939 775.335 437.939 773.107L438.607 733.014C438.607 730.787 437.716 729.45 435.934 729.005C407.423 723.213 384.927 709.849 368.444 688.911C351.961 667.528 343.72 641.69 343.72 611.398V594.024C343.72 591.796 344.388 590.014 345.724 588.678C347.506 586.896 349.511 586.005 351.738 586.005H412.546C414.774 586.005 416.556 586.896 417.892 588.678C419.674 590.014 420.565 591.796 420.565 594.024V607.388C420.565 624.762 424.797 638.795 433.261 649.486C442.171 660.178 453.531 665.524 467.341 665.524C481.151 665.524 492.51 660.623 501.42 650.823C510.33 640.577 514.784 627.212 514.784 610.729C514.784 599.147 512.334 589.124 507.434 580.659C502.534 572.195 495.629 564.177 486.719 556.603C477.809 549.03 463.554 538.116 443.953 523.861C421.679 507.823 403.637 493.568 389.827 481.094C376.462 468.621 365.103 453.697 355.748 436.323C346.838 418.504 342.383 398.012 342.383 374.847C342.383 343.218 350.625 316.934 367.107 295.997C383.59 275.059 406.087 261.918 434.598 256.572C436.825 255.681 437.939 254.344 437.939 252.562L437.271 208.46C437.271 206.232 437.939 204.45 439.275 203.114C441.057 201.332 443.062 200.441 445.289 200.441H486.719C488.946 200.441 490.728 201.332 492.065 203.114C493.847 204.45 494.738 206.232 494.738 208.46L493.401 253.231C493.401 255.458 494.292 256.794 496.074 257.24C524.139 263.477 546.414 277.509 562.896 299.338C579.379 321.167 587.621 347.895 587.621 379.525V395.562C587.621 397.789 586.73 399.794 584.948 401.576C583.611 402.912 581.829 403.581 579.602 403.581H519.462C517.235 403.581 515.23 402.912 513.448 401.576C512.111 399.794 511.443 397.789 511.443 395.562V378.188C511.443 360.814 506.988 347.004 498.079 336.758C489.615 326.067 478.255 320.721 464 320.721C450.635 320.721 439.721 325.621 431.257 335.422C422.792 344.777 418.56 357.919 418.56 374.847C418.56 390.884 423.015 404.472 431.925 415.609C441.28 426.746 459.322 442.115 486.051 461.716C513.225 481.763 533.717 498.245 547.527 511.164C561.337 523.638 572.029 537.448 579.602 552.594C587.175 567.74 590.962 585.782 590.962 606.72Z"/>
</mask>
<path d="M590.962 606.72C590.962 639.24 582.498 666.415 565.569 688.243C549.086 709.626 526.812 723.213 498.747 729.005C496.52 729.896 495.406 731.232 495.406 733.014L496.074 773.107C496.074 775.335 495.183 777.117 493.401 778.453C492.065 780.235 490.283 781.126 488.055 781.126H445.958C443.73 781.126 441.725 780.235 439.944 778.453C438.607 777.117 437.939 775.335 437.939 773.107L438.607 733.014C438.607 730.787 437.716 729.45 435.934 729.005C407.423 723.213 384.927 709.849 368.444 688.911C351.961 667.528 343.72 641.69 343.72 611.398V594.024C343.72 591.796 344.388 590.014 345.724 588.678C347.506 586.896 349.511 586.005 351.738 586.005H412.546C414.774 586.005 416.556 586.896 417.892 588.678C419.674 590.014 420.565 591.796 420.565 594.024V607.388C420.565 624.762 424.797 638.795 433.261 649.486C442.171 660.178 453.531 665.524 467.341 665.524C481.151 665.524 492.51 660.623 501.42 650.823C510.33 640.577 514.784 627.212 514.784 610.729C514.784 599.147 512.334 589.124 507.434 580.659C502.534 572.195 495.629 564.177 486.719 556.603C477.809 549.03 463.554 538.116 443.953 523.861C421.679 507.823 403.637 493.568 389.827 481.094C376.462 468.621 365.103 453.697 355.748 436.323C346.838 418.504 342.383 398.012 342.383 374.847C342.383 343.218 350.625 316.934 367.107 295.997C383.59 275.059 406.087 261.918 434.598 256.572C436.825 255.681 437.939 254.344 437.939 252.562L437.271 208.46C437.271 206.232 437.939 204.45 439.275 203.114C441.057 201.332 443.062 200.441 445.289 200.441H486.719C488.946 200.441 490.728 201.332 492.065 203.114C493.847 204.45 494.738 206.232 494.738 208.46L493.401 253.231C493.401 255.458 494.292 256.794 496.074 257.24C524.139 263.477 546.414 277.509 562.896 299.338C579.379 321.167 587.621 347.895 587.621 379.525V395.562C587.621 397.789 586.73 399.794 584.948 401.576C583.611 402.912 581.829 403.581 579.602 403.581H519.462C517.235 403.581 515.23 402.912 513.448 401.576C512.111 399.794 511.443 397.789 511.443 395.562V378.188C511.443 360.814 506.988 347.004 498.079 336.758C489.615 326.067 478.255 320.721 464 320.721C450.635 320.721 439.721 325.621 431.257 335.422C422.792 344.777 418.56 357.919 418.56 374.847C418.56 390.884 423.015 404.472 431.925 415.609C441.28 426.746 459.322 442.115 486.051 461.716C513.225 481.763 533.717 498.245 547.527 511.164C561.337 523.638 572.029 537.448 579.602 552.594C587.175 567.74 590.962 585.782 590.962 606.72Z" fill="black"/>
<path d="M565.569 688.243L557.15 681.714L557.14 681.726L557.131 681.738L565.569 688.243ZM498.747 729.005L496.594 718.57L495.668 718.761L494.79 719.112L498.747 729.005ZM495.406 733.014H484.751V733.103L484.753 733.192L495.406 733.014ZM496.074 773.107H506.729V773.019L506.727 772.93L496.074 773.107ZM493.401 778.453L487.009 769.929L485.791 770.843L484.878 772.06L493.401 778.453ZM439.944 778.453L432.41 785.987L432.41 785.987L439.944 778.453ZM437.939 773.107L427.286 772.93L427.284 773.019V773.107H437.939ZM438.607 733.014L449.26 733.192L449.262 733.103V733.014H438.607ZM435.934 729.005L438.518 718.668L438.288 718.611L438.055 718.563L435.934 729.005ZM368.444 688.911L360.005 695.416L360.038 695.459L360.072 695.502L368.444 688.911ZM345.724 588.678L338.19 581.144L338.19 581.144L345.724 588.678ZM417.892 588.678L409.369 595.071L410.282 596.288L411.499 597.202L417.892 588.678ZM433.261 649.486L424.908 656.1L424.991 656.204L425.076 656.307L433.261 649.486ZM501.42 650.823L509.304 657.99L509.383 657.903L509.46 657.814L501.42 650.823ZM507.434 580.659L516.655 575.321L516.655 575.321L507.434 580.659ZM486.719 556.603L493.619 548.485L493.619 548.485L486.719 556.603ZM443.953 523.861L450.22 515.244L450.199 515.229L450.178 515.214L443.953 523.861ZM389.827 481.094L382.557 488.883L382.621 488.943L382.685 489.001L389.827 481.094ZM355.748 436.323L346.218 441.088L346.29 441.233L346.366 441.375L355.748 436.323ZM367.107 295.997L375.479 302.587L375.479 302.587L367.107 295.997ZM434.598 256.572L436.561 267.044L437.586 266.852L438.555 266.464L434.598 256.572ZM437.939 252.562H448.593V252.482L448.592 252.401L437.939 252.562ZM437.271 208.46H426.616V208.54L426.617 208.621L437.271 208.46ZM439.275 203.114L431.741 195.58L431.741 195.58L439.275 203.114ZM492.065 203.114L483.541 209.507L484.454 210.724L485.672 211.638L492.065 203.114ZM494.738 208.46L505.388 208.778L505.392 208.619V208.46H494.738ZM493.401 253.231L482.751 252.913L482.747 253.072V253.231H493.401ZM496.074 257.24L493.49 267.576L493.626 267.61L493.763 267.641L496.074 257.24ZM562.896 299.338L571.399 292.917L571.399 292.917L562.896 299.338ZM513.448 401.576L504.924 407.969L505.838 409.186L507.055 410.1L513.448 401.576ZM498.079 336.758L489.725 343.372L489.878 343.564L490.039 343.75L498.079 336.758ZM431.257 335.422L439.157 342.57L439.24 342.479L439.32 342.386L431.257 335.422ZM431.925 415.609L423.605 422.264L423.685 422.364L423.767 422.462L431.925 415.609ZM486.051 461.716L492.376 453.142L492.364 453.133L492.352 453.124L486.051 461.716ZM547.527 511.164L540.248 518.945L540.316 519.009L540.386 519.071L547.527 511.164ZM579.602 552.594L589.132 547.829L589.132 547.829L579.602 552.594ZM580.307 606.72C580.307 637.311 572.383 662.07 557.15 681.714L573.989 694.773C592.612 670.759 601.616 641.169 601.616 606.72H580.307ZM557.131 681.738C542.306 700.971 522.328 713.26 496.594 718.57L500.9 739.439C531.297 733.167 555.867 718.282 574.008 694.748L557.131 681.738ZM494.79 719.112C492.625 719.978 490.093 721.41 488.056 723.854C485.862 726.487 484.751 729.697 484.751 733.014H506.061C506.061 734.549 505.507 736.199 504.426 737.496C503.957 738.06 503.502 738.417 503.195 738.622C503.042 738.724 502.918 738.793 502.837 738.835C502.756 738.876 502.708 738.895 502.704 738.897L494.79 719.112ZM484.753 733.192L485.421 773.285L506.727 772.93L506.059 732.836L484.753 733.192ZM485.42 773.107C485.42 772.764 485.498 772.105 485.876 771.349C486.254 770.594 486.734 770.135 487.009 769.929L499.794 786.977C504.259 783.628 506.729 778.688 506.729 773.107H485.42ZM484.878 772.06C485.083 771.786 485.542 771.306 486.298 770.928C487.053 770.55 487.712 770.471 488.055 770.471V791.781C493.636 791.781 498.576 789.311 501.925 784.846L484.878 772.06ZM488.055 770.471H445.958V791.781H488.055V770.471ZM445.958 770.471C446.311 770.471 446.729 770.552 447.111 770.721C447.467 770.88 447.58 771.021 447.477 770.919L432.41 785.987C435.904 789.481 440.524 791.781 445.958 791.781V770.471ZM447.477 770.919C447.892 771.334 448.22 771.85 448.416 772.373C448.6 772.863 448.593 773.157 448.593 773.107H427.284C427.284 777.618 428.721 782.299 432.41 785.987L447.477 770.919ZM448.592 773.285L449.26 733.192L427.954 732.836L427.286 772.93L448.592 773.285ZM449.262 733.014C449.262 730.583 448.787 727.406 446.804 724.431C444.677 721.24 441.585 719.435 438.518 718.668L433.35 739.341C432.065 739.02 430.31 738.105 429.074 736.251C427.982 734.613 427.952 733.218 427.952 733.014H449.262ZM438.055 718.563C411.774 713.225 391.589 701.088 376.815 682.321L360.072 695.502C378.264 718.61 403.072 733.202 433.813 739.446L438.055 718.563ZM376.882 682.407C362.011 663.114 354.374 639.639 354.374 611.398H333.065C333.065 643.741 341.911 671.943 360.005 695.416L376.882 682.407ZM354.374 611.398V594.024H333.065V611.398H354.374ZM354.374 594.024C354.374 593.974 354.381 594.268 354.197 594.758C354.001 595.281 353.673 595.797 353.258 596.212L338.19 581.144C334.502 584.832 333.065 589.514 333.065 594.024H354.374ZM353.258 596.212C353.36 596.11 353.248 596.251 352.891 596.41C352.51 596.579 352.092 596.66 351.738 596.66V575.351C346.305 575.351 341.684 577.65 338.19 581.144L353.258 596.212ZM351.738 596.66H412.546V575.351H351.738V596.66ZM412.546 596.66C412.203 596.66 411.544 596.581 410.789 596.203C410.033 595.825 409.574 595.345 409.369 595.071L426.416 582.285C423.067 577.82 418.127 575.351 412.546 575.351V596.66ZM411.499 597.202C411.225 596.996 410.745 596.537 410.367 595.782C409.989 595.026 409.91 594.367 409.91 594.024H431.22C431.22 588.443 428.75 583.503 424.285 580.154L411.499 597.202ZM409.91 594.024V607.388H431.22V594.024H409.91ZM409.91 607.388C409.91 626.495 414.586 643.061 424.908 656.1L441.615 642.873C435.009 634.528 431.22 623.029 431.22 607.388H409.91ZM425.076 656.307C435.992 669.406 450.34 676.178 467.341 676.178V654.869C456.721 654.869 448.35 650.95 441.446 642.665L425.076 656.307ZM467.341 676.178C484.007 676.178 498.279 670.117 509.304 657.99L493.536 643.656C486.741 651.13 478.294 654.869 467.341 654.869V676.178ZM509.46 657.814C520.398 645.236 525.439 629.207 525.439 610.729H504.13C504.13 625.217 500.261 635.918 493.38 643.831L509.46 657.814ZM525.439 610.729C525.439 597.62 522.654 585.684 516.655 575.321L498.213 585.998C502.014 592.563 504.13 600.674 504.13 610.729H525.439ZM516.655 575.321C511.039 565.622 503.279 556.696 493.619 548.485L479.819 564.722C487.978 571.657 494.028 578.769 498.213 585.998L516.655 575.321ZM493.619 548.485C484.387 540.637 469.86 529.527 450.22 515.244L437.686 532.477C457.248 546.704 471.232 557.423 479.819 564.722L493.619 548.485ZM450.178 515.214C428.089 499.309 410.386 485.306 396.968 473.188L382.685 489.001C396.888 501.829 415.269 516.337 437.727 532.507L450.178 515.214ZM397.097 473.305C384.645 461.684 373.977 447.706 365.129 431.272L346.366 441.375C356.228 459.689 368.28 475.558 382.557 488.883L397.097 473.305ZM365.277 431.559C357.219 415.442 353.038 396.627 353.038 374.847H331.729C331.729 399.397 336.457 421.566 346.218 441.088L365.277 431.559ZM353.038 374.847C353.038 345.145 360.739 321.312 375.479 302.587L358.736 289.406C340.51 312.557 331.729 341.291 331.729 374.847H353.038ZM375.479 302.587C390.22 283.863 410.343 271.96 436.561 267.044L432.634 246.1C401.83 251.875 376.96 266.256 358.736 289.406L375.479 302.587ZM438.555 266.464C440.719 265.598 443.252 264.167 445.289 261.722C447.483 259.089 448.593 255.88 448.593 252.562H427.284C427.284 251.027 427.838 249.377 428.918 248.08C429.388 247.517 429.843 247.159 430.149 246.955C430.303 246.852 430.427 246.784 430.508 246.742C430.589 246.7 430.636 246.681 430.641 246.679L438.555 266.464ZM448.592 252.401L447.924 208.298L426.617 208.621L427.285 252.724L448.592 252.401ZM447.925 208.46C447.925 208.41 447.932 208.704 447.748 209.194C447.552 209.717 447.224 210.233 446.809 210.648L431.741 195.58C428.053 199.268 426.616 203.95 426.616 208.46H447.925ZM446.809 210.648C446.911 210.546 446.799 210.687 446.442 210.846C446.061 211.015 445.643 211.096 445.289 211.096V189.787C439.856 189.787 435.235 192.086 431.741 195.58L446.809 210.648ZM445.289 211.096H486.719V189.787H445.289V211.096ZM486.719 211.096C486.376 211.096 485.717 211.017 484.961 210.639C484.206 210.261 483.747 209.781 483.541 209.507L500.589 196.721C497.24 192.256 492.3 189.787 486.719 189.787V211.096ZM485.672 211.638C485.398 211.432 484.917 210.973 484.54 210.218C484.162 209.462 484.083 208.803 484.083 208.46H505.392C505.392 202.879 502.922 197.939 498.458 194.59L485.672 211.638ZM484.088 208.142L482.751 252.913L504.051 253.549L505.388 208.778L484.088 208.142ZM482.747 253.231C482.747 255.662 483.221 258.839 485.204 261.814C487.331 265.004 490.423 266.81 493.49 267.576L498.658 246.904C499.944 247.225 501.699 248.139 502.935 249.993C504.027 251.632 504.056 253.027 504.056 253.231H482.747ZM493.763 267.641C519.494 273.359 539.519 286.059 554.394 305.758L571.399 292.917C553.308 268.959 528.785 253.595 498.385 246.839L493.763 267.641ZM554.394 305.758C569.269 325.458 576.966 349.835 576.966 379.525H598.275C598.275 345.955 589.49 316.875 571.399 292.917L554.394 305.758ZM576.966 379.525V395.562H598.275V379.525H576.966ZM576.966 395.562C576.966 395.208 577.047 394.79 577.216 394.409C577.374 394.052 577.516 393.94 577.414 394.042L592.482 409.11C595.976 405.616 598.275 400.995 598.275 395.562H576.966ZM577.414 394.042C577.829 393.627 578.345 393.299 578.868 393.103C579.358 392.919 579.652 392.926 579.602 392.926V414.235C584.112 414.235 588.793 412.798 592.482 409.11L577.414 394.042ZM579.602 392.926H519.462V414.235H579.602V392.926ZM519.462 392.926C519.44 392.926 519.453 392.924 519.495 392.931C519.538 392.938 519.594 392.95 519.657 392.972C519.72 392.993 519.773 393.016 519.811 393.037C519.849 393.056 519.859 393.066 519.841 393.052L507.055 410.1C510.681 412.819 514.929 414.235 519.462 414.235V392.926ZM521.972 395.183C521.958 395.165 521.967 395.175 521.987 395.213C522.008 395.251 522.031 395.303 522.052 395.367C522.073 395.43 522.086 395.486 522.093 395.529C522.099 395.571 522.098 395.584 522.098 395.562H500.789C500.789 400.095 502.205 404.342 504.924 407.969L521.972 395.183ZM522.098 395.562V378.188H500.789V395.562H522.098ZM522.098 378.188C522.098 358.982 517.143 342.444 506.119 329.767L490.039 343.75C496.834 351.565 500.789 362.646 500.789 378.188H522.098ZM506.433 330.145C495.844 316.769 481.339 310.066 464 310.066V331.376C475.17 331.376 483.386 335.364 489.725 343.372L506.433 330.145ZM464 310.066C447.652 310.066 433.754 316.229 423.193 328.458L439.32 342.386C445.687 335.013 453.618 331.376 464 331.376V310.066ZM423.356 328.274C412.588 340.175 407.906 356.194 407.906 374.847H429.215C429.215 359.643 432.997 349.379 439.157 342.57L423.356 328.274ZM407.906 374.847C407.906 392.985 412.996 409.004 423.605 422.264L440.245 408.953C433.034 399.939 429.215 388.783 429.215 374.847H407.906ZM423.767 422.462C434.016 434.664 452.981 450.677 479.75 470.308L492.352 453.124C465.663 433.552 448.544 418.828 440.083 408.756L423.767 422.462ZM479.726 470.29C506.782 490.249 526.888 506.446 540.248 518.945L554.806 503.384C540.547 490.045 519.668 473.276 492.376 453.142L479.726 470.29ZM540.386 519.071C553.308 530.743 563.148 543.512 570.072 557.359L589.132 547.829C580.909 531.384 569.366 516.532 554.669 503.258L540.386 519.071ZM570.072 557.359C576.751 570.717 580.307 587.053 580.307 606.72H601.616C601.616 584.512 597.599 564.763 589.132 547.829L570.072 557.359Z" fill="black" mask="url(#path-18-outside-1_3378_3954)"/>
<mask id="path-20-outside-2_3378_3954" maskUnits="userSpaceOnUse" x="348.72" y="172" width="271" height="603" fill="black">
<rect fill="white" x="348.72" y="172" width="271" height="603"/>
<path d="M608.682 589.72C608.682 622.24 600.218 649.415 583.289 671.243C566.807 692.626 544.533 706.213 516.467 712.005C514.24 712.896 513.126 714.232 513.126 716.014L513.794 756.107C513.794 758.335 512.903 760.117 511.121 761.453C509.785 763.235 508.003 764.126 505.776 764.126H463.678C461.45 764.126 459.446 763.235 457.664 761.453C456.327 760.117 455.659 758.335 455.659 756.107L456.327 716.014C456.327 713.787 455.436 712.45 453.654 712.005C425.144 706.213 402.647 692.849 386.164 671.911C369.681 650.528 361.44 624.69 361.44 594.398V577.024C361.44 574.796 362.108 573.014 363.444 571.678C365.226 569.896 367.231 569.005 369.458 569.005H430.267C432.494 569.005 434.276 569.896 435.612 571.678C437.394 573.014 438.285 574.796 438.285 577.024V590.388C438.285 607.762 442.517 621.795 450.982 632.486C459.891 643.178 471.251 648.524 485.061 648.524C498.871 648.524 510.231 643.623 519.14 633.823C528.05 623.577 532.505 610.212 532.505 593.729C532.505 582.147 530.054 572.124 525.154 563.659C520.254 555.195 513.349 547.177 504.439 539.603C495.53 532.03 481.274 521.116 461.673 506.861C439.399 490.823 421.357 476.568 407.547 464.094C394.183 451.621 382.823 436.697 373.468 419.323C364.558 401.504 360.103 381.012 360.103 357.847C360.103 326.218 368.345 299.934 384.828 278.997C401.31 258.059 423.807 244.918 452.318 239.572C454.545 238.681 455.659 237.344 455.659 235.562L454.991 191.46C454.991 189.232 455.659 187.45 456.995 186.114C458.777 184.332 460.782 183.441 463.009 183.441H504.439C506.667 183.441 508.449 184.332 509.785 186.114C511.567 187.45 512.458 189.232 512.458 191.46L511.121 236.231C511.121 238.458 512.012 239.794 513.794 240.24C541.86 246.477 564.134 260.509 580.617 282.338C597.099 304.167 605.341 330.895 605.341 362.525V378.562C605.341 380.789 604.45 382.794 602.668 384.576C601.331 385.912 599.55 386.581 597.322 386.581H537.182C534.955 386.581 532.95 385.912 531.168 384.576C529.832 382.794 529.163 380.789 529.163 378.562V361.188C529.163 343.814 524.709 330.004 515.799 319.758C507.335 309.067 495.975 303.721 481.72 303.721C468.355 303.721 457.441 308.621 448.977 318.422C440.513 327.777 436.281 340.919 436.281 357.847C436.281 373.884 440.735 387.472 449.645 398.609C459 409.746 477.042 425.115 503.771 444.716C530.945 464.763 551.438 481.245 565.247 494.164C579.057 506.638 589.749 520.448 597.322 535.594C604.895 550.74 608.682 568.782 608.682 589.72Z"/>
</mask>
<path d="M608.682 589.72C608.682 622.24 600.218 649.415 583.289 671.243C566.807 692.626 544.533 706.213 516.467 712.005C514.24 712.896 513.126 714.232 513.126 716.014L513.794 756.107C513.794 758.335 512.903 760.117 511.121 761.453C509.785 763.235 508.003 764.126 505.776 764.126H463.678C461.45 764.126 459.446 763.235 457.664 761.453C456.327 760.117 455.659 758.335 455.659 756.107L456.327 716.014C456.327 713.787 455.436 712.45 453.654 712.005C425.144 706.213 402.647 692.849 386.164 671.911C369.681 650.528 361.44 624.69 361.44 594.398V577.024C361.44 574.796 362.108 573.014 363.444 571.678C365.226 569.896 367.231 569.005 369.458 569.005H430.267C432.494 569.005 434.276 569.896 435.612 571.678C437.394 573.014 438.285 574.796 438.285 577.024V590.388C438.285 607.762 442.517 621.795 450.982 632.486C459.891 643.178 471.251 648.524 485.061 648.524C498.871 648.524 510.231 643.623 519.14 633.823C528.05 623.577 532.505 610.212 532.505 593.729C532.505 582.147 530.054 572.124 525.154 563.659C520.254 555.195 513.349 547.177 504.439 539.603C495.53 532.03 481.274 521.116 461.673 506.861C439.399 490.823 421.357 476.568 407.547 464.094C394.183 451.621 382.823 436.697 373.468 419.323C364.558 401.504 360.103 381.012 360.103 357.847C360.103 326.218 368.345 299.934 384.828 278.997C401.31 258.059 423.807 244.918 452.318 239.572C454.545 238.681 455.659 237.344 455.659 235.562L454.991 191.46C454.991 189.232 455.659 187.45 456.995 186.114C458.777 184.332 460.782 183.441 463.009 183.441H504.439C506.667 183.441 508.449 184.332 509.785 186.114C511.567 187.45 512.458 189.232 512.458 191.46L511.121 236.231C511.121 238.458 512.012 239.794 513.794 240.24C541.86 246.477 564.134 260.509 580.617 282.338C597.099 304.167 605.341 330.895 605.341 362.525V378.562C605.341 380.789 604.45 382.794 602.668 384.576C601.331 385.912 599.55 386.581 597.322 386.581H537.182C534.955 386.581 532.95 385.912 531.168 384.576C529.832 382.794 529.163 380.789 529.163 378.562V361.188C529.163 343.814 524.709 330.004 515.799 319.758C507.335 309.067 495.975 303.721 481.72 303.721C468.355 303.721 457.441 308.621 448.977 318.422C440.513 327.777 436.281 340.919 436.281 357.847C436.281 373.884 440.735 387.472 449.645 398.609C459 409.746 477.042 425.115 503.771 444.716C530.945 464.763 551.438 481.245 565.247 494.164C579.057 506.638 589.749 520.448 597.322 535.594C604.895 550.74 608.682 568.782 608.682 589.72Z" fill="white"/>
<path d="M583.289 671.243L574.87 664.714L574.86 664.726L574.851 664.738L583.289 671.243ZM516.467 712.005L514.314 701.57L513.388 701.761L512.51 702.112L516.467 712.005ZM513.126 716.014H502.472V716.103L502.473 716.192L513.126 716.014ZM513.794 756.107H524.449V756.019L524.447 755.93L513.794 756.107ZM511.121 761.453L504.729 752.929L503.511 753.843L502.598 755.06L511.121 761.453ZM457.664 761.453L450.13 768.987L450.13 768.987L457.664 761.453ZM455.659 756.107L445.006 755.93L445.004 756.019V756.107H455.659ZM456.327 716.014L466.98 716.192L466.982 716.103V716.014H456.327ZM453.654 712.005L456.239 701.668L456.008 701.611L455.775 701.563L453.654 712.005ZM386.164 671.911L377.725 678.416L377.759 678.459L377.792 678.502L386.164 671.911ZM363.444 571.678L355.911 564.144H355.91L363.444 571.678ZM435.612 571.678L427.089 578.071L428.002 579.288L429.22 580.202L435.612 571.678ZM450.982 632.486L442.628 639.1L442.711 639.204L442.796 639.307L450.982 632.486ZM519.14 633.823L527.024 640.99L527.103 640.903L527.18 640.814L519.14 633.823ZM525.154 563.659L534.375 558.321H534.375L525.154 563.659ZM504.439 539.603L511.34 531.485V531.485L504.439 539.603ZM461.673 506.861L467.94 498.244L467.919 498.229L467.899 498.214L461.673 506.861ZM407.547 464.094L400.277 471.883L400.341 471.943L400.405 472.001L407.547 464.094ZM373.468 419.323L363.938 424.088L364.01 424.233L364.087 424.375L373.468 419.323ZM384.828 278.997L393.199 285.587L384.828 278.997ZM452.318 239.572L454.281 250.044L455.307 249.852L456.275 249.464L452.318 239.572ZM455.659 235.562H466.314V235.482L466.312 235.401L455.659 235.562ZM454.991 191.46H444.336V191.54L444.337 191.621L454.991 191.46ZM456.995 186.114L449.462 178.58L449.462 178.58L456.995 186.114ZM509.785 186.114L501.261 192.507L502.175 193.724L503.392 194.638L509.785 186.114ZM512.458 191.46L523.108 191.778L523.113 191.619V191.46H512.458ZM511.121 236.231L500.472 235.913L500.467 236.072V236.231H511.121ZM513.794 240.24L511.21 250.576L511.346 250.61L511.483 250.641L513.794 240.24ZM580.617 282.338L589.119 275.917L580.617 282.338ZM531.168 384.576L522.644 390.969L523.558 392.186L524.775 393.1L531.168 384.576ZM515.799 319.758L507.445 326.372L507.598 326.564L507.759 326.75L515.799 319.758ZM448.977 318.422L456.878 325.57L456.96 325.479L457.04 325.386L448.977 318.422ZM449.645 398.609L441.325 405.264L441.405 405.364L441.487 405.462L449.645 398.609ZM503.771 444.716L510.096 436.142L510.084 436.133L510.072 436.124L503.771 444.716ZM565.247 494.164L557.969 501.945L558.037 502.009L558.106 502.071L565.247 494.164ZM597.322 535.594L606.852 530.829L597.322 535.594ZM598.027 589.72C598.027 620.311 590.104 645.07 574.87 664.714L591.709 677.773C610.332 653.759 619.336 624.169 619.336 589.72H598.027ZM574.851 664.738C560.026 683.971 540.048 696.26 514.314 701.57L518.62 722.439C549.017 716.167 573.587 701.282 591.728 677.748L574.851 664.738ZM512.51 702.112C510.346 702.978 507.813 704.41 505.776 706.854C503.582 709.487 502.472 712.697 502.472 716.014H523.781C523.781 717.549 523.227 719.199 522.146 720.496C521.677 721.06 521.222 721.417 520.916 721.622C520.762 721.724 520.638 721.793 520.557 721.835C520.476 721.876 520.429 721.895 520.424 721.897L512.51 702.112ZM502.473 716.192L503.141 756.285L524.447 755.93L523.779 715.836L502.473 716.192ZM503.14 756.107C503.14 755.764 503.219 755.105 503.596 754.349C503.974 753.594 504.454 753.135 504.729 752.929L517.514 769.977C521.979 766.628 524.449 761.688 524.449 756.107H503.14ZM502.598 755.06C502.804 754.786 503.262 754.306 504.018 753.928C504.773 753.55 505.433 753.471 505.776 753.471V774.781C511.357 774.781 516.297 772.311 519.645 767.846L502.598 755.06ZM505.776 753.471H463.678V774.781H505.776V753.471ZM463.678 753.471C464.031 753.471 464.45 753.552 464.831 753.721C465.187 753.88 465.3 754.021 465.198 753.919L450.13 768.987C453.624 772.481 458.244 774.781 463.678 774.781V753.471ZM465.198 753.919C465.613 754.334 465.94 754.85 466.136 755.373C466.32 755.863 466.314 756.157 466.314 756.107H445.004C445.004 760.617 446.441 765.299 450.13 768.987L465.198 753.919ZM466.312 756.285L466.98 716.192L445.674 715.836L445.006 755.93L466.312 756.285ZM466.982 716.014C466.982 713.583 466.507 710.406 464.524 707.431C462.397 704.24 459.306 702.435 456.239 701.668L451.07 722.341C449.785 722.02 448.03 721.105 446.794 719.251C445.702 717.613 445.673 716.218 445.673 716.014H466.982ZM455.775 701.563C429.494 696.225 409.309 684.088 394.536 665.321L377.792 678.502C395.984 701.61 420.793 716.202 451.533 722.446L455.775 701.563ZM394.603 665.407C379.731 646.114 372.094 622.639 372.094 594.398H350.785C350.785 626.741 359.632 654.943 377.725 678.416L394.603 665.407ZM372.094 594.398V577.024H350.785V594.398H372.094ZM372.094 577.024C372.094 576.974 372.101 577.268 371.917 577.758C371.721 578.281 371.393 578.797 370.978 579.212L355.91 564.144C352.222 567.832 350.785 572.514 350.785 577.024H372.094ZM370.978 579.212C371.08 579.11 370.968 579.251 370.612 579.41C370.23 579.579 369.812 579.66 369.458 579.66V558.351C364.025 558.351 359.404 560.65 355.911 564.144L370.978 579.212ZM369.458 579.66H430.267V558.351H369.458V579.66ZM430.267 579.66C429.924 579.66 429.264 579.581 428.509 579.203C427.753 578.825 427.295 578.345 427.089 578.071L444.136 565.285C440.787 560.82 435.848 558.351 430.267 558.351V579.66ZM429.22 580.202C428.945 579.996 428.465 579.537 428.087 578.782C427.71 578.026 427.631 577.367 427.631 577.024H448.94C448.94 571.443 446.47 566.503 442.005 563.154L429.22 580.202ZM427.631 577.024V590.388H448.94V577.024H427.631ZM427.631 590.388C427.631 609.495 432.306 626.061 442.628 639.1L459.335 625.873C452.729 617.528 448.94 606.029 448.94 590.388H427.631ZM442.796 639.307C453.712 652.406 468.06 659.178 485.061 659.178V637.869C474.441 637.869 466.07 633.95 459.167 625.665L442.796 639.307ZM485.061 659.178C501.728 659.178 515.999 653.117 527.024 640.99L511.256 626.656C504.462 634.13 496.014 637.869 485.061 637.869V659.178ZM527.18 640.814C538.118 628.236 543.159 612.207 543.159 593.729H521.85C521.85 608.217 517.982 618.918 511.1 626.831L527.18 640.814ZM543.159 593.729C543.159 580.62 540.374 568.684 534.375 558.321L515.933 568.998C519.735 575.563 521.85 583.674 521.85 593.729H543.159ZM534.375 558.321C528.759 548.622 520.999 539.696 511.34 531.485L497.539 547.722C505.698 554.657 511.748 561.769 515.933 568.998L534.375 558.321ZM511.34 531.485C502.107 523.637 487.58 512.527 467.94 498.244L455.406 515.477C474.969 529.704 488.952 540.423 497.539 547.722L511.34 531.485ZM467.899 498.214C445.809 482.309 428.106 468.306 414.689 456.188L400.405 472.001C414.608 484.829 432.989 499.337 455.448 515.507L467.899 498.214ZM414.817 456.305C402.365 444.684 391.698 430.706 382.849 414.272L364.087 424.375C373.948 442.689 386 458.558 400.277 471.883L414.817 456.305ZM382.998 414.559C374.939 398.442 370.758 379.627 370.758 357.847H349.449C349.449 382.397 354.177 404.566 363.938 424.088L382.998 414.559ZM370.758 357.847C370.758 328.145 378.459 304.312 393.199 285.587L376.456 272.406C358.231 295.557 349.449 324.291 349.449 357.847H370.758ZM393.199 285.587C407.94 266.863 428.064 254.96 454.281 250.044L450.354 229.1C419.551 234.875 394.681 249.256 376.456 272.406L393.199 285.587ZM456.275 249.464C458.44 248.598 460.972 247.167 463.009 244.722C465.203 242.089 466.314 238.88 466.314 235.562H445.004C445.004 234.027 445.558 232.377 446.639 231.08C447.108 230.517 447.563 230.159 447.87 229.955C448.023 229.852 448.147 229.784 448.228 229.742C448.31 229.7 448.357 229.681 448.361 229.679L456.275 249.464ZM466.312 235.401L465.644 191.298L444.337 191.621L445.006 235.724L466.312 235.401ZM465.645 191.46C465.645 191.41 465.652 191.704 465.468 192.194C465.272 192.717 464.944 193.233 464.529 193.648L449.462 178.58C445.773 182.268 444.336 186.95 444.336 191.46H465.645ZM464.529 193.648C464.632 193.546 464.519 193.687 464.163 193.846C463.781 194.015 463.363 194.096 463.009 194.096V172.786C457.576 172.786 452.956 175.086 449.462 178.58L464.529 193.648ZM463.009 194.096H504.439V172.786H463.009V194.096ZM504.439 194.096C504.096 194.096 503.437 194.017 502.681 193.639C501.926 193.261 501.467 192.781 501.261 192.507L518.309 179.721C514.96 175.256 510.02 172.786 504.439 172.786V194.096ZM503.392 194.638C503.118 194.432 502.638 193.973 502.26 193.218C501.882 192.462 501.803 191.803 501.803 191.46H523.113C523.113 185.879 520.643 180.939 516.178 177.59L503.392 194.638ZM501.808 191.142L500.472 235.913L521.771 236.549L523.108 191.778L501.808 191.142ZM500.467 236.231C500.467 238.662 500.941 241.839 502.925 244.814C505.052 248.004 508.143 249.81 511.21 250.576L516.379 229.904C517.664 230.225 519.419 231.139 520.655 232.993C521.747 234.632 521.776 236.027 521.776 236.231H500.467ZM511.483 250.641C537.214 256.359 557.239 269.059 572.114 288.758L589.119 275.917C571.029 251.959 546.505 236.595 516.106 229.839L511.483 250.641ZM572.114 288.758C586.989 308.458 594.686 332.835 594.686 362.525H615.995C615.995 328.955 607.21 299.875 589.119 275.917L572.114 288.758ZM594.686 362.525V378.562H615.995V362.525H594.686ZM594.686 378.562C594.686 378.208 594.767 377.79 594.936 377.409C595.095 377.052 595.236 376.94 595.134 377.042L610.202 392.11C613.696 388.616 615.995 383.995 615.995 378.562H594.686ZM595.134 377.042C595.549 376.627 596.065 376.299 596.588 376.103C597.078 375.919 597.372 375.926 597.322 375.926V397.235C601.832 397.235 606.514 395.798 610.202 392.11L595.134 377.042ZM597.322 375.926H537.182V397.235H597.322V375.926ZM537.182 375.926C537.16 375.926 537.173 375.924 537.215 375.931C537.258 375.938 537.314 375.951 537.377 375.972C537.441 375.993 537.493 376.016 537.531 376.037C537.569 376.056 537.579 376.066 537.561 376.052L524.775 393.1C528.402 395.819 532.649 397.235 537.182 397.235V375.926ZM539.692 378.183C539.678 378.165 539.688 378.175 539.708 378.213C539.728 378.251 539.751 378.303 539.772 378.367C539.794 378.43 539.806 378.486 539.813 378.529C539.82 378.571 539.818 378.584 539.818 378.562H518.509C518.509 383.095 519.925 387.342 522.644 390.969L539.692 378.183ZM539.818 378.562V361.188H518.509V378.562H539.818ZM539.818 361.188C539.818 341.982 534.863 325.444 523.839 312.767L507.759 326.75C514.555 334.565 518.509 345.646 518.509 361.188H539.818ZM524.153 313.145C513.564 299.769 499.06 293.066 481.72 293.066V314.376C492.891 314.376 501.106 318.364 507.445 326.372L524.153 313.145ZM481.72 293.066C465.372 293.066 451.474 299.229 440.913 311.458L457.04 325.386C463.408 318.013 471.338 314.376 481.72 314.376V293.066ZM441.076 311.274C430.308 323.175 425.626 339.194 425.626 357.847H446.935C446.935 342.643 450.717 332.379 456.878 325.57L441.076 311.274ZM425.626 357.847C425.626 375.985 430.717 392.004 441.325 405.264L457.965 391.953C450.754 382.939 446.935 371.783 446.935 357.847H425.626ZM441.487 405.462C451.737 417.664 470.701 433.677 497.47 453.308L510.072 436.124C483.383 416.552 466.264 401.828 457.803 391.756L441.487 405.462ZM497.446 453.29C524.502 473.249 544.608 489.446 557.969 501.945L572.526 486.384C558.267 473.045 537.389 456.276 510.096 436.142L497.446 453.29ZM558.106 502.071C571.029 513.743 580.869 526.512 587.792 540.359L606.852 530.829C598.629 514.384 587.086 499.532 572.389 486.258L558.106 502.071ZM587.792 540.359C594.472 553.717 598.027 570.053 598.027 589.72H619.336C619.336 567.512 615.319 547.763 606.852 530.829L587.792 540.359Z" fill="black" mask="url(#path-20-outside-2_3378_3954)"/>
</g>
<defs>
<clipPath id="clip0_3378_3954">
<rect width="950" height="950" fill="white"/>
</clipPath>
</defs>
</svg>
