<svg xmlns="http://www.w3.org/2000/svg" xml:space="preserve" style="enable-background:new 0 0 20 20" viewBox="0 0 19.9 20"><path d="M14.3.4c-2.9-.5-5.8-.5-8.7 0-1.3.2-2.5.8-3.4 1.8S.6 4.3.4 5.7c-.5 2.9-.5 5.8 0 8.7a6 6 0 0 0 1.8 3.5c1 1 2.2 1.6 3.5 1.8a31 31 0 0 0 8.6-.1 6 6 0 0 0 3.5-1.8c1-1 1.6-2.2 1.8-3.5a31 31 0 0 0-.1-8.6 6.2 6.2 0 0 0-1.8-3.5c-.8-1-2-1.6-3.4-1.8zM8 16.6a1 1 0 0 1-.7-.3c-.3-.3-.3-.9-.1-1.2l2.5-3.4-4.1-.4c-.4 0-.8-.3-.9-.8-.1-.4 0-.9.3-1.2l6.3-5.7c.2-.2.4-.3.7-.3.3 0 .5.1.7.3.3.4.3.9.1 1.3l-2.5 3.4 4.1.4c.4 0 .8.3 1 .8.1.4 0 .9-.3 1.2l-6.3 5.7-.8.2z" style="fill:#a60063"/></svg>
