<?xml version="1.0" encoding="utf-8"?>
<!-- Generator: Adobe Illustrator 27.0.0, SVG Export Plug-In . SVG Version: 6.00 Build 0)  -->
<svg version="1.1" id="Layer_2_00000051345771359607224780000001254728226673669780_"
	 xmlns="http://www.w3.org/2000/svg" xmlns:xlink="http://www.w3.org/1999/xlink" x="0px" y="0px" viewBox="0 0 20 20"
	 style="enable-background:new 0 0 20 20;" xml:space="preserve">
<style type="text/css">
	.st0{fill:#A60063;}
</style>
<g id="Layer_1-2">
	<g>
		<path class="st0" d="M14.3,0.4c-2.9-0.5-5.8-0.5-8.7,0C4.3,0.6,3.1,1.2,2.2,2.2S0.6,4.3,0.4,5.7c-0.5,2.9-0.5,5.8,0,8.7
			c0.2,1.3,0.8,2.6,1.8,3.5c1,1,2.2,1.6,3.5,1.8C7.1,19.9,8.6,20,10,20c1.5,0,2.9-0.1,4.3-0.4c1.3-0.2,2.6-0.8,3.5-1.8
			c1-1,1.6-2.2,1.8-3.5c0.2-1.4,0.3-2.9,0.3-4.3c0-1.5-0.1-2.9-0.4-4.3c-0.2-1.3-0.8-2.5-1.8-3.5C16.9,1.2,15.7,0.6,14.3,0.4
			L14.3,0.4L14.3,0.4z M8,16.6c-0.3,0-0.5-0.1-0.7-0.3C7,16,7,15.4,7.2,15.1l2.5-3.4l-4.1-0.4c-0.4,0-0.8-0.3-0.9-0.8
			c-0.1-0.4,0-0.9,0.3-1.2l6.3-5.7c0.2-0.2,0.4-0.3,0.7-0.3c0.3,0,0.5,0.1,0.7,0.3C13,4,13,4.5,12.8,4.9l-2.5,3.4l4.1,0.4
			c0.4,0,0.8,0.3,1,0.8c0.1,0.4,0,0.9-0.3,1.2l-6.3,5.7C8.5,16.5,8.3,16.6,8,16.6L8,16.6z"/>
	</g>
</g>
</svg>
