<svg xmlns="http://www.w3.org/2000/svg" width="36" height="36" fill="none"><path fill="#000" d="M224.28 15.74c-1.23-5.23-5.12-8.99-11.65-8.99-7.8 0-11.93 5.53-11.93 12.65v.74c0 7.12 4.12 12.7 11.94 12.7 6.38 0 10.26-3.56 11.59-8.7h-4.08c-1.23 3.41-3.88 5.34-7.52 5.34-4.81 0-8-3.66-8-9.34v-.74c0-5.73 3.19-9.29 8-9.29 3.73 0 6.44 2.13 7.62 5.63zm7.56-8.29c1.23 0 1.58-.35 1.58-1.59V.03h3.93v7.42h12.18v3.46h-12.18v17.4h12.18v3.85H236.9a3.52 3.52 0 0 1-3.48-3.5V10.9h-7.47V7.45h5.9ZM31.57 32.27l-7.38-7.42H12.55l-7.37 7.42 3.46 3.48 7.37-7.42a3.3 3.3 0 0 1 2.36-.98c.9 0 1.73.35 2.37.98l7.37 7.42zm-6.15-9.55 10.07 2.7 1.27-4.75-10.07-2.71a3.35 3.35 0 0 1-2.36-4.12l2.7-10.12-4.74-1.27-2.7 10.12 5.83 10.14ZM1.26 25.43l10.07-2.71v-.01l5.83-10.14-2.7-10.12-4.73 1.27 2.7 10.12a3.35 3.35 0 0 1-2.36 4.12L0 20.66z"/></svg>