<svg xmlns="http://www.w3.org/2000/svg" fill="none" viewBox="23.92 37.5 251.38 225"><path fill="#E81899" d="m270.02 219.25-43.08-58.52a27.34 27.34 0 0 0-18.99-11.01 5.33 5.33 0 0 1-4.02-2.64 5.35 5.35 0 0 1-.27-4.81 27.3 27.3 0 0 0-.04-21.95l-29.14-66.56A27.13 27.13 0 0 0 149.6 37.5a27.15 27.15 0 0 0-24.87 16.26L95.6 120.32a27.37 27.37 0 0 0-.05 21.95 5.4 5.4 0 0 1-.27 4.81 5.36 5.36 0 0 1-4.02 2.64 27.34 27.34 0 0 0-18.98 11.01L29.2 219.25a27.17 27.17 0 0 0-1.65 29.67 27.2 27.2 0 0 0 26.52 13.41l72.22-8.04a27.3 27.3 0 0 0 19.01-10.93 5.36 5.36 0 0 1 4.3-2.18c1.7 0 3.3.81 4.31 2.18a27.3 27.3 0 0 0 19.02 10.93l72.22 8.04a27.15 27.15 0 0 0 26.52-13.4 27.17 27.17 0 0 0-1.65-29.67Zm-155.58-90.57 29.18-66.64a6.57 6.57 0 0 1 6-3.93 6.57 6.57 0 0 1 6 3.93l29.19 66.64a6.8 6.8 0 0 1-6.24 9.52h-57.91a6.82 6.82 0 0 1-5.7-3.07 6.8 6.8 0 0 1-.54-6.45zm14.98 101.45a6.8 6.8 0 0 1-5.33 3.69l-72.29 8.04a6.57 6.57 0 0 1-6.4-3.23 6.53 6.53 0 0 1 .4-7.15l43.12-58.59a6.79 6.79 0 0 1 5.85-2.76 6.79 6.79 0 0 1 5.52 3.4l.05.07 28.87 50 .04.08a6.78 6.78 0 0 1 .18 6.46zm26.13-22.62a6.87 6.87 0 0 1-5.94 3.44 6.88 6.88 0 0 1-5.94-3.42l-22.18-38.42a6.83 6.83 0 0 1 0-6.85 6.88 6.88 0 0 1 5.94-3.44h44.35a6.85 6.85 0 0 1 5.94 10.28zm98.28 31.12a6.57 6.57 0 0 1-6.4 3.24l-72.3-8.04a6.8 6.8 0 0 1-5.32-3.69 6.77 6.77 0 0 1 .18-6.46l.05-.08 28.87-50 .04-.08a6.79 6.79 0 0 1 5.52-3.39 6.82 6.82 0 0 1 5.85 2.76l43.12 58.59a6.56 6.56 0 0 1 .4 7.15Z"/></svg>