<svg xmlns="http://www.w3.org/2000/svg" width="300" height="300" fill="none"><path fill="#E81899" d="m270.018 219.255-43.077-58.525a27.343 27.343 0 0 0-18.988-11.01 5.332 5.332 0 0 1-4.02-2.639 5.346 5.346 0 0 1-.27-4.815c2.955-6.809 3.135-14.714-.045-21.943l-29.142-66.564A27.13 27.13 0 0 0 149.608 37.5a27.154 27.154 0 0 0-24.868 16.259l-29.142 66.564a27.373 27.373 0 0 0-.046 21.943 5.393 5.393 0 0 1-.27 4.815 5.357 5.357 0 0 1-4.02 2.639 27.344 27.344 0 0 0-18.987 11.01l-43.077 58.525a27.166 27.166 0 0 0-1.65 29.667 27.197 27.197 0 0 0 26.518 13.409l72.219-8.039a27.302 27.302 0 0 0 19.018-10.934 5.357 5.357 0 0 1 4.305-2.175c1.695 0 3.285.81 4.305 2.175a27.302 27.302 0 0 0 19.018 10.934l72.219 8.039c10.709 1.2 21.118-4.065 26.518-13.409a27.168 27.168 0 0 0-1.65-29.667Zm-155.582-90.578 29.187-66.64a6.567 6.567 0 0 1 6-3.929 6.566 6.566 0 0 1 5.999 3.93l29.188 66.639a6.799 6.799 0 0 1-6.24 9.524h-57.91a6.818 6.818 0 0 1-5.699-3.074 6.808 6.808 0 0 1-.54-6.45h.015Zm14.984 101.452a6.802 6.802 0 0 1-5.325 3.689l-72.294 8.04a6.572 6.572 0 0 1-6.404-3.225 6.532 6.532 0 0 1 .405-7.154l43.121-58.585a6.785 6.785 0 0 1 5.85-2.76 6.786 6.786 0 0 1 5.519 3.389l.045.075 28.873 50.006.045.075a6.776 6.776 0 0 1 .18 6.465l-.015-.015Zm26.127-22.618a6.872 6.872 0 0 1-5.939 3.434 6.879 6.879 0 0 1-5.94-3.419l-22.183-38.412a6.829 6.829 0 0 1 0-6.855 6.875 6.875 0 0 1 5.94-3.434h44.351a6.847 6.847 0 0 1 5.94 10.274l-22.169 38.412Zm98.287 31.122a6.57 6.57 0 0 1-6.404 3.24l-72.294-8.04a6.802 6.802 0 0 1-5.325-3.689 6.774 6.774 0 0 1 .18-6.465l.045-.075 28.873-50.006.045-.075a6.785 6.785 0 0 1 5.519-3.389 6.823 6.823 0 0 1 5.85 2.76l43.121 58.585a6.56 6.56 0 0 1 .405 7.154h-.015Z"/></svg>
