<svg xmlns="http://www.w3.org/2000/svg" width="48" height="48" fill="none" viewBox="0 0 48 48"><path fill="#14C784" d="M4.68 9.042c12.97 1.377 25.67-2.016 38.64-.639.94.168 1.68 1.075 1.68 1.983V36.93c0 .94-.74 1.512-1.68 1.377-12.97-1.377-25.67 2.016-38.64.639C3.74 38.778 3 37.87 3 36.963V10.42c0-.94.74-1.545 1.68-1.377"/><path fill="#fff" d="M32.3 25.136c0 .806-.168 1.58-.47 2.352a6.3 6.3 0 0 1-1.311 2.05 7.1 7.1 0 0 1-1.983 1.478 6.3 6.3 0 0 1-2.318.672h-.034c-1.276.134-2.553-.134-3.561-.806-1.042-.639-1.815-1.68-2.184-2.89a6 6 0 0 1-.269-1.747v-4.469c0-.437.168-.84.47-1.176a1.7 1.7 0 0 1 1.143-.571c.437-.034.84.067 1.142.336.303.269.47.638.47 1.075v4.469c0 .773.303 1.445.84 1.949.404.37.908.57 1.479.638a2.8 2.8 0 0 0 1.646-.336 3.1 3.1 0 0 0 1.277-1.176 3.6 3.6 0 0 0 .504-1.646V16.4c0-.202.034-.403.135-.605.067-.201.201-.37.336-.537.134-.168.336-.303.504-.404.403-.201.84-.235 1.21-.1q.301.1.503.302c.135.134.269.302.336.504s.135.403.135.605zm-12.567-5.309c-.537.605-.84 1.344-.84 2.117v8.938c0 .436-.168.84-.47 1.176-.605.638-1.647.739-2.251.168-.303-.27-.47-.672-.47-1.11V22.18c0-1.445.537-2.89 1.478-4.065a6.7 6.7 0 0 1 3.696-2.352 9 9 0 0 1 .873-.168c1.143-.135 2.285.067 3.26.604.47.236.873.538 1.243.908v.033a5.36 5.36 0 0 1 1.31 2.184c0 .034 0 .034.034.067.168.538.235 1.076.235 1.647v4.469c0 .302-.101.638-.269.907s-.437.504-.706.672a1.4 1.4 0 0 1-.604.168h-.336c-.068 0-.101-.034-.168-.034-.034 0-.068 0-.101-.033a1.37 1.37 0 0 1-.706-.504 1.47 1.47 0 0 1-.269-.84v-4.469c0-.37-.067-.74-.235-1.075a2.36 2.36 0 0 0-.638-.874 2.9 2.9 0 0 0-.941-.538c-.336-.1-.74-.134-1.109-.1a3.12 3.12 0 0 0-2.016 1.041"/><path fill="#00945C" d="M11.736 9.378c-2.352 0-4.704-.068-7.056-.336C3.74 8.874 3 9.478 3 10.419v7.426c4.924.911 8.796-2.813 8.736-8.467m31.584-.975a71 71 0 0 0-7.023-.336c-.033.168-.033.37-.033.538-.015 5.003 3.639 8.85 8.736 8.736v-6.99c0-.873-.74-1.78-1.68-1.948m-7.056 29.568c2.352 0 4.704.067 7.056.336.94.134 1.68-.437 1.68-1.378v-7.694c-4.839 0-8.064 1.949-8.736 8.736m-31.584.975c2.352.235 4.704.336 7.022.336 0-.202.034-.437.034-.639-.204-4.334-3.946-8.23-8.736-8.736v7.056c0 .907.74 1.815 1.68 1.983"/></svg>