<svg xmlns="http://www.w3.org/2000/svg" width="400" height="400"><path fill="#141414" d="m188.652.762 2.452-.03C224.924.406 256.387 4.732 287 20l2.222 1.103c47.347 23.73 83.274 64.893 100.528 115.022 5.534 16.752 9.31 34.848 9.488 52.527l.03 2.452c.326 33.82-4 65.283-19.268 95.896l-1.103 2.222c-23.73 47.347-64.893 83.274-115.022 100.528-16.752 5.534-34.848 9.31-52.527 9.488l-2.452.03c-18.284.176-36-.047-53.896-4.268l-2.763-.65c-49.1-11.984-94.433-43.794-121.124-86.928-17.42-29.02-30.007-61.828-30.351-96.074l-.03-2.452C.406 175.076 4.732 143.613 20 113l1.103-2.222C44.833 63.43 85.996 27.504 136.125 10.25 152.877 4.716 170.973.94 188.652.762"/><path fill="#181918" d="M42 164h48v4h-5v2h4l1 2h3l1-2h3l-.453 1.742a67 67 0 0 0-.906 4.328c-.398 2.09-.819 3.966-1.641 5.93-2.625 1.5-2.625 1.5-5 2l.188 3.813c.013 3.942.013 3.942-1.626 5.937L86 195c-.714 2.103-.714 2.103-1 4h-3l.438-1.5c.786-3.496 1.211-6.931 1.562-10.5-1.135-1.362-1.135-1.362-4.143-1.114q-2.087 0-4.173.016l-2.216.005c-2.343.005-4.687.018-7.03.03l-4.756.014q-5.841.017-11.682.049l-.437 2.938C49 192 49 192 48 193a100 100 0 0 0 0 5l2-1c2.672-.134 5.323-.043 8 0l1 4-3 1 2 1q-.68 2.159-1.375 4.313l-.773 2.425C55 212 55 212 53 215h-2v2l-2.266.148-2.984.227-2.953.21c-2.734.406-4.496.907-6.797 2.415a78 78 0 0 0-2 5l-2 1a78 78 0 0 0-2 5h-2v2H18v-3l-6 1 1-6h2l.313-2.25C16 220 16 220 17.422 218.215c2.5-3.51 3.269-7.52 4.418-11.633C23 204 23 204 25.129 203.137L27 203l-.703-1.555c-.45-3.702 1.277-6.383 2.953-9.57l.95-1.918c1.662-3.25 2.707-4.895 5.8-6.957.261-1.96.515-3.921.684-5.89.457-3.05 1.792-5.46 3.316-8.11h2z"/><path fill="#2B282A" d="m124 202 3 1 1 11 1-11 5-1v15h2v12h-5l7 1v-11l4-1c.08 2.291.14 4.583.188 6.875l.105 3.867L142 232c-3 2-3 2-6 2-2.252.27-4.499.57-6.746.879-2.317.124-4.048-.2-6.254-.879q-.04-3.657-.062-7.312l-.026-2.092c-.015-3.144.086-5.59 1.088-8.596.07-2.395.084-4.792.063-7.187l-.028-3.856z"/><path fill="#686868" d="M183 164h63v4h-63z"/><path fill="#6B686A" d="m124 169 3 1v12h3l1-12 3-1c.98 10.49.896 20.513 0 31h-3v-15h-4v15h-4q-.037-6.381-.055-12.762-.008-2.173-.02-4.345a1691 1691 0 0 1-.023-6.233l-.016-3.793C123 170 123 170 124 169"/><path fill="#686868" d="M42 164h48v4H42z"/><path fill="#252627" d="m286 169 5 1q.039 3.468.063 6.938l.035 3.902C291 184 291 184 290 185a185 185 0 0 0-.062 7.563l.013 2.154q.02 2.64.049 5.283l-4-1-1-10c-2.15.801-2.15.801-2.746 2.813q-.691 2.185-1.375 4.375L280 198l-3 1c.743-4.084 1.83-8.02 3-12l4-1v-3h2z"/><path fill="#524E52" d="M182 181h9l-1 18h-2l.992 1.547c1.364 3.32 1.2 6.127 1.133 9.703l-.055 3.828L190 217h-4v-16h-2q.212-3.438.438-6.875c.08-1.276.162-2.552.246-3.867C185 187 185 187 186 185h-4z"/><path fill="#656568" d="M178 219h4v11l4.375-.375c.812-.07 1.624-.14 2.46-.21 2.368-.244 2.368-.244 4.165-2.415a221 221 0 0 0 3-7h2l2 3 1 1 3-3c.75 1.563.75 1.563 1 4-1.13 2.503-2.521 4.67-4 7h-3l-2-4-1.547 2.48C192 233 192 233 188.547 233.488L178 233z"/><path fill="#676767" d="M299 164h33v4h-33z"/><path fill="#747474" d="M87 170h2c-.68 3.062-1.68 5.816-2.937 8.688l-1.028 2.386C84 183 84 183 82 184c-2.408.086-4.787.116-7.195.098l-2.144-.005a2159 2159 0 0 1-6.786-.03l-4.598-.014Q55.64 184.032 50 184v-3l32-1 4-9z"/><path fill="#686868" d="M253 164h32v4h-31z"/><path fill="#828282" d="M151 181h10v4l3 1v2h2c.304 9.12.304 9.12-2 12-3.612 1.667-8.11 1.065-12 1v-3c7.75-.125 7.75-.125 10 1 .054-1.458.093-2.916.125-4.375l.07-2.46c.019-2.378.019-2.378-2.195-4.165v-3h-9z"/><path fill="#707070" d="M89 215h25v2h-4v15h-3v-14c-2.227.03-2.227.03-4.5.063-4.595.006-8.959-.39-13.5-1.063z"/><path fill="#757273" d="m124 169 3 1q.29 3.218.563 6.438l.316 3.62L128 183l-1 1a226 226 0 0 0-.562 8.063l-.131 2.298q-.159 2.82-.307 5.639h-3q-.037-6.381-.055-12.762-.008-2.173-.02-4.345a1691 1691 0 0 1-.023-6.233l-.016-3.793C123 170 123 170 124 169"/><path fill="#535352" d="M288 221h3v7c2.287 1.144 3.593 1.103 6.125 1.063L301 229l1.375-3.437C304 222 304 222 306 221c-.501 5.262-2.21 9.21-6 13-1.52.072-3.042.084-4.562.063l-2.504-.028L291 234l-1-5-5 2z"/><path fill="#2A2A2A" d="M94 170h3l-.453 1.742a67 67 0 0 0-.906 4.328c-.398 2.09-.819 3.966-1.641 5.93-2.625 1.5-2.625 1.5-5 2l.188 3.813c.013 3.942.013 3.942-1.626 5.937L86 195c-.714 2.103-.714 2.103-1 4h-3l.438-1.5c1-4.443 1.562-8.942 1.562-13.5h2l.813-1.937C88 180 88 180 91 179c1.023-2.097 1.023-2.097 1.688-4.562.25-.827.502-1.653.761-2.504z"/><path fill="#5C5B5B" d="m202 203 3 1 1 9 2-4h2l1-5h2a232 232 0 0 1-.687 5.875l-.387 3.305C211 216 211 216 208.668 217.445 206 218 206 218 202 217z"/><path fill="#2E2E2E" d="m246 169 .875 1.938c.953 2.214.953 2.214 3.125 3.062v-3h2c.432 4.752-1.015 7.782-3 12h-4l1-9h-2l-.812 2.875C242 180 242 180 239 182c.598-4.188 1.441-8.057 3-12 2-1 2-1 4-1"/><path fill="#4B474A" d="M185 187h1v12h2c2.376 3.704 2.205 6.93 2.125 11.25l-.055 3.828L190 217h-4v-16h-2z"/><path fill="#7F807F" d="m55 204 3 1-5 10h-2v2H34l1-3h16l2-6a87 87 0 0 1 2-4"/><path fill="#737372" d="M227 171h2c-.51 4.38-1.407 7.41-4 11-3.792 2.528-6.809 2.224-11.187 2.125l-2.272-.027c-1.847-.024-3.694-.06-5.541-.098v-3h17l1.438-4.437c1.437-4.438 1.437-4.438 2.562-5.563"/><path fill="#797778" d="M123 219h3v14h2v-2h8v3c-1.415.197-2.832.382-4.25.563l-2.39.316C127 235 127 235 123 234z"/><path fill="#67676A" d="M338 165h9v3h-2v15h-3v-14l-4-1z"/><path fill="#5D5D5D" d="M305 187h2l-2 9h-2v3c-3.089 2.06-3.71 2.239-7.187 2.125L292 201v-4h9v-3h2l.438-2.937C304 188 304 188 305 187"/><path fill="#666665" d="m153 220 3 1c.95 2.066.95 2.066 1.688 4.563.25.826.502 1.652.761 2.503L159 230h9v4c-3.126.49-5.893.677-9 0-3.976-3.726-5.598-8.645-6-14"/><path fill="#0C0B0D" d="M128 187c2 2 2 2 2.23 4.313l-.042 2.687-.02 2.688C130 199 130 199 129 201l2 1-1 1a168 168 0 0 0-.562 6.563l-.254 3.628L129 216c-3.036-3.036-2.438-6.318-2.656-10.469-.106-2.697-.106-2.697-2.344-4.531l2-1c.693-3.04.693-3.04 1.125-6.562l.508-3.63z"/><path fill="#0B0B0A" d="M49 185h33v1c-3.719.863-7.143 1.117-10.957 1.098l-3.37-.01-3.486-.025-3.544-.014Q56.322 187.03 52 187l-1 3z"/><path fill="#696969" d="M265 221h3l-3 10h-3l-1 3h-8v-4h9z"/><path fill="#636165" d="M178 185h4v14l-4 1z"/><path fill="#5D5D5D" d="M147 185h3v15h-4q-.04-3.469-.062-6.937l-.036-3.903C146 186 146 186 147 185"/><path fill="#6E6E6E" d="M268 171c-.608 4.134-1.91 7.382-4 11-3.089 2.06-3.71 2.239-7.187 2.125L253 184v-3l8-1 .586-1.715.789-2.222.773-2.215c1.16-2.516 2.124-2.848 4.852-2.848"/><path fill="#636363" d="M107 186h4v14h-4z"/><path fill="#2E2D2E" d="M196 220h2l2 3 1 1 3-3c.75 1.563.75 1.563 1 4-1.13 2.503-2.521 4.67-4 7h-3c-1.138-4.266-2-7.565-2-12"/><path fill="#8B8C8B" d="M359 220h3c-.51 4.38-1.407 7.41-4 11-3.089 2.06-3.71 2.239-7.187 2.125L347 233v-2h8l.875-3.25c.853-2.844 1.689-5.185 3.125-7.75"/><path fill="#2A2A2A" d="M151 181h10v4l3 1-2 1-1 2-1-4h-9z"/><path fill="#7D7D7D" d="M359 188h2v5h-2l-.312 2.375C358 198 358 198 355 200c-2.043.195-2.043.195-4.187.125L347 200v-2c1.856.03 1.856.03 3.75.063 2.226-.145 2.226-.145 4.25-1.063 1.93-2.81 3.003-5.754 4-9"/><path fill="#878787" d="M86 221h2c-.242 4.114-.671 6.532-3.062 9.938-3.981 2.794-6.164 2.467-10.938 2.062v-2h8l.621-1.934.817-2.504.808-2.496C85 222 85 222 86 221"/><path fill="gray" d="M248 202h3v15h-3z"/><path fill="#898888" d="M250 221h2c-.61 3.555-1.418 6.747-3 10-3.089 2.06-3.71 2.239-7.187 2.125L238 233v-2h8l2-7h2z"/><path fill="#747474" d="M140 218h2c.08 2.291.14 4.583.188 6.875l.105 3.867L142 232l-3 2q-.04-3.72-.062-7.437l-.026-2.143c-.009-1.807.036-3.614.088-5.42z"/><path fill="#838185" d="M131 202h3v15l-3-1z"/><path fill="#818483" d="M287 186h3v14h-3z"/><path fill="#787576" d="M232 219h3v14l-3-1z"/><path fill="#7B7577" d="M233 202h2v14h-3q-.04-3.22-.062-6.437l-.036-3.622C232 203 232 203 233 202"/><path fill="#2A2A2B" d="m354 192 3 1-2 5h-8v2h7v1h-8v-4c5.75-3 5.75-3 8-3z"/><path fill="#0C0B0A" d="m204 181 1 3 17 1c-2 2-2 2-5.477 2.195a289 289 0 0 1-4.148-.07l-2.14-.027A625 625 0 0 1 205 187v-2l-2-1z"/><path fill="#888889" d="M287 170h3v13h-3z"/><path fill="#5F5F5F" d="M151 213h9v4h-9z"/><path fill="#707070" d="M266 187h2c-.468 4.056-.88 7.466-3 11h-3q.425-2.19.875-4.375l.492-2.46C264 189 264 189 266 187"/><path fill="#727272" d="m168 170 4 1 3 11c-4-1-4-1-5.047-2.742l-.703-2.133-.734-2.117C168 173 168 173 168 170"/><path fill="#717372" d="M48 187h2c-.665 4.389-2.188 7.981-4 12h-3c.523-2.763 1.109-5.326 2-8h2z"/><path fill="#757575" d="M71 220h2v6h-2l-2 5h-2c.607-4.128 2.038-7.332 4-11"/><path fill="#5B5B5B" d="M114 224h1v5l6 1v3h-8c-.098-6.152-.098-6.152 0-8z"/><path fill="#757575" d="M297 170h3v3h-2l-.375 2.25c-.58 2.551-1.362 4.477-2.625 6.75h-2c.665-4.389 2.188-7.981 4-12"/><path fill="#777878" d="M23 204h3c-.551 3.95-1.39 7.35-3 11h-3c.551-3.95 1.39-7.35 3-11"/><path fill="#787878" d="M101 188h3c-1.75 7.625-1.75 7.625-4 11h-2c.468-4.056.88-7.466 3-11"/><path fill="#777" d="M16 220h2c-.468 4.056-.88 7.466-3 11h-3l1-6h2z"/><path fill="#7A7A7A" d="M276 204c-.783 3.916-2.392 7.364-4 11h-3c.449-1.648.91-3.294 1.375-4.937l.773-2.778C272.221 204.406 272.96 204 276 204"/><path fill="#797A79" d="M31 188h3l-1 6h-2v4l-3 1c.468-4.056.88-7.466 3-11"/><path fill="#7B7B7B" d="M320 188h2c-.551 3.95-1.39 7.35-3 11h-3c.506-4.355 1.384-7.442 4-11"/><path fill="#767776" d="M39 170h3c-.607 4.128-1.94 7.374-4 11l-2 1q.465-2.157.938-4.312l.527-2.426C38 173 38 173 39 170"/><path fill="#7A7A7A" d="M296 204h3c-.422 1.65-.863 3.295-1.312 4.938l-.739 2.777L296 214l-3 1c.551-3.95 1.39-7.35 3-11"/><path fill="#0D0C0C" d="m128 168 2 1v13h-3q-.04-2.937-.062-5.875l-.036-3.305C127 170 127 170 128 168"/><path fill="#7A7A7A" d="M78 204h3c-.563 3.941-1.68 6.75-4 10h-2z"/><path fill="#7F7D7E" d="M227 204h2c-.672 3.806-1.727 7.352-3 11h-3c.506-4.355 1.384-7.442 4-11"/><path fill="#7B7B7B" d="M211 204h2l-1 7h-2v4h-3l1-6h2z"/><path fill="#7B7F7E" d="m281 188 3 1a301 301 0 0 1-1.812 4.438l-1.02 2.496C280 198 280 198 277 199c.607-4.128 2.038-7.332 4-11"/><path fill="#7E7E7E" d="M305 187h2l-2 9h-2v2h-2v-4h2l.438-2.937C304 188 304 188 305 187"/><path fill="#7A7A7A" d="M375 187h2a1126 1126 0 0 1-.937 4.375l-.528 2.46C375 196 375 196 374 198h-3q.713-2.47 1.438-4.937l.808-2.778C374 188 374 188 375 187"/><path fill="#7D7D7B" d="M153 220c3 1 3 1 4.688 4.375C159 228 159 228 159 231l-3-1c-1.747-3.493-3-6.068-3-10"/><path fill="#7C7C7C" d="M328 204h2c-.672 3.806-1.727 7.352-3 11h-3c.506-4.355 1.384-7.442 4-11"/><path fill="#090713" d="M340 187h1v13l-2-2v-4h-2v-3h2z"/><path fill="#7F7F7D" d="M321 171c1.044 3.133.934 3.99 0 7h-2v4h-3q.676-2.19 1.375-4.375l.773-2.46C319 173 319 173 321 171"/><path fill="#7B7C7C" d="M288 221h3a260 260 0 0 1-1.312 4.438l-.739 2.496L288 230l-3 1z"/><path fill="gray" d="M220 220c1 3 1 3-.25 6.625C218 230 218 230 215 231q.676-2.19 1.375-4.375l.773-2.46C218 222 218 222 220 220"/><path fill="#646464" d="M152 198c8.571-.286 8.571-.286 12 2-3.981 1.327-7.85 1.07-12 1z"/><path fill="#828282" d="M220 187c1.044 3.133.934 3.99 0 7h-2l-1 4h-2l1-6h2v-4z"/><path fill="#202020" d="M103 186h2l1 11-3 1c-1.467-3.815-.433-6.29 1-10l-2-1z"/><path fill="#818181" d="M335 188h3l-1 6h-2l-.375 1.938L334 198l-2 1 1-7h2z"/><path fill="gray" d="M367 171h2c-.672 3.806-1.727 7.352-3 11h-3l2-8h2z"/><path fill="#828282" d="M227 171h2c-.473 4.167-1.047 6.929-4 10h-2q.714-2.22 1.438-4.437l.808-2.497C226 172 226 172 227 171"/><path fill="#787878" d="M94 170h3l-2 8h-2l-1 3-2-1z"/><path fill="#262626" d="m90 172 3 1c-.375 2.938-.375 2.938-1 6l-2 1-1-3-3 2a101 101 0 0 1 2-6z"/><path fill="#828282" d="M343 221h3l-3 10h-3c.507-3.719 1.116-6.735 3-10"/><path fill="#848484" d="M258 204h2c-.888 3.699-1.946 7.346-3 11h-3c.607-4.128 2.038-7.332 4-11"/><path fill="#828282" d="M313 204c.955 2.17 1.144 3.563.398 5.824-.757 1.744-1.574 3.462-2.398 5.176h-3l1-5h2l.438-2.437C312 205 312 205 313 204"/><path fill="gray" d="M250 171h2c.364 4.242-.46 6.582-3 10h-2l1-7h2zm-163-1h2c-.783 3.916-2.392 7.364-4 11h-2q.425-2.19.875-4.375l.492-2.46C85 172 85 172 87 170"/><path fill="#2E2D2F" d="M138 219h1v13l-3 1v-2h-7v-1h9z"/><path fill="#838383" d="M367 204h2c-.607 4.128-2.038 7.332-4 11h-1c.75-7.625.75-7.625 3-11"/><path fill="#828282" d="M86 188h2l-3 11h-3c.783-3.916 2.392-7.364 4-11"/><path fill="gray" d="M268 171c-.503 4.401-2.088 6.712-5 10q.172-2.22.375-4.437c.07-.824.14-1.648.21-2.497L264 172c2-1 2-1 4-1"/><path fill="#848482" d="M320 221h2c-.61 3.558-1.578 6.683-3 10h-2c-.364-4.242.46-6.582 3-10"/><path fill="#2A2A28" d="M320 170h3c.229 3.033.365 5.975 0 9-2 2.063-2 2.063-4 3v-4h2c.21-4.14.21-4.14-1-8"/><path fill="#858585" d="M351 172h2c-.565 3.958-1.809 6.666-4 10-.687-1.625-.687-1.625-1-4 1.438-3.25 1.438-3.25 3-6"/><path fill="#878687" d="M195 221h2c-.254 1.482-.53 2.96-.812 4.438l-.458 2.496L195 230l-3 1c.787-3.41 1.871-6.689 3-10"/><path fill="#878787" d="m33 221 1 2c-.777 1.945-.777 1.945-1.937 4.125l-1.153 2.195L30 231h-2c.432-4.752 1.328-6.92 5-10"/><path fill="#767475" d="M183 181h8v3h-8z"/><path fill="#727272" d="M152 181h8v3h-8z"/><path fill="#878787" d="M242 172h2c-.565 3.958-1.809 6.666-4 10-.687-1.625-.687-1.625-1-4 1.438-3.25 1.438-3.25 3-6"/><path fill="#8D8D8D" d="M242 189h2v3h-2l2 5-4-2c0-4 0-4 2-6"/><path fill="#8B8B8B" d="M305 221c.688 1.625.688 1.625 1 4-1.437 3.25-1.437 3.25-3 6h-2q.715-2.22 1.438-4.437l.808-2.497C304 222 304 222 305 221"/><path fill="#8A8A8A" d="M204 221c.688 1.625.688 1.625 1 4-1.437 3.25-1.437 3.25-3 6h-2q.423-2.221.875-4.437l.492-2.497L202 222z"/><path fill="#8B8B8B" d="M351 205h2c-.565 3.958-1.809 6.666-4 10-.687-1.625-.687-1.625-1-4 1.438-3.25 1.438-3.25 3-6"/><path fill="#8F8F8F" d="M174 206v2h-2l2 5-4-1-1-4c3-2 3-2 5-2"/><path fill="#888" d="M180 171h2c-.706 3.669-2.277 6.705-4 10-1.392-4.176.177-6.135 2-10"/><path fill="#8F9090" d="M169 221c3.483 3.019 4.792 5.57 6 10l-3-1c-.95-2.066-.95-2.066-1.687-4.562l-.762-2.504z"/><path fill="#8B8B8B" d="M265 221h3c-1.09 3.775-1.908 6.47-5 9 .486-3.123.999-5.996 2-9"/><path fill="#6B6B6A" d="M359 220h3l-1 6h-3c0-3 0-3 1-6"/><path fill="#3F3F3F" d="m179 178 1 2-1 3h-6l2-1-1-3c2-1 2-1 5-1"/><path fill="#080808" d="m90 175 1 3c-1.312 2.188-1.312 2.188-3 4h-2c.564-3.27 1.5-4.826 4-7"/></svg>