<?xml version="1.0" encoding="UTF-8"?>
<svg version="1.1" xmlns="http://www.w3.org/2000/svg" width="400" height="400">
<path d="M0 0 C1.21333763 -0.01475876 1.21333763 -0.01475876 2.45118713 -0.02981567 C36.27201414 -0.35610645 67.73493513 3.97047576 98.34765625 19.23828125 C99.08097168 19.60211914 99.81428711 19.96595703 100.56982422 20.34082031 C147.91677673 44.07099333 183.84376214 85.23423563 201.09765625 135.36328125 C206.63149997 152.11493097 210.4081986 170.21103329 210.5859375 187.890625 C210.59577667 188.69951675 210.60561584 189.50840851 210.61575317 190.34181213 C210.94204395 224.16263914 206.61546174 255.62556013 191.34765625 286.23828125 C190.98381836 286.97159668 190.61998047 287.70491211 190.24511719 288.46044922 C166.51494417 335.80740173 125.35170187 371.73438714 75.22265625 388.98828125 C58.4710613 394.52210688 40.37486565 398.29894556 22.6953125 398.4765625 C21.88628479 398.48635635 21.07725708 398.49615021 20.24371338 398.50624084 C1.95994467 398.68184877 -15.75544682 398.45952027 -33.65234375 394.23828125 C-34.56419434 394.02397461 -35.47604492 393.80966797 -36.41552734 393.58886719 C-85.51488404 381.60405353 -130.84861829 349.7943893 -157.5390625 306.66015625 C-174.95846522 277.64087791 -187.54633139 244.83263503 -187.890625 210.5859375 C-187.90046417 209.77704575 -187.91030334 208.96815399 -187.92044067 208.13475037 C-188.24673145 174.31392336 -183.92014924 142.85100237 -168.65234375 112.23828125 C-168.28850586 111.50496582 -167.92466797 110.77165039 -167.54980469 110.01611328 C-143.81963167 62.66916077 -102.65638937 26.74217536 -52.52734375 9.48828125 C-35.77569403 3.95443753 -17.67959171 0.1777389 0 0 Z " fill="#141414" transform="translate(188.65234375,0.76171875)"/>
<path d="M0 0 C15.84 0 31.68 0 48 0 C48 1.32 48 2.64 48 4 C46.35 4 44.7 4 43 4 C43 4.66 43 5.32 43 6 C44.32 6 45.64 6 47 6 C47.495 6.99 47.495 6.99 48 8 C48.99 8 49.98 8 51 8 C51.33 7.34 51.66 6.68 52 6 C52.99 6 53.98 6 55 6 C54.85046875 6.57492188 54.7009375 7.14984375 54.546875 7.7421875 C54.19988546 9.17475859 53.89271849 10.61803479 53.640625 12.0703125 C53.24341631 14.15963019 52.82199958 16.03585363 52 18 C49.375 19.5 49.375 19.5 47 20 C47.061875 21.258125 47.12375 22.51625 47.1875 23.8125 C47.20135719 27.75486951 47.20135719 27.75486951 45.5625 29.75 C45.046875 30.1625 44.53125 30.575 44 31 C43.28552357 33.10332891 43.28552357 33.10332891 43 35 C42.01 35 41.02 35 40 35 C40.2165625 34.2575 40.2165625 34.2575 40.4375 33.5 C41.22411325 30.0039411 41.64896287 26.56887748 42 23 C40.86492192 21.6378818 40.86492192 21.6378818 37.85717773 21.88647461 C36.46597303 21.88663367 35.07476239 21.89232494 33.68359375 21.90234375 C32.95253922 21.9037587 32.22148468 21.90517365 31.46827698 21.90663147 C29.12464368 21.91224592 26.78110461 21.92480078 24.4375 21.9375 C22.85221492 21.94251314 21.26692834 21.94707637 19.68164062 21.95117188 C15.7877239 21.96222003 11.89387795 21.97949428 8 22 C7.855625 22.969375 7.71125 23.93875 7.5625 24.9375 C7 28 7 28 6 29 C5.95936168 30.66617115 5.957279 32.33388095 6 34 C6.66 33.67 7.32 33.34 8 33 C10.6723621 32.86584528 13.32250488 32.95681459 16 33 C16.495 34.98 16.495 34.98 17 37 C16.01 37.33 15.02 37.66 14 38 C14.99 38.495 14.99 38.495 16 39 C15.54738642 40.43931117 15.08767021 41.87638999 14.625 43.3125 C14.24214844 44.51326172 14.24214844 44.51326172 13.8515625 45.73828125 C13 48 13 48 11 51 C10.34 51 9.68 51 9 51 C9 51.66 9 52.32 9 53 C8.25234375 53.04898438 7.5046875 53.09796875 6.734375 53.1484375 C5.74953125 53.22320312 4.7646875 53.29796875 3.75 53.375 C2.28820313 53.47941406 2.28820313 53.47941406 0.796875 53.5859375 C-1.93697207 53.99066905 -3.69881864 54.49214829 -6 56 C-6.72159424 57.64363134 -7.39351421 59.31050386 -8 61 C-8.99 61.495 -8.99 61.495 -10 62 C-10.72159424 63.64363134 -11.39351421 65.31050386 -12 67 C-12.66 67 -13.32 67 -14 67 C-14 67.66 -14 68.32 -14 69 C-17.3 69 -20.6 69 -24 69 C-24 68.01 -24 67.02 -24 66 C-26.97 66.495 -26.97 66.495 -30 67 C-29.67 65.02 -29.34 63.04 -29 61 C-28.34 61 -27.68 61 -27 61 C-26.896875 60.2575 -26.79375 59.515 -26.6875 58.75 C-26 56 -26 56 -24.578125 54.21484375 C-22.07773149 50.70562811 -21.30902986 46.69509825 -20.16015625 42.58203125 C-19 40 -19 40 -16.87109375 39.13671875 C-16.25363281 39.09160156 -15.63617188 39.04648438 -15 39 C-15.23203125 38.48695313 -15.4640625 37.97390625 -15.703125 37.4453125 C-16.15263815 33.74274362 -14.42579478 31.06229595 -12.75 27.875 C-12.43675781 27.24207031 -12.12351562 26.60914063 -11.80078125 25.95703125 C-10.13809994 22.70755865 -9.09267766 21.06178511 -6 19 C-5.73874946 17.04062094 -5.48532225 15.07886365 -5.31640625 13.109375 C-4.85888612 10.05924083 -3.52364066 7.64980984 -2 5 C-1.34 5 -0.68 5 0 5 C0 3.35 0 1.7 0 0 Z " fill="#181918" transform="translate(42,164)"/>
<path d="M0 0 C0.99 0.33 1.98 0.66 3 1 C3.33 4.63 3.66 8.26 4 12 C4.33 8.37 4.66 4.74 5 1 C6.65 0.67 8.3 0.34 10 0 C10 4.95 10 9.9 10 15 C10.66 15 11.32 15 12 15 C12 18.96 12 22.92 12 27 C10.35 27 8.7 27 7 27 C9.31 27.33 11.62 27.66 14 28 C14 24.37 14 20.74 14 17 C15.32 16.67 16.64 16.34 18 16 C18.08075665 18.29109597 18.13907731 20.58299267 18.1875 22.875 C18.23970703 24.78925781 18.23970703 24.78925781 18.29296875 26.7421875 C18.19628906 27.81726563 18.09960938 28.89234375 18 30 C15 32 15 32 12 32 C9.74772324 32.26960956 7.50123754 32.57089638 5.25390625 32.87890625 C2.93667012 33.00340247 1.20637845 32.67849907 -1 32 C-1.02698422 29.56242587 -1.04683099 27.12515085 -1.0625 24.6875 C-1.07087891 23.99720703 -1.07925781 23.30691406 -1.08789062 22.59570312 C-1.10307906 19.4516975 -1.00193327 17.00579981 0 14 C0.06970052 11.60509014 0.08448003 9.20832309 0.0625 6.8125 C0.05347656 5.54019531 0.04445313 4.26789063 0.03515625 2.95703125 C0.02355469 1.98121094 0.01195313 1.00539062 0 0 Z " fill="#2B282A" transform="translate(124,202)"/>
<path d="M0 0 C20.79 0 41.58 0 63 0 C63 1.32 63 2.64 63 4 C42.21 4 21.42 4 0 4 C0 2.68 0 1.36 0 0 Z " fill="#686868" transform="translate(183,164)"/>
<path d="M0 0 C0.99 0.33 1.98 0.66 3 1 C3 4.96 3 8.92 3 13 C3.99 13 4.98 13 6 13 C6.33 9.04 6.66 5.08 7 1 C7.99 0.67 8.98 0.34 10 0 C10.97960463 10.48930498 10.89571109 20.51329011 10 31 C9.01 31 8.02 31 7 31 C7 26.05 7 21.1 7 16 C5.68 16 4.36 16 3 16 C3 20.95 3 25.9 3 31 C1.68 31 0.36 31 -1 31 C-1.02465622 26.74585377 -1.04283899 22.49174502 -1.05493164 18.23754883 C-1.05997101 16.78929927 -1.06680253 15.34105483 -1.07543945 13.89282227 C-1.08752247 11.81525412 -1.09323211 9.73775303 -1.09765625 7.66015625 C-1.10289307 6.40855713 -1.10812988 5.15695801 -1.11352539 3.86743164 C-1 1 -1 1 0 0 Z " fill="#6B686A" transform="translate(124,169)"/>
<path d="M0 0 C15.84 0 31.68 0 48 0 C48 1.32 48 2.64 48 4 C32.16 4 16.32 4 0 4 C0 2.68 0 1.36 0 0 Z " fill="#686868" transform="translate(42,164)"/>
<path d="M0 0 C1.65 0.33 3.3 0.66 5 1 C5.02685412 3.31243792 5.04632841 5.6249627 5.0625 7.9375 C5.07410156 9.22527344 5.08570313 10.51304687 5.09765625 11.83984375 C5 15 5 15 4 16 C3.92686433 18.53049402 3.90752473 21.03304837 3.9375 23.5625 C3.94201172 24.27341797 3.94652344 24.98433594 3.95117188 25.71679688 C3.96299136 27.47790013 3.98092737 29.23896036 4 31 C2.68 30.67 1.36 30.34 0 30 C-0.33 26.7 -0.66 23.4 -1 20 C-3.1503279 20.80147125 -3.1503279 20.80147125 -3.74609375 22.8125 C-4.20679533 24.27008691 -4.66513229 25.72842334 -5.12109375 27.1875 C-5.41113281 27.785625 -5.70117188 28.38375 -6 29 C-6.99 29.33 -7.98 29.66 -9 30 C-8.25749403 25.91621717 -7.17076699 21.98060777 -6 18 C-4.68 17.67 -3.36 17.34 -2 17 C-2 16.01 -2 15.02 -2 14 C-1.34 14 -0.68 14 0 14 C0 9.38 0 4.76 0 0 Z " fill="#252627" transform="translate(286,169)"/>
<path d="M0 0 C2.97 0 5.94 0 9 0 C8.67 5.94 8.34 11.88 8 18 C7.34 18 6.68 18 6 18 C6.32742187 18.51046875 6.65484375 19.0209375 6.9921875 19.546875 C8.35648384 22.86772037 8.1912273 25.67372568 8.125 29.25 C8.10695312 30.51328125 8.08890625 31.7765625 8.0703125 33.078125 C8.04710937 34.04234375 8.02390625 35.0065625 8 36 C6.68 36 5.36 36 4 36 C4 30.72 4 25.44 4 20 C3.34 20 2.68 20 2 20 C2.14063135 17.70800823 2.28765943 15.41640814 2.4375 13.125 C2.51871094 11.84882813 2.59992188 10.57265625 2.68359375 9.2578125 C3 6 3 6 4 4 C2.68 4 1.36 4 0 4 C0 2.68 0 1.36 0 0 Z " fill="#524E52" transform="translate(182,181)"/>
<path d="M0 0 C1.32 0 2.64 0 4 0 C4 3.63 4 7.26 4 11 C5.44375 10.87625 6.8875 10.7525 8.375 10.625 C9.18710938 10.55539063 9.99921875 10.48578125 10.8359375 10.4140625 C13.20334191 10.17107412 13.20334191 10.17107412 15 8 C16.03842565 5.68351201 17.0421975 3.35096976 18 1 C18.66 1 19.32 1 20 1 C20.66 1.99 21.32 2.98 22 4 C22.33 4.33 22.66 4.66 23 5 C23.99 4.01 24.98 3.02 26 2 C26.75 3.5625 26.75 3.5625 27 6 C25.86915563 8.50286409 24.47860484 10.67007722 23 13 C22.01 13 21.02 13 20 13 C19.34 11.68 18.68 10.36 18 9 C17.48953125 9.81855469 16.9790625 10.63710937 16.453125 11.48046875 C14 14 14 14 10.546875 14.48828125 C7.03125 14.32552083 3.515625 14.16276042 0 14 C0 9.38 0 4.76 0 0 Z " fill="#656568" transform="translate(178,219)"/>
<path d="M0 0 C10.89 0 21.78 0 33 0 C33 1.32 33 2.64 33 4 C22.11 4 11.22 4 0 4 C0 2.68 0 1.36 0 0 Z " fill="#676767" transform="translate(299,164)"/>
<path d="M0 0 C0.66 0 1.32 0 2 0 C1.32038217 3.06178341 0.32027631 5.81597295 -0.9375 8.6875 C-1.27652344 9.47511719 -1.61554688 10.26273438 -1.96484375 11.07421875 C-3 13 -3 13 -5 14 C-7.40838678 14.08639869 -9.78733881 14.11567764 -12.1953125 14.09765625 C-12.90275604 14.0962413 -13.61019958 14.09482635 -14.33908081 14.09336853 C-16.60109669 14.087766 -18.86301398 14.07521318 -21.125 14.0625 C-22.65755065 14.05748532 -24.19010286 14.05292236 -25.72265625 14.04882812 C-29.48180888 14.03779577 -33.24088772 14.02052952 -37 14 C-37 13.01 -37 12.02 -37 11 C-26.44 10.67 -15.88 10.34 -5 10 C-3.68 7.03 -2.36 4.06 -1 1 C-0.67 0.67 -0.34 0.34 0 0 Z " fill="#747474" transform="translate(87,170)"/>
<path d="M0 0 C10.56 0 21.12 0 32 0 C32 1.32 32 2.64 32 4 C21.77 4 11.54 4 1 4 C0.67 2.68 0.34 1.36 0 0 Z " fill="#686868" transform="translate(253,164)"/>
<path d="M0 0 C3.3 0 6.6 0 10 0 C10 1.32 10 2.64 10 4 C10.99 4.33 11.98 4.66 13 5 C13 5.66 13 6.32 13 7 C13.66 7 14.32 7 15 7 C15.304 16.12 15.304 16.12 13 19 C9.38793506 20.66710689 4.88952631 20.06482544 1 20 C1 19.01 1 18.02 1 17 C8.75 16.875 8.75 16.875 11 18 C11.05399736 16.54207116 11.09279177 15.08357288 11.125 13.625 C11.15980469 12.40683594 11.15980469 12.40683594 11.1953125 11.1640625 C11.21370051 8.78657757 11.21370051 8.78657757 9 7 C9 6.01 9 5.02 9 4 C6.03 4 3.06 4 0 4 C0 2.68 0 1.36 0 0 Z " fill="#828282" transform="translate(151,181)"/>
<path d="M0 0 C8.25 0 16.5 0 25 0 C25 0.66 25 1.32 25 2 C23.68 2 22.36 2 21 2 C21 6.95 21 11.9 21 17 C20.01 17 19.02 17 18 17 C18 12.38 18 7.76 18 3 C15.7725 3.0309375 15.7725 3.0309375 13.5 3.0625 C8.9054504 3.06904494 4.54144993 2.6728074 0 2 C0 1.34 0 0.68 0 0 Z " fill="#707070" transform="translate(89,215)"/>
<path d="M0 0 C0.99 0.33 1.98 0.66 3 1 C3.19393875 3.14526099 3.37998676 5.29123677 3.5625 7.4375 C3.66691406 8.63246094 3.77132812 9.82742187 3.87890625 11.05859375 C3.91886719 12.02925781 3.95882812 12.99992188 4 14 C3.67 14.33 3.34 14.66 3 15 C2.76321284 17.69235776 2.57801975 20.36498156 2.4375 23.0625 C2.39431641 23.82111328 2.35113281 24.57972656 2.30664062 25.36132812 C2.20026367 27.24065438 2.09960066 29.12030244 2 31 C1.01 31 0.02 31 -1 31 C-1.02465622 26.74585377 -1.04283899 22.49174502 -1.05493164 18.23754883 C-1.05997101 16.78929927 -1.06680253 15.34105483 -1.07543945 13.89282227 C-1.08752247 11.81525412 -1.09323211 9.73775303 -1.09765625 7.66015625 C-1.10289307 6.40855713 -1.10812988 5.15695801 -1.11352539 3.86743164 C-1 1 -1 1 0 0 Z " fill="#757273" transform="translate(124,169)"/>
<path d="M0 0 C0.99 0 1.98 0 3 0 C3 2.31 3 4.62 3 7 C5.28705831 8.14352916 6.59264762 8.10334439 9.125 8.0625 C10.40375 8.041875 11.6825 8.02125 13 8 C13.45375 6.865625 13.9075 5.73125 14.375 4.5625 C16 1 16 1 18 0 C17.49890261 5.26152256 15.79035827 9.20964173 12 13 C10.48071962 13.07179964 8.95832518 13.08392007 7.4375 13.0625 C6.61121094 13.05347656 5.78492188 13.04445312 4.93359375 13.03515625 C4.29550781 13.02355469 3.65742188 13.01195312 3 13 C2.67 11.35 2.34 9.7 2 8 C0.35 8.66 -1.3 9.32 -3 10 C-2.01 6.7 -1.02 3.4 0 0 Z " fill="#535352" transform="translate(288,221)"/>
<path d="M0 0 C0.99 0 1.98 0 3 0 C2.85046875 0.57492188 2.7009375 1.14984375 2.546875 1.7421875 C2.19988546 3.17475859 1.89271849 4.61803479 1.640625 6.0703125 C1.24341631 8.15963019 0.82199958 10.03585363 0 12 C-2.625 13.5 -2.625 13.5 -5 14 C-4.9071875 15.8871875 -4.9071875 15.8871875 -4.8125 17.8125 C-4.79864281 21.75486951 -4.79864281 21.75486951 -6.4375 23.75 C-6.953125 24.1625 -7.46875 24.575 -8 25 C-8.71447643 27.10332891 -8.71447643 27.10332891 -9 29 C-9.99 29 -10.98 29 -12 29 C-11.855625 28.505 -11.71125 28.01 -11.5625 27.5 C-10.56271522 23.0565121 -10 18.55842998 -10 14 C-9.34 14 -8.68 14 -8 14 C-7.731875 13.360625 -7.46375 12.72125 -7.1875 12.0625 C-6 10 -6 10 -3 9 C-1.97718482 6.90280128 -1.97718482 6.90280128 -1.3125 4.4375 C-1.06113281 3.61121094 -0.80976562 2.78492188 -0.55078125 1.93359375 C-0.36902344 1.29550781 -0.18726562 0.65742188 0 0 Z " fill="#2A2A2A" transform="translate(94,170)"/>
<path d="M0 0 C0.99 0.33 1.98 0.66 3 1 C3.33 3.97 3.66 6.94 4 10 C4.66 8.68 5.32 7.36 6 6 C6.66 6 7.32 6 8 6 C8.33 4.35 8.66 2.7 9 1 C9.66 1 10.32 1 11 1 C10.79905835 2.96143041 10.56328747 4.91931791 10.3125 6.875 C10.12107422 8.51082031 10.12107422 8.51082031 9.92578125 10.1796875 C9 13 9 13 6.66796875 14.4453125 C4 15 4 15 0 14 C0 9.38 0 4.76 0 0 Z " fill="#5C5B5B" transform="translate(202,203)"/>
<path d="M0 0 C0.28875 0.639375 0.5775 1.27875 0.875 1.9375 C1.82823451 4.15206079 1.82823451 4.15206079 4 5 C4 4.01 4 3.02 4 2 C4.66 2 5.32 2 6 2 C6.43200679 6.75207471 4.98489083 9.78210698 3 14 C1.68 14 0.36 14 -1 14 C-0.67 11.03 -0.34 8.06 0 5 C-0.66 5 -1.32 5 -2 5 C-2.268125 5.94875 -2.53625 6.8975 -2.8125 7.875 C-4 11 -4 11 -7 13 C-6.40164922 8.81154456 -5.5586679 4.94251293 -4 1 C-2 0 -2 0 0 0 Z " fill="#2E2E2E" transform="translate(246,169)"/>
<path d="M0 0 C0.33 0 0.66 0 1 0 C1 3.96 1 7.92 1 12 C1.66 12 2.32 12 3 12 C5.37590142 15.70416126 5.20500286 18.92984573 5.125 23.25 C5.10695312 24.51328125 5.08890625 25.7765625 5.0703125 27.078125 C5.04710937 28.04234375 5.02390625 29.0065625 5 30 C3.68 30 2.36 30 1 30 C1 24.72 1 19.44 1 14 C0.34 14 -0.32 14 -1 14 C-0.67 9.38 -0.34 4.76 0 0 Z " fill="#4B474A" transform="translate(185,187)"/>
<path d="M0 0 C0.99 0.33 1.98 0.66 3 1 C1.35 4.3 -0.3 7.6 -2 11 C-2.66 11 -3.32 11 -4 11 C-4 11.66 -4 12.32 -4 13 C-9.61 13 -15.22 13 -21 13 C-20.67 12.01 -20.34 11.02 -20 10 C-14.72 10 -9.44 10 -4 10 C-3.34 8.02 -2.68 6.04 -2 4 C-1.36184656 2.65278717 -0.70674629 1.31252882 0 0 Z " fill="#7F807F" transform="translate(55,204)"/>
<path d="M0 0 C0.66 0 1.32 0 2 0 C1.49073596 4.37967072 0.59292635 7.40979428 -2 11 C-5.79163027 13.52775351 -8.80874031 13.22443035 -13.1875 13.125 C-13.93708984 13.11597656 -14.68667969 13.10695312 -15.45898438 13.09765625 C-17.30612654 13.07412578 -19.15310412 13.03825561 -21 13 C-21 12.01 -21 11.02 -21 10 C-15.39 10 -9.78 10 -4 10 C-3.525625 8.535625 -3.05125 7.07125 -2.5625 5.5625 C-1.125 1.125 -1.125 1.125 0 0 Z " fill="#737372" transform="translate(227,171)"/>
<path d="M0 0 C0.99 0 1.98 0 3 0 C3 4.62 3 9.24 3 14 C3.66 14 4.32 14 5 14 C5 13.34 5 12.68 5 12 C7.64 12 10.28 12 13 12 C13 12.99 13 13.98 13 15 C11.58456585 15.19658808 10.16755969 15.38187546 8.75 15.5625 C7.96109375 15.66691406 7.1721875 15.77132812 6.359375 15.87890625 C4 16 4 16 0 15 C0 10.05 0 5.1 0 0 Z " fill="#797778" transform="translate(123,219)"/>
<path d="M0 0 C2.97 0 5.94 0 9 0 C9 0.99 9 1.98 9 3 C8.34 3 7.68 3 7 3 C7 7.95 7 12.9 7 18 C6.01 18 5.02 18 4 18 C4 13.38 4 8.76 4 4 C2.68 3.67 1.36 3.34 0 3 C0 2.01 0 1.02 0 0 Z " fill="#67676A" transform="translate(338,165)"/>
<path d="M0 0 C0.66 0 1.32 0 2 0 C1.34 2.97 0.68 5.94 0 9 C-0.66 9 -1.32 9 -2 9 C-2 9.99 -2 10.98 -2 12 C-5.08888522 14.05925681 -5.70935927 14.2390374 -9.1875 14.125 C-11.0746875 14.063125 -11.0746875 14.063125 -13 14 C-13 12.68 -13 11.36 -13 10 C-10.03 10 -7.06 10 -4 10 C-4 9.01 -4 8.02 -4 7 C-3.34 7 -2.68 7 -2 7 C-1.855625 6.030625 -1.71125 5.06125 -1.5625 4.0625 C-1 1 -1 1 0 0 Z " fill="#5D5D5D" transform="translate(305,187)"/>
<path d="M0 0 C0.99 0.33 1.98 0.66 3 1 C3.94921875 3.06640625 3.94921875 3.06640625 4.6875 5.5625 C4.93886719 6.38878906 5.19023437 7.21507812 5.44921875 8.06640625 C5.63097656 8.70449219 5.81273437 9.34257812 6 10 C8.97 10 11.94 10 15 10 C15 11.32 15 12.64 15 14 C11.87407393 14.49034134 9.10677326 14.67651679 6 14 C2.0239505 10.27419138 0.40163909 5.35518785 0 0 Z " fill="#666665" transform="translate(153,220)"/>
<path d="M0 0 C2 2 2 2 2.23046875 4.3125 C2.21628906 5.199375 2.20210937 6.08625 2.1875 7 C2.18105469 7.886875 2.17460937 8.77375 2.16796875 9.6875 C2 12 2 12 1 14 C1.66 14.33 2.32 14.66 3 15 C2.67 15.33 2.34 15.66 2 16 C1.76518307 18.18292774 1.58636677 20.37203174 1.4375 22.5625 C1.31181641 24.35880859 1.31181641 24.35880859 1.18359375 26.19140625 C1.12300781 27.11824219 1.06242188 28.04507813 1 29 C-2.03598256 25.96401744 -1.43778097 22.68216153 -1.65625 18.53125 C-1.76238675 15.83393203 -1.76238675 15.83393203 -4 14 C-3.34 13.67 -2.68 13.34 -2 13 C-1.30662208 9.9600352 -1.30662208 9.9600352 -0.875 6.4375 C-0.70742187 5.23996094 -0.53984375 4.04242188 -0.3671875 2.80859375 C-0.24601562 1.88175781 -0.12484375 0.95492187 0 0 Z " fill="#0C0B0D" transform="translate(128,187)"/>
<path d="M0 0 C10.89 0 21.78 0 33 0 C33 0.33 33 0.66 33 1 C29.28111134 1.8632601 25.85703512 2.11721556 22.04296875 2.09765625 C20.93115234 2.09443359 19.81933594 2.09121094 18.67382812 2.08789062 C17.52333984 2.07951172 16.37285156 2.07113281 15.1875 2.0625 C13.43276367 2.05573242 13.43276367 2.05573242 11.64257812 2.04882812 C8.76166642 2.0370693 5.88085956 2.02063426 3 2 C2.67 2.99 2.34 3.98 2 5 C1.34 3.35 0.68 1.7 0 0 Z " fill="#0B0B0A" transform="translate(49,185)"/>
<path d="M0 0 C0.99 0 1.98 0 3 0 C2.01 3.3 1.02 6.6 0 10 C-0.99 10 -1.98 10 -3 10 C-3.33 10.99 -3.66 11.98 -4 13 C-6.64 13 -9.28 13 -12 13 C-12 11.68 -12 10.36 -12 9 C-9.03 9 -6.06 9 -3 9 C-2.01 6.03 -1.02 3.06 0 0 Z " fill="#696969" transform="translate(265,221)"/>
<path d="M0 0 C1.32 0 2.64 0 4 0 C4 4.62 4 9.24 4 14 C2.68 14.33 1.36 14.66 0 15 C0 10.05 0 5.1 0 0 Z " fill="#636165" transform="translate(178,185)"/>
<path d="M0 0 C0.99 0 1.98 0 3 0 C3 4.95 3 9.9 3 15 C1.68 15 0.36 15 -1 15 C-1.02685412 12.68756208 -1.04632841 10.3750373 -1.0625 8.0625 C-1.07410156 6.77472656 -1.08570313 5.48695313 -1.09765625 4.16015625 C-1 1 -1 1 0 0 Z " fill="#5D5D5D" transform="translate(147,185)"/>
<path d="M0 0 C-0.6079498 4.13405862 -1.90962447 7.38204235 -4 11 C-7.08888522 13.05925681 -7.70935927 13.2390374 -11.1875 13.125 C-13.0746875 13.063125 -13.0746875 13.063125 -15 13 C-15 12.01 -15 11.02 -15 10 C-12.36 9.67 -9.72 9.34 -7 9 C-6.80664062 8.43410156 -6.61328125 7.86820313 -6.4140625 7.28515625 C-6.15367187 6.55167969 -5.89328125 5.81820312 -5.625 5.0625 C-5.36976563 4.33160156 -5.11453125 3.60070312 -4.8515625 2.84765625 C-3.69201147 0.33174967 -2.72825565 0 0 0 Z " fill="#6E6E6E" transform="translate(268,171)"/>
<path d="M0 0 C1.32 0 2.64 0 4 0 C4 4.62 4 9.24 4 14 C2.68 14 1.36 14 0 14 C0 9.38 0 4.76 0 0 Z " fill="#636363" transform="translate(107,186)"/>
<path d="M0 0 C0.66 0 1.32 0 2 0 C2.66 0.99 3.32 1.98 4 3 C4.33 3.33 4.66 3.66 5 4 C5.99 3.01 6.98 2.02 8 1 C8.75 2.5625 8.75 2.5625 9 5 C7.86915563 7.50286409 6.47860484 9.67007722 5 12 C4.01 12 3.02 12 2 12 C0.86235649 7.73383684 0 4.43513689 0 0 Z " fill="#2E2D2E" transform="translate(196,220)"/>
<path d="M0 0 C0.99 0 1.98 0 3 0 C2.49073596 4.37967072 1.59292635 7.40979428 -1 11 C-4.08888522 13.05925681 -4.70935927 13.2390374 -8.1875 13.125 C-10.0746875 13.063125 -10.0746875 13.063125 -12 13 C-12 12.34 -12 11.68 -12 11 C-9.36 11 -6.72 11 -4 11 C-3.71125 9.9275 -3.4225 8.855 -3.125 7.75 C-2.27179891 4.90599636 -1.4363497 2.56491017 0 0 Z " fill="#8B8C8B" transform="translate(359,220)"/>
<path d="M0 0 C3.3 0 6.6 0 10 0 C10 1.32 10 2.64 10 4 C10.99 4.33 11.98 4.66 13 5 C12.01 5.495 12.01 5.495 11 6 C10.67 6.66 10.34 7.32 10 8 C9.67 6.68 9.34 5.36 9 4 C6.03 4 3.06 4 0 4 C0 2.68 0 1.36 0 0 Z " fill="#2A2A2A" transform="translate(151,181)"/>
<path d="M0 0 C0.66 0 1.32 0 2 0 C2 1.65 2 3.3 2 5 C1.34 5 0.68 5 0 5 C-0.1546875 6.175625 -0.1546875 6.175625 -0.3125 7.375 C-1 10 -1 10 -4 12 C-6.04296875 12.1953125 -6.04296875 12.1953125 -8.1875 12.125 C-10.0746875 12.063125 -10.0746875 12.063125 -12 12 C-12 11.34 -12 10.68 -12 10 C-10.14375 10.0309375 -10.14375 10.0309375 -8.25 10.0625 C-6.02444207 9.91757019 -6.02444207 9.91757019 -4 9 C-2.0701169 6.19000537 -0.99681324 3.24620101 0 0 Z " fill="#7D7D7D" transform="translate(359,188)"/>
<path d="M0 0 C0.66 0 1.32 0 2 0 C1.7579806 4.11432986 1.32870991 6.5318374 -1.0625 9.9375 C-5.0429561 12.73228833 -7.22551748 12.40461716 -12 12 C-12 11.34 -12 10.68 -12 10 C-9.36 10 -6.72 10 -4 10 C-3.79503906 9.36191406 -3.59007813 8.72382813 -3.37890625 8.06640625 C-3.10949219 7.24011719 -2.84007813 6.41382813 -2.5625 5.5625 C-2.16224609 4.32693359 -2.16224609 4.32693359 -1.75390625 3.06640625 C-1 1 -1 1 0 0 Z " fill="#878787" transform="translate(86,221)"/>
<path d="M0 0 C0.99 0 1.98 0 3 0 C3 4.95 3 9.9 3 15 C2.01 15 1.02 15 0 15 C0 10.05 0 5.1 0 0 Z " fill="#808080" transform="translate(248,202)"/>
<path d="M0 0 C0.66 0 1.32 0 2 0 C1.39053099 3.55523589 0.58244911 6.74718795 -1 10 C-4.08888522 12.05925681 -4.70935927 12.2390374 -8.1875 12.125 C-10.0746875 12.063125 -10.0746875 12.063125 -12 12 C-12 11.34 -12 10.68 -12 10 C-9.36 10 -6.72 10 -4 10 C-3.34 7.69 -2.68 5.38 -2 3 C-1.34 3 -0.68 3 0 3 C0 2.01 0 1.02 0 0 Z " fill="#898888" transform="translate(250,221)"/>
<path d="M0 0 C0.66 0 1.32 0 2 0 C2.08075665 2.29109597 2.13907731 4.58299267 2.1875 6.875 C2.22230469 8.15117187 2.25710937 9.42734375 2.29296875 10.7421875 C2.19628906 11.81726563 2.09960938 12.89234375 2 14 C1.01 14.66 0.02 15.32 -1 16 C-1.02685095 13.52076199 -1.04676547 11.0418116 -1.0625 8.5625 C-1.07506836 7.50192383 -1.07506836 7.50192383 -1.08789062 6.41992188 C-1.09653588 4.61306441 -1.05220011 2.80612397 -1 1 C-0.67 0.67 -0.34 0.34 0 0 Z " fill="#747474" transform="translate(140,218)"/>
<path d="M0 0 C0.99 0 1.98 0 3 0 C3 4.95 3 9.9 3 15 C2.01 14.67 1.02 14.34 0 14 C0 9.38 0 4.76 0 0 Z " fill="#838185" transform="translate(131,202)"/>
<path d="M0 0 C0.99 0 1.98 0 3 0 C3 4.62 3 9.24 3 14 C2.01 14 1.02 14 0 14 C0 9.38 0 4.76 0 0 Z " fill="#818483" transform="translate(287,186)"/>
<path d="M0 0 C0.99 0 1.98 0 3 0 C3 4.62 3 9.24 3 14 C2.01 13.67 1.02 13.34 0 13 C0 8.71 0 4.42 0 0 Z " fill="#787576" transform="translate(232,219)"/>
<path d="M0 0 C0.66 0 1.32 0 2 0 C2 4.62 2 9.24 2 14 C1.01 14 0.02 14 -1 14 C-1.02685938 11.85423363 -1.04633088 9.70837355 -1.0625 7.5625 C-1.07410156 6.36753906 -1.08570313 5.17257813 -1.09765625 3.94140625 C-1 1 -1 1 0 0 Z " fill="#7B7577" transform="translate(233,202)"/>
<path d="M0 0 C0.99 0.33 1.98 0.66 3 1 C2.34 2.65 1.68 4.3 1 6 C-1.64 6 -4.28 6 -7 6 C-7 6.66 -7 7.32 -7 8 C-4.69 8 -2.38 8 0 8 C0 8.33 0 8.66 0 9 C-2.64 9 -5.28 9 -8 9 C-8 7.68 -8 6.36 -8 5 C-2.25 2 -2.25 2 0 2 C0 1.34 0 0.68 0 0 Z " fill="#2A2A2B" transform="translate(354,192)"/>
<path d="M0 0 C0.33 0.99 0.66 1.98 1 3 C6.61 3.33 12.22 3.66 18 4 C16 6 16 6 12.5234375 6.1953125 C11.14049032 6.18201493 9.75761346 6.15816232 8.375 6.125 C7.66859375 6.11597656 6.9621875 6.10695312 6.234375 6.09765625 C4.48943902 6.07407603 2.74467705 6.03820461 1 6 C1 5.34 1 4.68 1 4 C0.34 3.67 -0.32 3.34 -1 3 C-0.67 2.01 -0.34 1.02 0 0 Z " fill="#0C0B0A" transform="translate(204,181)"/>
<path d="M0 0 C0.99 0 1.98 0 3 0 C3 4.29 3 8.58 3 13 C2.01 13 1.02 13 0 13 C0 8.71 0 4.42 0 0 Z " fill="#888889" transform="translate(287,170)"/>
<path d="M0 0 C2.97 0 5.94 0 9 0 C9 1.32 9 2.64 9 4 C6.03 4 3.06 4 0 4 C0 2.68 0 1.36 0 0 Z " fill="#5F5F5F" transform="translate(151,213)"/>
<path d="M0 0 C0.66 0 1.32 0 2 0 C1.53199289 4.05606165 1.12046792 7.46588679 -1 11 C-1.99 11 -2.98 11 -4 11 C-3.71758359 9.53984709 -3.42373386 8.08190207 -3.125 6.625 C-2.96257812 5.81289062 -2.80015625 5.00078125 -2.6328125 4.1640625 C-2 2 -2 2 0 0 Z " fill="#707070" transform="translate(266,187)"/>
<path d="M0 0 C1.32 0.33 2.64 0.66 4 1 C4.99 4.63 5.98 8.26 7 12 C3 11 3 11 1.953125 9.2578125 C1.72109375 8.55398437 1.4890625 7.85015625 1.25 7.125 C1.00765625 6.42632812 0.7653125 5.72765625 0.515625 5.0078125 C0 3 0 3 0 0 Z " fill="#727272" transform="translate(168,170)"/>
<path d="M0 0 C0.66 0 1.32 0 2 0 C1.33501617 4.38889325 -0.18757677 7.9811485 -2 12 C-2.99 12 -3.98 12 -5 12 C-4.47731534 9.23723823 -3.89130413 6.6739124 -3 4 C-2.34 4 -1.68 4 -1 4 C-0.67 2.68 -0.34 1.36 0 0 Z " fill="#717372" transform="translate(48,187)"/>
<path d="M0 0 C0.66 0 1.32 0 2 0 C2 1.98 2 3.96 2 6 C1.34 6 0.68 6 0 6 C-0.66 7.65 -1.32 9.3 -2 11 C-2.66 11 -3.32 11 -4 11 C-3.39301257 6.87248551 -1.96189209 3.6678852 0 0 Z " fill="#757575" transform="translate(71,220)"/>
<path d="M0 0 C0.33 0 0.66 0 1 0 C1 1.65 1 3.3 1 5 C3.97 5.495 3.97 5.495 7 6 C7 6.99 7 7.98 7 9 C4.36 9 1.72 9 -1 9 C-1.09765625 2.84765625 -1.09765625 2.84765625 -1 1 C-0.67 0.67 -0.34 0.34 0 0 Z " fill="#5B5B5B" transform="translate(114,224)"/>
<path d="M0 0 C0.99 0 1.98 0 3 0 C3 0.99 3 1.98 3 3 C2.34 3 1.68 3 1 3 C0.87625 3.7425 0.7525 4.485 0.625 5.25 C0.04513299 7.80141485 -0.73708739 9.7267573 -2 12 C-2.66 12 -3.32 12 -4 12 C-3.33501617 7.61110675 -1.81242323 4.0188515 0 0 Z " fill="#757575" transform="translate(297,170)"/>
<path d="M0 0 C0.99 0 1.98 0 3 0 C2.44894091 3.9492568 1.61064629 7.34920174 0 11 C-0.99 11 -1.98 11 -3 11 C-2.44894091 7.0507432 -1.61064629 3.65079826 0 0 Z " fill="#777878" transform="translate(23,204)"/>
<path d="M0 0 C0.99 0 1.98 0 3 0 C1.25 7.625 1.25 7.625 -1 11 C-1.66 11 -2.32 11 -3 11 C-2.53199289 6.94393835 -2.12046792 3.53411321 0 0 Z " fill="#787878" transform="translate(101,188)"/>
<path d="M0 0 C0.66 0 1.32 0 2 0 C1.53199289 4.05606165 1.12046792 7.46588679 -1 11 C-1.99 11 -2.98 11 -4 11 C-3.67 9.02 -3.34 7.04 -3 5 C-2.34 5 -1.68 5 -1 5 C-0.67 3.35 -0.34 1.7 0 0 Z " fill="#777777" transform="translate(16,220)"/>
<path d="M0 0 C-0.78318689 3.91593446 -2.39179858 7.36406635 -4 11 C-4.99 11 -5.98 11 -7 11 C-6.55123384 9.35153231 -6.09069512 7.70626545 -5.625 6.0625 C-5.36976563 5.14597656 -5.11453125 4.22945312 -4.8515625 3.28515625 C-3.77874192 0.406257 -3.04027387 0 0 0 Z " fill="#7A7A7A" transform="translate(276,204)"/>
<path d="M0 0 C0.99 0 1.98 0 3 0 C2.67 1.98 2.34 3.96 2 6 C1.34 6 0.68 6 0 6 C0 7.32 0 8.64 0 10 C-0.99 10.33 -1.98 10.66 -3 11 C-2.53199289 6.94393835 -2.12046792 3.53411321 0 0 Z " fill="#797A79" transform="translate(31,188)"/>
<path d="M0 0 C0.66 0 1.32 0 2 0 C1.44894091 3.9492568 0.61064629 7.34920174 -1 11 C-1.99 11 -2.98 11 -4 11 C-3.49357808 6.64477147 -2.61588503 3.55760365 0 0 Z " fill="#7B7B7B" transform="translate(320,188)"/>
<path d="M0 0 C0.99 0 1.98 0 3 0 C2.39294514 4.12797305 1.06000669 7.37438822 -1 11 C-1.99 11.495 -1.99 11.495 -3 12 C-2.68950274 10.56206608 -2.3765224 9.1246682 -2.0625 7.6875 C-1.88847656 6.88699219 -1.71445312 6.08648437 -1.53515625 5.26171875 C-1 3 -1 3 0 0 Z " fill="#767776" transform="translate(39,170)"/>
<path d="M0 0 C0.99 0 1.98 0 3 0 C2.57781184 1.6498275 2.13675575 3.29483665 1.6875 4.9375 C1.44386719 5.85402344 1.20023437 6.77054688 0.94921875 7.71484375 C0.63597656 8.46894531 0.32273437 9.22304687 0 10 C-0.99 10.33 -1.98 10.66 -3 11 C-2.44894091 7.0507432 -1.61064629 3.65079826 0 0 Z " fill="#7A7A7A" transform="translate(296,204)"/>
<path d="M0 0 C0.66 0.33 1.32 0.66 2 1 C2 5.29 2 9.58 2 14 C1.01 14 0.02 14 -1 14 C-1.02694851 12.04174127 -1.04637218 10.08337774 -1.0625 8.125 C-1.07410156 7.03445312 -1.08570312 5.94390625 -1.09765625 4.8203125 C-1 2 -1 2 0 0 Z " fill="#0D0C0C" transform="translate(128,168)"/>
<path d="M0 0 C0.99 0 1.98 0 3 0 C2.43697042 3.94120709 1.3208055 6.7508723 -1 10 C-1.66 10 -2.32 10 -3 10 C-2.01 6.7 -1.02 3.4 0 0 Z " fill="#7A7A7A" transform="translate(78,204)"/>
<path d="M0 0 C0.66 0 1.32 0 2 0 C1.32829194 3.8063457 0.27253436 7.35206816 -1 11 C-1.99 11 -2.98 11 -4 11 C-3.49357808 6.64477147 -2.61588503 3.55760365 0 0 Z " fill="#7F7D7E" transform="translate(227,204)"/>
<path d="M0 0 C0.66 0 1.32 0 2 0 C1.67 2.31 1.34 4.62 1 7 C0.34 7 -0.32 7 -1 7 C-1 8.32 -1 9.64 -1 11 C-1.99 11 -2.98 11 -4 11 C-3.67 9.02 -3.34 7.04 -3 5 C-2.34 5 -1.68 5 -1 5 C-0.67 3.35 -0.34 1.7 0 0 Z " fill="#7B7B7B" transform="translate(211,204)"/>
<path d="M0 0 C0.99 0.33 1.98 0.66 3 1 C2.40917986 2.48454806 1.80187345 3.96254351 1.1875 5.4375 C0.85105469 6.26121094 0.51460938 7.08492187 0.16796875 7.93359375 C-1 10 -1 10 -4 11 C-3.39301257 6.87248551 -1.96189209 3.6678852 0 0 Z " fill="#7B7F7E" transform="translate(281,188)"/>
<path d="M0 0 C0.66 0 1.32 0 2 0 C1.34 2.97 0.68 5.94 0 9 C-0.66 9 -1.32 9 -2 9 C-2 9.66 -2 10.32 -2 11 C-2.66 11 -3.32 11 -4 11 C-4 9.68 -4 8.36 -4 7 C-3.34 7 -2.68 7 -2 7 C-1.855625 6.030625 -1.71125 5.06125 -1.5625 4.0625 C-1 1 -1 1 0 0 Z " fill="#7E7E7E" transform="translate(305,187)"/>
<path d="M0 0 C0.66 0 1.32 0 2 0 C1.69078116 1.45903258 1.37751201 2.91720722 1.0625 4.375 C0.88847656 5.18710938 0.71445312 5.99921875 0.53515625 6.8359375 C0 9 0 9 -1 11 C-1.99 11 -2.98 11 -4 11 C-3.5247412 9.35303396 -3.04468109 7.70745272 -2.5625 6.0625 C-2.29566406 5.14597656 -2.02882813 4.22945312 -1.75390625 3.28515625 C-1 1 -1 1 0 0 Z " fill="#7A7A7A" transform="translate(375,187)"/>
<path d="M0 0 C3 1 3 1 4.6875 4.375 C6 8 6 8 6 11 C5.01 10.67 4.02 10.34 3 10 C1.25327015 6.5065403 0 3.93154432 0 0 Z " fill="#7D7D7B" transform="translate(153,220)"/>
<path d="M0 0 C0.66 0 1.32 0 2 0 C1.32829194 3.8063457 0.27253436 7.35206816 -1 11 C-1.99 11 -2.98 11 -4 11 C-3.49357808 6.64477147 -2.61588503 3.55760365 0 0 Z " fill="#7C7C7C" transform="translate(328,204)"/>
<path d="M0 0 C0.33 0 0.66 0 1 0 C1 4.29 1 8.58 1 13 C0.34 12.34 -0.32 11.68 -1 11 C-1 9.68 -1 8.36 -1 7 C-1.66 7 -2.32 7 -3 7 C-3 6.01 -3 5.02 -3 4 C-2.34 4 -1.68 4 -1 4 C-0.67 2.68 -0.34 1.36 0 0 Z " fill="#090713" transform="translate(340,187)"/>
<path d="M0 0 C1.04449911 3.13349732 0.93423645 3.98968256 0 7 C-0.66 7 -1.32 7 -2 7 C-2 8.32 -2 9.64 -2 11 C-2.99 11 -3.98 11 -5 11 C-4.54917531 9.53932801 -4.08906463 8.08151968 -3.625 6.625 C-3.36976563 5.81289062 -3.11453125 5.00078125 -2.8515625 4.1640625 C-2 2 -2 2 0 0 Z " fill="#7F7F7D" transform="translate(321,171)"/>
<path d="M0 0 C0.99 0 1.98 0 3 0 C2.57742724 1.4835001 2.13643678 2.96176424 1.6875 4.4375 C1.44386719 5.26121094 1.20023437 6.08492187 0.94921875 6.93359375 C0.63597656 7.61550781 0.32273437 8.29742187 0 9 C-0.99 9.33 -1.98 9.66 -3 10 C-2.01 6.7 -1.02 3.4 0 0 Z " fill="#7B7C7C" transform="translate(288,221)"/>
<path d="M0 0 C1 3 1 3 -0.25 6.625 C-2 10 -2 10 -5 11 C-4.54917531 9.53932801 -4.08906463 8.08151968 -3.625 6.625 C-3.36976563 5.81289062 -3.11453125 5.00078125 -2.8515625 4.1640625 C-2 2 -2 2 0 0 Z " fill="#808080" transform="translate(220,220)"/>
<path d="M0 0 C8.57142857 -0.28571429 8.57142857 -0.28571429 12 2 C8.0186217 3.3271261 4.14954773 3.06915913 0 3 C0 2.01 0 1.02 0 0 Z " fill="#646464" transform="translate(152,198)"/>
<path d="M0 0 C1.04449911 3.13349732 0.93423645 3.98968256 0 7 C-0.66 7 -1.32 7 -2 7 C-2.33 8.32 -2.66 9.64 -3 11 C-3.66 11 -4.32 11 -5 11 C-4.67 9.02 -4.34 7.04 -4 5 C-3.34 5 -2.68 5 -2 5 C-2 3.68 -2 2.36 -2 1 C-1.34 0.67 -0.68 0.34 0 0 Z " fill="#828282" transform="translate(220,187)"/>
<path d="M0 0 C0.66 0 1.32 0 2 0 C2.33 3.63 2.66 7.26 3 11 C2.01 11.33 1.02 11.66 0 12 C-1.46726798 8.18510326 -0.43336419 5.70988378 1 2 C0.34 1.67 -0.32 1.34 -1 1 C-0.67 0.67 -0.34 0.34 0 0 Z " fill="#202020" transform="translate(103,186)"/>
<path d="M0 0 C0.99 0 1.98 0 3 0 C2.67 1.98 2.34 3.96 2 6 C1.34 6 0.68 6 0 6 C-0.12375 6.639375 -0.2475 7.27875 -0.375 7.9375 C-0.58125 8.618125 -0.7875 9.29875 -1 10 C-1.99 10.495 -1.99 10.495 -3 11 C-2.67 8.69 -2.34 6.38 -2 4 C-1.34 4 -0.68 4 0 4 C0 2.68 0 1.36 0 0 Z " fill="#818181" transform="translate(335,188)"/>
<path d="M0 0 C0.66 0 1.32 0 2 0 C1.32829194 3.8063457 0.27253436 7.35206816 -1 11 C-1.99 11 -2.98 11 -4 11 C-3.34 8.36 -2.68 5.72 -2 3 C-1.34 3 -0.68 3 0 3 C0 2.01 0 1.02 0 0 Z " fill="#808080" transform="translate(367,171)"/>
<path d="M0 0 C0.66 0 1.32 0 2 0 C1.52651586 4.1666604 0.95303159 6.92884715 -2 10 C-2.66 10 -3.32 10 -4 10 C-3.52449439 8.51965236 -3.04448784 7.04074979 -2.5625 5.5625 C-2.29566406 4.73878906 -2.02882812 3.91507813 -1.75390625 3.06640625 C-1 1 -1 1 0 0 Z " fill="#828282" transform="translate(227,171)"/>
<path d="M0 0 C0.99 0 1.98 0 3 0 C2 4 2 4 1 8 C0.34 8 -0.32 8 -1 8 C-1.33 8.99 -1.66 9.98 -2 11 C-2.66 10.67 -3.32 10.34 -4 10 C-2.68 6.7 -1.36 3.4 0 0 Z " fill="#787878" transform="translate(94,170)"/>
<path d="M0 0 C0.99 0.33 1.98 0.66 3 1 C2.625 3.9375 2.625 3.9375 2 7 C1.01 7.495 1.01 7.495 0 8 C-0.33 7.01 -0.66 6.02 -1 5 C-1.99 5.66 -2.98 6.32 -4 7 C-3.39816251 4.97954558 -2.72693904 2.97888961 -2 1 C-1.34 0.67 -0.68 0.34 0 0 Z " fill="#262626" transform="translate(90,172)"/>
<path d="M0 0 C0.99 0 1.98 0 3 0 C2.01 3.3 1.02 6.6 0 10 C-0.99 10 -1.98 10 -3 10 C-2.49287967 6.28111761 -1.88391785 3.26545761 0 0 Z " fill="#828282" transform="translate(343,221)"/>
<path d="M0 0 C0.66 0 1.32 0 2 0 C1.11223998 3.69900008 0.05418136 7.34550461 -1 11 C-1.99 11 -2.98 11 -4 11 C-3.39301257 6.87248551 -1.96189209 3.6678852 0 0 Z " fill="#848484" transform="translate(258,204)"/>
<path d="M0 0 C0.95465783 2.16967689 1.14401212 3.56328793 0.3984375 5.82421875 C-0.35870385 7.5684743 -1.17609198 9.28627131 -2 11 C-2.99 11 -3.98 11 -5 11 C-4.67 9.35 -4.34 7.7 -4 6 C-3.34 6 -2.68 6 -2 6 C-1.855625 5.195625 -1.71125 4.39125 -1.5625 3.5625 C-1 1 -1 1 0 0 Z " fill="#828282" transform="translate(313,204)"/>
<path d="M0 0 C0.66 0 1.32 0 2 0 C2.3636198 4.24223102 1.5393228 6.58168085 -1 10 C-1.66 10 -2.32 10 -3 10 C-2.67 7.69 -2.34 5.38 -2 3 C-1.34 3 -0.68 3 0 3 C0 2.01 0 1.02 0 0 Z " fill="#808080" transform="translate(250,171)"/>
<path d="M0 0 C0.66 0 1.32 0 2 0 C1.21681311 3.91593446 -0.39179858 7.36406635 -2 11 C-2.66 11 -3.32 11 -4 11 C-3.71758359 9.53984709 -3.42373386 8.08190207 -3.125 6.625 C-2.96257812 5.81289062 -2.80015625 5.00078125 -2.6328125 4.1640625 C-2 2 -2 2 0 0 Z " fill="#808080" transform="translate(87,170)"/>
<path d="M0 0 C0.33 0 0.66 0 1 0 C1 4.29 1 8.58 1 13 C0.01 13.33 -0.98 13.66 -2 14 C-2 13.34 -2 12.68 -2 12 C-4.31 12 -6.62 12 -9 12 C-9 11.67 -9 11.34 -9 11 C-6.03 11 -3.06 11 0 11 C0 7.37 0 3.74 0 0 Z " fill="#2E2D2F" transform="translate(138,219)"/>
<path d="M0 0 C0.66 0 1.32 0 2 0 C1.39301257 4.12751449 -0.03810791 7.3321148 -2 11 C-2.33 11 -2.66 11 -3 11 C-2.25 3.375 -2.25 3.375 0 0 Z " fill="#838383" transform="translate(367,204)"/>
<path d="M0 0 C0.66 0 1.32 0 2 0 C1.01 3.63 0.02 7.26 -1 11 C-1.99 11 -2.98 11 -4 11 C-3.21681311 7.08406554 -1.60820142 3.63593365 0 0 Z " fill="#828282" transform="translate(86,188)"/>
<path d="M0 0 C-0.50298788 4.40114397 -2.08772731 6.71195019 -5 10 C-4.88637738 8.5199159 -4.75877092 7.04089926 -4.625 5.5625 C-4.55539062 4.73878906 -4.48578125 3.91507813 -4.4140625 3.06640625 C-4.27742188 2.38449219 -4.14078125 1.70257813 -4 1 C-2 0 -2 0 0 0 Z " fill="#808080" transform="translate(268,171)"/>
<path d="M0 0 C0.66 0 1.32 0 2 0 C1.39009109 3.55780196 0.4216319 6.6828589 -1 10 C-1.66 10 -2.32 10 -3 10 C-3.3636198 5.75776898 -2.5393228 3.41831915 0 0 Z " fill="#848482" transform="translate(320,221)"/>
<path d="M0 0 C0.99 0 1.98 0 3 0 C3.22893297 3.03336186 3.36475845 5.97465051 3 9 C1 11.0625 1 11.0625 -1 12 C-1 10.68 -1 9.36 -1 8 C-0.34 8 0.32 8 1 8 C1.20970559 3.85906302 1.20970559 3.85906302 0 0 Z " fill="#2A2A28" transform="translate(320,170)"/>
<path d="M0 0 C0.66 0 1.32 0 2 0 C1.43454163 3.95820859 0.19097652 6.6659053 -2 10 C-2.6875 8.375 -2.6875 8.375 -3 6 C-1.5625 2.75 -1.5625 2.75 0 0 Z " fill="#858585" transform="translate(351,172)"/>
<path d="M0 0 C0.66 0 1.32 0 2 0 C1.745504 1.48206495 1.47088238 2.96068615 1.1875 4.4375 C1.03667969 5.26121094 0.88585937 6.08492187 0.73046875 6.93359375 C0.48941406 7.61550781 0.24835938 8.29742187 0 9 C-0.99 9.33 -1.98 9.66 -3 10 C-2.21302675 6.58978257 -1.12880057 3.31114834 0 0 Z " fill="#878687" transform="translate(195,221)"/>
<path d="M0 0 C0.33 0.66 0.66 1.32 1 2 C0.22265625 3.9453125 0.22265625 3.9453125 -0.9375 6.125 C-1.31777344 6.84945312 -1.69804687 7.57390625 -2.08984375 8.3203125 C-2.39019531 8.87460938 -2.69054687 9.42890625 -3 10 C-3.66 10 -4.32 10 -5 10 C-4.56802365 5.2482602 -3.67230705 3.07999946 0 0 Z " fill="#878787" transform="translate(33,221)"/>
<path d="M0 0 C2.64 0 5.28 0 8 0 C8 0.99 8 1.98 8 3 C5.36 3 2.72 3 0 3 C0 2.01 0 1.02 0 0 Z " fill="#767475" transform="translate(183,181)"/>
<path d="M0 0 C2.64 0 5.28 0 8 0 C8 0.99 8 1.98 8 3 C5.36 3 2.72 3 0 3 C0 2.01 0 1.02 0 0 Z " fill="#727272" transform="translate(152,181)"/>
<path d="M0 0 C0.66 0 1.32 0 2 0 C1.43454163 3.95820859 0.19097652 6.6659053 -2 10 C-2.6875 8.375 -2.6875 8.375 -3 6 C-1.5625 2.75 -1.5625 2.75 0 0 Z " fill="#878787" transform="translate(242,172)"/>
<path d="M0 0 C0.66 0 1.32 0 2 0 C2 0.99 2 1.98 2 3 C1.34 3 0.68 3 0 3 C0.66 4.65 1.32 6.3 2 8 C0.68 7.34 -0.64 6.68 -2 6 C-2 2 -2 2 0 0 Z " fill="#8D8D8D" transform="translate(242,189)"/>
<path d="M0 0 C0.6875 1.625 0.6875 1.625 1 4 C-0.4375 7.25 -0.4375 7.25 -2 10 C-2.66 10 -3.32 10 -4 10 C-3.52449439 8.51965236 -3.04448784 7.04074979 -2.5625 5.5625 C-2.29566406 4.73878906 -2.02882813 3.91507813 -1.75390625 3.06640625 C-1 1 -1 1 0 0 Z " fill="#8B8B8B" transform="translate(305,221)"/>
<path d="M0 0 C0.6875 1.625 0.6875 1.625 1 4 C-0.4375 7.25 -0.4375 7.25 -2 10 C-2.66 10 -3.32 10 -4 10 C-3.71872579 8.51882199 -3.42466268 7.04006751 -3.125 5.5625 C-2.96257812 4.73878906 -2.80015625 3.91507813 -2.6328125 3.06640625 C-2.42398438 2.38449219 -2.21515625 1.70257813 -2 1 C-1.34 0.67 -0.68 0.34 0 0 Z " fill="#8A8A8A" transform="translate(204,221)"/>
<path d="M0 0 C0.66 0 1.32 0 2 0 C1.43454163 3.95820859 0.19097652 6.6659053 -2 10 C-2.6875 8.375 -2.6875 8.375 -3 6 C-1.5625 2.75 -1.5625 2.75 0 0 Z " fill="#8B8B8B" transform="translate(351,205)"/>
<path d="M0 0 C0 0.66 0 1.32 0 2 C-0.66 2 -1.32 2 -2 2 C-1.34 3.65 -0.68 5.3 0 7 C-1.32 6.67 -2.64 6.34 -4 6 C-4.33 4.68 -4.66 3.36 -5 2 C-2 0 -2 0 0 0 Z " fill="#8F8F8F" transform="translate(174,206)"/>
<path d="M0 0 C0.66 0 1.32 0 2 0 C1.29445932 3.66881155 -0.27735506 6.70450534 -2 10 C-3.39195915 5.82412255 -1.82323219 3.86525224 0 0 Z " fill="#888888" transform="translate(180,171)"/>
<path d="M0 0 C3.48331435 3.01887244 4.79157144 5.56909529 6 10 C5.01 9.67 4.02 9.34 3 9 C2.05078125 6.93359375 2.05078125 6.93359375 1.3125 4.4375 C1.06113281 3.61121094 0.80976563 2.78492188 0.55078125 1.93359375 C0.36902344 1.29550781 0.18726563 0.65742188 0 0 Z " fill="#8F9090" transform="translate(169,221)"/>
<path d="M0 0 C0.99 0 1.98 0 3 0 C1.90931332 3.77545388 1.0916909 6.47043472 -2 9 C-1.51421457 5.87709365 -1.0013988 3.00419641 0 0 Z " fill="#8B8B8B" transform="translate(265,221)"/>
<path d="M0 0 C0.99 0 1.98 0 3 0 C2.67 1.98 2.34 3.96 2 6 C1.01 6 0.02 6 -1 6 C-1 3 -1 3 0 0 Z " fill="#6B6B6A" transform="translate(359,220)"/>
<path d="M0 0 C0.33 0.66 0.66 1.32 1 2 C0.67 2.99 0.34 3.98 0 5 C-1.98 5 -3.96 5 -6 5 C-5.34 4.67 -4.68 4.34 -4 4 C-4.33 3.01 -4.66 2.02 -5 1 C-3 0 -3 0 0 0 Z " fill="#3F3F3F" transform="translate(179,178)"/>
<path d="M0 0 C0.33 0.99 0.66 1.98 1 3 C-0.3125 5.1875 -0.3125 5.1875 -2 7 C-2.66 7 -3.32 7 -4 7 C-3.43628586 3.73045798 -2.50037734 2.17424117 0 0 Z " fill="#080808" transform="translate(90,175)"/>
</svg>
