<svg xmlns="http://www.w3.org/2000/svg" version="1.0" viewBox="0 0 64 64"><path d="M27.5 5c-6.1 1-9.1 2.6-13.9 7-6.5 6-9.4 13.4-8.7 22.4.2 3.7 3.7-1 5-6.8C14.5 7.2 39 2.9 51.5 20.3c1.4 2 2.6 2.6 3.8 2.1 2.7-1 2.1-2.8-2.8-8.2-6.8-7.6-15.4-10.7-25-9.2"/><path d="M17.6 29.6c-4.8 4.1-10.2 8.6-12 10-2.3 1.9-.8 1.4 6.1-2 5.1-2.5 9.4-4.6 9.6-4.6s.1 1.4-.1 3.2l-.5 3.2 4.9-2.9c2.7-1.6 6.4-3.8 8.3-4.9 3.7-2.2 3.5-2.6 1.6 4.1-.3 1.3-.4 2.3 0 2.3.8 0 24.5-13.1 24.5-13.5 0-.2-3.9.9-8.7 2.6-4.8 1.6-8.9 2.9-9.1 2.9-.3 0-.2-1.8.2-4 .3-2.2.3-4 0-4-.4 0-4 1.8-8.1 4.1l-7.4 4.1.7-4.1c.4-2.3.3-4.1-.2-4-.5 0-4.9 3.4-9.8 7.5"/><path d="M56.8 30.3c-.9.6-2.1 3.5-2.8 6.4-4.5 19.8-29.4 24.3-41.2 7.5-1.2-1.8-2.2-2.2-3.7-1.7-1.2.3-2.1 1-2.1 1.5 0 .4 2 3 4.5 5.8 6 6.6 11.9 9.4 20.5 9.4 8.3 0 14.3-2.7 19.9-8.7 4.5-4.9 6.5-9.1 7.3-15.1.7-5.1-.2-6.9-2.4-5.1"/></svg>