<?xml version="1.0" encoding="UTF-8"?>
<svg version="1.1" xmlns="http://www.w3.org/2000/svg" width="512" height="512">
<path d="M0 0 C168.96 0 337.92 0 512 0 C512 168.96 512 337.92 512 512 C343.04 512 174.08 512 0 512 C0 343.04 0 174.08 0 0 Z " fill="#FEFEFE" transform="translate(0,0)"/>
<path d="M0 0 C168.96 0 337.92 0 512 0 C512 168.96 512 337.92 512 512 C343.04 512 174.08 512 0 512 C0 343.04 0 174.08 0 0 Z M246 61 C245.06526855 61.13535156 244.13053711 61.27070312 243.16748047 61.41015625 C202.48007018 67.62662217 164.4862718 87.44562849 134.65625 115.5546875 C132 118 132 118 129.3515625 120.10546875 C126.54789698 122.36423582 124.38089159 124.84130948 122.05859375 127.578125 C120.59685427 129.2978185 119.10669298 130.99353171 117.59765625 132.671875 C79.97340849 174.95066887 63.76464151 230.18377578 66 286 C66.53518078 293.20251095 67.48747321 300.33256478 68.60742188 307.46533203 C68.94582945 309.65024962 69.23983533 311.83391898 69.515625 314.02734375 C75.12097246 351.54313355 95.46327151 388.14617575 120.9296875 415.7421875 C122.78428866 417.76475254 124.55035161 419.83483984 126.3125 421.9375 C158.9352712 459.10362518 209.0804025 479.38637765 257 486 C257.75216797 486.1045752 258.50433594 486.20915039 259.27929688 486.31689453 C312.93214856 493.0536295 369.508795 474.59551529 411.83935547 441.96630859 C418.57168703 436.6642664 424.84787114 430.95882427 431 425 C431.81984375 424.22011719 432.6396875 423.44023437 433.484375 422.63671875 C455.33331798 401.42817582 471.68252768 373.51082446 482 345 C482.24991699 344.31695801 482.49983398 343.63391602 482.75732422 342.93017578 C490.6906404 320.83058288 494.2258431 297.53133044 494.1875 274.125 C494.18656342 273.38912659 494.18562683 272.65325317 494.18466187 271.89508057 C494.02443354 213.80086871 470.83894737 160.67112899 430.4375 119.1875 C425.56652808 114.44770326 420.33168575 110.20697767 415 106 C414.02417969 105.20722656 413.04835938 104.41445312 412.04296875 103.59765625 C384.82199879 81.92360093 350.45022712 66.27716532 316 61 C314.79472656 60.79632813 313.58945312 60.59265625 312.34765625 60.3828125 C301.57999698 58.76752978 290.73807911 58.78816086 279.875 58.75 C279.11281158 58.74473297 278.35062317 58.73946594 277.56533813 58.73403931 C266.87205388 58.67699581 256.58013344 59.40738549 246 61 Z " fill="#020001" transform="translate(0,0)"/>
<path d="M0 0 C85.8 0 171.6 0 260 0 C260 163.02 260 326.04 260 494 C191.69 494 123.38 494 53 494 C53 493.67 53 493.34 53 493 C53.64211426 492.91024902 54.28422852 492.82049805 54.94580078 492.72802734 C104.08759371 485.72023837 150.57062493 466.74605525 186.41552734 431.55371094 C188.10321278 429.89879104 189.81107259 428.26626111 191.51953125 426.6328125 C199.45419084 418.96357286 206.48505326 410.90273133 213 402 C213.76828125 400.95328125 214.5365625 399.9065625 215.328125 398.828125 C243.44978801 359.3004728 258.53607459 312.88272321 258.3125 264.375 C258.31067719 263.54750244 258.30885437 262.72000488 258.30697632 261.86743164 C258.25721591 248.39095088 257.55814347 235.26241407 255 222 C254.82839355 221.09475586 254.65678711 220.18951172 254.47998047 219.25683594 C245.56989619 173.66332155 223.71312774 134.61049436 192 101 C191.19820312 100.1440625 190.39640625 99.288125 189.5703125 98.40625 C182.92753667 91.52389865 175.63910923 85.71742494 168 80 C167.14897705 79.35780518 167.14897705 79.35780518 166.28076172 78.70263672 C156.07942053 71.04647566 145.24488949 64.6090834 134.12109375 58.390625 C129.47840912 55.73766236 125.49481688 52.80508223 121.4375 49.3125 C114.15031441 43.05264543 106.21405758 37.9568785 98 33 C97.236875 32.53948242 96.47375 32.07896484 95.6875 31.60449219 C66.42404811 14.20493142 33.78165039 4.44989554 0 1 C0 0.67 0 0.34 0 0 Z " fill="#4C6971" transform="translate(252,9)"/>
<path d="M0 0 C0.98374603 0.00237671 1.96749207 0.00475342 2.98104858 0.00720215 C17.62045385 0.06248949 31.43572208 0.86981546 45.6875 4.4375 C47.0902226 4.74512584 48.49385018 5.04865994 49.8984375 5.34765625 C63.18357811 8.28936596 76.25029704 12.94509762 88.6875 18.4375 C88.6875 18.7675 88.6875 19.0975 88.6875 19.4375 C86.6249649 19.29216394 84.56247439 19.14619502 82.5 19 C80.67327083 18.87083733 78.84653841 18.74172009 77.01977539 18.61303711 C75.27072147 18.48139576 73.52263281 18.33682282 71.77514648 18.18579102 C12.1085292 13.16356119 -48.22439278 29.24893414 -94.75170898 67.80737305 C-97.30699256 69.97988291 -99.81276188 72.20107219 -102.3125 74.4375 C-103.20324219 75.21867187 -104.09398438 75.99984375 -105.01171875 76.8046875 C-114.30101014 85.0270618 -122.69407636 93.63521193 -130.3125 103.4375 C-130.73257324 103.97584473 -131.15264648 104.51418945 -131.58544922 105.06884766 C-153.0746215 132.82071531 -168.3794118 164.91007571 -175.4375 199.3125 C-175.67557373 200.46057129 -175.67557373 200.46057129 -175.91845703 201.63183594 C-178.93652695 216.97289798 -179.7520793 232.02788713 -179.75 247.625 C-179.75139984 248.63307709 -179.75279968 249.64115417 -179.75424194 250.67977905 C-179.7348115 267.75778951 -178.39436347 283.79717083 -174.3125 300.4375 C-174.12026855 301.24703125 -173.92803711 302.0565625 -173.72998047 302.890625 C-172.51949672 307.84073547 -170.9941461 312.62963588 -169.3125 317.4375 C-169.01923828 318.30552246 -168.72597656 319.17354492 -168.42382812 320.06787109 C-163.84958466 333.49838374 -158.2646481 346.03897053 -151.47851562 358.50390625 C-150.93775391 359.4990625 -150.39699219 360.49421875 -149.83984375 361.51953125 C-149.35249756 362.39843018 -148.86515137 363.2773291 -148.36303711 364.18286133 C-147.3125 366.4375 -147.3125 366.4375 -147.3125 369.4375 C-185.56358715 333.0910313 -211.98331696 281.572385 -213.64254761 228.2464447 C-213.75809808 223.28929844 -213.79852054 218.33337288 -213.8125 213.375 C-213.81735413 212.43276581 -213.82220825 211.49053162 -213.82720947 210.51974487 C-213.86072459 192.86402209 -211.95766319 175.74260298 -207.25 158.6875 C-206.95399902 157.60605713 -206.65799805 156.52461426 -206.35302734 155.41040039 C-196.33795796 120.30663833 -177.37143836 89.69328318 -152.3125 63.4375 C-151.55195313 62.63570312 -150.79140625 61.83390625 -150.0078125 61.0078125 C-124.26655433 34.53370712 -89.52942125 15.79306934 -54.0625 6.25 C-53.19544434 6.01200684 -52.32838867 5.77401367 -51.43505859 5.52880859 C-34.43260827 1.14217026 -17.49806635 -0.11185015 0 0 Z " fill="#FC0077" transform="translate(230.3125,25.5625)"/>
<path d="M0 0 C69.3 0 138.6 0 210 0 C210 0.33 210 0.66 210 1 C209.44352783 1.06469482 208.88705566 1.12938965 208.3137207 1.19604492 C148.08848547 8.36938088 92.67292115 35.55457123 53.3125 82.375 C24.244295 119.31129056 5.57271807 161.97607834 1 209 C0.67 209 0.34 209 0 209 C0 140.03 0 71.06 0 0 Z " fill="#4C6971" transform="translate(0,9)"/>
<path d="M0 0 C0.33 0 0.66 0 1 0 C1.08975098 0.69746338 1.17950195 1.39492676 1.27197266 2.11352539 C5.23182905 32.25133656 12.55496096 60.13729581 27 87 C27.51167725 87.97114746 27.51167725 87.97114746 28.03369141 88.96191406 C38.91048388 109.54017723 53.28076864 126.98504024 69 144 C66.18935893 145.87376071 63.50116542 147.16048362 60.4375 148.5625 C47.22103895 155.16273992 39.40627253 165.29648099 34.75390625 179.15625 C31.1562759 192.72658624 33.38747359 206.71719013 40 219 C46.20386203 228.64431113 54.43715341 234.87197584 64.9921875 239.17578125 C67.03926002 240.01611647 69.02077406 241.01038703 71 242 C47.57 242 24.14 242 0 242 C0 162.14 0 82.28 0 0 Z " fill="#4C6971" transform="translate(0,261)"/>
<path d="M0 0 C6.6 0 13.2 0 20 0 C34.80373458 67.44896819 34.80373458 67.44896819 37 83 C37.10014404 82.02699951 37.20028809 81.05399902 37.3034668 80.05151367 C38.38254009 70.22701484 40.29470743 60.86698355 42.8125 51.3125 C43.17328735 49.9119215 43.53289072 48.51103752 43.89135742 47.10986328 C44.59902809 44.34442471 45.31004946 41.57988663 46.0234375 38.81591797 C47.33760186 33.68082072 48.59050289 28.53271722 49.8125 23.375 C50.0084375 22.54887207 50.204375 21.72274414 50.40625 20.87158203 C52.0381527 13.93457899 53.54350312 6.9758535 55 0 C61.6 0 68.2 0 75 0 C76.2984539 3.24613476 77.31104308 5.89037642 78.078125 9.203125 C78.26640869 10.00580811 78.45469238 10.80849121 78.64868164 11.63549805 C78.8471167 12.49828369 79.04555176 13.36106934 79.25 14.25 C79.69100594 16.13681236 80.13243027 18.02352696 80.57421875 19.91015625 C80.80544434 20.90160645 81.03666992 21.89305664 81.27490234 22.91455078 C82.26161119 27.11321288 83.27657056 31.30485329 84.29125977 35.49682617 C92.11679334 67.87159615 92.11679334 67.87159615 93 79 C93.33 79.33 93.66 79.66 94 80 C94.13535156 79.06027344 94.27070313 78.12054688 94.41015625 77.15234375 C96.15161001 65.69473993 98.63233107 54.43279251 101.22729492 43.14331055 C101.53571175 41.80128498 101.84406107 40.45924389 102.15234375 39.1171875 C102.30579758 38.44945816 102.4592514 37.78172882 102.61735535 37.09376526 C104.55387417 28.6318636 106.34555011 20.13930753 108.1340332 11.64501953 C108.36566162 10.55044434 108.59729004 9.45586914 108.8359375 8.328125 C109.03751465 7.3680957 109.2390918 6.40806641 109.44677734 5.41894531 C110 3 110 3 111 0 C117.6 0 124.2 0 131 0 C129.8353447 9.31724237 127.77297701 18.18011889 125.44580078 27.26416016 C123.57403722 34.6075752 121.86069588 41.9702258 120.25 49.375 C116.11856592 68.31574996 111.52263321 87.1497363 107 106 C99.08 106 91.16 106 83 106 C79.34504512 93.48454843 76.31129611 80.89317492 73.49975586 68.16772461 C72.19222373 62.25851933 70.86006788 56.36738644 69.359375 50.50390625 C68.28512746 46.27365718 67.45436232 42.13664971 66.875 37.8125 C66.65883874 34.08897488 66.65883874 34.08897488 65 31 C64.84966309 31.78310547 64.69932617 32.56621094 64.54443359 33.37304688 C61.38078702 49.75801006 57.90600021 65.9716028 53.72900391 82.13330078 C51.71268012 90.06219358 49.87988997 98.03811305 48 106 C40.08 106 32.16 106 24 106 C19.6997612 88.9955024 15.47338065 71.98554296 11.578125 54.8828125 C10.38314463 49.64268319 9.15891065 44.41000367 7.921875 39.1796875 C7.74217163 38.4193924 7.56246826 37.65909729 7.37731934 36.87576294 C6.66154182 33.84885088 5.94540578 30.82202915 5.22607422 27.79595947 C0 5.80788861 0 5.80788861 0 0 Z " fill="#040404" transform="translate(83,223)"/>
<path d="M0 0 C6.93 0 13.86 0 21 0 C21 13.86 21 27.72 21 42 C33.54 42 46.08 42 59 42 C59 28.14 59 14.28 59 0 C65.93 0 72.86 0 80 0 C80 34.98 80 69.96 80 106 C73.07 106 66.14 106 59 106 C59 91.15 59 76.3 59 61 C46.46 61 33.92 61 21 61 C21 75.85 21 90.7 21 106 C14.07 106 7.14 106 0 106 C0 71.02 0 36.04 0 0 Z " fill="#040404" transform="translate(382,223)"/>
<path d="M0 0 C18.81 0 37.62 0 57 0 C57 6.27 57 12.54 57 19 C45.12 19 33.24 19 21 19 C21 26.59 21 34.18 21 42 C31.89 42 42.78 42 54 42 C54 47.94 54 53.88 54 60 C43.11 60 32.22 60 21 60 C21 69.24 21 78.48 21 88 C32.55 88 44.1 88 56 88 C56 93.94 56 99.88 56 106 C37.52 106 19.04 106 0 106 C0 71.02 0 36.04 0 0 Z " fill="#050505" transform="translate(226,223)"/>
<path d="M0 0 C24.42 0 48.84 0 74 0 C74 6.27 74 12.54 74 19 C65.42 19 56.84 19 48 19 C48 47.71 48 76.42 48 106 C41.07 106 34.14 106 27 106 C27 77.29 27 48.58 27 19 C18.09 19 9.18 19 0 19 C0 12.73 0 6.46 0 0 Z " fill="#050505" transform="translate(293,223)"/>
</svg>
