<svg xmlns="http://www.w3.org/2000/svg" width="512" height="512"><path fill="#FEFEFE" d="M0 0h512v512H0z"/><path fill="#020001" d="M0 0h512v512H0zm246 61-2.833.41c-40.687 6.217-78.68 26.036-108.51 54.145C132 118 132 118 129.351 120.105c-2.804 2.26-4.971 4.736-7.293 7.473a243 243 0 0 1-4.461 5.094C79.973 174.95 63.765 230.184 66 286c.535 7.203 1.487 14.333 2.607 21.465.339 2.185.633 4.369.909 6.562 5.605 37.516 25.947 74.12 51.414 101.715 1.854 2.023 3.62 4.093 5.382 6.195C158.936 459.105 209.08 479.388 257 486l2.28.317c53.652 6.737 110.229-11.721 152.56-44.35 6.732-5.303 13.008-11.008 19.16-16.967l2.484-2.363C455.334 401.428 471.683 373.51 482 345l.757-2.07c7.934-22.1 11.469-45.399 11.43-68.805l-.002-2.23c-.16-58.094-23.346-111.224-63.747-152.707-4.871-4.74-10.106-8.981-15.438-13.188l-2.957-2.402C384.822 81.924 350.45 66.278 316 61l-3.652-.617c-10.768-1.615-21.61-1.595-32.473-1.633l-2.31-.016C266.872 58.677 256.58 59.407 246 61"/><path fill="#4C6971" d="M252 9h260v494H305v-1l1.946-.272c49.142-7.008 95.625-25.982 131.47-61.174a539 539 0 0 1 5.104-4.921A189.7 189.7 0 0 0 465 411l2.328-3.172c28.122-39.528 43.208-85.945 42.985-134.453l-.006-2.508c-.05-13.476-.749-26.605-3.307-39.867l-.52-2.743C497.57 182.663 475.713 143.61 444 110l-2.43-2.594C434.928 100.524 427.64 94.717 420 89l-1.72-1.297c-10.2-7.657-21.035-14.094-32.159-20.312-4.643-2.653-8.626-5.586-12.683-9.079C366.15 52.053 358.214 46.957 350 42l-2.312-1.396C318.424 23.204 285.782 13.45 252 10z"/><path fill="#FC0077" d="m230.313 25.563 2.98.007c14.64.055 28.455.862 42.707 4.43q2.104.462 4.21.91C293.497 33.852 306.564 38.508 319 44v1l-6.187-.437-5.48-.387a474 474 0 0 1-5.245-.428c-59.667-5.022-120 11.063-166.527 49.622-2.555 2.172-5.061 4.394-7.561 6.63l-2.7 2.367c-9.289 8.223-17.682 16.83-25.3 26.633l-1.273 1.631c-21.49 27.752-36.794 59.842-43.852 94.244l-.481 2.32c-3.018 15.34-3.834 30.395-3.831 45.993l-.005 3.054C50.578 293.32 51.918 309.36 56 326l.583 2.453c1.21 4.95 2.735 9.74 4.417 14.547l.889 2.63c4.574 13.43 10.159 25.971 16.945 38.436.54.996 1.082 1.99 1.639 3.016l1.476 2.663C83 392 83 392 83 395c-38.251-36.346-64.67-87.865-66.33-141.191a726 726 0 0 1-.17-14.871l-.015-2.856c-.033-17.655 1.87-34.777 6.578-51.832l.896-3.277C33.975 145.869 52.941 115.256 78 89l2.305-2.43c25.74-26.474 60.478-45.214 95.945-54.757l2.627-.722c17.003-4.386 33.937-5.64 51.435-5.529"/><path fill="#4C6971" d="M0 9h210v1l-1.686.196C148.088 17.369 92.673 44.555 53.313 91.375 24.244 128.311 5.572 170.976 1 218H0zm0 252h1l.272 2.114C5.232 293.25 12.555 321.137 27 348l1.034 1.962C38.91 370.54 53.28 387.985 69 405c-2.81 1.874-5.499 3.16-8.562 4.563-13.217 6.6-21.032 16.733-25.684 30.593C31.156 453.726 33.387 467.717 40 480c6.204 9.644 14.437 15.872 24.992 20.176 2.047.84 4.029 1.834 6.008 2.824H0z"/><path fill="#040404" d="M83 223h20c14.804 67.449 14.804 67.449 17 83l.303-2.948c1.08-9.825 2.992-19.185 5.51-28.74q.54-2.1 1.078-4.202 1.062-4.149 2.132-8.294a888 888 0 0 0 3.79-15.441l.593-2.503c1.632-6.937 3.138-13.896 4.594-20.872h20c1.298 3.246 2.311 5.89 3.078 9.203l.57 2.432c.2.863.398 1.726.602 2.615l1.324 5.66c.231.992.463 1.983.7 3.005.988 4.198 2.003 8.39 3.017 12.582 7.826 32.375 7.826 32.375 8.709 43.503l1 1 .41-2.848c1.742-11.457 4.222-22.72 6.817-34.009l.925-4.026.465-2.023c1.937-8.462 3.729-16.955 5.517-25.449l.702-3.317.61-2.91C193 226 193 226 194 223h20c-1.165 9.317-3.227 18.18-5.554 27.264a641 641 0 0 0-5.196 22.111c-4.131 18.94-8.727 37.775-13.25 56.625h-24c-3.655-12.515-6.689-25.107-9.5-37.832-1.308-5.91-2.64-11.8-4.14-17.664-1.075-4.23-1.906-8.367-2.485-12.692-.216-3.723-.216-3.723-1.875-6.812l-.456 2.373c-3.163 16.385-6.638 32.599-10.815 48.76-2.016 7.93-3.85 15.905-5.729 23.867h-24c-4.3-17.004-8.527-34.014-12.422-51.117a2007 2007 0 0 0-3.656-15.703l-.545-2.304q-1.073-4.54-2.15-9.08C83 228.808 83 228.808 83 223m299 0h21v42h38v-42h21v106h-21v-45h-38v45h-21z"/><path fill="#050505" d="M226 223h57v19h-36v23h33v18h-33v28h35v18h-56zm67 0h74v19h-26v87h-21v-87h-27z"/></svg>