<svg xmlns="http://www.w3.org/2000/svg" width="400" height="400" fill="none" viewBox="0 0 400 400"><rect width="400" height="400" fill="#BD3227" rx="200"/><g clip-path="url(#a)"><g fill="#fff" clip-path="url(#b)"><path d="M256.654 133.873h-50.163l28.938-12.292a14.3 14.3 0 0 0 7.435-7.773 14.28 14.28 0 0 0-.091-10.747 14.3 14.3 0 0 0-7.565-7.647 14.35 14.35 0 0 0-10.765-.227l-97.507 39.339C94.116 147.768 70 171.995 70 207.459v30.955C70 278.988 102.917 312 143.378 312h113.276c40.455 0 73.372-32.993 73.372-73.586v-30.955c-.026-40.574-32.943-73.586-73.372-73.586m44.836 104.541c0 24.796-20.091 44.967-44.836 44.967H143.378c-24.725 0-44.861-20.171-44.861-44.967v-30.955c0-28.076 30.623-44.967 44.842-44.967h113.295c24.725 0 44.836 20.177 44.836 44.967zm-13.986-133.95c7.874 0 14.258-6.372 14.258-14.232S295.378 76 287.504 76c-7.875 0-14.258 6.372-14.258 14.232s6.383 14.232 14.258 14.232"/><path d="M142.017 248.376c-8.094 0-14.653-6.372-14.653-14.232v-18.573c0-7.86 6.559-14.232 14.653-14.232s14.654 6.372 14.654 14.232v18.573c0 7.86-6.559 14.232-14.654 14.232m58.602 6.65c-7.875 0-14.258-4.929-14.258-10.997V203.94c0-6.081 6.383-10.998 14.258-10.998s14.258 4.936 14.258 10.998v40.07c0 6.087-6.384 11.016-14.258 11.016m57.461-7.219c-3.782 0-7.408-1.5-10.082-4.169a14.22 14.22 0 0 1-4.176-10.063v-18.573c0-3.775 1.502-7.395 4.176-10.064a14.27 14.27 0 0 1 10.082-4.168c3.781 0 7.408 1.499 10.082 4.168a14.22 14.22 0 0 1 4.176 10.064v18.573c0 3.774-1.502 7.394-4.176 10.063a14.27 14.27 0 0 1-10.082 4.169"/></g></g><defs><clipPath id="a"><path fill="#fff" d="M70 76h260v236H70z"/></clipPath><clipPath id="b"><path fill="#fff" d="M70 76h260v236H70z"/></clipPath></defs></svg>