<svg xmlns="http://www.w3.org/2000/svg" xml:space="preserve" viewBox="0 0 103 103"><circle cx="51.5" cy="51.5" r="51.5" style="fill:#00abff"/><path d="m55.3 58.9 3.6-3.6 25 25-3.6 3.6zM19.1 22.7l3.6-3.6 25 25-3.6 3.6zm36.2 21.5 25-25.1 3.6 3.6-25 25zM19 80.3l25.1-25 3.6 3.6-25 25zm238.3-53.8h-40.8v8.7h37.9c11.4 0 16.7 2.8 16.7 9s-5.3 9-16.7 9h-37.9V78h10.3V62h30.5c14.8 0 24-6.7 24-17.7 0-11.1-9.2-17.8-24-17.8m41.6 0h-10.3V78h59.7v-8.8h-49.4zm80.5 42.8V78h53.2L398 29.3a7.5 7.5 0 0 0-6.3-3.4 7.8 7.8 0 0 0-6.3 3.4L350.8 78h12.3l28.5-40.4L414 69.2zM210.3 26.5h-14.2L173 45.6l-23.1-19.1h-14.2l30.2 25-32 26.5h14.2L173 57.4 197.8 78H212l-31.9-26.5z" style="fill:#fff"/></svg>