<svg xmlns="http://www.w3.org/2000/svg" viewBox="0 0 520 520"><path fill="none" d="M0 0h537v537H0Z" opacity=".6"/><path fill="#3aa5fc" d="M344 82h4l6 1 4 2 5 2 4 3 4 4 3 2 2 2 2 3 4 5 4 6 3 7 4 8 2 7 2 7 2 8 1 7v12l1 2 3 3 2 3 3 5 2 5 1 9v5l2 1 7 4 3 3 3 2v1h1l3 3 3 3 3 4 3 3 4 5 5 8 4 8 3 5 3 6 3 10 1 5 2 11 2 12v14l-1 8-1 10-3 12-2 6-3 8-4 8-2 4-2 4-3 5-5 6-2 3-4 4-1 2 1 3 1 4v10l-2 7-2 4-3 6-3 4-4 4-5 4-5 2-6 2-4 1-3 1h-18l-6-1-7-2-4-2-4-3-3-3-9 1-9 2-9 1-8 1h-58l-1-1h-8l-5-1-3-1h-4l-3-1-3 3-1 1-6 4-3 2-4 1-16 1h-7l-8-1-9-1-5-2-6-3-3-2-4-4-1-1h-1l-6 4-6 3-5 1-7 1-4-1-5-1h-6l-6 1-4-1-7-2-5-3-5-4-4-5-3-5-1-4v-2l-1-3v-8l2-5 2-5 2-1v-2l-1-2-4-7-4-7-3-8-3-8-3-10-1-8-2-9-1-9v-23l1-9 1-9 3-13 2-10 5-11 4-9 2-4 3-5 3-4 3-4 1-2 4-5 3-3 5-6 3-2 3-3 10-7 3-2 1-1v-8l-1-2v-4l1-15 1-8 3-12 2-9 4-8 4-8 3-6 3-4 4-4 2-3 4-4 7-4 5-3 4-1 2-1h10l6 2 9 3 4 3 6 4 5 3 3 3 3 3 2 2 4 5 3 3 3 5h3l9-2 9-1h14l12 1 7 2h2l3-5 4-6 5-5 2-2 2-2 5-4 3-2 5-3 7-4 5-2 4-1z"/><path fill="#f9fcfd" d="m407 213 1 3 4 2 5 4 6 6 3 3 3 3 2 4 2 3 5 7 2 6 2 4v1h1v3h1v3h1l2 7 2 7v5l1 9 1 7v6l-1 11v3h-1v7l-1 1v3l-1 5-2 3-1 4-1 1v2h-1v2l-2 3-1 3-1 3h-1l-1 3-1 2-1 1-1 2-2 3v1h-1v1l-2 1v2h-1v1l-6 5-6 4-5 3-9 3-10 4-13 3-14 2-16 2-17 2h-31l-9-1-16-1-12-2-12-3-16-4-10-4-11-5-7-3-7-5-7-4-6-4-5-4-4-4-7-6-4-5-3-5-2-3-6-1-5-1-4-2-3-2-4-3-2-4-2-5-2-5v-11l1-5 2-6 3-5 4-4 3-4 5-4 4-3 4-3 7-4 4-4 2-2 2-4v-8l-2-11v-7l1-4 1 1v1h1v1l1 1 3 3 1 2 5 4 3 2 5 2 6 2 1 1 5 1h13l3-1 4-1 3-1 5-2 2-1 2-1h1v-1l1-1h1v-1l4-3 2-2 1-1h1v-2h1l1-1 1-2 3-2 8-3 9-2 8-2 7-1h21l8 1h4l2 4v1h1l2 4 4 5 4 4 3 2 1 1 6 3 6 2h3v1h6l1 1h9l3-1 5-1 3-1 4-2 3-1 2-1h1v-1h1v-1h1l3-3 3-4h1l1-1 1-2v-1l1-1 2-3 1-3 2-5z"/><path fill="#010102" d="M344 82h4l6 1 4 2 5 2 4 3 4 4 3 2 2 2 2 3 4 5 4 6 3 7 4 8 2 7 2 7 2 8 1 7v12l1 2 3 3 2 3 3 5 2 5 1 9v5l2 1 7 4 3 3 3 2v1h1l3 3 3 3 3 4 3 3 4 5 5 8 4 8 3 5 3 6 3 10 1 5 2 11 2 12v14l-1 8-1 10-3 12-2 6-3 8-4 8-2 4-2 4-3 5-5 6-2 3-4 4-1 2 1 3 1 4v10l-2 7-2 4-3 6-3 4-4 4-5 4-5 2-6 2-4 1-3 1h-18l-6-1-7-2-4-2-4-3-3-3-9 1-9 2-9 1-8 1h-58l-1-1h-8l-5-1-3-1h-4l-3-1-3 3-1 1-6 4-3 2-4 1-16 1h-7l-8-1-9-1-5-2-6-3-3-2-4-4-1-1h-1l-6 4-6 3-5 1-7 1-4-1-5-1h-6l-6 1-4-1-7-2-5-3-5-4-4-5-3-5-1-4v-2l-1-3v-8l2-5 2-5 2-1v-2l-1-2-4-7-4-7-3-8-3-8-3-10-1-8-2-9-1-9v-23l1-9 1-9 3-13 2-10 5-11 4-9 2-4 3-5 3-4 3-4 1-2 4-5 3-3 5-6 3-2 3-3 10-7 3-2 1-1v-8l-1-2v-4l1-15 1-8 3-12 2-9 4-8 4-8 3-6 3-4 4-4 2-3 4-4 7-4 5-3 4-1 2-1h10l6 2 9 3 4 3 6 4 5 3 3 3 3 3 2 2 4 5 3 3 3 5h3l9-2 9-1h14l12 1 7 2h2l3-5 4-6 5-5 2-2 2-2 5-4 3-2 5-3 7-4 5-2 4-1zM183 97l-4 1-4 2-4 3-2 2-3 3-4 5-4 10-4 8-2 9-1 5-1 6v21l1 13 1 6v2l-7 4-3 2-6 3-5 4-5 4-3 3-1 1-5 5-3 4-2 3-4 5-4 7-4 7-1 4-2 4-2 5-2 8-1 6-2 8-1 9v33l2 12 2 10 3 10 2 7 3 7 4 7 2 3 4 6 2 2-5 2-2 2v1h-1l-2 4-1 3-1 2v5l1 6 2 4 4 5h1v-5l2-6h3v11l1 2 2 2 5 1 2-1v-7l2-4 3-1v9l1 3 2 1h8l5-1 4-3 1-3 2-5 1-1 2-1h5v-14l2-5 2-3 2-1 5-2 2-2v14l1 7v1h-1v1l2 8 3 6 1 2 3 3 3 2 5 1-1-2v-6l1-3 2-1 2 1 1 2 2 8 1 2h10l1-5 1-4 2-2h2l2 2 1 2v1l1 6 2-1 5-1 2-1 2-3 2-3 1-5 1-7 1-4 2-1h3l3 1 1 2 1 4 1 4 6 2 12 1 17 1h43l13-2 11-1 5-1 1-1v-3l1-2h1l2-1h5l1-1v-3h1l1 4 1 5 2 7 1 3 2 2 2 2 7 2h2l2-2 3-6 1-3 1-1h3l1 1v6l-1 3v2h2l7-1 1-1 2-3 1-5v-3l1-2h4l1 5v6l3-2 3-3 4-6 1-4 1-4v-9l-2-7-1-4-1-1v-2l3-3 3-3 1-3 1-1 1-1v-1l2-1v-1h1l1-2 2-3v-1l2-2v-1l1-3h1l2-4 2-5v-2h1l1-2 1-3 2-8 1-2v-3l1-2v-6h1v-3l1-11v-6l-1-11-1-6-1-6-2-8-1-4h-1v-3h-1v-3h-1l-2-6-3-5-4-7-3-4-1-3-5-5-2-2-2-2-2-2-2-1-4-4-4-2-1-3-1 1-2 6-1 3-2 3h-1l-1 3-1 1-1 1-3 3-3 3h-1v1h-1v1h-2l-1 1-3 1-4 2-3 1-5 1-3 1h-9l-4-1h-3l-2-1-4-1-4-2-5-2-1-1-4-3-4-5-4-4-1-3h-1l-2-5-2-9v-12l1-6 2-7 3-7 4-4 3-4 5-4 5-3 5-3 7-2 5-1h8l8 1 5 1 4 2 1-1v-6l-2-10-4-12-3-7-3-6-3-5-5-6-4-4-5-3-3-2-3-1h-9l-6 2-4 2-5 3-2 2-8 8-2 3v1h-1l-5 6-2 4 1 2h1v1l6 5 3 4v1l-4-2-9-3-6-2-8-2-11-1h-18l-9 1-9 2-6 2h-1l-3-2-2-4-3-4-4-4-2-3-3-3-5-5-3-2-3-3-5-3-5-3-7-2-3-1z"/><path fill="#3aa5fc" d="m142 332 4 2 4 2 4 1 4 1h4l5 8 4 4 3 4 5 5 3 3 5 4 8 5 7 4 4 3 5 2 10 5 9 4 7 2 14 4 12 2 12 2 16 2 9 1h22l9-1 17-1 16-2 14-3 15-3 12-4 7-3 5-3 5-3 3-4v1l-2 3-3 4-1 1v2l2 3 1 5 1 3v9l-1 5-3 6-2 3-3 4-3 1v-8l-1-3h-4l-1 2v3l-1 5-1 1-1 2-1 1-8 1h-1l1-3v-7l-1-2h-3l-1 2-3 6-2 3-1 1h-2l-7-3-3-1-1-3-2-4-2-6v-6l-1-2h-1l-1 4h-5l-2 1-2 2v3l-1 1-11 2-11 1-12 1h-38l-17-1-14-2-4-1-1-6-1-3-2-1-3-1-3 1-1 1-1 3-1 8-2 4-1 4-2 2-6 2-2 1h-1l-1-6-1-3-1-2h-2l-2 1-1 3-1 4-1 3h-10l-1-2-2-8-1-2-2-1-2 2-1 2v4l1 2-1 2-4-1-4-3-2-2-3-7-2-4-1-5 1-1v-3l-1-5v-14l-2 2-4 1-2 1-2 2-1 3-1 3-2 1-3-3-4-4-3-4-4-6-2-5-3-7-2-5v-16l1-4 2-4 1-5z"/><path fill="#0d41a7" d="M183 97h4l5 1 5 2 5 3 3 2 2 1 2 2 3 3 3 2 5 5 2 3 3 3 3 4 3 4 3 4h1l3-1 11-3 7-1h22l11 1 10 3 7 2 8 3 3 1-5-6-5-5-1-1-1-1 4-7 3-3h1v-2l5-5 6-6 6-4 3-2 5-1 2-1h9l5 2 3 2 5 5 3 2 2 3 2 3 4 6 2 4 4 8 3 9 1 4 1 8v6l-1 1-7-3-7-1h-7l-6 1-6 1h-3 1l6-2 5-1h10l6 1 6 2 2-1v-1l-1-8-2-8-4-12-3-5-3-6-4-5v-1h-1l-2-3-2-2-5-3-3-2-3-2h-10l-4 1-4 2-2 3-3 5-2 7-2 8-3 14v4h-2l-3-2-10-3-7-3-8-1-9-2h-20l-9 1-6 1-9 3h-1l1 3v1l-1-1v-1h-1l-3-4-4-5-3-4-2-2v-1h-1l-2-3-1-2h-1l-7-6-2-3-6-4-4-3-3-1-6-2h-6l-3 1-3 2-3 5-2 7-3 9-3 12-1 10-2 15v19l-1 3-2 3-3 2-4 3-1 3-2 2-3 3-2 3-4 4-4 3-5 4-3 3-5 5-4 4-5 4-3 4-2 2-3 4-3 5-3 4-4 8-1 2 1 2 2 3 2 5 1 7 2 15 1 10 2 10 2 10 2 7 4 8 3 6 4 5 4 5 3 5 3 3 4 5 2 1 4 11 3 5 3 5 2 3 4 4 2 3 2 1h1v15h-5l-2 1-2 2-1 5-2 3-3 2-5 1h-6l-3-1-1-2-1-1v-9l-3 1-2 4v7l-2 1-5-1-2-2-1-2v-11h-2l-2 3-1 3v5l-2-1-3-5-2-3-1-6v-5l1-4 2-4 1-1h1v-1l3-3 4-1-2-2-4-6-2-4-4-6-3-7-2-7-3-10-2-12-2-10v-37l2-9 1-7 3-8 3-11 2-4 2-5 4-6 3-5 4-5 3-4 4-4 3-4 1-1 3-3 4-3 6-4 8-4 3-3 4-2v-4l-1-6-1-11v-21l2-9 2-10 2-5 2-6 4-8 3-4 3-3 2-2 4-3 5-3z"/><path fill="#010102" d="M208 157h12l7 1 7 2 4 3 5 4 4 4 4 4 3 5 3 6 1 5 1 4v8l-1 9-1 5-3 8-2 3-2 2-1 1v1l-5 5-3 2-2 1v1h-1l-2 1-3 2-4 1-3 2h-4l-3 1h-13l-5-1-3-1-4-2-6-3-2-1-3-3-2-1-3-4-2-2-2-2-2-6-2-5-1-6-1-4v-8l1-6 1-6 3-5 3-5 2-3 3-3 4-4 6-4 5-3 5-2 5-1z"/><path fill="#7c86d3" d="M425 375v1l-2 3-3 4-1 1v2l2 3 1 5 1 3v9l-1 5-3 6-2 3-3 4-3 1v-8l-1-3h-4l-1 2v3l-1 5-1 1-1 2-1 1-8 1h-1l1-3v-7l-1-2h-3l-1 2-3 6-2 3-1 1h-2l-7-3-3-1-1-3-2-4-2-6v-6l-1-2h-1l-1 4h-5l-2 1-2 2v3l-1 1-11 2-11 1-12 1h-38l-17-1-14-2-4-1-1-6-1-3-2-1-3-1-4 1 1-1 2-1h1l-1-3v-5l-1-3v-1l4 1 11 3 12 2 12 2 16 2 9 1h22l9-1 17-1 16-2 14-3 15-3 12-4 7-3 5-3 5-3z"/><path fill="#010204" d="M304 235h5l2 1 3 2 2 4 1 4 3 4 3 3 5 2 4 2 2 1h6l3-1 1-1 1-3 2-3 3-2h3l3 1v1l1 1 2 2 1 1v5l-2 4-4 5-4 3-4 1-3 1h-10l-6-1-3-1-5-2-5-4-4-3-4-4-1 1-1 1-4 3-2 3h-1l-2 1v1l-2 1h-1v1l-3 1-3 1-3 1h-1l-4 1h-10l-6-2-3-2-3-2-2-1-2-4-1-2-1-4v-3l2-3 2-2 2-1h4l2 2 2 1 1 2 1 3 3 1 3 1h5l6-1 5-3 4-3 2-2 3-3v-1h1v-4l2-3 1-1z"/><path fill="#7e87d3" d="m142 332 4 2 4 2 4 1 4 1h4l5 8 4 4 3 4 5 5 3 3 5 4 2 1v2l-4 1-3 2-4 3-2 3-2 4v15l1 7 1 6 3 6 3 5 3 3 2 2h1v-4l1-3v7l1 1-1 2-4-1-4-3-2-2-3-7-2-4-1-5 1-1v-3l-1-5v-14l-2 2-4 1-2 1-2 2-1 3-1 3-2 1-3-3-4-4-3-4-4-6-2-5-3-7-2-5v-16l1-4 2-4 1-5z"/><path fill="#3aa4fb" d="M425 375v1l-2 3-3 4-1 1v2l2 3 1 5 1 3v9l-1 5-3 6-2 3-3 4-3 1v-8l-1-3h-4l-1 2v3l-1 5-1 1-1 2-1 1-8 1h-1l1-3v-7l-1-2h-3l-1 2-3 6-2 3-1 1h-2l-7-3-3-1-1-3-2-4-2-6v-6l-1-2h-1l2-2 1-2 2-1v-1l2-1 13-3 10-2 12-4 7-3 5-3 5-3z"/><path fill="#f8fbfd" d="M217 170h8l4 1 4 2 3 3 3 3 1 3 1 3v7l-1 3-2 4-3 3-3 2-4 2h-10l-5-2-4-2-3-3-3-4-1-5v-6l1-4 1-2h1v-1l3-3 2-2 3-1zm146-1h7l4 1 4 2 4 3 2 3 2 5 1 2v5l-1 5-2 2-1 2-3 3-3 1v1l-4 1h-9l-3-1-4-2-4-3-2-3-2-4-1-3v-5l1-3 1-3 3-4 1-1h1v-1l2-1 4-1z"/><path fill="#3ba5fc" d="m407 213 1 3 4 2 5 4 6 6 3 3 3 3 2 4 2 3 5 7 2 6 1 1-1-1-4-6-2-4-3-2-5-3-5-2-7-3-4-2-3-3-1-2-1-8-1 2v-1l2-6z"/><path fill="#3e1518" d="M180 82h10l6 2 9 3 4 3 6 4 5 3 3 3 3 3 2 2 4 5 1 2-2-1-2-2-3-4-2-2-4-3-4-4-2-1-2-1-5-3-1-1-5-3-4-1-2-1v-1h-4l-1-1-4 1v-1h-5l-4 1-4 2-4 2-4 3-2 1v1h-1l-1 2-3 2-2 3h-1v1l-4 5-2 2-3 6-4 7-1 2v-1l5-10 3-6 3-4 4-4 2-3 4-4 7-4 5-3 4-1zm229 101 1 1 1 4 1 7v5l2 1 7 4 3 3 3 2v1h1l3 3 3 3 3 4 3 3 4 5 5 8 4 8 3 5 3 6 3 10 1 5 2 11 1 5v3l-2-9-2-12-2-6-3-8-2-4-2-4-1-3-4-6-2-4-1-1-4-6-3-3-5-5-2-3-6-6-3-2-5-4-4-3-1-1-1-3-1-10-1-3z"/><path fill="#0d41a7" d="m364 403 1 1 2 5 2 4 4 5 3 3 3 3 4 3h1l-1 1-1 1h-2l-7-3-3-1-1-3-2-4-2-6v-6l-1-2h-1zm-191-20h1v14l1 7 1 6 3 6 3 5 3 3 2 2h1v-4l1-3v7l1 1-1 2-4-1-4-3-2-2-3-7-2-4-1-5 1-1v-3l-1-5v-14h-1z"/><path fill="#3e1518" d="M348 82h3l5 2 5 2 4 3 5 4 4 4 5 4 3 5 4 6 3 7 4 8 2 7 1 3v1l-3-7-2-5-1-4-3-5-2-4-1-2v-1h-1l-2-4-3-3-2-3-4-4-5-4-7-5-3-1-3-2h-2v-1h-4z"/><path fill="#0d41a7" d="m407 213 1 3 4 2 5 4 6 6 3 3 3 3 2 4 2 3 2 3v1l-3-4-3-4-3-4-5-5-5-5-6-4-2-1-1 1-1-1v-1l-1 1v-1z"/><path fill="#3e1518" d="M115 199h1l-4 4-2 3h-1v1l-2 2-3 3-2 3-1 1-1 2-3 4h-1l-1 2-5 9-4 7-1 2v-1l4-10 2-3 5-7 3-4 1-2 4-5 3-3 5-6zm118-87 2 2 3 4h3l9-2 9-1h14l9 1h-28l-3 1-4 1h-4l-2 1h-3l-2-2-3-4z"/><path fill="#3d1417" d="m316 94-1 1-1 2-4 3-6 6-1 1h-1v2l-3 2-3 4-1 1 1-1 2-4 3-4 5-5 2-2 2-2 5-4z"/><path fill="#3e1518" d="M81 250v3l-1 4-1 4-1 1-1 5-1 5-1 2-1 8v-3l1-9 3-10 2-6z"/><path fill="#0d41a7" d="M390 416h2l1 1 1 3v6l-1 2 7-1 1-1 2-3 1-7h1l-1 7v1l-2 3-1 1-8 1h-1l1-3v-7l-1-2h-3l-1 1 1-2z"/><path fill="#3e1518" d="M339 82h3v1l-4 1-4 1-5 2-5 2-6 4-2 1 2-2 5-3 7-4 5-2zm58 62 1 1 1 8 1 7v8l1 2 3 3 1 2-1-1h-1v-1h-1l-1-2v-1h-1l-1-1-1-17-1-6z"/><path fill="#0d41a7" d="m169 189 1 2-1 4-1 4v8l2 8 2 6 1 4-3-4-1-6-2-6v-9l1-7z"/><path fill="#3e1518" d="M134 147v3l-1 5v14l-1 9-1-2v-4l1-15 1-8zm-4 41h1l-7 5-2 2-2 1-3 2h-1l4-3 3-2 5-4z"/><path fill="#0d41a7" d="M232 409h1l-1 5-1 6-2 3-1 2-1 2-3 1h-1l3-2 3-3 1-4 1-4zm179 7h1v7h1l3-2v-1h1l1-2v1l-3 3-2 2-2 1v-4z"/><path fill="#4c68bf" d="m433 242 1 1 2 3 4 6 1 2-1 1-4-7-2-4-2-2z"/><path fill="#3e1518" d="m168 431 2 1 3 3 3 1v1h2v1l-3-1-3-2-3-2z"/><path fill="#2768c6" d="M409 386h2l-1 1-5 2h-1v-1z"/><path fill="#0d41a7" d="M425 375v1l-2 3-3 3v-1l1-1 1-1z"/><path fill="#3e1518" d="m97 425 2 2 3 1 1 2-2-1-3-3z"/><path fill="#7687d5" d="m433 242 1 1 1 2v1l-3-3z"/><path fill="#3f60bb" d="M425 375v1l-2 2-2 2 1-2z"/></svg>