<?xml version="1.0" encoding="UTF-8"?>
<svg version="1.1" viewBox="0 0 1600 1600" width="400" height="400" xmlns="http://www.w3.org/2000/svg">
<path transform="translate(0)" d="m0 0h1600v1600h-1600z" fill="#F9FCFD"/>
<path transform="translate(1024,244)" d="m0 0h13l17 3 12 5 16 8 12 9 11 10 8 7 7 7 7 8 11 15 12 19 10 19 10 25 7 20 6 21 5 23 3 21 1 13v23l3 5 9 11 6 9 8 15 6 15 4 26v15l5 2 21 14 10 8 8 6v2l4 2 9 9 8 7 10 11 9 11 10 13 16 24 13 24 8 16 8 19 9 28 4 16 6 31 4 36v42l-2 25-4 30-8 36-5 17-9 24-11 23-7 12-6 11-9 15-14 19-8 10-10 12-3 6 1 7 3 13v29l-4 20-6 14-9 16-11 13-12 12-14 11-16 8-16 6-13 3-7 1h-40l-14 1-19-2-21-6-13-8-10-8-9-10-26 5-28 5-27 4-24 2-23 1h-111l-38-2-3-1-23-2-17-2-8-2-13-2-9-1-8 7-4 5-17 11-10 5-12 4-45 3h-23l-23-2-26-5-17-5-16-8-10-8-11-11-3-4-4 1-17 11-19 9-13 4-21 2-13-1-16-3h-18l-15 1-14-1-21-8-14-8-14-12-12-15-9-16-3-11-2-6-1-7v-25l4-16 8-14 4-4 1-4-4-7-12-20-11-23-10-24-8-22-8-30-5-23-4-27-3-27v-69l2-28 3-26 8-38 8-29 13-33 13-28 6-11 9-15 8-12 9-13h2l2-5 12-14 9-11 16-16 8-7 10-9 28-21 10-7 2-2-1-25-1-5v-12l3-44 3-23 7-36 8-27 10-24 12-24 10-17 10-13 11-13 7-9 11-10 19-14 16-8 11-4 6-1h30l20 5 25 10 14 8 16 11 14 11 10 9 8 7 7 7 11 14 9 11 10 13 1 1 9-1 26-5 27-3h40l36 4 22 4h5l10-15 13-16 14-15 5-6 8-7 12-11 10-7 14-10 22-11 16-5 12-3z" fill="#3AA5FC"/>
<path transform="translate(1212,636)" d="m0 0 4 8 12 6 13 11 20 18 7 8 10 11 6 11 7 10 13 21 8 16 5 14v2h2v5h2v5h2l1 8h2l6 19 5 21 2 17 3 27 1 21v16l-1 33-1 8h-2v13l-2 10-1 1-1 8-1 1-3 15-4 10-4 13-2 3-1 5h-2l-1 5-5 11-3 8-4 8h-2l-3 9h-2l-2 6-2 4h-2l-2 6-6 8-1 2h-2l-1 4-4 4-2 4h-2l-1 4-16 16-18 12-15 8-26 10-32 10-37 9-42 8-48 6-52 4-27 1h-64l-28-2-46-5-37-6-36-8-48-13-28-11-33-15-20-10-23-13-21-13-17-12-16-13-11-9-20-20-11-14-10-15-6-10-18-2-15-4-12-5-10-6-10-9-8-11-6-15-4-17-1-6v-24l3-16 6-18 9-15 11-13 11-12 14-11 12-9 12-8 20-14 11-9 7-8 5-10 2-6v-19l-6-33v-20l1-12 3 2v2l3 1 1 4 3 1 8 10 5 6 14 11 10 6 15 8 16 5 4 2 16 3h38l9-2 11-2 10-4 13-5 6-3h2v-2l5-1v-2h3v-2l3-2h3l1-3 11-9 7-7 3-4h2l1-4h2l2-5h2l2-4 9-6 25-9 24-7 25-5 21-3 14-1h50l23 2 11 2 6 12v2h2l7 12 12 14 12 12 9 6v2l4 1 17 9 17 6 10 2 1 1 16 2 3 1h28l8-2 15-3 9-3 12-5 9-3v-2l6-3h2v-2h3v-2h3v-2l11-9 9-10h2l2-4 4-5 1-3 3-3 6-10 3-10 6-14z" fill="#F9FCFD"/>
<path transform="translate(1024,244)" d="m0 0h13l17 3 12 5 16 8 12 9 11 10 8 7 7 7 7 8 11 15 12 19 10 19 10 25 7 20 6 21 5 23 3 21 1 13v23l3 5 9 11 6 9 8 15 6 15 4 26v15l5 2 21 14 10 8 8 6v2l4 2 9 9 8 7 10 11 9 11 10 13 16 24 13 24 8 16 8 19 9 28 4 16 6 31 4 36v42l-2 25-4 30-8 36-5 17-9 24-11 23-7 12-6 11-9 15-14 19-8 10-10 12-3 6 1 7 3 13v29l-4 20-6 14-9 16-11 13-12 12-14 11-16 8-16 6-13 3-7 1h-40l-14 1-19-2-21-6-13-8-10-8-9-10-26 5-28 5-27 4-24 2-23 1h-111l-38-2-3-1-23-2-17-2-8-2-13-2-9-1-8 7-4 5-17 11-10 5-12 4-45 3h-23l-23-2-26-5-17-5-16-8-10-8-11-11-3-4-4 1-17 11-19 9-13 4-21 2-13-1-16-3h-18l-15 1-14-1-21-8-14-8-14-12-12-15-9-16-3-11-2-6-1-7v-25l4-16 8-14 4-4 1-4-4-7-12-20-11-23-10-24-8-22-8-30-5-23-4-27-3-27v-69l2-28 3-26 8-38 8-29 13-33 13-28 6-11 9-15 8-12 9-13h2l2-5 12-14 9-11 16-16 8-7 10-9 28-21 10-7 2-2-1-25-1-5v-12l3-44 3-23 7-36 8-27 10-24 12-24 10-17 10-13 11-13 7-9 11-10 19-14 16-8 11-4 6-1h30l20 5 25 10 14 8 16 11 14 11 10 9 8 7 7 7 11 14 9 11 10 13 1 1 9-1 26-5 27-3h40l36 4 22 4h5l10-15 13-16 14-15 5-6 8-7 12-11 10-7 14-10 22-11 16-5 12-3zm-478 46-13 2-11 6-14 10-5 5-9 10-10 15-14 27-10 24-6 28-3 16-3 18-2 32v29l4 40 4 18-1 4-21 14-10 6-17 9-16 12-14 12-8 7v2l-4 2-14 15-9 11-7 9-11 16-12 20-11 20-5 14-5 12-5 15-6 21-5 18-5 25-3 27-1 21v44l2 32 5 36 6 30 9 31 7 20 9 20 12 22 6 9 12 17 4 7-13 5-8 8v2l-3 1-6 11-3 9-1 7v15l3 16 5 12 11 14 4 1 1-15 6-18 1-1h7l1 1v32l2 8 6 4 14 3 5-1v-23l6-12 9-2 1 7 1 20 3 9 6 3 4 1h20l15-4 10-9 5-10 4-13 5-5 6-2h13l1-5 1-35 5-16 7-9 5-4 15-5 4-5 2-1-1 13v28l3 22 1 2-3 1-1 4 6 21 8 18 5 8 8 8 9 6 14 2-1-6-2-6 1-11 4-8 4-3 6 1 4 7 5 24 5 5 18 2h9l3-2 2-14 4-11 5-6 6-1 5 5 3 6 1 4 1 17 8-1 14-5 6-3 6-8 5-10 4-15 3-21 4-9 6-3 7-1 9 4 5 6 3 10 1 13 20 4 36 5 49 3h93l34-2 40-4 33-5 16-3 1-2 1-9 4-5 1-2 8-2 12 1 3-3 2-8 3-1 2 11 2 15 6 20 5 10 4 6 8 5 19 6h7l5-4 9-19 5-10 3-3h7l3 3 2 7-1 13-2 7v6l4 1 21-3 5-3 4-8 2-2 1-13 2-11 2-4 9-1 3 1 3 14-1 10-1 7 2 1 9-6 9-9 10-18 4-12 2-11v-28l-4-20-5-12-2-3 1-5 9-11 7-8 4-8 3-3v-2l3-1 1-3 5-5v-3h2l4-6 5-8v-2h2l4-8v-2h2l3-9h2l6-12 5-13 2-3v-4h2l2-7 3-8 8-24 1-7 1-1 1-8 2-6 1-5v-13h2l1-8 1-33v-16l-2-33-3-20-2-17-6-23-4-12h-2l-1-8h-2v-5h-2v-5h-2l-6-18-8-16-12-19-9-13-5-9-15-16-4-5-8-7-5-4-5-5-12-10-13-7-2-7-3 3-7 17-3 9-5 8-2 1-4 7-3 3v2l-4 2-7 8-11 9v2h-3v2h-3v2l-5 2-3 1v2l-9 3-12 5-9 3-15 3-8 2h-28l-11-2-8-1-7-2-11-3-12-5-15-8-4-1v-2l-11-8-14-14-10-13-5-9h-2l-5-15-6-25-2-13v-23l3-19 6-20 11-21 10-13 11-12 14-11 14-10 17-8 19-5 15-3 13-1h10l25 3 14 4 12 4 4-1v-19l-5-30-12-36-9-21-10-17-10-15-14-18-12-11-13-10-10-5-10-3h-27l-16 4-12 6-15 11-8 6-22 22-8 10v2h-2l-13 19-7 11 3 5h2l2 4 16 16 8 10 2 4-12-5-28-11-18-5-23-5-33-4-30-1-24 1-25 3-28 6-17 5-5 2-7-8-7-10-10-13-11-12-7-8-9-10-14-14-8-7-9-8-16-10-15-9-21-6-7-1z" fill="#010102"/>
<path transform="translate(423,988)" d="m0 0 11 7 13 6 13 4 11 2 12 1 14 22 11 14 11 12 13 13 11 9 15 12 24 16 20 12 12 7 16 8 27 13 29 12 20 7 41 11 36 8 37 6 46 5 28 2h64l27-1 52-4 48-6 42-8 44-11 36-12 21-9 14-8 14-10 10-10v3l-7 9-9 10-2 3 1 6 5 10 4 16 1 7v28l-3 15-7 16-7 11-10 10-8 4-1-4 2-8-1-13-2-7-9-1-3 1-2 4-2 11-1 13-3 3-4 8-4 2-23 3-2-1 1-9 2-12-1-8-2-5-2-2h-7l-5 6-8 18-5 9-4 3h-7l-21-7-7-5-5-9-5-12-5-18-2-16-1-6-3 1-3 10-3 1-11-1-8 2-4 6-1 1-1 9-1 2-34 6-32 4-36 3-21 1h-93l-49-3-42-6-14-3-2-18-4-8-6-5-8-2-9 3-4 4-2 6-4 26-4 12-5 10-6 7-16 6-6 2h-5l-1-17-3-9-4-5-5-1-5 3-5 8-3 12-1 9-3 2h-11l-16-2-5-5-5-24-4-7-6-1-5 5-3 6-1 11 3 8-1 4-13-2-11-8-8-8-9-19-5-14-3-14 2-3h2l-2-8-2-16v-28l1-13-7 7-11 3-5 3-6 5-5 8-3 11-4 1-9-7-14-14-8-10-11-18-8-16-8-22-5-14-1-1-1-16 2-29 3-12 6-14 3-14z" fill="#3AA5FC"/>
<path transform="translate(546,290)" d="m0 0h12l14 3 14 4 15 9 9 6 7 4 5 5 10 9 8 7 15 15 7 8 9 10 8 10 10 13 8 11 4 2 9-4 33-8 21-3 10-1 25-1 29 1 33 4 31 7 21 7 21 9 9 3-14-17-15-15v-2l-3-1-2-5 13-19 7-10h2l2-5 15-16 16-16 19-13 8-5 16-5 5-1h27l15 5 11 7 14 13 8 7 6 8 7 10 11 17 7 12 10 24 9 27 3 12 4 24v19l-4 1-21-7-20-3-10-1h-10l-19 2-17 4-8 1 3-2 18-5 13-2h30l19 2 17 5 5-1 1-3-4-24-6-25-12-36-8-16-10-17-10-14-1-3h-2l-6-8-8-8-12-9-9-6-10-4-7-1h-23l-13 4-10 5-7 9-8 16-7 19-7 25-7 41-1 13-5-1-11-5-27-11-23-7-24-5-26-4-12-1h-47l-26 3-19 4-26 7h-3l3 9-1 3-3-2v-2l-3-1-9-11-13-17-8-10-6-7v-2h-2l-8-10-2-4-4-2-18-18-8-7-17-13-13-8-8-4-17-5-9-1h-11l-9 2-7 6-9 16-8 20-8 28-7 34-5 32-4 44-2 56-2 10-7 8-8 7-11 9h-2l-3 9-5 5-9 10-7 9-11 10-11 9-15 14-10 8-15 14-12 11-13 13-9 11-6 7-10 13-10 14-8 13-12 23-2 5 1 7 6 10 6 14 5 20 5 46 3 30 5 30 7 28 7 20 12 26 9 16 10 16 11 16 11 13 9 11 12 12 5 3 12 34 8 16 9 15 7 9 11 12 8 8 6 4h3l-1 42-1 1h-13l-7 3-5 6-5 16-6 8-7 6-15 4h-20l-9-3-3-6-1-4-1-20-1-7-9 2-6 12v23l-5 1-14-3-6-4-2-8v-32l-1-1h-7l-4 9-3 10-1 15-5-2-11-15-4-10-3-16v-15l3-14 5-10 3-4h2l2-4 8-7 11-4-4-7-12-17-8-13-10-18-9-20-7-20-9-31-7-36-4-30-2-32v-44l2-33 4-26 5-22 7-24 11-33 5-12 7-14 10-18 9-14 12-17 9-11 12-13 8-9h2l2-4 10-9 11-9 17-12 24-13 11-8 10-6 2-2-2-11-3-18-3-32v-29l2-32 5-29 6-29 5-14 8-18 12-23 8-12 9-11 5-5 11-9 16-9z" fill="#0D41A7"/>
<path transform="translate(621,468)" d="m0 0h35l19 3 21 7 13 7 16 12 12 11 11 14 8 13 9 19 5 16 2 12 1 24-3 25-4 15-10 23-5 9-5 6-3 3-1 3-15 15-8 6-1 2-6 2v2h-3v2l-5 1v2l-10 5-11 4-10 4-11 2-9 2h-38l-16-3-8-3-14-5-16-9-7-4-10-8-6-5-9-11-6-7-4-5-8-17-5-15-4-17-2-14v-24l2-16 5-18 7-16 9-14 8-10 9-10 11-10 17-12 15-8 17-6 13-3z" fill="#010102"/>
<path transform="translate(1266,1118)" d="m0 0v3l-7 9-9 10-2 3 1 6 5 10 4 16 1 7v28l-3 15-7 16-7 11-10 10-8 4-1-4 2-8-1-13-2-7-9-1-3 1-2 4-2 11-1 13-3 3-4 8-4 2-23 3-2-1 1-9 2-12-1-8-2-5-2-2h-7l-5 6-8 18-5 9-4 3h-7l-21-7-7-5-5-9-5-12-5-18-2-16-1-6-3 1-3 10-3 1-11-1-8 2-4 6-1 1-1 9-1 2-34 6-32 4-36 3-21 1h-93l-49-3-42-6-14-3-2-18-4-8-6-5-8-2-11 3 3-3 5-2h3l-3-11-1-14-1-10-1-2 11 2 33 9 36 8 37 6 46 5 28 2h64l27-1 52-4 48-6 42-8 44-11 36-12 21-9 14-8 14-10z" fill="#7C86D3"/>
<path transform="translate(907,700)" d="m0 0h13l7 3 7 6 6 12 5 13 8 10 10 9 13 8 13 5 6 2h17l10-3 4-3 2-9 5-8 10-5h9l9 3v2l4 2 6 8 1 3v15l-5 12-11 12-12 9-12 5-11 3h-30l-18-4-8-3-14-7-15-10-11-9-12-12-4 2-3 5-11 9-7 6h-2v2l-6 2v2l-8 4h-2v2l-9 4-10 3-7 2-5 2-10 1h-31l-17-5-9-5-9-7-5-4-8-10-3-6-2-12 1-10 4-7 8-7 5-2h12l7 4 5 4 3 7 2 7 8 5 10 3h15l17-5 16-8 13-10 5-4 8-10 1-4h2l1-10 5-9 5-5 7-4z" fill="#010204"/>
<path transform="translate(423,988)" d="m0 0 11 7 13 6 13 4 11 2 12 1 14 22 11 14 11 12 13 13 11 9 15 12 6 4-1 5-13 3-9 5-10 9-6 9-6 14-1 7-1 18v19l3 22 5 15 8 18 10 16 8 10 5 4 4 2v-12l3-9 1 2-2 10 1 8 2 4-1 4-13-2-11-8-8-8-9-19-5-14-3-14 2-3h2l-2-8-2-16v-28l1-13-7 7-11 3-5 3-6 5-5 8-3 11-4 1-9-7-14-14-8-10-11-18-8-16-8-22-5-14-1-1-1-16 2-29 3-12 6-14 3-14z" fill="#7E87D3"/>
<path transform="translate(1266,1118)" d="m0 0v3l-7 9-9 10-2 3 1 6 5 10 4 16 1 7v28l-3 15-7 16-7 11-10 10-8 4-1-4 2-8-1-13-2-7-9-1-3 1-2 4-2 11-1 13-3 3-4 8-4 2-23 3-2-1 1-9 2-12-1-8-2-5-2-2h-7l-5 6-8 18-5 9-4 3h-7l-21-7-7-5-5-9-5-12-5-18-2-16-1-6-3-1 4-4 3-6 7-3 1-4 5-3 38-8 31-8 36-12 21-9 14-8 14-10z" fill="#3AA4FB"/>
<path transform="translate(645,505)" d="m0 0h26l10 3 13 7 10 8 8 11 4 8 3 9v22l-3 9-7 12-9 9-10 6-12 4-6 1h-22l-16-5-10-6-11-11-7-12-4-13v-20l3-10 3-6h2l1-4 9-10 5-4 10-5z" fill="#F8FBFD"/>
<path transform="translate(1080,504)" d="m0 0h21l14 2 11 6 11 9 8 10 6 13 2 8v15l-4 13-4 8h-2l-2 5-9 9-8 4h-2v2l-12 3h-25l-10-3-12-6-10-9-7-8-7-14-2-7v-17l3-9 4-9 8-10 4-4h2v-2l7-4 10-4z" fill="#F8FBFD"/>
<path transform="translate(1212,636)" d="m0 0 4 8 12 6 13 11 20 18 7 8 10 11 6 11 7 10 13 21 8 16 1 5-3-4-10-19-8-10-8-7-14-9-16-7-20-7-12-6-10-9-3-8-1-23-4 7-1-3 8-19z" fill="#3BA5FC"/>
<path transform="translate(535,245)" d="m0 0h30l20 5 25 10 14 8 16 11 14 11 10 9 8 7 7 7 11 14 5 6-1 2-5-5-7-6-8-10-8-8-11-9-12-10-5-4-7-4-15-9-3-3-14-7-12-5-5-2v-2l-13-1-4-2-10 1v-2h-15l-14 3-12 6-11 6-12 9-4 2-1 3-4 2-3 5-8 7-6 7h-2l-2 4-11 14-5 8-10 18-11 18-3 6-1-3 14-28 10-17 10-13 11-13 7-9 11-10 19-14 16-8 11-4z" fill="#3E1518"/>
<path transform="translate(1219,545)" d="m0 0 2 2 4 13 3 21v15l5 2 21 14 10 8 8 6v2l4 2 9 9 8 7 10 11 9 11 10 13 16 24 13 24 8 16 8 19 9 28 4 16 6 31 2 16v9h-1l-4-28-8-35-5-16-9-26-4-10-6-13-5-9-10-17-8-12-3-5-12-16-8-10-14-15-7-8-17-17-11-8-15-10-11-9-4-4-1-10-4-29-2-8z" fill="#3E1518"/>
<path transform="translate(1083,1202)" d="m0 0 4 2 5 14 8 13 10 13 9 10 9 8 13 9h2l-2 4-3 2h-7l-21-7-7-5-5-9-5-12-5-18-2-16-1-6-3-1z" fill="#0D41A7"/>
<path transform="translate(515,1141)" d="m0 0h3l-1 23v19l3 22 5 15 8 18 10 16 8 10 5 4 4 2v-12l3-9 1 2-2 10 1 8 2 4-1 4-13-2-11-8-8-8-9-19-5-14-3-14 2-3h2l-2-8-2-16v-28l1-13-3 1z" fill="#0D41A7"/>
<path transform="translate(1038,245)" d="m0 0h7l15 4 16 8 12 7 14 12 13 12 13 14 10 14 12 19 10 19 10 25 7 20 3 9-1 4-8-22-5-14-5-12-7-16-6-12-4-6v-2h-2l-8-11-8-9-7-9-12-13-14-12-20-14-9-4-10-6-6-1v-2l-10-1z" fill="#3E1518"/>
<path transform="translate(1212,636)" d="m0 0 4 8 12 6 13 11 20 18 7 8 10 11 6 11 7 10 5 8-1 2-8-11-9-12-9-11-15-16-16-15-18-13-5-1-1 3-3-3v-5h-2l-1 3-1-2z" fill="#0D41A7"/>
<path transform="translate(344,592)" d="m0 0 2 1-12 13-6 7h-2l-1 3-7 6-9 11-6 8-3 3-3 5-9 11-1 2h-2l-2 5-16 28-10 19-4 7-1-3 14-29 6-10 13-20 9-13h2l2-5 12-14 9-11 16-16 8-7z" fill="#3E1518"/>
<path transform="translate(695,335)" d="m0 0 5 4 9 12 1 1 9-1 26-5 27-3h40l29 3v1h-15l-10-1-32-1-27 2-10 2-12 2-10 2-8 2h-8l-5-5-10-13z" fill="#3E1518"/>
<path transform="translate(940,279)" d="m0 0 2 1-3 3h-2l-2 5-12 10-17 17-3 5h-2l-2 5-7 7-9 12-4 3 2-5 8-11 9-11 14-15 5-6 8-7 12-11z" fill="#3D1417"/>
<path transform="translate(241,745)" d="m0 0 1 3-2 6-2 11-3 12-2 4-3 13-4 17-2 5-4 25h-1v-9l5-27 7-29 6-20z" fill="#3E1518"/>
<path transform="translate(1162,1238)" d="m0 0 6 1 4 4 2 7v9l-1 9-1 6v2l20-4 4-2 5-10 4-20 2-2-2 21-1 4-6 10-4 2-23 3-2-1 1-9 2-12-1-8-2-5-2-2h-7l-4 3 2-4z" fill="#0D41A7"/>
<path transform="translate(1011,245)" d="m0 0h8v1l-13 3-12 5-14 4-14 7-18 12-6 2 5-5 14-10 22-11 16-5z" fill="#3E1518"/>
<path transform="translate(1184,428)" d="m0 0 2 4 4 23 2 22v23l3 5 9 11 3 4-1 2-2-4h-2v-2h-2v-2h-2l-4-5v-2h-2l-2-5-3-50-3-18z" fill="#3E1518"/>
<path transform="translate(504,564)" d="m0 0 1 4-3 13-1 11v24l4 24 6 19 4 10-1 2-7-14-5-17-3-16-1-12v-16l3-21z" fill="#0D41A7"/>
<path transform="translate(398,439)" d="m0 0h1v9l-2 13-2 42-2 26h-1l-1-5v-12l3-44 3-23z" fill="#3E1518"/>
<path transform="translate(387,559)" d="m0 0 2 1-20 16-7 5-4 4-9 6-2-1 10-9 9-7 14-10z" fill="#3E1518"/>
<path transform="translate(692,1217)" d="m0 0h1l-1 15-4 18-5 11-4 6-4 5-7 3-3-1 9-5 7-9 5-11 3-12z" fill="#0D41A7"/>
<path transform="translate(1224,1238)" d="m0 0 2 2 1 5v15h3l8-7 2-3h2l2-5 2-1-2 5-7 8-7 6-6 3-1-4 2-8z" fill="#0D41A7"/>
<path transform="translate(1289,720)" d="m0 0 4 5 7 8 10 18 3 7-1 3-12-23-8-10-5-6h2z" fill="#4C68BF"/>
<path transform="translate(500,1285)" d="m0 0 5 2 10 8 10 5v2l5 1 1 2-9-3-9-5-10-8z" fill="#3E1518"/>
<path transform="translate(1219,1150)" d="m0 0 4 1-3 3-13 5-4-1 1-2z" fill="#2768C6"/>
<path transform="translate(1266,1118)" d="m0 0v3l-7 9-8 9v-3l2-4h2l1-4z" fill="#0D41A7"/>
<path transform="translate(288,1265)" d="m0 0 8 6 7 4 3 6-4-2-11-9-3-3z" fill="#3E1518"/>
<path transform="translate(1289,720)" d="m0 0 4 5 4 4-1 3-9-9 2-1z" fill="#7687D5"/>
<path transform="translate(1266,1118)" d="m0 0v3l-5 5-6 5 2-4z" fill="#3F60BB"/>
</svg>
