<?xml version="1.0" encoding="UTF-8"?>
<svg width="1080px" height="1080px" viewBox="0 0 1080 1080" version="1.1" xmlns="http://www.w3.org/2000/svg" xmlns:xlink="http://www.w3.org/1999/xlink">
    <title>Dark_1080x1080</title>
    <defs>
        <path d="M540,0 C838.233765,-5.47846538e-14 1080,241.766235 1080,540 C1080,838.233765 838.233765,1080 540,1080 C241.766235,1080 1.82615513e-14,838.233765 0,540 C-3.65231026e-14,241.766235 241.766235,3.65231026e-14 540,0 Z" id="path-1"></path>
    </defs>
    <g id="Dark_1080x1080" stroke="none" fill="none" xlink:href="#path-1" fill-rule="evenodd">
        <use fill="#07D1E2" xlink:href="#path-1"></use>
        <path d="M783.596726,349.616556 C776.017802,338.71474 767.185737,328.56092 757.263612,319.413024 C722.029768,286.931114 673.449121,266.89 619.692832,266.89 L266.23,266.89 L309.351762,342.067822 C318.861895,358.652683 336.508859,368.883882 355.606374,368.883882 L459.093453,368.883882 L619.701416,368.720527 C642.970344,368.720527 663.981903,377.40415 679.148335,391.452705 C694.400598,405.441076 703.807734,424.811574 703.807734,446.193921 C703.807734,489.035995 666.170607,523.736097 619.701416,523.736097 L568.786151,523.572741 L332.517692,523.572741 L375.639454,598.750564 C385.149588,615.335424 402.796551,625.566624 421.894067,625.566624 L442.845544,625.566624 C451.814939,625.566624 459.08487,632.84883 459.08487,641.833371 L459.08487,890.89 L537.612138,830.156224 C553.473805,817.887382 562.76936,798.946767 562.76936,778.862664 L562.76936,641.833371 C562.76936,632.84883 570.039291,625.566624 579.008686,625.566624 L619.701416,625.566624 C697.01846,625.566624 763.752476,583.997002 795.123901,523.736097 C807.372061,500.264521 814.23,473.972918 814.23,446.193921 C814.23,410.616859 802.994652,377.524517 783.596726,349.616556 Z" id="Path" fill="#070808"></path>
    </g>
</svg>