<svg xmlns="http://www.w3.org/2000/svg" xmlns:xlink="http://www.w3.org/1999/xlink" width="1080" height="1080" viewBox="0 0 1080 1080"><defs><path id="a" d="M540 0c298.234 0 540 241.766 540 540s-241.766 540-540 540S0 838.234 0 540 241.766 0 540 0"/></defs><g fill="none" fill-rule="evenodd"><use xlink:href="#a" fill="#07D1E2"/><path fill="#070808" d="M783.597 349.617a184 184 0 0 0-26.333-30.204c-35.234-32.482-83.815-52.523-137.571-52.523H266.23l43.122 75.178c9.51 16.585 27.157 26.816 46.254 26.816h103.487l160.608-.163c23.27 0 44.28 8.683 59.447 22.732 15.253 13.988 24.66 33.359 24.66 54.74 0 42.843-37.637 77.543-84.107 77.543l-50.915-.163H332.518l43.121 75.178c9.51 16.584 27.158 26.816 46.255 26.816h20.952c8.969 0 16.239 7.282 16.239 16.266V890.89l78.527-60.734a64.84 64.84 0 0 0 25.157-51.293v-137.03c0-8.984 7.27-16.266 16.24-16.266H619.7c77.317 0 144.051-41.57 175.423-101.83 12.248-23.472 19.106-49.764 19.106-77.543 0-35.577-11.235-68.67-30.633-96.577"/></g></svg>