<?xml version="1.0" encoding="UTF-8"?>
<svg version="1.1" xmlns="http://www.w3.org/2000/svg" width="200" height="200">
<path d="M0 0 C66 0 132 0 200 0 C200 66 200 132 200 200 C134 200 68 200 0 200 C0 134 0 68 0 0 Z " fill="#00FEDF" transform="translate(0,0)"/>
<path d="M0 0 C2.44911256 0.11854917 4.88639266 0.14354008 7.33813477 0.15454102 C8.90791826 0.1875913 10.47760328 0.22581516 12.04711914 0.26977539 C13.1331266 0.28753273 13.1331266 0.28753273 14.24107361 0.3056488 C18.2145311 0.52922899 19.82504637 1.0327766 22.82470703 3.73291016 C23.53876709 4.54042725 24.25282715 5.34794434 24.98852539 6.17993164 C27.60243929 6.42394442 27.60243929 6.42394442 29.98852539 5.17993164 C30.85477539 4.15899414 30.85477539 4.15899414 31.73852539 3.11743164 C33.98852539 1.17993164 33.98852539 1.17993164 42.98852539 1.17993164 C42.98852539 32.52993164 42.98852539 63.87993164 42.98852539 96.17993164 C42.32852539 96.17993164 41.66852539 96.17993164 40.98852539 96.17993164 C40.49352539 97.66493164 40.49352539 97.66493164 39.98852539 99.17993164 C39.32852539 99.17993164 38.66852539 99.17993164 37.98852539 99.17993164 C37.98852539 99.83993164 37.98852539 100.49993164 37.98852539 101.17993164 C37.32852539 101.17993164 36.66852539 101.17993164 35.98852539 101.17993164 C35.98852539 101.83993164 35.98852539 102.49993164 35.98852539 103.17993164 C28.4819436 103.43469165 20.97648576 103.60909681 13.46655273 103.72924805 C10.91534778 103.77936042 8.36442749 103.84747257 5.81420898 103.93432617 C-16.48824579 104.67454822 -16.48824579 104.67454822 -21.9453125 101.06982422 C-25.81395988 97.3502484 -28.46190984 94.11448706 -28.69897461 88.61743164 C-28.01147461 85.17993164 -28.01147461 85.17993164 -27.01147461 84.17993164 C-25.44699078 84.05729776 -23.87714689 84.00213642 -22.30810547 83.97460938 C-21.3071434 83.95466415 -20.30618134 83.93471893 -19.27488708 83.91416931 C-18.18635941 83.89745682 -17.09783173 83.88074432 -15.97631836 83.86352539 C-14.86793106 83.84274429 -13.75954376 83.8219632 -12.61756897 83.80055237 C-9.06143653 83.73493541 -5.50522758 83.67611568 -1.94897461 83.61743164 C0.45533032 83.57425796 2.85962738 83.53064406 5.26391602 83.48657227 C11.17204174 83.37840969 17.08022179 83.27942654 22.98852539 83.17993164 C23.31852539 75.91993164 23.64852539 68.65993164 23.98852539 61.17993164 C18.71897159 65.69986021 18.71897159 65.69986021 13.76977539 70.55102539 C8.98820364 73.35146839 3.92769646 73.12244993 -1.51147461 73.24243164 C-3.17436523 73.37875 -3.17436523 73.37875 -4.87084961 73.51782227 C-12.09562943 73.67323904 -16.95975072 71.81220276 -22.25756836 67.05493164 C-29.31169043 59.88170308 -29.80940901 51.95291447 -29.73999023 42.27172852 C-29.71074463 41.25973389 -29.68149902 40.24773926 -29.65136719 39.20507812 C-29.57386351 36.11299928 -29.63042925 33.04327796 -29.70092773 29.95141602 C-29.72756978 20.97847513 -29.51010435 12.63251647 -23.06616211 5.81274414 C-16.36119278 -0.25750259 -8.64917666 -0.42775963 0 0 Z " fill="#010C0E" transform="translate(80.011474609375,37.820068359375)"/>
<path d="M0 0 C0.886875 0.12375 1.77375 0.2475 2.6875 0.375 C2.80333311 12.41423693 2.89218486 24.45334136 2.94656086 36.49302197 C2.97265829 42.08352015 3.00805972 47.6736372 3.06469727 53.26391602 C3.11901076 58.65854451 3.14891943 64.05280634 3.16188622 69.44768715 C3.17112721 71.50622646 3.18917281 73.56474562 3.21615028 75.62312889 C3.25243144 78.5059488 3.25744569 81.38725232 3.25512695 84.27026367 C3.27310333 85.12190598 3.29107971 85.97354828 3.30960083 86.85099792 C3.27141926 91.23608842 3.08169819 92.87310243 0.27702332 96.44404602 C-2.3125 98.375 -2.3125 98.375 -4.3125 98.375 C-4.3125 99.035 -4.3125 99.695 -4.3125 100.375 C-4.9725 100.375 -5.6325 100.375 -6.3125 100.375 C-6.580625 101.014375 -6.84875 101.65375 -7.125 102.3125 C-8.3125 104.375 -8.3125 104.375 -11.3125 105.375 C-11.3125 106.035 -11.3125 106.695 -11.3125 107.375 C-17.87743425 107.55300729 -24.44174289 107.67528852 -31.00854492 107.75952148 C-33.24055232 107.79464699 -35.47239953 107.84235957 -37.70385742 107.90307617 C-40.91885942 107.98834144 -44.13172694 108.02776794 -47.34765625 108.05859375 C-48.33959488 108.09472275 -49.33153351 108.13085175 -50.35353088 108.16807556 C-55.57889889 108.17101325 -58.64382942 107.70511449 -62.56030273 104.08227539 C-64.26438904 102.27284241 -64.26438904 102.27284241 -65.3125 100.375 C-64.98451233 98.14329529 -64.98451233 98.14329529 -64.3125 96.375 C-62.39957153 96.41596802 -62.39957153 96.41596802 -60.44799805 96.45776367 C-55.67087161 96.54525787 -50.89576408 96.55917193 -46.11791992 96.55200195 C-44.0588393 96.55893488 -41.99972188 96.58525355 -39.94116211 96.63208008 C-36.96247779 96.69634745 -33.9908874 96.68852594 -31.01171875 96.66796875 C-30.1060466 96.70286911 -29.20037445 96.73776947 -28.26725769 96.77372742 C-21.68095347 96.63011517 -17.40313292 94.1563939 -12.78234959 89.45979309 C-7.11296113 82.70706311 -7.93383989 74.80983185 -8.1953125 66.44921875 C-8.2061101 64.73056068 -8.21128973 63.0118591 -8.21115112 61.29316711 C-8.22241357 56.79787787 -8.29480168 52.30590475 -8.3850708 47.81158447 C-8.52253764 40.603617 -8.57969127 33.39524806 -8.61074448 26.18613625 C-8.63245508 23.67800974 -8.68882672 21.17241552 -8.7492981 18.66496277 C-8.76640267 17.12390283 -8.78247928 15.58283103 -8.79736328 14.04174805 C-8.82327042 13.35124359 -8.84917755 12.66073914 -8.87586975 11.9493103 C-8.87930461 8.29249095 -8.28352318 5.80895033 -6.15719604 2.89582825 C-3.3125 0.375 -3.3125 0.375 0 0 Z " fill="#010C0E" transform="translate(143.3125,56.625)"/>
<path d="M0 0 C10.89 0 21.78 0 33 0 C33.020625 5.259375 33.04125 10.51875 33.0625 15.9375 C33.071604 17.599021 33.08070801 19.26054199 33.09008789 20.97241211 C33.09258545 22.26928955 33.09508301 23.56616699 33.09765625 24.90234375 C33.10277222 25.58816528 33.10788818 26.27398682 33.11315918 26.98059082 C33.11347054 28.65415231 33.06222837 30.3275958 33 32 C31.09150052 33.90849948 27.68521226 33.13059633 25.15625 33.1328125 C24.47195923 33.13376923 23.78766846 33.13472595 23.0826416 33.13571167 C21.63338123 33.1363933 20.18411782 33.13454023 18.73486328 33.13037109 C16.50937072 33.12502252 14.28407999 33.1303166 12.05859375 33.13671875 C10.65364539 33.13605797 9.24869715 33.1347768 7.84375 33.1328125 C6.55662109 33.13168457 5.26949219 33.13055664 3.94335938 33.12939453 C1 33 1 33 0 32 C-0.08838648 29.62458949 -0.11537523 27.2776642 -0.09765625 24.90234375 C-0.09515869 23.60546631 -0.09266113 22.30858887 -0.09008789 20.97241211 C-0.08098389 19.31089111 -0.07187988 17.64937012 -0.0625 15.9375 C-0.041875 10.678125 -0.02125 5.41875 0 0 Z " fill="#00FEDF" transform="translate(71,58)"/>
</svg>
