<svg xmlns="http://www.w3.org/2000/svg" width="200" height="200"><path fill="#00FEDF" d="M0 0h200v200H0z"/><path fill="#010C0E" d="M80.011 37.82c2.45.119 4.887.144 7.339.155q2.355.048 4.709.115l2.194.036c3.973.223 5.584.727 8.583 3.427L105 44c2.614.244 2.614.244 5-1l1.75-2.063C114 39 114 39 123 39v95h-2l-1 3h-2v2h-2v2c-7.507.255-15.012.43-22.522.55q-3.827.075-7.652.204c-22.303.74-22.303.74-27.76-2.864-3.868-3.72-6.516-6.955-6.754-12.453C52 123 52 123 53 122a78 78 0 0 1 4.703-.205l3.034-.06 3.298-.051 3.359-.063q5.334-.097 10.668-.184l7.213-.13c5.909-.109 11.817-.208 17.725-.307l1-22c-5.27 4.52-5.27 4.52-10.219 9.371-4.781 2.8-9.842 2.572-15.281 2.691l-3.36.276c-7.224.155-12.088-1.706-17.386-6.463-7.054-7.173-7.552-15.102-7.483-24.783l.09-3.067c.077-3.092.02-6.162-.05-9.254-.027-8.972.19-17.318 6.634-24.138 6.705-6.07 14.417-6.24 23.066-5.813"/><path fill="#010C0E" d="M143.313 56.625 146 57q.176 18.059.26 36.118c.025 5.59.06 11.18.117 16.77.055 5.396.084 10.79.097 16.185q.015 3.088.055 6.175c.036 2.883.04 5.764.039 8.647l.054 2.581c-.038 4.385-.228 6.022-3.032 9.593C141 155 141 155 139 155v2h-2l-.812 1.938C135 161 135 161 132 162v2c-6.565.178-13.13.3-19.696.385a584 584 0 0 0-6.695.143 574 574 0 0 1-9.644.156l-3.006.11c-5.225.002-8.29-.464-12.207-4.087-1.704-1.81-1.704-1.81-2.752-3.707.328-2.232.328-2.232 1-4l3.865.083c4.777.087 9.552.101 14.33.094q3.089.01 6.176.08c2.979.064 5.95.057 8.93.036l2.744.106c6.587-.144 10.864-2.618 15.485-7.314 5.67-6.753 4.849-14.65 4.587-23.01q-.016-2.58-.016-5.157a767 767 0 0 0-.174-13.481c-.137-7.208-.194-14.417-.225-21.626a487 487 0 0 0-.139-7.521l-.048-4.623-.078-2.093c-.004-3.657.592-6.14 2.718-9.053C140 57 140 57 143.312 56.625"/><path fill="#00FEDF" d="M71 58h33l.063 15.938.027 5.034.008 3.93.015 2.079c0 1.673-.05 3.347-.113 5.019-1.908 1.908-5.315 1.13-7.844 1.133l-2.073.003q-2.175 0-4.348-.006-3.338-.005-6.676.007-2.108 0-4.215-.004l-3.9-.004C72 91 72 91 71 90a158 158 0 0 1-.098-7.098l.008-3.93.028-5.034z"/></svg>