<svg xmlns="http://www.w3.org/2000/svg" xml:space="preserve" viewBox="0 0 2496 2496"><path fill="#f0b90b" fill-rule="evenodd" d="M1248 0a1248 1248 0 1 1 0 2496 1248 1248 0 0 1 0-2496" clip-rule="evenodd"/><path fill="#fff" d="m686 1248 1 330 280 165v193l-444-260v-524zm0-330v192l-163-96V821l163-96 164 96zm398-97 164-96 164 96-164 97z"/><path fill="#fff" d="M804 1510v-194l163 97v192zm280 302 164 97 164-97v193l-164 96-164-97zm562-991 163-96 164 96v193l-164 96V918zm163 757 1-330 163-97v524l-444 261v-193z"/><path fill="#fff" d="m1692 1510-163 95v-192l163-97z"/><path fill="#fff" d="m1692 986 1 194-281 165v330l-164 96-163-96v-330l-281-165V986l164-96 280 166 281-166 164 96zM804 657l444-262 444 262-163 96-281-166-281 166z"/></svg>