<svg xmlns="http://www.w3.org/2000/svg" xmlns:xlink="http://www.w3.org/1999/xlink" xml:space="preserve" width="344.76" height="344.75"><g transform="translate(-25.28 -21.22)"><defs><path id="a" d="M25.28 193.59c0 95.05 77.33 172.38 172.38 172.38s172.38-77.33 172.38-172.38S292.71 21.22 197.66 21.22 25.28 98.54 25.28 193.59"/></defs><clipPath id="b"><use xlink:href="#a" style="overflow:visible"/></clipPath><linearGradient id="c" x1="-761.904" x2="-760.904" y1="737.106" y2="737.106" gradientTransform="scale(357.2363 -357.2363)rotate(-45 -1270.846 -551.486)" gradientUnits="userSpaceOnUse"><stop offset="0" style="stop-color:#1dc0cc"/><stop offset=".5" style="stop-color:#8e15f8"/><stop offset="1" style="stop-color:#e20000"/></linearGradient><path d="m197.66 538.34-344.75-344.75 344.75-344.75 344.75 344.75z" clip-path="url(#b)" style="fill:url(#c)"/></g><g transform="translate(-25.28 -21.22)"><defs><path id="d" d="M-206.84-346.41h1920v1080h-1920z"/></defs><clipPath id="e"><use xlink:href="#d" style="overflow:visible"/></clipPath><path d="M287.25 161.32V261.6h-33.8V161.32c0-14.97-12.18-27.16-27.16-27.16v-33.8c33.61 0 60.96 27.34 60.96 60.96m-118.22 7.63v33.8c-14.98 0-27.16 12.18-27.16 27.16v31.69h-33.8v-31.69c0-33.62 27.35-60.96 60.96-60.96m11.73-34.91h33.8V261.6h-33.8z" clip-path="url(#e)" style="fill:#fff"/></g></svg>