<svg xmlns="http://www.w3.org/2000/svg" viewBox="0 0 109.3 109.3"><defs><style>.cls-1{fill:#5a5564}</style></defs><g id="Layer_2" data-name="Layer 2"><g id="Layer_1-2" data-name="Layer 1"><g id="Page-1"><g id="wbtc_colour" data-name="wbtc colour"><path id="Shape" d="m89 23-3 3a42.5 42.5 0 0 1 0 57.3l3 3a46.8 46.8 0 0 0 0-63.4Z" class="cls-1"/><path id="Shape-2" d="M26 23.2a42.5 42.5 0 0 1 57.3 0l3-3a46.8 46.8 0 0 0-63.4 0Z" class="cls-1" data-name="Shape"/><path id="Shape-3" d="M23.2 83.3a42.5 42.5 0 0 1 0-57.3l-3-3a46.8 46.8 0 0 0 0 63.4Z" class="cls-1" data-name="Shape"/><path id="Shape-4" d="M83.3 86A42.5 42.5 0 0 1 26 86l-3 3a46.8 46.8 0 0 0 63.4 0Z" class="cls-1" data-name="Shape"/><path id="Shape-5" d="M73.6 44.6c-.6-6.2-6-8.3-12.9-9V27h-5.2v8.5h-4.3V27H46v8.7H35.3v5.6H39a2.7 2.7 0 0 1 3 2.4v23.7a1.9 1.9 0 0 1-.6 1.3 1.8 1.8 0 0 1-1.4.5h-3.8l-1 6.3h10.6v8.8h5.3v-8.7h4.2v8.7h5.3v-8.8c9-.5 15.1-2.7 16-11 .5-6.8-2.6-9.8-7.7-11 3.1-1.5 5-4.3 4.6-8.9Zm-7.4 18.8c0 6.6-11.3 5.8-14.9 5.8V57.6c3.6 0 14.9-1 14.9 5.8M63.7 47c0 6-9.4 5.3-12.3 5.3V41.7c3 0 12.3-1 12.3 5.3" data-name="Shape" style="fill:#f09242"/><path id="Shape-6" d="M54.6 109.3a54.6 54.6 0 1 1 54.7-54.7 54.6 54.6 0 0 1-54.7 54.7m0-105A50.3 50.3 0 1 0 105 54.6 50.3 50.3 0 0 0 54.6 4.3" data-name="Shape" style="fill:#282138"/></g></g></g></g></svg>