<svg xmlns="http://www.w3.org/2000/svg" width="240" height="240" fill="none" viewBox="0 0 240 240"><rect width="240" height="240" fill="#E50571" rx="120"/><path fill="#fff" d="M198.309 103.357c-3.137-15.033-10.588-28.803-21.7-39.914C161.489 48.323 141.402 40 120.007 40s-41.483 8.28-56.603 23.4a80.6 80.6 0 0 0-9.76 11.851c-.829 1.133-1.613 2.31-2.267 3.574-7.407 12.331-11.373 26.406-11.373 41.177 0 21.395 8.323 41.483 23.443 56.603s35.208 23.443 56.603 23.443 41.483-8.323 56.603-23.443c7.103-7.102 12.767-15.382 16.733-24.314.479-.959.871-2.005 1.263-3.05 3.617-9.151 5.491-19.042 5.491-29.195 0-5.36-.523-10.458-1.569-15.6-.044-.261-.218-.915-.262-1.089m-27.756-36.559c.435.436.915.872 1.394 1.35 7.059 7.06 12.549 15.339 16.166 24.315.349.872-.392 1.874-1.394 1.7-2.092-.392-4.488-.523-7.103-.48-1.83.044-3.442-1.263-3.747-3.006-1.438-8.018-3.53-15.382-6.144-21.83-.131-.35-.305-.698-.436-1.134-.349-.828.654-1.569 1.264-.915m7.625 46.93c0-.828 1.046-1.221 1.569-.523.566.828 1.176 1.699 1.743 2.527a47 47 0 0 1 2.048 3.399 1.91 1.91 0 0 1-.218 2.178 82 82 0 0 1-2.789 2.92l-1.133 1.133c-.479.436-1.307.087-1.263-.523.043-1.22.087-2.397.087-3.66.043-2.571.043-5.011-.044-7.451M77.391 60.218c12.375-8.845 27.103-13.595 42.616-13.595 4.096 0 8.148.349 12.113.959 1.046.174 1.438 1.525.567 2.179-3.835 3.006-7.364 7.45-10.545 13.203-.741 1.438-2.397 2.091-3.966 1.655-10.457-2.92-20.74-4.313-30.24-4.008-3.53.13-6.798.479-9.935 1.045-.871.218-1.307-.915-.61-1.438M66.933 169.895c-1.568-2.876.436-9.63 10.589-19.914 1.046-1.046.958-2.788-.218-3.747-.392-.305-.784-.61-1.22-.959-1.002-.784-2.484-.741-3.399.175l-.392.392c-5.055 5.185-8.628 10.022-10.589 14.379a1.697 1.697 0 0 1-3.006.218c-7.887-11.852-12.114-25.796-12.114-40.393 0-5.186.523-10.371 1.612-15.338.175-.741 1.22-.785 1.482-.044 1.525 5.011 4.009 10.24 7.408 15.469 4.618 7.059 10.675 13.857 17.909 20.131 2.44 2.135 5.054 4.183 7.8 6.188a133 133 0 0 0 17.821 11.024c2.789 1.482 5.578 2.832 8.366 4.14a6.44 6.44 0 0 0 4.924.13 153 153 0 0 0 4.009-1.612c1.482-.61 2.266-2.179 1.874-3.747-.044-.175-.087-.349-.087-.436-2.223-9.281-3.443-19.783-3.617-30.72v-5.185c0-2.571.087-3.748.174-5.621.654-13.247 2.92-25.665 6.493-36.167a1.87 1.87 0 0 0-1.177-2.353c-.915-.305-1.873-.61-2.832-.915-.915-.305-1.961.218-2.309 1.177-3.879 11.372-6.275 24.837-6.885 39.086-.087 1.83-1.046 3.486-2.615 4.401-8.453 5.011-16.166 10.327-22.92 15.643-1.394 1.133-3.398 1.046-4.75-.087-6.71-5.839-12.374-12.158-16.645-18.737-8.41-12.898-10.414-25.012-5.62-34.206l.043-.044a69 69 0 0 1 1.917-2.963c5.49-7.233 15.687-11.46 29.239-11.939.827-.044 1.742-.044 2.57-.044 8.323 0 17.212 1.395 26.276 4.01.174.043 1.481.435 1.743.522 2.309.74 6.231 2.092 6.754 2.266.217.087 1.437.566 1.612.61 4.444 1.743 8.845 3.704 13.203 5.97 8.453 4.4 16.166 9.543 22.963 15.207-12.854 2.92-27.8 8.628-42.833 16.253a2.2 2.2 0 0 0-1.22 1.83c-.044.915-.131 2.789-.174 4.314-.044.915.958 1.569 1.786 1.133 14.902-7.843 29.761-13.639 42.529-16.776 2.396-.566 3.921-2.832 3.616-5.272a86 86 0 0 0-.784-5.011c-.349-2.048-1.525-3.922-3.138-5.142-5.969-4.532-12.549-8.715-19.608-12.419a137 137 0 0 0-14.423-6.492c-1.002-.392-1.481-1.613-.915-2.571 4.967-8.89 10.894-13.857 16.689-13.857h.174c6.798.13 13.552 7.19 18.606 19.434 2.528 6.188 4.489 13.334 5.883 21.09.392 2.179.697 4.401.959 6.667.13 1.177.348 2.963.479 3.747.566 5.883.784 12.027.697 18.258-.087 3.965-.261 7.887-.61 11.678-9.107 7.32-20.349 14.684-32.724 21.221-3.355 1.742-6.711 3.442-10.022 5.011-.697.348-3.573 1.612-3.748 1.699-3.137 1.438-6.231 2.702-9.325 3.922-.174.087-3.66 1.394-3.878 1.481-.261.087-2.048.741-2.266.828-6.666 2.353-13.072 4.14-18.91 5.273-14.772 2.832-21.7.653-23.226-2.266m20.088-28.498c6.449-5.229 14.031-10.545 22.354-15.512.174 10.632 1.35 20.872 3.442 30.066-3.05-1.351-6.144-2.745-9.194-4.357a128 128 0 0 1-16.602-10.197m42.441 51.418c-3.094.392-6.274.61-9.455.61-14.293 0-27.931-4.053-39.61-11.591-.784-.523-.435-1.787.48-1.83.174 0 .392 0 .523-.044 2.963-.174 6.231-.61 9.76-1.307 7.495-1.481 15.862-3.922 24.62-7.277.784-.305 1.656.087 2.004.872 3.399 8.279 7.539 14.51 12.288 18.475a1.176 1.176 0 0 1-.61 2.092m31.069-19.609c-5.229 10.327-11.678 16.079-17.953 15.948-6.798-.13-13.552-7.189-18.606-19.434-.305-.74.043-1.655.784-2.004.044-.044.087-.044.174-.087a1.7 1.7 0 0 1 1.046-.087c9.369 2.614 18.65 4.008 27.321 4.008.915 0 1.874.001 2.789-.043 1.046-.044 2.135-.087 3.181-.174 1.002 0 1.699 1.002 1.264 1.873m2.265-8.889a67 67 0 0 1-6.884.61c-5.883.218-12.114-.305-18.476-1.481-.784-.131-.915-1.22-.218-1.569 1.395-.697 2.789-1.438 4.184-2.179 9.76-5.185 18.911-10.85 26.885-16.645.566-.436 1.438.087 1.307.784-1.133 6.667-2.614 12.942-4.575 18.606-.392 1.046-1.22 1.743-2.223 1.874m10.85 5.839a60 60 0 0 1-1.699 1.743c-.959.959-2.048 1.961-3.05 2.876-.654.566-1.656-.131-1.307-.915.087-.218.218-.436.305-.697.435-.959.828-1.961 1.307-2.963.087-.218.305-.392.523-.48a60 60 0 0 0 3.006-.871c.872-.262 1.482.741.915 1.307m14.729-23.268c-.305.74-.567 1.481-.916 2.222-.087.131-.522 1.046-.566 1.176-2.44 4.488-6.449 8.018-11.678 10.502a1.563 1.563 0 0 1-2.179-1.83c1.831-6.449 3.138-13.421 4.053-20.785a5.54 5.54 0 0 1 1.873-3.53 116 116 0 0 0 6.232-5.795c.915-.915 2.527-.523 2.919.741 1.874 6.318 2.004 12.2.262 17.299m1.481-34.381c-.523.959-1.961 1.003-2.571.088-.087-.131-.174-.305-.261-.436-2.179-3.399-4.706-6.667-7.495-9.891-.697-.785-.131-2.005.915-2.048h.044c6.579 0 10.022 1.655 11.067 3.616.828 1.656.567 4.575-1.699 8.671m3.573 9.674c0 .479-.697.61-.871.174-.088-.174-.175-.392-.262-.566-.174-.349-.131-.785.131-1.133.044-.044.131-.174.261-.349.305-.392.785-.348.785.087-.044.61-.044 1.177-.044 1.787"/></svg>