<svg xmlns="http://www.w3.org/2000/svg" viewBox="237 237 550 550"><path d="M649.7 274c-42.3-24.4-88-37-137.7-37s-95.4 12.2-137.7 37A276.3 276.3 0 0 0 274 374.3c-24.8 42.3-37 88-37 137.7s12.2 95.4 37 137.7A278 278 0 0 0 374.3 750c42.2 24.8 88 37 137.7 37s95.4-12.2 137.7-37c42.3-25 75.4-58 100.3-100.3s37-88 37-137.7-12.2-95.4-37-137.7A276.3 276.3 0 0 0 649.7 274M529 611.4c-31 0-55.8-8.7-75-26.6a88.4 88.4 0 0 1-25.7-44.5h296.4c-3 25.3-10.5 48.8-21.8 71H528.6h.4ZM428.8 484.5a88.1 88.1 0 0 1 25.2-44c18.8-17.8 44-27 75-27h175.2a200 200 0 0 1 21 71H428.7Zm-102.5-81.9a217.1 217.1 0 0 1 77.6-78.9c32.7-19.6 68.9-29.2 108.1-29.2s75.4 9.6 108 29.2a223 223 0 0 1 45 35.3H526.4c-31.4 0-59.3 6.6-83.7 19.6A141.7 141.7 0 0 0 367.3 485h-68a209.1 209.1 0 0 1 27-82zm293.8 297.7c-32.7 19.6-68.9 29.2-108.1 29.2s-75.4-9.6-108-29.2a213.8 213.8 0 0 1-77.7-79 210.4 210.4 0 0 1-27-80.5h68a139 139 0 0 0 18.3 52.3c13.5 22.6 32.7 41 57.1 54s52.3 19.6 83.7 19.6h137.3a226 226 0 0 1-43.6 34z"/></svg>