<svg xmlns="http://www.w3.org/2000/svg" fill="none" viewBox="0 0 1024 1024"><path fill="#fff" d="M0 0h1024v1024H0z"/><g clip-path="url(#a)"><path fill="#000" d="M512 278.2h-1.5a234.8 234.8 0 1 0 1.5 0M293 520.4h59.5c.9 43.1 9.7 83.6 24.4 118h-44.6a218.8 218.8 0 0 1-39.3-118m305.7-15.7a88.3 88.3 0 0 0-21.7-49.9 655 655 0 0 0-7.9-67.3h59.7a299.5 299.5 0 0 1 25.9 117.2zm-87.3-210.9h.3c4 0 9.7 3.3 16.4 14.2a177.4 177.4 0 0 1 18 46.5c1.5 5.5 2.8 11.3 4.1 17.3H473c1.3-6 2.7-11.8 4.1-17.3a179.5 179.5 0 0 1 18-46.5c6.6-10.8 12.3-14 16.3-14.2m41.8 93.5c2.8 16.1 5.2 33.7 7 52.4a86.4 86.4 0 0 0-97.2-.1c1.6-18.8 4-36.3 7-52.4h83.2zm28.8 117h-99.5a32.5 32.5 0 0 1 31.4-24.4h60.9c4 7.6 6.3 15.8 7.2 24.4m-120.8-42a70.6 70.6 0 0 1 100.4 0l1.2 1.2h-49a48.6 48.6 0 0 0-48.3 40.8h-24.8c2-15.8 9.1-30.6 20.5-42m105-90.6a382 382 0 0 0-4.9-21.3 187.6 187.6 0 0 0-20-50.8l-.8-1.3c27 8.5 51.7 29 71.3 58.3a208 208 0 0 1 9 15h-54.6Zm-84.6-72a195.4 195.4 0 0 0-20 50.9 330 330 0 0 0-4.8 21.2H402c2.8-5.2 6-10.2 9-14.9 19.7-29.4 44.3-49.8 71.4-58.3a8 8 0 0 0-1 1.2ZM454 387.3c-3.6 20.4-6.2 43-7.9 67.2a83.8 83.8 0 0 0-21.7 50h-56c1-43.6 10.4-83.8 25.8-117.2zM352.5 504.7H293c1.6-43.5 16-83.9 39.4-117.2H377a319 319 0 0 0-24.5 117.2m15.8 15.7h56.1a85.8 85.8 0 0 0 21.7 50.2c1.6 24.4 4.3 47.1 7.8 67.6h-59.8c-15.5-33.5-25-74-25.8-117.8m143.3 211.3c-4 0-9.8-3-16.6-14.2a177.4 177.4 0 0 1-18-46.5c-1.5-5.4-2.8-11.2-4.1-17.3H550c-1.3 6.1-2.7 11.9-4.1 17.3a179.5 179.5 0 0 1-18 46.5c-6.7 11.1-12.6 14.2-16.4 14.2Zm-41.8-93.5c-2.9-16.2-5.2-34-7-52.8a87 87 0 0 0 97.3-.1c-1.7 19-4 36.7-7 53h-83.3Zm92-75.3a70.6 70.6 0 0 1-100.5 0 71.4 71.4 0 0 1-20.3-42h24.8a49.1 49.1 0 0 0 48.3 40.7h49zm13-17.7h-60.9c-15 0-27.7-10.3-31.4-24.4H582a69.5 69.5 0 0 1-7.2 24.4M456.9 654c1.5 7.4 3.1 14.5 4.9 21.3a187.6 187.6 0 0 0 20 50.8l.8 1.3c-27-8.5-51.7-29-71.3-58.3-3.1-4.7-6.2-9.7-9-15h54.6Zm84.5 72a195.4 195.4 0 0 0 20-50.8q2.55-10.05 4.8-21.3H621c-2.8 5.2-6 10.2-9 15-19.7 29.3-44.3 49.7-71.4 58.2zm27.8-87.8c3.5-20.6 6.2-43.4 8-67.8a86.2 86.2 0 0 0 21.5-50h56.1c-1 43.9-10.5 84.5-25.8 118h-60v-.2Zm101.3-117.8H731a218.7 218.7 0 0 1-39.1 118H646a320.4 320.4 0 0 0 24.4-118Zm0-15.7c-1-43-9.8-83.1-24.4-117.2h45.5A217.7 217.7 0 0 1 731 504.7zm9-133h-40.8c-4.3-8.3-8.8-16.1-13.7-23.7a189.3 189.3 0 0 0-35.8-40.3 221 221 0 0 1 90.3 64M433 308.6a184.2 184.2 0 0 0-35 39.4 241 241 0 0 0-13.7 23.7h-39.9a218 218 0 0 1 88.5-63.1ZM344.2 654h40.2c4.3 8.3 8.9 16.1 13.7 23.7A189.3 189.3 0 0 0 434 718a221.8 221.8 0 0 1-89.7-64Zm244.2 64.4c13.5-11 26-25 36.6-40.9 4.9-7.4 9.4-15.2 13.7-23.6h41a218.8 218.8 0 0 1-91.3 64.5"/><path stroke="#EF7A36" stroke-miterlimit="10" stroke-width="15.4" d="M512 896.3a383.3 383.3 0 1 0 0-766.6 383.3 383.3 0 0 0 0 766.6Z"/><path stroke="#FFB900" stroke-miterlimit="10" stroke-width="15.4" d="M512 880.9a367.9 367.9 0 1 0 0-735.8 367.9 367.9 0 0 0 0 735.8Z"/><path stroke="#00B979" stroke-miterlimit="10" stroke-width="15.4" d="M512 865.5a352.5 352.5 0 1 0 0-705 352.5 352.5 0 0 0 0 705Z"/></g><defs><clipPath id="a"><path fill="#fff" d="M121 122h782v782H121z"/></clipPath></defs></svg>