<svg width="32" height="32" viewBox="0 0 32 32" fill="none" xmlns="http://www.w3.org/2000/svg">
    <path fill-rule="evenodd" clip-rule="evenodd" d="M32 16C32 24.8366 24.8366 32 16 32C7.16344 32 0 24.8366 0 16C0 7.16344 7.16344 0 16 0C24.8366 0 32 7.16344 32 16ZM28 16C28 22.6274 22.6274 28 16 28C9.37258 28 4 22.6274 4 16C4 9.37258 9.37258 4 16 4C22.6274 4 28 9.37258 28 16ZM17 7L7 17H15V25L25 15H17V7Z" fill="url(#paint0_linear_155_2122)"/>
    <defs>
        <linearGradient id="paint0_linear_155_2122" x1="0" y1="0" x2="32" y2="32" gradientUnits="userSpaceOnUse">
            <stop stop-color="#62D0FF"/>
            <stop offset="0.5" stop-color="#3C2EFF"/>
            <stop offset="1" stop-color="#CBB5FF"/>
        </linearGradient>
    </defs>
</svg>