<svg xmlns="http://www.w3.org/2000/svg" width="213" height="212" fill="none"><path fill="#B7F7B0" d="M106.254 68.135c20.957 0 37.949 16.949 37.949 37.853s-16.992 37.853-37.949 37.853-37.948-16.949-37.948-37.853 16.992-37.853 37.948-37.853m0-68.135C91.939 0 78.021 2.81 64.872 8.356c-12.665 5.337-24.02 12.974-33.755 22.683-9.733 9.71-17.39 21.037-22.74 33.67C2.817 77.816 0 91.708 0 105.988s2.818 28.162 8.377 41.278c5.35 12.634 13.007 23.961 22.74 33.67a105.7 105.7 0 0 0 33.755 22.684c13.14 5.545 27.067 8.356 41.382 8.356 14.316 0 28.234-2.811 41.383-8.356a105.7 105.7 0 0 0 33.755-22.684c9.733-9.709 17.389-21.036 22.74-33.67 5.559-13.106 8.377-26.998 8.377-41.278s-2.818-28.163-8.377-41.279c-5.351-12.633-13.007-23.96-22.74-33.67-9.734-9.709-21.09-17.346-33.755-22.683C134.497 2.811 120.57 0 106.254 0"/><path fill="#07DC10" d="M106.255 68.135c20.957 0 37.948 16.949 37.948 37.853s-16.991 37.853-37.948 37.853-37.948-16.949-37.948-37.853 16.991-37.853 37.948-37.853m0-45.423c-46.03 0-83.486 37.36-83.486 83.276s37.455 83.276 83.486 83.276 83.486-37.361 83.486-83.276-37.455-83.276-83.486-83.276"/><path fill="#0C9B00" d="M106.256 68.135c20.957 0 37.948 16.949 37.948 37.853s-16.991 37.853-37.948 37.853-37.948-16.949-37.948-37.853 16.991-37.853 37.948-37.853m0-22.712c-33.48 0-60.717 27.17-60.717 60.565s27.237 60.564 60.717 60.564 60.717-27.169 60.717-60.564c0-33.396-27.237-60.565-60.717-60.565"/><path fill="#EAEAEA" d="M106.253 68.135c20.957 0 37.948 16.949 37.948 37.853s-16.991 37.853-37.948 37.853-37.948-16.949-37.948-37.853 16.99-37.853 37.948-37.853"/></svg>