<svg xmlns="http://www.w3.org/2000/svg" width="49.676" height="50.371" fill="none" style="max-height:500px"><g clip-path="url(#a)"><path fill="#fff" fill-rule="evenodd" d="M60.016 15.766h4.114v21.583h-4.114zm20.63 8.522c1.117-1.794 2.993-2.65 5.036-2.65l.011-.007q2.813 0 4.127 1.625 1.296 1.65 1.295 4.382v9.711H87.15v-9.243c0-2.047-.732-3.085-2.356-3.085h-.24c-1.838 0-3.267 1.607-3.267 3.762v8.566h-3.964v-9.243c0-2.047-.76-3.085-2.384-3.085h-.24c-1.832 0-3.278 1.607-3.278 3.762v8.566h-3.964V21.936h3.965v2.183c1.027-1.67 2.73-2.482 4.561-2.482 2.16 0 3.825.902 4.662 2.65Zm31.395-2.65c-2.043 0-3.919.856-5.036 2.65-.832-1.749-2.501-2.65-4.662-2.65-1.831 0-3.534.811-4.562 2.48v-2.182h-3.964v15.413h3.965v-8.566c0-2.155 1.446-3.762 3.277-3.762h.24c1.625 0 2.384 1.038 2.384 3.085v9.243h3.964v-8.566c0-2.155 1.43-3.762 3.266-3.762h.241c1.624 0 2.356 1.038 2.356 3.085v9.243h3.964v-9.711q.001-2.733-1.295-4.382-1.314-1.625-4.127-1.625zm30.033 3.54v7.09l-.005-.006c0 1.416.284 1.704 1.686 1.704h2.188v3.39h-3.874c-2.58 0-3.965-1.4-3.965-4.005v-8.172h-4.5v12.176h-3.964V35.1c-.938 1.58-2.563 2.56-4.455 2.56-1.714 0-3.01-.524-3.858-1.595-.866-1.055-1.296-2.465-1.296-4.258v-9.859h3.964v9.407c0 1.986.821 3.069 2.267 3.069h.24c1.726 0 3.144-1.76 3.144-3.915v-8.566h8.464v-4.997h3.964v4.997h3.412v3.237h-3.412Zm18.017 1.997c0-3.553-2.563-5.538-6.41-5.538s-6.242 2.154-6.571 5.076h3.98c.09-.937 1.028-1.839 2.457-1.839h.251c1.458 0 2.446 1.066 2.446 2.453v.378l-3.847.344c-1.642.136-2.982.615-4.026 1.461q-1.565 1.262-1.563 3.615c-.045 2.707 2.267 4.563 5.008 4.529 1.954 0 3.562-.84 4.517-2.183.028.812.089 1.444.179 1.884h3.724c-.106-.722-.151-1.85-.151-3.39v-6.79zm-3.847 3.886c0 1.94-1.597 3.356-3.4 3.356h-.241c-1.088 0-1.892-.615-1.892-1.568 0-.587.223-1.027.67-1.343a3.04 3.04 0 0 1 1.552-.541l3.311-.344zm10.558-7.123c.653-1.128 2.35-2.301 4.394-2.301v-.006c4.276-.073 6.822 3.796 6.778 8.009.044 4.213-2.502 8.081-6.778 8.008-2.038 0-3.741-1.173-4.394-2.3v2.001h-3.965V15.766h3.965zm3.484 10.473h.24c1.982 0 3.489-1.906 3.489-4.8 0-2.893-1.491-4.743-3.489-4.743h-.24c-1.821-.045-3.518 1.94-3.49 4.772-.028 2.83 1.669 4.816 3.49 4.77Zm13.635-18.645h-3.964v21.583h3.964zm2.026 13.88c-.044-4.608 2.787-8.071 7.259-8.01h.005c4.456-.044 7.002 3.328 6.957 7.829 0 .299-.017.784-.061 1.444h-10.313c.151 2.064 1.793 3.508 3.445 3.508h.252c1.429 0 2.395-.813 2.679-1.94h3.937c-.748 3.068-3.16 5.177-6.901 5.177-3.83.062-7.331-3.085-7.259-8.009Zm6.996-4.772c-1.669 0-3.054 1.128-3.143 2.95h6.527c-.09-1.822-1.474-2.95-3.144-2.95z" clip-rule="evenodd"/><g clip-path="url(#b)"><path fill="#0D0D0D" d="M.61 24.606c0-13.255 10.745-24 24-24 13.254 0 24 10.745 24 24s-10.746 24-24 24c-13.255 0-24-10.745-24-24"/><path fill="url(#c)" d="M23.678 9.772a2.08 2.08 0 0 1 2.015.062 659 659 0 0 1 6.699 3.868c.716.42 1.082 1.094 1.085 1.921.013 2.901.009 5.8 0 8.7 0 .108-.07.265-.157.316-.861.515-1.733 1.009-2.68 1.555v-.456c0-2.984-.009-5.966.007-8.95.002-.572-.194-.941-.702-1.23-2.602-1.478-5.19-2.984-7.782-4.48-.111-.065-.221-.134-.391-.237.666-.378 1.266-.758 1.901-1.07h.005ZM23.2 39.45c-.145-.074-.253-.125-.358-.186-3.433-1.98-6.862-3.972-10.306-5.936-.967-.55-1.407-1.335-1.396-2.438.02-2.344.013-4.688.002-7.035-.005-1.058.425-1.825 1.355-2.353a889 889 0 0 0 7.227-4.169c.208-.12.36-.14.577-.011.83.499 1.676.975 2.56 1.485-.169.1-.296.177-.426.253-2.603 1.503-5.202 3.01-7.813 4.505-.427.243-.626.561-.621 1.058a352 352 0 0 1 0 5.542c-.005.51.199.834.637 1.085 2.753 1.575 5.496 3.167 8.247 4.746.232.135.33.273.326.55-.02.947-.006 1.895-.006 2.906zm0-5.292c-.24-.137-.411-.233-.584-.334-2.183-1.259-4.364-2.523-6.551-3.773-.237-.134-.324-.28-.322-.555.016-1.42.009-2.84.004-4.26 0-.193.03-.325.22-.432.805-.45 1.601-.92 2.4-1.378.058-.034.12-.058.226-.11v1.595c0 .864.013 1.73-.005 2.593-.011.492.179.825.608 1.066 1.237.698 2.459 1.423 3.695 2.119.244.136.318.288.314.556-.016.944-.007 1.89-.007 2.91zm-2.52-18.643c-.464-.273-.86-.271-1.323 0-2.594 1.516-5.2 3.013-7.803 4.516-.11.064-.224.123-.419.228.07-.989-.143-1.922.195-2.825.183-.494.528-.866.984-1.13 2.172-1.255 4.342-2.512 6.518-3.76.794-.456 1.604-.445 2.398.014q3.707 2.134 7.405 4.28c.105.061.238.198.238.3.017 1.016.01 2.034.01 3.123l-2.552-1.474c-1.885-1.09-3.775-2.167-5.652-3.272Zm17.367 15.968c-.064.798-.532 1.364-1.223 1.762-2.646 1.521-5.29 3.051-7.934 4.576q-1.245.72-2.491 1.436c-.101.059-.204.108-.34.18-.01-.14-.02-.24-.02-.34 0-.877.004-1.752-.005-2.629 0-.199.047-.32.23-.425 3.857-2.218 7.71-4.444 11.562-6.667.058-.034.123-.06.233-.112 0 .778.044 1.503-.012 2.219m.02-5.52c-.006.908-.496 1.545-1.272 1.992-3.015 1.734-6.028 3.476-9.04 5.216-.551.318-1.104.633-1.694.973-.009-.15-.02-.248-.02-.349 0-.863.009-1.729-.007-2.592-.004-.246.078-.376.29-.499 2.74-1.572 5.472-3.162 8.216-4.726.488-.277.703-.62.698-1.192-.02-2.984-.009-5.968-.009-8.951v-.522c.716.432 1.387.788 2 1.222.559.395.84.995.843 1.686.009 2.581.016 5.162-.002 7.744z"/><path fill="url(#d)" d="M23.678 9.772a2.08 2.08 0 0 1 2.015.062 659 659 0 0 1 6.699 3.868c.716.42 1.082 1.094 1.085 1.921.013 2.901.009 5.8 0 8.7 0 .108-.07.265-.157.316-.861.515-1.733 1.009-2.68 1.555v-.456c0-2.984-.009-5.966.007-8.95.002-.572-.194-.941-.702-1.23-2.602-1.478-5.19-2.984-7.782-4.48-.111-.065-.221-.134-.391-.237.666-.378 1.266-.758 1.901-1.07h.005ZM23.2 39.45c-.145-.074-.253-.125-.358-.186-3.433-1.98-6.862-3.972-10.306-5.936-.967-.55-1.407-1.335-1.396-2.438.02-2.344.013-4.688.002-7.035-.005-1.058.425-1.825 1.355-2.353a889 889 0 0 0 7.227-4.169c.208-.12.36-.14.577-.011.83.499 1.676.975 2.56 1.485-.169.1-.296.177-.426.253-2.603 1.503-5.202 3.01-7.813 4.505-.427.243-.626.561-.621 1.058a352 352 0 0 1 0 5.542c-.005.51.199.834.637 1.085 2.753 1.575 5.496 3.167 8.247 4.746.232.135.33.273.326.55-.02.947-.006 1.895-.006 2.906zm0-5.292c-.24-.137-.411-.233-.584-.334-2.183-1.259-4.364-2.523-6.551-3.773-.237-.134-.324-.28-.322-.555.016-1.42.009-2.84.004-4.26 0-.193.03-.325.22-.432.805-.45 1.601-.92 2.4-1.378.058-.034.12-.058.226-.11v1.595c0 .864.013 1.73-.005 2.593-.011.492.179.825.608 1.066 1.237.698 2.459 1.423 3.695 2.119.244.136.318.288.314.556-.016.944-.007 1.89-.007 2.91zm-2.52-18.643c-.464-.273-.86-.271-1.323 0-2.594 1.516-5.2 3.013-7.803 4.516-.11.064-.224.123-.419.228.07-.989-.143-1.922.195-2.825.183-.494.528-.866.984-1.13 2.172-1.255 4.342-2.512 6.518-3.76.794-.456 1.604-.445 2.398.014q3.707 2.134 7.405 4.28c.105.061.238.198.238.3.017 1.016.01 2.034.01 3.123l-2.552-1.474c-1.885-1.09-3.775-2.167-5.652-3.272Zm17.367 15.968c-.064.798-.532 1.364-1.223 1.762-2.646 1.521-5.29 3.051-7.934 4.576q-1.245.72-2.491 1.436c-.101.059-.204.108-.34.18-.01-.14-.02-.24-.02-.34 0-.877.004-1.752-.005-2.629 0-.199.047-.32.23-.425 3.857-2.218 7.71-4.444 11.562-6.667.058-.034.123-.06.233-.112 0 .778.044 1.503-.012 2.219m.02-5.52c-.006.908-.496 1.545-1.272 1.992-3.015 1.734-6.028 3.476-9.04 5.216-.551.318-1.104.633-1.694.973-.009-.15-.02-.248-.02-.349 0-.863.009-1.729-.007-2.592-.004-.246.078-.376.29-.499 2.74-1.572 5.472-3.162 8.216-4.726.488-.277.703-.62.698-1.192-.02-2.984-.009-5.968-.009-8.951v-.522c.716.432 1.387.788 2 1.222.559.395.84.995.843 1.686.009 2.581.016 5.162-.002 7.744z"/></g></g><path fill="#fff" d="M206.914 37.252v-2.334l9.187-11.224h-8.596V21.36h11.727v2.334l-9.157 11.224h9.334v2.334zm15.575-21.416h2.688v12.672l6.41-7.148h3.308l-6.055 6.587 6.882 9.305h-3.278l-5.406-7.326-1.861 2.009v5.317h-2.688zm15.327 21.416V15.836h14.533v2.6h-11.52v6.498h10.841v2.6h-10.841v7.118h11.52v2.6zm15.9-21.416h3.308l5.938 18.314 5.819-18.314h3.16l-7.266 21.416h-3.604zm33.163 21.416h-3.19l-5.908-18.669v18.669h-3.013V15.836h5.051l5.465 17.842 5.464-17.842h5.051v21.416h-3.012V18.583z"/><defs><radialGradient id="c" cx="0" cy="0" r="1" gradientTransform="matrix(19.8029 21.96512 -46.33404 41.77298 18.286 17.445)" gradientUnits="userSpaceOnUse"><stop stop-color="#A3EEF8"/><stop offset=".177" stop-color="#A4DCF5"/><stop offset=".38" stop-color="#A6AEEC"/><stop offset="1" stop-color="#ECBEE1"/></radialGradient><radialGradient id="d" cx="0" cy="0" r="1" gradientTransform="matrix(1.44894 16.01408 -27.65384 2.5021 25.776 37.597)" gradientUnits="userSpaceOnUse"><stop stop-color="#FCF5EE"/><stop offset=".715" stop-color="#ECBEE1" stop-opacity="0"/></radialGradient><clipPath id="a"><path fill="#fff" d="M.61.606h200v48H.61z"/></clipPath><clipPath id="b"><rect width="48" height="48" x=".609" y=".606" fill="#fff" rx="24"/></clipPath></defs></svg>