<svg xmlns="http://www.w3.org/2000/svg" width="200" height="200"><path fill="#111" d="M156.19 126.38 158 128c-1.27 4.52-3.84 7.28-6.91 10.66-3.86 4.32-7.45 8.85-11.09 13.34-4.76-.94-8.9-3.3-13.22-5.43-8.82-3.89-17.46-5.13-27.03-5.07l-3.3.01c-10.9.23-19.9 2.36-29.14 8.37C64 152 64 152 62.02 151.87c-8.19-3.52-14.7-15.8-20.02-22.87 27.74-29.68 83.93-25.17 114.19-2.63ZM60 48c4.6.9 8.43 3.24 12.54 5.43 8.38 3.8 15.97 5.1 25.15 5l3.18-.01c11.65-.24 21.83-2.65 32.08-8.37A22.4 22.4 0 0 1 139 48c6.54 7 12.38 14.26 18 22-2.57 6.38-9.13 9.26-15.12 11.95-25.38 10.61-52.18 12.91-78.13 2.8a195 195 0 0 1-13.38-6.81l-1.83-1C45.14 75 43.56 73.54 42 70l7.94-9.79C53.26 56.11 56.6 52.04 60 48"/><path fill="#1B1B1B" d="M60 48c3.67.54 6.74 2.3 10 4l-2 2c-2.13-.38-2.13-.38-4-1l-1 3h-3c-2.34.32-4.67.65-7 1l2.94-3.94 1.65-2.21C59 49 59 49 60 48"/><path fill="#393939" d="M116 138h3l1 4h2v2l-3.81-.94c-8.28-1.69-16.78-1.73-25.19-2.06v-1l23-1zm6 3 2 1Z"/><path fill="#191919" d="M138 48.13c2.55 1.1 3.51 2.57 5 4.87-4.3 3.08-4.3 3.08-7.81 2.69L133 55l1-3-1-2c3-2 3-2 5-1.88Z"/><path fill="#1A1A1A" d="m73 114-1 3h-3v2l-6-1v-2c3.5-1.6 6.14-2.22 10-2"/><path fill="#2E2E2E" d="m119 58-2 3 2 1c-3.82-.53-6.06-1.5-9-4 3.38-.84 5.67-1.1 9 0"/><path fill="#222" d="m56 146 5 1v2l3 1v2c-3.26-.35-4.02-1.02-6.25-3.56z"/><path fill="#1A1A1A" d="m138 116-2 2c-2.38-.24-2.38-.24-5.13-.88l-2.75-.61L126 116c4.56-2.77 7.08-1.48 12 0"/></svg>