<svg version="1.1" xmlns="http://www.w3.org/2000/svg" width="2000" height="2000"><path d="M0 0 C2.33403434 0.23228959 4.6690167 0.45079336 7.00469971 0.66583252 C58.75280757 5.46307341 109.91014963 14.53025862 160.28936768 27.22784424 C160.97323547 27.39993408 161.65710327 27.57202393 162.36169434 27.74932861 C181.543655 32.59017271 200.46335105 38.15454304 219.28936768 44.22784424 C220.60021928 44.64831923 221.91109201 45.06872836 223.22198486 45.48907471 C286.83642274 65.93970311 349.81759029 92.56593872 407.42315674 126.54229736 C410.12137579 128.12905242 412.82942277 129.69789702 415.54116821 131.26139832 C429.61601925 139.37875923 443.51383816 147.68966405 457.02911377 156.71905518 C459.28296969 158.22357339 461.54484108 159.71529486 463.80889893 161.20440674 C491.34929219 179.36800886 517.93905457 198.83786654 543.46466064 219.73516846 C545.07160463 221.04970626 546.68215958 222.35982726 548.29327393 223.66925049 C558.35833157 231.85901355 568.25697461 240.19433089 577.81671143 248.97003174 C579.90804706 250.87965575 582.02195632 252.75115676 584.16436768 254.60284424 C592.48165848 261.84418161 600.51715412 269.37469281 608.25811768 277.22784424 C610.14649243 279.08716708 612.0857952 280.82172508 614.10186768 282.54034424 C621.78225547 289.14547774 628.89131498 296.45654021 635.44952393 304.16925049 C637.79433063 306.79284525 640.28587405 309.25752894 642.78936768 311.72784424 C646.4934656 315.38776427 650.04224536 319.11728219 653.42218018 323.07940674 C655.31723683 325.25991126 657.2688886 327.38166955 659.23419189 329.49884033 C663.97318407 334.6067264 668.48193847 339.82789651 672.85186768 345.25909424 C675.71863571 348.75067069 678.68730086 352.1429397 681.66436768 355.54034424 C687.27457453 361.96868936 692.6040485 368.56665635 697.81329346 375.32208252 C699.40808247 377.38111709 701.01749059 379.42813313 702.62921143 381.47393799 C710.24600798 391.16283424 717.59935924 401.00757416 724.74102783 411.05157471 C726.22433548 413.13643821 727.71517418 415.21571944 729.20733643 417.29425049 C747.18707671 442.4409741 763.79063789 468.48883638 779.28936768 495.22784424 C779.82175049 496.14549561 780.3541333 497.06314697 780.90264893 498.00860596 C789.18940558 512.34661041 796.96489778 526.92121546 804.48028564 541.67706299 C805.69143686 544.05425371 806.90564295 546.42951666 808.12579346 548.80206299 C848.43474276 627.24691867 876.95814319 712.12320585 909.60186768 900.16534424 C909.71517929 901.2587764 909.71517929 901.2587764 909.83078003 902.3742981 C910.4023806 907.98601937 910.86713269 913.60302325 911.28936768 919.22784424 C911.37550323 920.36629791 911.46163879 921.50475159 911.55038452 922.67770386 C913.27955617 946.34243481 913.65328662 969.94835276 913.60722351 993.67043686 C913.60178424 996.58505126 913.59941641 999.49965755 913.59735107 1002.41427612 C913.56724216 1029.67956945 913.24192522 1056.80591232 910.51397705 1083.95788574 C910.2868631 1086.25315606 910.07499414 1088.54937536 909.86749268 1090.84649658 C903.38946139 1162.13406141 889.08732053 1233.09153382 866.95611572 1301.17150879 C866.28397645 1303.24447146 865.61880374 1305.31955666 864.9553833 1307.39532471 C850.20105985 1353.47997037 831.73746985 1398.24473027 810.12823486 1441.53546143 C808.3529013 1445.09289128 806.60486802 1448.66333309 804.85968018 1452.23565674 C797.84058685 1466.53959972 790.29420562 1480.45412068 782.28936768 1494.22784424 C781.60580747 1495.4101299 780.92255123 1496.59259135 780.23956299 1497.77520752 C772.35816358 1511.41390225 764.45283638 1525.01797739 755.69659424 1538.11993408 C754.12162421 1540.47911022 752.56086879 1542.8473968 751.00030518 1545.21612549 C732.24935371 1573.60119555 712.32981324 1601.08347703 690.77764893 1627.40753174 C689.47527389 1629.00046288 688.17870736 1630.59813944 686.88311768 1632.19659424 C678.62455521 1642.37018568 670.09592804 1652.31005809 661.28936768 1662.01300049 C659.49333239 1664.00196926 657.72983464 1666.01347618 655.97686768 1668.04034424 C648.70730564 1676.37251047 641.16388477 1684.43457025 633.28936768 1692.19659424 C631.43004484 1694.084969 629.69548683 1696.02427177 627.97686768 1698.04034424 C621.37173417 1705.72073203 614.06067171 1712.82979154 606.34796143 1719.38800049 C603.72436666 1721.7328072 601.25968297 1724.22435062 598.78936768 1726.72784424 C595.12944764 1730.43194216 591.39992972 1733.98072192 587.43780518 1737.36065674 C585.25730065 1739.2557134 583.13554236 1741.20736516 581.01837158 1743.17266846 C575.91048552 1747.91166063 570.68931541 1752.42041503 565.25811768 1756.79034424 C561.76654123 1759.65711227 558.37427221 1762.62577742 554.97686768 1765.60284424 C548.54852255 1771.21305109 541.95055556 1776.54252506 535.19512939 1781.75177002 C533.13609482 1783.34655903 531.08907878 1784.95596715 529.04327393 1786.56768799 C519.35437768 1794.18448455 509.50963776 1801.53783581 499.46563721 1808.67950439 C497.3807737 1810.16281204 495.30149247 1811.65365074 493.22296143 1813.14581299 C468.07623781 1831.12555327 442.02837553 1847.72911446 415.28936768 1863.22784424 C414.37171631 1863.76022705 413.45406494 1864.29260986 412.50860596 1864.84112549 C398.15662106 1873.13596225 383.56729582 1880.91543015 368.79620361 1888.43634033 C365.34045356 1890.20174648 361.89677374 1891.98916749 358.45343018 1893.77862549 C326.42098559 1910.27322691 293.04419216 1924.1271327 259.22796631 1936.51544189 C257.32421237 1937.2150394 255.42314092 1937.92146858 253.52276611 1938.63018799 C175.29404516 1967.7059853 92.759596 1985.35149324 9.78936768 1993.54034424 C9.03222473 1993.61588531 8.27508179 1993.69142639 7.49499512 1993.76925659 C1.76516929 1994.3307433 -3.96977319 1994.79496196 -9.71063232 1995.22784424 C-10.82305298 1995.3139798 -11.93547363 1995.40011536 -13.081604 1995.48886108 C-36.4167311 1997.2472877 -59.68836253 1997.59180969 -83.08314514 1997.54590225 C-86.00515803 1997.54025823 -88.92716511 1997.53744009 -91.84918213 1997.53482056 C-119.04735189 1997.49937653 -146.13662079 1997.27137226 -173.21765137 1994.48431396 C-175.85413162 1994.2130815 -178.49151802 1993.95210692 -181.12908936 1993.69171143 C-252.25715613 1986.58453642 -322.62326537 1972.99423159 -390.67047119 1950.88812256 C-392.71085897 1950.22777089 -394.75371401 1949.57569171 -396.79754639 1948.92608643 C-430.17314859 1938.30335278 -462.76857533 1925.5816994 -494.71063232 1911.22784424 C-495.76299072 1910.75878662 -496.81534912 1910.289729 -497.89959717 1909.80645752 C-525.586492 1897.43293727 -552.99277322 1884.01641251 -579.17645264 1868.70001221 C-581.74538506 1867.20765551 -584.32998584 1865.74687349 -586.92156982 1864.29425049 C-632.76476125 1838.55268826 -676.23333834 1808.0030167 -716.89031982 1774.71612549 C-718.48325097 1773.41375045 -720.08092752 1772.11718392 -721.67938232 1770.82159424 C-731.85297377 1762.56303177 -741.79284618 1754.0344046 -751.49578857 1745.22784424 C-753.48475734 1743.43180895 -755.49626427 1741.66831121 -757.52313232 1739.91534424 C-765.85529855 1732.64578221 -773.91735833 1725.10236133 -781.67938232 1717.22784424 C-783.56775708 1715.3685214 -785.50705985 1713.63396339 -787.52313232 1711.91534424 C-795.20352012 1705.31021074 -802.31257962 1697.99914827 -808.87078857 1690.28643799 C-811.21559528 1687.66284322 -813.7071387 1685.19815954 -816.21063232 1682.72784424 C-819.91473025 1679.0679242 -823.46351001 1675.33840628 -826.84344482 1671.37628174 C-828.73850148 1669.19577721 -830.69015325 1667.07401892 -832.65545654 1664.95684814 C-837.39444871 1659.84896208 -841.90320312 1654.62779197 -846.27313232 1649.19659424 C-849.13990036 1645.70501779 -852.10856551 1642.31274877 -855.08563232 1638.91534424 C-860.69583917 1632.48699912 -866.02531315 1625.88903213 -871.23455811 1619.13360596 C-872.82934712 1617.07457138 -874.43875523 1615.02755534 -876.05047607 1612.98175049 C-884.2190093 1602.59102122 -892.05289251 1591.99930177 -899.71063232 1581.22784424 C-900.73009788 1579.80201602 -901.74962833 1578.37623419 -902.76922607 1576.95050049 C-909.96748305 1566.85195795 -916.89539589 1556.58793403 -923.71063232 1546.22784424 C-924.36467041 1545.24026123 -924.36467041 1545.24026123 -925.03192139 1544.23272705 C-944.96446249 1514.11345632 -962.6316863 1482.69184264 -979.02850342 1450.52471924 C-980.12850649 1448.36877708 -981.23282551 1446.21503015 -982.34197998 1444.06378174 C-1025.48097057 1360.38121841 -1055.28747449 1268.39441113 -1083.02313232 1094.22784424 C-1083.0986734 1093.49461945 -1083.17421448 1092.76139465 -1083.25204468 1092.00595093 C-1083.81782217 1086.41902712 -1084.28182548 1080.82682799 -1084.71063232 1075.22784424 C-1084.79676788 1074.12783081 -1084.88290344 1073.02781738 -1084.97164917 1071.89447021 C-1086.76822647 1048.2403625 -1087.07406938 1024.64271074 -1087.02869034 1000.92780304 C-1087.02304934 997.93380174 -1087.02022935 994.9398061 -1087.01760864 991.94580078 C-1086.9826173 964.4524482 -1086.79578031 937.06436368 -1083.96386719 909.69036865 C-1083.69686897 907.09400567 -1083.44294337 904.49657009 -1083.19061279 901.89874268 C-1074.66261714 815.05060774 -1055.22687352 729.68529706 -983.54949951 552.92022705 C-981.77416595 549.3627972 -980.02613267 545.79235538 -978.28094482 542.22003174 C-971.26185149 527.91608876 -963.71547027 514.0015678 -955.71063232 500.22784424 C-955.02707212 499.04555857 -954.34381587 497.86309713 -953.66082764 496.68048096 C-945.77942822 483.04178623 -937.87410103 469.43771108 -929.11785889 456.33575439 C-927.54288886 453.97657826 -925.98213344 451.60829168 -924.42156982 449.23956299 C-905.67178324 420.85625632 -885.75342511 393.37555699 -864.20330811 367.05255127 C-862.8887703 365.44560728 -861.57864931 363.83505233 -860.26922607 362.22393799 C-852.07946302 352.15888035 -843.74414567 342.2602373 -834.96844482 332.70050049 C-833.05882081 330.60916485 -831.18731981 328.4952556 -829.33563232 326.35284424 C-822.09429495 318.03555344 -814.56378376 310.00005779 -806.71063232 302.25909424 C-804.85130949 300.37071948 -803.11675148 298.43141671 -801.39813232 296.41534424 C-794.79299882 288.73495644 -787.48193635 281.62589694 -779.76922607 275.06768799 C-777.14563131 272.72288128 -774.68094762 270.23133786 -772.21063232 267.72784424 C-768.55071229 264.02374632 -764.82119437 260.47496655 -760.85906982 257.09503174 C-758.6785653 255.19997508 -756.55680701 253.24832332 -754.43963623 251.28302002 C-749.33175017 246.54402785 -744.11058005 242.03527345 -738.67938232 237.66534424 C-735.18780588 234.79857621 -731.79553686 231.82991106 -728.39813232 228.85284424 C-721.9697872 223.24263739 -715.37182021 217.91316341 -708.61639404 212.70391846 C-706.55735947 211.10912945 -704.51034343 209.49972133 -702.46453857 207.88800049 C-692.77564233 200.27120393 -682.93090241 192.91785267 -672.88690186 185.77618408 C-670.80203835 184.29287644 -668.72275712 182.80203774 -666.64422607 181.30987549 C-641.49675347 163.32959968 -615.44730757 146.73186945 -588.71063232 131.22784424 C-587.80361572 130.70077881 -586.89659912 130.17371338 -585.96209717 129.63067627 C-570.97589034 120.95304555 -555.69896236 112.88998469 -540.26824951 105.04034424 C-536.93407502 103.34168164 -533.60719261 101.62945892 -530.28094482 99.91534424 C-448.312282 57.97179147 -358.52656346 29.37889084 -178.01574707 0.44073486 C-175.73134357 0.22975704 -173.44882597 0.00405391 -171.16619873 -0.22528076 C-115.07394534 -5.77104526 -56.0769595 -5.64535163 0 0 Z " fill="#FBFE51" transform="translate(1086.7106323242188,2.77215576171875)"/><path d="M0 0 C368.94 0 737.88 0 1118 0 C1118 131.67 1118 263.34 1118 399 C1057.94 399 997.88 399 936 399 C933.36 393.72 930.72 388.44 928 383 C916.22021165 359.47278535 902.97107277 336.94498111 887 316 C886.52755859 315.37738281 886.05511719 314.75476563 885.56835938 314.11328125 C878.71576008 305.12343769 871.46687775 296.48416355 864 288 C863.175 287.0615625 862.35 286.123125 861.5 285.15625 C855.47996468 278.4589607 849.16690967 272.06624275 842.8125 265.6875 C841.96880859 264.83913574 841.12511719 263.99077148 840.25585938 263.11669922 C835.33233187 258.2057416 830.30467074 253.49641137 825 249 C824.18015625 248.29875 823.3603125 247.5975 822.515625 246.875 C781.87966364 213.24523888 736.81857946 188.10969596 686.96777344 171.01904297 C684.50691682 170.17405979 682.0528282 169.31366106 679.6015625 168.44140625 C663.82596607 162.94903483 647.52652684 159.4800736 631.07275391 156.74194336 C628.49833041 156.31222131 625.92694756 155.86689147 623.35546875 155.41992188 C602.4765474 151.84537511 581.9946271 150.55385344 560.8125 150.5625 C558.94224655 150.56239426 558.94224655 150.56239426 557.03421021 150.56228638 C511.99212712 150.6595757 467.47768393 157.67992917 425 173 C424.0934668 173.32323242 423.18693359 173.64646484 422.25292969 173.97949219 C374.33982372 191.20763941 329.03472314 217.03148904 291 251 C290.13375 251.76699219 289.2675 252.53398438 288.375 253.32421875 C285.90090977 255.53266147 283.4499819 257.76486267 281 260 C280.01773437 260.87785156 279.03546875 261.75570313 278.0234375 262.66015625 C266.58158346 272.95623844 255.86863759 284.07342412 246.28515625 296.12890625 C244.56743051 298.28707448 242.82864291 300.41288311 241.05859375 302.52734375 C220.56721873 327.11386053 204.27388788 354.41383884 190 383 C189.6282666 383.73557129 189.2565332 384.47114258 188.87353516 385.22900391 C169.29762463 424.16973919 157.2949651 467.80821326 152 511 C151.91459961 511.63147949 151.82919922 512.26295898 151.74121094 512.91357422 C149.86470926 526.88124484 149.69189733 540.76151685 149.73925781 554.84033203 C149.74992379 558.59814816 149.73933244 562.35548006 149.7265625 566.11328125 C149.711725 588.04976254 151.00397306 609.634732 154.8125 631.25 C154.94350098 632.01238983 155.07450195 632.77477966 155.20947266 633.56027222 C158.46141473 652.48233811 162.81870867 670.81342607 169 689 C169.34659668 690.0297998 169.69319336 691.05959961 170.05029297 692.12060547 C184.54287843 734.88653301 204.67721443 774.96624509 232 811 C232.7108374 811.93827637 232.7108374 811.93827637 233.43603516 812.89550781 C249.88214286 834.4670027 268.2841393 855.43177891 289 873 C289.95648437 873.845625 290.91296875 874.69125 291.8984375 875.5625 C336.22185963 914.58305993 390.32140668 943.68537553 447 960 C447.70543945 960.20786133 448.41087891 960.41572266 449.13769531 960.62988281 C468.54343618 966.29392792 488.74686149 969.98598943 508.75 972.8125 C509.51997314 972.92416504 510.28994629 973.03583008 511.08325195 973.15087891 C527.68721772 975.32452679 544.59851565 975.24022826 561.3125 975.25 C562.36248169 975.25067474 563.41246338 975.25134949 564.4942627 975.25204468 C581.84649712 975.23443505 598.80908123 974.54087481 616 972 C617.13598633 971.83371094 618.27197266 971.66742187 619.44238281 971.49609375 C657.16683064 965.76579788 693.31168492 954.86615759 728 939 C728.85174805 938.61521484 729.70349609 938.23042969 730.58105469 937.83398438 C750.34032065 928.86784141 769.03542441 918.15762954 787 906 C787.7007666 905.52594727 788.4015332 905.05189453 789.12353516 904.56347656 C799.23248567 897.67696966 808.82128108 890.28989827 818.22216797 882.46923828 C819.84511695 881.12799865 821.4815024 879.8070972 823.12890625 878.49609375 C828.28376182 874.37364319 833.07393164 870.10903343 837.63671875 865.3359375 C839.63962849 863.35620193 841.68158249 861.53168217 843.81640625 859.69921875 C847.88629833 856.16659212 851.59208247 852.39069521 855.25 848.4375 C855.89694824 847.74132568 856.54389648 847.04515137 857.21044922 846.32788086 C868.2052634 834.42832735 878.36051821 822.02144437 888 809 C888.74999268 807.98945557 888.74999268 807.98945557 889.51513672 806.95849609 C903.84716351 787.51362625 915.54317916 766.67660814 926.36938477 745.13525391 C928.49629228 741.04575753 930.76141701 737.02944939 933 733 C994.05 733 1055.1 733 1118 733 C1118 862.69 1118 992.38 1118 1126 C749.06 1126 380.12 1126 0 1126 C0 754.42 0 382.84 0 0 Z " fill="#000000" transform="translate(441,437)"/></svg>
