<svg xmlns="http://www.w3.org/2000/svg" fill="none" viewBox="0 0 400 400"><circle cx="200" cy="200" r="200" fill="#161515"/><circle cx="200" cy="200" r="200" fill="#063C4F"/><path fill="url(#a)" d="M50.564 230.938q2.21.063 4.436.062c30.51 0 58.975-8.758 83.016-23.898C147.858 257.758 192.46 296 245.994 296c43.814 0 81.645-25.615 99.334-62.687a111 111 0 0 0 4.061-2.258C330.058 295.245 270.486 342 199.994 342c-70.534 0-130.135-46.811-149.43-111.062"/><path fill="#04171E" fill-opacity=".88" d="M50.564 230.938q2.21.063 4.436.062c30.51 0 58.975-8.758 83.016-23.898C147.858 257.758 192.46 296 245.994 296c43.814 0 81.645-25.615 99.334-62.687a111 111 0 0 0 4.061-2.258C330.058 295.245 270.486 342 199.994 342c-70.534 0-130.135-46.811-149.43-111.062"/><path fill="url(#b)" d="M51.312 233.357q1.839.043 3.688.043c30.694 0 59.318-8.865 83.451-24.173C149.111 258.823 193.211 296 245.994 296c43.814 0 81.645-25.616 99.334-62.688a111 111 0 0 0 4.061-2.258C330.057 295.245 270.486 342 199.994 342c-69.646 0-128.632-45.64-148.682-108.643"/><path fill="#04171E" fill-opacity=".4" d="M51.312 233.357q1.839.043 3.688.043c30.694 0 59.318-8.865 83.451-24.173C149.111 258.823 193.211 296 245.994 296c43.814 0 81.645-25.616 99.334-62.688a111 111 0 0 0 4.061-2.258C330.057 295.245 270.486 342 199.994 342c-69.646 0-128.632-45.64-148.682-108.643"/><path fill="url(#c)" fill-opacity=".64" d="M273.798 292.456c-22.18 18.448-50.693 29.542-81.798 29.542-58.061 0-107.093-38.658-122.762-91.639a155.1 155.1 0 0 0 68.778-23.257C147.857 257.758 192.46 296 245.994 296c9.605 0 18.923-1.231 27.804-3.544"/><path fill="url(#d)" d="M328 186c0 70.692-57.308 128-128 128S72 256.692 72 186 129.308 58 200 58s128 57.308 128 128"/><path fill="url(#e)" fill-opacity=".6" d="M319.491 161.965c0 49.705-40.294 90-90 90s-90-40.295-90-90c0-49.706 40.294-90 90-90s90 40.294 90 90"/><path fill="url(#f)" fill-opacity=".64" d="M208.392 72.127a114 114 0 0 0-6.064-.162c-19.148 0-37.171 4.818-52.923 13.307a121.5 121.5 0 0 1 26.16-2.834c9.155 0 18.073 1.016 26.646 2.943z"/><path fill="url(#g)" fill-opacity=".64" d="M215.798 89.286c47.058 16.583 80.785 61.438 80.785 114.17 0 21.679-5.701 42.027-15.684 59.626 20.462-20.247 33.138-48.347 33.138-79.408 0-54.638-39.225-100.113-91.051-109.803z"/><path fill="url(#h)" fill-opacity=".64" d="M268.404 294.211c-19.787 12.534-43.248 19.791-68.404 19.791-39.868 0-75.478-18.226-98.954-46.801a110.6 110.6 0 0 0 19.955 1.805c49.479 0 91.327-32.667 105.154-77.61 4.562.401 9.181.606 13.847.606 31.966 0 61.686-9.614 86.427-26.109A129 129 0 0 1 328 186.002c0 4.247-.207 8.446-.611 12.586-7.19 38.832-28.763 72.617-58.985 95.623"/><path fill="url(#i)" d="M50.605 231.053c19.33 64.193 78.903 110.951 149.397 110.951 85.824 0 155.461-69.307 155.997-155.005a157 157 0 0 1-25.143-2.179c-19.228 8.475-40.491 13.18-62.853 13.18-7.755 0-15.377-.566-22.828-1.658-13.812 44.968-55.673 77.66-105.169 77.66-34.516 0-65.318-15.897-85.486-40.768a111 111 0 0 1-3.915-2.181"/><path fill="url(#j)" d="M355.998 187.135c-22.945 13.272-49.583 20.867-77.996 20.867-5.415 0-10.766-.275-16.038-.814-9.875 50.615-54.458 88.814-107.962 88.814-43.814 0-81.645-25.615-99.334-62.687a111 111 0 0 1-4.061-2.258c19.332 64.19 78.903 110.945 149.395 110.945 85.779 0 155.387-69.232 155.996-154.867"/><path fill="url(#k)" fill-opacity=".64" d="M344.624 193.102a155 155 0 0 1-29.621 10.486 163 163 0 0 1-7.796 34.104c-9.474 27.517-25.602 50.852-45.966 68.826 34.82-16.756 63.191-46.882 76.766-86.305a151 151 0 0 0 6.617-27.111"/><path fill="url(#l)" fill-rule="evenodd" d="M245.109 196.611a.513.513 0 0 1 .733-.099 102 102 0 0 0 16.868 10.866.547.547 0 0 1 .235.723.516.516 0 0 1-.701.243 103 103 0 0 1-17.04-10.977.55.55 0 0 1-.095-.756" clip-rule="evenodd" opacity=".2"/><defs><linearGradient id="c" x1="269.973" x2="218.509" y1="343.563" y2="75.875" gradientUnits="userSpaceOnUse"><stop stop-color="#04171E"/><stop offset="1" stop-color="#04171E" stop-opacity="0"/></linearGradient><linearGradient id="f" x1="281" x2="149" y1="122" y2="179.5" gradientUnits="userSpaceOnUse"><stop stop-color="#fff"/><stop offset=".732" stop-color="#fff" stop-opacity="0"/></linearGradient><linearGradient id="g" x1="281" x2="149" y1="122" y2="179.5" gradientUnits="userSpaceOnUse"><stop stop-color="#fff"/><stop offset=".732" stop-color="#fff" stop-opacity="0"/></linearGradient><linearGradient id="h" x1="526.015" x2="-13.856" y1="-151.509" y2="298.277" gradientUnits="userSpaceOnUse"><stop stop-color="#04171E"/><stop offset="1" stop-color="#04171E" stop-opacity="0"/></linearGradient><linearGradient id="i" x1="299" x2="96.499" y1="206.5" y2="278" gradientUnits="userSpaceOnUse"><stop stop-color="#0E6585"/><stop offset="1" stop-color="#04171E"/></linearGradient><linearGradient id="k" x1="345" x2="267.124" y1="193" y2="311.041" gradientUnits="userSpaceOnUse"><stop stop-color="#fff" stop-opacity=".64"/><stop offset="1" stop-color="#fff" stop-opacity="0"/></linearGradient><linearGradient id="l" x1="262.895" x2="237.578" y1="207.832" y2="192.182" gradientUnits="userSpaceOnUse"><stop stop-color="#8CF2FD"/><stop offset="1" stop-color="#8CF2FD" stop-opacity="0"/></linearGradient><radialGradient id="a" cx="0" cy="0" r="1" gradientTransform="matrix(-1132.68953 1.028 -2.98697 -3291.16864 349.389 309.05)" gradientUnits="userSpaceOnUse"><stop offset=".104" stop-color="#24537E"/><stop offset=".52" stop-color="#4FC1C0"/><stop offset="1" stop-color="#DAFFF4"/></radialGradient><radialGradient id="b" cx="0" cy="0" r="1" gradientTransform="matrix(-1132.68953 1.028 -2.98697 -3291.16864 349.389 309.05)" gradientUnits="userSpaceOnUse"><stop offset=".104" stop-color="#24537E"/><stop offset=".52" stop-color="#4FC1C0"/><stop offset="1" stop-color="#DAFFF4"/></radialGradient><radialGradient id="d" cx="0" cy="0" r="1" gradientTransform="rotate(-57.54 313.668 46.213)scale(225.482 3267.36)" gradientUnits="userSpaceOnUse"><stop offset=".104" stop-color="#3A78B1"/><stop offset=".52" stop-color="#4FC1C0"/><stop offset="1" stop-color="#8CF2FD"/></radialGradient><radialGradient id="e" cx="0" cy="0" r="1" gradientTransform="rotate(144.267 147.896 87.414)scale(221.744 220.17)" gradientUnits="userSpaceOnUse"><stop offset=".216" stop-color="#fff"/><stop offset=".906" stop-color="#fff" stop-opacity="0"/></radialGradient><radialGradient id="j" cx="0" cy="0" r="1" gradientTransform="matrix(144.36726 -115.09431 1795.10743 2251.67294 91.556 325.107)" gradientUnits="userSpaceOnUse"><stop offset=".104" stop-color="#3A78B1"/><stop offset=".52" stop-color="#4FC1C0"/><stop offset="1" stop-color="#8CF2FD"/></radialGradient></defs></svg>