<svg xmlns="http://www.w3.org/2000/svg" fill="none" viewBox="0 0 400 400"><circle cx="200" cy="200" r="200" fill="#161515"/><circle cx="200" cy="200" r="200" fill="#063C4F"/><path d="M50.564 230.938c1.4737.042 2.9524.062 4.4361.062 30.5101 0 58.9749-8.758 83.0159-23.898C147.858 257.758 192.46 296 245.994 296c43.814 0 81.645-25.615 99.334-62.687 1.371-.725 2.725-1.478 4.061-2.258C330.058 295.245 270.486 342 199.994 342c-70.534 0-130.1351-46.811-149.43-111.062Z" fill="url(#a)"/><path d="M50.564 230.938c1.4737.042 2.9524.062 4.4361.062 30.5101 0 58.9749-8.758 83.0159-23.898C147.858 257.758 192.46 296 245.994 296c43.814 0 81.645-25.615 99.334-62.687 1.371-.725 2.725-1.478 4.061-2.258C330.058 295.245 270.486 342 199.994 342c-70.534 0-130.1351-46.811-149.43-111.062Z" fill="#04171E" fill-opacity=".88"/><path d="M51.312 233.357c1.2259.029 2.4552.043 3.6879.043 30.6942 0 59.3181-8.865 83.4511-24.173C149.111 258.823 193.211 296 245.994 296c43.814 0 81.645-25.616 99.334-62.688 1.371-.725 2.725-1.478 4.061-2.258C330.057 295.245 270.486 342 199.994 342c-69.646 0-128.6321-45.64-148.682-108.643Z" fill="url(#b)"/><path d="M51.312 233.357c1.2259.029 2.4552.043 3.6879.043 30.6942 0 59.3181-8.865 83.4511-24.173C149.111 258.823 193.211 296 245.994 296c43.814 0 81.645-25.616 99.334-62.688 1.371-.725 2.725-1.478 4.061-2.258C330.057 295.245 270.486 342 199.994 342c-69.646 0-128.6321-45.64-148.682-108.643Z" fill="#04171E" fill-opacity=".4"/><path d="M273.798 292.456c-22.18 18.448-50.693 29.542-81.798 29.542-58.061 0-107.0935-38.658-122.7617-91.639 25.1182-2.273 48.5177-10.499 68.7777-23.257C147.857 257.758 192.46 296 245.994 296c9.605 0 18.923-1.231 27.804-3.544Z" fill="url(#c)" fill-opacity=".64"/><path d="M328 186c0 70.692-57.308 128-128 128-70.692 0-128-57.308-128-128 0-70.692 57.308-128 128-128 70.692 0 128 57.308 128 128Z" fill="url(#d)"/><path d="M319.491 161.965c0 49.705-40.294 90-90 90s-90-40.295-90-90c0-49.706 40.294-90.0002 90-90.0002s90 40.2942 90 90.0002Z" fill="url(#e)" fill-opacity=".6"/><path d="M208.392 72.1266a113.508 113.508 0 0 0-6.064-.1618c-19.148 0-37.171 4.8179-52.923 13.3076 8.424-1.8563 17.178-2.8348 26.16-2.8348 9.155 0 18.073 1.0166 26.646 2.9432l6.181-13.2542Z" fill="url(#f)" fill-opacity=".64"/><path d="M215.798 89.2861c47.058 16.5829 80.785 61.4379 80.785 114.1699 0 21.679-5.701 42.027-15.684 59.626 20.462-20.247 33.138-48.347 33.138-79.408 0-54.638-39.225-100.1134-91.051-109.803l-7.188 15.4151Z" fill="url(#g)" fill-opacity=".64"/><path d="M268.404 294.211c-19.787 12.534-43.248 19.791-68.404 19.791-39.868 0-75.478-18.226-98.954-46.801 6.472 1.186 13.141 1.805 19.955 1.805 49.479 0 91.327-32.667 105.154-77.61 4.562.401 9.181.606 13.847.606 31.966 0 61.686-9.614 86.427-26.109 1.034 6.551 1.571 13.267 1.571 20.109 0 4.247-.207 8.446-.611 12.586-7.19 38.832-28.763 72.617-58.985 95.623Z" fill="url(#h)" fill-opacity=".64"/><path d="M50.6047 231.053c19.3302 64.193 78.9033 110.951 149.3973 110.951 85.824 0 155.461-69.307 155.997-155.005-8.562-.054-16.961-.798-25.143-2.179-19.228 8.475-40.491 13.18-62.853 13.18-7.755 0-15.377-.566-22.828-1.658-13.812 44.968-55.673 77.66-105.169 77.66-34.516 0-65.3184-15.897-85.4859-40.768a110.834 110.834 0 0 1-3.9154-2.181Z" fill="url(#i)"/><path d="M355.998 187.135c-22.945 13.272-49.583 20.867-77.996 20.867-5.415 0-10.766-.275-16.038-.814-9.875 50.615-54.458 88.814-107.962 88.814-43.814 0-81.6446-25.615-99.3336-62.687a110.5467 110.5467 0 0 1-4.0617-2.258c19.3318 64.19 78.9033 110.945 149.3953 110.945 85.779 0 155.387-69.232 155.996-154.867Z" fill="url(#j)"/><path d="M344.624 193.102c-9.397 4.444-19.308 7.978-29.621 10.486-1.337 11.392-3.909 22.816-7.796 34.104-9.474 27.517-25.602 50.852-45.966 68.826 34.82-16.756 63.191-46.882 76.766-86.305 3.091-8.978 5.281-18.048 6.617-27.111Z" fill="url(#k)" fill-opacity=".64"/><path opacity=".2" fill-rule="evenodd" clip-rule="evenodd" d="M245.109 196.611c.176-.236.504-.28.733-.099 5.208 4.131 10.835 7.775 16.868 10.866.258.133.364.456.235.723-.129.267-.443.375-.701.243-6.094-3.123-11.779-6.804-17.04-10.977-.229-.182-.272-.52-.095-.756Z" fill="url(#l)"/><defs><linearGradient id="c" x1="269.973" y1="343.563" x2="218.509" y2="75.8748" gradientUnits="userSpaceOnUse"><stop stop-color="#04171E"/><stop offset="1" stop-color="#04171E" stop-opacity="0"/></linearGradient><linearGradient id="f" x1="281" y1="122" x2="149" y2="179.5" gradientUnits="userSpaceOnUse"><stop stop-color="#fff"/><stop offset=".7324" stop-color="#fff" stop-opacity="0"/></linearGradient><linearGradient id="g" x1="281" y1="122" x2="149" y2="179.5" gradientUnits="userSpaceOnUse"><stop stop-color="#fff"/><stop offset=".7324" stop-color="#fff" stop-opacity="0"/></linearGradient><linearGradient id="h" x1="526.015" y1="-151.509" x2="-13.8561" y2="298.277" gradientUnits="userSpaceOnUse"><stop stop-color="#04171E"/><stop offset="1" stop-color="#04171E" stop-opacity="0"/></linearGradient><linearGradient id="i" x1="299" y1="206.5" x2="96.4992" y2="278" gradientUnits="userSpaceOnUse"><stop stop-color="#0E6585"/><stop offset="1" stop-color="#04171E"/></linearGradient><linearGradient id="k" x1="345" y1="193" x2="267.124" y2="311.041" gradientUnits="userSpaceOnUse"><stop stop-color="#fff" stop-opacity=".64"/><stop offset="1" stop-color="#fff" stop-opacity="0"/></linearGradient><linearGradient id="l" x1="262.895" y1="207.832" x2="237.578" y2="192.182" gradientUnits="userSpaceOnUse"><stop stop-color="#8CF2FD"/><stop offset="1" stop-color="#8CF2FD" stop-opacity="0"/></linearGradient><radialGradient id="a" cx="0" cy="0" r="1" gradientUnits="userSpaceOnUse" gradientTransform="matrix(-1132.68953 1.028 -2.98697 -3291.16864 349.389 309.05)"><stop offset=".1042" stop-color="#24537E"/><stop offset=".5203" stop-color="#4FC1C0"/><stop offset="1" stop-color="#DAFFF4"/></radialGradient><radialGradient id="b" cx="0" cy="0" r="1" gradientUnits="userSpaceOnUse" gradientTransform="matrix(-1132.68953 1.028 -2.98697 -3291.16864 349.389 309.05)"><stop offset=".1042" stop-color="#24537E"/><stop offset=".5203" stop-color="#4FC1C0"/><stop offset="1" stop-color="#DAFFF4"/></radialGradient><radialGradient id="d" cx="0" cy="0" r="1" gradientUnits="userSpaceOnUse" gradientTransform="rotate(-57.54 313.6679 46.2128) scale(225.482 3267.36)"><stop offset=".1042" stop-color="#3A78B1"/><stop offset=".5203" stop-color="#4FC1C0"/><stop offset="1" stop-color="#8CF2FD"/></radialGradient><radialGradient id="e" cx="0" cy="0" r="1" gradientUnits="userSpaceOnUse" gradientTransform="rotate(144.267 147.8956 87.4141) scale(221.744 220.17)"><stop offset=".2165" stop-color="#fff"/><stop offset=".9063" stop-color="#fff" stop-opacity="0"/></radialGradient><radialGradient id="j" cx="0" cy="0" r="1" gradientUnits="userSpaceOnUse" gradientTransform="rotate(-38.563 510.438 31.6969) scale(184.631 2879.66)"><stop offset=".1042" stop-color="#3A78B1"/><stop offset=".5203" stop-color="#4FC1C0"/><stop offset="1" stop-color="#8CF2FD"/></radialGradient></defs></svg>