<svg xmlns="http://www.w3.org/2000/svg" data-name="图层 1" viewBox="0 0 157 158"><path d="M109.9 40.1c.5.4.2 1.2-.4 1.2h-62c-.6 0-.9-.8-.4-1.2 8.6-7 19.5-11.1 31.4-11.1s22.9 4.2 31.4 11.1M59.1 92.6c-.4-.5-.9-.8-1.6-.8H31.3c-.6 0-1 .6-.9 1.1 6 20.8 25.3 36.1 48 36.1s42-15.2 48-36.1c.2-.6-.3-1.1-.9-1.1H99.3c-.6 0-1.2.3-1.6.8-4.3 6.1-11.4 10.1-19.4 10.1s-15.2-4-19.4-10.1Zm37-29.5c.4.4.9.6 1.4.6h27.4c.6 0 1.1-.6.9-1.2-1.9-5.5-4.8-10.6-8.4-15.1-.3-.4-.9-.7-1.4-.7H41.1c-.5 0-1.1.2-1.4.7-3.6 4.4-6.5 9.5-8.4 15.1-.2.6.2 1.2.9 1.2h27.4c.5 0 1-.2 1.4-.6 4.3-4.8 10.6-7.8 17.6-7.8s13.2 3 17.6 7.8Zm5.9 23.2c-.5 0-.8-.5-.7-.9.6-2 .9-4.2.9-6.4s-.6-6.1-1.7-8.8c-.2-.5.1-1 .6-1h25.8c.3 0 .6.2.7.6q.9 4.5.9 9.3c0 4.8-.2 4.5-.4 6.7 0 .3-.3.6-.7.6h-25.3Zm-46.4-.9c.1.4-.2.9-.7.9H29.6c-.3 0-.6-.2-.7-.6-.3-2.2-.4-4.4-.4-6.7s.3-6.3.9-9.3c0-.3.3-.6.7-.6h25.8c.5 0 .8.5.6 1-1.1 2.7-1.7 5.7-1.7 8.8s.3 4.4.9 6.4Z" style="fill:#5d00ba;fill-rule:evenodd;stroke-width:0"/></svg>