<svg xmlns="http://www.w3.org/2000/svg" viewBox="-1.1 -1.2 258.3 258.4"><path fill="#353535" d="M210.6 29.2 218 36l2.3 2A125 125 0 0 1 253 96l1 3.6c8 33.3.3 68.4-17 97.4-5 7.6-10.8 14.4-17 21l-2 2.3a125 125 0 0 1-58 32.7l-3.6 1c-33.3 8-68.4.3-97.4-17-7.6-5-14.4-10.8-21-17l-2.3-2A125 125 0 0 1 2 156.3C-6 123.1 1.7 88 19 59c5-7.6 10.8-14.4 17-21l2-2.3A125 125 0 0 1 96 3l3.6-1c38.4-9.2 81 1.8 111 27.2"/><path fill="#2B2B2B" d="M211 91c3.7 1.5 5.9 3.8 8.6 6.8l2.3 2.5c2.2 2.8 3.7 5.4 5.1 8.7-.8 2.7-.8 2.7-2 5v3l2.4.8c2.6 1.2 2.6 1.2 3.4 3 .2 2.4.3 4.8.2 7.2l2-2 3 1-1-7h3l1.3 1.4c2.5 2.4 5.4 2.8 8.7 3.6l.4-1.9c.6-2.1.6-2.1 1.6-4.1h-2c.8-2 .8-2 2-4l3-1 1-3 2 1c1 41.3-6.8 75-36 106l-2 2.3a117 117 0 0 1-31 22.3l-2.4 1.3A32.3 32.3 0 0 1 172 248c0-2 0-2 2.4-4.4l2.6-2.6 2-3h2l1 4h2l-1-3c.4-2.7.4-2.7 1-5h-2l.7-1.6c.4-3.5-1-5.4-2.7-8.4v-2l-3.3-1-6.7-2 1-2.8c1.3-3.2 1.3-3.2 0-6.2h2l-6-7-2 2v2h-2l-.8 1.7c-2 4-3.9 6.9-8.2 8.3l-3.8-4.7-2.2-2.6a35.6 35.6 0 0 1-6-10.7l-1.3 3.2a28.9 28.9 0 0 1-5.7 8.8h-2v2c-3.7-.3-4.8-.8-7.3-3.6L124 207l-1.4 1.4-3.6 3.6c-.6-1.8-.6-1.8-1-4l2-3 1-7 3-1 6 12c3.6-1.2 4.3-2.7 6-6 1.4-3 2.2-5.9 3-9 7.3 3 11.4 11.3 15 18 4.4-4.4 5.4-10 6-16 2.2-.8 2.2-.8 5-1 2.2 1.9 2.2 1.9 4.3 4.4l2.1 2.6 1.6 2c1.5-1.5 1.2-3 1.3-5l.1-2.5.2-2.6v-2.6l.4-6.3c3.4-1.1 4.8-.8 8.2 0l2.7.5 2.1.5a22.2 22.2 0 0 0-5.7-9.1c-4-4.3-6.9-8.8-9.8-13.8L171 161h-3v2l-2 1v6l-8-1v12c-3.7-1-5.2-1.7-8-4l-2 6c-2.9-1.1-3.9-1.8-5.5-4.6-3.4-3.3-5.8-2.9-10.5-2.8l-3 .2-6 .1-2.6.1c-2.3 0-4.2-.3-6.4-1l.7 1.8a66 66 0 0 1 1.7 30c-.4 3.3-.2 4.5 1.6 7.2l-5 1c-.1-7.5-.1-7.5.6-10.2.6-4.3 0-8.4-.4-12.7l-.3-2.6c-.6-9-.6-9-4.9-16.5l-1-2h-3c-1.6-1.8-1.6-1.8-3.2-4l-1.6-2.3L98 163a783 783 0 0 1 11 5.6l1.9 1a44.1 44.1 0 0 0 33.4 1.3A51 51 0 0 0 173 150l3 1v-3l2-1c.7-2 .7-2 1-4h3v-2l3.3-.4c3.6-.5 3.6-.5 6.7-1.6l1-2 6-2-1-2-2.5 1.1c-9.3 4.1-18.6 7.4-28.3 10.5l-2.3.7a251.4 251.4 0 0 1-83.6 12.1c-15.2.1-32.9-1.6-46.3-9.4-1.2-3.1-1-5 .1-8.2l.8-2.4.9-2.5.8-2.4c1.3-4 2.2-6.7 5.4-9.5l1.1 1.4c6.8 7 15.7 8.6 24.9 10.6l2.4.5c22.3 4 45.8-1.3 67.6-5.5l5.4-1a153 153 0 0 0 54.6-21l2.6-1.7c5.2-3.5 7.6-7 9-13.2zm-30 128v5l3-3-1-2z"/><path fill="#08A96B" d="M124.3 61.7h2.8c14 .3 27.1 3.3 37.5 13.4C170 80.9 175 87.8 175 96h2a50.4 50.4 0 0 0-5.2-14.3C171 80 171 80 171 78c7.3-.3 13.7.5 20.8 2.3l2.7.6c5.2 1.2 9.4 2.5 13.5 6.1.8 4.7.6 6.9-1.6 11.1A75.6 75.6 0 0 1 171 119l-3.5 1.3c-33.8 12.6-79.6 22-114 8.3l-3-1.1c-3-1.8-4-3.3-5.5-6.5-.1-3.2.3-5 2.2-7.6A106 106 0 0 1 77 93v12.4c-.1 4.6 0 9 1 13.6a118 118 0 0 0 54 0l3-.7c13.3-3 32-7.5 41-18.3l1-3h-2l-1 3c-13 10.3-28.1 14.1-44 17.5l-5.7 1.6c-5.7 1.4-11.6 1.2-17.5 1.2h-3.5c-8.1 0-15.4-1.2-23.3-3.3-2.6-13-2.2-23.6 5-35a47 47 0 0 1 39.3-20.3"/><path fill="#2A2A2A" d="M212 31a123 123 0 0 1 43.4 77.3c-.6 3.8-2.5 5.2-5.4 7.7l-2 3h2l-1 8-3-2c-2-.5-4-1-6.2-1.3-1.8-.7-1.8-.7-3.8-3.7v7h-2l-1 2-2 1c-1-6.6-1-6.6-1-10l-2.4-1c-2.6-1-2.6-1-4.6-2l1-2.3 2-5.7c-3-6.8-8.2-14.6-15-18l-.3 3.1c-1 5.6-3.2 8.7-7.7 12.2l-3.4 2.1-1.8 1.2c-13 7.9-26.3 13-40.8 17.4l-3.5 1c-5.6 1.5-11.3 2.4-17 3.4l-3.1.5-3.2.6-9 1.6a142.6 142.6 0 0 1-59 .8l-2.5-.6A36.2 36.2 0 0 1 43 124c-2.6 4-4.2 8.1-5.7 12.6l-.7 2A25 25 0 0 0 35 147a1329 1329 0 0 0 12 4.3c12.7 4.6 25 5.1 38.4 5H88c16.3 0 32-1.2 47.9-4.3l2.7-.5A368.7 368.7 0 0 0 199 132v4l-1.9.8-2.5 1-2.4 1.1c-2.3 1-2.3 1-4.2 3.1v-2l-6 1v2h-3l-1 5h-2v3h-2l1-5c-6.4 1.6-12.7 3.2-19 5a348 348 0 0 1-32.6 7c-9 1.7-17.2 2.4-26.4 2v3l-2.3-.4c-7.7-1.3-15.3-2-23.2-2.4A56 56 0 0 1 63 159l-3.4-.4c-6.5-1-12.5-3.2-18.6-5.6v-2l-3 1c-2.6-.6-2.6-.6-5-2-1.4-3-1.4-3-2-6l2-3 .3-3A49 49 0 0 1 46 111h2l.8-1.8c3.7-6.7 12-10.4 18.5-14l2.1-1.3c5.1-2.8 5.1-2.8 7.8-3.4L79 90c1-1.9 1-1.9 1.4-4.1C81.8 81 84 77.2 88 74h3l1-3c3.1-2.6 6.6-4.8 10-7l3.3-2.3A50.6 50.6 0 0 1 137 59v2l2 1h-2.1c-20.1.2-34 2-48.8 17-9.3 11.2-9.4 24.3-8.1 38a142 142 0 0 0 26.8 2.3h3.5c6.3 0 11.7-.5 17.7-2.3l5.9-1.3c14.5-3.2 28.4-7.1 40.1-16.7l1-2h2a8.2 8.2 0 0 1-2.8 5.8l-2.3 1.7-2.2 1.7c-6.5 4.3-13.4 7-20.8 9.4l-2.8.9a128.9 128.9 0 0 1-40.4 6.7h-2.8A75 75 0 0 1 84 121l-3.6-.8C78 119 78 119 77 116.5c-1.1-4.5-1.1-8.7-1-13.4V94c-15.9 8.7-15.9 8.7-29 21-.9 3.4-1.1 5.4-.3 8.8 1 2.3 1 2.3 3 2.7l2.3.5 9.5 3.2c34.9 11.7 89-1.2 121.8-16.6 14.2-6.7 14.2-6.7 23.7-18.6.5-3 .3-5 0-8-4.3-3.6-9.9-4.4-15.2-5.6l-2.7-.7c-6-1.4-12-2.2-18.1-2.7l1.3 2.4 1.7 3.2 1.7 3.2c1.4 3.3 1.6 5.6 1.3 9.2h-2l-.9-2.3c-4.7-12-10.7-21-22.7-26.5A105 105 0 0 0 140 63v-2c10.5.5 17.9 4.3 25.3 11.7L167 74l3-1v2c2.4-.1 2.4-.1 5-1 1.7-2.4 1.7-2.4 3-5l2-1 4 4v2h3l2 2c3 .2 3 .2 5-1l1 3h6l-1-10 5-2-.5-3.2a54 54 0 0 1-.5-8.8v-3l5-2c2 3 2 3 2 6l5-1 2-6h-3l-1 2-.4-1.7A40 40 0 0 0 211 41l-3-1 2-1 1-3-1-2h2zm-26 41 3 1h-3z"/><path fill="#52C4F2" d="M211 91c3.7 1.5 5.9 3.8 8.6 6.8l2.3 2.5c2.2 2.8 3.7 5.4 5.1 8.7-.6 2.8-.6 2.8-2 5l-3 1v2l-3 1 .8-3.7c.4-3.4.3-4-1.6-7.2-2.1-2.3-2.1-2.3-5.2-3.1-2.3.7-2.3.7-4.6 1.8l-2.3 1c-2.2 1.1-2.2 1.1-4.1 3.2a27 27 0 0 0 1 11h12a81 81 0 0 1-32.5 18.1l-9 3.1a237 237 0 0 1-54.7 13.3c-9.9 1.5-19.5 1.9-29.5 1.9h-7.9c-15.2.1-33-1.6-46.4-9.4-1.2-3.1-1-5 .1-8.2l.8-2.4.9-2.5.8-2.4c1.3-4 2.2-6.7 5.4-9.5l1.1 1.4c6.8 7 15.7 8.6 24.9 10.6l2.4.5c22.3 4 45.8-1.3 67.6-5.5l5.4-1a153 153 0 0 0 54.6-21l2.6-1.7c5.2-3.5 7.6-7 9-13.2z"/><path fill="#1CE0F5" d="M171 78c7.3-.3 13.7.5 20.8 2.3l2.7.6c5.2 1.2 9.4 2.5 13.5 6.1.8 4.7.6 6.9-1.6 11.1A75.6 75.6 0 0 1 171 119l-3.5 1.3c-33.8 12.6-79.6 22-114 8.3l-3-1.1c-3-1.8-4-3.3-5.5-6.5-.1-3.2.3-5 2.2-7.6A106 106 0 0 1 77 93v12.4c-.1 4.6 0 9 1 13.6a118 118 0 0 0 54 0l3-.7c14-3.1 32.6-7.9 42-19.3 1-6.1-2-11.8-5-17-1-2-1-2-1-4"/><path fill="#141520" d="M137 59v2l2 1h-2.1c-20.1.2-34 2-48.8 17-9.3 11.2-9.4 24.3-8.1 38a142 142 0 0 0 26.8 2.3h3.5c6.3 0 11.7-.5 17.7-2.3l5.9-1.3c14.5-3.2 28.4-7.1 40.1-16.7l1-2h2a8.2 8.2 0 0 1-2.8 5.8l-2.3 1.7-2.2 1.7c-6.5 4.3-13.4 7-20.8 9.4l-2.8.9a128.9 128.9 0 0 1-40.4 6.7h-2.8A75 75 0 0 1 84 121l-3.6-.8C78 119 78 119 77 116.5a50.7 50.7 0 0 1-1-16V94c-15.9 8.7-15.9 8.7-29 21-.9 3.4-1.1 5.4-.3 8.8 1 2.3 1 2.3 3 2.7l2.3.5 9.5 3.2c34.9 11.7 89-1.2 121.8-16.6 14.2-6.7 14.2-6.7 23.7-18.6.6-2.8.7-5.2 0-8-2.8-2.6-2.8-2.6-6-4 3.8-2 3.8-2 6-2l3.7 4.5c1.6 1.8 3.4 3 5.3 4.5v2l1.8.8c3.6 2 5.7 5 8.2 8.2l1.8 2.1c1.5 2.4 2 4.1 2.2 6.9-1 2.8-1 2.8-2 5h-3l-1 3c0-4 0-4 1.2-6.4 1-2.6 1-2.6 0-5-5.8-9.1-5.8-9.1-14.2-15.6l-.3 3.1c-1 5.6-3.2 8.7-7.7 12.2l-3.4 2.1-1.8 1.2c-13 7.9-26.3 13-40.8 17.4l-3.5 1c-5.6 1.5-11.3 2.4-17 3.4l-3.1.5-3.2.6-9 1.6a142.6 142.6 0 0 1-59 .8l-2.5-.6A36.2 36.2 0 0 1 43 124c-2.6 4-4.2 8.1-5.7 12.6l-.7 2A25 25 0 0 0 35 147a1329 1329 0 0 0 12 4.3c12.7 4.6 25 5.1 38.4 5H88c16.3 0 32-1.2 47.9-4.3l2.7-.5A368.7 368.7 0 0 0 199 132v4l-1.9.8-2.5 1-2.4 1.1c-2.3 1-2.3 1-4.2 3.1v-2l-6 1v2h-3l-1 5h-2v3h-2l1-5c-6.4 1.6-12.7 3.2-19 5a348 348 0 0 1-32.6 7c-9 1.7-17.2 2.4-26.4 2v3l-2.3-.4c-7.7-1.3-15.3-2-23.2-2.4A56 56 0 0 1 63 159l-3.4-.4c-6.5-1-12.5-3.2-18.6-5.6v-2l-3 1c-2.6-.6-2.6-.6-5-2-1.4-3-1.4-3-2-6l2-3 .3-3A49 49 0 0 1 46 111h2l.8-1.8c3.7-6.7 12-10.4 18.5-14l2.1-1.3c5.1-2.8 5.1-2.8 7.8-3.4L79 90c1-1.9 1-1.9 1.4-4.1C81.8 81 84 77.2 88 74h3l1-3c3.1-2.6 6.6-4.8 10-7l3.3-2.3A50.6 50.6 0 0 1 137 59"/><path fill="#63D145" d="M128 62c13.2.2 25 2.8 35 12l1.9 1.7A20 20 0 0 1 169 81c-.6 4-.6 4-2 7l2-1 1 4-2 1-2 3h-2l-.9 1.8-3.1 6.2-2.3-.6c-3-.7-3-.7-5.7 1.6h-3l-3 1-1-1-2 2-2-1v2l-3 1-1 2h-3v-2c-2 1.8-2 1.8-3 4-1.9.8-1.9.8-4 1l-3-2-3.6-1-3.4-1-1-3c-2-1.2-2-1.2-4-2l5-1 1 3 1-3-4-2 3-1-2-1-1-5-3-1 1.8-.7c2.8-1.7 4.4-3.5 6.2-6.3l-1-3a623 623 0 0 1 2-5v-2.7c0-2.3 0-2.3 2-4.3l-1-2 2-1 1-3h3z"/><path fill="#2B2B2B" d="m174 164 4 1 .4 2.4.6 2.6 2 1 5 5 2.8 2.6c2.2 2.4 2.2 2.4 3.2 5.4h7l1 3a7 7 0 0 0 4 2c2.2-.8 2.2-.8 4-2v-3l6 1 1-2 6 1-1 8 6-4c-.3 4-.8 5.8-3.5 9-3 3.5-3 5.5-3.5 10a29 29 0 0 1-4 8c-2.8 1-2.8 1-5 1l-3-4c-4.6 1.2-4.6 1.2-9 3-2.1-2.1-2.4-3.1-3-6l-.3 1.8a9.2 9.2 0 0 1-3.7 5.2h-2l-.4 2.3-1.6 6.7h-2v3l-4-1-1-5-3.3-1-6.7-2 1-2.8c1.3-3.2 1.3-3.2 0-6.2h2l-6-7-2 2v2h-2l-.8 1.7c-2 4-3.9 6.9-8.2 8.3a1384 1384 0 0 1-6-7.3 35.6 35.6 0 0 1-6-10.7l-1.3 3.2a28.9 28.9 0 0 1-5.7 8.8h-2v2c-3.7-.3-4.8-.8-7.3-3.6L124 207l-1.4 1.4-3.6 3.6c-.6-1.8-.6-1.8-1-4l2-3 1-7 3-1 6 12c3.6-1.2 4.3-2.7 6-6 1.4-3 2.2-5.9 3-9 7.3 3 11.4 11.3 15 18 4.4-4.4 5.4-10 6-16 2.2-.8 2.2-.8 5-1 2.2 1.9 2.2 1.9 4.3 4.4l2.1 2.6 1.6 2c1.5-1.5 1.2-3 1.3-5l.1-2.5.2-2.6v-2.6l.4-6.3c3.4-1.1 4.8-.8 8.2 0l2.7.5 2.1.5c-1.3-4-3-6.4-5.9-9.4-8.1-8.9-8.1-8.9-8.1-12.6m7 55v5l3-3-1-2z"/><path fill="#03BE53" d="M170 160c3 2.9 5.2 5.7 7.3 9.3a45 45 0 0 0 9.4 11.2c1.3 1.5 1.3 1.5 1.3 5.5-4.2 0-8-.1-12-1l-.1 3.9-.3 5v2.5l-.2 2.5v2.2c-.4 1.9-.4 1.9-2.4 3.9l-1.6-2-2.2-2.5-2-2.5c-2.2-2.5-2.2-2.5-6.2-2l-.3 2c-1 5.8-2.5 10-5.7 15-2.4-2.1-4-4.5-5.8-7.2a160 160 0 0 0-4.8-6.7l-1.8-2.3-1.6-1.8h-2l-.7 3.6A28.2 28.2 0 0 1 132 210c-3-1-3-1-4.4-3.2l-1.3-2.7-1.3-2.8c-1-2.3-1-2.3-1-4.3l-2 1c-.6 2.2-.9 4.5-1.2 6.8-1 2.8-2.4 3.5-4.8 5.2v-2l.1-9.6v-3.3c.1-5.8-.3-10.6-2.1-16.1v-4l13.2-.4 3.8-.2c9-.2 9-.2 12 2.2l3 5.4h2l2-6 2.3 2c2.6 2.1 2.6 2.1 5.7 3v-12l8 1-1-6 3-1v-2z"/><path fill="#1CE4F9" d="M76 93c1.5 4.5 1 9.3 1 14 0 4.1.2 8 1 12 13 2.4 13 2.4 26 4l-1 5h-3l3 3a8.3 8.3 0 0 1-5.4 3.6c-5 .5-9.8.4-14.8.2l-3-.1a78.1 78.1 0 0 1-26.3-6l-3-1.2c-3-1.8-4-3.3-5.5-6.5-.1-3.2.3-5 2.2-7.6C55 104.9 66 98.7 76 93"/><path fill="#9253FB" d="m42 123 1.5 1.2 2 1.6 2 1.6a52 52 0 0 0 19.7 7.2c7.2 1.7 14.4 2.2 21.8 2.4v1l-6 1 2 2.7c2 3.3 2 3.3 2.6 5.9-1 3.7-3.5 5.4-6.6 7.4-9 5.2-21.4 1-30.8-1.4-10.6-3-10.6-3-15.2-5.6-1.2-3.1-1-5 .1-8.2l.8-2.4 1-2.5.7-2.4C39 128.9 40 126 42 123"/><path fill="#FD8808" d="M176 146c-8.2 15.8-19.3 21.6-35.8 27.3a47 47 0 0 1-35.7-5.9c-5.1-3.7-5.1-3.7-6.5-6.4l3.5-.6c35.2-5 35.2-5 69.3-14.8 2.2-.6 2.2-.6 5.2.4"/><path fill="#55BFFB" d="M109 141.4c2 2.6 2 2.6 2 6.6h4l-.4-2.7c.4-3.3.4-3.3 3-6.2 3.7-2.3 5.2-3 9.4-2.1 2.8 1.5 2.8 1.5 5 4 .9 3.3 1 6.6 1 10l3 2-6 .9-3.5.5-2 .2-5.8 1a174 174 0 0 1-32.4 1.5L76 157c1.6-3.2 4.8-3.6 8-5l2-2c-.3-4.8-1.3-8-4-12 9.1-1.6 19.3-2.8 27 3.4"/><path fill="#407C99" d="m106 65 4 4-6 1-2 6 2 1v2l-2 1-3 2-1-2-2 1c-.7 3-.7 3-1 6l3 1-1 1 .5 2c.5 2 .5 2-.5 4l-4-1v3l-3-1-1 2 2 1-1 1 3 1-3 3h3l1-2 3 2-2 2 1 3 3 1 1 1 2.4.3 2.6.7.9 1.9c1.8 3.3 4.6 3.8 8.1 5.1v1a101 101 0 0 1-34-3 43.5 43.5 0 0 1 5-35c5.3-7.9 13-12.2 21-17"/><path fill="#28A276" d="M169 82c2.4 2.2 3.6 4 4.7 7l.7 2c.6 2 .6 2 .6 5h2l1-2v5l-1-2h-2l-1 3c-13 10.3-28.1 14-44 17.5l-6.2 1.6c-5.8 1.4-10.4 1-15.8-1.4-2.2-1.9-2.7-2.9-3-5.7l-2 .5c-2.7.7-2.7.7-5-.5l-1-2-4-4 3-2h-6v-3l-1-3 1-3 1 2h2l1-2 2 2 2 1v7h2l1-2v2l2 1h-4l3 2 1 3 6 1-1-3 5-1 2 4h2v-2c4.3-.2 7.2-.2 11 2h3l-1-4h4v2h3l1-3h3v-2h2l2-2 2 1 4-2h2l2-1 3 1 1-2h1l4-5 3-3 2-3-3-1z"/><path fill="#F0EF27" d="M166 163h2l3.6 6.8 1 2c.9 1.7 1.6 3.4 2.4 5.2l-1 3-1.8-1c-2.3-1.1-2.3-1.1-5.2-2l1 16-3 1-9-9-1 13h-3c-1.9-2.2-1.9-2.2-3.9-5.1-4.6-7.4-4.6-7.4-11.1-12.9l-.3 2c-1 5.3-2 10.2-4.7 15l-4 1-3-9-3 3-3-1v-11h4l1-2h2l.8 2.4 1.2 2.6 3 1 .3-2.9c.7-3.1.7-3.1 3.7-5.1l6-1 1 1.5 1.4 2 1.3 2 1.3 1.5h2l2-6 2.3 2c2.6 2.1 2.6 2.1 5.7 3v-12l8 1-.6-3-.4-3z"/><path fill="#2CE1FB" d="M171 78c7.3-.3 13.7.5 20.8 2.3l2.7.6c5.3 1.2 9.2 2.8 13.5 6.1l-1 4-5 1v-2h-5l-.8 3.3c-1 3.3-1.5 4.6-4.2 6.7l-2-2c-3.2.3-6 1-9 2v4l4 1v4l-4-1 2-1-3 1c-3 1-3 1-6 0l-2 6-3-2-3-1-.2 1.8c-1.1 3-3.1 4.3-5.8 6.2-2.4-.8-2.4-.8-5-2l-1-3h2v2c3.3-1.8 4.9-2.8 7-6l3-2 5.1-4 2.7-2.2c2-1.6 2-1.6 3.2-2.8a34 34 0 0 0-5-17c-1-2-1-2-1-4"/><path fill="#B0EA3E" d="m140 69 2 1v4h2v-2l5 1 1 2h3v2l5 1 .3 2 .7 2 3 1-1 2c.4 2.1.4 2.1 1 4l-6 2 6 1-2 4c-4.8-.8-4.8-.8-7-3l-5-1v3l-4.9 1.1-2.7.7-2.4.2-2-2c-3.1.3-3.1.3-6 1l1-4h-2l-2-2 2-3-1-2 1-1-1-2 2-.4 2-.6 1-2-2-2h3l4-2v-4h2z"/><path fill="#32DDF8" d="M76 93c1.5 4.6 1 9.3 1 14 0 3.9 0 7.3 1 11-3.3 1.1-3.8 1-7 0l-6-1v5l-1-2c-4.9.9-4.9.9-8.4 4l-.6 2-1 2c-3.5-.9-5.5-1.5-8-4.3-1.3-3.6-1.3-5 0-8.7 7-9.6 20-16.2 30-22"/><path fill="#121A1E" d="m174 164 4 1 .4 2.4.6 2.6 2 1a281 281 0 0 1 7.8 7.6c2.6 2.9 3.2 4.6 3.2 8.4-3.5 2.1-7 2.5-11 3v-2h-2c-.8 3.4-1.1 6.5-1 10l2 1h-2l-.3 2.9c-.7 3.1-.7 3.1-3.7 5.1-3.4-.3-5.4-1.9-8-4l-1 4h-2l-.8 1.7c-2 4-3.9 6.9-8.2 8.3a1384 1384 0 0 1-6-7.3 35.6 35.6 0 0 1-6-10.7l-1.3 3.2a28.9 28.9 0 0 1-5.7 8.8h-2v2c-3.7-.3-4.8-.8-7.3-3.6L124 207l-1.4 1.4-3.6 3.6c-.6-1.8-.6-1.8-1-4l2-3 1-7 3-1 6 12c3.6-1.2 4.3-2.7 6-6 1.4-3 2.2-5.9 3-9 7.3 3 11.4 11.3 15 18 4.4-4.4 5.4-10 6-16 2.2-.8 2.2-.8 5-1 2.2 1.9 2.2 1.9 4.3 4.4l2.1 2.6 1.6 2c1.5-1.5 1.2-3 1.3-5l.1-2.5.2-2.6v-2.6l.4-6.3c3.4-1.1 4.8-.8 8.2 0l2.7.5 2.1.5c-1.3-4-3-6.4-5.9-9.4-8.1-8.9-8.1-8.9-8.1-12.6"/><path fill="#8A4BEC" d="M211 91c3.7 1.5 5.9 3.8 8.6 6.8l2.3 2.5c2.2 2.8 3.7 5.4 5.1 8.7-.6 2.8-.6 2.8-2 5l-3 1v2l-3 1 .8-3.7c.4-3.4.3-4-1.6-7.2-2.1-2.3-2.1-2.3-5.2-3.1-2.3.7-2.3.7-4.6 1.8l-2.3 1c-2.2 1.1-2.2 1.1-4.1 3.2a27 27 0 0 0 1 11h12c-3 3-5.3 5-9 7.3l-2.5 1.5a13 13 0 0 1-7.5 1.2l1-2c.3-4 .3-5.5-2-9-2.2-1-2.2-1-4.6-1.7l-2.5-.7-1.9-.6c3-3.3 6-5.3 10-7.5 6.4-3.6 11.1-6.5 14-13.5.7-2.7.7-2.7 1-5"/><path fill="#151319" d="M98 163a783 783 0 0 1 11 5.6l1.9 1c11.5 5.7 23.8 4.3 35.7.4 3-1 5.9-2.2 8.7-3.7 2.7-1.3 2.7-1.3 5-1l1.7.7-1.5 1.1c-2.1 2.6-2 4.7-2.2 8l-.2 3.4-.1 2.5c-3.3-.7-5.3-1.8-8-4l-2 6c-2.9-1.1-3.9-1.8-5.5-4.6-3.4-3.3-5.8-2.9-10.5-2.8l-3 .2-6 .1-2.6.1c-2.3 0-4.2-.3-6.4-1l.7 1.8a66 66 0 0 1 1.7 30c-.4 3.3-.2 4.5 1.6 7.2l-5 1c-.1-7.5-.1-7.5.6-10.2.6-4.3 0-8.4-.4-12.7l-.3-2.6c-.6-9-.6-9-4.9-16.5l-1-2h-3c-1.6-1.8-1.6-1.8-3.2-4l-1.6-2.3z"/><path fill="#141621" d="M215.7 104.1c4 3.3 4 3.3 5.3 5.9-.3 3.8-.3 3.8-1 7h2l1-2 1 4-3.4 3-1.9 1.7C217 125 217 125 215 125l-1 3-2 2a24 24 0 0 1-7-1c2.5-2.6 5-4.9 8-7l-3.8.3c-3 0-4-.2-6.7-1.8a13.5 13.5 0 0 1-2-8.5c1-3.7 3.4-5 6.5-7 3.6-1.8 5-2.4 8.7-.9"/><path fill="#9B24FA" d="m42 123 1.5 1.2A50 50 0 0 0 57 132l4 2c-3 1-3 1-6.4.8-4.2.2-5.6 1.3-8.6 4.2.3 2.6.7 4.5 2.1 6.7 2.7 1.9 5.7 2.4 8.9 3.3l2 2c-.4 2.1-.4 2.1-1 4-7.9-1.2-16-3.2-23-7-1.3-3.1-1-5.1.1-8.2l.8-2.4 1-2.5.7-2.4C39 128.9 40 126 42 123"/><path fill="#77D646" d="m134 71 3 1-1 5h-3l1 3-3 3h-1l-1 3 2 2-3 2h3l2 2-2 2 5 1 1-2 1 3 4.4-.8 2.5-.5 2.1-.7 1-3 1.9.6c2.1.6 2.1.6 4.1-.6l2 3h4l1 3c-5.2 1.9-9.5 2-15 2l-1 2-2-1c-2.9 0-5.2.3-8 1l-2 2-1-3c-1.2 0-1.2 0-3 1l-1 3h-2l1-6h-4c-2.6-2.6-2.5-4.5-3-8h3l-1-3c.4-2.2.4-2.2 1-4h3l-1-3 2-1-1-6c2.3-.6 2.3-.6 5-1l3 2z"/><path fill="#36CA4F" d="M122 69c6.6.8 6.6.8 10 3h-3l-1 2-2-1 2 3c-.4 2.2-.4 2.2-1 4h-2v2l2 1-2 1-2-1 .5 1.8c.5 2.2.5 2.2.5 5.2l1 2-5-2 2 7h2c-1 3-1 3-2 5l2 1h-2l4 5 1-2v2c3.7-1.1 3.7-1.1 6-4 5.4-1.3 5.4-1.3 8 0v3l-3 1-1 2h-3v-2c-2 1.8-2 1.8-3 4-1.9.8-1.9.8-4 1l-3-2-3.6-1-3.4-1-1-3c-2-1.2-2-1.2-4-2l5-1 1 3 1-3-4-2 3-1-2-1-1-5-3-1 1.8-.7c2.8-1.7 4.4-3.5 6.2-6.3l-1-3a623 623 0 0 1 2-5v-2.7c0-2.3 0-2.3 2-4.3z"/><path fill="#318A8A" d="M90 84h3l1 3c2 .7 2 .7 4 1l-1 1 .5 2c.5 2 .5 2-.5 4l-4-1v3l-3-1-1 2 2 1-1 1 3 1-3 3h3l1-2 3 2-2 2 1 3 3 1 1 1 2.4.3 2.6.7.9 1.9c1.8 3.3 4.6 3.8 8.1 5.1v1H98v-3l-2-3h-3c-2.2-1.4-2.2-1.4-4-3v-2h-2v-2l-2-1h2v-2l-2-1c-.5-2.2-.5-2.2-.8-4.9l-.2-2.7c0-2.4 0-2.4 2-5.4v-3l2 1h3z"/><path fill="#0BA56C" d="M128 62v3l-3 1v3h-3v2l-6 1-1 3c-1.9.6-1.9.6-4 1l-3 1v5l-5 1-2-5 3 1v-2l-3-1c1.3-3.4 1.3-3.4 3-7 2.2-1 2.2-1 4-1l-1-3c6.8-3.9 13.4-3.3 21-3"/><path fill="#07B765" d="M119 70h5l1 2-3 1 .1 2.7c-.1 3.3-.9 5.3-2.1 8.3l1 3c-3.4 3.7-6.4 6-11 8l-3-2 1-2h-2c-2.1-1.9-2.1-1.9-4-4v-2l7-1v-2l2-1v-2l-3-2c3.6-3 3.6-3 7-3v-3l4 1z"/><path fill="#F47F38" d="M189 117c7.2 2.4 7.2 2.4 9 6 .4 2.9.4 2.9 0 6-3 3-5.6 4.8-9.8 5.3-4-.4-5.6-1.2-8.2-4.3-1.1-6.4-1.1-6.4 1.1-9.7 2.6-2.4 4.4-3.3 8-3.3Z"/><path fill="#F17B2F" d="m170.5 125.8 2.4.5c2.1.7 2.1.7 4.1 2.7.7 7 .7 7-1.6 10.4a15 15 0 0 1-9.4 2.6c-3.4-1.5-3.4-1.5-6-4-1.2-3.4-1.2-3.4-1-7 3.7-4.6 5.8-6.5 11.5-5.2"/><path fill="#A335EF" d="M145 132c2 0 2 0 4.4.3.8 0 1.6 0 2.4.2 2.6.6 3.6 1.3 5.2 3.5.5 4 .7 6.1-1.8 9.4-4 2.9-7.4 3-12.2 2.6-2.4-1.6-2.4-1.6-4-4-.6-3-.6-3 0-6 2.4-2.8 2.4-2.8 5-5z"/><path fill="#53CC4E" d="m168 87 2 4-2 1-2 3h-2l-.9 1.8-3.1 6.2-2.3-.6c-3-.7-3-.7-5.7 1.6h-3l-3 1-1-1-2 2-6-3-1 2-4 1-2.6 1.1c-2.4.9-2.4.9-5.4-.1-1.5-2.2-2-3.4-1.8-6 1-2.3 2-3.4 3.8-5a15 15 0 0 1 2 4c-.9 2.3-.9 2.3-2 4 2.2-2 3-3 4-6l3 3 3-2c2.7-.6 5.2-.8 8-1l1 1 1.8-.5c2.2-.5 2.2-.5 4.8 0l2.4.5 2-2h5v-2h2v-3h2v-2z"/><path fill="#161724" d="M127 137c3 1.6 4.6 2.7 5.6 6 .6 3 .9 5.3-.8 8-4 2.3-7.4 2.4-11.8 2-3.3-2.1-4-3.7-5.1-7.4.1-3.6.1-3.6 2.7-6.5 3.2-2.3 5.5-2.9 9.4-2.1"/><path fill="#7B80F9" d="M171 78a68 68 0 0 1 23.8 3.1c6.8 1.7 6.8 1.7 9.2 2.9v2c-5 1.1-10 1-15.1.8-3.1.2-5.2.7-7.9 2.2l-1 3c-3.9-1.5-5-3.3-6.8-7l-1.2-2.7c-1-2.3-1-2.3-1-4.3"/><path fill="#57CD46" d="M128 62c11 .2 20.7 1.8 30 8l-1 3h-2l-1-2-2 2-2-3-1.7.6c-2.7.5-4.6 0-7.3-.6l-3 1c-.7 2-.7 2-1 4a25 25 0 0 1-10-5l-1 2-2-6 4-1z"/><path fill="#48D9FA" d="M136 131c1.7 2.5 1.7 2.5 3 5l-2.4.3c-3 .5-3 .5-4.6 3.7l-2.1-1a17.1 17.1 0 0 0-8.9-1c-3 1.5-3 1.5-5 4-.9 3.1-.9 3.1-1 6h-4l-.7-2.8c-1.5-3.8-2.6-4.6-6.3-6.2-2.7-.7-2.7-.7-5-1 3.5-2 6.9-2.6 10.8-3.3l2-.3a952 952 0 0 1 10.5-1.7c10.2-1.7 10.2-1.7 13.7-1.7"/><path fill="#F8E429" d="M111 160c1.5 1.3 1.5 1.3 3 3l3.6 1.4c3.4 1.6 3.4 1.6 5.4 6.6h19c-4.1 4.1-10 3.4-15.6 3.4-10.3-.2-20-4.3-27.4-11.4l-1-2c4.4-.9 8.5-1.3 13-1"/><path fill="#8084FC" d="M76 93c1.3 4.3.7 7.6 0 12l-2.2.8c-3.7 1.6-7.4 3.4-11 5.2-3 1-4.8 1.1-7.8 1l-7 2a45.2 45.2 0 0 1 12.9-11.7c5-3.3 10-6.3 15.1-9.3"/><path fill="#4FCAF7" d="M211 91c3.7 1.5 5.9 3.8 8.6 6.8l2.3 2.5c2.2 2.8 3.7 5.4 5.1 8.7-.6 2.8-.6 2.8-2 5l-3 1v2l-3 1 .8-3.7c.4-3.4.3-4-1.6-7.2-2.1-2.3-2.1-2.3-5.2-3.1-2.3.3-2.3.3-4.7 1l-2.4.5-1.9.5 1.3-2 1.6-2.7 1.7-2.6c1.4-2.6 2-4.8 2.4-7.7"/><path fill="#13101B" d="M79.6 138.3c3.4.7 3.4.7 5.8 3.4 2.3 4.8 2.3 4.8 1.6 8.3-1.5 2.3-1.5 2.3-4 4-5 .7-6.9.8-11-2.2-2-2.8-2-2.8-2.1-5.3 2.1-4.8 4.5-7.2 9.7-8.2"/><path fill="#2F262F" d="M106 139c3 2.2 3 2.2 5 5 0 3.2 0 3.2-1 6-4 2.7-7.3 2.5-12 2-2.6-1-2.6-1-4-3-.7-6-.7-6 1.4-8.9 3.8-2.6 6.1-2.2 10.6-1.1"/><path fill="#191925" d="M140 61c10.5.5 17.9 4.3 25.3 11.7L167 74l3-1v2l2.3-.1h3l3.1-.2 2.6.3 2 3h-12l1.3 2.4 1.7 3.2 1.7 3.2c1.4 3.3 1.6 5.6 1.3 9.2h-2l-.9-2.3c-4.7-12-10.7-21-22.7-26.5A105 105 0 0 0 140 63z"/><path fill="#FA9C12" d="M176 146c-7.5 14.3-16.9 20.6-32 26h-2v-5l3-1 1 2 2-2c-.3-2.1-.3-2.1-1-4l3 1v3l7-2 1-4 1.8-.3a9.2 9.2 0 0 0 5.2-3.7c.1-2 .1-2-1-4l-1.9.6c-2.1.4-2.1.4-4.1-.6v-2l7.3-2.6 2.1-.7c5.3-1.8 5.3-1.8 8.6-.7"/><path fill="#5FB5FA" d="m206.3 86 1.7 1-1 4-5 1v-2h-5l-1 2h-2v3c-5.8 1.1-5.8 1.1-8 0l-7 2c-2-3-2-3-2-6h3l3-3c3.7-2.5 5.5-2.2 10-2 4.1 0 9.5-1.6 13.3 0"/><path fill="#249A7E" d="m90 95 1 2h2l1-2 2 2 2 1v7h2l1-2v2l2 1h-4l3 2 1 3 6 1-1-3 5-1c2.3 3.6 3.8 7 5 11-5 .3-8.1.2-12-3-.8-2.2-.8-2.2-1-4l-2 .5c-2.7.7-2.7.7-5-.5l-1-2-4-4 3-2h-6v-3l-1-3z"/><path fill="#190F29" d="M58 134c2.4 2.4 2.3 3.1 2.3 6.4v2.4c-.4 2.7-1.1 3.6-3.3 5.2-4.5.7-6.3.5-10-2.2-2-2.8-2-2.8-2.1-5.4 2.7-6 6.8-7.1 13.1-6.4"/><path fill="#62ABEB" d="m185 116 1 2-2.5 1.5c-2.6 2.6-3 3-3 6.6.1 3.8.1 3.8 2.1 5.9 6.1 2.6 11.5.2 17.4-2-3.3 4-7 5.4-11.7 7l-2.1.8c-5 1.8-10.1 3.6-15.2 5.2l-1-2 2.4-.9c2.7-.8 2.7-.8 3.6-3.1v-15l-2-1z"/><path fill="#52CDF9" d="m144 130-1 3h-2l-.7 5.3-.4 3c-.2 2.7-.2 2.7 1.5 4.4l1.6 1.3 3 3a30.8 30.8 0 0 1-13 2l-2-2 1-5-.7-2.5c-.3-2.5-.3-2.5 1.4-5.3 2.3-2.2 2.3-2.2 5.3-2.2l-2-4c3-1 5-1 8-1"/><path fill="#95DE39" d="m140 69 2 1v4h2v-2l3 1-1 2-5 1-.8 3-1.2 3-3 1 1.1 1.6c1.3 3.4.2 5.2-1.1 8.4v2l-6 1 1-4h-2l-2-2 2-3-1-2 1-1-1-2 2-.4 2-.6 1-2-2-2h3l4-2v-4h2z"/><path fill="#FE950E" d="M123 158v3h-2v2l3 1-2 3c3.4.2 3.4.2 7 0 2-1.8 2-1.8 3-4 1.5 2.6 2 3.9 2 7l5-5 2 1-3 3 3 1v1c-6.2.8-11.9 1.5-18 0-2.5-2.3-2.5-2.3-5-5a80 80 0 0 0-8-4l1-3c4-.8 7.9-1.1 12-1"/><path fill="#282828" d="M179 68a105 105 0 0 1 5 4v2h3l2 2c3 .2 3 .2 5-1l1 3h6l-1-5h3v6h2v3c-5.9 1.2-10.2.6-16-1l-2.3-.5L181 79v-3l-6-1c1-3 1.8-4.8 4-7m7 4 3 1h-3z"/><path fill="#54C9FA" d="m115 146 2 2.4c1.4 1.9 1.4 1.9 3 3.6 3.6.1 6.8 0 10.3-.6 2.7-.4 2.7-.4 5.7 1.6a3428 3428 0 0 1-16 2.3c-7 1-13.9 2-21 1.7l-2-6 2 .1h2.8l2.7.2c3-.4 3.6-1.1 5.5-3.3 2.7-.2 2.7-.2 5 0z"/><path fill="#4EBBFA" d="M76 105v8l-3.3-.6c-3.7-.4-4.6-.3-7.7 1.6l-2.2.5-1.8.5-1 2a32 32 0 0 1-9 1l-6 1c.9-3 1.4-4.6 4-6.3 2.6-.6 4.6-.8 7.2-1 4.8-.4 8.4-2.2 12.5-4.5 2.4-1.2 4.6-2.2 7.3-2.2"/><path fill="#8C62FC" d="m69 136 20 1v1l-2.7.4-3.5.5-3.6.5c-2.8.5-4.8 1-7.2 2.6-1.2 3.4-1.2 3.4-1 7 2.1 3.2 3.5 3.9 7.3 4.8l2.7.2-2 1c-2 .8-2 .8-3 2l-5 .3h-2.7L66 157c-2-3-2-3-2-6h2l.4-2.7c.6-3.3.6-3.3 1.7-6 1.1-2.5 1.1-2.5.9-6.3"/><path fill="#7CDB48" d="m134 71 3 1-1 5h-3l1 3-3 3h-1l-1 3 2 2-3 2h3l2 2-2 1-2 3c-2.4-.8-2.4-.8-5-2-.8-2-.8-2-1-4l-1-3c.4-2.2.4-2.2 1-4h3l-1-3 2-1-1-6c2.3-.6 2.3-.6 5-1l3 2z"/><path fill="#292929" d="M198 21c4 1.4 6.8 3.3 10 6-.6 3-1.1 5.3-3.6 7.3A45.8 45.8 0 0 1 196 38v-2l-3 1 1-7 2-1c.7-1.9.7-1.9 1.1-4l.5-2.3z"/><path fill="#02BA53" d="M158 169v12c-3.7-1-5.2-1.7-8-4l-2 6c-3.4-1.4-5-3-7-6v-2l7.4-3 2-.9c5.4-2.1 5.4-2.1 7.6-2.1"/><path fill="#35B965" d="m120 101 4 2h-2l4 5 1-2v2c3.7-1.1 3.7-1.1 6-4 5.4-1.3 5.4-1.3 8 0v3l-3 1-1 2h-3v-2c-2 1.8-2 1.8-3 4-1.9.8-1.9.8-4 1l-3-2-3.6-1-3.4-1-1-3c-2-1.2-2-1.2-4-2l5-1 1 3z"/><path fill="#24BF5E" d="M169 82c2.4 2.2 3.6 4 4.7 7l.7 2c.6 2 .6 2 .6 5h2l1-2v5l-1-2h-2l-1 2-1-2-2.8 2.6c-2.9 2.4-2.9 2.4-5.6 2.2l-1.6-.8-1 2c-.3-2.1-.3-2.1 0-5 2.4-3.1 2.4-3.1 5-6l2-3-3-1z"/><path fill="#05B459" d="M116 96v3l3 1-3 1 4 2-2 4-2-3-2 1 4 4-1 3h-2l-2-3c-2.8-.8-5.1-1-8-1l1-3.3c1.2-3.7 1.2-3.7 1-7.7 5.6-2.1 5.6-2.1 9-1"/><path fill="#04BA50" d="M119 70h5l1 2-3 1 .1 2.7c-.1 3.3-.9 5.3-2.1 8.3l1 3c-5.1 5.6-5.1 5.6-9 6a16 16 0 0 1 1-12l5-4c.9-3.6.9-3.6 1-7"/><path fill="#22232C" d="m170.5 125.8 2.4.5c2.1.7 2.1.7 4.1 2.7.7 7 .7 7-1.6 10.4a15 15 0 0 1-9.4 2.6c-3.4-1.5-3.4-1.5-6-4-1.2-3.4-1.2-3.4-1-7 3.7-4.6 5.8-6.5 11.5-5.2m-5.8 2.8c-2 2.3-2 2.3-2.1 5.5l.4 2.9c3.5 2.3 5 2.4 9 2 2-1 2-1 3-3 .6-3 .6-3 0-6-1.7-2-1.7-2-4-3-4-.4-4-.4-6.3 1.6"/><path fill="#11141A" d="m174 164 4 1 .4 2.4.6 2.6 2 1 5 5 2.8 2.6c2.6 2.9 3.2 4.6 3.2 8.4-3.5 2.1-7 2.5-11 3v-3h-6l1-3 12 2a24.1 24.1 0 0 0-5.9-9.4c-8.1-8.9-8.1-8.9-8.1-12.6"/><path fill="#191523" d="M189 117c7.2 2.4 7.2 2.4 9 6 .4 2.9.4 2.9 0 6-3 3-5.6 4.8-9.8 5.3-4-.4-5.6-1.2-8.2-4.3-1.1-6.4-1.1-6.4 1.1-9.7 2.6-2.4 4.4-3.3 8-3.3Zm-7 6c-.6 3-.5 4.2 1 6.8 3.1 1.9 5.5 1.6 9 1.2 2.6-1.5 2.6-1.5 4-4 .2-2.6.2-2.6-1-5-4.8-4.7-8.2-3-13 1"/><path fill="#33868B" d="M90 84h3l1 3c2 .7 2 .7 4 1l-1 1 .5 2c.5 2 .5 2-.5 4l-4-1v3h-4l-5 1c-.2-3.7-.2-4.8 2-8v-3l2 1h3z"/><path fill="#171418" d="m173 150 3 1c-1 3-1 3-2 4l3 10c-4-1-4.4-1.3-7-4h-2v2l-2 1v6l-7-1 2-3-1-2 3.1-2c4.5-3.1 7.1-7.3 9.9-12"/><path fill="#0D1219" d="m126 131-1 2-7.1 1.6-2 .3c-7.2 1.4-14 2.2-21.3 2.2h-2.3L87 137v-2a5354 5354 0 0 1 24.3-3.1l4-.5c3.6-.4 7-.5 10.7-.4"/><path fill="#2DA873" d="m173 96 1 4a765 765 0 0 1-8.5 5.7A22.4 22.4 0 0 1 154 110l2-3h-3l-2-2h2l1-4 4 1 1-2h1l2-1 1 2 2-.6 2-.4 1 1z"/><path fill="#141627" d="M145 132c2 0 2 0 4.4.3.8 0 1.6 0 2.4.2 2.6.6 3.6 1.3 5.2 3.5.5 4 .7 6.1-1.8 9.4-4 2.9-7.4 3-12.2 2.6-2.4-1.6-2.4-1.6-4-4-.6-3-.6-3 0-6 2.4-2.8 2.4-2.8 5-5zm-.4 2.4c-3 2.4-3 2.4-3.1 6.2.2 3.5.2 3.5 2.5 5.4 4.3.3 6.3.4 10-2 .4-2.2.4-2.2.2-4.6v-2.5l-.2-1.9c-3.9-1.9-5.3-2.3-9.4-.6"/><path fill="#00AB5A" d="m108 78 4 1-1 3h-2v2l-7 1v2l4 2v2h2v2l7 1-1 2-7 1 1 3h-2l-1-7-3 1-.4-2.4c-.4-2.7-.4-2.7-2.6-4.6v-5h4c2.2-.2 2.2-.2 4-1z"/><path fill="#21A866" d="m150 102 1.4 1.5c1.5 1.7 1.5 1.7 3.6 1.5l5 1-1.8.8c-2.3 1.1-2.3 1.1-4.1 3.3-2.1 1.9-2.1 1.9-4.6 2.3-2.9-.5-4.3-1.5-6.5-3.4l1-2a50 50 0 0 0-6 5l-1-4 4-1v-2h2l2-2 2 1z"/><path fill="#769CFE" d="m183 83 3.7.6c3.4.4 6 .2 9.3-.6 5.6-.2 5.6-.2 8 1v2c-5 1.1-10 1-15.1.8-3.1.2-5.2.7-7.9 2.2l-1 3c-2-.6-2-.6-4-2-.8-3.1-.8-3.1-1-6l2 1h6z"/><path fill="#4AC356" d="m168 87 2 4-2 1-2 3h-2l-.9 1.8-3.1 6.2-2.3-.6c-3-.7-3-.7-5.7 1.6h-3l-3 1-2-3h3l1-4 2.9.6 3.1.4 2-2h5v-2h2v-3h2v-2z"/><path fill="#96DE3A" d="m150 85 1.3 1.4c1.7 1.8 1.7 1.8 4.7 2.6v2l6 1-2 4c-4.8-.8-4.8-.8-7-3l-5-1v3l-10 2-1-3 5-5 2 3 1-4 4 1z"/><path fill="#0F161E" d="m84 118 3.8.5c5.6.6 11.1.8 16.8 1l3 .2 7.4.3 1 3c-22.8.4-22.8.4-32-2z"/><path fill="#9DE13A" d="m151 74 2 1v2l5 1 .3 2 .7 2 3 1-1 2c.4 2.1.4 2.1 1 4-2.3.7-2.3.7-5 1-1.7-1.3-1.7-1.3-3-3l-2-2c-1.7-4.1-2.3-6.7-1-11"/><path fill="#4CBFF2" d="M99 137v2l-4 1-1 7-3-1-2-.3c-3.5-1.2-5.3-4.4-7-7.7a88 88 0 0 1 17-1"/><path fill="#F07E1B" d="M214 106c2.3 1.8 2.3 1.8 4 4v3c-3.8 1.4-7 2.5-11 2-1.8-1.5-1.8-1.5-3-3 2-4.8 4.7-6.8 10-6"/><path fill="#8F43F3" d="M60 138c2.5 2.4 3.9 3.7 5 7l-1 3 2 1v2h-2l2 4c-3.3.8-4.7 1.1-8 0a36 36 0 0 1-1-8l2-2z"/><path fill="#F38128" d="M83 142c1 1 1 1 1.2 4-.2 3-.2 3-2.2 5-4 .3-5.5.3-9-2 .3-3 .6-4.6 2.8-6.9 2.8-1.4 4.2-1 7.2-.1"/><path fill="#46CCFA" d="m207 87 1 3-6 2v-2h-5l-1 2h-2v3c-5.8 1.1-5.8 1.1-8 0l-7 2 1-4h3v-2l3.1.2c3.8 0 3.8 0 6.7-1.6 4.6-2.3 9.1-2.3 14.2-2.6"/><path fill="#0A0B10" d="m213 103 5 5-1 2-1-1.6c-2-1.8-2-1.8-5.5-1.3-3.5.6-3.5.6-5.4 2.7a11.1 11.1 0 0 0-1.1 7.2l2 2c2.2 0 2.2 0 4.6-.4l2.5-.3 1.9-.3v3a16.5 16.5 0 0 1-10 1c-2.5-1.5-2.5-1.5-4-4-.8-5-.8-5 0-8 3.5-3.9 7-5.7 12-7"/><path fill="#4BD2FC" d="M69 111c2.8.4 5.3 1.1 8 2l1 5c-3.3 1.1-3.8.9-7 0-5.1-1-8.1-.8-13 1l-2-1 1-2 4-1c4.3-1.5 4.3-1.5 8-4"/><path fill="#2C2C2C" d="M140 199h2c4 4 4 4 4 7.7-1 2.3-1 2.3-2.6 3.4l-2.4.9-3.6 2.1C134 215 134 215 131 215l-1-2h3v-2l5-5c2.4-3 2.4-3 2-7"/><path fill="#F9860F" d="M53.5 135.8c2.5.2 2.5.2 4.5 2.2.3 3 .3 3 0 6-2 2-2 2-4.4 2.4-3.4-.5-4.4-1.8-6.6-4.4 2.7-5.9 2.7-5.9 6.5-6.3Z"/><path fill="#279181" d="m106 65 4 4-6 1-2 6 2 1v2l-2 1-3 2-4-5 2-3-2-2z"/><path fill="#51CE49" d="M122 69c6.6.8 6.6.8 10 3h-3l-1 2-2-1 2 3c-.4 2.2-.4 2.2-1 4h-2v2l2 1-2 1-2-1 1 4h-2c-.7-3.2-1-5.7-1-9l-.1-2.6c.1-2.4.1-2.4 2.1-4.4z"/><path fill="#1CEAF9" d="M93 123h11l-1 5h-3l3 3c-1.9 2.4-3 3-6 3.8-2.7.2-4.4 0-7-.8 1.8-4.9 1.8-4.9 4-6l1-2 2 4 2-5h-5z"/><path fill="#3BCEF9" d="M136 131c1.7 2.5 1.7 2.5 3 5l-2.4.3c-3 .5-3 .5-4.6 3.7l-9-3 1-2-2-2 5.3-1 3-.6c2.7-.4 2.7-.4 5.7-.4"/><path fill="#3B8593" d="m100 73-2 2c-2.5 3.7-2.2 5.7-2 10l-2 2h-2l-.3-2-.7-2-3-1c.8-3.2 1.5-5.5 3.8-7.9 2.8-1.4 5-1.3 8.2-1.1"/><path fill="#EAEE36" d="M124 178h2l.8 2.4 1.2 2.6 3 1 1-6c2 3.8 2 3.8 2 6l2 1v2h-6v-2c-3.2-.7-5.7-1-9-1 .3 2.5.3 2.5 1 5l2 1-4 2c-1-1-1-1-1.1-3.5v-6.1l.1-2.4h4z"/><path fill="#1ADAEA" d="m111 124 2 1v3h5l-2 2 3 2-19 2 2-1c.7-2 .7-2 1-4h4l1 1v-5z"/><path fill="#FE8C09" d="M102 140c2.5.2 3.8.9 5.8 2.3 1.2 1.7 1.2 1.7 1 3.8-.8 1.9-.8 1.9-2.8 3.9-2.6.2-2.6.2-5 0-1-1-1-1-1.2-4.4.2-3.6.2-3.6 2.2-5.6"/><path fill="#9D32E2" d="m203 112 1.6 1c3 1.3 5 1 8.2.6l3-.3 2.2-.3c-1.9 3.5-3.1 5.7-7 7-2.9.4-4.4.4-6.8-1.2-1.6-2.4-1.4-4-1.2-6.8"/><path fill="#1EEBFC" d="m188 98 1 1.6c2 1.8 2 1.8 5.6 1.2 3.4-.5 3.4-.5 5.4-2.8v4h-2v2h-5l1 3c-2 2-2 2-5.1 2.1l-2.9-.1 1-2h3l-4-1 1-3c-.4-2.1-.4-2.1-1-4z"/><path fill="#F9D818" d="M104 160c6.6-.4 6.6-.4 8.5 1.3l1.5 1.7 3.6 1.4c3.4 1.6 3.4 1.6 4.8 3.8l.6 1.8h-7l1-3-2.9-.4c-3.1-.6-3.1-.6-5.1-1.6l-1 2-1-2-3-1z"/><path fill="#7C6FE8" d="m69 136 20 1v1l-2.7.4-3.5.5-3.6.5c-3.8.7-3.8.7-7.2 2.6-1 2-1 2-1.3 4.1L70 150h-1c-1.2-5.3-.7-8.1 0-14"/><path fill="#826DF5" d="m76 93 1 4-3 3v4l-4 1 1-2-2.2.6c-3 .4-5 .1-7.8-.6 4.6-4 9.8-7 15-10"/><path fill="#41BAEA" d="M157 128c0 4 0 4-1 7l-2.1-1c-4-1.4-7.3-1.7-11.3 0l-1.6 1v-2h2l-1-4 4.7-1 2.6-.7c2.9-.3 5 0 7.7.7"/><path fill="#BDEA31" d="m141 75 7 1c1.4 2.7 1 5 1 8l-6-3-1 4-1-2 1-2h-2l-1 3-2-1c1.1-3 2.2-5.3 4-8"/><path fill="#FB851F" d="M122 139c2.3-.3 2.3-.3 5 0 2.4 2.3 2.4 2.3 4 5-.3 2.3-.3 2.3-1 4h-6c-2-2-2-2-2.1-5.6z"/><path fill="#F4F32D" d="m164 180 3 1 1 12-3 1c-4.9-4.8-4.9-4.8-6-7h3c1.4-3.4 1.4-3.4 2-7"/><path fill="#22BE52" d="m120 101 4 2h-2l4 5 1-2-1 5c-5.4-.4-5.4-.4-8-1-1.3-2-1.3-2-2-4-2-1.3-2-1.3-4-2l5-1 1 3z"/><path fill="#09BD52" d="M170 160c3.7 3.3 5.7 6.7 8 11l-3 1-2 3-2.5-4.8-1.4-2.6C168 165 168 165 168 161z"/><path fill="#00CC59" d="M117 190c3.9 5.2 4.7 8.5 4 15l-5 5z"/><path fill="#1C1A21" d="m174.5 143.4 1.5 1.6-7.2 2.5-2 .7c-3.7 1.3-6.9 2.1-10.8 1.8v-3l7.8-2.7 2.2-.8c5.4-1.8 5.4-1.8 8.5-.1"/><path fill="#387492" d="M84 108c2.3 0 2.3 0 5 1 1.8 3.6 1.8 3.6 3 7l-8-2-2 3h-2l-1-8 5 1z"/><path fill="#29282C" d="M179 68a105 105 0 0 1 5 4v2h3l1 3h-2l-1 2-4-1v-2l-6-1c1-3 1.8-4.8 4-7m7 4 3 1h-3z"/><path fill="#0EDCF1" d="m142 117 2 2c2.1-.3 2.1-.3 4-1l-3 4 1.8-.6c2.2-.4 2.2-.4 5.2 1.6l1 2-14 2c1-4 1-4 3-5.3l2-.7-3-1z"/><path fill="#07BB53" d="M149 173v2h3l-1 2h-1l-2 6c-3.4-1.4-5-3-7-6v-2c3-1.3 4.8-2 8-2"/><path fill="#01BC50" d="m133 198 3 2c0 4.7-1.3 6.3-4 10-3-1-3-1-4.2-2.8l-1-2.1-1-2.2c-.8-1.9-.8-1.9-.8-3.9l3 1v3h2l1 1-1-3h2z"/><path fill="#202936" d="M75 157h21v1l-3 1 1 2-7.8.2H84c-5.5.1-5.5.1-8-1.6-1-1.6-1-1.6-1-2.6"/><path fill="#24ECFB" d="M144 116c7.4 1.4 7.4 1.4 9 3l2-2c3 3.8 3 3.8 3 6-7.2 1.4-7.2 1.4-11-1h-2v-3l-2 1z"/><path fill="#AAE943" d="M135 81h2v2h2l1 2 2 .8c2 1.2 2 1.2 2.8 4.3l.2 2.9-2 1-1-4-4 4-3-2 1-2.9c1.1-2.9 1.1-2.9 1-5.1l-2-1z"/><path fill="#36E6FD" d="M167 107h2v2h3l1 4-2 1-2-2-3-1-.2 1.8c-1.1 3-3.1 4.3-5.8 6.2-2.4-.8-2.4-.8-5-2l-1-3h2v2c3.3-1.8 4.9-2.8 7-6l3-2z"/><path fill="#35E3FB" d="M67 118h3v2l3.2-1.1c4-1 5.3-.8 8.8 1.1l-1 4-4-1-1 3-2 2v-6l-1 2h-3z"/><path fill="#77D542" d="M159 84h6l2 6h-2v2h-2v3h-2v-2l-6-1c2-3 2-3 4.1-3.7l1.9-.3v-3z"/><path fill="#F68624" d="m151.1 134 2.9 1v6h-8v-7c2-1 2-1 5.1 0"/><path fill="#09DCF5" d="M92 122c3 1 3 1 4 2l4 1-3 6-2-3-1 2-2-1-2 5-2-2c0-3 0-3 1-6l3-1z"/><path fill="#2B997B" d="m117 110 2 1v2l3-1 1 4h2v2a20.8 20.8 0 0 1-11 2l2-2-1-3z"/><path fill="#28282A" d="m163 198 4 4-2 3v2h-2l-.8 1.9C161 211 161 211 158 213l-2-3 2-3h2z"/><path fill="#0D1017" d="M175 97h2a8 8 0 0 1-2.9 5.8c-10.9 8.2-10.9 8.2-16.1 8.2v-2c2-1.4 4.1-2.6 6.3-3.9 4-2.3 7.4-4.7 10.7-8.1"/><path fill="#03B05A" d="M128 62v3l-3 1v3h-3v2l-3-1-1-2-3-1 3-2 1.8-1.6c2.9-1.8 4.9-1.6 8.2-1.4"/><path fill="#6FA8FD" d="M76 105v8l-1.7-.5c-2.4-.5-4.6-.6-7-.6h-2.5l-1.8.1-1-2 4.3-2 2.3-1c4.8-2 4.8-2 7.4-2"/><path fill="#77D845" d="m150 68 .6 1.8c2 3 4.2 3.8 7.4 5.2l-2 3-3-1-1-2h-3a88 88 0 0 1-5-3v2h-2v-4c5.8-1.1 5.8-1.1 8 0z"/><path fill="#2A2A2B" d="M111 194h2c2.4 8.4 2.4 8.4 1 13l-1-3c-3-1.2-3-1.2-6-2 1.8-5.8 1.8-5.8 4-8"/><path fill="#F8F019" d="m159 169 1 2h5l1 2h-2l2 2v4l-5 2c-2.6-3.9-2.2-7.5-2-12"/><path fill="#FE9611" d="m153 156 5 1v2l-2 2a14 14 0 0 0 1 4l-7 1-1-6h3z"/><path fill="#A839D6" d="M183 122h2v4l9 2v2c-3 1.5-5.6 1.2-9 1-2-1.2-2-1.2-3-3-.3-2.6-.3-2.6 0-5z"/><path fill="#0E151C" d="M135 118c-6.5 4.3-13.4 4.3-21 4l1-2a34.8 34.8 0 0 1 20-2"/><path fill="#0EC261" d="M116 96v3l3 1c-3.6 2.4-5.6 2.3-9.8 1.5l-2.2-.5v-4c5.6-2.1 5.6-2.1 9-1"/><path fill="#22987D" d="M90 84h3l1 3c2 .7 2 .7 4 1l-1 1 .5 2c.5 2 .5 2-.5 4-3-1-4.8-1.8-7-4l-1-3h2z"/><path fill="#10BB4F" d="m167 176 2.3 1.5c2.8 1.8 2.8 1.8 6.7 1.5v2l3-1 1 5-7 1v-5h-3v-2l-4 2z"/><path fill="#12121D" d="m107 157-1 3h-9v3c-3-1-3-1-5-3l-3-1v-1c6-1 11.9-1.1 18-1"/><path fill="#44DAF3" d="M115 135v4c-2.6 1.5-3.9 2-7 2a94 94 0 0 1-4.7-1.5l-2.4-.8-1.9-.7c5-2.7 10.3-3.2 16-3"/><path fill="#2A2A2A" d="m147 234 3 1-1 2-3-2zm-5 1 4 1-1 6-7 1-2-3 2-2h4z"/><path fill="#63D54E" d="M120 90c4.9 1.8 4.9 1.8 6 4l4 2-1 4 2 1h-2l-1 3h-2l1-6h-4c-2.6-2.6-2.5-4.5-3-8"/><path fill="#F7F12D" d="M98 161h8l-2 1v2l7 1 1 4-3 1c-2.2-1.1-2.2-1.1-4.6-2.8l-2.3-1.6C100 164 100 164 98 161"/><path fill="#F08710" d="m158 150 1 7-6-1-1 2-.9-1.9c-1-2.2-1-2.2-3.1-4.1l3.9-1 2.2-.6c1.9-.4 1.9-.4 3.9-.4"/><path fill="#A63BD9" d="m165 128 2 1 .3 2.3c1 3.6 2.7 4.6 5.7 6.7-1 1-1 1-3.9 1.2-3.1-.2-3.1-.2-6.1-2.2-.4-4-.3-5.5 2-9"/><path fill="#37D4FA" d="m54 116 2 4-1 2c-2 .4-2 .4-4.6.6l-2.5.3-1.9.1-1-4z"/><path fill="#0C1119" d="m103 139-2.4 1.1c-3 1.7-3 1.7-3.4 5L97 148l8 3v1c-3.5.2-6.2.3-9.4-1-1.6-2-1.6-2-2-5.5.4-3.5.4-3.5 1.8-5.4 3-2 4.1-2.1 7.6-1.1"/><path fill="#9532F3" d="M48 148c7.4-.4 7.4-.4 10 1.3 1 1.7 1 1.7.7 3.9L58 155l-6-1-1-2-2-1z"/><path fill="#0F121D" d="M176 131h1c.3 3.5.4 5.4-1.6 8.3a14.6 14.6 0 0 1-9.4 2.7c-2.4-1.3-2.4-1.3-4-3v-2l2 .4c1 0 1.9.2 2.8.3l2.7.5c2.6 0 2.6 0 4.3-2 1.3-2.3 1.3-2.3 2.2-5.2"/><path fill="#0FA36C" d="M122 62c-2.8 3-4.7 4.9-9 5.1h-2.2L107 67v-2a26 26 0 0 1 15-3"/><path fill="#A337DD" d="M121 140h1l2 7 6 1-1 2c-3.4.8-3.4.8-7 1l-3-2c-.4-4-.3-5.5 2-9"/><path fill="#0F0F16" d="M107 65 89 77v-3h2l1-3c2-1.6 2-1.6 4.3-3.1l2.4-1.6c5.1-2.9 5.1-2.9 8.3-1.3"/><path fill="#3CC54D" d="M128 62h7c0 3 0 3-1 6l-2-1-1 2-3-1h-4l1-3h3z"/><path fill="#121318" d="m167 159 2 2-1.5 1.1c-2.1 2.6-1.7 4.6-1.5 7.9l-7-1 2-3-1-2z"/><path fill="#F0A115" d="m147 162 3 1v3l4-1c-.7 1.9-.7 1.9-2 4-2.4 1-2.4 1-5.1 1.8l-2.8.7-2.1.5v-5l3-1 1 2 2-2c-.3-2.1-.3-2.1-1-4"/><path fill="#F3B61B" d="m164 156 4 1c-1.5 3.9-3.5 5.3-7 7.3l-2.7 1.6-2.3 1.1-2-1 2-1.9c2.2-1.9 2.2-1.9 2-4.1l1.9-.3c2.5-.6 2.5-.6 4.1-3.7"/><path fill="#01A662" d="m107 104-1 4 4-1 2 3h-3v2l-3 1v-2h-3v-2l-2-1-1 1-1-3c5.8-2 5.8-2 8-2"/><path fill="#0F1018" d="m161 195 5 1 1 4-3-1c-2.4 4.3-2.4 4.3-3 9h-3l1-6 .5-3.3c.5-2.7.5-2.7 1.5-3.7"/><path fill="#72A6F5" d="m198 130 2 1a32.9 32.9 0 0 1-9 5.2l-2.6 1c-2.4.8-2.4.8-6.4.8l1-5 3.6.2c3.1 0 5.4-.4 8.3-1.8z"/><path fill="#06DBF7" d="M199 93c1.9 3.1 2.2 5.4 2 9l-3.3-.6c-3.6-.7-3.6-.7-6.7.6-2.7-1.4-2.7-1.4-5-3l1-2 1.9.5c2 .6 2 .6 4.1.5h3l1-2c1-2 1-2 2-3"/><path fill="#131A23" d="M208 90c1.6 1.6 1.6 1.6 3 4-.9 5-3.2 7.6-7 11l-2-3 1.9-2c2.4-3.5 3.1-6 4.1-10"/><path fill="#8A6DF9" d="M171 78h10v4l-7 3c-3-4.8-3-4.8-3-7"/><path fill="#0ABD4F" d="m126 188 2 10-4 1v-2l-3 1c-.5-5.4-.5-5.4 2-8.4 2-1.6 2-1.6 3-1.6"/><path fill="#EBCA1E" d="M121 171h21c-3.1 3.1-5.6 3-9.9 3.1a628 628 0 0 1-12.1-.1z"/><path fill="#0D0C14" d="M60 156a141 141 0 0 1 9.5.4c3.6.3 5.4.5 8.5 2.6-4.3 2.1-10.5 1.3-15 0-2.3-1-2.3-1-4-2z"/><path fill="#151520" d="M200 133c-1 3-1 3-3 4.1l-2.4 1a16.2 16.2 0 0 0-6.6 3.9v-6a519 519 0 0 1 7.6-3.2c2.4-.8 2.4-.8 4.4.2"/><path fill="#1C996F" d="m155 105 5 1-1.8.8c-2.3 1.1-2.3 1.1-4.2 3.4l-2 1.8c-2.3-.3-2.3-.3-4-1l-1-5h3.4c3.4.4 3.4.4 4.6-1"/><path fill="#96E344" d="M133 80c1 3 1.5 5.9 2 9l-6 3-2-2 2-3-1-2 1-1-1-2 2-.4c2-.4 2-.4 3-1.6"/><path fill="#213648" d="M215 104c4.7 3.2 4.7 3.2 6 6.3 0 3.8-1.3 6.3-3 9.7h-3c.5-2.2 1-4 2-6 .3-4 0-6.6-2-10"/><path fill="#01C65B" d="M175 171c2 .2 2 .2 4 1 1.3 2 1.3 2 2 4h-3l-1 2 3 1-1 3c-3-1-3-1-4.2-2.8-1-2.5-1-4.5-.8-7.2z"/><path fill="#F1B611" d="m176 146-2.3 4.4-1.3 2.4C171 155 171 155 168 157l.5-2.4c.6-2.5.6-2.5.5-4.6.3-2 .3-2 1-4 3-1 3-1 6 0"/><path fill="#991FF9" d="M42 123c4.7 3.6 4.7 3.6 6 5v3l-7 1 1-4h-2z"/><path fill="#0BD9F8" d="m56 121 7 1 1 4-3 2-2-2-5 2 1-3c1-2.6 1-2.6 1-4"/><path fill="#A029FA" d="M43 145c4.8.8 4.8.8 7 3v3l3 1c-5 1.6-7.5.2-12-2l2-2z"/><path fill="#129973" d="M97 100h1v5h2l1-2v2l2 1h-4c.8 3 .8 3 3 5h-2v2c-2-1-2-1-3-3l-4-4 1.4-1.3c1.8-1.7 1.8-1.7 2.6-4.7"/><path fill="#17161D" d="m193 75 5 5v1c-4.8.2-8.5-.2-13-2l1-3 2.4.6 2.6.4z"/><path fill="#4CBBE2" d="m115 146 2 2.4c1.4 1.9 1.4 1.9 3 3.6 3.6.1 6.8 0 10.3-.6 2.7-.4 2.7-.4 5.7 1.6l-6.8 1-3.7.6c-3.5.4-3.5.4-7.5.4-2.6-3.3-3-4.7-3-9"/><path fill="#142935" d="M76 134c1.9-.3 1.9-.3 4.1-.3l5 .1h2.6l6.3.2v1h-7v2H74z"/><path fill="#17E0FA" d="M64 116c3.4.3 3.4.3 7 1l2 3h-3v-2l-2 1 2 2v5c-2.4-1-2.4-1-5-3-.8-3.7-.8-3.7-1-7"/><path fill="#38C64C" d="M122 69c6.6.8 6.6.8 10 3h-3l-1 2-2-1-1 5-3-1c-.8-2-.8-2-1-4l2-2z"/><path fill="#2B8B84" d="m99 110 1 1 4 2c-2 1.5-3.8 2.9-6 4l-2-3h-3l-2-3c5.8-2.1 5.8-2.1 8-1"/><path fill="#171522" d="m213 103 5 5-1 2-1-1.6c-2-1.8-2-1.8-5.5-1.3-3.5.6-3.5.6-5.4 3L204 112l-3-1c3.3-5 6.4-6.2 12-8"/><path fill="#111820" d="M172 82a15 15 0 0 1 5 8v6h-2a506 506 0 0 1-2-5.3l-1.2-3c-.8-2.7-.8-2.7.2-5.7"/><path fill="#A82FFD" d="m37 135 2 4 5-1 1 4-2.4.4-2.6.6-1 2-2-1c-1.3-6.4-1.3-6.4 0-9"/><path fill="#139E70" d="M113 108.5c3 2.3 3.2 5 4 8.5l-5-2v-3l-2-1 1 5-4-1v-3h2l-1-3c3-1 3-1 5-.5"/><path fill="#497CA5" d="m81 102 4 2v2l2 2-2 4-6-3v-5z"/><path fill="#69A0F7" d="m175 84 3.3 1.6c2.4 1 3.4 1.4 6.1 1 .6-.1 1-.4 1.6-.6l-3 3h-2l-1 3c-2-.6-2-.6-4-2-.8-3.1-.8-3.1-1-6"/><path fill="#102320" d="M116 186h1v17l-1-3h-2c-.6-3.4-.6-3.4-1-7l2-2z"/><path fill="#07DEF6" d="m104 123 4 1-1 3 2 2v2l-3.4-.6-3.6-.4-2 2v-6h3z"/><path fill="#02B04A" d="M159 191h2v3l3 1-3 1-1 7-1.3-1.4c-1.8-1.8-1.8-1.8-4.7-3.6l2-4h4z"/><path fill="#21EAFB" d="m176 109 8 1c-2.4 4.8-2.4 4.8-5 5.9-2 .1-2 .1-4-.9z"/><path fill="#59CC55" d="m168 87 2 4-2 1-2 3h-2l-2 4-4-2h3v-2h2v-3h2v-2z"/><path fill="#396E92" d="m81 89 1 2 3-1c1 3.2.8 3.9 0 7l1 2-4 1c-2-4-2-6.6-1-11"/><path fill="#F6F42E" d="m142 179 1.8 1.5c2.2 1.8 2.2 1.8 5.2 1.5v3h-3v2l2 1a8.2 8.2 0 0 1-5.8-2.8c-1.2-2.2-1.2-2.2-.9-4.4z"/><path fill="#0EC459" d="M126 177h7l-2 7-4-1z"/><path fill="#43C0DB" d="m130 132 2 6-2 2-7-3 1-2-2-2a36 36 0 0 1 8-1"/><path fill="#74AEFC" d="m62 111-1 3h-3c-1.7 0-3.4.1-5 .3h-2.7c-2.5.5-2.5.5-3.6 2.7l-.7 2-1-2c3.9-5.8 10.4-6.1 17-6"/><path fill="#8980FD" d="M76 98v7c-2.3 1.1-2.3 1.1-5 2l-3-2v-2l5-2v2l-1 1h2v-4l-3-1c3.9-1 3.9-1 5-1"/><path fill="#5CBBF6" d="m210 97 3 1-2 5 2 1-9 2z"/><path fill="#7B6DE2" d="m76.7 153 2.4.5 1.9.5-2 1c-2 .8-2 .8-3 2a92 92 0 0 1-7.8 0H66l4-1-1-3c3.3-1.1 4.4-.9 7.7 0"/><path fill="#65B9FC" d="M82 138h9l1 4c-2.2.8-2.2.8-5 1-2.8-2.4-2.8-2.4-5-5"/><path fill="#29F2FD" d="M93 123h11l-1 5h-3l-1 4-2-2 2-5h-5z"/><path fill="#2EAE67" d="m158 100 3 3-1 3h-2.4c-2.6-.2-2.6-.2-4.6 1l-2-2h2l1-4 4 1z"/><path fill="#00C35A" d="m138 183 3 2c.2 3.1.2 3.1 0 6h2l1-3 2 3-4 4c-2-3-2-3-2-5l-2-1z"/><path fill="#FDC318" d="M113 163c7.5 2.3 7.5 2.3 9.5 5.2l.5 1.8h-7l1-3-6-1z"/><path fill="#71B2FD" d="m84 152 1 2h3v3H76c1.6-3.2 4.8-3.7 8-5"/><path fill="#49AEDB" d="M156 143h3v4l-4.8 1.6-2.6.8c-2.7.6-4 .5-6.6-.4v-1l1.9-.6 2.5-.8 2.4-.7c2.4-.8 2.4-.8 4.2-2.9"/><path fill="#AD3DCC" d="m99 140 3 1-1 1v8l-5-2c.8-5.8.8-5.8 3-8"/><path fill="#FC8708" d="m77 143 7 2-1 5-2 1-2-1z"/><path fill="#0C0B12" d="M58 134c2 2 2 2 2.2 4l-.2 6h-1l-1-3c-.7-2.8-.7-2.8-2-4h-7v-2c3-1.5 5.7-1.2 9-1"/><path fill="#3A8991" d="M88 105c2.9.3 2.9.3 6 1 1.4 2 1.4 2 2 4l-6 2c-1.5-2.6-2-3.9-2-7"/><path fill="#0F0D14" d="m211 89 5 1v2l1.9.8c2.5 1.4 3 2.6 4.1 5.2-3 0-3 0-5-1.7l-2.2-2.2-2.2-2.3C211 90 211 90 211 89"/><path fill="#252525" d="m218 49 2 4-2 3c-.5 2.5-.5 2.5-.6 5.2l-.3 2.7-.1 2.1h-1c-2.4-9-2.4-9-.7-13l1.7-2z"/><path fill="#2B2B2B" d="M160 223c2.1 3.5 2.5 7 3 11l-1-2-5 3 1-4.9.5-2.7c.5-2.4.5-2.4 1.5-4.4"/><path fill="#2A2A2A" d="M124 205c1.9 2.4 3 4 4 7-3 1-5 1-8 0l2-5h2z"/><path fill="#0FA049" d="M119 176h16v1l-11 1-1 3h-2z"/><path fill="#221A1E" d="M127 137a18 18 0 0 1 5 4v3h-2l-1.2-2c-1.8-2.4-1.8-2.4-5.4-2.3-3.3 0-3.3 0-5.4 1.3l1-3c2.9-1.4 4.8-1.3 8-1"/><path fill="#FC8706" d="m190 121 5 1 1 5c-2.4.2-2.4.2-5 0l-2-3z"/><path fill="#15A667" d="M118 110c2.8-.3 2.8-.3 6 0 2.3 2.9 3 4.3 3 8h-2v-2h-2l-2-3h-2z"/><path fill="#0BD8F0" d="M176 107c1 2 1 2 0 5.1l-1 2.9 3 1c-3 2-3 2-6 2v-2h2v-2l-2-1c.3-1.9.3-1.9 1-4z"/><path fill="#71D653" d="m150 94 1.6 1c3.2 1.3 6 1.1 9.4 1-6.3 4.2-6.3 4.2-10.8 3.6L148 99c.9-3.9.9-3.9 2-5"/><path fill="#87D93D" d="M141 89c2 2 2 2 3 4l2-1c-1 3-1 3-2.8 4.3-2.5.8-3.7.6-6.2-.3 1.2-2.5 2.5-4.7 4-7"/><path fill="#5ED951" d="M163 75c4.7 3.4 4.7 3.4 6 6 0 2.5-.7 3.9-2 6h-2l-1-6 1 2v-3l-2-1z"/><path fill="#5DCEFD" d="M87 144c3 0 3 0 6 2 .7 2.1.7 2.1 1 4l-2.3-.1c-3-.1-3-.1-5.7 2.1z"/><path fill="#5AD2FA" d="m157 141 7 2 1-1h6c-4.5 3-8.6 4.3-14 4l2-1v-2h-2z"/><path fill="#9A31EC" d="m50 130 11 3-1 2H49c0-4 0-4 1-5"/><path fill="#0CDEF3" d="M154 114c0 4 0 4-1 7l-2-1 1-2-5-1v-2c2.5-1.2 4.3-1 7-1"/><path fill="#C5F13F" d="M140 81h2v3l1-3c2.4.8 2.4.8 5 2l1 3c-5.4 1.2-5.4 1.2-8.4 0l-1.6-1z"/><path fill="#0C0C12" d="m169 75 5.9-.2h3.3l2.8.2 2 3h-14z"/><path fill="#6BDC54" d="m136 63 1 3 3-1c2.7 1.4 2.7 1.4 5 3l-3 2v-2h-3v2c-2-.8-2-.8-4-2l-1-3z"/><path fill="#0E0D15" d="M137 59v2l2 1-16-1v-1c4.7-1.2 9.2-1 14-1"/><path fill="#2B2B2B" d="m107 207 3 2-1 4-4 1-1-5z"/><path fill="#09C459" d="m168 184 1 3h2l1 3-2 2c.8 2.2.8 2.2 3 3l-3 1c-1.5-1-1.5-1-3-3-.3-2.8-.2-5.2 0-8z"/><path fill="#FBA910" d="M111 159c2.3-.3 2.3-.3 5 0 1.8 2.5 1.8 2.5 3 5-3 1-3 1-6.2-.4L110 162z"/><path fill="#132029" d="m143 114 1 3-4.3 1.1-2.4.7c-2.3.2-2.3.2-5.3-1.8l3.8-1.5 2.2-.8c2-.7 2-.7 5-.7"/><path fill="#74D341" d="m136 93 2 4-4 1v2l-5-2 3-4 4 1z"/><path fill="#0CAB6F" d="M104 77h4v5l-5 1-2-5 3 1z"/><path fill="#2E2E2E" d="M168 45c3 1 3 1 4 3l4 2c-2.2 1.2-2.2 1.2-5 2-2.8-1.2-2.8-1.2-5-3v-3z"/><path fill="#04B84D" d="m137 188 2 1 1 3 2 1c-2.7.9-5.2 1.5-8 2-.2-2.4-.2-2.4 0-5z"/><path fill="#32303A" d="M150 133c4.8.8 4.8.8 7 3v7h-3v-8z"/><path fill="#6BB8FD" d="M178 125c1.8 2.6 3.4 5.3 5 8l-5 2c-1.1-3.3-1.1-3.3-2-7z"/><path fill="#28F1FC" d="M112.7 122.8h2.4l1.9.2-3 5-3-3-2 2-2 1-2-2c2.4-3 3.9-3.4 7.7-3.2"/><path fill="#15D4F7" d="m169 110 3 4-3 1-1 2v-3h-2l-1 4-3-1v-2h3l.3-2 .7-2z"/><path fill="#0DDAED" d="m198 102 3 1c-2.8 3-5 4.7-9 6l-1-2 2-1-1-3 6 1z"/><path fill="#141621" d="M221 98c1.8.2 1.8.2 4 1 1.6 2.3 2.8 4.5 4 7l-4 1c-4-5.6-4-5.6-4-9"/><path fill="#138156" d="m172 92 3 1v3h2l1-2v5l-1-2h-2l-1 2-1-2-3 1c.9-4.9.9-4.9 2-6"/><path fill="#00BD4F" d="m119 200 2 3c-1 3.8-1.7 4.8-5 7-.4-6.5-.4-6.5 1.5-9z"/><path fill="#1EC257" d="m148 173 1 2h3l-1 2h-1l-2 6-4-2 2-1 2-4-2-1h2z"/><path fill="#1B191C" d="M146 172v2a26 26 0 0 1-10 2v-3l3.9-1 2.2-.7c1.9-.3 1.9-.3 3.9.7"/><path fill="#5BD0FD" d="M96 151c3 3.8 3 3.8 3 6H88c3-2 3-2 5.1-3 2-.9 2-.9 2.9-3"/><path fill="#191C29" d="M84 145h3c.4 3.3.3 4.6-1.7 7.3-2.7 2-4 2-7.3 1.7v-2h5z"/><path fill="#A93CCC" d="m51 136 2 1-2 7h2v2c-2.6-1-3.8-1.6-5.3-4.1L47 140z"/><path fill="#8975F1" d="m203 105 2 2-1.9 2.3c-1.7 2.2-3 4.1-4.1 6.7l-2-7z"/><path fill="#4687A0" d="m88 79 1 3 2 2v4h-2l-1 3c-1-4.8-1-4.8-1-7h-2c1.9-3.9 1.9-3.9 3-5"/><path fill="#8588FD" d="m181 79 2 1-1 2h5l-4 1v2l-7 1 1-4h2z"/><path fill="#2B2B2B" d="m142 250 5 2v3l-7 1c.5-2.2 1-4 2-6"/><path fill="#17212D" d="m84 118 9 1-1 3-8-1z"/><path fill="#0E0E16" d="M77 111c1.5 1.3 1.5 1.3 3 3v3l4 1v2l-6-1z"/><path fill="#3F6B98" d="m79 109 5 1-2 7h-2z"/><path fill="#7293F4" d="M193 83a585 585 0 0 1 6.8-.1A7 7 0 0 1 204 84v2c-4.4 1-7 1-11-1z"/><path fill="#4BA9DB" d="m97 151 8 1v1h-5l7 3v1h-8z"/><path fill="#50C6F7" d="m133 146 4 1v4l2 1h-6l-2-2z"/><path fill="#1D223C" d="M160 129c1.6 1 1.6 1 3 3-.3 3.7-.3 3.7-1 7l-2-1c-1.3-6.4-1.3-6.4 0-9"/><path fill="#15DCF5" d="m155 117 7 1c-.3 2-.3 2-1 4l-3 1c-3-3.8-3-3.8-3-6"/><path fill="#0B0B13" d="M78 139c2.3-.3 2.3-.3 5 0 2.7 2.4 3 3.7 3.2 7.3L86 149l-.9-1.8c-1.1-2.4-1.1-2.4-3.1-5.2-2.6-.7-2.6-.7-5-1z"/><path fill="#FE8408" d="M147 137h7v4h-6z"/><path fill="#0CE2F8" d="m116 124 1 2h2v3h2v2h-6l1-2-2-2v-2z"/><path fill="#1FE7FB" d="M65 126c2 .3 2 .3 4 1l1 3-1 2-4-1-1-4z"/><path fill="#7F71E1" d="m215 122-6 4-4-2v-2c7.8-1.1 7.8-1.1 10 0"/><path fill="#131D28" d="m175 117 1 2 2 1-3.9 1-2.2.7c-1.9.3-1.9.3-3.9-.7v-2z"/><path fill="#964CFC" d="m196 110 3 2v4l-5 1c.9-5.9.9-5.9 2-7"/><path fill="#ED706F" d="M206 108h1v5h8c-3.2 2.2-4.3 2.5-8 2-1.8-1.5-1.8-1.5-3-3z"/><path fill="#22C85F" d="M120 102c1 3 1 3 0 5.2l-1 1.8-3-1v-2l-4-2 5-1 1 3z"/><path fill="#00A35C" d="m100 93 1 2h3v4h-5l1 6h-2v-7l3-1z"/><path fill="#16C550" d="m118 85 3 1-4 6-4-2 2-3h3z"/><path fill="#282828" d="m108 235 2 1-1 7-3 1-2-4 4-2z"/><path fill="#0E1119" d="M121 202h3a25 25 0 0 1-5 10c-.7-1.6-.7-1.6-1-4 1.4-3.3 1.4-3.3 3-6"/><path fill="#FD8333" d="m101 141 2 1-1 5 4 3h-5c-1-1-1-1-1.1-4.5.1-3.5.1-3.5 1.1-4.5"/><path fill="#181226" d="m76 139 2 1c0 2 0 2-1.9 4l-2.1 2-2 2v-2l-2-1z"/><path fill="#0D0E14" d="M151 132c-3 2-3 2-5.5 3.4a17 17 0 0 0-5.5 5.6c.5-5.4.5-5.4 2.7-7.9 2.9-1.4 5.1-1.3 8.3-1.1"/><path fill="#19232D" d="M104 120h11l1 3c-7.5.4-7.5.4-12-3"/><path fill="#3CA084" d="m125 111 5 1v2l2-1 1 3-6 2z"/><path fill="#50B8F0" d="m70 111 7 2 1 5-2 1v-4l-7-1z"/><path fill="#34BC4F" d="M141 104v2l-11 1 2-1 1-2c3-1.1 5-1 8 0"/><path fill="#3FBD4A" d="M169 82c1.6 1.2 1.6 1.2 3 3-.3 2.7-.3 2.7-1 5l-5-2z"/><path fill="#0D9D6F" d="m96 79 3 1-1 7h-3v-7z"/><path fill="#91E44A" d="m162 83-1 2c.4 2.1.4 2.1 1 4l-5 1 1-3c-.9-2.2-.9-2.2-2-4 3-1 3-1 6 0"/><path fill="#BDEE3E" d="M148 73c2.4 2.6 3 3.7 3.2 7.3L151 83l-3-1v-5l-2-1v-2z"/><path fill="#FCF62A" d="m159 169 1 2h5l1 2h-2l-1 3-4-2z"/><path fill="#E8ED34" d="M166 163h2l2 6h-3l-1 2-1-7z"/><path fill="#151E20" d="M175 159c1.3 3 1.3 3 2 6-3.3-.6-4.8-1.5-7-4l-2-2c4.1-1.4 4.1-1.4 7 0"/><path fill="#0FCBDE" d="m70 129 4 2h-2v2l5-1v2l-10-1 2-1z"/><path fill="#25E8F6" d="M142 117v3l2 1-1 2-2-1-1 3c-1.5-2.6-2-3.9-2-7 2-1 2-1 4-1"/><path fill="#9447FC" d="m200 117 1 5c-2.4-.3-2.4-.3-5-1l-2-3c2-.6 3.8-1 6-1"/><path fill="#487CA3" d="m80 95 2 1 1 3h2v3l-6-1v-5z"/><path fill="#8FE24E" d="M154 89h2v2l6 1-2 4c-2.4-.2-2.4-.2-5-1-1.3-2.6-1.3-2.6-2-5z"/><path fill="#0B0B16" d="M154 168v3c-4.4 2-4.4 2-7.3 1.6l-1.7-.6a12 12 0 0 1 9-4"/><path fill="#F68030" d="m51 139 1 3 3-1v2l3 1-2 2h-3v-2h-2z"/><path fill="#36C5EC" d="M110 135h5v4l-4 2-2-4z"/><path fill="#44B9E2" d="M142 129c4.8-.1 4.8-.1 7 1v2l-8 3v-2h2z"/><path fill="#0F0E18" d="m211 124 1 3c-1.3 1.6-1.3 1.6-3 3-2.2-.3-2.2-.3-4-1 3.8-3.9 3.8-3.9 6-5"/><path fill="#777EF2" d="M53 108h2v2l2 1a53 53 0 0 1-9 3z"/><path fill="#B2E530" d="m141 77 2 1v6l-2 1 1-4h-2l-1 3-2-1 2-4h2z"/><path fill="#A1E641" d="m132 76 3 1 3-1c1 1 1 1 1 3.6V82l-8-4z"/><path fill="#85DD43" d="M149 73c3.6-.2 5.9.1 9 2l-2 3-3-1-1-2h-3z"/><path fill="#2B2B2B" d="m203 46 2 1-3 8c-2-3-2-3-1.8-5.6l.8-2.4z"/><path fill="#0D1016" d="M134 206h2l-1 5c-3 1-3 1-5.2 0l-1.8-1 1-2h4z"/><path fill="#D4E934" d="m119 180 2 1-.2 3.4.2 3.6 3 2-4 2c-1-1-1-1-1.1-3.5v-6.1z"/><path fill="#10B950" d="M164 165c2 2 2 2 2 5l-7-1a17 17 0 0 1 5-4"/><path fill="#121524" d="m103 139-2.4 1.4c-2.7 1.3-2.7 1.3-3.6 3.6h-3c.3-1.9.3-1.9 1-4 3-2.1 4.7-2.2 8-1"/><path fill="#FC9215" d="m172 130 3 1v5l-5-1z"/><path fill="#313131" d="m225 131 3 1c-.6 3-1.3 4.4-3 7l-2-1z"/><path fill="#57D8FD" d="M155 127h3l1 9h-3l-1-6h2v-2z"/><path fill="#28EEFC" d="m94 126 2 1-1 5h-2v2h-3c1.8-4.9 1.8-4.9 4-6z"/><path fill="#A53BDF" d="m203 112 4 2v5l-4-2z"/><path fill="#0AC04F" d="m115 96 1 3 3 1c-3 2-3 2-6 3v-6z"/><path fill="#08BE65" d="M105 88c2.9.6 3.9.9 6 3l1 3-2 1-3-2 1-2h-2z"/><path fill="#7AD43C" d="m126 90 1.8.5c2.3.6 2.3.6 5.2.5l-4 5-3-2z"/><path fill="#A0EA4C" d="M133 80c.8 2.3 1.4 4.6 2 7l-3 1v-3l-4-1v-2l2-.4c2-.4 2-.4 3-1.6"/><path fill="#16C153" d="M126 188v6l-3 1-2-3c3.9-4 3.9-4 5-4"/><path fill="#161521" d="m53 154 8 1c-1.1 1.6-1.1 1.6-3 3-3.2-.3-3.2-.3-6-1z"/><path fill="#F99118" d="m103 144 2 2h3l1-2-1 4c-2.4.6-2.4.6-5 1l-2-2z"/><path fill="#F78F0F" d="m126 139 5 5-2 4c-2.9-3.7-3-4.2-3-9"/><path fill="#B748BB" d="M144 135h2v5l-4 1c.9-4.9.9-4.9 2-6"/><path fill="#09090F" d="m154 125 1 2c-6.6 1.3-6.6 1.3-10-1 3.2-1 5.7-1 9-1"/><path fill="#15E1F9" d="M62 123v2c-5.8 3-5.8 3-8 3 2-4.5 2.8-5 8-5"/><path fill="#17222F" d="M163 124c-2.6 2.6-4.5 2.5-8 3l-2-3c3.7-1.2 6.2-.6 10 0"/><path fill="#8C2AE2" d="M207 115h4v5h-5z"/><path fill="#1B2B3F" d="M215 104c4.8 3.3 4.8 3.3 5.8 6.8l.2 2.2h-3z"/><path fill="#58D0FC" d="M217 99c2 1 2 1 3.1 4l.9 3-2 2c-3-3.6-3-3.6-3-7z"/><path fill="#3CC15E" d="M164 95h4v2h-3l-.4 1.9c-.6 2.1-.6 2.1-2.6 4.1-.2-3.7-.2-4.8 2-8"/><path fill="#42BBE5" d="M215 95c3.2 1.4 4 2 6 5v3h-2c-4-6-4-6-4-8"/><path fill="#3EBFEC" d="m211 91 3 1 1 7c-3-1-3-1-5-3 .4-2.6.4-2.6 1-5"/><path fill="#11B073" d="M98 85h2c1.2 2.3 2.2 4.5 3 7h-3l-1-1-3-1v-2h2z"/><path fill="#56D252" d="m133 69-1 2-5-1-1 2-1-4c3.6-1.2 4.6-.5 8 1"/><path fill="#1A1E23" d="M160 206h2l-1 2zm-3 1 4 2-2 4-3-3z"/><path fill="#0C1015" d="M141 198c1.8.2 1.8.2 4 1 1.8 2.6 1.8 2.6 3 5-1.8-.2-1.8-.2-4-1-1.8-2.6-1.8-2.6-3-5"/><path fill="#ECEA25" d="M124 178h2v6l-1.9-.6c-2.1-.6-2.1-.6-4.1.6v-3l3-1z"/><path fill="#202943" d="M75 157h13v1l-3.9.4c-3.4.3-3.4.3-6.1 2.6l-3-3z"/><path fill="#FE9209" d="m163 151 4 4-2 2h-4l-1-3h3z"/><path fill="#B544D0" d="M75 143h1l2 8-5-2c.9-4.9.9-4.9 2-6"/><path fill="#0E0D18" d="m166.2 126.4 1.8.6-6 5-1-4c3-2 3-2 5.2-1.6"/><path fill="#28EEFD" d="M121 122c3.8.4 6 1.5 9 4h-4l-1 2-2-3-3-2z"/><path fill="#4ED6FD" d="m54 116 2 4c-4 0-4 0-7-1 2-2 2-2 5-3"/><path fill="#57B0FB" d="M55 115h-2v2l-6 2 1-4c3-1 3.9-1 7 0"/><path fill="#53BEE2" d="M221 111h2v2l2 1-3 1v2l-3 1z"/><path fill="#4A7BA7" d="m83 113 4 1 1 4h-5l-1-2z"/><path fill="#0E0C14" d="m48 110 3 1-6 5v-4z"/><path fill="#00A75F" d="M100 100h5c-.3 2-.3 2-1 4l-3 1z"/><path fill="#27EFFD" d="M202 96h3l-1 2 1 1-3 4-2-1z"/><path fill="#17AC59" d="m165 97 5 1-2 4-4-1z"/><path fill="#8DE24B" d="M132 90h2v3h2v2l-6 1c.5-2.2 1-4 2-6"/><path fill="#201E32" d="m197 79 7 2c-3.9 2.6-5.6 1.8-10 1z"/><path fill="#00A361" d="m113 68 6 2v2l-7 1-1-3h2z"/><path fill="#19A77B" d="m114 65 1 2h-8v-2c2.7-1.3 4.2-.8 7 0"/><path fill="#F1ED1E" d="m164 180 3 1v5l-4 2z"/><path fill="#111116" d="M98 163c3 1.4 5.5 2.9 8 5v2c-3.4-1-4.8-1.6-6.8-4.6z"/><path fill="#06040E" d="m107 158-1 2h-9l1-2c3.3-1 5.7-1.1 9 0"/><path fill="#12121B" d="m75.3 157.3 2.7.7c-2 2-2 2-4 2.2l-6-.2c2.6-2.5 3.5-3 7.3-2.7"/><path fill="#FBD222" d="M171 148h1c-.3 3.4-.3 3.4-1 7l-3 2c.6-3.3 1.4-6 3-9"/><path fill="#4DB0DC" d="M115 146c2.3 2.7 3.9 4.6 5 8l2 1h-4c-2.6-3.3-3-4.7-3-9"/><path fill="#48BCF8" d="m92 149 4 1-1 4-4 1z"/><path fill="#321D1F" d="M58 139h1c.7 2.8.7 2.8 1 6-1.4 1.9-1.4 1.9-3 3l-4-2 2-.7c2.3-1.2 2.3-1.2 2.8-4z"/><path fill="#9523EC" d="m35 140 3 2v2h-2v2l2 1-3 1c-1-3-1-5 0-8"/><path fill="#9674F9" d="m69 140 4 2-2 3-1 5h-1c-.7-3.7-1.2-6.4 0-10"/><path fill="#962DEE" d="M164 129h1l2 7h-2l-1 2c-1-1-1-1-1.1-4 .1-3 .1-3 1.1-5"/><path fill="#090C10" d="M118 132a23 23 0 0 1-8 3l-2-2c3.2-1.6 6.4-1 10-1"/><path fill="#06DFF8" d="m111 124 2 1 1 6-6-4c1-2 1-2 3-3"/><path fill="#5A96E3" d="m177 121 1 2h2v5l-2-2-2 2v-6z"/><path fill="#0D0D16" d="M182 120h2l-2 8h-2v-6z"/><path fill="#20D8EB" d="m131 121-1 3-6-1v-2c3-1 3.9-1 7 0"/><path fill="#241C33" d="M190 117v2l-6 3-1-3c3-2 3-2 7-2"/><path fill="#39E3FC" d="M65 117v5l-1-2-4 1v-3c2-1 2-1 5-1"/><path fill="#936DF5" d="m192 114 1 4-7-1c2.6-3 2.6-3 6-3"/><path fill="#06DCF6" d="M180 106c2.2.3 2.2.3 4 1l-1 1 2 2c-2.6 1-3.6 1.1-6.3 0l-1.7-1c1.3-1.6 1.3-1.6 3-3"/><path fill="#1A2435" d="m205 99 3 3-4 3-2-3z"/><path fill="#51D04E" d="m126 96 2 4-6 2c1-3 1.8-4 4-6"/><path fill="#8E62F4" d="m76 93 1 4-4 2v-4z"/><path fill="#52D1FE" d="M198 88c-.6 2-.6 2-2 4-3.1.8-3.1.8-6 1v-2c5.8-3 5.8-3 8-3"/><path fill="#02AA62" d="m108 78 4 1-1 3h-2l-1 2-1-5z"/><path fill="#0E0E18" d="M163 72c2 .8 2 .8 4 2 .8 2.1.8 2.1 1 4-3.2-1.4-4-2-6-5z"/><path fill="#1EB764" d="M123 62h5v3l-6 1z"/><path fill="#2B2B2B" d="m132 237 3 1-1 5-1-2-3-1v-2z"/><path fill="#13221D" d="m112 172 8 1c-2.6 1.7-4 2.4-7 3z"/><path fill="#01C55B" d="m151 171 5 1v4h-2v-2l-4-1z"/><path fill="#0F0E14" d="M79 158h9c-1.7 1.6-1.7 1.6-4 3-2.8-.8-2.8-.8-5-2z"/><path fill="#F07A06" d="m148 152 5 1v2h3l-1 2-2-1-1 2-.9-1.9c-1-2.2-1-2.2-3.1-4.1"/><path fill="#8B2BDA" d="m147 143 6 1c-2 2-2 2-5.6 2.1l-3.4-.1 3-1z"/><path fill="#CA56BF" d="M147 141h7v3l-7-1z"/><path fill="#0E0C14" d="m120 139 2 1-4 6-2-4c2-2 2-2 4-3"/><path fill="#52C4EF" d="m159 135 2 4-1 2h-3v-5z"/><path fill="#7588E3" d="m198 130 2 1a15.8 15.8 0 0 1-8 4l-1-2z"/><path fill="#13E9FB" d="m88 130 2 1-1 3h-7c2-2.2 3-3 6-4"/><path fill="#52D9FD" d="M154 129h-2l1 3-6-1v-2c3.1-1 4-1 7 0"/><path fill="#1E1E27" d="m212 123 5 1-2 1-1 3-2 2c-1-3.1-1-4 0-7"/><path fill="#1DEAFC" d="M87 122h5l1 4-4 1z"/><path fill="#3E9798" d="M104 117c6.6.8 6.6.8 10 3-7.8.1-7.8.1-10-1z"/><path fill="#20CFF6" d="M64 116c3.4.3 3.4.3 7 1l2 3h-3v-2l-5 1z"/><path fill="#FC8D1B" d="M207 107h2v2h2l-1 3-3 1z"/><path fill="#39E5FA" d="m175 101 2 3-3 3h-2c.6-2.9.9-3.9 3-6"/><path fill="#111018" d="M74 94c-1.2 1.5-1.2 1.5-3 3-2.7.2-2.7.2-5 0 1.9-3.7 4.2-4.3 8-3"/><path fill="#04B868" d="m104 92 2 1v6l-3-1 1-3h-3c1-2 1-2 3-3"/><path fill="#0B0A12" d="m174 89 3 1v6h-2z"/><path fill="#806AEB" d="m183 79 8 1v1l-9 1z"/><path fill="#2D2D2D" d="m181 29 3 1-1 5-3-1z"/></svg>