<svg xmlns="http://www.w3.org/2000/svg" fill="none" class="block mr-4 xs:h-[1.75rem] xs:w-[10.813rem] w-[8rem] h-[1.75rem]" viewBox="0 0.72 33.69 28.56"><path fill="#FE7233" d="M14.31.72a1.399 1.399 0 0 1 1.18 2.153L8.901 13.157c-.256.4-.7.643-1.175.643l-6.324.01a1.399 1.399 0 0 1-1.18-2.152L6.81 1.374c.257-.4.7-.643 1.175-.643zm5.079 0a1.399 1.399 0 0 0-1.18 2.153l6.587 10.284c.257.4.7.643 1.175.643l6.324.01a1.399 1.399 0 0 0 1.18-2.152L26.888 1.374c-.257-.4-.7-.643-1.175-.643zm0 28.56a1.399 1.399 0 0 1-1.18-2.153l6.587-10.284c.257-.4.7-.643 1.175-.643l6.324-.01a1.399 1.399 0 0 1 1.18 2.152l-6.587 10.284c-.257.4-.7.643-1.175.643zm-5.079 0a1.399 1.399 0 0 0 1.18-2.153L8.901 16.843c-.256-.4-.7-.643-1.175-.643l-6.324-.01a1.399 1.399 0 0 0-1.18 2.152L6.81 28.626c.257.4.7.643 1.175.643l6.324.011Z"/></svg>