<svg xmlns="http://www.w3.org/2000/svg" viewBox="0 0 200 200"><path fill="#191C19" d="M0 0h200v200H0z"/><path fill="#83F09A" d="m63 66-.5 2c-.92 5.5-1.3 9.35 1.13 14.38 3.4 3.77 6.68 4.5 11.69 4.87h3.64l2.03.02h4.33c2.3 0 4.59.02 6.88.03 6.51.05 13.03.07 19.54.08 4 0 8 .03 11.99.07h4.54c11.77-.04 20.19 1.46 29 9.61 6.07 6.81 7.1 14.46 7 23.3-.66 8.82-4.64 15.84-11.27 21.64-5.13 3.31-10.19 5.13-16.32 5.12h-8.39a4459 4459 0 0 1-16.55-.03l-17.83-.02-18.2-.02L40 147v-17l3.53-.02c10.97-.06 21.95-.13 32.93-.22a5319 5319 0 0 1 16.93-.1l16.34-.12 6.23-.04c2.9 0 5.82-.04 8.73-.07h2.6c4.96-.07 8.42-.67 12.71-3.43 2.37-3.87 2.32-7.54 2-12-.54-2.81-.54-2.81-2-5-4.06-2.13-7.6-2.26-12.13-2.27l-2.11-.02-4.53-.01c-2.4 0-4.8-.03-7.2-.05-6.8-.05-13.62-.08-20.44-.1-4.17-.02-8.35-.05-12.52-.1a655 655 0 0 0-4.75 0c-11.84-.01-22.44-.59-31.32-9.45-3.1-5.12-3.95-10.13-3-16 3.77-7.68 12.08-15 21-15"/><path fill="#7EE794" d="M96.83 47.89h1.98a1920 1920 0 0 1 10.91.02l11.75.02 12 .02L157 48v18H64c4.53-9.06 10.55-13.33 20-17a61.7 61.7 0 0 1 12.83-1.11"/></svg>