<svg width="668" height="716" viewBox="0 0 668 716" fill="none" xmlns="http://www.w3.org/2000/svg">
<path d="M657.751 505.282L580.478 445.021C567.503 434.904 548.62 439.096 540.983 453.687C522.018 489.871 492.297 519.685 458.244 540.026L377.257 458.816C372.901 454.448 366.992 451.989 360.826 451.989C354.66 451.989 348.751 454.448 344.395 458.816L258.235 545.214C191.239 509.626 145.484 438.991 145.484 357.816C145.484 240.96 240.298 145.885 356.833 145.885C427.309 145.885 494.831 176.66 539.465 250.621C547.464 263.877 565.063 267.402 577.523 258.244L652.507 203.136C663.637 194.963 666.591 179.54 659.257 167.818C594.211 63.7033 480.467 0 356.833 0C160.07 0 0 160.511 0 357.816C0 555.12 160.07 715.632 356.833 715.632C424.098 715.632 489.635 696.743 546.378 661.027C594.877 630.487 635.259 588.811 664.244 539.604C670.994 528.152 668.238 513.444 657.763 505.282H657.751ZM305.753 563.458L360.815 508.245L413.004 560.577C394.412 566.55 375.401 569.746 356.833 569.746C339.222 569.746 322.126 567.557 305.753 563.47V563.458ZM355.221 302.954C355.139 304.699 355.128 327.885 413.074 367.488C456.306 397.045 436.056 455.924 427.204 475.28C423.117 463.231 416.075 446.837 403.708 429.716C388.842 409.118 372.329 395.874 360.803 388.04C348.681 395.487 328.794 409.985 312.842 434.904C303.184 449.998 297.87 464.367 294.834 475.28L294.799 475.222C277.165 427.679 283.413 403.93 292.522 391.026C299.669 380.897 312.655 366.903 312.655 366.903C323.994 355.591 335.964 344.583 347.478 322.205C354.555 308.446 355.174 303.656 355.221 302.942V302.954Z" fill="black"/>
<path d="M312.484 367.149C312.484 367.149 299.468 381.132 292.287 391.253C283.149 404.148 276.893 427.878 294.571 475.384C193.796 387.275 297.57 297.352 295.497 304.197C287.788 329.647 312.472 367.149 312.472 367.149H312.484ZM337.063 339.452C340.589 334.456 344.057 328.851 347.372 322.427C355.128 307.415 355.151 303.074 355.151 303.074C355.151 303.074 352.703 326.499 413.177 367.676C456.547 397.209 436.233 456.042 427.353 475.384C427.353 475.384 478.537 442.785 471.273 387.719C462.545 321.479 426.661 327.459 399.997 278.396C375.126 232.633 417.605 195.973 417.605 195.973C417.605 195.973 360.739 192.919 334.708 252.63C307.271 315.547 337.051 339.464 337.051 339.464L337.063 339.452Z" fill="#FF6D01"/>
</svg>
