<svg xmlns="http://www.w3.org/2000/svg" width="400" height="400" viewBox="0 0 400 400"><g fill-rule="evenodd"><path fill="#fafbfb" d="M199.216 100.357c-.161.205-.36 4.072-.467 9.072-.449 21.162-3.05 52.955-4.742 57.98-3.458 10.264-15.406 22.476-26.251 26.83-3.067 1.232-3.664 1.284-25.042 2.198-39.052 1.668-53.28 2.088-78.954 2.329-20.455.192-20.331.184-20.331 1.387 0 .836 1.532.917 20.571 1.091 28.482.26 43.079.732 93.857 3.04 6.818.309 8.268.6 12.053 2.415 10.618 5.092 22.127 17.861 24.477 27.158.429 1.699 1.77 13.66 2.609 23.286.932 10.682 1.612 24.528 1.942 39.541.101 4.602 2.007 4.986 2.124.429.916-35.69 3.218-61.215 6.066-67.294 4.618-9.853 15.357-20.14 25.116-24.058 3.067-1.232 3.663-1.284 25.042-2.198 38.841-1.659 53.667-2.095 79-2.322 19.835-.177 20.285-.205 20.285-1.266 0-.982-.986-1.04-20.428-1.216-25.256-.229-40.239-.67-78.714-2.321-21.102-.906-22.207-1.003-25.24-2.221-10.638-4.271-22.745-16.647-26.166-26.748-1.842-5.439-4.858-44.435-4.876-63.055-.004-3.818-.162-4.414-1.169-4.414-.264 0-.606.161-.762.357"/><path fill="#0454e4" d="M0 200v200h400V0H0zm200.98-99.551c.381.382.449 1.421.451 6.929.008 17.856 2.861 54.041 4.726 59.918 2.882 9.088 14.004 21.115 23.907 25.855 4.064 1.945 5.614 2.18 17.793 2.697 5.972.253 16.514.706 23.429 1.006 24.474 1.061 43.275 1.569 69.143 1.87 16.538.192 16.142.165 16.142 1.117 0 1.211-.189 1.228-16 1.422-19.196.235-36.152.621-51.571 1.173-14.987.537-50.034 2.067-52.143 2.277-10.64 1.057-27.592 16.777-30.966 28.716-1.647 5.825-4.462 43.291-4.462 59.371 0 6.398-.137 7.203-1.225 7.196-1.511-.011-1.476.214-1.679-10.771-.373-20.119-2.969-51.408-4.7-56.646-2.91-8.806-13.602-20.51-23.111-25.299-4.768-2.401-5.883-2.589-18.571-3.128-5.972-.253-16.579-.708-23.572-1.01-23.849-1.03-39.049-1.442-71.826-1.945-13.875-.213-14.061-.237-13.141-1.697.289-.459 1.361-.516 13.141-.696 22.019-.335 42.659-.805 54.541-1.241 15.375-.563 49.886-2.082 51.916-2.284 10.468-1.04 27.307-16.519 30.765-28.279 1.779-6.05 4.598-42.411 4.603-59.376.001-3.943.118-6.737.297-7.071.358-.669 1.492-.725 2.113-.104"/><path fill="#548cea" d="M198.682 104.429c.001 2.042.046 2.841.102 1.773a42 42 0 0 0-.001-3.714c-.056-.975-.101-.102-.101 1.941m2.568-.572c0 1.729.047 2.399.104 1.49.057-.91.057-2.324-.001-3.143-.057-.819-.104-.075-.103 1.653m.251 13.429c.003.628.061.852.13.496.068-.355.065-.869-.006-1.142-.072-.274-.128.017-.124.646m-3.143.285c.003.629.061.853.13.497.068-.355.066-.87-.006-1.143-.071-.273-.127.018-.124.646m-.292 6.715c0 .55.059.775.131.5a2.3 2.3 0 0 0 0-1c-.072-.275-.131-.05-.131.5m-15.209 59.285c-.694.708-1.197 1.286-1.119 1.286s.711-.578 1.405-1.286c.694-.707 1.197-1.285 1.119-1.285s-.711.578-1.405 1.285m34 0c.533.55 1.034 1 1.112 1s-.293-.45-.826-1-1.034-1-1.112-1 .293.45.826 1m-58.5 12.055c.275.071.725.071 1 0 .275-.072.05-.131-.5-.131s-.775.059-.5.131m82.286 0c.275.071.725.071 1 0 .275-.072.05-.131-.5-.131s-.775.059-.5.131m-88.857.285c.275.072.725.072 1 0s.05-.13-.5-.13-.775.058-.5.13m95.714 0c.275.072.725.072 1 0s.05-.13-.5-.13-.775.058-.5.13m6.286.286c.275.072.725.072 1 0s.05-.131-.5-.131-.775.059-.5.131m12.571.571c.275.072.725.072 1 0 .275-.071.05-.13-.5-.13s-.775.059-.5.13m6.572.286c.275.072.725.072 1 0s.05-.131-.5-.131-.775.059-.5.131m-153.715.286c.275.072.725.072 1 0s.05-.131-.5-.131-.775.059-.5.131m160.572 0c.275.072.725.072 1 0s.05-.131-.5-.131-.775.059-.5.131m-168.14.291c.356.068.87.065 1.143-.006s-.018-.128-.646-.124c-.629.003-.852.061-.497.13m175.714 0c.356.068.87.065 1.143-.006s-.017-.128-.646-.124c-.628.003-.852.061-.497.13m-184 .285c.356.069.87.066 1.143-.005s-.017-.128-.646-.125c-.628.004-.852.062-.497.13m192.283 0c.353.068.932.068 1.286 0 .353-.068.064-.124-.643-.124s-.997.056-.643.124m-202.139.289c.434.066 1.077.064 1.428-.004.352-.068-.003-.121-.789-.119s-1.073.057-.639.123m211.714 0c.435.066 1.077.064 1.429-.004.351-.068-.004-.121-.79-.119s-1.073.057-.639.123m-224.147.287a9 9 0 0 0 1.858 0c.51-.063.092-.115-.929-.115s-1.439.052-.929.115m236 0a9 9 0 0 0 1.858 0c.51-.063.092-.115-.929-.115s-1.439.052-.929.115m-255.131.291c.988.056 2.531.056 3.428-.001.898-.056.089-.102-1.797-.101s-2.62.046-1.631.102m272.846 0c.982.056 2.589.056 3.571 0s.179-.101-1.786-.101c-1.964 0-2.767.045-1.785.101m-273.143 2.571c.982.056 2.589.056 3.571 0 .982-.055.179-.101-1.785-.101-1.965 0-2.768.046-1.786.101m273.154.001c.988.056 2.531.055 3.428-.001.898-.057.089-.103-1.796-.102-1.886 0-2.62.047-1.632.103m-253.726.28a9 9 0 0 0 1.858 0c.51-.063.092-.115-.929-.115s-1.439.052-.929.115m236 0a9 9 0 0 0 1.858 0c.51-.063.092-.115-.929-.115s-1.439.052-.929.115m-223.567.284c.434.066 1.077.064 1.428-.004.352-.067-.003-.121-.789-.119s-1.073.058-.639.123m211.714 0c.435.066 1.077.064 1.429-.004.351-.067-.004-.121-.79-.119s-1.073.058-.639.123m-202.147.283c.354.068.933.068 1.286 0 .354-.068.064-.124-.643-.124s-.996.056-.643.124m192.575 0c.356.068.87.066 1.143-.006.273-.071-.018-.127-.646-.124-.629.003-.852.062-.497.13m-184 .286c.356.068.87.066 1.143-.006.273-.071-.018-.127-.646-.124-.629.003-.852.061-.497.13m175.714 0c.356.068.87.066 1.143-.006.273-.071-.017-.127-.646-.124-.628.003-.852.061-.497.13m-168.146.28c.275.072.725.072 1 0 .275-.071.05-.13-.5-.13s-.775.059-.5.13m160.572 0c.275.072.725.072 1 0 .275-.071.05-.13-.5-.13s-.775.059-.5.13m-153.715.286c.275.072.725.072 1 0s.05-.131-.5-.131-.775.059-.5.131m6.572.286c.275.072.725.072 1 0s.05-.131-.5-.131-.775.059-.5.131m12.571.571c.275.072.725.072 1 0s.05-.13-.5-.13-.775.058-.5.13m6.286.286c.275.072.725.072 1 0s.05-.131-.5-.131-.775.059-.5.131m6.857.286c.275.072.725.072 1 0s.05-.131-.5-.131-.775.059-.5.131m82.286 0c.275.072.725.072 1 0s.05-.131-.5-.131-.775.059-.5.131m-57.798 11.874c1.184 1.262 1.441 1.488 1.441 1.274 0-.046-.611-.657-1.357-1.357L181.571 215zm33.997.143-.985 1.071 1.072-.984c.997-.917 1.202-1.158.984-1.158-.048 0-.53.482-1.071 1.071m-18.484 65.929c.003.628.061.852.13.496.068-.355.066-.869-.006-1.143-.071-.273-.127.018-.124.647m3.148.428c0 .707.056.997.124.643a4.1 4.1 0 0 0 0-1.286c-.068-.353-.124-.064-.124.643m-2.824 12.572c0 1.964.045 2.767.101 1.785s.056-2.589 0-3.571-.101-.179-.101 1.786m2.568.714c0 1.728.047 2.399.104 1.489s.057-2.323-.001-3.142c-.057-.82-.104-.076-.103 1.653"/><path fill="#84acec" d="M201.239 109.143c0 1.178.05 1.661.112 1.071.062-.589.062-1.553 0-2.143s-.112-.107-.112 1.072m-2.574.714c.001 1.1.053 1.515.115.922s.061-1.492-.002-2c-.063-.507-.114-.022-.113 1.078m2.836 9.429c.003.628.061.852.13.496.068-.355.065-.869-.006-1.142-.072-.274-.128.017-.124.646m-3.149.428c0 .55.059.775.131.5a2.3 2.3 0 0 0 0-1c-.072-.275-.131-.05-.131.5m-37.849 75.917c.356.068.87.065 1.143-.006s-.017-.128-.646-.124c-.629.003-.852.061-.497.13m78.286 0c.355.068.87.065 1.143-.006s-.018-.128-.646-.124c-.629.003-.852.061-.497.13m-85.289.28c.275.072.725.072 1 0s.05-.13-.5-.13-.775.058-.5.13m98.571.286c.275.072.725.072 1 0s.05-.131-.5-.131-.775.059-.5.131m-124 .857c.275.072.725.072 1 0s.05-.131-.5-.131-.775.059-.5.131m-6.857.286c.275.072.725.072 1 0s.05-.131-.5-.131-.775.059-.5.131m156.572 0c.275.072.725.072 1 0s.05-.131-.5-.131-.775.059-.5.131m-164 .286c.275.071.725.071 1 0 .275-.072.05-.131-.5-.131s-.775.059-.5.131m171.574.005c.356.068.87.065 1.143-.006s-.017-.128-.646-.124c-.628.003-.852.061-.497.13m-179.714.285c.356.069.87.066 1.143-.005s-.018-.128-.646-.125c-.629.004-.852.062-.497.13m187.714 0c.356.069.87.066 1.143-.005s-.017-.128-.646-.125c-.628.004-.852.062-.497.13m-196.999.289c.434.066 1.077.064 1.429-.004.351-.068-.004-.121-.79-.119s-1.073.057-.639.123m206.286 0c.434.066 1.077.064 1.428-.004.352-.068-.004-.121-.789-.119-.786.002-1.074.057-.639.123m-217.856.288c.513.063 1.285.062 1.714-.003s.009-.117-.934-.116c-.942.002-1.294.055-.78.119m228.857 0c.514.063 1.285.062 1.714-.003s.009-.117-.933-.116-1.295.055-.781.119m-245.291.288a21 21 0 0 0 2.714 0c.747-.058.136-.107-1.357-.107s-2.103.049-1.357.107m260.572 0a21 21 0 0 0 2.714 0c.746-.058.136-.107-1.357-.107s-2.104.049-1.357.107m-260.572 2.572a21 21 0 0 0 2.714 0c.747-.059.136-.107-1.357-.107s-2.103.048-1.357.107m260.572 0a21 21 0 0 0 2.714 0c.746-.059.136-.107-1.357-.107s-2.104.048-1.357.107m-244.138.283c.513.063 1.285.062 1.714-.003s.009-.117-.934-.116c-.942.002-1.294.055-.78.119m228.857 0c.514.063 1.285.062 1.714-.003s.009-.117-.933-.116-1.295.055-.781.119m-217.573.283c.435.066 1.078.064 1.429-.004.351-.067-.004-.121-.79-.119-.785.002-1.073.058-.639.123m206.425-.003c.354.068.932.068 1.286 0 .353-.068.064-.124-.643-.124s-.997.056-.643.124m-196.854.286c.356.068.87.066 1.143-.006.273-.071-.018-.127-.646-.124-.629.003-.852.062-.497.13m187.714 0c.356.068.87.066 1.143-.006.273-.071-.017-.127-.646-.124-.628.003-.852.062-.497.13m-179.714.286c.356.068.87.066 1.143-.006.273-.071-.018-.127-.646-.124-.629.003-.852.061-.497.13m171.568-.005c.275.072.725.072 1 0s.05-.131-.5-.131-.775.059-.5.131m-164 .285c.275.072.725.072 1 0 .275-.071.05-.13-.5-.13s-.775.059-.5.13m156.572 0c.275.072.725.072 1 0 .275-.071.05-.13-.5-.13s-.775.059-.5.13m-6.857.286c.275.072.725.072 1 0s.05-.131-.5-.131-.775.059-.5.131m-25.429 1.143c.275.072.725.072 1 0s.05-.131-.5-.131-.775.059-.5.131m-85.282.291c.355.068.869.066 1.142-.006.274-.071-.017-.127-.646-.124-.628.003-.852.061-.496.13m78.285 0c.356.068.87.066 1.143-.006.273-.071-.017-.127-.646-.124s-.852.061-.497.13m-40.151 75.798c0 .55.059.775.131.5a2.3 2.3 0 0 0 0-1c-.072-.275-.131-.05-.131.5m3.143.571c0 .55.059.775.131.5a2.4 2.4 0 0 0 0-1c-.072-.275-.131-.05-.131.5M198.663 290c0 1.021.052 1.439.115.929a9 9 0 0 0 0-1.858c-.063-.51-.115-.092-.115.929m2.576.857c0 1.179.05 1.661.112 1.072.062-.59.062-1.554 0-2.143-.062-.59-.112-.107-.112 1.071"/></g></svg>