<svg id="svg" version="1.1" xmlns="http://www.w3.org/2000/svg" xmlns:xlink="http://www.w3.org/1999/xlink" width="400" height="400" viewBox="0, 0, 400,400"><g id="svgg"><path id="path0" d="M199.216 100.357 C 199.055 100.562,198.856 104.429,198.749 109.429 C 198.300 130.591,195.699 162.384,194.007 167.409 C 190.549 177.673,178.601 189.885,167.756 194.239 C 164.689 195.471,164.092 195.523,142.714 196.437 C 103.662 198.105,89.434 198.525,63.760 198.766 C 43.305 198.958,43.429 198.950,43.429 200.153 C 43.429 200.989,44.961 201.070,64.000 201.244 C 92.482 201.504,107.079 201.976,157.857 204.284 C 164.675 204.593,166.125 204.884,169.910 206.699 C 180.528 211.791,192.037 224.560,194.387 233.857 C 194.816 235.556,196.157 247.517,196.996 257.143 C 197.928 267.825,198.608 281.671,198.938 296.684 C 199.039 301.286,200.945 301.670,201.062 297.113 C 201.978 261.423,204.280 235.898,207.128 229.819 C 211.746 219.966,222.485 209.679,232.244 205.761 C 235.311 204.529,235.907 204.477,257.286 203.563 C 296.127 201.904,310.953 201.468,336.286 201.241 C 356.121 201.064,356.571 201.036,356.571 199.975 C 356.571 198.993,355.585 198.935,336.143 198.759 C 310.887 198.530,295.904 198.089,257.429 196.438 C 236.327 195.532,235.222 195.435,232.189 194.217 C 221.551 189.946,209.444 177.570,206.023 167.469 C 204.181 162.030,201.165 123.034,201.147 104.414 C 201.143 100.596,200.985 100.000,199.978 100.000 C 199.714 100.000,199.372 100.161,199.216 100.357 " stroke="none" fill="#fafbfb" fill-rule="evenodd"></path><path id="path1" d="M0.000 200.000 L 0.000 400.000 200.000 400.000 L 400.000 400.000 400.000 200.000 L 400.000 0.000 200.000 0.000 L 0.000 0.000 0.000 200.000 M200.980 100.449 C 201.361 100.831,201.429 101.870,201.431 107.378 C 201.439 125.234,204.292 161.419,206.157 167.296 C 209.039 176.384,220.161 188.411,230.064 193.151 C 234.128 195.096,235.678 195.331,247.857 195.848 C 253.829 196.101,264.371 196.554,271.286 196.854 C 295.760 197.915,314.561 198.423,340.429 198.724 C 356.967 198.916,356.571 198.889,356.571 199.841 C 356.571 201.052,356.382 201.069,340.571 201.263 C 321.375 201.498,304.419 201.884,289.000 202.436 C 274.013 202.973,238.966 204.503,236.857 204.713 C 226.217 205.770,209.265 221.490,205.891 233.429 C 204.244 239.254,201.429 276.720,201.429 292.800 C 201.429 299.198,201.292 300.003,200.204 299.996 C 198.693 299.985,198.728 300.210,198.525 289.225 C 198.152 269.106,195.556 237.817,193.825 232.579 C 190.915 223.773,180.223 212.069,170.714 207.280 C 165.946 204.879,164.831 204.691,152.143 204.152 C 146.171 203.899,135.564 203.444,128.571 203.142 C 104.722 202.112,89.522 201.700,56.745 201.197 C 42.870 200.984,42.684 200.960,43.604 199.500 C 43.893 199.041,44.965 198.984,56.745 198.804 C 78.764 198.469,99.404 197.999,111.286 197.563 C 126.661 197.000,161.172 195.481,163.202 195.279 C 173.670 194.239,190.509 178.760,193.967 167.000 C 195.746 160.950,198.565 124.589,198.570 107.624 C 198.571 103.681,198.688 100.887,198.867 100.553 C 199.225 99.884,200.359 99.828,200.980 100.449 " stroke="none" fill="#0454e4" fill-rule="evenodd"></path><path id="path2" d="M198.682 104.429 C 198.683 106.471,198.728 107.270,198.784 106.202 C 198.839 105.135,198.838 103.464,198.783 102.488 C 198.727 101.513,198.682 102.386,198.682 104.429 M201.250 103.857 C 201.250 105.586,201.297 106.256,201.354 105.347 C 201.411 104.437,201.411 103.023,201.353 102.204 C 201.296 101.385,201.249 102.129,201.250 103.857 M201.501 117.286 C 201.504 117.914,201.562 118.138,201.631 117.782 C 201.699 117.427,201.696 116.913,201.625 116.640 C 201.553 116.366,201.497 116.657,201.501 117.286 M198.358 117.571 C 198.361 118.200,198.419 118.424,198.488 118.068 C 198.556 117.713,198.554 117.198,198.482 116.925 C 198.411 116.652,198.355 116.943,198.358 117.571 M198.066 124.286 C 198.066 124.836,198.125 125.061,198.197 124.786 C 198.269 124.511,198.269 124.061,198.197 123.786 C 198.125 123.511,198.066 123.736,198.066 124.286 M182.857 183.571 C 182.163 184.279,181.660 184.857,181.738 184.857 C 181.817 184.857,182.449 184.279,183.143 183.571 C 183.837 182.864,184.340 182.286,184.262 182.286 C 184.183 182.286,183.551 182.864,182.857 183.571 M216.857 183.571 C 217.390 184.121,217.891 184.571,217.969 184.571 C 218.048 184.571,217.676 184.121,217.143 183.571 C 216.610 183.021,216.109 182.571,216.031 182.571 C 215.952 182.571,216.324 183.021,216.857 183.571 M158.357 195.626 C 158.632 195.697,159.082 195.697,159.357 195.626 C 159.632 195.554,159.407 195.495,158.857 195.495 C 158.307 195.495,158.082 195.554,158.357 195.626 M240.643 195.626 C 240.918 195.697,241.368 195.697,241.643 195.626 C 241.918 195.554,241.693 195.495,241.143 195.495 C 240.593 195.495,240.368 195.554,240.643 195.626 M151.786 195.911 C 152.061 195.983,152.511 195.983,152.786 195.911 C 153.061 195.839,152.836 195.781,152.286 195.781 C 151.736 195.781,151.511 195.839,151.786 195.911 M247.500 195.911 C 247.775 195.983,248.225 195.983,248.500 195.911 C 248.775 195.839,248.550 195.781,248.000 195.781 C 247.450 195.781,247.225 195.839,247.500 195.911 M253.786 196.197 C 254.061 196.269,254.511 196.269,254.786 196.197 C 255.061 196.125,254.836 196.066,254.286 196.066 C 253.736 196.066,253.511 196.125,253.786 196.197 M266.357 196.768 C 266.632 196.840,267.082 196.840,267.357 196.768 C 267.632 196.697,267.407 196.638,266.857 196.638 C 266.307 196.638,266.082 196.697,266.357 196.768 M272.929 197.054 C 273.204 197.126,273.654 197.126,273.929 197.054 C 274.204 196.982,273.979 196.923,273.429 196.923 C 272.879 196.923,272.654 196.982,272.929 197.054 M119.214 197.340 C 119.489 197.412,119.939 197.412,120.214 197.340 C 120.489 197.268,120.264 197.209,119.714 197.209 C 119.164 197.209,118.939 197.268,119.214 197.340 M279.786 197.340 C 280.061 197.412,280.511 197.412,280.786 197.340 C 281.061 197.268,280.836 197.209,280.286 197.209 C 279.736 197.209,279.511 197.268,279.786 197.340 M111.646 197.631 C 112.002 197.699,112.516 197.696,112.789 197.625 C 113.062 197.553,112.771 197.497,112.143 197.501 C 111.514 197.504,111.291 197.562,111.646 197.631 M287.360 197.631 C 287.716 197.699,288.230 197.696,288.503 197.625 C 288.776 197.553,288.486 197.497,287.857 197.501 C 287.229 197.504,287.005 197.562,287.360 197.631 M103.360 197.916 C 103.716 197.985,104.230 197.982,104.503 197.911 C 104.776 197.839,104.486 197.783,103.857 197.786 C 103.229 197.790,103.005 197.848,103.360 197.916 M295.643 197.916 C 295.996 197.984,296.575 197.984,296.929 197.916 C 297.282 197.848,296.993 197.792,296.286 197.792 C 295.579 197.792,295.289 197.848,295.643 197.916 M93.504 198.205 C 93.938 198.271,94.581 198.269,94.932 198.201 C 95.284 198.133,94.929 198.080,94.143 198.082 C 93.357 198.084,93.070 198.139,93.504 198.205 M305.218 198.205 C 305.653 198.271,306.295 198.269,306.647 198.201 C 306.998 198.133,306.643 198.080,305.857 198.082 C 305.071 198.084,304.784 198.139,305.218 198.205 M81.071 198.492 C 81.582 198.556,82.418 198.556,82.929 198.492 C 83.439 198.429,83.021 198.377,82.000 198.377 C 80.979 198.377,80.561 198.429,81.071 198.492 M317.071 198.492 C 317.582 198.556,318.418 198.556,318.929 198.492 C 319.439 198.429,319.021 198.377,318.000 198.377 C 316.979 198.377,316.561 198.429,317.071 198.492 M61.940 198.783 C 62.928 198.839,64.471 198.839,65.368 198.782 C 66.266 198.726,65.457 198.680,63.571 198.681 C 61.686 198.681,60.951 198.727,61.940 198.783 M334.786 198.783 C 335.768 198.839,337.375 198.839,338.357 198.783 C 339.339 198.727,338.536 198.682,336.571 198.682 C 334.607 198.682,333.804 198.727,334.786 198.783 M61.643 201.354 C 62.625 201.410,64.232 201.410,65.214 201.354 C 66.196 201.299,65.393 201.253,63.429 201.253 C 61.464 201.253,60.661 201.299,61.643 201.354 M334.797 201.355 C 335.785 201.411,337.328 201.410,338.225 201.354 C 339.123 201.297,338.314 201.251,336.429 201.252 C 334.543 201.252,333.809 201.299,334.797 201.355 M81.071 201.635 C 81.582 201.699,82.418 201.699,82.929 201.635 C 83.439 201.572,83.021 201.520,82.000 201.520 C 80.979 201.520,80.561 201.572,81.071 201.635 M317.071 201.635 C 317.582 201.699,318.418 201.699,318.929 201.635 C 319.439 201.572,319.021 201.520,318.000 201.520 C 316.979 201.520,316.561 201.572,317.071 201.635 M93.504 201.919 C 93.938 201.985,94.581 201.983,94.932 201.915 C 95.284 201.848,94.929 201.794,94.143 201.796 C 93.357 201.798,93.070 201.854,93.504 201.919 M305.218 201.919 C 305.653 201.985,306.295 201.983,306.647 201.915 C 306.998 201.848,306.643 201.794,305.857 201.796 C 305.071 201.798,304.784 201.854,305.218 201.919 M103.071 202.202 C 103.425 202.270,104.004 202.270,104.357 202.202 C 104.711 202.134,104.421 202.078,103.714 202.078 C 103.007 202.078,102.718 202.134,103.071 202.202 M295.646 202.202 C 296.002 202.270,296.516 202.268,296.789 202.196 C 297.062 202.125,296.771 202.069,296.143 202.072 C 295.514 202.075,295.291 202.134,295.646 202.202 M111.646 202.488 C 112.002 202.556,112.516 202.554,112.789 202.482 C 113.062 202.411,112.771 202.355,112.143 202.358 C 111.514 202.361,111.291 202.419,111.646 202.488 M287.360 202.488 C 287.716 202.556,288.230 202.554,288.503 202.482 C 288.776 202.411,288.486 202.355,287.857 202.358 C 287.229 202.361,287.005 202.419,287.360 202.488 M119.214 202.768 C 119.489 202.840,119.939 202.840,120.214 202.768 C 120.489 202.697,120.264 202.638,119.714 202.638 C 119.164 202.638,118.939 202.697,119.214 202.768 M279.786 202.768 C 280.061 202.840,280.511 202.840,280.786 202.768 C 281.061 202.697,280.836 202.638,280.286 202.638 C 279.736 202.638,279.511 202.697,279.786 202.768 M126.071 203.054 C 126.346 203.126,126.796 203.126,127.071 203.054 C 127.346 202.982,127.121 202.923,126.571 202.923 C 126.021 202.923,125.796 202.982,126.071 203.054 M132.643 203.340 C 132.918 203.412,133.368 203.412,133.643 203.340 C 133.918 203.268,133.693 203.209,133.143 203.209 C 132.593 203.209,132.368 203.268,132.643 203.340 M145.214 203.911 C 145.489 203.983,145.939 203.983,146.214 203.911 C 146.489 203.839,146.264 203.781,145.714 203.781 C 145.164 203.781,144.939 203.839,145.214 203.911 M151.500 204.197 C 151.775 204.269,152.225 204.269,152.500 204.197 C 152.775 204.125,152.550 204.066,152.000 204.066 C 151.450 204.066,151.225 204.125,151.500 204.197 M158.357 204.483 C 158.632 204.555,159.082 204.555,159.357 204.483 C 159.632 204.411,159.407 204.352,158.857 204.352 C 158.307 204.352,158.082 204.411,158.357 204.483 M240.643 204.483 C 240.918 204.555,241.368 204.555,241.643 204.483 C 241.918 204.411,241.693 204.352,241.143 204.352 C 240.593 204.352,240.368 204.411,240.643 204.483 M182.845 216.357 C 184.029 217.619,184.286 217.845,184.286 217.631 C 184.286 217.585,183.675 216.974,182.929 216.274 L 181.571 215.000 182.845 216.357 M216.842 216.500 L 215.857 217.571 216.929 216.587 C 217.926 215.670,218.131 215.429,217.913 215.429 C 217.865 215.429,217.383 215.911,216.842 216.500 M198.358 282.429 C 198.361 283.057,198.419 283.281,198.488 282.925 C 198.556 282.570,198.554 282.056,198.482 281.782 C 198.411 281.509,198.355 281.800,198.358 282.429 M201.506 282.857 C 201.506 283.564,201.562 283.854,201.630 283.500 C 201.698 283.146,201.698 282.568,201.630 282.214 C 201.562 281.861,201.506 282.150,201.506 282.857 M198.682 295.429 C 198.682 297.393,198.727 298.196,198.783 297.214 C 198.839 296.232,198.839 294.625,198.783 293.643 C 198.727 292.661,198.682 293.464,198.682 295.429 M201.250 296.143 C 201.250 297.871,201.297 298.542,201.354 297.632 C 201.411 296.723,201.411 295.309,201.353 294.490 C 201.296 293.670,201.249 294.414,201.250 296.143 " stroke="none" fill="#548cea" fill-rule="evenodd"></path><path id="path3" d="M201.239 109.143 C 201.239 110.321,201.289 110.804,201.351 110.214 C 201.413 109.625,201.413 108.661,201.351 108.071 C 201.289 107.482,201.239 107.964,201.239 109.143 M198.665 109.857 C 198.666 110.957,198.718 111.372,198.780 110.779 C 198.842 110.187,198.841 109.287,198.778 108.779 C 198.715 108.272,198.664 108.757,198.665 109.857 M201.501 119.286 C 201.504 119.914,201.562 120.138,201.631 119.782 C 201.699 119.427,201.696 118.913,201.625 118.640 C 201.553 118.366,201.497 118.657,201.501 119.286 M198.352 119.714 C 198.352 120.264,198.411 120.489,198.483 120.214 C 198.555 119.939,198.555 119.489,198.483 119.214 C 198.411 118.939,198.352 119.164,198.352 119.714 M160.503 195.631 C 160.859 195.699,161.373 195.696,161.646 195.625 C 161.919 195.553,161.629 195.497,161.000 195.501 C 160.371 195.504,160.148 195.562,160.503 195.631 M238.789 195.631 C 239.144 195.699,239.659 195.696,239.932 195.625 C 240.205 195.553,239.914 195.497,239.286 195.501 C 238.657 195.504,238.434 195.562,238.789 195.631 M153.500 195.911 C 153.775 195.983,154.225 195.983,154.500 195.911 C 154.775 195.839,154.550 195.781,154.000 195.781 C 153.450 195.781,153.225 195.839,153.500 195.911 M252.071 196.197 C 252.346 196.269,252.796 196.269,253.071 196.197 C 253.346 196.125,253.121 196.066,252.571 196.066 C 252.021 196.066,251.796 196.125,252.071 196.197 M128.071 197.054 C 128.346 197.126,128.796 197.126,129.071 197.054 C 129.346 196.982,129.121 196.923,128.571 196.923 C 128.021 196.923,127.796 196.982,128.071 197.054 M121.214 197.340 C 121.489 197.412,121.939 197.412,122.214 197.340 C 122.489 197.268,122.264 197.209,121.714 197.209 C 121.164 197.209,120.939 197.268,121.214 197.340 M277.786 197.340 C 278.061 197.412,278.511 197.412,278.786 197.340 C 279.061 197.268,278.836 197.209,278.286 197.209 C 277.736 197.209,277.511 197.268,277.786 197.340 M113.786 197.626 C 114.061 197.697,114.511 197.697,114.786 197.626 C 115.061 197.554,114.836 197.495,114.286 197.495 C 113.736 197.495,113.511 197.554,113.786 197.626 M285.360 197.631 C 285.716 197.699,286.230 197.696,286.503 197.625 C 286.776 197.553,286.486 197.497,285.857 197.501 C 285.229 197.504,285.005 197.562,285.360 197.631 M105.646 197.916 C 106.002 197.985,106.516 197.982,106.789 197.911 C 107.062 197.839,106.771 197.783,106.143 197.786 C 105.514 197.790,105.291 197.848,105.646 197.916 M293.360 197.916 C 293.716 197.985,294.230 197.982,294.503 197.911 C 294.776 197.839,294.486 197.783,293.857 197.786 C 293.229 197.790,293.005 197.848,293.360 197.916 M96.361 198.205 C 96.795 198.271,97.438 198.269,97.790 198.201 C 98.141 198.133,97.786 198.080,97.000 198.082 C 96.214 198.084,95.927 198.139,96.361 198.205 M302.647 198.205 C 303.081 198.271,303.724 198.269,304.075 198.201 C 304.427 198.133,304.071 198.080,303.286 198.082 C 302.500 198.084,302.212 198.139,302.647 198.205 M84.791 198.493 C 85.304 198.556,86.076 198.555,86.505 198.490 C 86.934 198.425,86.514 198.373,85.571 198.374 C 84.629 198.376,84.277 198.429,84.791 198.493 M313.648 198.493 C 314.162 198.556,314.933 198.555,315.362 198.490 C 315.792 198.425,315.371 198.373,314.429 198.374 C 313.486 198.376,313.134 198.429,313.648 198.493 M68.357 198.781 C 69.104 198.840,70.325 198.840,71.071 198.781 C 71.818 198.723,71.207 198.674,69.714 198.674 C 68.221 198.674,67.611 198.723,68.357 198.781 M328.929 198.781 C 329.675 198.840,330.896 198.840,331.643 198.781 C 332.389 198.723,331.779 198.674,330.286 198.674 C 328.793 198.674,328.182 198.723,328.929 198.781 M68.357 201.353 C 69.104 201.412,70.325 201.412,71.071 201.353 C 71.818 201.294,71.207 201.246,69.714 201.246 C 68.221 201.246,67.611 201.294,68.357 201.353 M328.929 201.353 C 329.675 201.412,330.896 201.412,331.643 201.353 C 332.389 201.294,331.779 201.246,330.286 201.246 C 328.793 201.246,328.182 201.294,328.929 201.353 M84.791 201.636 C 85.304 201.699,86.076 201.698,86.505 201.633 C 86.934 201.568,86.514 201.516,85.571 201.517 C 84.629 201.519,84.277 201.572,84.791 201.636 M313.648 201.636 C 314.162 201.699,314.933 201.698,315.362 201.633 C 315.792 201.568,315.371 201.516,314.429 201.517 C 313.486 201.519,313.134 201.572,313.648 201.636 M96.075 201.919 C 96.510 201.985,97.153 201.983,97.504 201.915 C 97.855 201.848,97.500 201.794,96.714 201.796 C 95.929 201.798,95.641 201.854,96.075 201.919 M302.500 201.916 C 302.854 201.984,303.432 201.984,303.786 201.916 C 304.139 201.848,303.850 201.792,303.143 201.792 C 302.436 201.792,302.146 201.848,302.500 201.916 M105.646 202.202 C 106.002 202.270,106.516 202.268,106.789 202.196 C 107.062 202.125,106.771 202.069,106.143 202.072 C 105.514 202.075,105.291 202.134,105.646 202.202 M293.360 202.202 C 293.716 202.270,294.230 202.268,294.503 202.196 C 294.776 202.125,294.486 202.069,293.857 202.072 C 293.229 202.075,293.005 202.134,293.360 202.202 M113.646 202.488 C 114.002 202.556,114.516 202.554,114.789 202.482 C 115.062 202.411,114.771 202.355,114.143 202.358 C 113.514 202.361,113.291 202.419,113.646 202.488 M285.214 202.483 C 285.489 202.555,285.939 202.555,286.214 202.483 C 286.489 202.411,286.264 202.352,285.714 202.352 C 285.164 202.352,284.939 202.411,285.214 202.483 M121.214 202.768 C 121.489 202.840,121.939 202.840,122.214 202.768 C 122.489 202.697,122.264 202.638,121.714 202.638 C 121.164 202.638,120.939 202.697,121.214 202.768 M277.786 202.768 C 278.061 202.840,278.511 202.840,278.786 202.768 C 279.061 202.697,278.836 202.638,278.286 202.638 C 277.736 202.638,277.511 202.697,277.786 202.768 M270.929 203.054 C 271.204 203.126,271.654 203.126,271.929 203.054 C 272.204 202.982,271.979 202.923,271.429 202.923 C 270.879 202.923,270.654 202.982,270.929 203.054 M245.500 204.197 C 245.775 204.269,246.225 204.269,246.500 204.197 C 246.775 204.125,246.550 204.066,246.000 204.066 C 245.450 204.066,245.225 204.125,245.500 204.197 M160.218 204.488 C 160.573 204.556,161.087 204.554,161.360 204.482 C 161.634 204.411,161.343 204.355,160.714 204.358 C 160.086 204.361,159.862 204.419,160.218 204.488 M238.503 204.488 C 238.859 204.556,239.373 204.554,239.646 204.482 C 239.919 204.411,239.629 204.355,239.000 204.358 C 238.371 204.361,238.148 204.419,238.503 204.488 M198.352 280.286 C 198.352 280.836,198.411 281.061,198.483 280.786 C 198.555 280.511,198.555 280.061,198.483 279.786 C 198.411 279.511,198.352 279.736,198.352 280.286 M201.495 280.857 C 201.495 281.407,201.554 281.632,201.626 281.357 C 201.697 281.082,201.697 280.632,201.626 280.357 C 201.554 280.082,201.495 280.307,201.495 280.857 M198.663 290.000 C 198.663 291.021,198.715 291.439,198.778 290.929 C 198.841 290.418,198.841 289.582,198.778 289.071 C 198.715 288.561,198.663 288.979,198.663 290.000 M201.239 290.857 C 201.239 292.036,201.289 292.518,201.351 291.929 C 201.413 291.339,201.413 290.375,201.351 289.786 C 201.289 289.196,201.239 289.679,201.239 290.857 " stroke="none" fill="#84acec" fill-rule="evenodd"></path><path id="path4" d="" stroke="none" fill="#74a4ec" fill-rule="evenodd"></path></g></svg>