<svg xmlns="http://www.w3.org/2000/svg" width="256" height="256"><path fill="#2FBE53" d="M0 0h256v256H0z"/><path fill="#000200" d="M57 57c17.8-1.09 34.408 6.128 47.613 17.734C117.08 86.568 125.402 100.848 128 118c1.6-2.4 2.879-4.695 4.188-7.25 4.399-7.9 10.484-13.19 18.812-16.75 4.055-1.006 7.825-1.082 12-1 .687 9.275-2.082 16.097-8 23.25-4.896 5.182-10.477 8.035-17 10.75 4.06 1.55 8.095 3.036 12.25 4.313 18.712 6.269 32.717 18.864 41.988 36.113 4.22 8.562 6.954 17.349 6.825 26.949l-.028 2.648L199 199c-16.166 1.155-32.349-5.502-44.875-15.375C139.594 170.99 130.319 155.271 128 136l-1.285 2.816C121.35 150.26 116.075 157.106 104 162c-3.703 1.127-7.136 1.074-11 1-.695-9.377 2.11-16.163 8.188-23.313 4.146-4.358 8.375-7.192 13.812-9.687a994 994 0 0 0 4-2l-3.008-.629c-19.794-4.384-36.163-14.15-47.863-31.078C60.62 84.233 56.75 71.223 57 57"/></svg>