<svg xmlns="http://www.w3.org/2000/svg" viewBox="0 0 595.276 595.276"><circle cx="297.638" cy="297.638" r="294.803"/><path d="M457.26 234.934 311.51 129.04a23.54 23.54 0 0 0-27.744 0l-145.75 105.893a23.54 23.54 0 0 0-8.573 26.386l55.671 171.338a23.54 23.54 0 0 0 22.446 16.308h180.156a23.54 23.54 0 0 0 22.446-16.308l55.67-171.338a23.54 23.54 0 0 0-8.573-26.386Zm-203.79-14.567-6.195-40.036 48.273-35.073a3.55 3.55 0 0 1 4.178 0l80.704 58.635-26.83 13.593a.88.88 0 0 1-.918-.073l-54.906-39.918-14.708 10.643a20.84 20.84 0 0 0-8.413 20.158l5.406 34.942a.88.88 0 0 1-.354.85l-50.887 37.013-25.101-5.188a.89.89 0 0 1-.664-.595l-1.108-3.438 43.15-31.385a20.85 20.85 0 0 0 8.373-20.128m74.73 121.987-49.972.044a20.9 20.9 0 0 0-8.507 1.832l-15.278-47.04a20.9 20.9 0 0 0-3.95-7.065L291.5 260.3a21 21 0 0 0 5.086-5.279l39.908 28.888a21 21 0 0 0 7.491 3.425l-14.953 45.638a20.9 20.9 0 0 0-.832 9.382m-179.692-87.228a3.545 3.545 0 0 1 1.292-3.974l79.24-57.573 4.62 29.854a.88.88 0 0 1-.354.85l-54.725 40.443 5.394 16.739a20.97 20.97 0 0 0 15.686 14.08l35.055 7.244c.31.065.563.291.66.593L254.6 362.57l-12.241 21.532c-.158.275-.412.454-.77.447l-3.098-.005-16.655-51.28a20.97 20.97 0 0 0-15.67-14.032l-39.48-8.159zm135.817 139.993-19.216 33.8H207.56a3.545 3.545 0 0 1-3.38-2.456l-30.363-93.446 28.292 5.847c.31.065.563.291.661.593l20.067 65.11 18.722.028h.031a20.97 20.97 0 0 0 18.196-10.586l17.69-31.117a.89.89 0 0 1 .77-.447l63.184-.056 16.023 17.679a.89.89 0 0 1 .185.87l-1.172 3.547-53.963.048a20.97 20.97 0 0 0-18.178 10.586m106.771 31.344a3.545 3.545 0 0 1-3.38 2.457h-99.547l13.584-23.894a.88.88 0 0 1 .767-.447l68.417.016 5.737-17.37a20.97 20.97 0 0 0-4.368-20.621l-24.039-26.521a.89.89 0 0 1-.185-.87l19.034-58.092 22.653-11.476a.88.88 0 0 1 .918.075l2.77 2.014-16.818 51.33a20.97 20.97 0 0 0 4.382 20.574l27.227 30.038zm55.671-171.338-31.38 96.577-19.513-21.527a.89.89 0 0 1-.185-.87l20.926-65.513-14.134-10.283c-6.387-4.647-14.73-5.316-21.773-1.745l-31.542 15.978a.88.88 0 0 1-.918-.072l-49.685-35.965-4.097-26.475a.88.88 0 0 1 .355-.852l2.832-2.05 43.275 31.325a20.88 20.88 0 0 0 12.26 3.988 20.94 20.94 0 0 0 9.472-2.272l35.994-18.236 46.822 34.019a3.54 3.54 0 0 1 1.291 3.973" style="fill:#e2f2b4"/></svg>