<?xml version="1.0" encoding="UTF-8"?>
<svg id="Layer_1" xmlns="http://www.w3.org/2000/svg" viewBox="0 0 595.2756 595.2756">
  <defs>
    <style>
      .cls-1 {
        fill: #e2f2b4;
      }
    </style>
  </defs>
  <circle cx="297.6378" cy="297.6378" r="294.8031"/>
  <path class="cls-1" d="M457.2595,234.9335l-145.7495-105.8928c-8.2971-6.0291-19.4468-6.0285-27.7442-.0005l-145.7493,105.8934c-8.2971,6.0285-11.7426,16.632-8.5737,26.3866l55.6715,171.3376c3.1692,9.7546,12.1895,16.3084,22.4457,16.3084h180.1559c10.256,0,19.2759-6.5538,22.4457-16.3079l55.6712-171.3387c3.1687-9.7546-.2769-20.3581-8.5734-26.386ZM253.471,220.3668l-6.195-40.0361,48.273-35.0725c.6246-.4541,1.3566-.6808,2.0889-.6808s1.464.2268,2.0889.6808l80.7041,58.635-26.8298,13.5925c-.2974.1506-.6494.1224-.9186-.0723l-54.906-39.9185-14.7072,10.6427c-6.3976,4.6293-9.6217,12.354-8.4136,20.158l5.4067,34.9421c.0509.329-.0846.6547-.354.8505l-50.8876,37.0125-25.1009-5.1874c-.312-.0647-.5663-.2925-.664-.5954l-1.1077-3.4381,43.1494-31.3845c6.3699-4.6321,9.5783-12.3447,8.3736-20.1286ZM328.1998,342.3543l-49.9719.0441c-2.9784.0024-5.8679.6521-8.5065,1.8319l-15.2784-47.0409c-.854-2.6295-2.2118-5.0173-3.9492-7.064l41.0065-29.8255c2.0318-1.4779,3.7378-3.2714,5.0856-5.2785l39.9085,28.8874c2.2949,1.6608,4.8433,2.8006,7.4908,3.4249l-14.953,45.6386c-1.0057,3.0699-1.2629,6.2787-.8323,9.382ZM148.5082,255.1257c-.4772-1.4693.0417-3.0664,1.2915-3.974l79.2412-57.5725,4.6195,29.8536c.0509.329-.0846.6547-.354.8505l-54.7249,40.4422,5.3933,16.7395c2.3072,7.1607,8.3171,12.5557,15.6864,14.08l35.0543,7.2444c.31.0642.5634.2909.6614.5928l19.2234,59.1875-12.2417,21.5319c-.1571.2757-.412.4546-.77.4469l-3.0975-.0045-16.655-51.2798c-2.3181-7.1373-8.3234-12.5144-15.671-14.0321l-39.4782-8.1589-18.1788-55.9475ZM284.3255,395.1189l-19.2168,33.8007h-57.5487c-1.5449,0-2.9032-.987-3.3804-2.4563l-30.3625-93.4459,28.2916,5.8469c.31.0642.5634.2909.6614.5928l20.0674,65.1105,18.7213.0275h.0317c7.5116,0,14.4824-4.0545,18.1953-10.5861l17.6907-31.1166c.1569-.2757.4509-.4475.7686-.4475l63.1845-.0559,16.0238,17.6786c.2131.2349.284.5688.1843.8706l-1.1712,3.5465-53.9637.048c-7.5039.0065-14.4692,4.0627-18.1776,10.5861ZM391.0963,426.4633c-.4774,1.4693-1.8358,2.4563-3.3804,2.4563h-99.5472l13.5841-23.8933c.1566-.2757.4506-.4469.7677-.4469l68.4161.0157,5.737-17.371c2.3589-7.1455.6852-15.0468-4.3673-20.6202l-24.0389-26.5209c-.2126-.2349-.284-.5683-.1849-.8696l19.0334-58.0925,22.6529-11.4758c.2969-.1501.6489-.1218.9186.0745l2.7692,2.0148-16.8179,51.3295c-2.3361,7.1303-.6569,15.0137,4.3827,20.574l27.2264,30.0379-17.1516,52.7877ZM446.7672,255.1252l-31.3797,96.5772-19.5131-21.5274c-.2131-.2355-.2843-.5683-.1851-.8695l20.926-65.5132-14.1341-10.2832c-6.387-4.6467-14.7298-5.3161-21.7731-1.7456l-31.5423,15.9789c-.2969.1501-.6489.1218-.9175-.0723l-49.6856-35.9647-4.0967-26.4756c-.0511-.3301.0851-.6564.3554-.8521l2.8321-2.0492,43.2748,31.324c3.6515,2.6434,7.9411,3.9887,12.2598,3.9887,3.2258,0,6.4679-.751,9.472-2.2725l35.9938-18.2353,46.8224,34.0185c1.2497.9076,1.7686,2.5047,1.2909,3.9735Z"/>
</svg>