<svg xmlns="http://www.w3.org/2000/svg" fill="none" viewBox="0 0 256 256"><g clip-path="url(#a)"><path fill="#0a0711" d="M128 256c70.692 0 128-57.308 128-128S198.692 0 128 0 0 57.308 0 128s57.308 128 128 128"/><g fill="#74fad1" clip-path="url(#b)"><path d="m55.527 133.994 20.042 14.384c2.417 1.801 5.873 1.086 7.604-1.436 1.724-2.523 1.039-6.117-1.385-7.91l-20.042-14.741-.347-.357v-.715l.347-.357 20.042-14.741c2.417-1.801 3.11-5.395 1.385-7.91-1.039-1.436-2.763-2.522-4.495-2.522-1.038 0-2.07.357-3.11 1.086l-20.041 14.369C52.07 115.295 50 118.896 50 123.212c0 5.03 2.07 8.631 5.526 10.782M176.954 88.35c-3.456 1.2-4.982 4.394-4.226 7.98 0 .401 9.979 36.335-10.361 60.701-2.303 2.794-1.922 6.788.771 9.189 1.145 1.2 2.685 1.593 4.226 1.593s3.456-.8 4.601-2.401c24.947-29.946 13.434-71.075 13.053-72.675-1.145-3.594-4.601-5.588-8.057-4.395h-.007zM103.661 96.33c1.145-3.593-.771-6.787-4.226-7.98s-6.523.8-7.675 4.394c-.382 1.593-11.894 42.729 13.053 72.676 1.145 1.593 3.067 2.4 4.6 2.4 1.534 0 3.068-.407 4.227-1.593 2.685-2.401 2.685-6.388.77-9.189-20.721-24.359-10.749-60.293-10.749-60.7zM149.71 156.231h-23.413c-3.456 0-6.142 2.793-6.142 6.388s2.686 6.388 6.142 6.388h23.795c3.456 0 6.141-2.794 6.141-6.388-.381-3.595-3.067-6.388-6.523-6.388"/></g></g><defs><clipPath id="a"><path fill="#fff" d="M0 0h256v256H0z"/></clipPath><clipPath id="b"><path fill="#fff" d="M50 88h138v81H50z"/></clipPath></defs></svg>
