<svg xmlns="http://www.w3.org/2000/svg" width="64" height="64"><path fill="#BDBCB4" d="M0 0h64v64H0z"/><path fill="#21201A" d="M0 0h30l-2 7c-2.6 1.4-2.6 1.4-5 2v7l2-6h3l-1 4h2c1 3 1 3 0 6l-2.6 1.3L24 23c-.7 3-.7 3 0 6 2.8 2.3 2.8 2.3 6 1.7 3-.6 3-.6 5-1.7l1 9-6 1v2l2 1-5-1 1-4h7l-1-2c-3.4-.2-3.4-.2-7 0l-2 2c.1 4.3.1 4.3 2 8 4.7-.4 4.7-.4 9-2l.3 2.5.4 3.3.4 3.3c.6 3.1.6 3.1 3.5 4.7L43 58v1h-7l-1-1c0-1.7.2-3.4.4-5l.3-2.8.3-2.2h-2v4.4l.1 2.4C34 57 34 57 33 59c-3 1-5 1.1-8.2 1H20l-1-7h-2v7h-1v-7h-2v8l-3.4-.2L7 61l-2 3H0z"/><path fill="#040404" d="M0 0h8L6.7 5.9 6 9.2C5 12 5 12 3 13.4L1 14v7h7c1.1 4.4 1 8.5 1 13l4 1-3 1 .5 1.6c.7 3.1.6 6.2.5 9.4h3v-4h4v-3h-4v-2h5c1.4 2.7 1 5 1 8h4l1-3 2 2c4.7-.4 4.7-.4 9-2l.3 2.5.4 3.3.4 3.3c.6 3.1.6 3.1 3.5 4.7L43 58v1h-7l-1-1c0-1.7.2-3.4.4-5l.3-2.8.3-2.2h-2v4.4l.1 2.4C34 57 34 57 33 59c-3 1-5 1.1-8.2 1H20l-1-7h-2v7h-1v-7h-2v8l-3.4-.2L7 61l-2 3H0z"/><path fill="#151515" d="M47 0h17v64H36v-3h10v2l4-1 1-19h4v-9h3v-3h-5V20h3v-3l-3 1h-8c-.1-6.6-.1-6.6 1-10l3 1v7h3V7h3V4L45 5V3h2z"/><path fill="#797773" d="m34 34 1 3-7 1v3h2v-2l7-1v6l5-1 1 2-2 1 3 1v-2h2v4.8l.1 2.6c0 2.4-.4 4.3-1.1 6.6h3l2-18 4 1v-8h1v9h-4v10c.1 3.3 0 5.9-1 9-2 .7-2 .7-4 1v-2H36v3H5l1-7 1 4h7v-8h5l1 7 13-1 1-11h2v10h6l-2.4-1c-2.6-2-2.6-2-3.1-4l-.5-5c0-2.2 0-2.2-1.1-4.1l-3 2c-2.5.4-2.5.4-5 0a9.2 9.2 0 0 1-3.4-6.6c.4-2.4.4-2.4 1.5-4.2 2.9-1.8 5.5-1.4 8.9-1.2Z"/><path fill="#EBE8DB" d="m39 27 3 1v2l2.3-.6C47 29 47 29 50 31c2 .2 2 .2 4.2.1L58 31v3h-4v8h-3l-2 19-5-2 2-14h-2v2h-5l3-3h-5c-1-4.8-1-9.2-1-14h3z"/><path fill="#020203" d="M0 0h8L6.7 5.9 6 9.2C5 12 5 12 3 13.4L1 14v7h7c1.1 4.4 1 8.5 1 13l4 1-3 1v7H3c-3.2-3.2-3-6.4-3.1-10.9a673 673 0 0 1 0-19.5z"/><path fill="#CABE8B" d="M17 0h13c-.7 3.4-.7 3.4-2 7-2.6 1.4-2.6 1.4-5 2v7l2-6h3l-1 4h2l1 3c-2 2-2 2-4.3 2H23l-5 1c-3-3.8-3-3.8-3-6H6l1-7 2-1 1 5h6V9h-5V7l5-1z"/><path fill="#3D3C37" d="m42 1 3 1v16l11-1v3h-3v11l-4 1c-2.2-2.2-3.9-4-4.3-7.1 0-2 .2-4 .3-5.9h-3v4h-4v-4l-1.8-.1C33 17.6 31.9 15 30 12l1.6 1c3 1.2 5.3 1.1 8.4 1l1-4-2-1h3l-2-2h-4l1-3 6 1z"/><path fill="#D8CA90" d="m36 17.8 2 1.2v4h4v-4h3c1 7.6 1 7.6 1 11-4 0-4 0-5.8-1.5L39 27v3h-3l-1 2-1-2-3 2c-5.4-.4-5.4-.4-8-3-.5-5.1-.5-5.1 1-7.7 4-2.6 7.2-4.8 12-3.5"/><path fill="#1B1B1A" d="M0 36h1l2 6 7 1 1-3v7l3 1-6 1 .5 1.5c.7 3.5.6 6.9.5 10.5l-3 1-1 2H0z"/><path fill="#D4D4D4" d="M10-.1h5.1L17 0a17 17 0 0 1 1 4l-2 3c-2.6.2-2.6.2-5 0v2h5v2l-6 1-2-5-2 7h9v2h-3v4H1c-.2-2.9-.2-2.9 0-6l3-2c1-2.6 1-2.6 1.6-5.6C7.2 0 7.2 0 10.1 0Z"/><path fill="#060607" d="M51 43h3c2.4 7 3.5 13.6 4 21H36v-3h10v2l4-1z"/><path fill="#969696" d="M14 53h5l1 7h15v2h-2v2H5l1-7 1 4h7z"/><path fill="#C6C6C6" d="M30 0h17v3h-2v2l10-1v3h-3v9h-3l-.4-3.4L48 9l-2-1-1 6h-1V2l-2-1 1 4-1.8-.4C38.7 4.2 36.5 4 34 4c-3 2.3-3 2.3-5 5-1-3-1-3 1-9"/><path fill="#3D3B31" d="M18 21h4l3 9c4.5 1 5.6 1.2 10-1l1 9-6 1v2l2 1-5-1 1-4h7l-1-2H24l-1-3-4 1c-1-4-1-7.8-1-12"/><path fill="#C6AF71" d="m34 34 1 3-7 1v3h2v-2l7-1v6l5-1 1 2-5 2-3-3-3 2c-2.5.4-2.5.4-5 0a9.2 9.2 0 0 1-3.4-6.6c.4-2.4.4-2.4 1.5-4.2 2.9-1.8 5.5-1.4 8.9-1.2"/><path fill="#030303" d="m15 44 1 3h2l-1 13h-1v-7h-2v8H9L7 48l7-1z"/><path fill="#C6A963" d="M19.3 35H23v11h-3l-1-8h-5v2h4v3h-4v4h-3l-1-11c3.5-.7 6-1.1 9.3-1"/><path fill="#212120" d="M17 0h13c-.7 3.4-.7 3.4-2 7-2.4 1.3-2.4 1.3-5 2-1.8 1.5-1.8 1.5-3 3V8h-5l1-1.8c1.3-2.4 1.3-2.4 1-6.2"/><path fill="#DCC88E" d="M43 32h3l1 11h-4v-2l-1.3 1.5C40 44 40 44 37 44l-1-11h3v4h3z"/><path fill="#121212" d="M0 0h8L6.7 5.9 6 9.2C5 12 5 12 3 13.4L1 14v6H0z"/><path fill="#E1E1E0" d="M40 41h3l1 2h3v2h3l-1 16-5-2 2-14h-2v2h-5l3-3z"/><path fill="#DDC885" d="m33 17 5 2v4h4v-4h3c1 7.6 1 7.6 1 11h-4l-1-4h-6v-5h-2z"/><path fill="#CFC289" d="M9 22h8v8h-4v4H9z"/><path fill="#E3E3E3" d="m9.1 13.4 3.3.3 2.6.3v2h-3v4H1v-6c2.8-1.4 5-.9 8.1-.6"/><path fill="#CCB880" d="M48 31h10v3h-4v8l-4-1 1-7h-4z"/><path fill="#302D28" d="M14 38h5c1.4 2.7 1 5 1 8l3 1h-3v11h-1l-1-11h-4v-4h4v-3h-4z"/><path fill="#D1C185" d="M31 18c1.5 2.6 2 3.9 2 7h-5v2l3 1c-1.9.6-1.9.6-4 1l-2-2v-3l-2-1c2.4-2.7 4.6-3.8 8-5"/><path fill="#585857" d="m42 1 3 1v15h-2v-4l-3 1 1-4-2-1h3l-2-2h-4l1-3 6 1z"/><path fill="#D1D1D1" d="m40 6 2 1-1 8h-7c-1-1-1-1-1-3.6V9l2-1 2 1V7z"/><path fill="#E4CF86" d="M56 17v3h-3v9h-3v-8h-4v-3c6.6-1 6.6-1 10-1"/><path fill="#D2C284" d="M55 4v3h-3v9h-3l-.4-3.4L48 9l-2-1V5c3-1 5.8-1 9-1"/><path fill="#595853" d="M8 6h1l1 5h6V9h-5V7l6 1-1 8-1-2H6c.9-6.9.9-6.9 2-8"/><path fill="#141412" d="M16 13h1l1 6 11-1v2a68 68 0 0 1-7 4v-3h-3.3C15 21 15 21 12 20v-4h4z"/><path fill="#A2A2A2" d="M8 0h4v3l4-1v2l-5 1-1-1-1.4 2.8L5 14c-1.4-2.9-.5-4.5.4-7.6l.8-3C7 1 7 1 8 0"/><path fill="#1D1D1D" d="M50 59h1v5H36v-3h10v2l4-1z"/><path fill="#D4C78B" d="M18 21h3c1.3 4 1 7.9 1 12h-3c-1-4-1-7.8-1-12"/><path fill="#292820" d="m46 8 3 1v7l4 2h-8c-.1-6.6-.1-6.6 1-10"/><path fill="#BEAE76" d="M9 22h8v3l-6 1-1 7 3 1H9z"/><path fill="#8A8A8A" d="M14 53h5l1 7-3 2-3-1z"/><path fill="#CAC7B5" d="M6 14h9v2h-3v4H7z"/><path fill="#B1B1B1" d="m6 57 1 4h8l1 3H5z"/><path fill="#E3D9AA" d="M35 21v5l1.9-.6L39 25l2 2h-2v3h-3l-1 2-.4-2-.5-2.4-.5-2.5L33 23l-2-1c2-1 2-1 4-1"/><path fill="#DED5A2" d="M17 8h3l1 11h-4z"/><path fill="#A2A2A2" d="m30 0 6 1c0 2 0 2-2.4 4.6C31 8 31 8 29 9c-1.3-3.8-.4-5.4 1-9"/><path fill="#888887" d="M34 48h2v16h-3v-2h2v-2h-5l3-1z"/><path fill="#D5B96F" d="M20 35h3v11h-3z"/><path fill="#B79F60" d="M20 35v5l-1-2-9 2v-4c3.4-.8 6.5-1.1 10-1"/><path fill="#575757" d="m37 46 4 1v4l4 2c-3 1-5 1-8 0z"/><path fill="#EEEFEE" d="M47 35h3v10h-3z"/><path fill="#E3E3E3" d="M37 3h3l-3 2v4h-3l-2 2c1-8 1-8 5-8"/><path fill="#D6D6D6" d="M25 62v2h-9l-1-3c3.8-1.5 6.3-.4 10 1"/><path fill="#EDE3AD" d="M27.2 7.4 29 8l-2 1.1c-2.6 2.5-2.7 4.3-3 7.9l-2-1c-.2-3.4-.2-3.4 0-7 3-2 3-2 5.2-1.6"/><path fill="#333" d="M35 53c2 0 2 0 3.4 1.3L40 56l1.7 1.7L43 59h-7c-1-1-1-1-1-3.6z"/><path fill="#888372" d="M35 38h2v6l5-1 1 2-5 2-2-1c-.6-2.6-.7-5.3-1-8"/><path fill="#3D3B31" d="M30 23h3v2h-5v2l3 1-4 1-1-5c1-1 1-1 4-1"/><path fill="#7F807F" d="m42 1 3 1-1 4c-2.9.8-4.9 1-8 1l1-3 6 1z"/><path fill="#EFE2A0" d="M23 24h2l.8 1.9C27 28.3 27 28.3 30 30c-2.4.6-2.4.6-5 1-2-2-2-2-2.1-4.6z"/><path fill="#686864" d="m45 25 5 2v2h3v2l-4 1c-4-4.8-4-4.8-4-7"/><path fill="#F1F0EA" d="m36 31 6 1v5h-3v-4h-3z"/><path fill="#585646" d="M21 11h1l2 7-2 2c-2.1-.4-2.1-.4-4-1l2-1v-3c0-3 0-3 1-4"/><path fill="#B7B39A" d="M9 7h2v2h5v2l-6 1z"/><path fill="#E9DDA1" d="M46 5h5l-1 8-.9-2c-1-2.2-1-2.2-3.1-3z"/><path fill="#E4E5E4" d="M26 60h9v2h-2l-1 2v-2h-6z"/><path fill="#DBCB95" d="M48 31h9v2l-10 1z"/><path fill="#DCC982" d="M52 20h1v9h-3c.9-6.8.9-6.8 2-9"/><path fill="#C0AF80" d="m33 17 5 2-1 5h-2v-3h-2z"/><path fill="#CACACA" d="M48 54h1v7l-5-2 2-4 1 2z"/><path fill="#929292" d="M37 53h4v2h2l1 4-7-4z"/><path fill="#DAC079" d="M35 38v6l-3-1v-2h-2v-2c3.9-1 3.9-1 5-1"/><path fill="#CDCCCA" d="m29 14 4 1v6l-4-2z"/><path fill="#707070" d="M9 0h3v3l4-1v2c-2.4.6-2.4.6-5 1L9 3z"/><path fill="#B3B4B3" d="M12 0h5c.6 1.9.6 1.9 1 4l-2 2V2l-4 1z"/><path fill="#DABD6F" d="M11 39h2l-1 4h2v4h-3z"/><path fill="#B4B4B4" d="m37 11 3 1 1 3h-7l-1-2h4z"/><path fill="#2E2D29" d="M25 10h3l-1 4h2v2l-4-1z"/></svg>