<svg xmlns="http://www.w3.org/2000/svg" id="Layer_1" viewBox="0 0 425.2 425.2"><defs><style>.cls-1{fill:#e62359}</style></defs><path d="M299.96 168.13 122.81 168c-48.29 0-88.46 38.19-89.72 87.28-.03 1.31 1.04 2.39 2.36 2.4l177.15.11v.03c48.29 0 88.46-38.19 89.72-87.28.03-1.31-1.04-2.39-2.36-2.4Zm89.78-134.48-266.93-.13c-48.29 0-88.46 38.19-89.72 87.28-.03 1.31 1.04 2.39 2.36 2.4l266.93.11v.03c48.29 0 88.46-38.19 89.72-87.28.03-1.31-1.04-2.39-2.36-2.4Z" class="cls-1"/><circle cx="77.98" cy="346.79" r="44.89" class="cls-1" transform="rotate(-22.5 77.984 346.778)"/></svg>