<svg xmlns="http://www.w3.org/2000/svg" width="1816" height="1816" fill="none" viewBox="0 0 1816 1816"><path fill="url(#a)" d="M907.95 1815.9c501.45 0 907.95-406.5 907.95-907.95C1815.9 406.503 1409.4 0 907.95 0 406.503 0 0 406.503 0 907.95c0 501.45 406.503 907.95 907.95 907.95"/><path stroke="#000" stroke-linecap="round" stroke-miterlimit="10" stroke-width="20" d="M848.32 1696.61C438.77 1666.83 115.75 1325.15 115.75 908s323.02-758.83 732.57-788.61" opacity=".5"/><path stroke="#000" stroke-linecap="round" stroke-miterlimit="10" stroke-width="20" d="M848.32 75.22C413.86 105.09 70.69 466.96 70.69 909s343.17 803.91 777.63 833.78m115.22-45.06c409.55-29.78 732.57-371.46 732.57-788.61S1373.09 150.28 963.54 120.5" opacity=".5"/><path stroke="#000" stroke-linecap="round" stroke-miterlimit="10" stroke-width="20" d="M963.54 76.33c434.46 29.87 777.63 391.74 777.63 833.78S1398 1714.02 963.54 1743.89" opacity=".5"/><path fill="#000" d="M1166.38 827.685c12.9-88.259-52.75-135.705-142.54-167.356l29.12-119.555-71.11-18.14-28.357 116.41c-18.697-4.778-37.897-9.273-56.978-13.732l28.561-117.184L854.034 490l-29.137 119.517c-15.469-3.61-30.661-7.172-45.41-10.918l.084-.381-98.067-25.068-18.912 77.734s52.753 12.38 51.649 13.142c28.801 7.357 33.997 26.861 33.133 42.324l-79.802 327.54c-3.516 8.95-12.457 22.39-32.581 17.29.708 1.06-51.686-13.2-51.686-13.2L548 1121.29l92.535 23.61c17.22 4.42 34.081 9.04 50.702 13.38l-29.425 120.93 71.03 18.14 29.137-119.64c19.404 5.4 38.233 10.37 56.666 15.06l-29.041 119.09 71.114 18.14 29.425-120.71c121.247 23.48 212.427 14.02 250.807-98.23 30.93-90.37-1.54-142.511-65.33-176.496 46.47-10.968 81.46-42.238 90.8-106.854h-.03zm-162.47 233.165c-21.976 90.37-170.649 41.53-218.854 29.27l39.049-160.211c48.193 12.319 202.775 36.687 179.805 130.941m21.99-234.479c-20.05 82.204-143.785 40.445-183.927 30.202l35.401-145.298c40.142 10.243 169.406 29.354 148.546 115.096z"/><g filter="url(#b)"><path fill="url(#c)" d="M1437.35 386.647c-73.13-73.136-271.35 0-412.35 105.853l64.97 14.5c92.03-32.5 165.79-51.57 212.71-4.643 89.01 89.014-21.83 344.189-247.59 569.943-225.765 225.75-480.929 336.6-569.944 247.59-63.457-63.45 37.201-282.37 146.094-443.833-8.807-9.569-14.741-17.347-18.74-23.557-181.012 232.26-322.697 520.02-241.86 600.85 102.705 102.71 424.763-52.81 719.33-347.37 294.57-294.571 450.09-616.628 347.38-719.333"/></g><defs><linearGradient id="a" x1="265.94" x2="1549.96" y1="1549.96" y2="265.94" gradientUnits="userSpaceOnUse"><stop stop-color="#FD7526"/><stop offset=".35" stop-color="#FAA52A"/><stop offset=".52" stop-color="#FFFF5C"/><stop offset="1" stop-color="#FAA52A"/></linearGradient><linearGradient id="c" x1="1436.52" x2="364.753" y1="371.241" y2="1438.53" gradientUnits="userSpaceOnUse"><stop stop-opacity="0"/><stop offset=".15"/><stop offset=".75"/><stop offset="1" stop-opacity="0"/></linearGradient><filter id="b" width="1181.63" height="1187.88" x="317.372" y="327.123" color-interpolation-filters="sRGB" filterUnits="userSpaceOnUse"><feFlood flood-opacity="0" result="BackgroundImageFix"/><feColorMatrix in="SourceAlpha" result="hardAlpha" values="0 0 0 0 0 0 0 0 0 0 0 0 0 0 0 0 0 0 127 0"/><feOffset/><feGaussianBlur stdDeviation="15"/><feColorMatrix values="0 0 0 0 0 0 0 0 0 0 0 0 0 0 0 0 0 0 0.7 0"/><feBlend in2="BackgroundImageFix" result="effect1_dropShadow_17678_10193"/><feBlend in="SourceGraphic" in2="effect1_dropShadow_17678_10193" result="shape"/></filter></defs></svg>