<?xml version="1.0" encoding="UTF-8"?>
<svg version="1.1" xmlns="http://www.w3.org/2000/svg" width="185" height="171">
<path d="M0 0 C4.21183048 4.08441376 7.78261191 8.50399599 11.03515625 13.3828125 C11.46054688 13.85589844 11.8859375 14.32898438 12.32421875 14.81640625 C13.31421875 14.81640625 14.30421875 14.81640625 15.32421875 14.81640625 C15.58976562 14.23503906 15.8553125 13.65367188 16.12890625 13.0546875 C21.20469197 3.55002993 30.82522748 -4.50201606 40.78515625 -8.296875 C50.86081623 -10.82135051 62.11751103 -10.63008596 71.5234375 -5.97265625 C87.30676413 4.10930135 96.82638142 19.82505694 101.32421875 37.81640625 C101.32421875 41.44640625 101.32421875 45.07640625 101.32421875 48.81640625 C75.58421875 48.81640625 49.84421875 48.81640625 23.32421875 48.81640625 C25.35811092 70.27527616 25.35811092 70.27527616 37.32421875 86.81640625 C45.19771619 92.37321617 53.03333176 92.48272239 62.32421875 91.81640625 C71.29791082 89.72254477 78.76118296 84.75184687 83.63671875 76.94140625 C87.59215976 69.77015953 89.69890602 62.81794583 91.32421875 54.81640625 C94.29421875 54.81640625 97.26421875 54.81640625 100.32421875 54.81640625 C99.4847082 69.29796316 94.04127304 82.04226692 83.390625 92.06640625 C74.6722933 99.44979491 64.13237309 103.22842608 52.65234375 103.03125 C36.76809434 101.56542161 24.50374038 93.62145649 14.4765625 81.6015625 C13.32421875 79.81640625 13.32421875 79.81640625 13.32421875 77.81640625 C10.88356311 80.17833106 8.55341538 82.54931096 6.33984375 85.12890625 C-2.26275107 95.13476122 -10.26658836 101.2779119 -23.67578125 102.81640625 C-34.76449234 103.15736929 -44.50884087 99.22542982 -52.67578125 91.81640625 C-65.76031964 79.25608814 -73.81991089 64.74736731 -74.73046875 46.45703125 C-74.46174518 28.56771959 -65.54175933 14.10521196 -53.48828125 1.53515625 C-37.84250268 -13.44008895 -16.64869923 -13.58631076 0 0 Z M-44.67578125 6.81640625 C-54.6504144 17.3439059 -55.30451865 29.42118692 -55.14233398 43.18676758 C-55.11330084 45.87709092 -55.12177319 48.56544521 -55.13476562 51.25585938 C-55.11873989 64.37926374 -54.05410645 75.61460726 -44.92578125 85.76171875 C-39.45830637 91.0307772 -33.72478428 93.64045614 -26.09765625 93.90625 C-17.59400136 93.3975958 -11.11229488 90.11384744 -5.28125 83.94921875 C-0.74652468 77.92498511 2.39246106 70.35549302 2.5012207 62.77319336 C2.51405594 61.98814926 2.52689117 61.20310516 2.54011536 60.39427185 C2.54750229 59.55259964 2.55488922 58.71092743 2.5625 57.84375 C2.57057175 56.96546036 2.57864349 56.08717072 2.58695984 55.18226624 C2.60077784 53.32213296 2.61151019 51.46197457 2.61938477 49.60180664 C2.63086494 47.71566238 2.65125342 45.82954958 2.6809082 43.94360352 C2.89889366 30.06925571 2.63977088 17.77012866 -7.35546875 7.0078125 C-18.37723027 -3.63770415 -33.62037953 -3.67804485 -44.67578125 6.81640625 Z M32.32421875 8.81640625 C24.79888024 19.10103554 24.32421875 26.38736353 24.32421875 39.81640625 C43.46421875 39.81640625 62.60421875 39.81640625 82.32421875 39.81640625 C82.32421875 27.36459322 80.47912688 17.56136403 72.32421875 7.81640625 C66.75866212 2.90966993 60.9098829 0.32592449 53.51171875 -0.49609375 C45.34187889 0.30487094 38.12406039 2.85476645 32.32421875 8.81640625 Z " fill="#EAEAEA" transform="translate(78.67578125,37.18359375)"/>
<path d="M0 0 C0.66 0.33 1.32 0.66 2 1 C0.35 2.98 -1.3 4.96 -3 7 C-4.32 6.67 -5.64 6.34 -7 6 C-4.69 4.02 -2.38 2.04 0 0 Z " fill="#A9A9A9" transform="translate(32,33)"/>
</svg>
