<svg xmlns="http://www.w3.org/2000/svg" xml:space="preserve" viewBox="0 0 400 400"><path fill="#1E1E1E" d="M271 401H1V1.1h399.8V401zM137.7 107.1v.4c0 .2.2.4.2 1.3v3.8l-.4 1c.2 5.6.3 11.2.7 17.2 0 .3 0 .6-.7 1.1-2.5 2.5-5 5-8.4 7.6l-24.9.6c-1.2 2.1-3.4 4.1-3.5 6.2-.3 9.6 0 19.1-.1 29.2.2.8.4 1.6.4 3.1.8 5 2 5.8 7.1 4.7 6 .6 12.1 1.6 18.2 1.7 4.8 0 6.5 2 6.5 6.6l-.1 13c-1.2 2.4-2.4 4.9-4.5 7.4h-11.5c-4.6.2-9.1.7-14.4 1.1l-1.7 4.9c0 16.6 0 33.3-.2 50.7 0 6.2-.2 12.3-.1 18.4 0 1.3 1 2.6 1.6 4.7 1 .6 1.8 1.8 2.6 1.8 9.6 0 19 0 28.6-.2 1 0 2-1 3.7-1.5 12.2 1.2 14.1-.6 14.1-12.7v-55.8c0-6.5.1-6.4 6.8-6.4 6.1 0 12.3-.3 19.3-.5l30.8-.2c22 0 44.1-.2 67 0 4.5 0 9 .1 14.4.5 9.3.7 10.2-.2 10.3-9.2 0-6.2-.2-12.5.1-18.8.3-4.6-1.5-6.9-6.7-7.3-1.6 0-3.3-.2-5-.7-.6-.3-1.2-.6-2.8-1h-33c-36.1 0-72.2 0-108.4-.4-.3-.1-.5 0-1.5.3-1 0-2.2 0-3.7-.3-.8 0-1.6.1-2.6.4h-.9c-5 0-10-.1-14.9-.9 1.5-.7 3-1.8 4.5-2 4-.2 8 0 13 0 2 .1 4 .4 6 0 1.7-.3 3.4-1.4 5.6-2.7.6-1.1 1.6-2.3 1.6-3.5 0-7.6 0-15.2.2-23.2 0-.8.2-1.7 1-3 4-.5 8-1.4 12.1-1.4 15.1-.3 30.2-.2 46.2-.2l39.8-.2c2-1.4 4.1-2.7 5.9-4.3a2411 2411 0 0 0 27.3-27l.8-.2h24.7l1-1.7-3.3-6.1c-.8-.5-1.6-1.3-2.4-1.3l-27.2.1h-16.5c-23.1.2-46.2.3-70.3.2-15.4 0-30.9-.2-46.3 0-1.7 0-3.4 1.7-5.5 3l-.2 1.2s0 .3-.4.5"/><path fill="#707847" d="M283.3 111.6c-9 9-18.2 17.9-27.3 26.8-1.8 1.6-4 2.9-6.3 4l-7.2-5c1-1.2 1.7-2.2 2.8-3.3 3.4-2.6 6.3-5.3 9.6-8.2 5.3-5.8 10.3-11.3 15.6-16.7l1.5-1.1h.5l3-.6c2.7 1.6 5.3 2.8 7.8 4.1"/><path fill="#416086" d="M150.6 147.9c.1 7.6.3 15.2.2 22.8 0 1.2-1 2.4-2.2 3.7-4.9-1.4-11-.5-11.5-7.9l-.2-6.4v-16.6c.4-.6.6-1 1-1 1 1.2 2 2.4 3 2.8 3.2 1 6.5 1.7 9.7 2.6"/><path fill="#92A3C3" d="M138.8 105c1.6-.9 3.3-2.6 5-2.6 15.4-.2 30.9 0 47 .4 2.8.6 5 1.2 7 1.2 23.4.1 46.8.1 70 .5-.7.7-1.3 1.1-2.4 1.5H144c-1 0-2 .3-3.2.2l-2-1z"/><path fill="#44625A" d="M176 216.5c-6 .2-12.2.5-18.3.5-6.7 0-6.7 0-6.7 6.4v55.8c0 12.1-2 13.9-14.6 12.5-.8-.7-1.1-1-1.2-1.6.6-1.2.9-2.2 1.4-3 1 .4 1.7.7 2.5 1.2 5.8 2 8.7 1.1 9-4.3.3-10.7-.7-21.3-1-32.4.6-7.3 1-14.2 1.7-21.1 1-9.2.4-10.3-8.6-12.6-.8-.2-1.5-.6-2-1.2 2.5-.4 4.6-.5 6.8-.7l9.2-1h1.3c2.1.6 3.9 1 5.6 1 5 .3 10 .4 15 .5z"/><path fill="#8B6E55" d="M293.5 181.8c4.6.1 6.4 2.4 6.1 7-.3 6.3 0 12.6-.1 18.8 0 9-1 9.9-10.8 8.8-.5-.3-.5-.6-.2-.8l3-3.8c.8-10.3 1.4-20.2 2-30"/><path fill="#CAB09F" d="M242.4 137.5c2.3 1.5 4.6 3 7 4.8-13 .4-26 .5-39.7.2-2.6-1-4.7-2.3-6.8-2.3-17-.2-34-.2-51-.6.2-.6.3-1 .8-1.4h24.5c10.8.2 21.3 0 32.2 0l29-.2 2.6-.5z"/><path fill="#AAAEC4" d="m176.5 216.5-15.4-.4a17 17 0 0 1-5.3-1.2c.9-.6 1.7-.8 2.5-.8 41.9 0 83.8 0 125.3.3a392 392 0 0 1-9.6 1.6l-66.2.3zM139 179.7h4.9c36 0 72.1.1 108.6.5.5.5.6.7.4.9l-1.2.1h-48.4v.6h49.3l31.7.2c.2 0 .7 0 .4.3-15.5.5-30.6.7-46.2.8-15.1-.1-29.8-.2-44.9-.5-9-.6-17.8-1.3-26.5-1.6-10.4-.2-20.8 0-31.2-.3v-.8s0-.1.4 0l2.6-.2z"/><path fill="#BB6A8C" d="M152 140c17 0 33.9 0 50.9.2 2 0 4.2 1.2 6.4 2.2-15 .5-30 .4-45.2.7-4 0-8 1-12.6 1.4a8 8 0 0 1-2.1-3.6l2.5-1z"/><path fill="#AAAEC4" d="M268 104.2c-23.4 0-46.8 0-70.2-.2-2 0-4.2-.6-6.5-1.1 22.9-.4 46-.5 69.1-.6 5.5 0 11 0 17 .3.6 1 .7 1.5.5 2.2-1 .5-1.7.9-2.3 1.4l-.3 1c-.8.4-1.6.6-3 .6z"/><path fill="#92A3C3" d="M100.7 175c0-9.6-.3-19.1 0-28.7.1-2 2.3-4 4.3-6l7.2.8 14.3 1c-6.3.4-12.2.4-18.1.8-1.5 0-2.9 1.2-4.6 2.2-.4 8.4-.4 16.5-.4 24.8 3 .2 5.9.5 8.5 1a63 63 0 0 1-5 1.5l.1.7c7 0 14 0 21 .2 0 .6-.1.9-.6 1.2H108c-2.4 0-4.8.3-7.2.5z"/><path fill="#CAB09F" d="m306.8 104 3 5.5-1 1.7c-8.2 0-16.5 0-25.4-.2-2-1.8-3.4-3.5-4.3-5.4 2.9-.5 5.4-1 7.8-1l20-.5z"/><path fill="#57798E" d="M100.6 175.3c2.5-.5 4.9-.7 7.3-.7h20l6.2.3c1 .7 1.9 1.3 2.6 2-4 0-8.1-.2-12.1 0-1.6.2-3 1.3-5 2.5-6.5-.2-12.4-.9-18.3-1.5z"/><path fill="#778B9E" d="M133 204c-.1-4.2-.3-8.3-.2-12.4 0-4.5-1.7-6.6-6.5-6.6-6-.1-12.1-1.1-18-2l13.4-.1c2.7 0 5.4-.6 8.4-.8 1.2.4 2 .8 3 1.3 1.2.6 2 1 2.7 1.7-.4.4-.5.7-.3 1.5v7.9c-.3 2.8-.4 5.1-.9 7.6l-1 2a8 8 0 0 0-.6-.1"/><path fill="#9D9BAE" d="M129.7 182c-2.6.3-5.3.8-8 .9-4.4.1-8.9 0-13.7 0-5 1.5-6.2.7-6.9-4.7 6.1.3 12 1 18.4 1.6h16c.4.3.4.5 0 .9-2.2.6-4 1-5.8 1.3"/><path fill="#416086" d="M104.1 144.8c1.4-.7 2.8-1.8 4.3-2 5.9-.3 11.8-.3 18.5-.6 1.5-1 2.3-1.8 3.1-2.7 2.5-2.5 5-5 8.2-7.8 1.4 0 2.1.1 2.7.5 0 .6-.1 1-.4 1.6a27 27 0 0 0-1.5 3.2h-.4c-1.3.7-2.3 1.5-3.6 2.4-.5.5-.7 1-1.3 1.5-1.2 1-2 1.8-2.9 2.8l-2.4.9c-6.1.3-11.8.5-17.8.6h-6z"/><path fill="#8B7E8B" d="M306.7 103.7c-6.5.5-13.1.7-19.8.9-2.4 0-4.9.5-7.8 1-.5.3-.6.4-.6 0l-.3-.9-.3-2c8.7-.5 17.5-.6 26.2-.6.8 0 1.6.8 2.6 1.6"/><path fill="#416086" d="M101.9 291c-.6-1.3-1.6-2.6-1.6-3.9-.1-6.1 0-12.2.5-19a31 31 0 0 0 1.3-6c.3-4 .5-8 .9-11.7l.2 4v5.8l-.4 29.9a2 2 0 0 0-.7 1z"/><path fill="#778B9E" d="m103 250-1 12.1c0 1.8-.5 3.5-1 5.5-.3-16.3-.4-33 .1-50 1-.6 1.5-.6 2-.6v.5l.1 7.9v.8c.1 2.9.3 5.3.3 8.2v14.8l-.6.8z"/><path fill="#416086" d="M132.8 204.3c.2-.3.6-.3 1 0l1.2 2.1-.1 3.9-.7 1.8c-.9 1-1.5 1.9-2.5 2.9l-2.3 1.7-26.4.4.1-.4c0-.8 0-1.2.3-1.6a4 4 0 0 1 1.9.3c6.1.2 12 0 18.2-.3 2.1-1 3.9-2.1 5.7-3.2z"/><path fill="#9D9BAE" d="M293.2 181.6c-.3 10-1 20-1.9 30-.6-.5-.9-1-1.2-2 0-7.5.1-14.4-.1-21.3-.1-2.1-1.4-4.2-2-6.5v-.5zM135 290.3l1 1.3c-1 .8-2 1.7-3 1.8-9.4.2-19 .3-28.5.2-.8 0-1.7-1.2-2.6-2.2 0-.4.1-.3.6-.2l27.2.6c1 0 2.2-1.2 3.6-1.7z"/><path fill="#44625A" d="m149 141 2.1 3.8c0 1 0 1.9-.3 3-3.4-.8-6.7-1.5-9.9-2.5-1-.4-2-1.6-2.8-3 3.8-.9 7.4-1 11-1.2z"/><path fill="#8B7E8B" d="m137.2 177-3-2.2c.2-.5.5-.8 1-1.4.8-2.3 1.3-4.4 1.8-6.4.7 6.9 6.7 6 11.3 7.7-1.3.8-3 1.9-4.8 2.2-1.8.4-3.9.1-6.3 0z"/><path fill="#AAAEC4" d="M128.7 212c-1.3 1-3 2-5.6 3-4.8-.8-8.9-1.6-13-1.8-1.7-.1-3.4 1.3-5.2 2-.4 0-.8 0-1.5-.4-.4-.9-.4-1.3-.4-1.8 4.6-.3 9.1-.8 13.7-1z"/><path fill="#DFE2F2" d="m141 132-2.5-.4c-.3-.2-.3-.5-.2-1.3l.7-2.8.7-14.6c.6-.9 1-1.4 1.6-1.5l.4 8-.7 12.5z"/><path fill="#9D9BAE" d="m285 182-1-.2c-10.7-.4-20.8-.6-31-.7v-.8c10.7-.4 21.4-.5 32.6 0 .6.8.6 1.1.6 1.5l-.3.1-1 .1z"/><path fill="#778B9E" d="M139.5 113.2c0 4.7-.2 9.4-.7 14-.6-4.8-.8-9.6-1-14.4 0 0 0-.2.5 0z"/><path fill="#B9C2D9" d="M129.5 139.5c-.3.9-1 1.8-2.2 2.6l-15.1-1a77 77 0 0 1-6.8-.8c7.6-.4 15.6-.6 24.1-.8"/><path fill="#BB6A8C" d="m278.5 106 .1-.1 4.3 5.2.4.5-7.8-4c-.2-.6 0-1 .6-1.3z"/><path fill="#9D9BAE" d="M274.4 216.2c2.7-.7 5.8-1.2 9.6-1.9 1.4-.3 2.2-.3 3-.2l1.2 1.7v.5c-4.4.1-9 0-13.8-.1"/><path fill="#416086" d="m137.6 113.2 1 14.3c0 1 0 1.7-.3 2.6-.5-5.3-.6-11-.7-17z"/><path fill="#AAAEC4" d="M139.7 112.9c-.4.2-.7.1-1.2 0-.5-1.5-.5-2.8-.4-4.8V107s0-.3.5-.4l2.5.4.2.3.5.8s.2.1.1.4l-.7 2.6-1.5 1.9z"/><path fill="#92A3C3" d="M102.6 213c.4.5.4 1 .5 1.8v1.9c-.5.3-1 .3-1.9.4.1-1.3.6-2.6 1.4-4z"/><path fill="#44625A" d="m286.2 181.7-.1-1.4c.6-.1 1.2.2 1.8.7 0 .3 0 .6-.2.9-.6 0-1 0-1.5-.2"/><path fill="#778B9E" d="m141 106.8-2.3-.4c-.4-.4-.4-.7-.1-1.2a5 5 0 0 1 2.2 1c.3.3.3.6.3.6z"/><path fill="#44625A" d="M138.7 179.5c-.5.3-1.2.3-2.3.2.5-.2 1.3-.2 2.3-.2"/><path fill="#416086" d="M137.9 107c.2.1.2.3.2.8-.2.1-.4 0-.4-.3z"/><path fill="#44625A" d="M143.8 179.5c0 .2-.3.3-.5.2-.1-.3.1-.4.5-.2"/><path fill="#778B9E" d="M267.8 104.5c1.5.8 2.8 1.9 4.2 3.3 0 .4 0 .3-.3.2l-1.9-.1c-2 .9-4 1.5-5.3 2.8-4 4.3-7.8 8.8-12 13.3-2.8 3.5-5.1 6.8-7.5 10.1l-2.5 3.3c-.4.1-.7.1-1.5-.1-1-1-1.6-1.8-2.2-2.7l.1-.8c0-1.2.1-2 .5-2.8 1.4-.7 2.7-1.3 3.6-2.2 5.2-5 10.4-10.2 15.5-15.5 1.4-1.5 2.4-3.4 4-5.2l3.3-2z"/><path fill="#DFE2F2" d="M252.7 124c4-4.5 7.8-9 11.8-13.3 1.3-1.3 3.3-2 5.3-2.5.4.5.4.7.4 1-5 5.4-10 11-15.5 16.5a6 6 0 0 1-2-1.8z"/><path fill="#AAAEC4" d="M252.4 124c.8.5 1.3 1.1 2 1.9a93 93 0 0 1-9 8.2c2-3.3 4.3-6.6 7-10zm18.1-14.8c-.3-.3-.3-.5-.3-1 .4-.3.8-.3 1.5-.2 0 .4-.5.8-1.2 1.2"/><path fill="#C3CADF" d="m136.8 145.5-.2 1.2a80.3 80.3 0 0 1 0 13.6c-1 3-1.5 5-2.2 6.8-.1-7.6-.1-14.7.2-21.8z"/><path fill="#9D9BAE" d="M149.4 141c-4 .2-7.5.4-11.4.9l-1.3 1.6c-1.2-.8-2-1.7-2.7-2.7.3-.4.5-.9 1.3-1.3l4.6-.7c4.3-.3 8.4-.4 12.4-.5l-.3 1.3c-.8.6-1.6.9-2.6 1.3z"/><path fill="#CAB09F" d="M134.5 167.6c.6-2.2 1.1-4.4 2-6.8.4 1.6.5 3.4.6 5.7-.6 2.5-1 4.6-2.1 6.6a7.3 7.3 0 0 1-1.9-3.4zm-.8-26.6 2.9 2.7c.3.3.3.6.3 1.4-.7.4-1.4.3-2.7.1l-1.6-.2c-.2 0-.5 0-.8-.4l-.8-1c.8-.9 1.5-1.7 2.7-2.7zm3.1 9.9c-.1-1-.3-2.3-.2-4 .2 1 .3 2.3.2 4"/><path fill="#416086" d="M265.4 106c-.6.7-1.6 1.4-3.3 2.2l-9.6-.2h-93l-17.5.1-.2-.3c-.2-.5-.3-.6-.6-.7l-.1-.2v-.5c1-.2 1.9-.5 2.9-.5z"/><path fill="#CAB09F" d="M135.2 290c-.7.2-1.1.2-2-.2-1.3-.5-2-.7-2.8-1.4 0-9.7.1-19 .3-28.6l-.4-7.1v-14l-.5-22.2c.6-.5 1.1-1 2.3-1.5l4.8-.6 17 .6-9 1c-2 .2-4.2.3-7 1-.5 12.4-.5 24.2-.5 36.3v12l-.1 6.2-1 15.5c-.2 1-.5 1.9-1 3m-2.2-63.3v44h.5v-50.3h-.5z"/><path fill="#778B9E" d="M154.2 215c-5.8-.2-11.3-.4-17.1-1-.2-.8-.1-1.3 0-2 0-.1 0-.5.4-.6 1.4 0 2.4 0 3.5.2a3221 3221 0 0 1 41.4-.5h57l18.1.1h25.2c.5.3.9.3 1.5.5l2.7 2.2-2.6.3-126-.1c-.8 0-1.6.2-2.8.6-.6.2-.8.2-1.3.2z"/><path fill="#356970" d="M137.5 253c0-11.8 0-23.6.2-35.7 1 0 1.7.4 2.5.6 9 2.3 9.7 3.4 8.6 12.6-.7 6.9-1.1 13.8-2 21.1-3.4.7-6.4 1-9.3 1.3z"/><path fill="#387259" d="M137.4 253.3c3-.7 6-1 9.3-1.3.7 10.7 1.7 21.3 1.3 32-.2 5.4-3.1 6.4-8.9 3.8-.1-2.6 0-4.6-.2-6.5-.3-3.4-1-6.8-1.5-10.2 0-1.8-.1-3.6.2-6 .1-1.7 0-2.8-.2-4z"/><path fill="#356970" d="M137.3 271.5c.6 3 1.3 6.4 1.6 9.8.3 1.9.1 3.9.1 6.3-.7.2-1.4-.1-2.4-.5 0-5.1.3-10.1.7-15.6"/><path fill="#AAAEC4" d="M287 214.1c-1-.9-1.8-1.6-2.7-2.8.2-2.5.4-4.4.9-6.7.5-6.6.9-12.8 1.6-19 1 2 2 3.7 2.1 5.4.3 5.6.1 11.2.2 16.8 0 .7.7 1.5 1 2.2l1 1.9c-.7 1.3-1.5 2.4-2.6 3.7-.7-.3-1-.8-1.5-1.5"/><path fill="#92A3C3" d="M238.7 134.7a25 25 0 0 1 1.9 2.6c-.6.4-1.2.5-2.6.4-3.2-.4-5.7-.8-8.1-.8h-91l1.7-3c.3 0 .4.2.7.4 1.3.4 2.3.7 3.3.7 31.4 0 62.8-.2 94.1-.3"/><path fill="#8B7E8B" d="M139 137h90.9c2.4 0 4.9.3 7.7.8-9 .3-18.4.3-28.6.3h-32.2a13979 13979 0 0 0-37 .3c-.6-.6-.7-1-.8-1.4"/><path fill="#356970" d="M136 185c-.8-.5-1.7-1-2.3-1.7 20.2-.4 40.3-.4 60.3-.5 14.7 0 29.4.2 44.5.6.4.7.4 1 0 1.5l-18 .2h-44l-37.8.1H136v-.3z"/><path fill="#92A3C3" d="M193.6 182.6c-19.6.3-39.7.3-60.2.5-1.3-.2-2.1-.6-3.3-1 1.4-.5 3.2-.8 5.4-1.2 10.8 0 21.2-.1 31.6.1 8.7.3 17.4 1 26.5 1.6"/><path fill="#416086" d="M238.9 184.8v-1.4l45.8-1c.5-.4.7-.4 1.2 0 .2 1.1.2 2-.3 2.7l-13.1.1h-27z"/><path fill="#9D9BAE" d="M252.1 181.8h-48.8v-.6l48.4.1c.4.2.4.5.4.5"/><path fill="#778B9E" d="M252.6 181.8c-.5 0-.5-.3-.4-.4 0-.2.4-.3.7-.3 10.3.1 20.4.3 30.8.7-10 .2-20.3.1-31.1 0"/><path fill="#CAB09F" d="M278.5 105.6c-.7.4-1.3.5-2.4.5.1-.4.8-.8 1.8-1.3.4.1.5.3.6.8"/><path fill="#DFE2F2" d="M103.8 145c.3-.2.7 0 .8.4.3.8.3 1.2.4 2l.1 9v5c.4 1.2.6 2.7 1.2 2.9 4.2 1.4 8.5 2.9 13 3.6 3.3.6 6.9.2 10.5.5-.3.9-.7 1.5-1.4 2.2h-8.9l-2.8-.1-2-.2-1 .2-1.5.2-8.8-.8c0-8.3 0-16.4.4-24.8z"/><path fill="#647E92" d="M117 170.6h4.1l1.7.1h5.7l2.5 2.1-3 .3h-21l-.1-.7a63 63 0 0 0 5-1.5 3 3 0 0 1 1.9-.2l1.6.5 1.7-.6z"/><path fill="#9D9BAE" d="M128 173.3c.8-.3 1.6-.3 3-.5a43 43 0 0 1-2-2c.1-.9.5-1.5 1-2.7 0-.8.1-1 .3-1.5l1.4-5.3 1.2 8.4 1.8 3.8c0 .5-.3.8-.8 1.2l-5.7-.1c-.3-.4-.3-.7-.3-1.3z"/><path fill="#FDFEFE" d="m182 211-38 .3h-3l-3.7-.1c-1.2-.5-1.7-.9-2.3-1.2v-8.1c0-2.3.2-4.6.8-7.4 2.5.6 4.5 1.8 6.7 2.4 11.1 3 22.4 5.8 33.5 9.1 2.3.7 4 3.3 6 5"/><path fill="#F3F7FD" d="M182.5 211.1c-2.5-1.8-4.2-4.4-6.5-5-11.1-3.4-22.4-6.1-33.5-9.2-2.2-.6-4.2-1.8-6.7-2.8-.3-2.4-.3-4.7-.2-7.5.2-.4.5-.4.7-.1 1.6 1.6 2.7 3.7 4.3 4.1 9.6 3 19.4 5.4 29 8 9.8 2.6 19.7 5 29.3 7.8 2 .6 3.4 3 5.1 4.6z"/><path fill="#DFE2F2" d="M134.6 202c.4 1.1.5 2.3.5 3.7-.5-.1-.8-.6-1.1-1.3 0-1 .2-1.5.6-2.3zm1.5-15.8h-.4c-.4-.4-.3-.7.1-1.1.2-.2.3 0 .3.3z"/><path fill="#AAAEC4" d="M105.2 155.9c-.1-2.7-.2-5.3.1-8.4l3.7-2.3c.5 0 .9 0 1.8.3 6.7 2.4 13 4.4 19.2 7 0 4.5 0 8.5-.3 12.5-.2 0-.7 0-.7-.4-.7-1-1.3-2.1-2-2.4z"/><path fill="#778B9E" d="M141 132.2c.2-4.3.4-8.3 1-12.5 1.2 4 3.8 6.2 8.2 6.5 3.6.3 7.3 1 10.6 2.2 2.7 1 4.8 3.4 6.8 5.2a192 192 0 0 1-13.7 0l-1.4.2c-4.1 0-7.8.2-11.5.3 0 0 0-.3-.2-.4l.1-1.5z"/><path fill="#92A3C3" d="M130 152c-6.2-2-12.5-4.1-18.9-6.5 5.5-.4 11.2-.6 17.5-.5 1 2.5 1.1 4.8 1.4 7"/><path fill="#778B9E" d="M130 152.5c-.3-2.7-.5-5-1-7.6.4-.7 1-1 1.8-1.2.4.1.6.3 1 1.4 0 5.8 0 10.8-.2 15.7a63 63 0 0 1-1.3 5.5l-.3-1.3z"/><path fill="#92A3C3" d="M138.6 137c.5.4.6.8.8 1.6-1.1.5-2.4.7-3.9.8.8-.9 1.8-1.7 3.1-2.4m-30 8.2q-1.05.9-3.3 1.8c-.4-.4-.4-.8-.5-1.5 1.2-.3 2.3-.4 3.8-.3"/><path fill="#B1F0CD" d="m130.7 260.2-.4 28.3c-.1.5-.3.6-.6.7l-1.4.2-25.3.6c0-9.8 0-19.5.5-29.7 4.2 3.1 8.7 3 13.4 2.7 2.1 0 4.3 1 6.3.7 2.3-.2 4.5-1.2 6.8-2z"/><path fill="#D4D8EB" d="M129.9 261.9c-2.2.6-4.4 1.6-6.7 1.8-2 .2-4.2-.8-6.3-.7-4.7.3-9.2.4-13.3-3.2a12 12 0 0 1 0-5.4c4.5 2.6 9.2 2.2 13.9 2.9 4.3.5 8.3 3 12.4 4.6"/><path fill="#DFE2F2" d="M130 261.7c-4.2-1.4-8.2-3.9-12.5-4.4-4.7-.7-9.4-.3-13.8-3.3-.5-1-.6-2.1-.7-3.6 0-.6.1-.7.8-1.1 2.7.7 4.8 2.3 7.1 2.6 6.4.7 13 .8 19.4 1.2l.4 6.7z"/><path fill="#778B9E" d="M102.8 290.1c8.5-.3 16.8-.5 25.6-.5.9-.1 1.2-.3 1.6-.5l.3-.2c.9.2 1.6.4 2.5 1-.9.7-2 1.9-3.1 1.9-9 0-17.8-.4-27-.6-.4-.5-.3-.7.1-1.1"/><path fill="#FDFEFE" d="M129.4 216.7c.6 7 .8 14.3.5 21.8-4.1-.3-7.9-1.3-11.6-1.4-5.2 0-10.2 0-14.7-3.1a168 168 0 0 1-.3-8.8l-.2-7.7c8.6-.5 17.2-.6 26.3-.8"/><path fill="#F3F7FD" d="M103.5 234.4c4.6 2.7 9.6 2.6 14.8 2.7 3.7 0 7.5 1.1 11.6 1.9.4 3.1.5 6.1 0 9.6-1.5.2-2.4 0-3.4-.2-7.8-1.5-16.7.7-23-6.4z"/><path fill="#E9EDF9" d="M103.5 242.4c6.3 6.7 15.2 4.5 23 6l3.3.6c.5 1.1.6 2.2.5 3.7-6.5 0-13-.1-19.4-.8-2.3-.3-4.4-1.9-7-2.9-.4-2-.5-4.1-.4-6.6"/><path fill="#B1F0CD" d="M103.2 225.4c.3 0 .3 0 .1.3v-.3z"/><path fill="#92A3C3" d="M105.3 215.4c1.4-1 3.1-2.3 4.8-2.2 4.1.2 8.2 1 12.7 1.8-5.5.4-11.4.6-17.5.4"/><path fill="#9D9BAE" d="m137.1 212.2-.5 1.8c-1.4.6-2.7.8-4.3 1a6 6 0 0 1 2.4-2.9z"/><path fill="#AAAEC4" d="M137.1 212H135c-.4-.5-.3-1 0-1.7.7 0 1.2.4 2 1 .2.2.3.6.2.7z"/><path fill="#D4D8EB" d="m286 185.1.2-2.8v-.5l1.5.3c1 2 2.2 4 2.3 6.2.2 6.9 0 13.8.1 21.2-.3-.2-1-1-1-1.7 0-5.6 0-11.2-.2-16.8 0-1.7-1.1-3.4-2.2-5.4l-.6-.5z"/><path fill="#647E92" d="M168 133.5c-2.4-1.7-4.5-4-7.2-5-3.3-1.4-7-2-10.6-2.3-4.4-.3-7-2.4-8.2-7-.4-2.7-.5-5-.7-7.8.1-1.2.4-2 .6-3 5.8-.3 11.5-.3 17.7 0 1.4 1.6 2.2 3.4 3.4 3.9 3.6 1.3 7.4 2.3 11.2 3.1l47.4 9.7c2.2.5 4.1 2.2 6.2 3.3 1.8.9 3.5 2 5.4 2.5 1.9.4 3.9.1 5.9.2 0 .7-.1 1.5-.4 2.6a1297 1297 0 0 0-30.3 0z"/><path fill="#778B9E" d="M141.3 107.2c.2 0 .3.1.5.6-.2 0-.3-.2-.5-.6"/><path fill="#57798E" d="M239.4 131c-2.3 0-4.3.3-6.2-.1-1.9-.5-3.6-1.6-5.4-2.5-2-1.1-4-2.8-6.2-3.3l-47.4-9.7c-3.8-.8-7.6-1.8-11.2-3.1-1.2-.5-2-2.3-3-3.9 30.8-.4 61.6-.4 92.5-.4l9.3.2c-.9 1.7-1.9 3.6-3.3 5.1-5.1 5.3-10.3 10.4-15.5 15.5-1 1-2.2 1.5-3.6 2.2"/><path fill="#D4D8EB" d="m238 133.9.7.2c.2 0 .1.4 0 .5-31.3.2-62.7.4-94.1.4-1 0-2-.3-3.3-.7a139 139 0 0 1 12.7-.6l2.9.1h1.1c3 0 6.1 0 9.6-.2a3289 3289 0 0 0 70.4.3"/><path fill="#9D9BAE" d="m132.8 145 1.1.2c.4 7.2.4 14.3.5 21.9a6.6 6.6 0 0 1-1.3 2.6c-.2 0-.2 0-.2-.4V145z"/><path fill="#B9C2D9" d="M132.6 145c.2 8 .2 16 .3 24.3l-1.2-8c0-5.4.1-10.4.3-15.9 0-.4.4-.4.6-.4"/><path fill="#8B7E8B" d="M133.1 226.3v-6h.5v50.4h-.5z"/><path fill="#356970" d="M137.3 261.5c.3.8.4 2 .4 3.3-.3-1-.4-2-.4-3.3"/><path fill="#C3CADF" d="M193 185.2c9 0 18-.1 27.5.3 1.8 1.5 3 3 4.4 3.4 4.3 1 8.7 1.4 13 2.5 15.7 4.1 31.3 8.4 47 12.9l.1.6c-.3 2-.5 4-1 6.3-.4.3-.8.3-1.7-.1l-12.4-1.5c-2.2-1.4-4-2.8-6.2-3.4-4.8-1.3-9.7-2.1-14.5-3.4-17.7-4.5-35.4-9.2-53.1-14-1.3-.4-2.1-2.4-3.1-3.6"/><path fill="#DFE2F2" d="M139 185.3c12.4-.1 24.7-.2 37.5.2 1.1 1.4 1.6 2.8 2.4 3.1 6.7 2.3 13.3 4.6 20.1 6.4 15.4 4.1 30.9 7.8 46.3 11.9 4 1 7.8 2.8 11.7 4.3-5.7 0-11.4 0-17.7-.4-6.9-1.9-13-3.3-19.2-4.9l-49.6-13c-2.8-.8-5.8-2-8.6-1.8-8.3.5-15.5-3-22.9-5.8"/><path fill="#E9EDF9" d="M138.7 185.2c7.7 3 14.9 6.4 23.2 6 2.8-.2 5.8 1 8.6 1.7l49.6 13c6.1 1.6 12.3 3 18.7 4.8-11.2.4-22.6.5-34.4.4-2-1.7-3.5-4.1-5.5-4.7-9.6-2.9-19.5-5.2-29.2-7.8s-19.5-5-29-8c-1.7-.4-2.8-2.5-4.4-4.1l-.3-1c.8-.3 1.5-.3 2.7-.3"/><path fill="#D4D8EB" d="M257.5 211.2c-4.4-1.5-8.2-3.2-12.2-4.3-15.4-4-30.9-7.8-46.3-11.9-6.8-1.8-13.4-4.1-20.1-6.4-.8-.3-1.3-1.7-1.9-3 5-.5 10-.5 15.5-.5 1.5 1.3 2.3 3.3 3.6 3.7 17.7 4.8 35.4 9.5 53 14 4.9 1.3 9.8 2 14.6 3.4 2.1.6 4 2 6.2 3.7v1.2c-4 0-8 .2-12.4.1"/><path fill="#DFE2F2" d="M270.4 211.2c-.4-.3-.4-.5-.4-1 3.9 0 7.8.3 12 .7-3.4.3-7.2.3-11.6.3"/><path fill="#9D9BAE" d="M141 211.6c.7-.3 1.5-.3 2.7-.3-.6.3-1.6.4-2.7.3"/><path fill="#92A3C3" d="M285.2 204.6c-.2.3-.3-.1-.3-.8v-6.1c.3-5.2-.4-9-6.7-9-1.8-.1-3.5-2.3-5.2-3.4l12.6-.2c.5 0 .7.2.8.3z"/><path fill="#B9C2D9" d="M284.9 198.1v5.5c-15.7-3.8-31.3-8-47-12.2-4.3-1-8.7-1.4-13-2.5-1.5-.4-2.6-2-3.9-3.3 5.6-.5 11.3-.6 17.4-.7 2.5 0 4.6.2 7.1.7 1.8 1.5 2.9 3.2 4.4 3.6 11.6 3.1 23.3 6 35 9z"/><path fill="#AAAEC4" d="M285 197.7a719 719 0 0 1-35.1-8.5c-1.5-.4-2.6-2-4-3.5 8.7-.4 17.4-.5 26.6-.5 2.2 1.2 4 3.4 5.7 3.4 6.3 0 7 3.9 6.7 9z"/><path fill="#B9C2D9" d="M105.1 156.3c7.3 1.7 14.6 3.7 21.8 6 .8.2 1.4 1.3 1.6 2.3-8-1-15.7-2.3-23.4-3.6z"/><path fill="#C3CADF" d="M105.1 161.4c7.7 1 15.4 2.2 23.5 3.6h1.1c.3.4.4.8.5 1.6 0 .5-.2.7-.4 1.2-3.6.3-7.2.7-10.5.1-4.5-.7-8.8-2.2-13-3.6-.6-.2-.8-1.7-1.2-3z"/><path fill="#9D9BAE" d="M124.7 170.5c-.2.2-.8.3-1.6.3.3-.2.8-.3 1.6-.3m-8 0c-.1.3-.6.5-1.3.4-.3-.2-.4-.6-.4-.6.5 0 1 0 1.7.2m4.1.1-.8.1c.1-.1.3-.2.8-.1"/><path fill="#92A3C3" d="M114.7 170.3c.3 0 .4.4.4.6-.3.2-.6.1-1-.2 0-.2.2-.3.6-.4"/><path fill="#9D9BAE" d="M154 133.7h-.8c0-.1.3-.2.7 0zm4 0c-.1 0-.3.1-.8 0 0-.1.3-.2.7 0z"/><path fill="#AAAEC4" d="M129.7 289.2c0 .1-.4.3-.9.3z"/></svg>