<svg xmlns="http://www.w3.org/2000/svg" width="256" height="256" fill="none" viewBox="0 0 256 256"><rect width="256" height="256" fill="#1E1E1F" rx="128"/><g clip-path="url(#a)"><path fill="#fff" d="M89.626 138.925a2 2 0 0 0-.254.011c-.766.072-.98.33-.98 1.128q0 21.296.01 42.605c0 1.743-1.278 3.352-3.327 3.331-5.271-.058-10.543-.042-15.814-.009-2.077.013-3.25-1.201-3.252-3.215q-.01-21.625.013-43.251c0-2.032.883-3.008 3.039-3.027 4.332-.037 8.665 0 12.998-.019a3.96 3.96 0 0 0 2.504-.836c.854-.669 1.066-1.611 1.076-2.572q.056-5.202 0-10.401a3.2 3.2 0 0 0-.967-2.334 3.25 3.25 0 0 0-2.363-.931c-3.97.049-7.943.023-11.914.009a14 14 0 0 1-2.28-.162c-.89-.143-1.582-.63-1.823-1.56-.13-.519-.275-1.054-.276-1.581q-.025-10.043 0-20.084c0-.938.086-1.924.93-2.555.378-.285.864-.54 1.322-.571 1.574-.112 3.156-.143 4.736-.162 2.093-.024 4.187.01 6.282-.013a54 54 0 0 0 3.436-.142c.905-.072 1.6-.624 2.291-1.154.842-.646 1.678-1.298 2.527-1.934.937-.701 1.137-1.7 1.138-2.768q.009-7.101 0-14.201c0-1.328.987-2.309 2.343-2.31h14.008c27.628-.046 57.247-.163 84.898-.207a.57.57 0 0 1 .523.345.6.6 0 0 1 .043.215v1.403a.56.56 0 0 1-.564.56h-15.456a4.36 4.36 0 0 0-3.125 1.287c-4.641 4.612-9.275 9.239-13.947 13.827-1.388 1.365-2.878 2.63-4.354 3.903-.986.85-2.209 1.17-3.481 1.172q-22.243.021-44.484.016c-4.371 0-8.743.066-13.114.151-1.21.025-2.447.179-3.09 1.448-.174.343-.242.742-.337 1.12a2 2 0 0 0 0 .428l-.144 15.393c-.015 1.43-1.381 2.682-2.92 2.683-4.791 0-9.581 0-14.371.009a6 6 0 0 0-1.264.143c-.796.17-1.255.661-1.23 1.255.027.377.19.732.459.999.269.268.626.43 1.006.457.214.02.431 0 .65 0l108.84-.023c1.594-.02 3.039 1.442 3.022 2.97-.056 5.451-.022 10.903-.022 16.354 0 1.659-1.151 2.791-2.822 2.791z"/></g><defs><clipPath id="a"><path fill="#fff" d="M66 70h124.5v116H66z"/></clipPath></defs></svg>