<svg xmlns="http://www.w3.org/2000/svg" width="1200" height="1200"><path fill="none" d="M0 0h1200v1200H0V0Z"/><path d="M828.4 817.5h8.4a2163.2 2163.2 0 0 0 17.6 0h14.1a9009.4 9009.4 0 0 1 59 .1l83.8.1 188.7.3v382H818l-.2-188.8-.2-59.6v-35.2a10114 10114 0 0 0 0-77.3 487.6 487.6 0 0 0 0-10.7l-.1-3.5c.5-2.9.5-2.9 2.1-5.3 3.1-2.1 5-2.1 8.8-2Zm-411.1 0h4a8892.2 8892.2 0 0 1 21.7 0h13.7a8290.7 8290.7 0 0 1 58 0 33932.3 33932.3 0 0 1 110 0 44737.6 44737.6 0 0 1 65.1 0h3.1a17605.8 17605.8 0 0 0 85 .1h3.3c2.8.4 2.8.4 4.7 1.5 1.6 2.8 1.5 5 1.5 8.2v8.4a2894.6 2894.6 0 0 0 0 17.7v14.1a12088.6 12088.6 0 0 1-.1 59.3l-.1 83.9-.2 189.3H407l-.2-188.8-.2-59.6v-35.2a10114 10114 0 0 0 0-77.3 487.6 487.6 0 0 0 0-10.7l-.1-3.5c.5-2.9.5-2.9 2.1-5.3 3.1-2 5-2.1 8.7-2.1Zm411.1-411h8.4a2163.2 2163.2 0 0 0 17.6 0h14.1a9009.4 9009.4 0 0 1 59 .1l83.8.1 188.7.3v380l-189.3.2h-95.2a13573.9 13573.9 0 0 0-88.2.2h-3.5c-2.8-.4-2.8-.4-4.7-1.5-1.6-2.8-1.5-5-1.5-8v-4a11762.6 11762.6 0 0 1 0-21.7v-13.7a10700.4 10700.4 0 0 1 0-48.7v-3.1a959038 959038 0 0 0-.1-269.4V414c.5-2.9.5-2.9 2.1-5.3 3.1-2.1 5-2.1 8.8-2ZM0 818l186.3-.2H280a13146.7 13146.7 0 0 0 86.8-.2h3.4c2.8.4 2.8.4 4.7 1.5 1.6 2.8 1.5 5 1.5 8.2v8.4a2910.5 2910.5 0 0 0 0 17.7v14a10568.3 10568.3 0 0 1-.1 59 49178 49178 0 0 1-.1 111.8v30.3L376 1200H0V818ZM407 0h380l.1 186.3V280a19720 19720 0 0 0 .1 90.2c-.2 2.8-.2 2.8-2.2 5.8-2.6.4-2.6.4-6 .4h-4a12054 12054 0 0 1-21.9 0h-13.8a11032.6 11032.6 0 0 1-49 0h-3a498055.4 498055.4 0 0 0-182.5 0h-3.2a16625.2 16625.2 0 0 0-85.4 0h-3.4c-2.8-.4-2.8-.4-4.7-1.5-1.6-2.8-1.5-5-1.5-8v-4a12037.3 12037.3 0 0 1 0-21.8v-13.9a11708.3 11708.3 0 0 1 .1-58.3l.1-82.6L407 0Z"/></svg>
