<svg xmlns="http://www.w3.org/2000/svg" width="1200" height="1200"><path fill="none" d="M0 0h1200v1200H0z"/><path d="M828.4 817.5h8.4a2163 2163 0 0 0 17.6 0h14.1a9009 9009 0 0 1 59 .1l83.8.1 188.7.3v382H818l-.2-188.8-.2-59.6v-35.2a10114 10114 0 0 0 0-77.3 488 488 0 0 0 0-10.7l-.1-3.5c.5-2.9.5-2.9 2.1-5.3 3.1-2.1 5-2.1 8.8-2Zm-411.1 0h4a8892 8892 0 0 1 21.7 0h13.7a8291 8291 0 0 1 58 0 33932 33932 0 0 1 110 0 44738 44738 0 0 1 65.1 0h3.1a17606 17606 0 0 0 85 .1h3.3c2.8.4 2.8.4 4.7 1.5 1.6 2.8 1.5 5 1.5 8.2v8.4a2895 2895 0 0 0 0 17.7v14.1a12089 12089 0 0 1-.1 59.3l-.1 83.9-.2 189.3H407l-.2-188.8-.2-59.6v-35.2a10114 10114 0 0 0 0-77.3 488 488 0 0 0 0-10.7l-.1-3.5c.5-2.9.5-2.9 2.1-5.3 3.1-2 5-2.1 8.7-2.1m411.1-411h8.4a2163 2163 0 0 0 17.6 0h14.1a9009 9009 0 0 1 59 .1l83.8.1 188.7.3v380l-189.3.2h-95.2a13574 13574 0 0 0-88.2.2h-3.5c-2.8-.4-2.8-.4-4.7-1.5-1.6-2.8-1.5-5-1.5-8v-4a11763 11763 0 0 1 0-21.7v-13.7a10700 10700 0 0 1 0-48.7v-3.1a959038 959038 0 0 0-.1-269.4V414c.5-2.9.5-2.9 2.1-5.3 3.1-2.1 5-2.1 8.8-2ZM0 818l186.3-.2H280a13147 13147 0 0 0 86.8-.2h3.4c2.8.4 2.8.4 4.7 1.5 1.6 2.8 1.5 5 1.5 8.2v8.4a2911 2911 0 0 0 0 17.7v14a10568 10568 0 0 1-.1 59 49178 49178 0 0 1-.1 111.8v30.3L376 1200H0zM407 0h380l.1 186.3V280a19720 19720 0 0 0 .1 90.2c-.2 2.8-.2 2.8-2.2 5.8-2.6.4-2.6.4-6 .4h-4a12054 12054 0 0 1-21.9 0h-13.8a11033 11033 0 0 1-49 0h-3a498055 498055 0 0 0-182.5 0h-3.2a16625 16625 0 0 0-85.4 0h-3.4c-2.8-.4-2.8-.4-4.7-1.5-1.6-2.8-1.5-5-1.5-8v-4a12037 12037 0 0 1 0-21.8v-13.9a11708 11708 0 0 1 .1-58.3l.1-82.6z"/></svg>