<svg xmlns="http://www.w3.org/2000/svg" xml:space="preserve" viewBox="0 0 512 512"><path d="M282 513H1V1.1h511.8V513zm-57.3-404.6c-14.6 0-29.1-.2-44.6-.6a89 89 0 0 0-89.8 58.8c-7-21.7-14-43.3-21.2-65-1.2-3.5-1.1-5.7 2.3-8.3a22.3 22.3 0 0 0 7-26.4 23.4 23.4 0 0 0-22.9-14.5c-10.8 1-19 8.2-21.2 18.8-2 9.5 2.8 19.8 12.2 24.5 4 2 5 4.3 4.9 8.4V260c0 2 .3 4.6 1.5 6 6.5 8.2 14 15 24.6 17.7 2.7.7 5.4 1.8 8 3.6v30.1c0 2.8.5 5.5.2 9-2.9 63.4 23.3 111.6 76.6 146.3a180.4 180.4 0 0 0 131 22.8 169 169 0 0 0 59.5-23.5c50.9-33.5 77.2-80.3 75.9-141.8 0-1.4-.7-2.8-.7-5 .1-13 .3-25.8 1.1-39 11-3.6 21.7-7.1 29.3-16.8 2.7-3.5 4.4-6.6 4.4-11.1-.1-51.4 0-102.9-.2-154.3 0-3.9.7-6.2 4.6-8.1 7.5-3.6 12-10 12.8-18.4a23 23 0 0 0-43.5-12.6 22.5 22.5 0 0 0 6.3 28.7c2.8 2.2 3.4 4 2.3 7.5-4.3 12.7-8.2 25.6-12.4 38.4a427 427 0 0 1-10 26.9 88 88 0 0 0-90.6-58.4c-7 0-14-.2-20.9 0-2.2.2-5 1.2-6.5 2.7-5.6 5.4-10.8 11.2-16.7 17.2-7.6 7.2-15.3 14.4-22.8 21.7-4.4 4.3-8.4 9-12.7 13.4-8 8.2-22 6.3-24.6-3.6-1-3.7 0-8.2 1.2-12 3.8-12.4 8.1-24.7 12.2-37 .2-.5 0-1.2 0-1.6-5.3 0-10.5 0-16.6-.3m-3-45.2-31 31.7H261l-19 57 76.4-77H250l19-57.7-1-.7-46.3 46.5z"/><path fill="#CBCBCB" d="M428.5 286.3c-.2 13-.4 25.9-1 39.1-5.1 4.1-9.9 7.7-14.5 11.6l-57.4 48a10.6 10.6 0 0 0-3.4 7.1c-.2 26.7-.1 53.3 0 80a163.5 163.5 0 0 1-59 23.3c-46.4 9-90.1 1.5-131-23.5-.2-26.7-.4-52.7-.2-78.6 0-4-1.3-6.6-4.2-9L102 337.8c-5-4.2-10.4-8-15.6-12.1-.3-2.8-.8-5.5-.8-8.3l.1-31c.1-28.2.4-55.4 0-82.7 0-12.5 1.4-24.7 5.4-36.7 14.6-38.9 47.1-60.5 89.6-58.5.5 40.1.5 79.7 0 119.3l-37 .2c-16.6 0-24.3 7.8-24.3 24.5V306c.2 16 8.1 23.8 24.2 23.8H373c9.6-.1 17.4-5 20-13a42 42 0 0 0 1.6-12.3c.2-17.3 0-34.6.1-52 .1-16.5-7.7-24.5-24.3-24.6-12.5 0-25-.1-37.5-.7v-119c39-3.9 75.4 19.6 90 59 1.5 5.6 3.5 10.5 4 15.5a268 268 0 0 1 1.2 25.9l.4 77.8M311.2 406c.6-.5 1.6-1 1.6-1.5l.1-24.7H201.2v26.3h110z"/><path fill="#FEFEFE" d="M181 227.6v-119c14.6-.4 29.1-.3 44 .3.3 25.7.4 50.8.1 76-.1 10.3 4.6 17.5 13.8 20.9a49.9 49.9 0 0 0 37-.4c7.4-3 12.7-8.8 12.8-17 .3-20.3 0-40.6-.1-61 5.3-5.6 10.5-11.4 16-16.8 1.6-1.5 4.4-2.5 6.6-2.6 7-.3 14-.1 21.3 0 .4 39.6.4 79.2 0 119.2-50 .6-99.5.6-149 .6l-2.4-.2z"/><path fill="#747474" d="M90.6 166.8a121.2 121.2 0 0 0-5 36.8c.4 27.3.1 54.5 0 82.3-2.7-.5-5.4-1.6-8-2.3A46.5 46.5 0 0 1 52.8 266c-1.2-1.4-1.5-4-1.5-6V104.1c0-4.1-.9-6.5-4.9-8.4a22.3 22.3 0 0 1-12.2-24.5 23.4 23.4 0 0 1 21.2-18.8c9.4-1 19 5.2 23 14.5a22.3 22.3 0 0 1-7 26.4c-3.5 2.6-3.6 4.8-2.4 8.4l21.5 65zm338.2 119.4c-.4-25.8-.5-51.8-.7-77.7 0-8.6-.3-17.3-1.2-25.9-.5-5-2.5-10-3.9-15.3 3.3-9.5 6.6-18.7 9.7-28 4.2-12.7 8-25.6 12.4-38.3 1.1-3.5.5-5.3-2.3-7.5a22.5 22.5 0 0 1-6.3-28.7A23 23 0 0 1 480 77.4a21.5 21.5 0 0 1-12.8 18.4c-3.9 1.9-4.6 4.2-4.6 8 .1 51.5 0 103 .2 154.4 0 4.5-1.7 7.6-4.4 11-7.6 9.8-18.4 13.3-29.6 17"/><path fill="#757575" d="M86 326a176 176 0 0 1 16 11.7l55.8 46.7c3 2.3 4.3 5 4.2 8.9-.2 26 0 51.9 0 78.3C109 438 82.7 389.7 86 326m266.4 146c-.3-26.6-.4-53.2-.2-79.9 0-2.4 1.6-5.5 3.4-7 19-16.2 38.3-32.2 57.4-48.1 4.6-3.9 9.4-7.5 14.4-11.1.6 1.4 1.2 2.8 1.3 4.2 1.3 61.5-25 108.3-76.3 142z"/><path fill="#F9C539" d="m222 63 46-46.3 1 .7L250 75h68.4L242 151.8 261 95h-70.2z"/><path fill="#EE3B1A" d="M288.3 127.6c.4 20.2.7 40.5.4 60.8-.1 8.2-5.4 14-12.7 17a49.9 49.9 0 0 1-37 .4c-9.3-3.4-14-10.6-13.9-21 .3-25 .2-50.2.4-75.7 5.3-.4 10.5-.4 15.8-.4 0 .4.2 1 0 1.6-4 12.3-8.4 24.6-12.2 37a23.7 23.7 0 0 0-1.2 12c2.6 10 16.5 11.8 24.6 3.6 4.3-4.3 8.3-9 12.7-13.4 7.5-7.3 15.2-14.5 23-21.9z"/><path fill="#020202" d="m180.6 227.7 3 .1 148.9-.1 38 .1c16.5.1 24.3 8 24.2 24.7v52a42 42 0 0 1-1.7 12.2c-2.6 8-10.4 12.9-20 13H143.4c-16 0-24-7.8-24.1-23.8a7043 7043 0 0 1-.1-53.5c0-16.7 7.7-24.5 24.3-24.5 12.2 0 24.4 0 37-.2m-26 78.2c10 13.9 25 13.7 34-1 9.3-15.4 9.3-31.9 2.3-48.2-3.7-8.4-9.6-15.3-19.8-15.2-10.3.2-16 7.3-19.7 16a51.5 51.5 0 0 0 3.1 48.4m176.2-59.7c-10.1 9.5-12.7 22-12.2 35.1.3 10 2.8 19.5 9.5 27.3 8.5 9.7 20.5 9.8 29 .4 13.5-14.8 13.3-46.2-.3-60.8-7.5-8-16.3-9-26-2"/><path fill="#030303" d="M310.7 406H201.2v-26.2H313v24.7c0 .5-1.1 1-2.2 1.5z"/><path fill="#30D0F5" d="M154.3 305.6a51.4 51.4 0 0 1-2.9-48.2c3.6-8.6 9.4-15.7 19.7-15.9 10.2-.1 16.1 6.8 19.8 15.2 7 16.3 7 32.8-2.4 48.3-8.9 14.6-23.9 14.8-34.2.6M331 246c9.4-6.7 18.2-5.9 25.7 2.2 13.6 14.6 13.8 46 .4 60.8-8.6 9.4-20.6 9.3-29-.4a42.2 42.2 0 0 1-9.6-27.3c-.5-13.2 2-25.6 12.5-35.4z"/></svg>