<svg xmlns="http://www.w3.org/2000/svg" width="400" height="400" fill="none" viewBox="0 0 400 400"><path fill="#DC2626" d="M0 0h400v400H0z"/><path fill="#FFFDF7" d="m336.798 195.561-41.39-13.996c-15.211-5.118-26.498-17.995-29.701-33.67l-17.452-86.136c-.481-2.16-2.402-3.759-4.644-3.759s-4.162 1.6-4.643 3.759l-17.452 86.136c-3.202 15.675-14.491 28.552-29.701 33.67l-41.39 13.996c-1.921.64-3.202 2.48-3.202 4.479s1.281 3.839 3.202 4.479l41.39 13.996c15.21 5.118 26.499 17.995 29.701 33.67l17.452 86.056c.481 2.159 2.402 3.759 4.643 3.759 2.242 0 4.163-1.6 4.644-3.759l17.452-86.056c3.203-15.675 14.49-28.552 29.701-33.67l41.39-13.996c1.921-.64 3.202-2.48 3.202-4.479s-1.281-3.839-3.202-4.479m-222.399-78.938 14.571 4.959c5.363 1.84 9.366 6.318 10.487 11.917l6.164 30.391c.161.8.801 1.36 1.602 1.36.8 0 1.441-.56 1.601-1.36l6.164-30.391c1.121-5.519 5.124-10.077 10.488-11.917l14.57-4.959c.64-.239 1.121-.879 1.121-1.599s-.481-1.36-1.121-1.6l-14.57-4.958c-5.364-1.84-9.367-6.318-10.488-11.917l-6.164-30.391c-.16-.8-.801-1.36-1.601-1.36-.801 0-1.441.56-1.602 1.36l-6.164 30.391c-1.121 5.519-5.124 10.077-10.487 11.917l-14.571 4.958c-.64.24-1.121.88-1.121 1.6s.481 1.36 1.121 1.599m34.025 149.318-19.534-6.638c-7.205-2.399-12.569-8.477-14.01-15.915l-8.246-40.709c-.24-1.039-1.121-1.759-2.162-1.759s-2.001.72-2.161 1.759l-8.246 40.709c-1.521 7.438-6.885 13.516-14.01 15.915l-19.534 6.638c-.88.32-1.521 1.12-1.521 2.08s.64 1.839 1.521 2.079l19.534 6.638c7.205 2.4 12.569 8.478 14.01 15.916l8.246 40.708c.24 1.04 1.121 1.76 2.161 1.76s2.002-.72 2.162-1.76l8.246-40.708c1.521-7.438 6.885-13.516 14.01-15.916l19.534-6.638c.88-.32 1.521-1.119 1.521-2.079s-.641-1.84-1.521-2.08"/></svg>