<svg width="500" height="500" viewBox="0 0 500 500" fill="none" xmlns="http://www.w3.org/2000/svg">
<rect width="500" height="500" rx="50" fill="black"/>
<path fill-rule="evenodd" clip-rule="evenodd" d="M205.516 226.656C210.64 237.635 202.832 250.811 190.145 250.811C182.825 250.811 173.31 244.955 173.31 233.732C173.31 209.821 166.234 198.353 158.182 195.181C158.182 243.491 125 261.302 125 316.2C125 371.097 157.694 413.551 203.808 431.85C189.169 419.163 179.897 400.376 179.897 379.393C179.897 315.468 262.122 299.364 231.867 232.268C243.822 248.127 265.293 324.495 240.163 374.757C255.534 366.705 280.909 338.891 290.424 324.495C278.225 391.348 292.62 386.224 305.551 381.345C310.431 379.393 315.311 377.441 318.239 379.637C323.851 383.296 308.967 419.407 294.328 432.094C340.442 414.039 373.136 369.145 373.136 316.444C373.136 199.329 226.987 193.473 267.245 67.0874C228.207 84.8986 167.942 144.676 205.516 226.656Z" fill="white"/>
</svg>
