<svg xmlns="http://www.w3.org/2000/svg" width="500" height="500" fill="none" viewBox="0 0 500 500"><rect width="500" height="500" fill="#000" rx="50"/><path fill="#fff" fill-rule="evenodd" d="M205.516 226.656c5.124 10.979-2.684 24.155-15.371 24.155-7.32 0-16.835-5.856-16.835-17.079 0-23.911-7.076-35.379-15.128-38.551 0 48.31-33.182 66.121-33.182 121.019 0 54.897 32.694 97.351 78.808 115.65-14.639-12.687-23.911-31.474-23.911-52.457 0-63.925 82.225-80.029 51.97-147.125 11.955 15.859 33.426 92.227 8.296 142.489 15.371-8.052 40.746-35.866 50.261-50.262-12.199 66.853 2.196 61.729 15.127 56.85 4.88-1.952 9.76-3.904 12.688-1.708 5.612 3.659-9.272 39.77-23.911 52.457 46.114-18.055 78.808-62.949 78.808-115.65 0-117.115-146.149-122.971-105.891-249.357-39.038 17.812-99.303 77.589-61.729 159.569" clip-rule="evenodd"/></svg>