<svg xmlns="http://www.w3.org/2000/svg" viewBox="0 0 1366 1366"><defs><style>.cls-1{fill:#fff}.cls-2{fill:#f7931a}</style></defs><g id="Layer_1"><g id="Layer_1-3"><path id="Layer_1-2-2" d="M1282.3 1010.3A683 683 0 1 1 83.6 355.7a683 683 0 0 1 1198.7 654.6" class="cls-2"/></g><g id="Layer_1-4"><path d="M913.1 571.2q16.9-91.6-26.6-157.6t-136.9-99.4l14.8-56.8-56.8-14.8-14.6 55.9a380 380 0 0 0-96-7.9q-45 2.4-81.2 18.7a177 177 0 0 0-62.4 47.4 190 190 0 0 0-38.2 76.5q-13.3 51.1-3.4 88.6a163 163 0 0 0 35.3 66.3q25.3 28.8 62.2 52.1c36.9 23.3 50.6 30.2 78 44.1q.8 1.2 4.5 2.2l-47 179.9q-53.4-20-74.1-53.2t-14.2-85.1l-128.8-33.6q-22.4 97.4 26.4 168.2 48.7 71 163.2 108.9L496 1053l56.8 14.8 21-80.5a363 363 0 0 0 97.2 7.2 229 229 0 0 0 22.4-2.5l86.2-149.3h79.7q12.9-49.8 3.8-87.9a166 166 0 0 0-34.6-68.7q-25.5-30.3-63.3-53.9c-37.8-23.6-52.2-30.7-80.8-44.9q-3.7-.9-5.4-2.4l42.8-163.8a128 128 0 0 1 52.6 46.6q18.6 29.6 12.9 70.6l125.9 32.9zm-352.4-62.1q-18.9-22.6-10.2-55.8a63 63 0 0 1 38.3-44.1q30.2-12.7 76.8-5.7l-40.3 154.3q-45.7-26-64.6-48.7m149.7 255.5q21.5 24.3 12.1 60.3h-.2a70 70 0 0 1-16.9 32 79 79 0 0 1-27.6 18.6q-15.7 6.4-35.4 7.9c-19.7 1.5-26.7.3-40.9-2.1l43.3-165.7q44.1 24.7 65.6 49" class="cls-1"/><path d="M950.4 862.6h-.1l.1-.1z" class="cls-2"/><path d="M1043 1000.5H932.2c-7.4 0-14-3.8-17.2-9.8v-.2a19 19 0 0 1 0-20.2l55.1-96.4 72.9 126.5Zm.1 23-72.9 126.6-55.6-96.4q-2.7-4.7-2.8-10.1c-.1-5.4.9-7 2.8-10.1 3.7-6.2 10.3-10 17.3-10zm-92.8-160.9-55.5 96.3c-3.7 6.2-10.3 10-17.3 10s-14-3.8-17.2-9.8l-29.6-50.9-26.5-45.6zm.1-.1v.1h-.1zm-.5 298.9H804.2l55.5-96.3a20 20 0 0 1 34.5-.2zM840.2 990.6a20 20 0 0 1-17.3 10H711.6l8.2-14.1L784.6 874l31 53.7 24.7 42.8a20 20 0 0 1 0 20.1zm-.1 63.1-55.6 96.4-72.9-126.6h111.3c7.4 0 14 3.8 17.2 9.8v.2a19 19 0 0 1 0 20.2" class="cls-1"/></g></g></svg>