<svg xmlns="http://www.w3.org/2000/svg" data-name="Layer 1" viewBox="0 0 1080 1080"><path d="M819.3 266.3A393.2 393.2 0 0 0 540 148.7 391.8 391.8 0 0 0 148.7 540 392 392 0 0 0 540 931.3 391.7 391.7 0 0 0 931.3 540a390 390 0 0 0-112-273.7m-553.9 483a348.6 348.6 0 0 1 109-515.1c2.8-1.5 5.6 2.2 3.2 4.4-9.8 9.2-19.2 19-28.1 29.6-62 72.5-97.8 171.2-98.1 270.7 0 129.3 86.4 268.8 226.1 268.8 124.7 0 226.1-120.6 226.1-268.8 0-69.6-23.3-136.5-63.2-186a2.3 2.3 0 0 1 2.4-3.7c67.4 20 117.8 97.4 117.8 189.7 0 81.5-29.6 162.6-81.1 222.6-53.5 62.1-125.2 96.4-202 96.4-80.8 0-158.2-39.6-212.1-108.5Zm555.4-420.6a348.6 348.6 0 0 1-109.1 514.8c-2.8 1.6-5.6-2.1-3.3-4.3 9.8-9.3 19.2-19.1 28.1-29.6 62-72.5 97.8-171.2 98.1-270.7 0-129.3-86.4-268.8-226.1-268.8-124.7 0-226 120.6-226 268.8 0 69.6 23.3 136.5 63.1 186a2.3 2.3 0 0 1-2.4 3.7c-67.4-20-117.8-97.4-117.8-189.7 0-81.4 29.6-162.5 81.1-222.5 53.5-62.1 125.2-96.4 202-96.4 80.9 0 158.2 39.7 212.3 108.7M662.8 539c0 92.4-45 172-109.2 207.8-8 4.4-17.8 3.9-25.1-1.5l-13.8-10c-56.4-41.2-91.4-116.4-91.4-196.3 0-92.3 44.9-172 109.1-207.8 8-4.4 17.8-3.8 25.2 1.5l13.7 10c56.4 41.2 91.4 116.4 91.4 196.4Z" style="fill:#0500e2"/></svg>