<svg xmlns="http://www.w3.org/2000/svg" viewBox="0 0 1536 1531"><path fill="#f3fbfc" fill-rule="evenodd" d="M741 241c-85 4-179 19-243 41-77 25-133 68-176 131-22 33-38 69-51 113-6 21-20 85-24 117a1044 1044 0 0 0 31 385 386 386 0 0 0 408 267 5781 5781 0 0 1 170-7c119-9 209-37 276-83 45-32 80-73 104-122 15-32 22-53 41-131a621 621 0 0 0 18-212l-1-87c-1-60-1-64-3-76a398 398 0 0 0-278-308c-38-13-79-21-122-26-30-2-109-4-150-2m39 24c-33 3-60 10-96 24-28 11-45 20-66 35-27 19-51 42-98 93-39 41-78 81-112 114a390 390 0 0 0-141 295c1 40 7 65 23 106l31 62c8 13 25 37 26 36l5-13c11-27 28-57 63-113a1168 1168 0 0 0 105-202c22-59 29-74 41-93 13-18 37-41 60-57 28-19 52-32 104-52a2413 2413 0 0 0 207-102 561 561 0 0 1 102-53 429 429 0 0 0-192-78c-15-2-48-3-62-2m257 135c-47 4-105 24-144 48a429 429 0 0 0-134 148c-31 50-49 74-72 97-17 16-28 24-69 45-40 20-47 24-70 43a345 345 0 0 0-144 285c2 19 8 35 16 45 11 12 40 19 71 16 17-1 52-6 69-10a320 320 0 0 0 189-114c17-21 35-49 53-84a311 311 0 0 1 113-122 868 868 0 0 0 132-101c44-41 67-81 76-128 8-38 12-92 9-113-1-10-6-24-11-31-11-18-44-28-84-24m154 117a453 453 0 0 1-44 75c-28 39-40 63-72 138a1606 1606 0 0 1-47 103c-40 92-77 133-148 165l-44 18a992 992 0 0 0-219 118c-43 31-66 45-89 54-7 3-8 2 11 12a680 680 0 0 0 149 65c56 15 123 5 192-30 49-25 87-57 168-142 37-40 61-64 84-84a413 413 0 0 0 141-252c5-38 3-68-7-98a1097 1097 0 0 0-75-142"/><path fill="#a1a8fc" fill-rule="evenodd" d="M719 1a769 769 0 0 0-62 1527l18 3h186l18-3A769 769 0 0 0 719 1m22 240c-85 4-179 19-243 41-77 25-133 68-176 131-22 33-38 69-51 113-6 21-20 85-24 117a1044 1044 0 0 0 31 385 386 386 0 0 0 408 267 5781 5781 0 0 1 170-7c119-9 209-37 276-83 45-32 80-73 104-122 15-32 22-53 41-131a621 621 0 0 0 18-212l-1-87c-1-60-1-64-3-76a398 398 0 0 0-278-308c-38-13-79-21-122-26-30-2-109-4-150-2m39 24c-33 3-60 10-96 24-28 11-45 20-66 35-27 19-51 42-98 93-39 41-78 81-112 114a390 390 0 0 0-141 295c1 40 7 65 23 106l31 62c8 13 25 37 26 36l5-13c11-27 28-57 63-113a1168 1168 0 0 0 105-202c22-59 29-74 41-93 13-18 37-41 60-57 28-19 52-32 104-52a2413 2413 0 0 0 207-102 561 561 0 0 1 102-53 429 429 0 0 0-192-78c-15-2-48-3-62-2m257 135c-47 4-105 24-144 48a429 429 0 0 0-134 148c-31 50-49 74-72 97-17 16-28 24-69 45-40 20-47 24-70 43a345 345 0 0 0-144 285c2 19 8 35 16 45 11 12 40 19 71 16 17-1 52-6 69-10a320 320 0 0 0 189-114c17-21 35-49 53-84a311 311 0 0 1 113-122 868 868 0 0 0 132-101c44-41 67-81 76-128 8-38 12-92 9-113-1-10-6-24-11-31-11-18-44-28-84-24m154 117a453 453 0 0 1-44 75c-28 39-40 63-72 138a1606 1606 0 0 1-47 103c-40 92-77 133-148 165l-44 18a992 992 0 0 0-219 118c-43 31-66 45-89 54-7 3-8 2 11 12a680 680 0 0 0 149 65c56 15 123 5 192-30 49-25 87-57 168-142 37-40 61-64 84-84a413 413 0 0 0 141-252c5-38 3-68-7-98a1097 1097 0 0 0-75-142M0 768"/></svg>