<svg xmlns="http://www.w3.org/2000/svg" width="160" height="160" fill="none"><path d="M0 0h160v160H0z" style="fill:#06353d;stroke-width:16.3481;stroke-dasharray:16.3481,16.3481;fill-opacity:1"/><g fill="#95f921"><path d="M126 108c0-2 9-2 9-4s-2-2-3-4a3 3 0 0 1 0-1v-1a55 55 0 0 0 3-18 56 56 0 0 0-111 0 55 55 0 0 0 3 18h1c0 3-3 4-3 5 0 3 8 2 8 5s-8 3-8 6 18 2 18 5c0 2-6 2-6 4 0 4 24 3 24 5s-11 2-11 4 15 4 31 4c17 0 28-2 28-4s-11-2-10-4c0-3 23-1 23-5 0-2-6-2-6-4 0-3 19-2 19-5s-9-3-9-6m-25 14c0 2-7 3-22 3-11 0-23-1-23-3s14-2 23-2c13 0 22 1 22 2M80 39c18 0 32 11 38 26 1 2-1 2-3 2h-5l-8 2 12 1c3 0 6 0 6 2a41 41 0 0 1 1 8 41 41 0 0 1-3 15l-3 3c-4 3-13 2-13 4s15 1 15 4-27 1-27 4c0 2 21 1 21 4 0 2-6 2-14 2H57l-11-2v-1c5-2 37 0 37-3s-32-1-32-4c0-2 14-2 25-2 15 0 19-1 19-2 0-2-18 0-18-3 0-2 28 0 28-3l-24-1c-12 0-24 0-24 2l14 2c0 2-8 2-16 2-5 0-10-1-12-3a5 5 0 0 1 0-1 41 41 0 0 1-4-17c0-23 18-41 41-41"/><path d="M79 92c18 0 35 0 35-2s-25-2-37-2c-11 0-29 0-29 2s21 2 31 2m12-7c11 0 17 0 17-2s-16 0-16-2 10-1 10-3-11-1-17-1l-14 1c0 2 18 1 18 2 0 3-28 1-28 3 0 3 18 2 30 2m11-11 10-1-11-1-12 1zm4 4 8 1 5-1-6-1z"/></g></svg>