<svg xmlns="http://www.w3.org/2000/svg" xml:space="preserve" id="Layer_1" x="0" y="0" version="1.1" viewBox="0 0 60 60"><style>.st2{opacity:.8;fill:#fff;enable-background:new}</style><linearGradient id="SVGID_1_" x1="9.526" x2="47.775" y1="9.419" y2="47.673" gradientTransform="matrix(1 0 0 -1 0 59.892)" gradientUnits="userSpaceOnUse"><stop offset="0" style="stop-color:#e6007a"/><stop offset=".21" style="stop-color:#703ac2"/><stop offset=".46" style="stop-color:#0070eb"/><stop offset=".77" style="stop-color:#0297fb"/><stop offset="1" style="stop-color:#0ae2ff"/></linearGradient><path d="M59.9 28C58.8 11.5 44.5-1 27.9.1 19.7.6 12.5 4.5 7.5 10.2l-.1.1C2.4 16.1-.4 23.8.1 32c.1.8.1 1.6.3 2.3v.1l.3 1.5c.1.5.2.9.3 1.4 3.4 13.8 16.3 23.6 31 22.6C48.6 58.8 61.1 44.5 59.9 28m-6.5.4c.1 2 0 4-.4 5.9-2.2-5.3-6.5-9.2-10.3-11.3.8-9-2.3-12.8-5.8-13.4-2.7-.5-5.3 1.3-5.8 4v.3c-.4 2.7 1.6 5.3 4.3 5.6h.7v1c-3.2-.8-6.2-1-8.9-.7-1 .1-2 .2-3.1.4.3-3 1.5-6.5 3.7-9 2.1-2.4 5.3-3.8 8.8-3.4.7.1 1.4.2 2 .4h.1c8.1 3.4 14.1 11 14.7 20.2M32.5 33c-.8 1.1-1.6 2.1-2.6 3-1.4-1.5-2.7-3.2-3.6-5.1 0-.1-.1-.2-.1-.3-.6-1.2-1-2.5-1.3-3.7 2.1-.5 4.2-.7 6.2-.6h.3c1.3.1 2.6.3 3.9.7-.7 2.1-1.6 4.2-2.8 6M22.2 7.9c-3.5 4.6-4.7 10.2-4.7 14.5-8.2 3.8-9.9 8.4-8.7 11.7 0 .1.1.2.1.3 1.1 2.6 4 3.8 6.6 2.7s3.8-4 2.7-6.6l-.3-.6c.3-.2.5-.3.8-.5.9 3.2 2.3 5.8 3.8 8.1.6.8 1.2 1.7 1.9 2.4-2.8 1.2-6.3 1.9-9.6 1.3-3.2-.6-5.9-2.7-7.4-5.9-.3-.6-.5-1.3-.6-1.9s-.1-1.2-.2-1.7c-.7-10.9 5.9-20.4 15.6-23.8m9.4 45.5c-6.4.4-12.3-1.7-16.9-5.6 5.7.8 11.2-1 14.9-3.2 7.4 5.2 12.2 4.4 14.5 1.7 1.8-2.1 1.6-5.3-.5-7.1-.1-.1-.2-.1-.2-.2a4.96 4.96 0 0 0-7 .9c-.1.2-.3.4-.4.6-.3-.1-.6-.3-.9-.5 2.1-2.2 3.8-4.6 5.1-7.4.5-.9.9-1.9 1.2-2.8 2.5 1.8 4.9 4.5 5.9 7.7 1 3.1.6 6.5-1.4 9.3-.4.5-.9 1.1-1.4 1.5-3.7 3.1-8.2 4.8-12.9 5.1" style="fill:url(#SVGID_1_)"/><radialGradient id="SVGID_00000103976507286194312470000014481433229177668737_" cx="-185.205" cy="416.617" r="1" gradientTransform="matrix(11.408 0 0 -11.408 2151.371 4776.69)" gradientUnits="userSpaceOnUse"><stop offset="0" style="stop-color:#fff"/><stop offset="1" style="stop-color:#fff;stop-opacity:0"/></radialGradient><path d="M37 9.6c-.6-.1-1.1-.1-1.7 0 2.9 1.6 5 5.9 3.9 14.5-.4 2.8-1.2 5.5-2.4 8-1.1 2.3-2.5 4.4-4.1 6.4.8.6 1.6 1.1 2.5 1.6 2.1-2.2 3.8-4.6 5.1-7.4 1.2-2.5 2.1-5.2 2.4-8 1.2-10.2-2-14.4-5.7-15.1" style="opacity:.9;fill:url(#SVGID_00000103976507286194312470000014481433229177668737_)"/><path d="M39.2 24.1c1.1-8.6-1-12.9-3.9-14.5-.1 0-.2 0-.3.1 2.8 1.6 4.8 6 3.7 14.4-.4 2.8-1.2 5.5-2.4 8-1 2.2-2.4 4.3-4 6.2.1.1.2.1.3.2 1.7-1.9 3.1-4.1 4.1-6.4 1.3-2.5 2.1-5.2 2.5-8" class="st2"/><radialGradient id="SVGID_00000005260198761442183320000007123851122312683905_" cx="-172.42" cy="391.991" r="1" gradientTransform="matrix(6.6384 0 0 -6.6384 1166.28 2647.278)" gradientUnits="userSpaceOnUse"><stop offset="0" style="stop-color:#fff"/><stop offset="1" style="stop-color:#fff;stop-opacity:0"/></radialGradient><path d="M28.3 43.6c-.3-.2-.5-.4-.8-.6-4.2 1.8-10.1 2.9-15.9 1.5.9 1.2 2 2.3 3.2 3.3 5.7.8 11.2-1 14.9-3.2-.5-.4-1-.7-1.4-1" style="opacity:.5;fill:url(#SVGID_00000005260198761442183320000007123851122312683905_)"/><linearGradient id="SVGID_00000051350704480359066000000008662282767041586841_" x1="11.729" x2="18.127" y1="15.928" y2="16.016" gradientTransform="matrix(1 0 0 -1 0 59.892)" gradientUnits="userSpaceOnUse"><stop offset="0" style="stop-color:#fff;stop-opacity:0"/><stop offset="1" style="stop-color:#fff"/></linearGradient><path d="M27.5 42.9c-.1-.1-.3-.2-.4-.3-4.3 1.7-10.2 2.7-16 1.3.1.2.3.4.4.6 5.9 1.3 11.7.2 16-1.6" style="opacity:.6;fill:url(#SVGID_00000051350704480359066000000008662282767041586841_)"/><radialGradient id="SVGID_00000061453737537348992280000007129756772237237888_" cx="-241.579" cy="452.618" r="1" gradientTransform="scale(-11.408 11.408)rotate(-60 -511.72 19.772)" gradientUnits="userSpaceOnUse"><stop offset="0" style="stop-color:#fff"/><stop offset="1" style="stop-color:#fff;stop-opacity:0"/></radialGradient><path d="M8.8 34.1c0 .1.1.2.1.3.2.5.4.9.7 1.2-.1-3.3 2.6-7.3 10.6-10.6 2.6-1.1 5.4-1.7 8.2-1.9 2.5-.2 5.1-.1 7.6.4.1-1.1.2-2.1.2-3-2.9-.7-5.9-1-8.9-.7-2.8.2-5.6.8-8.2 1.9-9.5 4-11.5 8.9-10.3 12.4" style="opacity:.9;fill:url(#SVGID_00000061453737537348992280000007129756772237237888_)"/><path d="M20.3 25c-8 3.3-10.7 7.3-10.6 10.6.1.1.1.2.2.3 0-3.2 2.7-7.2 10.6-10.5 2.6-1.1 5.4-1.7 8.2-1.9 2.4-.2 4.9-.1 7.3.4v-.3c-2.5-.5-5-.6-7.6-.4-2.7.1-5.5.7-8.1 1.8" class="st2"/><radialGradient id="SVGID_00000134944528227357231980000013971785309312859827_" cx="-269.298" cy="453.858" r="1" gradientTransform="scale(-6.6384 6.6384)rotate(-60 -527.391 2.104)" gradientUnits="userSpaceOnUse"><stop offset="0" style="stop-color:#fff"/><stop offset="1" style="stop-color:#fff;stop-opacity:0"/></radialGradient><path d="M42.6 24.7c0 .3-.1.7-.2 1 3.6 2.8 7.5 7.3 9.3 13 .6-1.4 1-2.9 1.3-4.4-2.2-5.3-6.5-9.1-10.3-11.3 0 .6 0 1.1-.1 1.7" style="opacity:.4;fill:url(#SVGID_00000134944528227357231980000013971785309312859827_)"/><linearGradient id="SVGID_00000029025139996405840980000004927553677101380750_" x1="51.222" x2="47.947" y1="21.056" y2="26.552" gradientTransform="matrix(1 0 0 -1 0 59.892)" gradientUnits="userSpaceOnUse"><stop offset="0" style="stop-color:#fff;stop-opacity:0"/><stop offset="1" style="stop-color:#fff"/></linearGradient><path d="M42.4 25.7c0 .2-.1.3-.1.5 3.6 2.8 7.4 7.4 9.1 13.2.1-.2.2-.4.3-.7-1.7-5.7-5.6-10.2-9.3-13" style="opacity:.5;fill:url(#SVGID_00000029025139996405840980000004927553677101380750_)"/><radialGradient id="SVGID_00000074428365677709244540000001170730877946296227_" cx="-182.215" cy="483.439" r="1" gradientTransform="scale(-11.408 11.408)rotate(60 323.2 398.961)" gradientUnits="userSpaceOnUse"><stop offset="0" style="stop-color:#fff"/><stop offset="1" style="stop-color:#fff;stop-opacity:0"/></radialGradient><path d="M44.1 46.3q.6-.6.9-1.5c-2.8 1.7-7.6 1.3-14.5-3.9-2.2-1.7-4.2-3.8-5.7-6.1-1.5-2.1-2.6-4.4-3.4-6.8-1 .4-1.9.9-2.7 1.3q1.2 4.35 3.9 8.1c1.5 2.3 3.5 4.4 5.7 6.1 8.2 6.3 13.4 5.6 15.8 2.8" style="opacity:.9;fill:url(#SVGID_00000074428365677709244540000001170730877946296227_)"/><path d="M30.5 40.9c6.9 5.2 11.7 5.6 14.5 3.9 0-.1.1-.2.1-.3-2.8 1.6-7.6 1.2-14.4-4-2.2-1.7-4.2-3.8-5.7-6.1-1.4-2-2.5-4.2-3.3-6.5-.1 0-.2.1-.3.1.8 2.4 2 4.7 3.4 6.8 1.5 2.3 3.4 4.4 5.7 6.1" class="st2"/><radialGradient id="SVGID_00000018213622570317025410000007415516860194494385_" cx="-167.281" cy="506.824" r="1" gradientTransform="scale(-6.6384 6.6384)rotate(60 351.703 396.681)" gradientUnits="userSpaceOnUse"><stop offset="0" style="stop-color:#fff"/><stop offset="1" style="stop-color:#fff;stop-opacity:0"/></radialGradient><path d="M19.1 21.7c.3-.1.6-.2.9-.4.6-4.5 2.6-10.2 6.6-14.6-1.5.2-3 .6-4.5 1.1-3.5 4.5-4.7 10.2-4.6 14.5.6-.1 1.1-.4 1.6-.6" style="opacity:.3;fill:url(#SVGID_00000018213622570317025410000007415516860194494385_)"/><linearGradient id="SVGID_00000181085393924862728240000016288817712456647342_" x1="27.026" x2="23.907" y1="52.702" y2="47.115" gradientTransform="matrix(1 0 0 -1 0 59.892)" gradientUnits="userSpaceOnUse"><stop offset="0" style="stop-color:#fff;stop-opacity:0"/><stop offset="1" style="stop-color:#fff"/></linearGradient><path d="M20.1 21.4c.2-.1.3-.1.5-.2.7-4.6 2.7-10.2 6.9-14.5-.2 0-.5.1-.7.1-4.2 4.4-6.2 10-6.7 14.6" style="opacity:.4;fill:url(#SVGID_00000181085393924862728240000016288817712456647342_)"/><linearGradient id="SVGID_00000031202877466454752800000007851980731449459382_" x1="28.427" x2="18.651" y1="55.536" y2="52.693" gradientTransform="matrix(1 0 0 -1 0 59.892)" gradientUnits="userSpaceOnUse"><stop offset="0" style="stop-color:#231f20"/><stop offset="1" style="stop-color:#fff"/></linearGradient><path d="M28 .1C19.7.6 12.5 4.5 7.5 10.2l-.1.1c1 1 4.2 2.9 5.5 3.7 2.6-2.8 5.8-4.9 9.4-6.2.3-.3.5-.7.8-1C26.5 3 31.1 1 36.5 1c.6 0 1.8.1 1.8.1C34.9.2 31.4-.2 28 .1" style="opacity:.4;fill:url(#SVGID_00000031202877466454752800000007851980731449459382_)"/><linearGradient id="SVGID_00000158729916061444669450000013837451400714035089_" x1="9.957" x2="18.131" y1="18.262" y2="9.73" gradientTransform="matrix(1 0 0 -1 0 59.892)" gradientUnits="userSpaceOnUse"><stop offset="0" style="stop-color:#231f20"/><stop offset="1" style="stop-color:#fff"/></linearGradient><path d="M31.6 53.4c-6.4.4-12.3-1.7-16.9-5.6-.4-.1-.8-.1-1.3-.2-5-1-9.1-4-11.8-8.7-.3-.5-.6-1-.8-1.6C4.4 51.1 17.3 60.9 32 59.9c.1-1.5-.3-5-.4-6.5" style="opacity:.4;fill:url(#SVGID_00000158729916061444669450000013837451400714035089_)"/><linearGradient id="SVGID_00000129203933679139512450000001095278043479050174_" x1="53.825" x2="56.669" y1="19.548" y2="28.194" gradientTransform="matrix(1 0 0 -1 0 59.892)" gradientUnits="userSpaceOnUse"><stop offset="0" style="stop-color:#231f20"/><stop offset="1" style="stop-color:#fff"/></linearGradient><path d="M59.9 28c-.9-.1-5.4.3-6.5.4.1 2 0 4-.4 5.9.2.4.3.8.4 1.2 1.6 4.8 1.1 9.9-1.6 14.5-.3.5-.6 1-1 1.5 6.2-5.9 9.7-14.4 9.1-23.5" style="opacity:.4;fill:url(#SVGID_00000129203933679139512450000001095278043479050174_)"/><linearGradient id="SVGID_00000050651093117363705360000013689170206856274869_" x1="32.878" x2="45.981" y1="50.591" y2="47.592" gradientTransform="matrix(1 0 0 -1 0 59.892)" gradientUnits="userSpaceOnUse"><stop offset="0" style="stop-color:#231f20"/><stop offset="1" style="stop-color:#fff"/></linearGradient><path d="M36.7 7.8c.7.1 1.4.2 2 .4h.1c2.6 1.1 4.9 2.5 7 4.4 1-1.1 2.9-2.4 2.9-2.4s-2.9-3-7.3-3.9c-3.1-.6-10.1-1.3-14.5 6.3.3-.5.7-1 1.1-1.4 2.1-2.4 5.3-3.8 8.7-3.4" style="opacity:.5;fill:url(#SVGID_00000050651093117363705360000013689170206856274869_)"/><linearGradient id="SVGID_00000142137249319132945460000004464437094416722579_" x1="46.486" x2="37.331" y1="17.051" y2="7.201" gradientTransform="matrix(1 0 0 -1 0 59.892)" gradientUnits="userSpaceOnUse"><stop offset="0" style="stop-color:#231f20"/><stop offset="1" style="stop-color:#fff"/></linearGradient><path d="M45.9 46.9c-.4.5-.9 1.1-1.4 1.5l-.1.1c-2.2 1.7-4.7 3-7.3 3.8.5 1.4.6 3.7.6 3.7s4-1 7-4.4c2.1-2.4 6.2-8.1 1.9-15.7v.1c.3.5.5 1.1.7 1.6 1 3 .6 6.5-1.4 9.3" style="opacity:.5;fill:url(#SVGID_00000142137249319132945460000004464437094416722579_)"/><linearGradient id="SVGID_00000049197054293289341610000003457193005142360452_" x1="10.632" x2="6.682" y1="22.03" y2="34.879" gradientTransform="matrix(1 0 0 -1 0 59.892)" gradientUnits="userSpaceOnUse"><stop offset="0" style="stop-color:#231f20"/><stop offset="1" style="stop-color:#fff"/></linearGradient><path d="M7.4 35.3c-.3-.6-.5-1.3-.6-1.9v-.1c-.4-2.8-.3-5.6.3-8.3-1.5-.3-3.5-1.3-3.5-1.3s-1.1 4 .3 8.3c1 3 4 9.4 12.7 9.5h-.1c-.6 0-1.2-.1-1.8-.2-3.1-.8-5.9-2.8-7.3-6" style="opacity:.5;fill:url(#SVGID_00000049197054293289341610000003457193005142360452_)"/><linearGradient id="SVGID_00000060752852370899178300000016315499052719424693_" x1="35.741" x2="31.598" y1="45.76" y2="41.611" gradientTransform="matrix(1 0 0 -1 0 59.892)" gradientUnits="userSpaceOnUse"><stop offset="0" style="stop-color:#231f20"/><stop offset="1" style="stop-color:#fff"/></linearGradient><path d="M35.5 19.5h.7s-.2-3.1-.5-4.7c-.4-1.6-1-2.7-1.6-3.3-.4-.4-1.8-1-2.9 2.3-.4 2.8 1.5 5.4 4.3 5.7" style="opacity:.6;fill:url(#SVGID_00000060752852370899178300000016315499052719424693_)"/><linearGradient id="SVGID_00000097459040242513397820000008606103132333977261_" x1="13.388" x2="19.05" y1="26.934" y2="25.413" gradientTransform="matrix(1 0 0 -1 0 59.892)" gradientUnits="userSpaceOnUse"><stop offset="0" style="stop-color:#231f20"/><stop offset="1" style="stop-color:#fff"/></linearGradient><path d="m18.2 30.5-.3-.6s-2.6 1.7-3.8 2.8-1.8 2.2-2 3c-.1.6.1 2.1 3.5 1.4 2.5-1.1 3.7-4 2.6-6.6" style="opacity:.5;fill:url(#SVGID_00000097459040242513397820000008606103132333977261_)"/><linearGradient id="SVGID_00000106148316395369773320000002757923291886078389_" x1="40.862" x2="39.345" y1="16.988" y2="22.648" gradientTransform="matrix(1 0 0 -1 0 59.892)" gradientUnits="userSpaceOnUse"><stop offset="0" style="stop-color:#231f20"/><stop offset="1" style="stop-color:#fff"/></linearGradient><path d="M36.3 40c-.1.2-.3.4-.4.6 0 0 2.8 1.4 4.4 1.9s2.8.5 3.6.3c.6-.2 1.8-1.1-.5-3.7-2.2-1.8-5.4-1.3-7.1.9" style="opacity:.6;fill:url(#SVGID_00000106148316395369773320000002757923291886078389_)"/><linearGradient id="SVGID_00000082334974036727074960000012556770789156809859_" x1="32.238" x2="34.728" y1="22.026" y2="25.46" gradientTransform="matrix(1 0 0 -1 0 59.892)" gradientUnits="userSpaceOnUse"><stop offset="0" style="stop-color:#231f20"/><stop offset="1" style="stop-color:#fff"/></linearGradient><path d="M35.3 27c-.6 2.1-1.5 4-2.6 5.7-.1.1-.1.2-.2.3-.8 1.1-1.6 2.1-2.6 3 .7.7 1.4 1.4 2.2 2.1.9.7 1.9 1.4 2.9 2 2.1-2.2 3.8-4.6 5.1-7.4.5-.9.8-1.9 1.2-2.8-1.1-.8-2.1-1.4-3.1-1.8-.9-.4-1.9-.8-2.9-1.1" style="opacity:.3;fill:url(#SVGID_00000082334974036727074960000012556770789156809859_)"/><linearGradient id="SVGID_00000061459537237502812120000017891292822794755715_" x1="23.677" x2="18.702" y1="23.513" y2="21.141" gradientTransform="matrix(1 0 0 -1 0 59.892)" gradientUnits="userSpaceOnUse"><stop offset="0" style="stop-color:#231f20"/><stop offset="1" style="stop-color:#fff"/></linearGradient><path d="M14.7 47.8c5.7.8 11.2-1 14.9-3.2-.5-.3-.9-.6-1.4-1-1.4-1.1-2.7-2.3-3.9-3.7-2.8 1.2-6.3 1.9-9.6 1.3-3.2-.6-5.9-2.7-7.4-5.9-.3-.6-.5-1.3-.6-1.9.9 5.7 3.8 10.8 8 14.4" style="opacity:.3;fill:url(#SVGID_00000061459537237502812120000017891292822794755715_)"/><linearGradient id="SVGID_00000179623011387368395410000010812718621845476502_" x1="21.876" x2="23.416" y1="31.796" y2="28.597" gradientTransform="matrix(1 0 0 -1 0 59.892)" gradientUnits="userSpaceOnUse"><stop offset="0" style="stop-color:#231f20"/><stop offset="1" style="stop-color:#fff"/></linearGradient><path d="M29.9 36c-1.4-1.5-2.7-3.2-3.6-5.1 0-.1-.1-.2-.1-.3-.6-1.2-1-2.5-1.3-3.7-1 .2-2 .5-2.9.9-1.1.4-2.2 1-3.2 1.5.9 3.2 2.3 5.8 3.8 8.1.6.8 1.2 1.7 1.9 2.4 1.2-.5 2.3-1.1 3.1-1.8.8-.5 1.6-1.2 2.3-2" style="opacity:.3;fill:url(#SVGID_00000179623011387368395410000010812718621845476502_)"/><linearGradient id="SVGID_00000060740709543541916200000016658141810299588769_" x1="29.03" x2="27.967" y1="41.67" y2="45.341" gradientTransform="matrix(1 0 0 -1 0 59.892)" gradientUnits="userSpaceOnUse"><stop offset="0" style="stop-color:#231f20"/><stop offset="1" style="stop-color:#fff"/></linearGradient><path d="M22.2 7.9c-3.5 4.5-4.7 10.2-4.6 14.5.5-.2 1-.5 1.5-.7 1.6-.7 3.4-1.2 5.1-1.5.3-3 1.5-6.5 3.7-9 2.1-2.4 5.3-3.8 8.8-3.4.7.1 1.4.2 2 .4h.1c-3.3-1.3-6.9-1.9-10.4-1.7-2.2.2-4.2.7-6.2 1.4" style="opacity:.3;fill:url(#SVGID_00000060740709543541916200000016658141810299588769_)"/><linearGradient id="SVGID_00000152970832658843794190000016084043716957806753_" x1="40.524" x2="43.604" y1="24.859" y2="24.15" gradientTransform="matrix(1 0 0 -1 0 59.892)" gradientUnits="userSpaceOnUse"><stop offset="0" style="stop-color:#231f20"/><stop offset="1" style="stop-color:#fff"/></linearGradient><path d="M53 34.3C50.9 29 46.6 25.2 42.8 23c0 .5-.1 1.1-.2 1.7-.2 1.8-.6 3.5-1.2 5.2 2.5 1.8 4.9 4.5 5.9 7.7 1 3.1.6 6.5-1.4 9.3-.4.5-.9 1.1-1.4 1.5C48.9 45 52 40 53 34.3c.1 0 0 0 0 0" style="opacity:.3;fill:url(#SVGID_00000152970832658843794190000016084043716957806753_)"/><linearGradient id="SVGID_00000103949445521785630760000000354989492508393888_" x1="35.692" x2="31.785" y1="35.265" y2="35.974" gradientTransform="matrix(1 0 0 -1 0 59.892)" gradientUnits="userSpaceOnUse"><stop offset="0" style="stop-color:#231f20"/><stop offset="1" style="stop-color:#fff"/></linearGradient><path d="M24.2 23.8c.1 1 .3 2.1.6 3.1 2.1-.5 4.2-.7 6.2-.6h.3c1.3.1 2.6.3 3.9.7.3-1 .5-2 .7-3 .2-1.3.2-2.5.2-3.5-3.2-.8-6.2-1-8.9-.7-1 .1-2 .2-3.1.4 0 1.3 0 2.5.1 3.6" style="opacity:.3;fill:url(#SVGID_00000103949445521785630760000000354989492508393888_)"/></svg>