<svg xmlns="http://www.w3.org/2000/svg" width="1280" height="1280"><path d="M0 0h1280v1280H0V0z" fill="#72F26B"/><path d="m715 393.25 3.29.91c10.427 2.925 20.62 6.213 30.53 10.594 2.668 1.045 5.249 1.853 8 2.629 4.972 1.463 9.378 3.473 13.93 5.93l2.429 1.297C792.675 425.222 810.845 437.952 828 452l2.738 2.21c15.433 12.51 28.318 25.916 39.696 42.165a249.462 249.462 0 0 0 5.289 7.25c21.851 28.94 21.851 28.94 20.277 46.375-2.175 10.042-7.754 17.068-16 23-3.25 1.457-3.25 1.457-7 2.813l-2.135.773A679.71 679.71 0 0 1 864 579l-2.136.744c-9.476 3.276-19.03 6.316-28.587 9.346l-2.64.837c-4.53 1.435-9.063 2.864-13.598 4.285-8.207 2.577-16.354 5.212-24.424 8.194-10.907 3.973-22.185 6.074-33.576 2.723-2.949-1.456-5.398-3.162-8.039-5.129a4382.048 4382.048 0 0 0-4.36-3.129c-4.141-2.998-8.236-6.055-12.321-9.13a998.836 998.836 0 0 0-9.881-7.303l-1.813-1.33c-4.774-3.498-9.573-6.96-14.375-10.42a3147.341 3147.341 0 0 1-19.438-14.125l-2.356-1.719c-13.322-9.792-13.322-9.792-16.769-15.782l-1.425-2.402c-3.223-6.794-3.571-12.915-3.6-20.33l-.035-3.186c-.034-3.466-.053-6.932-.068-10.398l-.021-3.605c-.036-6.3-.06-12.598-.073-18.897-.017-6.477-.075-12.953-.144-19.43-.045-5.006-.058-10.012-.063-15.018a711.729 711.729 0 0 0-.06-7.158C663.89 411.83 663.89 411.83 672 401c2.803-2.86 5.534-5 9-7 .71-.43 1.42-.859 2.152-1.3 10.226-5.382 21.328-2.511 31.848.55zM910.68 619.094c8.114 3.882 15.214 9.323 18.475 17.947 4.052 14.193 3.172 29.98 3.095 44.584l-.01 3.21c-.086 22.382-.744 43.591-7.24 65.165l-.688 2.318C914.418 785.128 896.756 817.852 876 845l-1.781 2.383c-20.3 26.715-20.3 26.715-34.219 29.617-10.128.83-18.16-.845-26.117-7.305-6.385-5.749-11.097-12.707-15.985-19.715-5.597-8.024-11.418-15.876-17.24-23.736-1.553-2.102-3.098-4.21-4.638-6.322-3.934-5.393-7.875-10.767-11.985-16.027-10.416-13.336-19.529-25.959-18.36-43.5.945-6.954 3.944-13.521 6.45-20.03 1.226-3.313 2.176-6.648 3.125-10.053 2.856-10.125 6.29-20.07 9.653-30.035a12524.161 12524.161 0 0 0 2.063-6.126c2.064-6.168 3.981-12.377 5.871-18.6 3.357-10.252 7.918-18.575 17.163-24.551 7.889-3.743 16.114-6.471 24.438-9.063l3.119-.986a1681.654 1681.654 0 0 1 15.802-4.889c6.548-2.01 13.042-4.168 19.533-6.353 10.12-3.406 20.25-6.762 30.467-9.87 8.698-2.765 18.373-3.405 27.32-.745zM601 395l2.113 1.215c6.335 4.116 10.29 10.443 12.448 17.663.471 2.277.574 4.342.586 6.667l.022 2.748.008 2.992.02 3.17c.02 3.464.031 6.928.041 10.393l.013 3.591c.02 6.276.035 12.552.044 18.828.011 6.467.046 12.934.085 19.401.027 4.986.035 9.97.038 14.956.005 2.383.017 4.766.035 7.149.025 3.345.024 6.69.017 10.036l.039 2.95c-.077 10.296-3.304 19.744-10.509 27.241a114.272 114.272 0 0 1-12.844 9.883c-3.657 2.453-7.15 5.08-10.656 7.742a686.944 686.944 0 0 1-17.002 12.446c-4.183 2.968-8.314 6-12.432 9.057a2001.816 2001.816 0 0 1-9.726 7.156 907.75 907.75 0 0 0-4.54 3.35C527.259 602.182 516.835 608 502 607c-3.17-.641-6.169-1.62-9.223-2.676l-2.579-.851c-2.758-.915-5.51-1.85-8.26-2.785-1.924-.643-3.848-1.283-5.772-1.923a2924.25 2924.25 0 0 1-11.636-3.9c-4.98-1.682-9.966-3.345-14.956-4.998a3543.496 3543.496 0 0 1-14.457-4.823 843.958 843.958 0 0 0-15.5-5.067l-2.914-.93a367.956 367.956 0 0 0-5.128-1.592c-10.846-3.475-19.645-10.464-25.012-20.58-3.014-7.553-2.791-16.476 0-24.063 2.62-5.603 5.948-10.717 9.437-15.812l1.314-1.92c17.484-25.42 17.484-25.42 27.077-34.51 1.816-1.772 3.456-3.646 5.109-5.57 4.98-5.757 10.336-10.987 16.11-15.945a467.227 467.227 0 0 0 5.343-4.672 291.98 291.98 0 0 1 49.922-35.445l2.143-1.212c11.802-6.542 23.938-11.276 36.732-15.413 1.455-.477 2.91-.954 4.363-1.432 2.76-.906 5.521-1.808 8.284-2.705 2.917-.952 5.826-1.92 8.732-2.903 12.943-4.318 27.555-7.872 39.871-.273zM598.848 803.823l2.993-.02a3293 3293 0 0 1 9.792-.041l3.388-.013c5.92-.02 11.839-.035 17.758-.044 6.096-.011 12.192-.046 18.288-.085 4.703-.027 9.406-.035 14.11-.038 2.245-.005 4.492-.017 6.738-.035a949.56 949.56 0 0 1 9.46-.017l2.775-.039c10.273.082 18.822 3.401 26.202 10.525 5.148 5.8 9.493 12.182 13.923 18.537 2.859 4.055 5.827 8.028 8.788 12.01a875.413 875.413 0 0 1 14.46 20.155c3.6 5.126 7.381 10.088 11.227 15.032 10.126 13.087 18.361 24.835 16.25 42.25-3.445 10.444-9.137 17.147-18.745 22.125-3.388 1.69-6.814 3.294-10.255 4.875l-2.512 1.184c-2.145.985-4.31 1.905-6.488 2.816l-3.031 1.324C714.72 962.437 694.679 967.29 674 970l-2.361.317c-7.084.835-14.173.835-21.296.813-2.075-.005-4.15 0-6.226.007-13.927.01-27.313-1.054-40.992-3.762l-2.025-.398c-73.773-14.59-73.773-14.59-87.713-35.383-4.189-6.798-5.578-11.343-5.637-19.344l-.062-2.055c-.068-8.857 3.548-15.098 8.687-22.07l1.596-2.211c1.111-1.538 2.227-3.073 3.345-4.605a1017 1017 0 0 0 4.872-6.747c6.12-8.528 12.325-16.993 18.566-25.434a1638.232 1638.232 0 0 0 12.184-16.753A4282.22 4282.22 0 0 1 563 824l2.086-2.879c9.274-12.4 18.422-17.254 33.762-17.298zM401.5 621.125c2.463.83 4.927 1.658 7.39 2.484l3.643 1.237c5.65 1.88 11.357 3.554 17.074 5.213a161.092 161.092 0 0 1 12.396 4.187c3.447 1.302 6.94 2.465 10.435 3.629l2.346.785c4.62 1.53 9.256 2.956 13.937 4.289 26.762 7.625 26.762 7.625 33.738 19.545 3.956 7.558 6.66 15.308 9.166 23.443l1.26 3.997c.9 2.845 1.796 5.692 2.688 8.54 2.259 7.185 4.581 14.35 6.904 21.514.748 2.31 1.493 4.622 2.236 6.934.476 1.471.951 2.943 1.428 4.414l.7 2.167a303.475 303.475 0 0 0 3.833 11.078l.835 2.281a307.038 307.038 0 0 0 1.6 4.244c3.316 8.987 3.646 19.83-.023 28.785-4.585 8.906-10.729 16.768-16.766 24.718-3.55 4.679-7.031 9.407-10.508 14.141a1343.798 1343.798 0 0 1-11.625 15.625c-2.98 3.954-5.828 7.976-8.625 12.063-18.516 26.885-18.516 26.885-31.98 30.148-9.445 1.515-17.585.481-25.598-4.953-6.51-5.32-11.72-12.119-16.984-18.633l-1.306-1.603C402.673 842.732 396.724 833.56 391 824l-1.332-2.195C376.595 800.213 364.392 776.822 359 752c-.379-1.571-.76-3.141-1.145-4.71-5.701-23.618-8.48-46.43-8.168-70.727.012-2.342.022-4.684.03-7.026a4788.502 4788.502 0 0 1 .067-9.877c.168-12.735.408-23.626 9.404-33.472 12.707-11.814 27.04-10.421 42.312-5.063z" fill="#001B05"/><path d="m668 232 2.346.39c24.396 4.147 47.451 13.176 67.654 27.61l1.664 1.176c15.02 10.776 29.148 24.36 39.336 39.824l2.027 3.059c13.101 20.543 23.548 44.401 26.098 68.816l.257 2.375c.577 5.61.8 11.107.618 16.75-3.442-1.308-6.606-2.818-9.813-4.625-12.93-7.103-26.02-13.133-39.79-18.437a245.773 245.773 0 0 1-4.807-1.94c-6.353-2.635-12.771-4.624-19.403-6.435l-3.319-.912c-3.286-.894-6.576-1.775-9.868-2.651l-2.75-.74c-22.146-5.891-45.323-9.273-68.25-9.533l-3.098-.038c-24.448-.24-47.88.669-71.902 5.311l-2.813.517A193.292 193.292 0 0 0 557 356l-2.667.71c-23.68 6.378-45.846 15.073-67.738 26.104-2.811 1.285-5.65 2.257-8.595 3.186-.312-7.446.543-14.231 2.125-21.5l.687-3.185C485.606 339.811 493.75 318.767 507 301l2.332-3.188C517.15 287.288 525.742 277.224 536 269l2.926-2.363C551.016 257.022 564.069 249.59 578 243l2.98-1.438c26.558-11.986 58.572-14.496 87.02-9.562z" fill="#001B05"/><path d="M941.866 437.514c6.91 5.228 13.307 10.981 19.556 16.976 1.03.985 2.064 1.965 3.105 2.938 8.943 8.367 16.27 17.69 23.473 27.572l2.094 2.852c13.082 18.255 23.802 38.23 31.906 59.148l1.019 2.584c8.054 20.562 13.301 41.503 15.981 63.416l.288 2.086c3.792 29.445 1.047 64.208-17.417 88.676-10.975 13.128-24.277 20.935-41.457 22.582-4.634.046-8.887-.35-13.414-1.344.144-1.667.29-3.333.437-5l.247-2.813c.225-2.265.507-4.526.827-6.78.591-4.71.633-9.368.622-14.11l.003-2.782c0-1.94-.001-3.879-.006-5.819-.005-2.896 0-5.792.007-8.688.009-17.547-.335-34.828-3.45-52.133l-.677-3.891c-2.57-14.52-5.592-28.653-10.244-42.655-.87-2.647-1.708-5.304-2.547-7.962-13.14-41.143-35.058-79.462-63.78-111.738a291.447 291.447 0 0 1-3.008-3.461c-4.737-5.512-9.781-10.667-14.931-15.793l-2.473-2.484c-4.52-4.513-9.114-8.81-14.027-12.891 2.47-4.228 5.33-5.164 9.875-6.688l3.68-1.261c26.248-8.006 53.393 4.014 74.311 19.463z" fill="#001C05"/><path d="m664.668 595.515 2.207 1.672 2.373 1.757c2.259 1.675 4.507 3.363 6.752 5.056l3.16 2.36c1.862 1.392 3.72 2.79 5.574 4.19 5.073 3.822 10.206 7.563 15.33 11.315a801.485 801.485 0 0 1 11.811 8.822l2.16 1.645c3.302 2.803 5.691 6.005 7.965 9.668l1.254 1.945c4.945 9.064 3.782 20.108 1.152 29.733-1.803 6.037-3.942 11.9-6.383 17.709-3.019 7.709-5.217 15.785-7.5 23.738-4.482 15.527-8.456 28.256-23.156 36.613L685 753l-1.676 1.06c-3.262 1.32-6.407 1.235-9.871 1.23l-2.288.02c-2.495.02-4.99.024-7.485.026l-5.225.02c-3.653.012-7.307.016-10.96.015-4.66 0-9.32.027-13.98.061-3.6.022-7.2.026-10.8.025-1.716.003-3.433.012-5.15.027-12.91.106-23.858-1.112-33.565-10.484-3.628-4.3-6.065-8.808-7.926-14.105l-1.034-2.923L574 725l-.989-2.771c-3.659-10.26-7.259-20.52-10.207-31.01a192.097 192.097 0 0 0-3.44-10.996c-4.172-12.105-7.381-23.75-1.61-35.993 6.581-11.78 17.504-18.809 28.34-26.357 5.852-4.088 11.58-8.327 17.281-12.623l2.583-1.937c3.482-2.614 6.957-5.23 10.366-7.938 15.258-11.84 33.018-11.112 48.344.14z" fill="#001B05"/><path d="M423 423c-1.51 3.677-3.649 5.719-6.625 8.313l-2.703 2.378a1326.423 1326.423 0 0 1-4.969 4.274c-3.655 3.14-6.767 6.188-9.703 10.035a244.31 244.31 0 0 1-6.559 6.484C378.508 468 367.498 484.755 357 501l-2.05 3.164c-33.978 53.792-48.14 114.177-48.135 177.18-.003 3.35-.02 6.699-.04 10.049-.03 11.702.316 23.044 2.225 34.607-17.814.734-31.17-3.327-45-15-19.417-20.347-24.697-49.923-24.402-77.092.61-23.554 4.105-47.124 12.436-69.24.925-2.555 1.708-5.111 2.454-7.723 1.523-5.198 3.536-10.11 5.7-15.07l1.195-2.758c3.585-8.192 7.43-16.216 11.617-24.117.59-1.12 1.178-2.24 1.785-3.395C285.341 492.354 298.94 474.905 314 459l2.656-2.82c6.921-7.145 14.39-13.233 22.344-19.18l2.621-2c21.57-15.868 56.674-28.662 81.379-12z" fill="#011C05"/><path d="M951 790c2.29 2.29 2.441 3.25 3.035 6.36l.514 2.632.514 2.758.525 2.71c.336 1.747.665 3.495.988 5.244.325 1.758.672 3.513 1.03 5.265 3.288 25.266.248 57.65-9.579 81.351-.922 2.406-1.653 4.778-2.367 7.25-7.189 24.295-18.878 47.269-32.66 68.43l-1.441 2.469c-16.352 26.556-39.697 49.887-66.559 65.531l-2.7 1.652c-16.477 9.68-37.958 13.785-56.685 9.067-14.924-4.455-26.1-15.192-33.67-28.586-4.75-8.976-9.257-18.81-8.945-29.133l3.734-1.355c22.107-8.057 43.24-17.223 63.266-29.645l1.822-1.124c16.494-10.23 31.872-21.531 46.198-34.63l2.73-2.496 2.36-2.203C865 920 865 920 867 920l.75-1.75c1.433-2.58 3.034-4.311 5.25-6.25h2l.715-1.715c1.58-2.808 3.512-4.629 5.847-6.847 5.265-5.159 9.87-10.665 14.438-16.438l1.772-2.155c5.15-6.305 9.755-12.86 14.228-19.658l2.123-3.212c1.967-2.987 3.925-5.979 5.877-8.975l1.379-2.11C933.662 831.96 942.25 810.723 951 790zM326 796c2.854 1.427 2.843 2.99 3.875 6 10.359 27.725 25.737 53.035 43.466 76.592l1.78 2.38 1.607 2.134C378 885 378 885 379 888l3 1c1.438 1.645 1.438 1.645 3 3.813 10.561 13.985 24.335 29.41 39 39.187v2l2 .563c2.802 1.342 4.355 2.54 6.61 4.609 4.328 3.847 8.887 7.214 13.64 10.515l2.616 1.821C462.924 961.18 477.542 969.773 493 977l2.327 1.097c11.4 5.346 22.935 10.02 34.801 14.227 2.314.836 4.597 1.74 6.872 2.676-2.535 18.575-12.178 35.684-26.938 47.313-14.05 9.802-30.579 11.866-47.312 9-16.98-4.13-32.021-12.8-45.75-23.313l-2.762-2.078c-12.387-9.702-23.8-21.35-33.238-33.922l-1.487-1.976c-16.382-21.885-29.643-45.587-39.715-71.028a225.838 225.838 0 0 0-2.15-5.148C322.271 876.892 318.268 835.036 326 796z" fill="#001C05"/><path d="m666 407 2 1-.98 2.796c-1.448 5.107-1.328 10.19-1.339 15.464l-.03 3.372c-.031 3.663-.048 7.326-.065 10.99-.019 2.545-.038 5.09-.059 7.637-.046 6.006-.083 12.012-.116 18.019-.039 6.841-.088 13.683-.138 20.525-.104 14.065-.193 28.131-.273 42.197-2.1-3.15-2.251-3.884-2.26-7.476l-.022-2.778.007-3.041-.015-3.21c-.014-3.51-.013-7.022-.01-10.534l-.014-7.321c-.007-5.123-.007-10.246-.002-15.369a4438.81 4438.81 0 0 0-.034-19.66 4269.89 4269.89 0 0 1-.013-15.134c0-2.415-.005-4.83-.015-7.246-.013-3.386-.006-6.772.006-10.16l-.023-3.004c.046-6.207 1.052-11.313 3.395-17.067z" fill="#6DCD68"/><path d="M685 755c-6.545 3.068-13.47 3.131-20.578 3.053l-2.151-.019c-2.317-.022-4.634-.053-6.95-.085l-4.862-.057c-3.38-.04-6.761-.086-10.142-.134-4.337-.06-8.675-.108-13.013-.15-3.339-.036-6.678-.08-10.016-.127-1.6-.021-3.201-.04-4.802-.054a952.934 952.934 0 0 1-6.685-.092l-3.843-.05C599 757 599 757 597 755c10.883-.154 21.766-.302 32.65-.443 5.053-.066 10.106-.133 15.16-.205 4.875-.07 9.751-.134 14.627-.195 1.861-.024 3.723-.05 5.584-.078 2.604-.038 5.21-.07 7.814-.1l2.337-.04c3.422-.034 6.56-.033 9.828 1.061z" fill="#6ED06A"/><path d="m879 619 2 2a122.775 122.775 0 0 1-14.332 5.34l-2.05.63c-2.857.88-5.717 1.75-8.576 2.62-7.385 2.253-14.669 4.557-21.804 7.528-3.75 1.478-7.6 2.527-11.488 3.57l-2.313.642c-4.125 1.128-8.197 2.056-12.437 2.67 2.834-2.299 5.463-3.725 8.875-5 2.879-1.095 5.432-2.173 8.125-3.688 3.598-1.574 6.74-1.777 10.625-2.078 3.856-.38 7.14-1.706 10.68-3.218 4.111-1.725 7.796-3.2 12.258-3.641L862 626l1-2c2.582-.781 2.582-.781 5.813-1.5 3.68-.825 6.889-1.647 10.187-3.5z" fill="#75DB71"/><path d="m488 331 2 1-.48 1.555c-.857 2.81-1.69 5.626-2.52 8.445l-.584 1.982c-4.041 13.806-7.412 27.613-8.416 42.018l2.75-1.563C484 383 484 383 486.375 383.313L488 384c-5.5 5-5.5 5-10 5-5.15-10.756.03-26.91 3-38l.473-2.02c.649-2.437 1.679-4.661 2.695-6.964 1.485-3.6 2.647-7.31 3.832-11.016z" fill="#75E06F"/><path d="m462 445 2 1-1.438 1.313c-1.799 1.71-1.799 1.71-2.562 4.687l-2 1-.313 1.813c-1.006 3.203-3.006 4.221-5.687 6.187-1.11.91-2.214 1.826-3.313 2.75L446 466l-1-1-1 2h-2c2.623-5.448 5.283-9.55 9.875-13.563l2.555-2.253A275.724 275.724 0 0 1 462 445z" fill="#041909"/><path d="m879 1013 1 4-3 1v4l3 1c-2.375.625-2.375.625-5 1l-2-2-1.625 2.875c-2.654 3.492-4.183 4.172-8.375 5.125v2c-2.958 2.054-5.536 3.164-9 4l-2 2-2-2 2.168-1.363c9.714-6.27 18.758-13.33 26.832-21.637z" fill="#75E171"/><path d="M1021 704c1.125 3.75 1.125 3.75 0 6h-3l-2 4h-2l1 4-2.938.125c-3.555.466-5.634 1.823-8.5 3.938-4.457 3.209-7.158 3.527-12.562 2.937 1.52-3.042 3.835-3.114 7-4.188 9.551-3.563 16.082-9.493 23-16.812z" fill="#77E472"/><path d="M802 353c3.897 5.845 4.409 13.015 5.125 19.875l.257 2.375c.577 5.61.8 11.107.618 16.75-3.791-1.45-7.387-3.152-11-5v-1h7l1 2c1.517-3.978.486-7.197-.438-11.25-1.176-5.364-1.782-10.262-1.562-15.75l-1-1c-.04-2.333-.042-4.667 0-7z" fill="#0F440E"/><path d="M706 625h3v2h7l.586 1.715.789 2.222.773 2.215c.705 2.035.705 2.035 2.852 2.848 3.883 6.437 6.71 12.45 7 20h-2l-.445-1.836C722.318 642.074 716.379 633.92 706 627v-2z" fill="#75DE70"/><path d="M703 808c4.855.416 6.804 2.459 10 6l2 2v3h2v3l3 1 2 2 2.125 1.25C726 828 726 828 726.25 831.188L726 834h2l1 3-2 1-1.941-2.746c-9.853-14.17-9.853-14.17-22.059-26.254v-1z" fill="#78DB72"/><path d="M324 806h1c.107 15.368.136 30.668-1 46h-1a175.972 175.972 0 0 1-1.188-20.75l-.001-2.885c.056-7.605.76-14.884 2.189-22.365z" fill="#154C13"/><path d="M388 819c3.087 3.714 5.773 7.588 8.313 11.688l1.126 1.76c.919 1.479 1.748 3.012 2.561 4.552l-1 2-3.71-4.59c-1.257-1.543-1.257-1.543-3.29-2.41v-2h-7c.672-3.806 1.727-7.352 3-11z" fill="#73E36F"/><path d="m781 657 2 1-1.137 1.441c-4.62 6.32-6.923 12.973-9.185 20.38-1.263 4.06-2.636 8.085-3.99 12.116l-1.551 4.653L766 700h-1c.46-5.064 1.348-9.455 3.043-14.238 1.256-3.625 2.385-7.285 3.52-10.95.807-2.605 1.62-5.21 2.437-7.812l.988-3.34c1.28-3.365 3.084-4.657 6.012-6.66z" fill="#77DD72"/><path d="M951 790c3.006 3.006 2.596 5.824 3 10l-3-2-.805 2.117-1.07 2.758-1.055 2.742C947 808 947 808 945 810l-1.5 3.563C942 817 942 817 940 818c2.37-9.83 6.804-18.85 11-28z" fill="#083808"/><path d="m852 932 1 2c-4.367 5.652-8.111 8.704-15 11l-.875 1.875c-1.528 2.886-3.18 3.793-6.125 5.125-2.164-.426-2.164-.426-4-1l2.93-2.125c7.5-5.46 14.898-10.986 22.07-16.875z" fill="#063206"/><path d="M860 629c-6.976 4.93-13.988 7.653-22.5 8.563-3.552.08-3.552.08-5.5 2.437-2.688.27-5.291.087-8 0 2.974-1.982 5.16-2.76 8.563-3.75 4.106-1.219 8.175-2.486 12.226-3.879l2.459-.843a709.289 709.289 0 0 0 4.834-1.685c5.697-1.953 5.697-1.953 7.918-.843z" fill="#0C3D0B"/><path d="M406 1020c4.225 1.421 7.06 3.491 10.438 6.375 3.74 3.139 7.418 6.049 11.562 8.625l-2 2c-2.5-1.375-2.5-1.375-5-3v-2c-3.534-2.12-6.944-2.532-11-3l-1-5h-5c0-2 0-2 2-4z" fill="#74DD6E"/><path d="M923 753h1v7l2-1c-.506 2.169-1 4-2 6h-2l1 3-4 1v6l-2 1-1 2.5c-1 2.5-1 2.5-3 3.5.647-2.804 1.49-5.41 2.559-8.082l.92-2.326c.634-1.592 1.27-3.183 1.906-4.774 1.802-4.562 3.355-9.076 4.615-13.818z" fill="#6FDA69"/><path d="M481 844h5c-1.442 4.152-3.501 7.3-6.125 10.813l-2.195 2.957L476 860c-.976-2.928-1.082-4.956-1-8l-2-1c2-3 2-3 4.625-3.688L480 847l1-3z" fill="#062B09"/><path d="M401 907c2 1.813 2 1.813 4 4v3h5l.313 1.813c.78 2.486 1.836 3.416 3.687 5.187v2l4-1 2 5c-4 0-4 0-6.383-2.152L411 922c-.97-.926-1.946-1.844-2.93-2.754l-2.945-2.808c-.51-.47-1.02-.938-1.547-1.42-1.445-1.397-1.445-1.397-3.578-4.018.18-2.34.18-2.34 1-4z" fill="#6FDF6A"/><path d="m883 825 5 2c-4.47 7.147-9.103 14.138-14 21-.59-1.875-.59-1.875-1-4a125.01 125.01 0 0 1 3-4v-4h3c2.521-2.428 2.986-3.651 3.125-7.188L882 826l1-1z" fill="#063106"/><path d="M397 620c1.458-.027 2.917-.046 4.375-.063l2.46-.035C406 620 406 620 408 621v2l3.125-.188c4.21.204 6.218 1.207 9.875 3.188 2.329.683 4.662 1.35 7 2 1.354.625 2.7 1.272 4 2-2.598 1.299-3.38.774-6.113-.074l-2.517-.77-2.683-.843-2.717-.837a1630.89 1630.89 0 0 1-5.424-1.682 1260.11 1260.11 0 0 0-6.76-2.087c-2.931-.897-5.86-1.8-8.786-2.707v-1z" fill="#6FCD6A"/><path d="M641.332 584.766c7.098-.413 13.658 1.383 19.668 5.234 1.344 2.676 1.344 2.676 2 5l-2.266-1.277-2.984-1.66-2.953-1.653c-3.802-1.917-6.887-2.538-11.125-2.508l-2.422.01-2.5.025-2.547.014c-2.068.012-4.135.03-6.203.049l1-2c3.453-.628 6.847-.884 10.332-1.234z" fill="#7BDD76"/><path d="M442 586c4.143-.244 7.118.582 11 2 1.291.418 2.583.835 3.875 1.25 7.119 2.365 14.112 5.091 21.125 7.75-4.091 1.714-7.461.113-11.39-1.309-.705-.245-1.41-.49-2.136-.744-2.245-.785-4.484-1.584-6.724-2.385-1.523-.535-3.047-1.07-4.57-1.603A2186.73 2186.73 0 0 1 442 587v-1z" fill="#0B3F0B"/><path d="m393 450 2 1-1.215 1.363c-5.084 5.754-9.95 11.673-14.785 17.637l-1-3c1.22-1.485 2.45-2.964 3.742-4.387 1.494-1.715 1.494-1.715 2.195-4.738 1.633-4.418 5.005-5.846 9.063-7.875z" fill="#07230A"/><path d="M326 796c2.926 1.463 3.097 3.41 4.188 6.438l1.105 2.996C332 808 332 808 331 810l-2-1-1 6c-3.418-3.418-2.856-8.338-3-13 .438-3.688.438-3.688 1-6z" fill="#062E07"/><path d="M819 446c3.757 1.628 6.617 4.014 9.75 6.625l2.984 2.477L834 457l-1.86.371c-2.85.838-4.178 2.457-6.14 4.629l-2-4 3-3-2.313-1.25c-2.645-1.723-4.052-3.082-5.687-5.75v-2z" fill="#012502"/><path d="m468 433 5 1 1 3-14 11-1-3h2v-2h2l.875-1.813C465 439 465 439 467 436l1-3z" fill="#71DE6C"/><path d="M556 648c2.266 3.59 2.12 6.387 1.938 10.563-.103 5.802.578 10.543 2.406 16.035.701 2.567.77 4.753.656 7.402-5.56-5.56-6.273-16.107-6.313-23.625.08-3.62.27-6.9 1.313-10.375z" fill="#032F03"/><path d="M747 755h1c.338 3.375.67 6.75 1 10.125.095.951.19 1.903.29 2.883.454 4.683.837 9.28.71 13.992-3.464-3.464-3.953-7.185-4.23-11.98.003-1.403.018-2.805.043-4.207l.001-2.155c.027-3.144.185-5.656 1.186-8.658z" fill="#083909"/><path d="m375.133 615.886 2.777.016 2.998.01 3.155.025 3.166.014c2.59.012 5.18.028 7.771.049l-1 3-2.25-.5c-11.572-1.543-19.474.315-29.75 5.5l1-5c.957-.2.957-.2 1.934-.402l2.504-.536 2.496-.527c2.383-.617 2.72-1.517 5.2-1.649z" fill="#79E273"/><path d="M846 584c-3.489 2.326-7.034 3.411-11 4.625l-2.195.695c-3.034.94-5.61 1.68-8.805 1.68 1.145-3.436 2.418-4.486 5.547-6.215 5.272-1.687 10.985-1.058 16.453-.785z" fill="#042B05"/><path d="M712 817c3.817 3.526 6.728 7.554 9.75 11.75l1.535 2.113c1.242 1.71 2.479 3.423 3.715 5.137l-3 1-2-3h-2l-1-3-1.953-1.332c-2.702-2.202-3.008-4.001-3.797-7.356l-.734-3.011L712 817z" fill="#062E07"/><path d="m507 816 1 3c-1.813 3.188-1.813 3.188-4 6h-2v5l-1.813.688c-2.772 1.663-3.62 3.519-5.187 6.312-1.688 1.813-1.688 1.813-3 3l-2-1c2.27-3.084 4.541-6.167 6.813-9.25l1.947-2.645 1.885-2.558 1.73-2.349A968.073 968.073 0 0 1 507 816z" fill="#71D76B"/><path d="M251 563c1.142 3.425.831 4.317-.215 7.668l-.83 2.705-.893 2.814-.88 2.85c-.72 2.324-1.447 4.644-2.182 6.963-2.19-3.285-2.998-6.207-4-10h5l.184-1.898.254-2.477c.08-.812.162-1.624.246-2.46C248 567 248 567 249 565h2v-2z" fill="#77E872"/><path d="m912 420 8 1 1 3c1.813.62 1.813.62 4 1l2.563 1.063c2.468 1.116 2.468 1.116 5.437.937l2 5c-2.828-.62-5.212-1.492-7.785-2.813l-2.108-1.07-2.17-1.117c-1.427-.731-2.855-1.46-4.285-2.188l-1.906-.98c-1.916-.957-1.916-.957-4.746-1.832v-2z" fill="#76DB73"/><path d="m755 991-2.375.75c-2.948 1.404-3.527 2.257-4.625 5.25h-1v12c-2.623-5.246-4.359-10.083-4-16a210.497 210.497 0 0 1 3.75-1.563l2.11-.878c2.44-.637 3.78-.361 6.14.441z" fill="#083608"/><path d="M763 942c-1.313 2-1.313 2-3 4h-3l-1 3c-3.563 1.188-3.563 1.188-7 2l-1-4a594.74 594.74 0 0 1 5.813-3.063l3.269-1.722C760 941 760 941 763 942z" fill="#75E36F"/><path d="M721 642c4.446 5.456 5.326 10.18 5.25 17.125l.023 2.168c-.014 3.772-.132 5.496-2.273 8.707l-.148-3.508-.227-4.617-.094-2.305c-.235-4.538-.944-8.269-2.531-12.57-.125-2.875-.125-2.875 0-5z" fill="#0B400A"/><path d="m748 401 11 1 1 4c-2.41 1.537-3.5 2.098-6.36 1.54-.788-.303-1.577-.604-2.39-.915l-2.422-.898L747 405l1-4z" fill="#6FEF67"/><path d="M768 931h2c-2.67 6.316-8.825 11.34-15.063 14L752 946l1-4h2v-2l2.188-.125c3.055-.95 3.558-1.51 5.437-3.938L765 933h3v-2z" fill="#083809"/><path d="M691 351c7.11-.292 13.192.73 20.063 2.5l2.912.723c2.344.583 4.685 1.175 7.025 1.777v1h-12v-2l-3.43-.367-4.445-.508-2.262-.238c-5.636-.66-5.636-.66-7.863-2.887z" fill="#75DC6F"/><path d="m745 945 5 1c-5.292 4.602-12.389 6.966-19 9 1-3 1-3 3.063-4.188L736 950l-1-3c3.695-.95 6.305-.95 10 0v-2z" fill="#063007"/><path d="M506 900h3v24l-3-2c-.34-2.247-.34-2.247-.293-5.008l.03-2.988.075-3.129.042-3.152c.035-2.575.084-5.149.146-7.723z" fill="#74DC6C"/><path d="M343 520c.715 1.547.715 1.547 1 4a77.35 77.35 0 0 1-3.438 7.25l-1.025 1.969c-.835 1.6-1.685 3.19-2.537 4.781h-1c-.027-1.625-.046-3.25-.063-4.875l-.035-2.742c.1-2.431.365-3.65 2.098-5.383v-4h2v2h3v-3z" fill="#073008"/><path d="M770 897c5.95 7.934 5.24 15.37 5 25h-1l-1-12h-3v-13z" fill="#0E400F"/><path d="m462 445 2 1-1.438 1.313c-1.799 1.71-1.799 1.71-2.562 4.687l-2.938 1.438c-3.343 1.705-3.604 2.334-5.062 5.562-1.938 1.313-1.938 1.313-4 2l-3-1c1.894-1.752 3.79-3.502 5.688-5.25l1.607-1.488c3.14-2.89 6.337-5.637 9.705-8.262z" fill="#063407"/><path d="m754 273 7 2v-2l2 1 .938 3.313c.964 3.345 1.806 5.124 4.062 7.687-3 0-3 0-5.7-2.371-1.003-1.015-1.999-2.037-2.987-3.067l-1.55-1.564C754 274.154 754 274.154 754 273z" fill="#6DD768"/><path d="m793 973-1 3-7 1-1 3c-2.625 1-2.625 1-6 2-2.356.952-4.673 1.976-7 3l-2-2 1.605-.703c2.404-1.054 4.806-2.113 7.207-3.172l2.526-1.105 2.432-1.075 2.237-.984C791.146 973 791.146 973 793 973z" fill="#0F400F"/><path d="M534 945c12.132-.485 12.132-.485 16.875 3.625L552 950l-1 2c-5.857-1.662-11.459-3.47-17-6v-1z" fill="#07290A"/><path d="M823 640c-.875 3.875-.875 3.875-2 5a71.98 71.98 0 0 1-4.254.535l-2.588.264-2.72.264-2.733.275c-2.235.225-4.47.445-6.705.662 3.506-2.337 7.076-3.412 11.063-4.625l2.22-.695C820.727 640 820.727 640 823 640z" fill="#0D3C0D"/><path d="M771 292c4.851 4.41 8.348 9.58 12 15l-4 1-.875-2.938c-.767-3.169-.767-3.169-3.125-4.062v-3l-4 1c-1.125-4.75-1.125-4.75 0-7z" fill="#0A360B"/><path d="M373 476c1 3 1 3-.074 5.27l-1.613 2.543-1.688 2.667L368 489l-1.188 1.988c-1 1.637-1 1.637-2.812 4.012h-3c1.573-4.728 4.206-8.343 7.125-12.313l1.418-1.955c1.148-1.58 2.302-3.157 3.457-4.732z" fill="#77DC72"/><path d="M700 964c-2.227 2.227-2.924 2.362-5.922 2.852l-2.36.39-2.468.383-2.422.406c-4.322.697-8.435 1.125-12.828.969 2.762-2.762 5.791-2.907 9.5-3.563 12.002-2.187 12.002-2.187 16.5-1.437z" fill="#073907"/><path d="M563 821h2c-1.612 3.536-3.72 6.548-6 9.688l-2.125 2.949C555 836 555 836 553 837c1.558-9.595 1.558-9.595 6-13l1 1 1-2h2v-2z" fill="#76E171"/><path d="m603 539 3 1 3-1c-1.555 4.083-4.25 6.082-7.625 8.75l-3.04 2.422L596 552l-1-3h3l2-4h2l-.625-1.875L601 541l2-2z" fill="#073208"/><path d="M440 1042h7l1 3 1.793.113c5.99.499 9.843 1.523 14.207 5.887-8.492-1.49-16.09-4.686-24-8v-1z" fill="#124911"/><path d="M373 880c4.875 4.625 4.875 4.625 6 8l3 1c1.59 2.217 2.723 4.579 4 7h-2l-2-2h-2l-1.313-2.875c-1.48-3.325-1.48-3.325-4.687-5.125v-2h-2l1-4z" fill="#0C390C"/><path d="M301 473h1c.313 2.25.313 2.25 0 5l-5 4a81.611 81.611 0 0 0-2.5 4.563c-1.938 3.74-3.505 5.725-7.5 7.437 1.622-5.172 4.817-9.065 8.063-13.313.554-.74 1.11-1.48 1.681-2.244 3.028-4.001 3.028-4.001 4.256-5.443z" fill="#073907"/><path d="m714 354 2.922.254 3.828.308 3.797.317c2.848.1 4.796.027 7.453-.879l1 3 3 2c-3.185 1.035-5.13.94-8.328.004l-2.422-.693-2.5-.748-2.547-.737c-2.07-.6-4.137-1.212-6.203-1.826v-1z" fill="#0A380A"/><path d="M480 594h9l-2 3h-2l1.313 1.313L491 603a716.06 716.06 0 0 1-4.813-1.375l-2.707-.773C481 600 481 600 478 598l3-1 1-2-2-1z" fill="#0A310C"/><path d="m534 864 2 1-1.063 1.875L534 869l1 2h-3v4c-4.071 3-4.071 3-7 3 1.548-3.347 3.491-6.247 5.625-9.25l1.914-2.703L534 864z" fill="#073208"/><path d="m506 668 2 1c.407 2.322.744 4.657 1 7h2a786.21 786.21 0 0 1 1.563 6.313l.878 3.55C514 689 514 689 513 692c-7-16.7-7-16.7-7-24z" fill="#76DE71"/><path d="M660 593c1.816 1.119 3.628 2.245 5.438 3.375l3.058 1.898C671 600 671 600 672 602l-3 1-1 3h-3l.313-3.313L665 599c-2.427-1.79-2.427-1.79-5-3v-3z" fill="#032605"/><path d="M440 464c0 3 0 3-1.313 4.375L437 470l-1.563 2.688L434 475h-2l-.75 1.938C430 479 430 479 427.875 479.75L426 480c2.286-4.268 5.236-7.477 8.688-10.813l1.548-1.521A863.826 863.826 0 0 1 440 464z" fill="#0E430E"/><path d="M764 411c6.579 2.193 12.15 5.295 18 9l-2 3c-6.875-3.75-6.875-3.75-8-6-1.88-1.122-1.88-1.122-4.063-2.125l-2.222-1.07L764 413v-2z" fill="#053205"/><path d="M460 875v2h-6v2c-6.65.25-12.57-.26-19-2v-1l3.324.035 4.363.028 2.186.025C450.031 876.11 454.886 875 460 875z" fill="#7AE075"/><path d="M560 682c2.626 3.94 3.77 8.01 5.188 12.5l.865 2.629.802 2.527.74 2.307C568 704 568 704 567 707l-2-1c-.531-2.172-.531-2.172-1-5-.487-2.086-.988-4.17-1.5-6.25l-.781-3.203c-.471-2.462-.471-2.462-1.719-3.547-.04-2-.043-4 0-6z" fill="#6ECE6B"/><path d="M911 619h6l1 4 2.313.313c2.884.737 4.042 1.22 5.687 3.687-.43 2.105-.43 2.105-1 4l-1.793-1.645-2.394-2.168-2.356-2.144c-2.374-1.974-4.806-3.475-7.457-5.043v-1z" fill="#72D46E"/><path d="M671 598a659.585 659.585 0 0 1 5.313 3.25l2.988 1.828c2.528 1.8 4.026 3.34 5.699 5.922l-1 2a819.935 819.935 0 0 1-6.5-4.813l-1.879-1.369c-1.596-1.201-3.115-2.505-4.621-3.818v-3z" fill="#76D971"/><path d="m342 525 2 3-1 1-.25 3.188c-.94 4.78-2.349 6.41-5.75 9.812h-2c1.833-6 4.073-11.45 7-17z" fill="#75DC6F"/><path d="m559 253 1 4c-3.38 2.974-6.67 3.918-11 5l-2.438.625L545 263c2.833-3.045 5.655-5.169 9.25-7.25l2.703-1.578L559 253z" fill="#052906"/><path d="M781 977c-5.507 6.111-14.312 8.716-22 11v-2c4.045-3.033 8.152-3.932 13-5v-2c3.135-1.858 5.375-2.201 9-2z" fill="#73D46E"/><path d="m610 600 4 2h-2l-.688 2.438C610 607 610 607 607.625 607.875 605 608 605 608 601 607l9-7z" fill="#072E0A"/><path d="m450 1047 2.16.621c5.28 1.485 10.387 2.773 15.84 3.379v1l-2.59.148-3.348.227c-1.102.07-2.204.14-3.34.21L456 1053l-1 2-4-2 1-2h2v-2h-4v-2z" fill="#77E272"/><path d="M894 816c.746 1.578.746 1.578 1 4a66.328 66.328 0 0 1-3.938 6.75l-1.17 1.824A429.257 429.257 0 0 1 887 833l-3-1 3.875-6.313 1.105-1.802A252.461 252.461 0 0 1 894 816z" fill="#73DD6D"/><path d="m500 817 6 1a348.275 348.275 0 0 1-2.813 4.5l-1.582 2.531L500 827h-3c.75-6.625.75-6.625 3-10z" fill="#062807"/><path d="M890 527c4.216 4.216 5.858 7.463 6.188 13.348 0 3.223-.057 6.432-.188 9.652h-1v-11l-3-1-2-11z" fill="#093809"/><path d="m363 423 2 1-2 5 4 1v2h-3v-2l-2.875-.313C358 429 358 429 356 426a135.916 135.916 0 0 1 7-3z" fill="#06170C"/><path d="m783 421 11 6v3c-2.667 1.333-4.167.671-7 0l-1-3-1.563-2.063C783 423 783 423 783 421z" fill="#042707"/><path d="m892 999 2 4-3-1-.688 2.125c-1.629 3.568-3.718 5.94-6.312 8.875l-4-1 1.61-1.574c3.7-3.654 7.262-7.255 10.39-11.426z" fill="#6FD46A"/><path d="M1006 717h2c-1.328 3.984-3.226 4.88-6.723 6.992-3.581 1.585-6.41 1.353-10.277 1.008 1.574-3.148 4.271-3.387 7.5-4.563 4.041-1.213 4.041-1.213 7.5-3.437z" fill="#6FD26D"/><path d="m289 486 2 2-10 15c-1-4-1-4 0-6h2l.25-3.375L284 490c2-1.313 2-1.313 4-2l1-2z" fill="#74DB6F"/><path d="m864 1026 2 1-1 3h-2v2c-2.958 2.054-5.536 3.164-9 4l-2 2-2-2 2.555-1.68 3.32-2.195 3.305-2.18c2.804-1.809 2.804-1.809 4.82-3.945z" fill="#70D76C"/><path d="M251 691h3l.875 2.438c.858 2.695.858 2.695 3.125 3.562v2h2v5l3 1-2 2c-4.065-5.095-7.253-10.084-10-16z" fill="#043104"/><path d="M388 617v1l-2.266.148-2.984.227c-.975.07-1.95.14-2.953.21-2.73.405-4.373 1.183-6.797 2.415h-4l-2 4h-5c6.414-8.163 16.427-8.592 26-8z" fill="#21601F"/><path d="M900.813 991.625 903 992l-2 1-.25 1.75c-1.185 3.554-3.812 5-6.75 7.25-.813-1.625-.813-1.625-1-4 3.82-5.843 3.82-5.843 7.813-6.375z" fill="#76E470"/><path d="m439 873 1.68.473 2.195.59 2.18.597c2.018.551 2.018.551 3.945-.66 1.54-.07 3.083-.085 4.625-.063l2.477.028L458 874c-2.961 2.961-5.802 2.96-9.895 3.098l-2.918-.035-2.957-.028L440 877l-1-4z" fill="#09390A"/><path d="m867 852 3 1-11 13-1-4c2.188-2.438 2.188-2.438 5-5a206.108 206.108 0 0 0 4-5z" fill="#073408"/><path d="M1026 554c3 2 3 2 3.75 5.5.25 3.5.25 3.5-.75 5.5h2v7c-2.004-3.006-3.03-5.592-4.188-9l-1.105-3.188C1025 557 1025 557 1026 554z" fill="#77E371"/><path d="M927 517c3 1 3 1 4.422 3.215l1.328 2.722 1.36 2.715L935 528l-1 2c-1.813-.5-1.813-.5-4-2-1.86-3.602-3-6.938-3-11z" fill="#6DD969"/><path d="M397 516c2 3 2 3 1.625 5.688L398 524h-4l-1 3-3 1c1.557-4.671 4.084-8.087 7-12z" fill="#052509"/><path d="m313 455 3 1c-1.381 3.127-2.979 5.2-5.438 7.563l-1.808 1.753L307 467a797.268 797.268 0 0 0-3 3c-.688-1.813-.688-1.813-1-4 1.25-1.75 1.25-1.75 3-3h3v-2h2l2-6z" fill="#72DA6D"/><path d="M746 1009c2.74 3.325 4.424 6.83 6.188 10.75.53 1.17 1.06 2.34 1.605 3.547L755 1026c-3-1-3-1-4.625-3.813-1.055-2.445-1.875-4.59-2.375-7.187h-2v2h-2l2-8z" fill="#6ED568"/><path d="m771 677 2 1c-2.16 7.394-4.53 14.704-7 22h-1c.552-6.067 1.937-11.284 4-17l1.188-3.563L771 677z" fill="#71D06D"/><path d="M692 617c7.571 4.143 7.571 4.143 10 7l-3 1v-2l-1.75.625c-2.77.462-3.896-.196-6.25-1.625l1-5z" fill="#062709"/><path d="m665 525 9 18-3-1v-2l-3-1c-3.675-4.356-3.317-8.604-3-14z" fill="#6CCE69"/><path d="m517 280 5 1c-.556 3.6-1.749 5-4.563 7.25l-1.94 1.578L514 291v-5l3 1v-4l-2 1 2-4z" fill="#6FE36B"/><path d="m387 998 5 1v4l4 1v2c1.96 1.637 1.96 1.637 4 3l-1 3a757.203 757.203 0 0 1-4.313-4.188l-2.425-2.355c-2.173-2.36-3.723-4.653-5.262-7.457z" fill="#093809"/><path d="m876 909 1 3-3 2-1.438 2.438c-1.618 2.653-2.863 4.044-5.562 5.562l-3-1 3-1c.685-1.324 1.349-2.66 2-4 2-2.25 2-2.25 4-4h2l1-3z" fill="#114511"/><path d="m819 873 1.66.621c7.77 2.64 15.194 3.064 23.34 3.379-4.004 2.82-8.123 2.009-12.75 1.625l-2.402-.172A694.33 694.33 0 0 1 823 878v-2l-4-1v-2z" fill="#7DE078"/><path d="M915 496c3.848 3.42 6.606 7.468 9 12v2l-4-1v-5l-1.938-.938C916 502 916 502 915 501a99.984 99.984 0 0 1 0-5z" fill="#6FD569"/><path d="M497 424c-1.186 3.375-2.276 5.647-5 8-2-1-2-1-3-4l-2-1c6.625-4.125 6.625-4.125 10-3z" fill="#0B2B0D"/><path d="M798 336c2.494 2.494 3.106 4.836 4.219 8.125.723 2.07.723 2.07 2.781 3.875.125 3.125.125 3.125 0 6l-3-1c-1.168-2.8-1.168-2.8-2.188-6.313l-1.042-3.488C798 340 798 340 798 336z" fill="#74D76F"/><path d="m576 244 2 1c-1.353 2.706-2.81 2.962-5.563 4.125l-2.503 1.07L568 251v2h-8c3.179-2.55 6.493-4.412 10.125-6.25l3.195-1.64L576 244z" fill="#083609"/><path d="m895 888 1 2-3.71 4.297c-1.361 1.674-1.361 1.674-2.227 3.703-1.244 2.34-2.642 3.583-4.688 5.25l-1.914 1.578L882 906l-2-1 1.25-1.18c5.069-4.91 9.432-10.246 13.75-15.82z" fill="#0B420B"/><path d="m480 1047 6 2-1 3h-17v-1h12l-1-3 1-1z" fill="#052A06"/><path d="m737 953 2 6-10-1v-3c2.906-1.257 4.796-2 8-2z" fill="#72E16D"/><path d="M745 762h1l.113 2.273c.448 6.963 1.572 13.145 3.887 19.727h-3c-1.991-4.97-2.248-9.123-2.125-14.375l.027-2.23c.024-1.799.06-3.597.098-5.395z" fill="#6FD16A"/><path d="M446 635c5.569.48 10.67 1.3 16 3-2.549 1.67-3.693 2.043-6.762 1.61l-2.925-.86-2.95-.828C447 637 447 637 446 635z" fill="#70D86C"/><path d="M527 602c-1.56.651-3.123 1.296-4.688 1.938l-2.636 1.09c-4.394 1.597-8.327 2.097-12.989 2.034l-2.675-.027L502 607v-1l2.527-.332c6.164-.869 11.872-1.872 17.668-4.18C524 601 524 601 527 602z" fill="#164F15"/><path d="M597 393c11.424 6.272 11.424 6.272 13 11h-2l-1-2h-3a141.488 141.488 0 0 1-5-5l-2-1v-3z" fill="#09380A"/><path d="M793 385c5.31 1.46 9.463 3.983 14 7l-1 2-2.063-1.313c-2.264-1.3-4.28-2.25-6.687-3.187L794 388l-1-3z" fill="#78DD72"/><path d="M882 899h2c-.576 3.5-1.752 5.088-4.313 7.5l-1.898 1.816L876 910l-2.438 2.438L872 914l-1-2a832.31 832.31 0 0 1 3.313-3.875l1.863-2.18C878 904 878 904 881 902l1-3z" fill="#7AE275"/><path d="m854 870 2 3h-3l-2 4h-11a128.013 128.013 0 0 1 7.563-3.5c3.468-1.394 3.468-1.394 6.437-3.5z" fill="#72D76C"/><path d="M982 476c3.432 1.144 4.047 2.025 6.125 4.875l1.57 2.117C991 485 991 485 992 488h-3c-1.824-2.117-1.824-2.117-3.688-4.875l-1.886-2.742C982 478 982 478 982 476z" fill="#78D973"/><path d="M861 422v2h-2l2 5-2 2-5-6c2.5-3 2.738-3 7-3z" fill="#0B3D0C"/><path d="M692 238c3.662.627 6.882 1.645 10.313 3.063l2.675 1.097L707 243v1c-5.372 1.22-5.372 1.22-8.313.188C697 243 697 243 696 241c-2.527-.656-2.527-.656-5-1l1-2z" fill="#073607"/><path d="M802 854h2v2h2l.25 1.875c.543 2.292.543 2.292 2.688 3.188L811 862l2 3-1 3c-4.09-4.414-7.635-8.434-10-14z" fill="#063707"/><path d="M479 370h1c.197 1.415.382 2.832.563 4.25l.316 2.39c.121 2.365-.183 4.111-.879 6.36l4 1-6 2c-.097-5.447-.129-10.639 1-16z" fill="#1A5A19"/><path d="M507 301c1 3 1 3-.145 5.48l-1.668 2.707-1.644 2.731L502 314h-2v3h-2c1.433-3.96 3.331-7.287 5.625-10.813l1.914-2.957L507 301z" fill="#0B400A"/><path d="M510 293h2c-.603 3.705-2.225 5.86-4.563 8.75l-1.94 2.422L504 306l-1-2c1.016-3.047 2.208-5.311 4-8h2l1-3z" fill="#74DE73"/><path d="m530 993 7 2-2 10h-1l-.488-6.055c-.386-2.34-.386-2.34-3.512-3.945v-2z" fill="#063906"/><path d="M931 938h1c-.752 8.878-.752 8.878-4 13l-3 1c1.492-4.972 3.605-9.418 6-14z" fill="#6AD066"/><path d="M557 832c1 3 1 3-.25 6-1.441 2.471-2.606 4.163-4.75 6l-3-1 8-11z" fill="#0A390B"/><path d="m576 809 2 1c-1 3-1 3-3.063 4.188L573 815l1 4-7 1c1.408-3.215 3.103-5.322 5.625-7.75l1.914-1.86L576 809z" fill="#0C3B0D"/><path d="m500 660 4 5-2 4-4-3c.875-4.875.875-4.875 2-6z" fill="#09270B"/><path d="m692 616 8 2v2l3 1v2h2l-1 3a2094.717 2094.717 0 0 1-6-4.438l-1.734-1.275A197.945 197.945 0 0 1 692 617v-1z" fill="#6BCF67"/><path d="M243 583h2c.841 4.018 1.054 7.018 0 11l-3-1c-.027-1.48-.046-2.958-.063-4.438l-.035-2.496C242 584 242 584 243 583z" fill="#6DE765"/><path d="m398 568 3 1v2l3-1c2.718.906 3.75 1.535 5.121 4.082L410 576c-9.595-2.706-9.595-2.706-13-7l1-1z" fill="#083708"/><path d="M541 361c0 3 0 3-1.5 4.688L538 367l-2-1v-1l-6-1c7.286-4.857 7.286-4.857 11-3z" fill="#69D765"/><path d="m410 918 3 1c.688 2.063.688 2.063 1 4l4-1 2 5c-4 0-4 0-6.688-2.25-2.076-2.47-2.965-3.625-3.312-6.75z" fill="#6AD665"/><path d="m915 768 3 2-3 8-3-1c.498-3.735.875-5.812 3-9z" fill="#092C0C"/><path d="M327 554h2c-1.765 6.107-3.696 12.074-6 18h-1c.433-6.82 1.908-11.916 5-18z" fill="#033203"/><path d="m896 458-.563 2.313c-.665 2.777-.665 2.777.563 5.687h-3c-1.387-1.531-1.387-1.531-2.688-3.5l-1.324-1.969L888 459c5.75-1 5.75-1 8-1z" fill="#072E08"/><path d="M353 429c-1 3-1 3-3 5a88.982 88.982 0 0 0-2 4l-1-2c-2.017-1.134-2.017-1.134-4-2 1.288-.839 2.58-1.67 3.875-2.5l2.18-1.406C351 429 351 429 353 429z" fill="#09350A"/><path d="M498 418h3v2l-15 8v-3l2.813-1.375c3.226-1.567 3.226-1.567 6.187-3.625h3v-2z" fill="#73D76E"/><path d="m515 409 3 1c-1.322 2.645-2.645 2.978-5.313 4.188l-2.363 1.105c-2.58.785-3.82.606-6.324-.293h2v-2l2.438-.375L511 412l1-2 3 1v-2z" fill="#78DD74"/><path d="M797 386h7l1 2 3-1v5c-3.791-1.45-7.387-3.152-11-5v-1z" fill="#093508"/><path d="M483 352h1c.554 11.522.554 11.522-3 17-1.447-3.872-.544-6.823.438-10.75l.87-3.547L483 352z" fill="#0F450E"/><path d="M519 286c0 6 0 6-1.75 7.824l-2.25 1.863-2.25 1.887L511 299l-2-1a10881.1 10881.1 0 0 1 4.438-5.438l2.496-3.058C518 287 518 287 519 286z" fill="#093B09"/><path d="M527 277c0 3.929-1.003 7.199-2 11h-3c-.684-1.766-.684-1.766-1-4 1.215-1.922 1.215-1.922 2.938-3.75l1.714-1.86L527 277z" fill="#0D350F"/><path d="M435 942c1.816 1.119 3.628 2.245 5.438 3.375l3.058 1.898C446 949 446 949 447 951l-6-1v-2l-5-1-1-5z" fill="#073106"/><path d="M332 896c1.735 2.603 2.652 4.523 3.625 7.438.26.761.52 1.523.79 2.308C337 908 337 908 337 912h-2c-2.45-5.717-3.333-9.79-3-16z" fill="#6ECF6B"/><path d="m807 862 2.188 2.25c2.5 2.445 5.064 4.596 7.812 6.75l2 2c-4.832-.45-7.631-1.439-11-5-.813-3.25-.813-3.25-1-6z" fill="#78D773"/><path d="M939 818h1c.125 7.75.125 7.75-1 10a78.037 78.037 0 0 1-5 2c1.31-4.234 2.944-8.074 5-12z" fill="#0B340C"/><path d="m278 720 15 5v1c-5.638.226-9.947-.473-15-3v-3z" fill="#79DF75"/><path d="M248 686c2.774 3.467 4.96 7.064 7 11-1 2-1 2-4 4v-8h-2l-1-7z" fill="#6BCE66"/><path d="M635 587c2.062-.054 4.125-.093 6.188-.125l3.48-.07c3.25.19 5.419.801 8.332 2.195v1c-12.67-.964-12.67-.964-18-2v-1z" fill="#0D440C"/><path d="M272 512h2c-.581 3.76-1.652 6.53-3.563 9.813l-1.378 2.394c-.35.592-.7 1.183-1.059 1.793l-2-1v-2h2l.621-2.152.817-2.785.808-2.778C271 513 271 513 272 512z" fill="#7BE175"/><path d="m387 456 3 1-11 13-1-3 1.715-1.898 2.223-2.477 2.214-2.46c1.878-2.024 1.878-2.024 2.848-4.165z" fill="#053505"/><path d="M674 234c5.569.48 10.67 1.3 16 3v2l-1.813-.563c-2.351-.658-2.351-.658-5.187.563v-2h-5v-2l-4-1z" fill="#063107"/><path d="m783 1049 9 2c-3.035 2.024-4.194 2.321-7.688 2.625l-2.449.227L780 1054l1-3h2v-2z" fill="#68E562"/><path d="M773 927c1.188 1.688 1.188 1.688 2 4-1.188 2.75-1.188 2.75-3 5h-3c.53-3.821 1.497-6.062 4-9z" fill="#78E473"/><path d="m566 820 1 3-1 2h-2l-.75 2.938L562 831c-2.125.875-2.125.875-4 1 2.384-4.342 4.781-8.206 8-12z" fill="#0A3C0B"/><path d="M385 809c3.332 2.697 4.604 6.02 6 10l-1 4-7-13 2-1z" fill="#073707"/><path d="M699 743a654.039 654.039 0 0 1-3.813 3.438l-2.144 1.933C691 750 691 750 688 751c.39-2.465.732-3.733 2.523-5.52l1.852-1.293 1.836-1.332C696 742 696 742 699 743z" fill="#083B08"/><path d="M981 723h9l-1 2c-3.776 1.082-7.405 1.105-11.313 1.063l-3.238-.028L972 726v-1h9v-2z" fill="#184D16"/><path d="M408 500c1 2 1 2 .398 3.875L407.375 506l-.977 2.125c-1.804 2.42-3.568 2.972-6.398 3.875a4189.25 4189.25 0 0 1 3.438-5.438l1.933-3.058C407 501 407 501 408 500z" fill="#0B3A0C"/><path d="M972 466c4.218 3.97 7.612 8.308 11 13-2.375-.188-2.375-.188-5-1-1.188-2.313-1.188-2.313-2-5a174.883 174.883 0 0 0-2-4h-2v-3z" fill="#0C3D0C"/><path d="M755 368c5.07.654 9.42 2.855 14 5-3.652 1.072-6.264.764-10 0v-2c-1.96-1.637-1.96-1.637-4-3z" fill="#7CE476"/><path d="m541 262 4 1-10 8-2-3c3-2 3-2 6-2l2-4z" fill="#71D56D"/><path d="M406 1020c4.875 1.875 4.875 1.875 6 3 .04 2 .043 4 0 6h-2l-1-5h-5c0-2 0-2 2-4z" fill="#7AE973"/><path d="m679.25 968.875 2.703.055L684 969l-2 4-12-2c3.868-1.934 5.15-2.233 9.25-2.125z" fill="#78E772"/><path d="m436 942 7 2v2l2.438.75L448 948c.66 2.078.66 2.078 1 4-9.595-6.15-9.595-6.15-13-10z" fill="#6ED06B"/><path d="M521 940c3.494.724 6.52 2.063 9.75 3.563l2.984 1.378L536 946v2l-5-1v-2l-2.188-.375c-2.77-.615-5.209-1.51-7.812-2.625v-2z" fill="#78DB71"/><path d="M863 922c.873 2.445 1.102 3.677.313 6.188C862 930 862 930 859.875 930.75L858 931c.48-4.314 1.746-6.166 5-9z" fill="#072B09"/><path d="M524 878c1 3 1 3 .375 4.875-1.786 2.76-3.995 4.87-6.375 7.125l-2-1 8-11z" fill="#0A390A"/><path d="M533 779c1.374 3.122.891 4.338-.188 7.688-1.812 3.312-1.812 3.312-4 4.25L527 791c1.566-4.308 3.683-8.062 6-12z" fill="#78D874"/><path d="m528 600 3 3-1 3h-7v-3c2.5-1.688 2.5-1.688 5-3z" fill="#6DE464"/><path d="m726 577 3 1v2h3v5c-6.875-3.75-6.875-3.75-8-6h2v-2z" fill="#092C0C"/><path d="M1018 540c3.209 3.903 3.943 7.12 5 12-1.953-.68-1.953-.68-4-2-.61-2.383-.61-2.383-.75-5.125l-.172-2.758L1018 540z" fill="#093B09"/><path d="M992 492c2.918 2.627 4.945 5.67 7 9v2h-4c-.504-1.457-1.003-2.916-1.5-4.375l-.844-2.46C992 494 992 494 992 492z" fill="#0C3D0D"/><path d="m548 400-1 4-13 1c2.645-1.763 4.592-2.656 7.563-3.625.785-.26 1.57-.52 2.378-.79C546 400 546 400 548 400z" fill="#0A390A"/><path d="M369 976c3.636 3.434 6.361 6.797 9 11l-4-2v-2h-2v-2l-4 1 1-6z" fill="#6DD568"/><path d="m908 973 4 2-8 10-1-3h2v-3h2l-.063-2.438C907 974 907 974 908 973z" fill="#0B3E0A"/><path d="M598 966a668.813 668.813 0 0 1 15 2v2c-1.938-.141-3.875-.288-5.813-.438-1.078-.08-2.157-.162-3.269-.246C601 969 601 969 598 968v-2z" fill="#6ED06A"/><path d="m818 958-1 3h-3l-1 3h-4v2l-4-1c1.788-1.172 3.58-2.338 5.375-3.5l3.023-1.969C816 958 816 958 818 958z" fill="#0E400E"/><path d="M510 925a111.35 111.35 0 0 1 5 7.063c1.56 2.292 2.958 4.099 5 5.937-4 0-4 0-6.688-2.563-2.555-3.284-3.063-6.281-3.312-10.437z" fill="#6BCA67"/><path d="m371 877 2 1c-.432 4.752-1.328 6.92-5 10 .551-3.95 1.39-7.35 3-11z" fill="#07230B"/><path d="M515 700c2.01 3.015 2.726 5.215 3.625 8.688.26.993.52 1.987.79 3.011.192.76.386 1.519.585 2.301l-4-1-.684-6.055c-.229-2.019-.229-2.019-1.316-3.945l1-3z" fill="#073807"/><path d="m847 585-2 5-6-1v-3c2.892-.826 4.887-1 8-1z" fill="#75DE6F"/><path d="M249 573c1.187 3.71 1.346 7.128 1 11-2 2.438-2 2.438-4 4 .551-5.239 1.43-9.974 3-15z" fill="#134713"/><path d="m888 522 3 1v2h2a210.497 210.497 0 0 1 1.563 3.75l.878 2.11C896 533 896 533 895 537l-7-15z" fill="#77D872"/><path d="M984 481c3.394 3.126 5.606 5.565 7 10l-3 1a417.885 417.885 0 0 1-2-3.813l-1.125-2.144C984 484 984 484 984 481z" fill="#073508"/><path d="m419 422 4 1c-1.517 4.55-5.169 6.5-9 9v-3h2v-2l3-3v-2z" fill="#093B08"/><path d="M528 403h8c-2.35 2.35-3.957 2.731-7.125 3.625l-2.758.79L524 408l-1-2 5-1v-2z" fill="#79E173"/><path d="M847 1039v2h-2v2l-8 3-2-2c1.622-.838 3.248-1.67 4.875-2.5l2.742-1.406C845 1039 845 1039 847 1039z" fill="#70D46B"/><path d="m435 1034 3 1-1 5a101.168 101.168 0 0 1-6-2l-1-2 3-1 2 1v-2z" fill="#072F08"/><path d="M531 1013h4v7h-3l-1-2-2 1 2-6z" fill="#66E060"/><path d="M379 989c3.636 3.434 6.361 6.797 9 11h-3l-.75-2.438c-.972-2.733-.972-2.733-3.375-3.375L379 994v-5z" fill="#73DA6F"/><path d="M479 969c6.523.615 6.523.615 8.938 2.563L489 973l-1 2c-3.937-1.312-6.227-2.92-9-6z" fill="#72D86D"/><path d="M741 856c3 0 3 0 5.125 1.563 2.389 3.105 2.579 5.584 2.875 9.437-3.67-3.277-5.693-6.715-8-11z" fill="#73D46F"/><path d="M578 736c3.875 4.75 3.875 4.75 5 7l-5 1-2-5h2v-3z" fill="#6ADC64"/><path d="M361 625c0 3 0 3-1 6h-2l-.938 1.875L355 637l-2-1c2.307-4.285 4.33-7.723 8-11z" fill="#073607"/><path d="m691 609 4 2-3 5-5-3 4-4z" fill="#72E16C"/><path d="M256 552c1.714 5.14.063 9.186-2 14h-2a347267316.923 347267316.923 0 0 0 2.246-8.3A120.773 120.773 0 0 1 256 552z" fill="#0A3C09"/><path d="m257 546 2 1-5 13-2-1 1-5h2l.438-2.313C256 549 256 549 257 546z" fill="#76DB72"/><path d="M939 540h2l3 9-2 2c-3-6.5-3-6.5-3-11z" fill="#6FD469"/><path d="M271 519c.688 1.688.688 1.688 1 4-1.375 2.5-1.375 2.5-3 5l-.5 2.25-.5 1.75-3 1c1.54-5.015 3.03-9.615 6-14z" fill="#0E460D"/><path d="M391 522c1 3 1 3 .223 4.824L388 532h-1l-1-7h2v-2l3-1z" fill="#76E670"/><path d="M918 499c1.75.063 1.75.063 4 1 1.767 2.254 2.77 4.358 4 7l-1 3c-2.957-3.467-5.078-6.869-7-11z" fill="#063706"/><path d="m468 433 5 1 1 3-4 2v-2l-3-1 1-3z" fill="#6CE565"/><path d="M524 365c-2.35 2.35-3.957 2.731-7.125 3.625-.91.26-1.82.52-2.758.79L512 370v-2c4.276-3.563 6.599-4.543 12-3z" fill="#053205"/><path d="M752 272c4.136 3.381 7.813 6.666 11 11-3.601-1.662-6.866-3.562-10-6-.875-2.75-.875-2.75-1-5z" fill="#012E01"/><path d="M605 234c-3.004 2.003-4.71 2.493-8.188 3.125l-2.73.508L592 238l2-3 3 1v-2c3.29-1.097 4.713-.8 8 0z" fill="#73DC6D"/><path d="M674 232c1.418.115 2.834.243 4.25.375.789.07 1.578.14 2.39.21 2.446.43 4.208 1.201 6.36 2.415-3.272 1.073-5.43.893-8.75.063l-2.422-.59L674 234v-2z" fill="#6DCC68"/><path d="m714 962-2 1v2l-9 1 1-3c3.473-1.158 6.36-1.069 10-1z" fill="#70D76B"/><path d="M773 917h1c.346 5.654-.566 9.03-3 14-1.238-3.576-.75-6.337 0-10h2v-4z" fill="#032E03"/><path d="m422 866 5 5h-8c.375-1.938.375-1.938 1-4l2-1z" fill="#6FE467"/><path d="M306 701c2.192 2.367 2.987 3.517 3.074 6.797l-.387 2.953-.363 2.984L308 716h-1c-1.036-5.05-1.103-9.874-1-15z" fill="#5AB95A"/><path d="M349 700c2.353 4.707 2.171 6.87 2 12l-3-1 1-11z" fill="#79E474"/><path d="m789 652 1 3-2.875 1.75c-2.886 2.078-3.966 3.005-5.125 6.25l-2-1c1.382-3.21 2.924-5.05 5.625-7.25l1.914-1.578L789 652z" fill="#0B3B0B"/><path d="M966 624h4c-.553 4.03-1.156 8.02-2 12h-1l-1-12z" fill="#093709"/><path d="M242 604h1c1 5.963 1.066 10.287-1 16h-1l1-16z" fill="#0F440F"/><path d="M652 588c6.4.492 6.4.492 9.438 3.063L663 593l-1 2-2.75-1.875c-2.4-1.569-4.66-2.93-7.25-4.125v-1z" fill="#6DCF68"/><path d="m332 439 4 1-9 8-1-4 2.438-1.375c2.65-1.372 2.65-1.372 3.562-3.625z" fill="#6FCD6B"/><path d="m777 417 2.188.438L782 418l5 1 1 5-11-6v-1z" fill="#70D26B"/><path d="m681 394 1 2-1.61 1.172c-3.718 2.742-7.243 5.42-10.39 8.828 1.346-4.281 3.02-6.186 6.625-8.813l2.477-1.832L681 394z" fill="#124E11"/><path d="M787 316c2.972 2.548 4.415 5.453 6 9v2h-3l-1-7h-2v-4z" fill="#0C3E0C"/><path d="M781 297c1.649 2.968 2.567 5.625 3 9l-1 3c-2.693-3.815-3.424-6.335-3-11l1-1z" fill="#78E672"/><path d="M740 265c2.664-.392 4.392-.406 6.668 1.113 1.483 1.25 2.912 2.566 4.332 3.887l-4 2-2-3c-2.552-1.205-2.552-1.205-5-2v-2z" fill="#072E08"/><path d="M724 252c1.794.954 3.585 1.913 5.375 2.875l3.023 1.617C735 258 735 258 737 260l-3 1c-2.48-1.363-2.48-1.363-5.188-3.313l-2.73-1.925L724 254v-2z" fill="#073607"/><path d="m847 1035 3 2c-6.75 4-6.75 4-9 4 1.049-2.622 1.65-3.794 4.125-5.25L847 1035z" fill="#052F06"/><path d="M798 968v2c-1.264.7-2.537 1.384-3.813 2.063l-2.144 1.16C790 974 790 974 787 973c1.29-2.58 2.27-2.67 4.938-3.625.71-.26 1.42-.52 2.152-.79C796 968 796 968 798 968z" fill="#77DC72"/><path d="m835 945 2 1c-1.063 2.438-1.063 2.438-3 5-3.688.813-3.688.813-7 1 2.516-2.606 5.051-4.894 8-7z" fill="#0B3C0C"/><path d="M768 931h2c-1.491 3.795-3.757 5.61-7 8 0-4 0-4 2-6h3v-2z" fill="#042E05"/><path d="M514 807h2l-1 5h-3v2l-4 1c.95-1.339 1.91-2.671 2.875-4l1.617-2.25L514 807z" fill="#73DD6D"/><path d="M323 795c3 3 3 3 3.145 4.938-.11.68-.22 1.36-.332 2.062l-.293 2.063C325 806 325 806 323 809v-14z" fill="#6DCF66"/><path d="M759 718h1c.286 8.571.286 8.571-2 12h-2l3-12z" fill="#0C430D"/><path d="m570 708 .25 1.875c.563 2.31.563 2.31 2.813 3.375L575 714l-2 6c-1.963-3.505-2.959-7.134-4-11l1-1z" fill="#0B330B"/><path d="M1021 704c1.125 3.75 1.125 3.75 0 6-2.314.73-4.648 1.401-7 2l2.938-3.438 1.652-1.933A49.663 49.663 0 0 1 1021 704z" fill="#6ED76B"/><path d="M1028 692c1 4 1 4-.188 7.188C1026 702 1026 702 1022 703l6-11z" fill="#6CD067"/><path d="M723 675h1c.492 7.385.492 7.385-2 10.5l-2 1.5c.308-1.813.621-3.626.938-5.438l.527-3.058C722 676 722 676 723 675z" fill="#77E072"/><path d="M923 629c3.483 3.019 4.792 5.57 6 10-1.875-.5-1.875-.5-4-2-.985-2.652-1.46-5.205-2-8z" fill="#093A0A"/><path d="M872 625c-1.563 2.063-1.563 2.063-4 4-3.75-.25-3.75-.25-7-1 7.286-4.857 7.286-4.857 11-3z" fill="#0F470F"/><path d="M1034 588h1c.365 1.748.716 3.498 1.063 5.25l.597 2.953c.324 2.665.195 4.286-.66 6.797-2.351-3.527-2.214-5.029-2.125-9.188l.055-3.292.07-2.52z" fill="#0E440E"/><path d="m620 593 3 1 1 4h-9l5-5z" fill="#042905"/><path d="M245 589c2 3 2 3 1.813 6.5-.777 3.344-1.128 4.516-3.813 6.5.52-4.38 1.057-8.688 2-13z" fill="#0D3F0E"/><path d="m542 587 3 2-8 5c0-3 0-3 2-6l3-1z" fill="#083408"/><path d="M259 533c2.302 3.452 2.345 4.947 2 9l-2 2c-2.215-5.292-2.215-5.292-1.125-8.875L259 533z" fill="#77EC72"/><path d="M859 431c4.274 1.583 6.265 4.506 9 8h-3l-.75-1.938c-1.066-2.25-1.066-2.25-3.375-2.812L859 434v-3z" fill="#70D46B"/><path d="m340 436 2 1c-4.937 6.705-4.937 6.705-9.375 7.938L330 445c3.17-3.26 6.4-6.222 10-9z" fill="#073707"/><path d="M804 393h2v2l4-2v7l-2-2h-4v-5z" fill="#6BF661"/><path d="m563 251-8 5-1-4c5.625-2.125 5.625-2.125 9-1z" fill="#77DD74"/><path d="M346 930h2a210.497 210.497 0 0 1 1.563 3.75l.878 2.11C351 938 351 938 350 942l-5-11 1-1z" fill="#073406"/><path d="M373 790c3.477 1.159 4.22 1.864 6 5 .188 3.25.188 3.25 0 6-2.865-3.41-4.347-6.907-6-11z" fill="#053106"/><path d="M556 648c1.063 1.813 1.063 1.813 2 4l-1 3a165.577 165.577 0 0 0-.563 5.688l-.253 3.011L556 666h-1c-.027-2.25-.046-4.5-.063-6.75l-.035-3.797c.078-2.738.27-4.872 1.098-7.453z" fill="#104E0F"/><path d="M681 609c3.914 1.27 5.79 2.512 8 6l-8-2v-4z" fill="#063306"/><path d="M600 609v3c-3.208 2.383-6.064 3.438-10 4 6.759-7 6.759-7 10-7z" fill="#083608"/><path d="m800 601-1 3h-12c4.169-2.78 8.102-4.633 13-3z" fill="#65D260"/><path d="m613 594 4 2-7 5-2-4c2.49-1.245 3.41-.777 6 0l-1-3z" fill="#72DD6B"/><path d="M456 592c5.538.615 5.538.615 7.875 2.563L465 596c-3.375.125-3.375.125-7 0l-2-2v-2z" fill="#7BE675"/><path d="M741 586c2 2 2 2 2.125 4.625L743 593c-2.884-1.293-4.872-2.66-7-5h5v-2z" fill="#0B360D"/><path d="m561 576 1 2-1 2h-3l-1 4h-5c2.853-2.932 5.65-5.643 9-8z" fill="#73D66F"/><path d="M884 569c2.188.313 2.188.313 4 1v2c-1.442 1.442-3.177 2.118-5 3v-2l-2-1c1.25-1.563 1.25-1.563 3-3z" fill="#7AEB73"/><path d="M1010 523c3.55 3.905 4.818 6.977 6 12l-2 1-.875-3.438L1012 529l-2-1v-5z" fill="#0B3F0A"/><path d="M276 510h1c.367 5.5.367 5.5-1.375 7.875C274 519 274 519 272 519c1.059-3.403 2.009-6.014 4-9z" fill="#083808"/><path d="M301 473h1c.375 2.188.375 2.188 0 5-1.84 1.99-3.792 3.39-6 5l-2-1c1.142-1.503 2.289-3.002 3.438-4.5l1.933-2.531L301 473z" fill="#0C400D"/><path d="m493 320 3 1-5 11h-1c-.204-3.668.195-5.816 2-9l1-3z" fill="#73D76E"/><path d="m543 265 1 3-4 3-4-2c4.75-4 4.75-4 7-4z" fill="#082F09"/><path d="m778 1044 6 3v2c-3.344-.557-6.033-1.352-9-3l3-2z" fill="#0F400F"/><path d="m907 980 2 3c-2.313 2.5-2.313 2.5-5 5h-3l6-8z" fill="#6FD96A"/><path d="M419 928h9l-1 2h-2l1 4h-2v-2l-1.938-.875C420 930 420 930 419 928z" fill="#6DD366"/><path d="m401 912 7 6-2 2c-1.938-.813-1.938-.813-4-2-1-3-1-3-1-6z" fill="#062F09"/><path d="M359 860c3.273 2.782 4.964 6.28 7 10l-5-1-.438-2.25c-.464-2.27-.98-4.508-1.562-6.75z" fill="#0E3D0D"/><path d="M343 833c3.096 3.509 4.742 6.492 6 11l-3-1v-4h-2v-3l-2-1 1-2z" fill="#0C430C"/><path d="M381 807c4.429 5.143 4.429 5.143 5 9-2 0-2 0-3.625-1.5L381 813l-1 2 1-8z" fill="#71D66B"/><path d="M910 786h2c-.563 3.941-1.68 6.75-4 10h-2c1.11-3.487 2.263-6.775 4-10z" fill="#73D96D"/><path d="M572 720c2.313 2.313 2.496 3.479 3.125 6.625l.508 2.477L576 731h-2c-2.326-3.634-2.163-6.77-2-11z" fill="#6AC966"/><path d="M1001 713c2.375.313 2.375.313 5 1l2 3-5 2v-3l-3-1 1-2z" fill="#062A08"/><path d="M308 709h1v11h2l-1 6c-2.26-3.595-2.209-6.566-2.125-10.75l.055-3.547L308 709z" fill="#7DE878"/><path d="M779 662c1.392 4.176-.177 6.135-2 10l-2-1c1.059-3.403 2.009-6.014 4-9z" fill="#0D3E0E"/><path d="M800 649c-1.063 1.5-1.063 1.5-3 3-3.688.188-3.688.188-7 0 5.625-4.313 5.625-4.313 10-3z" fill="#0B3C0B"/><path d="M862 627c-4.622 2.219-7.768 3.383-13 3 2.277-2.277 3.413-2.521 6.5-3.188l2.406-.542C860 626 860 626 862 627z" fill="#7CDE75"/><path d="M397 571c2.169.506 4 1 6 2v2l-7-1 1-3zm-3 3 2 1z" fill="#76E471"/><path d="M386 557h2c3.223 5.176 3.223 5.176 4 7l-1 3c-5-5.5-5-5.5-5-10z" fill="#7CDD77"/><path d="m330 551 2 3h-2l.25 2.813L330 560c-2.016 1.7-2.016 1.7-4 3 .477-1.626.957-3.25 1.438-4.875l.808-2.742C329 553 329 553 330 551z" fill="#66CB63"/><path d="M688 554c6.875 3.75 6.875 3.75 8 6-5.75-.875-5.75-.875-8-2v-4z" fill="#79E275"/><path d="m325 448 2 4c-2 2-2 2-4.625 2.125L320 454l5-6z" fill="#052E06"/><path d="m862 420 3 1-2 5h-4v-2h2l-1-3 2-1z" fill="#06250B"/><path d="m666 407 2 1-3 13h-1a336.784 336.784 0 0 1-.125-4.75l-.07-2.672c.204-2.692.83-4.277 2.195-6.578z" fill="#78DB74"/><path d="M873 1016h2c-1.453 3.83-3.429 5.12-7 7l-1-3 2.438-1.438c2.41-1.331 2.41-1.331 3.562-2.562z" fill="#0A380B"/><path d="M878 1008h6a317.62 317.62 0 0 1-5 6h-1v-6z" fill="#052808"/><path d="M796 970c2.729.033 5.297.564 8 1v2c-4.054 1.158-6.218.837-10-1l2-2z" fill="#08260F"/><path d="m848 928 5 2-2 4h-2l-1-6z" fill="#75E671"/><path d="M755 876c1.563 1.188 1.563 1.188 3 3-.313 2.688-.313 2.688-1 5l-3-2v-2h-2l1-3 2 1v-2z" fill="#0B2A0D"/><path d="M749 867h2v2l3 1v2l3 1-1 3c-2.964-2.808-5.445-5.183-7-9z" fill="#73D36F"/><path d="M406 848c4.206 1.502 5.739 4.286 8 8l-2 1c-5.571-5.143-5.571-5.143-6-9z" fill="#74D470"/><path d="m339 823 3 1c1.467 3.586 2.328 7.191 3 11-2.748-3.402-6-7.485-6-12z" fill="#71D36B"/><path d="m714 816 1 3h2v3l3 1 1 3-2 1-6-9 1-2z" fill="#71D46D"/><path d="M944 806c1.399 3.179.893 4.301-.313 7.688C942 817 942 817 940 818c.477-1.626.957-3.25 1.438-4.875l.808-2.742C943 808 943 808 944 806z" fill="#0F450F"/><path d="M370 778c2.952 2.952 3.087 5.955 4 10l-2 1c-3.077-6.4-3.077-6.4-2.688-9.438L370 778z" fill="#063706"/><path d="M1022 697h3c-1.186 3.375-2.276 5.647-5 8-.2-3.716-.152-4.772 2-8z" fill="#093908"/><path d="M554 645h3l-2 11h-1v-11z" fill="#7EE478"/><path d="m580 622 2 1c-4.185 5.785-4.185 5.785-8.313 6.875L571 630c2.853-2.932 5.65-5.643 9-8z" fill="#0F450F"/><path d="M904 618c4.565.543 7.973 1.795 12 4l-1 2-6-2v-2l-5-1v-1z" fill="#083A08"/><path d="m797 596 1 2h2v2l-8 2c1.133-3.4 2.125-4.053 5-6z" fill="#082E0A"/><path d="M594 553h5l1 4-4 1v-3h-2v-2z" fill="#78EE74"/><path d="M334 542c1.465 3.81.552 6.324-1 10l-2 1c.468-4.056.88-7.466 3-11z" fill="#73D66E"/><path d="M1001 506c2.325 2.853 3.75 5.54 5 9h-3a135.916 135.916 0 0 1-3-7l1-2z" fill="#093709"/><path d="M412 490h3c-1.27 3.914-2.512 5.79-6 8 .547-3.375 1.055-5.082 3-8z" fill="#7BE676"/><path d="M848 471c3.536 1.911 5.79 3.626 8 7h-5v-4l-3-1v-2z" fill="#114011"/><path d="m878 449 7 6-4 2c-3-5.75-3-5.75-3-8z" fill="#70D269"/><path d="M819 446c3.366 1.443 5.51 3.333 8 6-2.313.25-2.313.25-5 0-1.976-2.044-3-3.118-3-6z" fill="#073507"/><path d="m363 423 2 1-1 3-7 1-1-2a135.916 135.916 0 0 1 7-3z" fill="#0E3D0F"/><path d="m535 270 1 3c-1.75 2.063-1.75 2.063-4 4l-4-1 7-6z" fill="#063207"/><path d="M506 1045v2c-3.418 2.54-5.758 3.364-10 3 6.364-5 6.364-5 10-5z" fill="#70D06D"/><path d="m430 1037 10 5v1h-5l-1-2c-2.017-1.134-2.017-1.134-4-2v-2z" fill="#74D470"/><path d="m516 1036 1 3-1.938.813c-2.393 1.074-2.393 1.074-3.062 4.187l-3-1 7-7z" fill="#70D36A"/><path d="M781 977c-2.53 3.092-5.225 3.91-9 5v-3c3.135-1.858 5.375-2.201 9-2z" fill="#77E071"/><path d="M448 952c3.937 1.312 6.227 2.92 9 6h-5v-3l-4-1v-2z" fill="#073108"/><path d="m536 946 3 2-1 3-6-1 1-2h3v-2z" fill="#6CE963"/><path d="M899 877c2.125.375 2.125.375 4 1-1.75 3.875-1.75 3.875-4 5l-2-4 2-2z" fill="#6DDB68"/><path d="m906 874 1 2 3 1-1 3-1.875-.563c-2.167-.674-2.167-.674-4.125.563 1.875-4.875 1.875-4.875 3-6z" fill="#082C0A"/><path d="m360 850-1 4h-4l-2-4c3.133-1.044 3.99-.934 7 0z" fill="#6CE466"/><path d="M495 832h2c-.542 3.796-2.201 5.472-5 8l-2-1a340.172 340.172 0 0 1 2.375-3.5l1.336-1.969L495 832z" fill="#6AD064"/><path d="M566 693c2.68 4.019 2.156 6.242 2 11-3.033-3.033-2.665-5.774-3-10l1-1z" fill="#073607"/><path d="m384 618 3.813-.125 2.144-.07C392 618 392 618 395 620l-7-1v2l-4-1v-2z" fill="#0C320C"/><path d="m536 594 2 1c-1.188 2.5-1.188 2.5-3 5-2.688.313-2.688.313-5 0l6-6z" fill="#71D16C"/><path d="m737 590 4 2v4l-2 2c-2-5.75-2-5.75-2-8z" fill="#76E772"/><path d="M424 581c7.625 1.75 7.625 1.75 11 4-7.429.286-7.429.286-11-2v-2z" fill="#6DCF67"/><path d="M954 578c2.952 2.952 3.087 5.955 4 10-3.223-2.807-4.65-4.683-5-9l1-1z" fill="#71CE6D"/><path d="m574 567 1 4-7 1c3.75-3.875 3.75-3.875 6-5zm-3 5 2 2h-2v-2z" fill="#6BD867"/><path d="m992 489 1 2 3 1c1.188 2.563 1.188 2.563 2 5h-3c-2.108-2.888-3-4.385-3-8z" fill="#76DB71"/><path d="M426 481h2l-2 7-5 1 1.375-1.75c1.466-2.03 2.574-3.985 3.625-6.25z" fill="#081A0D"/><path d="M960 457h2v2l3 1v2h2v2l-4-1v-2l-3-1v-3z" fill="#09170E"/><path d="m874 446 4 2-1 4-4-2 1-4z" fill="#79E873"/><path d="m472 439 1 3h-2l-1 2h-6c5.75-5 5.75-5 8-5z" fill="#0B2D0E"/><path d="M418 428c0 3.576-1.088 5.053-3 8l-4-1 7-7z" fill="#70D76B"/><path d="m421 426 3 1-2 4-3-1 2-4z" fill="#7CEC74"/><path d="m789 424 7 2v2l4 2c-3.389 0-4.398-.644-7.188-2.438l-2.167-1.37L789 425v-1z" fill="#69CA63"/><path d="M912 420c6.152.586 6.152.586 8 1l1 2c-2.788 1.033-3.868 1.045-6.75.063L912 422v-2z" fill="#70D56C"/><path d="M610 404c2.912 3.288 4.497 5.599 5 10-3-1-3-1-4.188-3.313C610 408 610 408 610 404z" fill="#0C440C"/><path d="M749 405h11l-2 3-9-2v-1z" fill="#69CA66"/><path d="m569 394-2 4-7-1c2.982-2.982 4.788-3 9-3z" fill="#0F410F"/><path d="M748 364c6.625-.25 6.625-.25 10 2v2l-10-3v-1z" fill="#0B3E0B"/><path d="m531 269 1 2 2 1a90.488 90.488 0 0 1-4 4h-2c.75-4.75.75-4.75 3-7z" fill="#6ED669"/><path d="m735 249 1 3-1 2h-3v2h-2l-1-3 3-1c1.667-1.5 1.667-1.5 3-3z" fill="#78E771"/><path d="m443 1044-3 4-4-2v-2c4.75-1.125 4.75-1.125 7 0z" fill="#69F061"/><path d="M527 1017h2c-.6 3.356-1.846 5.378-4 8-.688-1.75-.688-1.75-1-4 1.313-2.25 1.313-2.25 3-4z" fill="#062D07"/><path d="M749 988h8c-2.686 2.686-5.376 3.06-9 4l1-4z" fill="#72D96B"/><path d="m748 987 3 1-2 1-1 3-6 1 6-6z" fill="#7BE876"/><path d="M781 980c-3.268 2.179-6.38 3.498-10 5l-2-2c7.286-3.429 7.286-3.429 12-3z" fill="#083709"/><path d="m370 976 3 1v2l4 2-1 4-6-9z" fill="#073B07"/><path d="M534 945h9l1 4c-3.558-.61-6.683-1.578-10-3v-1z" fill="#0D390D"/><path d="m875 845 3 3-1 3-3 1v-2l-2-1 3-4z" fill="#6CDE66"/><path d="M899 809c.934 3.01 1.044 3.867 0 7h-3c.75-4.75.75-4.75 3-7z" fill="#77E472"/><path d="M941 808h2c-.547 3.375-1.055 5.082-3 8-.625-2.313-.625-2.313-1-5l2-3z" fill="#78DD75"/><path d="M379 801h3l2 7-2 1c-3-5.75-3-5.75-3-8z" fill="#052E06"/><path d="M563 689h5c-.313 1.938-.313 1.938-1 4l-3 1-1-5z" fill="#042608"/><path d="M421 627c4.675-.326 7.167.294 11 3-2 1-2 1-4.164.441l-2.461-.879-2.477-.87L421 628v-1z" fill="#76D671"/><path d="M316 594c1.188 1.625 1.188 1.625 2 4-1.375 3.25-1.375 3.25-3 6-1.467-3.815-.433-6.29 1-10z" fill="#6FD36A"/><path d="M743 593c4.314.48 6.166 1.746 9 5l-1 2a962.085 962.085 0 0 1-4-2.938l-2.25-1.652L743 594v-1z" fill="#0B410A"/><path d="m889 560 3 1-5 6-1-3c1.438-2.188 1.438-2.188 3-4z" fill="#063607"/><path d="M389 528h1c.22 3.856-.396 6.492-2 10h-2c.507-3.719 1.116-6.735 3-10z" fill="#10420E"/><path d="M869 496c2.964 2.808 5.445 5.183 7 9h-2v-2h-2a105.022 105.022 0 0 1-4-5l1-2z" fill="#0B420B"/><path d="m837 459 6 1 1 6a858.147 858.147 0 0 1-3.5-2.938l-1.969-1.652L837 460v-1z" fill="#6DD36B"/><path d="M822 447c3.995 1.37 6.8 3.257 10 6-5.314 0-6.217-1.475-10-5v-1z" fill="#6ECD69"/><path d="m502 418 2 1-2 4h-6c1.933-2.025 3.632-3.421 6-5z" fill="#083908"/><path d="M498 377v2c-2.955 2.744-3.775 3-8 3v-2c5.75-3 5.75-3 8-3z" fill="#76DF72"/><path d="M758 368h7v2h3v2l-10-3v-1z" fill="#144F13"/><path d="m553 256 2 1c-2.131 3.197-3.593 4.338-7 6l-3-1 8-6z" fill="#0E460D"/><path d="M710 245c3.912 1.156 6.875 2.355 10 5l-4 1v-2l-6-2v-2z" fill="#073807"/><path d="m577.066 240.902 2.496.036 2.504.027L584 241c-3.255 1.684-6.505 2.888-10 4 0-3.953 0-3.953 3.066-4.098z" fill="#71DA6C"/><path d="m874 1011 3 1 1 3-3 2-2-5 1-1z" fill="#022A03"/><path d="m390 1003 4 4c-5.75 1.125-5.75 1.125-8 0v-2l4-2z" fill="#78EA71"/><path d="M504 978h4v3l-4 2-3-2h3v-3z" fill="#6AE462"/><path d="m370 874 4 1v4h2l-1 3c-5-5.75-5-5.75-5-8z" fill="#77D974"/><path d="M819 872h6l2 4a128.606 128.606 0 0 1-7-2l-1-2z" fill="#114710"/><path d="M357 856c3.767 0 4.912.235 8 2l-1 2c-4 0-4 0-5.75-1.438C357 857 357 857 357 856z" fill="#6BE067"/><path d="M933 830c.981 3.053.981 4.947 0 8l-4 1c1.199-3.083 2.477-6.063 4-9z" fill="#0B400B"/><path d="M712 817c2.96 2.755 5.037 5.466 7 9-1.813-.125-1.813-.125-4-1-3-5.036-3-5.036-3-8z" fill="#0B440B"/><path d="M905 798c2.125.375 2.125.375 4 1l-2.438 1.875c-2.6 1.867-2.6 1.867-3.562 4.125h-2c1.074-2.915 1.778-4.778 4-7z" fill="#74E16F"/><path d="M372 791h2l2 6-2 2c-1.765-3.088-2-4.233-2-8z" fill="#71D76C"/><path d="m584 744 5 1v2l3 1v2c-3.914-1.27-5.79-2.512-8-6z" fill="#0B420B"/><path d="M355 738c3.006 3.006 2.596 5.824 3 10l-1-2h-2v-8z" fill="#6DD069"/><path d="m922 739 1.438 1.5c1.321 1.615 1.321 1.615 2.562 1.5v5l-4-2v-6zm-2 5 2 2h-2v-2z" fill="#062709"/><path d="M512 690c2.296 3.445 2.54 5.938 3 10-2.063-2.188-2.063-2.188-4-5 .25-2.813.25-2.813 1-5z" fill="#134D13"/><path d="M672 602c6.875 3.75 6.875 3.75 8 6-2.782-.376-4.588-.673-6.813-2.438C672 604 672 604 672 602z" fill="#083B08"/><path d="m680 547 7 2 1 4c-6.875-3.75-6.875-3.75-8-6z" fill="#0A3A0A"/><path d="M609 539c-1.393 3.367-2.979 4.986-6 7 .313-2.375.313-2.375 1-5 3-2 3-2 5-2z" fill="#0F3F0E"/><path d="M915 496c2 1.813 2 1.813 4 4v3l-4-2v-5z" fill="#75DD71"/><path d="M357 496h2c-1.186 3.375-2.276 5.647-5 8 .75-5.75.75-5.75 3-8z" fill="#073908"/><path d="M373 476c1 3 1 3-.438 6.188L371 485l-3-2 5-7z" fill="#6FCC6A"/><path d="M871 441h3v2l4 1-1 4-6-7z" fill="#0D3A0D"/><path d="m355 428-8 4-1-3c3.805-1.797 4.706-2.073 9-1z" fill="#74D570"/><path d="M408.563 415.188C411 416 411 416 413 419l-10-2c3-2 3-2 5.563-1.813z" fill="#68C964"/><path d="m758 408 5 2v4l-4-1-1-5z" fill="#0C320F"/><path d="M577 389h11v1l-12 2 1-3z" fill="#7CE377"/><path d="M440 1042h7l2 4-9-3v-1z" fill="#0B3A0B"/><path d="M404 1016c2.375.188 2.375.188 5 1 1.313 2.563 1.313 2.563 2 5-3.367-1.393-4.986-2.979-7-6z" fill="#104810"/><path d="M378 987c1.875.125 1.875.125 4 1 1.25 3.063 1.25 3.063 2 6-4.875-4.75-4.875-4.75-6-7z" fill="#073B08"/><path d="M363 967c2 1.813 2 1.813 4 4v3l-3-1-1-6z" fill="#75E273"/><path d="m825 952 2 1-2 5h-3l-1-3 4-3z" fill="#09310C"/><path d="M763 942c-1.375 2-1.375 2-3 4h-2v-2l-2-1c3.625-2.125 3.625-2.125 7-1z" fill="#70DA6B"/><path d="M506 900h3l-1 8c-2.152-3.228-2.2-4.284-2-8z" fill="#7CE477"/><path d="m900 882 3 1c-2.22 3.329-3.347 3.75-7 5l4-6z" fill="#083709"/><path d="m427 871 9 4c-4 1-4 1-6.75-.313L427 873v-2z" fill="#72D66D"/><path d="M851 873c-6.75 3-6.75 3-9 3l1-3c3.287-.8 4.71-1.097 8 0z" fill="#0A3B09"/><path d="m858 866 1 2h2l1 3-3 1-2-2-2-1 3-3z" fill="#68DF62"/><path d="m861 863 2 2c-.375 2.625-.375 2.625-1 5l-1-2h-2c.875-3.875.875-3.875 2-5z" fill="#77E772"/><path d="M872 850h2c-.25 1.875-.25 1.875-1 4-2.063 1.25-2.063 1.25-4 2 .573-2.867.861-3.861 3-6z" fill="#7BE474"/><path d="m793 843 5 5-2 5h-1l-2-10z" fill="#6BCD65"/><path d="M547 846h1c.37 4.554.37 4.554-1.5 6.813L545 854c-.688-1.75-.688-1.75-1-4 1.375-2.25 1.375-2.25 3-4z" fill="#0C370B"/><path d="M894 816c.75 1.75.75 1.75 1 4-1.938 2.25-1.938 2.25-4 4 0-3.576 1.088-5.053 3-8z" fill="#66CD61"/><path d="M588 806c-3.512 2.408-5.727 3.366-10 3 5.625-4.313 5.625-4.313 10-3z" fill="#124A12"/><path d="M906 790h2c-.75 2.938-.75 2.938-2 6-2.125.875-2.125.875-4 1l1-2h2l-1-3 2-2z" fill="#053306"/><path d="M948 784h2l2 4-3 3c-.687-2.49-1-4.379-1-7z" fill="#77EC73"/><path d="M1032 683h1l-1 8-3 1 3-9z" fill="#6CCA67"/><path d="M431 629c2.763.523 5.326 1.109 8 2v2l-7-1-1-3z" fill="#75E76F"/><path d="m705 626 9 6-2 1c-5.875-3.625-5.875-3.625-7-7z" fill="#0A4209"/><path d="M411 625c3.375.547 5.082 1.055 8 3h-9l1-3z" fill="#093A09"/><path d="m592 611 4 1-8 5 1-4h3v-2z" fill="#71CE6D"/><path d="M744 596c2.169.506 4 1 6 2v3h-2v-2h-4v-3z" fill="#78E375"/><path d="m660 593 8 5c-3 1-3 1-5.688-.25L660 596v-3z" fill="#063307"/><path d="M1032 573c2 3 2 3 2 5h2v2h-2l-1 2c-1.478-2.957-1.06-5.742-1-9z" fill="#78EC74"/><path d="M697 561c3.653 1.25 4.78 1.671 7 5l-4 1v-3l-3-1v-2z" fill="#7AE176"/><path d="M896 549h1v7l-3 1c.875-6.875.875-6.875 2-8z" fill="#69CE69"/><path d="M677 546c2.884 1.293 4.872 2.66 7 5h-5l-2-5z" fill="#72D96C"/><path d="M394 520c.625 1.813.625 1.813 1 4-2 3-2 3-5 4 1.125-2.972 2.223-5.334 4-8z" fill="#154915"/><path d="M931 521c4 2 4 2 5.25 5.125L937 529l-2 1-4-9z" fill="#053605"/><path d="M926 512h4c.625 1.875.625 1.875 1 4l-2 2-3-6z" fill="#072D08"/><path d="M857 480c4.875 4.75 4.875 4.75 6 7-1.875-.25-1.875-.25-4-1-1.385-2.147-2-3.439-2-6z" fill="#0B3C0A"/><path d="m368 473 2 1v2h3l-2 4c-1.5-1.25-1.5-1.25-3-3v-4z" fill="#032904"/><path d="m854 426 4 4-6 1v-4l2-1z" fill="#70E26A"/><path d="m904 418-4 1v2l-4 1v-3c2.709-1.354 5.01-1.065 8-1z" fill="#0B2710"/><path d="M875 417v2c-7.429 1.286-7.429 1.286-11 0 3.877-1.193 6.916-2 11-2z" fill="#0E440E"/><path d="m506 373-1 3c-2.563 1.188-2.563 1.188-5 2l-2-2c5.75-3 5.75-3 8-3z" fill="#6BCC66"/><path d="M594 344c2.625-.188 2.625-.188 5 0l1 3h-8l2-3z" fill="#07170D"/></svg>