<svg xmlns="http://www.w3.org/2000/svg" fill="none" viewBox="0 0 155.1 155.1"><circle cx="77.6" cy="77.6" r="77.6" fill="#ed4e33"/><path fill="#fff" d="M63.6 41.5c-21.2 8.2-23.1 29-29.2 38.8s-20.2 15.2-18.3 20.3c2 5 16-.4 27.2 2.8 11 3.1 26.4 17.3 47.5 9.2A38 38 0 0 0 113 89.8c.4-1-.3-2.2-1.5-2.3-.7-.1-1.4.3-1.7 1a30 30 0 0 1-55.8-5 344 344 0 0 1 56.5-20.6l.8-.2c.6-.1 1.2.2 1.4.7 0 .4.2.7.3 1 .7 2 1.3 4.2 1.7 6.3.1.9 1.1 1.4 2 1l8.2-4.8c9.3-5.7 14.4-10.6 13.4-13.3-1-2.8-8.1-3-18.8-1a169 169 0 0 0-24.1 6.2 357 357 0 0 0-42.6 16.3 30.2 30.2 0 0 1 41-28.3c.7.3 1.5 0 2-.5.7-.8.5-2.1-.5-2.7-9.4-5-21-6.2-31.7-2z"/></svg>