<svg xmlns="http://www.w3.org/2000/svg" xml:space="preserve" viewBox="0 0 400 400"><path fill="#070219" d="M272 401H1V1.1h399.8V401zM190.2 39.6c-14.7 31.6-29.4 63-43.8 94.7a18.4 18.4 0 0 1-9.9 9.7c-34.5 15.8-68.9 32-103.3 48-1.2.5-2.2 1.2-4.5 2.5l5 .3h104.4a59.5 59.5 0 0 0 59-59.5L197 31.9c0-1.4-.2-2.7-.3-4l-.9-.2-5.6 12m63.7 79.8-42.5-91.4c-1.3 1-1.5 1.6-1.5 2.2 0 36.1-.6 72.3.2 108.4a58.6 58.6 0 0 0 58.1 56c35 .3 70 0 105 0 1.1 0 2.3-.2 4.7-.5-2.3-1.3-3.4-2-4.6-2.5-29.8-13.8-59.2-28.4-89.4-41.1-14.8-6.3-25.4-14.7-30-31M192.5 368l3.6 7.1c1-1.5 1-2.6 1-3.8 0-34.8.2-69.6 0-104.4a59 59 0 0 0-59-58.9c-34.8-.2-69.6 0-104.4 0-1.2 0-2.3.2-3.4.4a4 4 0 0 0 2.1 2L138.8 260c2.6 1.2 5.1 3.8 6.3 6.4C161 300 176.5 333.7 192.5 368M210 266.6v108l1.4.1 2.3-4.7c16-34.6 32-69.2 48.2-103.7 1.1-2.3 3.3-4.8 5.5-5.9l105-48.9 4.5-2.3-.4-1.1H270.6c-33.6 0-58.6 23.8-60.7 58.5z"/><path fill="#FAF9FA" d="m190.3 39.3 5.5-11.6.9.1c0 1.4.3 2.7.3 4 0 34.5.2 69 .1 103.5a59.5 59.5 0 0 1-59 59.4c-34.8.2-69.6.1-104.4 0l-5-.2 4.5-2.6L136.5 144c4.7-2.1 7.7-5 9.9-9.7 14.4-31.6 29.1-63.1 44-95z"/><path fill="#F9F9FA" d="M254 119.9c4.5 16 15 24.4 30 30.7 30.1 12.7 59.5 27.3 89.3 41l4.6 2.6c-2.4.3-3.6.6-4.7.6-35 0-70 .2-105 0a58.6 58.6 0 0 1-58-56.1c-1-36.1-.3-72.3-.3-108.4 0-.6.2-1.2 1.5-2.2L254 120z"/><path fill="#FAFAFA" d="M192.4 367.7c-15.9-34-31.5-67.7-47.3-101.2a14.3 14.3 0 0 0-6.3-6.4c-35.4-16.7-70.9-33.1-106.4-49.6a4 4 0 0 1-2-2c1-.2 2.1-.4 3.3-.4 34.8 0 69.6-.2 104.4 0a59 59 0 0 1 59 58.9c.2 34.8 0 69.6 0 104.4 0 1.2 0 2.3-1 3.8z"/><path fill="#FAF9FA" d="M209.9 266c2-34.1 27-57.9 60.7-58h105.8c0 .4.2.8.4 1.2l-4.5 2.3c-35 16.3-70 32.5-105 49-2.2 1-4.4 3.5-5.5 5.8-16.2 34.5-32.2 69-48.2 103.7l-2.3 4.7-1.4-.2V266.1z"/></svg>