<svg xmlns="http://www.w3.org/2000/svg" width="2292" height="2292" style="shape-rendering:geometricPrecision;text-rendering:geometricPrecision;image-rendering:optimizeQuality;fill-rule:evenodd;clip-rule:evenodd"><path style="opacity:.991" fill="#fe7700" d="M1142.5 276.5c27.08-.885 52.41 5.281 76 18.5 215.33 124.333 430.67 248.667 646 373 37.02 24.498 57.85 58.998 62.5 103.5.67 254.67.67 509.33 0 764-4.14 44.8-24.97 79.3-62.5 103.5-213.83 123.08-427.5 246.41-641 370-45.08 26.7-91.08 28.37-138 5-216-124.67-432-249.33-648-374-39.557-25.26-61.057-61.43-64.5-108.5-.667-252-.667-504 0-756 4.374-51.01 28.874-88.843 73.5-113.5 212.258-121.934 424.258-244.267 636-367 18.8-10.525 38.8-16.692 60-18.5Zm3 110c6.02-.535 11.69.632 17 3.5 214.17 123.919 428.5 247.586 643 371 7.47 4.809 11.64 11.642 12.5 20.5.67 248 .67 496 0 744-.97 9.78-5.8 16.94-14.5 21.5-214.84 124.25-429.84 248.25-645 372-5.67 2-11.33 2-17 0-215.163-123.75-430.163-247.75-645-372-7.262-3.68-11.762-9.52-13.5-17.5-.667-250.67-.667-501.33 0-752 1.483-6.491 4.983-11.658 10.5-15.5 217.297-125.474 434.63-250.641 652-375.5Z"/><path style="opacity:.99" fill="#fe7700" d="M896.5 772.5c31.002-.167 62.002 0 93 .5 2.866 1.393 4.199 3.726 4 7-90.233 249.7-181.066 499.2-272.5 748.5-1.961 2.64-4.461 4.47-7.5 5.5-31.333.67-62.667.67-94 0-2.928-3.26-3.762-7.09-2.5-11.5 90.667-248 181.333-496 272-744 2.114-2.621 4.614-4.621 7.5-6ZM1043.5 772.5c31-.167 62 0 93 .5 3.1 1.268 4.77 3.601 5 7-90.36 248.55-180.861 497.05-271.5 745.5-1.5 4.17-4.333 7-8.5 8.5-31.333.67-62.667.67-94 0-3.712-2.51-4.878-6.01-3.5-10.5 90.333-247.67 180.667-495.33 271-743 2.07-3.577 4.91-6.244 8.5-8Z"/><path style="opacity:.988" fill="#fe7700" d="M1439.5 772.5c31-.167 62 0 93 .5 1.83.5 3 1.667 3.5 3.5.67 2.667.67 5.333 0 8-56.33 154.333-112.67 308.67-169 463-3.56 5.4-8.06 6.23-13.5 2.5-15.3-40.76-30.46-81.6-45.5-122.5-.67-3.33-.67-6.67 0-10 41.06-113.11 82.39-226.108 124-339 2.11-2.621 4.61-4.621 7.5-6Z"/><path style="opacity:.989" fill="#fe7700" d="M1587.5 772.5c30.67-.167 61.34 0 92 .5 1.83.5 3 1.667 3.5 3.5.67 2.667.67 5.333 0 8l-243 666c-4.67 5.33-9.33 5.33-14 0-15.67-42.18-30.84-84.51-45.5-127 65.81-182.25 132.31-364.252 199.5-546 2.43-1.952 4.93-3.619 7.5-5ZM1157.5 853.5c6.46-1.682 10.63.651 12.5 7 81.03 222.1 161.87 444.27 242.5 666.5-.3 2.92-1.63 5.26-4 7-31.33.67-62.67.67-94 0-4.9-1.9-8.07-5.4-9.5-10.5-65-178.33-130-356.67-195-535-.91-5.53-.25-10.863 2-16 14.2-38.257 28.2-76.59 42-115 .69-1.85 1.86-3.184 3.5-4Z"/><path style="opacity:.988" fill="#fe7700" d="M1083.5 1055.5c3.48-.32 6.81.18 10 1.5 57.82 156.63 115.16 313.46 172 470.5-.46 3.76-2.46 6.26-6 7.5-30 .67-60 .67-90 0-3.97-.96-7.14-3.13-9.5-6.5-42.2-114.1-83.7-228.43-124.5-343 14.19-40.75 28.69-81.41 43.5-122 .85-3.09 2.35-5.76 4.5-8Z"/></svg>