<svg xmlns="http://www.w3.org/2000/svg" width="2292" height="2292" style="shape-rendering:geometricPrecision;text-rendering:geometricPrecision;image-rendering:optimizeQuality;fill-rule:evenodd;clip-rule:evenodd"><path fill="#fe7700" d="M1142.5 276.5c27.08-.885 52.41 5.281 76 18.5 215.33 124.333 430.67 248.667 646 373 37.02 24.498 57.85 58.998 62.5 103.5.67 254.67.67 509.33 0 764-4.14 44.8-24.97 79.3-62.5 103.5-213.83 123.08-427.5 246.41-641 370-45.08 26.7-91.08 28.37-138 5-216-124.67-432-249.33-648-374-39.557-25.26-61.057-61.43-64.5-108.5q-1-378 0-756 6.561-76.515 73.5-113.5a189199 189199 0 0 0 636-367q28.2-15.788 60-18.5m3 110c6.02-.535 11.69.632 17 3.5a304975 304975 0 0 0 643 371c7.47 4.809 11.64 11.642 12.5 20.5q1.005 372 0 744c-.97 9.78-5.8 16.94-14.5 21.5a311641 311641 0 0 1-645 372c-5.67 2-11.33 2-17 0a310073 310073 0 0 1-645-372c-7.262-3.68-11.762-9.52-13.5-17.5-.667-250.67-.667-501.33 0-752q2.225-9.737 10.5-15.5a331423 331423 0 0 1 652-375.5" style="opacity:.991"/><path fill="#fe7700" d="M896.5 772.5q46.503-.25 93 .5 4.299 2.09 4 7A167147 167147 0 0 1 721 1528.5c-1.961 2.64-4.461 4.47-7.5 5.5q-47 1.005-94 0c-2.928-3.26-3.762-7.09-2.5-11.5l272-744q3.171-3.931 7.5-6m147 0q46.5-.25 93 .5c3.1 1.268 4.77 3.601 5 7A707978 707978 0 0 1 870 1525.5c-1.5 4.17-4.333 7-8.5 8.5q-47 1.005-94 0-5.567-3.765-3.5-10.5c90.333-247.67 180.667-495.33 271-743 2.07-3.577 4.91-6.244 8.5-8" style="opacity:.99"/><path fill="#fe7700" d="M1439.5 772.5q46.5-.25 93 .5c1.83.5 3 1.667 3.5 3.5q1.005 4 0 8c-56.33 154.333-112.67 308.67-169 463-3.56 5.4-8.06 6.23-13.5 2.5-15.3-40.76-30.46-81.6-45.5-122.5-.67-3.33-.67-6.67 0-10a73438 73438 0 0 1 124-339q3.165-3.931 7.5-6" style="opacity:.988"/><path fill="#fe7700" d="M1587.5 772.5c30.67-.167 61.34 0 92 .5 1.83.5 3 1.667 3.5 3.5q1.005 4 0 8l-243 666c-4.67 5.33-9.33 5.33-14 0a5748 5748 0 0 1-45.5-127 76705 76705 0 0 1 199.5-546q3.645-2.928 7.5-5m-430 81c6.46-1.682 10.63.651 12.5 7 81.03 222.1 161.87 444.27 242.5 666.5-.3 2.92-1.63 5.26-4 7-31.33.67-62.67.67-94 0-4.9-1.9-8.07-5.4-9.5-10.5-65-178.33-130-356.67-195-535-.91-5.53-.25-10.863 2-16q21.3-57.385 42-115c.69-1.85 1.86-3.184 3.5-4" style="opacity:.989"/><path fill="#fe7700" d="M1083.5 1055.5c3.48-.32 6.81.18 10 1.5a78828 78828 0 0 1 172 470.5q-.69 5.64-6 7.5-45 1.005-90 0c-3.97-.96-7.14-3.13-9.5-6.5-42.2-114.1-83.7-228.43-124.5-343 14.19-40.75 28.69-81.41 43.5-122 .85-3.09 2.35-5.76 4.5-8" style="opacity:.988"/></svg>