<svg xmlns="http://www.w3.org/2000/svg" width="533.333" height="533.333" version="1.0" viewBox="0 0 400 400"><path d="m133.5 81.4-68 39.4v158.4l11.9 6.9c6.5 3.8 12.2 6.9 12.7 6.9s1-31.9 1.1-71l.3-70.9 48.8 28.1 48.7 28.1v113.9l-3.2-2c-1.8-1.1-16.8-9.7-33.3-19.2s-31.5-18.1-33.2-19.2l-3.3-2v29.7l43 24.8 42.9 24.7 6.3-3.8 6.3-3.9.5-71.7.5-71.8 48.3-27.9c26.6-15.3 48.5-27.9 48.8-27.9.2 0 .4 25.5.4 56.7l-.1 56.8-36.4 21-36.5 20.9v14.4c0 13 .2 14.4 1.6 13.8.9-.4 23.2-13.1 49.5-28.3l47.9-27.6V121.3l-68.2-39.4c-37.4-21.7-68.4-39.5-68.7-39.6s-31.2 17.5-68.6 39.1m118.3 19c41.8 24.1 48 28 46.5 29.1-1 .6-23.1 13.5-49.2 28.5-37.3 21.5-47.7 27.1-49 26.3-.9-.5-22.9-13.3-48.9-28.3s-47-27.6-46.5-28.1c2.2-2.2 96-55.8 97.3-55.6.9.1 23.3 12.7 49.8 28.1"/><path d="M178.8 114.4c-12.5 7.3-23 13.5-23.3 13.7-.5.6 44.7 26.9 46.3 26.9.5 0 10.6-5.5 22.4-12.3 11.7-6.8 22.1-12.8 23-13.3 1.5-.8-2.6-3.5-21.5-14.4-12.7-7.3-23.4-13.4-23.7-13.5-.3-.2-10.7 5.7-23.2 12.9M116 222.2l.1 27.3 22.6 13c12.4 7.1 23 13.2 23.5 13.3.4.2.7-11.9.6-26.9l-.3-27.2-18-10.4c-9.9-5.7-20.4-11.8-23.2-13.4l-5.3-3zm147.3-13.5L240 222.3v26.8c0 14.8.3 26.9.6 26.9.4 0 11-5.9 23.5-13.2l22.9-13.2v-27.3c0-15-.1-27.3-.2-27.2-.2.1-10.8 6.2-23.5 13.6"/></svg>