<?xml version="1.0" standalone="no"?>
<!DOCTYPE svg PUBLIC "-//W3C//DTD SVG 20010904//EN"
 "http://www.w3.org/TR/2001/REC-SVG-20010904/DTD/svg10.dtd">
<svg version="1.0" xmlns="http://www.w3.org/2000/svg"
 width="400.000000pt" height="400.000000pt" viewBox="0 0 400.000000 400.000000"
 preserveAspectRatio="xMidYMid meet">

<g transform="translate(0.000000,400.000000) scale(0.100000,-0.100000)"
fill="#000000" stroke="none">
<path d="M1335 3186 l-680 -394 0 -792 0 -792 119 -69 c65 -38 122 -69 127
-69 5 0 10 319 11 710 l3 709 488 -281 487 -281 0 -569 0 -570 -32 20 c-18 11
-168 97 -333 192 -165 95 -315 181 -332 192 l-33 20 0 -149 0 -148 430 -248
429 -247 63 38 63 39 5 717 5 718 483 279 c266 153 485 279 488 279 2 0 4
-255 4 -567 l-1 -568 -364 -210 -365 -209 0 -144 c0 -130 2 -144 16 -138 9 4
232 131 495 283 l479 276 0 787 0 787 -682 394 c-374 217 -684 395 -687 396
-3 1 -312 -175 -686 -391z m1183 -190 c418 -241 480 -280 465 -291 -10 -6
-231 -135 -492 -285 -373 -215 -477 -271 -490 -263 -9 5 -229 133 -489 283
-260 150 -470 276 -465 281 22 22 960 558 973 556 9 -1 233 -127 498 -281z"/>
<path d="M1788 2856 c-125 -73 -230 -135 -233 -137 -5 -6 447 -269 463 -269 5
0 106 55 224 123 117 68 221 128 230 133 15 8 -26 35 -215 144 -127 73 -234
134 -237 135 -3 2 -107 -57 -232 -129z"/>
<path d="M1160 1778 l1 -273 226 -130 c124 -71 230 -132 235 -133 4 -2 7 119
6 269 l-3 272 -180 104 c-99 57 -204 118 -232 134 l-53 30 0 -273z"/>
<path d="M2633 1913 l-233 -136 0 -268 c0 -148 3 -269 6 -269 4 0 110 59 235
132 l229 132 0 273 c0 150 -1 273 -2 272 -2 -1 -108 -62 -235 -136z"/>
</g>
</svg>
