<svg xmlns="http://www.w3.org/2000/svg" width="234" height="233"><path fill="#141416" d="M234 129c-3.304 31.556-18.891 59.495-43.365 79.732-21.235 16.461-46.446 24.714-73.135 24.643h-2.131C99.763 233.337 85.453 231.106 71 225c1.623-3.932 4.312-6.76 7.188-9.813l1.587-1.698C89.631 203.018 99.561 192.76 111 184l3.496-2.754C125.134 172.97 136.392 165.833 148 159l2.01-1.187C173.118 144.354 206.752 129 234 129M116.813-.438l2.11.01C130.015-.357 140.42.498 151 4l2.073.666c30.813 10.108 55.497 31.59 70.151 60.416C229.23 77.41 232.715 90.366 234 104c-40.937-3.988-82.536-24.641-115-49l-1.877-1.402C100.904 41.405 82.853 26.578 71 10V8a674 674 0 0 1 6.563-2.313l3.69-1.3C93.058.72 104.48-.553 116.814-.437ZM23 45c4.238.504 6.228 2.895 9.188 5.813C44.514 62.508 58.942 71.273 74 79l2.796 1.438C98.995 91.725 122.04 100.278 146 107v1H0c0-6.709.047-11.905 1.625-18.188l.542-2.2C6.062 72.51 12.848 56.989 23 45M0 125h146c-2.69 1.793-4.31 2.502-7.34 3.34l-2.677.764-2.92.833c-36.325 10.783-78.489 27.336-104.758 56.004C26 188 26 188 23.957 188.195c-2.96-1.807-4.498-4.427-6.27-7.32l-1.182-1.901C8.986 166.619 4.383 154.036 1 140l-.633-2.398C-.22 133.44 0 129.202 0 125m141 20c-4.567 3.08-9.16 6.104-13.828 9.031C103.467 168.981 81.28 187.747 63 209a3474 3474 0 0 1-3.938 4.5l-1.777 2.031L56 217c-7.331-4.385-13.805-9.111-20-15 .85-4.643 3.627-6.718 7.125-9.625l1.897-1.595c23.922-19.746 53.108-33.004 82.27-42.862a339 339 0 0 0 5.361-1.867l2.449-.863 2.143-.77C139 144 139 144 141 145M55 16c4.184 3.266 7.64 6.73 11.086 10.762 8.36 9.777 16.964 18.845 27.012 26.894 2.913 2.353 5.747 4.782 8.59 7.219 10.393 8.663 21.775 15.974 33.348 22.953 4.86 2.962 4.86 2.962 5.964 5.172-35.182-8.473-70.52-25.387-98-49l-2.23-1.895A761 761 0 0 1 36 34c.815-5.73 5.717-8.597 10-12a176 176 0 0 1 9-6"/></svg>