<svg xmlns="http://www.w3.org/2000/svg" width="512" height="512" fill="none"><rect width="510" height="510" x="1" y="1" fill="#fff" rx="255"/><path fill="#000" fill-rule="evenodd" d="M256 511c140.833 0 255-114.167 255-255S396.833 1 256 1 1 115.167 1 256c0 64.182 23.712 122.826 62.853 167.65l136.459-126.531a32 32 0 0 0 3.424-8.102l2.418-9.023-74.055-11.007c-8.682-1.29-8.682-13.812 0-15.102l66.143-9.831-76.563-103.297c-5.227-7.052 3.627-15.905 10.679-10.679l103.317 76.579 9.837-66.185c1.29-8.682 13.812-8.682 15.102 0l9.833 66.152 103.272-76.546c7.052-5.226 15.906 3.627 10.679 10.679l-76.558 103.29 66.187 9.838c8.682 1.29 8.682 13.812 0 15.102l-66.19 9.838 76.561 103.294c5.227 7.052-3.627 15.906-10.679 10.679l-103.273-76.546-9.832 66.148c-1.29 8.682-13.812 8.682-15.102 0l-11.011-74.083-10.497 2.812a17.8 17.8 0 0 0-4.014 1.622L91.982 451.259C136.32 488.542 193.537 511 256 511" clip-rule="evenodd"/><path fill="url(#a)" fill-rule="evenodd" d="M256 511c140.833 0 255-114.167 255-255S396.833 1 256 1 1 115.167 1 256c0 64.182 23.712 122.826 62.853 167.65l136.459-126.531a32 32 0 0 0 3.424-8.102l2.418-9.023-74.055-11.007c-8.682-1.29-8.682-13.812 0-15.102l66.143-9.831-76.563-103.297c-5.227-7.052 3.627-15.905 10.679-10.679l103.317 76.579 9.837-66.185c1.29-8.682 13.812-8.682 15.102 0l9.833 66.152 103.272-76.546c7.052-5.226 15.906 3.627 10.679 10.679l-76.558 103.29 66.187 9.838c8.682 1.29 8.682 13.812 0 15.102l-66.19 9.838 76.561 103.294c5.227 7.052-3.627 15.906-10.679 10.679l-103.273-76.546-9.832 66.148c-1.29 8.682-13.812 8.682-15.102 0l-11.011-74.083-10.497 2.812a17.8 17.8 0 0 0-4.014 1.622L91.982 451.259C136.32 488.542 193.537 511 256 511" clip-rule="evenodd"/><defs><linearGradient id="a" x1="-83.124" x2="608.321" y1="29.688" y2="402" gradientUnits="userSpaceOnUse"><stop stop-color="#2A2CBF"/><stop offset=".516" stop-color="#6335FF"/><stop offset="1" stop-color="#BD89FF"/></linearGradient></defs></svg>