<svg xmlns="http://www.w3.org/2000/svg" width="31" height="31" fill="none"><path fill="url(#a)" fill-rule="evenodd" d="M15.35 0a15.35 15.35 0 1 1 0 30.7 15.35 15.35 0 0 1 0-30.7Zm.13 28.75c1.2-.02 2.06-.87 2.06-1.9 0-1.07-.83-1.85-1.9-1.85h-1.02a22.33 22.33 0 0 1-.76-.06h-.01l-.23-.02c-1.05-.08-1.93-.85-1.93-1.91s.86-1.91 1.93-1.91h2a1.92 1.92 0 0 0 1.92-1.92c0-1.06-.86-1.91-1.93-1.91H9.07a1.92 1.92 0 0 1-1.93-1.92c0-1.05.86-1.91 1.93-1.91h12.98a1.92 1.92 0 0 0 1.93-1.92 1.92 1.92 0 0 0-1.93-1.91h-8.43a1.92 1.92 0 0 1-1.93-1.92c0-1.06.98-1.84 1.93-1.91.95-.08 1-.08 2-.08.99 0 1.92-.78 1.92-1.84 0-1.04-.7-1.89-2.07-1.91h-.12a13.4 13.4 0 0 0-.02 26.8h.14Zm29.79.09V2.74h4.31v3.34c1.43-2.54 4.42-4.1 7.8-4.1 5.55 0 9.57 3.03 9.57 10.9v15.96h-4.41V13.53c0-4.87-2.3-7.25-6.13-7.25-4.32 0-6.73 3.04-6.73 7.4v15.16h-4.41Zm25.17-26.1v26.1h4.41v-8.47l4.22-4.15 8.78 12.62H93L82.06 13.07 92.41 2.73h-5.69L74.85 14.7V2.74h-4.41Zm-34.07 26.1V2.68h4.48v26.16h-4.48Z" clip-rule="evenodd"/><path fill="url(#b)" fill-rule="evenodd" d="M15.35 0a15.35 15.35 0 1 1 0 30.7 15.35 15.35 0 0 1 0-30.7Zm.13 28.75c1.2-.02 2.06-.87 2.06-1.9 0-1.07-.83-1.85-1.9-1.85h-1.02a22.33 22.33 0 0 1-.76-.06h-.01l-.23-.02c-1.05-.08-1.93-.85-1.93-1.91s.86-1.91 1.93-1.91h2a1.92 1.92 0 0 0 1.92-1.92c0-1.06-.86-1.91-1.93-1.91H9.07a1.92 1.92 0 0 1-1.93-1.92c0-1.05.86-1.91 1.93-1.91h12.98a1.92 1.92 0 0 0 1.93-1.92 1.92 1.92 0 0 0-1.93-1.91h-8.43a1.92 1.92 0 0 1-1.93-1.92c0-1.06.98-1.84 1.93-1.91.95-.08 1-.08 2-.08.99 0 1.92-.78 1.92-1.84 0-1.04-.7-1.89-2.07-1.91h-.12a13.4 13.4 0 0 0-.02 26.8h.14Zm29.79.09V2.74h4.31v3.34c1.43-2.54 4.42-4.1 7.8-4.1 5.55 0 9.57 3.03 9.57 10.9v15.96h-4.41V13.53c0-4.87-2.3-7.25-6.13-7.25-4.32 0-6.73 3.04-6.73 7.4v15.16h-4.41Zm25.17-26.1v26.1h4.41v-8.47l4.22-4.15 8.78 12.62H93L82.06 13.07 92.41 2.73h-5.69L74.85 14.7V2.74h-4.41Zm-34.07 26.1V2.68h4.48v26.16h-4.48Z" clip-rule="evenodd"/><defs><radialGradient id="a" cx="0" cy="0" r="1" gradientTransform="matrix(0 31 -94 0 46.5 -.1)" gradientUnits="userSpaceOnUse"><stop stop-color="#2E2E2E"/><stop offset="1" stop-color="#080808"/></radialGradient><radialGradient id="b" cx="0" cy="0" r="1" gradientTransform="matrix(-68 55 -109 -135 90.88 -3.04)" gradientUnits="userSpaceOnUse"><stop offset=".15" stop-color="#8049F2"/><stop offset="1" stop-color="#6D4EAE" stop-opacity="0"/></radialGradient></defs></svg>
