<svg xmlns="http://www.w3.org/2000/svg" xml:space="preserve" viewBox="0 0 1080 1080"><rect width="100%" height="100%" fill="transparent"/><path d="M30 15a15 15 0 1 0-30 0 15 15 0 0 0 30 0ZM17 26l-2 2a13 13 0 1 1 0-26l2 2-2 2h-2c-1 0-2 0-2 2l2 1h9l1 2-1 2H9l-2 2 2 2h6l2 2-2 2h-2l-2 1c0 2 1 2 2 2h2l2 2Z" style="stroke:#000;stroke-width:0;stroke-dasharray:none;stroke-linecap:butt;stroke-dashoffset:0;stroke-linejoin:miter;stroke-miterlimit:4;fill:#7132f5;fill-rule:nonzero;opacity:1" transform="matrix(18 0 0 18 275 275)" vector-effect="non-scaling-stroke"/></svg>
