<svg xmlns="http://www.w3.org/2000/svg" fill="none" viewBox="0 0 275 275"><path fill="#7132F5" d="M275 137.5C275 61.56 213.439 0 137.5 0 61.56 0 0 61.56 0 137.5 0 213.439 61.56 275 137.5 275c75.939 0 137.5-61.561 137.5-137.5M157.125 240.407c0 9.328-7.656 16.91-18.523 17.128q-.451.004-.904.005h-.396C71.097 257.433 17.46 203.73 17.46 137.5c0-66.296 53.744-120.04 120.04-120.04q.536 0 1.071.005c12.263.219 18.554 7.8 18.554 17.128 0 9.493-8.392 16.478-17.282 16.478s-9.327 0-17.837.682-17.311 7.668-17.311 17.133c0 9.521 7.735 17.189 17.311 17.189h75.474c9.548 0 17.282 7.667 17.282 17.132s-7.734 17.132-17.282 17.132H81.23c-9.576 0-17.31 7.696-17.31 17.189 0 9.465 7.734 17.133 17.31 17.133h58.613c9.548 0 17.282 7.667 17.282 17.16 0 9.465-7.734 17.133-17.282 17.133h-17.837c-9.576 0-17.311 7.667-17.311 17.132 0 9.493 7.927 16.423 17.311 17.133l2.039.155c3.302.251 5.106.389 6.913.464 2.176.091 4.356.091 9.161.091 9.548 0 17.006 7.013 17.006 16.478"/></svg>