<svg xmlns="http://www.w3.org/2000/svg" width="200" height="200"><path fill="#4B9341" d="M0 0h200v200H0z"/><path fill="#4C9541" d="M0 0h200v200h-14l-.254-2.988c-.65-4.537-2.554-8.186-4.684-12.2l-1.091-2.115a708 708 0 0 0-2.072-3.98c-.991-1.893-1.953-3.8-2.899-5.717h-2a60 60 0 0 1-2.437-3.562c-3.28-4.567-7.18-7.066-11.977-9.895-2.328-1.389-4.453-2.876-6.586-4.543.48-3.004 1.389-4.612 3.063-7.25 1.696-2.813 2.128-4.601 1.937-7.875 0-3.875 0-3.875 2-6.312 2.288-2.932 2.15-3.368 1.875-6.875-.236-4.07.561-5.718 3.188-8.813 2.588-3.132 2.588-3.132 3.25-7.187-2.18-6.126-5.694-12.07-10.313-16.688.34-3.404 1.953-5.355 4-8 1.208-3.623 1.316-7.095 1.5-10.875.219-4.448.476-8.775 1.5-13.125l-2.187-.75c-4.791-2.13-7.692-4.967-10.688-9.187-1.997-2.796-3.69-4.604-6.625-6.376-4.152-2.713-5.766-6.442-7.984-10.769-3.834-7.38-7.639-13.695-15.473-17.156-6.246-1.564-12.66-1.118-19.043-.762 1.26 0 2.517-.115 3.773-.21 8.795-.402 15.47.218 22.227 6.21 10 11.965 10 11.965 10 17l-3.332-.691c-9.442-1.87-17.546-2.71-27.09-.832-4.144.709-6.831.866-10.516-1.352C93.127 33.899 92.495 29.88 92 25v-1l-1.562-.687C88 22 88 22 85.062 19.5c-7.724-5.555-18.772-4.99-27.832-4.086-7.372 1.337-11.614 4.318-15.917 10.399A650 650 0 0 0 38 31c-2.61 3.7-5.35 7.25-8.316 10.672-9.369 10.813-15.567 22.9-21.852 35.66C5.701 81.637 3.403 85.841 1 90H0z"/><path fill="#4D9043" d="M87.188 20.625c2.498 2.11 3.651 3.01 6.812 3.375l-.687 1.563c-.488 3.806.88 6.125 2.687 9.437 2.285 2.15 3.766 3.01 6.938 2.984 2.37-.254 4.709-.607 7.062-.984 9.78-1.393 18.826-.953 28 3-6.706-12.796-6.706-12.796-17.988-21.223C113.22 17.024 105.753 16.992 99 19c1.031-1.465 1.031-1.465 3-3 8.478-1.254 17.059-.971 24.46 3.691 6.124 5.568 10.587 13.095 14.048 20.563 1.634 3.007 3.068 4.268 5.867 6.184 2.998 2.187 5.196 4.053 7.188 7.187 2.28 3.576 5.038 5.21 8.765 7.137C164 62 164 62 164.797 64.082L165 66l-1 1c-.204 3.279-.346 6.55-.43 9.834-.25 5.667-1.424 10.02-5.57 14.166.19 2.754 1.022 4.027 2.75 6.188 3.826 4.782 7.163 9.245 7.375 15.5C167 116 167 116 164.438 118.875c-2.983 3.823-2.648 5.42-2.348 10.031-.136 3.163-2.13 4.706-4.09 7.094-.173 2.055-.062 4.006.059 6.063-.087 2.874-1.37 4.685-3.059 6.937-1.534-3.069-.55-5.7 0-9l-2.33 1.475c-4.896 2.035-9.128 1.956-14.377 1.923l-3.148.01q-3.3.002-6.599-.017c-3.31-.016-6.617 0-9.927.02-16.898.02-32.175-.72-47.431-8.661l-2.959-1.481A478 478 0 0 1 60 129l-2.112-1.114C46.552 121.82 46.552 121.82 43 117c-.632-3.795-.18-4.73 2-8 5.928.238 11.303.958 16.941 2.852 7.34 2.321 14.746 3.88 22.309 5.273l2.095.39c13.163 2.432 26.27 3.945 39.655 4.485l2.763.117c2.58.094 5.156.155 7.737.195l2.228.055c6.26-.01 12.694-1 17.428-5.347 3.11-5.11 5.043-8.962 4.844-15.02-1.094-2.364-2.32-3.964-4-6-2.69 1.22-2.69 1.22-5 3-2.67.141-5.324.042-8 0l-1-3h-9l1.531 1.898 1.969 2.477 1.969 2.46C141 105 141 105 141 107h-2a117 117 0 0 1-3.625-4.812C131.601 97.3 128.94 95.485 123 94v-6l-4-1v3c-1.941 1.578-1.941 1.578-4.562 3.25-3.393 2.254-6.257 4.429-9 7.438-3.633 3.811-7.56 5.501-12.438 7.312l-2.21.906C87.28 110.316 84.828 111 81 111v-2l3.438-1.066L89 106.438l2.254-.69c6.094-2.04 10.189-5.264 14.746-9.748l-2.627-.212q-4.877-.406-9.75-.85-2.1-.186-4.202-.355C79.563 93.79 71.669 92.657 64 85.875l-1.75-1.508C61 83 61 83 61 81c3.272.58 4.806 1.532 7.125 3.875C75.3 91.228 84.8 91.647 94 92l2.014.083c2.141.078 4.281.127 6.424.167l3.996.078c3.723-.342 5.583-1.144 8.566-3.328l-1-2-12 3v-2q1.903-.758 3.813-1.5l2.144-.844C110 85 110 85 113 85c-2.722-7.494-2.722-7.494-7.852-13.172-2.062-.55-2.062-.55-5.148-.828l-3-2 1-1a832 832 0 0 0-3.812-2.437l-2.145-1.372c-7.139-4.163-16.707-2.463-24.457-.886C63.8 64.322 60.133 65.597 57 68c-1.223 2.05-1.223 2.05-2 4l8-1 1 2-2 1 7 3c3.37-2.274 3.37-2.274 5-6l7-1c-1.75 3.875-1.75 3.875-4 5l2 1-1 5h2l-1 3c-5.568-.288-8.142-.735-12.309-4.664C61.545 75.27 54.263 73.634 48 72c-.487-2.68-.362-4.418 1.09-6.75C53.25 60.13 57.7 57.1 64 55c1.436-.1 2.876-.148 4.316-.161l2.63-.03 2.831-.012 2.918-.017q3.056-.014 6.11-.02c3.117-.01 6.233-.041 9.35-.072q2.967-.01 5.935-.016l2.825-.038c6.494.023 6.494.023 9.704 1.887L112 58c-3.45-6.987-6.87-13.063-13-18l-2.574-2.137c-4.62-2.513-8.553-2.606-13.739-2.738l-2.724-.14c-8.442-.318-15.637.401-22.525 5.64l-2.567 1.914L53 44c0-3 0-3 1.328-4.5C62.274 33.298 71.991 30.938 82 32a153 153 0 0 1 10 2c-1.992-7.048-4.281-11.247-10.727-14.95C78.033 17.554 75.59 17.119 72 17l-3.3-.113C58.33 16.679 51.546 18.184 43 24c2.104-5.193 6.048-6.854 11-9 10.962-2.646 24.406-1.859 33.188 5.625"/><path fill="#962C17" d="M159 61h3c1.688 1.5 1.688 1.5 3 3l-1 3a301 301 0 0 0-.43 9.932c-.252 5.625-1.458 9.956-5.57 14.068.19 2.754 1.022 4.027 2.75 6.188 3.826 4.782 7.163 9.245 7.375 15.5C167 116 167 116 164.438 118.875c-2.983 3.823-2.648 5.42-2.348 10.031-.136 3.163-2.13 4.706-4.09 7.094-.173 2.055-.062 4.006.059 6.063-.087 2.874-1.37 4.685-3.059 6.937-1.534-3.069-.55-5.7 0-9l-2.33 1.475c-4.896 2.035-9.128 1.956-14.377 1.923l-3.148.01q-3.3.002-6.599-.017c-3.31-.016-6.617 0-9.927.02-16.898.02-32.175-.72-47.431-8.661l-2.959-1.481A478 478 0 0 1 60 129l-2.112-1.114C46.552 121.82 46.552 121.82 43 117c-.632-3.795-.18-4.73 2-8 5.928.238 11.303.958 16.941 2.852 7.34 2.321 14.746 3.88 22.309 5.273l2.095.39c13.163 2.432 26.27 3.945 39.655 4.485l2.763.117c2.58.094 5.156.155 7.737.195l2.228.055c6.26-.01 12.694-1 17.428-5.347 3.11-5.11 5.043-8.962 4.844-15.02-1.094-2.364-2.32-3.964-4-6-2.69 1.22-2.69 1.22-5 3q-3.5.061-7 0v-2l8-2-6-1v-2l3.688-.125c3.525-.407 5.065-1.185 7.312-3.937L160 85l-1-1-2.812 2C153 88 153 88 150 88v-2l2.813-1.312C155.468 83.28 157.177 82.33 159 80v-2l-2-2h4a200 200 0 0 0-2.687-3.937l-1.512-2.215c-3.318-3.404-7.823-3.04-12.363-3.16-4.349.01-4.349.01-8.063 2.187-1.389 2.06-1.389 2.06-2.375 4.125h-3v2c-2.273 1.495-4.568 2.784-7 4 2.698-5.855 6.786-11.455 12.875-14 6.741-2.021 13.602-1.61 20.125 1 1.938 2.125 1.938 2.125 3 4v-5c-4.604-2.307-8.777-2.367-13.812-2.375l-2.33-.074C137.96 62.52 134.044 64.066 129 67q-1.994 1.013-4 2c1.798-4.186 3.846-5.9 7.82-8.023 8.035-2.468 18.068-2.014 26.18.023"/><path fill="#4C9242" d="M146 147a100 100 0 0 1 4 3c2.208-.217 2.208-.217 4-1l-1 6 2.852 1.723c12.642 7.783 12.642 7.783 17.148 14.277v2h2c4.865 6.718 10.093 14.846 12 23l-1 4h-28v-2l-2.082.105-2.73.083-2.708.105c-2.48-.293-2.48-.293-4.304-1.68C145 195 145 195 145 193l-2.645.262c-4.26-.333-5.823-1.697-9.042-4.45l-2.825-2.355c-3.349-3.307-5.359-5.838-5.738-10.582L124 173a589 589 0 0 0-7-3c-1.437-3.187-1.437-3.187-2-6h-8c.937 4.895 2.295 7.516 5.625 11.25 3.773 4.523 4.008 7.898 3.621 13.66L116 191h-1l-.008-1.687c-.342-6.753-2.664-10.286-6.992-15.313-2.162-2.637-2.952-3.606-3.375-7.062C105 164 105 164 106 162.125c3.253-1.83 6.314-1.306 10-1.125v2c7.653-5.413 7.653-5.413 14.875-11.375 4.76-4.15 8.758-5.204 15.125-4.625"/><path fill="#061805" d="M87.188 20.625c2.498 2.11 3.651 3.01 6.812 3.375l-.687 1.563c-.488 3.806.88 6.125 2.687 9.437 2.285 2.15 3.766 3.01 6.938 2.984 2.37-.254 4.709-.607 7.062-.984 9.78-1.393 18.826-.953 28 3-6.706-12.796-6.706-12.796-17.988-21.223C113.22 17.024 105.753 16.992 99 19c1.031-1.465 1.031-1.465 3-3 8.478-1.254 17.059-.971 24.46 3.691 6.124 5.568 10.587 13.095 14.048 20.563 1.634 3.007 3.068 4.268 5.867 6.184C150.642 49.56 153.118 52.593 156 57a89 89 0 0 0 3 3l-1.727-.492c-2.294-.513-4.297-.637-6.644-.64l-2.49-.005-2.577.012-2.564-.012c-4.127.007-7.973.096-11.998 1.137 4.046-4.23 7.444-4.263 13.125-4.562l2.285-.131q2.795-.158 5.59-.307c-7.016-9.044-16.719-14.108-28-16-6.822-.81-12.577.747-19 3l1.207 1.574c7.622 10.033 7.622 10.033 8.23 14.989.647 3.948 1.633 4.873 4.563 7.437 1.158 3.473 1.069 6.36 1 10h-2l1 6h-2l-1.148-3.113c-1.78-4.137-4.274-6.96-7.477-10.074l-1.601-1.584C102.61 63.26 98.513 60.743 93 59l-2-1c-4.369-.3-8.747-.278-13.125-.312l-3.672-.088c-7.74-.055-13.891.266-19.75 5.883C52.329 65.895 51.019 67.943 50 71l1.54-1.426c9.502-8.595 19.37-11.15 32.155-10.824 6.275.68 11.236 3.646 16.422 7.063 2.05 1.35 2.05 1.35 5.133 2.687 5.573 3.04 7.525 7.87 9.82 13.512.871 2.156.871 2.156 2.93 3.988-.16 3.08-.542 4.545-2.75 6.738L113 94.313a74 74 0 0 0-9.187 7.812C97.743 107.638 89.204 111 81 111v-2l3.438-1.066L89 106.438l2.254-.69c6.094-2.04 10.189-5.264 14.746-9.748l-2.627-.212q-4.877-.406-9.75-.85-2.1-.186-4.202-.355C79.563 93.79 71.669 92.657 64 85.875l-1.75-1.508C61 83 61 83 61 81c3.272.58 4.806 1.532 7.125 3.875C75.3 91.228 84.8 91.647 94 92l2.014.083c2.141.078 4.281.127 6.424.167l3.996.078c3.723-.342 5.583-1.144 8.566-3.328l-1-2-12 3v-2q1.903-.758 3.813-1.5l2.144-.844C110 85 110 85 113 85c-2.722-7.494-2.722-7.494-7.852-13.172-2.062-.55-2.062-.55-5.148-.828l-3-2 1-1a832 832 0 0 0-3.812-2.437l-2.145-1.372c-7.139-4.163-16.707-2.463-24.457-.886C63.8 64.322 60.133 65.597 57 68c-1.223 2.05-1.223 2.05-2 4l8-1 1 2-2 1 7 3c3.37-2.274 3.37-2.274 5-6l7-1c-1.75 3.875-1.75 3.875-4 5l2 1-1 5h2l-1 3c-5.568-.288-8.142-.735-12.309-4.664C61.545 75.27 54.263 73.634 48 72c-.487-2.68-.362-4.418 1.09-6.75C53.25 60.13 57.7 57.1 64 55c1.436-.1 2.876-.148 4.316-.161l2.63-.03 2.831-.012 2.918-.017q3.056-.014 6.11-.02c3.117-.01 6.233-.041 9.35-.072q2.967-.01 5.935-.016l2.825-.038c6.494.023 6.494.023 9.704 1.887L112 58c-3.45-6.987-6.87-13.063-13-18l-2.574-2.137c-4.62-2.513-8.553-2.606-13.739-2.738l-2.724-.14c-8.442-.318-15.637.401-22.525 5.64l-2.567 1.914L53 44c0-3 0-3 1.328-4.5C62.274 33.298 71.991 30.938 82 32a153 153 0 0 1 10 2c-1.992-7.048-4.281-11.247-10.727-14.95C78.033 17.554 75.59 17.119 72 17l-3.3-.113C58.33 16.679 51.546 18.184 43 24c2.104-5.193 6.048-6.854 11-9 10.962-2.646 24.406-1.859 33.188 5.625"/><path fill="#140C03" d="M159 61h3c1.688 1.5 1.688 1.5 3 3l-1 3a301 301 0 0 0-.43 9.932c-.252 5.625-1.458 9.956-5.57 14.068.19 2.754 1.022 4.027 2.75 6.188 3.826 4.782 7.163 9.245 7.375 15.5C167 116 167 116 164.438 118.875c-2.983 3.823-2.648 5.42-2.348 10.031-.136 3.163-2.13 4.706-4.09 7.094-.173 2.055-.062 4.006.059 6.063-.087 2.874-1.37 4.685-3.059 6.937-1.534-3.069-.55-5.7 0-9l-2.33 1.475c-4.896 2.035-9.128 1.956-14.377 1.923l-3.148.01q-3.3.002-6.599-.017c-3.31-.016-6.617 0-9.927.02-16.898.02-32.175-.72-47.431-8.661l-2.959-1.481A478 478 0 0 1 60 129l-2.112-1.114C46.552 121.82 46.552 121.82 43 117c-.632-3.795-.18-4.73 2-8 5.928.238 11.303.958 16.941 2.852 7.34 2.321 14.746 3.88 22.309 5.273l2.095.39c13.163 2.432 26.27 3.945 39.655 4.485l2.763.117c2.58.094 5.156.155 7.737.195l2.228.055c6.26-.01 12.694-1 17.428-5.347 3.11-5.11 5.043-8.962 4.844-15.02-1.094-2.364-2.32-3.964-4-6-2.69 1.22-2.69 1.22-5 3q-3.5.061-7 0v-2l8-2-6-1v-2l3.688-.125c3.525-.407 5.065-1.185 7.312-3.937L160 85l-1-1-2.812 2C153 88 153 88 150 88v-2l2.813-1.312C155.468 83.28 157.177 82.33 159 80v-2l-2-2h4a200 200 0 0 0-2.687-3.937l-1.512-2.215c-3.318-3.404-7.823-3.04-12.363-3.16-4.349.01-4.349.01-8.063 2.187-1.389 2.06-1.389 2.06-2.375 4.125h-3v2c-2.273 1.495-4.568 2.784-7 4 2.698-5.855 6.786-11.455 12.875-14 6.741-2.021 13.602-1.61 20.125 1 1.938 2.125 1.938 2.125 3 4v-5c-4.604-2.307-8.777-2.367-13.812-2.375l-2.33-.074C137.96 62.52 134.044 64.066 129 67q-1.994 1.013-4 2c1.798-4.186 3.846-5.9 7.82-8.023 8.035-2.468 18.068-2.014 26.18.023m5 45-.918 2.012c-3.128 6.593-5.864 11.892-12.894 14.8-6.199 1.805-12.543 1.491-18.93 1.266a479 479 0 0 0-6.824-.172c-23.401-.653-47.708-4.622-69.926-12.078-2.938-.97-5.435-.974-8.508-.828-.95 2.24-.95 2.24-1 5 3.965 4.889 9.007 7.511 14.5 10.438l2.712 1.457c2.59 1.38 5.187 2.745 7.788 4.105l1.943 1.04c17.114 9.093 37.077 9.4 56.057 8.96l2.494-.038c2.794-.049 5.587-.128 8.381-.212l2.704-.042c6.765-.256 11.231-1.635 16.233-6.454 2.675-3.712 2.675-3.712 3-8.191L160 125l-2.125 1.313c-5.58 3.275-9.435 5.067-16.012 5.085l-2.039.013c-2.17.005-4.34-.013-6.512-.036l-2.244-.01c-10.196-.047-20.035-.688-30.056-2.646-3.937-.766-7.815-.993-11.824-1.156C81.713 127.16 75.08 125.339 68 123l-3.402-1.082c-4.352-1.408-8.55-2.77-12.598-4.918v-2l1.66.918c11.152 5.893 22.955 9.883 35.59 10.52 4.978.284 9.693.834 14.53 2.06 8.742 1.974 17.882 1.719 26.799 1.742 2.247.01 4.493.041 6.74.072q2.162.01 4.326.016l3.917.028c7.862-.815 14.139-7.517 18.938-13.418 1.905-2.65 2.5-3.483 2.5-6.813-.924-2.275-.924-2.275-3-4.125"/><path fill="#060906" d="M78.676 60.8c8.92-.357 14.712 2.208 21.324 8.2v1l3.25.625c4.585 1.681 5.561 3.079 7.75 7.375.816 2.327 1.423 4.596 2 7q-1.903.758-3.812 1.5l-2.145.844C105 88 105 88 102 88v2c-9.53.778-19.284-2.3-28-6l1.875-.375c2.316-.497 2.316-.497 4.125-2.625h-2l1-5-3-1 1-2h2l1-2h-6l-.25 1.813c-.955 2.784-2.321 3.62-4.75 5.187l-9-4 3-2h-8c.125-1.75.125-1.75 1-4 6.93-5.48 14.13-6.563 22.676-7.2"/><path fill="#090D09" d="M153.375 66.625C156.993 68.52 158.64 70.668 161 74v2l-2 1v4c-5.114 5-5.114 5-9 5v2a1204 1204 0 0 0 3.813-1.875l2.144-1.055c2.255-1.136 2.255-1.136 5.043-3.07-.29 3.394-1.023 5.031-3.062 7.813-3.98 2.962-6.08 2.599-10.938 2.187v2h7c-1.125 1.5-1.125 1.5-3 3-3.187.188-3.187.188-6 0l-1 2-1-3h-9l1.531 1.898 1.969 2.477 1.969 2.46C141 105 141 105 141 107h-2c-1.28-1.542-2.5-3.135-3.687-4.75-3.435-4.433-6.243-6.926-11.313-9.25v-2l7 1v-3l-1.934-.402c-.826-.177-1.652-.354-2.504-.535l-2.496-.528C122 87 122 87 121 86c.125-3.375.125-3.375 1-7 2.802-2.271 5.47-3.346 9-4v-2h3v-4c5.032-4.859 13.024-3.551 19.375-2.375"/><path fill="#051204" d="M61 57v2l-2.75 1.813C54.092 63.61 51.591 66.226 50 71l1.54-1.426c9.502-8.595 19.37-11.15 32.155-10.824 6.275.68 11.236 3.646 16.422 7.063 2.05 1.35 2.05 1.35 5.133 2.687 5.573 3.04 7.525 7.87 9.82 13.512.871 2.156.871 2.156 2.93 3.988-.16 3.08-.542 4.545-2.75 6.738L113 94.313a74 74 0 0 0-9.187 7.812C97.743 107.638 89.204 111 81 111v-2l3.438-1.066L89 106.438l2.254-.69c6.094-2.04 10.189-5.264 14.746-9.748l-2.627-.212q-4.877-.406-9.75-.85-2.1-.186-4.202-.355C79.563 93.79 71.669 92.657 64 85.875l-1.75-1.508C61 83 61 83 61 81c3.272.58 4.806 1.532 7.125 3.875C75.3 91.228 84.8 91.647 94 92l2.014.083c2.141.078 4.281.127 6.424.167l3.996.078c3.723-.342 5.583-1.144 8.566-3.328l-1-2-12 3v-2q1.903-.758 3.813-1.5l2.144-.844C110 85 110 85 113 85c-2.722-7.494-2.722-7.494-7.852-13.172-2.062-.55-2.062-.55-5.148-.828l-3-2 1-1a832 832 0 0 0-3.812-2.437l-2.145-1.372c-7.139-4.163-16.707-2.463-24.457-.886C63.8 64.322 60.133 65.597 57 68c-1.223 2.05-1.223 2.05-2 4l8-1 1 2-2 1 7 3c3.37-2.274 3.37-2.274 5-6l7-1c-1.75 3.875-1.75 3.875-4 5l2 1-1 5h2l-1 3c-5.568-.288-8.142-.735-12.309-4.664C61.545 75.27 54.263 73.634 48 72c-.5-2.75-.373-4.443 1.195-6.785C56.137 57 56.137 57 61 57"/><path fill="#061904" d="M146 147a100 100 0 0 1 4 3c2.208-.217 2.208-.217 4-1l-1 6 2.852 1.723c6.71 4.133 12.458 7.793 17.148 14.277l-1 2-1.074-1.469c-4.555-5.735-9.66-8.974-15.953-12.636-3.57-2.275-5.554-4.476-7.973-7.895-2.933-1.467-4.72-1.364-8-1-4.764 2.33-8.959 5.59-13 9l1 1.75c1 2.25 1 2.25 1 6.25l-4 2 1-1.875c1.142-2.035 1.142-2.035 1-4.125h-7v5c3.17 1.585 6.54 1.294 10 1 2.406-.863 2.406-.863 4-2-1.049 2.622-1.65 3.794-4.125 5.25L127 173l1 5a113.7 113.7 0 0 0 15-15l2 1c-2.752 4.701-5.92 7.899-10.098 11.387A69 69 0 0 0 130 180l1 3 3-1 .75 2.313c1.414 3.04 2.34 4.07 5.25 5.687 3.151.72 3.151.72 6 1l.75-2.687c1.724-4.568 3.527-7.49 8-9.625L157 178c-1.241 3.723-3.241 5.241-6 8-2.48 3.505-3 4.586-3 9 3.133.512 5.881.66 9 0 2.17-1.804 3.722-3.69 5.395-5.957 1.67-2.125 3.387-3.518 5.605-5.043 0 3 0 3-1.785 4.867q-2.276 2.007-4.563 4c-1.976 2.05-1.976 2.05-1.398 4.89L161 200h-3v-2l-2.082.105-2.73.083-2.708.105c-2.48-.293-2.48-.293-4.304-1.68C145 195 145 195 145 193l-2.645.262c-4.26-.333-5.823-1.697-9.042-4.45l-2.825-2.355c-3.349-3.307-5.359-5.838-5.738-10.582L124 173a589 589 0 0 0-7-3c-1.437-3.187-1.437-3.187-2-6h-8c.937 4.895 2.295 7.516 5.625 11.25 3.773 4.523 4.008 7.898 3.621 13.66L116 191h-1l-.008-1.687c-.342-6.753-2.664-10.286-6.992-15.313-2.162-2.637-2.952-3.606-3.375-7.062C105 164 105 164 106 162.125c3.253-1.83 6.314-1.306 10-1.125v2c7.653-5.413 7.653-5.413 14.875-11.375 4.76-4.15 8.758-5.204 15.125-4.625"/><path fill="#4C9142" d="M145 149c3.704 2.667 6.782 5.782 10 9l3 2c-.062 1.75-.062 1.75-1 4-2.804 2.022-5.913 3.456-9 5v-3h2v-2c-3.91-1.304-7.966-1.914-12-1-2.3 1.55-2.3 1.55-4.5 3.5-3.009 2.577-4.855 4.011-8.875 4.063C121 170 121 170 118 168l1-5c2.313-.687 2.313-.687 5-1 1.813 1.438 1.813 1.438 3 3l-1 3 2-4-3-3c1.402-3.338 2.951-5.017 5.875-7.125l2.055-1.508c4.134-2.73 7.022-4.074 12.07-3.367"/><path fill="#4D9143" d="M78.676 60.8c9.033-.362 14.563 2.285 21.324 8.2-2.984.995-5.2 1.196-8.324 1.316l-3.115.127-3.249.12-3.283.13q-4.014.16-8.029.307l-.371 1.89c-.83 2.784-2.241 3.57-4.629 5.11l-9-4 3-2h-8c.125-1.75.125-1.75 1-4 6.93-5.48 14.13-6.563 22.676-7.2"/><path fill="#041604" d="M159 61h3c1.688 1.5 1.688 1.5 3 3l-1 3a301 301 0 0 0-.43 9.932c-.252 5.625-1.458 9.956-5.57 14.068.283 3.96 2.778 6.845 5 10l-2 1-4-6c-2.69 1.22-2.69 1.22-5 3q-3.5.061-7 0v-2l8-2-6-1v-2l3.688-.125c3.525-.407 5.065-1.185 7.312-3.937L160 85l-1-1-2.812 2C153 88 153 88 150 88v-2l2.813-1.312C155.468 83.28 157.177 82.33 159 80v-2l-2-2h4a200 200 0 0 0-2.687-3.937l-1.512-2.215c-3.318-3.404-7.823-3.04-12.363-3.16-4.349.01-4.349.01-8.063 2.187-1.389 2.06-1.389 2.06-2.375 4.125h-3v2c-2.273 1.495-4.568 2.784-7 4 2.698-5.855 6.786-11.455 12.875-14 6.741-2.021 13.602-1.61 20.125 1 1.938 2.125 1.938 2.125 3 4v-5c-4.604-2.307-8.777-2.367-13.812-2.375l-2.33-.074C137.96 62.52 134.044 64.066 129 67q-1.994 1.013-4 2c1.798-4.186 3.846-5.9 7.82-8.023 8.035-2.468 18.068-2.014 26.18.023"/><path fill="#091D08" d="M146 162c2.5 1 2.5 1 4 2v2h-2l1 2 2.375-2c2.625-2 2.625-2 4.625-2v2c-2.125 1.77-2.125 1.77-5 3.813l-3.027 2.156c-3.073 2.1-6.19 4.068-9.414 5.926-1.872 1.188-1.872 1.188-3.559 4.105h-3l-1 2-2-4q2.43-2.508 4.875-5l2.742-2.812C139 170 139 170 141 170c1.414-2.382 1.414-2.382 2-5l-2.738 2.809-3.575 3.629-1.802 1.853-1.748 1.768-1.603 1.634C130 178 130 178 127 179l-1-7 2.875-1.25c3.317-1.858 3.687-2.463 5.125-5.75 3.443-3.708 7.247-3.594 12-3"/><path fill="#3E7A35" d="M173 173h2c4.865 6.718 10.093 14.846 12 23l-1 4h-25l-2-5 7-6v2c1.96 1.637 1.96 1.637 4 3l1.875-2.5L174 189h2v4l1.875-1.5C180 190 180 190 182 190a940 940 0 0 0-2.812-5.812l-1.583-3.27c-1.383-2.515-2.57-3.982-4.605-5.918z"/><path fill="#F7F8F6" d="M94 71c10.973-.776 10.973-.776 14.563 1.938 1.843 3.927 3.239 7.896 4.437 12.062-5.674 2.476-10.762 3.997-17 3l-2-2 1-2.062c1.193-3.506 1.273-6.255 1-9.938z"/><path fill="#240301" d="m52 115 1.875.777c4.34 1.698 8.73 3.24 13.125 4.785l2.695.96 2.618.92 2.363.834c4.853 1.512 9.508 1.906 14.574 2.162 4.978.284 9.693.834 14.53 2.06 8.742 1.974 17.882 1.719 26.799 1.742 2.247.01 4.493.041 6.74.072q2.162.01 4.326.016l3.917.028c3.676-.38 5.44-1.281 8.438-3.356l3-1c-1.031 2.99-1.897 3.937-4.64 5.612-3.76 1.553-6.441 1.775-10.497 1.786l-2.039.013c-2.17.005-4.34-.013-6.512-.036l-2.244-.01c-10.196-.047-20.035-.688-30.056-2.646-3.937-.766-7.815-.993-11.824-1.156C81.71 128.16 75.085 126.332 68 124c-1.123-.345-2.246-.69-3.402-1.047-9.23-2.908-9.23-2.908-12.598-5.953z"/><path fill="#071B06" d="M87.188 20.625c2.498 2.11 3.651 3.01 6.812 3.375l-.687 1.563C92.768 29.812 95.138 33.277 97 37l-3.184-.437c-14.807-1.984-26.373-3.4-38.945 5.976L53 44c0-3 0-3 1.328-4.5C62.274 33.298 71.991 30.938 82 32a153 153 0 0 1 10 2c-1.992-7.048-4.281-11.247-10.727-14.95C78.033 17.554 75.59 17.119 72 17l-3.3-.113C58.33 16.679 51.546 18.184 43 24c2.104-5.193 6.048-6.854 11-9 10.962-2.646 24.406-1.859 33.188 5.625"/><path fill="#4D8A44" d="M148 73c3.012.644 5.517 1.65 8.25 3.063l2.14 1.097L160 78c-1.705 3.741-3.573 5.66-7 8h-3v2a1204 1204 0 0 0 3.813-1.875l2.144-1.055c2.255-1.136 2.255-1.136 5.043-3.07-.29 3.394-1.023 5.031-3.062 7.813-3.98 2.962-6.08 2.599-10.938 2.187v2h7c-1.062 1.5-1.062 1.5-3 3-3.687.188-3.687.188-7 0-.8-3.287-1.097-4.71 0-8h5v-2l-2-1 2-3c.226-3.538.043-6.61-1-10"/><path fill="#071C06" d="M116.001 15.733c5.974.797 10.519 3.292 14.383 7.927 3.918 5.207 7.383 10.68 10.124 16.594 1.634 3.007 3.068 4.268 5.867 6.183 4.267 3.124 6.743 6.156 9.625 10.563a89 89 0 0 0 3 3l-1.727-.492c-2.294-.513-4.297-.637-6.644-.64l-2.49-.005-2.576.012-2.565-.012c-4.127.007-7.973.096-11.998 1.137 4.046-4.23 7.444-4.263 13.125-4.563l2.285-.13q2.795-.158 5.59-.307c-3.352-4.372-6.237-7.1-11.125-9.813l-3.133-1.769C135.02 41.921 135.02 41.921 132 41l1-3 5 2c-6.706-12.796-6.706-12.796-17.988-21.223C113.22 17.024 105.753 16.992 99 19c3.61-5.128 11.403-3.732 17.001-3.267"/><path fill="#4D8E43" d="m131 88 13 1v5c.297 1.673.621 3.343 1 5l-2-1v-2h-9l1.531 1.898 1.969 2.477 1.969 2.46C141 105 141 105 141 107h-2c-1.28-1.542-2.5-3.135-3.687-4.75-3.435-4.433-6.243-6.926-11.313-9.25v-2l7 1z"/><path fill="#4E8B46" d="M156 68c1.987 1.892 3.395 3.734 5 6v2c-3.21-1.018-6.21-2.1-9.25-3.562-4.403-1.96-8.989-2.16-13.75-2.438v2l-2 1c-.656 2.527-.656 2.527-1 5h-2c.187-8.106.187-8.106 2.875-11.062C142.243 65.027 150.023 64.869 156 68"/><path fill="#4C8A43" d="M96 57c1.75-.081 3.5-.14 5.25-.187l2.953-.106c3.194.335 4.526 1.06 6.797 3.293v2l3 1c3.666 4.4 4.455 7.318 4 13l-2.062-2.125c-2.62-2.626-5.404-5.007-8.243-7.39C106 65 106 65 103.375 62.25 100.971 59.972 99.131 58.984 96 58z"/><path fill="#102A0E" d="m114 182 3 1 1 13 5 2 2 2h-25c4-2 4-2 7.625-3.437 3.576-1.3 3.576-1.3 5.375-4.563.456-2.509.456-2.509.625-5.187l.227-2.731z"/><path fill="#122810" d="m85.063 68.938 3.49.013Q92.777 68.97 97 69v1l-23 1-1 4c-2.062 1.75-2.062 1.75-4 3l-9-4 3-2v-2c7.387-.995 14.616-1.118 22.063-1.062"/><path fill="#F4F6F3" d="M148 73c3.012.644 5.517 1.65 8.25 3.063l2.14 1.097L160 78c-1.726 3.751-3.493 5.716-7 8-2.812.25-2.812.25-5 0l.254-1.828.309-2.422.316-2.39c.121-2.365-.183-4.111-.879-6.36"/><path fill="#071506" d="M106 69c5.144 3.086 6.694 7.21 8.887 12.54.989 2.571.989 2.571 3.113 4.46.063 2.375.063 2.375-1 5-2.239 1.666-4.475 2.76-7 4v-3c2.5-1.687 2.5-1.687 5-3l-1-2-12 3v-2q1.903-.758 3.813-1.5l2.144-.844C110 85 110 85 113 85l-1.277-2.484-1.66-3.266-1.653-3.234c-1.122-2.4-1.915-4.435-2.41-7.016"/><path fill="#010D01" d="M68.012 54.886h2.427l2.604.016 2.678.005c2.822.005 5.644.018 8.467.03l5.74.014q7.035.017 14.072.049v1l-2.082.184-2.73.253-2.708.247c-2.607.25-2.607.25-5.48 1.316-2.284.084-4.57.107-6.855.098l-2.005-.005c-2.11-.005-4.218-.018-6.327-.03q-2.148-.009-4.295-.014Q66.259 58.032 61 58v-2c2.706-.902 4.239-1.122 7.012-1.114"/><path fill="#4E8A46" d="M142 164c-1.58 3.829-4.02 6.288-6.937 9.188l-2.653 2.667C130 178 130 178 127 179l-1-7 1.574-.734c3.385-1.627 6.289-3.156 9.239-5.516C139 164 139 164 142 164"/><path fill="#4E8547" d="m144 164 3 1c-1.186 4.153-3.033 6.115-6.414 8.746-3.732 2.95-6.855 6.373-9.586 10.254l-2-4q2.43-2.508 4.875-5l2.742-2.812C139 170 139 170 141 170l.938-1.875z"/><path fill="#041203" d="m124 91 3.375.938c4.83 1.22 9.668 1.676 14.625 2.062l-1 2h-7l1.531 1.898 1.969 2.477 1.969 2.46C141 105 141 105 141 107h-2c-1.28-1.542-2.5-3.135-3.687-4.75-3.435-4.433-6.243-6.926-11.313-9.25z"/><path fill="#528B49" d="m130 58 1 2 1.906-.98c4.238-1.397 8.161-1.35 12.594-1.333l2.55-.048c4.832-.004 7.986.282 11.95 3.361l-2 1-3-1c-3.142-.226-6.288-.185-9.437-.187l-2.604-.038-2.518-.005-2.29-.013c-2.424.274-4.002 1.133-6.151 2.243-2.25-.375-2.25-.375-4-1z"/><path fill="#508A49" d="M138 62c2.709-.081 5.415-.14 8.125-.187l2.305-.077c4.972-.064 8.206.608 12.57 3.264v7l-1.562-2.375c-4.85-5.222-11.431-4.913-18.18-5.281L139 64z"/><path fill="#46853D" d="M148 67v2c-3.473 1.158-6.36 1.069-10 1v2l-2 1c-.656 2.527-.656 2.527-1 5h-2c.188-8.137.188-8.137 3-11.125 4.182-1.22 7.762-.641 12 .125"/><path fill="#518E48" d="M114 193h2l.188 1.875c.64 2.403.64 2.403 3.374 3.375L122 199v1h-17c3-2 3-2 5.063-2.937 2.26-1.046 2.26-1.046 3.937-4.063"/><path fill="#011201" d="M105 167a119 119 0 0 1 5 5l1.668 1.727c4.306 4.97 4.915 8.63 4.543 15.148L116 191h-1l-.008-1.687c-.342-6.753-2.664-10.286-6.992-15.313-3-3.615-3-3.615-3-7"/><path fill="#F0F2EF" d="m68.75 71.875 2.422.055L73 72l-3 6-10-4c3.744-1.872 4.84-2.24 8.75-2.125"/><path fill="#061904" d="m51.688 104.938 2.449.027L56 105v2l-1.758.078c-5.513.4-8.773 1.434-13.242 4.922l-2 1c.379-2.746.778-3.8 2.875-5.687 3.346-2.067 5.968-2.431 9.813-2.376"/><path fill="#071D06" d="M61 81c3.315.588 5.006 1.64 7.438 3.938C71.148 87.373 73.46 88.928 77 90l-4 2c-4.27-2.745-8.23-5.59-12-9z"/><path fill="#11230F" d="M159 60c2.438.75 2.438.75 5 2 .875 2.063.875 2.063 1 4l-1 1a86 86 0 0 0-.562 4.563l-.254 2.503L163 76c-1.64-2.915-2.298-5.237-2.562-8.562-.228-2.759-.552-4.779-1.438-7.438"/><path fill="#020903" d="m131 69 4 1-1 3h-3v2c-2.273 1.495-4.568 2.784-7 4 1.668-3.941 4.227-6.79 7-10"/><path fill="#4A8342" d="M57 60c1.125 3.75 1.125 3.75 0 6h-2l-.812 1.938C53 70 53 70 50 71c.318-5.4 3.2-7.523 7-11"/><path fill="#508B47" d="m49.164 106.805 2.461.07 2.477.055L56 107v2l5 2c-3.165 1.583-5.744.33-9.125-.437l-3.883-.872L45 109c2-2 2-2 4.164-2.195"/><path fill="#E7E9E7" d="M88 75c2.188.313 2.188.313 4 1l-1 5h-5l-1-3c1.25-1.562 1.25-1.562 3-3"/><path fill="#0C2109" d="M73 32c5.458-.111 10.615.083 16 1l-1 2-16-1z"/><path fill="#121F11" d="M106 69c5.347 3.324 6.475 7.2 8 13l-2 1a956 956 0 0 1-2.437-4.75l-1.372-2.672c-1.026-2.22-1.706-4.192-2.191-6.578"/><path fill="#041504" d="M156 164v2c-1.863 1.762-1.863 1.762-4.312 3.688l-2.426 1.949L147 173l-3-1 1-3 4-1c5.09-4 5.09-4 7-4"/><path fill="#E3E4E3" d="M128 75c1.316 2.633.748 3.802.063 6.625l-.59 2.477L127 86l-4-1c.503-4.401 2.088-6.712 5-10"/><path fill="#4F8A48" d="m151 161 1 2 5-1v2c-6.75 3.875-6.75 3.875-9 5v-3h2l-1-3z"/><path fill="#051804" d="M174 189h2c-1.364 2.992-2.95 5.29-5.125 7.75l-1.633 1.86L168 200l-3-1 2.25-2.187c2.763-2.72 2.763-2.72 4.938-5.625z"/><path fill="#0D210B" d="M116 161c-2.762 2.762-5.207 2.579-9 3l-1 4c-.687-1.812-.687-1.812-1-4 2.308-4.308 6.748-3.21 11-3"/><path fill="#091409" d="M158 81c2.125.375 2.125.375 4 1a507 507 0 0 1-4.312 3l-2.426 1.688C153 88 153 88 150 88v-2l2.875-1.375c3.128-1.427 3.128-1.427 5.125-3.625"/><path fill="#548D4C" d="M135 35c1.5 1.375 1.5 1.375 3 3v2l-13-3v-1c6.625-.125 6.625-.125 10 1z"/><path fill="#528E4A" d="m114 86 2 1c-.75 1.938-.75 1.938-2 4-2.125.75-2.125.75-4 1l-1-4c2.375-1.062 2.375-1.062 5-2"/><path fill="#528948" d="m94 29 1 3 2 1c2.368 1.579 4.067 2.975 6 5l-2 1c-2.498-1.498-4.86-3.016-7-5-.437-2.812-.437-2.812 0-5"/><path fill="#0B190B" d="m123 78 2 2-2 5 3 1c-1.937.563-1.937.563-4 1l-1-1c.72-6.72.72-6.72 2-8"/><path fill="#53904C" d="m88 19 7 2-3 3-4-2z"/><path fill="#F4F6F4" d="m142 77 4 1-1 4-4-1z"/><path fill="#9EA19D" d="m77 73 3 1 1 7h-3l1-5-3-1z"/><path fill="#529446" d="m103 57 5 1 1 5-3 1c-1-1-1-1-1.062-3.562L105 58z"/><path fill="#528C4A" d="m141 175 2 1c-3.446 4.8-3.446 4.8-6.25 5.813L135 182c1.804-3.265 2.834-4.89 6-7"/><path fill="#071B05" d="m58 37 3 1-8 6v-3c2.313-2.25 2.313-2.25 5-4"/><path fill="#092307" d="M53 98v2l-9 2 1-3c2.928-.976 4.956-1.082 8-1"/><path fill="#558A4C" d="M147 94h7c-1.187 1.5-1.187 1.5-3 3-2.687.188-2.687.188-5 0z"/><path fill="#091E07" d="m124 91 8 2-1 3c-2.937-.812-2.937-.812-6-2z"/><path fill="#4A4C49" d="M135 70h3v2l-2 1c-.656 2.527-.656 2.527-1 5h-2c.875-6.875.875-6.875 2-8"/><path fill="#518F48" d="M142 67v3h-8c2.466-3.115 4.108-3.316 8-3"/><path fill="#508C49" d="M88 25c2.523 1.974 2.993 2.967 3.688 6.188L92 34c-3.938-3.323-3.938-3.323-4.25-6.75z"/><path fill="#2E5A29" d="m97 19 2 1-1.437 2.375C96.66 23.889 95.788 25.424 95 27h-3c1.186-3.375 2.276-5.647 5-8"/><path fill="#538F4A" d="M129 164h6l-5 5-2-3z"/><path fill="#468D3C" d="m48 100 7 1-1 3-6-1z"/><path fill="#081B07" d="M61 57v2c-5.412 4-5.412 4-8 4 1.435-4.304 3.42-6 8-6"/><path fill="#061B05" d="m125 161 4 3-2 4h-3l2-3v-2l-2-1z"/><path fill="#0C250A" d="M68 88c3.735.498 5.812.875 9 3-1.687.688-1.687.688-4 1-2.75-1.375-2.75-1.375-5-3z"/><path fill="#47873E" d="M114 78h3v4l2 1h-5z"/></svg>