<svg xmlns="http://www.w3.org/2000/svg" width="400" height="400" style="shape-rendering:geometricPrecision;text-rendering:geometricPrecision;image-rendering:optimizeQuality;fill-rule:evenodd;clip-rule:evenodd"><path style="opacity:.99" fill="#468201" d="M399.5 182.5v35c-11.989 87.827-59.989 145.994-144 174.5-12.643 3.362-25.309 5.862-38 7.5h-35c-68.815-8.142-120.982-41.808-156.5-101-30.617-58.266-33.617-117.933-9-179C43.298 63.872 85.798 26.706 144.5 8c70.542-17.944 133.542-3.61 189 43 38.106 35.712 60.106 79.545 66 131.5z"/><path style="opacity:1" fill="#436420" d="M171.5 83.5a102.049 102.049 0 0 0-18 1c.111-.617.444-1.117 1-1.5 5.849-.818 11.515-.652 17 .5z"/><path style="opacity:.996" fill="#467218" d="M127.5 108.5a755.174 755.174 0 0 0-17.5 15c-.309 3.467.524 3.8 2.5 1-.57 6.121-2.236 6.454-5 1a28.931 28.931 0 0 0 1.5-4 169.26 169.26 0 0 1 15.5-12.5 4.934 4.934 0 0 1 3-.5z"/><path style="opacity:1" fill="#151909" d="M171.5 83.5c9.671-.214 17.838 3.12 24.5 10 8.318-9.592 18.818-12.759 31.5-9.5 10.657 1.984 18.49 7.817 23.5 17.5a144.625 144.625 0 0 1 6 15c7.306 4.806 13.472 10.806 18.5 18 3.899 1.148 7.399 3.148 10.5 6a186.128 186.128 0 0 0 .5 26c-1.274 5.046-3.941 9.213-8 12.5 3.645 3.453 6.145 7.62 7.5 12.5 4.794 3.008 6.46 7.341 5 13l-7 9c3.131 7.508 1.465 13.842-5 19a49.944 49.944 0 0 1 0 11 105.64 105.64 0 0 0-6.5 11c.029 1.529.696 2.696 2 3.5 5.088 3.083 9.588 6.917 13.5 11.5a271.34 271.34 0 0 1 18 21c7.521 11.545 8.355 23.545 2.5 36-1.086-.12-1.753-.787-2-2 3.394-5.474 4.561-11.474 3.5-18a48.325 48.325 0 0 0-7-16c-11.608-16.608-26.108-30.108-43.5-40.5a12.494 12.494 0 0 0-7 0 138.677 138.677 0 0 0-15.5 12.5c.815 1.931 1.315 4.098 1.5 6.5a14.985 14.985 0 0 1-1 4.5c-1 1.333-2 1.333-3 0 2.795-3.182 2.629-6.182-.5-9-2.662 1.981-4.495 4.481-5.5 7.5.255 1.326.922 2.326 2 3 8.421 1.792 15.088-.875 20-8 4.178-1.548 8.344-1.715 12.5-.5a25.777 25.777 0 0 1 2 8c2.201-2.904 5.034-4.404 8.5-4.5-6.479 7.07-14.146 12.404-23 16-5.333 3.667-5.333 7.333 0 11a28.51 28.51 0 0 0 9 4.5 4.933 4.933 0 0 0 2.5-1c2.525-7.023 7.025-12.357 13.5-16 1.021.502 1.188 1.168.5 2-5.758 4.408-9.924 9.908-12.5 16.5-.007 1.812.66 3.312 2 4.5a28.322 28.322 0 0 0 10 3 8.43 8.43 0 0 1 .5-4 98.521 98.521 0 0 1 7.5-9l4-4c1.083.865 1.249 1.865.5 3-4.88 3.703-8.38 8.369-10.5 14 1.466 3.392 4.133 4.725 8 4 1.042 1.291 2.208 1.291 3.5 0 2.106-5.62 5.273-10.62 9.5-15 1.083.865 1.249 1.865.5 3-3.346 3.333-5.846 7.167-7.5 11.5 1.167 2.75 3.333 4.25 6.5 4.5 4.962-2.78 5.462-2.28 1.5 1.5-2.045.49-4.045.323-6-.5-8.2-1.883-16.2-4.383-24-7.5a34.099 34.099 0 0 0-6-3 29.01 29.01 0 0 0-3-4.5c-8.672-3.153-15.839-8.487-21.5-16a274.481 274.481 0 0 1-2.5-7c.086-.996-.248-1.829-1-2.5a119.976 119.976 0 0 1-8-3.5c-1.591-6.434-5.591-8.934-12-7.5-1.863 1.418-2.363 3.251-1.5 5.5a66.686 66.686 0 0 0 10.5 13c.283.789.783 1.456 1.5 2l1 13a57.487 57.487 0 0 0 5 12l12.5 12.5-1 1.5c-8.249-6.073-14.416-13.74-18.5-23a454.063 454.063 0 0 0-15.5 21l-1-1.5a156.485 156.485 0 0 1 15.5-21.5c.667-4 .667-8 0-12a129.038 129.038 0 0 0-12-15c-.193-11.272 4.641-13.939 14.5-8a181.153 181.153 0 0 0 20-17c8.295-4.755 15.795-3.755 22.5 3 4.121-4.111 6.954-8.945 8.5-14.5a12.793 12.793 0 0 0-2-4.5c-4.518 3.973-9.851 6.14-16 6.5-15.997.5-31.997.667-48 .5a214.79 214.79 0 0 1-32-8 642.844 642.844 0 0 0-35-20 46.081 46.081 0 0 0-5.5-6c-1.271-3.666-.104-6.166 3.5-7.5a24.935 24.935 0 0 1 7-.5 21.435 21.435 0 0 0 7 1 498.573 498.573 0 0 1 14 6.5 1834.843 1834.843 0 0 0 41 8c18.333.667 36.667.667 55 0 6.216-2.859 11.383-7.026 15.5-12.5 3.166-8.656 1.332-15.989-5.5-22-3.086 5.804-7.753 7.47-14 5 3.204-.704 6.371-1.37 9.5-2l.5-1c-2.684-.476-5.017-1.476-7-3 8.135.184 14.302-3.149 18.5-10 .667-2 .667-4 0-6a26.9 26.9 0 0 0-5.5 6.5c-1.544.29-2.877.956-4 2a167.75 167.75 0 0 1-35 1c-2.938-.297-4.938-1.797-6-4.5 1.681-4.058 3.348-8.058 5-12a258.277 258.277 0 0 1 18-12.5c7.461-.963 14.794-.463 22 1.5 1.333 2 3 3.667 5 5 1.773-4.192.439-6.692-4-7.5a96.616 96.616 0 0 0-26-1 70.454 70.454 0 0 0-12 7c-1.249.74-2.249.573-3-.5 4.432-4.551 9.765-7.551 16-9 9.12-1.468 18.12-.801 27 2 2.315-.299 2.315-1.132 0-2.5-5.11-2.009-10.443-2.843-16-2.5a59.66 59.66 0 0 0-17 2c-.963-.47-.963-1.137 0-2a194.853 194.853 0 0 1 24-3c-15.613-18.801-35.28-24.801-59-18-1.021.502-1.188 1.168-.5 2l5 5a63.336 63.336 0 0 1 7 18c3.275 3.557 5.775 7.557 7.5 12 .285 1.788-.048 3.455-1 5-1.933-6.632-5.266-12.465-10-17.5-5.685-5.156-12.352-6.822-20-5 12.902 4.562 22.402 13.062 28.5 25.5.808 2.079.641 4.079-.5 6-2.048-8.228-6.381-15.061-13-20.5-10.853-8.776-23.353-12.609-37.5-11.5a159.044 159.044 0 0 0-22.5 2.5c-6.248 3.008-10.248 7.841-12 14.5 1.574 1.131 3.241 1.298 5 .5 3.422-6.395 8.756-10.395 16-12a87.766 87.766 0 0 1 32 0c4.313 3.986 9.313 6.653 15 8 6.767 4.249 10.601 10.416 11.5 18.5 1.451 1.964 3.284 3.297 5.5 4a10.098 10.098 0 0 1-1.5 6 109.392 109.392 0 0 1-10.5 6.5c-6.947 8.15-15.613 13.817-26 17-3.843.651-4.509-.182-2-2.5 9.994-2.166 18.327-7.166 25-15a496.023 496.023 0 0 1-40-5.5 43.997 43.997 0 0 1-15-9.5c-1.153-2.611-.486-3.277 2-2 3.961 4.656 8.961 7.823 15 9.5a197.085 197.085 0 0 0 44 4c3.076-.911 5.409-2.744 7-5.5a6.547 6.547 0 0 0-3-3c-7.069 4.507-14.736 6.007-23 4.5a142.808 142.808 0 0 0-22-5 103.805 103.805 0 0 1-12-6.5c-6.775-5.872-14.775-8.706-24-8.5-1.447-4.148-.781-7.981 2-11.5a72.667 72.667 0 0 1 7-7.5 133.039 133.039 0 0 1 19-4 361.07 361.07 0 0 1 38 0 24.541 24.541 0 0 1 10 3.5c1.114-1.223 1.281-2.556.5-4-4.323-9.489-11.156-16.489-20.5-21-2.377-1.387-5.043-2.221-8-2.5-10.47-1.096-20.803-.429-31 2-.556.383-.889.883-1 1.5-3.686 1.18-6.686 3.347-9 6.5-.983.591-1.65.257-2-1 6.918-7.743 15.584-11.576 26-11.5 6.363-.093 12.696.24 19 1h4c-.101-8.617-4.101-14.784-12-18.5-25.889-9.177-44.722-1.677-56.5 22.5a111.268 111.268 0 0 0-16.5 14c-1.976 2.8-2.809 2.467-2.5-1a755.174 755.174 0 0 1 17.5-15c4.703-10.206 12.037-18.04 22-23.5a8.435 8.435 0 0 1 4-.5 102.049 102.049 0 0 1 18-1z"/><path style="opacity:.996" fill="#436a1b" d="M199.5 110.5c-7.977.279-13.811-.388-17.5-2-7.713.151-15.213 1.151-22.5 3 .111-.617.444-1.117 1-1.5 10.197-2.429 20.53-3.096 31-2 2.957.279 5.623 1.113 8 2.5z"/><path style="opacity:.996" fill="#456d1a" d="M228.5 110.5c4.816-1.15 9.816-1.316 15-.5 1.709 1.545 3.709 2.378 6 2.5 1.53-.14 2.53-.807 3-2 .934 1.068 1.268 2.401 1 4a42.196 42.196 0 0 1-13-3.5 72.367 72.367 0 0 0-12-.5z"/><path style="opacity:1" fill="#344f1a" d="M174.5 105.5c2.31-.664 4.81-.997 7.5-1 4.112-.151 7.946.516 11.5 2a141.304 141.304 0 0 0-19-1z"/><path style="opacity:1" fill="#468106" d="M224.5 86.5c14.467 1.787 23.801 9.787 28 24-.47 1.193-1.47 1.86-3 2-2.291-.122-4.291-.955-6-2.5-5.184-.816-10.184-.65-15 .5-5.723-.146-11.223.854-16.5 3a41.25 41.25 0 0 1-10.5-4.5 47.359 47.359 0 0 0-4-13c.877-2.377 2.544-3.877 5-4.5 6.914-3.123 14.247-4.79 22-5z"/><path style="opacity:.996" fill="#446d19" d="M224.5 86.5c-7.753.21-15.086 1.877-22 5 6.309-5.888 13.642-7.554 22-5z"/><path style="opacity:.996" fill="#446c1b" d="M275.5 134.5c4.462-.265 8.295 1.068 11.5 4 .824 9.509.658 18.843-.5 28a186.128 186.128 0 0 1-.5-26c-3.101-2.852-6.601-4.852-10.5-6z"/><path style="opacity:1" fill="#42661b" d="M248.5 136.5c-.963.863-.963 1.53 0 2a59.66 59.66 0 0 1 17-2c5.557-.343 10.89.491 16 2.5 2.315 1.368 2.315 2.201 0 2.5-8.88-2.801-17.88-3.468-27-2-2.481-.758-5.148-.758-8 0-.215-1.679.452-2.679 2-3z"/><path style="opacity:1" fill="#468009" d="M189.5 141.5c5.811.075 10.811 2.075 15 6 .111.617.444 1.117 1 1.5-12.84.169-25.507.669-38 1.5a43.846 43.846 0 0 0-14 3l-2-1c2.625-4.318 6.292-6.985 11-8 3.181-.242 6.181-.242 9 0-.391-1.218.276-2.052 2-2.5a128.507 128.507 0 0 1 16-.5z"/><path style="opacity:1" fill="#477517" d="M238.5 156.5c-.363-2.411.637-3.911 3-4.5a11.333 11.333 0 0 1-3.5-1.5c-.692-.937-.525-1.603.5-2 .751 1.073 1.751 1.24 3 .5 3.72-2.7 7.72-5.033 12-7a96.616 96.616 0 0 1 26 1c4.439.808 5.773 3.308 4 7.5-2-1.333-3.667-3-5-5-7.206-1.963-14.539-2.463-22-1.5a258.277 258.277 0 0 0-18 12.5z"/><path style="opacity:1" fill="#467a12" d="M255.5 146.5c6.675-.166 13.342 0 20 .5 4.793 2.221 7.127 5.721 7 10.5-9.713-6.203-20.379-8.703-32-7.5 2.084-.697 3.751-1.864 5-3.5z"/><path style="opacity:1" fill="#e3e3e1" d="M165.5 152.5a32.462 32.462 0 0 1 8 .5c-2.126 2.433-3.459 5.266-4 8.5a103.59 103.59 0 0 0-12-6.5 147.318 147.318 0 0 1 8-2.5z"/><path style="opacity:1" fill="#f0f0ee" d="M201.5 152.5a45.902 45.902 0 0 1 15 1.5 77.496 77.496 0 0 1 6 14.5c-6.875 4.313-14.209 5.48-22 3.5 2.292-2.71 3.292-5.877 3-9.5a27.638 27.638 0 0 0-2-10z"/><path style="opacity:1" fill="#ebebea" d="M264.5 152.5c6.654.911 12.487 3.577 17.5 8-1.989 6.704-6.656 10.371-14 11 .186-3.984.186-7.984 0-12a46.428 46.428 0 0 0-3.5-7z"/><path style="opacity:1" fill="#e3e3e1" d="M179.5 154.5h3v4h-4c-.067-1.459.266-2.792 1-4z"/><path style="opacity:1" fill="#457714" d="M232.5 152.5c.647.774.98 1.774 1 3a28.69 28.69 0 0 0-2 12c-2.748-.098-3.414.902-2 3-2.216-.703-4.049-2.036-5.5-4-.899-8.084-4.733-14.251-11.5-18.5-5.687-1.347-10.687-4.014-15-8a87.766 87.766 0 0 0-32 0c-7.244 1.605-12.578 5.605-16 12-1.759.798-3.426.631-5-.5 1.752-6.659 5.752-11.492 12-14.5a159.044 159.044 0 0 1 22.5-2.5c14.147-1.109 26.647 2.724 37.5 11.5 6.619 5.439 10.952 12.272 13 20.5 1.141-1.921 1.308-3.921.5-6-6.098-12.438-15.598-20.938-28.5-25.5 7.648-1.822 14.315-.156 20 5 4.734 5.035 8.067 10.868 10 17.5.952-1.545 1.285-3.212 1-5z"/><path style="opacity:1" fill="#283611" d="M204.5 147.5a19.177 19.177 0 0 1 5 2.5c-13.996.5-27.996.667-42 .5a714.114 714.114 0 0 1 38-1.5c-.556-.383-.889-.883-1-1.5z"/><path style="opacity:.996" fill="#446c1a" d="M189.5 141.5a128.507 128.507 0 0 0-16 .5c-1.724.448-2.391 1.282-2 2.5-2.819-.242-5.819-.242-9 0 8.695-3.922 17.695-4.922 27-3z"/><path style="opacity:1" fill="#dddddb" d="M248.5 155.5c2.259.844 3.259 2.511 3 5-4.984.356-5.984-1.311-3-5z"/><path style="opacity:1" fill="#ebebe9" d="M190.5 157.5h6c1.344 6.162-.822 8.162-6.5 6-.49-2.045-.323-4.045.5-6z"/><path style="opacity:.996" fill="#467119" d="M145.5 143.5c-2.781 3.519-3.447 7.352-2 11.5 9.225-.206 17.225 2.628 24 8.5a237.861 237.861 0 0 0-17.5-7c-4.058 1.15-7.558.15-10.5-3 1.125-2.96 2.125-5.96 3-9a5.576 5.576 0 0 1 3-1z"/><path style="opacity:1" fill="#e7e7e5" d="M257.5 159.5c5.613-1.421 7.78.579 6.5 6-5.296 1.789-7.463-.211-6.5-6z"/><path style="opacity:1" fill="#d7d7d4" d="M243.5 154.5c.543.06.876.393 1 1-3.349 4.429-4.683 9.429-4 15-2.448.415-3.781-.585-4-3 1.083-5.064 3.417-9.397 7-13z"/><path style="opacity:1" fill="#d2d4cd" d="M180.5 160.5c1.696.185 3.029 1.019 4 2.5-1.117 1.892-2.784 2.725-5 2.5-.134-1.792.199-3.458 1-5z"/><path style="opacity:.996" fill="#477913" d="M167.5 163.5a103.805 103.805 0 0 0 12 6.5 142.808 142.808 0 0 1 22 5c8.264 1.507 15.931.007 23-4.5a6.547 6.547 0 0 1 3 3c-1.591 2.756-3.924 4.589-7 5.5a197.085 197.085 0 0 1-44-4c-6.039-1.677-11.039-4.844-15-9.5 2.582.475 4.582-.192 6-2z"/><path style="opacity:1" fill="#468008" d="M248.5 136.5c-1.548.321-2.215 1.321-2 3 2.852-.758 5.519-.758 8 0-6.235 1.449-11.568 4.449-16 9-1.025.397-1.192 1.063-.5 2a11.333 11.333 0 0 0 3.5 1.5c-2.363.589-3.363 2.089-3 4.5a3156.466 3156.466 0 0 0-5 12c1.062 2.703 3.062 4.203 6 4.5a167.75 167.75 0 0 0 35-1c1.123-1.044 2.456-1.71 4-2a26.9 26.9 0 0 1 5.5-6.5c.667 2 .667 4 0 6-4.198 6.851-10.365 10.184-18.5 10 1.983 1.524 4.316 2.524 7 3l-.5 1c-3.129.63-6.296 1.296-9.5 2 6.247 2.47 10.914.804 14-5 6.832 6.011 8.666 13.344 5.5 22-4.117 5.474-9.284 9.641-15.5 12.5a756.122 756.122 0 0 1-55 0 1834.843 1834.843 0 0 1-41-8 498.573 498.573 0 0 0-14-6.5 9.108 9.108 0 0 0 5-1 11.38 11.38 0 0 1 2 2.5 47.47 47.47 0 0 1 11 4.5 30.768 30.768 0 0 0 6.5-2c2.816 1.126 5.316.459 7.5-2 1.724 1.161 3.39.995 5-.5a42.769 42.769 0 0 1-9-1.5 28.931 28.931 0 0 0 1.5-4c1.011.837 2.178 1.17 3.5 1-2.509 2.318-1.843 3.151 2 2.5 10.387-3.183 19.053-8.85 26-17a109.392 109.392 0 0 0 10.5-6.5 10.098 10.098 0 0 0 1.5-6c-1.414-2.098-.748-3.098 2-3a28.69 28.69 0 0 1 2-12c-.02-1.226-.353-2.226-1-3-1.725-4.443-4.225-8.443-7.5-12a63.336 63.336 0 0 0-7-18l-5-5c-.688-.832-.521-1.498.5-2 23.72-6.801 43.387-.801 59 18a194.853 194.853 0 0 0-24 3z"/><path style="opacity:1" fill="#dfdfde" d="M247.5 164.5h4v3h-4v-3z"/><path style="opacity:1" fill="#121607" d="M235.5 177.5c7.92 2.565 15.92 3.565 24 3-4.439 1.757-8.772 2.423-13 2a85.693 85.693 0 0 1 11 11c-.502 1.021-1.168 1.188-2 .5-6.347-6.208-13.013-11.708-20-16.5z"/><path style="opacity:1" fill="#151909" d="M143.5 186.5a9.86 9.86 0 0 1 6 1c-3.586 1.768-7.253 2.101-11 1a112.33 112.33 0 0 0 5-2z"/><path style="opacity:1" fill="#181e0c" d="M146.5 193.5c1.788-.285 3.455.048 5 1a366.92 366.92 0 0 0-10 2.5 65.815 65.815 0 0 1-8 5.5l-1-1.5a25.593 25.593 0 0 0 4-4.5 43.278 43.278 0 0 1 10-3z"/><path style="opacity:1" fill="#8c430b" d="M286.5 195.5c3.374 2.38 3.874 5.38 1.5 9a181.417 181.417 0 0 1-15.5 16.5 44.145 44.145 0 0 1-15 3 228.992 228.992 0 0 1-52.5-3.5h-16a516.441 516.441 0 0 0-26.5-7.5 53.824 53.824 0 0 0-13.5-7.5 9.454 9.454 0 0 1-2.5 1.5 108.528 108.528 0 0 1 16 9 164.185 164.185 0 0 1 21 6 400.322 400.322 0 0 1 41.5 4.5l1-1c14.684 2.418 29.184 2.251 43.5-.5 4.656-1.647 8.489-4.48 11.5-8.5 2.504 4.957 1.671 9.291-2.5 13-6.768 6.735-14.935 10.068-24.5 10-13.961.13-28.128-.037-42.5-.5a135.44 135.44 0 0 1-37-11 400.179 400.179 0 0 0-28-16c-8.715-6.66-7.882-10.16 2.5-10.5a189.313 189.313 0 0 1 20.5 7.5 293.292 293.292 0 0 1 37.5 8.5l1-1c18.947 2.061 38.781 2.228 59.5.5 10.133-3.958 16.466-11.124 19-21.5z"/><path style="opacity:.996" fill="#457118" d="M149.5 199.5a24.935 24.935 0 0 0-7 .5c-3.604 1.334-4.771 3.834-3.5 7.5a46.081 46.081 0 0 1 5.5 6c-2.082.028-3.916-.639-5.5-2a19.24 19.24 0 0 1-3-9c-2 2.667-4 2.667-6 0-.684-1.284-.517-2.451.5-3.5 2.064-.653 3.731-1.82 5-3.5.607.124.94.457 1 1a25.593 25.593 0 0 1-4 4.5l1 1.5a65.815 65.815 0 0 0 8-5.5 366.92 366.92 0 0 1 10-2.5c-1.545-.952-3.212-1.285-5-1 1.714-1.238 3.714-1.905 6-2v5a13.116 13.116 0 0 0-7 1 71.254 71.254 0 0 1 4 2z"/><path style="opacity:1" fill="#447612" d="M246.5 250.5c-.086-.996.248-1.829 1-2.5 2.367-.374 4.2-1.541 5.5-3.5 2.847 1.194 5.68 1.194 8.5 0-1.32-1.77-2.82-2.103-4.5-1-15.265-.659-30.431-1.326-45.5-2 16.003.167 32.003 0 48-.5 6.149-.36 11.482-2.527 16-6.5a12.793 12.793 0 0 1 2 4.5c-1.546 5.555-4.379 10.389-8.5 14.5-6.705-6.755-14.205-7.755-22.5-3z"/><path style="opacity:1" fill="#467f0b" d="M308.5 326.5c-.787 1.604-2.12 2.271-4 2 .377-3.025.544-6.025.5-9-.317 1.801-.984 2.134-2 1-2.497 1.978-5.331 2.478-8.5 1.5-.752-.671-1.086-1.504-1-2.5 1.955.823 3.955.99 6 .5 3.962-3.78 3.462-4.28-1.5-1.5-3.167-.25-5.333-1.75-6.5-4.5 1.654-4.333 4.154-8.167 7.5-11.5.749-1.135.583-2.135-.5-3-4.227 4.38-7.394 9.38-9.5 15-1.292 1.291-2.458 1.291-3.5 0-7.039-2.477-7.539-6.477-1.5-12 .667 1.333 1.333 1.333 2 0a75.296 75.296 0 0 0 3.5-7.5c-.209-1.871-1.209-3.038-3-3.5-2.053 1.439-3.053 3.439-3 6a98.521 98.521 0 0 0-7.5 9 8.43 8.43 0 0 0-.5 4 28.322 28.322 0 0 1-10-3c-1.34-1.188-2.007-2.688-2-4.5 2.576-6.592 6.742-12.092 12.5-16.5.688-.832.521-1.498-.5-2-6.475 3.643-10.975 8.977-13.5 16a4.933 4.933 0 0 1-2.5 1 28.51 28.51 0 0 1-9-4.5c-5.333-3.667-5.333-7.333 0-11 8.854-3.596 16.521-8.93 23-16-3.466.096-6.299 1.596-8.5 4.5a25.777 25.777 0 0 0-2-8c-4.156-1.215-8.322-1.048-12.5.5-4.912 7.125-11.579 9.792-20 8-1.078-.674-1.745-1.674-2-3 1.005-3.019 2.838-5.519 5.5-7.5 3.129 2.818 3.295 5.818.5 9 1 1.333 2 1.333 3 0a14.985 14.985 0 0 0 1-4.5c-.185-2.402-.685-4.569-1.5-6.5a138.677 138.677 0 0 1 15.5-12.5 12.494 12.494 0 0 1 7 0c17.392 10.392 31.892 23.892 43.5 40.5a48.325 48.325 0 0 1 7 16c1.061 6.526-.106 12.526-3.5 18 .247 1.213.914 1.88 2 2z"/><path style="opacity:1" fill="#467911" d="M236.5 281.5c-4.37-1.153-8.37-3.153-12-6a60.667 60.667 0 0 1-3 5.5 7.293 7.293 0 0 1 3 2c-.671.986-.671 2.153 0 3.5a66.686 66.686 0 0 1-10.5-13c-.863-2.249-.363-4.082 1.5-5.5 6.409-1.434 10.409 1.066 12 7.5a119.976 119.976 0 0 0 8 3.5c.752.671 1.086 1.504 1 2.5z"/><path style="opacity:1" fill="#467714" d="M254.5 267.5c1.788-.285 3.455.048 5 1l-.5 1a153.885 153.885 0 0 1-19 14 15.256 15.256 0 0 0-1.5-4.5c5.815-3.338 11.148-7.171 16-11.5z"/><path style="opacity:1" fill="#467615" d="M260.5 270.5c.997-.03 1.664.47 2 1.5a38.284 38.284 0 0 1-2.5 6.5 64.77 64.77 0 0 1-11.5 6.5 14.506 14.506 0 0 0-4 5c-.667.667-1.333.667-2 0-1.265-1.337-1.765-2.837-1.5-4.5a331.744 331.744 0 0 1 14.5-9.5 38.47 38.47 0 0 0 5-5.5z"/><path style="opacity:1" fill="#47701b" d="M285.5 314.5c-3.867.725-6.534-.608-8-4 2.12-5.631 5.62-10.297 10.5-14 .749-1.135.583-2.135-.5-3l-4 4c-.053-2.561.947-4.561 3-6 1.791.462 2.791 1.629 3 3.5a75.296 75.296 0 0 1-3.5 7.5c-.667 1.333-1.333 1.333-2 0-6.039 5.523-5.539 9.523 1.5 12z"/><path style="opacity:.996" fill="#477617" d="M236.5 281.5c.764 2.24 1.598 4.573 2.5 7 5.661 7.513 12.828 12.847 21.5 16-1.644-.214-3.144.12-4.5 1-2.258-2.799-4.925-4.132-8-4-1.863-4.407-5.029-7.407-9.5-9-2.369-3.477-3.036-7.144-2-11z"/></svg>