<?xml version="1.0" encoding="UTF-8"?>
<svg version="1.1" xmlns="http://www.w3.org/2000/svg" width="200" height="200">
<path d="M0 0 C66 0 132 0 200 0 C200 66 200 132 200 200 C134 200 68 200 0 200 C0 134 0 68 0 0 Z " fill="#4B9341" transform="translate(0,0)"/>
<path d="M0 0 C66 0 132 0 200 0 C200 66 200 132 200 200 C195.38 200 190.76 200 186 200 C185.91621094 199.01386719 185.83242187 198.02773437 185.74609375 197.01171875 C185.09632755 192.47477476 183.19150954 188.82558877 181.0625 184.8125 C180.70220703 184.11447266 180.34191406 183.41644531 179.97070312 182.69726562 C179.28419007 181.3684899 178.5938418 180.04168571 177.89892578 178.71728516 C176.90769172 176.8236566 175.94593828 174.91663934 175 173 C174.34 173 173.68 173 173 173 C172.14004476 171.84640151 171.33766479 170.64970132 170.5625 169.4375 C167.28360268 164.87133187 163.38353943 162.37180686 158.5859375 159.54296875 C156.25830536 158.1541248 154.1331836 156.66748859 152 155 C152.48060062 151.99624615 153.38859821 150.38766343 155.0625 147.75 C156.75904692 144.93650938 157.19147762 143.14864968 157 139.875 C157 136 157 136 159 133.5625 C161.28794411 130.63107161 161.15035415 130.19527246 160.875 126.6875 C160.63882336 122.61851395 161.43649154 120.96972393 164.0625 117.875 C166.65113664 114.74288007 166.65113664 114.74288007 167.3125 110.6875 C165.13217582 104.56182731 161.61883803 98.61883803 157 94 C157.34039208 90.59607918 158.95257765 88.6445872 161 86 C162.20781206 82.37656382 162.31610719 78.90501895 162.5 75.125 C162.71873204 70.67744847 162.97642608 66.35018915 164 62 C163.278125 61.7525 162.55625 61.505 161.8125 61.25 C157.02201392 59.12089508 154.12112072 56.28250027 151.125 52.0625 C149.12797127 49.26665977 147.43575466 47.45929907 144.5 45.6875 C140.34819661 42.97426007 138.73437171 39.24452483 136.515625 34.91796875 C132.68205055 27.5373499 128.8771714 21.22334318 121.04296875 17.76171875 C114.79717928 16.19826696 108.38326308 16.64361434 102 17 C103.25977622 17 104.51728917 16.88460054 105.7734375 16.7890625 C114.56819706 16.38843354 121.24315516 17.00846098 128 23 C138 34.96543545 138 34.96543545 138 40 C136.90042969 39.77183594 135.80085937 39.54367188 134.66796875 39.30859375 C125.22593947 37.43816456 117.12222608 36.59852971 107.578125 38.4765625 C103.43445424 39.18571421 100.74702112 39.34330962 97.0625 37.125 C93.12585156 33.89913531 92.49401037 29.87961264 92 25 C92 24.67 92 24.34 92 24 C91.484375 23.773125 90.96875 23.54625 90.4375 23.3125 C88 22 88 22 85.0625 19.5 C77.33801339 13.94494367 66.29010275 14.50910461 57.23046875 15.4140625 C49.85765429 16.75133235 45.61578117 19.7317766 41.3125 25.8125 C40.20036984 27.53655566 39.09575919 29.26549339 38 31 C35.38929524 34.69970039 32.65041605 38.24977306 29.68359375 41.671875 C20.31527813 52.48477059 14.11740663 64.57224664 7.83203125 77.33203125 C5.70100039 81.637312 3.40312244 85.84074962 1 90 C0.67 90 0.34 90 0 90 C0 60.3 0 30.6 0 0 Z " fill="#4C9541" transform="translate(0,0)"/>
<path d="M0 0 C2.49834086 2.10971006 3.65195508 3.01032174 6.8125 3.375 C6.585625 3.890625 6.35875 4.40625 6.125 4.9375 C5.63701024 8.74382016 7.00573878 11.06260442 8.8125 14.375 C11.09776423 16.52583692 12.57893772 17.38494808 15.75 17.359375 C18.11989164 17.10545804 20.4590906 16.75198471 22.8125 16.375 C32.59165527 14.98216679 41.63818514 15.42170432 50.8125 19.375 C44.10641271 6.57939183 44.10641271 6.57939183 32.82421875 -1.84765625 C26.03220969 -3.60071695 18.56589926 -3.63276735 11.8125 -1.625 C12.84375 -3.08984375 12.84375 -3.08984375 14.8125 -4.625 C23.29077438 -5.87924013 31.87108955 -5.59640205 39.2734375 -0.93359375 C45.3965376 4.63371726 49.85989204 12.16121133 53.3203125 19.62890625 C54.9544238 22.63618437 56.38846989 23.89712274 59.1875 25.8125 C62.18558717 27.99951045 64.38339841 29.8664562 66.375 33 C68.65506847 36.57610738 71.41321676 38.20995697 75.140625 40.13671875 C76.8125 41.375 76.8125 41.375 77.609375 43.45703125 C77.67640625 44.08996094 77.7434375 44.72289062 77.8125 45.375 C77.4825 45.705 77.1525 46.035 76.8125 46.375 C76.60828652 49.65376092 76.4664761 52.92518796 76.3828125 56.20898438 C76.13165819 61.87565345 74.95866349 66.22883651 70.8125 70.375 C71.0024006 73.12855872 71.83414608 74.4020576 73.5625 76.5625 C77.38828765 81.34473456 80.7254909 85.80823151 80.9375 92.0625 C79.8125 95.375 79.8125 95.375 77.25 98.25 C74.26783785 102.0732848 74.60256397 103.6692534 74.90234375 108.28125 C74.76663751 111.44379535 72.77214241 112.98668582 70.8125 115.375 C70.63952086 117.42965464 70.75034214 119.38082739 70.87109375 121.4375 C70.78416459 124.31195745 69.50133556 126.12321925 67.8125 128.375 C66.27804906 125.30609813 67.26265711 122.67405734 67.8125 119.375 C66.65874878 120.10517334 66.65874878 120.10517334 65.48168945 120.85009766 C60.58631641 122.88459762 56.35403796 122.80571333 51.10546875 122.7734375 C50.06667068 122.77630768 49.02787262 122.77917786 47.95759583 122.78213501 C45.7579392 122.78417336 43.55826436 122.77865957 41.35864258 122.76611328 C38.04920996 122.75023609 34.74103238 122.7658768 31.43164062 122.78515625 C14.53338687 122.80615647 -0.74375793 122.0662712 -16 114.125 C-16.97630371 113.63628418 -17.95260742 113.14756836 -18.95849609 112.64404297 C-21.71758488 111.24954604 -24.45602978 109.82271612 -27.1875 108.375 C-27.88439941 108.00729492 -28.58129883 107.63958984 -29.29931641 107.26074219 C-40.63597734 101.19492361 -40.63597734 101.19492361 -44.1875 96.375 C-44.81996755 92.58019469 -44.36788095 91.64557143 -42.1875 88.375 C-36.2597635 88.61258463 -30.88415408 89.33337127 -25.24609375 91.2265625 C-17.90686477 93.54843714 -10.50040373 95.10724503 -2.9375 96.5 C-1.90068588 96.69326874 -1.90068588 96.69326874 -0.84292603 96.89044189 C12.32059147 99.32209874 25.42759081 100.8354931 38.8125 101.375 C39.72435059 101.41351074 40.63620117 101.45202148 41.57568359 101.49169922 C44.15496786 101.5859432 46.73185509 101.64697303 49.3125 101.6875 C50.41525269 101.71432861 50.41525269 101.71432861 51.5402832 101.74169922 C57.79996539 101.73158781 64.23443091 100.74290042 68.96875 96.39453125 C72.07924506 91.28572396 74.01112229 87.43297988 73.8125 81.375 C72.71852772 79.0106083 71.4919628 77.41071249 69.8125 75.375 C67.1219472 76.59507944 67.1219472 76.59507944 64.8125 78.375 C62.14191149 78.51615161 59.48817762 78.41747107 56.8125 78.375 C56.4825 77.385 56.1525 76.395 55.8125 75.375 C52.8425 75.375 49.8725 75.375 46.8125 75.375 C47.3178125 76.00148438 47.823125 76.62796875 48.34375 77.2734375 C48.9934375 78.09070313 49.643125 78.90796875 50.3125 79.75 C50.9621875 80.56210938 51.611875 81.37421875 52.28125 82.2109375 C53.8125 84.375 53.8125 84.375 53.8125 86.375 C53.1525 86.375 52.4925 86.375 51.8125 86.375 C50.55861944 84.80617761 49.35901304 83.19375023 48.1875 81.5625 C44.4138146 76.67606121 41.75281258 74.86007815 35.8125 73.375 C35.8125 71.395 35.8125 69.415 35.8125 67.375 C33.8325 66.88 33.8325 66.88 31.8125 66.375 C31.8125 67.365 31.8125 68.355 31.8125 69.375 C29.87109375 70.953125 29.87109375 70.953125 27.25 72.625 C23.85734481 74.87882852 20.99325553 77.05397684 18.25 80.0625 C14.61735011 83.87422418 10.69114481 85.56436894 5.8125 87.375 C5.08289063 87.6740625 4.35328125 87.973125 3.6015625 88.28125 C0.0915577 89.69047126 -2.35858351 90.375 -6.1875 90.375 C-6.1875 89.715 -6.1875 89.055 -6.1875 88.375 C-5.053125 88.02308594 -3.91875 87.67117187 -2.75 87.30859375 C-1.22882902 86.8109267 0.29198571 86.31216984 1.8125 85.8125 C2.55628906 85.58498047 3.30007812 85.35746094 4.06640625 85.12304688 C10.1608275 83.08274063 14.25508485 79.85868313 18.8125 75.375 C17.94560547 75.30506836 17.07871094 75.23513672 16.18554688 75.16308594 C12.93383962 74.89283448 9.68410935 74.60778405 6.43457031 74.31298828 C5.03468542 74.18897639 3.6342804 74.07068509 2.23339844 73.95849609 C-7.62414162 73.1639868 -15.51804035 72.03179071 -23.1875 65.25 C-23.765 64.75242187 -24.3425 64.25484375 -24.9375 63.7421875 C-26.1875 62.375 -26.1875 62.375 -26.1875 60.375 C-22.91521195 60.95579571 -21.38180632 61.90738407 -19.0625 64.25 C-11.88713984 70.6027074 -2.38792502 71.02237047 6.8125 71.375 C7.47717285 71.40223145 8.1418457 71.42946289 8.82666016 71.45751953 C10.96782451 71.53554959 13.10780677 71.58511223 15.25 71.625 C16.56871094 71.65078125 17.88742188 71.6765625 19.24609375 71.703125 C22.96941717 71.36056293 24.82962339 70.55899443 27.8125 68.375 C27.4825 67.715 27.1525 67.055 26.8125 66.375 C22.8525 67.365 18.8925 68.355 14.8125 69.375 C14.8125 68.715 14.8125 68.055 14.8125 67.375 C16.08089526 66.86884702 17.35233102 66.37030901 18.625 65.875 C19.33269531 65.5965625 20.04039063 65.318125 20.76953125 65.03125 C22.8125 64.375 22.8125 64.375 25.8125 64.375 C23.090384 56.88142924 23.090384 56.88142924 17.9609375 51.203125 C15.89874769 50.65231905 15.89874769 50.65231905 12.8125 50.375 C11.8225 49.715 10.8325 49.055 9.8125 48.375 C10.1425 48.045 10.4725 47.715 10.8125 47.375 C9.54418307 46.55857746 8.27274069 45.74700895 7 44.9375 C6.29230469 44.48503906 5.58460937 44.03257813 4.85546875 43.56640625 C-2.28316431 39.40334108 -11.85108106 41.10294199 -19.6015625 42.6796875 C-23.38638642 43.69735919 -27.05464702 44.97236087 -30.1875 47.375 C-31.41085764 49.42405052 -31.41085764 49.42405052 -32.1875 51.375 C-29.5475 51.045 -26.9075 50.715 -24.1875 50.375 C-23.8575 51.035 -23.5275 51.695 -23.1875 52.375 C-24.1775 52.87 -24.1775 52.87 -25.1875 53.375 C-22.8775 54.365 -20.5675 55.355 -18.1875 56.375 C-14.81661733 54.10084713 -14.81661733 54.10084713 -13.1875 50.375 C-10.8775 50.045 -8.5675 49.715 -6.1875 49.375 C-7.9375 53.25 -7.9375 53.25 -10.1875 54.375 C-9.1975 54.87 -9.1975 54.87 -8.1875 55.375 C-8.5175 57.025 -8.8475 58.675 -9.1875 60.375 C-8.5275 60.375 -7.8675 60.375 -7.1875 60.375 C-7.6825 61.86 -7.6825 61.86 -8.1875 63.375 C-13.75518542 63.08701627 -16.32906488 62.63952602 -20.49609375 58.7109375 C-25.6421214 54.64640758 -32.9240242 53.00895021 -39.1875 51.375 C-39.67485948 48.69452287 -39.54978963 46.95674105 -38.09765625 44.625 C-33.93750909 39.50481888 -29.48667809 36.47472603 -23.1875 34.375 C-21.75129866 34.2743628 -20.31100317 34.2267518 -18.87133789 34.21386719 C-18.00356216 34.20425964 -17.13578644 34.1946521 -16.24171448 34.18475342 C-15.30730026 34.18050354 -14.37288605 34.17625366 -13.41015625 34.171875 C-11.96581459 34.16332489 -11.96581459 34.16332489 -10.49229431 34.15460205 C-8.4555674 34.14515629 -6.41882524 34.13861975 -4.38208008 34.13476562 C-1.26551752 34.12504838 1.85038877 34.09401618 4.96679688 34.0625 C6.94530858 34.05597095 8.92382501 34.0507201 10.90234375 34.046875 C12.30092873 34.0283548 12.30092873 34.0283548 13.72776794 34.00946045 C20.22133069 34.03183638 20.22133069 34.03183638 23.43188477 35.89550781 C23.88748779 36.38374023 24.34309082 36.87197266 24.8125 37.375 C21.36305527 30.38766324 17.94322025 24.31223987 11.8125 19.375 C10.96300781 18.66988281 10.11351562 17.96476562 9.23828125 17.23828125 C4.61787881 14.72524594 0.68508563 14.63210409 -4.5 14.5 C-5.39912109 14.45359375 -6.29824219 14.4071875 -7.22460938 14.359375 C-15.66620363 14.04197594 -22.86182111 14.76110338 -29.75 20 C-31.02037109 20.94746094 -31.02037109 20.94746094 -32.31640625 21.9140625 C-32.93386719 22.39617188 -33.55132812 22.87828125 -34.1875 23.375 C-34.1875 20.375 -34.1875 20.375 -32.859375 18.875 C-24.91358474 12.67340761 -15.19682133 10.31314156 -5.1875 11.375 C-1.82481767 11.92835279 1.4944154 12.59916393 4.8125 13.375 C2.82068165 6.32702739 0.53105936 2.12807617 -5.9140625 -1.57421875 C-9.15392763 -3.07168219 -11.5977654 -3.50730378 -15.1875 -3.625 C-16.27675781 -3.66238281 -17.36601563 -3.69976563 -18.48828125 -3.73828125 C-28.85811414 -3.94633492 -35.64081797 -2.44118362 -44.1875 3.375 C-42.08376128 -1.81791296 -38.13961962 -3.47854555 -33.1875 -5.625 C-22.22522103 -8.27106734 -8.78177528 -7.48397597 0 0 Z " fill="#4D9043" transform="translate(87.1875,20.625)"/>
<path d="M0 0 C0.99 0 1.98 0 3 0 C4.6875 1.5 4.6875 1.5 6 3 C5.67 3.99 5.34 4.98 5 6 C4.80500748 9.31126185 4.65587789 12.61598178 4.5703125 15.93164062 C4.31773832 21.55667802 3.11225864 25.88774136 -1 30 C-0.8100994 32.75355872 0.02164608 34.0270576 1.75 36.1875 C5.57578765 40.96973456 8.9129909 45.43323151 9.125 51.6875 C8 55 8 55 5.4375 57.875 C2.45533785 61.6982848 2.79006397 63.2942534 3.08984375 67.90625 C2.95413751 71.06879535 0.95964241 72.61168582 -1 75 C-1.17297914 77.05465464 -1.06215786 79.00582739 -0.94140625 81.0625 C-1.02833541 83.93695745 -2.31116444 85.74821925 -4 88 C-5.53445094 84.93109813 -4.54984289 82.29905734 -4 79 C-5.15375122 79.73017334 -5.15375122 79.73017334 -6.33081055 80.47509766 C-11.22618359 82.50959762 -15.45846204 82.43071333 -20.70703125 82.3984375 C-22.26522835 82.40274277 -22.26522835 82.40274277 -23.85490417 82.40713501 C-26.0545608 82.40917336 -28.25423564 82.40365957 -30.45385742 82.39111328 C-33.76329004 82.37523609 -37.07146762 82.3908768 -40.38085938 82.41015625 C-57.27911313 82.43115647 -72.55625793 81.6912712 -87.8125 73.75 C-88.78880371 73.26128418 -89.76510742 72.77256836 -90.77099609 72.26904297 C-93.53008488 70.87454604 -96.26852978 69.44771612 -99 68 C-99.69689941 67.63229492 -100.39379883 67.26458984 -101.11181641 66.88574219 C-112.44847734 60.81992361 -112.44847734 60.81992361 -116 56 C-116.63246755 52.20519469 -116.18038095 51.27057143 -114 48 C-108.0722635 48.23758463 -102.69665408 48.95837127 -97.05859375 50.8515625 C-89.71936477 53.17343714 -82.31290373 54.73224503 -74.75 56.125 C-73.71318588 56.31826874 -73.71318588 56.31826874 -72.65542603 56.51544189 C-59.49190853 58.94709874 -46.38490919 60.4604931 -33 61 C-32.08814941 61.03851074 -31.17629883 61.07702148 -30.23681641 61.11669922 C-27.65753214 61.2109432 -25.08064491 61.27197303 -22.5 61.3125 C-21.76483154 61.33038574 -21.02966309 61.34827148 -20.2722168 61.36669922 C-14.01253461 61.35658781 -7.57806909 60.36790042 -2.84375 56.01953125 C0.26674506 50.91072396 2.19862229 47.05797988 2 41 C0.90602772 38.6356083 -0.3205372 37.03571249 -2 35 C-4.6905528 36.22007944 -4.6905528 36.22007944 -7 38 C-9.33297433 38.04092937 -11.66705225 38.04241723 -14 38 C-14 37.34 -14 36.68 -14 36 C-11.36 35.34 -8.72 34.68 -6 34 C-7.98 33.67 -9.96 33.34 -12 33 C-12 32.34 -12 31.68 -12 31 C-10.783125 30.95875 -9.56625 30.9175 -8.3125 30.875 C-4.78728525 30.46800363 -3.24719867 29.68983267 -1 26.9375 C-0.34 25.968125 0.32 24.99875 1 24 C0.67 23.67 0.34 23.34 0 23 C-0.928125 23.66 -1.85625 24.32 -2.8125 25 C-6 27 -6 27 -9 27 C-9 26.34 -9 25.68 -9 25 C-8.071875 24.566875 -7.14375 24.13375 -6.1875 23.6875 C-3.53164256 22.28145783 -1.82323803 21.32969304 0 19 C0 18.34 0 17.68 0 17 C-0.99 16.01 -0.99 16.01 -2 15 C-0.68 15 0.64 15 2 15 C1.12202163 13.67548968 0.22177786 12.36572192 -0.6875 11.0625 C-1.43580078 9.96615234 -1.43580078 9.96615234 -2.19921875 8.84765625 C-5.51696942 5.44354331 -10.02165401 5.80749454 -14.5625 5.6875 C-18.91071604 5.69771902 -18.91071604 5.69771902 -22.625 7.875 C-24.01380394 9.93558161 -24.01380394 9.93558161 -25 12 C-25.99 12 -26.98 12 -28 12 C-28 12.66 -28 13.32 -28 14 C-30.2727675 15.49524178 -32.5679943 16.78399715 -35 18 C-32.30179708 12.14516163 -28.21370177 6.54507734 -22.125 4 C-15.38402035 1.97900997 -8.52268054 2.39092778 -2 5 C-0.0625 7.125 -0.0625 7.125 1 9 C1 7.35 1 5.7 1 4 C-3.60427624 1.69324838 -7.77675745 1.63331667 -12.8125 1.625 C-13.58142578 1.60050781 -14.35035156 1.57601562 -15.14257812 1.55078125 C-21.03890387 1.52092644 -24.95533178 3.06602909 -30 6 C-31.3293801 6.67451521 -32.66172067 7.34331846 -34 8 C-32.20208606 3.81381232 -30.15415693 2.10062321 -26.1796875 -0.0234375 C-18.14471412 -2.49118117 -8.11244372 -2.03712247 0 0 Z " fill="#962C17" transform="translate(159,61)"/>
<path d="M0 0 C1.35622245 0.96873032 2.69417053 1.96434215 4 3 C6.20800528 2.78282648 6.20800528 2.78282648 8 2 C7.67 3.98 7.34 5.96 7 8 C7.94101563 8.56847656 8.88203125 9.13695312 9.8515625 9.72265625 C22.49408965 17.50618803 22.49408965 17.50618803 27 24 C27 24.66 27 25.32 27 26 C27.66 26 28.32 26 29 26 C33.86485157 32.71812836 39.09287684 40.84592226 41 49 C40.67 50.32 40.34 51.64 40 53 C30.76 53 21.52 53 12 53 C12 52.34 12 51.68 12 51 C10.96939453 51.05220703 10.96939453 51.05220703 9.91796875 51.10546875 C9.01691406 51.13253906 8.11585938 51.15960938 7.1875 51.1875 C5.84751953 51.23970703 5.84751953 51.23970703 4.48046875 51.29296875 C2 51 2 51 0.17578125 49.61328125 C-1 48 -1 48 -1 46 C-1.87269531 46.08636719 -2.74539062 46.17273438 -3.64453125 46.26171875 C-7.90439647 45.92945918 -9.46780694 44.5651804 -12.6875 41.8125 C-13.61949219 41.03519531 -14.55148438 40.25789063 -15.51171875 39.45703125 C-18.86102809 36.14978545 -20.8705068 33.61866502 -21.25 28.875 C-21.4975 27.92625 -21.745 26.9775 -22 26 C-24.32671865 24.98470459 -26.6603447 23.98511802 -29 23 C-30.4375 19.8125 -30.4375 19.8125 -31 17 C-33.64 17 -36.28 17 -39 17 C-38.0627424 21.89456746 -36.70531533 24.51601009 -33.375 28.25 C-29.6015667 32.77343246 -29.36661368 36.14819126 -29.75390625 41.91015625 C-29.83511719 42.59980469 -29.91632813 43.28945312 -30 44 C-30.33 44 -30.66 44 -31 44 C-31.00257812 43.443125 -31.00515625 42.88625 -31.0078125 42.3125 C-31.3499826 35.56034332 -33.67241217 32.02732218 -38 27 C-40.16240407 24.3626754 -40.95175471 23.3940032 -41.375 19.9375 C-41 17 -41 17 -40 15.125 C-36.74686316 13.29511053 -33.68609891 13.81871645 -30 14 C-30 14.66 -30 15.32 -30 16 C-22.34721593 10.58690922 -22.34721593 10.58690922 -15.125 4.625 C-10.36590327 0.47488721 -6.36696382 -0.57881489 0 0 Z " fill="#4C9242" transform="translate(146,147)"/>
<path d="M0 0 C2.49834086 2.10971006 3.65195508 3.01032174 6.8125 3.375 C6.585625 3.890625 6.35875 4.40625 6.125 4.9375 C5.63701024 8.74382016 7.00573878 11.06260442 8.8125 14.375 C11.09776423 16.52583692 12.57893772 17.38494808 15.75 17.359375 C18.11989164 17.10545804 20.4590906 16.75198471 22.8125 16.375 C32.59165527 14.98216679 41.63818514 15.42170432 50.8125 19.375 C44.10641271 6.57939183 44.10641271 6.57939183 32.82421875 -1.84765625 C26.03220969 -3.60071695 18.56589926 -3.63276735 11.8125 -1.625 C12.84375 -3.08984375 12.84375 -3.08984375 14.8125 -4.625 C23.29077438 -5.87924013 31.87108955 -5.59640205 39.2734375 -0.93359375 C45.3965376 4.63371726 49.85989204 12.16121133 53.3203125 19.62890625 C54.9544238 22.63618437 56.38846989 23.89712274 59.1875 25.8125 C63.45442167 28.93649622 65.93078412 31.96766983 68.8125 36.375 C69.79120534 37.39585055 70.78646434 38.40173189 71.8125 39.375 C71.24265381 39.21273926 70.67280762 39.05047852 70.08569336 38.88330078 C67.79114939 38.37022586 65.78866974 38.24574974 63.44140625 38.2421875 C62.61962891 38.24089844 61.79785156 38.23960938 60.95117188 38.23828125 C60.10103516 38.24214844 59.25089844 38.24601562 58.375 38.25 C57.52873047 38.24613281 56.68246094 38.24226563 55.81054688 38.23828125 C51.68304048 38.24474563 47.83709894 38.333728 43.8125 39.375 C47.85886595 35.14470832 51.25694033 35.11173501 56.9375 34.8125 C57.69160156 34.76931641 58.44570312 34.72613281 59.22265625 34.68164062 C61.08571888 34.5755168 62.94908524 34.47474999 64.8125 34.375 C57.79641118 25.33062369 48.09365321 20.26655288 36.8125 18.375 C29.99087066 17.56507411 24.23518316 19.12236791 17.8125 21.375 C18.21082031 21.89449219 18.60914063 22.41398437 19.01953125 22.94921875 C26.64142057 32.98192464 26.64142057 32.98192464 27.25 37.9375 C27.89613857 41.88612461 28.88263005 42.81136379 31.8125 45.375 C32.9702506 48.84825181 32.88116652 51.73567448 32.8125 55.375 C32.1525 55.375 31.4925 55.375 30.8125 55.375 C31.3075 58.345 31.3075 58.345 31.8125 61.375 C31.1525 61.375 30.4925 61.375 29.8125 61.375 C29.43351562 60.34761719 29.05453125 59.32023437 28.6640625 58.26171875 C26.88363096 54.12507868 24.39069021 51.30140444 21.1875 48.1875 C20.65914551 47.66502686 20.13079102 47.14255371 19.58642578 46.60424805 C15.42215271 42.63543059 11.32532283 40.11784309 5.8125 38.375 C4.8225 37.88 4.8225 37.88 3.8125 37.375 C-0.5564447 37.07510558 -4.93448722 37.09677463 -9.3125 37.0625 C-10.52421875 37.03349609 -11.7359375 37.00449219 -12.984375 36.97460938 C-20.72506864 36.91980054 -26.87552863 37.24062442 -32.73461914 42.85839844 C-34.85823028 45.2702539 -36.16819313 47.31707939 -37.1875 50.375 C-36.67960937 49.90449219 -36.17171875 49.43398437 -35.6484375 48.94921875 C-26.14585068 40.35418236 -16.27697226 37.79823234 -3.4921875 38.125 C2.78293009 38.80569072 7.74395012 41.7710142 12.9296875 45.1875 C14.98024212 46.5377806 14.98024212 46.5377806 18.0625 47.875 C23.63527467 50.91469527 25.58788613 55.7442345 27.8828125 61.38671875 C28.75350025 63.54335736 28.75350025 63.54335736 30.8125 65.375 C30.65324106 68.45566518 30.2701586 69.92040608 28.0625 72.11328125 C27.32 72.63277344 26.5775 73.15226562 25.8125 73.6875 C22.46314208 76.10093059 19.54749119 78.58847501 16.625 81.5 C10.55472866 87.01257857 2.01670744 90.375 -6.1875 90.375 C-6.1875 89.715 -6.1875 89.055 -6.1875 88.375 C-5.053125 88.02308594 -3.91875 87.67117187 -2.75 87.30859375 C-1.22882902 86.8109267 0.29198571 86.31216984 1.8125 85.8125 C2.55628906 85.58498047 3.30007812 85.35746094 4.06640625 85.12304688 C10.1608275 83.08274063 14.25508485 79.85868313 18.8125 75.375 C17.94560547 75.30506836 17.07871094 75.23513672 16.18554688 75.16308594 C12.93383962 74.89283448 9.68410935 74.60778405 6.43457031 74.31298828 C5.03468542 74.18897639 3.6342804 74.07068509 2.23339844 73.95849609 C-7.62414162 73.1639868 -15.51804035 72.03179071 -23.1875 65.25 C-23.765 64.75242187 -24.3425 64.25484375 -24.9375 63.7421875 C-26.1875 62.375 -26.1875 62.375 -26.1875 60.375 C-22.91521195 60.95579571 -21.38180632 61.90738407 -19.0625 64.25 C-11.88713984 70.6027074 -2.38792502 71.02237047 6.8125 71.375 C7.47717285 71.40223145 8.1418457 71.42946289 8.82666016 71.45751953 C10.96782451 71.53554959 13.10780677 71.58511223 15.25 71.625 C16.56871094 71.65078125 17.88742188 71.6765625 19.24609375 71.703125 C22.96941717 71.36056293 24.82962339 70.55899443 27.8125 68.375 C27.4825 67.715 27.1525 67.055 26.8125 66.375 C22.8525 67.365 18.8925 68.355 14.8125 69.375 C14.8125 68.715 14.8125 68.055 14.8125 67.375 C16.08089526 66.86884702 17.35233102 66.37030901 18.625 65.875 C19.33269531 65.5965625 20.04039063 65.318125 20.76953125 65.03125 C22.8125 64.375 22.8125 64.375 25.8125 64.375 C23.090384 56.88142924 23.090384 56.88142924 17.9609375 51.203125 C15.89874769 50.65231905 15.89874769 50.65231905 12.8125 50.375 C11.8225 49.715 10.8325 49.055 9.8125 48.375 C10.1425 48.045 10.4725 47.715 10.8125 47.375 C9.54418307 46.55857746 8.27274069 45.74700895 7 44.9375 C6.29230469 44.48503906 5.58460937 44.03257813 4.85546875 43.56640625 C-2.28316431 39.40334108 -11.85108106 41.10294199 -19.6015625 42.6796875 C-23.38638642 43.69735919 -27.05464702 44.97236087 -30.1875 47.375 C-31.41085764 49.42405052 -31.41085764 49.42405052 -32.1875 51.375 C-29.5475 51.045 -26.9075 50.715 -24.1875 50.375 C-23.8575 51.035 -23.5275 51.695 -23.1875 52.375 C-24.1775 52.87 -24.1775 52.87 -25.1875 53.375 C-22.8775 54.365 -20.5675 55.355 -18.1875 56.375 C-14.81661733 54.10084713 -14.81661733 54.10084713 -13.1875 50.375 C-10.8775 50.045 -8.5675 49.715 -6.1875 49.375 C-7.9375 53.25 -7.9375 53.25 -10.1875 54.375 C-9.1975 54.87 -9.1975 54.87 -8.1875 55.375 C-8.5175 57.025 -8.8475 58.675 -9.1875 60.375 C-8.5275 60.375 -7.8675 60.375 -7.1875 60.375 C-7.6825 61.86 -7.6825 61.86 -8.1875 63.375 C-13.75518542 63.08701627 -16.32906488 62.63952602 -20.49609375 58.7109375 C-25.6421214 54.64640758 -32.9240242 53.00895021 -39.1875 51.375 C-39.67485948 48.69452287 -39.54978963 46.95674105 -38.09765625 44.625 C-33.93750909 39.50481888 -29.48667809 36.47472603 -23.1875 34.375 C-21.75129866 34.2743628 -20.31100317 34.2267518 -18.87133789 34.21386719 C-18.00356216 34.20425964 -17.13578644 34.1946521 -16.24171448 34.18475342 C-15.30730026 34.18050354 -14.37288605 34.17625366 -13.41015625 34.171875 C-11.96581459 34.16332489 -11.96581459 34.16332489 -10.49229431 34.15460205 C-8.4555674 34.14515629 -6.41882524 34.13861975 -4.38208008 34.13476562 C-1.26551752 34.12504838 1.85038877 34.09401618 4.96679688 34.0625 C6.94530858 34.05597095 8.92382501 34.0507201 10.90234375 34.046875 C12.30092873 34.0283548 12.30092873 34.0283548 13.72776794 34.00946045 C20.22133069 34.03183638 20.22133069 34.03183638 23.43188477 35.89550781 C23.88748779 36.38374023 24.34309082 36.87197266 24.8125 37.375 C21.36305527 30.38766324 17.94322025 24.31223987 11.8125 19.375 C10.96300781 18.66988281 10.11351562 17.96476562 9.23828125 17.23828125 C4.61787881 14.72524594 0.68508563 14.63210409 -4.5 14.5 C-5.39912109 14.45359375 -6.29824219 14.4071875 -7.22460938 14.359375 C-15.66620363 14.04197594 -22.86182111 14.76110338 -29.75 20 C-31.02037109 20.94746094 -31.02037109 20.94746094 -32.31640625 21.9140625 C-32.93386719 22.39617188 -33.55132812 22.87828125 -34.1875 23.375 C-34.1875 20.375 -34.1875 20.375 -32.859375 18.875 C-24.91358474 12.67340761 -15.19682133 10.31314156 -5.1875 11.375 C-1.82481767 11.92835279 1.4944154 12.59916393 4.8125 13.375 C2.82068165 6.32702739 0.53105936 2.12807617 -5.9140625 -1.57421875 C-9.15392763 -3.07168219 -11.5977654 -3.50730378 -15.1875 -3.625 C-16.27675781 -3.66238281 -17.36601563 -3.69976563 -18.48828125 -3.73828125 C-28.85811414 -3.94633492 -35.64081797 -2.44118362 -44.1875 3.375 C-42.08376128 -1.81791296 -38.13961962 -3.47854555 -33.1875 -5.625 C-22.22522103 -8.27106734 -8.78177528 -7.48397597 0 0 Z " fill="#061805" transform="translate(87.1875,20.625)"/>
<path d="M0 0 C0.99 0 1.98 0 3 0 C4.6875 1.5 4.6875 1.5 6 3 C5.67 3.99 5.34 4.98 5 6 C4.80500748 9.31126185 4.65587789 12.61598178 4.5703125 15.93164062 C4.31773832 21.55667802 3.11225864 25.88774136 -1 30 C-0.8100994 32.75355872 0.02164608 34.0270576 1.75 36.1875 C5.57578765 40.96973456 8.9129909 45.43323151 9.125 51.6875 C8 55 8 55 5.4375 57.875 C2.45533785 61.6982848 2.79006397 63.2942534 3.08984375 67.90625 C2.95413751 71.06879535 0.95964241 72.61168582 -1 75 C-1.17297914 77.05465464 -1.06215786 79.00582739 -0.94140625 81.0625 C-1.02833541 83.93695745 -2.31116444 85.74821925 -4 88 C-5.53445094 84.93109813 -4.54984289 82.29905734 -4 79 C-5.15375122 79.73017334 -5.15375122 79.73017334 -6.33081055 80.47509766 C-11.22618359 82.50959762 -15.45846204 82.43071333 -20.70703125 82.3984375 C-22.26522835 82.40274277 -22.26522835 82.40274277 -23.85490417 82.40713501 C-26.0545608 82.40917336 -28.25423564 82.40365957 -30.45385742 82.39111328 C-33.76329004 82.37523609 -37.07146762 82.3908768 -40.38085938 82.41015625 C-57.27911313 82.43115647 -72.55625793 81.6912712 -87.8125 73.75 C-88.78880371 73.26128418 -89.76510742 72.77256836 -90.77099609 72.26904297 C-93.53008488 70.87454604 -96.26852978 69.44771612 -99 68 C-99.69689941 67.63229492 -100.39379883 67.26458984 -101.11181641 66.88574219 C-112.44847734 60.81992361 -112.44847734 60.81992361 -116 56 C-116.63246755 52.20519469 -116.18038095 51.27057143 -114 48 C-108.0722635 48.23758463 -102.69665408 48.95837127 -97.05859375 50.8515625 C-89.71936477 53.17343714 -82.31290373 54.73224503 -74.75 56.125 C-73.71318588 56.31826874 -73.71318588 56.31826874 -72.65542603 56.51544189 C-59.49190853 58.94709874 -46.38490919 60.4604931 -33 61 C-32.08814941 61.03851074 -31.17629883 61.07702148 -30.23681641 61.11669922 C-27.65753214 61.2109432 -25.08064491 61.27197303 -22.5 61.3125 C-21.76483154 61.33038574 -21.02966309 61.34827148 -20.2722168 61.36669922 C-14.01253461 61.35658781 -7.57806909 60.36790042 -2.84375 56.01953125 C0.26674506 50.91072396 2.19862229 47.05797988 2 41 C0.90602772 38.6356083 -0.3205372 37.03571249 -2 35 C-4.6905528 36.22007944 -4.6905528 36.22007944 -7 38 C-9.33297433 38.04092937 -11.66705225 38.04241723 -14 38 C-14 37.34 -14 36.68 -14 36 C-11.36 35.34 -8.72 34.68 -6 34 C-7.98 33.67 -9.96 33.34 -12 33 C-12 32.34 -12 31.68 -12 31 C-10.783125 30.95875 -9.56625 30.9175 -8.3125 30.875 C-4.78728525 30.46800363 -3.24719867 29.68983267 -1 26.9375 C-0.34 25.968125 0.32 24.99875 1 24 C0.67 23.67 0.34 23.34 0 23 C-0.928125 23.66 -1.85625 24.32 -2.8125 25 C-6 27 -6 27 -9 27 C-9 26.34 -9 25.68 -9 25 C-8.071875 24.566875 -7.14375 24.13375 -6.1875 23.6875 C-3.53164256 22.28145783 -1.82323803 21.32969304 0 19 C0 18.34 0 17.68 0 17 C-0.99 16.01 -0.99 16.01 -2 15 C-0.68 15 0.64 15 2 15 C1.12202163 13.67548968 0.22177786 12.36572192 -0.6875 11.0625 C-1.43580078 9.96615234 -1.43580078 9.96615234 -2.19921875 8.84765625 C-5.51696942 5.44354331 -10.02165401 5.80749454 -14.5625 5.6875 C-18.91071604 5.69771902 -18.91071604 5.69771902 -22.625 7.875 C-24.01380394 9.93558161 -24.01380394 9.93558161 -25 12 C-25.99 12 -26.98 12 -28 12 C-28 12.66 -28 13.32 -28 14 C-30.2727675 15.49524178 -32.5679943 16.78399715 -35 18 C-32.30179708 12.14516163 -28.21370177 6.54507734 -22.125 4 C-15.38402035 1.97900997 -8.52268054 2.39092778 -2 5 C-0.0625 7.125 -0.0625 7.125 1 9 C1 7.35 1 5.7 1 4 C-3.60427624 1.69324838 -7.77675745 1.63331667 -12.8125 1.625 C-13.58142578 1.60050781 -14.35035156 1.57601562 -15.14257812 1.55078125 C-21.03890387 1.52092644 -24.95533178 3.06602909 -30 6 C-31.3293801 6.67451521 -32.66172067 7.34331846 -34 8 C-32.20208606 3.81381232 -30.15415693 2.10062321 -26.1796875 -0.0234375 C-18.14471412 -2.49118117 -8.11244372 -2.03712247 0 0 Z M5 45 C4.69707031 45.66386719 4.39414063 46.32773438 4.08203125 47.01171875 C0.95395413 53.60474283 -1.7821217 58.90429797 -8.8125 61.8125 C-15.01070251 63.61691093 -21.35500725 63.30345482 -27.74169922 63.078125 C-30.01653575 62.99942795 -32.29070492 62.95254526 -34.56640625 62.90625 C-57.96746557 62.25314114 -82.27389262 58.28392865 -104.4921875 50.828125 C-107.42977158 49.85808166 -109.92687245 49.85366059 -113 50 C-113.95020416 52.239835 -113.95020416 52.239835 -114 55 C-110.03510179 59.88867861 -104.99281961 62.51128409 -99.5 65.4375 C-98.15760254 66.15873047 -98.15760254 66.15873047 -96.78808594 66.89453125 C-94.19849453 68.27564667 -91.60051445 69.63959411 -89 71 C-88.35869141 71.34305176 -87.71738281 71.68610352 -87.05664062 72.03955078 C-69.9426768 81.13319036 -49.97961437 81.44092029 -31 81 C-29.76564209 80.98114746 -29.76564209 80.98114746 -28.50634766 80.96191406 C-25.71159995 80.91304961 -22.91888312 80.83445108 -20.125 80.75 C-19.23272705 80.73598145 -18.3404541 80.72196289 -17.42114258 80.70751953 C-10.65606964 80.45223376 -6.18996834 79.0730945 -1.1875 74.25390625 C1.48747484 70.54170112 1.48747484 70.54170112 1.8125 66.0625 C1.4103125 65.0415625 1.4103125 65.0415625 1 64 C-0.051875 64.6496875 -0.051875 64.6496875 -1.125 65.3125 C-6.70590208 68.58824687 -10.5600464 70.38034724 -17.13671875 70.3984375 C-17.80956406 70.40244064 -18.48240936 70.40644379 -19.17564392 70.41056824 C-21.3467042 70.41639212 -23.51656154 70.39750994 -25.6875 70.375 C-26.4282074 70.37200897 -27.16891479 70.36901794 -27.93206787 70.36593628 C-38.12810382 70.317502 -47.96726735 69.67689232 -57.98828125 67.71875 C-61.92547673 66.95347361 -65.80268856 66.72599894 -69.8125 66.5625 C-77.28678186 66.16065689 -83.91868568 64.33855687 -91 62 C-92.12277344 61.64292969 -93.24554688 61.28585938 -94.40234375 60.91796875 C-98.75356138 59.5097565 -102.9514986 58.14779652 -107 56 C-107 55.34 -107 54.68 -107 54 C-106.45214844 54.30292969 -105.90429688 54.60585937 -105.33984375 54.91796875 C-94.1875224 60.8114719 -82.38535335 64.8005326 -69.75 65.4375 C-64.77186913 65.72172375 -60.05697781 66.27239132 -55.22045898 67.4987793 C-46.47844668 69.47209994 -37.33750339 69.21663311 -28.42114258 69.24023438 C-26.17428135 69.25005779 -23.92829297 69.28123203 -21.68164062 69.3125 C-20.23958867 69.31902155 -18.79753031 69.32427534 -17.35546875 69.328125 C-16.06278076 69.3374707 -14.77009277 69.34681641 -13.43823242 69.35644531 C-5.57577191 68.54133544 0.70071971 61.83916718 5.5 55.9375 C7.40484448 53.28794238 8 52.45497412 8 49.125 C7.07605507 46.85024209 7.07605507 46.85024209 5 45 Z " fill="#140C03" transform="translate(159,61)"/>
<path d="M0 0 C8.92075831 -0.35781741 14.71252052 2.20736723 21.32421875 8.19921875 C21.32421875 8.52921875 21.32421875 8.85921875 21.32421875 9.19921875 C22.39671875 9.40546875 23.46921875 9.61171875 24.57421875 9.82421875 C29.15901439 11.50531049 30.13547795 12.90280162 32.32421875 17.19921875 C33.1401431 19.52576875 33.74730766 21.79542253 34.32421875 24.19921875 C33.05582349 24.70537173 31.78438773 25.20390974 30.51171875 25.69921875 C29.80402344 25.97765625 29.09632812 26.25609375 28.3671875 26.54296875 C26.32421875 27.19921875 26.32421875 27.19921875 23.32421875 27.19921875 C23.32421875 27.85921875 23.32421875 28.51921875 23.32421875 29.19921875 C13.79328194 29.97725441 4.03984302 26.89877628 -4.67578125 23.19921875 C-4.05703125 23.07546875 -3.43828125 22.95171875 -2.80078125 22.82421875 C-0.48457293 22.32724519 -0.48457293 22.32724519 1.32421875 20.19921875 C0.66421875 20.19921875 0.00421875 20.19921875 -0.67578125 20.19921875 C-0.34578125 18.54921875 -0.01578125 16.89921875 0.32421875 15.19921875 C-0.66578125 14.86921875 -1.65578125 14.53921875 -2.67578125 14.19921875 C-2.34578125 13.53921875 -2.01578125 12.87921875 -1.67578125 12.19921875 C-1.01578125 12.19921875 -0.35578125 12.19921875 0.32421875 12.19921875 C0.65421875 11.53921875 0.98421875 10.87921875 1.32421875 10.19921875 C-0.65578125 10.19921875 -2.63578125 10.19921875 -4.67578125 10.19921875 C-4.75828125 10.79734375 -4.84078125 11.39546875 -4.92578125 12.01171875 C-5.88033997 14.79584835 -7.24710396 15.63233017 -9.67578125 17.19921875 C-14.13078125 15.21921875 -14.13078125 15.21921875 -18.67578125 13.19921875 C-17.68578125 12.53921875 -16.69578125 11.87921875 -15.67578125 11.19921875 C-18.31578125 11.19921875 -20.95578125 11.19921875 -23.67578125 11.19921875 C-23.55078125 9.44921875 -23.55078125 9.44921875 -22.67578125 7.19921875 C-15.74545273 1.7194241 -8.54645574 0.63630546 0 0 Z " fill="#060906" transform="translate(78.67578125,60.80078125)"/>
<path d="M0 0 C3.61845904 1.89538331 5.26455334 4.04260471 7.625 7.375 C7.625 8.035 7.625 8.695 7.625 9.375 C6.965 9.705 6.305 10.035 5.625 10.375 C5.625 11.695 5.625 13.015 5.625 14.375 C0.51136364 19.375 0.51136364 19.375 -3.375 19.375 C-3.375 20.035 -3.375 20.695 -3.375 21.375 C-2.10291378 20.75255401 -0.83238118 20.12693233 0.4375 19.5 C1.14519531 19.15195313 1.85289062 18.80390625 2.58203125 18.4453125 C4.83746418 17.3093514 4.83746418 17.3093514 7.625 15.375 C7.3340874 18.76898034 6.60216583 20.40613751 4.5625 23.1875 C0.58394672 26.15025245 -1.51788276 25.7866201 -6.375 25.375 C-6.375 26.035 -6.375 26.695 -6.375 27.375 C-4.065 27.375 -1.755 27.375 0.625 27.375 C-0.5 28.875 -0.5 28.875 -2.375 30.375 C-5.5625 30.5625 -5.5625 30.5625 -8.375 30.375 C-8.705 31.035 -9.035 31.695 -9.375 32.375 C-9.705 31.385 -10.035 30.395 -10.375 29.375 C-13.345 29.375 -16.315 29.375 -19.375 29.375 C-18.8696875 30.00148438 -18.364375 30.62796875 -17.84375 31.2734375 C-17.1940625 32.09070313 -16.544375 32.90796875 -15.875 33.75 C-14.90046875 34.96816406 -14.90046875 34.96816406 -13.90625 36.2109375 C-12.375 38.375 -12.375 38.375 -12.375 40.375 C-13.035 40.375 -13.695 40.375 -14.375 40.375 C-15.65531641 38.8327338 -16.87481935 37.23968567 -18.0625 35.625 C-21.49715453 31.1919724 -24.3051586 28.69867731 -29.375 26.375 C-29.375 25.715 -29.375 25.055 -29.375 24.375 C-27.065 24.705 -24.755 25.035 -22.375 25.375 C-22.375 24.385 -22.375 23.395 -22.375 22.375 C-23.01308594 22.24222656 -23.65117187 22.10945313 -24.30859375 21.97265625 C-25.13488281 21.79605469 -25.96117188 21.61945313 -26.8125 21.4375 C-28.04806641 21.17646484 -28.04806641 21.17646484 -29.30859375 20.91015625 C-31.375 20.375 -31.375 20.375 -32.375 19.375 C-32.25 16 -32.25 16 -31.375 12.375 C-28.57349782 10.10351175 -25.90507461 9.02871752 -22.375 8.375 C-22.375 7.715 -22.375 7.055 -22.375 6.375 C-21.385 6.375 -20.395 6.375 -19.375 6.375 C-19.375 5.055 -19.375 3.735 -19.375 2.375 C-14.34257688 -2.48389129 -6.35083443 -1.17608045 0 0 Z " fill="#090D09" transform="translate(153.375,66.625)"/>
<path d="M0 0 C0 0.66 0 1.32 0 2 C-0.9075 2.598125 -1.815 3.19625 -2.75 3.8125 C-6.90763793 6.61091015 -9.40873648 9.22620944 -11 14 C-10.23816406 13.29423828 -10.23816406 13.29423828 -9.4609375 12.57421875 C0.04164932 3.97918236 9.91052774 1.42323234 22.6953125 1.75 C28.97043009 2.43069072 33.93145012 5.3960142 39.1171875 8.8125 C41.16774212 10.1627806 41.16774212 10.1627806 44.25 11.5 C49.82277467 14.53969527 51.77538613 19.3692345 54.0703125 25.01171875 C54.94100025 27.16835736 54.94100025 27.16835736 57 29 C56.84074106 32.08066518 56.4576586 33.54540608 54.25 35.73828125 C53.5075 36.25777344 52.765 36.77726562 52 37.3125 C48.65064208 39.72593059 45.73499119 42.21347501 42.8125 45.125 C36.74222866 50.63757857 28.20420744 54 20 54 C20 53.34 20 52.68 20 52 C21.134375 51.64808594 22.26875 51.29617187 23.4375 50.93359375 C24.95867098 50.4359267 26.47948571 49.93716984 28 49.4375 C28.74378906 49.20998047 29.48757812 48.98246094 30.25390625 48.74804688 C36.3483275 46.70774063 40.44258485 43.48368313 45 39 C44.13310547 38.93006836 43.26621094 38.86013672 42.37304688 38.78808594 C39.12133962 38.51783448 35.87160935 38.23278405 32.62207031 37.93798828 C31.22218542 37.81397639 29.8217804 37.69568509 28.42089844 37.58349609 C18.56335838 36.7889868 10.66945965 35.65679071 3 28.875 C2.4225 28.37742187 1.845 27.87984375 1.25 27.3671875 C0 26 0 26 0 24 C3.27228805 24.58079571 4.80569368 25.53238407 7.125 27.875 C14.30036016 34.2277074 23.79957498 34.64737047 33 35 C33.66467285 35.02723145 34.3293457 35.05446289 35.01416016 35.08251953 C37.15532451 35.16054959 39.29530677 35.21011223 41.4375 35.25 C42.75621094 35.27578125 44.07492188 35.3015625 45.43359375 35.328125 C49.15691717 34.98556293 51.01712339 34.18399443 54 32 C53.505 31.01 53.505 31.01 53 30 C49.04 30.99 45.08 31.98 41 33 C41 32.34 41 31.68 41 31 C42.26839526 30.49384702 43.53983102 29.99530901 44.8125 29.5 C45.52019531 29.2215625 46.22789063 28.943125 46.95703125 28.65625 C49 28 49 28 52 28 C49.277884 20.50642924 49.277884 20.50642924 44.1484375 14.828125 C42.08624769 14.27731905 42.08624769 14.27731905 39 14 C38.01 13.34 37.02 12.68 36 12 C36.33 11.67 36.66 11.34 37 11 C35.73168307 10.18357746 34.46024069 9.37200895 33.1875 8.5625 C32.47980469 8.11003906 31.77210937 7.65757813 31.04296875 7.19140625 C23.90433569 3.02834108 14.33641894 4.72794199 6.5859375 6.3046875 C2.80111358 7.32235919 -0.86714702 8.59736087 -4 11 C-5.22335764 13.04905052 -5.22335764 13.04905052 -6 15 C-3.36 14.67 -0.72 14.34 2 14 C2.33 14.66 2.66 15.32 3 16 C2.34 16.33 1.68 16.66 1 17 C3.31 17.99 5.62 18.98 8 20 C11.37088267 17.72584713 11.37088267 17.72584713 13 14 C16.465 13.505 16.465 13.505 20 13 C18.25 16.875 18.25 16.875 16 18 C16.66 18.33 17.32 18.66 18 19 C17.67 20.65 17.34 22.3 17 24 C17.66 24 18.32 24 19 24 C18.67 24.99 18.34 25.98 18 27 C12.43231458 26.71201627 9.85843512 26.26452602 5.69140625 22.3359375 C0.5453786 18.27140758 -6.7365242 16.63395021 -13 15 C-13.49991644 12.25045961 -13.37273694 10.55666922 -11.8046875 8.21484375 C-4.86305732 0 -4.86305732 0 0 0 Z " fill="#051204" transform="translate(61,57)"/>
<path d="M0 0 C1.35622245 0.96873032 2.69417053 1.96434215 4 3 C6.20800528 2.78282648 6.20800528 2.78282648 8 2 C7.67 3.98 7.34 5.96 7 8 C7.94101563 8.56847656 8.88203125 9.13695312 9.8515625 9.72265625 C16.56287506 13.8563576 22.30960309 17.51621603 27 24 C26.67 24.66 26.34 25.32 26 26 C25.64550781 25.5153125 25.29101562 25.030625 24.92578125 24.53125 C20.3705853 18.79589433 15.26512636 15.55731236 8.97265625 11.89453125 C5.40351908 9.61985119 3.41850445 7.41926491 1 4 C-1.93300732 2.53349634 -3.72037344 2.63559705 -7 3 C-11.76441981 5.33092946 -15.95899015 8.59039794 -20 12 C-19.67 12.5775 -19.34 13.155 -19 13.75 C-18 16 -18 16 -18 20 C-19.98 20.99 -19.98 20.99 -22 22 C-21.67 21.38125 -21.34 20.7625 -21 20.125 C-19.85806765 18.08981656 -19.85806765 18.08981656 -20 16 C-22.31 16 -24.62 16 -27 16 C-27 17.65 -27 19.3 -27 21 C-23.83013832 22.58493084 -20.45967739 22.2940042 -17 22 C-14.59442147 21.13734032 -14.59442147 21.13734032 -13 20 C-14.04874998 22.62187494 -14.64931313 23.79371361 -17.125 25.25 C-17.74375 25.4975 -18.3625 25.745 -19 26 C-18.67 27.65 -18.34 29.3 -18 31 C-12.46398272 26.39863498 -7.60136502 21.53601728 -3 16 C-2.34 16.33 -1.68 16.66 -1 17 C-3.75195286 21.7012528 -6.92031867 24.8989225 -11.09765625 28.38671875 C-12.82556093 29.85206707 -14.42369759 31.37459159 -16 33 C-15.67 33.99 -15.34 34.98 -15 36 C-13.515 35.505 -13.515 35.505 -12 35 C-11.7525 35.763125 -11.505 36.52625 -11.25 37.3125 C-9.83617937 40.35221435 -8.90919965 41.38377797 -6 43 C-2.84881675 43.72045367 -2.84881675 43.72045367 0 44 C0.2475 43.113125 0.495 42.22625 0.75 41.3125 C2.47366439 36.74478937 4.2771713 33.82225915 8.75 31.6875 C9.4925 31.460625 10.235 31.23375 11 31 C9.7589311 34.7232067 7.75859975 36.24140025 5 39 C2.5209063 42.50492557 2 43.58618039 2 48 C5.13306674 48.5115211 7.88124852 48.66049991 11 48 C13.17018371 46.19571935 14.72195432 44.3102397 16.39453125 42.04296875 C18.06469856 39.91767068 19.78180266 38.5253114 22 37 C22 40 22 40 20.21484375 41.8671875 C18.69772711 43.20474831 17.1768874 44.53809816 15.65234375 45.8671875 C13.67608686 47.91711722 13.67608686 47.91711722 14.25390625 50.7578125 C14.50011719 51.49773437 14.74632812 52.23765625 15 53 C14.01 53 13.02 53 12 53 C12 52.34 12 51.68 12 51 C10.96939453 51.05220703 10.96939453 51.05220703 9.91796875 51.10546875 C9.01691406 51.13253906 8.11585938 51.15960938 7.1875 51.1875 C5.84751953 51.23970703 5.84751953 51.23970703 4.48046875 51.29296875 C2 51 2 51 0.17578125 49.61328125 C-1 48 -1 48 -1 46 C-1.87269531 46.08636719 -2.74539062 46.17273438 -3.64453125 46.26171875 C-7.90439647 45.92945918 -9.46780694 44.5651804 -12.6875 41.8125 C-13.61949219 41.03519531 -14.55148438 40.25789063 -15.51171875 39.45703125 C-18.86102809 36.14978545 -20.8705068 33.61866502 -21.25 28.875 C-21.4975 27.92625 -21.745 26.9775 -22 26 C-24.32671865 24.98470459 -26.6603447 23.98511802 -29 23 C-30.4375 19.8125 -30.4375 19.8125 -31 17 C-33.64 17 -36.28 17 -39 17 C-38.0627424 21.89456746 -36.70531533 24.51601009 -33.375 28.25 C-29.6015667 32.77343246 -29.36661368 36.14819126 -29.75390625 41.91015625 C-29.83511719 42.59980469 -29.91632813 43.28945312 -30 44 C-30.33 44 -30.66 44 -31 44 C-31.00257812 43.443125 -31.00515625 42.88625 -31.0078125 42.3125 C-31.3499826 35.56034332 -33.67241217 32.02732218 -38 27 C-40.16240407 24.3626754 -40.95175471 23.3940032 -41.375 19.9375 C-41 17 -41 17 -40 15.125 C-36.74686316 13.29511053 -33.68609891 13.81871645 -30 14 C-30 14.66 -30 15.32 -30 16 C-22.34721593 10.58690922 -22.34721593 10.58690922 -15.125 4.625 C-10.36590327 0.47488721 -6.36696382 -0.57881489 0 0 Z " fill="#061904" transform="translate(146,147)"/>
<path d="M0 0 C3.7042318 2.6670469 6.78223011 5.78223011 10 9 C10.99 9.66 11.98 10.32 13 11 C12.9375 12.75 12.9375 12.75 12 15 C9.19551995 17.02232607 6.08720463 18.45639768 3 20 C3 19.01 3 18.02 3 17 C3.66 17 4.32 17 5 17 C5 16.34 5 15.68 5 15 C1.08918648 13.69639549 -2.96567353 13.08602869 -7 14 C-9.29976917 15.55063643 -9.29976917 15.55063643 -11.5 17.5 C-14.50894404 20.07686384 -16.35497651 21.51096124 -20.375 21.5625 C-24 21 -24 21 -27 19 C-26.67 17.35 -26.34 15.7 -26 14 C-23.6875 13.3125 -23.6875 13.3125 -21 13 C-19.1875 14.4375 -19.1875 14.4375 -18 16 C-18.33 16.99 -18.66 17.98 -19 19 C-18.34 17.68 -17.68 16.36 -17 15 C-17.99 14.01 -18.98 13.02 -20 12 C-18.59844241 8.66227007 -17.0490314 6.98250943 -14.125 4.875 C-13.44695312 4.37742188 -12.76890625 3.87984375 -12.0703125 3.3671875 C-7.9360384 0.63700649 -5.04820792 -0.70674911 0 0 Z " fill="#4C9142" transform="translate(145,149)"/>
<path d="M0 0 C9.03353801 -0.36234108 14.56367567 2.28374355 21.32421875 8.19921875 C18.34054149 9.19377784 16.12379955 9.39481507 13 9.515625 C11.45795898 9.5784668 11.45795898 9.5784668 9.88476562 9.64257812 C8.81291016 9.68189453 7.74105469 9.72121094 6.63671875 9.76171875 C5.0115332 9.82649414 5.0115332 9.82649414 3.35351562 9.89257812 C0.67721084 9.99868713 -1.99918651 10.10074236 -4.67578125 10.19921875 C-4.79824219 10.823125 -4.92070313 11.44703125 -5.046875 12.08984375 C-5.87670507 14.87312474 -7.28800625 15.65871875 -9.67578125 17.19921875 C-14.13078125 15.21921875 -14.13078125 15.21921875 -18.67578125 13.19921875 C-17.68578125 12.53921875 -16.69578125 11.87921875 -15.67578125 11.19921875 C-18.31578125 11.19921875 -20.95578125 11.19921875 -23.67578125 11.19921875 C-23.55078125 9.44921875 -23.55078125 9.44921875 -22.67578125 7.19921875 C-15.74545273 1.7194241 -8.54645574 0.63630546 0 0 Z " fill="#4D9143" transform="translate(78.67578125,60.80078125)"/>
<path d="M0 0 C0.99 0 1.98 0 3 0 C4.6875 1.5 4.6875 1.5 6 3 C5.67 3.99 5.34 4.98 5 6 C4.80500748 9.31126185 4.65587789 12.61598178 4.5703125 15.93164062 C4.31773832 21.55667802 3.11225864 25.88774136 -1 30 C-0.71713004 33.96017943 1.77750666 36.84549333 4 40 C3.01 40.495 3.01 40.495 2 41 C0.68 39.02 -0.64 37.04 -2 35 C-4.6905528 36.22007944 -4.6905528 36.22007944 -7 38 C-9.33297433 38.04092937 -11.66705225 38.04241723 -14 38 C-14 37.34 -14 36.68 -14 36 C-11.36 35.34 -8.72 34.68 -6 34 C-7.98 33.67 -9.96 33.34 -12 33 C-12 32.34 -12 31.68 -12 31 C-10.783125 30.95875 -9.56625 30.9175 -8.3125 30.875 C-4.78728525 30.46800363 -3.24719867 29.68983267 -1 26.9375 C-0.34 25.968125 0.32 24.99875 1 24 C0.67 23.67 0.34 23.34 0 23 C-1.3921875 23.99 -1.3921875 23.99 -2.8125 25 C-6 27 -6 27 -9 27 C-9 26.34 -9 25.68 -9 25 C-7.6078125 24.3503125 -7.6078125 24.3503125 -6.1875 23.6875 C-3.53164256 22.28145783 -1.82323803 21.32969304 0 19 C0 18.34 0 17.68 0 17 C-0.66 16.34 -1.32 15.68 -2 15 C-0.68 15 0.64 15 2 15 C1.12202163 13.67548968 0.22177786 12.36572192 -0.6875 11.0625 C-1.18636719 10.33160156 -1.68523437 9.60070312 -2.19921875 8.84765625 C-5.51696942 5.44354331 -10.02165401 5.80749454 -14.5625 5.6875 C-18.91071604 5.69771902 -18.91071604 5.69771902 -22.625 7.875 C-24.01380394 9.93558161 -24.01380394 9.93558161 -25 12 C-25.99 12 -26.98 12 -28 12 C-28 12.66 -28 13.32 -28 14 C-30.2727675 15.49524178 -32.5679943 16.78399715 -35 18 C-32.30179708 12.14516163 -28.21370177 6.54507734 -22.125 4 C-15.38402035 1.97900997 -8.52268054 2.39092778 -2 5 C-0.0625 7.125 -0.0625 7.125 1 9 C1 7.35 1 5.7 1 4 C-3.60427624 1.69324838 -7.77675745 1.63331667 -12.8125 1.625 C-13.58142578 1.60050781 -14.35035156 1.57601562 -15.14257812 1.55078125 C-21.03890387 1.52092644 -24.95533178 3.06602909 -30 6 C-31.3293801 6.67451521 -32.66172067 7.34331846 -34 8 C-32.20208606 3.81381232 -30.15415693 2.10062321 -26.1796875 -0.0234375 C-18.14471412 -2.49118117 -8.11244372 -2.03712247 0 0 Z " fill="#041604" transform="translate(159,61)"/>
<path d="M0 0 C2.5 1 2.5 1 4 2 C4 2.66 4 3.32 4 4 C3.34 4 2.68 4 2 4 C2.33 4.66 2.66 5.32 3 6 C3.78375 5.34 4.5675 4.68 5.375 4 C8 2 8 2 10 2 C10 2.66 10 3.32 10 4 C7.875 5.76953125 7.875 5.76953125 5 7.8125 C4.00097656 8.5240625 3.00195312 9.235625 1.97265625 9.96875 C-1.10047541 12.068656 -4.21661476 14.0374268 -7.44140625 15.89453125 C-9.3134959 17.08266728 -9.3134959 17.08266728 -11 20 C-11.99 20 -12.98 20 -14 20 C-14.33 20.66 -14.66 21.32 -15 22 C-15.66 20.68 -16.32 19.36 -17 18 C-15.38113585 16.32737283 -13.7547271 14.66204463 -12.125 13 C-11.22007812 12.071875 -10.31515625 11.14375 -9.3828125 10.1875 C-7 8 -7 8 -5 8 C-3.58614089 5.61837991 -3.58614089 5.61837991 -3 3 C-3.90363281 3.92683594 -4.80726563 4.85367188 -5.73828125 5.80859375 C-6.92942099 7.0184916 -8.12084191 8.22811268 -9.3125 9.4375 C-10.20485352 10.35499023 -10.20485352 10.35499023 -11.11523438 11.29101562 C-11.69208984 11.87431641 -12.26894531 12.45761719 -12.86328125 13.05859375 C-13.65665894 13.86768188 -13.65665894 13.86768188 -14.46606445 14.69311523 C-16 16 -16 16 -19 17 C-19.33 14.69 -19.66 12.38 -20 10 C-19.05125 9.5875 -18.1025 9.175 -17.125 8.75 C-13.80752042 6.89221143 -13.43805932 6.28699274 -12 3 C-8.55706506 -0.70777609 -4.75268001 -0.594085 0 0 Z " fill="#091D08" transform="translate(146,162)"/>
<path d="M0 0 C0.66 0 1.32 0 2 0 C6.86485157 6.71812836 12.09287684 14.84592226 14 23 C13.67 24.32 13.34 25.64 13 27 C4.75 27 -3.5 27 -12 27 C-12.66 25.35 -13.32 23.7 -14 22 C-11.69 20.02 -9.38 18.04 -7 16 C-7 16.66 -7 17.32 -7 18 C-5.0399719 19.63676257 -5.0399719 19.63676257 -3 21 C-2.071875 19.7625 -2.071875 19.7625 -1.125 18.5 C-0.073125 17.2625 -0.073125 17.2625 1 16 C1.66 16 2.32 16 3 16 C3 17.32 3 18.64 3 20 C3.61875 19.505 4.2375 19.01 4.875 18.5 C7 17 7 17 9 17 C8.07005883 15.05886066 7.1307547 13.1222049 6.1875 11.1875 C5.66542969 10.10855469 5.14335937 9.02960938 4.60546875 7.91796875 C3.22162315 5.40280413 2.03422253 3.93648211 0 2 C0 1.34 0 0.68 0 0 Z " fill="#3E7A35" transform="translate(173,173)"/>
<path d="M0 0 C10.97314596 -0.77640184 10.97314596 -0.77640184 14.5625 1.9375 C16.40592001 5.86478612 17.80179579 9.83351718 19 14 C13.32551831 16.47613747 8.23795124 17.99651918 2 17 C1.34 16.34 0.68 15.68 0 15 C0.33 14.319375 0.66 13.63875 1 12.9375 C2.1933772 9.43195448 2.27277977 6.6825269 2 3 C1.34 2.01 0.68 1.02 0 0 Z " fill="#F7F8F6" transform="translate(94,71)"/>
<path d="M0 0 C0.61875 0.25652344 1.2375 0.51304688 1.875 0.77734375 C6.2144757 2.47516362 10.60414846 4.01758116 15 5.5625 C15.88945313 5.87896484 16.77890625 6.19542969 17.6953125 6.52148438 C18.55898437 6.82505859 19.42265625 7.12863281 20.3125 7.44140625 C21.09238281 7.71670166 21.87226562 7.99199707 22.67578125 8.27563477 C27.52906981 9.78820905 32.18411099 10.18212082 37.25 10.4375 C42.22813087 10.72172375 46.94302219 11.27239132 51.77954102 12.4987793 C60.52155332 14.47209994 69.66249661 14.21663311 78.57885742 14.24023438 C80.82571865 14.25005779 83.07170703 14.28123203 85.31835938 14.3125 C86.76041133 14.31902155 88.20246969 14.32427534 89.64453125 14.328125 C90.93721924 14.3374707 92.22990723 14.34681641 93.56176758 14.35644531 C97.2383191 13.9752932 99.0021247 13.07502251 102 11 C102.99 10.67 103.98 10.34 105 10 C103.96873936 12.99065585 103.1032639 13.93695105 100.36010742 15.61181641 C96.60087559 17.16489293 93.91869663 17.38728239 89.86328125 17.3984375 C89.19043594 17.40244064 88.51759064 17.40644379 87.82435608 17.41056824 C85.6532958 17.41639212 83.48343846 17.39750994 81.3125 17.375 C80.5717926 17.37200897 79.83108521 17.36901794 79.06793213 17.36593628 C68.87189618 17.317502 59.03273265 16.67689232 49.01171875 14.71875 C45.07452327 13.95347361 41.19731144 13.72599894 37.1875 13.5625 C29.71091554 13.16053309 23.0850282 11.33157359 16 9 C14.87722656 8.65453125 13.75445312 8.3090625 12.59765625 7.953125 C3.36890907 5.04467134 3.36890907 5.04467134 0 2 C0 1.34 0 0.68 0 0 Z " fill="#240301" transform="translate(52,115)"/>
<path d="M0 0 C2.49834086 2.10971006 3.65195508 3.01032174 6.8125 3.375 C6.585625 3.890625 6.35875 4.40625 6.125 4.9375 C5.5802171 9.18680666 7.95085959 12.65171918 9.8125 16.375 C8.76191406 16.230625 7.71132812 16.08625 6.62890625 15.9375 C-8.17811436 13.9540545 -19.74484502 12.53801227 -32.31640625 21.9140625 C-32.93386719 22.39617188 -33.55132812 22.87828125 -34.1875 23.375 C-34.1875 20.375 -34.1875 20.375 -32.859375 18.875 C-24.91358474 12.67340761 -15.19682133 10.31314156 -5.1875 11.375 C-1.82481767 11.92835279 1.4944154 12.59916393 4.8125 13.375 C2.82068165 6.32702739 0.53105936 2.12807617 -5.9140625 -1.57421875 C-9.15392763 -3.07168219 -11.5977654 -3.50730378 -15.1875 -3.625 C-16.27675781 -3.66238281 -17.36601563 -3.69976563 -18.48828125 -3.73828125 C-28.85811414 -3.94633492 -35.64081797 -2.44118362 -44.1875 3.375 C-42.08376128 -1.81791296 -38.13961962 -3.47854555 -33.1875 -5.625 C-22.22522103 -8.27106734 -8.78177528 -7.48397597 0 0 Z " fill="#071B06" transform="translate(87.1875,20.625)"/>
<path d="M0 0 C3.01217112 0.64449607 5.51655836 1.65022182 8.25 3.0625 C8.95640625 3.42472656 9.6628125 3.78695312 10.390625 4.16015625 C10.92171875 4.43730469 11.4528125 4.71445313 12 5 C10.29456551 8.74095307 8.4266733 10.65983287 5 13 C4.01 13 3.02 13 2 13 C2 13.66 2 14.32 2 15 C3.27208622 14.37755401 4.54261882 13.75193233 5.8125 13.125 C6.52019531 12.77695313 7.22789062 12.42890625 7.95703125 12.0703125 C10.21246418 10.9343514 10.21246418 10.9343514 13 9 C12.7090874 12.39398034 11.97716583 14.03113751 9.9375 16.8125 C5.95894672 19.77525245 3.85711724 19.4116201 -1 19 C-1 19.66 -1 20.32 -1 21 C1.31 21 3.62 21 6 21 C4.9375 22.5 4.9375 22.5 3 24 C-0.6875 24.1875 -0.6875 24.1875 -4 24 C-4.79953138 20.71303767 -5.09658936 19.28976808 -4 16 C-2.35 16 -0.7 16 1 16 C1 15.34 1 14.68 1 14 C0.34 13.67 -0.32 13.34 -1 13 C-0.34 12.01 0.32 11.02 1 10 C1.22584687 6.4617323 1.04336284 3.39092922 0 0 Z " fill="#4D8A44" transform="translate(148,73)"/>
<path d="M0 0 C5.97353171 0.79666544 10.51895144 3.29209037 14.3828125 7.92626953 C18.30062623 13.13323184 21.76635355 18.60646162 24.50683594 24.52050781 C26.14094723 27.52778593 27.57499333 28.7887243 30.37402344 30.70410156 C34.64094511 33.82809779 37.11730756 36.8592714 39.99902344 41.26660156 C40.97772878 42.28745211 41.97298778 43.29333345 42.99902344 44.26660156 C42.42917725 44.10434082 41.85933105 43.94208008 41.2722168 43.77490234 C38.97767283 43.26182743 36.97519317 43.13735131 34.62792969 43.13378906 C33.80615234 43.1325 32.984375 43.13121094 32.13769531 43.12988281 C31.28755859 43.13375 30.43742187 43.13761719 29.56152344 43.14160156 C28.71525391 43.13773438 27.86898437 43.13386719 26.99707031 43.12988281 C22.86956392 43.13634719 19.02362238 43.22532956 14.99902344 44.26660156 C19.04538939 40.03630988 22.44346377 40.00333657 28.12402344 39.70410156 C28.878125 39.66091797 29.63222656 39.61773437 30.40917969 39.57324219 C32.27224232 39.46711837 34.13560868 39.36635156 35.99902344 39.26660156 C32.64737579 34.89461838 29.76184689 32.16751734 24.87402344 29.45410156 C23.84019531 28.87015625 22.80636719 28.28621094 21.74121094 27.68457031 C19.01897791 26.18722366 19.01897791 26.18722366 15.99902344 25.26660156 C16.49402344 23.78160156 16.49402344 23.78160156 16.99902344 22.26660156 C19.47402344 23.25660156 19.47402344 23.25660156 21.99902344 24.26660156 C15.29293614 11.47099339 15.29293614 11.47099339 4.01074219 3.04394531 C-2.78126687 1.29088461 -10.24757731 1.25883422 -17.00097656 3.26660156 C-13.3909835 -1.86122949 -5.59781493 -0.46542487 0 0 Z " fill="#071C06" transform="translate(116.0009765625,15.7333984375)"/>
<path d="M0 0 C4.29 0.33 8.58 0.66 13 1 C13 2.65 13 4.3 13 6 C13.29749946 7.67343448 13.62127066 9.34305915 14 11 C13.34 10.67 12.68 10.34 12 10 C12 9.34 12 8.68 12 8 C9.03 8 6.06 8 3 8 C3.5053125 8.62648438 4.010625 9.25296875 4.53125 9.8984375 C5.1809375 10.71570313 5.830625 11.53296875 6.5 12.375 C7.1496875 13.18710938 7.799375 13.99921875 8.46875 14.8359375 C10 17 10 17 10 19 C9.34 19 8.68 19 8 19 C6.71968359 17.4577338 5.50018065 15.86468567 4.3125 14.25 C0.87784547 9.8169724 -1.9301586 7.32367731 -7 5 C-7 4.34 -7 3.68 -7 3 C-4.69 3.33 -2.38 3.66 0 4 C0 2.68 0 1.36 0 0 Z " fill="#4D8E43" transform="translate(131,88)"/>
<path d="M0 0 C1.98736837 1.8922284 3.39456925 3.73350953 5 6 C5 6.66 5 7.32 5 8 C1.78924409 6.98195544 -1.2095127 5.89927274 -4.25 4.4375 C-8.6533909 2.47823843 -13.23875523 2.27781911 -18 2 C-18 2.66 -18 3.32 -18 4 C-18.99 4.495 -18.99 4.495 -20 5 C-20.65555119 7.52733235 -20.65555119 7.52733235 -21 10 C-21.66 10 -22.32 10 -23 10 C-22.81307808 1.89438589 -22.81307808 1.89438589 -20.125 -1.0625 C-13.7567734 -2.97296798 -5.97676042 -3.13068403 0 0 Z " fill="#4E8B46" transform="translate(156,68)"/>
<path d="M0 0 C1.7492214 -0.08142927 3.49954542 -0.13938541 5.25 -0.1875 C6.22453125 -0.22230469 7.1990625 -0.25710937 8.203125 -0.29296875 C11.39706651 0.04159216 12.72880304 0.76665633 15 3 C15 3.66 15 4.32 15 5 C15.99 5.33 16.98 5.66 18 6 C21.66636232 10.39963479 22.45452339 13.31845765 22 19 C21.319375 18.29875 20.63875 17.5975 19.9375 16.875 C17.3187901 14.24887166 14.53381397 11.86822472 11.6953125 9.484375 C10 8 10 8 7.375 5.25 C4.97096985 2.97249776 3.1310051 1.98403018 0 1 C0 0.67 0 0.34 0 0 Z " fill="#4C8A43" transform="translate(96,57)"/>
<path d="M0 0 C0.99 0.33 1.98 0.66 3 1 C3.33 5.29 3.66 9.58 4 14 C5.65 14.66 7.3 15.32 9 16 C9.66 16.66 10.32 17.32 11 18 C2.75 18 -5.5 18 -14 18 C-10 16 -10 16 -6.375 14.5625 C-2.79851523 13.26328962 -2.79851523 13.26328962 -1 10 C-0.54398739 7.49103314 -0.54398739 7.49103314 -0.375 4.8125 C-0.30023438 3.91144531 -0.22546875 3.01039063 -0.1484375 2.08203125 C-0.09945312 1.39496094 -0.05046875 0.70789063 0 0 Z " fill="#102A0E" transform="translate(114,182)"/>
<path d="M0 0 C1.15177734 0.00451172 2.30355469 0.00902344 3.49023438 0.01367188 C6.30604518 0.02535574 9.12174398 0.04173719 11.9375 0.0625 C11.9375 0.3925 11.9375 0.7225 11.9375 1.0625 C4.3475 1.3925 -3.2425 1.7225 -11.0625 2.0625 C-11.3925 3.3825 -11.7225 4.7025 -12.0625 6.0625 C-14.125 7.8125 -14.125 7.8125 -16.0625 9.0625 C-20.5175 7.0825 -20.5175 7.0825 -25.0625 5.0625 C-24.0725 4.4025 -23.0825 3.7425 -22.0625 3.0625 C-22.0625 2.4025 -22.0625 1.7425 -22.0625 1.0625 C-14.67593587 0.06770292 -7.44694355 -0.05586282 0 0 Z " fill="#122810" transform="translate(85.0625,68.9375)"/>
<path d="M0 0 C3.01217112 0.64449607 5.51655836 1.65022182 8.25 3.0625 C8.95640625 3.42472656 9.6628125 3.78695312 10.390625 4.16015625 C10.92171875 4.43730469 11.4528125 4.71445313 12 5 C10.27403168 8.75141972 8.50718564 10.71625121 5 13 C2.1875 13.25 2.1875 13.25 0 13 C0.08378906 12.39671875 0.16757813 11.7934375 0.25390625 11.171875 C0.35574219 10.37265625 0.45757812 9.5734375 0.5625 8.75 C0.66691406 7.96109375 0.77132812 7.1721875 0.87890625 6.359375 C1.00027349 3.99467126 0.69633257 2.2488963 0 0 Z " fill="#F4F6F3" transform="translate(148,73)"/>
<path d="M0 0 C5.14395032 3.08637019 6.69353471 7.20969671 8.88671875 12.5390625 C9.87597737 15.11117996 9.87597737 15.11117996 12 17 C12.0625 19.375 12.0625 19.375 11 22 C8.76120591 23.66570565 6.52499982 24.76045463 4 26 C4 25.01 4 24.02 4 23 C6.5 21.3125 6.5 21.3125 9 20 C8.67 19.34 8.34 18.68 8 18 C4.04 18.99 0.08 19.98 -4 21 C-4 20.34 -4 19.68 -4 19 C-2.73160474 18.49384702 -1.46016898 17.99530901 -0.1875 17.5 C0.52019531 17.2215625 1.22789063 16.943125 1.95703125 16.65625 C4 16 4 16 7 16 C6.57847656 15.18015625 6.15695313 14.3603125 5.72265625 13.515625 C5.17480469 12.43796875 4.62695312 11.3603125 4.0625 10.25 C3.51722656 9.18265625 2.97195312 8.1153125 2.41015625 7.015625 C1.28783725 4.61554115 0.49498341 2.58143248 0 0 Z " fill="#071506" transform="translate(106,69)"/>
<path d="M0 0 C0.80060349 0.00007553 1.60120697 0.00015106 2.42607117 0.00022888 C3.71527214 0.00797081 3.71527214 0.00797081 5.03051758 0.01586914 C5.91411453 0.01728409 6.79771149 0.01869904 7.70808411 0.02015686 C10.53044011 0.0257547 13.3527168 0.03830678 16.17504883 0.05102539 C18.08845914 0.05604067 20.0018707 0.06060353 21.9152832 0.06469727 C26.60606897 0.07572342 31.29679545 0.09298656 35.98754883 0.11352539 C35.98754883 0.44352539 35.98754883 0.77352539 35.98754883 1.11352539 C35.30047852 1.17411133 34.6134082 1.23469727 33.90551758 1.29711914 C32.55393555 1.42280273 32.55393555 1.42280273 31.17504883 1.55102539 C29.83506836 1.6728418 29.83506836 1.6728418 28.46801758 1.79711914 C25.86011324 2.04842306 25.86011324 2.04842306 22.98754883 3.11352539 C20.70369713 3.19731167 18.41744783 3.22082454 16.13208008 3.21118164 C15.13962532 3.20905922 15.13962532 3.20905922 14.12712097 3.20689392 C12.01805055 3.20130535 9.90908706 3.18875504 7.80004883 3.17602539 C6.36840974 3.17100891 4.93676898 3.16644626 3.50512695 3.16235352 C-0.00076705 3.15133969 -3.50659867 3.13408294 -7.01245117 3.11352539 C-7.01245117 2.45352539 -7.01245117 1.79352539 -7.01245117 1.11352539 C-4.30620747 0.21144416 -2.77394132 -0.0087506 0 0 Z " fill="#010D01" transform="translate(68.012451171875,54.886474609375)"/>
<path d="M0 0 C-1.57973684 3.8288537 -4.02060457 6.28773759 -6.9375 9.1875 C-7.81277344 10.06792969 -8.68804687 10.94835937 -9.58984375 11.85546875 C-12 14 -12 14 -15 15 C-15.33 12.69 -15.66 10.38 -16 8 C-15.22076172 7.63648438 -15.22076172 7.63648438 -14.42578125 7.265625 C-11.04052224 5.6386983 -8.13721037 4.1097683 -5.1875 1.75 C-3 0 -3 0 0 0 Z " fill="#4E8A46" transform="translate(142,164)"/>
<path d="M0 0 C0.99 0.33 1.98 0.66 3 1 C1.81350268 5.15274061 -0.03281118 7.11531529 -3.4140625 9.74609375 C-7.14573645 12.69650591 -10.26885514 16.11889941 -13 20 C-13.66 18.68 -14.32 17.36 -15 16 C-13.38113585 14.32737283 -11.7547271 12.66204463 -10.125 11 C-8.76761719 9.6078125 -8.76761719 9.6078125 -7.3828125 8.1875 C-5 6 -5 6 -3 6 C-2.690625 5.38125 -2.38125 4.7625 -2.0625 4.125 C-1.375 2.75 -0.6875 1.375 0 0 Z " fill="#4E8547" transform="translate(144,164)"/>
<path d="M0 0 C1.11375 0.309375 2.2275 0.61875 3.375 0.9375 C8.20509012 2.15800664 13.04290069 2.61399637 18 3 C17.67 3.66 17.34 4.32 17 5 C14.69 5 12.38 5 10 5 C10.75796875 5.93972656 10.75796875 5.93972656 11.53125 6.8984375 C12.1809375 7.71570313 12.830625 8.53296875 13.5 9.375 C14.1496875 10.18710938 14.799375 10.99921875 15.46875 11.8359375 C17 14 17 14 17 16 C16.34 16 15.68 16 15 16 C13.71968359 14.4577338 12.50018065 12.86468567 11.3125 11.25 C7.87784547 6.8169724 5.0698414 4.32367731 0 2 C0 1.34 0 0.68 0 0 Z " fill="#041203" transform="translate(124,91)"/>
<path d="M0 0 C0.33 0.66 0.66 1.32 1 2 C1.6290625 1.67644531 2.258125 1.35289063 2.90625 1.01953125 C7.14410223 -0.37703369 11.06726884 -0.32947064 15.5 -0.3125 C16.34175781 -0.32861328 17.18351562 -0.34472656 18.05078125 -0.36132812 C22.88233953 -0.3651325 26.03556578 -0.07893559 30 3 C29.01 3.495 29.01 3.495 28 4 C27.01 3.67 26.02 3.34 25 3 C21.85804835 2.77419239 18.71175013 2.81485194 15.5625 2.8125 C14.70333984 2.80025391 13.84417969 2.78800781 12.95898438 2.77539062 C12.12818359 2.77345703 11.29738281 2.77152344 10.44140625 2.76953125 C9.68545166 2.76542236 8.92949707 2.76131348 8.15063477 2.75708008 C5.72728415 3.03080398 4.149292 3.89000658 2 5 C-0.25 4.625 -0.25 4.625 -2 4 C-1.34 2.68 -0.68 1.36 0 0 Z " fill="#528B49" transform="translate(130,58)"/>
<path d="M0 0 C2.70894767 -0.08144943 5.41541263 -0.14070614 8.125 -0.1875 C8.88554687 -0.21263672 9.64609375 -0.23777344 10.4296875 -0.26367188 C15.4024261 -0.32797453 18.63616482 0.34405558 23 3 C23 5.31 23 7.62 23 10 C22.484375 9.21625 21.96875 8.4325 21.4375 7.625 C16.58869226 2.40320705 10.00661919 2.71153238 3.2578125 2.34375 C2.51273438 2.2303125 1.76765625 2.116875 1 2 C0.67 1.34 0.34 0.68 0 0 Z " fill="#508A49" transform="translate(138,62)"/>
<path d="M0 0 C0 0.66 0 1.32 0 2 C-3.47325181 3.1577506 -6.36067448 3.06866652 -10 3 C-10 3.66 -10 4.32 -10 5 C-10.99 5.495 -10.99 5.495 -12 6 C-12.65555119 8.52733235 -12.65555119 8.52733235 -13 11 C-13.66 11 -14.32 11 -15 11 C-14.81235729 2.86312962 -14.81235729 2.86312962 -12 -0.125 C-7.8176664 -1.3448473 -4.23800669 -0.76634979 0 0 Z " fill="#46853D" transform="translate(148,67)"/>
<path d="M0 0 C0.66 0 1.32 0 2 0 C2.061875 0.61875 2.12375 1.2375 2.1875 1.875 C2.828919 4.27761141 2.828919 4.27761141 5.5625 5.25 C6.366875 5.4975 7.17125 5.745 8 6 C8 6.33 8 6.66 8 7 C2.39 7 -3.22 7 -9 7 C-6 5 -6 5 -3.9375 4.0625 C-1.67738896 3.01748702 -1.67738896 3.01748702 0 0 Z " fill="#518E48" transform="translate(114,193)"/>
<path d="M0 0 C1.72880122 1.62710703 3.37170496 3.2749329 5 5 C5.82564453 5.85464844 5.82564453 5.85464844 6.66796875 6.7265625 C10.97442285 11.69790857 11.58292161 15.35642127 11.2109375 21.875 C11.14132813 22.57625 11.07171875 23.2775 11 24 C10.67 24 10.34 24 10 24 C9.99742188 23.443125 9.99484375 22.88625 9.9921875 22.3125 C9.6500174 15.56034332 7.32758783 12.02732218 3 7 C0 3.38479263 0 3.38479263 0 0 Z " fill="#011201" transform="translate(105,167)"/>
<path d="M0 0 C0.79921875 0.01804687 1.5984375 0.03609375 2.421875 0.0546875 C3.02515625 0.07789062 3.6284375 0.10109375 4.25 0.125 C3.26 2.105 2.27 4.085 1.25 6.125 C-3.7 4.145 -3.7 4.145 -8.75 2.125 C-5.00631258 0.25315629 -3.9099209 -0.11499767 0 0 Z " fill="#F0F2EF" transform="translate(68.75,71.875)"/>
<path d="M0 0 C1.21236328 0.01353516 1.21236328 0.01353516 2.44921875 0.02734375 C3.37154297 0.04474609 3.37154297 0.04474609 4.3125 0.0625 C4.3125 0.7225 4.3125 1.3825 4.3125 2.0625 C3.73242188 2.08828125 3.15234375 2.1140625 2.5546875 2.140625 C-2.95892342 2.54095319 -6.21890938 3.57481951 -10.6875 7.0625 C-11.6775 7.5575 -11.6775 7.5575 -12.6875 8.0625 C-12.30868922 5.31612183 -11.90917713 4.26200942 -9.8125 2.375 C-6.46675531 0.30851063 -3.84466632 -0.0557198 0 0 Z " fill="#061904" transform="translate(51.6875,104.9375)"/>
<path d="M0 0 C3.31474316 0.58751465 5.0056924 1.64048081 7.4375 3.9375 C10.14756803 6.37305683 12.45967295 7.92717362 16 9 C14.02 9.99 14.02 9.99 12 11 C7.7292828 8.25453894 3.76970985 5.41068986 0 2 C0 1.34 0 0.68 0 0 Z " fill="#071D06" transform="translate(61,81)"/>
<path d="M0 0 C2.4375 0.75 2.4375 0.75 5 2 C5.875 4.0625 5.875 4.0625 6 6 C5.67 6.33 5.34 6.66 5 7 C4.76807135 8.51469448 4.58784762 10.03754562 4.4375 11.5625 C4.35371094 12.38878906 4.26992187 13.21507813 4.18359375 14.06640625 C4.12300781 14.70449219 4.06242188 15.34257813 4 16 C2.35982771 13.08487597 1.70197168 10.76309069 1.4375 7.4375 C1.20957595 4.67915381 0.88649112 2.65947335 0 0 Z " fill="#11230F" transform="translate(159,60)"/>
<path d="M0 0 C1.32 0.33 2.64 0.66 4 1 C3.67 1.99 3.34 2.98 3 4 C2.01 4 1.02 4 0 4 C0 4.66 0 5.32 0 6 C-2.2727675 7.49524178 -4.5679943 8.78399715 -7 10 C-5.33248852 6.05860922 -2.77289351 3.2107188 0 0 Z " fill="#020903" transform="translate(131,69)"/>
<path d="M0 0 C1.125 3.75 1.125 3.75 0 6 C-0.66 6 -1.32 6 -2 6 C-2.268125 6.639375 -2.53625 7.27875 -2.8125 7.9375 C-4 10 -4 10 -7 11 C-6.68232368 5.59950264 -3.80003673 3.47662935 0 0 Z " fill="#4A8342" transform="translate(57,60)"/>
<path d="M0 0 C1.21816406 0.03480469 1.21816406 0.03480469 2.4609375 0.0703125 C3.68683594 0.09738281 3.68683594 0.09738281 4.9375 0.125 C5.87722656 0.15980469 5.87722656 0.15980469 6.8359375 0.1953125 C6.8359375 0.8553125 6.8359375 1.5153125 6.8359375 2.1953125 C9.3109375 3.1853125 9.3109375 3.1853125 11.8359375 4.1953125 C8.67048548 5.77803851 6.09174872 4.52617869 2.7109375 3.7578125 C0.78894531 3.32662109 0.78894531 3.32662109 -1.171875 2.88671875 C-2.65300781 2.54447266 -2.65300781 2.54447266 -4.1640625 2.1953125 C-2.1640625 0.1953125 -2.1640625 0.1953125 0 0 Z " fill="#508B47" transform="translate(49.1640625,106.8046875)"/>
<path d="M0 0 C2.1875 0.3125 2.1875 0.3125 4 1 C3.67 2.65 3.34 4.3 3 6 C1.35 6 -0.3 6 -2 6 C-2.33 5.01 -2.66 4.02 -3 3 C-1.75 1.4375 -1.75 1.4375 0 0 Z " fill="#E7E9E7" transform="translate(88,75)"/>
<path d="M0 0 C5.45769811 -0.11138159 10.61509359 0.08342019 16 1 C15.67 1.66 15.34 2.32 15 3 C9.72 2.67 4.44 2.34 -1 2 C-0.67 1.34 -0.34 0.68 0 0 Z " fill="#0C2109" transform="translate(73,32)"/>
<path d="M0 0 C5.34673609 3.32364676 6.47549821 7.19945661 8 13 C7.01 13.495 7.01 13.495 6 14 C5.18247697 12.41925436 4.37118003 10.83528777 3.5625 9.25 C3.11003906 8.36828125 2.65757813 7.4865625 2.19140625 6.578125 C1.16544602 4.35801434 0.48491397 2.38555381 0 0 Z " fill="#121F11" transform="translate(106,69)"/>
<path d="M0 0 C0 0.66 0 1.32 0 2 C-1.86328125 3.76171875 -1.86328125 3.76171875 -4.3125 5.6875 C-5.51326172 6.65236328 -5.51326172 6.65236328 -6.73828125 7.63671875 C-7.48464844 8.08660156 -8.23101562 8.53648437 -9 9 C-9.99 8.67 -10.98 8.34 -12 8 C-11.67 7.01 -11.34 6.02 -11 5 C-9.66666667 4.66666667 -8.33333333 4.33333333 -7 4 C-1.90909091 0 -1.90909091 0 0 0 Z " fill="#041504" transform="translate(156,164)"/>
<path d="M0 0 C1.31625194 2.63250388 0.74813658 3.80179056 0.0625 6.625 C-0.13214844 7.44226563 -0.32679687 8.25953125 -0.52734375 9.1015625 C-0.76130859 10.04128906 -0.76130859 10.04128906 -1 11 C-2.32 10.67 -3.64 10.34 -5 10 C-4.49701212 5.59885603 -2.91227269 3.28804981 0 0 Z " fill="#E3E4E3" transform="translate(128,75)"/>
<path d="M0 0 C0.33 0.66 0.66 1.32 1 2 C2.65 1.67 4.3 1.34 6 1 C6 1.66 6 2.32 6 3 C-0.75 6.875 -0.75 6.875 -3 8 C-3 7.01 -3 6.02 -3 5 C-2.34 5 -1.68 5 -1 5 C-1.33 4.01 -1.66 3.02 -2 2 C-1.34 1.34 -0.68 0.68 0 0 Z " fill="#4F8A48" transform="translate(151,161)"/>
<path d="M0 0 C0.66 0 1.32 0 2 0 C0.63629701 2.99220268 -0.94908083 5.29026529 -3.125 7.75 C-3.93324219 8.67039063 -3.93324219 8.67039063 -4.7578125 9.609375 C-5.16773438 10.06828125 -5.57765625 10.5271875 -6 11 C-6.99 10.67 -7.98 10.34 -9 10 C-8.2575 9.278125 -7.515 8.55625 -6.75 7.8125 C-3.98732731 5.09288953 -3.98732731 5.09288953 -1.8125 2.1875 C-1.214375 1.465625 -0.61625 0.74375 0 0 Z " fill="#051804" transform="translate(174,189)"/>
<path d="M0 0 C-2.76223278 2.76223278 -5.20706617 2.57856291 -9 3 C-9.33 4.32 -9.66 5.64 -10 7 C-10.6875 5.1875 -10.6875 5.1875 -11 3 C-8.69211729 -1.30804773 -4.25159903 -0.20909503 0 0 Z " fill="#0D210B" transform="translate(116,161)"/>
<path d="M0 0 C2.125 0.375 2.125 0.375 4 1 C2.56839732 2.00842453 1.12948547 3.00647891 -0.3125 4 C-1.51326172 4.8353125 -1.51326172 4.8353125 -2.73828125 5.6875 C-5 7 -5 7 -8 7 C-8 6.34 -8 5.68 -8 5 C-7.05125 4.54625 -6.1025 4.0925 -5.125 3.625 C-1.99686321 2.19761746 -1.99686321 2.19761746 0 0 Z " fill="#091409" transform="translate(158,81)"/>
<path d="M0 0 C1.5 1.375 1.5 1.375 3 3 C3 3.66 3 4.32 3 5 C-1.29 4.01 -5.58 3.02 -10 2 C-10 1.67 -10 1.34 -10 1 C-3.375 0.875 -3.375 0.875 0 2 C0 1.34 0 0.68 0 0 Z " fill="#548D4C" transform="translate(135,35)"/>
<path d="M0 0 C0.66 0.33 1.32 0.66 2 1 C1.25 2.9375 1.25 2.9375 0 5 C-2.125 5.75 -2.125 5.75 -4 6 C-4.33 4.68 -4.66 3.36 -5 2 C-2.625 0.9375 -2.625 0.9375 0 0 Z " fill="#528E4A" transform="translate(114,86)"/>
<path d="M0 0 C0.33 0.99 0.66 1.98 1 3 C1.66 3.33 2.32 3.66 3 4 C5.36841312 5.57894208 7.06745228 6.9754262 9 9 C8.01 9.495 8.01 9.495 7 10 C4.50175965 8.5023304 2.13995327 6.98441782 0 5 C-0.4375 2.1875 -0.4375 2.1875 0 0 Z " fill="#528948" transform="translate(94,29)"/>
<path d="M0 0 C0.66 0.66 1.32 1.32 2 2 C1.34 3.65 0.68 5.3 0 7 C0.99 7.33 1.98 7.66 3 8 C1.0625 8.5625 1.0625 8.5625 -1 9 C-1.33 8.67 -1.66 8.34 -2 8 C-1.28 1.28 -1.28 1.28 0 0 Z " fill="#0B190B" transform="translate(123,78)"/>
<path d="M0 0 C2.31 0.66 4.62 1.32 7 2 C6.01 2.99 5.02 3.98 4 5 C2.68 4.34 1.36 3.68 0 3 C0 2.01 0 1.02 0 0 Z " fill="#53904C" transform="translate(88,19)"/>
<path d="M0 0 C1.98 0.495 1.98 0.495 4 1 C3.67 2.32 3.34 3.64 3 5 C1.68 4.67 0.36 4.34 -1 4 C-0.67 2.68 -0.34 1.36 0 0 Z " fill="#F4F6F4" transform="translate(142,77)"/>
<path d="M0 0 C0.99 0.33 1.98 0.66 3 1 C3.33 3.31 3.66 5.62 4 8 C3.01 8 2.02 8 1 8 C1.33 6.35 1.66 4.7 2 3 C1.01 2.67 0.02 2.34 -1 2 C-0.67 1.34 -0.34 0.68 0 0 Z " fill="#9EA19D" transform="translate(77,73)"/>
<path d="M0 0 C2.475 0.495 2.475 0.495 5 1 C5.33 2.65 5.66 4.3 6 6 C5.01 6.33 4.02 6.66 3 7 C2 6 2 6 1.9375 3.4375 C1.958125 2.633125 1.97875 1.82875 2 1 C1.34 0.67 0.68 0.34 0 0 Z " fill="#529446" transform="translate(103,57)"/>
<path d="M0 0 C0.66 0.33 1.32 0.66 2 1 C-1.44615385 5.8 -1.44615385 5.8 -4.25 6.8125 C-5.11625 6.9053125 -5.11625 6.9053125 -6 7 C-4.19587357 3.73539027 -3.16605307 2.11070205 0 0 Z " fill="#528C4A" transform="translate(141,175)"/>
<path d="M0 0 C0.99 0.33 1.98 0.66 3 1 C0.36 2.98 -2.28 4.96 -5 7 C-5 6.01 -5 5.02 -5 4 C-2.6875 1.75 -2.6875 1.75 0 0 Z " fill="#071B05" transform="translate(58,37)"/>
<path d="M0 0 C0 0.66 0 1.32 0 2 C-2.97 2.66 -5.94 3.32 -9 4 C-8.67 3.01 -8.34 2.02 -8 1 C-5.07175348 0.02391783 -3.04386724 -0.08226668 0 0 Z " fill="#092307" transform="translate(53,98)"/>
<path d="M0 0 C2.31 0 4.62 0 7 0 C5.8125 1.5 5.8125 1.5 4 3 C1.3125 3.1875 1.3125 3.1875 -1 3 C-0.67 2.01 -0.34 1.02 0 0 Z " fill="#558A4C" transform="translate(147,94)"/>
<path d="M0 0 C2.64 0.66 5.28 1.32 8 2 C7.67 2.99 7.34 3.98 7 5 C4.0625 4.1875 4.0625 4.1875 1 3 C0.67 2.01 0.34 1.02 0 0 Z " fill="#091E07" transform="translate(124,91)"/>
<path d="M0 0 C0.99 0 1.98 0 3 0 C3 0.66 3 1.32 3 2 C2.01 2.495 2.01 2.495 1 3 C0.34444881 5.52733235 0.34444881 5.52733235 0 8 C-0.66 8 -1.32 8 -2 8 C-1.125 1.125 -1.125 1.125 0 0 Z " fill="#4A4C49" transform="translate(135,70)"/>
<path d="M0 0 C0 0.99 0 1.98 0 3 C-2.64 3 -5.28 3 -8 3 C-5.53387212 -0.1151089 -3.89156016 -0.31553191 0 0 Z " fill="#518F48" transform="translate(142,67)"/>
<path d="M0 0 C2.52259061 1.97420135 2.9929808 2.96745642 3.6875 6.1875 C3.790625 7.115625 3.89375 8.04375 4 9 C0.06153846 5.67692308 0.06153846 5.67692308 -0.25 2.25 C-0.1675 1.5075 -0.085 0.765 0 0 Z " fill="#508C49" transform="translate(88,25)"/>
<path d="M0 0 C0.66 0.33 1.32 0.66 2 1 C1.2884375 2.175625 1.2884375 2.175625 0.5625 3.375 C-0.33898023 4.88948678 -1.21179485 6.4235897 -2 8 C-2.99 8 -3.98 8 -5 8 C-3.8141763 4.62496331 -2.72426311 2.35277269 0 0 Z " fill="#2E5A29" transform="translate(97,19)"/>
<path d="M0 0 C1.98 0 3.96 0 6 0 C4.35 1.65 2.7 3.3 1 5 C0.34 4.01 -0.32 3.02 -1 2 C-0.67 1.34 -0.34 0.68 0 0 Z " fill="#538F4A" transform="translate(129,164)"/>
<path d="M0 0 C2.31 0.33 4.62 0.66 7 1 C6.67 1.99 6.34 2.98 6 4 C3.03 3.505 3.03 3.505 0 3 C0 2.01 0 1.02 0 0 Z " fill="#468D3C" transform="translate(48,100)"/>
<path d="M0 0 C0 0.66 0 1.32 0 2 C-5.41176471 6 -5.41176471 6 -8 6 C-6.56530686 1.69592058 -4.58010985 0 0 0 Z " fill="#081B07" transform="translate(61,57)"/>
<path d="M0 0 C1.32 0.99 2.64 1.98 4 3 C3.34 4.32 2.68 5.64 2 7 C1.01 7 0.02 7 -1 7 C-0.34 6.01 0.32 5.02 1 4 C1 3.34 1 2.68 1 2 C0.34 1.67 -0.32 1.34 -1 1 C-0.67 0.67 -0.34 0.34 0 0 Z " fill="#061B05" transform="translate(125,161)"/>
<path d="M0 0 C3.73487777 0.4979837 5.81237635 0.87491756 9 3 C7.3125 3.6875 7.3125 3.6875 5 4 C2.25 2.625 2.25 2.625 0 1 C0 0.67 0 0.34 0 0 Z " fill="#0C250A" transform="translate(68,88)"/>
<path d="M0 0 C0.99 0 1.98 0 3 0 C3 1.32 3 2.64 3 4 C3.66 4.33 4.32 4.66 5 5 C3.35 5 1.7 5 0 5 C0 3.35 0 1.7 0 0 Z " fill="#47873E" transform="translate(114,78)"/>
</svg>
