<svg xmlns="http://www.w3.org/2000/svg" viewBox="0 0 200 200"><path d="M142.7 61.5h-1.4c-19.2 0-30.6 12.1-38.4 22.6-3 4.1-5.8 8.3-8.4 12.4-5 7.8-9.8 15.1-15.4 20.4a30.8 30.8 0 0 1-21.5 8.6 25.4 25.4 0 0 1-17-43.5 25.4 25.4 0 0 1 18.1-7.5c2.8 0 6 .6 9.2 1.6.6.2 1.1.7 1.3 1.3a2 2 0 0 1-.3 1.9L52.3 103c-.5.7-.6 1.6-.2 2.4s1.2 1.2 2 1.2h9.4c1.3 0 2.5-.6 3.2-1.7l17.1-24.6c.7-1 1.1-2.1 1.4-3.3.2-1.2.2-2.4 0-3.5a8.5 8.5 0 0 0-4-5.6L79 66.7a43.4 43.4 0 0 0-20.6-5.2 38.8 38.8 0 0 0-27.7 65.3 38 38 0 0 0 26.4 11.7 43 43 0 0 0 29.2-11.4c7.8-6.8 13.9-15.7 18.9-23.5 3.9-6.1 7.6-11.8 11.6-16.5 1.4-1.7 2.8-3.1 4.2-4.4a28.3 28.3 0 0 1 20.3-8.3h1a25 25 0 0 1 17.4 7.7c3.9 4.1 6.5 9.6 7 15.3l.2 2.6a25.4 25.4 0 0 1-25.6 25.5c-3.5 0-6.9-.9-9.2-1.6-.6-.2-1.1-.7-1.3-1.3-.2-.7-.1-1.4.3-2l16.6-23.5c.5-.7.6-1.6.2-2.4a2.2 2.2 0 0 0-2-1.2h-9.4c-1.3 0-2.4.6-3.2 1.7l-17.1 24.4c-.7 1-1.1 2.1-1.4 3.3-.2 1.2-.2 2.4 0 3.5a8.5 8.5 0 0 0 4 5.6l2.1 1.2a43.4 43.4 0 0 0 20.6 5.2 38.3 38.3 0 0 0 38.6-38.4 38.5 38.5 0 0 0-37.2-38.6Z" style="fill:#6666fe"/></svg>