<svg xmlns="http://www.w3.org/2000/svg" width="48" height="48"><path fill="#650CF5" d="M0 0h48v48H0z"/><path fill="#5E6E23" d="M30 9c2.883 2.136 3.952 4.613 5 8 .125 2.813.125 2.813 0 5l1.938.563C39 24 39 24 39.938 27.188c.076 4.661-.71 6.755-2.938 10.812-3.843 2.562-7.047 2.331-11.5 2.313l-2.34.048c-5.677.005-5.677.005-7.857-1.65C13.128 35.855 13.058 32.485 13 29l.688-3.688c.7-3.418.7-3.418-1.688-5.937L10 17c.25-2.813.25-2.813 1-5 1.688-.75 1.688-.75 4-1 4.83 2.828 6.031 6.03 8 11l2 1-.656-1.793C21.578 13.359 21.578 13.359 22 9c3.35-1.117 4.673-.998 8 0"/><path fill="#AFE60F" d="M14 27h13l-1 5c-2.563 1.313-2.563 1.313-5 2 2.763-.523 5.326-1.109 8-2l2 3 6-1-3 6q-4.155.118-8.313.188l-2.38.076-2.295.029-2.11.048C16.417 39.896 15.553 38.943 14 37c-.927-3.343-1.591-6.818 0-10"/><path fill="#B5F00E" d="M12 11c3.288.178 4.709.726 7.125 3 2.384 3.815 3.637 7.696 4.875 12-6.862 0-6.862 0-9.902-2.672-4.123-5.16-4.123-5.16-4.036-9.265C11 12 11 12 12 11"/><path fill="#B7F10F" d="M30 9c2.143 1.661 2.908 2.591 3.512 5.262l.175 2.425.2 2.45L34 21l-3 1c-1.219 2.504-1.219 2.504-2 5l-2-1c-.563-2.18-.563-2.18-1-4.875-.572-3.505-.98-5.096-3-8.125V9c2.734-1.367 4.107-.847 7 0"/><path fill="#BCFA0E" d="M32 23c4.556.556 4.556.556 6 2 .141 2.67.042 5.324 0 8q-3.49.57-7 1c-1.895-1.895-1.18-4.571-1.23-7.09C30 25 30 25 32 23"/><path fill="#484636" d="M14.563 10.063C18 11 18 11 19.436 13.063L20 15l-2.25-1.563c-2.582-1.686-2.582-1.686-5.063-1.124L11 13c.567 4.13.567 4.13 2 8-3.875-1.875-3.875-1.875-5-3-.29-2.76-.319-4.437 1.063-6.875C11 10 11 10 14.563 10.062Z"/><path fill="#5619B5" d="m21 10 2 4 1.125 1.938C25.175 18.41 25.148 20.34 25 23c-3-1-3-1-4.25-3.125-.933-3.575-.455-6.28.25-9.875"/></svg>