<svg xmlns="http://www.w3.org/2000/svg" fill="none" viewBox="0.41 0.96 400 400"><path fill="url(#a)" d="M394.424 249.343c-26.716 107.143-135.246 172.349-242.414 145.63C44.887 368.261-20.327 259.737 6.401 152.601 33.104 45.446 141.634-19.766 248.771 6.946c107.161 26.712 172.368 135.248 145.653 242.397"/><path fill="#fff" d="M288.573 172.439c3.981-26.615-16.283-40.923-43.993-50.468l8.989-36.054-21.946-5.47-8.751 35.105c-5.769-1.438-11.695-2.794-17.583-4.138l8.813-35.335-21.933-5.47-8.995 36.042c-4.776-1.088-9.464-2.163-14.014-3.294l.025-.113-30.266-7.557-5.838 23.44s16.283 3.732 15.939 3.963c8.889 2.219 10.495 8.101 10.226 12.764l-10.238 41.073c.612.156 1.406.381 2.281.731-.731-.181-1.512-.381-2.319-.575l-14.351 57.538c-1.088 2.7-3.844 6.75-10.058 5.213.219.318-15.951-3.982-15.951-3.982l-10.895 25.121 28.559 7.12c5.313 1.331 10.52 2.725 15.645 4.038l-9.082 36.466 21.921 5.47 8.995-36.079a838 838 0 0 0 17.489 4.538l-8.963 35.91 21.946 5.469 9.082-36.398c37.423 7.082 65.564 4.226 77.409-29.621 9.544-27.253-.475-42.974-20.165-53.225 14.339-3.306 25.14-12.739 28.022-32.222m-50.143 70.314c-6.782 27.253-52.668 12.52-67.545 8.826l12.051-48.312c14.877 3.713 62.582 11.064 55.494 39.486m6.788-70.708c-6.188 24.79-44.38 12.195-56.769 9.107l10.927-43.817c12.388 3.088 52.286 8.851 45.842 34.71"/><defs><linearGradient id="a" x1="40.221" x2="365.17" y1="79.716" y2="330.506" gradientUnits="userSpaceOnUse"><stop stop-color="#B751FF"/><stop offset="1" stop-color="#9803FF"/></linearGradient></defs></svg>