<svg xmlns="http://www.w3.org/2000/svg" width="1024" height="1024"><path fill="#6B40E0" d="M494-.2h18.5c21 0 41.7.2 62.5 3.2l4 .5A509.3 509.3 0 0 1 821 103l1.7 1.3a489 489 0 0 1 34.4 29l6.7 6c4.6 4 9 8.3 13.3 12.6l2.3 2.3a240 240 0 0 1 12 13l6 6.6c4.7 5.3 9.2 10.7 13.6 16.2l1.6 2c9 11.3 17.4 23 25.4 35l1.4 2.2C987 300 1015 383.2 1022 468l.3 3.2c1 13 1 26 1 39v3.9c-.1 85.6-21.4 169.7-119.8 328-2.4 2.7-4.7 5.6-7 8.5-4 4.9-8.2 9.3-12.7 13.6-2.2 2.2-4.1 4.3-6.1 6.6-3.7 4.3-7.8 8.2-12 12l-2.2 2.2-6.5 6-1.7 1.6a369 369 0 0 1-23.7 20.2 501.5 501.5 0 0 1-81.7 53.4C696.6 995.8 636.2 1013 576 1021l-3.6.5a468.2 468.2 0 0 1-124.4-.5l-3.8-.5A499.8 499.8 0 0 1 318 987l-3.1-1.3a487.7 487.7 0 0 1-144.9-92c-2.1-2-4.3-3.8-6.6-5.8-5.3-4.6-10.3-9.6-15.3-14.7a282 282 0 0 1-24-25.5A469 469 0 0 1 102 820l-1.5-2A477 477 0 0 1 81 790l-1.5-2.3C32.7 714.5 5 629.7-.2 529v-18.5c0-21 .2-41.7 3.2-62.5l.5-3.8c7.2-54 22.8-106 46.5-155.2l1.3-2.8a446 446 0 0 1 64.2-99.3l6.8-8.3c10-12 21-23 32-34.1l1.8-1.7a299 299 0 0 1 22-20.4A517.4 517.4 0 0 1 255 68l2-1.1C323 28.8 396.7 6.4 494-.2"/><path fill="#FEFEFE" d="M518.4 153.2c4.1 1 4.3 1.3 6.5 4.6a157 157 0 0 1 9 16.8l1.5 3.3c22.6 48.3 34 100 34 153.3v3.5c-.2 50.9-12.6 98-32.3 144.7-1.2 2.3-1.2 2.3-1.1 3.6l2-2.6a488 488 0 0 1 39.2-44.7l2-2c4.4-4.4 9-8.6 13.8-12.7l3-2.6c59.5-51.4 138.8-85.3 217.8-86.8 2.2.4 2.2.4 4 1.5 1.8 2.8 1.6 4.7 1.2 7.9-7 16.7-20.8 32.3-32.3 46l-3.6 4.4c-6 7.6-12.7 14.5-19.6 21.3l-5.7 5.7a245 245 0 0 1-25.5 22.8A334 334 0 0 1 696 467l-2.7 1.7c-37.8 24-93.4 50.4-139.3 49.3v2h1.9c8-.3 15.6.8 23.5 2.2l2 .3c28.5 5 56 12.8 82.6 24.5l2.2 1a253.5 253.5 0 0 1 56.2 33.5c6 4.5 11.6 9.1 17 14.2l6.3 5.5a237.4 237.4 0 0 1 34.2 36.2 342 342 0 0 1 23.4 32 692 692 0 0 0 7.7 11.5l1.3 2a14 14 0 0 1 2.7 8.9c-1.1 3.6-1.8 4.3-5 6.2-2.2.4-2.2.4-4.6.4h-5.8l-3-.1C728 697 656.2 675.9 602 633l-2.5-2-7.5-6-3-2.4a320 320 0 0 1-21.8-20.2l-2.7-2.6a230 230 0 0 1-19.3-22c-5.9-7-11.1-14.2-16.2-21.8l4.8 14.4A380 380 0 0 1 550 631l.6 3.2c3.1 19 3.8 37.9 3.8 57.1v3.4c0 14.2-.6 28.2-2.4 42.3l-.3 2.1c-.6 4.6-1.2 9.1-2 13.6l-.3 2.1A364.3 364.3 0 0 1 516 858.6l-1.4 2.8c-3.2 6.3-3.2 6.3-6.6 8.6-3 .4-3 .4-6 0-4.3-4.3-6.3-9.8-8.7-15.3l-1.3-3a345 345 0 0 1-23.5-78c-.4-2.7-.4-2.7-1.5-4.7a336.4 336.4 0 0 1-1-117l.4-2.9A386.2 386.2 0 0 1 495 553l-2.2 3.3A288 288 0 0 1 472 583l-2 2.2-5 5.8-1.8 2.1a246 246 0 0 1-32.6 31.8l-7 6c-8.6 7.5-18 13.8-27.6 20.1l-2 1.3a360 360 0 0 1-98 43.7l-2.5.8a282 282 0 0 1-34.4 7.5l-2.3.3a231.4 231.4 0 0 1-38.4 3.6l-2.9.1h-5.3c-2.7-.4-3.6-1.1-5.2-3.3-.8-5.2 1-8.6 3.8-12.8l1.2-2a408 408 0 0 1 56.7-70l2.1-2.2c4.6-4.5 9.3-8.8 14.2-13l3-2.6c51.1-44.2 117.4-75.1 185-81.4-.7 0-1.4-.2-2-.3A346.6 346.6 0 0 1 342 481l-2.4-1.3A324.5 324.5 0 0 1 290 446l-1.7-1.4A340 340 0 0 1 249 407l-1.3-1.5A351 351 0 0 1 216 363l-1.1-1.7c-7.2-11.2-7.2-11.2-5.9-17.3 1.6-2.2 2.5-3 5.2-3.4h12.5C298.2 341.9 370 371 425 416l1.6 1.3A317.7 317.7 0 0 1 467 456l2.5 3c6.7 7.6 12.7 15.6 18.5 24l-.8-2.3c-15.7-44.7-15.7-44.7-19.8-67.5l-1.4-7a265.7 265.7 0 0 1-5.4-58.9v-2.8c0-18 1.7-35.6 4.4-53.5l.4-2.6c.7-4.8 1.6-9.6 2.6-14.4l.6-3c7.6-36.2 20-70.3 37-103.1l1.4-2.9c5.6-10.4 5.6-10.4 11.4-11.8"/><path fill="#8E6DE7" d="m495 552 1 2c-.8 2.2-.8 2.2-2 4.6l-1 2.5-1 1.9-3-1c1.7-3.6 3.8-6.7 6-10"/></svg>