<svg xmlns="http://www.w3.org/2000/svg" width="180" height="180" fill="none"><path fill="#000" d="M90 180c49.706 0 90-40.294 90-90S139.706 0 90 0 0 40.294 0 90s40.294 90 90 90Z"/><path fill="#fff" fill-rule="evenodd" d="M95 24H85v22.281C63.054 48.763 46 67.391 46 90c0 22.61 17.054 41.237 39 43.719V156h10v-22.281c21.946-2.482 39-21.109 39-43.719s-17.054-41.237-39-43.719V24ZM85 56.365C68.593 58.783 56 72.921 56 90c0 17.079 12.593 31.217 29 33.635v-67.27Zm10 67.27v-67.27c16.407 2.418 29 16.556 29 33.635 0 17.079-12.593 31.217-29 33.635Z" clip-rule="evenodd"/></svg>