<svg xmlns="http://www.w3.org/2000/svg" width="512" height="512" fill="none" viewBox="165 165 220 220"><path fill="#000" d="M0 0h550v550H0z"/><g clip-path="url(#a)"><path fill="#fff" d="M355 195H195v87.253c0 27.576 17.663 52.051 43.834 60.74L275 355l36.166-12.007c26.171-8.689 43.834-33.164 43.834-60.74z"/><path fill="#fff" stroke="#000" stroke-width="13.12" d="M336.441 213.56v67.733c-.001 19.579-12.542 36.956-31.123 43.125L275 334.483l-30.317-10.065c-18.437-6.12-30.926-23.275-31.12-42.666l-.002-.459V213.56z"/><path fill="#000" d="M305.982 286.055c0 11.128-8.537 19.712-23.364 21.764a.324.324 0 0 0-.28.318v7.823a.32.32 0 0 1-.32.32h-14.464a.32.32 0 0 1-.32-.32v-7.925a.324.324 0 0 0-.277-.318c-14.386-2.126-22.798-10.292-23.05-22.13a.32.32 0 0 1 .318-.325h15.514c.172 0 .313.139.322.311.39 7.999 3.982 11.284 14.986 11.284 10.416 0 14.165-2.181 14.165-8.523 0-5.054-2.291-6.739-9.791-8.324l-13.437-2.676c-13.749-2.676-21.04-9.216-21.04-19.126 0-10.927 8.429-19.214 22.019-21.461a.32.32 0 0 0 .271-.317v-7.83a.32.32 0 0 1 .32-.32h14.464a.32.32 0 0 1 .32.32v7.932c0 .156.114.29.268.317 13.16 2.318 21.756 10.187 22.017 21.53a.32.32 0 0 1-.318.324h-15.521a.326.326 0 0 1-.322-.303c-.593-7.99-4.373-10.697-14.249-10.697-9.791 0-13.228 2.181-13.332 8.424 0 4.459 1.874 6.739 9.999 8.225l12.812 2.378c14.687 2.676 22.29 9.316 22.29 19.325"/><path fill="#000" stroke="#000" stroke-width=".32" d="M267.16 195.16h15.36V215h-15.36zm0 139.84h15.36v19.84h-15.36z"/></g><defs><clipPath id="a"><path fill="#fff" d="M195 195h160v160H195z"/></clipPath></defs></svg>