<svg xmlns="http://www.w3.org/2000/svg" xml:space="preserve" viewBox="-869.9 0 1949.9 1080"><rect width="100" height="100" x="-50" y="-50" fill="none" rx="0" ry="0" style="stroke:none;stroke-width:1;stroke-dasharray:none;stroke-linecap:butt;stroke-dashoffset:0;stroke-linejoin:miter;stroke-miterlimit:4;fill:#fff;fill-opacity:0;fill-rule:nonzero;opacity:1" transform="translate(-820 50)" vector-effect="non-scaling-stroke"/><path d="M0 0h161v320L6 321l-3 2v10l-1 4v47h-97a1641 1641 0 0 1-18-78l-5-21a1408 1408 0 0 0-15-70l-3-4h-7c-3 3-2 5-2 8v16a9682 9682 0 0 1 0 26v18a28963 28963 0 0 0-1 70v101h-161V130l149-1c3-3 3-3 3-5a153 153 0 0 0-5-23v-3l-4-17-1-3-1-4-1-2v-8h3a35723 35723 0 0 0 153-1h4c3 0 3 0 6-3L0 0Z" style="stroke:none;stroke-width:1;stroke-dasharray:none;stroke-linecap:butt;stroke-dashoffset:0;stroke-linejoin:miter;stroke-miterlimit:4;fill:#15a800;fill-rule:nonzero;opacity:1" transform="translate(566 298)" vector-effect="non-scaling-stroke"/></svg>