<svg xmlns="http://www.w3.org/2000/svg" width="128" height="128" fill="none" viewBox="0 0 128 128"><mask id="a" width="128" height="127" x="0" y="0" maskUnits="userSpaceOnUse" style="mask-type:luminance"><path fill="#fff" d="M127.555.111H.938V126.73h126.617z"/></mask><g mask="url(#a)"><mask id="b" width="128" height="127" x="0" y="0" maskUnits="userSpaceOnUse" style="mask-type:luminance"><path fill="#fff" d="M127.547.113H.93V126.73h126.617z"/></mask><g mask="url(#b)"><path fill="#0C1013" d="M64.239 126.73c34.964 0 63.308-28.344 63.308-63.308 0-34.965-28.344-63.31-63.308-63.31C29.274.113.929 28.458.929 63.423c0 34.964 28.345 63.308 63.31 63.308"/><path fill="#FC6521" fill-rule="evenodd" d="M64.243 113.278c27.534 0 49.856-22.321 49.856-49.856 0-27.534-22.322-49.855-49.856-49.855S14.387 35.888 14.387 63.423c0 27.534 22.321 49.855 49.856 49.855m0 5.54c30.594 0 55.395-24.801 55.395-55.395S94.837 8.026 64.243 8.026 8.848 32.83 8.848 63.423s24.801 55.395 55.395 55.395" clip-rule="evenodd"/><path fill="#fff" d="M82.803 44.502c-2.819-6.546-9.31-7.934-17.262-6.58l-2.55-10.111-6.02 1.593 2.515 10.077c-1.577.411-3.203.754-4.814 1.217l-2.516-10.026-6.022 1.594 2.55 10.111c-1.292.377-12.145 3.222-12.145 3.222l1.66 6.58s4.43-1.268 4.379-1.165c2.449-.65 3.606.6 4.143 1.783l7.012 27.71c.083.806-.05 2.177-1.745 2.64.1.051-4.378 1.148-4.378 1.148l.654 7.678s10.753-2.811 12.161-3.17l2.584 10.23 6.022-1.594-2.583-10.3c1.66-.393 3.27-.805 4.83-1.216l2.567 10.248 6.022-1.594-2.583-10.213c9.275-2.297 15.817-8.278 14.476-17.412-.856-5.501-6.744-10.025-11.642-10.54 3.02-2.724 4.546-6.7 2.685-11.91M79.9 68.615c1.191 9.048-11.104 10.162-15.18 11.242l-3.54-13.539c4.093-1.08 16.708-5.672 18.72 2.297m-7.414-18.423c1.275 8.037-9.26 8.98-12.648 9.871l-3.22-12.288c3.405-.873 13.285-5.038 15.868 2.417"/></g></g></svg>