<svg xmlns="http://www.w3.org/2000/svg" fill="none" viewBox="0.78 0 71.94 73.88"><path fill="url(#a)" d="M35.06 0A37.84 37.84 0 0 0 4.9 14.81a28.33 28.33 0 0 1 16.75-5.43c15.52 0 28.1 12.34 28.1 27.56 0 15.22-12.58 27.56-28.1 27.56A28.33 28.33 0 0 1 4.9 59.06a37.85 37.85 0 0 0 30.16 14.82c20.8 0 37.66-16.55 37.66-36.94C72.72 16.54 55.86 0 35.06 0Z"/><path fill="url(#b)" d="M16 37c0-8.51 7.04-15.41 15.72-15.41a16 16 0 0 1 3.75.44 20.82 20.82 0 0 0-14-5.37C10.04 16.66.78 25.74.78 36.94c0 11.2 9.26 20.27 20.67 20.27 5.31 0 10.15-1.96 13.81-5.2-1.14.27-2.33.4-3.55.4-8.68 0-15.72-6.89-15.72-15.4Z"/><defs><linearGradient id="a" x1="38.81" x2="38.81" y1="0" y2="73.88" gradientUnits="userSpaceOnUse"><stop offset=".34" stop-color="#AB97FB"/><stop offset="1" stop-color="#C7BAFC"/></linearGradient><linearGradient id="b" x1="18.13" x2="18.13" y1="16.66" y2="57.21" gradientUnits="userSpaceOnUse"><stop stop-color="#C7BAFC"/><stop offset=".77" stop-color="#AB97FB"/></linearGradient></defs></svg>