<svg xmlns="http://www.w3.org/2000/svg" width="200" height="200" fill="none"><path fill="#fff" d="M0 100C0 44.772 44.772 0 100 0s100 44.772 100 100-44.772 100-100 100S0 155.228 0 100Z"/><path fill="#FF0420" d="M100 0C44.772 0 0 44.772 0 100s44.772 100 100 100 100-44.772 100-100S155.228 0 100 0Zm0 150.916v41.758c-39.651 0-71.795-32.144-71.795-71.795S60.35 49.084 100 49.084V7.326c39.651 0 71.795 32.144 71.795 71.795S139.651 150.916 100 150.916Zm34.432-51.236v.64c-15.177 7.564-26.548 18.935-34.112 34.112h-.64c-7.564-15.177-18.935-26.548-34.112-34.112v-.64c15.177-7.564 26.548-18.935 34.112-34.112h.64c7.564 15.177 18.935 26.548 34.112 34.112Z"/></svg>
