<svg xmlns="http://www.w3.org/2000/svg" width="200" height="200" fill="none"><path fill="#fff" d="M0 100C0 44.772 44.772 0 100 0s100 44.772 100 100-44.772 100-100 100S0 155.228 0 100"/><path fill="#FF0420" d="M100 0C44.772 0 0 44.772 0 100s44.772 100 100 100 100-44.772 100-100S155.228 0 100 0m0 150.916v41.758c-39.651 0-71.795-32.144-71.795-71.795S60.35 49.084 100 49.084V7.326c39.651 0 71.795 32.144 71.795 71.795S139.651 150.916 100 150.916m34.432-51.236v.64q-22.766 11.346-34.112 34.112h-.64q-11.346-22.766-34.112-34.112v-.64Q88.334 88.334 99.68 65.568h.64q11.346 22.766 34.112 34.112"/></svg>