<svg xmlns="http://www.w3.org/2000/svg" xml:space="preserve" viewBox="0 0 500 500"><path fill="#09090E" d="M334 501H1V1h500v500zM153.1 350.7l3.4 3.2c.2 0 .4 0 .8.8 1.2 1.3 2.3 2.8 3.7 4a143.4 143.4 0 0 0 73.8 31.3l8.5.4c23.4.8 46-3 67.6-14.1 4.4-2.4 9-4.4 13-7.1a138 138 0 0 0 60.5-82c5.2-20 6.8-40 2.6-60.2-1-5.4-2.7-10.7-3.7-16.6-3.5-8.7-6.5-17.7-10.8-26a124.3 124.3 0 0 0-32.7-40c-5.6-4.1-11-8.5-16.9-12.1-4.4-2.8-9.3-4.7-14.4-7.4l-2.8-1.8c-12-5.9-24.9-8.5-38-10.6-1.7-.3-3.7.4-6.3.4-.4 0-.9 0-1.8-.6-9.5.2-19 0-28.5.7-5.4.4-10.8 2.4-17 3.6a91.4 91.4 0 0 0-33.4 13.9c-.2.2-.4.5-1.3.7-.8.4-1.5.8-2.8 1.2l-1.7 1.7h-.5c-1.1.8-2.2 1.6-4 2.4L164 142h-.8c-.5.3-1.2.5-1.7.9a138.2 138.2 0 0 0-51 104c-.4 9.5 1.8 19.3 2.8 29.6.1.5.2 1 0 2.3 5.3 26.8 17.4 50 37.1 69.7.8.6 1.7 1.1 2.7 2.2"/><path fill="#D72146" d="M383 210.9c1.3 5.4 3 10.7 4 16.1 4.2 20.3 2.6 40.2-2.6 60.1a138 138 0 0 1-60.4 82 83 83 0 0 1-13.5 6.8c-.4-.5-.5-.8-.3-1.2 1-.7 1.7-1 2.4-1.6l26.8-18.3c.8-2.3 2-4.4 1.9-6.4-.6-5-2.1-10-2.8-15.1-.4-2.8 0-5.7.2-8.5l2-.2c1 1.7 2.5 3.3 3.3 5.2 1.4 3.3 2.3 6.9 3.7 10.2.7 1.7 1.1 4.9 4.6 2 2.7-3 5.4-5.4 7.5-8.4 9-13.1 17.2-26.6 20.5-42.8a7 7 0 0 0 1.6-2.2c.3-2.8.6-5.2 1.2-8 .9-7.7 2.6-15.3 2-22.7-.6-7.6-3-8.4-10.5-7.2-6.9 1.2-10.5-.1-11.3-7-1-8.3 0-17 .5-25.6 0-1.4 2.1-3.5 3.5-3.7 5.5-1 8.8-5 12.8-8.2z"/><path fill="#ED671F" d="M177.1 132.4c.8-.4 1.5-.8 2.7-1l1.4.7v-1.6c1-.7 2-1.4 3.4-1.7 1 2.3 2.4 5.6 1.8 6-4 2.7-3 6.6-3.7 10.3l-13.1 1.4c-1 .1-2.3.5-3 1.2-.3.4 0 2 .6 2.6.8 1.2 2 2.2 3.1 3.2 5.9 4.9 11.8 9.7 17.7 15 0 2.7 0 5.1-.4 7.5-4.3 1-8.1 1.7-11.8 3-4.3 1.4-8.5 3.3-13.2 5-4.1-2.2-8.2-4.1-11.6-6.8-1.7-1.3-3.3-4.4-2.9-6.2.5-1.7 3.5-3.6 5.6-3.8 5.2-.6 10.5 0 15.8-.3 2.6-.1 5.2-1.2 7.8-1.8-1.6-2.1-2.8-4.7-4.8-6.3-4.6-3.5-9.6-6.5-14.3-10l5.7-6.8h.4l7.7-4.9c1.2-1 2.1-2 3-3h.3z"/><path fill="#DB341C" d="M215 116.7c5.3-1.3 10.7-3.3 16.1-3.7 9.5-.8 19-.5 28.7-.3.2.3 0 .5-.3.5a25 25 0 0 0-3.8 3c-1.9 1.8-3.4 4.1-5.5 5.3-6 3.5-7 8-2.2 13.9a64 64 0 0 1-3.1 8.4c-1-1.2-2.3-2.5-2-3.3 2-6-1.9-9.3-5.4-12.8-3-3-6.6-5.5-9.3-8.7-2.7-3.3-5-4-8.6-1-1.8 0-3.1 0-4.5-.3z"/><path fill="#B2651F" d="M163.6 142a87 87 0 0 1-5.6 7l-2.6 3c-5.2 5.3-10.4 10.2-14.7 15.8a115.7 115.7 0 0 0-23.5 49.8c-1.8 9.6-3.9 19.2-5 28.9-.5 4.4 1 9 1.6 14l.1 5-.5 10.3c-1-9.6-3.3-19.4-3-29 1.6-42 19.1-76.6 51.1-103.9.5-.4 1.2-.6 2.1-1z"/><path fill="#E6231A" d="M245.1 144c1-2.7 2-5.5 2.8-9-.3-2.4-1.2-4.1-.8-5.5.4-1.7 1.8-4 3-4.3 8.8-1.8 10-3.1 9.8-12l.1-.2c.5-.1 1-.1 1.8.3a5 5 0 0 1 1.3 2.2c0 5.5 0 10.5-.4 15.6-.7.7-1.2 1.3-1.7 2.3-.3 2.1-.6 3.9-1.2 5.8-4.4 3-8.5 5.9-12.7 8.5l-2-3z"/><path fill="#D03445" d="m310 375 .1 1a127.7 127.7 0 0 1-75.7 13.6c-.4-1.1-.4-1.8 0-2.5l16 1.8 19-2.9c4.4-.4 9 1.4 11.8-3-1.5-2.6-2.8-4.8-3.9-7.2 1-.3 1.9-.5 2.7-.4.7 1.4 1.4 2.5 2.5 3.6l7.7-.1c8.1-1.9 8.3-2.1 7.2-8.7 1 1 2 1.7 2.4 2.6 1.5 3.8 3.9 4.4 7.5 2.2z"/><path fill="#DB5D1F" d="M214.5 116.7c.5.2.5.5.5 1.3 0 .5 0 1-.4 1-4 3-9.8 3.4-11 9.1-.2.7-1.5 1.4-2.4 1.4-7 .5-8.6 2.2-10.5 9.4-.9 3.6-2.3 7.6-7.6 6.1.2-3.6-.8-7.5 3.3-10.2.6-.4-.8-3.7-1.4-6a73.4 73.4 0 0 1 29.5-12.1"/><path fill="#E6231A" d="M157 354c-.1 0-.3 0-.7-.6.1-1.4.3-2.3.7-3.5.4-.8.7-1.4 1.3-2.1l19-15c6-2.4 7.8-1.8 7.4 2-.4 4.8-5.4 9.8-9.8 11.4-3.6 1.2-6.6 3.8-10.2 5.8l-2 1.1-3.1 1h-2.5z"/><path fill="#C5332E" d="M157.2 354.3c.6-.2 1.3-.2 2.5 0l2.4 2 10.8 7.2a28 28 0 0 0 2.3 2.8c3 1.8 5.6 3.6 8.4 5 5.3 2.5 10.8 4.6 16.5 7.2 8.8 2.7 17.3 5.1 26.3 7.7l7.6.9v2.4c-27.3-3-51.6-13.6-73-30.9-1.4-1.1-2.5-2.6-3.8-4.3"/><path fill="#B62B45" d="M383.1 210.6a24 24 0 0 1-3-4.7l-5-9.4a71.8 71.8 0 0 0-17-29c-5.7-6.4-11.4-12.4-17.2-18.8l-1.8-2v-1l1-.7c13.6 10.8 24.6 24 32.4 39.4 4.3 8.3 7.3 17.3 10.6 26.2"/><path fill="#B2651F" d="M150.2 348a126.7 126.7 0 0 1-36.5-69.5c1.3.7 2.1 1.7 3 2.9l.2 1c2.3 8 4.6 15.3 7 23 1.5 2.8 2.8 5.2 4 8 1 1.8 2 3.2 2.9 5 .8 2 1.2 3.9 2.3 5.3 5.8 8 11.8 15.8 17.5 23.8z"/><path fill="#ED671F" d="M116.7 281.1c-.9-1-1.7-2-2.9-3-.3-.6-.4-1-.4-2 .2-3.6.3-6.9 1-10.6 2.2-1 4.1-1.5 6-2 4.2-1 6.3.8 4.5 4.6-2.1 4.6-5.4 8.7-8.2 13"/><path fill="#C5332E" d="M340 144.7c-.2.4-.4.6-1 .8-5-3.3-9.5-6.7-14.2-9.7-3.2-2.2-6.3-2-9.3 1-1.6 1.5-4.3 2-6.4 2.8.6-1.6.8-3 1.7-4 3.7-3.8 3.2-6.6-1.9-8.9v-1.3c4.7 2.2 9.6 4.1 14 6.9 5.9 3.6 11.3 8 17 12.4zM263.2 115l-1-1.7c1.8-.4 3.8-1.1 5.6-.8 13 2.1 26 4.7 38 11.1-2.6 1.5-5 2.4-7.4 3 2.6-5.4-2-4.6-4.8-5.6a378 378 0 0 0-21-5.1h-2z"/><path fill="#E6231A" d="m298.2 127 7.7-3.1a6 6 0 0 1 2.8 1.2c.2.6.2 1 0 1.8a37 37 0 0 1-4.2 3.3l-2.6 1.7-1.4.3-5.2.3 2.7-5.4.2-.2z"/><path fill="#B2651F" d="M171.8 137.2a140 140 0 0 1-7.5 4.7c1.8-1.8 4-3.6 6.6-5.2.5.1.9.5.9.5"/><path fill="#DB5D1F" d="M172 137.1c-.2.1-.6-.3-.7-.4.9-1 2-1.8 3.4-2.6q-.9 1.5-2.7 3"/><path fill="#C5332E" d="m156.9 350.2-.8 3c-1-.6-2-1.6-3-2.9 0-.4.1-.6.5-.5zm-3.9-.2c-1-.4-1.8-1-2.7-1.7-.1-.3.2-.6.6-.6 1 0 1.5.2 2.1.6l.2 1.4z"/><path fill="#DB5D1F" d="M181 130.5c.2.5.2 1 .2 1.6l-1.1-.7c.2-.4.4-.7 1-.9z"/><path fill="#B2651F" d="M176.8 132.4a4 4 0 0 1-1.5 1.6c.2-.6.7-1.1 1.5-1.6"/><path fill="#EA3D62" d="M310.2 374.7c-1 .3-1.7.3-2.9 0-1-2.5-1.7-4.6-2.4-7-.1-4-1-7.6 0-10.7 3-11.1 6.7-22 10.4-33.2l2.5-1.4c7-4.9 7.9-4.4 11.2 3.6 1.4 3.6 4 6.7 6 10.4l4.1 18.6-26.5 18.1z"/><path fill="#E8336A" d="M380 291c-3 16-11.3 29.5-20.2 42.6-2 3-4.8 5.5-7.8 8.1a69 69 0 0 1-3.7-12.8c1.7-1.8 3.6-3.3 4.2-5.3 2.2-6.9 3-14.3 5.9-20.9 5.3-12.1 9.9-24.1 7.6-38 0-1.6 0-2.6.4-3.7 10.3.9 14 4.8 14.7 14.7 0 1.8 1.1 3.5 1.8 5.3-.4 2.4-.7 4.8-1.3 7.7l-1.5 2.3z"/><path fill="#E62E4D" d="M383 280.7c-.8-1.5-1.8-3.2-2-5-.6-9.9-4.3-13.8-15-14.7-3.8-.7-7-1-9.9-2-3.2-1.3-6-3.3-9.2-5.4-2.4-4-4.6-7.8-6.7-12 2.4-4.3 1.3-10.3 7-12.3 4.7 3.4 7.7 3 10-1.5a12 12 0 0 0 1-7.6c-.7-3 .4-4 2.4-6 4.3-4.3 7.6-9.4 11.5-14.5 1.1-1.2 2.2-2 3.2-2.8l4.6 8.7c-3.8 3.7-7 7.8-12.6 8.8-1.4.2-3.4 2.3-3.5 3.7-.5 8.6-1.6 17.3-.5 25.7.8 6.8 4.4 8 11.3 7 7.5-1.3 9.9-.5 10.5 7s-1.1 15-2 22.9z"/><path fill="#E73450" d="M348 329c1.1 4.2 2.3 8.4 3.7 12.9-2.9 3-3.3-.2-4-1.9-1.4-3.3-2.3-6.9-3.7-10.2-.8-1.9-2.2-3.5-3.3-5.2l-2 .2c-.1 2.8-.6 5.7-.2 8.5.7 5 2.2 10 2.8 15 .2 2-1 4.2-2 6.5-1.5-5.9-2.9-12-4.3-18.8-1.2-5.3-2.6-9.8-3-14.3-.4-3.3.5-6.6.9-9.9 3 .8 6 1.5 9.1 2.6z"/><path fill="#E62E4D" d="M380.3 290.8c.2-.4.6-1 1.3-1.7-.2.5-.6 1-1.3 1.7"/><path fill="#F08226" d="m155.6 151.8 2.2-2.5c5 3 10 6 14.7 9.5 2 1.6 3.2 4.2 4.8 6.3-2.6.6-5.2 1.7-7.8 1.8-5.3.3-10.6-.3-15.8.3-2.1.2-5.1 2.1-5.6 3.8-.4 1.8 1.2 4.9 3 6.2 3.3 2.7 7.4 4.6 11.5 7.2.4 1.1.4 1.9 0 2.6-2.4-.8-4.4-2-6.4-2.1-1.7 0-4.4 1-4.8 2.3-3.6 9.4-6 19.4-10.3 28.4-5 10.2-6 19 2.4 27.5.3.2.3.6.2 1-2.4-.3-4.4-.8-6.5-1.4l-5.6-1.6c-2.4.3-4.5.7-6.5.6 2.8-4.9 4.1-9.4 2.3-15-.9-2.5.6-6 1.6-9 1.4-4.4 4.5-8.6 4.6-13 .2-8.1 2.4-15.4 5.4-22.9 3.4-8.9 7.6-16 17.6-18.5 2.3-.5 3.9-3.8 5.8-5.8z"/><path fill="#EC5A1D" d="M182.7 145c5.7 1.5 7.1-2.5 8-6.1 1.9-7.2 3.5-8.9 10.5-9.4.9 0 2.2-.7 2.3-1.4 1.3-5.7 7.2-6 11.3-8.8a21 21 0 0 1-3.4 7.4c-2.2 2.7-5.2 4.7-7.3 7.4-4.6 5.9-4 7.7 2.6 11.1-3.7 2-7 4.4-10.7 5.8-3.6 1.3-4.2 4.3-6 7-2.8 4.6 1 5.8 2.6 8.3.5.8.6 1.7 1 3.5L188 168l-17.7-14.5c-1.1-1-2.3-2-3.1-3.2-.5-.7-.9-2.2-.5-2.6.6-.7 1.8-1 2.9-1.2l13-1.4z"/><path fill="#EC5D26" d="M188 168.4c1.6.1 3.3.6 5.7 1.4-.5-1.8-.6-2.7-1-3.5-1.7-2.5-5.5-3.7-2.6-8.2 1.7-2.8 2.3-5.8 6-7.1 3.6-1.4 6.9-3.7 11-5.8 5.5.8 10.2 1.8 14.9 3.2 0 .7 0 1.2-.4 1.6a31.3 31.3 0 0 0-21.2 3c-1.7.7-3 2-4.6 3.1 1.4 1.3 2.7 2.8 4.2 3.8 3 2.1 6.4 3.6 9.1 6 2.5 2.1 2.8 5.5-.3 7.1-5.2 2.7-10.3 6.6-17.1 3.9l-3.7-1z"/><path fill="#EF742D" d="M187.6 176c1.5.2 2.6.5 4 1.3.4 1.2.4 2 0 2.7-4.5.3-8.7.1-12.5 1.2-4.2 1.3-8 3.8-12.5 5.8H163v-2.6c4.3-2 8.5-4 12.8-5.4 3.7-1.3 7.5-2 11.8-3"/><path fill="#EA4423" d="M244.9 143.8c.2.2.2.7-.3 1-4.2 1-8.4 1-11.6 2.8-3.6 1.9-6.5 2.8-10 0-2.9-3-5.7-5.4-8.1-8.3-4.2-5-3-8.8 3-11 7-2.6 7.4-4.4 2.1-10.3 3.1-3 5.5-2.3 8.2 1 2.7 3.2 6.2 5.8 9.3 8.7 3.5 3.5 7.3 6.8 5.3 12.8-.2.8 1.2 2.1 2 3.3z"/><path fill="#EB501F" d="M219.6 118c5.7 5.9 5.3 7.7-1.7 10.3-6 2.2-7.2 6-3 11 2.4 3 5.2 5.4 7.8 8.4-.4.3-.5.3-.7.3l-14.6-3c-7.3-3.2-7.9-5-3.3-10.9 2.1-2.7 5.1-4.7 7.3-7.4 1.7-2 2.6-4.7 3.7-7.4v-1a27 27 0 0 1 4.5-.3"/><path fill="#E62920" d="M259.5 113.2c.7 8.9-.6 10.2-9.3 12-1.3.3-2.7 2.6-3.1 4.3-.4 1.4.5 3.1.8 5.1-4.7-5.1-3.8-9.6 2.3-13 2.1-1.3 3.6-3.6 5.5-5.4 1.1-1 2.3-2 3.8-3"/><path fill="#F08A25" d="M155.4 152c2.5 1.7 4.7 3.6 7 5.5-2 2-3.5 5.3-5.8 5.8-10 2.6-14.2 9.6-17.6 18.5-3 7.5-5.2 14.8-5.4 23-.1 4.3-3.2 8.5-4.6 13-1 2.9-2.5 6.4-1.6 9 1.8 5.5.5 10-2.4 15.3-1.4 3.7-2.7 6.8-4.3 10l-7 8c-.5-4.6-2-9.2-1.5-13.6 1.1-9.7 3.2-19.3 5-28.9 3.3-18.7 12.1-34.9 23.5-49.8 4.3-5.6 9.5-10.5 14.7-15.8"/><path fill="#F08226" d="M113.8 260.5c2.2-3 4.4-5.6 7-8 1.4 2.9 3 3.7 5.7 2.1 1.4-.7 3-1.1 4.8-1.6 1.8 3.1 3.3 6 4.7 9.3 0 .8 0 1.3-.3 1.6-1.9.7-4 1-4.8 2.2-2 2.7-2.9 6.2-5 8.6-2.5 2.9-6 5-9 7.3l-.1-.6c2.7-4.6 6-8.7 8.1-13.3 1.8-3.8-.3-5.6-4.4-4.6l-6.2 1.5c-.4-1.3-.5-2.7-.5-4.5"/><path fill="#ED5B37" d="M222 148.4c.2-.4.3-.4.8-.4 3.7 2.4 6.6 1.5 10.2-.4 3.2-1.8 7.4-1.8 11.6-2.6 1 .8 1.7 1.6 2.4 3 .1 1.8.1 2.9-.1 4.3-.8 2.4-1.4 4.5-2.3 6.8-3.3 1-4.4 3-4 6.1.3 4.2.3 8.5 0 12.8-1.6.8-2.8 1.6-4 2.4l2.5 3.9c0 .2 0 .7-.4.8a51.6 51.6 0 0 0-5.8 5.3c-2.7 4.7-5.3 9.1-8.3 13.6-2 1.7-3.9 3.3-5.7 4.6-1.1-1.3-2.3-3-3.3-3-4.7.1-5.1-2-3.3-5.4 2.7-.9 6-1.1 7.4-2.8 3-4 5.3-8.8 7.7-13.3.6-1 .6-2.6.5-3.9-.2-2.6-1.9-3.8-4-2.1-3 2.3-5.3 5.2-8.3 8-1.1-.1-1.9-.1-2.6-.5 0-1.5 0-2.5.4-3.7 3-3.1 7.2-5.4 5.4-10.7-.3-.9.8-2.4 1.7-3.3 2.9-3 6.1-5.9 9-9 2-2 1.1-3.7-1.4-5-2.2-1-4-2.5-6.1-3.9z"/><path fill="#E62920" d="M247.1 152v-3.6c4.2-3.3 8.3-6.1 13-9 4.2 2 4.8 5.3 3.7 9.2l-2 7.7c-.6 1-1.2 2-2 2.9l-10 8.6-2-1.2c1-3.2 2-6.4 3.2-9.5 1.7-4.5 1-5.3-3.9-5.1"/><path fill="#E9392A" d="M262 156c.5-2.5 1.1-5 1.8-7.4 1.1-3.9.5-7.1-3.5-9.5 0-1.8.4-3.6 1-5.8l1.7-2.3.1-15.5c2.4-.2 4.8 0 7.4.8-.1 5-.8 9.5-.9 14-.2 9.4-2.2 18-7.7 25.7z"/><path fill="#E62920" d="M262.7 131.1c-.2.5-.7 1-1.4 1.8.2-.5.7-1 1.4-1.8"/><path fill="#E8393F" d="M269 386c-6 1-12.1 2-18.5 2.6 1-4.1 1.3-7.4-1.4-11-2.3-3.1-3-7 0-10.6.6-.8 0-2.7 0-4.4a20 20 0 0 1 13-8c1.4-.3 2.4-3 3.5-4.5-1.7-.3-3.4-1-5-1-1.6.2-3 1.2-4.5 1.6 3.5-2.7 6.7-5.2 10.2-7.2 3.4-2 4.7-.8 4.6 3.2l.1 6.7 3 5.9c0 .4 0 .6.2 1.1 2 4.7 6 4.5 9.7 4.9l-4 9.8-3 .7c-2.3-1.5-4.2-3-5.6-4.7.6-1.3 1.4-3.5 1.1-3.7-2.8-1.6-5.7-3.5-8.8-4.2-1.6-.3-4.6 1.3-5.2 2.7-1.1 2.6.3 4.9 3.5 5.4-.9 2.4-3.5 5.2.9 6 7.3 1.4 7.3 1.2 6.2 8.7"/><path fill="#EA484C" d="M249 363c0 1.3.7 3.2.1 4-3 3.6-2.3 7.5 0 10.6 2.7 3.6 2.4 6.9 1 11-5.2-.3-10.2-1-15.7-1.5-2.8-.3-5.2-.5-8-1.2 1.5-3.6 4.4-6.6 4.7-9.9.6-7.6 0-15.3.1-23 .5 0 .6 0 1 .3 1 5 3.5 9.5 1.2 14.7-1 2 .4 4.3 4 3l6.9-5.1 4.6-3z"/><path fill="#E83C4E" d="M269.4 386c.7-7.5.7-7.3-6.6-8.7-4.4-.8-1.8-3.6-.5-6 3.3-.2 6-.1 8.6 0l5.8 4.6c1.7 2.3 3 4.5 4.5 7-2.7 4.5-7.4 2.7-11.8 3.1m4.6-25.9c0-.2 0-.4.4-.8 5.8 0 11.2.4 17 .7 2 .8 3.7 1.3 5.2 2.2 2.8 1.8 5.6 3.9 8.4 5.8l2 6.7c-3.3 2.5-5.7 1.9-7.2-1.9-.4-1-1.4-1.6-2.6-2.8a22 22 0 0 1-2.4-2.3c-2.7-1.1-5.2-2-8-2.7-1 0-1.4 0-2-.3A231 231 0 0 0 274 360z"/><path fill="#E73348" d="m295 368 1.9 1.8c1.6 7 1.4 7.2-6.6 8.8 0-.8.2-1.2.4-1.7 1.5-2.5 1.5-4.8-1.6-6.1-3-1.4-4.6.3-5.6 3L282 379l-2-3.6c1.2-3.5 2.5-6.6 4.1-10.1.4-.3.8-.3.8-.3l2.1.2z"/><path fill="#E62920" d="M282.5 379c0-1.7.5-3.5 1-5.2 1-2.7 2.6-4.4 5.6-3 3 1.3 3 3.6 1.6 6.1l-.7 1.7c-2.5.4-4.8.4-7.5.4"/><path fill="#EA5B2B" d="M153.6 349.8c-.4-.4-.5-.8-.5-1.9a2156 2156 0 0 1 7.2-26.8c.7-3 0-4.9-3.2-5.5l11.4-27.7 4.3 3.6c.9-1.3 1.5-2.4 2.4-3.1-.6 6.8-1 13.5-2.4 19.8-1.8 7.4-4.5 14.6-7 22-1.7 5.3 1.8 3.9 4 4-2 2-4 3.5-5.5 5.4-2.3 2.6-4.2 5.6-6.3 8.4l-1 1.9c-1 .2-2 0-3.4 0z"/><path fill="#EA482A" d="M158.3 347.8c1.8-2.6 3.7-5.6 6-8.2 1.6-1.9 3.5-3.4 5.5-5.3.2-.3.2-.3.5-.4l2-2c6.4-5 12.8-9.7 14.6-18 1.3-6 2.6-12 3.6-18 .5-3.6.4-7.3.5-11.3 0-1.4 0-2.5.3-3.7 1.5-3 2.5-5.7 3.8-8.4 1.6-3.6 3.6-4.2 6-.1 0 2.3.8 5-.2 6-4.4 3.8-3.7 8-2.2 12.5-7-.9-5.9 4.4-6.7 8.5 0 .7 0 1.2-.2 2 0 5.4 0 10.5.2 16l3 8a249 249 0 0 1-8 12.2c.4-3.3.9-6.3.8-9.2 0-2.3-1.7-4-4-2.3-2.5 2-4.5 4.5-6.8 6.8-6.1 5-12.3 9.8-18.7 14.9m14.5 15.5c-3.5-2.2-7-4.5-10.6-7.2.3-1.4.5-2.3.8-3 .5-.4 1-.7 2.1-1 6-1.3 11.8-.6 15.9-4.7z"/><path fill="#E9392A" d="M181 347c-4.1 4.5-10 3.8-15.6 5 2.9-2 6-4.6 9.5-5.8 4.4-1.6 9.4-6.6 9.8-11.4.4-3.8-1.4-4.4-7.4-2 2-2.2 4-4.8 6.5-6.7 2.3-1.7 4 0 4 2.3 0 3-.4 5.9-.7 9.5-.1 1.2-.1 1.6-.4 2.2l-3 3.1zm-18.3 6.1q0 1.05-.6 2.7c-.7-.2-1.3-.7-2-1.4.7-.6 1.4-.9 2.6-1.3"/><path fill="#EB5447" d="M231 353c.1 7.7.7 15.4.1 23-.3 3.3-3.2 6.3-5 9.7-8.7-2-17.2-4.5-25.9-7.5 2.6-6.8 5.2-13 8.1-19.3 5-4.7 13.8-4.7 14.7-13.5.1-1 2.3-2.8 3.4-2.8 1.1.1 2.6 1.9 3 3.2 1 2.3 1.1 4.8 1.6 7.2"/><path fill="#EC573D" d="m208 359-8 19c-5.6-2-11-4.2-16.4-6.7a48 48 0 0 1-8.3-5.4c3.7-8.5 7-16.9 14.1-22.8 4.3-3.6 7.6-4 12.6-.7.6 2.5.8 4.6 1.6 6.6 1.3 3.4 2.9 6.7 4.4 10"/><path fill="#EB4D39" d="M202 342c-5-3-8.3-2.5-12.6 1-7.1 6-10.4 14.4-14.4 22.7a7.6 7.6 0 0 1-2.1-2.2l8-16.1c1-1.6 1.8-2.8 3.2-4.3 1.3-1.2 2.1-2.2 2.9-3.1v-1.6a187 187 0 0 1 8.3-13c8.6-.7 16.7-1 24.8-1 1 1.7 2 3.1 2.5 4.6-3.5 2.5-7 4.5-9.7 7.4-3.1 3.4-6.1 6-10.9 5.6"/><path fill="#E94355" d="M341 149c5.7 6 11.4 12.1 16.8 18.7-2.7.8-5.3 1-8.2 1.3-2.3 1.2-5.7 2.1-6 3.5-.2 2 1.6 4.5 2.8 6.7.6 1 1.7 1.9 2.6 3.2a22 22 0 0 1-4.3 4.4c-4-2.4-7.2-1.7-10.2 1.2-1.3 1.2-3 2-4.9 3-2.4-2.1-4.5-4-6.6-6.4l2.4-9.6c1.5-6.3 3-12.6 5-19z"/><path fill="#E93B5C" d="M350 169c2.5-.2 5-.5 8-1a65 65 0 0 1 17.2 28.5c-1 1.2-2 2-3.4 3.3l-13 9.8c-.4-2.8-.2-6.4-1.7-8.6-2.8-4-6.7-7.4-10.3-11.3L345 187l4.3-4.5c2.4.7 4.4 2.2 6.6 2.7 1.6.3 4.4 0 5.1-1 .9-1.2.7-4-.2-5.4-1.3-2-3.6-3.3-5.4-4.9z"/><path fill="#EA484C" d="M340.9 148.7a92 92 0 0 1-11 7.2c-7.7 2-15.4.9-21.8 4.8l8.1-9.4-6.8.6c-.6-3.8 1.5-5.3 4.3-6.5s5.7-2.5 8.3-4.2c4.2-2.6 5.3-2.4 7.2 2.5 2.5 7 3.7 7.3 10 3.2z"/><path fill="#E8393F" d="M339.1 146.6c-6.2 4.4-7.4 4-10-2.9-1.8-4.9-2.9-5.1-7-2.5-2.7 1.7-5.6 3-8.4 4.2s-4.9 2.7-4.3 6.5l6.8-.6-8.4 9.5c-1.1 1-2 1.6-3 2.3-1.5 0-2.7 0-3.8-.5 0-.7 0-1.2.3-1.7 1.4-1.5 2.5-2.9 4.3-5.1-2.5.1-3.6.2-4.6-.2.7-3.1 1.3-5.8 2.3-8.7l5.8-7c2.1-1 4.8-1.6 6.4-3.1 3-3 6.1-3.2 9.3-1 4.7 3 9.1 6.4 14 10 .2.1.3.6.3.8"/><path fill="#EF742D" d="m136 262-4.5-9.3c2.8-4 3-7.7.5-11.6l5.2 1.6c2 .6 4.1 1.1 6.9 1.4 3.4-1.8 6.1-3.5 9.2-5.2 4.5-4 8.7-8 12.8-12l12.8-12.6c-2.5 4.6-5.3 8.6-7 13-3.6 9-6.3 18.2-9.8 27.2-2.5 6.3-3.9 12.3-.2 18.8a69 69 0 0 1-4.2 6.8c-5.3 3.7-10.4 7-15 10.9-4.5 3.8-4.2 8 .4 12.3l1.1 2c.7 1.4 1.3 2.6 1.5 3.9-2.3.4-4.5 1.3-6.3.8-3.3-1-5.4-.5-6.4 3.4 0 1.8 0 3.2-.4 4.6l-1.9.1c-.9-1.5-1.8-3-2.4-5 2.1-3.7 3.3-7.6 8.8-6.4 2.7.5 2.8-2 1.8-4.2-3.2-7.6-1.6-12.5 5.4-17 3.2-2.1 6.2-4.4 9.3-6.6 3.3-2.3 3.9-5.1 2.5-8.7-1.1-2.8-2-5.6-3-8.5l-2-5.2c-1.8.9-3.7 1.8-5.6 2.5-3.1 1.1-6.3 2-9.5 3"/><path fill="#F0832E" d="M117 282.5c3-2.9 6.4-5 8.9-7.8 2.1-2.4 3-5.9 5-8.6.8-1.2 2.9-1.5 5-1.9 1.6 1 2.5 1.6 3.5 2 5.8 2.4 6.6 4.2 3.7 9.7-2.4 4.5-5.4 8.7-7.7 13.2a19.4 19.4 0 0 0-2.5 8.7c0 3.6-1.1 5.2-4.4 5.9-1.6.3-3.2 1-4.7 1.5l-6.9-22.7z"/><path fill="#F07A34" d="M124 305.5c1.3-.8 2.9-1.5 4.5-1.8 3.3-.7 4.4-2.3 4.4-6-.1-2.8 1.1-6 2.5-8.6 2.3-4.5 5.3-8.7 7.7-13.2 3-5.5 2.1-7.3-3.7-9.6-1-.5-2-1.2-3.2-2-.2-.7-.2-1.2-.2-2 3.2-1.3 6.4-2.2 9.5-3.3 2-.7 3.8-1.6 5.7-2.5l2 5.2c1 2.9 1.8 5.7 2.9 8.5 1.4 3.6.8 6.4-2.5 8.7-3 2.2-6.1 4.5-9.3 6.6-7 4.5-8.6 9.4-5.4 17 1 2.2 1 4.7-1.8 4.2-5.5-1.2-6.7 2.7-8.9 6.1-1.5-2.2-2.8-4.6-4.3-7.3z"/><path fill="#EE6C30" d="M130.8 318.5c.4-.4 1-.4 1.9-.1 2.6 5.4 3.9 5.8 9 3.8 1.2-.5 3 0 4.4.2-.3 1.4-.5 2.9-1 4.3-.2.7-.9 1.2-1.3 1.8 3.7 3 5.3 2.6 6.1-1.4.6-2.4 1.4-4.7 2.4-7.3l4.7-3.9c3.3.3 4 2.3 3.3 5.2l-7.2 26.5c-.7.3-1.2.1-2-.1-6.2-8-12.2-15.9-18-23.8-1-1.4-1.5-3.2-2.3-5.2"/><path fill="#EA473F" d="M301 163c1.1 0 2.3 0 3.7.4.3.7.3 1.2 0 1.8a55.7 55.7 0 0 0-15.5 18c-5 8.6-13 15.5-20 23-1.1 1.1-3.1 1.4-4.7 2.1-.4-1.5-.7-3-1.2-4.4-.3-.8-1-1.3-1.3-2.3.4-.8.5-1.3.8-1.6 7.5-7.2 15-14.3 22.4-21.6 1-1 1.4-2.7 2-4.1-1.4 0-3.2-.4-4.3.3-3.1 1.9-6 4.2-9.3 6.4-2.5 0-4.6 0-6.5-.2.4-.8.6-1.3 1.2-2l7-8c6.2-8.4 12.2-16.6 18-25 .9-1.2 1-3.1 1.5-4.7-2 .4-4.6.3-5.6 1.5-4 5-7.3 10.3-10.9 15.4-1 1.4-2.2 2.7-3.4 3.8-.7-.8-1.3-1.3-1.7-2 4.5-8.2 8.8-16 13.3-23.7 1-1.7 3-2.7 4.6-3.7.9 1.5 2.2 3.8 2.5 3.7 2.5-1.1 4.8-2.6 7.2-4l1.3-.2c1.3-.7 2-1.2 2.7-1.8l3.9-3c5.3 1.9 5.8 4.7 2 8.6-.8.9-1 2.3-1.6 3.9a58.5 58.5 0 0 1-5.7 7c-.3-1-.4-1.9-.5-4.2l-19.7 28.2c6.5-.1 11.1-1.1 14.5-5.5.7-1 2.1-1.4 3.2-2.1z"/><path fill="#EB4D39" d="m268 179-1 2c-4.6 4-8.8 7.5-13.2 10.7-3.5-3-6.3-1.1-8.9 1-2.4 2-4.6 4.2-7 6 1.5-2.9 2.8-5.3 4.3-7.8v-2.2c0-.4 0-.6.4-1 3.1-1.8 8.4 1.3 9-5.1.3-3.5 2.3-6.7 3.6-10.1l-1.5-.8c-2.5 3.3-9.1 1.1-9.3 7.5L241 178c-.1-4.3-.1-8.6-.5-12.8-.3-3.1.8-5 4-5.7a14 14 0 0 1-.2 4.7c-1.3 4.8.7 7.2 5.6 5.5 5-1.7 8.7-5.3 10.1-10.7.6-.8 1.2-1.6 1.8-2.7 5.6-8 7.6-16.6 7.8-26 .1-4.5.8-9 1.3-14 .5-.4 1-.4 1.8 0 .8 2.5 1.3 4.6 1.8 6.6.3 1.6 1.2 3.3.9 4.7-2.4 10-5 19.9-7.6 29.8-.9 3.2-.5 5.2 3 6l-16 22.1 1.2 1.4c3-2.6 6-5.3 9.4-7.9z"/><path fill="#EC5040" d="M271 163c-3.7-.4-4-2.4-3.2-5.6 2.7-10 5.2-19.8 7.6-29.8.3-1.4-.6-3.1-1-4.7-.4-2-1-4-1.4-6.6 6 1 11.9 2.5 17.8 4.5-2.5 3-5 5.3-7.3 7.7l1.1 1.2c4.2-1.7 7.5-4.3 9.4-8.6 2.4 1 7 .1 4.4 5.6-.2.2-.3.4-.7.5L291 132c-1.5 1.4-3.6 2.4-4.6 4.1-4.5 7.7-8.8 15.5-13.4 23.9l-2.1 3z"/><path fill="#EA473F" d="M293.6 121c-1.5 4.4-4.8 7-9 8.7l-1.1-1.2 7.5-7.4c.9-.2 1.6-.2 2.6 0z"/><path fill="#C5332E" d="M291.1 132.4c2-2 4.1-3.5 6.5-5.1a35 35 0 0 1-2.3 5.2c2 0 3.5-.2 5.2-.3-2 1.3-4.4 2.8-7 3.9-.2 0-1.5-2.2-2.4-3.7m13.4-2.2c-.4.5-1 1-2 1.6.4-.5 1-1 2-1.6"/><path fill="#EA435C" d="M304.9 367.6c-2.7-1.5-5.5-3.6-8.3-5.4-1.5-.9-3.2-1.4-5.4-2.5-2.7-1.8-4.8-3.3-7-4.6-3-1.8-3.4-4.1-1-6.5 2-2 4.5-3.7 7-5.4 8.1-5.3 10-14 4.8-22.6.2-4.3 2.2-5.7 6.4-4.6 2.2 0 3.9 0 5.7.3l7.9 7.7c-3.4 11-7.1 21.9-10.2 33-.9 3.1 0 6.8.1 10.6"/><path fill="#E93B5C" d="M315.3 323.8a53.5 53.5 0 0 1-7.8-7.6c7.6-3.7 9.3-8.8 5.5-15.7-.8-1.5-1.3-3-2-4.7 0-.5 0-.6.4-.8 2 .7 3.8 1.4 6 2 2.9-.4 5.3-.5 7.7-1.1 4.7-1.2 9.3-2.6 14-3.5-.2 7.6-.4 14.8 2.9 21.6l-9.1-2.2c-.4 3.3-1.3 6.6-1 9.9.5 4.5 2 9 3 14-2-3-4.5-6.1-6-9.7-3.2-8-4-8.5-11.1-3.6z"/><path fill="#E93967" d="M342 314.4a44.7 44.7 0 0 1-2.7-22.3c4.3-4.5 6.3-9 5-14.8-.9-4-.9-8.2-1-12.2 3.2 3.3 6 3.8 10.2 1.7 3.6-1.8 8.3-1.3 12.5-1.8 2.3 13.6-2.3 25.6-7.6 37.7-2.9 6.6-3.7 14-5.9 20.9-.6 2-2.5 3.5-4.2 5.3-2.3-4.6-4.3-9.4-6.3-14.5"/><path fill="#E93B5C" d="M366 264.6c-4.2 1-8.9.4-12.5 2.2-4.2 2.1-7 1.6-10.3-2a91 91 0 0 1-3.3-7.2c-1.4-3-2.6-5.8-3.5-8.6l10.6 5c3 1.7 6 3.7 9.1 5 2.9 1 6 1.3 9.5 2 .4 1 .4 2.1.4 3.6"/><path fill="#E73348" d="M347 229c-5.5 2.3-4.4 8.3-7.2 12.6-6-1.7-11.4-3.6-17-6-.5-3-1.9-6-1.3-8.5 1.4-5.8 1.6-12 6.9-16.5 2.1-1.9 3-5 5-7.7 2-1 3.8-2 5.8-2.7 3.5 4.8 6.6 9.3 9.6 14-2.3 4-5.8 7.3-1.8 12.2z"/><path fill="#E73450" d="M347.2 229.3c-.2-1-.2-1.8 0-3.2 1.4-3 2.5-5.4 4-7.6 2-3 1-4.1-2.2-4.5-3.2-4.5-6.3-9-9.6-14.1 2.6-3.5 1.8-9.5 7.6-9.9 3.4 3.6 7.3 7 10 11 1.6 2.2 1.4 5.8 1.9 8.6l12.8-9.5c-3.5 4.7-6.8 9.8-11 14-2 2-3.2 3-2.5 6.1a12 12 0 0 1-1 7.6c-2.3 4.5-5.3 4.9-10 1.5"/><path fill="#E83C4E" d="m323 236 16.6 6c2.7 3.8 5 7.5 7.3 11.6-3.3-1.2-6.8-2.9-10.8-4.8-6.1-2.4-11.6-4.6-17.2-7.1l-1-4c-.7-1.8-1.3-3.3-1.6-4.6z"/><path fill="#F0832E" d="m153 239-8.6 5c-.6-.3-.6-.7-.9-.9-8.3-8.5-7.4-17.3-2.4-27.5 4.4-9 6.7-19 10.3-28.4.4-1.3 3.1-2.3 4.8-2.3 2 0 4 1.3 6.4 2l4.3.3c2 2.7 4.9 5.6 4.3 7.5-2.7 9.7-6 19.2-9.8 28.6-2.2 5.5-5.6 10.5-8.4 15.7"/><path fill="#ED671F" d="M131.6 241c3 4 2.7 7.7-.5 11.6-1.6.9-3.2 1.3-4.6 2-2.7 1.6-4.3.8-5.3-2.3 1.1-3.4 2.4-6.5 3.7-9.9a42 42 0 0 1 6.7-1.3z"/><path fill="#EE6935" d="M221.6 150c2.4 1.4 4.3 3 6.5 4 2.5 1.2 3.4 2.8 1.4 5-2.9 3-6.1 5.8-9 8.9-.9.9-2 2.4-1.7 3.3 1.8 5.3-2.3 7.6-5.7 10.5-2-1.5-3.3-2.9-4.6-4.3l-1.7.3c.2 2 .5 4.1.6 6.2v5.3c-1.8-.8-3.8-1.3-5.4-2.5-2.4-1.7-4.7-3.8-7.3-5.9l-2.7-.8v-2.6c6.5 2.2 11.6-1.7 16.8-4.4 3.1-1.6 2.8-5 .3-7.1-2.7-2.4-6.1-3.9-9-6-1.6-1-3-2.5-4.3-3.8 1.5-1 3-2.4 4.6-3.2 6.6-3 13.4-4.7 21.2-2.9"/><path fill="#F07A34" d="M191.6 180c1.2.2 2 .4 3.2 1.2 2.9 9.5 2.3 17.6-6.4 23.2-.7.5-1 1.7-1.7 2.8-1.4 1.4-2.5 2.6-4 3.8a40 40 0 0 0-3.7 3l-12.9 12.8c-4.1 4-8.3 8-12.8 12.1 2.5-5.1 5.9-10.1 8-15.6 3.8-9.4 7.2-19 10-28.6.5-2-2.5-4.8-4-7.5 3.7-2.2 7.6-4.7 11.8-6 3.8-1.1 8-.9 12.5-1.2"/><path fill="#EF6F3A" d="M187 207c.5-.9.7-2.1 1.4-2.6 8.7-5.6 9.3-13.7 6.6-23 2.3 1.5 4.6 3.6 7 5.3 1.6 1.2 3.6 1.7 5.4 2.5V184c0-2-.4-4.1-.6-6.2l1.7-.3 4.3 4.4c.2 1.3.2 2.3 0 4l-5.9 18.5c-1.4 4.6-.8 5.2 4.2 5 2 0 4 .5 5.7 1-1 .7-2 1.2-3.1 1.8-4 2.9-8 5.3-11.1 8.5-2 2-3 5.2 1.3 6.7l-8 6.5c-4.6 3.7-7.2 10.5-5.3 15 4.2-2.4 7.9-6.9 13.4-3.4.4 1.8.7 3.2.6 4.6-1.8 1.5-3.5 2.8-4.5 4.5-1.4 2.4-2 5.3-3.6 7.4a48 48 0 0 0-10 21.8c-.4 3.3-1.1 6.6-2 9.8-.4 1-1.7 2.5-2.6 2.5-1 0-2.5-1.3-2.8-2.2-.6-2.6-.8-5.2-1.1-8.2l.1-2.9c.1-1.4 0-2.5-.1-4.1l-1-7c.4-4.2.7-7.9 1.2-11.7.1-.7 0-1.3-.1-2.3 0-1.5-.1-2.5.1-3.6.5 0 .6 0 1.1-.2.8-1.7 1.5-3.2 1.7-4.8.6-4.5.3-9.3 1.7-13.5 1.3-3.8 4-7.1 6.6-10.3 4.6-5.7 3.4-16-2.3-18.2z"/><path fill="#EA482A" d="M216 186c2.6-2.7 5-5.6 7.9-7.9 2.1-1.7 3.8-.5 4 2.1 0 1.3.1 2.8-.5 4-2.4 4.4-4.6 9.1-7.7 13.2-1.4 1.7-4.7 2-7.4 2.4a3 3 0 0 1-.1-2l.8-2.1c.4-1.5.7-2.6 1.3-3.9.7-1 1.2-2 1.7-3.2z"/><path fill="#ED5B40" d="m240.6 178 3.8 1.2c.2-6.4 6.8-4.2 9.3-7.5l1.5.8c-1.3 3.4-3.3 6.6-3.6 10-.6 6.5-5.9 3.4-9.2 5-1.5-1.2-2.4-2.3-3.3-3.4l-2.6-3.7c1.3-.8 2.5-1.6 4.1-2.4"/><path fill="#E9392A" d="M239 184.3c1 .9 2 2 3 3.3.2.5.2.7.1 1.4v2l-4.3 7.8c-.8 1-1.3 1.6-2.2 2.2-1.8 1-3.2 2-4.9 3.1-1 .8-2 1.3-3 1.8-1.2-.7-2-1.3-2.8-2 2.7-4.4 5.3-8.8 8.4-13.6l5.7-5.3zm20.8-25.1c-1.2 5.2-5 8.8-10 10.5-4.8 1.7-6.8-.7-5.5-5.5.3-1.4.4-3 .6-4.8a73 73 0 0 1 2-7.1c5.2-.5 5.8.3 4 4.8-1.1 3-2 6.3-3.2 9.5l2 1.2 10-8.6z"/><path fill="#EA482A" d="M224.6 204a10 10 0 0 1 2.9 2.2c-.4 1.1-1 2-1.7 3L211 223h-1.4c-4.6-.9-3.7-3-1.6-5.2l6-5.8 3-1.9 2-1.2a98 98 0 0 1 5.6-4.9"/><path fill="#EE6935" d="M219 208.6c-.5.6-1 1-1.8 1.3-2.2-.1-4.1-.6-6-.6-5 .2-5.7-.4-4.3-5 1.9-6 3.7-11.9 5.8-18 1-.3 1.8-.3 2.9-.3.4.8.4 1.5 0 2.8L214 192c-.3 1.1-.6 2.2-1.2 3.7l-.8 2.3v1.7c-1.5 4-1 6 3.6 5.9 1 0 2.2 1.7 3.3 3z"/><path fill="#EA482A" d="M238.7 185a45 45 0 0 1-5.3 5c1.4-1.6 3.1-3.3 5.3-5"/><path fill="#E94355" d="M295 321c5.3 8.3 3.3 17-4.8 22.2-2.5 1.7-5 3.4-7 5.4-2.4 2.4-2 4.7 1 6.5 2.2 1.3 4.3 2.8 6.7 4.6-5.3 0-10.7-.3-16.5-.7a17 17 0 0 1-3.1-5.9c2.8-8.5 5.5-16.3 8-24.3 1-3.5 3.2-7 1-10.9 6.1-3.3 10.2.8 14.7 3.1"/><path fill="#EA484C" d="M280 318c2.5 3.8.3 7.3-.8 10.8-2.4 8-5 15.8-8 24-.2-1.9-.4-4-.3-6 .1-4.1-1.2-5.3-4.6-3.3-3.5 2-6.7 4.5-10.5 7.3-4.2 3.7-8 7-12 10.2-1-2-2.5-4.3-2-5.4 2.4-4 5.4-7.8 8.5-11.8l8.3-9.4c1.8-2 3.4-4.2 5.6-5.4 3.8-2.1 5-5.8 1.6-8.7-2.7-2.3-5.8-4.2-9-6.6-1.6-2-3.2-3.9-4.4-5.6 4.8 2.6 10.4 4.3 13.6 8 4.1 4.5 7.1 6.3 12.3 1.9z"/><path fill="#E62920" d="m244 361 11.7-9.9c1.8-.8 3.3-1.8 4.9-2 1.6 0 3.3.7 5 1-1.1 1.6-2.1 4.2-3.5 4.5a20 20 0 0 0-13 8 26 26 0 0 1-5 3.1c-1.1-.5-1.6-1.1-2-2l2-2.6zm27.3 10.1-8.8-.1c-3.8-.2-5.2-2.5-4.1-5 .6-1.5 3.6-3.1 5.2-2.8 3.1.7 6 2.6 8.8 4.2.3.2-.5 2.4-1.1 3.7"/><path fill="#D03445" d="M284.8 364.7c.1.3-.3.3-.6.3-4 0-8 0-10-4.6 3.4 1.1 6.9 2.6 10.6 4.3"/><path fill="#EA473F" d="M243.7 361a7 7 0 0 1-1.9 2.9c-4.6 1-6.6 2.8-4.8 7.1-3.2 1.3-4.6-1-3.6-3 2.3-5.2-.2-9.6-1.1-15-.8-5.7-.7-11-2.3-15.7-1.1-3.2-4.6-5.5-7-8.3a30 30 0 0 1-2.5-4.7c2.1-.6 3.6-1.1 1.7-3.3-1-1.1-2.1-2-2.9-3.2 4 1 7.9 2 12.2 3.3-2.8-5-2.7-8.8 2.8-11.2.7-.3 1-2.6.8-3.9-.3-1.7-1.4-3.3-1.7-5 2.5.4 4.5.7 6.8 1.3L252 308c1.6 1.8 3.2 3.6 4.5 5.7-3.8.3-4.8 1.8-3.1 5 .6 1.1 1.4 2.3 1.7 3.5.3 1.6.3 3.3.4 5-1.7 0-3.6.4-5.1-.2-2.6-1-5-2.8-7.4-4.2l-1.2.8c1 2.8 2.1 5.6 3 8.6-1.1 1.4-2 2.6-2.7 3.8-1.2 2-4.6 4.2-1.4 6.5 1 .7 4.2-1.6 6.3-2.1 1 1.4 2 2.5 3 3.6-2.8 3.8-5.8 7.5-8.1 11.6-.6 1.1 1 3.5 1.8 5.4"/><path fill="#EC5040" d="M222.6 329c2.8 2.8 6.3 5.1 7.4 8.3 1.6 4.7 1.5 10 2 15.3-.2.4-.3.4-.8.4-.7-2.4-.9-4.9-1.7-7.2-.5-1.3-2-3-3.1-3.2-1.1 0-3.3 1.7-3.4 2.8-.9 8.8-9.7 8.8-14.7 13.5a74 74 0 0 1-4.7-10c-.8-1.9-1-4-1.6-6.5 4.8 0 7.8-2.6 10.9-6 2.6-2.9 6.2-4.9 9.7-7.4"/><path fill="#E8393F" d="M237.4 371c-2.2-4.3-.2-6.2 4.3-6.9.8.5 1.3 1 2 1.8-1.8 1.8-3.9 3.4-6.3 5z"/><path fill="#EB501F" d="m178 260-1.1 11.9A543 543 0 0 0 175 288l-2.2 3.5-4.3-3.6-11.4 27.7c-1.6 1.6-3 2.8-5.2 4.1a21 21 0 0 1-2.9-6c0-.4 0-.6.4-.7 3 1 4.9.6 5.9-2.3 1-3 3.7-7-.2-8.7-4-1.6-5 3-6.3 5.7.3-2.8.2-5.6 1.3-7.8 4.8-9 9.9-18 15-27.3.4-1.7.7-3.2 1.3-4.7 2-2.2 3.6-4.3 5.3-6.4l6.3-7.5z"/><path fill="#EE6935" d="M175.2 288.4c-.2-.8-.2-1.3.2-2 1.1-.4 1.8-.4 2.6-.4.3 2.6.5 5.2 1.1 7.8.3 1 1.9 2.2 2.8 2.2 1 0 2.2-1.5 2.5-2.5 1-3.2 1.7-6.5 2.1-9.8a48 48 0 0 1 10-21.8c1.6-2.1 2.2-5 3.6-7.4 1-1.7 2.7-3 4.6-4.1 1.3 3.4 2.3 6.3 2.9 9.4.6 3 1 6.3-2.6 7.8l-.4-5.5c-9.8 3-13 10.2-13.5 19 0 1 0 2-.3 3.8l-2.5 8.2c-2.2 7.7-3.5 15.6-6.7 22.8-3 6.5-6.6 13.6-15.6 14.1 2.3-7.2 5-14.4 6.8-21.8 1.4-6.3 1.8-13 2.4-19.8"/><path fill="#ED5B37" d="M165.8 330.3c9.2-.8 12.8-7.9 15.8-14.4 3.2-7.2 4.5-15.1 6.7-22.8l2.5-7.8c0 3.3.2 7-.3 10.5-1 6-2.3 12.1-3.6 18.1-1.8 8.3-8.2 13-14.8 18.1-1.1.8-1.6 1.4-2.1 2-2.4 0-5.9 1.5-4.2-3.7"/><path fill="#EB4D39" d="M233 301c.7 1.7 1.8 3.3 2 5 .3 1.3 0 3.6-.7 3.9-5.5 2.4-5.6 6.3-2.8 11.2-4.3-1.2-8.1-2.3-12.6-3.3a84 84 0 0 1-10.2-2c-2.7-2.4-5.2-4.6-7.6-7.2 1-1.7 2-3.2 3.1-4.6.3 0 .8 0 1 .2 1 .1 2 0 3.2-.1h2c6.6 1.2 12.7 2.6 18.8 3.9l.6-1c-1.5-1-2.8-2-4.4-2.9-2.8-1.6-7.1-2.3-8.3-4.7-2.5-5-6.9-5.8-11.2-7.7a47.6 47.6 0 0 0-6.9-.7c-1.8-4.6-2.5-8.8 2-12.7.9-.8.1-3.6.4-5.8 1.6 2 3 4.3 4.5 7 0 2 0 3.8.2 5.8a18 18 0 0 0 1.9 1.7l.2.3c1.5 1 2.9 1.7 4.2 2.3 1.5.7 3.1 1.3 4.5 2.2 2.7 1.8 5.1 4.2 8 5.8 2.5 1.5 5.4 2.3 8.1 3.4"/><path fill="#E94033" d="m209 316 9.6 2c1.5 1 2.7 1.9 3.6 3 2 2.2.4 2.7-1.9 3l-24.9 1a30 30 0 0 1-3-7.4c1.4.7 2.5 1.7 3.8 2.3 5.7 3 11.8 1 12.8-4z"/><path fill="#E9392A" d="M208.7 315.8c-.7 5.1-6.8 7-12.5 4.1-1.3-.6-2.4-1.6-3.9-2.7-.4-5.3-.5-10.4-.3-15.5.6 2.1.7 4.3 1.2 6.4.9 3.7 2.2 7.3 6.8 8.6 0-3 0-5.4.3-7.7h.7z"/><path fill="#E6231A" d="M200 309v7.7c-4.6-1.3-5.9-4.9-6.8-8.6-.5-2.1-.6-4.3-1-6.7-.2-.8-.2-1.3.1-2.2l5-5.4 1.8 7.3v1.3z"/><path fill="#ED5B37" d="m205.9 279-4.6-6.8c-2.6-3.9-4.6-3.3-6.2.3-1.3 2.7-2.3 5.5-3.8 8.4.4-8.6 3.5-15.7 13.3-18.8l.4 6 .9 11z"/><path fill="#E9392A" d="M199.1 302v-1l-1.8-7.2c-1.5 1.6-3.1 3.3-5 5 .5-3.5-.6-8.8 6.4-7.9.3 0 .8.1 1 .5l1.5 3.9 8.8 8.7h-5s-.5 0-1-.3l-4.9-1.6z"/><path fill="#EA5B2B" d="M170.3 333.9c.2-.5.7-1 1.5-1.8z"/><path fill="#EA482A" d="M186.7 340c-.5 1-1.3 1.9-2.4 3 .5-1 1.3-1.9 2.4-3"/><path fill="#EA4B50" d="M305 165v-1.7c.8-.9 1.7-1.4 2.7-2.1 6.8-4.4 14.5-3.4 21.9-5.2a304 304 0 0 1-7 28.7c-1.5 1.8-3.1 2.8-4 4.3-2.8 4.7-7 7-12.1 7.9-9 1.5-11.2 4.7-8.2 13.3 2.3 6.4 5.1 12.5 7.5 19l-1.5 2.5c-5.5 10.6-8.8 22-10.4 33.8-.4 2.5-1.6 5-2.5 7.4-.7 1.7-1.7 3.2-2.2 5-2.5 8.3-4.8 16.7-7.5 25a184 184 0 0 1-12.7-7.3c.7-3.7 1-7 2.1-10s3.7-5.3 4.5-8.2c3.4-11 6.3-22.3 9.7-33.3 2 .4 4.5 1.4 4.9 1 3.4-5.1 6.4-10.4 9.5-15.6.1-.3 0-.7-.1-1-2.6-7.8-5-15.7-7.5-23.8 3-3.2 5-6.3 2.5-10.4-.3-.5-.4-1.4-.2-2l8.3-20.9z"/><path fill="#EA484C" d="M306 229c-2.6-6.3-5.4-12.4-7.7-18.8-3-8.6-.8-11.8 8.2-13.3 5-1 9.3-3.2 12.1-8 .9-1.4 2.5-2.4 4-3.8a60 60 0 0 1 6.9 6c-5 5-10.3 9.4-16 13.9l-4.8-.3c-5.2-.6-7.4 1.6-6.4 6.8.4 2 1 4 2.1 5.5l11.6 16c.6 1.4 1.2 2.9 1.6 4.6-4-2.7-7.8-5.7-11.6-8.6"/><path fill="#E83C4E" d="m314 205 15.8-13.7c1.7-1.3 3.4-2.1 4.7-3.3 3-2.9 6.2-3.6 10.2-1.2.9 1 1.4 1.9 2.1 3-5.6.6-4.8 6.6-7.7 9.9a42.4 42.4 0 0 1-6.1 3.3c-1.5.7-2.4 1.1-3.1 1.7-6.5 5.3-9.5 5.4-15.9.3"/><path fill="#E73348" d="M349.6 169c2.2 1.6 4 3.3 5.8 5 1.8 1.5 4.1 2.8 5.4 4.8.9 1.4 1 4.2.2 5.4-.7 1-3.5 1.3-5.1 1-2.2-.5-4.2-2-6.6-3.1-1.2-1-2.3-1.8-3-3-1.1-2-3-4.5-2.6-6.6.2-1.4 3.6-2.3 6-3.5z"/><path fill="#EB5049" d="M301 162.6c-1.2 1-2.6 1.5-3.3 2.5-3.4 4.4-8 5.4-14.5 5.5l19.7-28.2.2 4.3c-.8 3-1.4 5.8-2.1 9.3z"/><path fill="#EA473F" d="M301.3 160.9c-.3-1.3-.3-2.7-.3-4.5 1-.4 2.1-.5 4.6-.6l-4.3 5z"/><path fill="#EE6C30" d="M166 268c-.2 1.4-.5 2.9-1.2 4.7-1.3.3-2 .3-2.8.3-3.8-6.2-2.4-12.2.1-18.5 3.5-9 6.2-18.3 9.7-27.2 1.8-4.4 4.6-8.4 7.1-13 .1-.3.1-.3.4-.4a60.5 60.5 0 0 0 7.4-6.7c6 2 7.2 12.3 2.6 18-2.5 3.2-5.3 6.5-6.6 10.3-1.4 4.2-1.1 9-1.7 13.5-.2 1.6-1 3-1.7 4.4-.4-4.3-2.2-4.7-5.4-2.6l-6.3 3.8c-6 3.4-6.6 9.4-1.5 13.4z"/><path fill="#ED671F" d="M149 314c.8 2 1.5 3.8 2.7 5.9-.4 2.5-1.2 4.8-1.8 7.2-.8 4-2.4 4.5-6.1 1.4.4-.6 1-1.1 1.3-1.8.5-1.4.7-2.9 1-4.3-1.5-.1-3.2-.7-4.4-.2-5.1 2-6.4 1.6-8.7-3.8 0-1.8 0-3.2.4-5 2.4-.3 4.5 0 6.6 0z"/><path fill="#EC5D26" d="M162 273.3a7 7 0 0 1 2.6-.3c-4.6 9-9.7 17.9-14.5 27-1.1 2-1 4.9-1.3 8 .2 1.5.2 2.3 0 2.8L146 309c-.5-1.1-1-2.3-1.5-3.9.3-6.7 2.7-12.2 6.8-17.3l6.7-7.8z"/><path fill="#EE6C30" d="M157.7 280c-1.9 2.5-4 5-6.7 8-8.5 5-9.7 7.5-8 15-4.5-4-4.8-8.2-.3-12 4.6-3.9 9.7-7.2 15-11m-12 29.2c1.1.3 2 .9 3 2 .3.9.4 1.3.4 1.8v.7c-3.1.1-6.1 0-9.1-.2l-6.6-.5c.6-3.5 2.7-4 6-3 1.8.5 4-.4 6.3-.8"/><path fill="#ED671F" d="M143 303.3c-1.7-7.8-.5-10.3 7.7-15.2a33 33 0 0 0-6.4 16.7c-.6-.3-.8-.8-1.2-1.5z"/><path fill="#EB5049" d="M304.7 165.2a53 53 0 0 1-2 6.2l-8.3 21c-.2.5-.1 1.4.2 2 2.5 4 .6 7.1-2.8 10.3-3 1-5.4 1.6-8 2l-1.6-3.5c-7.6 3.6-9 13.3-18.4 16.6l2.4-8.3c-2.3.2-4.3.4-6.2.1l-2-6c.8-1.4 1.4-2.4 2.4-3.6h1.5c.5.6 1.1 1.1 1.4 1.9.5 1.4.8 3 1.2 4.4 1.6-.7 3.6-1 4.7-2.2 7-7.4 15-14.3 20-23 4.2-7.1 8.8-13 15.5-18z"/><path fill="#E94033" d="m260 202-2.2 3.8c-2.5 2.1-4.7 3.7-7 5 1.2-4.2 2.4-8 4-12.5a49.2 49.2 0 0 0-13 15c-1.8 3.7-3.3 7.2-5 11l-1 1.8-1.2 1c-4 .8-3.4-2-3.6-4.4 0-.2 0-.7.3-.8l3-6c4.2-5.5 8.1-10.9 12.3-16 2.2-2.8 5-5.3 7.4-7.9l12.8-10.7c2.2-.3 4.3-.3 6.6 0-1 1.6-2.2 3-3.5 4.3-3.5 3.7-7.2 7.3-10.6 11.2-1.7 1.8-3 4 .8 5.3z"/><path fill="#E9392A" d="M260.4 202c-4-1.2-2.8-3.4-1.1-5.2 3.4-3.9 7-7.5 10.6-11.2l4-4.3c3-2.5 5.9-4.8 9-6.7 1.1-.7 2.9-.2 4.3-.3-.6 1.4-1 3-2 4-7.4 7.4-14.9 14.5-22.4 21.7-.3.3-.4.8-.8 1.6-.5.4-.9.4-1.6.4"/><path fill="#EB5447" d="M275 162c1.1-1.3 2.3-2.6 3.3-4 3.6-5.1 7-10.5 11-15.4.9-1.2 3.6-1 5.5-1.5-.5 1.6-.6 3.5-1.5 4.8a623 623 0 0 1-18.3 24.8c-1-.2-1.6-.5-2-1.1z"/><path fill="#E94033" d="M275 161.8c-.6 2.6-1.3 5-2.3 7.9L265 179l-9 8-1.2-1.5 16-22.2 2.1-3c.7.2 1.3.7 2 1.5z"/><path fill="#EC5040" d="M265.4 179c2-3 4.5-5.9 7.2-9 .8.2 1.3.5 2.1 1-1.8 2.5-4 5-6.4 7.8-1 .2-1.8.2-2.9.2"/><path fill="#ED5B40" d="M253.8 191.7c-2.3 3-5 5.4-7.2 8.2-4.2 5.1-8 10.5-12.6 16-.7.1-.8.1-1-.3l3-8.6-10 2 1.8-2.8a18 18 0 0 1 3.3-2l4.8-3.3 1.9-1.7c2.5-2.3 4.7-4.5 7.1-6.5 2.6-2.1 5.4-4 9-1z"/><path fill="#EA482A" d="M242.2 191c-.2-.4-.2-.9-.1-1.7.1.3.2.9.1 1.6z"/><path fill="#EA4754" d="M305.8 229.3c4 2.6 7.7 5.6 11.9 8.6.6 1.2.9 2.3 1 4-.2 1-.3 1.3-.5 1.6-5 8.6-7.3 18.3-11.8 27.1-4.3 8.5-.2 16.9 4.6 24.4 0 .2 0 .3-.3.7-3-1.7-5.5-3.6-8.1-5.2a12 12 0 0 0-15.2 3.2c-2.5 3.6-1.5 8 3 12.2 2.1 1.9 4.5 3.4 6.5 5.4 1.5 1.4 2.8 3.1 4.1 4.7-3.8-1.1-5.8.3-6 4.6-4.5-2-8.6-6-14.7-2.7-.7.1-1.2.1-1.9-.3.4-7 6-5 10.6-5.8l-7-8.8c2.4-8.4 4.7-16.8 7.2-25.1.5-1.8 1.5-3.3 2.2-5 .9-2.4 2.1-4.9 2.5-7.4 1.6-11.9 5-23.2 10.4-33.8z"/><path fill="#E83C4E" d="M301.4 316c-1.7-1.6-3-3.3-4.5-4.7-2-2-4.4-3.5-6.5-5.4-4.5-4.2-5.5-8.6-3-12.2a12 12 0 0 1 15.2-3.2c2.6 1.6 5.2 3.5 8 5.4 1 1.6 1.6 3.1 2.4 4.6 3.8 6.9 2 12-5.7 15.4h-5.9z"/><path fill="#EA435C" d="M311.4 295c-5.2-7.5-9.3-16-5-24.4 4.5-8.8 6.8-18.5 11.8-27l.6-1.3a239 239 0 0 1 17 6.5 61 61 0 0 1 3.8 8.7c-1.5-.3-2.6-1-3.8-1.5-4-1.7-7.2 0-8.5 4l-9.7 32.1c-.4 1.6-.4 3.3-.6 4.9z"/><path fill="#EB4363" d="M317.4 297c-.2-1.6-.2-3.3.2-4.9l9.7-32c1.3-4.1 4.5-5.8 8.5-4 1.2.4 2.3 1.1 3.8 1.8 1.3 2.2 2.3 4.3 3.3 6.8.5 4.4.5 8.6 1.4 12.6 1.3 5.9-.7 10.3-5 14.5-5 1.5-9.5 2.9-14.2 4-2.4.7-4.8.8-7.7 1.2"/><path fill="#E8393F" d="M313.6 205c6.8 5.1 9.8 5 16.3-.3.7-.6 1.6-1 2.8-1.6-1.2 2.5-2.2 5.6-4.3 7.5-5.3 4.4-5.5 10.7-6.9 16.5-.6 2.5.8 5.4 1.4 8.5-2-.5-4.1-1.5-6.6-2.5-4.2-5.4-8.1-10.7-11.9-16.1-1-1.6-1.7-3.6-2.1-5.5-1-5.2 1.2-7.4 6.4-6.8z"/><path fill="#E62E4D" d="M348.8 214.3c3.3 0 4.4 1.2 2.4 4.2-1.5 2.2-2.6 4.6-4 7.2-4.2-4.2-.7-7.5 1.6-11.4"/><path fill="#EF742D" d="M182.6 211c-.7 1-1.9 1.9-3.3 3 .8-1 2-2 3.3-3"/><path fill="#EF6A45" d="M225.8 209.2c3.2-.8 6.1-1.4 10.3-2.2l-3.2 8.9a6 6 0 0 1-1.2 2.2c-11.8 15-19 30.8-11.6 50.2.7.7 1.3 1.2 1.9 2v1l3.5 7.5-4 2.5 2.1 6.6c-5.6-1.2-10.6-3.9-15.6-.9l-.1-.3-1.9-1.7v-5.5l-1-11c3.6-2.4 3.2-5.6 2.6-8.7-.6-3-1.6-6-2.5-9.4a27 27 0 0 1-.8-4.8c2 2 3.8 4.4 5.6 6.6l2.1-.8 10.9-32.6-12 4.2z"/><path fill="#EF7544" d="m211 223 11.9-4.2-10.9 32.6-2 .8a277 277 0 0 0-5.7-7c-5.8-3.3-9.5 1.2-13.7 3.6-2-4.5.7-11.3 5.3-15l8.3-6.5 6-3.5z"/><path fill="#EC5D26" d="M166.4 268c-5.4-4-4.7-10 1.2-13.4l6.3-3.8c3.2-2 5-1.7 5.1 2.8-.2.4-.3.4-.8.4-2.3 2.5-4.4 5-6.5 7.5-1.7 2-3.3 4.2-5.3 6.4z"/><path fill="#ED5B37" d="M210 224c-1.8 1-3.5 2-5.6 3-4.8-1.2-3.7-4.5-1.8-6.4 3.2-3.2 7.1-5.6 11.1-8.5l-5.7 5.7c-2.1 2.2-3 4.3 1.6 5.4.4.4.4.6.4.8"/><path fill="#EA5B2B" d="M178 285.6c-.8.4-1.5.4-2.6.4.2-4.4.7-8.9 1.5-13.7.5 1.8.8 3.8 1 6.6v6.7z"/><path fill="#EE6935" d="M178.1 282.7c-.2-.9-.3-2-.3-3.4.3.9.4 2 .3 3.4"/><path fill="#EE6C30" d="M178.2 260c-.2-.4-.2-.9-.2-1.7.2.3.3 1 .2 1.6z"/><path fill="#ED5B37" d="M214.3 191.8c.2-.7.6-1.6 1.4-2.7-.2.8-.7 1.6-1.4 2.7m-2.1 6c0-.4.2-1 .6-1.7 0 .4-.3 1-.6 1.7"/><path fill="#EB4D39" d="M235.6 201c-1 1-2.5 2-4.3 3 1-1 2.5-2 4.3-3"/><path fill="#EF6A45" d="M210.2 223.8c-.2 0-.2-.2-.2-.6.1-.2.3-.2.7-.2 0 .2-.1.4-.5.8"/><path fill="#EC5352" d="m281.7 302.8 7.3 9c-4.5.8-10.2-1.2-11 5.8-4.9 4.8-7.9 3-12-1.5-3.2-3.7-8.8-5.4-13.6-8-4.3-2-8.1-3.7-12.3-6.2-2.3-6.1.4-10.5 3.3-14.8 4.8 1 9.2 2 13.8 3.2L269 296z"/><path fill="#E8393F" d="m245 332-3.2-8.4 1.2-.8c2.5 1.4 4.8 3.1 7.4 4.2 1.5.6 3.4.2 5.1.2-.1-1.7 0-3.4-.4-5-.3-1.2-1.1-2.4-1.7-3.5-1.7-3.2-.7-4.7 3.2-4.7 3.4 2 6.5 4 9.2 6.3 3.3 2.9 2.2 6.6-1.6 8.7-2.2 1.2-3.8 3.5-5.6 5.4l-8.3 9.4c-1.3-1-2.3-2-3.1-3.8 1.3-3.7.6-6.2-2.2-8"/><path fill="#ED5B47" d="M243 287c-2.5 4.4-5.2 8.8-3 14.6-2 .1-4.1-.2-6.6-.5-3.1-1.2-6-2-8.6-3.5-2.8-1.6-5.2-4-8-5.8-1.3-1-2.9-1.5-4.4-2.2-1.3-.6-2.7-1.3-4.2-2.3 4.8-3.3 9.8-.6 15.4.6l-2.2-6.6 4-2.5c-1-2.5-2.1-4.8-3-7.4 3.6 1 5-.5 6-3.7a20 20 0 0 1 3.5-7c3.6-4.4 6-8.9 5.2-14.8-.6-4.3-.8-8.6-1.1-13.2 0-.8 0-1.3.2-1.7.5 0 .6 0 .9.3 1.3 1.5 2.8 4 3.6 3.7 6.3-1.6 8.9-12.3 4.5-17.2l5-5 .8-1.8c2.1-1.5 4.3-3 6.7-4.9 1 1.6 1.6 3.4 2.3 6a659 659 0 0 1-2.4 17.5l7.6-4.5c-.4 5.7-1.4 10.3-1 14.8.5 4.7 2.6 9.2 3.5 14 .6 3.3-2.3 5.3-5.9 4.4-2.5-.7-5-1.7-7.5-2.6-6.5-2.2-8.2-1.3-9.3 5.6-1 5.5-1.1 11.1-2.7 16.4-1 3.5-1.5 6.3.7 9.3"/><path fill="#EB5049" d="M244.7 332.2c3.1 1.6 3.8 4 2.4 7.5-2.2 1.2-5.4 3.5-6.4 2.8-3.2-2.3.2-4.4 1.4-6.5z"/><path fill="#EA4423" d="M149.4 313c-.3-.5-.4-.9-.4-1.7v-3c1.2-3.3 2.2-8 6.1-6.3 3.9 1.6 1.2 5.7.2 8.7-1 2.9-3 3.3-5.9 2.3"/><path fill="#E94033" d="M210.5 304a78 78 0 0 1-9-8.9c1.5-1.3 3-2.2 4.5-3.1 4.2 1.6 8.6 2.5 11 7.4 1.3 2.4 5.6 3.1 8.4 4.7 1.6.9 3 2 4.4 2.9l-.6 1zm-11.4-1.6c1.5.1 3 .6 4.7 1.3-.8 1.7-1.7 3.2-2.7 5-.2.3-.4.3-.8.3-.6-2-.9-4.1-1.2-6.6"/><path fill="#EA482A" d="M205.9 291.7c-1.4 1.2-2.9 2-4.6 3.1-.6-.9-1-2-1.3-3.4 1.9-.2 3.8 0 5.9.3"/><path fill="#E94033" d="M205.2 304.2a8 8 0 0 1 2.5-.1 8 8 0 0 1-2.5.1"/><path fill="#ED5B37" d="M206.1 285.3c.5.2 1 .7 1.8 1.4-.5-.2-1-.7-1.8-1.4"/><path fill="#EB4F4D" d="M269 295.6a63.7 63.7 0 0 1-11.7-5.7c.2-4.9-.2-9.4 1.2-13.2 1.8-5.1 3.8-12 7.8-14 5.7-3.1 5.7-6 4.4-10.8-.5-2-.5-4-.4-6 5.2-3.6 6.2-8.7 6.7-14.2.4-3.6 1.3-7.1 2.2-10.4L285 244c-3 11.1-6 22.3-9.4 33.4-.8 3-3.4 5.3-4.5 8.1-1.1 3-1.4 6.4-2 10z"/><path fill="#EC5352" d="M285.3 244.1c-2.2-7.5-4-15-6.1-23.1-.2-1.5-.2-2.2 0-3.2a43 43 0 0 0 2.9-5.1l1.9-5.7 7.6-2c3 7.8 5.4 15.7 8 23.5 0 .3.2.7 0 1-3 5.2-6 10.5-9.4 15.5-.4.5-3-.5-4.9-.9"/><path fill="#EB5447" d="M283.9 206.7c-.5 2-1.1 3.8-2.2 6-1.2.3-2 .3-3 .3-3 3.5-6.4 6.6-8.1 10.5-3.1 7.2-6.6 14.9-.6 22.5.2 2 .2 4 .7 5.9 1.3 4.8 1.3 7.7-4.4 10.7-4 2.2-6 9-7.8 14-1.4 4-1 8.4-1.5 13-4.4-.5-8.8-1.5-13.6-2.5-2.6-3-2.2-5.9-1.1-9.4 1.6-5.3 1.8-11 2.7-16.4 1.1-6.9 2.8-7.8 9.3-5.6 2.5 1 5 1.9 7.5 2.6 3.6 1 6.5-1.1 5.9-4.5-1-4.7-3-9.2-3.5-14-.4-4.4.6-9 1-14.7l-7.6 4.5c.9-6 1.7-11.4 2.4-17.2 2-.5 3.9-.7 6.2-.9l-2.4 8.3c9.4-3.3 10.8-13 18.4-16.6z"/><path fill="#ED5B40" d="M236 233c.3 4.3.5 8.6 1.1 12.9.9 6-1.6 10.4-5.2 14.9a20 20 0 0 0-3.5 6.9c-1 3.2-2.4 4.6-6 3.4-.4-.1-.4-.6-.5-1.1-.7-1-1.3-1.5-1.9-2-7.3-19.1-.1-34.9 11.6-49.5a17 17 0 0 1-.6 3.5s0 .5-.3 1l-6 11.1c-1.8 4.8-3.7 9.4-4.5 14-.3 2.2 1.8 4.7 2.8 7 2.3-1.2 5.8-1.8 6.5-3.6 2.1-5.3 3-11 4.5-16.8 0-.8 0-1.3.3-1.7z"/><path fill="#EF6A45" d="M245 218c4.6 4.7 2 15.4-4.3 17-.8.2-2.3-2.2-3.6-4l-1.1-5c.2-.5.4-1 1.1-2 2.8-2.4 3.2-7 7.9-6"/><path fill="#EB4D39" d="m225 234 5.7-10.8c.5 1.9-.2 4.7 4 4.2.3 1 .3 1.8 0 2.7-.4 1-.5 2-.7 2.9 0 .4 0 .9-.3 1.8-1.6 3-2.7 5.5-4.4 7.7-1 1.3-3 2-4.6 3-.5-1.6-1.6-3.3-1.5-4.8.1-2.3 1.1-4.5 1.8-6.7m25.9-23.3c-.1.8-.4 1.3-1 2.2-3 .2-5.4.2-7.9.1 3-5.8 7.4-10.3 12.7-14.7-1.5 4.5-2.7 8.3-3.8 12.4"/><path fill="#ED5B40" d="M241.8 213.3c2.7-.2 5.1-.2 7.9-.2-1.2 1.4-2.7 3-4.5 4.7-5-.8-5.3 3.8-8 6 1.3-3.3 2.8-6.8 4.6-10.5M235 230v-2.7c.2-.6.4-.8.8-1.2.5 1.3.9 2.7 1.2 4.5-.2.4-.3.4-1 .2-.6-.3-.8-.6-1-.8"/><path fill="#EB4D39" d="M231.3 221.9c0-1 .3-2.1.6-3.6l1-2c.3-.3.4-.3.9-.3-.6 2-1.4 3.8-2.5 5.9"/><path fill="#ED5B47" d="M220.1 268.3c.5.2 1 .7 1.8 1.4-.5-.2-1-.7-1.8-1.4"/><path fill="#EC573D" d="M234.8 230.1c.4.1.6.4 1 .7.2.6.2 1 .2 1.9-.4.3-.9.3-1.7.3-.1-1 0-1.8.5-2.9"/><path fill="#EB5049" d="M270.3 245.8c-6.3-7.4-2.8-15 .3-22.3 1.7-3.9 5-7 8-10 .4 1.7.4 3.1.4 4.5v2.6c-.7 4-1.6 7.5-2 11.1-.5 5.5-1.5 10.6-6.7 14.1"/><path fill="#EB4F4D" d="M279.3 217.8c-.3-1.2-.3-2.6-.3-4.4.7-.4 1.5-.4 2.6-.4-.4 1.6-1.2 3.1-2.3 4.8"/><path fill="#EC573D" d="M224.7 234.1c-.4 2.1-1.4 4.3-1.5 6.6 0 1.5 1 3.2 1.5 4.8 1.6-1 3.6-1.7 4.6-3 1.7-2.2 2.8-4.8 4.4-7.4-1.1 5.4-2 11.1-4.2 16.4-.7 1.8-4.2 2.4-6.5 3.6-1-2.3-3-4.8-2.8-7 .8-4.6 2.7-9.2 4.5-14"/></svg>