<?xml version="1.0" encoding="UTF-8"?>
<svg width="128px" height="128px" viewBox="0 0 128 128" version="1.1" xmlns="http://www.w3.org/2000/svg" xmlns:xlink="http://www.w3.org/1999/xlink">
    <title>Separate logo（green）</title>
    <g id="页面-1" stroke="none" stroke-width="1" fill="none" fill-rule="evenodd">
        <g id="Separate-logo（green）">
            <rect id="矩形" fill="#00E678" x="0" y="0" width="128" height="128" rx="64"></rect>
            <g id="编组-24备份" transform="translate(27.424000, 29.728000)" fill="#FFFFFF" fill-rule="nonzero">
                <path d="M48.3671496,16.7228869 L48.3671496,16.7265451 L29.730356,16.7265451 C18.1304691,16.7265451 8.72690449,26.3310572 8.72690449,38.1786529 C8.72690449,50.0261079 18.1304691,59.6306201 29.730356,59.6306201 L32.0968762,59.6306201 L34.3156437,59.6306201 L43.4121362,59.6306201 C45.7405133,59.6306201 47.6276983,57.7028513 47.6276983,55.3251152 C47.6276983,52.9473788 45.7405133,51.0196102 43.4121362,51.0196102 L34.4636716,51.0196102 L34.3156437,51.0196102 L31.357287,51.0196102 C23.6825517,51.0196102 17.453809,45.3066556 17.453809,38.217487 C17.453809,31.1283184 23.6825517,25.3220776 31.357287,25.3220776 L40.7961027,25.3520473 C40.7961027,25.3465598 40.7963781,25.3409318 40.7963781,25.3353036 L52.506288,25.3353036 C52.506288,30.3431968 48.177536,34.4026126 42.8379253,34.4026126 C42.6589147,34.4026126 42.49092,34.3974066 42.3306367,34.3885422 L42.3306367,34.401909 L29.9521914,34.401909 C27.8693342,34.401909 26.1807135,36.1265029 26.1807135,38.2540697 C26.1807135,40.3816362 27.8693342,42.1066522 29.9521914,42.1066522 L33.5761921,42.1066522 L34.3156437,42.1066522 L34.4636716,42.1066522 L43.4121362,42.1066522 C50.5601672,42.1066522 56.3544649,48.0247518 56.3544649,55.3251152 C56.3544649,62.6256193 50.5601672,68.544 43.4121362,68.544 L34.3156437,68.544 L29.730356,68.544 C13.3108152,68.544 0,54.9488759 0,38.1786529 C0,21.4084299 13.3108152,7.8133057 29.730356,7.8133057 L39.4926302,7.8133057 L48.3671496,7.8133057 L56.9460262,7.8133057 C56.9460262,12.68528 53.1183664,16.641842 48.3671496,16.7228869 M80.6312198,12.3706935 L75.4758854,12.3706935 L75.4758854,17.9541431 C75.4758854,18.4339665 75.0851925,18.8229637 74.6032446,18.8229637 L69.9479981,18.8229637 C69.4660506,18.8229637 69.075218,18.4339665 69.075218,17.9541431 L69.075218,12.3706935 L64.0474174,12.3706935 C63.5651907,12.3706935 63.1744978,11.9816963 63.1744978,11.501873 L63.1744978,7.3028977 C63.1744978,6.82307436 63.5651907,6.43449384 64.0474174,6.43449384 L69.075218,6.43449384 L69.075218,0.868820543 C69.075218,0.388997177 69.4660506,0 69.9479981,0 L74.6032446,0 C75.0851925,0 75.4758854,0.388997177 75.4758854,0.868820543 L75.4758854,6.43449384 L80.6312198,6.43449384 C81.1131674,6.43449384 81.504,6.82307436 81.504,7.3028977 L81.504,11.501873 C81.504,11.9816963 81.1131674,12.3706935 80.6312198,12.3706935" id="Fill-1"></path>
            </g>
        </g>
    </g>
</svg>