<svg xmlns="http://www.w3.org/2000/svg" width="128" height="128" viewBox="0 0 128 128"><g fill="none" fill-rule="evenodd"><rect width="128" height="128" fill="#00E678" rx="64"/><path fill="#FFF" fill-rule="nonzero" d="M75.791 46.45v.005H57.154c-11.6 0-21.003 9.604-21.003 21.452 0 11.847 9.403 21.452 21.003 21.452h13.682c2.329 0 4.216-1.928 4.216-4.306s-1.887-4.305-4.216-4.305H58.781c-7.674 0-13.903-5.713-13.903-12.803 0-7.089 6.229-12.895 13.903-12.895l9.44.03v-.017h11.71c0 5.008-4.33 9.068-9.67 9.068q-.267-.001-.506-.014v.013H57.376c-2.083 0-3.771 1.725-3.771 3.852 0 2.128 1.688 3.853 3.771 3.853h13.46c7.148 0 12.942 5.918 12.942 13.218s-5.794 13.219-12.942 13.219H57.154c-16.42 0-29.73-13.595-29.73-30.365s13.31-30.366 29.73-30.366H84.37c0 4.872-3.828 8.829-8.579 8.91m32.264-4.352H102.9v5.583a.87.87 0 0 1-.873.869h-4.655a.87.87 0 0 1-.873-.869V42.1h-5.028a.87.87 0 0 1-.873-.87v-4.198c0-.48.391-.869.873-.869H96.5v-5.565c0-.48.391-.869.873-.869h4.655a.87.87 0 0 1 .873.869v5.565h5.155a.87.87 0 0 1 .873.869v4.199a.87.87 0 0 1-.873.869"/></g></svg>