<svg xmlns="http://www.w3.org/2000/svg" width="240" height="240" fill="none"><rect width="240" height="240" fill="#E6007A" rx="120"/><path fill="#fff" d="M173.186 156.694c-12.723 0-23.018-10.314-23.018-23.018V99.207h29.688V79.158h-29.688V46L127.42 58.145v21.013H84.276c-30.074 0-37.978 36.243-14.844 49.737l23.52 15.808c5.204 3.856 3.084 11.953-4.242 11.953H56.708v20.241H88.71c30.266 0 37.978-36.242 14.844-49.737l-23.326-15.808c-5.206-3.855-3.278-12.145 4.048-12.145h43.144v34.739c0 26.218 18.121 42.971 45.496 42.971h6.94v-20.223z"/></svg>