<?xml version="1.0" encoding="UTF-8"?>
<svg id="Layer_1" xmlns="http://www.w3.org/2000/svg" viewBox="0 0 150 150">
  <path d="M19.9524,85.333l13.365,13.3658c2.8083,2.8075,6.5415,4.3539,10.5124,4.3539h3.7657v3.7653c0,3.9717,1.5463,7.7056,4.3542,10.5124l13.3647,13.365c2.5798,2.5805,6.0198,4.0007,9.6857,4.0007s7.106-1.4202,9.6857-4.0007l13.3639-13.3643c2.8083-2.8083,4.355-6.5415,4.355-10.5132v-3.7653h3.7657c3.9709,0,7.7041-1.5463,10.5128-4.3546l13.3643-13.365c2.5798-2.5798,4.0007-6.0194,4.0007-9.6854s-1.421-7.1056-4.0007-9.6854l-13.3647-13.365c-2.8083-2.8075-6.5415-4.3539-10.5124-4.3539h-3.7657v-3.7661c0-3.9709-1.5463-7.7041-4.3546-10.5124l-13.3643-13.3643c-2.6707-2.6707-6.1777-4.0061-9.6857-4.0061-3.5073.0008-7.0158,1.3354-9.6857,4.0061l-13.365,13.3643c-2.8075,2.8083-4.3539,6.5415-4.3539,10.5124v3.7661h-3.7657c-3.9709,0-7.7041,1.5463-10.5128,4.3546l-13.3647,13.3643c-2.5798,2.5798-4.0007,6.0194-4.0007,9.6854s1.421,7.1056,4.0007,9.6854ZM93.795,106.8179c0,1.6596-.6592,3.2512-1.8327,4.4247l-13.3646,13.3653c-1.9835,1.9828-5.2115,1.9828-7.195,0l-13.365-13.3658c-1.1731-1.1732-1.8322-2.7644-1.8322-4.4235v-15.9723c0-1.6594.6592-3.2508,1.8326-4.4241l4.6866-4.6865,6.1874,6.1876-4.6865,4.6865c-.8558.8555-1.9156,1.433-3.0695,1.6866-.7908.1738-1.3551.87-1.3551,1.6797v5.2337c0,1.0489.9277,1.8512,1.9677,1.7145,3.2249-.4239,6.2054-1.8874,8.5447-4.2264l4.6864-4.6866,4.6871,4.6873c2.7876,2.7877,6.5684,4.3539,10.5108,4.3539h3.5972v3.7653ZM70.6747,75.619c0-2.4052,1.9499-4.3551,4.3551-4.3551s4.3551,1.9499,4.3551,4.3551-1.9499,4.3551-4.3551,4.3551c-1.1916,0-2.2704-.4795-3.0568-1.2549-.0086-.0064-.0184-.0106-.0271-.0171-.0065-.0087-.0107-.0186-.0172-.0273-.7748-.7863-1.254-1.8647-1.254-3.0558ZM98.0503,70.9616c2.7882-2.7881,4.3546-6.5697,4.3546-10.5127v-3.5956h3.7657c1.6713,0,3.2428.6512,4.4246,1.8322l13.3642,13.3642c1.9871,1.9871,1.9871,5.2087,0,7.1958l-13.364,13.3644c-1.1735,1.1736-2.7652,1.8329-4.4249,1.8329h-15.9725c-1.659,0-3.2501-.6591-4.4232-1.8322l-4.687-4.6872,6.1878-6.1874,4.6868,4.687c.8555.8555,1.4328,1.9149,1.6863,3.069.1738.7909.87,1.3552,1.6798,1.3552h5.2336c1.0489,0,1.8512-.9277,1.7145-1.9677-.4239-3.2257-1.8877-6.2063-4.2264-8.5447l-4.6866-4.6866,4.6866-4.6865ZM56.2054,44.4773c0-1.6717.6509-3.2425,1.8326-4.4249l13.3647-13.3643c1.9835-1.9828,5.2115-1.9828,7.195,0l13.3648,13.3651c1.1733,1.1734,1.8325,2.7647,1.8325,4.4241v15.9716c0,1.6596-.6593,3.2513-1.8328,4.4248l-4.6865,4.6865-6.1875-6.1879,4.6863-4.686c.8558-.8555,1.9157-1.433,3.0699-1.6866.7908-.1738,1.3551-.87,1.3551-1.6797v-5.2337c0-1.0489-.9277-1.8512-1.9677-1.7145-3.2252.4238-6.2058,1.8874-8.5451,4.2264l-4.6864,4.6863-4.6865-4.6865c-2.7881-2.7881-6.5696-4.3545-10.5126-4.3545h-3.5956v-3.7661ZM26.0406,72.0497l13.3643-13.3635c1.1737-1.1736,2.7655-1.833,4.4253-1.833h15.9708c1.6596,0,3.2512.6593,4.4247,1.8327l4.6863,4.6862-6.1874,6.1879-4.6863-4.6863c-.8558-.8561-1.4332-1.9157-1.6867-3.0697-.1738-.7909-.87-1.3552-1.6798-1.3552h-5.2336c-1.0489,0-1.8512.9277-1.7145,1.9677.4238,3.2252,1.8873,6.2057,4.226,8.5447l4.6867,4.6866-4.686,4.6857c-2.7885,2.7883-4.355,6.5702-4.355,10.5136v3.5956h-3.7657c-1.6713,0-3.2428-.6512-4.4246-1.8322l-13.3647-13.365c-1.9839-1.9843-1.9839-5.2115,0-7.1958Z"/>
</svg>