<svg xmlns="http://www.w3.org/2000/svg" data-name="Layer 1" viewBox="0 0 65 65"><path d="M19.6 13.5c0-1.4 1.1-2.5 2.5-2.5h12.3c1.4 0 2.5 1.1 2.5 2.5v29.4c0 1.4 1.1 2.5 2.5 2.5h3.7c1.4 0 2.5-1.1 2.5-2.5V13.5c0-1.4 1.1-2.5 2.5-2.5h3.7c1.4 0 2.5 1.1 2.5 2.5v30.7c0 1.4-1.1 2.5-2.5 2.5h-3.7a2.5 2.5 0 0 0-2.5 2.5v2.5c0 1.4-1.1 2.5-2.5 2.5H30.8a2.5 2.5 0 0 1-2.5-2.5V22.3c0-1.4-1.1-2.5-2.5-2.5h-3.7a2.5 2.5 0 0 0-2.5 2.5v29.4c0 1.4-1.1 2.5-2.5 2.5h-3.7a2.5 2.5 0 0 1-2.5-2.5V21.2c0-1.4 1.1-2.5 2.5-2.5h3.7c1.4 0 2.5-1.1 2.5-2.5v-2.6Z" style="fill:#000;stroke-width:0"/><path d="M13.5 0h38C59 0 65 6 65 13.5v38C65 59 59 65 51.5 65h-38C6 65 0 59 0 51.5v-38C0 6 6 0 13.5 0m0 6.1a7.4 7.4 0 0 0-7.4 7.4v38c0 4.1 3.3 7.4 7.4 7.4h38c4.1 0 7.4-3.3 7.4-7.4v-38c0-4.1-3.3-7.4-7.4-7.4z" style="fill-rule:evenodd;fill:#000;stroke-width:0"/></svg>