<svg xmlns="http://www.w3.org/2000/svg" width="500" height="500" fill="none"><path fill="#fff" d="M0 0h500v500H0z"/><path fill="#9200E1" d="M102.16 301.9c-25.9-32.21-24.1-79.81 5.4-109.89a79.43 79.43 0 0 1 113.82 0c31.42 32.03 31.42 83.95 0 115.97a79.4 79.4 0 0 1-110.9 2.83l71.06-72.4 8.54 8.69-43.39 44.21a43.66 43.66 0 0 0 49.08-9.42c17.28-17.61 17.28-46.17 0-63.78a43.67 43.67 0 0 0-62.6 0c-15.33 15.63-17.06 39.88-5.17 57.46zm213.64-35.59v-12.26H416c-2.04 42.1-35.3 75.8-76.68 77.6-47.36 2.05-86.3-38.26-83.56-86.49 2.43-42.91 38.49-76.96 80.1-76.96 41.6 0 75.81 32.27 79.84 73.59h-36.44c-3.77-20.93-21.77-36.79-43.4-36.79-27.25 0-48.74 25.17-43.28 53.95 3.38 17.78 17.12 31.74 34.6 35.14 22.31 4.33 42.4-8.48 49.8-27.78z"/></svg>