<svg xmlns="http://www.w3.org/2000/svg" width="92" height="92" fill="none" viewBox="0 0 92 92"><rect width="90.546" height="90.546" x=".659" y=".545" fill="#C4FF61" rx="45.273"/><path fill="#000" fill-opacity=".7" d="M45.858 21.393 34.49 38.435l1.408.857 9.96-14.82z"/><path fill="#000" fill-opacity=".7" d="M57.227 38.468 45.858 21.36v3.08l10.073 15.096zM45.858 25.809l-7.89 11.825v3.08l7.89-11.826zm7.891 11.848-7.89-11.87v3.079l7.89 11.87z"/><path fill="#000" fill-opacity=".7" d="m45.858 42.054 7.891-4.38v3.075l-7.89 4.38zm-7.89-4.402 7.89 4.424v3.075l-7.89-4.424z"/><path fill="#000" fill-opacity=".7" d="m45.858 44.806 11.369-6.31v3.074l-11.369 6.31z"/><path fill="#000" fill-opacity=".7" d="m34.49 38.464 11.368 6.374v3.074L34.49 41.538z"/><path fill="#000" fill-rule="evenodd" d="m45.858 21.689 11.369 17.095-11.369 6.337-11.368-6.37zm-7.89 16.255 7.89-11.837 7.891 11.86-7.89 4.398z" clip-rule="evenodd"/><path fill="#000" fill-opacity=".7" d="m32.049 43.31.361-.541v3.083l-.361.54zm27.126-.542.36.542v3.083l-.36-.542z"/><path fill="#000" d="m32.41 42.768 13.382 7.436v3.073l-13.383-7.436z"/><path fill="#000" fill-opacity=".7" d="m45.793 50.167 13.383-7.362v3.073L45.793 53.24zM29.485 51.66c.001-2.882.842-5.78 2.564-8.344v3.082a14.93 14.93 0 0 0-2.564 8.344zm30.051-8.35c1.728 2.575 2.572 5.481 2.57 8.367v3.076c0-2.884-.843-5.788-2.57-8.362z"/><path fill="#000" d="M29.485 51.672v-.006zc.001 4.008 1.628 7.985 4.772 10.992v3.081c-3.146-3.008-4.772-6.989-4.772-10.998zm0-.006v.006zm32.622.023c0 4.006-1.63 7.973-4.779 10.962v3.081c3.15-2.989 4.778-6.956 4.779-10.962zm-4.779 11.036c-6.376 5.999-16.705 5.97-23.071-.063v3.058c6.366 6.033 16.695 6.062 23.071.064z"/><path fill="#000" d="M45.793 50.211 32.41 42.776l-.361.538a14.85 14.85 0 0 0-2.564 8.319c0 3.999 1.626 7.968 4.772 10.968 6.366 6.062 16.695 6.09 23.071.064 3.15-2.98 4.778-6.936 4.78-10.932 0-2.877-.844-5.774-2.572-8.342l-.36-.541z"/><path fill="#000" d="M46.418 55.759c-7.027-4.824-12.524-4.833-16.877-3.17v3.064c4.353-1.663 9.85-1.653 16.877 3.17z"/><path fill="#000" fill-opacity=".7" d="M60.532 58.362c-2.584 1.98-6.681 2.484-14.114-2.623v3.068c7.433 5.106 11.53 4.603 14.114 2.622z"/><path fill="#000" d="M34.28 62.617c-2.89-2.764-4.498-6.348-4.739-10.022v3.08c.241 3.675 1.85 7.259 4.74 10.023zm26.253-4.27a15.5 15.5 0 0 1-3.18 4.262v3.08a15.5 15.5 0 0 0 3.18-4.262z"/><path fill="#000" d="M57.352 62.676c-6.377 6-16.705 5.972-23.072-.062v3.058c6.367 6.035 16.695 6.063 23.072.063z"/><path fill="#fff" fill-opacity=".2" fill-rule="evenodd" d="M60.532 58.386c-2.584 1.98-6.681 2.483-14.114-2.623-7.027-4.828-12.524-4.838-16.877-3.174.241 3.658 1.85 7.226 4.74 9.978 6.366 6.051 16.694 6.08 23.07.063a15.4 15.4 0 0 0 3.181-4.244" clip-rule="evenodd"/></svg>