<svg width="200" height="201" viewBox="0 0 200 201" fill="none" xmlns="http://www.w3.org/2000/svg"><g clip-path="url(#clip0_1_2)"><path d="M100 0h1l21 2 2 1c22 5 43 19 57 38v1c13 17 19 37 19 58v1l-2 22-1 1c-5 22-18 42-36 56h-1a97 97 0 0 1-60 20h-1c-7 0-14 0-22-2h-1c-22-5-42-18-55-36l-1-1a98 98 0 0 1-20-60v-2l2-21 1-2a98 98 0 0 1 97-76Z" fill="#100E15"/><path d="M94 0h2c9 0 17 0 26 2l2 1c22 5 43 19 57 38v1c13 17 19 37 19 58v1l-2 22-1 1c-5 22-18 42-36 56h-1c-4 4-9 7-14 9l-2 1c-9 5-9 5-12 5v-1l-1-6h-1l2-17h1v-5l-4 12 1-7 1-1 5-14 4-11v-2h1v-3h6l9-1 3-1 9-3-3-2-2-1-1-1h-2l-13-6h-1a53 53 0 0 0-24-4h-1l-2-1 2 1c18 13 18 13 19 19v2l-2-3-7-1c-3 3-4 7-5 10h-1l-1-1c-1-3-5-5-8-7-4-1-5-2-7-6v-5h-1l-2-3h5l3 1v-4c-2-7-7-13-12-18l3 4 1 1 1 2c3 3 5 6 5 9-4 0-6-1-9-3l-1-1c-5-3-9-7-12-11a38 38 0 0 0-10-7l-6-4 1-2h1c3-1 4-3 5-5l1-1c2-2 2-4 3-7l1-3v7l1-5v-2l-1-1v-3a1135 1135 0 0 0 1-20h1v2l3 12v-1c-2-8-1-15 0-23h3v1h1v2h1v-3h2l1 1v3l2 6 7 2h2l2-1 1-3 2-1v1h1l1 2v-1h2l1 2 1 4-1 1-1 4-2 5h1l1 5V61h1v3h1c1 8 2 17-2 25l-1 1v1l1-1v-1l1-2 2-2v3-3l1-7v-3l1-2v-6l-1-4v-1l1-2h-1v-7h3l-1-4 1-1v-3l1-2c1-5 0-11-1-16v6l-1 5-1-3v-7h-1v-1l-4-12-1-1c-1-3-1-3-4-5h-1l-1-1-2-1-2 2V8h-1V6h1l-4-2v1l2 1-2 1V6h-4l-1-1c-1-2-3-2-5-2h-4l2-1h-7c2-2 6-2 9-2Z" fill="#E39171"/><path d="M85 68c1 17 1 17-5 23h-1l-1 1-2 1-2 2 1 1c7 2 12 7 16 12l10 8h1l3 2 1 1 6 2c-2-5-4-8-8-12l-1-2-1-1-1-1 1-1 10 13 1 1c1 3 2 5 1 9l-3-1v1l-5-1 1 1 1 2h1v2l1 2c0 3 0 3 2 5l4 2c3 2 6 3 8 6l1 2h1v-1l4-9h5l3 1 2 2c-2-7-9-12-15-16l-1-1h-1l-1-1-1-1-3-3 1 1h6l11 1 1 1c10 2 18 6 27 10h1l4 3c-3 2-6 2-10 3l-5 2h-13v6l-1-3v1c0 5-2 8-4 12l-7 21 4-12 1 5-1 1v2l-1 5v3l-1 2v2l-1 3h2v2l1 1c0 2 0 3-2 5l-5 1-1 1-5 1h-1c-13 3-29 2-42-1h-1a95 95 0 0 1-20-7l-2-3v-6h-1c-3-1-4-3-6-5l-1-4v-1l-1-1-1-6v-1l-1-4 6 1h3l1-1v-5l-1 1h-2v-8c0-8 1-14 3-22v-1l2-3h-1l-1-1-1-1v-3c0-2 1-2 3-3l1-3-2 1 1-2h-1l-1-2 2-2 1-3 4-5h1v-1c3-2 5-3 8-3s5-1 7-3l3-1 1-2 2-4v-2l2-5v-1l1-8Z" fill="#792917"/><path d="M94 0h2c9 0 17 0 26 2l2 1c22 5 43 19 57 38v1c12 16 19 36 19 56l-2 1-2-2v-1l-4-1v1c-4 2-8 2-12 2v-1l-1-1-2-1-2-1h-3l-1-1h-7l-5 1-2 2h-12v-7h-1v-2h-8v3h-3v1c0 5 0 5-2 6l-1 1-1 1-2 2h-1l-1 1h-1c-5 2-9 4-13 4l-3-3c-2-3-4-4-8-5l-1-2h-3l3-2c5-2 7-4 9-9l1-2v3l1 2-2 3 1 1h-1v1l3-5 2 1v-2l1-3 1-5v-2l1-5 2-4 1 5V61h1v3h1c1 8 2 17-2 25l-1 1v1l1-1v-1l1-2 2-2v3-3l1-7v-3l1-2v-6l-1-4v-1l1-2h-1v-7h3l-1-4 1-1v-3l1-2c1-5 0-11-1-16v6l-1 5-1-3v-7h-1v-1l-4-12-1-1c-1-3-1-3-4-5h-1l-1-1-2-1-2 2V8h-1V6h1l-4-2v1l2 1-2 1V6h-4l-1-1c-1-2-3-2-5-2h-4l2-1h-7c2-2 6-2 9-2Z" fill="#F4BC97"/><path d="M94 0h2c9 0 17 0 26 2l2 1c24 6 45 21 59 42l1 1 4 6-2 1 1 2h-6l-1-1v-1h-3v-1l-3 1-1 1-1 1v1h-1v1h-3v-3l-1-3h-3l-1 2-5-2v-1a38 38 0 0 0-11 0h-4v-1h-2v1l-1-1h-5l1 1v4h1v1l2 1-1 1-6-2h-5l1 1 1 4v1l1 1v4h4v-1l2-1h1l1 2h6l1-1h6v-1h4l1 1h5l1 4 1 2h1l2 1h1v1h2l1 4v1h-3v-1l-2 1h-4l-1-1v-2h-1v1l-6-2 1 3h-6l-1-1-4-1-4-1h-4l1 2h-4l-1 1v1l-1 2v1l-2 1 1-1 1-6h-5v8l-2 2V75l1-2v-6l-1-4v-1l1-2h-1v-7h3l-1-4 1-1v-3l1-2c1-5 0-11-1-16v6l-1 5-1-3v-7h-1v-1l-4-12-1-1c-1-3-1-3-4-5h-1l-1-1-2-1-2 2V8h-1V6h1l-4-2v1l2 1-2 1V6h-4l-1-1c-1-2-3-2-5-2h-4l2-1h-7c2-2 6-2 9-2Z" fill="#D58877"/><path d="M75 4h-1c-7 4-12 8-16 15l-1 2c-2 2-3 4-3 7l-1 6v1l-1 3-1 2v1l-1 2-2 6v1l-5 8-1 2-11 10c-3 3-6 5-8 9v1c-2 3-2 9-1 12h1v-1c-2-4-1-8 0-12l10-10-1 4c-2 2-2 3-2 6l-1 2v8l2-1-1-3c0-7 2-11 6-16l8-7 6-5-3 7-1 1-1 3-1 2-2 5h1v-2l5-10-1 4v1l-1 1-1 2-1 4v2l-1 2v1h-2v1h-1v1h-1v3h5l-1 1h-1l-1 2-4 2h-2l-6 3v1l-3 2v-1h-1l-3 1-2 1-2-1v-1h-6v1l-6-2v-1H5c-2 0-2-1-3-2l1 2v1l2 3H3l-2 1H0a102 102 0 0 1 40-78l1-1c9-7 19-11 29-15h5Z" fill="#816579"/><path d="m92 2 1 1h3c3 0 4 1 5 3h4-1 1l-2-1 1-1h5l-2 1 2 1-2 1h3l3 1 2 1c5 4 7 12 8 17h1l1 6v4h1l-1-1v-6l1-3c2 6 3 12 1 19v3l-1 1v6-2h-3v3l1 2v3h-1l1 1v16l-1 7-2 4v-3 1l-1 1-1 2-1 1h-1l1-2c4-6 4-15 3-22l-1 3-1-5v12l-1-4v-7l1-4 1-3v-1l-1-3v-3h-2v2l-1-3h-1v-1l-1 1-1 1-1 2h-9l-3-4-1-7h3v1h-1l1 1h1l1-1 1-1 2 2v-1h1v-2c-2-2-3-1-5-1h-4v-1h-1l-6 2c1-5 1-5 3-6l1-1 3-2v-1l2-2h1v-2l1-1h-1l-1 1-1 1v-4h-1v1h-1l1-2-2 1-1-1 1-3-2 4-4 1v-1l-6-1v-2 1c-1 4-3 7-6 11l-1 1-4 5v-1h1l1-4-4 3 4-7 4-6h-1l-4-2h-3v1l-1 1-1-2-3-1h-2l-1 1-1-1 1-2c-3 3-4 6-5 10l-1 1-1 5-1 4-2 13c-1 6-2 12-5 18v1l-5 7v-1l-1-2 2-5 2-6-4 10h-1l2-7h1l1-3 1-2 2-5-1 1-3 3-1 1-2 1c-4 3-7 6-9 10l-1 1-1 12 1 1-3 2-1-1v-4l1-5v-2l4-8c-7 5-7 5-10 13-1 3-1 6 1 9h-2c-2-2-1-6-1-9 2-7 7-12 12-15h1v-3l1 1c5-4 8-9 11-14l1-1 1-2 1-2c2-4 2-9 2-14l1 2 1-3v-1l1-5 2-4v-1a201 201 0 0 1 3-4c3-6 7-9 12-12l1-1c6-3 13-3 20-2Z" fill="#151520"/><path d="m68 96-5 6h-1v1l-1 2h1l-1 1-1 1h3v-1h2l1 1h2v1l4 3 1 1v2l-1-1 1 1v2l1 2v3l-1-2 3 10c1 2 2 4 1 7h-1v-3h-2c-1 3 0 5 2 8 1 2 2 4 1 7l-6 3 5-1v1h1v2l-3 1h1v8l-1 12v8l-1 1 2 4 1 2-1 2v6c-4 0-7-1-10-3h-2l-3-2h-2l-4-3v-7h-1c-3-1-4-3-6-5l-1-4v-1l-1-1-1-6v-1l-1-4 6 1h3l1-1v-5l-1 1h-2v-8c0-8 1-14 3-22v-1l2-3h-1l-1-1-1-1v-3c0-2 1-2 3-3l1-3-2 1 1-2h-1l-1-2 2-2v-3l4-2 3-2c2-3 3-3 6-3Z" fill="#7E2A18"/><path d="M169 135h1l14 4 2 1h3l1 1h1c-4 15-17 29-30 39h-1c-4 4-9 7-14 9l-2 1c-9 5-9 5-12 5v-1l-1-6h-1l2-17h1v-5l-4 12 1-7 1-1 5-14 4-11v-2h1v-3h6l9-1 3-1 10-3Z" fill="#CC724C"/><path d="M55 103h1l-2 4v3h2l-1 1 1-1-3 6h-1l1 4 1 1v1h1v-2 3c-4 9-5 17-4 26l-1 2v3l2 1h-1 3-1v5l-4 2-1-1v-1h-5l1 5v1l3 6-1 1c1 4 3 6 6 8l2 1v-7l1 14-7-3h-1c-10-7-19-15-26-24l-1-1-11-18 1-1v-1c-1-3 2-7 4-10l11-10c0 2-1 3-3 5v1l-6 8 2-2c5-5 5-5 7-5v2l11-8 2-2c2 0 2-1 3-2l1-1 1-1a614 614 0 0 1 6-7v-1l3-4v1l-1 2-1 8v6-5l1-1c0-5 1-9 4-12Z" fill="#311A17"/><path d="m98 43 1 1v3l2 6 7 2h2l2-1 1-3 2-1v1h1l1 2v-1h2l1 2 1 4-1 1-1 4c-1 4-3 7-6 11-2 2-1 5-1 8l-2 6v-9l-1 1h-3v2c0 4-2 7-5 10l-6 3 1 1 6 8 3 5 1 2 1 1c5 6 5 6 5 9-4 0-6-1-9-3l-1-1c-5-3-9-7-12-11a38 38 0 0 0-10-7l-6-4 1-2h1c3-1 4-3 5-5l1-1c2-2 2-4 3-7l1-3v7l1-5v-2l-1-1v-3a1135 1135 0 0 0 1-20h1v2l3 12v-1c-2-8-1-15 0-23h3v1h1v2h1v-3h2Z" fill="#A16F70"/><path d="M94 0h2c9 0 17 0 26 2l2 1c23 5 43 19 57 38l-1 1-2 2h-4l-1 3-4-1v-4h-6l-1 1-2-2v-2h-1l-2-1v-1h-6l-1-1-2-2-4 2-2-1v-1l-1-2-4-1h-1l-1-3c-1-2-2-2-4-2l-4-5-5-6v-1h-1l-2-2v-1l-1-1-4-2-1-1-2-1-3 3V8h-1V6h1l-4-2v1l2 1-2 1V6h-4l-1-1c-1-2-3-2-5-2h-4l2-1h-7c2-2 6-2 9-2Z" fill="#919BB4"/><path d="M119 61h1v3h1c1 8 2 17-2 25l-1 1v1l1-1v-1l1-2 2-2v3-3l1-6h1v5l1-10 5 1c0 4 0 4-2 7l3-4v-2l1-1h3v-1h6l3 1 4 1h1l4 1v-3h1l2 1h4v2h7l1 3 1-1h9l1 2-3 2 1 2h1l3 1h2l3 1h4v1a10245 10245 0 0 1-37-1h-1l-9-1v1h-7v3h-3v1c0 5 0 5-2 6l-1 1-1 1-2 2h-1l-1 1h-1c-5 2-9 4-13 4l-3-3c-2-3-4-4-8-5l-1-2h-3l3-2c5-2 7-4 9-9l1-2v3l1 2-2 3 1 1h-1v1l3-5 2 1v-2l1-3 1-5v-2l1-5 2-4 1 5V61Z" fill="#FAC896"/><path d="M97 20c1 2 0 2-1 4h3l-1 2h1v-1h1v3l3-1v4l-1-1-1 1a207 207 0 0 1-4 4l-4 2-1 5 2-1 3-1h1l1-1 1 1h3l5 1v3h-1l1 3-3-4-1 2v-1l-1 2-2-1 1-1-1-1-1 1v-1h-1l2 4h-2l3 6 9 1v1c-4 0-7 0-10-2-3-3-3-7-3-10h-2v3h-1v-2h-1v-1h-3v25c-2-3-3-9-4-13v13a1438 1438 0 0 0 0 8v1l-1 9h-1V72v2l-1 3v1l-2 6v1c-2 4-5 6-8 8l-2 1h-3l-5 2v-1l6-3c3 0 5-1 6-3 4-5 4-10 4-16v-6l-2 3v-3l1-7h1v-9l-1-3h-1v-1l-2-4h-4c-2 1-3 3-3 6 0 4 3 6 6 9l3 2h-1l1 2v4h-1l-1 3-2-6-3-5 4 10c3 4 3 4 2 6l-1 3 1 4-1 2h-1l-1-2a63 63 0 0 0-3-17l-1-2-1-8v8l-2 2-1-4v-3a54 54 0 0 1 2-18l3-11 1-1 2-5 2 1v1h2l2 1c0 2-2 4-4 6l-1 2-1 1-1 3 1-1 2-1-1 4h-1v1l4-5 1-2 1-1 2-2 2-5 1-4v3h5l1 1v1l3-1 2-3 1-1v-1Z" fill="#1A1219"/><path d="m49 57 1 1-2 4-1 1a822 822 0 0 1-5 12h1v-2l5-10-1 4v1l-1 1-1 2-1 4v2l-1 2v1h-2v1h-1v1h-1v3h5l-1 1h-1l-1 2-4 2h-2l-6 3v1l-3 2v-1h-1l-3 1-2 1-2-1v-1h-6v1l-6-2v-1H5c-2 0-2-1-3-2l1 2v1l2 3H3l-2 1H0l1-14v-2l2-7 3 1 1 1c2 0 4 1 5 3h1l-1-3v-1l-2-1H9l-1-2v-6l1-7 3-1 5-1h3a3490 3490 0 0 1 0 11v5l-1 5h2v3h1v10h1v-1c-2-4-1-8 0-12l10-10-1 4c-2 2-2 3-2 6l-1 2v8l2-1-1-3c0-7 2-11 6-16l8-7 5-5Z" fill="#13121E"/><path d="M115 11c4 3 5 8 6 13l-1 7-1-4-2 3 1 3c1 3 0 5-1 8l2-4h1v5l1-5 2-1v-5l1-5 1 6v4h1l-1-1v-6l1-3c2 6 3 12 1 19v3l-1 1v6-2h-3v3l1 2v3h-1l1 1v16l-1 7-2 4v-3 1l-1 1-1 2-1 1h-1l1-2c4-6 4-15 3-22l-1 3-1-5v12l-1-4v-7l1-4 1-3v-1l-1-3v-3h-2v2l-1-3h-1v-1l-1 1-1 1-1 2h-9l-3-4-1-7h3v1h-1l1 1h1l1-1 1-1 2 2v-1h1v-2c-2-2-3-1-5-1h-4v-1h-1l-6 2c1-5 1-5 3-6l1-1 3-2v-1l2-2h1v-2l1-1h-1l-1 1-1 1v-4h-1v1h-1l1-2-2 1-1-1 1-2v-1l1-2h1l1 1 1 1 1-2h1v-1l1 4h2v1h2v2l1-4h3v-1h5l-2-9Z" fill="#21151B"/><path d="M75 154v8l-1 12v8l-1 1 2 4 1 2-1 2v6c-4 0-7-1-10-3h-2l-3-2h-2l-4-3v-7h-1c-3-1-4-3-6-5l-1-4v-1l-1-1-1-6-1-1 1-4 1 1c1 2 2 2 4 2v-1l1 1 1 1 2 1v2l-4-2 4 3 1-11 3-1h4a721 721 0 0 1 6 0h1l7-2Z" fill="#906A6C"/><path d="m135 160 1 2h2l4 1c12 2 24 1 36-1l-4 6-1 1-2 2-1 1-9 8h-1c-4 4-9 7-14 9l-2 1c-9 5-9 5-12 5v-1l-1-6h-1l2-17h1v-1l2-10Z" fill="#814A41"/><path d="M129 25h2v1h1l3 1 1 4h2c2 0 3 0 4 2l1 2 1 1 1-1 3-1c1 0 2 0 3 2l1 1h5l1 1 1 1h1l1 3h8v4h1l3 1 1-3h4l1-2 1-1h1l2 2v1l1 2 1 1 3 5-2 1 1 2h-6l-1-1v-1h-3v-1l-3 1-1 1-1 1v1h-1v1h-3v-3l-1-3h-3l-1 2-5-2v-1a38 38 0 0 0-11 0h-4v-1h-2v1l-5-3-3-1-1 1v-7l-2 2V30l2 5v1l1 2-3-11-1-2Z" fill="#B6726F"/><path d="M87 53h1c0 4 1 6-1 9 0 5 0 5 2 9l3 1 1 1 1 1v-1l1 1 2 1 2 1 3 1v1l2 1v1h-2v2l-2 7-2 1 1-1 1-8 1-2c-2 0-2 2-2 3l-4 7-1 1 1 1h-1l-2 3 3-1-1 2 2 1 1 2 2 1 3 5 3 5 1 2 1 1c5 6 5 6 5 9-4 0-6-1-9-3l-1-1c-5-3-9-7-12-11a38 38 0 0 0-10-7l-6-4 1-2h1c3-1 4-3 5-5l1-1c2-2 2-4 3-7l1-3v7l1-5v-2l-1-1v-3a1135 1135 0 0 0 1-20Z" fill="#976F70"/><path d="m116 69 1 3-1 1v3c-1 7-1 7-3 10v3h-2l-1 1-2 4v-1l-1-2 1-1 1-3v-3l-1 1c-2 6-5 8-11 11h2v1h1c4 1 6 3 8 5l1 5 1 1v3l-2-2 7 7 4 4 6 4c14 10 14 10 15 16v2l-2-3-7-1c-3 3-4 7-5 10h-1l-1-1c-1-3-5-5-8-7-4-1-5-2-7-6v-5h-1l-2-3h5l3 1v-4c-2-6-5-11-9-15l-4-6-7-6 1-1 2-1c3-1 5-2 6-5l3-9h-1 4l2-2-1 8 1-8c0-3 2-5 3-7l2-1v-1Z" fill="#F47719"/><path d="M136 87h7v2l1 3v1l1 9 3 2 1 2 4 3 3 1v3l-3 1h-2l-2-1h-3l-3 1h-30l-1 1-1-1-1-1-1-2-1-1v-2l2 2-1-2v-3l1 1c5-1 10-2 15-5l3-1 2-2v-1l2-1v-3l1-2v-1h3v-3Z" fill="#955F5F"/><path d="M17 45h2v1h1v3l3 1v1h4l2-1h7l7 2v3l3-2-4 6-1 1a284 284 0 0 1-3 4l-3 3-2 1-4 3c-3 3-6 7-7 11h-1v-3h-2l1-21-5 1-6 1v14l2 1 2 2v3c-2 0-2-1-3-2l-2-1-3-1-1-1H3c2-8 5-15 9-23l1-1 4-6Z" fill="#D0AAA0"/><path d="m110 160 1 1-2 4v1l-2 3h-1l-1 3h-1v3h-1v1l-2 4-1 3-4 4c-5 5-11 7-18 9 4 1 6 0 8-2l4-2h2v-1l3-2 4-4h1l1-1 2-3 1-1 1-1 1-1a1264 1264 0 0 1 3-1h-1v2l-2 3a263 263 0 0 0-2 5l2-1h2v-1l4-3 1-1h1v1l-3 2-1 1-7 5-1 1h3v1l-1 1h-2l-2 1-2 1-7 2h-1c-5 1-9 2-14 1l-1-4-1-2 2-2-2-4-1 2a593 593 0 0 1 2-12h1l4 3 2-2v3h4l8-3 2-1v-1l2-1 5-6 4-4 1-1 1-1v-1l1-1Z" fill="#54150C"/><path d="m180 78 5 1v1h1l12 1 2 17-2 1-2-2v-1l-4-1v1c-4 2-8 2-12 2v-1l-1-1-2-1-2-1h-3l-1-1h-7l-5 1-2 2h-12v-7h-1l-1-3h1l42 1-3-1-4-1h-1l-2-2-1-1 4-1v-1l2-1-1-1Z" fill="#FBDA9B"/><path d="M166 92h1l6 2 3-1v2l2 1 2 1v1h4l1-1 6-1h1v-1h3l3 3v1l2-1v8h-25v1l-7 1h-7l-3-2h-2l-4-3h-1c-2-1-2-2-2-3l-3-4h2l9-1 2-1c2-2 4-2 7-2Z" fill="#D99687"/><path d="m63 11 2 1-1 1 1 2v-1l3 1 1 1h3l3 1h1l-3 6-1-2-1 1v1h-1l-1-1h-3l-2 1-1-1 1-2c-3 3-4 6-5 10l-1 1-1 5-1 4-2 13c-1 6-2 12-5 18v1l-5 7v-1l-1-2 2-5 2-6-4 10h-1l2-7h1l1-3 1-2 2-5-1 1-3 3-1 1-2 1c-4 3-7 6-9 10l-1 1-1 12 1 1-3 2-1-1v-4l1-5v-2l4-8c-7 5-7 5-10 13-1 3-1 6 1 9h-2c-2-2-1-6-1-9 2-7 7-12 12-15h1v-3l1 1c5-4 8-9 11-14l1-1 1-2 1-2c2-4 2-9 2-14l1 2 1-3v-1l1-5 2-4v-1a252 252 0 0 1 3-5l4-5Z" fill="#1A2138"/><path d="m144 99 4 1-1 1 4 3h-2l1 1 3 2v1c8 3 17 5 26 5l3 1-1 1h-5l-4 1v2h-4v1h6v-1h-1 2l1 2h5v1l-5 1-4 1h10v1h-5l-15-1h-8 2l1 1h2c11 0 11 0 16 3h1v1c-11 0-19-3-29-6-7-3-14-4-21-5h-8l-1-1h-2l-3-2h7a1343 1343 0 0 1 9 0h4l1-1 5 1 2-1h15v-3h-1l-1-1-3-1-3-3-2-2-1-3v-1Z" fill="#CD7C61"/><path d="m118 119 1 1h6l11 1 1 1c10 2 18 6 27 10h1l4 3c-3 2-6 2-10 3l-5 2h-13v6-1l-1-2h-1l1-1c0-3-2-6-4-8l-13-10-1-1-1-1-3-3Z" fill="#844C45"/><path d="M119 61h1v3h1c1 8 2 17-2 25l-2 2h3l-1 1h-1v1h1l3 1 6 1 4 1-1 1-1 1-4 3-1 1-9 3-1 1h-6l-1-2c-1-3-3-5-6-6h-2l-1-2h-3l3-2c5-2 7-4 9-9l1-2v3l1 2-2 3 1 1h-1v1l3-5 2 1v-2l1-3 1-5v-2l1-5 2-4 1 5V61Z" fill="#B38A93"/><path d="m72 113 2 2 1 1v1l1 1-1-4 2 4v-4l1 2 1-3 1 4 1 2v6l1-9h1v10l2-9 1 3 1-2v5l-1 1-4 8 2-1 1-2h1l1-2h1v-1l3-2v2l-2 2h-1v1l-2 2-4 4 1-1 4-1 1-2h1v2l-2 2-4 3 7-4h3v1h-1v2l-4 1-8 5 1-1 7-1h2l-1 1-2 1-4 1h2l1 1h2l2 2v1h-8l3 1v1l2 1-1 1-3-2h-2l-1-1v1l1 1h-1l-1 1-2 2-1 2v1h-1v-2h-4l4-2h2v-2h-1v-1h-2l-1 1h-5l5-2 4-1-3-9-1-7h2v1l1 1 1 2-3-12-1-6 1 1-1-1v-1l-1-2v-2Z" fill="#4A0A04"/><path d="M139 153h2a101 101 0 0 0 43 1l-1 3-1 1-1 2-1 1c-2 2-4 2-7 2l-2 1c-11 1-24 1-35-2l2-6 1-2v-1Z" fill="#F19556"/><path d="M114 116h8l5 1c8 0 14 2 21 5l24 7v2l4 1 7 1 5 1 6 1-1 2v1l-1 3-14-2-1-1-9-3c-5-4-11-6-17-8l-5-2c-6-2-12-5-18-4-8 0-8 0-11-2l-3-3Z" fill="#F3A667"/><path d="M75 4h-1c-7 4-12 8-16 15l-1 2c-2 2-3 4-3 7l-1 6v1l-1 3-1-5h-1v-1h-2l-5-2v-1l-2-1v-1h-2l-2-1v-2h-2c8-7 29-24 40-20Z" fill="#726177"/><path d="m106 158 1 1-1 1h-1l-1 3 1-1h3l-2 4-1 1-1 1-1 1-5 5v1h-2v1c-5 3-8 4-14 4v-4h-2v-7h-1v-1l-1-1v-3l-1-1 1-3h3v1l3 1h1v1l3 1v1h12v-1h1c2-1 2-1 2-3v-1l3-2Z" fill="#762615"/><path d="m74 22 2 1v1h2l2 1c0 2-2 4-4 6l-1 2-1 1-1 3 1-1 2-1-1 4h-1v1l4-5 1-2 1-1 2-2 1-4 1-1v-1l-1 11-2 10h-1v-3h-7l-3 2-1 7 7 8 2 1h-1l1 2v4h-1l-1 3-2-6-3-5 4 10c3 4 3 4 2 6l-1 3 1 4-1 2h-1l-1-2a63 63 0 0 0-3-17l-1-2-1-8v8l-2 2-1-4v-3a54 54 0 0 1 2-18l3-11 1-1 2-5Z" fill="#08060B"/><path d="M103 4h6l-2 1 2 1-2 1h3l3 1 2 1c4 3 5 8 7 12v2c2 4 2 8 1 12v1l-2 1v3l-1 1v2l-1-5v1l-3 3 1-1 1-8-1-1v-4l1-1v-1c2 1 2 2 2 3 1-7-1-11-4-17v1c1 3 2 5 1 8l-1-1-2 1-2-1v1h-2l-1 4v2l-1-4h-2v-1h-1v1h-1l-1-3h-1l-2 2-3-4 4-6 1-2 3-4-2-1V4Z" fill="#16141F"/><path d="M94 80v5l-1 2v9l6 4 3 4 3 5 1 2 1 1c5 6 5 6 5 9-4 0-6-1-9-3l-1-1-16-14-3-3h8l-3-3h3v1-1c-1-3-2-6-1-10l1-1 1-3 2-3Z" fill="#B2756C"/><path d="M74 42c2 0 3 1 4 3v3h1c2 2 2 2 1 4v8h-1v1c1 3 0 6-1 9l2-4 1 6v2c0 5-1 11-4 15-3 3-5 4-8 4l1-1 4-8 2-3v-1l1-6-2-5c-4-7-4-7-4-11h1v1h1v2l1 1v2l1 1 1 3 1-3v-4l1-1-1-1c-3-1-7-4-8-7s-1-5 1-8c1-2 2-2 4-2Z" fill="#91666A"/><path d="M126 26c3 4 2 11 2 16l-1 3v3l-1 1v6-2h-3v3l1 2v3h-1l1 1v16l-1 7-2 4v-3 1l-1 1-1 2-1 1h-1l1-2c4-6 4-15 3-22l-1 3-1-5v12l-1-4v-7l1-4 1-3v-1l-1-3v-3h-2v2l-1-3h-1v-1l-1 1-2 3h-1l1-3h-2l1-2 2 1 1-2v1h2l2-2 2-1v2h2l-1-3h-2l-1-2h2l1-6 2-1v-5l1-5 1 6v4h1l-1-1v-6l1-3Z" fill="#69270D"/><path d="m111 6 8 5v1l2 1v1h1c7 8 12 18 11 29v1-2l-1-2v-4l-2-5v9h1l1-2v9l3-1 2 2-2 1 1 1v4h1v1l2 1-1 1-5-1c-2-1-3-2-6-1l-2-6 2-3-1-1 1-2c1-5 0-11-1-16v5a315 315 0 0 1-1 6l-1-3v-7h-1v-1l-4-12-1-1-3-5h-2l-3-2 1-1Z" fill="#E19767"/><path d="M20 58a3490 3490 0 0 1 0 11v5l-1 5h2v3h1l-1 6v-1l-1-1-3-2h-1l-1-1v-1h-1l-6-4-5-2 1-1 5 2 1 1 2 2h1l-1-3v-1l-2-1H9l-1-2v-6l1-7 3-1 5-1h3Z" fill="#6E444C"/><path d="M153 16c10 3 21 15 27 23v1h-3l-1-2v-2h-1l-7-2-1-3h-8l1 3-5-1-1-2h-1v-1h-1l-8-2v1h-4l-2-4v-1l4 1h4l1-2 5 1v1h4v-2l1-1v-2l-2-1-1-1-1-2Z" fill="#9D6A73"/><path d="m75 154-1 30h-1v-1l-1-23-16-2v32h-1l-1-8-2-1c-3-2-5-4-6-8v-1l-1-1-1-6-1-1 1-4 1 1c1 2 2 2 4 2v-1l1 1 1 1 2 1v2l-4-2 4 3 1-11 3-1h4a721 721 0 0 1 6 0h1l7-2Z" fill="#6E3637"/><path d="m6 98-3 2h9l4-1h11l-1 1-2 2 1 3-2 1 1 1-10 3-2 1H5l-1 1H1l-1-5v-8l6-1Z" fill="#191724"/><path d="m139 28 5 1v-1l6 1 2 1h1v1h1l1 1c1 2 3 2 5 2l-1-3h8l1 3h1l7 2v1l3 3h1l1 1-1 1-2 2h-4l-1 3-4-1v-4h-6l-1 1-2-2v-2h-1l-2-1v-1h-3v-1l-1-1-1-1-1-2-8-1-4-2v-1Z" fill="#D6ACA0"/><path d="m132 173 1 2h2l2 1v1l3 2h1l1 2 2 1 3 1 1 1 3 3-14 7h-2l-3 1v-1l-1-6h-1l2-15Z" fill="#EA8A53"/><path d="m23 112-1 1c-2 0-2 1-2 2l-3 3v1h1l1-2 1 1-1 1-2 2-2 3h-1v1l-2 3-3 7v2l-1 1-2-2v-1l-1-1v-2l-1-1-2-10h1v-1l2-2 1-1 10-4 2-1h5Z" fill="#1F1720"/><path d="M3 76c3 0 5 2 8 4l4 2v1l1 1c3 1 4 2 5 4l1 4-8 1h-2l-7-1-2-1-1-4 3-4 4-1c-3 0-5 1-8 3l2-9Z" fill="#E78A5F"/><path d="m49 57 1 1-2 4-1 1a822 822 0 0 1-5 12h1v-2l5-10-1 4v1l-1 1-1 2-1 4v2l-1 2v1h-2v1h-1v1l-2 1v1l-1-1 2-2-1 1-5 4-2-2c-1-5 1-9 4-14l9-8 5-5Z" fill="#997F93"/><path d="m188 70 2 1a78 78 0 0 0 4 2v-1h2l1 4v1l1 4-13-1v-1h-4l1 1h-14l-1-2h3v-2l-1-3 1 2h3v-1l1-1 7-1 7-2Z" fill="#F09C74"/><path d="m90 124 1 2-2 2h-1v1l-2 2-4 4 1-1 4-1 1-2h1v2l-2 2-4 3 7-4h3v1h-1v2l-4 1-8 5 1-1 7-1h2l-1 1-2 1-4 1h2l1 1h2l2 2v1h-8l3 1v1l2 1-1 1-3-2h-2l-1-1v1l1 1h-1l-1 1-2 2-1 2v1h-1v-2h-4l4-2h2v-2h-1v-1h-2l-1 1h-5l5-2 4-1v-4h1v-2l2-10h1l1-1v1l2-1 1-2h1l1-2h1v-1l2-2Z" fill="#360704"/><path d="M87 53h1c0 4 1 6-1 9 0 5 0 5 2 9l3 1 1 1 1 1v-1l1 1 2 1 2 1 3 1v1l2 1v1h-2v2l-2 7-2 1 1-1 1-8 1-2c-2 0-2 2-2 3l-4 7-1 1 1 1h-1l-2 3 3-1-1 2 1 1 1 1 2 1v1h-2l-4-4 1-10v-1l1-3-1 1-2 1-2-2v-1c-4-5-3-17-2-24v-3Z" fill="#803832"/><path d="M119 37h1l-1 6v2l1-1 1 1h1v1l1 1-1 1 2 1-5-2-2 2h-3l-1 1h-2l-1 1h3l-3 4-9-2c-2-3-2-6-2-10h3v1h-1l1 1h1l1-1 1-1 2 2v-1h1v-2l-2-1h2c2 0 4 1 5 3l2-1 2-1 2-5Z" fill="#A86D6E"/><path d="m133 165 1 5-1 1v2l-1 5v3l-1 2v2l-1 3h2v2l1 1c0 2 0 3-2 5l-5 1-2 1-12 2c2-2 3-2 5-2v-2l2-1 5-7 1-2 1 1 1-1 1-4 3-10 1-2 1-5Z" fill="#772313"/><path d="M178 117h5l5 1h4v-1h4l3 1-2 7-1-1h-6v1h-1l-2 1h-4v-1l-6 1-5-1v-1l10-1h-11l3-1v-1h7v-1h-5l4-1v-1l-2-1Z" fill="#DD845F"/><path d="M173 136c3 2 7 3 11 3l2 1h3l1 1h1l-1 3-20-2-14-1v-1h-4c3-2 6-2 10-3l4-2c3-1 4 0 7 1Z" fill="#C56F4B"/><path d="M168 130h4v1l4 1 7 1 5 1 6 1-1 2v1l-1 3-14-2-2-1-4-1v-2l-4-2v-3Z" fill="#F1985A"/><path d="m150 82 2 1h12v1h4l2-1h6l1 2h1l3 1h2l3 1h4v1a10245 10245 0 0 1-37-1h-1l-9-1v1h-3 3v-1h-2l-5-1 5-1h2l2-1h3v-1h2Z" fill="#EFA97E"/><path d="M119 61h1v3h1c1 9 2 18-3 26l-1 1h-2v1l-5-1 1-2h2v-2l1-3 1-5v-2l1-5 2-4 1 5V61Z" fill="#F7C59B"/><path d="m142 19 2 2v1l-2 1v1h-4l1 1 1 3 1 2h3l8 2v2l1 1 1 2-2 1-1-2-3-2-4 2-2-1v-1l-1-2-4-1h-1l-1-3-3-2-3-1v-2l-1-1v-1h1v-1l3-1 2 3h4l1-2h-1v-2c1-1 3 0 4 1Z" fill="#AD9FAA"/><path d="M25 121c0 2-1 3-3 5v1l-6 8 2-2c5-5 5-5 7-5 0 3 0 5-2 7h-1l-1 1-3 2-2 2-3 3-2 1-1 1-1-3h1v-1c-1-3 2-7 4-10l11-10Z" fill="#201B23"/><path d="m71 58 1 1h1v2l1 1v2l1 1 1 3 1-3v-4l1-2h2v1h-1v1c1 3 0 6-1 9l2-4 1 6v2c0 5-1 11-4 15-3 3-5 4-8 4l1-1 4-8 2-3v-1l1-6-2-5c-4-7-4-7-4-11Z" fill="#151217"/><path d="m20 58 2 1v1h1l2 1v5h1l3 2 2 1-3 4c-3 2-5 6-6 9h-1v-3h-2l1-21Z" fill="#D56A3C"/><path d="m100 31-2 4-1 1-1 1h1c2-2 4-2 6-2l7 3v-2l1 2 1-4v2h1v-1h1l1 1 3-1c1 3 0 4-1 7l-4 2-2-2-8-1h-4v-1h-1l-6 2c1-5 1-5 3-6l1-1 3-2v-1l1-1Z" fill="#4A1E1B"/><path d="m35 160 2 5 4 9 1 1 3 3v1c3 3 5 3 9 4v6l-7-4h-1l-10-8h3l-2-1-4-4 1-5 1-7Z" fill="#A35746"/><path d="M136 87h7v2l1 3v1l1 10h-1l-1-3h-3l-2-1h-2l-1 1h-3v-1h-1v-2l1-4 1-2v-1h3v-3Z" fill="#8B5652"/><path d="M68 52h1v1l3 14c2 7 4 13 1 20v-4l-2 4h-1v2h-1v1c-2 3-2 3-4 3v-1l3-6v-1c2-6 2-12 0-18V52Z" fill="#17141A"/><path d="M126 52h1v1l3 10v3l-1-1 1 1v9h-5v8l-2 2V75l1-2v-6l-1-4v-1l1-2h-1v-7h1l2-1Z" fill="#C58078"/><path d="m43 158 1 6 2 7 1 2h-1c2 5 2 5 6 8l2 1v-7l1 14h-1v-6h-3c-2-1-4-1-5-3l-2-1-4-5v-1c-2-3-3-5-3-8l3-1-1 4 2-1v-2l-1-1v-5l1 1 1-1 1-1Z" fill="#673120"/><path d="m63 11 2 1-1 1 1 2v-1l3 1 1 1h3l3 1h1l-3 6-1-2-1 1v1h-1l-1-1h-3l-2 1-1-1 1-2-2 1v-1h-1v1h-1l-1 3h-1v3l-2 1v-3l-1 1h-1l2-4v-1l1-1 1-1 5-8Z" fill="#202949"/><path d="m43 160 1 1c2 2 3 2 5 2v-1l1 1 1 1 2 1v2l-4-2 1 1 1 1 2 2a42 42 0 0 1 1 7v6l-6-4-2-5v-1l-1-1-1-6v-1l-1-4Z" fill="#A65741"/><path d="m137 48 4 2v-1h2v1h2l5-1h5l3 1v1l5 2 1-2h3v1l1 1 1 4h2v-1h1v-3l4-1h1v1h3v1h1l5 1v-2l2-1 1 3-1 2-8-2-1 1v-1h-4l-1 2-1 2-8-1v-2h-1l-5-4h-2l-3-1h-5v1l-3-1h-2l-6-1-1-2Z" fill="#EDA279"/><path d="M103 18v2l1 2h2v1h2l2 12h-10v-1h1l1-5 1-2h-1l-1 1-1 1v-4h-1v1h-1l1-2-2 1-1-1 1-2v-1l1-2h1l1 1 1 1 1-2h1v-1Z" fill="#151626"/><path d="m116 69 1 3-1 1v3c-1 7-1 7-3 10v3h-2l-1 1-2 4v-1l-1-2 1-1 1-3v-3l-1 1c-2 6-4 8-10 10l-3 1v-1h1c3-1 5-3 7-6l3-9h-1 4l2-2-1 8 1-8c0-3 2-5 3-7l2-1v-1Z" fill="#853718"/><path d="M17 45h2v1h1v3l3 1v1h4l2-1h7l7 2v2l-2 3-1 1-1 1v-2h-1l1-2h1l1-1 1-1h-3l-1 1H25v-1l-2 1-5-2v-1h-5c1-3 2-5 4-6Z" fill="#D89386"/><path d="m46 57 2 1-1 1-1 2-4 3-2 1-1 1c-4 3-7 8-8 13l1 9-3 2-1-1v-4l1-5v-2l4-8c-7 5-7 5-10 13-1 3-1 6 1 9h-2c-2-2-1-6-1-9 2-7 7-12 12-15h1v-3l1 1 1-1 4-1v-1l3-3h1v-1l2-1v-1Z" fill="#20121B"/><path d="M89 104h6l1 2 1 1v2l1 1 3 3v1h1l3 1-2-5 1-1c8 8 8 8 8 12-4 0-6-1-9-3l-1-1-14-12 1-1Z" fill="#A17570"/><path d="M13 85v-1l4 1v8C7 93 7 93 3 90l1-5c3-2 6-2 9 0Z" fill="#F1854C"/><path d="M55 29h1c0 4 0 8-2 12h-1v2l-3 6-2 6h-1v2h3v3l-1 1v2h-1l-1 1-2 7-1 1-1 3h-1l2-7h1l1-3 1-2 2-5-2 2h-1l1-2-3 1v1l-2 1c-2 1-2 1-2 3h-2l3-4 1-1 1-2 1-1 1-3 2-2 1-2 1-2c2-4 2-9 2-14h1v4l1-1v-2l1-2 1-3Z" fill="#23253A"/><path d="M41 30v2h1l5 1h3v1h1v5l-2 4c-1 0-3 0-4-2l-1-3h-3l-3 1v-8l3-1Z" fill="#AE9FAA"/><path d="m94 95 5 1v1h1c4 1 6 3 8 5l1 5 1 1v3l-2-2c1 2 2 4 5 6l2 4v1l1 3-2 1v-1c-1-6-5-10-9-15l-4-6-6-6h-1v-1Z" fill="#E68337"/><path d="M120 188v2h-1l-1 1v1l-4 4h-1c-5 3-9 3-15 3h11l-4 1h-2a507 507 0 0 1-6 0H86v-1h5l1-1h3l2-1 3-1 2-1a537 537 0 0 1 16-6l2-1Z" fill="#5F170B"/><path d="M139 153h2a101 101 0 0 0 43 1l-2 3-4 1h-2a247 247 0 0 1-38-2l1-3Z" fill="#F9AA6A"/><path d="M100 79h1v4l-1 1-1 6 3-7v-3h4c0 4-1 8-4 11-2 3-5 4-8 4v-1h-2l1-2 2-1v-2l1-2 4-8Z" fill="#D2875A"/><path d="m52 99 1 2-3 6-1 2-8 10-2 1-5 4-1 1c-6 5-6 5-8 5l1-3h1v-1h1l1-2 2-1 6-5 1-1c6-5 6-5 10-12h1v-1l3-5Z" fill="#1D1A22"/><path d="M85 77h1v7l1-7 2 3 1 1 1 1v1h1l-2 4 2 12-3-2 3 4-10-1 3-1 3-1v-1l-1-1 1-1 1-3v-2l-2 1 1-2-7 2v-2l1-2c2-3 3-5 3-8v-2Z" fill="#916260"/><path d="M94 0h14v1h1v2h1l1 2 5 1v3l-5-3-3 3V8h-1V6h1l-4-2v1l2 1-2 1V6h-4l-1-1c-1-2-3-2-5-2h-4l2-1h-7c2-2 6-2 9-2Z" fill="#A08B99"/><path d="M102 78v1c0 3 0 7-2 10l-2 1 1-1 1-8 1-2c-2 0-2 2-2 3l-4 7-1 1 1 1h-1l-2 3 3-1-1 2 1 1 1 1 2 1v1h-2l-4-4 1-9v-1c1-3 1-5 3-7h6Z" fill="#842A10"/><path d="M52 148v2l5 1-2 1 1 1v2h14v1h-6l-10 1v15h-1v-4h-1l-3-2v-2l4 3v-2h-1l-3-2v1c-2-1-4-1-5-3l4-1 1 1 4-1v-5l-1 1h-2v-7l2-1Z" fill="#5B2420"/><path d="m139 28 5 1v-1l6 1 2 1h1v1h1l1 1c1 2 3 2 5 2l-1-3h8l1 3h1l7 2v2h-3l-2-1-4-1v-1l-3-1-1 2h-5l-5-2v-1c-3-2-6-2-10-2l-4-2v-1Z" fill="#F4B085"/><path d="M121 60h3v1h-1l1 1v16l-1 7-2 4v-3 1l-1 1-1 2-1 1h-1l1-2c4-6 4-15 3-22l-1 3-1-5v12l-1-4v-7l1-4c0-2 0-2 2-2Z" fill="#873315"/><path d="M128 44v3h3v2l1-1 2-2c2 0 2 1 3 2l-2 1 1 1v4h1v1l2 1-1 1-5-1c-2-1-3-2-6-1-2-6-2-6-1-7l1-1 1-2v-1Z" fill="#DEA899"/><path d="M24 109v3l-7 1c-4 1-8 2-12 5l-1 2H3v1l-1-1-1-8 3-1 1-1v1l2 1v1c6-1 12-4 17-4Z" fill="#0D080A"/><path d="M37 24v1l1 2h3v1h1l2 2 6 2v1h1v1h-1v-1h-2l-3-1h-4v-2l-2 1-1 1-1 2-4-3h-5l3-4 2-1c1-2 2-2 4-2Z" fill="#BB7A79"/><path d="M134 138h1l3 1c2 2 2 5 2 8l-5 12v1l-1 2a57 57 0 0 0-4 14l-1 1-1 2v-7h1l1-4h1v-1l1-3 1-5v-2l2-1v-2h1c3-7 3-7 1-13v-1c-2-1-4 0-6 1-2 2-3 4-3 7h-2l4-10h4Z" fill="#87250D"/><path d="M3 75a2934 2934 0 0 1 9 5h1l-2-4 9-1-1 4h2v3h1l-1 6v-1l-1-1-3-2h-1l-1-1v-1h-1l-6-4-5-2v-1Z" fill="#75484B"/><path d="M33 69c0 2 0 3-2 4l-3 8-1 1v8l-3 1c-2-2-2-4-2-6 1-6 4-10 9-14l2-2Z" fill="#CF7E5E"/><path d="M44 85v2l-3 2-2 1-1 1-1 1-2 1v1l-3 2-1 1-9 2-6 1H2l2-2-4 1 1-2h4l1-1 3 1c3 2 7 1 10 1l2-1h1l7-2h1l6-4 5-4 2-1 1-1Z" fill="#07050A"/><path d="M120 18c4 5 4 11 3 17v1l-2 1v3l-1 1v2l-1-5v1l-3 3 1-1 1-8-1-1v-4l1-1v-1c2 1 2 2 2 3V18Z" fill="#15090C"/><path d="M54 40h1c-1 8-2 16-5 24l-1 2-1 4-2 1 2-7 2-7h-3c0-3 2-6 4-9l2-7h1v-1Z" fill="#04040A"/><path d="m24 100-12 6-2 1-7 2c0-2 0-3 2-4l1-1c3-3 6-4 11-4h7Z" fill="#7B4F4E"/><path d="m16 120-1 1c-3 4-7 8-9 13l-1-3-1-1v-3l-1-3 4-1v-1l2-1 2-1h5Z" fill="#8F594F"/><path d="m126 23 2 4v2h2v11h1l1-2v7l1 1v1l-2 3v-3h-3v-2l-2 1 1-1c1-6 0-13-1-19h-1v1l1-4Z" fill="#E28F63"/><path d="m119 46 1 1v1l4 1v2l-1 1h3v-1 4-2h-3v7h-3v-1l-1-4v-3h-2v2l-1-3h-1v-1l-1 1-2 3h-1l1-3h-2l1-2 2 1 1-2v1h2l2-2 1-1Z" fill="#2E1710"/><path d="M129 25h2v1h1l3 1 1 4h2l3 1h-4v-1l-2 2 1 1-1 2h-1v1l1 1-1 1v3l-1 4-1 1v-7l-2 2V30l2 5v1l1 2-3-11-1-2Z" fill="#877183"/><path d="M108 175v1l-1 3-1 1c-3 6-6 9-12 12l-2 1-5 3h-1l-4 2h4-10v-4l5 1-3 1c4 1 6 0 8-2l4-2h2v-1l3-2 4-4h1l1-1 2-3 1-1 1-1 1-1 2-3Z" fill="#671E11"/><path d="M97 20c1 2 0 2-1 4h3l-1 2h1v-1h1v3l3-1v4l-1-1-1 1a197 197 0 0 1-9 6c1-6 2-12 5-17Z" fill="#13111A"/><path d="m98 39 2 1h3l5 1v3h-1l1 3-3-4-1 2v-1l-1 2-2-1 1-1-1-1-1 1v-1h-1l2 4h-2l3 6 9 1v1c-4 0-7 0-10-2-3-3-3-7-3-10h-2v3h-1v-2h-1v-1h-3v-3 2l1-1 6-1v-1Z" fill="#1A090C"/><path d="M147 113h8v1l-25 1v1h8v1h-20l-1-1h-2l-3-2h7a1343 1343 0 0 1 9 0h4l1-1 5 1 2-1h7Z" fill="#BE7354"/><path d="M49 57v2a244 244 0 0 1-3 6c-1 4-2 5-6 7l-3-1h-1c0-4 5-7 8-9l5-5Z" fill="#DFB4A7"/><path d="M55 103h1l-2 4v3h2l-1 1 1-1-3 6h-1l1 4 1 1v1h1v-2 4l-1 1-3 5c-1-8-2-18 3-26l1-1Z" fill="#54221C"/><path d="m118 119 1 1h6c9 0 9 0 12 2h-1l-4 2-2 1h-1l1 2 2 1v1l2 1-1 1-1-1-2-1-1-1-8-6-3-3Z" fill="#864A3A"/><path d="m143 87 1 2h1v5l3 4 1 2c1 3 3 3 5 4l1 2 3 1v1l3 1-3 1h-1l-1-1-4-1v-1l-2-2h-1l-1-1h2l-4-3 1-1h-1l-2-1-1-7v-5Z" fill="#E88D61"/><path d="M87 18v1h2v2l1-1h5l1-1h1l-2 6-4 1v-1l-6-1v-2l-2 2h-1v1h-1l3-4 1-2h1l1-1Z" fill="#1E243C"/><path d="m23 112-11 7-9 4-1-2h1v-1l2-2 1-1 10-4 2-1h5Z" fill="#7F5553"/><path d="M126 52h1v1l3 10-2 2-3-6v2a2248 2248 0 0 1 0 14v1l-1 9-1-4v-6l1-2v-6l-1-4v-1l1-2h-1v-7h1l2-1Z" fill="#B46747"/><path d="M80 70c1 15 1 15-3 19-3 3-5 4-8 4l1-1 4-7h2v-2h1l1-1 1-1-1-1c0-4 0-7 2-10Z" fill="#7F5C5E"/><path d="M54 157h4l-2 1v32h-1l-1-11v-3l-1-2v-12l1-5Z" fill="#804D4F"/><path d="M72 172h2l-1 1v10l2 4 1 2-1 2v6l-4-1v-12h1v-12Z" fill="#815254"/><path d="m144 99 4 1-1 1 4 3h-2l1 1 3 2v1l15 4 4 1v1l-11-1-6 1v-4h-1l-1-1-3-1-3-3-2-2-1-3v-1Z" fill="#B96E58"/><path d="m195 123 2 2-1 5-8-1c-3-2-7-3-11-3l4-1h2l4 1v-1h3v-1l5-1Z" fill="#C47151"/><path d="M115 11c4 3 5 8 6 13v4l-2-5-1 2v-3l-1 3-2-1-1 2h-3l-2-1v-4h3v-1h5l-2-9Z" fill="#282D44"/><path d="m80 23 1 1v1h1v-1h2c-1 4-2 7-5 10l-1 1-4 5v-1h1l1-4-4 3 5-8 3-7Z" fill="#111017"/><path d="M80 160h1v1l3 1h1v1l3 1v1l-9-3 1 1 1 2 4 1v1l1 1-1 1v3l-1-1-4-1 1 1v5h-1v-7h-1v-1l-1-1v-3l-1-1c1-2 1-3 3-3Z" fill="#52150C"/><path d="M25 121c0 2-1 3-3 5v1l-11 13v-5c3-6 8-11 14-14Z" fill="#94645C"/><path d="M104 124h5c1 1 2 1 2 3l-5-1 1 1 1 2h1v2l1 2c0 3 0 3 2 5l4 2c3 2 6 3 8 6l1 2h1v1h-2v-1l-1-1-2-2-1-1v-1h-1l-5-2-1-1h-1v-1l-2-1v-2h-1v-1h-1l-1-3v-3l-2-1v-2h-1v-2Z" fill="#A93E16"/><path d="M10 82h2v1H9a732 732 0 0 1-5 1l-1 4v2l2 1 1 1 6 1h8l1 1C6 94 6 94 3 92l-1-1 1 2v1l2 3H3l-2 1H0l1-13c3-3 5-4 9-3Z" fill="#2D1013"/><path d="m138 24 2 2v2l1 2h3l8 2v2l1 1 1 2-2 1-1-2-3-2-4 2-2-1v-2l-2-1c-2-3-2-5-2-8Z" fill="#BBA4A8"/><path d="m156 141 16 1 12 1h3l3 1-1 3h-1a385 385 0 0 0-32-5v-1Z" fill="#F4A271"/><path d="m150 122 3 1h2l2 1h2c11 0 11 0 16 3h1v1c-7 0-13-1-20-3h-1l-2-1h-1l-2-2Z" fill="#B86846"/><path d="m135 160 1 2h2l4 1c12 2 24 1 36-1v2l-13 1-3 1h-8l-13-2h-3l-2 1v-2h-1l-1 2 1-5Z" fill="#8A452F"/><path d="M182 127c4 0 8 3 11 5l2 1-14-2h-5l-3-2 9-2Z" fill="#954F30"/><path d="m6 98-3 2h9l4-1h4l2 1h-7c-4 1-8 2-11 6l-1 4H2v-4l1-3-3 1v-5c4-2 4-2 6-1Z" fill="#1C0B0B"/><path d="m19 144 1 5v7l-1 2h-1l-3-4v-1l-2-2 3-4 1-1 2-2Z" fill="#37140D"/><path d="M74 173a701 701 0 0 0 6 11l2 1-5-1v-1h-1v1l2 2h1l1 1h-3l-1-1v1h-1l-1-1-1 2 1-15Z" fill="#310907"/><path d="M53 51h1c0 10-4 20-10 28v-1l-1-2 3-6h2v-1l2-5 3-13Z" fill="#1D2234"/><path d="M17 45h2v1h1v3l3 1v1h4l2-1h7l7 2v2l-2 3-1 1-1 1v-2h-1l1-2h2l1-2h-5l-2-1v-1h-3v1h-2v1c-7-1-7-1-10-3l-1-1-3-2v-2h1Z" fill="#BA7875"/><path d="M132 173c2 2 2 3 2 5v5c1 4 2 7 0 10l-1 2h-1v-1l-1-6h-1l2-15Z" fill="#EB7C36"/><path d="m167 30 1 2h1v2h1v-1l5 1 5 5v1h-3l-1-2v-2h-1l-7-2-1-3h-8l1 3-5-1-1-1v-1l2 1 1-2 3-1 7 1Z" fill="#D07C65"/><path d="M93 102h1l2 1c3 1 4 1 5 3l2 5 1 1 1 3c-3 0-4-1-6-3v-1l-6-9Z" fill="#CD8F7B"/><path d="m109 37 1 3h1v1h-1c-4-2-9-3-13-1l-3 1h-1c0-1 0-2 2-3l1-1 1-1c4-2 8-1 12 1Z" fill="#997C7E"/><path d="M106 26h1v1h1l2 8h-10v-1h1l1-1 2-4 1-2 1-1Z" fill="#A08489"/><path d="M100 99h6c3 4 4 7 4 12v-1l-3-2-2-2h-1l-1-2v-1h-1l-2-4Z" fill="#F67F1C"/><path d="m108 176 1 1h-1v2l-2 3a263 263 0 0 0-2 5l2-1h2v-1l4-3 1-1h1v1l-3 2-1 1c-3 3-8 6-12 7h-2l1-1c5-4 8-9 10-14l1-1Z" fill="#4B0F06"/><path d="m72 113 2 2 1 1 1 2v2h1v1l1 1v1l1 3 1 3v1l-2 3-2-9h-1l-1 1-1-2v-5l1 1-1-1v-1l-1-2v-2Z" fill="#6D1E0F"/><path d="M139 74a1366 1366 0 0 1 9 2h1l4 1v-3h1l2 1h4v2h7v1l-2 1h-3v-1l-1-1h-3v-1h-2v2l-9-1h-2l-7-2 1 2h-3l-1-1-3-1h3v-1h4Z" fill="#F6AA7B"/><path d="m46 52 1 1 2-1-1 3h-1v2h3v3l-1 1v2h-1l-1 1-2 7-1 1-1 3h-1l2-7h1l1-3 1-2 2-5-2 2h-1l1-2-3 1v1l-2 1c-2 1-2 1-2 3h-2l5-7 1-1 2-4Z" fill="#2C1E1F"/><path d="M119 37h1l-1 6v2l1-1 1 1h1v1l1 1-1 1 2 1-5-2-2 2h-3l-1-5 4-2 2-5Z" fill="#93615C"/><path d="M94 73h1v1h1l3 2 3 1v1l2 1v1h-2v-1l-2-1h-4l-1 1-1 2-1 1h-1l-1 1-1-2h1v-1l1-5 1-1 1-1Z" fill="#96392B"/><path d="M116 65v2l-1 2-3 4h-1l-2 1v-2h-1v-3l-4-1v-1h2l7-2h3Z" fill="#BB4C55"/><path d="M90 38h3l-2 5h2-2v25c-2-2-3-7-3-11v-2l1-7v-5h1v-5Z" fill="#2E161B"/><path d="m140 116 13 1-1 2h2l-3 1h-3l2 1c-3 1-5 0-7-1h-2l-3-1 2-2v-1Z" fill="#B46C5A"/><path d="M171 83h5l1 2h1l3 1h2l3 1h4v1a10245 10245 0 0 1-42-1v-1h28v-2h-6l1-1Z" fill="#F5B982"/><path d="M96 180h1c-3 4-8 7-14 9h4v1h-7l-1-2 2-1-1-1v-1h1c5 1 10-2 14-5h1Z" fill="#772A1C"/><path d="m90 124 1 2-2 2h-1v1l-2 2-4 4 1-1 4-1 1-2h1v2l-2 2-2 1c-2 2-3 2-6 2l1-1v-4l3-2 2-2h1l1-2h1v-1l2-2Z" fill="#591209"/><path d="m74 43 3 3v5h1v1l1 2v2l-4-2v-3h-1v2h-1v-4l3-1v-1h-3v-2l-2 2v-3l3-1Z" fill="#68262A"/><path d="M158 106h42-25v1l-7 1h-7l-3-2Z" fill="#E2A291"/><path d="M121 60h3v1h-1v7l-1 1-1 2v-4l-1 3-1-5v12l-1-4v-7l1-4c0-2 0-2 2-2Z" fill="#6D2816"/><path d="M105 176h1c-2 6-7 11-12 14l-2 1v1l-4 2-1 1-8 2-1-2h2c5-1 10-4 15-7h1v-1l3-3 1-2h1l1-1 2-3 1-1v-1Z" fill="#7E2E1F"/><path d="m30 152 2 3v1l1 7v7h-1c-2-4-3-8-2-12v-6Z" fill="#965749"/><path d="m106 40 6 3-1 2-2 1-1 2v1h-4l-1 2v-1c0-2 0-2-2-3h2v-3h1l1-1 2 2v-1h1v-2l-2-1v-1Z" fill="#91696D"/><path d="M85 68c1 17 1 17-5 23h-1l-1 1-2 2h-1l-1 1-2-1 3-2 1-1 3-1 1-2 2-4v-2l2-5v-1l1-8Z" fill="#6F4548"/><path d="m5 69 3 2v2l1 1 1 1c2 0 3 2 4 4l-1 1c-2 0-2-1-3-2l-2-1-5-2 2-6Z" fill="#EB895A"/><path d="m88 59 2 5 1 2v2h1l1 2 1 1v3c-3-1-6-3-7-6l1-9Z" fill="#814A48"/><path d="M89 1h2l9 1 6 1h-1v1l-1 1 2 1-2 1V6h-4l-1-1c-1-2-3-2-5-2h-4l2-1h-7c1-2 2-1 4-1Z" fill="#B77F66"/><path d="m28 158 2 3v2l1 1v2l1 4h1v1c2 3 3 5 7 6l2 1c-5 0-8-2-12-5l-1-1-1-2v-2l1 1 1 1-1-5-1-7Z" fill="#4A1F11"/><path d="m134 46 3 2-2 1 1 1v4h1v1l2 1-1 1-6-2 4 1v-1l-4-2-2-1 1-3 1-2 2-1Z" fill="#F0AB8B"/><path d="M68 64c3 5 3 11 2 17-1 4-2 8-5 11l-1-1 2-3v-3l1-2 1-15v-4Z" fill="#08070C"/><path d="M37 24v1l1 2h3v1h1l2 2 6 2v1h1v1h-1v-1h-1l-6-2h-2v-1h-1v-1l-6-1v1h-4l2-2v-1c2-2 3-2 5-2Z" fill="#A76E74"/><path d="m166 25 9 8v1l-5-1v1h-1v-2h-1l-1-2h-10v-1c2-2 3-1 5-1h2l2 1v-4Z" fill="#AF6A6B"/><path d="M121 8h2l-1 3v2l1 1c2 0 2 0 3 2v1l1 1 3 1h2l-1 1h-2v1h-1l1 2v2l-4-6-3-4v-1h-1l-2-2v-1l-1-1-2-1h4l1-1Z" fill="#978F9B"/><path d="m133 165 1 5-1 1v2l-4 10-1 4c0 2-1 3-3 4l2-7 4-13 1-1 1-5Z" fill="#671605"/><path d="M52 148v2l5 1-2 1 1 1v2h14v1H50v-7l2-1Z" fill="#5F1C12"/><path d="M102 80h4c0 4-1 7-3 10h-3l2-10Z" fill="#F7C29B"/><path d="M120 188v2h-1l-1 1-1 3-6 2h-7l10-5 6-3Z" fill="#61190C"/><path d="m115 55 3 1 3 1-3 5-2 1-2 1v-3h-2v-2h1l2-1v-3Z" fill="#A6716A"/><path d="M114 116h8l6 1 10 2a624 624 0 0 1-15 0l-2 1-6-3-1-1Z" fill="#F8AA79"/><path d="M62 96h1l-2 1v1a372 372 0 0 1-4 4l-1 1h-1l-2 5-1 1-1 11v6h-1v-11h-1c0-4 1-8 4-11l1-1v-1l4-4 1-1 3-1Z" fill="#1D0705"/><path d="m162 121 1 1h13l-4 1h10v1h-5a91 91 0 0 1-17-1h-4l-3-1 3-1h6Z" fill="#C87553"/><path d="m90 81 1 1v1h1l-2 4 2 12-3-2 3 4-10-1 3-1 3-1v-1l-1-1 1-1 1-3v-1l-1-3 1-2h1v-5Z" fill="#9E5C4D"/><path d="m31 77 3 1 2 3v1l1 1-5 3-2-5 1-1v-3Z" fill="#D18469"/><path d="m48 168 5 3v5l-6-2-1-4 2-2Z" fill="#B65D48"/><path d="M139 147h2l-3 9v1l-2 3h-1v1l-3 11-1 2-2 4 1-7 1-1 5-14 3-9Z" fill="#C25C30"/><path d="M119 61h1v3h1v18h-1c-1-7-2-14-1-21Z" fill="#CD8469"/><path d="M122 15c6 5 10 14 11 21v8-2l-3-12h-2v-1l-2-6-1-3h-1l-2-4v-1Z" fill="#F2A772"/><path d="m82 82 1 2c-2 4-5 7-9 9l-2 1h-3l-5 2v-1l6-3 6-2 2-4 1-1h1l2-3Z" fill="#1F0B0C"/><path d="M116 119c22 12 22 12 24 21v2l-1-2-1-1-1-2-1-1v-1c-2-3-5-4-8-6l1-1h-4l-1-1 1-1-2-1v-1h-1l-2-2-4-1v-2Z" fill="#E9883C"/><path d="m125 74 5 1c0 4 0 4-2 7h1v1h-1l-2-2h-2l1-7Z" fill="#F5C096"/><path d="m182 131 12 2v2c-6-1-11-1-16-3h-6l-1-2c3-1 8 1 11 1Z" fill="#F6AA6F"/><path d="m106 79 1 1-1 1 1 1 1 2c0 3-1 5-4 8-2 2-5 3-9 4v-1h1c3-1 5-3 7-6l3-9h-1l1-1Z" fill="#8F3E1C"/><path d="m112 43 1 1 1 3-1 2v1h-2v3h-2l-2-2 1-2h-1l2-3 1-1 2-2Z" fill="#A17E82"/><path d="m137 48 4 2v-1h2v1h2l5-1h5l3 1v1l1 1 3 1-6-1-7-1v1l-3-1h-2l-6-1-1-2Z" fill="#E38A6A"/><path d="m158 96-3 1-1 3h-2v1h1l2 4c-3-1-5-2-7-5v-2l-2-2h12Z" fill="#BE898E"/><path d="M72 45h1v2h3v1l-3 1v4h1v-2h1v2l4 3v1l-3 1-3-3h2-2l-2-3v-5l1-2Z" fill="#A46063"/><path d="M102 30h1l-2 4h-1v1h10v-1h2v5l-1-1-1 1-1-1c-3-2-6-3-9-2l-3 1-3 1 1-1 7-7Z" fill="#271415"/><path d="M140 50h1l4 1 4 1v-1l8 1h2l1 1-2 1v-1h-6l-1 1h-4v-2h-4l-3-1v-1Z" fill="#F5B287"/><path d="M158 38h4l2 2v1h2v-1h3v1h2l1 3v2h-3v-4h-6l-1 1-2-2v-3h-2Z" fill="#DDAD96"/><path d="M94 82h1v4l-1 2h1l-1 2 1 1h-1l-2 3 3-1-1 2 1 1 1 1 2 1v1h-2l-4-4 1-9v-1l1-3Z" fill="#672F22"/><path d="M141 140h15v2h-6l-2 1h-7v-3Z" fill="#D77E5D"/><path d="M134 138h1l3 1 1 2-1-1v-1c-3 0-5 1-7 3l-3 6h-2l4-10h4Z" fill="#BC4714"/><path d="m114 85 3 2 1 1-1 3h-2v1l-5-1 1-2h2v-3l1-1Z" fill="#EABC94"/><path d="m48 63-1 4v1l-1 1-1 2-1 4v2l-1 2v1h-2v1h-1v1l-2 1v1l-1-1 1-1 2-3 1-1h-1l1-3h2v-2l5-10Z" fill="#2A283E"/><path d="M174 161h5v1c-13 4-28 3-41 0h9l13 1h6l8-1v-1Z" fill="#E29265"/><path d="M147 113h8v1l-42 1-1-1h20l1-1 5 1 2-1h7Z" fill="#AC6960"/><path d="M109 83v3l1 2-2 3 1 1h-1l-1 2h-2l-1 2-2-2 3-4 4-7Z" fill="#AE7E84"/><path d="M94 80c1 2 0 4-1 6l-1 12c-2-2-2-4-2-7v-4l1-1 1-3 2-3Z" fill="#E9B590"/><path d="m24 131 1 2-2 2h-1l-1 1-2 2-3 4-2 1-1-1h1v-2l2-4h3v-1l3-3 1-1h1Z" fill="#140F18"/><path d="M119 93h1l8 2 4 1-2 2h-4l-2-1-4-1-1-3Z" fill="#CD9C96"/><path d="M41 30v2h1l5 1h3v1h1v4-3h-2l-3-1-6-1-1 4h3l1 1h-2l-3 1v-8l3-1Z" fill="#BA9094"/><path d="M80 66v6c-2 2-2 5-2 8l1 1-3 4h-1v-2l1-2v-1l1-6v-1l3-7Z" fill="#573838"/><path d="M31 75v9l1 4-3 2-1-1v-4l1-6v-2l2-2Z" fill="#130508"/><path d="m121 89 1 1-1 3h4l3 1v-1h3l1-4 3 1h-2l-1 6-1-1h-4l-9-2v-1l1-1h2v-2Z" fill="#F8CEA8"/><path d="M3 76h2l1 1 2 1v3H5l-2 2H2v-4l1-3Z" fill="#EF834D"/><path d="m109 130 1 1v1h1v1l2 2v1l2 1v1h1v1l1 1 4 2v1c-10-4-10-4-11-7l-1-6Z" fill="#C54E19"/><path d="M101 104c6 5 10 11 13 17v2l-5-1v-1h-1v-1l4 1c-2-5-4-8-8-12l-1-2-1-1-1-2Z" fill="#661D0E"/><path d="m99 89 1 1h2v2c-3 2-5 3-8 3v-1h-2l1-2 3-2v1l1 1 2-3Z" fill="#BC8D8E"/><path d="M29 76h1v1c-1 4-2 8-1 12l1 1-10 3v-1h2l5-2-1-1 1-8 1-1 1-4Z" fill="#2B2029"/><path d="M77 17v2l4-1v2l1-1 1 1-1 2h-2l-6 1 2-4 1-2Z" fill="#1C243E"/><path d="M130 193h1l-1 3-10 3h-3l-2 1-3-1c4-2 7-2 11-2v-1h1l1-1 2-1v1l2-1 1-1Z" fill="#5A1C12"/><path d="M100 193c-5 4-12 5-19 5l2-1 2-1h1l5-2-1 1h6v-1l4-1Z" fill="#4C0D04"/><path d="M30 142v10l-1 7-1-3v2h-1c0-13 0-13 3-16Z" fill="#382222"/><path d="M25 121h2l-2 4h-1l-1 3c0 2-1 2-2 3l-1 1-2 1-1 1-2 2 2-4 7-10 1-1Z" fill="#100708"/><path d="m8 79 5 2 1 3h-1v1l-3-1H6l3-2c-3 0-5 1-8 3l1-2h1l1-2h4v-2Z" fill="#E1855B"/><path d="M20 64v10l3 1 1 1v-3c0 3 0 6-2 9h-1v-3h-2l1-15Z" fill="#9E4D3C"/><path d="M20 61h2v2l1-1v11h-1v2h-1l-1-5v-9Z" fill="#F48551"/><path d="m130 30 2 5v1l1 2v-4l1 4v6l-1 2-1 1v-7l-2 2V30Z" fill="#8F5B50"/><path d="M102 21h2l2 1v1h2v4h-1v-1l-3 4-2-1 1-2h1l-1-3h-2l1-3Z" fill="#2B1A21"/><path d="M86 175h5v1l2 1v1c-3 2-5 2-9 2v-3h4v-1h-2v-1Z" fill="#832C1A"/><path d="M116 69v7l-2 8-1-1v-5c0-4 1-7 3-9Z" fill="#882F0B"/><path d="m24 100-3 2h-1l-5 2-4-3 6-1h1l2-1h1l3 1Z" fill="#CD9273"/><path d="M127 35h1l-1 10v3l-1 2v2h-4l3-3v-3l-1 1-1-2h2v-2l1-1v-3h1v-4Z" fill="#702C1A"/><path d="m115 195-2 1-1 1c-4 2-8 2-12 2v-1l9-3h3l1-1 2 1Z" fill="#4F1107"/><path d="m184 77 1 1h1v1l9 1 1-2h2v3l-13-1v-1h-4l1 1-10-1 3-1h1l3 1v-1l5-1Z" fill="#EDA971"/><path d="M144 26v1h4l1 1h1l3 1 1 2h-1v-1h-1l-8-2v1h-4v-2l4-1Z" fill="#C2796C"/><path d="m76 189 2 3 1 1v1l5-1-1 2h-4l-3-1 1 2-1 2-1-1v-3l-1-2 2-3Z" fill="#3F0D08"/><path d="M132 38v7l1 1v1l-2 3v-3h-3v-2l-1 1 2-5 1 1 2-4Z" fill="#B6726D"/><path d="m107 112 5 8v1h-3l-1-2-1-1-2-2 2-3v-1Z" fill="#966967"/><path d="m43 158 1 6v1l1 3h-3v-1l-1-1v-1l-1-1v-5l1 1 1-1 1-1Z" fill="#693A2D"/><path d="M115 50v1h1l1 2v-1h2l1 6-4-3-1 1v2h-2v-4h1v-2h1v-2Z" fill="#B98680"/><path d="m71 43 2 1h-1l-1 1 1 3-1 2v3l4 2v1h-1l1 1c-3-1-5-3-6-6-1-2 0-5 1-7l1-1Z" fill="#945C62"/><path d="m147 125 11 4 2 1 4 2v1h-2v-1h-1l-3-1h-3l-2 1-1-1 1-2-4-1v-1l-2-1v-1Z" fill="#8A4B34"/><path d="M124 39h1v3-1l1 1-1 3-1 1-1-1 1 2 2-1-1 3-3-1v-2l-1-2h1v-1l-1-1 2-2h1v-1Z" fill="#541B16"/><path d="M99 43h3v1h-1l2 2-1 2 1 3h2l-2 2-2-1-1-2v-1l-1-6Z" fill="#A96567"/><path d="M32 155h1v1h3l-1 2-1 1h2l1 5c-1-1-2-1-2-3v5l-2 4v-1l-1-14Z" fill="#532010"/><path d="M73 94v1l-3 1c-4 0-6 1-8 3l-6 3 1-2h1l3-2v-1c4-3 7-3 12-3Z" fill="#561C14"/><path d="M175 52h2v1h3v1h1l5 1v-2l2-1 1 3-1 2-7-1v-1l-5-1v1l-4-1v-1h1l2-1Z" fill="#E38867"/><path d="m131 178 1 3-1 2v2l-1 3h2v2l-4 4v-1l1-6c-1-4 1-6 2-9Z" fill="#802609"/><path d="m162 108 13 2 1 2h-8v-1l-6-2v-1Z" fill="#DB8A6D"/><path d="m46 57 2 1-1 1-1 2-4 3-1 1-2 1h-1v-2h2v-1l3-3h1v-1l2-1v-1Z" fill="#160F11"/><path d="M78 189h2l3 1h1l1 1h4l-1 2h-1l-1 1h-3l1-1h-2l-3-1-1-3Z" fill="#4A110A"/><path d="m25 66 4 2 2 1-5 5-1-8Z" fill="#987C8F"/><path d="M126 51v4-2h-3v7h-3v-1l-1-4 1-1h2v-2h4v-1Z" fill="#4A241B"/><path d="m113 48 1 1h6v3h-3v2l-1-3h-1v-1l-1 1-2 3h-1l1-3h-2l1-2 2 1v-2Z" fill="#6C4239"/><path d="M79 82c0 4-1 6-4 9l-4 1h1v-1l3-5h2l1-3 1-1Z" fill="#89686B"/><path d="M110 78v9l2 1-1 2-1 1-2 3v-1l-1-2 1-1 1-3v-2l-1-2h-1l-1-3h2l2-1v-1Z" fill="#832F15"/><path d="M117 68h1v6h-1v4l-1 3h1l-1 2-2 1 1-2a408 408 0 0 0 1-7v-4l1-3Z" fill="#E18C5D"/><path d="M8 62h1v5l-1 5-1-1-2-2 1-4 1-1 1-2Z" fill="#8E788D"/><path d="m56 120-1 10-2 1v1l-2 6 1-10 1-1c1-3 1-5 3-7Z" fill="#7E2F1E"/><path d="M143 87v1l1 4v1l1 10h-1l-1-1-1-2-1-1v-1h1V88l1-1Z" fill="#985447"/><path d="M116 65v1c0 2-1 2-2 3h-3l-3-1h-4v-1h2l7-2h3Z" fill="#B0443F"/><path d="M73 132h2v1l1 1c2 2 2 4 2 7h-2l-1-3h-1l-1-6Z" fill="#5B180D"/><path d="m97 105 4 1c2 3 2 4 2 7h-1v-1l-3-1-2-6Z" fill="#EEAB87"/><path d="m129 65 3 2v5c0 3 0 6-2 9l-2 1 1-1c2-5 1-11 0-16Z" fill="#AC6551"/><path d="M106 26h1v1h1l2 8h-2 1l-2-7-1 1h-1v3l-2 1-1 1h4v1h-6v-1h1l1-1 2-4 1-2 1-1Z" fill="#7D6264"/><path d="m11 144 1 1 1-1h3l2 2-2 2-1 1-2 1-1-2-1-1v-3Z" fill="#140A0C"/><path d="m25 121-1 3-1 1-1 1-1 1-1 3-2-2-1 2-2-1 10-8Z" fill="#916559"/><path d="m16 120-4 4v-1l-3 1 1 1H9l-2-3 2-1 2-1h5Z" fill="#835754"/><path d="m126 23 2 4v2h2l-1 5-2 1-1-9h-1v1l1-4Z" fill="#E0925C"/><path d="m109 7 5 2h1c3 3 4 6 5 9l-1 1-3-7h-1v1l-1-1-4-3-1-2Z" fill="#2E1511"/><path d="m48 182 6 1v6c-2-1-4-1-5-3v-1l2 1v-1h-1l-2-2v-1Z" fill="#B25F49"/><path d="M6 93h1l10 1h1l9-1c-4 3-10 2-15 2v1l-6-2v-1Z" fill="#282634"/><path d="m46 52 1 1 2-1-1 3h-1v1l-1 1-1 2h-1v1l-2 1c-2 1-2 1-2 3h-2l5-7 1-1 2-4Z" fill="#1D1D2F"/><path d="M118 61h1c0 4-1 7-3 9l-2 2v-2l1-1 1-2-1-3 3-3Z" fill="#F6D9B9"/><path d="M17 45h2v1h1v3l3 1v1h4l3-1-1 1v1c-5 1-5 1-8-1l-2-2-3-2v-2h1Z" fill="#A96E73"/><path d="M95 26v2h1l1 4h-2l-1 3h1l-1 2h-2l3-11Zm2 3 1 1h-1v-1Z" fill="#070508"/><path d="M72 160h1l1 12v12h-1v-1l-1-23Z" fill="#754848"/><path d="m44 160 5 1 4-1v5l-4-2v1c-2-1-4-1-5-3v-1Z" fill="#6D341C"/><path d="M140 139h16l-7 1h-8v6-1l-1-2h-1l1-4Z" fill="#A2553D"/><path d="M14 124v1l-2 4-3 6v2l-1 1-2-2 2-4h1l2-6h1v-1l1-1h1Z" fill="#201D2A"/><path d="M122 119h12c-2 2-3 2-5 2h-9l-1-2h3Z" fill="#EA9560"/><path d="m74 185 2 3-1 3v6h-2l1-12Z" fill="#E6A47C"/><path d="m11 114 1 1h-1v1H9l-2 2 1 2-5 3-1-2h1v-1c2-3 5-4 8-6Z" fill="#735351"/><path d="M154 105c4 0 4 0 5 2l5 2 5 3-9-1-1-1 1-1h-3l1-2h-2l-1-1-1-1Z" fill="#EC976F"/><path d="M113 72v2l-1 5c0 3 0 6-2 9v-9h-1l1-2c0-3 1-4 3-5Z" fill="#E5B394"/><path d="M102 27h1v4l-1-1-1 1-6 5v-1h-1l2-3 1-2 2 1 1-1 2-3Z" fill="#170D12"/><path d="M93 134v1h-1v2l-4 1-1 1-3 1h-2l-2 1 1-2 2-1 3-1 1-1 2-1 4-1Z" fill="#551108"/><path d="M102 93c2 2 2 3 1 5h2v1l-6-2v-1h-3l6-3Z" fill="#BA8986"/><path d="m22 83 2 2v1h1l1 1 1 3-3 1c-2-2-2-3-2-5v-3Z" fill="#9B665E"/><path d="M126 52h1v1l3 10-2 2-2-4-1-3 1-3v-3Z" fill="#D58F6A"/><path d="m180 137 12 2v2h-6v-1l-1-1h-2l-3-2Z" fill="#E08452"/><path d="M158 107h6l2 1h2v-1c3 0 5 0 7 2v1l-11-1-2-1h-3l-1-1Z" fill="#D99182"/><path d="M90 0h14v1h1v2l-9-1-6-1V0Z" fill="#7B8BA9"/><path d="M26 75h1l-2 2c-2 4-3 8-2 12l1 3h-2c-2-2-1-6-1-9 1-4 2-6 5-8Z" fill="#250807"/><path d="m40 48 5 2-2 2h1v3l-2 1v-3l-2-2h-5l-3-1h8v-2Z" fill="#A46D72"/><path d="M124 26c2 3 1 7 0 10 0 2 0 2-2 3l-2 1 1-4h2v-5l1-5Z" fill="#411915"/><path d="M103 4h6l-2 1 2 1-2 1v1h-2v4l-1 1V9l-2 3-1-2 2-2h1l1-2-2-1V4Z" fill="#0D070D"/><path d="m173 126 3 1v1l-13-1 5-1h5Z" fill="#C1704A"/><path d="m52 119 1 1 1 1v1h1v-2 4l-1 1-2 4v-10Z" fill="#621C11"/><path d="m23 60 2 1v6l1 3v5l-2 1V62l-1-1v-1Z" fill="#E4825B"/><path d="m28 158 2 6 1 1v2c1 2 0 4-1 5l-2-2v-2l1 1 1 1-1-5-1-7Z" fill="#502A23"/><path d="M79 113c2 4 2 9 2 13h-1v-4l-1 2-1-3v-2l-1-5 1 2 1-3Z" fill="#641B10"/><path d="M152 15h1l1 2c0 2 1 2 3 3l1 2-2 1v-1l-1-1-3-1-1-4 1-1Z" fill="#B79A9D"/><path d="M92 3h7v1h-3l-2 1-3 1-2 1h-1l-3 1 4-4 3-1Z" fill="#0D080D"/><path d="M89 1h2l8 1h-2v1h-7l2-1h-7c1-2 2-1 4-1Z" fill="#694F4B"/><path d="m5 96 5 2H8v2H2l2-2-4 1 1-2h4v-1Z" fill="#14080B"/><path d="m143 87 1 2h1v8l1 1h-1l2 1h-3l-1-4v-8Z" fill="#D38355"/><path d="m56 33 1 1-1 5-1 8v2l-1 3-1-5 1-3v-5l2-6Z" fill="#161826"/><path d="m184 141 5 2h-16v-1h11v-1Z" fill="#BB683E"/><path d="M89 50h1v2l1 16c-2-3-3-8-3-12h1v-6Z" fill="#2C0F11"/><path d="M37 29h2l2 1v1h3v1h-3v-2l-2 1c-1 2-1 2-3 2l-1-1v-2l2-1Z" fill="#CC867F"/><path d="M30 152c2 2 2 4 3 7v2h-3v-9Z" fill="#D4895C"/><path d="M103 99c3 0 4 1 5 3l1 5 1 1v3-1l-3-4-1-5-1-1h-2v-1Z" fill="#F38527"/><path d="m92 102 2 2-1 2-1-1h-3l-2-2-1-1h6Z" fill="#956462"/><path d="M39 52h3v1l-4 3h-1l-6-1-6-1h13l1-2Z" fill="#D99F93"/><path d="M147 23h4l-1 1-3 3h-3v-1c-3 0-3 0-5 2v-1l-1-3 4 1h4l1-2Z" fill="#AA777B"/><path d="m54 175 1 14h-1v-6l-5-1v-3l5 3v-7Z" fill="#6C2A1B"/><path d="m132 173 1 4v9h-1v1h-1l1-6v-8Z" fill="#F2822E"/><path d="m106 158 1 1-1 1h-1v1l-3 4-1 1H91l-3-1h12v-1h1c2-1 2-1 2-3v-1l3-2Z" fill="#5B160A"/><path d="M86 145h2l2 2v1h-9v-1l2-1h-3c2-2 3-2 6-1Z" fill="#5A170D"/><path d="M98 42h1l1 3 1 2h-2l3 6 9 1v1c-4 0-7 0-10-2-3-3-3-7-3-11Z" fill="#3F1110"/><path d="m100 31-2 4-1 1-3 3-1 2 5-2v1l-6 2c1-5 1-5 3-6l1-1 3-2v-1l1-1Z" fill="#6A4D51"/><path d="M53 109h1l2 1-1 1 1-1-3 6h-1v1-7h1v-1Z" fill="#671C11"/><path d="m144 99 4 1-1 1 4 3h-2l1 1 3 2h-2l-5-4-2-1v-3Z" fill="#D37C5A"/><path d="M98 19h1l1 1h2c-1 4-1 4-3 5l-3-1 1-2v-1l1-2Z" fill="#1A2035"/><path d="m15 47 4 1 1 2 3 1v1l-5-1v-1l-4-1 1-2Z" fill="#D1847D"/><path d="m118 119 1 1h11v1h-3v1h-1v1h-4l-4-3v-1Z" fill="#97563F"/><path d="m139 119 8 2 1 1 5 2h-4a923 923 0 0 1-5-2l-1-1-4-1v-1Z" fill="#FBB179"/><path d="M125 59c2 2 3 3 3 7h-2v1h-1v-8Z" fill="#EDB29C"/><path d="M164 51h3v1l1 1v4l-1-1v-2l-4 1-1-2h1l1-2Z" fill="#EE996D"/><path d="m130 26 2 1 1 3 1 1v4h1v-1h1l-1 2h-1v1l1 1-1 1-1-5h-1l-1-3v-1l-1-4Z" fill="#8A6674"/><path d="M123 26v10l-2 1v-9h1l1-2Z" fill="#2A1312"/><path d="m6 98-3 2h5l1 1-9 2v-4c4-2 4-2 6-1Z" fill="#1B1821"/><path d="m61 76 1 2-2 7-1 3-1-1v-4l1-1v-2l2-4Z" fill="#15131A"/><path d="M124 37v1l-2 3v3h-1v2l-2-1-1-2h2v-2l3-3 1-1Z" fill="#6A312A"/><path d="M77 147c2 2 2 3 2 5l-2 1v-2h-1v-1h-2l-1 1h-5l5-2 4-1v-1Z" fill="#581912"/><path d="m99 100 3 4 2 5-1 1c-3-3-4-6-4-10Z" fill="#9F655F"/><path d="M78 59h2v1h-1v1c1 3 0 6-1 9l-1 1V61l1-2Z" fill="#4A3133"/><path d="M112 61h2v3h1c-2 2-5 4-9 3l1-2h1l5-1v-1h-1v-2Z" fill="#AE7776"/><path d="M54 40h1a320 320 0 0 1-1 7v1l-3 1-2 3v-1l1-2 3-8h1v-1Z" fill="#070815"/><path d="m139 28 5 1v-1l6 1 2 1h1v1h1l-1 1h-1v-1h-9l-4-2v-1Z" fill="#E49B7E"/><path d="M73 184v13l-2-1 2-12Z" fill="#693633"/><path d="m85 117 1 3 1-2v6l-2 2-1 1v-8l1-2Z" fill="#66170A"/><path d="M87 53h1c0 4 1 6-1 9 0 4 0 6 2 9v1l-2 1-1-8v-1l1-11Z" fill="#623230"/><path d="M80 54c2 5 1 11-2 16v-3l1-7h1v-6Z" fill="#2C181D"/><path d="M147 30h3l2 1v1h2l1 2h2v1h4l2-1v2h-5l-5-2v-1l-4-2h-2v-1Z" fill="#EBAD8F"/><path d="M115 11c4 3 5 8 6 13v4l-2-5-1 2v-2c0-4 0-8-3-11v-1Z" fill="#B88C7B"/><path d="M135 167h1v3l-1 1 1 4-2-1v8h-1v-2l-1-9h1l1-3h1v-1Z" fill="#9A4F40"/><path d="m135 159 1 2-1 1v2l-1 1-5 13 1-4v-3l1-2 3-9 1-1Z" fill="#D77849"/><path d="m131 136 5 1v1h-1l-5 1c-2 2-2 5-3 7h-1l2-7 3-2v-1Z" fill="#E16016"/><path d="m18 128 1 1-2 5h-3v-3l3-2 1-1Z" fill="#9D645B"/><path d="m195 123 2 2-1 3-4-1v-2c1-1 1-2 3-2Z" fill="#BF6F56"/><path d="m134 46 3 2-3 1v2h-3v-2l1-1v-1l2-1Z" fill="#EC9C80"/><path d="M125 70h2l1 2 2 1v2h-3l-2-1v-4Z" fill="#D38272"/><path d="m18 145-1 5v1l-1 2h-1l-2-2 3-4 1-1 1-1Z" fill="#E69C66"/><path d="M39 80v2h-1v1l-4 4-1 2h-3l1-2v-1l1-1h2l2-2 3-3Z" fill="#311F25"/><path d="M116 14c2 2 3 4 2 7v1l-4 1v-1h-4v-1h2v-1h5l-1-6Z" fill="#1B1D30"/><path d="M137 139h1c2 3 2 5 2 8l-4 8 1-4c2-3 2-8 0-11v-1Z" fill="#882605"/><path d="m24 118 3 1h-1v1l-2 1-2 2-4 4-1-2h1l4-4 1-2h1v-1Z" fill="#130707"/><path d="m17 117-4 2-1 1h-1l-1 1-3 1v1H6l-3 1c1-3 5-4 8-6l6-1Z" fill="#1E0808"/><path d="M114 115h16v1h-16v-1Z" fill="#BD7865"/><path d="M123 53h3c0 5 0 5-2 7h-1v-7Z" fill="#C89E88"/><path d="M180 144h10l-1 3-3-1h-2l-4-1v-1Z" fill="#EA905A"/><path d="m187 127 9 1v2l-9-2v-1Z" fill="#D5835A"/><path d="m85 68 1 5v2l-3 9h-1v-1l3-15Z" fill="#5A3A3C"/><path d="M129 20h3l2 4h-2v-1h-2v2h-1v-2l-1-1v-1h1v-1Z" fill="#B99E9E"/><path d="m109 83 1 3v2l-1 2-4 1 1-1 1-2v-1l2-4Z" fill="#F7C2A1"/><path d="M10 82h2v1H8l-4 1-1 3v1l-1 1H1v-4c3-3 5-4 9-3Z" fill="#5D2314"/><path d="M88 59c2 3 2 6 2 10h-1l-1-2h-1v-5l1-3Z" fill="#956F71"/><path d="m68 15 1 1h4l1 2h-6v-1c-2 0-2 1-3 2l-1-1 1-2h1v-1h-1 3Z" fill="#19203B"/><path d="m135 139 2 1 2 4v3h-1l-1 1v-4h-1v-4l-1-1Z" fill="#88271E"/><path d="M77 135c2 2 2 3 2 5v1l-1 3h-2l-1-2v-5l2 4h1v-1l-1-1v-4Z" fill="#561C17"/><path d="m40 108 1 1-2 3h-1l-2 4-3 2v-1h1v-1l3-5h1l1-1 1-2Z" fill="#1D1B21"/><path d="M63 106h2l1 1h2l1 3h-1l-4-2h-6l3-1h2v-1Z" fill="#8A3722"/><path d="M86 69h1a704 704 0 0 1-1 17h-1v-7l1-10Z" fill="#47211F"/><path d="M81 59h1v5l-1 4 1 1-1 8h-1a1069 1069 0 0 1 0-12v-2l1-4Z" fill="#110507"/><path d="M116 142c4 0 6 1 8 4l1 2h1v1h-2v-1l-1-1-2-2-1-1v-1h-1l-3-1Z" fill="#A43A0E"/><path d="m153 124 10 3h2a2016 2016 0 0 1-2 1h-1l-4-1-2-1h-2l-1-2Z" fill="#F9B075"/><path d="M83 100h5l5 1c-1 2-2 1-4 1h-4l-2-2Z" fill="#A7767A"/><path d="M105 88v3c-3 3-6 4-10 5v-1h1c4-1 5-3 7-6l1-1h1Z" fill="#7C3F2E"/><path d="M139 74h4v1h-5l1 2h-3l-1-1-3-1h3v-1h4Z" fill="#EE9C75"/><path d="M114 50h1v2h-1v5l-1 1h3l-3 1h-2l1-4-2 1v-1h1c2-1 2-1 2-3v-1l1-1Z" fill="#9F7D7A"/><path d="m100 53 2 1 3 1v1h3-9l1-2h-1v-1h1Z" fill="#A15557"/><path d="M129 50h2l-1 2h1l5 3v1l-7-2v-1l-1-1 2-2h-1Z" fill="#CA8776"/><path d="m78 124 1 2 1 3v1l-2 3v-9Z" fill="#551911"/><path d="m94 95 5 1v1h2l2 2h-3v1l-4-3-1-1h-1v-1Z" fill="#CD7644"/><path d="M47 71h2l-3 5-1 1-1 2c0-2 0-4 2-7h1v-1Z" fill="#1D263F"/><path d="m20 58 2 1v1h1l-1 3v-2h-1v13h-1V58Z" fill="#D1795A"/><path d="m13 123-1 3h-1v1l-1 4-1 1v1H8l-1 2H6c0-3 2-5 4-8l1-1 2-3Z" fill="#251012"/><path d="M150 122h7l1 1h6l3 1c-6 0-11 1-17-2Z" fill="#E89973"/><path d="M92 85h1v6l-1 7-1-3v-8h1v-2Z" fill="#FCD4A5"/><path d="m122 81 1 6-2 2v-3 1l-1 1-1 2-1 1h-1l1-2c2-2 2-4 3-7h1v-1Z" fill="#6C351B"/><path d="m48 63-1 4v1l-1 1v1l-3 6h-1v-1h1v-2l5-10Z" fill="#8A7C8B"/><path d="m5 69 3 2v3l-4-1 1-4Z" fill="#BC7A6C"/><path d="m138 24 2 2v2l1 2h3l7 2h-8l-2-1-2-1-1-3v-3Z" fill="#CD9D94"/><path d="m76 194 5 1-3 1 1 1h1l2 1h4-10v-4Z" fill="#4E1613"/><path d="M162 92h3v1h-1c-3 0-4 1-7 3l-9 1v-1h5l3-2 2-1 4-1Z" fill="#F9D4AA"/><path d="M94 82h1v4l-1 2h1l-2 3h-1l2-9Z" fill="#5E2714"/><path d="m77 76 1 3v1l1 1-3 4h-1v-2l1-2v-2l1-3Z" fill="#5E3537"/><path d="m117 74 2 1c1 2 0 4-1 6h-1l-2 2 2-9Z" fill="#DCA27A"/><path d="M123 61v7l-1 1-1 2 1-8h-1v-2h2Z" fill="#7B280E"/><path d="m106 51 3 2h1v-2h3l-3 4h-3l-1-3v-1Z" fill="#956B6E"/><path d="M75 4h-1l-2 1-2 1-3 2-2 1V8h1V7c2-2 6-4 9-3Z" fill="#625F76"/><path d="M167 125h3v1l-2 1h-6v-2h5Z" fill="#AE5E45"/><path d="M115 117h7l8 1v1h-13l-2-2Z" fill="#F3A167"/><path d="M190 97v1h-2v1h-6l-2 1v-2h1l3-1h6Z" fill="#E7AF8A"/><path d="M38 52h4l1 2-4 5v-2h-1l1-2h1l1-1 1-1-4-1Z" fill="#BA8C84"/><path d="M128 44v3h3l-1 2-5 1 3-6Z" fill="#D08264"/><path d="M102 21h2l2 1v4l-3-1v-1h-2l1-3Z" fill="#282F4B"/><path d="m64 19 6 2v1l1 1h-1l-1-1h-3l-2 1-1-1 1-3Z" fill="#1D233E"/><path d="M105 191v1l-9 2v-1c3-2 5-3 9-2Z" fill="#67231D"/><path d="m115 91 2 1h-1l2 1v3h-3v-1l-4-2 4-1v-1Z" fill="#997279"/><path d="m25 132-2 3h-1l-1 1-2 2-1 1h-1l-1-1 1-1 5-4 3-1Z" fill="#1A171E"/><path d="m186 129 2 2-1 1-6-2v-1h5Z" fill="#914F3C"/><path d="M196 78h2v3l-13-1v-1l10 1 1-2Z" fill="#EFB174"/><path d="M40 65v1h1v1l2 1-1 1h-1v1h-3v-1h1l-1-1v-1l2-2Z" fill="#E2B49B"/><path d="m112 116 2 1 1 3 1 3-2 1v-1l-1-3-1-4Z" fill="#EC8334"/><path d="m92 96 3 2-2 3-5-4h3v1l1-2Z" fill="#B9796E"/><path d="M6 91h11v2L6 92v-1Z" fill="#EB8A56"/><path d="m101 79 1 4v1l-1 2-3 4 1-1 1-8h1v-2Z" fill="#8C3E1B"/><path d="m31 82 4 1 1 1-3 2-2-1v-3Z" fill="#E48C60"/><path d="M112 60h3l3 1-4 3v-3h-2v-1Z" fill="#A45E56"/><path d="m16 59-1 4-2 1v-1l-2-2c1-2 2-2 5-2Z" fill="#663C42"/><path d="m73 48 3 1v2l1 3-1 1-1-3v-1h-1v2h-1v-5Z" fill="#7C3438"/><path d="m37 24 1 3h-4l-1 1h-2l1-2h1c1-2 2-2 4-2Z" fill="#9A6472"/><path d="m111 6 8 5-1 2-3-4h-1l-4-2 1-1Z" fill="#C68E72"/><path d="m183 152 2 1c-2 2-5 2-7 2h-3c2-2 3-2 5-2h3v-1Z" fill="#C26E43"/><path d="M133 139h1v1l-1 1-5 4v3h-2l2-5 1-1 1-2 3-1Z" fill="#9C3511"/><path d="M88 141h2l-2 1-1 1h-2l-2 1-1-2 6-1Z" fill="#4C0F05"/><path d="m0 90 2 3 3 4H3l-2 1H0v-8Z" fill="#74514C"/><path d="m89 133 1 1-3 3-2 1h-3l3-2 1-1 3-2Z" fill="#7D3023"/><path d="m187 128 8 2v3l-1-1-4-2h-2l-1-1v-1Z" fill="#F4AD79"/><path d="M20 114h1l-4 4-1 2h-3l-2 1h-1l4-3 4-3 2-1Z" fill="#362020"/><path d="m88 105 7 7v1l-3-3-3-2-1-1v-2Z" fill="#753126"/><path d="m158 96-3 1-1 2h-2l-1 1-1-3 3-1h5Z" fill="#BA8D81"/><path d="m8 83-4 3v4l4 2H6l-4-3c0-2 0-3 2-5l4-1Z" fill="#C08069"/><path d="m119 19 1 4v8l-1-4-2 1v-2l1-1h1v-6Z" fill="#452A24"/><path d="m164 133 5 2-9 3 5-3-1-2Z" fill="#925041"/><path d="M110 108h1v1h1v3l1 3-2-1-1-1-1-2-1-1v-2l2 2v-2Z" fill="#933E24"/><path d="M104 109c2 1 3 2 3 5h-1v1l-3-5 1-1Z" fill="#A16E6B"/><path d="m4 103-1 2-1 5H0v-6c2-2 2-2 4-1Z" fill="#75524E"/><path d="m33 69-2 5-1 1v1l-2-1v-1l2-3 2-1 1-1Z" fill="#927D88"/><path d="m118 34 2 1v8l-1-5v1l-3 3 1-1 1-6v-1Z" fill="#3B1210"/><path d="M159 31h8l1 3-1-1v-1h-6v2h-6v-1l5 1-1-3Z" fill="#EC966F"/><path d="M178 117h5l5 1v1h-4v1h-6l1-1h1v-1l-2-1Z" fill="#D37A59"/><path d="M85 77h1c0 8 0 8-2 11h-2l1-1 2-8v-2Z" fill="#956E6E"/><path d="m102 77 6 1v-1h2l-1 3-6-1-1-2Z" fill="#B16C5D"/><path d="m41 76 1 1-4 5-1-1 1-2h-1v-2h2l1 1 1-2Z" fill="#997E93"/><path d="M34 61h1l1 1-2 5-2-1v-2l1-1v-2h1Z" fill="#DFB4A2"/><path d="m46 57 2 1-1 1-1 2-3 2-1-1v-1l2-2 2-1v-1Z" fill="#0A0A0E"/><path d="M135 154h1c0 2 0 4-2 7h-1v1-5l2-1v-2Z" fill="#7D2006"/><path d="m90 81 1 1v1h1l-2 4v4l-2-1 1-4h1v-5Z" fill="#A26051"/><path d="m90 66 1 2h1v3h-3v-1h-1v-3l1 2 1-3Z" fill="#93635F"/><path d="m187 52 2 2-1 3-7-1v-1h5v-2l1-1Z" fill="#F1A571"/><path d="M48 162h1l1 1 1 1 2 1v2l-4-2-1 1-1-2-1 1-1-3 4 1-1-1Z" fill="#7E3D21"/><path d="m182 135 7 1h2l2 1v1l-11-2v-1Z" fill="#E2864D"/><path d="m176 127 5 1c-5 2-9 2-13 1l-1-1h9v-1Z" fill="#DB8A59"/><path d="m96 82 1 1v3l-1 2h-2l1-5 1-1Z" fill="#8B381A"/><path d="M151 52h8l1 1-2 1v-1h-6l-1 1h-1v-1h1v-1Z" fill="#FBB988"/><path d="m113 48 1 1h2v2h-2l-2 3h-1l1-3h-2l1-2 2 1v-2Z" fill="#362629"/><path d="M98 43v4l-4-1v-2h1v2h1v-3h2Z" fill="#6F6474"/><path d="M118 35c1 3 0 4-1 7l-4 2-1-1v-1l2-1v1l4-7Z" fill="#6A3F3B"/><path d="M56 24v5h-1v1l-2 7v-6l1-2 2-5Z" fill="#1B1527"/><path d="m127 18 5 1-1 1h-2v1h-1l1 2v2l-2-6v-1Z" fill="#A88E8D"/><path d="M131 190h1v4l-1 2-1-1 1-2h-1l-1 2h-1l3-5Z" fill="#741904"/><path d="m43 158 1 5v2h-1c-2-2-2-4-1-6l1-1Z" fill="#6C3621"/><path d="M141 140h11l-6 1h-4v1h-1v-2Z" fill="#C36F51"/><path d="M172 113a454 454 0 0 1 10 1l-2 1h-2l-2-1h-4v-1Z" fill="#C47350"/><path d="M109 83h1v4l2 1-1 2-1 1-2 3v-1l-1-2 1-1 1-4v-3Z" fill="#6F351F"/><path d="M143 86h4v3h-1v3l-1-1v-2h-1l-1-3Z" fill="#FAC895"/><path d="M3 75a2934 2934 0 0 1 9 5h1v1l-4-2-6-3v-1Z" fill="#AF4417"/><path d="M119 63v14l-1-4v-8l1-1v-1Z" fill="#7E3716"/><path d="M71 42h2l-2 1-2 5 1 5h-1v-1h-1v-5c0-2 0-3 2-5h1Z" fill="#1F0A0B"/><path d="m133 34 1 4v6l-1 2-1 1v-6l1-4v-3Z" fill="#814033"/><path d="m41 30 6 1 3 1v1h1v1h-1v-1h-1c-3 0-4 0-6-2l-2-1Z" fill="#AE787C"/><path d="M114 12h2l1 3v6l-2-6v-1h-1v-2Z" fill="#261214"/><path d="m111 119 3 1v3l-5-1v-1h-1v-1l4 1-1-2Z" fill="#6C201A"/><path d="m100 116 5 2-1 2h-4v-4Z" fill="#803220"/><path d="M80 115c2 2 2 3 2 6v2l-1 3-1-4v-7Z" fill="#823526"/><path d="M4 74h3l1 1 3 2-1 1-7-3 1-1Z" fill="#E77C4A"/><path d="M124 59h1l-1 13-1-11h1v-2Z" fill="#B46F50"/><path d="M14 129h1l-4 8-1-1 1-3 1-1 2-3Z" fill="#240F0D"/><path d="M53 127h1l-2 10-1 1 2-11Z" fill="#773127"/><path d="M55 126v9l-1-2-2 4v-4l1-1 1-2 1-2v-2Z" fill="#6C1E0F"/><path d="M162 93h2l-1 1 1 1v1l-5-1c1-2 1-2 3-2Z" fill="#C68E7E"/><path d="M85 86v2l-3 3-1-1 1-3 1-1v2h1l1-2Z" fill="#7E5A5B"/><path d="m28 83 1 1 1 1h1l1 3-3 2-1-1v-6Z" fill="#090811"/><path d="m9 85 2 2-2-1 1 2c-2-1-4-1-5-3h4Z" fill="#E87B3F"/><path d="m112 82 1 1h2l-1 1-1 5-3-2 1-1 1-4Z" fill="#8F4322"/><path d="M11 81h2l1 3h-1v1l-3-1H6l6-1-1-2Z" fill="#DB7C52"/><path d="M31 77h1v3h2v2l1 1-4-1v-5Z" fill="#CD754F"/><path d="m128 42 2 1v2l2 2v2l-1 1v-3h-3v-2l-1 1 1-4Z" fill="#A75846"/><path d="m168 41 3 1 1 4h-3v-4h-1v-1Z" fill="#F9C197"/><path d="m80 161 5 1v1l3 1v1l-9-3 1-1Z" fill="#61190E"/><path d="m109 130 1 1v1h1v1l2 2v1l2 1v1h-3l-1-3-1-1-1-4Z" fill="#DA5C17"/><path d="M21 124v1l-2 4-1-1-1 2-2-1 6-5Z" fill="#925F55"/><path d="m145 96 4 3v2l-5-1 1-1-1-1 1-2Z" fill="#DF8C69"/><path d="M23 82h1v1h3l-1 4v-1h-2l-1-4Z" fill="#DE8663"/><path d="M20 61h2v12l-1-1v-4l-1-1v-6Z" fill="#E67D4E"/><path d="M39 33v4h3l1 1h-2l-3 1-1-5 2-1Z" fill="#9C8A99"/><path d="m126 23 2 3v2l-1 2-1-4h-1v1l1-4Z" fill="#E48F51"/><path d="m159 142 9 1-4 1h-2l-1-1h-2v-1Z" fill="#AB5C38"/><path d="m169 135 1 1c-4 2-9 2-13 3 1-2 2-2 4-2l8-2Z" fill="#AA5F46"/><path d="m90 124 1 2-2 2h-1v1h-2l1-2h1v-1l2-2Z" fill="#6E1C09"/><path d="M185 122h9l-1 1h-8v-1Z" fill="#CB744E"/><path d="M154 105c3 0 4 1 6 3l3 1v1h-4l1-1h-3l1-2h-2l-1-1-1-1Z" fill="#EE9770"/><path d="m111 88 4 3v1l-5-1 1-3Z" fill="#F2C7AC"/><path d="M11 76h2l2 5 1 1v1h-1v-1h-2v-2l-2-4Z" fill="#8A493B"/><path d="m98 78 4 1v2h-1v-2c-2 0-2 1-2 3l-1 2v1-7Z" fill="#852B0B"/><path d="m95 74 6 3h1v1l2 1v1h-2v-1l-1-1-6-3v-1Z" fill="#A35145"/><path d="m96 76 1 1-1 1-1 1-1 2-1-2v-3h3Z" fill="#B04433"/><path d="m162 66 1 1v3h3l2 2 1 1h-2v-1h-2l-3-2v-4Z" fill="#EDA980"/><path d="M133 53h2v1h2v1l2 1-1 1-6-2 4 1v-1h-1l-2-2Z" fill="#DF9F8C"/><path d="M131 30c2 2 2 6 2 9v5-2l-3-12h1Z" fill="#DFA18D"/><path d="M144 26v1l2 1-5 1-1-1v-2h4Z" fill="#B37071"/><path d="m122 14 2 1v1h2c1 2 2 3 1 5l-5-7Z" fill="#9F8683"/><path d="m50 135 1 5v10h-1v-5l-1-3 1-7Z" fill="#420E07"/><path d="m104 113 1 1 1 1c0 3 2 4 3 6l-2-1-1-1-1-2-1-1-1-1h2l-1-2Z" fill="#B07C77"/><path d="M21 50h9l-1 1v1h-4c-2 0-3 0-4-2Z" fill="#AE7272"/><path d="M146 49h1l1 1h-5v-1h-2v1l-2-1c2-1 5-2 7 0Z" fill="#D17967"/><path d="M158 38h4l1 5-3-1v-4h-2Z" fill="#F2B893"/><path d="M110 34h2v5l-1-1-1 1-2-3h2v-2Z" fill="#2B0C0D"/><path d="M114 9c3 1 4 3 5 5l1 4-1 1v-2l-1-2-1-1-3-4V9Z" fill="#632816"/><path d="M18 149v9l-2-4 1-2v-2l1-1Z" fill="#C89984"/><path d="M128 130c3 0 4 0 5 2l2 3h-1l-2-1v-1l-1-1-3-2Z" fill="#F88420"/><path d="m22 101 1 1-3 1v1l-3 1-2 1h-2l4-3 1-1 4-1Z" fill="#341D20"/><path d="M102 80h4v3h-4v-3Z" fill="#F9C3A2"/><path d="m27 75 2 1v2h-3l-1-1 2-2Z" fill="#C27860"/><path d="M72 45h1v2h3v1h-1l-2 2h-1l-1-3v-1l1-1Z" fill="#AD6C6F"/><path d="M50 42h1l-2 5-1 2-2 2v-2l1-2 3-5Z" fill="#917582"/><path d="m114 44 1 1 1 2 3-2-3 4h-2v-5Z" fill="#B37874"/><path d="M112 44h1v6l-2-1v-3l1 1v-3Z" fill="#B29391"/><path d="m120 44 1 1h1v1l1 1-1 1 2 1-5-2-1-1 1-1 1-1Z" fill="#B47669"/><path d="m167 30 1 2h-1v-1h-3l-2-1h-4v-1c3 0 6-1 9 1Z" fill="#C27066"/><path d="m83 183 1 1h4v-1h2c-3 3-5 3-9 3l2-1v-2Z" fill="#490D04"/><path d="m43 160 3 4v4l-1-1v-2h-1l-1-5Z" fill="#C2775D"/><path d="m4 128 3 1-1 5-2-4v-2Z" fill="#986154"/><path d="M74 83h1l-3 7-2 2-1-2h1l2-4h1l1-3Z" fill="#210D11"/><path d="M160 64c2 0 3 0 4 2l1 3h-2v-1l-3-4Z" fill="#FBCD9E"/><path d="M165 42h4v4h2-3l-1-4-4 1 2-1Z" fill="#D88D73"/><path d="m63 11 2 1-1 1 1 2-3 1-1-1 2-4Z" fill="#1D233C"/><path d="m54 166 2 1-1 3h-1v5l-1-1v-6l1-2Z" fill="#774340"/><path d="m14 140 1 1-5 4-1-3h1v-2h1l1 2 2-2Z" fill="#242029"/><path d="M83 137v1l-3 2v1l2-1c0 2-1 2-3 3v-5l4-1Z" fill="#3B0906"/><path d="M8 132v1l1 1v3l-1 1-2-2 2-4Z" fill="#443438"/><path d="M6 93h4l2 2v1l-6-2v-1Z" fill="#251F2C"/><path d="M74 85h1c-1 3-1 6-3 8h-3l1-1 4-7Z" fill="#5E3C41"/><path d="m121 85 1 2v1l1 1-2 1v1h-3l3-6Z" fill="#D6AD8E"/><path d="M29 76h1l-1 7h-1l-1 3 2-10Z" fill="#331818"/><path d="M83 71v1h1c1 3 0 5-1 8v-9Z" fill="#2B0E14"/><path d="m101 42 4 1v2l-1-1-1 2-2-1 1-1-1-1-1 1 1-2Z" fill="#45120B"/><path d="M98 39h5l3 1-7 1-1-2Z" fill="#473131"/><path d="m76 181 3 2v2l-2-1v-1h-2l1-2Z" fill="#3C100C"/><path d="M133 161h1v1l-3 8h-1l3-9Z" fill="#912907"/><path d="m5 118 2 2H5v1l-1 2H3l-1-2h1v-1l2-2Z" fill="#674446"/><path d="M175 79h3l-2 2-3-1-5 1v-1l7-1Z" fill="#F7B983"/><path d="m32 76 3 1 1 2 1 1v1h1l-1 1c-2-1-3-2-3-4h-1l-1-1v-1Z" fill="#A97F84"/><path d="m100 78-2 1-1-1v2l-2 2v-3c2-2 3-2 5-1Z" fill="#732411"/><path d="M75 77h1v1l1 3-1 2h-1l-1-2v-2l1-2Z" fill="#190A08"/><path d="M138 75h2l-1 2h-8v-1h7v-1Z" fill="#F9B588"/><path d="m108 70 1 1-1 1h1v2l1-1h1l-2 3v-1l-2-2 1-3Z" fill="#A47463"/><path d="m116 69 1 1-1 2-1 4-2-1 3-6Z" fill="#762E12"/><path d="m19 56 3 1v1h2v2l1 1-3-1v-1l-2-1v-1h-1v-1Z" fill="#DBA593"/><path d="M160 53h1l1 1h4v3l-1 1v-2h-1l-4-2v-1Z" fill="#FAB37F"/><path d="M32 51h3l-4 2h-5l-1-1 5 1v-1h2v-1Z" fill="#CE837B"/><path d="M54 26v5l-1 2v1l-1 4c-1-5 1-8 2-12Z" fill="#977F89"/><path d="m75 3 1 1-7 4 1-3h2l2-1 1-1Z" fill="#222136"/><path d="M103 4h6l-2 1 2 1-3 1-1-1-1-1h-1V4Z" fill="#401D11"/><path d="M127 183v3l1 1-1 2v1l-2 1 2-8Z" fill="#6D1A08"/><path d="M133 182h1l1 3v4l-3-1v-2h1v-4Z" fill="#CC5D1E"/><path d="m34 173 1 1 7 4-8-2v-3Z" fill="#6D281A"/><path d="M131 173h1c0 3 0 4-2 7h-1l2-7Z" fill="#630E02"/><path d="M135 163h1v4h-1v1h-1v3h-1c0-3 0-5 2-8Z" fill="#92504A"/><path d="m105 99 3 1v1h1c1 2 2 3 1 5l-1-1-4-6Z" fill="#C78B82"/><path d="M26 75h1l-2 2-2 6-1-2 1-2v-2l3-2Z" fill="#420F08"/><path d="m25 66 3 1v1h-2l1 6h-1l-1-8Z" fill="#A57B7D"/><path d="m125 56 3 5 1 1-1 3-2-4-1-3v-2Z" fill="#752D0D"/><path d="M45 50h2l-1 3-2 1v-2h-1l2-2Z" fill="#8D6264"/><path d="m124 26 1 5v3l-2 1v-5l1-4Z" fill="#633420"/><path d="M149 22h2v1l3 1 2-1v2h-4v-1h-5v-1h2v-1Z" fill="#A895A3"/><path d="m120 18 2 5 1 1v1l-3-1v-6Z" fill="#300C04"/><path d="m131 188 1 2-4 4v-1l1-3 1-2h1Z" fill="#A43E1C"/><path d="M55 168h1v8h-1l-1-6h1v-2Z" fill="#855157"/><path d="M181 138h1l2 1h3l1 1-10-1 3-1Z" fill="#EA9162"/><path d="M83 120h1c0 3 0 6-2 9l1-6v-3Z" fill="#752F27"/><path d="M75 114c2 2 3 4 3 7l-1 2-2-9Z" fill="#571005"/><path d="m4 103 1 1H4v3l-1 3H2c0-3 0-5 2-7Z" fill="#200F11"/><path d="m107 101 2 4v2l1 1v3l-3-8v-2Z" fill="#CF7238"/><path d="M77 96c3 1 5 1 6 3h-4l-1-1-1-1v-1Z" fill="#A07778"/><path d="M21 93v1H11l3-1h7Z" fill="#2A0F0C"/><path d="m116 77 1 3-1 1h1l-1 2-2 1 2-7Z" fill="#D18C65"/><path d="M104 67h8l2 1v1h-1l-5-1h-4v-1Z" fill="#721D1F"/><path d="m75 58 3 2h-1l1 2v4l-1-5h-1l-1-2v-1Z" fill="#270D0F"/><path d="M42 58h2v2l-3 2-1 2h-2l3-4v-1l1-1Z" fill="#2F2328"/><path d="m189 55 2 4-5-1v-1h3v-2Z" fill="#FECE94"/><path d="M79 56h1v3h-4l-1-2h4v-1Z" fill="#886163"/><path d="m76 55 3 1v1l-3 1-3-3 3 1v-1Z" fill="#A77577"/><path d="M164 51h3v1l1 1v4l-1-2-1-3h-2v-1Z" fill="#E38F70"/><path d="M88 47v9l-1-2 1-7Z" fill="#13080E"/><path d="M124 39v4l-1 2-1 1-1-2h1v-1l-1-1 2-2h1v-1Z" fill="#340805"/><path d="m106 40 4 1v4h-3v-1h1v-2l-2-1v-1Z" fill="#86625E"/><path d="m106 36 3 2 1 2h1v1l-5-1 1-2-1-1v-1Z" fill="#845D5D"/><path d="M161 32h6l-5 1v2h-5v-1h4v-2Z" fill="#FAA87B"/><path d="m130 26 2 1 1 7-2-4-1-2v-2Z" fill="#835D55"/><path d="M110 23v1l2 2h1-2l-1 3h-1l-1-1 1-3h1v-2Z" fill="#1D1924"/><path d="M108 15h1v12l-1-4h-1l1-8Z" fill="#08050F"/><path d="M74 17h2l-3 6-1-3 1-1 1-1v-1Z" fill="#21263E"/><path d="M97 178h2l-1 2-1 1-1-2 1-1Zm-1 3 1 1-1 1-2 2-2-1 4-3Z" fill="#611B0F"/><path d="m44 169 2 1 1 3-1 1-2-1v-4Z" fill="#783C29"/><path d="M93 134v1h-1v2h-2v-1l-3 1 6-3Z" fill="#6A1A07"/><path d="M76 128c1 3 2 5 1 8l-2-3 1-5Z" fill="#6F261B"/><path d="M181 125h2l1 1h-7l4-1Z" fill="#CC774C"/><path d="M114 122v5l-3-1v-1h-1l1-1h1l1-1h1v-1Z" fill="#9E3710"/><path d="m11 121-1 1H9l1 3H9l-2-3 4-1Z" fill="#7C4D4C"/><path d="M92 95c3 1 5 2 6 4h-2l-4-3v-1Z" fill="#5D1609"/><path d="m105 84 3 2-3 4v-1l-1-1 1-2v-2Z" fill="#843816"/><path d="M130 70h1c1 8 1 8-2 12h-1l1-1 1-7v-4Z" fill="#935939"/><path d="m188 69 5 2v1h1v1h-1l-3-1-2-3Z" fill="#FED7A2"/><path d="m129 63 1 1v2l-1-1v5h-1v-3h-2v1-2h2l1-3Z" fill="#B87B6F"/><path d="m44 49 1 1-2 2h1v3l-2 1v-1l1-1-1-2v-2l1 1v-1l1-1Z" fill="#A47777"/><path d="m76 42 1 2v1l-5-2v-1h4Z" fill="#996D71"/><path d="M149 23h2l-1 1-3 3h-3v-1h2l1-1c0-2 0-2 2-2Z" fill="#A5757B"/><path d="m90 0 11 1v1L90 1V0Z" fill="#878C9D"/><path d="M84 188h7l-1 2h-3l-4-1 1-1Z" fill="#631D11"/><path d="m75 140 2 5v2l-2-6v-1Z" fill="#742C1F"/><path d="m7 136 2 3 1-1h1l-1 4-2-2-1-4Z" fill="#1D0E0D"/><path d="m20 129 1 2-1 1-2 1-1 1-2 2 2-4 2-2 1-1Z" fill="#1C0A0A"/><path d="m167 124 10 2c-4 0-6 0-10-2Z" fill="#F6A473"/><path d="m198 122-1 3-4-3h5Z" fill="#DF8E64"/><path d="m150 122 9 2-1 1-8-2v-1Z" fill="#B26539"/><path d="m136 121 8 1-1 1v1l-2-1h-2l-3-2Z" fill="#E79966"/><path d="M159 107h9v1l-9-1Z" fill="#D79A8F"/><path d="M11 101h2v1h1l2 1h2l-3 1c-2 0-3-1-4-3Z" fill="#BC765C"/><path d="m89 98 3 2-3 1h-1l-1-1h-5l7-1v-1Z" fill="#7E4A4B"/><path d="M78 81h2l-1 2v-1l-1 2-2 2-1 1v-2h1v-2h1l1-2Z" fill="#774C4F"/><path d="m176 38 4 2 1 1-4 1-1-4Z" fill="#EAA98F"/><path d="M112 34v2h1v-1h1c2 2 1 4 1 6l-1-3v-1l-2 1v-4Z" fill="#431715"/><path d="M119 28h1v5l-1 3v-8Z" fill="#1F1315"/><path d="M97 20v9l-2-1c-1-3 1-5 2-8Z" fill="#090A18"/><path d="m134 189 1 3-2 3h-1v-5l1 1 1-2Z" fill="#AA4A21"/><path d="m49 164 4 3v1l-4-2v-2Z" fill="#7A351E"/><path d="M30 155h1v5h1l1-1v2h-3v-6Z" fill="#E49C75"/><path d="M80 136h4l-1 2h-4l1-2Z" fill="#541611"/><path d="m51 127 1 2 1-1-2 7-1-5v-2l1-1Z" fill="#3A0A06"/><path d="M146 113h9v1h-11l2-1Z" fill="#BA7265"/><path d="m152 105 5 2v1l-6-2 1-1Z" fill="#F5925E"/><path d="m15 104-4 2-1 1H8l1-2 6-1Z" fill="#785558"/><path d="m95 98 2 1h2v1h-4v2l-3-1h1l1-2 1-1Z" fill="#955551"/><path d="M67 96v1h-1l-1 1-2 2h-2c2-2 3-4 6-4Z" fill="#6F2215"/><path d="M100 83v4l-1 1v1l-3 1 4-7Z" fill="#F5C09A"/><path d="M59 81h1v3l-1 4-1-1v-3l1-2v-1Z" fill="#1B1822"/><path d="m125 74 5 1-1 1h-3v1-1h-1v-2Z" fill="#F6B084"/><path d="m34 65 1 1 1-1 2 1v1l-1 1-3-1v-2Z" fill="#2A1E1F"/><path d="M117 52h2l1 3-1 1-2-2v-2Z" fill="#AF735C"/><path d="M98 42h1l1 3 1 2h-2v2l-1-4v-3Z" fill="#2C120E"/><path d="M126 28v5l-1 5-1-4h1l1-6Z" fill="#B57A68"/><path d="m19 144 1 4v2h-1l-1-3 1-3Z" fill="#16090B"/><path d="M137 139h1c2 3 2 5 2 8l-2-3-1-5Z" fill="#982E08"/><path d="M85 139h1c-1 2-2 3-4 3l-1 1h-2l6-4Z" fill="#6C2C24"/><path d="m191 131 4 2h-7l2-1 1-1Z" fill="#9E562F"/><path d="m118 119 1 1 5 1-1 2-5-3v-1Z" fill="#95431D"/><path d="M154 120h4l2 1-2 1h-5l1-2Z" fill="#D18064"/><path d="m4 91 1 1 10 1v1L5 93l-1-2Z" fill="#482016"/><path d="m95 90 1 1 1 1-5 2 1-2 2-2Z" fill="#BA9390"/><path d="M194 86h5v1h-5v-1Z" fill="#F6CB8C"/><path d="m120 74 2 1-1 7-1-8Z" fill="#F8BA97"/><path d="m8 73 5 2 1-2v3l-6-2v-1Z" fill="#75413C"/><path d="M113 37h1v3l-2 1v-3l1-1Z" fill="#592421"/><path d="m122 15 4 5v1l-3-3-1-1v-2Z" fill="#ECAC7A"/><path d="m77 185 3 2h-3l-1-1v1h-1l-1-2h3Z" fill="#400E07"/><path d="m132 173 1 4v3l-1-1v-6Z" fill="#DF7A42"/><path d="m10 134 1 4h-1l-1 2v-4l1-2Z" fill="#0F090C"/><path d="m108 111 2 2h1l2 3h-1l-1 1-1-2-1-2-1-2Z" fill="#E5824B"/><path d="M93 102h1l3 2-1 3v-1l-2-2-1-2Z" fill="#C98B77"/><path d="m176 94-1 1h-1v1h-3l1-2h4Z" fill="#D59575"/><path d="m37 85 1 1h-1v-1Zm-2 1h2v1l-1 1-1 2h-1l1-4Z" fill="#0F0F18"/><path d="m95 73 1 1 2-1 1 1 3 3h-3l-1-1-2-1-1-1v-1Z" fill="#9C665F"/><path d="m25 66 1 7v2l-2 1v-1l1-9Z" fill="#D0846B"/><path d="M48 63v7l-2 1 2-8Z" fill="#171013"/><path d="m36 62 2 2-3 3 1-5Z" fill="#C39D8F"/><path d="M87 53h1c1 7 1 7-1 9v-9Z" fill="#5F3F43"/><path d="M118 58h1v3l-4-1 3-2Z" fill="#B35E58"/><path d="m130 49 1 1h-1l-1 2-3-2 4-1Z" fill="#E6A688"/><path d="m119 46 1 1v2l-1 1-2-1 1-2 1-1Z" fill="#481A18"/><path d="M105 44v2h1l1 2h-3l1-4Z" fill="#AE96A2"/><path d="M134 38c2 2 1 4 1 7h-1v-7Z" fill="#A76D6B"/><path d="m104 36 4 2v1h-4v-3Z" fill="#967276"/><path d="m121 28 1 1v5l-1 1v-7Z" fill="#1D131A"/><path d="M152 15h1v2h-1l2 2-1 1h-1l-1-4 1-1Z" fill="#A89AA4"/><path d="m144 182 5 3 1 1h1l-1 1c-3-1-4-2-6-5Z" fill="#C4704C"/><path d="M131 179h1v9h-2l1-9Z" fill="#DC6C2C"/><path d="M135 173h1l-1 2-1-1v8h-1v-8l2-1Z" fill="#9B3F22"/><path d="M33 160v4l-1 1-1-4h2v-1Z" fill="#A05643"/><path d="M139 147h2l-2 6-1-2 1-2v-2Z" fill="#BA592E"/><path d="m122 145 3 2v1h1v1h-2v-1l-2-1v-2Z" fill="#93310C"/><path d="m129 138 1 1v1l-3 6h-1c0-3 1-5 3-8Z" fill="#D25816"/><path d="M115 138h1v1l1 1 4 2v1l-1-1-3-1v-1l-2-1v-1Z" fill="#D85D1A"/><path d="M54 122v5l-2 2c0-3 0-5 2-7Z" fill="#561208"/><path d="M116 119c5 2 5 2 6 5l-2-1v-1l-4-1v-2Z" fill="#F2822E"/><path d="M7 110v1H5l-1 1H1l1-2h1l2-1 2 1Z" fill="#131420"/><path d="M5 105v3h2l-4 1c0-2 0-3 2-4Z" fill="#6B4D51"/><path d="M95 100h3v2l-2 1-1-1v-2Z" fill="#A36561"/><path d="m80 100 4 2-1 1h-2v-1h-1v-2Z" fill="#87301A"/><path d="M70 94h3v1h-8l5-1Z" fill="#48140D"/><path d="M97 88v1l1 1v2l-2 1v-3l-1-1 2-1Z" fill="#91635A"/><path d="M123 79h1v5l-1 2h-1l1-7Z" fill="#EAAF92"/><path d="m87 77 2 3 1 1v5h-1v-4l-1-2h-1v-3Z" fill="#925A5A"/><path d="m113 72-1 4-1 1v1h-1v-4l3-2Z" fill="#F5D4B9"/><path d="m106 41 2 1v2h-1l1 3-3-5h1v-1Z" fill="#331214"/><path d="m130 26 1 3-1 1h-2v-3l2-1Z" fill="#E79F6C"/><path d="M87 21h3v2l-1 1v-1h-2v-2Z" fill="#272F4F"/><path d="M142 180h2v1h1l2 1 1 2-4-2-1-1h-1v-1Z" fill="#964E39"/><path d="M72 160h1l1 3v1l-1 2v1-4h-1v-3Z" fill="#865556"/><path d="M73 132h2l1 4-2-1-1 1v-4Z" fill="#6C2010"/><path d="M129 127h3v2l2 1-1 1-2-2h-1l-1-1v-1Z" fill="#883E24"/><path d="m194 123 2 1 1 3-3-1v-3Z" fill="#B46545"/><path d="m103 111 2 3v1l-3-1 1-3Z" fill="#D99B81"/><path d="m99 100 2 3v2l-2-1v-4Z" fill="#8A4532"/><path d="m146 96 6 1h-2v4l-2-2-1-2-1-1Z" fill="#CE9C8E"/><path d="m192 95 4 1-1 1-3-1-1 2h-1v-2h2v-1Z" fill="#ECB58A"/><path d="m184 86 2 1h4v1h-5l-3-1 2-1Z" fill="#EDC183"/><path d="m86 84 1 2v2l-2 1 1-5Z" fill="#8D696A"/><path d="m77 76 1 3v1l1 1-2 1-1-2 1-4Z" fill="#673E40"/><path d="M116 71v7l-2-1v-2h1v-2l1-2Z" fill="#91350D"/><path d="m128 72 2 1v2h-5v-1h2l1-2Z" fill="#E08E72"/><path d="M117 68h1v6h-1v-6Z" fill="#CA7851"/><path d="m48 63-1 4v2l-2 1c0-2 1-5 3-7Z" fill="#CEBBB3"/><path d="M123 57v3h-3 1v-2l2-1Z" fill="#5B2F29"/><path d="M149 51h4l2 1h-4v1h-2v-2Z" fill="#FBAE79"/><path d="M134 48v3h-3v-1l3-2Z" fill="#F5A176"/><path d="M48 43h2l-3 5-2-2 1-1v1l2-1v-2Z" fill="#775767"/><path d="M119 37h1l-1 6h-1v-2h-1l1-1 1-3Z" fill="#784744"/><path d="M73 20v2l1 1h-2v1l-1 1c0-3 0-3 2-5Z" fill="#151A2F"/><path d="m127 15 1 1v1h1l1 1 1 1-5-1v-2h1v-1Z" fill="#A497A8"/><path d="M76 183h1v1l3 1v1c-2 0-3 0-4-2v-1Z" fill="#4E1A13"/><path d="M113 181h1v1l-2 2h-1l-1 1-1-1 3-2 1-1Z" fill="#551004"/><path d="m28 168 2 2 1-2h1l-2 4-2-2v-2Z" fill="#653931"/><path d="m77 154-1 3h-1v-2h-4l6-1Z" fill="#440D09"/><path d="m69 141 2 2 1 2 1 1h-2l-1-2-1-1v-2Z" fill="#661606"/><path d="m121 122 3 2 2 1 2 2-5-2v-1l-2-1v-1Z" fill="#E5823F"/><path d="M82 116h1v5l-1 1v-6Z" fill="#661606"/><path d="m108 114 3 4-1 1-2-2v-3Z" fill="#9A7171"/><path d="m120 91-2 1v1h1l1 2-2-1-1-1-1-1c1-1 2-2 4-1Z" fill="#B08A7F"/><path d="M95 93h5l-4 2h-2l1-2Z" fill="#B38178"/><path d="m118 77-1 5-2 1 2-5h1v-1Z" fill="#FBC39E"/><path d="M71 46v6c-2-2-1-3-1-6h1Z" fill="#8A3E46"/><path d="M171 42h1v2h1v3l-3-1h2l-1-4Z" fill="#E2B193"/><path d="M91 40v2h5l-2 2-3-1v-3Z" fill="#1C0304"/><path d="M148 34h1l1 2h-2l-4 1c1-2 1-3 4-3Z" fill="#A1838C"/><path d="M97 21h3l-1 3h-2v-3Z" fill="#272D45"/><path d="M96 19h1l-2 6v-4l1-1v-1Z" fill="#1C223A"/><path d="m84 17 1 1-1 2h-1l-3 1 1-3 2 1 1-2Z" fill="#141A2D"/><path d="M140 150h1l1 4-3-1 1-3Z" fill="#DA7F55"/><path d="M83 143v2h-3v-2h3Z" fill="#3D0A08"/><path d="M188 141h3l-1 3h-2l1-2-1-1Z" fill="#CF774C"/><path d="m181 129 5 1v1l-5-1v-1Z" fill="#945148"/><path d="m108 118 3 1 1 2h-3l-1-3Z" fill="#8C5052"/><path d="m106 105 3 2-1 2-2-3-1-1h1Z" fill="#E96B14"/><path d="M13 101h5v2h-3l-2-2Z" fill="#EA8C58"/><path d="m6 98-6 3v-2l6-1Z" fill="#735956"/><path d="M94 82h1l-1 5-1-1 1-4Z" fill="#6F301B"/><path d="m84 82 1 1-2 3-2 1 3-5Z" fill="#764D4E"/><path d="M196 78h2v3h-4 3v-1h-1v-2Z" fill="#F5BF81"/><path d="m122 74 1 8h-2l1-8Z" fill="#7C2D10"/><path d="M78 73h1v7h-1v-7Z" fill="#785152"/><path d="m77 74 1 1v2l-1 2h-1l1-5Z" fill="#412224"/><path d="M78 49v1h2l-2 4-1-1v-4h1Z" fill="#9F7077"/><path d="M61 20h1l-3 5-1-1 2-3h1v-1Z" fill="#12182F"/><path d="M129 20h3v2h-3v-2Z" fill="#C49692"/><path d="m81 19 2 1-1 2h-3l2-3Z" fill="#27304E"/><path d="m111 5 5 1v3l-5-3V5Z" fill="#857171"/><path d="m110 5 1 1v1l-2 1-1 1V8h-1V6l3-1Z" fill="#976C5F"/><path d="M32 155h1v1h3v1l-1 1-2 1-1-4Z" fill="#481F12"/><path d="m76 150-5 1h-3l4-1 1-1 3 1Z" fill="#651405"/><path d="M114 124h1v3l-5 1v-2h3l1 1v-3Z" fill="#D6601D"/><path d="M35 117h2l-2 3-1 1-2 1 1-3 1-1 1-1Z" fill="#09060F"/><path d="m5 108 2 1-6 2-1-1h3v-1l2-1Z" fill="#2D212D"/><path d="m144 99 4 1-3 2-1-3Z" fill="#CE734E"/><path d="m8 83-4 3-1 1 1-3c1-1 2-2 4-1Z" fill="#D3886B"/><path d="m180 78 5 1-2 1h-4l2-1-1-1Z" fill="#F8CA89"/><path d="m176 54 5 1h-1l-1 1v-1a165 165 0 0 0-3 0h-1l-1 1v-1h2v-1Z" fill="#F3A97A"/><path d="M118 43h1v1l2-1h1v1h-1v2l-2-1-1-2Z" fill="#62221B"/><path d="m110 35-2 1 1 1-4-1v-1h5Z" fill="#341C1E"/><path d="M152 33h1v1l2 1 1 2-3-1v-1l-1-1v-1Z" fill="#CDA69C"/><path d="m126 20-1 1v1h-1l-1 1-1-3h4Z" fill="#ED995E"/><path d="m76 194 5 1-3 1 1 1h-2l-1-3Z" fill="#581A0F"/><path d="M105 191v1l-5 1v-1l5-1Z" fill="#681908"/><path d="M53 178h1v4l-3-1v-1h1l1-2Z" fill="#B16354"/><path d="M148 153h3l-1 2h-3l1-2Z" fill="#D67B4B"/><path d="m11 136 2 1-3 3 1-4Z" fill="#A77B72"/><path d="M168 134h3l2 2-5-2Z" fill="#F6A36E"/><path d="m138 122 5 2h-5v-2Z" fill="#8B4732"/><path d="M105 120h3v1h1v2l-3-1v-2h-1Z" fill="#883220"/><path d="m113 115 5 4-1 1v-1h-3v-1l-1-3Z" fill="#CB6522"/><path d="M149 101h1v1h3v2l2 1-3-1-1-1-2-2Z" fill="#CE8878"/><path d="m68 95 2 1-3 3h-1l2-2-1-1 1-1Z" fill="#6E2112"/><path d="M175 94h1v1l2 1h-1v2l-2-4Z" fill="#ECA986"/><path d="M76 86h2l-2 4h-2l1-1 1-3Z" fill="#8E7776"/><path d="m22 83 2 3-1 3h-1v-6Z" fill="#805350"/><path d="M85 77h1v6h-2l1-6Z" fill="#8A6366"/><path d="m41 76 1 1-4 5-1-1 4-5Z" fill="#6E6370"/><path d="M21 78h2l-1 3-1 1v-4Z" fill="#C37B66"/><path d="M94 70h1v2h2v2l-3-1-1-2 1-1Z" fill="#976D6A"/><path d="m131 64 2 2v-1h1l-1 2h-3l-1-2h1l1-1Z" fill="#E8A992"/><path d="M168 59a204 204 0 0 1 4 0h1v1l-2 1v-1l-1 1-1-1h-1v-1Z" fill="#FABD82"/><path d="M78 59h2v1h-1v2h-1v2-5Z" fill="#442224"/><path d="M126 52h1l1 7-2-2v-5Z" fill="#A97B60"/><path d="m45 53 1 1-1 2-1 1-2-1 3-3Z" fill="#C6A7A7"/><path d="m119 48 4 1-2 3-2-4Z" fill="#1A0708"/><path d="M112 43v4h-4l1-1 1-1 2-2Z" fill="#9D7674"/><path d="M95 36h1l-1 2-3 2 3-4Z" fill="#593A3E"/><path d="M130 30c2 3 1 5 1 9h-1v-9Z" fill="#682E16"/><path d="m114 23 3 2-2 2-1-2v-2Z" fill="#1A1B2B"/><path d="M91 22h3l-1 2h-2v-2Z" fill="#233055"/><path d="M121 19h1l1 2v5-2h-1l-1-5Z" fill="#BE7A54"/><path d="M116 14c2 2 2 3 2 5l-1 2-1-7Z" fill="#664036"/><path d="M109 3h1l1 3-5-1V4h3V3Z" fill="#9C7F7C"/><path d="M126 194h1l-1 2-2 2-1-1v-1h1l1-1 1-1Z" fill="#681D0B"/><path d="m44 178 4 3-1 2-3-4v-1Z" fill="#8B4532"/><path d="m46 172 3 4v2c-2-2-3-3-3-5v-1Z" fill="#AB624B"/><path d="m135 139 2 1v3h-1v-3l-1-1Z" fill="#8E351F"/><path d="m75 137 2 4-1 2v-2l-1-1v-3Z" fill="#4B0A01"/><path d="M79 129h1l-1 7h-1l1-4v-3Z" fill="#410E0A"/><path d="M172 130h4l3 1h-4l-3-1Z" fill="#F7AE78"/><path d="m85 127 1 2h-1v1l-3 3 2-5h1v-1Z" fill="#78342A"/><path d="m25 121-2 4h-1l1-3 2-1Z" fill="#7F625D"/><path d="M20 115h1l-1 1-2 3h-1c0-2 1-3 3-4Z" fill="#0E070B"/><path d="m97 104 3 1v1l-3-1v2h-1v-2l1-1Z" fill="#DA987A"/><path d="M108 94v2l-2 1h-2l1-2h2l1-1Z" fill="#A4797F"/><path d="m4 94 1 1v2H2l-1-1h3v-2Z" fill="#251210"/><path d="m68 90 2 1-3 3h-1l2-4Z" fill="#12070C"/><path d="M101 86h1v4h-2l1-4Z" fill="#EFBD9E"/><path d="M31 82h2v1h-1c0 2 0 2 2 3h-2l-1-4Z" fill="#DA8E6F"/><path d="M47 81h1l-3 3h-1l1-1v-2h2Z" fill="#16161F"/><path d="m8 79 3 1 1 2h-1l-3-1v-2Z" fill="#F2885B"/><path d="M124 77h1v5l-2 3v-5l1-3Z" fill="#A66F4A"/><path d="M122 75h1v5h-1v-5Z" fill="#923F20"/><path d="M109 71h4v1l-4 2v-3Z" fill="#943E37"/><path d="M33 68h2l-2 2-2 1c0-2 1-2 2-3Z" fill="#28171B"/><path d="m25 61 1 1v4h-1v-5Z" fill="#E5A490"/><path d="m112 61 2 1v3h-3l2-1v-1h-1v-2Z" fill="#A67E7F"/><path d="m90 59 1 3 2 1-2 1h-1v-5Z" fill="#916C6D"/><path d="m49 57 1 1-2 3v1l-1 1v-4l2-2Z" fill="#C6AFAB"/><path d="M124 49h1l1 3h-4l1-1 1-2Z" fill="#CAA992"/><path d="m158 51 4 2a86 86 0 0 1-7-1l3-1Z" fill="#EE9973"/><path d="M148 50h5v1h-4v1h-3v-1h2v-1Z" fill="#EE996F"/><path d="m99 34 1 1-5 3h-1l5-4Z" fill="#230B0C"/><path d="m170 33 5 1 1 1h-3v-1h-3v-1Z" fill="#CC6E64"/><path d="M76 20h3l-1 2-3-1 1-1Z" fill="#232F50"/><path d="M130 193h1l-1 3-2-1 2-2Z" fill="#651E18"/><path d="m132 182 1 1v3h-1v1h-1l1-5Z" fill="#F47D1E"/><path d="M96 180h1l-2 3-2-1 3-2Z" fill="#6E2616"/><path d="M32 169v1h1l1 3-3-1 1-3Z" fill="#512A1E"/><path d="m39 164 1 1-1 3h-1l-1-3 2-1Z" fill="#5A2818"/><path d="M48 162h1l1 1 1 1 2 1v2l-5-4v-1Z" fill="#A76B56"/><path d="M154 156h4-3v2h-2l1-2Z" fill="#F3A565"/><path d="M138 152h1l-1 4h-1v-2l1-2Z" fill="#CB703E"/><path d="m82 148 3 1v1l2 1-1 1-3-2-1-2Z" fill="#5C1407"/><path d="m126 142 1 4v1l-1 1h-1v-2h1v-4Z" fill="#E56F2E"/><path d="M14 129h1l-2 4h-1l1-3 1-1Z" fill="#1A0807"/><path d="M185 126h3v1h-5l2-1Z" fill="#C16D45"/><path d="m126 122 1 1h-1l1 3-4-3h3v-1Z" fill="#85432D"/><path d="m23 112-4 3-1-2 2-1h3Z" fill="#725853"/><path d="m17 104 1 1-2 2h-2v-1l3-2Z" fill="#15111D"/><path d="M3 103h1l-2 4H1v-3l2-1Z" fill="#654E4F"/><path d="M88 95c2 2 1 2 1 4h-2l1-1v-1l-1-1 1-1Z" fill="#985E5E"/><path d="M43 85h1l-1 1c-2 0-2 0-2 2l-3 1 5-4Z" fill="#1E1D28"/><path d="M171 83h5l1 1h-7l1-1Z" fill="#F0B985"/><path d="m90 81 1 1v1h1l-1 3-1-1v-4Z" fill="#99594A"/><path d="m25 81 2 1v1h-3v-2h1Z" fill="#DC7D53"/><path d="M110 78v5l-1-1 1-3v-1Z" fill="#833E22"/><path d="m35 70 1 1h1v1h-1l-1 1-1-1 1-2Z" fill="#917B88"/><path d="m34 67 3 1-3 3 1-3h-1v-1Z" fill="#110707"/><path d="m90 66 1 2h1v2h-2v-4Z" fill="#795553"/><path d="M127 46v2l-1 2v1h-1v-4l2-1Z" fill="#874634"/><path d="M128 44v3l-1 2h-2l3-5Z" fill="#E1947A"/><path d="M125 46v3l-3-1 3-2Z" fill="#440F08"/><path d="m103 44 2 1-2 3-2-1h2v-3Z" fill="#8C4E34"/><path d="m45 40 1 1v1h3v2l-4-1v-3Z" fill="#978191"/><path d="M109 27v2h1v4h-1v-6Z" fill="#1C090A"/><path d="m100 2 6 1h-1v1l-5-1V2Z" fill="#634E4E"/><path d="M130 191h2l-3 4h-1l2-4Z" fill="#640D03"/><path d="m76 189 1 2v2h-1l-1-3 1-1Z" fill="#2F0809"/><path d="M18 145v1c0 2-1 2-2 3h-1l-1 1 2-3 1-1 1-1Z" fill="#CFA289"/><path d="m88 146 2 1v1h-4v-1h2v-1Z" fill="#661A0A"/><path d="m172 144-1 1-4-1h5Z" fill="#C06E42"/><path d="m142 136-1 3h-1v1l-1-3 3-1Z" fill="#8C4837"/><path d="M81 128h2v3h-2v-3Z" fill="#4A110E"/><path d="M129 127v3l-1-1 1-1h-4l-1-1h5Z" fill="#F2872A"/><path d="m76 120 1 1 1 2v3l-2-3v-3Z" fill="#682318"/><path d="m176 113 6 1-2 1-4-2Z" fill="#D37E5A"/><path d="m12 106 1 1-5 1v-1l4-1Z" fill="#30212B"/><path d="M0 90c2 2 2 3 2 5H0v-5Z" fill="#A76A53"/><path d="m102 77 4 1v2h-2v-1h-1l-1-2Z" fill="#AA6052"/><path d="M45 71h1l-2 5h-1l2-5Z" fill="#14172D"/><path d="m4 74 3 1v2l-4-2 1-1Z" fill="#E07241"/><path d="m113 66-1 2h-4c1-2 3-3 5-2Z" fill="#9D484D"/><path d="M114 60h4v2h-2v-1h-3l1-1Z" fill="#88382F"/><path d="m40 53 1 2-3 1-3-1h2l3-2Z" fill="#D7A297"/><path d="M121 49h3v2l-2 1-1-3Z" fill="#4E1F1A"/><path d="m113 48 1 1h2v2h-3v-3Z" fill="#230F0D"/><path d="M99 43h3v1l-2 2h-1v-3Z" fill="#9A5A46"/><path d="m95 32 2 2-1 2-1-1h-1l1-3Z" fill="#160C0F"/><path d="M110 32h2v2l-3 1 1-3Z" fill="#2E181A"/><path d="m64 18 1 1-1 2-1 1-2 2 3-6Z" fill="#10152B"/><path d="m89 13-1 4-1 1v1l-1-2 1-2h1l1-2Z" fill="#080811"/><path d="m122 14 2 1v1h1v2l-3-4Z" fill="#977765"/><path d="m109 8 2 2v2l-2-1V8Z" fill="#14090A"/><path d="M120 194v2l-2 1h-1l3-3Z" fill="#6E1E0B"/><path d="m106 158 1 1-1 1h-1l-2 1 3-3Z" fill="#611A0F"/><path d="M50 133h1v2h-1v3h-1l1-5Z" fill="#471C18"/><path d="m85 125 2 1-1 2h-2l1-3Z" fill="#7D2E21"/><path d="m28 121 1 1-1 2h-2v-2h1l1-1Z" fill="#19141C"/><path d="M143 118v2l-5-1v-1h5Z" fill="#AD674B"/><path d="m11 101 1 1v1h2-4l1-2Z" fill="#895445"/><path d="M143 96h2v1l1 1h-1l2 1h-3l-1-3Z" fill="#C76E45"/><path d="m109 91 5 1v1l-5-1v-1Z" fill="#B48B83"/><path d="m18 86 2 1v2h-1l-1-3Z" fill="#F28753"/><path d="m142 85-1 1h-2l-2-1h-1 6Z" fill="#E9B286"/><path d="m151 81 2 1 1 1 1 1-4-1v-2Z" fill="#FDD0A1"/><path d="M100 79h1l-1 3h-1l1-3Z" fill="#E78055"/><path d="M12 77h1l1 2-1 1-2-1h1v-2Z" fill="#DD7E5A"/><path d="m113 73 1 2-1 1-1 1h-1l2-4Z" fill="#783D25"/><path d="m107 68 3 1 1 1-2 1-2-3Z" fill="#BE5965"/><path d="m41 64-2 2h-1v-2h3Z" fill="#120807"/><path d="m70 54 3 2h-1l-1 2-1-1v-3Z" fill="#15070C"/><path d="m72 54 3 2h-1l1 1c-2 0-2-1-3-2v-1Z" fill="#855658"/><path d="m114 44 1 1v1l1 3h-2v-5Z" fill="#A27A75"/><path d="m74 43 1 2-3-1-1 3v-2c1-2 1-2 3-2Z" fill="#61161B"/><path d="m103 20 2 1h2l-1 2v-1h-1v1h-1l-1-3Z" fill="#1C2034"/><path d="m64 20 4 1-2 1-2 1-1-1 1-2Z" fill="#1C1D30"/><path d="M114 9c2 0 2 1 3 3v1c-3-2-3-2-3-4Z" fill="#613125"/><path d="M110 3h1l2 2 1 1-3-1-1-2Z" fill="#8794A9"/><path d="M90 2v1h-4V2h4Z" fill="#161012"/><path d="m105 179 1 2-1 2h-1l-1 1v-1l1-2 1-1v-1Z" fill="#5C1A11"/><path d="m132 169 1 4-1 2-1-2 1-4Z" fill="#751E0A"/><path d="m164 133 5 2-1 1v-1h-1l-3-2Z" fill="#8F4B2B"/><path d="M193 124h1v2h-2l1-2Z" fill="#BA6752"/><path d="m5 121 2 1v1H6l-3 1 2-3Z" fill="#290E0A"/><path d="M119 119h3l1 2h-3l-1-2Z" fill="#E08959"/><path d="m164 110 1 1h-4l-1-1h4Z" fill="#DE885D"/><path d="m107 108 2 1v3l-2-1-1-1 1-2Z" fill="#D66F34"/><path d="m83 100 2 1 1 1v2l-3-3v-1Z" fill="#762F26"/><path d="m103 99 3 1 1 1-1 1v-1l-1-1h-2v-1Z" fill="#BE662D"/><path d="M91 93c2 2 2 3 1 5l-1-2v-3Z" fill="#F5C2A2"/><path d="m20 87 2 3v2h-2v-5Z" fill="#C2856B"/><path d="m115 88 2 1-1 2-2-2 1-1Z" fill="#F6CFA3"/><path d="M36 87v2h2l-1 1h-2v-2l1-1Z" fill="#1C1821"/><path d="m6 86 1 1-1 3v-4Z" fill="#EC8C5B"/><path d="M38 83h1l-1 2h-1v1h-1v-1h1v-1h1v-1Z" fill="#101726"/><path d="m9 78 1 1 3 1v1c-2 0-3-1-4-3Z" fill="#A13B17"/><path d="m20 75 3 1 1 2-3-1-1-2Z" fill="#D97F66"/><path d="m4 72 4 1v1l-4-1v-1Z" fill="#BB5733"/><path d="m21 70 1 2h1v1h-1v2h-1v-5Z" fill="#EA895F"/><path d="M43 65h3l-1 3-1-1h1v-1h-2v-1Z" fill="#D8AB9E"/><path d="M113 57v1h3l-3 1h-2l2-2Z" fill="#A97878"/><path d="M115 50v1h1l1 3h-2v-4Z" fill="#D0A9A7"/><path d="M152 48h3v2l-3-1v-1Z" fill="#D07469"/><path d="M15 47h3l-4 2 1-2Z" fill="#C97F78"/><path d="m101 45 2 1v1h-3l1-2Z" fill="#DF9052"/><path d="M117 43h2l-1 3-1 1v-4Z" fill="#8A4741"/><path d="M132 38v4l-1 1-1-3h1l1-2Z" fill="#A46F6C"/><path d="m81 32 1 1-1 3h-1l-1-1 1-2h1v-1Z" fill="#0F0E15"/><path d="M29 29h3l-2 2h-2l1-2Z" fill="#C58585"/><path d="m152 17 5 3h-3v-1l-2-1v-1Z" fill="#BD9193"/><path d="M99 14h1l-2 5c-1-2 0-3 1-5Z" fill="#090913"/><path d="M105 1v2h-4c1-2 3-2 4-2Z" fill="#8A92AA"/><path d="M82 177h1v3h-1v-3Z" fill="#74281D"/><path d="m30 152 2 4h-2v-4Z" fill="#B67D62"/><path d="M137 142h1v6h-1v-4h-1l1-2Z" fill="#862F14"/><path d="m135 133 4 2-1 1-3-3Z" fill="#883E20"/><path d="M89 127v1h-1v1h-2c1-2 1-2 3-2Z" fill="#601304"/><path d="M100 86h1l-3 4 2-4Z" fill="#703C19"/><path d="m108 70 1 1-1 1h1v2l-2-1 1-3Z" fill="#9D5D5B"/><path d="M4 70h2v3l-2-1v-2Z" fill="#DD7148"/><path d="M126 67h2v3h-1l-1-3Z" fill="#BB7D84"/><path d="m161 65 1 1v3l-2-1v-2l1-1Z" fill="#DD9277"/><path d="M44 62v2h-1v1l-2 1c0-2 0-2 2-3l1-1Z" fill="#CAA79D"/><path d="m125 56 2 4h-1l-1-4Z" fill="#69301C"/><path d="m44 56 1 1v2h-2l1-3Z" fill="#201822"/><path d="m179 55-1 2-2-1v-1h3Z" fill="#FDC48E"/><path d="m187 52 1 1-1 3h-1v-3l1-1Z" fill="#F49264"/><path d="m40 48 3 1v2l-3-1v-2Z" fill="#976B78"/><path d="M49 46h2l-1 3h-1v-3Z" fill="#232B48"/><path d="M17 45h2v1h1v1l-4-1 1-1Z" fill="#946870"/><path d="m125 36 1 3-1 1-2-1 2-3Z" fill="#451D1C"/><path d="m101 24 3 1v2-1l-3-1v-1Z" fill="#1D2035"/><path d="M110 23h3v1h-3v-1Z" fill="#27355A"/><path d="M116 9h3l1 3h-1v-1l-1-1-2-1Z" fill="#8F7670"/><path d="m99 2 1 1h1-2v1h-2V2h2Z" fill="#A77A68"/><path d="m74 185 1 3h-1v2-5Z" fill="#E7A487"/><path d="m34 166 1 4-2 1 1-5Z" fill="#935243"/><path d="M53 160v5h-2v-4l2-1Z" fill="#763D2C"/><path d="M56 148v3l-2-1v-1h1l1-1Z" fill="#6F2415"/><path d="M78 141v3h-2l2-3Z" fill="#491415"/><path d="m14 131 2 1v2h-2v-3Z" fill="#A9695B"/><path d="M90 126h1v2h-2l1-2Z" fill="#84311F"/><path d="M126 123h3l-1 1v2l-2-1v-2Z" fill="#8C4E45"/><path d="M193 120h4l1 1h-5v-1Z" fill="#D67F58"/><path d="m96 113 1 1 2 2h-3v-3Z" fill="#88301E"/><path d="m70 110 4 4-2-1v-1h-2v-2Z" fill="#86311D"/><path d="m94 90 1 1-3 2v-2l2-1Z" fill="#865D4F"/><path d="M33 87h1c-1 2-1 2-3 2h-1c1-2 1-2 3-2Z" fill="#202535"/><path d="M3 84h1l-1 3-1-3h1Z" fill="#2E0905"/><path d="M39 80v2h-1l-1 2h-1l3-4Z" fill="#1D121B"/><path d="m99 80-1 5-1-4 2-1Z" fill="#93340D"/><path d="M41 80h2l-3 3-1-1h1v-1h1v-1Z" fill="#16172A"/><path d="m100 78-5 1 1-1h4Z" fill="#6F1707"/><path d="M26 75h1l-3 4v-2l2-2Z" fill="#3B0903"/><path d="M23 72h1v4l-2-1v-2h1v-1Z" fill="#E3774E"/><path d="M121 71h1v4l-2-1 1-3Z" fill="#C97B65"/><path d="M29 69h2l-2 3v-3Z" fill="#8E7885"/><path d="M79 66h1c0 2 0 3-2 4l1-4Z" fill="#230808"/><path d="M80 58v6h-1v-4h1v-2Z" fill="#23060B"/><path d="m46 57 2 1-1 1-1 2h-1l1-4Z" fill="#040405"/><path d="m41 56 2 1-1 2h-1v-3Z" fill="#D4AFAC"/><path d="m78 46 2 1v3l-1-2h-1v-2Z" fill="#513435"/><path d="m121 46 2 1-1 1 2 1-4-1 1-2Z" fill="#72514A"/><path d="M94 44h1v2l2-1 1 2-3-1-1-2Z" fill="#65333B"/><path d="M109 42h1v3h-3v-1h1l1-2Z" fill="#814A49"/><path d="M127 41h1v4l-1 1v-5Z" fill="#D27D60"/><path d="M52 40h1v3h-1l-1 1 1-4Z" fill="#1B2946"/><path d="M34 29v2h-4l4-2Z" fill="#B87C7F"/><path d="m140 24 6 1v1h-6v-2Z" fill="#A7858E"/><path d="M147 23h4l-1 1-3 2v-3Z" fill="#917784"/><path d="M77 16h1v1l2 1v1h-3v-3Z" fill="#181B2C"/><path d="m99 6-1 1h-1v1h-1V7l3-1Z" fill="#180E11"/><path d="M105 5h4l-2 2-2-1V5Z" fill="#2A1209"/><path d="M79 3v1l-3-1h3Z" fill="#272E3E"/><path d="m108 0 4 1-3 1v1-2h-1V0Z" fill="#7E91B1"/></g><defs><clipPath id="clip0_1_2"><path fill="#fff" d="M0 0h200v201H0z"/></clipPath></defs></svg>