<svg xmlns="http://www.w3.org/2000/svg" width="200" height="201" fill="none" viewBox="0 0 200 201"><g clip-path="url(#a)"><path fill="#100E15" d="M100 0h1l21 2 2 1c22 5 43 19 57 38v1c13 17 19 37 19 58v1l-2 22-1 1c-5 22-18 42-36 56h-1a97 97 0 0 1-60 20h-1c-7 0-14 0-22-2h-1c-22-5-42-18-55-36l-1-1a98 98 0 0 1-20-60v-2l2-21 1-2a98 98 0 0 1 97-76"/><path fill="#E39171" d="M94 0h2c9 0 17 0 26 2l2 1c22 5 43 19 57 38v1c13 17 19 37 19 58v1l-2 22-1 1c-5 22-18 42-36 56h-1c-4 4-9 7-14 9l-2 1c-9 5-9 5-12 5v-1l-1-6h-1l2-17h1v-5l-4 12 1-7 1-1 5-14 4-11v-2h1v-3h6l9-1 3-1 9-3-3-2-2-1-1-1h-2l-13-6h-1a53 53 0 0 0-24-4h-1l-2-1 2 1c18 13 18 13 19 19v2l-2-3-7-1c-3 3-4 7-5 10h-1l-1-1c-1-3-5-5-8-7-4-1-5-2-7-6v-5h-1l-2-3h5l3 1v-4c-2-7-7-13-12-18l3 4 1 1 1 2c3 3 5 6 5 9-4 0-6-1-9-3l-1-1c-5-3-9-7-12-11a38 38 0 0 0-10-7l-6-4 1-2h1c3-1 4-3 5-5l1-1c2-2 2-4 3-7l1-3v7l1-5v-2l-1-1v-3a1135 1135 0 0 0 1-20h1v2l3 12v-1c-2-8-1-15 0-23h3v1h1v2h1v-3h2l1 1v3l2 6 7 2h2l2-1 1-3 2-1v1h1l1 2v-1h2l1 2 1 4-1 1-1 4-2 5h1l1 5V61h1v3h1c1 8 2 17-2 25l-1 1v1l1-1v-1l1-2 2-2v3-3l1-7v-3l1-2v-6l-1-4v-1l1-2h-1v-7h3l-1-4 1-1v-3l1-2c1-5 0-11-1-16v6l-1 5-1-3v-7h-1v-1l-4-12-1-1c-1-3-1-3-4-5h-1l-1-1-2-1-2 2V8h-1V6h1l-4-2v1l2 1-2 1V6h-4l-1-1c-1-2-3-2-5-2h-4l2-1h-7c2-2 6-2 9-2"/><path fill="#792917" d="M85 68c1 17 1 17-5 23h-1l-1 1-2 1-2 2 1 1c7 2 12 7 16 12l10 8h1l3 2 1 1 6 2c-2-5-4-8-8-12l-1-2-1-1-1-1 1-1 10 13 1 1c1 3 2 5 1 9l-3-1v1l-5-1 1 1 1 2h1v2l1 2c0 3 0 3 2 5l4 2c3 2 6 3 8 6l1 2h1v-1l4-9h5l3 1 2 2c-2-7-9-12-15-16l-1-1h-1l-1-1-1-1-3-3 1 1h6l11 1 1 1c10 2 18 6 27 10h1l4 3c-3 2-6 2-10 3l-5 2h-13v6l-1-3v1c0 5-2 8-4 12l-7 21 4-12 1 5-1 1v2l-1 5v3l-1 2v2l-1 3h2v2l1 1c0 2 0 3-2 5l-5 1-1 1-5 1h-1c-13 3-29 2-42-1h-1a95 95 0 0 1-20-7l-2-3v-6h-1c-3-1-4-3-6-5l-1-4v-1l-1-1-1-6v-1l-1-4 6 1h3l1-1v-5l-1 1h-2v-8c0-8 1-14 3-22v-1l2-3h-1l-1-1-1-1v-3c0-2 1-2 3-3l1-3-2 1 1-2h-1l-1-2 2-2 1-3 4-5h1v-1c3-2 5-3 8-3s5-1 7-3l3-1 1-2 2-4v-2l2-5v-1z"/><path fill="#F4BC97" d="M94 0h2c9 0 17 0 26 2l2 1c22 5 43 19 57 38v1c12 16 19 36 19 56l-2 1-2-2v-1l-4-1v1c-4 2-8 2-12 2v-1l-1-1-2-1-2-1h-3l-1-1h-7l-5 1-2 2h-12v-7h-1v-2h-8v3h-3v1c0 5 0 5-2 6l-1 1-1 1-2 2h-1l-1 1h-1c-5 2-9 4-13 4l-3-3c-2-3-4-4-8-5l-1-2h-3l3-2c5-2 7-4 9-9l1-2v3l1 2-2 3 1 1h-1v1l3-5 2 1v-2l1-3 1-5v-2l1-5 2-4 1 5V61h1v3h1c1 8 2 17-2 25l-1 1v1l1-1v-1l1-2 2-2v3-3l1-7v-3l1-2v-6l-1-4v-1l1-2h-1v-7h3l-1-4 1-1v-3l1-2c1-5 0-11-1-16v6l-1 5-1-3v-7h-1v-1l-4-12-1-1c-1-3-1-3-4-5h-1l-1-1-2-1-2 2V8h-1V6h1l-4-2v1l2 1-2 1V6h-4l-1-1c-1-2-3-2-5-2h-4l2-1h-7c2-2 6-2 9-2"/><path fill="#D58877" d="M94 0h2c9 0 17 0 26 2l2 1c24 6 45 21 59 42l1 1 4 6-2 1 1 2h-6l-1-1v-1h-3v-1l-3 1-1 1-1 1v1h-1v1h-3v-3l-1-3h-3l-1 2-5-2v-1a38 38 0 0 0-11 0h-4v-1h-2v1l-1-1h-5l1 1v4h1v1l2 1-1 1-6-2h-5l1 1 1 4v1l1 1v4h4v-1l2-1h1l1 2h6l1-1h6v-1h4l1 1h5l1 4 1 2h1l2 1h1v1h2l1 4v1h-3v-1l-2 1h-4l-1-1v-2h-1v1l-6-2 1 3h-6l-1-1-4-1-4-1h-4l1 2h-4l-1 1v1l-1 2v1l-2 1 1-1 1-6h-5v8l-2 2V75l1-2v-6l-1-4v-1l1-2h-1v-7h3l-1-4 1-1v-3l1-2c1-5 0-11-1-16v6l-1 5-1-3v-7h-1v-1l-4-12-1-1c-1-3-1-3-4-5h-1l-1-1-2-1-2 2V8h-1V6h1l-4-2v1l2 1-2 1V6h-4l-1-1c-1-2-3-2-5-2h-4l2-1h-7c2-2 6-2 9-2"/><path fill="#816579" d="M75 4h-1c-7 4-12 8-16 15l-1 2c-2 2-3 4-3 7l-1 6v1l-1 3-1 2v1l-1 2-2 6v1l-5 8-1 2-11 10c-3 3-6 5-8 9v1c-2 3-2 9-1 12h1v-1c-2-4-1-8 0-12l10-10-1 4c-2 2-2 3-2 6l-1 2v8l2-1-1-3c0-7 2-11 6-16l8-7 6-5-3 7-1 1-1 3-1 2-2 5h1v-2l5-10-1 4v1l-1 1-1 2-1 4v2l-1 2v1h-2v1h-1v1h-1v3h5l-1 1h-1l-1 2-4 2h-2l-6 3v1l-3 2v-1h-1l-3 1-2 1-2-1v-1h-6v1l-6-2v-1H5c-2 0-2-1-3-2l1 2v1l2 3H3l-2 1H0a102 102 0 0 1 40-78l1-1c9-7 19-11 29-15z"/><path fill="#151520" d="m92 2 1 1h3c3 0 4 1 5 3h4-1 1l-2-1 1-1h5l-2 1 2 1-2 1h3l3 1 2 1c5 4 7 12 8 17h1l1 6v4h1l-1-1v-6l1-3c2 6 3 12 1 19v3l-1 1v6-2h-3v3l1 2v3h-1l1 1v16l-1 7-2 4v-3 1l-1 1-1 2-1 1h-1l1-2c4-6 4-15 3-22l-1 3-1-5v12l-1-4v-7l1-4 1-3v-1l-1-3v-3h-2v2l-1-3h-1v-1l-1 1-1 1-1 2h-9l-3-4-1-7h3v1h-1l1 1h1l1-1 1-1 2 2v-1h1v-2c-2-2-3-1-5-1h-4v-1h-1l-6 2c1-5 1-5 3-6l1-1 3-2v-1l2-2h1v-2l1-1h-1l-1 1-1 1v-4h-1v1h-1l1-2-2 1-1-1 1-3-2 4-4 1v-1l-6-1v-2 1c-1 4-3 7-6 11l-1 1-4 5v-1h1l1-4-4 3 4-7 4-6h-1l-4-2h-3v1l-1 1-1-2-3-1h-2l-1 1-1-1 1-2c-3 3-4 6-5 10l-1 1-1 5-1 4-2 13c-1 6-2 12-5 18v1l-5 7v-1l-1-2 2-5 2-6-4 10h-1l2-7h1l1-3 1-2 2-5-1 1-3 3-1 1-2 1c-4 3-7 6-9 10l-1 1-1 12 1 1-3 2-1-1v-4l1-5v-2l4-8c-7 5-7 5-10 13-1 3-1 6 1 9h-2c-2-2-1-6-1-9 2-7 7-12 12-15h1v-3l1 1c5-4 8-9 11-14l1-1 1-2 1-2c2-4 2-9 2-14l1 2 1-3v-1l1-5 2-4v-1a201 201 0 0 1 3-4c3-6 7-9 12-12l1-1c6-3 13-3 20-2"/><path fill="#7E2A18" d="m68 96-5 6h-1v1l-1 2h1l-1 1-1 1h3v-1h2l1 1h2v1l4 3 1 1v2l-1-1 1 1v2l1 2v3l-1-2 3 10c1 2 2 4 1 7h-1v-3h-2c-1 3 0 5 2 8 1 2 2 4 1 7l-6 3 5-1v1h1v2l-3 1h1v8l-1 12v8l-1 1 2 4 1 2-1 2v6c-4 0-7-1-10-3h-2l-3-2h-2l-4-3v-7h-1c-3-1-4-3-6-5l-1-4v-1l-1-1-1-6v-1l-1-4 6 1h3l1-1v-5l-1 1h-2v-8c0-8 1-14 3-22v-1l2-3h-1l-1-1-1-1v-3c0-2 1-2 3-3l1-3-2 1 1-2h-1l-1-2 2-2v-3l4-2 3-2c2-3 3-3 6-3"/><path fill="#CC724C" d="M169 135h1l14 4 2 1h3l1 1h1c-4 15-17 29-30 39h-1c-4 4-9 7-14 9l-2 1c-9 5-9 5-12 5v-1l-1-6h-1l2-17h1v-5l-4 12 1-7 1-1 5-14 4-11v-2h1v-3h6l9-1 3-1z"/><path fill="#311A17" d="M55 103h1l-2 4v3h2l-1 1 1-1-3 6h-1l1 4 1 1v1h1v-2 3c-4 9-5 17-4 26l-1 2v3l2 1h-1 3-1v5l-4 2-1-1v-1h-5l1 5v1l3 6-1 1c1 4 3 6 6 8l2 1v-7l1 14-7-3h-1c-10-7-19-15-26-24l-1-1-11-18 1-1v-1c-1-3 2-7 4-10l11-10c0 2-1 3-3 5v1l-6 8 2-2c5-5 5-5 7-5v2l11-8 2-2c2 0 2-1 3-2l1-1 1-1a614 614 0 0 1 6-7v-1l3-4v1l-1 2-1 8v6-5l1-1c0-5 1-9 4-12"/><path fill="#A16F70" d="m98 43 1 1v3l2 6 7 2h2l2-1 1-3 2-1v1h1l1 2v-1h2l1 2 1 4-1 1-1 4c-1 4-3 7-6 11-2 2-1 5-1 8l-2 6v-9l-1 1h-3v2c0 4-2 7-5 10l-6 3 1 1 6 8 3 5 1 2 1 1c5 6 5 6 5 9-4 0-6-1-9-3l-1-1c-5-3-9-7-12-11a38 38 0 0 0-10-7l-6-4 1-2h1c3-1 4-3 5-5l1-1c2-2 2-4 3-7l1-3v7l1-5v-2l-1-1v-3a1135 1135 0 0 0 1-20h1v2l3 12v-1c-2-8-1-15 0-23h3v1h1v2h1v-3z"/><path fill="#919BB4" d="M94 0h2c9 0 17 0 26 2l2 1c23 5 43 19 57 38l-1 1-2 2h-4l-1 3-4-1v-4h-6l-1 1-2-2v-2h-1l-2-1v-1h-6l-1-1-2-2-4 2-2-1v-1l-1-2-4-1h-1l-1-3c-1-2-2-2-4-2l-4-5-5-6v-1h-1l-2-2v-1l-1-1-4-2-1-1-2-1-3 3V8h-1V6h1l-4-2v1l2 1-2 1V6h-4l-1-1c-1-2-3-2-5-2h-4l2-1h-7c2-2 6-2 9-2"/><path fill="#FAC896" d="M119 61h1v3h1c1 8 2 17-2 25l-1 1v1l1-1v-1l1-2 2-2v3-3l1-6h1v5l1-10 5 1c0 4 0 4-2 7l3-4v-2l1-1h3v-1h6l3 1 4 1h1l4 1v-3h1l2 1h4v2h7l1 3 1-1h9l1 2-3 2 1 2h1l3 1h2l3 1h4v1a10245 10245 0 0 1-37-1h-1l-9-1v1h-7v3h-3v1c0 5 0 5-2 6l-1 1-1 1-2 2h-1l-1 1h-1c-5 2-9 4-13 4l-3-3c-2-3-4-4-8-5l-1-2h-3l3-2c5-2 7-4 9-9l1-2v3l1 2-2 3 1 1h-1v1l3-5 2 1v-2l1-3 1-5v-2l1-5 2-4 1 5z"/><path fill="#1A1219" d="M97 20c1 2 0 2-1 4h3l-1 2h1v-1h1v3l3-1v4l-1-1-1 1a207 207 0 0 1-4 4l-4 2-1 5 2-1 3-1h1l1-1 1 1h3l5 1v3h-1l1 3-3-4-1 2v-1l-1 2-2-1 1-1-1-1-1 1v-1h-1l2 4h-2l3 6 9 1v1c-4 0-7 0-10-2-3-3-3-7-3-10h-2v3h-1v-2h-1v-1h-3v25c-2-3-3-9-4-13v13a1438 1438 0 0 0 0 8v1l-1 9h-1V72v2l-1 3v1l-2 6v1c-2 4-5 6-8 8l-2 1h-3l-5 2v-1l6-3q4.5 0 6-3c4-5 4-10 4-16v-6l-2 3v-3l1-7h1v-9l-1-3h-1v-1l-2-4h-4q-3 1.5-3 6c0 4 3 6 6 9l3 2h-1l1 2v4h-1l-1 3-2-6-3-5 4 10c3 4 3 4 2 6l-1 3 1 4-1 2h-1l-1-2a63 63 0 0 0-3-17l-1-2-1-8v8l-2 2-1-4v-3a54 54 0 0 1 2-18l3-11 1-1 2-5 2 1v1h2l2 1c0 2-2 4-4 6l-1 2-1 1-1 3 1-1 2-1-1 4h-1v1l4-5 1-2 1-1 2-2 2-5 1-4v3h5l1 1v1l3-1 2-3 1-1z"/><path fill="#13121E" d="m49 57 1 1-2 4-1 1a822 822 0 0 1-5 12h1v-2l5-10-1 4v1l-1 1-1 2-1 4v2l-1 2v1h-2v1h-1v1h-1v3h5l-1 1h-1l-1 2-4 2h-2l-6 3v1l-3 2v-1h-1l-3 1-2 1-2-1v-1h-6v1l-6-2v-1H5c-2 0-2-1-3-2l1 2v1l2 3H3l-2 1H0l1-14v-2l2-7 3 1 1 1c2 0 4 1 5 3h1l-1-3v-1l-2-1H9l-1-2v-6l1-7 3-1 5-1h3a3490 3490 0 0 1 0 11v5l-1 5h2v3h1v10h1v-1c-2-4-1-8 0-12l10-10-1 4c-2 2-2 3-2 6l-1 2v8l2-1-1-3c0-7 2-11 6-16l8-7z"/><path fill="#21151B" d="M115 11c4 3 5 8 6 13l-1 7-1-4-2 3 1 3c1 3 0 5-1 8l2-4h1v5l1-5 2-1v-5l1-5 1 6v4h1l-1-1v-6l1-3c2 6 3 12 1 19v3l-1 1v6-2h-3v3l1 2v3h-1l1 1v16l-1 7-2 4v-3 1l-1 1-1 2-1 1h-1l1-2c4-6 4-15 3-22l-1 3-1-5v12l-1-4v-7l1-4 1-3v-1l-1-3v-3h-2v2l-1-3h-1v-1l-1 1-1 1-1 2h-9l-3-4-1-7h3v1h-1l1 1h1l1-1 1-1 2 2v-1h1v-2c-2-2-3-1-5-1h-4v-1h-1l-6 2c1-5 1-5 3-6l1-1 3-2v-1l2-2h1v-2l1-1h-1l-1 1-1 1v-4h-1v1h-1l1-2-2 1-1-1 1-2v-1l1-2h1l1 1 1 1 1-2h1v-1l1 4h2v1h2v2l1-4h3v-1h5z"/><path fill="#906A6C" d="M75 154v8l-1 12v8l-1 1 2 4 1 2-1 2v6c-4 0-7-1-10-3h-2l-3-2h-2l-4-3v-7h-1c-3-1-4-3-6-5l-1-4v-1l-1-1-1-6-1-1 1-4 1 1c1 2 2 2 4 2v-1l1 1 1 1 2 1v2l-4-2 4 3 1-11 3-1h4a721 721 0 0 1 6 0h1z"/><path fill="#814A41" d="m135 160 1 2h2l4 1c12 2 24 1 36-1l-4 6-1 1-2 2-1 1-9 8h-1c-4 4-9 7-14 9l-2 1c-9 5-9 5-12 5v-1l-1-6h-1l2-17h1v-1z"/><path fill="#B6726F" d="M129 25h2v1h1l3 1 1 4h2c2 0 3 0 4 2l1 2 1 1 1-1 3-1c1 0 2 0 3 2l1 1h5l1 1 1 1h1l1 3h8v4h1l3 1 1-3h4l1-2 1-1h1l2 2v1l1 2 1 1 3 5-2 1 1 2h-6l-1-1v-1h-3v-1l-3 1-1 1-1 1v1h-1v1h-3v-3l-1-3h-3l-1 2-5-2v-1a38 38 0 0 0-11 0h-4v-1h-2v1l-5-3-3-1-1 1v-7l-2 2V30l2 5v1l1 2-3-11z"/><path fill="#976F70" d="M87 53h1c0 4 1 6-1 9 0 5 0 5 2 9l3 1 1 1 1 1v-1l1 1 2 1 2 1 3 1v1l2 1v1h-2v2l-2 7-2 1 1-1 1-8 1-2c-2 0-2 2-2 3l-4 7-1 1 1 1h-1l-2 3 3-1-1 2 2 1 1 2 2 1 3 5 3 5 1 2 1 1c5 6 5 6 5 9-4 0-6-1-9-3l-1-1c-5-3-9-7-12-11a38 38 0 0 0-10-7l-6-4 1-2h1c3-1 4-3 5-5l1-1c2-2 2-4 3-7l1-3v7l1-5v-2l-1-1v-3a1135 1135 0 0 0 1-20"/><path fill="#F47719" d="m116 69 1 3-1 1v3c-1 7-1 7-3 10v3h-2l-1 1-2 4v-1l-1-2 1-1 1-3v-3l-1 1c-2 6-5 8-11 11h2v1h1c4 1 6 3 8 5l1 5 1 1v3l-2-2 7 7 4 4 6 4c14 10 14 10 15 16v2l-2-3-7-1c-3 3-4 7-5 10h-1l-1-1c-1-3-5-5-8-7-4-1-5-2-7-6v-5h-1l-2-3h5l3 1v-4q-3-9-9-15l-4-6-7-6 1-1 2-1c3-1 5-2 6-5l3-9h-1 4l2-2-1 8 1-8c0-3 2-5 3-7l2-1z"/><path fill="#955F5F" d="M136 87h7v2l1 3v1l1 9 3 2 1 2 4 3 3 1v3l-3 1h-2l-2-1h-3l-3 1h-30l-1 1-1-1-1-1-1-2-1-1v-2l2 2-1-2v-3l1 1c5-1 10-2 15-5l3-1 2-2v-1l2-1v-3l1-2v-1h3z"/><path fill="#D0AAA0" d="M17 45h2v1h1v3l3 1v1h4l2-1h7l7 2v3l3-2-4 6-1 1a284 284 0 0 1-3 4l-3 3-2 1-4 3c-3 3-6 7-7 11h-1v-3h-2l1-21-5 1-6 1v14l2 1 2 2v3c-2 0-2-1-3-2l-2-1-3-1-1-1H3c2-8 5-15 9-23l1-1z"/><path fill="#54150C" d="m110 160 1 1-2 4v1l-2 3h-1l-1 3h-1v3h-1v1l-2 4-1 3-4 4c-5 5-11 7-18 9 4 1 6 0 8-2l4-2h2v-1l3-2 4-4h1l1-1 2-3 1-1 1-1 1-1 3-1h-1v2l-2 3a263 263 0 0 0-2 5l2-1h2v-1l4-3 1-1h1v1l-3 2-1 1-7 5-1 1h3v1l-1 1h-2l-2 1-2 1-7 2h-1c-5 1-9 2-14 1l-1-4-1-2 2-2-2-4-1 2a593 593 0 0 1 2-12h1l4 3 2-2v3h4l8-3 2-1v-1l2-1 5-6 4-4 1-1 1-1v-1z"/><path fill="#FBDA9B" d="m180 78 5 1v1h1l12 1 2 17-2 1-2-2v-1l-4-1v1c-4 2-8 2-12 2v-1l-1-1-2-1-2-1h-3l-1-1h-7l-5 1-2 2h-12v-7h-1l-1-3h1l42 1-3-1-4-1h-1l-2-2-1-1 4-1v-1l2-1z"/><path fill="#D99687" d="M166 92h1l6 2 3-1v2l2 1 2 1v1h4l1-1 6-1h1v-1h3l3 3v1l2-1v8h-25v1l-7 1h-7l-3-2h-2l-4-3h-1c-2-1-2-2-2-3l-3-4h2l9-1 2-1c2-2 4-2 7-2"/><path fill="#1A2138" d="m63 11 2 1-1 1 1 2v-1l3 1 1 1h3l3 1h1l-3 6-1-2-1 1v1h-1l-1-1h-3l-2 1-1-1 1-2c-3 3-4 6-5 10l-1 1-1 5-1 4-2 13c-1 6-2 12-5 18v1l-5 7v-1l-1-2 2-5 2-6-4 10h-1l2-7h1l1-3 1-2 2-5-1 1-3 3-1 1-2 1c-4 3-7 6-9 10l-1 1-1 12 1 1-3 2-1-1v-4l1-5v-2l4-8c-7 5-7 5-10 13-1 3-1 6 1 9h-2c-2-2-1-6-1-9 2-7 7-12 12-15h1v-3l1 1c5-4 8-9 11-14l1-1 1-2 1-2c2-4 2-9 2-14l1 2 1-3v-1l1-5 2-4v-1a252 252 0 0 1 3-5z"/><path fill="#CD7C61" d="m144 99 4 1-1 1 4 3h-2l1 1 3 2v1c8 3 17 5 26 5l3 1-1 1h-5l-4 1v2h-4v1h6v-1h-1 2l1 2h5v1l-5 1-4 1h10v1h-5l-15-1h-8 2l1 1h2c11 0 11 0 16 3h1v1c-11 0-19-3-29-6-7-3-14-4-21-5h-8l-1-1h-2l-3-2h7a1343 1343 0 0 1 9 0h4l1-1 5 1 2-1h15v-3h-1l-1-1-3-1-3-3-2-2-1-3z"/><path fill="#844C45" d="m118 119 1 1h6l11 1 1 1c10 2 18 6 27 10h1l4 3c-3 2-6 2-10 3l-5 2h-13v6-1l-1-2h-1l1-1c0-3-2-6-4-8l-13-10-1-1-1-1z"/><path fill="#B38A93" d="M119 61h1v3h1c1 8 2 17-2 25l-2 2h3l-1 1h-1v1h1l3 1 6 1 4 1-1 1-1 1-4 3-1 1-9 3-1 1h-6l-1-2c-1-3-3-5-6-6h-2l-1-2h-3l3-2c5-2 7-4 9-9l1-2v3l1 2-2 3 1 1h-1v1l3-5 2 1v-2l1-3 1-5v-2l1-5 2-4 1 5z"/><path fill="#4A0A04" d="m72 113 2 2 1 1v1l1 1-1-4 2 4v-4l1 2 1-3 1 4 1 2v6l1-9h1v10l2-9 1 3 1-2v5l-1 1-4 8 2-1 1-2h1l1-2h1v-1l3-2v2l-2 2h-1v1l-2 2-4 4 1-1 4-1 1-2h1v2l-2 2-4 3 7-4h3v1h-1v2l-4 1-8 5 1-1 7-1h2l-1 1-2 1-4 1h2l1 1h2l2 2v1h-8l3 1v1l2 1-1 1-3-2h-2l-1-1v1l1 1h-1l-1 1-2 2-1 2v1h-1v-2h-4l4-2h2v-2h-1v-1h-2l-1 1h-5l5-2 4-1-3-9-1-7h2v1l1 1 1 2-3-12-1-6 1 1-1-1v-1l-1-2z"/><path fill="#F19556" d="M139 153h2a101 101 0 0 0 43 1l-1 3-1 1-1 2-1 1c-2 2-4 2-7 2l-2 1c-11 1-24 1-35-2l2-6 1-2z"/><path fill="#F3A667" d="M114 116h8l5 1c8 0 14 2 21 5l24 7v2l4 1 7 1 5 1 6 1-1 2v1l-1 3-14-2-1-1-9-3c-5-4-11-6-17-8l-5-2c-6-2-12-5-18-4-8 0-8 0-11-2z"/><path fill="#726177" d="M75 4h-1c-7 4-12 8-16 15l-1 2c-2 2-3 4-3 7l-1 6v1l-1 3-1-5h-1v-1h-2l-5-2v-1l-2-1v-1h-2l-2-1v-2h-2c8-7 29-24 40-20"/><path fill="#762615" d="m106 158 1 1-1 1h-1l-1 3 1-1h3l-2 4-1 1-1 1-1 1-5 5v1h-2v1c-5 3-8 4-14 4v-4h-2v-7h-1v-1l-1-1v-3l-1-1 1-3h3v1l3 1h1v1l3 1v1h12v-1h1c2-1 2-1 2-3v-1z"/><path fill="#08060B" d="m74 22 2 1v1h2l2 1c0 2-2 4-4 6l-1 2-1 1-1 3 1-1 2-1-1 4h-1v1l4-5 1-2 1-1 2-2 1-4 1-1v-1l-1 11-2 10h-1v-3h-7l-3 2-1 7 7 8 2 1h-1l1 2v4h-1l-1 3-2-6-3-5 4 10c3 4 3 4 2 6l-1 3 1 4-1 2h-1l-1-2a63 63 0 0 0-3-17l-1-2-1-8v8l-2 2-1-4v-3a54 54 0 0 1 2-18l3-11 1-1z"/><path fill="#16141F" d="M103 4h6l-2 1 2 1-2 1h3l3 1 2 1c4 3 5 8 7 12v2c2 4 2 8 1 12v1l-2 1v3l-1 1v2l-1-5v1l-3 3 1-1 1-8-1-1v-4l1-1v-1c2 1 2 2 2 3 1-7-1-11-4-17v1c1 3 2 5 1 8l-1-1-2 1-2-1v1h-2l-1 4v2l-1-4h-2v-1h-1v1h-1l-1-3h-1l-2 2-3-4 4-6 1-2 3-4-2-1z"/><path fill="#B2756C" d="M94 80v5l-1 2v9l6 4 3 4 3 5 1 2 1 1c5 6 5 6 5 9-4 0-6-1-9-3l-1-1-16-14-3-3h8l-3-3h3v1-1c-1-3-2-6-1-10l1-1 1-3z"/><path fill="#91666A" d="M74 42c2 0 3 1 4 3v3h1c2 2 2 2 1 4v8h-1v1c1 3 0 6-1 9l2-4 1 6v2c0 5-1 11-4 15-3 3-5 4-8 4l1-1 4-8 2-3v-1l1-6-2-5c-4-7-4-7-4-11h1v1h1v2l1 1v2l1 1 1 3 1-3v-4l1-1-1-1c-3-1-7-4-8-7s-1-5 1-8c1-2 2-2 4-2"/><path fill="#69270D" d="M126 26c3 4 2 11 2 16l-1 3v3l-1 1v6-2h-3v3l1 2v3h-1l1 1v16l-1 7-2 4v-3 1l-1 1-1 2-1 1h-1l1-2c4-6 4-15 3-22l-1 3-1-5v12l-1-4v-7l1-4 1-3v-1l-1-3v-3h-2v2l-1-3h-1v-1l-1 1-2 3h-1l1-3h-2l1-2 2 1 1-2v1h2l2-2 2-1v2h2l-1-3h-2l-1-2h2l1-6 2-1v-5l1-5 1 6v4h1l-1-1v-6z"/><path fill="#E19767" d="m111 6 8 5v1l2 1v1h1c7 8 12 18 11 29v1-2l-1-2v-4l-2-5v9h1l1-2v9l3-1 2 2-2 1 1 1v4h1v1l2 1-1 1-5-1c-2-1-3-2-6-1l-2-6 2-3-1-1 1-2c1-5 0-11-1-16v5a315 315 0 0 1-1 6l-1-3v-7h-1v-1l-4-12-1-1-3-5h-2l-3-2z"/><path fill="#6E444C" d="M20 58a3490 3490 0 0 1 0 11v5l-1 5h2v3h1l-1 6v-1l-1-1-3-2h-1l-1-1v-1h-1l-6-4-5-2 1-1 5 2 1 1 2 2h1l-1-3v-1l-2-1H9l-1-2v-6l1-7 3-1 5-1z"/><path fill="#9D6A73" d="M153 16c10 3 21 15 27 23v1h-3l-1-2v-2h-1l-7-2-1-3h-8l1 3-5-1-1-2h-1v-1h-1l-8-2v1h-4l-2-4v-1l4 1h4l1-2 5 1v1h4v-2l1-1v-2l-2-1-1-1z"/><path fill="#6E3637" d="m75 154-1 30h-1v-1l-1-23-16-2v32h-1l-1-8-2-1c-3-2-5-4-6-8v-1l-1-1-1-6-1-1 1-4 1 1c1 2 2 2 4 2v-1l1 1 1 1 2 1v2l-4-2 4 3 1-11 3-1h4a721 721 0 0 1 6 0h1z"/><path fill="#191724" d="m6 98-3 2h9l4-1h11l-1 1-2 2 1 3-2 1 1 1-10 3-2 1H5l-1 1H1l-1-5v-8z"/><path fill="#D6ACA0" d="m139 28 5 1v-1l6 1 2 1h1v1h1l1 1c1 2 3 2 5 2l-1-3h8l1 3h1l7 2v1l3 3h1l1 1-1 1-2 2h-4l-1 3-4-1v-4h-6l-1 1-2-2v-2h-1l-2-1v-1h-3v-1l-1-1-1-1-1-2-8-1-4-2z"/><path fill="#EA8A53" d="m132 173 1 2h2l2 1v1l3 2h1l1 2 2 1 3 1 1 1 3 3-14 7h-2l-3 1v-1l-1-6h-1z"/><path fill="#1F1720" d="m23 112-1 1c-2 0-2 1-2 2l-3 3v1h1l1-2 1 1-1 1-2 2-2 3h-1v1l-2 3-3 7v2l-1 1-2-2v-1l-1-1v-2l-1-1-2-10h1v-1l2-2 1-1 10-4 2-1z"/><path fill="#E78A5F" d="M3 76c3 0 5 2 8 4l4 2v1l1 1c3 1 4 2 5 4l1 4-8 1h-2l-7-1-2-1-1-4 3-4 4-1c-3 0-5 1-8 3z"/><path fill="#997F93" d="m49 57 1 1-2 4-1 1a822 822 0 0 1-5 12h1v-2l5-10-1 4v1l-1 1-1 2-1 4v2l-1 2v1h-2v1h-1v1l-2 1v1l-1-1 2-2-1 1-5 4-2-2c-1-5 1-9 4-14l9-8z"/><path fill="#F09C74" d="m188 70 2 1a78 78 0 0 0 4 2v-1h2l1 4v1l1 4-13-1v-1h-4l1 1h-14l-1-2h3v-2l-1-3 1 2h3v-1l1-1 7-1z"/><path fill="#360704" d="m90 124 1 2-2 2h-1v1l-2 2-4 4 1-1 4-1 1-2h1v2l-2 2-4 3 7-4h3v1h-1v2l-4 1-8 5 1-1 7-1h2l-1 1-2 1-4 1h2l1 1h2l2 2v1h-8l3 1v1l2 1-1 1-3-2h-2l-1-1v1l1 1h-1l-1 1-2 2-1 2v1h-1v-2h-4l4-2h2v-2h-1v-1h-2l-1 1h-5l5-2 4-1v-4h1v-2l2-10h1l1-1v1l2-1 1-2h1l1-2h1v-1z"/><path fill="#803832" d="M87 53h1c0 4 1 6-1 9 0 5 0 5 2 9l3 1 1 1 1 1v-1l1 1 2 1 2 1 3 1v1l2 1v1h-2v2l-2 7-2 1 1-1 1-8 1-2c-2 0-2 2-2 3l-4 7-1 1 1 1h-1l-2 3 3-1-1 2 1 1 1 1 2 1v1h-2l-4-4 1-10v-1l1-3-1 1-2 1-2-2v-1c-4-5-3-17-2-24z"/><path fill="#A86D6E" d="M119 37h1l-1 6v2l1-1 1 1h1v1l1 1-1 1 2 1-5-2-2 2h-3l-1 1h-2l-1 1h3l-3 4-9-2c-2-3-2-6-2-10h3v1h-1l1 1h1l1-1 1-1 2 2v-1h1v-2l-2-1h2c2 0 4 1 5 3l2-1 2-1z"/><path fill="#772313" d="m133 165 1 5-1 1v2l-1 5v3l-1 2v2l-1 3h2v2l1 1c0 2 0 3-2 5l-5 1-2 1-12 2c2-2 3-2 5-2v-2l2-1 5-7 1-2 1 1 1-1 1-4 3-10 1-2z"/><path fill="#DD845F" d="M178 117h5l5 1h4v-1h4l3 1-2 7-1-1h-6v1h-1l-2 1h-4v-1l-6 1-5-1v-1l10-1h-11l3-1v-1h7v-1h-5l4-1v-1z"/><path fill="#C56F4B" d="M173 136c3 2 7 3 11 3l2 1h3l1 1h1l-1 3-20-2-14-1v-1h-4c3-2 6-2 10-3l4-2c3-1 4 0 7 1"/><path fill="#F1985A" d="M168 130h4v1l4 1 7 1 5 1 6 1-1 2v1l-1 3-14-2-2-1-4-1v-2l-4-2z"/><path fill="#EFA97E" d="m150 82 2 1h12v1h4l2-1h6l1 2h1l3 1h2l3 1h4v1a10245 10245 0 0 1-37-1h-1l-9-1v1h-3 3v-1h-2l-5-1 5-1h2l2-1h3v-1z"/><path fill="#F7C59B" d="M119 61h1v3h1c1 9 2 18-3 26l-1 1h-2v1l-5-1 1-2h2v-2l1-3 1-5v-2l1-5 2-4 1 5z"/><path fill="#AD9FAA" d="m142 19 2 2v1l-2 1v1h-4l1 1 1 3 1 2h3l8 2v2l1 1 1 2-2 1-1-2-3-2-4 2-2-1v-1l-1-2-4-1h-1l-1-3-3-2-3-1v-2l-1-1v-1h1v-1l3-1 2 3h4l1-2h-1v-2c1-1 3 0 4 1"/><path fill="#201B23" d="M25 121c0 2-1 3-3 5v1l-6 8 2-2c5-5 5-5 7-5 0 3 0 5-2 7h-1l-1 1-3 2-2 2-3 3-2 1-1 1-1-3h1v-1c-1-3 2-7 4-10z"/><path fill="#151217" d="m71 58 1 1h1v2l1 1v2l1 1 1 3 1-3v-4l1-2h2v1h-1v1c1 3 0 6-1 9l2-4 1 6v2c0 5-1 11-4 15-3 3-5 4-8 4l1-1 4-8 2-3v-1l1-6-2-5c-4-7-4-7-4-11"/><path fill="#D56A3C" d="m20 58 2 1v1h1l2 1v5h1l3 2 2 1-3 4c-3 2-5 6-6 9h-1v-3h-2z"/><path fill="#4A1E1B" d="m100 31-2 4-1 1-1 1h1c2-2 4-2 6-2l7 3v-2l1 2 1-4v2h1v-1h1l1 1 3-1c1 3 0 4-1 7l-4 2-2-2-8-1h-4v-1h-1l-6 2c1-5 1-5 3-6l1-1 3-2v-1z"/><path fill="#A35746" d="m35 160 2 5 4 9 1 1 3 3v1c3 3 5 3 9 4v6l-7-4h-1l-10-8h3l-2-1-4-4 1-5z"/><path fill="#8B5652" d="M136 87h7v2l1 3v1l1 10h-1l-1-3h-3l-2-1h-2l-1 1h-3v-1h-1v-2l1-4 1-2v-1h3z"/><path fill="#17141A" d="M68 52h1v1l3 14c2 7 4 13 1 20v-4l-2 4h-1v2h-1v1c-2 3-2 3-4 3v-1l3-6v-1q3-9 0-18z"/><path fill="#C58078" d="M126 52h1v1l3 10v3l-1-1 1 1v9h-5v8l-2 2V75l1-2v-6l-1-4v-1l1-2h-1v-7h1z"/><path fill="#673120" d="m43 158 1 6 2 7 1 2h-1c2 5 2 5 6 8l2 1v-7l1 14h-1v-6h-3c-2-1-4-1-5-3l-2-1-4-5v-1c-2-3-3-5-3-8l3-1-1 4 2-1v-2l-1-1v-5l1 1 1-1z"/><path fill="#202949" d="m63 11 2 1-1 1 1 2v-1l3 1 1 1h3l3 1h1l-3 6-1-2-1 1v1h-1l-1-1h-3l-2 1-1-1 1-2-2 1v-1h-1v1h-1l-1 3h-1v3l-2 1v-3l-1 1h-1l2-4v-1l1-1 1-1z"/><path fill="#A65741" d="m43 160 1 1c2 2 3 2 5 2v-1l1 1 1 1 2 1v2l-4-2 1 1 1 1 2 2a42 42 0 0 1 1 7v6l-6-4-2-5v-1l-1-1-1-6v-1z"/><path fill="#EDA279" d="m137 48 4 2v-1h2v1h2l5-1h5l3 1v1l5 2 1-2h3v1l1 1 1 4h2v-1h1v-3l4-1h1v1h3v1h1l5 1v-2l2-1 1 3-1 2-8-2-1 1v-1h-4l-1 2-1 2-8-1v-2h-1l-5-4h-2l-3-1h-5v1l-3-1h-2l-6-1z"/><path fill="#151626" d="M103 18v2l1 2h2v1h2l2 12h-10v-1h1l1-5 1-2h-1l-1 1-1 1v-4h-1v1h-1l1-2-2 1-1-1 1-2v-1l1-2h1l1 1 1 1 1-2h1z"/><path fill="#853718" d="m116 69 1 3-1 1v3c-1 7-1 7-3 10v3h-2l-1 1-2 4v-1l-1-2 1-1 1-3v-3l-1 1c-2 6-4 8-10 10l-3 1v-1h1c3-1 5-3 7-6l3-9h-1 4l2-2-1 8 1-8c0-3 2-5 3-7l2-1z"/><path fill="#D89386" d="M17 45h2v1h1v3l3 1v1h4l2-1h7l7 2v2l-2 3-1 1-1 1v-2h-1l1-2h1l1-1 1-1h-3l-1 1H25v-1l-2 1-5-2v-1h-5c1-3 2-5 4-6"/><path fill="#20121B" d="m46 57 2 1-1 1-1 2-4 3-2 1-1 1c-4 3-7 8-8 13l1 9-3 2-1-1v-4l1-5v-2l4-8c-7 5-7 5-10 13-1 3-1 6 1 9h-2c-2-2-1-6-1-9 2-7 7-12 12-15h1v-3l1 1 1-1 4-1v-1l3-3h1v-1l2-1z"/><path fill="#A17570" d="M89 104h6l1 2 1 1v2l1 1 3 3v1h1l3 1-2-5 1-1c8 8 8 8 8 12-4 0-6-1-9-3l-1-1-14-12z"/><path fill="#F1854C" d="M13 85v-1l4 1v8C7 93 7 93 3 90l1-5q4.5-3 9 0"/><path fill="#23253A" d="M55 29h1c0 4 0 8-2 12h-1v2l-3 6-2 6h-1v2h3v3l-1 1v2h-1l-1 1-2 7-1 1-1 3h-1l2-7h1l1-3 1-2 2-5-2 2h-1l1-2-3 1v1l-2 1c-2 1-2 1-2 3h-2l3-4 1-1 1-2 1-1 1-3 2-2 1-2 1-2c2-4 2-9 2-14h1v4l1-1v-2l1-2z"/><path fill="#AE9FAA" d="M41 30v2h1l5 1h3v1h1v5l-2 4c-1 0-3 0-4-2l-1-3h-3l-3 1v-8z"/><path fill="#E68337" d="m94 95 5 1v1h1c4 1 6 3 8 5l1 5 1 1v3l-2-2c1 2 2 4 5 6l2 4v1l1 3-2 1v-1c-1-6-5-10-9-15l-4-6-6-6h-1z"/><path fill="#5F170B" d="M120 188v2h-1l-1 1v1l-4 4h-1c-5 3-9 3-15 3h11l-4 1h-2a507 507 0 0 1-6 0H86v-1h5l1-1h3l2-1 3-1 2-1a537 537 0 0 1 16-6z"/><path fill="#F9AA6A" d="M139 153h2a101 101 0 0 0 43 1l-2 3-4 1h-2a247 247 0 0 1-38-2z"/><path fill="#D2875A" d="M100 79h1v4l-1 1-1 6 3-7v-3h4c0 4-1 8-4 11-2 3-5 4-8 4v-1h-2l1-2 2-1v-2l1-2z"/><path fill="#1D1A22" d="m52 99 1 2-3 6-1 2-8 10-2 1-5 4-1 1c-6 5-6 5-8 5l1-3h1v-1h1l1-2 2-1 6-5 1-1c6-5 6-5 10-12h1v-1z"/><path fill="#916260" d="M85 77h1v7l1-7 2 3 1 1 1 1v1h1l-2 4 2 12-3-2 3 4-10-1 3-1 3-1v-1l-1-1 1-1 1-3v-2l-2 1 1-2-7 2v-2l1-2c2-3 3-5 3-8z"/><path fill="#A08B99" d="M94 0h14v1h1v2h1l1 2 5 1v3l-5-3-3 3V8h-1V6h1l-4-2v1l2 1-2 1V6h-4l-1-1c-1-2-3-2-5-2h-4l2-1h-7c2-2 6-2 9-2"/><path fill="#842A10" d="M102 78v1c0 3 0 7-2 10l-2 1 1-1 1-8 1-2c-2 0-2 2-2 3l-4 7-1 1 1 1h-1l-2 3 3-1-1 2 1 1 1 1 2 1v1h-2l-4-4 1-9v-1c1-3 1-5 3-7z"/><path fill="#5B2420" d="M52 148v2l5 1-2 1 1 1v2h14v1h-6l-10 1v15h-1v-4h-1l-3-2v-2l4 3v-2h-1l-3-2v1c-2-1-4-1-5-3l4-1 1 1 4-1v-5l-1 1h-2v-7z"/><path fill="#F4B085" d="m139 28 5 1v-1l6 1 2 1h1v1h1l1 1c1 2 3 2 5 2l-1-3h8l1 3h1l7 2v2h-3l-2-1-4-1v-1l-3-1-1 2h-5l-5-2v-1c-3-2-6-2-10-2l-4-2z"/><path fill="#873315" d="M121 60h3v1h-1l1 1v16l-1 7-2 4v-3 1l-1 1-1 2-1 1h-1l1-2c4-6 4-15 3-22l-1 3-1-5v12l-1-4v-7l1-4c0-2 0-2 2-2"/><path fill="#DEA899" d="M128 44v3h3v2l1-1 2-2c2 0 2 1 3 2l-2 1 1 1v4h1v1l2 1-1 1-5-1c-2-1-3-2-6-1-2-6-2-6-1-7l1-1 1-2z"/><path fill="#0D080A" d="M24 109v3l-7 1c-4 1-8 2-12 5l-1 2H3v1l-1-1-1-8 3-1 1-1v1l2 1v1c6-1 12-4 17-4"/><path fill="#BB7A79" d="M37 24v1l1 2h3v1h1l2 2 6 2v1h1v1h-1v-1h-2l-3-1h-4v-2l-2 1-1 1-1 2-4-3h-5l3-4 2-1c1-2 2-2 4-2"/><path fill="#87250D" d="M134 138h1l3 1c2 2 2 5 2 8l-5 12v1l-1 2a57 57 0 0 0-4 14l-1 1-1 2v-7h1l1-4h1v-1l1-3 1-5v-2l2-1v-2h1c3-7 3-7 1-13v-1c-2-1-4 0-6 1-2 2-3 4-3 7h-2l4-10z"/><path fill="#75484B" d="M3 75a2934 2934 0 0 1 9 5h1l-2-4 9-1-1 4h2v3h1l-1 6v-1l-1-1-3-2h-1l-1-1v-1h-1l-6-4-5-2z"/><path fill="#CF7E5E" d="M33 69c0 2 0 3-2 4l-3 8-1 1v8l-3 1c-2-2-2-4-2-6 1-6 4-10 9-14z"/><path fill="#07050A" d="M44 85v2l-3 2-2 1-1 1-1 1-2 1v1l-3 2-1 1-9 2-6 1H2l2-2-4 1 1-2h4l1-1 3 1c3 2 7 1 10 1l2-1h1l7-2h1l6-4 5-4 2-1z"/><path fill="#15090C" d="M120 18c4 5 4 11 3 17v1l-2 1v3l-1 1v2l-1-5v1l-3 3 1-1 1-8-1-1v-4l1-1v-1c2 1 2 2 2 3z"/><path fill="#04040A" d="M54 40h1c-1 8-2 16-5 24l-1 2-1 4-2 1 2-7 2-7h-3c0-3 2-6 4-9l2-7h1z"/><path fill="#7B4F4E" d="m24 100-12 6-2 1-7 2c0-2 0-3 2-4l1-1c3-3 6-4 11-4z"/><path fill="#8F594F" d="m16 120-1 1c-3 4-7 8-9 13l-1-3-1-1v-3l-1-3 4-1v-1l2-1 2-1z"/><path fill="#E28F63" d="m126 23 2 4v2h2v11h1l1-2v7l1 1v1l-2 3v-3h-3v-2l-2 1 1-1c1-6 0-13-1-19h-1v1z"/><path fill="#2E1710" d="m119 46 1 1v1l4 1v2l-1 1h3v-1 4-2h-3v7h-3v-1l-1-4v-3h-2v2l-1-3h-1v-1l-1 1-2 3h-1l1-3h-2l1-2 2 1 1-2v1h2l2-2z"/><path fill="#877183" d="M129 25h2v1h1l3 1 1 4h2l3 1h-4v-1l-2 2 1 1-1 2h-1v1l1 1-1 1v3l-1 4-1 1v-7l-2 2V30l2 5v1l1 2-3-11z"/><path fill="#671E11" d="M108 175v1l-1 3-1 1c-3 6-6 9-12 12l-2 1-5 3h-1l-4 2h4-10v-4l5 1-3 1c4 1 6 0 8-2l4-2h2v-1l3-2 4-4h1l1-1 2-3 1-1 1-1 1-1z"/><path fill="#13111A" d="M97 20c1 2 0 2-1 4h3l-1 2h1v-1h1v3l3-1v4l-1-1-1 1a197 197 0 0 1-9 6c1-6 2-12 5-17"/><path fill="#1A090C" d="m98 39 2 1h3l5 1v3h-1l1 3-3-4-1 2v-1l-1 2-2-1 1-1-1-1-1 1v-1h-1l2 4h-2l3 6 9 1v1c-4 0-7 0-10-2-3-3-3-7-3-10h-2v3h-1v-2h-1v-1h-3v-3 2l1-1 6-1z"/><path fill="#BE7354" d="M147 113h8v1l-25 1v1h8v1h-20l-1-1h-2l-3-2h7a1343 1343 0 0 1 9 0h4l1-1 5 1 2-1z"/><path fill="#DFB4A7" d="M49 57v2a244 244 0 0 1-3 6c-1 4-2 5-6 7l-3-1h-1c0-4 5-7 8-9z"/><path fill="#54221C" d="M55 103h1l-2 4v3h2l-1 1 1-1-3 6h-1l1 4 1 1v1h1v-2 4l-1 1-3 5c-1-8-2-18 3-26z"/><path fill="#864A3A" d="m118 119 1 1h6c9 0 9 0 12 2h-1l-4 2-2 1h-1l1 2 2 1v1l2 1-1 1-1-1-2-1-1-1-8-6z"/><path fill="#E88D61" d="m143 87 1 2h1v5l3 4 1 2c1 3 3 3 5 4l1 2 3 1v1l3 1-3 1h-1l-1-1-4-1v-1l-2-2h-1l-1-1h2l-4-3 1-1h-1l-2-1-1-7z"/><path fill="#1E243C" d="M87 18v1h2v2l1-1h5l1-1h1l-2 6-4 1v-1l-6-1v-2l-2 2h-1v1h-1l3-4 1-2h1z"/><path fill="#7F5553" d="m23 112-11 7-9 4-1-2h1v-1l2-2 1-1 10-4 2-1z"/><path fill="#B46747" d="M126 52h1v1l3 10-2 2-3-6v2a2248 2248 0 0 1 0 14v1l-1 9-1-4v-6l1-2v-6l-1-4v-1l1-2h-1v-7h1z"/><path fill="#7F5C5E" d="M80 70c1 15 1 15-3 19-3 3-5 4-8 4l1-1 4-7h2v-2h1l1-1 1-1-1-1c0-4 0-7 2-10"/><path fill="#804D4F" d="M54 157h4l-2 1v32h-1l-1-11v-3l-1-2v-12z"/><path fill="#815254" d="M72 172h2l-1 1v10l2 4 1 2-1 2v6l-4-1v-12h1z"/><path fill="#B96E58" d="m144 99 4 1-1 1 4 3h-2l1 1 3 2v1l15 4 4 1v1l-11-1-6 1v-4h-1l-1-1-3-1-3-3-2-2-1-3z"/><path fill="#C47151" d="m195 123 2 2-1 5-8-1c-3-2-7-3-11-3l4-1h2l4 1v-1h3v-1z"/><path fill="#282D44" d="M115 11c4 3 5 8 6 13v4l-2-5-1 2v-3l-1 3-2-1-1 2h-3l-2-1v-4h3v-1h5z"/><path fill="#111017" d="m80 23 1 1v1h1v-1h2c-1 4-2 7-5 10l-1 1-4 5v-1h1l1-4-4 3 5-8z"/><path fill="#52150C" d="M80 160h1v1l3 1h1v1l3 1v1l-9-3 1 1 1 2 4 1v1l1 1-1 1v3l-1-1-4-1 1 1v5h-1v-7h-1v-1l-1-1v-3l-1-1c1-2 1-3 3-3"/><path fill="#94645C" d="M25 121c0 2-1 3-3 5v1l-11 13v-5c3-6 8-11 14-14"/><path fill="#A93E16" d="M104 124h5c1 1 2 1 2 3l-5-1 1 1 1 2h1v2l1 2c0 3 0 3 2 5l4 2c3 2 6 3 8 6l1 2h1v1h-2v-1l-1-1-2-2-1-1v-1h-1l-5-2-1-1h-1v-1l-2-1v-2h-1v-1h-1l-1-3v-3l-2-1v-2h-1z"/><path fill="#2D1013" d="M10 82h2v1H9a732 732 0 0 1-5 1l-1 4v2l2 1 1 1 6 1h8l1 1C6 94 6 94 3 92l-1-1 1 2v1l2 3H3l-2 1H0l1-13c3-3 5-4 9-3"/><path fill="#BBA4A8" d="m138 24 2 2v2l1 2h3l8 2v2l1 1 1 2-2 1-1-2-3-2-4 2-2-1v-2l-2-1c-2-3-2-5-2-8"/><path fill="#F4A271" d="m156 141 16 1 12 1h3l3 1-1 3h-1a385 385 0 0 0-32-5z"/><path fill="#B86846" d="m150 122 3 1h2l2 1h2c11 0 11 0 16 3h1v1c-7 0-13-1-20-3h-1l-2-1h-1z"/><path fill="#8A452F" d="m135 160 1 2h2l4 1c12 2 24 1 36-1v2l-13 1-3 1h-8l-13-2h-3l-2 1v-2h-1l-1 2z"/><path fill="#954F30" d="M182 127c4 0 8 3 11 5l2 1-14-2h-5l-3-2z"/><path fill="#1C0B0B" d="m6 98-3 2h9l4-1h4l2 1h-7c-4 1-8 2-11 6l-1 4H2v-4l1-3-3 1v-5c4-2 4-2 6-1"/><path fill="#37140D" d="m19 144 1 5v7l-1 2h-1l-3-4v-1l-2-2 3-4 1-1z"/><path fill="#310907" d="M74 173a701 701 0 0 0 6 11l2 1-5-1v-1h-1v1l2 2h1l1 1h-3l-1-1v1h-1l-1-1-1 2z"/><path fill="#1D2234" d="M53 51h1c0 10-4 20-10 28v-1l-1-2 3-6h2v-1l2-5z"/><path fill="#BA7875" d="M17 45h2v1h1v3l3 1v1h4l2-1h7l7 2v2l-2 3-1 1-1 1v-2h-1l1-2h2l1-2h-5l-2-1v-1h-3v1h-2v1c-7-1-7-1-10-3l-1-1-3-2v-2z"/><path fill="#EB7C36" d="M132 173c2 2 2 3 2 5v5c1 4 2 7 0 10l-1 2h-1v-1l-1-6h-1z"/><path fill="#D07C65" d="m167 30 1 2h1v2h1v-1l5 1 5 5v1h-3l-1-2v-2h-1l-7-2-1-3h-8l1 3-5-1-1-1v-1l2 1 1-2 3-1z"/><path fill="#CD8F7B" d="M93 102h1l2 1c3 1 4 1 5 3l2 5 1 1 1 3c-3 0-4-1-6-3v-1z"/><path fill="#997C7E" d="m109 37 1 3h1v1h-1c-4-2-9-3-13-1l-3 1h-1c0-1 0-2 2-3l1-1 1-1c4-2 8-1 12 1"/><path fill="#A08489" d="M106 26h1v1h1l2 8h-10v-1h1l1-1 2-4 1-2z"/><path fill="#F67F1C" d="M100 99h6c3 4 4 7 4 12v-1l-3-2-2-2h-1l-1-2v-1h-1z"/><path fill="#4B0F06" d="m108 176 1 1h-1v2l-2 3a263 263 0 0 0-2 5l2-1h2v-1l4-3 1-1h1v1l-3 2-1 1c-3 3-8 6-12 7h-2l1-1c5-4 8-9 10-14z"/><path fill="#6D1E0F" d="m72 113 2 2 1 1 1 2v2h1v1l1 1v1l1 3 1 3v1l-2 3-2-9h-1l-1 1-1-2v-5l1 1-1-1v-1l-1-2z"/><path fill="#F6AA7B" d="M139 74a1366 1366 0 0 1 9 2h1l4 1v-3h1l2 1h4v2h7v1l-2 1h-3v-1l-1-1h-3v-1h-2v2l-9-1h-2l-7-2 1 2h-3l-1-1-3-1h3v-1z"/><path fill="#2C1E1F" d="m46 52 1 1 2-1-1 3h-1v2h3v3l-1 1v2h-1l-1 1-2 7-1 1-1 3h-1l2-7h1l1-3 1-2 2-5-2 2h-1l1-2-3 1v1l-2 1c-2 1-2 1-2 3h-2l5-7 1-1z"/><path fill="#93615C" d="M119 37h1l-1 6v2l1-1 1 1h1v1l1 1-1 1 2 1-5-2-2 2h-3l-1-5 4-2z"/><path fill="#96392B" d="M94 73h1v1h1l3 2 3 1v1l2 1v1h-2v-1l-2-1h-4l-1 1-1 2-1 1h-1l-1 1-1-2h1v-1l1-5 1-1z"/><path fill="#BB4C55" d="M116 65v2l-1 2-3 4h-1l-2 1v-2h-1v-3l-4-1v-1h2l7-2z"/><path fill="#2E161B" d="M90 38h3l-2 5h2-2v25c-2-2-3-7-3-11v-2l1-7v-5h1z"/><path fill="#B46C5A" d="m140 116 13 1-1 2h2l-3 1h-3l2 1c-3 1-5 0-7-1h-2l-3-1 2-2z"/><path fill="#F5B982" d="M171 83h5l1 2h1l3 1h2l3 1h4v1a10245 10245 0 0 1-42-1v-1h28v-2h-6z"/><path fill="#772A1C" d="M96 180h1c-3 4-8 7-14 9h4v1h-7l-1-2 2-1-1-1v-1h1c5 1 10-2 14-5z"/><path fill="#591209" d="m90 124 1 2-2 2h-1v1l-2 2-4 4 1-1 4-1 1-2h1v2l-2 2-2 1c-2 2-3 2-6 2l1-1v-4l3-2 2-2h1l1-2h1v-1z"/><path fill="#68262A" d="m74 43 3 3v5h1v1l1 2v2l-4-2v-3h-1v2h-1v-4l3-1v-1h-3v-2l-2 2v-3z"/><path fill="#E2A291" d="M158 106h42-25v1l-7 1h-7z"/><path fill="#6D2816" d="M121 60h3v1h-1v7l-1 1-1 2v-4l-1 3-1-5v12l-1-4v-7l1-4c0-2 0-2 2-2"/><path fill="#7E2E1F" d="M105 176h1c-2 6-7 11-12 14l-2 1v1l-4 2-1 1-8 2-1-2h2c5-1 10-4 15-7h1v-1l3-3 1-2h1l1-1 2-3 1-1z"/><path fill="#965749" d="m30 152 2 3v1l1 7v7h-1c-2-4-3-8-2-12z"/><path fill="#91696D" d="m106 40 6 3-1 2-2 1-1 2v1h-4l-1 2v-1c0-2 0-2-2-3h2v-3h1l1-1 2 2v-1h1v-2l-2-1z"/><path fill="#6F4548" d="M85 68c1 17 1 17-5 23h-1l-1 1-2 2h-1l-1 1-2-1 3-2 1-1 3-1 1-2 2-4v-2l2-5v-1z"/><path fill="#EB895A" d="m5 69 3 2v2l1 1 1 1c2 0 3 2 4 4l-1 1c-2 0-2-1-3-2l-2-1-5-2z"/><path fill="#814A48" d="m88 59 2 5 1 2v2h1l1 2 1 1v3c-3-1-6-3-7-6z"/><path fill="#B77F66" d="M89 1h2l9 1 6 1h-1v1l-1 1 2 1-2 1V6h-4l-1-1c-1-2-3-2-5-2h-4l2-1h-7c1-2 2-1 4-1"/><path fill="#4A1F11" d="m28 158 2 3v2l1 1v2l1 4h1v1c2 3 3 5 7 6l2 1c-5 0-8-2-12-5l-1-1-1-2v-2l1 1 1 1-1-5z"/><path fill="#F0AB8B" d="m134 46 3 2-2 1 1 1v4h1v1l2 1-1 1-6-2 4 1v-1l-4-2-2-1 1-3 1-2z"/><path fill="#08070C" d="M68 64c3 5 3 11 2 17-1 4-2 8-5 11l-1-1 2-3v-3l1-2 1-15z"/><path fill="#A76E74" d="M37 24v1l1 2h3v1h1l2 2 6 2v1h1v1h-1v-1h-1l-6-2h-2v-1h-1v-1l-6-1v1h-4l2-2v-1c2-2 3-2 5-2"/><path fill="#AF6A6B" d="m166 25 9 8v1l-5-1v1h-1v-2h-1l-1-2h-10v-1c2-2 3-1 5-1h2l2 1z"/><path fill="#978F9B" d="M121 8h2l-1 3v2l1 1c2 0 2 0 3 2v1l1 1 3 1h2l-1 1h-2v1h-1l1 2v2l-4-6-3-4v-1h-1l-2-2v-1l-1-1-2-1h4z"/><path fill="#671605" d="m133 165 1 5-1 1v2l-4 10-1 4c0 2-1 3-3 4l2-7 4-13 1-1z"/><path fill="#5F1C12" d="M52 148v2l5 1-2 1 1 1v2h14v1H50v-7z"/><path fill="#F7C29B" d="M102 80h4c0 4-1 7-3 10h-3z"/><path fill="#61190C" d="M120 188v2h-1l-1 1-1 3-6 2h-7l10-5z"/><path fill="#A6716A" d="m115 55 3 1 3 1-3 5-2 1-2 1v-3h-2v-2h1l2-1z"/><path fill="#F8AA79" d="M114 116h8l6 1 10 2a624 624 0 0 1-15 0l-2 1-6-3z"/><path fill="#1D0705" d="M62 96h1l-2 1v1a372 372 0 0 1-4 4l-1 1h-1l-2 5-1 1-1 11v6h-1v-11h-1c0-4 1-8 4-11l1-1v-1l4-4 1-1z"/><path fill="#C87553" d="m162 121 1 1h13l-4 1h10v1h-5a91 91 0 0 1-17-1h-4l-3-1 3-1z"/><path fill="#9E5C4D" d="m90 81 1 1v1h1l-2 4 2 12-3-2 3 4-10-1 3-1 3-1v-1l-1-1 1-1 1-3v-1l-1-3 1-2h1z"/><path fill="#D18469" d="m31 77 3 1 2 3v1l1 1-5 3-2-5 1-1z"/><path fill="#B65D48" d="m48 168 5 3v5l-6-2-1-4z"/><path fill="#C25C30" d="M139 147h2l-3 9v1l-2 3h-1v1l-3 11-1 2-2 4 1-7 1-1 5-14z"/><path fill="#CD8469" d="M119 61h1v3h1v18h-1c-1-7-2-14-1-21"/><path fill="#F2A772" d="M122 15c6 5 10 14 11 21v8-2l-3-12h-2v-1l-2-6-1-3h-1l-2-4z"/><path fill="#1F0B0C" d="m82 82 1 2q-3 6-9 9l-2 1h-3l-5 2v-1l6-3 6-2 2-4 1-1h1z"/><path fill="#E9883C" d="M116 119c22 12 22 12 24 21v2l-1-2-1-1-1-2-1-1v-1c-2-3-5-4-8-6l1-1h-4l-1-1 1-1-2-1v-1h-1l-2-2-4-1z"/><path fill="#F5C096" d="m125 74 5 1c0 4 0 4-2 7h1v1h-1l-2-2h-2z"/><path fill="#F6AA6F" d="m182 131 12 2v2c-6-1-11-1-16-3h-6l-1-2c3-1 8 1 11 1"/><path fill="#8F3E1C" d="m106 79 1 1-1 1 1 1 1 2c0 3-1 5-4 8-2 2-5 3-9 4v-1h1c3-1 5-3 7-6l3-9h-1z"/><path fill="#A17E82" d="m112 43 1 1 1 3-1 2v1h-2v3h-2l-2-2 1-2h-1l2-3 1-1z"/><path fill="#E38A6A" d="m137 48 4 2v-1h2v1h2l5-1h5l3 1v1l1 1 3 1-6-1-7-1v1l-3-1h-2l-6-1z"/><path fill="#BE898E" d="m158 96-3 1-1 3h-2v1h1l2 4c-3-1-5-2-7-5v-2l-2-2z"/><path fill="#A46063" d="M72 45h1v2h3v1l-3 1v4h1v-2h1v2l4 3v1l-3 1-3-3h2-2l-2-3v-5z"/><path fill="#271415" d="M102 30h1l-2 4h-1v1h10v-1h2v5l-1-1-1 1-1-1c-3-2-6-3-9-2l-3 1-3 1 1-1z"/><path fill="#F5B287" d="M140 50h1l4 1 4 1v-1l8 1h2l1 1-2 1v-1h-6l-1 1h-4v-2h-4l-3-1z"/><path fill="#DDAD96" d="M158 38h4l2 2v1h2v-1h3v1h2l1 3v2h-3v-4h-6l-1 1-2-2v-3z"/><path fill="#672F22" d="M94 82h1v4l-1 2h1l-1 2 1 1h-1l-2 3 3-1-1 2 1 1 1 1 2 1v1h-2l-4-4 1-9v-1z"/><path fill="#D77E5D" d="M141 140h15v2h-6l-2 1h-7z"/><path fill="#BC4714" d="M134 138h1l3 1 1 2-1-1v-1c-3 0-5 1-7 3l-3 6h-2l4-10z"/><path fill="#EABC94" d="m114 85 3 2 1 1-1 3h-2v1l-5-1 1-2h2v-3z"/><path fill="#2A283E" d="m48 63-1 4v1l-1 1-1 2-1 4v2l-1 2v1h-2v1h-1v1l-2 1v1l-1-1 1-1 2-3 1-1h-1l1-3h2v-2z"/><path fill="#E29265" d="M174 161h5v1c-13 4-28 3-41 0h9l13 1h6l8-1z"/><path fill="#AC6960" d="M147 113h8v1l-42 1-1-1h20l1-1 5 1 2-1z"/><path fill="#AE7E84" d="M109 83v3l1 2-2 3 1 1h-1l-1 2h-2l-1 2-2-2 3-4z"/><path fill="#E9B590" d="M94 80c1 2 0 4-1 6l-1 12c-2-2-2-4-2-7v-4l1-1 1-3z"/><path fill="#140F18" d="m24 131 1 2-2 2h-1l-1 1-2 2-3 4-2 1-1-1h1v-2l2-4h3v-1l3-3 1-1z"/><path fill="#CD9C96" d="M119 93h1l8 2 4 1-2 2h-4l-2-1-4-1z"/><path fill="#BA9094" d="M41 30v2h1l5 1h3v1h1v4-3h-2l-3-1-6-1-1 4h3l1 1h-2l-3 1v-8z"/><path fill="#573838" d="M80 66v6c-2 2-2 5-2 8l1 1-3 4h-1v-2l1-2v-1l1-6v-1z"/><path fill="#130508" d="M31 75v9l1 4-3 2-1-1v-4l1-6v-2z"/><path fill="#F8CEA8" d="m121 89 1 1-1 3h4l3 1v-1h3l1-4 3 1h-2l-1 6-1-1h-4l-9-2v-1l1-1h2z"/><path fill="#EF834D" d="M3 76h2l1 1 2 1v3H5l-2 2H2v-4z"/><path fill="#C54E19" d="m109 130 1 1v1h1v1l2 2v1l2 1v1h1v1l1 1 4 2v1c-10-4-10-4-11-7z"/><path fill="#661D0E" d="M101 104c6 5 10 11 13 17v2l-5-1v-1h-1v-1l4 1c-2-5-4-8-8-12l-1-2-1-1z"/><path fill="#BC8D8E" d="m99 89 1 1h2v2c-3 2-5 3-8 3v-1h-2l1-2 3-2v1l1 1z"/><path fill="#2B2029" d="M29 76h1v1c-1 4-2 8-1 12l1 1-10 3v-1h2l5-2-1-1 1-8 1-1z"/><path fill="#1C243E" d="M77 17v2l4-1v2l1-1 1 1-1 2h-2l-6 1 2-4z"/><path fill="#5A1C12" d="M130 193h1l-1 3-10 3h-3l-2 1-3-1c4-2 7-2 11-2v-1h1l1-1 2-1v1l2-1z"/><path fill="#4C0D04" d="M100 193c-5 4-12 5-19 5l2-1 2-1h1l5-2-1 1h6v-1z"/><path fill="#382222" d="M30 142v10l-1 7-1-3v2h-1c0-13 0-13 3-16"/><path fill="#100708" d="M25 121h2l-2 4h-1l-1 3c0 2-1 2-2 3l-1 1-2 1-1 1-2 2 2-4 7-10z"/><path fill="#E1855B" d="m8 79 5 2 1 3h-1v1l-3-1H6l3-2c-3 0-5 1-8 3l1-2h1l1-2h4z"/><path fill="#9E4D3C" d="M20 64v10l3 1 1 1v-3c0 3 0 6-2 9h-1v-3h-2z"/><path fill="#F48551" d="M20 61h2v2l1-1v11h-1v2h-1l-1-5z"/><path fill="#8F5B50" d="m130 30 2 5v1l1 2v-4l1 4v6l-1 2-1 1v-7l-2 2z"/><path fill="#2B1A21" d="M102 21h2l2 1v1h2v4h-1v-1l-3 4-2-1 1-2h1l-1-3h-2z"/><path fill="#832C1A" d="M86 175h5v1l2 1v1c-3 2-5 2-9 2v-3h4v-1h-2z"/><path fill="#882F0B" d="M116 69v7l-2 8-1-1v-5q0-6 3-9"/><path fill="#CD9273" d="m24 100-3 2h-1l-5 2-4-3 6-1h1l2-1h1z"/><path fill="#702C1A" d="M127 35h1l-1 10v3l-1 2v2h-4l3-3v-3l-1 1-1-2h2v-2l1-1v-3h1z"/><path fill="#4F1107" d="m115 195-2 1-1 1c-4 2-8 2-12 2v-1l9-3h3l1-1z"/><path fill="#EDA971" d="m184 77 1 1h1v1l9 1 1-2h2v3l-13-1v-1h-4l1 1-10-1 3-1h1l3 1v-1z"/><path fill="#C2796C" d="M144 26v1h4l1 1h1l3 1 1 2h-1v-1h-1l-8-2v1h-4v-2z"/><path fill="#3F0D08" d="m76 189 2 3 1 1v1l5-1-1 2h-4l-3-1 1 2-1 2-1-1v-3l-1-2z"/><path fill="#B6726D" d="M132 38v7l1 1v1l-2 3v-3h-3v-2l-1 1 2-5 1 1z"/><path fill="#966967" d="m107 112 5 8v1h-3l-1-2-1-1-2-2 2-3z"/><path fill="#693A2D" d="m43 158 1 6v1l1 3h-3v-1l-1-1v-1l-1-1v-5l1 1 1-1z"/><path fill="#B98680" d="M115 50v1h1l1 2v-1h2l1 6-4-3-1 1v2h-2v-4h1v-2h1z"/><path fill="#945C62" d="m71 43 2 1h-1l-1 1 1 3-1 2v3l4 2v1h-1l1 1c-3-1-5-3-6-6-1-2 0-5 1-7z"/><path fill="#8A4B34" d="m147 125 11 4 2 1 4 2v1h-2v-1h-1l-3-1h-3l-2 1-1-1 1-2-4-1v-1l-2-1z"/><path fill="#541B16" d="M124 39h1v3-1l1 1-1 3-1 1-1-1 1 2 2-1-1 3-3-1v-2l-1-2h1v-1l-1-1 2-2h1z"/><path fill="#A96567" d="M99 43h3v1h-1l2 2-1 2 1 3h2l-2 2-2-1-1-2v-1z"/><path fill="#532010" d="M32 155h1v1h3l-1 2-1 1h2l1 5c-1-1-2-1-2-3v5l-2 4v-1z"/><path fill="#561C14" d="M73 94v1l-3 1c-4 0-6 1-8 3l-6 3 1-2h1l3-2v-1c4-3 7-3 12-3"/><path fill="#E38867" d="M175 52h2v1h3v1h1l5 1v-2l2-1 1 3-1 2-7-1v-1l-5-1v1l-4-1v-1h1z"/><path fill="#802609" d="m131 178 1 3-1 2v2l-1 3h2v2l-4 4v-1l1-6c-1-4 1-6 2-9"/><path fill="#DB8A6D" d="m162 108 13 2 1 2h-8v-1l-6-2z"/><path fill="#160F11" d="m46 57 2 1-1 1-1 2-4 3-1 1-2 1h-1v-2h2v-1l3-3h1v-1l2-1z"/><path fill="#4A110A" d="M78 189h2l3 1h1l1 1h4l-1 2h-1l-1 1h-3l1-1h-2l-3-1z"/><path fill="#987C8F" d="m25 66 4 2 2 1-5 5z"/><path fill="#4A241B" d="M126 51v4-2h-3v7h-3v-1l-1-4 1-1h2v-2h4z"/><path fill="#6C4239" d="m113 48 1 1h6v3h-3v2l-1-3h-1v-1l-1 1-2 3h-1l1-3h-2l1-2 2 1z"/><path fill="#89686B" d="M79 82c0 4-1 6-4 9l-4 1h1v-1l3-5h2l1-3z"/><path fill="#832F15" d="M110 78v9l2 1-1 2-1 1-2 3v-1l-1-2 1-1 1-3v-2l-1-2h-1l-1-3h2l2-1z"/><path fill="#E18C5D" d="M117 68h1v6h-1v4l-1 3h1l-1 2-2 1 1-2a408 408 0 0 0 1-7v-4z"/><path fill="#8E788D" d="M8 62h1v5l-1 5-1-1-2-2 1-4 1-1z"/><path fill="#7E2F1E" d="m56 120-1 10-2 1v1l-2 6 1-10 1-1c1-3 1-5 3-7"/><path fill="#985447" d="M143 87v1l1 4v1l1 10h-1l-1-1-1-2-1-1v-1h1V88z"/><path fill="#B0443F" d="M116 65v1c0 2-1 2-2 3h-3l-3-1h-4v-1h2l7-2z"/><path fill="#5B180D" d="M73 132h2v1l1 1c2 2 2 4 2 7h-2l-1-3h-1z"/><path fill="#EEAB87" d="m97 105 4 1c2 3 2 4 2 7h-1v-1l-3-1z"/><path fill="#AC6551" d="m129 65 3 2v5c0 3 0 6-2 9l-2 1 1-1c2-5 1-11 0-16"/><path fill="#7D6264" d="M106 26h1v1h1l2 8h-2 1l-2-7-1 1h-1v3l-2 1-1 1h4v1h-6v-1h1l1-1 2-4 1-2z"/><path fill="#140A0C" d="m11 144 1 1 1-1h3l2 2-2 2-1 1-2 1-1-2-1-1z"/><path fill="#916559" d="m25 121-1 3-1 1-1 1-1 1-1 3-2-2-1 2-2-1z"/><path fill="#835754" d="m16 120-4 4v-1l-3 1 1 1H9l-2-3 2-1 2-1z"/><path fill="#E0925C" d="m126 23 2 4v2h2l-1 5-2 1-1-9h-1v1z"/><path fill="#2E1511" d="m109 7 5 2h1c3 3 4 6 5 9l-1 1-3-7h-1v1l-1-1-4-3z"/><path fill="#B25F49" d="m48 182 6 1v6c-2-1-4-1-5-3v-1l2 1v-1h-1l-2-2z"/><path fill="#282634" d="M6 93h1l10 1h1l9-1c-4 3-10 2-15 2v1l-6-2z"/><path fill="#1D1D2F" d="m46 52 1 1 2-1-1 3h-1v1l-1 1-1 2h-1v1l-2 1c-2 1-2 1-2 3h-2l5-7 1-1z"/><path fill="#F6D9B9" d="M118 61h1q0 6-3 9l-2 2v-2l1-1 1-2-1-3z"/><path fill="#A96E73" d="M17 45h2v1h1v3l3 1v1h4l3-1-1 1v1c-5 1-5 1-8-1l-2-2-3-2v-2z"/><path fill="#070508" d="M95 26v2h1l1 4h-2l-1 3h1l-1 2h-2zm2 3 1 1h-1z"/><path fill="#754848" d="M72 160h1l1 12v12h-1v-1z"/><path fill="#6D341C" d="m44 160 5 1 4-1v5l-4-2v1c-2-1-4-1-5-3z"/><path fill="#A2553D" d="M140 139h16l-7 1h-8v6-1l-1-2h-1z"/><path fill="#201D2A" d="M14 124v1l-2 4-3 6v2l-1 1-2-2 2-4h1l2-6h1v-1l1-1z"/><path fill="#EA9560" d="M122 119h12c-2 2-3 2-5 2h-9l-1-2z"/><path fill="#E6A47C" d="m74 185 2 3-1 3v6h-2z"/><path fill="#735351" d="m11 114 1 1h-1v1H9l-2 2 1 2-5 3-1-2h1v-1c2-3 5-4 8-6"/><path fill="#EC976F" d="M154 105c4 0 4 0 5 2l5 2 5 3-9-1-1-1 1-1h-3l1-2h-2l-1-1z"/><path fill="#E5B394" d="M113 72v2l-1 5c0 3 0 6-2 9v-9h-1l1-2c0-3 1-4 3-5"/><path fill="#170D12" d="M102 27h1v4l-1-1-1 1-6 5v-1h-1l2-3 1-2 2 1 1-1z"/><path fill="#551108" d="M93 134v1h-1v2l-4 1-1 1-3 1h-2l-2 1 1-2 2-1 3-1 1-1 2-1z"/><path fill="#BA8986" d="M102 93c2 2 2 3 1 5h2v1l-6-2v-1h-3z"/><path fill="#9B665E" d="m22 83 2 2v1h1l1 1 1 3-3 1c-2-2-2-3-2-5z"/><path fill="#D58F6A" d="M126 52h1v1l3 10-2 2-2-4-1-3 1-3z"/><path fill="#E08452" d="m180 137 12 2v2h-6v-1l-1-1h-2z"/><path fill="#D99182" d="M158 107h6l2 1h2v-1c3 0 5 0 7 2v1l-11-1-2-1h-3z"/><path fill="#7B8BA9" d="M90 0h14v1h1v2l-9-1-6-1z"/><path fill="#250807" d="M26 75h1l-2 2c-2 4-3 8-2 12l1 3h-2c-2-2-1-6-1-9 1-4 2-6 5-8"/><path fill="#A46D72" d="m40 48 5 2-2 2h1v3l-2 1v-3l-2-2h-5l-3-1h8z"/><path fill="#411915" d="M124 26c2 3 1 7 0 10 0 2 0 2-2 3l-2 1 1-4h2v-5z"/><path fill="#0D070D" d="M103 4h6l-2 1 2 1-2 1v1h-2v4l-1 1V9l-2 3-1-2 2-2h1l1-2-2-1z"/><path fill="#C1704A" d="m173 126 3 1v1l-13-1 5-1z"/><path fill="#621C11" d="m52 119 1 1 1 1v1h1v-2 4l-1 1-2 4z"/><path fill="#E4825B" d="m23 60 2 1v6l1 3v5l-2 1V62l-1-1z"/><path fill="#502A23" d="m28 158 2 6 1 1v2c1 2 0 4-1 5l-2-2v-2l1 1 1 1-1-5z"/><path fill="#641B10" d="M79 113c2 4 2 9 2 13h-1v-4l-1 2-1-3v-2l-1-5 1 2z"/><path fill="#B79A9D" d="M152 15h1l1 2c0 2 1 2 3 3l1 2-2 1v-1l-1-1-3-1-1-4z"/><path fill="#0D080D" d="M92 3h7v1h-3l-2 1-3 1-2 1h-1l-3 1 4-4z"/><path fill="#694F4B" d="M89 1h2l8 1h-2v1h-7l2-1h-7c1-2 2-1 4-1"/><path fill="#14080B" d="m5 96 5 2H8v2H2l2-2-4 1 1-2h4z"/><path fill="#D38355" d="m143 87 1 2h1v8l1 1h-1l2 1h-3l-1-4z"/><path fill="#161826" d="m56 33 1 1-1 5-1 8v2l-1 3-1-5 1-3v-5z"/><path fill="#BB683E" d="m184 141 5 2h-16v-1h11z"/><path fill="#2C0F11" d="M89 50h1v2l1 16c-2-3-3-8-3-12h1z"/><path fill="#CC867F" d="M37 29h2l2 1v1h3v1h-3v-2l-2 1c-1 2-1 2-3 2l-1-1v-2z"/><path fill="#D4895C" d="M30 152c2 2 2 4 3 7v2h-3z"/><path fill="#F38527" d="M103 99c3 0 4 1 5 3l1 5 1 1v3-1l-3-4-1-5-1-1h-2z"/><path fill="#956462" d="m92 102 2 2-1 2-1-1h-3l-2-2-1-1z"/><path fill="#D99F93" d="M39 52h3v1l-4 3h-1l-6-1-6-1h13z"/><path fill="#AA777B" d="M147 23h4l-1 1-3 3h-3v-1c-3 0-3 0-5 2v-1l-1-3 4 1h4z"/><path fill="#6C2A1B" d="m54 175 1 14h-1v-6l-5-1v-3l5 3z"/><path fill="#F2822E" d="m132 173 1 4v9h-1v1h-1l1-6z"/><path fill="#5B160A" d="m106 158 1 1-1 1h-1v1l-3 4-1 1H91l-3-1h12v-1h1c2-1 2-1 2-3v-1z"/><path fill="#5A170D" d="M86 145h2l2 2v1h-9v-1l2-1h-3c2-2 3-2 6-1"/><path fill="#3F1110" d="M98 42h1l1 3 1 2h-2l3 6 9 1v1c-4 0-7 0-10-2-3-3-3-7-3-11"/><path fill="#6A4D51" d="m100 31-2 4-1 1-3 3-1 2 5-2v1l-6 2c1-5 1-5 3-6l1-1 3-2v-1z"/><path fill="#671C11" d="M53 109h1l2 1-1 1 1-1-3 6h-1v1-7h1z"/><path fill="#D37C5A" d="m144 99 4 1-1 1 4 3h-2l1 1 3 2h-2l-5-4-2-1z"/><path fill="#1A2035" d="M98 19h1l1 1h2c-1 4-1 4-3 5l-3-1 1-2v-1z"/><path fill="#D1847D" d="m15 47 4 1 1 2 3 1v1l-5-1v-1l-4-1z"/><path fill="#97563F" d="m118 119 1 1h11v1h-3v1h-1v1h-4l-4-3z"/><path fill="#FBB179" d="m139 119 8 2 1 1 5 2h-4a923 923 0 0 1-5-2l-1-1-4-1z"/><path fill="#EDB29C" d="M125 59c2 2 3 3 3 7h-2v1h-1z"/><path fill="#EE996D" d="M164 51h3v1l1 1v4l-1-1v-2l-4 1-1-2h1z"/><path fill="#8A6674" d="m130 26 2 1 1 3 1 1v4h1v-1h1l-1 2h-1v1l1 1-1 1-1-5h-1l-1-3v-1z"/><path fill="#2A1312" d="M123 26v10l-2 1v-9h1z"/><path fill="#1B1821" d="m6 98-3 2h5l1 1-9 2v-4c4-2 4-2 6-1"/><path fill="#15131A" d="m61 76 1 2-2 7-1 3-1-1v-4l1-1v-2z"/><path fill="#6A312A" d="M124 37v1l-2 3v3h-1v2l-2-1-1-2h2v-2l3-3z"/><path fill="#581912" d="M77 147c2 2 2 3 2 5l-2 1v-2h-1v-1h-2l-1 1h-5l5-2 4-1z"/><path fill="#9F655F" d="m99 100 3 4 2 5-1 1c-3-3-4-6-4-10"/><path fill="#4A3133" d="M78 59h2v1h-1v1c1 3 0 6-1 9l-1 1V61z"/><path fill="#AE7776" d="M112 61h2v3h1c-2 2-5 4-9 3l1-2h1l5-1v-1h-1z"/><path fill="#070815" d="M54 40h1a320 320 0 0 1-1 7v1l-3 1-2 3v-1l1-2 3-8h1z"/><path fill="#E49B7E" d="m139 28 5 1v-1l6 1 2 1h1v1h1l-1 1h-1v-1h-9l-4-2z"/><path fill="#693633" d="M73 184v13l-2-1z"/><path fill="#66170A" d="m85 117 1 3 1-2v6l-2 2-1 1v-8z"/><path fill="#623230" d="M87 53h1c0 4 1 6-1 9 0 4 0 6 2 9v1l-2 1-1-8v-1z"/><path fill="#2C181D" d="M80 54c2 5 1 11-2 16v-3l1-7h1z"/><path fill="#EBAD8F" d="M147 30h3l2 1v1h2l1 2h2v1h4l2-1v2h-5l-5-2v-1l-4-2h-2z"/><path fill="#B88C7B" d="M115 11c4 3 5 8 6 13v4l-2-5-1 2v-2c0-4 0-8-3-11z"/><path fill="#9A4F40" d="M135 167h1v3l-1 1 1 4-2-1v8h-1v-2l-1-9h1l1-3h1z"/><path fill="#D77849" d="m135 159 1 2-1 1v2l-1 1-5 13 1-4v-3l1-2 3-9z"/><path fill="#E16016" d="m131 136 5 1v1h-1l-5 1c-2 2-2 5-3 7h-1l2-7 3-2z"/><path fill="#9D645B" d="m18 128 1 1-2 5h-3v-3l3-2z"/><path fill="#BF6F56" d="m195 123 2 2-1 3-4-1v-2c1-1 1-2 3-2"/><path fill="#EC9C80" d="m134 46 3 2-3 1v2h-3v-2l1-1v-1z"/><path fill="#D38272" d="M125 70h2l1 2 2 1v2h-3l-2-1z"/><path fill="#E69C66" d="m18 145-1 5v1l-1 2h-1l-2-2 3-4 1-1z"/><path fill="#311F25" d="M39 80v2h-1v1l-4 4-1 2h-3l1-2v-1l1-1h2l2-2z"/><path fill="#1B1D30" d="M116 14c2 2 3 4 2 7v1l-4 1v-1h-4v-1h2v-1h5z"/><path fill="#882605" d="M137 139h1c2 3 2 5 2 8l-4 8 1-4c2-3 2-8 0-11z"/><path fill="#130707" d="m24 118 3 1h-1v1l-2 1-2 2-4 4-1-2h1l4-4 1-2h1z"/><path fill="#1E0808" d="m17 117-4 2-1 1h-1l-1 1-3 1v1H6l-3 1c1-3 5-4 8-6z"/><path fill="#BD7865" d="M114 115h16v1h-16z"/><path fill="#C89E88" d="M123 53h3c0 5 0 5-2 7h-1z"/><path fill="#EA905A" d="M180 144h10l-1 3-3-1h-2l-4-1z"/><path fill="#D5835A" d="m187 127 9 1v2l-9-2z"/><path fill="#5A3A3C" d="m85 68 1 5v2l-3 9h-1v-1z"/><path fill="#B99E9E" d="M129 20h3l2 4h-2v-1h-2v2h-1v-2l-1-1v-1h1z"/><path fill="#F7C2A1" d="m109 83 1 3v2l-1 2-4 1 1-1 1-2v-1z"/><path fill="#5D2314" d="M10 82h2v1H8l-4 1-1 3v1l-1 1H1v-4c3-3 5-4 9-3"/><path fill="#956F71" d="M88 59c2 3 2 6 2 10h-1l-1-2h-1v-5z"/><path fill="#19203B" d="m68 15 1 1h4l1 2h-6v-1c-2 0-2 1-3 2l-1-1 1-2h1v-1h-1z"/><path fill="#88271E" d="m135 139 2 1 2 4v3h-1l-1 1v-4h-1v-4z"/><path fill="#561C17" d="M77 135c2 2 2 3 2 5v1l-1 3h-2l-1-2v-5l2 4h1v-1l-1-1z"/><path fill="#1D1B21" d="m40 108 1 1-2 3h-1l-2 4-3 2v-1h1v-1l3-5h1l1-1z"/><path fill="#8A3722" d="M63 106h2l1 1h2l1 3h-1l-4-2h-6l3-1h2z"/><path fill="#47211F" d="M86 69h1a704 704 0 0 1-1 17h-1v-7z"/><path fill="#110507" d="M81 59h1v5l-1 4 1 1-1 8h-1a1069 1069 0 0 1 0-12v-2z"/><path fill="#A43A0E" d="M116 142c4 0 6 1 8 4l1 2h1v1h-2v-1l-1-1-2-2-1-1v-1h-1z"/><path fill="#F9B075" d="m153 124 10 3h2l-2 1h-1l-4-1-2-1h-2z"/><path fill="#A7767A" d="M83 100h5l5 1c-1 2-2 1-4 1h-4z"/><path fill="#7C3F2E" d="M105 88v3c-3 3-6 4-10 5v-1h1c4-1 5-3 7-6l1-1z"/><path fill="#EE9C75" d="M139 74h4v1h-5l1 2h-3l-1-1-3-1h3v-1z"/><path fill="#9F7D7A" d="M114 50h1v2h-1v5l-1 1h3l-3 1h-2l1-4-2 1v-1h1c2-1 2-1 2-3v-1z"/><path fill="#A15557" d="m100 53 2 1 3 1v1h3-9l1-2h-1v-1z"/><path fill="#CA8776" d="M129 50h2l-1 2h1l5 3v1l-7-2v-1l-1-1 2-2z"/><path fill="#551911" d="m78 124 1 2 1 3v1l-2 3z"/><path fill="#CD7644" d="m94 95 5 1v1h2l2 2h-3v1l-4-3-1-1h-1z"/><path fill="#1D263F" d="M47 71h2l-3 5-1 1-1 2c0-2 0-4 2-7h1z"/><path fill="#D1795A" d="m20 58 2 1v1h1l-1 3v-2h-1v13h-1z"/><path fill="#251012" d="m13 123-1 3h-1v1l-1 4-1 1v1H8l-1 2H6c0-3 2-5 4-8l1-1z"/><path fill="#E89973" d="M150 122h7l1 1h6l3 1c-6 0-11 1-17-2"/><path fill="#FCD4A5" d="M92 85h1v6l-1 7-1-3v-8h1z"/><path fill="#6C351B" d="m122 81 1 6-2 2v-3 1l-1 1-1 2-1 1h-1l1-2c2-2 2-4 3-7h1z"/><path fill="#8A7C8B" d="m48 63-1 4v1l-1 1v1l-3 6h-1v-1h1v-2z"/><path fill="#BC7A6C" d="m5 69 3 2v3l-4-1z"/><path fill="#CD9D94" d="m138 24 2 2v2l1 2h3l7 2h-8l-2-1-2-1-1-3z"/><path fill="#4E1613" d="m76 194 5 1-3 1 1 1h1l2 1h4-10z"/><path fill="#F9D4AA" d="M162 92h3v1h-1c-3 0-4 1-7 3l-9 1v-1h5l3-2 2-1z"/><path fill="#5E2714" d="M94 82h1v4l-1 2h1l-2 3h-1z"/><path fill="#5E3537" d="m77 76 1 3v1l1 1-3 4h-1v-2l1-2v-2z"/><path fill="#DCA27A" d="m117 74 2 1c1 2 0 4-1 6h-1l-2 2z"/><path fill="#7B280E" d="M123 61v7l-1 1-1 2 1-8h-1v-2z"/><path fill="#956B6E" d="m106 51 3 2h1v-2h3l-3 4h-3l-1-3z"/><path fill="#625F76" d="M75 4h-1l-2 1-2 1-3 2-2 1V8h1V7c2-2 6-4 9-3"/><path fill="#AE5E45" d="M167 125h3v1l-2 1h-6v-2z"/><path fill="#F3A167" d="M115 117h7l8 1v1h-13z"/><path fill="#E7AF8A" d="M190 97v1h-2v1h-6l-2 1v-2h1l3-1z"/><path fill="#BA8C84" d="M38 52h4l1 2-4 5v-2h-1l1-2h1l1-1 1-1z"/><path fill="#D08264" d="M128 44v3h3l-1 2-5 1z"/><path fill="#282F4B" d="M102 21h2l2 1v4l-3-1v-1h-2z"/><path fill="#1D233E" d="m64 19 6 2v1l1 1h-1l-1-1h-3l-2 1-1-1z"/><path fill="#67231D" d="M105 191v1l-9 2v-1c3-2 5-3 9-2"/><path fill="#997279" d="m115 91 2 1h-1l2 1v3h-3v-1l-4-2 4-1z"/><path fill="#1A171E" d="m25 132-2 3h-1l-1 1-2 2-1 1h-1l-1-1 1-1 5-4z"/><path fill="#914F3C" d="m186 129 2 2-1 1-6-2v-1z"/><path fill="#EFB174" d="M196 78h2v3l-13-1v-1l10 1z"/><path fill="#E2B49B" d="M40 65v1h1v1l2 1-1 1h-1v1h-3v-1h1l-1-1v-1z"/><path fill="#EC8334" d="m112 116 2 1 1 3 1 3-2 1v-1l-1-3z"/><path fill="#B9796E" d="m92 96 3 2-2 3-5-4h3v1z"/><path fill="#EB8A56" d="M6 91h11v2L6 92z"/><path fill="#8C3E1B" d="m101 79 1 4v1l-1 2-3 4 1-1 1-8h1z"/><path fill="#E48C60" d="m31 82 4 1 1 1-3 2-2-1z"/><path fill="#A45E56" d="M112 60h3l3 1-4 3v-3h-2z"/><path fill="#663C42" d="m16 59-1 4-2 1v-1l-2-2c1-2 2-2 5-2"/><path fill="#7C3438" d="m73 48 3 1v2l1 3-1 1-1-3v-1h-1v2h-1z"/><path fill="#9A6472" d="m37 24 1 3h-4l-1 1h-2l1-2h1c1-2 2-2 4-2"/><path fill="#C68E72" d="m111 6 8 5-1 2-3-4h-1l-4-2z"/><path fill="#C26E43" d="m183 152 2 1c-2 2-5 2-7 2h-3c2-2 3-2 5-2h3z"/><path fill="#9C3511" d="M133 139h1v1l-1 1-5 4v3h-2l2-5 1-1 1-2z"/><path fill="#4C0F05" d="M88 141h2l-2 1-1 1h-2l-2 1-1-2z"/><path fill="#74514C" d="m0 90 2 3 3 4H3l-2 1H0z"/><path fill="#7D3023" d="m89 133 1 1-3 3-2 1h-3l3-2 1-1z"/><path fill="#F4AD79" d="m187 128 8 2v3l-1-1-4-2h-2l-1-1z"/><path fill="#362020" d="M20 114h1l-4 4-1 2h-3l-2 1h-1l4-3 4-3z"/><path fill="#753126" d="m88 105 7 7v1l-3-3-3-2-1-1z"/><path fill="#BA8D81" d="m158 96-3 1-1 2h-2l-1 1-1-3 3-1z"/><path fill="#C08069" d="m8 83-4 3v4l4 2H6l-4-3c0-2 0-3 2-5z"/><path fill="#452A24" d="m119 19 1 4v8l-1-4-2 1v-2l1-1h1z"/><path fill="#925041" d="m164 133 5 2-9 3 5-3z"/><path fill="#933E24" d="M110 108h1v1h1v3l1 3-2-1-1-1-1-2-1-1v-2l2 2z"/><path fill="#A16E6B" d="M104 109c2 1 3 2 3 5h-1v1l-3-5z"/><path fill="#75524E" d="m4 103-1 2-1 5H0v-6c2-2 2-2 4-1"/><path fill="#927D88" d="m33 69-2 5-1 1v1l-2-1v-1l2-3 2-1z"/><path fill="#3B1210" d="m118 34 2 1v8l-1-5v1l-3 3 1-1 1-6z"/><path fill="#EC966F" d="M159 31h8l1 3-1-1v-1h-6v2h-6v-1l5 1z"/><path fill="#D37A59" d="M178 117h5l5 1v1h-4v1h-6l1-1h1v-1z"/><path fill="#956E6E" d="M85 77h1c0 8 0 8-2 11h-2l1-1 2-8z"/><path fill="#B16C5D" d="m102 77 6 1v-1h2l-1 3-6-1z"/><path fill="#997E93" d="m41 76 1 1-4 5-1-1 1-2h-1v-2h2l1 1z"/><path fill="#DFB4A2" d="M34 61h1l1 1-2 5-2-1v-2l1-1v-2z"/><path fill="#0A0A0E" d="m46 57 2 1-1 1-1 2-3 2-1-1v-1l2-2 2-1z"/><path fill="#7D2006" d="M135 154h1c0 2 0 4-2 7h-1v1-5l2-1z"/><path fill="#A26051" d="m90 81 1 1v1h1l-2 4v4l-2-1 1-4h1z"/><path fill="#93635F" d="m90 66 1 2h1v3h-3v-1h-1v-3l1 2z"/><path fill="#F1A571" d="m187 52 2 2-1 3-7-1v-1h5v-2z"/><path fill="#7E3D21" d="M48 162h1l1 1 1 1 2 1v2l-4-2-1 1-1-2-1 1-1-3 4 1z"/><path fill="#E2864D" d="m182 135 7 1h2l2 1v1l-11-2z"/><path fill="#DB8A59" d="m176 127 5 1c-5 2-9 2-13 1l-1-1h9z"/><path fill="#8B381A" d="m96 82 1 1v3l-1 2h-2l1-5z"/><path fill="#FBB988" d="M151 52h8l1 1-2 1v-1h-6l-1 1h-1v-1h1z"/><path fill="#362629" d="m113 48 1 1h2v2h-2l-2 3h-1l1-3h-2l1-2 2 1z"/><path fill="#6F6474" d="M98 43v4l-4-1v-2h1v2h1v-3z"/><path fill="#6A3F3B" d="M118 35c1 3 0 4-1 7l-4 2-1-1v-1l2-1v1z"/><path fill="#1B1527" d="M56 24v5h-1v1l-2 7v-6l1-2z"/><path fill="#A88E8D" d="m127 18 5 1-1 1h-2v1h-1l1 2v2l-2-6z"/><path fill="#741904" d="M131 190h1v4l-1 2-1-1 1-2h-1l-1 2h-1z"/><path fill="#6C3621" d="m43 158 1 5v2h-1c-2-2-2-4-1-6z"/><path fill="#C36F51" d="M141 140h11l-6 1h-4v1h-1z"/><path fill="#C47350" d="M172 113a454 454 0 0 1 10 1l-2 1h-2l-2-1h-4z"/><path fill="#6F351F" d="M109 83h1v4l2 1-1 2-1 1-2 3v-1l-1-2 1-1 1-4z"/><path fill="#FAC895" d="M143 86h4v3h-1v3l-1-1v-2h-1z"/><path fill="#AF4417" d="M3 75a2934 2934 0 0 1 9 5h1v1l-4-2-6-3z"/><path fill="#7E3716" d="M119 63v14l-1-4v-8l1-1z"/><path fill="#1F0A0B" d="M71 42h2l-2 1-2 5 1 5h-1v-1h-1v-5c0-2 0-3 2-5z"/><path fill="#814033" d="m133 34 1 4v6l-1 2-1 1v-6l1-4z"/><path fill="#AE787C" d="m41 30 6 1 3 1v1h1v1h-1v-1h-1c-3 0-4 0-6-2z"/><path fill="#261214" d="M114 12h2l1 3v6l-2-6v-1h-1z"/><path fill="#6C201A" d="m111 119 3 1v3l-5-1v-1h-1v-1l4 1z"/><path fill="#803220" d="m100 116 5 2-1 2h-4z"/><path fill="#823526" d="M80 115c2 2 2 3 2 6v2l-1 3-1-4z"/><path fill="#E77C4A" d="M4 74h3l1 1 3 2-1 1-7-3z"/><path fill="#B46F50" d="M124 59h1l-1 13-1-11h1z"/><path fill="#240F0D" d="M14 129h1l-4 8-1-1 1-3 1-1z"/><path fill="#773127" d="M53 127h1l-2 10-1 1z"/><path fill="#6C1E0F" d="M55 126v9l-1-2-2 4v-4l1-1 1-2 1-2z"/><path fill="#C68E7E" d="M162 93h2l-1 1 1 1v1l-5-1c1-2 1-2 3-2"/><path fill="#7E5A5B" d="M85 86v2l-3 3-1-1 1-3 1-1v2h1z"/><path fill="#090811" d="m28 83 1 1 1 1h1l1 3-3 2-1-1z"/><path fill="#E87B3F" d="m9 85 2 2-2-1 1 2c-2-1-4-1-5-3z"/><path fill="#8F4322" d="m112 82 1 1h2l-1 1-1 5-3-2 1-1z"/><path fill="#DB7C52" d="M11 81h2l1 3h-1v1l-3-1H6l6-1z"/><path fill="#CD754F" d="M31 77h1v3h2v2l1 1-4-1z"/><path fill="#A75846" d="m128 42 2 1v2l2 2v2l-1 1v-3h-3v-2l-1 1z"/><path fill="#F9C197" d="m168 41 3 1 1 4h-3v-4h-1z"/><path fill="#61190E" d="m80 161 5 1v1l3 1v1l-9-3z"/><path fill="#DA5C17" d="m109 130 1 1v1h1v1l2 2v1l2 1v1h-3l-1-3-1-1z"/><path fill="#925F55" d="M21 124v1l-2 4-1-1-1 2-2-1z"/><path fill="#DF8C69" d="m145 96 4 3v2l-5-1 1-1-1-1z"/><path fill="#DE8663" d="M23 82h1v1h3l-1 4v-1h-2z"/><path fill="#E67D4E" d="M20 61h2v12l-1-1v-4l-1-1z"/><path fill="#9C8A99" d="M39 33v4h3l1 1h-2l-3 1-1-5z"/><path fill="#E48F51" d="m126 23 2 3v2l-1 2-1-4h-1v1z"/><path fill="#AB5C38" d="m159 142 9 1-4 1h-2l-1-1h-2z"/><path fill="#AA5F46" d="m169 135 1 1c-4 2-9 2-13 3 1-2 2-2 4-2z"/><path fill="#6E1C09" d="m90 124 1 2-2 2h-1v1h-2l1-2h1v-1z"/><path fill="#CB744E" d="M185 122h9l-1 1h-8z"/><path fill="#EE9770" d="M154 105c3 0 4 1 6 3l3 1v1h-4l1-1h-3l1-2h-2l-1-1z"/><path fill="#F2C7AC" d="m111 88 4 3v1l-5-1z"/><path fill="#8A493B" d="M11 76h2l2 5 1 1v1h-1v-1h-2v-2z"/><path fill="#852B0B" d="m98 78 4 1v2h-1v-2c-2 0-2 1-2 3l-1 2v1z"/><path fill="#A35145" d="m95 74 6 3h1v1l2 1v1h-2v-1l-1-1-6-3z"/><path fill="#B04433" d="m96 76 1 1-1 1-1 1-1 2-1-2v-3z"/><path fill="#EDA980" d="m162 66 1 1v3h3l2 2 1 1h-2v-1h-2l-3-2z"/><path fill="#DF9F8C" d="M133 53h2v1h2v1l2 1-1 1-6-2 4 1v-1h-1z"/><path fill="#DFA18D" d="M131 30c2 2 2 6 2 9v5-2l-3-12z"/><path fill="#B37071" d="M144 26v1l2 1-5 1-1-1v-2z"/><path fill="#9F8683" d="m122 14 2 1v1h2c1 2 2 3 1 5z"/><path fill="#420E07" d="m50 135 1 5v10h-1v-5l-1-3z"/><path fill="#B07C77" d="m104 113 1 1 1 1c0 3 2 4 3 6l-2-1-1-1-1-2-1-1-1-1h2z"/><path fill="#AE7272" d="M21 50h9l-1 1v1h-4c-2 0-3 0-4-2"/><path fill="#D17967" d="M146 49h1l1 1h-5v-1h-2v1l-2-1c2-1 5-2 7 0"/><path fill="#F2B893" d="M158 38h4l1 5-3-1v-4z"/><path fill="#2B0C0D" d="M110 34h2v5l-1-1-1 1-2-3h2z"/><path fill="#632816" d="M114 9c3 1 4 3 5 5l1 4-1 1v-2l-1-2-1-1-3-4z"/><path fill="#C89984" d="M18 149v9l-2-4 1-2v-2z"/><path fill="#F88420" d="M128 130c3 0 4 0 5 2l2 3h-1l-2-1v-1l-1-1z"/><path fill="#341D20" d="m22 101 1 1-3 1v1l-3 1-2 1h-2l4-3 1-1z"/><path fill="#F9C3A2" d="M102 80h4v3h-4z"/><path fill="#C27860" d="m27 75 2 1v2h-3l-1-1z"/><path fill="#AD6C6F" d="M72 45h1v2h3v1h-1l-2 2h-1l-1-3v-1z"/><path fill="#917582" d="M50 42h1l-2 5-1 2-2 2v-2l1-2z"/><path fill="#B37874" d="m114 44 1 1 1 2 3-2-3 4h-2z"/><path fill="#B29391" d="M112 44h1v6l-2-1v-3l1 1z"/><path fill="#B47669" d="m120 44 1 1h1v1l1 1-1 1 2 1-5-2-1-1 1-1z"/><path fill="#C27066" d="m167 30 1 2h-1v-1h-3l-2-1h-4v-1c3 0 6-1 9 1"/><path fill="#490D04" d="m83 183 1 1h4v-1h2c-3 3-5 3-9 3l2-1z"/><path fill="#C2775D" d="m43 160 3 4v4l-1-1v-2h-1z"/><path fill="#986154" d="m4 128 3 1-1 5-2-4z"/><path fill="#210D11" d="M74 83h1l-3 7-2 2-1-2h1l2-4h1z"/><path fill="#FBCD9E" d="M160 64c2 0 3 0 4 2l1 3h-2v-1z"/><path fill="#D88D73" d="M165 42h4v4h2-3l-1-4-4 1z"/><path fill="#1D233C" d="m63 11 2 1-1 1 1 2-3 1-1-1z"/><path fill="#774340" d="m54 166 2 1-1 3h-1v5l-1-1v-6z"/><path fill="#242029" d="m14 140 1 1-5 4-1-3h1v-2h1l1 2z"/><path fill="#3B0906" d="M83 137v1l-3 2v1l2-1c0 2-1 2-3 3v-5z"/><path fill="#443438" d="M8 132v1l1 1v3l-1 1-2-2z"/><path fill="#251F2C" d="M6 93h4l2 2v1l-6-2z"/><path fill="#5E3C41" d="M74 85h1c-1 3-1 6-3 8h-3l1-1z"/><path fill="#D6AD8E" d="m121 85 1 2v1l1 1-2 1v1h-3z"/><path fill="#331818" d="M29 76h1l-1 7h-1l-1 3z"/><path fill="#2B0E14" d="M83 71v1h1c1 3 0 5-1 8z"/><path fill="#45120B" d="m101 42 4 1v2l-1-1-1 2-2-1 1-1-1-1-1 1z"/><path fill="#473131" d="M98 39h5l3 1-7 1z"/><path fill="#3C100C" d="m76 181 3 2v2l-2-1v-1h-2z"/><path fill="#912907" d="M133 161h1v1l-3 8h-1z"/><path fill="#674446" d="m5 118 2 2H5v1l-1 2H3l-1-2h1v-1z"/><path fill="#F7B983" d="M175 79h3l-2 2-3-1-5 1v-1z"/><path fill="#A97F84" d="m32 76 3 1 1 2 1 1v1h1l-1 1c-2-1-3-2-3-4h-1l-1-1z"/><path fill="#732411" d="m100 78-2 1-1-1v2l-2 2v-3c2-2 3-2 5-1"/><path fill="#190A08" d="M75 77h1v1l1 3-1 2h-1l-1-2v-2z"/><path fill="#F9B588" d="M138 75h2l-1 2h-8v-1h7z"/><path fill="#A47463" d="m108 70 1 1-1 1h1v2l1-1h1l-2 3v-1l-2-2z"/><path fill="#762E12" d="m116 69 1 1-1 2-1 4-2-1z"/><path fill="#DBA593" d="m19 56 3 1v1h2v2l1 1-3-1v-1l-2-1v-1h-1z"/><path fill="#FAB37F" d="M160 53h1l1 1h4v3l-1 1v-2h-1l-4-2z"/><path fill="#CE837B" d="M32 51h3l-4 2h-5l-1-1 5 1v-1h2z"/><path fill="#977F89" d="M54 26v5l-1 2v1l-1 4c-1-5 1-8 2-12"/><path fill="#222136" d="m75 3 1 1-7 4 1-3h2l2-1z"/><path fill="#401D11" d="M103 4h6l-2 1 2 1-3 1-1-1-1-1h-1z"/><path fill="#6D1A08" d="M127 183v3l1 1-1 2v1l-2 1z"/><path fill="#CC5D1E" d="M133 182h1l1 3v4l-3-1v-2h1z"/><path fill="#6D281A" d="m34 173 1 1 7 4-8-2z"/><path fill="#630E02" d="M131 173h1c0 3 0 4-2 7h-1z"/><path fill="#92504A" d="M135 163h1v4h-1v1h-1v3h-1c0-3 0-5 2-8"/><path fill="#C78B82" d="m105 99 3 1v1h1c1 2 2 3 1 5l-1-1z"/><path fill="#420F08" d="M26 75h1l-2 2-2 6-1-2 1-2v-2z"/><path fill="#A57B7D" d="m25 66 3 1v1h-2l1 6h-1z"/><path fill="#752D0D" d="m125 56 3 5 1 1-1 3-2-4-1-3z"/><path fill="#8D6264" d="M45 50h2l-1 3-2 1v-2h-1z"/><path fill="#633420" d="m124 26 1 5v3l-2 1v-5z"/><path fill="#A895A3" d="M149 22h2v1l3 1 2-1v2h-4v-1h-5v-1h2z"/><path fill="#300C04" d="m120 18 2 5 1 1v1l-3-1z"/><path fill="#A43E1C" d="m131 188 1 2-4 4v-1l1-3 1-2z"/><path fill="#855157" d="M55 168h1v8h-1l-1-6h1z"/><path fill="#EA9162" d="M181 138h1l2 1h3l1 1-10-1z"/><path fill="#752F27" d="M83 120h1c0 3 0 6-2 9l1-6z"/><path fill="#571005" d="M75 114c2 2 3 4 3 7l-1 2z"/><path fill="#200F11" d="m4 103 1 1H4v3l-1 3H2c0-3 0-5 2-7"/><path fill="#CF7238" d="m107 101 2 4v2l1 1v3l-3-8z"/><path fill="#A07778" d="M77 96c3 1 5 1 6 3h-4l-1-1-1-1z"/><path fill="#2A0F0C" d="M21 93v1H11l3-1z"/><path fill="#D18C65" d="m116 77 1 3-1 1h1l-1 2-2 1z"/><path fill="#721D1F" d="M104 67h8l2 1v1h-1l-5-1h-4z"/><path fill="#270D0F" d="m75 58 3 2h-1l1 2v4l-1-5h-1l-1-2z"/><path fill="#2F2328" d="M42 58h2v2l-3 2-1 2h-2l3-4v-1z"/><path fill="#FECE94" d="m189 55 2 4-5-1v-1h3z"/><path fill="#886163" d="M79 56h1v3h-4l-1-2h4z"/><path fill="#A77577" d="m76 55 3 1v1l-3 1-3-3 3 1z"/><path fill="#E38F70" d="M164 51h3v1l1 1v4l-1-2-1-3h-2z"/><path fill="#13080E" d="M88 47v9l-1-2z"/><path fill="#340805" d="M124 39v4l-1 2-1 1-1-2h1v-1l-1-1 2-2h1z"/><path fill="#86625E" d="m106 40 4 1v4h-3v-1h1v-2l-2-1z"/><path fill="#845D5D" d="m106 36 3 2 1 2h1v1l-5-1 1-2-1-1z"/><path fill="#FAA87B" d="M161 32h6l-5 1v2h-5v-1h4z"/><path fill="#835D55" d="m130 26 2 1 1 7-2-4-1-2z"/><path fill="#1D1924" d="M110 23v1l2 2h1-2l-1 3h-1l-1-1 1-3h1z"/><path fill="#08050F" d="M108 15h1v12l-1-4h-1z"/><path fill="#21263E" d="M74 17h2l-3 6-1-3 1-1 1-1z"/><path fill="#611B0F" d="M97 178h2l-1 2-1 1-1-2zm-1 3 1 1-1 1-2 2-2-1z"/><path fill="#783C29" d="m44 169 2 1 1 3-1 1-2-1z"/><path fill="#6A1A07" d="M93 134v1h-1v2h-2v-1l-3 1z"/><path fill="#6F261B" d="M76 128c1 3 2 5 1 8l-2-3z"/><path fill="#CC774C" d="M181 125h2l1 1h-7z"/><path fill="#9E3710" d="M114 122v5l-3-1v-1h-1l1-1h1l1-1h1z"/><path fill="#7C4D4C" d="m11 121-1 1H9l1 3H9l-2-3z"/><path fill="#5D1609" d="M92 95c3 1 5 2 6 4h-2l-4-3z"/><path fill="#843816" d="m105 84 3 2-3 4v-1l-1-1 1-2z"/><path fill="#935939" d="M130 70h1c1 8 1 8-2 12h-1l1-1 1-7z"/><path fill="#FED7A2" d="m188 69 5 2v1h1v1h-1l-3-1z"/><path fill="#B87B6F" d="m129 63 1 1v2l-1-1v5h-1v-3h-2v1-2h2z"/><path fill="#A47777" d="m44 49 1 1-2 2h1v3l-2 1v-1l1-1-1-2v-2l1 1v-1z"/><path fill="#996D71" d="m76 42 1 2v1l-5-2v-1z"/><path fill="#A5757B" d="M149 23h2l-1 1-3 3h-3v-1h2l1-1c0-2 0-2 2-2"/><path fill="#878C9D" d="m90 0 11 1v1L90 1z"/><path fill="#631D11" d="M84 188h7l-1 2h-3l-4-1z"/><path fill="#742C1F" d="m75 140 2 5v2l-2-6z"/><path fill="#1D0E0D" d="m7 136 2 3 1-1h1l-1 4-2-2z"/><path fill="#1C0A0A" d="m20 129 1 2-1 1-2 1-1 1-2 2 2-4 2-2z"/><path fill="#F6A473" d="m167 124 10 2c-4 0-6 0-10-2"/><path fill="#DF8E64" d="m198 122-1 3-4-3z"/><path fill="#B26539" d="m150 122 9 2-1 1-8-2z"/><path fill="#E79966" d="m136 121 8 1-1 1v1l-2-1h-2z"/><path fill="#D79A8F" d="M159 107h9v1z"/><path fill="#BC765C" d="M11 101h2v1h1l2 1h2l-3 1c-2 0-3-1-4-3"/><path fill="#7E4A4B" d="m89 98 3 2-3 1h-1l-1-1h-5l7-1z"/><path fill="#774C4F" d="M78 81h2l-1 2v-1l-1 2-2 2-1 1v-2h1v-2h1z"/><path fill="#EAA98F" d="m176 38 4 2 1 1-4 1z"/><path fill="#431715" d="M112 34v2h1v-1h1c2 2 1 4 1 6l-1-3v-1l-2 1z"/><path fill="#1F1315" d="M119 28h1v5l-1 3z"/><path fill="#090A18" d="M97 20v9l-2-1c-1-3 1-5 2-8"/><path fill="#AA4A21" d="m134 189 1 3-2 3h-1v-5l1 1z"/><path fill="#7A351E" d="m49 164 4 3v1l-4-2z"/><path fill="#E49C75" d="M30 155h1v5h1l1-1v2h-3z"/><path fill="#541611" d="M80 136h4l-1 2h-4z"/><path fill="#3A0A06" d="m51 127 1 2 1-1-2 7-1-5v-2z"/><path fill="#BA7265" d="M146 113h9v1h-11z"/><path fill="#F5925E" d="m152 105 5 2v1l-6-2z"/><path fill="#785558" d="m15 104-4 2-1 1H8l1-2z"/><path fill="#955551" d="m95 98 2 1h2v1h-4v2l-3-1h1l1-2z"/><path fill="#6F2215" d="M67 96v1h-1l-1 1-2 2h-2c2-2 3-4 6-4"/><path fill="#F5C09A" d="M100 83v4l-1 1v1l-3 1z"/><path fill="#1B1822" d="M59 81h1v3l-1 4-1-1v-3l1-2z"/><path fill="#F6B084" d="m125 74 5 1-1 1h-3v1-1h-1z"/><path fill="#2A1E1F" d="m34 65 1 1 1-1 2 1v1l-1 1-3-1z"/><path fill="#AF735C" d="M117 52h2l1 3-1 1-2-2z"/><path fill="#2C120E" d="M98 42h1l1 3 1 2h-2v2l-1-4z"/><path fill="#B57A68" d="M126 28v5l-1 5-1-4h1z"/><path fill="#16090B" d="m19 144 1 4v2h-1l-1-3z"/><path fill="#982E08" d="M137 139h1c2 3 2 5 2 8l-2-3z"/><path fill="#6C2C24" d="M85 139h1c-1 2-2 3-4 3l-1 1h-2z"/><path fill="#9E562F" d="m191 131 4 2h-7l2-1z"/><path fill="#95431D" d="m118 119 1 1 5 1-1 2-5-3z"/><path fill="#D18064" d="M154 120h4l2 1-2 1h-5z"/><path fill="#482016" d="m4 91 1 1 10 1v1L5 93z"/><path fill="#BA9390" d="m95 90 1 1 1 1-5 2 1-2z"/><path fill="#F6CB8C" d="M194 86h5v1h-5z"/><path fill="#F8BA97" d="m120 74 2 1-1 7z"/><path fill="#75413C" d="m8 73 5 2 1-2v3l-6-2z"/><path fill="#592421" d="M113 37h1v3l-2 1v-3z"/><path fill="#ECAC7A" d="m122 15 4 5v1l-3-3-1-1z"/><path fill="#400E07" d="m77 185 3 2h-3l-1-1v1h-1l-1-2z"/><path fill="#DF7A42" d="m132 173 1 4v3l-1-1z"/><path fill="#0F090C" d="m10 134 1 4h-1l-1 2v-4z"/><path fill="#E5824B" d="m108 111 2 2h1l2 3h-1l-1 1-1-2-1-2z"/><path fill="#C98B77" d="M93 102h1l3 2-1 3v-1l-2-2z"/><path fill="#D59575" d="m176 94-1 1h-1v1h-3l1-2z"/><path fill="#0F0F18" d="m37 85 1 1h-1zm-2 1h2v1l-1 1-1 2h-1z"/><path fill="#9C665F" d="m95 73 1 1 2-1 1 1 3 3h-3l-1-1-2-1-1-1z"/><path fill="#D0846B" d="m25 66 1 7v2l-2 1v-1z"/><path fill="#171013" d="M48 63v7l-2 1z"/><path fill="#C39D8F" d="m36 62 2 2-3 3z"/><path fill="#5F3F43" d="M87 53h1c1 7 1 7-1 9z"/><path fill="#B35E58" d="M118 58h1v3l-4-1z"/><path fill="#E6A688" d="m130 49 1 1h-1l-1 2-3-2z"/><path fill="#481A18" d="m119 46 1 1v2l-1 1-2-1 1-2z"/><path fill="#AE96A2" d="M105 44v2h1l1 2h-3z"/><path fill="#A76D6B" d="M134 38c2 2 1 4 1 7h-1z"/><path fill="#967276" d="m104 36 4 2v1h-4z"/><path fill="#1D131A" d="m121 28 1 1v5l-1 1z"/><path fill="#A89AA4" d="M152 15h1v2h-1l2 2-1 1h-1l-1-4z"/><path fill="#C4704C" d="m144 182 5 3 1 1h1l-1 1c-3-1-4-2-6-5"/><path fill="#DC6C2C" d="M131 179h1v9h-2z"/><path fill="#9B3F22" d="M135 173h1l-1 2-1-1v8h-1v-8z"/><path fill="#A05643" d="M33 160v4l-1 1-1-4h2z"/><path fill="#BA592E" d="M139 147h2l-2 6-1-2 1-2z"/><path fill="#93310C" d="m122 145 3 2v1h1v1h-2v-1l-2-1z"/><path fill="#D25816" d="m129 138 1 1v1l-3 6h-1c0-3 1-5 3-8"/><path fill="#D85D1A" d="M115 138h1v1l1 1 4 2v1l-1-1-3-1v-1l-2-1z"/><path fill="#561208" d="M54 122v5l-2 2c0-3 0-5 2-7"/><path fill="#F2822E" d="M116 119c5 2 5 2 6 5l-2-1v-1l-4-1z"/><path fill="#131420" d="M7 110v1H5l-1 1H1l1-2h1l2-1z"/><path fill="#6B4D51" d="M5 105v3h2l-4 1c0-2 0-3 2-4"/><path fill="#A36561" d="M95 100h3v2l-2 1-1-1z"/><path fill="#87301A" d="m80 100 4 2-1 1h-2v-1h-1z"/><path fill="#48140D" d="M70 94h3v1h-8z"/><path fill="#91635A" d="M97 88v1l1 1v2l-2 1v-3l-1-1z"/><path fill="#EAAF92" d="M123 79h1v5l-1 2h-1z"/><path fill="#925A5A" d="m87 77 2 3 1 1v5h-1v-4l-1-2h-1z"/><path fill="#F5D4B9" d="m113 72-1 4-1 1v1h-1v-4z"/><path fill="#331214" d="m106 41 2 1v2h-1l1 3-3-5h1z"/><path fill="#E79F6C" d="m130 26 1 3-1 1h-2v-3z"/><path fill="#272F4F" d="M87 21h3v2l-1 1v-1h-2z"/><path fill="#964E39" d="M142 180h2v1h1l2 1 1 2-4-2-1-1h-1z"/><path fill="#865556" d="M72 160h1l1 3v1l-1 2v1-4h-1z"/><path fill="#6C2010" d="M73 132h2l1 4-2-1-1 1z"/><path fill="#883E24" d="M129 127h3v2l2 1-1 1-2-2h-1l-1-1z"/><path fill="#B46545" d="m194 123 2 1 1 3-3-1z"/><path fill="#D99B81" d="m103 111 2 3v1l-3-1z"/><path fill="#8A4532" d="m99 100 2 3v2l-2-1z"/><path fill="#CE9C8E" d="m146 96 6 1h-2v4l-2-2-1-2z"/><path fill="#ECB58A" d="m192 95 4 1-1 1-3-1-1 2h-1v-2h2z"/><path fill="#EDC183" d="m184 86 2 1h4v1h-5l-3-1z"/><path fill="#8D696A" d="m86 84 1 2v2l-2 1z"/><path fill="#673E40" d="m77 76 1 3v1l1 1-2 1-1-2z"/><path fill="#91350D" d="M116 71v7l-2-1v-2h1v-2z"/><path fill="#E08E72" d="m128 72 2 1v2h-5v-1h2z"/><path fill="#CA7851" d="M117 68h1v6h-1z"/><path fill="#CEBBB3" d="m48 63-1 4v2l-2 1c0-2 1-5 3-7"/><path fill="#5B2F29" d="M123 57v3h-3 1v-2z"/><path fill="#FBAE79" d="M149 51h4l2 1h-4v1h-2z"/><path fill="#F5A176" d="M134 48v3h-3v-1z"/><path fill="#775767" d="M48 43h2l-3 5-2-2 1-1v1l2-1z"/><path fill="#784744" d="M119 37h1l-1 6h-1v-2h-1l1-1z"/><path fill="#151A2F" d="M73 20v2l1 1h-2v1l-1 1c0-3 0-3 2-5"/><path fill="#A497A8" d="m127 15 1 1v1h1l1 1 1 1-5-1v-2h1z"/><path fill="#4E1A13" d="M76 183h1v1l3 1v1c-2 0-3 0-4-2z"/><path fill="#551004" d="M113 181h1v1l-2 2h-1l-1 1-1-1 3-2z"/><path fill="#653931" d="m28 168 2 2 1-2h1l-2 4-2-2z"/><path fill="#440D09" d="m77 154-1 3h-1v-2h-4z"/><path fill="#661606" d="m69 141 2 2 1 2 1 1h-2l-1-2-1-1z"/><path fill="#E5823F" d="m121 122 3 2 2 1 2 2-5-2v-1l-2-1z"/><path fill="#661606" d="M82 116h1v5l-1 1z"/><path fill="#9A7171" d="m108 114 3 4-1 1-2-2z"/><path fill="#B08A7F" d="m120 91-2 1v1h1l1 2-2-1-1-1-1-1c1-1 2-2 4-1"/><path fill="#B38178" d="M95 93h5l-4 2h-2z"/><path fill="#FBC39E" d="m118 77-1 5-2 1 2-5h1z"/><path fill="#8A3E46" d="M71 46v6c-2-2-1-3-1-6z"/><path fill="#E2B193" d="M171 42h1v2h1v3l-3-1h2z"/><path fill="#1C0304" d="M91 40v2h5l-2 2-3-1z"/><path fill="#A1838C" d="M148 34h1l1 2h-2l-4 1c1-2 1-3 4-3"/><path fill="#272D45" d="M97 21h3l-1 3h-2z"/><path fill="#1C223A" d="M96 19h1l-2 6v-4l1-1z"/><path fill="#141A2D" d="m84 17 1 1-1 2h-1l-3 1 1-3 2 1z"/><path fill="#DA7F55" d="M140 150h1l1 4-3-1z"/><path fill="#3D0A08" d="M83 143v2h-3v-2z"/><path fill="#CF774C" d="M188 141h3l-1 3h-2l1-2z"/><path fill="#945148" d="m181 129 5 1v1l-5-1z"/><path fill="#8C5052" d="m108 118 3 1 1 2h-3z"/><path fill="#E96B14" d="m106 105 3 2-1 2-2-3-1-1z"/><path fill="#EA8C58" d="M13 101h5v2h-3z"/><path fill="#735956" d="m6 98-6 3v-2z"/><path fill="#6F301B" d="M94 82h1l-1 5-1-1z"/><path fill="#764D4E" d="m84 82 1 1-2 3-2 1z"/><path fill="#F5BF81" d="M196 78h2v3h-4 3v-1h-1z"/><path fill="#7C2D10" d="m122 74 1 8h-2z"/><path fill="#785152" d="M78 73h1v7h-1z"/><path fill="#412224" d="m77 74 1 1v2l-1 2h-1z"/><path fill="#9F7077" d="M78 49v1h2l-2 4-1-1v-4z"/><path fill="#12182F" d="M61 20h1l-3 5-1-1 2-3h1z"/><path fill="#C49692" d="M129 20h3v2h-3z"/><path fill="#27304E" d="m81 19 2 1-1 2h-3z"/><path fill="#857171" d="m111 5 5 1v3l-5-3z"/><path fill="#976C5F" d="m110 5 1 1v1l-2 1-1 1V8h-1V6z"/><path fill="#481F12" d="M32 155h1v1h3v1l-1 1-2 1z"/><path fill="#651405" d="m76 150-5 1h-3l4-1 1-1z"/><path fill="#D6601D" d="M114 124h1v3l-5 1v-2h3l1 1z"/><path fill="#09060F" d="M35 117h2l-2 3-1 1-2 1 1-3 1-1z"/><path fill="#2D212D" d="m5 108 2 1-6 2-1-1h3v-1z"/><path fill="#CE734E" d="m144 99 4 1-3 2z"/><path fill="#D3886B" d="m8 83-4 3-1 1 1-3c1-1 2-2 4-1"/><path fill="#F8CA89" d="m180 78 5 1-2 1h-4l2-1z"/><path fill="#F3A97A" d="m176 54 5 1h-1l-1 1v-1a165 165 0 0 0-3 0h-1l-1 1v-1h2z"/><path fill="#62221B" d="M118 43h1v1l2-1h1v1h-1v2l-2-1z"/><path fill="#341C1E" d="m110 35-2 1 1 1-4-1v-1z"/><path fill="#CDA69C" d="M152 33h1v1l2 1 1 2-3-1v-1l-1-1z"/><path fill="#ED995E" d="m126 20-1 1v1h-1l-1 1-1-3z"/><path fill="#581A0F" d="m76 194 5 1-3 1 1 1h-2z"/><path fill="#681908" d="M105 191v1l-5 1v-1z"/><path fill="#B16354" d="M53 178h1v4l-3-1v-1h1z"/><path fill="#D67B4B" d="M148 153h3l-1 2h-3z"/><path fill="#A77B72" d="m11 136 2 1-3 3z"/><path fill="#F6A36E" d="M168 134h3l2 2z"/><path fill="#8B4732" d="m138 122 5 2h-5z"/><path fill="#883220" d="M105 120h3v1h1v2l-3-1v-2z"/><path fill="#CB6522" d="m113 115 5 4-1 1v-1h-3v-1z"/><path fill="#CE8878" d="M149 101h1v1h3v2l2 1-3-1-1-1z"/><path fill="#6E2112" d="m68 95 2 1-3 3h-1l2-2-1-1z"/><path fill="#ECA986" d="M175 94h1v1l2 1h-1v2z"/><path fill="#8E7776" d="M76 86h2l-2 4h-2l1-1z"/><path fill="#805350" d="m22 83 2 3-1 3h-1z"/><path fill="#8A6366" d="M85 77h1v6h-2z"/><path fill="#6E6370" d="m41 76 1 1-4 5-1-1z"/><path fill="#C37B66" d="M21 78h2l-1 3-1 1z"/><path fill="#976D6A" d="M94 70h1v2h2v2l-3-1-1-2z"/><path fill="#E8A992" d="m131 64 2 2v-1h1l-1 2h-3l-1-2h1z"/><path fill="#FABD82" d="M168 59a204 204 0 0 1 4 0h1v1l-2 1v-1l-1 1-1-1h-1z"/><path fill="#442224" d="M78 59h2v1h-1v2h-1v2z"/><path fill="#A97B60" d="M126 52h1l1 7-2-2z"/><path fill="#C6A7A7" d="m45 53 1 1-1 2-1 1-2-1z"/><path fill="#1A0708" d="m119 48 4 1-2 3z"/><path fill="#9D7674" d="M112 43v4h-4l1-1 1-1z"/><path fill="#593A3E" d="M95 36h1l-1 2-3 2z"/><path fill="#682E16" d="M130 30c2 3 1 5 1 9h-1z"/><path fill="#1A1B2B" d="m114 23 3 2-2 2-1-2z"/><path fill="#233055" d="M91 22h3l-1 2h-2z"/><path fill="#BE7A54" d="M121 19h1l1 2v5-2h-1z"/><path fill="#664036" d="M116 14c2 2 2 3 2 5l-1 2z"/><path fill="#9C7F7C" d="M109 3h1l1 3-5-1V4h3z"/><path fill="#681D0B" d="M126 194h1l-1 2-2 2-1-1v-1h1l1-1z"/><path fill="#8B4532" d="m44 178 4 3-1 2-3-4z"/><path fill="#AB624B" d="m46 172 3 4v2c-2-2-3-3-3-5z"/><path fill="#8E351F" d="m135 139 2 1v3h-1v-3z"/><path fill="#4B0A01" d="m75 137 2 4-1 2v-2l-1-1z"/><path fill="#410E0A" d="M79 129h1l-1 7h-1l1-4z"/><path fill="#F7AE78" d="M172 130h4l3 1h-4z"/><path fill="#78342A" d="m85 127 1 2h-1v1l-3 3 2-5h1z"/><path fill="#7F625D" d="m25 121-2 4h-1l1-3z"/><path fill="#0E070B" d="M20 115h1l-1 1-2 3h-1c0-2 1-3 3-4"/><path fill="#DA987A" d="m97 104 3 1v1l-3-1v2h-1v-2z"/><path fill="#A4797F" d="M108 94v2l-2 1h-2l1-2h2z"/><path fill="#251210" d="m4 94 1 1v2H2l-1-1h3z"/><path fill="#12070C" d="m68 90 2 1-3 3h-1z"/><path fill="#EFBD9E" d="M101 86h1v4h-2z"/><path fill="#DA8E6F" d="M31 82h2v1h-1c0 2 0 2 2 3h-2z"/><path fill="#16161F" d="M47 81h1l-3 3h-1l1-1v-2z"/><path fill="#F2885B" d="m8 79 3 1 1 2h-1l-3-1z"/><path fill="#A66F4A" d="M124 77h1v5l-2 3v-5z"/><path fill="#923F20" d="M122 75h1v5h-1z"/><path fill="#943E37" d="M109 71h4v1l-4 2z"/><path fill="#28171B" d="M33 68h2l-2 2-2 1c0-2 1-2 2-3"/><path fill="#E5A490" d="m25 61 1 1v4h-1z"/><path fill="#A67E7F" d="m112 61 2 1v3h-3l2-1v-1h-1z"/><path fill="#916C6D" d="m90 59 1 3 2 1-2 1h-1z"/><path fill="#C6AFAB" d="m49 57 1 1-2 3v1l-1 1v-4z"/><path fill="#CAA992" d="M124 49h1l1 3h-4l1-1z"/><path fill="#EE9973" d="m158 51 4 2a86 86 0 0 1-7-1z"/><path fill="#EE996F" d="M148 50h5v1h-4v1h-3v-1h2z"/><path fill="#230B0C" d="m99 34 1 1-5 3h-1z"/><path fill="#CC6E64" d="m170 33 5 1 1 1h-3v-1h-3z"/><path fill="#232F50" d="M76 20h3l-1 2-3-1z"/><path fill="#651E18" d="M130 193h1l-1 3-2-1z"/><path fill="#F47D1E" d="m132 182 1 1v3h-1v1h-1z"/><path fill="#6E2616" d="M96 180h1l-2 3-2-1z"/><path fill="#512A1E" d="M32 169v1h1l1 3-3-1z"/><path fill="#5A2818" d="m39 164 1 1-1 3h-1l-1-3z"/><path fill="#A76B56" d="M48 162h1l1 1 1 1 2 1v2l-5-4z"/><path fill="#F3A565" d="M154 156h4-3v2h-2z"/><path fill="#CB703E" d="M138 152h1l-1 4h-1v-2z"/><path fill="#5C1407" d="m82 148 3 1v1l2 1-1 1-3-2z"/><path fill="#E56F2E" d="m126 142 1 4v1l-1 1h-1v-2h1z"/><path fill="#1A0807" d="M14 129h1l-2 4h-1l1-3z"/><path fill="#C16D45" d="M185 126h3v1h-5z"/><path fill="#85432D" d="m126 122 1 1h-1l1 3-4-3h3z"/><path fill="#725853" d="m23 112-4 3-1-2 2-1z"/><path fill="#15111D" d="m17 104 1 1-2 2h-2v-1z"/><path fill="#654E4F" d="M3 103h1l-2 4H1v-3z"/><path fill="#985E5E" d="M88 95c2 2 1 2 1 4h-2l1-1v-1l-1-1z"/><path fill="#1E1D28" d="M43 85h1l-1 1c-2 0-2 0-2 2l-3 1z"/><path fill="#F0B985" d="M171 83h5l1 1h-7z"/><path fill="#99594A" d="m90 81 1 1v1h1l-1 3-1-1z"/><path fill="#DC7D53" d="m25 81 2 1v1h-3v-2z"/><path fill="#833E22" d="M110 78v5l-1-1 1-3z"/><path fill="#917B88" d="m35 70 1 1h1v1h-1l-1 1-1-1z"/><path fill="#110707" d="m34 67 3 1-3 3 1-3h-1z"/><path fill="#795553" d="m90 66 1 2h1v2h-2z"/><path fill="#874634" d="M127 46v2l-1 2v1h-1v-4z"/><path fill="#E1947A" d="M128 44v3l-1 2h-2z"/><path fill="#440F08" d="M125 46v3l-3-1z"/><path fill="#8C4E34" d="m103 44 2 1-2 3-2-1h2z"/><path fill="#978191" d="m45 40 1 1v1h3v2l-4-1z"/><path fill="#1C090A" d="M109 27v2h1v4h-1z"/><path fill="#634E4E" d="m100 2 6 1h-1v1l-5-1z"/><path fill="#640D03" d="M130 191h2l-3 4h-1z"/><path fill="#2F0809" d="m76 189 1 2v2h-1l-1-3z"/><path fill="#CFA289" d="M18 145v1c0 2-1 2-2 3h-1l-1 1 2-3 1-1z"/><path fill="#661A0A" d="m88 146 2 1v1h-4v-1h2z"/><path fill="#C06E42" d="m172 144-1 1-4-1z"/><path fill="#8C4837" d="m142 136-1 3h-1v1l-1-3z"/><path fill="#4A110E" d="M81 128h2v3h-2z"/><path fill="#F2872A" d="M129 127v3l-1-1 1-1h-4l-1-1z"/><path fill="#682318" d="m76 120 1 1 1 2v3l-2-3z"/><path fill="#D37E5A" d="m176 113 6 1-2 1z"/><path fill="#30212B" d="m12 106 1 1-5 1v-1z"/><path fill="#A76A53" d="M0 90c2 2 2 3 2 5H0z"/><path fill="#AA6052" d="m102 77 4 1v2h-2v-1h-1z"/><path fill="#14172D" d="M45 71h1l-2 5h-1z"/><path fill="#E07241" d="m4 74 3 1v2l-4-2z"/><path fill="#9D484D" d="m113 66-1 2h-4c1-2 3-3 5-2"/><path fill="#88382F" d="M114 60h4v2h-2v-1h-3z"/><path fill="#D7A297" d="m40 53 1 2-3 1-3-1h2z"/><path fill="#4E1F1A" d="M121 49h3v2l-2 1z"/><path fill="#230F0D" d="m113 48 1 1h2v2h-3z"/><path fill="#9A5A46" d="M99 43h3v1l-2 2h-1z"/><path fill="#160C0F" d="m95 32 2 2-1 2-1-1h-1z"/><path fill="#2E181A" d="M110 32h2v2l-3 1z"/><path fill="#10152B" d="m64 18 1 1-1 2-1 1-2 2z"/><path fill="#080811" d="m89 13-1 4-1 1v1l-1-2 1-2h1z"/><path fill="#977765" d="m122 14 2 1v1h1v2z"/><path fill="#14090A" d="m109 8 2 2v2l-2-1z"/><path fill="#6E1E0B" d="M120 194v2l-2 1h-1z"/><path fill="#611A0F" d="m106 158 1 1-1 1h-1l-2 1z"/><path fill="#471C18" d="M50 133h1v2h-1v3h-1z"/><path fill="#7D2E21" d="m85 125 2 1-1 2h-2z"/><path fill="#19141C" d="m28 121 1 1-1 2h-2v-2h1z"/><path fill="#AD674B" d="M143 118v2l-5-1v-1z"/><path fill="#895445" d="m11 101 1 1v1h2-4z"/><path fill="#C76E45" d="M143 96h2v1l1 1h-1l2 1h-3z"/><path fill="#B48B83" d="m109 91 5 1v1l-5-1z"/><path fill="#F28753" d="m18 86 2 1v2h-1z"/><path fill="#E9B286" d="m142 85-1 1h-2l-2-1h-1z"/><path fill="#FDD0A1" d="m151 81 2 1 1 1 1 1-4-1z"/><path fill="#E78055" d="M100 79h1l-1 3h-1z"/><path fill="#DD7E5A" d="M12 77h1l1 2-1 1-2-1h1z"/><path fill="#783D25" d="m113 73 1 2-1 1-1 1h-1z"/><path fill="#BE5965" d="m107 68 3 1 1 1-2 1z"/><path fill="#120807" d="m41 64-2 2h-1v-2z"/><path fill="#15070C" d="m70 54 3 2h-1l-1 2-1-1z"/><path fill="#855658" d="m72 54 3 2h-1l1 1c-2 0-2-1-3-2z"/><path fill="#A27A75" d="m114 44 1 1v1l1 3h-2z"/><path fill="#61161B" d="m74 43 1 2-3-1-1 3v-2c1-2 1-2 3-2"/><path fill="#1C2034" d="m103 20 2 1h2l-1 2v-1h-1v1h-1z"/><path fill="#1C1D30" d="m64 20 4 1-2 1-2 1-1-1z"/><path fill="#613125" d="M114 9c2 0 2 1 3 3v1c-3-2-3-2-3-4"/><path fill="#8794A9" d="M110 3h1l2 2 1 1-3-1z"/><path fill="#161012" d="M90 2v1h-4V2z"/><path fill="#5C1A11" d="m105 179 1 2-1 2h-1l-1 1v-1l1-2 1-1z"/><path fill="#751E0A" d="m132 169 1 4-1 2-1-2z"/><path fill="#8F4B2B" d="m164 133 5 2-1 1v-1h-1z"/><path fill="#BA6752" d="M193 124h1v2h-2z"/><path fill="#290E0A" d="m5 121 2 1v1H6l-3 1z"/><path fill="#E08959" d="M119 119h3l1 2h-3z"/><path fill="#DE885D" d="m164 110 1 1h-4l-1-1z"/><path fill="#D66F34" d="m107 108 2 1v3l-2-1-1-1z"/><path fill="#762F26" d="m83 100 2 1 1 1v2l-3-3z"/><path fill="#BE662D" d="m103 99 3 1 1 1-1 1v-1l-1-1h-2z"/><path fill="#F5C2A2" d="M91 93c2 2 2 3 1 5l-1-2z"/><path fill="#C2856B" d="m20 87 2 3v2h-2z"/><path fill="#F6CFA3" d="m115 88 2 1-1 2-2-2z"/><path fill="#1C1821" d="M36 87v2h2l-1 1h-2v-2z"/><path fill="#EC8C5B" d="m6 86 1 1-1 3z"/><path fill="#101726" d="M38 83h1l-1 2h-1v1h-1v-1h1v-1h1z"/><path fill="#A13B17" d="m9 78 1 1 3 1v1c-2 0-3-1-4-3"/><path fill="#D97F66" d="m20 75 3 1 1 2-3-1z"/><path fill="#BB5733" d="m4 72 4 1v1l-4-1z"/><path fill="#EA895F" d="m21 70 1 2h1v1h-1v2h-1z"/><path fill="#D8AB9E" d="M43 65h3l-1 3-1-1h1v-1h-2z"/><path fill="#A97878" d="M113 57v1h3l-3 1h-2z"/><path fill="#D0A9A7" d="M115 50v1h1l1 3h-2z"/><path fill="#D07469" d="M152 48h3v2l-3-1z"/><path fill="#C97F78" d="M15 47h3l-4 2z"/><path fill="#DF9052" d="m101 45 2 1v1h-3z"/><path fill="#8A4741" d="M117 43h2l-1 3-1 1z"/><path fill="#A46F6C" d="M132 38v4l-1 1-1-3h1z"/><path fill="#0F0E15" d="m81 32 1 1-1 3h-1l-1-1 1-2h1z"/><path fill="#C58585" d="M29 29h3l-2 2h-2z"/><path fill="#BD9193" d="m152 17 5 3h-3v-1l-2-1z"/><path fill="#090913" d="M99 14h1l-2 5c-1-2 0-3 1-5"/><path fill="#8A92AA" d="M105 1v2h-4c1-2 3-2 4-2"/><path fill="#74281D" d="M82 177h1v3h-1z"/><path fill="#B67D62" d="m30 152 2 4h-2z"/><path fill="#862F14" d="M137 142h1v6h-1v-4h-1z"/><path fill="#883E20" d="m135 133 4 2-1 1z"/><path fill="#601304" d="M89 127v1h-1v1h-2c1-2 1-2 3-2"/><path fill="#703C19" d="M100 86h1l-3 4z"/><path fill="#9D5D5B" d="m108 70 1 1-1 1h1v2l-2-1z"/><path fill="#DD7148" d="M4 70h2v3l-2-1z"/><path fill="#BB7D84" d="M126 67h2v3h-1z"/><path fill="#DD9277" d="m161 65 1 1v3l-2-1v-2z"/><path fill="#CAA79D" d="M44 62v2h-1v1l-2 1c0-2 0-2 2-3z"/><path fill="#69301C" d="m125 56 2 4h-1z"/><path fill="#201822" d="m44 56 1 1v2h-2z"/><path fill="#FDC48E" d="m179 55-1 2-2-1v-1z"/><path fill="#F49264" d="m187 52 1 1-1 3h-1v-3z"/><path fill="#976B78" d="m40 48 3 1v2l-3-1z"/><path fill="#232B48" d="M49 46h2l-1 3h-1z"/><path fill="#946870" d="M17 45h2v1h1v1l-4-1z"/><path fill="#451D1C" d="m125 36 1 3-1 1-2-1z"/><path fill="#1D2035" d="m101 24 3 1v2-1l-3-1z"/><path fill="#27355A" d="M110 23h3v1h-3z"/><path fill="#8F7670" d="M116 9h3l1 3h-1v-1l-1-1z"/><path fill="#A77A68" d="m99 2 1 1h1-2v1h-2V2z"/><path fill="#E7A487" d="m74 185 1 3h-1v2z"/><path fill="#935243" d="m34 166 1 4-2 1z"/><path fill="#763D2C" d="M53 160v5h-2v-4z"/><path fill="#6F2415" d="M56 148v3l-2-1v-1h1z"/><path fill="#491415" d="M78 141v3h-2z"/><path fill="#A9695B" d="m14 131 2 1v2h-2z"/><path fill="#84311F" d="M90 126h1v2h-2z"/><path fill="#8C4E45" d="M126 123h3l-1 1v2l-2-1z"/><path fill="#D67F58" d="M193 120h4l1 1h-5z"/><path fill="#88301E" d="m96 113 1 1 2 2h-3z"/><path fill="#86311D" d="m70 110 4 4-2-1v-1h-2z"/><path fill="#865D4F" d="m94 90 1 1-3 2v-2z"/><path fill="#202535" d="M33 87h1c-1 2-1 2-3 2h-1c1-2 1-2 3-2"/><path fill="#2E0905" d="M3 84h1l-1 3-1-3z"/><path fill="#1D121B" d="M39 80v2h-1l-1 2h-1z"/><path fill="#93340D" d="m99 80-1 5-1-4z"/><path fill="#16172A" d="M41 80h2l-3 3-1-1h1v-1h1z"/><path fill="#6F1707" d="m100 78-5 1 1-1z"/><path fill="#3B0903" d="M26 75h1l-3 4v-2z"/><path fill="#E3774E" d="M23 72h1v4l-2-1v-2h1z"/><path fill="#C97B65" d="M121 71h1v4l-2-1z"/><path fill="#8E7885" d="M29 69h2l-2 3z"/><path fill="#230808" d="M79 66h1c0 2 0 3-2 4z"/><path fill="#23060B" d="M80 58v6h-1v-4h1z"/><path fill="#040405" d="m46 57 2 1-1 1-1 2h-1z"/><path fill="#D4AFAC" d="m41 56 2 1-1 2h-1z"/><path fill="#513435" d="m78 46 2 1v3l-1-2h-1z"/><path fill="#72514A" d="m121 46 2 1-1 1 2 1-4-1z"/><path fill="#65333B" d="M94 44h1v2l2-1 1 2-3-1z"/><path fill="#814A49" d="M109 42h1v3h-3v-1h1z"/><path fill="#D27D60" d="M127 41h1v4l-1 1z"/><path fill="#1B2946" d="M52 40h1v3h-1l-1 1z"/><path fill="#B87C7F" d="M34 29v2h-4z"/><path fill="#A7858E" d="m140 24 6 1v1h-6z"/><path fill="#917784" d="M147 23h4l-1 1-3 2z"/><path fill="#181B2C" d="M77 16h1v1l2 1v1h-3z"/><path fill="#180E11" d="m99 6-1 1h-1v1h-1V7z"/><path fill="#2A1209" d="M105 5h4l-2 2-2-1z"/><path fill="#272E3E" d="M79 3v1l-3-1z"/><path fill="#7E91B1" d="m108 0 4 1-3 1v1-2h-1z"/></g><defs><clipPath id="a"><path fill="#fff" d="M0 0h200v201H0z"/></clipPath></defs></svg>