<svg xmlns="http://www.w3.org/2000/svg" width="250" height="250" fill="none"><g clip-path="url(#a)"><mask id="b" width="250" height="250" x="0" y="0" maskUnits="userSpaceOnUse" style="mask-type:luminance"><path fill="#fff" d="M250 0H0v250h250z"/></mask><g mask="url(#b)"><path fill="#000" d="M125 250a125 125 0 1 0 0-250 125 125 0 0 0 0 250"/><path fill="#fff" d="m193.6 70.9-39.3-22.3-18-10.1h-.1a16.3 16.3 0 0 0-2.8-1.3 22.4 22.4 0 0 0-8.4-1.5h-.7c-.9 0-1.7 0-2.6.2h-1.2v.1c-2.8.4-5.5 1.2-7.7 2.4L96 48.1 56.3 70.9a25.7 25.7 0 0 0-11.7 20v65.6c0 7.4 5.3 16.4 11.7 20.1l56.5 32.4c3.3 2 7.7 2.8 12 2.8h.8c.9 0 1.7 0 2.6-.2h1.2v-.1c2.8-.4 5.5-1.2 7.7-2.5l16.8-9.6 39.7-22.8a25.7 25.7 0 0 0 11.6-20V91c0-7.4-5.2-16.4-11.6-20.1"/><path fill="#01B4E2" d="m82.5 88.7-1.4 3.1a32 32 0 0 1 1.4-3.2"/><path fill="#000" d="M105.1 151.8c-1.3-.2-7.6-1.2-13-4.1-6-3.3-11.6-10-13-17.1v19.8a31 31 0 0 0 5.2 18.3c3.5 5 7.8 7.5 13 7.5h28.2l22.7-24.4h-43Zm64.5 29.9c.4-6.3-3.8-13-10-15.8l-1.8 2c-1.7 2-1.9 3.5-.6 5.9l2.5 4.2c.7 1.4 1.1 3 .6 4.5a10 10 0 0 1-1.7 3.1l-16 18.6c-2.6 3.1-4.9 3.7-8.7 2.3l-3.6-1.5c-1.6-.5-3.2-.8-4.5.4-1 1-1.9 2.2-2.9 3.4l2 2.1 1 1 2.3-.2h.7l.6-.1c2.7-.5 5.4-1.2 7.6-2.5l16.8-9.7 9.3-5.3 2.5-3c2.4-2.6 3.8-5.7 4-9.3m12.4-31.3-3.6-1.4c-1.6-.5-3.2-.8-4.5.4l-3 3.3 2 2.2c6.6 6.6 17.2 8 24.4-.5l7.9-9.2v-13.9l-14.4 17c-2.6 3-5 3.6-8.7 2.1"/><path fill="#000" d="M123.5 203.2a5.9 5.9 0 0 1 5.8-1.8l2.3.7c1.5.6 3 1.2 4.6 1.6 1.3.4 2.5 0 3.4-.9 1-.9 1.8-2 2.7-3a19.8 19.8 0 0 0-4.5-4.4c-6-4.4-13.4-4.3-19-.1l-10.1 11.4 4.1 2.4c1.3.7 2.7 1.2 4.2 1.6l2.7-3.1c1.2-1.5 2.4-3 3.8-4.4m61.2-65.2a15.3 15.3 0 0 0-15-.6l-24.7 28c-1.5 3.5-1.6 7.2-.1 11 1.6 4.5 4.8 7.7 9 9.9 1-1 1.8-2 2.6-3.1.7-1 .9-2.2.4-3.3l-1.5-3-1.3-2.1c-1.7-3.2-1.5-5.6.9-8.4l12.3-14.4 3.7-4.4a10 10 0 0 1 1.9-1.7c1.9-1.2 4-1.3 6-.5l4.3 1.7c1.8.6 3.6.7 5-.9l2.4-2.7a17 17 0 0 0-6-5.4m-44 34.5v-2L124 189.2q5.1-1.05 10.2.6l.8-.4 7.4-8.6c.4-.4.4-.8.1-1.3a17.8 17.8 0 0 1-2-7m48.3-55.8v-1.1l-15.5 17.6c3.1-.5 6.2-.2 9.2.8l.8-.4 7.3-8.6c.5-.4.5-.8.2-1.3a17.8 17.8 0 0 1-2-7M171 172.6c1.1 2.2 1.8 4.7 2 7.2v2.8l17.1-20c-3.8.9-7.3.8-10.8-.4-.2 0-.7.2-.9.4l-7.2 8.4c-.5.5-.6 1-.2 1.6"/><path fill="#01B4E2" d="M205.3 126v-1.5z"/><path fill="#000" d="m203.6 121-1.2-2.2c-1.8-3.2-1.6-5.6.8-8.3l2-2.5V96.8l-12.6 14.4c-.9 3-.8 6 .5 9.4 1.6 4.4 4.8 7.6 9 9.8.9-1.1 1.8-2 2.6-3.2.3-.3.4-.7.5-1.2v-1.5l-.1-.5z"/><path fill="#fff" d="M79.3 99.3c-.1 1.5-.3 3.1-.3 4.7v26.5V104c0-1.6.2-3.1.3-4.6"/><path fill="#01B4E2" d="M179 78.2h.4l-20.8 24.4h-44c-1.3 0-2.3.1-3.2.3-1 .2-1.8.5-2.5.8a6.2 6.2 0 0 0-2.4 2.3l-.2.3c-.4.7-.7 1.5-.9 2.5-.2.9-.3 2-.3 3v40c-1.3-.2-7.6-1.1-13-4-6-3.3-11.6-10-13-17.2V104A39.6 39.6 0 0 1 81 92a28.1 28.1 0 0 1 4.6-8l3-2.8q3.75-3 8.7-3l81.6.1Z"/></g></g><defs><clipPath id="a"><path fill="#fff" d="M0 0h250v250H0z"/></clipPath></defs></svg>