<svg width="28" height="28" viewBox="0 0 28 28" fill="none" xmlns="http://www.w3.org/2000/svg">
<g clip-path="url(#clip0_34_113)">
<circle cx="14" cy="14" r="14" fill="black"/>
<path d="M21.679 7.93792L17.2843 5.44564L15.257 4.31223L15.249 4.30619C15.1664 4.25788 15.0758 4.21762 14.9812 4.18138C14.9671 4.17534 14.951 4.1693 14.9369 4.16527C14.79 4.11092 14.647 4.06462 14.484 4.03643C14.3189 4.01227 14.1639 3.99818 13.9948 4.00019C13.9787 4.00019 13.9646 4.00019 13.9485 4.00019C13.9384 4.00019 13.9304 4.00019 13.9203 4.00019C13.8257 4.00019 13.729 4.00623 13.6344 4.0163C13.6062 4.01831 13.5801 4.02234 13.5519 4.02435C13.5318 4.02637 13.5116 4.02838 13.4915 4.03039C13.4935 4.03039 13.4955 4.03039 13.4975 4.0324C13.1815 4.07669 12.8815 4.16527 12.6359 4.30619L10.7536 5.38726L6.30654 7.93994C5.58784 8.35263 5 9.36525 5 10.1906V17.5286C5 18.354 5.58784 19.3666 6.30654 19.7793L12.6339 23.411C13.0023 23.6224 13.4915 23.7251 13.9787 23.719C13.9988 23.719 14.0189 23.719 14.0391 23.719C14.0491 23.719 14.0572 23.719 14.0673 23.719C14.1639 23.719 14.2585 23.713 14.3531 23.7029C14.3813 23.7009 14.4075 23.6969 14.4357 23.6949C14.4558 23.6929 14.4759 23.6909 14.4961 23.6889C14.494 23.6889 14.492 23.6889 14.49 23.6868C14.8061 23.6425 15.106 23.554 15.3516 23.4131L17.2339 22.332L21.681 19.7793C22.3997 19.3666 22.9875 18.354 22.9875 17.5286V10.1906C22.9875 9.36525 22.3997 8.35263 21.681 7.93994" fill="white"/>
<path d="M9.24183 9.92883C9.18143 10.0436 9.12708 10.1624 9.08279 10.2852C8.98616 10.5428 8.92173 10.8227 8.8855 11.1186V11.1206C8.92173 10.8227 8.98616 10.5428 9.0848 10.2832C9.1311 10.1603 9.18345 10.0416 9.24384 9.92682" fill="#01B4E2"/>
<path d="M11.7723 17.0052V16.9991C11.6214 16.979 10.9147 16.8723 10.3048 16.5401C9.63437 16.1757 9.01231 15.4248 8.85327 14.6276V16.8501C8.85327 17.6514 9.04855 18.3338 9.44111 18.8935C9.83166 19.4552 10.3168 19.735 10.8926 19.735H14.0512L16.5979 17.0031H11.7744L11.7723 17.0052Z" fill="black"/>
<path d="M18.9993 20.3549C19.0376 19.6403 18.5645 18.8914 17.87 18.5753C17.8015 18.6538 17.7391 18.7283 17.6747 18.8048C17.4794 19.0323 17.4613 19.2014 17.6103 19.4651C17.6988 19.6222 17.7955 19.7752 17.882 19.9342C17.9666 20.0912 18.0129 20.2644 17.9545 20.4355C17.9102 20.5603 17.8458 20.6871 17.7592 20.7878C17.1694 21.4884 16.5735 22.1809 15.9776 22.8754C15.6837 23.2177 15.426 23.2821 15.0012 23.123C14.8643 23.0727 14.7294 23.0103 14.5925 22.962C14.4174 22.9016 14.2362 22.8734 14.0872 23.0103C13.9705 23.117 13.8779 23.2499 13.7651 23.3807C13.8356 23.4612 13.904 23.5458 13.9805 23.6223C14.0168 23.6585 14.053 23.6887 14.0913 23.723C14.1798 23.723 14.2684 23.7169 14.357 23.7089C14.3852 23.7069 14.4114 23.7028 14.4395 23.7008C14.4597 23.6988 14.4798 23.6968 14.4999 23.6948C14.4999 23.6948 14.4959 23.6928 14.4939 23.6928C14.81 23.6485 15.1099 23.5599 15.3555 23.419L17.2378 22.3379C17.2378 22.3379 17.2378 22.3379 17.2378 22.3399L18.2806 21.742C18.3753 21.6333 18.4679 21.5226 18.5625 21.4139C18.8222 21.1099 18.9812 20.7616 19.0014 20.359" fill="black"/>
<path d="M20.3984 16.8602C20.2615 16.8079 20.1267 16.7475 19.9877 16.6991C19.8146 16.6388 19.6314 16.6106 19.4845 16.7475C19.3677 16.8542 19.2751 16.987 19.1624 17.1179C19.2328 17.1984 19.3013 17.283 19.3778 17.3595C20.1126 18.0963 21.2983 18.2553 22.1076 17.3091C22.4015 16.9649 22.6954 16.6227 22.9914 16.2784V14.7222C22.4559 15.3544 21.9184 15.9845 21.3788 16.6126C21.0849 16.9548 20.8272 17.0192 20.4025 16.8602" fill="black"/>
<path d="M13.8296 22.7628C14.0067 22.5715 14.2302 22.5091 14.4838 22.5615C14.5704 22.5796 14.6549 22.6118 14.7375 22.64C14.9106 22.7004 15.0817 22.7688 15.2589 22.8192C15.3998 22.8594 15.5367 22.8192 15.6394 22.7185C15.7461 22.6138 15.8347 22.493 15.9353 22.3763C15.7924 22.183 15.6273 22.0199 15.432 21.881C14.7536 21.3959 13.9322 21.4039 13.3102 21.873L12.1687 23.1453L12.6378 23.4151C12.7747 23.4936 12.9337 23.554 13.0988 23.6023C13.1994 23.4835 13.3001 23.3667 13.4028 23.248C13.5437 23.0849 13.6806 22.9198 13.8275 22.7628" fill="black"/>
<path d="M20.6823 15.4651C20.1347 15.1551 19.5348 15.1088 18.9993 15.3886L16.2392 18.5352C16.0762 18.9177 16.0601 19.3264 16.2252 19.7673C16.4124 20.2625 16.7647 20.6168 17.2358 20.8624C17.3384 20.7436 17.4431 20.6349 17.5297 20.5141C17.6102 20.4034 17.6283 20.2726 17.576 20.1437C17.5277 20.029 17.4673 19.9182 17.4069 19.8075C17.3626 19.727 17.3082 19.6505 17.2639 19.572C17.0667 19.2136 17.0928 18.9459 17.3586 18.6338C17.8176 18.0963 18.2786 17.5608 18.7376 17.0233C18.8765 16.8603 19.0093 16.6912 19.1503 16.5281C19.2127 16.4576 19.2852 16.3932 19.3637 16.3409C19.573 16.202 19.8025 16.1999 20.032 16.2845C20.1951 16.3449 20.3541 16.4154 20.5192 16.4717C20.7205 16.5422 20.9198 16.5482 21.0789 16.3771C21.1695 16.2805 21.252 16.1758 21.3426 16.0711C21.2178 15.8658 20.9722 15.6322 20.6762 15.4651" fill="black"/>
<path d="M15.7501 19.3364C15.744 19.2599 15.744 19.1814 15.742 19.1008L13.8979 21.2026C14.2845 21.118 14.6629 21.1482 15.0414 21.265C15.0656 21.273 15.1119 21.2489 15.13 21.2267C15.4058 20.9086 15.6796 20.5845 15.9554 20.2664C16.0017 20.2141 16.0017 20.1759 15.9715 20.1134C15.8467 19.8699 15.7682 19.6081 15.7501 19.3344" fill="black"/>
<path d="M21.1475 13.0734C21.1454 13.0311 21.1434 12.9869 21.1434 12.9446L19.4121 14.9195C19.7584 14.8631 20.1006 14.8994 20.4388 15.004C20.463 15.0121 20.5093 14.9879 20.5274 14.9658C20.8032 14.6477 21.077 14.3236 21.3528 14.0055C21.3991 13.9532 21.3991 13.9149 21.3689 13.8525C21.2441 13.6089 21.1656 13.3472 21.1475 13.0734Z" fill="black"/>
<path d="M19.1465 19.3282C19.2774 19.5819 19.3539 19.8536 19.37 20.1395C19.376 20.2402 19.372 20.3408 19.374 20.4556C20.0142 19.7087 20.6443 18.9719 21.2926 18.2169C20.8698 18.3116 20.4752 18.3015 20.0847 18.1706C20.0585 18.1626 20.0062 18.1847 19.986 18.2089C19.7122 18.5229 19.4445 18.839 19.1707 19.1531C19.1204 19.2114 19.1083 19.2537 19.1465 19.3302" fill="black"/>
<path d="M22.9895 14.1161C23.0036 14.0577 23.0036 13.9994 22.9895 13.939V14.1161Z" fill="#01B4E2"/>
<path d="M22.8064 13.5445C22.7621 13.464 22.7077 13.3895 22.6635 13.309C22.4662 12.9506 22.4923 12.6829 22.7581 12.3708C22.8346 12.2802 22.9111 12.1917 22.9896 12.1011V10.8388L21.5703 12.4574C21.4737 12.7855 21.4837 13.1358 21.6226 13.5042C21.8099 13.9995 22.1622 14.3538 22.6332 14.5994C22.7359 14.4806 22.8406 14.3719 22.9272 14.2511C22.9574 14.2088 22.9755 14.1625 22.9876 14.1162V13.9391C22.9835 13.921 22.9795 13.9008 22.9715 13.8827C22.9231 13.7679 22.8628 13.6572 22.8024 13.5465" fill="black"/>
<path d="M8.88548 11.1207C8.86535 11.2918 8.85327 11.4689 8.85327 11.6521V14.6215C8.85327 14.6215 8.85327 14.6215 8.85327 14.6236V11.6421C8.85327 11.4609 8.86535 11.2857 8.88548 11.1166" fill="white"/>
<path d="M20.0444 8.76129H20.0947L17.7655 11.4931H12.8252C12.6944 11.4931 12.5776 11.5032 12.4729 11.5253C12.3682 11.5455 12.2776 11.5777 12.1991 11.62C12.1287 11.6562 12.0663 11.7005 12.0139 11.7549C11.9817 11.7891 11.9535 11.8273 11.9274 11.8676C11.9193 11.8797 11.9113 11.8897 11.9052 11.9018C11.8589 11.9823 11.8267 12.077 11.8046 12.1816C11.7824 12.2863 11.7723 12.4031 11.7723 12.5319V17.0031C11.6214 16.983 10.9147 16.8763 10.3048 16.5441C9.63437 16.1798 9.01231 15.4289 8.85327 14.6316V11.6502C8.85327 11.469 8.86535 11.2938 8.88548 11.1247C8.92172 10.8268 8.98614 10.547 9.08478 10.2873C9.13109 10.1645 9.18343 10.0457 9.24382 9.93093C9.30422 9.81618 9.37065 9.70546 9.44514 9.59876C9.49346 9.5283 9.5458 9.46187 9.59814 9.39946C9.70282 9.27666 9.81355 9.16996 9.9283 9.08138C10.2182 8.85993 10.5443 8.74921 10.9067 8.74921L20.0464 8.76129H20.0444Z" fill="#01B4E2"/>
</g>
<defs>
<clipPath id="clip0_34_113">
<rect width="28" height="28" fill="white"/>
</clipPath>
</defs>
</svg>
