<svg xmlns="http://www.w3.org/2000/svg" viewBox="-0.44 -0.39 250.89 250.83"><path fill="#FE0622" d="m114.16-.273 2.36-.039C133.192-.529 149.104-.715 165 5l2.303.811c33.03 11.935 58.011 36.26 73.135 67.626 7.34 16.737 10.148 33.196 10 51.313l-.01 2.392c-.068 11.97-.628 23.407-4.428 34.858l-.633 1.94c-8.35 24.636-23.588 46.384-44.367 62.06l-2.988 2.277c-13.35 9.726-28.01 15.84-44.012 19.723l-2.083.56c-8.616 2.065-17.42 1.88-26.23 1.877l-2.565.003c-13.266-.03-25.536-.914-38.122-5.44l-2.303-.811c-33.03-11.935-58.011-36.26-73.135-67.626-7.34-16.737-10.148-33.196-10-51.313l.01-2.392C-.326 104.845 2.498 89.436 10 73l1.555-3.512C19.98 51.488 33.178 35.936 49 24l2.988-2.277C69.77 8.768 92.025.05 114.16-.273M80 99c-8.784 10.947-11.916 23.152-11 37 1.183 7.566 4.224 12.96 10 18 6.137 3.928 12.878 3.89 20 3 9.042-2.822 15.442-8.654 19.813-16.938 5.108-10.442 6.395-24.103 3.277-35.343-2.814-6.007-6.513-9.334-11.965-12.969C98.955 87.808 88.447 91.077 80 99m60-8a70017 70017 0 0 0-6.3 35.933q-.965 5.494-1.926 10.99a4835 4835 0 0 0-1.764 10.067l-.592 3.378c-.47 2.517-.47 2.517-.418 4.632h12l4-23 8.375.188c9.245.064 17.676-.708 25.152-6.7 4.668-4.717 5.74-9.513 5.973-16.05-.206-5.734-.825-9.01-4.5-13.438-8.63-6.261-18.228-6.287-28.563-6.125l-3.345.027q-4.047.035-8.092.098"/><path fill="#FF0F2A" d="M106.813 101c3.633 3.322 4.852 7.235 5.437 12.066.272 9.229-.592 20.321-6.25 27.934-3.952 4.031-7.055 6.872-12.813 7.25-3.864-.07-6.176-.669-9.187-3.25-4.718-7.753-3.976-17.045-2.273-25.688 2.125-7.464 4.505-13.716 11.085-18.25 4.934-1.644 8.991-1.843 14-.062Z"/><path fill="#FF1932" d="M150 101c2.918-.108 5.831-.187 8.75-.25l2.5-.102c6.15-.099 6.15-.099 9.266 2.243 2.72 3.867 2.874 6.354 2.484 11.109-1.44 4.482-3.276 6.584-7.375 8.938-5.988 1.867-12.432 1.297-18.625 1.062.516-7.788 1.449-15.35 3-23"/><path fill="#FE3E53" d="m46 26 2 1C35.379 41.292 35.379 41.292 30 46h-2v2h-2c3.773-8.852 12.683-16.012 20-22"/></svg>