<svg xmlns="http://www.w3.org/2000/svg" fill="none" viewBox="0 0 512 512"><g clip-path="url(#a)"><path fill="#fff" d="M0 0h512v512H0z"/><circle cx="256" cy="256" r="256" fill="#EDE9E9"/><path fill="#000" d="M379 310c0 68-55 109-122 109-68 0-115-40-124-92h62c7 20 30 34 62 34 35 0 61-18 61-50s-25-48-62-48v45c-68 0-121-39-121-104S186 94 257 94c67 0 114 40 118 90h-60c-5-18-24-32-57-32-39 0-61 19-61 50s25 46 59 46v-47c75 0 123 45 123 109Z"/></g><defs><clipPath id="a"><path fill="#fff" d="M0 0h512v512H0z"/></clipPath></defs></svg>