<svg xmlns="http://www.w3.org/2000/svg" xml:space="preserve" viewBox="0 0 400 400"><path fill="#F43B3A" d="M188 401H1.03V1.092h399.816V401zm84.125-208.132s-.04-.006-.264-.626l-16.237-16.134v7.581c-.005 22.32-.078 44.64.052 66.96.023 3.858-1.108 5.252-5.13 5.201-22.483-.282-44.969-.329-67.454-.431-1.84-.009-3.679.164-6.856.318 2.355 2.116 3.551 3.19 5.039 4.85 1.594 1.469 3.19 2.937 4.896 4.895.273.17.546.338 1.094 1.114 2.246 2.144 4.493 4.289 6.961 7.061 2.462 2.48 4.792 5.113 7.435 7.382 1.531 1.315 3.527 2.8 5.382 2.898 5.965.312 11.962.015 18.804.104 1.738-.043 3.476-.086 5.979.108 9.826.068 19.722.898 29.459.001 10.943-1.008 19.498 1.892 25.843 10.884 3.362 4.764 8.235 5.573 13.841 5.493.024-4.516-.45-8.58-4.041-11.798-2.849-2.552-5.31-5.543-8.196-8.046-3.408-2.954-4.603-6.36-4.549-10.924.24-20.15.141-40.305.04-60.458-.01-2.032-.24-4.596-1.443-5.984-3.237-3.74-7.056-6.975-10.655-10.449M127.665 155.5v-26.684h79.112c-9.496-9.492-18.117-18.242-26.951-26.77-1.105-1.067-3.338-1.327-5.054-1.342-23.491-.21-46.985-.208-70.474-.534-4.34-.06-5.252 1.49-5.215 5.464.165 18.16 1.013 36.39-.26 54.463-1.012 14.377 2.574 25.371 14.227 34.039 4.963 3.691 8.97 8.668 13.413 13.06l1.202-.48zm10.631 62.134c7.744 7.8 15.361 15.732 23.33 23.294 1.7 1.612 4.672 2.62 7.07 2.643 20.323.206 40.648.129 60.973.103 1.671-.003 3.342-.252 6.41-.499-9.708-9.616-18.249-18.232-27.032-26.594-1.21-1.154-3.615-1.455-5.472-1.468-16.992-.116-33.986-.085-50.979-.086-4.331-.001-8.666-.044-12.99.145-.597.026-1.14 1.28-1.31 2.462M215.14 184.5c0 .832.12 1.685-.018 2.494-2.5 14.76 2.314 26.28 14.448 35.264 4.812 3.563 8.464 8.693 12.645 13.109l1.298-.858c.107-1.758.305-3.516.308-5.275.023-15.813-.832-31.686.276-47.422.895-12.726-2.38-22.329-12.588-30.177-5.54-4.26-9.905-10.05-14.8-15.151l-1.57.819z"/><path fill="#FEF8F8" d="M127.665 156v50.716l-1.202.48c-4.442-4.392-8.45-9.369-13.413-13.06-11.653-8.668-15.24-19.662-14.227-34.039 1.273-18.073.425-36.303.26-54.463-.037-3.975.875-5.524 5.215-5.464 23.489.326 46.983.324 70.474.534 1.716.015 3.95.275 5.054 1.341 8.834 8.529 17.455 17.279 26.95 26.77h-79.11V156z"/><path fill="#FEFEFD" d="M231.061 283.912c-1.738.043-3.476.086-5.837-.27-4.454-.797-8.304-1.646-12.111-1.482-5.36.231-9.495-1.385-13.074-5.402-1.507-1.692-3.994-2.512-6.035-3.728-2.246-2.145-4.493-4.29-6.967-6.957-.409-.8-.66-.987-.978-1.081-1.595-1.468-3.19-2.936-4.854-5.052 1.06-1.29 2.14-2.339 3.331-2.488 2.594-.324 5.246-.236 7.874-.232 5.314.01 10.628.061 15.941.12 14.416.162 28.831.4 43.247.454 3.178.012 5.294-1.606 5.433-5.197.218-5.637.89-11.27.841-16.901-.118-13.454-.713-26.905-.736-40.357-.006-3.612 1.351-7.225 2.348-12.15 2.628 2.236 4.008 3.534 5.515 4.661 2.316 1.732 4.72 3.347 7.086 5.012 0 0 .04.006.086.375 1.993 2.997 4.196 5.476 5.818 8.29 1.92 3.33 4.707 6.933 4.747 10.444.237 20.757-.271 41.52-.34 62.283-.006 1.919.822 4.303 2.111 5.673 3.392 3.603 7.46 6.57 10.836 10.185 1.655 1.77 2.374 4.417 3.615 6.862-5.316 1.135-7.65.015-11.303-4.38-5.141-6.185-10.57-10.82-19.882-9.84-10.195 1.071-20.59.196-30.896.284-1.941.017-3.877.569-5.816.874"/><path fill="#FEF7F6" d="M138.096 217.385c.37-.934.913-2.187 1.51-2.213 4.324-.189 8.659-.146 12.99-.145 16.993.001 33.987-.03 50.979.086 1.857.013 4.261.314 5.472 1.468 8.783 8.362 17.324 16.978 27.033 26.594-3.069.247-4.74.496-6.41.499-20.326.026-40.651.103-60.974-.103-2.398-.024-5.37-1.03-7.07-2.643-7.969-7.562-15.586-15.494-23.53-23.543M215.139 184v-46.697l1.569-.82c4.895 5.101 9.26 10.892 14.8 15.152 10.207 7.848 13.483 17.45 12.588 30.177-1.108 15.736-.253 31.609-.276 47.422-.003 1.759-.2 3.517-.308 5.275l-1.298.858c-4.18-4.416-7.833-9.546-12.645-13.109-12.134-8.984-16.948-20.503-14.448-35.264.137-.81.018-1.662.018-2.994"/><path fill="#FEE5E2" d="M271.973 192.552A85 85 0 0 1 265 187.85c-1.507-1.127-2.887-2.425-5.515-4.66-.997 4.924-2.354 8.537-2.348 12.149.023 13.452.618 26.903.736 40.357.05 5.63-.623 11.264-.841 16.901-.14 3.59-2.255 5.21-5.433 5.197-14.416-.054-28.831-.292-43.247-.453-5.313-.06-10.627-.111-15.941-.12-2.628-.005-5.28-.093-7.874.231-1.191.15-2.27 1.199-3.477 2.195-1.272-.72-2.468-1.794-4.823-3.91 3.177-.154 5.017-.327 6.856-.318 22.485.102 44.971.149 67.455.431 4.02.05 5.152-1.343 5.13-5.201-.13-22.32-.058-44.64-.054-66.96v-7.58c6.13 6.09 11.184 11.11 16.35 16.443m-14.431-11.044s-.05.022 0 0"/><path fill="#FEE5E2" d="M231.444 284.03c1.556-.423 3.492-.975 5.433-.992 10.306-.088 20.701.787 30.896-.284 9.312-.98 14.74 3.655 19.882 9.84 3.653 4.395 5.987 5.515 11.303 4.38-1.241-2.445-1.96-5.091-3.615-6.862-3.377-3.615-7.444-6.582-10.836-10.185-1.289-1.37-2.117-3.754-2.11-5.673.068-20.762.576-41.526.339-62.283-.04-3.511-2.828-7.114-4.747-10.443-1.622-2.815-3.825-5.294-5.812-8.272 3.547 3.086 7.366 6.322 10.603 10.06 1.202 1.389 1.433 3.953 1.443 5.985.101 20.153.2 40.308-.04 60.458-.054 4.565 1.14 7.97 4.549 10.924 2.887 2.503 5.347 5.494 8.196 8.046 3.592 3.218 4.065 7.282 4.041 11.798-5.606.08-10.479-.729-13.84-5.493-6.346-8.992-14.9-11.892-25.844-10.884-9.737.897-19.633.067-29.841-.12m-37.329-10.687c1.93.903 4.417 1.723 5.924 3.415 3.58 4.017 7.714 5.633 13.074 5.402 3.807-.164 7.657.685 11.682 1.406-5.79.386-11.787.683-17.752.37-1.855-.096-3.85-1.582-5.382-2.897-2.643-2.269-4.973-4.902-7.546-7.696m-8-8.106c.263-.15.513.035.785.533-.183.05-.456-.119-.785-.533"/><path fill="#FEFEFD" d="M257.517 181.52c-.024.01.025-.012 0 0"/></svg>