<svg xmlns="http://www.w3.org/2000/svg" fill="none" viewBox="0 0 1096 1096"><rect width="1096" height="1096" fill="url(#a)" rx="548"/><path fill="#fff" d="M932 327c-5-10-18-13-27-7L396 629a173 173 0 0 1 261-216l-109 74 282-162a13 13 0 1 0-13-21l-69 47a280 280 0 0 0-444 334l-143 87 147-80a280 280 0 0 0 521-144v-33c0-27 10-60 48-80a6 6 0 1 0-6-12L536 616c38-16 66-25 104-33 79-16 81 22 51 64a174 174 0 0 1-289-7l523-286c9-5 13-17 7-27"/><defs><linearGradient id="a" x1="109.5" x2="807" y1="1096" y2="0" gradientUnits="userSpaceOnUse"><stop offset="0" stop-color="#E57536"/><stop offset=".6"/></linearGradient></defs></svg>