<svg xmlns="http://www.w3.org/2000/svg" xmlns:xlink="http://www.w3.org/1999/xlink" xml:space="preserve" id="Layer_1" x="0" y="0" style="enable-background:new 0 0 185.6 185.6" version="1.1" viewBox="-18.1 -17 224.6 214.1"><style>.st1{fill:#fff}</style><g id="Layer_3"><radialGradient id="SVGID_1_" cx="-109.7" cy="-1.1" r="1" gradientTransform="rotate(90 -5780.5 5757.3) scale(104.235)" gradientUnits="userSpaceOnUse"><stop offset=".2" style="stop-color:#073183"/><stop offset="1" style="stop-color:#0054f9"/></radialGradient><path d="M185.6 92.8A92.8 92.8 0 1 0 0 92.8a92.8 92.8 0 0 0 185.6 0z" style="fill:url(#SVGID_1_)"/></g><g id="Layer_1_00000019678216197568292700000009484231850298271916_"><path d="M155.9 63.8c-.4 2.3-.8 3.4-1.4 4.6-.6 1.4-1.2 2.9-1.8 6.1l-.5 3v.1c-.2 1.3-.3 2.2-.8 3.7-.4 1.3-1.1 3.4-2.8 5.6-1.4 1.8-3.7 4.9-6.8 5.3l-1.1-.1c-8.8-4.5-16.3-7.8-18.9-8.5-3-.9-2.6-7.5-2.3-13.3.2-2.6.3-5.1.2-7.2-.4-7.4-1.7-15.4-8.1-19.3-3.8-2.3-8.8-3-13.5-3l2.9-1.6c2.8-1.6 6.2-3.6 9.7-4l3.3-.4c6.9-.8 12.9-1.5 19.2.7 2.9 1 8.7 4.2 10.2 7.3 1.1 2.1 2.9 3.8 6.4 7.1l4 3.5c1.3 1 1.5 1.3 1.9 2 1.2 2.4.8 4.9.2 8.4zM124 94.1c.4.1.6.6.3 1l-3.3 5.7-1.7 3c-1.7 2.9-1.8 5.4-1.9 7.3-.1 2.1-.2 3-1.5 3.8-1 .7-2.1.9-9.3 2-1.3.2-1.8.4-2.3.7l-.4.2c-.4.2-.8-.2-.8-.6l.1-4v-.3l-.1-3.5c-.1-1.8-.1-2.6.4-3.4.6-1 1.1-1.3 1.8-1.8 1.1-.7 2.6-1.6 4.7-4.6 1.2-1.6 1.4-2.5 1.6-3.2.1-.3.1-.4 1-1.1s3.8-2.9 7.5-2.3c1.2.2 2.5.6 3.9 1.1zM95.3 127.3c-.2.2-.3.3-.6.3-.8 0-1.3-.2-1.6-.6-.7-.9-.6-2.7-.5-3.8l3.1-.8c.2 1.7.3 4-.4 4.9zM95.5 116.3l-.1 1.5v2.3c-1 .3-1.8.3-2.8.3v-2.6l.1-1.8.9-.2c.6-.1 1.5-.3 2-.2l-.1.7zM89.9 126.4c-.1 1.6-.6 3.5-2.1 3.8-.7.1-1-.1-1.2-.3-1-.9-1.1-3.7-1-5.7l2.5-.3 1.7-.4c.1.8.2 1.8.1 2.9zM89.2 120.8l-3.3 1.2.5-4.3c.1-.8.3-1.1.4-1.2l.2-.1h.2l2.1-.1-.1 4.5zM83.8 119.8c-.2.5-.4 1.9-.5 2.9l-4.1-.1c.2-1.3.6-2.6.9-3.6.4-1 .7-1.8 1.1-2s1.3-.3 1.9.2c.9.6 1.1 1.5.7 2.6zM82.3 132.5c-.3.4-.7.7-1.1.7-.5.1-.8-.1-1.1-.3-1.3-1.2-1.2-5.1-1.1-7a44 44 0 0 1 4.5-.8c0 1.5.1 5.6-1.2 7.4zM76.9 122.4l-.5 1.5c-.5.2-2 0-3.5-.3l1-6.5c1.7-.5 3.7-.6 4.1-.1.7.7-.6 4-1.1 5.4zM75 133.4c-.8 1-2 1.5-3.7 1.4-1.2 0-1.6-.5-1.8-.8-.9-1.5 0-5 .9-7.2l5.6.3.1 1.4c.1 1.7-.1 3.7-1.1 4.9z" class="st1"/><path d="M121.4 86.1c-5.1-1.4-4.6-8.8-4.2-16 .1-2.5.3-4.9.2-6.9-.4-6.7-1.5-14-6.9-17.3-5.8-3.5-15.3-2.7-21.1-2-2.1.6-4.1 1.1-5.7 1a20 20 0 0 1-8.5-2.9c-1.8-1-3.4-1.9-5-1.9H70c-4.5.3-6.6 1.4-8.5 3.1-.5.4-1.1 1.6-3 7.1-1 2.8-1.1 4.3-1.3 5.7-.2 1.3-.3 2.7-1 4.8L55 64.6c-.9 3.1-1.7 5.6-3.9 8.6l-1 1.4c-.5.8-1.1 1.8-2 2.9-.6.8-1.9 3.8-1.8 4.7.1 1.5.6 2.4 1.1 3.4s1.2 2.2 1.3 3.9v.3c.2 2.6-.2 3.9-5.1 8.3a53.7 53.7 0 0 0-6.9 7.5c-.1.2 0 .4.3.4h1c1.2.1 2.4.6 3.2 1.5.1.2.4.2.6.1.8-.3 1.7-.3 2.5-.2 1 .1 2.1.4 2.8 1.1.2.2.5.3.8.2.8-.2 1.7-.2 2.5.1.6.2 1.2.6 1.6 1.1.3.3.8.4 1.2.2l.8-.4c1.1-.4 2.3-.2 3.3.2.5.2 1 .3 1.5.7.8.6 1.4 1.4 1.7 2.3.2.5.9.7 1.3.3.8-.6 1.4-.7 2-.5.3.1.5.3.7.6.3.4.8.8 1.2.6 1.7-.5 3.7-.2 5.2.6.5.3 1.1.7 1.4 1.3v-.3l.2-.3.3-.1c.8-.3 5-1.5 6.6.2h.3l.5-.4c1.1-.6 2.9-.7 4.1.4.2.2.6.1.8-.1l.4-.4c.4-.4 1-.5 1.6-.5l2.3-.1 2.9-.3h.1l.8-.2c1.1-.2 2.4-.5 3.4 0s.9 1.6.8 2.6l-.1 1.2v.6l-.1 2.3.1.5v.1c.1.4.6.7.9.4.8-.5 1.6-1.1 1.9-1.5v-.1l.2-.7c.1-.9.3-2.6.3-6.1v-.4l-.1-3.3c-.1-1.9-.2-3.4.8-4.9.9-1.5 1.8-2 2.7-2.6 1-.6 2.1-1.3 4-3.9.9-1.3 1-1.8 1.1-2.2.2-1 .5-1.6 2-2.6 1.2-.9 4.7-3.6 9.5-2.8a44 44 0 0 1 6.7 2.1l.3.1h.1c2.3.9 4.4 1.9 5.9 2.7.3.2.7.1 1-.2.5-.6 1-.9 1.5-1.3l.5-.3.1-.1c.4-.3.4-1.1-.1-1.3a98 98 0 0 0-15.2-5.9zm-48.2 1.5C71.6 94.4 61 102 56.2 102H55.9l-.3-.1h-.2a8 8 0 0 1-3-1.8 5.2 5.2 0 0 1-1.3-2.1l-.1-.4a7 7 0 0 1 .4-5l.4-.9.1-.3.3-.7.4-.9.1-.3.4-1.4.2-1 .6-3.3c.2-1.7.5-3.2 1.4-4.6l.5-.6.2-.2.2-.2.7-.4.3-.1.6-.2a17 17 0 0 1 8.9 1.3l.2.1.4.2.5.2.6.3.2.1 1.9 1.1.7.6.2.2.2.2c2.1 1.8 2 4.3 1.6 5.8zm5-25.9-.2 1.2c-.5 2.8-1.6 6.6-5.6 7.6-3.9.9-4.8 1.1-7.5 1.3h-.2c-2 0-5.9-1.3-6.6-4.4-.4-2 .5-3.5 1.9-5.9l.8-1.3c2-3.3 2.7-5.7 3.3-7.6.6-1.9 1.1-3.4 2.4-4.7l1-.8.8-.5 1.2-.5a9 9 0 0 1 2.8-.4 8 8 0 0 1 5.1 1.6c.6.5 1.5 1.4 2 4.3.2 1.5-.2 4.2-1.2 10.1zm28.7 8c-1.4 2.4-2.1 3.7-3.3 4.7a11 11 0 0 1-7.4 2.4c-1.6 0-3-.3-3.9-.4-2.4-.4-6.7-1.2-8.2-4.7-.3-.7-.3-1.1-.3-1.7 0-.5 0-1.5-.3-3.6v-.1c-.1-1-.2-2.1 0-3.5v-.2c.8-4.2 1.1-4.8 1.2-5.2.4-.8 1.4-1.2 2.3-.7.8.4 1.1 1.4.8 2.2l-1 4.4v.2c-.2.9-.1 1.6 0 2.5v.1c.3 2.4.3 3.4.3 4v.4c.3.7.9 1.1 1.6 1.5.5.2 1-.2.9-.7a18 18 0 0 1 .7-10.7l2.1-3.7.2-.4.2-.3 1-1.6.1-.2.1-.1.2-.3.1-.1.1-.1.1-.2.8-1.2c.4-.5-.1-1.1-.6-.9-1.4.6-2.3 1.3-2.5 1.4-.7.6-1.8.5-2.4-.3-.6-.7-.5-1.8.3-2.4.9-.7 5.5-4 11-2.5 4 1.1 6 4.2 6.8 5.3.6.9 2.6 3.7 2.5 7.7 0 2.9-1.2 5.1-3.5 9z" class="st1"/><path d="m71.1 49.2-1 2.4a57.7 57.7 0 0 1-5.6 11.2c-.6 1.7-.7 3.6-.3 5.7-1.1-.1-2.8-.8-3-1.8-.1-.7.3-1.4 1.5-3.5l.8-1.3a36 36 0 0 0 3.6-8.3c.7-2.1 1-3 2.1-3.8l1.9-.6zM69 124.8a34.5 34.5 0 0 1-3.5 5.7c-.8-2-2.1-6.7-1.7-10.4v-.3c.1-1.2.4-2.2 1-3.1.4-.6 1.4-.9 2.5-.9.8 0 1.7.2 2.5.6.4.2 1 .7 1 2a13 13 0 0 1-1.8 6.4z" class="st1"/><path d="m133 98.1.1.3c-.3.7-.8 1.2-1.3 1.8-.6.7-1.3 1.5-1.9 2.8-.9 1.8-1.2 3.4-1.3 7.6-.2 4.9 0 7.6.2 9.6.1 1.9.2 3.1-.1 5-.7 3.8-2.3 6.3-4.4 9.5-2.6 4-5.2 8.1-9.6 9.4l-1.6.1-5.8.1c-5.8.2-8.7.3-11.1.8-2.6.5-3.9 1.1-5.3 1.6-1.2.5-2.3.9-4.4 1.4a51 51 0 0 1-9.7.6c-6.8 0-10.9 0-16.2-.6a42.6 42.6 0 0 1-13.6-2.6c-5.8-3.1-8.3-8.7-12.3-17.9l.2-.2.6.3.5.1h1.2l.2-.1.2.1c.3.7.7 1.3 1.4 1.7s1.5.4 2.2.4l2.4-.2c.4 0 .8.2 1 .5.7 1.8 1.6 3 3 3.2h.3c.3 0 .8-.1 1.4-.5.5-.4 1.3-.1 1.7.4.3.5.7.8 1.1 1.1 1.4 1.4 4.8 2.1 7.6 2.1 1.5 0 2.9-.2 3.7-.6 1.2-.6 1.2-1.4 1.1-1.8l-.3-1.9c0-.1.1-.1.1 0 .2.4.4.8.9.9h.2c.8 0 2 .3 2.2 1l.5 1.1a4 4 0 0 0 3.3 1.7h.1c2.2 0 3.9-.7 5-2.1l.2-.3c.4-.6 1.6-.6 2.1-.1.6.5 1.3.8 2.1.8h.4c1-.1 1.8-.6 2.5-1.5.4-.6.7-1.3.9-2.1.1-.2.4-.3.6-.1a3 3 0 0 0 2.1.8l.8-.1c1.9-.4 2.9-2 3.3-3.7 0-.1.1-.1.1 0 .5.6 1.4 1.3 2.9 1.3h.2c.8 0 1.5-.4 2-1 .6-.8.8-2 .9-3.1 0-.3.2-.6.6-.8a11 11 0 0 0 4.2-3.2l.1-.1c.1-.3.4-.5.6-.5 1.3-.2 1.8-.5 2.3-.7l1.7-.5c7.3-1.1 8.7-1.4 10.3-2.4 2.4-1.6 2.5-3.8 2.6-5.9.1-1.8.2-3.8 1.6-6.2l1.7-3.1c1.1-2 2.6-4.8 3.7-6.3.2-.3.6-.4.9-.2 2.5.9 4.7 1.9 5.1 2.3z" class="st1"/><path d="M62 119.9a48.4 48.4 0 0 0 .4 14.1c-.3.2-1.4.5-3.2.4-2.6-.1-5.2-.7-6-1.6l-.1-.1c-.6-.5-1.1-.9-1.1-1.8 0-.3.1-.6.4-1.1l.6-.9 1.6-2.3 3.1-4.8.2-.3 1.9-2.7 1.6-2.3c.7-1 1.2-1.5 1.5-1.8l-.2 1.6c-.4 1.2-.6 2.3-.7 3.6zM60.7 80.5c0 .1 0 .1 0 0-.4.5-.8 1.1-1.3 2.1-1.3 2.8-1.3 4.4-1.3 5.7 0 .7 0 1.2-.2 1.8l-.6 1.4c-.7 1.7-1.7 3.9-1.3 6.9-.6-.3-1.5-1-1.7-1.3l-.1-.5c-.2-.9-.3-1.5.2-2.9 1.6-3.6 1.8-4.5 1.9-5.5l.1-.7.6-3.6c.2-1.5.4-2.5.9-3.2.2-.3.7-.4 1.4-.4l1 .1h.1l.3.1zM58.7 116.2c-.1-.9-.2-1.7-.6-2.6l-.1-.3-.2-.3-.1-.1-.2-.1-.1-.1-.2-.1h-.1l-1.6-.5H55l-.4.1-.2.1-.1.1-.2.2-.1.1v.1l-.6.9-1.5 2.2-1.4 2-.8 1.1-.1.2.9.2 2 .3c1.4.2 2.9.3 4.3.2h.2l1.3-1.9.8-1.2c-.3-.1-.4-.4-.4-.6zM53.6 122.1c-.1 1.1-1.3 3.9-3.2 6.6-1.6 2.2-2.6 2.8-2.8 2.8-.8-.1-1.5-2-2.1-3.9l-.6-2.2c-.4-1.4-.5-3.4-.4-4.6 1.6.9 4.4 1.1 8.4 1.1l.7.2zM50.8 113.1l-2.1 3.1-1.1 1.5-.7.9-1.7-.4-1.4-.5-.3-.1-.3-.4.5-1 1-1.8a8 8 0 0 1 2.4-2.8l.2-.1 1.3-.5H49.4l.4.1.1.1.3.2.2.2.4 1.5zM45.4 110.2c-1.3 1-2.2 2.4-2.9 3.9l-1.2 2.4-.1.2-1.1-.3-1.2-.4-.5-.3 1.3-2.1a27 27 0 0 1 2-2.7l.9-.9c.4-.2.8-.2 1.3-.1.5 0 1 0 1.4.2l.1.1zM43.4 127.2l-.2.2h-.1l-.9.1h-1.8c-.3 0-.6-.1-.8-.3-.2-.3-.3-.9-.4-1.3-.4-2.2-.4-4.4-.2-6.6 1.1.4 2.3.7 3.5.9-.3 2 .2 4.9.4 5.7.3.4.4.9.5 1.3zM39.8 109.5a27 27 0 0 0-2.7 3.9l-1 1.7-1.1-.5-.8-.6-.4-.3-.1-.1.3-.7.7-1.3 1.6-2.4c.2-.3.4-.6.8-.7h1c.6.1 1.2.5 1.7 1zM32.1 114.8c0-.1.1-.1 0 0l1.1 1 .5.4v.1a23.3 23.3 0 0 0-.8 5.3c-.5-2.1-1.1-5.5-.8-6.8zM37 118.5c-.2 1.5-.3 3-.2 4.5l.2 2.5H36.2l-.4-.2-.6-.7c-.4-.7-.5-1.5-.5-2.3a18 18 0 0 1 .4-4.6l.8.3 1.1.5z" class="st1"/></g><defs><path id="SVGID_00000128454529727717975320000012486895950618847389_" d="M185.6 92.8A92.8 92.8 0 1 0 0 92.8a92.8 92.8 0 0 0 185.6 0z"/></defs><clipPath id="SVGID_00000112632825680152813190000016325904004000894366_"><use xlink:href="#SVGID_00000128454529727717975320000012486895950618847389_" style="overflow:visible"/></clipPath><g style="clip-path:url(#SVGID_00000112632825680152813190000016325904004000894366_)"><g id="Layer_2_00000107572151008996527030000016290061794924690866_" style="opacity:.8"><linearGradient id="SVGID_00000174576723511659957990000012099251455123196824_" x1="-13" x2="199.6" y1="635.1" y2="858.3" gradientTransform="translate(0 -656)" gradientUnits="userSpaceOnUse"><stop offset=".2" style="stop-color:#89d0ff"/><stop offset=".4" style="stop-color:#ebbf9a"/><stop offset=".6" style="stop-color:#eb8280"/><stop offset=".8" style="stop-color:#a281ff"/></linearGradient><path d="M76.4 196.5c-6.8 0-13.2-.4-18.6-.8l-1.5-.1-1.5-.2-2.4-.3c-5.2-.6-14.9-1.6-25.6-6.6l-1.7-.8-1.5-.9C3 175.2-4.6 157.9-8.8 148.6l-.9-2a76.6 76.6 0 0 1-4.5-11.7l-.2-.8-.2-.8a67.5 67.5 0 0 1-2.4-28.8 61.6 61.6 0 0 1 10.6-26l3-4.9c.6-1 1-2.1 1.3-3.2A64.7 64.7 0 0 1 8 47c.7-4.7 1.9-9.3 3.5-13.8l.2-.7.3-.7.2-.6C13.4 27.7 16.1 19.6 23 11l2.6-3 2.7-2.4a61.2 61.2 0 0 1 39-16.1h1.2l2.6-.1c3.2 0 6.4.3 9.6.8 2 .3 4 .1 5.9-.7a67.6 67.6 0 0 1 17.1-4.6l1.3-.2 4.2-.5c3.1-.3 7.9-.7 13-.7 10.1 0 18.8 1.3 26.6 4l.7.2.6.2a70 70 0 0 1 32.2 23.5l.3.4.9.8a60.7 60.7 0 0 1 14.3 16l1.2 1.9 1 2c8.4 17.1 5.7 33 4.7 38.9l-.1.3c-.7 4.4-1.9 8.7-3.4 12.9a68.8 68.8 0 0 1-20.7 40.5 6.4 6.4 0 0 0-2 3.9l-.4 2.7a72.5 72.5 0 0 1-10.6 26.1l-7.1 10.2a62.7 62.7 0 0 1-31.1 21.5l-3 .9-3.2.6c-3.7.7-7.4 1-11.2 1H108.8c-1.4 0-2.8.3-4.2.7a91.7 91.7 0 0 1-28.2 3.8z" style="opacity:.8;fill:none;stroke:url(#SVGID_00000174576723511659957990000012099251455123196824_);stroke-width:1.0554;stroke-miterlimit:10;enable-background:new"/><linearGradient id="SVGID_00000078007290311443526780000002645036182949499018_" x1="-4.8" x2="191.3" y1="644.7" y2="851.3" gradientTransform="translate(0 -656)" gradientUnits="userSpaceOnUse"><stop offset=".2" style="stop-color:#89d0ff"/><stop offset=".4" style="stop-color:#ebbf9a"/><stop offset=".6" style="stop-color:#eb80da"/><stop offset=".8" style="stop-color:#a281ff"/></linearGradient><path d="M76.4 189.4a236 236 0 0 1-18-.8l-1.2-.1-1.2-.2-2.6-.3a67.6 67.6 0 0 1-22.9-5.9l-1.4-.7-1.3-.7c-18.3-10.1-25-25.2-29-34.2l-1-2.1a69 69 0 0 1-4.1-10.6l-.2-.7-.2-.6a59.7 59.7 0 0 1-2.1-25.4A54 54 0 0 1 .6 84.4l3.9-6.3a9.8 9.8 0 0 0 1.4-3.7c1.9-10.8 7-18.4 9.3-21.9l.3-.4.1-.2.1-.3.4-1.3a65 65 0 0 1 3.2-13l.2-.6.2-.6.3-1c1.1-3.3 3.4-10.2 9.4-17.6l2.2-2.6 2.2-2A52.1 52.1 0 0 1 67.8-1h1l2.2-.1c3.3 0 6.5-.9 9.7-.3 2.5.5 5 .2 7.3-.8 4.3-1.9 10.1-2.6 16.7-3.5l1.2-.2 3.9-.4c2.9-.3 7.4-.6 12.3-.6 9.2 0 17 1.2 23.9 3.5l.6.2.5.2a61.2 61.2 0 0 1 28.6 20.9l.8 1 .1.1 1.1 1 .1.2c5.1 3.9 9.4 8.7 12.7 14.1l1 1.6.8 1.7c7.2 14.7 5 28.2 4 33.9l-.1.3c-.7 4.2-1.8 8.2-3.3 12.2a60.7 60.7 0 0 1-11.2 28.1 58.1 58.1 0 0 1-8.7 9.8 8.3 8.3 0 0 0-2.7 5.3l-.6 4.4a62.2 62.2 0 0 1-9.6 23.3l-5.8 8.4a55 55 0 0 1-27.8 19.7l-2.5.8-2.7.5c-3.2.6-6.5.9-9.7.8h-4.5c-1.5.1-3 .3-4.5.8a83.5 83.5 0 0 1-26.2 3.5z" style="opacity:.8;fill:none;stroke:url(#SVGID_00000078007290311443526780000002645036182949499018_);stroke-width:1.0554;stroke-miterlimit:10;enable-background:new"/><linearGradient id="SVGID_00000018943696915612414720000001476804467929569966_" x1="3.6" x2="183" y1="653" y2="843" gradientTransform="translate(0 -656)" gradientUnits="userSpaceOnUse"><stop offset=".2" style="stop-color:#89d0ff"/><stop offset=".4" style="stop-color:#ebbf9a"/><stop offset=".6" style="stop-color:#eb8280"/><stop offset=".8" style="stop-color:#a281ff"/></linearGradient><path d="M76.4 181.1c-6.2 0-12.3-.4-17.4-.8l-1-.1-1-.1-2.9-.3a59 59 0 0 1-20.3-5.2l-1.1-.5-1-.6a58.3 58.3 0 0 1-25.3-30.4l-1-2.3a58.5 58.5 0 0 1-3.7-9.6l-.2-.5-.1-.5a51 51 0 0 1-1.9-21.8c1-6.7 3.7-13 8.3-19.7l.6-.8.6-.8 1.1-1.4 2.3-4.3a12 12 0 0 0 1.5-4.5c1.5-9.6 6.1-16.5 8.2-19.7l.4-.5.5-.7.6-1.5.7-2.3c.5-4.1 1.5-8.1 2.9-12l.2-.5.2-.5.5-1.4c1-3.1 2.9-8.8 8-15l1.7-2.1 1.8-1.6A45.5 45.5 0 0 1 68.7 7.2h2.7c3.4 0 6.7.4 10 1.3 2.8.7 5.8.4 8.4-.9 4.2-2 9.8-4.2 16.3-5l1.1-.2 3.7-.4c2.7-.3 7-.6 11.5-.6 8.2 0 15.1 1 21.2 3.1l.4.2.4.2a52.3 52.3 0 0 1 25 18.3l1.9 2.2.9.8.3.4c2.3 1.8 7 5.5 11.1 12.2l.8 1.3.7 1.3c6.1 12.3 4.2 23.5 3.3 28.9l-.1.3c-.6 3.9-1.7 7.8-3.3 11.5v.3a51.2 51.2 0 0 1-9.8 25c-2.7 3.9-6 7.4-9.7 10.4-.9.7-1.6 1.6-2.1 2.6s-.8 2.1-.9 3.2c-.1 2.2-.4 4.4-.8 6.6-1.9 10.1-6.3 17.1-8.5 20.6l-4.5 6.6a47.2 47.2 0 0 1-24.4 17.8l-2 .6-2.2.4c-2.7.5-5.5.7-8.3.7H108.1l-2.3.1a15 15 0 0 0-4.7.9 80.5 80.5 0 0 1-24.7 3.2z" style="opacity:.8;fill:none;stroke:url(#SVGID_00000018943696915612414720000001476804467929569966_);stroke-width:.9894;stroke-miterlimit:10;enable-background:new"/><linearGradient id="SVGID_00000024689210688303160630000017284372851326692799_" x1="11.9" x2="174.7" y1="661.4" y2="834.7" gradientTransform="translate(0 -656)" gradientUnits="userSpaceOnUse"><stop offset=".2" style="stop-color:#89d0ff"/><stop offset=".4" style="stop-color:#ebbf9a"/><stop offset=".6" style="stop-color:#eb80e7"/><stop offset=".8" style="stop-color:#a281ff"/></linearGradient><path d="M76.4 172.8a208 208 0 0 1-16.7-.8l-.7-.1-.7-.1-3.1-.4a54.5 54.5 0 0 1-17.7-4.4l-.8-.4-.8-.4c-13.3-7.5-18.2-18.5-21.8-26.5l-1.1-2.5c-1.5-3.1-2.5-6-3.3-8.5l-.1-.4-.3-.3a36.9 36.9 0 0 1 5.2-34.6l.4-.6.4-.6 1.5-1.9 2.2-2.8c.5-.6.9-1.3 1.2-2l.9-2.2c.4-1 .6-2 .7-3 .8-8.9 5.1-15.3 7.2-18.5l.5-.7.5-.8.2-.2 1.2-2.9 1-3.2v-.1c.4-3.7 1.3-7.4 2.6-10.9l.1-.3.1-.3.6-1.8c.9-2.7 2.4-7.3 6.5-12.4l1.3-1.6 1.3-1.2c9.7-8.8 20.5-9.5 24.1-9.8h2.1c4.3 0 8.5.9 12.5 2.6.7.3 1.5.4 2.2.4.8 0 1.5-.2 2.2-.6 3.7-2.1 10.4-6 19-7l1.1-.1 3.4-.4c2.6-.2 6.5-.5 10.7-.5 7.3 0 13.3.9 18.4 2.6l.3.1.3.1a44.3 44.3 0 0 1 21.4 15.6c1.1 1.5 1.7 2.1 2.9 3.3l.7.6.5.6.4.3c2 1.6 5.8 4.5 9.2 10l.6 1 .5 1c4.9 10 3.3 19 2.5 23.8v.3c-.6 3.5-1.6 7-3 10.3l-.1.3-.1.3-.1.9-.1.4a44.8 44.8 0 0 1-17.6 30.8 12.2 12.2 0 0 0-3.6 4.2c-.9 1.7-1.3 3.5-1.3 5.4a47.1 47.1 0 0 1-8.2 24.9l-3.3 4.9a40.3 40.3 0 0 1-21 15.9l-.4.1-2.1.5-.5.1c-2.3.4-4.6.6-6.9.6H107.7l-3.7.1c-1.7.1-3.3.4-4.9 1-6 1.8-13.3 2.8-22.7 2.8z" style="opacity:.8;fill:none;stroke:url(#SVGID_00000024689210688303160630000017284372851326692799_);stroke-width:.9235;stroke-miterlimit:10;enable-background:new"/><linearGradient id="SVGID_00000085930422432826479730000016146188682793707422_" x1="20.2" x2="166.3" y1="669.7" y2="826.4" gradientTransform="translate(0 -656)" gradientUnits="userSpaceOnUse"><stop offset=".2" style="stop-color:#89d0ff"/><stop offset=".4" style="stop-color:#ebbf9a"/><stop offset=".6" style="stop-color:#eb80d3"/><stop offset=".8" style="stop-color:#a281ff"/></linearGradient><path d="M76.4 164.5c-5.7 0-11.3-.4-16.1-.8h-.5l-.5-.1-3.4-.4c-4.2-.5-9.4-1-15-3.7l-.6-.3-.5-.3a42.3 42.3 0 0 1-18.2-22.7l-1.2-2.8a51 51 0 0 1-2.9-7.4l-.1-.3-.1-.3c-3.2-11.4-2.1-18.6 4.1-27.6l.3-.4.3-.4 1.5-2c1.6-2.1 3.2-4.2 5.5-6.7.5-.5.8-1.3.9-2L30 84l-.1-.9v-.9c.2-7.4 3.9-12.9 5.9-15.9l.6-.9.3-.5.3-.4c.4-.6 1.3-2.7 2.1-4.6l1.2-3.7.2-1.4c.3-3.1 1.1-6.2 2.1-9.1l.1-.2.1-.2.8-2.2c.8-2.4 2-5.9 5.1-9.8l.9-1.1.9-.8a30.2 30.2 0 0 1 19.1-7.6h1.5c4.2 0 9.3 2 12 3.3.6.3 1.3.5 2 .5l2.1-.3c1.7-.6 3.3-1.3 4.8-2.1 3.4-2 9-5.2 16-6l1-.1 3.2-.4c2.4-.2 6-.5 9.9-.5 6.3 0 11.5.7 15.7 2.2l.2.1.2.1c10 3.8 14 8.1 17.8 13 1.2 1.6 2.1 2.7 3.9 4.3l.4.4.4.4 1.2 1c1.7 1.3 4.6 3.6 7.1 7.8l.4.6.3.7c3.7 7.5 2.5 14.6 1.8 18.8v.3c-.5 2.9-1.3 5.7-2.5 8.4l-.7 2.2-.2 1.4-.1.4a38.4 38.4 0 0 1-6.8 17.4 30.3 30.3 0 0 1-12 10.4 6.5 6.5 0 0 0-2.8 2.4c-.7 1-1.1 2.3-1.2 3.5v1.2c.2 3.6.5 7.7-.3 12-1.3 7-4.3 11.7-6.5 15.2 0 0-10.2 14.2-19.5 17.1l-1 .3-1.1.2a33 33 0 0 1-5.5.5H109.4l-1.9.1h-.4c-3.6.1-6.9.2-7.9.4l-1.5.4a55.7 55.7 0 0 1-21.3 3.1z" style="opacity:.8;fill:none;stroke:url(#SVGID_00000085930422432826479730000016146188682793707422_);stroke-width:.8575;stroke-miterlimit:10;enable-background:new"/><linearGradient id="SVGID_00000038379881502420268080000011052478818508933564_" x1="28.5" x2="158" y1="678" y2="818" gradientTransform="translate(0 -656)" gradientUnits="userSpaceOnUse"><stop offset=".2" style="stop-color:#89d0ff"/><stop offset=".4" style="stop-color:#ebbf9a"/><stop offset=".6" style="stop-color:#a280eb"/><stop offset=".8" style="stop-color:#a281ff"/></linearGradient><path d="M76.4 156.3c-5.4 0-10.8-.4-15.4-.7h-.4l-3.6-.4c-3.9-.4-8-.9-12.4-2.9l-.3-.1-.3-.1c-8.5-4.8-11.7-11.9-14.7-18.8l-1.4-3a37 37 0 0 1-2.4-6.3v-.2c-2.6-9.1-1.9-13.7 2.9-20.7l.1-.2.1-.2 1.6-2c2.3-3 4.3-5.6 8.8-9.8.3-.3.6-.7.7-1.2a2 2 0 0 0-.1-1.3l-.8-2.3c-.2-.7-.3-1.5-.3-2.2v-1.1c.2-5 2.8-8.9 4.5-11.5l.7-1.1.2-.3.2-.3a39.6 39.6 0 0 0 5-13.5c.3-2.5.8-5 1.7-7.3v-.2l.9-2.6c.7-2.1 1.5-4.5 3.7-7.2l.4-.5.4-.4a22 22 0 0 1 14.1-5.5H71.2c4 0 7 1.6 9 2.7l.5.2h.1l1.5.8c1.2.6 2.7.8 4 .4 2.8-.7 7.1-2.4 9.9-4h.1c3-1.8 7.6-4.4 13-5l1-.1 2.9-.3c2.2-.2 5.6-.5 9.1-.5 5.4 0 9.7.6 13 1.7h.2c8 3 11 6.2 14.2 10.4 1.3 1.7 2.6 3.3 5 5.4l.2.2.2.2 2.1 1.8c1.4 1.1 3.4 2.6 5.1 5.5l.2.3.2.3c2.5 5.2 1.7 10.1 1.1 13.8v.3c-.4 2.3-1 4.5-2 6.7-.5 1.2-.9 2.5-1.1 3.8a26 26 0 0 1-.3 1.9l-.1.4a28.1 28.1 0 0 1-5.3 13.6 20 20 0 0 1-10.9 8.5c-2.2.7-4 2.1-5.2 4l-.4.5-.4.5c-1.1 1.3-.8 6.3-.6 9.3a41 41 0 0 1-.2 9.9c-1 5.5-3.4 9.2-5.5 12.4 0 0-7.8 11.3-14.9 13.4l-.5.2-.5.1c-1.3.2-2.7.4-4.1.4h-2l-2.4.1h-.2c-4.7.2-7.6.3-9.2.6a50.8 50.8 0 0 1-21.6 3.5z" style="opacity:.8;fill:none;stroke:url(#SVGID_00000038379881502420268080000011052478818508933564_);stroke-width:.8575;stroke-miterlimit:10;enable-background:new"/></g></g></svg>
