<svg xmlns="http://www.w3.org/2000/svg" fill="none" viewBox="0 0 895 895"><path fill="#0054FA" d="M0 0h895v895H0z"/><mask id="a" width="536" height="397" x="180" y="250" maskUnits="userSpaceOnUse" style="mask-type:luminance"><path fill="#fff" d="M716 250H180v396h536z"/></mask><g mask="url(#a)"><path fill="#fff" d="m629 636 1 4 1 1c0 3 3 5 6 5h53c8 0 15-6 18-13l4-11c4-11 5-23 3-34l-14-43-5-13-7-12-24-29-3-2c-5-6-3-14-4-21-4-38-38-70-77-72h-29c-6 0-12-1-17-4-4-2-8-6-12-10l-21-21-11-10c-9-8-19-15-30-20l-35-14c-5-2-9-5-13-9-4-3-7-8-10-12l-9-12c-9-11-21-19-35-22l-37-11a43 43 0 0 0-49 30l-2 11c-2 12-8 22-17 29l-2 2c-3 2-4 7-2 10h1l5 6c1 1 2 4 1 6l-4 6-7 16c-5 8 0 20 9 23l8 3c3 0 5 2 6 4l2 4 1 2c2 5 7 8 12 7h38a2 2 0 0 1 0 4l-13 2c-2 1-4 3-4 5v3c0 11-4 21-12 28l-46 39c-21 19-37 43-46 71l-20 59c-2 6-1 12 3 17 3 5 8 7 14 7h57c4 0 7-3 7-6v-7l-2-5-3-3c-2-1-3-4-2-7s3-5 6-5h16c3 0 7-3 7-6v-11c0-9 3-16 10-21l1-1c20-15 32-38 31-62 0-12 6-24 15-31l12-10c1 0 2-2 1-3a6789 6789 0 0 1-9-30c-7-21-4-45 7-63 7-12 18-22 31-27 1-1 2 0 2 1l-1 2a72 72 0 0 0-30 84l5 15c5 15 6 32 2 48l-22 80-1 2c-3 10-1 21 4 30l1 3c2 4 2 9 2 14v10c0 2 0 5 2 7 1 2 4 3 6 2h65c4 0 7-4 6-7v-9l-3-3-3-3c-3-3-4-9-1-13l7-10 21-30c12-17 15-40 10-61l-6-19c-2-7-9-22-10-29-4-11-4-22-3-32a502 502 0 0 1 3-21l2 2 2 29c1 10 3 19 7 29a6274 6274 0 0 1 22 54l18 6c7 2 14-1 17-7l1-3a423 423 0 0 1 34-42v2l-20 32c-8 13-14 27-17 42l-7 46c-1 5-1 11-3 15l-11 10-3 2v1c-2 1-3 4-2 6l2 10c1 2 4 4 7 4h49c5 0 9-2 13-5 5-3 8-8 10-14l11-32 5-12c7-13 15-24 26-33 13-11 22-25 29-40 0-1 1-2 2-1l1 2c-2 13-8 25-17 35-3 4-5 9-5 15v11c1 5 4 10 8 14l3 2 11 10 5 5c2 2 3 3 3 5 1 4 0 9-4 11l-6 5-2 2c-2 1-2 4-2 6z"/></g></svg>