<svg xmlns="http://www.w3.org/2000/svg" width="411" height="297" viewBox="0 0 411 297" version="1.1"><path d="M -0 148.502 L -0 297.005 205.750 296.752 L 411.500 296.500 411.753 148.250 L 412.007 0 206.003 0 L 0 0 -0 148.502 M 0.487 149 C 0.487 230.675, 0.605 264.088, 0.750 223.250 C 0.895 182.413, 0.895 115.588, 0.750 74.750 C 0.605 33.913, 0.487 67.325, 0.487 149 M 79.727 51.416 C 78.949 52.194, 77.805 56.132, 77.185 60.166 C 76.565 64.199, 75.581 72, 74.998 77.500 C 74.415 83, 73.258 93.125, 72.426 100 C 71.595 106.875, 70.260 117.225, 69.460 123 C 68.660 128.775, 67.524 139.125, 66.936 146 C 66.348 152.875, 65.464 159.850, 64.971 161.500 C 64.479 163.150, 63.584 170.350, 62.983 177.500 C 62.382 184.650, 61.439 193.122, 60.887 196.326 C 60.336 199.531, 59.215 208.081, 58.398 215.326 C 57.580 222.572, 56.480 232.325, 55.955 237 C 55.429 241.675, 54.786 246.066, 54.527 246.759 C 54.268 247.451, 54.482 249.138, 55.003 250.509 C 55.945 252.986, 56.022 253, 68.860 253 C 81.417 253, 81.813 252.934, 83.357 250.577 C 84.332 249.090, 85.341 243.974, 85.972 237.327 C 86.536 231.372, 86.999 223.270, 86.999 219.321 C 87 214.130, 87.435 211.708, 88.571 210.571 C 89.668 209.475, 92.049 209, 96.449 209 C 100.992 209, 103.124 209.444, 104.074 210.590 C 104.949 211.644, 105.804 218.453, 106.611 230.811 C 107.736 248.018, 107.997 249.579, 110.025 251.222 C 111.877 252.721, 114.248 253, 125.136 253 C 137.922 253, 138.059 252.976, 138.982 250.548 C 139.543 249.071, 139.566 245.198, 139.038 240.798 C 138.557 236.784, 137.442 227.425, 136.560 220 C 135.678 212.575, 134.529 203.125, 134.006 199 C 133.483 194.875, 132.142 183.191, 131.027 173.036 C 129.911 162.881, 128.771 153.853, 128.491 152.973 C 128.212 152.094, 127.565 147.127, 127.054 141.937 C 126.543 136.747, 125.202 124.850, 124.074 115.500 C 122.947 106.150, 121.556 95.125, 120.983 91 C 120.410 86.875, 119.509 79.225, 118.981 74 C 118.454 68.775, 117.583 61.865, 117.046 58.645 C 116.510 55.425, 115.550 52.162, 114.913 51.395 C 114.009 50.306, 110.178 50, 97.449 50 C 84.721 50, 80.832 50.311, 79.727 51.416 M 176.250 50.616 C 175.262 51.051, 175 72.070, 175 150.883 C 175 227.107, 175.283 250.883, 176.200 251.800 C 177.016 252.616, 181.756 253, 191 253 C 200.244 253, 204.984 252.616, 205.800 251.800 C 206.688 250.912, 207.004 241.349, 207.015 215.050 C 207.024 195.217, 207.436 178.858, 207.949 178.049 C 208.590 177.035, 211.224 176.499, 216.683 176.269 C 220.983 176.088, 227.096 175.286, 230.269 174.486 C 233.442 173.686, 237.492 172.013, 239.269 170.769 C 241.046 169.524, 244.144 166.770, 246.154 164.649 C 248.163 162.528, 250.863 158.027, 252.154 154.646 C 254.416 148.720, 254.511 147.326, 254.801 115.650 C 255.089 84.227, 255.007 82.477, 252.899 75.377 C 251.687 71.295, 249.948 67.093, 249.035 66.041 C 248.122 64.988, 246.503 62.956, 245.438 61.525 C 244.372 60.094, 241.925 57.983, 240 56.834 C 238.075 55.684, 234.025 53.824, 231 52.699 C 226.126 50.887, 222.767 50.620, 201.500 50.360 C 188.300 50.198, 176.938 50.313, 176.250 50.616 M 294.250 51.031 L 292 51.936 292 151.433 C 292 248.779, 292.042 250.952, 293.934 251.965 C 295.140 252.610, 306.761 253, 324.774 253 L 353.679 253 354.839 250.453 C 355.478 249.052, 356 244.131, 356 239.518 C 356 234.905, 355.561 229.976, 355.025 228.565 L 354.050 226 340.775 225.985 C 333.474 225.976, 326.898 225.588, 326.162 225.121 C 325.096 224.445, 324.820 218.430, 324.807 195.528 C 324.792 171.221, 325.022 166.549, 326.298 165.274 C 327.482 164.089, 330.176 163.800, 338.843 163.929 C 348.913 164.079, 349.973 163.919, 350.940 162.112 C 351.523 161.023, 352 155.393, 352 149.601 C 352 140.078, 351.808 138.967, 349.991 137.995 C 348.861 137.390, 343.356 136.988, 337.406 137.075 C 331.589 137.160, 326.393 136.793, 325.859 136.259 C 325.282 135.682, 324.852 124.043, 324.800 107.588 C 324.741 88.812, 325.064 79.536, 325.803 78.797 C 326.495 78.105, 331.577 77.765, 339.697 77.866 C 346.739 77.955, 353.175 77.587, 354 77.050 C 355.197 76.271, 355.500 73.631, 355.500 64 C 355.500 54.357, 355.198 51.736, 354 50.979 C 353.142 50.436, 340.518 50.051, 324.500 50.079 C 309.100 50.105, 295.488 50.534, 294.250 51.031 M 210.250 75.030 C 209.012 75.528, 207.977 76.513, 207.949 77.218 C 207.921 77.923, 207.891 94.647, 207.882 114.383 C 207.872 137.766, 208.227 150.627, 208.900 151.300 C 209.468 151.868, 211.369 152.333, 213.123 152.333 C 215.446 152.333, 217.086 151.468, 219.156 149.151 L 222 145.968 222 113.796 C 222 82.078, 221.968 81.577, 219.750 78.319 C 218.512 76.501, 216.974 75.011, 216.332 75.007 C 215.689 75.003, 214.564 74.803, 213.832 74.563 C 213.099 74.322, 211.488 74.532, 210.250 75.030 M 95.075 121.689 C 94.515 123.718, 93.283 137.344, 92.337 151.969 C 91.391 166.594, 90.914 179.333, 91.277 180.280 C 91.725 181.447, 93.047 182, 95.387 182 C 97.284 182, 99.548 181.727, 100.418 181.393 C 101.579 180.948, 101.997 179.417, 101.990 175.643 C 101.985 172.814, 101.318 164.650, 100.510 157.500 C 99.701 150.350, 99.026 140.900, 99.011 136.500 C 98.995 132.100, 98.699 126.138, 98.352 123.250 C 98.005 120.362, 97.355 118, 96.908 118 C 96.460 118, 95.636 119.660, 95.075 121.689" stroke="none" fill="#0c55fb" fill-rule="evenodd"/><path d="M 79.727 51.416 C 78.949 52.194, 77.805 56.132, 77.185 60.166 C 76.565 64.199, 75.581 72, 74.998 77.500 C 74.415 83, 73.258 93.125, 72.426 100 C 71.595 106.875, 70.260 117.225, 69.460 123 C 68.660 128.775, 67.524 139.125, 66.936 146 C 66.348 152.875, 65.464 159.850, 64.971 161.500 C 64.479 163.150, 63.584 170.350, 62.983 177.500 C 62.382 184.650, 61.439 193.122, 60.887 196.326 C 60.336 199.531, 59.215 208.081, 58.398 215.326 C 57.580 222.572, 56.480 232.325, 55.955 237 C 55.429 241.675, 54.786 246.066, 54.527 246.759 C 54.268 247.451, 54.482 249.138, 55.003 250.509 C 55.945 252.986, 56.022 253, 68.860 253 C 81.417 253, 81.813 252.934, 83.357 250.577 C 84.332 249.090, 85.341 243.974, 85.972 237.327 C 86.536 231.372, 86.999 223.270, 86.999 219.321 C 87 214.130, 87.435 211.708, 88.571 210.571 C 89.668 209.475, 92.049 209, 96.449 209 C 100.992 209, 103.124 209.444, 104.074 210.590 C 104.949 211.644, 105.804 218.453, 106.611 230.811 C 107.736 248.018, 107.997 249.579, 110.025 251.222 C 111.877 252.721, 114.248 253, 125.136 253 C 137.922 253, 138.059 252.976, 138.982 250.548 C 139.543 249.071, 139.566 245.198, 139.038 240.798 C 138.557 236.784, 137.442 227.425, 136.560 220 C 135.678 212.575, 134.529 203.125, 134.006 199 C 133.483 194.875, 132.142 183.191, 131.027 173.036 C 129.911 162.881, 128.771 153.853, 128.491 152.973 C 128.212 152.094, 127.565 147.127, 127.054 141.937 C 126.543 136.747, 125.202 124.850, 124.074 115.500 C 122.947 106.150, 121.556 95.125, 120.983 91 C 120.410 86.875, 119.509 79.225, 118.981 74 C 118.454 68.775, 117.583 61.865, 117.046 58.645 C 116.510 55.425, 115.550 52.162, 114.913 51.395 C 114.009 50.306, 110.178 50, 97.449 50 C 84.721 50, 80.832 50.311, 79.727 51.416 M 176.250 50.616 C 175.262 51.051, 175 72.070, 175 150.883 C 175 227.107, 175.283 250.883, 176.200 251.800 C 177.016 252.616, 181.756 253, 191 253 C 200.244 253, 204.984 252.616, 205.800 251.800 C 206.688 250.912, 207.004 241.349, 207.015 215.050 C 207.024 195.217, 207.436 178.858, 207.949 178.049 C 208.590 177.035, 211.224 176.499, 216.683 176.269 C 220.983 176.088, 227.096 175.286, 230.269 174.486 C 233.442 173.686, 237.492 172.013, 239.269 170.769 C 241.046 169.524, 244.144 166.770, 246.154 164.649 C 248.163 162.528, 250.863 158.027, 252.154 154.646 C 254.416 148.720, 254.511 147.326, 254.801 115.650 C 255.089 84.227, 255.007 82.477, 252.899 75.377 C 251.687 71.295, 249.948 67.093, 249.035 66.041 C 248.122 64.988, 246.503 62.956, 245.438 61.525 C 244.372 60.094, 241.925 57.983, 240 56.834 C 238.075 55.684, 234.025 53.824, 231 52.699 C 226.126 50.887, 222.767 50.620, 201.500 50.360 C 188.300 50.198, 176.938 50.313, 176.250 50.616 M 294.250 51.031 L 292 51.936 292 151.433 C 292 248.779, 292.042 250.952, 293.934 251.965 C 295.140 252.610, 306.761 253, 324.774 253 L 353.679 253 354.839 250.453 C 355.478 249.052, 356 244.131, 356 239.518 C 356 234.905, 355.561 229.976, 355.025 228.565 L 354.050 226 340.775 225.985 C 333.474 225.976, 326.898 225.588, 326.162 225.121 C 325.096 224.445, 324.820 218.430, 324.807 195.528 C 324.792 171.221, 325.022 166.549, 326.298 165.274 C 327.482 164.089, 330.176 163.800, 338.843 163.929 C 348.913 164.079, 349.973 163.919, 350.940 162.112 C 351.523 161.023, 352 155.393, 352 149.601 C 352 140.078, 351.808 138.967, 349.991 137.995 C 348.861 137.390, 343.356 136.988, 337.406 137.075 C 331.589 137.160, 326.393 136.793, 325.859 136.259 C 325.282 135.682, 324.852 124.043, 324.800 107.588 C 324.741 88.812, 325.064 79.536, 325.803 78.797 C 326.495 78.105, 331.577 77.765, 339.697 77.866 C 346.739 77.955, 353.175 77.587, 354 77.050 C 355.197 76.271, 355.500 73.631, 355.500 64 C 355.500 54.357, 355.198 51.736, 354 50.979 C 353.142 50.436, 340.518 50.051, 324.500 50.079 C 309.100 50.105, 295.488 50.534, 294.250 51.031 M 210.250 75.030 C 209.012 75.528, 207.977 76.513, 207.949 77.218 C 207.921 77.923, 207.891 94.647, 207.882 114.383 C 207.872 137.766, 208.227 150.627, 208.900 151.300 C 209.468 151.868, 211.369 152.333, 213.123 152.333 C 215.446 152.333, 217.086 151.468, 219.156 149.151 L 222 145.968 222 113.796 C 222 82.078, 221.968 81.577, 219.750 78.319 C 218.512 76.501, 216.974 75.011, 216.332 75.007 C 215.689 75.003, 214.564 74.803, 213.832 74.563 C 213.099 74.322, 211.488 74.532, 210.250 75.030 M 95.075 121.689 C 94.515 123.718, 93.283 137.344, 92.337 151.969 C 91.391 166.594, 90.914 179.333, 91.277 180.280 C 91.725 181.447, 93.047 182, 95.387 182 C 97.284 182, 99.548 181.727, 100.418 181.393 C 101.579 180.948, 101.997 179.417, 101.990 175.643 C 101.985 172.814, 101.318 164.650, 100.510 157.500 C 99.701 150.350, 99.026 140.900, 99.011 136.500 C 98.995 132.100, 98.699 126.138, 98.352 123.250 C 98.005 120.362, 97.355 118, 96.908 118 C 96.460 118, 95.636 119.660, 95.075 121.689" stroke="none" fill="#f2f5fc" fill-rule="evenodd"/></svg>