<svg xmlns="http://www.w3.org/2000/svg" width="1000" height="1000"><path fill="#0F0F0F" d="M483 0h4a3071 3071 0 0 1 12 0h2c21 0 41 0 62 3l4 1c53 7 103 22 151 45l6 3c21 10 42 22 61 36l2 2c11 7 22 15 32 24l2 1 1 2 2 1 33 31 5 5a277 277 0 0 1 40 47l2 2 23 35 1 2c8 12 15 25 21 38l1 3c31 61 50 133 50 202v18c0 21 0 41-3 62l-1 4c-7 53-22 103-45 151l-3 6c-10 21-22 42-36 61l-2 2c-7 11-15 22-24 32l-1 2-2 1-1 2-31 33-5 5a277 277 0 0 1-47 40l-2 2-35 23-2 1c-12 8-25 15-38 21l-3 1c-61 31-133 50-202 50h-4a3071 3071 0 0 1-12 0h-2c-21 0-41 0-62-3l-4-1c-53-7-103-22-151-45l-6-3c-21-10-42-22-61-36l-2-2c-11-7-22-15-32-24l-2-1-1-2-2-1-33-31-5-5a277 277 0 0 1-40-47l-2-2-23-35-1-2c-8-12-15-25-21-38l-1-3C19 658 0 586 0 517v-4a3071 3071 0 0 1 0-12v-2c0-21 0-41 3-62l1-4c7-53 22-103 45-151l3-6c10-21 22-42 36-61l2-2c7-11 15-22 24-32l1-2 2-1 1-2 31-33 5-5a277 277 0 0 1 47-40l2-2 35-23 2-1c12-8 25-15 38-21l3-1C342 19 414 0 483 0"/><path fill="#C3D86E" d="M511 289c7 8 14 20 15 31 0 16 0 31-8 45l-1 3c-6 10-14 18-25 22-8 2-16 1-23-2-6-4-10-9-13-16-1-9-1-9 2-12l5-5c6-5 10-10 14-17l1-2c3-6 3-11 3-17v-2c0-5-1-8-3-12-3-3-6-4-10-4-8 0-14 4-19 10-11 13-17 29-22 45l-1 2c-8 22-14 44-20 66a2377 2377 0 0 1-9 30l3-1c21-4 43-5 61 7 6 5 11 11 12 19 1 5 0 9-3 13-4 3-6 3-10 3h-11a1985 1985 0 0 1-11 0h-19l-35 1v2l-4 14v3l-1 4-1 3a499 499 0 0 1-7 22l-4 16a658 658 0 0 1-20 67l-1 3a950 950 0 0 0-3 11c-8 24-17 47-28 70l-1 3c-5 10-12 19-23 24-8 2-18 2-26 0-4-2-6-5-8-9 0-8 3-14 6-21a501 501 0 0 0 39-104c2-3 2-7 3-10a407 407 0 0 1 6-19 642 642 0 0 0 14-48l1-3 5-18-8 2h-3l-2 1-2 1-4 1c-5 1-9 1-13-1-5-4-8-7-8-13 0-5 2-7 5-10 12-9 33-22 49-22v-3l3-11 1-4 1-2a1025 1025 0 0 0 10-36c6-21 12-42 21-62l1-2c11-27 27-52 54-65 25-9 54-7 75 9"/><path fill="#AFC45D" d="m584 429 4 6v14c0 16 0 31 2 47v3l2 17 1 2 1 3 2-3c6-11 13-21 21-31l1-2c18-22 44-50 74-56 13-1 25 0 35 9l3 6c-1 3-1 3-4 5l-9 5c-14 7-27 16-39 26l-4 3a225 225 0 0 0-22 21 154 154 0 0 0-22 22l-11 12-1 2a1643 1643 0 0 0-10 11l-2 3-2 4a177 177 0 0 0 3 8v3l1 3 6 18c1 7 5 13 8 20l2 3c4 8 9 16 17 20l8 1h2c7-1 11-3 17-6 4-2 7-2 12-1 2 2 1 4 1 6 0 12-6 21-14 29l-13 7-2 1c-12 6-25 7-38 3-11-5-20-15-27-25l-2-2-16-32-1-2-2-7-9 11-21 26a346 346 0 0 0-4 5c-14 15-14 15-22 18v2l-6 4-3 1c-6 3-11 4-17 2s-11-5-14-11v-9l8-7a703 703 0 0 0 5-4l2-2a315 315 0 0 0 60-60c5-6 5-6 6-13l-3-11-7-24-1-2-3-14-1-3a151 151 0 0 1-3-34c0-12 2-22 10-32 11-11 24-22 41-19"/></svg>