<svg xmlns="http://www.w3.org/2000/svg" width="256" height="256" fill="none"><path fill="#E81899" d="m248 196-43-59c-5-6-12-10-19-11a5 5 0 0 1-5-7c3-7 3-15 0-22l-29-68a27 27 0 0 0-50 0L72 97c-3 7-3 15 0 22v5l-4 2c-8 1-15 5-19 11L5 196a27 27 0 0 0 25 44l73-8c8-1 15-5 19-11a5 5 0 0 1 9 0c5 6 11 10 19 11l73 8a27 27 0 0 0 25-44M91 105l30-67a7 7 0 0 1 12 0l29 67a7 7 0 0 1-6 10H98a7 7 0 0 1-7-10m15 102c-1 3-3 4-5 4l-73 8a7 7 0 0 1-6-10l44-59a7 7 0 0 1 11 0l29 51zm27-22a7 7 0 0 1-12 0l-23-39a7 7 0 0 1 6-11h45a7 7 0 0 1 6 11zm99 31c-1 2-4 4-7 3l-73-8a7 7 0 0 1-5-10l29-51a7 7 0 0 1 12 0l43 59c2 2 2 5 1 7"/></svg>