<svg xmlns="http://www.w3.org/2000/svg" width="319" height="319" fill="none" viewBox="0 0 319 319"><g clip-path="url(#a)"><path fill="#000" d="M159.5 319c88.089 0 159.5-71.411 159.5-159.5C319 71.41 247.589 0 159.5 0 71.41 0 0 71.41 0 159.5 0 247.589 71.41 319 159.5 319"/><path fill="#606060" d="M102.53 221.556h57.655v-52.311H102.53z"/><path fill="url(#b)" fill-opacity=".6" d="M102.53 221.556h57.655v-52.311H102.53z"/><path fill="#C1C1C1" d="M160.183 221.556h57.655v-52.311h-57.655z"/><path fill="url(#c)" fill-opacity=".5" d="M160.183 221.556h57.655v-52.311h-57.655z"/><path fill="#F4F4F4" d="M160.183 41 66 95.376l94.183 54.376 94.181-54.376z"/><path fill="#07F7BD" d="M207.274 209.951h-94.183v54.377l47.092 27.188 47.091-27.188z"/><path fill="url(#d)" fill-opacity=".5" d="M207.274 209.951h-94.183v54.377l47.092 27.188 47.091-27.188z"/><path fill="#6D6D6D" d="m160.183 291.516 47.09-27.188v-54.377h-47.09z"/><path fill="#07F7BD" d="m160.193 291.507 47.365-27.032v-54.529l-47.365.467z"/><path fill="url(#e)" d="m160.193 291.507 47.365-27.032v-54.529l-47.365.467z"/><path fill="#07F7BD" d="m160.183 182.765-47.092 27.188 47.092 27.187 47.091-27.187z"/><path fill="#1A1A1A" d="m160.183 149.752 94.181-54.376v108.752l-47.091 27.188V176.94l-47.09 27.188z"/><path fill="url(#f)" fill-opacity=".5" d="m160.183 149.752 94.181-54.376v108.752l-47.091 27.188V176.94l-47.09 27.188z"/><path fill="#DFDFDF" d="M160.182 149.752 66 95.376v108.752l47.09 27.188V176.94l47.092 27.188z"/><path fill="url(#g)" fill-opacity=".2" d="M160.182 149.752 66 95.376v108.752l47.09 27.188V176.94l47.092 27.188z"/><path fill="#F4F4F4" d="M113.091 68.189 66 95.377l94.183 54.375 94.182-54.375-47.091-27.188-47.091 27.188z"/><path fill="#DFDFDF" d="M160.212 41.014 112.76 68.409l47.452 27.396 47.451-27.396z"/><path fill="url(#h)" fill-opacity=".2" d="M160.212 41.014 112.76 68.409l47.452 27.396 47.451-27.396z"/></g><defs><linearGradient id="b" x1="131.357" x2="131.357" y1="169.245" y2="221.556" gradientUnits="userSpaceOnUse"><stop/><stop offset=".545" stop-opacity="0"/></linearGradient><linearGradient id="c" x1="218.14" x2="180.463" y1="200.223" y2="173.311" gradientUnits="userSpaceOnUse"><stop stop-opacity="0"/><stop offset="1"/></linearGradient><linearGradient id="d" x1="113.365" x2="198.047" y1="262.657" y2="272.345" gradientUnits="userSpaceOnUse"><stop stop-opacity="0"/><stop offset="1"/></linearGradient><linearGradient id="e" x1="138.843" x2="224.829" y1="208.834" y2="253.202" gradientUnits="userSpaceOnUse"><stop stop-color="#000001" stop-opacity="0"/><stop offset="1" stop-color="#000001"/></linearGradient><linearGradient id="f" x1="207.273" x2="335.474" y1="95.376" y2="253.327" gradientUnits="userSpaceOnUse"><stop stop-opacity="0"/><stop offset="1"/></linearGradient><linearGradient id="g" x1="86.417" x2="160.182" y1="132.548" y2="219.814" gradientUnits="userSpaceOnUse"><stop stop-opacity="0"/><stop offset="1"/></linearGradient><linearGradient id="h" x1="160.212" x2="215.296" y1="41.014" y2="96.097" gradientUnits="userSpaceOnUse"><stop stop-opacity="0"/><stop offset="1"/></linearGradient><clipPath id="a"><path fill="#fff" d="M0 0h319v319H0z"/></clipPath></defs></svg>