<svg xmlns="http://www.w3.org/2000/svg" width="250" height="250"><path fill="#0099fd" d="M0 0h250v250H0z"/><path fill="#d7c6a8" d="m168 65-9 10 5.313-1c5.952-1.005 11.666-1.213 17.688-1v2c-2.187 1.508-2.187 1.508-5 3.125l-2.812 1.633L172 81h7c-3.875 4.875-3.875 4.875-5 6l2.09-.105c6.595-.19 11.814.576 17.91 3.105-3.179 3.5-6.764 4.986-11 7l9 3-1 2 15 7v1l-6 2 1.758 1.766c8.034 8.432 14.269 18.553 16.242 30.234l-1 3-7-9 1 4q.304 2.16.535 4.328l.264 2.422.264 2.5.275 2.547L213 160l-3-4-.402 3.543-.535 4.645-.264 2.33c-.448 3.87-.952 7.674-1.799 11.482h-2l-5-12-.551 3.656-.762 4.844-.357 2.398c-.857 5.36-2.071 10.148-4.33 15.102l-3 1-1-2c-3.445 3.096-5.35 6.921-7.598 10.918L181 204h-2l-1-12-3.437 4.938C168.795 204.841 162.131 212.889 153 217h-3v-7l-1.215 1.172C143.305 216.192 137.602 220 130 220v-2c-4.689 2.545-8.093 5.788-11.562 9.813C117 229 117 229 113 229v-28h-2l.035 2.301.027 3.012.035 2.988C111 212 111 212 110 215h-2a68 68 0 0 1-3.125-3.687c-3.535-4.19-7.111-6.638-11.875-9.312l3 11c-11.187-4.954-23.621-13.774-28.437-25.5L67 185h-2l1 2a95 95 0 0 1 .063 5.125l-.027 2.758L66 197c-7.71-7.009-12.517-15.249-16-25l-5 16c-3-3-3-3-3.328-6.066l.078-3.496.047-3.504C42 172 42 172 43 170H31c2-4 2-4 3.813-5.687 3.159-3.339 5.073-7.257 7.188-11.312l-1.812 1.563L38 156l-3-1 .875-2.152L37 150.063l1.125-2.777c.935-2.033.935-2.033.875-3.285l-1.715 1.531-2.223 1.969-2.215 1.969C31 151 31 151 30 151c.307-9.2 3.937-16.405 9-24l-1.863 1.094-2.449 1.406-2.426 1.406C30 132 30 132 27 132c3.486-10.352 8.388-18.136 18.125-23.562 3.748-1.663 6.817-1.776 10.875-1.437.226-5.419-.533-9.775-2-15 3.525 1.906 5.908 3.549 8 7 .36 1.326.698 2.659 1 4l-.035-3.727-.027-4.898-.025-2.449c-.019-4.43.191-8.566 1.087-12.927h2l2.93 5.371c.984 1.795.984 1.795 3.07 2.629l-1-7c1.938.813 1.938.813 4 2l1 3h2l-5-11c3.192.798 5.393 1.586 8.25 3.063l2.141 1.098L85 79v3h2l-2-6c4.75 1.875 4.75 1.875 7 3l-1.059-2.117L86 67c5.52.345 8.655 1.758 13.105 5.039 1.858 1.168 1.858 1.168 3.992.676 2.053-.771 3.97-1.68 5.902-2.715v4l4-2v3l2.375-1.5C118 72 118 72 120 72l1 4 6-5 4 4 2.188-1.937c2.794-2.049 4.429-2.676 7.813-3.062l-2 5 9-7 2 1 1 3 1.539-1.242c9.776-7.653 9.776-7.653 15.461-5.758z"/><path fill="#1c0c0a" d="M126 92c1.906 3.212 2.223 5.539 2.125 9.25l-.055 2.703L128 106h3l1 6 3-3 2 5 2.313-2.25c4.234-3.545 9.355-5.461 14.688-6.75l3 1-2 2 3.375-.125C162 108 162 108 164 110l-2 1 2.012.918c7.943 3.769 12.431 8.194 17.57 15.223 1.637 2.147 3.477 3.987 5.418 5.859 2.024 3.035 2.321 4.194 2.625 7.688l.227 2.449L190 145l-1.867.867c-2.291 1.083-2.291 1.083-4.258 3.258L182 151h-2v2l-1.863.184-2.449.254-2.426.246c-2.423.269-2.423.269-5.262 1.316-2.043-.559-2.043-.559-4.187-1.437l-2.168-.871L160 152l1.129 2.082 1.434 2.73 1.441 2.707C165 162 165 162 164 165l-1.066-2.09c-5.295-10.93-5.295-10.93-13.934-18.91.564 3.27 1.5 4.826 4 7l-1 3 1 3h-2l4 8c-6.26-1.802-10.275-3.518-15-8l1.5 2.25C143 162 143 162 143 166l1 2c-4.419-1.35-6.343-3.261-9-7 4.183 7.942 8.984 11.267 17 15l5.688 2.875L162 181c-3.726 1.242-5.091.276-8.496-1.4l-2.129-1.1-2.186-1.117c-8.767-4.592-15.457-10.386-22.244-17.562-1.909-2.04-1.909-2.04-4.945-2.82l-2 6-1-4-3 1-1-3-1.434 1.32c-7.243 6.523-14.949 11.446-23.504 16.055l-2.01 1.086C83.248 178 83.248 178 81 178v-2l3.324-1.574 4.363-2.113 2.186-1.029c4.551-2.224 7.759-4.49 11.127-8.283l-5 2c0-3.999 1.726-5.802 4-9l-1.68 1.094-2.195 1.406-2.18 1.406C93 161 93 161 91 161c1.642-4.776 4.265-8.794 7-13-2.244-.228-2.244-.228-4.125 2L92 152l-2-1a125 125 0 0 1 4-6h2v-3l-1.687.875C92 144 92 144 89.625 144.625c-3.45 1.807-4.925 4.252-7.133 7.398-1.853 2.455-3.987 4.208-6.492 5.977l2-6c-3.265-1.884-6.281-2.493-10-3v-2l-1.937-.437C64 146 64 146 63 145c-.755-4.803-1.027-9.225 1.457-13.52a121 121 0 0 1 3.816-4.488c1.928-2.032 1.928-2.032 3.164-5.18 3.01-5.419 8.7-8.98 14.563-10.812l-2-2 11-1-3-3c6.194.961 12.4 2.463 17 7v4c2.416-.031 2.416-.031 5-1 1.859-2.967 1.859-2.967 3-6l2 4 1-3 2-1a109 109 0 0 0 1.563-7.437c1.331-7.349 1.331-7.349 2.438-9.562z"/><path fill="#d7c6a8" d="M86 67c5.52.345 8.655 1.758 13.105 5.039 1.858 1.168 1.858 1.168 3.992.676 2.053-.771 3.97-1.68 5.902-2.715v4l4-2v3l2.375-1.5C118 72 118 72 120 72l1 4 5-4 2 2c-.273 8.483-1.84 16.548-6 24h-3l-1 5h-2l-2 3c-2.848-.407-4.763-.84-7.168-2.465-3.566-1.933-6.988-2.366-10.957-2.785l-2.168-.273c-3.293-.382-5.526-.537-8.707.523l2 2-1.715.953-2.223 1.297-2.215 1.266c-2.166 1.74-2.484 2.78-2.848 5.484l2 1h-2v3l-2.312 1.813c-3.101 2.524-3.966 4.606-5.687 8.188l-3.187 3.688C63.036 134.49 63.418 139.134 64 145l4 2v2l3.813-.187c3.89.007 3.89.007 6.25 1.438C79 152 79 152 78 156l8-9-1-2 3.188-.875c3.041-.897 5.9-1.889 8.813-3.125l-1 4h-2c-1.573 2.842-1.573 2.842-2 6l5-5 2 1c-1.326 3.623-2.943 6.635-5.125 9.813l-1.633 2.395L91 161l1.68-1.094 2.195-1.406 2.18-1.406C99 156 99 156 101 156c-1.125 2.972-2.223 5.334-4 8l6-2c-2.996 7.316-12.141 10.925-19 14h-3v3l4-1v3l1.957 1.195C89 184 89 184 89.574 187.617l.113 4.258c.197 6.613.197 6.613 1.313 13.125h-2l-2.5-4.375-1.406-2.461C84 196 84 196 84 194h-2l-.551-1.934-.762-2.504-.738-2.496L79 185l-3-1c.551 5.239 1.429 9.974 3 15-3.358-3.005-5.046-5.84-6.875-9.937-1.765-3.701-3.131-6.526-6.437-9-3.131-2.403-3.163-3.315-3.687-7.062l-.062 5.25-.035 2.953c.086 2.454.391 4.459 1.098 6.797a90 90 0 0 1-4-4v-2h-2l-2-4.875-1.125-2.742C53 172 53 172 53 170h-3v-6h-2v-5l-1.539 1.242-2.086 1.633-2.039 1.617C40 165 40 165 34 167l8-14-4 3-3-1 .875-2.152L37 150.063l1.125-2.777c.935-2.033.935-2.033.875-3.285l-1.715 1.531-2.223 1.969-2.215 1.969C31 151 31 151 30 151c.307-9.2 3.937-16.405 9-24l-1.863 1.094-2.449 1.406-2.426 1.406C30 132 30 132 27 132c3.486-10.352 8.388-18.136 18.125-23.562 3.748-1.663 6.817-1.776 10.875-1.437.226-5.419-.533-9.775-2-15 3.525 1.906 5.908 3.549 8 7 .36 1.326.698 2.659 1 4l-.035-3.727-.027-4.898-.025-2.449c-.019-4.43.191-8.566 1.087-12.927h2l2.93 5.371c.984 1.795.984 1.795 3.07 2.629l-1-7c1.938.813 1.938.813 4 2l1 3h2l-5-11c3.192.798 5.393 1.586 8.25 3.063l2.141 1.098L85 79v3h2l-2-6c4.75 1.875 4.75 1.875 7 3l-1.059-2.117z"/><path fill="#35261f" d="M126 92c1.906 3.212 2.223 5.539 2.125 9.25l-.055 2.703L128 106h3l1 6 3-3 2 5 2.313-2.25c4.234-3.545 9.355-5.461 14.688-6.75l3 1-2 2 3.375-.125C162 108 162 108 164 110l-2 1 2.082.953 2.73 1.297 2.707 1.266c2.59 1.55 3.862 2.968 5.48 5.484l-5-2-2 4-2-7h-2l1 2c.376 4.981.177 8.057-3 12-3.561 2.951-6.585 3.489-11.074 3.277-3.012-.434-4.645-1.257-6.926-3.277-1.267-2.298-2.109-4.513-3-7-2.199 2.668-2.199 2.668-1.937 4.938 1.492 3.283 2.731 4.302 5.938 6.063 6.925.894 12.922.492 19-3 1.88-1.54 1.88-1.54 3-3-.062 1.75-.062 1.75-1 4-4.54 3.216-8.514 4.559-13.984 5.41-2.389.699-3.416 1.722-5.016 3.59-6.875-3.75-6.875-3.75-8-6l-2.875-.437c-3.422-.616-3.888-1.131-6.125-3.562-4.031-2.371-7.429-2.034-11.914-1.582-2.498.697-3.305 1.741-5.086 3.582-2.199 1.027-2.199 1.027-4.687 1.938-3.341 1.253-6.398 2.618-9.5 4.375-3.88 2.006-6.544 1.755-10.812.688l-2.437-.562L84 138v-3l-4-1c1.625-1.625 1.625-1.625 4-3l6 2c7.5.761 12.84.48 19-4-.567-4.13-.567-4.13-2-8l-.75 3.313c-1.334 3.936-1.769 4.713-5.25 6.688-5.459.901-10.372.957-15.187-1.875-2.571-4.432-2.608-8.021-2.812-13.125l-2 10h-1v-9c-2.629 1.522-4.844 2.844-7 5 .388-2.398.687-3.696 2.453-5.414 3.416-2.302 6.603-4.271 10.547-5.586l-2-2 11-1-3-3c6.194.961 12.4 2.463 17 7v4c2.416-.031 2.416-.031 5-1 1.859-2.967 1.859-2.967 3-6l2 4 1-3 2-1a109 109 0 0 0 1.563-7.437c1.331-7.349 1.331-7.349 2.438-9.562z"/><path fill="#261b18" d="M52 45c5.104.595 9.196 2.2 13.813 4.313l4.273 1.922 2.054.932c2.249 1.008 4.524 1.948 6.798 2.896 6.424 2.888 11.968 6.633 16.813 11.75 2.056 2.142 3.154 3.147 5.938 4.313 2.945-.159 4.022-1.352 6.313-3.125 2.25.313 2.25.313 4 1l-1 2 7 1c-1.375 1.5-1.375 1.5-3 3h-2l-1-2-3 1v-4l-2.187 2.063C104 74 104 74 101.563 74 99 73 99 73 96.063 71c-3.179-2.076-5.327-2.644-9.062-3l1.094 1.645 1.406 2.168 1.406 2.145C92 76 92 76 92 79l-6-2 1 5h-2v-3c-3.622-1.491-7.276-2.787-11-4l.875 1.68L76 78.875l1.125 2.18C78 83 78 83 78 85c-2 0-2 0-4.625-2.5L71 80l1 7c-1.875-.625-1.875-.625-4-2-1.25-3.125-1.25-3.125-2-6h-2v26c-2.879-2.879-3.728-6.183-5-10-2.015-.733-2.015-.733-4-1l1 2.438c1.207 4.301 1.177 8.132 1 12.563l-1-2c-9.975 1.186-16.334 5.273-22.68 12.988-2.456 3.742-3.823 7.808-5.32 12.012l12-6-3.473 6.734c-3.096 5.873-5.271 10.6-5.527 17.265l3.313-2.812 1.863-1.582A88 88 0 0 0 41 141c-1.535 4.722-3.239 9.359-5 14l3-1 3-1a101 101 0 0 1-2 6l-2 1v-2l-6 2c.672-3.806 1.727-7.352 3-11l-7 6-.125-6.75-.07-3.797c.18-3.181.505-4.818 2.195-7.453h-5c-1.564-5.544-.438-9.921 2-15l3-3 1-3h3l.25-1.875C35 112 35 112 37.063 110.75L39 110v-2c5.75-3 5.75-3 8-3V80h2l-.035-2.047-.027-2.703-.035-2.672C49 70 49 70 49.489 68.119c.541-2.242.701-4.292.793-6.595l.113-2.531.211-5.258.113-2.523.092-2.303C51 47 51 47 52 45"/><path fill="#27140b" d="M198 47c1.645 2.117 1.645 2.117 3 5l1.387 2.883c4.867 12.131 5.117 24.38 2.07 37.035-.62 2.831-.793 5.563-.831 8.457l-.086 3.023c.203 2.752.203 2.752 2.484 4.328L208 109v2l-4 1c1.327 2.855 2.84 5.178 4.813 7.625C215.981 129.137 220 139.978 220 152h-2l-4-7h-1v10h-1l-.621-3.43-.816-4.445-.408-2.262c-.7-4.049-.7-4.049-2.154-7.863 3.825 1.558 6.148 4.072 9 7-3.762-12.848-8.886-22.997-18-33l5-2-15-7 2-2-9-2c3.287-3.813 6.397-5.23 11-7-7.061-3.323-13.272-3.318-21-3l6-6h-8c2.792-3.285 6.232-5.013 10-7h2v-2l-8.625.938-2.449.264c-4.336.476-8.63 1.027-12.926 1.799l2.813-3.812 1.582-2.145A46.6 46.6 0 0 1 167 65c-6.699 1.658-11.607 3.662-17 8-.625-1.875-.625-1.875-1-4l2-2 1 2 3-2.312c2.644-1.911 5.029-3.169 8.125-4.187 2.962-1.006 3.938-1.563 6.25-3.875C175.405 52.595 189.283 45.458 198 47"/><path fill="#aa9b7e" d="M206 144h2l.586 1.863.789 2.449.773 2.426c.84 2.489.84 2.489 2.852 5.262-.375 2.188-.375 2.188-1 4l-2-4-.402 3.543-.535 4.645-.264 2.33c-.448 3.87-.952 7.674-1.799 11.482h-2l-5-12-.551 3.656-.762 4.844-.357 2.398c-.857 5.36-2.071 10.148-4.33 15.102l-3 1-1-2c-3.445 3.096-5.35 6.921-7.598 10.918L181 204h-2l-1-12-3.437 4.938C168.795 204.841 162.131 212.889 153 217h-3v-7l-1.215 1.172C143.305 216.192 137.602 220 130 220v-2c-4.689 2.545-8.093 5.788-11.562 9.813C117 229 117 229 113 229v-25c1.791 2.686 2.661 4.663 3.625 7.688l.789 2.449L118 216c4.516-2.37 7.562-5.395 10.938-9.125l1.599-1.754c5.795-6.459 10.35-12.991 13.463-21.121h2l-.937 3.438c-1.132 4.487-1.658 8.96-2.062 13.563l2.313-2.375C148 196 148 196 151 194l-1 7 2.938-2.375 1.652-1.336c1.543-1.256 1.543-1.256 2.41-3.289h2l1-2v7l1-2.062c1.877-2.757 3.526-4.334 6.063-6.437 3.075-2.579 4.961-4.474 5.938-8.5h2l1-2c.125 7.75.125 7.75-1 10h2l2-6c1.008 3.023 1.507 5.855 2 9l1 6c3.433-7.924 5.719-15.367 7.011-23.881.272-1.717.623-3.42.989-5.119l2-1-.035 3.211-.027 4.164-.025 2.117c-.096 3.881-.096 3.881 1.088 7.508 2.153-5.023 3.082-9.635 3.316-15.082l.127-2.822.119-2.908.131-2.967L197 155h2l.262 1.723c1.084 5.959 2.933 9.571 6.738 14.277 1.578-9.074 1.086-17.887 0-27"/><path fill="#6c574d" d="M83 115h1l.078 2.266.172 2.984.141 2.953c.764 3.504 1.706 4.712 4.609 6.797 2.9.631 2.9.631 6 .5l3.125.031c3.536-.653 4.705-1.712 6.875-4.531.803-3.145.803-3.145 1-6 2.523 1.974 2.993 2.967 3.688 6.188L110 129c-4.757 3.986-7.692 5.149-13.875 5.188l-3.117.043c-3.069-.235-5.189-1.067-8.008-2.23-2.286.766-2.286.766-4 2l3 1v3c6.649.982 11.034 1.58 17-2l3 1 4 1v2l2 1-2 6 5-2 .375 2.438L114 150l2 1c-2.161 3.98-4.627 6.973-8 10h-2v2c-3 1-3 1-6 1l-3 1c0-3.999 1.726-5.802 4-9l-1.68 1.094-2.195 1.406-2.18 1.406C93 161 93 161 91 161c1.642-4.776 4.265-8.794 7-13-2.244-.228-2.244-.228-4.125 2L92 152l-2-1a125 125 0 0 1 4-6h2v-3l-1.687.875C92 144 92 144 89.625 144.625c-3.45 1.807-4.925 4.252-7.133 7.398-1.853 2.455-3.987 4.208-6.492 5.977l2-6c-3.265-1.884-6.281-2.493-10-3v-2l-1.937-.437C64 146 64 146 63 145c-.76-4.834-1.026-9.243 1.492-13.555a90 90 0 0 1 3.781-4.375c1.878-2.252 2.654-4.366 3.727-7.07 3.313-1.831 5.14-2 9-2z"/><path fill="#6e5649" d="M164 115h2l2 4 2-2c4.476 1.368 6.291 3.242 9 7 1.957 2.507 3.876 4.876 6.125 7.125 3.081 3.081 4.131 5.313 4.5 9.563l.227 2.449L190 145l-1.867.867c-2.291 1.083-2.291 1.083-4.258 3.258L182 151h-2v2l-1.863.184-2.449.254-2.426.246c-2.423.269-2.423.269-5.262 1.316-2.043-.559-2.043-.559-4.187-1.437l-2.168-.871L160 152l1.129 2.082 1.434 2.73 1.441 2.707C165 162 165 162 164 165l-1.172-2.195c-3.333-6.264-3.333-6.264-7.141-12.242-1.514-2.298-2.274-3.873-2.687-6.562l5-1-3-2 2-1-7-3v-1l2.555-.586 3.32-.789 3.305-.773c2.924-.641 2.924-.641 4.82-2.852l-2.75 1.5c-5.249 2.208-10.67 2.473-16.25 1.5-2.816-1.63-4.906-3.522-7-6 .498-3.688 1.101-5.605 4-8l.813 3.313c1.281 3.996 1.281 3.996 4.188 6.688 3.213 1.607 6.515 1.478 10 1 4.724-2.436 4.724-2.436 7-7 .067-1.561.085-3.125.063-4.687l-.027-2.449z"/><path fill="#a99b82" d="M48 158c1 3 1 3 0 6h2v6h3l2 4.313 1.125 2.426C57 179 57 179 57 182h2l3 4-1-2-.062-6.125.027-3.32L61 172l2 1 .75 2.75c1.011 3.452 1.011 3.452 4.086 5.496 3.551 2.828 5.19 5.986 7.039 10.066l.93 1.955L78 198l-.656-2.012-.844-2.676-.844-2.637c-.655-2.67-.775-4.94-.656-7.676 2.676 1.006 3.779 1.542 5.047 4.164l.703 2.461.734 2.477L82 194h2l5 9v-22h2l.883 2.527C94.548 190.845 97.374 198.374 103 204l1-4h2l1 4h2l-.187-2.562c.228-4.174 1.39-6.692 3.188-10.437h1v10h-2l.035 2.301.027 3.012.035 2.988C111 212 111 212 110 215h-2a68 68 0 0 1-3.125-3.687c-3.535-4.19-7.111-6.638-11.875-9.312l3 11c-11.187-4.954-23.621-13.774-28.437-25.5L67 185h-2l1 2a95 95 0 0 1 .063 5.125l-.027 2.758L66 197c-7.71-7.009-12.517-15.249-16-25l-5 16c-3-3-3-3-3.328-6.066l.078-3.496.047-3.504C42 172 42 172 43 170H31c2-4 2-4 3.871-4.633L37 165a77 77 0 0 0 4.063-1.875l2.035-.992c1.965-1.17 3.362-2.454 4.902-4.133"/><path fill="#ad9c80" d="M127 80h2l.148 3.359.227 4.391.094 2.211c.209 3.826.519 6.756 2.531 10.039l1.438 3.688L135 107l3 1v2h2l.625-2.25c1.812-3.623 3.814-4.898 7.375-6.75a72 72 0 0 1 4 1q2.502-.045 5-.187c4.686-.069 4.686-.069 7.375 2.125L166 106c2.138.787 2.138.787 4 1l.188 2.313c.582 2.918.582 2.918 3.375 4.5L176 115l-2 4-1.176-1.363c-2.199-1.973-4.254-2.786-7.012-3.824l-2.73-1.043L161 112l1-3h-9l1-3c-6.811 2.205-12.392 4.514-18 9l-2-4-3 4v-9h-3l-.184-2.117-.254-2.758-.246-2.742c-.186-2.394-.186-2.394-1.316-4.383l-3 15-3 1c-.733 2.015-.733 2.015-1 4l-2-3-1.187 2.438C114 116 114 116 111.313 116.813L109 117l-2-3h2c-2.976-3.372-5.5-4.833-9.75-6.25l-2.984-1.016L94 106l2 3-10 1 1 2-9 3c-.437-3.187-.437-3.187 0-7 1.708-1.614 3.424-2.707 5.469-3.859L85 103v-3c6.213-2.186 15.442-.502 21.434 2.027 1.554.939 3.066 1.949 4.566 2.973h3l2-5h2l1-2h3c2.104-5.933 3.76-11.828 5-18"/><path fill="#2b1912" d="M198 47c1.645 2.117 1.645 2.117 3 5l1.387 2.883c4.867 12.131 5.117 24.38 2.07 37.035-.62 2.831-.793 5.563-.831 8.457l-.086 3.023c.203 2.752.203 2.752 2.484 4.328L208 109v2l-4 1c1.327 2.855 2.84 5.178 4.813 7.625C215.981 129.137 220 139.978 220 152h-2l-4-7h-1v10h-1l-.621-3.43-.816-4.445-.408-2.262c-.7-4.049-.7-4.049-2.154-7.863 3.825 1.558 6.148 4.072 9 7-3.762-12.848-8.886-22.997-18-33l5-2-13-6 2-2h4v-3h-3c1-3 1-3 3-6l2-1-1.523-1.242C196 88 196 88 195.961 86.055l.414-2.18c.853-5.757.723-11.191-1.5-16.625-1.098-2.824-.727-4.384.125-7.25l1-2-2-1h2l1-8c-5.706 1.802-11.302 3.826-16.875 6l-1.983.754C173.474 57.56 173.474 57.56 170 61v3l-1.937.25C161.397 65.882 155.545 69.019 150 73c-.625-1.875-.625-1.875-1-4l2-2 1 2 3-2.312c2.644-1.911 5.029-3.169 8.125-4.187 2.962-1.006 3.938-1.563 6.25-3.875C175.405 52.595 189.283 45.458 198 47"/><path fill="#14181a" d="M92 105c6.194.961 12.4 2.463 17 7 0 3.113-.174 5.108-1 8l4 1 1.063 4.375.598 2.461C114 130 114 130 113 132c-2.004.93-2.004.93-4.562 1.875-3.379 1.276-6.485 2.658-9.625 4.438-3.88 2.006-6.544 1.755-10.812.688l-2.437-.562L84 138v-3l-4-1c1.625-1.625 1.625-1.625 4-3l6 2c7.5.761 12.84.48 19-4-.567-4.13-.567-4.13-2-8l-.75 3.313c-1.334 3.936-1.769 4.713-5.25 6.688-5.459.901-10.372.957-15.187-1.875-2.571-4.432-2.608-8.021-2.812-13.125l-2 10h-1v-9c-2.629 1.522-4.844 2.844-7 5 .388-2.398.687-3.696 2.453-5.414 3.416-2.302 6.603-4.271 10.547-5.586l-2-2 11-1-3-3z"/><path fill="#68524f" d="M136 137c5.379.394 9.208 2.219 13 6 .75 2.625.75 2.625 1 5 1.458 1.794 1.458 1.794 3 3l-1 3 1 3h-2l4 8c-6.26-1.802-10.275-3.518-15-8l1.5 2.25C143 162 143 162 143 166l1 2c-4.419-1.35-6.343-3.261-9-7 4.183 7.942 8.984 11.267 17 15l5.688 2.875L162 181c-3.727 1.242-5.092.275-8.497-1.401l-2.128-1.099-2.173-1.109C133.878 169.375 133.878 169.375 131 162a120 120 0 0 1-1-8l-1-6h3v-6c3.875 1.875 3.875 1.875 5 3z"/><path fill="#1b3044" d="M206 144h2l.586 1.863.789 2.449.773 2.426c.84 2.489.84 2.489 2.852 5.262-.375 2.188-.375 2.188-1 4l-2-4-.402 3.543-.535 4.645-.264 2.33c-.448 3.87-.952 7.674-1.799 11.482h-2l-5-12-.551 3.656-.762 4.844-.357 2.398c-.857 5.36-2.071 10.148-4.33 15.102l-3 1-1-2c-3.445 3.096-5.35 6.921-7.598 10.918L181 204h-2l-1-12-3.437 4.938C168.795 204.841 162.131 212.889 153 217h-3v-7l-1.215 1.172C143.305 216.192 137.602 220 130 220v-2c-3.997 2.17-6.874 4.71-10 8l-3 3-2-1 1.941-1.871C124.805 218.43 131.425 211.066 136 201c1.196 3.589.673 4.924-.375 8.5l-.836 2.906L133 218c7.327-3.724 14.01-7.289 20-13 1.534 3.069.55 5.701 0 9 12.018-7.84 19.675-17.177 26-30 1.008 3.023 1.507 5.855 2 9l1 6c3.433-7.924 5.719-15.367 7.011-23.881.272-1.717.623-3.42.989-5.119l2-1-.035 3.211-.027 4.164-.025 2.117c-.096 3.881-.096 3.881 1.088 7.508 2.153-5.023 3.082-9.635 3.316-15.082l.127-2.822.119-2.908.131-2.967L197 155h2l.262 1.723c1.084 5.959 2.933 9.571 6.738 14.277 1.578-9.074 1.086-17.887 0-27"/><path fill="#111619" d="m173 117 2 3-5-2-2 4-2-7h-2l1 2c.376 4.981.177 8.057-3 12-3.561 2.951-6.585 3.489-11.074 3.277-3.012-.434-4.645-1.257-6.926-3.277-1.267-2.298-2.109-4.513-3-7l-3 3c.658-4.115 2.536-7.682 5-11 8.902-5.76 22.188-3.288 30 3"/><path fill="#2d160d" d="m54 49 8 3v2l1.758.332c6.073 1.233 11.056 2.539 15.617 6.98C81.324 64.536 81.232 66.29 81 70a87 87 0 0 0 1 5l-1.398-1.102c-4.58-3.53-9.267-6.567-14.305-9.406C64 63 64 63 60 59v31c-2.709 1.354-5.009 1.065-8 1-.647-25.676-.647-25.676 5-34l-2-1a109 109 0 0 1-1-7"/><path fill="#6a534c" d="m104 137 4 1v2l2 1-2 6 5-2 .375 2.438L114 150l2 1c-2.161 3.98-4.627 6.973-8 10h-2v2c-3 1-3 1-6 1l-3 1c0-3.999 1.726-5.802 4-9l-1.68 1.094-2.195 1.406-2.18 1.406C93 161 93 161 91 161c1.642-4.776 4.265-8.794 7-13-2.244-.228-2.244-.228-4.125 2L92 152l-2-1a125 125 0 0 1 4-6h2v-3l-4 2v-3l4.313-2.562 2.426-1.441C101 136 101 136 104 137"/><path fill="#202b32" d="M37 160c0 3.589-.664 4.109-3 6.688L31 170h12l-.035 3.211-.027 4.164-.025 2.117c-.096 3.881-.096 3.881 1.088 7.508l1.938-5.187 1.09-2.918c.884-2.631 1.498-5.163 1.973-7.895 2 1 2 1 2.719 2.793l.781 2.395c2.81 7.447 7.744 13.514 12.5 19.813v-11h2l.707 1.582C73.644 198.561 83.368 206.052 95 212l-.992-2.324c-1.044-2.773-1.175-4.744-1.008-7.676 5.305 1.492 9.258 5.085 13 9 1.238 2.227 1.238 2.227 2 4h2l1-14h2c2.644 22.712 2.644 22.712 0 28l2 1-4 1v-15h-4c-1.711-1.609-1.711-1.609-3.375-3.75-2.942-3.583-5.638-5.916-9.625-8.25l.875 1.645L96 207.813l1.125 2.145C98 212 98 212 98 215c-6.809-1.797-11.652-4.458-17-9l-2.359-1.957C74.324 200.354 70.836 196.932 68 192c.663 6.063.663 6.063 2 12-4.387-3.403-7.442-6.651-10.562-11.312l-1.16-1.719A344 344 0 0 1 50 178l-.77 2.59-1.043 3.348-1.02 3.34L46 190l-3 1c-3.5-6.417-3.245-11.735-3-19H27c1.834-3.668 3.251-5.468 6.125-8.25l2.195-2.141z"/><path fill="#7f4f3c" d="m60 59 4 2v2l1.648.82L68 65l2.727 1.367 2.898 1.508 2.914 1.492C79.112 71.074 79.95 72.147 81 75c-2.076.553-3.844 1-6 1l3 9c-2 0-2 0-4.625-2.5L71 80l1 7c-1.875-.625-1.875-.625-4-2-1.25-3.125-1.25-3.125-2-6h-2v6h-1l-1 8c-4.023-4.023-3.129-11.072-3.137-16.48l.012-2.645-.012-2.668C58.87 67.013 58.931 63.088 60 59"/><path fill="#322822" d="m157 106-2 2 3.375-.125C162 108 162 108 164 110c-3.803 2.382-7.89 2.655-12.25 3.125l-2.258.262L144 114l-1 3-2 1c-2.207 3.311-2.639 6.087-2 10 2.775 3.546 4.365 4.76 8.824 5.414 6.975.193 12.695-.383 18.113-5.102L167 127c-.062 1.75-.062 1.75-1 4-4.54 3.216-8.514 4.559-13.984 5.41-2.389.699-3.416 1.722-5.016 3.59-6.875-3.75-6.875-3.75-8-6l-2.875-.437c-3.125-.562-3.125-.562-5-1.75-1.622-2.613-1.325-4.808-1.125-7.812l6-2v-4l-5-2 3-7c2 2 2 2 3 5l2.313-2.25c4.615-3.864 11.77-7.723 17.688-5.75z"/><path fill="#2f1b10" d="m197 49-1 8h-2v2h-3l-1 2h-3v2l-2.414.953C178.992 66.213 173.837 68.372 169 72l2 2-13 2c5.625-7.902 5.625-7.902 9.375-10.812L170 63v-3c3.125-3.953 7.854-5.311 12.375-7.187l2.578-1.115 2.508-1.053 2.275-.958c2.523-.765 4.643-.808 7.264-.687"/><path fill="#2787c7" d="M47 80h1l.076 1.741.362 7.884.119 2.738c.219 4.619.544 9.088 1.443 13.637l-2.082.918C41.132 110.007 41.132 110.007 37 116l-2.437 2.688c-3.386 3.909-4.806 8.5-6.562 13.313l12-6-3.473 6.734c-3.097 5.873-5.272 10.6-5.528 17.265l3.313-2.812 1.863-1.582A88 88 0 0 0 41 141c-1.535 4.722-3.239 9.359-5 14l3-1 3-1a101 101 0 0 1-2 6l-2 1v-2l-6 2c.672-3.806 1.727-7.352 3-11l-7 6-.125-6.75-.07-3.797c.18-3.181.505-4.818 2.195-7.453h-5c-1.564-5.544-.438-9.921 2-15l3-3 1-3h3l.25-1.875C35 112 35 112 37.063 110.75L39 110v-2c5.75-3 5.75-3 8-3z"/><path fill="#371b12" d="M54 47c9.281 3.043 18.32 6.44 26.977 10.984C83.113 59.117 83.113 59.117 86 60v2l3 .563c4.386 1.192 6.975 3.893 10.105 7.074 1.785 1.595 1.785 1.595 3.945 1.195 2.208-.872 2.208-.872 4.949-2.832 2.188.375 2.188.375 4 1l-1 2 7 1c-1.375 1.5-1.375 1.5-3 3h-2l-1-2-3 1v-4l-2.187 2.063C104 74 104 74 101.563 74 99 73 99 73 96.063 71c-3.179-2.076-5.327-2.644-9.062-3l1.094 1.645 1.406 2.168 1.406 2.145C92 76 92 76 92 79l-6-2 1 5h-2v-3l-2.437-.875C80 77 80 77 79 75h3l-1-2.625C80 69 80 69 80.25 65.938c.021-3.139.021-3.139-2.5-5.562C73.147 56.939 67.446 55.577 62 54v-2l-2.875-.937C56 50 56 50 54 49z"/><path fill="#6d5648" d="m69 126 3 2-2 4h4l.813 2.438L76 137l3 1-1 5 6 1-3 1v2h-2v2l3 1c-1.269 3.914-2.512 5.791-6 8l2-6c-3.265-1.884-6.281-2.493-10-3v-2l-1.937-.437C64 146 64 146 63 145c-.659-4.745-.96-9.204 1.34-13.508 1.472-1.933 2.976-3.743 4.66-5.492"/><path fill="#332319" d="M112 134c1.281 1.715 1.281 1.715 2.5 3.938 1.841 3.52 1.841 3.52 5.5 5.063v3h2l1 4.313.563 2.426C124 155 124 155 124 158l-2-1-2 6-1-4-3 1-1-3-1.434 1.32c-7.243 6.523-14.949 11.446-23.504 16.055l-2.01 1.086C83.248 178 83.248 178 81 178v-2l3.254-1.574 4.309-2.113 2.135-1.029c3.621-1.786 6.948-3.659 10.205-6.053C104 163 104 163 106 163v-2c2.004-1.856 4.121-3.535 6.25-5.246 2.103-1.695 2.103-1.695 1.75-4.754l-1-4v-2l-5 2 2-6-3-1 1-2h-5v-3c3.058-.544 5.888-1 9-1"/><path fill="#a7a18d" d="m197 146 1 4h2l3 8h1l2-12h1c1.231 8.311 1.76 16.727 0 25l-2 1c-6.888-10.189-6.888-10.189-6-17h-2l.048 1.737c.501 21.062.501 21.062-3.048 31.263-2.433-2.535-2.986-3.816-3.258-7.383l.133-3.742c.352-4.601.352-4.601-.875-8.875l2-1c2.445-6.737 3.703-13.966 5-21"/><path fill="#a9987b" d="m115 156 2 3h3l2-3c4.509 2.319 6.939 5.065 10 9l-2 1-2-2-2 1v3h-2l-1 3-2-1-1 10c-2-2-2-2-2.195-3.945L118 170h-2v6h-2l-.586-1.715-.789-2.223-.773-2.215c-.704-2.034-.704-2.034-2.852-2.848v-2l-5 1c3.494-3.596 7.111-6.835 11-10z"/><path fill="#1891e0" d="M23 132c2 3 2 3 2 5h5l-.496 1.578c-.644 3.098-.598 6.01-.566 9.172l.027 3.547L29 154l7-6-4 12 3-2h3c-1.466 3.423-3.381 5.565-6.062 8.125-2.853 2.654-2.853 2.654-4.937 5.875h13l.684 8.984c.257 2.452.635 4.655 1.316 7.016h-2c-2.219-4.622-3.383-7.768-3-13l-2.062.688c-4.093.435-6.269-.889-9.937-2.687l5-15-1.875-.375C26 157 26 157 24 155c.339-3.188.986-5.958 2-9h-2v-2h2l1-5h-3z"/><path fill="#665145" d="M132 142c1.875.688 1.875.688 4 2l2 5 1.688 2c1.772 2.7.927 3.929.313 7l3 4v4l1 2c-4.419-1.35-6.343-3.261-9-7 4.183 7.942 8.984 11.267 17 15l5.688 2.875L162 181c-3.727 1.242-5.092.275-8.497-1.401l-2.128-1.099-2.173-1.109C133.878 169.375 133.878 169.375 131 162a120 120 0 0 1-1-8l-1-6h3z"/><path fill="#7a5243" d="M190 63c1.389 7.639 2.531 15.938-1 23l-11-1 4-5-4-2 8-5-13-1c1-3 1-3 4.09-4.605l3.848-1.582 1.959-.826C187.691 63 187.691 63 190 63"/><path fill="#d4c3ac" d="M149 144c3.964 1.52 5.697 3.902 8.125 7.313l2.07 2.863c1.656 2.592 2.905 4.887 3.805 7.824l-1 2-6-3 1 3c-.937 2.188-.937 2.188-2 4l-2.812-1.125L149 166l-3 2 1 2c-3.125.563-3.125.563-7 0-2.465-2.743-4.248-5.765-6-9l1-2c4 4.75 4 4.75 4 7h3l-.5-1.875C141 162 141 162 141 160a89 89 0 0 0-2-4l2.266 1.496 2.984 1.941 2.953 1.934c2.381 1.387 4.115 2.175 6.797 2.629l-1.562-2.312L151 159l1-3-.5-2c-.5-2-.5-2 .5-5l-3-1z"/><path fill="#220d08" d="M57 56h4l-.496 3.156c-.762 6.098-.61 12.208-.566 18.344l.014 3.648L60 90c-2.709 1.354-5.009 1.065-8 1-.641-25.438-.641-25.438 5-34z"/><path fill="#052341" d="M52 45c5.104.595 9.196 2.2 13.813 4.313l4.273 1.922 2.054.932c2.249 1.008 4.524 1.948 6.798 2.896C83.651 57.146 87.807 60.027 92 63l-2 1c-2.125-.937-2.125-.937-4-2v-2l-2.203-.367c-2.784-.63-4.981-1.524-7.547-2.758-5.089-2.38-10.239-4.56-15.437-6.687l-2.325-.952L53 47l.07 3.262.055 4.426.051 2.127c.04 4.549-.397 8.795-1.176 13.279-1.248 7.583-1.223 15.055-1.125 22.719l.027 4.158L51 107l-4.812 2.5-2.707 1.406C41 112 41 112 38 112l4.313-3 2.426-1.687C47 106 47 106 50 106l-.984-2.406c-1.262-4.465-1.315-8.48-1.266-13.094l.014-2.697c.084-6.157.698-12.06 1.728-18.135.757-5.465.958-10.94 1.166-16.449.245-6.024.245-6.024 1.342-8.219"/><path fill="#152a3a" d="M37 160c0 3.589-.664 4.109-3 6.688L31 170h12l-.035 3.211-.027 4.164-.025 2.117c-.096 3.881-.096 3.881 1.088 7.508l1.938-5.187 1.09-2.918c.884-2.631 1.498-5.163 1.973-7.895 2 1 2 1 2.719 2.793l.781 2.395c2.81 7.447 7.744 13.514 12.5 19.813l2-4 1.563 4.313.879 2.426C70 201 70 201 69 204c-7.813-7.851-13.37-16.526-19-26l-.77 2.59-1.043 3.348-1.02 3.34L46 190l-3 1c-3.5-6.417-3.245-11.735-3-19H27c1.834-3.668 3.251-5.468 6.125-8.25l2.195-2.141z"/><path fill="#2588d0" d="M199 165c2.792 2.553 3.49 4.224 4 8h-3l-.332 2.598c-2.05 14.785-2.05 14.785-6.668 19.402l-2.375.063c-2.765.66-2.765.66-3.734 2.965q-1.006 2.449-1.898 4.941L184 205l-3 1v2h-5l-1-6-2.375 1.563L170 205l-2-1 1.426-1.828 1.887-2.422 1.863-2.391L178 191c1 1 1 1 1.098 3.723l-.035 3.34-.027 3.348L179 204c2.9-2.702 4.898-5.251 6.75-8.75l1.297-2.422L188 191h2l1-3v5c4.009-2.673 4.175-5.605 5.125-10.062l.521-2.322c1.134-5.191 1.969-10.311 2.354-15.615z"/><path fill="#278acb" d="m130 67 1 3 2.52-.508 3.293-.617 3.27-.633C143 68 143 68 146 70l-5 5h-2l2-5c-3.778 1.845-7.422 3.79-11 6l-4-4-1.375 2L123 76h-2l-1-4-5 1v-2h-4v-2c-3.931.575-3.931.575-7 3-2.437-.125-2.437-.125-5-1-1.812-2.062-1.812-2.062-3-4l4 1v2c3.25-1.088 3.25-1.088 6-3 4.233-.24 7.367-.325 11 2v-2c5.06-1.822 8.09-2.455 13 0"/><path fill="#382722" d="m131 134 7 2-2 1 3 11-3-2v-2l-3-1-1 5h-3l3 12c-3 0-3 0-4.582-1.262-3.038-3.725-4.157-8.262-4.98-12.926.823-4.113 3.305-5.337 6.563-7.812 1.373-2.15 1.373-2.15 2-4z"/><path fill="#a69b80" d="M38 124h4l1 3 2 1-3.125 8.688c-1.052 2.368-1.052 2.368-.875 5.313-1.391 1.5-1.391 1.5-3.25 3l-1.926 1.57L30 151c.307-9.2 3.937-16.405 9-24l-2-2z"/><path fill="#1c8fdd" d="M214 128h2c4.527 7.407 5.389 16.451 5 25h-5l-.148 2.152-.227 2.785-.211 2.777L215 163l-2 1c-.854 2.784-1.473 5.595-2.121 8.434C210 175 210 175 207 177l2-22 3 3v-16l4 5 2 2v3h2l-1.875-8.625-.527-2.449c-.968-4.411-2.068-8.666-3.598-12.926"/><path fill="#aa9c81" d="M188 164h1c2.202 12.637-.547 24.937-7 36h-1c-1.852-6.613-3.086-12.558-.035-19.055.95-1.684 1.986-3.321 3.035-4.945h2z"/><path fill="#1f7ec5" d="M198 47h2c7.414 14.261 9.232 28.162 6 44l-.562 7.813-.131 2.1L205 106l4 1 1 6h-2l1.813 1.375c3.14 3.768 4.004 7.929 5.188 12.625-3.623-1.208-4.032-2.207-6-5.375-1.797-2.873-3.505-5.323-6-7.625l1-3h4l-2.5-1.75c-2.797-2.789-2.893-5.127-2.937-9 .083-3.671.583-7.028 1.43-10.586 3.563-15.42.242-28.461-5.992-42.664z"/><path fill="#208ad2" d="M167 205c0 3.721-.813 5.011-3 8-4.97 4.364-9.645 4.749-16 5v-2c-4.811 1.526-4.811 1.526-8 5-2.06.127-4.124.176-6.187.188-4.732.169-4.732.169-8.762 2.324a84 84 0 0 0-2.719 3.762c-2.277 2.951-4.815 3.665-8.332 4.727l-3-1 1.645-.988 2.168-1.324 2.145-1.301c2.077-1.312 2.077-1.312 3.68-3.055C122 223 122 223 124 223l.75-1.937C126 219 126 219 128.125 218.25L130 218v2c7.881-2.715 14.696-5.457 21-11l-1 8c6.785-2.961 11.658-6.906 17-12"/><path fill="#3e2221" d="m121.438 128.813 2.371-.043C126 129 126 129 129 131c.188 2.625.188 2.625 0 5h-4l2 1c-.687 1.938-.687 1.938-2 4-2.786 1.026-4.348 1.205-7.187.313-2.258-1.635-2.996-2.639-3.812-5.312.25-3.187.25-3.187 1-6 2.34-1.17 3.834-1.166 6.438-1.187z"/><path fill="#102f4c" d="M202 100h1l.813 3.375c.846 3.843.846 3.843 4.188 5.625v2l-4 1c1.327 2.855 2.84 5.178 4.813 7.625C215.981 129.137 220 139.978 220 152h-2l-4-7h-1v10h-1l-.621-3.43-.816-4.445-.408-2.262c-.7-4.049-.7-4.049-2.154-7.863 3.825 1.558 6.148 4.072 9 7-3.762-12.848-8.886-22.997-18-33l5-2-4-3h2v-6z"/><path fill="#1d0a04" d="m189 58 2 1 5-1-.562 3.25c-.638 3.514-.638 3.514.125 5.938.61 2.525-.386 3.526-1.562 5.813l-1 7h-1c-1.298-5.761-2.257-11.087-2-17l-2.23 1.023-2.957 1.352-2.918 1.336a97 97 0 0 1-5.695 2.328c-2.362.752-2.362.752-3.199 2.961h14l-3 3-1-2h-15c5.642-5.642 10.988-8.966 19-10v-2h2v-3z"/><path fill="#173a5a" d="M39 126c0 3.348-.466 3.977-2.312 6.625C33.141 138.086 31 143.457 31 150l3.313-2.812 1.863-1.582A88 88 0 0 0 41 141c-1.535 4.722-3.239 9.359-5 14l3-1 3-1a101 101 0 0 1-2 6l-2 1v-2l-6 2c.672-3.806 1.727-7.352 3-11l-7 6c-.706-8.329 1.825-14.38 5-22v-1l-4 1c2.991-3.336 5.932-5.151 10-7"/><path fill="#3496ad" d="M83 115h1l.078 2.266.172 2.984.141 2.953c.764 3.504 1.706 4.712 4.609 6.797 2.9.631 2.9.631 6 .5l3.125.031c3.536-.653 4.705-1.712 6.875-4.531.803-3.145.803-3.145 1-6 2.523 1.974 2.993 2.967 3.688 6.188L110 129c-5.733 4.803-9.705 5.347-17.047 5.285-4.914-.474-7.363-2.801-10.828-6.035-1.77-3.54-1.438-6.309-1.125-10.25z"/><path fill="#e2e1d4" d="M194 109c10.133 4.696 16.643 13.703 20.582 23.938 3.679 10.28 3.679 10.28 2.418 14.063l-1.355-1.828c-3.267-4.318-6.303-7.883-10.645-11.172v-2a56.5 56.5 0 0 1 7 4c-2.892-6.383-6.139-11.808-10.645-17.187C200 117 200 117 200 115l-3-1c-1.687-2.562-1.687-2.562-3-5"/><path fill="#a6977e" d="M162 102c2.375 1.938 2.375 1.938 4 4 2.138.787 2.138.787 4 1l.188 2.313c.582 2.918.582 2.918 3.375 4.5L176 115l-2 4-1.176-1.363c-2.199-1.973-4.254-2.786-7.012-3.824l-2.73-1.043L161 112l1-3h-9l1-3h-4v-3c3.685-1.842 7.978-1.496 12-1"/><path fill="#072142" d="M198 47c1.875 2.25 1.875 2.25 3 5-.312 2.313-.312 2.313-1 4h-3v-7c-5.706 1.802-11.302 3.826-16.875 6l-1.983.754C173.474 57.56 173.474 57.56 170 61v3l-1.937.25C161.397 65.882 155.545 69.019 150 73c-.625-1.875-.625-1.875-1-4l2-2 1 2 3-2.312c2.644-1.911 5.029-3.169 8.125-4.187 2.962-1.006 3.938-1.563 6.25-3.875C175.73 52.27 188.867 46.02 198 47"/><path fill="#3a96af" d="M164 115h2c1.861 3.722 1.568 7.947 1 12-2.831 3.883-5.523 5.492-10 7-4.933.699-9.905 1.205-14.336-1.344-1.697-1.469-3.216-2.944-4.664-4.656.498-3.688 1.101-5.605 4-8l.813 3.313c1.281 3.996 1.281 3.996 4.188 6.688 3.213 1.607 6.515 1.478 10 1 4.724-2.436 4.724-2.436 7-7 .067-1.561.085-3.125.063-4.687l-.027-2.449z"/><path fill="#80695d" d="m136 146 1.391 1.277 1.859 1.66 1.828 1.652c2.036 1.494 3.43 2.086 5.922 2.41l2-1v-2l4 1-1 3 1 3h-2l4 8c-6.734-1.865-11.043-4.075-16-9l.621-1.867L140 152c-1.896-2.146-1.896-2.146-4-4z"/><path fill="#218ad5" d="M94 204c3.153 1.421 5.538 3.15 8.125 5.438l2.07 1.809C106 213 106 213 108 216h2l2-2v13h-1v-9l-2.25-.437-5-1.187L102 216l-1 1-4.562.063-2.504-.027L92 217v-3l-3.437-.812L85 212l-1-3c4.74 1.835 9.364 3.919 14 6l-.875-1.898L96 210.625l-1.125-2.461C94 206 94 206 94 204"/><path fill="#0d94ed" d="M50 177c2.74 3.525 5.155 7.245 7.563 11l1.209 1.867c1.912 2.974 3.743 5.921 5.229 9.133-2.375-.562-2.375-.562-5-2-1.312-3.625-1.312-3.625-2-7h-6l-1 2h-2l-6 1 1-4v2c2.295-.867 2.295-.867 3.035-3.687L47.063 184c1.847-5.909 1.847-5.909 2.938-7z"/><path fill="#3f2924" d="M54 47c9.281 3.043 18.32 6.44 26.977 10.984C83.113 59.117 83.113 59.117 86 60v2l6 2-1 3c-7.034-.123-7.034-.123-9.598-2.449l-1.527-1.801C75.208 57.45 68.562 55.975 62 54v-2l-2.875-.937C56 50 56 50 54 49z"/><path fill="#cfc7b1" d="m148 68 2 1v4h-2l-.687 2.438C146 78 146 78 143.5 78.875 141 79 141 79 139 78l-1 2-6-2c.561-3.255 1.331-4.998 4-7 2.688-.687 2.688-.687 5-1l-2 5zm-17 11 2 1z"/><path fill="#332722" d="m157 106-2 2 3.375-.125C162 108 162 108 164 110c-3.803 2.382-7.89 2.655-12.25 3.125l-2.258.262L144 114l-1 3h-3v-6l4.75-2.437 2.672-1.371c3.794-1.753 5.545-2.536 9.578-1.191z"/><path fill="#021530" d="M201 56c4.573 6.098 5.387 11.176 5.375 18.563l.004 2.458c-.165 9.857-2.215 19.395-4.379 28.979l-3-1h2l-.07-2.125-.055-2.875-.07-2.812C201 94 201 94 202 90.281c1.322-4.928 1.221-9.711 1.125-14.781l-.027-2.781L203 66h-2z"/><path fill="#af9d7d" d="M75 183c2.676 1.006 3.779 1.542 5.047 4.164l.703 2.461.734 2.477L82 194h2l2.063 3.875 1.16 2.18L88 202l-1 2c-3 0-3 0-5.437-1.812-4.146-4.385-6.447-11.071-6.668-17.031z"/><path fill="#2b2017" d="M92 105c6.42.996 11.968 2.722 17 7v2c-3 1-3 1-5.242.09-4.397-1.738-8.894-1.495-13.578-1.648C87 112 87 112 84 109l11-1z"/><path fill="#1393ea" d="M67 191c2.81 2.727 5.437 5.485 7.938 8.5 2.75 3.264 5.709 5.865 9.063 8.5l-3 1-5-4c-2.685-.789-2.685-.789-5-1l-1 3h-2a125 125 0 0 1-4-6l1-2 4 4-1-3.187c-.84-3.201-1.198-5.554-1-8.812z"/><path fill="#382825" d="m112 134 3 6-1 3c.389 2.143.389 2.143 1 4h2v5l-2 1c-1.316-2.631-2-5.051-2-8l-5 2 2-6-3-1 1-2h-5v-3c3.058-.544 5.888-1 9-1"/><path fill="#070606" d="m173 117 2 3-5-2-2 4-2-7h-2l-1 4v-2l-2-1-1-1-5.812-.125-3.207-.008c-2.517.112-4.585.402-6.98 1.133v2l-3-1c1.717-3.027 2.643-3.895 6.039-4.898 10.107-1.343 17.708-1.744 25.961 4.898z"/><path fill="#cebca6" d="m139 156 2.195 1.496 2.93 1.941 2.883 1.934c3.091 1.682 5.516 2.263 8.992 2.629l-1 4-2.812-1.125L149 166l-3 2 1 2c-3.125.563-3.125.563-7 0-2.465-2.743-4.248-5.765-6-9l1-2c4 4.75 4 4.75 4 7h3l-.5-1.875C141 162 141 162 141 160a89 89 0 0 0-2-4"/><path fill="#0c2527" d="m137 125 1.75 2.313c2.792 3.335 4.611 5.452 9.02 6.086 7.082-.055 12.621-.255 18.168-5.086L167 127c-.062 1.75-.062 1.75-1 4-4.54 3.216-8.514 4.559-13.984 5.41-2.389.699-3.416 1.722-5.016 3.59-6.656-3.328-6.656-3.328-8.375-6.687L138 131l-1-1a99 99 0 0 1 0-5"/><path fill="#ded3c4" d="M181 99h10v3l15 7v1l-8 2-3-2h-3v-5c-5.869-2.168-5.869-2.168-12-3z"/><path fill="#7b6758" d="M99 140v2l4 1v2l2 1c-.125 1.813-.125 1.813-1 4-2.937 1.813-2.937 1.813-6 3l-2-1 2-5-6 5-2-1 4-6h2v-3l-4 2v-3c2.463-1.231 4.28-1.072 7-1"/><path fill="#051b39" d="M52 45c6.75 1.125 6.75 1.125 9.77 2.488l1.99.885 2.053.939 4.273 1.922 2.054.932c2.249 1.008 4.524 1.948 6.798 2.896C83.651 57.146 87.807 60.027 92 63l-2 1c-2.125-.937-2.125-.937-4-2v-2l-2.203-.367c-2.784-.63-4.981-1.524-7.547-2.758-5.089-2.38-10.239-4.56-15.437-6.687l-2.325-.952L53 47v13h-1z"/><path fill="#67524c" d="m113 145 .375 2.438L114 150l2 1c-2.161 3.98-4.627 6.973-8 10h-2l-1 2c0-4 0-4 2-7l-1-1-1-2c4.103-8 4.103-8 8-8"/><path fill="#d5c9b8" d="M86 67c6.674.284 10.711 3.078 16 7l-2 4c-2-1.375-2-1.375-4-3v-2h-2l-1 10-2-1v-2l-2.437-.875C86 78 86 78 85 76c4.75 1.875 4.75 1.875 7 3l-1.059-2.117z"/><path fill="#74493e" d="M190 63v5h-2l.563 1.875C189 72 189 72 188 74l-2-1-6.625-.562-3.602-.254L173 72c1-3 1-3 4.09-4.605l3.848-1.582 1.959-.826C187.691 63 187.691 63 190 63"/><path fill="#1e8bd6" d="M50 43c6.625-.125 6.625-.125 10 1v3l-8-2-.148 4.102C51.437 59.527 50.782 69.705 49 80h-1c-.273-30.18-.273-30.18 2-37"/><path fill="#dbcdaf" d="M73 74c4.344.984 8.341 2.413 12 5 1.5 3.25 1.5 3.25 2 6l-2 1-2-1-1 3c-1.863-.16-1.863-.16-4-1-1.23-2.434-1.23-2.434-2.187-5.437l-.98-2.996L74 76z"/><path fill="#b4a484" d="m61 172 2 1 .75 2.75c1.038 3.486 1.038 3.486 4.25 5.75 3.286 2.739 4.048 4.407 5 8.5l-1.312-1.5c-1.685-1.832-1.685-1.832-4.687-1.5v-2h-2l.625 1.75c.462 2.77-.196 3.896-1.625 6.25-3.923-3.923-3.056-10.186-3.062-15.437z"/><path fill="#190f0c" d="m196 92 1 3-3 3h3v3l3 1h-11l2-2-9-2c4.168-4.631 7.745-6.357 14-6"/><path fill="#0f273d" d="M179 184c1.158 3.473 1.069 6.361 1 10l-2-2-1.434 2.09C170.296 203 163.225 212.396 153 217h-3l1-6 1 4c12.122-8.685 20.228-17.507 27-31"/><path fill="#ebeade" d="M53 108v3l-10 5v-3h-2l-1 3h-2l-.805 1.703c-1.289 2.476-2.757 4.735-4.32 7.047l-1.633 2.422L30 129c-1-3-1-3-.25-4.797 5.709-8.92 11.919-16.87 23.25-16.203"/><path fill="#0c96eb" d="m177 191 2 1 .563 6.375c.261 4.898.261 4.898 1.438 9.625h-5l-1-6-2.375 1.563L170 205l-2-1 1.461-1.828 1.914-2.422 1.898-2.391A34.6 34.6 0 0 0 177 191"/><path fill="#c9baa1" d="M203 132c5.659 3.199 5.659 3.199 7.156 6.719.883 3.434 1.252 6.62 1.469 10.156l.227 3.492L212 155c-3.852-3.274-3.601-6.132-4-11l-3-1c-1.623-3.759-2.24-6.921-2-11"/><path fill="#ebe2cf" d="M192.418 89.344 194 90c-2.923 3.283-5.755 3.959-10 5v-2l3-2h-17v-2c6.972-4.079 15.22-2.379 22.418.344"/><path fill="#294a65" d="m125 68 1.688 1.5c2.816 1.827 4.008 1.972 7.313 1.5l2.938-1.562c3.585-1.683 5.299-1.423 9.063-.437l-5 6h-2l2-5c-3.778 1.845-7.422 3.79-11 6l-4-4-1.375 2L123 76h-2l-.375-2.437L120 71l-2-1h3l2 3z"/><path fill="#e3d3b8" d="M101 156c-1.125 2.972-2.223 5.334-4 8v2c-7.012 3.673-13.177 5.339-21 6v-2l2.266-.367 2.984-.508 2.953-.492c2.597-.588 4.565-1.189 6.797-2.633l.313-2.312c.946-3.699 2.929-4.689 5.996-6.77C99 156 99 156 101 156"/><path fill="#a5967c" d="M195 159h1c.237 8.267-.187 15.92-2 24l-3 1 .035-2.992.027-3.883.035-3.867c.134-3.144.134-3.144-1.098-5.258l2-1c.903-1.883.903-1.883 1.625-4.062l.789-2.223z"/><path fill="#baa88c" d="M48 158c1 3 1 3 0 6h2l-1 4h-2l-1 1c-3.948.263-6.604.09-10-2 1.497-2.994 4.029-3.552 6.992-4.902 2.068-1.131 3.433-2.359 5.008-4.098"/><path fill="#33271d" d="M84 68c1.75.063 1.75.063 4 1 2.447 3.216 4 5.924 4 10l-6-2 1 5h-2v-3l-2.437-.875C80 77 80 77 79 75h3v-2h3z"/><path fill="#231412" d="m154.75 137.813 2.984.645L160 139l-3 2 2 3-5 1 1 3c-2 0-2 0-4.437-2.312L148 143l-1.812-1.812L145 140c3.413-3.226 5.252-3.205 9.75-2.187"/><path fill="#aa9d82" d="M175 180h1c.738 12.67.738 12.67-4 18-1.562-1.062-1.562-1.062-3-3 .189-5 1.569-8.666 4-13h2z"/><path fill="#c4b8a6" d="M182 73v2c-5.652 3.862-9.498 5.647-16.348 4.395L164 79l4-3-4-2c6.026-1.071 11.889-1.099 18-1"/><path fill="#705a52" d="M106 148c1 2 1 2 1 5l.688 2 .313 2-3 3c-.714 2.103-.714 2.103-1 4l-2-1c-2.609.894-2.609.894-5 2 0-4.59 2.489-8.431 5.625-11.687L104 152c1.176-2.1 1.176-2.1 2-4"/><path fill="#3a2d2a" d="m195 50-7.812 3.938-2.236 1.131-2.158 1.084-1.984 1C179 58 179 58 176 59v2l-5 4-1 2h-2l1-1.812c1.208-2.241 1.208-2.241 1-5.187 3.143-3.985 7.95-5.357 12.5-7.25l2.629-1.141 2.527-1.062 2.307-.974C192 49 192 49 195 50"/><path fill="#7b6559" d="m72 138 2.625 1.875c3.131 1.972 5.839 3.115 9.375 4.125l-3 1v2h-2v2l3 1c-1.269 3.914-2.512 5.791-6 8l2-6-1.937-.875C74 150 74 150 73 148l3-2 1-2-2.5-1.875L72 140z"/><path fill="#aa9e89" d="M113 204c1.904 2.856 2.695 4.931 3.625 8.188l.789 2.73L118 217h-2v7h2v-2l4-1-2.812 3.438-1.582 1.934C116 228 116 228 113 229z"/><path fill="#1e2c34" d="M136 201c1.193 3.579.694 4.981-.312 8.563l-.801 2.941C134 215 134 215 132 217v-4l-1.504 1.977c-4.136 5.321-8.212 9.84-13.496 14.023l-2-1 1.941-1.871C124.805 218.43 131.425 211.066 136 201"/><path fill="#23679f" d="M31 120c1 2 1 2 .223 4.383l-1.16 2.742-1.152 2.758L28 132c3.61-.656 3.61-.656 7-2l-.867 2.137-3.258 8.676-1.07 2.957L29 146h-1c.875-6.75.875-6.75 2-9h-5c1.109-6.306 2.932-11.375 6-17"/><path fill="#2e1b12" d="m182 73 1 3-4 2 4 2-4 4 5 1v1l-12 2 6-6h-8c2.792-3.285 6.232-5.013 10-7h2z"/><path fill="#804b3a" d="M190 74v5h-4v2h-2l1 3h-6l3-4-4-2c4.186-3.189 6.706-4.504 12-4"/><path fill="#64524d" d="M120 148h2l3 9h-3l-2 6-1-4-3 1c-.501-5.264.688-7.909 4-12"/><path fill="#69524a" d="m137 143 2.012 1.059 2.676 1.379 2.637 1.371c2.586 1.151 4.889 1.755 7.676 2.191l-1 2-2-1-1 5c-8.188-3.821-8.188-3.821-10.187-9.187z"/><path fill="#388c9d" d="M83 115h1l.078 2.266c.289 5.914.289 5.914 2.359 11.359C90.42 130.762 94.538 130.83 99 131v1c-9.521 1.711-9.521 1.711-13.031.023-2.12-1.777-3.728-3.542-4.969-6.023-.356-7.467-.356-7.467 2-11"/><path fill="#483023" d="M71 73h2l2.5 4.875 1.406 2.742C78 83 78 83 78 85c-2 0-2 0-4.625-2.5L71 80l1 7c-1.875-.625-1.875-.625-4-2-1.25-3.125-1.25-3.125-2-6l2 1 1-2h4z"/><path fill="#cfcdbf" d="M109 70v4l4-2v3l2.375-1.5C118 72 118 72 120 72v4h-2l-1 2v-2l-2.562.438L104 78l-1-2h3l-3-2c3.75-4 3.75-4 6-4"/><path fill="#5b493c" d="M160 140v7h-4l1.461 2.012 1.914 2.676 1.898 2.637c1.643 2.546 2.852 4.777 3.727 7.676l-1 3-1.172-2.195c-3.333-6.264-3.333-6.264-7.141-12.242-1.514-2.298-2.274-3.873-2.687-6.562l5-1-3-2c2-1 2-1 5-1z"/><path fill="#2a201e" d="M50 93h1v7c3.113-.669 3.113-.669 4.188-3.062L56 95c1.206 4.672 1.094 9.215 1 14l-1-2h-5c-1.206-4.672-1.094-9.215-1-14"/><path fill="#aca393" d="M196 148h1l.188 13.25.076 3.742c.064 8.121-.869 15.243-3.264 23.008l-2-2c.309-1.859.309-1.859 1-4 1.798-6.773 2.135-13.245 2.031-20.22-.064-4.712.195-9.138.969-13.78"/><path fill="#a99a81" d="m197 146 1 4h2c1.807 3.975 2.42 7.69 3 12l1 1a99 99 0 0 1 0 5c-4.98-4.819-4.98-4.819-5.062-9.625L199 155h-2z"/><path fill="#202a31" d="m107 120 5 1 1.063 4.375.598 2.461C114 130 114 130 113 132l-4.562 1.625-2.504.789L104 135l-2-2 7-4c-.486-3.123-.999-5.996-2-9"/><path fill="#05212d" d="M105 121h1c-.489 6.479-.489 6.479-2.672 8.703-2.931 1.633-4.985 1.73-8.328 1.734l-3.125.059c-3.496-.603-4.657-1.803-6.875-4.496l1-2h2l2 3c2.329.478 2.329.478 4.938.375l2.652.023c2.839-.469 3.666-1.162 5.41-3.398z"/><path fill="#eadccc" d="M54 92c4.091 2.211 7.137 4.245 8.574 8.832.464 2.362.524 4.513.488 6.918l-.027 2.422L63 112h-2l-1-10h-2v-2h-2z"/><path fill="#6d594b" d="m103 151 1 3c-2.066 2.066-3.955 3.212-6.5 4.625l-2.406 1.352C93 161 93 161 91 161c2.807-7.419 2.807-7.419 6.438-9.187C100 151 100 151 103 151"/><path fill="#9f927c" d="m118 107 2 2c-.375 2.625-.375 2.625-1 5l-2-3-1.187 2.438C114 116 114 116 111.313 116.813L109 117l-2-3h2l1-3 4-1 1-2z"/><path fill="#cfc2ad" d="m168 65-1.969 2.117-2.531 2.758-2.531 2.742c-2.181 2.125-2.181 2.125-1.969 4.383h-2c-.8-3.287-1.097-4.71 0-8l3-1-1-2c5.625-2.125 5.625-2.125 9-1"/><path fill="#1294ea" d="m106 217 5 1v14l8-3v2h-2v2c-3.375.188-3.375.188-7 0-2.679-4.019-2.156-6.242-2-11h2v-2l-4-1z"/><path fill="#a69d88" d="m46 144 2 1-2 3h-2l-.187 2.313C43 153 43 153 40.625 154.875 38 156 38 156 35 155l2-6 5-1v-2c1.875-1.062 1.875-1.062 4-2"/><path fill="#755d51" d="M164 146v3l3 1-1 4c-5.461-.969-5.461-.969-8-2-1.5-2.625-1.5-2.625-2-5 2.763-.597 5.16-1 8-1"/><path fill="#482f2e" d="m121.5 128.813 2.406-.043C126 129 126 129 128 131l-5.957-.098c-2.246.015-2.246.015-5.043 1.098l2 5h-2v2h6l-1 3c-5.545-1.447-5.545-1.447-7.437-3.75-.759-3.036-.363-5.248.438-8.25 2.353-1.177 3.881-1.166 6.5-1.187z"/><path fill="#efece2" d="M194 109c3.153 1.421 5.538 3.15 8.125 5.438l2.07 1.809c2.46 2.391 3.768 3.956 3.93 7.441L208 126c-5.802-5.645-5.802-5.645-8-9v-2l-3-1c-1.687-2.562-1.687-2.562-3-5"/><path fill="#080907" d="m95.125 111.313 3.195.238C101 112 101 112 103 114l-7 2-1-1c-2.958-.25-2.958-.25-6 0l-2 2-2 2v-7c3.492-1.122 6.488-.987 10.125-.687"/><path fill="#214f71" d="M37 160c0 3.589-.664 4.109-3 6.688l-1.687 1.887L31 170l3.313-.062C38 170 38 170 41 171l-1 4v-3H27c1.834-3.668 3.251-5.468 6.125-8.25l2.195-2.141z"/><path fill="#302417" d="m157 106-2.937 1.375c-3.133 1.283-3.133 1.283-4.062 3.625l-5-1-2 7h-3v-6l4.75-2.437 2.672-1.371c3.794-1.753 5.545-2.536 9.578-1.191z"/><path fill="#133654" d="M38 170h5l-.035 3.211-.027 4.164-.025 2.117c-.096 3.881-.096 3.881 1.088 7.508l2-3c1 3 1 3 .063 5.188L45 191h-2c-3.425-6.708-4.043-12.701-2-20z"/><path fill="#453327" d="m86 140 1 2 5-1c-3.381 4.136-6.666 7.813-11 11v-2l-2-1v-2h2v-2a141 141 0 0 1 5-5"/><path fill="#c7c1af" d="m39 128 2 1v3h-2l-.687 1.938C36.514 138.133 34.261 142.039 32 146c-1.213-2.902-1.019-3.951.145-6.945l1.668-3.18 1.645-3.195C37 130 37 130 39 128"/><path fill="#418f9f" d="M164 115h2c1.859 3.717 1.579 7.953 1 12-2.527 3.346-4.039 4.68-8 6l-1-3 2.438-1.312c2.841-1.492 2.841-1.492 3.563-4.687.067-1.561.085-3.125.063-4.687l-.027-2.449z"/><path fill="#022233" d="M159 117h6c.292 4.964.147 8.037-3 12l-3 1c0-3 0-3 1.438-4.5L162 124l1-3-5 1z"/><path fill="#2573b0" d="m165 63-1.793.77c-4.243 1.848-8.306 3.714-12.207 6.23l-1-2-7 2v-2l-2-1 5.875-1.062 3.305-.598C153 65 153 65 155 66v-2c3.839-1.483 6.062-2.224 10-1"/><path fill="#cbc7b5" d="m34 121 1 2h2l1 4-9 6-2-1c1.045-3.136 1.762-3.762 4-6a131 131 0 0 0 3-5"/><path fill="#4a2c21" d="M86 60v2l6 2-1 3c-7.385-.369-7.385-.369-10.5-3.562L79 61c3-1 3-1 7-1"/><path fill="#614335" d="M66 77v2h-2v6h-1l-1 8c-2.589-2.589-2.374-4.027-2.625-7.625l-.227-3.039L59 80c4.75-3 4.75-3 7-3"/><path fill="#293e45" d="M65 185h2l.813 1.688C70.987 192.87 74.877 197.335 80 202l-2 2-1.898-2.117-2.477-2.758-2.461-2.742A126 126 0 0 0 67 192h-1z"/><path fill="#704e44" d="M73 68c6.875 3.625 6.875 3.625 8 7-3.833 1.474-6.259.383-10-1h-2l-1 2v-4h6l-1-1z"/><path fill="#237ebe" d="M76 54c7.831.124 12.486 2.356 18 8v2h2l-1 3-1.574-1.426C87.887 60.629 83.191 57.174 76 55z"/><path fill="#2c82bc" d="M199 165c3.087 3.087 3.449 3.919 4 8h-3l-2 13h-2z"/><path fill="#635654" d="M167 119c2.034 3.051 2.755 4.403 3 8-.803 2.476-1.849 4.651-3 7h-2v2l-3-1c1-3 1-3 4-5 .583-2.656.583-2.656.688-5.625l.199-3.039z"/><path fill="#1e221f" d="m85 113-1 4-1-1-2 10h-1v-9c-2.629 1.522-4.844 2.844-7 5 .39-2.434.719-3.72 2.488-5.484l1.824-1.266 1.801-1.297C81 113 81 113 85 113"/><path fill="#2584cb" d="M204 96h1v10l4 1v5l-3 1-1 3-2-4 5-1-2.5-2c-2.551-3.062-2.862-3.495-2.875-7.187C203 98 203 98 204 96"/><path fill="#1095f1" d="M198 184h1c-1.053 8.953-1.053 8.953-3 12-2.581 1.315-5.239 2.149-8 3l-2 1c1.074-2.915 1.778-4.778 4-7v2c2.791-1.207 4.605-2.217 6-4.98.73-1.984 1.371-4.001 2-6.02"/><path fill="#2985c8" d="M50 177c6 7.714 6 7.714 6 11-3-1-3-1-5-4h-2l-1 5h-2l.875-4.312.492-2.426C48 180 48 180 50 177"/><path fill="#50423c" d="M82 138c4.468-.213 7.823.409 12 2-2.626 1.407-5.051 2.492-8 3l-1-1-3 2-2-2z"/><path fill="#1e435d" d="M110.234 68.348 112 69l-1 2 7 1-3 3h-2l-1-2-3 1v-4l-2.312 2.063L104 74l-3-1 3.25-2.562 1.828-1.441C108 68 108 68 110.234 68.348"/><path fill="#12192c" d="M201 56c4.2 5.6 4.141 9.408 4.063 16.25l-.014 2.258L205 80h-1l-1-14h-2z"/><path fill="#062d4f" d="M79 203c3.526 1.695 6.877 3.645 10.25 5.625l3.266 1.914L95 212l2-2 1 5c-7.755-2.046-14.444-5.166-19-12"/><path fill="#2587c5" d="m209 155 3 3-1 2 .258 8.957c-.292 3.443-1.285 5.249-3.258 8.043-.895-2.97-1.033-5.256-.66-8.328l.283-2.422.314-2.5.303-2.547z"/><path fill="#79635d" d="M143 142c3 0 3 0 6 1l1 5c-3 1-3 1-6.062-.25C141 146 141 146 139 143l3 1z"/><path fill="#ada086" d="M85 103c0 3.999-1.726 5.802-4 9l6-1c-2.686 2.686-5.376 3.06-9 4-.437-3.187-.437-3.187 0-7 2.085-2.112 4.412-3.567 7-5"/><path fill="#248ad0" d="M190 45h8v2l-1.906.551c-4.239 1.245-8.415 2.527-12.531 4.137C180 53 180 53 177 53v-2l12-4z"/><path fill="#342a1f" d="M191 169h1c.252 6.054-.169 11.203-2 17l-2 2c-.274-6.159.578-12.001 2-18z"/><path fill="#43332c" d="M129 138h2v2h2l-1 8h-3l-1 2-1-7h2z"/><path fill="#1593e6" d="m154 64 1 2-2.852.367-3.773.508-3.727.492c-3.388.588-6.425 1.453-9.648 2.633v-3h5v-2a75.5 75.5 0 0 1 14-1"/><path fill="#294153" d="m34 152 2 1v2l3-1 3-1-2 6-2 1v-2l-6 2c.523-2.763 1.109-5.326 2-8"/><path fill="#2a82c1" d="M27 146h1l1 8 7-6-3 9c-3 0-3 0-6-1z"/><path fill="#ddcdb0" d="M43 112c2 3 2 3 1.758 5.043L43 123c-2-1-2-1-3-2h-2l-1-3c3.164-4.582 3.164-4.582 6-6"/><path fill="#3185c0" d="m177 191 2 1v11h-1v-6l-2.312 2.313L170 205l-2-1 1.461-1.828 1.914-2.422 1.898-2.391A34.6 34.6 0 0 0 177 191"/><path fill="#b3a78d" d="m61 172 2 1-1 10 3 1c.81 2.915 1.218 4.461.063 7.313L64 193c-3.923-3.923-3.056-10.186-3.062-15.437z"/><path fill="#138ee0" d="M203 172c2 3.75 2 3.75 2 6h2v2l-7-1-1 3 1-9z"/><path fill="#c9b9a3" d="M102 162v3c-3.317 3.122-6.887 5.087-11 7v-4z"/><path fill="#cfbca9" d="m159 151 4.438 1.313 2.496.738L168 154l1 3-6 3c-4-6.75-4-6.75-4-9"/><path fill="#1492e3" d="m130 67 1 3c2.015.733 2.015.733 4 1-1 1-1 1-3.375 1.25C129 72 129 72 127.629 70.496c-1.543-1.706-1.543-1.706-3.891-1.789l-2.426.105-2.449.082L117 69v-2c5.06-1.822 8.09-2.455 13 0"/><path fill="#0b97ed" d="m197 41 1 2h2l1 6-1-2h-2v-2h-8l-1 3c-2.062.688-2.062.688-4 1l-1-2h4l1-3 7-2z"/><path fill="#244b6d" d="M190 184h2l1 2 2-1c1 3 1 3-.312 5.688L193 193h-2l-1-2-2-1z"/><path fill="#b4a483" d="m125 165 1 3h-2l-1 3-2-1-1 10c-2-2-2-2-2.195-4.164l.07-2.461.055-2.477L118 169l7-2z"/><path fill="#d6d8d0" d="M205 132c3.396 1.455 5.409 3.409 8 6l2.188.813L217 140c.75 3.625.75 3.625 1 7a79 79 0 0 1-6.5-7.062c-2.085-2.449-3.956-4.053-6.5-5.937z"/><path fill="#2790d2" d="m31 116 3 1-.953 1.398C29.579 123.684 27.174 129.073 25 135c-1.12-3.323-.887-5.269.25-8.562l.766-2.316c1.043-2.247 2.226-3.414 3.984-5.121l1-3z"/><path fill="#f1e6d1" d="M170 75c-3.277 2.903-5.953 3.58-10.25 4.188l-3.266.48L154 80c3.956-5.934 9.485-5.256 16-5"/><path fill="#082d3b" d="m144 128 15 1-2 3c-5.344.526-8.625.418-13-3z"/><path fill="#163042" d="M165 63v2l-1.758.734c-4.777 2.05-9.019 4.234-13.242 7.266-.625-1.875-.625-1.875-1-4l2-2 1 2 1.426-1.059 1.887-1.379 1.863-1.371C159.851 63.444 161.81 63 165 63"/><path fill="#08172f" d="M73 54c7.864 1.142 12.776 4.14 19 9l-2 1c-2.125-.937-2.125-.937-4-2v-2l-2-.25c-3.99-.998-7.385-2.822-11-4.75z"/><path fill="#235073" d="M132 212c1 2 1 2 1 5l7-2v2c-3.73 2.034-5.669 3-10 3v-2h-2c1.152-2.468 2.048-4.048 4-6"/><path fill="#2e8ac1" d="M67 191c3.925 3.701 6.946 7.55 10 12l-1.687-.937c-2.438-1.12-4.675-1.623-7.312-2.062l-1-9z"/><path fill="#6d584a" d="M136 159c2.375-.187 2.375-.187 5 0 2 3 2 3 2 7l1 2c-3.88-1.258-5.941-2.424-8-6z"/><path fill="#282c31" d="M206 144h2l.586 1.863.789 2.449.773 2.426c.84 2.489.84 2.489 2.852 5.262-.375 2.188-.375 2.188-1 4l-2-4-2 2z"/><path fill="#e0ddc9" d="M159.25 67.313 161 68l-2.937 1.875c-3.091 1.782-3.091 1.782-4.062 4.125l-5 2-1 2h-2c.956-3.217 1.56-4.699 4.375-6.625L153 70l2.063-1.75C157 67 157 67 159.25 67.313"/><path fill="#1f86c9" d="m60 47 5.938.375 3.34.211L72 48l1 2 3 1v3c-5.467-1.748-10.758-3.658-16-6z"/><path fill="#183652" d="M113 212h1l.063 7.375.025 2.117c.025 5.281.025 5.281-1.088 7.508l2 1-4 1z"/><path fill="#af9f7c" d="M48 158c1 3 1 3 .223 4.824L45 168h-3c-.375-2.187-.375-2.187 0-5 1.84-1.99 3.792-3.39 6-5"/><path fill="#bfaca0" d="M149 144c4.206 1.502 5.739 4.286 8 8h-3l-2 4c-.934-3.01-1.044-3.867 0-7l-3-1z"/><path fill="#3099b4" d="M141 120h1l.938 3.313L145 130c-3.106 0-4.353-.539-7-2 .547-3.375 1.055-5.082 3-8"/><path fill="#103348" d="m125 68 5 4v2l2 1c-3 0-3 0-4.687-1.5L126 72l-1.375 2L123 76h-2l-.375-2.437L120 71l-2-1h3l2 3z"/><path fill="#919189" d="M58 186c2.867.573 3.861.861 6 3h2v8c-5.802-5.645-5.802-5.645-8-9z"/><path fill="#435255" d="M79 118h1v8h2c3 4.385 3 4.385 3 7h-5c-1.323-4.961-1.089-9.911-1-15"/><path fill="#d0c0a9" d="M73 74c3.192.798 5.982 1.742 9 3l-1 2h-2l1 4h-3z"/><path fill="#969894" d="M114 218c2 4 2 4 2 6h2v-2l4-1-2.812 3.438-1.582 1.934C116 228 116 228 113 229z"/><path fill="#f0e2ca" d="M65 80c2.599 2.469 4.79 5.181 7 8l-1 2h-1l-1 3-2-4.25-1.125-2.391C65 84 65 84 65 80"/><path fill="#3180b5" d="M94 204c3.817 1.555 6.192 4.036 9 7-3 1-3 1-6 1-3-5.75-3-5.75-3-8"/><path fill="#ad9c81" d="M195 159h1l.125 6.375.07 3.586C196 172 196 172 194 174c-1.517-10.558-1.517-10.558 1-15"/><path fill="#70574b" d="M142 155c5.75.875 5.75.875 8 2v2h-2v3c-2.993-1.098-3.846-1.677-5.25-4.625z"/><path fill="#9b867a" d="m106 148 1 2c-2.215 5.96-5.18 10.869-10 15 0-4.59 2.489-8.431 5.625-11.687L104 152c1.176-2.1 1.176-2.1 2-4"/><path fill="#9c9786" d="M206 146h1c.896 6.048 1.113 11.889 1 18-3.146-6.292-3.703-10.976-2-18"/><path fill="#3077af" d="M212 142c2.372 2.908 4.471 5.559 6 9l-3-1-1 10c-2.17-4.339-2.213-6.484-2.125-11.25l.055-3.828z"/><path fill="#181f1a" d="M165 113c4.957 1.239 7.117 2.786 10 7l-5-2-2 4-.875-3.437L166 115l-2-1z"/><path fill="#111f2f" d="m92 64 3.313 2.813 1.863 1.582L102 73c-3.389-.689-6.18-1.987-9.25-3.562l-2.703-1.379L88 67l3-1z"/><path fill="#a49778" d="m172 185 2 1c-.553 4.03-1.156 8.02-2 12-1.562-1.062-1.562-1.062-3-3 .224-4.183.661-6.492 3-10"/><path fill="#b4a588" d="M38 124h4l1 3 2 1-2 6c-2.236-2.236-2.838-4.096-4-7l-2-2z"/><path fill="#a8987b" d="M127 82h1v14l-2-2-2 1 .938-5.375.527-3.023C126 84 126 84 127 82"/><path fill="#114163" d="M208 158h1c.266 6.95-.388 13.235-2 20l-2-1a99 99 0 0 1 0-5l1-1c.397-2.18.743-4.37 1.063-6.562l.535-3.629z"/><path fill="#d3bfac" d="m101 156-4 9h-2l-2-5c5.75-4 5.75-4 8-4"/><path fill="#8f7a73" d="M99 140v2l4 1c-2.647 1.461-3.894 2-7 2v-3l-4 2v-3c2.463-1.231 4.28-1.072 7-1"/><path fill="#c1bcb0" d="M198 106c5.75 1.75 5.75 1.75 8 4l-8 2-2-4h2z"/><path fill="#2683c5" d="m173 53 4 1-3.375 2.5-1.898 1.406C170 59 170 59 168 59l-1 3h-2v-3c4.229-4 4.229-4 8-4z"/><path fill="#227fc4" d="M84 209c4.74 1.835 9.364 3.919 14 6l1-2 1 3c-6.21-.444-10.605-1.915-16-5z"/><path fill="#c4beb2" d="M40 157h1c.313 3.313.313 3.313 0 7-2.375 2-2.375 2-5 3l-2-1 2.938-4.5 1.652-2.531z"/><path fill="#736053" d="M132 158c2.915 2.623 4.885 5.718 7 9l-1 2c-5.742-4.398-5.742-4.398-6.937-7.187C131 160 131 160 132 158"/><path fill="#422f28" d="M129 152c2.565 2.565 2.54 4.477 3 8-3 0-3 0-4.687-1.5L126 157l1-3 2 1z"/><path fill="#d0bda9" d="m97 146 2 1c-.625 2.375-.625 2.375-2 5-3.125 1.313-3.125 1.313-6 2 1.443-3.366 3.333-5.51 6-8"/><path fill="#222621" d="m40 141 1 2-2.437 5.125-1.434 2.758L36 153l-1-4h-3l4.492-3.613c1.761-1.509 1.761-1.509 3.508-4.387"/><path fill="#634e47" d="M132 142c1.938.688 1.938.688 4 2 .75 2.625.75 2.625 1 5l-5 1c-1.431-2.862-.6-4.934 0-8"/><path fill="#aaaaa4" d="M210 142h1l1 13c-3.517-3.517-3.547-5.196-4-10h2z"/><path fill="#0a0c10" d="m104 135-4.312 2.563-2.426 1.441C95 140 95 140 92 139l3-2-2-2c7.625-1.125 7.625-1.125 11 0"/><path fill="#253238" d="M39 126c0 3 0 3-2.5 5.688L34 134v-3l-5 2c2.991-3.336 5.932-5.151 10-7"/><path fill="#21130c" d="m52 92 3 2c.188 2.625.188 2.625 0 5l-4 1v-7z"/><path fill="#e4dcc8" d="M94 70c3.375 1.186 5.647 2.276 8 5l-2 3-4-3v-2h-2z"/><path fill="#08182c" d="m174 55 1 2-2.5 1.813L170 61v3l-2 1-3-1v-2l4.5-3.625 2.531-1.914z"/><path fill="#2d81bb" d="M151 209v5l-2.437.375L146 215l-1 2h-5l5-4 2.75-2.25C150 209 150 209 151 209"/><path fill="#93968f" d="M85 206h4v2h5l2 5-4.937-2.375-2.777-1.336C86 208 86 208 85 206"/><path fill="#c5b495" d="m111 188 3 1 1 18c-2.246-3.37-2.332-4.966-2.562-8.937-.211-3.483-.459-6.706-1.437-10.062z"/><path fill="#b19b8c" d="m139 156 3.438 2.25 1.934 1.266c1.928 1.757 2.244 2.945 2.629 5.484l-4-1-1 2c-.553-2.076-1-3.844-1-6z"/><path fill="#2f2725" d="M140 133c3.459 1.249 6.147 2.675 9 5l-2 2-7-4z"/><path fill="#5c534d" d="m160 135-1 4c-6.75-.75-6.75-.75-9-3 3.435-.625 6.491-1 10-1"/><path fill="#0e97f0" d="M31 114h3v2h-3l-1 4h-2l-1 5-2-2c1.274-3.823 3.265-6.07 6-9"/><path fill="#b3a288" d="m123 94 2 1-1 7-1.875-.562c-2.167-.674-2.167-.674-4.125.563l1-4h3l1-4z"/><path fill="#6e493a" d="m179 77 7 2v2h-2l1 3h-6l3-4-4-2z"/><path fill="#ddcbb3" d="M156 70c1.188 1.688 1.188 1.688 2 4-1.328 2.856-2.146 4.573-5 6l-1-6z"/><path fill="#1294e9" d="m94 63 6 1-1 3 6 1-1 2h-4v-2l-4-1v-3z"/><path fill="#9c9d8f" d="m33 166 7 2v2h-9z"/><path fill="#120401" d="M126 139v3l-3 1v7l-1-4h-2v-3l-2-1 3.438-.937c3.35-.692 3.35-.692 4.563-2.062z"/><path fill="#a2947e" d="M133 104c1.563 1.813 1.563 1.813 3 4-1 3-1 3-3 4l-2 3c-.286-7.429-.286-7.429 2-11"/><path fill="#043367" d="M66 192c1.525 2.94 2.952 5.855 4 9l-1 3c-2.062-1.5-2.062-1.5-4-4-.059-2.824.44-5.202 1-8"/><path fill="#2786cc" d="M56 188c2.929 2.824 5.584 5.722 8 9v2c-2.312-.437-2.312-.437-5-2-1.361-2.908-2.214-5.893-3-9"/><path fill="#dfd0b8" d="m142 169 6 1v2l2 1 1 2c-4.401-.503-6.712-2.088-10-5z"/><path fill="#d4c3b3" d="m134 159 5 5v2l4 2-1 2c-3.491-1.164-3.852-1.89-5.687-4.937l-1.324-2.152C134 161 134 161 134 159"/><path fill="#2f2720" d="m131 134 5 1-2 5h-3l-1-5z"/><path fill="#7f7460" d="m94 107 2 2-2.082.148-2.73.227-2.707.211c-2.724.281-2.724.281-5.48 2.414h-2l1-4 5.875-.625 3.305-.352z"/><path fill="#352c24" d="M55 100h2v9l-1-2h-5v-2h4z"/><path fill="#221510" d="m163 70 1 2 7 1v1l-13 2z"/><path fill="#a59e77" d="M116 217c1.938.313 1.938.313 4 1l1 3-3 1v2h-2z"/><path fill="#908e7f" d="M169 199c-1.306 3.918-2.831 6.326-6 9h-2v-2h2v-3c3.429-4 3.429-4 6-4"/><path fill="#aa9a7a" d="M112 191h1v10l-3-1c.875-7.875.875-7.875 2-9"/><path fill="#d3c1a0" d="M75 188c1.963 3.505 2.959 7.134 4 11-3.483-3.019-4.792-5.569-6-10z"/><path fill="#0f3857" d="M37 160c0 3 0 3-2.375 5.5L32 168l-2 3h-2c1.408-3.215 3.103-5.322 5.625-7.75l1.914-1.859z"/><path fill="#998a71" d="M82 150c-1.269 3.914-2.512 5.791-6 8l2-6-4-2c5.75-1.125 5.75-1.125 8 0"/><path fill="#412f2a" d="m113 143 2 1v3h2v5l-2 1c-1.007-2.014-1.471-3.819-2-6l-1-3z"/><path fill="#584944" d="m101 136 3 1 4 1-1 2-2.937-.562L101 139l-1 1h-5c1.964-1.506 3.783-2.891 6-4"/><path fill="#347788" d="M83 115h1v10l-3 1c-.25-7.625-.25-7.625 2-11"/><path fill="#686e72" d="M159 117h4l1 5h-6z"/><path fill="#555757" d="m104 117-1 4-5-1v-3c2.491-1.245 3.411-.777 6 0"/><path fill="#352418" d="M86 68c2.653 2.476 4.68 4.59 6 8v3c-1.937-.625-1.937-.625-4-2-.687-2.937-.687-2.937-1-6z"/><path fill="#775646" d="M69 74h3l2 5-5-1-1 3-2-3 2-1z"/><path fill="#462f25" d="M84 68h2l3 6-1 3h-4v-2l2-1z"/><path fill="#785243" d="m179 67 7 1-2 3c-3.125.188-3.125.188-6 0z"/><path fill="#53372c" d="m176 68 3 1-1 2h6v1h-11l1-3z"/><path fill="#2589c8" d="m165 63-4.25 1.938-2.391 1.09A37 37 0 0 1 152 68.001l1-3 2 1v-2c3.839-1.483 6.062-2.224 10-1z"/><path fill="#ae9f7d" d="m115 167 2 1-1 8h-2c-.625-2.812-.625-2.812-1-6z"/><path fill="#cdbeaa" d="M109 166c-5.528 4.761-5.528 4.761-9 5l-2-2 3.813-2.062 2.145-1.16C106 165 106 165 109 166"/><path fill="#76634f" d="m95 153 2 2c-.75 2.438-.75 2.438-2 5-2.125.813-2.125.813-4 1 1.125-2.972 2.223-5.334 4-8"/><path fill="#baa48e" d="m46 144 2 1-2 3h-2l-1 3v-2h-2l-1 2v-3h2v-2c1.875-1.062 1.875-1.062 4-2"/><path fill="#211309" d="m117 109 2 4 3-2v3c-4.75 2-4.75 2-7 2z"/><path fill="#2a6f9b" d="m36 111 1 2 2 1-7 6c1.75-6.75 1.75-6.75 4-9"/><path fill="#352b26" d="m99 110 6 1v2l4-1v2c-3.479 1.16-4.342.775-7.687-.437l-2.449-.871L97 112z"/><path fill="#170c04" d="M193 80h1v9h-3l-1-5h2z"/><path fill="#1d90de" d="m142 218-2 3c-3.125.188-3.125.188-6 0v-2c3.067-1.862 4.597-2.215 8-1"/><path fill="#99998b" d="M102 207c2.972 1.125 5.334 2.223 8 4v4h-2l-3.125-4-1.633-2.25z"/><path fill="#baa88a" d="M150 194c1.073 3.22.871 3.904 0 7v3h-3c-.369-5.415-.369-5.415 1.5-8.375z"/><path fill="#9b8d75" d="m48 166 2 2c-.375 2.125-.375 2.125-1 4l-1-2-2.312.625C43 171 43 171 40 169l3.438-.937c3.35-.692 3.35-.692 4.563-2.062z"/><path fill="#a2907f" d="M121 156c3.914 1.269 5.791 2.512 8 6l-3 1v-2l-4-1z"/><path fill="#208cd0" d="M211 118c1.991 2.986 2.941 5.597 4 9-3.754-1.251-4.241-2.565-6-6v-2z"/><path fill="#05080a" d="m103 114 4 1v3h-2l-2 5-2-1 2-3c.167-2.625.167-2.625 0-5"/><path fill="#253c54" d="M202 111c2.562 1.281 2.765 2.457 4 5l3 4h-3c-1.605-1.75-1.605-1.75-3.187-4l-1.605-2.25L200 112z"/><path fill="#372719" d="m66 79 3 3 2-2 1 7c-1.875-.625-1.875-.625-4-2-1.25-3.125-1.25-3.125-2-6"/><path fill="#122036" d="m197 49 3 1 1 6h-4z"/><path fill="#a29679" d="m106 204 2 1 1 4 2 1-1 2h-2l-4-5z"/><path fill="#188edb" d="m185 200-1 5-4 1-1-2c3.75-4 3.75-4 6-4"/><path fill="#989696" d="M180 191h2v2h2l-1 6-2 1z"/><path fill="#b9aa8a" d="M89 181h2c2.092 4.431 2.092 4.431 1.625 7.313L92 190v-3l-3 1z"/><path fill="#715e4d" d="m116 155 5 1-1 7-1-4-3 1zm1 1 1 2z"/><path fill="#cbbba3" d="m85 148 2 4-5 4c-.75-1.75-.75-1.75-1-4 1.938-2.25 1.938-2.25 4-4"/><path fill="#1d150d" d="m86 140 1 2 5-1-3 4-6-1z"/><path fill="#062031" d="M111 127c0 3 0 3-1.812 5.125C107 134 107 134 104 135l-2-2 5.273-2.93c1.888-1.079 1.888-1.079 3.727-3.07"/><path fill="#dae7e2" d="M33 119h2c-1.335 3.594-2.96 6.755-5 10-1-3-1-3-.223-4.824z"/><path fill="#af9e8a" d="m136 107 2 1v2l3 1-5 4z"/><path fill="#ede1ca" d="M81 78c1.875.125 1.875.125 4 1 1.25 3.063 1.25 3.063 2 6h-3v-3h-2z"/><path fill="#d6d6c1" d="m126 71 5 5v2h-2v2l-3-1 .563-2.312c.666-2.777.666-2.777-.562-5.687z"/><path fill="#41291d" d="M173 59h3v2l-5 4-1 2h-2c1.37-2.95 2.826-5.565 5-8"/><path fill="#1396ef" d="m202 52 1 2 3 1 1 9c-5-7.5-5-7.5-5-12"/><path fill="#0a96f7" d="m92 56 2 3h2v4a56.5 56.5 0 0 1-7-4c1-2 1-2 3-3"/><path fill="#0898f0" d="M80 208c1.938.375 1.938.375 4 1l1 2 3 2h-7z"/><path fill="#b5a18a" d="M104 200h2c.625 1.813.625 1.813 1 4l-2 3h-3l1-3z"/><path fill="#ad9d85" d="m108 162 3 1-1 3 3 1-3 1-1-3-5 1z"/><path fill="#354f59" d="M167 119c1.945 2.918 2.453 4.625 3 8l-3 2z"/><path fill="#f0e7d2" d="M194 109c3.366 1.443 5.51 3.333 8 6l-2 2v-2l-3-1z"/><path fill="#332516" d="m100 107 8 4v2h-3v-2h-4z"/><path fill="#e3d5b9" d="M192 106h6c0 2 0 2-1.5 3.625L195 111l-3-1z"/><path fill="#653f2b" d="m68 72 4.438.375 2.496.211L77 73l1 2-9-1-1 2z"/><path fill="#6d4e3f" d="M60 59c1.938.75 1.938.75 4 2 .75 2.125.75 2.125 1 4l-5-1z"/><path fill="#301209" d="m65 54 1 2h-9l-1-2c3.118-1.559 5.671-.666 9 0"/><path fill="#3c2e30" d="M54 47c3.912 1.156 6.875 2.355 10 5-6.625-.75-6.625-.75-10-3z"/><path fill="#9d9a92" d="M95 202h6l1 5-7-4z"/><path fill="#aaa08c" d="M73 193h2l3 5 2 2c-3 0-3 0-5.187-1.812C73 196 73 196 73 193"/><path fill="#a69672" d="M62 176c2.647 2.647 3.599 5.562 5 9l-5-2z"/><path fill="#78654e" d="M150 160c2.063.75 2.063.75 4 2l1 3-7-2v-2z"/><path fill="#af9a73" d="M39 132h3l-1 6-3-1z"/><path fill="#062c36" d="m137 125 1.813 2.313c1.657 2.036 3.29 3.885 5.188 5.688-4.75-.75-4.75-.75-7-3v-5z"/><path fill="#dbccb1" d="m204 126 3 1-3 2-2-2zm-3 2 5 3-2 2-3-3z"/><path fill="#5c4e49" d="m139 112 2 2c-.25 3.563-.25 3.563-1 7l-2 1c0-9 0-9 1-10"/><path fill="#cfbd9d" d="m82 101 5 1c-4.75 3.875-4.75 3.875-7 5 .875-4.875.875-4.875 2-6"/><path fill="#3b2b1b" d="M178.141 83.828 184 85v1l-12 2c4-4 4-4 6.141-4.172"/><path fill="#e0cfc1" d="M71 80c1.938.813 1.938.813 4 2l1 3-3 1c-2-3-2-3-2-6"/><path fill="#ab9f8c" d="m154 205 4 1-1.375 1.75c-1.466 2.03-2.574 3.985-3.625 6.25-.125-6.75-.125-6.75 1-9"/><path fill="#2288d0" d="M77 203c3.265 1.804 4.889 2.834 7 6-2.375-.187-2.375-.187-5-1-1.312-2.562-1.312-2.562-2-5"/><path fill="#122f48" d="M79 203c3.436 1.527 6.119 3.599 9 6l-2 1-3.5-2.937-1.969-1.652L79 204z"/><path fill="#ac9a82" d="M153 199h3c-.375 1.938-.375 1.938-1 4l-2 1-2-1z"/><path fill="#c6b494" d="M144 189c1.936 2.847 1.99 4.154 1.75 7.688L145 200l-2 1-.062-4.312-.035-2.426C143 192 143 192 144 189"/><path fill="#969696" d="m42 181 4 1-1 6c-1.5-1.25-1.5-1.25-3-3z"/><path fill="#d5c3ae" d="M154 152c1.938.375 1.938.375 4 1l1 2-6 2z"/><path fill="#755f4e" d="M72 120h3l-1 5-4 1z"/><path fill="#bbaa8b" d="m98 100 3.938.875 2.215.492C106 102 106 102 107 104l-5 1v-3l-4-1z"/><path fill="#b1a390" d="m179 97 8 1v1l-10 2v-2h2z"/><path fill="#daccb0" d="M168 83h4c1.125 3.75 1.125 3.75 0 6l-3-1z"/><path fill="#d2c5b7" d="m125 72 3 2v2l-4 3c-.625-1.812-.625-1.812-1-4z"/><path fill="#133b59" d="m125 68 5 4v2l2 1c-3 0-3 0-4.562-1.375L126 72l-2-2z"/><path fill="#bcb5ad" d="m168 65-5 5-1-5c3-1 3-1 6 0"/></svg>