<svg xmlns="http://www.w3.org/2000/svg" xmlns:xlink="http://www.w3.org/1999/xlink" version="1.1" id="Layer_1" x="0px" y="0px" viewBox="0 0 1080 1080" style="enable-background:new 0 0 1080 1080;" xml:space="preserve">
<style type="text/css">
	.st0{fill:#000000;}
</style>
<g>
	<g>
		<path class="st0" d="M28.75,540.04C28.78,255.41,261.59,26.91,544.9,30.43c278.63,3.46,506.45,232.5,502.93,516.36    c-3.43,276.53-229.61,505.47-514.66,502.8C254.18,1046.98,28.86,820.19,28.75,540.04z M329.27,715.59    c-17.34,15.86-33.16,34.17-44.39,56.21c-8.13,15.94-13.07,32.71-13.14,50.68c-0.14,34.98,14.36,64.18,36.93,89.7    c24.73,27.98,56.24,45.92,90.89,58.65c48.43,17.8,98.65,24.25,150.04,22.96c42.35-1.06,83.81-7.45,124.08-20.75    c39.68-13.11,76.48-31.44,105.95-61.92c31.59-32.67,44.88-71.81,37.44-116.79c-7.3-44.12-31.26-77.96-68.13-102.73    c-21.12-14.19-44.51-23.39-69.3-30.38c0.39,0.87,0.45,1.32,0.7,1.5c1.72,1.29,3.48,2.53,5.23,3.78    c21.03,14.91,40.82,31.2,56.22,52.14c29.21,39.73,24.24,78.86-13.88,110.11c-17.01,13.94-36.42,23.62-56.87,31.3    c-39.39,14.79-80.32,22.05-122.2,24.29C507.51,886.54,466.56,884,426.5,873c-30.57-8.39-59.21-20.75-81.61-44.23    c-22.7-23.79-32.01-52.27-26.47-84.66C320.14,734.05,325.71,724.64,329.27,715.59z M383.35,357.53c-2.33-1.94-4.08-3.37-5.8-4.84    c-20.58-17.66-40.38-36.07-54.26-59.77c-7.32-12.5-12.48-25.79-11.27-40.66c1.76-21.65,11.42-39.69,26.32-55.03    c20.91-21.53,47.15-34,75.25-42.88c43.78-13.84,88.82-18.25,134.54-17.17c39.73,0.93,78.87,5.9,117.06,17.14    c29.13,8.57,56.86,20.15,80.31,40.11c32.41,27.59,39.13,63.25,19.01,100.66c-14.21,26.43-35.42,46.66-58.41,65.23    c-9.56,7.72-19.52,14.94-30.59,23.36c29.4-8.15,56.16-18.43,79.53-35.83c38.73-28.84,61.86-67.03,63.83-115.76    c1.86-45.78-17.67-82.62-52.32-111.84c-29.4-24.79-63.45-40.74-99.93-51.79c-59.3-17.97-119.8-22.73-181.3-15.62    c-40.77,4.72-80.03,14.81-116.71,33.59c-34.94,17.89-64,42.19-82.5,77.65c-21.91,41.98-22.13,82.96,6.19,122.26    c22.92,31.8,54.5,53.05,88.51,71.16C381.23,357.73,381.88,357.53,383.35,357.53z M768.8,689.84c-0.48,0.56-0.96,1.13-1.44,1.69    c1.59,1.38,3.15,2.77,4.76,4.12c14.37,12.12,26.23,26.34,35.71,42.57c34.38,58.82,27.99,127.35-16.82,176.47    c-24.22,26.55-54.2,44.85-87.12,58.48c-56.81,23.52-116.22,32.53-177.42,31.2c-41.96-0.91-83.08-7.06-122.87-20.72    c-41.61-14.28-79.04-35.24-107.5-69.75c-18.69-22.67-31.36-48.21-34.39-77.83c-3.19-31.2,5.86-59.26,22.82-85.06    c19.92-30.32,46.79-53.59,76.22-74.15c8.52-5.95,17.33-11.49,26.86-17.78c-1.64,0.16-2.25,0.08-2.74,0.28    c-46.73,18.7-89.23,43.89-123.44,81.5c-37.59,41.31-58.7,89.76-61.96,145.67c-1.13,19.31-0.84,19.33,13.62,31.79    c0.59,0.51,1.17,1.05,1.77,1.55c88.52,74.54,190.68,114.44,306.22,118.82c85.6,3.24,166.87-14.95,243.34-53.81    c54.2-27.54,101.6-64.04,142.73-108.78c2.67-2.91,3.89-5.63,3.23-9.9c-2.77-17.98-8.46-34.97-16.38-51.26    c-20.19-41.58-51.03-73.92-88.15-100.62C793.85,705.69,781.17,697.98,768.8,689.84z M403.73,666.02    c-12.75,5.69-44.65,31.72-57.91,47.86c-7.77,9.46-15.04,19.4-17.11,31.7c-4.06,24.11,1.2,46.39,15.72,66.11    c15.9,21.6,38.14,34.52,62.69,43.78c44.79,16.89,91.49,20.68,138.77,18.45c45.04-2.12,89.05-10.12,130.87-27.75    c22.75-9.59,44.08-21.48,59.76-41.3c14.36-18.15,17.3-38.1,8.32-59.58c-5.52-13.2-14.02-24.4-23.75-34.73    c-12.06-12.81-25.55-23.91-40.39-33.58c1.08,3.4,2.66,6.44,4.11,9.53c13.78,29.41,7.47,57-19.03,75.76    c-11.18,7.92-23.88,14.59-36.86,18.93c-55.82,18.68-112.69,18.97-169.78,6.4c-22.56-4.97-43.95-13.06-61.61-28.72    c-18.24-16.18-23.62-37.27-13.6-59.51C389.43,687.22,397.56,676.26,403.73,666.02z M706.88,344.86    c23.97-20.23,46.08-41.94,55.7-72.91c6.04-19.44,2.81-37.97-9.85-53.85c-6.75-8.47-14.91-16.18-23.61-22.67    c-20.83-15.54-44.84-24.72-69.67-31.65c-55.74-15.55-112.53-19.54-169.99-13.87c-34.84,3.44-68.9,10.53-100.83,25.57    c-22.85,10.77-43.39,24.61-56.23,47.24c-8.32,14.66-12.8,30.1-7.85,47.26c6.31,21.85,33.56,53.35,52.43,67.12    c-0.62-1.45-1.05-2.51-1.52-3.54c-10.79-23.38-7.15-43.62,11.35-61.54c12.78-12.38,28.3-20.38,44.91-25.99    c68.93-23.29,138.97-25.32,209.68-9.66c20.21,4.48,39.38,11.96,55.87,24.94c22.78,17.91,28.72,41.43,17.33,68.01    C712.35,334.63,709.47,339.68,706.88,344.86z M420.92,370.31c2.03-16.52,6.73-24.57,20.73-32.85c7.69-4.55,15.99-8.41,24.46-11.22    c34.08-11.31,69.37-13.96,104.99-12.97c24.72,0.69,49.35,3,72.74,11.74c17.38,6.49,33.8,14.49,34.55,37.13    c11.18-10.22,23.08-27.56,27.83-40.3c7.24-19.41,2.62-36.83-13.19-50.2c-11.89-10.06-25.64-16.67-40.39-20.95    c-66.44-19.3-133.07-17.66-199.56-0.39c-21.12,5.49-41.35,13.51-57.92,28.56c-16.42,14.91-19.47,32.92-8.87,52.47    C394.67,346.75,406.95,358.71,420.92,370.31z M631.31,425.84c4.04,0,6.57,0.27,9.03-0.04c24.07-3,48.3-5.13,72.16-9.37    c39.19-6.98,76.67-19.47,110.34-41.28c57.87-37.48,87.75-90.43,86.92-159.97c-0.07-6.19-1.72-11.23-6.55-15.53    c-5.69-5.06-10.7-10.88-16.14-16.23c-46.09-45.29-99.08-80.15-158.77-104.84c-6.95-2.88-14.01-5.48-21.03-8.21    c1.45,2.04,3.34,2.99,5.26,3.87c28.01,12.82,53.8,28.96,75.24,51.35c32.96,34.43,47.07,75.57,40.28,122.68    c-6.89,47.75-32.11,84.7-71.77,111.75c-31.28,21.33-66.69,32.32-103.27,40.16c-2.03,0.43-4.7,0.92-5.75,2.35    C641.87,409.86,636.93,417.51,631.31,425.84z M921.4,220.43c-0.58,0.86-0.75,1-0.76,1.15c-0.12,1.95-0.22,3.91-0.31,5.86    c-2.55,58.38-26.52,106.03-71.99,142.65c-32.01,25.78-69.13,41.06-108.54,51.27c-35.01,9.07-70.7,13.59-106.77,15.42    c-2.51,0.13-6.5,0.83-7.19,2.41c-4.12,9.36-7.47,19.06-11.12,28.76c1.89,0.62,2.43,0.96,2.97,0.95c3.91-0.05,7.82-0.19,11.74-0.27    c46.11-0.98,91.87-5.39,137.11-14.45c47.46-9.5,93.28-23.82,135.32-48.43c30.1-17.62,56.35-39.46,75.56-69.2    c7.03-10.88,10.17-20.85,0.95-31.73c-0.12-0.14-0.16-0.36-0.25-0.53C962.07,274.56,943.34,246.65,921.4,220.43z M653.12,658.93    c-0.57,14-6.34,24-16.69,30.27c-9.45,5.72-19.55,11.02-30.05,14.26c-37.34,11.52-75.58,12.42-114.01,6.77    c-17.31-2.55-34.16-7.03-48.76-17.42c-7.23-5.15-12.96-11.59-14.58-20.57c-0.74-4.07-0.13-8.39-0.13-14.1    c-16.14,15.03-30.24,29.54-36.89,49.52c-5.05,15.17-1.56,28.6,9.45,40.06c12.61,13.12,28.65,20.41,45.67,25.48    c50.83,15.14,102.26,15.86,153.94,5.05c20.82-4.36,40.87-11.11,58.18-24.02c14.09-10.51,23.43-23.93,21.67-42.43    C678.96,691.08,666.98,675.41,653.12,658.93z M992.41,332.51c-4.76,7.33-8.51,13.78-12.9,19.76    c-23.64,32.21-55.12,54.85-90.37,72.5c-61.33,30.72-127.27,44.29-194.92,50.55c-25.72,2.38-51.61,2.87-77.41,4.4    c-1.66,0.1-4.41,1.54-4.64,2.74c-1.56,8.16-2.58,16.43-3.82,24.98c12.22,0,23.34,0.11,34.46-0.02    c72.94-0.82,145.63-5.16,217.74-16.71c38.91-6.23,77.34-14.58,114.05-29.36c16.75-6.74,32.97-14.52,46.42-27.05    c3.08-2.87,4.16-5.74,2.86-9.86c-6.59-20.88-12.77-41.9-19.63-62.69C1001.01,351.99,996.55,342.63,992.41,332.51z M451.38,427.64    c0.3-0.52,0.6-1.03,0.91-1.55c-4.17-6.54-8.1-13.27-12.67-19.52c-1.46-2-4.54-3.68-7.05-3.95c-32.81-3.41-65.15-8.95-96.3-20.18    c-37-13.34-69.75-33.03-93.76-65.01c-27.85-37.09-36.37-79.52-33.1-124.91c0.72-10.04,2.39-20.02,3.68-30.45    c-0.93,0.63-1.61,0.99-2.17,1.48c-33.39,29.16-62.58,62.04-87.1,98.99c-1.49,2.25-1.92,5.98-1.36,8.71    c5.29,25.74,19.66,46.23,38.23,64.05c25.31,24.28,55.66,40.35,88.01,52.94c39.43,15.34,80.45,24.6,122.21,30.43    C397.62,422.4,424.54,424.7,451.38,427.64z M475.57,508.23c-1.68-11.59-3.11-21.5-4.71-32.54c-9.98,0-19.17,0.23-28.34-0.04    c-73.51-2.14-146.58-8.56-218.66-23.75c-42.03-8.86-83.29-20.4-121.68-40.18c-13.47-6.94-26.04-15.62-40.28-24.27    c-5.12,22.7-10.4,45.69-15.3,68.76c-0.34,1.59,1.78,4.77,3.5,5.54c9.97,4.48,19.94,9.13,30.32,12.49    c44.57,14.43,90.71,20.88,137.09,25.66c74.72,7.69,149.71,8.84,224.75,8.33C452.81,508.17,463.36,508.23,475.57,508.23z     M112.8,279.24c-0.51,0.95-0.77,1.49-1.08,1.99c-17.54,28.86-32.12,59.13-43.19,91.05c-0.55,1.59,0.44,4.71,1.78,5.79    c6.54,5.27,13.13,10.61,20.28,14.99c33.94,20.76,71.31,32.91,109.6,42.41c79.27,19.69,160.12,26.89,241.49,29.59    c8.5,0.28,17.02,0.04,26.44,0.04c-2.94-7.9-5.9-15.51-8.56-23.22c-1.05-3.05-2.72-4.09-5.93-4.28    c-37.17-2.15-74.17-5.96-110.81-12.71c-46.19-8.51-91.3-20.62-133.14-42.54C165.84,359.38,129.13,329.4,112.8,279.24z     M1036.86,530.76c-11.6,2.79-22.87,6.1-34.36,8.15c-53.76,9.61-108.19,11.78-162.6,13.95c-26.23,1.04-52.48,1.43-78.73,1.66    c-40.17,0.35-80.34,0.32-120.5,0.43c-9.54,0.03-19.08,0-29.65,0c2.13,8.88,4.15,16.79,5.88,24.75c0.76,3.49,2.44,4.62,6.03,4.71    c33.09,0.86,66.2,1.35,99.25,3.05c52.03,2.67,104.09,5.27,155.98,9.68c35.46,3.01,70.75,8.48,105.94,13.98    c15.48,2.42,30.53,7.65,45.83,11.62C1034.06,611.01,1038.53,553.08,1036.86,530.76z M44.18,472.91    c-4.34,18.6-6.61,80.55-3.61,95.59c22.53-3.11,44.87-7.53,67.42-9.04c63.08-4.25,126.21-7.93,189.38-10.63    c48.51-2.07,97.1-2.34,145.65-3.32c10.14-0.21,20.29-0.03,31.12-0.03c0.56-9.69,1.06-18.32,1.55-26.66    c-12.73,0-24.44-0.06-36.16,0.01c-77.39,0.47-154.71-0.92-231.74-9.29c-36.41-3.96-72.7-8.96-108.07-18.7    C80.94,485.68,62.61,478.92,44.18,472.91z M461.09,598.43c-18.69,0-36.31-0.27-53.93,0.05c-63.32,1.13-126.44,5.11-189.11,14.71    c-40.51,6.2-80.64,14.24-118.83,29.57c-13,5.22-25.14,12.59-37.66,18.99c-4.86,2.48-6.43,5.77-4.41,11.39    c3.97,11.04,6.9,22.44,10.81,33.5C71.97,718,76.62,729.13,81.24,741c4.58-5.76,8.17-10.85,12.34-15.41    c18.91-20.68,42.71-34.24,68.01-45.23c62.12-27.01,128.04-38.43,194.76-45.86c29.19-3.25,58.56-4.77,87.84-7.25    c1.78-0.15,4.3-1.31,5-2.72C453.31,616.14,457,607.54,461.09,598.43z M472.54,556.47c-16.26,0-31.52-0.28-46.77,0.05    c-47.39,1.03-94.78,2.12-142.16,3.51c-64.81,1.9-129.58,4.74-194.06,11.98c-16.25,1.83-32.67,3.29-49.25,10.31    c3.77,23.97,7.55,47.96,11.46,72.8c6.01-3.68,10.4-6.59,14.99-9.14c26.43-14.64,55-23.48,84.16-30.52    c73.47-17.74,148.38-23.76,223.61-26.73c28.38-1.12,56.81-1.08,85.21-1.4c3.37-0.04,5.39-0.61,6.23-4.31    C467.99,574.07,470.36,565.2,472.54,556.47z M622,596.13c3.55,8.27,7.29,16.59,10.68,25.07c1.45,3.63,3.53,4.74,7.45,4.84    c55.83,1.47,111.5,5.13,166.82,13.02c41.53,5.92,82.61,13.91,122.19,28.24c23.66,8.57,46.49,18.83,65.34,36.12    c3.8,3.49,7.18,7.44,11.15,11.59c9.22-24.48,16.06-48.89,21.44-73.76c1.01-4.67-0.15-7.2-4.44-8.43    c-13.32-3.84-26.47-8.61-40.03-11.21c-69.8-13.42-140.6-17.55-211.39-21.31c-34.02-1.81-68.07-2.98-102.12-4.06    C653.68,595.72,638.24,596.13,622,596.13z M1028.06,442.95c-4.21,3.22-7.07,5.58-10.11,7.7c-20.64,14.4-43.8,23.34-67.63,30.61    c-62.16,18.98-126.2,27.45-190.74,31.6c-48.83,3.14-97.81,3.81-146.72,5.6c-1.3,0.05-2.59,0.31-4.52,0.54    c0.31,6.97,0.73,13.58,0.87,20.19c0.08,4.04,1.84,5.23,5.8,5.2c12.34-0.1,24.68,0.4,37.02,0.28    c56.21-0.57,112.43-0.94,168.63-2.02c56.01-1.08,111.96-3.78,167.43-12.09c14.42-2.16,28.5-6.63,42.71-10.14    c4.64-1.14,6.45-3.77,5.76-9.01c-1.48-11.25-1.89-22.64-3.25-33.91C1031.95,466.31,1029.95,455.18,1028.06,442.95z M427.21,391.81    c0.04-0.59,0.09-1.19,0.13-1.78c-9.71-4.06-19.54-7.86-29.12-12.21c-38.09-17.29-73.51-38.57-102.2-69.67    c-39.81-43.16-46.95-93.96-20.71-146.41c18.6-37.18,48.1-63.29,84.16-82.58c11.08-5.93,22.7-10.84,34.28-16.31    c-0.76,0-1.35-0.14-1.85,0.02c-58.79,18.19-112.47,46.18-160.85,84.22c-2.22,1.75-3.89,4.9-4.63,7.71    c-6.47,24.46-8.63,49.3-6.1,74.53c4.77,47.61,25.6,86.17,64.45,114.55c28.19,20.59,60.24,32.27,93.99,39.56    C394.77,386.9,411.06,389.06,427.21,391.81z M384.18,642.73c-0.92-0.1-1.5-0.27-2.06-0.22c-3.9,0.35-7.8,0.73-11.69,1.11    c-46.8,4.63-93.18,11.71-138.67,23.84c-36.04,9.61-71.11,21.79-102.61,42.38c-15.85,10.36-30.33,22.24-39.38,39.49    c-1.66,3.17-2.08,5.85-0.13,9.23c10.18,17.61,20.08,35.37,30.16,53.03c1.69,2.96,3.8,5.69,5.97,8.9    c11.65-34.16,35.92-61.96,61.46-83.14c39.21-32.53,84.14-54.8,131.53-72.41C340.13,656.99,361.96,650.23,384.18,642.73z     M706.63,647.96c-0.11,0.4-0.23,0.8-0.34,1.2c2.29,0.97,4.57,1.96,6.87,2.9c53.43,21.79,102.85,49.9,143.39,91.78    c28.8,29.75,50.41,63.8,61,104.25c1.01,3.87,1.89,7.77,2.82,11.65c0.58,0.22,1.17,0.44,1.75,0.67    c12.73-18.04,25.61-35.99,38.03-54.25c1.82-2.68,2.77-7.29,1.82-10.27c-3.14-9.79-6.14-19.95-11.35-28.69    c-14.29-23.98-35.79-40.76-59.29-55.02c-39.7-24.09-83.11-39.07-127.75-50.75C744.71,656.51,725.62,652.43,706.63,647.96z     M188.1,895.99c4.72-103.26,57.81-173.79,143.12-223.73c-1.6,0.14-3.1,0.41-4.46,1c-23.25,10.22-46.98,19.51-69.62,30.94    c-34.46,17.41-65.83,39.44-91.29,68.96c-13.8,16-25.22,33.48-30.39,54.3c-0.68,2.74,0.1,6.75,1.77,9.01    c7.08,9.61,14.48,19.01,22.27,28.05C168.51,874.97,178.04,884.97,188.1,895.99z M441.75,388.75    c10.28-4.75,19.25-10.25,28.99-13.17c44.95-13.49,90.72-13.77,136.68-6.34c14.92,2.41,29.6,6.17,41.91,18.89    c5.47-7.31,11.25-14.14,15.98-21.63c4.03-6.38,2.3-12.96-2.74-18.31c-2.51-2.67-5.44-5.45-8.75-6.78    c-10.66-4.29-21.3-9.2-32.44-11.59c-40.92-8.78-82.11-8.04-123.2-0.82c-17.21,3.02-34.14,7.36-49.35,16.38    c-19.78,11.73-21.97,25.87-7.05,43.36C442.02,389.04,442.39,389.22,441.75,388.75z M451.86,640.19    c-2.96,4.51-7.23,9.9-10.26,15.91c-5.06,10-3.47,19.04,5.62,25.58c7.33,5.27,15.66,9.97,24.26,12.52    c40.97,12.13,82.33,11.21,123.64,1.49c13.78-3.24,27.1-7.89,38.08-17.39c9.49-8.21,11.44-17.85,5.64-28.91    c-2.15-4.1-5.05-7.8-6.74-10.37C571.96,661.16,513.11,660.83,451.86,640.19z M972.85,787.08c8.46-17.82,16.84-35.69,25.46-53.43    c1.88-3.86,1.94-7.4-0.89-10.27c-7.36-7.5-14.27-15.79-22.76-21.76c-25.51-17.92-54.85-27.38-84.62-35.34    c-43.25-11.56-87.43-17.87-131.89-22.45c-9.26-0.95-18.55-1.65-27.83-2.47c16.06,4.8,32.24,8.61,48.23,13.08    c41.79,11.69,82.43,26.38,119.51,49.38C930.6,724.01,958.79,748.32,972.85,787.08z M461.42,422.96    c53.89-15.74,106.88-19.62,159.98,1.36c6-9.48,12.34-19.5,18.78-29.67c-5.52-7.2-13.65-9.74-21.72-11.97    c-25.18-6.99-51-8-76.92-7.23c-24.54,0.73-48.92,3.06-72.1,11.83c-6.48,2.45-12.43,6.46-18.25,10.33    c-1.33,0.89-2.17,4.73-1.38,6.22C453.4,410.53,457.65,416.87,461.42,422.96z M611.56,595.54c-46.57,19.78-93.33,17.85-140.52,3.21    c-4.37,10.3-8.6,20.29-13.18,31.09c5.86,2.31,11.3,5.06,17.07,6.62c40.07,10.84,80.47,10.74,121,2.87    c10.35-2.01,20.43-5.02,29.23-11.06C620.57,617.21,616.15,606.59,611.56,595.54z M604.72,468.73c4-11.71,7.71-22.56,11.87-34.72    c-50.2-19.71-99.92-15.92-150.13-1.37c4.2,11.72,7.94,22.16,11.92,33.26C520.59,455.44,562.76,454.1,604.72,468.73z     M474.51,588.56c45.28,14.11,89.68,16.03,133.78-3.38c-2.43-10.62-4.69-20.47-7.07-30.83c-39.67,9.65-79.17,11.91-118.71,0.66    C479.79,566.42,477.26,577.04,474.51,588.56z M602.55,479.32c-40.29-14.49-80.83-13.35-121.82-2.9    c1.4,10.34,2.78,20.48,4.19,30.87c38.19,0,76.04,0,114.02,0C600.07,498.56,601.26,489.29,602.55,479.32z M483.7,544.34    c39.16,11.25,77.69,9.14,116.22-0.76c-0.39-8.33-0.77-16.26-1.2-25.43c-38.08,0-75.75,0-113.46,0    C484.72,527.08,484.23,535.48,483.7,544.34z" fill="#000000"/>
	</g>
</g>
</svg>