<svg xmlns="http://www.w3.org/2000/svg" fill="none" class="icon-embed" viewBox="0 0 31 31"><g fill="currentColor" clip-path="url(#a)"><path d="m14.557 10.976-.726 2.597h13.38l-1.078 3.854h-13.38l-.726 2.598c-.195.694.194 1.256.866 1.256h15.31l-.005.016c1.108-1.79 1.936-3.747 2.399-5.797.46-2.043.515-3.994.218-5.78H16.126c-.672 0-1.375.562-1.569 1.256"/><path fill-rule="evenodd" d="M7.876 25.134c-1.85-.015-2.914-1.57-2.378-3.486l3.44-12.297c.538-1.925 2.487-3.485 4.353-3.485H29.5C27.54 2.292 23.787 0 18.995 0 10.657 0 2.333 6.94.403 15.5S3.666 31 12.005 31c4.792 0 9.579-2.292 13.15-5.866z" clip-rule="evenodd"/></g><defs><clipPath id="a"><path fill="currentColor" d="M0 0h31v31H0z"/></clipPath></defs></svg>