<svg xmlns="http://www.w3.org/2000/svg" width="401" height="401" viewBox="0 0 401 401" version="1.1"><path d="M 224.434 102.340 C 223.914 103.732, 215.955 133.095, 211.923 148.500 C 210.339 154.550, 209.034 160.517, 209.022 161.759 C 209.010 163.002, 213.795 172.227, 219.655 182.259 C 225.515 192.292, 233.247 205.675, 236.837 212 C 240.427 218.325, 243.483 223.663, 243.628 223.863 C 243.773 224.062, 246.504 224.801, 249.696 225.505 C 252.888 226.209, 266.275 229.773, 279.445 233.425 C 292.615 237.076, 303.868 239.881, 304.451 239.657 C 305.736 239.164, 312.395 214.471, 311.718 212.708 C 311.455 212.022, 297.163 207.655, 279.959 203.005 C 245.781 193.766, 242.801 192.450, 238.944 184.890 C 235.978 179.076, 236.233 172.545, 239.954 159 C 241.691 152.675, 245.377 139.265, 248.145 129.201 C 250.912 119.136, 252.955 110.325, 252.684 109.619 C 252.413 108.914, 247.536 107.074, 241.846 105.531 C 226.018 101.239, 224.921 101.038, 224.434 102.340 M 160.820 105.355 C 154.395 107.085, 148.880 108.765, 148.563 109.090 C 148.247 109.414, 149.762 115.960, 151.932 123.636 C 159.285 149.655, 165 172.595, 164.990 176.055 C 164.973 181.979, 160.763 189.471, 155.840 192.337 C 153.371 193.774, 141.585 197.515, 128.500 201.014 C 98.585 209.014, 89 211.886, 89 212.851 C 89 213.283, 89.620 215.856, 90.377 218.568 C 91.134 221.281, 92.783 227.251, 94.040 231.835 C 96.077 239.260, 96.554 240.120, 98.413 239.709 C 101.606 239.004, 146.803 227.074, 152.696 225.382 C 157.772 223.924, 158.005 223.689, 162.770 215.195 C 168.292 205.353, 188.111 171.200, 191.184 166.231 C 193.165 163.028, 193.171 162.816, 191.462 155.731 C 190.502 151.754, 188.498 144.225, 187.009 139 C 185.519 133.775, 182.592 123.313, 180.505 115.750 C 177.130 103.524, 176.476 102.012, 174.605 102.105 C 173.447 102.162, 167.244 103.625, 160.820 105.355 M 143.006 259.516 L 120.570 282.033 130.521 292.021 C 135.994 297.515, 140.789 301.895, 141.178 301.755 C 141.566 301.615, 152.147 291.332, 164.692 278.904 C 177.236 266.477, 189.075 255.471, 191 254.446 C 195.685 251.953, 205.275 251.941, 210 254.422 C 211.925 255.432, 223.646 266.326, 236.047 278.630 C 248.447 290.933, 259.247 300.991, 260.047 300.981 C 261.878 300.957, 280.231 283.192, 279.790 281.871 C 279.611 281.334, 269.587 271.018, 257.515 258.947 L 235.566 237 200.504 237 L 165.441 237 143.006 259.516" stroke="none" fill="#dbe8de" fill-rule="evenodd"/><path d="M 190.500 3.214 C 148.155 5.734, 107.946 20.970, 76.295 46.489 C 67.107 53.897, 51.338 69.781, 44.516 78.500 C 26.924 100.985, 14.379 126.120, 7.462 152.744 C -0.936 185.065, -0.883 217.487, 7.624 252 C 15.296 283.122, 32.608 314.365, 55.973 339.257 C 74.087 358.554, 101.065 376.706, 127 387.048 C 152.880 397.368, 167.604 399.884, 203.500 400.121 C 228.432 400.285, 243.136 398.157, 259.500 392.014 C 265 389.949, 271.300 387.700, 273.500 387.016 C 286.675 382.921, 315.257 365.740, 326.500 355.156 C 328.700 353.085, 333.180 349.166, 336.455 346.446 C 349.355 335.733, 358.739 324.729, 369.665 307.500 C 398.464 262.090, 407.255 204.537, 393.486 151.544 C 388.337 131.724, 378.376 109.300, 367.481 93 C 350.032 66.894, 330.566 48.440, 301.588 30.530 C 270.819 11.514, 227.992 0.983, 190.500 3.214 M 224.434 102.340 C 223.914 103.732, 215.955 133.095, 211.923 148.500 C 210.339 154.550, 209.034 160.517, 209.022 161.759 C 209.010 163.002, 213.795 172.227, 219.655 182.259 C 225.515 192.292, 233.247 205.675, 236.837 212 C 240.427 218.325, 243.483 223.663, 243.628 223.863 C 243.773 224.062, 246.504 224.801, 249.696 225.505 C 252.888 226.209, 266.275 229.773, 279.445 233.425 C 292.615 237.076, 303.868 239.881, 304.451 239.657 C 305.736 239.164, 312.395 214.471, 311.718 212.708 C 311.455 212.022, 297.163 207.655, 279.959 203.005 C 245.781 193.766, 242.801 192.450, 238.944 184.890 C 235.978 179.076, 236.233 172.545, 239.954 159 C 241.691 152.675, 245.377 139.265, 248.145 129.201 C 250.912 119.136, 252.955 110.325, 252.684 109.619 C 252.413 108.914, 247.536 107.074, 241.846 105.531 C 226.018 101.239, 224.921 101.038, 224.434 102.340 M 160.820 105.355 C 154.395 107.085, 148.880 108.765, 148.563 109.090 C 148.247 109.414, 149.762 115.960, 151.932 123.636 C 159.285 149.655, 165 172.595, 164.990 176.055 C 164.973 181.979, 160.763 189.471, 155.840 192.337 C 153.371 193.774, 141.585 197.515, 128.500 201.014 C 98.585 209.014, 89 211.886, 89 212.851 C 89 213.283, 89.620 215.856, 90.377 218.568 C 91.134 221.281, 92.783 227.251, 94.040 231.835 C 96.077 239.260, 96.554 240.120, 98.413 239.709 C 101.606 239.004, 146.803 227.074, 152.696 225.382 C 157.772 223.924, 158.005 223.689, 162.770 215.195 C 168.292 205.353, 188.111 171.200, 191.184 166.231 C 193.165 163.028, 193.171 162.816, 191.462 155.731 C 190.502 151.754, 188.498 144.225, 187.009 139 C 185.519 133.775, 182.592 123.313, 180.505 115.750 C 177.130 103.524, 176.476 102.012, 174.605 102.105 C 173.447 102.162, 167.244 103.625, 160.820 105.355 M 143.006 259.516 L 120.570 282.033 130.521 292.021 C 135.994 297.515, 140.789 301.895, 141.178 301.755 C 141.566 301.615, 152.147 291.332, 164.692 278.904 C 177.236 266.477, 189.075 255.471, 191 254.446 C 195.685 251.953, 205.275 251.941, 210 254.422 C 211.925 255.432, 223.646 266.326, 236.047 278.630 C 248.447 290.933, 259.247 300.991, 260.047 300.981 C 261.878 300.957, 280.231 283.192, 279.790 281.871 C 279.611 281.334, 269.587 271.018, 257.515 258.947 L 235.566 237 200.504 237 L 165.441 237 143.006 259.516" stroke="none" fill="#0ed073" fill-rule="evenodd"/></svg>
