<svg xmlns="http://www.w3.org/2000/svg" width="1280" height="1280"><path fill="#e8f6f9" d="M0 0h1280v1280H0z"/><path fill="#fefefe" d="M734 317c2.87 1.794 4.491 2.983 6 6 2.338 16.846-7.643 30.29-16 44l3.905.228 14.649.889 6.283.375C781.41 370.391 781.41 370.391 797 375a131 131 0 0 0 5.047.93l2.778.464 2.925.482L820 379l2.488.428c27.086 4.77 51.895 15.74 76.512 27.572l2.855 1.361C917.813 416.049 931.331 426.702 944 439l1.547 1.485C957.048 451.555 966.153 463.772 975 477l2.211 3.297C988.408 497.363 998.934 514.793 1006 534l.728 1.96c9.463 25.906 14.393 53.029 14.44 80.583l.013 3.602-.026 14.766c-.111 14.96.132 26.978 7.845 40.089l2.104 3.765 3.923 6.825c14.177 24.508 21.161 50.372 21.158 78.661l.039 6.647c.159 38.529-11.264 78.46-38.08 107.082l-3.457 3.371c-2.514 2.456-4.761 5.126-7.039 7.801-1.471 1.649-2.994 3.077-4.648 4.535-2.259 2.095-2.259 2.095-1.973 4.629 1.313 3.624 3.672 5.513 6.535 7.934 8.373 7.394 15.875 15.543 23.438 23.75l2.922 3.145c4.868 5.284 9.49 10.717 13.996 16.313a159 159 0 0 0 5.582 6.418c15.962 18.127 27.842 41.161 38.349 62.769l3.862 7.797c5.856 11.861 11.206 23.863 16.164 36.121l.802 1.982c17.13 42.464 33.269 86.623 37.974 132.397a187 187 0 0 0 .861 6.482c1.619 11.148 1.793 22.157 1.748 33.411l.013 9.477-.008 6.188.012 2.779c-.059 8.478-1.202 16.114-2.278 24.721H191c-.676-10.813-1.204-21.5-1.187-32.312l.002-2.251c.083-38.464 3.44-76.123 13.186-113.436l.824-3.202c8.695-33.49 19.586-68.35 36.176-98.798l1.119-2.095c6.407-11.991 13.477-23.507 20.881-34.905l1.296-2.003c5.855-9.016 12.073-17.744 18.399-26.435l11.062-15.587a351 351 0 0 1 8.868-12.038C314.287 920.201 324.797 903.585 323 882c-2.365-14.587-10.642-30.952-19-43-1.02-2.211-1.02-2.211-1.812-4.375-1.69-4.412-3.527-8.743-5.437-13.062L285 794l-1.331-3.189C261.752 738.18 251.925 685.817 260 629l.34-2.534c8.02-59.133 36.972-116.726 78.785-158.841l2.745-2.774c6.071-6.042 12.445-11.503 19.13-16.851l5.5-4.75c28.592-23.845 63.984-41.915 99.208-53.49l7.789-2.65c30.865-10.576 62.187-17.997 94.485-22.669l6.222-.969c7.812-1.2 15.428-1.64 23.321-1.796 32.755-.608 32.755-.608 60.969-15.771 4.02-3.055 8.374-5.407 12.82-7.78l2.442-1.329c14.25-7.668 28.597-13.682 44.244-17.796l3.691-1.105c4.218-1.14 7.979-1.576 12.309-.895"/><path fill="#8db4fe" d="M734 317c2.87 1.794 4.491 2.983 6 6 2.338 16.846-7.643 30.29-16 44l3.905.228 14.649.889 6.283.375C781.41 370.391 781.41 370.391 797 375a131 131 0 0 0 5.047.93l2.778.464 2.925.482L820 379l2.488.428c27.086 4.77 51.895 15.74 76.512 27.572l2.855 1.361C917.813 416.049 931.331 426.702 944 439l1.547 1.485C957.048 451.555 966.153 463.772 975 477l2.211 3.297C988.408 497.363 998.934 514.793 1006 534l.728 1.96c9.463 25.906 14.393 53.029 14.44 80.583l.013 3.602-.026 14.766c-.111 14.96.132 26.978 7.845 40.089l2.104 3.765 3.923 6.825c14.177 24.508 21.161 50.372 21.158 78.661l.039 6.647c.159 38.529-11.264 78.46-38.08 107.082l-3.457 3.371c-2.514 2.456-4.761 5.126-7.039 7.801-1.471 1.649-2.994 3.077-4.648 4.535-2.259 2.095-2.259 2.095-1.973 4.629 1.313 3.624 3.672 5.513 6.535 7.934 8.373 7.394 15.875 15.543 23.438 23.75l2.922 3.145c4.868 5.284 9.49 10.717 13.996 16.313a159 159 0 0 0 5.582 6.418c15.962 18.127 27.842 41.161 38.349 62.769l3.862 7.797c5.856 11.861 11.206 23.863 16.164 36.121l.802 1.982c17.13 42.464 33.269 86.623 37.974 132.397a187 187 0 0 0 .861 6.482c1.619 11.148 1.793 22.157 1.748 33.411l.013 9.477c.007 11.393-.456 22.428-2.273 33.688h-12l-.136-2.509c-1.047-18.91-2.44-37.698-4.864-56.491l-.413-3.24c-3.224-24.731-7.658-49.824-14.964-73.708l-1.947-6.653c-13.187-45.591-31.382-91.11-56.676-131.398l-1.084-1.734c-8.931-14.238-18.539-28.026-28.593-41.493l-2.584-3.479a213 213 0 0 0-16.34-19.551c-3.978-4.233-7.67-8.642-11.298-13.18-2.074-2.529-4.251-4.917-6.477-7.312-4.191-4.701-6.677-8.279-6.562-14.812 1.55-5.683 5.052-9.696 8.946-14.027 31.849-35.473 43.848-83.55 41.991-130.411-.451-5.806-1.599-11.358-3-17l-.57-2.455c-5.024-21.443-13.737-41.002-24.139-60.349l-1.603-2.985-1.426-2.616c-5.906-12.148-5.277-26.013-2.77-38.958 1.676-9.378 1.975-18.506 1.883-28.012l-.009-2.461c-.065-15.212-1.314-30.086-3.366-45.164l-.598-4.758L1002 552l-3-1c-1.168-1.742-1.168-1.742-2.187-3.875l-1.043-2.117C995 543 995 543 995 540h-2c-1.508-2.117-1.508-2.117-3.125-4.875l-1.633-2.742C987 530 987 530 987 528h-2a150 150 0 0 1-4-6l-1.75-2.25C978 518 978 518 978 516l-1.687-.687c-2.965-1.683-4.929-3.874-7.312-6.312-5.623-5.608-12.334-9.309-19.263-13.054l-4.573-2.579c-20.632-11.291-46.418-14.455-69.289-8.742-6.686 2.055-12.812 4.909-18.875 8.375l-2.539 1.402c-10.432 5.978-19.603 13.464-28.281 21.727C824 518 824 518 822 518l-.687 1.703c-1.682 2.943-3.784 4.797-6.312 7.047l-2.687 2.422C810 531 810 531 808 531l-.77 1.809c-3.209 5.716-10.186 9.213-16.23 11.191-10.375 1.627-20.591-5.707-29-11l-2-1v-2l-2.547-.734c-3.911-1.433-7.18-3.325-10.703-5.516l-3.703-2.266-1.956-1.203C722.994 509.19 704.575 498.285 685 490l-3.516-1.523c-18.709-7.928-38.364-14.875-58.172-19.414l-2.456-.567c-13.898-2.991-27.59-3.824-41.757-3.757-2.663.011-5.325 0-7.989-.013-27.103-.023-54.305 5.923-78.111 19.273l-3.074 1.719L481 491l-2.262 1.355c-5.822 3.67-10.915 8.115-16.042 12.682C458.206 509 458.206 509 456 509l-1 3-6 5-1 2h-2l-.758 1.691c-1.447 2.689-3.186 4.882-5.117 7.246l-2.055 2.527-4.012 4.887c-2.536 3.262-4.834 6.647-7.121 10.086l-1.314 1.947c-2.509 3.761-4.687 7.519-6.623 11.615l-1.543 3.164C409.634 578.628 402.865 595.145 399 613l-.692 3.031C391.596 646.258 390.179 680.9 398 711l.667 2.797c4.2 17.549 10.649 34.243 17.303 50.977a185 185 0 0 1 4.03 11.225h2l1.035 1.949c10.806 20.317 10.806 20.317 23.129 39.737C449 821.807 449 821.807 449 824l3 1c1.035 1.609 1.035 1.609 2.063 3.75 4.485 8.497 10.961 15.822 17 23.25 4.649 5.768 8.77 11.881 12.938 18 2.31 3.39 4.548 6.559 7.5 9.438 2.596 2.66 4.292 5.299 6.191 8.465 1.299 2.083 2.697 4.02 4.184 5.973l6.938 9.375 1.77 2.453c1.335 2.162 1.98 3.815 2.418 6.297h2a117 117 0 0 1 4.063 6.625l2.422 4.133 1.256 2.138c2.617 4.373 5.429 8.621 8.217 12.886 3.324 5.236 6.286 10.217 8.043 16.219h2c6.961 13.61 12.849 27.152 17.57 41.703a170 170 0 0 0 2.98 8.375c9.925 26.145 12.53 61.774 6.449 88.922l-.537 2.458-1.9 8.417-.622 2.706c-1.223 5.091-2.754 9.664-4.941 14.419l-1.875 4.813c-2.084 5.226-4.562 10.183-7.125 15.188l-2.848 5.692-2.076 4.151-4.76 9.594c-5.615 11.419-11.789 22.535-18.039 33.617-4.893 8.75-9.049 17.861-13.277 26.945l-1.594 3.41-10.083 22.211L489 1267l-6 13H191c-.676-10.813-1.204-21.5-1.187-32.312l.002-2.251c.083-38.464 3.44-76.123 13.186-113.436l.824-3.202c8.695-33.49 19.586-68.35 36.176-98.798l1.119-2.095c6.407-11.991 13.477-23.507 20.881-34.905l1.296-2.003c5.855-9.016 12.073-17.744 18.399-26.435l11.062-15.587a351 351 0 0 1 8.868-12.038C314.287 920.201 324.797 903.585 323 882c-2.365-14.587-10.642-30.952-19-43-1.02-2.211-1.02-2.211-1.812-4.375-1.69-4.412-3.527-8.743-5.437-13.062L285 794l-1.331-3.189C261.752 738.18 251.925 685.817 260 629l.34-2.534c8.02-59.133 36.972-116.726 78.785-158.841l2.745-2.774c6.071-6.042 12.445-11.503 19.13-16.851l5.5-4.75c28.592-23.845 63.984-41.915 99.208-53.49l7.789-2.65c30.865-10.576 62.187-17.997 94.485-22.669l6.222-.969c7.812-1.2 15.428-1.64 23.321-1.796 32.755-.608 32.755-.608 60.969-15.771 4.02-3.055 8.374-5.407 12.82-7.78l2.442-1.329c14.25-7.668 28.597-13.682 44.244-17.796l3.691-1.105c4.218-1.14 7.979-1.576 12.309-.895"/><path fill="#040406" d="M734 317c2.87 1.794 4.491 2.983 6 6 2.338 16.846-7.643 30.29-16 44l3.905.228 14.649.889 6.283.375C781.41 370.391 781.41 370.391 797 375a131 131 0 0 0 5.047.93l2.778.464 2.925.482L820 379l2.488.428c27.086 4.77 51.895 15.74 76.512 27.572l2.855 1.361C917.813 416.049 931.331 426.702 944 439l1.547 1.485C957.048 451.555 966.153 463.772 975 477l2.211 3.297C988.408 497.363 998.934 514.793 1006 534l.728 1.96c9.463 25.906 14.393 53.029 14.44 80.583l.013 3.602-.026 14.766c-.111 14.96.132 26.978 7.845 40.089l2.104 3.765 3.923 6.825c14.177 24.508 21.161 50.372 21.158 78.661l.039 6.647c.159 38.529-11.264 78.46-38.08 107.082l-3.457 3.371c-2.514 2.456-4.761 5.126-7.039 7.801-1.471 1.649-2.994 3.077-4.648 4.535-2.259 2.095-2.259 2.095-1.973 4.629 1.313 3.624 3.672 5.513 6.535 7.934 8.373 7.394 15.875 15.543 23.438 23.75l2.922 3.145c4.868 5.284 9.49 10.717 13.996 16.313a159 159 0 0 0 5.582 6.418c15.962 18.127 27.842 41.161 38.349 62.769l3.862 7.797c5.856 11.861 11.206 23.863 16.164 36.121l.802 1.982c17.13 42.464 33.269 86.623 37.974 132.397a187 187 0 0 0 .861 6.482c1.619 11.148 1.793 22.157 1.748 33.411l.013 9.477c.007 11.393-.456 22.428-2.273 33.688h-12l-.136-2.509c-1.047-18.91-2.44-37.698-4.864-56.491l-.413-3.24c-3.224-24.731-7.658-49.824-14.964-73.708l-1.947-6.653c-13.187-45.591-31.382-91.11-56.676-131.398l-1.084-1.734c-8.931-14.238-18.539-28.026-28.593-41.493l-2.584-3.479a213 213 0 0 0-16.34-19.551c-3.978-4.233-7.67-8.642-11.298-13.18-2.074-2.529-4.251-4.917-6.477-7.312-4.191-4.701-6.677-8.279-6.562-14.812 1.55-5.683 5.052-9.696 8.946-14.027 31.849-35.473 43.848-83.55 41.991-130.411-.451-5.806-1.599-11.358-3-17l-.57-2.455c-5.024-21.443-13.737-41.002-24.139-60.349l-1.603-2.985-1.426-2.616c-5.906-12.148-5.277-26.013-2.77-38.958 1.675-9.377 1.979-18.506 1.883-28.012l-.013-2.476c-.22-35.85-5.757-68.634-23.362-100.149l-1.256-2.249C962.234 468.119 937.603 438.876 901 422l-2.605-1.215C867.173 406.24 835.632 396.304 802 389l-2.174-.473-8.884-1.902L779 384l.25 2.625c-.327 4.421-1.322 6.028-4.25 9.375-5.464 3.944-14.025 10-21 10 3.945 4.699 8.073 9.063 12.5 13.313 5.959 5.926 11.59 12.061 13.25 20.5-.743 3.158-1.482 5.687-3.758 8.078-5.787 3.223-13.389 1.827-19.48.148-16.453-6.071-16.453-6.071-21.512-12.039-.375-2.562-.375-2.562 0-5 3.679-2.452 4.542-2.015 8.75-1.187A254 254 0 0 0 757 432l-2.414-2.527c-16.382-17.332-16.382-17.332-17.109-27.402.829-3.279 2.756-4.221 5.523-6.07 2.514-1.366 5.081-2.572 7.688-3.75l2.049-.957C757.724 389 757.724 389 760 389v-2l-2.22.058-20.703.488-10.644.252-12.235.275-3.864.113-3.579.061-3.156.074C701 388 701 388 699.136 386.688 698 385 698 385 698.066 381.746c1.014-4.068 2.633-7.199 4.871-10.684l1.205-1.945 5.148-8.142 3.834-6.038 1.261-1.99c4.015-6.425 7.382-13.098 10.614-19.948-18.006 4.08-34.65 14.387-50.508 23.561l-15.318 8.776-5.682 3.256-3.54 2.028-3.183 1.826L644 374l-1.98 1.178c-2.782 1.132-5.288 1.204-8.285 1.349l-3.837.206-2.044.1-10.858.612-2.264.134c-22.83 1.375-45.257 4.108-67.732 8.421l-3.968.748-10.088 1.936-5.611 1.085c-6.982 1.396-13.71 3.175-20.493 5.341-3.29 1.031-6.601 1.826-9.966 2.578-19.608 4.703-38.576 11.92-56.875 20.313l-2.631 1.191c-28.19 12.809-52.457 29.249-75.808 49.464l-3.987 3.388c-3.9 3.31-7.316 6.778-10.609 10.691a120 120 0 0 1-4.461 4.844c-21.575 22.401-35.457 53.336-45.759 82.358l-2.42 6.446c-3.775 10.038-6.613 20.18-9.074 30.617l-.853 3.59A379 379 0 0 0 282 622l-.426 2.112c-2.895 14.792-3.042 29.54-2.965 44.568l-.01 10.137c-.072 16.608.791 32.774 3.401 49.184l.383 2.44c1.919 11.98 5.669 23.325 9.492 34.81l.771 2.32A480 480 0 0 0 304 798.001l1.309 3.251c5.046 12.512 10.436 24.617 17.046 36.384 4.131 7.355 7.995 14.821 11.77 22.365l1.687 3.348 1.571 3.152 1.387 2.781c3.095 6.841 3.566 12.502 3.542 19.906l.049 2.963c.007 10.876-2.853 19.815-8.049 29.287l-1.342 2.491a188 188 0 0 1-11.971 19.072l-2.227 3.172-14.586 20.078C293.818 980.297 283.482 994.333 274 1009l-1.221 1.879c-11.994 18.547-21.923 37.896-30.779 58.121l-.933 2.102c-5.521 12.544-9.191 25.778-13.067 38.898l-.763 2.545c-3.877 12.986-6.684 26.151-9.237 39.455l-.657 3.325c-7.989 40.983-8.078 83.075-9.343 124.675h-17c-.755-10.79-1.204-21.496-1.187-32.312l.002-2.251c.083-38.464 3.44-76.123 13.186-113.436l.824-3.202c8.695-33.49 19.586-68.35 36.176-98.798l1.119-2.095c6.407-11.991 13.477-23.507 20.881-34.905l1.296-2.003c5.855-9.016 12.073-17.744 18.399-26.435l11.062-15.587a351 351 0 0 1 8.868-12.038C314.287 920.201 324.797 903.585 323 882c-2.365-14.587-10.642-30.952-19-43-1.02-2.211-1.02-2.211-1.812-4.375-1.69-4.412-3.527-8.743-5.437-13.062L285 794l-1.331-3.189C261.752 738.18 251.925 685.817 260 629l.34-2.534c8.02-59.133 36.972-116.726 78.785-158.841l2.745-2.774c6.071-6.042 12.445-11.503 19.13-16.851l5.5-4.75c28.592-23.845 63.984-41.915 99.208-53.49l7.789-2.65c30.865-10.576 62.187-17.997 94.485-22.669l6.222-.969c7.812-1.2 15.428-1.64 23.321-1.796 32.755-.608 32.755-.608 60.969-15.771 4.02-3.055 8.374-5.407 12.82-7.78l2.442-1.329c14.25-7.668 28.597-13.682 44.244-17.796l3.691-1.105c4.218-1.14 7.979-1.576 12.309-.895"/><path fill="#82aafc" d="m988 898 2 1-1.062 1.563c-1.547 4.021-.661 7.44.781 11.422 2.056 4.572 4.687 7.656 8.316 11.063 2.224 2.211 4.136 4.563 6.09 7.016 3.606 4.492 7.413 8.696 11.375 12.875 5.172 5.494 9.857 11.16 14.246 17.311l4.415 6.08c6.15 8.431 12.16 16.916 17.84 25.672l2.133 3.246c16.961 25.942 32.095 53.655 42.453 82.926 1.154 3.226 2.468 6.371 3.801 9.527 2.543 6.057 4.84 12.179 7.051 18.363l1.175 3.277c3.373 9.483 6.48 19.027 9.388 28.661l1.043 3.367c3.608 12.047 6.299 24.348 8.957 36.633l.677 3.127c3.224 15.253 5.272 30.587 7.073 46.061l.324 2.772c1.945 16.789 2.926 33.068 2.926 50.041h-51l-1.687-11.281c-12.233-81.138-29.329-161.261-68.886-234.087l-2.81-5.298-1.308-2.478-1.135-2.187c-1.154-1.992-1.154-1.992-4.174-2.669-1.727-1.898-1.727-1.898-3.625-4.375l-2.145-2.75L1000 1012c-4.239-5.332-8.539-10.561-13.194-15.534-7.793-8.327-13.665-16.934-19.056-26.966l-1.287-2.373c-5.671-10.829-8.851-22.139-5.619-34.302C966.136 919.039 976.655 907.218 988 898"/><path fill="#040404" d="M627.301 598.328C639.932 606.152 649.277 615.13 655 629l1.191 2.816c5.57 15.196 4.081 31.505-2.191 46.184-6.744 13.984-16.082 21.838-30.191 27.949-11.833 3.604-24.539.844-35.457-4.164-14.977-8.15-23.572-21.705-28.352-37.66-3.664-17.464-.667-34.155 9-49.125 13.212-17.849 37.341-27.316 58.301-16.672M951 600c12.383 9.122 20.112 21.471 23.492 36.449 2.476 17.313.829 35.915-9.492 50.551-5.934 7.301-13.619 13.197-23.191 14.238-10.38.325-19.187-3.243-26.809-10.238-6.456-6.162-10.43-12.859-14-21l-1.039-2.297c-2.528-7.111-3.324-13.999-3.273-21.516l.015-2.652c.263-14.597 5.08-27.884 15.298-38.536 11.705-9.736 25.124-12.578 39-5z"/><path fill="#fab042" d="M852.086 707.465c3.014 2.554 4.335 4.868 4.664 8.723-1.063 13.04-13.305 25.062-22.617 33.371-14.517 11.13-29.855 13.071-47.555 11.051-17.747-3.824-37.384-16.07-49.141-29.547-2.031-4.327-2.967-7.416-1.437-12.062 11.486-15.688 31.583-23.973 50.18-27.531 24.013-2.946 45.98 2.003 65.906 15.996z"/><path fill="#030305" d="M995 986c2.328.016 2.328.016 5 1a51 51 0 0 1 4.75 5.75l1.309 1.772L1010 1000l2.262 3.156L1019 1013l1.252 1.856c11.779 17.533 22.098 35.883 30.825 55.117l2.524 5.425c7.773 16.502 14.365 33.396 20.398 50.602l.918 2.584c4.542 12.84 8.128 25.826 11.457 39.029a531 531 0 0 0 4.25 15.762c2.763 9.804 5.165 19.683 7.375 29.625l.527 2.364c2.766 12.709 4.507 25.564 6.223 38.448l.342 2.544.955 7.288.293 2.192.265 2.1.233 1.8c.246 3.413.163 6.842.163 10.263h-19l-.699-4.689c-13.112-87.614-31.411-172.777-85.91-267.752l-1.834-2.749-3.582-5.227-1.615-2.387-1.454-2.093c-1.193-2.77-.831-4.272.095-7.102z"/><path fill="#020204" d="M445 1041c9.59 4.262 14.187 14.783 18 24 12.073 31.448 11.518 67.087 6 100l-.438 2.67c-2.058 12.278-4.977 24.3-8.05 36.357-4.114 16.172-7.402 32.354-10.01 48.835l-2.751 16.638-1.016 6.094L446 1280h-15c-.198-8.078.537-15.811 1.625-23.812l.265-1.962c2.948-21.631 7.854-42.755 13.442-63.842a576 576 0 0 0 4.418-17.945l.565-2.408a313 313 0 0 0 1.685-8.03l.791-3.83c2.441-12.558 2.722-24.907 2.646-37.67l-.007-3.198c-.057-16.104-.905-31.537-4.43-47.302l-.534-2.544a193 193 0 0 0-6.466-23.456v-3z"/><path fill="#fbfbfb" d="M629.301 607.664c8.736 3.902 13.892 10.987 17.594 19.602 3.126 10.56 2.164 21.934-2.895 31.734-3.085 5.458-8.225 7.975-14 10-5.79 1.011-10.933.391-16.055-2.543-6.978-5.227-12.733-12.618-14.523-21.242-1.518-11.571-.87-21.066 5.328-31.027 7.207-7.007 14.566-9.405 24.551-6.523z"/><path fill="#fbb040" d="M832 727h4l1 3h5l1 4c-3.01.934-3.867 1.044-7 0v2l4 1c-1.057 6.701-7.845 11.213-12.875 15.25-10.07 7.134-21.707 8.927-33.785 7.238-5.694-1.283-5.694-1.283-8.34-2.488l-1-3c-1.857-.611-1.857-.611-4-1a89 89 0 0 1-4-2v-2l-3.375-.687c-3.625-1.312-3.625-1.312-5-3.75L767 742l-1-3c2.068-2.797 3.144-3.027 6.688-3.687L776 735l-11-1-1-3 1-2c10.447-.173 10.447-.173 15.063.5 4.675.594 9.233.587 13.938.5v3l22 1v-2l5.957-.586c2.343-.341 2.343-.341 5.043-2.414 2.688-.125 2.688-.125 5 0z"/><path fill="#f9f9f9" d="M950.027 606.648c6.488 2.914 10.855 7.51 13.785 13.977 3.26 9.265 3.401 18.211-.68 27.215-2.755 5.253-5.527 8.072-11.133 10.16-4.895.831-7.614-.096-11.687-2.687-7.038-5.153-10.269-10.858-12.312-19.312-.909-8.17-.888-16.085 4-23 5.254-5.524 10.115-8.882 18.027-6.352z"/><path fill="#090b0e" d="M910 413c8.426 4.573 15.782 9.7 23 16l2.453 2.117C951.031 444.836 963.482 459.779 975 477l2.211 3.297c9.504 14.486 18.858 29.393 25.727 45.328l1.018 2.311c1.804 4.415 2.373 7.306 1.045 12.064l-2-3c-1.033 2.87-.935 4.404-.437 7.5.458 3.661.188 4.465-1.562 7.5l-.48-2.57c-3.241-16.295-9.465-30.01-17.52-44.43l-1.256-2.249C963.45 470.278 939.792 439.617 905 424l3-2-3-3 3-1c1.219-2.504 1.219-2.504 2-5"/><path fill="#21150a" d="m789 693-1.598.607C761.838 702.222 761.838 702.222 743 720c-.532 3.855-.807 6.478 1.035 9.953C755.399 744.252 779.165 756.521 797 759c13.603.773 23.908-2.512 34.262-11.445 9.381-8.752 18.676-17.984 20.121-31.23-.701-4.254-3.477-6.631-6.793-9.168C833.458 700.205 822.668 696.06 810 693v-1c15.546-.476 30.381 6.485 42.438 15.938 2.736 2.664 4.171 4.529 4.5 8.375-1.553 13.02-13.42 24.872-22.805 33.246-14.517 11.13-29.855 13.071-47.555 11.051-17.747-3.824-37.384-16.07-49.141-29.547-2.031-4.327-2.967-7.416-1.437-12.062 10.604-14.483 28.273-22.221 45.25-26.437 3.344-.502 4.681-.493 7.75.438z"/><path fill="#030407" d="M995 986c2.328.016 2.328.016 5 1a51 51 0 0 1 4.75 5.75l1.309 1.772L1010 1000l2.262 3.156L1019 1013l1.317 1.969c5.221 7.847 10.249 15.788 14.933 23.968l1.197 2.062c.916 1.632 1.744 3.313 2.553 5.001l-1 2-2-1v-2l-4-2 1-3c-1.985.267-1.985.267-4 1l-1 3v-2h-2l1.063 3.25c.884 3.537.966 4.498-.062 7.75l-1.231-2.373c-9.849-18.918-19.959-37.598-32.199-55.111C992 993 992 993 992.125 990.25 993 988 993 988 995 986"/><path fill="#e6ac47" d="M831 700c7.258 1.012 14.072 5.721 19.25 10.813 2.134 3.886 2.272 6.131 1.598 10.457-2.155 6.943-6.628 12.776-11.848 17.73l-1-2-3-1v-2h6v-4l-5 1-1-4h-4v2l-6 2v1h-10v2h-27l3-3c-2.939-.98-5.481-1.366-8.551-1.719l-3.307-.387-3.455-.395-6.738-.781-3.021-.346c-2.992-.381-5.957-.858-8.928-1.373v-1l2.13.034 20.199.225 10.376.118c17.039.277 32.907-.356 49.294-5.377l2.558-.766c3.265-.999 3.265-.999 6.442-2.234l1-2h-2l-1-5-2.312.313L842 710c-1.625-2.5-1.625-2.5-3-5h-3c-1.562-1.375-1.562-1.375-3-3z"/><path fill="#f5f5f5" d="M592 666c3.475 2.07 5.744 4.116 7 8 .521 3.991.17 5.695-1.812 9.25-2.168 2.726-3.725 4.485-7.238 5.121-4.25.125-6.643-.215-10.512-2.184-2.691-2.616-2.909-5.012-3.062-8.687.202-3.746.532-5.345 2.5-8.625 4.027-3.553 7.931-3.531 13.125-2.875z"/><path fill="#1a1009" d="m789 693-1.598.607C761.838 702.222 761.838 702.222 743 720c-.545 3.951-.854 6.53 1.176 10.023 4.146 5.006 9.166 8.556 14.566 12.117 2.394 1.971 2.95 2.832 3.258 5.859-10.231-1.475-17.919-9.136-24-17-2.297-3.446-2.856-5.321-2.75-9.402 2.536-8.784 13.79-15.503 21.215-19.812C779.54 690.133 779.54 690.133 789 693"/><path fill="#8bb6f9" d="M979 499c2.251 2.095 3.802 4.131 5.305 6.809l1.261 2.246 1.309 2.383 1.35 2.447c3.379 6.211 6.325 12.476 8.775 19.115l.926 2.344c2.156 5.805 2.74 11.495 3.074 17.656-2.872-2.703-4.411-5.369-6-9v-3h-2c-1.508-2.117-1.508-2.117-3.125-4.875l-1.633-2.742C987 530 987 530 987 528h-2a150 150 0 0 1-4-6l-1.75-2.25C978 518 978 518 978 516l-2-1h3v2c2.167-.833 2.167-.833 3-3l2 1-1-6-1.375 1.5C980 512 980 512 978 512l.563-1.625c.55-2.986-.056-5.398-.562-8.375z"/><path fill="#f5f5f5" d="M920.84 659.418c2.16.582 2.16.582 5.223 3.145 2.237 3.969 2.59 5.955 1.938 10.438-1.651 3.539-2.716 4.811-6 7-3.095.399-5.04.645-8 0-3.078-2.565-4.544-4.115-5.477-7.969-.271-3.704.323-6.442 2.414-9.531 3.563-2.908 5.406-3.405 9.902-3.082z"/><path fill="#0f0401" d="M847 720c-21.487 11.84-43.933 12.298-67.625 9.063l-4.254-.553c-5.723-.747-11.431-1.534-17.121-2.51v-1l2.13.034 20.199.225 10.376.118c16.317.265 31.549-.26 47.319-4.81L840 720l2.069-.636C844 719 844 719 847 720"/><path fill="#0b0d0e" d="M1014 866h2v7l1.875-.625L1020 872l2 2-1.723 1.688c-3.814 3.77-7.546 7.544-11.027 11.625-2.518 2.941-5.104 5.399-8.25 7.688l-1-5-3 2 .563 2.375C998 897 998 897 997 899l-7-1c3.439-4.753 7.068-9.285 10.875-13.75 4.33-5.084 7.985-10.379 11.531-16.047z"/><path fill="#24180f" d="m838 741 3 1c-7.337 10.027-18.925 16.398-31 19-18.144 1.392-32.25-2.148-48-11l-2-2 2-4 2.641 1.574c7.558 4.449 15.07 8.468 23.359 11.426l2.184.781c9.321 2.678 21.667 1.693 30.438-2.344 6.482-3.917 12.103-9.039 17.379-14.437z"/><path fill="#a0b8ec" d="M560 1002c2.174 2.174 2.475 3.109 3.219 6.008l.634 2.466.647 2.651.671 2.729c1.907 8.016 3.108 15.929 3.829 24.146l.336 3.703c1.693 22.232.777 42.841-5.336 64.297-1.463-5.202-1.728-10.816 0-16h2l-.035-2.371-.027-3.066-.035-3.059C566 1081 566 1081 567 1080c.113-2.106.155-4.215.168-6.324l.013-1.968.007-6.396-.003-2.199c-.047-16.779-.381-33.187-5.508-49.308-1.297-4.077-1.931-7.524-1.677-11.805"/><path fill="#23120c" d="m789 693-1.598.607c-19.442 7.007-19.442 7.007-36.629 18.131C748 714 748 714 745 714l-1 2h-2v2l-4-1c10.015-11.18 34.484-29.006 51-24"/><path fill="#010313" d="m457 1098 1 4h2c1.002 7.602 1.023 14.973.688 22.625l-.107 3.273c-.187 4.585-.4 8.955-1.596 13.398-1.34 5.039-1.377 9.928-1.543 15.117-.467 3.793-1.544 6.296-3.441 9.586-1.558-4.022-.431-7.677.395-11.742 2.103-11.419 2.167-22.804 2.293-34.383l.104-6.402z"/><path fill="#8caae2" d="M227 1110c2.265 3.398 2.089 4.711 1.484 8.621-1.162 5.709-2.77 11.312-4.672 16.816-1.001 4.388-.823 8.412-.59 12.891-.223 2.672-.223 2.672-1.656 4.363L220 1154c-1.93 4.61-2.49 9.072-3 14l-2-2c.434-5.805 1.596-11.487 2.75-17.187l.521-2.589c2.488-12.161 5.225-24.312 8.729-36.224"/><path fill="#9cb8ec" d="M584 463c13.158-.462 25.265-.086 38.066 3.125 3.367.83 6.452 1.051 9.934.875v2l2.629.371c3.286.613 6.175 1.543 9.309 2.691C647.644 473.353 650.03 474 654 474c3 0 3 0 5.25 1.938L661 478l3 1v2l-14.121-4.359C628.128 469.47 606.761 465.929 584 464z"/><path fill="#91aee9" d="M725 333c-1.48 5.001-3.632 9.329-6.125 13.875l-1.129 2.086L715 354h-1c-.566-5.656 1.286-9.226 4-14h-2l-2 5-1-2c-1.776-1.075-1.776-1.075-3-1l-6-1c3.113-2.546 6.235-4.133 9.938-5.687l3.09-1.324c2.881-.958 4.967-1.193 7.973-.988z"/><path fill="#86aae8" d="m985 993 3 1 5-1 7.375 11.125 2.117 3.172 2.031 3.086 1.873 2.825c1.649 2.871 2.668 5.625 3.604 8.792h-2l-3.562-4.312-2.152-2.754L1000 1012c-5.972-7.556-5.972-7.556-12.562-14.562L985 995z"/><path fill="#0c1320" d="M995 986c2.324.008 2.324.008 5 1a54 54 0 0 1 4.813 5.875l1.292 1.755 2.615 3.598 3.706 5.01c5.574 7.475 5.574 7.475 5.574 9.762l-5-1v-2l-2-2-.937-1.937c-.964-2.13-.964-2.13-2.687-3.687L1006 1001v-2l-1.937-.812C1002 997 1002 997 1001 994c-2.867.573-3.861.861-6 3-1.562-1.687-1.562-1.687-3-4 .241-3.37.588-4.588 3-7"/><path fill="#94b3eb" d="M990 518c3.723 3.723 5.1 9.158 7 14l.957 2.406c2.128 5.786 2.71 11.459 3.043 17.594-2.872-2.703-4.411-5.369-6-9v-3h-2c-1.508-2.117-1.508-2.117-3.125-4.875l-1.633-2.742C987 530 987 530 987 528l3 1v2h2l-.437-1.828-.562-2.422-.562-2.391C990 522 990 522 990 518"/><path fill="#432606" d="M758 725c19.359-.164 38.656.297 58 1v1l-25 1 21 2v1c-11.057.258-21.675-.442-32.625-1.937l-4.254-.553c-5.723-.747-11.431-1.534-17.121-2.51z"/><path fill="#18243c" d="M210 1197h1l-.075 2.007-1.988 54.68-.275 7.725L208 1280h-1v-64h2l-.035-2.379c-.049-5.658.022-11.05 1.035-16.621"/><path fill="#f2f1e7" d="m781 688 1.688.563c2.716.514 4.626-.012 7.313-.562l3 1c6.081.225 12-.332 18.047-.977 3.1-.025 4.358.393 6.953 1.977l3.75 1.625L825 693c-3.233 1.051-5.227.875-8.5.063-14.184-2.765-28.552-1.335-42.5 1.938v-3h4l-1-2 4-1z"/><path fill="#9ab6eb" d="M394 696c2.326 3.839 2.876 8.034 3.688 12.375 3.382 16.878 9.22 32.973 15.555 48.946l1.132 2.909 1.023 2.575C416 765 416 765 415 768h-2l-.516-2.02a171 171 0 0 0-5.715-17.766C406 746 406 746 406 744l-2-1 1-4h-2l-1-9h-2l-.297-1.625c-.79-4.141-1.65-8.243-2.727-12.32l-.548-2.09-1.107-4.078c-1.254-4.749-1.485-8.974-1.321-13.887"/><path fill="#8cb1f4" d="M768 402c-.75 5.75-.75 5.75-3 8l2 3c-.375 2.688-.375 2.688-1 5l2 1c-3 0-3 0-5.699-2.336l-2.988-3.039-1.549-1.539C754 408.267 754 408.267 754 406l5.313-2.562 2.988-1.441C765 401 765 401 768 402"/><path fill="#0d0d0d" d="M633 604c6.25 1.176 10.354 5.866 13.938 10.875L649 618l-1.375 1.313C645.8 621.108 645.8 621.108 644 624l-.848-1.539c-3.052-5.24-6.427-8.723-11.152-12.461l-2-2 3-2z"/><path fill="#223049" d="M277 648h1l.018 1.964.245 20.643.084 7.656c.131 14.169.565 28.063 2.709 42.089.775 5.205 1.014 9.479-.056 14.648h-1c-2.487-11.163-3.416-21.677-3.293-33.094l.013-4.707.074-12.211.06-12.531z"/><path fill="#8ca8dd" d="M470 1152h1c.88 4.371 1.033 8.246.688 12.688l-.238 3.387C471 1171 471 1171 469 1174c-.384 2.639-.384 2.639-.5 5.5-.207 3.842-.311 5.217-2.5 8.5a157 157 0 0 0-1 7c-.632 3.522-1.514 6.892-2.562 10.313l-.816 2.676L461 1210c-2-3-2-3-1.648-5.805l.843-3.425.916-3.842.502-2.036 2.492-10.501.498-2.137c2.297-9.994 3.879-20.117 5.397-30.254"/><path fill="#98b5e9" d="m493 484-2.309 1.32c-10.17 5.866-19.232 11.911-27.996 19.718C458.206 509 458.206 509 456 509l-1 3c-1.629 1.387-1.629 1.387-3.562 2.688l-1.941 1.324L448 517c.313-1.875.313-1.875 1-4l3-2 1.5-2.625L455 506h3l.063-1.75c1.533-3.679 4.421-4.523 7.938-6.25h2l1-3a92 92 0 0 1 9.375-5.125c1.816-.777 1.816-.777 2.625-2.875 1.961-1.105 1.961-1.105 4.375-2.187l2.398-1.105C490 483 490 483 493 484"/><path fill="#a8c0ee" d="M397 614h1c-.443 5.405-1.115 10.646-2.124 15.976-2.359 13.004-2.149 25.852-1.938 39.024l.122 10.224.09 6.3.03 2.847.041 2.498C394 693 394 693 392 696c-.758-4.021-1.111-7.777-1.053-11.866l.041-3.427.063-3.656.057-3.787.17-9.924.114-8.109.158-9.68.045-3.674.07-3.399.05-2.993C392 633 392 633 394 630a162 162 0 0 0 1.625-8.187l.406-2.271z"/><path fill="#90adde" d="M456 1096h1l.11 19.849.041 6.738.044 9.741.031 2.994c.001 7.063-.879 13.748-2.227 20.678l-2-1c-.125-7.625-.125-7.625 1-11 .143-2.927.234-5.833.281-8.762l.056-2.62.163-8.306.163-8.252.097-5.132c.107-5.045.533-9.931 1.24-14.928z"/><path fill="#101010" d="M958 608c7.218 2.971 10.399 11.405 13.434 18.152C972 628 972 628 971 630c-1.937.75-1.937.75-4 1-2.294-2.294-2.494-3.465-3.25-6.562-1.568-5.581-4.307-9.825-7.75-14.437z"/><path fill="#9eb8e9" d="M479 866c3.53 1.261 4.875 3.104 6.805 6.234 1.389 2.051 2.967 3.809 4.633 5.641 2.86 3.2 5.128 6.456 7.324 10.133 1.705 2.742 3.653 5.265 5.613 7.828 2.985 3.976 5.794 8.077 8.625 12.164l-2 2v-2h-2a139 139 0 0 1-4.437-6.875c-3.068-5.18-3.068-5.18-7.562-9.125-.687-2.625-.687-2.625-1-5h-2c-1.508-1.898-1.508-1.898-3.125-4.375l-1.633-2.461C487 878 487 878 487 876l-1.75-.625c-3.095-1.891-4.442-4.275-6.25-7.375z"/><path fill="#7c97c8" d="M712 387h48v2l-5.312 2.563-2.988 1.441C749 394 749 394 746 393v-2l-2-1v-1l-32-1z"/><path fill="#060c17" d="M445 1041c3.33 1.426 5.317 3.15 7.688 5.875l1.824 2.055c1.496 2.081 2.067 3.567 2.488 6.07l-4-1c-1.312 3.937-.243 6.125 1 10h-3l-3-9.812-.867-2.814-.82-2.705-.762-2.491C445 1044 445 1044 445 1041"/><path fill="#1c0c04" d="M810 692c13.519-.414 29.365 4.918 39.426 14.25L851 708c-2 1-2 1-4.34.238-2.561-1.192-4.847-2.527-7.223-4.051-9.256-5.622-18.894-8.888-29.437-11.187z"/><path fill="#030a1e" d="M700 376h1l1 9 4.012-.035c16.018-.093 31.985.396 47.988 1.035v1l-22.479.592-7.65.207-10.984.275-3.466.113-3.215.061-2.833.074C701 388 701 388 699.159 386.707 698 385 698 385 698.25 381.438 699 378 699 378 700 376"/><path fill="#8cace7" d="M210 1206h1c.828 5.047 1.148 9.941 1.133 15.059l.003 2.267-.005 4.717.006 7.155-.004 4.611.006 2.128c-.022 4.764-.474 9.345-1.139 14.063h-1c-.929-16.795-1.045-33.21 0-50"/><path fill="#98b5ed" d="M520 922c3.137 3.778 5.869 7.736 8.5 11.875l1.145 1.777c3.764 5.885 7.377 11.587 9.355 18.348h2l2 6c-2.915-1.074-4.778-1.778-7-4a157 157 0 0 1-1-7 89 89 0 0 0-1-4h-2l-2.5-4.375-1.406-2.461C527 936 527 936 527 934l-5-1z"/><path fill="#0a1028" d="m948 444 6 5-3 1 1 7h2v2l3 1 3 5 2 3h-3l-5.812-6.562-1.541-1.846-3.075-3.702L941 447h3l2 2 3-1z"/><path fill="#060e23" d="M338 870c4.458 4.458 4.279 10.212 4.322 16.166l-.01 3.021.049 2.963c.006 9.233-1.781 17.78-6.361 25.85h-1v-6l3-1-.07-1.758-.055-2.367-.07-2.32C338 902 338 902 339 899.219c1.237-3.982 1.222-7.46 1.125-11.594l-.027-2.23L340 880l-2-1z"/><path fill="#070e23" d="M641 372h5c-4.512 3.459-7.038 4.176-12.773 4.535l-2.058.13-4.333.265-6.504.408c-8.116.507-16.197.794-24.332.662v-1l2.371-.184 3.066-.254 3.059-.246c2.44-.049 2.44-.049 3.504-1.316 6.754-1.386 13.572-1.111 20.438-1.062l3.662.014 8.9.049z"/><path fill="#202b47" d="M457 1107h1l.11 18.677.041 6.343.044 9.16.031 2.826c.001 7.636-.527 15.178-4.227 21.994-1.598-4.079-.425-7.891.395-12.023 1.8-9.878 2.155-19.584 2.293-29.602l.104-5.102z"/><path fill="#503918" d="m838 741 3 1c-7.002 9.57-18.103 16.301-29.762 18.527-2.072.237-4.155.369-6.238.473v-2l2.125-.297c13.016-2.051 21.728-8.305 30.875-17.703"/><path fill="#05080c" d="M987 503c3.653 1.25 4.781 1.671 7 5 .338 4.56-.002 7.878-2 12-3.329-3.646-5.022-8.211-6-13 .422-2.281.422-2.281 1-4"/><path fill="#020c12" d="m1137 1242 2 1 1.688 7.25.405 2.18c1.123 6.671.83 12.875-.093 19.57l-.301 2.582L1140 1280h-1z"/><path fill="#91ade3" d="M465 1072h4c3.147 12.772 4.982 23.867 3 37h-1l-.078-2.902c-.402-10.43-2.259-20.024-4.922-30.098z"/><path fill="#29170d" d="m789 693-1.741.687-7.884 3.126-2.738 1.08c-3.799 1.511-7.501 3.039-11.16 4.869C763 704 763 704 761 704l-1-4c22.775-8.887 22.775-8.887 29-7"/><path fill="#1b0d01" d="M847 720c-15.391 8.131-15.391 8.131-22.437 7.875-2.325-.794-4.383-1.755-6.562-2.875l1.956-.443 8.794-1.994 3.078-.697 2.969-.674 2.729-.619a77 77 0 0 0 4.611-1.209C844 719 844 719 847 720"/><path fill="#0a1328" d="m818.195 389.574 2.406.52 2.524.593 2.583.575c5.159 1.171 10.258 2.464 15.285 4.124 2.312.706 4.632 1.17 7.008 1.613v3l-2.727-.699c-11.711-2.977-23.483-5.66-35.273-8.301 3.064-1.826 4.721-2.202 8.195-1.426z"/><path fill="#91b0ed" d="M979 499c3.248 2.777 5.122 6.391 7.188 10.063l1.115 1.932C990 515.743 990 515.743 990 518h-4v-3h-2l-1-6-1.375 1.5C980 512 980 512 978 512l.563-1.625c.55-2.986-.056-5.398-.562-8.375z"/><path fill="#819cd5" d="M1090 1176c2.125 3.188 2.502 5.265 3 9h2c1.039 8.312 1.518 16.641 2 25-1.614-2.956-2.521-5.71-3.254-8.992l-.65-2.887-.658-2.996-.67-2.973c-3.039-13.609-3.039-13.609-1.768-16.152"/><path fill="#070202" d="m998 992 1 2h2c3.649 3.441 6.533 7.159 8 12l-2 2h-2l-4-6-2-1v-3h-3v-5z"/><path fill="#9db8ea" d="M442 813c2.918 2.627 4.945 5.67 7 9v2l3 1c1.141 1.75 1.141 1.75 2.25 4 2.698 5.14 6.077 9.523 9.75 14l-3 1c-3-4.75-3-4.75-3-7h-2c-1.508-1.898-1.508-1.898-3.125-4.375l-1.633-2.461C450 828 450 828 450 826h-2l-4-7-2 2z"/><path fill="#8fb0ee" d="M488 402v3c-2.709 1.354-5.009 1.065-8 1v2l-2-1 1-2h-3v2c-5.075 1.263-9.728 2.27-15 2 3.755-2.504 7.56-3.743 11.813-5.187l2.408-.865c4.651-1.581 7.889-2.309 12.779-.947z"/><path fill="#83a0d1" d="m646 372 3 1c-3.75 3-3.75 3-6 3v2h-22v1l-4.25.125-2.391.07c-2.582-.214-4.097-.989-6.359-2.195l2.842-.136 10.5-.554 4.533-.229 6.539-.35 3.967-.206c3.772-.546 6.26-1.801 9.619-3.524z"/><path fill="#030818" d="M214 1166c1.928 5.707.072 11.829-.812 17.625l-.541 3.797-.541 3.617-.495 3.319C211 1197 211 1197 209 1199c-.096-6.372.234-12.544.938-18.875l.264-2.547c.365-3.382.718-6.336 1.799-9.578h2v-2z"/><path fill="#91afe7" d="M280 718h2l.148 1.934.227 2.504.211 2.496L283 727l2 1c1.069 3.872 1.28 7.817 1.563 11.813l.254 3.52L287 746l-2 1-2.5-12.25-.723-3.512-.684-3.379-.635-3.11C280 722 280 722 280 718"/><path fill="#9cb5eb" d="M768 535c3.379.422 5.963 1.424 8.938 3 3.342 1.75 6.272 2.621 10.063 3v-3h5v2l3 1v2c-7.661 2.452-13.042.474-20.23-2.516-2.818-1.511-4.648-3.114-6.77-5.484z"/><path fill="#0d162d" d="M453 1065c2.687 2.687 2.944 5.519 3.625 9.125l.397 2.058c1.278 6.93 1.366 12.875-.022 19.817h-1l-2.062-12.687-.604-3.631-.557-3.506-.524-3.221c-.25-2.917.015-5.135.746-7.954z"/><path fill="#8aaded" d="M473 1104h1l.586 6.152L475 1112l2 1 .75 6.938.297 3.84C478 1127 478 1127 476 1129l-.586-6.152L475 1121l-2-1v8h-1c-.185-16.893-.185-16.893 1-24"/><path fill="#eefbfc" d="m898.085 481.815 6.32-.039 4.014-.006 3.68-.012C915 482 915 482 917 484c-3.631.833-6.989 1.129-10.711 1.133l-3.273.004-3.391-.012-3.367.012c-5.525-.007-10.818-.149-16.258-1.137v-1c5.969-1.416 11.989-1.186 18.085-1.185"/><path fill="#e1a951" d="M793.563 690.938 797 691l-1 4-3.035.551-4.027.762-1.99.357c-3.451.663-6.542 1.497-9.756 2.936C774 701 774 701 771 701v-2l1.636-.627 7.301-2.811 2.576-.986 2.451-.947 2.269-.873c4.158-1.781 4.158-1.781 6.328-1.819z"/><path fill="#9bb7ec" d="M952 496c4.92.635 9.749 2.453 14 5l1 3 2 1v2h4v2h2l1 6c-3.409-2.061-5.651-3.535-8.062-6.75-3.022-3.938-7.35-6.164-11.569-8.622L952 497z"/><path fill="#97b3eb" d="M890 481v1l-1.737.364c-11.268 2.402-21.19 4.932-31.263 10.636l-3 1c1.278-3.977 3.681-5.251 7.148-7.168 1.94-.872 3.785-1.345 5.852-1.832l4.25-1.5c6.214-2.092 12.182-2.664 18.75-2.5"/><path fill="#88a6de" d="M213 1177c2.115 3.172 2.232 3.68 2.012 7.246l-.141 2.522-.183 2.669-.162 2.712c-.407 6.624-.894 13.243-1.526 19.851h-1c-.901-11.992-1.175-23.135 1-35"/><path fill="#91aae2" d="m339 908 2 2c-.356 3.38-1.357 6.043-3 9h-2v6h-2v4h-2l-2 5-3-2 1.609-2.711c4.057-6.916 7.729-13.691 10.391-21.289"/><path fill="#deab58" d="M808 754h10l1 3c-4.593 1.743-8.937 2.472-13.812 2.75l-2.125.131c-5.416.256-9.901-.314-15.062-1.881v-1h23z"/><path fill="#0f1730" d="M557 383v1l-14.844 2.991-5.052 1.019-7.253 1.459-2.289.464C522.228 391 522.228 391 520 391v-2c4.329-1.665 8.267-2.335 12.852-2.656 2.184-.236 2.184-.236 4.09-1.336 2.514-1.231 4.586-1.42 7.371-1.633l2.914-.223c3.271-.18 6.499-.225 9.773-.152"/><path fill="#f6b050" d="m836 725 9 2c.813 2.063.813 2.063 1 5-1.41 2.547-3.14 4.766-5 7l-5-3v-2h6v-4l-5 1z"/><path fill="#ddab5b" d="M831 700c7.268 1.014 14.113 5.724 19.25 10.875 2.406 4.296 1.801 7.443.75 12.125h-2l1-8h-2l-1-5-2.312.313L842 710c-1.625-2.5-1.625-2.5-3-5h-3c-1.562-1.375-1.562-1.375-3-3z"/><path fill="#8dace0" d="m705 342-1.937.813c-2.394 1.074-2.394 1.074-3.062 4.188-2.437 1.25-2.437 1.25-5 2l-2-1v2l-1.937.375L689 351l-1 2-5-1c3.764-3.228 7.705-5.612 12.125-7.812l1.879-.982c4.633-2.326 4.633-2.326 7.996-1.205z"/><path fill="#0a1324" d="m434 1248 2 1c.185 10.558.185 10.558-1 15h-2v16h-2c-.218-7.351.423-14.358 1.5-21.625l.434-3.043z"/><path fill="#8bace2" d="m441 1204 2 1-5 27c-2.108-3.162-2.338-4.507-2.625-8.187l-.227-2.73L435 1219h3l.402-2.773.535-3.602.527-3.586C440 1206 440 1206 441 1204"/><path fill="#99b6ec" d="m826 512 4 1c-5.75 5-5.75 5-8 5l-.687 1.703c-1.682 2.943-3.784 4.797-6.312 7.047l-2.687 2.422C810 531 810 531 808 531l1-3h2l.625-2.75c1.737-4.105 3.557-5.047 7.375-7.25 4.161-2.384 4.161-2.384 7-6"/><path fill="#96b1e9" d="M917 483h11v2l3.688-.25c4.363-.023 6.02 1.391 9.313 4.25l3 .375c4.348.906 5.44 3.086 8 6.625-3.682-1.066-6.859-2.459-10.187-4.312-7.732-4.003-16.4-5.658-24.812-7.687v-1z"/><path fill="#8bb2f9" d="M717 335v2h2l-1 3h-2l-2 5-1-2c-1.776-1.075-1.776-1.075-3-1l-6-1c3.595-3.02 8.186-6 13-6"/><path fill="#091026" d="M462 1192c1.561 3.123.192 5.963-.652 9.195l-.542 2.144-1.743 6.786-1.17 4.598L455 1226l-2-1v-7l2-1c.618-2.711.618-2.711 1-5.875.523-3.876.803-5.829 3-9.125a67 67 0 0 0 1.063-4.625c.837-4.274.837-4.274 1.938-5.375z"/><path fill="#0f1831" d="M441 1211h1l.125 6.25.07 3.516c-.194 3.207-.741 4.483-2.195 7.234-.561 3.327-.948 6.654-1.34 10.004-.676 3.07-1.211 4.121-3.66 5.996.756-7.093 2.134-14.015 3.563-21l.709-3.504z"/><path fill="#88a3e4" d="m1075 1130 3 1c1.063 2.625 1.063 2.625 2 6 1.153 4.061 2.348 8.041 3.813 12 1.14 3.328 1.4 5.584.188 9-1.58-2.974-2.705-5.926-3.727-9.133l-.937-2.941-.961-3.051-.984-3.074c-2.391-7.544-2.391-7.544-2.391-9.801z"/><path fill="#091228" d="M305 543h2c-2.095 6.749-4.747 13.126-7.57 19.602-1.716 4.08-3.118 8.173-4.43 12.398h-1c.392-5.955 1.371-10.628 4-16h2l.25-2.937c.65-4.734 2.673-8.802 4.75-13.062z"/><path fill="#97b1ed" d="M526 1184h2c-2.995 7.986-7.272 15.471-11.25 23l-1.391 2.637L512 1216c-.771-2.257-1.153-3.544-.383-5.84l1.043-1.883 1.149-2.117 1.254-2.222 1.248-2.279 2.506-4.533 3.121-5.687z"/><path fill="#030921" d="M1109 1108c2 3 2 3 2 5h2l.313 2.938c.533 3.778 1.673 7.198 2.922 10.793 1.692 5.017 3.1 9.922 2.766 15.27-1.888-3.448-3.012-6.982-4.164-10.734l-.597-1.933-1.864-6.082-1.273-4.137L1108 1109z"/><path fill="#170701" d="M847 708c3.108-.345 4.625-.233 7.313 1.438 2.473 3.755 2.024 7.19 1.688 11.563l-4 2-.078-1.758c-.408-5.613-1.416-8.831-4.922-13.242z"/><path fill="#f6f3f2" d="m821 691 2.313 1.688L825 694l-3.437-.434L808 691.938l-2.348-.275L800 691l1-2c6.856-1.714 14.192-2.48 20 2"/><path fill="#8ba2d6" d="M750 424c2.932 2.853 5.643 5.651 8 9-5.781-.631-11.344-1.652-17-3 1.813-1.562 1.813-1.562 4-3l3 1v-2h2z"/><path fill="#f3f7f8" d="M996 1007a181 181 0 0 1 8.813 9.188l1.832 2.043C1008 1020 1008 1020 1008 1022l4 1-1 2-4-1v-2c-3.049-1.011-3.049-1.011-6 0l-.25-2c-.852-3.406-2.256-6.151-3.91-9.23-.84-1.77-.84-1.77-.84-3.77"/><path fill="#84a3e3" d="M1008 995c3.653 1.25 4.781 1.671 7 5l1.125 4.688.508 2.449.367 1.863h2l2 7c-3.149-3.041-5.628-6.4-8.187-9.937l-1.404-1.881c-2.473-3.42-3.408-4.845-3.408-9.182z"/><path fill="#eaeae7" d="M792 761h18v3c-3.576 1.238-6.337.749-10 0v2h-4v-2l-4-1z"/><path fill="#96b3ea" d="M414 560h3c-.673 4.717-2.49 8.7-4.437 13l-1.871 4.188-.886 1.98a170 170 0 0 0-2.805 6.832h-1l1-10h2l1-6h2z"/><path fill="#081124" d="M432 418h6c-3.64 3.009-7.668 4.982-11.875 7.063l-2.105 1.064c-3.934 1.96-7.798 3.596-12.02 4.873 1.06-3.055 1.932-3.959 4.75-5.668l3.25-1.52 3.25-1.543L426 421l2-1 3 1z"/><path fill="#101e37" d="M1096 1210c1.899 2.848 2.414 4.219 3.035 7.465l.513 2.659.515 2.813.534 2.854c1.224 6.729 2.12 13.367 2.403 20.208h-2l-.26-1.82-1.178-8.117-.408-2.865-.4-2.725-.365-2.523c-.201-1.946-.201-1.946-1.389-2.949a197 197 0 0 1-.562-7.562l-.131-2.154z"/><path fill="#eaf7fe" d="m534 1172 2 4-2 2 .188 2.375L534 1183l-5 4-2 6-3 1c.572-5.192 3.098-9.31 5.563-13.812l1.287-2.389z"/><path fill="#060914" d="m1063 1007 1 2h5l1.375 7.438c.763 3.13 2.11 5.73 3.625 8.563l-2 1-5.062-8.375-1.471-2.406-1.377-2.305-1.285-2.126L1062 1009z"/><path fill="#0e152b" d="m348 476 3 1c-1.016 3.047-2.064 4.168-4.324 6.328-3.732 3.723-7.169 7.738-10.676 11.672l-1-3a116 116 0 0 1 4-5v-2l1.875-.25c2.265-.543 2.265-.543 3.188-2.562L345 480a124 124 0 0 1 3-4"/><path fill="#0a0f27" d="m745 396-2 4h-2c.55 4.581 1.482 8.649 3 13v2c-3-1-3-1-4.687-3.562-1.666-4.363-1.912-6.791-1.312-11.437 3.8-4 3.8-4 7-4z"/><path fill="#0e172e" d="M781 384c10.218-.425 19.081.666 29 3v3l-3.043-.586c-8.631-1.648-17.26-3.148-25.957-4.414z"/><path fill="#83a4dd" d="m988 898 2 1-1.062 1.563c-1.975 5.135.251 10.485 2.063 15.438l-3 3c-2.294-3.441-2.718-5.873-3.375-9.937l-.648-3.715c.022-3.349.022-3.349 1.983-5.79z"/><path fill="#8aaae1" d="M291 584h1l1 13-4 2c-.906 1.94-.906 1.94-1.25 4.125L287 607h-2c1.353-7.884 3.544-15.394 6-23"/><path fill="#e0ebea" d="m294 523 3 1-8 16-3-2 .938-2.125c1.096-2.964 1.627-5.752 2.063-8.875h2l1-2z"/><path fill="#e3ecee" d="m1046 941 2 3h2v2h2l1 6-2 2-5-5.437-1.445-1.564C1041 943.113 1041 943.113 1041 942z"/><path fill="#9cb5ee" d="M397 614h1c-.7 8.092-1.846 16.096-3.062 24.125l-.564 3.766L393 651h-1l-.125-8.812-.051-2.525-.02-2.432-.032-2.238C392 633 392 633 394 630a162 162 0 0 0 1.625-8.187l.406-2.271z"/><path fill="#0f172e" d="M452 1168h1l.125 7.313.051 2.092c.036 3.767-.032 5.38-2.176 8.596l-2 2-2 6c-1.422-2.845-.573-4.391.215-7.445l.83-3.262.893-3.418.881-3.441z"/><path fill="#99b6eb" d="m553 1132 1 2c-.785 2.18-.785 2.18-2.062 4.875l-1.402 2.973L543 1157l-3 6c-1.255-3.766-.371-5.372 1-9h2l1-6h2l.309-1.609c.894-3.093 2.29-5.775 3.754-8.641l1.66-3.266z"/><path fill="#060807" d="M951 450c3.588.299 4.782.77 7.313 3.438C960 456 960 456 960 458h-2v2l-4-1v-2h-2l-2-5z"/><path fill="#080a0e" d="m1003 882 2 2-1.437 1.313c-1.799 1.711-1.799 1.711-2.562 4.688-2.062 1.188-2.062 1.188-4 2l.563 2.375C998 897 998 897 997 899l-7-1c4.061-5.594 8.379-10.86 13-16"/><path fill="#e3ab54" d="M758 726c10.391.626 20.674 1.712 31 3v1c-4.838.738-8.208.976-13 0l-10.381-.605c-5.414-.292-5.414-.292-7.619-1.395z"/><path fill="#111" d="M907 674c3.265 1.804 4.889 2.834 7 6l-1.5 1.313c-1.832 1.685-1.832 1.685-1.5 4.688-3.336-2.991-5.151-5.932-7-10z"/><path fill="#92acd7" d="M996 532c2.565 4.947 4.22 9.209 4.625 14.813l.227 2.957.148 2.23c-3.668-3.351-5.714-7.212-7-12 .241-2.987.963-5.149 2-8"/><path fill="#8face6" d="m702 368 2 3-1.094 1.793-1.406 2.395-1.406 2.355c-1.229 2.761-1.446 4.468-1.094 7.457l2 3-5-1c-.212-5.192.409-9.127 2-14h2z"/><path fill="#080e1e" d="M986 496c2.252 2.688 3.882 4.646 5 8h-4v7c-2.523-3.124-4.273-6.381-6-10l5-2z"/><path fill="#8daae4" d="M528 391c-6.176 3.273-12.955 5.556-20 5l-1-2 7.125-2.062 2.016-.604c4.318-1.206 7.507-1.412 11.859-.334"/><path fill="#e6eeef" d="M1139 1135c2.698 1.653 3.839 2.492 4.813 5.563C1144 1143 1144 1143 1143 1145c.32 2.454.32 2.454.938 5.125l.59 2.758.473 2.117-3-1a86 86 0 0 1-2.25-8.437l-.562-2.393c-1.326-5.893-1.326-5.893-.187-8.17z"/><path fill="#95b5ec" d="M566 1081h1c1.698 9.911-.017 17.628-3 27-1.463-5.202-1.728-10.816 0-16h2z"/><path fill="#040c24" d="m989 912 4 1v2h2v2h2v4h2l1 2 3 1 1 6-3.434-3.445-3.352-3.234c-3.67-3.506-6.235-6.546-8.215-11.32z"/><path fill="#1a1d21" d="M1006 905c5.29 4.408 10.188 9.076 15 14l-4 2a41.3 41.3 0 0 1-5-6v-2l-3 1-.375-1.875c-.497-2.316-.497-2.316-2.625-4.125z"/><path fill="#e2ecec" d="m1004 892 2 1 2 7-5-1v2l4 2-2 2c-2.562-2.187-2.562-2.187-5-5 0-3.138.522-4.445 2.563-6.812z"/><path fill="#99b7eb" d="m499 1237 3 1-3.312 7.625-.936 2.16c-1.802 4.136-3.693 8.198-5.752 12.215-1.32-3.959-.298-5.424 1.25-9.25l1.402-3.496z"/><path fill="#0a122e" d="M1006 996c3.133 2.978 5.708 6.132 8.25 9.625l2.141 2.914C1018 1011 1018 1011 1018 1013l-5-1v-2l-2-2-.937-1.937c-.938-2.128-.938-2.128-2.687-3.5-1.375-1.562-1.375-1.562-1.562-4.25z"/><path fill="#241209" d="M780 756c5.709.668 11.345 1.538 17 2.563l2.348.42L805 760v1c-16.687.396-16.687.396-24-2z"/><path fill="#8cace6" d="m735 436 4.875 2.875 2.742 1.617C745 442 745 442 747 444l-6 4-4-2 3-1-1-3c-2.504-1.219-2.504-1.219-5-2z"/><path fill="#08121f" d="m716 351 2 4h-2l.375 2.188C716 360 716 360 713.188 362.563l-1.652 1.234c-1.9 1.489-3.201 3.202-4.535 5.203 0-4.881 1.87-7.364 4.5-11.25l1.301-1.969z"/><path fill="#7b9ace" d="M1123 1160h1l2 8.625.578 2.449c1.001 4.398 1.657 8.381 1.422 12.926-2-1-2-1-2.852-2.828-2.279-7.137-2.464-13.718-2.148-21.172"/><path fill="#081025" d="M470 1141h1c.292 8.099-.113 16.089-2 24l-2 2v-15l2-1c.468-2.356.468-2.356.625-5.062l.227-2.785z"/><path fill="#111831" d="M467 1080c4.862 7.293 4.262 16.541 4 25l-2-1c-.379-2.328-.379-2.328-.562-5.25-.188-2.84-.397-5.548-.961-8.34-.695-3.513-.537-6.835-.477-10.41"/><path fill="#92aee2" d="m287 747 2 1 .438 3.125c.38 3.88.38 3.88 2.063 7.188 1.859 4.57 2.215 8.8 2.5 13.688-2.626-3.939-3.77-8.01-5.187-12.5l-.865-2.629-.803-2.527-.739-2.307C286 750 286 750 287 747"/><path fill="#e3e6e7" d="M853 725c1.267 3.802.475 5.351-1 9l-2 2-2 4-2 3v-2l-5 1 1.102-1.434c3.845-5.057 7.426-10.247 10.898-15.566"/><path fill="#e3b057" d="m753 709 1 4-2.812 1.188c-3.586 2.039-4.695 2.999-6.187 6.813-.228 3.019-.178 5.98 0 9l-3-2c-.729-4.227-.935-6.562 1.43-10.199 2.915-3.384 5.943-6.193 9.57-8.801z"/><path fill="#e7b154" d="M806 693c8.705.277 15.986 1.547 24 5-3.066.962-5.132.988-8.258.293l-2.395-.529-2.473-.576-2.496-.541c-6.12-1.387-6.12-1.387-8.379-3.646z"/><path fill="#0a122b" d="M281 615h2l-1.375 11.25-.383 3.223-.391 3.105-.349 2.856c-.492 2.511-1.242 4.354-2.502 6.565l.375-10.687.094-3.053.117-2.959.095-2.714c.345-2.803 1.166-5.02 2.319-7.587z"/><path fill="#e4f0f2" d="m284 536 2 3h2c-.61 3.558-1.578 6.683-3 10l-4-2v-7l2-1z"/><path fill="#8ca9e1" d="m315 527 2 2-1 7h-2l-.812 2.313c-1.132 2.561-2.1 3.884-4.187 5.688-1-3-1-3 .434-6.355l2.004-3.832 1.025-1.982z"/><path fill="#e1f0fd" d="m550 466-6 1v2l-3.562.438L529 471l-7 1c3.485-2.323 6.865-3.112 10.875-4.062l2.145-.525c11.114-2.701 11.114-2.701 14.98-1.412z"/><path fill="#86a3e0" d="m752 446 3.375.938c4.137 1.062 8.168 1.414 12.426 1.621C770 449 770 449 773 452h-15l-1-2a101 101 0 0 0-6-2z"/><path fill="#90b0ed" d="M430 1264h2l-1 16h-3l-.125-6.875-.07-3.867C428 1266 428 1266 430 1264"/><path fill="#090e27" d="m449 1245 2 1-.937 8.625-.264 2.449c-.476 4.336-1.027 8.63-1.799 12.926h-1c-1.094-4.908-.824-9.262-.125-14.187l.277-2.154c.402-3.013.884-5.768 1.848-8.658z"/><path fill="#7f9cd2" d="M1077 1036c2.959 3.562 4.81 7.458 6.75 11.625l.996 2.063c.816 1.742 1.542 3.525 2.254 5.313l-1 2c-3.267-1.634-3.717-4.709-5-8-.373-1.323-.73-2.652-1-4h-2v-5h-2l1-4z"/><path fill="#9fb8ec" d="M543 960c3.733 4.163 5.737 8.451 7.813 13.563l.982 2.287.912 2.217.827 1.998c.554 2.305.203 3.71-.534 5.935-8.732-18.824-8.732-18.824-10-26"/><path fill="#7f9edd" d="m1025 955 11 14-3 1v-2l-2.437-.812L1028 966l-1-3 1-2-4-2z"/><path fill="#dde6e6" d="M1044 835h1l-.062 2.313c-.067 2.789-.067 2.789 1.063 5.688h-2v2l-2 2-2 2.625-2 2.375h-2c1.489-3.896 3.244-7.591 5.125-11.312l1.633-3.238z"/><path fill="#99b3f1" d="M843 497h5c-4.762 5.069-10.324 10.775-17 13 1.323-4.259 2.758-5.91 6.563-8.187 3.315-1.848 3.315-1.848 5.438-4.812z"/><path fill="#0a1127" d="M480 402c-2.928 1.547-5.841 2.691-8.984 3.727l-2.832.938-2.934.961-2.98.984L455 411v-3l11-2v-2c4.927-1.971 8.78-2.18 14-2"/><path fill="#8fb3f1" d="M702 388c8.725-.129 17.31.204 26 1v1l-1.741.076-7.884.362-2.738.119c-4.619.219-9.088.544-13.637 1.443l-1-2z"/><path fill="#091028" d="m445 1041 3 1 1 10 3 1 .438 3.25L454 1064h-3l-3-9.812-.867-2.814-.82-2.705-.762-2.491C445 1044 445 1044 445 1041"/><path fill="#84a2db" d="M1008 937c4.048 1.589 6.376 4.306 9.25 7.5l1.391 1.512C1022 949.741 1022 949.741 1022 952h-5l-.25-1.75c-.97-2.91-2.528-4.155-4.75-6.25-4-4.667-4-4.667-4-7"/><path fill="#89a9e8" d="m298 564 2 4-2 3c-.849 3.37-1.527 6.758-2.219 10.164L295 584l-2 1c-1.747-5.062.017-8.611 1.938-13.312l.881-2.244z"/><path fill="#98b6e9" d="m438 526 3 1-2.812 3.813-1.582 2.145c-1.44 1.832-2.962 3.4-4.605 5.043l-4 6c-.625-1.812-.625-1.812-1-4l2-3h2l1-5h3l.938-2.437C437 527 437 527 438 526"/><path fill="#89a8e1" d="m331 500 2 1c-.949 3.354-1.897 6.692-3 10-3.562 1.688-3.562 1.688-7 3 1.326-3.623 2.943-6.635 5.125-9.812l1.633-2.395z"/><path fill="#809edb" d="M1087 1057c2.606 2.606 3.755 5.605 5.188 8.938l.865 1.92c2.067 4.783 2.067 4.783.947 8.143-4.684-3.554-5.873-8.457-7-14a79 79 0 0 1 0-5z"/><path fill="#050c24" d="m1082 1045 3 1v4h2l3.125 6.313 1.758 3.551L1093 1063l-2 3-4.5-9.937-1.301-2.865-1.23-2.725-1.143-2.523C1082 1046 1082 1046 1082 1045"/><path fill="#8cade4" d="m448 1039-1 3-2-1 3 11h-3c-2.681-3.506-3.495-6.658-4-11 2.647-1.461 3.894-2 7-2"/><path fill="#eaf8fd" d="M562 1006c3 0 3 0 4.75 1.688 1.612 2.981 1.005 4.066.25 7.313l.563 3.688L568 1022l-2 2-2-7.875-.578-2.262C562 1008.227 562 1008.227 562 1006"/><path fill="#01040b" d="M997 988c3.377.25 4.251 1.257 6.688 3.75 2.143 3.012 2.994 4.641 3.313 8.25-4.875-2.625-4.875-2.625-6-6h-2z"/><path fill="#11172f" d="M296 780c2.238 3.357 3.651 6.834 5.125 10.563l.84 2.076C304 797.747 304 797.747 304 800c-2.993-1.098-3.846-1.677-5.25-4.625L298 793h-1z"/><path fill="#e4f1fd" d="M876 486c-2.675 1.663-5 3-8 4v2l-6 2-3-3 4.813-2.437 2.707-1.371c3.67-1.763 5.603-2.395 9.48-1.191z"/><path fill="#829ed2" d="M470 1152h1c.88 4.371 1.033 8.246.688 12.688l-.238 3.387C471 1171 471 1171 469 1174h-2c.75-7.377 1.834-14.678 3-22"/><path fill="#94b4ed" d="M452 1070c3.975 6.36 3.133 14.784 3 22-3.437-6.528-4.376-12.729-4-20z"/><path fill="#121213" d="m250 1012 2 1c-.635 3.683-.635 3.683-2.437 5.25-2.143 2.4-2.427 4.8-3.035 7.91C246 1028 246 1028 244 1030l-3-2z"/><path fill="#060f1f" d="M335 918c-1.311 4.462-3.071 7.996-5.625 11.875l-1.914 2.93L326 935l-2-1 1-3h2l.297-1.828C329.387 918 329.387 918 335 918"/><path fill="#88a3da" d="M284 608h1c.194 7.656.348 14.663-2 22-2.14-3.21-2.239-3.517-1.75-7.062l.324-2.375c.7-4.211 1.529-8.39 2.426-12.562z"/><path fill="#e3ecee" d="M1017 568c2 2 2 2 3.5 5.063 1.178 3.024 1.178 3.024 3.5 3.938l-1.875 1.813c-2.262 2.196-2.262 2.196-4.125 5.188l-1.062-6.312-.598-3.551C1016 571 1016 571 1017 568"/><path fill="#90b0e5" d="m361 468 1 2c-1.254 3.167-2.151 5.416-5 7.375-2 .625-2 .625-5 .625l-1 6-1-2-3-1 2.047-1.828 2.703-2.422 2.672-2.391z"/><path fill="#e5eef0" d="M694 322c2.375-.187 2.375-.187 5 0l2 3-10 4-2-2v-4h5z"/><path fill="#99b5ec" d="M560 1112h3c-1.557 4.883-3.222 9.716-5.062 14.5l-.973 2.531C556 1131 556 1131 554 1132c-.517-5.428 1.003-7.593 4-12 .875-2.655 1.432-5.255 2-8"/><path fill="#e4ad51" d="m746 729 1.813 1.438c2.191 1.727 2.191 1.727 5.188 2.563v4l5 2-1 3-4.875-3.75-2.742-2.109c-2.233-2.006-3.302-3.384-4.383-6.141z"/><path fill="#e4f4fe" d="m474 494 2 1c-4.252 5.324-7.958 8.863-14 12-1.859 1.602-1.859 1.602-3 3l-3-1 2.16-1.758z"/><path fill="#e0e8ea" d="m737 341 2 3c-.609 2.051-.609 2.051-1.75 4.313-1.698 3.51-3.1 6.952-4.25 10.688l-4-1z"/><path fill="#091122" d="m681 353-6.875 4.063-1.973 1.182L667 361l-2-1c0-2 0-2 1.375-3.562 2.693-2.382 5.169-2.746 8.625-3.437 2.491-1.245 3.411-.777 6 0z"/><path fill="#0d1429" d="M996 998h3v3l1.875.813C1003 1003 1003 1003 1005 1006v3h2v2l-3 1-4-6.437-1.156-1.854C996 999.113 996 999.113 996 998"/><path fill="#e0edec" d="M322 891h1c2.026 7.949-.777 13.683-4 21l-2-2c.44-2.897 1.531-5.614 2.5-8.375 1.194-3.525 2.025-6.922 2.5-10.625"/><path fill="#8eaadf" d="M556 385c-11.485 5.704-11.485 5.704-16.75 4.313L536 388v-1l7.75-1.562 2.211-.459c3.705-.724 6.432-1.077 10.039.021"/><path fill="#d7e0e2" d="M802 370h3l1 3 3 1-1 3-11-1 1-3c2.063-.687 2.063-.687 4-1z"/><path fill="#0f1829" d="M304 800c2.144 3.216 3.661 6.531 5.188 10.063l.865 1.932c.712 1.643 1.336 3.323 1.947 5.006l-1 2-3-1c-.66-1.961-.66-1.961-1.062-4.375-.569-3.329-.997-4.714-2.937-7.625-.125-3.187-.125-3.187 0-6z"/><path fill="#9bbaef" d="M707 497c1.813.25 1.813.25 4 1l2.688.75C716 500 716 500 716.813 502.625L717 505c-4.615-1.319-8.099-3.214-12-6z"/><path fill="#a4bbec" d="M685 489c12.681 1.537 12.681 1.537 17 6l2 1v2c-4.468-1.399-8.638-3.136-12.875-5.125l-3.492-1.633L685 490z"/><path fill="#030405" d="M944 441c1.875.625 1.875.625 4 2 1.25 3.125 1.25 3.125 2 6l-4 1-5-6z"/><path fill="#8eaae4" d="M405 435c2 2 2 2 2 4l-2.375.875c-2.722.974-2.722.974-4.625 3.125l-7 2c1.316-3.949 3.054-4.55 6.563-6.687l3.066-1.887z"/><path fill="#82a0e1" d="M1133 1216h1c.956 3.998 1.104 7.708 1.063 11.813l-.027 3.52L1135 1234l-3-2c-.328-2.934-.328-2.934-.25-6.437l.047-3.496C1132 1219 1132 1219 1133 1216"/><path fill="#81a5ed" d="m1076 1120 1 2h2l-.562 1.688c-.513 2.712-.102 4.656.563 7.313l-5-1c-.687-2.75-.687-2.75-1-6 1.438-2.375 1.438-2.375 3-4z"/><path fill="#0a1328" d="M1043 1056c2.658 2.37 4.112 4.82 5.688 8l1.324 2.625C1051 1069 1051 1069 1051 1072l-3-1-2-5-1.625-1.937c-1.841-2.762-1.596-4.816-1.375-8.062z"/><path fill="#eaf4fe" d="M521 920c2.375.625 2.375.625 5 2 1.741 3.73 2.241 6.91 2 11-2.309-2.166-4.053-4.392-5.75-7.062l-1.359-2.098L520 922z"/><path fill="#9cb7ea" d="M425 784c2.816 2.495 4.41 5.266 6.188 8.563l1.605 2.941C434 798 434 798 434 800h-2v-2h-2c-2.533-4.642-4.465-8.652-5-14"/><path fill="#e1ac54" d="m767 745 9 4v2l1.75.375c2.273.631 4.175 1.514 6.25 2.625v2c-6.164-1.666-11.483-4.878-17-8z"/><path fill="#d7e1e3" d="M568 363v2l-6.75 1.563-3.797.879c-3.048.493-4.63.635-7.453-.441 3.135-1.858 5.375-2.201 9-2v-2c3.478-1.159 5.459-.708 9 0z"/><path fill="#99b5ea" d="m508 1217 3 1-8 19h-1c-.469-5.859.658-8.282 4-13 .854-2.319 1.422-4.59 2-7"/><path fill="#95b6ee" d="m536 1166 1 2c-.621 1.696-.621 1.696-1.652 3.695l-1.104 2.168-1.182 2.262-1.17 2.285L529 1184c-1.329-4.767-.213-7.642 2-12 1.545-2.174 3.183-4.035 5-6"/><path fill="#82a0da" d="M1116 1138h2l2.063 6.75 1.16 3.797c.704 3.127.944 4.548-.223 7.453-1.765-3.088-2-4.233-2-8h-2c-1.607-3.215-1.057-6.436-1-10"/><path fill="#8ca7da" d="M470 1087h2c2.306 6.919 1.073 14.894 0 22h-1z"/><path fill="#8da9e4" d="M964 960h2c4 6.5 4 6.5 4 11h2c1.239 2.974 2.301 5.853 3 9-3.642-3.207-5.677-6.811-7.75-11.125l-.957-1.918C964 962.282 964 962.282 964 960"/><path fill="#0f1514" d="m948 444 6 5-3 1-1 2-4 1-5-6h3l2 2 3-1z"/><path fill="#3c2515" d="m838 741 3 1c-3.34 4.322-6.328 7.175-11 10l-2-2z"/><path fill="#e6ab4a" d="m848 717 2 1-1 5 2 1-4 5c-1-3-1-3 0-6l-6 1c1.634-1.708 2.869-2.935 5-4l-1-2z"/><path fill="#070f24" d="m961 470 4 1v2h2l6 11-2 1-5-6.937-1.445-1.998C961 471.113 961 471.113 961 470"/><path fill="#91ace5" d="M383 452v2l-4.812 4.188-2.707 2.23L373 462l-3-1c8.75-9 8.75-9 13-9"/><path fill="#91b0e3" d="m853.164 401.355 2.461.832 2.656.875L861 404l5.125 1.688L870 407v1c-4.766.367-8.328-.621-12.742-2.199-3.05-1.082-6.14-1.938-9.258-2.801 3-2 3-2 5.164-1.645"/><path fill="#94afe0" d="m299 972 2 1c-.812 2.438-.812 2.438-2 5l-3 1-2 5-2 2h-2c1.548-3.347 3.491-6.247 5.625-9.25l1.914-2.703z"/><path fill="#352419" d="m789 693-6.125 2.563-3.445 1.441c-3.659 1.063-5.777.923-9.43-.004 3.086-2.057 5.37-2.783 8.938-3.687l3.152-.824c2.781-.467 4.295-.427 6.91.512z"/><path fill="#8baaeb" d="M984 507c3.096 3.509 4.742 6.492 6 11h-4v-3h-2a177 177 0 0 1-1-7z"/><path fill="#040408" d="m981 492 4 1 1 6-5 2c-1.125-6.75-1.125-6.75 0-9"/><path fill="#091020" d="M745 416c3.257.561 4.956 1.372 7 4l1 4 2 3c-3 0-3 0-4.824-1.645l-1.863-2.168-1.887-2.145C745 419 745 419 745 416"/><path fill="#0e1b2f" d="m870 407 6.313.75 3.551.422c3.137.828 3.137.828 5.055 2.906L886 413l-2 1-7.125-2.937-1.996-.881L870 408z"/><path fill="#8aa6e0" d="M448 1264c2.342 3.513 2.137 4.495 1.688 8.563l-.301 2.941C449 1278 449 1278 448 1280h-2z"/><path fill="#86a3e3" d="M1090 1176c2.125 3.188 2.502 5.265 3 9h2l-1 5h-2c-3.629-9.41-3.629-9.41-2-14"/><path fill="#121d35" d="M214 1166c1.268 3.654.757 6.491.063 10.25l-.59 3.266L213 1182c-2-2-2-2-2.23-4.059l.043-2.379.02-2.371C211 1171 211 1171 212 1168h2z"/><path fill="#091028" d="M1072 1123c1.967 2.95 3.026 5.478 4.188 8.813l1.105 3.082c.776 3.41.5 5.727-.293 9.105h-1v-7h-2c-1.591-4.873-2.212-8.808-2-14"/><path fill="#dde7ea" d="M258 628h1c1.016 6.886.839 13.098 0 20h-1l-1.125-7.75-.34-2.211c-.537-3.94-.907-6.701 1.465-10.039"/><path fill="#859ecd" d="M431 422v3h-2l-2 4v-2l-6 2-2-2 4.875-2.5 2.742-1.406C429 422 429 422 431 422"/><path fill="#7f9edd" d="M1099 1086c3.225 3.225 4.774 7.544 5.191 12.082-.003 1.641-.089 3.281-.191 4.918-3.871-3.331-4.258-7.129-5-12-.125-3.062-.125-3.062 0-5"/><path fill="#070405" d="M741 719v8h-5v-6c3.875-2 3.875-2 5-2"/><path fill="#9bbbf9" d="M787 538h5v2l3 1v2c-3.674 1.176-7.169 1.074-11 1l4-4z"/><path fill="#e8f4fd" d="m442 525 1 2c-.637 1.875-.637 1.875-1.687 4l-1.012 2.125c-1.556 2.242-2.726 3.008-5.301 3.875l-3-1 3-1 .875-2.25c1.395-3.409 3.44-5.277 6.125-7.75"/><path fill="#8eadea" d="m904 423 9 4v4h-6l1-4h-3z"/><path fill="#89a6d4" d="m479 404-3 1v2c-5.075 1.263-9.728 2.27-15 2 3.006-2.004 5.592-3.031 9-4.187l3.188-1.105C476 403 476 403 479 404"/><path fill="#94afea" d="M455 1136h1l.063 6.625.035 3.727c-.089 3.326-.461 6.389-1.098 9.648l-2-1c-.248-6.571.676-12.57 2-19"/><path fill="#93b0e3" d="m309 959 2 3-1 2h-3l-2 6h-3v2l-2-1 3.938-5.437 2.215-3.059z"/><path fill="#95ade4" d="M294 773h2l2 3 2 1-1 3 2 7-2 1-2.5-6.937-.723-1.998C294 774.113 294 774.113 294 773"/><path fill="#dce5e8" d="m267 583 4 1-3 11-3-3c.145-2.262.145-2.262.813-4.687l.645-2.449z"/><path fill="#070e27" d="M292 576h2c-1.589 5.361-3.19 10.708-5 16h-1v-9h2l.438-2.937C291 577 291 577 292 576"/><path fill="#101833" d="M997 534h2c3.104 6.501 4.58 10.889 3 18h-1l-.621-2.922-.816-3.828-.809-3.797c-.546-2.499-1.11-4.979-1.754-7.453"/><path fill="#85a5e4" d="M734 427h2v2l2 1-2 1c-.656 2.527-.656 2.527-1 5h-2l-1 2c-.928-3.628-1.269-5.411.313-8.875z"/><path fill="#7fa2e1" d="M1026 1017c2.762 2.762 2.579 5.207 3 9l-2 1-5-9z"/><path fill="#ecb053" d="m835 737 5 2-2.875 3.438-1.617 1.934C834 746 834 746 832 747v-3h2l-.625-2.375L833 739z"/><path fill="#081328" d="M286 595h2l-4 18h-1c-1.27-5.786-1.197-10.554 1.438-15.937z"/><path fill="#8eade3" d="m341 488 2 3c-.625 2.625-.625 2.625-2 5-1.875.75-1.875.75-4 1l-4 1 2.875-3.875 1.617-2.18C339 490 339 490 341 488"/><path fill="#eaf6fd" d="M515 1208h3l1 5c-3.625 3-3.625 3-7 3z"/><path fill="#e5f0f1" d="m211 1089 3 1c1.374 2.854.953 4.163.063 7.25L213 1100l-2-1c-.449-2.031-.449-2.031-.687-4.5l-.262-2.469L210 1090z"/><path fill="#e4eeef" d="M218 1070h5l-3 10h-2l-2-7h2z"/><path fill="#8aa5d5" d="M448 1053c1.743 2.615 2.416 4.005 3.125 6.938l.508 2.027C452 1064 452 1064 452 1068h-2l-1.562-5.25-.879-2.953c-.551-2.759-.496-4.188.441-6.797"/><path fill="#8dabe1" d="M274 1007c2 2 2 2 2.125 5.125L276 1015h-3c-1.688 1.438-1.688 1.438-3 3l-2-1z"/><path fill="#e0f2fe" d="M554 982c4.408 6.613 6.56 10.018 6 18-2.474-2.474-3.031-4.562-4.125-7.875l-1.07-3.18C554 986 554 986 554 982"/><path fill="#0f1313" d="m270 981 2 2h-2zm-1 2 3 2c-.625 1.875-.625 1.875-2 4-3.125 1.25-3.125 1.25-6 2z"/><path fill="#edad4f" d="M808 754h10l1 3-8 2-1-3z"/><path fill="#f4f4f4" d="M609 657h4v2h2l-2 4h-3c-1.687-2-1.687-2-3-4z"/><path fill="#8eb2ec" d="M746 420c2 1.313 2 1.313 4 3v3h-2v2c-1.937-.312-1.937-.312-4-1l-1-3 2-1z"/><path fill="#91a8da" d="M758 405c3 4.385 3 4.385 3 7l2 1-2 2-3.5-3.375-1.969-1.898C754 408 754 408 754 406c2-1 2-1 4-1"/><path fill="#8aa7df" d="m674 356 1 3-2.437 1.375c-2.651 1.372-2.651 1.372-3.562 3.625l-6-1c3.457-2.765 7.143-4.849 11-7z"/><path fill="#e4eeef" d="m664 337 3 1 1 3-8 4-1-3z"/><path fill="#070d25" d="m452 1226 2 1-.375 5.25-.211 2.953c-.399 2.693-1.049 4.467-2.414 6.797-1.497-5.688-.335-10.418 1-16"/><path fill="#090e1e" d="M1006 1014c2.875.688 2.875.688 6 2 1.644 2.716 2.134 4.172 1.625 7.313L1013 1025c-2.957-3.467-5.078-6.869-7-11"/><path fill="#8dabdf" d="m288 987 2 4-1.937.688c-2.334 1.165-2.334 1.165-2.812 3.938L285 998l-3-1 2.438-4.437 1.371-2.496C287 988 287 988 288 987"/><path fill="#301e0f" d="M745 713h2a56.5 56.5 0 0 1-4 7l-1 6h-1l-1-6-4 1 1-3h5v-2h2z"/><path fill="#15191c" d="m313 497 2 1c-1.239 4.957-2.786 7.117-7 10l-2-1z"/><path fill="#030b20" d="M777 434c2 2 2 2 2.438 5.313-.539 4.542-1.98 5.835-5.437 8.688v-4h2c.858-3.431.967-5.616 0-9z"/><path fill="#172340" d="M849 400h9l1 3h6l1 3-1.941-.586L849 401z"/><path fill="#89aade" d="M820 393c4.044.467 8.019 1.156 12 2-2 2-2 2-5.937 2.313-2.824-.056-3.754-.081-6.062-1.812l-1-1.5z"/><path fill="#809bc9" d="m592 379-2 3c-4.853.324-9.22-.044-14-1v-1a98.4 98.4 0 0 1 16-1"/><path fill="#030b1c" d="M1103 1094h2c2.901 3.829 3.537 7.275 4 12l-2 1-2-5.375-1.125-3.023C1103 1096 1103 1096 1103 1094"/><path fill="#1f2225" d="M1024 924c7.483 6.15 7.483 6.15 10 10l-3 1-1.812-2.312c-2.016-2.603-2.016-2.603-3.937-4.312C1024 927 1024 927 1024 924"/><path fill="#e2eaec" d="M266 744h2c1.125 6.75 1.125 6.75 0 9h-2l-1 3c-1.117-4.69-.806-7.538 1-12"/><path fill="#efb14d" d="m765 740 3 1-1 6c-3.375-1.186-5.647-2.276-8-5l2.438-.437c2.484-.304 2.484-.304 3.563-1.562z"/><path fill="#533618" d="M810 692c6.415-.428 11.886 1.143 18 3l-1 2-17-4z"/><path fill="#95b6f0" d="m444 516 1 2 3 1h-2l-.812 1.813c-1.172 2.16-2.381 3.545-4.187 5.188l-1-2c2.514-6.514 2.514-6.514 4-8z"/><path fill="#101113" d="m960 457 4 4c-1.25 1.563-1.25 1.563-3 3-2.187-.312-2.187-.312-4-1l1-5z"/><path fill="#0a0a0f" d="m880 399 6 2-2 6-4-2z"/><path fill="#091227" d="m760 389-1 4-3.312.938L749 396l-2-2 5.375-2.5 3.023-1.406C758 389 758 389 760 389"/><path fill="#89a3cf" d="m779 384 3 1-1 7h-2l-2 4-2-1 1.438-2.125c1.65-3.036 2.166-5.467 2.563-8.875z"/><path fill="#0b142a" d="M708 338c-3.829 3.33-8.375 5.053-13 7l1-3h2v-2c3.402-2.094 6.053-2.179 10-2"/><path fill="#cfd7da" d="M740 325h1v7l2 1c.125 4.75.125 4.75-1 7h-4z"/><path fill="#8ea9da" d="M435 1232h2l-2 16c-2.342-3.513-2.137-4.495-1.687-8.562l.301-2.941C434 1234 434 1234 435 1232"/><path fill="#060f1f" d="M1033 1037c3.096 3.509 4.742 6.492 6 11l-3-1v-2l-4-2z"/><path fill="#0b1726" d="M260 1025h3c-1.687 4.498-3.817 8.729-6 13h-1c-.639-5.115 1.595-8.673 4-13"/><path fill="#e2f2fb" d="M986 896h5l-5 5-1.687 1.813C983 904 983 904 981 904l1-4h2z"/><path fill="#e8e8e9" d="m1015 862 2 1-2.875 4.5-1.617 2.531L1011 872h-2c.188-3.312.188-3.312 1-7 2.438-2 2.438-2 5-3"/><path fill="#89abe0" d="m314 822 5 1c1.001 3.004 1.514 5.877 2 9l-2 1-2.5-4.375-1.406-2.461C314 824 314 824 314 822"/><path fill="#0c0a10" d="M294.188 800.938 296 802c-.25 1.875-.25 1.875-1 4-2.062 1.25-2.062 1.25-4 2l-2-7c3-1 3-1 5.188-.062"/><path fill="#f7b535" d="M749 714h3c-.187 1.875-.187 1.875-1 4l-2.5.938L746 720c-.894 2.548-.894 2.548-1 5-.75-1.625-.75-1.625-1-4 1.494-2.54 2.905-4.905 5-7"/><path fill="#060d23" d="M313 527h2c-1.311 4.234-2.944 8.074-5 12l-2-1c.45-4.842 1.6-7.497 5-11"/><path fill="#9eb7ec" d="M755 527c3.793 1.002 6.715 1.81 10 4v2h3v2c-5.75-1.875-5.75-1.875-8-3v-2l-5-2z"/><path fill="#89a9da" d="m321 516 2 2c-.265 3.841-2.473 6.244-5 9h-2c1.225-4.053 2.699-7.444 5-11"/><path fill="#87a2d8" d="M779 437c1.704 2.606 2.006 3.9 1.813 7.063-.818 2.959-1.439 4.08-3.812 5.938l-2-1 .875-1.5c1.538-3.418 2.273-6.851 3.125-10.5z"/><path fill="#89a8e4" d="m750 424 3 3v2l-12 1 4-3 3 1v-2h2z"/><path fill="#e1e8ea" d="m903 404-1 2 4 3-1 2-10-5c3.228-2.152 4.284-2.201 8-2"/><path fill="#8aa3e0" d="M714 336c-.625 2.438-.625 2.438-2 5-3 .938-3 .938-6 1l-2-2 3.875-2 2.18-1.125C712 336 712 336 714 336"/><path fill="#1b1f21" d="m716 320-1 4-4.375.625-2.461.352L706 325l-2-2 4.875-1.5 2.742-.844C714 320 714 320 716 320"/><path fill="#82a1dc" d="M1099 1214c1.793 3.119 2.343 5.677 2.625 9.25l.227 2.703.148 2.047-2 1-1.062-5.812-.598-3.27c-.34-2.918-.34-2.918.66-5.918"/><path fill="#83a1d9" d="m1075 1130 3 1c1.808 4.092 2.212 7.557 2 12-2.2-2.2-2.686-3.578-3.625-6.5l-.789-2.406C1075 1132 1075 1132 1075 1130"/><path fill="#7c97cd" d="M1110 1116c2.01 3.015 2.726 5.215 3.625 8.688l.789 3.012.586 2.301-3-1c-1.65-4.43-2.23-8.291-2-13z"/><path fill="#0c172d" d="m254 1039 2 1-7 14h-1v-5h2l.313-2.75c.692-3.27 1.509-4.787 3.688-7.25z"/><path fill="#92aceb" d="m966 922 2 3-3 7-1 3-3 1c1.145-5.11 2.455-9.372 5-14"/><path fill="#111831" d="M288 757c2.01 3.015 2.726 5.215 3.625 8.688l.789 3.012.586 2.3-2 1c-2.682-5.364-3.315-9.01-3-15"/><path fill="#dfe6dc" d="m740 708 4 1c0 3 0 3-1.312 4.387L738 717z"/><path fill="#050c1e" d="M298 560c1.434 3.788.51 6.065-.937 9.75l-1.152 2.984L295 575h-1c.365-5.664 1.055-10.007 4-15"/><path fill="#d5e0de" d="m340 464 2 2-7 7-2-4h3l.313-1.937L337 465z"/><path fill="#020403" d="m933 432 4 4-1 3-1-1a99 99 0 0 0-5 0c.573-2.867.861-3.861 3-6"/><path fill="#0e1833" d="M700 376h1l.5 4.313.281 2.426C702 385 702 385 702 388l-4-3c.875-6.75.875-6.75 2-9"/><path fill="#dfeaea" d="m636 354 2 1 1-1 3 1c-2.363 2.526-3.665 3.888-7 5l-3-2v-2c1.875-1.062 1.875-1.062 4-2"/><path fill="#081128" d="M694 345c-7.714 6-7.714 6-11 6v-3l3.813-2.062 2.145-1.16C691 344 691 344 694 345"/><path fill="#8aa6d7" d="M450 1250h3l-.312 4.313-.176 2.426C452 1259 452 1259 449 1262z"/><path fill="#93aee7" d="M463 1197c1.184 3.552.695 4.698-.437 8.188l-.871 2.73L461 1210c-2-3-2-3-1.574-5.227l.887-2.398.863-2.414C462 1198 462 1198 463 1197"/><path fill="#a0b9e9" d="M526 1184h2c-1.687 4.498-3.817 8.729-6 13h-1c-.743-4.755 1.268-7.561 3.711-11.426z"/><path fill="#8eafeb" d="M444 1187h2c.8 3.287 1.097 4.71 0 8h-2c-2-3-2-3-1.687-5.125C443 1188 443 1188 444 1187"/><path fill="#dce5e6" d="M1091 1017c2.825 1.036 3.817 1.633 5.188 4.375L1098 1028l-2 1-2.5-4.875-1.406-2.742C1091 1019 1091 1019 1091 1017"/><path fill="#8eaee8" d="M975 980h2v3l4 1 2 7c-5.802-5.645-5.802-5.645-8-9z"/><path fill="#0c1428" d="m313 950 2 1-3.375 4.938-1.898 2.777C308 961 308 961 306 962c.615-5.377 3.271-8.271 7-12"/><path fill="#91ade2" d="m322 838 4 1c1.266 2.285 1.266 2.285 2.25 5.063l1.016 2.785L330 849l-2 1z"/><path fill="#091326" d="M319 833c2.241 2.881 4.332 5.747 6 9l-1 3-2-1v-3h-2c-2.125-4.625-2.125-4.625-1-8"/><path fill="#462207" d="M847 720c-6.897 4.079-6.897 4.079-11.5 3.75L833 723c2.606-1.737 4.072-2.45 7-3.187l2.063-.543C844 719 844 719 847 720"/><path fill="#edf2ef" d="M832 690v5c-1.875.625-1.875.625-4 1l-2-2 1-3c2-1 2-1 5-1"/><path fill="#e9f5fe" d="m415 565 2 3c-.574 2.227-.574 2.227-1.687 4.625l-1.074 2.414C413 577 413 577 410 578c1.418-4.472 3.113-8.711 5-13"/><path fill="#060b20" d="M324 504h4c-1.37 3.995-3.257 6.8-6 10z"/><path fill="#8ca9de" d="M969 485h3c4 5.257 4 5.257 4 8-1.812-.187-1.812-.187-4-1-3-4.179-3-4.179-3-7"/><path fill="#0d152a" d="m363 462 4 2-8 7-2-3 2.438-1.875c2.601-1.867 2.601-1.867 3.563-4.125z"/><path fill="#8eaee1" d="M836 397c4.485.656 8.669 1.701 13 3v1l-13-1z"/><path fill="#dfe6e9" d="M469 388c-2.788 3.833-6.561 4.225-11 5l-2-2 4.813-2.062 2.707-1.16C466 387 466 387 469 388"/><path fill="#e2f2fd" d="M511 1216h1c.286 7.429.286 7.429-2 11h-3l1.438-4.375.809-2.461C510 1218 510 1218 511 1216"/><path fill="#e4eefd" d="m541 1160 2 4-1 1-2 3h-2v2h-2c1.156-3.912 2.355-6.875 5-10"/><path fill="#f0fbfa" d="M547 961h2c2.037 4.074 2.026 6.589 1 11-2.398-2.398-2.343-3.333-2.625-6.625l-.227-2.477z"/><path fill="#8eacdf" d="M335 862h2l1 4h2l2 8-2 1-2.5-5.375-1.406-3.023C335 864 335 864 335 862"/><path fill="#9cbaf0" d="M464 845c5.875 4.625 5.875 4.625 7 8l-6 1 .063-2.812c.095-3.21.095-3.21-1.062-6.187z"/><path fill="#92ace6" d="m306 800 4 1-1 9c-2.686-2.686-3.06-5.376-4-9z"/><path fill="#97b8ec" d="M416 768c2.154 2.622 3.401 4.644 4 8h2l2 6c-3.623-1.208-3.912-2.054-5.687-5.312l-1.324-2.363C416 772 416 772 416 768"/><path fill="#cba15a" d="M797 691v2c-3.823 1.423-6.913 2.24-11 2 3.343-4.279 5.709-4.407 11-4"/><path fill="#99b5ea" d="M401 597h1c-.48 5.569-1.299 10.671-3 16h-1l1-13h2z"/><path fill="#e6f4fe" d="M934 488c3.912 1.156 6.875 2.355 10 5l-6 2z"/><path fill="#091228" d="M745 442c9.595.595 9.595.595 13 4-2.551.93-3.74 1.086-6.359.223l-2.391-1.16-2.422-1.152L745 443z"/><path fill="#0c1322" d="m748 431 11 1 1 3-7 1-1-3h-4z"/><path fill="#02071b" d="m492 395 3 2h-5v2l-9 3-1-3 9-1v-2z"/><path fill="#90ace2" d="M743.625 393.875 747 394c-2.88 2.24-5.849 4.162-9 6 0-5.202.411-5.945 5.625-6.125"/><path fill="#0d132e" d="M463 1068c2.517 2.517 3.11 4.576 4 8-.375 2.375-.375 2.375-1 4-2.468-3.648-3.6-6.601-4-11z"/><path fill="#0b1428" d="m300 966 4 1-6 8c-1-4-1-4 .438-6.75z"/><path fill="#08112a" d="M1025 952c2.964 2.808 5.445 5.183 7 9h-3c-1.387-1.75-1.387-1.75-2.687-4l-1.324-2.25L1024 953z"/><path fill="#212322" d="m1003 882 2 2-1.437 1.313c-1.799 1.711-1.799 1.711-2.562 4.688-2.602 1.648-3.862 2-7 2z"/><path fill="#101c33" d="M338 870c2.517 2.517 3.11 4.576 4 8-.375 2.375-.375 2.375-1 4-2.106-1.708-2.938-2.521-3.293-5.262l.105-2.426.082-2.449z"/><path fill="#e5edf0" d="M307 848h3l3 7-2 1-1-3-2-1-1 2h-2c.506-2.169 1-4 2-6"/><path fill="#92b2f1" d="M432 800c1.875.313 1.875.313 4 1l2 3-1 3-1-2-3 3c-.964-2.892-1-4.999-1-8"/><path fill="#dcb05b" d="m828 748 2 1-3.312 3-1.863 1.688C823 755 823 755 820 755c1.107-3.21 2.016-4.01 5-5.812z"/><path fill="#0f162b" d="M284 744c2.4 3.601 4.322 6.961 3.625 11.375L287 757l-2-1c-1.172-3.984-1.081-7.874-1-12"/><path fill="#2a1308" d="M845 732h1c.375 2.188.375 2.188 0 5-1.84 1.99-3.792 3.39-6 5 0-3.37.498-4.067 2.438-6.687l1.371-1.887z"/><path fill="#080409" d="m747 710-3 6h-2v2l-4-1 3.375-3.5 1.898-1.969C745 710 745 710 747 710"/><path fill="#e0effd" d="m497 481 2 1-7 6-4-2 4.375-2.562 2.461-1.441z"/><path fill="#040204" d="M970 475c2 1 2 1 3 3l3 1v4c-2.375-.687-2.375-.687-5-2-1.312-2.625-1.312-2.625-2-5z"/><path fill="#dee9eb" d="M377 434c-1.049 2.622-1.649 3.794-4.125 5.25L371 440l-2-4c5.75-2 5.75-2 8-2"/><path fill="#88a6d3" d="M738 408c2.489 3.235 4.754 6.593 7 10l-7-1z"/><path fill="#8ea6db" d="m804 389 9.375 1.563L816 391c-2 2-2 2-4.875 2.25-2.981-.238-4.614-.705-7.125-2.25z"/><path fill="#d2dcdd" d="M854 385h6c-3.045 2.03-4.424 2.675-8 3l-7-2c3.762-2.508 4.703-1.843 9-1"/><path fill="#86a5d5" d="M432 1246c2.493 3.74 2.06 5.291 1.625 9.688l-.336 3.574L433 1262h-1c-.71-5.53-1.303-10.5 0-16"/><path fill="#829ece" d="M453 1232c1.961 2.768 2.122 4.85 1.813 8.125C454 1244 454 1244 451 1246c.566-4.69 1.185-9.345 2-14"/><path fill="#97ade2" d="M210 1219h1l.688 5.313.387 2.988C212 1230 212 1230 210.52 1231.855L209 1233c-.185-9.41-.185-9.41 1-14"/><path fill="#97b6ec" d="m215 1166 2 2c-.242 2.82-.242 2.82-.875 6.125l-.617 3.32L215 1180h-1l-.062-4.75-.035-2.672c.089-2.36.429-4.323 1.098-6.578z"/><path fill="#09152d" d="m1097 1080 3 1v3h2l1 10c-1.682-2.523-2.901-4.811-4.125-7.562l-1.07-2.379C1097 1082 1097 1082 1097 1080"/><path fill="#391d07" d="M831 727c-5.035 1.007-8.239.974-13-1v-1c5.588-1.143 8.244-1.171 13 2"/><path fill="#14171a" d="M365 446c-1.356 4.069-3.602 5.469-7 8-2.375.813-2.375.813-4 1l5-5 2.188-2.312C363 446 363 446 365 446"/><path fill="#d9e2e5" d="m382 428 4 2-8 5c.959-3.837 1.236-4.597 4-7"/><path fill="#070c24" d="m444 410 10 1c-2.952 2.952-5.955 3.087-10 4z"/><path fill="#070d22" d="m800 386 10 1v3l-3.875-.312-2.18-.176C802 389 802 389 800 386"/><path fill="#89a5d8" d="m784 385 10 1c-2 2-2 2-4.164 2.195l-2.461-.07-2.477-.055L783 388z"/><path fill="#8a9fc7" d="m725 333-2 6-2-1v-2l-4-2c2.928-.976 4.956-1.082 8-1"/><path fill="#839ac5" d="M456 1218h1l.063 4.25.035 2.391c-.094 2.266-.465 4.188-1.098 6.359h-2l.438-4.25.246-2.391c.293-2.183.737-4.237 1.316-6.359"/><path fill="#839fd9" d="M1048 1064c3 1 3 1 4.688 3.75 1.252 3.1 1.602 4.967 1.313 8.25-2.748-3.402-6-7.485-6-12z"/><path fill="#89a4d9" d="M1042 1049c1.976 1.976 2.896 3.523 4.125 6l1.07 2.125C1048 1059 1048 1059 1048 1061h-2l-2.562-4.875-1.441-2.742L1041 1051z"/><path fill="#dce5e8" d="m253 1003 3 1-5 8-2-1c1.125-2.972 2.223-5.334 4-8"/><path fill="#e7f4fe" d="M496 887c2.875.625 2.875.625 6 2 1.375 3.125 1.375 3.125 2 6-4.206-1.502-5.739-4.286-8-8"/><path fill="#9ab6ee" d="M479 866c3.809 1.445 5.297 3.326 7 7l-1 3-3-3.875-1.687-2.18C479 868 479 868 479 866"/><path fill="#dae3e6" d="m1050 814 2 2c-.033 2.729-.564 5.297-1 8l-3 1z"/><path fill="#2b1a0b" d="M827 696c6.75.875 6.75.875 9 2v3c-3.775-1.091-6.47-1.908-9-5"/><path fill="#eeedee" d="m844 698 3 1 1 6-6-3z"/><path fill="#afc2f1" d="M917 483h11v2l3 1c-2.987 1.493-4.952.406-8.125-.437l-3.32-.871L917 484z"/><path fill="#0f162b" d="M920 431c4.752.432 6.92 1.328 10 5l-1 2-4.5-2.937-2.531-1.652L920 432z"/><path fill="#8aa8dd" d="M702 388h13v1l-7 1v1l-6 1-1-2z"/><path fill="#0f1314" d="m644 354 2 2h-2l-1 4h-7z"/><path fill="#def0fc" d="M493 1255h1l1 7-4 3c-1.392-4.176.177-6.135 2-10"/><path fill="#121b37" d="M1078 1141c2.566 3.849 2.551 6.435 3 11h-2c-1.203-2.405-1.101-3.95-1.062-6.625l.027-2.477z"/><path fill="#daeefd" d="M559 1121h1v8l-4 2 .938-4.437.527-2.496C558 1122 558 1122 559 1121"/><path fill="#e2f3fe" d="M567 1093h1l.188 5.375.105 3.023L568 1104l-3 2c.52-4.379 1.057-8.688 2-13"/><path fill="#0a1133" d="M1027 1027c2.969 2.545 4.362 5.49 6 9-1.875-.187-1.875-.187-4-1-1.522-2.891-2-4.718-2-8"/><path fill="#8da1cf" d="M1005 1013c4.429 5.143 4.429 5.143 5 9h-2c-2.187-2.25-2.187-2.25-4-5 .25-2.312.25-2.312 1-4"/><path fill="#07112d" d="M1016 944h4c2.313 2.813 2.313 2.813 4 6l-1 3-3.5-3.937-1.969-2.215C1016 945 1016 945 1016 944"/><path fill="#d7dfe2" d="m1046 941 3 5-4 1-4-5z"/><path fill="#e7f2fd" d="M401 723c2.563 2 2.563 2 5 5 .15 2.891-.369 5.134-1 8-1.576-2.886-2.463-5.533-3.125-8.75l-.508-2.422z"/><path fill="#869fcf" d="M298 564c1.148 1.703 1.148 1.703 2 4-.898 2.359-.898 2.359-2.375 4.75l-1.461 2.422L295 577c-1-2-1-2-.223-4.602l1.16-3.023 1.152-3.039z"/><path fill="#91b4ea" d="M798.813 537.188 801 538c-2.068 2.797-3.144 3.027-6.687 3.688L791 542c4.308-5.046 4.308-5.046 7.813-4.812"/><path fill="#99b8f8" d="M996 532v7l-3 1-1-7c3-1 3-1 4-1"/><path fill="#a0b4f1" d="M736 516c4.219.479 6.797 1.166 10 4l-1 3-4.5-2.937-2.531-1.652L736 517z"/><path fill="#e7f7fe" d="m624 469 11 2c-4.532 2.266-6.178 1.927-11 1z"/><path fill="#86a4db" d="m956 464 4 4-2 3-4-1z"/><path fill="#040a1f" d="M948 451h2l2 6h2v2c-2.884-1.293-4.872-2.659-7-5z"/><path fill="#91afe5" d="m752 446 10 3-4 2c-3.75-1.375-3.75-1.375-7-3z"/><path fill="#11192c" d="M930 438c3.821.531 6.062 1.497 9 4l-1 2c-3.366-1.443-5.51-3.333-8-6"/><path fill="#90ace0" d="M926 436c6.875 3.75 6.875 3.75 8 6l-4 1-5-6z"/><path fill="#17191c" d="m390 426 2 1-1.937.813c-2.394 1.074-2.394 1.074-3.062 4.188h-3v2l-4-1z"/><path fill="#8aa5d6" d="M773 427c2.867.573 3.861.861 6 3v6c-2.401-2.881-4.473-5.564-6-9"/><path fill="#10132d" d="m758 405-4 1 4 6h-3v-2l-3-1v-4c2.491-1.245 3.411-.777 6 0"/><path fill="#8babd4" d="M760 388c-2.853 2.325-5.541 3.751-9 5v-4c3.196-1.065 5.657-1.074 9-1"/><path fill="#95b0f7" d="m592 379 3.813-.125 2.145-.07C600 379 600 379 603 381c-4.256 1.161-7.684.762-12 0z"/><path fill="#000512" d="M444 1204c1.624 2.501 2.073 3.59 1.539 6.578l-.914 2.672-.898 2.703L443 1218h-1c-.18-5.22.029-9.073 2-14"/><path fill="#e5f4fe" d="M523 1194c1.063 1.875 1.063 1.875 2 4-1.392 2.784-3.156 2.979-6 4 1.125-2.972 2.223-5.334 4-8"/><path fill="#ddecfe" d="M555 1131c.652 1.734.652 1.734 1 4-.996 2.141-.996 2.141-2.437 4.25l-1.434 2.141L551 1143l-1-2 2.438-5.125 1.434-2.758z"/><path fill="#e0e9ec" d="M236 1029h5l-3 7-1-3h-2z"/><path fill="#91a9d6" d="M266 1020c1.392 4.176-.177 6.135-2 10h-3c1.335-3.594 2.96-6.755 5-10"/><path fill="#081027" d="M1067 1016c3 1 3 1 4.168 2.848l1.02 2.215 1.043 2.223.77 1.715-2 1-2.5-3.875-1.406-2.18C1067 1018 1067 1018 1067 1016"/><path fill="#8da8e0" d="M326 934c.652 1.797.652 1.797 1 4-1.365 2.334-3.142 4.006-5 6l-1-2c.996-1.945.996-1.945 2.438-4.125l1.434-2.195z"/><path fill="#dfe9e9" d="M301 929c1.938.375 1.938.375 4 1l1 2-4 5-1-4h2v-2h-2z"/><path fill="#95b0e8" d="M975 911c0 3.606-.817 4.413-3 7.188l-1.687 2.168L969 922l-2-1 3.438-4.437 1.934-2.496z"/><path fill="#92b0f4" d="M985 903v4l-7 1c4.75-5 4.75-5 7-5"/><path fill="#ced5d8" d="m1000 896 1 2 3 1-1 2 4 2-2 2c-2.5-2.25-2.5-2.25-5-5z"/><path fill="#e1af58" d="m769 700 1 2h-2v3l-9 1c3.124-2.523 6.381-4.273 10-6"/><path fill="#121212" d="m939 654 6 3v2l2 1h-3l-1 2c-4-5.75-4-5.75-4-8"/><path fill="#8095cb" d="M990 518c2.438 2.438 3.623 4.852 5 8l-1 2-3-1z"/><path fill="#9db8ee" d="M976 515h3v2h3l1 6-5-5v-2z"/><path fill="#e0f1fc" d="m893 482-1 2c-4.173 1.35-7.739.752-12 0v-1c4.409-1.102 8.484-1.077 13-1"/><path fill="#090f26" d="M530 387v2l-10 2v-2c3.62-1.316 6.096-2 10-2"/><path fill="#091323" d="M655 367c-2.853 2.325-5.541 3.751-9 5 .313-1.937.313-1.937 1-4 2.928-.976 4.956-1.082 8-1"/><path fill="#e0ecec" d="M674 331c3.257.418 4.634.634 7 3-1.875 1.063-1.875 1.063-4 2l-2-1v-2l-2-1z"/><path fill="#84a1d0" d="M464 1188h1c.492 6.4.492 6.4-2 9.438l-2 1.563.938-4.937.527-2.777C463 1189 463 1189 464 1188"/><path fill="#101211" d="M1131 1121c3 2 3 2 3.688 5.125L1135 1129h-2c-1.687-2.312-1.687-2.312-3-5z"/><path fill="#e2eeeb" d="m1115 1071 5 2v6l-3-1z"/><path fill="#0c0e0c" d="m1025 1043 2 1c.414 2.066.414 2.066.625 4.563l.227 2.504.148 1.934c-2.133-2.596-3.551-4.631-4-8z"/><path fill="#869edd" d="M1030 1031c2.468 1.152 4.048 2.048 6 4v5c-2.969-2.545-4.362-5.49-6-9"/><path fill="#d5e3ec" d="m1005 1019 3 1v2l4 1-1 2-4-1v-2l-3-1z"/><path fill="#0e1833" d="M1008 935c3.318.987 4.765 1.687 6.875 4.5L1016 942l-1 2-3.5-3.937-1.969-2.215C1008 936 1008 936 1008 935"/><path fill="#dde9e8" d="M284 792c1.563 1.813 1.563 1.813 3 4l-1 3h-3c-.625-1.812-.625-1.812-1-4z"/><path fill="#dfe4e7" d="M272 764h2l2 7-2 2c-2-2-2-2-2.125-5.625z"/><path fill="#f4b548" d="M788 753h4v2l3 1v1h-8l2-1z"/><path fill="#251e14" d="m848 727 2 1c-.498 3.688-1.101 5.605-4 8 .875-6.75.875-6.75 2-9"/><path fill="#eaac41" d="M796 730v2l4 1c-2.751.917-4.359 1.109-7.187 1.063L789 734c4.75-4 4.75-4 7-4"/><path fill="#0a0d10" d="M1026 675c1.938.313 1.938.313 4 1l1 3-5 1-1-3z"/><path fill="#e4ecf0" d="M271 576c1.125 1.75 1.125 1.75 2 4-.875 2.25-.875 2.25-2 4h-2c-.687-2.312-.687-2.312-1-5 1.438-1.812 1.438-1.812 3-3"/><path fill="#d7e2e4" d="M288 530c1.625 1.625 1.625 1.625 3 4-.812 3.25-.812 3.25-2 6l-3-2 1-2.312c1.174-2.678 1.174-2.678 1-5.687z"/><path fill="#8aa5d4" d="m331 500 2 1v2h-2l-1 4h-2v2l-2-1z"/><path fill="#081026" d="m332 494 3 2-5 7-2-2z"/><path fill="#101625" d="m982 489 2 3-3 2c-.25 3.084-.25 3.084 0 6l-4-5 3-4h2z"/><path fill="#8fa9dd" d="m950 457 5 5v3l-2 2-.312-2.312c-.731-2.858-1.457-3.845-3.687-5.687z"/><path fill="#8dade0" d="m438 418 3 1-3 4-6-1c1.964-1.506 3.783-2.891 6-4"/><path fill="#0b142e" d="m898 418 7 2v3c-5.75-1.75-5.75-1.75-8-4z"/><path fill="#cdd5d7" d="M860 387v2l5 1v2l-11-3c4-2 4-2 6-2"/><path fill="#e2edf1" d="M840 379v3l-6 1-2-3c2.709-1.354 5.009-1.065 8-1"/><path fill="#dce3e5" d="m819 377 8 1 1 3-8-1z"/><path fill="#8eabd5" d="m709 358 3 1-2.437 3.5-1.371 1.969L707 366h-1v-5h2z"/><path fill="#1e2226" d="m661 344 2 2h-2v2l-9 2c2.881-2.401 5.564-4.473 9-6"/><path fill="#050a24" d="M445 1271h2l-1 9h-2c-.074-3.343-.065-5.804 1-9"/><path fill="#95b5eb" d="M454 1243c1 2 1 2 .441 3.945l-.879 2.18-.871 2.195L452 1253h-1c-.369-6.523-.369-6.523 1.5-8.937z"/><path fill="#7d99da" d="M1102 1238h2c1.25 6.625 1.25 6.625-1 10z"/><path fill="#0f1632" d="M1081 1152c3.006 3.006 2.596 5.824 3 10h-2c-1.158-3.473-1.069-6.361-1-10"/><path fill="#e5eeef" d="M196 1152c2.567 3.85 1.833 5.586 1 10l-2-1c-.125-6.75-.125-6.75 1-9"/><path fill="#0e162f" d="M1068 1112c2.19 3.285 2.998 6.207 4 10l-4-2z"/><path fill="#85a2de" d="M1069 1113h3l1 10c-2.19-3.285-2.998-6.207-4-10"/><path fill="#121d35" d="M1062 1096c2.19 3.285 2.998 6.207 4 10l-2 1c-1.802-3.83-2.196-6.781-2-11"/><path fill="#89a7d8" d="M249 1051h1l-.375 4.375-.211 2.461C249 1060 249 1060 247 1062c-.955-2.17-1.144-3.563-.398-5.824z"/><path fill="#060e21" d="m246 1055 2 1-4 8h-1l1-8z"/><path fill="#8eaad9" d="m260 1030 2 1v3h-2l-2 6-2-2z"/><path fill="#95aff0" d="m1001 1008 4 4-2 4c-1.562-2.312-1.562-2.312-3-5z"/><path fill="#e3f2fe" d="M996 1007c2.5 2.25 2.5 2.25 5 5v4c-3.039-1.519-3.644-3.98-5-7z"/><path fill="#dee5e7" d="m1076 990 3 1v2h2l2 6h-2z"/><path fill="#081027" d="M1050 987c2.799 2.528 4.458 4.204 5 8h-2l-4-7z"/><path fill="#e4edf0" d="m292 944 3 3-3 3-2-1v-4z"/><path fill="#9ab5eb" d="M473 858c1.938.75 1.938.75 4 2 .75 2.125.75 2.125 1 4h-4z"/><path fill="#97b3ef" d="M442 813c2.899 2.395 3.502 4.312 4 8l-2-2-2 2z"/><path fill="#93aee0" d="M310 809c1.5 1.063 1.5 1.063 3 3 .188 3.688.188 3.688 0 7-2.491-2.491-3.087-4.63-4-8z"/><path fill="#f3f0f0" d="M831 751c1.044 3.133.934 3.99 0 7l-3-1v-2l-2-1z"/><path fill="#dde5e6" d="M263 728h1l1 8-3-1v-3l-2-1 3-1z"/><path fill="#8ca8db" d="M280 718h2l1 8-2 2z"/><path fill="#131014" d="m853 711 3 1v9c-3.006-3.006-2.596-5.824-3-10"/><path fill="#2d3436" d="m267 595 2 2c-.303 3.842-1.525 6.094-4 9 .875-7.625.875-7.625 2-11"/><path fill="#ebf7ff" d="m719 507 9 4v1c-5.5.367-5.5.367-7.875-1.375C719 509 719 509 719 507"/><path fill="#e8f4fe" d="m848 497 2 1-2 3h-3l-1 3h-3v-2c1.531-1.289 1.531-1.289 3.5-2.625l1.969-1.352z"/><path fill="#1c1b1e" d="M986 496c2.252 2.688 3.882 4.646 5 8h-3v-2l-3-1z"/><path fill="#ecf8fd" d="M692 493c5.75 1.75 5.75 1.75 8 4-3.904 0-6.38-.684-10-2z"/><path fill="#10182f" d="m942 446 7 4-3 3-5-6z"/><path fill="#0f172f" d="M394 439h5c-2.881 2.401-5.564 4.473-9 6v-2h2z"/><path fill="#8fa7d7" d="m918 430 8 5-3 2-5-5z"/><path fill="#1a1f20" d="M438 403c-1.125 1.5-1.125 1.5-3 3-3.187.188-3.187.188-6 0 1-2 1-2 3.375-3.187C435 402 435 402 438 403"/><path fill="#0d172b" d="m774 393 2 2-7 5-1-2h2l.313-1.937L771 394z"/><path fill="#89a2d6" d="M528 391c-2.917 1.984-4.124 1.988-7.75 1.625L517 392v-1c3.982-1.054 6.982-.841 11 0"/><path fill="#96b6ee" d="m792 387 9 1c-3.767 1.883-5.03 2.221-9 2z"/><path fill="#03081b" d="M777 384h2c.188 2.813.188 2.813 0 6l-3 3z"/><path fill="#8aa9da" d="M696 380c2.409 2.409 3.538 4.943 5 8l-5-1z"/><path fill="#09141d" d="M705 368c.688 1.625.688 1.625 1 4l-3 6-2-4z"/><path fill="#9bb4eb" d="M485 1270h2c-1.091 3.775-1.908 6.47-5 9l1-6h2z"/><path fill="#0d1833" d="m434 1248 2 1c.188 2.875.188 2.875 0 6l-3 2z"/><path fill="#0e1c31" d="M1089 1181c2.296 3.445 2.54 5.938 3 10l-3-2c-.408-2.712-.133-5.244 0-8"/><path fill="#eff8fe" d="m562 1114 3 3-5 5z"/><path fill="#0b0f24" d="m457 1055 2 1 2 7-3 1c-1.044-3.133-.934-3.99 0-7l-2-1z"/><path fill="#8dabdf" d="m455 1047 1 2h2l1 6h-2c-1.765-3.088-2-4.233-2-8"/><path fill="#161a1c" d="m250 1012 2 1c-.349 3.255-1.021 4.019-3.562 6.25L246 1021z"/><path fill="#091233" d="m1000 989 5 5v3l-5-5z"/><path fill="#071120" d="m285 987 3 1-4 6-2-1z"/><path fill="#8aabdb" d="m299 972 2 1c-1.75 4.875-1.75 4.875-4 6l-2-2z"/><path fill="#8aa4d6" d="M314 951h2v4l-3 1c-1.667 1.5-1.667 1.5-3 3 1.125-2.972 2.223-5.334 4-8"/><path fill="#8ca6db" d="m339 908 2 2c-.33 3.297-.623 4.623-3 7-1.033-2.788-1.045-3.868-.062-6.75z"/><path fill="#eef9fc" d="M517 912c1.5 1.188 1.5 1.188 3 3 .188 2.688.188 2.688 0 5-2.062-1.75-2.062-1.75-4-4 .25-2.25.25-2.25 1-4"/><path fill="#e0e7e9" d="M1033 856c1 3 1 3-.437 6.188L1031 865l-2-1c1.125-2.972 2.223-5.334 4-8"/><path fill="#192239" d="M282 733h1l.625 4.313.352 2.426C284 742 284 742 282 745c-.928-4.333-.928-7.667 0-12"/><path fill="#202327" d="m740 733 6 2 1 5-3.5-2.937-1.969-1.652L740 734z"/><path fill="#e0a850" d="M760.188 706.375 763 707c-2.565 2.565-4.477 2.54-8 3l-1-2c3-2 3-2 6.188-1.625"/><path fill="#261714" d="m845 704 5 2v3l-6-2z"/><path fill="#191919" d="M631 607h4c1.813 2.375 1.813 2.375 3 5l-1 2-7-6z"/><path fill="#dcecfd" d="M403 594h1l1 8-4 2z"/><path fill="#96b3f0" d="m748 521 6 1-1 4-6-2z"/><path fill="#9ebbee" d="M728 511c3.375.547 5.082 1.055 8 3v2c-5.75-1.625-5.75-1.625-8-5"/><path fill="#0b1325" d="m371 457 3 1-7 5-1-3c2.313-1.562 2.313-1.562 5-3"/><path fill="#96b5f3" d="m779 432 3 1-1 8c-1.858-3.135-2.201-5.375-2-9"/><path fill="#88a8e1" d="M431 422v3h-2l-2 4c-.687-1.812-.687-1.812-1-4 1.616-2.154 2.255-3 5-3"/><path fill="#090d10" d="m846 386 8 2-1 2h-6z"/><path fill="#90afef" d="m710 352 4 2c-.75 1.938-.75 1.938-2 4-2.125.75-2.125.75-4 1z"/><path fill="#010416" d="M437 1241c1.108 3.325.845 5.622 0 9l-2-1c.875-6.875.875-6.875 2-8"/><path fill="#89aadb" d="M449 1171c2.567 3.85 1.833 5.586 1 10l-2-2c.033-2.729.564-5.297 1-8"/><path fill="#8faada" d="M451 1160h3l-1 8-2-1z"/><path fill="#83a6dd" d="M1061 1089c2.354 2.551 2.983 3.71 3.188 7.25L1064 1099c-1.991-2.986-2.941-5.597-4-9z"/><path fill="#89a9dc" d="M452 1070c1.765 3.088 2 4.233 2 8l-3-1z"/><path fill="#1a1a1a" d="m1017 1033 4 2v4l2 1-2 2z"/><path fill="#0a122a" d="m269 1011 3 1-4 6-2-2z"/><path fill="#0e1531" d="m992 990 3 1c1.188 2.563 1.188 2.563 2 5h-3c-2-3-2-3-2-6"/><path fill="#dce5e5" d="m261 988 4 1-2 4-3-1z"/><path fill="#081027" d="M1032 964c2.375.688 2.375.688 5 2 1.313 2.625 1.313 2.625 2 5l-2 1z"/><path fill="#111216" d="m1037 938 5 5v3l-6-7z"/><path fill="#0c1735" d="m998 923 5 1 1 6c-4.875-4.75-4.875-4.75-6-7"/><path fill="#0c1b37" d="M988 901h1l1 8-2 1c-1.125-6.75-1.125-6.75 0-9"/><path fill="#060d22" d="M300 792c2.154 2.622 3.401 4.644 4 8l-4-2z"/><path fill="#302113" d="m761 744 4 2v3l-3 1-2-2c.375-2.125.375-2.125 1-4"/><path fill="#070709" d="M756 744h5l1 4-5-1z"/><path fill="#e9edeb" d="M738 731c2 1.75 2 1.75 4 4v4h-2l-1-3-2-1z"/><path fill="#1a1a1a" d="m647 616 2 3-3 2-2 3-1-4 4-2z"/><path fill="#9bb6e5" d="M808 531c-1.453 3.829-3.429 5.121-7 7 3.138-7 3.138-7 7-7"/><path fill="#89a7d0" d="M984 507c4 4.75 4 4.75 4 7-1.937-.75-1.937-.75-4-2-.812-2.062-.812-2.062-1-4z"/><path fill="#83a4d8" d="m352 476 2 1-3 7-1-2-3-1z"/><path fill="#e5e9ee" d="M362 442h5l-2 4-4-1z"/><path fill="#0b182a" d="M737 437c3.688.498 5.605 1.101 8 4l-2 1-6-4z"/><path fill="#94b2f5" d="m736 426 7 1v2h-7z"/><path fill="#85a1d0" d="M767 401v2h-2v2h-7c6-4 6-4 9-4"/><path fill="#91aee6" d="m681 352 1 2 2 1-8 2v-2z"/><path fill="#98b3e6" d="M689.25 349.313 691 350c-1.187 1.563-1.187 1.563-3 3-2.687-.312-2.687-.312-5-1 3.446-3.077 3.446-3.077 6.25-2.687"/></svg>