<svg xmlns="http://www.w3.org/2000/svg" width="44" height="44" fill="none" viewBox="0 0 44 44"><path fill="#f1e1d4" d="M2.386 27.44Q.91 25.964.406 24.03a7.8 7.8 0 0 1 0-3.891 7.36 7.36 0 0 1 1.969-3.422q1.488-1.489 3.433-1.98a7.8 7.8 0 0 1 3.89 0q1.945.491 3.421 1.968l2.438 2.438 3.609-3.61-2.438-2.438q-1.476-1.476-1.98-3.41a7.86 7.86 0 0 1-.012-3.88q.494-1.944 1.98-3.433Q18.194.896 20.139.403a7.7 7.7 0 0 1 3.878.012q1.946.492 3.422 1.969 1.476 1.476 1.968 3.422a7.7 7.7 0 0 1 .012 3.879q-.48 1.958-1.957 3.434l-2.425 2.426 3.597 3.598 2.425-2.426q1.477-1.477 3.41-1.98a7.7 7.7 0 0 1 3.879.01q1.944.494 3.433 1.982 1.476 1.476 1.968 3.422a7.55 7.55 0 0 1 0 3.867q-.492 1.946-1.968 3.422-1.488 1.489-3.433 1.98a7.85 7.85 0 0 1-3.879-.011q-1.921-.492-3.398-1.969l-2.425-2.426-3.61 3.61 2.426 2.426q1.477 1.476 1.957 3.41a7.8 7.8 0 0 1 0 3.891q-.492 1.946-1.98 3.434a7.36 7.36 0 0 1-3.422 1.969 7.8 7.8 0 0 1-3.89 0q-1.921-.492-3.398-1.97-1.488-1.487-1.992-3.421a7.8 7.8 0 0 1 0-3.891 7.45 7.45 0 0 1 1.98-3.41l2.45-2.45-3.598-3.598-2.449 2.45a7.27 7.27 0 0 1-3.433 1.957 7.8 7.8 0 0 1-3.89 0q-1.933-.504-3.41-1.98m2.93-2.93q.667.668 1.546.891.891.234 1.77.012a3.3 3.3 0 0 0 1.546-.891l2.45-2.45-2.438-2.437a3.2 3.2 0 0 0-1.558-.879 3.5 3.5 0 0 0-1.758 0 3.33 3.33 0 0 0-1.558.902 3.4 3.4 0 0 0-.902 1.536 3.5 3.5 0 0 0 0 1.758q.234.89.902 1.558m14.342-14.345 2.437 2.438 2.425-2.426a3.25 3.25 0 0 0 .89-1.547 3.5 3.5 0 0 0-.01-1.77 3.3 3.3 0 0 0-.891-1.546 3.3 3.3 0 0 0-1.547-.891 3.5 3.5 0 0 0-1.758 0 3.25 3.25 0 0 0-1.546.89 3.5 3.5 0 0 0-.914 1.548 3.5 3.5 0 0 0 0 1.758 3.5 3.5 0 0 0 .914 1.547m11.23 11.92 2.425 2.425q.668.668 1.535.903c.586.148 1.854.144 2.432-.012a3.34 3.34 0 0 0 1.559-.902 3.25 3.25 0 0 0 .89-1.547q.235-.868.012-1.747a3.3 3.3 0 0 0-.89-1.547 3.33 3.33 0 0 0-1.559-.902c-.586-.148-1.858-.148-2.444 0q-.855.223-1.535.902zm-11.23 16.77q.667.668 1.546.89a3.4 3.4 0 0 0 1.746-.011 3.3 3.3 0 0 0 1.547-.89q.68-.68.902-1.56.234-.867.012-1.746a3.2 3.2 0 0 0-.879-1.558l-2.425-2.426-2.45 2.45a3.4 3.4 0 0 0-.902 1.534 3.5 3.5 0 0 0 0 1.758q.224.88.903 1.559m-1.16-16.77 3.597 3.597 3.609-3.61-3.597-3.597z"/></svg>