<svg xmlns="http://www.w3.org/2000/svg" width="166" height="185" data-name="Layer 1" viewBox="0 0 166 185"><path d="M165.53 57.19v70.22c0 7.8-4.16 15-10.92 18.9L93.8 181.42a21.81 21.81 0 0 1-21.82 0l-60.82-35.11a21.83 21.83 0 0 1-10.91-18.9V57.19c0-7.8 4.16-15.01 10.91-18.9L71.98 3.17a21.86 21.86 0 0 1 21.82 0l60.81 35.12a21.8 21.8 0 0 1 10.92 18.9m-35.58 40.89c2.06-3.57 2.06-7.96 0-11.53l-18.54-32.12a11.53 11.53 0 0 0-9.98-5.76H64.34c-4.11 0-7.92 2.2-9.98 5.76L35.82 86.55a11.53 11.53 0 0 0 0 11.53l18.54 32.11c2.06 3.57 5.87 5.77 9.98 5.77h37.09c4.12 0 7.92-2.2 9.98-5.77z" style="fill:#f5bb60"/></svg>