<svg xmlns="http://www.w3.org/2000/svg" xml:space="preserve" viewBox="436.6 441.9 211 206.1"><path d="m121 31-1 2c-9 0-17 1-24 4-2 1-3 2-3 4 1 6-2 12-6 17h-1l-9 2-8-2c-3 0-4 1-5 3-5 5-8 12-10 19h-4V37c6-8 14-14 23-19h14a839 839 0 0 0 34 13" style="stroke:none;stroke-width:1;stroke-dasharray:none;stroke-linecap:butt;stroke-dashoffset:0;stroke-linejoin:miter;stroke-miterlimit:4;fill:#b8560a;fill-rule:evenodd;opacity:1" transform="translate(416 425)" vector-effect="non-scaling-stroke"/><path d="M180 19c-6-1-11 0-16 1 5-4 10-4 16-1" style="stroke:none;stroke-width:1;stroke-dasharray:none;stroke-linecap:butt;stroke-dashoffset:0;stroke-linejoin:miter;stroke-miterlimit:4;fill:#ca9064;fill-rule:evenodd;opacity:1" transform="translate(416 425)" vector-effect="non-scaling-stroke"/><path d="M180 19c9 3 17 9 23 18l2 11-2 32h-4c-2-5-4-10-4-14-2-8-6-11-13-9q-3 0-3 3h-1c-3-3-5-4-8-3v-6h6v-3c-3-1-5-1-6-3h-7c-1-11-6-15-15-11h-12c-1-2 0-3 1-4l15-7a97 97 0 0 1 28-4" style="stroke:none;stroke-width:1;stroke-dasharray:none;stroke-linecap:butt;stroke-dashoffset:0;stroke-linejoin:miter;stroke-miterlimit:4;fill:#ba5608;fill-rule:evenodd;opacity:1" transform="translate(416 425)" vector-effect="non-scaling-stroke"/><path d="m152 23-15 7c-1 1-2 2-1 4h12c5 0 9 2 13 6l2 13-4-1-2-13c-8-2-15-4-22-4-3-3-3-6 0-8z" style="stroke:none;stroke-width:1;stroke-dasharray:none;stroke-linecap:butt;stroke-dashoffset:0;stroke-linejoin:miter;stroke-miterlimit:4;fill:#faedd9;fill-rule:evenodd;opacity:1" transform="translate(416 425)" vector-effect="non-scaling-stroke"/><path d="M121 31c1 1 0 3-1 4-9 0-16 1-23 5l-5 17-5 1c4-5 7-11 6-17 0-2 1-3 3-4 7-3 15-4 24-4z" style="stroke:none;stroke-width:1;stroke-dasharray:none;stroke-linecap:butt;stroke-dashoffset:0;stroke-linejoin:miter;stroke-miterlimit:4;fill:#f6e5c9;fill-rule:evenodd;opacity:1" transform="translate(416 425)" vector-effect="non-scaling-stroke"/><path d="M148 34c9-4 14 0 15 11h7c1 2 3 2 6 3v3h-6v6c3-1 5 0 8 3h-5c-4-2-8-4-10-7l-2-13c-4-4-8-6-13-6" style="stroke:none;stroke-width:1;stroke-dasharray:none;stroke-linecap:butt;stroke-dashoffset:0;stroke-linejoin:miter;stroke-miterlimit:4;fill:#b66425;fill-rule:evenodd;opacity:1" transform="translate(416 425)" vector-effect="non-scaling-stroke"/><path d="m86 58-1 2-21 1c1-2 2-3 5-3l8 2z" style="stroke:none;stroke-width:1;stroke-dasharray:none;stroke-linecap:butt;stroke-dashoffset:0;stroke-linejoin:miter;stroke-miterlimit:4;fill:#f4d9b5;fill-rule:evenodd;opacity:1" transform="translate(416 425)" vector-effect="non-scaling-stroke"/><path d="m195 66-7-7c-4-1-7 0-9 1q0-3 3-3c7-2 11 1 13 9" style="stroke:none;stroke-width:1;stroke-dasharray:none;stroke-linecap:butt;stroke-dashoffset:0;stroke-linejoin:miter;stroke-miterlimit:4;fill:#b37441;fill-rule:evenodd;opacity:1" transform="translate(416 425)" vector-effect="non-scaling-stroke"/><path d="M57 158v3l8 9c-2 2-3 3-5 3-12-1-22-5-31-12l-8-23c-1-5 0-9 1-13l22-29c2-2 4-1 5 1-3 8-4 15-4 24l3 3c10 2 14 8 13 19l-5 11z" style="stroke:none;stroke-width:1;stroke-dasharray:none;stroke-linecap:butt;stroke-dashoffset:0;stroke-linejoin:miter;stroke-miterlimit:4;fill:#b9560a;fill-rule:evenodd;opacity:1" transform="translate(416 425)" vector-effect="non-scaling-stroke"/><path d="M210 97h-3l1 8-2-2v-8c1-1 3 0 4 2" style="stroke:none;stroke-width:1;stroke-dasharray:none;stroke-linecap:butt;stroke-dashoffset:0;stroke-linejoin:miter;stroke-miterlimit:4;fill:#b88156;fill-rule:evenodd;opacity:1" transform="translate(416 425)" vector-effect="non-scaling-stroke"/><path d="m210 97 21 29c2 14-1 27-10 38l-38 13c-2-1-3-2-2-4l16-16c1-5 1-9-2-12v-11c-1-3 0-5 2-6l11-6v-17l-1-8z" style="stroke:none;stroke-width:1;stroke-dasharray:none;stroke-linecap:butt;stroke-dashoffset:0;stroke-linejoin:miter;stroke-miterlimit:4;fill:#b9560a;fill-rule:evenodd;opacity:1" transform="translate(416 425)" vector-effect="non-scaling-stroke"/><path d="M195 134v11c3 3 3 7 2 12l-5-16c0-3 1-6 3-7" style="stroke:none;stroke-width:1;stroke-dasharray:none;stroke-linecap:butt;stroke-dashoffset:0;stroke-linejoin:miter;stroke-miterlimit:4;fill:#bd7c49;fill-rule:evenodd;opacity:1" transform="translate(416 425)" vector-effect="non-scaling-stroke"/><path d="m57 158 16 17-3 2c-4-1-8-2-10-4 2 0 3-1 5-3l-8-9z" style="stroke:none;stroke-width:1;stroke-dasharray:none;stroke-linecap:butt;stroke-dashoffset:0;stroke-linejoin:miter;stroke-miterlimit:4;fill:#b36931;fill-rule:evenodd;opacity:1" transform="translate(416 425)" vector-effect="non-scaling-stroke"/><path d="m131 184 5 9 10 3c3-2 6-2 9-2 2 2 3 4 3 7l-11 17c-10 3-20 5-30 5l-11-6-21-32c1-2 2-3 5-2 5 6 12 9 21 10l9-10c3-1 7-1 11 1" style="stroke:none;stroke-width:1;stroke-dasharray:none;stroke-linecap:butt;stroke-dashoffset:0;stroke-linejoin:miter;stroke-miterlimit:4;fill:#b9570b;fill-rule:evenodd;opacity:1" transform="translate(415 425)" vector-effect="non-scaling-stroke"/><path d="M131 184c4 1 8 3 11 8h8l14-8h5l-1 4-10 13c0-3-1-5-3-7-3 0-6 0-9 2l-10-3z" style="stroke:none;stroke-width:1;stroke-dasharray:none;stroke-linecap:butt;stroke-dashoffset:0;stroke-linejoin:miter;stroke-miterlimit:4;fill:#b76224;fill-rule:evenodd;opacity:1" transform="translate(416 425)" vector-effect="non-scaling-stroke"/><path d="m147 218-1 3-7 2h-22c10 0 20-2 30-5" style="stroke:none;stroke-width:1;stroke-dasharray:none;stroke-linecap:butt;stroke-dashoffset:0;stroke-linejoin:miter;stroke-miterlimit:4;fill:#f4ddc1;fill-rule:evenodd;opacity:1" transform="translate(416 425)" vector-effect="non-scaling-stroke"/></svg>