<svg xmlns="http://www.w3.org/2000/svg" viewBox="-0.73 -0.73 101.46 101.46"><path fill="#FE5161" d="m26.815-.322 3.4-.058 3.637-.026 3.789-.035q3.966-.028 7.933-.04 4.035-.013 8.07-.082c3.903-.06 7.804-.082 11.708-.093l3.6-.075c9.306.049 17.621 2.274 24.35 9.049 4.714 5.644 6.917 11.094 7.02 18.497l.058 3.4.026 3.637.035 3.789q.028 3.966.04 7.933.013 4.035.081 8.07c.062 3.903.083 7.804.094 11.708l.075 3.6c-.049 9.306-2.274 17.621-9.049 24.35-5.644 4.714-11.094 6.917-18.497 7.02l-3.4.058-3.637.026-3.789.035q-3.966.028-7.933.04-4.035.013-8.07.081c-3.903.062-7.804.083-11.708.094l-3.6.075c-9.306-.049-17.621-2.274-24.35-9.049C1.984 86.038-.22 80.588-.322 73.185l-.058-3.4-.026-3.637-.035-3.789q-.028-3.966-.04-7.933-.013-4.035-.082-8.07a919 919 0 0 1-.093-11.708l-.075-3.6c.049-9.306 2.274-17.621 9.049-24.35C13.962 1.984 19.412-.22 26.815-.322"/><path fill="#FEFBFB" d="M66.375 24.75c7.112 6.096 10.088 11.64 10.98 20.965.476 9.593-.591 18.593-7 26.25-7.198 6.646-14.87 7.765-24.39 7.453-6.707-.707-11.422-3.076-16.34-7.606L28 69l-1.117-1.871C22.266 57.943 22.345 46.096 25 36.316 28.206 29.02 32.681 25.056 40 22c8.323-2.53 18.736-1.21 26.375 2.75"/><path fill="#FE5766" d="M55 31c3.489 1.015 5.204 1.824 7.246 4.84C64.25 39.564 65 41.664 65 46H36c0-6.224.319-7.398 4-12 4.536-4.153 9.153-3.594 15-3"/><path fill="#FE5463" d="M36 55h28c0 6.21-.254 7.445-4 12-3.732 3.2-7.108 3.466-11.855 3.285-4.247-.564-6.45-2.59-9.395-5.535C37 62 37 62 36 55"/></svg>