<svg xmlns="http://www.w3.org/2000/svg" width="98" height="159" fill="none"><path fill="url(#a)" d="M96.34 19.97 9.87 81.17A51.7 51.7 0 0 1 2.04 53.6C2.04 24.46 25.85.86 55.3.86a53.21 53.21 0 0 1 41.04 19.11"/><path fill="url(#b)" d="M97.4 64.77a51.84 51.84 0 0 0-7.84-27.57L46.42 67.7 3.08 98.31l-2.3 1.64.11 59.32s57.02-38.12 74.99-52.12c13.36-10.44 21.51-25.05 21.51-42.4Z"/><defs><linearGradient id="a" x1="69.78" x2="15.18" y1="2.97" y2="67.09" gradientUnits="userSpaceOnUse"><stop stop-color="#E2D177"/><stop offset="1" stop-color="#EE448A"/></linearGradient><linearGradient id="b" x1="88.65" x2="6.82" y1="63.75" y2="128.51" gradientUnits="userSpaceOnUse"><stop stop-color="#E2D177"/><stop offset="1" stop-color="#EE448A"/></linearGradient></defs></svg>