<svg xmlns="http://www.w3.org/2000/svg" width="100" height="100" viewBox="0 0 100 100"><circle cx="50" cy="50" r="48" fill="#f0781b"/><path fill="#fff" d="M62.983 24.968 54.845 39c-2.312 3.985-8.093 3.985-10.405 0l-8.137-14.03L31.294 16h36.77zm-28.395.867 8.11 14.048c2.294 3.994-.588 8.954-5.196 8.964h-26.49L29.435 16.91zm30.054 0-8.107 14.048c-2.298 3.994.587 8.954 5.195 8.964h26.488L69.8 16.91l-5.152 8.925ZM36.25 74.718l8.137-14.03c2.313-3.988 8.093-3.988 10.406 0l8.137 14.03 5.008 8.967h-36.77zm28.393-.868L56.534 59.8c-2.298-3.992.587-8.955 5.195-8.962h26.488L69.8 82.775l-5.152-8.925Zm-30.056 0 8.11-14.05c2.295-3.992-.587-8.955-5.195-8.962h-26.49l18.423 31.937z"/></svg>