<svg xmlns="http://www.w3.org/2000/svg" width="784" height="140" fill="none" viewBox="0 0 784 140"><path fill="#502C8B" fill-rule="evenodd" d="M68.696 108.695q-.5-.325-.994-.669l-.642-.447-2.585 32.143.427.053q.95.117 1.901.19l.459.035 1.653-31.164zm5.098 2.886a38 38 0 0 1-.798-.396l-.697-.358 1.605 29.167.461-.039a43 43 0 0 0 1.738-.178l.428-.053-2.235-27.903-.234-.112zm-9.65-6.286a48 48 0 0 1-.904-.793l-.574-.516-7.355 33.587.383.128q.978.327 1.967.612l.474.136 6.208-32.985zm15.796 8.718a34 34 0 0 1-.823-.268l-.733-.25 4.796 24.867.474-.139q.76-.223 1.51-.473l.383-.128-5.078-23.447-.253-.077zm6.876 1.583a32 32 0 0 1-.816-.132l-.746-.13 6.638 19.58.467-.247q.62-.331 1.233-.68l.329-.188-6.565-18.126-.267-.038zM57.285 98.048a39 39 0 0 1-.686-.927l-.422-.588-16.8 31.611.263.235a45 45 0 0 0 1.777 1.506l.439.353 15.598-31.969zm37.255 18.044a73 73 0 0 1-1.622 0l-.767-.007 7.513 13.743.419-.343q.476-.392.941-.8l.266-.233-6.472-12.366zM54.814 94.446q-.3-.485-.584-.975l-.347-.6-20.627 28.562.202.266q.732.964 1.521 1.898l.386.455 19.6-29.36zm52.366 27.733.208-.264-4.754-6.71-.284.055q-.469.09-.935.171l-.692.119 5.42 7.916.379-.465q.335-.41.658-.822M52.84 90.904a37 37 0 0 1-.495-1.019l-.279-.594-23.412 24.569.139.282q.553 1.127 1.17 2.228l.31.553 22.705-25.747zm59.183 23.625-1.536-1.654-.284.11q-.393.151-.791.3l-.904.348 2.303 3.037c.14-.258 1.08-1.882 1.212-2.141M51.276 87.414q-.208-.522-.403-1.05l-.217-.585-25.003 20.03.079.286q.343 1.244.758 2.469l.214.636 24.69-21.489zm-1.185-3.354a46 46 0 0 1-.314-1.058l-.16-.564-25.405 15.208.025.282q.12 1.303.313 2.602l.104.696 25.537-16.842zm-.868-3.207a39 39 0 0 1-.234-1.073l-.109-.54-24.678 10.5-.021.272a43 43 0 0 0-.13 2.62l-.013.73 25.266-12.159zm-.608-3.12q-.09-.55-.163-1.105l-.068-.51-22.965 6.246-.063.258q-.308 1.264-.543 2.54l-.136.743 24-7.79zm-.384-3.072a33 33 0 0 1-.09-1.148l-.029-.481L27.625 75.7l-.1.24a45 45 0 0 0-.905 2.386l-.252.728 21.902-3.98zm-.072-7.377.03-.419-14.171-2.014-.16.204q-.744.95-1.426 1.925l-.45.64 16.086 1.394.019-.471q.026-.63.072-1.26m.329-3.133.055-.39-10.813-3.073-.186.188q-.814.817-1.575 1.663l-.515.573 12.815 2.861.055-.5q.07-.662.164-1.322m.56-3.166.077-.36-7.594-3.33-.213.17a46 46 0 0 0-1.658 1.407l-.562.5 9.582 3.535.094-.53q.123-.697.273-1.392m.813-3.232.098-.33-4.648-2.853-.238.156q-.865.566-1.704 1.173l-.586.424 6.535 3.468.14-.557q.186-.742.403-1.481m1.116-3.35.115-.303-2.066-1.694-.263.139q-.88.465-1.736.968l-.596.35 3.785 2.717.192-.58q.267-.802.569-1.597m.712-1.776q.169-.4.349-.8l.49-1.086-1.084.49q-.41.186-.822.38l-.595.282 1.412 1.334zm-3.635 18.979a55 55 0 0 1-.012-1.21v-.447l-17.468-.103-.132.22-.035.06-.099.17-.001.001q-.56.963-1.07 1.948l-.358.692 19.185-.892zm11.514 29.215q.393.44.797.872l.183.195-11.002 33.246-.468-.243a46 46 0 0 1-1.929-1.061l-.326-.19 12.246-33.377z" clip-rule="evenodd"/><path fill="#502C8B" fill-rule="evenodd" d="M108.745 71.41q-.323.502-.668.997l-.446.642 32.091 2.59.053-.428q.118-.951.19-1.904l.035-.46-31.114-1.656zm2.881-5.105q-.192.402-.395.799l-.358.698 29.121-1.608-.039-.461q-.071-.87-.177-1.741l-.053-.428-27.859 2.238-.111.234zm-6.276 9.665q-.389.457-.791.906l-.515.575 33.533 7.367.128-.384q.326-.98.61-1.97l.136-.475-32.932-6.218zm8.705-15.821q-.129.413-.268.824l-.249.734 24.827-4.803-.139-.475a42 42 0 0 0-.473-1.513l-.127-.383-23.409 5.087-.077.253zm1.58-6.887q-.061.409-.131.817l-.13.747 19.548-6.648-.247-.467a49 49 0 0 0-.678-1.235l-.188-.33-18.097 6.575-.038.268zM98.115 82.84q-.459.351-.925.687l-.587.422 31.56 16.828.235-.264q.78-.876 1.503-1.78l.352-.44L98.336 82.67zm18.016-37.315a88 88 0 0 1 0 1.625l-.008.767 13.722-7.524-.344-.42q-.391-.477-.797-.942l-.234-.267-12.345 6.482zm-21.612 39.79q-.485.3-.973.584l-.599.348 28.516 20.66.265-.202a47 47 0 0 0 1.896-1.524l.454-.386-29.313-19.632zm27.689-52.451-.264-.208-6.699 4.761.055.285q.09.47.171.937l.118.692 7.903-5.428-.463-.38a56 56 0 0 0-.821-.659M90.982 87.292q-.504.256-1.016.496l-.594.28 24.53 23.449.282-.138q1.125-.555 2.224-1.173l.552-.31-25.706-22.742zm23.587-59.278-1.651 1.539.11.284q.151.394.3.792l.347.906 3.033-2.306c-.258-.141-1.879-1.082-2.139-1.215M87.499 88.86q-.521.209-1.05.404l-.583.217 19.998 25.043.285-.079a45 45 0 0 0 2.466-.759l.634-.215-21.454-24.73zm-3.349 1.187q-.526.165-1.056.314l-.563.16 15.183 25.447.281-.026a46 46 0 0 0 2.598-.313l.696-.105-16.816-25.577zm-3.202.869q-.537.126-1.071.235l-.54.109 10.485 24.717.271.022q1.305.105 2.616.13l.728.013L81.3 90.834zm-3.114.61q-.55.09-1.104.163l-.51.068 6.237 23.002.257.063q1.261.308 2.537.543l.741.137-7.777-24.038zm-3.068.384q-.573.055-1.147.09l-.48.03 2.664 20.519.24.1q1.179.487 2.382.907l.727.252-3.975-21.937zm-7.366.072-.418-.03-2.01 14.194.203.16q.948.744 1.923 1.429l.638.449 1.391-16.11-.47-.02a39 39 0 0 1-1.257-.072m-3.128-.33-.388-.054-3.069 10.83.188.187a45 45 0 0 0 1.66 1.577l.572.516 2.857-12.836-.5-.055q-.66-.072-1.32-.164m-3.16-.56-.36-.077-3.325 7.606.17.213q.683.845 1.406 1.661l.498.563 3.53-9.598-.529-.094a38 38 0 0 1-1.39-.274m-3.227-.815-.33-.097-2.848 4.655.155.238q.565.866 1.172 1.707l.423.587 3.463-6.546-.556-.14q-.742-.187-1.48-.404m-3.345-1.117-.302-.115-1.692 2.069.14.263q.462.88.966 1.739l.35.597 2.712-3.791-.579-.193a40 40 0 0 1-1.595-.57m-1.773-.714a30 30 0 0 1-.798-.349l-1.085-.492.49 1.087q.185.41.38.823l.28.596 1.332-1.414zm18.948 3.641q-.604.013-1.207.012h-.447l-.102 17.496.22.132.06.036.168.099h.001l.001.001a46 46 0 0 0 1.944 1.071l.692.359-.891-19.216zm29.169-11.532q.44-.393.87-.798l.195-.184 33.192 11.02-.242.468q-.505.976-1.059 1.933l-.19.326-33.323-12.266z" clip-rule="evenodd"/><path fill="#502C8B" fill-rule="evenodd" d="M71.304 31.305q.5.325.994.67l.642.446L75.525.278l-.427-.053a41 41 0 0 0-1.901-.19L72.738 0l-1.653 31.164zm-5.098-2.886q.402.194.798.396l.697.358L66.096.006l-.461.039q-.869.071-1.739.178l-.427.053 2.235 27.903.234.112zm9.65 6.286q.457.39.904.793l.574.516 7.355-33.587-.383-.128a49 49 0 0 0-1.967-.612l-.474-.136-6.208 32.985zM60.06 25.987q.413.129.823.268l.733.25L56.82 1.638l-.474.139a44 44 0 0 0-1.51.473l-.383.128 5.078 23.447.253.076zm-6.876-1.583q.408.06.816.132l.746.13-6.638-19.58-.466.247q-.621.331-1.234.68l-.329.188 6.565 18.126.267.038zm29.531 17.548q.351.46.686.927l.422.588 16.801-31.61-.264-.236a45 45 0 0 0-1.778-1.506l-.438-.353-15.598 31.969zM45.46 23.908a79 79 0 0 1 1.622 0l.767.007-7.513-13.743-.419.343q-.475.392-.94.8l-.267.233 6.472 12.366zm39.726 21.646q.3.485.584.975l.347.6 20.627-28.562-.202-.266a47 47 0 0 0-1.521-1.898l-.386-.455-19.6 29.36zM32.82 17.82l-.208.264 4.754 6.71.284-.055q.469-.09.935-.171l.692-.12-5.42-7.915-.38.465q-.334.41-.657.822m54.34 31.275q.254.506.495 1.019l.278.594 23.413-24.57-.139-.281a46 46 0 0 0-1.17-2.229l-.31-.552-22.705 25.747zM27.977 25.471l1.536 1.654.284-.11c.261-.101.527-.201.79-.3l.905-.348-2.303-3.037c-.14.258-1.08 1.882-1.212 2.141m60.747 27.115q.207.522.403 1.05l.217.585 25.003-20.03-.079-.286a45 45 0 0 0-.758-2.47l-.214-.635-24.69 21.489zm1.185 3.354q.164.527.314 1.058l.16.564 25.405-15.208-.025-.282q-.12-1.304-.313-2.602l-.105-.696-25.536 16.842zm.868 3.207q.124.538.234 1.073l.109.54 24.678-10.501.021-.272q.105-1.308.13-2.62l.013-.73-25.266 12.159zm.608 3.12q.09.55.163 1.105l.068.51 22.965-6.246.063-.258q.308-1.264.543-2.541l.136-.742-24 7.79zm.384 3.071q.055.575.09 1.15l.029.48 20.487-2.668.099-.24q.488-1.182.906-2.386l.252-.728-21.902 3.98zm.072 7.378-.03.419 14.171 2.014.16-.204q.744-.95 1.426-1.925l.449-.64-16.085-1.394-.019.471a40 40 0 0 1-.072 1.26m-.329 3.133-.055.39 10.813 3.073.186-.188q.814-.817 1.575-1.663l.515-.573-12.815-2.861-.055.5q-.07.662-.164 1.322m-.56 3.166-.077.36 7.594 3.33.213-.17a46 46 0 0 0 1.658-1.407l.562-.5-9.582-3.535-.094.53q-.124.697-.273 1.392m-.813 3.232-.097.33 4.647 2.853.238-.156q.864-.566 1.704-1.173l.586-.424-6.535-3.468-.14.557q-.186.742-.403 1.481m-1.116 3.35-.115.303 2.066 1.694.263-.139q.88-.464 1.736-.968l.596-.35-3.785-2.717-.192.58a40 40 0 0 1-.569 1.597m-.712 1.776q-.169.4-.349.8l-.49 1.086 1.084-.49q.41-.186.822-.38l.595-.282-1.412-1.334zm3.635-18.979q.013.606.012 1.21v.447l17.468.103.132-.22.035-.06.099-.17h.001v-.001q.56-.963 1.07-1.948l.358-.692-19.185.892zM80.433 39.18a49 49 0 0 0-.797-.872l-.183-.195L90.455 4.867l.468.243q.974.506 1.929 1.061l.326.19-12.246 33.377z" clip-rule="evenodd"/><path fill="#502C8B" fill-rule="evenodd" d="M31.255 68.59q.324-.502.668-.997l.446-.642L.278 64.36l-.053.428a41 41 0 0 0-.19 1.904l-.035.46 31.114 1.656zm-2.881 5.105q.193-.402.395-.799l.358-.698L.006 73.806l.039.461q.071.87.177 1.741l.053.428 27.859-2.238.111-.234zm6.276-9.665q.389-.457.79-.906l.516-.575-33.533-7.367-.128.384q-.326.98-.61 1.97l-.136.475L34.48 64.23zm-8.705 15.821q.129-.413.268-.824l.25-.734-24.828 4.803.139.475q.222.76.473 1.513l.127.383 23.41-5.087.076-.252zm-1.58 6.887q.06-.409.131-.817l.13-.747-19.548 6.648.247.467q.33.623.678 1.235l.188.33 18.097-6.575.038-.268zm17.52-29.578q.459-.352.925-.688l.587-.422-31.56-16.828-.235.264q-.78.877-1.503 1.78l-.352.44 31.917 15.623zM23.869 94.474a79 79 0 0 1 0-1.625l.008-.767-13.722 7.524.344.42q.391.477.797.942l.234.267 12.345-6.482zm21.612-39.79q.484-.3.973-.584l.599-.348-28.516-20.66-.265.202q-.962.733-1.896 1.524l-.454.386 29.313 19.632zm-27.689 52.451.264.208 6.699-4.761-.055-.285a46 46 0 0 1-.17-.937l-.12-.692-7.902 5.428.463.38q.41.336.821.659m31.226-54.427q.504-.256 1.016-.496l.594-.28-24.53-23.45-.282.14q-1.124.554-2.224 1.172l-.552.31 25.706 22.742zM25.43 111.986l1.65-1.539-.109-.284a68 68 0 0 1-.3-.792l-.347-.906-3.033 2.306c.258.141 1.88 1.082 2.139 1.215M52.5 51.141q.523-.209 1.05-.404l.583-.217-19.998-25.043-.285.079q-1.242.344-2.466.759l-.635.215 21.455 24.73zm3.349-1.187q.526-.164 1.056-.314l.563-.16-15.183-25.447-.281.026q-1.302.12-2.598.313l-.695.105 16.815 25.577zm3.202-.869q.537-.126 1.071-.235l.54-.109-10.485-24.717-.271-.022q-1.305-.106-2.616-.13l-.728-.013L58.7 49.166zm3.114-.61q.55-.09 1.104-.163l.51-.068-6.236-23.002-.258-.063a45 45 0 0 0-2.537-.543l-.741-.137 7.777 24.039zm3.068-.384q.574-.056 1.146-.09l.48-.03-2.663-20.52-.24-.099a44 44 0 0 0-2.382-.907l-.727-.252 3.975 21.937zm7.366-.072.418.03 2.01-14.194-.203-.16a45 45 0 0 0-1.923-1.429l-.638-.45-1.391 16.112.47.018q.628.027 1.257.073m3.128.33.388.055 3.069-10.83-.187-.188a45 45 0 0 0-1.662-1.577l-.571-.516-2.857 12.836.5.055q.66.072 1.32.164m3.16.56.36.077 3.325-7.606-.17-.213a46 46 0 0 0-1.406-1.661l-.498-.563-3.53 9.598.529.094q.696.123 1.39.274m3.227.815.33.097 2.848-4.655-.155-.238a44 44 0 0 0-1.172-1.707l-.423-.587-3.463 6.545.556.14q.742.188 1.48.405m3.345 1.117.302.115 1.692-2.068-.14-.264a43 43 0 0 0-.966-1.739l-.35-.597-2.712 3.791.579.193q.8.267 1.595.57m1.773.714q.4.168.798.349l1.085.492-.49-1.087q-.185-.41-.38-.823l-.28-.596-1.332 1.414zm-18.948-3.641q.604-.013 1.207-.012h.447l.102-17.496-.22-.132-.06-.036-.168-.099h-.001l-.001-.001a46 46 0 0 0-1.944-1.071l-.692-.36.891 19.217zM39.117 59.445a48 48 0 0 0-.87.798l-.196.184L4.86 49.407l.242-.468q.505-.976 1.06-1.933l.189-.327 33.323 12.267z" clip-rule="evenodd"/><path fill="#502C8B" d="m208.419 18.439 55.353 85.824V47.845q0-7.45-.399-14.903a73.6 73.6 0 0 0-1.996-14.636h17.431a81 81 0 0 0-2.129 14.636 419 419 0 0 0-.266 14.903v44.043q0 7.452.266 15.036a81 81 0 0 0 2.129 14.637h-19.161l-54.954-85.159v55.62q0 7.451.266 14.902a81 81 0 0 0 2.129 14.637h-17.431a73.6 73.6 0 0 0 1.996-14.637q.399-7.45.399-14.903V47.979q0-7.45-.399-14.903a73.6 73.6 0 0 0-1.996-14.636zm148.971 0 3.193 15.701a37.3 37.3 0 0 0-7.584-2.927q-3.859-1.198-8.915-1.597-5.056-.532-12.375-.532h-18.628v34.463h11.31q7.45 0 14.903-.267a81 81 0 0 0 14.636-2.129v15.435a73.6 73.6 0 0 0-14.636-1.995q-7.452-.4-14.903-.4h-11.31v36.725h19.693q10.91 0 19.027-1.064 8.25-1.198 13.573-3.992l-3.194 15.701h-64.801a73.5 73.5 0 0 0 1.996-14.637q.4-7.45.4-14.903V47.979q0-7.45-.4-14.903a73.5 73.5 0 0 0-1.996-14.636zm52.141 0q10.113 0 18.496 3.726 8.516 3.592 13.572 10.378 5.189 6.654 5.189 15.834 0 7.319-3.326 13.174t-9.182 9.98q-5.721 3.99-13.039 5.854l19.16 27.81a273 273 0 0 0 6.653 8.249 212 212 0 0 0 7.452 8.117h-20.625q-1.73-3.859-4.524-8.383-2.66-4.657-7.318-11.709l-16.234-22.62h-8.782v13.173q0 7.451.267 14.902a81 81 0 0 0 2.129 14.637h-18.097a73.6 73.6 0 0 0 1.996-14.637q.399-7.45.399-14.903V47.979q0-7.45-.399-14.903a73.6 73.6 0 0 0-1.996-14.636zm-12.508 49.765h8.516q13.041 0 19.959-5.057 6.92-5.055 6.92-14.77 0-9.846-6.92-14.503-6.918-4.79-19.959-4.79h-8.516zm115.748 55.22q-11.443 0-21.024-3.992-9.58-4.125-16.632-11.443-6.92-7.318-10.778-17.032-3.86-9.713-3.859-21.024 0-11.31 3.859-21.023 3.858-9.714 10.778-16.899 7.051-7.318 16.632-11.31 9.58-4.125 21.024-4.125 11.443 0 21.024 3.992 9.58 3.991 16.632 11.31 7.053 7.185 10.911 16.899 3.86 9.713 3.859 21.156 0 11.31-3.859 21.024t-10.911 17.032-16.632 11.443q-9.58 3.992-21.024 3.992m-.133-10.645q8.65 0 15.701-3.46 7.053-3.46 12.109-9.314 5.055-5.988 7.717-13.705 2.661-7.851 2.661-16.367 0-8.649-2.661-16.366t-7.717-13.572q-5.056-5.988-12.109-9.315-7.052-3.46-15.701-3.46t-15.701 3.46q-6.92 3.327-11.843 9.315T477.51 53.7q-2.661 7.584-2.661 16.233 0 8.516 2.661 16.367 2.661 7.717 7.584 13.705 4.923 5.855 11.843 9.314 7.052 3.46 15.701 3.46m85.348-94.34 55.353 85.824V47.845q0-7.45-.399-14.903a73.5 73.5 0 0 0-1.996-14.636h17.431a81 81 0 0 0-2.129 14.636 419 419 0 0 0-.266 14.903v44.043q0 7.452.266 15.036a81 81 0 0 0 2.129 14.637h-19.16L594.26 36.402v55.62q0 7.451.267 14.902a81 81 0 0 0 2.128 14.637h-17.431a73.5 73.5 0 0 0 1.996-14.637q.4-7.45.4-14.903V47.979q0-7.45-.4-14.903a73.5 73.5 0 0 0-1.996-14.636zm126.484 0h13.572l32.999 79.836a268 268 0 0 0 5.456 11.311q2.927 5.322 7.052 11.975h-18.762q-.798-4.258-2.262-9.314-1.463-5.19-4.923-13.972l-3.06-7.318H707.97l-3.06 7.318q-3.327 8.782-4.923 13.972-1.464 5.056-2.262 9.314h-18.762q4.125-6.253 6.786-11.31a148 148 0 0 0 5.19-10.645zm-12.109 61.873h37.79L731.256 34.54z"/></svg>