<svg xmlns="http://www.w3.org/2000/svg" width="400" height="400" fill="none" viewBox="0 0 400 400"><rect width="400" height="400" fill="url(#a)" rx="200"/><g fill-rule="evenodd" clip-rule="evenodd" filter="url(#b)"><path fill="url(#c)" d="M197.52 273.631a66 66 0 0 1-1.893-1.273l-1.221-.85-4.92 61.163.813.101q1.808.222 3.618.361l.873.067 3.146-59.3zm9.699 5.491a67 67 0 0 1-1.518-.753l-1.326-.682 3.055 55.502.876-.074a87 87 0 0 0 3.308-.339l.813-.1-4.251-53.097-.446-.212zm-18.361-11.961a88 88 0 0 1-1.721-1.508l-1.092-.983-13.996 63.913.729.243q1.862.622 3.743 1.163l.902.26 11.812-62.766zm30.057 16.59a68 68 0 0 1-1.567-.511l-1.394-.475 9.125 47.319.902-.265a82 82 0 0 0 2.874-.901l.729-.243-9.664-44.616-.48-.146zm13.084 3.011a64 64 0 0 1-1.553-.25l-1.419-.248 12.631 37.258.887-.471a86 86 0 0 0 2.346-1.293l.627-.357-12.491-34.492-.51-.072zm-56.194-33.391a76 76 0 0 1-1.306-1.764l-.802-1.119-31.97 60.151.502.448a86 86 0 0 0 3.383 2.866l.834.67 29.681-60.831zm70.891 34.336c-.651.015-2.418.007-3.087 0l-1.459-.014 14.296 26.152.797-.654a76 76 0 0 0 1.79-1.521l.508-.444-12.315-23.53zm-75.593-41.189q-.57-.923-1.111-1.856l-.661-1.14-39.249 54.348.384.506a88 88 0 0 0 2.895 3.612l.733.866 37.297-55.868zm99.646 52.771.395-.503-9.046-12.767-.54.105q-.892.172-1.78.326l-1.316.225 10.313 15.063.722-.884q.637-.78 1.252-1.565m-103.402-59.512a72 72 0 0 1-.941-1.938l-.531-1.131-44.55 46.752.263.536a87 87 0 0 0 2.228 4.24l.589 1.052 43.205-48.993zm112.617 44.955-2.923-3.147-.54.209c-.498.192-1.003.384-1.505.571l-1.721.662 4.382 5.78c.267-.492 2.055-3.582 2.307-4.075m-115.592-51.595a83 83 0 0 1-.769-2l-.411-1.112-47.577 38.115.149.544a87 87 0 0 0 1.443 4.698l.408 1.21 46.982-40.89zm-2.256-6.382a86 86 0 0 1-.597-2.013l-.305-1.074-48.343 28.938.049.537a87 87 0 0 0 .596 4.951l.198 1.325 48.592-32.049zm-1.651-6.103a78 78 0 0 1-.446-2.041l-.207-1.03-46.959 19.984-.041.517a82 82 0 0 0-.246 4.985l-.025 1.389 48.078-23.136zm-1.158-5.935a71 71 0 0 1-.311-2.104l-.128-.971-43.7 11.885-.12.491a87 87 0 0 0-1.032 4.835l-.259 1.412 45.668-14.822zm-.731-5.847a64 64 0 0 1-.17-2.185l-.056-.916-38.984 5.076-.188.459a85 85 0 0 0-1.724 4.54l-.479 1.385 41.676-7.575zm-.137-14.038.057-.797-26.965-3.833-.304.388a85 85 0 0 0-2.714 3.664l-.855 1.218 30.608 2.651.036-.896c.031-.799.08-1.595.137-2.395m.627-5.962.104-.74-20.575-5.849-.355.357a85 85 0 0 0-2.996 3.166l-.98 1.089 24.386 5.445.103-.952q.135-1.261.313-2.516m1.064-6.024.148-.684-14.451-6.339-.404.326a86 86 0 0 0-3.156 2.677l-1.07.949 18.235 6.729.178-1.008q.235-1.327.52-2.65m1.549-6.15.185-.629-8.844-5.428-.453.296a83 83 0 0 0-3.242 2.234l-1.115.806 12.435 6.6.265-1.06q.355-1.415.769-2.819m2.123-6.375.218-.576-3.93-3.224-.501.264a83 83 0 0 0-3.303 1.843l-1.135.667 7.203 5.169.366-1.103a76 76 0 0 1 1.082-3.04m1.355-3.38q.32-.761.664-1.521l.934-2.067-2.065.934c-.519.235-1.043.476-1.563.722l-1.133.537 2.687 2.537zm-6.917 36.114q-.024-1.152-.023-2.3v-.852l-33.239-.196-.251.42c-.043.071-.046.077-.067.114l-.188.321-.001.002-.001.002a87 87 0 0 0-2.036 3.705l-.682 1.318 36.507-1.698z"/><path fill="#fff" d="M197.52 273.631a66 66 0 0 1-1.893-1.273l-1.221-.85-4.92 61.163.813.101q1.808.222 3.618.361l.873.067 3.146-59.3zm9.699 5.491a67 67 0 0 1-1.518-.753l-1.326-.682 3.055 55.502.876-.074a87 87 0 0 0 3.308-.339l.813-.1-4.251-53.097-.446-.212zm-18.361-11.961a88 88 0 0 1-1.721-1.508l-1.092-.983-13.996 63.913.729.243q1.862.622 3.743 1.163l.902.26 11.812-62.766zm30.057 16.59a68 68 0 0 1-1.567-.511l-1.394-.475 9.125 47.319.902-.265a82 82 0 0 0 2.874-.901l.729-.243-9.664-44.616-.48-.146zm13.084 3.011a64 64 0 0 1-1.553-.25l-1.419-.248 12.631 37.258.887-.471a86 86 0 0 0 2.346-1.293l.627-.357-12.491-34.492-.51-.072zm-56.194-33.391a76 76 0 0 1-1.306-1.764l-.802-1.119-31.97 60.151.502.448a86 86 0 0 0 3.383 2.866l.834.67 29.681-60.831zm70.891 34.336c-.651.015-2.418.007-3.087 0l-1.459-.014 14.296 26.152.797-.654a76 76 0 0 0 1.79-1.521l.508-.444-12.315-23.53zm-75.593-41.189q-.57-.923-1.111-1.856l-.661-1.14-39.249 54.348.384.506a88 88 0 0 0 2.895 3.612l.733.866 37.297-55.868zm99.646 52.771.395-.503-9.046-12.767-.54.105q-.892.172-1.78.326l-1.316.225 10.313 15.063.722-.884q.637-.78 1.252-1.565m-103.402-59.512a72 72 0 0 1-.941-1.938l-.531-1.131-44.55 46.752.263.536a87 87 0 0 0 2.228 4.24l.589 1.052 43.205-48.993zm112.617 44.955-2.923-3.147-.54.209c-.498.192-1.003.384-1.505.571l-1.721.662 4.382 5.78c.267-.492 2.055-3.582 2.307-4.075m-115.592-51.595a83 83 0 0 1-.769-2l-.411-1.112-47.577 38.115.149.544a87 87 0 0 0 1.443 4.698l.408 1.21 46.982-40.89zm-2.256-6.382a86 86 0 0 1-.597-2.013l-.305-1.074-48.343 28.938.049.537a87 87 0 0 0 .596 4.951l.198 1.325 48.592-32.049zm-1.651-6.103a78 78 0 0 1-.446-2.041l-.207-1.03-46.959 19.984-.041.517a82 82 0 0 0-.246 4.985l-.025 1.389 48.078-23.136zm-1.158-5.935a71 71 0 0 1-.311-2.104l-.128-.971-43.7 11.885-.12.491a87 87 0 0 0-1.032 4.835l-.259 1.412 45.668-14.822zm-.731-5.847a64 64 0 0 1-.17-2.185l-.056-.916-38.984 5.076-.188.459a85 85 0 0 0-1.724 4.54l-.479 1.385 41.676-7.575zm-.137-14.038.057-.797-26.965-3.833-.304.388a85 85 0 0 0-2.714 3.664l-.855 1.218 30.608 2.651.036-.896c.031-.799.08-1.595.137-2.395m.627-5.962.104-.74-20.575-5.849-.355.357a85 85 0 0 0-2.996 3.166l-.98 1.089 24.386 5.445.103-.952q.135-1.261.313-2.516m1.064-6.024.148-.684-14.451-6.339-.404.326a86 86 0 0 0-3.156 2.677l-1.07.949 18.235 6.729.178-1.008q.235-1.327.52-2.65m1.549-6.15.185-.629-8.844-5.428-.453.296a83 83 0 0 0-3.242 2.234l-1.115.806 12.435 6.6.265-1.06q.355-1.415.769-2.819m2.123-6.375.218-.576-3.93-3.224-.501.264a83 83 0 0 0-3.303 1.843l-1.135.667 7.203 5.169.366-1.103a76 76 0 0 1 1.082-3.04m1.355-3.38q.32-.761.664-1.521l.934-2.067-2.065.934c-.519.235-1.043.476-1.563.722l-1.133.537 2.687 2.537zm-6.917 36.114q-.024-1.152-.023-2.3v-.852l-33.239-.196-.251.42c-.043.071-.046.077-.067.114l-.188.321-.001.002-.001.002a87 87 0 0 0-2.036 3.705l-.682 1.318 36.507-1.698z"/><path fill="url(#d)" d="M180.147 258.647q.747.837 1.517 1.658l.348.372-20.935 63.261-.89-.462a89 89 0 0 1-3.671-2.018l-.621-.362 23.303-63.511z"/><path fill="#fff" d="M180.147 258.647q.747.837 1.517 1.658l.348.372-20.935 63.261-.89-.462a89 89 0 0 1-3.671-2.018l-.621-.362 23.303-63.511z"/><path fill="url(#e)" d="M273.726 202.684a64 64 0 0 1-1.271 1.896l-.848 1.223 61.065 4.927.1-.814q.222-1.81.361-3.623l.067-.875-59.205-3.151zm5.483-9.715a67 67 0 0 1-.752 1.52l-.681 1.329 55.413-3.06-.074-.878a85 85 0 0 0-.338-3.313l-.101-.814-53.011 4.258-.212.446zm-11.942 18.391a87 87 0 0 1-1.506 1.724l-.981 1.093 63.81 14.019.243-.731a92 92 0 0 0 1.161-3.749l.259-.903-62.665-11.831zm16.563-30.105a62 62 0 0 1-.51 1.569l-.474 1.396 47.243-9.139-.265-.904a83 83 0 0 0-.899-2.879l-.242-.729-44.545 9.679-.146.481zm3.007-13.106q-.115.78-.25 1.556l-.247 1.422 37.197-12.652-.469-.888a88 88 0 0 0-1.291-2.35l-.357-.628-34.437 12.511-.072.51zm-33.338 56.285q-.873.67-1.761 1.307l-1.117.804 60.054 32.021.448-.502a86 86 0 0 0 2.861-3.388l.669-.836-60.734-29.728zm34.281-71.005c.015.652.007 2.421 0 3.092l-.014 1.461 26.11-14.319-.653-.798a74 74 0 0 0-1.519-1.793l-.443-.509-23.493 12.335zm-41.123 75.715c-.616.38-1.231.751-1.853 1.112l-1.138.662 54.261 39.312.505-.384a88 88 0 0 0 3.606-2.9l.864-.734-55.778-37.357zm52.687-99.807-.503-.395-12.746 9.06.104.541a91 91 0 0 1 .325 1.783l.226 1.318 15.038-10.329-.882-.723a116 116 0 0 0-1.562-1.255m-59.418 103.568q-.96.487-1.934.943l-1.129.532 46.676 44.621.536-.263a88 88 0 0 0 4.233-2.231l1.051-.59-48.915-43.275zm44.883-112.798-3.142 2.928.209.541c.193.498.383 1.005.57 1.507l.661 1.724 5.771-4.389c-.491-.268-3.576-2.058-4.069-2.311m-51.512 115.779q-.992.397-1.997.769l-1.109.412 38.053 47.654.543-.15c1.575-.435 3.14-.92 4.691-1.445l1.208-.408-40.824-47.058zm-6.371 2.259q-1.004.312-2.01.598l-1.072.305 28.891 48.421.536-.049a88 88 0 0 0 4.943-.597l1.324-.198-31.998-48.671zm-6.093 1.653c-.682.158-1.361.31-2.039.447l-1.028.207 19.952 47.035.517.041q2.483.2 4.976.246l1.387.025-23.098-48.155zm-5.926 1.161a74 74 0 0 1-2.101.311l-.969.128 11.866 43.77.49.12q2.402.586 4.827 1.034l1.41.26-14.799-45.742zm-5.837.731c-.729.07-1.454.127-2.183.171l-.914.056 5.068 39.046.458.189a84 84 0 0 0 4.533 1.726l1.383.481-7.563-41.744zm-14.017.137-.795-.057-3.827 27.009.387.305a86 86 0 0 0 3.659 2.718l1.216.856 2.647-30.657-.895-.036a74 74 0 0 1-2.392-.138m-5.952-.627-.739-.105-5.839 20.608.356.356a86 86 0 0 0 3.161 3.001l1.088.982 5.436-24.425-.95-.104a78 78 0 0 1-2.513-.313m-6.014-1.066-.683-.148-6.329 14.474.325.405a89 89 0 0 0 2.673 3.161l.948 1.071 6.718-18.264-1.007-.179a71 71 0 0 1-2.645-.52m-6.14-1.552-.628-.185-5.419 8.859.295.453a83 83 0 0 0 2.23 3.247l.805 1.117 6.589-12.454-1.058-.266a72 72 0 0 1-2.814-.771m-6.365-2.126-.575-.219-3.219 3.937.264.502a83 83 0 0 0 1.84 3.308l.666 1.137 5.161-7.214-1.101-.367a75 75 0 0 1-3.036-1.084m-3.374-1.358a57 57 0 0 1-1.519-.664l-2.064-.936.933 2.069c.234.519.475 1.044.721 1.565l.535 1.135 2.533-2.691zm36.056 6.929q-1.15.024-2.297.023h-.85l-.196 33.293.419.251.114.067.321.188.002.002.002.001a89 89 0 0 0 3.699 2.039l1.316.682-1.696-36.565z"/><path fill="#fff" d="M273.726 202.684a64 64 0 0 1-1.271 1.896l-.848 1.223 61.065 4.927.1-.814q.222-1.81.361-3.623l.067-.875-59.205-3.151zm5.483-9.715a67 67 0 0 1-.752 1.52l-.681 1.329 55.413-3.06-.074-.878a85 85 0 0 0-.338-3.313l-.101-.814-53.011 4.258-.212.446zm-11.942 18.391a87 87 0 0 1-1.506 1.724l-.981 1.093 63.81 14.019.243-.731a92 92 0 0 0 1.161-3.749l.259-.903-62.665-11.831zm16.563-30.105a62 62 0 0 1-.51 1.569l-.474 1.396 47.243-9.139-.265-.904a83 83 0 0 0-.899-2.879l-.242-.729-44.545 9.679-.146.481zm3.007-13.106q-.115.78-.25 1.556l-.247 1.422 37.197-12.652-.469-.888a88 88 0 0 0-1.291-2.35l-.357-.628-34.437 12.511-.072.51zm-33.338 56.285q-.873.67-1.761 1.307l-1.117.804 60.054 32.021.448-.502a86 86 0 0 0 2.861-3.388l.669-.836-60.734-29.728zm34.281-71.005c.015.652.007 2.421 0 3.092l-.014 1.461 26.11-14.319-.653-.798a74 74 0 0 0-1.519-1.793l-.443-.509-23.493 12.335zm-41.123 75.715c-.616.38-1.231.751-1.853 1.112l-1.138.662 54.261 39.312.505-.384a88 88 0 0 0 3.606-2.9l.864-.734-55.778-37.357zm52.687-99.807-.503-.395-12.746 9.06.104.541a91 91 0 0 1 .325 1.783l.226 1.318 15.038-10.329-.882-.723a116 116 0 0 0-1.562-1.255m-59.418 103.568q-.96.487-1.934.943l-1.129.532 46.676 44.621.536-.263a88 88 0 0 0 4.233-2.231l1.051-.59-48.915-43.275zm44.883-112.798-3.142 2.928.209.541c.193.498.383 1.005.57 1.507l.661 1.724 5.771-4.389c-.491-.268-3.576-2.058-4.069-2.311m-51.512 115.779q-.992.397-1.997.769l-1.109.412 38.053 47.654.543-.15c1.575-.435 3.14-.92 4.691-1.445l1.208-.408-40.824-47.058zm-6.371 2.259q-1.004.312-2.01.598l-1.072.305 28.891 48.421.536-.049a88 88 0 0 0 4.943-.597l1.324-.198-31.998-48.671zm-6.093 1.653c-.682.158-1.361.31-2.039.447l-1.028.207 19.952 47.035.517.041q2.483.2 4.976.246l1.387.025-23.098-48.155zm-5.926 1.161a74 74 0 0 1-2.101.311l-.969.128 11.866 43.77.49.12q2.402.586 4.827 1.034l1.41.26-14.799-45.742zm-5.837.731c-.729.07-1.454.127-2.183.171l-.914.056 5.068 39.046.458.189a84 84 0 0 0 4.533 1.726l1.383.481-7.563-41.744zm-14.017.137-.795-.057-3.827 27.009.387.305a86 86 0 0 0 3.659 2.718l1.216.856 2.647-30.657-.895-.036a74 74 0 0 1-2.392-.138m-5.952-.627-.739-.105-5.839 20.608.356.356a86 86 0 0 0 3.161 3.001l1.088.982 5.436-24.425-.95-.104a78 78 0 0 1-2.513-.313m-6.014-1.066-.683-.148-6.329 14.474.325.405a89 89 0 0 0 2.673 3.161l.948 1.071 6.718-18.264-1.007-.179a71 71 0 0 1-2.645-.52m-6.14-1.552-.628-.185-5.419 8.859.295.453a83 83 0 0 0 2.23 3.247l.805 1.117 6.589-12.454-1.058-.266a72 72 0 0 1-2.814-.771m-6.365-2.126-.575-.219-3.219 3.937.264.502a83 83 0 0 0 1.84 3.308l.666 1.137 5.161-7.214-1.101-.367a75 75 0 0 1-3.036-1.084m-3.374-1.358a57 57 0 0 1-1.519-.664l-2.064-.936.933 2.069c.234.519.475 1.044.721 1.565l.535 1.135 2.533-2.691zm36.056 6.929q-1.15.024-2.297.023h-.85l-.196 33.293.419.251.114.067.321.188.002.002.002.001a89 89 0 0 0 3.699 2.039l1.316.682-1.696-36.565z"/><path fill="url(#f)" d="M258.766 220.085q.835-.748 1.656-1.519l.371-.349 63.16 20.968-.461.891a88 88 0 0 1-2.016 3.678l-.36.622-63.41-23.341z"/><path fill="#fff" d="M258.766 220.085q.835-.748 1.656-1.519l.371-.349 63.16 20.968-.461.891a88 88 0 0 1-2.016 3.678l-.36.622-63.41-23.341z"/><path fill="url(#g)" d="M202.48 126.369q.954.618 1.893 1.273l1.221.85 4.92-61.163-.813-.1a78 78 0 0 0-3.618-.362l-.873-.067-3.146 59.3zm-9.699-5.491c.509.246 1.015.494 1.518.753l1.326.682-3.055-55.502-.876.074a85 85 0 0 0-3.308.339l-.813.1 4.251 53.097.446.212zm18.361 11.961c.581.496 1.152.996 1.721 1.508l1.092.983 13.996-63.913-.729-.243a93 93 0 0 0-3.743-1.163l-.902-.26-11.812 62.766zm-30.057-16.59q.786.246 1.567.511l1.394.475-9.125-47.319-.902.265q-1.445.424-2.874.901l-.729.243 9.664 44.616.48.146zm-13.084-3.011q.777.115 1.553.25l1.419.248-12.631-37.258-.887.47q-1.182.629-2.346 1.294l-.627.357 12.491 34.492.51.072zm56.194 33.391q.667.874 1.306 1.764l.802 1.119 31.97-60.151-.502-.448a85 85 0 0 0-3.383-2.866l-.834-.67-29.681 60.831zm-70.891-34.336c.651-.015 2.418-.007 3.087 0l1.459.014-14.296-26.152-.797.654a74 74 0 0 0-1.79 1.521l-.508.445 12.315 23.53zm75.593 41.189c.38.618.75 1.233 1.111 1.856l.661 1.14 39.249-54.348-.384-.506a88 88 0 0 0-2.895-3.612l-.733-.866-37.297 55.868zm-99.646-52.771-.395.503 9.046 12.767.54-.104a83 83 0 0 1 1.78-.326l1.316-.226-10.313-15.063-.722.884q-.637.78-1.252 1.565m103.402 59.513q.485.961.941 1.937l.531 1.131 44.55-46.752-.263-.536a87 87 0 0 0-2.228-4.24l-.589-1.052-43.205 48.993zm-112.617-44.956 2.923 3.148.54-.209c.498-.193 1.003-.385 1.505-.572l1.721-.662-4.382-5.78c-.267.492-2.055 3.582-2.307 4.075m115.592 51.595q.397.995.769 2l.411 1.112 47.577-38.114-.149-.544a86 86 0 0 0-1.443-4.699l-.408-1.21-46.982 40.89zm2.256 6.382c.207.668.407 1.342.597 2.013l.305 1.074 48.343-28.938-.049-.537a87 87 0 0 0-.596-4.951l-.198-1.325-48.592 32.049zm1.651 6.103c.157.683.309 1.362.446 2.041l.207 1.03 46.959-19.984.041-.517c.131-1.658.216-3.32.246-4.985l.025-1.389-48.078 23.136zm1.158 5.935q.171 1.05.311 2.104l.128.971 43.7-11.885.12-.491a87 87 0 0 0 1.032-4.835l.259-1.412-45.668 14.823zm.731 5.847q.104 1.093.17 2.185l.056.916 38.984-5.076.188-.459a85 85 0 0 0 1.724-4.54l.479-1.385-41.676 7.575zm.137 14.039-.057.796 26.965 3.834.304-.389a85 85 0 0 0 2.714-3.664l.855-1.218-30.608-2.651-.036.896c-.031.799-.08 1.595-.137 2.396m-.627 5.961-.104.74 20.575 5.849.355-.357a86 86 0 0 0 2.996-3.165l.98-1.09-24.386-5.445-.103.952q-.135 1.261-.313 2.516m-1.064 6.024-.148.684 14.451 6.339.404-.326a85 85 0 0 0 3.156-2.677l1.07-.949-18.235-6.728-.178 1.007a74 74 0 0 1-.52 2.65m-1.549 6.15-.185.629 8.844 5.428.453-.296a83 83 0 0 0 3.242-2.233l1.115-.807-12.435-6.599-.265 1.059a72 72 0 0 1-.769 2.819m-2.123 6.375-.218.576 3.93 3.224.501-.264a83 83 0 0 0 3.303-1.843l1.135-.667-7.203-5.169-.366 1.103a76 76 0 0 1-1.082 3.04m-1.355 3.38a58 58 0 0 1-.664 1.521l-.934 2.067 2.065-.934c.519-.235 1.043-.476 1.563-.722l1.133-.536-2.687-2.538zm6.917-36.114q.023 1.152.023 2.3v.852l33.239.196.251-.42.067-.114.188-.321.001-.002.001-.002a87 87 0 0 0 2.036-3.705l.682-1.318-36.507 1.698z"/><path fill="#fff" d="M202.48 126.369q.954.618 1.893 1.273l1.221.85 4.92-61.163-.813-.1a78 78 0 0 0-3.618-.362l-.873-.067-3.146 59.3zm-9.699-5.491c.509.246 1.015.494 1.518.753l1.326.682-3.055-55.502-.876.074a85 85 0 0 0-3.308.339l-.813.1 4.251 53.097.446.212zm18.361 11.961c.581.496 1.152.996 1.721 1.508l1.092.983 13.996-63.913-.729-.243a93 93 0 0 0-3.743-1.163l-.902-.26-11.812 62.766zm-30.057-16.59q.786.246 1.567.511l1.394.475-9.125-47.319-.902.265q-1.445.424-2.874.901l-.729.243 9.664 44.616.48.146zm-13.084-3.011q.777.115 1.553.25l1.419.248-12.631-37.258-.887.47q-1.182.629-2.346 1.294l-.627.357 12.491 34.492.51.072zm56.194 33.391q.667.874 1.306 1.764l.802 1.119 31.97-60.151-.502-.448a85 85 0 0 0-3.383-2.866l-.834-.67-29.681 60.831zm-70.891-34.336c.651-.015 2.418-.007 3.087 0l1.459.014-14.296-26.152-.797.654a74 74 0 0 0-1.79 1.521l-.508.445 12.315 23.53zm75.593 41.189c.38.618.75 1.233 1.111 1.856l.661 1.14 39.249-54.348-.384-.506a88 88 0 0 0-2.895-3.612l-.733-.866-37.297 55.868zm-99.646-52.771-.395.503 9.046 12.767.54-.104a83 83 0 0 1 1.78-.326l1.316-.226-10.313-15.063-.722.884q-.637.78-1.252 1.565m103.402 59.513q.485.961.941 1.937l.531 1.131 44.55-46.752-.263-.536a87 87 0 0 0-2.228-4.24l-.589-1.052-43.205 48.993zm-112.617-44.956 2.923 3.148.54-.209c.498-.193 1.003-.385 1.505-.572l1.721-.662-4.382-5.78c-.267.492-2.055 3.582-2.307 4.075m115.592 51.595q.397.995.769 2l.411 1.112 47.577-38.114-.149-.544a86 86 0 0 0-1.443-4.699l-.408-1.21-46.982 40.89zm2.256 6.382c.207.668.407 1.342.597 2.013l.305 1.074 48.343-28.938-.049-.537a87 87 0 0 0-.596-4.951l-.198-1.325-48.592 32.049zm1.651 6.103c.157.683.309 1.362.446 2.041l.207 1.03 46.959-19.984.041-.517c.131-1.658.216-3.32.246-4.985l.025-1.389-48.078 23.136zm1.158 5.935q.171 1.05.311 2.104l.128.971 43.7-11.885.12-.491a87 87 0 0 0 1.032-4.835l.259-1.412-45.668 14.823zm.731 5.847q.104 1.093.17 2.185l.056.916 38.984-5.076.188-.459a85 85 0 0 0 1.724-4.54l.479-1.385-41.676 7.575zm.137 14.039-.057.796 26.965 3.834.304-.389a85 85 0 0 0 2.714-3.664l.855-1.218-30.608-2.651-.036.896c-.031.799-.08 1.595-.137 2.396m-.627 5.961-.104.74 20.575 5.849.355-.357a86 86 0 0 0 2.996-3.165l.98-1.09-24.386-5.445-.103.952q-.135 1.261-.313 2.516m-1.064 6.024-.148.684 14.451 6.339.404-.326a85 85 0 0 0 3.156-2.677l1.07-.949-18.235-6.728-.178 1.007a74 74 0 0 1-.52 2.65m-1.549 6.15-.185.629 8.844 5.428.453-.296a83 83 0 0 0 3.242-2.233l1.115-.807-12.435-6.599-.265 1.059a72 72 0 0 1-.769 2.819m-2.123 6.375-.218.576 3.93 3.224.501-.264a83 83 0 0 0 3.303-1.843l1.135-.667-7.203-5.169-.366 1.103a76 76 0 0 1-1.082 3.04m-1.355 3.38a58 58 0 0 1-.664 1.521l-.934 2.067 2.065-.934c.519-.235 1.043-.476 1.563-.722l1.133-.536-2.687-2.538zm6.917-36.114q.023 1.152.023 2.3v.852l33.239.196.251-.42.067-.114.188-.321.001-.002.001-.002a87 87 0 0 0 2.036-3.705l.682-1.318-36.507 1.698z"/><path fill="url(#h)" d="M219.853 141.353a95 95 0 0 0-1.517-1.658l-.348-.372 20.935-63.261.889.462a88 88 0 0 1 3.672 2.019l.621.36-23.303 63.513z"/><path fill="#fff" d="M219.853 141.353a95 95 0 0 0-1.517-1.658l-.348-.372 20.935-63.261.889.462a88 88 0 0 1 3.672 2.019l.621.36-23.303 63.513z"/><path fill="url(#i)" d="M126.274 197.316a64 64 0 0 1 1.271-1.896l.848-1.223-61.065-4.927-.1.814a79 79 0 0 0-.361 3.623l-.067.875 59.205 3.151zm-5.483 9.715q.367-.766.752-1.52l.681-1.329-55.413 3.06.074.878a86 86 0 0 0 .338 3.313l.1.814 53.012-4.258.212-.446zm11.942-18.391c.495-.581.994-1.154 1.506-1.724l.981-1.093-63.81-14.019-.243.731a93 93 0 0 0-1.161 3.749l-.26.903 62.666 11.831zm-16.563 30.105a64 64 0 0 1 .51-1.569l.474-1.396-47.243 9.14.265.903q.423 1.447.9 2.879l.241.729 44.545-9.679.146-.481zm-3.007 13.106q.115-.779.25-1.556l.247-1.422-37.197 12.652.47.889c.416.788.85 1.573 1.29 2.349l.357.629 34.437-12.512.072-.51zm33.338-56.285q.873-.668 1.761-1.307l1.117-.804-60.054-32.021-.448.502a86 86 0 0 0-2.86 3.388l-.67.836 60.734 29.728zm-34.281 71.005c-.015-.652-.007-2.421 0-3.092l.014-1.461-26.11 14.319.653.798a74 74 0 0 0 1.519 1.793l.443.509 23.493-12.335zm41.123-75.715c.616-.38 1.231-.751 1.853-1.112l1.138-.662-54.261-39.312-.505.385a87 87 0 0 0-3.606 2.899l-.864.734 55.778 37.357zm-52.687 99.807.503.396 12.746-9.061-.104-.541a83 83 0 0 1-.325-1.783l-.226-1.318-15.038 10.329.882.723q.78.638 1.562 1.255m59.418-103.568a69 69 0 0 1 1.934-.943l1.129-.532-46.676-44.621-.536.263a88 88 0 0 0-4.233 2.231l-1.051.59 48.915 43.275zm-44.883 112.798 3.142-2.928-.209-.541a117 117 0 0 1-.57-1.507l-.661-1.724-5.771 4.389c.491.268 3.576 2.058 4.069 2.311m51.512-115.779q.992-.397 1.997-.769l1.109-.412-38.053-47.654-.543.15c-1.575.435-3.14.92-4.691 1.445l-1.208.408 40.824 47.058zm6.371-2.259q1.004-.311 2.01-.598l1.072-.305-28.891-48.421-.536.049a88 88 0 0 0-4.943.597l-1.324.199 31.998 48.67zm6.093-1.653c.682-.158 1.361-.31 2.039-.447l1.028-.207-19.952-47.034-.517-.042a82 82 0 0 0-4.976-.246l-1.387-.025 23.098 48.155zm5.926-1.161a70 70 0 0 1 2.101-.31l.969-.129-11.866-43.77-.49-.12a87 87 0 0 0-4.827-1.034l-1.41-.26 14.799 45.742zm5.837-.731c.729-.07 1.454-.127 2.183-.171l.914-.056-5.068-39.046-.458-.189a84 84 0 0 0-4.533-1.726l-1.383-.481 7.563 41.744zm14.017-.137.795.057 3.827-27.009-.387-.305a86 86 0 0 0-3.659-2.718l-1.216-.856-2.647 30.657.895.036q1.195.05 2.392.138m5.952.627.739.105 5.839-20.608-.356-.356a86 86 0 0 0-3.161-3.001l-1.088-.982-5.436 24.425.95.104q1.26.136 2.513.313m6.014 1.066.683.148 6.329-14.474-.325-.405a90 90 0 0 0-2.673-3.161l-.948-1.071-6.718 18.264 1.007.179q1.324.235 2.645.52m6.14 1.552.628.185 5.419-8.859-.295-.453a83 83 0 0 0-2.23-3.247l-.805-1.117-6.589 12.455 1.058.265q1.411.356 2.814.771m6.365 2.126.575.219 3.219-3.937-.264-.502a83 83 0 0 0-1.84-3.308l-.666-1.137-5.161 7.214 1.101.367q1.525.507 3.036 1.084m3.374 1.358a57 57 0 0 1 1.519.664l2.064.936-.933-2.069a98 98 0 0 0-.721-1.565l-.535-1.135-2.534 2.692zm-36.056-6.928q1.15-.025 2.297-.024h.85l.196-33.293-.419-.251-.114-.067-.321-.188-.002-.002-.002-.001a88 88 0 0 0-3.699-2.038l-1.316-.683 1.696 36.565z"/><path fill="#fff" d="M126.274 197.316a64 64 0 0 1 1.271-1.896l.848-1.223-61.065-4.927-.1.814a79 79 0 0 0-.361 3.623l-.067.875 59.205 3.151zm-5.483 9.715q.367-.766.752-1.52l.681-1.329-55.413 3.06.074.878a86 86 0 0 0 .338 3.313l.1.814 53.012-4.258.212-.446zm11.942-18.391c.495-.581.994-1.154 1.506-1.724l.981-1.093-63.81-14.019-.243.731a93 93 0 0 0-1.161 3.749l-.26.903 62.666 11.831zm-16.563 30.105a64 64 0 0 1 .51-1.569l.474-1.396-47.243 9.14.265.903q.423 1.447.9 2.879l.241.729 44.545-9.679.146-.481zm-3.007 13.106q.115-.779.25-1.556l.247-1.422-37.197 12.652.47.889c.416.788.85 1.573 1.29 2.349l.357.629 34.437-12.512.072-.51zm33.338-56.285q.873-.668 1.761-1.307l1.117-.804-60.054-32.021-.448.502a86 86 0 0 0-2.86 3.388l-.67.836 60.734 29.728zm-34.281 71.005c-.015-.652-.007-2.421 0-3.092l.014-1.461-26.11 14.319.653.798a74 74 0 0 0 1.519 1.793l.443.509 23.493-12.335zm41.123-75.715c.616-.38 1.231-.751 1.853-1.112l1.138-.662-54.261-39.312-.505.385a87 87 0 0 0-3.606 2.899l-.864.734 55.778 37.357zm-52.687 99.807.503.396 12.746-9.061-.104-.541a83 83 0 0 1-.325-1.783l-.226-1.318-15.038 10.329.882.723q.78.638 1.562 1.255m59.418-103.568a69 69 0 0 1 1.934-.943l1.129-.532-46.676-44.621-.536.263a88 88 0 0 0-4.233 2.231l-1.051.59 48.915 43.275zm-44.883 112.798 3.142-2.928-.209-.541a117 117 0 0 1-.57-1.507l-.661-1.724-5.771 4.389c.491.268 3.576 2.058 4.069 2.311m51.512-115.779q.992-.397 1.997-.769l1.109-.412-38.053-47.654-.543.15c-1.575.435-3.14.92-4.691 1.445l-1.208.408 40.824 47.058zm6.371-2.259q1.004-.311 2.01-.598l1.072-.305-28.891-48.421-.536.049a88 88 0 0 0-4.943.597l-1.324.199 31.998 48.67zm6.093-1.653c.682-.158 1.361-.31 2.039-.447l1.028-.207-19.952-47.034-.517-.042a82 82 0 0 0-4.976-.246l-1.387-.025 23.098 48.155zm5.926-1.161a70 70 0 0 1 2.101-.31l.969-.129-11.866-43.77-.49-.12a87 87 0 0 0-4.827-1.034l-1.41-.26 14.799 45.742zm5.837-.731c.729-.07 1.454-.127 2.183-.171l.914-.056-5.068-39.046-.458-.189a84 84 0 0 0-4.533-1.726l-1.383-.481 7.563 41.744zm14.017-.137.795.057 3.827-27.009-.387-.305a86 86 0 0 0-3.659-2.718l-1.216-.856-2.647 30.657.895.036q1.195.05 2.392.138m5.952.627.739.105 5.839-20.608-.356-.356a86 86 0 0 0-3.161-3.001l-1.088-.982-5.436 24.425.95.104q1.26.136 2.513.313m6.014 1.066.683.148 6.329-14.474-.325-.405a90 90 0 0 0-2.673-3.161l-.948-1.071-6.718 18.264 1.007.179q1.324.235 2.645.52m6.14 1.552.628.185 5.419-8.859-.295-.453a83 83 0 0 0-2.23-3.247l-.805-1.117-6.589 12.455 1.058.265q1.411.356 2.814.771m6.365 2.126.575.219 3.219-3.937-.264-.502a83 83 0 0 0-1.84-3.308l-.666-1.137-5.161 7.214 1.101.367q1.525.507 3.036 1.084m3.374 1.358a57 57 0 0 1 1.519.664l2.064.936-.933-2.069a98 98 0 0 0-.721-1.565l-.535-1.135-2.534 2.692zm-36.056-6.928q1.15-.025 2.297-.024h.85l.196-33.293-.419-.251-.114-.067-.321-.188-.002-.002-.002-.001a88 88 0 0 0-3.699-2.038l-1.316-.683 1.696 36.565z"/><path fill="url(#j)" d="M141.234 179.915q-.835.749-1.656 1.519l-.371.349-63.16-20.968.461-.891a88 88 0 0 1 2.016-3.678l.36-.622 63.41 23.341z"/><path fill="#fff" d="M141.234 179.915q-.835.749-1.656 1.519l-.371.349-63.16-20.968.461-.891a88 88 0 0 1 2.016-3.678l.36-.622 63.41 23.341z"/></g><defs><linearGradient id="c" x1="200" x2="200" y1="66.8" y2="333.199" gradientUnits="userSpaceOnUse"><stop stop-color="#C1B2EC"/><stop offset=".5" stop-color="#DED7F5"/><stop offset="1" stop-color="#F2EFFB"/></linearGradient><linearGradient id="d" x1="200" x2="200" y1="66.8" y2="333.199" gradientUnits="userSpaceOnUse"><stop stop-color="#C1B2EC"/><stop offset=".5" stop-color="#DED7F5"/><stop offset="1" stop-color="#F2EFFB"/></linearGradient><linearGradient id="e" x1="200" x2="200" y1="66.8" y2="333.199" gradientUnits="userSpaceOnUse"><stop stop-color="#C1B2EC"/><stop offset=".5" stop-color="#DED7F5"/><stop offset="1" stop-color="#F2EFFB"/></linearGradient><linearGradient id="f" x1="200" x2="200" y1="66.8" y2="333.199" gradientUnits="userSpaceOnUse"><stop stop-color="#C1B2EC"/><stop offset=".5" stop-color="#DED7F5"/><stop offset="1" stop-color="#F2EFFB"/></linearGradient><linearGradient id="g" x1="200" x2="200" y1="66.8" y2="333.199" gradientUnits="userSpaceOnUse"><stop stop-color="#C1B2EC"/><stop offset=".5" stop-color="#DED7F5"/><stop offset="1" stop-color="#F2EFFB"/></linearGradient><linearGradient id="h" x1="200" x2="200" y1="66.8" y2="333.199" gradientUnits="userSpaceOnUse"><stop stop-color="#C1B2EC"/><stop offset=".5" stop-color="#DED7F5"/><stop offset="1" stop-color="#F2EFFB"/></linearGradient><linearGradient id="i" x1="200" x2="200" y1="66.8" y2="333.199" gradientUnits="userSpaceOnUse"><stop stop-color="#C1B2EC"/><stop offset=".5" stop-color="#DED7F5"/><stop offset="1" stop-color="#F2EFFB"/></linearGradient><linearGradient id="j" x1="200" x2="200" y1="66.8" y2="333.199" gradientUnits="userSpaceOnUse"><stop stop-color="#C1B2EC"/><stop offset=".5" stop-color="#DED7F5"/><stop offset="1" stop-color="#F2EFFB"/></linearGradient><radialGradient id="a" cx="0" cy="0" r="1" gradientTransform="rotate(90 0 200)scale(200)" gradientUnits="userSpaceOnUse"><stop stop-color="#502C8B"/><stop offset="1" stop-color="#683BB3"/></radialGradient><filter id="b" width="267.2" height="267.2" x="66.8" y="66.8" color-interpolation-filters="sRGB" filterUnits="userSpaceOnUse"><feFlood flood-opacity="0" result="BackgroundImageFix"/><feBlend in="SourceGraphic" in2="BackgroundImageFix" result="shape"/><feColorMatrix in="SourceAlpha" result="hardAlpha" values="0 0 0 0 0 0 0 0 0 0 0 0 0 0 0 0 0 0 127 0"/><feOffset dx=".8" dy=".8"/><feGaussianBlur stdDeviation="1.1"/><feComposite in2="hardAlpha" k2="-1" k3="1" operator="arithmetic"/><feColorMatrix values="0 0 0 0 0.576471 0 0 0 0 0.447059 0 0 0 0 0.854902 0 0 0 0.5 0"/><feBlend in2="shape" result="effect1_innerShadow_180_324"/></filter></defs></svg>