<svg xmlns="http://www.w3.org/2000/svg" fill="none" viewBox="0 0 140 140"><path fill="#502c8b" fill-rule="evenodd" d="m68.7 108.7-1-.7-.6-.4-2.6 32.1h.4l1.9.3h.5l1.6-31.2zm5 2.9-.7-.4-.7-.4 1.6 29.2h.5l1.7-.2h.4l-2.2-28h-.2zm-9.6-6.3-.9-.8-.5-.5-7.4 33.6.4.1 2 .6.4.1 6.2-33zM80 114l-.8-.3-.7-.2 4.8 24.9.5-.2 1.5-.5h.3l-5-23.5-.3-.1zm7 1.6-.9-.1-.7-.2 6.6 19.6.5-.2 1.2-.7.3-.2-6.5-18.1H87zM57.2 98l-.7-.9-.4-.6-16.8 31.6.2.3 1.8 1.5.5.3 15.6-32zm37.2 18h-2.3l7.5 13.8.4-.3 1-.8.2-.2-6.5-12.4zM54.8 94.5l-.6-1-.3-.5-20.6 28.5.2.3 1.5 1.9.4.5L55 94.7zm52.4 27.8.2-.3-4.8-6.7h-.2l-1 .2-.7.2 5.4 7.9.4-.5zM52.8 90.9l-.5-1-.2-.6-23.4 24.6v.2l1.3 2.3.3.5L53 91.2zm59.2 23.6-1.5-1.6h-.3l-.8.4-.9.3 2.3 3zM51.3 87.3l-.4-1-.2-.6-25 20v.3l.8 2.5.2.6 24.7-21.5zM50 84.1l-.3-1.1-.2-.6-25.4 15.2v.3l.4 2.6v.7l25.6-16.8zm-.9-3.2-.2-1.1-.1-.6-24.7 10.5v.3l-.1 2.6v.8l25.2-12.2zm-.6-3.2-.1-1-.1-.6-23 6.3v.2l-.6 2.6-.1.7 24-7.8zm-.4-3V73l-20.6 2.7v.2l-1 2.4-.2.8 21.9-4zm0-7.4v-.4l-14.2-2-.1.2-1.5 1.9-.4.6L48 69v-.5zm.3-3.1v-.4l-10.8-3.1-.2.2-1.5 1.6-.5.6L48.3 66v-.5q0-.7.2-1.3M49 61l.1-.4-7.6-3.3-.2.2-1.6 1.4-.6.5 9.6 3.5v-.5zm.9-3.2v-.4l-4.6-2.8-.2.1-1.7 1.2-.6.4 6.5 3.5.2-.6zm1-3.4.2-.3-2-1.7-.3.1-1.8 1-.6.4 3.8 2.7.2-.6zm.7-1.8.3-.8.5-1-1 .4-.9.4-.6.3 1.4 1.3zm-3.6 19v-1.7H30.5l-.2.2v.2l-1.2 2-.3.6L48 72zm11.5 29.2.8.9.1.2-11 33.2-.4-.2-2-1-.3-.3L59 100.3z" clip-rule="evenodd"/><path fill="#502c8b" fill-rule="evenodd" d="m108.7 71.4-.6 1-.5.6 32.1 2.6v-.4l.3-1.9v-.5l-31.1-1.6zm3-5.1-.5.8-.3.7 29-1.6v-.5l-.1-1.7v-.4l-28 2.2v.2zm-6.3 9.7-.8.9-.6.6 33.6 7.3.1-.4.6-2 .2-.4-33-6.2zm8.6-16-.3.9-.3.7 24.9-4.8-.2-.5-.4-1.5-.2-.4-23.4 5.1v.3zm1.5-6.8-.1.8-.1.7 19.5-6.6-.2-.5-.7-1.2-.2-.4-18 6.6-.1.3zM98.1 82.8l-1 .7-.5.4 31.6 16.9.2-.3 1.5-1.8.4-.4-32-15.6zm18-37.3V48l13.7-7.5-.3-.4-.8-1-.2-.2-12.4 6.4zM94.5 85.3l-1 .6-.6.3 28.6 20.7.2-.2 2-1.5.4-.4-29.3-19.6zM122.2 33l-.3-.2-6.7 4.7.1.3.2 1v.6l8-5.4-.5-.4zM91 87.3l-1 .5-.6.3 24.5 23.4.3-.1 2.2-1.2.6-.3-25.7-22.7zM114.6 28l-1.7 1.6.1.2.3.8.4 1 3-2.4zM87.5 89l-1 .4-.6.2 20 25h.2l2.5-.8.6-.2-21.4-24.8zm-3.4 1-1 .4-.6.1L97.7 116h.3l2.6-.4h.7L84.5 89.8zM81 91l-1 .2h-.6L89.8 116h.3l2.6.1h.7L81.3 90.8zm-3 .5-1.2.2h-.5l6.3 23 .2.1 2.6.6.7.1-7.8-24zm-3.1.4-1.2.1h-.5l2.7 20.5.2.1 2.4 1 .8.2-4-22zm-7.4 0H67l-2 14.2.2.2 1.9 1.4.6.5L69.1 92h-.4zm-3.1-.3-.4-.1-3 10.8.1.2 1.7 1.6.5.5L66.1 92h-.5zM61 91h-.3l-3.4 7.5.2.2 1.4 1.7.5.6 3.5-9.6-.5-.1zm-3.2-.8-.3-.1-2.9 4.6.2.3 1.1 1.7.5.6 3.4-6.6-.5-.1zm-3.4-1.1-.3-.2-1.7 2.1.2.3q.4.9 1 1.7l.3.6 2.7-3.8-.6-.2zm-1.7-.8-.8-.3-1.1-.5.5 1 .4 1 .2.5 1.4-1.4zm19 3.7H70l-.1 17.5.2.1.2.2 2 1 .6.4-.8-19.2zm29-11.5 1-.8.1-.2 33.2 11-.2.5-1 1.9-.3.3L100.2 81z" clip-rule="evenodd"/><path fill="#502c8b" fill-rule="evenodd" d="m71.3 31.3 1 .7.6.4L75.5.3h-.4L73.2 0h-.5l-1.6 31.2zm-5-2.9.7.4.7.4L66.1 0h-.5L64 .2h-.4l2.2 28h.2zm9.6 6.3.9.8.5.5 7.4-33.6-.4-.1-2-.6-.4-.1-6.2 33zM60 26l.8.3.7.2-4.8-24.9-.5.2-1.5.5h-.3l5 23.5.3.1zm-7-1.6.9.1.7.2L48.1 5l-.5.2-1.2.7-.3.2 6.5 18.1h.3zM82.8 42l.7.9.4.6 16.8-31.6-.2-.3-1.8-1.5-.5-.3-15.6 32zM45.5 24h2.3l-7.5-13.8-.4.3-1 .8-.2.2L45.2 24zm39.7 21.6.6 1 .3.5 20.6-28.5-.2-.3-1.5-1.9-.4-.5L85 45.3zM32.8 17.8l-.2.3 4.8 6.7h.3q.4-.2.9-.2l.7-.2-5.4-7.9-.4.5zm54.4 31.3.5 1 .2.6 23.4-24.6V26l-1.3-2.3-.3-.5L87 48.8zM28 25.5l1.5 1.6h.3l.8-.4.9-.3-2.3-3zm60.7 27.2.4 1 .2.6 25-20V34l-.8-2.5-.2-.6-24.7 21.5zm1.2 3.3.3 1.1.2.6 25.4-15.2V42l-.4-2.6v-.7L89.7 55.6zm.9 3.2.2 1.1.1.6 24.7-10.5V50l.1-2.6v-.8L90.8 58.8zm.6 3.2.1 1 .1.6 23-6.3v-.2l.6-2.6.1-.7-24 7.8zm.4 3V67l20.6-2.7v-.2l1-2.4.2-.8-21.9 4zm0 7.4v.4l14.2 2 .1-.2 1.5-1.9.4-.6L92 71v.5zm-.3 3.1v.4l10.8 3.1.2-.2 1.5-1.6.5-.6-12.8-3v.5q0 .7-.2 1.3M91 79l-.1.4 7.6 3.3.2-.2 1.6-1.4.6-.5-9.6-3.5v.5zm-.9 3.2v.4l4.6 2.8.2-.1 1.7-1.2.6-.4-6.5-3.5-.2.6zm-1 3.4-.2.3 2 1.7.3-.1 1.8-1 .6-.4-3.8-2.7-.2.6zm-.7 1.8-.3.8-.5 1 1-.4.9-.4.6-.3-1.4-1.3zm3.6-19V70h17.5l.2-.2v-.2l1.2-2 .3-.6L92 68zM80.4 39.2l-.8-.9-.1-.2L90.5 5l.4.2 2 1 .3.3-12.3 33.3z" clip-rule="evenodd"/><path fill="#502c8b" fill-rule="evenodd" d="m31.3 68.6.6-1 .5-.6L.3 64.4v.4L0 66.7v.5l31.1 1.6zm-3 5.1.5-.8.3-.7-29 1.6v2.6l28-2.2V74zm6.3-9.7.8-.9.6-.6-33.6-7.3-.1.4-.6 2-.2.4 33 6.2zM26 80l.3-.9.3-.7-25 4.6.2.5.4 1.5.2.4 23.4-5.1V80zm-1.5 6.8.1-.8.1-.7-19.5 6.6.2.5.7 1.2.2.4 18-6.6.1-.3zM42 57.3l1-.7.5-.5-31.6-16.8-.2.3-1.5 1.8-.4.4 32 15.6zM24 94.6V92l-13.7 7.5.3.4.8 1 .2.2L24 94.8zm21.6-39.8 1-.6.6-.3L18.5 33l-.2.2-2 1.5-.4.4 29.3 19.6zM17.8 107l.3.2 6.7-4.7-.1-.3-.2-1v-.6l-8 5.4.5.4zM49 52.7l1-.5.6-.3-24.5-23.4-.3.1-2.2 1.2-.6.3 25.7 22.7zM25.4 112l1.7-1.6-.1-.2-.3-.8-.4-1-3 2.4zm27.1-61 1-.4.6-.2-20-25h-.3l-2.4.8-.7.2 21.5 24.8zm3.3-1.1 1.1-.4.6-.1L42.3 24H42l-2.6.4h-.7l16.8 25.7zm3.3-1 1-.1.6-.2L50.2 24h-.3l-2.6-.1h-.7l12.1 25.3zm3-.5 1.2-.2h.5l-6.3-23-.2-.1-2.6-.6-.7-.1 7.8 24zm3.1-.4 1.2-.1h.5l-2.7-20.5-.2-.1-2.4-1-.8-.2 4 22zm7.4 0h.4l2-14.2-.2-.2-1.9-1.4-.6-.5L70.9 48h.4zm3.1.3.4.1 3-10.8-.1-.2-1.7-1.6-.5-.5L73.9 48h.5zm3.2.6h.3l3.4-7.5-.2-.2-1.4-1.7-.5-.6-3.5 9.6.5.1zm3.2.8.3.1 2.9-4.6-.2-.3-1.1-1.7-.5-.6-3.4 6.6.5.1zm3.4 1.1.3.2 1.7-2.1-.2-.3-1-1.7-.3-.6-2.7 3.8.6.2zm1.7.8.8.3 1.1.5-.5-1-.4-1-.2-.5-1.4 1.4zm-19-3.7H70l.1-17.5-.2-.1-.2-.2-2-1-.6-.4.8 19.2zm-29 11.5-1 .8-.1.2-33.2-11L5 49l1-1.9.3-.3L39.6 59z" clip-rule="evenodd"/></svg>
