<svg width="784" height="140" viewBox="0 0 784 140" fill="none" xmlns="http://www.w3.org/2000/svg">
<path fill-rule="evenodd" clip-rule="evenodd" d="M68.6964 108.695C68.3624 108.479 68.0309 108.255 67.7017 108.026L67.0602 107.579L64.4749 139.722L64.9021 139.775C65.5352 139.853 66.1689 139.916 66.8032 139.965L67.262 140L68.9154 108.836L68.6964 108.695ZM73.7938 111.581C73.526 111.451 73.2605 111.321 72.9962 111.185L72.2992 110.827L73.9044 139.994L74.3652 139.955C74.9438 139.907 75.5237 139.849 76.1034 139.777L76.5308 139.724L74.2965 111.821L74.0625 111.709L73.7938 111.581ZM64.1447 105.295C63.8395 105.034 63.5391 104.771 63.2401 104.502L62.6663 103.986L55.3109 137.573L55.6943 137.701C56.346 137.919 57.0025 138.123 57.6613 138.313L58.1354 138.449L64.3429 105.464L64.1447 105.295ZM79.9402 114.013C79.6647 113.927 79.3905 113.838 79.117 113.745L78.3844 113.495L83.1797 138.362L83.6537 138.223C84.1598 138.074 84.6636 137.917 85.1642 137.75L85.5469 137.622L80.4686 114.175L80.2161 114.098L79.9402 114.013ZM86.8164 115.596C86.544 115.555 86.2716 115.512 86.0002 115.464L85.2543 115.334L91.8924 134.914L92.3585 134.667C92.7721 134.447 93.184 134.219 93.5915 133.987L93.921 133.799L87.3564 115.673L87.0887 115.635L86.8164 115.596ZM57.2849 98.048C57.051 97.7419 56.8222 97.432 56.5988 97.1207L56.177 96.5329L39.3762 128.144L39.6396 128.379C40.2231 128.9 40.8154 129.401 41.4175 129.885L41.8558 130.238L57.4539 98.2691L57.2849 98.048ZM94.5398 116.092C94.1977 116.1 93.2694 116.096 92.9176 116.092L92.151 116.085L99.6638 129.828L100.083 129.485C100.4 129.224 100.714 128.957 101.024 128.685L101.29 128.452L94.8184 116.086L94.5398 116.092ZM54.8138 94.4463C54.6142 94.1219 54.4196 93.7983 54.23 93.471L53.8828 92.8719L33.2564 121.433L33.4581 121.699C33.9457 122.341 34.4528 122.975 34.9794 123.597L35.3645 124.052L54.965 94.6924L54.8138 94.4463ZM107.18 122.179L107.388 121.915L102.634 115.205L102.35 115.26C102.038 115.32 101.725 115.378 101.415 115.431L100.723 115.55L106.143 123.466L106.522 123.001C106.746 122.728 106.964 122.454 107.18 122.179ZM52.8402 90.9036C52.6697 90.5669 52.5055 90.2272 52.3453 89.8855L52.0665 89.2909L28.6542 113.86L28.7925 114.142C29.1613 114.894 29.5516 115.636 29.9632 116.37L30.2727 116.923L52.9783 91.1761L52.8402 90.9036ZM112.023 114.529L110.487 112.875L110.203 112.985C109.942 113.086 109.676 113.186 109.412 113.285L108.508 113.633L110.811 116.67C110.951 116.412 111.891 114.788 112.023 114.529ZM51.2763 87.4143C51.1375 87.0666 51.0029 86.7151 50.8726 86.3632L50.6564 85.7791L25.6534 105.809L25.732 106.095C25.9602 106.924 26.2144 107.748 26.4899 108.564L26.7044 109.2L51.3949 87.7113L51.2763 87.4143ZM50.0909 84.0604C49.982 83.7092 49.8773 83.3554 49.7771 83.0023L49.6171 82.4383L24.2115 97.6458L24.2373 97.9278C24.3167 98.797 24.4211 99.664 24.5504 100.53L24.6545 101.226L50.191 84.3836L50.0909 84.0604ZM49.2234 80.8534C49.1407 80.4944 49.0609 80.1373 48.9891 79.7804L48.8802 79.2392L24.2022 89.7412L24.1806 90.0131C24.1114 90.8845 24.0672 91.7577 24.0513 92.6326L24.038 93.3627L49.3042 81.2043L49.2234 80.8534ZM48.6146 77.7339C48.5547 77.3665 48.5003 76.9979 48.4515 76.6283L48.3841 76.1183L25.4186 82.3641L25.3558 82.622C25.1504 83.4643 24.97 84.3121 24.8134 85.1629L24.6769 85.9052L48.6768 78.1154L48.6146 77.7339ZM48.2309 74.6615C48.1943 74.2778 48.1644 73.8964 48.1412 73.5129L48.112 73.0318L27.625 75.6995L27.5257 75.9404C27.2014 76.7276 26.8984 77.5233 26.6202 78.3262L26.368 79.0541L48.2702 75.0732L48.2309 74.6615ZM48.1588 67.2838L48.1888 66.8651L34.0179 64.8506L33.8579 65.0547C33.3614 65.6876 32.8882 66.3299 32.4316 66.9805L31.9826 67.6202L48.0679 69.0136L48.0865 68.5425C48.1031 68.1229 48.1287 67.7044 48.1588 67.2838ZM48.488 64.1507L48.543 63.7619L37.7302 60.6882L37.5436 60.8756C37.0014 61.4202 36.4761 61.9752 35.9688 62.5394L35.4539 63.112L48.2694 65.9734L48.3236 65.4733C48.3714 65.0317 48.4258 64.5904 48.488 64.1507ZM49.0473 60.9852L49.1249 60.6254L41.5305 57.2942L41.3182 57.4655C40.7548 57.9199 40.2035 58.3898 39.6598 58.8725L39.0977 59.3714L48.6804 62.9072L48.7742 62.3775C48.8564 61.9133 48.9475 61.448 49.0473 60.9852ZM49.8614 57.753L49.9585 57.4224L45.3106 54.5702L45.0727 54.7256C44.4964 55.1019 43.9289 55.4947 43.3691 55.8994L42.783 56.323L49.3177 59.7914L49.4573 59.2344C49.5814 58.7387 49.7168 58.2457 49.8614 57.753ZM50.977 54.4029L51.0918 54.1001L49.0263 52.4059L48.7628 52.5449C48.1765 52.854 47.5987 53.1776 47.0273 53.5133L46.4306 53.8638L50.2159 56.5803L50.4082 56.0007C50.5858 55.4655 50.7758 54.9333 50.977 54.4029ZM51.6893 52.6268C51.8006 52.36 51.9178 52.0934 52.0379 51.8276L52.5288 50.7409L51.4436 51.2318C51.171 51.3552 50.8957 51.4821 50.6223 51.6114L50.0267 51.8933L51.439 53.2267L51.6893 52.6268ZM48.0543 71.6057C48.0454 71.2019 48.042 70.7986 48.042 70.3966V69.9492L30.5739 69.8461L30.4422 70.0667C30.4198 70.1043 30.4181 70.1072 30.4068 70.1266C30.3951 70.1467 30.3733 70.1843 30.308 70.2955L30.3074 70.2965L30.3068 70.2975C29.934 70.9401 29.5766 71.588 29.2371 72.2446L28.8788 72.9373L48.0639 72.0447L48.0543 71.6057Z" fill="#502C8B"/>
<path fill-rule="evenodd" clip-rule="evenodd" d="M59.5668 100.82C59.8287 101.114 60.0937 101.404 60.3637 101.692L60.5469 101.887L49.5451 135.133L49.0775 134.89C48.4288 134.553 47.7845 134.199 47.1481 133.829L46.8217 133.639L59.0682 100.262L59.5668 100.82Z" fill="#502C8B"/>
<path fill-rule="evenodd" clip-rule="evenodd" d="M108.745 71.4107C108.53 71.7452 108.306 72.0773 108.077 72.407L107.631 73.0495L139.722 75.6391L139.775 75.2111C139.854 74.577 139.916 73.9423 139.965 73.3069L140 72.8475L108.886 71.1914L108.745 71.4107ZM111.626 66.3051C111.497 66.5733 111.367 66.8393 111.231 67.104L110.873 67.8021L139.994 66.1944L139.955 65.7328C139.907 65.1533 139.849 64.5725 139.778 63.9918L139.725 63.5637L111.866 65.8017L111.755 66.036L111.626 66.3051ZM105.35 75.9698C105.09 76.2754 104.828 76.5763 104.559 76.8758L104.044 77.4505L137.577 84.8178L137.705 84.4338C137.922 83.7809 138.126 83.1234 138.315 82.4636L138.451 81.9887L105.519 75.7712L105.35 75.9698ZM114.055 60.1489C113.969 60.4248 113.88 60.6995 113.787 60.9734L113.538 61.7071L138.365 56.9042L138.226 56.4294C138.078 55.9225 137.92 55.4179 137.753 54.9165L137.626 54.5331L114.217 59.6196L114.14 59.8725L114.055 60.1489ZM115.635 53.2616C115.594 53.5344 115.551 53.8073 115.504 54.0792L115.374 54.8263L134.922 48.1775L134.675 47.7106C134.456 47.2963 134.228 46.8838 133.997 46.4757L133.809 46.1456L115.712 52.7207L115.674 52.9889L115.635 53.2616ZM98.1153 82.8405C97.8096 83.0749 97.5003 83.304 97.1895 83.5278L96.6026 83.9502L128.163 100.778L128.398 100.514C128.918 99.9298 129.418 99.3365 129.901 98.7334L130.253 98.2945L98.336 82.6713L98.1153 82.8405ZM116.131 45.5258C116.138 45.8684 116.134 46.7982 116.131 47.1506L116.123 47.9185L129.845 40.3936L129.501 39.9741C129.241 39.656 128.974 39.3418 128.704 39.0316L128.47 38.7645L116.125 45.2468L116.131 45.5258ZM94.5194 85.3157C94.1955 85.5155 93.8724 85.7104 93.5456 85.9004L92.9475 86.2482L121.463 106.908L121.728 106.706C122.369 106.217 123.003 105.709 123.624 105.182L124.078 104.796L94.765 85.1642L94.5194 85.3157ZM122.208 32.865L121.944 32.6569L115.245 37.4184L115.3 37.7028C115.36 38.0157 115.418 38.3287 115.471 38.6398L115.589 39.3324L123.492 33.9042L123.029 33.5241C122.756 33.3002 122.482 33.0812 122.208 32.865ZM90.9823 87.2924C90.6462 87.4631 90.307 87.6276 89.9659 87.7881L89.3722 88.0674L113.902 111.517L114.184 111.379C114.934 111.009 115.675 110.618 116.408 110.206L116.96 109.896L91.2543 87.154L90.9823 87.2924ZM114.569 28.0144L112.918 29.5528L113.028 29.837C113.129 30.0992 113.229 30.3651 113.328 30.6294L113.675 31.5353L116.708 29.2289C116.45 29.088 114.829 28.1471 114.569 28.0144ZM87.4986 88.8588C87.1515 88.9978 86.8005 89.1326 86.4492 89.2631L85.8661 89.4797L105.864 114.523L106.149 114.444C106.977 114.216 107.8 113.961 108.615 113.685L109.249 113.47L87.7951 88.74L87.4986 88.8588ZM84.1501 90.0462C83.7994 90.1552 83.4462 90.26 83.0937 90.3604L82.5306 90.5207L97.7137 115.967L97.9953 115.941C98.8631 115.862 99.7286 115.757 100.593 115.628L101.289 115.523L84.4728 89.9458L84.1501 90.0462ZM80.9482 90.915C80.5898 90.9979 80.2333 91.0778 79.877 91.1497L79.3366 91.2588L89.8218 115.976L90.0932 115.998C90.9633 116.067 91.8351 116.112 92.7086 116.128L93.4375 116.141L81.2986 90.834L80.9482 90.915ZM77.8338 91.5248C77.467 91.5848 77.099 91.6393 76.7299 91.6882L76.2207 91.7556L82.4565 114.758L82.714 114.821C83.5549 115.027 84.4014 115.207 85.2509 115.364L85.992 115.501L78.2146 91.4625L77.8338 91.5248ZM74.7663 91.9091C74.3832 91.9458 74.0024 91.9757 73.6195 91.999L73.1392 92.0282L75.8026 112.548L76.0431 112.648C76.8291 112.972 77.6235 113.276 78.4252 113.555L79.1519 113.807L75.1773 91.8698L74.7663 91.9091ZM67.4004 91.9813L66.9824 91.9513L64.9711 106.145L65.1748 106.305C65.8067 106.802 66.4481 107.276 67.0976 107.734L67.7363 108.183L69.1275 92.0724L68.6571 92.0537C68.2382 92.0371 67.8203 92.0115 67.4004 91.9813ZM64.2724 91.6516L63.8842 91.5965L60.8154 102.427L61.0025 102.614C61.5463 103.157 62.1004 103.683 62.6636 104.191L63.2353 104.707L66.0921 91.8706L65.5928 91.8163C65.1519 91.7684 64.7114 91.7138 64.2724 91.6516ZM61.1119 91.0914L60.7527 91.0137L57.4268 98.6202L57.5978 98.8329C58.0516 99.3973 58.5207 99.9494 59.0026 100.494L59.5007 101.057L63.0309 91.4589L62.502 91.3649C62.0385 91.2826 61.574 91.1914 61.1119 91.0914ZM57.8849 90.276L57.5548 90.1788L54.7071 94.8341L54.8624 95.0724C55.2381 95.6496 55.6302 96.218 56.0342 96.7787L56.4572 97.3657L59.92 90.8205L59.3639 90.6808C58.8691 90.5564 58.3768 90.4208 57.8849 90.276ZM54.5402 89.1586L54.2379 89.0436L52.5464 91.1125L52.6851 91.3764C52.9938 91.9636 53.3169 92.5423 53.652 93.1146L54.0019 93.7123L56.7141 89.9209L56.1354 89.7283C55.6011 89.5504 55.0697 89.3602 54.5402 89.1586ZM52.7669 88.4451C52.5006 88.3337 52.2344 88.2163 51.969 88.096L50.8841 87.6043L51.3742 88.6912C51.4973 88.9643 51.6241 89.24 51.7532 89.5138L52.0345 90.1104L53.3658 88.6959L52.7669 88.4451ZM71.7154 92.086C71.3122 92.0949 70.9096 92.0983 70.5082 92.0983H70.0615L69.9586 109.594L70.1789 109.726C70.2164 109.749 70.2192 109.751 70.2387 109.762C70.2587 109.774 70.2963 109.795 70.4073 109.861L70.4083 109.861L70.4092 109.862C71.0508 110.235 71.6978 110.593 72.3532 110.933L73.0449 111.292L72.1537 92.0763L71.7154 92.086Z" fill="#502C8B"/>
<path fill-rule="evenodd" clip-rule="evenodd" d="M100.883 80.555C101.176 80.2926 101.466 80.0273 101.753 79.7568L101.948 79.5733L135.14 90.5928L134.898 91.0611C134.562 91.7109 134.208 92.3563 133.839 92.9937L133.649 93.3205L100.326 81.0544L100.883 80.555Z" fill="#502C8B"/>
<path fill-rule="evenodd" clip-rule="evenodd" d="M71.3035 31.3052C71.6376 31.5209 71.9691 31.745 72.2982 31.9741L72.9397 32.4206L75.5251 0.277972L75.0979 0.225015C74.4648 0.146572 73.8311 0.084074 73.1968 0.0352684L72.738 0L71.0846 31.1638L71.3035 31.3052ZM66.2062 28.4194C66.474 28.5485 66.7395 28.6792 67.0037 28.8151L67.7007 29.1735L66.0956 0.00582314L65.6348 0.0446074C65.0562 0.0933042 64.4763 0.151184 63.8965 0.222817L63.4692 0.275555L65.7035 28.1792L65.9375 28.2908L66.2062 28.4194ZM75.8553 34.7053C76.1605 34.9659 76.4609 35.2286 76.7598 35.4976L77.3337 36.014L84.6891 2.4266L84.3057 2.2986C83.6539 2.08091 82.9975 1.8768 82.3387 1.68739L81.8646 1.55104L75.6571 34.5359L75.8553 34.7053ZM60.0598 25.9867C60.3353 26.0729 60.6095 26.1623 60.883 26.2554L61.6156 26.505L56.8203 1.63762L56.3463 1.77683C55.8402 1.9255 55.3364 2.08336 54.8358 2.25026L54.4531 2.37782L59.5314 25.8247L59.7839 25.9015L60.0598 25.9867ZM53.1836 24.4043C53.456 24.4447 53.7283 24.4884 53.9998 24.5357L54.7457 24.6658L48.1076 5.08613L47.6415 5.33334C47.2278 5.55271 46.816 5.78081 46.4085 6.01289L46.079 6.20065L52.6435 24.3273L52.9113 24.365L53.1836 24.4043ZM82.715 41.952C82.949 42.2581 83.1777 42.568 83.4012 42.8793L83.823 43.4671L100.624 11.8562L100.36 11.6209C99.7769 11.0997 99.1846 10.5992 98.5824 10.1149L98.1442 9.76244L82.5461 41.7309L82.715 41.952ZM45.4602 23.9075C45.8022 23.8998 46.7306 23.9042 47.0824 23.9076L47.849 23.915L40.3362 10.1716L39.9174 10.5155C39.5998 10.7762 39.2861 11.0434 38.9764 11.3146L38.7097 11.5482L45.1816 23.9138L45.4602 23.9075ZM85.1862 45.5537C85.3858 45.8781 85.5804 46.2017 85.77 46.529L86.1172 47.1281L106.744 18.5667L106.542 18.3009C106.054 17.659 105.547 17.0248 105.021 16.4027L104.635 15.9477L85.035 45.3077L85.1862 45.5537ZM32.8197 17.821L32.6119 18.0854L37.3658 24.7947L37.6498 24.7399C37.9621 24.6796 38.2746 24.6219 38.5852 24.5686L39.2767 24.4499L33.8572 16.5342L33.4778 16.9985C33.2542 17.272 33.0355 17.5463 32.8197 17.821ZM87.1598 49.0964C87.3303 49.4331 87.4944 49.7728 87.6547 50.1145L87.9335 50.7091L111.346 26.1399L111.207 25.8578C110.839 25.1065 110.448 24.3645 110.037 23.6295L109.727 23.0767L87.0216 48.8239L87.1598 49.0964ZM27.9768 25.4714L29.5127 27.1253L29.7965 27.0154C30.0583 26.914 30.3238 26.8135 30.5876 26.7151L31.4921 26.3674L29.1894 23.3297C29.0488 23.5881 28.1094 25.2119 27.9768 25.4714ZM88.7237 52.5857C88.8625 52.9334 88.9971 53.2849 89.1273 53.6368L89.3435 54.2209L114.347 34.1909L114.268 33.9051C114.04 33.076 113.786 32.2521 113.51 31.4357L113.296 30.7999L88.6051 52.2887L88.7237 52.5857ZM89.9091 55.9396C90.018 56.2908 90.1227 56.6446 90.2229 56.9977L90.3829 57.5617L115.788 42.3542L115.763 42.0722C115.683 41.2029 115.579 40.336 115.45 39.4703L115.345 38.7736L89.809 55.6164L89.9091 55.9396ZM90.7766 59.1466C90.8593 59.5056 90.9391 59.8627 91.0109 60.2196L91.1198 60.7608L115.798 50.2587L115.819 49.9869C115.889 49.1155 115.933 48.2423 115.949 47.3674L115.962 46.6373L90.6957 58.7957L90.7766 59.1466ZM91.3854 62.2661C91.4453 62.6334 91.4997 63.002 91.5485 63.3717L91.6159 63.8817L114.581 57.6359L114.644 57.378C114.85 56.5357 115.03 55.6879 115.187 54.837L115.323 54.0948L91.3232 61.8846L91.3854 62.2661ZM91.7691 65.3385C91.8057 65.7222 91.8356 66.1036 91.8588 66.4871L91.888 66.9682L112.375 64.3005L112.474 64.0596C112.799 63.2724 113.102 62.4767 113.38 61.6737L113.632 60.9459L91.7298 64.9268L91.7691 65.3385ZM91.8412 72.7162L91.8112 73.1349L105.982 75.1494L106.142 74.9453C106.639 74.3124 107.112 73.67 107.568 73.0195L108.017 72.3798L91.9321 70.9864L91.9135 71.4575C91.8969 71.877 91.8713 72.2956 91.8412 72.7162ZM91.512 75.8492L91.457 76.2381L102.27 79.3118L102.456 79.1244C102.999 78.5797 103.524 78.0248 104.031 77.4606L104.546 76.888L91.7306 74.0266L91.6764 74.5267C91.6286 74.9683 91.5741 75.4096 91.512 75.8492ZM90.9527 79.0148L90.8751 79.3746L98.4695 82.7058L98.6818 82.5345C99.2452 82.08 99.7965 81.6102 100.34 81.1275L100.902 80.6286L91.3196 77.0928L91.2258 77.6224C91.1436 78.0867 91.0525 78.552 90.9527 79.0148ZM90.1386 82.247L90.0415 82.5776L94.6894 85.4298L94.9273 85.2744C95.5035 84.8981 96.0711 84.5053 96.6309 84.1006L97.217 83.677L90.6823 80.2086L90.5427 80.7656C90.4186 81.2613 90.2832 81.7542 90.1386 82.247ZM89.023 85.5971L88.9082 85.8999L90.9737 87.5941L91.2372 87.4551C91.8235 87.146 92.4013 86.8224 92.9727 86.4867L93.5694 86.1362L89.7841 83.4197L89.5918 83.9993C89.4142 84.5345 89.2242 85.0667 89.023 85.5971ZM88.3107 87.3732C88.1994 87.64 88.0822 87.9066 87.9621 88.1724L87.4712 89.2591L88.5564 88.7681C88.829 88.6448 89.1043 88.5179 89.3777 88.3885L89.9733 88.1067L88.561 86.7733L88.3107 87.3732ZM91.9457 68.3943C91.9546 68.7981 91.958 69.2014 91.958 69.6034V70.0508L109.426 70.1539L109.558 69.9333C109.58 69.8957 109.582 69.8928 109.593 69.8733C109.605 69.8533 109.627 69.8156 109.692 69.7045L109.693 69.7035L109.693 69.7025C110.066 69.0599 110.423 68.4119 110.763 67.7554L111.121 67.0627L91.9361 67.9553L91.9457 68.3943Z" fill="#502C8B"/>
<path fill-rule="evenodd" clip-rule="evenodd" d="M80.4332 39.1796C80.1712 38.8864 79.9063 38.5959 79.6363 38.308L79.4531 38.1127L90.4549 4.86738L90.9225 5.11019C91.5712 5.44713 92.2155 5.80109 92.8519 6.17099L93.1782 6.36074L80.9318 39.7379L80.4332 39.1796Z" fill="#502C8B"/>
<path fill-rule="evenodd" clip-rule="evenodd" d="M31.255 68.5893C31.4704 68.2547 31.6941 67.9227 31.9228 67.593L32.3686 66.9505L0.277527 64.3609L0.224654 64.7889C0.146337 65.423 0.0839391 66.0577 0.0352119 66.6931L0 67.1525L31.1138 68.8086L31.255 68.5893ZM28.3739 73.6949C28.5027 73.4267 28.6332 73.1607 28.7689 72.896L29.1267 72.1979L0.0058138 73.8056L0.0445359 74.2672C0.0931545 74.8467 0.150941 75.4275 0.22246 76.0082L0.275113 76.4363L28.134 74.1983L28.2454 73.964L28.3739 73.6949ZM34.6496 64.0302C34.9099 63.7246 35.1721 63.4237 35.4407 63.1242L35.9563 62.5495L2.42271 55.1823L2.29492 55.5662C2.07757 56.2191 1.87379 56.8766 1.68469 57.5364L1.54856 58.0113L34.4806 64.2288L34.6496 64.0302ZM25.945 79.8512C26.0311 79.5752 26.1204 79.3005 26.2133 79.0266L26.4624 78.2929L1.63499 83.0958L1.77398 83.5706C1.92242 84.0775 2.08002 84.5821 2.24665 85.0835L2.37401 85.4669L25.7833 80.3804L25.86 80.1275L25.945 79.8512ZM24.3652 86.7384C24.4055 86.4656 24.4491 86.1927 24.4964 85.9208L24.6263 85.1737L5.07797 91.8225L5.32478 92.2894C5.54381 92.7037 5.77154 93.1162 6.00324 93.5243L6.19071 93.8544L24.2883 87.2793L24.3259 87.0111L24.3652 86.7384ZM41.8847 57.1595C42.1904 56.9251 42.4997 56.696 42.8105 56.4722L43.3974 56.0498L11.8372 39.222L11.6023 39.4858C11.0819 40.0702 10.5822 40.6635 10.0987 41.2666L9.74678 41.7055L41.664 57.3287L41.8847 57.1595ZM23.8692 94.4741C23.8615 94.1316 23.8659 93.2018 23.8693 92.8494L23.8766 92.0815L10.1553 99.6064L10.4986 100.026C10.7589 100.344 11.0257 100.658 11.2964 100.968L11.5296 101.235L23.8754 94.7532L23.8692 94.4741ZM45.4806 54.6843C45.8045 54.4845 46.1276 54.2896 46.4544 54.0996L47.0525 53.7518L18.5369 33.0923L18.2716 33.2944C17.6307 33.7827 16.9975 34.2906 16.3764 34.8181L15.9221 35.2038L45.235 54.8358L45.4806 54.6843ZM17.7924 107.135L18.0563 107.343L24.7549 102.582L24.7002 102.297C24.64 101.984 24.5824 101.671 24.5292 101.36L24.4107 100.668L16.5077 106.096L16.9713 106.476C17.2443 106.7 17.5182 106.919 17.7924 107.135ZM49.0177 52.7076C49.3538 52.5369 49.6929 52.3724 50.0341 52.2119L50.6278 51.9326L26.0979 28.4827L25.8163 28.6213C25.0662 28.9906 24.3254 29.3815 23.5916 29.7938L23.0397 30.1039L48.7457 52.846L49.0177 52.7076ZM25.4306 111.986L27.0818 110.447L26.9721 110.163C26.8709 109.901 26.7705 109.635 26.6723 109.371L26.3251 108.465L23.2923 110.771C23.5503 110.912 25.1714 111.853 25.4306 111.986ZM52.5014 51.1412C52.8485 51.0022 53.1995 50.8674 53.5508 50.7369L54.1339 50.5203L34.1361 25.4771L33.8507 25.5559C33.023 25.7845 32.2004 26.0391 31.3853 26.315L30.7505 26.5298L52.2049 51.26L52.5014 51.1412ZM55.8499 49.9538C56.2006 49.8448 56.5538 49.74 56.9063 49.6396L57.4694 49.4793L42.2863 24.033L42.0047 24.0588C41.1369 24.1383 40.2714 24.2428 39.407 24.3724L38.7115 24.4766L55.5272 50.0541L55.8499 49.9538ZM59.0518 49.085C59.4102 49.0021 59.7667 48.9222 60.123 48.8503L60.6634 48.7412L50.1781 24.0236L49.9068 24.002C49.0367 23.9327 48.1649 23.8884 47.2914 23.8724L46.5625 23.8591L58.7014 49.166L59.0518 49.085ZM62.1662 48.4752C62.533 48.4152 62.901 48.3607 63.2701 48.3118L63.7793 48.2444L57.5435 25.242L57.286 25.179C56.4451 24.9733 55.5986 24.7926 54.7491 24.6358L54.008 24.499L61.7853 48.5375L62.1662 48.4752ZM65.2337 48.0909C65.6168 48.0542 65.9976 48.0243 66.3804 48.001L66.8608 47.9718L64.1974 27.4519L63.9569 27.3525C63.1709 27.0276 62.3765 26.7241 61.5748 26.4455L60.8481 26.1929L64.8227 48.1302L65.2337 48.0909ZM72.5996 48.0187L73.0176 48.0487L75.0289 33.8551L74.8252 33.6948C74.1933 33.1975 73.5519 32.7236 72.9024 32.2662L72.2637 31.8165L70.8725 47.9276L71.3429 47.9463C71.7618 47.9629 72.1797 47.9885 72.5996 48.0187ZM75.7276 48.3484L76.1158 48.4035L79.1846 37.5733L78.9975 37.3864C78.4537 36.8433 77.8996 36.3172 77.3364 35.8091L76.7647 35.2934L73.9079 48.1294L74.4072 48.1837C74.8481 48.2316 75.2886 48.2861 75.7276 48.3484ZM78.8881 48.9086L79.2473 48.9863L82.5732 41.3798L82.4022 41.1671C81.9484 40.6027 81.4793 40.0506 80.9974 39.506L80.4993 38.9431L76.9691 48.5411L77.498 48.6351C77.9615 48.7174 78.426 48.8086 78.8881 48.9086ZM82.1151 49.724L82.4452 49.8212L85.2929 45.1659L85.1376 44.9276C84.7619 44.3504 84.3698 43.782 83.9658 43.2213L83.5428 42.6343L80.08 49.1795L80.6361 49.3192C81.1309 49.4436 81.6231 49.5792 82.1151 49.724ZM85.4598 50.8414L85.7621 50.9564L87.4536 48.8875L87.3148 48.6236C87.0062 48.0364 86.6831 47.4577 86.348 46.8854L85.9981 46.2877L83.2859 50.0791L83.8646 50.2717C84.3989 50.4496 84.9303 50.6398 85.4598 50.8414ZM87.2331 51.5549C87.4994 51.6663 87.7656 51.7837 88.031 51.904L89.1159 52.3957L88.6258 51.3088C88.5027 51.0357 88.3759 50.76 88.2468 50.4862L87.9654 49.8896L86.6342 51.3041L87.2331 51.5549ZM68.2846 47.914C68.6878 47.9051 69.0904 47.9017 69.4918 47.9017H69.9385L70.0414 30.4056L69.8211 30.2736C69.7836 30.2512 69.7807 30.2495 69.7613 30.2381C69.7413 30.2265 69.7037 30.2046 69.5927 30.1392L69.5917 30.1386L69.5908 30.138C68.9492 29.7646 68.3022 29.4067 67.6468 29.0666L66.9551 28.7077L67.8463 47.9237L68.2846 47.914Z" fill="#502C8B"/>
<path fill-rule="evenodd" clip-rule="evenodd" d="M39.1168 59.445C38.824 59.7074 38.534 59.9727 38.2466 60.2432L38.0515 60.4267L4.85957 49.4072L5.10199 48.9389C5.43839 48.2891 5.79179 47.6437 6.16109 47.0063L6.35054 46.6795L39.6741 58.9456L39.1168 59.445Z" fill="#502C8B"/>
<path d="M208.419 18.4388L263.772 104.263V47.8453C263.772 42.8777 263.639 37.91 263.373 32.9424C263.196 27.9748 262.53 23.0959 261.377 18.3057H278.808C277.655 23.0959 276.945 27.9748 276.679 32.9424C276.502 37.91 276.413 42.8777 276.413 47.8453V91.8885C276.413 96.8561 276.502 101.868 276.679 106.924C276.945 111.892 277.655 116.771 278.808 121.561H259.647L204.693 36.402V92.0215C204.693 96.9891 204.782 101.957 204.959 106.924C205.225 111.892 205.935 116.771 207.088 121.561H189.657C190.81 116.771 191.476 111.892 191.653 106.924C191.919 101.957 192.052 96.9891 192.052 92.0215V47.9783C192.052 43.0107 191.919 38.0431 191.653 33.0755C191.476 28.1079 190.81 23.229 189.657 18.4388H208.419Z" fill="#502C8B"/>
<path d="M357.39 18.4388L360.583 34.14C358.188 32.8981 355.66 31.9223 352.999 31.2126C350.426 30.4143 347.455 29.882 344.084 29.6159C340.713 29.2611 336.588 29.0837 331.709 29.0837H313.081V63.5465H324.391C329.358 63.5465 334.326 63.4578 339.294 63.2803C344.261 63.0142 349.14 62.3046 353.93 61.1514V76.5864C349.14 75.4333 344.261 74.7679 339.294 74.5905C334.326 74.3244 329.358 74.1914 324.391 74.1914H313.081V110.916H332.774C340.048 110.916 346.39 110.561 351.801 109.852C357.301 109.053 361.825 107.723 365.374 105.86L362.18 121.561H297.379C298.533 116.771 299.198 111.892 299.375 106.924C299.641 101.957 299.775 96.9891 299.775 92.0215V47.9783C299.775 43.0107 299.641 38.0431 299.375 33.0755C299.198 28.1079 298.533 23.229 297.379 18.4388H357.39Z" fill="#502C8B"/>
<path d="M409.531 18.4388C416.273 18.4388 422.438 19.6807 428.027 22.1645C433.704 24.5596 438.228 28.0192 441.599 32.5433C445.058 36.9786 446.788 42.2567 446.788 48.3775C446.788 53.2564 445.679 57.6474 443.462 61.5506C441.244 65.4537 438.184 68.7802 434.28 71.5301C430.466 74.1914 426.119 76.1429 421.241 77.3848L440.401 105.195C442.53 107.944 444.748 110.694 447.054 113.444C449.449 116.194 451.933 118.9 454.506 121.561H433.881C432.728 118.989 431.22 116.194 429.357 113.178C427.583 110.073 425.144 106.17 422.039 101.469L405.805 78.8485H397.023V92.0215C397.023 96.9891 397.112 101.957 397.29 106.924C397.556 111.892 398.265 116.771 399.419 121.561H381.322C382.475 116.771 383.141 111.892 383.318 106.924C383.584 101.957 383.717 96.9891 383.717 92.0215V47.9783C383.717 43.0107 383.584 38.0431 383.318 33.0755C383.141 28.1079 382.475 23.229 381.322 18.4388H409.531ZM397.023 68.2036H405.539C414.233 68.2036 420.886 66.5182 425.498 63.1473C430.111 59.7764 432.418 54.8531 432.418 48.3775C432.418 41.8132 430.111 36.9786 425.498 33.8739C420.886 30.6804 414.233 29.0837 405.539 29.0837H397.023V68.2036Z" fill="#502C8B"/>
<path d="M512.771 123.424C505.142 123.424 498.134 122.093 491.747 119.432C485.36 116.682 479.816 112.868 475.115 107.989C470.502 103.11 466.909 97.4327 464.337 90.957C461.764 84.4814 460.478 77.4735 460.478 69.9334C460.478 62.3933 461.764 55.3854 464.337 48.9098C466.909 42.4341 470.502 36.8012 475.115 32.011C479.816 27.1321 485.36 23.362 491.747 20.7008C498.134 17.9509 505.142 16.5759 512.771 16.5759C520.4 16.5759 527.408 17.9065 533.795 20.5678C540.181 23.229 545.726 26.999 550.427 31.8779C555.129 36.6681 558.766 42.3011 561.338 48.7767C563.911 55.2523 565.197 62.3046 565.197 69.9334C565.197 77.4735 563.911 84.4814 561.338 90.957C558.766 97.4327 555.129 103.11 550.427 107.989C545.726 112.868 540.181 116.682 533.795 119.432C527.408 122.093 520.4 123.424 512.771 123.424ZM512.638 112.779C518.404 112.779 523.638 111.626 528.339 109.319C533.041 107.013 537.077 103.908 540.448 100.005C543.818 96.0134 546.391 91.4449 548.165 86.2999C549.939 81.0662 550.826 75.6107 550.826 69.9334C550.826 64.1674 549.939 58.7119 548.165 53.5669C546.391 48.4219 543.818 43.8978 540.448 39.9947C537.077 36.0028 533.041 32.8981 528.339 30.6804C523.638 28.374 518.404 27.2208 512.638 27.2208C506.872 27.2208 501.638 28.374 496.937 30.6804C492.324 32.8981 488.376 36.0028 485.094 39.9947C481.812 43.9865 479.284 48.5549 477.51 53.7C475.736 58.7563 474.849 64.1674 474.849 69.9334C474.849 75.6107 475.736 81.0662 477.51 86.2999C479.284 91.4449 481.812 96.0134 485.094 100.005C488.376 103.908 492.324 107.013 496.937 109.319C501.638 111.626 506.872 112.779 512.638 112.779Z" fill="#502C8B"/>
<path d="M597.986 18.4388L653.339 104.263V47.8453C653.339 42.8777 653.206 37.91 652.94 32.9424C652.763 27.9748 652.098 23.0959 650.944 18.3057H668.375C667.222 23.0959 666.513 27.9748 666.246 32.9424C666.069 37.91 665.98 42.8777 665.98 47.8453V91.8885C665.98 96.8561 666.069 101.868 666.246 106.924C666.513 111.892 667.222 116.771 668.375 121.561H649.215L594.26 36.402V92.0215C594.26 96.9891 594.349 101.957 594.527 106.924C594.793 111.892 595.502 116.771 596.655 121.561H579.224C580.378 116.771 581.043 111.892 581.22 106.924C581.487 101.957 581.62 96.9891 581.62 92.0215V47.9783C581.62 43.0107 581.487 38.0431 581.22 33.0755C581.043 28.1079 580.378 23.229 579.224 18.4388H597.986Z" fill="#502C8B"/>
<path d="M724.47 18.4388H738.042L771.041 98.2754C772.815 102.179 774.634 105.949 776.497 109.586C778.448 113.134 780.799 117.126 783.549 121.561H764.787C764.255 118.722 763.501 115.618 762.525 112.247C761.55 108.787 759.909 104.13 757.602 98.2754L754.542 90.957H707.97L704.91 98.2754C702.692 104.13 701.051 108.787 699.987 112.247C699.011 115.618 698.257 118.722 697.725 121.561H678.963C681.713 117.392 683.975 113.622 685.749 110.251C687.612 106.791 689.342 103.243 690.939 99.606L724.47 18.4388ZM712.361 80.3122H750.151L731.256 34.5392L712.361 80.3122Z" fill="#502C8B"/>
</svg>
