<svg version="1.1" id="Layer_1" xmlns="http://www.w3.org/2000/svg" x="0" y="0" viewBox="0 0 120.1 138.8" style="enable-background:new 0 0 120.1 138.8" xml:space="preserve"><style>.st0{fill:#002d74}</style><path class="st0" d="M60.1 0 0 34.7v69.4l60.1 34.7 60-34.7V34.7L60.1 0zm42.2 93.8L60 118.2 17.8 93.8V45l42.3-24.4L102.3 45v48.8z"/><linearGradient id="SVGID_1_" gradientUnits="userSpaceOnUse" x1="90.1166" y1="1.0868" x2="90.1166" y2="70.4884" gradientTransform="matrix(1 0 0 -1 0 139.8898)"><stop offset="0" style="stop-color:#002d74"/><stop offset="1" style="stop-color:#002d74;stop-opacity:0"/></linearGradient><path d="m60.1 138.8 60-34.7V34.7L60.1 0v20.6L102.3 45v48.9L60 118.3v20.5z" style="fill:url(#SVGID_1_)"/><linearGradient id="SVGID_00000034064843000503835000000005854543727190432132_" gradientUnits="userSpaceOnUse" x1="30.0233" y1="139.8898" x2="30.0233" y2="70.4884" gradientTransform="matrix(1 0 0 -1 0 139.8898)"><stop offset="0" style="stop-color:#002d74"/><stop offset="1" style="stop-color:#002d74;stop-opacity:0"/></linearGradient><path style="fill:url(#SVGID_00000034064843000503835000000005854543727190432132_)" d="M60 0 0 34.7v69.4l60 34.7v-20.6L17.8 93.8V44.9L60 20.6V0z"/><path class="st0" d="m88.1 85.6-28 16.2L32 85.6V53.2L60.1 37l28 16.2L76.4 60 60 50.5 43.7 60v18.9l16.4 9.5 16.4-9.5 11.6 6.7z"/></svg>