<?xml version="1.0" encoding="UTF-8"?>
<svg version="1.1" xmlns="http://www.w3.org/2000/svg" width="1440" height="1440">
<path d="M0 0 C1.45105492 0.0724722 2.90233332 0.14063791 4.3538208 0.20385742 C17.60207251 0.8028729 31.06352034 2.70873929 42.91409302 9.04870605 C43.90034668 9.56243774 43.90034668 9.56243774 44.90652466 10.08654785 C62.36521534 19.50967952 74.57436296 35.56720688 80.60159302 54.36120605 C86.07003486 73.60715205 83.44353299 94.62254114 73.87039185 112.00646973 C63.3793164 130.05627318 46.95853252 142.43139883 26.85159302 147.86120605 C17.49885489 150.08255278 8.1432701 149.72831229 -1.39840698 149.36120605 C-2.53181519 149.3177002 -3.66522339 149.27419434 -4.83297729 149.22937012 C-6.04308472 149.1826416 -7.25319214 149.13591309 -8.49996948 149.08776855 C-75.91609931 146.5067262 -141.48619687 159.82167617 -201.39840698 191.36120605 C-202.13526733 191.74292969 -202.87212769 192.12465332 -203.63131714 192.51794434 C-223.00858437 202.59927875 -241.43116219 214.59349885 -258.39840698 228.36120605 C-259.32137573 229.09339355 -260.24434448 229.82558105 -261.19528198 230.57995605 C-267.23110765 235.42225687 -272.9538269 240.54130136 -278.62106323 245.8026123 C-280.88771153 247.89073416 -283.18173589 249.92127102 -285.52340698 251.92370605 C-292.3026829 257.81505186 -298.62182787 264.24350374 -304.44918823 271.0760498 C-305.94888706 272.83421376 -307.47159714 274.57276855 -309.00387573 276.3026123 C-372.30655877 348.12619356 -404.21518069 445.55306975 -398.88278198 540.77355957 C-395.05770627 601.36514958 -377.37952754 662.99154392 -344.39840698 714.36120605 C-343.87810913 715.17460449 -343.35781128 715.98800293 -342.82174683 716.8260498 C-323.06135175 747.51251277 -298.98090418 778.57740648 -270.07028198 801.24401855 C-267.65696372 803.1563263 -265.34003986 805.14919516 -263.02804565 807.1817627 C-218.4059883 846.10354166 -159.28539129 872.17623119 -101.39840698 883.36120605 C-100.39503296 883.55649902 -99.39165894 883.75179199 -98.35787964 883.95300293 C-85.76854977 886.36023356 -73.16495481 888.22481919 -60.39840698 889.36120605 C-59.22922729 889.47335449 -58.06004761 889.58550293 -56.85543823 889.7010498 C7.84518415 894.85169913 73.02428446 881.93113697 131.60159302 854.36120605 C132.49169067 853.94371094 133.38178833 853.52621582 134.29885864 853.09606934 C161.93338672 840.0106739 187.16926603 822.93596629 210.60159302 803.36120605 C212.10012817 802.14304199 212.10012817 802.14304199 213.62893677 800.90026855 C221.46054651 794.4488925 228.72513391 787.45112623 235.91409302 780.29870605 C236.83295288 779.38903076 237.75181274 778.47935547 238.69851685 777.54211426 C244.01901699 772.1975938 248.93897609 766.67965396 253.65164185 760.79260254 C255.19484406 758.86838182 256.76044345 756.99261517 258.39456177 755.1463623 C307.34991894 699.48260382 335.88172755 622.76043777 341.60159302 549.36120605 C341.6579895 548.6886377 341.71438599 548.01606934 341.77249146 547.32312012 C344.74414691 511.01265549 341.48387966 474.37096508 333.90872192 438.80065918 C329.63214095 418.70556338 331.55197684 398.06917438 342.48831177 380.2947998 C344.42892987 377.55353377 346.4638845 374.95088723 348.60159302 372.36120605 C349.20616333 371.5826123 349.81073364 370.80401855 350.43362427 370.00183105 C362.34083628 355.4624985 380.24689057 347.63423422 398.60159302 345.36120605 C419.15720964 343.82113904 437.59987716 349.41714291 453.60159302 362.36120605 C454.30799927 362.8922998 455.01440552 363.42339355 455.74221802 363.97058105 C481.71677397 384.62751138 484.58242235 425.87749057 488.11988831 456.54528809 C488.3907285 458.96247467 488.65442519 461.38029509 488.91409302 463.79870605 C488.99531403 464.55004822 489.07653503 465.30139038 489.16021729 466.07550049 C491.02233038 483.57326147 491.81216171 501.0176946 491.78909302 518.61120605 C491.78848877 519.47527069 491.78788452 520.33933533 491.78726196 521.22958374 C491.71999103 557.0181312 487.8024198 592.3023134 480.60159302 627.36120605 C480.39340942 628.38891113 480.18522583 629.41661621 479.97073364 630.47546387 C466.20193793 697.30707998 437.44443125 762.98099344 397.60159302 818.36120605 C397.06566528 819.10821777 396.52973755 819.85522949 395.97756958 820.62487793 C387.89226484 831.85113676 379.47579535 842.74844145 370.60159302 853.36120605 C370.10981567 853.95208008 369.61803833 854.5429541 369.11135864 855.1517334 C358.25281922 868.15950976 346.61438794 880.41820132 334.66409302 892.42370605 C333.9787146 893.11375732 333.29333618 893.80380859 332.58718872 894.51477051 C328.64712399 898.44241053 324.59795781 902.18421408 320.38552856 905.81799316 C318.20611145 907.7033217 316.09338692 909.65605823 313.97659302 911.61120605 C308.38213143 916.65302326 302.49261535 921.25240303 296.53518677 925.85144043 C294.59097405 927.36949743 292.67282487 928.91586239 290.75784302 930.47058105 C221.61028106 986.14924155 136.46030117 1019.95814219 -27.71090698 1039.54870605 C-29.22867233 1039.54779968 -29.22867233 1039.54779968 -30.77709961 1039.546875 C-47.06595455 1039.52056099 -63.18844774 1039.09602725 -79.39840698 1037.36120605 C-80.58192749 1037.23761719 -81.765448 1037.11402832 -82.98483276 1036.98669434 C-157.08544818 1028.98394427 -229.3007208 1005.4971823 -293.39840698 967.36120605 C-294.28963257 966.83172363 -295.18085815 966.30224121 -296.09909058 965.75671387 C-319.12488666 951.98560514 -341.06130543 936.43504797 -361.39840698 918.92370605 C-364.31606145 916.43154287 -367.28361751 914.01603672 -370.27340698 911.61120605 C-373.94334042 908.62639767 -377.34802484 905.54586728 -380.62277222 902.13586426 C-382.36300848 900.39658509 -384.16621686 898.80356778 -386.03903198 897.2088623 C-390.71502921 893.14399082 -395.0924303 888.81441417 -399.46090698 884.42370605 C-400.60656128 883.28385254 -400.60656128 883.28385254 -401.77536011 882.12097168 C-405.97289778 877.91625259 -410.00533694 873.62583126 -413.88156128 869.12316895 C-415.80249469 866.89181912 -417.78689591 864.72169039 -419.77340698 862.54870605 C-424.50094369 857.29677032 -428.99479184 851.88591764 -433.39840698 846.36120605 C-433.89437378 845.74310059 -434.39034058 845.12499512 -434.90133667 844.48815918 C-454.43228621 820.07742612 -471.39757244 794.02627129 -486.23043823 766.51647949 C-487.38532057 764.38535465 -488.56242292 762.26771482 -489.74215698 760.15026855 C-523.83386341 698.1520354 -542.25828353 626.62823429 -547.39840698 556.36120605 C-547.485177 555.27041748 -547.485177 555.27041748 -547.57369995 554.15759277 C-554.08045809 470.61236287 -538.1828724 383.53676973 -491.39840698 282.36120605 C-490.94497925 281.45032227 -490.49155151 280.53943848 -490.02438354 279.60095215 C-471.18906009 242.04725209 -446.7539807 206.47322268 -418.34762573 175.49401855 C-416.45060049 173.41831558 -414.60832668 171.30431922 -412.77340698 169.17370605 C-410.01877464 166.00651357 -407.11349514 163.05231221 -404.11715698 160.1151123 C-402.44419677 158.40793245 -400.92693372 156.63527772 -399.39840698 154.79870605 C-394.18150392 148.74944318 -388.15698115 143.47835351 -382.27780151 138.08776855 C-380.55957912 136.5092717 -378.85024392 134.92191246 -377.14450073 133.32995605 C-370.7706043 127.39889064 -364.19522736 121.80046046 -357.39840698 116.36120605 C-356.26756742 115.4388023 -355.13739184 114.5155841 -354.00778198 113.5916748 C-339.16937966 101.51003551 -323.64823662 90.46174951 -307.39840698 80.36120605 C-306.49267944 79.79675781 -305.5869519 79.23230957 -304.65377808 78.65075684 C-288.642888 68.72629874 -272.24777476 59.77636745 -255.39840698 51.36120605 C-254.54617554 50.93114258 -253.69394409 50.5010791 -252.81588745 50.0579834 C-181.70265586 14.33208543 -98.27594045 -2.66976002 0 0 Z " fill="#FFFFFF" transform="translate(747.3984069824219,199.6387939453125)"/>
<path d="M0 0 C2.87669254 2.25190433 5.68685657 4.57519523 8.46850586 6.94311523 C9.14526367 7.51545898 9.82202148 8.08780273 10.51928711 8.67749023 C27.37029681 24.28176652 39.27793157 48.99401664 40.64550781 71.90893555 C40.93684638 86.70568502 41.05739916 100.76216026 36.46850586 114.94311523 C36.26483398 115.58458496 36.06116211 116.22605469 35.85131836 116.88696289 C27.46140431 142.3350741 8.33491125 163.49557132 -15.23461914 175.90014648 C-22.36218364 179.4293129 -29.89250682 181.79422037 -37.53149414 183.94311523 C-38.4196582 184.19834961 -39.30782227 184.45358398 -40.22290039 184.71655273 C-66.05266529 190.91569631 -93.95375482 185.27005227 -116.53149414 171.94311523 C-141.78215565 156.43019901 -157.58513147 132.50369653 -164.53149414 103.94311523 C-169.07108536 80.15320343 -165.34398046 56.32910569 -154.53149414 34.94311523 C-153.9965332 33.88479492 -153.46157227 32.82647461 -152.91040039 31.73608398 C-140.23503816 8.54351472 -117.91079547 -8.64257959 -92.86352539 -16.59985352 C-61.37599459 -25.67456666 -26.19239989 -19.8927443 0 0 Z " fill="#72A2FF" transform="translate(1111.531494140625,249.056884765625)"/>
</svg>