<svg xmlns="http://www.w3.org/2000/svg" viewBox="57.5 68.7 938.6 938.6"><defs><style>.cls-1{fill:#ff931e}.cls-2{fill:#fff}</style></defs><g id="Layer_1"><g id="Layer_1-2" data-name="Layer_1"><circle cx="526.8" cy="538" r="469.3" class="cls-1"/><path d="m516.2 455.4 68.1 22.5a31.5 31.5 0 0 1-19.8 59.8l-68.1-22.5a31.5 31.5 0 0 1 19.8-59.8m-27 81.3 68.1 22.5a31.5 31.5 0 0 1-19.8 59.8l-68.1-22.5a31.5 31.5 0 0 1 19.8-59.8m61.5-160.2 52.8 17.5a31.5 31.5 0 0 1-19.8 59.8l-52.8-17.5a31.5 31.5 0 0 1 19.8-59.8m42.2-76.3 22.3 7.4a31.5 31.5 0 0 1-19.8 59.8l-22.3-7.4a31.5 31.5 0 0 1 19.8-59.8m25.6-77.7 22.3 7.4a31.5 31.5 0 0 1-19.8 59.8l-22.3-7.4a31.5 31.5 0 0 1 19.8-59.8m31.9 276.9-29.9-9.9c-1.1-.4-2.3-.7-3.4-.9 14.4 6.6 14.2 20.6 9.1 36s-13.3 26.7-28.7 23.5l3.3 1.3 29.9 9.9a31.5 31.5 0 1 0 19.8-59.8Zm-22.1 87.2-29.9-9.9c-1.1-.4-2.3-.7-3.4-.9 14.4 6.6 14.2 20.6 9.1 36s-13.3 26.7-28.7 23.5l3.3 1.3 29.9 9.9a31.5 31.5 0 1 0 19.8-59.8Zm42.4-170.8-29.9-9.9c-1.1-.4-2.3-.7-3.4-.9 14.4 6.6 14.2 20.6 9.1 36s-13.3 26.7-28.7 23.5l3.3 1.3 29.9 9.9a31.5 31.5 0 1 0 19.8-59.8Z" class="cls-2"/><path d="m678.6 328.2-29.9-9.9c-1.1-.4-2.3-.7-3.4-.9 14.4 6.6 14.2 20.6 9.1 36s-13.3 26.7-28.7 23.5l3.3 1.3 29.9 9.9a31.5 31.5 0 1 0 19.8-59.8Zm-167.2 11.1 29.9 9.9c1.1.4 2.3.7 3.4.9-14.4-6.6-14.2-20.6-9.1-36s13.3-26.7 28.7-23.5l-3.3-1.3-29.9-9.9a31.5 31.5 0 1 0-19.8 59.8Zm-43.5 76 29.9 9.9c1.1.4 2.3.7 3.4.9-14.4-6.6-14.2-20.6-9.1-36s13.3-26.7 28.7-23.5l-3.3-1.3-29.9-9.9a31.5 31.5 0 1 0-19.8 59.8Zm-37.2 78 29.9 9.9c1.1.4 2.3.7 3.4.9-14.4-6.6-14.2-20.6-9.1-36s13.3-26.7 28.7-23.5l-3.3-1.3-29.9-9.9a31.5 31.5 0 1 0-19.8 59.8Z" class="cls-2"/><path d="M450.9 915.8c-11 0-23.3-1.8-36.5-5.2-31.5-8.2-51.7-23.2-60.1-44.4a65.5 65.5 0 0 1 1-47.9c-39.5-52.7-58.6-91.3-61.7-124.1-3.2-34.1 11.3-56.3 25.4-77.8a193 193 0 0 0 19.9-35.6c11.8-29.7-1.9-91.6-7.6-101.5.9 1.5-17.5-30.1-10.7-29.6h25c44 3 78.3 20.3 101.9 51.6 33.4 44.3 37.3 106.9 34.9 150.8 9.7-6.9 20.7-13.7 32.6-20.1 36.2-19.5 72.3-31.9 99.2-30.7s10.9.5 15.8 1.4c24.9 4.7 37 17.7 42.9 27.7 13.7 23.7 5 50.9 3.9 53.9l-8.9 25.7-19.9-18a34 34 0 0 0-18-7.6c-11.7 0-21.7 18-27.5 49.3-9.6 52-34.5 80-53.7 94.3a114.3 114.3 0 0 1-26.3 14.7c0 14.9-3.4 35.1-17.3 51.1-8.8 10-25.2 22-54 22z" class="cls-1"/><path d="M376.1 816.1s-35.4 56.6 42.7 77.1 88.9-31.6 84.5-63.6c0 0 64.6-9.4 81.1-99 18.7-101.3 75-52 75-52s16-43.8-34.1-52.1-151.4 54.4-171.2 88.8c0 0 35.5-226.6-110.1-247.5 6.8.6 27.1 80 11.3 119.7-26.9 67.7-94.9 78.3 20.7 228.7h.1Z" class="cls-2"/><path d="M439.3 817.2s39.5 20.8 121.2 5.9 94.5 5.3 94.5 5.3l-94.5 15.4s-90.7 18.8-121.2-26.7Z" class="cls-1"/><path d="m483.6 626.6 25.8 8.5-28.8 20.7z" class="cls-2"/></g></g></svg>