<svg xmlns="http://www.w3.org/2000/svg" fill="none" viewBox="0 0 100 100"><rect width="100" height="100" fill="#000" rx="50"/><path fill="url(#a)" fill-rule="evenodd" d="M26.832 24.637c.42-.402.973-.637 1.543-.637h25.13v13.008H17.092c-.972 0-1.458-1.173-.771-1.86l10.51-10.511Zm0 39.242a2.18 2.18 0 0 1 1.543-.637h25.13V76.25H17.092c-.972 0-1.458-1.174-.771-1.861l10.51-10.51Zm26.672-7.372h-25.13c-.586 0-1.14-.235-1.542-.637l-10.51-10.51c-.687-.688-.201-1.861.771-1.861h36.411z" clip-rule="evenodd"/><path fill="#5FF4F4" fill-rule="evenodd" d="M57.633 35.398c0-.101.031-.2.09-.282L70.61 17.202c.3-.416.956-.138.864.367l-3.92 21.635a.48.48 0 0 0 .55.56l21.7-3.542c.507-.082.774.579.352.871l-18.07 12.526a.48.48 0 0 0-.007.786l17.85 12.84c.416.299.137.955-.368.864l-21.634-3.92a.48.48 0 0 0-.561.55l3.542 21.7c.083.507-.579.774-.87.352L57.717 65.02a.5.5 0 0 1-.085-.275V35.397Z" clip-rule="evenodd"/><defs><linearGradient id="a" x1="53.5" x2="31.573" y1="19.833" y2="84.025" gradientUnits="userSpaceOnUse"><stop stop-color="#23A59F"/><stop offset=".971" stop-color="#8E4EF8"/></linearGradient></defs></svg>