<svg xmlns="http://www.w3.org/2000/svg" xml:space="preserve" id="Layer_1" x="0" y="0" version="1.1" viewBox="123.7 204.5 832.5 671"><style>.st5{fill:#8a8a8a}</style><path d="M653.7 651.8H347.6V204.5h306.1c105.1 0 190.2 85.2 190.2 190.2v66.8c0 105.1-85.1 190.3-190.2 190.3" style="fill:#acd905"/><path d="M732.6 875.5h-385V651.8c0-123.5 100.1-223.6 223.6-223.6h161.4c123.5 0 223.6 100.1 223.6 223.6S856.1 875.5 732.6 875.5" style="fill:#aeafaa"/><path d="M843.9 457.9v3.7c0 105.1-85.1 190.2-190.3 190.2h-306c0-61.7 25.1-117.6 65.5-158.1 40.5-40.5 96.4-65.5 158.2-65.5h161.3c40.6 0 78.6 10.8 111.3 29.7" style="fill:#5d6e3c"/><circle cx="348.2" cy="540" r="224.5" style="fill:#fff"/><path d="m348.2 343.7-2.6 9v259.5l2.6 2.7 120.5-71.3z" style="fill:#343434"/><path d="M348.2 343.7 227.7 543.6l120.5 71.3v-126z" class="st5"/><path d="m348.2 637.7-1.5 1.8v92.4l1.5 4.4 120.6-169.8z" style="fill:#3c3c3b"/><path d="M348.2 736.3v-98.6l-120.5-71.2z" class="st5"/><path d="m348.2 614.9 120.5-71.3-120.5-54.7z" style="fill:#141414"/><path d="m227.7 543.6 120.5 71.3v-126z" style="fill:#393939"/></svg>