<svg xmlns="http://www.w3.org/2000/svg" fill="none" style="max-height:500px" width="21.885" height="18.148"><path fill="#383838" d="M33.554 4.363V0H49.75v4.363h-5.701v13.604h-4.794V4.363h-5.7ZM51.163 17.967V0h13.992v4.363h-9.199V7.06h7.386v3.85h-7.386v2.695h9.2v4.363H51.162ZM67.346 17.967V0h5.83l6.349 11.294h.259l-.389-2.31V0h4.794v17.967h-5.83L72.01 6.674h-.259l.389 2.31v8.983h-4.794ZM87.046 17.967V0h13.993v4.363H91.84V7.06h7.385v3.85H91.84v2.695h9.199v4.363H87.046ZM101.805 4.363V0H118v4.363h-5.701v13.604h-4.794V4.363h-5.7ZM21.233 1.616C20.594.612 19.451.011 18.173.011H11.13C11.039.006 10.947 0 10.856 0c-.091 0-.182.006-.274.011H3.54C2.26.011 1.118.612.479 1.616a2.92 2.92 0 0 0 0 3.205l7.317 11.49c.64 1.004 1.783 1.605 3.06 1.605 1.277 0 2.42-.601 3.06-1.605l7.317-11.49c.639-.998.639-2.2 0-3.205Zm-9.008 13.812c-.286.447-.797.717-1.369.717s-1.083-.27-1.369-.717L5.37 8.964l4.118-6.47a1.565 1.565 0 0 1 1.187-.707h.365c.498.05.93.31 1.186.706l4.118 6.465-4.118 6.47Z"/></svg>