<svg xmlns="http://www.w3.org/2000/svg" version="1.0" viewBox="0.45 0.19 299.36 299.36"><path d="M135 .6c-1.4.2-6.8 1.2-12 2C109.5 4.9 94.7 10 81.1 17 41 37.8 12.8 75.1 2.8 120.7c-2.9 13.5-3.2 41.2-.4 55.8 11.4 61.1 56.5 107.2 118.3 120.7 13.5 2.9 41.2 3.2 55.8.4 60.9-11.4 107.4-56.8 120.6-117.8 2.9-13.6 3.6-35.5 1.5-49.4-5.2-35.3-18.8-62.4-43.2-86.7-21.1-20.8-46.2-34.4-75.6-40.8-9-1.9-38.4-3.5-44.8-2.3m99 68.5c14.9 7 23.4 25.2 18.6 39.8-.9 2.8-10.1 19.6-20.4 37.3-10.3 17.8-26.9 46.2-36.7 63.2-11 18.8-19.6 32.5-22 35-6.5 6.4-13.4 9.1-23.5 9.1-6.7 0-9.6-.5-13.6-2.3-9.5-4.3-13.4-9.7-37.9-52.2-12.6-21.7-24.7-42.7-27-46.5C55.8 126.3 48.1 112 47 107.1c-4.1-17.4 7.4-35.9 24.7-40 2.1-.5 37.6-.9 80.3-.8l76.5.2z"/><path d="M141.9 87.3c-2.3 1.5-5.9 6.6-11.3 15.7-20 34.3-32.6 56.3-32.6 57.2 0 1.9 39.2 68.4 42.1 71.3 2.7 2.8 3.5 3 9.9 3s7.2-.2 9.9-3c1.6-1.7 7-10 11.9-18.5s13.7-23.7 19.6-33.8c5.8-10.1 10.6-18.8 10.6-19.3s-4.8-9.1-10.6-19.2c-5.9-10-13-22.3-15.9-27.2-12.4-21.3-14.2-24.1-17.4-26.2-4.6-3.1-11.6-3.1-16.2 0"/></svg>