<svg xmlns="http://www.w3.org/2000/svg" viewBox="0 0 85.04 85.04"><defs><style>.cls-1{fill:#1f5eff;fill-rule:evenodd}</style></defs><g id="Layer_10" data-name="Layer 10"><path d="M63 60.93a28.7 28.7 0 0 1-5 3.44c.34-.27-.73-1.39-.4-1.68 8.08-7 9.92-16.07 6.66-24-.44-1.08.49-1.51.49-2.49 7.53 7.01 6.72 17.4-1.75 24.73" class="cls-1"/><path d="M64.83 36.18a26.9 26.9 0 0 0-11.53-6.07h-.06.06c1.64.43 1.76 2.32 2.89 3.27 2.41 2 3.06 4.66 3.31 8.11.37 5.14.34 10.22-3.41 14.75a20.3 20.3 0 0 1-7.4 5.81l-.66.28h-.1a25 25 0 0 1-4.71 1.35c-6.09 1.15-14.15.67-23.89-2.43a35.3 35.3 0 0 0 12.26 6.16 35.9 35.9 0 0 0 13.66 1c.66-.07 1.3-.17 1.94-.28a35.4 35.4 0 0 0 7.28-2.08 34 34 0 0 0 3.57-1.71c.34-.27.68-.55 1-.83 9.21-7.95 11.29-18.76 5.79-27.33" class="cls-1"/><path d="M48 62.33c11.39-4.64 12-16.4-1.23-23-9.62-4.81-5.37-12.45 6.5-9.2 13.3 3.46 9.38 26.56-5.27 32.2" class="cls-1"/><path d="M65.71 23.75c-12.52-4-22.23-3.64-28.6-1.07h-.1c-9.47 3.9-11.49 12.68-4.29 19.32-1.9-1.57-4.06-3.24-5-5.37a16.3 16.3 0 0 1-1.08-8.91 13.11 13.11 0 0 1 7-9.38 21.2 21.2 0 0 1 6.11-1.76 35.18 35.18 0 0 1 25.96 7.17" class="cls-1"/><path d="M34.84 55.57c-.82-.26-1.75-.39-2.51-.7C22.66 51 17.5 43.75 17.68 36.61c.14-5.07 3.11-10.2 8-14.44A33.3 33.3 0 0 1 30.53 19a35.4 35.4 0 0 1 7.28-2.09c.65-.11 1.31-.21 2-.29a18 18 0 0 0-2.24.48C25 20.47 24.3 35 32.72 42a23.7 23.7 0 0 0 5.51 3.72c8.77 4.38 6.05 11.07-3.39 9.85" class="cls-1"/><path d="M34.84 55.57a22.5 22.5 0 0 1-3.1-.63C13.2 49.87 10.48 34.13 22 24.11A30.6 30.6 0 0 1 30.53 19a31.7 31.7 0 0 0-4.6 3.29c-12.26 10.64-9.82 27.22 8.91 33.28" class="cls-1"/></g></svg>