<svg xmlns="http://www.w3.org/2000/svg" xmlns:xlink="http://www.w3.org/1999/xlink" viewBox="15.29 1.32 155.07 183.38"><defs><linearGradient id="a" x1="110.9" x2="7.44" y1="-10" y2="168.13" gradientUnits="userSpaceOnUse"><stop offset="0" stop-color="#52ffd8"/><stop offset="1" stop-color="#0091eb"/></linearGradient><linearGradient xlink:href="#a" id="b" x1="74.96" x2="177.76" y1="195.43" y2="18.19"/></defs><path d="m89.96 108.49-11.22 2.58 23.1-32.65-13.79 2.99L140.23 7.3 55.87 97.14l23.32-4.93-32.73 34.29 22.21-4.76-13.24 26.34a66.57 66.57 0 0 1-29.21-54.81 66.68 66.68 0 0 1 66.36-66.86 66.4 66.4 0 0 1 22.06 3.67l8.08-8.61a77 77 0 0 0-30.18-5.99c-42.76.16-77.41 35.08-77.25 77.83a77.53 77.53 0 0 0 35.18 64.62L37.02 184.7l52.94-76.19Z" style="fill:url(#a)"/><path d="m135.15 28.07 13.5-26.75-52.18 74.11 13.79-2.99-23.1 32.65 11.22-2.58-52.94 76.19 83.26-91.31-19.94 4.24 28.52-33.59-19.33 4.1 12.23-24.23a66.57 66.57 0 0 1 29.26 54.85 66.68 66.68 0 0 1-66.36 66.86 66.3 66.3 0 0 1-22.54-3.84l-7.89 8.65a77 77 0 0 0 30.46 6.11c42.76-.16 77.41-35.08 77.25-77.83a77.5 77.5 0 0 0-35.23-64.64Z" style="fill:url(#b)"/></svg>