<svg xmlns="http://www.w3.org/2000/svg" data-name="Layer 1" viewBox="0 0 180 180"><defs><linearGradient id="a" x1="202.9" x2="203.8" y1="544.7" y2="545.6" gradientTransform="matrix(180 0 0 -180 -36456 98005)" gradientUnits="userSpaceOnUse"><stop offset="0"/><stop offset="1"/></linearGradient></defs><path fill="url(#a)" d="M201 60a39 39 0 0 0-39 39v43h-24V99a39 39 0 0 0-78 0v102a39 39 0 0 0 78 0v-43h24v43a39 39 0 0 0 78 0V99a39 39 0 0 0-39-39M99 76a23 23 0 0 1 23 23v45a131 131 0 0 0-33 9 60 60 0 0 0-13 8V99a23 23 0 0 1 23-23m23 125a23 23 0 1 1-46 0v-10c0-9 7-18 19-23a113 113 0 0 1 27-8zm79 23a23 23 0 0 1-23-23v-45a131 131 0 0 0 33-9 60 60 0 0 0 13-8v62a23 23 0 0 1-23 23m4-92a113 113 0 0 1-27 8V99a23 23 0 1 1 46 0v10c0 9-7 18-19 23" transform="translate(-60 -60)"/></svg>