<?xml version="1.0" encoding="UTF-8"?>
<!DOCTYPE svg PUBLIC "-//W3C//DTD SVG 1.1//EN" "http://www.w3.org/Graphics/SVG/1.1/DTD/svg11.dtd">
<svg xmlns="http://www.w3.org/2000/svg" version="1.1" width="400px" height="400px" style="shape-rendering:geometricPrecision; text-rendering:geometricPrecision; image-rendering:optimizeQuality; fill-rule:evenodd; clip-rule:evenodd" xmlns:xlink="http://www.w3.org/1999/xlink">
<g><path style="opacity:1" fill="#2539ef" d="M -0.5,-0.5 C 132.833,-0.5 266.167,-0.5 399.5,-0.5C 399.5,132.833 399.5,266.167 399.5,399.5C 266.167,399.5 132.833,399.5 -0.5,399.5C -0.5,266.167 -0.5,132.833 -0.5,-0.5 Z"/></g>
<g><path style="opacity:1" fill="#fdfdfe" d="M 234.5,362.5 C 233.833,362.5 233.5,362.167 233.5,361.5C 275.591,348.576 303.758,321.243 318,279.5C 332.828,223.989 318.328,177.822 274.5,141C 240.729,116.981 203.729,110.314 163.5,121C 121.907,135.593 94.0737,163.76 80,205.5C 67.8748,255.104 79.7082,297.937 115.5,334C 131.153,347.829 149.153,357.496 169.5,363C 122.801,354.234 86.3012,330.067 60,290.5C 26.9803,234.221 24.9803,176.888 54,118.5C 90.0919,58.6969 143.259,30.1969 213.5,33C 277.13,40.6612 322.964,73.1612 351,130.5C 373.733,185.87 369.733,239.204 339,290.5C 313.732,328.23 278.899,352.23 234.5,362.5 Z"/></g>
<g><path style="opacity:1" fill="#fdfdfe" d="M 223.5,362.5 C 220.997,363.084 218.497,363.751 216,364.5C 215.235,364.43 214.735,364.097 214.5,363.5C 235.085,353.67 243.585,337.336 240,314.5C 229.953,287.893 211.12,278.393 183.5,286C 158.583,300.088 152.083,320.255 164,346.5C 169.319,354.668 176.485,360.334 185.5,363.5C 185.083,364.124 184.416,364.457 183.5,364.5C 180.815,363.829 178.148,363.162 175.5,362.5C 141.664,350.816 122.164,327.149 117,291.5C 115.002,250.639 132.502,221.806 169.5,205C 205.092,193.183 235.926,200.683 262,227.5C 287.056,260.371 289.056,294.704 268,330.5C 256.667,345.995 241.833,356.662 223.5,362.5 Z"/></g>
<g><path style="opacity:1" fill="#787df4" d="M 233.5,361.5 C 233.5,362.167 233.833,362.5 234.5,362.5C 228.365,364.139 222.032,365.473 215.5,366.5C 209.736,365.781 209.403,364.781 214.5,363.5C 214.735,364.097 215.235,364.43 216,364.5C 218.497,363.751 220.997,363.084 223.5,362.5C 223.917,363.124 224.584,363.457 225.5,363.5C 228.185,362.829 230.852,362.162 233.5,361.5 Z"/></g>
<g><path style="opacity:1" fill="#636df3" d="M 175.5,362.5 C 178.148,363.162 180.815,363.829 183.5,364.5C 184.416,364.457 185.083,364.124 185.5,363.5C 187.195,364.011 188.861,364.678 190.5,365.5C 183.784,366.33 177.117,365.83 170.5,364C 172.382,363.802 174.048,363.302 175.5,362.5 Z"/></g>
</svg>
