<svg xmlns="http://www.w3.org/2000/svg" width="400" height="400" style="shape-rendering:geometricPrecision;text-rendering:geometricPrecision;image-rendering:optimizeQuality;fill-rule:evenodd;clip-rule:evenodd"><defs><clipPath id="a"><circle cx="200" cy="200" r="200"/></clipPath></defs><g clip-path="url(#a)"><path fill="#2539ef" d="M-.5-.5h400v400H-.5V-.5Z" style="opacity:1"/><path fill="#fdfdfe" d="M234.5 362.5c-.667 0-1-.333-1-1 42.091-12.924 70.258-40.257 84.5-82 14.828-55.511.328-101.678-43.5-138.5-33.771-24.019-70.771-30.686-111-20-41.593 14.593-69.426 42.76-83.5 84.5-12.125 49.604-.292 92.437 35.5 128.5 15.653 13.829 33.653 23.496 54 29-46.699-8.766-83.199-32.933-109.5-72.5-33.02-56.279-35.02-113.612-6-172C90.092 58.697 143.259 30.197 213.5 33c63.63 7.661 109.464 40.161 137.5 97.5 22.733 55.37 18.733 108.704-12 160-25.268 37.73-60.101 61.73-104.5 72Z" style="opacity:1"/><path fill="#fdfdfe" d="M223.5 362.5a124.79 124.79 0 0 0-7.5 2c-.765-.07-1.265-.403-1.5-1 20.585-9.83 29.085-26.164 25.5-49-10.047-26.607-28.88-36.107-56.5-28.5-24.917 14.088-31.417 34.255-19.5 60.5 5.319 8.168 12.485 13.834 21.5 17-.417.624-1.084.957-2 1l-8-2c-33.836-11.684-53.336-35.351-58.5-71-1.998-40.861 15.502-69.694 52.5-86.5 35.592-11.817 66.426-4.317 92.5 22.5 25.056 32.871 27.056 67.204 6 103-11.333 15.495-26.167 26.162-44.5 32Z" style="opacity:1"/><path fill="#787df4" d="M233.5 361.5c0 .667.333 1 1 1a184.734 184.734 0 0 1-19 4c-5.764-.719-6.097-1.719-1-3 .235.597.735.93 1.5 1a124.79 124.79 0 0 1 7.5-2c.417.624 1.084.957 2 1l8-2Z" style="opacity:1"/><path fill="#636df3" d="m175.5 362.5 8 2c.916-.043 1.583-.376 2-1a31.283 31.283 0 0 1 5 2c-6.716.83-13.383.33-20-1.5 1.882-.198 3.548-.698 5-1.5Z" style="opacity:1"/></g></svg>