<svg xmlns="http://www.w3.org/2000/svg" width="400" height="400" style="shape-rendering:geometricPrecision;text-rendering:geometricPrecision;image-rendering:optimizeQuality;fill-rule:evenodd;clip-rule:evenodd"><defs><clipPath id="a"><circle cx="200" cy="200" r="200"/></clipPath></defs><g clip-path="url(#a)"><path fill="#2539ef" d="M-.5-.5h400v400H-.5z" style="opacity:1"/><path fill="#fdfdfe" d="M234.5 362.5q-1 0-1-1 63.137-19.386 84.5-82 22.242-83.267-43.5-138.5-50.657-36.029-111-20-62.39 21.89-83.5 84.5-18.188 74.406 35.5 128.5 23.48 20.744 54 29Q99.452 349.85 60 290.5q-49.53-84.418-6-172Q108.138 28.796 213.5 33q95.446 11.492 137.5 97.5 34.1 83.056-12 160-37.902 56.595-104.5 72" style="opacity:1"/><path fill="#fdfdfe" d="M223.5 362.5a125 125 0 0 0-7.5 2q-1.147-.105-1.5-1 30.877-14.745 25.5-49-15.07-39.91-56.5-28.5-37.375 21.132-19.5 60.5 7.978 12.251 21.5 17-.626.936-2 1l-8-2q-50.754-17.526-58.5-71-2.997-61.291 52.5-86.5 53.388-17.726 92.5 22.5 37.584 49.306 6 103-17 23.243-44.5 32" style="opacity:1"/><path fill="#787df4" d="M233.5 361.5q0 1 1 1a185 185 0 0 1-19 4q-8.646-1.078-1-3 .353.895 1.5 1a125 125 0 0 1 7.5-2q.626.936 2 1z" style="opacity:1"/><path fill="#636df3" d="m175.5 362.5 8 2q1.374-.064 2-1a31.3 31.3 0 0 1 5 2q-10.074 1.245-20-1.5 2.822-.297 5-1.5" style="opacity:1"/></g></svg>