<svg xmlns="http://www.w3.org/2000/svg" viewBox="0 0 500 436.86"><path d="M500 28.7c0 43.56-42.08 52.6-42.08 52.6l-207.94 57.86c.26-.79 24.72-85.22 64.18-96.37C353.6 31.64 457.92 2.87 457.92 2.87S500.21-12.7 500 28.7ZM365.39 186.77s-20.1 5.26-59.44 16.52c-39.35 11.26-55.81 93.69-55.97 94.37L42.09 355.52S0 364.52 0 408.13c-.21 41.4 42.08 25.88 42.08 25.88s112.26-31.56 151.6-42.82c39.35-11.26 56.08-92.74 56.29-93.48l115.73-32.46s42.08-8.36 42.08-51.87-42.4-26.62-42.4-26.62ZM92.17 223.49c0 41.24 42.08 25.72 42.08 25.72s20.15-5.26 59.5-16.57 56.13-92.74 56.23-93.48l-115.73 32.46s-42.08 8.36-42.08 51.87Z" style="fill:#ff4900"/></svg>