<svg xmlns="http://www.w3.org/2000/svg" width="1280" height="1280" viewBox="0 0 1024 1024"><path d="M0 0h1024v1024H0z"/><path d="m500 252 5 1 22 13 23 14 21 13 45 27 26 16 32 19 26 16 10 6-1 3-29 17-21 13-22 13-28 17-20 12-84 51-10 7-2 4v126l-6-2-17-11-23-14-40-25-19-12-26-16-19-12-44-27-5-3V371l9-6 20-11 24-14 21-12 26-15 1-1 7 1 30 19 84 52 7 3 8-1 5-4 2-4v-7l-3-5-9-7-20-12-38-24-26-16-16-10v-3l19-10 24-14 26-15z"/><path fill="#FEFEFE" d="m500 222 8 1 27 16 28 17 20 12 21 13 20 12 28 17 32 19 16 10 28 17 17 11 4 5 1 2v8l-4 6-9 7-29 17-55 33-56 34-15 9-28 17-25 15-9 5v118l20-12 16-10 35-21 23-14 35-21 28-17 20-12 28-17 10-6 8-1 8 4 3 5 1 6-4 8-10 7-20 12-28 17-35 21-23 14-28 17-22 13-15 9-26 16-23 14-1 91 16-9 28-17 24-14 32-19 25-15 26-15 40-24 24-14 9-2 7 3 4 5 1 9-3 6h-2v2l-29 17-32 19-29 17-15 9-29 17-20 12-49 29-22 13-12 7-3 1h-7l-8-5-2-3-1-5-1-117-18-11-22-14-21-13-24-15-18-11-48-30-38-24-8-5-1 103-3 7-5 4h-12l-5-5-2-4V357l5-5 24-14 28-16 26-15 28-16 19-11 23-13 24-14 25-14 17-10zm0 30-24 14-28 16-18 10-5 3 4 4 23 14 72 45 10 7 3 3 1 3v7l-4 6-6 3-8-1-14-8-24-15-26-16-19-12-21-13-16-10h-5l-15 9-23 13-24 14-26 15-12 7-1 1v147l17 10 19 12 26 16 19 12 34 21 22 14 52 32 8 5 2-1V514l3-5 14-9 20-12 84-51 20-12 28-17 22-13 20-12 6-4v-2l-20-12-28-17-30-18-18-11-20-12-28-17-26-16-15-9-22-13z"/></svg>