<svg xmlns="http://www.w3.org/2000/svg" fill="none" viewBox="0 -0.1 24 24.1"><path fill="url(#a)" d="M12 3.6c0-.2.3-.3.5-.1a8.6 8.6 0 0 0 10.3 3.2 12 12 0 0 0-22.2 9A12.4 12.4 0 0 0 12 3.6"/><path fill="url(#b)" d="M12 24A12 12 0 0 0 23.4 8.3 12.4 12.4 0 0 0 12 20.4c0 .2-.3.3-.4.1a8.6 8.6 0 0 0-10.3-3.2c2 4 6 6.7 10.7 6.7"/><defs><linearGradient id="a" x1="22.8" x2="9.6" y1="0" y2="18.5" gradientUnits="userSpaceOnUse"><stop stop-color="#4B1BF9"/><stop offset="1" stop-color="#3ECCEE"/></linearGradient><linearGradient id="b" x1="24" x2="10.8" y1="8.3" y2="26.8" gradientUnits="userSpaceOnUse"><stop stop-color="#F20A49"/><stop offset=".5" stop-color="#C119E7"/><stop offset="1" stop-color="#4675F3"/></linearGradient></defs></svg>