<svg xmlns="http://www.w3.org/2000/svg" viewBox="-0.32 -0.55 1007.84 513.07"><path fill="#0040FF" d="m255.625-.313 2.94.006C272.914-.262 286.878.243 301 3l2.718.488C347.323 11.378 388.46 31.068 422 60l2.258 1.922C437.763 73.733 450.434 86.484 461 101l2.57 3.45c6.04 8.19 11.4 16.706 16.43 25.55l1.104 1.915C496.003 157.944 505.646 187.36 510 217l.537 3.65c1.6 11.658 1.821 23.222 1.776 34.975l-.006 2.94c-.045 14.35-.55 28.314-3.307 42.435l-.488 2.718C500.622 347.323 480.932 388.46 452 422l-1.922 2.258C438.267 437.763 425.516 450.434 411 461l-3.45 2.57c-8.19 6.04-16.706 11.4-25.55 16.43l-1.915 1.104C354.056 496.003 324.64 505.646 295 510l-3.65.537c-11.658 1.6-23.222 1.821-34.975 1.776l-2.94-.006c-14.35-.045-28.314-.55-42.435-3.307l-2.718-.488C164.569 500.602 123.722 480.816 90 452l-2.27-1.93C74.235 438.253 61.564 425.514 51 411l-2.57-3.45C42.39 399.36 37.03 390.845 32 382l-1.104-1.915C15.997 354.056 6.354 324.64 2 295l-.537-3.65c-1.6-11.658-1.821-23.222-1.776-34.975l.006-2.94C-.262 239.086.243 225.122 3 211l.488-2.718C11.378 164.677 31.068 123.54 60 90l1.922-2.258C73.733 74.237 86.484 61.566 101 51l3.45-2.57c8.19-6.04 16.706-11.4 25.55-16.43l1.915-1.104C157.944 15.997 187.36 6.354 217 2l3.65-.537c11.658-1.6 23.222-1.821 34.975-1.776M147 145l-2.184 1.992c-27.155 25.655-42.663 64.751-44.132 101.649-1.056 42.972 12.707 82.605 42.199 114.144L145 365l1.992 2.184c25.655 27.155 64.751 42.663 101.649 44.132 42.972 1.056 82.605-12.707 114.144-42.199L365 367l2.184-1.992c27.155-25.655 42.663-64.751 44.132-101.649 1.056-42.972-12.707-82.605-42.199-114.144L367 147l-1.992-2.184c-25.655-27.155-64.751-42.663-101.649-44.132C219.057 99.595 179.084 114.33 147 145m570.969 263.746 2.972-.018 3.243.011 3.463-.011c3.838-.01 7.675-.007 11.513-.003q4.122-.006 8.244-.015 10.041-.018 20.084-.012 8.162.002 16.325-.005l2.346-.001 4.72-.004q22.132-.014 44.266-.003c13.497.006 26.994-.006 40.491-.025q20.79-.03 41.58-.024c7.78.002 15.561 0 23.342-.014a5480 5480 0 0 1 19.873-.002q5.068.01 10.137-.005c3.665-.01 7.33-.002 10.994.01l3.23-.022c7.348.054 12.31.885 18.02 5.834 3.992 4.676 4.486 8.207 4.479 14.266l.02 2.337c.019 2.546.023 5.093.025 7.64l.02 5.32q.017 5.576.015 11.152c0 4.757.027 9.513.061 14.27.022 3.664.026 7.327.025 10.99q.005 2.63.027 5.26c.02 2.456.014 4.91.002 7.367l.034 2.182c-.063 5.053-1.373 7.875-4.52 11.779-4.039 3.558-6.332 5.123-11.677 5.134l-3.008.014h-3.328l-3.517.01q-4.847.014-9.694.017-5.223.007-10.444.022c-8.413.02-16.827.03-25.24.039l-11.881.015a53185 53185 0 0 1-49.742.044l-2.574.002c-13.76.008-27.519.033-41.278.066q-21.183.049-42.365.054c-7.931.002-15.862.011-23.792.036q-10.131.034-20.263.02c-3.446-.004-6.892-.002-10.337.017-3.738.018-7.475.01-11.212-.002l-3.294.033c-6.339-.054-10.21-.722-15.354-4.521-4.579-5.784-5.123-9.883-5.161-17.12l-.015-2.15q-.021-3.513-.027-7.027l-.017-4.903q-.015-5.139-.02-10.279c-.006-4.375-.03-8.75-.058-13.126a2012 2012 0 0 1-.026-10.13 767 767 0 0 0-.024-4.837c-.14-18.54-.14-18.54 4.694-23.928 4.405-3.96 8.757-5.748 14.623-5.754M620.576-.508l3.518-.019c3.209-.013 6.417-.008 9.626.004 3.466.01 6.931-.005 10.397-.016 6.784-.018 13.568-.014 20.352-.002q8.271.013 16.542.006l2.38-.002 4.786-.004c14.953-.011 29.907.002 44.86.023q19.242.026 38.482-.003a19770 19770 0 0 1 49.47-.014l2.37.002q8.26.003 16.52-.012a4223 4223 0 0 1 20.135.013c3.424.01 6.847.015 10.271.001 3.713-.01 7.426.003 11.139.023l3.272-.027C891.012-.469 894.874.215 900 4c4.218 5.44 5.152 9.571 5.193 16.282l.025 2.238q.035 3.668.055 7.335l.017 2.536q.039 6.647.06 13.294.02 5.49.082 10.978c.05 4.426.074 8.851.081 13.277q.01 2.523.046 5.046c.214 15.868.214 15.868-4.178 21.642-4.503 4.475-8.84 6.493-15.1 6.506l-2.96.014h-3.258l-3.455.01q-4.755.014-9.511.017-5.126.007-10.252.022c-8.255.02-16.51.03-24.766.039l-11.663.015a51283 51283 0 0 1-48.832.044l-2.526.002c-13.503.008-27.006.033-40.509.066q-20.794.049-41.59.054c-7.783.002-15.566.01-23.35.036q-9.944.034-19.887.02-5.071-.007-10.144.017c-3.669.018-7.337.01-11.006-.002l-3.225.033c-6.955-.06-12.718-1.063-17.903-6.004-4.206-4.81-4.6-8.766-4.637-14.89l-.025-2.269q-.035-3.716-.055-7.432l-.017-2.57a5037 5037 0 0 1-.06-13.468 1473 1473 0 0 0-.082-11.124c-.05-4.484-.074-8.967-.081-13.452a503 503 0 0 0-.046-5.113c-.213-15.994-.213-15.994 3.8-21.682 6.566-5.663 11.911-6.095 20.335-6.025m152.809 204.233 2.126-.015c2.299-.014 4.597-.013 6.895-.01l4.83-.014q5.048-.01 10.097-.002c4.3.006 8.6-.01 12.9-.034 3.323-.015 6.644-.016 9.966-.013q2.377 0 4.756-.015c2.22-.013 4.44-.006 6.66.006l3.819-.002c6.07.637 11.21 3.018 15.566 7.374 2.587 5.07 3.378 8.794 3.388 14.568l.016 2.186c.013 2.364.005 4.726-.006 7.09a1945 1945 0 0 1-.007 15.343c-.017 4.422-.007 8.843.01 13.264.012 3.415.008 6.83 0 10.244q-.003 2.445.008 4.89c.008 2.282-.004 4.564-.02 6.847l-.008 3.926c-.692 6.617-3.158 11.369-8.381 15.642-5.02 2.527-8.664 3.377-14.369 3.388l-2.122.016a678 678 0 0 1-6.88-.006 1836 1836 0 0 1-14.906-.007c-4.292-.017-8.583-.007-12.875.01-3.317.012-6.635.008-9.952 0q-2.373-.003-4.745.008c-18.056.062-18.056.062-25.026-5.847-3.901-4.704-4.423-8.23-4.416-14.265l-.02-2.337c-.019-2.546-.023-5.093-.025-7.64l-.02-5.32a3150 3150 0 0 1-.015-11.152c0-4.757-.027-9.513-.061-14.27a1726 1726 0 0 1-.025-10.99 703 703 0 0 0-.027-5.26c-.02-2.456-.014-4.91-.002-7.367l-.034-2.182c.077-6.159 2.605-9.402 6.333-14.029 4.788-3.831 10.65-4.003 16.572-4.025m150.897-101.902 2.238-.02q3.668-.028 7.335-.041l2.536-.013q6.647-.03 13.294-.044c4.565-.011 9.13-.046 13.695-.085 3.52-.027 7.04-.035 10.56-.038q2.523-.008 5.046-.035c16.389-.17 16.389-.17 23.014 4.453 4.684 4.924 5.15 8.945 5.161 15.497l.015 2.307q.021 3.78.027 7.56l.017 5.257q.015 5.514.02 11.028c.006 4.704.03 9.408.058 14.113.019 3.62.024 7.242.026 10.863q.004 2.601.024 5.202c.017 2.43.015 4.858.008 7.288l.028 2.158c-.044 5.315-1.265 9.404-4.884 13.372-5.082 3.957-8.708 4.51-14.966 4.548l-2.297.025q-3.765.035-7.53.055l-2.603.017q-6.82.039-13.643.06-5.635.02-11.27.082c-4.542.05-9.084.074-13.626.081q-2.59.01-5.18.046c-16.833.22-16.833.22-21.972-4-6.951-7.668-6-16.892-5.944-26.684l-.012-5.02q-.008-5.245.022-10.49c.022-4.465.01-8.93-.015-13.395-.014-3.452-.01-6.904 0-10.357q.005-2.468-.01-4.937c-.079-17.89-.079-17.89 6.029-24.21 4.758-4.226 8.708-4.62 14.799-4.643M626.781 306.336q2.61-.005 5.222-.015 5.457-.009 10.914.027c4.647.029 9.292.012 13.94-.018 3.59-.018 7.182-.012 10.773 0q2.57.006 5.138-.011c16.013-.086 16.013-.086 21.716 3.927 4.57 5.288 6.114 9.748 6.05 16.674l.026 2.299c.022 2.488.015 4.976.006 7.465a1591 1591 0 0 1 .01 16.157c-.017 4.655.007 9.309.042 13.964.022 3.595.02 7.19.012 10.786q0 2.574.02 5.147c.123 16.69.123 16.69-4.096 21.843-7.71 7.037-17.104 5.988-26.968 5.915q-2.55 0-5.102.005-5.328 0-10.656-.034c-4.544-.029-9.087-.026-13.631-.013-3.507.007-7.014-.001-10.521-.014q-2.512-.006-5.026 0a686 686 0 0 1-7.027-.036l-2.079.014c-5.385-.083-9.428-1.467-13.407-5.137l-1.45-1.781-1.488-1.781c-2.616-3.75-2.36-7.627-2.376-12.001l-.02-2.238c-.02-2.445-.031-4.89-.041-7.335l-.013-2.536q-.03-6.647-.044-13.294c-.011-4.565-.046-9.13-.085-13.695-.027-3.52-.035-7.04-.038-10.56a618 618 0 0 0-.035-5.046c-.187-17.941-.187-17.941 5.873-24.567 6.652-5.44 16.253-4.166 24.361-4.111"/></svg>