<svg xmlns="http://www.w3.org/2000/svg" viewBox="-0.32 -0.55 1007.84 513.07"><path fill="#0040FF" d="m255.625-.313 2.94.006C272.914-.262 286.878.243 301 3l2.718.488C347.323 11.378 388.46 31.068 422 60l2.258 1.922C437.763 73.733 450.434 86.484 461 101l2.57 3.45c6.04 8.19 11.4 16.706 16.43 25.55l1.104 1.915C496.003 157.944 505.646 187.36 510 217l.537 3.65c1.6 11.658 1.821 23.222 1.776 34.975l-.006 2.94c-.045 14.35-.55 28.314-3.307 42.435l-.488 2.718C500.622 347.323 480.932 388.46 452 422l-1.922 2.258C438.267 437.763 425.516 450.434 411 461l-3.45 2.57c-8.19 6.04-16.706 11.4-25.55 16.43l-1.915 1.104C354.056 496.003 324.64 505.646 295 510l-3.65.537c-11.658 1.6-23.222 1.821-34.975 1.776l-2.94-.006c-14.35-.045-28.314-.55-42.435-3.307l-2.718-.488C164.569 500.602 123.722 480.816 90 452l-2.27-1.93C74.235 438.253 61.564 425.514 51 411l-2.57-3.45C42.39 399.36 37.03 390.845 32 382l-1.104-1.915C15.997 354.056 6.354 324.64 2 295l-.537-3.65c-1.6-11.658-1.821-23.222-1.776-34.975l.006-2.94C-.262 239.086.243 225.122 3 211l.488-2.718C11.378 164.677 31.068 123.54 60 90l1.922-2.258C73.733 74.237 86.484 61.566 101 51l3.45-2.57c8.19-6.04 16.706-11.4 25.55-16.43l1.915-1.104C157.944 15.997 187.36 6.354 217 2l3.65-.537c11.658-1.6 23.222-1.821 34.975-1.776ZM147 145l-2.184 1.992c-27.155 25.655-42.663 64.751-44.132 101.649-1.056 42.972 12.707 82.605 42.199 114.144L145 365l1.992 2.184c25.655 27.155 64.751 42.663 101.649 44.132 42.972 1.056 82.605-12.707 114.144-42.199L365 367l2.184-1.992c27.155-25.655 42.663-64.751 44.132-101.649 1.056-42.972-12.707-82.605-42.199-114.144L367 147l-1.992-2.184c-25.655-27.155-64.751-42.663-101.649-44.132C219.057 99.595 179.084 114.33 147 145ZM717.969 408.746l2.972-.018 3.243.011 3.463-.011c3.838-.01 7.675-.007 11.513-.003 2.748-.003 5.496-.01 8.244-.015 6.694-.013 13.389-.015 20.084-.012 5.441.001 10.883 0 16.325-.005l2.346-.001 4.72-.004c14.755-.01 29.51-.009 44.266-.003 13.497.006 26.994-.006 40.491-.025 13.86-.02 27.72-.027 41.58-.024 7.78.002 15.561 0 23.342-.014a5479.79 5479.79 0 0 1 19.873-.002c3.379.006 6.758.006 10.137-.005 3.665-.01 7.33-.002 10.994.01l3.23-.022c7.348.054 12.31.885 18.02 5.834 3.992 4.676 4.486 8.207 4.479 14.266l.02 2.337c.019 2.546.023 5.093.025 7.64l.02 5.32c.012 3.717.016 7.435.015 11.152 0 4.757.027 9.513.061 14.27.022 3.664.026 7.327.025 10.99.003 1.753.012 3.507.027 5.26.02 2.456.014 4.91.002 7.367l.034 2.182c-.063 5.053-1.373 7.875-4.52 11.779-4.039 3.558-6.332 5.123-11.677 5.134l-3.008.014h-3.328l-3.517.01c-3.231.01-6.463.014-9.694.017-3.482.004-6.963.013-10.444.022-8.413.02-16.827.03-25.24.039l-11.881.015a53185.38 53185.38 0 0 1-49.742.044l-2.574.002c-13.76.008-27.519.033-41.278.066-14.122.033-28.243.05-42.365.054-7.931.002-15.862.011-23.792.036-6.754.022-13.509.03-20.263.02-3.446-.004-6.892-.002-10.337.017-3.738.018-7.475.01-11.212-.002l-3.294.033c-6.339-.054-10.21-.722-15.354-4.521-4.579-5.784-5.123-9.883-5.161-17.12l-.015-2.15c-.015-2.342-.022-4.685-.027-7.027l-.017-4.903c-.01-3.426-.017-6.852-.02-10.279-.006-4.375-.03-8.75-.058-13.126-.019-3.377-.024-6.753-.026-10.13a766.554 766.554 0 0 0-.024-4.837c-.14-18.54-.14-18.54 4.694-23.928 4.405-3.96 8.757-5.748 14.623-5.754ZM620.576-.508l3.518-.019c3.209-.013 6.417-.008 9.626.004 3.466.01 6.931-.005 10.397-.016 6.784-.018 13.568-.014 20.352-.002 5.514.009 11.028.01 16.542.006l2.38-.002 4.786-.004c14.953-.011 29.907.002 44.86.023 12.828.018 25.655.015 38.482-.003a19770.053 19770.053 0 0 1 49.47-.014l2.37.002c5.506.003 11.013-.003 16.52-.012 6.711-.011 13.423-.008 20.135.013 3.424.01 6.847.015 10.271.001 3.713-.01 7.426.003 11.139.023l3.272-.027C891.012-.469 894.874.215 900 4c4.218 5.44 5.152 9.571 5.193 16.282l.025 2.238c.024 2.445.041 4.89.055 7.335l.017 2.536c.026 4.431.046 8.863.06 13.294.013 3.66.041 7.319.082 10.978.05 4.426.074 8.851.081 13.277.007 1.682.022 3.364.046 5.046.214 15.868.214 15.868-4.178 21.642-4.503 4.475-8.84 6.493-15.1 6.506l-2.96.014h-3.258l-3.455.01c-3.17.01-6.34.014-9.511.017-3.417.004-6.835.013-10.252.022-8.255.02-16.51.03-24.766.039-3.888.004-7.775.01-11.663.015a51283.08 51283.08 0 0 1-48.832.044l-2.526.002c-13.503.008-27.006.033-40.509.066-13.863.033-27.726.05-41.59.054-7.783.002-15.566.01-23.35.036-6.63.022-13.258.03-19.887.02-3.381-.004-6.762 0-10.144.017-3.669.018-7.337.01-11.006-.002l-3.225.033c-6.955-.06-12.718-1.063-17.903-6.004-4.206-4.81-4.6-8.766-4.637-14.89l-.025-2.269c-.024-2.477-.041-4.955-.055-7.432l-.017-2.57c-.026-4.489-.046-8.978-.06-13.468-.013-3.708-.041-7.416-.082-11.124-.05-4.484-.074-8.967-.081-13.452a503.14 503.14 0 0 0-.046-5.113c-.213-15.994-.213-15.994 3.8-21.682 6.566-5.663 11.911-6.095 20.335-6.025ZM773.385 203.725l2.126-.015c2.299-.014 4.597-.013 6.895-.01l4.83-.014c3.366-.007 6.731-.007 10.097-.002 4.3.006 8.6-.01 12.9-.034 3.323-.015 6.644-.016 9.966-.013 1.585 0 3.17-.005 4.756-.015 2.22-.013 4.44-.006 6.66.006l3.819-.002c6.07.637 11.21 3.018 15.566 7.374 2.587 5.07 3.378 8.794 3.388 14.568l.016 2.186c.013 2.364.005 4.726-.006 7.09a1944.701 1944.701 0 0 1-.007 15.343c-.017 4.422-.007 8.843.01 13.264.012 3.415.008 6.83 0 10.244-.002 1.63 0 3.26.008 4.89.008 2.282-.004 4.564-.02 6.847l-.008 3.926c-.692 6.617-3.158 11.369-8.381 15.642-5.02 2.527-8.664 3.377-14.369 3.388l-2.122.016a677.93 677.93 0 0 1-6.88-.006 1835.56 1835.56 0 0 1-14.906-.007c-4.292-.017-8.583-.007-12.875.01-3.317.012-6.635.008-9.952 0-1.582-.002-3.163 0-4.745.008-18.056.062-18.056.062-25.026-5.847-3.901-4.704-4.423-8.23-4.416-14.265l-.02-2.337c-.019-2.546-.023-5.093-.025-7.64l-.02-5.32a3150.41 3150.41 0 0 1-.015-11.152c0-4.757-.027-9.513-.061-14.27a1726.03 1726.03 0 0 1-.025-10.99 702.683 702.683 0 0 0-.027-5.26c-.02-2.456-.014-4.91-.002-7.367l-.034-2.182c.077-6.159 2.605-9.402 6.333-14.029 4.788-3.831 10.65-4.003 16.572-4.025ZM924.282 101.823l2.238-.02c2.445-.02 4.89-.031 7.335-.041l2.536-.013c4.431-.02 8.863-.035 13.294-.044 4.565-.011 9.13-.046 13.695-.085 3.52-.027 7.04-.035 10.56-.038 1.682-.005 3.364-.017 5.046-.035 16.389-.17 16.389-.17 23.014 4.453 4.684 4.924 5.15 8.945 5.161 15.497l.015 2.307c.015 2.52.022 5.04.027 7.56l.017 5.257c.01 3.676.017 7.352.02 11.028.006 4.704.03 9.408.058 14.113.019 3.62.024 7.242.026 10.863.003 1.734.01 3.468.024 5.202.017 2.43.015 4.858.008 7.288l.028 2.158c-.044 5.315-1.265 9.404-4.884 13.372-5.082 3.957-8.708 4.51-14.966 4.548l-2.297.025c-2.51.024-5.02.041-7.53.055l-2.603.017c-4.547.026-9.095.046-13.643.06-3.757.013-7.513.041-11.27.082-4.542.05-9.084.074-13.626.081-1.727.007-3.454.022-5.18.046-16.833.22-16.833.22-21.972-4-6.951-7.668-6-16.892-5.944-26.684-.003-1.673-.007-3.347-.012-5.02-.006-3.497.003-6.993.022-10.49.022-4.465.01-8.93-.015-13.395-.014-3.452-.01-6.904 0-10.357.003-1.645 0-3.291-.01-4.937-.079-17.89-.079-17.89 6.029-24.21 4.758-4.226 8.708-4.62 14.799-4.643ZM626.781 306.336c1.74-.003 3.481-.008 5.222-.015 3.638-.007 7.276.004 10.914.027 4.647.029 9.292.012 13.94-.018 3.59-.018 7.182-.012 10.773 0 1.713.004 3.426 0 5.138-.011 16.013-.086 16.013-.086 21.716 3.927 4.57 5.288 6.114 9.748 6.05 16.674l.026 2.299c.022 2.488.015 4.976.006 7.465a1591.425 1591.425 0 0 1 .01 16.157c-.017 4.655.007 9.309.042 13.964.022 3.595.02 7.19.012 10.786 0 1.716.006 3.431.02 5.147.123 16.69.123 16.69-4.096 21.843-7.71 7.037-17.104 5.988-26.968 5.915-1.7 0-3.401.002-5.102.005-3.552 0-7.104-.012-10.656-.034-4.544-.029-9.087-.026-13.631-.013-3.507.007-7.014-.001-10.521-.014-1.675-.004-3.35-.004-5.026 0-2.343.002-4.685-.014-7.027-.036l-2.079.014c-5.385-.083-9.428-1.467-13.407-5.137l-1.45-1.781-1.488-1.781c-2.616-3.75-2.36-7.627-2.376-12.001l-.02-2.238c-.02-2.445-.031-4.89-.041-7.335l-.013-2.536c-.02-4.431-.035-8.863-.044-13.294-.011-4.565-.046-9.13-.085-13.695-.027-3.52-.035-7.04-.038-10.56a617.546 617.546 0 0 0-.035-5.046c-.187-17.941-.187-17.941 5.873-24.567 6.652-5.44 16.253-4.166 24.361-4.111Z"/></svg>