<svg xmlns="http://www.w3.org/2000/svg" width="403" height="403" fill="none" viewBox="0 0 403 403"><rect width="388.657" height="388.657" x="7" y="7" fill="#000" stroke="url(#a)" stroke-width="14" rx="49.424"/><path fill="#fff" d="M303.754 147.02v-26.166H109.769v26.166h86.338a180.2 180.2 0 0 0-43.179 36.357h-43.159v26.165h24.316c-15.438 26.083-24.316 56.37-24.316 88.647h26.655c0-33.117 10.926-63.753 29.393-88.667h50.387c-26.071 21.08-42.741 53.007-42.741 88.667h26.655c0-48.907 40.527-88.667 90.329-88.667h13.328v-26.166H190.446c26.928-22.638 61.856-36.357 100.001-36.357h13.328z"/><defs><radialGradient id="a" cx="0" cy="0" r="1" gradientTransform="rotate(230.194 273.598 109.022)scale(503.761)" gradientUnits="userSpaceOnUse"><stop offset=".543" stop-color="#ff7ffe"/><stop offset="1" stop-color="#3700ff"/></radialGradient></defs></svg>
