<svg xmlns="http://www.w3.org/2000/svg" xml:space="preserve" viewBox="2.03 2.14 3333.71 3335.86"><path d="M804 3338H2.028V2.143H3335.74V3338c-265.14 0-530.538 0-796.808-.48-.871-.479-.97-1.435-.939-2.379.01-29.68-.01-58.415-.003-88.087.05-227.322.07-453.709.086-680.096 0-1.663-.084-3.326-.013-5.46.117-.47-.205-1.383.025-2.303.238-27.111.3-53.303.233-79.494-.041-15.9-.281-31.8-.227-48.617.066-24.303-.073-47.688-.006-71.99.07-21.643-.064-42.367.007-64.009.214-27.419.276-53.92.212-80.422-.04-16.22-.272-32.44-.21-49.576.21-53.664.221-106.41.2-159.156 0-2.641-.266-5.282-.204-8.841.215-37.714.257-74.51.214-111.304-.013-10.595-.272-21.19-.216-32.702.215-23.105.29-45.291.223-67.477-.053-17.869-.276-35.737-.224-54.524.216-7.2.274-13.483.243-19.765-.134-26.44-.293-52.878-.246-80.236.065-21.64-.067-42.36-.004-63.867.067-2.929-.063-5.072.004-8.134.065-23.64-.066-46.36 0-70 .214-11.172.286-21.425.237-31.678-.114-23.8-.286-47.601-.238-72.321.066-30.307-.066-59.694 0-90.001.064-28.973-.066-57.027 0-86 .065-28.973-.065-57.027 0-86a559 559 0 0 0 .242-19.766c-.13-26.438-.288-52.876-.24-80.234.212-70.417.243-139.914.235-209.412 0-11.967-.161-23.933-.344-36.37-.735-.133-1.376.203-2.406 1.084-44.398 45.894-88.404 91.245-132.415 136.59-109.752 113.084-219.525 226.148-329.246 339.262-22.486 23.181-44.783 46.545-67.47 69.876-.3.05-.407.652-.702.666-.701.239-.839.575-1.314 1.408-17.773 18.04-34.946 35.687-52.104 53.348-39.445 40.601-78.927 81.166-118.304 121.834-16.187 16.718-32.14 33.663-48.825 50.743-38.163 38.878-75.703 77.519-111.65 114.52-20.304-19.334-39.91-38.005-59.752-57.303-22.736-23.805-45.195-47.025-67.754-70.147-15.973-16.372-32.081-32.613-48.39-49.536-44.247-45.956-88.195-91.325-132.24-136.6-14.814-15.23-29.87-30.223-45.06-45.969-10.323-10.79-20.402-20.935-30.705-31.703-7.805-8.178-15.386-15.734-23.197-23.845-5.379-5.656-10.527-10.755-15.968-16.482-6.93-6.805-13.565-12.981-20.345-19.835-6.089-6.881-12.034-13.085-18.217-19.92-7.454-7.52-14.67-14.41-21.926-21.987-8.111-8.87-16.185-17.052-24.506-25.847-6.754-6.887-13.26-13.16-19.853-20.093-5.125-5.618-10.163-10.578-15.482-16.168-5.495-5.496-10.71-10.362-15.97-15.92-6.129-6.878-12.213-13.065-18.56-19.865-8.108-8.203-15.954-15.793-23.91-24.045-7.869-7.83-15.629-14.996-23.337-22.85-10.55-11.7-21.152-22.713-32.01-34.283-7.487-7.85-14.716-15.144-22.274-23.032-9.711-10.094-19.094-19.595-28.655-29.728-6.879-7.534-13.49-14.527-20.311-21.31-4.894-4.867-10.066-9.455-15.362-14.792-11.615-12.689-22.909-24.825-34.424-36.747-1.957-2.026-4.868-3.13-7.422-5.341-10.031-10.943-19.977-21.204-30.016-32.13-10.569-11.62-20.976-22.643-31.626-33.425-1.065-1.078-3.75-1.285-5.447-.889-10.22 2.383-16.738 10.815-16.8 21.626-.076 13.241.028 26.484.077 40.651.014 14.394-.13 27.864.077 41.329.06 3.848 1.14 7.68 1.732 12.46-.048 20.288-.079 39.637-.132 59.93-.08 19.614-.136 38.284-.58 57.69-.338 16.348-.286 31.962-.44 48.486-.042 12.976.121 25.042.08 38.013-.066 17.627.071 34.348.003 51.96-.11 6.994-.015 13.097-.123 19.792-.072 1.407.057 2.221.026 3.888.03 3.722.221 6.592.192 10.362-.066 12.27.09 23.638.011 35.914-.072 10.965.089 21.023.013 31.99-.102 17.661.035 34.413-.037 52.067-.04 10.303.128 19.704.06 30.004-.082 13.61.073 26.32-.007 39.94-.352 38.282-.48 75.655-.564 113.028-.004 1.962.37 3.925.402 6.704.023 3.012.213 5.206.154 8.298-.082 10.969.086 21.04.004 32.012-.088 16.304.073 31.709-.01 48.013-.289 94.29-.335 187.681-.347 281.072 0 1.968.385 3.936.329 6.81-.293 61.023-.33 121.139-.328 181.255 0 1.967.386 3.934.329 6.801-.294 29.022-.364 57.143-.326 85.265.009 6.59.384 13.181.326 20.678-.294 10.488-.414 20.071-.334 29.652.132 15.836.392 31.67.335 48.406-.296 36.675-.339 72.45-.332 108.225 0 2.293.388 4.585.333 7.778-.296 39.654-.338 78.408-.334 117.163 0 1.96.389 3.921.334 6.787-.327 20.728-.391 40.551-.584 61.35-.184 3.97-.287 6.966-.287 9.962-.006 251.396-.005 502.793.015 754.19 0 3.323.25 6.646.251 10.375-.132.407-.343 1.236-.343 1.236z"/><path fill="#550" d="M2537.963 3336.085s.099.956.068 1.436c-577.423.479-1154.815.479-1733.12.479-.911 0-.7-.83.315-1.347 5.346-.57 9.677-.665 14.008-.665 383.273 0 766.546 0 1149.82.019 189.636.008 379.272.05 568.91.078z"/><path fill="#29290C" d="M2537.994 3335.141c-189.668.917-379.304.874-568.94.866-383.274-.018-766.547-.018-1149.82-.019-4.33 0-8.662.095-13.876.258-1.016-3.211-1.266-6.534-1.266-9.857-.02-251.397-.021-502.794-.015-754.19 0-2.996.103-5.991.72-9.899.562-.912 1.209-.32 1.828.233 2.906.844 5.192 1.39 7.478 1.39 140.575.007 281.15-.032 421.79.878.093 4.61.144 8.276.144 11.942q-.002 319.97-.009 639.941v13.655c4.125-3.792 6.595-5.846 8.816-8.14 18.065-18.654 36.063-37.371 54.122-56.031 21.303-22.012 42.642-43.99 63.973-65.975 22.027-22.703 44.062-45.398 66.094-68.097l66.094-68.097q33.047-34.05 66.095-68.097c22.031-22.7 44.011-45.448 66.115-68.077 12.11-12.397 24.407-24.614 36.68-36.85 1.81-1.805 3.96-3.267 6.36-5.218 2.825 2.644 5.317 4.789 7.596 7.14 18.767 19.366 37.469 38.795 56.239 58.158 22.945 23.67 45.947 47.285 68.907 70.94 21.104 21.742 42.155 43.535 63.285 65.252 26.94 27.69 53.972 55.287 80.89 82.996 16.933 17.43 33.643 35.078 50.607 52.477 33.019 33.864 66.135 67.633 99.258 101.396 1.687 1.72 3.81 3.015 6.87 5.394 0-12.296-.009-22.928.002-33.56.063-64.659.132-129.318.937-193.95 5.021 1.781 9.52 3.146 13.543 5.373 9.596 5.31 18.94 11.073 28.433 16.571 19.563 11.33 39.156 22.61 58.74 33.905 19.87 11.463 39.755 22.9 59.612 34.385 22.735 13.15 45.434 26.364 68.174 39.507 19.862 11.479 39.764 22.887 59.637 34.345 19.298 11.126 38.584 22.272 57.87 33.417 23.317 13.474 46.58 27.039 69.976 40.373 5.444 3.103 11.329 5.43 17.01 8.114.021 28.736.042 57.472.031 87.151"/><path fill="#29291E" d="M2537.991 3247.054c-5.71-1.748-11.594-4.075-17.038-7.178-23.395-13.334-46.66-26.9-69.975-40.373-19.287-11.145-38.573-22.291-57.871-33.417-19.873-11.458-39.775-22.866-59.637-34.345-22.74-13.143-45.439-26.357-68.174-39.507-19.857-11.485-39.742-22.922-59.613-34.385-19.583-11.296-39.176-22.574-58.74-33.905-9.492-5.498-18.836-11.261-28.432-16.571-4.022-2.227-8.522-3.592-13.605-6.307-.82-145.148-.843-289.338-.853-433.528 0-1.995.146-3.99 1.139-5.875 31.03.03 61.144-.05 92.024.048 20.943.2 41.122.281 61.3.224 19.837-.056 39.672-.253 60.428-.211 71.018.207 141.115.241 211.213.253 1.983 0 3.966-.234 6.393-.18.443.177 1.398.172 1.398.172.045 1.663.13 3.326.13 4.99-.016 226.386-.038 452.773-.087 680.095"/><path fill="#FFFF05" d="M805.207 1887.971c-.206-1.968-.592-3.936-.591-5.904.012-93.39.058-186.781 1.048-281.088 4.308-2.193 7.896-3.069 10.992-4.816 15.623-8.813 31.124-17.842 46.657-26.816a45869 45869 0 0 0 57.796-33.438c22.705-13.161 45.382-26.371 68.094-39.52 20.124-11.65 40.277-23.25 60.421-34.864 18.996-10.953 38.007-21.877 56.992-32.847 23.585-13.629 47.143-27.305 70.727-40.935 19.271-11.138 38.565-22.236 57.847-33.357 20.143-11.616 40.19-23.406 60.472-34.773 8.018-4.494 15.032-11.283 24.93-11.893 14.946 15.101 30.002 30.095 44.817 45.324 44.044 45.275 87.992 90.644 131.747 137.062-8.132 5.3-16.156 9.3-23.911 13.765-22.468 12.94-44.776 26.154-67.243 39.094-24.488 14.104-49.143 27.919-73.616 42.049-22.74 13.13-45.269 26.621-68.01 39.746-24.476 14.126-49.153 27.901-73.626 42.031-22.74 13.129-45.246 26.662-67.998 39.767-29.097 16.76-58.423 33.121-87.494 49.925-35.396 20.46-70.593 41.264-105.943 61.803-34.204 19.873-68.446 39.68-102.784 59.319-6.845 3.915-14.202 6.934-21.324 10.366"/><path fill="#FFFF26" d="M805.21 2181.97c-.206-6.59-.581-13.181-.59-19.772-.038-28.122.032-56.243 1-85.309 9.804-5.457 18.844-9.66 27.5-14.545 20.267-11.434 40.359-23.177 60.503-34.826 22.45-12.982 44.866-26.018 67.319-38.994 20.148-11.644 40.32-23.246 60.492-34.85 19.596-11.274 39.212-22.514 58.806-33.792a42600 42600 0 0 0 58.752-33.88c23.316-13.47 46.615-26.972 69.93-40.445a68891 68891 0 0 1 57.878-33.402c19.872-11.459 39.755-22.897 59.625-34.358 19.582-11.296 39.168-22.586 58.727-33.922 22.435-13.003 44.81-26.11 67.27-39.069 19.872-11.464 39.844-22.754 59.738-34.18 20.468-11.754 40.999-23.403 61.304-35.432 13.698-8.114 27.054-16.807 40.562-25.24l59.518 56.677c35.947-37.002 73.487-75.643 112.453-114.486 12.12-.229 19.936-7.14 28.514-11.923 19.158-10.684 37.985-21.96 56.973-32.95 18.99-10.992 38.009-21.933 57.018-32.892 20.159-11.622 40.324-23.233 60.48-34.86 19.294-11.129 38.596-22.244 57.866-33.415 22.72-13.171 45.39-26.427 68.116-39.587 20.137-11.66 40.314-23.252 60.484-34.855 19.595-11.273 39.211-22.51 58.804-33.787 19.592-11.277 39.186-22.551 58.744-33.886 22.434-13.002 44.784-26.15 67.254-39.088 24.49-14.102 49.133-27.939 73.606-42.07 27.347-15.789 54.527-31.868 81.895-47.62 7.16-4.12 14.749-7.495 22.14-11.212.13 28.054.26 56.108-.507 85.175-12.778 7.656-24.728 14.177-36.521 20.968-22.467 12.938-44.828 26.059-67.264 39.05-20.422 11.825-40.883 23.582-61.33 35.362-19.01 10.951-38.033 21.882-57.038 32.843-23.323 13.45-46.63 26.928-69.949 40.385-19.864 11.463-39.737 22.91-59.603 34.369-19.579 11.293-39.16 22.584-58.73 33.89-23.312 13.469-46.611 26.958-69.922 40.428a71840 71840 0 0 1-57.863 33.402c-19.868 11.456-39.75 22.886-59.617 34.345-19.579 11.293-39.146 22.606-58.717 33.913q-34.967 20.204-69.933 40.41c-19.283 11.142-38.563 22.287-57.85 33.422a159142 159142 0 0 1-58.731 33.888c-19.867 11.459-39.742 22.901-59.601 34.373-18.709 10.806-37.4 21.64-56.1 32.462-19.273 11.156-38.54 22.324-57.82 33.467-19.282 11.145-38.575 22.27-57.867 33.397-20.153 11.624-40.314 23.236-60.466 34.863-23.033 13.29-46.053 26.6-69.09 39.88-14.402 8.301-28.917 16.41-43.173 24.952-3.476 2.084-8.22 3.651-8.969 8.81-14.343-14.144-28.071-28.013-41.906-42.462-.599-1.19-1.092-1.801-1.81-2.561-.806-.216-1.236.03-1.52 1.335.154 1.716.314 2.688.343 4.586-.293 14.301-.453 27.675-1.35 41.07-3.826 1.18-7.116 1.977-9.969 3.56-16.276 9.032-32.522 18.122-48.639 27.433-31.936 18.453-63.742 37.132-95.677 55.587-27.912 16.13-55.977 31.996-83.884 48.136-27.325 15.804-54.51 31.85-81.803 47.712-29.307 17.031-58.54 34.195-88.098 50.779-6.714 3.767-12.834 9.967-21.707 8.741"/><path fill="#FFFF16" d="M1613.792 1609.327c-13.274 9.06-26.63 17.753-40.328 25.867-20.305 12.029-40.836 23.678-61.304 35.433-19.894 11.425-39.866 22.715-59.738 34.179-22.46 12.958-44.835 26.066-67.27 39.069-19.559 11.336-39.145 22.626-58.727 33.922-19.87 11.461-39.753 22.9-59.625 34.358a68891 68891 0 0 0-57.878 33.402c-23.315 13.473-46.614 26.974-69.93 40.445a42600 42600 0 0 1-58.752 33.88c-19.594 11.278-39.21 22.518-58.806 33.791-20.172 11.605-40.344 23.207-60.492 34.851-22.453 12.976-44.87 26.012-67.319 38.994-20.144 11.65-40.236 23.392-60.502 34.826-8.657 4.884-17.697 9.088-27.237 13.645a13.9 13.9 0 0 1-1.267-5.857c-.002-60.116.035-120.232.328-181.255 7.384-4.338 14.74-7.357 21.586-11.272 34.338-19.638 68.58-39.446 102.784-59.319 35.35-20.54 70.547-41.343 105.943-61.803 29.07-16.804 58.397-33.165 87.494-49.925 22.752-13.105 45.258-26.638 67.998-39.767 24.473-14.13 49.15-27.905 73.626-42.03 22.741-13.126 45.27-26.618 68.01-39.747 24.473-14.13 49.128-27.945 73.616-42.049 22.467-12.94 44.775-26.155 67.243-39.094 7.755-4.466 15.78-8.466 24.172-13.14 16.54 15.836 32.648 32.077 48.62 48.449 22.56 23.122 45.02 46.342 67.755 70.147"/><path fill="#FFFF46" d="M2537.89 1386c.15 23.802.321 47.602.435 71.403.05 10.253-.023 20.506-.981 31.697-5.446 2.952-10.151 4.614-14.42 7.045-18.762 10.686-37.394 21.604-56.083 32.42a68266 68266 0 0 1-57.816 33.414 131307 131307 0 0 1-58.704 33.868c-19.857 11.452-39.72 22.892-59.574 34.35-23.308 13.45-46.608 26.913-69.909 40.374-19.274 11.134-38.54 22.28-57.817 33.41-19.564 11.297-39.135 22.582-58.705 33.868-19.857 11.452-39.72 22.892-59.574 34.35-23.307 13.45-46.607 26.913-69.908 40.374-19.274 11.134-38.54 22.28-57.817 33.411-19.564 11.297-39.135 22.581-58.705 33.867-19.857 11.452-39.736 22.865-59.569 34.359-17.82 10.328-35.571 20.777-53.39 31.108a18584 18584 0 0 1-61.28 35.375c-19.588 11.258-39.23 22.423-58.823 33.673a23760 23760 0 0 0-57.86 33.344 62803 62803 0 0 0-70.72 40.951c-11.783 6.83-23.502 13.772-35.347 20.491-3.529 2.002-5.745 4.435-5.922 8.443-8.218-8.08-15.858-15.884-23.411-23.77-14.018-14.636-27.985-29.32-41.641-44.564 3.67-3.259 6.764-6.341 10.393-8.54 10.8-6.549 21.794-12.777 32.741-19.08 19.594-11.28 39.217-22.507 58.812-33.785a42425 42425 0 0 0 58.746-33.89c23.318-13.472 46.623-26.963 69.936-40.44 24.177-13.975 48.368-27.927 72.533-41.922 22.152-12.83 44.235-25.781 66.427-38.541 24.502-14.087 49.153-27.913 73.63-42.043 31.957-18.447 63.767-37.15 95.715-55.613 27.923-16.137 56-32.01 83.918-48.156 27.337-15.81 54.489-31.942 81.852-47.707 29.098-16.764 58.438-33.11 87.511-49.916 35.4-20.463 70.549-41.36 105.958-61.805 41.75-24.106 83.715-47.84 125.492-71.9 38.893-22.398 77.648-45.035 116.519-67.47 2.194-1.266 4.894-1.655 7.358-2.452z"/><path fill="#FFFF39" d="M2538.087 1385.082c-2.661 1.716-5.361 2.105-7.555 3.371-38.871 22.435-77.626 45.072-116.519 67.47-41.777 24.06-83.741 47.794-125.492 71.9-35.41 20.445-70.558 41.342-105.958 61.805-29.073 16.806-58.413 33.152-87.51 49.916-27.364 15.765-54.516 31.897-81.853 47.707-27.918 16.147-55.995 32.019-83.918 48.156-31.948 18.463-63.758 37.166-95.715 55.613-24.477 14.13-49.128 27.956-73.63 42.043-22.192 12.76-44.275 25.71-66.427 38.54-24.165 13.996-48.356 27.948-72.533 41.923-23.313 13.477-46.618 26.968-69.936 40.44a42425 42425 0 0 1-58.746 33.89c-19.595 11.278-39.218 22.506-58.812 33.785-10.947 6.303-21.941 12.531-32.74 19.08-3.63 2.199-6.724 5.281-11.012 8.301-8.53-7.48-16.158-15.258-23.68-23.137-10.738-11.25-21.398-22.572-31.985-34.56 3.783-7.248 10.92-9.135 16.742-12.596 19.994-11.885 40.268-23.299 60.425-34.91 19.293-11.115 38.572-22.255 57.86-33.38 20.15-11.621 40.318-23.21 60.45-34.864 17.831-10.323 35.604-20.747 53.438-31.067 20.134-11.65 40.3-23.243 60.463-34.843 19.588-11.27 39.197-22.504 58.783-33.776s39.174-22.542 58.729-33.867c22.718-13.157 45.385-26.4 68.104-39.555 20.13-11.656 40.293-23.254 60.456-34.854 19.588-11.269 39.204-22.49 58.79-33.764a40668 40668 0 0 0 58.724-33.875c23.307-13.466 46.598-26.957 69.905-40.424a75502 75502 0 0 1 57.855-33.388c19.863-11.454 39.736-22.892 59.599-34.348 19.575-11.29 39.158-22.567 58.709-33.9 22.425-12.997 44.8-26.081 67.232-39.07 20.418-11.822 40.897-23.538 61.32-35.35 22.152-12.81 44.253-25.708 66.41-38.511 25.318-14.631 50.619-29.296 76.065-43.703 4.229-2.395 9.16-3.551 13.766-5.28.13 29.388.262 58.775.196 89.082"/><path fill="#FFFF30" d="M2538.086 1295.08c-4.802 2.649-9.732 3.805-13.961 6.2-25.446 14.407-50.747 29.072-76.066 43.703-22.156 12.803-44.257 25.7-66.408 38.51-20.424 11.813-40.903 23.53-61.32 35.352-22.432 12.988-44.808 26.072-67.233 39.07-19.551 11.332-39.134 22.609-58.71 33.9-19.862 11.455-39.735 22.893-59.598 34.347a75502 75502 0 0 0-57.855 33.388c-23.307 13.467-46.598 26.958-69.905 40.424a40668 40668 0 0 1-58.723 33.875c-19.587 11.273-39.203 22.495-58.791 33.764-20.163 11.6-40.326 23.198-60.456 34.854-22.72 13.154-45.386 26.398-68.104 39.555-19.555 11.325-39.143 22.595-58.729 33.867s-39.195 22.507-58.783 33.776c-20.163 11.6-40.33 23.193-60.463 34.843-17.834 10.32-35.607 20.744-53.439 31.067-20.13 11.653-40.3 23.243-60.449 34.864-19.288 11.125-38.567 22.265-57.86 33.38-20.157 11.611-40.43 23.025-60.425 34.91-5.822 3.461-12.959 5.348-17.367 12.363-17.687-17.278-34.641-35.02-51.595-52.76.132-5.437 4.877-7.004 8.353-9.088 14.256-8.542 28.771-16.651 43.172-24.952 23.038-13.28 46.058-26.59 69.09-39.88 20.153-11.627 40.314-23.239 60.467-34.863 19.292-11.127 38.585-22.252 57.866-33.397 19.281-11.143 38.548-22.31 57.821-33.467 18.7-10.822 37.391-21.656 56.1-32.462 19.859-11.472 39.734-22.914 59.6-34.373a159142 159142 0 0 0 58.732-33.888c19.287-11.135 38.567-22.28 57.85-33.422q34.966-20.206 69.933-40.41c19.571-11.307 39.138-22.62 58.717-33.913 19.866-11.459 39.75-22.89 59.617-34.345a71840 71840 0 0 0 57.863-33.402c23.31-13.47 46.61-26.96 69.922-40.428 19.57-11.306 39.151-22.597 58.73-33.89 19.866-11.459 39.74-22.906 59.603-34.369 23.32-13.457 46.626-26.934 69.949-40.385 19.005-10.961 38.027-21.892 57.038-32.843 20.447-11.78 40.908-23.537 61.33-35.362 22.436-12.991 44.797-26.112 67.264-39.05 11.793-6.791 23.743-13.312 36.325-20.049.833 27.96.963 56.014.898 84.987z"/><path fill="#FF6" d="M2537.89 1632.001c.15 26.439.31 52.878.444 79.317.031 6.282-.027 12.564-1.016 19.767-4.4 1.986-8.165 2.463-11.2 4.21-27.04 15.56-53.894 31.448-80.918 47.04-32.492 18.746-65.126 37.249-97.647 55.945-39.138 22.5-78.236 45.07-117.326 67.651-38.517 22.25-76.977 44.595-115.55 66.746-3.002 1.725-6.694 2.249-10.265 2.412-.2-27.373-.2-53.828-.2-82.424-3.408 3.17-5.316 4.797-7.056 6.588-27.99 28.81-55.9 57.697-83.957 86.442-13.222 13.547-26.836 26.711-40.054 40.262-17.604 18.045-34.995 36.297-52.577 54.587-.099.126-.547.6-.604.918s-.695.427-1.448.465c-3.044.327-5.636.024-7.57 1.011-6.799 3.47-13.398 7.338-20.026 11.138-19.88 11.396-39.741 22.824-59.603 34.252-19.287 11.098-38.587 22.174-57.842 33.327-27.299 15.812-54.558 31.692-81.841 47.532-23.836 13.838-47.515 27.96-71.618 41.318-7.703 4.27-14.442 10.927-24.579 11.3-17.821-18.218-35.021-36.176-51.896-54.857 3.071-3.076 5.536-5.912 8.609-7.705 19.231-11.221 38.609-22.192 57.918-33.28 19.595-11.254 39.168-22.546 58.749-33.824 19.868-11.443 39.738-22.883 59.6-34.337 19.574-11.29 39.156-22.563 58.7-33.905 17.818-10.341 35.565-20.806 53.387-31.14a18549 18549 0 0 1 61.306-35.363c19.592-11.261 39.236-22.432 58.822-33.704 19.584-11.27 39.133-22.603 58.681-33.934 22.425-12.999 44.819-26.048 67.25-39.035a22386 22386 0 0 1 61.302-35.368c19.593-11.26 39.242-22.422 58.828-33.694 19.584-11.271 39.123-22.62 58.676-33.943 22.718-13.157 45.416-26.345 68.146-39.479 19.852-11.471 39.741-22.878 59.604-34.331 19.287-11.122 38.564-22.262 57.842-33.4 23.305-13.465 46.561-27.017 69.943-40.347 5.444-3.103 11.313-5.458 16.987-8.158z"/><path fill="#FFFF53" d="M1456.017 2117.834c-.439-4.247 1.777-6.68 5.306-8.682 11.845-6.719 23.564-13.66 35.346-20.49a62803 62803 0 0 1 70.721-40.952 23760 23760 0 0 1 57.86-33.344c19.593-11.25 39.235-22.415 58.823-33.673a18584 18584 0 0 0 61.28-35.375c17.819-10.331 35.57-20.78 53.39-31.108 19.833-11.494 39.712-22.907 59.57-34.359 19.57-11.286 39.14-22.57 58.704-33.867 19.276-11.13 38.543-22.277 57.817-33.411 23.3-13.461 46.601-26.923 69.908-40.374 19.854-11.458 39.717-22.898 59.574-34.35 19.57-11.286 39.14-22.571 58.705-33.867 19.276-11.13 38.543-22.277 57.817-33.411 23.3-13.461 46.601-26.924 69.909-40.374 19.853-11.458 39.717-22.898 59.574-34.35 19.57-11.286 39.14-22.572 58.704-33.868a68266 68266 0 0 0 57.816-33.414c18.69-10.816 37.32-21.734 56.084-32.42 4.268-2.43 8.973-4.093 14.222-6.126.875 22.702 1.006 45.422.197 69.08-3.737 1.924-6.76 2.514-9.296 3.96-19.045 10.867-38 21.891-56.97 32.885-18.685 10.828-37.344 21.696-56.034 32.513-19.266 11.15-38.56 22.253-57.836 33.386-19.564 11.298-39.106 22.632-58.687 33.9-19.582 11.27-39.239 22.41-58.794 33.726-27.317 15.806-54.523 31.802-81.863 47.566-24.468 14.108-49.112 27.91-73.57 42.032-27.33 15.78-54.491 31.851-81.812 47.647-27.9 16.132-55.953 32.003-83.852 48.139-27.318 15.8-54.456 31.912-81.8 47.666-29.08 16.752-58.371 33.134-87.456 49.875-37.719 21.712-75.327 43.615-112.978 65.444-41.386 23.995-82.745 48.036-124.174 71.955-5.423 3.13-11.194 5.658-17.408 8.208-13.335-13.56-26.066-26.863-38.797-40.167"/><path fill="#FFFFA6" d="M2537.89 1998.008c.142 2.641.408 5.282.409 7.923.02 52.746.01 105.492-.935 159.172-12.019 6.872-23.23 12.575-34.145 18.798-23.383 13.332-46.603 26.95-69.909 40.418-19.279 11.141-38.585 22.236-57.88 33.351-20.156 11.612-40.317 23.216-60.468 34.838-19.287 11.124-38.58 22.242-57.843 33.41-22.712 13.166-45.377 26.415-68.096 39.57-20.13 11.657-40.227 23.377-60.505 34.772-7.73 4.344-15.923 7.863-24.112 10.84-.211-54.997-.22-109.075-.2-163.152 0-1.978.265-3.956 1.153-5.93 4.484-1.23 8.53-1.906 11.904-3.788 15.358-8.564 30.529-17.464 45.764-26.249 19.547-11.271 39.09-22.55 58.639-33.82 19.835-11.435 39.684-22.846 59.509-34.3 18.676-10.788 37.33-21.614 55.989-32.432 19.519-11.318 39.017-22.669 58.55-33.961 18.962-10.962 37.96-21.861 56.934-32.8 20.409-11.767 40.69-23.76 61.274-35.214 7.71-4.29 14.346-11.083 23.967-11.446z"/><path fill="#FEFE12" d="M2006.745 1324.06c22.385-23.28 44.682-46.644 67.168-69.825 109.721-113.114 219.494-226.178 329.246-339.261 44.01-45.346 88.017-90.697 132.942-136.629 1.27-.58 1.622-.578 1.975-.576.087 11.967.247 23.933.248 35.9.008 69.498-.023 138.995-.976 209.43-2.833 1.487-4.923 1.696-6.597 2.642-10.697 6.044-21.31 12.236-31.936 18.405-22.402 13.006-44.753 26.102-67.203 39.026-24.468 14.085-49.079 27.923-73.527 42.042-22.718 13.119-45.242 26.571-67.964 39.682-24.454 14.11-49.101 27.884-73.552 42-31.923 18.43-63.72 37.077-95.599 55.582-29.296 17.006-58.456 34.258-88.06 50.712-8.16 4.536-15.416 12.214-26.165 10.87"/><path fill="#FFFF1E" d="M2006.444 1324.111c11.05 1.293 18.305-6.385 26.466-10.921 29.604-16.454 58.764-33.706 88.06-50.712 31.88-18.505 63.676-37.152 95.599-55.582 24.45-14.116 49.098-27.89 73.552-42 22.722-13.11 45.246-26.563 67.964-39.682 24.448-14.119 49.059-27.957 73.527-42.042 22.45-12.924 44.8-26.02 67.203-39.026 10.626-6.17 21.239-12.361 31.936-18.405 1.674-.946 3.764-1.155 6.402-1.723.888 26.42 1.046 52.859 1.176 79.297.03 6.282-.029 12.564-.242 19.766-7.587 4.636-15.176 8.01-22.336 12.132-27.368 15.751-54.548 31.83-81.895 47.62-24.473 14.13-49.116 27.967-73.606 42.07-22.47 12.938-44.82 26.085-67.254 39.087-19.558 11.335-39.152 22.61-58.744 33.886-19.593 11.277-39.209 22.514-58.804 33.787-20.17 11.603-40.347 23.194-60.484 34.855-22.726 13.16-45.396 26.416-68.116 39.587-19.27 11.171-38.572 22.286-57.866 33.415-20.156 11.627-40.321 23.238-60.48 34.86-19.009 10.96-38.028 21.9-57.018 32.892-18.988 10.99-37.815 22.266-56.973 32.95-8.578 4.783-16.393 11.694-27.89 11.685 15.257-16.877 31.21-33.822 47.398-50.54 39.377-40.668 78.859-81.233 118.304-121.834 17.158-17.66 34.33-35.308 52.305-53.482.808-.52 1.408-1.288 1.408-1.288s.106-.602.408-.652"/><path fill="#FFFF5B" d="M2538.088 1631.082c-5.87 3.619-11.74 5.974-17.184 9.077-23.382 13.33-46.638 26.882-69.943 40.347-19.278 11.138-38.555 22.278-57.842 33.4-19.863 11.453-39.752 22.86-59.604 34.331-22.73 13.134-45.428 26.322-68.146 39.479-19.553 11.324-39.092 22.672-58.676 33.943-19.586 11.272-39.235 22.433-58.828 33.694a22386 22386 0 0 0-61.302 35.368c-22.431 12.987-44.825 26.036-67.25 39.035-19.548 11.331-39.097 22.663-58.68 33.934-19.587 11.272-39.23 22.443-58.823 33.704a18549 18549 0 0 0-61.306 35.363c-17.822 10.334-35.569 20.799-53.387 31.14-19.544 11.342-39.126 22.615-58.7 33.905-19.862 11.454-39.732 22.894-59.6 34.337-19.58 11.278-39.154 22.57-58.75 33.823-19.308 11.089-38.686 22.06-57.917 33.281-3.073 1.793-5.538 4.629-9.227 7.368-11.633-10.529-22.324-21.444-33.006-33.133-2.725-12.834-1.56-12.105 7.338-17.143 9.832-5.567 19.684-11.1 29.46-16.764 37.086-21.486 74.148-43.015 111.214-64.535 24.423-14.18 48.816-28.411 73.265-42.547 18.41-10.646 36.899-21.157 55.332-31.764a32371 32371 0 0 0 61.3-35.361c22.15-12.81 44.24-25.719 66.423-38.467 24.491-14.074 49.114-27.918 73.575-42.042 22.729-13.125 45.256-26.596 67.988-39.714 24.465-14.118 49.127-27.896 73.59-42.018 31.937-18.438 63.722-37.142 95.652-55.594 27.907-16.128 55.977-31.977 83.88-48.111 31.927-18.46 63.712-37.163 95.627-55.641 39.106-22.643 78.267-45.193 117.453-67.697 5.142-2.954 10.576-5.399 15.875-8.08.132 20.721.264 41.442.2 63.082z"/><path fill="#FFFF8C" d="M2538.094 1997.09c-9.826 1.281-16.461 8.074-24.172 12.364-20.583 11.454-40.865 23.447-61.274 35.214-18.975 10.939-37.972 21.838-56.933 32.8-19.534 11.292-39.032 22.643-58.551 33.96-18.66 10.819-37.313 21.645-55.99 32.434-19.824 11.453-39.673 22.864-59.508 34.299-19.549 11.27-39.092 22.549-58.64 33.82-15.234 8.785-30.405 17.685-45.763 26.25-3.374 1.881-7.42 2.558-12.108 2.868-.961-37.716-1.004-74.511-.96-111.306.012-10.595.272-21.189 1.163-31.782 5.61-1.928 10.783-3.314 15.29-5.874 23.657-13.437 47.146-27.172 70.696-40.8 19.242-11.135 38.482-22.275 57.735-33.392 19.54-11.284 39.095-22.544 58.644-33.813 19.835-11.436 39.688-22.841 59.501-34.314 22.399-12.97 44.743-26.032 67.145-38.994 25.273-14.623 50.475-29.375 75.94-43.657 8.863-4.97 16.736-12.266 27.581-13.165.146 10.595.405 21.189.418 31.784.043 36.795 0 73.59-.214 111.304"/><path fill="#FFFFC3" d="M2104.613 2412.017c7.982-3.894 16.176-7.413 23.905-11.757 20.278-11.395 40.374-23.115 60.505-34.772 22.719-13.155 45.384-26.404 68.096-39.57 19.263-11.168 38.556-22.286 57.843-33.41 20.151-11.622 40.312-23.226 60.468-34.838 19.295-11.115 38.601-22.21 57.88-33.351 23.306-13.468 46.526-27.086 69.909-40.418 10.915-6.223 22.126-11.926 33.938-17.88.88 16.203 1.111 32.422 1.15 48.642.065 26.501.003 53.003-.916 80.517-8.832 5.203-16.894 9.148-24.646 13.63-27.319 15.794-54.47 31.878-81.799 47.654-32.513 18.77-65.199 37.24-97.708 56.015-31.93 18.44-63.693 37.166-95.6 55.643-39.097 22.641-78.226 45.228-117.461 67.628-4.812 2.748-10.36 4.206-15.77 5.344a7806 7806 0 0 1-.212-80.42c.04-16.22.272-32.438.418-48.657"/><path fill="#FFFF46" d="M805.21 2499.982c-.207-1.96-.596-3.921-.596-5.882-.004-38.755.038-77.509 1.04-117.178 4.394-2.07 8.063-2.778 11.197-4.474 7.889-4.266 15.499-9.044 23.287-13.501 24.525-14.034 49.139-27.914 73.609-42.044 22.736-13.128 45.268-26.61 68.007-39.733 24.473-14.124 49.145-27.903 73.615-42.032 27.343-15.787 54.523-31.855 81.834-47.697 25.876-15.01 51.727-30.067 77.82-44.69 6.484-3.633 12.09-9.94 20.893-7.83a7479 7479 0 0 1 .232 77.422c-.034 15.22-.276 30.44-1.192 45.663-6.865 2.44-13.247 4.345-18.996 7.43-9.939 5.334-19.412 11.527-29.208 17.136-29.115 16.668-58.36 33.111-87.428 49.86-32.517 18.734-64.86 37.77-97.349 56.554-27.316 15.794-54.781 31.33-82.09 47.138-31.902 18.467-63.642 37.218-95.61 55.57-5.973 3.429-12.69 5.559-19.064 8.288z"/><path fill="#FF7" d="M2538.092 1853.084c-11.047 1.817-18.92 9.113-27.783 14.083-25.465 14.282-50.667 29.034-75.94 43.657-22.402 12.962-44.746 26.025-67.145 38.994-19.813 11.473-39.666 22.878-59.501 34.314-19.549 11.27-39.104 22.529-58.644 33.813-19.253 11.117-38.493 22.257-57.735 33.392-23.55 13.628-47.039 27.363-70.697 40.8-4.506 2.56-9.68 3.946-15.49 4.955-.96-23.106-1.036-45.292-.97-67.479.053-17.868.277-35.737.425-53.605 3.371-1.082 7.063-1.606 10.065-3.33 38.573-22.152 77.033-44.497 115.55-66.747 39.09-22.581 78.188-45.151 117.326-67.651 32.521-18.696 65.155-37.2 97.647-55.946 27.024-15.591 53.877-31.479 80.918-47.04 3.035-1.746 6.8-2.223 11-3.29.92 17.866 1.144 35.734 1.197 53.603.066 22.186-.008 44.372-.223 67.477"/><path fill="#FFFF37" d="M1235.723 2134.002c-8.61-1.19-14.216 5.116-20.7 8.749-26.093 14.623-51.944 29.68-77.82 44.69-27.311 15.842-54.491 31.91-81.834 47.697-24.47 14.13-49.142 27.908-73.615 42.032-22.739 13.124-45.271 26.605-68.007 39.733-24.47 14.13-49.084 28.01-73.61 42.044-7.787 4.457-15.397 9.235-23.286 13.501-3.134 1.696-6.803 2.403-10.934 3.574-.914-2.278-1.302-4.57-1.302-6.863-.007-35.775.036-71.55 1.038-108.24 6.745-3.316 12.714-5.345 18.25-8.21 7.66-3.966 14.991-8.565 22.47-12.883 19.563-11.295 39.137-22.571 58.692-33.882 18.691-10.811 37.356-21.668 56.045-32.483 19.265-11.149 38.542-22.275 57.818-33.405 19.563-11.296 39.119-22.605 58.698-33.872 19.58-11.268 39.22-22.434 58.774-33.748 27.315-15.804 54.5-31.835 81.92-47.453 5.38-3.065 11.58-4.692 17.596-6.062.213 20.781.297 40.643.233 60.504-.059 18.192-.278 36.385-.426 54.577"/><path fill="#FFFF57" d="M804.948 2500.887c6.636-3.634 13.354-5.764 19.326-9.192 31.969-18.353 63.709-37.104 95.611-55.571 27.309-15.808 54.774-31.344 82.09-47.138 32.489-18.784 64.832-37.82 97.349-56.555 29.068-16.748 58.313-33.191 87.428-49.86 9.796-5.608 19.27-11.8 29.208-17.134 5.749-3.086 12.131-4.99 19.188-6.51.98 18.124 1.065 35.333 1.002 52.542-.072 19.511-.279 39.022-1.162 58.555-4.714 1.62-8.939 2.788-12.632 4.89-19.322 10.997-38.5 22.25-57.749 33.378s-38.528 22.211-57.791 33.318c-20.125 11.602-40.258 23.188-60.366 34.819-22.408 12.96-44.775 25.991-67.19 38.941-22.126 12.784-44.256 25.564-66.473 38.19-3.302 1.876-5.002 4.183-5.728 8.075-33.661.051-66.398-.056-99.296-.4-.655-.617-1.173-.629-1.792-.019-.075.251.035.764.035.764s-.647-.592-1.08-.655c-.369-19.887-.305-39.71.022-60.438"/><path fill="#FFFF2B" d="M1235.722 2018.001c-5.822 2.29-12.021 3.917-17.402 6.982-27.42 15.618-54.605 31.649-81.92 47.453-19.554 11.314-39.193 22.48-58.774 33.748-19.58 11.267-39.135 22.576-58.698 33.872-19.276 11.13-38.553 22.256-57.818 33.405-18.689 10.815-37.354 21.672-56.045 32.483-19.555 11.31-39.13 22.587-58.692 33.882-7.479 4.318-14.81 8.917-22.47 12.882-5.536 2.866-11.505 4.895-17.986 7.312-.913-15.821-1.173-31.656-1.305-47.492-.08-9.581.04-19.164.334-29.652 9.137.32 15.257-5.88 21.971-9.647 29.558-16.584 58.791-33.748 88.098-50.78 27.292-15.86 54.478-31.907 81.803-47.711 27.907-16.14 55.972-32.006 83.884-48.136 31.935-18.455 63.74-37.134 95.677-55.587 16.117-9.311 32.363-18.401 48.64-27.432 2.852-1.584 6.142-2.38 10.161-2.642.801 26.286.672 51.673.542 77.06"/><path fill="#FFFFD5" d="M2104.612 2542.012c5.206-2.056 10.753-3.514 15.565-6.262 39.235-22.4 78.364-44.987 117.46-67.628 31.908-18.477 63.671-37.204 95.6-55.643 32.51-18.775 65.196-37.246 97.71-56.015 27.328-15.776 54.48-31.86 81.798-47.654 7.752-4.482 15.814-8.427 24.44-12.713.84 20.63.975 41.354.202 63.088-2.73 1.804-4.647 2.434-6.36 3.419-21.295 12.245-42.58 24.507-63.826 36.835-19.235 11.16-38.377 22.481-57.639 33.595-19.555 11.282-39.23 22.355-58.807 33.599-19.287 11.077-38.523 22.242-57.77 33.388-18.673 10.812-37.332 21.646-55.995 32.475-11.77 6.83-23.519 13.697-35.315 20.481-3.364 1.934-6.19 4.048-5.223 8.556-30.116.08-60.23.16-91.285-.75-.811-6.919-.683-12.845-.555-18.771"/><path fill="#F0F100" d="M1320.348 1307.075c-9.654 1.255-16.668 8.044-24.686 12.538-20.283 11.367-40.329 23.157-60.472 34.773-19.282 11.12-38.576 22.22-57.847 33.357-23.584 13.63-47.142 27.306-70.727 40.935-18.985 10.97-37.996 21.894-56.992 32.847-20.144 11.614-40.297 23.214-60.42 34.864-22.713 13.149-45.39 26.359-68.095 39.52a45869 45869 0 0 1-57.797 33.438c-15.532 8.974-31.033 18.003-46.656 26.816-3.096 1.747-6.684 2.623-10.747 3.916-.863-15.388-1.024-30.793-.265-47.142 5.084-2.956 9.366-4.756 13.388-7.019 10.706-6.023 21.298-12.248 31.938-18.389 19.267-11.12 38.534-22.242 57.805-33.356 19.845-11.445 39.697-22.88 59.543-34.323 19.56-11.278 39.136-22.527 58.667-33.853 18.095-10.492 36.118-21.108 54.214-31.599 20.105-11.656 40.256-23.235 60.39-34.844 18.984-10.947 37.98-21.874 56.956-32.836 23.574-13.62 47.068-27.379 70.738-40.828 6.603-3.752 13.709-6.621 20.584-9.895 10.079 10.145 20.158 20.29 30.481 31.08"/><path fill="#FFFFE1" d="M2197.216 2561.711c-1.732-4.686 1.095-6.8 4.459-8.734 11.796-6.784 23.545-13.651 35.315-20.48 18.663-10.83 37.322-21.664 55.995-32.476 19.247-11.146 38.483-22.311 57.77-33.388 19.577-11.244 39.252-22.317 58.807-33.6 19.262-11.113 38.404-22.434 57.639-33.594 21.246-12.328 42.531-24.59 63.825-36.835 1.714-.985 3.631-1.615 6.156-2.501.84 23.293.979 46.678.169 70.999-3.744 1.922-6.767 2.51-9.3 3.956-23.646 13.498-47.216 27.13-70.791 40.75-19.262 11.129-38.501 22.299-57.754 33.443-25.576 14.803-51.127 29.651-76.771 44.336-3.309 1.895-4.971 4.22-4.711 7.96-19.836.135-39.671.332-59.508.388-20.178.057-40.357-.024-61.3-.224"/><path fill="#FFFFEA" d="M2318.944 2561.724c-1.18-3.917.482-6.242 3.79-8.137 25.645-14.685 51.196-29.533 76.772-44.336 19.253-11.144 38.492-22.314 57.754-33.443 23.575-13.62 47.145-27.252 70.791-40.75 2.533-1.446 5.556-2.034 9.095-3.038.895 15.881 1.135 31.78 1.176 47.68.067 26.192.005 52.384-.598 79.65-1.057 1.37-1.398 1.767-1.617 2.268-1.984.125-3.967.36-5.95.36-70.098-.013-140.195-.047-211.213-.254"/><path fill="#E5E600" d="M1289.643 1275.372c-6.651 3.897-13.757 6.766-20.36 10.518-23.67 13.45-47.164 27.209-70.738 40.828-18.976 10.962-37.972 21.89-56.957 32.836-20.133 11.609-40.284 23.188-60.389 34.844-18.096 10.491-36.119 21.107-54.214 31.6-19.531 11.325-39.108 22.574-58.667 33.852-19.846 11.443-39.698 22.878-59.543 34.323-19.27 11.114-38.538 22.236-57.805 33.356-10.64 6.141-21.232 12.366-31.938 18.389-4.022 2.263-8.304 4.063-13.139 6.119-.838-10.027-1.006-20.098-.252-31.113 14.328-8.216 27.847-15.29 41.115-22.806 19.368-10.97 38.55-22.27 57.823-33.41 20.423-11.803 40.869-23.567 61.288-35.375 22.148-12.809 44.242-25.71 66.424-38.458 24.49-14.074 49.108-27.923 73.568-42.047 22.727-13.124 45.265-26.576 67.985-39.712 27.616-15.965 55.4-31.642 82.937-47.74 3.808-2.227 6.622-6.154 9.896-9.293 7.58 7.555 15.16 15.11 22.966 23.289"/><path fill="#B4B400" d="M1165.732 1148.07c8.073 8.181 16.147 16.364 23.517 25.255-2.545 1.364-4.537 1.756-6.204 2.715-14.105 8.12-28.137 16.367-42.219 24.528-19.255 11.16-38.531 22.284-57.804 33.412-19.561 11.295-39.128 22.58-58.695 33.864-19.854 11.45-39.729 22.864-59.564 34.347-22.422 12.981-44.794 26.049-67.217 39.03-20.409 11.815-40.748 23.758-61.333 35.26-10.083 5.633-20.652 10.393-31.002 15.549-.154-12.71-.31-25.42.439-39.085 6.008-3.332 11.325-5.341 16.184-8.144 27.313-15.756 54.47-31.78 81.769-47.56 27.878-16.117 55.887-32.008 83.783-48.094 24.153-13.928 48.223-28 72.337-41.996 24.113-13.996 48.132-28.16 72.399-41.886 10.944-6.19 22.391-11.491 33.61-17.196z"/><path fill="#DD0" d="M1266.446 1251.527c-3.043 3.695-5.857 7.622-9.665 9.848-27.537 16.1-55.32 31.776-82.937 47.741-22.72 13.136-45.258 26.588-67.985 39.712-24.46 14.124-49.078 27.973-73.568 42.047-22.182 12.747-44.276 25.65-66.424 38.458-20.42 11.808-40.865 23.572-61.288 35.375-19.273 11.14-38.455 22.44-57.823 33.41-13.268 7.517-26.787 14.59-40.866 21.908-.862-2.148-1.052-4.342-.688-8.052.78-8.952 1.007-16.389 1.944-23.898 4.926-1.949 9.329-3.498 13.328-5.76 15.607-8.826 31.094-17.866 46.611-26.852 19.54-11.315 39.066-22.655 58.598-33.985 22.118-12.831 44.195-25.734 66.364-38.476 24.476-14.067 49.095-27.885 73.542-42.002 22.716-13.117 45.254-26.54 67.928-39.726 28.992-16.861 57.962-33.763 87.112-50.345 9.777-5.561 20.08-10.199 30.141-15.258 5.149 5.1 10.297 10.2 15.676 15.855"/><path fill="#C0C100" d="M806.437 1488.149c-.228 7.436-.455 14.873-1.069 23.007-.585-1.263-.96-3.226-.955-5.188.084-37.373.212-74.746.564-113.029 10.584-6.065 21.153-10.825 31.236-16.458 20.585-11.502 40.924-23.445 61.333-35.26 22.423-12.981 44.795-26.049 67.217-39.03 19.835-11.483 39.71-22.897 59.564-34.347 19.567-11.284 39.134-22.569 58.695-33.864 19.273-11.128 38.549-22.252 57.804-33.412 14.082-8.16 28.114-16.408 42.22-24.528 1.666-.959 3.658-1.351 6.24-2.029 7.96 6.868 15.176 13.758 21.91 21.391-13.84 8.119-27.291 15.327-40.53 22.907-22.479 12.869-44.81 25.993-67.228 38.97a23293 23293 0 0 1-61.264 35.34c-19.58 11.254-39.21 22.418-58.784 33.68-19.572 11.262-39.1 22.601-58.65 33.899-23.29 13.457-46.578 26.918-69.879 40.355-16.056 9.26-32.133 18.484-48.48 27.885 0 9.127 0 18.42-.065 28.635-.003 10.973.059 21.024.12 31.076z"/><path fill="#D2D300" d="M807.146 1488.076c-.771-9.979-.833-20.03-.118-31.077 9.616-5.492 18.633-9.678 27.263-14.548 20.246-11.426 40.313-23.17 60.443-34.804 19.555-11.3 39.1-22.619 58.645-33.938 22.707-13.151 45.396-26.335 68.116-39.462 19.844-11.466 39.729-22.863 59.583-34.311 19.279-11.117 38.542-22.26 57.813-33.393 23.296-13.458 46.524-27.036 69.93-40.3 6.894-3.907 14.29-6.929 21.456-10.356 6.636 6.177 13.272 12.353 20.2 19.158-9.769 5.686-20.071 10.324-29.848 15.885-29.15 16.582-58.12 33.484-87.112 50.345-22.674 13.187-45.212 26.61-67.928 39.726-24.447 14.117-49.066 27.935-73.542 42.002-22.17 12.742-44.246 25.645-66.364 38.476-19.532 11.33-39.058 22.67-58.598 33.985-15.517 8.986-31.004 18.026-46.61 26.852-4 2.262-8.403 3.811-13.33 5.76z"/><path fill="#C9CA00" d="M1230.133 1215.21c-7.022 4.104-14.418 7.126-21.312 11.033-23.406 13.264-46.634 26.842-69.93 40.3-19.27 11.133-38.534 22.276-57.813 33.393-19.854 11.448-39.739 22.845-59.583 34.31-22.72 13.128-45.409 26.312-68.116 39.463a71585 71585 0 0 1-58.645 33.938c-20.13 11.633-40.197 23.378-60.443 34.804-8.63 4.87-17.647 9.056-27.199 13.626-.712-9.219-.712-18.512-.712-27.64 16.348-9.4 32.425-18.624 48.481-27.884 23.301-13.437 46.589-26.898 69.878-40.355 19.552-11.298 39.079-22.637 58.65-33.899 19.575-11.262 39.206-22.426 58.785-33.68q30.659-17.624 61.264-35.34c22.417-12.977 44.75-26.101 67.227-38.97 13.24-7.58 26.691-14.788 40.768-22.276 6.666 6.092 12.611 12.296 18.7 19.177"/><path fill="#6C6C00" d="M805.047 1168.092c-.137-16.721-.274-33.442.482-51.106 8.34-4.438 16.073-7.433 23.184-11.514 37.185-21.34 74.189-42.995 111.302-64.461 22.73-13.147 45.582-26.087 68.277-39.293 3.078-1.791 5.566-4.596 8.327-6.93 10.601 11.014 21.203 22.028 31.365 34.366-13.364 8.738-26.328 16.088-39.208 23.582-27.204 15.827-54.33 31.79-81.553 47.586-34.103 19.788-68.169 39.646-102.507 59.021-6.165 3.48-11.756 8.939-19.669 8.749"/><path fill="#A9A900" d="M1165.484 1147.456c-10.97 6.318-22.418 11.62-33.362 17.81-24.267 13.724-48.286 27.889-72.4 41.885-24.113 13.997-48.183 28.068-72.336 41.996-27.896 16.086-55.905 31.977-83.783 48.093-27.298 15.781-54.456 31.805-81.77 47.56-4.858 2.804-10.175 4.813-15.946 7.245-.835-9.345-1.003-18.746-.707-29.073.465-.925.96-1.067 1.66-1.132 21.826-11.97 43.006-23.781 64.063-35.806 18.762-10.714 37.38-21.682 56.079-32.505a40397 40397 0 0 1 57.866-33.41c19.87-11.457 39.756-22.886 59.625-34.346 19.58-11.294 39.108-22.681 58.733-33.897 14.107-8.063 28.336-15.91 42.511-23.855 6.507 6.274 13.013 12.548 19.767 19.435"/><path fill="#878700" d="M1071.819 1052.027c7.846 7.59 15.692 15.18 23.03 23.387-4.197 1.871-8.198 2.577-11.524 4.469-23.914 13.604-47.702 27.43-71.507 41.224-19.215 11.134-38.38 22.354-57.601 33.476-18.938 10.959-37.924 21.834-56.88 32.76-20.39 11.751-40.66 23.718-61.202 35.197-10.061 5.623-20.62 10.356-30.953 15.491-.155-11.368-.31-22.737.442-35.042 3.432-1.653 6.222-1.902 8.433-3.165 9.49-5.425 18.73-11.288 28.206-16.74 37.35-21.484 74.802-42.795 112.127-64.323 32.152-18.544 64.146-37.361 96.299-55.904 6.847-3.95 14.076-7.237 21.13-10.83"/><path fill="#FFFF57" d="M2538.084 1567.215c-5.494 3.466-10.928 5.911-16.07 8.865-39.186 22.504-78.347 45.054-117.453 67.697-31.915 18.478-63.7 37.181-95.626 55.64-27.904 16.135-55.974 31.984-83.881 48.112-31.93 18.452-63.715 37.156-95.653 55.594-24.462 14.122-49.124 27.9-73.589 42.018-22.732 13.118-45.26 26.59-67.988 39.714-24.46 14.124-49.084 27.968-73.575 42.042-22.183 12.748-44.274 25.658-66.422 38.467a32371 32371 0 0 1-61.3 35.361c-18.434 10.607-36.923 21.118-55.333 31.764-24.449 14.136-48.842 28.368-73.265 42.547-37.066 21.52-74.128 43.049-111.214 64.535-9.776 5.663-19.628 11.197-29.46 16.764-8.898 5.038-10.063 4.309-7.969 16.879-5.048-4.644-9.458-9.8-13.868-14.956 5.61-2.807 11.38-5.334 16.804-8.465 41.43-23.92 82.788-47.96 124.174-71.955 37.651-21.83 75.26-43.732 112.978-65.444 29.085-16.741 58.377-33.123 87.455-49.875 27.345-15.754 54.483-31.866 81.801-47.666 27.899-16.136 55.951-32.007 83.852-48.139 27.32-15.796 54.482-31.866 81.812-47.647 24.458-14.122 49.102-27.924 73.57-42.032 27.34-15.764 54.546-31.76 81.863-47.566 19.555-11.316 39.212-22.457 58.794-33.725s39.123-22.603 58.687-33.901c19.277-11.133 38.57-22.237 57.836-33.386 18.69-10.817 37.35-21.685 56.033-32.513 18.972-10.994 37.926-22.018 56.971-32.884 2.535-1.447 5.559-2.037 9.1-3.042.873 2.125 1.003 4.268.936 7.197"/><path fill="#919100" d="M804.948 1238.939c10.567-6.043 21.126-10.776 31.187-16.399 20.542-11.48 40.811-23.446 61.201-35.197 18.957-10.926 37.943-21.801 56.881-32.76 19.222-11.122 38.386-22.342 57.601-33.476 23.805-13.794 47.593-27.62 71.507-41.224 3.326-1.892 7.327-2.598 11.786-3.856 6.855 6.183 12.939 12.37 18.333 19.34-15.255 8.718-29.936 16.449-44.356 24.639-18.187 10.33-36.137 21.076-54.233 31.567-20.106 11.657-40.258 23.234-60.396 34.837-19.277 11.106-38.568 22.188-57.841 33.302-20.133 11.61-40.14 23.443-60.424 34.783-10.076 5.632-20.648 10.377-30.996 15.524-.161-10.057-.322-20.115-.25-31.08"/><path fill="#7B7B00" d="M1071.71 1051.365c-6.945 4.255-14.174 7.542-21.021 11.492-32.153 18.543-64.147 37.36-96.299 55.904-37.325 21.528-74.776 42.839-112.127 64.324-9.476 5.45-18.716 11.314-28.206 16.739-2.21 1.263-5.001 1.512-8.212 2.265-.879-2.834-1.07-5.704-.842-9.744.252-2.167.085-3.165-.081-4.163-.095-6.102-.19-12.205-.08-19.2 8.118-.7 13.709-6.16 19.874-9.639 34.338-19.375 68.404-39.233 102.507-59.021 27.223-15.796 54.349-31.76 81.553-47.586 12.88-7.494 25.844-14.844 39.157-22.896 8.147 6.529 15.907 13.696 23.776 21.525z"/><path fill="#550" d="M965.611 942.103c9.383 9.502 18.766 19.003 27.741 29.236-14.777 9.003-29.144 17.279-43.517 25.546-18.707 10.76-37.441 21.473-56.12 32.282-19.25 11.138-38.322 22.59-57.718 33.465-10.069 5.646-20.67 10.342-31.031 15.467-.053-15.613-.105-31.227.992-47.583 5.944-2.967 10.928-4.859 15.497-7.475 14.637-8.381 29.085-17.092 43.671-25.563 29.177-16.945 58.353-33.893 87.654-50.622 3.907-2.231 8.536-3.2 12.831-4.753"/><path fill="#9A9A00" d="M804.96 1270.929c10.586-6.057 21.158-10.802 31.234-16.434 20.284-11.34 40.29-23.173 60.424-34.783 19.273-11.114 38.564-22.196 57.84-33.302 20.139-11.603 40.291-23.18 60.397-34.837 18.096-10.491 36.046-21.237 54.233-31.567 14.42-8.19 29.101-15.92 44.4-23.947 5.95 4.774 11.166 9.64 15.932 15.26-14.785 9.067-29.083 17.444-43.462 25.682-24.472 14.02-49.055 27.849-73.48 41.95-31.889 18.413-63.63 37.08-95.507 55.514-36.719 21.234-73.516 42.333-110.83 63.809v23.63s-.496.143-.752.166c-.393-16.728-.53-33.48-.428-51.141z"/><path fill="#A1A200" d="M806.84 1321.84c-.7-7.883-.7-15.831-.7-23.566 37.315-21.476 74.112-42.575 110.831-63.81 31.877-18.433 63.618-37.1 95.507-55.512 24.425-14.102 49.008-27.93 73.48-41.951 14.379-8.238 28.677-16.615 43.741-25.052 5.769 4.836 10.807 9.796 15.932 15.414-14.089 8.602-28.318 16.45-42.425 24.513-19.625 11.216-39.153 22.603-58.733 33.897-19.869 11.46-39.755 22.89-59.625 34.346a40397 40397 0 0 0-57.866 33.41c-18.7 10.823-37.317 21.79-56.079 32.505-21.057 12.025-42.237 23.836-64.063 35.806"/><path fill="#454500" d="M965.433 941.472c-4.117 2.184-8.746 3.153-12.653 5.384-29.3 16.73-58.477 33.677-87.654 50.622-14.586 8.47-29.034 17.182-43.67 25.563-4.57 2.616-9.554 4.508-15.108 6.74-.705-18.663-.648-37.333.225-56.912 3.59-1.748 6.613-2.135 9.09-3.507 9.558-5.292 18.932-10.918 28.394-16.384 20.641-11.925 41.106-24.175 62.042-35.56 7.71-4.192 14.363-10.97 23.909-11.424 5.048 4.713 10.22 9.3 15.114 14.168 6.82 6.783 13.432 13.776 20.311 21.31"/><path fill="#626200" d="M804.76 1079.01c10.567-6.036 21.168-10.732 31.237-16.378 19.396-10.875 38.468-22.327 57.718-33.465 18.679-10.809 37.413-21.521 56.12-32.282 14.373-8.267 28.74-16.543 43.846-24.954 7.965 7.157 15.194 14.452 22.68 22.301-2.503 2.89-4.99 5.695-8.069 7.486-22.695 13.206-45.546 26.146-68.277 39.293-37.113 21.466-74.117 43.121-111.302 64.461-7.11 4.081-14.845 7.076-22.98 10.608-.853-12.028-1.016-24.094-.973-37.07"/><path fill="#323300" d="M929.76 905.37c-9.298 1.077-15.952 7.856-23.661 12.049-20.936 11.384-41.4 23.634-62.042 35.559-9.462 5.466-18.836 11.092-28.394 16.384-2.477 1.372-5.5 1.759-9.067 2.563-.764-19.384-.733-38.733.074-59.025 4.144-2.198 7.759-3.018 10.836-4.777 20.87-11.929 41.69-23.95 62.355-36.23 3.165-1.882 5.447-5.25 8.138-7.93 2.47 1.53 5.38 2.634 7.337 4.66 11.515 11.922 22.809 24.058 34.424 36.747"/><path fill="#29290C" d="M887.914 863.282c-2.606 3.362-4.888 6.73-8.053 8.61-20.665 12.28-41.485 24.302-62.355 36.23-3.077 1.76-6.692 2.58-10.817 3.838-1.37-3.835-2.45-7.668-2.51-11.516-.207-13.465-.063-26.935.692-41.394 3.571-1.721 6.661-1.955 9.172-3.282 6.076-3.215 11.779-7.131 17.824-10.412 8.618-4.678 17.408-9.041 26.124-13.539 9.946 10.261 19.892 20.522 29.923 31.465"/><path d="M857.898 831.152c-8.623 5.163-17.413 9.526-26.031 14.204-6.045 3.281-11.748 7.197-17.824 10.412-2.511 1.327-5.6 1.56-9.196 2.357-.794-13.177-.898-26.42-.822-39.661.062-10.811 6.58-19.243 16.8-21.626 1.698-.396 4.382-.189 5.447.889 10.65 10.782 21.057 21.805 31.626 33.425"/><path fill="#6C6C00" d="M804.72 1188.775c.368.405.535 1.403.444 2.718-.388-.497-.517-1.31-.445-2.718z"/><path fill="#FEFE12" d="M2005.741 1324.777c.295-.014-.305.754-.506.887-.333-.312-.195-.648.506-.887"/><path fill="#FFFFD5" d="M2536.55 2561.796c-.224-.679.117-1.076.944-1.525.365-.156.687.757.57 1.227-.116.47-1.071.476-1.514.298"/><path fill="#454500" d="M2537.98 777.3c-.257.467-.61.464-1.49.5.114-.298.755-.634 1.49-.5"/><path d="M1494.814 2158.001c5.014 5.413 9.424 10.569 14.464 15.989 11.321 11.177 22.012 22.092 33.32 33.343 17.818 18.296 35.018 36.254 53.055 55.097 25.235 26.086 49.634 51.287 74.29 76.752 20.847-21.388 40.774-41.78 60.642-62.23 20.35-20.945 40.738-41.854 60.934-62.946 27.075-28.275 53.862-56.827 81.01-85.032 15.334-15.932 31.144-31.405 46.74-47.085 0 0 .638-.108.929-.396.29-.288.47-1.076.469-1.076 17.483-18.163 34.874-36.415 52.478-54.46 13.218-13.55 26.832-26.715 40.054-40.262 28.056-28.745 55.967-57.632 83.957-86.442 1.74-1.79 3.648-3.417 7.056-6.588 0 28.596 0 55.05.2 82.424.052 18.787-.172 36.656-.225 54.524-.066 22.187.01 44.373.225 67.479.055 11.512-.205 22.106-.217 32.701-.044 36.795-.001 73.59.213 111.303.063 2.896-.202 4.874-.203 6.852-.018 54.077-.01 108.155.2 163.151.062 17.137-.17 33.356-.21 49.575-.064 26.5-.003 53.001.211 80.42.078 6.844-.05 12.77-.153 19.577-.054 2.876-.2 4.872-.2 6.867.01 144.19.032 288.38.115 433.503-.005 65.591-.074 130.25-.137 194.909-.01 10.632-.002 21.264-.002 33.56-3.06-2.38-5.183-3.674-6.87-5.394-33.123-33.763-66.24-67.532-99.258-101.396-16.964-17.4-33.674-35.046-50.606-52.477-26.919-27.709-53.952-55.307-80.891-82.996-21.13-21.717-42.18-43.51-63.285-65.252-22.96-23.655-45.962-47.27-68.907-70.94-18.77-19.363-37.472-38.792-56.239-58.158-2.279-2.351-4.771-4.496-7.597-7.14-2.4 1.951-4.55 3.413-6.358 5.217-12.274 12.237-24.57 24.454-36.68 36.851-22.105 22.629-44.085 45.378-66.116 68.077l-66.095 68.097-66.094 68.097c-22.032 22.699-44.067 45.394-66.094 68.097-21.33 21.985-42.67 43.963-63.973 65.975-18.059 18.66-36.057 37.377-54.122 56.03-2.221 2.295-4.691 4.349-8.816 8.14v-13.654q.007-319.97.009-639.941c0-3.666-.05-7.332-.117-12.436-.039-1.439-.194-2.42-.063-2.865.13-.446-.2-1.31.025-2.233.096-31.679-.033-62.437.038-94.114.067-32.31-.065-63.701-.197-95.092.148-19.512.355-39.023.427-58.534a3388 3388 0 0 0-.235-52.546c-.043-16.14.2-31.36.233-46.58a7479 7479 0 0 0-.232-77.421c-.045-19.112.174-37.305.233-55.497.064-19.861-.02-39.723-.233-60.504-.064-26.307.065-51.694.001-78-.033-14.294.127-27.668.826-42.136 1.255-1.6 1.971-2.106 2.688-2.612 13.728 13.868 27.456 27.737 41.8 41.882 17.569 18.017 34.523 35.759 52.102 53.733 11.32 11.525 21.98 22.848 32.719 34.097a1042 1042 0 0 0 23.346 23.718c14.607 14.902 28.574 29.586 42.592 44.221 7.553 7.887 15.193 15.691 23.41 23.771 13.348 13.543 26.08 26.846 39.414 40.406"/><path fill="#454500" d="M1235.726 2561.888s.155.98.129 1.474c-140.602.529-281.177.568-421.752.562-2.286 0-4.572-.547-7.478-1.391-.619-.553-.73-1.066-.237-.997.84.024 1.188-.02 1.536-.065 32.737.108 65.474.215 100.063.316 45.3.02 88.747.07 132.194.051 10.604-.004 21.207-.236 32.738-.21 50.416.18 99.904.217 149.393.215 3.974 0 7.948-.267 12.282-.254.36.155 1.132.299 1.132.299"/><path fill="#29290C" d="M1239.324 1895.592c-.61 1.087-1.326 1.593-2.449 2.266-.567-.804-.727-1.776-.45-3.614.437-.867 1.313-1.064 1.313-1.064.494.61.987 1.221 1.586 2.412"/><path fill="#FFFF30" d="M1237.514 1893.03c.224.15-.652.347-1.083.469-.153-.437.277-.684 1.083-.468z"/><path fill="#FF7" d="M1918.516 2081.927c-14.843 15.642-30.653 31.115-45.988 47.047-27.147 28.205-53.934 56.757-81.009 85.032-20.196 21.092-40.584 42-60.934 62.946-19.868 20.45-39.795 40.842-60.642 62.23-24.656-25.465-49.055-50.666-73.669-76.492 9.3-1.258 16.039-7.916 23.742-12.185 24.103-13.358 47.782-27.48 71.618-41.318 27.283-15.84 54.542-31.72 81.841-47.532 19.255-11.153 38.555-22.229 57.842-33.327 19.862-11.428 39.723-22.856 59.603-34.252 6.628-3.8 13.227-7.668 20.026-11.138 1.934-.987 4.526-.684 7.57-1.01zm2.052-1.383c.1-.127-.08.661-.314.63-.233-.03.215-.504.314-.63"/><path fill="#FF6" d="M1071.991 2561.475c-10.603.127-21.206.359-31.81.363-43.447.019-86.894-.032-131.27-.21-1.126-3.885.574-6.192 3.876-8.069 22.217-12.625 44.347-25.405 66.473-38.189 22.415-12.95 44.782-25.98 67.19-38.941 20.108-11.63 40.241-23.217 60.366-34.82 19.263-11.106 38.54-22.189 57.791-33.317s38.427-22.38 57.75-33.379c3.692-2.101 7.917-3.269 12.631-4.89.867 31.37 1 62.762.167 95.075-4.417 1.948-8.167 2.425-11.27 4.1-10.805 5.835-21.413 12.036-32.046 18.184-23.846 13.789-47.652 27.647-71.494 41.44-13.791 7.98-27.689 15.778-41.386 23.914-3.23 1.918-7.483 3.586-6.968 8.74z"/><path fill="#FFFF5B" d="M807.763 2561.236c-.187.28-.535.324-1.3.05.127-.68.645-.668 1.3-.05"/><path fill="#FF7" d="M1072.919 2561.628c-1.443-5.306 2.81-6.974 6.04-8.892 13.697-8.136 27.595-15.934 41.386-23.913 23.842-13.794 47.648-27.652 71.494-41.44 10.633-6.149 21.241-12.35 32.046-18.184 3.103-1.676 6.853-2.153 11.07-3.182.894 30.755 1.023 61.513.62 93.324-.931 1.3-1.2 1.646-1.341 2.092-3.974.143-7.948.41-11.922.41-49.489.002-98.977-.035-149.393-.215"/><path fill="#FFFF5B" d="M1234.594 2561.589c-.22-.602.05-.948.755-1.326.308-.132.639.733.508 1.179-.13.446-.903.302-1.263.147"/></svg>