<svg xmlns="http://www.w3.org/2000/svg" viewBox="0 0 379.66 379.66"><path d="M0 0h379.66v379.66H0z" style="fill:#ba5400"/><path d="M231.99 255.28c-.95-.76-2.4-.73-3.44.08l-.02-.02c-5.46 4.22-11.47 7.5-17.9 9.76l-.51.19c-2.27.78-4.86-.07-6.28-2.1l-3.02-4.3c-1.73-2.48-4.02-3.78-6.97-4.02-1.28-.1-2.52-.14-4.01-.15-1.5 0-2.73.04-4.01.14-2.94.22-5.24 1.52-6.97 4l-3.03 4.29c-1.42 2.02-4 2.86-6.28 2.08l-.51-.19a63.7 63.7 0 0 1-17.87-9.81l-.02.02c-1.04-.8-2.48-.85-3.44-.08-.65.51-1.06 1.28-1.06 2.1 0 .58.16 1.15.5 1.65.75 1.08 16.2 23.97 18.64 27.55 3.4 5 8.08 7.9 13.89 8.63 3.29.42 6.64.62 10.11.65 3.47-.01 6.82-.21 10.1-.62 5.81-.71 10.49-3.6 13.91-8.59 2.45-3.57 17.96-26.43 18.71-27.49.35-.49.51-1.07.51-1.65 0-.82-.4-1.59-1.05-2.11h.03Zm-97.84-8.66c.42-1.16-.06-2.56-1.13-3.32v-.03a64.7 64.7 0 0 1-14.52-14.37l-.33-.44c-1.42-1.97-1.42-4.74.02-6.75l3.06-4.28c1.77-2.45 2.28-5.09 1.59-8.02-.3-1.28-.64-2.5-1.09-3.95-.46-1.45-.87-2.64-1.35-3.86-1.11-2.8-3.02-4.63-5.84-5.54l-4.91-1.61c-2.31-.76-3.88-3-3.85-5.47l.02-.55a67.6 67.6 0 0 1 3.62-20.43h-.03c.43-1.27.03-2.69-.97-3.38-.68-.47-1.51-.63-2.28-.38a2.8 2.8 0 0 0-1.38 1.01c-.76 1.07-17.27 23.22-19.84 26.7-3.59 4.87-4.85 10.31-3.75 16.19.62 3.33 1.46 6.65 2.49 10.03 1.08 3.37 2.28 6.57 3.67 9.64 2.44 5.43 6.55 9.09 12.22 10.86 4.06 1.27 30 9.25 31.22 9.65.56.18 1.15.16 1.69-.02.77-.25 1.35-.89 1.63-1.68h.01Zm-21.04-96.9c1.25.05 2.43-.84 2.82-2.11h.03a64.3 64.3 0 0 1 9.12-18.53l.32-.45c1.44-1.99 4.09-2.83 6.49-2.05l5.09 1.67c2.92.98 5.62.66 8.21-.91 1.13-.69 2.19-1.38 3.43-2.26 1.25-.89 2.25-1.66 3.27-2.5 2.33-1.93 3.47-4.35 3.44-7.38l-.03-5.27c-.02-2.48 1.63-4.7 4.01-5.42l.53-.15c6.72-1.98 13.7-2.91 20.78-2.72v-.03c1.35.03 2.58-.79 2.93-1.97.24-.8.12-1.66-.37-2.33-.34-.47-.82-.83-1.41-1.04-1.26-.42-27.84-9.69-32.01-11.12-5.83-2.01-11.46-1.56-16.75 1.31-2.99 1.62-5.91 3.45-8.83 5.49-2.89 2.08-5.57 4.23-8.07 6.52-4.43 4.04-6.61 9.15-6.49 15.21.09 4.34.79 32.02.79 33.33 0 .61.22 1.17.56 1.64.49.67 1.28 1.04 2.13 1.07Zm85.06-50.2c.33 1.18 1.53 2.01 2.83 1.98v.02c6.89-.16 13.68.78 20.21 2.78l.52.15c2.3.72 3.9 2.95 3.88 5.42l-.04 5.26c-.04 3.03 1.06 5.44 3.33 7.38.98.85 1.96 1.61 3.17 2.5s2.24 1.59 3.34 2.28c2.52 1.57 5.14 1.89 7.99.93l4.96-1.65c2.33-.78 4.92.08 6.31 2.06l.3.45a65 65 0 0 1 8.82 18.54h.03c.37 1.26 1.52 2.15 2.74 2.11.83-.03 1.6-.4 2.08-1.07a2.9 2.9 0 0 0 .55-1.63c.01-1.31.76-28.95.86-33.28.14-6.06-1.97-11.17-6.27-15.21a87 87 0 0 0-7.83-6.53 86 86 0 0 0-8.57-5.51c-5.14-2.88-10.61-3.34-16.29-1.35-4.06 1.42-29.93 10.61-31.17 11.03-.57.19-1.04.56-1.37 1.03-.48.67-.6 1.52-.36 2.33Zm73.19 65.1c-1 .69-1.4 2.1-.98 3.37h-.02a68.1 68.1 0 0 1 3.57 20.47l.02.56c.03 2.46-1.55 4.71-3.86 5.46l-4.9 1.6c-2.82.91-4.73 2.73-5.84 5.53-.49 1.22-.9 2.41-1.36 3.86-.45 1.45-.8 2.67-1.1 3.95-.7 2.93-.2 5.58 1.57 8.03l3.04 4.29c1.43 2.01 1.43 4.79 0 6.76l-.33.44a64.2 64.2 0 0 1-14.54 14.34v.03c-1.05.76-1.53 2.15-1.12 3.31.28.79.86 1.43 1.62 1.69.54.18 1.12.2 1.69.02 1.22-.4 27.14-8.31 31.19-9.57 5.67-1.76 9.77-5.4 12.23-10.83 1.39-3.07 2.6-6.26 3.69-9.63 1.05-3.38 1.89-6.7 2.51-10.03 1.12-5.88-.13-11.33-3.7-16.22-2.56-3.49-18.97-25.71-19.73-26.77-.35-.49-.84-.83-1.37-1.01-.76-.26-1.6-.1-2.27.37Z" style="fill:#d9ead7"/></svg>