<svg xmlns="http://www.w3.org/2000/svg" viewBox="0 0 225 225"><path fill="#00A3FF" d="M0 0h225v225H0z"/><path fill="#FAFDFF" d="M65 105c4.122.592 7.037 1.957 10.613 4.063l3.287 1.917 3.412 2.02c9.842 5.772 19.74 11.405 29.688 17v60h2l.336-2.223c.696-2.912 1.668-4.714 3.289-7.214 3.919-6.302 7.114-12.907 10.375-19.563a586 586 0 0 1 8.188-15.938l2.37-4.464 1.219-2.293q1.82-3.434 3.633-6.871C154.3 110.788 154.3 110.788 158 106c3.62 1.207 3.82 1.888 5.5 5.188 7.272 15.38 6.835 30.163 1.287 45.788-6.108 15.71-17.401 24.34-32.256 31.157-12.965 5.136-29.33 4.755-42.134-.508-5.664-2.536-10.65-5.647-15.397-9.625l-1.879-1.508c-9.899-8.814-16.353-23.49-17.46-36.476C55.16 126.75 58.748 116.592 65 105"/><path fill="#98D9FF" d="M112 34h2l.742 1.441c3.018 5.65 6.463 10.965 10.039 16.272 4.776 7.091 9.43 14.26 14.074 21.44a862 862 0 0 0 6.008 9.163l1.297 1.967q1.707 2.585 3.426 5.162L151 92l-1 2-13.594-7.676A5486 5486 0 0 1 113 73v44c-4.746-1.582-8.24-3.105-12.5-5.555-.599-.343-1.198-.685-1.814-1.039a998 998 0 0 1-3.772-2.173 1342 1342 0 0 0-5.727-3.292C83.68 101.776 78.257 98.57 73 95c1.518-4.364 3.84-7.97 6.438-11.75l2.738-4.05 1.424-2.11c2.219-3.314 4.37-6.672 6.525-10.028q7.165-11.098 14.438-22.126l2.13-3.267c.66-.996 1.32-1.992 1.998-3.018l1.788-2.719z"/><path fill="#96D9FF" d="M158 106c3.62 1.207 3.82 1.888 5.5 5.188 7.272 15.38 6.835 30.163 1.287 45.788-6.108 15.71-17.401 24.34-32.256 31.157-6.845 2.712-13.283 3.012-20.531 2.867l2-1q.504-2.5 1-5c1.164-2.184 1.164-2.184 2.625-4.438 3.919-6.301 7.114-12.906 10.375-19.562a586 586 0 0 1 8.188-15.938l2.37-4.464 1.219-2.293q1.82-3.434 3.633-6.871C154.3 110.788 154.3 110.788 158 106"/><path fill="#35B5FF" d="m160 106-1.836 1.715c-2.11 2.227-3.374 4.143-4.789 6.847l-1.547 2.926L150 121q-1.162 2.21-2.328 4.418-2.579 4.892-5.149 9.789a1614 1614 0 0 1-6.773 12.73 393 393 0 0 0-6.563 12.75c-3.273 6.639-6.883 13.088-10.493 19.548l-1.401 2.519-1.265 2.26c-1.152 2.1-1.152 2.1-2.028 4.986h-2v-60l15-8c4.203-2.416 8.391-4.843 12.563-7.313A1197 1197 0 0 1 151 108l1.94-1.119c3.69-2.004 3.69-2.004 7.06-.881"/><path fill="#98D9FF" d="M65 105c4.122.592 7.037 1.957 10.613 4.063l3.287 1.917 3.412 2.02c9.842 5.772 19.74 11.405 29.688 17v59c-3.266-4.083-5.535-7.744-7.75-12.375a2231 2231 0 0 0-2.125-4.328l-1.078-2.193c-3.724-7.482-7.781-14.8-11.797-22.127-.488-.892-.976-1.784-1.48-2.702q-1.521-2.778-3.048-5.552a507 507 0 0 1-8.019-15.211l-1.626-3.203a587 587 0 0 1-3.068-6.16l-1.415-2.794-1.229-2.48c-1.226-2.054-1.226-2.054-3.527-2.647L64 107z"/><path fill="#32B4FF" d="M113 73c7.49 2.996 14.341 7.037 21.316 11.063l2.86 1.646q2.873 1.657 5.738 3.328c.886.51 1.771 1.022 2.684 1.549l2.422 1.408c1.907 1.157 1.907 1.157 3.98 1.006-1.47 3.893-3.34 5.035-7 6.875-3.744 1.94-7.404 3.923-11 6.125-6.804 4.124-13.605 8.042-21 11z"/><path fill="#92D7FF" d="M112 34h2l.742 1.441c3.018 5.65 6.463 10.965 10.039 16.272 4.776 7.091 9.43 14.26 14.074 21.44a862 862 0 0 0 6.008 9.163l1.297 1.967q1.707 2.585 3.426 5.162L151 92l-1 2-13.594-7.676A5486 5486 0 0 1 113 73v44l-2-1 .092-3.436c.69-26.194 1.057-52.361.908-78.564"/><path fill="#F6FBFF" d="M111 35h2v37l-14 8c-6.25 3.643-6.25 3.643-12.49 7.305C82.75 89.497 79.125 91.555 75 93c2.81-7.034 6.483-13.155 10.688-19.438l3.992-6.03 2.116-3.188a973 973 0 0 0 6.9-10.625l3.481-5.394a1118 1118 0 0 0 2.262-3.526 972 972 0 0 1 3.174-4.92l1.837-2.857z"/></svg>