<svg xmlns="http://www.w3.org/2000/svg" width="200" height="200"><path fill="#5DDBFC" d="M0 0h200v200H0z"/><path fill="#0354F9" d="M0 0h200v90l-1-4h-22l-1.5-5.5c-6.635-21.373-19.205-38.072-39.098-48.746C117.922 22.227 97.063 20.204 77 26c-20.955 7.415-38.002 20.876-47.812 41.188-9.232 20.336-9.532 41.448-1.938 62.5C36.13 151.178 50.688 164.853 72 174c22.177 7.622 43.992 6.157 65-4 19.081-10.267 31.23-26.692 38-47h22l2-15h1v92H0z"/><path fill="#06A8D5" d="M76.25 43.125C82.068 47.092 85.476 52.161 87 59c.694 8.611.694 8.611-1 12l2.133-.621C96.093 68.207 103.768 67.353 112 67l.34-2.219c1.45-6.11 5.4-11.289 10.535-14.844C127.135 47.585 130.19 47.37 135 48c4.556 1.864 6.875 4.588 9 9 .322 5.53-1.01 9.39-4 14-1.253 2.853-1.253 2.853-1 6 1.315 1.829 2.813 3.382 4.363 5.016 3.717 4.505 5.395 9.945 6.075 15.671-.51 3.852-1.835 6.787-3.438 10.313-.398 1.988-.755 3.987-1 6l4 1 1 5c-4.75 3-4.75 3-7 3l.688 3.125c.362 4.5-.147 6.187-2.688 9.875a375 375 0 0 1-6 4l-1.875 2.813c-6.084 9.126-14.301 12.8-24.812 14.937A109 109 0 0 1 104 158l-3.594.191c-13.388.5-25.138-2.013-35.406-11.191-11.377-11.737-14.47-23.759-14.3-39.512.234-6.813 1.712-13.194 3.425-19.765 1.354-5.544 1.354-5.544-.184-10.82l-1.379-1.966C48.649 69.306 48.3 63.746 49 57c1.849-6.69 6.155-10.532 12-14 5.167-1.722 10.106-1.656 15.25.125"/><path fill="#000002" d="M199 108h1v92h-88c2.97-1.485 4.855-2.32 7.95-3.008 16.076-3.771 30.158-9.438 43.05-19.992l2.129-1.672C185.46 158.618 195.779 133.506 199 108"/><path fill="#000003" d="M0 112h1l.227 2.027C4.122 135.173 13.645 153.477 28 169l1.906 2.117C34.383 175.868 39.522 179.484 45 183l3.086 2.008C60.296 192.494 73.894 196.688 88 199v1H0z"/><path fill="#000103" d="M114 0h86v90h-1l-.262-2.062c-3.888-26.826-16.977-51.478-38.816-67.883C146.43 10.259 130.627 3.272 114 1z"/><path fill="#000002" d="M0 0h85v1l-3.594.848C65.45 5.74 52.004 10.854 38.891 20.863 36.61 22.548 34.579 23.867 32 25v2a264 264 0 0 1-4.36 3.6C12.442 43.582 4.015 66.872 1 86H0z"/><path fill="#7E0B4F" d="m73.776 114.66 2.396-.002c2.613.002 5.226.026 7.84.049q2.717.009 5.435.013c4.77.011 9.538.04 14.308.074 4.866.03 9.732.044 14.599.06q14.322.05 28.646.146l2 4-4 2v2h-2l.687 3.125c.364 4.504-.042 6.238-2.687 9.875-5.014 2.535-9.796 3.725-15.313 4.625-4.986.709-4.986.709-9.687 2.375-11.557 1.012-22.85.134-34-3l-2.645-.621c-5.25-1.402-7.929-3.487-11.164-7.856C67.06 129.851 67.06 129.851 65 129c-1.919-3.73-2.453-6.828-2-11 2.523-4.048 6.498-3.402 10.776-3.34"/><path fill="#05A9D8" d="M81 52c3 2 3 2 4 5 .07 2.374.084 4.75.063 7.125l-.028 3.82L85 71v1q3.188-.715 6.375-1.437l3.586-.81c2.934-.61 2.934-.61 5.039-1.753 3.348-.268 6.705-.232 10.063-.25l2.779-.062c7.23-.041 14.062.669 19.72 5.5L134 75c-2.501 1.668-4.35 2.585-7.125 3.563-2.672.842-2.672.842-4.875 2.437-1.666.04-3.334.043-5 0l1.188 2.063c1.137 4.112-.45 6.128-2.188 9.937-.553 3.87-.172 5.635 1.5 9.188 5.417 6.094 12.453 6.213 20.156 6.699L140 109c-2 2-2 2-4.785 2.195l-3.278-.07-3.285-.055L126 111h-1q3.344.039 6.688.063l3.761.035c3.013-.083 5.634-.39 8.551-1.098l-1 4c-4.204 1.02-8.273 1.145-12.574 1.133l-2.194.003q-2.293 0-4.586-.006-3.463-.005-6.925.007c-20.427.01-20.427.01-24.721-2.137v-2c1.645-1.148 1.645-1.148 3.813-2.375 3.172-1.886 5.12-3.524 7.187-6.625h2l1-3h2v-8l-3-1-1.312-2.75C101.248 82.552 98.122 79.707 93 78c-3.434.007-6.853.076-10.283.215-2.127.043-2.127.043-5.717-.215l-2-3 4-5-1.562.938C74.333 72.29 71.348 72.614 68 73v-2h2v-2l-3-1c3.49-4.004 5.65-5.627 11-6l.375-3.312C79 55 79 55 81 52"/><path fill="#D3358C" d="m73.776 114.66 2.396-.002c2.613.002 5.226.026 7.84.049q2.717.009 5.435.013c4.77.011 9.538.04 14.308.074 4.866.03 9.732.044 14.599.06q14.322.05 28.646.146l2 4c-2.993 2.597-4.809 3.378-8.762 3.363l-2.852.002-3.074-.053-3.21-.025c-8.698-.128-17.317-.793-25.979-1.566-6.798-.589-13.549-.94-20.373-.971l-2.472-.027c-4.193.021-7.511.378-11.278 2.277-.13 2.835-.13 2.835 1 6 9.79 9.656 27.569 9.238 40.402 9.253 8.135-.094 17.353-.402 23.598-6.253.813-3.605.813-3.605 1-7h5c.481 7.098.481 7.098-1.5 10.812-5.696 4.985-12.704 5.711-19.96 6.758-2.524.3-2.524.3-4.54 1.43-11.557 1.012-22.85.134-34-3l-2.645-.621c-5.25-1.402-7.929-3.487-11.164-7.856C67.06 129.851 67.06 129.851 65 129c-1.919-3.73-2.453-6.828-2-11 2.523-4.048 6.498-3.402 10.776-3.34"/><path fill="#084256" d="M137.75 49.125c2.945 2.455 4.575 4.396 6.25 7.875.322 5.53-1.01 9.39-4 14-1.253 2.853-1.253 2.853-1 6 1.32 1.94 2.81 3.562 4.426 5.262 2.13 2.353 3.412 4.798 4.574 7.738l-1 2-2.812-1.937c-6.408-4.146-14.202-3.992-21.598-2.614-1.551.45-3.076.988-4.59 1.551l-1-8 2.375-.75c4.609-1.59 9.11-3.412 13.625-5.25-3.323-4.154-6.922-5.192-12-6-3.672-.22-7.323-.19-11-.125l-2.926.027q-3.537.035-7.074.098v-1l12-1 1-5c4.886-9.874 13.357-17.536 24.75-12.875"/><path fill="#05A9D8" d="m64 127 1 2 1.813.875c2.606 1.34 4.264 2.927 6.187 5.125v2l2.938.313c3.746.522 7.12 1.649 10.656 2.968 5.745 1.716 11.575 1.86 17.527 1.817l2.257-.005c2.353-.005 4.706-.018 7.06-.03l4.818-.014q5.873-.017 11.744-.049c-4.634 7.94-9.23 11.052-17.827 13.526-4.103.895-8.302.659-12.486.661l-2.802.038C86.199 156.247 79.689 153.417 72 146c-4.35-5.213-7.649-10.638-10-17z"/><path fill="#F9FCFC" d="M178 86h21c1.058 4.23 1.192 8.115 1.188 12.438v2.407c-.174 18.141-.174 18.141-3.188 21.155a76 76 0 0 1-4.691.098l-2.862-.01-3.01-.025-3.021-.014q-3.708-.018-7.416-.049l.438-2.29C178.344 108.405 178.14 97.46 178 86"/><path fill="#096D88" d="M76.563 43.5 79 45l-2 1-2-1c-2.142-.235-2.142-.235-4.5-.25l-2.406-.078L66 45c-2.185 2.676-2.185 2.676-2 5l9 1v-3h2l1 8h2l-1 5-2.117.621-2.758.816-2.742.81c-2.366.68-2.366.68-4.383 1.753l-1 3-2 .813L60 70c-.816 3.06-.816 3.06-1 6h10c-2 2-2 2-3.984 2.246-2.334.604-2.334.604-3.282 3.477l-.984 3.34-1.016 3.347L59 91h-2q-.722 2.124-1.437 4.25l-.81 2.39A85 85 0 0 0 53 104h2l1-2v9l-3 1-1 9h-1c-.464-11.614.212-21.972 3.125-33.242 1.353-5.562 1.353-5.562-.184-10.856l-1.379-1.965C48.649 69.306 48.3 63.746 49 57c1.849-6.69 6.155-10.532 12-14 5.393-1.798 10.325-1.705 15.563.5"/><path fill="#F2F3F3" d="M142.625 87.75c2.824 1.71 4.972 3.18 6.375 6.25.633 4.352.564 6.231-2.062 9.813-5.315 3.957-11.397 5.135-17.938 4.187-4.87-1.359-8.856-2.965-12.625-6.375-1.714-3.272-2.058-4.983-1.375-8.625 6.55-8.234 18.214-9.685 27.625-5.25"/><path fill="#F1F3F3" d="M103.938 89.75c2.844 3.103 3.209 5.07 3.062 9.25-3.104 4.232-6.043 5.633-11 7-9.518 1.016-15.926-.195-23.5-5.875C71 98 71 98 70.313 95.125c.889-4.043 2.633-5.376 5.765-7.926 8.57-5.347 19.846-2.223 27.86 2.551"/><path fill="#06708D" d="M57 91h1c-.01.579-.02 1.157-.032 1.753C57.661 112.3 59.231 126.748 71 143l1.875 2.688c5.508 5.993 10.182 9 18.412 9.432 2.655.087 5.306.115 7.963.13l2.7.063c6.5.037 11.935-1.164 18.05-3.313l3-.937c2.5-1.329 2.978-2.468 4-5.063l2-3-11-1v-1l3.36-.621 4.39-.816 2.21-.409c3.375-.629 6.716-1.297 10.04-2.154a335 335 0 0 1-4 5l-1.543 1.938c-7.066 8.536-14.74 12.747-25.91 13.894-14.417.95-27.26.367-39.266-8.793C59.124 141.748 52.568 132.012 51 121c.05-2.387.05-2.387.313-4.687l.238-2.325C52 112 52 112 54 110l2 1-1-7h-2c.436-5.144.816-8.755 4-13"/><path fill="#02ACDB" d="m109 90 7 1-.25 3.625c.032 4.537 1.096 6.985 4.25 10.375 6.418 3.324 12.856 3.655 20 4-2 2-2 2-4.785 2.195l-3.278-.07-3.285-.055L126 111h-1q3.344.039 6.688.063l3.761.035c3.013-.083 5.634-.39 8.551-1.098l-1 4c-4.204 1.02-8.273 1.145-12.574 1.133l-2.194.003q-2.293 0-4.586-.006-3.463-.005-6.925.007c-20.427.01-20.427.01-24.721-2.137v-2c1.645-1.148 1.645-1.148 3.813-2.375 3.172-1.886 5.12-3.524 7.187-6.625h2l1-3h2z"/><path fill="#DF318F" d="m147 115 2 4c-2.993 2.597-4.809 3.378-8.762 3.363l-2.856.002-3.07-.052-3.174-.028c-27.744-.426-27.744-.426-39.138-3.285a358 358 0 0 0-10.156-.518c-3.817-.188-6.516-.642-9.844-2.482a180227 180227 0 0 1 38.42-.573 53927 53927 0 0 1 22.543-.335l3.614-.054A787 787 0 0 1 147 115"/><path fill="#05A9D8" d="m139 51 .938 2.438c.825 2.453.825 2.453 2.062 3.562.756 7.052-1.193 11.127-5 17-5.875-2.75-5.875-2.75-7-5-2.35-.69-2.35-.69-5.062-1.125l-2.786-.508L120 67c1.345-5.978 4.64-9.877 9-14 3.43-1.96 6.082-2.224 10-2"/><path fill="#222849" d="m147 103 1 2-2 3c-.39 1.99-.732 3.99-1 6l4 1c.625 2.375.625 2.375 1 5l-2 2-3-1 3-2-1-3-1.71.007c-52.957.198-52.957.198-76.29-1.007 3.228-2.152 4.284-2.2 8-2v-2l-2.875-.812C71 109 71 109 69 106l2.313.938c4.74 1.874 8.705 2.214 13.75 2.187l2.22.012c3.988.074 3.988.074 7.717-1.137l-15-1v-2l3.29.035 4.335.028 2.16.025c4.188.02 8.088-.261 12.215-1.088-2.883 4.214-5.043 5.76-10 7v2c9.067.966 18.051 1.156 27.157 1.13q3.451-.005 6.904.007 2.217 0 4.435-.004l2.061.006c3.606-.018 6.936-.29 10.443-1.139l1-3-2.066.984c-3.443 1.192-6.234 1.282-9.871 1.266l-3.59.016c-3.474-.266-6.234-1.02-9.473-2.266 3.314-1.105 3.8-.823 7 0 2.082.067 4.167.085 6.25.063l3.266-.028L138 110l-2.887-.332-3.8-.48-3.762-.458c-3.486-.717-5.657-1.71-8.551-3.73l2-1 3.625 1.438c7.544 2.954 13.094 1.7 20.375-1.438z"/><path fill="#D8378D" d="M85 121c12.519-.233 24.603.202 37 2 .578 2.39.578 2.39 1 5-1.813 2.538-2.985 2.995-6 4-10.895.879-22.087-2.64-31-9z"/><path fill="#181818" d="M92 88c3.5 1.563 3.5 1.563 6 4 .697 3.906.626 5.965-1.437 9.375-3.736 2.369-7.165 2.937-11.563 2.625-4.001-1.786-5.552-2.831-7.125-6.937.16-3.933 1.383-5.321 4.125-8.063 3.223-1.611 6.506-1.453 10-1"/><path fill="#570833" d="m84.313 118.875 2.244.027c1.814.024 3.629.06 5.443.098v1l-8 1 15 8v2c-4.844-.33-8.496-1.57-12.937-3.562-5.06-2.216-8.59-2.964-14.063-2.438 4.1 4.894 7.918 6.377 14 8l2.055.561c8.286 1.954 16.62 1.66 25.07 1.564q2.317-.016 4.633-.027 5.621-.035 11.242-.098c-12.99 6.703-32.342 3.6-46 0-5.461-2.018-9.857-3.93-13-9 0-2.625 0-2.625 1-5 4.28-2.39 8.547-2.236 13.313-2.125"/><path fill="#137692" d="M99 80v2l1.813.625c2.988 1.879 3.715 4.23 5.187 7.375l2 1v8h-1l-.687-3.25c-1.49-4.257-2.495-5.46-6.313-7.75-9.071-3.628-18.155-2.67-27 1v-5h3l-4-1v-2c7.395-3.361 19.942-5.705 27-1"/><path fill="#181818" d="M135 89c2.313 1.156 4.174 2.174 6 4 .438 2.25.438 2.25 0 5-2.709 3.208-4.345 4.698-8.484 5.453-4.055.168-6.692.045-10.203-2.078C121 99 121 99 120.875 96c2.427-6.472 7.693-7.819 14.125-7"/><path fill="#0B6E8E" d="M63 44c13.406-.586 13.406-.586 18 3 4.274 5.5 6.146 10.158 6.125 17.125l.008 2.633C87 69 87 69 86 71l3.125-1c3.36-.972 6.366-1.171 9.875-1v1q-3.404.794-6.812 1.563l-3.833.878C85 73 85 73 82 72l2-1c.054-2.25.093-4.5.125-6.75l.07-3.797C84.015 57.272 83.69 55.635 82 53c-2.762 2.762-2.579 5.207-3 9-3.328 1.426-6.437 2.376-10 3l-2.812.563L64 66c3.021-3.612 6.385-4.037 10.82-5.059.72-.31 1.439-.62 2.18-.941.88-2.023.88-2.023 1-4h-2c-1.354-2.709-1.065-5.01-1-8h-2v3l-9-1v-2l-2-1 2-1z"/><path fill="#DB338E" d="M71 52c2.578 1.108 4.649 2.433 7 4l-1 5-2.012.55C70.208 62.913 66.218 64.316 62 67h-3c-1.532-3.064-1.23-5.617-1-9 2.933-6.133 6.42-6.91 13-6"/><path fill="#6D2E66" d="M137 124h5c.481 7.098.481 7.098-1.5 10.813-5.696 4.984-12.704 5.71-19.96 6.757-2.524.3-2.524.3-4.54 1.43-11.266.986-23.218.594-34-3l-2-2 1.698.43c7.45 1.709 14.62 1.836 22.24 1.757l3.689-.001c6.288.087 6.288.087 12.373-1.186v-2l2.484-.55 3.266-.762 3.234-.739c2.995-.942 4.784-1.76 7.016-3.949.813-3.605.813-3.605 1-7"/><path fill="#105166" d="m136 137 2 1-1.562 1.5c-2.35 2.34-2.35 2.34-3.981 4.371-7.089 8.581-14.671 12.807-25.91 13.961C90.702 158.877 77.729 157.592 65 147c-1.773-1.59-1.773-1.59-3-3v-2h2l2.125 2.25c8.802 8.42 21.392 11.105 33.188 11.063l2.685.048c6.468.005 11.917-1.23 18.002-3.361l3-.937c2.5-1.329 2.978-2.468 4-5.063l2-3-11-1v-1l3.43-.621 4.445-.816 2.262-.409c4.048-.7 4.048-.7 7.863-2.154"/><path fill="#155676" d="M76.563 43.5 79 45l-2 1-2-1c-2.142-.235-2.142-.235-4.5-.25l-2.406-.078L66 45c-2.185 2.676-2.185 2.676-2 5l9 1v-3h2l1 8-2-1.5c-4.074-2.037-6.467-1.939-11-1.5-2.175 1.543-2.818 2.637-4 5a78 78 0 0 0-.062 4.625l.027 2.477L59 67l5-1v2l-5 2v-2h-2V55h2v-4h-3l-1 2h-2v2h-2l-1 11h-1c-.544-6.525-.043-11.668 4-17 6.971-6.452 14.443-9.34 23.563-5.5"/><path fill="#67174A" d="M105.563 119.875c13.14 1 26.267 1.671 39.437 2.125l-2 1 .688 3.125c.351 4.359-.449 6.202-2.688 9.875h-3l1.438-1.5c2.184-3.495 2.221-6.41 2.562-10.5h-5l.313 3.25C137 131 137 131 134.688 133.5L132 135l-3-1 2.938-1.875c3.09-1.782 3.09-1.782 4.062-4.125h-13l-1-4c-12.724-1.868-25.15-2.226-38-2l-1-2c7.673-1.165 14.847-.76 22.563-.125"/><path fill="#CF378B" d="m73.074 114.707 2.072.013c2.181.017 4.361.054 6.541.093q2.22.022 4.44.04 5.437.053 10.873.147v1l-21 1 16 1v1l-3.324.148-4.364.227-2.185.094c-4.1.224-7.37.708-11.127 2.531-.628 5.893-.628 5.893 2.25 10.813 3.325 2.66 3.325 2.66 6.75 5.187-3.49-.07-6.083-.158-8.73-2.59a98 98 0 0 1-3.008-3.816c-1.19-1.735-1.19-1.735-3.262-2.594-1.919-3.73-2.453-6.828-2-11 2.532-3.905 5.737-3.346 10.074-3.293"/><path fill="#10A2CC" d="M140.23 80.688c4.241 2.17 6.228 4.88 7.77 9.312l-1 2-2.812-1.937c-6.408-4.146-14.202-3.992-21.598-2.614-1.551.45-3.076.988-4.59 1.551l-1-8 1.688.625c2.358.592 2.358.592 4.59-.578 5.266-2.025 11.558-2.022 16.952-.36"/><path fill="#0B617B" d="m137.5 49 1.5 1v1l-1.977.41c-6.69 1.648-10.3 3.765-14.023 9.59-1.836 3.25-1.836 3.25-3 6h-7c1.307-4.556 3.08-7.93 5.875-11.75l2.055-2.86c4.41-5.092 10.396-5.86 16.57-3.39"/><path fill="#780E4C" d="m134 127 2 1c-1.46 3.848-3.339 5.212-7 7-4.56 1.394-9.277 1.093-14 1l3-2-2.922.14-3.828.11-3.797.14C104 134 104 134 101.547 131.985L100 130l3.438.5c9.796 1.234 9.796 1.234 18.664-2.605 3.707-1.748 7.9-1.341 11.898-.895"/><path fill="#037A9B" d="M57 91h1c-.01.579-.02 1.157-.032 1.753C57.608 108 57.608 108 60 123l.566 2.277L61 127l-4 1-1-3h-3v-3l-2-1c.114-1.46.242-2.917.375-4.375.07-.812.14-1.624.21-2.46C52 112 52 112 54 110l2 1-1-7h-2c.436-5.144.816-8.755 4-13"/><path fill="#0C6A86" d="M58 79h4c-.6 4.195-1.575 8.01-3 12h-2q-.722 2.124-1.437 4.25l-.81 2.39A85 85 0 0 0 53 104h2l1-2v9l-3 1-1 9h-1c-.395-9.885-.347-19.303 1.813-29l.5-2.298c.906-3.737 1.69-6.23 4.687-8.702z"/><path fill="#DE3590" d="m115.313 122.875 3.8.055L122 123c.625 2.375.625 2.375 1 5-2 2-2 2-5.844 2.23a358 358 0 0 1-4.656-.042l-2.379-.002c-5.84-.046-5.84-.046-8.121-1.186.188-1.875.188-1.875 1-4 4.106-2.206 7.715-2.21 12.313-2.125"/><path fill="#1197BE" d="M71 98q2.26 1.39 4.5 2.813l2.531 1.582L80 104v3h17c-4.376 3.282-6.707 3.46-11.875 3.375l-2.105.035c-4.787-.027-7.874-1.125-12.02-3.41h-3v-2h4z"/><path fill="#107293" d="M102 105c-6.286 5.571-6.286 5.571-10 6v2l2 1-17-1v-2l-2.875-.812C71 109 71 109 69 106l2.313.938c4.74 1.874 8.705 2.214 13.75 2.187l2.22.012c3.988.074 3.988.074 7.717-1.137l-15-1v-2l3.36.035 4.39.028 2.21.025c4.12.043 4.12.043 8.158-.657C100 104 100 104 102 105"/><path fill="#F6F8F7" d="m129.688 85.938 2.449.027L134 86l-1 3c-1.926.738-1.926.738-4.312 1.313-4.747 1.406-6.234 3.344-8.688 7.687l-3 1-2-1c.125-3.25.125-3.25 1-7 4.399-3.634 8.04-5.144 13.688-5.062"/><path fill="#D3358C" d="M62.98 52.695c2.01-.007 4.018.14 6.02.305l-1 2-3 1 1 2.313C67 61 67 61 67 64c-2.888 2.108-4.385 3-8 3-1.532-3.064-1.23-5.617-1-9 1.63-4.79 1.63-4.79 4.98-5.305"/><path fill="#057698" d="m56 50 3 1v4h-2v12l-2 1-2-2-2 1V55h2v-2h2z"/><path fill="#17A1CB" d="M115 91c1 2 1 2 .813 4.75.247 4.289 1.34 6.047 4.187 9.25 6.418 3.324 12.856 3.655 20 4-2 2-2 2-4.645 2.23-1.568-.02-1.568-.02-3.167-.043l-3.145-.019c-2.786-.154-5.318-.612-8.043-1.168-2.232.369-2.232.369-4 1l.563-2.375c.697-2.596.697-2.596-.563-4.625a78 78 0 0 0-5-2v-3h2l-.062-3.437C114 92 114 92 115 91"/><path fill="#0A526A" d="M99 80v2l1.813.625c2.988 1.879 3.715 4.23 5.187 7.375l2 1v8h-1l-.687-3.187c-1.107-3.973-3.2-6.109-6.313-8.813l2-1c-9.171-6.462-18.214-5.628-29-4 1-2 1-2 2.863-2.633C92.912 75.941 92.912 75.941 99 80"/><path fill="#0A4F62" d="M76.563 43.5 79 45l-2 1-2-1c-2.207-.07-4.417-.084-6.625-.062l-3.602.027L62 45l-.871 2.457L60 50c-2.062.688-2.062.688-4 1l-1 2h-2v2h-2l-1 11h-1c-.544-6.525-.043-11.668 4-17 6.971-6.452 14.443-9.34 23.563-5.5"/><path fill="#0AA7D4" d="m109 90 5 1v7l-3-1v3l-1.937.313L107 101l-1 3h-2l-1 5-4 1c0-3.932 1.394-5.164 4-8h2l1-3h2z"/><path fill="#14556B" d="m147 103 1 2a91 91 0 0 1-4 4h-2v2c-3.44 1.147-6.187 1.168-9.812 1.188l-3.645.042c-3.524-.229-6.264-.96-9.543-2.23 3.314-1.105 3.8-.823 7 0 2.082.067 4.167.085 6.25.063l3.266-.028L138 110l-2.887-.332-3.8-.48-3.762-.458c-3.486-.717-5.657-1.71-8.551-3.73l2-1 3.625 1.438c7.544 2.954 13.094 1.7 20.375-1.438z"/><path fill="#E1328F" d="M72 116c4.5-.03 9-.047 13.5-.062l3.844-.026C102.3 115.878 102.3 115.878 108 117l1 2c-8.613.096-17.21.098-25.812-.375-1.286-.07-2.57-.14-3.895-.21-3.04-.383-4.666-.989-7.293-2.415"/><path fill="#C73685" d="M137 124h5c.485 7.156.485 7.156-1.687 10.938-2.525 2.251-3.983 2.785-7.313 3.062l-1-2 1.938-2.062c2.388-3.402 2.74-5.842 3.062-9.938"/><path fill="#047A9A" d="m131.625 49.938 3.04.027L137 50c-3 2-3 2-5.875 3.25-3.691 2.067-5.589 4.391-8.125 7.75l-1.812 2.375L120 65c-.999-3.073-1.387-5.15-.023-8.145 3.443-5.587 4.937-6.996 11.648-6.917"/><path fill="#E03290" d="m147 115-1 5-5 1v-2h-2v2h-2v-2l-1.703.992c-2.566 1.126-4.265 1.215-7.047 1.133l-2.422-.055L124 121v-2c2.525-1.262 4.312-1.099 7.125-1.062l2.758.027L136 118v-2c3.674-1.176 7.17-1.074 11-1"/><path fill="#010413" d="M64 0h21v1l-1.649.427q-3.739.972-7.476 1.948l-2.594.672C68.795 5.22 64.38 6.464 60 8l-1-4 6-1z"/><path fill="#02071E" d="M114 0h21l1 2-2 1 4 1v2l3 1c-2 1-2 1-3.876.579l-2.265-.759-2.496-.816-2.613-.879C122.007 2.541 122.007 2.541 114 1z"/><path fill="#03061A" d="M66 194c2.59.567 5.129 1.19 7.688 1.875C78.444 197.13 83.125 198.278 88 199v1c-3.583.058-7.166.094-10.75.125l-3.078.05-2.969.02-2.73.032c-2.612-.24-4.23-.904-6.473-2.227h4l-1-3z"/><path fill="#10A8D2" d="M92 80c4.446 1.068 7.877 2.6 11 6l-1 2-1.406-.84C93.014 83.186 85.374 83.205 77 83c4.635-4.093 9.09-3.612 15-3"/><path fill="#047A9C" d="M65 136c3.319 3.063 5.877 6.473 8.54 10.094 1.655 2.16 3.46 4.06 5.46 5.906-6.117-1.672-10.48-3.48-15-8-1.208-3.623-.543-4.641 1-8"/><path fill="#020518" d="m5 60 3 1-1.023 2.93C4.466 71.222 2.205 78.355 1 86H0q-.04-4.437-.062-8.875l-.026-2.55-.01-2.442-.016-2.254C0 68 0 68 1 66h3l-.062-2.437C4 61 4 61 5 60"/><path fill="#BD3682" d="M100 116h36v1h-24v3l4 1-20-1v-1l12-1-8-1z"/><path fill="#10637D" d="M62 142h2l2.125 2.25c6.23 5.96 14.7 8.506 22.875 10.75-2.266 1.402-3.537 2.045-6.227 1.785C74.915 154.418 67.44 150.297 62 144z"/><path fill="#1A97BF" d="m144 110-1 4c-4.318 1.064-8.507 1.13-12.926 1.098l-2.265-.005c-2.374-.005-4.748-.018-7.121-.03q-2.424-.009-4.846-.014-5.922-.017-11.842-.049v-1l24-1v-1l2.3-.184 3.012-.254c.987-.08 1.973-.162 2.989-.246 2.689-.315 5.007-1.316 7.699-1.316"/><path fill="#075870" d="M53 95h1l-1 9h2l1-2v9l-3 1-1 9h-1a1183 1183 0 0 1-.125-9.062l-.05-2.569c-.041-5.203.478-9.444 2.175-14.369"/><path fill="#E6E9E8" d="m116 97 2 1 3-1 1.563 2.438c3.07 3.226 5.086 3.311 9.437 3.562v1h-5v3c-4.495-1.254-7.591-2.786-11-6l-1-3z"/><path fill="#800A4F" d="M125 127q2.188-.04 4.375-.062l2.46-.036C134 127 134 127 136 128c-.687 1.938-.687 1.938-2 4-2.25.688-2.25.688-5 1l-3.312.563L123 134z"/><path fill="#F9FAF9" d="m75 88 1 2-1 2h3v6h-2v2c-3.875-.875-3.875-.875-5-2-.312-2.812-.312-2.812 0-6 2-2.375 2-2.375 4-4"/><path fill="#0890B7" d="m77 69 3 1-1 2h-2c-.59 1.946-.59 1.946-1 4 1.189 1.418 1.189 1.418 4.598 1.098q2.232-.01 4.465-.035l2.298-.014q2.82-.02 5.639-.049v1l-17 2v-2l-7-1v-2l2.875-.75c3.212-.936 3.212-.936 4.5-3.375z"/><path fill="#1C4666" d="m136 137 2 1-1.687 1.625c-2.608 2.678-4.946 5.482-7.313 8.375l-3-1 3-4-11-1v-1l3.43-.621 4.445-.816 2.262-.409c4.048-.7 4.048-.7 7.863-2.154"/><path fill="#1E4651" d="m144 86 1-2a101 101 0 0 1 3 6l-1 2-2.812-1.937c-6.408-4.146-14.202-3.992-21.598-2.614-1.551.45-3.076.988-4.59 1.551 2.125-2.75 4.495-3.862 7.836-4.723 6.035-.773 12.263.477 18.164 1.723"/><path fill="#D3368C" d="m147 116 2 1c-1.75 3.875-1.75 3.875-4 5-1.813.085-3.63.107-5.445.098l-3.262-.01-3.418-.025-3.441-.014A2715 2715 0 0 1 121 122v-1l11-1v-1h5v2h2v-2h2v2c2.155-1.58 4.106-3.106 6-5"/><path fill="#08556F" d="M51 71c3 2 3 2 4 5l3-4 1 4h10c-2.398 2.398-3.333 2.343-6.625 2.625l-2.477.227L58 79l1 3-3 1-.812-2.187c-1.128-2.86-1.128-2.86-2.813-5.5C51 73 51 73 51 71"/><path fill="#6B356E" d="M69 123c2 3 2 3 2.125 5.875 1.033 3.689 1.787 4.05 4.938 6A131 131 0 0 0 80 137c-3.168 1.056-3.993 1.17-7 0-1.633-1.594-1.633-1.594-3.125-3.5-2.074-2.688-2.074-2.688-4.875-4.5v-4h4z"/><path fill="#5ECEE9" d="M94 66c2.204.23 4.414.41 6.625.563l3.602.253L107 67v1l-21 3 1-5c4.75-1.125 4.75-1.125 7 0"/><path fill="#76DAF2" d="M177 86h1a93.6 93.6 0 0 1 0 30h-1c-.2-3.5-.382-7-.562-10.5l-.17-2.977c-.284-5.67-.17-10.915.732-16.523"/><path fill="#1458D3" d="M195 71c3.252 4.878 4 9.17 4 15h-22v-1h21l-1-3-2-1z"/><path fill="#0B7494" d="m126 68 5 1v2l3 1c3 3.444 3 3.444 3 6l-14 2c1-2 1-2 3.066-2.852l2.496-.773c.827-.26 1.653-.52 2.504-.79L133 75c-2.363-2.526-3.665-3.888-7-5z"/><path fill="#164B5B" d="M102 105c-3.996 3.71-6.37 5.598-12 6 3-2 3-2 5-3l-15-1v-2l3.36.035 4.39.028 2.21.025c4.12.043 4.12.043 8.158-.657C100 104 100 104 102 105"/><path fill="#15A1C6" d="M83 107h14c-4.492 3.37-6.95 3.37-12.25 3.188l-2.258-.042A452 452 0 0 1 77 110v-1l6-1z"/><path fill="#0B4EDF" d="M160.563 176.938 163 177c-3.389 3.588-6.761 6.457-11 9h-2v-2h2l1-5 1.938-.437c2.702-.738 2.667-1.553 5.625-1.625"/><path fill="#F2F4F3" d="M76 98c3 0 3 0 5.063 1.938L83 102l2 1v3c-1.462-.424-2.92-.865-4.375-1.312l-2.46-.739C76 103 76 103 74 100h2z"/><path fill="#020B28" d="M129 197h-2l1 3h-16c3.075-1.537 5.247-2.447 8.5-3.187l2.281-.543c2.367-.288 3.964.008 6.219.73"/><path fill="#530732" d="m100 130 18 2c-2.675 2.675-4.148 2.33-7.875 2.375l-3.18.086C104 134 104 134 100 130"/><path fill="#4E0830" d="M84 122c3.542 1.366 6.926 2.91 10.313 4.625l2.675 1.352L99 129v2l-7-1-1-3c-2.424-1.17-2.424-1.17-5-2l-2-1z"/><path fill="#0EA6D2" d="M96 109c2 1 2 1 4 3 2.433.462 2.433.462 5.125.625l2.758.227L110 113v1q-3.937.04-7.875.063l-2.262.025c-5.636.025-5.636.025-7.863-1.088v-2c1.875-1.062 1.875-1.062 4-2"/><path fill="#0B4EE6" d="M116 1c4.97.514 9.29 1.234 14 3v1c-3.62 1.316-6.096 2-10 2V5h2V3l-5 1z"/><path fill="#0CA3CC" d="M58 117h2l1 4 2-3 2 9-3 2a563 563 0 0 1-2-4.312l-1.125-2.426C58 120 58 120 58 117"/><path fill="#500831" d="m84.313 118.875 2.244.027c1.814.024 3.629.06 5.443.098v1l-17 1v2l-4 1v-3c4.41-2.21 8.49-2.237 13.313-2.125"/><path fill="#158FB3" d="m106 99 1 4-3 1-1 5-4 1c0-3.932 1.394-5.164 4-8h2z"/><path fill="#097899" d="M139.438 83.5 142 85c-3.242 1.08-5.072.963-8.437.625l-2.872-.273A47 47 0 0 1 124 84c5.408-2.622 9.894-2.92 15.438-.5"/><path fill="#04071D" d="M184 42c3.875 1.75 3.875 1.75 5 4 .04 2.333.043 4.667 0 7-2.619-2.37-4.419-4.837-6-8z"/><path fill="#C93B86" d="M101 129c6.44-.107 12.626.038 19 1-4.067 2.712-7.23 2.41-12 2-2.427-.513-4.645-1.198-7-2z"/><path fill="#08556E" d="m52 122 1 3 4-1 1 5h-2v3l2 1-2 2a411 411 0 0 1-2-4.25l-1.125-2.39C52 126 52 126 52 122"/><path fill="#1E1E24" d="M199 108h1v19l-3-2z"/><path fill="#0661E7" d="M92 21c3.77-.087 7.541-.14 11.313-.187l3.248-.077 3.115-.029 2.872-.048C115 21 115 21 118 24l-26-2z"/><path fill="#09A5D4" d="m76 45 3 1c.625 2.313.625 2.313 1 5l-2 3h-3z"/><path fill="#47052D" d="M121 122c5.126-.103 9.95-.036 15 1v1h-11l-1 4z"/><path fill="#0B65EF" d="M21 108h1l3 17h-2c-3.284-5.911-2.992-10.497-2-17"/><path fill="#24446B" d="M73 48h2l1 8-1.875-1.5C69.74 52.395 65.783 52.75 61 53l1-2h11z"/><path fill="#0F708E" d="M115 91c1 2 1 2 .875 4.813.141 3.607 1.071 5.277 3.125 8.187l-7-2v-3h2l-.062-3.437C114 92 114 92 115 91"/><path fill="#0A44CD" d="M80 196h4v2l3.188-.062c3.139.051 5.78.327 8.812 1.062v1c-6.283.233-11.88-.595-18-2z"/><path fill="#E33092" d="M66.125 52.875 69 53l-1 2-3 1v5l-2 1-2-7c2-2 2-2 5.125-2.125"/><path fill="#020A27" d="m167 173 1 2c-1.625 2.938-1.625 2.938-4 6-3.25.875-3.25.875-6 1z"/><path fill="#0D7390" d="m51 69 7 2-2 6c-2.275-2.167-4.158-4.456-6-7z"/><path fill="#094CD9" d="M12 50c1.322 2.177 2.013 3.552 1.938 6.125C13 58 13 58 10.438 59.25L8 60c1.11-3.487 2.263-6.775 4-10"/><path fill="#030E31" d="m176 164 1 4h-2v3l-7 2q1.436-1.688 2.875-3.375l1.617-1.898A76 76 0 0 1 176 164"/><path fill="#C43682" d="m132 134 2 4c-3.135 1.858-5.375 2.201-9 2l4-2-4-2z"/><path fill="#030926" d="M72 3c-2.686 1.79-4.663 2.66-7.687 3.625-1.213.39-1.213.39-2.45.79-.615.192-1.23.386-1.863.585l-1-4c4.386-.702 8.558-1.108 13-1"/><path fill="#020D33" d="m142 192-3 2 1 2h-11c2.437-1.625 4.373-2.657 7.063-3.687l2.097-.825C140 191 140 191 142 192"/><path fill="#DE328F" d="M138 125h4v6h-4z"/><path fill="#66073D" d="m83 122 1 2a89 89 0 0 0 5 2l2 1v2q-2.19-.676-4.375-1.375l-2.46-.773C82 126 82 126 80 124z"/><path fill="#14728D" d="M139 51c4.976 4.816 4.976 4.816 5.063 9.125L144 63l-2-1a530 530 0 0 1-1-5l-2-2z"/><path fill="#0D4FDD" d="M76 4c-2.585 1.724-4.038 2.447-6.937 3.188l-2.028.542C64.753 8.033 63.18 7.688 61 7q2.618-1.048 5.25-2.062l2.953-1.16C72.04 2.987 73.294 2.975 76 4"/><path fill="#020822" d="M158 182c-.625 2.375-.625 2.375-2 5-3.125 1.313-3.125 1.313-6 2l-2-2q1.932-1.257 3.875-2.5l2.18-1.406C156 182 156 182 158 182"/><path fill="#0660F0" d="m163 148 1 2a367 367 0 0 1-3.312 4l-1.864 2.25C157 158 157 158 154 158z"/><path fill="#01081D" d="M194 132c2 4 2 4 1.875 6.125C195 140 195 140 191 142z"/><path fill="#0B4EDC" d="M49 13v3l-3 1-1 3h-5c2.808-2.964 5.183-5.445 9-7"/><path fill="#017A9E" d="M58 120c1.746 2.62 2.387 4.038 3 7l-4 1v-5l-2-1z"/><path fill="#462856" d="m69 115-1 3c-2.062.688-2.062.688-4 1l1 6-2-1c-.365-5.478-.365-5.478 1.313-7.875C66 115 66 115 69 115"/><path fill="#0BA7D4" d="m122 111 15 2v1h-14z"/><path fill="#57CFFC" d="m48 41 1 2-7 8-3-1z"/><path fill="#0B4DD8" d="M19 40c1 4 1 4 1 6h-4l-1 4-2-1z"/><path fill="#0A4FE0" d="M187 144h2c-1.09 3.775-1.908 6.47-5 9l1-7h2z"/><path fill="#134859" d="M62 142c2 0 2 0 4.438 2.25 2.032 2.181 3.85 4.317 5.562 6.75-4.428-1.392-6.956-3.52-10-7z"/><path fill="#020C2B" d="M4 130c2.19 3.285 2.998 6.207 4 10l-4 1z"/><path fill="#104BD7" d="M192 133h2q-.676 2.19-1.375 4.375l-.773 2.46C191 142 191 142 189 144v-8h3z"/><path fill="#D8358C" d="M135 132h2v5l-4 1-1-2c1.375-2 1.375-2 3-4"/><path fill="#047B9C" d="m58 83 2 2c-.375 3.125-.375 3.125-1 6h-3c.875-6.875.875-6.875 2-8"/><path fill="#0B46C9" d="M195 71c2.003 3.004 2.493 4.71 3.125 8.188l.508 2.73L199 84c-1.984-1.176-1.984-1.176-4-3-.39-2.48-.39-2.48-.25-5.187l.11-2.731z"/><path fill="#0A7D9E" d="m79 46 4 3-1 4h-4z"/><path fill="#6E0D45" d="m124 127 1 2 3 1h-4v2h-5z"/><path fill="#0A728D" d="M54 116h2l-2 9-1-3-2-1c1.875-3.875 1.875-3.875 3-5"/><path fill="#1AA1C8" d="M96 82c4.677 1.477 4.677 1.477 6.313 4.125L103 88l-8-3z"/><path fill="#030E32" d="m5 60 3 1-3 8H4c-.098-6.152-.098-6.152 0-8z"/><path fill="#693369" d="M76 56h2l-1 5-5 1v-3h4z"/><path fill="#084AD3" d="M32 25h2c-.812 2.938-.812 2.938-2 6l-3 1-2-2c1.375-1.5 1.375-1.5 3-3h2z"/><path fill="#730E4A" d="M80 124c-3 2-3 2-5 2l2 4c-1.937-.812-1.937-.812-4-2l-1-3c2.928-.976 4.956-1.082 8-1"/><path fill="#04071F" d="m198 124 2 4c-1.375 1.5-1.375 1.5-3 3h-2c.375-2.937.375-2.937 1-6z"/><path fill="#E5E9EA" d="m78 102 7 1v3l-7-2z"/><path fill="#020823" d="m22 33 3 1-6 7-1-4 4-2z"/><path fill="#020621" d="M170 28h5l1 2-1 2h2l-1 3z"/><path fill="#0A4DDC" d="M140 8c6.75 2.75 6.75 2.75 9 5h-8l2-1v-2h-3z"/><path fill="#020C2C" d="M16 156c2.648 2.578 4.944 4.916 7 8l-6-2z"/><path fill="#E53194" d="m68 117 3 3-2 5-2-1 2-5h-2l-1 2v-3z"/><path fill="#0B4DD6" d="m39 179 2.375.563c2.596.697 2.596.697 4.625-.563l1 5c-3.375-1.186-5.647-2.276-8-5"/><path fill="#5DD0E5" d="m128 148 1 2-5 5-3-2 2.938-1.937c2.822-1.76 2.822-1.76 4.062-3.063"/><path fill="#5FD2E8" d="m134 140 2 4-3 1v2l-4 1z"/><path fill="#EC61AA" d="m122 127-1 3h-7v-2c5.75-1 5.75-1 8-1"/></svg>