<?xml version="1.0" encoding="UTF-8"?>
<svg version="1.1" xmlns="http://www.w3.org/2000/svg" width="200" height="200">
<path d="M0 0 C66 0 132 0 200 0 C200 66 200 132 200 200 C134 200 68 200 0 200 C0 134 0 68 0 0 Z " fill="#5DDBFC" transform="translate(0,0)"/>
<path d="M0 0 C66 0 132 0 200 0 C200 29.7 200 59.4 200 90 C199.67 88.68 199.34 87.36 199 86 C191.74 86 184.48 86 177 86 C176.505 84.185 176.01 82.37 175.5 80.5 C168.86474386 59.12749074 156.29480521 42.42843145 136.40234375 31.75390625 C117.92233644 22.22747309 97.06317257 20.20351881 77 26 C56.0450943 33.41504094 38.99841015 46.8759333 29.1875 67.1875 C19.95561328 87.5243719 19.65631038 108.63568721 27.25 129.6875 C36.1298284 151.17773561 50.68806485 164.85334413 72 174 C94.17654416 181.62246741 115.99222512 180.1573428 137 170 C156.08119392 159.73308663 168.23077598 143.30767207 175 123 C182.26 123 189.52 123 197 123 C197.66 118.05 198.32 113.1 199 108 C199.33 108 199.66 108 200 108 C200 138.36 200 168.72 200 200 C134 200 68 200 0 200 C0 134 0 68 0 0 Z " fill="#0354F9" transform="translate(0,0)"/>
<path d="M0 0 C5.81803807 3.96684414 9.22613562 9.03560869 10.75 15.875 C11.44444444 24.48611111 11.44444444 24.48611111 9.75 27.875 C10.45382813 27.67003906 11.15765625 27.46507813 11.8828125 27.25390625 C19.84264126 25.08209919 27.51797967 24.2281488 35.75 23.875 C35.86214844 23.1428125 35.97429687 22.410625 36.08984375 21.65625 C37.5401139 15.54623613 41.49075745 10.36697561 46.625 6.8125 C50.8844886 4.45878641 53.93950164 4.24411497 58.75 4.875 C63.3062994 6.73894066 65.62547226 9.46251931 67.75 13.875 C68.07181487 19.4043646 66.74079068 23.2641977 63.75 27.875 C62.49670216 30.72789698 62.49670216 30.72789698 62.75 33.875 C64.06540876 35.70395875 65.56283522 37.25705483 67.11328125 38.890625 C70.82959311 43.39632053 72.50803422 48.83557414 73.1875 54.5625 C72.67886422 58.41359945 71.35276193 61.34892376 69.75 64.875 C69.35235737 66.86321313 68.99544834 68.86232362 68.75 70.875 C70.73 71.37 70.73 71.37 72.75 71.875 C73.08 73.525 73.41 75.175 73.75 76.875 C69 79.875 69 79.875 66.75 79.875 C66.976875 80.90625 67.20375 81.9375 67.4375 83 C67.80040115 87.49997423 67.29054608 89.18711053 64.75 92.875 C62.76310269 94.22778115 60.76254782 95.56068305 58.75 96.875 C58.13125 97.803125 57.5125 98.73125 56.875 99.6875 C50.79089653 108.8136552 42.57384278 112.48709977 32.0625 114.625 C30.62716294 114.73970931 29.18872906 114.81661002 27.75 114.875 C26.5640625 114.93816406 25.378125 115.00132812 24.15625 115.06640625 C10.76834496 115.56599138 -0.98195171 113.05294727 -11.25 103.875 C-22.62650723 92.13796966 -25.72018282 80.11621586 -25.55078125 64.36328125 C-25.31567101 57.54990697 -23.83767384 51.1691362 -22.125 44.59765625 C-20.77095606 39.05447907 -20.77095606 39.05447907 -22.30859375 33.77734375 C-22.76363281 33.12894531 -23.21867187 32.48054688 -23.6875 31.8125 C-27.60234077 26.18003679 -27.95088169 20.61971655 -27.25 13.875 C-25.40099353 7.1856008 -21.09479152 3.34346971 -15.25 -0.125 C-10.0828841 -1.84737197 -5.14400242 -1.78061622 0 0 Z " fill="#06A8D5" transform="translate(76.25,43.125)"/>
<path d="M0 0 C0.33 0 0.66 0 1 0 C1 30.36 1 60.72 1 92 C-28.04 92 -57.08 92 -87 92 C-84.02916096 90.51458048 -82.1452521 89.6793492 -79.05078125 88.9921875 C-62.97400585 85.22098646 -48.89170991 79.55361277 -36 69 C-35.29746094 68.44828125 -34.59492188 67.8965625 -33.87109375 67.328125 C-13.54001428 50.61764872 -3.22008509 25.50646347 0 0 Z " fill="#000002" transform="translate(199,108)"/>
<path d="M0 0 C0.33 0 0.66 0 1 0 C1.07476562 0.66902344 1.14953125 1.33804688 1.2265625 2.02734375 C4.12163366 23.17271642 13.64460147 41.47714436 28 57 C28.6290625 57.69867188 29.258125 58.39734375 29.90625 59.1171875 C34.38260501 63.86803598 39.52234998 67.48404282 45 71 C46.01835938 71.66257812 47.03671875 72.32515625 48.0859375 73.0078125 C60.29649851 80.49354105 73.89418251 84.6875709 88 87 C88 87.33 88 87.66 88 88 C58.96 88 29.92 88 0 88 C0 58.96 0 29.92 0 0 Z " fill="#000003" transform="translate(0,112)"/>
<path d="M0 0 C28.38 0 56.76 0 86 0 C86 29.7 86 59.4 86 90 C85.67 90 85.34 90 85 90 C84.87044922 88.9790625 84.87044922 88.9790625 84.73828125 87.9375 C80.85001186 61.1120084 67.76062877 36.46011327 45.92211914 20.0546875 C32.42981177 10.25942998 16.6272573 3.27221362 0 1 C0 0.67 0 0.34 0 0 Z " fill="#000103" transform="translate(114,0)"/>
<path d="M0 0 C28.05 0 56.1 0 85 0 C85 0.33 85 0.66 85 1 C83.8140625 1.27972656 82.628125 1.55945313 81.40625 1.84765625 C65.44914476 5.74032084 52.0035617 10.85360156 38.890625 20.86328125 C36.61113102 22.54825855 34.57861128 23.86716349 32 25 C32 25.66 32 26.32 32 27 C30.55631458 28.21144038 29.10897922 29.41891669 27.63964844 30.59912109 C12.44246855 43.58325126 4.01532368 66.8729468 1 86 C0.67 86 0.34 86 0 86 C0 57.62 0 29.24 0 0 Z " fill="#000002" transform="translate(0,0)"/>
<path d="M0 0 C0.79047729 -0.00043808 1.58095459 -0.00087616 2.39538574 -0.00132751 C5.00904004 0.00076307 7.62205342 0.02410641 10.2355957 0.04760742 C12.04734446 0.05320243 13.85909775 0.05747298 15.67085266 0.06047058 C20.44016036 0.07192688 25.20919412 0.1014008 29.97839355 0.13458252 C34.84468886 0.16526649 39.71102842 0.17897234 44.57739258 0.1940918 C54.12634108 0.22626976 63.67508624 0.2774756 73.22387695 0.34057617 C74.21387695 2.32057617 74.21387695 2.32057617 75.22387695 4.34057617 C73.90387695 5.00057617 72.58387695 5.66057617 71.22387695 6.34057617 C71.22387695 7.00057617 71.22387695 7.66057617 71.22387695 8.34057617 C70.56387695 8.34057617 69.90387695 8.34057617 69.22387695 8.34057617 C69.45075195 9.37182617 69.67762695 10.40307617 69.91137695 11.46557617 C70.27461819 15.96976753 69.86871971 17.70391738 67.22387695 21.34057617 C62.20993129 23.87592983 57.42834041 25.06568222 51.91137695 25.96557617 C46.92466565 26.67462606 46.92466565 26.67462606 42.22387695 28.34057617 C30.66651504 29.35222854 19.37382531 28.47422179 8.22387695 25.34057617 C7.35118164 25.13561523 6.47848633 24.9306543 5.5793457 24.71948242 C0.3286812 23.31756371 -2.35002309 21.23223252 -5.5847168 16.86401367 C-6.71740413 15.19116196 -6.71740413 15.19116196 -8.77612305 14.34057617 C-10.69478217 10.60985009 -11.22957003 7.51228838 -10.77612305 3.34057617 C-8.25323107 -0.70767969 -4.27782484 -0.06179802 0 0 Z " fill="#7E0B4F" transform="translate(73.776123046875,114.659423828125)"/>
<path d="M0 0 C3 2 3 2 4 5 C4.06982543 7.37406475 4.08444549 9.75001002 4.0625 12.125 C4.05347656 13.38570312 4.04445313 14.64640625 4.03515625 15.9453125 C4.02355469 16.95335938 4.01195313 17.96140625 4 19 C4 19.33 4 19.66 4 20 C6.12570312 19.52396226 8.25054427 19.04407402 10.375 18.5625 C11.55835937 18.29566406 12.74171875 18.02882813 13.9609375 17.75390625 C16.89494581 17.14365305 16.89494581 17.14365305 19 16 C22.34775114 15.73188742 25.7052214 15.76833326 29.0625 15.75 C30.43825195 15.7190625 30.43825195 15.7190625 31.84179688 15.6875 C39.0723443 15.64650469 45.90381057 16.35691146 51.5625 21.1875 C52.036875 21.785625 52.51125 22.38375 53 23 C50.49865121 24.66756586 48.64977254 25.58467425 45.875 26.5625 C43.20335092 27.40454479 43.20335092 27.40454479 41 29 C39.33382885 29.04063832 37.66611905 29.042721 36 29 C36.5878125 30.0209375 36.5878125 30.0209375 37.1875 31.0625 C38.32511487 35.1754153 36.73760115 37.19064364 35 41 C34.44717592 44.86976858 34.82805928 46.63462597 36.5 50.1875 C41.91711226 56.2817513 48.95336211 56.40052162 56.65625 56.88671875 C57.4296875 56.92410156 58.203125 56.96148437 59 57 C57 59 57 59 54.21484375 59.1953125 C53.13332031 59.17210937 52.05179687 59.14890625 50.9375 59.125 C49.31134766 59.09792969 49.31134766 59.09792969 47.65234375 59.0703125 C46.33943359 59.03550781 46.33943359 59.03550781 45 59 C44.67 59 44.34 59 44 59 C46.22909871 59.02714735 48.45829367 59.04646254 50.6875 59.0625 C51.92886719 59.07410156 53.17023438 59.08570313 54.44921875 59.09765625 C57.46235454 59.01478673 60.08275339 58.70839449 63 58 C62.67 59.32 62.34 60.64 62 62 C57.79572416 63.02004717 53.7272659 63.14549538 49.42578125 63.1328125 C48.7019072 63.13376923 47.97803314 63.13472595 47.23222351 63.13571167 C45.70339877 63.13639013 44.17457111 63.1345592 42.64575195 63.13037109 C40.33733422 63.12505717 38.02911454 63.13030718 35.72070312 63.13671875 C15.2944133 63.14720665 15.2944133 63.14720665 11 61 C11 60.34 11 59.68 11 59 C12.64453125 57.8515625 12.64453125 57.8515625 14.8125 56.625 C17.98497722 54.7394183 19.93233541 53.10149689 22 50 C22.66 50 23.32 50 24 50 C24.33 49.01 24.66 48.02 25 47 C25.66 47 26.32 47 27 47 C27 44.36 27 41.72 27 39 C26.01 38.67 25.02 38.34 24 38 C23.566875 37.0925 23.13375 36.185 22.6875 35.25 C20.2480427 30.55178594 17.12209385 27.70736462 12 26 C8.56635722 26.00720597 5.14720388 26.07605859 1.71679688 26.21484375 C-0.41015625 26.2578125 -0.41015625 26.2578125 -4 26 C-4.66 25.01 -5.32 24.02 -6 23 C-4.68 21.35 -3.36 19.7 -2 18 C-2.7734375 18.4640625 -2.7734375 18.4640625 -3.5625 18.9375 C-6.66665423 20.29059287 -9.65115007 20.61359424 -13 21 C-13 20.34 -13 19.68 -13 19 C-12.34 19 -11.68 19 -11 19 C-11 18.34 -11 17.68 -11 17 C-11.99 16.67 -12.98 16.34 -14 16 C-10.50912907 11.9957657 -8.35048061 10.37328935 -3 10 C-2.87625 8.906875 -2.7525 7.81375 -2.625 6.6875 C-2 3 -2 3 0 0 Z " fill="#05A9D8" transform="translate(81,52)"/>
<path d="M0 0 C0.79047729 -0.00043808 1.58095459 -0.00087616 2.39538574 -0.00132751 C5.00904004 0.00076307 7.62205342 0.02410641 10.2355957 0.04760742 C12.04734446 0.05320243 13.85909775 0.05747298 15.67085266 0.06047058 C20.44016036 0.07192688 25.20919412 0.1014008 29.97839355 0.13458252 C34.84468886 0.16526649 39.71102842 0.17897234 44.57739258 0.1940918 C54.12634108 0.22626976 63.67508624 0.2774756 73.22387695 0.34057617 C74.21387695 2.32057617 74.21387695 2.32057617 75.22387695 4.34057617 C72.23078279 6.93791058 70.41514897 7.71813372 66.4621582 7.70385742 C65.52082031 7.70450195 64.57948242 7.70514648 63.60961914 7.70581055 C62.59544922 7.6884082 61.5812793 7.67100586 60.53637695 7.65307617 C58.94744629 7.64050781 58.94744629 7.64050781 57.32641602 7.62768555 C48.62738096 7.49964558 40.00869834 6.83454828 31.34716797 6.06152344 C24.54891504 5.47268147 17.79817285 5.12091761 10.97387695 5.09057617 C10.15822266 5.08155273 9.34256836 5.0725293 8.50219727 5.06323242 C4.3089139 5.08465405 0.99088131 5.44200597 -2.77612305 7.34057617 C-2.90557302 10.17596524 -2.90557302 10.17596524 -1.77612305 13.34057617 C8.01388414 22.99647367 25.79291972 22.57839351 38.6262207 22.59375 C46.76073095 22.49987871 55.97915575 22.19148613 62.22387695 16.34057617 C63.03702607 12.7359187 63.03702607 12.7359187 63.22387695 9.34057617 C64.87387695 9.34057617 66.52387695 9.34057617 68.22387695 9.34057617 C68.70507996 16.43832053 68.70507996 16.43832053 66.72387695 20.15307617 C61.02776193 25.13717682 54.01996072 25.86367294 46.76293945 26.91088867 C44.24030636 27.2108192 44.24030636 27.2108192 42.22387695 28.34057617 C30.66651504 29.35222854 19.37382531 28.47422179 8.22387695 25.34057617 C7.35118164 25.13561523 6.47848633 24.9306543 5.5793457 24.71948242 C0.3286812 23.31756371 -2.35002309 21.23223252 -5.5847168 16.86401367 C-6.71740413 15.19116196 -6.71740413 15.19116196 -8.77612305 14.34057617 C-10.69478217 10.60985009 -11.22957003 7.51228838 -10.77612305 3.34057617 C-8.25323107 -0.70767969 -4.27782484 -0.06179802 0 0 Z " fill="#D3358C" transform="translate(73.776123046875,114.659423828125)"/>
<path d="M0 0 C2.94541791 2.45451493 4.57507906 4.39631805 6.25 7.875 C6.57181487 13.4043646 5.24079068 17.2641977 2.25 21.875 C0.99670216 24.72789698 0.99670216 24.72789698 1.25 27.875 C2.57090825 29.81467258 4.05915348 31.43718699 5.67578125 33.13671875 C7.80672806 35.48974934 9.08774828 37.93518683 10.25 40.875 C9.755 41.865 9.755 41.865 9.25 42.875 C8.321875 42.235625 7.39375 41.59625 6.4375 40.9375 C0.03028929 36.79165778 -7.76383149 36.94564931 -15.16015625 38.32421875 C-16.71136462 38.77333657 -18.23646528 39.31182429 -19.75 39.875 C-20.08 37.235 -20.41 34.595 -20.75 31.875 C-19.96625 31.6275 -19.1825 31.38 -18.375 31.125 C-13.76598671 29.53568507 -9.26452284 27.71292827 -4.75 25.875 C-8.07302564 21.72121795 -11.67167452 20.68291542 -16.75 19.875 C-20.42249921 19.65522516 -24.07272244 19.68406261 -27.75 19.75 C-28.71550781 19.75902344 -29.68101563 19.76804687 -30.67578125 19.77734375 C-33.03412099 19.80069365 -35.39192286 19.83343953 -37.75 19.875 C-37.75 19.545 -37.75 19.215 -37.75 18.875 C-33.79 18.545 -29.83 18.215 -25.75 17.875 C-25.42 16.225 -25.09 14.575 -24.75 12.875 C-19.86375235 3.00106012 -11.39270215 -4.66065088 0 0 Z " fill="#084256" transform="translate(137.75,49.125)"/>
<path d="M0 0 C0.33 0.66 0.66 1.32 1 2 C1.598125 2.28875 2.19625 2.5775 2.8125 2.875 C5.41864396 4.21530261 7.07663215 5.80186531 9 8 C9 8.66 9 9.32 9 10 C10.4540625 10.1546875 10.4540625 10.1546875 11.9375 10.3125 C15.68434053 10.83478686 19.05766059 11.96181365 22.59375 13.28125 C28.33900627 14.99736551 34.16927671 15.14107049 40.12109375 15.09765625 C41.23823509 15.09553383 41.23823509 15.09553383 42.37794495 15.09336853 C44.73117273 15.08781989 47.0843015 15.07527733 49.4375 15.0625 C51.04361841 15.05747835 52.64973832 15.05291661 54.25585938 15.04882812 C58.17061043 15.03786735 62.08528849 15.02063884 66 15 C61.36615444 22.93994168 56.77053964 26.0517279 48.17333984 28.52563477 C44.06978843 29.42129871 39.87097485 29.1846208 35.6875 29.1875 C34.76259766 29.19974609 33.83769531 29.21199219 32.88476562 29.22460938 C22.19881439 29.24739392 15.68890691 26.41738853 8 19 C3.64936045 13.78736458 0.35114115 8.36191135 -2 2 C-1.34 1.34 -0.68 0.68 0 0 Z " fill="#05A9D8" transform="translate(64,127)"/>
<path d="M0 0 C6.93 0 13.86 0 21 0 C22.05766096 4.23064382 22.19155306 8.11469013 22.1875 12.4375 C22.18737915 13.6294397 22.18737915 13.6294397 22.18725586 14.84545898 C22.01396732 32.98603268 22.01396732 32.98603268 19 36 C17.43827255 36.08685603 15.87270656 36.10702219 14.30859375 36.09765625 C13.36435547 36.09443359 12.42011719 36.09121094 11.44726562 36.08789062 C10.45404297 36.07951172 9.46082031 36.07113281 8.4375 36.0625 C7.44041016 36.05798828 6.44332031 36.05347656 5.41601562 36.04882812 C2.94395151 36.03700007 0.47200482 36.02051849 -2 36 C-1.855625 35.24460938 -1.71125 34.48921875 -1.5625 33.7109375 C0.34412493 22.4035924 0.14148162 11.46001152 0 0 Z " fill="#F9FCFC" transform="translate(178,86)"/>
<path d="M0 0 C0.804375 0.495 1.60875 0.99 2.4375 1.5 C1.4475 1.995 1.4475 1.995 0.4375 2.5 C-0.2225 2.17 -0.8825 1.84 -1.5625 1.5 C-3.70496318 1.26497095 -3.70496318 1.26497095 -6.0625 1.25 C-6.8565625 1.22421875 -7.650625 1.1984375 -8.46875 1.171875 C-9.1596875 1.28015625 -9.850625 1.3884375 -10.5625 1.5 C-12.74740007 4.17642489 -12.74740007 4.17642489 -12.5625 6.5 C-9.5925 6.83 -6.6225 7.16 -3.5625 7.5 C-3.5625 6.51 -3.5625 5.52 -3.5625 4.5 C-2.9025 4.5 -2.2425 4.5 -1.5625 4.5 C-1.2325 7.14 -0.9025 9.78 -0.5625 12.5 C0.0975 12.5 0.7575 12.5 1.4375 12.5 C1.1075 14.15 0.7775 15.8 0.4375 17.5 C-0.26117188 17.70496094 -0.95984375 17.90992187 -1.6796875 18.12109375 C-2.58976562 18.39050781 -3.49984375 18.65992187 -4.4375 18.9375 C-5.34242187 19.20433594 -6.24734375 19.47117187 -7.1796875 19.74609375 C-9.54525381 20.42613826 -9.54525381 20.42613826 -11.5625 21.5 C-11.8925 22.49 -12.2225 23.48 -12.5625 24.5 C-13.2225 24.768125 -13.8825 25.03625 -14.5625 25.3125 C-15.2225 25.704375 -15.8825 26.09625 -16.5625 26.5 C-17.37834568 29.55908413 -17.37834568 29.55908413 -17.5625 32.5 C-14.2625 32.5 -10.9625 32.5 -7.5625 32.5 C-9.5625 34.5 -9.5625 34.5 -11.546875 34.74609375 C-13.88000534 35.3500621 -13.88000534 35.3500621 -14.828125 38.22265625 C-15.15296875 39.32480469 -15.4778125 40.42695312 -15.8125 41.5625 C-16.14765625 42.66722656 -16.4828125 43.77195313 -16.828125 44.91015625 C-17.07046875 45.76480469 -17.3128125 46.61945313 -17.5625 47.5 C-18.2225 47.5 -18.8825 47.5 -19.5625 47.5 C-20.04358275 48.91601714 -20.52228141 50.33284437 -21 51.75 C-21.26683594 52.53890625 -21.53367187 53.3278125 -21.80859375 54.140625 C-22.48204708 56.24821988 -23.05400595 58.34753973 -23.5625 60.5 C-22.9025 60.5 -22.2425 60.5 -21.5625 60.5 C-21.2325 59.84 -20.9025 59.18 -20.5625 58.5 C-20.5625 61.47 -20.5625 64.44 -20.5625 67.5 C-22.0475 67.995 -22.0475 67.995 -23.5625 68.5 C-23.8925 71.47 -24.2225 74.44 -24.5625 77.5 C-24.8925 77.5 -25.2225 77.5 -25.5625 77.5 C-26.0260348 65.88587813 -25.35051514 55.52822136 -22.4375 44.2578125 C-21.08408778 38.69552292 -21.08408778 38.69552292 -22.62109375 33.40234375 C-23.07613281 32.75394531 -23.53117187 32.10554688 -24 31.4375 C-27.91484077 25.80503679 -28.26338169 20.24471655 -27.5625 13.5 C-25.71349353 6.8106008 -21.40729152 2.96846971 -15.5625 -0.5 C-10.16995798 -2.29751401 -5.23742109 -2.20522993 0 0 Z " fill="#096D88" transform="translate(76.5625,43.5)"/>
<path d="M0 0 C2.8238724 1.70981304 4.97163958 3.18014908 6.375 6.25 C7.00807554 10.60239435 6.93866865 12.48136093 4.3125 16.0625 C-1.00161619 20.01982057 -7.0838057 21.19782959 -13.625 20.25 C-18.49474922 18.89117103 -22.48054902 17.28545565 -26.25 13.875 C-27.96389387 10.60302079 -28.30782768 8.89174762 -27.625 5.25 C-21.07489044 -2.98442344 -9.41139175 -4.43505289 0 0 Z " fill="#F2F3F3" transform="translate(142.625,87.75)"/>
<path d="M0 0 C2.84418205 3.10274405 3.20919674 5.06914301 3.0625 9.25 C-0.04108454 13.48216074 -2.98087586 14.88286309 -7.9375 16.25 C-17.4552761 17.26554435 -23.86376195 16.05530354 -31.4375 10.375 C-32.9375 8.25 -32.9375 8.25 -33.625 5.375 C-32.73561907 1.33235942 -30.99127275 -0.00109527 -27.859375 -2.55078125 C-19.29000456 -7.89792907 -8.01303538 -4.7737232 0 0 Z " fill="#F1F3F3" transform="translate(103.9375,89.75)"/>
<path d="M0 0 C0.33 0 0.66 0 1 0 C0.98952637 0.57854736 0.97905273 1.15709473 0.96826172 1.75317383 C0.66099137 21.29984643 2.23100361 35.74757642 14 52 C14.61875 52.886875 15.2375 53.77375 15.875 54.6875 C21.38266076 60.68113083 26.05692392 63.68780766 34.28662109 64.12011719 C36.94205674 64.20684611 39.59323262 64.23488326 42.25 64.25 C43.14074219 64.270625 44.03148437 64.29125 44.94921875 64.3125 C51.45024748 64.35024182 56.88505881 63.14931804 63 61 C63.99 60.690625 64.98 60.38125 66 60.0625 C68.50005997 58.73434314 68.97778557 57.59485202 70 55 C70.66 54.01 71.32 53.02 72 52 C66.555 51.505 66.555 51.505 61 51 C61 50.67 61 50.34 61 50 C62.10859375 49.79503906 63.2171875 49.59007812 64.359375 49.37890625 C65.82292867 49.10683538 67.28646967 48.83469638 68.75 48.5625 C69.47960937 48.42779297 70.20921875 48.29308594 70.9609375 48.15429688 C74.33546675 47.52540733 77.67634694 46.85677827 81 46 C79.6859849 47.68193932 78.34592097 49.34348188 77 51 C76.49082031 51.639375 75.98164063 52.27875 75.45703125 52.9375 C68.39146987 61.47437965 60.71736419 65.6846748 49.546875 66.83203125 C35.12996088 67.78284 22.2866112 67.19899718 10.28125 58.0390625 C2.12407386 50.74788793 -4.43184527 41.01193101 -6 30 C-5.94921875 27.61328125 -5.94921875 27.61328125 -5.6875 25.3125 C-5.60886719 24.54550781 -5.53023437 23.77851562 -5.44921875 22.98828125 C-5 21 -5 21 -3 19 C-2.34 19.33 -1.68 19.66 -1 20 C-1.33 17.69 -1.66 15.38 -2 13 C-2.66 13 -3.32 13 -4 13 C-3.56407724 7.85611138 -3.18386087 4.24514783 0 0 Z " fill="#06708D" transform="translate(57,91)"/>
<path d="M0 0 C2.31 0.33 4.62 0.66 7 1 C6.9175 2.19625 6.835 3.3925 6.75 4.625 C6.78212221 9.1622628 7.84638133 11.60985993 11 15 C17.41787961 18.3235448 23.85612864 18.65471288 31 19 C29 21 29 21 26.21484375 21.1953125 C25.13332031 21.17210938 24.05179688 21.14890625 22.9375 21.125 C21.31134766 21.09792969 21.31134766 21.09792969 19.65234375 21.0703125 C18.77707031 21.04710938 17.90179688 21.02390625 17 21 C16.67 21 16.34 21 16 21 C18.22909871 21.02714735 20.45829367 21.04646254 22.6875 21.0625 C23.92886719 21.07410156 25.17023438 21.08570312 26.44921875 21.09765625 C29.46235454 21.01478673 32.08275339 20.70839449 35 20 C34.67 21.32 34.34 22.64 34 24 C29.79572416 25.02004717 25.7272659 25.14549538 21.42578125 25.1328125 C20.7019072 25.13376923 19.97803314 25.13472595 19.23222351 25.13571167 C17.70339877 25.13639013 16.17457111 25.1345592 14.64575195 25.13037109 C12.33733422 25.12505717 10.02911454 25.13030718 7.72070312 25.13671875 C-12.7055867 25.14720665 -12.7055867 25.14720665 -17 23 C-17 22.34 -17 21.68 -17 21 C-15.35546875 19.8515625 -15.35546875 19.8515625 -13.1875 18.625 C-10.01502278 16.7394183 -8.06766459 15.10149689 -6 12 C-5.34 12 -4.68 12 -4 12 C-3.67 11.01 -3.34 10.02 -3 9 C-2.34 9 -1.68 9 -1 9 C-0.67 6.03 -0.34 3.06 0 0 Z " fill="#02ACDB" transform="translate(109,90)"/>
<path d="M0 0 C0.99 1.98 0.99 1.98 2 4 C-0.99309417 6.59733441 -2.80872798 7.37755755 -6.76171875 7.36328125 C-7.7043457 7.36400635 -8.64697266 7.36473145 -9.61816406 7.36547852 C-11.13748535 7.33925415 -11.13748535 7.33925415 -12.6875 7.3125 C-13.73518555 7.303396 -14.78287109 7.29429199 -15.86230469 7.28491211 C-43.60551534 6.85875861 -43.60551534 6.85875861 -55 4 C-58.38583286 3.77780472 -61.76584341 3.60833371 -65.15625 3.48242188 C-68.97255564 3.29374258 -71.67192753 2.84028786 -75 1 C-66.25480508 0.86900399 -57.50960198 0.7385714 -48.76438808 0.60884857 C-44.70319142 0.54858898 -40.64199777 0.48813883 -36.58081055 0.42724609 C-32.65805276 0.36843608 -28.73528769 0.31013588 -24.81251717 0.25218201 C-23.31948644 0.23003617 -21.82645837 0.20770984 -20.33343315 0.18519592 C-18.23458405 0.15357806 -16.13572621 0.12261498 -14.03686523 0.09179688 C-12.84439682 0.07403198 -11.65192841 0.05626709 -10.42332458 0.03796387 C-6.94858314 -0.0005702 -3.47492484 -0.00651485 0 0 Z " fill="#DF318F" transform="translate(147,115)"/>
<path d="M0 0 C0.4640625 1.2065625 0.4640625 1.2065625 0.9375 2.4375 C1.76335345 4.89080405 1.76335345 4.89080405 3 6 C3.75551963 13.05151652 1.80673985 17.12674423 -2 23 C-7.875 20.25 -7.875 20.25 -9 18 C-11.34907875 17.31068656 -11.34907875 17.31068656 -14.0625 16.875 C-14.98160156 16.70742187 -15.90070313 16.53984375 -16.84765625 16.3671875 C-17.55792969 16.24601562 -18.26820312 16.12484375 -19 16 C-17.65500676 10.02225226 -14.35920455 6.12280517 -10 2 C-6.570703 0.04040171 -3.91848029 -0.22391316 0 0 Z " fill="#05A9D8" transform="translate(139,51)"/>
<path d="M0 0 C0.495 0.99 0.495 0.99 1 2 C0.34 2.99 -0.32 3.98 -1 5 C-1.39013716 6.9896995 -1.73202649 8.99019869 -2 11 C-0.68 11.33 0.64 11.66 2 12 C2.625 14.375 2.625 14.375 3 17 C2.34 17.66 1.68 18.32 1 19 C-0.485 18.505 -0.485 18.505 -2 18 C-1.01 17.34 -0.02 16.68 1 16 C0.505 14.515 0.505 14.515 0 13 C-0.56422668 13.00222061 -1.12845337 13.00444122 -1.70977783 13.00672913 C-54.6668629 13.20544924 -54.6668629 13.20544924 -78 12 C-74.77208445 9.8480563 -73.71599191 9.79913557 -70 10 C-70 9.34 -70 8.68 -70 8 C-70.94875 7.731875 -71.8975 7.46375 -72.875 7.1875 C-76 6 -76 6 -78 3 C-77.236875 3.309375 -76.47375 3.61875 -75.6875 3.9375 C-70.9461691 5.81197966 -66.98230566 6.15176289 -61.9375 6.125 C-61.20466797 6.12886719 -60.47183594 6.13273437 -59.71679688 6.13671875 C-55.72879812 6.21095757 -55.72879812 6.21095757 -52 5 C-56.95 4.67 -61.9 4.34 -67 4 C-67 3.34 -67 2.68 -67 2 C-65.91460937 2.01160156 -64.82921875 2.02320312 -63.7109375 2.03515625 C-62.26562673 2.04454138 -60.82031409 2.05364081 -59.375 2.0625 C-58.30572266 2.07506836 -58.30572266 2.07506836 -57.21484375 2.08789062 C-53.02655562 2.10710296 -49.1271538 1.8267327 -45 1 C-47.88341534 5.21422242 -50.04303419 6.76075855 -55 8 C-55 8.66 -55 9.32 -55 10 C-45.93329046 10.96597148 -36.9485595 11.15594017 -27.84301758 11.13037109 C-25.54176421 11.12495116 -23.24070106 11.13038124 -20.93945312 11.13671875 C-19.46093707 11.13605885 -17.98242114 11.13477951 -16.50390625 11.1328125 C-15.82364883 11.13483673 -15.14339142 11.13686096 -14.44252014 11.13894653 C-10.8366446 11.12123086 -7.50738797 10.84912602 -4 10 C-3.67 9.01 -3.34 8.02 -3 7 C-3.68191406 7.32484375 -4.36382812 7.6496875 -5.06640625 7.984375 C-8.50884224 9.17616376 -11.29965431 9.26579955 -14.9375 9.25 C-16.12214844 9.25515625 -17.30679688 9.2603125 -18.52734375 9.265625 C-22.00082283 8.99993706 -24.76085468 8.24620553 -28 7 C-24.68605847 5.89535282 -24.19942339 6.17745321 -21 7 C-18.91765408 7.06743348 -16.83331443 7.08514472 -14.75 7.0625 C-13.67234375 7.05347656 -12.5946875 7.04445313 -11.484375 7.03515625 C-10.25460938 7.01775391 -10.25460938 7.01775391 -9 7 C-10.42892578 6.83564453 -10.42892578 6.83564453 -11.88671875 6.66796875 C-13.14097656 6.50941406 -14.39523438 6.35085937 -15.6875 6.1875 C-16.92886719 6.03667969 -18.17023438 5.88585937 -19.44921875 5.73046875 C-22.93517782 5.01333526 -25.10608786 4.01965188 -28 2 C-27.34 1.67 -26.68 1.34 -26 1 C-24.205625 1.7115625 -24.205625 1.7115625 -22.375 2.4375 C-14.83121685 5.39237535 -9.28125187 4.13847063 -2 1 C-1.34 0.67 -0.68 0.34 0 0 Z " fill="#222849" transform="translate(147,103)"/>
<path d="M0 0 C12.51879169 -0.23302818 24.60320889 0.20150181 37 2 C37.578125 4.390625 37.578125 4.390625 38 7 C36.18682851 9.53844009 35.01532925 9.99489025 32 11 C21.10479807 11.87864532 9.91323813 8.3604175 1 2 C0.67 1.34 0.34 0.68 0 0 Z " fill="#D8378D" transform="translate(85,121)"/>
<path d="M0 0 C3.5 1.5625 3.5 1.5625 6 4 C6.69748144 7.90589606 6.62619923 9.96540997 4.5625 13.375 C0.82732811 15.74364559 -2.6015711 16.31199928 -7 16 C-11.00109801 14.21379553 -12.552424 13.16867066 -14.125 9.0625 C-13.96450305 5.13032478 -12.74192638 3.74192638 -10 1 C-6.77711063 -0.61144469 -3.49428141 -0.4529624 0 0 Z " fill="#181818" transform="translate(92,88)"/>
<path d="M0 0 C0.74056641 0.00902344 1.48113281 0.01804687 2.24414062 0.02734375 C4.05873467 0.05075787 5.87316071 0.08662385 7.6875 0.125 C7.6875 0.455 7.6875 0.785 7.6875 1.125 C5.0475 1.455 2.4075 1.785 -0.3125 2.125 C4.6375 4.765 9.5875 7.405 14.6875 10.125 C14.6875 10.785 14.6875 11.445 14.6875 12.125 C9.84359612 11.79473383 6.19132737 10.5551868 1.75 8.5625 C-3.31024425 6.34744969 -6.83893718 5.59869588 -12.3125 6.125 C-8.212313 11.01877158 -4.39481164 12.50168232 1.6875 14.125 C2.36578857 14.31022217 3.04407715 14.49544434 3.74291992 14.6862793 C12.02806031 16.64015515 20.36198971 16.34627624 28.8125 16.25 C30.35676501 16.23994704 31.90103638 16.23082529 33.4453125 16.22265625 C37.19284249 16.20083336 40.94012946 16.16643206 44.6875 16.125 C31.6974961 22.82754261 12.34531988 19.72517846 -1.3125 16.125 C-6.77364038 14.1073373 -11.16923703 12.19573555 -14.3125 7.125 C-14.3125 4.5 -14.3125 4.5 -13.3125 2.125 C-9.03279974 -0.26443112 -4.76566534 -0.11073038 0 0 Z " fill="#570833" transform="translate(84.3125,118.875)"/>
<path d="M0 0 C0 0.66 0 1.32 0 2 C0.598125 2.20625 1.19625 2.4125 1.8125 2.625 C4.80115041 4.50358026 5.5278368 6.85492408 7 10 C7.66 10.33 8.32 10.66 9 11 C9 13.64 9 16.28 9 19 C8.67 19 8.34 19 8 19 C7.773125 17.9275 7.54625 16.855 7.3125 15.75 C5.82258164 11.49309039 4.81813991 10.29088394 1 8 C-8.07121558 4.37151377 -17.15477927 5.3308714 -26 9 C-26 7.35 -26 5.7 -26 4 C-25.01 4 -24.02 4 -23 4 C-24.32 3.67 -25.64 3.34 -27 3 C-27 2.34 -27 1.68 -27 1 C-19.60504389 -2.36134369 -7.05781938 -4.70521292 0 0 Z " fill="#137692" transform="translate(99,80)"/>
<path d="M0 0 C2.31279611 1.15639806 4.17409828 2.17409828 6 4 C6.4375 6.25 6.4375 6.25 6 9 C3.29113829 12.20786256 1.65483476 13.69817479 -2.484375 14.453125 C-6.53922859 14.62107752 -9.17641664 14.49798064 -12.6875 12.375 C-14 10 -14 10 -14.125 7 C-11.69785122 0.52760325 -6.43231714 -0.81865855 0 0 Z " fill="#181818" transform="translate(135,89)"/>
<path d="M0 0 C13.4058325 -0.58569171 13.4058325 -0.58569171 18 3 C22.27386331 8.49997163 24.14579726 13.15791686 24.125 20.125 C24.12886719 21.42824219 24.12886719 21.42824219 24.1328125 22.7578125 C24 25 24 25 23 27 C24.03125 26.67 25.0625 26.34 26.125 26 C29.48426709 25.0284808 32.49106202 24.82883229 36 25 C36 25.33 36 25.66 36 26 C33.73139163 26.5304408 31.46001511 27.04905434 29.1875 27.5625 C27.92292969 27.85253906 26.65835938 28.14257812 25.35546875 28.44140625 C22 29 22 29 19 28 C19.66 27.67 20.32 27.34 21 27 C21.054138 24.75026553 21.09285491 22.50015617 21.125 20.25 C21.14820312 18.99703125 21.17140625 17.7440625 21.1953125 16.453125 C21.01537302 13.27179508 20.68998582 11.63478104 19 9 C16.23776722 11.76223278 16.42143709 14.20706617 16 18 C12.67228967 19.42616157 9.56291346 20.37649014 6 21 C5.071875 21.185625 4.14375 21.37125 3.1875 21.5625 C2.465625 21.706875 1.74375 21.85125 1 22 C4.02139544 18.38833194 7.3849924 17.96345827 11.8203125 16.94140625 C12.53960937 16.63074219 13.25890625 16.32007812 14 16 C14.88059914 13.97725705 14.88059914 13.97725705 15 12 C14.34 12 13.68 12 13 12 C11.64560332 9.29120665 11.93498549 6.99066732 12 4 C11.34 4 10.68 4 10 4 C10 4.99 10 5.98 10 7 C7.03 6.67 4.06 6.34 1 6 C1 5.34 1 4.68 1 4 C0.34 3.67 -0.32 3.34 -1 3 C-0.34 2.67 0.32 2.34 1 2 C0.67 1.34 0.34 0.68 0 0 Z " fill="#0B6E8E" transform="translate(63,44)"/>
<path d="M0 0 C2.57816377 1.10769138 4.64890752 2.43260501 7 4 C6.67 5.65 6.34 7.3 6 9 C5.33613281 9.18175781 4.67226562 9.36351562 3.98828125 9.55078125 C-0.7928384 10.91182991 -4.78106582 12.3152237 -9 15 C-9.99 15 -10.98 15 -12 15 C-13.53214888 11.93570224 -13.22938548 9.3834358 -13 6 C-10.06679908 -0.13305646 -6.57922826 -0.90951629 0 0 Z " fill="#DB338E" transform="translate(71,52)"/>
<path d="M0 0 C1.65 0 3.3 0 5 0 C5.48120301 7.09774436 5.48120301 7.09774436 3.5 10.8125 C-2.19611502 15.79660065 -9.20391623 16.52309677 -16.4609375 17.5703125 C-18.98357059 17.87024302 -18.98357059 17.87024302 -21 19 C-32.26563599 19.98611668 -44.21773104 19.59408965 -55 16 C-55.66 15.34 -56.32 14.68 -57 14 C-56.43982178 14.14219971 -55.87964355 14.28439941 -55.30249023 14.4309082 C-47.85207158 16.13884131 -40.68142239 16.26587549 -33.0625 16.1875 C-31.84498047 16.18685547 -30.62746094 16.18621094 -29.37304688 16.18554688 C-23.08528388 16.27277927 -23.08528388 16.27277927 -17 15 C-17 14.34 -17 13.68 -17 13 C-16.18015625 12.81824219 -15.3603125 12.63648438 -14.515625 12.44921875 C-13.43796875 12.19785156 -12.3603125 11.94648438 -11.25 11.6875 C-9.64898437 11.32205078 -9.64898437 11.32205078 -8.015625 10.94921875 C-5.0209952 10.00660859 -3.23165086 9.18954424 -1 7 C-0.18685089 3.39534252 -0.18685089 3.39534252 0 0 Z " fill="#6D2E66" transform="translate(137,124)"/>
<path d="M0 0 C0.99 0.495 0.99 0.495 2 1 C1.484375 1.495 0.96875 1.99 0.4375 2.5 C-1.91193875 4.8404401 -1.91193875 4.8404401 -3.54296875 6.87109375 C-10.63185308 15.45237478 -18.21429948 19.67765576 -29.453125 20.83203125 C-45.29811829 21.87702314 -58.27084865 20.59124369 -71 10 C-72.7734375 8.41015625 -72.7734375 8.41015625 -74 7 C-74 6.34 -74 5.68 -74 5 C-73.34 5 -72.68 5 -72 5 C-71.29875 5.7425 -70.5975 6.485 -69.875 7.25 C-61.07316468 15.66914683 -48.4832922 18.35483953 -36.6875 18.3125 C-35.3581543 18.33666992 -35.3581543 18.33666992 -34.00195312 18.36132812 C-27.53435252 18.36604556 -22.08495952 17.13019462 -16 15 C-15.01 14.690625 -14.02 14.38125 -13 14.0625 C-10.49994003 12.73434314 -10.02221443 11.59485202 -9 9 C-8.34 8.01 -7.68 7.02 -7 6 C-12.445 5.505 -12.445 5.505 -18 5 C-18 4.67 -18 4.34 -18 4 C-16.86820313 3.79503906 -15.73640625 3.59007812 -14.5703125 3.37890625 C-13.08851239 3.10693028 -11.60674315 2.83478613 -10.125 2.5625 C-9.37863281 2.42779297 -8.63226563 2.29308594 -7.86328125 2.15429688 C-3.81466622 1.45463389 -3.81466622 1.45463389 0 0 Z " fill="#105166" transform="translate(136,137)"/>
<path d="M0 0 C0.804375 0.495 1.60875 0.99 2.4375 1.5 C1.4475 1.995 1.4475 1.995 0.4375 2.5 C-0.2225 2.17 -0.8825 1.84 -1.5625 1.5 C-3.70496318 1.26497095 -3.70496318 1.26497095 -6.0625 1.25 C-6.8565625 1.22421875 -7.650625 1.1984375 -8.46875 1.171875 C-9.1596875 1.28015625 -9.850625 1.3884375 -10.5625 1.5 C-12.74740007 4.17642489 -12.74740007 4.17642489 -12.5625 6.5 C-9.5925 6.83 -6.6225 7.16 -3.5625 7.5 C-3.5625 6.51 -3.5625 5.52 -3.5625 4.5 C-2.9025 4.5 -2.2425 4.5 -1.5625 4.5 C-1.2325 7.14 -0.9025 9.78 -0.5625 12.5 C-1.2225 12.005 -1.8825 11.51 -2.5625 11 C-6.63650419 8.9629979 -9.02973344 9.06134517 -13.5625 9.5 C-15.73726401 11.04338091 -16.38082637 12.13665273 -17.5625 14.5 C-17.63200541 16.04023996 -17.64702357 17.58334988 -17.625 19.125 C-17.61146484 20.35089844 -17.61146484 20.35089844 -17.59765625 21.6015625 C-17.58605469 22.22804688 -17.57445312 22.85453125 -17.5625 23.5 C-15.9125 23.17 -14.2625 22.84 -12.5625 22.5 C-12.5625 23.16 -12.5625 23.82 -12.5625 24.5 C-14.2125 25.16 -15.8625 25.82 -17.5625 26.5 C-17.5625 25.84 -17.5625 25.18 -17.5625 24.5 C-18.2225 24.5 -18.8825 24.5 -19.5625 24.5 C-19.5625 20.21 -19.5625 15.92 -19.5625 11.5 C-18.9025 11.5 -18.2425 11.5 -17.5625 11.5 C-17.5625 10.18 -17.5625 8.86 -17.5625 7.5 C-18.5525 7.5 -19.5425 7.5 -20.5625 7.5 C-20.8925 8.16 -21.2225 8.82 -21.5625 9.5 C-22.2225 9.5 -22.8825 9.5 -23.5625 9.5 C-23.5625 10.16 -23.5625 10.82 -23.5625 11.5 C-24.2225 11.5 -24.8825 11.5 -25.5625 11.5 C-25.8925 15.13 -26.2225 18.76 -26.5625 22.5 C-26.8925 22.5 -27.2225 22.5 -27.5625 22.5 C-28.10628413 15.97459049 -27.60597646 10.83156452 -23.5625 5.5 C-16.59130539 -0.95221231 -9.11976989 -3.83990311 0 0 Z " fill="#155676" transform="translate(76.5625,43.5)"/>
<path d="M0 0 C13.1401909 1.00011686 26.26799309 1.67119713 39.4375 2.125 C38.7775 2.455 38.1175 2.785 37.4375 3.125 C37.664375 4.15625 37.89125 5.1875 38.125 6.25 C38.47651465 10.6087817 37.67694649 12.45230775 35.4375 16.125 C34.4475 16.125 33.4575 16.125 32.4375 16.125 C32.911875 15.63 33.38625 15.135 33.875 14.625 C36.05917907 11.13031349 36.09663911 8.21533064 36.4375 4.125 C34.7875 4.125 33.1375 4.125 31.4375 4.125 C31.5921875 5.73375 31.5921875 5.73375 31.75 7.375 C31.4375 11.125 31.4375 11.125 29.125 13.625 C28.238125 14.12 27.35125 14.615 26.4375 15.125 C25.4475 14.795 24.4575 14.465 23.4375 14.125 C24.406875 13.50625 25.37625 12.8875 26.375 12.25 C29.46585362 10.46821154 29.46585362 10.46821154 30.4375 8.125 C26.1475 8.125 21.8575 8.125 17.4375 8.125 C16.9425 6.145 16.9425 6.145 16.4375 4.125 C3.71359324 2.25727057 -8.71211856 1.89889358 -21.5625 2.125 C-21.8925 1.465 -22.2225 0.805 -22.5625 0.125 C-14.88965957 -1.040287 -7.71503563 -0.63459 0 0 Z " fill="#67174A" transform="translate(105.5625,119.875)"/>
<path d="M0 0 C0.68383255 0.00424484 1.3676651 0.00848969 2.07221985 0.01286316 C4.25297686 0.02963522 6.43280434 0.06728218 8.61328125 0.10546875 C10.0930856 0.12051761 11.57290445 0.13420567 13.05273438 0.14648438 C16.67738461 0.17953306 20.30149219 0.23130429 23.92578125 0.29296875 C23.92578125 0.62296875 23.92578125 0.95296875 23.92578125 1.29296875 C13.53078125 1.78796875 13.53078125 1.78796875 2.92578125 2.29296875 C8.20578125 2.62296875 13.48578125 2.95296875 18.92578125 3.29296875 C18.92578125 3.62296875 18.92578125 3.95296875 18.92578125 4.29296875 C17.82878906 4.34195313 16.73179688 4.3909375 15.6015625 4.44140625 C14.147112 4.51647466 12.69268609 4.59202072 11.23828125 4.66796875 C10.15643555 4.714375 10.15643555 4.714375 9.05273438 4.76171875 C4.95367731 4.98632462 1.68209666 5.47037784 -2.07421875 7.29296875 C-2.70217163 13.18636321 -2.70217163 13.18636321 0.17578125 18.10546875 C3.50070844 20.76607562 3.50070844 20.76607562 6.92578125 23.29296875 C3.43609246 23.22317497 0.84247849 23.13517141 -1.8046875 20.703125 C-2.83784847 19.45567879 -3.8423605 18.18378197 -4.8125 16.88671875 C-6.00252024 15.15228254 -6.00252024 15.15228254 -8.07421875 14.29296875 C-9.99287788 10.56224267 -10.52766573 7.46468096 -10.07421875 3.29296875 C-7.54192717 -0.61191324 -4.33672904 -0.0531028 0 0 Z " fill="#CF378B" transform="translate(73.07421875,114.70703125)"/>
<path d="M0 0 C4.24049288 2.16997503 6.22773517 4.87983626 7.76953125 9.3125 C7.43953125 9.9725 7.10953125 10.6325 6.76953125 11.3125 C5.84140625 10.673125 4.91328125 10.03375 3.95703125 9.375 C-2.45017946 5.22915778 -10.24430024 5.38314931 -17.640625 6.76171875 C-19.19183337 7.21083657 -20.71693403 7.74932429 -22.23046875 8.3125 C-22.56046875 5.6725 -22.89046875 3.0325 -23.23046875 0.3125 C-22.67359375 0.51875 -22.11671875 0.725 -21.54296875 0.9375 C-19.18449403 1.52910638 -19.18449403 1.52910638 -16.953125 0.359375 C-11.68666145 -1.66560668 -5.3944579 -1.66274009 0 0 Z " fill="#10A2CC" transform="translate(140.23046875,80.6875)"/>
<path d="M0 0 C0.495 0.33 0.99 0.66 1.5 1 C1.5 1.33 1.5 1.66 1.5 2 C0.84773438 2.13535156 0.19546875 2.27070312 -0.4765625 2.41015625 C-7.16661348 4.05800067 -10.77629324 6.17479537 -14.5 12 C-16.33601109 15.24942494 -16.33601109 15.24942494 -17.5 18 C-19.81 18 -22.12 18 -24.5 18 C-23.19259396 13.44429647 -21.42090418 10.06931062 -18.625 6.25 C-17.94695312 5.30640625 -17.26890625 4.3628125 -16.5703125 3.390625 C-12.16022428 -1.70177876 -6.17376642 -2.46950657 0 0 Z " fill="#0B617B" transform="translate(137.5,49)"/>
<path d="M0 0 C0.66 0.33 1.32 0.66 2 1 C0.5404114 4.8480063 -1.33899114 6.21206544 -5 8 C-9.56072912 9.39355612 -14.27657768 9.09261612 -19 9 C-18.01 8.34 -17.02 7.68 -16 7 C-16.96421875 7.04640625 -17.9284375 7.0928125 -18.921875 7.140625 C-20.18515625 7.17671875 -21.4484375 7.2128125 -22.75 7.25 C-24.62945312 7.31960937 -24.62945312 7.31960937 -26.546875 7.390625 C-30 7 -30 7 -32.453125 4.984375 C-32.96359375 4.32953125 -33.4740625 3.6746875 -34 3 C-32.2984375 3.2475 -32.2984375 3.2475 -30.5625 3.5 C-20.76640534 4.73440397 -20.76640534 4.73440397 -11.8984375 0.89453125 C-8.19068085 -0.85253927 -3.99893369 -0.44595056 0 0 Z " fill="#780E4C" transform="translate(134,127)"/>
<path d="M0 0 C0.33 0 0.66 0 1 0 C0.98952637 0.57854736 0.97905273 1.15709473 0.96826172 1.75317383 C0.60748165 17.0000943 0.60748165 17.0000943 3 32 C3.18691406 32.75152344 3.37382813 33.50304687 3.56640625 34.27734375 C3.70949219 34.84582031 3.85257813 35.41429687 4 36 C2.02 36.495 2.02 36.495 0 37 C-0.495 35.515 -0.495 35.515 -1 34 C-1.99 34 -2.98 34 -4 34 C-4 33.01 -4 32.02 -4 31 C-4.66 30.67 -5.32 30.34 -6 30 C-5.88590407 28.54077307 -5.75834456 27.08259402 -5.625 25.625 C-5.55539063 24.81289062 -5.48578125 24.00078125 -5.4140625 23.1640625 C-5 21 -5 21 -3 19 C-2.34 19.33 -1.68 19.66 -1 20 C-1.33 17.69 -1.66 15.38 -2 13 C-2.66 13 -3.32 13 -4 13 C-3.56407724 7.85611138 -3.18386087 4.24514783 0 0 Z " fill="#037A9B" transform="translate(57,91)"/>
<path d="M0 0 C1.32 0 2.64 0 4 0 C3.40075776 4.19469571 2.42500059 8.00999834 1 12 C0.34 12 -0.32 12 -1 12 C-1.48108275 13.41601714 -1.95978141 14.83284437 -2.4375 16.25 C-2.70433594 17.03890625 -2.97117187 17.8278125 -3.24609375 18.640625 C-3.91954708 20.74821988 -4.49150595 22.84753973 -5 25 C-4.34 25 -3.68 25 -3 25 C-2.67 24.34 -2.34 23.68 -2 23 C-2 25.97 -2 28.94 -2 32 C-3.485 32.495 -3.485 32.495 -5 33 C-5.33 35.97 -5.66 38.94 -6 42 C-6.33 42 -6.66 42 -7 42 C-7.39451668 32.11516538 -7.34674469 22.69664507 -5.1875 13 C-5.02217773 12.24154785 -4.85685547 11.4830957 -4.68652344 10.70166016 C-3.78064461 6.96469674 -2.99654543 4.47279394 0 2 C0 1.34 0 0.68 0 0 Z " fill="#0C6A86" transform="translate(58,79)"/>
<path d="M0 0 C1.25425781 0.01804687 2.50851563 0.03609375 3.80078125 0.0546875 C5.22970703 0.08949219 5.22970703 0.08949219 6.6875 0.125 C7.3125 2.5 7.3125 2.5 7.6875 5.125 C5.6875 7.125 5.6875 7.125 1.84375 7.35546875 C0.29160572 7.35147524 -1.2605394 7.33670957 -2.8125 7.3125 C-3.59753906 7.31185547 -4.38257812 7.31121094 -5.19140625 7.31054688 C-11.03156304 7.26546848 -11.03156304 7.26546848 -13.3125 6.125 C-13.125 4.25 -13.125 4.25 -12.3125 2.125 C-8.20679339 -0.08105132 -4.59726042 -0.0859301 0 0 Z " fill="#DE3590" transform="translate(115.3125,122.875)"/>
<path d="M0 0 C1.508013 0.92455559 3.00624917 1.8650747 4.5 2.8125 C5.3353125 3.33457031 6.170625 3.85664062 7.03125 4.39453125 C7.6809375 4.92433594 8.330625 5.45414062 9 6 C9 6.99 9 7.98 9 9 C14.61 9 20.22 9 26 9 C21.62364981 12.28226264 19.29343112 12.46035024 14.125 12.375 C13.08279297 12.39240234 13.08279297 12.39240234 12.01953125 12.41015625 C7.233364 12.38311576 4.14611205 11.28459235 0 9 C-0.99 9 -1.98 9 -3 9 C-3 8.34 -3 7.68 -3 7 C-1.68 7 -0.36 7 1 7 C0.67 4.69 0.34 2.38 0 0 Z " fill="#1197BE" transform="translate(71,98)"/>
<path d="M0 0 C-6.28571429 5.57142857 -6.28571429 5.57142857 -10 6 C-10 6.66 -10 7.32 -10 8 C-9.34 8.33 -8.68 8.66 -8 9 C-13.61 8.67 -19.22 8.34 -25 8 C-25 7.34 -25 6.68 -25 6 C-25.94875 5.731875 -26.8975 5.46375 -27.875 5.1875 C-31 4 -31 4 -33 1 C-32.236875 1.309375 -31.47375 1.61875 -30.6875 1.9375 C-25.9461691 3.81197966 -21.98230566 4.15176289 -16.9375 4.125 C-16.20466797 4.12886719 -15.47183594 4.13273437 -14.71679688 4.13671875 C-10.72879812 4.21095757 -10.72879812 4.21095757 -7 3 C-11.95 2.67 -16.9 2.34 -22 2 C-22 1.34 -22 0.68 -22 0 C-20.89140625 0.01160156 -19.7828125 0.02320312 -18.640625 0.03515625 C-17.17708502 0.04453792 -15.71354322 0.05363771 -14.25 0.0625 C-13.52039063 0.07087891 -12.79078125 0.07925781 -12.0390625 0.08789062 C-7.9197147 0.13143747 -7.9197147 0.13143747 -3.88183594 -0.56860352 C-2 -1 -2 -1 0 0 Z " fill="#107293" transform="translate(102,105)"/>
<path d="M0 0 C1.21236328 0.01353516 1.21236328 0.01353516 2.44921875 0.02734375 C3.37154297 0.04474609 3.37154297 0.04474609 4.3125 0.0625 C3.9825 1.0525 3.6525 2.0425 3.3125 3.0625 C1.38671875 3.80078125 1.38671875 3.80078125 -1 4.375 C-5.74621038 5.78156314 -7.23303203 7.71997975 -9.6875 12.0625 C-10.6775 12.3925 -11.6675 12.7225 -12.6875 13.0625 C-13.3475 12.7325 -14.0075 12.4025 -14.6875 12.0625 C-14.5625 8.8125 -14.5625 8.8125 -13.6875 5.0625 C-9.28885539 1.42883706 -5.64836806 -0.08186041 0 0 Z " fill="#F6F8F7" transform="translate(129.6875,85.9375)"/>
<path d="M0 0 C2.00906655 -0.00711174 4.01716741 0.14055932 6.01953125 0.3046875 C5.68953125 0.9646875 5.35953125 1.6246875 5.01953125 2.3046875 C4.02953125 2.6346875 3.03953125 2.9646875 2.01953125 3.3046875 C2.34953125 4.0678125 2.67953125 4.8309375 3.01953125 5.6171875 C4.01953125 8.3046875 4.01953125 8.3046875 4.01953125 11.3046875 C1.13119122 13.41239509 -0.3650927 14.3046875 -3.98046875 14.3046875 C-5.51261763 11.24038974 -5.20985423 8.6881233 -4.98046875 5.3046875 C-3.35007151 0.51539562 -3.35007151 0.51539562 0 0 Z " fill="#D3358C" transform="translate(62.98046875,52.6953125)"/>
<path d="M0 0 C0.99 0.33 1.98 0.66 3 1 C3 2.32 3 3.64 3 5 C2.34 5 1.68 5 1 5 C1 8.96 1 12.92 1 17 C0.34 17.33 -0.32 17.66 -1 18 C-1.66 17.34 -2.32 16.68 -3 16 C-3.66 16.33 -4.32 16.66 -5 17 C-5 13.04 -5 9.08 -5 5 C-4.34 5 -3.68 5 -3 5 C-3 4.34 -3 3.68 -3 3 C-2.34 3 -1.68 3 -1 3 C-0.67 2.01 -0.34 1.02 0 0 Z " fill="#057698" transform="translate(56,50)"/>
<path d="M0 0 C1 2 1 2 0.8125 4.75 C1.05991864 9.0385898 2.15265644 10.79673849 5 14 C11.41787961 17.3235448 17.85612864 17.65471288 25 18 C23 20 23 20 20.35546875 20.23046875 C18.78732422 20.20919922 18.78732422 20.20919922 17.1875 20.1875 C16.14980469 20.18105469 15.11210937 20.17460938 14.04296875 20.16796875 C11.25746272 20.01421168 8.72518818 19.5563533 6 19 C3.76832815 19.36856864 3.76832815 19.36856864 2 20 C2.185625 19.21625 2.37125 18.4325 2.5625 17.625 C3.25962266 15.02910225 3.25962266 15.02910225 2 13 C0.35636866 12.27840576 -1.31050386 11.60648579 -3 11 C-3 10.01 -3 9.02 -3 8 C-2.34 8 -1.68 8 -1 8 C-1.020625 6.865625 -1.04125 5.73125 -1.0625 4.5625 C-1 1 -1 1 0 0 Z " fill="#17A1CB" transform="translate(115,91)"/>
<path d="M0 0 C0 0.66 0 1.32 0 2 C0.598125 2.20625 1.19625 2.4125 1.8125 2.625 C4.80115041 4.50358026 5.5278368 6.85492408 7 10 C7.66 10.33 8.32 10.66 9 11 C9 13.64 9 16.28 9 19 C8.67 19 8.34 19 8 19 C7.773125 17.948125 7.54625 16.89625 7.3125 15.8125 C6.20639469 11.8402094 4.11370115 9.70400363 1 7 C1.66 6.67 2.32 6.34 3 6 C-6.17128554 -0.46158754 -15.21415392 0.37194776 -26 2 C-25 0 -25 0 -23.13671875 -0.6328125 C-6.08823529 -4.05882353 -6.08823529 -4.05882353 0 0 Z " fill="#0A526A" transform="translate(99,80)"/>
<path d="M0 0 C0.804375 0.495 1.60875 0.99 2.4375 1.5 C1.4475 1.995 1.4475 1.995 0.4375 2.5 C-0.2225 2.17 -0.8825 1.84 -1.5625 1.5 C-3.7697923 1.42907158 -5.97917452 1.41584975 -8.1875 1.4375 C-9.97027344 1.45103516 -9.97027344 1.45103516 -11.7890625 1.46484375 C-13.16191406 1.48224609 -13.16191406 1.48224609 -14.5625 1.5 C-14.84996094 2.31082031 -15.13742188 3.12164062 -15.43359375 3.95703125 C-15.80613281 4.79621094 -16.17867187 5.63539062 -16.5625 6.5 C-18.625 7.1875 -18.625 7.1875 -20.5625 7.5 C-20.8925 8.16 -21.2225 8.82 -21.5625 9.5 C-22.2225 9.5 -22.8825 9.5 -23.5625 9.5 C-23.5625 10.16 -23.5625 10.82 -23.5625 11.5 C-24.2225 11.5 -24.8825 11.5 -25.5625 11.5 C-25.8925 15.13 -26.2225 18.76 -26.5625 22.5 C-26.8925 22.5 -27.2225 22.5 -27.5625 22.5 C-28.10628413 15.97459049 -27.60597646 10.83156452 -23.5625 5.5 C-16.59130539 -0.95221231 -9.11976989 -3.83990311 0 0 Z " fill="#0A4F62" transform="translate(76.5625,43.5)"/>
<path d="M0 0 C1.65 0.33 3.3 0.66 5 1 C5 3.31 5 5.62 5 8 C4.01 7.67 3.02 7.34 2 7 C2 7.99 2 8.98 2 10 C1.360625 10.103125 0.72125 10.20625 0.0625 10.3125 C-0.618125 10.539375 -1.29875 10.76625 -2 11 C-2.33 11.99 -2.66 12.98 -3 14 C-3.66 14 -4.32 14 -5 14 C-5.33 15.65 -5.66 17.3 -6 19 C-7.32 19.33 -8.64 19.66 -10 20 C-10 16.06830895 -8.60580385 14.83572772 -6 12 C-5.34 12 -4.68 12 -4 12 C-3.67 11.01 -3.34 10.02 -3 9 C-2.34 9 -1.68 9 -1 9 C-0.67 6.03 -0.34 3.06 0 0 Z " fill="#0AA7D4" transform="translate(109,90)"/>
<path d="M0 0 C0.33 0.66 0.66 1.32 1 2 C-0.28965176 3.37562854 -1.62689293 4.70766393 -3 6 C-3.66 6 -4.32 6 -5 6 C-5 6.66 -5 7.32 -5 8 C-8.44081271 9.14693757 -11.18746712 9.16819738 -14.8125 9.1875 C-16.01519531 9.20167969 -17.21789062 9.21585938 -18.45703125 9.23046875 C-21.98083425 9.00124672 -24.72129528 8.27030979 -28 7 C-24.68605847 5.89535282 -24.19942339 6.17745321 -21 7 C-18.91765408 7.06743348 -16.83331443 7.08514472 -14.75 7.0625 C-13.13351563 7.04896484 -13.13351563 7.04896484 -11.484375 7.03515625 C-10.25460938 7.01775391 -10.25460938 7.01775391 -9 7 C-9.95261719 6.89042969 -10.90523437 6.78085938 -11.88671875 6.66796875 C-13.14097656 6.50941406 -14.39523438 6.35085937 -15.6875 6.1875 C-16.92886719 6.03667969 -18.17023438 5.88585937 -19.44921875 5.73046875 C-22.93517782 5.01333526 -25.10608786 4.01965188 -28 2 C-27.34 1.67 -26.68 1.34 -26 1 C-24.205625 1.7115625 -24.205625 1.7115625 -22.375 2.4375 C-14.83121685 5.39237535 -9.28125187 4.13847063 -2 1 C-1.34 0.67 -0.68 0.34 0 0 Z " fill="#14556B" transform="translate(147,103)"/>
<path d="M0 0 C4.49998618 -0.02922653 8.99994765 -0.04687482 13.5 -0.0625 C14.7684375 -0.07087891 16.036875 -0.07925781 17.34375 -0.08789062 C30.30013821 -0.12163122 30.30013821 -0.12163122 36 1 C36.495 1.99 36.495 1.99 37 3 C28.38660417 3.09594129 19.79088321 3.09838709 11.1875 2.625 C9.90230469 2.55539063 8.61710937 2.48578125 7.29296875 2.4140625 C4.25323177 2.03184172 2.6271977 1.4263871 0 0 Z " fill="#E1328F" transform="translate(72,116)"/>
<path d="M0 0 C1.65 0 3.3 0 5 0 C5.48512072 7.1555306 5.48512072 7.1555306 3.3125 10.9375 C0.78804723 13.18903896 -0.67042093 13.72253508 -4 14 C-4.33 13.34 -4.66 12.68 -5 12 C-4.360625 11.319375 -3.72125 10.63875 -3.0625 9.9375 C-0.6741507 6.53591161 -0.32122847 4.09566299 0 0 Z " fill="#C73685" transform="translate(137,124)"/>
<path d="M0 0 C1.50433594 0.01353516 1.50433594 0.01353516 3.0390625 0.02734375 C3.80992187 0.03894531 4.58078125 0.05054688 5.375 0.0625 C2.375 2.0625 2.375 2.0625 -0.5 3.3125 C-4.19125892 5.37960499 -6.08862528 7.70351727 -8.625 11.0625 C-9.223125 11.84625 -9.82125 12.63 -10.4375 13.4375 C-10.829375 13.97375 -11.22125 14.51 -11.625 15.0625 C-12.62370824 11.98955158 -13.01191628 9.91216816 -11.6484375 6.91796875 C-8.20505175 1.3300182 -6.71090153 -0.07803374 0 0 Z " fill="#047A9A" transform="translate(131.625,49.9375)"/>
<path d="M0 0 C-0.33 1.65 -0.66 3.3 -1 5 C-2.65 5.33 -4.3 5.66 -6 6 C-6 5.34 -6 4.68 -6 4 C-6.66 4 -7.32 4 -8 4 C-8 4.66 -8 5.32 -8 6 C-8.66 6 -9.32 6 -10 6 C-10 5.34 -10 4.68 -10 4 C-10.84304687 4.49113281 -10.84304687 4.49113281 -11.703125 4.9921875 C-14.26859964 6.11785494 -15.96842277 6.2068111 -18.75 6.125 C-19.54921875 6.10695313 -20.3484375 6.08890625 -21.171875 6.0703125 C-21.77515625 6.04710938 -22.3784375 6.02390625 -23 6 C-23 5.34 -23 4.68 -23 4 C-20.47524538 2.73762269 -18.68799534 2.90143596 -15.875 2.9375 C-14.96492187 2.94652344 -14.05484375 2.95554687 -13.1171875 2.96484375 C-12.41851562 2.97644531 -11.71984375 2.98804687 -11 3 C-11 2.34 -11 1.68 -11 1 C-7.32589215 -0.17571451 -3.83070817 -0.07366746 0 0 Z " fill="#E03290" transform="translate(147,115)"/>
<path d="M0 0 C6.93 0 13.86 0 21 0 C21 0.33 21 0.66 21 1 C20.18378174 1.21148682 20.18378174 1.21148682 19.35107422 1.42724609 C16.85849266 2.0743739 14.36674575 2.72466167 11.875 3.375 C11.0190625 3.59671875 10.163125 3.8184375 9.28125 4.046875 C4.79542181 5.2200916 0.37896212 6.46377395 -4 8 C-4.33 6.68 -4.66 5.36 -5 4 C-3.02 3.67 -1.04 3.34 1 3 C0.67 2.01 0.34 1.02 0 0 Z " fill="#010413" transform="translate(64,0)"/>
<path d="M0 0 C6.93 0 13.86 0 21 0 C21.33 0.66 21.66 1.32 22 2 C21.01 2.495 21.01 2.495 20 3 C21.32 3.33 22.64 3.66 24 4 C24 4.66 24 5.32 24 6 C24.99 6.33 25.98 6.66 27 7 C25 8 25 8 23.12402344 7.57861328 C22.37668945 7.32837402 21.62935547 7.07813477 20.859375 6.8203125 C20.03566406 6.55089844 19.21195313 6.28148437 18.36328125 6.00390625 C17.50089844 5.71386719 16.63851562 5.42382812 15.75 5.125 C8.00737347 2.54093476 8.00737347 2.54093476 0 1 C0 0.67 0 0.34 0 0 Z " fill="#02071E" transform="translate(114,0)"/>
<path d="M0 0 C2.58944435 0.56746762 5.12876177 1.19055452 7.6875 1.875 C12.44386803 3.13009256 17.12511467 4.27836343 22 5 C22 5.33 22 5.66 22 6 C18.41673499 6.05814085 14.83359162 6.09364357 11.25 6.125 C10.23421875 6.14175781 9.2184375 6.15851563 8.171875 6.17578125 C7.1921875 6.18222656 6.2125 6.18867188 5.203125 6.1953125 C3.85202637 6.21102295 3.85202637 6.21102295 2.47363281 6.22705078 C-0.13926856 5.98721676 -1.75664666 5.32312064 -4 4 C-2.68 4 -1.36 4 0 4 C-0.33 3.01 -0.66 2.02 -1 1 C-0.67 0.67 -0.34 0.34 0 0 Z " fill="#03061A" transform="translate(66,194)"/>
<path d="M0 0 C4.44602107 1.06791683 7.87687253 2.60074236 11 6 C10.67 6.66 10.34 7.32 10 8 C9.5359375 7.72285156 9.071875 7.44570312 8.59375 7.16015625 C1.01365071 3.18626091 -6.62612645 3.20549383 -15 3 C-10.36546682 -1.09311576 -5.90919407 -0.61214027 0 0 Z " fill="#10A8D2" transform="translate(92,80)"/>
<path d="M0 0 C3.31865451 3.06337339 5.87740359 6.47281301 8.5390625 10.09375 C10.19467615 12.25401594 12.00081998 14.15460306 14 16 C7.88289668 14.32799176 3.51912013 12.51912013 -1 8 C-2.2077558 4.37673261 -1.54311128 3.35853631 0 0 Z " fill="#047A9C" transform="translate(65,136)"/>
<path d="M0 0 C0.99 0.33 1.98 0.66 3 1 C2.49339844 2.45019531 2.49339844 2.45019531 1.9765625 3.9296875 C-0.53435207 11.22231388 -2.79480914 18.35513259 -4 26 C-4.33 26 -4.66 26 -5 26 C-5.02689449 23.04160645 -5.04678741 20.08345573 -5.0625 17.125 C-5.07087891 16.28324219 -5.07925781 15.44148438 -5.08789062 14.57421875 C-5.09111328 13.76855469 -5.09433594 12.96289062 -5.09765625 12.1328125 C-5.10289307 11.38918457 -5.10812988 10.64555664 -5.11352539 9.87939453 C-5 8 -5 8 -4 6 C-3.01 6 -2.02 6 -1 6 C-1.020625 5.195625 -1.04125 4.39125 -1.0625 3.5625 C-1 1 -1 1 0 0 Z " fill="#020518" transform="translate(5,60)"/>
<path d="M0 0 C11.88 0 23.76 0 36 0 C36 0.33 36 0.66 36 1 C28.08 1 20.16 1 12 1 C12 1.99 12 2.98 12 4 C13.32 4.33 14.64 4.66 16 5 C9.4 4.67 2.8 4.34 -4 4 C-4 3.67 -4 3.34 -4 3 C1.94 2.505 1.94 2.505 8 2 C5.36 1.67 2.72 1.34 0 1 C0 0.67 0 0.34 0 0 Z " fill="#BD3682" transform="translate(100,116)"/>
<path d="M0 0 C0.66 0 1.32 0 2 0 C2.70125 0.7425 3.4025 1.485 4.125 2.25 C10.35563575 8.20973854 18.82476321 10.75581735 27 13 C24.73399611 14.40202524 23.46289061 15.04466488 20.7734375 14.78515625 C12.91547431 12.41752891 5.44000761 8.29711492 0 2 C0 1.34 0 0.68 0 0 Z " fill="#10637D" transform="translate(62,142)"/>
<path d="M0 0 C-0.33 1.32 -0.66 2.64 -1 4 C-5.31772244 5.06378669 -9.50742256 5.1294216 -13.92578125 5.09765625 C-15.04716743 5.09553383 -15.04716743 5.09553383 -16.19120789 5.09336853 C-18.56501365 5.08779764 -20.93872303 5.0752506 -23.3125 5.0625 C-24.92773301 5.05748123 -26.5429675 5.05291899 -28.15820312 5.04882812 C-32.10550555 5.03783775 -36.05273647 5.02059332 -40 5 C-40 4.67 -40 4.34 -40 4 C-32.08 3.67 -24.16 3.34 -16 3 C-16 2.67 -16 2.34 -16 2 C-15.24074219 1.93941406 -14.48148438 1.87882812 -13.69921875 1.81640625 C-12.70535156 1.73261719 -11.71148437 1.64882812 -10.6875 1.5625 C-9.70136719 1.48128906 -8.71523437 1.40007812 -7.69921875 1.31640625 C-5.01023135 1.00119933 -2.69190636 0 0 0 Z " fill="#1A97BF" transform="translate(144,110)"/>
<path d="M0 0 C0.33 0 0.66 0 1 0 C0.67 2.97 0.34 5.94 0 9 C0.66 9 1.32 9 2 9 C2.33 8.34 2.66 7.68 3 7 C3 9.97 3 12.94 3 16 C2.01 16.33 1.02 16.66 0 17 C-0.33 19.97 -0.66 22.94 -1 26 C-1.33 26 -1.66 26 -2 26 C-2.0543251 22.97892098 -2.09382927 19.95883472 -2.125 16.9375 C-2.14175781 16.08994141 -2.15851562 15.24238281 -2.17578125 14.36914062 C-2.21596135 9.16581799 -1.69745815 4.92530179 0 0 Z " fill="#075870" transform="translate(53,95)"/>
<path d="M0 0 C0.66 0.33 1.32 0.66 2 1 C2.99 0.67 3.98 0.34 5 0 C5.515625 0.804375 6.03125 1.60875 6.5625 2.4375 C9.63205757 5.66447078 11.64868459 5.74896257 16 6 C16 6.33 16 6.66 16 7 C14.35 7 12.7 7 11 7 C11 7.99 11 8.98 11 10 C6.5053662 8.74568359 3.40851589 7.21374355 0 4 C-0.33 3.01 -0.66 2.02 -1 1 C-0.67 0.67 -0.34 0.34 0 0 Z " fill="#E6E9E8" transform="translate(116,97)"/>
<path d="M0 0 C1.45823212 -0.0270043 2.91660675 -0.04639787 4.375 -0.0625 C5.18710938 -0.07410156 5.99921875 -0.08570312 6.8359375 -0.09765625 C9 0 9 0 11 1 C10.3125 2.9375 10.3125 2.9375 9 5 C6.75 5.6875 6.75 5.6875 4 6 C2.906875 6.185625 1.81375 6.37125 0.6875 6.5625 C-0.199375 6.706875 -1.08625 6.85125 -2 7 C-1.34 4.69 -0.68 2.38 0 0 Z " fill="#800A4F" transform="translate(125,127)"/>
<path d="M0 0 C0.33 0.66 0.66 1.32 1 2 C0.67 2.66 0.34 3.32 0 4 C0.99 4 1.98 4 3 4 C3 5.98 3 7.96 3 10 C2.34 10 1.68 10 1 10 C1 10.66 1 11.32 1 12 C-2.875 11.125 -2.875 11.125 -4 10 C-4.3125 7.1875 -4.3125 7.1875 -4 4 C-2 1.625 -2 1.625 0 0 Z " fill="#F9FAF9" transform="translate(75,88)"/>
<path d="M0 0 C0.99 0.33 1.98 0.66 3 1 C2.67 1.66 2.34 2.32 2 3 C1.34 3 0.68 3 0 3 C-0.59070014 4.94603274 -0.59070014 4.94603274 -1 7 C0.18852855 8.41774838 0.18852855 8.41774838 3.59765625 8.09765625 C5.08596867 8.0909822 6.57426432 8.07902183 8.0625 8.0625 C8.82111328 8.05798828 9.57972656 8.05347656 10.36132812 8.04882812 C12.24091871 8.0370068 14.12046899 8.01907078 16 8 C16 8.33 16 8.66 16 9 C10.39 9.66 4.78 10.32 -1 11 C-1 10.34 -1 9.68 -1 9 C-3.31 8.67 -5.62 8.34 -8 8 C-8 7.34 -8 6.68 -8 6 C-7.05125 5.7525 -6.1025 5.505 -5.125 5.25 C-1.91306809 4.3142923 -1.91306809 4.3142923 -0.625 1.875 C-0.41875 1.25625 -0.2125 0.6375 0 0 Z " fill="#0890B7" transform="translate(77,69)"/>
<path d="M0 0 C0.66 0.33 1.32 0.66 2 1 C1.443125 1.53625 0.88625 2.0725 0.3125 2.625 C-2.29534327 5.30332552 -4.633254 8.10731044 -7 11 C-7.99 10.67 -8.98 10.34 -10 10 C-9.01 8.68 -8.02 7.36 -7 6 C-10.63 5.67 -14.26 5.34 -18 5 C-18 4.67 -18 4.34 -18 4 C-16.86820312 3.79503906 -15.73640625 3.59007812 -14.5703125 3.37890625 C-13.08851239 3.10693028 -11.60674315 2.83478613 -10.125 2.5625 C-9.37863281 2.42779297 -8.63226563 2.29308594 -7.86328125 2.15429688 C-3.81466622 1.45463389 -3.81466622 1.45463389 0 0 Z " fill="#1C4666" transform="translate(136,137)"/>
<path d="M0 0 C0.33 -0.66 0.66 -1.32 1 -2 C2.06775224 -0.03533587 3.06553465 1.96855359 4 4 C3.67 4.66 3.34 5.32 3 6 C2.071875 5.360625 1.14375 4.72125 0.1875 4.0625 C-6.21971071 -0.08334222 -14.01383149 0.07064931 -21.41015625 1.44921875 C-22.96136462 1.89833657 -24.48646528 2.43682429 -26 3 C-23.87482103 0.2497684 -21.50526524 -0.86247427 -18.1640625 -1.72265625 C-12.12896179 -2.49610779 -5.90084039 -1.24620636 0 0 Z " fill="#1E4651" transform="translate(144,86)"/>
<path d="M0 0 C0.66 0.33 1.32 0.66 2 1 C0.25 4.875 0.25 4.875 -2 6 C-3.81341842 6.08471364 -5.62994161 6.10721083 -7.4453125 6.09765625 C-9.05986328 6.09282227 -9.05986328 6.09282227 -10.70703125 6.08789062 C-11.83496094 6.07951172 -12.96289062 6.07113281 -14.125 6.0625 C-15.26066406 6.05798828 -16.39632812 6.05347656 -17.56640625 6.04882812 C-20.37765638 6.03701615 -23.1888023 6.02054507 -26 6 C-26 5.67 -26 5.34 -26 5 C-20.555 4.505 -20.555 4.505 -15 4 C-15 3.67 -15 3.34 -15 3 C-13.35 3 -11.7 3 -10 3 C-10 3.66 -10 4.32 -10 5 C-9.34 5 -8.68 5 -8 5 C-8 4.34 -8 3.68 -8 3 C-7.34 3 -6.68 3 -6 3 C-6 3.66 -6 4.32 -6 5 C-3.84526801 3.4198632 -1.89353366 1.89353366 0 0 Z " fill="#D3368C" transform="translate(147,116)"/>
<path d="M0 0 C3 2 3 2 4 5 C4.99 3.68 5.98 2.36 7 1 C7.33 2.32 7.66 3.64 8 5 C11.3 5 14.6 5 18 5 C15.60236815 7.39763185 14.66726502 7.34280586 11.375 7.625 C10.55773438 7.69976562 9.74046875 7.77453125 8.8984375 7.8515625 C8.27195312 7.90054688 7.64546875 7.94953125 7 8 C7.33 8.99 7.66 9.98 8 11 C7.01 11.33 6.02 11.66 5 12 C4.731875 11.278125 4.46375 10.55625 4.1875 9.8125 C3.05967316 6.95320276 3.05967316 6.95320276 1.375 4.3125 C0 2 0 2 0 0 Z " fill="#08556F" transform="translate(51,71)"/>
<path d="M0 0 C2 3 2 3 2.125 5.875 C3.1578611 9.56378963 3.91190363 9.92594917 7.0625 11.875 C8.3644139 12.60260742 9.67396179 13.31734707 11 14 C7.83163625 15.05612125 7.00740158 15.17019517 4 14 C2.3671875 12.40625 2.3671875 12.40625 0.875 10.5 C-1.19887681 7.8119616 -1.19887681 7.8119616 -4 6 C-4 4.68 -4 3.36 -4 2 C-2.68 2 -1.36 2 0 2 C0 1.34 0 0.68 0 0 Z " fill="#6B356E" transform="translate(69,123)"/>
<path d="M0 0 C2.204364 0.22950319 4.41392173 0.41075933 6.625 0.5625 C7.81351563 0.64628906 9.00203125 0.73007813 10.2265625 0.81640625 C11.59941406 0.90728516 11.59941406 0.90728516 13 1 C13 1.33 13 1.66 13 2 C2.605 3.485 2.605 3.485 -8 5 C-7.67 3.35 -7.34 1.7 -7 0 C-2.25 -1.125 -2.25 -1.125 0 0 Z " fill="#5ECEE9" transform="translate(94,66)"/>
<path d="M0 0 C0.33 0 0.66 0 1 0 C2.60755485 9.91325492 2.61924683 20.08211317 1 30 C0.67 30 0.34 30 0 30 C-0.19907807 26.50055963 -0.38213327 23.0004507 -0.5625 19.5 C-0.61857422 18.51773438 -0.67464844 17.53546875 -0.73242188 16.5234375 C-1.01593713 10.85313239 -0.90129458 5.60805516 0 0 Z " fill="#76DAF2" transform="translate(177,86)"/>
<path d="M0 0 C3.2519267 4.87789005 4 9.1695067 4 15 C-3.26 15 -10.52 15 -18 15 C-18 14.67 -18 14.34 -18 14 C-11.07 14 -4.14 14 3 14 C2.67 13.01 2.34 12.02 2 11 C1.34 10.67 0.68 10.34 0 10 C0 6.7 0 3.4 0 0 Z " fill="#1458D3" transform="translate(195,71)"/>
<path d="M0 0 C1.65 0.33 3.3 0.66 5 1 C5 1.66 5 2.32 5 3 C5.99 3.33 6.98 3.66 8 4 C11 7.44444444 11 7.44444444 11 10 C6.38 10.66 1.76 11.32 -3 12 C-2 10 -2 10 0.06640625 9.1484375 C0.89011719 8.89320312 1.71382813 8.63796875 2.5625 8.375 C3.38878906 8.11460938 4.21507812 7.85421875 5.06640625 7.5859375 C5.70449219 7.39257812 6.34257812 7.19921875 7 7 C4.63707344 4.47411298 3.33537489 3.11179163 0 2 C0 1.34 0 0.68 0 0 Z " fill="#0B7494" transform="translate(126,68)"/>
<path d="M0 0 C-3.99613521 3.71069698 -6.37082652 5.59791618 -12 6 C-9 4 -9 4 -7 3 C-11.95 2.67 -16.9 2.34 -22 2 C-22 1.34 -22 0.68 -22 0 C-20.89140625 0.01160156 -19.7828125 0.02320312 -18.640625 0.03515625 C-17.17708502 0.04453792 -15.71354322 0.05363771 -14.25 0.0625 C-13.52039063 0.07087891 -12.79078125 0.07925781 -12.0390625 0.08789062 C-7.9197147 0.13143747 -7.9197147 0.13143747 -3.88183594 -0.56860352 C-2 -1 -2 -1 0 0 Z " fill="#164B5B" transform="translate(102,105)"/>
<path d="M0 0 C4.62 0 9.24 0 14 0 C9.50756181 3.36932864 7.04947734 3.37007917 1.75 3.1875 C1.00492187 3.17396484 0.25984375 3.16042969 -0.5078125 3.14648438 C-2.33885416 3.11127204 -4.16952169 3.05746851 -6 3 C-6 2.67 -6 2.34 -6 2 C-4.02 1.67 -2.04 1.34 0 1 C0 0.67 0 0.34 0 0 Z " fill="#15A1C6" transform="translate(83,107)"/>
<path d="M0 0 C1.2065625 0.0309375 1.2065625 0.0309375 2.4375 0.0625 C-0.95122633 3.65056317 -4.32391332 6.51934799 -8.5625 9.0625 C-9.2225 9.0625 -9.8825 9.0625 -10.5625 9.0625 C-10.5625 8.4025 -10.5625 7.7425 -10.5625 7.0625 C-9.9025 7.0625 -9.2425 7.0625 -8.5625 7.0625 C-8.2325 5.4125 -7.9025 3.7625 -7.5625 2.0625 C-6.923125 1.918125 -6.28375 1.77375 -5.625 1.625 C-2.92258807 0.88797856 -2.9576555 0.07213794 0 0 Z " fill="#0B4EDF" transform="translate(160.5625,176.9375)"/>
<path d="M0 0 C3 0 3 0 5.0625 1.9375 C5.701875 2.618125 6.34125 3.29875 7 4 C7.66 4.33 8.32 4.66 9 5 C9 5.99 9 6.98 9 8 C7.53775201 7.57576756 6.08026588 7.13509755 4.625 6.6875 C3.81289062 6.44386719 3.00078125 6.20023437 2.1640625 5.94921875 C0 5 0 5 -2 2 C-1.34 2 -0.68 2 0 2 C0 1.34 0 0.68 0 0 Z " fill="#F2F4F3" transform="translate(76,98)"/>
<path d="M0 0 C-0.66 0 -1.32 0 -2 0 C-1.67 0.99 -1.34 1.98 -1 3 C-6.28 3 -11.56 3 -17 3 C-13.92528034 1.46264017 -11.75292863 0.55332108 -8.5 -0.1875 C-7.7471875 -0.36667969 -6.994375 -0.54585937 -6.21875 -0.73046875 C-3.85166621 -1.01801942 -2.25455985 -0.72248395 0 0 Z " fill="#020B28" transform="translate(129,197)"/>
<path d="M0 0 C5.94 0.66 11.88 1.32 18 2 C15.32528957 4.67471043 13.85194382 4.32943834 10.125 4.375 C8.55105469 4.41753906 8.55105469 4.41753906 6.9453125 4.4609375 C4 4 4 4 0 0 Z " fill="#530732" transform="translate(100,130)"/>
<path d="M0 0 C3.54243452 1.36591169 6.92627929 2.90931484 10.3125 4.625 C11.63701172 5.29402344 11.63701172 5.29402344 12.98828125 5.9765625 C13.65214844 6.31429687 14.31601563 6.65203125 15 7 C15 7.66 15 8.32 15 9 C12.69 8.67 10.38 8.34 8 8 C7.67 7.01 7.34 6.02 7 5 C4.57616923 3.83046584 4.57616923 3.83046584 2 3 C1.34 2.67 0.68 2.34 0 2 C0 1.34 0 0.68 0 0 Z " fill="#4E0830" transform="translate(84,122)"/>
<path d="M0 0 C2 1 2 1 4 3 C6.43252661 3.46162427 6.43252661 3.46162427 9.125 3.625 C10.03507812 3.69976562 10.94515625 3.77453125 11.8828125 3.8515625 C12.93082031 3.92503906 12.93082031 3.92503906 14 4 C14 4.33 14 4.66 14 5 C11.37493198 5.02690844 8.75013827 5.04679404 6.125 5.0625 C5.37863281 5.07087891 4.63226563 5.07925781 3.86328125 5.08789062 C-1.7734375 5.11328125 -1.7734375 5.11328125 -4 4 C-4 3.34 -4 2.68 -4 2 C-2.125 0.9375 -2.125 0.9375 0 0 Z " fill="#0EA6D2" transform="translate(96,109)"/>
<path d="M0 0 C4.96916636 0.51405169 9.29026351 1.23384882 14 3 C14 3.33 14 3.66 14 4 C10.38026598 5.31626692 7.90432869 6 4 6 C4 5.34 4 4.68 4 4 C4.66 4 5.32 4 6 4 C6 3.34 6 2.68 6 2 C4.35 2.33 2.7 2.66 1 3 C0.67 2.01 0.34 1.02 0 0 Z " fill="#0B4EE6" transform="translate(116,1)"/>
<path d="M0 0 C0.66 0 1.32 0 2 0 C2.33 1.32 2.66 2.64 3 4 C3.66 3.01 4.32 2.02 5 1 C5.66 3.97 6.32 6.94 7 10 C6.01 10.66 5.02 11.32 4 12 C3.32645501 10.56570999 2.66140299 9.12742943 2 7.6875 C1.62875 6.88699219 1.2575 6.08648437 0.875 5.26171875 C0 3 0 3 0 0 Z " fill="#0CA3CC" transform="translate(58,117)"/>
<path d="M0 0 C0.74056641 0.00902344 1.48113281 0.01804687 2.24414062 0.02734375 C4.05873467 0.05075787 5.87316071 0.08662385 7.6875 0.125 C7.6875 0.455 7.6875 0.785 7.6875 1.125 C-0.7275 1.62 -0.7275 1.62 -9.3125 2.125 C-9.3125 2.785 -9.3125 3.445 -9.3125 4.125 C-10.6325 4.455 -11.9525 4.785 -13.3125 5.125 C-13.3125 4.135 -13.3125 3.145 -13.3125 2.125 C-8.90220217 -0.08449832 -4.82309676 -0.1120648 0 0 Z " fill="#500831" transform="translate(84.3125,118.875)"/>
<path d="M0 0 C0.33 1.32 0.66 2.64 1 4 C0.01 4.33 -0.98 4.66 -2 5 C-2.33 6.65 -2.66 8.3 -3 10 C-4.32 10.33 -5.64 10.66 -7 11 C-7 7.06830895 -5.60580385 5.83572772 -3 3 C-2.34 3 -1.68 3 -1 3 C-0.67 2.01 -0.34 1.02 0 0 Z " fill="#158FB3" transform="translate(106,99)"/>
<path d="M0 0 C0.845625 0.495 1.69125 0.99 2.5625 1.5 C-0.67980899 2.58076966 -2.50964544 2.46290534 -5.875 2.125 C-6.82246094 2.03476563 -7.76992187 1.94453125 -8.74609375 1.8515625 C-11.05168615 1.55039658 -13.20141117 1.12377892 -15.4375 0.5 C-10.02926212 -2.12217594 -5.54397963 -2.41919111 0 0 Z " fill="#097899" transform="translate(139.4375,83.5)"/>
<path d="M0 0 C3.875 1.75 3.875 1.75 5 4 C5.04022391 6.3329866 5.04320247 8.66706666 5 11 C2.38114512 8.63055987 0.58133449 6.16266898 -1 3 C-0.67 2.01 -0.34 1.02 0 0 Z " fill="#04071D" transform="translate(184,42)"/>
<path d="M0 0 C6.44070471 -0.10655578 12.62641289 0.03794912 19 1 C14.93261417 3.71159055 11.77012858 3.40999452 7 3 C4.57295604 2.48718197 2.35488634 1.80166344 0 1 C0 0.67 0 0.34 0 0 Z " fill="#C93B86" transform="translate(101,129)"/>
<path d="M0 0 C0.33 0.99 0.66 1.98 1 3 C2.32 2.67 3.64 2.34 5 2 C5.33 3.65 5.66 5.3 6 7 C5.34 7 4.68 7 4 7 C4 7.99 4 8.98 4 10 C4.66 10.33 5.32 10.66 6 11 C5.34 11.66 4.68 12.32 4 13 C3.32404685 11.58774074 2.65959941 10.16997095 2 8.75 C1.62875 7.96109375 1.2575 7.1721875 0.875 6.359375 C0 4 0 4 0 0 Z " fill="#08556E" transform="translate(52,122)"/>
<path d="M0 0 C0.33 0 0.66 0 1 0 C1 6.27 1 12.54 1 19 C0.01 18.34 -0.98 17.68 -2 17 C-1.34 11.39 -0.68 5.78 0 0 Z " fill="#1E1E24" transform="translate(199,108)"/>
<path d="M0 0 C3.77068832 -0.086985 7.54111932 -0.14038579 11.3125 -0.1875 C12.38435547 -0.21263672 13.45621094 -0.23777344 14.56054688 -0.26367188 C15.58857422 -0.27333984 16.61660156 -0.28300781 17.67578125 -0.29296875 C19.0975769 -0.31653442 19.0975769 -0.31653442 20.5480957 -0.34057617 C23 0 23 0 26 3 C17.42 2.34 8.84 1.68 0 1 C0 0.67 0 0.34 0 0 Z " fill="#0661E7" transform="translate(92,21)"/>
<path d="M0 0 C0.99 0.33 1.98 0.66 3 1 C3.625 3.3125 3.625 3.3125 4 6 C3.01 7.485 3.01 7.485 2 9 C1.01 9 0.02 9 -1 9 C-0.67 6.03 -0.34 3.06 0 0 Z " fill="#09A5D4" transform="translate(76,45)"/>
<path d="M0 0 C5.12583611 -0.10251672 9.94997778 -0.03590199 15 1 C15 1.33 15 1.66 15 2 C11.37 2 7.74 2 4 2 C3.67 3.32 3.34 4.64 3 6 C2 4 1 2 0 0 Z " fill="#47052D" transform="translate(121,122)"/>
<path d="M0 0 C0.33 0 0.66 0 1 0 C1.99 5.61 2.98 11.22 4 17 C3.34 17 2.68 17 2 17 C-1.28401155 11.08877921 -0.99199279 6.50306384 0 0 Z " fill="#0B65EF" transform="translate(21,108)"/>
<path d="M0 0 C0.66 0 1.32 0 2 0 C2.33 2.64 2.66 5.28 3 8 C2.38125 7.505 1.7625 7.01 1.125 6.5 C-3.26029741 4.39505724 -7.21713261 4.74924773 -12 5 C-11.67 4.34 -11.34 3.68 -11 3 C-7.37 3 -3.74 3 0 3 C0 2.01 0 1.02 0 0 Z " fill="#24446B" transform="translate(73,48)"/>
<path d="M0 0 C1 2 1 2 0.875 4.8125 C1.01645919 8.41970942 1.94623052 10.09049323 4 13 C1.69 12.34 -0.62 11.68 -3 11 C-3 10.01 -3 9.02 -3 8 C-2.34 8 -1.68 8 -1 8 C-1.020625 6.865625 -1.04125 5.73125 -1.0625 4.5625 C-1 1 -1 1 0 0 Z " fill="#0F708E" transform="translate(115,91)"/>
<path d="M0 0 C1.32 0 2.64 0 4 0 C4 0.66 4 1.32 4 2 C5.5778125 1.9690625 5.5778125 1.9690625 7.1875 1.9375 C10.32704904 1.98896802 12.96883396 2.26517187 16 3 C16 3.33 16 3.66 16 4 C9.71739294 4.23268915 4.11980533 3.40454548 -2 2 C-1.34 1.34 -0.68 0.68 0 0 Z " fill="#0A44CD" transform="translate(80,196)"/>
<path d="M0 0 C0.94875 0.04125 1.8975 0.0825 2.875 0.125 C2.545 0.785 2.215 1.445 1.875 2.125 C0.885 2.455 -0.105 2.785 -1.125 3.125 C-1.125 4.775 -1.125 6.425 -1.125 8.125 C-2.115 8.62 -2.115 8.62 -3.125 9.125 C-3.785 6.815 -4.445 4.505 -5.125 2.125 C-3.125 0.125 -3.125 0.125 0 0 Z " fill="#E33092" transform="translate(66.125,52.875)"/>
<path d="M0 0 C0.33 0.66 0.66 1.32 1 2 C-0.625 4.9375 -0.625 4.9375 -3 8 C-6.25 8.875 -6.25 8.875 -9 9 C-6 6 -3 3 0 0 Z " fill="#020A27" transform="translate(167,173)"/>
<path d="M0 0 C2.31 0.66 4.62 1.32 7 2 C6.34 3.98 5.68 5.96 5 8 C2.72478134 5.83312509 0.84205838 3.54379491 -1 1 C-0.67 0.67 -0.34 0.34 0 0 Z " fill="#0D7390" transform="translate(51,69)"/>
<path d="M0 0 C1.32168051 2.17688554 2.0131712 3.55217933 1.9375 6.125 C1 8 1 8 -1.5625 9.25 C-2.366875 9.4975 -3.17125 9.745 -4 10 C-2.8905928 6.51329166 -1.73662334 3.22515763 0 0 Z " fill="#094CD9" transform="translate(12,50)"/>
<path d="M0 0 C0.33 1.32 0.66 2.64 1 4 C0.34 4 -0.32 4 -1 4 C-1 4.99 -1 5.98 -1 7 C-3.31 7.66 -5.62 8.32 -8 9 C-7.04270084 7.87411986 -6.08412105 6.7493285 -5.125 5.625 C-4.59132812 4.99851563 -4.05765625 4.37203125 -3.5078125 3.7265625 C-2.38567993 2.44163349 -1.20628025 1.20628025 0 0 Z " fill="#030E31" transform="translate(176,164)"/>
<path d="M0 0 C0.66 1.32 1.32 2.64 2 4 C-1.13498292 5.85776765 -3.37471432 6.20140476 -7 6 C-5.68 5.34 -4.36 4.68 -3 4 C-4.32 3.34 -5.64 2.68 -7 2 C-4.69 1.34 -2.38 0.68 0 0 Z " fill="#C43682" transform="translate(132,134)"/>
<path d="M0 0 C-2.6860286 1.79068573 -4.6626589 2.66055791 -7.6875 3.625 C-8.89986328 4.01558594 -8.89986328 4.01558594 -10.13671875 4.4140625 C-10.75160156 4.60742188 -11.36648437 4.80078125 -12 5 C-12.33 3.68 -12.66 2.36 -13 1 C-8.61414671 0.29826347 -4.44209357 -0.10834375 0 0 Z " fill="#030926" transform="translate(72,3)"/>
<path d="M0 0 C-0.99 0.66 -1.98 1.32 -3 2 C-2.67 2.66 -2.34 3.32 -2 4 C-5.63 4 -9.26 4 -13 4 C-10.56272708 2.37515139 -8.62713877 1.34310925 -5.9375 0.3125 C-5.24527344 0.04050781 -4.55304688 -0.23148438 -3.83984375 -0.51171875 C-2 -1 -2 -1 0 0 Z " fill="#020D33" transform="translate(142,192)"/>
<path d="M0 0 C1.32 0 2.64 0 4 0 C4 1.98 4 3.96 4 6 C2.68 6 1.36 6 0 6 C0 4.02 0 2.04 0 0 Z " fill="#DE328F" transform="translate(138,125)"/>
<path d="M0 0 C0.33 0.66 0.66 1.32 1 2 C2.64551962 2.71727778 4.31422289 3.38325228 6 4 C6.66 4.33 7.32 4.66 8 5 C8 5.66 8 6.32 8 7 C6.53932801 6.54917531 5.08151968 6.08906463 3.625 5.625 C2.81289062 5.36976562 2.00078125 5.11453125 1.1640625 4.8515625 C-1 4 -1 4 -3 2 C-2.01 1.34 -1.02 0.68 0 0 Z " fill="#66073D" transform="translate(83,122)"/>
<path d="M0 0 C4.97631579 4.81578947 4.97631579 4.81578947 5.0625 9.125 C5.041875 10.07375 5.02125 11.0225 5 12 C4.34 11.67 3.68 11.34 3 11 C2.65846063 9.33499557 2.32550502 7.66821323 2 6 C1.34 5.34 0.68 4.68 0 4 C0 2.68 0 1.36 0 0 Z " fill="#14728D" transform="translate(139,51)"/>
<path d="M0 0 C-2.58535679 1.72357119 -4.03811614 2.44735018 -6.9375 3.1875 C-7.60652344 3.36667969 -8.27554688 3.54585938 -8.96484375 3.73046875 C-11.24680888 4.03268678 -12.82026659 3.68756692 -15 3 C-13.25531628 2.29911844 -11.50398839 1.61475991 -9.75 0.9375 C-8.77546875 0.55464844 -7.8009375 0.17179688 -6.796875 -0.22265625 C-3.95992605 -1.01113787 -2.70590448 -1.02437812 0 0 Z " fill="#0D4FDD" transform="translate(76,4)"/>
<path d="M0 0 C-0.625 2.375 -0.625 2.375 -2 5 C-5.125 6.3125 -5.125 6.3125 -8 7 C-8.66 6.34 -9.32 5.68 -10 5 C-8.71186658 4.16121545 -7.41936744 3.32913217 -6.125 2.5 C-5.40570313 2.0359375 -4.68640625 1.571875 -3.9453125 1.09375 C-2 0 -2 0 0 0 Z " fill="#020822" transform="translate(158,182)"/>
<path d="M0 0 C0.33 0.66 0.66 1.32 1 2 C-0.09346881 3.34212062 -1.2001575 4.67347975 -2.3125 6 C-3.23482422 7.11375 -3.23482422 7.11375 -4.17578125 8.25 C-6 10 -6 10 -9 10 C-6.03 6.7 -3.06 3.4 0 0 Z " fill="#0660F0" transform="translate(163,148)"/>
<path d="M0 0 C2 4 2 4 1.875 6.125 C1 8 1 8 -3 10 C-2.01 6.7 -1.02 3.4 0 0 Z " fill="#01081D" transform="translate(194,132)"/>
<path d="M0 0 C0 0.99 0 1.98 0 3 C-0.99 3.33 -1.98 3.66 -3 4 C-3.33 4.99 -3.66 5.98 -4 7 C-5.65 7 -7.3 7 -9 7 C-6.19195732 4.03595495 -3.81684226 1.55500981 0 0 Z " fill="#0B4EDC" transform="translate(49,13)"/>
<path d="M0 0 C1.74627478 2.61941217 2.38722388 4.03824877 3 7 C1.68 7.33 0.36 7.66 -1 8 C-1 6.35 -1 4.7 -1 3 C-1.66 2.67 -2.32 2.34 -3 2 C-2.01 1.34 -1.02 0.68 0 0 Z " fill="#017A9E" transform="translate(58,120)"/>
<path d="M0 0 C-0.33 0.99 -0.66 1.98 -1 3 C-3.0625 3.6875 -3.0625 3.6875 -5 4 C-4.67 5.98 -4.34 7.96 -4 10 C-4.66 9.67 -5.32 9.34 -6 9 C-6.36521739 3.52173913 -6.36521739 3.52173913 -4.6875 1.125 C-3 0 -3 0 0 0 Z " fill="#462856" transform="translate(69,115)"/>
<path d="M0 0 C7.425 0.99 7.425 0.99 15 2 C15 2.33 15 2.66 15 3 C10.38 3 5.76 3 1 3 C0.67 2.01 0.34 1.02 0 0 Z " fill="#0BA7D4" transform="translate(122,111)"/>
<path d="M0 0 C0.33 0.66 0.66 1.32 1 2 C-1.31 4.64 -3.62 7.28 -6 10 C-6.99 9.67 -7.98 9.34 -9 9 C-6.03 6.03 -3.06 3.06 0 0 Z " fill="#57CFFC" transform="translate(48,41)"/>
<path d="M0 0 C1 4 1 4 1 6 C-0.32 6 -1.64 6 -3 6 C-3.33 7.32 -3.66 8.64 -4 10 C-4.66 9.67 -5.32 9.34 -6 9 C-4.02 6.03 -2.04 3.06 0 0 Z " fill="#0B4DD8" transform="translate(19,40)"/>
<path d="M0 0 C0.66 0 1.32 0 2 0 C0.90931332 3.77545388 0.0916909 6.47043472 -3 9 C-2.67 6.69 -2.34 4.38 -2 2 C-1.34 2 -0.68 2 0 2 C0 1.34 0 0.68 0 0 Z " fill="#0A4FE0" transform="translate(187,144)"/>
<path d="M0 0 C2 0 2 0 4.4375 2.25 C6.47004286 4.4312655 8.28819148 6.56743 10 9 C5.57238086 7.60846256 3.0443745 5.47928514 0 2 C0 1.34 0 0.68 0 0 Z " fill="#134859" transform="translate(62,142)"/>
<path d="M0 0 C2.18975773 3.28463659 2.99806563 6.20696275 4 10 C2.68 10.33 1.36 10.66 0 11 C0 7.37 0 3.74 0 0 Z " fill="#020C2B" transform="translate(4,130)"/>
<path d="M0 0 C0.66 0 1.32 0 2 0 C1.54917531 1.46067199 1.08906463 2.91848032 0.625 4.375 C0.36976563 5.18710938 0.11453125 5.99921875 -0.1484375 6.8359375 C-1 9 -1 9 -3 11 C-3 8.36 -3 5.72 -3 3 C-2.01 3 -1.02 3 0 3 C0 2.01 0 1.02 0 0 Z " fill="#104BD7" transform="translate(192,133)"/>
<path d="M0 0 C0.66 0 1.32 0 2 0 C2 1.65 2 3.3 2 5 C0.68 5.33 -0.64 5.66 -2 6 C-2.33 5.34 -2.66 4.68 -3 4 C-1.625 2 -1.625 2 0 0 Z " fill="#D8358C" transform="translate(135,132)"/>
<path d="M0 0 C0.66 0.66 1.32 1.32 2 2 C1.625 5.125 1.625 5.125 1 8 C0.01 8 -0.98 8 -2 8 C-1.125 1.125 -1.125 1.125 0 0 Z " fill="#047B9C" transform="translate(58,83)"/>
<path d="M0 0 C2.00293347 3.00440021 2.49271626 4.70993945 3.125 8.1875 C3.37636719 9.53908203 3.37636719 9.53908203 3.6328125 10.91796875 C3.75398437 11.60503906 3.87515625 12.29210937 4 13 C2.015625 11.82421875 2.015625 11.82421875 0 10 C-0.390625 7.51953125 -0.390625 7.51953125 -0.25 4.8125 C-0.21390625 3.91144531 -0.1778125 3.01039062 -0.140625 2.08203125 C-0.07101563 1.05142578 -0.07101563 1.05142578 0 0 Z " fill="#0B46C9" transform="translate(195,71)"/>
<path d="M0 0 C1.32 0.99 2.64 1.98 4 3 C3.67 4.32 3.34 5.64 3 7 C1.68 7 0.36 7 -1 7 C-0.67 4.69 -0.34 2.38 0 0 Z " fill="#0A7D9E" transform="translate(79,46)"/>
<path d="M0 0 C0.33 0.66 0.66 1.32 1 2 C1.99 2.33 2.98 2.66 4 3 C2.68 3 1.36 3 0 3 C0 3.66 0 4.32 0 5 C-1.65 5 -3.3 5 -5 5 C-3.35 3.35 -1.7 1.7 0 0 Z " fill="#6E0D45" transform="translate(124,127)"/>
<path d="M0 0 C0.66 0 1.32 0 2 0 C1.34 2.97 0.68 5.94 0 9 C-0.33 8.01 -0.66 7.02 -1 6 C-1.66 5.67 -2.32 5.34 -3 5 C-1.125 1.125 -1.125 1.125 0 0 Z " fill="#0A728D" transform="translate(54,116)"/>
<path d="M0 0 C4.67692308 1.47692308 4.67692308 1.47692308 6.3125 4.125 C6.539375 4.74375 6.76625 5.3625 7 6 C4.36 5.01 1.72 4.02 -1 3 C-0.67 2.01 -0.34 1.02 0 0 Z " fill="#1AA1C8" transform="translate(96,82)"/>
<path d="M0 0 C0.99 0.33 1.98 0.66 3 1 C1.515 4.96 1.515 4.96 0 9 C-0.33 9 -0.66 9 -1 9 C-1.09765625 2.84765625 -1.09765625 2.84765625 -1 1 C-0.67 0.67 -0.34 0.34 0 0 Z " fill="#030E32" transform="translate(5,60)"/>
<path d="M0 0 C0.66 0 1.32 0 2 0 C1.67 1.65 1.34 3.3 1 5 C-0.65 5.33 -2.3 5.66 -4 6 C-4 5.01 -4 4.02 -4 3 C-2.68 3 -1.36 3 0 3 C0 2.01 0 1.02 0 0 Z " fill="#693369" transform="translate(76,56)"/>
<path d="M0 0 C0.66 0 1.32 0 2 0 C1.1875 2.9375 1.1875 2.9375 0 6 C-0.99 6.33 -1.98 6.66 -3 7 C-3.66 6.34 -4.32 5.68 -5 5 C-3.625 3.5 -3.625 3.5 -2 2 C-1.34 2 -0.68 2 0 2 C0 1.34 0 0.68 0 0 Z " fill="#084AD3" transform="translate(32,25)"/>
<path d="M0 0 C-3 2 -3 2 -5 2 C-4.34 3.32 -3.68 4.64 -3 6 C-4.9375 5.1875 -4.9375 5.1875 -7 4 C-7.33 3.01 -7.66 2.02 -8 1 C-5.07175348 0.02391783 -3.04386724 -0.08226668 0 0 Z " fill="#730E4A" transform="translate(80,124)"/>
<path d="M0 0 C0.66 1.32 1.32 2.64 2 4 C0.625 5.5 0.625 5.5 -1 7 C-1.66 7 -2.32 7 -3 7 C-2.625 4.0625 -2.625 4.0625 -2 1 C-1.34 0.67 -0.68 0.34 0 0 Z " fill="#04071F" transform="translate(198,124)"/>
<path d="M0 0 C2.31 0.33 4.62 0.66 7 1 C7 1.99 7 2.98 7 4 C4.69 3.34 2.38 2.68 0 2 C0 1.34 0 0.68 0 0 Z " fill="#E5E9EA" transform="translate(78,102)"/>
<path d="M0 0 C0.99 0.33 1.98 0.66 3 1 C1.02 3.31 -0.96 5.62 -3 8 C-3.33 6.68 -3.66 5.36 -4 4 C-2.68 3.34 -1.36 2.68 0 2 C0 1.34 0 0.68 0 0 Z " fill="#020823" transform="translate(22,33)"/>
<path d="M0 0 C1.65 0 3.3 0 5 0 C5.33 0.66 5.66 1.32 6 2 C5.67 2.66 5.34 3.32 5 4 C5.66 4 6.32 4 7 4 C6.67 4.99 6.34 5.98 6 7 C4.02 4.69 2.04 2.38 0 0 Z " fill="#020621" transform="translate(170,28)"/>
<path d="M0 0 C6.75 2.75 6.75 2.75 9 5 C6.36 5 3.72 5 1 5 C1.66 4.67 2.32 4.34 3 4 C3 3.34 3 2.68 3 2 C2.01 2 1.02 2 0 2 C0 1.34 0 0.68 0 0 Z " fill="#0A4DDC" transform="translate(140,8)"/>
<path d="M0 0 C2.64752004 2.57784846 4.94432065 4.91648098 7 8 C5.02 7.34 3.04 6.68 1 6 C0.67 4.02 0.34 2.04 0 0 Z " fill="#020C2C" transform="translate(16,156)"/>
<path d="M0 0 C0.99 0.99 1.98 1.98 3 3 C2.34 4.65 1.68 6.3 1 8 C0.34 7.67 -0.32 7.34 -1 7 C-0.34 5.35 0.32 3.7 1 2 C0.34 2 -0.32 2 -1 2 C-1.33 2.66 -1.66 3.32 -2 4 C-2 3.01 -2 2.02 -2 1 C-1.34 0.67 -0.68 0.34 0 0 Z " fill="#E53194" transform="translate(68,117)"/>
<path d="M0 0 C0.78375 0.185625 1.5675 0.37125 2.375 0.5625 C4.97089775 1.25962266 4.97089775 1.25962266 7 0 C7.33 1.65 7.66 3.3 8 5 C4.62496331 3.8141763 2.35277269 2.72426311 0 0 Z " fill="#0B4DD6" transform="translate(39,179)"/>
<path d="M0 0 C0.33 0.66 0.66 1.32 1 2 C-0.65 3.65 -2.3 5.3 -4 7 C-4.99 6.34 -5.98 5.68 -7 5 C-6.030625 4.360625 -5.06125 3.72125 -4.0625 3.0625 C-1.23963731 1.3034741 -1.23963731 1.3034741 0 0 Z " fill="#5DD0E5" transform="translate(128,148)"/>
<path d="M0 0 C0.66 1.32 1.32 2.64 2 4 C1.01 4.33 0.02 4.66 -1 5 C-1 5.66 -1 6.32 -1 7 C-2.32 7.33 -3.64 7.66 -5 8 C-3.35 5.36 -1.7 2.72 0 0 Z " fill="#5FD2E8" transform="translate(134,140)"/>
<path d="M0 0 C-0.33 0.99 -0.66 1.98 -1 3 C-3.31 3 -5.62 3 -8 3 C-8 2.34 -8 1.68 -8 1 C-2.25 0 -2.25 0 0 0 Z " fill="#EC61AA" transform="translate(122,127)"/>
</svg>
