<svg xmlns="http://www.w3.org/2000/svg" fill="none" viewBox="0.72 1.51 39.29 27.66"><path fill="#000" d="M22.462 16.524c2.564 0 5.05.908 6.945 2.688l10.612 9.959H34.93l-8.047-7.549c-1.183-1.107-2.762-1.699-4.419-1.699s-3.235.592-4.419 1.7L9.998 29.17H4.909l10.613-9.959c1.894-1.778 4.379-2.688 6.944-2.688zm0-2.37c-2.564 0-5.05-.908-6.944-2.687L4.907 1.506h5.089l8.047 7.548c1.184 1.107 2.762 1.7 4.42 1.7 1.656 0 3.235-.593 4.418-1.7l8.047-7.548h5.09l-10.614 9.959c-1.893 1.777-4.378 2.688-6.944 2.688l.002.002Zm-8.877 1.186L2.5 24.747c-.827.75-1.774.395-1.774-.712V6.644c0-1.106.947-1.46 1.774-.71l11.086 9.404v.003Z"/></svg>