<svg xmlns="http://www.w3.org/2000/svg" viewBox="86.89 80.73 850.93 848.5"><defs><linearGradient id="a" x1="86.89" x2="937.82" y1="504.98" y2="504.98" data-name="未命名的渐变 38" gradientUnits="userSpaceOnUse"><stop offset="0" stop-color="#745236"/><stop offset="1" stop-color="#fbc481"/></linearGradient></defs><g data-name="图层_1"><path d="M510.63 450.2c35.68 0 64.6 28.92 64.6 64.6s-28.92 64.6-64.6 64.6-64.6-28.92-64.6-64.6 28.92-64.6 64.6-64.6m-223.25-304s81.75-56.85 200.45-64.6c135.51-8.85 314.18 48.77 396.15 226.1s-24.15 360.12-148.2 424.65c-81.5 42.39-178.6 39.9-178.6 39.9s159.4-24.57 209-170.05c62.08-182.08-24.15-324.77-113.79-402.25C491.08 60.51 287.38 146.2 287.38 146.2m28.16 735.33s-90.11-42.37-156.17-141.3C83.95 627.3 44.52 443.76 157.1 284.1c112.58-159.65 323.95-159.14 441.86-83.98 77.46 49.38 123.85 134.72 123.85 134.72s-100.98-125.76-251.77-95.97c-188.73 37.28-269.18 183.3-291.46 299.67-40.1 209.41 135.96 342.98 135.96 342.98Zm621.79-389.9s8.36 99.22-44.28 205.9c-60.09 121.78-199.33 247.7-393.88 230.03s-299.8-200.98-293.66-340.67c4.03-91.77 54.75-174.62 54.75-174.62s-58.42 150.32 42.77 266.02C429.68 823.1 596.37 819.76 708.28 780.87c201.41-69.98 229.06-289.24 229.06-289.24Z" data-name="形状_1_拷贝_2" style="fill:url(#a);fill-rule:evenodd"/></g></svg>