<?xml version="1.0" encoding="utf-8"?>
<!-- Generator: Adobe Illustrator 24.1.0, SVG Export Plug-In . SVG Version: 6.00 Build 0)  -->
<svg version="1.1" id="图层_1" xmlns="http://www.w3.org/2000/svg" xmlns:xlink="http://www.w3.org/1999/xlink" x="0px" y="0px"
	 viewBox="0 0 245.8 245.8" style="enable-background:new 0 0 245.8 245.8;" xml:space="preserve">
<style type="text/css">
	.st0{fill-rule:evenodd;clip-rule:evenodd;fill:url(#SVGID_1_);}
</style>
<g id="图层_2_图像">
	
		<image style="overflow:visible;enable-background:new    ;" width="1024" height="1024" id="图层_2_图像-2" xlink:href="B38606A4.png"  transform="matrix(0.24 0 0 0.24 0 0)">
	</image>
</g>
<linearGradient id="SVGID_1_" gradientUnits="userSpaceOnUse" x1="13.5943" y1="122.64" x2="228.5657" y2="122.64">
	<stop  offset="0" style="stop-color:#53462F"/>
	<stop  offset="1" style="stop-color:#D2BB79"/>
</linearGradient>
<path class="st0" d="M120.6,108.8c9,0,16.3,7.3,16.3,16.3s-7.3,16.3-16.3,16.3s-16.3-7.3-16.3-16.3S111.6,108.8,120.6,108.8z
	 M64.2,32c0,0,20.7-14.4,50.6-16.3C149.1,13.4,194.3,28,215,72.8s-6.1,91-37.4,107.3c-20.6,10.7-45.1,10.1-45.1,10.1
	s40.3-6.2,52.8-43c15.7-46-6.1-82-28.7-101.6C115.7,10.4,64.2,32,64.2,32z M71.4,217.8c0,0-22.8-10.7-39.5-35.7
	c-19.1-28.5-29-74.9-0.6-115.2C59.8,26.5,113.2,26.6,143,45.6c19.6,12.5,31.3,34,31.3,34s-25.5-31.8-63.6-24.2
	c-47.7,9.4-68,46.3-73.6,75.7C26.9,184,71.4,217.8,71.4,217.8z M228.4,119.3c0,0,2.1,25.1-11.2,52c-15.2,30.8-50.4,62.6-99.5,58.1
	S42,178.6,43.6,143.3c1-23.2,13.8-44.1,13.8-44.1s-14.8,38,10.8,67.2c32,36.6,74.1,35.7,102.4,25.9
	C221.5,174.7,228.4,119.3,228.4,119.3z"/>
</svg>
