<svg xmlns="http://www.w3.org/2000/svg" xmlns:xlink="http://www.w3.org/1999/xlink" xml:space="preserve" style="enable-background:new 0 0 245.8 245.8" viewBox="0 0 245.8 245.8"><image xlink:href="B38606A4.png" width="1024" height="1024" style="overflow:visible;enable-background:new" transform="scale(.24)"/><linearGradient id="a" x1="13.594" x2="228.566" y1="122.64" y2="122.64" gradientUnits="userSpaceOnUse"><stop offset="0" style="stop-color:#53462f"/><stop offset="1" style="stop-color:#d2bb79"/></linearGradient><path d="M120.6 108.8c9 0 16.3 7.3 16.3 16.3s-7.3 16.3-16.3 16.3-16.3-7.3-16.3-16.3 7.3-16.3 16.3-16.3zM64.2 32s20.7-14.4 50.6-16.3C149.1 13.4 194.3 28 215 72.8s-6.1 91-37.4 107.3c-20.6 10.7-45.1 10.1-45.1 10.1s40.3-6.2 52.8-43c15.7-46-6.1-82-28.7-101.6C115.7 10.4 64.2 32 64.2 32zm7.2 185.8s-22.8-10.7-39.5-35.7c-19.1-28.5-29-74.9-.6-115.2C59.8 26.5 113.2 26.6 143 45.6c19.6 12.5 31.3 34 31.3 34s-25.5-31.8-63.6-24.2c-47.7 9.4-68 46.3-73.6 75.7-10.2 52.9 34.3 86.7 34.3 86.7zm157-98.5s2.1 25.1-11.2 52c-15.2 30.8-50.4 62.6-99.5 58.1S42 178.6 43.6 143.3c1-23.2 13.8-44.1 13.8-44.1s-14.8 38 10.8 67.2c32 36.6 74.1 35.7 102.4 25.9 50.9-17.6 57.8-73 57.8-73z" style="fill-rule:evenodd;clip-rule:evenodd;fill:url(#a)"/></svg>