<svg xmlns="http://www.w3.org/2000/svg" width="540" height="540" fill="none" viewBox="0 0 540 540"><path fill="#FF0001" d="M377.972 107.647C430.393 142.476 465 202.309 465 270.289 465 377.815 378.434 465 271.63 465c-18.054 0-35.515-2.499-52.087-7.16v-80.752a154.4 154.4 0 0 0 56.733 14.825V177.157l73.289 41.467v160.265c54.803-24.397 93.048-79.613 93.048-143.839h.019c0-52.412-25.497-98.838-64.66-127.403"/><path fill="#FF0001" d="M268.37 75c18.054 0 35.516 2.499 52.088 7.16v80.751a154.5 154.5 0 0 0-56.754-14.827v214.76l-73.289-41.467V161.118c-54.792 24.401-93.028 79.613-93.028 143.832h-.019c0 52.411 25.498 98.837 64.66 127.402C109.608 397.523 75 337.691 75 269.711 75 162.185 161.584 75.001 268.37 75"/></svg>