<svg width="45" height="45" viewBox="0 0 45 45" fill="none" xmlns="http://www.w3.org/2000/svg">
<path fill-rule="evenodd" clip-rule="evenodd" d="M44.4658 22.5C44.4658 34.7789 34.5118 44.7329 22.2329 44.7329C9.954 44.7329 0 34.7789 0 22.5C0 10.2211 9.954 0.26709 22.2329 0.26709C34.5118 0.26709 44.4658 10.2211 44.4658 22.5ZM27.9928 19.2865L31.3326 25.201H31.3219L31.3732 25.2908L32.9372 24.3664L27.0574 13.9396L27.0578 13.9393C26.2148 12.4431 23.0719 6.86596 23.0655 6.86158C23.0136 6.76815 22.9401 6.68918 22.8515 6.63157C22.7576 6.57703 22.6514 6.54835 22.5434 6.54833C22.435 6.54754 22.3285 6.57708 22.2353 6.63376C22.1465 6.68636 22.0727 6.76189 22.0214 6.85282L18.4698 13.1332L20.9238 14.5855C21.4126 14.8762 21.8067 15.3081 22.0568 15.8272C22.3069 16.3462 22.4017 16.9293 22.3295 17.5033C22.2783 17.8836 22.1563 18.2502 21.97 18.5833C21.8846 18.7312 21.7888 18.8725 21.6833 19.0061C21.5789 19.1345 21.4636 19.2532 21.3389 19.361C21.2131 19.4695 21.0785 19.567 20.9366 19.6523C20.7931 19.738 20.6428 19.8113 20.4873 19.8713L15.7376 21.6698L19.0774 15.7553V15.7487L19.1266 15.6589L17.5626 14.7345L11.6789 25.1681L21.1163 21.5975C21.6232 21.4046 22.0943 21.1246 22.5092 20.7695C22.7149 20.5892 22.9059 20.3921 23.0804 20.1802C23.2517 19.9695 23.4056 19.7446 23.5404 19.5077C24.158 18.4102 24.3247 17.1065 24.0037 15.8832C23.6827 14.6599 22.9004 13.6171 21.8288 12.9842L20.9259 12.4519L22.5349 9.60417L25.496 14.8615L27.0519 13.9428L25.3697 24.0948C25.2756 24.6396 25.2756 25.1972 25.3697 25.7421C25.4176 26.0146 25.4892 26.2822 25.5837 26.5416C25.6736 26.8001 25.7867 27.0494 25.9217 27.2864C26.227 27.8294 26.6338 28.3055 27.1188 28.6874C27.6038 29.0694 28.1576 29.3498 28.7485 29.5125C29.3395 29.6752 29.9559 29.7172 30.5626 29.6359C31.1694 29.5546 31.7545 29.3518 32.2847 29.0389L33.1875 28.5044L34.7965 31.3521H28.8721V33.19L21.1335 26.6052C20.926 26.4282 20.7041 26.2699 20.4702 26.132C19.7659 25.7175 18.9676 25.4999 18.1552 25.5011C16.9218 25.5005 15.7385 26.0009 14.8649 26.8924C13.9913 27.784 13.4988 28.9939 13.4954 30.2568V31.3521H10.2861L13.2493 26.0947L11.6875 25.1725C11.532 25.4481 11.2981 25.8625 11.02 26.3552C9.79052 28.5337 7.69725 32.2427 7.69725 32.248C7.64406 32.3435 7.61604 32.4514 7.61595 32.5613C7.61597 32.6719 7.64398 32.7806 7.69725 32.8767C7.75137 32.9709 7.82862 33.049 7.92133 33.1032C8.01403 33.1574 8.11897 33.1858 8.22572 33.1856H15.3011V30.2765C15.3003 29.8927 15.3734 29.5125 15.5162 29.1576C15.659 28.8027 15.8687 28.4801 16.1334 28.2083C16.3981 27.9365 16.7125 27.7208 17.0587 27.5735C17.4049 27.4262 17.7761 27.3502 18.151 27.3499C18.3187 27.3504 18.4862 27.365 18.6516 27.3938C18.8128 27.4209 18.9711 27.4634 19.1245 27.5208C19.436 27.6349 19.7256 27.8039 19.9803 28.0203L23.8806 31.339H17.2117H17.1047V33.19H28.8721V33.1987H36.8504C36.9575 33.1994 37.063 33.1715 37.1564 33.1177C37.2493 33.0617 37.3266 32.9821 37.3806 32.8865C37.4345 32.7909 37.4635 32.6827 37.4645 32.5723C37.4639 32.4622 37.4351 32.3541 37.381 32.259L33.8422 25.9808L31.3861 27.431C30.7297 27.8184 29.95 27.9232 29.2183 27.7223C28.4866 27.5215 27.8626 27.0314 27.4836 26.3598C27.3977 26.2125 27.326 26.057 27.2696 25.8954C27.2125 25.7382 27.1688 25.5762 27.1391 25.4113C27.1099 25.2458 27.0956 25.0779 27.0963 24.9097C27.0949 24.7401 27.1085 24.5707 27.137 24.4036L27.9928 19.2865ZM27.0519 13.9428L27.0535 13.9327L27.0574 13.9396L27.0519 13.9428Z" fill="white"/>
</svg>
