<svg xmlns="http://www.w3.org/2000/svg" width="200" height="200"><path fill="#F7931A" d="m143 9 3.238 1.559C154.001 14.509 160.551 19.16 167 25l2.777 2.492c18.269 17.27 29.581 41.91 30.426 67.102.403 25.336-6.286 49.97-23.203 69.406l-2.086 2.484c-16.97 19.65-41.677 31.608-67.489 33.727-27.908 1.489-53.863-6.974-74.978-25.58-17.584-16.05-31.179-39.381-32.624-63.597C-.804 79.173 5.139 54.177 27 30 56.932-.765 104.068-9.862 143 9"/><path fill="#0EBED6" d="M73 39h45v5h5v8h12v8h4v4h9v29h4v5h4v33h-4v4h-9v8h-20v13h-5v4H73v-17H44v-24h4v-5h12V81H48v-4h-4V56h4v-4h25z"/><path fill="#2B3D93" d="M73 39h45v5h5v8h12v8h4v4h9v29h4v5h4v33h-4v4h-9v8h-20v13h-5v4H73v-17H44v-24h4v-5h12V81H48v-4h-4V56h4v-4h25zm8 9v12H52v13h17v50H52v12h29v17h8v-17h13v17h12v-17h21v-8h13v-25h-21v-8h12V73h-12V60h-13V48h-12v12H89V48z"/><path fill="#68DEF9" d="M81 48h8v12h13V48h12v12h13v13h12v21h-12v4H69V73H52V60h29z"/><path fill="#2A3F94" d="M89 102h34v21H89z"/><path fill="#2E4396" d="M89 73h30v21H89z"/><path fill="#FFF" d="M73 35h46v4h4v4h4v5h8v4h-12v-8h-5v-5H73zm45 121h5v4h-4v4H73v-4h45z"/><path fill="#FEFBF6" d="M143 135h9v4h-4v5h-4v4h-17v8h-4v-13h20z"/><path fill="#FFF" d="M48 81h12v33H48v-4h8V85h-8z"/><path fill="#F0EEF0" d="M44 143h29v17h-4v-12H44z"/><path fill="#F3F0F0" d="M39 52h9v4h-4v21h4v4h-9z"/><path fill="#DDD1CC" d="M43 114h5v5h-4v24h-5v-25h4z"/><path fill="#FCFCFC" d="M69 39h4v13H48v-4h21z"/><path fill="#FFF" d="M156 98h4v33h-4z"/><path fill="#FEFEFD" d="M148 64h4v29h-4z"/><path fill="#FFF" d="M40 119h3v24h-3zm58-9h16v4H98zm25-66h4v4h8v4h-12z"/><path fill="#FEFCFA" d="M144 135h8v4h-4v4h-4z"/><path fill="#FFF" d="M98 81h12v4H98z"/><path fill="#C0B6BD" d="M143 135h1v8l4 1h-4l-1 4v-4h-20v-1h20z"/><path fill="#FEFAF5" d="M139 60h9v4h-9z"/><path fill="#E6D3C1" d="m118 35 1 4h4v4l4 1h-9z"/><path fill="#FFF" d="M135 52h4v8h-4z"/><path fill="#F0E3D6" d="M118 156h5v4h-4l-1 4z"/></svg>