<?xml version="1.0" encoding="UTF-8"?>
<svg version="1.1" xmlns="http://www.w3.org/2000/svg" width="200" height="200">
<path d="M0 0 C1.60294922 0.77150391 1.60294922 0.77150391 3.23828125 1.55859375 C11.00108392 5.50840991 17.5511048 10.16126228 24 16 C24.91652344 16.82242187 25.83304688 17.64484375 26.77734375 18.4921875 C45.04591612 35.76149715 56.35813663 60.40155003 57.203125 85.59375 C57.60646803 110.92985818 50.91660307 135.56390286 34 155 C33.31164062 155.81984375 32.62328125 156.6396875 31.9140625 157.484375 C14.94332709 177.13470022 -9.76291466 189.09185322 -35.57470703 191.21142578 C-63.48299892 192.69993915 -89.43767186 184.2369948 -110.55273438 165.63183594 C-128.1373299 149.58065244 -141.73181075 126.24960408 -143.17700195 102.03417969 C-143.80433312 70.1727546 -137.86141254 45.17738883 -116 21 C-86.06806478 -9.76466293 -38.93159566 -18.86159628 0 0 Z " fill="#F7931A" transform="translate(143,9)"/>
<path d="M0 0 C14.85 0 29.7 0 45 0 C45 1.65 45 3.3 45 5 C46.65 5 48.3 5 50 5 C50 7.64 50 10.28 50 13 C53.96 13 57.92 13 62 13 C62 15.64 62 18.28 62 21 C63.32 21 64.64 21 66 21 C66 22.32 66 23.64 66 25 C68.97 25 71.94 25 75 25 C75 34.57 75 44.14 75 54 C76.32 54 77.64 54 79 54 C79 55.65 79 57.3 79 59 C80.32 59 81.64 59 83 59 C83 69.89 83 80.78 83 92 C81.68 92 80.36 92 79 92 C79 93.32 79 94.64 79 96 C76.03 96 73.06 96 70 96 C70 98.64 70 101.28 70 104 C63.4 104 56.8 104 50 104 C50 108.29 50 112.58 50 117 C48.35 117 46.7 117 45 117 C45 118.32 45 119.64 45 121 C30.15 121 15.3 121 0 121 C0 115.39 0 109.78 0 104 C-9.57 104 -19.14 104 -29 104 C-29 96.08 -29 88.16 -29 80 C-27.68 80 -26.36 80 -25 80 C-25 78.35 -25 76.7 -25 75 C-21.04 75 -17.08 75 -13 75 C-13 64.11 -13 53.22 -13 42 C-16.96 42 -20.92 42 -25 42 C-25 40.68 -25 39.36 -25 38 C-26.32 38 -27.64 38 -29 38 C-29 31.07 -29 24.14 -29 17 C-27.68 17 -26.36 17 -25 17 C-25 15.68 -25 14.36 -25 13 C-16.75 13 -8.5 13 0 13 C0 8.71 0 4.42 0 0 Z " fill="#0EBED6" transform="translate(73,39)"/>
<path d="M0 0 C14.85 0 29.7 0 45 0 C45 1.65 45 3.3 45 5 C46.65 5 48.3 5 50 5 C50 7.64 50 10.28 50 13 C53.96 13 57.92 13 62 13 C62 15.64 62 18.28 62 21 C63.32 21 64.64 21 66 21 C66 22.32 66 23.64 66 25 C68.97 25 71.94 25 75 25 C75 34.57 75 44.14 75 54 C76.32 54 77.64 54 79 54 C79 55.65 79 57.3 79 59 C80.32 59 81.64 59 83 59 C83 69.89 83 80.78 83 92 C81.68 92 80.36 92 79 92 C79 93.32 79 94.64 79 96 C76.03 96 73.06 96 70 96 C70 98.64 70 101.28 70 104 C63.4 104 56.8 104 50 104 C50 108.29 50 112.58 50 117 C48.35 117 46.7 117 45 117 C45 118.32 45 119.64 45 121 C30.15 121 15.3 121 0 121 C0 115.39 0 109.78 0 104 C-9.57 104 -19.14 104 -29 104 C-29 96.08 -29 88.16 -29 80 C-27.68 80 -26.36 80 -25 80 C-25 78.35 -25 76.7 -25 75 C-21.04 75 -17.08 75 -13 75 C-13 64.11 -13 53.22 -13 42 C-16.96 42 -20.92 42 -25 42 C-25 40.68 -25 39.36 -25 38 C-26.32 38 -27.64 38 -29 38 C-29 31.07 -29 24.14 -29 17 C-27.68 17 -26.36 17 -25 17 C-25 15.68 -25 14.36 -25 13 C-16.75 13 -8.5 13 0 13 C0 8.71 0 4.42 0 0 Z M8 9 C8 12.96 8 16.92 8 21 C-1.57 21 -11.14 21 -21 21 C-21 25.29 -21 29.58 -21 34 C-15.39 34 -9.78 34 -4 34 C-4 50.5 -4 67 -4 84 C-9.61 84 -15.22 84 -21 84 C-21 87.96 -21 91.92 -21 96 C-11.43 96 -1.86 96 8 96 C8 101.61 8 107.22 8 113 C10.64 113 13.28 113 16 113 C16 107.39 16 101.78 16 96 C20.29 96 24.58 96 29 96 C29 101.61 29 107.22 29 113 C32.96 113 36.92 113 41 113 C41 107.39 41 101.78 41 96 C47.93 96 54.86 96 62 96 C62 93.36 62 90.72 62 88 C66.29 88 70.58 88 75 88 C75 79.75 75 71.5 75 63 C68.07 63 61.14 63 54 63 C54 60.36 54 57.72 54 55 C57.96 55 61.92 55 66 55 C66 48.07 66 41.14 66 34 C62.04 34 58.08 34 54 34 C54 29.71 54 25.42 54 21 C49.71 21 45.42 21 41 21 C41 17.04 41 13.08 41 9 C37.04 9 33.08 9 29 9 C29 12.96 29 16.92 29 21 C24.71 21 20.42 21 16 21 C16 17.04 16 13.08 16 9 C13.36 9 10.72 9 8 9 Z " fill="#2B3D93" transform="translate(73,39)"/>
<path d="M0 0 C2.64 0 5.28 0 8 0 C8 3.96 8 7.92 8 12 C12.29 12 16.58 12 21 12 C21 8.04 21 4.08 21 0 C24.96 0 28.92 0 33 0 C33 3.96 33 7.92 33 12 C37.29 12 41.58 12 46 12 C46 16.29 46 20.58 46 25 C49.96 25 53.92 25 58 25 C58 31.93 58 38.86 58 46 C54.04 46 50.08 46 46 46 C46 47.32 46 48.64 46 50 C26.86 50 7.72 50 -12 50 C-12 41.75 -12 33.5 -12 25 C-17.61 25 -23.22 25 -29 25 C-29 20.71 -29 16.42 -29 12 C-19.43 12 -9.86 12 0 12 C0 8.04 0 4.08 0 0 Z " fill="#68DEF9" transform="translate(81,48)"/>
<path d="M0 0 C11.22 0 22.44 0 34 0 C34 6.93 34 13.86 34 21 C22.78 21 11.56 21 0 21 C0 14.07 0 7.14 0 0 Z " fill="#2A3F94" transform="translate(89,102)"/>
<path d="M0 0 C9.9 0 19.8 0 30 0 C30 6.93 30 13.86 30 21 C20.1 21 10.2 21 0 21 C0 14.07 0 7.14 0 0 Z " fill="#2E4396" transform="translate(89,73)"/>
<path d="M0 0 C15.18 0 30.36 0 46 0 C46 1.32 46 2.64 46 4 C47.32 4 48.64 4 50 4 C50 5.32 50 6.64 50 8 C51.32 8 52.64 8 54 8 C54 9.65 54 11.3 54 13 C56.64 13 59.28 13 62 13 C62 14.32 62 15.64 62 17 C58.04 17 54.08 17 50 17 C50 14.36 50 11.72 50 9 C48.35 9 46.7 9 45 9 C45 7.35 45 5.7 45 4 C30.15 4 15.3 4 0 4 C0 2.68 0 1.36 0 0 Z " fill="#FFFFFF" transform="translate(73,35)"/>
<path d="M0 0 C1.65 0 3.3 0 5 0 C5 1.32 5 2.64 5 4 C3.68 4 2.36 4 1 4 C1 5.32 1 6.64 1 8 C-14.18 8 -29.36 8 -45 8 C-45 6.68 -45 5.36 -45 4 C-30.15 4 -15.3 4 0 4 C0 2.68 0 1.36 0 0 Z " fill="#FFFFFF" transform="translate(118,156)"/>
<path d="M0 0 C2.97 0 5.94 0 9 0 C9 1.32 9 2.64 9 4 C7.68 4 6.36 4 5 4 C5 5.65 5 7.3 5 9 C3.68 9 2.36 9 1 9 C1 10.32 1 11.64 1 13 C-4.61 13 -10.22 13 -16 13 C-16 15.64 -16 18.28 -16 21 C-17.32 21 -18.64 21 -20 21 C-20 16.71 -20 12.42 -20 8 C-13.4 8 -6.8 8 0 8 C0 5.36 0 2.72 0 0 Z " fill="#FEFBF6" transform="translate(143,135)"/>
<path d="M0 0 C3.96 0 7.92 0 12 0 C12 10.89 12 21.78 12 33 C8.04 33 4.08 33 0 33 C0 31.68 0 30.36 0 29 C2.64 29 5.28 29 8 29 C8 20.75 8 12.5 8 4 C5.36 4 2.72 4 0 4 C0 2.68 0 1.36 0 0 Z " fill="#FFFFFF" transform="translate(48,81)"/>
<path d="M0 0 C9.57 0 19.14 0 29 0 C29 5.61 29 11.22 29 17 C27.68 17 26.36 17 25 17 C25 13.04 25 9.08 25 5 C16.75 5 8.5 5 0 5 C0 3.35 0 1.7 0 0 Z " fill="#F0EEF0" transform="translate(44,143)"/>
<path d="M0 0 C2.97 0 5.94 0 9 0 C9 1.32 9 2.64 9 4 C7.68 4 6.36 4 5 4 C5 10.93 5 17.86 5 25 C6.32 25 7.64 25 9 25 C9 26.32 9 27.64 9 29 C6.03 29 3.06 29 0 29 C0 19.43 0 9.86 0 0 Z " fill="#F3F0F0" transform="translate(39,52)"/>
<path d="M0 0 C1.65 0 3.3 0 5 0 C5 1.65 5 3.3 5 5 C3.68 5 2.36 5 1 5 C1 12.92 1 20.84 1 29 C-0.65 29 -2.3 29 -4 29 C-4 20.75 -4 12.5 -4 4 C-2.68 4 -1.36 4 0 4 C0 2.68 0 1.36 0 0 Z " fill="#DDD1CC" transform="translate(43,114)"/>
<path d="M0 0 C1.32 0 2.64 0 4 0 C4 4.29 4 8.58 4 13 C-4.25 13 -12.5 13 -21 13 C-21 11.68 -21 10.36 -21 9 C-14.07 9 -7.14 9 0 9 C0 6.03 0 3.06 0 0 Z " fill="#FCFCFC" transform="translate(69,39)"/>
<path d="M0 0 C1.32 0 2.64 0 4 0 C4 10.89 4 21.78 4 33 C2.68 33 1.36 33 0 33 C0 22.11 0 11.22 0 0 Z " fill="#FFFFFF" transform="translate(156,98)"/>
<path d="M0 0 C1.32 0 2.64 0 4 0 C4 9.57 4 19.14 4 29 C2.68 29 1.36 29 0 29 C0 19.43 0 9.86 0 0 Z " fill="#FEFEFD" transform="translate(148,64)"/>
<path d="M0 0 C0.99 0 1.98 0 3 0 C3 7.92 3 15.84 3 24 C2.01 24 1.02 24 0 24 C0 16.08 0 8.16 0 0 Z " fill="#FFFFFF" transform="translate(40,119)"/>
<path d="M0 0 C5.28 0 10.56 0 16 0 C16 1.32 16 2.64 16 4 C10.72 4 5.44 4 0 4 C0 2.68 0 1.36 0 0 Z " fill="#FFFFFF" transform="translate(98,110)"/>
<path d="M0 0 C1.32 0 2.64 0 4 0 C4 1.32 4 2.64 4 4 C6.64 4 9.28 4 12 4 C12 5.32 12 6.64 12 8 C8.04 8 4.08 8 0 8 C0 5.36 0 2.72 0 0 Z " fill="#FFFFFF" transform="translate(123,44)"/>
<path d="M0 0 C2.64 0 5.28 0 8 0 C8 1.32 8 2.64 8 4 C6.68 4 5.36 4 4 4 C4 5.32 4 6.64 4 8 C2.68 8 1.36 8 0 8 C0 5.36 0 2.72 0 0 Z " fill="#FEFCFA" transform="translate(144,135)"/>
<path d="M0 0 C3.96 0 7.92 0 12 0 C12 1.32 12 2.64 12 4 C8.04 4 4.08 4 0 4 C0 2.68 0 1.36 0 0 Z " fill="#FFFFFF" transform="translate(98,81)"/>
<path d="M0 0 C0.33 0 0.66 0 1 0 C1 2.64 1 5.28 1 8 C2.32 8.33 3.64 8.66 5 9 C3.68 9 2.36 9 1 9 C0.67 10.32 0.34 11.64 0 13 C0 11.68 0 10.36 0 9 C-6.6 9 -13.2 9 -20 9 C-20 8.67 -20 8.34 -20 8 C-13.4 8 -6.8 8 0 8 C0 5.36 0 2.72 0 0 Z " fill="#C0B6BD" transform="translate(143,135)"/>
<path d="M0 0 C2.97 0 5.94 0 9 0 C9 1.32 9 2.64 9 4 C6.03 4 3.06 4 0 4 C0 2.68 0 1.36 0 0 Z " fill="#FEFAF5" transform="translate(139,60)"/>
<path d="M0 0 C0.33 1.32 0.66 2.64 1 4 C2.32 4 3.64 4 5 4 C5 5.32 5 6.64 5 8 C6.32 8.33 7.64 8.66 9 9 C6.03 9 3.06 9 0 9 C0 6.03 0 3.06 0 0 Z " fill="#E6D3C1" transform="translate(118,35)"/>
<path d="M0 0 C1.32 0 2.64 0 4 0 C4 2.64 4 5.28 4 8 C2.68 8 1.36 8 0 8 C0 5.36 0 2.72 0 0 Z " fill="#FFFFFF" transform="translate(135,52)"/>
<path d="M0 0 C1.65 0 3.3 0 5 0 C5 1.32 5 2.64 5 4 C3.68 4 2.36 4 1 4 C0.67 5.32 0.34 6.64 0 8 C0 5.36 0 2.72 0 0 Z " fill="#F0E3D6" transform="translate(118,156)"/>
</svg>
