<svg xmlns="http://www.w3.org/2000/svg" fill="none" class="logo" viewBox="0 0 57.6 32"><path fill="#5e0a60" d="M4 .1 0 0l.2 6.4.4 6.4c.1 1.6.1 4.8 0 6.4l-.4 6.4L0 32l4-.1 7-.1 7.2.2-.8-.8-6-5.2-5.9-6.3L2.1 16l3.4-3.7c1.5-1.5 4.4-4.7 6-6.2C12.8 4.7 17.3.8 17.3.8l.8-.8.2 8.5.4 7.5-.4 7.5-.2 8.5.9-1a100 100 0 0 1 8-8.1l1.8-1.6-1.7-1.6-3.6-3.7 3.6-3.7 1.7-1.6L27.2 9l-3.5-3.2-3.4-3.6-2-2.2-7.2.2H3.9Z" class="logo-shape1"/><path fill="#5e0a60" d="m53.6 31.9 4 .1-.3-6.4-.4-6.4v-6.4l.4-6.4.2-6.4-3.9.1-7.1.1-7.2-.2.9.8S44.7 4.6 46 6c1.6 1.5 4.5 4.7 6 6.3l3.3 3.7-3.4 3.7-5.9 6.2c-1.4 1.4-6 5.3-6 5.3l-.8.8s0-5.9-.2-8.5l-.3-7.5.3-7.5.2-8.5a432 432 0 0 1-5.5 5.8l-3.4 3.3-1.8 1.6 1.8 1.6L34 16l-3.6 3.7-1.8 1.6 1.8 1.7 3.4 3.2 3.4 3.6 2.1 2.2 7.2-.2h7.1Z" class="logo-shape2"/></svg>