<svg xmlns="http://www.w3.org/2000/svg" width="513" height="513" fill="none" viewBox="0 0 513 513"><circle cx="256.5" cy="256.688" r="256" fill="#5F5DF8"/><path fill="url(#a)" d="M188.487 86.613c29.553-6.533 58.912-8.657 88.78-7.711 41.774-.156 85.332 11.92 116.307 41.142 21.67 21.452 37.661 49.991 40.327 80.647-.438 17.904-.328 35.25.529 52.99.174 14.377.193 29.758-2.035 44.339-1.538 11.788-4.975 24.376-8.037 35.862-16.762 72.394-76.05 94.142-143.582 98.692-14.532.673-29.266.582-43.774 1.279-11.83.421-23.909 1.441-35.9.34-30.512-4.253-59.417-18.838-80.922-40.96l-.004.003c-16.855-17.728-27.142-41.075-33.632-64.36-4.443-17.223-5.314-34.84-6.88-52.383-.96-14.488-1.62-29.558-.777-44.109.677-15.274 3.791-29.867 7.052-45.184 6.343-31.389 22.252-61.456 49.278-79.77 15.898-10.906 34.602-16.912 53.27-20.817m211.028 84.662c-4.599 11.286-11.804 21.148-18.874 31.098-14.433 21.904-21.823 47.012-33.882 70.312-7.033 16.245-14.472 33.35-27.796 45.435-12.8 12.713-31.151 18.681-47.658 25.086-16.059 7.024-31.364 14.612-46.069 23.753-15.158 8.689-28.036 20.631-43.884 28.7a95 95 0 0 1-7.803 3.395 207 207 0 0 0 32.366 16.379c10.058 4.021 20.506 9.002 31.477 10.372 22.182 3.046 44.488-4.491 63.602-15.293 31.274-19.063 51.686-50.363 79.445-73.623 7.782-7.026 15.629-14.625 21.95-23.086 15.334-22.401 26.386-49.605 25.185-77.191-.153-11.283-5.164-21.907-10.09-31.714-5.436-11.558-11.3-22.884-17.969-33.623m-25.156-32.538c-17.135-15.482-64.852.489-81.014 13.906a150.3 150.3 0 0 0-34.004 36.912c-8.932 14.007-16.96 28.713-28.711 40.305-11.09 12.344-29.303 17.235-42.647 26.808-6.75 5.054-13.244 10.452-19.357 16.231-18.341 16.897-28.93 41.202-33.635 64.884-1.991 12.187-3.127 26.668 5.221 35.46h.004c9.838 6.483 22.587 4.979 34.787 3.084 24.462-2.774 48.902-12.509 66.138-30.779 12.481-11.678 21.23-26.929 28.948-42.039 8.154-14.769 18.997-26.135 32.9-35.443 14.229-8.72 28.631-17.968 40.692-29.672 12.758-10.787 24.614-23.359 30.048-39.442 2.748-7.861 3.793-16.347 4.653-24.297 1.23-12.589 3.252-25.445-3.643-35.514l-.138-.142zm-27.83-24.553c-34.357-24.494-77.704-36.57-118.422-18.973-30.697 10.895-49.511 38.592-71.785 60.44-13.712 15.088-30.165 27.873-42.914 44.008-6.694 8.347-11.787 18.284-15.926 28.128-11.012 25.323-14.01 54.847-3.28 80.741 3.999 10.204 8.823 19.978 14.61 29.178a183 183 0 0 0 5.689 7.542c7.378-20.811 22.869-41.499 31.678-57.159 8.95-14.779 15.829-30.694 23.485-46.331 7.129-15.933 11.56-35.693 24.956-47.887 12.716-12.718 29.403-20.67 46.042-27.246 16.411-6.783 32.138-14.128 47.84-21.821 19.39-9.062 37.594-23.831 58.027-30.62"/><mask id="b" width="323" height="322" x="96" y="96" maskUnits="userSpaceOnUse" style="mask-type:alpha"><circle cx="257.806" cy="257.087" r="160.904" fill="#D9D9D9"/></mask><g mask="url(#b)"><path fill="url(#c)" d="M119.85 393.194c-27.64-32.186 10.058-76.861 25.965-105.141 8.95-14.779 15.83-30.694 23.486-46.331 7.129-15.933 11.559-35.694 24.956-47.888 12.716-12.717 29.403-20.669 46.042-27.246 16.41-6.783 32.138-14.128 47.84-21.82 28.401-13.274 54.256-38.798 88.303-33.541 19.016 3.35 30.395 23.794 27.307 41.866-1.97 19.614-12.873 34.329-23.471 49.244-14.434 21.904-21.824 47.011-33.883 70.312-7.033 16.244-14.472 33.35-27.795 45.434-12.801 12.714-31.151 18.681-47.659 25.086-16.059 7.024-31.363 14.613-46.069 23.754-15.159 8.689-28.036 20.631-43.884 28.7-18.098 8.861-44.77 14.772-61.132-2.428zm20.002-19.988c9.838 6.484 22.587 4.98 34.787 3.085 24.462-2.774 48.902-12.509 66.138-30.779 12.481-11.678 21.23-26.929 28.949-42.039 8.153-14.77 18.997-26.136 32.899-35.444 14.23-8.72 28.632-17.967 40.693-29.671 12.758-10.788 24.613-23.359 30.047-39.442 2.748-7.861 3.793-16.347 4.654-24.297 1.235-12.65 3.273-25.57-3.742-35.661-16.889-15.917-65.045.157-81.296 13.649a150.3 150.3 0 0 0-34.003 36.912c-8.932 14.007-16.96 28.713-28.711 40.305-11.091 12.344-29.304 17.234-42.648 26.807-6.75 5.054-13.243 10.453-19.356 16.232-18.342 16.897-28.931 41.201-33.635 64.884-1.992 12.187-3.127 26.668 5.221 35.459z"/></g><defs><radialGradient id="a" cx="0" cy="0" r="1" gradientTransform="rotate(135 75.792 182.873)scale(217.382 202.213)" gradientUnits="userSpaceOnUse"><stop stop-color="#9FFFF4"/><stop offset=".309" stop-color="#9FA8FE"/><stop offset=".69" stop-color="#9CFFF3"/><stop offset=".784" stop-color="#D0D5FF"/><stop offset=".871" stop-color="#fff"/><stop offset=".908" stop-color="#fff"/><stop offset="1" stop-color="#E8EBFF"/></radialGradient><radialGradient id="c" cx="0" cy="0" r="1" gradientTransform="rotate(136.045 76.63 180.57)scale(281.614 112.74)" gradientUnits="userSpaceOnUse"><stop offset=".108" stop-color="#ACFFF5"/><stop offset=".576" stop-color="#fff"/><stop offset=".778" stop-color="#B9C4FF"/></radialGradient></defs></svg>