<svg xmlns="http://www.w3.org/2000/svg" fill="none" viewBox="0 0 26 25" xmlns:xlink="http://www.w3.org/1999/xlink"><path fill="#A1FE9F" d="M24.952 12.524c0 6.89-5.586 12.476-12.476 12.476S0 19.414 0 12.524 5.586.048 12.476.048s12.476 5.586 12.476 12.476"/><path fill="#00171F" fill-rule="evenodd" d="M12.476 24.675c6.71 0 12.151-5.44 12.151-12.151S19.187.373 12.476.373.325 5.813.325 12.523c0 6.712 5.44 12.152 12.151 12.152m0 .325c6.89 0 12.476-5.586 12.476-12.476S19.366.048 12.476.048 0 5.634 0 12.524 5.586 25 12.476 25" clip-rule="evenodd"/><path fill="#00171F" fill-rule="evenodd" d="M10.608 2.309q-.183.035-.364.077a.162.162 0 0 1-.073-.317 10 10 0 0 1 .747-.144.162.162 0 0 1 .05.321q-.18.03-.36.063m1.647-.345a.16.16 0 0 1 .16-.165q.379-.004.752.017a.162.162 0 0 1-.018.325q-.363-.021-.73-.017a.16.16 0 0 1-.164-.16m-3.34.65a.16.16 0 0 1-.092.211q-.348.136-.682.298A.162.162 0 1 1 8 2.83q.345-.165.703-.307a.16.16 0 0 1 .21.092m5.551-.477a.16.16 0 0 1 .192-.127q.37.075.731.176a.162.162 0 0 1-.087.313q-.35-.098-.709-.17a.16.16 0 0 1-.127-.192m-7.572 1.5c.05.075.03.176-.044.226q-.309.208-.601.438a.162.162 0 0 1-.2-.256q.3-.236.62-.452a.16.16 0 0 1 .225.044m9.696-.862a.163.163 0 0 1 .215-.084q.345.152.677.326a.162.162 0 1 1-.151.288 10 10 0 0 0-.657-.316.163.163 0 0 1-.084-.214M5.141 5.07a.16.16 0 0 1 .005.23q-.258.27-.495.556a.162.162 0 1 1-.25-.208q.245-.296.51-.573a.16.16 0 0 1 .23-.005m13.392-1.226a.16.16 0 0 1 .227-.036q.304.22.594.46a.162.162 0 1 1-.209.25 10 10 0 0 0-.575-.447.16.16 0 0 1-.037-.227M3.73 6.843c.076.047.1.147.053.223q-.195.318-.367.648a.162.162 0 1 1-.288-.15q.177-.34.378-.668a.16.16 0 0 1 .224-.053m16.478-1.544a.16.16 0 0 1 .229.012q.252.279.484.576a.162.162 0 1 1-.256.2q-.225-.288-.47-.558a.16.16 0 0 1 .012-.23M2.723 8.872c.084.03.129.122.099.207q-.123.35-.221.71a.162.162 0 1 1-.314-.085q.101-.371.228-.733a.16.16 0 0 1 .208-.1m18.814-1.798a.163.163 0 0 1 .222.06q.186.324.35.665a.163.163 0 0 1-.292.141q-.16-.33-.34-.644a.16.16 0 0 1 .06-.222M2.175 11.069c.089.01.152.092.142.18q-.045.369-.061.742a.162.162 0 1 1-.325-.014q.018-.386.063-.766a.16.16 0 0 1 .18-.142m20.287-1.98a.16.16 0 0 1 .204.107q.056.18.107.36a.162.162 0 0 1-.313.088 10 10 0 0 0-.104-.35.163.163 0 0 1 .106-.204M2.12 13.334a.16.16 0 0 1 .178.145q.02.184.045.37a.162.162 0 1 1-.322.045 10 10 0 0 1-.046-.382.16.16 0 0 1 .145-.178" clip-rule="evenodd"/><g filter="url(#a)"><path fill="#000" d="M2.326 14.48c1.176 5.657 6.715 9.288 12.372 8.112s9.288-6.715 8.112-12.372"/></g><g filter="url(#b)"><path fill="#00171F" fill-rule="evenodd" d="M14.73 22.75c-5.744 1.196-11.369-2.492-12.563-8.237l.318-.066c1.158 5.569 6.61 9.144 12.18 7.986s9.144-6.61 7.986-12.18l.318-.066c1.194 5.745-2.494 11.37-8.238 12.564" clip-rule="evenodd"/></g><path fill="#000" d="M13.086 14.775c5.657-1.176 10.013-3.233 9.73-4.594s-5.098-1.512-10.755-.336C6.405 11.022 2.05 13.08 2.331 14.44c.284 1.362 5.099 1.511 10.755.335"/><path fill="#00171F" fill-rule="evenodd" d="M3.045 13.435c-.452.398-.605.726-.554.972s.323.486.895.67c.559.181 1.347.29 2.313.32 1.93.06 4.535-.194 7.354-.78s5.31-1.392 7.056-2.217c.874-.412 1.553-.826 1.994-1.215.451-.398.605-.725.554-.972-.052-.246-.323-.485-.896-.67-.558-.18-1.346-.29-2.313-.32-1.93-.06-4.534.195-7.354.781s-5.31 1.392-7.055 2.216c-.875.413-1.554.827-1.994 1.215M4.9 11.927c1.775-.839 4.291-1.65 7.128-2.24s5.468-.85 7.43-.788c.98.03 1.803.141 2.403.335.587.19 1.023.48 1.114.913.09.435-.195.875-.657 1.282-.474.417-1.184.846-2.07 1.265-1.776.838-4.292 1.65-7.129 2.24s-5.468.849-7.43.788c-.98-.03-1.802-.141-2.403-.335-.586-.19-1.023-.48-1.113-.914s.194-.874.657-1.282c.473-.417 1.183-.846 2.07-1.264" clip-rule="evenodd"/><path fill="#fff" d="m7.74 14.63 4.823 5.193 4.822-5.193-4.822 1.113zm-1.112-2.967 5.935 1.484 5.934-1.484-5.934-6.677zm5.935-6.677v5.193z"/><path fill="#fff" d="m6.628 11.663 5.935-1.484 5.934 1.484"/><path fill="#00171F" fill-rule="evenodd" d="M12.563 4.824c.046 0 .09.02.121.054l5.935 6.677a.163.163 0 0 1-.082.266l-5.935 1.483a.2.2 0 0 1-.079 0l-5.935-1.483a.163.163 0 0 1-.082-.266l5.935-6.676a.16.16 0 0 1 .122-.055m-.163.59-5.3 5.964 5.301-1.325zm.163 4.933-5.265 1.316 5.265 1.316 5.265-1.316zm5.463 1.03-5.301-1.324v-4.64zM7.6 14.55a.16.16 0 0 1 .177-.077l4.786 1.104 4.785-1.104a.162.162 0 0 1 .156.269l-4.822 5.193a.16.16 0 0 1-.238 0L7.622 14.74a.16.16 0 0 1-.022-.192m.62.359 4.343 4.677 4.342-4.677-4.306.994a.2.2 0 0 1-.073 0z" clip-rule="evenodd"/><path fill="#fff" fill-rule="evenodd" d="M5.693 15.437c1.93.06 4.535-.195 7.354-.781s5.31-1.392 7.056-2.216c.874-.413 1.553-.827 1.994-1.215.451-.398.605-.725.553-.972l.319-.066c.09.434-.195.874-.657 1.282-.474.417-1.184.846-2.07 1.265-1.776.838-4.292 1.65-7.129 2.24s-5.468.848-7.43.787c-.98-.03-1.802-.14-2.403-.334-.586-.19-1.023-.48-1.113-.914l.318-.066c.051.246.322.486.895.67.559.18 1.347.29 2.313.32" clip-rule="evenodd"/><path fill="#fff" d="M19.039 19.282a.975.975 0 1 0 0-1.95.975.975 0 0 0 0 1.95"/><path fill="#00171F" fill-rule="evenodd" d="M19.039 17.495a.812.812 0 1 0 0 1.624.812.812 0 0 0 0-1.624m-1.137.812a1.137 1.137 0 1 1 2.274 0 1.137 1.137 0 0 1-2.274 0" clip-rule="evenodd"/><path fill="#D1F2DD" d="M3.704 19.022a.975.975 0 1 0 0-1.95.975.975 0 0 0 0 1.95"/><path fill="#00171F" fill-rule="evenodd" d="M3.704 17.235a.812.812 0 1 0 0 1.624.812.812 0 0 0 0-1.624m-1.137.812a1.137 1.137 0 1 1 2.274 0 1.137 1.137 0 0 1-2.274 0" clip-rule="evenodd"/><path fill="#000" d="M6.563 8.625a.975.975 0 1 0 0-1.95.975.975 0 0 0 0 1.95"/><path fill="#00171F" fill-rule="evenodd" d="M6.563 6.838a.812.812 0 1 0 0 1.625.812.812 0 0 0 0-1.625m-1.137.813a1.137 1.137 0 1 1 2.274 0 1.137 1.137 0 0 1-2.274 0" clip-rule="evenodd"/><path fill="#619571" d="M19.559 5.896a.975.975 0 1 0 0-1.95.975.975 0 0 0 0 1.95"/><path fill="#00171F" fill-rule="evenodd" d="M19.559 4.11a.812.812 0 1 0 0 1.624.812.812 0 0 0 0-1.625m-1.137.811a1.137 1.137 0 1 1 2.274 0 1.137 1.137 0 0 1-2.274 0" clip-rule="evenodd"/><defs><filter id="a" width="60.705" height="52.593" x="-17.674" y="-9.78" color-interpolation-filters="sRGB" filterUnits="userSpaceOnUse"><feFlood flood-opacity="0" result="BackgroundImageFix"/><feGaussianBlur in="BackgroundImageFix" stdDeviation="10"/><feComposite in2="SourceAlpha" operator="in" result="effect1_backgroundBlur_15027_7981"/><feBlend in="SourceGraphic" in2="effect1_backgroundBlur_15027_7981" result="shape"/></filter><filter id="b" width="61.027" height="52.789" x="-17.833" y="-9.813" color-interpolation-filters="sRGB" filterUnits="userSpaceOnUse"><feFlood flood-opacity="0" result="BackgroundImageFix"/><feGaussianBlur in="BackgroundImageFix" stdDeviation="10"/><feComposite in2="SourceAlpha" operator="in" result="effect1_backgroundBlur_15027_7981"/><feBlend in="SourceGraphic" in2="effect1_backgroundBlur_15027_7981" result="shape"/></filter></defs></svg>