<svg xmlns="http://www.w3.org/2000/svg" width="382" height="383" fill="none" viewBox="0 0 382 383"><g clip-path="url(#a)"><path fill="#A1FEA0" d="M382 191.5c0 105.487-85.513 191-191 191S0 296.987 0 191.5 85.514.5 191 .5s191 85.514 191 191"/><path fill="#000" fill-rule="evenodd" d="M191 377.526c102.74 0 186.026-83.286 186.026-186.026S293.74 5.474 191 5.474 4.974 88.761 4.974 191.5 88.261 377.526 191 377.526m0 4.974c105.487 0 191-85.513 191-191S296.487.5 191 .5 0 86.014 0 191.5s85.514 191 191 191" clip-rule="evenodd"/><path fill="#74FF71" d="M35.607 221.44c18.01 86.604 102.8 142.198 189.405 124.189 86.604-18.01 142.198-102.8 124.188-189.404"/><path fill="#000" fill-rule="evenodd" d="M225.516 348.061C137.567 366.35 51.461 309.892 33.171 221.943l4.87-1.013c17.73 85.26 101.203 139.991 186.462 122.262 85.259-17.731 139.992-101.204 122.261-186.464l4.87-1.011c18.29 87.948-38.169 174.054-126.118 192.344" clip-rule="evenodd"/><path fill="#74FF71" d="M200.344 225.958c86.596-18.009 153.282-49.503 148.949-70.343-4.335-20.842-78.049-23.138-164.645-5.129-86.596 18.008-153.283 49.502-148.949 70.342 4.334 20.841 78.048 23.137 164.645 5.13"/><path fill="#000" fill-rule="evenodd" d="M46.612 205.452c-6.912 6.093-9.26 11.107-8.476 14.88.784 3.771 4.938 7.435 13.705 10.265 8.555 2.761 20.617 4.427 35.411 4.888 29.547.92 69.422-2.976 112.586-11.953s81.288-21.299 108.019-33.923c13.382-6.322 23.782-12.657 30.526-18.601 6.912-6.09 9.26-11.105 8.476-14.878s-4.938-7.435-13.706-10.266c-8.554-2.761-20.616-4.427-35.41-4.887-29.547-.921-69.421 2.977-112.586 11.953s-81.288 21.299-108.018 33.924c-13.384 6.319-23.782 12.656-30.527 18.598m28.403-23.097c27.178-12.835 65.697-25.262 109.129-34.295 43.432-9.032 83.711-12.991 113.753-12.055 15.002.467 27.593 2.158 36.784 5.126 8.98 2.899 15.665 7.338 17.048 13.986s-2.98 13.385-10.057 19.624c-7.248 6.386-18.121 12.956-31.691 19.365-27.179 12.835-65.698 25.263-109.13 34.295s-83.712 12.992-113.754 12.055c-15-.466-27.592-2.158-36.784-5.125-8.979-2.899-15.664-7.339-17.047-13.987-1.383-6.649 2.98-13.384 10.058-19.623 7.247-6.385 18.12-12.956 31.69-19.366" clip-rule="evenodd"/><path fill="#A1FEA0" d="M323.405 199.321c8.242 0 14.923-6.681 14.923-14.922 0-8.242-6.681-14.922-14.923-14.922-8.24 0-14.921 6.68-14.921 14.922 0 8.241 6.681 14.922 14.921 14.922"/><path fill="#000" fill-rule="evenodd" d="M323.408 171.975c-6.866 0-12.434 5.567-12.434 12.435 0 6.867 5.568 12.435 12.434 12.435 6.869 0 12.435-5.568 12.435-12.435s-5.566-12.435-12.435-12.435M306 184.41c0-9.616 7.794-17.41 17.408-17.41s17.409 7.794 17.409 17.41c0 9.614-7.794 17.409-17.409 17.409S306 194.024 306 184.41" clip-rule="evenodd"/><path fill="#2FFF2B" d="M74.41 308.336c8.241 0 14.922-6.681 14.922-14.923 0-8.24-6.68-14.921-14.922-14.921-8.241 0-14.922 6.681-14.922 14.921 0 8.242 6.68 14.923 14.922 14.923"/><path fill="#000" fill-rule="evenodd" d="M74.409 280.975c-6.868 0-12.435 5.567-12.435 12.435 0 6.867 5.567 12.435 12.435 12.435s12.435-5.568 12.435-12.435-5.567-12.435-12.435-12.435M57 293.41c0-9.616 7.794-17.41 17.409-17.41s17.409 7.794 17.409 17.41c0 9.614-7.794 17.409-17.409 17.409S57 303.024 57 293.41" clip-rule="evenodd"/><path fill="#fff" d="m101.469 180.31 90.857 22.714 90.858-22.715-90.858-102.215z"/><path fill="#fff" d="m101.469 180.313 90.857-22.715 90.858 22.713"/><path fill="#000" d="M191.992 78.094v79.583l-89.531 21.886zM140.133 102 127 133h6.933L161 102z"/><path fill="#fff" d="M132 101.961 121.429 132c-5.286-1.487-13.525-5.296-18.878-11.154-6.796-7.436-7.552-16.981-7.551-26.026 0-6.692 5.692-16.948 8.376-20.82-.149.43-.358 2.667 0 8.173.447 6.883 1.789 11.185 7.603 15.917 4.652 3.785 15.952 4.158 21.021 3.871"/><path fill="#000" fill-rule="evenodd" d="M132 101.961a56 56 0 0 1-4.019.066c-5.614-.098-13.353-.968-17.002-3.937-5.814-4.732-7.156-9.034-7.603-15.917l-.047-.764c-.291-4.95-.095-7 .047-7.409-1.017 1.466-2.465 3.85-3.872 6.607C97.197 85.13 95 90.663 95 94.82c0 9.045.755 18.59 7.551 26.026 5.353 5.858 13.592 9.667 18.878 11.154zm-5.316 3.751-7.59 21.568c-4.532-1.78-10.005-4.837-13.737-8.921-5.76-6.302-6.582-14.534-6.582-23.538 0-1.806.582-4.18 1.542-6.775.318 1.504.76 2.96 1.387 4.377 1.407 3.18 3.617 5.886 6.87 8.533 3.211 2.613 8.149 3.742 12.26 4.282 2 .263 4.004.408 5.85.474" clip-rule="evenodd"/><path fill="#000" d="M244.868 102 258 133h-6.932L224 102z"/><path fill="#fff" d="M253 101.961 263.572 132c5.285-1.487 13.524-5.296 18.877-11.154 6.796-7.436 7.552-16.981 7.551-26.026 0-6.692-5.692-16.948-8.376-20.82.149.43.358 2.667 0 8.173-.447 6.883-1.789 11.185-7.603 15.917-4.652 3.785-15.953 4.158-21.021 3.871"/><path fill="#000" fill-rule="evenodd" d="M253 101.961c1.093.062 2.475.093 4.019.066 5.613-.098 13.353-.968 17.002-3.937 5.814-4.732 7.156-9.034 7.603-15.917q.026-.393.047-.764c.291-4.95.095-7-.047-7.409 1.017 1.466 2.464 3.85 3.872 6.607C287.803 85.13 290 90.663 290 94.82c.001 9.045-.755 18.59-7.551 26.026-5.353 5.858-13.592 9.667-18.877 11.154zm5.316 3.751 7.59 21.568c4.531-1.78 10.004-4.837 13.737-8.921 5.759-6.302 6.582-14.534 6.582-23.538 0-1.806-.583-4.18-1.543-6.775-.316 1.504-.758 2.96-1.386 4.377-1.407 3.18-3.617 5.886-6.87 8.533-3.211 2.613-8.149 3.742-12.26 4.282-2 .263-4.004.408-5.85.474" clip-rule="evenodd"/><path fill="#fff" d="m118.505 225.746 73.823 79.5 73.821-79.5-73.822 17.036z"/><path fill="#000" fill-rule="evenodd" d="M192.325 75.617c.71 0 1.387.304 1.859.835l90.858 102.214a2.49 2.49 0 0 1-1.256 4.066l-90.858 22.714a2.5 2.5 0 0 1-1.205 0l-90.859-22.712a2.486 2.486 0 0 1-1.255-4.066l90.858-102.216a2.5 2.5 0 0 1 1.858-.835m-2.486 9.028-81.164 91.31 81.164-20.291zm2.486 75.525-80.603 20.151 80.603 20.148 80.603-20.15zm83.65 15.784-81.163-20.29V84.645zm-159.624 48.548a2.49 2.49 0 0 1 2.712-1.177l73.262 16.906 73.263-16.906a2.487 2.487 0 0 1 2.382 4.115l-73.821 79.5a2.487 2.487 0 0 1-3.646 0l-73.822-79.5a2.49 2.49 0 0 1-.33-2.938m9.488 5.491 66.487 71.601 66.485-71.601-65.927 15.214c-.368.085-.75.085-1.118 0z" clip-rule="evenodd"/><path fill="#000" d="M191.993 303.916v-61.677l-73.614-16.911z"/><path fill="#000" fill-rule="evenodd" d="M162.405 35.113q-2.811.537-5.581 1.175a2.487 2.487 0 1 1-1.115-4.847q2.861-.659 5.76-1.214a166 166 0 0 1 5.68-.984 2.487 2.487 0 0 1 .764 4.915q-2.751.427-5.508.955m25.216-5.28a2.487 2.487 0 0 1 2.454-2.519q5.788-.075 11.508.257a2.486 2.486 0 0 1-.289 4.966 157 157 0 0 0-11.153-.25 2.49 2.49 0 0 1-2.52-2.453m-51.141 9.962a2.487 2.487 0 0 1-1.406 3.224 155 155 0 0 0-10.443 4.552 2.488 2.488 0 0 1-2.154-4.484 160 160 0 0 1 10.779-4.698 2.487 2.487 0 0 1 3.224 1.406m84.988-7.315a2.49 2.49 0 0 1 2.934-1.941q5.66 1.152 11.192 2.694a2.486 2.486 0 1 1-1.335 4.792 157 157 0 0 0-10.849-2.612 2.487 2.487 0 0 1-1.942-2.933M105.546 55.45a2.487 2.487 0 0 1-.671 3.453 159 159 0 0 0-9.213 6.71 2.487 2.487 0 0 1-3.07-3.914 163 163 0 0 1 9.502-6.92 2.486 2.486 0 0 1 3.452.672m148.442-13.207a2.487 2.487 0 0 1 3.276-1.278 163 163 0 0 1 10.372 4.995 2.486 2.486 0 1 1-2.314 4.402 158 158 0 0 0-10.056-4.842 2.49 2.49 0 0 1-1.278-3.277M78.706 77.402a2.487 2.487 0 0 1 .078 3.516 162 162 0 0 0-7.586 8.511 2.487 2.487 0 0 1-3.827-3.176 166 166 0 0 1 7.819-8.774 2.487 2.487 0 0 1 3.516-.078m205.019-18.767a2.486 2.486 0 0 1 3.471-.563 163 163 0 0 1 9.095 7.058 2.487 2.487 0 0 1-3.186 3.82 158 158 0 0 0-8.818-6.844 2.486 2.486 0 0 1-.562-3.471M57.103 104.526a2.486 2.486 0 0 1 .814 3.421 161 161 0 0 0-5.627 9.915 2.487 2.487 0 1 1-4.41-2.301 166 166 0 0 1 5.801-10.22 2.487 2.487 0 0 1 3.422-.815m252.26-23.629a2.49 2.49 0 0 1 3.513.18 162 162 0 0 1 7.406 8.812 2.486 2.486 0 1 1-3.919 3.063 157 157 0 0 0-7.179-8.543 2.487 2.487 0 0 1 .179-3.512M41.695 135.589a2.49 2.49 0 0 1 1.522 3.171 158 158 0 0 0-3.388 10.881 2.486 2.486 0 1 1-4.8-1.306 163 163 0 0 1 3.495-11.224 2.487 2.487 0 0 1 3.171-1.522m288.038-27.528a2.487 2.487 0 0 1 3.395.919 161 161 0 0 1 5.369 10.183 2.487 2.487 0 1 1-4.48 2.162 155 155 0 0 0-5.204-9.869 2.487 2.487 0 0 1 .92-3.395M33.295 169.227a2.49 2.49 0 0 1 2.173 2.766q-.676 5.635-.937 11.353a2.487 2.487 0 0 1-4.97-.226q.27-5.903.969-11.718a2.49 2.49 0 0 1 2.765-2.175m310.579-30.3a2.49 2.49 0 0 1 3.124 1.618c.579 1.825 4.212 12.534 4.73 14.391a2.488 2.488 0 0 1-4.792 1.337c-.502-1.801-4.117-12.454-4.678-14.223a2.486 2.486 0 0 1 1.616-3.123M32.452 203.884a2.487 2.487 0 0 1 2.729 2.22c.194 1.886 2.98 14.315 3.245 16.205A2.487 2.487 0 1 1 33.5 223c-.5-.5-3.067-14.442-3.267-16.387a2.49 2.49 0 0 1 2.22-2.729" clip-rule="evenodd"/></g><defs><clipPath id="a"><path fill="#fff" d="M0 .5h382v382H0z"/></clipPath></defs></svg>