<svg xmlns="http://www.w3.org/2000/svg" width="1409" height="1409" fill="none"><path fill="#91029B" fill-rule="evenodd" d="M1409.49 704.5c0 389.08-315.52 704.5-704.744 704.5C315.526 1409 0 1093.58 0 704.5 0 315.415 315.526 0 704.746 0c389.224 0 704.744 315.415 704.744 704.5m-676.426 488.8V523.065c0-16.253 13.181-29.429 29.44-29.429h367.516c37.53 0 60.73 40.895 41.48 73.096L787.773 1208.41c-15.334 25.64-54.709 14.77-54.709-15.11m-56.638-308.12V214.941c0-29.874-39.375-40.742-54.709-15.101L237.993 841.514c-19.256 32.2 3.951 73.096 41.479 73.096h367.514c16.259 0 29.44-13.176 29.44-29.43" clip-rule="evenodd"/></svg>