<svg xmlns="http://www.w3.org/2000/svg" width="2000" height="2000"><path fill="#FBFE51" d="m1086.7 2.8 7 .6c51.8 4.8 103 13.9 153.3 26.6l2 .5a913 913 0 0 1 57 16.5l4 1.3a915 915 0 0 1 192.3 85.7 739 739 0 0 1 48.2 30 959.6 959.6 0 0 1 114 87.7 311 311 0 0 0 6.4 5.7 433 433 0 0 1 24 22.6 195.6 195.6 0 0 1 27.2 27c2.4 2.6 4.9 5 7.4 7.5 3.7 3.7 7.3 7.4 10.6 11.4l5.8 6.4a295 295 0 0 1 13.7 15.7c2.8 3.5 5.8 7 8.8 10.3 5.6 6.4 11 13 16.1 19.8a947 947 0 0 0 4.8 6.1 767 767 0 0 1 22.2 29.6 1804 1804 0 0 0 4.4 6.3A971 971 0 0 1 1866 498l1.6 2.8a935 935 0 0 1 27.2 50.8c40.3 78.4 68.9 163.3 101.5 351.3l.2 2.2 1.5 16.9.3 3.4c1.7 23.7 2 47.3 2 71v8.8c0 27.3-.3 54.4-3 81.5a810 810 0 0 0-.7 7 964.3 964.3 0 0 1-45 216.5 947 947 0 0 1-54.8 134.1 1410 1410 0 0 0-5.2 10.7c-7 14.3-14.6 28.2-22.6 42l-2 3.5a724 724 0 0 1-24.6 40.4 1396 1396 0 0 0-4.7 7 996 996 0 0 1-64.1 87 713 713 0 0 1-25.6 29.9l-5.3 6a441 441 0 0 1-22.7 24.2c-1.9 1.9-3.6 3.8-5.3 5.8-6.6 7.7-14 14.8-21.6 21.4-2.7 2.3-5.1 4.8-7.6 7.3-3.7 3.7-7.4 7.3-11.4 10.6l-6.4 5.8a295 295 0 0 1-15.7 13.7c-3.5 2.8-7 5.8-10.3 8.8-6.4 5.6-13 11-19.8 16.1a947 947 0 0 0-6.1 4.8 767 767 0 0 1-29.6 22.2 1804 1804 0 0 0-6.3 4.4 971 971 0 0 1-77.9 50.1l-2.8 1.6a934 934 0 0 1-54 29 870 870 0 0 1-105 44.8 975.4 975.4 0 0 1-243.7 55l-2.3.1c-5.7.6-11.5 1-17.2 1.5l-3.4.3a906 906 0 0 1-70 2H995c-27.2 0-54.3-.3-81.4-3a1935 1935 0 0 0-8-.8A998.6 998.6 0 0 1 592 1914l-3.2-1.4a837 837 0 0 1-81.3-41.1 579 579 0 0 0-7.7-4.4 908.7 908.7 0 0 1-134.8-93.5 713 713 0 0 1-29.8-25.6l-6-5.3A440 440 0 0 1 305 1720c-1.9-1.9-3.8-3.6-5.8-5.3-7.7-6.6-14.8-14-21.4-21.6-2.3-2.7-4.8-5.1-7.3-7.6-3.7-3.7-7.3-7.4-10.6-11.4l-5.8-6.4a295 295 0 0 1-13.7-15.7c-2.8-3.5-5.8-7-8.8-10.3-5.6-6.4-11-13-16.1-19.8a947 947 0 0 0-4.8-6.1c-8.2-10.4-16-21-23.7-31.8l-3-4.3a994 994 0 0 1-21-30.7l-1.3-2a955 955 0 0 1-57.3-100.2c-43.2-83.6-73-175.6-100.7-349.8l-.2-2.2L2 1078l-.3-3.3a912 912 0 0 1-2-71v-9a807 807 0 0 1 3.8-90c8.5-86.9 28-172.2 99.7-349a1410 1410 0 0 0 5.2-10.7 677 677 0 0 1 22.6-42l2-3.5a724 724 0 0 1 24.6-40.4 1396 1396 0 0 0 4.7-7 996 996 0 0 1 60.2-82.3 1959 1959 0 0 0 4-4.8 651 651 0 0 1 25.2-29.5 311 311 0 0 0 5.7-6.4 433 433 0 0 1 22.6-24 195.6 195.6 0 0 1 27-27.2c2.6-2.4 5-4.9 7.5-7.4 3.7-3.7 7.4-7.3 11.4-10.6l6.4-5.8a295 295 0 0 1 15.7-13.7c3.5-2.8 7-5.8 10.3-8.8 6.4-5.6 13-11 19.8-16.1a947 947 0 0 0 6.1-4.8 767 767 0 0 1 29.6-22.2l6.3-4.4c25.1-18 51.2-34.6 77.9-50.1l2.7-1.6a955 955 0 0 1 55.7-29.7c82-42 171.8-70.5 352.3-99.5l6.8-.7c56.1-5.5 115.1-5.4 171.2.3"/><path d="M441 437h1118v399h-182l-8-16c-11.8-23.5-25-46-41-67l-1.4-1.9c-6.9-9-14.1-17.6-21.6-26.1l-2.5-2.8c-6-6.7-12.3-13.1-18.7-19.5l-2.5-2.6c-5-4.9-10-9.6-15.3-14.1l-2.5-2.1A428.3 428.3 0 0 0 1128 608a702 702 0 0 1-7.4-2.6 293.6 293.6 0 0 0-56.2-13 365.4 365.4 0 0 0-62.6-4.8H998c-45 0-89.5 7-132 22.4l-2.7 1c-48 17.2-93.3 43-131.3 77l-2.6 2.3a917 917 0 0 0-7.4 6.7l-3 2.7a277.7 277.7 0 0 0-31.7 33.4 334 334 0 0 1-5.2 6.4A411 411 0 0 0 631 820l-1.1 2.2A387 387 0 0 0 593 948l-.3 2c-1.8 13.9-2 27.8-2 41.8v11.3c0 22 1.3 43.5 5.1 65.2l.4 2.3c3.3 18.9 7.6 37.2 13.8 55.4l1 3.1a416.1 416.1 0 0 0 62 118.9l1.4 1.9A382.7 382.7 0 0 0 730 1310l2.9 2.6A407 407 0 0 0 888 1397l2.1.6a426 426 0 0 0 59.7 12.2l2.3.4c16.6 2.1 33.5 2 50.2 2h3.2c17.3 0 34.3-.7 51.5-3.2l3.4-.5A406.5 406.5 0 0 0 1169 1376l2.6-1.2c19.7-9 38.4-19.6 56.4-31.8l2.1-1.4a380 380 0 0 0 29.1-22.1 342 342 0 0 1 5-4c5-4.1 9.9-8.4 14.4-13.2 2-2 4-3.8 6.2-5.6 4-3.5 7.8-7.3 11.5-11.3l2-2a444 444 0 0 0 30.7-37.4l1.5-2c14.3-19.5 26-40.3 36.9-61.9l6.6-12.1h185v393H441z"/></svg>