<svg xmlns="http://www.w3.org/2000/svg" width="31" height="28" fill="none" class="text-black w-16 h-16"><path fill="currentColor" d="M20.793 3.587 17.538 9.2c-.925 1.594-3.237 1.594-4.162 0l-3.255-5.612L8.118 0h14.708zm-11.358.347 3.244 5.619c.918 1.598-.235 3.582-2.078 3.586H.005L7.374.364zm12.022 0-3.243 5.619c-.919 1.598.235 3.582 2.078 3.586h10.595L23.52.364l-2.061 3.57ZM10.1 23.487l3.255-5.612c.925-1.595 3.237-1.595 4.162 0l3.255 5.612 2.003 3.587H8.067zm11.357-.347-3.243-5.62c-.919-1.597.235-3.582 2.078-3.585h10.595L23.52 26.71l-2.061-3.57Zm-12.022 0 3.244-5.62c.918-1.597-.235-3.582-2.078-3.585H.005L7.374 26.71z"/></svg>