<svg xmlns="http://www.w3.org/2000/svg" width="400" height="400"><path fill="#fbfaf8" fill-rule="evenodd" d="M140.806 92.25c21.997 38.532 42.845 73.799 44.9 75.954C189.442 172.12 194.078 174 200 174c5.935 0 10.586-1.891 14.254-5.796 1.98-2.109 30.592-50.477 45.521-76.954l2.396-4.25H137.809l2.997 5.25m-12.881 6a9501.34 9501.34 0 0 0-6.167 10.75 6314.438 6314.438 0 0 1-9.239 16 18300.77 18300.77 0 0 0-23.024 40c-8.684 15.125-16.414 28.458-17.178 29.629-1.211 1.857-1.182 2.209.229 2.75 2.92 1.121 87.658.69 91.954-.467 9.84-2.651 15.5-9.983 15.5-20.079 0-5.962 2.083-2.045-39.401-74.083-3.721-6.463-7.159-11.75-7.638-11.75-.48 0-2.746 3.263-5.036 7.25m115.588 32.436c-21.372 37.038-22.942 40.095-23.327 45.419-.582 8.052 2.988 14.563 10.167 18.542l5.147 2.853 46.75.256c25.712.141 46.75-.055 46.75-.435s-4.962-9.271-11.026-19.756a31958.667 31958.667 0 0 1-30.25-52.5c-10.573-18.389-19.691-33.582-20.261-33.762-.57-.18-11.348 17.542-23.95 39.383M71 203.555c0 .305 12.293 21.793 27.317 47.75 15.024 25.957 28.816 49.841 30.648 53.075 3.297 5.821 3.347 5.858 4.967 3.71.9-1.193 7.651-12.614 15.001-25.38 7.351-12.765 16.217-27.99 19.703-33.832 8.525-14.289 11.347-20.608 11.332-25.378-.015-4.952-2.79-11.131-6.606-14.711-6.014-5.642-7.465-5.789-56.988-5.789-24.956 0-45.374.25-45.374.555m162.637.91c-7.718 2.751-13.572 11.023-13.615 19.237-.024 4.607 2.877 10.69 14.846 31.126 3.759 6.42 12.347 21.235 19.082 32.924 6.736 11.688 12.617 21.48 13.069 21.76.453.279 2.291-2.084 4.085-5.252 1.794-3.168 15.555-26.998 30.579-52.955C316.707 225.348 329 203.86 329 203.555c0-.305-20.587-.535-45.75-.511-36.226.035-46.554.33-49.613 1.421m-40.217 23.14c-6.005 2.131-9.218 6.108-19.713 24.395-12.531 21.835-22.705 39.431-29.313 50.694-2.967 5.057-5.394 9.67-5.394 10.25 0 .73 18.859 1.056 61 1.056 41.753 0 61-.33 61-1.045 0-.575-3.325-6.762-7.389-13.75-15.263-26.244-33.396-57.813-34.904-60.766-2.42-4.74-7.544-9.195-12.529-10.894-5.432-1.851-7.398-1.841-12.758.06"/><path fill="#e58436" fill-rule="evenodd" d="M173.496 2.568c-58.17 7.919-111.61 42.536-142.464 92.284-40.13 64.703-40.13 146.593 0 211.296 15.453 24.915 38.905 48.367 63.82 63.82 64.703 40.13 146.593 40.13 211.296 0 24.915-15.453 48.367-38.905 63.82-63.82 40.13-64.703 40.13-146.593 0-211.296-15.453-24.915-38.905-48.367-63.82-63.82-24.013-14.894-51.944-24.879-79.804-28.531-13.928-1.826-39.179-1.794-52.848.067m-32.69 89.682c21.997 38.532 42.845 73.799 44.9 75.954C189.442 172.12 194.078 174 200 174c5.935 0 10.586-1.891 14.254-5.796 1.98-2.109 30.592-50.477 45.521-76.954l2.396-4.25H137.809l2.997 5.25m-12.881 6a9501.34 9501.34 0 0 0-6.167 10.75 6314.438 6314.438 0 0 1-9.239 16 18300.77 18300.77 0 0 0-23.024 40c-8.684 15.125-16.414 28.458-17.178 29.629-1.211 1.857-1.182 2.209.229 2.75 2.92 1.121 87.658.69 91.954-.467 9.84-2.651 15.5-9.983 15.5-20.079 0-5.962 2.083-2.045-39.401-74.083-3.721-6.463-7.159-11.75-7.638-11.75-.48 0-2.746 3.263-5.036 7.25m115.588 32.436c-21.372 37.038-22.942 40.095-23.327 45.419-.582 8.052 2.988 14.563 10.167 18.542l5.147 2.853 46.75.256c25.712.141 46.75-.055 46.75-.435s-4.962-9.271-11.026-19.756a31958.667 31958.667 0 0 1-30.25-52.5c-10.573-18.389-19.691-33.582-20.261-33.762-.57-.18-11.348 17.542-23.95 39.383M71 203.555c0 .305 12.293 21.793 27.317 47.75 15.024 25.957 28.816 49.841 30.648 53.075 3.297 5.821 3.347 5.858 4.967 3.71.9-1.193 7.651-12.614 15.001-25.38 7.351-12.765 16.217-27.99 19.703-33.832 8.525-14.289 11.347-20.608 11.332-25.378-.015-4.952-2.79-11.131-6.606-14.711-6.014-5.642-7.465-5.789-56.988-5.789-24.956 0-45.374.25-45.374.555m162.637.91c-7.718 2.751-13.572 11.023-13.615 19.237-.024 4.607 2.877 10.69 14.846 31.126 3.759 6.42 12.347 21.235 19.082 32.924 6.736 11.688 12.617 21.48 13.069 21.76.453.279 2.291-2.084 4.085-5.252 1.794-3.168 15.555-26.998 30.579-52.955C316.707 225.348 329 203.86 329 203.555c0-.305-20.587-.535-45.75-.511-36.226.035-46.554.33-49.613 1.421m-40.217 23.14c-6.005 2.131-9.218 6.108-19.713 24.395-12.531 21.835-22.705 39.431-29.313 50.694-2.967 5.057-5.394 9.67-5.394 10.25 0 .73 18.859 1.056 61 1.056 41.753 0 61-.33 61-1.045 0-.575-3.325-6.762-7.389-13.75-15.263-26.244-33.396-57.813-34.904-60.766-2.42-4.74-7.544-9.195-12.529-10.894-5.432-1.851-7.398-1.841-12.758.06"/></svg>
