<svg xmlns="http://www.w3.org/2000/svg" viewBox="0 0 401.01 400.01"><path fill="#fbf9f9" fill-rule="evenodd" d="M226.214 82.186c-1.415 1.415-1.692 21.511-.326 23.667.64 1.011 4.58 1.438 15.566 1.688 16.447.374 18.667 1.11 21.13 7.005 1.814 4.341 1.824 13.764.018 17.256-.768 1.487-2.39 3.602-3.603 4.7-2.117 1.917-4 2.018-46.282 2.498l-44.075.5-.885 3c-.487 1.65-.642 11.325-.345 21.5.619 21.203-.064 26.444-3.874 29.721-2.601 2.237-3.098 2.279-26.971 2.279-19.375 0-24.553.279-25.459 1.37-.809.974-1.061 10.298-.873 32.25l.265 30.88 25.147.5c33.931.675 31.646-1.656 32.353 33l.5 24.5h63v-64l-25-.5c-33.837-.677-31.851 1.09-31.319-27.87l.319-17.324 3-2.398 3-2.398 53.128-.005c43.607-.004 53.33-.249 54.257-1.367.82-.987 1.06-17.849.873-61.25L289.5 81.5l-31.036-.264c-23.303-.198-31.339.039-32.25.95m4.343 82.037c-2.222 3.171-2.023 10.98.355 13.916 1.602 1.98 2.829 2.361 7.588 2.361 7.226 0 9.5-2.301 9.5-9.611 0-6.937-2.184-8.889-9.943-8.889-5.008 0-6.189.35-7.5 2.223"/><path fill="#fb403e" fill-rule="evenodd" d="M0 200.002v200.003l200.25-.253 200.25-.252.252-199.75L401.005 0H0zm.49.498c0 110 .117 154.852.26 99.67.143-55.181.143-145.181 0-200S.49 90.5.49 200.5M226.214 82.186c-1.415 1.415-1.692 21.511-.326 23.667.64 1.011 4.58 1.438 15.566 1.688 16.447.374 18.667 1.11 21.13 7.005 1.814 4.341 1.824 13.764.018 17.256-.768 1.487-2.39 3.602-3.603 4.7-2.117 1.917-4 2.018-46.282 2.498l-44.075.5-.885 3c-.487 1.65-.642 11.325-.345 21.5.619 21.203-.064 26.444-3.874 29.721-2.601 2.237-3.098 2.279-26.971 2.279-19.375 0-24.553.279-25.459 1.37-.809.974-1.061 10.298-.873 32.25l.265 30.88 25.147.5c33.931.675 31.646-1.656 32.353 33l.5 24.5h63v-64l-25-.5c-33.837-.677-31.851 1.09-31.319-27.87l.319-17.324 3-2.398 3-2.398 53.128-.005c43.607-.004 53.33-.249 54.257-1.367.82-.987 1.06-17.849.873-61.25L289.5 81.5l-31.036-.264c-23.303-.198-31.339.039-32.25.95m4.343 82.037c-2.222 3.171-2.023 10.98.355 13.916 1.602 1.98 2.829 2.361 7.588 2.361 7.226 0 9.5-2.301 9.5-9.611 0-6.937-2.184-8.889-9.943-8.889-5.008 0-6.189.35-7.5 2.223"/></svg>