<svg xmlns="http://www.w3.org/2000/svg" viewBox="-0.3 -1.5 2000.6 2001.9"><path fill="#00EF8B" d="M1087 3h7c51 5 103 14 153 27l2 1a913 913 0 0 1 61 17 915 915 0 0 1 320 175 1959 1959 0 0 0 41 34 433 433 0 0 1 51 50l8 8a182 182 0 0 1 16 17 295 295 0 0 1 22 26 420 420 0 0 1 43 56l5 6a971 971 0 0 1 79 132c40 78 69 163 101 351l1 2a636 636 0 0 1 3 100 823 823 0 0 1-3 89 964 964 0 0 1-130 407 724 724 0 0 1-29 47 996 996 0 0 1-498 393c-78 29-161 47-243 55l-3 1-17 1h-3a906 906 0 0 1-168-2 999 999 0 0 1-743-447l-1-2a955 955 0 0 1-58-100A1085 1085 0 0 1 0 1004v-9a807 807 0 0 1 4-90 1170 1170 0 0 1 129-406 724 724 0 0 1 29-47 996 996 0 0 1 336-318l3-2a955 955 0 0 1 55-29A1105 1105 0 0 1 916 3c56-6 115-6 171 0"/><path fill="#FEFEFE" d="M1256 420a7158 7158 0 0 0 16 0h12a24999 24999 0 0 1 152 0h144v282h-72a96866 96866 0 0 0-231 0c-35 0-64 7-90 32-30 31-30 67-31 110h282v282h-282v121c-2 26-4 49-10 74v2l-10 32v2l-17 41-1 3c-12 25-27 49-45 71l-2 3a343 343 0 0 1-48 50l-3 2a378 378 0 0 1-134 75l-3 1-20 6-4 1a329 329 0 0 1-48 8c-29 4-59 4-88 0h-3a371 371 0 0 1-215-101c-11-9-20-19-29-29l-2-3a390 390 0 0 1-18-483l6-8a328 328 0 0 1 53-56c72-63 164-94 259-94h11a18844 18844 0 0 1 89 0v-2a8257 8257 0 0 1 0-31 361 361 0 0 1 45-185c9-17 19-33 31-48l6-8a328 328 0 0 1 53-56c67-59 157-94 247-94"/><path fill="#FEFEFE" d="M1256 420a7158 7158 0 0 0 16 0h12a24999 24999 0 0 1 152 0h144v282h-72a96866 96866 0 0 0-231 0c-35 0-64 7-90 32-30 31-30 67-31 110H874c0-84 0-84 9-122l2-9a344 344 0 0 1 65-135l6-8a328 328 0 0 1 53-56c67-59 157-94 247-94"/><path fill="#FFF" d="M1156 844h282v282h-282z"/><path fill="#16FF99" d="M874 844h282v282H874z"/><path fill="#00EF8B" d="M783 1126a6004 6004 0 0 0 91 0 25193 25193 0 0 1 0 91c0 31-4 58-24 82l-2 2q-25.5 30-63 36l-3 1c-29 3-56-4-79-22-22-18-38-43-41-72-2-30 5-57 25-80 26-30 58-39 96-38"/></svg>