<svg xmlns="http://www.w3.org/2000/svg" fill="none" viewBox="0 0 621 621"><g filter="url(#a)"><circle cx="310.501" cy="310.501" r="310.501" fill="url(#b)"/></g><circle cx="310.501" cy="310.501" r="308.001" stroke="url(#c)" stroke-width="5"/><path fill="#FB6E1F" fill-rule="evenodd" d="M165.445 216.094h117.572c44.091 0 60.695 31.909 65.307 43.334 4.24 10.504 13.965 18.209 25.633 19.543 1.553.235 3.144.357 4.763.357h54.441c25.234 0 32.306 16.529 32.306 16.535 5.545 8.7 5.545 21.317 0 30.023l-.004.008c-.19.426-7.387 16.527-32.302 16.527h-53.943q-.305 0-.61.005c-26.637-1.183-39.7-18.049-52.104-34.064-11.586-14.959-22.598-29.177-43.562-29.177H165.439c-16.856 0-31.127 13.034-31.997 29.865-.94 18.182 13.519 33.221 31.499 33.221h125.697c25.235 0 32.307 16.529 32.307 16.535 5.545 8.7 5.545 21.317 0 30.023l-.004.008c-.191.427-7.388 16.527-32.303 16.527H165.439c-16.856 0-31.127 13.033-31.997 29.864-.94 18.182 13.519 33.222 31.499 33.222h118.001c20.116 0 28.451-13.091 37.526-27.347 10.666-16.753 22.356-35.113 55.395-35.724q1.412.128 2.857.128h46.744c20.117 0 28.451-13.091 37.527-27.346 10.847-17.039 22.754-35.74 57.102-35.74 18.926 0 32.641-15.248 31.48-33.594-.953-15.077-12.548-29.208-27.714-29.265v-.013c-28.488-.116-42.012-17.577-54.832-34.129-11.587-14.96-22.599-29.178-43.563-29.178h-44.799a32 32 0 0 0-3.082-.148h-.069c-30.133 0-42.477-17.805-54.05-34.496-10.211-14.728-19.822-28.59-40.522-28.59H164.941c-17.974 0-32.439 15.04-31.499 33.221.87 16.831 15.14 29.865 31.997 29.865z" clip-rule="evenodd"/><defs><linearGradient id="b" x1="310.501" x2="310.501" y1="0" y2="621.001" gradientUnits="userSpaceOnUse"><stop/><stop offset="1" stop-color="#515960"/></linearGradient><linearGradient id="c" x1="310.501" x2="310.501" y1="0" y2="621.001" gradientUnits="userSpaceOnUse"><stop stop-color="#515960"/><stop offset="1"/></linearGradient><filter id="a" width="621" height="631" x="0" y="-10" color-interpolation-filters="sRGB" filterUnits="userSpaceOnUse"><feFlood flood-opacity="0" result="BackgroundImageFix"/><feBlend in="SourceGraphic" in2="BackgroundImageFix" result="shape"/><feColorMatrix in="SourceAlpha" result="hardAlpha" values="0 0 0 0 0 0 0 0 0 0 0 0 0 0 0 0 0 0 127 0"/><feOffset dy="-10"/><feGaussianBlur stdDeviation="7.5"/><feComposite in2="hardAlpha" k2="-1" k3="1" operator="arithmetic"/><feColorMatrix values="0 0 0 0 0 0 0 0 0 0 0 0 0 0 0 0 0 0 0.5 0"/><feBlend in2="shape" result="effect1_innerShadow_1476_790"/><feColorMatrix in="SourceAlpha" result="hardAlpha" values="0 0 0 0 0 0 0 0 0 0 0 0 0 0 0 0 0 0 127 0"/><feOffset dy="-5"/><feGaussianBlur stdDeviation="2.5"/><feComposite in2="hardAlpha" k2="-1" k3="1" operator="arithmetic"/><feColorMatrix values="0 0 0 0 0 0 0 0 0 0 0 0 0 0 0 0 0 0 0.25 0"/><feBlend in2="effect1_innerShadow_1476_790" result="effect2_innerShadow_1476_790"/></filter></defs></svg>